<?xml version="1.0" encoding="UTF-8" standalone="no"?>
<!DOCTYPE svg PUBLIC "-//W3C//DTD SVG 1.1//EN"
 "http://www.w3.org/Graphics/SVG/1.1/DTD/svg11.dtd">
<!-- Generated by graphviz version 2.44.1 (20200629.0800)
 -->
<!-- Title: test Pages: 1 -->
<svg width="1341pt" height="218pt"
 viewBox="0.00 0.00 1340.54 218.00" xmlns="http://www.w3.org/2000/svg" xmlns:xlink="http://www.w3.org/1999/xlink">
<g id="graph0" class="graph" transform="scale(1 1) rotate(0) translate(4 214)">
<title>test</title>
<polygon fill="white" stroke="transparent" points="-4,4 -4,-214 1336.54,-214 1336.54,4 -4,4"/>
<!-- 0 -->
<g id="node1" class="node">
<title>0</title>
<g id="a_node1"><a xlink:href="financial manager.svg" xlink:title="financial manager">
<ellipse fill="none" stroke="black" cx="73.44" cy="-192" rx="73.39" ry="18"/>
<text text-anchor="middle" x="73.44" y="-188.3" font-family="Times New Roman,serif" font-size="14.00">financial manager</text>
</a>
</g>
</g>
<!-- 1 -->
<g id="node2" class="node">
<title>1</title>
<g id="a_node2"><a xlink:href="accountant.svg" xlink:title="accountant">
<ellipse fill="none" stroke="black" cx="401.44" cy="-105" rx="50.09" ry="18"/>
<text text-anchor="middle" x="401.44" y="-101.3" font-family="Times New Roman,serif" font-size="14.00">accountant</text>
</a>
</g>
</g>
<!-- 0&#45;&gt;1 -->
<g id="edge1" class="edge">
<title>0&#45;&gt;1</title>
<path fill="none" stroke="black" d="M83.86,-174.16C91.85,-162.8 103.95,-148.56 118.44,-141 156.1,-121.37 270.39,-112.33 341.68,-108.5"/>
<polygon fill="black" stroke="black" points="342.07,-111.99 351.87,-107.98 341.71,-105 342.07,-111.99"/>
<text text-anchor="middle" x="133.94" y="-144.8" font-family="Times New Roman,serif" font-size="14.00">0.078</text>
</g>
<!-- 1&#45;&gt;0 -->
<g id="edge11" class="edge">
<title>1&#45;&gt;0</title>
<path fill="none" stroke="black" d="M362.11,-116.19C304.85,-131.03 198.15,-158.68 131.74,-175.89"/>
<polygon fill="black" stroke="black" points="130.64,-172.56 121.84,-178.46 132.4,-179.34 130.64,-172.56"/>
<text text-anchor="middle" x="272.94" y="-144.8" font-family="Times New Roman,serif" font-size="14.00">0.246</text>
</g>
<!-- 1&#45;&gt;1 -->
<g id="edge10" class="edge">
<title>1&#45;&gt;1</title>
<path fill="none" stroke="black" d="M446.59,-112.84C459.52,-112.54 469.49,-109.92 469.49,-105 469.49,-101.46 464.34,-99.12 456.64,-97.96"/>
<polygon fill="black" stroke="black" points="456.84,-94.47 446.59,-97.16 456.28,-101.45 456.84,-94.47"/>
<text text-anchor="middle" x="484.99" y="-101.3" font-family="Times New Roman,serif" font-size="14.00">0.528</text>
</g>
<!-- 2 -->
<g id="node3" class="node">
<title>2</title>
<g id="a_node3"><a xlink:href="auditor.svg" xlink:title="auditor">
<ellipse fill="none" stroke="black" cx="89.44" cy="-18" rx="36.29" ry="18"/>
<text text-anchor="middle" x="89.44" y="-14.3" font-family="Times New Roman,serif" font-size="14.00">auditor</text>
</a>
</g>
</g>
<!-- 1&#45;&gt;2 -->
<g id="edge14" class="edge">
<title>1&#45;&gt;2</title>
<path fill="none" stroke="black" d="M351.39,-103.28C280.05,-101.36 153.6,-94.36 116.44,-69 108.19,-63.36 102.23,-54.35 98.06,-45.53"/>
<polygon fill="black" stroke="black" points="101.25,-44.09 94.2,-36.18 94.78,-46.76 101.25,-44.09"/>
<text text-anchor="middle" x="131.94" y="-57.8" font-family="Times New Roman,serif" font-size="14.00">0.035</text>
</g>
<!-- 3 -->
<g id="node4" class="node">
<title>3</title>
<g id="a_node4"><a xlink:href="it consultant.svg" xlink:title="it consultant">
<ellipse fill="none" stroke="black" cx="198.44" cy="-18" rx="54.69" ry="18"/>
<text text-anchor="middle" x="198.44" y="-14.3" font-family="Times New Roman,serif" font-size="14.00">it consultant</text>
</a>
</g>
</g>
<!-- 1&#45;&gt;3 -->
<g id="edge13" class="edge">
<title>1&#45;&gt;3</title>
<path fill="none" stroke="black" d="M351.88,-101.78C318.08,-98.32 273.45,-89.77 239.44,-69 229.43,-62.88 220.75,-53.42 213.99,-44.36"/>
<polygon fill="black" stroke="black" points="216.71,-42.13 208.12,-35.93 210.96,-46.14 216.71,-42.13"/>
<text text-anchor="middle" x="254.94" y="-57.8" font-family="Times New Roman,serif" font-size="14.00">0.049</text>
</g>
<!-- 5 -->
<g id="node6" class="node">
<title>5</title>
<g id="a_node6"><a xlink:href="investment analyst.svg" xlink:title="investment analyst">
<ellipse fill="none" stroke="black" cx="347.44" cy="-18" rx="76.89" ry="18"/>
<text text-anchor="middle" x="347.44" y="-14.3" font-family="Times New Roman,serif" font-size="14.00">investment analyst</text>
</a>
</g>
</g>
<!-- 1&#45;&gt;5 -->
<g id="edge12" class="edge">
<title>1&#45;&gt;5</title>
<path fill="none" stroke="black" d="M368.56,-91.31C359.07,-85.93 349.83,-78.63 344.44,-69 340.65,-62.22 339.87,-54.08 340.46,-46.35"/>
<polygon fill="black" stroke="black" points="343.96,-46.65 341.97,-36.24 337.03,-45.62 343.96,-46.65"/>
<text text-anchor="middle" x="359.94" y="-57.8" font-family="Times New Roman,serif" font-size="14.00">0.091</text>
</g>
<!-- 10 -->
<g id="node11" class="node">
<title>10</title>
<g id="a_node11"><a xlink:href="heritage manager.svg" xlink:title="heritage manager">
<ellipse fill="none" stroke="black" cx="513.44" cy="-18" rx="71.49" ry="18"/>
<text text-anchor="middle" x="513.44" y="-14.3" font-family="Times New Roman,serif" font-size="14.00">heritage manager</text>
</a>
</g>
</g>
<!-- 1&#45;&gt;10 -->
<g id="edge15" class="edge">
<title>1&#45;&gt;10</title>
<path fill="none" stroke="black" d="M421.99,-88.41C439.34,-75.24 464.4,-56.22 483.91,-41.42"/>
<polygon fill="black" stroke="black" points="486.04,-44.19 491.89,-35.36 481.8,-38.62 486.04,-44.19"/>
<text text-anchor="middle" x="479.94" y="-57.8" font-family="Times New Roman,serif" font-size="14.00">0.035</text>
</g>
<!-- 11 -->
<g id="node12" class="node">
<title>11</title>
<g id="a_node12"><a xlink:href="catering manager.svg" xlink:title="catering manager">
<ellipse fill="none" stroke="black" cx="674.44" cy="-18" rx="71.49" ry="18"/>
<text text-anchor="middle" x="674.44" y="-14.3" font-family="Times New Roman,serif" font-size="14.00">catering manager</text>
</a>
</g>
</g>
<!-- 1&#45;&gt;11 -->
<g id="edge16" class="edge">
<title>1&#45;&gt;11</title>
<path fill="none" stroke="black" d="M437.98,-92.62C485.17,-77.93 567.64,-52.25 621.64,-35.44"/>
<polygon fill="black" stroke="black" points="622.87,-38.72 631.38,-32.41 620.79,-32.04 622.87,-38.72"/>
<text text-anchor="middle" x="569.94" y="-57.8" font-family="Times New Roman,serif" font-size="14.00">0.028</text>
</g>
<!-- 12 -->
<g id="node13" class="node">
<title>12</title>
<g id="a_node13"><a xlink:href="investment fund manager.svg" xlink:title="investment fund manager">
<ellipse fill="none" stroke="black" cx="864.44" cy="-18" rx="100.98" ry="18"/>
<text text-anchor="middle" x="864.44" y="-14.3" font-family="Times New Roman,serif" font-size="14.00">investment fund manager</text>
</a>
</g>
</g>
<!-- 1&#45;&gt;12 -->
<g id="edge17" class="edge">
<title>1&#45;&gt;12</title>
<path fill="none" stroke="black" d="M445,-96C523.35,-81.62 689,-51.21 787.06,-33.21"/>
<polygon fill="black" stroke="black" points="787.71,-36.64 796.92,-31.4 786.45,-29.76 787.71,-36.64"/>
<text text-anchor="middle" x="675.94" y="-57.8" font-family="Times New Roman,serif" font-size="14.00">0.028</text>
</g>
<!-- 13 -->
<g id="node14" class="node">
<title>13</title>
<g id="a_node14"><a xlink:href="pharmacovigilance officer.svg" xlink:title="pharmacovigilance officer">
<ellipse fill="none" stroke="black" cx="1087.44" cy="-18" rx="104.78" ry="18"/>
<text text-anchor="middle" x="1087.44" y="-14.3" font-family="Times New Roman,serif" font-size="14.00">pharmacovigilance officer</text>
</a>
</g>
</g>
<!-- 1&#45;&gt;13 -->
<g id="edge18" class="edge">
<title>1&#45;&gt;13</title>
<path fill="none" stroke="black" d="M448.67,-98.9C546.75,-88.2 779.6,-62.21 974.44,-36 983.47,-34.79 992.89,-33.46 1002.27,-32.1"/>
<polygon fill="black" stroke="black" points="1003.03,-35.53 1012.42,-30.62 1002.02,-28.6 1003.03,-35.53"/>
<text text-anchor="middle" x="847.94" y="-57.8" font-family="Times New Roman,serif" font-size="14.00">0.028</text>
</g>
<!-- 14 -->
<g id="node15" class="node">
<title>14</title>
<g id="a_node15"><a xlink:href="sales manager.svg" xlink:title="sales manager">
<ellipse fill="none" stroke="black" cx="1271.44" cy="-18" rx="61.19" ry="18"/>
<text text-anchor="middle" x="1271.44" y="-14.3" font-family="Times New Roman,serif" font-size="14.00">sales manager</text>
</a>
</g>
</g>
<!-- 1&#45;&gt;14 -->
<g id="edge19" class="edge">
<title>1&#45;&gt;14</title>
<path fill="none" stroke="black" d="M451.43,-102.65C577.88,-98.61 920.42,-83.77 1201.44,-36 1206.76,-35.1 1212.27,-34.01 1217.76,-32.84"/>
<polygon fill="black" stroke="black" points="1218.58,-36.24 1227.58,-30.65 1217.05,-29.41 1218.58,-36.24"/>
<text text-anchor="middle" x="1086.94" y="-57.8" font-family="Times New Roman,serif" font-size="14.00">0.028</text>
</g>
<!-- 2&#45;&gt;1 -->
<g id="edge2" class="edge">
<title>2&#45;&gt;1</title>
<path fill="none" stroke="black" d="M111.17,-32.57C130.48,-44.02 159.86,-59.95 187.44,-69 238.44,-85.73 299.01,-94.68 342.67,-99.33"/>
<polygon fill="black" stroke="black" points="342.53,-102.83 352.83,-100.36 343.24,-95.87 342.53,-102.83"/>
<text text-anchor="middle" x="202.94" y="-57.8" font-family="Times New Roman,serif" font-size="14.00">0.036</text>
</g>
<!-- 3&#45;&gt;1 -->
<g id="edge3" class="edge">
<title>3&#45;&gt;1</title>
<path fill="none" stroke="black" d="M227.95,-33.45C249.5,-43.8 279.53,-57.84 306.44,-69 322.71,-75.75 340.8,-82.58 356.79,-88.39"/>
<polygon fill="black" stroke="black" points="355.85,-91.77 366.44,-91.87 358.22,-85.18 355.85,-91.77"/>
<text text-anchor="middle" x="321.94" y="-57.8" font-family="Times New Roman,serif" font-size="14.00">0.031</text>
</g>
<!-- 4 -->
<g id="node5" class="node">
<title>4</title>
<g id="a_node5"><a xlink:href="personal assistant.svg" xlink:title="personal assistant">
<ellipse fill="none" stroke="black" cx="239.44" cy="-192" rx="74.99" ry="18"/>
<text text-anchor="middle" x="239.44" y="-188.3" font-family="Times New Roman,serif" font-size="14.00">personal assistant</text>
</a>
</g>
</g>
<!-- 4&#45;&gt;1 -->
<g id="edge4" class="edge">
<title>4&#45;&gt;1</title>
<path fill="none" stroke="black" d="M269.16,-175.41C296.27,-161.18 336.42,-140.12 365.37,-124.93"/>
<polygon fill="black" stroke="black" points="367.11,-127.97 374.34,-120.22 363.86,-121.77 367.11,-127.97"/>
<text text-anchor="middle" x="345.94" y="-144.8" font-family="Times New Roman,serif" font-size="14.00">0.031</text>
</g>
<!-- 5&#45;&gt;1 -->
<g id="edge5" class="edge">
<title>5&#45;&gt;1</title>
<path fill="none" stroke="black" d="M364.92,-35.88C370.01,-41.35 375.31,-47.65 379.44,-54 384.18,-61.26 388.33,-69.71 391.72,-77.58"/>
<polygon fill="black" stroke="black" points="388.58,-79.15 395.59,-87.09 395.07,-76.51 388.58,-79.15"/>
<text text-anchor="middle" x="403.94" y="-57.8" font-family="Times New Roman,serif" font-size="14.00">0.026</text>
</g>
<!-- 6 -->
<g id="node7" class="node">
<title>6</title>
<g id="a_node7"><a xlink:href="project manager.svg" xlink:title="project manager">
<ellipse fill="none" stroke="black" cx="401.44" cy="-192" rx="68.79" ry="18"/>
<text text-anchor="middle" x="401.44" y="-188.3" font-family="Times New Roman,serif" font-size="14.00">project manager</text>
</a>
</g>
</g>
<!-- 6&#45;&gt;1 -->
<g id="edge6" class="edge">
<title>6&#45;&gt;1</title>
<path fill="none" stroke="black" d="M401.44,-173.8C401.44,-162.16 401.44,-146.55 401.44,-133.24"/>
<polygon fill="black" stroke="black" points="404.94,-133.18 401.44,-123.18 397.94,-133.18 404.94,-133.18"/>
<text text-anchor="middle" x="416.94" y="-144.8" font-family="Times New Roman,serif" font-size="14.00">0.026</text>
</g>
<!-- 7 -->
<g id="node8" class="node">
<title>7</title>
<g id="a_node8"><a xlink:href="qa analyst.svg" xlink:title="qa analyst">
<ellipse fill="none" stroke="black" cx="535.44" cy="-192" rx="46.59" ry="18"/>
<text text-anchor="middle" x="535.44" y="-188.3" font-family="Times New Roman,serif" font-size="14.00">qa analyst</text>
</a>
</g>
</g>
<!-- 7&#45;&gt;1 -->
<g id="edge7" class="edge">
<title>7&#45;&gt;1</title>
<path fill="none" stroke="black" d="M512.1,-176.19C490.33,-162.38 457.67,-141.66 433.46,-126.31"/>
<polygon fill="black" stroke="black" points="435.29,-123.32 424.97,-120.92 431.54,-129.23 435.29,-123.32"/>
<text text-anchor="middle" x="492.94" y="-144.8" font-family="Times New Roman,serif" font-size="14.00">0.020</text>
</g>
<!-- 8 -->
<g id="node9" class="node">
<title>8</title>
<g id="a_node9"><a xlink:href="civil service administrator.svg" xlink:title="civil service administrator">
<ellipse fill="none" stroke="black" cx="702.44" cy="-192" rx="102.88" ry="18"/>
<text text-anchor="middle" x="702.44" y="-188.3" font-family="Times New Roman,serif" font-size="14.00">civil service administrator</text>
</a>
</g>
</g>
<!-- 8&#45;&gt;1 -->
<g id="edge8" class="edge">
<title>8&#45;&gt;1</title>
<path fill="none" stroke="black" d="M650.7,-176.39C594.21,-160.44 504.48,-135.1 449.49,-119.57"/>
<polygon fill="black" stroke="black" points="450.22,-116.14 439.65,-116.79 448.32,-122.87 450.22,-116.14"/>
<text text-anchor="middle" x="585.94" y="-144.8" font-family="Times New Roman,serif" font-size="14.00">0.015</text>
</g>
<!-- 9 -->
<g id="node10" class="node">
<title>9</title>
<g id="a_node10"><a xlink:href="computer sales support.svg" xlink:title="computer sales support">
<ellipse fill="none" stroke="black" cx="919.44" cy="-192" rx="96.38" ry="18"/>
<text text-anchor="middle" x="919.44" y="-188.3" font-family="Times New Roman,serif" font-size="14.00">computer sales support</text>
</a>
</g>
</g>
<!-- 9&#45;&gt;1 -->
<g id="edge9" class="edge">
<title>9&#45;&gt;1</title>
<path fill="none" stroke="black" d="M849.58,-179.54C745.14,-162.4 550.46,-130.45 455.85,-114.93"/>
<polygon fill="black" stroke="black" points="456.35,-111.46 445.92,-113.3 455.22,-118.37 456.35,-111.46"/>
<text text-anchor="middle" x="706.94" y="-144.8" font-family="Times New Roman,serif" font-size="14.00">0.015</text>
</g>
</g>
</svg>
