<?xml version="1.0" encoding="UTF-8" standalone="no"?>
<!DOCTYPE svg PUBLIC "-//W3C//DTD SVG 1.1//EN"
 "http://www.w3.org/Graphics/SVG/1.1/DTD/svg11.dtd">
<!-- Generated by graphviz version 2.44.1 (20200629.0800)
 -->
<!-- Title: test Pages: 1 -->
<svg width="1295pt" height="218pt"
 viewBox="0.00 0.00 1294.74 218.00" xmlns="http://www.w3.org/2000/svg" xmlns:xlink="http://www.w3.org/1999/xlink">
<g id="graph0" class="graph" transform="scale(1 1) rotate(0) translate(4 214)">
<title>test</title>
<polygon fill="white" stroke="transparent" points="-4,4 -4,-214 1290.74,-214 1290.74,4 -4,4"/>
<!-- 0 -->
<g id="node1" class="node">
<title>0</title>
<g id="a_node1"><a xlink:href="project manager.svg" xlink:title="project manager">
<ellipse fill="none" stroke="black" cx="68.89" cy="-192" rx="68.79" ry="18"/>
<text text-anchor="middle" x="68.89" y="-188.3" font-family="Times New Roman,serif" font-size="14.00">project manager</text>
</a>
</g>
</g>
<!-- 1 -->
<g id="node2" class="node">
<title>1</title>
<g id="a_node2"><a xlink:href="actuary.svg" xlink:title="actuary">
<ellipse fill="none" stroke="black" cx="525.89" cy="-105" rx="37.09" ry="18"/>
<text text-anchor="middle" x="525.89" y="-101.3" font-family="Times New Roman,serif" font-size="14.00">actuary</text>
</a>
</g>
</g>
<!-- 0&#45;&gt;1 -->
<g id="edge1" class="edge">
<title>0&#45;&gt;1</title>
<path fill="none" stroke="black" d="M84.18,-173.97C95.56,-162.52 112.14,-148.24 129.89,-141 191.96,-115.67 387.86,-108.63 478.74,-106.71"/>
<polygon fill="black" stroke="black" points="478.84,-110.21 488.77,-106.51 478.7,-103.21 478.84,-110.21"/>
<text text-anchor="middle" x="145.39" y="-144.8" font-family="Times New Roman,serif" font-size="14.00">0.093</text>
</g>
<!-- 1&#45;&gt;0 -->
<g id="edge11" class="edge">
<title>1&#45;&gt;0</title>
<path fill="none" stroke="black" d="M491.49,-111.68C424.7,-122.81 272.9,-148.63 145.89,-174 140.52,-175.07 134.95,-176.23 129.37,-177.41"/>
<polygon fill="black" stroke="black" points="128.41,-174.03 119.36,-179.55 129.88,-180.88 128.41,-174.03"/>
<text text-anchor="middle" x="325.39" y="-144.8" font-family="Times New Roman,serif" font-size="14.00">0.12</text>
</g>
<!-- 1&#45;&gt;1 -->
<g id="edge10" class="edge">
<title>1&#45;&gt;1</title>
<path fill="none" stroke="black" d="M559.22,-112.87C571.18,-113.04 580.94,-110.41 580.94,-105 580.94,-101.28 576.33,-98.88 569.56,-97.79"/>
<polygon fill="black" stroke="black" points="569.42,-94.28 559.22,-97.13 568.97,-101.26 569.42,-94.28"/>
<text text-anchor="middle" x="589.94" y="-101.3" font-family="Times New Roman,serif" font-size="14.00">0.4</text>
</g>
<!-- 4 -->
<g id="node5" class="node">
<title>4</title>
<g id="a_node5"><a xlink:href="civil engineer.svg" xlink:title="civil engineer">
<ellipse fill="none" stroke="black" cx="214.89" cy="-18" rx="57.69" ry="18"/>
<text text-anchor="middle" x="214.89" y="-14.3" font-family="Times New Roman,serif" font-size="14.00">civil engineer</text>
</a>
</g>
</g>
<!-- 1&#45;&gt;4 -->
<g id="edge17" class="edge">
<title>1&#45;&gt;4</title>
<path fill="none" stroke="black" d="M488.92,-102.02C426.34,-98.19 302.57,-88.36 263.89,-69 252.01,-63.05 241.33,-53.06 233.01,-43.56"/>
<polygon fill="black" stroke="black" points="235.66,-41.28 226.59,-35.8 230.26,-45.74 235.66,-41.28"/>
<text text-anchor="middle" x="276.39" y="-57.8" font-family="Times New Roman,serif" font-size="14.00">0.04</text>
</g>
<!-- 9 -->
<g id="node10" class="node">
<title>9</title>
<g id="a_node10"><a xlink:href="lecturer.svg" xlink:title="lecturer">
<ellipse fill="none" stroke="black" cx="328.89" cy="-18" rx="37.89" ry="18"/>
<text text-anchor="middle" x="328.89" y="-14.3" font-family="Times New Roman,serif" font-size="14.00">lecturer</text>
</a>
</g>
</g>
<!-- 1&#45;&gt;9 -->
<g id="edge13" class="edge">
<title>1&#45;&gt;9</title>
<path fill="none" stroke="black" d="M490.3,-99.68C461.21,-95.08 419.69,-86.03 386.89,-69 373.54,-62.07 360.66,-51.49 350.45,-41.85"/>
<polygon fill="black" stroke="black" points="352.78,-39.24 343.19,-34.74 347.88,-44.24 352.78,-39.24"/>
<text text-anchor="middle" x="399.39" y="-57.8" font-family="Times New Roman,serif" font-size="14.00">0.08</text>
</g>
<!-- 10 -->
<g id="node11" class="node">
<title>10</title>
<g id="a_node11"><a xlink:href="investment analyst.svg" xlink:title="investment analyst">
<ellipse fill="none" stroke="black" cx="460.89" cy="-18" rx="76.89" ry="18"/>
<text text-anchor="middle" x="460.89" y="-14.3" font-family="Times New Roman,serif" font-size="14.00">investment analyst</text>
</a>
</g>
</g>
<!-- 1&#45;&gt;10 -->
<g id="edge12" class="edge">
<title>1&#45;&gt;10</title>
<path fill="none" stroke="black" d="M513.36,-87.61C503.95,-75.31 490.9,-58.23 480.16,-44.2"/>
<polygon fill="black" stroke="black" points="482.69,-41.74 473.83,-35.92 477.13,-45.99 482.69,-41.74"/>
<text text-anchor="middle" x="510.39" y="-57.8" font-family="Times New Roman,serif" font-size="14.00">0.08</text>
</g>
<!-- 11 -->
<g id="node12" class="node">
<title>11</title>
<g id="a_node12"><a xlink:href="auditor.svg" xlink:title="auditor">
<ellipse fill="none" stroke="black" cx="591.89" cy="-18" rx="36.29" ry="18"/>
<text text-anchor="middle" x="591.89" y="-14.3" font-family="Times New Roman,serif" font-size="14.00">auditor</text>
</a>
</g>
</g>
<!-- 1&#45;&gt;11 -->
<g id="edge14" class="edge">
<title>1&#45;&gt;11</title>
<path fill="none" stroke="black" d="M538.31,-88.01C548.11,-75.39 561.94,-57.57 573.1,-43.2"/>
<polygon fill="black" stroke="black" points="575.94,-45.25 579.31,-35.21 570.41,-40.96 575.94,-45.25"/>
<text text-anchor="middle" x="575.39" y="-57.8" font-family="Times New Roman,serif" font-size="14.00">0.04</text>
</g>
<!-- 12 -->
<g id="node13" class="node">
<title>12</title>
<g id="a_node13"><a xlink:href="catering manager.svg" xlink:title="catering manager">
<ellipse fill="none" stroke="black" cx="717.89" cy="-18" rx="71.49" ry="18"/>
<text text-anchor="middle" x="717.89" y="-14.3" font-family="Times New Roman,serif" font-size="14.00">catering manager</text>
</a>
</g>
</g>
<!-- 1&#45;&gt;12 -->
<g id="edge15" class="edge">
<title>1&#45;&gt;12</title>
<path fill="none" stroke="black" d="M552.59,-92.18C584.22,-78.18 637.35,-54.66 674.82,-38.07"/>
<polygon fill="black" stroke="black" points="676.26,-41.26 683.99,-34.01 673.43,-34.86 676.26,-41.26"/>
<text text-anchor="middle" x="646.39" y="-57.8" font-family="Times New Roman,serif" font-size="14.00">0.04</text>
</g>
<!-- 13 -->
<g id="node14" class="node">
<title>13</title>
<g id="a_node14"><a xlink:href="chemical engineer.svg" xlink:title="chemical engineer">
<ellipse fill="none" stroke="black" cx="881.89" cy="-18" rx="74.99" ry="18"/>
<text text-anchor="middle" x="881.89" y="-14.3" font-family="Times New Roman,serif" font-size="14.00">chemical engineer</text>
</a>
</g>
</g>
<!-- 1&#45;&gt;13 -->
<g id="edge16" class="edge">
<title>1&#45;&gt;13</title>
<path fill="none" stroke="black" d="M558.43,-96.23C617.9,-82.03 744.99,-51.69 820.96,-33.55"/>
<polygon fill="black" stroke="black" points="821.96,-36.91 830.87,-31.18 820.33,-30.1 821.96,-36.91"/>
<text text-anchor="middle" x="738.39" y="-57.8" font-family="Times New Roman,serif" font-size="14.00">0.04</text>
</g>
<!-- 14 -->
<g id="node15" class="node">
<title>14</title>
<g id="a_node15"><a xlink:href="commissioning editor.svg" xlink:title="commissioning editor">
<ellipse fill="none" stroke="black" cx="1063.89" cy="-18" rx="89.08" ry="18"/>
<text text-anchor="middle" x="1063.89" y="-14.3" font-family="Times New Roman,serif" font-size="14.00">commissioning editor</text>
</a>
</g>
</g>
<!-- 1&#45;&gt;14 -->
<g id="edge18" class="edge">
<title>1&#45;&gt;14</title>
<path fill="none" stroke="black" d="M560.73,-98.86C635.17,-87.83 815.27,-60.84 965.89,-36 973.44,-34.76 981.31,-33.43 989.17,-32.1"/>
<polygon fill="black" stroke="black" points="989.81,-35.54 999.08,-30.4 988.63,-28.64 989.81,-35.54"/>
<text text-anchor="middle" x="858.39" y="-57.8" font-family="Times New Roman,serif" font-size="14.00">0.04</text>
</g>
<!-- 15 -->
<g id="node16" class="node">
<title>15</title>
<g id="a_node16"><a xlink:href="data scientist.svg" xlink:title="data scientist">
<ellipse fill="none" stroke="black" cx="1228.89" cy="-18" rx="57.69" ry="18"/>
<text text-anchor="middle" x="1228.89" y="-14.3" font-family="Times New Roman,serif" font-size="14.00">data scientist</text>
</a>
</g>
</g>
<!-- 1&#45;&gt;15 -->
<g id="edge19" class="edge">
<title>1&#45;&gt;15</title>
<path fill="none" stroke="black" d="M562.74,-102C660.85,-96.25 936.35,-77.39 1161.89,-36 1166.86,-35.09 1172,-34.02 1177.12,-32.87"/>
<polygon fill="black" stroke="black" points="1177.97,-36.26 1186.91,-30.57 1176.37,-29.45 1177.97,-36.26"/>
<text text-anchor="middle" x="1053.39" y="-57.8" font-family="Times New Roman,serif" font-size="14.00">0.04</text>
</g>
<!-- 2 -->
<g id="node3" class="node">
<title>2</title>
<g id="a_node3"><a xlink:href="education administrator.svg" xlink:title="education administrator">
<ellipse fill="none" stroke="black" cx="250.89" cy="-192" rx="95.58" ry="18"/>
<text text-anchor="middle" x="250.89" y="-188.3" font-family="Times New Roman,serif" font-size="14.00">education administrator</text>
</a>
</g>
</g>
<!-- 2&#45;&gt;1 -->
<g id="edge2" class="edge">
<title>2&#45;&gt;1</title>
<path fill="none" stroke="black" d="M298.48,-176.29C351.41,-159.93 435.98,-133.79 485.71,-118.42"/>
<polygon fill="black" stroke="black" points="486.95,-121.7 495.47,-115.4 484.88,-115.01 486.95,-121.7"/>
<text text-anchor="middle" x="420.39" y="-144.8" font-family="Times New Roman,serif" font-size="14.00">0.062</text>
</g>
<!-- 3 -->
<g id="node4" class="node">
<title>3</title>
<g id="a_node4"><a xlink:href="systems analyst.svg" xlink:title="systems analyst">
<ellipse fill="none" stroke="black" cx="431.89" cy="-192" rx="67.69" ry="18"/>
<text text-anchor="middle" x="431.89" y="-188.3" font-family="Times New Roman,serif" font-size="14.00">systems analyst</text>
</a>
</g>
</g>
<!-- 3&#45;&gt;1 -->
<g id="edge3" class="edge">
<title>3&#45;&gt;1</title>
<path fill="none" stroke="black" d="M450.02,-174.61C464.69,-161.34 485.49,-142.54 501.6,-127.97"/>
<polygon fill="black" stroke="black" points="504.02,-130.5 509.09,-121.2 499.32,-125.31 504.02,-130.5"/>
<text text-anchor="middle" x="500.39" y="-144.8" font-family="Times New Roman,serif" font-size="14.00">0.062</text>
</g>
<!-- 4&#45;&gt;1 -->
<g id="edge4" class="edge">
<title>4&#45;&gt;1</title>
<path fill="none" stroke="black" d="M244.02,-33.63C267.29,-44.78 301,-59.74 331.89,-69 381.66,-83.91 440.61,-93.45 480.36,-98.74"/>
<polygon fill="black" stroke="black" points="479.92,-102.21 490.29,-100.02 480.82,-95.27 479.92,-102.21"/>
<text text-anchor="middle" x="347.39" y="-57.8" font-family="Times New Roman,serif" font-size="14.00">0.031</text>
</g>
<!-- 5 -->
<g id="node6" class="node">
<title>5</title>
<g id="a_node6"><a xlink:href="civil service administrator.svg" xlink:title="civil service administrator">
<ellipse fill="none" stroke="black" cx="619.89" cy="-192" rx="102.88" ry="18"/>
<text text-anchor="middle" x="619.89" y="-188.3" font-family="Times New Roman,serif" font-size="14.00">civil service administrator</text>
</a>
</g>
</g>
<!-- 5&#45;&gt;1 -->
<g id="edge5" class="edge">
<title>5&#45;&gt;1</title>
<path fill="none" stroke="black" d="M601.32,-174.21C586.83,-161.11 566.57,-142.78 550.7,-128.43"/>
<polygon fill="black" stroke="black" points="552.61,-125.44 542.85,-121.33 547.92,-130.63 552.61,-125.44"/>
<text text-anchor="middle" x="594.39" y="-144.8" font-family="Times New Roman,serif" font-size="14.00">0.031</text>
</g>
<!-- 6 -->
<g id="node7" class="node">
<title>6</title>
<g id="a_node7"><a xlink:href="commercial horticulturist.svg" xlink:title="commercial horticulturist">
<ellipse fill="none" stroke="black" cx="840.89" cy="-192" rx="100.98" ry="18"/>
<text text-anchor="middle" x="840.89" y="-188.3" font-family="Times New Roman,serif" font-size="14.00">commercial horticulturist</text>
</a>
</g>
</g>
<!-- 6&#45;&gt;1 -->
<g id="edge6" class="edge">
<title>6&#45;&gt;1</title>
<path fill="none" stroke="black" d="M787.81,-176.68C725.62,-159.89 623.89,-132.44 567.26,-117.16"/>
<polygon fill="black" stroke="black" points="568.13,-113.77 557.56,-114.55 566.31,-120.53 568.13,-113.77"/>
<text text-anchor="middle" x="718.39" y="-144.8" font-family="Times New Roman,serif" font-size="14.00">0.031</text>
</g>
<!-- 7 -->
<g id="node8" class="node">
<title>7</title>
<g id="a_node8"><a xlink:href="environmental manager.svg" xlink:title="environmental manager">
<ellipse fill="none" stroke="black" cx="1052.89" cy="-192" rx="93.68" ry="18"/>
<text text-anchor="middle" x="1052.89" y="-188.3" font-family="Times New Roman,serif" font-size="14.00">environmental manager</text>
</a>
</g>
</g>
<!-- 7&#45;&gt;1 -->
<g id="edge7" class="edge">
<title>7&#45;&gt;1</title>
<path fill="none" stroke="black" d="M984.87,-179.6C973.53,-177.72 961.88,-175.79 950.89,-174 812.21,-151.35 647.94,-125.28 570.51,-113.04"/>
<polygon fill="black" stroke="black" points="571.04,-109.58 560.61,-111.48 569.94,-116.5 571.04,-109.58"/>
<text text-anchor="middle" x="850.39" y="-144.8" font-family="Times New Roman,serif" font-size="14.00">0.031</text>
</g>
<!-- 8 -->
<g id="node9" class="node">
<title>8</title>
<g id="a_node9"><a xlink:href="it consultant.svg" xlink:title="it consultant">
<ellipse fill="none" stroke="black" cx="1218.89" cy="-192" rx="54.69" ry="18"/>
<text text-anchor="middle" x="1218.89" y="-188.3" font-family="Times New Roman,serif" font-size="14.00">it consultant</text>
</a>
</g>
</g>
<!-- 8&#45;&gt;1 -->
<g id="edge8" class="edge">
<title>8&#45;&gt;1</title>
<path fill="none" stroke="black" d="M1179.45,-179.39C1171.69,-177.38 1163.57,-175.47 1155.89,-174 940.45,-132.74 678.4,-114.5 573.07,-108.45"/>
<polygon fill="black" stroke="black" points="572.96,-104.94 562.78,-107.87 572.56,-111.93 572.96,-104.94"/>
<text text-anchor="middle" x="1051.39" y="-144.8" font-family="Times New Roman,serif" font-size="14.00">0.031</text>
</g>
<!-- 9&#45;&gt;1 -->
<g id="edge9" class="edge">
<title>9&#45;&gt;1</title>
<path fill="none" stroke="black" d="M355.86,-30.64C390.54,-45.6 450.88,-71.63 489.57,-88.33"/>
<polygon fill="black" stroke="black" points="488.35,-91.61 498.91,-92.36 491.12,-85.18 488.35,-91.61"/>
<text text-anchor="middle" x="455.39" y="-57.8" font-family="Times New Roman,serif" font-size="14.00">0.031</text>
</g>
</g>
</svg>
