<?xml version="1.0" encoding="UTF-8" standalone="no"?>
<!DOCTYPE svg PUBLIC "-//W3C//DTD SVG 1.1//EN"
 "http://www.w3.org/Graphics/SVG/1.1/DTD/svg11.dtd">
<!-- Generated by graphviz version 2.44.1 (20200629.0800)
 -->
<!-- Title: agricultural_consultant Pages: 1 -->
<svg width="1477pt" height="218pt"
 viewBox="0.00 0.00 1476.59 218.00" xmlns="http://www.w3.org/2000/svg" xmlns:xlink="http://www.w3.org/1999/xlink">
<g id="graph0" class="graph" transform="scale(1 1) rotate(0) translate(4 214)">
<title>agricultural_consultant</title>
<polygon fill="white" stroke="transparent" points="-4,4 -4,-214 1472.59,-214 1472.59,4 -4,4"/>
<!-- 0 -->
<g id="node1" class="node">
<title>0</title>
<g id="a_node1"><a xlink:href="it consultant.svg" xlink:title="it consultant">
<ellipse fill="none" stroke="black" cx="273.99" cy="-192" rx="54.69" ry="18"/>
<text text-anchor="middle" x="273.99" y="-188.3" font-family="Times New Roman,serif" font-size="14.00">it consultant</text>
</a>
</g>
</g>
<!-- 1 -->
<g id="node2" class="node">
<title>1</title>
<g id="a_node2"><a xlink:href="agricultural consultant.svg" xlink:title="agricultural consultant">
<ellipse fill="none" stroke="black" cx="498.99" cy="-105" rx="89.88" ry="18"/>
<text text-anchor="middle" x="498.99" y="-101.3" font-family="Times New Roman,serif" font-size="14.00">agricultural consultant</text>
</a>
</g>
</g>
<!-- 0&#45;&gt;1 -->
<g id="edge1" class="edge">
<title>0&#45;&gt;1</title>
<path fill="none" stroke="black" d="M272.43,-173.88C272.43,-162.99 274.44,-149.41 282.99,-141 300.17,-124.12 353.3,-115.38 402.56,-110.85"/>
<polygon fill="black" stroke="black" points="403.02,-114.32 412.68,-109.97 402.41,-107.35 403.02,-114.32"/>
<text text-anchor="middle" x="298.49" y="-144.8" font-family="Times New Roman,serif" font-size="14.00">0.106</text>
</g>
<!-- 1&#45;&gt;0 -->
<g id="edge11" class="edge">
<title>1&#45;&gt;0</title>
<path fill="none" stroke="black" d="M458.25,-121.09C441.71,-127.23 422.43,-134.43 404.99,-141 375.81,-152 343.02,-164.52 317.55,-174.27"/>
<polygon fill="black" stroke="black" points="316.25,-171.02 308.17,-177.87 318.76,-177.56 316.25,-171.02"/>
<text text-anchor="middle" x="420.49" y="-144.8" font-family="Times New Roman,serif" font-size="14.00">0.218</text>
</g>
<!-- 1&#45;&gt;1 -->
<g id="edge10" class="edge">
<title>1&#45;&gt;1</title>
<path fill="none" stroke="black" d="M580.7,-112.47C595.95,-111.55 606.69,-109.06 606.69,-105 606.69,-101.92 600.52,-99.75 590.9,-98.47"/>
<polygon fill="black" stroke="black" points="590.98,-94.97 580.7,-97.53 590.34,-101.94 590.98,-94.97"/>
<text text-anchor="middle" x="622.19" y="-101.3" font-family="Times New Roman,serif" font-size="14.00">0.291</text>
</g>
<!-- 2 -->
<g id="node3" class="node">
<title>2</title>
<g id="a_node3"><a xlink:href="careers adviser.svg" xlink:title="careers adviser">
<ellipse fill="none" stroke="black" cx="64.99" cy="-18" rx="64.99" ry="18"/>
<text text-anchor="middle" x="64.99" y="-14.3" font-family="Times New Roman,serif" font-size="14.00">careers adviser</text>
</a>
</g>
</g>
<!-- 1&#45;&gt;2 -->
<g id="edge17" class="edge">
<title>1&#45;&gt;2</title>
<path fill="none" stroke="black" d="M409.55,-103.55C340.83,-101.1 244.26,-93.05 162.99,-69 140.43,-62.32 116.89,-50.49 98.54,-40.02"/>
<polygon fill="black" stroke="black" points="100.11,-36.88 89.71,-34.85 96.58,-42.92 100.11,-36.88"/>
<text text-anchor="middle" x="178.49" y="-57.8" font-family="Times New Roman,serif" font-size="14.00">0.020</text>
</g>
<!-- 3 -->
<g id="node4" class="node">
<title>3</title>
<g id="a_node4"><a xlink:href="pharmacovigilance officer.svg" xlink:title="pharmacovigilance officer">
<ellipse fill="none" stroke="black" cx="252.99" cy="-18" rx="104.78" ry="18"/>
<text text-anchor="middle" x="252.99" y="-14.3" font-family="Times New Roman,serif" font-size="14.00">pharmacovigilance officer</text>
</a>
</g>
</g>
<!-- 1&#45;&gt;3 -->
<g id="edge15" class="edge">
<title>1&#45;&gt;3</title>
<path fill="none" stroke="black" d="M423.43,-95.21C392.69,-89.96 357.34,-81.74 326.99,-69 310.81,-62.21 294.47,-51.64 281.28,-41.97"/>
<polygon fill="black" stroke="black" points="283.18,-39.03 273.09,-35.8 278.97,-44.62 283.18,-39.03"/>
<text text-anchor="middle" x="342.49" y="-57.8" font-family="Times New Roman,serif" font-size="14.00">0.031</text>
</g>
<!-- 8 -->
<g id="node9" class="node">
<title>8</title>
<g id="a_node9"><a xlink:href="project manager.svg" xlink:title="project manager">
<ellipse fill="none" stroke="black" cx="444.99" cy="-18" rx="68.79" ry="18"/>
<text text-anchor="middle" x="444.99" y="-14.3" font-family="Times New Roman,serif" font-size="14.00">project manager</text>
</a>
</g>
</g>
<!-- 1&#45;&gt;8 -->
<g id="edge12" class="edge">
<title>1&#45;&gt;8</title>
<path fill="none" stroke="black" d="M461.65,-88.61C453.8,-83.57 446.53,-77.11 441.99,-69 438.2,-62.22 437.42,-54.08 438.01,-46.35"/>
<polygon fill="black" stroke="black" points="441.51,-46.65 439.52,-36.24 434.58,-45.62 441.51,-46.65"/>
<text text-anchor="middle" x="457.49" y="-57.8" font-family="Times New Roman,serif" font-size="14.00">0.083</text>
</g>
<!-- 10 -->
<g id="node11" class="node">
<title>10</title>
<g id="a_node11"><a xlink:href="production manager.svg" xlink:title="production manager">
<ellipse fill="none" stroke="black" cx="614.99" cy="-18" rx="83.39" ry="18"/>
<text text-anchor="middle" x="614.99" y="-14.3" font-family="Times New Roman,serif" font-size="14.00">production manager</text>
</a>
</g>
</g>
<!-- 1&#45;&gt;10 -->
<g id="edge13" class="edge">
<title>1&#45;&gt;10</title>
<path fill="none" stroke="black" d="M521.64,-87.41C539.44,-74.36 564.43,-56.05 584.08,-41.65"/>
<polygon fill="black" stroke="black" points="586.41,-44.28 592.41,-35.55 582.27,-38.64 586.41,-44.28"/>
<text text-anchor="middle" x="579.49" y="-57.8" font-family="Times New Roman,serif" font-size="14.00">0.041</text>
</g>
<!-- 11 -->
<g id="node12" class="node">
<title>11</title>
<g id="a_node12"><a xlink:href="materials specialist.svg" xlink:title="materials specialist">
<ellipse fill="none" stroke="black" cx="793.99" cy="-18" rx="77.99" ry="18"/>
<text text-anchor="middle" x="793.99" y="-14.3" font-family="Times New Roman,serif" font-size="14.00">materials specialist</text>
</a>
</g>
</g>
<!-- 1&#45;&gt;11 -->
<g id="edge14" class="edge">
<title>1&#45;&gt;11</title>
<path fill="none" stroke="black" d="M548.04,-89.87C600.17,-74.85 682.5,-51.13 737.36,-35.32"/>
<polygon fill="black" stroke="black" points="738.63,-38.59 747.27,-32.46 736.69,-31.87 738.63,-38.59"/>
<text text-anchor="middle" x="680.49" y="-57.8" font-family="Times New Roman,serif" font-size="14.00">0.031</text>
</g>
<!-- 12 -->
<g id="node13" class="node">
<title>12</title>
<g id="a_node13"><a xlink:href="software architect.svg" xlink:title="software architect">
<ellipse fill="none" stroke="black" cx="964.99" cy="-18" rx="75.29" ry="18"/>
<text text-anchor="middle" x="964.99" y="-14.3" font-family="Times New Roman,serif" font-size="14.00">software architect</text>
</a>
</g>
</g>
<!-- 1&#45;&gt;12 -->
<g id="edge16" class="edge">
<title>1&#45;&gt;12</title>
<path fill="none" stroke="black" d="M565.35,-92.76C641.62,-79.71 770.52,-57.25 880.99,-36 887.13,-34.82 893.52,-33.57 899.9,-32.3"/>
<polygon fill="black" stroke="black" points="900.78,-35.7 909.9,-30.31 899.41,-28.83 900.78,-35.7"/>
<text text-anchor="middle" x="792.49" y="-57.8" font-family="Times New Roman,serif" font-size="14.00">0.031</text>
</g>
<!-- 13 -->
<g id="node14" class="node">
<title>13</title>
<g id="a_node14"><a xlink:href="civil service administrator.svg" xlink:title="civil service administrator">
<ellipse fill="none" stroke="black" cx="1160.99" cy="-18" rx="102.88" ry="18"/>
<text text-anchor="middle" x="1160.99" y="-14.3" font-family="Times New Roman,serif" font-size="14.00">civil service administrator</text>
</a>
</g>
</g>
<!-- 1&#45;&gt;13 -->
<g id="edge18" class="edge">
<title>1&#45;&gt;13</title>
<path fill="none" stroke="black" d="M576.56,-95.91C639.94,-89.17 731.83,-79.06 811.99,-69 917.52,-55.76 943.75,-51.31 1048.99,-36 1057.93,-34.7 1067.26,-33.32 1076.55,-31.93"/>
<polygon fill="black" stroke="black" points="1077.24,-35.37 1086.61,-30.42 1076.2,-28.44 1077.24,-35.37"/>
<text text-anchor="middle" x="937.49" y="-57.8" font-family="Times New Roman,serif" font-size="14.00">0.020</text>
</g>
<!-- 14 -->
<g id="node15" class="node">
<title>14</title>
<g id="a_node15"><a xlink:href="environmental manager.svg" xlink:title="environmental manager">
<ellipse fill="none" stroke="black" cx="1374.99" cy="-18" rx="93.68" ry="18"/>
<text text-anchor="middle" x="1374.99" y="-14.3" font-family="Times New Roman,serif" font-size="14.00">environmental manager</text>
</a>
</g>
</g>
<!-- 1&#45;&gt;14 -->
<g id="edge19" class="edge">
<title>1&#45;&gt;14</title>
<path fill="none" stroke="black" d="M584.04,-99.15C726.84,-90.42 1023.7,-69.76 1272.99,-36 1281.24,-34.88 1289.85,-33.61 1298.41,-32.28"/>
<polygon fill="black" stroke="black" points="1299.09,-35.72 1308.42,-30.7 1297.99,-28.8 1299.09,-35.72"/>
<text text-anchor="middle" x="1140.49" y="-57.8" font-family="Times New Roman,serif" font-size="14.00">0.020</text>
</g>
<!-- 2&#45;&gt;1 -->
<g id="edge2" class="edge">
<title>2&#45;&gt;1</title>
<path fill="none" stroke="black" d="M108.97,-31.37C149.11,-42.35 210.2,-58.26 263.99,-69 313.73,-78.93 369.9,-87.39 414.85,-93.51"/>
<polygon fill="black" stroke="black" points="414.47,-96.99 424.85,-94.86 415.4,-90.05 414.47,-96.99"/>
<text text-anchor="middle" x="279.49" y="-57.8" font-family="Times New Roman,serif" font-size="14.00">0.030</text>
</g>
<!-- 3&#45;&gt;1 -->
<g id="edge3" class="edge">
<title>3&#45;&gt;1</title>
<path fill="none" stroke="black" d="M297.32,-34.32C339.19,-48.78 402.02,-70.49 446.41,-85.83"/>
<polygon fill="black" stroke="black" points="445.27,-89.14 455.86,-89.1 447.55,-82.52 445.27,-89.14"/>
<text text-anchor="middle" x="406.49" y="-57.8" font-family="Times New Roman,serif" font-size="14.00">0.030</text>
</g>
<!-- 4 -->
<g id="node5" class="node">
<title>4</title>
<g id="a_node5"><a xlink:href="qa analyst.svg" xlink:title="qa analyst">
<ellipse fill="none" stroke="black" cx="392.99" cy="-192" rx="46.59" ry="18"/>
<text text-anchor="middle" x="392.99" y="-188.3" font-family="Times New Roman,serif" font-size="14.00">qa analyst</text>
</a>
</g>
</g>
<!-- 4&#45;&gt;1 -->
<g id="edge4" class="edge">
<title>4&#45;&gt;1</title>
<path fill="none" stroke="black" d="M412.44,-175.41C428.61,-162.44 451.86,-143.8 470.19,-129.1"/>
<polygon fill="black" stroke="black" points="472.61,-131.64 478.23,-122.65 468.23,-126.18 472.61,-131.64"/>
<text text-anchor="middle" x="468.49" y="-144.8" font-family="Times New Roman,serif" font-size="14.00">0.030</text>
</g>
<!-- 5 -->
<g id="node6" class="node">
<title>5</title>
<g id="a_node6"><a xlink:href="architect.svg" xlink:title="architect">
<ellipse fill="none" stroke="black" cx="498.99" cy="-192" rx="41.69" ry="18"/>
<text text-anchor="middle" x="498.99" y="-188.3" font-family="Times New Roman,serif" font-size="14.00">architect</text>
</a>
</g>
</g>
<!-- 5&#45;&gt;1 -->
<g id="edge5" class="edge">
<title>5&#45;&gt;1</title>
<path fill="none" stroke="black" d="M498.99,-173.8C498.99,-162.16 498.99,-146.55 498.99,-133.24"/>
<polygon fill="black" stroke="black" points="502.49,-133.18 498.99,-123.18 495.49,-133.18 502.49,-133.18"/>
<text text-anchor="middle" x="514.49" y="-144.8" font-family="Times New Roman,serif" font-size="14.00">0.022</text>
</g>
<!-- 6 -->
<g id="node7" class="node">
<title>6</title>
<g id="a_node7"><a xlink:href="financial manager.svg" xlink:title="financial manager">
<ellipse fill="none" stroke="black" cx="631.99" cy="-192" rx="73.39" ry="18"/>
<text text-anchor="middle" x="631.99" y="-188.3" font-family="Times New Roman,serif" font-size="14.00">financial manager</text>
</a>
</g>
</g>
<!-- 6&#45;&gt;1 -->
<g id="edge6" class="edge">
<title>6&#45;&gt;1</title>
<path fill="none" stroke="black" d="M606.98,-175.01C586.16,-161.71 556.31,-142.63 533.27,-127.91"/>
<polygon fill="black" stroke="black" points="535.12,-124.93 524.81,-122.5 531.35,-130.83 535.12,-124.93"/>
<text text-anchor="middle" x="589.49" y="-144.8" font-family="Times New Roman,serif" font-size="14.00">0.022</text>
</g>
<!-- 7 -->
<g id="node8" class="node">
<title>7</title>
<g id="a_node8"><a xlink:href="geographical information systems manager.svg" xlink:title="geographical information systems manager">
<ellipse fill="none" stroke="black" cx="888.99" cy="-192" rx="165.17" ry="18"/>
<text text-anchor="middle" x="888.99" y="-188.3" font-family="Times New Roman,serif" font-size="14.00">geographical information systems manager</text>
</a>
</g>
</g>
<!-- 7&#45;&gt;1 -->
<g id="edge7" class="edge">
<title>7&#45;&gt;1</title>
<path fill="none" stroke="black" d="M818.82,-175.71C747.65,-160.19 638.2,-136.34 567.6,-120.95"/>
<polygon fill="black" stroke="black" points="567.99,-117.46 557.47,-118.75 566.5,-124.29 567.99,-117.46"/>
<text text-anchor="middle" x="733.49" y="-144.8" font-family="Times New Roman,serif" font-size="14.00">0.022</text>
</g>
<!-- 8&#45;&gt;1 -->
<g id="edge8" class="edge">
<title>8&#45;&gt;1</title>
<path fill="none" stroke="black" d="M462.14,-35.52C467.33,-41.07 472.77,-47.52 476.99,-54 481.65,-61.15 485.76,-69.45 489.12,-77.21"/>
<polygon fill="black" stroke="black" points="485.94,-78.69 492.97,-86.63 492.42,-76.05 485.94,-78.69"/>
<text text-anchor="middle" x="501.49" y="-57.8" font-family="Times New Roman,serif" font-size="14.00">0.022</text>
</g>
<!-- 9 -->
<g id="node10" class="node">
<title>9</title>
<g id="a_node10"><a xlink:href="retail buyer.svg" xlink:title="retail buyer">
<ellipse fill="none" stroke="black" cx="1122.99" cy="-192" rx="50.89" ry="18"/>
<text text-anchor="middle" x="1122.99" y="-188.3" font-family="Times New Roman,serif" font-size="14.00">retail buyer</text>
</a>
</g>
</g>
<!-- 9&#45;&gt;1 -->
<g id="edge9" class="edge">
<title>9&#45;&gt;1</title>
<path fill="none" stroke="black" d="M1086.09,-179.57C1078.5,-177.49 1070.53,-175.51 1062.99,-174 898.9,-141.07 704.52,-121.92 592.11,-112.75"/>
<polygon fill="black" stroke="black" points="592.08,-109.23 581.83,-111.92 591.52,-116.21 592.08,-109.23"/>
<text text-anchor="middle" x="971.49" y="-144.8" font-family="Times New Roman,serif" font-size="14.00">0.022</text>
</g>
</g>
</svg>
