<?xml version="1.0" encoding="UTF-8" standalone="no"?>
<!DOCTYPE svg PUBLIC "-//W3C//DTD SVG 1.1//EN"
 "http://www.w3.org/Graphics/SVG/1.1/DTD/svg11.dtd">
<!-- Generated by graphviz version 2.44.1 (20200629.0800)
 -->
<!-- Title: test Pages: 1 -->
<svg width="1321pt" height="218pt"
 viewBox="0.00 0.00 1321.19 218.00" xmlns="http://www.w3.org/2000/svg" xmlns:xlink="http://www.w3.org/1999/xlink">
<g id="graph0" class="graph" transform="scale(1 1) rotate(0) translate(4 214)">
<title>test</title>
<polygon fill="white" stroke="transparent" points="-4,4 -4,-214 1317.19,-214 1317.19,4 -4,4"/>
<!-- 0 -->
<g id="node1" class="node">
<title>0</title>
<g id="a_node1"><a xlink:href="it consultant.svg" xlink:title="it consultant">
<ellipse fill="none" stroke="black" cx="171.8" cy="-192" rx="54.69" ry="18"/>
<text text-anchor="middle" x="171.8" y="-188.3" font-family="Times New Roman,serif" font-size="14.00">it consultant</text>
</a>
</g>
</g>
<!-- 1 -->
<g id="node2" class="node">
<title>1</title>
<g id="a_node2"><a xlink:href="agricultural consultant.svg" xlink:title="agricultural consultant">
<ellipse fill="none" stroke="black" cx="418.8" cy="-105" rx="89.88" ry="18"/>
<text text-anchor="middle" x="418.8" y="-101.3" font-family="Times New Roman,serif" font-size="14.00">agricultural consultant</text>
</a>
</g>
</g>
<!-- 0&#45;&gt;1 -->
<g id="edge1" class="edge">
<title>0&#45;&gt;1</title>
<path fill="none" stroke="black" d="M169.04,-173.95C168.32,-163.09 169.49,-149.51 177.8,-141 197.54,-120.77 262.41,-112.12 319.88,-108.48"/>
<polygon fill="black" stroke="black" points="320.36,-111.96 330.14,-107.87 319.95,-104.97 320.36,-111.96"/>
<text text-anchor="middle" x="193.3" y="-144.8" font-family="Times New Roman,serif" font-size="14.00">0.098</text>
</g>
<!-- 1&#45;&gt;0 -->
<g id="edge11" class="edge">
<title>1&#45;&gt;0</title>
<path fill="none" stroke="black" d="M372.53,-120.44C353.1,-126.61 330.3,-134 309.8,-141 278.33,-151.75 243.09,-164.53 216.1,-174.48"/>
<polygon fill="black" stroke="black" points="214.72,-171.26 206.55,-178.01 217.14,-177.82 214.72,-171.26"/>
<text text-anchor="middle" x="325.3" y="-144.8" font-family="Times New Roman,serif" font-size="14.00">0.208</text>
</g>
<!-- 1&#45;&gt;1 -->
<g id="edge10" class="edge">
<title>1&#45;&gt;1</title>
<path fill="none" stroke="black" d="M500.51,-112.47C515.75,-111.55 526.49,-109.06 526.49,-105 526.49,-101.92 520.32,-99.75 510.7,-98.47"/>
<polygon fill="black" stroke="black" points="510.79,-94.97 500.51,-97.53 510.14,-101.94 510.79,-94.97"/>
<text text-anchor="middle" x="541.99" y="-101.3" font-family="Times New Roman,serif" font-size="14.00">0.252</text>
</g>
<!-- 2 -->
<g id="node3" class="node">
<title>2</title>
<g id="a_node3"><a xlink:href="qa analyst.svg" xlink:title="qa analyst">
<ellipse fill="none" stroke="black" cx="46.8" cy="-18" rx="46.59" ry="18"/>
<text text-anchor="middle" x="46.8" y="-14.3" font-family="Times New Roman,serif" font-size="14.00">qa analyst</text>
</a>
</g>
</g>
<!-- 1&#45;&gt;2 -->
<g id="edge18" class="edge">
<title>1&#45;&gt;2</title>
<path fill="none" stroke="black" d="M332.63,-99.99C254.35,-95.34 145.27,-86.03 105.8,-69 91.85,-62.98 78.7,-52.52 68.37,-42.71"/>
<polygon fill="black" stroke="black" points="70.61,-40 61.06,-35.42 65.67,-44.96 70.61,-40"/>
<text text-anchor="middle" x="121.3" y="-57.8" font-family="Times New Roman,serif" font-size="14.00">0.026</text>
</g>
<!-- 3 -->
<g id="node4" class="node">
<title>3</title>
<g id="a_node4"><a xlink:href="careers adviser.svg" xlink:title="careers adviser">
<ellipse fill="none" stroke="black" cx="176.8" cy="-18" rx="64.99" ry="18"/>
<text text-anchor="middle" x="176.8" y="-14.3" font-family="Times New Roman,serif" font-size="14.00">careers adviser</text>
</a>
</g>
</g>
<!-- 1&#45;&gt;3 -->
<g id="edge15" class="edge">
<title>1&#45;&gt;3</title>
<path fill="none" stroke="black" d="M343.18,-95.14C312.99,-89.9 278.43,-81.7 248.8,-69 232.73,-62.11 216.59,-51.34 203.68,-41.56"/>
<polygon fill="black" stroke="black" points="205.72,-38.72 195.69,-35.32 201.42,-44.24 205.72,-38.72"/>
<text text-anchor="middle" x="264.3" y="-57.8" font-family="Times New Roman,serif" font-size="14.00">0.026</text>
</g>
<!-- 4 -->
<g id="node5" class="node">
<title>4</title>
<g id="a_node5"><a xlink:href="pharmacovigilance officer.svg" xlink:title="pharmacovigilance officer">
<ellipse fill="none" stroke="black" cx="364.8" cy="-18" rx="104.78" ry="18"/>
<text text-anchor="middle" x="364.8" y="-14.3" font-family="Times New Roman,serif" font-size="14.00">pharmacovigilance officer</text>
</a>
</g>
</g>
<!-- 1&#45;&gt;4 -->
<g id="edge14" class="edge">
<title>1&#45;&gt;4</title>
<path fill="none" stroke="black" d="M381.45,-88.61C373.6,-83.57 366.33,-77.11 361.8,-69 358,-62.22 357.22,-54.08 357.81,-46.35"/>
<polygon fill="black" stroke="black" points="361.31,-46.65 359.32,-36.24 354.39,-45.62 361.31,-46.65"/>
<text text-anchor="middle" x="377.3" y="-57.8" font-family="Times New Roman,serif" font-size="14.00">0.034</text>
</g>
<!-- 10 -->
<g id="node11" class="node">
<title>10</title>
<g id="a_node11"><a xlink:href="project manager.svg" xlink:title="project manager">
<ellipse fill="none" stroke="black" cx="556.8" cy="-18" rx="68.79" ry="18"/>
<text text-anchor="middle" x="556.8" y="-14.3" font-family="Times New Roman,serif" font-size="14.00">project manager</text>
</a>
</g>
</g>
<!-- 1&#45;&gt;10 -->
<g id="edge12" class="edge">
<title>1&#45;&gt;10</title>
<path fill="none" stroke="black" d="M445.4,-87.61C467.35,-74.09 498.64,-54.82 522.47,-40.14"/>
<polygon fill="black" stroke="black" points="524.52,-42.99 531.2,-34.76 520.85,-37.03 524.52,-42.99"/>
<text text-anchor="middle" x="512.3" y="-57.8" font-family="Times New Roman,serif" font-size="14.00">0.069</text>
</g>
<!-- 11 -->
<g id="node12" class="node">
<title>11</title>
<g id="a_node12"><a xlink:href="production manager.svg" xlink:title="production manager">
<ellipse fill="none" stroke="black" cx="726.8" cy="-18" rx="83.39" ry="18"/>
<text text-anchor="middle" x="726.8" y="-14.3" font-family="Times New Roman,serif" font-size="14.00">production manager</text>
</a>
</g>
</g>
<!-- 1&#45;&gt;11 -->
<g id="edge13" class="edge">
<title>1&#45;&gt;11</title>
<path fill="none" stroke="black" d="M469.31,-90.06C523.76,-75.03 610.33,-51.14 667.85,-35.27"/>
<polygon fill="black" stroke="black" points="668.82,-38.63 677.53,-32.6 666.96,-31.88 668.82,-38.63"/>
<text text-anchor="middle" x="607.3" y="-57.8" font-family="Times New Roman,serif" font-size="14.00">0.043</text>
</g>
<!-- 12 -->
<g id="node13" class="node">
<title>12</title>
<g id="a_node13"><a xlink:href="heritage manager.svg" xlink:title="heritage manager">
<ellipse fill="none" stroke="black" cx="899.8" cy="-18" rx="71.49" ry="18"/>
<text text-anchor="middle" x="899.8" y="-14.3" font-family="Times New Roman,serif" font-size="14.00">heritage manager</text>
</a>
</g>
</g>
<!-- 1&#45;&gt;12 -->
<g id="edge16" class="edge">
<title>1&#45;&gt;12</title>
<path fill="none" stroke="black" d="M486.89,-93.28C566.61,-80.53 702.55,-58.18 818.8,-36 824.67,-34.88 830.78,-33.67 836.89,-32.44"/>
<polygon fill="black" stroke="black" points="838.03,-35.78 847.13,-30.35 836.63,-28.92 838.03,-35.78"/>
<text text-anchor="middle" x="736.3" y="-57.8" font-family="Times New Roman,serif" font-size="14.00">0.026</text>
</g>
<!-- 13 -->
<g id="node14" class="node">
<title>13</title>
<g id="a_node14"><a xlink:href="materials specialist.svg" xlink:title="materials specialist">
<ellipse fill="none" stroke="black" cx="1066.8" cy="-18" rx="77.99" ry="18"/>
<text text-anchor="middle" x="1066.8" y="-14.3" font-family="Times New Roman,serif" font-size="14.00">materials specialist</text>
</a>
</g>
</g>
<!-- 1&#45;&gt;13 -->
<g id="edge17" class="edge">
<title>1&#45;&gt;13</title>
<path fill="none" stroke="black" d="M498.57,-96.68C566.93,-90.18 667.96,-80.03 755.8,-69 855.64,-56.47 880.61,-52.99 979.8,-36 986.42,-34.87 993.32,-33.62 1000.2,-32.34"/>
<polygon fill="black" stroke="black" points="1001.06,-35.74 1010.24,-30.45 999.76,-28.86 1001.06,-35.74"/>
<text text-anchor="middle" x="883.3" y="-57.8" font-family="Times New Roman,serif" font-size="14.00">0.026</text>
</g>
<!-- 14 -->
<g id="node15" class="node">
<title>14</title>
<g id="a_node15"><a xlink:href="software architect.svg" xlink:title="software architect">
<ellipse fill="none" stroke="black" cx="1237.8" cy="-18" rx="75.29" ry="18"/>
<text text-anchor="middle" x="1237.8" y="-14.3" font-family="Times New Roman,serif" font-size="14.00">software architect</text>
</a>
</g>
</g>
<!-- 1&#45;&gt;14 -->
<g id="edge19" class="edge">
<title>1&#45;&gt;14</title>
<path fill="none" stroke="black" d="M505.32,-100.09C643.27,-92.94 921.21,-74.78 1153.8,-36 1160.06,-34.96 1166.56,-33.79 1173.06,-32.57"/>
<polygon fill="black" stroke="black" points="1174.06,-35.94 1183.22,-30.61 1172.74,-29.06 1174.06,-35.94"/>
<text text-anchor="middle" x="1029.3" y="-57.8" font-family="Times New Roman,serif" font-size="14.00">0.026</text>
</g>
<!-- 2&#45;&gt;1 -->
<g id="edge2" class="edge">
<title>2&#45;&gt;1</title>
<path fill="none" stroke="black" d="M77.13,-31.76C105.14,-43.08 148.12,-59.27 186.8,-69 233.71,-80.8 287.02,-89.18 330.7,-94.78"/>
<polygon fill="black" stroke="black" points="330.36,-98.26 340.72,-96.04 331.23,-91.32 330.36,-98.26"/>
<text text-anchor="middle" x="202.3" y="-57.8" font-family="Times New Roman,serif" font-size="14.00">0.039</text>
</g>
<!-- 3&#45;&gt;1 -->
<g id="edge3" class="edge">
<title>3&#45;&gt;1</title>
<path fill="none" stroke="black" d="M215.58,-32.62C256.53,-47 321.32,-69.76 366.71,-85.7"/>
<polygon fill="black" stroke="black" points="365.77,-89.09 376.37,-89.1 368.09,-82.48 365.77,-89.09"/>
<text text-anchor="middle" x="328.3" y="-57.8" font-family="Times New Roman,serif" font-size="14.00">0.032</text>
</g>
<!-- 4&#45;&gt;1 -->
<g id="edge4" class="edge">
<title>4&#45;&gt;1</title>
<path fill="none" stroke="black" d="M382.28,-35.88C387.36,-41.35 392.66,-47.65 396.8,-54 401.46,-61.15 405.56,-69.45 408.92,-77.21"/>
<polygon fill="black" stroke="black" points="405.74,-78.69 412.77,-86.63 412.22,-76.05 405.74,-78.69"/>
<text text-anchor="middle" x="421.3" y="-57.8" font-family="Times New Roman,serif" font-size="14.00">0.026</text>
</g>
<!-- 5 -->
<g id="node6" class="node">
<title>5</title>
<g id="a_node6"><a xlink:href="architect.svg" xlink:title="architect">
<ellipse fill="none" stroke="black" cx="285.8" cy="-192" rx="41.69" ry="18"/>
<text text-anchor="middle" x="285.8" y="-188.3" font-family="Times New Roman,serif" font-size="14.00">architect</text>
</a>
</g>
</g>
<!-- 5&#45;&gt;1 -->
<g id="edge5" class="edge">
<title>5&#45;&gt;1</title>
<path fill="none" stroke="black" d="M308.06,-176.77C329,-163.39 360.66,-143.16 384.77,-127.75"/>
<polygon fill="black" stroke="black" points="386.73,-130.64 393.28,-122.31 382.97,-124.75 386.73,-130.64"/>
<text text-anchor="middle" x="376.3" y="-144.8" font-family="Times New Roman,serif" font-size="14.00">0.019</text>
</g>
<!-- 6 -->
<g id="node7" class="node">
<title>6</title>
<g id="a_node7"><a xlink:href="financial manager.svg" xlink:title="financial manager">
<ellipse fill="none" stroke="black" cx="418.8" cy="-192" rx="73.39" ry="18"/>
<text text-anchor="middle" x="418.8" y="-188.3" font-family="Times New Roman,serif" font-size="14.00">financial manager</text>
</a>
</g>
</g>
<!-- 6&#45;&gt;1 -->
<g id="edge6" class="edge">
<title>6&#45;&gt;1</title>
<path fill="none" stroke="black" d="M418.8,-173.8C418.8,-162.16 418.8,-146.55 418.8,-133.24"/>
<polygon fill="black" stroke="black" points="422.3,-133.18 418.8,-123.18 415.3,-133.18 422.3,-133.18"/>
<text text-anchor="middle" x="434.3" y="-144.8" font-family="Times New Roman,serif" font-size="14.00">0.019</text>
</g>
<!-- 7 -->
<g id="node8" class="node">
<title>7</title>
<g id="a_node8"><a xlink:href="geographical information systems manager.svg" xlink:title="geographical information systems manager">
<ellipse fill="none" stroke="black" cx="675.8" cy="-192" rx="165.17" ry="18"/>
<text text-anchor="middle" x="675.8" y="-188.3" font-family="Times New Roman,serif" font-size="14.00">geographical information systems manager</text>
</a>
</g>
</g>
<!-- 7&#45;&gt;1 -->
<g id="edge7" class="edge">
<title>7&#45;&gt;1</title>
<path fill="none" stroke="black" d="M626.55,-174.71C582.55,-160.16 518.22,-138.88 472.83,-123.87"/>
<polygon fill="black" stroke="black" points="473.75,-120.49 463.16,-120.67 471.55,-127.13 473.75,-120.49"/>
<text text-anchor="middle" x="578.3" y="-144.8" font-family="Times New Roman,serif" font-size="14.00">0.019</text>
</g>
<!-- 8 -->
<g id="node9" class="node">
<title>8</title>
<g id="a_node9"><a xlink:href="health and safety adviser.svg" xlink:title="health and safety adviser">
<ellipse fill="none" stroke="black" cx="958.8" cy="-192" rx="99.38" ry="18"/>
<text text-anchor="middle" x="958.8" y="-188.3" font-family="Times New Roman,serif" font-size="14.00">health and safety adviser</text>
</a>
</g>
</g>
<!-- 8&#45;&gt;1 -->
<g id="edge8" class="edge">
<title>8&#45;&gt;1</title>
<path fill="none" stroke="black" d="M886.53,-179.62C785.29,-163.69 601.95,-134.83 497.4,-118.37"/>
<polygon fill="black" stroke="black" points="497.65,-114.87 487.23,-116.77 496.56,-121.78 497.65,-114.87"/>
<text text-anchor="middle" x="737.3" y="-144.8" font-family="Times New Roman,serif" font-size="14.00">0.019</text>
</g>
<!-- 9 -->
<g id="node10" class="node">
<title>9</title>
<g id="a_node10"><a xlink:href="lecturer.svg" xlink:title="lecturer">
<ellipse fill="none" stroke="black" cx="1113.8" cy="-192" rx="37.89" ry="18"/>
<text text-anchor="middle" x="1113.8" y="-188.3" font-family="Times New Roman,serif" font-size="14.00">lecturer</text>
</a>
</g>
</g>
<!-- 9&#45;&gt;1 -->
<g id="edge9" class="edge">
<title>9&#45;&gt;1</title>
<path fill="none" stroke="black" d="M1085.79,-179.63C1079.62,-177.47 1073.05,-175.44 1066.8,-174 875.23,-129.84 645.11,-114.3 517.08,-108.87"/>
<polygon fill="black" stroke="black" points="517.04,-105.37 506.91,-108.45 516.75,-112.36 517.04,-105.37"/>
<text text-anchor="middle" x="977.3" y="-144.8" font-family="Times New Roman,serif" font-size="14.00">0.019</text>
</g>
</g>
</svg>
