<?xml version="1.0" encoding="UTF-8" standalone="no"?>
<!DOCTYPE svg PUBLIC "-//W3C//DTD SVG 1.1//EN"
 "http://www.w3.org/Graphics/SVG/1.1/DTD/svg11.dtd">
<!-- Generated by graphviz version 2.44.1 (20200629.0800)
 -->
<!-- Title: test Pages: 1 -->
<svg width="1565pt" height="218pt"
 viewBox="0.00 0.00 1564.84 218.00" xmlns="http://www.w3.org/2000/svg" xmlns:xlink="http://www.w3.org/1999/xlink">
<g id="graph0" class="graph" transform="scale(1 1) rotate(0) translate(4 214)">
<title>test</title>
<polygon fill="white" stroke="transparent" points="-4,4 -4,-214 1560.84,-214 1560.84,4 -4,4"/>
<!-- 0 -->
<g id="node1" class="node">
<title>0</title>
<g id="a_node1"><a xlink:href="sales manager.svg" xlink:title="sales manager">
<ellipse fill="none" stroke="black" cx="185.6" cy="-192" rx="61.19" ry="18"/>
<text text-anchor="middle" x="185.6" y="-188.3" font-family="Times New Roman,serif" font-size="14.00">sales manager</text>
</a>
</g>
</g>
<!-- 1 -->
<g id="node2" class="node">
<title>1</title>
<g id="a_node2"><a xlink:href="aid worker.svg" xlink:title="aid worker">
<ellipse fill="none" stroke="black" cx="586.6" cy="-105" rx="49.29" ry="18"/>
<text text-anchor="middle" x="586.6" y="-101.3" font-family="Times New Roman,serif" font-size="14.00">aid worker</text>
</a>
</g>
</g>
<!-- 0&#45;&gt;1 -->
<g id="edge1" class="edge">
<title>0&#45;&gt;1</title>
<path fill="none" stroke="black" d="M231.13,-179.84C239.27,-177.87 247.68,-175.86 255.6,-174 319.93,-158.87 335.89,-154.45 400.6,-141 445.15,-131.74 495.92,-122.26 533.16,-115.5"/>
<polygon fill="black" stroke="black" points="534.07,-118.9 543.28,-113.67 532.82,-112.01 534.07,-118.9"/>
<text text-anchor="middle" x="416.1" y="-144.8" font-family="Times New Roman,serif" font-size="14.00">0.061</text>
</g>
<!-- 1&#45;&gt;1 -->
<g id="edge10" class="edge">
<title>1&#45;&gt;1</title>
<path fill="none" stroke="black" d="M631.32,-112.84C644.12,-112.54 653.99,-109.92 653.99,-105 653.99,-101.54 649.11,-99.22 641.76,-98.04"/>
<polygon fill="black" stroke="black" points="641.57,-94.51 631.32,-97.16 640.98,-101.49 641.57,-94.51"/>
<text text-anchor="middle" x="669.49" y="-101.3" font-family="Times New Roman,serif" font-size="14.00">0.114</text>
</g>
<!-- 6 -->
<g id="node7" class="node">
<title>6</title>
<g id="a_node7"><a xlink:href="it consultant.svg" xlink:title="it consultant">
<ellipse fill="none" stroke="black" cx="54.6" cy="-18" rx="54.69" ry="18"/>
<text text-anchor="middle" x="54.6" y="-14.3" font-family="Times New Roman,serif" font-size="14.00">it consultant</text>
</a>
</g>
</g>
<!-- 1&#45;&gt;6 -->
<g id="edge12" class="edge">
<title>1&#45;&gt;6</title>
<path fill="none" stroke="black" d="M537.62,-102.45C439.86,-98.96 223.78,-89.17 152.6,-69 129.38,-62.42 105.21,-50.16 86.69,-39.43"/>
<polygon fill="black" stroke="black" points="88.46,-36.41 78.07,-34.31 84.88,-42.43 88.46,-36.41"/>
<text text-anchor="middle" x="168.1" y="-57.8" font-family="Times New Roman,serif" font-size="14.00">0.042</text>
</g>
<!-- 8 -->
<g id="node9" class="node">
<title>8</title>
<g id="a_node9"><a xlink:href="personal assistant.svg" xlink:title="personal assistant">
<ellipse fill="none" stroke="black" cx="201.6" cy="-18" rx="74.99" ry="18"/>
<text text-anchor="middle" x="201.6" y="-14.3" font-family="Times New Roman,serif" font-size="14.00">personal assistant</text>
</a>
</g>
</g>
<!-- 1&#45;&gt;8 -->
<g id="edge17" class="edge">
<title>1&#45;&gt;8</title>
<path fill="none" stroke="black" d="M538.54,-100.37C487.77,-95.82 405.65,-86.41 336.6,-69 305.43,-61.15 271.52,-48.57 245.48,-37.99"/>
<polygon fill="black" stroke="black" points="246.49,-34.62 235.91,-34.05 243.82,-41.1 246.49,-34.62"/>
<text text-anchor="middle" x="352.1" y="-57.8" font-family="Times New Roman,serif" font-size="14.00">0.028</text>
</g>
<!-- 10 -->
<g id="node11" class="node">
<title>10</title>
<g id="a_node11"><a xlink:href="education administrator.svg" xlink:title="education administrator">
<ellipse fill="none" stroke="black" cx="389.6" cy="-18" rx="95.58" ry="18"/>
<text text-anchor="middle" x="389.6" y="-14.3" font-family="Times New Roman,serif" font-size="14.00">education administrator</text>
</a>
</g>
</g>
<!-- 1&#45;&gt;10 -->
<g id="edge11" class="edge">
<title>1&#45;&gt;10</title>
<path fill="none" stroke="black" d="M555.81,-90.72C523.63,-76.83 472.75,-54.88 435.75,-38.91"/>
<polygon fill="black" stroke="black" points="436.76,-35.54 426.19,-34.79 433.98,-41.96 436.76,-35.54"/>
<text text-anchor="middle" x="516.1" y="-57.8" font-family="Times New Roman,serif" font-size="14.00">0.042</text>
</g>
<!-- 11 -->
<g id="node12" class="node">
<title>11</title>
<g id="a_node12"><a xlink:href="production manager.svg" xlink:title="production manager">
<ellipse fill="none" stroke="black" cx="586.6" cy="-18" rx="83.39" ry="18"/>
<text text-anchor="middle" x="586.6" y="-14.3" font-family="Times New Roman,serif" font-size="14.00">production manager</text>
</a>
</g>
</g>
<!-- 1&#45;&gt;11 -->
<g id="edge13" class="edge">
<title>1&#45;&gt;11</title>
<path fill="none" stroke="black" d="M586.6,-86.8C586.6,-75.16 586.6,-59.55 586.6,-46.24"/>
<polygon fill="black" stroke="black" points="590.1,-46.18 586.6,-36.18 583.1,-46.18 590.1,-46.18"/>
<text text-anchor="middle" x="602.1" y="-57.8" font-family="Times New Roman,serif" font-size="14.00">0.042</text>
</g>
<!-- 12 -->
<g id="node13" class="node">
<title>12</title>
<g id="a_node13"><a xlink:href="qa analyst.svg" xlink:title="qa analyst">
<ellipse fill="none" stroke="black" cx="734.6" cy="-18" rx="46.59" ry="18"/>
<text text-anchor="middle" x="734.6" y="-14.3" font-family="Times New Roman,serif" font-size="14.00">qa analyst</text>
</a>
</g>
</g>
<!-- 1&#45;&gt;12 -->
<g id="edge14" class="edge">
<title>1&#45;&gt;12</title>
<path fill="none" stroke="black" d="M612.04,-89.39C636.54,-75.31 673.76,-53.94 700.76,-38.43"/>
<polygon fill="black" stroke="black" points="702.56,-41.44 709.49,-33.42 699.07,-35.37 702.56,-41.44"/>
<text text-anchor="middle" x="685.1" y="-57.8" font-family="Times New Roman,serif" font-size="14.00">0.042</text>
</g>
<!-- 13 -->
<g id="node14" class="node">
<title>13</title>
<g id="a_node14"><a xlink:href="catering manager.svg" xlink:title="catering manager">
<ellipse fill="none" stroke="black" cx="870.6" cy="-18" rx="71.49" ry="18"/>
<text text-anchor="middle" x="870.6" y="-14.3" font-family="Times New Roman,serif" font-size="14.00">catering manager</text>
</a>
</g>
</g>
<!-- 1&#45;&gt;13 -->
<g id="edge15" class="edge">
<title>1&#45;&gt;13</title>
<path fill="none" stroke="black" d="M623.81,-93.01C647.04,-86.13 677.57,-77.08 704.6,-69 742.1,-57.79 784.34,-45.07 816.82,-35.26"/>
<polygon fill="black" stroke="black" points="818.01,-38.56 826.57,-32.31 815.99,-31.86 818.01,-38.56"/>
<text text-anchor="middle" x="766.1" y="-57.8" font-family="Times New Roman,serif" font-size="14.00">0.028</text>
</g>
<!-- 14 -->
<g id="node15" class="node">
<title>14</title>
<g id="a_node15"><a xlink:href="manufacturing engineer.svg" xlink:title="manufacturing engineer">
<ellipse fill="none" stroke="black" cx="1054.6" cy="-18" rx="94.48" ry="18"/>
<text text-anchor="middle" x="1054.6" y="-14.3" font-family="Times New Roman,serif" font-size="14.00">manufacturing engineer</text>
</a>
</g>
</g>
<!-- 1&#45;&gt;14 -->
<g id="edge16" class="edge">
<title>1&#45;&gt;14</title>
<path fill="none" stroke="black" d="M630.49,-96.41C670.82,-89.4 732.26,-78.65 785.6,-69 851.49,-57.08 926.39,-43.13 980.39,-32.99"/>
<polygon fill="black" stroke="black" points="981.04,-36.43 990.22,-31.15 979.75,-29.55 981.04,-36.43"/>
<text text-anchor="middle" x="882.1" y="-57.8" font-family="Times New Roman,serif" font-size="14.00">0.028</text>
</g>
<!-- 15 -->
<g id="node16" class="node">
<title>15</title>
<g id="a_node16"><a xlink:href="pharmacovigilance officer.svg" xlink:title="pharmacovigilance officer">
<ellipse fill="none" stroke="black" cx="1271.6" cy="-18" rx="104.78" ry="18"/>
<text text-anchor="middle" x="1271.6" y="-14.3" font-family="Times New Roman,serif" font-size="14.00">pharmacovigilance officer</text>
</a>
</g>
</g>
<!-- 1&#45;&gt;15 -->
<g id="edge18" class="edge">
<title>1&#45;&gt;15</title>
<path fill="none" stroke="black" d="M633.32,-99.07C694.86,-92.51 806.4,-80.42 901.6,-69 1015.5,-55.33 1043.97,-51.79 1157.6,-36 1166.79,-34.72 1176.39,-33.35 1185.96,-31.96"/>
<polygon fill="black" stroke="black" points="1186.51,-35.41 1195.89,-30.5 1185.49,-28.49 1186.51,-35.41"/>
<text text-anchor="middle" x="1036.1" y="-57.8" font-family="Times New Roman,serif" font-size="14.00">0.028</text>
</g>
<!-- 16 -->
<g id="node17" class="node">
<title>16</title>
<g id="a_node17"><a xlink:href="political party agent.svg" xlink:title="political party agent">
<ellipse fill="none" stroke="black" cx="1475.6" cy="-18" rx="81.49" ry="18"/>
<text text-anchor="middle" x="1475.6" y="-14.3" font-family="Times New Roman,serif" font-size="14.00">political party agent</text>
</a>
</g>
</g>
<!-- 1&#45;&gt;16 -->
<g id="edge19" class="edge">
<title>1&#45;&gt;16</title>
<path fill="none" stroke="black" d="M635.46,-101.83C760.69,-95.83 1103.12,-76.72 1385.6,-36 1392.74,-34.97 1400.17,-33.77 1407.58,-32.5"/>
<polygon fill="black" stroke="black" points="1408.39,-35.91 1417.62,-30.72 1407.17,-29.01 1408.39,-35.91"/>
<text text-anchor="middle" x="1248.1" y="-57.8" font-family="Times New Roman,serif" font-size="14.00">0.028</text>
</g>
<!-- 2 -->
<g id="node3" class="node">
<title>2</title>
<g id="a_node3"><a xlink:href="project manager.svg" xlink:title="project manager">
<ellipse fill="none" stroke="black" cx="333.6" cy="-192" rx="68.79" ry="18"/>
<text text-anchor="middle" x="333.6" y="-188.3" font-family="Times New Roman,serif" font-size="14.00">project manager</text>
</a>
</g>
</g>
<!-- 2&#45;&gt;1 -->
<g id="edge2" class="edge">
<title>2&#45;&gt;1</title>
<path fill="none" stroke="black" d="M373.2,-177.27C402.54,-167.14 443.52,-153.08 479.6,-141 499.8,-134.24 522.19,-126.89 541.25,-120.68"/>
<polygon fill="black" stroke="black" points="542.46,-123.97 550.89,-117.54 540.3,-117.31 542.46,-123.97"/>
<text text-anchor="middle" x="495.1" y="-144.8" font-family="Times New Roman,serif" font-size="14.00">0.046</text>
</g>
<!-- 3 -->
<g id="node4" class="node">
<title>3</title>
<g id="a_node4"><a xlink:href="teacher.svg" xlink:title="teacher">
<ellipse fill="none" stroke="black" cx="456.6" cy="-192" rx="36.29" ry="18"/>
<text text-anchor="middle" x="456.6" y="-188.3" font-family="Times New Roman,serif" font-size="14.00">teacher</text>
</a>
</g>
</g>
<!-- 3&#45;&gt;1 -->
<g id="edge3" class="edge">
<title>3&#45;&gt;1</title>
<path fill="none" stroke="black" d="M477.77,-177.15C498.79,-163.41 531.25,-142.19 555.25,-126.49"/>
<polygon fill="black" stroke="black" points="557.22,-129.39 563.68,-120.99 553.39,-123.53 557.22,-129.39"/>
<text text-anchor="middle" x="545.1" y="-144.8" font-family="Times New Roman,serif" font-size="14.00">0.046</text>
</g>
<!-- 4 -->
<g id="node5" class="node">
<title>4</title>
<g id="a_node5"><a xlink:href="academic librarian.svg" xlink:title="academic librarian">
<ellipse fill="none" stroke="black" cx="586.6" cy="-192" rx="76.09" ry="18"/>
<text text-anchor="middle" x="586.6" y="-188.3" font-family="Times New Roman,serif" font-size="14.00">academic librarian</text>
</a>
</g>
</g>
<!-- 4&#45;&gt;1 -->
<g id="edge4" class="edge">
<title>4&#45;&gt;1</title>
<path fill="none" stroke="black" d="M586.6,-173.8C586.6,-162.16 586.6,-146.55 586.6,-133.24"/>
<polygon fill="black" stroke="black" points="590.1,-133.18 586.6,-123.18 583.1,-133.18 590.1,-133.18"/>
<text text-anchor="middle" x="602.1" y="-144.8" font-family="Times New Roman,serif" font-size="14.00">0.030</text>
</g>
<!-- 5 -->
<g id="node6" class="node">
<title>5</title>
<g id="a_node6"><a xlink:href="computer sales support.svg" xlink:title="computer sales support">
<ellipse fill="none" stroke="black" cx="776.6" cy="-192" rx="96.38" ry="18"/>
<text text-anchor="middle" x="776.6" y="-188.3" font-family="Times New Roman,serif" font-size="14.00">computer sales support</text>
</a>
</g>
</g>
<!-- 5&#45;&gt;1 -->
<g id="edge5" class="edge">
<title>5&#45;&gt;1</title>
<path fill="none" stroke="black" d="M741.3,-175.21C708.54,-160.55 659.84,-138.77 625.86,-123.57"/>
<polygon fill="black" stroke="black" points="627.25,-120.35 616.69,-119.46 624.39,-126.74 627.25,-120.35"/>
<text text-anchor="middle" x="709.1" y="-144.8" font-family="Times New Roman,serif" font-size="14.00">0.030</text>
</g>
<!-- 6&#45;&gt;1 -->
<g id="edge6" class="edge">
<title>6&#45;&gt;1</title>
<path fill="none" stroke="black" d="M95.22,-30.16C102.65,-32.14 110.35,-34.16 117.6,-36 179.14,-51.61 194.01,-58.3 256.6,-69 351.06,-85.16 462.1,-95.09 528.29,-100.07"/>
<polygon fill="black" stroke="black" points="528.28,-103.58 538.51,-100.83 528.8,-96.6 528.28,-103.58"/>
<text text-anchor="middle" x="272.1" y="-57.8" font-family="Times New Roman,serif" font-size="14.00">0.030</text>
</g>
<!-- 7 -->
<g id="node8" class="node">
<title>7</title>
<g id="a_node8"><a xlink:href="marketing assistant.svg" xlink:title="marketing assistant">
<ellipse fill="none" stroke="black" cx="969.6" cy="-192" rx="79.09" ry="18"/>
<text text-anchor="middle" x="969.6" y="-188.3" font-family="Times New Roman,serif" font-size="14.00">marketing assistant</text>
</a>
</g>
</g>
<!-- 7&#45;&gt;1 -->
<g id="edge7" class="edge">
<title>7&#45;&gt;1</title>
<path fill="none" stroke="black" d="M915.13,-178.91C841.06,-162.47 709.57,-133.29 637.43,-117.28"/>
<polygon fill="black" stroke="black" points="638.18,-113.86 627.66,-115.11 636.67,-120.7 638.18,-113.86"/>
<text text-anchor="middle" x="817.1" y="-144.8" font-family="Times New Roman,serif" font-size="14.00">0.030</text>
</g>
<!-- 8&#45;&gt;1 -->
<g id="edge8" class="edge">
<title>8&#45;&gt;1</title>
<path fill="none" stroke="black" d="M254.75,-30.74C328.9,-47.11 462.47,-76.6 535.5,-92.72"/>
<polygon fill="black" stroke="black" points="534.87,-96.17 545.39,-94.9 536.38,-89.33 534.87,-96.17"/>
<text text-anchor="middle" x="433.1" y="-57.8" font-family="Times New Roman,serif" font-size="14.00">0.030</text>
</g>
<!-- 9 -->
<g id="node10" class="node">
<title>9</title>
<g id="a_node10"><a xlink:href="programme researcher.svg" xlink:title="programme researcher">
<ellipse fill="none" stroke="black" cx="1158.6" cy="-192" rx="91.78" ry="18"/>
<text text-anchor="middle" x="1158.6" y="-188.3" font-family="Times New Roman,serif" font-size="14.00">programme researcher</text>
</a>
</g>
</g>
<!-- 9&#45;&gt;1 -->
<g id="edge9" class="edge">
<title>9&#45;&gt;1</title>
<path fill="none" stroke="black" d="M1091.8,-179.58C1080.39,-177.68 1068.66,-175.76 1057.6,-174 907.68,-150.19 730.35,-125.53 642.18,-113.51"/>
<polygon fill="black" stroke="black" points="642.51,-110.02 632.13,-112.14 641.56,-116.96 642.51,-110.02"/>
<text text-anchor="middle" x="943.1" y="-144.8" font-family="Times New Roman,serif" font-size="14.00">0.030</text>
</g>
</g>
</svg>
