<?xml version="1.0" encoding="UTF-8" standalone="no"?>
<!DOCTYPE svg PUBLIC "-//W3C//DTD SVG 1.1//EN"
 "http://www.w3.org/Graphics/SVG/1.1/DTD/svg11.dtd">
<!-- Generated by graphviz version 2.44.1 (20200629.0800)
 -->
<!-- Title: test Pages: 1 -->
<svg width="1432pt" height="218pt"
 viewBox="0.00 0.00 1431.94 218.00" xmlns="http://www.w3.org/2000/svg" xmlns:xlink="http://www.w3.org/1999/xlink">
<g id="graph0" class="graph" transform="scale(1 1) rotate(0) translate(4 214)">
<title>test</title>
<polygon fill="white" stroke="transparent" points="-4,4 -4,-214 1427.94,-214 1427.94,4 -4,4"/>
<!-- 0 -->
<g id="node1" class="node">
<title>0</title>
<g id="a_node1"><a xlink:href="project manager.svg" xlink:title="project manager">
<ellipse fill="none" stroke="black" cx="365.44" cy="-192" rx="68.79" ry="18"/>
<text text-anchor="middle" x="365.44" y="-188.3" font-family="Times New Roman,serif" font-size="14.00">project manager</text>
</a>
</g>
</g>
<!-- 1 -->
<g id="node2" class="node">
<title>1</title>
<g id="a_node2"><a xlink:href="air traffic controller.svg" xlink:title="air traffic controller">
<ellipse fill="none" stroke="black" cx="548.44" cy="-105" rx="80.69" ry="18"/>
<text text-anchor="middle" x="548.44" y="-101.3" font-family="Times New Roman,serif" font-size="14.00">air traffic controller</text>
</a>
</g>
</g>
<!-- 0&#45;&gt;1 -->
<g id="edge1" class="edge">
<title>0&#45;&gt;1</title>
<path fill="none" stroke="black" d="M368.47,-173.73C371.28,-162.78 376.59,-149.18 386.44,-141 399.49,-130.17 434.86,-121.89 469.24,-116.11"/>
<polygon fill="black" stroke="black" points="470.05,-119.53 479.37,-114.47 468.94,-112.62 470.05,-119.53"/>
<text text-anchor="middle" x="398.94" y="-144.8" font-family="Times New Roman,serif" font-size="14.00">0.12</text>
</g>
<!-- 1&#45;&gt;0 -->
<g id="edge13" class="edge">
<title>1&#45;&gt;0</title>
<path fill="none" stroke="black" d="M515.24,-121.42C484.87,-135.53 439.82,-156.46 407.06,-171.67"/>
<polygon fill="black" stroke="black" points="405.33,-168.61 397.74,-176 408.28,-174.96 405.33,-168.61"/>
<text text-anchor="middle" x="483.94" y="-144.8" font-family="Times New Roman,serif" font-size="14.00">0.086</text>
</g>
<!-- 1&#45;&gt;1 -->
<g id="edge10" class="edge">
<title>1&#45;&gt;1</title>
<path fill="none" stroke="black" d="M621.97,-112.55C636.6,-111.7 647.04,-109.18 647.04,-105 647.04,-101.86 641.17,-99.66 632.06,-98.4"/>
<polygon fill="black" stroke="black" points="632.25,-94.9 621.97,-97.45 631.6,-101.87 632.25,-94.9"/>
<text text-anchor="middle" x="662.54" y="-101.3" font-family="Times New Roman,serif" font-size="14.00">0.130</text>
</g>
<!-- 2 -->
<g id="node3" class="node">
<title>2</title>
<g id="a_node3"><a xlink:href="airline cabin crew.svg" xlink:title="airline cabin crew">
<ellipse fill="none" stroke="black" cx="73.44" cy="-18" rx="73.39" ry="18"/>
<text text-anchor="middle" x="73.44" y="-14.3" font-family="Times New Roman,serif" font-size="14.00">airline cabin crew</text>
</a>
</g>
</g>
<!-- 1&#45;&gt;2 -->
<g id="edge12" class="edge">
<title>1&#45;&gt;2</title>
<path fill="none" stroke="black" d="M470.44,-100.23C376.82,-95.1 225.66,-84.72 171.44,-69 149,-62.49 125.63,-50.79 107.34,-40.34"/>
<polygon fill="black" stroke="black" points="108.93,-37.21 98.54,-35.18 105.4,-43.25 108.93,-37.21"/>
<text text-anchor="middle" x="186.94" y="-57.8" font-family="Times New Roman,serif" font-size="14.00">0.086</text>
</g>
<!-- 3 -->
<g id="node4" class="node">
<title>3</title>
<g id="a_node4"><a xlink:href="aeronautical engineer.svg" xlink:title="aeronautical engineer">
<ellipse fill="none" stroke="black" cx="250.44" cy="-18" rx="85.59" ry="18"/>
<text text-anchor="middle" x="250.44" y="-14.3" font-family="Times New Roman,serif" font-size="14.00">aeronautical engineer</text>
</a>
</g>
</g>
<!-- 1&#45;&gt;3 -->
<g id="edge15" class="edge">
<title>1&#45;&gt;3</title>
<path fill="none" stroke="black" d="M471.87,-99.21C429.18,-94.71 375.66,-85.96 330.44,-69 312.66,-62.33 294.58,-51.45 280.12,-41.53"/>
<polygon fill="black" stroke="black" points="281.8,-38.44 271.61,-35.53 277.76,-44.16 281.8,-38.44"/>
<text text-anchor="middle" x="345.94" y="-57.8" font-family="Times New Roman,serif" font-size="14.00">0.043</text>
</g>
<!-- 5 -->
<g id="node6" class="node">
<title>5</title>
<g id="a_node6"><a xlink:href="armed forces officer.svg" xlink:title="armed forces officer">
<ellipse fill="none" stroke="black" cx="439.44" cy="-18" rx="85.29" ry="18"/>
<text text-anchor="middle" x="439.44" y="-14.3" font-family="Times New Roman,serif" font-size="14.00">armed forces officer</text>
</a>
</g>
</g>
<!-- 1&#45;&gt;5 -->
<g id="edge16" class="edge">
<title>1&#45;&gt;5</title>
<path fill="none" stroke="black" d="M489.74,-92.58C475.92,-87.4 462.35,-79.9 452.44,-69 446.76,-62.75 443.5,-54.32 441.65,-46.18"/>
<polygon fill="black" stroke="black" points="445.08,-45.47 439.98,-36.18 438.17,-46.62 445.08,-45.47"/>
<text text-anchor="middle" x="467.94" y="-57.8" font-family="Times New Roman,serif" font-size="14.00">0.043</text>
</g>
<!-- 6 -->
<g id="node7" class="node">
<title>6</title>
<g id="a_node7"><a xlink:href="civil service administrator.svg" xlink:title="civil service administrator">
<ellipse fill="none" stroke="black" cx="645.44" cy="-18" rx="102.88" ry="18"/>
<text text-anchor="middle" x="645.44" y="-14.3" font-family="Times New Roman,serif" font-size="14.00">civil service administrator</text>
</a>
</g>
</g>
<!-- 1&#45;&gt;6 -->
<g id="edge19" class="edge">
<title>1&#45;&gt;6</title>
<path fill="none" stroke="black" d="M553.76,-86.99C557.78,-76.42 564.2,-63.14 573.44,-54 579.14,-48.37 585.92,-43.49 593.02,-39.33"/>
<polygon fill="black" stroke="black" points="594.97,-42.25 602.1,-34.42 591.64,-36.09 594.97,-42.25"/>
<text text-anchor="middle" x="588.94" y="-57.8" font-family="Times New Roman,serif" font-size="14.00">0.043</text>
</g>
<!-- 10 -->
<g id="node11" class="node">
<title>10</title>
<g id="a_node11"><a xlink:href="pharmacovigilance officer.svg" xlink:title="pharmacovigilance officer">
<ellipse fill="none" stroke="black" cx="870.44" cy="-18" rx="104.78" ry="18"/>
<text text-anchor="middle" x="870.44" y="-14.3" font-family="Times New Roman,serif" font-size="14.00">pharmacovigilance officer</text>
</a>
</g>
</g>
<!-- 1&#45;&gt;10 -->
<g id="edge11" class="edge">
<title>1&#45;&gt;10</title>
<path fill="none" stroke="black" d="M598.4,-90.81C654.21,-76.08 744.72,-52.19 805.86,-36.05"/>
<polygon fill="black" stroke="black" points="807.01,-39.37 815.78,-33.43 805.22,-32.6 807.01,-39.37"/>
<text text-anchor="middle" x="743.94" y="-57.8" font-family="Times New Roman,serif" font-size="14.00">0.130</text>
</g>
<!-- 11 -->
<g id="node12" class="node">
<title>11</title>
<g id="a_node12"><a xlink:href="sales manager.svg" xlink:title="sales manager">
<ellipse fill="none" stroke="black" cx="1054.44" cy="-18" rx="61.19" ry="18"/>
<text text-anchor="middle" x="1054.44" y="-14.3" font-family="Times New Roman,serif" font-size="14.00">sales manager</text>
</a>
</g>
</g>
<!-- 1&#45;&gt;11 -->
<g id="edge14" class="edge">
<title>1&#45;&gt;11</title>
<path fill="none" stroke="black" d="M616.35,-95.2C702.37,-83.64 855.02,-61.76 984.44,-36 989.45,-35 994.64,-33.89 999.83,-32.73"/>
<polygon fill="black" stroke="black" points="1000.8,-36.1 1009.76,-30.44 999.23,-29.28 1000.8,-36.1"/>
<text text-anchor="middle" x="891.94" y="-57.8" font-family="Times New Roman,serif" font-size="14.00">0.086</text>
</g>
<!-- 12 -->
<g id="node13" class="node">
<title>12</title>
<g id="a_node13"><a xlink:href="careers adviser.svg" xlink:title="careers adviser">
<ellipse fill="none" stroke="black" cx="1198.44" cy="-18" rx="64.99" ry="18"/>
<text text-anchor="middle" x="1198.44" y="-14.3" font-family="Times New Roman,serif" font-size="14.00">careers adviser</text>
</a>
</g>
</g>
<!-- 1&#45;&gt;12 -->
<g id="edge17" class="edge">
<title>1&#45;&gt;12</title>
<path fill="none" stroke="black" d="M624,-98.58C734.58,-89.86 946.69,-70.14 1124.44,-36 1129.86,-34.96 1135.49,-33.8 1141.11,-32.6"/>
<polygon fill="black" stroke="black" points="1142.16,-35.95 1151.18,-30.39 1140.66,-29.11 1142.16,-35.95"/>
<text text-anchor="middle" x="1029.94" y="-57.8" font-family="Times New Roman,serif" font-size="14.00">0.043</text>
</g>
<!-- 13 -->
<g id="node14" class="node">
<title>13</title>
<g id="a_node14"><a xlink:href="catering manager.svg" xlink:title="catering manager">
<ellipse fill="none" stroke="black" cx="1352.44" cy="-18" rx="71.49" ry="18"/>
<text text-anchor="middle" x="1352.44" y="-14.3" font-family="Times New Roman,serif" font-size="14.00">catering manager</text>
</a>
</g>
</g>
<!-- 1&#45;&gt;13 -->
<g id="edge18" class="edge">
<title>1&#45;&gt;13</title>
<path fill="none" stroke="black" d="M626.71,-100.41C725.44,-95.44 900.35,-85.21 1049.44,-69 1149.05,-58.17 1173.84,-53.75 1272.44,-36 1278.26,-34.95 1284.31,-33.8 1290.34,-32.59"/>
<polygon fill="black" stroke="black" points="1291.36,-35.96 1300.47,-30.54 1289.97,-29.1 1291.36,-35.96"/>
<text text-anchor="middle" x="1179.94" y="-57.8" font-family="Times New Roman,serif" font-size="14.00">0.043</text>
</g>
<!-- 2&#45;&gt;1 -->
<g id="edge2" class="edge">
<title>2&#45;&gt;1</title>
<path fill="none" stroke="black" d="M119.1,-32.21C159.01,-43.36 218.66,-59.04 271.44,-69 336.13,-81.21 410.13,-90.31 465.37,-96.17"/>
<polygon fill="black" stroke="black" points="465.14,-99.67 475.45,-97.23 465.87,-92.7 465.14,-99.67"/>
<text text-anchor="middle" x="283.94" y="-57.8" font-family="Times New Roman,serif" font-size="14.00">0.08</text>
</g>
<!-- 3&#45;&gt;1 -->
<g id="edge3" class="edge">
<title>3&#45;&gt;1</title>
<path fill="none" stroke="black" d="M296.19,-33.36C329.23,-43.61 374.98,-57.55 415.44,-69 438.86,-75.63 464.71,-82.52 487.35,-88.43"/>
<polygon fill="black" stroke="black" points="486.61,-91.85 497.17,-90.98 488.37,-85.08 486.61,-91.85"/>
<text text-anchor="middle" x="427.94" y="-57.8" font-family="Times New Roman,serif" font-size="14.00">0.04</text>
</g>
<!-- 4 -->
<g id="node5" class="node">
<title>4</title>
<g id="a_node5"><a xlink:href="architect.svg" xlink:title="architect">
<ellipse fill="none" stroke="black" cx="493.44" cy="-192" rx="41.69" ry="18"/>
<text text-anchor="middle" x="493.44" y="-188.3" font-family="Times New Roman,serif" font-size="14.00">architect</text>
</a>
</g>
</g>
<!-- 4&#45;&gt;1 -->
<g id="edge4" class="edge">
<title>4&#45;&gt;1</title>
<path fill="none" stroke="black" d="M504.31,-174.21C512.17,-162.06 522.93,-145.43 531.86,-131.63"/>
<polygon fill="black" stroke="black" points="534.92,-133.35 537.41,-123.05 529.04,-129.54 534.92,-133.35"/>
<text text-anchor="middle" x="536.94" y="-144.8" font-family="Times New Roman,serif" font-size="14.00">0.04</text>
</g>
<!-- 5&#45;&gt;1 -->
<g id="edge5" class="edge">
<title>5&#45;&gt;1</title>
<path fill="none" stroke="black" d="M460.77,-35.63C477.48,-48.66 500.91,-66.94 519.35,-81.31"/>
<polygon fill="black" stroke="black" points="517.39,-84.22 527.43,-87.61 521.69,-78.7 517.39,-84.22"/>
<text text-anchor="middle" x="513.94" y="-57.8" font-family="Times New Roman,serif" font-size="14.00">0.04</text>
</g>
<!-- 6&#45;&gt;1 -->
<g id="edge6" class="edge">
<title>6&#45;&gt;1</title>
<path fill="none" stroke="black" d="M635.28,-36.13C628.56,-46.49 619.06,-59.48 608.44,-69 602.76,-74.09 596.23,-78.8 589.61,-83.01"/>
<polygon fill="black" stroke="black" points="587.36,-80.28 580.6,-88.43 590.97,-86.28 587.36,-80.28"/>
<text text-anchor="middle" x="634.94" y="-57.8" font-family="Times New Roman,serif" font-size="14.00">0.04</text>
</g>
<!-- 7 -->
<g id="node8" class="node">
<title>7</title>
<g id="a_node8"><a xlink:href="ergonomist.svg" xlink:title="ergonomist">
<ellipse fill="none" stroke="black" cx="604.44" cy="-192" rx="51.19" ry="18"/>
<text text-anchor="middle" x="604.44" y="-188.3" font-family="Times New Roman,serif" font-size="14.00">ergonomist</text>
</a>
</g>
</g>
<!-- 7&#45;&gt;1 -->
<g id="edge7" class="edge">
<title>7&#45;&gt;1</title>
<path fill="none" stroke="black" d="M593.38,-174.21C585.38,-162.06 574.42,-145.43 565.33,-131.63"/>
<polygon fill="black" stroke="black" points="568.1,-129.47 559.68,-123.05 562.25,-133.33 568.1,-129.47"/>
<text text-anchor="middle" x="592.94" y="-144.8" font-family="Times New Roman,serif" font-size="14.00">0.04</text>
</g>
<!-- 8 -->
<g id="node9" class="node">
<title>8</title>
<g id="a_node9"><a xlink:href="investment analyst.svg" xlink:title="investment analyst">
<ellipse fill="none" stroke="black" cx="750.44" cy="-192" rx="76.89" ry="18"/>
<text text-anchor="middle" x="750.44" y="-188.3" font-family="Times New Roman,serif" font-size="14.00">investment analyst</text>
</a>
</g>
</g>
<!-- 8&#45;&gt;1 -->
<g id="edge8" class="edge">
<title>8&#45;&gt;1</title>
<path fill="none" stroke="black" d="M714.79,-176C681.11,-161.82 630.42,-140.5 593.86,-125.11"/>
<polygon fill="black" stroke="black" points="594.99,-121.79 584.42,-121.14 592.27,-128.24 594.99,-121.79"/>
<text text-anchor="middle" x="673.94" y="-144.8" font-family="Times New Roman,serif" font-size="14.00">0.04</text>
</g>
<!-- 9 -->
<g id="node10" class="node">
<title>9</title>
<g id="a_node10"><a xlink:href="lecturer.svg" xlink:title="lecturer">
<ellipse fill="none" stroke="black" cx="882.44" cy="-192" rx="37.89" ry="18"/>
<text text-anchor="middle" x="882.44" y="-188.3" font-family="Times New Roman,serif" font-size="14.00">lecturer</text>
</a>
</g>
</g>
<!-- 9&#45;&gt;1 -->
<g id="edge9" class="edge">
<title>9&#45;&gt;1</title>
<path fill="none" stroke="black" d="M853.92,-179.84C848.17,-177.77 842.15,-175.72 836.44,-174 762.17,-151.6 675.3,-131.96 616.55,-119.63"/>
<polygon fill="black" stroke="black" points="617.15,-116.18 606.64,-117.56 615.72,-123.03 617.15,-116.18"/>
<text text-anchor="middle" x="777.94" y="-144.8" font-family="Times New Roman,serif" font-size="14.00">0.04</text>
</g>
</g>
</svg>
