<?xml version="1.0" encoding="UTF-8" standalone="no"?>
<!DOCTYPE svg PUBLIC "-//W3C//DTD SVG 1.1//EN"
 "http://www.w3.org/Graphics/SVG/1.1/DTD/svg11.dtd">
<!-- Generated by graphviz version 2.44.1 (20200629.0800)
 -->
<!-- Title: test Pages: 1 -->
<svg width="1321pt" height="218pt"
 viewBox="0.00 0.00 1320.93 218.00" xmlns="http://www.w3.org/2000/svg" xmlns:xlink="http://www.w3.org/1999/xlink">
<g id="graph0" class="graph" transform="scale(1 1) rotate(0) translate(4 214)">
<title>test</title>
<polygon fill="white" stroke="transparent" points="-4,4 -4,-214 1316.93,-214 1316.93,4 -4,4"/>
<!-- 0 -->
<g id="node1" class="node">
<title>0</title>
<g id="a_node1"><a xlink:href="pharmacovigilance officer.svg" xlink:title="pharmacovigilance officer">
<ellipse fill="none" stroke="black" cx="104.64" cy="-192" rx="104.78" ry="18"/>
<text text-anchor="middle" x="104.64" y="-188.3" font-family="Times New Roman,serif" font-size="14.00">pharmacovigilance officer</text>
</a>
</g>
</g>
<!-- 1 -->
<g id="node2" class="node">
<title>1</title>
<g id="a_node2"><a xlink:href="animator.svg" xlink:title="animator">
<ellipse fill="none" stroke="black" cx="552.64" cy="-105" rx="42.49" ry="18"/>
<text text-anchor="middle" x="552.64" y="-101.3" font-family="Times New Roman,serif" font-size="14.00">animator</text>
</a>
</g>
</g>
<!-- 0&#45;&gt;1 -->
<g id="edge1" class="edge">
<title>0&#45;&gt;1</title>
<path fill="none" stroke="black" d="M131.71,-174.42C151.68,-163.03 179.9,-148.64 206.64,-141 307.69,-112.13 431.29,-106.34 500.05,-105.59"/>
<polygon fill="black" stroke="black" points="500.23,-109.09 510.2,-105.51 500.17,-102.09 500.23,-109.09"/>
<text text-anchor="middle" x="222.14" y="-144.8" font-family="Times New Roman,serif" font-size="14.00">0.096</text>
</g>
<!-- 1&#45;&gt;0 -->
<g id="edge12" class="edge">
<title>1&#45;&gt;0</title>
<path fill="none" stroke="black" d="M514.95,-113.15C441.83,-127.02 279.38,-157.85 182.26,-176.27"/>
<polygon fill="black" stroke="black" points="181.37,-172.88 172.2,-178.18 182.67,-179.76 181.37,-172.88"/>
<text text-anchor="middle" x="371.14" y="-144.8" font-family="Times New Roman,serif" font-size="14.00">0.130</text>
</g>
<!-- 1&#45;&gt;1 -->
<g id="edge10" class="edge">
<title>1&#45;&gt;1</title>
<path fill="none" stroke="black" d="M590.88,-112.87C603.16,-112.79 612.89,-110.17 612.89,-105 612.89,-101.37 608.08,-98.99 600.95,-97.87"/>
<polygon fill="black" stroke="black" points="601.11,-94.37 590.88,-97.13 600.6,-101.35 601.11,-94.37"/>
<text text-anchor="middle" x="628.39" y="-101.3" font-family="Times New Roman,serif" font-size="14.00">0.391</text>
</g>
<!-- 3 -->
<g id="node4" class="node">
<title>3</title>
<g id="a_node4"><a xlink:href="graphic designer.svg" xlink:title="graphic designer">
<ellipse fill="none" stroke="black" cx="168.64" cy="-18" rx="70.39" ry="18"/>
<text text-anchor="middle" x="168.64" y="-14.3" font-family="Times New Roman,serif" font-size="14.00">graphic designer</text>
</a>
</g>
</g>
<!-- 1&#45;&gt;3 -->
<g id="edge11" class="edge">
<title>1&#45;&gt;3</title>
<path fill="none" stroke="black" d="M510.95,-101.53C439.13,-96.88 295.2,-85.78 247.64,-69 229.64,-62.65 211.51,-51.58 197.16,-41.47"/>
<polygon fill="black" stroke="black" points="198.9,-38.41 188.76,-35.35 194.78,-44.07 198.9,-38.41"/>
<text text-anchor="middle" x="263.14" y="-57.8" font-family="Times New Roman,serif" font-size="14.00">0.130</text>
</g>
<!-- 5 -->
<g id="node6" class="node">
<title>5</title>
<g id="a_node6"><a xlink:href="broadcasting presenter.svg" xlink:title="broadcasting presenter">
<ellipse fill="none" stroke="black" cx="349.64" cy="-18" rx="92.88" ry="18"/>
<text text-anchor="middle" x="349.64" y="-14.3" font-family="Times New Roman,serif" font-size="14.00">broadcasting presenter</text>
</a>
</g>
</g>
<!-- 1&#45;&gt;5 -->
<g id="edge16" class="edge">
<title>1&#45;&gt;5</title>
<path fill="none" stroke="black" d="M510.57,-102.48C476.1,-99.54 427.23,-91.35 390.64,-69 380.62,-62.88 371.95,-53.42 365.19,-44.36"/>
<polygon fill="black" stroke="black" points="367.9,-42.13 359.32,-35.93 362.16,-46.14 367.9,-42.13"/>
<text text-anchor="middle" x="406.14" y="-57.8" font-family="Times New Roman,serif" font-size="14.00">0.043</text>
</g>
<!-- 8 -->
<g id="node9" class="node">
<title>8</title>
<g id="a_node9"><a xlink:href="lecturer.svg" xlink:title="lecturer">
<ellipse fill="none" stroke="black" cx="498.64" cy="-18" rx="37.89" ry="18"/>
<text text-anchor="middle" x="498.64" y="-14.3" font-family="Times New Roman,serif" font-size="14.00">lecturer</text>
</a>
</g>
</g>
<!-- 1&#45;&gt;8 -->
<g id="edge19" class="edge">
<title>1&#45;&gt;8</title>
<path fill="none" stroke="black" d="M521.85,-92.46C511.65,-86.99 501.42,-79.34 495.64,-69 491.85,-62.22 491.07,-54.08 491.66,-46.35"/>
<polygon fill="black" stroke="black" points="495.15,-46.65 493.16,-36.24 488.23,-45.62 495.15,-46.65"/>
<text text-anchor="middle" x="511.14" y="-57.8" font-family="Times New Roman,serif" font-size="14.00">0.043</text>
</g>
<!-- 10 -->
<g id="node11" class="node">
<title>10</title>
<g id="a_node11"><a xlink:href="production manager.svg" xlink:title="production manager">
<ellipse fill="none" stroke="black" cx="637.64" cy="-18" rx="83.39" ry="18"/>
<text text-anchor="middle" x="637.64" y="-14.3" font-family="Times New Roman,serif" font-size="14.00">production manager</text>
</a>
</g>
</g>
<!-- 1&#45;&gt;10 -->
<g id="edge13" class="edge">
<title>1&#45;&gt;10</title>
<path fill="none" stroke="black" d="M568.63,-88.01C581.32,-75.32 599.27,-57.37 613.69,-42.96"/>
<polygon fill="black" stroke="black" points="616.26,-45.33 620.85,-35.79 611.31,-40.38 616.26,-45.33"/>
<text text-anchor="middle" x="616.14" y="-57.8" font-family="Times New Roman,serif" font-size="14.00">0.086</text>
</g>
<!-- 11 -->
<g id="node12" class="node">
<title>11</title>
<g id="a_node12"><a xlink:href="software developer.svg" xlink:title="software developer">
<ellipse fill="none" stroke="black" cx="818.64" cy="-18" rx="79.89" ry="18"/>
<text text-anchor="middle" x="818.64" y="-14.3" font-family="Times New Roman,serif" font-size="14.00">software developer</text>
</a>
</g>
</g>
<!-- 1&#45;&gt;11 -->
<g id="edge14" class="edge">
<title>1&#45;&gt;11</title>
<path fill="none" stroke="black" d="M585.52,-93.49C630.28,-79.19 710.93,-53.42 764.63,-36.26"/>
<polygon fill="black" stroke="black" points="765.87,-39.54 774.33,-33.16 763.74,-32.87 765.87,-39.54"/>
<text text-anchor="middle" x="717.14" y="-57.8" font-family="Times New Roman,serif" font-size="14.00">0.086</text>
</g>
<!-- 12 -->
<g id="node13" class="node">
<title>12</title>
<g id="a_node13"><a xlink:href="auditor.svg" xlink:title="auditor">
<ellipse fill="none" stroke="black" cx="952.64" cy="-18" rx="36.29" ry="18"/>
<text text-anchor="middle" x="952.64" y="-14.3" font-family="Times New Roman,serif" font-size="14.00">auditor</text>
</a>
</g>
</g>
<!-- 1&#45;&gt;12 -->
<g id="edge15" class="edge">
<title>1&#45;&gt;12</title>
<path fill="none" stroke="black" d="M592.3,-98.7C658.46,-89.34 795.19,-67.84 907.64,-36 910.26,-35.26 912.95,-34.43 915.63,-33.55"/>
<polygon fill="black" stroke="black" points="916.99,-36.78 925.28,-30.18 914.69,-30.17 916.99,-36.78"/>
<text text-anchor="middle" x="846.14" y="-57.8" font-family="Times New Roman,serif" font-size="14.00">0.043</text>
</g>
<!-- 13 -->
<g id="node14" class="node">
<title>13</title>
<g id="a_node14"><a xlink:href="careers adviser.svg" xlink:title="careers adviser">
<ellipse fill="none" stroke="black" cx="1071.64" cy="-18" rx="64.99" ry="18"/>
<text text-anchor="middle" x="1071.64" y="-14.3" font-family="Times New Roman,serif" font-size="14.00">careers adviser</text>
</a>
</g>
</g>
<!-- 1&#45;&gt;13 -->
<g id="edge17" class="edge">
<title>1&#45;&gt;13</title>
<path fill="none" stroke="black" d="M593.89,-101.06C653.99,-96.41 768.99,-86.06 865.64,-69 917.87,-59.78 976.58,-45.09 1017.92,-34.02"/>
<polygon fill="black" stroke="black" points="1019.04,-37.34 1027.78,-31.36 1017.21,-30.59 1019.04,-37.34"/>
<text text-anchor="middle" x="949.14" y="-57.8" font-family="Times New Roman,serif" font-size="14.00">0.043</text>
</g>
<!-- 14 -->
<g id="node15" class="node">
<title>14</title>
<g id="a_node15"><a xlink:href="community worker.svg" xlink:title="community worker">
<ellipse fill="none" stroke="black" cx="1233.64" cy="-18" rx="79.09" ry="18"/>
<text text-anchor="middle" x="1233.64" y="-14.3" font-family="Times New Roman,serif" font-size="14.00">community worker</text>
</a>
</g>
</g>
<!-- 1&#45;&gt;14 -->
<g id="edge18" class="edge">
<title>1&#45;&gt;14</title>
<path fill="none" stroke="black" d="M594.42,-101.88C669.55,-97.75 832.35,-87.39 968.64,-69 1047.94,-58.3 1067.02,-50.92 1145.64,-36 1152.11,-34.77 1158.85,-33.48 1165.59,-32.19"/>
<polygon fill="black" stroke="black" points="1166.27,-35.63 1175.43,-30.3 1164.95,-28.75 1166.27,-35.63"/>
<text text-anchor="middle" x="1072.14" y="-57.8" font-family="Times New Roman,serif" font-size="14.00">0.043</text>
</g>
<!-- 2 -->
<g id="node3" class="node">
<title>2</title>
<g id="a_node3"><a xlink:href="television production assistant.svg" xlink:title="television production assistant">
<ellipse fill="none" stroke="black" cx="347.64" cy="-192" rx="120.48" ry="18"/>
<text text-anchor="middle" x="347.64" y="-188.3" font-family="Times New Roman,serif" font-size="14.00">television production assistant</text>
</a>
</g>
</g>
<!-- 2&#45;&gt;1 -->
<g id="edge2" class="edge">
<title>2&#45;&gt;1</title>
<path fill="none" stroke="black" d="M386.68,-174.81C423.26,-159.65 477.61,-137.11 514.04,-122"/>
<polygon fill="black" stroke="black" points="515.46,-125.21 523.36,-118.14 512.78,-118.74 515.46,-125.21"/>
<text text-anchor="middle" x="478.14" y="-144.8" font-family="Times New Roman,serif" font-size="14.00">0.096</text>
</g>
<!-- 3&#45;&gt;1 -->
<g id="edge3" class="edge">
<title>3&#45;&gt;1</title>
<path fill="none" stroke="black" d="M209.83,-32.68C244.03,-43.65 294.1,-58.85 338.64,-69 394.2,-81.66 458.87,-91.59 502.46,-97.58"/>
<polygon fill="black" stroke="black" points="502.14,-101.07 512.52,-98.95 503.08,-94.14 502.14,-101.07"/>
<text text-anchor="middle" x="354.14" y="-57.8" font-family="Times New Roman,serif" font-size="14.00">0.064</text>
</g>
<!-- 4 -->
<g id="node5" class="node">
<title>4</title>
<g id="a_node5"><a xlink:href="biotechnologist.svg" xlink:title="biotechnologist">
<ellipse fill="none" stroke="black" cx="552.64" cy="-192" rx="66.09" ry="18"/>
<text text-anchor="middle" x="552.64" y="-188.3" font-family="Times New Roman,serif" font-size="14.00">biotechnologist</text>
</a>
</g>
</g>
<!-- 4&#45;&gt;1 -->
<g id="edge4" class="edge">
<title>4&#45;&gt;1</title>
<path fill="none" stroke="black" d="M552.64,-173.8C552.64,-162.16 552.64,-146.55 552.64,-133.24"/>
<polygon fill="black" stroke="black" points="556.14,-133.18 552.64,-123.18 549.14,-133.18 556.14,-133.18"/>
<text text-anchor="middle" x="568.14" y="-144.8" font-family="Times New Roman,serif" font-size="14.00">0.032</text>
</g>
<!-- 5&#45;&gt;1 -->
<g id="edge5" class="edge">
<title>5&#45;&gt;1</title>
<path fill="none" stroke="black" d="M382.42,-35.01C403.68,-45.19 432.07,-58.39 457.64,-69 475.01,-76.21 494.46,-83.5 511.21,-89.56"/>
<polygon fill="black" stroke="black" points="510.13,-92.89 520.73,-92.97 512.49,-86.3 510.13,-92.89"/>
<text text-anchor="middle" x="473.14" y="-57.8" font-family="Times New Roman,serif" font-size="14.00">0.032</text>
</g>
<!-- 6 -->
<g id="node7" class="node">
<title>6</title>
<g id="a_node7"><a xlink:href="civil service administrator.svg" xlink:title="civil service administrator">
<ellipse fill="none" stroke="black" cx="739.64" cy="-192" rx="102.88" ry="18"/>
<text text-anchor="middle" x="739.64" y="-188.3" font-family="Times New Roman,serif" font-size="14.00">civil service administrator</text>
</a>
</g>
</g>
<!-- 6&#45;&gt;1 -->
<g id="edge6" class="edge">
<title>6&#45;&gt;1</title>
<path fill="none" stroke="black" d="M704.47,-175.01C671.73,-160.13 623.1,-138.03 589.75,-122.87"/>
<polygon fill="black" stroke="black" points="590.9,-119.55 580.35,-118.6 588.01,-125.92 590.9,-119.55"/>
<text text-anchor="middle" x="673.14" y="-144.8" font-family="Times New Roman,serif" font-size="14.00">0.032</text>
</g>
<!-- 7 -->
<g id="node8" class="node">
<title>7</title>
<g id="a_node8"><a xlink:href="facilities manager.svg" xlink:title="facilities manager">
<ellipse fill="none" stroke="black" cx="932.64" cy="-192" rx="72.59" ry="18"/>
<text text-anchor="middle" x="932.64" y="-188.3" font-family="Times New Roman,serif" font-size="14.00">facilities manager</text>
</a>
</g>
</g>
<!-- 7&#45;&gt;1 -->
<g id="edge7" class="edge">
<title>7&#45;&gt;1</title>
<path fill="none" stroke="black" d="M880.6,-179.36C806.2,-162.72 670.58,-132.38 599.29,-116.43"/>
<polygon fill="black" stroke="black" points="599.77,-112.96 589.25,-114.19 598.24,-119.79 599.77,-112.96"/>
<text text-anchor="middle" x="780.14" y="-144.8" font-family="Times New Roman,serif" font-size="14.00">0.032</text>
</g>
<!-- 8&#45;&gt;1 -->
<g id="edge8" class="edge">
<title>8&#45;&gt;1</title>
<path fill="none" stroke="black" d="M514.8,-34.47C520.28,-40.25 526.15,-47.1 530.64,-54 535.37,-61.26 539.53,-69.71 542.92,-77.58"/>
<polygon fill="black" stroke="black" points="539.78,-79.15 546.79,-87.09 546.27,-76.51 539.78,-79.15"/>
<text text-anchor="middle" x="555.14" y="-57.8" font-family="Times New Roman,serif" font-size="14.00">0.032</text>
</g>
<!-- 9 -->
<g id="node10" class="node">
<title>9</title>
<g id="a_node10"><a xlink:href="patent attorney.svg" xlink:title="patent attorney">
<ellipse fill="none" stroke="black" cx="1087.64" cy="-192" rx="64.19" ry="18"/>
<text text-anchor="middle" x="1087.64" y="-188.3" font-family="Times New Roman,serif" font-size="14.00">patent attorney</text>
</a>
</g>
</g>
<!-- 9&#45;&gt;1 -->
<g id="edge9" class="edge">
<title>9&#45;&gt;1</title>
<path fill="none" stroke="black" d="M1041.02,-179.58C1032.28,-177.6 1023.2,-175.65 1014.64,-174 866.01,-145.33 688.43,-122.31 603.19,-111.95"/>
<polygon fill="black" stroke="black" points="603.36,-108.44 593.01,-110.72 602.52,-115.39 603.36,-108.44"/>
<text text-anchor="middle" x="916.14" y="-144.8" font-family="Times New Roman,serif" font-size="14.00">0.032</text>
</g>
</g>
</svg>
