<?xml version="1.0" encoding="UTF-8" standalone="no"?>
<!DOCTYPE svg PUBLIC "-//W3C//DTD SVG 1.1//EN"
 "http://www.w3.org/Graphics/SVG/1.1/DTD/svg11.dtd">
<!-- Generated by graphviz version 2.44.1 (20200629.0800)
 -->
<!-- Title: test Pages: 1 -->
<svg width="1999pt" height="218pt"
 viewBox="0.00 0.00 1998.79 218.00" xmlns="http://www.w3.org/2000/svg" xmlns:xlink="http://www.w3.org/1999/xlink">
<g id="graph0" class="graph" transform="scale(1 1) rotate(0) translate(4 214)">
<title>test</title>
<polygon fill="white" stroke="transparent" points="-4,4 -4,-214 1994.79,-214 1994.79,4 -4,4"/>
<!-- 0 -->
<g id="node1" class="node">
<title>0</title>
<g id="a_node1"><a xlink:href="academic librarian.svg" xlink:title="academic librarian">
<ellipse fill="none" stroke="black" cx="160.05" cy="-192" rx="76.09" ry="18"/>
<text text-anchor="middle" x="160.05" y="-188.3" font-family="Times New Roman,serif" font-size="14.00">academic librarian</text>
</a>
</g>
</g>
<!-- 1 -->
<g id="node2" class="node">
<title>1</title>
<g id="a_node2"><a xlink:href="archivist.svg" xlink:title="archivist">
<ellipse fill="none" stroke="black" cx="766.05" cy="-105" rx="40.89" ry="18"/>
<text text-anchor="middle" x="766.05" y="-101.3" font-family="Times New Roman,serif" font-size="14.00">archivist</text>
</a>
</g>
</g>
<!-- 0&#45;&gt;1 -->
<g id="edge1" class="edge">
<title>0&#45;&gt;1</title>
<path fill="none" stroke="black" d="M215.3,-179.56C225.19,-177.62 235.41,-175.69 245.05,-174 417.2,-143.77 623.53,-120.7 716.42,-111"/>
<polygon fill="black" stroke="black" points="717.07,-114.46 726.65,-109.94 716.34,-107.49 717.07,-114.46"/>
<text text-anchor="middle" x="468.05" y="-144.8" font-family="Times New Roman,serif" font-size="14.00">0.1</text>
</g>
<!-- 2 -->
<g id="node3" class="node">
<title>2</title>
<g id="a_node3"><a xlink:href="accountant.svg" xlink:title="accountant">
<ellipse fill="none" stroke="black" cx="50.05" cy="-18" rx="50.09" ry="18"/>
<text text-anchor="middle" x="50.05" y="-14.3" font-family="Times New Roman,serif" font-size="14.00">accountant</text>
</a>
</g>
</g>
<!-- 1&#45;&gt;2 -->
<g id="edge12" class="edge">
<title>1&#45;&gt;2</title>
<path fill="none" stroke="black" d="M725.05,-103.17C609.9,-100.57 285.11,-91.42 181.05,-69 148.65,-62.02 113.67,-48.33 88.02,-37.04"/>
<polygon fill="black" stroke="black" points="89.22,-33.74 78.66,-32.84 86.36,-40.13 89.22,-33.74"/>
<text text-anchor="middle" x="196.55" y="-57.8" font-family="Times New Roman,serif" font-size="14.00">0.055</text>
</g>
<!-- 5 -->
<g id="node6" class="node">
<title>5</title>
<g id="a_node6"><a xlink:href="government research officer.svg" xlink:title="government research officer">
<ellipse fill="none" stroke="black" cx="230.05" cy="-18" rx="112.38" ry="18"/>
<text text-anchor="middle" x="230.05" y="-14.3" font-family="Times New Roman,serif" font-size="14.00">government research officer</text>
</a>
</g>
</g>
<!-- 1&#45;&gt;5 -->
<g id="edge18" class="edge">
<title>1&#45;&gt;5</title>
<path fill="none" stroke="black" d="M725.57,-101.6C662.34,-97.45 536.44,-87.52 431.05,-69 383.87,-60.71 331.36,-47.51 291.85,-36.75"/>
<polygon fill="black" stroke="black" points="292.67,-33.35 282.1,-34.07 290.81,-40.1 292.67,-33.35"/>
<text text-anchor="middle" x="446.55" y="-57.8" font-family="Times New Roman,serif" font-size="14.00">0.055</text>
</g>
<!-- 11 -->
<g id="node12" class="node">
<title>11</title>
<g id="a_node12"><a xlink:href="pharmacovigilance officer.svg" xlink:title="pharmacovigilance officer">
<ellipse fill="none" stroke="black" cx="465.05" cy="-18" rx="104.78" ry="18"/>
<text text-anchor="middle" x="465.05" y="-14.3" font-family="Times New Roman,serif" font-size="14.00">pharmacovigilance officer</text>
</a>
</g>
</g>
<!-- 1&#45;&gt;11 -->
<g id="edge11" class="edge">
<title>1&#45;&gt;11</title>
<path fill="none" stroke="black" d="M732.39,-94.5C682.74,-80.47 589.02,-54.01 526.79,-36.44"/>
<polygon fill="black" stroke="black" points="527.66,-33.04 517.08,-33.7 525.76,-39.78 527.66,-33.04"/>
<text text-anchor="middle" x="649.55" y="-57.8" font-family="Times New Roman,serif" font-size="14.00">0.111</text>
</g>
<!-- 12 -->
<g id="node13" class="node">
<title>12</title>
<g id="a_node13"><a xlink:href="agricultural consultant.svg" xlink:title="agricultural consultant">
<ellipse fill="none" stroke="black" cx="677.05" cy="-18" rx="89.88" ry="18"/>
<text text-anchor="middle" x="677.05" y="-14.3" font-family="Times New Roman,serif" font-size="14.00">agricultural consultant</text>
</a>
</g>
</g>
<!-- 1&#45;&gt;12 -->
<g id="edge13" class="edge">
<title>1&#45;&gt;12</title>
<path fill="none" stroke="black" d="M749.72,-88.41C736.47,-75.76 717.57,-57.7 702.36,-43.18"/>
<polygon fill="black" stroke="black" points="704.44,-40.32 694.79,-35.95 699.61,-45.39 704.44,-40.32"/>
<text text-anchor="middle" x="742.55" y="-57.8" font-family="Times New Roman,serif" font-size="14.00">0.055</text>
</g>
<!-- 13 -->
<g id="node14" class="node">
<title>13</title>
<g id="a_node14"><a xlink:href="catering manager.svg" xlink:title="catering manager">
<ellipse fill="none" stroke="black" cx="856.05" cy="-18" rx="71.49" ry="18"/>
<text text-anchor="middle" x="856.05" y="-14.3" font-family="Times New Roman,serif" font-size="14.00">catering manager</text>
</a>
</g>
</g>
<!-- 1&#45;&gt;13 -->
<g id="edge14" class="edge">
<title>1&#45;&gt;13</title>
<path fill="none" stroke="black" d="M782.55,-88.41C796.04,-75.68 815.32,-57.47 830.75,-42.89"/>
<polygon fill="black" stroke="black" points="833.55,-45.06 838.41,-35.65 828.74,-39.98 833.55,-45.06"/>
<text text-anchor="middle" x="832.55" y="-57.8" font-family="Times New Roman,serif" font-size="14.00">0.055</text>
</g>
<!-- 14 -->
<g id="node15" class="node">
<title>14</title>
<g id="a_node15"><a xlink:href="control and instrumentation engineer.svg" xlink:title="control and instrumentation engineer">
<ellipse fill="none" stroke="black" cx="1087.05" cy="-18" rx="141.88" ry="18"/>
<text text-anchor="middle" x="1087.05" y="-14.3" font-family="Times New Roman,serif" font-size="14.00">control and instrumentation engineer</text>
</a>
</g>
</g>
<!-- 1&#45;&gt;14 -->
<g id="edge15" class="edge">
<title>1&#45;&gt;14</title>
<path fill="none" stroke="black" d="M800.09,-94.98C851.89,-81.27 951.54,-54.88 1018.68,-37.1"/>
<polygon fill="black" stroke="black" points="1019.98,-40.38 1028.75,-34.44 1018.18,-33.61 1019.98,-40.38"/>
<text text-anchor="middle" x="961.55" y="-57.8" font-family="Times New Roman,serif" font-size="14.00">0.055</text>
</g>
<!-- 15 -->
<g id="node16" class="node">
<title>15</title>
<g id="a_node16"><a xlink:href="corporate banker.svg" xlink:title="corporate banker">
<ellipse fill="none" stroke="black" cx="1319.05" cy="-18" rx="72.59" ry="18"/>
<text text-anchor="middle" x="1319.05" y="-14.3" font-family="Times New Roman,serif" font-size="14.00">corporate banker</text>
</a>
</g>
</g>
<!-- 1&#45;&gt;15 -->
<g id="edge16" class="edge">
<title>1&#45;&gt;15</title>
<path fill="none" stroke="black" d="M805.03,-99.24C885.98,-89.17 1078.05,-64.29 1238.05,-36 1243.94,-34.96 1250.06,-33.81 1256.17,-32.61"/>
<polygon fill="black" stroke="black" points="1257.3,-35.95 1266.42,-30.55 1255.93,-29.09 1257.3,-35.95"/>
<text text-anchor="middle" x="1136.55" y="-57.8" font-family="Times New Roman,serif" font-size="14.00">0.055</text>
</g>
<!-- 16 -->
<g id="node17" class="node">
<title>16</title>
<g id="a_node17"><a xlink:href="education administrator.svg" xlink:title="education administrator">
<ellipse fill="none" stroke="black" cx="1505.05" cy="-18" rx="95.58" ry="18"/>
<text text-anchor="middle" x="1505.05" y="-14.3" font-family="Times New Roman,serif" font-size="14.00">education administrator</text>
</a>
</g>
</g>
<!-- 1&#45;&gt;16 -->
<g id="edge17" class="edge">
<title>1&#45;&gt;16</title>
<path fill="none" stroke="black" d="M806.25,-100.98C877.04,-95.54 1028.53,-83.3 1156.05,-69 1265.23,-56.75 1292.37,-52.2 1401.05,-36 1409.24,-34.78 1417.79,-33.46 1426.31,-32.11"/>
<polygon fill="black" stroke="black" points="1426.96,-35.55 1436.28,-30.52 1425.85,-28.64 1426.96,-35.55"/>
<text text-anchor="middle" x="1289.55" y="-57.8" font-family="Times New Roman,serif" font-size="14.00">0.055</text>
</g>
<!-- 17 -->
<g id="node18" class="node">
<title>17</title>
<g id="a_node18"><a xlink:href="investment analyst.svg" xlink:title="investment analyst">
<ellipse fill="none" stroke="black" cx="1695.05" cy="-18" rx="76.89" ry="18"/>
<text text-anchor="middle" x="1695.05" y="-14.3" font-family="Times New Roman,serif" font-size="14.00">investment analyst</text>
</a>
</g>
</g>
<!-- 1&#45;&gt;17 -->
<g id="edge19" class="edge">
<title>1&#45;&gt;17</title>
<path fill="none" stroke="black" d="M806.7,-102.83C928.92,-98.85 1303.51,-83.36 1610.05,-36 1616.64,-34.98 1623.5,-33.8 1630.34,-32.56"/>
<polygon fill="black" stroke="black" points="1631.12,-35.97 1640.3,-30.69 1629.83,-29.09 1631.12,-35.97"/>
<text text-anchor="middle" x="1487.55" y="-57.8" font-family="Times New Roman,serif" font-size="14.00">0.055</text>
</g>
<!-- 18 -->
<g id="node19" class="node">
<title>18</title>
<g id="a_node19"><a xlink:href="investment fund manager.svg" xlink:title="investment fund manager">
<ellipse fill="none" stroke="black" cx="1890.05" cy="-18" rx="100.98" ry="18"/>
<text text-anchor="middle" x="1890.05" y="-14.3" font-family="Times New Roman,serif" font-size="14.00">investment fund manager</text>
</a>
</g>
</g>
<!-- 1&#45;&gt;18 -->
<g id="edge20" class="edge">
<title>1&#45;&gt;18</title>
<path fill="none" stroke="black" d="M807.08,-103.11C919.31,-100.44 1240.74,-91.3 1507.05,-69 1629.28,-58.77 1659.54,-52.79 1781.05,-36 1789.73,-34.8 1798.79,-33.49 1807.82,-32.14"/>
<polygon fill="black" stroke="black" points="1808.62,-35.56 1817.98,-30.6 1807.57,-28.64 1808.62,-35.56"/>
<text text-anchor="middle" x="1663.55" y="-57.8" font-family="Times New Roman,serif" font-size="14.00">0.055</text>
</g>
<!-- 2&#45;&gt;1 -->
<g id="edge2" class="edge">
<title>2&#45;&gt;1</title>
<path fill="none" stroke="black" d="M86.67,-30.41C94.03,-32.47 101.75,-34.44 109.05,-36 331.49,-83.49 603.65,-98.21 714.94,-102.43"/>
<polygon fill="black" stroke="black" points="715.08,-105.94 725.2,-102.81 715.34,-98.94 715.08,-105.94"/>
<text text-anchor="middle" x="297.05" y="-57.8" font-family="Times New Roman,serif" font-size="14.00">0.1</text>
</g>
<!-- 3 -->
<g id="node4" class="node">
<title>3</title>
<g id="a_node4"><a xlink:href="careers adviser.svg" xlink:title="careers adviser">
<ellipse fill="none" stroke="black" cx="319.05" cy="-192" rx="64.99" ry="18"/>
<text text-anchor="middle" x="319.05" y="-188.3" font-family="Times New Roman,serif" font-size="14.00">careers adviser</text>
</a>
</g>
</g>
<!-- 3&#45;&gt;1 -->
<g id="edge3" class="edge">
<title>3&#45;&gt;1</title>
<path fill="none" stroke="black" d="M366.74,-179.71C375.48,-177.73 384.52,-175.75 393.05,-174 509.49,-150.02 647.3,-126.03 718.36,-113.98"/>
<polygon fill="black" stroke="black" points="719.07,-117.41 728.35,-112.29 717.9,-110.51 719.07,-117.41"/>
<text text-anchor="middle" x="566.05" y="-144.8" font-family="Times New Roman,serif" font-size="14.00">0.1</text>
</g>
<!-- 4 -->
<g id="node5" class="node">
<title>4</title>
<g id="a_node5"><a xlink:href="commissioning editor.svg" xlink:title="commissioning editor">
<ellipse fill="none" stroke="black" cx="491.05" cy="-192" rx="89.08" ry="18"/>
<text text-anchor="middle" x="491.05" y="-188.3" font-family="Times New Roman,serif" font-size="14.00">commissioning editor</text>
</a>
</g>
</g>
<!-- 4&#45;&gt;1 -->
<g id="edge4" class="edge">
<title>4&#45;&gt;1</title>
<path fill="none" stroke="black" d="M537.7,-176.58C589.84,-160.46 673.55,-134.59 723.83,-119.05"/>
<polygon fill="black" stroke="black" points="724.9,-122.38 733.42,-116.09 722.83,-115.69 724.9,-122.38"/>
<text text-anchor="middle" x="654.05" y="-144.8" font-family="Times New Roman,serif" font-size="14.00">0.1</text>
</g>
<!-- 5&#45;&gt;1 -->
<g id="edge5" class="edge">
<title>5&#45;&gt;1</title>
<path fill="none" stroke="black" d="M307.06,-31.21C419.38,-49.02 624.86,-81.61 717.94,-96.37"/>
<polygon fill="black" stroke="black" points="717.5,-99.85 727.93,-97.96 718.6,-92.93 717.5,-99.85"/>
<text text-anchor="middle" x="540.05" y="-57.8" font-family="Times New Roman,serif" font-size="14.00">0.1</text>
</g>
<!-- 6 -->
<g id="node7" class="node">
<title>6</title>
<g id="a_node7"><a xlink:href="marketing executive.svg" xlink:title="marketing executive">
<ellipse fill="none" stroke="black" cx="680.05" cy="-192" rx="81.79" ry="18"/>
<text text-anchor="middle" x="680.05" y="-188.3" font-family="Times New Roman,serif" font-size="14.00">marketing executive</text>
</a>
</g>
</g>
<!-- 6&#45;&gt;1 -->
<g id="edge6" class="edge">
<title>6&#45;&gt;1</title>
<path fill="none" stroke="black" d="M697.04,-174.21C710.21,-161.19 728.6,-143.01 743.08,-128.7"/>
<polygon fill="black" stroke="black" points="745.6,-131.13 750.25,-121.61 740.68,-126.15 745.6,-131.13"/>
<text text-anchor="middle" x="738.05" y="-144.8" font-family="Times New Roman,serif" font-size="14.00">0.1</text>
</g>
<!-- 7 -->
<g id="node8" class="node">
<title>7</title>
<g id="a_node8"><a xlink:href="medical physicist.svg" xlink:title="medical physicist">
<ellipse fill="none" stroke="black" cx="853.05" cy="-192" rx="73.39" ry="18"/>
<text text-anchor="middle" x="853.05" y="-188.3" font-family="Times New Roman,serif" font-size="14.00">medical physicist</text>
</a>
</g>
</g>
<!-- 7&#45;&gt;1 -->
<g id="edge7" class="edge">
<title>7&#45;&gt;1</title>
<path fill="none" stroke="black" d="M835.86,-174.21C822.53,-161.19 803.93,-143.01 789.28,-128.7"/>
<polygon fill="black" stroke="black" points="791.62,-126.1 782.02,-121.61 786.73,-131.1 791.62,-126.1"/>
<text text-anchor="middle" x="824.05" y="-144.8" font-family="Times New Roman,serif" font-size="14.00">0.1</text>
</g>
<!-- 8 -->
<g id="node9" class="node">
<title>8</title>
<g id="a_node9"><a xlink:href="paramedic.svg" xlink:title="paramedic">
<ellipse fill="none" stroke="black" cx="993.05" cy="-192" rx="48.19" ry="18"/>
<text text-anchor="middle" x="993.05" y="-188.3" font-family="Times New Roman,serif" font-size="14.00">paramedic</text>
</a>
</g>
</g>
<!-- 8&#45;&gt;1 -->
<g id="edge8" class="edge">
<title>8&#45;&gt;1</title>
<path fill="none" stroke="black" d="M960.04,-178.64C919.11,-163.32 849.42,-137.22 805.65,-120.83"/>
<polygon fill="black" stroke="black" points="806.78,-117.52 796.19,-117.29 804.33,-124.07 806.78,-117.52"/>
<text text-anchor="middle" x="903.05" y="-144.8" font-family="Times New Roman,serif" font-size="14.00">0.1</text>
</g>
<!-- 9 -->
<g id="node10" class="node">
<title>9</title>
<g id="a_node10"><a xlink:href="police officer.svg" xlink:title="police officer">
<ellipse fill="none" stroke="black" cx="1118.05" cy="-192" rx="59.29" ry="18"/>
<text text-anchor="middle" x="1118.05" y="-188.3" font-family="Times New Roman,serif" font-size="14.00">police officer</text>
</a>
</g>
</g>
<!-- 9&#45;&gt;1 -->
<g id="edge9" class="edge">
<title>9&#45;&gt;1</title>
<path fill="none" stroke="black" d="M1073.79,-179.91C1065.88,-177.94 1057.72,-175.9 1050.05,-174 990.52,-159.23 975.69,-155.3 916.05,-141 881.04,-132.61 841.37,-123.36 811.62,-116.48"/>
<polygon fill="black" stroke="black" points="812.07,-112.99 801.53,-114.15 810.49,-119.81 812.07,-112.99"/>
<text text-anchor="middle" x="985.05" y="-144.8" font-family="Times New Roman,serif" font-size="14.00">0.1</text>
</g>
<!-- 10 -->
<g id="node11" class="node">
<title>10</title>
<g id="a_node11"><a xlink:href="project manager.svg" xlink:title="project manager">
<ellipse fill="none" stroke="black" cx="1264.05" cy="-192" rx="68.79" ry="18"/>
<text text-anchor="middle" x="1264.05" y="-188.3" font-family="Times New Roman,serif" font-size="14.00">project manager</text>
</a>
</g>
</g>
<!-- 10&#45;&gt;1 -->
<g id="edge10" class="edge">
<title>10&#45;&gt;1</title>
<path fill="none" stroke="black" d="M1213.34,-179.63C1204.26,-177.69 1194.88,-175.74 1186.05,-174 1052.17,-147.67 892.84,-123.94 814.48,-112.76"/>
<polygon fill="black" stroke="black" points="814.81,-109.27 804.42,-111.33 813.83,-116.2 814.81,-109.27"/>
<text text-anchor="middle" x="1091.05" y="-144.8" font-family="Times New Roman,serif" font-size="14.00">0.1</text>
</g>
</g>
</svg>
