<?xml version="1.0" encoding="UTF-8" standalone="no"?>
<!DOCTYPE svg PUBLIC "-//W3C//DTD SVG 1.1//EN"
 "http://www.w3.org/Graphics/SVG/1.1/DTD/svg11.dtd">
<!-- Generated by graphviz version 2.44.1 (20200629.0800)
 -->
<!-- Title: archivist Pages: 1 -->
<svg width="1993pt" height="218pt"
 viewBox="0.00 0.00 1992.74 218.00" xmlns="http://www.w3.org/2000/svg" xmlns:xlink="http://www.w3.org/1999/xlink">
<g id="graph0" class="graph" transform="scale(1 1) rotate(0) translate(4 214)">
<title>archivist</title>
<polygon fill="white" stroke="transparent" points="-4,4 -4,-214 1988.74,-214 1988.74,4 -4,4"/>
<!-- 0 -->
<g id="node1" class="node">
<title>0</title>
<g id="a_node1"><a xlink:href="academic librarian.svg" xlink:title="academic librarian">
<ellipse fill="none" stroke="black" cx="181.05" cy="-192" rx="76.09" ry="18"/>
<text text-anchor="middle" x="181.05" y="-188.3" font-family="Times New Roman,serif" font-size="14.00">academic librarian</text>
</a>
</g>
</g>
<!-- 1 -->
<g id="node2" class="node">
<title>1</title>
<g id="a_node2"><a xlink:href="archivist.svg" xlink:title="archivist">
<ellipse fill="none" stroke="black" cx="787.05" cy="-105" rx="40.89" ry="18"/>
<text text-anchor="middle" x="787.05" y="-101.3" font-family="Times New Roman,serif" font-size="14.00">archivist</text>
</a>
</g>
</g>
<!-- 0&#45;&gt;1 -->
<g id="edge1" class="edge">
<title>0&#45;&gt;1</title>
<path fill="none" stroke="black" d="M236.3,-179.56C246.19,-177.62 256.41,-175.69 266.05,-174 438.2,-143.77 644.53,-120.7 737.42,-111"/>
<polygon fill="black" stroke="black" points="738.07,-114.46 747.65,-109.94 737.34,-107.49 738.07,-114.46"/>
<text text-anchor="middle" x="489.05" y="-144.8" font-family="Times New Roman,serif" font-size="14.00">0.1</text>
</g>
<!-- 2 -->
<g id="node3" class="node">
<title>2</title>
<g id="a_node3"><a xlink:href="accountant.svg" xlink:title="accountant">
<ellipse fill="none" stroke="black" cx="50.05" cy="-18" rx="50.09" ry="18"/>
<text text-anchor="middle" x="50.05" y="-14.3" font-family="Times New Roman,serif" font-size="14.00">accountant</text>
</a>
</g>
</g>
<!-- 1&#45;&gt;2 -->
<g id="edge13" class="edge">
<title>1&#45;&gt;2</title>
<path fill="none" stroke="black" d="M746.07,-103.21C628.53,-100.71 291.79,-91.69 184.05,-69 150.72,-61.98 114.64,-48.13 88.32,-36.78"/>
<polygon fill="black" stroke="black" points="89.66,-33.55 79.09,-32.73 86.84,-39.96 89.66,-33.55"/>
<text text-anchor="middle" x="199.55" y="-57.8" font-family="Times New Roman,serif" font-size="14.00">0.055</text>
</g>
<!-- 5 -->
<g id="node6" class="node">
<title>5</title>
<g id="a_node6"><a xlink:href="government research officer.svg" xlink:title="government research officer">
<ellipse fill="none" stroke="black" cx="230.05" cy="-18" rx="112.38" ry="18"/>
<text text-anchor="middle" x="230.05" y="-14.3" font-family="Times New Roman,serif" font-size="14.00">government research officer</text>
</a>
</g>
</g>
<!-- 1&#45;&gt;5 -->
<g id="edge19" class="edge">
<title>1&#45;&gt;5</title>
<path fill="none" stroke="black" d="M746.59,-101.64C681.77,-97.48 550.75,-87.46 441.05,-69 391.04,-60.58 335.24,-47.18 293.59,-36.37"/>
<polygon fill="black" stroke="black" points="294.41,-32.97 283.85,-33.82 292.64,-39.74 294.41,-32.97"/>
<text text-anchor="middle" x="456.55" y="-57.8" font-family="Times New Roman,serif" font-size="14.00">0.055</text>
</g>
<!-- 11 -->
<g id="node12" class="node">
<title>11</title>
<g id="a_node12"><a xlink:href="pharmacovigilance officer.svg" xlink:title="pharmacovigilance officer">
<ellipse fill="none" stroke="black" cx="465.05" cy="-18" rx="104.78" ry="18"/>
<text text-anchor="middle" x="465.05" y="-14.3" font-family="Times New Roman,serif" font-size="14.00">pharmacovigilance officer</text>
</a>
</g>
</g>
<!-- 1&#45;&gt;11 -->
<g id="edge11" class="edge">
<title>1&#45;&gt;11</title>
<path fill="none" stroke="black" d="M752.89,-94.98C699.93,-81 597.1,-53.86 529.77,-36.09"/>
<polygon fill="black" stroke="black" points="530.26,-32.59 519.7,-33.43 528.47,-39.36 530.26,-32.59"/>
<text text-anchor="middle" x="661.55" y="-57.8" font-family="Times New Roman,serif" font-size="14.00">0.111</text>
</g>
<!-- 12 -->
<g id="node13" class="node">
<title>12</title>
<g id="a_node13"><a xlink:href="public affairs consultant.svg" xlink:title="public affairs consultant">
<ellipse fill="none" stroke="black" cx="685.05" cy="-18" rx="97.48" ry="18"/>
<text text-anchor="middle" x="685.05" y="-14.3" font-family="Times New Roman,serif" font-size="14.00">public affairs consultant</text>
</a>
</g>
</g>
<!-- 1&#45;&gt;12 -->
<g id="edge12" class="edge">
<title>1&#45;&gt;12</title>
<path fill="none" stroke="black" d="M768.81,-88.8C753.31,-75.88 730.8,-57.13 713.02,-42.31"/>
<polygon fill="black" stroke="black" points="715.14,-39.53 705.22,-35.81 710.66,-44.9 715.14,-39.53"/>
<text text-anchor="middle" x="758.55" y="-57.8" font-family="Times New Roman,serif" font-size="14.00">0.111</text>
</g>
<!-- 13 -->
<g id="node14" class="node">
<title>13</title>
<g id="a_node14"><a xlink:href="agricultural consultant.svg" xlink:title="agricultural consultant">
<ellipse fill="none" stroke="black" cx="890.05" cy="-18" rx="89.88" ry="18"/>
<text text-anchor="middle" x="890.05" y="-14.3" font-family="Times New Roman,serif" font-size="14.00">agricultural consultant</text>
</a>
</g>
</g>
<!-- 1&#45;&gt;13 -->
<g id="edge14" class="edge">
<title>1&#45;&gt;13</title>
<path fill="none" stroke="black" d="M805.46,-88.8C821.12,-75.88 843.85,-57.13 861.8,-42.31"/>
<polygon fill="black" stroke="black" points="864.19,-44.88 869.67,-35.81 859.73,-39.48 864.19,-44.88"/>
<text text-anchor="middle" x="860.55" y="-57.8" font-family="Times New Roman,serif" font-size="14.00">0.055</text>
</g>
<!-- 14 -->
<g id="node15" class="node">
<title>14</title>
<g id="a_node15"><a xlink:href="catering manager.svg" xlink:title="catering manager">
<ellipse fill="none" stroke="black" cx="1069.05" cy="-18" rx="71.49" ry="18"/>
<text text-anchor="middle" x="1069.05" y="-14.3" font-family="Times New Roman,serif" font-size="14.00">catering manager</text>
</a>
</g>
</g>
<!-- 1&#45;&gt;14 -->
<g id="edge15" class="edge">
<title>1&#45;&gt;14</title>
<path fill="none" stroke="black" d="M819.95,-94.08C867.88,-79.64 957.47,-52.63 1015.13,-35.25"/>
<polygon fill="black" stroke="black" points="1016.23,-38.57 1024.8,-32.34 1014.21,-31.87 1016.23,-38.57"/>
<text text-anchor="middle" x="960.55" y="-57.8" font-family="Times New Roman,serif" font-size="14.00">0.055</text>
</g>
<!-- 15 -->
<g id="node16" class="node">
<title>15</title>
<g id="a_node16"><a xlink:href="control and instrumentation engineer.svg" xlink:title="control and instrumentation engineer">
<ellipse fill="none" stroke="black" cx="1300.05" cy="-18" rx="141.88" ry="18"/>
<text text-anchor="middle" x="1300.05" y="-14.3" font-family="Times New Roman,serif" font-size="14.00">control and instrumentation engineer</text>
</a>
</g>
</g>
<!-- 1&#45;&gt;15 -->
<g id="edge16" class="edge">
<title>1&#45;&gt;15</title>
<path fill="none" stroke="black" d="M824.77,-97.75C904.73,-84.5 1093.26,-53.26 1207.38,-34.35"/>
<polygon fill="black" stroke="black" points="1208.21,-37.76 1217.51,-32.68 1207.07,-30.86 1208.21,-37.76"/>
<text text-anchor="middle" x="1089.55" y="-57.8" font-family="Times New Roman,serif" font-size="14.00">0.055</text>
</g>
<!-- 16 -->
<g id="node17" class="node">
<title>16</title>
<g id="a_node17"><a xlink:href="corporate banker.svg" xlink:title="corporate banker">
<ellipse fill="none" stroke="black" cx="1532.05" cy="-18" rx="72.59" ry="18"/>
<text text-anchor="middle" x="1532.05" y="-14.3" font-family="Times New Roman,serif" font-size="14.00">corporate banker</text>
</a>
</g>
</g>
<!-- 1&#45;&gt;16 -->
<g id="edge17" class="edge">
<title>1&#45;&gt;16</title>
<path fill="none" stroke="black" d="M827.28,-101.36C931.04,-94.22 1216.03,-72.59 1451.05,-36 1457.29,-35.03 1463.78,-33.89 1470.24,-32.67"/>
<polygon fill="black" stroke="black" points="1471.2,-36.05 1480.34,-30.69 1469.86,-29.18 1471.2,-36.05"/>
<text text-anchor="middle" x="1321.55" y="-57.8" font-family="Times New Roman,serif" font-size="14.00">0.055</text>
</g>
<!-- 17 -->
<g id="node18" class="node">
<title>17</title>
<g id="a_node18"><a xlink:href="education administrator.svg" xlink:title="education administrator">
<ellipse fill="none" stroke="black" cx="1718.05" cy="-18" rx="95.58" ry="18"/>
<text text-anchor="middle" x="1718.05" y="-14.3" font-family="Times New Roman,serif" font-size="14.00">education administrator</text>
</a>
</g>
</g>
<!-- 1&#45;&gt;17 -->
<g id="edge18" class="edge">
<title>1&#45;&gt;17</title>
<path fill="none" stroke="black" d="M827.77,-102.23C919.51,-98.06 1149.35,-86.63 1341.05,-69 1462.75,-57.81 1493.04,-53.2 1614.05,-36 1622.31,-34.83 1630.94,-33.53 1639.53,-32.19"/>
<polygon fill="black" stroke="black" points="1640.25,-35.62 1649.58,-30.61 1639.16,-28.71 1640.25,-35.62"/>
<text text-anchor="middle" x="1497.55" y="-57.8" font-family="Times New Roman,serif" font-size="14.00">0.055</text>
</g>
<!-- 18 -->
<g id="node19" class="node">
<title>18</title>
<g id="a_node19"><a xlink:href="investment analyst.svg" xlink:title="investment analyst">
<ellipse fill="none" stroke="black" cx="1908.05" cy="-18" rx="76.89" ry="18"/>
<text text-anchor="middle" x="1908.05" y="-14.3" font-family="Times New Roman,serif" font-size="14.00">investment analyst</text>
</a>
</g>
</g>
<!-- 1&#45;&gt;18 -->
<g id="edge20" class="edge">
<title>1&#45;&gt;18</title>
<path fill="none" stroke="black" d="M827.86,-102.9C938.75,-99.71 1254.88,-89.4 1517.05,-69 1653.42,-58.39 1687.84,-56.77 1823.05,-36 1829.64,-34.99 1836.5,-33.81 1843.34,-32.57"/>
<polygon fill="black" stroke="black" points="1844.12,-35.98 1853.3,-30.7 1842.83,-29.1 1844.12,-35.98"/>
<text text-anchor="middle" x="1705.55" y="-57.8" font-family="Times New Roman,serif" font-size="14.00">0.055</text>
</g>
<!-- 2&#45;&gt;1 -->
<g id="edge2" class="edge">
<title>2&#45;&gt;1</title>
<path fill="none" stroke="black" d="M86.66,-30.43C94.03,-32.48 101.75,-34.45 109.05,-36 339.68,-84.82 622.09,-98.84 735.91,-102.65"/>
<polygon fill="black" stroke="black" points="735.96,-106.16 746.07,-102.98 736.19,-99.16 735.96,-106.16"/>
<text text-anchor="middle" x="303.05" y="-57.8" font-family="Times New Roman,serif" font-size="14.00">0.1</text>
</g>
<!-- 3 -->
<g id="node4" class="node">
<title>3</title>
<g id="a_node4"><a xlink:href="careers adviser.svg" xlink:title="careers adviser">
<ellipse fill="none" stroke="black" cx="340.05" cy="-192" rx="64.99" ry="18"/>
<text text-anchor="middle" x="340.05" y="-188.3" font-family="Times New Roman,serif" font-size="14.00">careers adviser</text>
</a>
</g>
</g>
<!-- 3&#45;&gt;1 -->
<g id="edge3" class="edge">
<title>3&#45;&gt;1</title>
<path fill="none" stroke="black" d="M387.74,-179.71C396.48,-177.73 405.52,-175.75 414.05,-174 530.49,-150.02 668.3,-126.03 739.36,-113.98"/>
<polygon fill="black" stroke="black" points="740.07,-117.41 749.35,-112.29 738.9,-110.51 740.07,-117.41"/>
<text text-anchor="middle" x="587.05" y="-144.8" font-family="Times New Roman,serif" font-size="14.00">0.1</text>
</g>
<!-- 4 -->
<g id="node5" class="node">
<title>4</title>
<g id="a_node5"><a xlink:href="commissioning editor.svg" xlink:title="commissioning editor">
<ellipse fill="none" stroke="black" cx="512.05" cy="-192" rx="89.08" ry="18"/>
<text text-anchor="middle" x="512.05" y="-188.3" font-family="Times New Roman,serif" font-size="14.00">commissioning editor</text>
</a>
</g>
</g>
<!-- 4&#45;&gt;1 -->
<g id="edge4" class="edge">
<title>4&#45;&gt;1</title>
<path fill="none" stroke="black" d="M558.7,-176.58C610.84,-160.46 694.55,-134.59 744.83,-119.05"/>
<polygon fill="black" stroke="black" points="745.9,-122.38 754.42,-116.09 743.83,-115.69 745.9,-122.38"/>
<text text-anchor="middle" x="675.05" y="-144.8" font-family="Times New Roman,serif" font-size="14.00">0.1</text>
</g>
<!-- 5&#45;&gt;1 -->
<g id="edge5" class="edge">
<title>5&#45;&gt;1</title>
<path fill="none" stroke="black" d="M308.6,-30.99C425.65,-48.85 642.38,-81.92 738.72,-96.63"/>
<polygon fill="black" stroke="black" points="738.35,-100.11 748.76,-98.16 739.4,-93.19 738.35,-100.11"/>
<text text-anchor="middle" x="551.05" y="-57.8" font-family="Times New Roman,serif" font-size="14.00">0.1</text>
</g>
<!-- 6 -->
<g id="node7" class="node">
<title>6</title>
<g id="a_node7"><a xlink:href="marketing executive.svg" xlink:title="marketing executive">
<ellipse fill="none" stroke="black" cx="701.05" cy="-192" rx="81.79" ry="18"/>
<text text-anchor="middle" x="701.05" y="-188.3" font-family="Times New Roman,serif" font-size="14.00">marketing executive</text>
</a>
</g>
</g>
<!-- 6&#45;&gt;1 -->
<g id="edge6" class="edge">
<title>6&#45;&gt;1</title>
<path fill="none" stroke="black" d="M718.04,-174.21C731.21,-161.19 749.6,-143.01 764.08,-128.7"/>
<polygon fill="black" stroke="black" points="766.6,-131.13 771.25,-121.61 761.68,-126.15 766.6,-131.13"/>
<text text-anchor="middle" x="759.05" y="-144.8" font-family="Times New Roman,serif" font-size="14.00">0.1</text>
</g>
<!-- 7 -->
<g id="node8" class="node">
<title>7</title>
<g id="a_node8"><a xlink:href="medical physicist.svg" xlink:title="medical physicist">
<ellipse fill="none" stroke="black" cx="874.05" cy="-192" rx="73.39" ry="18"/>
<text text-anchor="middle" x="874.05" y="-188.3" font-family="Times New Roman,serif" font-size="14.00">medical physicist</text>
</a>
</g>
</g>
<!-- 7&#45;&gt;1 -->
<g id="edge7" class="edge">
<title>7&#45;&gt;1</title>
<path fill="none" stroke="black" d="M856.86,-174.21C843.53,-161.19 824.93,-143.01 810.28,-128.7"/>
<polygon fill="black" stroke="black" points="812.62,-126.1 803.02,-121.61 807.73,-131.1 812.62,-126.1"/>
<text text-anchor="middle" x="845.05" y="-144.8" font-family="Times New Roman,serif" font-size="14.00">0.1</text>
</g>
<!-- 8 -->
<g id="node9" class="node">
<title>8</title>
<g id="a_node9"><a xlink:href="paramedic.svg" xlink:title="paramedic">
<ellipse fill="none" stroke="black" cx="1014.05" cy="-192" rx="48.19" ry="18"/>
<text text-anchor="middle" x="1014.05" y="-188.3" font-family="Times New Roman,serif" font-size="14.00">paramedic</text>
</a>
</g>
</g>
<!-- 8&#45;&gt;1 -->
<g id="edge8" class="edge">
<title>8&#45;&gt;1</title>
<path fill="none" stroke="black" d="M981.04,-178.64C940.11,-163.32 870.42,-137.22 826.65,-120.83"/>
<polygon fill="black" stroke="black" points="827.78,-117.52 817.19,-117.29 825.33,-124.07 827.78,-117.52"/>
<text text-anchor="middle" x="924.05" y="-144.8" font-family="Times New Roman,serif" font-size="14.00">0.1</text>
</g>
<!-- 9 -->
<g id="node10" class="node">
<title>9</title>
<g id="a_node10"><a xlink:href="police officer.svg" xlink:title="police officer">
<ellipse fill="none" stroke="black" cx="1139.05" cy="-192" rx="59.29" ry="18"/>
<text text-anchor="middle" x="1139.05" y="-188.3" font-family="Times New Roman,serif" font-size="14.00">police officer</text>
</a>
</g>
</g>
<!-- 9&#45;&gt;1 -->
<g id="edge9" class="edge">
<title>9&#45;&gt;1</title>
<path fill="none" stroke="black" d="M1094.79,-179.91C1086.88,-177.94 1078.72,-175.9 1071.05,-174 1011.52,-159.23 996.69,-155.3 937.05,-141 902.04,-132.61 862.37,-123.36 832.62,-116.48"/>
<polygon fill="black" stroke="black" points="833.07,-112.99 822.53,-114.15 831.49,-119.81 833.07,-112.99"/>
<text text-anchor="middle" x="1006.05" y="-144.8" font-family="Times New Roman,serif" font-size="14.00">0.1</text>
</g>
<!-- 10 -->
<g id="node11" class="node">
<title>10</title>
<g id="a_node11"><a xlink:href="project manager.svg" xlink:title="project manager">
<ellipse fill="none" stroke="black" cx="1285.05" cy="-192" rx="68.79" ry="18"/>
<text text-anchor="middle" x="1285.05" y="-188.3" font-family="Times New Roman,serif" font-size="14.00">project manager</text>
</a>
</g>
</g>
<!-- 10&#45;&gt;1 -->
<g id="edge10" class="edge">
<title>10&#45;&gt;1</title>
<path fill="none" stroke="black" d="M1234.34,-179.63C1225.26,-177.69 1215.88,-175.74 1207.05,-174 1073.17,-147.67 913.84,-123.94 835.48,-112.76"/>
<polygon fill="black" stroke="black" points="835.81,-109.27 825.42,-111.33 834.83,-116.2 835.81,-109.27"/>
<text text-anchor="middle" x="1112.05" y="-144.8" font-family="Times New Roman,serif" font-size="14.00">0.1</text>
</g>
</g>
</svg>
