<?xml version="1.0" encoding="UTF-8" standalone="no"?>
<!DOCTYPE svg PUBLIC "-//W3C//DTD SVG 1.1//EN"
 "http://www.w3.org/Graphics/SVG/1.1/DTD/svg11.dtd">
<!-- Generated by graphviz version 2.44.1 (20200629.0800)
 -->
<!-- Title: test Pages: 1 -->
<svg width="1253pt" height="218pt"
 viewBox="0.00 0.00 1252.99 218.00" xmlns="http://www.w3.org/2000/svg" xmlns:xlink="http://www.w3.org/1999/xlink">
<g id="graph0" class="graph" transform="scale(1 1) rotate(0) translate(4 214)">
<title>test</title>
<polygon fill="white" stroke="transparent" points="-4,4 -4,-214 1248.99,-214 1248.99,4 -4,4"/>
<!-- 0 -->
<g id="node1" class="node">
<title>0</title>
<g id="a_node1"><a xlink:href="software architect.svg" xlink:title="software architect">
<ellipse fill="none" stroke="black" cx="435.6" cy="-192" rx="75.29" ry="18"/>
<text text-anchor="middle" x="435.6" y="-188.3" font-family="Times New Roman,serif" font-size="14.00">software architect</text>
</a>
</g>
</g>
<!-- 1 -->
<g id="node2" class="node">
<title>1</title>
<g id="a_node2"><a xlink:href="architect.svg" xlink:title="architect">
<ellipse fill="none" stroke="black" cx="550.6" cy="-105" rx="41.69" ry="18"/>
<text text-anchor="middle" x="550.6" y="-101.3" font-family="Times New Roman,serif" font-size="14.00">architect</text>
</a>
</g>
</g>
<!-- 0&#45;&gt;1 -->
<g id="edge1" class="edge">
<title>0&#45;&gt;1</title>
<path fill="none" stroke="black" d="M442.54,-173.78C447.57,-163.13 455.31,-149.85 465.6,-141 477.19,-131.02 492.03,-123.61 506.04,-118.24"/>
<polygon fill="black" stroke="black" points="507.33,-121.5 515.57,-114.84 504.97,-114.9 507.33,-121.5"/>
<text text-anchor="middle" x="481.1" y="-144.8" font-family="Times New Roman,serif" font-size="14.00">0.106</text>
</g>
<!-- 1&#45;&gt;0 -->
<g id="edge11" class="edge">
<title>1&#45;&gt;0</title>
<path fill="none" stroke="black" d="M535.35,-121.87C524.96,-132.24 510.6,-145.71 496.6,-156 489.74,-161.04 482.09,-165.93 474.59,-170.38"/>
<polygon fill="black" stroke="black" points="472.83,-167.36 465.92,-175.39 476.33,-173.42 472.83,-167.36"/>
<text text-anchor="middle" x="530.1" y="-144.8" font-family="Times New Roman,serif" font-size="14.00">0.193</text>
</g>
<!-- 1&#45;&gt;1 -->
<g id="edge10" class="edge">
<title>1&#45;&gt;1</title>
<path fill="none" stroke="black" d="M588.13,-112.87C600.41,-112.83 610.19,-110.21 610.19,-105 610.19,-101.34 605.36,-98.95 598.22,-97.84"/>
<polygon fill="black" stroke="black" points="598.36,-94.35 588.13,-97.13 597.86,-101.33 598.36,-94.35"/>
<text text-anchor="middle" x="625.69" y="-101.3" font-family="Times New Roman,serif" font-size="14.00">0.528</text>
</g>
<!-- 2 -->
<g id="node3" class="node">
<title>2</title>
<g id="a_node3"><a xlink:href="it consultant.svg" xlink:title="it consultant">
<ellipse fill="none" stroke="black" cx="54.6" cy="-18" rx="54.69" ry="18"/>
<text text-anchor="middle" x="54.6" y="-14.3" font-family="Times New Roman,serif" font-size="14.00">it consultant</text>
</a>
</g>
</g>
<!-- 1&#45;&gt;2 -->
<g id="edge12" class="edge">
<title>1&#45;&gt;2</title>
<path fill="none" stroke="black" d="M508.88,-103.75C414.46,-102.67 187.16,-97.15 116.6,-69 101.92,-63.15 87.99,-52.56 77.07,-42.62"/>
<polygon fill="black" stroke="black" points="79.33,-39.95 69.68,-35.59 74.51,-45.02 79.33,-39.95"/>
<text text-anchor="middle" x="132.1" y="-57.8" font-family="Times New Roman,serif" font-size="14.00">0.136</text>
</g>
<!-- 3 -->
<g id="node4" class="node">
<title>3</title>
<g id="a_node4"><a xlink:href="project manager.svg" xlink:title="project manager">
<ellipse fill="none" stroke="black" cx="195.6" cy="-18" rx="68.79" ry="18"/>
<text text-anchor="middle" x="195.6" y="-14.3" font-family="Times New Roman,serif" font-size="14.00">project manager</text>
</a>
</g>
</g>
<!-- 1&#45;&gt;3 -->
<g id="edge15" class="edge">
<title>1&#45;&gt;3</title>
<path fill="none" stroke="black" d="M508.98,-104.89C452.63,-104.76 349.8,-99.75 268.6,-69 251.98,-62.71 235.48,-51.89 222.38,-41.93"/>
<polygon fill="black" stroke="black" points="224.31,-39 214.29,-35.56 219.98,-44.5 224.31,-39"/>
<text text-anchor="middle" x="284.1" y="-57.8" font-family="Times New Roman,serif" font-size="14.00">0.041</text>
</g>
<!-- 4 -->
<g id="node5" class="node">
<title>4</title>
<g id="a_node5"><a xlink:href="software developer.svg" xlink:title="software developer">
<ellipse fill="none" stroke="black" cx="362.6" cy="-18" rx="79.89" ry="18"/>
<text text-anchor="middle" x="362.6" y="-14.3" font-family="Times New Roman,serif" font-size="14.00">software developer</text>
</a>
</g>
</g>
<!-- 1&#45;&gt;4 -->
<g id="edge16" class="edge">
<title>1&#45;&gt;4</title>
<path fill="none" stroke="black" d="M510.34,-99.97C481.08,-95.66 441.37,-86.84 410.6,-69 399.64,-62.65 389.59,-53.08 381.54,-44"/>
<polygon fill="black" stroke="black" points="384.13,-41.65 375.02,-36.25 378.78,-46.15 384.13,-41.65"/>
<text text-anchor="middle" x="426.1" y="-57.8" font-family="Times New Roman,serif" font-size="14.00">0.041</text>
</g>
<!-- 5 -->
<g id="node6" class="node">
<title>5</title>
<g id="a_node6"><a xlink:href="pharmacovigilance officer.svg" xlink:title="pharmacovigilance officer">
<ellipse fill="none" stroke="black" cx="565.6" cy="-18" rx="104.78" ry="18"/>
<text text-anchor="middle" x="565.6" y="-14.3" font-family="Times New Roman,serif" font-size="14.00">pharmacovigilance officer</text>
</a>
</g>
</g>
<!-- 1&#45;&gt;5 -->
<g id="edge13" class="edge">
<title>1&#45;&gt;5</title>
<path fill="none" stroke="black" d="M533.28,-88.52C524.58,-78.78 516.96,-65.86 522.6,-54 524.55,-49.88 527.26,-46.08 530.38,-42.64"/>
<polygon fill="black" stroke="black" points="532.88,-45.08 537.7,-35.65 528.05,-40.02 532.88,-45.08"/>
<text text-anchor="middle" x="538.1" y="-57.8" font-family="Times New Roman,serif" font-size="14.00">0.068</text>
</g>
<!-- 6 -->
<g id="node7" class="node">
<title>6</title>
<g id="a_node7"><a xlink:href="landscape architect.svg" xlink:title="landscape architect">
<ellipse fill="none" stroke="black" cx="768.6" cy="-18" rx="79.89" ry="18"/>
<text text-anchor="middle" x="768.6" y="-14.3" font-family="Times New Roman,serif" font-size="14.00">landscape architect</text>
</a>
</g>
</g>
<!-- 1&#45;&gt;6 -->
<g id="edge14" class="edge">
<title>1&#45;&gt;6</title>
<path fill="none" stroke="black" d="M573.6,-89.78C592.01,-78.86 618.77,-64.01 643.6,-54 663,-46.18 684.76,-39.43 704.62,-34"/>
<polygon fill="black" stroke="black" points="705.75,-37.32 714.51,-31.36 703.95,-30.56 705.75,-37.32"/>
<text text-anchor="middle" x="659.1" y="-57.8" font-family="Times New Roman,serif" font-size="14.00">0.041</text>
</g>
<!-- 7 -->
<g id="node8" class="node">
<title>7</title>
<g id="a_node8"><a xlink:href="production manager.svg" xlink:title="production manager">
<ellipse fill="none" stroke="black" cx="949.6" cy="-18" rx="83.39" ry="18"/>
<text text-anchor="middle" x="949.6" y="-14.3" font-family="Times New Roman,serif" font-size="14.00">production manager</text>
</a>
</g>
</g>
<!-- 1&#45;&gt;7 -->
<g id="edge17" class="edge">
<title>1&#45;&gt;7</title>
<path fill="none" stroke="black" d="M588.81,-97.75C627.84,-91.21 690.13,-80.33 743.6,-69 745.41,-68.62 826.69,-48.87 886.6,-34.31"/>
<polygon fill="black" stroke="black" points="887.49,-37.7 896.38,-31.94 885.84,-30.9 887.49,-37.7"/>
<text text-anchor="middle" x="815.1" y="-57.8" font-family="Times New Roman,serif" font-size="14.00">0.031</text>
</g>
<!-- 10 -->
<g id="node11" class="node">
<title>10</title>
<g id="a_node11"><a xlink:href="ux designer.svg" xlink:title="ux designer">
<ellipse fill="none" stroke="black" cx="1102.6" cy="-18" rx="51.99" ry="18"/>
<text text-anchor="middle" x="1102.6" y="-14.3" font-family="Times New Roman,serif" font-size="14.00">ux designer</text>
</a>
</g>
</g>
<!-- 1&#45;&gt;10 -->
<g id="edge18" class="edge">
<title>1&#45;&gt;10</title>
<path fill="none" stroke="black" d="M591.94,-102.2C659.91,-98.76 799.33,-89.66 915.6,-69 964.19,-60.36 1018.58,-45.18 1056.12,-33.8"/>
<polygon fill="black" stroke="black" points="1057.22,-37.12 1065.76,-30.85 1055.17,-30.43 1057.22,-37.12"/>
<text text-anchor="middle" x="998.1" y="-57.8" font-family="Times New Roman,serif" font-size="14.00">0.031</text>
</g>
<!-- 11 -->
<g id="node12" class="node">
<title>11</title>
<g id="a_node12"><a xlink:href="teacher.svg" xlink:title="teacher">
<ellipse fill="none" stroke="black" cx="1208.6" cy="-18" rx="36.29" ry="18"/>
<text text-anchor="middle" x="1208.6" y="-14.3" font-family="Times New Roman,serif" font-size="14.00">teacher</text>
</a>
</g>
</g>
<!-- 1&#45;&gt;11 -->
<g id="edge19" class="edge">
<title>1&#45;&gt;11</title>
<path fill="none" stroke="black" d="M592.05,-102.94C673.85,-100.41 861.6,-92.34 1017.6,-69 1083.39,-59.15 1099.88,-55.13 1163.6,-36 1166.2,-35.22 1168.88,-34.36 1171.56,-33.45"/>
<polygon fill="black" stroke="black" points="1172.94,-36.68 1181.2,-30.04 1170.6,-30.08 1172.94,-36.68"/>
<text text-anchor="middle" x="1114.1" y="-57.8" font-family="Times New Roman,serif" font-size="14.00">0.026</text>
</g>
<!-- 2&#45;&gt;1 -->
<g id="edge2" class="edge">
<title>2&#45;&gt;1</title>
<path fill="none" stroke="black" d="M88.13,-32.36C118.55,-43.92 164.89,-60.13 206.6,-69 308.73,-90.73 430.89,-99.09 498.7,-102.21"/>
<polygon fill="black" stroke="black" points="498.97,-105.73 509.11,-102.67 499.27,-98.74 498.97,-105.73"/>
<text text-anchor="middle" x="222.1" y="-57.8" font-family="Times New Roman,serif" font-size="14.00">0.100</text>
</g>
<!-- 3&#45;&gt;1 -->
<g id="edge3" class="edge">
<title>3&#45;&gt;1</title>
<path fill="none" stroke="black" d="M235.24,-32.81C267.6,-43.71 314.66,-58.75 356.6,-69 405.53,-80.96 462.32,-90.74 501.76,-96.89"/>
<polygon fill="black" stroke="black" points="501.24,-100.35 511.65,-98.41 502.3,-93.43 501.24,-100.35"/>
<text text-anchor="middle" x="372.1" y="-57.8" font-family="Times New Roman,serif" font-size="14.00">0.042</text>
</g>
<!-- 4&#45;&gt;1 -->
<g id="edge4" class="edge">
<title>4&#45;&gt;1</title>
<path fill="none" stroke="black" d="M396.5,-34.33C429.55,-49.27 479.68,-71.94 513.71,-87.32"/>
<polygon fill="black" stroke="black" points="512.3,-90.53 522.86,-91.46 515.19,-84.15 512.3,-90.53"/>
<text text-anchor="middle" x="484.1" y="-57.8" font-family="Times New Roman,serif" font-size="14.00">0.038</text>
</g>
<!-- 5&#45;&gt;1 -->
<g id="edge5" class="edge">
<title>5&#45;&gt;1</title>
<path fill="none" stroke="black" d="M562.56,-36.18C560.51,-47.81 557.76,-63.42 555.41,-76.73"/>
<polygon fill="black" stroke="black" points="551.92,-76.34 553.63,-86.8 558.82,-77.56 551.92,-76.34"/>
<text text-anchor="middle" x="575.1" y="-57.8" font-family="Times New Roman,serif" font-size="14.00">0.022</text>
</g>
<!-- 6&#45;&gt;1 -->
<g id="edge6" class="edge">
<title>6&#45;&gt;1</title>
<path fill="none" stroke="black" d="M743.42,-35.14C725.81,-45.89 701.44,-59.69 678.6,-69 652.34,-79.7 621.76,-88.2 597.07,-94.14"/>
<polygon fill="black" stroke="black" points="596.16,-90.76 587.22,-96.45 597.76,-97.57 596.16,-90.76"/>
<text text-anchor="middle" x="724.1" y="-57.8" font-family="Times New Roman,serif" font-size="14.00">0.019</text>
</g>
<!-- 7&#45;&gt;1 -->
<g id="edge7" class="edge">
<title>7&#45;&gt;1</title>
<path fill="none" stroke="black" d="M920.93,-35.14C899.47,-46.46 869.05,-60.97 840.6,-69 759.33,-91.94 661.1,-99.84 602.35,-102.57"/>
<polygon fill="black" stroke="black" points="602.04,-99.08 592.2,-103 602.35,-106.07 602.04,-99.08"/>
<text text-anchor="middle" x="896.1" y="-57.8" font-family="Times New Roman,serif" font-size="14.00">0.019</text>
</g>
<!-- 8 -->
<g id="node9" class="node">
<title>8</title>
<g id="a_node9"><a xlink:href="set designer.svg" xlink:title="set designer">
<ellipse fill="none" stroke="black" cx="582.6" cy="-192" rx="53.89" ry="18"/>
<text text-anchor="middle" x="582.6" y="-188.3" font-family="Times New Roman,serif" font-size="14.00">set designer</text>
</a>
</g>
</g>
<!-- 8&#45;&gt;1 -->
<g id="edge8" class="edge">
<title>8&#45;&gt;1</title>
<path fill="none" stroke="black" d="M576.12,-173.8C571.67,-161.97 565.67,-146.03 560.6,-132.58"/>
<polygon fill="black" stroke="black" points="563.75,-131.01 556.95,-122.89 557.2,-133.48 563.75,-131.01"/>
<text text-anchor="middle" x="584.1" y="-144.8" font-family="Times New Roman,serif" font-size="14.00">0.019</text>
</g>
<!-- 9 -->
<g id="node10" class="node">
<title>9</title>
<g id="a_node10"><a xlink:href="investment analyst.svg" xlink:title="investment analyst">
<ellipse fill="none" stroke="black" cx="731.6" cy="-192" rx="76.89" ry="18"/>
<text text-anchor="middle" x="731.6" y="-188.3" font-family="Times New Roman,serif" font-size="14.00">investment analyst</text>
</a>
</g>
</g>
<!-- 9&#45;&gt;1 -->
<g id="edge9" class="edge">
<title>9&#45;&gt;1</title>
<path fill="none" stroke="black" d="M698.82,-175.61C667.29,-160.8 619.73,-138.47 587.03,-123.11"/>
<polygon fill="black" stroke="black" points="588.35,-119.86 577.81,-118.78 585.38,-126.2 588.35,-119.86"/>
<text text-anchor="middle" x="667.1" y="-144.8" font-family="Times New Roman,serif" font-size="14.00">0.016</text>
</g>
</g>
</svg>
