<?xml version="1.0" encoding="UTF-8" standalone="no"?>
<!DOCTYPE svg PUBLIC "-//W3C//DTD SVG 1.1//EN"
 "http://www.w3.org/Graphics/SVG/1.1/DTD/svg11.dtd">
<!-- Generated by graphviz version 2.44.1 (20200629.0800)
 -->
<!-- Title: test Pages: 1 -->
<svg width="1367pt" height="218pt"
 viewBox="0.00 0.00 1366.83 218.00" xmlns="http://www.w3.org/2000/svg" xmlns:xlink="http://www.w3.org/1999/xlink">
<g id="graph0" class="graph" transform="scale(1 1) rotate(0) translate(4 214)">
<title>test</title>
<polygon fill="white" stroke="transparent" points="-4,4 -4,-214 1362.83,-214 1362.83,4 -4,4"/>
<!-- 0 -->
<g id="node1" class="node">
<title>0</title>
<g id="a_node1"><a xlink:href="pharmacovigilance officer.svg" xlink:title="pharmacovigilance officer">
<ellipse fill="none" stroke="black" cx="104.64" cy="-192" rx="104.78" ry="18"/>
<text text-anchor="middle" x="104.64" y="-188.3" font-family="Times New Roman,serif" font-size="14.00">pharmacovigilance officer</text>
</a>
</g>
</g>
<!-- 1 -->
<g id="node2" class="node">
<title>1</title>
<g id="a_node2"><a xlink:href="armed forces officer.svg" xlink:title="armed forces officer">
<ellipse fill="none" stroke="black" cx="622.64" cy="-105" rx="85.29" ry="18"/>
<text text-anchor="middle" x="622.64" y="-101.3" font-family="Times New Roman,serif" font-size="14.00">armed forces officer</text>
</a>
</g>
</g>
<!-- 0&#45;&gt;1 -->
<g id="edge1" class="edge">
<title>0&#45;&gt;1</title>
<path fill="none" stroke="black" d="M127.92,-174.22C145.17,-162.73 169.74,-148.3 193.64,-141 254.04,-122.54 421.74,-113.2 528.69,-108.98"/>
<polygon fill="black" stroke="black" points="528.99,-112.47 538.84,-108.59 528.72,-105.48 528.99,-112.47"/>
<text text-anchor="middle" x="209.14" y="-144.8" font-family="Times New Roman,serif" font-size="14.00">0.101</text>
</g>
<!-- 1&#45;&gt;0 -->
<g id="edge11" class="edge">
<title>1&#45;&gt;0</title>
<path fill="none" stroke="black" d="M557.58,-116.68C463.75,-132.07 290.41,-160.52 187.52,-177.4"/>
<polygon fill="black" stroke="black" points="186.79,-173.97 177.49,-179.05 187.92,-180.88 186.79,-173.97"/>
<text text-anchor="middle" x="411.14" y="-144.8" font-family="Times New Roman,serif" font-size="14.00">0.082</text>
</g>
<!-- 1&#45;&gt;1 -->
<g id="edge10" class="edge">
<title>1&#45;&gt;1</title>
<path fill="none" stroke="black" d="M700.01,-112.52C715.08,-111.65 725.78,-109.14 725.78,-105 725.78,-101.86 719.64,-99.66 710.1,-98.4"/>
<polygon fill="black" stroke="black" points="710.29,-94.9 700.01,-97.48 709.65,-101.87 710.29,-94.9"/>
<text text-anchor="middle" x="741.28" y="-101.3" font-family="Times New Roman,serif" font-size="14.00">0.082</text>
</g>
<!-- 2 -->
<g id="node3" class="node">
<title>2</title>
<g id="a_node3"><a xlink:href="careers adviser.svg" xlink:title="careers adviser">
<ellipse fill="none" stroke="black" cx="218.64" cy="-18" rx="64.99" ry="18"/>
<text text-anchor="middle" x="218.64" y="-14.3" font-family="Times New Roman,serif" font-size="14.00">careers adviser</text>
</a>
</g>
</g>
<!-- 1&#45;&gt;2 -->
<g id="edge19" class="edge">
<title>1&#45;&gt;2</title>
<path fill="none" stroke="black" d="M540.98,-99.78C458.63,-94.73 337.6,-84.9 293.64,-69 276.34,-62.74 259.1,-51.68 245.53,-41.55"/>
<polygon fill="black" stroke="black" points="247.64,-38.76 237.58,-35.42 243.36,-44.3 247.64,-38.76"/>
<text text-anchor="middle" x="309.14" y="-57.8" font-family="Times New Roman,serif" font-size="14.00">0.023</text>
</g>
<!-- 3 -->
<g id="node4" class="node">
<title>3</title>
<g id="a_node4"><a xlink:href="project manager.svg" xlink:title="project manager">
<ellipse fill="none" stroke="black" cx="370.64" cy="-18" rx="68.79" ry="18"/>
<text text-anchor="middle" x="370.64" y="-14.3" font-family="Times New Roman,serif" font-size="14.00">project manager</text>
</a>
</g>
</g>
<!-- 1&#45;&gt;3 -->
<g id="edge12" class="edge">
<title>1&#45;&gt;3</title>
<path fill="none" stroke="black" d="M548.87,-95.8C516.65,-90.59 478.92,-82.24 446.64,-69 429.7,-62.05 412.51,-51.14 398.78,-41.29"/>
<polygon fill="black" stroke="black" points="400.84,-38.45 390.71,-35.33 396.68,-44.08 400.84,-38.45"/>
<text text-anchor="middle" x="462.14" y="-57.8" font-family="Times New Roman,serif" font-size="14.00">0.058</text>
</g>
<!-- 10 -->
<g id="node11" class="node">
<title>10</title>
<g id="a_node11"><a xlink:href="catering manager.svg" xlink:title="catering manager">
<ellipse fill="none" stroke="black" cx="528.64" cy="-18" rx="71.49" ry="18"/>
<text text-anchor="middle" x="528.64" y="-14.3" font-family="Times New Roman,serif" font-size="14.00">catering manager</text>
</a>
</g>
</g>
<!-- 1&#45;&gt;10 -->
<g id="edge13" class="edge">
<title>1&#45;&gt;10</title>
<path fill="none" stroke="black" d="M604.07,-87.21C589.94,-74.43 570.33,-56.7 554.65,-42.52"/>
<polygon fill="black" stroke="black" points="556.62,-39.58 546.85,-35.47 551.92,-44.77 556.62,-39.58"/>
<text text-anchor="middle" x="597.14" y="-57.8" font-family="Times New Roman,serif" font-size="14.00">0.047</text>
</g>
<!-- 11 -->
<g id="node12" class="node">
<title>11</title>
<g id="a_node12"><a xlink:href="human resources officer.svg" xlink:title="human resources officer">
<ellipse fill="none" stroke="black" cx="716.64" cy="-18" rx="98.58" ry="18"/>
<text text-anchor="middle" x="716.64" y="-14.3" font-family="Times New Roman,serif" font-size="14.00">human resources officer</text>
</a>
</g>
</g>
<!-- 1&#45;&gt;11 -->
<g id="edge14" class="edge">
<title>1&#45;&gt;11</title>
<path fill="none" stroke="black" d="M641.21,-87.21C655.25,-74.52 674.69,-56.93 690.33,-42.79"/>
<polygon fill="black" stroke="black" points="693.04,-45.06 698.11,-35.76 688.34,-39.87 693.04,-45.06"/>
<text text-anchor="middle" x="691.14" y="-57.8" font-family="Times New Roman,serif" font-size="14.00">0.035</text>
</g>
<!-- 12 -->
<g id="node13" class="node">
<title>12</title>
<g id="a_node13"><a xlink:href="lecturer.svg" xlink:title="lecturer">
<ellipse fill="none" stroke="black" cx="870.64" cy="-18" rx="37.89" ry="18"/>
<text text-anchor="middle" x="870.64" y="-14.3" font-family="Times New Roman,serif" font-size="14.00">lecturer</text>
</a>
</g>
</g>
<!-- 1&#45;&gt;12 -->
<g id="edge15" class="edge">
<title>1&#45;&gt;12</title>
<path fill="none" stroke="black" d="M666.9,-89.51C707.91,-75.99 770.56,-55.09 824.64,-36 827.19,-35.1 829.81,-34.16 832.45,-33.21"/>
<polygon fill="black" stroke="black" points="833.78,-36.45 841.98,-29.74 831.38,-29.87 833.78,-36.45"/>
<text text-anchor="middle" x="785.14" y="-57.8" font-family="Times New Roman,serif" font-size="14.00">0.035</text>
</g>
<!-- 13 -->
<g id="node14" class="node">
<title>13</title>
<g id="a_node14"><a xlink:href="production manager.svg" xlink:title="production manager">
<ellipse fill="none" stroke="black" cx="1009.64" cy="-18" rx="83.39" ry="18"/>
<text text-anchor="middle" x="1009.64" y="-14.3" font-family="Times New Roman,serif" font-size="14.00">production manager</text>
</a>
</g>
</g>
<!-- 1&#45;&gt;13 -->
<g id="edge16" class="edge">
<title>1&#45;&gt;13</title>
<path fill="none" stroke="black" d="M685.13,-92.77C720.32,-86.25 765.03,-77.63 804.64,-69 853.25,-58.41 907.97,-44.98 948.65,-34.71"/>
<polygon fill="black" stroke="black" points="949.58,-38.09 958.41,-32.24 947.86,-31.3 949.58,-38.09"/>
<text text-anchor="middle" x="882.14" y="-57.8" font-family="Times New Roman,serif" font-size="14.00">0.035</text>
</g>
<!-- 14 -->
<g id="node15" class="node">
<title>14</title>
<g id="a_node15"><a xlink:href="trader.svg" xlink:title="trader">
<ellipse fill="none" stroke="black" cx="1142.64" cy="-18" rx="31.7" ry="18"/>
<text text-anchor="middle" x="1142.64" y="-14.3" font-family="Times New Roman,serif" font-size="14.00">trader</text>
</a>
</g>
</g>
<!-- 1&#45;&gt;14 -->
<g id="edge17" class="edge">
<title>1&#45;&gt;14</title>
<path fill="none" stroke="black" d="M703.71,-99.29C800.12,-92.14 965.15,-75 1101.64,-36 1104.1,-35.3 1106.62,-34.49 1109.13,-33.62"/>
<polygon fill="black" stroke="black" points="1110.57,-36.81 1118.69,-30.01 1108.1,-30.27 1110.57,-36.81"/>
<text text-anchor="middle" x="1040.14" y="-57.8" font-family="Times New Roman,serif" font-size="14.00">0.035</text>
</g>
<!-- 15 -->
<g id="node16" class="node">
<title>15</title>
<g id="a_node16"><a xlink:href="automotive engineer.svg" xlink:title="automotive engineer">
<ellipse fill="none" stroke="black" cx="1275.64" cy="-18" rx="83.39" ry="18"/>
<text text-anchor="middle" x="1275.64" y="-14.3" font-family="Times New Roman,serif" font-size="14.00">automotive engineer</text>
</a>
</g>
</g>
<!-- 1&#45;&gt;15 -->
<g id="edge18" class="edge">
<title>1&#45;&gt;15</title>
<path fill="none" stroke="black" d="M706.03,-100.98C794.28,-96.93 937.42,-87.93 1059.64,-69 1113.28,-60.69 1173.37,-46.36 1216.52,-35.17"/>
<polygon fill="black" stroke="black" points="1217.5,-38.53 1226.29,-32.62 1215.73,-31.76 1217.5,-38.53"/>
<text text-anchor="middle" x="1152.14" y="-57.8" font-family="Times New Roman,serif" font-size="14.00">0.023</text>
</g>
<!-- 2&#45;&gt;1 -->
<g id="edge2" class="edge">
<title>2&#45;&gt;1</title>
<path fill="none" stroke="black" d="M257.54,-32.58C290.71,-43.73 339.82,-59.21 383.64,-69 434.64,-80.39 492.61,-88.99 538.69,-94.81"/>
<polygon fill="black" stroke="black" points="538.28,-98.28 548.64,-96.05 539.14,-91.34 538.28,-98.28"/>
<text text-anchor="middle" x="399.14" y="-57.8" font-family="Times New Roman,serif" font-size="14.00">0.050</text>
</g>
<!-- 3&#45;&gt;1 -->
<g id="edge3" class="edge">
<title>3&#45;&gt;1</title>
<path fill="none" stroke="black" d="M411.31,-32.72C454.33,-47.23 522.37,-70.18 569.58,-86.1"/>
<polygon fill="black" stroke="black" points="568.73,-89.51 579.32,-89.39 570.96,-82.88 568.73,-89.51"/>
<text text-anchor="middle" x="528.14" y="-57.8" font-family="Times New Roman,serif" font-size="14.00">0.050</text>
</g>
<!-- 4 -->
<g id="node5" class="node">
<title>4</title>
<g id="a_node5"><a xlink:href="civil service administrator.svg" xlink:title="civil service administrator">
<ellipse fill="none" stroke="black" cx="329.64" cy="-192" rx="102.88" ry="18"/>
<text text-anchor="middle" x="329.64" y="-188.3" font-family="Times New Roman,serif" font-size="14.00">civil service administrator</text>
</a>
</g>
</g>
<!-- 4&#45;&gt;1 -->
<g id="edge4" class="edge">
<title>4&#45;&gt;1</title>
<path fill="none" stroke="black" d="M380.34,-176.29C431.69,-161.4 510.99,-138.39 564.77,-122.79"/>
<polygon fill="black" stroke="black" points="565.87,-126.11 574.5,-119.97 563.92,-119.39 565.87,-126.11"/>
<text text-anchor="middle" x="510.14" y="-144.8" font-family="Times New Roman,serif" font-size="14.00">0.033</text>
</g>
<!-- 5 -->
<g id="node6" class="node">
<title>5</title>
<g id="a_node6"><a xlink:href="materials specialist.svg" xlink:title="materials specialist">
<ellipse fill="none" stroke="black" cx="528.64" cy="-192" rx="77.99" ry="18"/>
<text text-anchor="middle" x="528.64" y="-188.3" font-family="Times New Roman,serif" font-size="14.00">materials specialist</text>
</a>
</g>
</g>
<!-- 5&#45;&gt;1 -->
<g id="edge5" class="edge">
<title>5&#45;&gt;1</title>
<path fill="none" stroke="black" d="M547.21,-174.21C561.25,-161.52 580.69,-143.93 596.33,-129.79"/>
<polygon fill="black" stroke="black" points="599.04,-132.06 604.11,-122.76 594.34,-126.87 599.04,-132.06"/>
<text text-anchor="middle" x="597.14" y="-144.8" font-family="Times New Roman,serif" font-size="14.00">0.033</text>
</g>
<!-- 6 -->
<g id="node7" class="node">
<title>6</title>
<g id="a_node7"><a xlink:href="programme researcher.svg" xlink:title="programme researcher">
<ellipse fill="none" stroke="black" cx="716.64" cy="-192" rx="91.78" ry="18"/>
<text text-anchor="middle" x="716.64" y="-188.3" font-family="Times New Roman,serif" font-size="14.00">programme researcher</text>
</a>
</g>
</g>
<!-- 6&#45;&gt;1 -->
<g id="edge6" class="edge">
<title>6&#45;&gt;1</title>
<path fill="none" stroke="black" d="M698.07,-174.21C684.04,-161.52 664.59,-143.93 648.95,-129.79"/>
<polygon fill="black" stroke="black" points="650.94,-126.87 641.17,-122.76 646.24,-132.06 650.94,-126.87"/>
<text text-anchor="middle" x="691.14" y="-144.8" font-family="Times New Roman,serif" font-size="14.00">0.033</text>
</g>
<!-- 7 -->
<g id="node8" class="node">
<title>7</title>
<g id="a_node8"><a xlink:href="regulatory affairs officer.svg" xlink:title="regulatory affairs officer">
<ellipse fill="none" stroke="black" cx="924.64" cy="-192" rx="98.28" ry="18"/>
<text text-anchor="middle" x="924.64" y="-188.3" font-family="Times New Roman,serif" font-size="14.00">regulatory affairs officer</text>
</a>
</g>
</g>
<!-- 7&#45;&gt;1 -->
<g id="edge7" class="edge">
<title>7&#45;&gt;1</title>
<path fill="none" stroke="black" d="M873.41,-176.58C820.23,-161.61 737.16,-138.23 681.36,-122.53"/>
<polygon fill="black" stroke="black" points="682.19,-119.12 671.62,-119.78 680.29,-125.86 682.19,-119.12"/>
<text text-anchor="middle" x="808.14" y="-144.8" font-family="Times New Roman,serif" font-size="14.00">0.033</text>
</g>
<!-- 8 -->
<g id="node9" class="node">
<title>8</title>
<g id="a_node9"><a xlink:href="sales manager.svg" xlink:title="sales manager">
<ellipse fill="none" stroke="black" cx="1101.64" cy="-192" rx="61.19" ry="18"/>
<text text-anchor="middle" x="1101.64" y="-188.3" font-family="Times New Roman,serif" font-size="14.00">sales manager</text>
</a>
</g>
</g>
<!-- 8&#45;&gt;1 -->
<g id="edge8" class="edge">
<title>8&#45;&gt;1</title>
<path fill="none" stroke="black" d="M1056.94,-179.63C1048.56,-177.64 1039.85,-175.68 1031.64,-174 917.23,-150.63 783.57,-129.57 701.01,-117.28"/>
<polygon fill="black" stroke="black" points="701.35,-113.79 690.95,-115.79 700.33,-120.72 701.35,-113.79"/>
<text text-anchor="middle" x="946.14" y="-144.8" font-family="Times New Roman,serif" font-size="14.00">0.033</text>
</g>
<!-- 9 -->
<g id="node10" class="node">
<title>9</title>
<g id="a_node10"><a xlink:href="teacher.svg" xlink:title="teacher">
<ellipse fill="none" stroke="black" cx="1216.64" cy="-192" rx="36.29" ry="18"/>
<text text-anchor="middle" x="1216.64" y="-188.3" font-family="Times New Roman,serif" font-size="14.00">teacher</text>
</a>
</g>
</g>
<!-- 9&#45;&gt;1 -->
<g id="edge9" class="edge">
<title>9&#45;&gt;1</title>
<path fill="none" stroke="black" d="M1189.32,-179.67C1183.55,-177.57 1177.45,-175.55 1171.64,-174 1015.04,-132.34 826.37,-116.05 715.94,-109.79"/>
<polygon fill="black" stroke="black" points="716.01,-106.29 705.83,-109.24 715.62,-113.28 716.01,-106.29"/>
<text text-anchor="middle" x="1098.14" y="-144.8" font-family="Times New Roman,serif" font-size="14.00">0.033</text>
</g>
</g>
</svg>
