<?xml version="1.0" encoding="UTF-8" standalone="no"?>
<!DOCTYPE svg PUBLIC "-//W3C//DTD SVG 1.1//EN"
 "http://www.w3.org/Graphics/SVG/1.1/DTD/svg11.dtd">
<!-- Generated by graphviz version 2.44.1 (20200629.0800)
 -->
<!-- Title: armed_forces_officer Pages: 1 -->
<svg width="1329pt" height="218pt"
 viewBox="0.00 0.00 1328.83 218.00" xmlns="http://www.w3.org/2000/svg" xmlns:xlink="http://www.w3.org/1999/xlink">
<g id="graph0" class="graph" transform="scale(1 1) rotate(0) translate(4 214)">
<title>armed_forces_officer</title>
<polygon fill="white" stroke="transparent" points="-4,4 -4,-214 1324.83,-214 1324.83,4 -4,4"/>
<!-- 0 -->
<g id="node1" class="node">
<title>0</title>
<g id="a_node1"><a xlink:href="pharmacovigilance officer.svg" xlink:title="pharmacovigilance officer">
<ellipse fill="none" stroke="black" cx="104.64" cy="-192" rx="104.78" ry="18"/>
<text text-anchor="middle" x="104.64" y="-188.3" font-family="Times New Roman,serif" font-size="14.00">pharmacovigilance officer</text>
</a>
</g>
</g>
<!-- 1 -->
<g id="node2" class="node">
<title>1</title>
<g id="a_node2"><a xlink:href="armed forces officer.svg" xlink:title="armed forces officer">
<ellipse fill="none" stroke="black" cx="541.64" cy="-105" rx="85.29" ry="18"/>
<text text-anchor="middle" x="541.64" y="-101.3" font-family="Times New Roman,serif" font-size="14.00">armed forces officer</text>
</a>
</g>
</g>
<!-- 0&#45;&gt;1 -->
<g id="edge1" class="edge">
<title>0&#45;&gt;1</title>
<path fill="none" stroke="black" d="M127.96,-174.35C145.23,-162.93 169.81,-148.53 193.64,-141 239.8,-126.42 363.44,-116.42 450.16,-110.96"/>
<polygon fill="black" stroke="black" points="450.51,-114.44 460.27,-110.33 450.08,-107.46 450.51,-114.44"/>
<text text-anchor="middle" x="209.14" y="-144.8" font-family="Times New Roman,serif" font-size="14.00">0.101</text>
</g>
<!-- 1&#45;&gt;0 -->
<g id="edge11" class="edge">
<title>1&#45;&gt;0</title>
<path fill="none" stroke="black" d="M481.14,-117.77C402.95,-132.98 266.76,-159.47 181.38,-176.07"/>
<polygon fill="black" stroke="black" points="180.64,-172.65 171.49,-178 181.97,-179.52 180.64,-172.65"/>
<text text-anchor="middle" x="365.14" y="-144.8" font-family="Times New Roman,serif" font-size="14.00">0.082</text>
</g>
<!-- 1&#45;&gt;1 -->
<g id="edge10" class="edge">
<title>1&#45;&gt;1</title>
<path fill="none" stroke="black" d="M619.01,-112.52C634.08,-111.65 644.78,-109.14 644.78,-105 644.78,-101.86 638.64,-99.66 629.1,-98.4"/>
<polygon fill="black" stroke="black" points="629.29,-94.9 619.01,-97.48 628.65,-101.87 629.29,-94.9"/>
<text text-anchor="middle" x="660.28" y="-101.3" font-family="Times New Roman,serif" font-size="14.00">0.082</text>
</g>
<!-- 2 -->
<g id="node3" class="node">
<title>2</title>
<g id="a_node3"><a xlink:href="careers adviser.svg" xlink:title="careers adviser">
<ellipse fill="none" stroke="black" cx="151.64" cy="-18" rx="64.99" ry="18"/>
<text text-anchor="middle" x="151.64" y="-14.3" font-family="Times New Roman,serif" font-size="14.00">careers adviser</text>
</a>
</g>
</g>
<!-- 1&#45;&gt;2 -->
<g id="edge19" class="edge">
<title>1&#45;&gt;2</title>
<path fill="none" stroke="black" d="M460.34,-99.52C381.04,-94.35 266.43,-84.5 224.64,-69 207.86,-62.78 191.24,-51.86 178.11,-41.82"/>
<polygon fill="black" stroke="black" points="180.02,-38.87 170.01,-35.4 175.67,-44.36 180.02,-38.87"/>
<text text-anchor="middle" x="240.14" y="-57.8" font-family="Times New Roman,serif" font-size="14.00">0.023</text>
</g>
<!-- 3 -->
<g id="node4" class="node">
<title>3</title>
<g id="a_node4"><a xlink:href="project manager.svg" xlink:title="project manager">
<ellipse fill="none" stroke="black" cx="303.64" cy="-18" rx="68.79" ry="18"/>
<text text-anchor="middle" x="303.64" y="-14.3" font-family="Times New Roman,serif" font-size="14.00">project manager</text>
</a>
</g>
</g>
<!-- 1&#45;&gt;3 -->
<g id="edge12" class="edge">
<title>1&#45;&gt;3</title>
<path fill="none" stroke="black" d="M468.92,-95.59C438.58,-90.38 403.52,-82.09 373.64,-69 358.19,-62.23 342.75,-51.71 330.32,-42.05"/>
<polygon fill="black" stroke="black" points="332.22,-39.09 322.22,-35.57 327.84,-44.55 332.22,-39.09"/>
<text text-anchor="middle" x="389.14" y="-57.8" font-family="Times New Roman,serif" font-size="14.00">0.058</text>
</g>
<!-- 6 -->
<g id="node7" class="node">
<title>6</title>
<g id="a_node7"><a xlink:href="public affairs consultant.svg" xlink:title="public affairs consultant">
<ellipse fill="none" stroke="black" cx="487.64" cy="-18" rx="97.48" ry="18"/>
<text text-anchor="middle" x="487.64" y="-14.3" font-family="Times New Roman,serif" font-size="14.00">public affairs consultant</text>
</a>
</g>
</g>
<!-- 1&#45;&gt;6 -->
<g id="edge16" class="edge">
<title>1&#45;&gt;6</title>
<path fill="none" stroke="black" d="M504.29,-88.61C496.44,-83.57 489.18,-77.11 484.64,-69 480.85,-62.22 480.07,-54.08 480.66,-46.35"/>
<polygon fill="black" stroke="black" points="484.15,-46.65 482.16,-36.24 477.23,-45.62 484.15,-46.65"/>
<text text-anchor="middle" x="500.14" y="-57.8" font-family="Times New Roman,serif" font-size="14.00">0.035</text>
</g>
<!-- 10 -->
<g id="node11" class="node">
<title>10</title>
<g id="a_node11"><a xlink:href="catering manager.svg" xlink:title="catering manager">
<ellipse fill="none" stroke="black" cx="674.64" cy="-18" rx="71.49" ry="18"/>
<text text-anchor="middle" x="674.64" y="-14.3" font-family="Times New Roman,serif" font-size="14.00">catering manager</text>
</a>
</g>
</g>
<!-- 1&#45;&gt;10 -->
<g id="edge13" class="edge">
<title>1&#45;&gt;10</title>
<path fill="none" stroke="black" d="M566.97,-87.81C587.95,-74.4 617.96,-55.23 640.96,-40.52"/>
<polygon fill="black" stroke="black" points="642.86,-43.46 649.41,-35.13 639.09,-37.56 642.86,-43.46"/>
<text text-anchor="middle" x="632.14" y="-57.8" font-family="Times New Roman,serif" font-size="14.00">0.047</text>
</g>
<!-- 11 -->
<g id="node12" class="node">
<title>11</title>
<g id="a_node12"><a xlink:href="human resources officer.svg" xlink:title="human resources officer">
<ellipse fill="none" stroke="black" cx="862.64" cy="-18" rx="98.58" ry="18"/>
<text text-anchor="middle" x="862.64" y="-14.3" font-family="Times New Roman,serif" font-size="14.00">human resources officer</text>
</a>
</g>
</g>
<!-- 1&#45;&gt;11 -->
<g id="edge14" class="edge">
<title>1&#45;&gt;11</title>
<path fill="none" stroke="black" d="M592.5,-90.53C648.52,-75.7 738.66,-51.83 799.24,-35.79"/>
<polygon fill="black" stroke="black" points="800.3,-39.13 809.07,-33.18 798.51,-32.36 800.3,-39.13"/>
<text text-anchor="middle" x="736.14" y="-57.8" font-family="Times New Roman,serif" font-size="14.00">0.035</text>
</g>
<!-- 12 -->
<g id="node13" class="node">
<title>12</title>
<g id="a_node13"><a xlink:href="lecturer.svg" xlink:title="lecturer">
<ellipse fill="none" stroke="black" cx="1016.64" cy="-18" rx="37.89" ry="18"/>
<text text-anchor="middle" x="1016.64" y="-14.3" font-family="Times New Roman,serif" font-size="14.00">lecturer</text>
</a>
</g>
</g>
<!-- 1&#45;&gt;12 -->
<g id="edge15" class="edge">
<title>1&#45;&gt;12</title>
<path fill="none" stroke="black" d="M616.96,-96.6C703.36,-87.08 848.8,-67.84 970.64,-36 973.42,-35.27 976.27,-34.44 979.11,-33.55"/>
<polygon fill="black" stroke="black" points="980.34,-36.83 988.7,-30.32 978.11,-30.19 980.34,-36.83"/>
<text text-anchor="middle" x="905.14" y="-57.8" font-family="Times New Roman,serif" font-size="14.00">0.035</text>
</g>
<!-- 13 -->
<g id="node14" class="node">
<title>13</title>
<g id="a_node14"><a xlink:href="trader.svg" xlink:title="trader">
<ellipse fill="none" stroke="black" cx="1104.64" cy="-18" rx="31.7" ry="18"/>
<text text-anchor="middle" x="1104.64" y="-14.3" font-family="Times New Roman,serif" font-size="14.00">trader</text>
</a>
</g>
</g>
<!-- 1&#45;&gt;13 -->
<g id="edge17" class="edge">
<title>1&#45;&gt;13</title>
<path fill="none" stroke="black" d="M623.5,-99.89C701.34,-95.19 821.52,-85.87 924.64,-69 987.3,-58.75 1003.23,-55.56 1063.64,-36 1065.93,-35.26 1068.27,-34.45 1070.61,-33.59"/>
<polygon fill="black" stroke="black" points="1072.1,-36.77 1080.16,-29.9 1069.57,-30.24 1072.1,-36.77"/>
<text text-anchor="middle" x="1017.14" y="-57.8" font-family="Times New Roman,serif" font-size="14.00">0.035</text>
</g>
<!-- 14 -->
<g id="node15" class="node">
<title>14</title>
<g id="a_node15"><a xlink:href="automotive engineer.svg" xlink:title="automotive engineer">
<ellipse fill="none" stroke="black" cx="1237.64" cy="-18" rx="83.39" ry="18"/>
<text text-anchor="middle" x="1237.64" y="-14.3" font-family="Times New Roman,serif" font-size="14.00">automotive engineer</text>
</a>
</g>
</g>
<!-- 1&#45;&gt;14 -->
<g id="edge18" class="edge">
<title>1&#45;&gt;14</title>
<path fill="none" stroke="black" d="M626.23,-102.47C725.18,-99.65 893.69,-91.66 1036.64,-69 1086.08,-61.16 1141.18,-47.07 1181.17,-35.83"/>
<polygon fill="black" stroke="black" points="1182.34,-39.14 1191,-33.04 1180.43,-32.41 1182.34,-39.14"/>
<text text-anchor="middle" x="1124.14" y="-57.8" font-family="Times New Roman,serif" font-size="14.00">0.023</text>
</g>
<!-- 2&#45;&gt;1 -->
<g id="edge2" class="edge">
<title>2&#45;&gt;1</title>
<path fill="none" stroke="black" d="M189.91,-32.66C222.26,-43.78 270,-59.18 312.64,-69 360.55,-80.03 414.91,-88.51 458.64,-94.36"/>
<polygon fill="black" stroke="black" points="458.29,-97.84 468.66,-95.67 459.2,-90.9 458.29,-97.84"/>
<text text-anchor="middle" x="328.14" y="-57.8" font-family="Times New Roman,serif" font-size="14.00">0.050</text>
</g>
<!-- 3&#45;&gt;1 -->
<g id="edge3" class="edge">
<title>3&#45;&gt;1</title>
<path fill="none" stroke="black" d="M342.65,-32.93C383.07,-47.37 446.42,-69.99 490.75,-85.82"/>
<polygon fill="black" stroke="black" points="489.59,-89.13 500.18,-89.19 491.94,-82.53 489.59,-89.13"/>
<text text-anchor="middle" x="453.14" y="-57.8" font-family="Times New Roman,serif" font-size="14.00">0.050</text>
</g>
<!-- 4 -->
<g id="node5" class="node">
<title>4</title>
<g id="a_node5"><a xlink:href="civil service administrator.svg" xlink:title="civil service administrator">
<ellipse fill="none" stroke="black" cx="329.64" cy="-192" rx="102.88" ry="18"/>
<text text-anchor="middle" x="329.64" y="-188.3" font-family="Times New Roman,serif" font-size="14.00">civil service administrator</text>
</a>
</g>
</g>
<!-- 4&#45;&gt;1 -->
<g id="edge4" class="edge">
<title>4&#45;&gt;1</title>
<path fill="none" stroke="black" d="M369.02,-175.21C404.3,-161.06 456.15,-140.28 493.81,-125.18"/>
<polygon fill="black" stroke="black" points="495.56,-128.25 503.54,-121.27 492.96,-121.75 495.56,-128.25"/>
<text text-anchor="middle" x="464.14" y="-144.8" font-family="Times New Roman,serif" font-size="14.00">0.033</text>
</g>
<!-- 5 -->
<g id="node6" class="node">
<title>5</title>
<g id="a_node6"><a xlink:href="programme researcher.svg" xlink:title="programme researcher">
<ellipse fill="none" stroke="black" cx="541.64" cy="-192" rx="91.78" ry="18"/>
<text text-anchor="middle" x="541.64" y="-188.3" font-family="Times New Roman,serif" font-size="14.00">programme researcher</text>
</a>
</g>
</g>
<!-- 5&#45;&gt;1 -->
<g id="edge5" class="edge">
<title>5&#45;&gt;1</title>
<path fill="none" stroke="black" d="M541.64,-173.8C541.64,-162.16 541.64,-146.55 541.64,-133.24"/>
<polygon fill="black" stroke="black" points="545.14,-133.18 541.64,-123.18 538.14,-133.18 545.14,-133.18"/>
<text text-anchor="middle" x="557.14" y="-144.8" font-family="Times New Roman,serif" font-size="14.00">0.033</text>
</g>
<!-- 6&#45;&gt;1 -->
<g id="edge6" class="edge">
<title>6&#45;&gt;1</title>
<path fill="none" stroke="black" d="M505.12,-35.88C510.21,-41.35 515.5,-47.65 519.64,-54 524.3,-61.15 528.4,-69.45 531.76,-77.21"/>
<polygon fill="black" stroke="black" points="528.59,-78.69 535.61,-86.63 535.07,-76.05 528.59,-78.69"/>
<text text-anchor="middle" x="544.14" y="-57.8" font-family="Times New Roman,serif" font-size="14.00">0.033</text>
</g>
<!-- 7 -->
<g id="node8" class="node">
<title>7</title>
<g id="a_node8"><a xlink:href="sales manager.svg" xlink:title="sales manager">
<ellipse fill="none" stroke="black" cx="712.64" cy="-192" rx="61.19" ry="18"/>
<text text-anchor="middle" x="712.64" y="-188.3" font-family="Times New Roman,serif" font-size="14.00">sales manager</text>
</a>
</g>
</g>
<!-- 7&#45;&gt;1 -->
<g id="edge7" class="edge">
<title>7&#45;&gt;1</title>
<path fill="none" stroke="black" d="M682.85,-176.19C655.11,-162.4 613.49,-141.71 582.61,-126.37"/>
<polygon fill="black" stroke="black" points="583.92,-123.11 573.4,-121.79 580.8,-129.37 583.92,-123.11"/>
<text text-anchor="middle" x="653.14" y="-144.8" font-family="Times New Roman,serif" font-size="14.00">0.033</text>
</g>
<!-- 8 -->
<g id="node9" class="node">
<title>8</title>
<g id="a_node9"><a xlink:href="teacher.svg" xlink:title="teacher">
<ellipse fill="none" stroke="black" cx="827.64" cy="-192" rx="36.29" ry="18"/>
<text text-anchor="middle" x="827.64" y="-188.3" font-family="Times New Roman,serif" font-size="14.00">teacher</text>
</a>
</g>
</g>
<!-- 8&#45;&gt;1 -->
<g id="edge8" class="edge">
<title>8&#45;&gt;1</title>
<path fill="none" stroke="black" d="M799.66,-180.09C794.05,-177.99 788.18,-175.87 782.64,-174 722.73,-153.73 653.09,-134.53 604.12,-121.74"/>
<polygon fill="black" stroke="black" points="604.86,-118.32 594.3,-119.19 603.1,-125.09 604.86,-118.32"/>
<text text-anchor="middle" x="739.14" y="-144.8" font-family="Times New Roman,serif" font-size="14.00">0.033</text>
</g>
<!-- 9 -->
<g id="node10" class="node">
<title>9</title>
<g id="a_node10"><a xlink:href="training and development officer.svg" xlink:title="training and development officer">
<ellipse fill="none" stroke="black" cx="1009.64" cy="-192" rx="128.08" ry="18"/>
<text text-anchor="middle" x="1009.64" y="-188.3" font-family="Times New Roman,serif" font-size="14.00">training and development officer</text>
</a>
</g>
</g>
<!-- 9&#45;&gt;1 -->
<g id="edge9" class="edge">
<title>9&#45;&gt;1</title>
<path fill="none" stroke="black" d="M941.59,-176.74C891.17,-166.35 820.74,-152.19 758.64,-141 712.32,-132.65 660.27,-124.23 618.76,-117.73"/>
<polygon fill="black" stroke="black" points="619.13,-114.25 608.71,-116.17 618.05,-121.17 619.13,-114.25"/>
<text text-anchor="middle" x="850.14" y="-144.8" font-family="Times New Roman,serif" font-size="14.00">0.033</text>
</g>
</g>
</svg>
