<?xml version="1.0" encoding="UTF-8" standalone="no"?>
<!DOCTYPE svg PUBLIC "-//W3C//DTD SVG 1.1//EN"
 "http://www.w3.org/Graphics/SVG/1.1/DTD/svg11.dtd">
<!-- Generated by graphviz version 2.44.1 (20200629.0800)
 -->
<!-- Title: automotive_engineer Pages: 1 -->
<svg width="1504pt" height="218pt"
 viewBox="0.00 0.00 1503.89 218.00" xmlns="http://www.w3.org/2000/svg" xmlns:xlink="http://www.w3.org/1999/xlink">
<g id="graph0" class="graph" transform="scale(1 1) rotate(0) translate(4 214)">
<title>automotive_engineer</title>
<polygon fill="white" stroke="transparent" points="-4,4 -4,-214 1499.89,-214 1499.89,4 -4,4"/>
<!-- 0 -->
<g id="node1" class="node">
<title>0</title>
<g id="a_node1"><a xlink:href="armed forces officer.svg" xlink:title="armed forces officer">
<ellipse fill="none" stroke="black" cx="85.14" cy="-192" rx="85.29" ry="18"/>
<text text-anchor="middle" x="85.14" y="-188.3" font-family="Times New Roman,serif" font-size="14.00">armed forces officer</text>
</a>
</g>
</g>
<!-- 1 -->
<g id="node2" class="node">
<title>1</title>
<g id="a_node2"><a xlink:href="automotive engineer.svg" xlink:title="automotive engineer">
<ellipse fill="none" stroke="black" cx="697.14" cy="-105" rx="83.39" ry="18"/>
<text text-anchor="middle" x="697.14" y="-101.3" font-family="Times New Roman,serif" font-size="14.00">automotive engineer</text>
</a>
</g>
</g>
<!-- 0&#45;&gt;1 -->
<g id="edge1" class="edge">
<title>0&#45;&gt;1</title>
<path fill="none" stroke="black" d="M146.77,-179.52C157.55,-177.61 168.67,-175.7 179.14,-174 332.51,-149.14 512.56,-127.1 614.91,-115.24"/>
<polygon fill="black" stroke="black" points="615.34,-118.72 624.87,-114.09 614.54,-111.76 615.34,-118.72"/>
<text text-anchor="middle" x="421.64" y="-144.8" font-family="Times New Roman,serif" font-size="14.00">0.058</text>
</g>
<!-- 1&#45;&gt;1 -->
<g id="edge10" class="edge">
<title>1&#45;&gt;1</title>
<path fill="none" stroke="black" d="M773.05,-112.52C787.83,-111.65 798.34,-109.14 798.34,-105 798.34,-101.89 792.43,-99.71 783.24,-98.44"/>
<polygon fill="black" stroke="black" points="783.33,-94.93 773.05,-97.48 782.67,-101.9 783.33,-94.93"/>
<text text-anchor="middle" x="813.84" y="-101.3" font-family="Times New Roman,serif" font-size="14.00">0.138</text>
</g>
<!-- 4 -->
<g id="node5" class="node">
<title>4</title>
<g id="a_node5"><a xlink:href="structural engineer.svg" xlink:title="structural engineer">
<ellipse fill="none" stroke="black" cx="91.14" cy="-18" rx="76.89" ry="18"/>
<text text-anchor="middle" x="91.14" y="-14.3" font-family="Times New Roman,serif" font-size="14.00">structural engineer</text>
</a>
</g>
</g>
<!-- 1&#45;&gt;4 -->
<g id="edge13" class="edge">
<title>1&#45;&gt;4</title>
<path fill="none" stroke="black" d="M613.96,-103.84C521.53,-102.24 368.27,-95.31 239.14,-69 203.93,-61.82 165.51,-48.68 136.64,-37.67"/>
<polygon fill="black" stroke="black" points="137.83,-34.37 127.24,-34.03 135.3,-40.9 137.83,-34.37"/>
<text text-anchor="middle" x="254.64" y="-57.8" font-family="Times New Roman,serif" font-size="14.00">0.083</text>
</g>
<!-- 10 -->
<g id="node11" class="node">
<title>10</title>
<g id="a_node11"><a xlink:href="it consultant.svg" xlink:title="it consultant">
<ellipse fill="none" stroke="black" cx="240.14" cy="-18" rx="54.69" ry="18"/>
<text text-anchor="middle" x="240.14" y="-14.3" font-family="Times New Roman,serif" font-size="14.00">it consultant</text>
</a>
</g>
</g>
<!-- 1&#45;&gt;10 -->
<g id="edge11" class="edge">
<title>1&#45;&gt;10</title>
<path fill="none" stroke="black" d="M630.03,-94.25C551.51,-82.41 417.77,-60.91 304.14,-36 299.54,-34.99 294.77,-33.87 290.01,-32.7"/>
<polygon fill="black" stroke="black" points="290.85,-29.3 280.3,-30.24 289.13,-36.09 290.85,-29.3"/>
<text text-anchor="middle" x="481.64" y="-57.8" font-family="Times New Roman,serif" font-size="14.00">0.083</text>
</g>
<!-- 11 -->
<g id="node12" class="node">
<title>11</title>
<g id="a_node12"><a xlink:href="production manager.svg" xlink:title="production manager">
<ellipse fill="none" stroke="black" cx="396.14" cy="-18" rx="83.39" ry="18"/>
<text text-anchor="middle" x="396.14" y="-14.3" font-family="Times New Roman,serif" font-size="14.00">production manager</text>
</a>
</g>
</g>
<!-- 1&#45;&gt;11 -->
<g id="edge12" class="edge">
<title>1&#45;&gt;11</title>
<path fill="none" stroke="black" d="M648.78,-90.34C595.95,-75.42 511.32,-51.53 454.76,-35.55"/>
<polygon fill="black" stroke="black" points="455.46,-32.11 444.88,-32.76 453.55,-38.85 455.46,-32.11"/>
<text text-anchor="middle" x="580.64" y="-57.8" font-family="Times New Roman,serif" font-size="14.00">0.083</text>
</g>
<!-- 12 -->
<g id="node13" class="node">
<title>12</title>
<g id="a_node13"><a xlink:href="environmental manager.svg" xlink:title="environmental manager">
<ellipse fill="none" stroke="black" cx="591.14" cy="-18" rx="93.68" ry="18"/>
<text text-anchor="middle" x="591.14" y="-14.3" font-family="Times New Roman,serif" font-size="14.00">environmental manager</text>
</a>
</g>
</g>
<!-- 1&#45;&gt;12 -->
<g id="edge14" class="edge">
<title>1&#45;&gt;12</title>
<path fill="none" stroke="black" d="M676.45,-87.41C660.36,-74.51 637.84,-56.45 619.98,-42.13"/>
<polygon fill="black" stroke="black" points="622.13,-39.36 612.14,-35.84 617.75,-44.83 622.13,-39.36"/>
<text text-anchor="middle" x="666.64" y="-57.8" font-family="Times New Roman,serif" font-size="14.00">0.055</text>
</g>
<!-- 13 -->
<g id="node14" class="node">
<title>13</title>
<g id="a_node14"><a xlink:href="investment fund manager.svg" xlink:title="investment fund manager">
<ellipse fill="none" stroke="black" cx="803.14" cy="-18" rx="100.98" ry="18"/>
<text text-anchor="middle" x="803.14" y="-14.3" font-family="Times New Roman,serif" font-size="14.00">investment fund manager</text>
</a>
</g>
</g>
<!-- 1&#45;&gt;13 -->
<g id="edge15" class="edge">
<title>1&#45;&gt;13</title>
<path fill="none" stroke="black" d="M717.83,-87.41C733.92,-74.51 756.44,-56.45 774.3,-42.13"/>
<polygon fill="black" stroke="black" points="776.53,-44.83 782.14,-35.84 772.15,-39.36 776.53,-44.83"/>
<text text-anchor="middle" x="772.64" y="-57.8" font-family="Times New Roman,serif" font-size="14.00">0.055</text>
</g>
<!-- 14 -->
<g id="node15" class="node">
<title>14</title>
<g id="a_node15"><a xlink:href="lecturer.svg" xlink:title="lecturer">
<ellipse fill="none" stroke="black" cx="959.14" cy="-18" rx="37.89" ry="18"/>
<text text-anchor="middle" x="959.14" y="-14.3" font-family="Times New Roman,serif" font-size="14.00">lecturer</text>
</a>
</g>
</g>
<!-- 1&#45;&gt;14 -->
<g id="edge16" class="edge">
<title>1&#45;&gt;14</title>
<path fill="none" stroke="black" d="M743.71,-90.06C787.6,-76.75 855.11,-55.84 913.14,-36 915.7,-35.13 918.33,-34.21 920.97,-33.27"/>
<polygon fill="black" stroke="black" points="922.29,-36.51 930.51,-29.83 919.92,-29.93 922.29,-36.51"/>
<text text-anchor="middle" x="869.64" y="-57.8" font-family="Times New Roman,serif" font-size="14.00">0.055</text>
</g>
<!-- 15 -->
<g id="node16" class="node">
<title>15</title>
<g id="a_node16"><a xlink:href="academic librarian.svg" xlink:title="academic librarian">
<ellipse fill="none" stroke="black" cx="1091.14" cy="-18" rx="76.09" ry="18"/>
<text text-anchor="middle" x="1091.14" y="-14.3" font-family="Times New Roman,serif" font-size="14.00">academic librarian</text>
</a>
</g>
</g>
<!-- 1&#45;&gt;15 -->
<g id="edge17" class="edge">
<title>1&#45;&gt;15</title>
<path fill="none" stroke="black" d="M760.9,-93.4C798.36,-86.92 846.57,-78.14 889.14,-69 937.66,-58.58 992.27,-44.95 1032.46,-34.55"/>
<polygon fill="black" stroke="black" points="1033.56,-37.88 1042.36,-31.98 1031.8,-31.11 1033.56,-37.88"/>
<text text-anchor="middle" x="965.64" y="-57.8" font-family="Times New Roman,serif" font-size="14.00">0.027</text>
</g>
<!-- 16 -->
<g id="node17" class="node">
<title>16</title>
<g id="a_node17"><a xlink:href="catering manager.svg" xlink:title="catering manager">
<ellipse fill="none" stroke="black" cx="1257.14" cy="-18" rx="71.49" ry="18"/>
<text text-anchor="middle" x="1257.14" y="-14.3" font-family="Times New Roman,serif" font-size="14.00">catering manager</text>
</a>
</g>
</g>
<!-- 1&#45;&gt;16 -->
<g id="edge18" class="edge">
<title>1&#45;&gt;16</title>
<path fill="none" stroke="black" d="M769.77,-96.19C828.09,-89.68 912.01,-79.75 985.14,-69 1070.37,-56.47 1091.53,-52.18 1176.14,-36 1182.02,-34.88 1188.13,-33.67 1194.24,-32.43"/>
<polygon fill="black" stroke="black" points="1195.38,-35.77 1204.48,-30.34 1193.98,-28.91 1195.38,-35.77"/>
<text text-anchor="middle" x="1092.64" y="-57.8" font-family="Times New Roman,serif" font-size="14.00">0.027</text>
</g>
<!-- 17 -->
<g id="node18" class="node">
<title>17</title>
<g id="a_node18"><a xlink:href="chemical engineer.svg" xlink:title="chemical engineer">
<ellipse fill="none" stroke="black" cx="1421.14" cy="-18" rx="74.99" ry="18"/>
<text text-anchor="middle" x="1421.14" y="-14.3" font-family="Times New Roman,serif" font-size="14.00">chemical engineer</text>
</a>
</g>
</g>
<!-- 1&#45;&gt;17 -->
<g id="edge19" class="edge">
<title>1&#45;&gt;17</title>
<path fill="none" stroke="black" d="M775.69,-98.82C859.25,-92.97 995.24,-82.49 1112.14,-69 1212.55,-57.41 1237.58,-53.36 1337.14,-36 1343.39,-34.91 1349.9,-33.71 1356.39,-32.47"/>
<polygon fill="black" stroke="black" points="1357.4,-35.84 1366.55,-30.49 1356.06,-28.97 1357.4,-35.84"/>
<text text-anchor="middle" x="1243.64" y="-57.8" font-family="Times New Roman,serif" font-size="14.00">0.027</text>
</g>
<!-- 2 -->
<g id="node3" class="node">
<title>2</title>
<g id="a_node3"><a xlink:href="electrical engineer.svg" xlink:title="electrical engineer">
<ellipse fill="none" stroke="black" cx="263.14" cy="-192" rx="74.99" ry="18"/>
<text text-anchor="middle" x="263.14" y="-188.3" font-family="Times New Roman,serif" font-size="14.00">electrical engineer</text>
</a>
</g>
</g>
<!-- 2&#45;&gt;1 -->
<g id="edge2" class="edge">
<title>2&#45;&gt;1</title>
<path fill="none" stroke="black" d="M318.26,-179.78C327.88,-177.84 337.8,-175.85 347.14,-174 444.08,-154.77 556.23,-133.08 626.92,-119.48"/>
<polygon fill="black" stroke="black" points="627.88,-122.86 637.04,-117.53 626.56,-115.98 627.88,-122.86"/>
<text text-anchor="middle" x="525.64" y="-144.8" font-family="Times New Roman,serif" font-size="14.00">0.058</text>
</g>
<!-- 3 -->
<g id="node4" class="node">
<title>3</title>
<g id="a_node4"><a xlink:href="manufacturing engineer.svg" xlink:title="manufacturing engineer">
<ellipse fill="none" stroke="black" cx="450.14" cy="-192" rx="94.48" ry="18"/>
<text text-anchor="middle" x="450.14" y="-188.3" font-family="Times New Roman,serif" font-size="14.00">manufacturing engineer</text>
</a>
</g>
</g>
<!-- 3&#45;&gt;1 -->
<g id="edge3" class="edge">
<title>3&#45;&gt;1</title>
<path fill="none" stroke="black" d="M493.73,-176C536.05,-161.44 600.31,-139.32 645.25,-123.86"/>
<polygon fill="black" stroke="black" points="646.5,-127.13 654.81,-120.57 644.22,-120.51 646.5,-127.13"/>
<text text-anchor="middle" x="604.64" y="-144.8" font-family="Times New Roman,serif" font-size="14.00">0.058</text>
</g>
<!-- 4&#45;&gt;1 -->
<g id="edge4" class="edge">
<title>4&#45;&gt;1</title>
<path fill="none" stroke="black" d="M147.34,-30.45C156.94,-32.35 166.82,-34.26 176.14,-36 260.39,-51.74 281.26,-57.15 366.14,-69 449.16,-80.59 544.37,-90.28 611.3,-96.5"/>
<polygon fill="black" stroke="black" points="611.1,-100 621.38,-97.44 611.74,-93.03 611.1,-100"/>
<text text-anchor="middle" x="381.64" y="-57.8" font-family="Times New Roman,serif" font-size="14.00">0.058</text>
</g>
<!-- 5 -->
<g id="node6" class="node">
<title>5</title>
<g id="a_node6"><a xlink:href="barristers clerk.svg" xlink:title="barristers clerk">
<ellipse fill="none" stroke="black" cx="627.14" cy="-192" rx="64.19" ry="18"/>
<text text-anchor="middle" x="627.14" y="-188.3" font-family="Times New Roman,serif" font-size="14.00">barristers clerk</text>
</a>
</g>
</g>
<!-- 5&#45;&gt;1 -->
<g id="edge5" class="edge">
<title>5&#45;&gt;1</title>
<path fill="none" stroke="black" d="M640.97,-174.21C651.23,-161.75 665.38,-144.57 676.9,-130.57"/>
<polygon fill="black" stroke="black" points="679.69,-132.7 683.34,-122.76 674.28,-128.25 679.69,-132.7"/>
<text text-anchor="middle" x="682.64" y="-144.8" font-family="Times New Roman,serif" font-size="14.00">0.029</text>
</g>
<!-- 6 -->
<g id="node7" class="node">
<title>6</title>
<g id="a_node7"><a xlink:href="civil engineer.svg" xlink:title="civil engineer">
<ellipse fill="none" stroke="black" cx="767.14" cy="-192" rx="57.69" ry="18"/>
<text text-anchor="middle" x="767.14" y="-188.3" font-family="Times New Roman,serif" font-size="14.00">civil engineer</text>
</a>
</g>
</g>
<!-- 6&#45;&gt;1 -->
<g id="edge6" class="edge">
<title>6&#45;&gt;1</title>
<path fill="none" stroke="black" d="M753.31,-174.21C743.05,-161.75 728.91,-144.57 717.38,-130.57"/>
<polygon fill="black" stroke="black" points="720,-128.25 710.94,-122.76 714.6,-132.7 720,-128.25"/>
<text text-anchor="middle" x="752.64" y="-144.8" font-family="Times New Roman,serif" font-size="14.00">0.029</text>
</g>
<!-- 7 -->
<g id="node8" class="node">
<title>7</title>
<g id="a_node8"><a xlink:href="civil service administrator.svg" xlink:title="civil service administrator">
<ellipse fill="none" stroke="black" cx="946.14" cy="-192" rx="102.88" ry="18"/>
<text text-anchor="middle" x="946.14" y="-188.3" font-family="Times New Roman,serif" font-size="14.00">civil service administrator</text>
</a>
</g>
</g>
<!-- 7&#45;&gt;1 -->
<g id="edge7" class="edge">
<title>7&#45;&gt;1</title>
<path fill="none" stroke="black" d="M901.34,-175.71C858.68,-161.14 794.5,-139.23 749.5,-123.87"/>
<polygon fill="black" stroke="black" points="750.52,-120.52 739.92,-120.6 748.26,-127.15 750.52,-120.52"/>
<text text-anchor="middle" x="852.64" y="-144.8" font-family="Times New Roman,serif" font-size="14.00">0.029</text>
</g>
<!-- 8 -->
<g id="node9" class="node">
<title>8</title>
<g id="a_node9"><a xlink:href="commodity broker.svg" xlink:title="commodity broker">
<ellipse fill="none" stroke="black" cx="1145.14" cy="-192" rx="78.79" ry="18"/>
<text text-anchor="middle" x="1145.14" y="-188.3" font-family="Times New Roman,serif" font-size="14.00">commodity broker</text>
</a>
</g>
</g>
<!-- 8&#45;&gt;1 -->
<g id="edge8" class="edge">
<title>8&#45;&gt;1</title>
<path fill="none" stroke="black" d="M1087.59,-179.7C1077.77,-177.78 1067.66,-175.83 1058.14,-174 957.5,-154.69 840.96,-132.83 768.14,-119.23"/>
<polygon fill="black" stroke="black" points="768.64,-115.76 758.17,-117.36 767.35,-122.64 768.64,-115.76"/>
<text text-anchor="middle" x="973.64" y="-144.8" font-family="Times New Roman,serif" font-size="14.00">0.029</text>
</g>
<!-- 9 -->
<g id="node10" class="node">
<title>9</title>
<g id="a_node10"><a xlink:href="fisheries officer.svg" xlink:title="fisheries officer">
<ellipse fill="none" stroke="black" cx="1309.14" cy="-192" rx="66.89" ry="18"/>
<text text-anchor="middle" x="1309.14" y="-188.3" font-family="Times New Roman,serif" font-size="14.00">fisheries officer</text>
</a>
</g>
</g>
<!-- 9&#45;&gt;1 -->
<g id="edge9" class="edge">
<title>9&#45;&gt;1</title>
<path fill="none" stroke="black" d="M1260.61,-179.51C1251.51,-177.54 1242.06,-175.61 1233.14,-174 1074.85,-145.47 888.14,-124.65 782.1,-114.01"/>
<polygon fill="black" stroke="black" points="782.39,-110.52 772.09,-113.02 781.69,-117.49 782.39,-110.52"/>
<text text-anchor="middle" x="1131.64" y="-144.8" font-family="Times New Roman,serif" font-size="14.00">0.029</text>
</g>
</g>
</svg>
