<?xml version="1.0" encoding="UTF-8" standalone="no"?>
<!DOCTYPE svg PUBLIC "-//W3C//DTD SVG 1.1//EN"
 "http://www.w3.org/Graphics/SVG/1.1/DTD/svg11.dtd">
<!-- Generated by graphviz version 2.44.1 (20200629.0800)
 -->
<!-- Title: barrister Pages: 1 -->
<svg width="1325pt" height="218pt"
 viewBox="0.00 0.00 1324.89 218.00" xmlns="http://www.w3.org/2000/svg" xmlns:xlink="http://www.w3.org/1999/xlink">
<g id="graph0" class="graph" transform="scale(1 1) rotate(0) translate(4 214)">
<title>barrister</title>
<polygon fill="white" stroke="transparent" points="-4,4 -4,-214 1320.89,-214 1320.89,4 -4,4"/>
<!-- 0 -->
<g id="node1" class="node">
<title>0</title>
<g id="a_node1"><a xlink:href="lecturer.svg" xlink:title="lecturer">
<ellipse fill="none" stroke="black" cx="37.7" cy="-192" rx="37.89" ry="18"/>
<text text-anchor="middle" x="37.7" y="-188.3" font-family="Times New Roman,serif" font-size="14.00">lecturer</text>
</a>
</g>
</g>
<!-- 1 -->
<g id="node2" class="node">
<title>1</title>
<g id="a_node2"><a xlink:href="barrister.svg" xlink:title="barrister">
<ellipse fill="none" stroke="black" cx="482.7" cy="-105" rx="40.09" ry="18"/>
<text text-anchor="middle" x="482.7" y="-101.3" font-family="Times New Roman,serif" font-size="14.00">barrister</text>
</a>
</g>
</g>
<!-- 0&#45;&gt;1 -->
<g id="edge1" class="edge">
<title>0&#45;&gt;1</title>
<path fill="none" stroke="black" d="M49.21,-174.47C58.25,-162.95 71.9,-148.38 87.7,-141 147.54,-113.06 339.54,-107.34 432,-106.23"/>
<polygon fill="black" stroke="black" points="432.27,-109.73 442.23,-106.12 432.19,-102.73 432.27,-109.73"/>
<text text-anchor="middle" x="103.2" y="-144.8" font-family="Times New Roman,serif" font-size="14.00">0.133</text>
</g>
<!-- 1&#45;&gt;0 -->
<g id="edge16" class="edge">
<title>1&#45;&gt;0</title>
<path fill="none" stroke="black" d="M443.95,-110.18C372.06,-118.48 213.52,-139.27 83.7,-174 80.92,-174.74 78.08,-175.58 75.23,-176.49"/>
<polygon fill="black" stroke="black" points="74,-173.21 65.65,-179.73 76.24,-179.84 74,-173.21"/>
<text text-anchor="middle" x="234.7" y="-144.8" font-family="Times New Roman,serif" font-size="14.00">0.1</text>
</g>
<!-- 1&#45;&gt;1 -->
<g id="edge10" class="edge">
<title>1&#45;&gt;1</title>
<path fill="none" stroke="black" d="M519.13,-112.88C531.28,-112.88 540.99,-110.25 540.99,-105 540.99,-101.31 536.19,-98.91 529.12,-97.82"/>
<polygon fill="black" stroke="black" points="529.35,-94.33 519.13,-97.13 528.87,-101.31 529.35,-94.33"/>
<text text-anchor="middle" x="549.99" y="-101.3" font-family="Times New Roman,serif" font-size="14.00">0.4</text>
</g>
<!-- 4 -->
<g id="node5" class="node">
<title>4</title>
<g id="a_node5"><a xlink:href="broadcasting presenter.svg" xlink:title="broadcasting presenter">
<ellipse fill="none" stroke="black" cx="177.7" cy="-18" rx="92.88" ry="18"/>
<text text-anchor="middle" x="177.7" y="-14.3" font-family="Times New Roman,serif" font-size="14.00">broadcasting presenter</text>
</a>
</g>
</g>
<!-- 1&#45;&gt;4 -->
<g id="edge12" class="edge">
<title>1&#45;&gt;4</title>
<path fill="none" stroke="black" d="M442.32,-103.56C394.48,-101.8 313.14,-94.81 248.7,-69 232.62,-62.56 216.68,-51.84 203.99,-41.97"/>
<polygon fill="black" stroke="black" points="206.14,-39.2 196.15,-35.66 201.75,-44.66 206.14,-39.2"/>
<text text-anchor="middle" x="257.7" y="-57.8" font-family="Times New Roman,serif" font-size="14.00">0.1</text>
</g>
<!-- 9 -->
<g id="node10" class="node">
<title>9</title>
<g id="a_node10"><a xlink:href="solicitor.svg" xlink:title="solicitor">
<ellipse fill="none" stroke="black" cx="328.7" cy="-18" rx="40.09" ry="18"/>
<text text-anchor="middle" x="328.7" y="-14.3" font-family="Times New Roman,serif" font-size="14.00">solicitor</text>
</a>
</g>
</g>
<!-- 1&#45;&gt;9 -->
<g id="edge19" class="edge">
<title>1&#45;&gt;9</title>
<path fill="none" stroke="black" d="M444.81,-98.74C420.78,-93.98 389.94,-85.14 366.7,-69 357.43,-62.56 349.44,-53.16 343.22,-44.24"/>
<polygon fill="black" stroke="black" points="345.99,-42.08 337.6,-35.61 340.12,-45.9 345.99,-42.08"/>
<text text-anchor="middle" x="375.7" y="-57.8" font-family="Times New Roman,serif" font-size="14.00">0.1</text>
</g>
<!-- 10 -->
<g id="node11" class="node">
<title>10</title>
<g id="a_node11"><a xlink:href="auditor.svg" xlink:title="auditor">
<ellipse fill="none" stroke="black" cx="423.7" cy="-18" rx="36.29" ry="18"/>
<text text-anchor="middle" x="423.7" y="-14.3" font-family="Times New Roman,serif" font-size="14.00">auditor</text>
</a>
</g>
</g>
<!-- 1&#45;&gt;10 -->
<g id="edge11" class="edge">
<title>1&#45;&gt;10</title>
<path fill="none" stroke="black" d="M471.32,-87.61C462.67,-75.15 450.62,-57.79 440.81,-43.65"/>
<polygon fill="black" stroke="black" points="443.61,-41.56 435.04,-35.34 437.86,-45.55 443.61,-41.56"/>
<text text-anchor="middle" x="466.7" y="-57.8" font-family="Times New Roman,serif" font-size="14.00">0.1</text>
</g>
<!-- 11 -->
<g id="node12" class="node">
<title>11</title>
<g id="a_node12"><a xlink:href="careers adviser.svg" xlink:title="careers adviser">
<ellipse fill="none" stroke="black" cx="542.7" cy="-18" rx="64.99" ry="18"/>
<text text-anchor="middle" x="542.7" y="-14.3" font-family="Times New Roman,serif" font-size="14.00">careers adviser</text>
</a>
</g>
</g>
<!-- 1&#45;&gt;11 -->
<g id="edge13" class="edge">
<title>1&#45;&gt;11</title>
<path fill="none" stroke="black" d="M494.27,-87.61C502.95,-75.31 515,-58.23 524.91,-44.2"/>
<polygon fill="black" stroke="black" points="527.85,-46.11 530.75,-35.92 522.13,-42.07 527.85,-46.11"/>
<text text-anchor="middle" x="525.7" y="-57.8" font-family="Times New Roman,serif" font-size="14.00">0.1</text>
</g>
<!-- 12 -->
<g id="node13" class="node">
<title>12</title>
<g id="a_node13"><a xlink:href="health and safety adviser.svg" xlink:title="health and safety adviser">
<ellipse fill="none" stroke="black" cx="724.7" cy="-18" rx="99.38" ry="18"/>
<text text-anchor="middle" x="724.7" y="-14.3" font-family="Times New Roman,serif" font-size="14.00">health and safety adviser</text>
</a>
</g>
</g>
<!-- 1&#45;&gt;12 -->
<g id="edge14" class="edge">
<title>1&#45;&gt;12</title>
<path fill="none" stroke="black" d="M513.35,-93.23C553.09,-79.28 623.04,-54.71 671.53,-37.67"/>
<polygon fill="black" stroke="black" points="672.95,-40.88 681.23,-34.27 670.63,-34.28 672.95,-40.88"/>
<text text-anchor="middle" x="627.7" y="-57.8" font-family="Times New Roman,serif" font-size="14.00">0.1</text>
</g>
<!-- 13 -->
<g id="node14" class="node">
<title>13</title>
<g id="a_node14"><a xlink:href="lawyer.svg" xlink:title="lawyer">
<ellipse fill="none" stroke="black" cx="876.7" cy="-18" rx="34.39" ry="18"/>
<text text-anchor="middle" x="876.7" y="-14.3" font-family="Times New Roman,serif" font-size="14.00">lawyer</text>
</a>
</g>
</g>
<!-- 1&#45;&gt;13 -->
<g id="edge15" class="edge">
<title>1&#45;&gt;13</title>
<path fill="none" stroke="black" d="M520.77,-98.86C585.62,-89.6 721.31,-68.06 832.7,-36 835.34,-35.24 838.04,-34.39 840.74,-33.48"/>
<polygon fill="black" stroke="black" points="842.19,-36.68 850.43,-30.02 839.84,-30.09 842.19,-36.68"/>
<text text-anchor="middle" x="765.7" y="-57.8" font-family="Times New Roman,serif" font-size="14.00">0.1</text>
</g>
<!-- 14 -->
<g id="node15" class="node">
<title>14</title>
<g id="a_node15"><a xlink:href="legal executive.svg" xlink:title="legal executive">
<ellipse fill="none" stroke="black" cx="991.7" cy="-18" rx="63.09" ry="18"/>
<text text-anchor="middle" x="991.7" y="-14.3" font-family="Times New Roman,serif" font-size="14.00">legal executive</text>
</a>
</g>
</g>
<!-- 1&#45;&gt;14 -->
<g id="edge17" class="edge">
<title>1&#45;&gt;14</title>
<path fill="none" stroke="black" d="M522.16,-100.75C579.1,-95.75 687.47,-85.02 778.7,-69 842.09,-57.87 857.04,-50.73 919.7,-36 924.65,-34.84 929.79,-33.62 934.95,-32.41"/>
<polygon fill="black" stroke="black" points="935.91,-35.78 944.84,-30.08 934.3,-28.97 935.91,-35.78"/>
<text text-anchor="middle" x="855.7" y="-57.8" font-family="Times New Roman,serif" font-size="14.00">0.1</text>
</g>
<!-- 15 -->
<g id="node16" class="node">
<title>15</title>
<g id="a_node16"><a xlink:href="local government administrator.svg" xlink:title="local government administrator">
<ellipse fill="none" stroke="black" cx="1194.7" cy="-18" rx="122.38" ry="18"/>
<text text-anchor="middle" x="1194.7" y="-14.3" font-family="Times New Roman,serif" font-size="14.00">local government administrator</text>
</a>
</g>
</g>
<!-- 1&#45;&gt;15 -->
<g id="edge18" class="edge">
<title>1&#45;&gt;15</title>
<path fill="none" stroke="black" d="M522.23,-101.23C592.22,-96.13 742.46,-84.39 868.7,-69 950.2,-59.06 1042.67,-44.57 1108.26,-33.75"/>
<polygon fill="black" stroke="black" points="1108.85,-37.2 1118.14,-32.11 1107.71,-30.29 1108.85,-37.2"/>
<text text-anchor="middle" x="984.7" y="-57.8" font-family="Times New Roman,serif" font-size="14.00">0.1</text>
</g>
<!-- 2 -->
<g id="node3" class="node">
<title>2</title>
<g id="a_node3"><a xlink:href="pharmacovigilance officer.svg" xlink:title="pharmacovigilance officer">
<ellipse fill="none" stroke="black" cx="197.7" cy="-192" rx="104.78" ry="18"/>
<text text-anchor="middle" x="197.7" y="-188.3" font-family="Times New Roman,serif" font-size="14.00">pharmacovigilance officer</text>
</a>
</g>
</g>
<!-- 2&#45;&gt;1 -->
<g id="edge2" class="edge">
<title>2&#45;&gt;1</title>
<path fill="none" stroke="black" d="M247.67,-176.1C302.29,-159.8 388.88,-133.98 440.31,-118.64"/>
<polygon fill="black" stroke="black" points="441.53,-121.93 450.11,-115.72 439.53,-115.22 441.53,-121.93"/>
<text text-anchor="middle" x="373.2" y="-144.8" font-family="Times New Roman,serif" font-size="14.00">0.133</text>
</g>
<!-- 3 -->
<g id="node4" class="node">
<title>3</title>
<g id="a_node4"><a xlink:href="academic librarian.svg" xlink:title="academic librarian">
<ellipse fill="none" stroke="black" cx="396.7" cy="-192" rx="76.09" ry="18"/>
<text text-anchor="middle" x="396.7" y="-188.3" font-family="Times New Roman,serif" font-size="14.00">academic librarian</text>
</a>
</g>
</g>
<!-- 3&#45;&gt;1 -->
<g id="edge3" class="edge">
<title>3&#45;&gt;1</title>
<path fill="none" stroke="black" d="M413.69,-174.21C426.86,-161.19 445.25,-143.01 459.73,-128.7"/>
<polygon fill="black" stroke="black" points="462.25,-131.13 466.9,-121.61 457.33,-126.15 462.25,-131.13"/>
<text text-anchor="middle" x="461.2" y="-144.8" font-family="Times New Roman,serif" font-size="14.00">0.066</text>
</g>
<!-- 4&#45;&gt;1 -->
<g id="edge4" class="edge">
<title>4&#45;&gt;1</title>
<path fill="none" stroke="black" d="M216.18,-34.46C243.82,-45.16 282.16,-59.2 316.7,-69 356.37,-80.26 402.3,-89.67 435.78,-95.89"/>
<polygon fill="black" stroke="black" points="435.28,-99.36 445.75,-97.72 436.54,-92.47 435.28,-99.36"/>
<text text-anchor="middle" x="332.2" y="-57.8" font-family="Times New Roman,serif" font-size="14.00">0.066</text>
</g>
<!-- 5 -->
<g id="node6" class="node">
<title>5</title>
<g id="a_node6"><a xlink:href="corporate treasurer.svg" xlink:title="corporate treasurer">
<ellipse fill="none" stroke="black" cx="569.7" cy="-192" rx="79.09" ry="18"/>
<text text-anchor="middle" x="569.7" y="-188.3" font-family="Times New Roman,serif" font-size="14.00">corporate treasurer</text>
</a>
</g>
</g>
<!-- 5&#45;&gt;1 -->
<g id="edge5" class="edge">
<title>5&#45;&gt;1</title>
<path fill="none" stroke="black" d="M552.51,-174.21C539.18,-161.19 520.58,-143.01 505.93,-128.7"/>
<polygon fill="black" stroke="black" points="508.27,-126.1 498.68,-121.61 503.38,-131.1 508.27,-126.1"/>
<text text-anchor="middle" x="547.2" y="-144.8" font-family="Times New Roman,serif" font-size="14.00">0.066</text>
</g>
<!-- 6 -->
<g id="node7" class="node">
<title>6</title>
<g id="a_node7"><a xlink:href="education administrator.svg" xlink:title="education administrator">
<ellipse fill="none" stroke="black" cx="762.7" cy="-192" rx="95.58" ry="18"/>
<text text-anchor="middle" x="762.7" y="-188.3" font-family="Times New Roman,serif" font-size="14.00">education administrator</text>
</a>
</g>
</g>
<!-- 6&#45;&gt;1 -->
<g id="edge6" class="edge">
<title>6&#45;&gt;1</title>
<path fill="none" stroke="black" d="M714.56,-176.39C661.21,-160.19 575.97,-134.32 525.06,-118.86"/>
<polygon fill="black" stroke="black" points="525.94,-115.47 515.35,-115.91 523.9,-122.17 525.94,-115.47"/>
<text text-anchor="middle" x="655.2" y="-144.8" font-family="Times New Roman,serif" font-size="14.00">0.066</text>
</g>
<!-- 7 -->
<g id="node8" class="node">
<title>7</title>
<g id="a_node8"><a xlink:href="police officer.svg" xlink:title="police officer">
<ellipse fill="none" stroke="black" cx="935.7" cy="-192" rx="59.29" ry="18"/>
<text text-anchor="middle" x="935.7" y="-188.3" font-family="Times New Roman,serif" font-size="14.00">police officer</text>
</a>
</g>
</g>
<!-- 7&#45;&gt;1 -->
<g id="edge7" class="edge">
<title>7&#45;&gt;1</title>
<path fill="none" stroke="black" d="M892.27,-179.66C884.13,-177.67 875.67,-175.7 867.7,-174 747,-148.29 603.56,-124.8 530.55,-113.34"/>
<polygon fill="black" stroke="black" points="530.72,-109.83 520.3,-111.74 529.64,-116.75 530.72,-109.83"/>
<text text-anchor="middle" x="788.2" y="-144.8" font-family="Times New Roman,serif" font-size="14.00">0.066</text>
</g>
<!-- 8 -->
<g id="node9" class="node">
<title>8</title>
<g id="a_node9"><a xlink:href="psychologist.svg" xlink:title="psychologist">
<ellipse fill="none" stroke="black" cx="1069.7" cy="-192" rx="57.39" ry="18"/>
<text text-anchor="middle" x="1069.7" y="-188.3" font-family="Times New Roman,serif" font-size="14.00">psychologist</text>
</a>
</g>
</g>
<!-- 8&#45;&gt;1 -->
<g id="edge8" class="edge">
<title>8&#45;&gt;1</title>
<path fill="none" stroke="black" d="M1027.93,-179.67C1019.91,-177.66 1011.57,-175.67 1003.7,-174 832.55,-137.62 625.39,-117.58 532.26,-109.82"/>
<polygon fill="black" stroke="black" points="532.53,-106.33 522.27,-109 531.95,-113.31 532.53,-106.33"/>
<text text-anchor="middle" x="920.2" y="-144.8" font-family="Times New Roman,serif" font-size="14.00">0.066</text>
</g>
<!-- 9&#45;&gt;1 -->
<g id="edge9" class="edge">
<title>9&#45;&gt;1</title>
<path fill="none" stroke="black" d="M351.87,-32.91C369.08,-43.13 393.19,-57.22 414.7,-69 425.33,-74.82 437.02,-80.94 447.67,-86.4"/>
<polygon fill="black" stroke="black" points="446.2,-89.59 456.7,-91.01 449.38,-83.35 446.2,-89.59"/>
<text text-anchor="middle" x="430.2" y="-57.8" font-family="Times New Roman,serif" font-size="14.00">0.066</text>
</g>
</g>
</svg>
