<?xml version="1.0" encoding="UTF-8" standalone="no"?>
<!DOCTYPE svg PUBLIC "-//W3C//DTD SVG 1.1//EN"
 "http://www.w3.org/Graphics/SVG/1.1/DTD/svg11.dtd">
<!-- Generated by graphviz version 2.44.1 (20200629.0800)
 -->
<!-- Title: test Pages: 1 -->
<svg width="1204pt" height="218pt"
 viewBox="0.00 0.00 1203.79 218.00" xmlns="http://www.w3.org/2000/svg" xmlns:xlink="http://www.w3.org/1999/xlink">
<g id="graph0" class="graph" transform="scale(1 1) rotate(0) translate(4 214)">
<title>test</title>
<polygon fill="white" stroke="transparent" points="-4,4 -4,-214 1199.79,-214 1199.79,4 -4,4"/>
<!-- 0 -->
<g id="node1" class="node">
<title>0</title>
<g id="a_node1"><a xlink:href="lecturer.svg" xlink:title="lecturer">
<ellipse fill="none" stroke="black" cx="37.7" cy="-192" rx="37.89" ry="18"/>
<text text-anchor="middle" x="37.7" y="-188.3" font-family="Times New Roman,serif" font-size="14.00">lecturer</text>
</a>
</g>
</g>
<!-- 1 -->
<g id="node2" class="node">
<title>1</title>
<g id="a_node2"><a xlink:href="barrister.svg" xlink:title="barrister">
<ellipse fill="none" stroke="black" cx="438.7" cy="-105" rx="40.09" ry="18"/>
<text text-anchor="middle" x="438.7" y="-101.3" font-family="Times New Roman,serif" font-size="14.00">barrister</text>
</a>
</g>
</g>
<!-- 0&#45;&gt;1 -->
<g id="edge1" class="edge">
<title>0&#45;&gt;1</title>
<path fill="none" stroke="black" d="M39.58,-173.86C41.77,-162.67 46.49,-148.75 56.7,-141 82.54,-121.37 290.44,-111.35 388.22,-107.68"/>
<polygon fill="black" stroke="black" points="388.59,-111.16 398.45,-107.3 388.33,-104.17 388.59,-111.16"/>
<text text-anchor="middle" x="72.2" y="-144.8" font-family="Times New Roman,serif" font-size="14.00">0.142</text>
</g>
<!-- 1&#45;&gt;0 -->
<g id="edge16" class="edge">
<title>1&#45;&gt;0</title>
<path fill="none" stroke="black" d="M400.78,-111.24C335.48,-120.72 197.94,-142.67 84.7,-174 81.78,-174.81 78.79,-175.71 75.79,-176.67"/>
<polygon fill="black" stroke="black" points="74.66,-173.35 66.3,-179.86 76.9,-179.99 74.66,-173.35"/>
<text text-anchor="middle" x="235.2" y="-144.8" font-family="Times New Roman,serif" font-size="14.00">0.111</text>
</g>
<!-- 1&#45;&gt;1 -->
<g id="edge10" class="edge">
<title>1&#45;&gt;1</title>
<path fill="none" stroke="black" d="M475.13,-112.88C487.28,-112.88 496.99,-110.25 496.99,-105 496.99,-101.31 492.19,-98.91 485.12,-97.82"/>
<polygon fill="black" stroke="black" points="485.35,-94.33 475.13,-97.13 484.87,-101.31 485.35,-94.33"/>
<text text-anchor="middle" x="512.49" y="-101.3" font-family="Times New Roman,serif" font-size="14.00">0.444</text>
</g>
<!-- 3 -->
<g id="node4" class="node">
<title>3</title>
<g id="a_node4"><a xlink:href="broadcasting presenter.svg" xlink:title="broadcasting presenter">
<ellipse fill="none" stroke="black" cx="126.7" cy="-18" rx="92.88" ry="18"/>
<text text-anchor="middle" x="126.7" y="-14.3" font-family="Times New Roman,serif" font-size="14.00">broadcasting presenter</text>
</a>
</g>
</g>
<!-- 1&#45;&gt;3 -->
<g id="edge12" class="edge">
<title>1&#45;&gt;3</title>
<path fill="none" stroke="black" d="M398.98,-101.61C336.29,-97.33 217.63,-87.1 179.7,-69 167.39,-63.13 156.05,-53.33 147.04,-43.96"/>
<polygon fill="black" stroke="black" points="149.37,-41.32 140.06,-36.28 144.2,-46.04 149.37,-41.32"/>
<text text-anchor="middle" x="195.2" y="-57.8" font-family="Times New Roman,serif" font-size="14.00">0.111</text>
</g>
<!-- 9 -->
<g id="node10" class="node">
<title>9</title>
<g id="a_node10"><a xlink:href="solicitor.svg" xlink:title="solicitor">
<ellipse fill="none" stroke="black" cx="277.7" cy="-18" rx="40.09" ry="18"/>
<text text-anchor="middle" x="277.7" y="-14.3" font-family="Times New Roman,serif" font-size="14.00">solicitor</text>
</a>
</g>
</g>
<!-- 1&#45;&gt;9 -->
<g id="edge18" class="edge">
<title>1&#45;&gt;9</title>
<path fill="none" stroke="black" d="M399.01,-101.71C370.49,-98.25 332.51,-89.76 305.7,-69 297.84,-62.92 291.85,-53.97 287.47,-45.32"/>
<polygon fill="black" stroke="black" points="290.65,-43.86 283.33,-36.2 284.28,-46.75 290.65,-43.86"/>
<text text-anchor="middle" x="321.2" y="-57.8" font-family="Times New Roman,serif" font-size="14.00">0.111</text>
</g>
<!-- 10 -->
<g id="node11" class="node">
<title>10</title>
<g id="a_node11"><a xlink:href="auditor.svg" xlink:title="auditor">
<ellipse fill="none" stroke="black" cx="372.7" cy="-18" rx="36.29" ry="18"/>
<text text-anchor="middle" x="372.7" y="-14.3" font-family="Times New Roman,serif" font-size="14.00">auditor</text>
</a>
</g>
</g>
<!-- 1&#45;&gt;10 -->
<g id="edge11" class="edge">
<title>1&#45;&gt;10</title>
<path fill="none" stroke="black" d="M425.97,-87.61C416.14,-74.95 402.39,-57.24 391.32,-42.98"/>
<polygon fill="black" stroke="black" points="394.06,-40.8 385.16,-35.05 388.53,-45.1 394.06,-40.8"/>
<text text-anchor="middle" x="425.2" y="-57.8" font-family="Times New Roman,serif" font-size="14.00">0.111</text>
</g>
<!-- 11 -->
<g id="node12" class="node">
<title>11</title>
<g id="a_node12"><a xlink:href="careers adviser.svg" xlink:title="careers adviser">
<ellipse fill="none" stroke="black" cx="491.7" cy="-18" rx="64.99" ry="18"/>
<text text-anchor="middle" x="491.7" y="-14.3" font-family="Times New Roman,serif" font-size="14.00">careers adviser</text>
</a>
</g>
</g>
<!-- 1&#45;&gt;11 -->
<g id="edge13" class="edge">
<title>1&#45;&gt;11</title>
<path fill="none" stroke="black" d="M449.17,-87.21C456.74,-75.06 467.11,-58.43 475.71,-44.63"/>
<polygon fill="black" stroke="black" points="478.74,-46.39 481.07,-36.05 472.8,-42.68 478.74,-46.39"/>
<text text-anchor="middle" x="484.2" y="-57.8" font-family="Times New Roman,serif" font-size="14.00">0.111</text>
</g>
<!-- 12 -->
<g id="node13" class="node">
<title>12</title>
<g id="a_node13"><a xlink:href="health and safety adviser.svg" xlink:title="health and safety adviser">
<ellipse fill="none" stroke="black" cx="673.7" cy="-18" rx="99.38" ry="18"/>
<text text-anchor="middle" x="673.7" y="-14.3" font-family="Times New Roman,serif" font-size="14.00">health and safety adviser</text>
</a>
</g>
</g>
<!-- 1&#45;&gt;12 -->
<g id="edge14" class="edge">
<title>1&#45;&gt;12</title>
<path fill="none" stroke="black" d="M468.94,-93.06C507.48,-79.12 574.71,-54.8 621.58,-37.85"/>
<polygon fill="black" stroke="black" points="623.04,-41.05 631.25,-34.35 620.66,-34.46 623.04,-41.05"/>
<text text-anchor="middle" x="586.2" y="-57.8" font-family="Times New Roman,serif" font-size="14.00">0.111</text>
</g>
<!-- 13 -->
<g id="node14" class="node">
<title>13</title>
<g id="a_node14"><a xlink:href="lawyer.svg" xlink:title="lawyer">
<ellipse fill="none" stroke="black" cx="825.7" cy="-18" rx="34.39" ry="18"/>
<text text-anchor="middle" x="825.7" y="-14.3" font-family="Times New Roman,serif" font-size="14.00">lawyer</text>
</a>
</g>
</g>
<!-- 1&#45;&gt;13 -->
<g id="edge15" class="edge">
<title>1&#45;&gt;13</title>
<path fill="none" stroke="black" d="M476.51,-98.69C540.26,-89.27 672.81,-67.57 781.7,-36 784.33,-35.24 787.04,-34.38 789.74,-33.47"/>
<polygon fill="black" stroke="black" points="791.19,-36.67 799.43,-30 788.83,-30.08 791.19,-36.67"/>
<text text-anchor="middle" x="722.2" y="-57.8" font-family="Times New Roman,serif" font-size="14.00">0.111</text>
</g>
<!-- 14 -->
<g id="node15" class="node">
<title>14</title>
<g id="a_node15"><a xlink:href="legal executive.svg" xlink:title="legal executive">
<ellipse fill="none" stroke="black" cx="940.7" cy="-18" rx="63.09" ry="18"/>
<text text-anchor="middle" x="940.7" y="-14.3" font-family="Times New Roman,serif" font-size="14.00">legal executive</text>
</a>
</g>
</g>
<!-- 1&#45;&gt;14 -->
<g id="edge17" class="edge">
<title>1&#45;&gt;14</title>
<path fill="none" stroke="black" d="M478.16,-101.1C536.22,-96.47 647.93,-86.12 741.7,-69 792.09,-59.8 848.67,-45.16 888.58,-34.09"/>
<polygon fill="black" stroke="black" points="889.66,-37.42 898.35,-31.36 887.78,-30.68 889.66,-37.42"/>
<text text-anchor="middle" x="823.2" y="-57.8" font-family="Times New Roman,serif" font-size="14.00">0.111</text>
</g>
<!-- 15 -->
<g id="node16" class="node">
<title>15</title>
<g id="a_node16"><a xlink:href="welfare rights adviser.svg" xlink:title="welfare rights adviser">
<ellipse fill="none" stroke="black" cx="1108.7" cy="-18" rx="87.18" ry="18"/>
<text text-anchor="middle" x="1108.7" y="-14.3" font-family="Times New Roman,serif" font-size="14.00">welfare rights adviser</text>
</a>
</g>
</g>
<!-- 1&#45;&gt;15 -->
<g id="edge19" class="edge">
<title>1&#45;&gt;15</title>
<path fill="none" stroke="black" d="M478.41,-101.87C550.99,-97.69 709.82,-87.2 842.7,-69 910.6,-59.7 987.47,-44.77 1041.05,-33.64"/>
<polygon fill="black" stroke="black" points="1042.04,-37.01 1051.11,-31.54 1040.61,-30.16 1042.04,-37.01"/>
<text text-anchor="middle" x="946.2" y="-57.8" font-family="Times New Roman,serif" font-size="14.00">0.111</text>
</g>
<!-- 2 -->
<g id="node3" class="node">
<title>2</title>
<g id="a_node3"><a xlink:href="academic librarian.svg" xlink:title="academic librarian">
<ellipse fill="none" stroke="black" cx="169.7" cy="-192" rx="76.09" ry="18"/>
<text text-anchor="middle" x="169.7" y="-188.3" font-family="Times New Roman,serif" font-size="14.00">academic librarian</text>
</a>
</g>
</g>
<!-- 2&#45;&gt;1 -->
<g id="edge2" class="edge">
<title>2&#45;&gt;1</title>
<path fill="none" stroke="black" d="M213.51,-177.15C264.21,-161.13 347.09,-134.95 396.91,-119.2"/>
<polygon fill="black" stroke="black" points="398.23,-122.46 406.71,-116.11 396.12,-115.78 398.23,-122.46"/>
<text text-anchor="middle" x="336.2" y="-144.8" font-family="Times New Roman,serif" font-size="14.00">0.071</text>
</g>
<!-- 3&#45;&gt;1 -->
<g id="edge3" class="edge">
<title>3&#45;&gt;1</title>
<path fill="none" stroke="black" d="M162.84,-34.6C189.05,-45.44 225.58,-59.58 258.7,-69 302.92,-81.58 354.53,-91.1 391.12,-97.02"/>
<polygon fill="black" stroke="black" points="390.6,-100.48 401.03,-98.59 391.7,-93.56 390.6,-100.48"/>
<text text-anchor="middle" x="274.2" y="-57.8" font-family="Times New Roman,serif" font-size="14.00">0.071</text>
</g>
<!-- 4 -->
<g id="node5" class="node">
<title>4</title>
<g id="a_node5"><a xlink:href="corporate treasurer.svg" xlink:title="corporate treasurer">
<ellipse fill="none" stroke="black" cx="342.7" cy="-192" rx="79.09" ry="18"/>
<text text-anchor="middle" x="342.7" y="-188.3" font-family="Times New Roman,serif" font-size="14.00">corporate treasurer</text>
</a>
</g>
</g>
<!-- 4&#45;&gt;1 -->
<g id="edge4" class="edge">
<title>4&#45;&gt;1</title>
<path fill="none" stroke="black" d="M361.66,-174.21C376.6,-160.98 397.53,-142.45 413.81,-128.03"/>
<polygon fill="black" stroke="black" points="416.22,-130.58 421.38,-121.33 411.58,-125.34 416.22,-130.58"/>
<text text-anchor="middle" x="412.2" y="-144.8" font-family="Times New Roman,serif" font-size="14.00">0.071</text>
</g>
<!-- 5 -->
<g id="node6" class="node">
<title>5</title>
<g id="a_node6"><a xlink:href="education administrator.svg" xlink:title="education administrator">
<ellipse fill="none" stroke="black" cx="535.7" cy="-192" rx="95.58" ry="18"/>
<text text-anchor="middle" x="535.7" y="-188.3" font-family="Times New Roman,serif" font-size="14.00">education administrator</text>
</a>
</g>
</g>
<!-- 5&#45;&gt;1 -->
<g id="edge5" class="edge">
<title>5&#45;&gt;1</title>
<path fill="none" stroke="black" d="M516.53,-174.21C501.44,-160.98 480.29,-142.45 463.84,-128.03"/>
<polygon fill="black" stroke="black" points="466.02,-125.29 456.19,-121.33 461.4,-130.55 466.02,-125.29"/>
<text text-anchor="middle" x="509.2" y="-144.8" font-family="Times New Roman,serif" font-size="14.00">0.071</text>
</g>
<!-- 6 -->
<g id="node7" class="node">
<title>6</title>
<g id="a_node7"><a xlink:href="pharmacovigilance officer.svg" xlink:title="pharmacovigilance officer">
<ellipse fill="none" stroke="black" cx="753.7" cy="-192" rx="104.78" ry="18"/>
<text text-anchor="middle" x="753.7" y="-188.3" font-family="Times New Roman,serif" font-size="14.00">pharmacovigilance officer</text>
</a>
</g>
</g>
<!-- 6&#45;&gt;1 -->
<g id="edge6" class="edge">
<title>6&#45;&gt;1</title>
<path fill="none" stroke="black" d="M699.9,-176.48C638.41,-159.89 538.93,-133.05 482.13,-117.72"/>
<polygon fill="black" stroke="black" points="482.95,-114.32 472.38,-115.09 481.13,-121.07 482.95,-114.32"/>
<text text-anchor="middle" x="631.2" y="-144.8" font-family="Times New Roman,serif" font-size="14.00">0.071</text>
</g>
<!-- 7 -->
<g id="node8" class="node">
<title>7</title>
<g id="a_node8"><a xlink:href="police officer.svg" xlink:title="police officer">
<ellipse fill="none" stroke="black" cx="935.7" cy="-192" rx="59.29" ry="18"/>
<text text-anchor="middle" x="935.7" y="-188.3" font-family="Times New Roman,serif" font-size="14.00">police officer</text>
</a>
</g>
</g>
<!-- 7&#45;&gt;1 -->
<g id="edge7" class="edge">
<title>7&#45;&gt;1</title>
<path fill="none" stroke="black" d="M892.66,-179.64C884.4,-177.63 875.8,-175.65 867.7,-174 730.51,-146.04 566.66,-122.87 486.99,-112.25"/>
<polygon fill="black" stroke="black" points="487.15,-108.74 476.77,-110.89 486.23,-115.68 487.15,-108.74"/>
<text text-anchor="middle" x="777.2" y="-144.8" font-family="Times New Roman,serif" font-size="14.00">0.071</text>
</g>
<!-- 8 -->
<g id="node9" class="node">
<title>8</title>
<g id="a_node9"><a xlink:href="psychologist.svg" xlink:title="psychologist">
<ellipse fill="none" stroke="black" cx="1069.7" cy="-192" rx="57.39" ry="18"/>
<text text-anchor="middle" x="1069.7" y="-188.3" font-family="Times New Roman,serif" font-size="14.00">psychologist</text>
</a>
</g>
</g>
<!-- 8&#45;&gt;1 -->
<g id="edge8" class="edge">
<title>8&#45;&gt;1</title>
<path fill="none" stroke="black" d="M1027.94,-179.61C1019.92,-177.61 1011.57,-175.64 1003.7,-174 815.69,-134.89 587.46,-115.97 488.48,-109.13"/>
<polygon fill="black" stroke="black" points="488.67,-105.63 478.46,-108.44 488.2,-112.61 488.67,-105.63"/>
<text text-anchor="middle" x="911.2" y="-144.8" font-family="Times New Roman,serif" font-size="14.00">0.071</text>
</g>
<!-- 9&#45;&gt;1 -->
<g id="edge9" class="edge">
<title>9&#45;&gt;1</title>
<path fill="none" stroke="black" d="M301.59,-32.69C319.63,-42.93 345.05,-57.14 367.7,-69 379.11,-74.98 391.68,-81.27 403.04,-86.85"/>
<polygon fill="black" stroke="black" points="401.72,-90.1 412.24,-91.34 404.79,-83.81 401.72,-90.1"/>
<text text-anchor="middle" x="383.2" y="-57.8" font-family="Times New Roman,serif" font-size="14.00">0.071</text>
</g>
</g>
</svg>
