<?xml version="1.0" encoding="UTF-8" standalone="no"?>
<!DOCTYPE svg PUBLIC "-//W3C//DTD SVG 1.1//EN"
 "http://www.w3.org/Graphics/SVG/1.1/DTD/svg11.dtd">
<!-- Generated by graphviz version 2.44.1 (20200629.0800)
 -->
<!-- Title: barristers_clerk Pages: 1 -->
<svg width="1236pt" height="218pt"
 viewBox="0.00 0.00 1236.04 218.00" xmlns="http://www.w3.org/2000/svg" xmlns:xlink="http://www.w3.org/1999/xlink">
<g id="graph0" class="graph" transform="scale(1 1) rotate(0) translate(4 214)">
<title>barristers_clerk</title>
<polygon fill="white" stroke="transparent" points="-4,4 -4,-214 1232.04,-214 1232.04,4 -4,4"/>
<!-- 0 -->
<g id="node1" class="node">
<title>0</title>
<g id="a_node1"><a xlink:href="lawyer.svg" xlink:title="lawyer">
<ellipse fill="none" stroke="black" cx="246.64" cy="-192" rx="34.39" ry="18"/>
<text text-anchor="middle" x="246.64" y="-188.3" font-family="Times New Roman,serif" font-size="14.00">lawyer</text>
</a>
</g>
</g>
<!-- 1 -->
<g id="node2" class="node">
<title>1</title>
<g id="a_node2"><a xlink:href="barristers clerk.svg" xlink:title="barristers clerk">
<ellipse fill="none" stroke="black" cx="518.64" cy="-105" rx="64.19" ry="18"/>
<text text-anchor="middle" x="518.64" y="-101.3" font-family="Times New Roman,serif" font-size="14.00">barristers clerk</text>
</a>
</g>
</g>
<!-- 0&#45;&gt;1 -->
<g id="edge1" class="edge">
<title>0&#45;&gt;1</title>
<path fill="none" stroke="black" d="M243.85,-173.91C243.11,-163.04 244.28,-149.46 252.64,-141 278.66,-114.68 374.9,-107.55 444.14,-105.93"/>
<polygon fill="black" stroke="black" points="444.22,-109.43 454.15,-105.73 444.08,-102.43 444.22,-109.43"/>
<text text-anchor="middle" x="268.14" y="-144.8" font-family="Times New Roman,serif" font-size="14.00">0.065</text>
</g>
<!-- 1&#45;&gt;0 -->
<g id="edge10" class="edge">
<title>1&#45;&gt;0</title>
<path fill="none" stroke="black" d="M473.47,-118C426.97,-130.68 352.64,-151.87 289.64,-174 287.25,-174.84 284.81,-175.73 282.34,-176.64"/>
<polygon fill="black" stroke="black" points="280.99,-173.41 272.9,-180.25 283.49,-179.95 280.99,-173.41"/>
<text text-anchor="middle" x="405.14" y="-144.8" font-family="Times New Roman,serif" font-size="14.00">0.198</text>
</g>
<!-- 1&#45;&gt;1 -->
<g id="edge11" class="edge">
<title>1&#45;&gt;1</title>
<path fill="none" stroke="black" d="M577.11,-112.72C590.85,-112.08 600.99,-109.51 600.99,-105 600.99,-101.69 595.52,-99.42 587.17,-98.2"/>
<polygon fill="black" stroke="black" points="587.39,-94.7 577.11,-97.28 586.75,-101.67 587.39,-94.7"/>
<text text-anchor="middle" x="616.49" y="-101.3" font-family="Times New Roman,serif" font-size="14.00">0.175</text>
</g>
<!-- 2 -->
<g id="node3" class="node">
<title>2</title>
<g id="a_node3"><a xlink:href="pharmacovigilance officer.svg" xlink:title="pharmacovigilance officer">
<ellipse fill="none" stroke="black" cx="104.64" cy="-18" rx="104.78" ry="18"/>
<text text-anchor="middle" x="104.64" y="-14.3" font-family="Times New Roman,serif" font-size="14.00">pharmacovigilance officer</text>
</a>
</g>
</g>
<!-- 1&#45;&gt;2 -->
<g id="edge14" class="edge">
<title>1&#45;&gt;2</title>
<path fill="none" stroke="black" d="M454.36,-104.06C388.7,-102.49 284.5,-95.45 198.64,-69 177.43,-62.46 155.44,-51.06 138.06,-40.79"/>
<polygon fill="black" stroke="black" points="139.79,-37.75 129.43,-35.56 136.16,-43.73 139.79,-37.75"/>
<text text-anchor="middle" x="214.14" y="-57.8" font-family="Times New Roman,serif" font-size="14.00">0.053</text>
</g>
<!-- 3 -->
<g id="node4" class="node">
<title>3</title>
<g id="a_node4"><a xlink:href="teaching assistant.svg" xlink:title="teaching assistant">
<ellipse fill="none" stroke="black" cx="300.64" cy="-18" rx="73.39" ry="18"/>
<text text-anchor="middle" x="300.64" y="-14.3" font-family="Times New Roman,serif" font-size="14.00">teaching assistant</text>
</a>
</g>
</g>
<!-- 1&#45;&gt;3 -->
<g id="edge18" class="edge">
<title>1&#45;&gt;3</title>
<path fill="none" stroke="black" d="M457.06,-99.5C424.23,-95.07 384.03,-86.32 351.64,-69 339.85,-62.7 328.95,-52.83 320.27,-43.53"/>
<polygon fill="black" stroke="black" points="322.79,-41.1 313.54,-35.93 317.55,-45.74 322.79,-41.1"/>
<text text-anchor="middle" x="367.14" y="-57.8" font-family="Times New Roman,serif" font-size="14.00">0.022</text>
</g>
<!-- 5 -->
<g id="node6" class="node">
<title>5</title>
<g id="a_node6"><a xlink:href="research scientist.svg" xlink:title="research scientist">
<ellipse fill="none" stroke="black" cx="464.64" cy="-18" rx="72.59" ry="18"/>
<text text-anchor="middle" x="464.64" y="-14.3" font-family="Times New Roman,serif" font-size="14.00">research scientist</text>
</a>
</g>
</g>
<!-- 1&#45;&gt;5 -->
<g id="edge16" class="edge">
<title>1&#45;&gt;5</title>
<path fill="none" stroke="black" d="M483.36,-89.91C474.74,-84.68 466.57,-77.82 461.64,-69 457.85,-62.22 457.07,-54.08 457.66,-46.35"/>
<polygon fill="black" stroke="black" points="461.15,-46.65 459.16,-36.24 454.23,-45.62 461.15,-46.65"/>
<text text-anchor="middle" x="477.14" y="-57.8" font-family="Times New Roman,serif" font-size="14.00">0.030</text>
</g>
<!-- 10 -->
<g id="node11" class="node">
<title>10</title>
<g id="a_node11"><a xlink:href="solicitor.svg" xlink:title="solicitor">
<ellipse fill="none" stroke="black" cx="595.64" cy="-18" rx="40.09" ry="18"/>
<text text-anchor="middle" x="595.64" y="-14.3" font-family="Times New Roman,serif" font-size="14.00">solicitor</text>
</a>
</g>
</g>
<!-- 1&#45;&gt;10 -->
<g id="edge12" class="edge">
<title>1&#45;&gt;10</title>
<path fill="none" stroke="black" d="M533.85,-87.21C545.47,-74.39 561.6,-56.57 574.48,-42.36"/>
<polygon fill="black" stroke="black" points="577.12,-44.66 581.24,-34.9 571.93,-39.96 577.12,-44.66"/>
<text text-anchor="middle" x="578.14" y="-57.8" font-family="Times New Roman,serif" font-size="14.00">0.106</text>
</g>
<!-- 11 -->
<g id="node12" class="node">
<title>11</title>
<g id="a_node12"><a xlink:href="lecturer.svg" xlink:title="lecturer">
<ellipse fill="none" stroke="black" cx="691.64" cy="-18" rx="37.89" ry="18"/>
<text text-anchor="middle" x="691.64" y="-14.3" font-family="Times New Roman,serif" font-size="14.00">lecturer</text>
</a>
</g>
</g>
<!-- 1&#45;&gt;11 -->
<g id="edge13" class="edge">
<title>1&#45;&gt;11</title>
<path fill="none" stroke="black" d="M552.72,-89.54C566.74,-83.43 583.07,-76.09 597.64,-69 618.3,-58.94 641.07,-46.86 659.02,-37.09"/>
<polygon fill="black" stroke="black" points="660.84,-40.09 667.93,-32.22 657.48,-33.95 660.84,-40.09"/>
<text text-anchor="middle" x="642.14" y="-57.8" font-family="Times New Roman,serif" font-size="14.00">0.061</text>
</g>
<!-- 12 -->
<g id="node13" class="node">
<title>12</title>
<g id="a_node13"><a xlink:href="welfare rights adviser.svg" xlink:title="welfare rights adviser">
<ellipse fill="none" stroke="black" cx="834.64" cy="-18" rx="87.18" ry="18"/>
<text text-anchor="middle" x="834.64" y="-14.3" font-family="Times New Roman,serif" font-size="14.00">welfare rights adviser</text>
</a>
</g>
</g>
<!-- 1&#45;&gt;12 -->
<g id="edge15" class="edge">
<title>1&#45;&gt;12</title>
<path fill="none" stroke="black" d="M566.43,-92.82C594.28,-86.18 630.03,-77.43 661.64,-69 700.54,-58.62 744.09,-46.03 777.76,-36.08"/>
<polygon fill="black" stroke="black" points="778.83,-39.41 787.43,-33.22 776.84,-32.7 778.83,-39.41"/>
<text text-anchor="middle" x="729.14" y="-57.8" font-family="Times New Roman,serif" font-size="14.00">0.038</text>
</g>
<!-- 13 -->
<g id="node14" class="node">
<title>13</title>
<g id="a_node14"><a xlink:href="human resources officer.svg" xlink:title="human resources officer">
<ellipse fill="none" stroke="black" cx="1038.64" cy="-18" rx="98.58" ry="18"/>
<text text-anchor="middle" x="1038.64" y="-14.3" font-family="Times New Roman,serif" font-size="14.00">human resources officer</text>
</a>
</g>
</g>
<!-- 1&#45;&gt;13 -->
<g id="edge17" class="edge">
<title>1&#45;&gt;13</title>
<path fill="none" stroke="black" d="M574.46,-95.82C621.07,-88.92 689.24,-78.64 748.64,-69 820.63,-57.32 902.5,-43.12 960.85,-32.84"/>
<polygon fill="black" stroke="black" points="961.49,-36.28 970.73,-31.1 960.28,-29.39 961.49,-36.28"/>
<text text-anchor="middle" x="851.14" y="-57.8" font-family="Times New Roman,serif" font-size="14.00">0.022</text>
</g>
<!-- 14 -->
<g id="node15" class="node">
<title>14</title>
<g id="a_node15"><a xlink:href="curator.svg" xlink:title="curator">
<ellipse fill="none" stroke="black" cx="1191.64" cy="-18" rx="36.29" ry="18"/>
<text text-anchor="middle" x="1191.64" y="-14.3" font-family="Times New Roman,serif" font-size="14.00">curator</text>
</a>
</g>
</g>
<!-- 1&#45;&gt;14 -->
<g id="edge19" class="edge">
<title>1&#45;&gt;14</title>
<path fill="none" stroke="black" d="M582.44,-102.64C697.01,-98.97 944.52,-85.48 1146.64,-36 1149.45,-35.31 1152.33,-34.5 1155.2,-33.6"/>
<polygon fill="black" stroke="black" points="1156.5,-36.86 1164.85,-30.33 1154.25,-30.23 1156.5,-36.86"/>
<text text-anchor="middle" x="1078.14" y="-57.8" font-family="Times New Roman,serif" font-size="14.00">0.015</text>
</g>
<!-- 2&#45;&gt;1 -->
<g id="edge2" class="edge">
<title>2&#45;&gt;1</title>
<path fill="none" stroke="black" d="M155.66,-33.75C194.16,-44.52 248.42,-58.95 296.64,-69 348.2,-79.75 407.11,-88.9 451.28,-95.14"/>
<polygon fill="black" stroke="black" points="450.94,-98.62 461.33,-96.54 451.91,-91.69 450.94,-98.62"/>
<text text-anchor="middle" x="312.14" y="-57.8" font-family="Times New Roman,serif" font-size="14.00">0.040</text>
</g>
<!-- 3&#45;&gt;1 -->
<g id="edge3" class="edge">
<title>3&#45;&gt;1</title>
<path fill="none" stroke="black" d="M336.31,-33.86C360.79,-43.98 394.09,-57.55 423.64,-69 438.97,-74.94 455.77,-81.21 470.93,-86.77"/>
<polygon fill="black" stroke="black" points="470.03,-90.17 480.63,-90.32 472.44,-83.6 470.03,-90.17"/>
<text text-anchor="middle" x="439.14" y="-57.8" font-family="Times New Roman,serif" font-size="14.00">0.040</text>
</g>
<!-- 4 -->
<g id="node5" class="node">
<title>4</title>
<g id="a_node5"><a xlink:href="legal executive.svg" xlink:title="legal executive">
<ellipse fill="none" stroke="black" cx="361.64" cy="-192" rx="63.09" ry="18"/>
<text text-anchor="middle" x="361.64" y="-188.3" font-family="Times New Roman,serif" font-size="14.00">legal executive</text>
</a>
</g>
</g>
<!-- 4&#45;&gt;1 -->
<g id="edge4" class="edge">
<title>4&#45;&gt;1</title>
<path fill="none" stroke="black" d="M389.71,-175.8C415.3,-161.95 453.3,-141.37 481.43,-126.15"/>
<polygon fill="black" stroke="black" points="483.42,-129.05 490.55,-121.21 480.09,-122.89 483.42,-129.05"/>
<text text-anchor="middle" x="465.14" y="-144.8" font-family="Times New Roman,serif" font-size="14.00">0.032</text>
</g>
<!-- 5&#45;&gt;1 -->
<g id="edge5" class="edge">
<title>5&#45;&gt;1</title>
<path fill="none" stroke="black" d="M481.79,-35.52C486.98,-41.07 492.42,-47.52 496.64,-54 501.3,-61.15 505.4,-69.45 508.76,-77.21"/>
<polygon fill="black" stroke="black" points="505.59,-78.69 512.61,-86.63 512.07,-76.05 505.59,-78.69"/>
<text text-anchor="middle" x="521.14" y="-57.8" font-family="Times New Roman,serif" font-size="14.00">0.032</text>
</g>
<!-- 6 -->
<g id="node7" class="node">
<title>6</title>
<g id="a_node7"><a xlink:href="academic librarian.svg" xlink:title="academic librarian">
<ellipse fill="none" stroke="black" cx="518.64" cy="-192" rx="76.09" ry="18"/>
<text text-anchor="middle" x="518.64" y="-188.3" font-family="Times New Roman,serif" font-size="14.00">academic librarian</text>
</a>
</g>
</g>
<!-- 6&#45;&gt;1 -->
<g id="edge6" class="edge">
<title>6&#45;&gt;1</title>
<path fill="none" stroke="black" d="M518.64,-173.8C518.64,-162.16 518.64,-146.55 518.64,-133.24"/>
<polygon fill="black" stroke="black" points="522.14,-133.18 518.64,-123.18 515.14,-133.18 522.14,-133.18"/>
<text text-anchor="middle" x="534.14" y="-144.8" font-family="Times New Roman,serif" font-size="14.00">0.024</text>
</g>
<!-- 7 -->
<g id="node8" class="node">
<title>7</title>
<g id="a_node8"><a xlink:href="building surveyor.svg" xlink:title="building surveyor">
<ellipse fill="none" stroke="black" cx="685.64" cy="-192" rx="73.39" ry="18"/>
<text text-anchor="middle" x="685.64" y="-188.3" font-family="Times New Roman,serif" font-size="14.00">building surveyor</text>
</a>
</g>
</g>
<!-- 7&#45;&gt;1 -->
<g id="edge7" class="edge">
<title>7&#45;&gt;1</title>
<path fill="none" stroke="black" d="M655.01,-175.41C627.57,-161.44 587.18,-140.88 557.47,-125.77"/>
<polygon fill="black" stroke="black" points="558.74,-122.48 548.24,-121.06 555.56,-128.72 558.74,-122.48"/>
<text text-anchor="middle" x="628.14" y="-144.8" font-family="Times New Roman,serif" font-size="14.00">0.024</text>
</g>
<!-- 8 -->
<g id="node9" class="node">
<title>8</title>
<g id="a_node9"><a xlink:href="personal assistant.svg" xlink:title="personal assistant">
<ellipse fill="none" stroke="black" cx="851.64" cy="-192" rx="74.99" ry="18"/>
<text text-anchor="middle" x="851.64" y="-188.3" font-family="Times New Roman,serif" font-size="14.00">personal assistant</text>
</a>
</g>
</g>
<!-- 8&#45;&gt;1 -->
<g id="edge8" class="edge">
<title>8&#45;&gt;1</title>
<path fill="none" stroke="black" d="M802.15,-178.37C741.18,-162.8 637.89,-136.44 574.25,-120.19"/>
<polygon fill="black" stroke="black" points="574.94,-116.76 564.39,-117.68 573.21,-123.54 574.94,-116.76"/>
<text text-anchor="middle" x="720.14" y="-144.8" font-family="Times New Roman,serif" font-size="14.00">0.024</text>
</g>
<!-- 9 -->
<g id="node10" class="node">
<title>9</title>
<g id="a_node10"><a xlink:href="retail merchandiser.svg" xlink:title="retail merchandiser">
<ellipse fill="none" stroke="black" cx="1022.64" cy="-192" rx="78.79" ry="18"/>
<text text-anchor="middle" x="1022.64" y="-188.3" font-family="Times New Roman,serif" font-size="14.00">retail merchandiser</text>
</a>
</g>
</g>
<!-- 9&#45;&gt;1 -->
<g id="edge9" class="edge">
<title>9&#45;&gt;1</title>
<path fill="none" stroke="black" d="M965.12,-179.54C955.29,-177.65 945.18,-175.73 935.64,-174 811.46,-151.42 665.82,-128.47 583.67,-115.85"/>
<polygon fill="black" stroke="black" points="584.14,-112.38 573.73,-114.33 583.08,-119.3 584.14,-112.38"/>
<text text-anchor="middle" x="848.14" y="-144.8" font-family="Times New Roman,serif" font-size="14.00">0.024</text>
</g>
</g>
</svg>
