<?xml version="1.0" encoding="UTF-8" standalone="no"?>
<!DOCTYPE svg PUBLIC "-//W3C//DTD SVG 1.1//EN"
 "http://www.w3.org/Graphics/SVG/1.1/DTD/svg11.dtd">
<!-- Generated by graphviz version 2.44.1 (20200629.0800)
 -->
<!-- Title: test Pages: 1 -->
<svg width="1475pt" height="218pt"
 viewBox="0.00 0.00 1474.69 218.00" xmlns="http://www.w3.org/2000/svg" xmlns:xlink="http://www.w3.org/1999/xlink">
<g id="graph0" class="graph" transform="scale(1 1) rotate(0) translate(4 214)">
<title>test</title>
<polygon fill="white" stroke="transparent" points="-4,4 -4,-214 1470.69,-214 1470.69,4 -4,4"/>
<!-- 0 -->
<g id="node1" class="node">
<title>0</title>
<g id="a_node1"><a xlink:href="lecturer.svg" xlink:title="lecturer">
<ellipse fill="none" stroke="black" cx="169.34" cy="-192" rx="37.89" ry="18"/>
<text text-anchor="middle" x="169.34" y="-188.3" font-family="Times New Roman,serif" font-size="14.00">lecturer</text>
</a>
</g>
</g>
<!-- 1 -->
<g id="node2" class="node">
<title>1</title>
<g id="a_node2"><a xlink:href="biomedical scientist.svg" xlink:title="biomedical scientist">
<ellipse fill="none" stroke="black" cx="552.34" cy="-105" rx="81.79" ry="18"/>
<text text-anchor="middle" x="552.34" y="-101.3" font-family="Times New Roman,serif" font-size="14.00">biomedical scientist</text>
</a>
</g>
</g>
<!-- 0&#45;&gt;1 -->
<g id="edge1" class="edge">
<title>0&#45;&gt;1</title>
<path fill="none" stroke="black" d="M171.95,-173.83C174.6,-162.63 179.88,-148.7 190.34,-141 211.82,-125.19 362.61,-115 462.68,-109.9"/>
<polygon fill="black" stroke="black" points="462.99,-113.39 472.81,-109.4 462.64,-106.4 462.99,-113.39"/>
<text text-anchor="middle" x="205.84" y="-144.8" font-family="Times New Roman,serif" font-size="14.00">0.081</text>
</g>
<!-- 1&#45;&gt;0 -->
<g id="edge13" class="edge">
<title>1&#45;&gt;0</title>
<path fill="none" stroke="black" d="M487.88,-116.11C419.74,-127.48 309.45,-147.83 216.34,-174 213.43,-174.82 210.44,-175.73 207.44,-176.69"/>
<polygon fill="black" stroke="black" points="206.31,-173.38 197.96,-179.9 208.55,-180.01 206.31,-173.38"/>
<text text-anchor="middle" x="369.84" y="-144.8" font-family="Times New Roman,serif" font-size="14.00">0.057</text>
</g>
<!-- 1&#45;&gt;1 -->
<g id="edge10" class="edge">
<title>1&#45;&gt;1</title>
<path fill="none" stroke="black" d="M626.84,-112.55C641.66,-111.7 652.24,-109.18 652.24,-105 652.24,-101.86 646.29,-99.66 637.06,-98.4"/>
<polygon fill="black" stroke="black" points="637.12,-94.89 626.84,-97.45 636.47,-101.86 637.12,-94.89"/>
<text text-anchor="middle" x="667.74" y="-101.3" font-family="Times New Roman,serif" font-size="14.00">0.114</text>
</g>
<!-- 4 -->
<g id="node5" class="node">
<title>4</title>
<g id="a_node5"><a xlink:href="clinical biochemist.svg" xlink:title="clinical biochemist">
<ellipse fill="none" stroke="black" cx="77.34" cy="-18" rx="77.19" ry="18"/>
<text text-anchor="middle" x="77.34" y="-14.3" font-family="Times New Roman,serif" font-size="14.00">clinical biochemist</text>
</a>
</g>
</g>
<!-- 1&#45;&gt;4 -->
<g id="edge18" class="edge">
<title>1&#45;&gt;4</title>
<path fill="none" stroke="black" d="M472.83,-100.46C377.88,-95.57 225.03,-85.46 170.34,-69 148.97,-62.57 126.88,-50.94 109.6,-40.52"/>
<polygon fill="black" stroke="black" points="111.38,-37.5 101.03,-35.21 107.69,-43.45 111.38,-37.5"/>
<text text-anchor="middle" x="185.84" y="-57.8" font-family="Times New Roman,serif" font-size="14.00">0.028</text>
</g>
<!-- 9 -->
<g id="node10" class="node">
<title>9</title>
<g id="a_node10"><a xlink:href="careers adviser.svg" xlink:title="careers adviser">
<ellipse fill="none" stroke="black" cx="237.34" cy="-18" rx="64.99" ry="18"/>
<text text-anchor="middle" x="237.34" y="-14.3" font-family="Times New Roman,serif" font-size="14.00">careers adviser</text>
</a>
</g>
</g>
<!-- 1&#45;&gt;9 -->
<g id="edge17" class="edge">
<title>1&#45;&gt;9</title>
<path fill="none" stroke="black" d="M478.88,-97C437.76,-91.81 385.95,-83.11 341.34,-69 317.76,-61.54 292.74,-49.65 273.15,-39.34"/>
<polygon fill="black" stroke="black" points="274.74,-36.22 264.28,-34.58 271.44,-42.39 274.74,-36.22"/>
<text text-anchor="middle" x="356.84" y="-57.8" font-family="Times New Roman,serif" font-size="14.00">0.028</text>
</g>
<!-- 10 -->
<g id="node11" class="node">
<title>10</title>
<g id="a_node11"><a xlink:href="government research officer.svg" xlink:title="government research officer">
<ellipse fill="none" stroke="black" cx="432.34" cy="-18" rx="112.38" ry="18"/>
<text text-anchor="middle" x="432.34" y="-14.3" font-family="Times New Roman,serif" font-size="14.00">government research officer</text>
</a>
</g>
</g>
<!-- 1&#45;&gt;10 -->
<g id="edge11" class="edge">
<title>1&#45;&gt;10</title>
<path fill="none" stroke="black" d="M529.21,-87.61C510.73,-74.53 484.65,-56.05 464.2,-41.56"/>
<polygon fill="black" stroke="black" points="466,-38.55 455.82,-35.63 461.96,-44.26 466,-38.55"/>
<text text-anchor="middle" x="515.84" y="-57.8" font-family="Times New Roman,serif" font-size="14.00">0.085</text>
</g>
<!-- 11 -->
<g id="node12" class="node">
<title>11</title>
<g id="a_node12"><a xlink:href="environmental health officer.svg" xlink:title="environmental health officer">
<ellipse fill="none" stroke="black" cx="673.34" cy="-18" rx="110.48" ry="18"/>
<text text-anchor="middle" x="673.34" y="-14.3" font-family="Times New Roman,serif" font-size="14.00">environmental health officer</text>
</a>
</g>
</g>
<!-- 1&#45;&gt;11 -->
<g id="edge12" class="edge">
<title>1&#45;&gt;11</title>
<path fill="none" stroke="black" d="M575.67,-87.61C594.3,-74.53 620.6,-56.05 641.22,-41.56"/>
<polygon fill="black" stroke="black" points="643.5,-44.24 649.67,-35.63 639.48,-38.51 643.5,-44.24"/>
<text text-anchor="middle" x="635.84" y="-57.8" font-family="Times New Roman,serif" font-size="14.00">0.057</text>
</g>
<!-- 12 -->
<g id="node13" class="node">
<title>12</title>
<g id="a_node13"><a xlink:href="office manager.svg" xlink:title="office manager">
<ellipse fill="none" stroke="black" cx="866.34" cy="-18" rx="64.19" ry="18"/>
<text text-anchor="middle" x="866.34" y="-14.3" font-family="Times New Roman,serif" font-size="14.00">office manager</text>
</a>
</g>
</g>
<!-- 1&#45;&gt;12 -->
<g id="edge14" class="edge">
<title>1&#45;&gt;12</title>
<path fill="none" stroke="black" d="M601.75,-90.63C658.89,-75.16 752.67,-49.77 811.88,-33.74"/>
<polygon fill="black" stroke="black" points="813.06,-37.05 821.79,-31.06 811.23,-30.29 813.06,-37.05"/>
<text text-anchor="middle" x="743.84" y="-57.8" font-family="Times New Roman,serif" font-size="14.00">0.057</text>
</g>
<!-- 13 -->
<g id="node14" class="node">
<title>13</title>
<g id="a_node14"><a xlink:href="structural engineer.svg" xlink:title="structural engineer">
<ellipse fill="none" stroke="black" cx="1025.34" cy="-18" rx="76.89" ry="18"/>
<text text-anchor="middle" x="1025.34" y="-14.3" font-family="Times New Roman,serif" font-size="14.00">structural engineer</text>
</a>
</g>
</g>
<!-- 1&#45;&gt;13 -->
<g id="edge15" class="edge">
<title>1&#45;&gt;13</title>
<path fill="none" stroke="black" d="M616.58,-93.7C658.42,-86.91 714.16,-77.69 763.34,-69 841.71,-55.15 861.19,-51.05 939.34,-36 945.62,-34.79 952.15,-33.52 958.69,-32.24"/>
<polygon fill="black" stroke="black" points="959.78,-35.6 968.92,-30.24 958.43,-28.73 959.78,-35.6"/>
<text text-anchor="middle" x="860.84" y="-57.8" font-family="Times New Roman,serif" font-size="14.00">0.057</text>
</g>
<!-- 14 -->
<g id="node15" class="node">
<title>14</title>
<g id="a_node15"><a xlink:href="analytical chemist.svg" xlink:title="analytical chemist">
<ellipse fill="none" stroke="black" cx="1194.34" cy="-18" rx="74.19" ry="18"/>
<text text-anchor="middle" x="1194.34" y="-14.3" font-family="Times New Roman,serif" font-size="14.00">analytical chemist</text>
</a>
</g>
</g>
<!-- 1&#45;&gt;14 -->
<g id="edge16" class="edge">
<title>1&#45;&gt;14</title>
<path fill="none" stroke="black" d="M626.84,-97.37C734.32,-87.26 938.93,-65.94 1111.34,-36 1117.52,-34.93 1123.95,-33.74 1130.37,-32.5"/>
<polygon fill="black" stroke="black" points="1131.27,-35.89 1140.41,-30.54 1129.92,-29.03 1131.27,-35.89"/>
<text text-anchor="middle" x="1004.84" y="-57.8" font-family="Times New Roman,serif" font-size="14.00">0.028</text>
</g>
<!-- 15 -->
<g id="node16" class="node">
<title>15</title>
<g id="a_node16"><a xlink:href="clinical microbiologist.svg" xlink:title="clinical microbiologist">
<ellipse fill="none" stroke="black" cx="1376.34" cy="-18" rx="90.18" ry="18"/>
<text text-anchor="middle" x="1376.34" y="-14.3" font-family="Times New Roman,serif" font-size="14.00">clinical microbiologist</text>
</a>
</g>
</g>
<!-- 1&#45;&gt;15 -->
<g id="edge19" class="edge">
<title>1&#45;&gt;15</title>
<path fill="none" stroke="black" d="M630.55,-99.54C724.27,-93.88 885.99,-83.14 1024.34,-69 1137.15,-57.47 1165.22,-52.93 1277.34,-36 1285.19,-34.82 1293.37,-33.51 1301.53,-32.18"/>
<polygon fill="black" stroke="black" points="1302.14,-35.62 1311.43,-30.53 1301,-28.72 1302.14,-35.62"/>
<text text-anchor="middle" x="1165.84" y="-57.8" font-family="Times New Roman,serif" font-size="14.00">0.028</text>
</g>
<!-- 2 -->
<g id="node3" class="node">
<title>2</title>
<g id="a_node3"><a xlink:href="materials specialist.svg" xlink:title="materials specialist">
<ellipse fill="none" stroke="black" cx="303.34" cy="-192" rx="77.99" ry="18"/>
<text text-anchor="middle" x="303.34" y="-188.3" font-family="Times New Roman,serif" font-size="14.00">materials specialist</text>
</a>
</g>
</g>
<!-- 2&#45;&gt;1 -->
<g id="edge2" class="edge">
<title>2&#45;&gt;1</title>
<path fill="none" stroke="black" d="M345.02,-176.77C387.67,-162.21 454.06,-139.55 500.18,-123.81"/>
<polygon fill="black" stroke="black" points="501.36,-127.1 509.7,-120.56 499.1,-120.48 501.36,-127.1"/>
<text text-anchor="middle" x="458.84" y="-144.8" font-family="Times New Roman,serif" font-size="14.00">0.081</text>
</g>
<!-- 3 -->
<g id="node4" class="node">
<title>3</title>
<g id="a_node4"><a xlink:href="research scientist.svg" xlink:title="research scientist">
<ellipse fill="none" stroke="black" cx="472.34" cy="-192" rx="72.59" ry="18"/>
<text text-anchor="middle" x="472.34" y="-188.3" font-family="Times New Roman,serif" font-size="14.00">research scientist</text>
</a>
</g>
</g>
<!-- 3&#45;&gt;1 -->
<g id="edge3" class="edge">
<title>3&#45;&gt;1</title>
<path fill="none" stroke="black" d="M488.15,-174.21C499.98,-161.63 516.34,-144.25 529.58,-130.18"/>
<polygon fill="black" stroke="black" points="532.27,-132.44 536.57,-122.76 527.17,-127.64 532.27,-132.44"/>
<text text-anchor="middle" x="532.84" y="-144.8" font-family="Times New Roman,serif" font-size="14.00">0.081</text>
</g>
<!-- 4&#45;&gt;1 -->
<g id="edge4" class="edge">
<title>4&#45;&gt;1</title>
<path fill="none" stroke="black" d="M122.49,-32.64C160.95,-43.82 217.85,-59.32 268.34,-69 334.85,-81.74 411.06,-90.84 467.77,-96.56"/>
<polygon fill="black" stroke="black" points="467.47,-100.05 477.77,-97.55 468.17,-93.08 467.47,-100.05"/>
<text text-anchor="middle" x="283.84" y="-57.8" font-family="Times New Roman,serif" font-size="14.00">0.054</text>
</g>
<!-- 5 -->
<g id="node6" class="node">
<title>5</title>
<g id="a_node6"><a xlink:href="project manager.svg" xlink:title="project manager">
<ellipse fill="none" stroke="black" cx="632.34" cy="-192" rx="68.79" ry="18"/>
<text text-anchor="middle" x="632.34" y="-188.3" font-family="Times New Roman,serif" font-size="14.00">project manager</text>
</a>
</g>
</g>
<!-- 5&#45;&gt;1 -->
<g id="edge5" class="edge">
<title>5&#45;&gt;1</title>
<path fill="none" stroke="black" d="M616.54,-174.21C604.7,-161.63 588.34,-144.25 575.1,-130.18"/>
<polygon fill="black" stroke="black" points="577.52,-127.64 568.12,-122.76 572.42,-132.44 577.52,-127.64"/>
<text text-anchor="middle" x="612.84" y="-144.8" font-family="Times New Roman,serif" font-size="14.00">0.054</text>
</g>
<!-- 6 -->
<g id="node7" class="node">
<title>6</title>
<g id="a_node7"><a xlink:href="quality assurance manager.svg" xlink:title="quality assurance manager">
<ellipse fill="none" stroke="black" cx="824.34" cy="-192" rx="105.08" ry="18"/>
<text text-anchor="middle" x="824.34" y="-188.3" font-family="Times New Roman,serif" font-size="14.00">quality assurance manager</text>
</a>
</g>
</g>
<!-- 6&#45;&gt;1 -->
<g id="edge6" class="edge">
<title>6&#45;&gt;1</title>
<path fill="none" stroke="black" d="M776.03,-175.9C728.66,-161.1 656.54,-138.56 607.07,-123.1"/>
<polygon fill="black" stroke="black" points="608.09,-119.75 597.5,-120.11 606,-126.43 608.09,-119.75"/>
<text text-anchor="middle" x="720.84" y="-144.8" font-family="Times New Roman,serif" font-size="14.00">0.054</text>
</g>
<!-- 7 -->
<g id="node8" class="node">
<title>7</title>
<g id="a_node8"><a xlink:href="teaching assistant.svg" xlink:title="teaching assistant">
<ellipse fill="none" stroke="black" cx="1021.34" cy="-192" rx="73.39" ry="18"/>
<text text-anchor="middle" x="1021.34" y="-188.3" font-family="Times New Roman,serif" font-size="14.00">teaching assistant</text>
</a>
</g>
</g>
<!-- 7&#45;&gt;1 -->
<g id="edge7" class="edge">
<title>7&#45;&gt;1</title>
<path fill="none" stroke="black" d="M967.36,-179.72C957.71,-177.77 947.74,-175.79 938.34,-174 829.59,-153.29 703.16,-131.44 625.45,-118.26"/>
<polygon fill="black" stroke="black" points="625.73,-114.76 615.29,-116.54 624.56,-121.66 625.73,-114.76"/>
<text text-anchor="middle" x="847.84" y="-144.8" font-family="Times New Roman,serif" font-size="14.00">0.054</text>
</g>
<!-- 8 -->
<g id="node9" class="node">
<title>8</title>
<g id="a_node9"><a xlink:href="academic librarian.svg" xlink:title="academic librarian">
<ellipse fill="none" stroke="black" cx="1188.34" cy="-192" rx="76.09" ry="18"/>
<text text-anchor="middle" x="1188.34" y="-188.3" font-family="Times New Roman,serif" font-size="14.00">academic librarian</text>
</a>
</g>
</g>
<!-- 8&#45;&gt;1 -->
<g id="edge8" class="edge">
<title>8&#45;&gt;1</title>
<path fill="none" stroke="black" d="M1133.11,-179.47C1123.21,-177.54 1112.99,-175.64 1103.34,-174 938.79,-146.06 744.74,-124.81 636.39,-113.98"/>
<polygon fill="black" stroke="black" points="636.48,-110.47 626.18,-112.96 635.79,-117.43 636.48,-110.47"/>
<text text-anchor="middle" x="997.84" y="-144.8" font-family="Times New Roman,serif" font-size="14.00">0.027</text>
</g>
<!-- 9&#45;&gt;1 -->
<g id="edge9" class="edge">
<title>9&#45;&gt;1</title>
<path fill="none" stroke="black" d="M282.29,-31.13C337.58,-46.05 431.63,-71.43 492.87,-87.95"/>
<polygon fill="black" stroke="black" points="492.21,-91.4 502.78,-90.63 494.04,-84.64 492.21,-91.4"/>
<text text-anchor="middle" x="429.84" y="-57.8" font-family="Times New Roman,serif" font-size="14.00">0.027</text>
</g>
</g>
</svg>
