<?xml version="1.0" encoding="UTF-8" standalone="no"?>
<!DOCTYPE svg PUBLIC "-//W3C//DTD SVG 1.1//EN"
 "http://www.w3.org/Graphics/SVG/1.1/DTD/svg11.dtd">
<!-- Generated by graphviz version 2.44.1 (20200629.0800)
 -->
<!-- Title: test Pages: 1 -->
<svg width="1325pt" height="218pt"
 viewBox="0.00 0.00 1324.68 218.00" xmlns="http://www.w3.org/2000/svg" xmlns:xlink="http://www.w3.org/1999/xlink">
<g id="graph0" class="graph" transform="scale(1 1) rotate(0) translate(4 214)">
<title>test</title>
<polygon fill="white" stroke="transparent" points="-4,4 -4,-214 1320.68,-214 1320.68,4 -4,4"/>
<!-- 0 -->
<g id="node1" class="node">
<title>0</title>
<g id="a_node1"><a xlink:href="it consultant.svg" xlink:title="it consultant">
<ellipse fill="none" stroke="black" cx="477.64" cy="-192" rx="54.69" ry="18"/>
<text text-anchor="middle" x="477.64" y="-188.3" font-family="Times New Roman,serif" font-size="14.00">it consultant</text>
</a>
</g>
</g>
<!-- 1 -->
<g id="node2" class="node">
<title>1</title>
<g id="a_node2"><a xlink:href="careers adviser.svg" xlink:title="careers adviser">
<ellipse fill="none" stroke="black" cx="614.64" cy="-105" rx="64.99" ry="18"/>
<text text-anchor="middle" x="614.64" y="-101.3" font-family="Times New Roman,serif" font-size="14.00">careers adviser</text>
</a>
</g>
</g>
<!-- 0&#45;&gt;1 -->
<g id="edge1" class="edge">
<title>0&#45;&gt;1</title>
<path fill="none" stroke="black" d="M481.62,-173.98C484.98,-163.13 490.86,-149.56 500.64,-141 513.86,-129.43 530.84,-121.69 547.64,-116.5"/>
<polygon fill="black" stroke="black" points="548.79,-119.81 557.47,-113.74 546.9,-113.08 548.79,-119.81"/>
<text text-anchor="middle" x="516.14" y="-144.8" font-family="Times New Roman,serif" font-size="14.00">0.068</text>
</g>
<!-- 1&#45;&gt;0 -->
<g id="edge11" class="edge">
<title>1&#45;&gt;0</title>
<path fill="none" stroke="black" d="M589.43,-121.64C567.27,-135.39 534.87,-155.49 510.65,-170.52"/>
<polygon fill="black" stroke="black" points="508.79,-167.56 502.13,-175.8 512.48,-173.51 508.79,-167.56"/>
<text text-anchor="middle" x="570.14" y="-144.8" font-family="Times New Roman,serif" font-size="14.00">0.096</text>
</g>
<!-- 1&#45;&gt;1 -->
<g id="edge10" class="edge">
<title>1&#45;&gt;1</title>
<path fill="none" stroke="black" d="M673.57,-112.72C687.42,-112.08 697.63,-109.51 697.63,-105 697.63,-101.69 692.13,-99.42 683.71,-98.2"/>
<polygon fill="black" stroke="black" points="683.85,-94.69 673.57,-97.28 683.22,-101.67 683.85,-94.69"/>
<text text-anchor="middle" x="713.13" y="-101.3" font-family="Times New Roman,serif" font-size="14.00">0.211</text>
</g>
<!-- 2 -->
<g id="node3" class="node">
<title>2</title>
<g id="a_node3"><a xlink:href="pharmacovigilance officer.svg" xlink:title="pharmacovigilance officer">
<ellipse fill="none" stroke="black" cx="104.64" cy="-18" rx="104.78" ry="18"/>
<text text-anchor="middle" x="104.64" y="-14.3" font-family="Times New Roman,serif" font-size="14.00">pharmacovigilance officer</text>
</a>
</g>
</g>
<!-- 1&#45;&gt;2 -->
<g id="edge12" class="edge">
<title>1&#45;&gt;2</title>
<path fill="none" stroke="black" d="M549.65,-104.1C471.6,-102.87 337.26,-96.41 225.64,-69 197.99,-62.21 168.44,-50.1 145.46,-39.49"/>
<polygon fill="black" stroke="black" points="146.89,-36.3 136.36,-35.22 143.92,-42.64 146.89,-36.3"/>
<text text-anchor="middle" x="241.14" y="-57.8" font-family="Times New Roman,serif" font-size="14.00">0.073</text>
</g>
<!-- 3 -->
<g id="node4" class="node">
<title>3</title>
<g id="a_node4"><a xlink:href="human resources officer.svg" xlink:title="human resources officer">
<ellipse fill="none" stroke="black" cx="325.64" cy="-18" rx="98.58" ry="18"/>
<text text-anchor="middle" x="325.64" y="-14.3" font-family="Times New Roman,serif" font-size="14.00">human resources officer</text>
</a>
</g>
</g>
<!-- 1&#45;&gt;3 -->
<g id="edge13" class="edge">
<title>1&#45;&gt;3</title>
<path fill="none" stroke="black" d="M550.77,-101C506.71,-97.19 447.49,-88.54 398.64,-69 382.38,-62.49 366.12,-51.86 353.09,-42.07"/>
<polygon fill="black" stroke="black" points="355.07,-39.18 345.02,-35.81 350.78,-44.71 355.07,-39.18"/>
<text text-anchor="middle" x="414.14" y="-57.8" font-family="Times New Roman,serif" font-size="14.00">0.058</text>
</g>
<!-- 4 -->
<g id="node5" class="node">
<title>4</title>
<g id="a_node5"><a xlink:href="project manager.svg" xlink:title="project manager">
<ellipse fill="none" stroke="black" cx="511.64" cy="-18" rx="68.79" ry="18"/>
<text text-anchor="middle" x="511.64" y="-14.3" font-family="Times New Roman,serif" font-size="14.00">project manager</text>
</a>
</g>
</g>
<!-- 1&#45;&gt;4 -->
<g id="edge14" class="edge">
<title>1&#45;&gt;4</title>
<path fill="none" stroke="black" d="M562.39,-93.97C547.68,-88.77 532.91,-80.9 522.64,-69 517.17,-62.66 514.24,-54.21 512.71,-46.07"/>
<polygon fill="black" stroke="black" points="516.18,-45.58 511.45,-36.1 509.23,-46.46 516.18,-45.58"/>
<text text-anchor="middle" x="538.14" y="-57.8" font-family="Times New Roman,serif" font-size="14.00">0.058</text>
</g>
<!-- 5 -->
<g id="node6" class="node">
<title>5</title>
<g id="a_node6"><a xlink:href="sales manager.svg" xlink:title="sales manager">
<ellipse fill="none" stroke="black" cx="659.64" cy="-18" rx="61.19" ry="18"/>
<text text-anchor="middle" x="659.64" y="-14.3" font-family="Times New Roman,serif" font-size="14.00">sales manager</text>
</a>
</g>
</g>
<!-- 1&#45;&gt;5 -->
<g id="edge15" class="edge">
<title>1&#45;&gt;5</title>
<path fill="none" stroke="black" d="M609.45,-86.91C607.37,-76.81 606.52,-64.08 611.64,-54 614.24,-48.89 617.98,-44.34 622.23,-40.36"/>
<polygon fill="black" stroke="black" points="624.76,-42.82 630.32,-33.8 620.35,-37.38 624.76,-42.82"/>
<text text-anchor="middle" x="627.14" y="-57.8" font-family="Times New Roman,serif" font-size="14.00">0.023</text>
</g>
<!-- 7 -->
<g id="node8" class="node">
<title>7</title>
<g id="a_node8"><a xlink:href="lecturer.svg" xlink:title="lecturer">
<ellipse fill="none" stroke="black" cx="776.64" cy="-18" rx="37.89" ry="18"/>
<text text-anchor="middle" x="776.64" y="-14.3" font-family="Times New Roman,serif" font-size="14.00">lecturer</text>
</a>
</g>
</g>
<!-- 1&#45;&gt;7 -->
<g id="edge18" class="edge">
<title>1&#45;&gt;7</title>
<path fill="none" stroke="black" d="M646.95,-89.36C660.01,-83.28 675.15,-76.01 688.64,-69 707.59,-59.16 728.37,-47.39 744.98,-37.75"/>
<polygon fill="black" stroke="black" points="746.87,-40.7 753.74,-32.64 743.34,-34.66 746.87,-40.7"/>
<text text-anchor="middle" x="730.14" y="-57.8" font-family="Times New Roman,serif" font-size="14.00">0.020</text>
</g>
<!-- 10 -->
<g id="node11" class="node">
<title>10</title>
<g id="a_node11"><a xlink:href="heritage manager.svg" xlink:title="heritage manager">
<ellipse fill="none" stroke="black" cx="903.64" cy="-18" rx="71.49" ry="18"/>
<text text-anchor="middle" x="903.64" y="-14.3" font-family="Times New Roman,serif" font-size="14.00">heritage manager</text>
</a>
</g>
</g>
<!-- 1&#45;&gt;10 -->
<g id="edge16" class="edge">
<title>1&#45;&gt;10</title>
<path fill="none" stroke="black" d="M673.12,-96.93C710.02,-91.49 758.34,-82.58 799.64,-69 822.97,-61.33 847.81,-49.54 867.35,-39.34"/>
<polygon fill="black" stroke="black" points="869.03,-42.41 876.22,-34.63 865.74,-36.23 869.03,-42.41"/>
<text text-anchor="middle" x="850.14" y="-57.8" font-family="Times New Roman,serif" font-size="14.00">0.020</text>
</g>
<!-- 11 -->
<g id="node12" class="node">
<title>11</title>
<g id="a_node12"><a xlink:href="investment analyst.svg" xlink:title="investment analyst">
<ellipse fill="none" stroke="black" cx="1069.64" cy="-18" rx="76.89" ry="18"/>
<text text-anchor="middle" x="1069.64" y="-14.3" font-family="Times New Roman,serif" font-size="14.00">investment analyst</text>
</a>
</g>
</g>
<!-- 1&#45;&gt;11 -->
<g id="edge17" class="edge">
<title>1&#45;&gt;11</title>
<path fill="none" stroke="black" d="M674.19,-97.68C726.07,-91.73 803.17,-81.83 869.64,-69 918.4,-59.59 973.05,-45.69 1012.89,-34.94"/>
<polygon fill="black" stroke="black" points="1013.95,-38.27 1022.68,-32.27 1012.12,-31.52 1013.95,-38.27"/>
<text text-anchor="middle" x="951.14" y="-57.8" font-family="Times New Roman,serif" font-size="14.00">0.020</text>
</g>
<!-- 12 -->
<g id="node13" class="node">
<title>12</title>
<g id="a_node13"><a xlink:href="academic librarian.svg" xlink:title="academic librarian">
<ellipse fill="none" stroke="black" cx="1240.64" cy="-18" rx="76.09" ry="18"/>
<text text-anchor="middle" x="1240.64" y="-14.3" font-family="Times New Roman,serif" font-size="14.00">academic librarian</text>
</a>
</g>
</g>
<!-- 1&#45;&gt;12 -->
<g id="edge19" class="edge">
<title>1&#45;&gt;12</title>
<path fill="none" stroke="black" d="M676.55,-99.4C747.71,-93.76 867.9,-83.19 970.64,-69 1053.38,-57.57 1073.58,-51.52 1155.64,-36 1161.85,-34.83 1168.31,-33.58 1174.77,-32.31"/>
<polygon fill="black" stroke="black" points="1175.76,-35.69 1184.89,-30.32 1174.4,-28.82 1175.76,-35.69"/>
<text text-anchor="middle" x="1078.14" y="-57.8" font-family="Times New Roman,serif" font-size="14.00">0.017</text>
</g>
<!-- 2&#45;&gt;1 -->
<g id="edge2" class="edge">
<title>2&#45;&gt;1</title>
<path fill="none" stroke="black" d="M163.01,-33.05C209.76,-43.95 277.14,-58.86 336.64,-69 407.07,-81 488.18,-90.75 544.54,-96.88"/>
<polygon fill="black" stroke="black" points="544.45,-100.39 554.77,-97.99 545.2,-93.43 544.45,-100.39"/>
<text text-anchor="middle" x="352.14" y="-57.8" font-family="Times New Roman,serif" font-size="14.00">0.063</text>
</g>
<!-- 3&#45;&gt;1 -->
<g id="edge3" class="edge">
<title>3&#45;&gt;1</title>
<path fill="none" stroke="black" d="M370.2,-34.11C401.07,-44.4 443.18,-58.08 480.64,-69 505.79,-76.33 533.8,-83.76 557.68,-89.88"/>
<polygon fill="black" stroke="black" points="557.09,-93.34 567.64,-92.42 558.81,-86.56 557.09,-93.34"/>
<text text-anchor="middle" x="496.14" y="-57.8" font-family="Times New Roman,serif" font-size="14.00">0.042</text>
</g>
<!-- 4&#45;&gt;1 -->
<g id="edge4" class="edge">
<title>4&#45;&gt;1</title>
<path fill="none" stroke="black" d="M531.44,-35.34C547.1,-48.26 569.15,-66.46 586.62,-80.88"/>
<polygon fill="black" stroke="black" points="584.84,-83.95 594.78,-87.61 589.3,-78.55 584.84,-83.95"/>
<text text-anchor="middle" x="585.14" y="-57.8" font-family="Times New Roman,serif" font-size="14.00">0.032</text>
</g>
<!-- 5&#45;&gt;1 -->
<g id="edge5" class="edge">
<title>5&#45;&gt;1</title>
<path fill="none" stroke="black" d="M657.25,-36.43C655.37,-46.41 652.12,-58.91 646.64,-69 644.61,-72.74 642.09,-76.4 639.36,-79.86"/>
<polygon fill="black" stroke="black" points="636.65,-77.65 632.76,-87.51 641.95,-82.23 636.65,-77.65"/>
<text text-anchor="middle" x="669.14" y="-57.8" font-family="Times New Roman,serif" font-size="14.00">0.025</text>
</g>
<!-- 6 -->
<g id="node7" class="node">
<title>6</title>
<g id="a_node7"><a xlink:href="office manager.svg" xlink:title="office manager">
<ellipse fill="none" stroke="black" cx="614.64" cy="-192" rx="64.19" ry="18"/>
<text text-anchor="middle" x="614.64" y="-188.3" font-family="Times New Roman,serif" font-size="14.00">office manager</text>
</a>
</g>
</g>
<!-- 6&#45;&gt;1 -->
<g id="edge6" class="edge">
<title>6&#45;&gt;1</title>
<path fill="none" stroke="black" d="M614.64,-173.8C614.64,-162.16 614.64,-146.55 614.64,-133.24"/>
<polygon fill="black" stroke="black" points="618.14,-133.18 614.64,-123.18 611.14,-133.18 618.14,-133.18"/>
<text text-anchor="middle" x="630.14" y="-144.8" font-family="Times New Roman,serif" font-size="14.00">0.023</text>
</g>
<!-- 7&#45;&gt;1 -->
<g id="edge7" class="edge">
<title>7&#45;&gt;1</title>
<path fill="none" stroke="black" d="M773.17,-36.18C770.09,-47.09 764.5,-60.68 754.64,-69 735.96,-84.76 711.18,-93.59 687.67,-98.48"/>
<polygon fill="black" stroke="black" points="686.88,-95.07 677.69,-100.35 688.16,-101.95 686.88,-95.07"/>
<text text-anchor="middle" x="780.14" y="-57.8" font-family="Times New Roman,serif" font-size="14.00">0.018</text>
</g>
<!-- 8 -->
<g id="node9" class="node">
<title>8</title>
<g id="a_node9"><a xlink:href="personal assistant.svg" xlink:title="personal assistant">
<ellipse fill="none" stroke="black" cx="771.64" cy="-192" rx="74.99" ry="18"/>
<text text-anchor="middle" x="771.64" y="-188.3" font-family="Times New Roman,serif" font-size="14.00">personal assistant</text>
</a>
</g>
</g>
<!-- 8&#45;&gt;1 -->
<g id="edge8" class="edge">
<title>8&#45;&gt;1</title>
<path fill="none" stroke="black" d="M742.48,-175.21C716.9,-161.37 679.58,-141.16 651.86,-126.15"/>
<polygon fill="black" stroke="black" points="653.31,-122.96 642.85,-121.27 649.98,-129.11 653.31,-122.96"/>
<text text-anchor="middle" x="717.14" y="-144.8" font-family="Times New Roman,serif" font-size="14.00">0.018</text>
</g>
<!-- 9 -->
<g id="node10" class="node">
<title>9</title>
<g id="a_node10"><a xlink:href="qa analyst.svg" xlink:title="qa analyst">
<ellipse fill="none" stroke="black" cx="911.64" cy="-192" rx="46.59" ry="18"/>
<text text-anchor="middle" x="911.64" y="-188.3" font-family="Times New Roman,serif" font-size="14.00">qa analyst</text>
</a>
</g>
</g>
<!-- 9&#45;&gt;1 -->
<g id="edge9" class="edge">
<title>9&#45;&gt;1</title>
<path fill="none" stroke="black" d="M876.12,-180.1C869.33,-178.05 862.27,-175.94 855.64,-174 791.63,-155.25 717.78,-134.55 668.87,-120.97"/>
<polygon fill="black" stroke="black" points="669.71,-117.57 659.13,-118.27 667.83,-124.32 669.71,-117.57"/>
<text text-anchor="middle" x="804.14" y="-144.8" font-family="Times New Roman,serif" font-size="14.00">0.018</text>
</g>
</g>
</svg>
