<?xml version="1.0" encoding="UTF-8" standalone="no"?>
<!DOCTYPE svg PUBLIC "-//W3C//DTD SVG 1.1//EN"
 "http://www.w3.org/Graphics/SVG/1.1/DTD/svg11.dtd">
<!-- Generated by graphviz version 2.44.1 (20200629.0800)
 -->
<!-- Title: test Pages: 1 -->
<svg width="1339pt" height="218pt"
 viewBox="0.00 0.00 1338.84 218.00" xmlns="http://www.w3.org/2000/svg" xmlns:xlink="http://www.w3.org/1999/xlink">
<g id="graph0" class="graph" transform="scale(1 1) rotate(0) translate(4 214)">
<title>test</title>
<polygon fill="white" stroke="transparent" points="-4,4 -4,-214 1334.84,-214 1334.84,4 -4,4"/>
<!-- 0 -->
<g id="node1" class="node">
<title>0</title>
<g id="a_node1"><a xlink:href="sales manager.svg" xlink:title="sales manager">
<ellipse fill="none" stroke="black" cx="499.34" cy="-192" rx="61.19" ry="18"/>
<text text-anchor="middle" x="499.34" y="-188.3" font-family="Times New Roman,serif" font-size="14.00">sales manager</text>
</a>
</g>
</g>
<!-- 1 -->
<g id="node2" class="node">
<title>1</title>
<g id="a_node2"><a xlink:href="catering manager.svg" xlink:title="catering manager">
<ellipse fill="none" stroke="black" cx="608.34" cy="-105" rx="71.49" ry="18"/>
<text text-anchor="middle" x="608.34" y="-101.3" font-family="Times New Roman,serif" font-size="14.00">catering manager</text>
</a>
</g>
</g>
<!-- 0&#45;&gt;1 -->
<g id="edge1" class="edge">
<title>0&#45;&gt;1</title>
<path fill="none" stroke="black" d="M504.49,-173.8C508.43,-163.16 514.84,-149.87 524.34,-141 532.39,-133.49 542.28,-127.47 552.41,-122.7"/>
<polygon fill="black" stroke="black" points="553.96,-125.84 561.74,-118.65 551.17,-119.42 553.96,-125.84"/>
<text text-anchor="middle" x="539.84" y="-144.8" font-family="Times New Roman,serif" font-size="14.00">0.081</text>
</g>
<!-- 1&#45;&gt;0 -->
<g id="edge12" class="edge">
<title>1&#45;&gt;0</title>
<path fill="none" stroke="black" d="M592.39,-122.65C582.24,-132.82 568.56,-145.8 555.34,-156 548.96,-160.93 541.86,-165.79 534.92,-170.25"/>
<polygon fill="black" stroke="black" points="532.9,-167.38 526.28,-175.65 536.61,-173.32 532.9,-167.38"/>
<text text-anchor="middle" x="587.84" y="-144.8" font-family="Times New Roman,serif" font-size="14.00">0.078</text>
</g>
<!-- 1&#45;&gt;1 -->
<g id="edge10" class="edge">
<title>1&#45;&gt;1</title>
<path fill="none" stroke="black" d="M673.1,-112.66C687.42,-111.94 697.84,-109.39 697.84,-105 697.84,-101.74 692.1,-99.5 683.29,-98.26"/>
<polygon fill="black" stroke="black" points="683.38,-94.75 673.1,-97.34 682.75,-101.73 683.38,-94.75"/>
<text text-anchor="middle" x="713.34" y="-101.3" font-family="Times New Roman,serif" font-size="14.00">0.136</text>
</g>
<!-- 2 -->
<g id="node3" class="node">
<title>2</title>
<g id="a_node3"><a xlink:href="office manager.svg" xlink:title="office manager">
<ellipse fill="none" stroke="black" cx="64.34" cy="-18" rx="64.19" ry="18"/>
<text text-anchor="middle" x="64.34" y="-14.3" font-family="Times New Roman,serif" font-size="14.00">office manager</text>
</a>
</g>
</g>
<!-- 1&#45;&gt;2 -->
<g id="edge15" class="edge">
<title>1&#45;&gt;2</title>
<path fill="none" stroke="black" d="M538.17,-101.37C432.94,-96.92 239.46,-86.63 172.34,-69 147.04,-62.35 120.35,-50.05 99.83,-39.31"/>
<polygon fill="black" stroke="black" points="101.34,-36.15 90.87,-34.52 98.03,-42.32 101.34,-36.15"/>
<text text-anchor="middle" x="187.84" y="-57.8" font-family="Times New Roman,serif" font-size="14.00">0.047</text>
</g>
<!-- 3 -->
<g id="node4" class="node">
<title>3</title>
<g id="a_node4"><a xlink:href="pharmacovigilance officer.svg" xlink:title="pharmacovigilance officer">
<ellipse fill="none" stroke="black" cx="251.34" cy="-18" rx="104.78" ry="18"/>
<text text-anchor="middle" x="251.34" y="-14.3" font-family="Times New Roman,serif" font-size="14.00">pharmacovigilance officer</text>
</a>
</g>
</g>
<!-- 1&#45;&gt;3 -->
<g id="edge11" class="edge">
<title>1&#45;&gt;3</title>
<path fill="none" stroke="black" d="M538.22,-101.18C484.84,-97.47 410.11,-88.88 347.34,-69 325.99,-62.24 303.7,-50.93 285.98,-40.78"/>
<polygon fill="black" stroke="black" points="287.56,-37.64 277.17,-35.6 284.02,-43.68 287.56,-37.64"/>
<text text-anchor="middle" x="362.84" y="-57.8" font-family="Times New Roman,serif" font-size="14.00">0.092</text>
</g>
<!-- 4 -->
<g id="node5" class="node">
<title>4</title>
<g id="a_node5"><a xlink:href="production manager.svg" xlink:title="production manager">
<ellipse fill="none" stroke="black" cx="457.34" cy="-18" rx="83.39" ry="18"/>
<text text-anchor="middle" x="457.34" y="-14.3" font-family="Times New Roman,serif" font-size="14.00">production manager</text>
</a>
</g>
</g>
<!-- 1&#45;&gt;4 -->
<g id="edge13" class="edge">
<title>1&#45;&gt;4</title>
<path fill="none" stroke="black" d="M546.69,-95.87C525.91,-90.77 503.63,-82.48 486.34,-69 478.44,-62.84 472.29,-53.87 467.73,-45.23"/>
<polygon fill="black" stroke="black" points="470.85,-43.65 463.39,-36.13 464.53,-46.66 470.85,-43.65"/>
<text text-anchor="middle" x="501.84" y="-57.8" font-family="Times New Roman,serif" font-size="14.00">0.058</text>
</g>
<!-- 5 -->
<g id="node6" class="node">
<title>5</title>
<g id="a_node6"><a xlink:href="project manager.svg" xlink:title="project manager">
<ellipse fill="none" stroke="black" cx="627.34" cy="-18" rx="68.79" ry="18"/>
<text text-anchor="middle" x="627.34" y="-14.3" font-family="Times New Roman,serif" font-size="14.00">project manager</text>
</a>
</g>
</g>
<!-- 1&#45;&gt;5 -->
<g id="edge14" class="edge">
<title>1&#45;&gt;5</title>
<path fill="none" stroke="black" d="M591.22,-87.44C583.34,-77.75 576.84,-65.25 582.34,-54 584.62,-49.34 587.85,-45.12 591.55,-41.36"/>
<polygon fill="black" stroke="black" points="593.93,-43.93 599.11,-34.69 589.3,-38.68 593.93,-43.93"/>
<text text-anchor="middle" x="597.84" y="-57.8" font-family="Times New Roman,serif" font-size="14.00">0.051</text>
</g>
<!-- 7 -->
<g id="node8" class="node">
<title>7</title>
<g id="a_node8"><a xlink:href="marketing executive.svg" xlink:title="marketing executive">
<ellipse fill="none" stroke="black" cx="796.34" cy="-18" rx="81.79" ry="18"/>
<text text-anchor="middle" x="796.34" y="-14.3" font-family="Times New Roman,serif" font-size="14.00">marketing executive</text>
</a>
</g>
</g>
<!-- 1&#45;&gt;7 -->
<g id="edge18" class="edge">
<title>1&#45;&gt;7</title>
<path fill="none" stroke="black" d="M633.82,-88.13C651.3,-77.64 675.23,-64.03 697.34,-54 711.51,-47.58 727.23,-41.55 741.89,-36.36"/>
<polygon fill="black" stroke="black" points="743.05,-39.67 751.35,-33.08 740.75,-33.05 743.05,-39.67"/>
<text text-anchor="middle" x="712.84" y="-57.8" font-family="Times New Roman,serif" font-size="14.00">0.023</text>
</g>
<!-- 8 -->
<g id="node9" class="node">
<title>8</title>
<g id="a_node9"><a xlink:href="it consultant.svg" xlink:title="it consultant">
<ellipse fill="none" stroke="black" cx="950.34" cy="-18" rx="54.69" ry="18"/>
<text text-anchor="middle" x="950.34" y="-14.3" font-family="Times New Roman,serif" font-size="14.00">it consultant</text>
</a>
</g>
</g>
<!-- 1&#45;&gt;8 -->
<g id="edge19" class="edge">
<title>1&#45;&gt;8</title>
<path fill="none" stroke="black" d="M666.58,-94.42C702.24,-88.14 748.68,-79.21 789.34,-69 800.59,-66.17 859.64,-47.68 902.98,-34"/>
<polygon fill="black" stroke="black" points="904.03,-37.34 912.51,-30.99 901.92,-30.66 904.03,-37.34"/>
<text text-anchor="middle" x="850.84" y="-57.8" font-family="Times New Roman,serif" font-size="14.00">0.020</text>
</g>
<!-- 10 -->
<g id="node11" class="node">
<title>10</title>
<g id="a_node11"><a xlink:href="financial manager.svg" xlink:title="financial manager">
<ellipse fill="none" stroke="black" cx="1096.34" cy="-18" rx="73.39" ry="18"/>
<text text-anchor="middle" x="1096.34" y="-14.3" font-family="Times New Roman,serif" font-size="14.00">financial manager</text>
</a>
</g>
</g>
<!-- 1&#45;&gt;10 -->
<g id="edge16" class="edge">
<title>1&#45;&gt;10</title>
<path fill="none" stroke="black" d="M677.97,-100.62C744.99,-96.41 848.92,-87.42 937.34,-69 975.3,-61.09 1017.09,-47.77 1048.29,-36.86"/>
<polygon fill="black" stroke="black" points="1049.77,-40.05 1058.03,-33.41 1047.44,-33.45 1049.77,-40.05"/>
<text text-anchor="middle" x="1009.84" y="-57.8" font-family="Times New Roman,serif" font-size="14.00">0.034</text>
</g>
<!-- 11 -->
<g id="node12" class="node">
<title>11</title>
<g id="a_node12"><a xlink:href="heritage manager.svg" xlink:title="heritage manager">
<ellipse fill="none" stroke="black" cx="1259.34" cy="-18" rx="71.49" ry="18"/>
<text text-anchor="middle" x="1259.34" y="-14.3" font-family="Times New Roman,serif" font-size="14.00">heritage manager</text>
</a>
</g>
</g>
<!-- 1&#45;&gt;11 -->
<g id="edge17" class="edge">
<title>1&#45;&gt;11</title>
<path fill="none" stroke="black" d="M678.32,-100.99C762.12,-96.75 906.58,-87.37 1029.34,-69 1088.46,-60.16 1155.1,-45.1 1201.38,-33.81"/>
<polygon fill="black" stroke="black" points="1202.35,-37.18 1211.22,-31.39 1200.68,-30.38 1202.35,-37.18"/>
<text text-anchor="middle" x="1126.84" y="-57.8" font-family="Times New Roman,serif" font-size="14.00">0.027</text>
</g>
<!-- 2&#45;&gt;1 -->
<g id="edge2" class="edge">
<title>2&#45;&gt;1</title>
<path fill="none" stroke="black" d="M108.89,-31.18C151.76,-42.48 218.55,-59.03 277.34,-69 363.37,-83.59 463.07,-93.14 530.39,-98.53"/>
<polygon fill="black" stroke="black" points="530.25,-102.03 540.49,-99.32 530.8,-95.05 530.25,-102.03"/>
<text text-anchor="middle" x="292.84" y="-57.8" font-family="Times New Roman,serif" font-size="14.00">0.052</text>
</g>
<!-- 3&#45;&gt;1 -->
<g id="edge3" class="edge">
<title>3&#45;&gt;1</title>
<path fill="none" stroke="black" d="M303.42,-33.68C341.05,-44.09 393.16,-58.09 439.34,-69 473.55,-77.08 511.89,-85.11 543.4,-91.43"/>
<polygon fill="black" stroke="black" points="542.88,-94.9 553.37,-93.42 544.25,-88.03 542.88,-94.9"/>
<text text-anchor="middle" x="454.84" y="-57.8" font-family="Times New Roman,serif" font-size="14.00">0.049</text>
</g>
<!-- 4&#45;&gt;1 -->
<g id="edge4" class="edge">
<title>4&#45;&gt;1</title>
<path fill="none" stroke="black" d="M485.44,-35.06C502.7,-44.9 525.28,-57.72 545.34,-69 553.68,-73.68 562.64,-78.68 571.13,-83.4"/>
<polygon fill="black" stroke="black" points="569.65,-86.58 580.09,-88.38 573.04,-80.46 569.65,-86.58"/>
<text text-anchor="middle" x="560.84" y="-57.8" font-family="Times New Roman,serif" font-size="14.00">0.049</text>
</g>
<!-- 5&#45;&gt;1 -->
<g id="edge5" class="edge">
<title>5&#45;&gt;1</title>
<path fill="none" stroke="black" d="M623.51,-36.18C620.91,-47.81 617.42,-63.42 614.44,-76.73"/>
<polygon fill="black" stroke="black" points="610.96,-76.28 612.19,-86.8 617.79,-77.8 610.96,-76.28"/>
<text text-anchor="middle" x="634.84" y="-57.8" font-family="Times New Roman,serif" font-size="14.00">0.044</text>
</g>
<!-- 6 -->
<g id="node7" class="node">
<title>6</title>
<g id="a_node7"><a xlink:href="hotel manager.svg" xlink:title="hotel manager">
<ellipse fill="none" stroke="black" cx="639.34" cy="-192" rx="61.19" ry="18"/>
<text text-anchor="middle" x="639.34" y="-188.3" font-family="Times New Roman,serif" font-size="14.00">hotel manager</text>
</a>
</g>
</g>
<!-- 6&#45;&gt;1 -->
<g id="edge6" class="edge">
<title>6&#45;&gt;1</title>
<path fill="none" stroke="black" d="M633.07,-173.8C628.79,-162.05 623.02,-146.24 618.13,-132.84"/>
<polygon fill="black" stroke="black" points="621.32,-131.37 614.61,-123.18 614.75,-133.77 621.32,-131.37"/>
<text text-anchor="middle" x="640.84" y="-144.8" font-family="Times New Roman,serif" font-size="14.00">0.031</text>
</g>
<!-- 7&#45;&gt;1 -->
<g id="edge7" class="edge">
<title>7&#45;&gt;1</title>
<path fill="none" stroke="black" d="M778.88,-35.71C766.69,-46.56 749.57,-60.27 732.34,-69 713.91,-78.34 692.63,-85.5 672.96,-90.84"/>
<polygon fill="black" stroke="black" points="671.95,-87.48 663.15,-93.38 673.71,-94.26 671.95,-87.48"/>
<text text-anchor="middle" x="769.84" y="-57.8" font-family="Times New Roman,serif" font-size="14.00">0.028</text>
</g>
<!-- 8&#45;&gt;1 -->
<g id="edge8" class="edge">
<title>8&#45;&gt;1</title>
<path fill="none" stroke="black" d="M931.37,-35.02C916.74,-46.44 895.51,-61.12 874.34,-69 814.98,-91.1 743.63,-99.59 689.78,-102.71"/>
<polygon fill="black" stroke="black" points="689.39,-99.22 679.59,-103.24 689.76,-106.21 689.39,-99.22"/>
<text text-anchor="middle" x="917.84" y="-57.8" font-family="Times New Roman,serif" font-size="14.00">0.020</text>
</g>
<!-- 9 -->
<g id="node10" class="node">
<title>9</title>
<g id="a_node10"><a xlink:href="careers adviser.svg" xlink:title="careers adviser">
<ellipse fill="none" stroke="black" cx="783.34" cy="-192" rx="64.99" ry="18"/>
<text text-anchor="middle" x="783.34" y="-188.3" font-family="Times New Roman,serif" font-size="14.00">careers adviser</text>
</a>
</g>
</g>
<!-- 9&#45;&gt;1 -->
<g id="edge9" class="edge">
<title>9&#45;&gt;1</title>
<path fill="none" stroke="black" d="M752.46,-176C723.74,-162.05 680.75,-141.17 649.2,-125.84"/>
<polygon fill="black" stroke="black" points="650.33,-122.5 639.8,-121.28 647.27,-128.8 650.33,-122.5"/>
<text text-anchor="middle" x="720.84" y="-144.8" font-family="Times New Roman,serif" font-size="14.00">0.015</text>
</g>
</g>
</svg>
