<?xml version="1.0" encoding="UTF-8" standalone="no"?>
<!DOCTYPE svg PUBLIC "-//W3C//DTD SVG 1.1//EN"
 "http://www.w3.org/Graphics/SVG/1.1/DTD/svg11.dtd">
<!-- Generated by graphviz version 2.44.1 (20200629.0800)
 -->
<!-- Title: test Pages: 1 -->
<svg width="1540pt" height="218pt"
 viewBox="0.00 0.00 1539.63 218.00" xmlns="http://www.w3.org/2000/svg" xmlns:xlink="http://www.w3.org/1999/xlink">
<g id="graph0" class="graph" transform="scale(1 1) rotate(0) translate(4 214)">
<title>test</title>
<polygon fill="white" stroke="transparent" points="-4,4 -4,-214 1535.63,-214 1535.63,4 -4,4"/>
<!-- 0 -->
<g id="node1" class="node">
<title>0</title>
<g id="a_node1"><a xlink:href="pharmacovigilance officer.svg" xlink:title="pharmacovigilance officer">
<ellipse fill="none" stroke="black" cx="104.64" cy="-192" rx="104.78" ry="18"/>
<text text-anchor="middle" x="104.64" y="-188.3" font-family="Times New Roman,serif" font-size="14.00">pharmacovigilance officer</text>
</a>
</g>
</g>
<!-- 1 -->
<g id="node2" class="node">
<title>1</title>
<g id="a_node2"><a xlink:href="charities administrator.svg" xlink:title="charities administrator">
<ellipse fill="none" stroke="black" cx="664.64" cy="-105" rx="90.18" ry="18"/>
<text text-anchor="middle" x="664.64" y="-101.3" font-family="Times New Roman,serif" font-size="14.00">charities administrator</text>
</a>
</g>
</g>
<!-- 0&#45;&gt;1 -->
<g id="edge1" class="edge">
<title>0&#45;&gt;1</title>
<path fill="none" stroke="black" d="M117.43,-173.88C127.09,-162.39 141.42,-148.1 157.64,-141 193.96,-125.1 429.24,-114.27 566.17,-109.23"/>
<polygon fill="black" stroke="black" points="566.39,-112.73 576.26,-108.87 566.14,-105.73 566.39,-112.73"/>
<text text-anchor="middle" x="173.14" y="-144.8" font-family="Times New Roman,serif" font-size="14.00">0.072</text>
</g>
<!-- 1&#45;&gt;0 -->
<g id="edge11" class="edge">
<title>1&#45;&gt;0</title>
<path fill="none" stroke="black" d="M588.36,-114.67C532.87,-121.23 455.98,-130.81 388.64,-141 318.6,-151.6 239.21,-165.76 182.22,-176.3"/>
<polygon fill="black" stroke="black" points="181.4,-172.9 172.2,-178.16 182.67,-179.78 181.4,-172.9"/>
<text text-anchor="middle" x="404.14" y="-144.8" font-family="Times New Roman,serif" font-size="14.00">0.052</text>
</g>
<!-- 1&#45;&gt;1 -->
<g id="edge10" class="edge">
<title>1&#45;&gt;1</title>
<path fill="none" stroke="black" d="M746.84,-112.47C762.18,-111.55 772.98,-109.06 772.98,-105 772.98,-101.92 766.78,-99.75 757.1,-98.47"/>
<polygon fill="black" stroke="black" points="757.12,-94.96 746.84,-97.53 756.48,-101.93 757.12,-94.96"/>
<text text-anchor="middle" x="788.48" y="-101.3" font-family="Times New Roman,serif" font-size="14.00">0.087</text>
</g>
<!-- 9 -->
<g id="node10" class="node">
<title>9</title>
<g id="a_node10"><a xlink:href="community education officer.svg" xlink:title="community education officer">
<ellipse fill="none" stroke="black" cx="119.64" cy="-18" rx="115.08" ry="18"/>
<text text-anchor="middle" x="119.64" y="-14.3" font-family="Times New Roman,serif" font-size="14.00">community education officer</text>
</a>
</g>
</g>
<!-- 1&#45;&gt;9 -->
<g id="edge14" class="edge">
<title>1&#45;&gt;9</title>
<path fill="none" stroke="black" d="M579.17,-99.02C508.21,-94.02 404.84,-84.76 315.64,-69 269.77,-60.9 218.81,-47.77 180.36,-36.99"/>
<polygon fill="black" stroke="black" points="180.93,-33.52 170.36,-34.17 179.03,-40.26 180.93,-33.52"/>
<text text-anchor="middle" x="331.14" y="-57.8" font-family="Times New Roman,serif" font-size="14.00">0.035</text>
</g>
<!-- 10 -->
<g id="node11" class="node">
<title>10</title>
<g id="a_node11"><a xlink:href="project manager.svg" xlink:title="project manager">
<ellipse fill="none" stroke="black" cx="321.64" cy="-18" rx="68.79" ry="18"/>
<text text-anchor="middle" x="321.64" y="-14.3" font-family="Times New Roman,serif" font-size="14.00">project manager</text>
</a>
</g>
</g>
<!-- 1&#45;&gt;10 -->
<g id="edge12" class="edge">
<title>1&#45;&gt;10</title>
<path fill="none" stroke="black" d="M610.29,-90.53C547.44,-74.96 444.39,-49.42 379.92,-33.44"/>
<polygon fill="black" stroke="black" points="380.47,-29.97 369.92,-30.96 378.78,-36.77 380.47,-29.97"/>
<text text-anchor="middle" x="530.14" y="-57.8" font-family="Times New Roman,serif" font-size="14.00">0.052</text>
</g>
<!-- 11 -->
<g id="node12" class="node">
<title>11</title>
<g id="a_node12"><a xlink:href="catering manager.svg" xlink:title="catering manager">
<ellipse fill="none" stroke="black" cx="479.64" cy="-18" rx="71.49" ry="18"/>
<text text-anchor="middle" x="479.64" y="-14.3" font-family="Times New Roman,serif" font-size="14.00">catering manager</text>
</a>
</g>
</g>
<!-- 1&#45;&gt;11 -->
<g id="edge13" class="edge">
<title>1&#45;&gt;11</title>
<path fill="none" stroke="black" d="M630.28,-88.21C599.65,-74.14 554.73,-53.5 521.92,-38.42"/>
<polygon fill="black" stroke="black" points="523.12,-35.13 512.58,-34.13 520.2,-41.49 523.12,-35.13"/>
<text text-anchor="middle" x="599.14" y="-57.8" font-family="Times New Roman,serif" font-size="14.00">0.035</text>
</g>
<!-- 12 -->
<g id="node13" class="node">
<title>12</title>
<g id="a_node13"><a xlink:href="education administrator.svg" xlink:title="education administrator">
<ellipse fill="none" stroke="black" cx="664.64" cy="-18" rx="95.58" ry="18"/>
<text text-anchor="middle" x="664.64" y="-14.3" font-family="Times New Roman,serif" font-size="14.00">education administrator</text>
</a>
</g>
</g>
<!-- 1&#45;&gt;12 -->
<g id="edge15" class="edge">
<title>1&#45;&gt;12</title>
<path fill="none" stroke="black" d="M664.64,-86.8C664.64,-75.16 664.64,-59.55 664.64,-46.24"/>
<polygon fill="black" stroke="black" points="668.14,-46.18 664.64,-36.18 661.14,-46.18 668.14,-46.18"/>
<text text-anchor="middle" x="680.14" y="-57.8" font-family="Times New Roman,serif" font-size="14.00">0.035</text>
</g>
<!-- 13 -->
<g id="node14" class="node">
<title>13</title>
<g id="a_node14"><a xlink:href="environmental scientist.svg" xlink:title="environmental scientist">
<ellipse fill="none" stroke="black" cx="870.64" cy="-18" rx="92.88" ry="18"/>
<text text-anchor="middle" x="870.64" y="-14.3" font-family="Times New Roman,serif" font-size="14.00">environmental scientist</text>
</a>
</g>
</g>
<!-- 1&#45;&gt;13 -->
<g id="edge16" class="edge">
<title>1&#45;&gt;13</title>
<path fill="none" stroke="black" d="M702.42,-88.41C736.54,-74.33 786.88,-53.56 823.6,-38.41"/>
<polygon fill="black" stroke="black" points="825.19,-41.54 833.1,-34.49 822.52,-35.07 825.19,-41.54"/>
<text text-anchor="middle" x="796.14" y="-57.8" font-family="Times New Roman,serif" font-size="14.00">0.035</text>
</g>
<!-- 14 -->
<g id="node15" class="node">
<title>14</title>
<g id="a_node15"><a xlink:href="heritage manager.svg" xlink:title="heritage manager">
<ellipse fill="none" stroke="black" cx="1052.64" cy="-18" rx="71.49" ry="18"/>
<text text-anchor="middle" x="1052.64" y="-14.3" font-family="Times New Roman,serif" font-size="14.00">heritage manager</text>
</a>
</g>
</g>
<!-- 1&#45;&gt;14 -->
<g id="edge17" class="edge">
<title>1&#45;&gt;14</title>
<path fill="none" stroke="black" d="M723.15,-91.18C795.13,-75.41 916.81,-48.76 990.44,-32.63"/>
<polygon fill="black" stroke="black" points="991.49,-35.98 1000.51,-30.42 989.99,-29.14 991.49,-35.98"/>
<text text-anchor="middle" x="898.14" y="-57.8" font-family="Times New Roman,serif" font-size="14.00">0.035</text>
</g>
<!-- 15 -->
<g id="node16" class="node">
<title>15</title>
<g id="a_node16"><a xlink:href="marketing executive.svg" xlink:title="marketing executive">
<ellipse fill="none" stroke="black" cx="1223.64" cy="-18" rx="81.79" ry="18"/>
<text text-anchor="middle" x="1223.64" y="-14.3" font-family="Times New Roman,serif" font-size="14.00">marketing executive</text>
</a>
</g>
</g>
<!-- 1&#45;&gt;15 -->
<g id="edge18" class="edge">
<title>1&#45;&gt;15</title>
<path fill="none" stroke="black" d="M738.17,-94.44C830.49,-82.17 993.63,-59.65 1132.64,-36 1139.61,-34.81 1146.88,-33.53 1154.12,-32.23"/>
<polygon fill="black" stroke="black" points="1154.76,-35.67 1163.97,-30.43 1153.51,-28.78 1154.76,-35.67"/>
<text text-anchor="middle" x="1032.14" y="-57.8" font-family="Times New Roman,serif" font-size="14.00">0.035</text>
</g>
<!-- 16 -->
<g id="node17" class="node">
<title>16</title>
<g id="a_node17"><a xlink:href="outdoor pursuits manager.svg" xlink:title="outdoor pursuits manager">
<ellipse fill="none" stroke="black" cx="1427.64" cy="-18" rx="103.98" ry="18"/>
<text text-anchor="middle" x="1427.64" y="-14.3" font-family="Times New Roman,serif" font-size="14.00">outdoor pursuits manager</text>
</a>
</g>
</g>
<!-- 1&#45;&gt;16 -->
<g id="edge19" class="edge">
<title>1&#45;&gt;16</title>
<path fill="none" stroke="black" d="M746.64,-97.41C825.03,-90.92 946.51,-80.35 1051.64,-69 1168.77,-56.36 1197.94,-52.1 1314.64,-36 1323.66,-34.76 1333.08,-33.41 1342.46,-32.04"/>
<polygon fill="black" stroke="black" points="1343.23,-35.47 1352.61,-30.55 1342.21,-28.54 1343.23,-35.47"/>
<text text-anchor="middle" x="1194.14" y="-57.8" font-family="Times New Roman,serif" font-size="14.00">0.035</text>
</g>
<!-- 2 -->
<g id="node3" class="node">
<title>2</title>
<g id="a_node3"><a xlink:href="it consultant.svg" xlink:title="it consultant">
<ellipse fill="none" stroke="black" cx="281.64" cy="-192" rx="54.69" ry="18"/>
<text text-anchor="middle" x="281.64" y="-188.3" font-family="Times New Roman,serif" font-size="14.00">it consultant</text>
</a>
</g>
</g>
<!-- 2&#45;&gt;1 -->
<g id="edge2" class="edge">
<title>2&#45;&gt;1</title>
<path fill="none" stroke="black" d="M321.89,-179.79C329.43,-177.79 337.26,-175.78 344.64,-174 429.29,-153.6 527.3,-133.25 592.33,-120.2"/>
<polygon fill="black" stroke="black" points="593.35,-123.57 602.47,-118.17 591.98,-116.7 593.35,-123.57"/>
<text text-anchor="middle" x="501.14" y="-144.8" font-family="Times New Roman,serif" font-size="14.00">0.057</text>
</g>
<!-- 3 -->
<g id="node4" class="node">
<title>3</title>
<g id="a_node4"><a xlink:href="investment fund manager.svg" xlink:title="investment fund manager">
<ellipse fill="none" stroke="black" cx="454.64" cy="-192" rx="100.98" ry="18"/>
<text text-anchor="middle" x="454.64" y="-188.3" font-family="Times New Roman,serif" font-size="14.00">investment fund manager</text>
</a>
</g>
</g>
<!-- 3&#45;&gt;1 -->
<g id="edge3" class="edge">
<title>3&#45;&gt;1</title>
<path fill="none" stroke="black" d="M493.65,-175.21C528.49,-161.11 579.64,-140.41 616.91,-125.32"/>
<polygon fill="black" stroke="black" points="618.59,-128.41 626.55,-121.42 615.97,-121.93 618.59,-128.41"/>
<text text-anchor="middle" x="588.14" y="-144.8" font-family="Times New Roman,serif" font-size="14.00">0.043</text>
</g>
<!-- 4 -->
<g id="node5" class="node">
<title>4</title>
<g id="a_node5"><a xlink:href="programme researcher.svg" xlink:title="programme researcher">
<ellipse fill="none" stroke="black" cx="664.64" cy="-192" rx="91.78" ry="18"/>
<text text-anchor="middle" x="664.64" y="-188.3" font-family="Times New Roman,serif" font-size="14.00">programme researcher</text>
</a>
</g>
</g>
<!-- 4&#45;&gt;1 -->
<g id="edge4" class="edge">
<title>4&#45;&gt;1</title>
<path fill="none" stroke="black" d="M664.64,-173.8C664.64,-162.16 664.64,-146.55 664.64,-133.24"/>
<polygon fill="black" stroke="black" points="668.14,-133.18 664.64,-123.18 661.14,-133.18 668.14,-133.18"/>
<text text-anchor="middle" x="680.14" y="-144.8" font-family="Times New Roman,serif" font-size="14.00">0.043</text>
</g>
<!-- 5 -->
<g id="node6" class="node">
<title>5</title>
<g id="a_node6"><a xlink:href="retail merchandiser.svg" xlink:title="retail merchandiser">
<ellipse fill="none" stroke="black" cx="852.64" cy="-192" rx="78.79" ry="18"/>
<text text-anchor="middle" x="852.64" y="-188.3" font-family="Times New Roman,serif" font-size="14.00">retail merchandiser</text>
</a>
</g>
</g>
<!-- 5&#45;&gt;1 -->
<g id="edge5" class="edge">
<title>5&#45;&gt;1</title>
<path fill="none" stroke="black" d="M818.6,-175.61C787.74,-161.66 742.1,-141.02 708.52,-125.84"/>
<polygon fill="black" stroke="black" points="709.94,-122.64 699.39,-121.71 707.06,-129.02 709.94,-122.64"/>
<text text-anchor="middle" x="786.14" y="-144.8" font-family="Times New Roman,serif" font-size="14.00">0.043</text>
</g>
<!-- 6 -->
<g id="node7" class="node">
<title>6</title>
<g id="a_node7"><a xlink:href="sales manager.svg" xlink:title="sales manager">
<ellipse fill="none" stroke="black" cx="1010.64" cy="-192" rx="61.19" ry="18"/>
<text text-anchor="middle" x="1010.64" y="-188.3" font-family="Times New Roman,serif" font-size="14.00">sales manager</text>
</a>
</g>
</g>
<!-- 6&#45;&gt;1 -->
<g id="edge6" class="edge">
<title>6&#45;&gt;1</title>
<path fill="none" stroke="black" d="M965.41,-179.89C905.09,-165.07 797.94,-138.75 729.16,-121.85"/>
<polygon fill="black" stroke="black" points="729.84,-118.41 719.3,-119.43 728.17,-125.21 729.84,-118.41"/>
<text text-anchor="middle" x="874.14" y="-144.8" font-family="Times New Roman,serif" font-size="14.00">0.043</text>
</g>
<!-- 7 -->
<g id="node8" class="node">
<title>7</title>
<g id="a_node8"><a xlink:href="advertising copywriter.svg" xlink:title="advertising copywriter">
<ellipse fill="none" stroke="black" cx="1180.64" cy="-192" rx="90.98" ry="18"/>
<text text-anchor="middle" x="1180.64" y="-188.3" font-family="Times New Roman,serif" font-size="14.00">advertising copywriter</text>
</a>
</g>
</g>
<!-- 7&#45;&gt;1 -->
<g id="edge7" class="edge">
<title>7&#45;&gt;1</title>
<path fill="none" stroke="black" d="M1115.73,-179.3C1057.61,-168.91 970.01,-153.49 893.64,-141 844.3,-132.93 788.88,-124.45 744.91,-117.85"/>
<polygon fill="black" stroke="black" points="745.27,-114.36 734.86,-116.35 744.23,-121.29 745.27,-114.36"/>
<text text-anchor="middle" x="995.14" y="-144.8" font-family="Times New Roman,serif" font-size="14.00">0.028</text>
</g>
<!-- 8 -->
<g id="node9" class="node">
<title>8</title>
<g id="a_node9"><a xlink:href="brand manager.svg" xlink:title="brand manager">
<ellipse fill="none" stroke="black" cx="1353.64" cy="-192" rx="64.19" ry="18"/>
<text text-anchor="middle" x="1353.64" y="-188.3" font-family="Times New Roman,serif" font-size="14.00">brand manager</text>
</a>
</g>
</g>
<!-- 8&#45;&gt;1 -->
<g id="edge8" class="edge">
<title>8&#45;&gt;1</title>
<path fill="none" stroke="black" d="M1307.06,-179.38C1298.32,-177.42 1289.22,-175.53 1280.64,-174 1097.24,-141.36 880.16,-121.77 758.84,-112.5"/>
<polygon fill="black" stroke="black" points="759.07,-109.01 748.84,-111.75 758.55,-115.99 759.07,-109.01"/>
<text text-anchor="middle" x="1178.14" y="-144.8" font-family="Times New Roman,serif" font-size="14.00">0.028</text>
</g>
<!-- 9&#45;&gt;1 -->
<g id="edge9" class="edge">
<title>9&#45;&gt;1</title>
<path fill="none" stroke="black" d="M197.39,-31.29C261.77,-41.45 355.64,-56.23 437.64,-69 486.71,-76.64 541.77,-85.13 585.37,-91.84"/>
<polygon fill="black" stroke="black" points="584.92,-95.31 595.34,-93.37 585.99,-88.39 584.92,-95.31"/>
<text text-anchor="middle" x="453.14" y="-57.8" font-family="Times New Roman,serif" font-size="14.00">0.028</text>
</g>
</g>
</svg>
