<?xml version="1.0" encoding="UTF-8" standalone="no"?>
<!DOCTYPE svg PUBLIC "-//W3C//DTD SVG 1.1//EN"
 "http://www.w3.org/Graphics/SVG/1.1/DTD/svg11.dtd">
<!-- Generated by graphviz version 2.44.1 (20200629.0800)
 -->
<!-- Title: test Pages: 1 -->
<svg width="1383pt" height="218pt"
 viewBox="0.00 0.00 1382.88 218.00" xmlns="http://www.w3.org/2000/svg" xmlns:xlink="http://www.w3.org/1999/xlink">
<g id="graph0" class="graph" transform="scale(1 1) rotate(0) translate(4 214)">
<title>test</title>
<polygon fill="white" stroke="transparent" points="-4,4 -4,-214 1378.88,-214 1378.88,4 -4,4"/>
<!-- 0 -->
<g id="node1" class="node">
<title>0</title>
<g id="a_node1"><a xlink:href="structural engineer.svg" xlink:title="structural engineer">
<ellipse fill="none" stroke="black" cx="350.19" cy="-192" rx="76.89" ry="18"/>
<text text-anchor="middle" x="350.19" y="-188.3" font-family="Times New Roman,serif" font-size="14.00">structural engineer</text>
</a>
</g>
</g>
<!-- 1 -->
<g id="node2" class="node">
<title>1</title>
<g id="a_node2"><a xlink:href="civil engineer.svg" xlink:title="civil engineer">
<ellipse fill="none" stroke="black" cx="539.19" cy="-105" rx="57.69" ry="18"/>
<text text-anchor="middle" x="539.19" y="-101.3" font-family="Times New Roman,serif" font-size="14.00">civil engineer</text>
</a>
</g>
</g>
<!-- 0&#45;&gt;1 -->
<g id="edge1" class="edge">
<title>0&#45;&gt;1</title>
<path fill="none" stroke="black" d="M367,-174.24C378.76,-163.36 395.34,-149.64 412.19,-141 433.28,-130.19 458.11,-122.39 480.19,-116.94"/>
<polygon fill="black" stroke="black" points="481.19,-120.31 490.12,-114.6 479.58,-113.49 481.19,-120.31"/>
<text text-anchor="middle" x="427.69" y="-144.8" font-family="Times New Roman,serif" font-size="14.00">0.072</text>
</g>
<!-- 1&#45;&gt;0 -->
<g id="edge11" class="edge">
<title>1&#45;&gt;0</title>
<path fill="none" stroke="black" d="M512.31,-121.11C493.29,-131.52 467.04,-145.35 443.19,-156 429.63,-162.06 414.66,-168 400.78,-173.22"/>
<polygon fill="black" stroke="black" points="399.52,-169.95 391.37,-176.71 401.96,-176.52 399.52,-169.95"/>
<text text-anchor="middle" x="488.69" y="-144.8" font-family="Times New Roman,serif" font-size="14.00">0.118</text>
</g>
<!-- 1&#45;&gt;1 -->
<g id="edge10" class="edge">
<title>1&#45;&gt;1</title>
<path fill="none" stroke="black" d="M591.65,-112.78C605.01,-112.27 615.04,-109.68 615.04,-105 615.04,-101.6 609.74,-99.3 601.73,-98.11"/>
<polygon fill="black" stroke="black" points="601.92,-94.61 591.65,-97.22 601.31,-101.58 601.92,-94.61"/>
<text text-anchor="middle" x="630.54" y="-101.3" font-family="Times New Roman,serif" font-size="14.00">0.375</text>
</g>
<!-- 2 -->
<g id="node3" class="node">
<title>2</title>
<g id="a_node3"><a xlink:href="mechanical engineer.svg" xlink:title="mechanical engineer">
<ellipse fill="none" stroke="black" cx="83.19" cy="-18" rx="83.39" ry="18"/>
<text text-anchor="middle" x="83.19" y="-14.3" font-family="Times New Roman,serif" font-size="14.00">mechanical engineer</text>
</a>
</g>
</g>
<!-- 1&#45;&gt;2 -->
<g id="edge13" class="edge">
<title>1&#45;&gt;2</title>
<path fill="none" stroke="black" d="M482.32,-101.5C393.87,-97.13 227.65,-86.82 171.19,-69 151.12,-62.66 130.56,-51.31 114.36,-41.01"/>
<polygon fill="black" stroke="black" points="116.13,-37.99 105.85,-35.45 112.3,-43.85 116.13,-37.99"/>
<text text-anchor="middle" x="186.69" y="-57.8" font-family="Times New Roman,serif" font-size="14.00">0.092</text>
</g>
<!-- 3 -->
<g id="node4" class="node">
<title>3</title>
<g id="a_node4"><a xlink:href="software developer.svg" xlink:title="software developer">
<ellipse fill="none" stroke="black" cx="264.19" cy="-18" rx="79.89" ry="18"/>
<text text-anchor="middle" x="264.19" y="-14.3" font-family="Times New Roman,serif" font-size="14.00">software developer</text>
</a>
</g>
</g>
<!-- 1&#45;&gt;3 -->
<g id="edge14" class="edge">
<title>1&#45;&gt;3</title>
<path fill="none" stroke="black" d="M481.44,-102.64C436.99,-99.72 374.94,-91.48 325.19,-69 311.47,-62.8 298.28,-52.7 287.7,-43.2"/>
<polygon fill="black" stroke="black" points="289.84,-40.4 280.15,-36.12 285.05,-45.51 289.84,-40.4"/>
<text text-anchor="middle" x="340.69" y="-57.8" font-family="Times New Roman,serif" font-size="14.00">0.052</text>
</g>
<!-- 5 -->
<g id="node6" class="node">
<title>5</title>
<g id="a_node6"><a xlink:href="project manager.svg" xlink:title="project manager">
<ellipse fill="none" stroke="black" cx="431.19" cy="-18" rx="68.79" ry="18"/>
<text text-anchor="middle" x="431.19" y="-14.3" font-family="Times New Roman,serif" font-size="14.00">project manager</text>
</a>
</g>
</g>
<!-- 1&#45;&gt;5 -->
<g id="edge12" class="edge">
<title>1&#45;&gt;5</title>
<path fill="none" stroke="black" d="M489.99,-95.51C473.41,-90.38 456.11,-82.16 444.19,-69 438.52,-62.74 435.26,-54.31 433.41,-46.16"/>
<polygon fill="black" stroke="black" points="436.84,-45.46 431.74,-36.17 429.94,-46.62 436.84,-45.46"/>
<text text-anchor="middle" x="459.69" y="-57.8" font-family="Times New Roman,serif" font-size="14.00">0.111</text>
</g>
<!-- 7 -->
<g id="node8" class="node">
<title>7</title>
<g id="a_node8"><a xlink:href="it consultant.svg" xlink:title="it consultant">
<ellipse fill="none" stroke="black" cx="572.19" cy="-18" rx="54.69" ry="18"/>
<text text-anchor="middle" x="572.19" y="-14.3" font-family="Times New Roman,serif" font-size="14.00">it consultant</text>
</a>
</g>
</g>
<!-- 1&#45;&gt;7 -->
<g id="edge15" class="edge">
<title>1&#45;&gt;7</title>
<path fill="none" stroke="black" d="M534.44,-86.69C532.61,-76.75 531.86,-64.25 536.19,-54 538,-49.73 540.61,-45.72 543.61,-42.05"/>
<polygon fill="black" stroke="black" points="546.33,-44.27 550.64,-34.59 541.23,-39.47 546.33,-44.27"/>
<text text-anchor="middle" x="551.69" y="-57.8" font-family="Times New Roman,serif" font-size="14.00">0.046</text>
</g>
<!-- 8 -->
<g id="node9" class="node">
<title>8</title>
<g id="a_node9"><a xlink:href="network administrator.svg" xlink:title="network administrator">
<ellipse fill="none" stroke="black" cx="734.19" cy="-18" rx="89.88" ry="18"/>
<text text-anchor="middle" x="734.19" y="-14.3" font-family="Times New Roman,serif" font-size="14.00">network administrator</text>
</a>
</g>
</g>
<!-- 1&#45;&gt;8 -->
<g id="edge16" class="edge">
<title>1&#45;&gt;8</title>
<path fill="none" stroke="black" d="M571.39,-89.96C603.47,-75.98 652.99,-54.4 689,-38.7"/>
<polygon fill="black" stroke="black" points="690.53,-41.85 698.3,-34.64 687.74,-35.43 690.53,-41.85"/>
<text text-anchor="middle" x="664.69" y="-57.8" font-family="Times New Roman,serif" font-size="14.00">0.032</text>
</g>
<!-- 10 -->
<g id="node11" class="node">
<title>10</title>
<g id="a_node11"><a xlink:href="pharmacovigilance officer.svg" xlink:title="pharmacovigilance officer">
<ellipse fill="none" stroke="black" cx="946.19" cy="-18" rx="104.78" ry="18"/>
<text text-anchor="middle" x="946.19" y="-14.3" font-family="Times New Roman,serif" font-size="14.00">pharmacovigilance officer</text>
</a>
</g>
</g>
<!-- 1&#45;&gt;10 -->
<g id="edge17" class="edge">
<title>1&#45;&gt;10</title>
<path fill="none" stroke="black" d="M590.1,-96.3C631.49,-89.8 691.31,-79.83 743.19,-69 790.03,-59.23 842.46,-46.26 882.3,-35.98"/>
<polygon fill="black" stroke="black" points="883.35,-39.33 892.15,-33.43 881.59,-32.55 883.35,-39.33"/>
<text text-anchor="middle" x="819.69" y="-57.8" font-family="Times New Roman,serif" font-size="14.00">0.032</text>
</g>
<!-- 11 -->
<g id="node12" class="node">
<title>11</title>
<g id="a_node12"><a xlink:href="architect.svg" xlink:title="architect">
<ellipse fill="none" stroke="black" cx="1110.19" cy="-18" rx="41.69" ry="18"/>
<text text-anchor="middle" x="1110.19" y="-14.3" font-family="Times New Roman,serif" font-size="14.00">architect</text>
</a>
</g>
</g>
<!-- 1&#45;&gt;11 -->
<g id="edge18" class="edge">
<title>1&#45;&gt;11</title>
<path fill="none" stroke="black" d="M595.44,-100.66C691.76,-94.06 893.98,-76.32 1060.19,-36 1063.4,-35.22 1066.69,-34.33 1069.99,-33.36"/>
<polygon fill="black" stroke="black" points="1071.27,-36.63 1079.78,-30.31 1069.19,-29.95 1071.27,-36.63"/>
<text text-anchor="middle" x="991.69" y="-57.8" font-family="Times New Roman,serif" font-size="14.00">0.019</text>
</g>
<!-- 12 -->
<g id="node13" class="node">
<title>12</title>
<g id="a_node13"><a xlink:href="civil service administrator.svg" xlink:title="civil service administrator">
<ellipse fill="none" stroke="black" cx="1272.19" cy="-18" rx="102.88" ry="18"/>
<text text-anchor="middle" x="1272.19" y="-14.3" font-family="Times New Roman,serif" font-size="14.00">civil service administrator</text>
</a>
</g>
</g>
<!-- 1&#45;&gt;12 -->
<g id="edge19" class="edge">
<title>1&#45;&gt;12</title>
<path fill="none" stroke="black" d="M596.45,-101.88C685.47,-98.12 862.33,-88.71 1011.19,-69 1076.29,-60.38 1149.68,-45.89 1202.02,-34.72"/>
<polygon fill="black" stroke="black" points="1202.82,-38.13 1211.87,-32.61 1201.35,-31.28 1202.82,-38.13"/>
<text text-anchor="middle" x="1112.69" y="-57.8" font-family="Times New Roman,serif" font-size="14.00">0.019</text>
</g>
<!-- 2&#45;&gt;1 -->
<g id="edge2" class="edge">
<title>2&#45;&gt;1</title>
<path fill="none" stroke="black" d="M128.53,-33.19C165.52,-44.31 219.31,-59.46 267.19,-69 337.42,-82.99 419,-92.62 474.37,-98.19"/>
<polygon fill="black" stroke="black" points="474.09,-101.68 484.39,-99.18 474.78,-94.71 474.09,-101.68"/>
<text text-anchor="middle" x="282.69" y="-57.8" font-family="Times New Roman,serif" font-size="14.00">0.061</text>
</g>
<!-- 3&#45;&gt;1 -->
<g id="edge3" class="edge">
<title>3&#45;&gt;1</title>
<path fill="none" stroke="black" d="M301.93,-33.95C329.25,-44.48 367.2,-58.52 401.19,-69 428.19,-77.33 458.6,-85.2 483.99,-91.36"/>
<polygon fill="black" stroke="black" points="483.27,-94.79 493.81,-93.72 484.91,-87.98 483.27,-94.79"/>
<text text-anchor="middle" x="416.69" y="-57.8" font-family="Times New Roman,serif" font-size="14.00">0.056</text>
</g>
<!-- 4 -->
<g id="node5" class="node">
<title>4</title>
<g id="a_node5"><a xlink:href="manufacturing engineer.svg" xlink:title="manufacturing engineer">
<ellipse fill="none" stroke="black" cx="539.19" cy="-192" rx="94.48" ry="18"/>
<text text-anchor="middle" x="539.19" y="-188.3" font-family="Times New Roman,serif" font-size="14.00">manufacturing engineer</text>
</a>
</g>
</g>
<!-- 4&#45;&gt;1 -->
<g id="edge4" class="edge">
<title>4&#45;&gt;1</title>
<path fill="none" stroke="black" d="M539.19,-173.8C539.19,-162.16 539.19,-146.55 539.19,-133.24"/>
<polygon fill="black" stroke="black" points="542.69,-133.18 539.19,-123.18 535.69,-133.18 542.69,-133.18"/>
<text text-anchor="middle" x="554.69" y="-144.8" font-family="Times New Roman,serif" font-size="14.00">0.041</text>
</g>
<!-- 5&#45;&gt;1 -->
<g id="edge5" class="edge">
<title>5&#45;&gt;1</title>
<path fill="none" stroke="black" d="M451.78,-35.21C468.5,-48.36 492.25,-67.06 510.78,-81.64"/>
<polygon fill="black" stroke="black" points="508.86,-84.58 518.88,-88.01 513.19,-79.08 508.86,-84.58"/>
<text text-anchor="middle" x="507.69" y="-57.8" font-family="Times New Roman,serif" font-size="14.00">0.041</text>
</g>
<!-- 6 -->
<g id="node7" class="node">
<title>6</title>
<g id="a_node7"><a xlink:href="electrical engineer.svg" xlink:title="electrical engineer">
<ellipse fill="none" stroke="black" cx="726.19" cy="-192" rx="74.99" ry="18"/>
<text text-anchor="middle" x="726.19" y="-188.3" font-family="Times New Roman,serif" font-size="14.00">electrical engineer</text>
</a>
</g>
</g>
<!-- 6&#45;&gt;1 -->
<g id="edge6" class="edge">
<title>6&#45;&gt;1</title>
<path fill="none" stroke="black" d="M692.76,-175.8C661.07,-161.4 613.42,-139.74 579.61,-124.37"/>
<polygon fill="black" stroke="black" points="581.02,-121.17 570.47,-120.22 578.12,-127.54 581.02,-121.17"/>
<text text-anchor="middle" x="659.69" y="-144.8" font-family="Times New Roman,serif" font-size="14.00">0.036</text>
</g>
<!-- 7&#45;&gt;1 -->
<g id="edge7" class="edge">
<title>7&#45;&gt;1</title>
<path fill="none" stroke="black" d="M574.79,-36.26C575.57,-46.18 575.32,-58.68 571.19,-69 569.61,-72.96 567.36,-76.74 564.78,-80.27"/>
<polygon fill="black" stroke="black" points="562.06,-78.06 558.3,-87.97 567.42,-82.57 562.06,-78.06"/>
<text text-anchor="middle" x="590.69" y="-57.8" font-family="Times New Roman,serif" font-size="14.00">0.020</text>
</g>
<!-- 8&#45;&gt;1 -->
<g id="edge8" class="edge">
<title>8&#45;&gt;1</title>
<path fill="none" stroke="black" d="M723.49,-36.35C715.82,-47.34 704.52,-60.95 691.19,-69 665.29,-84.65 633.02,-93.31 604.9,-98.09"/>
<polygon fill="black" stroke="black" points="604.08,-94.68 594.74,-99.69 605.16,-101.59 604.08,-94.68"/>
<text text-anchor="middle" x="723.69" y="-57.8" font-family="Times New Roman,serif" font-size="14.00">0.020</text>
</g>
<!-- 9 -->
<g id="node10" class="node">
<title>9</title>
<g id="a_node10"><a xlink:href="academic librarian.svg" xlink:title="academic librarian">
<ellipse fill="none" stroke="black" cx="895.19" cy="-192" rx="76.09" ry="18"/>
<text text-anchor="middle" x="895.19" y="-188.3" font-family="Times New Roman,serif" font-size="14.00">academic librarian</text>
</a>
</g>
</g>
<!-- 9&#45;&gt;1 -->
<g id="edge9" class="edge">
<title>9&#45;&gt;1</title>
<path fill="none" stroke="black" d="M843.81,-178.73C777.23,-162.84 661.66,-135.24 593.63,-119"/>
<polygon fill="black" stroke="black" points="594.08,-115.51 583.54,-116.59 592.45,-122.32 594.08,-115.51"/>
<text text-anchor="middle" x="753.69" y="-144.8" font-family="Times New Roman,serif" font-size="14.00">0.015</text>
</g>
</g>
</svg>
