<?xml version="1.0" encoding="UTF-8" standalone="no"?>
<!DOCTYPE svg PUBLIC "-//W3C//DTD SVG 1.1//EN"
 "http://www.w3.org/Graphics/SVG/1.1/DTD/svg11.dtd">
<!-- Generated by graphviz version 2.44.1 (20200629.0800)
 -->
<!-- Title: commissioning_editor Pages: 1 -->
<svg width="1219pt" height="218pt"
 viewBox="0.00 0.00 1218.54 218.00" xmlns="http://www.w3.org/2000/svg" xmlns:xlink="http://www.w3.org/1999/xlink">
<g id="graph0" class="graph" transform="scale(1 1) rotate(0) translate(4 214)">
<title>commissioning_editor</title>
<polygon fill="white" stroke="transparent" points="-4,4 -4,-214 1214.54,-214 1214.54,4 -4,4"/>
<!-- 0 -->
<g id="node1" class="node">
<title>0</title>
<g id="a_node1"><a xlink:href="journalist.svg" xlink:title="journalist">
<ellipse fill="none" stroke="black" cx="183.19" cy="-192" rx="43.59" ry="18"/>
<text text-anchor="middle" x="183.19" y="-188.3" font-family="Times New Roman,serif" font-size="14.00">journalist</text>
</a>
</g>
</g>
<!-- 1 -->
<g id="node2" class="node">
<title>1</title>
<g id="a_node2"><a xlink:href="commissioning editor.svg" xlink:title="commissioning editor">
<ellipse fill="none" stroke="black" cx="425.19" cy="-105" rx="89.08" ry="18"/>
<text text-anchor="middle" x="425.19" y="-101.3" font-family="Times New Roman,serif" font-size="14.00">commissioning editor</text>
</a>
</g>
</g>
<!-- 0&#45;&gt;1 -->
<g id="edge1" class="edge">
<title>0&#45;&gt;1</title>
<path fill="none" stroke="black" d="M180.45,-173.96C179.73,-163.1 180.9,-149.52 189.19,-141 208.4,-121.25 271.36,-112.58 327.42,-108.8"/>
<polygon fill="black" stroke="black" points="327.67,-112.29 337.43,-108.17 327.23,-105.3 327.67,-112.29"/>
<text text-anchor="middle" x="204.69" y="-144.8" font-family="Times New Roman,serif" font-size="14.00">0.135</text>
</g>
<!-- 1&#45;&gt;0 -->
<g id="edge14" class="edge">
<title>1&#45;&gt;0</title>
<path fill="none" stroke="black" d="M379.95,-120.57C361.11,-126.73 339.05,-134.07 319.19,-141 286.93,-152.25 250.62,-165.64 223.64,-175.73"/>
<polygon fill="black" stroke="black" points="222.28,-172.5 214.15,-179.29 224.74,-179.05 222.28,-172.5"/>
<text text-anchor="middle" x="334.69" y="-144.8" font-family="Times New Roman,serif" font-size="14.00">0.047</text>
</g>
<!-- 1&#45;&gt;1 -->
<g id="edge10" class="edge">
<title>1&#45;&gt;1</title>
<path fill="none" stroke="black" d="M506.41,-112.47C521.56,-111.55 532.24,-109.06 532.24,-105 532.24,-101.92 526.11,-99.75 516.54,-98.47"/>
<polygon fill="black" stroke="black" points="516.69,-94.97 506.41,-97.53 516.04,-101.94 516.69,-94.97"/>
<text text-anchor="middle" x="547.74" y="-101.3" font-family="Times New Roman,serif" font-size="14.00">0.253</text>
</g>
<!-- 2 -->
<g id="node3" class="node">
<title>2</title>
<g id="a_node3"><a xlink:href="content manager.svg" xlink:title="content manager">
<ellipse fill="none" stroke="black" cx="70.19" cy="-18" rx="70.39" ry="18"/>
<text text-anchor="middle" x="70.19" y="-14.3" font-family="Times New Roman,serif" font-size="14.00">content manager</text>
</a>
</g>
</g>
<!-- 1&#45;&gt;2 -->
<g id="edge12" class="edge">
<title>1&#45;&gt;2</title>
<path fill="none" stroke="black" d="M341.33,-98.82C269.26,-93.47 171.4,-83.79 135.19,-69 120.1,-62.83 105.49,-52.17 93.97,-42.27"/>
<polygon fill="black" stroke="black" points="96.3,-39.66 86.51,-35.61 91.63,-44.88 96.3,-39.66"/>
<text text-anchor="middle" x="150.69" y="-57.8" font-family="Times New Roman,serif" font-size="14.00">0.079</text>
</g>
<!-- 3 -->
<g id="node4" class="node">
<title>3</title>
<g id="a_node4"><a xlink:href="marketing executive.svg" xlink:title="marketing executive">
<ellipse fill="none" stroke="black" cx="240.19" cy="-18" rx="81.79" ry="18"/>
<text text-anchor="middle" x="240.19" y="-14.3" font-family="Times New Roman,serif" font-size="14.00">marketing executive</text>
</a>
</g>
</g>
<!-- 1&#45;&gt;3 -->
<g id="edge15" class="edge">
<title>1&#45;&gt;3</title>
<path fill="none" stroke="black" d="M341.86,-98.6C316.3,-93.65 289.36,-84.76 268.19,-69 260.22,-63.07 254.21,-54.15 249.84,-45.49"/>
<polygon fill="black" stroke="black" points="253.02,-44.02 245.73,-36.33 246.63,-46.89 253.02,-44.02"/>
<text text-anchor="middle" x="283.69" y="-57.8" font-family="Times New Roman,serif" font-size="14.00">0.047</text>
</g>
<!-- 5 -->
<g id="node6" class="node">
<title>5</title>
<g id="a_node6"><a xlink:href="writer.svg" xlink:title="writer">
<ellipse fill="none" stroke="black" cx="371.19" cy="-18" rx="31.4" ry="18"/>
<text text-anchor="middle" x="371.19" y="-14.3" font-family="Times New Roman,serif" font-size="14.00">writer</text>
</a>
</g>
</g>
<!-- 1&#45;&gt;5 -->
<g id="edge16" class="edge">
<title>1&#45;&gt;5</title>
<path fill="none" stroke="black" d="M387.85,-88.61C380,-83.57 372.73,-77.11 368.19,-69 364.3,-62.03 363.58,-53.64 364.26,-45.73"/>
<polygon fill="black" stroke="black" points="367.73,-46.2 365.82,-35.78 360.82,-45.12 367.73,-46.2"/>
<text text-anchor="middle" x="383.69" y="-57.8" font-family="Times New Roman,serif" font-size="14.00">0.047</text>
</g>
<!-- 10 -->
<g id="node11" class="node">
<title>10</title>
<g id="a_node11"><a xlink:href="production manager.svg" xlink:title="production manager">
<ellipse fill="none" stroke="black" cx="503.19" cy="-18" rx="83.39" ry="18"/>
<text text-anchor="middle" x="503.19" y="-14.3" font-family="Times New Roman,serif" font-size="14.00">production manager</text>
</a>
</g>
</g>
<!-- 1&#45;&gt;10 -->
<g id="edge11" class="edge">
<title>1&#45;&gt;10</title>
<path fill="none" stroke="black" d="M440.6,-87.21C452.14,-74.63 468.09,-57.25 481,-43.18"/>
<polygon fill="black" stroke="black" points="483.63,-45.49 487.82,-35.76 478.48,-40.76 483.63,-45.49"/>
<text text-anchor="middle" x="483.69" y="-57.8" font-family="Times New Roman,serif" font-size="14.00">0.095</text>
</g>
<!-- 11 -->
<g id="node12" class="node">
<title>11</title>
<g id="a_node12"><a xlink:href="pharmacovigilance officer.svg" xlink:title="pharmacovigilance officer">
<ellipse fill="none" stroke="black" cx="709.19" cy="-18" rx="104.78" ry="18"/>
<text text-anchor="middle" x="709.19" y="-14.3" font-family="Times New Roman,serif" font-size="14.00">pharmacovigilance officer</text>
</a>
</g>
</g>
<!-- 1&#45;&gt;11 -->
<g id="edge13" class="edge">
<title>1&#45;&gt;11</title>
<path fill="none" stroke="black" d="M472.73,-89.77C521.24,-75.25 596.66,-52.68 649.24,-36.94"/>
<polygon fill="black" stroke="black" points="650.53,-40.21 659.11,-33.99 648.53,-33.5 650.53,-40.21"/>
<text text-anchor="middle" x="599.69" y="-57.8" font-family="Times New Roman,serif" font-size="14.00">0.063</text>
</g>
<!-- 12 -->
<g id="node13" class="node">
<title>12</title>
<g id="a_node13"><a xlink:href="facilities manager.svg" xlink:title="facilities manager">
<ellipse fill="none" stroke="black" cx="904.19" cy="-18" rx="72.59" ry="18"/>
<text text-anchor="middle" x="904.19" y="-14.3" font-family="Times New Roman,serif" font-size="14.00">facilities manager</text>
</a>
</g>
</g>
<!-- 1&#45;&gt;12 -->
<g id="edge17" class="edge">
<title>1&#45;&gt;12</title>
<path fill="none" stroke="black" d="M492.94,-93.22C572.25,-80.42 707.5,-58.02 823.19,-36 828.98,-34.9 834.99,-33.71 841.01,-32.5"/>
<polygon fill="black" stroke="black" points="842,-35.87 851.09,-30.44 840.6,-29.01 842,-35.87"/>
<text text-anchor="middle" x="728.69" y="-57.8" font-family="Times New Roman,serif" font-size="14.00">0.031</text>
</g>
<!-- 13 -->
<g id="node14" class="node">
<title>13</title>
<g id="a_node14"><a xlink:href="lawyer.svg" xlink:title="lawyer">
<ellipse fill="none" stroke="black" cx="1029.19" cy="-18" rx="34.39" ry="18"/>
<text text-anchor="middle" x="1029.19" y="-14.3" font-family="Times New Roman,serif" font-size="14.00">lawyer</text>
</a>
</g>
</g>
<!-- 1&#45;&gt;13 -->
<g id="edge18" class="edge">
<title>1&#45;&gt;13</title>
<path fill="none" stroke="black" d="M512.1,-100.8C623.56,-95.04 822.05,-79.16 986.19,-36 988.8,-35.32 991.46,-34.52 994.11,-33.65"/>
<polygon fill="black" stroke="black" points="995.36,-36.92 1003.61,-30.27 993.01,-30.33 995.36,-36.92"/>
<text text-anchor="middle" x="910.69" y="-57.8" font-family="Times New Roman,serif" font-size="14.00">0.031</text>
</g>
<!-- 14 -->
<g id="node15" class="node">
<title>14</title>
<g id="a_node15"><a xlink:href="office manager.svg" xlink:title="office manager">
<ellipse fill="none" stroke="black" cx="1146.19" cy="-18" rx="64.19" ry="18"/>
<text text-anchor="middle" x="1146.19" y="-14.3" font-family="Times New Roman,serif" font-size="14.00">office manager</text>
</a>
</g>
</g>
<!-- 1&#45;&gt;14 -->
<g id="edge19" class="edge">
<title>1&#45;&gt;14</title>
<path fill="none" stroke="black" d="M513.23,-102.12C614.36,-98.98 785.04,-90.69 930.19,-69 986.17,-60.63 1049.11,-45.38 1092.54,-33.92"/>
<polygon fill="black" stroke="black" points="1093.56,-37.27 1102.32,-31.31 1091.76,-30.5 1093.56,-37.27"/>
<text text-anchor="middle" x="1022.69" y="-57.8" font-family="Times New Roman,serif" font-size="14.00">0.031</text>
</g>
<!-- 2&#45;&gt;1 -->
<g id="edge2" class="edge">
<title>2&#45;&gt;1</title>
<path fill="none" stroke="black" d="M107.64,-33.25C137.7,-44.27 181.18,-59.23 220.19,-69 260.22,-79.03 305.37,-87.08 343.08,-92.92"/>
<polygon fill="black" stroke="black" points="342.59,-96.38 353.01,-94.43 343.65,-89.46 342.59,-96.38"/>
<text text-anchor="middle" x="235.69" y="-57.8" font-family="Times New Roman,serif" font-size="14.00">0.067</text>
</g>
<!-- 3&#45;&gt;1 -->
<g id="edge3" class="edge">
<title>3&#45;&gt;1</title>
<path fill="none" stroke="black" d="M266.81,-35.21C284.43,-45.59 308.26,-58.94 330.19,-69 343.31,-75.01 357.78,-80.77 371.39,-85.81"/>
<polygon fill="black" stroke="black" points="370.52,-89.22 381.11,-89.36 372.91,-82.65 370.52,-89.22"/>
<text text-anchor="middle" x="345.69" y="-57.8" font-family="Times New Roman,serif" font-size="14.00">0.040</text>
</g>
<!-- 4 -->
<g id="node5" class="node">
<title>4</title>
<g id="a_node5"><a xlink:href="press editor.svg" xlink:title="press editor">
<ellipse fill="none" stroke="black" cx="298.19" cy="-192" rx="53.89" ry="18"/>
<text text-anchor="middle" x="298.19" y="-188.3" font-family="Times New Roman,serif" font-size="14.00">press editor</text>
</a>
</g>
</g>
<!-- 4&#45;&gt;1 -->
<g id="edge4" class="edge">
<title>4&#45;&gt;1</title>
<path fill="none" stroke="black" d="M321.19,-175.61C341.01,-162.35 369.85,-143.04 392.14,-128.12"/>
<polygon fill="black" stroke="black" points="394.27,-130.91 400.63,-122.44 390.38,-125.09 394.27,-130.91"/>
<text text-anchor="middle" x="385.69" y="-144.8" font-family="Times New Roman,serif" font-size="14.00">0.040</text>
</g>
<!-- 5&#45;&gt;1 -->
<g id="edge5" class="edge">
<title>5&#45;&gt;1</title>
<path fill="none" stroke="black" d="M386.7,-33.78C392.36,-39.7 398.52,-46.83 403.19,-54 407.85,-61.15 411.96,-69.45 415.32,-77.21"/>
<polygon fill="black" stroke="black" points="412.14,-78.69 419.16,-86.63 418.62,-76.05 412.14,-78.69"/>
<text text-anchor="middle" x="427.69" y="-57.8" font-family="Times New Roman,serif" font-size="14.00">0.040</text>
</g>
<!-- 6 -->
<g id="node7" class="node">
<title>6</title>
<g id="a_node7"><a xlink:href="it consultant.svg" xlink:title="it consultant">
<ellipse fill="none" stroke="black" cx="425.19" cy="-192" rx="54.69" ry="18"/>
<text text-anchor="middle" x="425.19" y="-188.3" font-family="Times New Roman,serif" font-size="14.00">it consultant</text>
</a>
</g>
</g>
<!-- 6&#45;&gt;1 -->
<g id="edge6" class="edge">
<title>6&#45;&gt;1</title>
<path fill="none" stroke="black" d="M425.19,-173.8C425.19,-162.16 425.19,-146.55 425.19,-133.24"/>
<polygon fill="black" stroke="black" points="428.69,-133.18 425.19,-123.18 421.69,-133.18 428.69,-133.18"/>
<text text-anchor="middle" x="440.69" y="-144.8" font-family="Times New Roman,serif" font-size="14.00">0.027</text>
</g>
<!-- 7 -->
<g id="node8" class="node">
<title>7</title>
<g id="a_node8"><a xlink:href="lecturer.svg" xlink:title="lecturer">
<ellipse fill="none" stroke="black" cx="535.19" cy="-192" rx="37.89" ry="18"/>
<text text-anchor="middle" x="535.19" y="-188.3" font-family="Times New Roman,serif" font-size="14.00">lecturer</text>
</a>
</g>
</g>
<!-- 7&#45;&gt;1 -->
<g id="edge7" class="edge">
<title>7&#45;&gt;1</title>
<path fill="none" stroke="black" d="M516.03,-176.19C499.12,-163.13 474.2,-143.87 454.74,-128.83"/>
<polygon fill="black" stroke="black" points="456.82,-126.02 446.77,-122.67 452.54,-131.56 456.82,-126.02"/>
<text text-anchor="middle" x="501.69" y="-144.8" font-family="Times New Roman,serif" font-size="14.00">0.027</text>
</g>
<!-- 8 -->
<g id="node9" class="node">
<title>8</title>
<g id="a_node9"><a xlink:href="pr officer.svg" xlink:title="pr officer">
<ellipse fill="none" stroke="black" cx="636.19" cy="-192" rx="44.69" ry="18"/>
<text text-anchor="middle" x="636.19" y="-188.3" font-family="Times New Roman,serif" font-size="14.00">pr officer</text>
</a>
</g>
</g>
<!-- 8&#45;&gt;1 -->
<g id="edge8" class="edge">
<title>8&#45;&gt;1</title>
<path fill="none" stroke="black" d="M607.57,-177.98C584.42,-167.59 550.92,-152.87 521.19,-141 507.14,-135.39 491.79,-129.63 477.57,-124.45"/>
<polygon fill="black" stroke="black" points="478.53,-121.07 467.94,-120.96 476.15,-127.65 478.53,-121.07"/>
<text text-anchor="middle" x="571.69" y="-144.8" font-family="Times New Roman,serif" font-size="14.00">0.027</text>
</g>
<!-- 9 -->
<g id="node10" class="node">
<title>9</title>
<g id="a_node10"><a xlink:href="records manager.svg" xlink:title="records manager">
<ellipse fill="none" stroke="black" cx="770.19" cy="-192" rx="71.49" ry="18"/>
<text text-anchor="middle" x="770.19" y="-188.3" font-family="Times New Roman,serif" font-size="14.00">records manager</text>
</a>
</g>
</g>
<!-- 9&#45;&gt;1 -->
<g id="edge9" class="edge">
<title>9&#45;&gt;1</title>
<path fill="none" stroke="black" d="M725.9,-177.77C689.8,-167.19 637.42,-152.32 591.19,-141 560.48,-133.48 526.34,-126.11 497.05,-120.09"/>
<polygon fill="black" stroke="black" points="497.4,-116.59 486.9,-118.02 496,-123.45 497.4,-116.59"/>
<text text-anchor="middle" x="660.69" y="-144.8" font-family="Times New Roman,serif" font-size="14.00">0.027</text>
</g>
</g>
</svg>
