<?xml version="1.0" encoding="UTF-8" standalone="no"?>
<!DOCTYPE svg PUBLIC "-//W3C//DTD SVG 1.1//EN"
 "http://www.w3.org/Graphics/SVG/1.1/DTD/svg11.dtd">
<!-- Generated by graphviz version 2.44.1 (20200629.0800)
 -->
<!-- Title: test Pages: 1 -->
<svg width="1321pt" height="218pt"
 viewBox="0.00 0.00 1320.89 218.00" xmlns="http://www.w3.org/2000/svg" xmlns:xlink="http://www.w3.org/1999/xlink">
<g id="graph0" class="graph" transform="scale(1 1) rotate(0) translate(4 214)">
<title>test</title>
<polygon fill="white" stroke="transparent" points="-4,4 -4,-214 1316.89,-214 1316.89,4 -4,4"/>
<!-- 0 -->
<g id="node1" class="node">
<title>0</title>
<g id="a_node1"><a xlink:href="investment analyst.svg" xlink:title="investment analyst">
<ellipse fill="none" stroke="black" cx="76.69" cy="-192" rx="76.89" ry="18"/>
<text text-anchor="middle" x="76.69" y="-188.3" font-family="Times New Roman,serif" font-size="14.00">investment analyst</text>
</a>
</g>
</g>
<!-- 1 -->
<g id="node2" class="node">
<title>1</title>
<g id="a_node2"><a xlink:href="commodity broker.svg" xlink:title="commodity broker">
<ellipse fill="none" stroke="black" cx="470.69" cy="-105" rx="78.79" ry="18"/>
<text text-anchor="middle" x="470.69" y="-101.3" font-family="Times New Roman,serif" font-size="14.00">commodity broker</text>
</a>
</g>
</g>
<!-- 0&#45;&gt;1 -->
<g id="edge1" class="edge">
<title>0&#45;&gt;1</title>
<path fill="none" stroke="black" d="M85.46,-174.08C92.33,-162.68 103.02,-148.42 116.69,-141 160.92,-116.99 292.3,-109.37 381.94,-107"/>
<polygon fill="black" stroke="black" points="382.21,-110.49 392.12,-106.74 382.03,-103.49 382.21,-110.49"/>
<text text-anchor="middle" x="132.19" y="-144.8" font-family="Times New Roman,serif" font-size="14.00">0.090</text>
</g>
<!-- 1&#45;&gt;0 -->
<g id="edge12" class="edge">
<title>1&#45;&gt;0</title>
<path fill="none" stroke="black" d="M414.58,-117.71C382.4,-124.46 341.26,-133.14 304.69,-141 249.14,-152.95 186.05,-166.81 140.34,-176.9"/>
<polygon fill="black" stroke="black" points="139.57,-173.48 130.57,-179.06 141.08,-180.32 139.57,-173.48"/>
<text text-anchor="middle" x="320.19" y="-144.8" font-family="Times New Roman,serif" font-size="14.00">0.052</text>
</g>
<!-- 1&#45;&gt;1 -->
<g id="edge10" class="edge">
<title>1&#45;&gt;1</title>
<path fill="none" stroke="black" d="M542.34,-112.57C556.91,-111.75 567.34,-109.22 567.34,-105 567.34,-101.83 561.47,-99.62 552.39,-98.36"/>
<polygon fill="black" stroke="black" points="552.62,-94.87 542.34,-97.43 551.97,-101.84 552.62,-94.87"/>
<text text-anchor="middle" x="582.84" y="-101.3" font-family="Times New Roman,serif" font-size="14.00">0.078</text>
</g>
<!-- 2 -->
<g id="node3" class="node">
<title>2</title>
<g id="a_node3"><a xlink:href="financial manager.svg" xlink:title="financial manager">
<ellipse fill="none" stroke="black" cx="105.69" cy="-18" rx="73.39" ry="18"/>
<text text-anchor="middle" x="105.69" y="-14.3" font-family="Times New Roman,serif" font-size="14.00">financial manager</text>
</a>
</g>
</g>
<!-- 1&#45;&gt;2 -->
<g id="edge11" class="edge">
<title>1&#45;&gt;2</title>
<path fill="none" stroke="black" d="M395.45,-99.53C321.02,-94.32 212.75,-84.41 173.69,-69 158.08,-62.84 142.82,-52.18 130.73,-42.28"/>
<polygon fill="black" stroke="black" points="132.78,-39.43 122.9,-35.62 128.24,-44.76 132.78,-39.43"/>
<text text-anchor="middle" x="189.19" y="-57.8" font-family="Times New Roman,serif" font-size="14.00">0.052</text>
</g>
<!-- 7 -->
<g id="node8" class="node">
<title>7</title>
<g id="a_node8"><a xlink:href="sales manager.svg" xlink:title="sales manager">
<ellipse fill="none" stroke="black" cx="258.69" cy="-18" rx="61.19" ry="18"/>
<text text-anchor="middle" x="258.69" y="-14.3" font-family="Times New Roman,serif" font-size="14.00">sales manager</text>
</a>
</g>
</g>
<!-- 1&#45;&gt;7 -->
<g id="edge16" class="edge">
<title>1&#45;&gt;7</title>
<path fill="none" stroke="black" d="M403.18,-95.71C375.64,-90.53 344.13,-82.23 317.69,-69 304.49,-62.39 291.74,-52.24 281.5,-42.8"/>
<polygon fill="black" stroke="black" points="283.82,-40.18 274.18,-35.79 278.98,-45.24 283.82,-40.18"/>
<text text-anchor="middle" x="333.19" y="-57.8" font-family="Times New Roman,serif" font-size="14.00">0.052</text>
</g>
<!-- 10 -->
<g id="node11" class="node">
<title>10</title>
<g id="a_node11"><a xlink:href="it consultant.svg" xlink:title="it consultant">
<ellipse fill="none" stroke="black" cx="392.69" cy="-18" rx="54.69" ry="18"/>
<text text-anchor="middle" x="392.69" y="-14.3" font-family="Times New Roman,serif" font-size="14.00">it consultant</text>
</a>
</g>
</g>
<!-- 1&#45;&gt;10 -->
<g id="edge13" class="edge">
<title>1&#45;&gt;10</title>
<path fill="none" stroke="black" d="M455.28,-87.21C443.67,-74.55 427.59,-57.03 414.63,-42.91"/>
<polygon fill="black" stroke="black" points="417.15,-40.47 407.81,-35.47 411.99,-45.2 417.15,-40.47"/>
<text text-anchor="middle" x="452.19" y="-57.8" font-family="Times New Roman,serif" font-size="14.00">0.052</text>
</g>
<!-- 11 -->
<g id="node12" class="node">
<title>11</title>
<g id="a_node12"><a xlink:href="production manager.svg" xlink:title="production manager">
<ellipse fill="none" stroke="black" cx="548.69" cy="-18" rx="83.39" ry="18"/>
<text text-anchor="middle" x="548.69" y="-14.3" font-family="Times New Roman,serif" font-size="14.00">production manager</text>
</a>
</g>
</g>
<!-- 1&#45;&gt;11 -->
<g id="edge14" class="edge">
<title>1&#45;&gt;11</title>
<path fill="none" stroke="black" d="M486.1,-87.21C497.64,-74.63 513.59,-57.25 526.5,-43.18"/>
<polygon fill="black" stroke="black" points="529.13,-45.49 533.31,-35.76 523.97,-40.76 529.13,-45.49"/>
<text text-anchor="middle" x="530.19" y="-57.8" font-family="Times New Roman,serif" font-size="14.00">0.052</text>
</g>
<!-- 12 -->
<g id="node13" class="node">
<title>12</title>
<g id="a_node13"><a xlink:href="project manager.svg" xlink:title="project manager">
<ellipse fill="none" stroke="black" cx="718.69" cy="-18" rx="68.79" ry="18"/>
<text text-anchor="middle" x="718.69" y="-14.3" font-family="Times New Roman,serif" font-size="14.00">project manager</text>
</a>
</g>
</g>
<!-- 1&#45;&gt;12 -->
<g id="edge15" class="edge">
<title>1&#45;&gt;12</title>
<path fill="none" stroke="black" d="M512.48,-89.68C555.69,-74.87 623.15,-51.75 669.05,-36.01"/>
<polygon fill="black" stroke="black" points="670.46,-39.23 678.79,-32.68 668.19,-32.61 670.46,-39.23"/>
<text text-anchor="middle" x="625.19" y="-57.8" font-family="Times New Roman,serif" font-size="14.00">0.052</text>
</g>
<!-- 13 -->
<g id="node14" class="node">
<title>13</title>
<g id="a_node14"><a xlink:href="systems analyst.svg" xlink:title="systems analyst">
<ellipse fill="none" stroke="black" cx="872.69" cy="-18" rx="67.69" ry="18"/>
<text text-anchor="middle" x="872.69" y="-14.3" font-family="Times New Roman,serif" font-size="14.00">systems analyst</text>
</a>
</g>
</g>
<!-- 1&#45;&gt;13 -->
<g id="edge17" class="edge">
<title>1&#45;&gt;13</title>
<path fill="none" stroke="black" d="M528.34,-92.63C562.25,-85.89 605.94,-77.1 644.69,-69 712.36,-54.85 729.18,-50.88 796.69,-36 801.97,-34.84 807.46,-33.62 812.96,-32.4"/>
<polygon fill="black" stroke="black" points="813.83,-35.79 822.83,-30.2 812.31,-28.96 813.83,-35.79"/>
<text text-anchor="middle" x="728.19" y="-57.8" font-family="Times New Roman,serif" font-size="14.00">0.052</text>
</g>
<!-- 14 -->
<g id="node15" class="node">
<title>14</title>
<g id="a_node15"><a xlink:href="armed forces officer.svg" xlink:title="armed forces officer">
<ellipse fill="none" stroke="black" cx="1043.69" cy="-18" rx="85.29" ry="18"/>
<text text-anchor="middle" x="1043.69" y="-14.3" font-family="Times New Roman,serif" font-size="14.00">armed forces officer</text>
</a>
</g>
</g>
<!-- 1&#45;&gt;14 -->
<g id="edge18" class="edge">
<title>1&#45;&gt;14</title>
<path fill="none" stroke="black" d="M539.09,-96.06C595.21,-89.37 676.69,-79.28 747.69,-69 837.72,-55.96 860.04,-51.43 949.69,-36 956.77,-34.78 964.15,-33.49 971.51,-32.18"/>
<polygon fill="black" stroke="black" points="972.3,-35.6 981.53,-30.4 971.07,-28.71 972.3,-35.6"/>
<text text-anchor="middle" x="857.19" y="-57.8" font-family="Times New Roman,serif" font-size="14.00">0.026</text>
</g>
<!-- 15 -->
<g id="node16" class="node">
<title>15</title>
<g id="a_node16"><a xlink:href="automotive engineer.svg" xlink:title="automotive engineer">
<ellipse fill="none" stroke="black" cx="1229.69" cy="-18" rx="83.39" ry="18"/>
<text text-anchor="middle" x="1229.69" y="-14.3" font-family="Times New Roman,serif" font-size="14.00">automotive engineer</text>
</a>
</g>
</g>
<!-- 1&#45;&gt;15 -->
<g id="edge19" class="edge">
<title>1&#45;&gt;15</title>
<path fill="none" stroke="black" d="M545.05,-98.99C668.59,-90.09 923.76,-69.26 1137.69,-36 1144.95,-34.87 1152.51,-33.61 1160.04,-32.3"/>
<polygon fill="black" stroke="black" points="1160.66,-35.75 1169.9,-30.56 1159.44,-28.86 1160.66,-35.75"/>
<text text-anchor="middle" x="1007.19" y="-57.8" font-family="Times New Roman,serif" font-size="14.00">0.026</text>
</g>
<!-- 2&#45;&gt;1 -->
<g id="edge2" class="edge">
<title>2&#45;&gt;1</title>
<path fill="none" stroke="black" d="M144.47,-33.38C175.34,-44.38 219.82,-59.28 259.69,-69 303.59,-79.7 353.43,-88.14 393.65,-94.05"/>
<polygon fill="black" stroke="black" points="393.26,-97.53 403.65,-95.49 394.26,-90.6 393.26,-97.53"/>
<text text-anchor="middle" x="275.19" y="-57.8" font-family="Times New Roman,serif" font-size="14.00">0.068</text>
</g>
<!-- 3 -->
<g id="node4" class="node">
<title>3</title>
<g id="a_node4"><a xlink:href="careers adviser.svg" xlink:title="careers adviser">
<ellipse fill="none" stroke="black" cx="236.69" cy="-192" rx="64.99" ry="18"/>
<text text-anchor="middle" x="236.69" y="-188.3" font-family="Times New Roman,serif" font-size="14.00">careers adviser</text>
</a>
</g>
</g>
<!-- 3&#45;&gt;1 -->
<g id="edge3" class="edge">
<title>3&#45;&gt;1</title>
<path fill="none" stroke="black" d="M274.55,-177.25C314.35,-162.79 377.17,-139.97 420.95,-124.07"/>
<polygon fill="black" stroke="black" points="422.33,-127.29 430.54,-120.59 419.94,-120.71 422.33,-127.29"/>
<text text-anchor="middle" x="384.19" y="-144.8" font-family="Times New Roman,serif" font-size="14.00">0.045</text>
</g>
<!-- 4 -->
<g id="node5" class="node">
<title>4</title>
<g id="a_node5"><a xlink:href="hotel manager.svg" xlink:title="hotel manager">
<ellipse fill="none" stroke="black" cx="380.69" cy="-192" rx="61.19" ry="18"/>
<text text-anchor="middle" x="380.69" y="-188.3" font-family="Times New Roman,serif" font-size="14.00">hotel manager</text>
</a>
</g>
</g>
<!-- 4&#45;&gt;1 -->
<g id="edge4" class="edge">
<title>4&#45;&gt;1</title>
<path fill="none" stroke="black" d="M398.05,-174.61C411.53,-161.88 430.42,-144.03 445.56,-129.74"/>
<polygon fill="black" stroke="black" points="448.22,-132.04 453.09,-122.63 443.41,-126.95 448.22,-132.04"/>
<text text-anchor="middle" x="447.19" y="-144.8" font-family="Times New Roman,serif" font-size="14.00">0.045</text>
</g>
<!-- 5 -->
<g id="node6" class="node">
<title>5</title>
<g id="a_node6"><a xlink:href="investment fund manager.svg" xlink:title="investment fund manager">
<ellipse fill="none" stroke="black" cx="560.69" cy="-192" rx="100.98" ry="18"/>
<text text-anchor="middle" x="560.69" y="-188.3" font-family="Times New Roman,serif" font-size="14.00">investment fund manager</text>
</a>
</g>
</g>
<!-- 5&#45;&gt;1 -->
<g id="edge5" class="edge">
<title>5&#45;&gt;1</title>
<path fill="none" stroke="black" d="M542.91,-174.21C529.48,-161.52 510.85,-143.93 495.89,-129.79"/>
<polygon fill="black" stroke="black" points="498.11,-127.08 488.44,-122.76 493.3,-132.17 498.11,-127.08"/>
<text text-anchor="middle" x="537.19" y="-144.8" font-family="Times New Roman,serif" font-size="14.00">0.045</text>
</g>
<!-- 6 -->
<g id="node7" class="node">
<title>6</title>
<g id="a_node7"><a xlink:href="logistics manager.svg" xlink:title="logistics manager">
<ellipse fill="none" stroke="black" cx="752.69" cy="-192" rx="73.39" ry="18"/>
<text text-anchor="middle" x="752.69" y="-188.3" font-family="Times New Roman,serif" font-size="14.00">logistics manager</text>
</a>
</g>
</g>
<!-- 6&#45;&gt;1 -->
<g id="edge6" class="edge">
<title>6&#45;&gt;1</title>
<path fill="none" stroke="black" d="M708.32,-177.63C658.97,-162.75 579.18,-138.7 525.85,-122.62"/>
<polygon fill="black" stroke="black" points="526.79,-119.25 516.21,-119.72 524.77,-125.96 526.79,-119.25"/>
<text text-anchor="middle" x="644.19" y="-144.8" font-family="Times New Roman,serif" font-size="14.00">0.045</text>
</g>
<!-- 7&#45;&gt;1 -->
<g id="edge7" class="edge">
<title>7&#45;&gt;1</title>
<path fill="none" stroke="black" d="M293.28,-32.87C328.74,-47.09 384.16,-69.31 423.61,-85.12"/>
<polygon fill="black" stroke="black" points="422.7,-88.53 433.28,-89 425.3,-82.03 422.7,-88.53"/>
<text text-anchor="middle" x="393.19" y="-57.8" font-family="Times New Roman,serif" font-size="14.00">0.045</text>
</g>
<!-- 8 -->
<g id="node9" class="node">
<title>8</title>
<g id="a_node9"><a xlink:href="accountant.svg" xlink:title="accountant">
<ellipse fill="none" stroke="black" cx="893.69" cy="-192" rx="50.09" ry="18"/>
<text text-anchor="middle" x="893.69" y="-188.3" font-family="Times New Roman,serif" font-size="14.00">accountant</text>
</a>
</g>
</g>
<!-- 8&#45;&gt;1 -->
<g id="edge8" class="edge">
<title>8&#45;&gt;1</title>
<path fill="none" stroke="black" d="M856.69,-179.79C849.43,-177.74 841.85,-175.72 834.69,-174 734.84,-150.03 617.88,-129.5 544.03,-117.45"/>
<polygon fill="black" stroke="black" points="544.34,-113.95 533.91,-115.8 543.22,-120.86 544.34,-113.95"/>
<text text-anchor="middle" x="760.19" y="-144.8" font-family="Times New Roman,serif" font-size="14.00">0.022</text>
</g>
<!-- 9 -->
<g id="node10" class="node">
<title>9</title>
<g id="a_node10"><a xlink:href="catering manager.svg" xlink:title="catering manager">
<ellipse fill="none" stroke="black" cx="1033.69" cy="-192" rx="71.49" ry="18"/>
<text text-anchor="middle" x="1033.69" y="-188.3" font-family="Times New Roman,serif" font-size="14.00">catering manager</text>
</a>
</g>
</g>
<!-- 9&#45;&gt;1 -->
<g id="edge9" class="edge">
<title>9&#45;&gt;1</title>
<path fill="none" stroke="black" d="M981,-179.79C971.58,-177.83 961.85,-175.83 952.69,-174 875.94,-158.63 857.08,-152.75 779.69,-141 702.96,-129.35 614.98,-119.75 552.57,-113.57"/>
<polygon fill="black" stroke="black" points="552.68,-110.06 542.39,-112.57 552,-117.03 552.68,-110.06"/>
<text text-anchor="middle" x="878.19" y="-144.8" font-family="Times New Roman,serif" font-size="14.00">0.022</text>
</g>
</g>
</svg>
