<?xml version="1.0" encoding="UTF-8" standalone="no"?>
<!DOCTYPE svg PUBLIC "-//W3C//DTD SVG 1.1//EN"
 "http://www.w3.org/Graphics/SVG/1.1/DTD/svg11.dtd">
<!-- Generated by graphviz version 2.44.1 (20200629.0800)
 -->
<!-- Title: test Pages: 1 -->
<svg width="1277pt" height="218pt"
 viewBox="0.00 0.00 1276.64 218.00" xmlns="http://www.w3.org/2000/svg" xmlns:xlink="http://www.w3.org/1999/xlink">
<g id="graph0" class="graph" transform="scale(1 1) rotate(0) translate(4 214)">
<title>test</title>
<polygon fill="white" stroke="transparent" points="-4,4 -4,-214 1272.64,-214 1272.64,4 -4,4"/>
<!-- 0 -->
<g id="node1" class="node">
<title>0</title>
<g id="a_node1"><a xlink:href="journalist.svg" xlink:title="journalist">
<ellipse fill="none" stroke="black" cx="287.19" cy="-192" rx="43.59" ry="18"/>
<text text-anchor="middle" x="287.19" y="-188.3" font-family="Times New Roman,serif" font-size="14.00">journalist</text>
</a>
</g>
</g>
<!-- 1 -->
<g id="node2" class="node">
<title>1</title>
<g id="a_node2"><a xlink:href="commissioning editor.svg" xlink:title="commissioning editor">
<ellipse fill="none" stroke="black" cx="428.19" cy="-105" rx="89.08" ry="18"/>
<text text-anchor="middle" x="428.19" y="-101.3" font-family="Times New Roman,serif" font-size="14.00">commissioning editor</text>
</a>
</g>
</g>
<!-- 0&#45;&gt;1 -->
<g id="edge1" class="edge">
<title>0&#45;&gt;1</title>
<path fill="none" stroke="black" d="M292.23,-173.95C296.26,-163.08 302.96,-149.5 313.19,-141 324.21,-131.84 337.59,-125.08 351.28,-120.09"/>
<polygon fill="black" stroke="black" points="352.4,-123.4 360.77,-116.9 350.18,-116.76 352.4,-123.4"/>
<text text-anchor="middle" x="328.69" y="-144.8" font-family="Times New Roman,serif" font-size="14.00">0.136</text>
</g>
<!-- 1&#45;&gt;0 -->
<g id="edge14" class="edge">
<title>1&#45;&gt;0</title>
<path fill="none" stroke="black" d="M401.14,-122.31C377.84,-136.36 344.15,-156.66 319.45,-171.55"/>
<polygon fill="black" stroke="black" points="317.55,-168.61 310.79,-176.77 321.17,-174.61 317.55,-168.61"/>
<text text-anchor="middle" x="381.69" y="-144.8" font-family="Times New Roman,serif" font-size="14.00">0.051</text>
</g>
<!-- 1&#45;&gt;1 -->
<g id="edge10" class="edge">
<title>1&#45;&gt;1</title>
<path fill="none" stroke="black" d="M509.41,-112.47C524.56,-111.55 535.24,-109.06 535.24,-105 535.24,-101.92 529.11,-99.75 519.54,-98.47"/>
<polygon fill="black" stroke="black" points="519.69,-94.97 509.41,-97.53 519.04,-101.94 519.69,-94.97"/>
<text text-anchor="middle" x="550.74" y="-101.3" font-family="Times New Roman,serif" font-size="14.00">0.311</text>
</g>
<!-- 2 -->
<g id="node3" class="node">
<title>2</title>
<g id="a_node3"><a xlink:href="content manager.svg" xlink:title="content manager">
<ellipse fill="none" stroke="black" cx="70.19" cy="-18" rx="70.39" ry="18"/>
<text text-anchor="middle" x="70.19" y="-14.3" font-family="Times New Roman,serif" font-size="14.00">content manager</text>
</a>
</g>
</g>
<!-- 1&#45;&gt;2 -->
<g id="edge13" class="edge">
<title>1&#45;&gt;2</title>
<path fill="none" stroke="black" d="M339.53,-103.3C256.17,-101.1 138.62,-93.54 100.19,-69 91.46,-63.42 84.91,-54.3 80.2,-45.37"/>
<polygon fill="black" stroke="black" points="83.35,-43.85 75.94,-36.28 77.01,-46.82 83.35,-43.85"/>
<text text-anchor="middle" x="115.69" y="-57.8" font-family="Times New Roman,serif" font-size="14.00">0.064</text>
</g>
<!-- 3 -->
<g id="node4" class="node">
<title>3</title>
<g id="a_node4"><a xlink:href="writer.svg" xlink:title="writer">
<ellipse fill="none" stroke="black" cx="189.19" cy="-18" rx="31.4" ry="18"/>
<text text-anchor="middle" x="189.19" y="-14.3" font-family="Times New Roman,serif" font-size="14.00">writer</text>
</a>
</g>
</g>
<!-- 1&#45;&gt;3 -->
<g id="edge12" class="edge">
<title>1&#45;&gt;3</title>
<path fill="none" stroke="black" d="M348.01,-97.15C298.99,-91.7 241.86,-82.68 221.19,-69 212.39,-63.18 205.51,-54.01 200.42,-45.11"/>
<polygon fill="black" stroke="black" points="203.46,-43.36 195.76,-36.07 197.24,-46.57 203.46,-43.36"/>
<text text-anchor="middle" x="236.69" y="-57.8" font-family="Times New Roman,serif" font-size="14.00">0.090</text>
</g>
<!-- 5 -->
<g id="node6" class="node">
<title>5</title>
<g id="a_node6"><a xlink:href="marketing executive.svg" xlink:title="marketing executive">
<ellipse fill="none" stroke="black" cx="320.19" cy="-18" rx="81.79" ry="18"/>
<text text-anchor="middle" x="320.19" y="-14.3" font-family="Times New Roman,serif" font-size="14.00">marketing executive</text>
</a>
</g>
</g>
<!-- 1&#45;&gt;5 -->
<g id="edge16" class="edge">
<title>1&#45;&gt;5</title>
<path fill="none" stroke="black" d="M368.12,-91.7C355.13,-86.56 342.52,-79.29 333.19,-69 327.52,-62.74 324.26,-54.31 322.41,-46.16"/>
<polygon fill="black" stroke="black" points="325.84,-45.46 320.74,-36.17 318.94,-46.62 325.84,-45.46"/>
<text text-anchor="middle" x="348.69" y="-57.8" font-family="Times New Roman,serif" font-size="14.00">0.038</text>
</g>
<!-- 6 -->
<g id="node7" class="node">
<title>6</title>
<g id="a_node7"><a xlink:href="it consultant.svg" xlink:title="it consultant">
<ellipse fill="none" stroke="black" cx="474.19" cy="-18" rx="54.69" ry="18"/>
<text text-anchor="middle" x="474.19" y="-14.3" font-family="Times New Roman,serif" font-size="14.00">it consultant</text>
</a>
</g>
</g>
<!-- 1&#45;&gt;6 -->
<g id="edge19" class="edge">
<title>1&#45;&gt;6</title>
<path fill="none" stroke="black" d="M422.97,-86.89C420.88,-76.79 420.02,-64.05 425.19,-54 427.98,-48.58 432.04,-43.82 436.65,-39.69"/>
<polygon fill="black" stroke="black" points="439.06,-42.24 444.79,-33.33 434.75,-36.73 439.06,-42.24"/>
<text text-anchor="middle" x="440.69" y="-57.8" font-family="Times New Roman,serif" font-size="14.00">0.025</text>
</g>
<!-- 9 -->
<g id="node10" class="node">
<title>9</title>
<g id="a_node10"><a xlink:href="production manager.svg" xlink:title="production manager">
<ellipse fill="none" stroke="black" cx="630.19" cy="-18" rx="83.39" ry="18"/>
<text text-anchor="middle" x="630.19" y="-14.3" font-family="Times New Roman,serif" font-size="14.00">production manager</text>
</a>
</g>
</g>
<!-- 1&#45;&gt;9 -->
<g id="edge11" class="edge">
<title>1&#45;&gt;9</title>
<path fill="none" stroke="black" d="M464.58,-88.51C487.9,-78.61 518.81,-65.51 546.19,-54 558.38,-48.88 571.56,-43.37 583.8,-38.27"/>
<polygon fill="black" stroke="black" points="585.49,-41.36 593.37,-34.29 582.8,-34.9 585.49,-41.36"/>
<text text-anchor="middle" x="561.69" y="-57.8" font-family="Times New Roman,serif" font-size="14.00">0.090</text>
</g>
<!-- 10 -->
<g id="node11" class="node">
<title>10</title>
<g id="a_node11"><a xlink:href="pharmacovigilance officer.svg" xlink:title="pharmacovigilance officer">
<ellipse fill="none" stroke="black" cx="836.19" cy="-18" rx="104.78" ry="18"/>
<text text-anchor="middle" x="836.19" y="-14.3" font-family="Times New Roman,serif" font-size="14.00">pharmacovigilance officer</text>
</a>
</g>
</g>
<!-- 1&#45;&gt;10 -->
<g id="edge15" class="edge">
<title>1&#45;&gt;10</title>
<path fill="none" stroke="black" d="M497.44,-93.65C537.77,-87.28 589.52,-78.53 635.19,-69 681.6,-59.32 733.51,-46.35 772.95,-36.05"/>
<polygon fill="black" stroke="black" points="773.92,-39.41 782.7,-33.49 772.14,-32.64 773.92,-39.41"/>
<text text-anchor="middle" x="711.69" y="-57.8" font-family="Times New Roman,serif" font-size="14.00">0.051</text>
</g>
<!-- 11 -->
<g id="node12" class="node">
<title>11</title>
<g id="a_node12"><a xlink:href="facilities manager.svg" xlink:title="facilities manager">
<ellipse fill="none" stroke="black" cx="1031.19" cy="-18" rx="72.59" ry="18"/>
<text text-anchor="middle" x="1031.19" y="-14.3" font-family="Times New Roman,serif" font-size="14.00">facilities manager</text>
</a>
</g>
</g>
<!-- 1&#45;&gt;11 -->
<g id="edge17" class="edge">
<title>1&#45;&gt;11</title>
<path fill="none" stroke="black" d="M506.38,-96.22C608.78,-85.47 793.69,-64.19 950.19,-36 956.08,-34.94 962.2,-33.77 968.31,-32.57"/>
<polygon fill="black" stroke="black" points="969.45,-35.91 978.56,-30.5 968.06,-29.05 969.45,-35.91"/>
<text text-anchor="middle" x="851.69" y="-57.8" font-family="Times New Roman,serif" font-size="14.00">0.025</text>
</g>
<!-- 12 -->
<g id="node13" class="node">
<title>12</title>
<g id="a_node13"><a xlink:href="financial manager.svg" xlink:title="financial manager">
<ellipse fill="none" stroke="black" cx="1195.19" cy="-18" rx="73.39" ry="18"/>
<text text-anchor="middle" x="1195.19" y="-14.3" font-family="Times New Roman,serif" font-size="14.00">financial manager</text>
</a>
</g>
</g>
<!-- 1&#45;&gt;12 -->
<g id="edge18" class="edge">
<title>1&#45;&gt;12</title>
<path fill="none" stroke="black" d="M513.08,-99.46C643.04,-91.64 898.82,-72.79 1113.19,-36 1119.4,-34.93 1125.85,-33.74 1132.29,-32.5"/>
<polygon fill="black" stroke="black" points="1133.23,-35.88 1142.36,-30.51 1131.87,-29.01 1133.23,-35.88"/>
<text text-anchor="middle" x="997.69" y="-57.8" font-family="Times New Roman,serif" font-size="14.00">0.025</text>
</g>
<!-- 2&#45;&gt;1 -->
<g id="edge2" class="edge">
<title>2&#45;&gt;1</title>
<path fill="none" stroke="black" d="M96.5,-34.82C116.55,-46.14 145.22,-60.78 172.19,-69 224.38,-84.9 284.76,-93.6 333.77,-98.34"/>
<polygon fill="black" stroke="black" points="333.45,-101.83 343.73,-99.27 334.1,-94.86 333.45,-101.83"/>
<text text-anchor="middle" x="187.69" y="-57.8" font-family="Times New Roman,serif" font-size="14.00">0.052</text>
</g>
<!-- 3&#45;&gt;1 -->
<g id="edge3" class="edge">
<title>3&#45;&gt;1</title>
<path fill="none" stroke="black" d="M210.67,-31.3C230.72,-42.37 261.75,-58.49 290.19,-69 311.81,-76.99 335.98,-83.8 357.98,-89.23"/>
<polygon fill="black" stroke="black" points="357.38,-92.69 367.92,-91.63 359.02,-85.88 357.38,-92.69"/>
<text text-anchor="middle" x="305.69" y="-57.8" font-family="Times New Roman,serif" font-size="14.00">0.052</text>
</g>
<!-- 4 -->
<g id="node5" class="node">
<title>4</title>
<g id="a_node5"><a xlink:href="marketing assistant.svg" xlink:title="marketing assistant">
<ellipse fill="none" stroke="black" cx="428.19" cy="-192" rx="79.09" ry="18"/>
<text text-anchor="middle" x="428.19" y="-188.3" font-family="Times New Roman,serif" font-size="14.00">marketing assistant</text>
</a>
</g>
</g>
<!-- 4&#45;&gt;1 -->
<g id="edge4" class="edge">
<title>4&#45;&gt;1</title>
<path fill="none" stroke="black" d="M428.19,-173.8C428.19,-162.16 428.19,-146.55 428.19,-133.24"/>
<polygon fill="black" stroke="black" points="431.69,-133.18 428.19,-123.18 424.69,-133.18 431.69,-133.18"/>
<text text-anchor="middle" x="443.69" y="-144.8" font-family="Times New Roman,serif" font-size="14.00">0.031</text>
</g>
<!-- 5&#45;&gt;1 -->
<g id="edge5" class="edge">
<title>5&#45;&gt;1</title>
<path fill="none" stroke="black" d="M341.22,-35.55C357.71,-48.53 380.84,-66.73 399.11,-81.11"/>
<polygon fill="black" stroke="black" points="397.09,-83.98 407.11,-87.41 401.42,-78.47 397.09,-83.98"/>
<text text-anchor="middle" x="396.69" y="-57.8" font-family="Times New Roman,serif" font-size="14.00">0.031</text>
</g>
<!-- 6&#45;&gt;1 -->
<g id="edge6" class="edge">
<title>6&#45;&gt;1</title>
<path fill="none" stroke="black" d="M471.39,-36.43C469.29,-46.41 465.79,-58.91 460.19,-69 458.23,-72.54 455.83,-76.02 453.25,-79.32"/>
<polygon fill="black" stroke="black" points="450.42,-77.24 446.57,-87.11 455.74,-81.79 450.42,-77.24"/>
<text text-anchor="middle" x="481.69" y="-57.8" font-family="Times New Roman,serif" font-size="14.00">0.021</text>
</g>
<!-- 7 -->
<g id="node8" class="node">
<title>7</title>
<g id="a_node8"><a xlink:href="lecturer.svg" xlink:title="lecturer">
<ellipse fill="none" stroke="black" cx="563.19" cy="-192" rx="37.89" ry="18"/>
<text text-anchor="middle" x="563.19" y="-188.3" font-family="Times New Roman,serif" font-size="14.00">lecturer</text>
</a>
</g>
</g>
<!-- 7&#45;&gt;1 -->
<g id="edge7" class="edge">
<title>7&#45;&gt;1</title>
<path fill="none" stroke="black" d="M541.2,-177.15C520.04,-163.83 487.71,-143.48 463.05,-127.94"/>
<polygon fill="black" stroke="black" points="464.67,-124.83 454.34,-122.46 460.94,-130.75 464.67,-124.83"/>
<text text-anchor="middle" x="518.69" y="-144.8" font-family="Times New Roman,serif" font-size="14.00">0.021</text>
</g>
<!-- 8 -->
<g id="node9" class="node">
<title>8</title>
<g id="a_node9"><a xlink:href="pr officer.svg" xlink:title="pr officer">
<ellipse fill="none" stroke="black" cx="664.19" cy="-192" rx="44.69" ry="18"/>
<text text-anchor="middle" x="664.19" y="-188.3" font-family="Times New Roman,serif" font-size="14.00">pr officer</text>
</a>
</g>
</g>
<!-- 8&#45;&gt;1 -->
<g id="edge8" class="edge">
<title>8&#45;&gt;1</title>
<path fill="none" stroke="black" d="M634.38,-178.49C608.98,-168 571.44,-152.87 538.19,-141 521.15,-134.92 502.45,-128.77 485.38,-123.36"/>
<polygon fill="black" stroke="black" points="486.13,-119.93 475.54,-120.27 484.03,-126.61 486.13,-119.93"/>
<text text-anchor="middle" x="591.69" y="-144.8" font-family="Times New Roman,serif" font-size="14.00">0.021</text>
</g>
<!-- 9&#45;&gt;1 -->
<g id="edge9" class="edge">
<title>9&#45;&gt;1</title>
<path fill="none" stroke="black" d="M617.89,-35.86C608.93,-46.92 595.83,-60.81 581.19,-69 560.79,-80.42 536.88,-88.11 514.1,-93.3"/>
<polygon fill="black" stroke="black" points="513.12,-89.93 504.08,-95.44 514.59,-96.77 513.12,-89.93"/>
<text text-anchor="middle" x="615.69" y="-57.8" font-family="Times New Roman,serif" font-size="14.00">0.021</text>
</g>
</g>
</svg>
