<?xml version="1.0" encoding="UTF-8" standalone="no"?>
<!DOCTYPE svg PUBLIC "-//W3C//DTD SVG 1.1//EN"
 "http://www.w3.org/Graphics/SVG/1.1/DTD/svg11.dtd">
<!-- Generated by graphviz version 2.44.1 (20200629.0800)
 -->
<!-- Title: commercial_horticulturist Pages: 1 -->
<svg width="1366pt" height="218pt"
 viewBox="0.00 0.00 1366.48 218.00" xmlns="http://www.w3.org/2000/svg" xmlns:xlink="http://www.w3.org/1999/xlink">
<g id="graph0" class="graph" transform="scale(1 1) rotate(0) translate(4 214)">
<title>commercial_horticulturist</title>
<polygon fill="white" stroke="transparent" points="-4,4 -4,-214 1362.48,-214 1362.48,4 -4,4"/>
<!-- 0 -->
<g id="node1" class="node">
<title>0</title>
<g id="a_node1"><a xlink:href="financial manager.svg" xlink:title="financial manager">
<ellipse fill="none" stroke="black" cx="73.44" cy="-192" rx="73.39" ry="18"/>
<text text-anchor="middle" x="73.44" y="-188.3" font-family="Times New Roman,serif" font-size="14.00">financial manager</text>
</a>
</g>
</g>
<!-- 1 -->
<g id="node2" class="node">
<title>1</title>
<g id="a_node2"><a xlink:href="commercial horticulturist.svg" xlink:title="commercial horticulturist">
<ellipse fill="none" stroke="black" cx="554.44" cy="-105" rx="100.98" ry="18"/>
<text text-anchor="middle" x="554.44" y="-101.3" font-family="Times New Roman,serif" font-size="14.00">commercial horticulturist</text>
</a>
</g>
</g>
<!-- 0&#45;&gt;1 -->
<g id="edge1" class="edge">
<title>0&#45;&gt;1</title>
<path fill="none" stroke="black" d="M82.81,-173.98C90.1,-162.54 101.34,-148.27 115.44,-141 170.56,-112.6 332.04,-106.14 442.99,-105.21"/>
<polygon fill="black" stroke="black" points="443.26,-108.71 453.23,-105.14 443.21,-101.71 443.26,-108.71"/>
<text text-anchor="middle" x="130.94" y="-144.8" font-family="Times New Roman,serif" font-size="14.00">0.066</text>
</g>
<!-- 1&#45;&gt;0 -->
<g id="edge15" class="edge">
<title>1&#45;&gt;0</title>
<path fill="none" stroke="black" d="M481.66,-117.54C401.74,-130.41 269.7,-152.3 156.44,-174 150.28,-175.18 143.87,-176.44 137.46,-177.72"/>
<polygon fill="black" stroke="black" points="136.54,-174.33 127.43,-179.74 137.92,-181.2 136.54,-174.33"/>
<text text-anchor="middle" x="346.94" y="-144.8" font-family="Times New Roman,serif" font-size="14.00">0.052</text>
</g>
<!-- 1&#45;&gt;1 -->
<g id="edge13" class="edge">
<title>1&#45;&gt;1</title>
<path fill="none" stroke="black" d="M646.55,-112.35C662.28,-111.35 673.18,-108.9 673.18,-105 673.18,-102.02 666.79,-99.88 656.74,-98.59"/>
<polygon fill="black" stroke="black" points="656.83,-95.09 646.55,-97.65 656.18,-102.06 656.83,-95.09"/>
<text text-anchor="middle" x="688.68" y="-101.3" font-family="Times New Roman,serif" font-size="14.00">0.052</text>
</g>
<!-- 4 -->
<g id="node5" class="node">
<title>4</title>
<g id="a_node5"><a xlink:href="sales manager.svg" xlink:title="sales manager">
<ellipse fill="none" stroke="black" cx="86.44" cy="-18" rx="61.19" ry="18"/>
<text text-anchor="middle" x="86.44" y="-14.3" font-family="Times New Roman,serif" font-size="14.00">sales manager</text>
</a>
</g>
</g>
<!-- 1&#45;&gt;4 -->
<g id="edge12" class="edge">
<title>1&#45;&gt;4</title>
<path fill="none" stroke="black" d="M456.96,-100.39C389.52,-96.3 298.12,-87.58 219.44,-69 187.72,-61.51 153.32,-48.43 127.45,-37.53"/>
<polygon fill="black" stroke="black" points="128.55,-34.19 117.98,-33.48 125.79,-40.63 128.55,-34.19"/>
<text text-anchor="middle" x="234.94" y="-57.8" font-family="Times New Roman,serif" font-size="14.00">0.078</text>
</g>
<!-- 10 -->
<g id="node11" class="node">
<title>10</title>
<g id="a_node11"><a xlink:href="production manager.svg" xlink:title="production manager">
<ellipse fill="none" stroke="black" cx="248.44" cy="-18" rx="83.39" ry="18"/>
<text text-anchor="middle" x="248.44" y="-14.3" font-family="Times New Roman,serif" font-size="14.00">production manager</text>
</a>
</g>
</g>
<!-- 1&#45;&gt;10 -->
<g id="edge10" class="edge">
<title>1&#45;&gt;10</title>
<path fill="none" stroke="black" d="M502.19,-89.48C448.08,-74.46 363.72,-51.02 307.3,-35.35"/>
<polygon fill="black" stroke="black" points="308.02,-31.92 297.45,-32.61 306.15,-38.66 308.02,-31.92"/>
<text text-anchor="middle" x="435.94" y="-57.8" font-family="Times New Roman,serif" font-size="14.00">0.078</text>
</g>
<!-- 11 -->
<g id="node12" class="node">
<title>11</title>
<g id="a_node12"><a xlink:href="qa analyst.svg" xlink:title="qa analyst">
<ellipse fill="none" stroke="black" cx="396.44" cy="-18" rx="46.59" ry="18"/>
<text text-anchor="middle" x="396.44" y="-14.3" font-family="Times New Roman,serif" font-size="14.00">qa analyst</text>
</a>
</g>
</g>
<!-- 1&#45;&gt;11 -->
<g id="edge11" class="edge">
<title>1&#45;&gt;11</title>
<path fill="none" stroke="black" d="M524.35,-87.81C497.89,-73.57 459.35,-52.84 431.5,-37.86"/>
<polygon fill="black" stroke="black" points="432.96,-34.67 422.49,-33.01 429.64,-40.83 432.96,-34.67"/>
<text text-anchor="middle" x="500.94" y="-57.8" font-family="Times New Roman,serif" font-size="14.00">0.078</text>
</g>
<!-- 12 -->
<g id="node13" class="node">
<title>12</title>
<g id="a_node13"><a xlink:href="environmental manager.svg" xlink:title="environmental manager">
<ellipse fill="none" stroke="black" cx="554.44" cy="-18" rx="93.68" ry="18"/>
<text text-anchor="middle" x="554.44" y="-14.3" font-family="Times New Roman,serif" font-size="14.00">environmental manager</text>
</a>
</g>
</g>
<!-- 1&#45;&gt;12 -->
<g id="edge14" class="edge">
<title>1&#45;&gt;12</title>
<path fill="none" stroke="black" d="M554.44,-86.8C554.44,-75.16 554.44,-59.55 554.44,-46.24"/>
<polygon fill="black" stroke="black" points="557.94,-46.18 554.44,-36.18 550.94,-46.18 557.94,-46.18"/>
<text text-anchor="middle" x="569.94" y="-57.8" font-family="Times New Roman,serif" font-size="14.00">0.052</text>
</g>
<!-- 13 -->
<g id="node14" class="node">
<title>13</title>
<g id="a_node14"><a xlink:href="investment analyst.svg" xlink:title="investment analyst">
<ellipse fill="none" stroke="black" cx="742.44" cy="-18" rx="76.89" ry="18"/>
<text text-anchor="middle" x="742.44" y="-14.3" font-family="Times New Roman,serif" font-size="14.00">investment analyst</text>
</a>
</g>
</g>
<!-- 1&#45;&gt;13 -->
<g id="edge16" class="edge">
<title>1&#45;&gt;13</title>
<path fill="none" stroke="black" d="M589.8,-88.01C620.88,-73.96 666.19,-53.48 699.37,-38.47"/>
<polygon fill="black" stroke="black" points="701.15,-41.51 708.82,-34.2 698.27,-35.13 701.15,-41.51"/>
<text text-anchor="middle" x="675.94" y="-57.8" font-family="Times New Roman,serif" font-size="14.00">0.052</text>
</g>
<!-- 14 -->
<g id="node15" class="node">
<title>14</title>
<g id="a_node15"><a xlink:href="teacher.svg" xlink:title="teacher">
<ellipse fill="none" stroke="black" cx="873.44" cy="-18" rx="36.29" ry="18"/>
<text text-anchor="middle" x="873.44" y="-14.3" font-family="Times New Roman,serif" font-size="14.00">teacher</text>
</a>
</g>
</g>
<!-- 1&#45;&gt;14 -->
<g id="edge17" class="edge">
<title>1&#45;&gt;14</title>
<path fill="none" stroke="black" d="M616.5,-90.8C672.42,-78.38 756.62,-58.39 828.44,-36 831.04,-35.19 833.71,-34.31 836.39,-33.39"/>
<polygon fill="black" stroke="black" points="837.78,-36.61 846.02,-29.95 835.42,-30.02 837.78,-36.61"/>
<text text-anchor="middle" x="777.94" y="-57.8" font-family="Times New Roman,serif" font-size="14.00">0.052</text>
</g>
<!-- 15 -->
<g id="node16" class="node">
<title>15</title>
<g id="a_node16"><a xlink:href="accountant.svg" xlink:title="accountant">
<ellipse fill="none" stroke="black" cx="977.44" cy="-18" rx="50.09" ry="18"/>
<text text-anchor="middle" x="977.44" y="-14.3" font-family="Times New Roman,serif" font-size="14.00">accountant</text>
</a>
</g>
</g>
<!-- 1&#45;&gt;15 -->
<g id="edge18" class="edge">
<title>1&#45;&gt;15</title>
<path fill="none" stroke="black" d="M636.99,-94.67C684.22,-88.7 744.44,-80 797.44,-69 852.02,-57.67 864.77,-51.05 918.44,-36 922.2,-34.95 926.1,-33.84 930.01,-32.73"/>
<polygon fill="black" stroke="black" points="931.04,-36.08 939.7,-29.96 929.12,-29.35 931.04,-36.08"/>
<text text-anchor="middle" x="870.94" y="-57.8" font-family="Times New Roman,serif" font-size="14.00">0.026</text>
</g>
<!-- 16 -->
<g id="node17" class="node">
<title>16</title>
<g id="a_node17"><a xlink:href="actuary.svg" xlink:title="actuary">
<ellipse fill="none" stroke="black" cx="1082.44" cy="-18" rx="37.09" ry="18"/>
<text text-anchor="middle" x="1082.44" y="-14.3" font-family="Times New Roman,serif" font-size="14.00">actuary</text>
</a>
</g>
</g>
<!-- 1&#45;&gt;16 -->
<g id="edge19" class="edge">
<title>1&#45;&gt;16</title>
<path fill="none" stroke="black" d="M646.1,-97.4C713.87,-91.81 808.27,-82.52 890.44,-69 956.09,-58.2 972.66,-54.9 1036.44,-36 1039.2,-35.18 1042.03,-34.29 1044.86,-33.35"/>
<polygon fill="black" stroke="black" points="1046.12,-36.61 1054.42,-30.02 1043.83,-30 1046.12,-36.61"/>
<text text-anchor="middle" x="983.94" y="-57.8" font-family="Times New Roman,serif" font-size="14.00">0.026</text>
</g>
<!-- 2 -->
<g id="node3" class="node">
<title>2</title>
<g id="a_node3"><a xlink:href="insurance broker.svg" xlink:title="insurance broker">
<ellipse fill="none" stroke="black" cx="236.44" cy="-192" rx="71.49" ry="18"/>
<text text-anchor="middle" x="236.44" y="-188.3" font-family="Times New Roman,serif" font-size="14.00">insurance broker</text>
</a>
</g>
</g>
<!-- 2&#45;&gt;1 -->
<g id="edge2" class="edge">
<title>2&#45;&gt;1</title>
<path fill="none" stroke="black" d="M283.71,-178.37C338.69,-163.67 429.73,-139.34 490.88,-122.99"/>
<polygon fill="black" stroke="black" points="492.04,-126.3 500.8,-120.34 490.24,-119.54 492.04,-126.3"/>
<text text-anchor="middle" x="430.94" y="-144.8" font-family="Times New Roman,serif" font-size="14.00">0.066</text>
</g>
<!-- 3 -->
<g id="node4" class="node">
<title>3</title>
<g id="a_node4"><a xlink:href="project manager.svg" xlink:title="project manager">
<ellipse fill="none" stroke="black" cx="394.44" cy="-192" rx="68.79" ry="18"/>
<text text-anchor="middle" x="394.44" y="-188.3" font-family="Times New Roman,serif" font-size="14.00">project manager</text>
</a>
</g>
</g>
<!-- 3&#45;&gt;1 -->
<g id="edge3" class="edge">
<title>3&#45;&gt;1</title>
<path fill="none" stroke="black" d="M423.42,-175.61C449.02,-162.01 486.57,-142.06 514.92,-127"/>
<polygon fill="black" stroke="black" points="516.59,-130.07 523.78,-122.29 513.3,-123.89 516.59,-130.07"/>
<text text-anchor="middle" x="499.94" y="-144.8" font-family="Times New Roman,serif" font-size="14.00">0.066</text>
</g>
<!-- 4&#45;&gt;1 -->
<g id="edge4" class="edge">
<title>4&#45;&gt;1</title>
<path fill="none" stroke="black" d="M131.15,-30.34C139.53,-32.33 148.24,-34.3 156.44,-36 263.9,-58.26 388.78,-78.72 469.58,-91.26"/>
<polygon fill="black" stroke="black" points="469.28,-94.76 479.7,-92.83 470.35,-87.84 469.28,-94.76"/>
<text text-anchor="middle" x="346.94" y="-57.8" font-family="Times New Roman,serif" font-size="14.00">0.066</text>
</g>
<!-- 5 -->
<g id="node6" class="node">
<title>5</title>
<g id="a_node6"><a xlink:href="research scientist.svg" xlink:title="research scientist">
<ellipse fill="none" stroke="black" cx="554.44" cy="-192" rx="72.59" ry="18"/>
<text text-anchor="middle" x="554.44" y="-188.3" font-family="Times New Roman,serif" font-size="14.00">research scientist</text>
</a>
</g>
</g>
<!-- 5&#45;&gt;1 -->
<g id="edge5" class="edge">
<title>5&#45;&gt;1</title>
<path fill="none" stroke="black" d="M554.44,-173.8C554.44,-162.16 554.44,-146.55 554.44,-133.24"/>
<polygon fill="black" stroke="black" points="557.94,-133.18 554.44,-123.18 550.94,-133.18 557.94,-133.18"/>
<text text-anchor="middle" x="569.94" y="-144.8" font-family="Times New Roman,serif" font-size="14.00">0.044</text>
</g>
<!-- 6 -->
<g id="node7" class="node">
<title>6</title>
<g id="a_node7"><a xlink:href="biotechnologist.svg" xlink:title="biotechnologist">
<ellipse fill="none" stroke="black" cx="711.44" cy="-192" rx="66.09" ry="18"/>
<text text-anchor="middle" x="711.44" y="-188.3" font-family="Times New Roman,serif" font-size="14.00">biotechnologist</text>
</a>
</g>
</g>
<!-- 6&#45;&gt;1 -->
<g id="edge6" class="edge">
<title>6&#45;&gt;1</title>
<path fill="none" stroke="black" d="M683.01,-175.61C658,-162.07 621.36,-142.23 593.59,-127.19"/>
<polygon fill="black" stroke="black" points="595,-123.98 584.54,-122.29 591.66,-130.13 595,-123.98"/>
<text text-anchor="middle" x="657.94" y="-144.8" font-family="Times New Roman,serif" font-size="14.00">0.022</text>
</g>
<!-- 7 -->
<g id="node8" class="node">
<title>7</title>
<g id="a_node8"><a xlink:href="charities administrator.svg" xlink:title="charities administrator">
<ellipse fill="none" stroke="black" cx="886.44" cy="-192" rx="90.18" ry="18"/>
<text text-anchor="middle" x="886.44" y="-188.3" font-family="Times New Roman,serif" font-size="14.00">charities administrator</text>
</a>
</g>
</g>
<!-- 7&#45;&gt;1 -->
<g id="edge7" class="edge">
<title>7&#45;&gt;1</title>
<path fill="none" stroke="black" d="M833.1,-177.34C774.9,-162.44 681.72,-138.59 619.33,-122.61"/>
<polygon fill="black" stroke="black" points="620.14,-119.21 609.59,-120.12 618.41,-125.99 620.14,-119.21"/>
<text text-anchor="middle" x="755.94" y="-144.8" font-family="Times New Roman,serif" font-size="14.00">0.022</text>
</g>
<!-- 8 -->
<g id="node9" class="node">
<title>8</title>
<g id="a_node9"><a xlink:href="civil engineer.svg" xlink:title="civil engineer">
<ellipse fill="none" stroke="black" cx="1052.44" cy="-192" rx="57.69" ry="18"/>
<text text-anchor="middle" x="1052.44" y="-188.3" font-family="Times New Roman,serif" font-size="14.00">civil engineer</text>
</a>
</g>
</g>
<!-- 8&#45;&gt;1 -->
<g id="edge8" class="edge">
<title>8&#45;&gt;1</title>
<path fill="none" stroke="black" d="M1010.05,-179.62C1001.91,-177.61 993.44,-175.64 985.44,-174 868.03,-149.89 731.1,-129.61 643.64,-117.63"/>
<polygon fill="black" stroke="black" points="643.86,-114.13 633.48,-116.25 642.92,-121.07 643.86,-114.13"/>
<text text-anchor="middle" x="894.94" y="-144.8" font-family="Times New Roman,serif" font-size="14.00">0.022</text>
</g>
<!-- 9 -->
<g id="node10" class="node">
<title>9</title>
<g id="a_node10"><a xlink:href="community education officer.svg" xlink:title="community education officer">
<ellipse fill="none" stroke="black" cx="1243.44" cy="-192" rx="115.08" ry="18"/>
<text text-anchor="middle" x="1243.44" y="-188.3" font-family="Times New Roman,serif" font-size="14.00">community education officer</text>
</a>
</g>
</g>
<!-- 9&#45;&gt;1 -->
<g id="edge9" class="edge">
<title>9&#45;&gt;1</title>
<path fill="none" stroke="black" d="M1168.14,-178.37C1101.56,-167.49 1001.73,-151.87 914.44,-141 826.66,-130.07 726.47,-120.57 654.12,-114.24"/>
<polygon fill="black" stroke="black" points="654.36,-110.75 644.1,-113.36 653.76,-117.72 654.36,-110.75"/>
<text text-anchor="middle" x="1037.94" y="-144.8" font-family="Times New Roman,serif" font-size="14.00">0.022</text>
</g>
</g>
</svg>
