<?xml version="1.0" encoding="UTF-8" standalone="no"?>
<!DOCTYPE svg PUBLIC "-//W3C//DTD SVG 1.1//EN"
 "http://www.w3.org/Graphics/SVG/1.1/DTD/svg11.dtd">
<!-- Generated by graphviz version 2.44.1 (20200629.0800)
 -->
<!-- Title: control_and_instrumentation_engineer Pages: 1 -->
<svg width="1558pt" height="218pt"
 viewBox="0.00 0.00 1557.94 218.00" xmlns="http://www.w3.org/2000/svg" xmlns:xlink="http://www.w3.org/1999/xlink">
<g id="graph0" class="graph" transform="scale(1 1) rotate(0) translate(4 214)">
<title>control_and_instrumentation_engineer</title>
<polygon fill="white" stroke="transparent" points="-4,4 -4,-214 1553.94,-214 1553.94,4 -4,4"/>
<!-- 0 -->
<g id="node1" class="node">
<title>0</title>
<g id="a_node1"><a xlink:href="electrical engineer.svg" xlink:title="electrical engineer">
<ellipse fill="none" stroke="black" cx="221.6" cy="-192" rx="74.99" ry="18"/>
<text text-anchor="middle" x="221.6" y="-188.3" font-family="Times New Roman,serif" font-size="14.00">electrical engineer</text>
</a>
</g>
</g>
<!-- 1 -->
<g id="node2" class="node">
<title>1</title>
<g id="a_node2"><a xlink:href="control and instrumentation engineer.svg" xlink:title="control and instrumentation engineer">
<ellipse fill="none" stroke="black" cx="501.6" cy="-105" rx="141.88" ry="18"/>
<text text-anchor="middle" x="501.6" y="-101.3" font-family="Times New Roman,serif" font-size="14.00">control and instrumentation engineer</text>
</a>
</g>
</g>
<!-- 0&#45;&gt;1 -->
<g id="edge1" class="edge">
<title>0&#45;&gt;1</title>
<path fill="none" stroke="black" d="M237.36,-174.36C249.03,-163.09 265.91,-148.87 283.6,-141 310.22,-129.14 340.26,-121.24 369.34,-115.99"/>
<polygon fill="black" stroke="black" points="370.31,-119.38 379.58,-114.25 369.13,-112.48 370.31,-119.38"/>
<text text-anchor="middle" x="299.1" y="-144.8" font-family="Times New Roman,serif" font-size="14.00">0.066</text>
</g>
<!-- 1&#45;&gt;0 -->
<g id="edge14" class="edge">
<title>1&#45;&gt;0</title>
<path fill="none" stroke="black" d="M449.46,-121.83C400.04,-136.83 326.11,-159.27 275.97,-174.49"/>
<polygon fill="black" stroke="black" points="274.82,-171.18 266.27,-177.44 276.86,-177.88 274.82,-171.18"/>
<text text-anchor="middle" x="394.1" y="-144.8" font-family="Times New Roman,serif" font-size="14.00">0.049</text>
</g>
<!-- 1&#45;&gt;1 -->
<g id="edge10" class="edge">
<title>1&#45;&gt;1</title>
<path fill="none" stroke="black" d="M632.54,-111.94C649.82,-110.76 661.28,-108.45 661.28,-105 661.28,-102.28 654.15,-100.27 642.64,-98.96"/>
<polygon fill="black" stroke="black" points="642.81,-95.46 632.54,-98.06 642.19,-102.43 642.81,-95.46"/>
<text text-anchor="middle" x="676.78" y="-101.3" font-family="Times New Roman,serif" font-size="14.00">0.196</text>
</g>
<!-- 2 -->
<g id="node3" class="node">
<title>2</title>
<g id="a_node3"><a xlink:href="it consultant.svg" xlink:title="it consultant">
<ellipse fill="none" stroke="black" cx="54.6" cy="-18" rx="54.69" ry="18"/>
<text text-anchor="middle" x="54.6" y="-14.3" font-family="Times New Roman,serif" font-size="14.00">it consultant</text>
</a>
</g>
</g>
<!-- 1&#45;&gt;2 -->
<g id="edge12" class="edge">
<title>1&#45;&gt;2</title>
<path fill="none" stroke="black" d="M372.41,-97.51C286.08,-92.03 180.86,-82.84 138.6,-69 119.05,-62.6 99.18,-51.05 83.68,-40.66"/>
<polygon fill="black" stroke="black" points="85.3,-37.53 75.09,-34.73 81.33,-43.29 85.3,-37.53"/>
<text text-anchor="middle" x="154.1" y="-57.8" font-family="Times New Roman,serif" font-size="14.00">0.065</text>
</g>
<!-- 3 -->
<g id="node4" class="node">
<title>3</title>
<g id="a_node4"><a xlink:href="manufacturing engineer.svg" xlink:title="manufacturing engineer">
<ellipse fill="none" stroke="black" cx="221.6" cy="-18" rx="94.48" ry="18"/>
<text text-anchor="middle" x="221.6" y="-14.3" font-family="Times New Roman,serif" font-size="14.00">manufacturing engineer</text>
</a>
</g>
</g>
<!-- 1&#45;&gt;3 -->
<g id="edge18" class="edge">
<title>1&#45;&gt;3</title>
<path fill="none" stroke="black" d="M389.9,-93.87C358.64,-88.68 325.14,-80.84 295.6,-69 279.19,-62.42 262.71,-51.78 249.49,-42.01"/>
<polygon fill="black" stroke="black" points="251.37,-39.04 241.3,-35.76 247.13,-44.61 251.37,-39.04"/>
<text text-anchor="middle" x="311.1" y="-57.8" font-family="Times New Roman,serif" font-size="14.00">0.032</text>
</g>
<!-- 5 -->
<g id="node6" class="node">
<title>5</title>
<g id="a_node6"><a xlink:href="mechanical engineer.svg" xlink:title="mechanical engineer">
<ellipse fill="none" stroke="black" cx="416.6" cy="-18" rx="83.39" ry="18"/>
<text text-anchor="middle" x="416.6" y="-14.3" font-family="Times New Roman,serif" font-size="14.00">mechanical engineer</text>
</a>
</g>
</g>
<!-- 1&#45;&gt;5 -->
<g id="edge11" class="edge">
<title>1&#45;&gt;5</title>
<path fill="none" stroke="black" d="M440.33,-88.57C431.38,-83.72 423.29,-77.36 417.6,-69 413.11,-62.41 411.71,-54.12 411.76,-46.2"/>
<polygon fill="black" stroke="black" points="415.26,-46.4 412.53,-36.16 408.28,-45.87 415.26,-46.4"/>
<text text-anchor="middle" x="433.1" y="-57.8" font-family="Times New Roman,serif" font-size="14.00">0.081</text>
</g>
<!-- 7 -->
<g id="node8" class="node">
<title>7</title>
<g id="a_node8"><a xlink:href="careers adviser.svg" xlink:title="careers adviser">
<ellipse fill="none" stroke="black" cx="582.6" cy="-18" rx="64.99" ry="18"/>
<text text-anchor="middle" x="582.6" y="-14.3" font-family="Times New Roman,serif" font-size="14.00">careers adviser</text>
</a>
</g>
</g>
<!-- 1&#45;&gt;7 -->
<g id="edge16" class="edge">
<title>1&#45;&gt;7</title>
<path fill="none" stroke="black" d="M506.24,-86.77C509.7,-76.37 515.29,-63.37 523.6,-54 528.59,-48.36 534.72,-43.37 541.12,-39.06"/>
<polygon fill="black" stroke="black" points="543.27,-41.84 549.92,-33.59 539.58,-35.89 543.27,-41.84"/>
<text text-anchor="middle" x="539.1" y="-57.8" font-family="Times New Roman,serif" font-size="14.00">0.032</text>
</g>
<!-- 10 -->
<g id="node11" class="node">
<title>10</title>
<g id="a_node11"><a xlink:href="structural engineer.svg" xlink:title="structural engineer">
<ellipse fill="none" stroke="black" cx="742.6" cy="-18" rx="76.89" ry="18"/>
<text text-anchor="middle" x="742.6" y="-14.3" font-family="Times New Roman,serif" font-size="14.00">structural engineer</text>
</a>
</g>
</g>
<!-- 1&#45;&gt;10 -->
<g id="edge13" class="edge">
<title>1&#45;&gt;10</title>
<path fill="none" stroke="black" d="M549.35,-87.99C566.77,-82.1 586.6,-75.32 604.6,-69 634.12,-58.63 667.08,-46.71 693.38,-37.1"/>
<polygon fill="black" stroke="black" points="694.92,-40.26 703.11,-33.54 692.52,-33.69 694.92,-40.26"/>
<text text-anchor="middle" x="662.1" y="-57.8" font-family="Times New Roman,serif" font-size="14.00">0.065</text>
</g>
<!-- 11 -->
<g id="node12" class="node">
<title>11</title>
<g id="a_node12"><a xlink:href="production manager.svg" xlink:title="production manager">
<ellipse fill="none" stroke="black" cx="920.6" cy="-18" rx="83.39" ry="18"/>
<text text-anchor="middle" x="920.6" y="-14.3" font-family="Times New Roman,serif" font-size="14.00">production manager</text>
</a>
</g>
</g>
<!-- 1&#45;&gt;11 -->
<g id="edge15" class="edge">
<title>1&#45;&gt;11</title>
<path fill="none" stroke="black" d="M576.52,-89.68C608.86,-83.43 647.11,-75.96 681.6,-69 739.79,-57.26 805.83,-43.4 853.72,-33.25"/>
<polygon fill="black" stroke="black" points="854.6,-36.65 863.66,-31.15 853.15,-29.8 854.6,-36.65"/>
<text text-anchor="middle" x="769.1" y="-57.8" font-family="Times New Roman,serif" font-size="14.00">0.049</text>
</g>
<!-- 12 -->
<g id="node13" class="node">
<title>12</title>
<g id="a_node13"><a xlink:href="geographical information systems manager.svg" xlink:title="geographical information systems manager">
<ellipse fill="none" stroke="black" cx="1186.6" cy="-18" rx="165.17" ry="18"/>
<text text-anchor="middle" x="1186.6" y="-14.3" font-family="Times New Roman,serif" font-size="14.00">geographical information systems manager</text>
</a>
</g>
</g>
<!-- 1&#45;&gt;12 -->
<g id="edge17" class="edge">
<title>1&#45;&gt;12</title>
<path fill="none" stroke="black" d="M600.23,-92.06C655.6,-85.34 725.95,-76.75 788.6,-69 884.53,-57.12 993.45,-43.43 1073.06,-33.37"/>
<polygon fill="black" stroke="black" points="1073.63,-36.83 1083.11,-32.1 1072.75,-29.89 1073.63,-36.83"/>
<text text-anchor="middle" x="924.1" y="-57.8" font-family="Times New Roman,serif" font-size="14.00">0.032</text>
</g>
<!-- 13 -->
<g id="node14" class="node">
<title>13</title>
<g id="a_node14"><a xlink:href="operational researcher.svg" xlink:title="operational researcher">
<ellipse fill="none" stroke="black" cx="1459.6" cy="-18" rx="90.18" ry="18"/>
<text text-anchor="middle" x="1459.6" y="-14.3" font-family="Times New Roman,serif" font-size="14.00">operational researcher</text>
</a>
</g>
</g>
<!-- 1&#45;&gt;13 -->
<g id="edge19" class="edge">
<title>1&#45;&gt;13</title>
<path fill="none" stroke="black" d="M630.4,-97.47C798.73,-88.1 1102.49,-68.31 1360.6,-36 1368.8,-34.97 1377.37,-33.74 1385.88,-32.42"/>
<polygon fill="black" stroke="black" points="1386.49,-35.87 1395.82,-30.83 1385.39,-28.95 1386.49,-35.87"/>
<text text-anchor="middle" x="1212.1" y="-57.8" font-family="Times New Roman,serif" font-size="14.00">0.032</text>
</g>
<!-- 2&#45;&gt;1 -->
<g id="edge2" class="edge">
<title>2&#45;&gt;1</title>
<path fill="none" stroke="black" d="M92.06,-31.23C127.81,-42.49 183.38,-58.94 232.6,-69 281.28,-78.95 335.52,-86.64 382.48,-92.25"/>
<polygon fill="black" stroke="black" points="382.35,-95.76 392.69,-93.45 383.17,-88.81 382.35,-95.76"/>
<text text-anchor="middle" x="248.1" y="-57.8" font-family="Times New Roman,serif" font-size="14.00">0.053</text>
</g>
<!-- 3&#45;&gt;1 -->
<g id="edge3" class="edge">
<title>3&#45;&gt;1</title>
<path fill="none" stroke="black" d="M266.52,-33.86C297.62,-44.03 340.02,-57.68 377.6,-69 396.2,-74.61 416.46,-80.44 435.11,-85.7"/>
<polygon fill="black" stroke="black" points="434.42,-89.14 444.99,-88.47 436.31,-82.4 434.42,-89.14"/>
<text text-anchor="middle" x="393.1" y="-57.8" font-family="Times New Roman,serif" font-size="14.00">0.053</text>
</g>
<!-- 4 -->
<g id="node5" class="node">
<title>4</title>
<g id="a_node5"><a xlink:href="computer sales support.svg" xlink:title="computer sales support">
<ellipse fill="none" stroke="black" cx="410.6" cy="-192" rx="96.38" ry="18"/>
<text text-anchor="middle" x="410.6" y="-188.3" font-family="Times New Roman,serif" font-size="14.00">computer sales support</text>
</a>
</g>
</g>
<!-- 4&#45;&gt;1 -->
<g id="edge4" class="edge">
<title>4&#45;&gt;1</title>
<path fill="none" stroke="black" d="M428.57,-174.21C442.07,-161.6 460.74,-144.16 475.83,-130.07"/>
<polygon fill="black" stroke="black" points="478.42,-132.43 483.34,-123.05 473.65,-127.32 478.42,-132.43"/>
<text text-anchor="middle" x="474.1" y="-144.8" font-family="Times New Roman,serif" font-size="14.00">0.04</text>
</g>
<!-- 5&#45;&gt;1 -->
<g id="edge5" class="edge">
<title>5&#45;&gt;1</title>
<path fill="none" stroke="black" d="M433.89,-35.65C439.85,-41.43 446.54,-47.97 452.6,-54 460.9,-62.27 469.91,-71.41 477.9,-79.59"/>
<polygon fill="black" stroke="black" points="475.43,-82.06 484.91,-86.77 480.44,-77.17 475.43,-82.06"/>
<text text-anchor="middle" x="479.1" y="-57.8" font-family="Times New Roman,serif" font-size="14.00">0.04</text>
</g>
<!-- 6 -->
<g id="node7" class="node">
<title>6</title>
<g id="a_node7"><a xlink:href="project manager.svg" xlink:title="project manager">
<ellipse fill="none" stroke="black" cx="593.6" cy="-192" rx="68.79" ry="18"/>
<text text-anchor="middle" x="593.6" y="-188.3" font-family="Times New Roman,serif" font-size="14.00">project manager</text>
</a>
</g>
</g>
<!-- 6&#45;&gt;1 -->
<g id="edge6" class="edge">
<title>6&#45;&gt;1</title>
<path fill="none" stroke="black" d="M575.42,-174.21C561.77,-161.6 542.9,-144.16 527.65,-130.07"/>
<polygon fill="black" stroke="black" points="529.77,-127.26 520.05,-123.05 525.02,-132.41 529.77,-127.26"/>
<text text-anchor="middle" x="566.1" y="-144.8" font-family="Times New Roman,serif" font-size="14.00">0.04</text>
</g>
<!-- 7&#45;&gt;1 -->
<g id="edge7" class="edge">
<title>7&#45;&gt;1</title>
<path fill="none" stroke="black" d="M577.15,-36.19C573.22,-46.56 567.11,-59.56 558.6,-69 554.36,-73.7 549.35,-77.98 544.08,-81.81"/>
<polygon fill="black" stroke="black" points="542.02,-78.98 535.66,-87.46 545.92,-84.79 542.02,-78.98"/>
<text text-anchor="middle" x="585.1" y="-57.8" font-family="Times New Roman,serif" font-size="14.00">0.026</text>
</g>
<!-- 8 -->
<g id="node9" class="node">
<title>8</title>
<g id="a_node9"><a xlink:href="civil service administrator.svg" xlink:title="civil service administrator">
<ellipse fill="none" stroke="black" cx="783.6" cy="-192" rx="102.88" ry="18"/>
<text text-anchor="middle" x="783.6" y="-188.3" font-family="Times New Roman,serif" font-size="14.00">civil service administrator</text>
</a>
</g>
</g>
<!-- 8&#45;&gt;1 -->
<g id="edge8" class="edge">
<title>8&#45;&gt;1</title>
<path fill="none" stroke="black" d="M734.15,-176.1C686.66,-161.78 614.77,-140.11 563.5,-124.66"/>
<polygon fill="black" stroke="black" points="564.44,-121.29 553.85,-121.75 562.42,-127.99 564.44,-121.29"/>
<text text-anchor="middle" x="675.1" y="-144.8" font-family="Times New Roman,serif" font-size="14.00">0.026</text>
</g>
<!-- 9 -->
<g id="node10" class="node">
<title>9</title>
<g id="a_node10"><a xlink:href="facilities manager.svg" xlink:title="facilities manager">
<ellipse fill="none" stroke="black" cx="976.6" cy="-192" rx="72.59" ry="18"/>
<text text-anchor="middle" x="976.6" y="-188.3" font-family="Times New Roman,serif" font-size="14.00">facilities manager</text>
</a>
</g>
</g>
<!-- 9&#45;&gt;1 -->
<g id="edge9" class="edge">
<title>9&#45;&gt;1</title>
<path fill="none" stroke="black" d="M923.49,-179.57C914.21,-177.65 904.63,-175.73 895.6,-174 793.27,-154.44 675.51,-134.44 595.58,-121.24"/>
<polygon fill="black" stroke="black" points="595.97,-117.76 585.53,-119.59 594.83,-124.67 595.97,-117.76"/>
<text text-anchor="middle" x="803.1" y="-144.8" font-family="Times New Roman,serif" font-size="14.00">0.026</text>
</g>
</g>
</svg>
