<?xml version="1.0" encoding="UTF-8" standalone="no"?>
<!DOCTYPE svg PUBLIC "-//W3C//DTD SVG 1.1//EN"
 "http://www.w3.org/Graphics/SVG/1.1/DTD/svg11.dtd">
<!-- Generated by graphviz version 2.44.1 (20200629.0800)
 -->
<!-- Title: content_manager Pages: 1 -->
<svg width="1302pt" height="218pt"
 viewBox="0.00 0.00 1302.29 218.00" xmlns="http://www.w3.org/2000/svg" xmlns:xlink="http://www.w3.org/1999/xlink">
<g id="graph0" class="graph" transform="scale(1 1) rotate(0) translate(4 214)">
<title>content_manager</title>
<polygon fill="white" stroke="transparent" points="-4,4 -4,-214 1298.29,-214 1298.29,4 -4,4"/>
<!-- 0 -->
<g id="node1" class="node">
<title>0</title>
<g id="a_node1"><a xlink:href="production manager.svg" xlink:title="production manager">
<ellipse fill="none" stroke="black" cx="603.29" cy="-192" rx="83.39" ry="18"/>
<text text-anchor="middle" x="603.29" y="-188.3" font-family="Times New Roman,serif" font-size="14.00">production manager</text>
</a>
</g>
</g>
<!-- 1 -->
<g id="node2" class="node">
<title>1</title>
<g id="a_node2"><a xlink:href="content manager.svg" xlink:title="content manager">
<ellipse fill="none" stroke="black" cx="657.29" cy="-105" rx="70.39" ry="18"/>
<text text-anchor="middle" x="657.29" y="-101.3" font-family="Times New Roman,serif" font-size="14.00">content manager</text>
</a>
</g>
</g>
<!-- 0&#45;&gt;1 -->
<g id="edge1" class="edge">
<title>0&#45;&gt;1</title>
<path fill="none" stroke="black" d="M599.82,-173.77C598.67,-163.63 598.85,-150.89 604.29,-141 607.19,-135.74 611.25,-131.14 615.85,-127.14"/>
<polygon fill="black" stroke="black" points="618.12,-129.82 624,-121 613.91,-124.23 618.12,-129.82"/>
<text text-anchor="middle" x="619.79" y="-144.8" font-family="Times New Roman,serif" font-size="14.00">0.089</text>
</g>
<!-- 1&#45;&gt;0 -->
<g id="edge12" class="edge">
<title>1&#45;&gt;0</title>
<path fill="none" stroke="black" d="M651.26,-123.37C647.42,-133.33 641.92,-145.83 635.29,-156 632.97,-159.57 630.27,-163.13 627.46,-166.53"/>
<polygon fill="black" stroke="black" points="624.75,-164.31 620.77,-174.12 630.01,-168.93 624.75,-164.31"/>
<text text-anchor="middle" x="659.79" y="-144.8" font-family="Times New Roman,serif" font-size="14.00">0.082</text>
</g>
<!-- 1&#45;&gt;1 -->
<g id="edge10" class="edge">
<title>1&#45;&gt;1</title>
<path fill="none" stroke="black" d="M721.11,-112.66C735.22,-111.94 745.49,-109.39 745.49,-105 745.49,-101.74 739.83,-99.5 731.15,-98.26"/>
<polygon fill="black" stroke="black" points="731.39,-94.77 721.11,-97.34 730.75,-101.74 731.39,-94.77"/>
<text text-anchor="middle" x="760.99" y="-101.3" font-family="Times New Roman,serif" font-size="14.00">0.239</text>
</g>
<!-- 2 -->
<g id="node3" class="node">
<title>2</title>
<g id="a_node3"><a xlink:href="marketing assistant.svg" xlink:title="marketing assistant">
<ellipse fill="none" stroke="black" cx="79.29" cy="-18" rx="79.09" ry="18"/>
<text text-anchor="middle" x="79.29" y="-14.3" font-family="Times New Roman,serif" font-size="14.00">marketing assistant</text>
</a>
</g>
</g>
<!-- 1&#45;&gt;2 -->
<g id="edge13" class="edge">
<title>1&#45;&gt;2</title>
<path fill="none" stroke="black" d="M587.56,-102.7C471.92,-99.93 245.61,-91.72 169.29,-69 148.62,-62.85 127.44,-51.39 110.83,-40.99"/>
<polygon fill="black" stroke="black" points="112.4,-37.84 102.1,-35.36 108.61,-43.72 112.4,-37.84"/>
<text text-anchor="middle" x="184.79" y="-57.8" font-family="Times New Roman,serif" font-size="14.00">0.074</text>
</g>
<!-- 3 -->
<g id="node4" class="node">
<title>3</title>
<g id="a_node4"><a xlink:href="marketing executive.svg" xlink:title="marketing executive">
<ellipse fill="none" stroke="black" cx="258.29" cy="-18" rx="81.79" ry="18"/>
<text text-anchor="middle" x="258.29" y="-14.3" font-family="Times New Roman,serif" font-size="14.00">marketing executive</text>
</a>
</g>
</g>
<!-- 1&#45;&gt;3 -->
<g id="edge11" class="edge">
<title>1&#45;&gt;3</title>
<path fill="none" stroke="black" d="M589.56,-100.05C510.26,-94.81 384.07,-84.4 339.29,-69 320.87,-62.66 302.24,-51.56 287.5,-41.43"/>
<polygon fill="black" stroke="black" points="289.49,-38.54 279.3,-35.62 285.44,-44.25 289.49,-38.54"/>
<text text-anchor="middle" x="354.79" y="-57.8" font-family="Times New Roman,serif" font-size="14.00">0.090</text>
</g>
<!-- 4 -->
<g id="node5" class="node">
<title>4</title>
<g id="a_node5"><a xlink:href="project manager.svg" xlink:title="project manager">
<ellipse fill="none" stroke="black" cx="427.29" cy="-18" rx="68.79" ry="18"/>
<text text-anchor="middle" x="427.29" y="-14.3" font-family="Times New Roman,serif" font-size="14.00">project manager</text>
</a>
</g>
</g>
<!-- 1&#45;&gt;4 -->
<g id="edge15" class="edge">
<title>1&#45;&gt;4</title>
<path fill="none" stroke="black" d="M593.22,-97.65C561.18,-92.73 522.47,-84.1 490.29,-69 476.15,-62.37 462.34,-51.98 451.27,-42.4"/>
<polygon fill="black" stroke="black" points="453.51,-39.7 443.73,-35.62 448.83,-44.91 453.51,-39.7"/>
<text text-anchor="middle" x="505.79" y="-57.8" font-family="Times New Roman,serif" font-size="14.00">0.057</text>
</g>
<!-- 5 -->
<g id="node6" class="node">
<title>5</title>
<g id="a_node6"><a xlink:href="commissioning editor.svg" xlink:title="commissioning editor">
<ellipse fill="none" stroke="black" cx="603.29" cy="-18" rx="89.08" ry="18"/>
<text text-anchor="middle" x="603.29" y="-14.3" font-family="Times New Roman,serif" font-size="14.00">commissioning editor</text>
</a>
</g>
</g>
<!-- 1&#45;&gt;5 -->
<g id="edge16" class="edge">
<title>1&#45;&gt;5</title>
<path fill="none" stroke="black" d="M621.13,-89.36C612.83,-84.21 605.06,-77.51 600.29,-69 596.5,-62.22 595.72,-54.08 596.31,-46.35"/>
<polygon fill="black" stroke="black" points="599.81,-46.65 597.82,-36.24 592.88,-45.62 599.81,-46.65"/>
<text text-anchor="middle" x="615.79" y="-57.8" font-family="Times New Roman,serif" font-size="14.00">0.041</text>
</g>
<!-- 6 -->
<g id="node7" class="node">
<title>6</title>
<g id="a_node7"><a xlink:href="media planner.svg" xlink:title="media planner">
<ellipse fill="none" stroke="black" cx="771.29" cy="-18" rx="61.19" ry="18"/>
<text text-anchor="middle" x="771.29" y="-14.3" font-family="Times New Roman,serif" font-size="14.00">media planner</text>
</a>
</g>
</g>
<!-- 1&#45;&gt;6 -->
<g id="edge18" class="edge">
<title>1&#45;&gt;6</title>
<path fill="none" stroke="black" d="M673.49,-87.24C683.81,-77.02 697.74,-64.04 711.29,-54 718.33,-48.79 726.2,-43.72 733.86,-39.13"/>
<polygon fill="black" stroke="black" points="735.82,-42.04 742.71,-33.98 732.3,-35.99 735.82,-42.04"/>
<text text-anchor="middle" x="726.79" y="-57.8" font-family="Times New Roman,serif" font-size="14.00">0.033</text>
</g>
<!-- 7 -->
<g id="node8" class="node">
<title>7</title>
<g id="a_node8"><a xlink:href="sales manager.svg" xlink:title="sales manager">
<ellipse fill="none" stroke="black" cx="911.29" cy="-18" rx="61.19" ry="18"/>
<text text-anchor="middle" x="911.29" y="-14.3" font-family="Times New Roman,serif" font-size="14.00">sales manager</text>
</a>
</g>
</g>
<!-- 1&#45;&gt;7 -->
<g id="edge17" class="edge">
<title>1&#45;&gt;7</title>
<path fill="none" stroke="black" d="M708.45,-92.58C733.91,-86.43 765,-78.22 792.29,-69 807.17,-63.97 841.43,-49.47 869.38,-37.36"/>
<polygon fill="black" stroke="black" points="870.81,-40.56 878.59,-33.37 868.02,-34.14 870.81,-40.56"/>
<text text-anchor="middle" x="844.79" y="-57.8" font-family="Times New Roman,serif" font-size="14.00">0.041</text>
</g>
<!-- 8 -->
<g id="node9" class="node">
<title>8</title>
<g id="a_node9"><a xlink:href="advertising copywriter.svg" xlink:title="advertising copywriter">
<ellipse fill="none" stroke="black" cx="1081.29" cy="-18" rx="90.98" ry="18"/>
<text text-anchor="middle" x="1081.29" y="-14.3" font-family="Times New Roman,serif" font-size="14.00">advertising copywriter</text>
</a>
</g>
</g>
<!-- 1&#45;&gt;8 -->
<g id="edge14" class="edge">
<title>1&#45;&gt;8</title>
<path fill="none" stroke="black" d="M722.69,-98.32C776.01,-92.95 853.07,-83.54 919.29,-69 920.67,-68.7 978.7,-50.76 1024.91,-36.46"/>
<polygon fill="black" stroke="black" points="1026.05,-39.77 1034.57,-33.47 1023.98,-33.09 1026.05,-39.77"/>
<text text-anchor="middle" x="982.79" y="-57.8" font-family="Times New Roman,serif" font-size="14.00">0.057</text>
</g>
<!-- 10 -->
<g id="node11" class="node">
<title>10</title>
<g id="a_node11"><a xlink:href="ux designer.svg" xlink:title="ux designer">
<ellipse fill="none" stroke="black" cx="1242.29" cy="-18" rx="51.99" ry="18"/>
<text text-anchor="middle" x="1242.29" y="-14.3" font-family="Times New Roman,serif" font-size="14.00">ux designer</text>
</a>
</g>
</g>
<!-- 1&#45;&gt;10 -->
<g id="edge19" class="edge">
<title>1&#45;&gt;10</title>
<path fill="none" stroke="black" d="M726.75,-102.15C808.74,-99.04 948.9,-90.76 1067.29,-69 1112.13,-60.76 1162,-45.93 1197,-34.55"/>
<polygon fill="black" stroke="black" points="1198.5,-37.74 1206.91,-31.29 1196.32,-31.09 1198.5,-37.74"/>
<text text-anchor="middle" x="1145.79" y="-57.8" font-family="Times New Roman,serif" font-size="14.00">0.033</text>
</g>
<!-- 2&#45;&gt;1 -->
<g id="edge2" class="edge">
<title>2&#45;&gt;1</title>
<path fill="none" stroke="black" d="M124.55,-32.8C163.79,-44.23 222.29,-60.02 274.29,-69 378.66,-87.03 500.74,-96.15 578.51,-100.49"/>
<polygon fill="black" stroke="black" points="578.54,-103.99 588.71,-101.04 578.92,-97 578.54,-103.99"/>
<text text-anchor="middle" x="289.79" y="-57.8" font-family="Times New Roman,serif" font-size="14.00">0.072</text>
</g>
<!-- 3&#45;&gt;1 -->
<g id="edge3" class="edge">
<title>3&#45;&gt;1</title>
<path fill="none" stroke="black" d="M301.98,-33.31C336.72,-44.27 386.72,-59.15 431.29,-69 482.19,-80.25 540.31,-89.16 584.87,-95.18"/>
<polygon fill="black" stroke="black" points="584.65,-98.68 595.03,-96.53 585.58,-91.74 584.65,-98.68"/>
<text text-anchor="middle" x="446.79" y="-57.8" font-family="Times New Roman,serif" font-size="14.00">0.067</text>
</g>
<!-- 4&#45;&gt;1 -->
<g id="edge4" class="edge">
<title>4&#45;&gt;1</title>
<path fill="none" stroke="black" d="M465.4,-33.13C492.44,-43.16 529.59,-56.92 562.29,-69 577.58,-74.65 594.25,-80.79 609.3,-86.34"/>
<polygon fill="black" stroke="black" points="608.33,-89.71 618.92,-89.88 610.75,-83.14 608.33,-89.71"/>
<text text-anchor="middle" x="577.79" y="-57.8" font-family="Times New Roman,serif" font-size="14.00">0.050</text>
</g>
<!-- 5&#45;&gt;1 -->
<g id="edge5" class="edge">
<title>5&#45;&gt;1</title>
<path fill="none" stroke="black" d="M620.77,-35.88C625.86,-41.35 631.16,-47.65 635.29,-54 639.95,-61.15 644.06,-69.45 647.42,-77.21"/>
<polygon fill="black" stroke="black" points="644.24,-78.69 651.26,-86.63 650.72,-76.05 644.24,-78.69"/>
<text text-anchor="middle" x="659.79" y="-57.8" font-family="Times New Roman,serif" font-size="14.00">0.027</text>
</g>
<!-- 6&#45;&gt;1 -->
<g id="edge6" class="edge">
<title>6&#45;&gt;1</title>
<path fill="none" stroke="black" d="M766.21,-36.26C762.29,-46.93 755.89,-60.22 746.29,-69 737.49,-77.05 726.61,-83.35 715.52,-88.23"/>
<polygon fill="black" stroke="black" points="714.15,-85.01 706.19,-92.01 716.78,-91.49 714.15,-85.01"/>
<text text-anchor="middle" x="772.79" y="-57.8" font-family="Times New Roman,serif" font-size="14.00">0.027</text>
</g>
<!-- 7&#45;&gt;1 -->
<g id="edge7" class="edge">
<title>7&#45;&gt;1</title>
<path fill="none" stroke="black" d="M900.43,-36.13C892.39,-47.32 880.42,-61.25 866.29,-69 843.55,-81.48 782.43,-90.83 732.13,-96.72"/>
<polygon fill="black" stroke="black" points="731.44,-93.27 721.9,-97.88 732.23,-100.23 731.44,-93.27"/>
<text text-anchor="middle" x="899.79" y="-57.8" font-family="Times New Roman,serif" font-size="14.00">0.027</text>
</g>
<!-- 8&#45;&gt;1 -->
<g id="edge8" class="edge">
<title>8&#45;&gt;1</title>
<path fill="none" stroke="black" d="M1061.18,-35.68C1046.2,-47.12 1024.71,-61.53 1003.29,-69 955.58,-85.63 822.36,-95.48 735.83,-100.3"/>
<polygon fill="black" stroke="black" points="735.58,-96.81 725.78,-100.85 735.96,-103.8 735.58,-96.81"/>
<text text-anchor="middle" x="1047.79" y="-57.8" font-family="Times New Roman,serif" font-size="14.00">0.022</text>
</g>
<!-- 9 -->
<g id="node10" class="node">
<title>9</title>
<g id="a_node10"><a xlink:href="broadcasting presenter.svg" xlink:title="broadcasting presenter">
<ellipse fill="none" stroke="black" cx="797.29" cy="-192" rx="92.88" ry="18"/>
<text text-anchor="middle" x="797.29" y="-188.3" font-family="Times New Roman,serif" font-size="14.00">broadcasting presenter</text>
</a>
</g>
</g>
<!-- 9&#45;&gt;1 -->
<g id="edge9" class="edge">
<title>9&#45;&gt;1</title>
<path fill="none" stroke="black" d="M770.3,-174.61C748.04,-161.09 716.29,-141.82 692.12,-127.14"/>
<polygon fill="black" stroke="black" points="693.62,-123.96 683.26,-121.76 689.99,-129.95 693.62,-123.96"/>
<text text-anchor="middle" x="750.79" y="-144.8" font-family="Times New Roman,serif" font-size="14.00">0.022</text>
</g>
</g>
</svg>
