<?xml version="1.0" encoding="UTF-8" standalone="no"?>
<!DOCTYPE svg PUBLIC "-//W3C//DTD SVG 1.1//EN"
 "http://www.w3.org/Graphics/SVG/1.1/DTD/svg11.dtd">
<!-- Generated by graphviz version 2.44.1 (20200629.0800)
 -->
<!-- Title: curator Pages: 1 -->
<svg width="1183pt" height="218pt"
 viewBox="0.00 0.00 1182.94 218.00" xmlns="http://www.w3.org/2000/svg" xmlns:xlink="http://www.w3.org/1999/xlink">
<g id="graph0" class="graph" transform="scale(1 1) rotate(0) translate(4 214)">
<title>curator</title>
<polygon fill="white" stroke="transparent" points="-4,4 -4,-214 1178.94,-214 1178.94,4 -4,4"/>
<!-- 0 -->
<g id="node1" class="node">
<title>0</title>
<g id="a_node1"><a xlink:href="lawyer.svg" xlink:title="lawyer">
<ellipse fill="none" stroke="black" cx="335.6" cy="-192" rx="34.39" ry="18"/>
<text text-anchor="middle" x="335.6" y="-188.3" font-family="Times New Roman,serif" font-size="14.00">lawyer</text>
</a>
</g>
</g>
<!-- 1 -->
<g id="node2" class="node">
<title>1</title>
<g id="a_node2"><a xlink:href="curator.svg" xlink:title="curator">
<ellipse fill="none" stroke="black" cx="488.6" cy="-105" rx="36.29" ry="18"/>
<text text-anchor="middle" x="488.6" y="-101.3" font-family="Times New Roman,serif" font-size="14.00">curator</text>
</a>
</g>
</g>
<!-- 0&#45;&gt;1 -->
<g id="edge1" class="edge">
<title>0&#45;&gt;1</title>
<path fill="none" stroke="black" d="M331.06,-173.91C329.33,-163.31 329.26,-150.03 336.6,-141 349.87,-124.66 403.08,-115.26 442.82,-110.39"/>
<polygon fill="black" stroke="black" points="443.33,-113.86 452.86,-109.23 442.52,-106.91 443.33,-113.86"/>
<text text-anchor="middle" x="352.1" y="-144.8" font-family="Times New Roman,serif" font-size="14.00">0.091</text>
</g>
<!-- 1&#45;&gt;0 -->
<g id="edge14" class="edge">
<title>1&#45;&gt;0</title>
<path fill="none" stroke="black" d="M463.87,-118.3C450.89,-124.87 434.78,-133.18 420.6,-141 402.29,-151.08 382.12,-162.92 366.03,-172.54"/>
<polygon fill="black" stroke="black" points="363.83,-169.77 357.06,-177.92 367.44,-175.77 363.83,-169.77"/>
<text text-anchor="middle" x="436.1" y="-144.8" font-family="Times New Roman,serif" font-size="14.00">0.035</text>
</g>
<!-- 1&#45;&gt;1 -->
<g id="edge11" class="edge">
<title>1&#45;&gt;1</title>
<path fill="none" stroke="black" d="M521.52,-112.87C533.35,-113.04 542.99,-110.41 542.99,-105 542.99,-101.28 538.43,-98.88 531.74,-97.79"/>
<polygon fill="black" stroke="black" points="531.73,-94.28 521.52,-97.13 531.28,-101.27 531.73,-94.28"/>
<text text-anchor="middle" x="558.49" y="-101.3" font-family="Times New Roman,serif" font-size="14.00">0.081</text>
</g>
<!-- 2 -->
<g id="node3" class="node">
<title>2</title>
<g id="a_node3"><a xlink:href="it consultant.svg" xlink:title="it consultant">
<ellipse fill="none" stroke="black" cx="54.6" cy="-18" rx="54.69" ry="18"/>
<text text-anchor="middle" x="54.6" y="-14.3" font-family="Times New Roman,serif" font-size="14.00">it consultant</text>
</a>
</g>
</g>
<!-- 1&#45;&gt;2 -->
<g id="edge13" class="edge">
<title>1&#45;&gt;2</title>
<path fill="none" stroke="black" d="M452.42,-102.24C375.82,-98.2 199.61,-87.19 142.6,-69 122.11,-62.47 101.11,-50.76 84.76,-40.31"/>
<polygon fill="black" stroke="black" points="86.47,-37.25 76.19,-34.68 82.63,-43.1 86.47,-37.25"/>
<text text-anchor="middle" x="158.1" y="-57.8" font-family="Times New Roman,serif" font-size="14.00">0.035</text>
</g>
<!-- 3 -->
<g id="node4" class="node">
<title>3</title>
<g id="a_node4"><a xlink:href="pharmacovigilance officer.svg" xlink:title="pharmacovigilance officer">
<ellipse fill="none" stroke="black" cx="231.6" cy="-18" rx="104.78" ry="18"/>
<text text-anchor="middle" x="231.6" y="-14.3" font-family="Times New Roman,serif" font-size="14.00">pharmacovigilance officer</text>
</a>
</g>
</g>
<!-- 1&#45;&gt;3 -->
<g id="edge10" class="edge">
<title>1&#45;&gt;3</title>
<path fill="none" stroke="black" d="M452.37,-102.11C413.26,-98.99 349.82,-90.74 299.6,-69 284.52,-62.47 269.6,-52.07 257.6,-42.44"/>
<polygon fill="black" stroke="black" points="259.72,-39.65 249.79,-35.96 255.25,-45.04 259.72,-39.65"/>
<text text-anchor="middle" x="315.1" y="-57.8" font-family="Times New Roman,serif" font-size="14.00">0.233</text>
</g>
<!-- 5 -->
<g id="node6" class="node">
<title>5</title>
<g id="a_node6"><a xlink:href="project manager.svg" xlink:title="project manager">
<ellipse fill="none" stroke="black" cx="423.6" cy="-18" rx="68.79" ry="18"/>
<text text-anchor="middle" x="423.6" y="-14.3" font-family="Times New Roman,serif" font-size="14.00">project manager</text>
</a>
</g>
</g>
<!-- 1&#45;&gt;5 -->
<g id="edge16" class="edge">
<title>1&#45;&gt;5</title>
<path fill="none" stroke="black" d="M456.41,-96.46C441.91,-91.28 426.16,-82.77 417.6,-69 413.36,-62.19 412.93,-53.83 414.12,-45.92"/>
<polygon fill="black" stroke="black" points="417.59,-46.46 416.45,-35.93 410.77,-44.88 417.59,-46.46"/>
<text text-anchor="middle" x="433.1" y="-57.8" font-family="Times New Roman,serif" font-size="14.00">0.029</text>
</g>
<!-- 6 -->
<g id="node7" class="node">
<title>6</title>
<g id="a_node7"><a xlink:href="secretary.svg" xlink:title="secretary">
<ellipse fill="none" stroke="black" cx="553.6" cy="-18" rx="43.59" ry="18"/>
<text text-anchor="middle" x="553.6" y="-14.3" font-family="Times New Roman,serif" font-size="14.00">secretary</text>
</a>
</g>
</g>
<!-- 1&#45;&gt;6 -->
<g id="edge19" class="edge">
<title>1&#45;&gt;6</title>
<path fill="none" stroke="black" d="M494.77,-86.8C498.89,-76.66 504.96,-63.92 512.6,-54 516.25,-49.25 520.65,-44.68 525.18,-40.51"/>
<polygon fill="black" stroke="black" points="527.56,-43.08 532.83,-33.89 522.98,-37.78 527.56,-43.08"/>
<text text-anchor="middle" x="528.1" y="-57.8" font-family="Times New Roman,serif" font-size="14.00">0.023</text>
</g>
<!-- 10 -->
<g id="node11" class="node">
<title>10</title>
<g id="a_node11"><a xlink:href="production manager.svg" xlink:title="production manager">
<ellipse fill="none" stroke="black" cx="698.6" cy="-18" rx="83.39" ry="18"/>
<text text-anchor="middle" x="698.6" y="-14.3" font-family="Times New Roman,serif" font-size="14.00">production manager</text>
</a>
</g>
</g>
<!-- 1&#45;&gt;10 -->
<g id="edge12" class="edge">
<title>1&#45;&gt;10</title>
<path fill="none" stroke="black" d="M518.17,-94.43C538.21,-87.75 565.21,-78.39 588.6,-69 611.45,-59.83 636.48,-48.55 656.88,-39.03"/>
<polygon fill="black" stroke="black" points="658.63,-42.07 666.2,-34.65 655.66,-35.74 658.63,-42.07"/>
<text text-anchor="middle" x="637.1" y="-57.8" font-family="Times New Roman,serif" font-size="14.00">0.064</text>
</g>
<!-- 11 -->
<g id="node12" class="node">
<title>11</title>
<g id="a_node12"><a xlink:href="lecturer.svg" xlink:title="lecturer">
<ellipse fill="none" stroke="black" cx="837.6" cy="-18" rx="37.89" ry="18"/>
<text text-anchor="middle" x="837.6" y="-14.3" font-family="Times New Roman,serif" font-size="14.00">lecturer</text>
</a>
</g>
</g>
<!-- 1&#45;&gt;11 -->
<g id="edge15" class="edge">
<title>1&#45;&gt;11</title>
<path fill="none" stroke="black" d="M522.53,-98.03C578.85,-87.75 694.93,-64.99 790.6,-36 793.49,-35.12 796.47,-34.17 799.46,-33.17"/>
<polygon fill="black" stroke="black" points="800.61,-36.48 808.92,-29.91 798.33,-29.86 800.61,-36.48"/>
<text text-anchor="middle" x="740.1" y="-57.8" font-family="Times New Roman,serif" font-size="14.00">0.029</text>
</g>
<!-- 12 -->
<g id="node13" class="node">
<title>12</title>
<g id="a_node13"><a xlink:href="housing adviser.svg" xlink:title="housing adviser">
<ellipse fill="none" stroke="black" cx="960.6" cy="-18" rx="67.69" ry="18"/>
<text text-anchor="middle" x="960.6" y="-14.3" font-family="Times New Roman,serif" font-size="14.00">housing adviser</text>
</a>
</g>
</g>
<!-- 1&#45;&gt;12 -->
<g id="edge17" class="edge">
<title>1&#45;&gt;12</title>
<path fill="none" stroke="black" d="M524.31,-100.71C576.35,-95.63 675.91,-84.76 759.6,-69 809.76,-59.55 866.11,-45.21 906.34,-34.3"/>
<polygon fill="black" stroke="black" points="907.49,-37.62 916.21,-31.61 905.64,-30.86 907.49,-37.62"/>
<text text-anchor="middle" x="841.1" y="-57.8" font-family="Times New Roman,serif" font-size="14.00">0.023</text>
</g>
<!-- 13 -->
<g id="node14" class="node">
<title>13</title>
<g id="a_node14"><a xlink:href="office manager.svg" xlink:title="office manager">
<ellipse fill="none" stroke="black" cx="1110.6" cy="-18" rx="64.19" ry="18"/>
<text text-anchor="middle" x="1110.6" y="-14.3" font-family="Times New Roman,serif" font-size="14.00">office manager</text>
</a>
</g>
</g>
<!-- 1&#45;&gt;13 -->
<g id="edge18" class="edge">
<title>1&#45;&gt;13</title>
<path fill="none" stroke="black" d="M524.63,-101.7C591.21,-97.2 737.89,-86.17 860.6,-69 939.84,-57.91 959.27,-52.41 1037.6,-36 1042.85,-34.9 1048.3,-33.71 1053.76,-32.49"/>
<polygon fill="black" stroke="black" points="1054.56,-35.9 1063.54,-30.28 1053.01,-29.07 1054.56,-35.9"/>
<text text-anchor="middle" x="964.1" y="-57.8" font-family="Times New Roman,serif" font-size="14.00">0.023</text>
</g>
<!-- 2&#45;&gt;1 -->
<g id="edge2" class="edge">
<title>2&#45;&gt;1</title>
<path fill="none" stroke="black" d="M93.02,-30.97C130.01,-42.12 187.68,-58.56 238.6,-69 309.34,-83.5 392.59,-93.84 442.94,-99.36"/>
<polygon fill="black" stroke="black" points="442.85,-102.87 453.16,-100.46 443.6,-95.91 442.85,-102.87"/>
<text text-anchor="middle" x="254.1" y="-57.8" font-family="Times New Roman,serif" font-size="14.00">0.048</text>
</g>
<!-- 3&#45;&gt;1 -->
<g id="edge3" class="edge">
<title>3&#45;&gt;1</title>
<path fill="none" stroke="black" d="M275.9,-34.33C305.04,-44.34 344.03,-57.62 378.6,-69 401.93,-76.68 428.14,-85.03 449.12,-91.65"/>
<polygon fill="black" stroke="black" points="448.07,-94.99 458.66,-94.65 450.18,-88.31 448.07,-94.99"/>
<text text-anchor="middle" x="394.1" y="-57.8" font-family="Times New Roman,serif" font-size="14.00">0.048</text>
</g>
<!-- 4 -->
<g id="node5" class="node">
<title>4</title>
<g id="a_node5"><a xlink:href="solicitor.svg" xlink:title="solicitor">
<ellipse fill="none" stroke="black" cx="428.6" cy="-192" rx="40.09" ry="18"/>
<text text-anchor="middle" x="428.6" y="-188.3" font-family="Times New Roman,serif" font-size="14.00">solicitor</text>
</a>
</g>
</g>
<!-- 4&#45;&gt;1 -->
<g id="edge4" class="edge">
<title>4&#45;&gt;1</title>
<path fill="none" stroke="black" d="M440.16,-174.61C448.96,-162.15 461.21,-144.79 471.19,-130.65"/>
<polygon fill="black" stroke="black" points="474.15,-132.53 477.06,-122.34 468.44,-128.49 474.15,-132.53"/>
<text text-anchor="middle" x="478.1" y="-144.8" font-family="Times New Roman,serif" font-size="14.00">0.043</text>
</g>
<!-- 5&#45;&gt;1 -->
<g id="edge5" class="edge">
<title>5&#45;&gt;1</title>
<path fill="none" stroke="black" d="M436.43,-35.79C446.03,-48.34 459.3,-65.69 470.06,-79.76"/>
<polygon fill="black" stroke="black" points="467.51,-82.19 476.37,-88.01 473.07,-77.94 467.51,-82.19"/>
<text text-anchor="middle" x="476.1" y="-57.8" font-family="Times New Roman,serif" font-size="14.00">0.033</text>
</g>
<!-- 6&#45;&gt;1 -->
<g id="edge6" class="edge">
<title>6&#45;&gt;1</title>
<path fill="none" stroke="black" d="M555.17,-36.02C555.29,-46.34 553.89,-59.33 547.6,-69 542.24,-77.22 534.22,-83.78 525.81,-88.88"/>
<polygon fill="black" stroke="black" points="524.09,-85.83 516.99,-93.69 527.45,-91.98 524.09,-85.83"/>
<text text-anchor="middle" x="569.1" y="-57.8" font-family="Times New Roman,serif" font-size="14.00">0.028</text>
</g>
<!-- 7 -->
<g id="node8" class="node">
<title>7</title>
<g id="a_node8"><a xlink:href="qa analyst.svg" xlink:title="qa analyst">
<ellipse fill="none" stroke="black" cx="533.6" cy="-192" rx="46.59" ry="18"/>
<text text-anchor="middle" x="533.6" y="-188.3" font-family="Times New Roman,serif" font-size="14.00">qa analyst</text>
</a>
</g>
</g>
<!-- 7&#45;&gt;1 -->
<g id="edge7" class="edge">
<title>7&#45;&gt;1</title>
<path fill="none" stroke="black" d="M524.7,-174.21C518.29,-162.1 509.52,-145.53 502.23,-131.76"/>
<polygon fill="black" stroke="black" points="505.24,-129.96 497.47,-122.76 499.05,-133.23 505.24,-129.96"/>
<text text-anchor="middle" x="530.1" y="-144.8" font-family="Times New Roman,serif" font-size="14.00">0.024</text>
</g>
<!-- 8 -->
<g id="node9" class="node">
<title>8</title>
<g id="a_node9"><a xlink:href="structural engineer.svg" xlink:title="structural engineer">
<ellipse fill="none" stroke="black" cx="674.6" cy="-192" rx="76.89" ry="18"/>
<text text-anchor="middle" x="674.6" y="-188.3" font-family="Times New Roman,serif" font-size="14.00">structural engineer</text>
</a>
</g>
</g>
<!-- 8&#45;&gt;1 -->
<g id="edge8" class="edge">
<title>8&#45;&gt;1</title>
<path fill="none" stroke="black" d="M640.91,-175.61C607.85,-160.5 557.62,-137.54 523.98,-122.17"/>
<polygon fill="black" stroke="black" points="525.09,-118.83 514.54,-117.86 522.18,-125.2 525.09,-118.83"/>
<text text-anchor="middle" x="608.1" y="-144.8" font-family="Times New Roman,serif" font-size="14.00">0.024</text>
</g>
<!-- 9 -->
<g id="node10" class="node">
<title>9</title>
<g id="a_node10"><a xlink:href="building surveyor.svg" xlink:title="building surveyor">
<ellipse fill="none" stroke="black" cx="842.6" cy="-192" rx="73.39" ry="18"/>
<text text-anchor="middle" x="842.6" y="-188.3" font-family="Times New Roman,serif" font-size="14.00">building surveyor</text>
</a>
</g>
</g>
<!-- 9&#45;&gt;1 -->
<g id="edge9" class="edge">
<title>9&#45;&gt;1</title>
<path fill="none" stroke="black" d="M791.88,-178.82C721.65,-161.96 596.07,-131.81 530.72,-116.12"/>
<polygon fill="black" stroke="black" points="531.31,-112.66 520.77,-113.73 529.68,-119.46 531.31,-112.66"/>
<text text-anchor="middle" x="702.1" y="-144.8" font-family="Times New Roman,serif" font-size="14.00">0.019</text>
</g>
</g>
</svg>
