<?xml version="1.0" encoding="UTF-8" standalone="no"?>
<!DOCTYPE svg PUBLIC "-//W3C//DTD SVG 1.1//EN"
 "http://www.w3.org/Graphics/SVG/1.1/DTD/svg11.dtd">
<!-- Generated by graphviz version 2.44.1 (20200629.0800)
 -->
<!-- Title: test Pages: 1 -->
<svg width="1274pt" height="218pt"
 viewBox="0.00 0.00 1274.09 218.00" xmlns="http://www.w3.org/2000/svg" xmlns:xlink="http://www.w3.org/1999/xlink">
<g id="graph0" class="graph" transform="scale(1 1) rotate(0) translate(4 214)">
<title>test</title>
<polygon fill="white" stroke="transparent" points="-4,4 -4,-214 1270.09,-214 1270.09,4 -4,4"/>
<!-- 0 -->
<g id="node1" class="node">
<title>0</title>
<g id="a_node1"><a xlink:href="programme researcher.svg" xlink:title="programme researcher">
<ellipse fill="none" stroke="black" cx="91.64" cy="-192" rx="91.78" ry="18"/>
<text text-anchor="middle" x="91.64" y="-188.3" font-family="Times New Roman,serif" font-size="14.00">programme researcher</text>
</a>
</g>
</g>
<!-- 1 -->
<g id="node2" class="node">
<title>1</title>
<g id="a_node2"><a xlink:href="diplomatic service.svg" xlink:title="diplomatic service">
<ellipse fill="none" stroke="black" cx="485.64" cy="-105" rx="76.89" ry="18"/>
<text text-anchor="middle" x="485.64" y="-101.3" font-family="Times New Roman,serif" font-size="14.00">diplomatic service</text>
</a>
</g>
</g>
<!-- 0&#45;&gt;1 -->
<g id="edge1" class="edge">
<title>0&#45;&gt;1</title>
<path fill="none" stroke="black" d="M98.38,-173.64C103.72,-162.36 112.35,-148.4 124.64,-141 169.23,-114.15 306.75,-107.38 398.6,-105.96"/>
<polygon fill="black" stroke="black" points="398.78,-109.45 408.73,-105.82 398.68,-102.46 398.78,-109.45"/>
<text text-anchor="middle" x="140.14" y="-144.8" font-family="Times New Roman,serif" font-size="14.00">0.090</text>
</g>
<!-- 1&#45;&gt;0 -->
<g id="edge12" class="edge">
<title>1&#45;&gt;0</title>
<path fill="none" stroke="black" d="M429.36,-117.24C395.99,-123.98 352.86,-132.8 314.64,-141 262.16,-152.25 202.88,-165.57 158.64,-175.64"/>
<polygon fill="black" stroke="black" points="157.84,-172.23 148.87,-177.86 159.4,-179.05 157.84,-172.23"/>
<text text-anchor="middle" x="330.14" y="-144.8" font-family="Times New Roman,serif" font-size="14.00">0.076</text>
</g>
<!-- 1&#45;&gt;1 -->
<g id="edge17" class="edge">
<title>1&#45;&gt;1</title>
<path fill="none" stroke="black" d="M555.43,-112.6C569.92,-111.8 580.34,-109.27 580.34,-105 580.34,-101.8 574.47,-99.58 565.43,-98.33"/>
<polygon fill="black" stroke="black" points="565.71,-94.84 555.43,-97.4 565.06,-101.81 565.71,-94.84"/>
<text text-anchor="middle" x="595.84" y="-101.3" font-family="Times New Roman,serif" font-size="14.00">0.038</text>
</g>
<!-- 4 -->
<g id="node5" class="node">
<title>4</title>
<g id="a_node5"><a xlink:href="auditor.svg" xlink:title="auditor">
<ellipse fill="none" stroke="black" cx="96.64" cy="-18" rx="36.29" ry="18"/>
<text text-anchor="middle" x="96.64" y="-14.3" font-family="Times New Roman,serif" font-size="14.00">auditor</text>
</a>
</g>
</g>
<!-- 1&#45;&gt;4 -->
<g id="edge15" class="edge">
<title>1&#45;&gt;4</title>
<path fill="none" stroke="black" d="M411.57,-100.29C331.36,-95.51 209.05,-85.74 165.64,-69 149,-62.58 132.72,-51.12 120.16,-40.78"/>
<polygon fill="black" stroke="black" points="122.36,-38.05 112.48,-34.22 117.81,-43.38 122.36,-38.05"/>
<text text-anchor="middle" x="181.14" y="-57.8" font-family="Times New Roman,serif" font-size="14.00">0.038</text>
</g>
<!-- 9 -->
<g id="node10" class="node">
<title>9</title>
<g id="a_node10"><a xlink:href="health and safety adviser.svg" xlink:title="health and safety adviser">
<ellipse fill="none" stroke="black" cx="250.64" cy="-18" rx="99.38" ry="18"/>
<text text-anchor="middle" x="250.64" y="-14.3" font-family="Times New Roman,serif" font-size="14.00">health and safety adviser</text>
</a>
</g>
</g>
<!-- 1&#45;&gt;9 -->
<g id="edge19" class="edge">
<title>1&#45;&gt;9</title>
<path fill="none" stroke="black" d="M418.22,-96.34C387.25,-91.19 350.6,-82.73 319.64,-69 304.48,-62.28 289.36,-51.85 277.16,-42.25"/>
<polygon fill="black" stroke="black" points="279.18,-39.39 269.21,-35.8 274.77,-44.82 279.18,-39.39"/>
<text text-anchor="middle" x="335.14" y="-57.8" font-family="Times New Roman,serif" font-size="14.00">0.038</text>
</g>
<!-- 10 -->
<g id="node11" class="node">
<title>10</title>
<g id="a_node11"><a xlink:href="lecturer.svg" xlink:title="lecturer">
<ellipse fill="none" stroke="black" cx="405.64" cy="-18" rx="37.89" ry="18"/>
<text text-anchor="middle" x="405.64" y="-14.3" font-family="Times New Roman,serif" font-size="14.00">lecturer</text>
</a>
</g>
</g>
<!-- 1&#45;&gt;10 -->
<g id="edge10" class="edge">
<title>1&#45;&gt;10</title>
<path fill="none" stroke="black" d="M469.84,-87.21C457.7,-74.31 440.79,-56.35 427.38,-42.09"/>
<polygon fill="black" stroke="black" points="429.74,-39.5 420.34,-34.61 424.64,-44.29 429.74,-39.5"/>
<text text-anchor="middle" x="466.14" y="-57.8" font-family="Times New Roman,serif" font-size="14.00">0.076</text>
</g>
<!-- 11 -->
<g id="node12" class="node">
<title>11</title>
<g id="a_node12"><a xlink:href="pharmacovigilance officer.svg" xlink:title="pharmacovigilance officer">
<ellipse fill="none" stroke="black" cx="565.64" cy="-18" rx="104.78" ry="18"/>
<text text-anchor="middle" x="565.64" y="-14.3" font-family="Times New Roman,serif" font-size="14.00">pharmacovigilance officer</text>
</a>
</g>
</g>
<!-- 1&#45;&gt;11 -->
<g id="edge11" class="edge">
<title>1&#45;&gt;11</title>
<path fill="none" stroke="black" d="M501.45,-87.21C513.2,-74.72 529.43,-57.48 542.62,-43.46"/>
<polygon fill="black" stroke="black" points="545.29,-45.73 549.6,-36.05 540.19,-40.93 545.29,-45.73"/>
<text text-anchor="middle" x="546.14" y="-57.8" font-family="Times New Roman,serif" font-size="14.00">0.076</text>
</g>
<!-- 12 -->
<g id="node13" class="node">
<title>12</title>
<g id="a_node13"><a xlink:href="writer.svg" xlink:title="writer">
<ellipse fill="none" stroke="black" cx="719.64" cy="-18" rx="31.4" ry="18"/>
<text text-anchor="middle" x="719.64" y="-14.3" font-family="Times New Roman,serif" font-size="14.00">writer</text>
</a>
</g>
</g>
<!-- 1&#45;&gt;12 -->
<g id="edge13" class="edge">
<title>1&#45;&gt;12</title>
<path fill="none" stroke="black" d="M528.32,-89.93C567.82,-76.69 628.06,-55.98 679.64,-36 681.84,-35.15 684.09,-34.25 686.36,-33.34"/>
<polygon fill="black" stroke="black" points="687.73,-36.56 695.63,-29.5 685.05,-30.09 687.73,-36.56"/>
<text text-anchor="middle" x="643.14" y="-57.8" font-family="Times New Roman,serif" font-size="14.00">0.076</text>
</g>
<!-- 13 -->
<g id="node14" class="node">
<title>13</title>
<g id="a_node14"><a xlink:href="aeronautical engineer.svg" xlink:title="aeronautical engineer">
<ellipse fill="none" stroke="black" cx="854.64" cy="-18" rx="85.59" ry="18"/>
<text text-anchor="middle" x="854.64" y="-14.3" font-family="Times New Roman,serif" font-size="14.00">aeronautical engineer</text>
</a>
</g>
</g>
<!-- 1&#45;&gt;13 -->
<g id="edge14" class="edge">
<title>1&#45;&gt;13</title>
<path fill="none" stroke="black" d="M544.42,-93.29C578.96,-86.76 623.4,-77.98 662.64,-69 707.33,-58.77 757.46,-45.66 795.28,-35.43"/>
<polygon fill="black" stroke="black" points="796.38,-38.76 805.11,-32.76 794.55,-32.01 796.38,-38.76"/>
<text text-anchor="middle" x="736.14" y="-57.8" font-family="Times New Roman,serif" font-size="14.00">0.038</text>
</g>
<!-- 14 -->
<g id="node15" class="node">
<title>14</title>
<g id="a_node15"><a xlink:href="catering manager.svg" xlink:title="catering manager">
<ellipse fill="none" stroke="black" cx="1029.64" cy="-18" rx="71.49" ry="18"/>
<text text-anchor="middle" x="1029.64" y="-14.3" font-family="Times New Roman,serif" font-size="14.00">catering manager</text>
</a>
</g>
</g>
<!-- 1&#45;&gt;14 -->
<g id="edge16" class="edge">
<title>1&#45;&gt;14</title>
<path fill="none" stroke="black" d="M552.32,-96.1C607.03,-89.44 686.46,-79.36 755.64,-69 842.14,-56.04 863.74,-52.43 949.64,-36 955.45,-34.89 961.48,-33.69 967.52,-32.46"/>
<polygon fill="black" stroke="black" points="968.55,-35.82 977.63,-30.37 967.13,-28.97 968.55,-35.82"/>
<text text-anchor="middle" x="864.14" y="-57.8" font-family="Times New Roman,serif" font-size="14.00">0.038</text>
</g>
<!-- 15 -->
<g id="node16" class="node">
<title>15</title>
<g id="a_node16"><a xlink:href="financial manager.svg" xlink:title="financial manager">
<ellipse fill="none" stroke="black" cx="1192.64" cy="-18" rx="73.39" ry="18"/>
<text text-anchor="middle" x="1192.64" y="-14.3" font-family="Times New Roman,serif" font-size="14.00">financial manager</text>
</a>
</g>
</g>
<!-- 1&#45;&gt;15 -->
<g id="edge18" class="edge">
<title>1&#45;&gt;15</title>
<path fill="none" stroke="black" d="M558.03,-98.89C637.89,-92.95 770.14,-82.27 883.64,-69 984.47,-57.22 1009.66,-53.52 1109.64,-36 1115.92,-34.9 1122.44,-33.69 1128.96,-32.43"/>
<polygon fill="black" stroke="black" points="1130.01,-35.79 1139.15,-30.42 1128.66,-28.92 1130.01,-35.79"/>
<text text-anchor="middle" x="1016.14" y="-57.8" font-family="Times New Roman,serif" font-size="14.00">0.038</text>
</g>
<!-- 2 -->
<g id="node3" class="node">
<title>2</title>
<g id="a_node3"><a xlink:href="architect.svg" xlink:title="architect">
<ellipse fill="none" stroke="black" cx="242.64" cy="-192" rx="41.69" ry="18"/>
<text text-anchor="middle" x="242.64" y="-188.3" font-family="Times New Roman,serif" font-size="14.00">architect</text>
</a>
</g>
</g>
<!-- 2&#45;&gt;1 -->
<g id="edge2" class="edge">
<title>2&#45;&gt;1</title>
<path fill="none" stroke="black" d="M273.91,-180.06C314.69,-165.8 386.52,-140.67 435.08,-123.69"/>
<polygon fill="black" stroke="black" points="436.48,-126.9 444.77,-120.3 434.17,-120.3 436.48,-126.9"/>
<text text-anchor="middle" x="395.14" y="-144.8" font-family="Times New Roman,serif" font-size="14.00">0.045</text>
</g>
<!-- 3 -->
<g id="node4" class="node">
<title>3</title>
<g id="a_node4"><a xlink:href="armed forces officer.svg" xlink:title="armed forces officer">
<ellipse fill="none" stroke="black" cx="387.64" cy="-192" rx="85.29" ry="18"/>
<text text-anchor="middle" x="387.64" y="-188.3" font-family="Times New Roman,serif" font-size="14.00">armed forces officer</text>
</a>
</g>
</g>
<!-- 3&#45;&gt;1 -->
<g id="edge3" class="edge">
<title>3&#45;&gt;1</title>
<path fill="none" stroke="black" d="M407,-174.21C421.86,-161.32 442.55,-143.38 458.98,-129.13"/>
<polygon fill="black" stroke="black" points="461.39,-131.67 466.65,-122.47 456.81,-126.38 461.39,-131.67"/>
<text text-anchor="middle" x="458.14" y="-144.8" font-family="Times New Roman,serif" font-size="14.00">0.045</text>
</g>
<!-- 4&#45;&gt;1 -->
<g id="edge4" class="edge">
<title>4&#45;&gt;1</title>
<path fill="none" stroke="black" d="M124.74,-29.77C130.63,-31.92 136.81,-34.1 142.64,-36 193.6,-52.64 206.28,-57.56 258.64,-69 308.34,-79.86 364.87,-88.58 409.09,-94.61"/>
<polygon fill="black" stroke="black" points="408.81,-98.1 419.19,-95.97 409.74,-91.16 408.81,-98.1"/>
<text text-anchor="middle" x="274.14" y="-57.8" font-family="Times New Roman,serif" font-size="14.00">0.045</text>
</g>
<!-- 5 -->
<g id="node6" class="node">
<title>5</title>
<g id="a_node6"><a xlink:href="broadcasting presenter.svg" xlink:title="broadcasting presenter">
<ellipse fill="none" stroke="black" cx="583.64" cy="-192" rx="92.88" ry="18"/>
<text text-anchor="middle" x="583.64" y="-188.3" font-family="Times New Roman,serif" font-size="14.00">broadcasting presenter</text>
</a>
</g>
</g>
<!-- 5&#45;&gt;1 -->
<g id="edge5" class="edge">
<title>5&#45;&gt;1</title>
<path fill="none" stroke="black" d="M564.28,-174.21C549.42,-161.32 528.73,-143.38 512.31,-129.13"/>
<polygon fill="black" stroke="black" points="514.48,-126.38 504.63,-122.47 509.89,-131.67 514.48,-126.38"/>
<text text-anchor="middle" x="556.14" y="-144.8" font-family="Times New Roman,serif" font-size="14.00">0.045</text>
</g>
<!-- 6 -->
<g id="node7" class="node">
<title>6</title>
<g id="a_node7"><a xlink:href="corporate treasurer.svg" xlink:title="corporate treasurer">
<ellipse fill="none" stroke="black" cx="773.64" cy="-192" rx="79.09" ry="18"/>
<text text-anchor="middle" x="773.64" y="-188.3" font-family="Times New Roman,serif" font-size="14.00">corporate treasurer</text>
</a>
</g>
</g>
<!-- 6&#45;&gt;1 -->
<g id="edge6" class="edge">
<title>6&#45;&gt;1</title>
<path fill="none" stroke="black" d="M727.37,-177.34C676.63,-162.37 595.22,-138.34 541.1,-122.37"/>
<polygon fill="black" stroke="black" points="541.91,-118.96 531.32,-119.48 539.92,-125.67 541.91,-118.96"/>
<text text-anchor="middle" x="663.14" y="-144.8" font-family="Times New Roman,serif" font-size="14.00">0.045</text>
</g>
<!-- 7 -->
<g id="node8" class="node">
<title>7</title>
<g id="a_node8"><a xlink:href="curator.svg" xlink:title="curator">
<ellipse fill="none" stroke="black" cx="907.64" cy="-192" rx="36.29" ry="18"/>
<text text-anchor="middle" x="907.64" y="-188.3" font-family="Times New Roman,serif" font-size="14.00">curator</text>
</a>
</g>
</g>
<!-- 7&#45;&gt;1 -->
<g id="edge7" class="edge">
<title>7&#45;&gt;1</title>
<path fill="none" stroke="black" d="M880.16,-179.97C874.12,-177.79 867.72,-175.67 861.64,-174 759.41,-145.91 638.27,-126.39 561.69,-115.69"/>
<polygon fill="black" stroke="black" points="562.03,-112.2 551.65,-114.3 561.07,-119.14 562.03,-112.2"/>
<text text-anchor="middle" x="795.14" y="-144.8" font-family="Times New Roman,serif" font-size="14.00">0.045</text>
</g>
<!-- 8 -->
<g id="node9" class="node">
<title>8</title>
<g id="a_node9"><a xlink:href="education administrator.svg" xlink:title="education administrator">
<ellipse fill="none" stroke="black" cx="1057.64" cy="-192" rx="95.58" ry="18"/>
<text text-anchor="middle" x="1057.64" y="-188.3" font-family="Times New Roman,serif" font-size="14.00">education administrator</text>
</a>
</g>
</g>
<!-- 8&#45;&gt;1 -->
<g id="edge8" class="edge">
<title>8&#45;&gt;1</title>
<path fill="none" stroke="black" d="M999.99,-177.49C950.93,-166.4 878.48,-150.94 814.64,-141 730.69,-127.93 633.93,-118.28 567.18,-112.46"/>
<polygon fill="black" stroke="black" points="567.4,-108.97 557.14,-111.59 566.8,-115.94 567.4,-108.97"/>
<text text-anchor="middle" x="910.14" y="-144.8" font-family="Times New Roman,serif" font-size="14.00">0.045</text>
</g>
<!-- 9&#45;&gt;1 -->
<g id="edge9" class="edge">
<title>9&#45;&gt;1</title>
<path fill="none" stroke="black" d="M293.09,-34.35C333.34,-48.91 393.81,-70.78 436.21,-86.12"/>
<polygon fill="black" stroke="black" points="435.18,-89.47 445.78,-89.58 437.56,-82.89 435.18,-89.47"/>
<text text-anchor="middle" x="398.14" y="-57.8" font-family="Times New Roman,serif" font-size="14.00">0.045</text>
</g>
</g>
</svg>
