<?xml version="1.0" encoding="UTF-8" standalone="no"?>
<!DOCTYPE svg PUBLIC "-//W3C//DTD SVG 1.1//EN"
 "http://www.w3.org/Graphics/SVG/1.1/DTD/svg11.dtd">
<!-- Generated by graphviz version 2.44.1 (20200629.0800)
 -->
<!-- Title: economist Pages: 1 -->
<svg width="1424pt" height="218pt"
 viewBox="0.00 0.00 1424.29 218.00" xmlns="http://www.w3.org/2000/svg" xmlns:xlink="http://www.w3.org/1999/xlink">
<g id="graph0" class="graph" transform="scale(1 1) rotate(0) translate(4 214)">
<title>economist</title>
<polygon fill="white" stroke="transparent" points="-4,4 -4,-214 1420.29,-214 1420.29,4 -4,4"/>
<!-- 0 -->
<g id="node1" class="node">
<title>0</title>
<g id="a_node1"><a xlink:href="it consultant.svg" xlink:title="it consultant">
<ellipse fill="none" stroke="black" cx="287.69" cy="-192" rx="54.69" ry="18"/>
<text text-anchor="middle" x="287.69" y="-188.3" font-family="Times New Roman,serif" font-size="14.00">it consultant</text>
</a>
</g>
</g>
<!-- 1 -->
<g id="node2" class="node">
<title>1</title>
<g id="a_node2"><a xlink:href="economist.svg" xlink:title="economist">
<ellipse fill="none" stroke="black" cx="489.69" cy="-105" rx="48.19" ry="18"/>
<text text-anchor="middle" x="489.69" y="-101.3" font-family="Times New Roman,serif" font-size="14.00">economist</text>
</a>
</g>
</g>
<!-- 0&#45;&gt;1 -->
<g id="edge1" class="edge">
<title>0&#45;&gt;1</title>
<path fill="none" stroke="black" d="M285.42,-174C284.97,-163.16 286.43,-149.59 294.69,-141 313.27,-121.7 381.43,-112.93 431.97,-109.02"/>
<polygon fill="black" stroke="black" points="432.42,-112.49 442.14,-108.28 431.91,-105.51 432.42,-112.49"/>
<text text-anchor="middle" x="310.19" y="-144.8" font-family="Times New Roman,serif" font-size="14.00">0.153</text>
</g>
<!-- 1&#45;&gt;0 -->
<g id="edge19" class="edge">
<title>1&#45;&gt;0</title>
<path fill="none" stroke="black" d="M458.97,-118.93C424.42,-133.47 368.1,-157.16 329.54,-173.39"/>
<polygon fill="black" stroke="black" points="328.01,-170.24 320.15,-177.34 330.72,-176.69 328.01,-170.24"/>
<text text-anchor="middle" x="414.19" y="-144.8" font-family="Times New Roman,serif" font-size="14.00">0.05</text>
</g>
<!-- 1&#45;&gt;1 -->
<g id="edge10" class="edge">
<title>1&#45;&gt;1</title>
<path fill="none" stroke="black" d="M533.24,-112.85C545.94,-112.58 555.79,-109.96 555.79,-105 555.79,-101.51 550.92,-99.18 543.61,-98.01"/>
<polygon fill="black" stroke="black" points="543.49,-94.49 533.24,-97.15 542.91,-101.46 543.49,-94.49"/>
<text text-anchor="middle" x="568.29" y="-101.3" font-family="Times New Roman,serif" font-size="14.00">0.25</text>
</g>
<!-- 2 -->
<g id="node3" class="node">
<title>2</title>
<g id="a_node3"><a xlink:href="investment analyst.svg" xlink:title="investment analyst">
<ellipse fill="none" stroke="black" cx="76.69" cy="-18" rx="76.89" ry="18"/>
<text text-anchor="middle" x="76.69" y="-14.3" font-family="Times New Roman,serif" font-size="14.00">investment analyst</text>
</a>
</g>
</g>
<!-- 1&#45;&gt;2 -->
<g id="edge18" class="edge">
<title>1&#45;&gt;2</title>
<path fill="none" stroke="black" d="M441.43,-104.24C378.13,-103.31 264.24,-97.33 171.69,-69 150.14,-62.4 127.76,-50.88 110.13,-40.56"/>
<polygon fill="black" stroke="black" points="111.75,-37.45 101.38,-35.31 108.15,-43.45 111.75,-37.45"/>
<text text-anchor="middle" x="184.19" y="-57.8" font-family="Times New Roman,serif" font-size="14.00">0.05</text>
</g>
<!-- 7 -->
<g id="node8" class="node">
<title>7</title>
<g id="a_node8"><a xlink:href="financial manager.svg" xlink:title="financial manager">
<ellipse fill="none" stroke="black" cx="244.69" cy="-18" rx="73.39" ry="18"/>
<text text-anchor="middle" x="244.69" y="-14.3" font-family="Times New Roman,serif" font-size="14.00">financial manager</text>
</a>
</g>
</g>
<!-- 1&#45;&gt;7 -->
<g id="edge16" class="edge">
<title>1&#45;&gt;7</title>
<path fill="none" stroke="black" d="M444.38,-98.88C410.27,-93.98 362.85,-84.91 323.69,-69 306.38,-61.97 288.67,-51.15 274.41,-41.37"/>
<polygon fill="black" stroke="black" points="276.21,-38.36 266.02,-35.46 272.18,-44.08 276.21,-38.36"/>
<text text-anchor="middle" x="336.19" y="-57.8" font-family="Times New Roman,serif" font-size="14.00">0.05</text>
</g>
<!-- 8 -->
<g id="node9" class="node">
<title>8</title>
<g id="a_node9"><a xlink:href="government research officer.svg" xlink:title="government research officer">
<ellipse fill="none" stroke="black" cx="448.69" cy="-18" rx="112.38" ry="18"/>
<text text-anchor="middle" x="448.69" y="-14.3" font-family="Times New Roman,serif" font-size="14.00">government research officer</text>
</a>
</g>
</g>
<!-- 1&#45;&gt;8 -->
<g id="edge11" class="edge">
<title>1&#45;&gt;8</title>
<path fill="none" stroke="black" d="M463.92,-89.62C456.67,-84.18 449.68,-77.26 445.69,-69 442.32,-62 441.66,-53.79 442.24,-46.08"/>
<polygon fill="black" stroke="black" points="445.73,-46.4 443.66,-36.01 438.8,-45.43 445.73,-46.4"/>
<text text-anchor="middle" x="454.69" y="-57.8" font-family="Times New Roman,serif" font-size="14.00">0.2</text>
</g>
<!-- 10 -->
<g id="node11" class="node">
<title>10</title>
<g id="a_node11"><a xlink:href="public affairs consultant.svg" xlink:title="public affairs consultant">
<ellipse fill="none" stroke="black" cx="676.69" cy="-18" rx="97.48" ry="18"/>
<text text-anchor="middle" x="676.69" y="-14.3" font-family="Times New Roman,serif" font-size="14.00">public affairs consultant</text>
</a>
</g>
</g>
<!-- 1&#45;&gt;10 -->
<g id="edge12" class="edge">
<title>1&#45;&gt;10</title>
<path fill="none" stroke="black" d="M519.32,-90.53C549.73,-76.71 597.4,-55.04 632.31,-39.18"/>
<polygon fill="black" stroke="black" points="634.14,-42.19 641.79,-34.86 631.24,-35.82 634.14,-42.19"/>
<text text-anchor="middle" x="603.69" y="-57.8" font-family="Times New Roman,serif" font-size="14.00">0.1</text>
</g>
<!-- 11 -->
<g id="node12" class="node">
<title>11</title>
<g id="a_node12"><a xlink:href="aid worker.svg" xlink:title="aid worker">
<ellipse fill="none" stroke="black" cx="841.69" cy="-18" rx="49.29" ry="18"/>
<text text-anchor="middle" x="841.69" y="-14.3" font-family="Times New Roman,serif" font-size="14.00">aid worker</text>
</a>
</g>
</g>
<!-- 1&#45;&gt;11 -->
<g id="edge13" class="edge">
<title>1&#45;&gt;11</title>
<path fill="none" stroke="black" d="M530.62,-95.21C587.41,-82.86 693.24,-59.25 782.69,-36 786.7,-34.96 790.84,-33.84 795,-32.7"/>
<polygon fill="black" stroke="black" points="795.95,-36.07 804.64,-30 794.06,-29.33 795.95,-36.07"/>
<text text-anchor="middle" x="722.19" y="-57.8" font-family="Times New Roman,serif" font-size="14.00">0.05</text>
</g>
<!-- 12 -->
<g id="node13" class="node">
<title>12</title>
<g id="a_node13"><a xlink:href="education administrator.svg" xlink:title="education administrator">
<ellipse fill="none" stroke="black" cx="1004.69" cy="-18" rx="95.58" ry="18"/>
<text text-anchor="middle" x="1004.69" y="-14.3" font-family="Times New Roman,serif" font-size="14.00">education administrator</text>
</a>
</g>
</g>
<!-- 1&#45;&gt;12 -->
<g id="edge14" class="edge">
<title>1&#45;&gt;12</title>
<path fill="none" stroke="black" d="M534.77,-98.3C584.72,-91.84 667.62,-80.67 738.69,-69 804.25,-58.24 878.53,-44.11 931.91,-33.62"/>
<polygon fill="black" stroke="black" points="932.82,-37.01 941.96,-31.64 931.47,-30.14 932.82,-37.01"/>
<text text-anchor="middle" x="831.19" y="-57.8" font-family="Times New Roman,serif" font-size="14.00">0.05</text>
</g>
<!-- 13 -->
<g id="node14" class="node">
<title>13</title>
<g id="a_node14"><a xlink:href="facilities manager.svg" xlink:title="facilities manager">
<ellipse fill="none" stroke="black" cx="1190.69" cy="-18" rx="72.59" ry="18"/>
<text text-anchor="middle" x="1190.69" y="-14.3" font-family="Times New Roman,serif" font-size="14.00">facilities manager</text>
</a>
</g>
</g>
<!-- 1&#45;&gt;13 -->
<g id="edge15" class="edge">
<title>1&#45;&gt;13</title>
<path fill="none" stroke="black" d="M536.61,-100.69C640.41,-92.95 897.17,-71.62 1109.69,-36 1115.83,-34.97 1122.21,-33.8 1128.57,-32.57"/>
<polygon fill="black" stroke="black" points="1129.4,-35.98 1138.52,-30.6 1128.04,-29.11 1129.4,-35.98"/>
<text text-anchor="middle" x="986.19" y="-57.8" font-family="Times New Roman,serif" font-size="14.00">0.05</text>
</g>
<!-- 14 -->
<g id="node15" class="node">
<title>14</title>
<g id="a_node15"><a xlink:href="housing adviser.svg" xlink:title="housing adviser">
<ellipse fill="none" stroke="black" cx="1348.69" cy="-18" rx="67.69" ry="18"/>
<text text-anchor="middle" x="1348.69" y="-14.3" font-family="Times New Roman,serif" font-size="14.00">housing adviser</text>
</a>
</g>
</g>
<!-- 1&#45;&gt;14 -->
<g id="edge17" class="edge">
<title>1&#45;&gt;14</title>
<path fill="none" stroke="black" d="M537.72,-102.64C660.77,-98.55 997.04,-83.56 1272.69,-36 1278.41,-35.01 1284.35,-33.88 1290.27,-32.68"/>
<polygon fill="black" stroke="black" points="1291.11,-36.08 1300.18,-30.6 1289.68,-29.22 1291.11,-36.08"/>
<text text-anchor="middle" x="1157.19" y="-57.8" font-family="Times New Roman,serif" font-size="14.00">0.05</text>
</g>
<!-- 2&#45;&gt;1 -->
<g id="edge2" class="edge">
<title>2&#45;&gt;1</title>
<path fill="none" stroke="black" d="M121.59,-32.64C158.84,-43.6 213.35,-58.79 261.69,-69 320.16,-81.35 387.93,-91.19 434.29,-97.26"/>
<polygon fill="black" stroke="black" points="434.07,-100.76 444.43,-98.57 434.96,-93.81 434.07,-100.76"/>
<text text-anchor="middle" x="277.19" y="-57.8" font-family="Times New Roman,serif" font-size="14.00">0.076</text>
</g>
<!-- 3 -->
<g id="node4" class="node">
<title>3</title>
<g id="a_node4"><a xlink:href="lecturer.svg" xlink:title="lecturer">
<ellipse fill="none" stroke="black" cx="397.69" cy="-192" rx="37.89" ry="18"/>
<text text-anchor="middle" x="397.69" y="-188.3" font-family="Times New Roman,serif" font-size="14.00">lecturer</text>
</a>
</g>
</g>
<!-- 3&#45;&gt;1 -->
<g id="edge3" class="edge">
<title>3&#45;&gt;1</title>
<path fill="none" stroke="black" d="M414.14,-175.8C428.27,-162.75 448.84,-143.75 464.95,-128.86"/>
<polygon fill="black" stroke="black" points="467.48,-131.29 472.45,-121.93 462.73,-126.15 467.48,-131.29"/>
<text text-anchor="middle" x="465.19" y="-144.8" font-family="Times New Roman,serif" font-size="14.00">0.076</text>
</g>
<!-- 4 -->
<g id="node5" class="node">
<title>4</title>
<g id="a_node5"><a xlink:href="auditor.svg" xlink:title="auditor">
<ellipse fill="none" stroke="black" cx="489.69" cy="-192" rx="36.29" ry="18"/>
<text text-anchor="middle" x="489.69" y="-188.3" font-family="Times New Roman,serif" font-size="14.00">auditor</text>
</a>
</g>
</g>
<!-- 4&#45;&gt;1 -->
<g id="edge4" class="edge">
<title>4&#45;&gt;1</title>
<path fill="none" stroke="black" d="M489.69,-173.8C489.69,-162.16 489.69,-146.55 489.69,-133.24"/>
<polygon fill="black" stroke="black" points="493.19,-133.18 489.69,-123.18 486.19,-133.18 493.19,-133.18"/>
<text text-anchor="middle" x="505.19" y="-144.8" font-family="Times New Roman,serif" font-size="14.00">0.038</text>
</g>
<!-- 5 -->
<g id="node6" class="node">
<title>5</title>
<g id="a_node6"><a xlink:href="careers adviser.svg" xlink:title="careers adviser">
<ellipse fill="none" stroke="black" cx="608.69" cy="-192" rx="64.99" ry="18"/>
<text text-anchor="middle" x="608.69" y="-188.3" font-family="Times New Roman,serif" font-size="14.00">careers adviser</text>
</a>
</g>
</g>
<!-- 5&#45;&gt;1 -->
<g id="edge5" class="edge">
<title>5&#45;&gt;1</title>
<path fill="none" stroke="black" d="M586.31,-175.01C567.37,-161.49 540.09,-142 519.34,-127.18"/>
<polygon fill="black" stroke="black" points="521.35,-124.31 511.17,-121.34 517.28,-130 521.35,-124.31"/>
<text text-anchor="middle" x="572.19" y="-144.8" font-family="Times New Roman,serif" font-size="14.00">0.038</text>
</g>
<!-- 6 -->
<g id="node7" class="node">
<title>6</title>
<g id="a_node7"><a xlink:href="debt adviser.svg" xlink:title="debt adviser">
<ellipse fill="none" stroke="black" cx="746.69" cy="-192" rx="55.49" ry="18"/>
<text text-anchor="middle" x="746.69" y="-188.3" font-family="Times New Roman,serif" font-size="14.00">debt adviser</text>
</a>
</g>
</g>
<!-- 6&#45;&gt;1 -->
<g id="edge6" class="edge">
<title>6&#45;&gt;1</title>
<path fill="none" stroke="black" d="M709.32,-178.64C662.96,-163.31 583.98,-137.18 534.43,-120.8"/>
<polygon fill="black" stroke="black" points="535.23,-117.37 524.63,-117.56 533.03,-124.02 535.23,-117.37"/>
<text text-anchor="middle" x="648.19" y="-144.8" font-family="Times New Roman,serif" font-size="14.00">0.038</text>
</g>
<!-- 7&#45;&gt;1 -->
<g id="edge7" class="edge">
<title>7&#45;&gt;1</title>
<path fill="none" stroke="black" d="M285.4,-33.12C329.78,-48.52 400.53,-73.07 446.04,-88.85"/>
<polygon fill="black" stroke="black" points="445.03,-92.21 455.63,-92.18 447.33,-85.6 445.03,-92.21"/>
<text text-anchor="middle" x="398.19" y="-57.8" font-family="Times New Roman,serif" font-size="14.00">0.038</text>
</g>
<!-- 8&#45;&gt;1 -->
<g id="edge8" class="edge">
<title>8&#45;&gt;1</title>
<path fill="none" stroke="black" d="M458.26,-35.94C461.37,-41.63 464.77,-48.04 467.69,-54 471.45,-61.66 475.29,-70.12 478.68,-77.86"/>
<polygon fill="black" stroke="black" points="475.52,-79.38 482.7,-87.17 481.95,-76.61 475.52,-79.38"/>
<text text-anchor="middle" x="491.19" y="-57.8" font-family="Times New Roman,serif" font-size="14.00">0.038</text>
</g>
<!-- 9 -->
<g id="node10" class="node">
<title>9</title>
<g id="a_node10"><a xlink:href="market research analyst.svg" xlink:title="market research analyst">
<ellipse fill="none" stroke="black" cx="914.69" cy="-192" rx="94.78" ry="18"/>
<text text-anchor="middle" x="914.69" y="-188.3" font-family="Times New Roman,serif" font-size="14.00">market research analyst</text>
</a>
</g>
</g>
<!-- 9&#45;&gt;1 -->
<g id="edge9" class="edge">
<title>9&#45;&gt;1</title>
<path fill="none" stroke="black" d="M852.54,-178.32C802.6,-168.15 730.66,-153.56 667.69,-141 625.25,-132.53 577.07,-123.07 541.56,-116.12"/>
<polygon fill="black" stroke="black" points="541.91,-112.62 531.43,-114.14 540.57,-119.49 541.91,-112.62"/>
<text text-anchor="middle" x="757.19" y="-144.8" font-family="Times New Roman,serif" font-size="14.00">0.038</text>
</g>
</g>
</svg>
