<?xml version="1.0" encoding="UTF-8" standalone="no"?>
<!DOCTYPE svg PUBLIC "-//W3C//DTD SVG 1.1//EN"
 "http://www.w3.org/Graphics/SVG/1.1/DTD/svg11.dtd">
<!-- Generated by graphviz version 2.44.1 (20200629.0800)
 -->
<!-- Title: test Pages: 1 -->
<svg width="1359pt" height="218pt"
 viewBox="0.00 0.00 1359.29 218.00" xmlns="http://www.w3.org/2000/svg" xmlns:xlink="http://www.w3.org/1999/xlink">
<g id="graph0" class="graph" transform="scale(1 1) rotate(0) translate(4 214)">
<title>test</title>
<polygon fill="white" stroke="transparent" points="-4,4 -4,-214 1355.29,-214 1355.29,4 -4,4"/>
<!-- 0 -->
<g id="node1" class="node">
<title>0</title>
<g id="a_node1"><a xlink:href="it consultant.svg" xlink:title="it consultant">
<ellipse fill="none" stroke="black" cx="349.69" cy="-192" rx="54.69" ry="18"/>
<text text-anchor="middle" x="349.69" y="-188.3" font-family="Times New Roman,serif" font-size="14.00">it consultant</text>
</a>
</g>
</g>
<!-- 1 -->
<g id="node2" class="node">
<title>1</title>
<g id="a_node2"><a xlink:href="economist.svg" xlink:title="economist">
<ellipse fill="none" stroke="black" cx="505.69" cy="-105" rx="48.19" ry="18"/>
<text text-anchor="middle" x="505.69" y="-101.3" font-family="Times New Roman,serif" font-size="14.00">economist</text>
</a>
</g>
</g>
<!-- 0&#45;&gt;1 -->
<g id="edge1" class="edge">
<title>0&#45;&gt;1</title>
<path fill="none" stroke="black" d="M349.52,-173.53C350.35,-162.77 353.25,-149.47 361.69,-141 374.3,-128.36 415.57,-119.13 450.71,-113.34"/>
<polygon fill="black" stroke="black" points="451.58,-116.75 460.91,-111.72 450.48,-109.83 451.58,-116.75"/>
<text text-anchor="middle" x="377.19" y="-144.8" font-family="Times New Roman,serif" font-size="14.00">0.153</text>
</g>
<!-- 1&#45;&gt;0 -->
<g id="edge12" class="edge">
<title>1&#45;&gt;0</title>
<path fill="none" stroke="black" d="M479.61,-120.21C453.92,-134.21 414.46,-155.71 385.77,-171.34"/>
<polygon fill="black" stroke="black" points="383.97,-168.34 376.87,-176.19 387.32,-174.48 383.97,-168.34"/>
<text text-anchor="middle" x="446.69" y="-144.8" font-family="Times New Roman,serif" font-size="14.00">0.1</text>
</g>
<!-- 1&#45;&gt;1 -->
<g id="edge10" class="edge">
<title>1&#45;&gt;1</title>
<path fill="none" stroke="black" d="M549.24,-112.85C561.94,-112.58 571.79,-109.96 571.79,-105 571.79,-101.51 566.92,-99.18 559.61,-98.01"/>
<polygon fill="black" stroke="black" points="559.49,-94.49 549.24,-97.15 558.91,-101.46 559.49,-94.49"/>
<text text-anchor="middle" x="584.29" y="-101.3" font-family="Times New Roman,serif" font-size="14.00">0.25</text>
</g>
<!-- 2 -->
<g id="node3" class="node">
<title>2</title>
<g id="a_node3"><a xlink:href="investment analyst.svg" xlink:title="investment analyst">
<ellipse fill="none" stroke="black" cx="76.69" cy="-18" rx="76.89" ry="18"/>
<text text-anchor="middle" x="76.69" y="-14.3" font-family="Times New Roman,serif" font-size="14.00">investment analyst</text>
</a>
</g>
</g>
<!-- 1&#45;&gt;2 -->
<g id="edge19" class="edge">
<title>1&#45;&gt;2</title>
<path fill="none" stroke="black" d="M458.15,-101.86C376.25,-97.74 212.11,-87.44 157.69,-69 139.11,-62.71 120.35,-51.5 105.57,-41.29"/>
<polygon fill="black" stroke="black" points="107.53,-38.39 97.35,-35.44 103.47,-44.09 107.53,-38.39"/>
<text text-anchor="middle" x="170.19" y="-57.8" font-family="Times New Roman,serif" font-size="14.00">0.05</text>
</g>
<!-- 5 -->
<g id="node6" class="node">
<title>5</title>
<g id="a_node6"><a xlink:href="careers adviser.svg" xlink:title="careers adviser">
<ellipse fill="none" stroke="black" cx="236.69" cy="-18" rx="64.99" ry="18"/>
<text text-anchor="middle" x="236.69" y="-14.3" font-family="Times New Roman,serif" font-size="14.00">careers adviser</text>
</a>
</g>
</g>
<!-- 1&#45;&gt;5 -->
<g id="edge14" class="edge">
<title>1&#45;&gt;5</title>
<path fill="none" stroke="black" d="M457.94,-102.6C414.9,-99.8 350.71,-91.76 299.69,-69 285.33,-62.59 271.4,-52.14 260.32,-42.45"/>
<polygon fill="black" stroke="black" points="262.53,-39.73 252.78,-35.59 257.82,-44.91 262.53,-39.73"/>
<text text-anchor="middle" x="312.19" y="-57.8" font-family="Times New Roman,serif" font-size="14.00">0.05</text>
</g>
<!-- 7 -->
<g id="node8" class="node">
<title>7</title>
<g id="a_node8"><a xlink:href="financial manager.svg" xlink:title="financial manager">
<ellipse fill="none" stroke="black" cx="392.69" cy="-18" rx="73.39" ry="18"/>
<text text-anchor="middle" x="392.69" y="-14.3" font-family="Times New Roman,serif" font-size="14.00">financial manager</text>
</a>
</g>
</g>
<!-- 1&#45;&gt;7 -->
<g id="edge17" class="edge">
<title>1&#45;&gt;7</title>
<path fill="none" stroke="black" d="M464.18,-95.86C446.79,-90.66 427.46,-82.3 413.69,-69 407.24,-62.77 402.69,-54.25 399.51,-46.01"/>
<polygon fill="black" stroke="black" points="402.75,-44.66 396.27,-36.27 396.1,-46.86 402.75,-44.66"/>
<text text-anchor="middle" x="426.19" y="-57.8" font-family="Times New Roman,serif" font-size="14.00">0.05</text>
</g>
<!-- 8 -->
<g id="node9" class="node">
<title>8</title>
<g id="a_node9"><a xlink:href="government research officer.svg" xlink:title="government research officer">
<ellipse fill="none" stroke="black" cx="596.69" cy="-18" rx="112.38" ry="18"/>
<text text-anchor="middle" x="596.69" y="-14.3" font-family="Times New Roman,serif" font-size="14.00">government research officer</text>
</a>
</g>
</g>
<!-- 1&#45;&gt;8 -->
<g id="edge11" class="edge">
<title>1&#45;&gt;8</title>
<path fill="none" stroke="black" d="M511.89,-87.14C516.41,-76.63 523.37,-63.37 532.69,-54 537.79,-48.88 543.79,-44.3 550.05,-40.28"/>
<polygon fill="black" stroke="black" points="551.87,-43.26 558.67,-35.14 548.29,-37.25 551.87,-43.26"/>
<text text-anchor="middle" x="541.69" y="-57.8" font-family="Times New Roman,serif" font-size="14.00">0.2</text>
</g>
<!-- 10 -->
<g id="node11" class="node">
<title>10</title>
<g id="a_node11"><a xlink:href="aid worker.svg" xlink:title="aid worker">
<ellipse fill="none" stroke="black" cx="776.69" cy="-18" rx="49.29" ry="18"/>
<text text-anchor="middle" x="776.69" y="-14.3" font-family="Times New Roman,serif" font-size="14.00">aid worker</text>
</a>
</g>
</g>
<!-- 1&#45;&gt;10 -->
<g id="edge13" class="edge">
<title>1&#45;&gt;10</title>
<path fill="none" stroke="black" d="M541.4,-92.8C590.11,-77.52 677.43,-50.13 730.9,-33.36"/>
<polygon fill="black" stroke="black" points="731.98,-36.69 740.47,-30.36 729.89,-30.01 731.98,-36.69"/>
<text text-anchor="middle" x="669.19" y="-57.8" font-family="Times New Roman,serif" font-size="14.00">0.05</text>
</g>
<!-- 11 -->
<g id="node12" class="node">
<title>11</title>
<g id="a_node12"><a xlink:href="education administrator.svg" xlink:title="education administrator">
<ellipse fill="none" stroke="black" cx="939.69" cy="-18" rx="95.58" ry="18"/>
<text text-anchor="middle" x="939.69" y="-14.3" font-family="Times New Roman,serif" font-size="14.00">education administrator</text>
</a>
</g>
</g>
<!-- 1&#45;&gt;11 -->
<g id="edge15" class="edge">
<title>1&#45;&gt;11</title>
<path fill="none" stroke="black" d="M547.53,-95.89C584.01,-88.82 638.36,-78.26 685.69,-69 746.58,-57.09 815.66,-43.48 866.39,-33.48"/>
<polygon fill="black" stroke="black" points="867.15,-36.89 876.29,-31.52 865.8,-30.03 867.15,-36.89"/>
<text text-anchor="middle" x="767.19" y="-57.8" font-family="Times New Roman,serif" font-size="14.00">0.05</text>
</g>
<!-- 12 -->
<g id="node13" class="node">
<title>12</title>
<g id="a_node13"><a xlink:href="facilities manager.svg" xlink:title="facilities manager">
<ellipse fill="none" stroke="black" cx="1125.69" cy="-18" rx="72.59" ry="18"/>
<text text-anchor="middle" x="1125.69" y="-14.3" font-family="Times New Roman,serif" font-size="14.00">facilities manager</text>
</a>
</g>
</g>
<!-- 1&#45;&gt;12 -->
<g id="edge16" class="edge">
<title>1&#45;&gt;12</title>
<path fill="none" stroke="black" d="M551.66,-99.48C644.96,-90.03 863.08,-66.49 1044.69,-36 1050.83,-34.97 1057.21,-33.8 1063.57,-32.57"/>
<polygon fill="black" stroke="black" points="1064.4,-35.98 1073.52,-30.6 1063.03,-29.11 1064.4,-35.98"/>
<text text-anchor="middle" x="939.19" y="-57.8" font-family="Times New Roman,serif" font-size="14.00">0.05</text>
</g>
<!-- 13 -->
<g id="node14" class="node">
<title>13</title>
<g id="a_node14"><a xlink:href="housing adviser.svg" xlink:title="housing adviser">
<ellipse fill="none" stroke="black" cx="1283.69" cy="-18" rx="67.69" ry="18"/>
<text text-anchor="middle" x="1283.69" y="-14.3" font-family="Times New Roman,serif" font-size="14.00">housing adviser</text>
</a>
</g>
</g>
<!-- 1&#45;&gt;13 -->
<g id="edge18" class="edge">
<title>1&#45;&gt;13</title>
<path fill="none" stroke="black" d="M553.29,-101.97C667.13,-96.56 963.84,-79.15 1207.69,-36 1213.41,-34.99 1219.34,-33.84 1225.26,-32.63"/>
<polygon fill="black" stroke="black" points="1226.11,-36.02 1235.17,-30.54 1224.66,-29.17 1226.11,-36.02"/>
<text text-anchor="middle" x="1086.19" y="-57.8" font-family="Times New Roman,serif" font-size="14.00">0.05</text>
</g>
<!-- 2&#45;&gt;1 -->
<g id="edge2" class="edge">
<title>2&#45;&gt;1</title>
<path fill="none" stroke="black" d="M117.31,-33.43C150.2,-44.61 197.93,-59.72 240.69,-69 311.63,-84.39 394.82,-94.04 448.8,-99.22"/>
<polygon fill="black" stroke="black" points="448.58,-102.71 458.86,-100.16 449.23,-95.74 448.58,-102.71"/>
<text text-anchor="middle" x="256.19" y="-57.8" font-family="Times New Roman,serif" font-size="14.00">0.076</text>
</g>
<!-- 3 -->
<g id="node4" class="node">
<title>3</title>
<g id="a_node4"><a xlink:href="lecturer.svg" xlink:title="lecturer">
<ellipse fill="none" stroke="black" cx="459.69" cy="-192" rx="37.89" ry="18"/>
<text text-anchor="middle" x="459.69" y="-188.3" font-family="Times New Roman,serif" font-size="14.00">lecturer</text>
</a>
</g>
</g>
<!-- 3&#45;&gt;1 -->
<g id="edge3" class="edge">
<title>3&#45;&gt;1</title>
<path fill="none" stroke="black" d="M468.78,-174.21C475.33,-162.1 484.3,-145.53 491.75,-131.76"/>
<polygon fill="black" stroke="black" points="494.94,-133.22 496.62,-122.76 488.79,-129.89 494.94,-133.22"/>
<text text-anchor="middle" x="501.19" y="-144.8" font-family="Times New Roman,serif" font-size="14.00">0.076</text>
</g>
<!-- 4 -->
<g id="node5" class="node">
<title>4</title>
<g id="a_node5"><a xlink:href="auditor.svg" xlink:title="auditor">
<ellipse fill="none" stroke="black" cx="551.69" cy="-192" rx="36.29" ry="18"/>
<text text-anchor="middle" x="551.69" y="-188.3" font-family="Times New Roman,serif" font-size="14.00">auditor</text>
</a>
</g>
</g>
<!-- 4&#45;&gt;1 -->
<g id="edge4" class="edge">
<title>4&#45;&gt;1</title>
<path fill="none" stroke="black" d="M542.61,-174.21C536.05,-162.1 527.09,-145.53 519.63,-131.76"/>
<polygon fill="black" stroke="black" points="522.6,-129.89 514.76,-122.76 516.44,-133.22 522.6,-129.89"/>
<text text-anchor="middle" x="547.19" y="-144.8" font-family="Times New Roman,serif" font-size="14.00">0.038</text>
</g>
<!-- 5&#45;&gt;1 -->
<g id="edge5" class="edge">
<title>5&#45;&gt;1</title>
<path fill="none" stroke="black" d="M271.34,-33.34C297.75,-43.98 335.16,-58.4 368.69,-69 397.11,-77.98 429.38,-86.31 455.46,-92.59"/>
<polygon fill="black" stroke="black" points="454.96,-96.07 465.49,-94.98 456.58,-89.26 454.96,-96.07"/>
<text text-anchor="middle" x="384.19" y="-57.8" font-family="Times New Roman,serif" font-size="14.00">0.038</text>
</g>
<!-- 6 -->
<g id="node7" class="node">
<title>6</title>
<g id="a_node7"><a xlink:href="debt adviser.svg" xlink:title="debt adviser">
<ellipse fill="none" stroke="black" cx="661.69" cy="-192" rx="55.49" ry="18"/>
<text text-anchor="middle" x="661.69" y="-188.3" font-family="Times New Roman,serif" font-size="14.00">debt adviser</text>
</a>
</g>
</g>
<!-- 6&#45;&gt;1 -->
<g id="edge6" class="edge">
<title>6&#45;&gt;1</title>
<path fill="none" stroke="black" d="M634.52,-176.19C608.45,-161.99 568.95,-140.47 540.57,-125"/>
<polygon fill="black" stroke="black" points="542.23,-121.92 531.78,-120.21 538.88,-128.07 542.23,-121.92"/>
<text text-anchor="middle" x="608.19" y="-144.8" font-family="Times New Roman,serif" font-size="14.00">0.038</text>
</g>
<!-- 7&#45;&gt;1 -->
<g id="edge7" class="edge">
<title>7&#45;&gt;1</title>
<path fill="none" stroke="black" d="M414.55,-35.44C432.35,-48.83 457.62,-67.84 477.04,-82.44"/>
<polygon fill="black" stroke="black" points="475.13,-85.39 485.23,-88.61 479.34,-79.8 475.13,-85.39"/>
<text text-anchor="middle" x="472.19" y="-57.8" font-family="Times New Roman,serif" font-size="14.00">0.038</text>
</g>
<!-- 8&#45;&gt;1 -->
<g id="edge8" class="edge">
<title>8&#45;&gt;1</title>
<path fill="none" stroke="black" d="M584.05,-36.14C576.18,-46.26 565.51,-59 554.69,-69 549.43,-73.86 543.48,-78.63 537.58,-83.01"/>
<polygon fill="black" stroke="black" points="535.15,-80.44 529.06,-89.1 539.22,-86.13 535.15,-80.44"/>
<text text-anchor="middle" x="584.19" y="-57.8" font-family="Times New Roman,serif" font-size="14.00">0.038</text>
</g>
<!-- 9 -->
<g id="node10" class="node">
<title>9</title>
<g id="a_node10"><a xlink:href="market research analyst.svg" xlink:title="market research analyst">
<ellipse fill="none" stroke="black" cx="829.69" cy="-192" rx="94.78" ry="18"/>
<text text-anchor="middle" x="829.69" y="-188.3" font-family="Times New Roman,serif" font-size="14.00">market research analyst</text>
</a>
</g>
</g>
<!-- 9&#45;&gt;1 -->
<g id="edge9" class="edge">
<title>9&#45;&gt;1</title>
<path fill="none" stroke="black" d="M776.55,-177.06C714.78,-160.85 613.7,-134.34 554.05,-118.69"/>
<polygon fill="black" stroke="black" points="554.69,-115.23 544.13,-116.08 552.91,-122.01 554.69,-115.23"/>
<text text-anchor="middle" x="702.19" y="-144.8" font-family="Times New Roman,serif" font-size="14.00">0.038</text>
</g>
</g>
</svg>
