<?xml version="1.0" encoding="UTF-8" standalone="no"?>
<!DOCTYPE svg PUBLIC "-//W3C//DTD SVG 1.1//EN"
 "http://www.w3.org/Graphics/SVG/1.1/DTD/svg11.dtd">
<!-- Generated by graphviz version 2.44.1 (20200629.0800)
 -->
<!-- Title: test Pages: 1 -->
<svg width="1471pt" height="218pt"
 viewBox="0.00 0.00 1471.09 218.00" xmlns="http://www.w3.org/2000/svg" xmlns:xlink="http://www.w3.org/1999/xlink">
<g id="graph0" class="graph" transform="scale(1 1) rotate(0) translate(4 214)">
<title>test</title>
<polygon fill="white" stroke="transparent" points="-4,4 -4,-214 1467.09,-214 1467.09,4 -4,4"/>
<!-- 0 -->
<g id="node1" class="node">
<title>0</title>
<g id="a_node1"><a xlink:href="lecturer.svg" xlink:title="lecturer">
<ellipse fill="none" stroke="black" cx="472.89" cy="-192" rx="37.89" ry="18"/>
<text text-anchor="middle" x="472.89" y="-188.3" font-family="Times New Roman,serif" font-size="14.00">lecturer</text>
</a>
</g>
</g>
<!-- 1 -->
<g id="node2" class="node">
<title>1</title>
<g id="a_node2"><a xlink:href="education administrator.svg" xlink:title="education administrator">
<ellipse fill="none" stroke="black" cx="569.89" cy="-105" rx="95.58" ry="18"/>
<text text-anchor="middle" x="569.89" y="-101.3" font-family="Times New Roman,serif" font-size="14.00">education administrator</text>
</a>
</g>
</g>
<!-- 0&#45;&gt;1 -->
<g id="edge1" class="edge">
<title>0&#45;&gt;1</title>
<path fill="none" stroke="black" d="M466.42,-174.23C463.54,-163.76 462.13,-150.51 468.89,-141 474.71,-132.84 482.56,-126.56 491.33,-121.74"/>
<polygon fill="black" stroke="black" points="492.89,-124.87 500.38,-117.38 489.85,-118.57 492.89,-124.87"/>
<text text-anchor="middle" x="481.39" y="-144.8" font-family="Times New Roman,serif" font-size="14.00">0.05</text>
</g>
<!-- 1&#45;&gt;0 -->
<g id="edge12" class="edge">
<title>1&#45;&gt;0</title>
<path fill="none" stroke="black" d="M550.71,-122.81C535.57,-136.07 514.35,-154.67 497.89,-169.1"/>
<polygon fill="black" stroke="black" points="495.45,-166.58 490.24,-175.8 500.06,-171.85 495.45,-166.58"/>
<text text-anchor="middle" x="543.39" y="-144.8" font-family="Times New Roman,serif" font-size="14.00">0.057</text>
</g>
<!-- 1&#45;&gt;1 -->
<g id="edge10" class="edge">
<title>1&#45;&gt;1</title>
<path fill="none" stroke="black" d="M657.01,-112.41C672.57,-111.45 683.44,-108.98 683.44,-105 683.44,-101.95 677.07,-99.79 667.1,-98.51"/>
<polygon fill="black" stroke="black" points="667.29,-95.02 657.01,-97.59 666.65,-101.99 667.29,-95.02"/>
<text text-anchor="middle" x="698.94" y="-101.3" font-family="Times New Roman,serif" font-size="14.00">0.147</text>
</g>
<!-- 2 -->
<g id="node3" class="node">
<title>2</title>
<g id="a_node3"><a xlink:href="project manager.svg" xlink:title="project manager">
<ellipse fill="none" stroke="black" cx="68.89" cy="-18" rx="68.79" ry="18"/>
<text text-anchor="middle" x="68.89" y="-14.3" font-family="Times New Roman,serif" font-size="14.00">project manager</text>
</a>
</g>
</g>
<!-- 1&#45;&gt;2 -->
<g id="edge11" class="edge">
<title>1&#45;&gt;2</title>
<path fill="none" stroke="black" d="M478.45,-99.56C380.26,-94.13 230.93,-83.81 175.89,-69 151,-62.3 124.74,-50.12 104.47,-39.46"/>
<polygon fill="black" stroke="black" points="106.07,-36.34 95.61,-34.69 102.76,-42.51 106.07,-36.34"/>
<text text-anchor="middle" x="191.39" y="-57.8" font-family="Times New Roman,serif" font-size="14.00">0.065</text>
</g>
<!-- 4 -->
<g id="node5" class="node">
<title>4</title>
<g id="a_node5"><a xlink:href="pharmacovigilance officer.svg" xlink:title="pharmacovigilance officer">
<ellipse fill="none" stroke="black" cx="260.89" cy="-18" rx="104.78" ry="18"/>
<text text-anchor="middle" x="260.89" y="-14.3" font-family="Times New Roman,serif" font-size="14.00">pharmacovigilance officer</text>
</a>
</g>
</g>
<!-- 1&#45;&gt;4 -->
<g id="edge13" class="edge">
<title>1&#45;&gt;4</title>
<path fill="none" stroke="black" d="M482.43,-97.64C440.8,-92.76 390.85,-84.15 347.89,-69 328.8,-62.27 309.12,-51.35 293.31,-41.43"/>
<polygon fill="black" stroke="black" points="294.79,-38.21 284.49,-35.74 291,-44.1 294.79,-38.21"/>
<text text-anchor="middle" x="363.39" y="-57.8" font-family="Times New Roman,serif" font-size="14.00">0.040</text>
</g>
<!-- 6 -->
<g id="node7" class="node">
<title>6</title>
<g id="a_node7"><a xlink:href="teaching assistant.svg" xlink:title="teaching assistant">
<ellipse fill="none" stroke="black" cx="456.89" cy="-18" rx="73.39" ry="18"/>
<text text-anchor="middle" x="456.89" y="-14.3" font-family="Times New Roman,serif" font-size="14.00">teaching assistant</text>
</a>
</g>
</g>
<!-- 1&#45;&gt;6 -->
<g id="edge14" class="edge">
<title>1&#45;&gt;6</title>
<path fill="none" stroke="black" d="M507.21,-91.39C494.16,-86.27 481.47,-79.09 471.89,-69 466.01,-62.81 462.43,-54.4 460.25,-46.25"/>
<polygon fill="black" stroke="black" points="463.63,-45.32 458.17,-36.24 456.78,-46.75 463.63,-45.32"/>
<text text-anchor="middle" x="487.39" y="-57.8" font-family="Times New Roman,serif" font-size="14.00">0.040</text>
</g>
<!-- 7 -->
<g id="node8" class="node">
<title>7</title>
<g id="a_node8"><a xlink:href="academic librarian.svg" xlink:title="academic librarian">
<ellipse fill="none" stroke="black" cx="623.89" cy="-18" rx="76.09" ry="18"/>
<text text-anchor="middle" x="623.89" y="-14.3" font-family="Times New Roman,serif" font-size="14.00">academic librarian</text>
</a>
</g>
</g>
<!-- 1&#45;&gt;7 -->
<g id="edge18" class="edge">
<title>1&#45;&gt;7</title>
<path fill="none" stroke="black" d="M564.42,-86.76C562.23,-76.61 561.37,-63.87 566.89,-54 569.98,-48.48 574.34,-43.72 579.28,-39.66"/>
<polygon fill="black" stroke="black" points="581.34,-42.49 587.43,-33.82 577.26,-36.8 581.34,-42.49"/>
<text text-anchor="middle" x="582.39" y="-57.8" font-family="Times New Roman,serif" font-size="14.00">0.020</text>
</g>
<!-- 9 -->
<g id="node10" class="node">
<title>9</title>
<g id="a_node10"><a xlink:href="financial manager.svg" xlink:title="financial manager">
<ellipse fill="none" stroke="black" cx="790.89" cy="-18" rx="73.39" ry="18"/>
<text text-anchor="middle" x="790.89" y="-14.3" font-family="Times New Roman,serif" font-size="14.00">financial manager</text>
</a>
</g>
</g>
<!-- 1&#45;&gt;9 -->
<g id="edge19" class="edge">
<title>1&#45;&gt;9</title>
<path fill="none" stroke="black" d="M607.14,-88.37C631.45,-78.29 663.93,-65.05 692.89,-54 708.26,-48.13 725.1,-42.01 740.41,-36.56"/>
<polygon fill="black" stroke="black" points="741.97,-39.72 750.22,-33.08 739.63,-33.13 741.97,-39.72"/>
<text text-anchor="middle" x="708.39" y="-57.8" font-family="Times New Roman,serif" font-size="14.00">0.016</text>
</g>
<!-- 10 -->
<g id="node11" class="node">
<title>10</title>
<g id="a_node11"><a xlink:href="sales manager.svg" xlink:title="sales manager">
<ellipse fill="none" stroke="black" cx="943.89" cy="-18" rx="61.19" ry="18"/>
<text text-anchor="middle" x="943.89" y="-14.3" font-family="Times New Roman,serif" font-size="14.00">sales manager</text>
</a>
</g>
</g>
<!-- 1&#45;&gt;10 -->
<g id="edge15" class="edge">
<title>1&#45;&gt;10</title>
<path fill="none" stroke="black" d="M645.57,-93.94C685.99,-87.95 736.43,-79.46 780.89,-69 820.32,-59.73 864.17,-46.08 896.45,-35.39"/>
<polygon fill="black" stroke="black" points="897.71,-38.66 906.08,-32.17 895.49,-32.02 897.71,-38.66"/>
<text text-anchor="middle" x="850.39" y="-57.8" font-family="Times New Roman,serif" font-size="14.00">0.028</text>
</g>
<!-- 11 -->
<g id="node12" class="node">
<title>11</title>
<g id="a_node12"><a xlink:href="training and development officer.svg" xlink:title="training and development officer">
<ellipse fill="none" stroke="black" cx="1150.89" cy="-18" rx="128.08" ry="18"/>
<text text-anchor="middle" x="1150.89" y="-14.3" font-family="Times New Roman,serif" font-size="14.00">training and development officer</text>
</a>
</g>
</g>
<!-- 1&#45;&gt;11 -->
<g id="edge16" class="edge">
<title>1&#45;&gt;11</title>
<path fill="none" stroke="black" d="M652.2,-95.74C712.57,-89.36 796.49,-79.8 869.89,-69 937.3,-59.08 1013.36,-45.39 1069.33,-34.85"/>
<polygon fill="black" stroke="black" points="1070.01,-38.28 1079.19,-32.98 1068.71,-31.4 1070.01,-38.28"/>
<text text-anchor="middle" x="977.39" y="-57.8" font-family="Times New Roman,serif" font-size="14.00">0.028</text>
</g>
<!-- 12 -->
<g id="node13" class="node">
<title>12</title>
<g id="a_node13"><a xlink:href="production manager.svg" xlink:title="production manager">
<ellipse fill="none" stroke="black" cx="1379.89" cy="-18" rx="83.39" ry="18"/>
<text text-anchor="middle" x="1379.89" y="-14.3" font-family="Times New Roman,serif" font-size="14.00">production manager</text>
</a>
</g>
</g>
<!-- 1&#45;&gt;12 -->
<g id="edge17" class="edge">
<title>1&#45;&gt;12</title>
<path fill="none" stroke="black" d="M659.25,-98.62C795.42,-89.72 1062.81,-69.52 1287.89,-36 1295.15,-34.92 1302.72,-33.69 1310.25,-32.4"/>
<polygon fill="black" stroke="black" points="1310.87,-35.84 1320.11,-30.67 1309.66,-28.95 1310.87,-35.84"/>
<text text-anchor="middle" x="1166.39" y="-57.8" font-family="Times New Roman,serif" font-size="14.00">0.024</text>
</g>
<!-- 2&#45;&gt;1 -->
<g id="edge2" class="edge">
<title>2&#45;&gt;1</title>
<path fill="none" stroke="black" d="M114.9,-31.41C157.64,-42.57 223.19,-58.73 280.89,-69 345.67,-80.52 419.3,-89.38 476.03,-95.3"/>
<polygon fill="black" stroke="black" points="475.75,-98.79 486.06,-96.33 476.47,-91.83 475.75,-98.79"/>
<text text-anchor="middle" x="296.39" y="-57.8" font-family="Times New Roman,serif" font-size="14.00">0.046</text>
</g>
<!-- 3 -->
<g id="node4" class="node">
<title>3</title>
<g id="a_node4"><a xlink:href="teacher.svg" xlink:title="teacher">
<ellipse fill="none" stroke="black" cx="566.89" cy="-192" rx="36.29" ry="18"/>
<text text-anchor="middle" x="566.89" y="-188.3" font-family="Times New Roman,serif" font-size="14.00">teacher</text>
</a>
</g>
</g>
<!-- 3&#45;&gt;1 -->
<g id="edge3" class="edge">
<title>3&#45;&gt;1</title>
<path fill="none" stroke="black" d="M567.5,-173.8C567.91,-162.16 568.46,-146.55 568.93,-133.24"/>
<polygon fill="black" stroke="black" points="572.43,-133.29 569.29,-123.18 565.44,-133.05 572.43,-133.29"/>
<text text-anchor="middle" x="584.39" y="-144.8" font-family="Times New Roman,serif" font-size="14.00">0.036</text>
</g>
<!-- 4&#45;&gt;1 -->
<g id="edge4" class="edge">
<title>4&#45;&gt;1</title>
<path fill="none" stroke="black" d="M311.43,-33.9C346.1,-44.03 393.2,-57.61 434.89,-69 457.88,-75.28 483.15,-81.91 505.55,-87.68"/>
<polygon fill="black" stroke="black" points="504.73,-91.09 515.29,-90.19 506.48,-84.31 504.73,-91.09"/>
<text text-anchor="middle" x="447.39" y="-57.8" font-family="Times New Roman,serif" font-size="14.00">0.03</text>
</g>
<!-- 5 -->
<g id="node6" class="node">
<title>5</title>
<g id="a_node6"><a xlink:href="it consultant.svg" xlink:title="it consultant">
<ellipse fill="none" stroke="black" cx="675.89" cy="-192" rx="54.69" ry="18"/>
<text text-anchor="middle" x="675.89" y="-188.3" font-family="Times New Roman,serif" font-size="14.00">it consultant</text>
</a>
</g>
</g>
<!-- 5&#45;&gt;1 -->
<g id="edge5" class="edge">
<title>5&#45;&gt;1</title>
<path fill="none" stroke="black" d="M655.96,-175.01C639.83,-162.08 616.92,-143.71 598.78,-129.17"/>
<polygon fill="black" stroke="black" points="600.82,-126.31 590.83,-122.79 596.44,-131.77 600.82,-126.31"/>
<text text-anchor="middle" x="644.39" y="-144.8" font-family="Times New Roman,serif" font-size="14.00">0.026</text>
</g>
<!-- 6&#45;&gt;1 -->
<g id="edge6" class="edge">
<title>6&#45;&gt;1</title>
<path fill="none" stroke="black" d="M478.51,-35.26C495.85,-48.3 520.38,-66.76 539.66,-81.26"/>
<polygon fill="black" stroke="black" points="537.74,-84.2 547.84,-87.41 541.95,-78.6 537.74,-84.2"/>
<text text-anchor="middle" x="536.39" y="-57.8" font-family="Times New Roman,serif" font-size="14.00">0.026</text>
</g>
<!-- 7&#45;&gt;1 -->
<g id="edge7" class="edge">
<title>7&#45;&gt;1</title>
<path fill="none" stroke="black" d="M617.86,-36.37C614.02,-46.33 608.52,-58.83 601.89,-69 599.57,-72.57 596.87,-76.13 594.06,-79.53"/>
<polygon fill="black" stroke="black" points="591.35,-77.31 587.37,-87.12 596.61,-81.93 591.35,-77.31"/>
<text text-anchor="middle" x="625.39" y="-57.8" font-family="Times New Roman,serif" font-size="14.00">0.023</text>
</g>
<!-- 8 -->
<g id="node9" class="node">
<title>8</title>
<g id="a_node9"><a xlink:href="office manager.svg" xlink:title="office manager">
<ellipse fill="none" stroke="black" cx="812.89" cy="-192" rx="64.19" ry="18"/>
<text text-anchor="middle" x="812.89" y="-188.3" font-family="Times New Roman,serif" font-size="14.00">office manager</text>
</a>
</g>
</g>
<!-- 8&#45;&gt;1 -->
<g id="edge8" class="edge">
<title>8&#45;&gt;1</title>
<path fill="none" stroke="black" d="M774.39,-177.53C733.41,-163.2 668.3,-140.42 622.58,-124.43"/>
<polygon fill="black" stroke="black" points="623.73,-121.12 613.14,-121.13 621.42,-127.73 623.73,-121.12"/>
<text text-anchor="middle" x="721.39" y="-144.8" font-family="Times New Roman,serif" font-size="14.00">0.023</text>
</g>
<!-- 9&#45;&gt;1 -->
<g id="edge9" class="edge">
<title>9&#45;&gt;1</title>
<path fill="none" stroke="black" d="M774.43,-35.56C762.49,-46.63 745.42,-60.66 727.89,-69 705.81,-79.52 680.47,-86.93 656.65,-92.13"/>
<polygon fill="black" stroke="black" points="655.63,-88.77 646.55,-94.23 657.05,-95.62 655.63,-88.77"/>
<text text-anchor="middle" x="764.39" y="-57.8" font-family="Times New Roman,serif" font-size="14.00">0.02</text>
</g>
</g>
</svg>
