<?xml version="1.0" encoding="UTF-8" standalone="no"?>
<!DOCTYPE svg PUBLIC "-//W3C//DTD SVG 1.1//EN"
 "http://www.w3.org/Graphics/SVG/1.1/DTD/svg11.dtd">
<!-- Generated by graphviz version 2.44.1 (20200629.0800)
 -->
<!-- Title: electrical_engineer Pages: 1 -->
<svg width="1236pt" height="218pt"
 viewBox="0.00 0.00 1236.24 218.00" xmlns="http://www.w3.org/2000/svg" xmlns:xlink="http://www.w3.org/1999/xlink">
<g id="graph0" class="graph" transform="scale(1 1) rotate(0) translate(4 214)">
<title>electrical_engineer</title>
<polygon fill="white" stroke="transparent" points="-4,4 -4,-214 1232.24,-214 1232.24,4 -4,4"/>
<!-- 0 -->
<g id="node1" class="node">
<title>0</title>
<g id="a_node1"><a xlink:href="mechanical engineer.svg" xlink:title="mechanical engineer">
<ellipse fill="none" stroke="black" cx="320.94" cy="-192" rx="83.39" ry="18"/>
<text text-anchor="middle" x="320.94" y="-188.3" font-family="Times New Roman,serif" font-size="14.00">mechanical engineer</text>
</a>
</g>
</g>
<!-- 1 -->
<g id="node2" class="node">
<title>1</title>
<g id="a_node2"><a xlink:href="electrical engineer.svg" xlink:title="electrical engineer">
<ellipse fill="none" stroke="black" cx="511.94" cy="-105" rx="74.99" ry="18"/>
<text text-anchor="middle" x="511.94" y="-101.3" font-family="Times New Roman,serif" font-size="14.00">electrical engineer</text>
</a>
</g>
</g>
<!-- 0&#45;&gt;1 -->
<g id="edge1" class="edge">
<title>0&#45;&gt;1</title>
<path fill="none" stroke="black" d="M338.06,-174.24C350.03,-163.36 366.88,-149.64 383.94,-141 402.75,-131.47 424.47,-124.28 444.62,-118.98"/>
<polygon fill="black" stroke="black" points="445.52,-122.36 454.36,-116.52 443.81,-115.57 445.52,-122.36"/>
<text text-anchor="middle" x="399.44" y="-144.8" font-family="Times New Roman,serif" font-size="14.00">0.103</text>
</g>
<!-- 1&#45;&gt;0 -->
<g id="edge14" class="edge">
<title>1&#45;&gt;0</title>
<path fill="none" stroke="black" d="M483.52,-121.79C464.41,-132.12 438.51,-145.58 414.94,-156 401.61,-161.89 386.95,-167.67 373.26,-172.78"/>
<polygon fill="black" stroke="black" points="371.66,-169.64 363.49,-176.38 374.08,-176.21 371.66,-169.64"/>
<text text-anchor="middle" x="460.44" y="-144.8" font-family="Times New Roman,serif" font-size="14.00">0.042</text>
</g>
<!-- 1&#45;&gt;1 -->
<g id="edge10" class="edge">
<title>1&#45;&gt;1</title>
<path fill="none" stroke="black" d="M579.88,-112.62C594.28,-111.85 604.69,-109.31 604.69,-105 604.69,-101.8 598.96,-99.58 590.11,-98.33"/>
<polygon fill="black" stroke="black" points="590.16,-94.82 579.88,-97.38 589.51,-101.79 590.16,-94.82"/>
<text text-anchor="middle" x="620.19" y="-101.3" font-family="Times New Roman,serif" font-size="14.00">0.379</text>
</g>
<!-- 2 -->
<g id="node3" class="node">
<title>2</title>
<g id="a_node3"><a xlink:href="software developer.svg" xlink:title="software developer">
<ellipse fill="none" stroke="black" cx="79.94" cy="-18" rx="79.89" ry="18"/>
<text text-anchor="middle" x="79.94" y="-14.3" font-family="Times New Roman,serif" font-size="14.00">software developer</text>
</a>
</g>
</g>
<!-- 1&#45;&gt;2 -->
<g id="edge18" class="edge">
<title>1&#45;&gt;2</title>
<path fill="none" stroke="black" d="M438.98,-100.88C350.6,-96.39 207.28,-86.64 156.94,-69 139.25,-62.8 121.57,-51.75 107.62,-41.61"/>
<polygon fill="black" stroke="black" points="109.54,-38.67 99.44,-35.46 105.33,-44.27 109.54,-38.67"/>
<text text-anchor="middle" x="172.44" y="-57.8" font-family="Times New Roman,serif" font-size="14.00">0.037</text>
</g>
<!-- 4 -->
<g id="node5" class="node">
<title>4</title>
<g id="a_node5"><a xlink:href="structural engineer.svg" xlink:title="structural engineer">
<ellipse fill="none" stroke="black" cx="254.94" cy="-18" rx="76.89" ry="18"/>
<text text-anchor="middle" x="254.94" y="-14.3" font-family="Times New Roman,serif" font-size="14.00">structural engineer</text>
</a>
</g>
</g>
<!-- 1&#45;&gt;4 -->
<g id="edge11" class="edge">
<title>1&#45;&gt;4</title>
<path fill="none" stroke="black" d="M443.51,-97.64C391.23,-91.88 324.16,-82.25 299.94,-69 289.12,-63.08 279.56,-53.52 272.08,-44.35"/>
<polygon fill="black" stroke="black" points="274.66,-41.96 265.8,-36.14 269.09,-46.21 274.66,-41.96"/>
<text text-anchor="middle" x="315.44" y="-57.8" font-family="Times New Roman,serif" font-size="14.00">0.080</text>
</g>
<!-- 5 -->
<g id="node6" class="node">
<title>5</title>
<g id="a_node6"><a xlink:href="it consultant.svg" xlink:title="it consultant">
<ellipse fill="none" stroke="black" cx="403.94" cy="-18" rx="54.69" ry="18"/>
<text text-anchor="middle" x="403.94" y="-14.3" font-family="Times New Roman,serif" font-size="14.00">it consultant</text>
</a>
</g>
</g>
<!-- 1&#45;&gt;5 -->
<g id="edge12" class="edge">
<title>1&#45;&gt;5</title>
<path fill="none" stroke="black" d="M455.33,-93.02C441.14,-87.83 427.09,-80.2 416.94,-69 411.27,-62.74 408.01,-54.31 406.16,-46.16"/>
<polygon fill="black" stroke="black" points="409.59,-45.46 404.49,-36.17 402.69,-46.62 409.59,-45.46"/>
<text text-anchor="middle" x="432.44" y="-57.8" font-family="Times New Roman,serif" font-size="14.00">0.058</text>
</g>
<!-- 6 -->
<g id="node7" class="node">
<title>6</title>
<g id="a_node7"><a xlink:href="project manager.svg" xlink:title="project manager">
<ellipse fill="none" stroke="black" cx="544.94" cy="-18" rx="68.79" ry="18"/>
<text text-anchor="middle" x="544.94" y="-14.3" font-family="Times New Roman,serif" font-size="14.00">project manager</text>
</a>
</g>
</g>
<!-- 1&#45;&gt;6 -->
<g id="edge15" class="edge">
<title>1&#45;&gt;6</title>
<path fill="none" stroke="black" d="M507.19,-86.69C505.36,-76.75 504.61,-64.25 508.94,-54 510.62,-50.03 513,-46.28 515.74,-42.82"/>
<polygon fill="black" stroke="black" points="518.45,-45.04 522.64,-35.31 513.3,-40.31 518.45,-45.04"/>
<text text-anchor="middle" x="524.44" y="-57.8" font-family="Times New Roman,serif" font-size="14.00">0.042</text>
</g>
<!-- 8 -->
<g id="node9" class="node">
<title>8</title>
<g id="a_node9"><a xlink:href="research scientist.svg" xlink:title="research scientist">
<ellipse fill="none" stroke="black" cx="704.94" cy="-18" rx="72.59" ry="18"/>
<text text-anchor="middle" x="704.94" y="-14.3" font-family="Times New Roman,serif" font-size="14.00">research scientist</text>
</a>
</g>
</g>
<!-- 1&#45;&gt;8 -->
<g id="edge13" class="edge">
<title>1&#45;&gt;8</title>
<path fill="none" stroke="black" d="M546.45,-88.8C578.56,-74.66 626.55,-53.52 661.31,-38.22"/>
<polygon fill="black" stroke="black" points="663,-41.3 670.74,-34.06 660.17,-34.89 663,-41.3"/>
<text text-anchor="middle" x="635.44" y="-57.8" font-family="Times New Roman,serif" font-size="14.00">0.048</text>
</g>
<!-- 10 -->
<g id="node11" class="node">
<title>10</title>
<g id="a_node11"><a xlink:href="civil engineer.svg" xlink:title="civil engineer">
<ellipse fill="none" stroke="black" cx="853.94" cy="-18" rx="57.69" ry="18"/>
<text text-anchor="middle" x="853.94" y="-14.3" font-family="Times New Roman,serif" font-size="14.00">civil engineer</text>
</a>
</g>
</g>
<!-- 1&#45;&gt;10 -->
<g id="edge16" class="edge">
<title>1&#45;&gt;10</title>
<path fill="none" stroke="black" d="M576.56,-95.8C616.75,-89.97 669.3,-81.05 714.94,-69 747.85,-60.32 783.99,-47.2 811.17,-36.58"/>
<polygon fill="black" stroke="black" points="812.74,-39.72 820.76,-32.79 810.17,-33.21 812.74,-39.72"/>
<text text-anchor="middle" x="776.44" y="-57.8" font-family="Times New Roman,serif" font-size="14.00">0.037</text>
</g>
<!-- 11 -->
<g id="node12" class="node">
<title>11</title>
<g id="a_node12"><a xlink:href="sales manager.svg" xlink:title="sales manager">
<ellipse fill="none" stroke="black" cx="990.94" cy="-18" rx="61.19" ry="18"/>
<text text-anchor="middle" x="990.94" y="-14.3" font-family="Times New Roman,serif" font-size="14.00">sales manager</text>
</a>
</g>
</g>
<!-- 1&#45;&gt;11 -->
<g id="edge17" class="edge">
<title>1&#45;&gt;11</title>
<path fill="none" stroke="black" d="M580.9,-98C638.65,-92.38 723.09,-82.77 795.94,-69 845.12,-59.7 900.3,-45.16 939.37,-34.15"/>
<polygon fill="black" stroke="black" points="940.78,-37.39 949.45,-31.29 938.87,-30.66 940.78,-37.39"/>
<text text-anchor="middle" x="875.44" y="-57.8" font-family="Times New Roman,serif" font-size="14.00">0.037</text>
</g>
<!-- 12 -->
<g id="node13" class="node">
<title>12</title>
<g id="a_node13"><a xlink:href="planning technician.svg" xlink:title="planning technician">
<ellipse fill="none" stroke="black" cx="1148.94" cy="-18" rx="79.09" ry="18"/>
<text text-anchor="middle" x="1148.94" y="-14.3" font-family="Times New Roman,serif" font-size="14.00">planning technician</text>
</a>
</g>
</g>
<!-- 1&#45;&gt;12 -->
<g id="edge19" class="edge">
<title>1&#45;&gt;12</title>
<path fill="none" stroke="black" d="M583.49,-99.68C660.63,-94.5 786.88,-84.53 894.94,-69 960.21,-59.62 1034.1,-44.57 1085.28,-33.43"/>
<polygon fill="black" stroke="black" points="1086.19,-36.81 1095.21,-31.25 1084.69,-29.97 1086.19,-36.81"/>
<text text-anchor="middle" x="994.44" y="-57.8" font-family="Times New Roman,serif" font-size="14.00">0.032</text>
</g>
<!-- 2&#45;&gt;1 -->
<g id="edge2" class="edge">
<title>2&#45;&gt;1</title>
<path fill="none" stroke="black" d="M121.33,-33.4C154.83,-44.57 203.44,-59.68 246.94,-69 308.86,-82.27 380.06,-91.34 433.06,-96.91"/>
<polygon fill="black" stroke="black" points="432.76,-100.4 443.07,-97.95 433.48,-93.44 432.76,-100.4"/>
<text text-anchor="middle" x="262.44" y="-57.8" font-family="Times New Roman,serif" font-size="14.00">0.069</text>
</g>
<!-- 3 -->
<g id="node4" class="node">
<title>3</title>
<g id="a_node4"><a xlink:href="network administrator.svg" xlink:title="network administrator">
<ellipse fill="none" stroke="black" cx="511.94" cy="-192" rx="89.88" ry="18"/>
<text text-anchor="middle" x="511.94" y="-188.3" font-family="Times New Roman,serif" font-size="14.00">network administrator</text>
</a>
</g>
</g>
<!-- 3&#45;&gt;1 -->
<g id="edge3" class="edge">
<title>3&#45;&gt;1</title>
<path fill="none" stroke="black" d="M511.94,-173.8C511.94,-162.16 511.94,-146.55 511.94,-133.24"/>
<polygon fill="black" stroke="black" points="515.44,-133.18 511.94,-123.18 508.44,-133.18 515.44,-133.18"/>
<text text-anchor="middle" x="527.44" y="-144.8" font-family="Times New Roman,serif" font-size="14.00">0.038</text>
</g>
<!-- 4&#45;&gt;1 -->
<g id="edge4" class="edge">
<title>4&#45;&gt;1</title>
<path fill="none" stroke="black" d="M287.78,-34.36C311.39,-45.02 344.19,-59.04 373.94,-69 397.94,-77.03 424.81,-84.24 448.42,-89.99"/>
<polygon fill="black" stroke="black" points="447.78,-93.44 458.32,-92.37 449.42,-86.63 447.78,-93.44"/>
<text text-anchor="middle" x="389.44" y="-57.8" font-family="Times New Roman,serif" font-size="14.00">0.034</text>
</g>
<!-- 5&#45;&gt;1 -->
<g id="edge5" class="edge">
<title>5&#45;&gt;1</title>
<path fill="none" stroke="black" d="M423.97,-34.76C440.62,-47.87 464.52,-66.67 483.21,-81.38"/>
<polygon fill="black" stroke="black" points="481.1,-84.18 491.12,-87.61 485.43,-78.68 481.1,-84.18"/>
<text text-anchor="middle" x="480.44" y="-57.8" font-family="Times New Roman,serif" font-size="14.00">0.030</text>
</g>
<!-- 6&#45;&gt;1 -->
<g id="edge6" class="edge">
<title>6&#45;&gt;1</title>
<path fill="none" stroke="black" d="M547.54,-36.26C548.32,-46.18 548.07,-58.68 543.94,-69 542.44,-72.76 540.33,-76.37 537.9,-79.75"/>
<polygon fill="black" stroke="black" points="535.07,-77.68 531.39,-87.62 540.46,-82.15 535.07,-77.68"/>
<text text-anchor="middle" x="563.44" y="-57.8" font-family="Times New Roman,serif" font-size="14.00">0.030</text>
</g>
<!-- 7 -->
<g id="node8" class="node">
<title>7</title>
<g id="a_node8"><a xlink:href="lecturer.svg" xlink:title="lecturer">
<ellipse fill="none" stroke="black" cx="656.94" cy="-192" rx="37.89" ry="18"/>
<text text-anchor="middle" x="656.94" y="-188.3" font-family="Times New Roman,serif" font-size="14.00">lecturer</text>
</a>
</g>
</g>
<!-- 7&#45;&gt;1 -->
<g id="edge7" class="edge">
<title>7&#45;&gt;1</title>
<path fill="none" stroke="black" d="M633.97,-177.53C610.79,-163.95 574.69,-142.78 547.76,-126.99"/>
<polygon fill="black" stroke="black" points="549.4,-123.9 539.01,-121.86 545.86,-129.94 549.4,-123.9"/>
<text text-anchor="middle" x="608.44" y="-144.8" font-family="Times New Roman,serif" font-size="14.00">0.025</text>
</g>
<!-- 8&#45;&gt;1 -->
<g id="edge8" class="edge">
<title>8&#45;&gt;1</title>
<path fill="none" stroke="black" d="M694.9,-35.86C687.44,-46.93 676.28,-60.82 662.94,-69 641.27,-82.29 615.02,-90.54 590.53,-95.65"/>
<polygon fill="black" stroke="black" points="589.68,-92.25 580.53,-97.59 591.01,-99.13 589.68,-92.25"/>
<text text-anchor="middle" x="695.44" y="-57.8" font-family="Times New Roman,serif" font-size="14.00">0.017</text>
</g>
<!-- 9 -->
<g id="node10" class="node">
<title>9</title>
<g id="a_node10"><a xlink:href="aeronautical engineer.svg" xlink:title="aeronautical engineer">
<ellipse fill="none" stroke="black" cx="797.94" cy="-192" rx="85.59" ry="18"/>
<text text-anchor="middle" x="797.94" y="-188.3" font-family="Times New Roman,serif" font-size="14.00">aeronautical engineer</text>
</a>
</g>
</g>
<!-- 9&#45;&gt;1 -->
<g id="edge9" class="edge">
<title>9&#45;&gt;1</title>
<path fill="none" stroke="black" d="M750.72,-176.96C700.23,-161.96 620.28,-138.2 566.98,-122.36"/>
<polygon fill="black" stroke="black" points="567.93,-118.99 557.35,-119.49 565.94,-125.7 567.93,-118.99"/>
<text text-anchor="middle" x="687.44" y="-144.8" font-family="Times New Roman,serif" font-size="14.00">0.012</text>
</g>
</g>
</svg>
