<?xml version="1.0" encoding="UTF-8" standalone="no"?>
<!DOCTYPE svg PUBLIC "-//W3C//DTD SVG 1.1//EN"
 "http://www.w3.org/Graphics/SVG/1.1/DTD/svg11.dtd">
<!-- Generated by graphviz version 2.44.1 (20200629.0800)
 -->
<!-- Title: test Pages: 1 -->
<svg width="1380pt" height="218pt"
 viewBox="0.00 0.00 1379.79 218.00" xmlns="http://www.w3.org/2000/svg" xmlns:xlink="http://www.w3.org/1999/xlink">
<g id="graph0" class="graph" transform="scale(1 1) rotate(0) translate(4 214)">
<title>test</title>
<polygon fill="white" stroke="transparent" points="-4,4 -4,-214 1375.79,-214 1375.79,4 -4,4"/>
<!-- 0 -->
<g id="node1" class="node">
<title>0</title>
<g id="a_node1"><a xlink:href="structural engineer.svg" xlink:title="structural engineer">
<ellipse fill="none" stroke="black" cx="76.69" cy="-192" rx="76.89" ry="18"/>
<text text-anchor="middle" x="76.69" y="-188.3" font-family="Times New Roman,serif" font-size="14.00">structural engineer</text>
</a>
</g>
</g>
<!-- 1 -->
<g id="node2" class="node">
<title>1</title>
<g id="a_node2"><a xlink:href="engineering geologist.svg" xlink:title="engineering geologist">
<ellipse fill="none" stroke="black" cx="501.69" cy="-105" rx="86.38" ry="18"/>
<text text-anchor="middle" x="501.69" y="-101.3" font-family="Times New Roman,serif" font-size="14.00">engineering geologist</text>
</a>
</g>
</g>
<!-- 0&#45;&gt;1 -->
<g id="edge1" class="edge">
<title>0&#45;&gt;1</title>
<path fill="none" stroke="black" d="M89.85,-174C99.75,-162.57 114.36,-148.3 130.69,-141 178.27,-119.72 312.93,-111.36 406.21,-108.09"/>
<polygon fill="black" stroke="black" points="406.35,-111.59 416.23,-107.75 406.12,-104.59 406.35,-111.59"/>
<text text-anchor="middle" x="146.19" y="-144.8" font-family="Times New Roman,serif" font-size="14.00">0.076</text>
</g>
<!-- 1&#45;&gt;0 -->
<g id="edge12" class="edge">
<title>1&#45;&gt;0</title>
<path fill="none" stroke="black" d="M441.59,-118.02C362.76,-133.79 224.89,-161.36 143.07,-177.73"/>
<polygon fill="black" stroke="black" points="142.25,-174.32 133.13,-179.71 143.62,-181.18 142.25,-174.32"/>
<text text-anchor="middle" x="330.19" y="-144.8" font-family="Times New Roman,serif" font-size="14.00">0.121</text>
</g>
<!-- 1&#45;&gt;1 -->
<g id="edge10" class="edge">
<title>1&#45;&gt;1</title>
<path fill="none" stroke="black" d="M580.49,-112.5C595.51,-111.6 606.14,-109.1 606.14,-105 606.14,-101.89 600.03,-99.7 590.54,-98.44"/>
<polygon fill="black" stroke="black" points="590.77,-94.94 580.49,-97.5 590.12,-101.91 590.77,-94.94"/>
<text text-anchor="middle" x="621.64" y="-101.3" font-family="Times New Roman,serif" font-size="14.00">0.804</text>
</g>
<!-- 2 -->
<g id="node3" class="node">
<title>2</title>
<g id="a_node3"><a xlink:href="exploration geologist.svg" xlink:title="exploration geologist">
<ellipse fill="none" stroke="black" cx="160.69" cy="-18" rx="86.38" ry="18"/>
<text text-anchor="middle" x="160.69" y="-14.3" font-family="Times New Roman,serif" font-size="14.00">exploration geologist</text>
</a>
</g>
</g>
<!-- 1&#45;&gt;2 -->
<g id="edge11" class="edge">
<title>1&#45;&gt;2</title>
<path fill="none" stroke="black" d="M415.35,-103.74C360.48,-100.97 288.89,-92.47 229.69,-69 214.05,-62.8 198.69,-52.23 186.44,-42.41"/>
<polygon fill="black" stroke="black" points="188.42,-39.5 178.5,-35.79 183.94,-44.88 188.42,-39.5"/>
<text text-anchor="middle" x="245.19" y="-57.8" font-family="Times New Roman,serif" font-size="14.00">0.146</text>
</g>
<!-- 3 -->
<g id="node4" class="node">
<title>3</title>
<g id="a_node4"><a xlink:href="civil engineer.svg" xlink:title="civil engineer">
<ellipse fill="none" stroke="black" cx="322.69" cy="-18" rx="57.69" ry="18"/>
<text text-anchor="middle" x="322.69" y="-14.3" font-family="Times New Roman,serif" font-size="14.00">civil engineer</text>
</a>
</g>
</g>
<!-- 1&#45;&gt;3 -->
<g id="edge15" class="edge">
<title>1&#45;&gt;3</title>
<path fill="none" stroke="black" d="M432.26,-94.26C410.18,-89.06 386.39,-81.11 366.69,-69 356.29,-62.6 346.98,-52.97 339.63,-43.86"/>
<polygon fill="black" stroke="black" points="342.3,-41.59 333.46,-35.75 336.73,-45.83 342.3,-41.59"/>
<text text-anchor="middle" x="382.19" y="-57.8" font-family="Times New Roman,serif" font-size="14.00">0.048</text>
</g>
<!-- 10 -->
<g id="node11" class="node">
<title>10</title>
<g id="a_node11"><a xlink:href="lecturer.svg" xlink:title="lecturer">
<ellipse fill="none" stroke="black" cx="436.69" cy="-18" rx="37.89" ry="18"/>
<text text-anchor="middle" x="436.69" y="-14.3" font-family="Times New Roman,serif" font-size="14.00">lecturer</text>
</a>
</g>
</g>
<!-- 1&#45;&gt;10 -->
<g id="edge13" class="edge">
<title>1&#45;&gt;10</title>
<path fill="none" stroke="black" d="M488.54,-86.8C478.95,-74.27 465.84,-57.12 455.2,-43.2"/>
<polygon fill="black" stroke="black" points="457.8,-40.84 448.95,-35.03 452.24,-45.09 457.8,-40.84"/>
<text text-anchor="middle" x="489.19" y="-57.8" font-family="Times New Roman,serif" font-size="14.00">0.073</text>
</g>
<!-- 11 -->
<g id="node12" class="node">
<title>11</title>
<g id="a_node12"><a xlink:href="chemical engineer.svg" xlink:title="chemical engineer">
<ellipse fill="none" stroke="black" cx="566.69" cy="-18" rx="74.99" ry="18"/>
<text text-anchor="middle" x="566.69" y="-14.3" font-family="Times New Roman,serif" font-size="14.00">chemical engineer</text>
</a>
</g>
</g>
<!-- 1&#45;&gt;11 -->
<g id="edge14" class="edge">
<title>1&#45;&gt;11</title>
<path fill="none" stroke="black" d="M514.85,-86.8C524.25,-74.51 537.04,-57.77 547.57,-44.01"/>
<polygon fill="black" stroke="black" points="550.49,-45.96 553.78,-35.89 544.93,-41.7 550.49,-45.96"/>
<text text-anchor="middle" x="554.19" y="-57.8" font-family="Times New Roman,serif" font-size="14.00">0.048</text>
</g>
<!-- 12 -->
<g id="node13" class="node">
<title>12</title>
<g id="a_node13"><a xlink:href="production manager.svg" xlink:title="production manager">
<ellipse fill="none" stroke="black" cx="742.69" cy="-18" rx="83.39" ry="18"/>
<text text-anchor="middle" x="742.69" y="-14.3" font-family="Times New Roman,serif" font-size="14.00">production manager</text>
</a>
</g>
</g>
<!-- 1&#45;&gt;12 -->
<g id="edge16" class="edge">
<title>1&#45;&gt;12</title>
<path fill="none" stroke="black" d="M543.67,-89.19C584.8,-74.69 647.53,-52.56 691.55,-37.04"/>
<polygon fill="black" stroke="black" points="692.93,-40.26 701.2,-33.64 690.6,-33.66 692.93,-40.26"/>
<text text-anchor="middle" x="652.19" y="-57.8" font-family="Times New Roman,serif" font-size="14.00">0.048</text>
</g>
<!-- 13 -->
<g id="node14" class="node">
<title>13</title>
<g id="a_node14"><a xlink:href="project manager.svg" xlink:title="project manager">
<ellipse fill="none" stroke="black" cx="912.69" cy="-18" rx="68.79" ry="18"/>
<text text-anchor="middle" x="912.69" y="-14.3" font-family="Times New Roman,serif" font-size="14.00">project manager</text>
</a>
</g>
</g>
<!-- 1&#45;&gt;13 -->
<g id="edge17" class="edge">
<title>1&#45;&gt;13</title>
<path fill="none" stroke="black" d="M561.6,-92.01C628.3,-78.61 739.29,-56.14 834.69,-36 840.12,-34.86 845.75,-33.65 851.4,-32.44"/>
<polygon fill="black" stroke="black" points="852.49,-35.78 861.53,-30.25 851.01,-28.94 852.49,-35.78"/>
<text text-anchor="middle" x="758.19" y="-57.8" font-family="Times New Roman,serif" font-size="14.00">0.048</text>
</g>
<!-- 14 -->
<g id="node15" class="node">
<title>14</title>
<g id="a_node15"><a xlink:href="control and instrumentation engineer.svg" xlink:title="control and instrumentation engineer">
<ellipse fill="none" stroke="black" cx="1141.69" cy="-18" rx="141.88" ry="18"/>
<text text-anchor="middle" x="1141.69" y="-14.3" font-family="Times New Roman,serif" font-size="14.00">control and instrumentation engineer</text>
</a>
</g>
</g>
<!-- 1&#45;&gt;14 -->
<g id="edge18" class="edge">
<title>1&#45;&gt;14</title>
<path fill="none" stroke="black" d="M574.07,-95.03C629.76,-88.08 708.62,-78.12 777.69,-69 866.48,-57.27 967.36,-43.37 1040.37,-33.21"/>
<polygon fill="black" stroke="black" points="1041.06,-36.64 1050.48,-31.8 1040.09,-29.71 1041.06,-36.64"/>
<text text-anchor="middle" x="903.19" y="-57.8" font-family="Times New Roman,serif" font-size="14.00">0.024</text>
</g>
<!-- 15 -->
<g id="node16" class="node">
<title>15</title>
<g id="a_node16"><a xlink:href="doctor.svg" xlink:title="doctor">
<ellipse fill="none" stroke="black" cx="1336.69" cy="-18" rx="35.19" ry="18"/>
<text text-anchor="middle" x="1336.69" y="-14.3" font-family="Times New Roman,serif" font-size="14.00">doctor</text>
</a>
</g>
</g>
<!-- 1&#45;&gt;15 -->
<g id="edge19" class="edge">
<title>1&#45;&gt;15</title>
<path fill="none" stroke="black" d="M588.4,-104.59C735.31,-103.8 1041.66,-94.47 1292.69,-36 1295.53,-35.34 1298.44,-34.53 1301.33,-33.63"/>
<polygon fill="black" stroke="black" points="1302.7,-36.86 1311.01,-30.3 1300.42,-30.24 1302.7,-36.86"/>
<text text-anchor="middle" x="1202.19" y="-57.8" font-family="Times New Roman,serif" font-size="14.00">0.024</text>
</g>
<!-- 2&#45;&gt;1 -->
<g id="edge2" class="edge">
<title>2&#45;&gt;1</title>
<path fill="none" stroke="black" d="M202.05,-33.91C233.04,-44.7 276.64,-59.07 315.69,-69 351.19,-78.03 391.04,-85.83 424.72,-91.76"/>
<polygon fill="black" stroke="black" points="424.51,-95.28 434.96,-93.54 425.71,-88.38 424.51,-95.28"/>
<text text-anchor="middle" x="331.19" y="-57.8" font-family="Times New Roman,serif" font-size="14.00">0.051</text>
</g>
<!-- 3&#45;&gt;1 -->
<g id="edge3" class="edge">
<title>3&#45;&gt;1</title>
<path fill="none" stroke="black" d="M353.08,-33.43C382.22,-47.27 426.5,-68.29 459.14,-83.79"/>
<polygon fill="black" stroke="black" points="457.91,-87.08 468.44,-88.21 460.91,-80.76 457.91,-87.08"/>
<text text-anchor="middle" x="439.19" y="-57.8" font-family="Times New Roman,serif" font-size="14.00">0.038</text>
</g>
<!-- 4 -->
<g id="node5" class="node">
<title>4</title>
<g id="a_node5"><a xlink:href="mechanical engineer.svg" xlink:title="mechanical engineer">
<ellipse fill="none" stroke="black" cx="254.69" cy="-192" rx="83.39" ry="18"/>
<text text-anchor="middle" x="254.69" y="-188.3" font-family="Times New Roman,serif" font-size="14.00">mechanical engineer</text>
</a>
</g>
</g>
<!-- 4&#45;&gt;1 -->
<g id="edge4" class="edge">
<title>4&#45;&gt;1</title>
<path fill="none" stroke="black" d="M296.87,-176.48C338.98,-162 403.78,-139.69 449.19,-124.07"/>
<polygon fill="black" stroke="black" points="450.54,-127.3 458.86,-120.74 448.26,-120.69 450.54,-127.3"/>
<text text-anchor="middle" x="409.19" y="-144.8" font-family="Times New Roman,serif" font-size="14.00">0.038</text>
</g>
<!-- 5 -->
<g id="node6" class="node">
<title>5</title>
<g id="a_node6"><a xlink:href="mining engineer.svg" xlink:title="mining engineer">
<ellipse fill="none" stroke="black" cx="422.69" cy="-192" rx="66.89" ry="18"/>
<text text-anchor="middle" x="422.69" y="-188.3" font-family="Times New Roman,serif" font-size="14.00">mining engineer</text>
</a>
</g>
</g>
<!-- 5&#45;&gt;1 -->
<g id="edge5" class="edge">
<title>5&#45;&gt;1</title>
<path fill="none" stroke="black" d="M438.3,-174.21C449.99,-161.63 466.14,-144.25 479.22,-130.18"/>
<polygon fill="black" stroke="black" points="481.87,-132.47 486.12,-122.76 476.75,-127.7 481.87,-132.47"/>
<text text-anchor="middle" x="483.19" y="-144.8" font-family="Times New Roman,serif" font-size="14.00">0.038</text>
</g>
<!-- 6 -->
<g id="node7" class="node">
<title>6</title>
<g id="a_node7"><a xlink:href="research scientist.svg" xlink:title="research scientist">
<ellipse fill="none" stroke="black" cx="580.69" cy="-192" rx="72.59" ry="18"/>
<text text-anchor="middle" x="580.69" y="-188.3" font-family="Times New Roman,serif" font-size="14.00">research scientist</text>
</a>
</g>
</g>
<!-- 6&#45;&gt;1 -->
<g id="edge6" class="edge">
<title>6&#45;&gt;1</title>
<path fill="none" stroke="black" d="M565.09,-174.21C553.4,-161.63 537.25,-144.25 524.17,-130.18"/>
<polygon fill="black" stroke="black" points="526.64,-127.7 517.27,-122.76 521.51,-132.47 526.64,-127.7"/>
<text text-anchor="middle" x="562.19" y="-144.8" font-family="Times New Roman,serif" font-size="14.00">0.038</text>
</g>
<!-- 7 -->
<g id="node8" class="node">
<title>7</title>
<g id="a_node8"><a xlink:href="software developer.svg" xlink:title="software developer">
<ellipse fill="none" stroke="black" cx="751.69" cy="-192" rx="79.89" ry="18"/>
<text text-anchor="middle" x="751.69" y="-188.3" font-family="Times New Roman,serif" font-size="14.00">software developer</text>
</a>
</g>
</g>
<!-- 7&#45;&gt;1 -->
<g id="edge7" class="edge">
<title>7&#45;&gt;1</title>
<path fill="none" stroke="black" d="M709.57,-176.68C666.82,-162.14 600.55,-139.61 554.37,-123.91"/>
<polygon fill="black" stroke="black" points="555.43,-120.57 544.83,-120.67 553.17,-127.2 555.43,-120.57"/>
<text text-anchor="middle" x="657.19" y="-144.8" font-family="Times New Roman,serif" font-size="14.00">0.038</text>
</g>
<!-- 8 -->
<g id="node9" class="node">
<title>8</title>
<g id="a_node9"><a xlink:href="teaching assistant.svg" xlink:title="teaching assistant">
<ellipse fill="none" stroke="black" cx="922.69" cy="-192" rx="73.39" ry="18"/>
<text text-anchor="middle" x="922.69" y="-188.3" font-family="Times New Roman,serif" font-size="14.00">teaching assistant</text>
</a>
</g>
</g>
<!-- 8&#45;&gt;1 -->
<g id="edge8" class="edge">
<title>8&#45;&gt;1</title>
<path fill="none" stroke="black" d="M868.45,-179.71C859.19,-177.79 849.67,-175.83 840.69,-174 747.78,-155.02 640.44,-133.57 571.87,-119.93"/>
<polygon fill="black" stroke="black" points="572.53,-116.49 562.04,-117.97 571.16,-123.35 572.53,-116.49"/>
<text text-anchor="middle" x="762.19" y="-144.8" font-family="Times New Roman,serif" font-size="14.00">0.038</text>
</g>
<!-- 9 -->
<g id="node10" class="node">
<title>9</title>
<g id="a_node10"><a xlink:href="teacher.svg" xlink:title="teacher">
<ellipse fill="none" stroke="black" cx="1050.69" cy="-192" rx="36.29" ry="18"/>
<text text-anchor="middle" x="1050.69" y="-188.3" font-family="Times New Roman,serif" font-size="14.00">teacher</text>
</a>
</g>
</g>
<!-- 9&#45;&gt;1 -->
<g id="edge9" class="edge">
<title>9&#45;&gt;1</title>
<path fill="none" stroke="black" d="M1023.26,-179.81C1017.22,-177.64 1010.8,-175.56 1004.69,-174 863.56,-137.89 694.93,-120.06 593.19,-111.96"/>
<polygon fill="black" stroke="black" points="593.19,-108.45 582.95,-111.16 592.64,-115.43 593.19,-108.45"/>
<text text-anchor="middle" x="939.19" y="-144.8" font-family="Times New Roman,serif" font-size="14.00">0.025</text>
</g>
</g>
</svg>
