<?xml version="1.0" encoding="UTF-8" standalone="no"?>
<!DOCTYPE svg PUBLIC "-//W3C//DTD SVG 1.1//EN"
 "http://www.w3.org/Graphics/SVG/1.1/DTD/svg11.dtd">
<!-- Generated by graphviz version 2.44.1 (20200629.0800)
 -->
<!-- Title: equality_and_diversity_officer Pages: 1 -->
<svg width="1768pt" height="218pt"
 viewBox="0.00 0.00 1767.54 218.00" xmlns="http://www.w3.org/2000/svg" xmlns:xlink="http://www.w3.org/1999/xlink">
<g id="graph0" class="graph" transform="scale(1 1) rotate(0) translate(4 214)">
<title>equality_and_diversity_officer</title>
<polygon fill="white" stroke="transparent" points="-4,4 -4,-214 1763.54,-214 1763.54,4 -4,4"/>
<!-- 0 -->
<g id="node1" class="node">
<title>0</title>
<g id="a_node1"><a xlink:href="political party agent.svg" xlink:title="political party agent">
<ellipse fill="none" stroke="black" cx="180.79" cy="-192" rx="81.49" ry="18"/>
<text text-anchor="middle" x="180.79" y="-188.3" font-family="Times New Roman,serif" font-size="14.00">political party agent</text>
</a>
</g>
</g>
<!-- 1 -->
<g id="node2" class="node">
<title>1</title>
<g id="a_node2"><a xlink:href="equality and diversity officer.svg" xlink:title="equality and diversity officer">
<ellipse fill="none" stroke="black" cx="642.79" cy="-105" rx="113.98" ry="18"/>
<text text-anchor="middle" x="642.79" y="-101.3" font-family="Times New Roman,serif" font-size="14.00">equality and diversity officer</text>
</a>
</g>
</g>
<!-- 0&#45;&gt;1 -->
<g id="edge1" class="edge">
<title>0&#45;&gt;1</title>
<path fill="none" stroke="black" d="M240.33,-179.7C250.49,-177.79 260.94,-175.83 270.79,-174 370.56,-155.46 485.46,-134.52 560.85,-120.84"/>
<polygon fill="black" stroke="black" points="561.55,-124.27 570.76,-119.04 560.3,-117.38 561.55,-124.27"/>
<text text-anchor="middle" x="453.79" y="-144.8" font-family="Times New Roman,serif" font-size="14.00">0.1</text>
</g>
<!-- 3 -->
<g id="node4" class="node">
<title>3</title>
<g id="a_node4"><a xlink:href="corporate banker.svg" xlink:title="corporate banker">
<ellipse fill="none" stroke="black" cx="72.79" cy="-18" rx="72.59" ry="18"/>
<text text-anchor="middle" x="72.79" y="-14.3" font-family="Times New Roman,serif" font-size="14.00">corporate banker</text>
</a>
</g>
</g>
<!-- 1&#45;&gt;3 -->
<g id="edge12" class="edge">
<title>1&#45;&gt;3</title>
<path fill="none" stroke="black" d="M533.94,-99.73C420.86,-94.56 251.82,-84.56 188.79,-69 161.78,-62.33 133.05,-49.99 110.94,-39.24"/>
<polygon fill="black" stroke="black" points="112.41,-36.06 101.89,-34.75 109.3,-42.33 112.41,-36.06"/>
<text text-anchor="middle" x="204.29" y="-57.8" font-family="Times New Roman,serif" font-size="14.00">0.105</text>
</g>
<!-- 4 -->
<g id="node5" class="node">
<title>4</title>
<g id="a_node5"><a xlink:href="environmental manager.svg" xlink:title="environmental manager">
<ellipse fill="none" stroke="black" cx="256.79" cy="-18" rx="93.68" ry="18"/>
<text text-anchor="middle" x="256.79" y="-14.3" font-family="Times New Roman,serif" font-size="14.00">environmental manager</text>
</a>
</g>
</g>
<!-- 1&#45;&gt;4 -->
<g id="edge16" class="edge">
<title>1&#45;&gt;4</title>
<path fill="none" stroke="black" d="M537.85,-97.98C485.95,-93.17 422.8,-84.51 367.79,-69 342.92,-61.98 316.49,-50.26 295.65,-39.93"/>
<polygon fill="black" stroke="black" points="297.01,-36.7 286.5,-35.31 293.85,-42.94 297.01,-36.7"/>
<text text-anchor="middle" x="383.29" y="-57.8" font-family="Times New Roman,serif" font-size="14.00">0.052</text>
</g>
<!-- 5 -->
<g id="node6" class="node">
<title>5</title>
<g id="a_node6"><a xlink:href="health and safety adviser.svg" xlink:title="health and safety adviser">
<ellipse fill="none" stroke="black" cx="467.79" cy="-18" rx="99.38" ry="18"/>
<text text-anchor="middle" x="467.79" y="-14.3" font-family="Times New Roman,serif" font-size="14.00">health and safety adviser</text>
</a>
</g>
</g>
<!-- 1&#45;&gt;5 -->
<g id="edge17" class="edge">
<title>1&#45;&gt;5</title>
<path fill="none" stroke="black" d="M565.58,-91.78C546.73,-86.63 527.27,-79.32 510.79,-69 500.69,-62.67 491.69,-53.22 484.57,-44.23"/>
<polygon fill="black" stroke="black" points="487.37,-42.13 478.58,-36.21 481.76,-46.31 487.37,-42.13"/>
<text text-anchor="middle" x="526.29" y="-57.8" font-family="Times New Roman,serif" font-size="14.00">0.052</text>
</g>
<!-- 10 -->
<g id="node11" class="node">
<title>10</title>
<g id="a_node11"><a xlink:href="lecturer.svg" xlink:title="lecturer">
<ellipse fill="none" stroke="black" cx="622.79" cy="-18" rx="37.89" ry="18"/>
<text text-anchor="middle" x="622.79" y="-14.3" font-family="Times New Roman,serif" font-size="14.00">lecturer</text>
</a>
</g>
</g>
<!-- 1&#45;&gt;10 -->
<g id="edge19" class="edge">
<title>1&#45;&gt;10</title>
<path fill="none" stroke="black" d="M624.15,-87.1C619.55,-81.81 615.24,-75.61 612.79,-69 610.09,-61.69 610.43,-53.5 612.03,-45.9"/>
<polygon fill="black" stroke="black" points="615.47,-46.61 614.85,-36.03 608.74,-44.69 615.47,-46.61"/>
<text text-anchor="middle" x="628.29" y="-57.8" font-family="Times New Roman,serif" font-size="14.00">0.052</text>
</g>
<!-- 11 -->
<g id="node12" class="node">
<title>11</title>
<g id="a_node12"><a xlink:href="project manager.svg" xlink:title="project manager">
<ellipse fill="none" stroke="black" cx="747.79" cy="-18" rx="68.79" ry="18"/>
<text text-anchor="middle" x="747.79" y="-14.3" font-family="Times New Roman,serif" font-size="14.00">project manager</text>
</a>
</g>
</g>
<!-- 1&#45;&gt;11 -->
<g id="edge11" class="edge">
<title>1&#45;&gt;11</title>
<path fill="none" stroke="black" d="M663.54,-87.21C679.46,-74.32 701.62,-56.38 719.22,-42.13"/>
<polygon fill="black" stroke="black" points="721.88,-44.48 727.45,-35.47 717.47,-39.04 721.88,-44.48"/>
<text text-anchor="middle" x="717.29" y="-57.8" font-family="Times New Roman,serif" font-size="14.00">0.210</text>
</g>
<!-- 12 -->
<g id="node13" class="node">
<title>12</title>
<g id="a_node13"><a xlink:href="education administrator.svg" xlink:title="education administrator">
<ellipse fill="none" stroke="black" cx="929.79" cy="-18" rx="95.58" ry="18"/>
<text text-anchor="middle" x="929.79" y="-14.3" font-family="Times New Roman,serif" font-size="14.00">education administrator</text>
</a>
</g>
</g>
<!-- 1&#45;&gt;12 -->
<g id="edge13" class="edge">
<title>1&#45;&gt;12</title>
<path fill="none" stroke="black" d="M693.77,-88.9C743.41,-74.2 818.79,-51.88 870.94,-36.43"/>
<polygon fill="black" stroke="black" points="872.13,-39.73 880.73,-33.53 870.14,-33.02 872.13,-39.73"/>
<text text-anchor="middle" x="819.29" y="-57.8" font-family="Times New Roman,serif" font-size="14.00">0.105</text>
</g>
<!-- 13 -->
<g id="node14" class="node">
<title>13</title>
<g id="a_node14"><a xlink:href="camera operator.svg" xlink:title="camera operator">
<ellipse fill="none" stroke="black" cx="1112.79" cy="-18" rx="69.59" ry="18"/>
<text text-anchor="middle" x="1112.79" y="-14.3" font-family="Times New Roman,serif" font-size="14.00">camera operator</text>
</a>
</g>
</g>
<!-- 1&#45;&gt;13 -->
<g id="edge14" class="edge">
<title>1&#45;&gt;13</title>
<path fill="none" stroke="black" d="M719.59,-91.68C798.75,-78.74 925.66,-57.35 1034.79,-36 1040.46,-34.89 1046.34,-33.69 1052.23,-32.47"/>
<polygon fill="black" stroke="black" points="1053.03,-35.87 1062.09,-30.38 1051.58,-29.03 1053.03,-35.87"/>
<text text-anchor="middle" x="953.29" y="-57.8" font-family="Times New Roman,serif" font-size="14.00">0.052</text>
</g>
<!-- 14 -->
<g id="node15" class="node">
<title>14</title>
<g id="a_node15"><a xlink:href="corporate treasurer.svg" xlink:title="corporate treasurer">
<ellipse fill="none" stroke="black" cx="1279.79" cy="-18" rx="79.09" ry="18"/>
<text text-anchor="middle" x="1279.79" y="-14.3" font-family="Times New Roman,serif" font-size="14.00">corporate treasurer</text>
</a>
</g>
</g>
<!-- 1&#45;&gt;14 -->
<g id="edge15" class="edge">
<title>1&#45;&gt;14</title>
<path fill="none" stroke="black" d="M737.87,-95.03C803.88,-88.53 893.79,-79.14 972.79,-69 1070.43,-56.47 1094.78,-52.67 1191.79,-36 1198.39,-34.87 1205.25,-33.63 1212.1,-32.37"/>
<polygon fill="black" stroke="black" points="1212.92,-35.78 1222.11,-30.5 1211.63,-28.9 1212.92,-35.78"/>
<text text-anchor="middle" x="1097.29" y="-57.8" font-family="Times New Roman,serif" font-size="14.00">0.052</text>
</g>
<!-- 15 -->
<g id="node16" class="node">
<title>15</title>
<g id="a_node16"><a xlink:href="health and safety inspector.svg" xlink:title="health and safety inspector">
<ellipse fill="none" stroke="black" cx="1484.79" cy="-18" rx="107.48" ry="18"/>
<text text-anchor="middle" x="1484.79" y="-14.3" font-family="Times New Roman,serif" font-size="14.00">health and safety inspector</text>
</a>
</g>
</g>
<!-- 1&#45;&gt;15 -->
<g id="edge18" class="edge">
<title>1&#45;&gt;15</title>
<path fill="none" stroke="black" d="M747.9,-97.96C844.06,-92.03 990.18,-81.99 1116.79,-69 1228.72,-57.52 1256.34,-51.42 1367.79,-36 1377.22,-34.69 1387.08,-33.3 1396.9,-31.9"/>
<polygon fill="black" stroke="black" points="1397.69,-35.33 1407.09,-30.44 1396.69,-28.4 1397.69,-35.33"/>
<text text-anchor="middle" x="1253.29" y="-57.8" font-family="Times New Roman,serif" font-size="14.00">0.052</text>
</g>
<!-- 16 -->
<g id="node17" class="node">
<title>16</title>
<g id="a_node17"><a xlink:href="personal assistant.svg" xlink:title="personal assistant">
<ellipse fill="none" stroke="black" cx="1684.79" cy="-18" rx="74.99" ry="18"/>
<text text-anchor="middle" x="1684.79" y="-14.3" font-family="Times New Roman,serif" font-size="14.00">personal assistant</text>
</a>
</g>
</g>
<!-- 1&#45;&gt;16 -->
<g id="edge20" class="edge">
<title>1&#45;&gt;16</title>
<path fill="none" stroke="black" d="M754.79,-101.79C934.27,-96.96 1297.03,-81.9 1600.79,-36 1607.42,-35 1614.31,-33.82 1621.17,-32.57"/>
<polygon fill="black" stroke="black" points="1621.98,-35.98 1631.16,-30.68 1620.69,-29.1 1621.98,-35.98"/>
<text text-anchor="middle" x="1460.29" y="-57.8" font-family="Times New Roman,serif" font-size="14.00">0.052</text>
</g>
<!-- 2 -->
<g id="node3" class="node">
<title>2</title>
<g id="a_node3"><a xlink:href="regulatory affairs officer.svg" xlink:title="regulatory affairs officer">
<ellipse fill="none" stroke="black" cx="377.79" cy="-192" rx="98.28" ry="18"/>
<text text-anchor="middle" x="377.79" y="-188.3" font-family="Times New Roman,serif" font-size="14.00">regulatory affairs officer</text>
</a>
</g>
</g>
<!-- 2&#45;&gt;1 -->
<g id="edge2" class="edge">
<title>2&#45;&gt;1</title>
<path fill="none" stroke="black" d="M424.26,-176.1C468.97,-161.75 536.72,-140.02 584.92,-124.56"/>
<polygon fill="black" stroke="black" points="586.14,-127.85 594.59,-121.46 584,-121.18 586.14,-127.85"/>
<text text-anchor="middle" x="535.79" y="-144.8" font-family="Times New Roman,serif" font-size="14.00">0.1</text>
</g>
<!-- 3&#45;&gt;1 -->
<g id="edge3" class="edge">
<title>3&#45;&gt;1</title>
<path fill="none" stroke="black" d="M121.41,-31.48C166.97,-42.76 237.1,-59.07 298.79,-69 375.89,-81.41 463.44,-90.24 530.93,-95.93"/>
<polygon fill="black" stroke="black" points="530.91,-99.44 541.16,-96.78 531.49,-92.46 530.91,-99.44"/>
<text text-anchor="middle" x="311.29" y="-57.8" font-family="Times New Roman,serif" font-size="14.00">0.05</text>
</g>
<!-- 4&#45;&gt;1 -->
<g id="edge4" class="edge">
<title>4&#45;&gt;1</title>
<path fill="none" stroke="black" d="M311.23,-32.65C353.32,-43.05 413.12,-57.5 465.79,-69 497.28,-75.88 532.04,-82.88 562.36,-88.79"/>
<polygon fill="black" stroke="black" points="561.98,-92.28 572.46,-90.76 563.31,-85.41 561.98,-92.28"/>
<text text-anchor="middle" x="478.29" y="-57.8" font-family="Times New Roman,serif" font-size="14.00">0.05</text>
</g>
<!-- 5&#45;&gt;1 -->
<g id="edge5" class="edge">
<title>5&#45;&gt;1</title>
<path fill="none" stroke="black" d="M500.84,-35.05C528.9,-48.68 569.36,-68.33 599.91,-83.17"/>
<polygon fill="black" stroke="black" points="598.53,-86.39 609.05,-87.61 601.59,-80.09 598.53,-86.39"/>
<text text-anchor="middle" x="578.29" y="-57.8" font-family="Times New Roman,serif" font-size="14.00">0.05</text>
</g>
<!-- 6 -->
<g id="node7" class="node">
<title>6</title>
<g id="a_node7"><a xlink:href="housing adviser.svg" xlink:title="housing adviser">
<ellipse fill="none" stroke="black" cx="561.79" cy="-192" rx="67.69" ry="18"/>
<text text-anchor="middle" x="561.79" y="-188.3" font-family="Times New Roman,serif" font-size="14.00">housing adviser</text>
</a>
</g>
</g>
<!-- 6&#45;&gt;1 -->
<g id="edge6" class="edge">
<title>6&#45;&gt;1</title>
<path fill="none" stroke="black" d="M577.8,-174.21C589.7,-161.72 606.13,-144.48 619.49,-130.46"/>
<polygon fill="black" stroke="black" points="622.18,-132.7 626.55,-123.05 617.11,-127.87 622.18,-132.7"/>
<text text-anchor="middle" x="620.29" y="-144.8" font-family="Times New Roman,serif" font-size="14.00">0.05</text>
</g>
<!-- 7 -->
<g id="node8" class="node">
<title>7</title>
<g id="a_node8"><a xlink:href="investment analyst.svg" xlink:title="investment analyst">
<ellipse fill="none" stroke="black" cx="723.79" cy="-192" rx="76.89" ry="18"/>
<text text-anchor="middle" x="723.79" y="-188.3" font-family="Times New Roman,serif" font-size="14.00">investment analyst</text>
</a>
</g>
</g>
<!-- 7&#45;&gt;1 -->
<g id="edge7" class="edge">
<title>7&#45;&gt;1</title>
<path fill="none" stroke="black" d="M707.79,-174.21C695.89,-161.72 679.46,-144.48 666.1,-130.46"/>
<polygon fill="black" stroke="black" points="668.47,-127.87 659.04,-123.05 663.41,-132.7 668.47,-127.87"/>
<text text-anchor="middle" x="701.29" y="-144.8" font-family="Times New Roman,serif" font-size="14.00">0.05</text>
</g>
<!-- 8 -->
<g id="node9" class="node">
<title>8</title>
<g id="a_node9"><a xlink:href="investment fund manager.svg" xlink:title="investment fund manager">
<ellipse fill="none" stroke="black" cx="918.79" cy="-192" rx="100.98" ry="18"/>
<text text-anchor="middle" x="918.79" y="-188.3" font-family="Times New Roman,serif" font-size="14.00">investment fund manager</text>
</a>
</g>
</g>
<!-- 8&#45;&gt;1 -->
<g id="edge8" class="edge">
<title>8&#45;&gt;1</title>
<path fill="none" stroke="black" d="M870.4,-176.1C823.59,-161.68 752.53,-139.8 702.29,-124.32"/>
<polygon fill="black" stroke="black" points="703.11,-120.91 692.53,-121.32 701.05,-127.6 703.11,-120.91"/>
<text text-anchor="middle" x="810.29" y="-144.8" font-family="Times New Roman,serif" font-size="14.00">0.05</text>
</g>
<!-- 9 -->
<g id="node10" class="node">
<title>9</title>
<g id="a_node10"><a xlink:href="it consultant.svg" xlink:title="it consultant">
<ellipse fill="none" stroke="black" cx="1091.79" cy="-192" rx="54.69" ry="18"/>
<text text-anchor="middle" x="1091.79" y="-188.3" font-family="Times New Roman,serif" font-size="14.00">it consultant</text>
</a>
</g>
</g>
<!-- 9&#45;&gt;1 -->
<g id="edge9" class="edge">
<title>9&#45;&gt;1</title>
<path fill="none" stroke="black" d="M1051.93,-179.67C1044.28,-177.66 1036.31,-175.67 1028.79,-174 928.04,-151.58 811.16,-131.85 732.64,-119.5"/>
<polygon fill="black" stroke="black" points="732.73,-115.97 722.3,-117.88 731.64,-122.89 732.73,-115.97"/>
<text text-anchor="middle" x="946.29" y="-144.8" font-family="Times New Roman,serif" font-size="14.00">0.05</text>
</g>
<!-- 10&#45;&gt;1 -->
<g id="edge10" class="edge">
<title>10&#45;&gt;1</title>
<path fill="none" stroke="black" d="M637.32,-34.93C641.54,-40.54 645.61,-47.17 647.79,-54 650.11,-61.23 650.27,-69.32 649.48,-76.85"/>
<polygon fill="black" stroke="black" points="645.99,-76.55 647.85,-86.98 652.9,-77.66 645.99,-76.55"/>
<text text-anchor="middle" x="663.29" y="-57.8" font-family="Times New Roman,serif" font-size="14.00">0.05</text>
</g>
</g>
</svg>
