<?xml version="1.0" encoding="UTF-8" standalone="no"?>
<!DOCTYPE svg PUBLIC "-//W3C//DTD SVG 1.1//EN"
 "http://www.w3.org/Graphics/SVG/1.1/DTD/svg11.dtd">
<!-- Generated by graphviz version 2.44.1 (20200629.0800)
 -->
<!-- Title: financial_manager Pages: 1 -->
<svg width="1320pt" height="218pt"
 viewBox="0.00 0.00 1320.34 218.00" xmlns="http://www.w3.org/2000/svg" xmlns:xlink="http://www.w3.org/1999/xlink">
<g id="graph0" class="graph" transform="scale(1 1) rotate(0) translate(4 214)">
<title>financial_manager</title>
<polygon fill="white" stroke="transparent" points="-4,4 -4,-214 1316.34,-214 1316.34,4 -4,4"/>
<!-- 0 -->
<g id="node1" class="node">
<title>0</title>
<g id="a_node1"><a xlink:href="accountant.svg" xlink:title="accountant">
<ellipse fill="none" stroke="black" cx="424.09" cy="-192" rx="50.09" ry="18"/>
<text text-anchor="middle" x="424.09" y="-188.3" font-family="Times New Roman,serif" font-size="14.00">accountant</text>
</a>
</g>
</g>
<!-- 1 -->
<g id="node2" class="node">
<title>1</title>
<g id="a_node2"><a xlink:href="financial manager.svg" xlink:title="financial manager">
<ellipse fill="none" stroke="black" cx="530.09" cy="-105" rx="73.39" ry="18"/>
<text text-anchor="middle" x="530.09" y="-101.3" font-family="Times New Roman,serif" font-size="14.00">financial manager</text>
</a>
</g>
</g>
<!-- 0&#45;&gt;1 -->
<g id="edge1" class="edge">
<title>0&#45;&gt;1</title>
<path fill="none" stroke="black" d="M418.88,-173.7C416.84,-163.28 416.37,-150.28 423.09,-141 431.17,-129.86 442.9,-122.2 455.66,-116.95"/>
<polygon fill="black" stroke="black" points="456.88,-120.23 465.1,-113.53 454.5,-113.64 456.88,-120.23"/>
<text text-anchor="middle" x="438.59" y="-144.8" font-family="Times New Roman,serif" font-size="14.00">0.060</text>
</g>
<!-- 1&#45;&gt;0 -->
<g id="edge15" class="edge">
<title>1&#45;&gt;0</title>
<path fill="none" stroke="black" d="M509.69,-122.36C493.14,-135.63 469.66,-154.46 451.47,-169.04"/>
<polygon fill="black" stroke="black" points="449.15,-166.42 443.54,-175.41 453.53,-171.88 449.15,-166.42"/>
<text text-anchor="middle" x="499.59" y="-144.8" font-family="Times New Roman,serif" font-size="14.00">0.035</text>
</g>
<!-- 1&#45;&gt;1 -->
<g id="edge10" class="edge">
<title>1&#45;&gt;1</title>
<path fill="none" stroke="black" d="M596.67,-112.64C611.09,-111.9 621.54,-109.35 621.54,-105 621.54,-101.74 615.66,-99.49 606.64,-98.26"/>
<polygon fill="black" stroke="black" points="606.95,-94.77 596.67,-97.36 606.32,-101.74 606.95,-94.77"/>
<text text-anchor="middle" x="637.04" y="-101.3" font-family="Times New Roman,serif" font-size="14.00">0.350</text>
</g>
<!-- 2 -->
<g id="node3" class="node">
<title>2</title>
<g id="a_node3"><a xlink:href="sales manager.svg" xlink:title="sales manager">
<ellipse fill="none" stroke="black" cx="61.09" cy="-18" rx="61.19" ry="18"/>
<text text-anchor="middle" x="61.09" y="-14.3" font-family="Times New Roman,serif" font-size="14.00">sales manager</text>
</a>
</g>
</g>
<!-- 1&#45;&gt;2 -->
<g id="edge11" class="edge">
<title>1&#45;&gt;2</title>
<path fill="none" stroke="black" d="M458.67,-100.74C365.89,-95.93 209.25,-85.64 154.09,-69 132.42,-62.46 110.02,-50.6 92.64,-40.07"/>
<polygon fill="black" stroke="black" points="94.37,-37.03 84.03,-34.72 90.68,-42.97 94.37,-37.03"/>
<text text-anchor="middle" x="169.59" y="-57.8" font-family="Times New Roman,serif" font-size="14.00">0.083</text>
</g>
<!-- 3 -->
<g id="node4" class="node">
<title>3</title>
<g id="a_node4"><a xlink:href="pharmacovigilance officer.svg" xlink:title="pharmacovigilance officer">
<ellipse fill="none" stroke="black" cx="245.09" cy="-18" rx="104.78" ry="18"/>
<text text-anchor="middle" x="245.09" y="-14.3" font-family="Times New Roman,serif" font-size="14.00">pharmacovigilance officer</text>
</a>
</g>
</g>
<!-- 1&#45;&gt;3 -->
<g id="edge12" class="edge">
<title>1&#45;&gt;3</title>
<path fill="none" stroke="black" d="M458.38,-100.94C414.94,-97.04 359.2,-88.33 313.09,-69 297.83,-62.6 282.8,-52.12 270.77,-42.4"/>
<polygon fill="black" stroke="black" points="272.87,-39.59 262.95,-35.85 268.37,-44.95 272.87,-39.59"/>
<text text-anchor="middle" x="328.59" y="-57.8" font-family="Times New Roman,serif" font-size="14.00">0.050</text>
</g>
<!-- 4 -->
<g id="node5" class="node">
<title>4</title>
<g id="a_node5"><a xlink:href="it consultant.svg" xlink:title="it consultant">
<ellipse fill="none" stroke="black" cx="422.09" cy="-18" rx="54.69" ry="18"/>
<text text-anchor="middle" x="422.09" y="-14.3" font-family="Times New Roman,serif" font-size="14.00">it consultant</text>
</a>
</g>
</g>
<!-- 1&#45;&gt;4 -->
<g id="edge16" class="edge">
<title>1&#45;&gt;4</title>
<path fill="none" stroke="black" d="M473.98,-93.2C459.62,-88.01 445.36,-80.33 435.09,-69 429.42,-62.74 426.16,-54.31 424.31,-46.16"/>
<polygon fill="black" stroke="black" points="427.74,-45.46 422.64,-36.17 420.84,-46.62 427.74,-45.46"/>
<text text-anchor="middle" x="450.59" y="-57.8" font-family="Times New Roman,serif" font-size="14.00">0.035</text>
</g>
<!-- 6 -->
<g id="node7" class="node">
<title>6</title>
<g id="a_node7"><a xlink:href="project manager.svg" xlink:title="project manager">
<ellipse fill="none" stroke="black" cx="563.09" cy="-18" rx="68.79" ry="18"/>
<text text-anchor="middle" x="563.09" y="-14.3" font-family="Times New Roman,serif" font-size="14.00">project manager</text>
</a>
</g>
</g>
<!-- 1&#45;&gt;6 -->
<g id="edge14" class="edge">
<title>1&#45;&gt;6</title>
<path fill="none" stroke="black" d="M525.35,-86.69C523.51,-76.75 522.76,-64.25 527.09,-54 528.77,-50.03 531.15,-46.28 533.89,-42.82"/>
<polygon fill="black" stroke="black" points="536.6,-45.04 540.79,-35.31 531.45,-40.31 536.6,-45.04"/>
<text text-anchor="middle" x="542.59" y="-57.8" font-family="Times New Roman,serif" font-size="14.00">0.040</text>
</g>
<!-- 9 -->
<g id="node10" class="node">
<title>9</title>
<g id="a_node10"><a xlink:href="investment analyst.svg" xlink:title="investment analyst">
<ellipse fill="none" stroke="black" cx="727.09" cy="-18" rx="76.89" ry="18"/>
<text text-anchor="middle" x="727.09" y="-14.3" font-family="Times New Roman,serif" font-size="14.00">investment analyst</text>
</a>
</g>
</g>
<!-- 1&#45;&gt;9 -->
<g id="edge17" class="edge">
<title>1&#45;&gt;9</title>
<path fill="none" stroke="black" d="M564.86,-89C597.71,-74.82 647.14,-53.5 682.8,-38.11"/>
<polygon fill="black" stroke="black" points="684.22,-41.31 692.01,-34.14 681.44,-34.88 684.22,-41.31"/>
<text text-anchor="middle" x="655.59" y="-57.8" font-family="Times New Roman,serif" font-size="14.00">0.033</text>
</g>
<!-- 10 -->
<g id="node11" class="node">
<title>10</title>
<g id="a_node11"><a xlink:href="heritage manager.svg" xlink:title="heritage manager">
<ellipse fill="none" stroke="black" cx="893.09" cy="-18" rx="71.49" ry="18"/>
<text text-anchor="middle" x="893.09" y="-14.3" font-family="Times New Roman,serif" font-size="14.00">heritage manager</text>
</a>
</g>
</g>
<!-- 1&#45;&gt;10 -->
<g id="edge13" class="edge">
<title>1&#45;&gt;10</title>
<path fill="none" stroke="black" d="M592.9,-95.56C633.71,-89.52 687.9,-80.44 735.09,-69 772.18,-60.01 813.26,-46.91 844.23,-36.38"/>
<polygon fill="black" stroke="black" points="845.59,-39.61 853.91,-33.06 843.32,-32.99 845.59,-39.61"/>
<text text-anchor="middle" x="802.59" y="-57.8" font-family="Times New Roman,serif" font-size="14.00">0.047</text>
</g>
<!-- 11 -->
<g id="node12" class="node">
<title>11</title>
<g id="a_node12"><a xlink:href="investment fund manager.svg" xlink:title="investment fund manager">
<ellipse fill="none" stroke="black" cx="1083.09" cy="-18" rx="100.98" ry="18"/>
<text text-anchor="middle" x="1083.09" y="-14.3" font-family="Times New Roman,serif" font-size="14.00">investment fund manager</text>
</a>
</g>
</g>
<!-- 1&#45;&gt;11 -->
<g id="edge18" class="edge">
<title>1&#45;&gt;11</title>
<path fill="none" stroke="black" d="M596.67,-97.36C655.97,-91.13 745.03,-80.99 822.09,-69 886.23,-59.03 958.7,-44.91 1010.97,-34.22"/>
<polygon fill="black" stroke="black" points="1011.72,-37.64 1020.82,-32.2 1010.32,-30.79 1011.72,-37.64"/>
<text text-anchor="middle" x="923.59" y="-57.8" font-family="Times New Roman,serif" font-size="14.00">0.026</text>
</g>
<!-- 12 -->
<g id="node13" class="node">
<title>12</title>
<g id="a_node13"><a xlink:href="debt adviser.svg" xlink:title="debt adviser">
<ellipse fill="none" stroke="black" cx="1257.09" cy="-18" rx="55.49" ry="18"/>
<text text-anchor="middle" x="1257.09" y="-14.3" font-family="Times New Roman,serif" font-size="14.00">debt adviser</text>
</a>
</g>
</g>
<!-- 1&#45;&gt;12 -->
<g id="edge19" class="edge">
<title>1&#45;&gt;12</title>
<path fill="none" stroke="black" d="M601.88,-101.02C724.22,-94.98 980.56,-78.07 1193.09,-36 1197.71,-35.09 1202.5,-34.03 1207.27,-32.9"/>
<polygon fill="black" stroke="black" points="1208.12,-36.29 1216.99,-30.49 1206.45,-29.5 1208.12,-36.29"/>
<text text-anchor="middle" x="1100.59" y="-57.8" font-family="Times New Roman,serif" font-size="14.00">0.023</text>
</g>
<!-- 2&#45;&gt;1 -->
<g id="edge2" class="edge">
<title>2&#45;&gt;1</title>
<path fill="none" stroke="black" d="M102.09,-31.4C140.53,-42.62 199.76,-58.9 252.09,-69 319.09,-81.93 396.13,-91.2 452.1,-96.94"/>
<polygon fill="black" stroke="black" points="451.99,-100.44 462.29,-97.97 452.7,-93.48 451.99,-100.44"/>
<text text-anchor="middle" x="267.59" y="-57.8" font-family="Times New Roman,serif" font-size="14.00">0.057</text>
</g>
<!-- 3&#45;&gt;1 -->
<g id="edge3" class="edge">
<title>3&#45;&gt;1</title>
<path fill="none" stroke="black" d="M287.58,-34.45C316.79,-44.83 356.56,-58.47 392.09,-69 417.09,-76.41 444.91,-83.65 468.99,-89.61"/>
<polygon fill="black" stroke="black" points="468.17,-93.01 478.71,-92 469.83,-86.21 468.17,-93.01"/>
<text text-anchor="middle" x="407.59" y="-57.8" font-family="Times New Roman,serif" font-size="14.00">0.043</text>
</g>
<!-- 4&#45;&gt;1 -->
<g id="edge4" class="edge">
<title>4&#45;&gt;1</title>
<path fill="none" stroke="black" d="M442.12,-34.76C458.77,-47.87 482.67,-66.67 501.36,-81.38"/>
<polygon fill="black" stroke="black" points="499.25,-84.18 509.27,-87.61 503.58,-78.68 499.25,-84.18"/>
<text text-anchor="middle" x="498.59" y="-57.8" font-family="Times New Roman,serif" font-size="14.00">0.027</text>
</g>
<!-- 5 -->
<g id="node6" class="node">
<title>5</title>
<g id="a_node6"><a xlink:href="auditor.svg" xlink:title="auditor">
<ellipse fill="none" stroke="black" cx="529.09" cy="-192" rx="36.29" ry="18"/>
<text text-anchor="middle" x="529.09" y="-188.3" font-family="Times New Roman,serif" font-size="14.00">auditor</text>
</a>
</g>
</g>
<!-- 5&#45;&gt;1 -->
<g id="edge5" class="edge">
<title>5&#45;&gt;1</title>
<path fill="none" stroke="black" d="M529.3,-173.8C529.43,-162.16 529.62,-146.55 529.77,-133.24"/>
<polygon fill="black" stroke="black" points="533.27,-133.22 529.89,-123.18 526.28,-133.13 533.27,-133.22"/>
<text text-anchor="middle" x="545.59" y="-144.8" font-family="Times New Roman,serif" font-size="14.00">0.025</text>
</g>
<!-- 6&#45;&gt;1 -->
<g id="edge6" class="edge">
<title>6&#45;&gt;1</title>
<path fill="none" stroke="black" d="M565.69,-36.26C566.47,-46.18 566.22,-58.68 562.09,-69 560.59,-72.76 558.48,-76.37 556.06,-79.75"/>
<polygon fill="black" stroke="black" points="553.22,-77.68 549.54,-87.62 558.61,-82.15 553.22,-77.68"/>
<text text-anchor="middle" x="581.59" y="-57.8" font-family="Times New Roman,serif" font-size="14.00">0.025</text>
</g>
<!-- 7 -->
<g id="node8" class="node">
<title>7</title>
<g id="a_node8"><a xlink:href="corporate banker.svg" xlink:title="corporate banker">
<ellipse fill="none" stroke="black" cx="656.09" cy="-192" rx="72.59" ry="18"/>
<text text-anchor="middle" x="656.09" y="-188.3" font-family="Times New Roman,serif" font-size="14.00">corporate banker</text>
</a>
</g>
</g>
<!-- 7&#45;&gt;1 -->
<g id="edge7" class="edge">
<title>7&#45;&gt;1</title>
<path fill="none" stroke="black" d="M632.1,-174.81C612.39,-161.52 584.29,-142.56 562.58,-127.91"/>
<polygon fill="black" stroke="black" points="564.25,-124.82 554,-122.13 560.33,-130.62 564.25,-124.82"/>
<text text-anchor="middle" x="615.59" y="-144.8" font-family="Times New Roman,serif" font-size="14.00">0.022</text>
</g>
<!-- 8 -->
<g id="node9" class="node">
<title>8</title>
<g id="a_node9"><a xlink:href="legal executive.svg" xlink:title="legal executive">
<ellipse fill="none" stroke="black" cx="810.09" cy="-192" rx="63.09" ry="18"/>
<text text-anchor="middle" x="810.09" y="-188.3" font-family="Times New Roman,serif" font-size="14.00">legal executive</text>
</a>
</g>
</g>
<!-- 8&#45;&gt;1 -->
<g id="edge8" class="edge">
<title>8&#45;&gt;1</title>
<path fill="none" stroke="black" d="M768.48,-178.37C719.43,-163.48 637.8,-138.7 583.97,-122.35"/>
<polygon fill="black" stroke="black" points="584.84,-118.96 574.25,-119.41 582.8,-125.66 584.84,-118.96"/>
<text text-anchor="middle" x="701.59" y="-144.8" font-family="Times New Roman,serif" font-size="14.00">0.020</text>
</g>
<!-- 9&#45;&gt;1 -->
<g id="edge9" class="edge">
<title>9&#45;&gt;1</title>
<path fill="none" stroke="black" d="M716.08,-35.86C707.97,-46.93 695.98,-60.82 682.09,-69 659.54,-82.28 632.34,-90.52 607.23,-95.64"/>
<polygon fill="black" stroke="black" points="606.52,-92.21 597.35,-97.51 607.83,-99.09 606.52,-92.21"/>
<text text-anchor="middle" x="715.59" y="-57.8" font-family="Times New Roman,serif" font-size="14.00">0.019</text>
</g>
</g>
</svg>
