<?xml version="1.0" encoding="UTF-8" standalone="no"?>
<!DOCTYPE svg PUBLIC "-//W3C//DTD SVG 1.1//EN"
 "http://www.w3.org/Graphics/SVG/1.1/DTD/svg11.dtd">
<!-- Generated by graphviz version 2.44.1 (20200629.0800)
 -->
<!-- Title: test Pages: 1 -->
<svg width="1620pt" height="218pt"
 viewBox="0.00 0.00 1620.19 218.00" xmlns="http://www.w3.org/2000/svg" xmlns:xlink="http://www.w3.org/1999/xlink">
<g id="graph0" class="graph" transform="scale(1 1) rotate(0) translate(4 214)">
<title>test</title>
<polygon fill="white" stroke="transparent" points="-4,4 -4,-214 1616.19,-214 1616.19,4 -4,4"/>
<!-- 0 -->
<g id="node1" class="node">
<title>0</title>
<g id="a_node1"><a xlink:href="lecturer.svg" xlink:title="lecturer">
<ellipse fill="none" stroke="black" cx="37.7" cy="-192" rx="37.89" ry="18"/>
<text text-anchor="middle" x="37.7" y="-188.3" font-family="Times New Roman,serif" font-size="14.00">lecturer</text>
</a>
</g>
</g>
<!-- 1 -->
<g id="node2" class="node">
<title>1</title>
<g id="a_node2"><a xlink:href="fisheries officer.svg" xlink:title="fisheries officer">
<ellipse fill="none" stroke="black" cx="615.7" cy="-105" rx="66.89" ry="18"/>
<text text-anchor="middle" x="615.7" y="-101.3" font-family="Times New Roman,serif" font-size="14.00">fisheries officer</text>
</a>
</g>
</g>
<!-- 0&#45;&gt;1 -->
<g id="edge1" class="edge">
<title>0&#45;&gt;1</title>
<path fill="none" stroke="black" d="M46.72,-174.41C53.98,-162.86 65.33,-148.27 79.7,-141 119.6,-120.8 400.65,-111.22 539.06,-107.69"/>
<polygon fill="black" stroke="black" points="539.26,-111.18 549.17,-107.43 539.09,-104.19 539.26,-111.18"/>
<text text-anchor="middle" x="95.2" y="-144.8" font-family="Times New Roman,serif" font-size="14.00">0.181</text>
</g>
<!-- 1&#45;&gt;0 -->
<g id="edge11" class="edge">
<title>1&#45;&gt;0</title>
<path fill="none" stroke="black" d="M550.7,-109.71C449.77,-116.51 249.79,-134.09 84.7,-174 81.67,-174.73 78.58,-175.59 75.48,-176.53"/>
<polygon fill="black" stroke="black" points="74.13,-173.29 65.72,-179.73 76.31,-179.94 74.13,-173.29"/>
<text text-anchor="middle" x="252.7" y="-144.8" font-family="Times New Roman,serif" font-size="14.00">0.2</text>
</g>
<!-- 4 -->
<g id="node5" class="node">
<title>4</title>
<g id="a_node5"><a xlink:href="education administrator.svg" xlink:title="education administrator">
<ellipse fill="none" stroke="black" cx="160.7" cy="-18" rx="95.58" ry="18"/>
<text text-anchor="middle" x="160.7" y="-14.3" font-family="Times New Roman,serif" font-size="14.00">education administrator</text>
</a>
</g>
</g>
<!-- 1&#45;&gt;4 -->
<g id="edge13" class="edge">
<title>1&#45;&gt;4</title>
<path fill="none" stroke="black" d="M549.34,-102.55C481.43,-99.79 373.31,-91.83 282.7,-69 254.9,-62 225.1,-49.88 201.91,-39.32"/>
<polygon fill="black" stroke="black" points="203.27,-36.1 192.72,-35.07 200.33,-42.45 203.27,-36.1"/>
<text text-anchor="middle" x="291.7" y="-57.8" font-family="Times New Roman,serif" font-size="14.00">0.1</text>
</g>
<!-- 5 -->
<g id="node6" class="node">
<title>5</title>
<g id="a_node6"><a xlink:href="heritage manager.svg" xlink:title="heritage manager">
<ellipse fill="none" stroke="black" cx="345.7" cy="-18" rx="71.49" ry="18"/>
<text text-anchor="middle" x="345.7" y="-14.3" font-family="Times New Roman,serif" font-size="14.00">heritage manager</text>
</a>
</g>
</g>
<!-- 1&#45;&gt;5 -->
<g id="edge15" class="edge">
<title>1&#45;&gt;5</title>
<path fill="none" stroke="black" d="M556.95,-96.25C522.95,-90.75 479.7,-82 442.7,-69 421.23,-61.46 398.57,-50 380.54,-39.94"/>
<polygon fill="black" stroke="black" points="382,-36.74 371.57,-34.85 378.54,-42.83 382,-36.74"/>
<text text-anchor="middle" x="451.7" y="-57.8" font-family="Times New Roman,serif" font-size="14.00">0.1</text>
</g>
<!-- 11 -->
<g id="node12" class="node">
<title>11</title>
<g id="a_node12"><a xlink:href="automotive engineer.svg" xlink:title="automotive engineer">
<ellipse fill="none" stroke="black" cx="518.7" cy="-18" rx="83.39" ry="18"/>
<text text-anchor="middle" x="518.7" y="-14.3" font-family="Times New Roman,serif" font-size="14.00">automotive engineer</text>
</a>
</g>
</g>
<!-- 1&#45;&gt;11 -->
<g id="edge12" class="edge">
<title>1&#45;&gt;11</title>
<path fill="none" stroke="black" d="M596.99,-87.61C582.33,-74.76 561.73,-56.71 545.34,-42.34"/>
<polygon fill="black" stroke="black" points="547.5,-39.59 537.67,-35.63 542.89,-44.85 547.5,-39.59"/>
<text text-anchor="middle" x="582.7" y="-57.8" font-family="Times New Roman,serif" font-size="14.00">0.1</text>
</g>
<!-- 12 -->
<g id="node13" class="node">
<title>12</title>
<g id="a_node13"><a xlink:href="environmental scientist.svg" xlink:title="environmental scientist">
<ellipse fill="none" stroke="black" cx="712.7" cy="-18" rx="92.88" ry="18"/>
<text text-anchor="middle" x="712.7" y="-14.3" font-family="Times New Roman,serif" font-size="14.00">environmental scientist</text>
</a>
</g>
</g>
<!-- 1&#45;&gt;12 -->
<g id="edge14" class="edge">
<title>1&#45;&gt;12</title>
<path fill="none" stroke="black" d="M634.4,-87.61C649.07,-74.76 669.67,-56.71 686.06,-42.34"/>
<polygon fill="black" stroke="black" points="688.51,-44.85 693.72,-35.63 683.89,-39.59 688.51,-44.85"/>
<text text-anchor="middle" x="679.7" y="-57.8" font-family="Times New Roman,serif" font-size="14.00">0.1</text>
</g>
<!-- 13 -->
<g id="node14" class="node">
<title>13</title>
<g id="a_node14"><a xlink:href="legal executive.svg" xlink:title="legal executive">
<ellipse fill="none" stroke="black" cx="886.7" cy="-18" rx="63.09" ry="18"/>
<text text-anchor="middle" x="886.7" y="-14.3" font-family="Times New Roman,serif" font-size="14.00">legal executive</text>
</a>
</g>
</g>
<!-- 1&#45;&gt;13 -->
<g id="edge16" class="edge">
<title>1&#45;&gt;13</title>
<path fill="none" stroke="black" d="M657.45,-90.91C705.57,-75.81 784.63,-51.01 836.18,-34.85"/>
<polygon fill="black" stroke="black" points="837.29,-38.16 845.79,-31.83 835.2,-31.48 837.29,-38.16"/>
<text text-anchor="middle" x="776.7" y="-57.8" font-family="Times New Roman,serif" font-size="14.00">0.1</text>
</g>
<!-- 14 -->
<g id="node15" class="node">
<title>14</title>
<g id="a_node15"><a xlink:href="network administrator.svg" xlink:title="network administrator">
<ellipse fill="none" stroke="black" cx="1057.7" cy="-18" rx="89.88" ry="18"/>
<text text-anchor="middle" x="1057.7" y="-14.3" font-family="Times New Roman,serif" font-size="14.00">network administrator</text>
</a>
</g>
</g>
<!-- 1&#45;&gt;14 -->
<g id="edge17" class="edge">
<title>1&#45;&gt;14</title>
<path fill="none" stroke="black" d="M668.57,-93.83C747.45,-78.66 896.16,-50.06 985.15,-32.95"/>
<polygon fill="black" stroke="black" points="986,-36.35 995.16,-31.03 984.68,-29.48 986,-36.35"/>
<text text-anchor="middle" x="872.7" y="-57.8" font-family="Times New Roman,serif" font-size="14.00">0.1</text>
</g>
<!-- 15 -->
<g id="node16" class="node">
<title>15</title>
<g id="a_node16"><a xlink:href="personal assistant.svg" xlink:title="personal assistant">
<ellipse fill="none" stroke="black" cx="1239.7" cy="-18" rx="74.99" ry="18"/>
<text text-anchor="middle" x="1239.7" y="-14.3" font-family="Times New Roman,serif" font-size="14.00">personal assistant</text>
</a>
</g>
</g>
<!-- 1&#45;&gt;15 -->
<g id="edge18" class="edge">
<title>1&#45;&gt;15</title>
<path fill="none" stroke="black" d="M677.17,-97.83C777.77,-87.39 983.67,-64.55 1156.7,-36 1162.98,-34.96 1169.52,-33.79 1176.04,-32.56"/>
<polygon fill="black" stroke="black" points="1177.08,-35.92 1186.23,-30.58 1175.75,-29.05 1177.08,-35.92"/>
<text text-anchor="middle" x="1047.7" y="-57.8" font-family="Times New Roman,serif" font-size="14.00">0.1</text>
</g>
<!-- 16 -->
<g id="node17" class="node">
<title>16</title>
<g id="a_node17"><a xlink:href="sales manager.svg" xlink:title="sales manager">
<ellipse fill="none" stroke="black" cx="1393.7" cy="-18" rx="61.19" ry="18"/>
<text text-anchor="middle" x="1393.7" y="-14.3" font-family="Times New Roman,serif" font-size="14.00">sales manager</text>
</a>
</g>
</g>
<!-- 1&#45;&gt;16 -->
<g id="edge19" class="edge">
<title>1&#45;&gt;16</title>
<path fill="none" stroke="black" d="M681.62,-101.45C807.38,-95.74 1089.9,-78.91 1323.7,-36 1328.79,-35.06 1334.07,-33.99 1339.35,-32.84"/>
<polygon fill="black" stroke="black" points="1340.44,-36.18 1349.42,-30.55 1338.9,-29.35 1340.44,-36.18"/>
<text text-anchor="middle" x="1217.7" y="-57.8" font-family="Times New Roman,serif" font-size="14.00">0.1</text>
</g>
<!-- 2 -->
<g id="node3" class="node">
<title>2</title>
<g id="a_node3"><a xlink:href="broadcasting presenter.svg" xlink:title="broadcasting presenter">
<ellipse fill="none" stroke="black" cx="186.7" cy="-192" rx="92.88" ry="18"/>
<text text-anchor="middle" x="186.7" y="-188.3" font-family="Times New Roman,serif" font-size="14.00">broadcasting presenter</text>
</a>
</g>
</g>
<!-- 2&#45;&gt;1 -->
<g id="edge2" class="edge">
<title>2&#45;&gt;1</title>
<path fill="none" stroke="black" d="M249.08,-178.64C330.42,-162.52 471.89,-134.49 553.26,-118.37"/>
<polygon fill="black" stroke="black" points="554.23,-121.75 563.36,-116.37 552.87,-114.88 554.23,-121.75"/>
<text text-anchor="middle" x="443.2" y="-144.8" font-family="Times New Roman,serif" font-size="14.00">0.090</text>
</g>
<!-- 3 -->
<g id="node4" class="node">
<title>3</title>
<g id="a_node4"><a xlink:href="computer sales support.svg" xlink:title="computer sales support">
<ellipse fill="none" stroke="black" cx="393.7" cy="-192" rx="96.38" ry="18"/>
<text text-anchor="middle" x="393.7" y="-188.3" font-family="Times New Roman,serif" font-size="14.00">computer sales support</text>
</a>
</g>
</g>
<!-- 3&#45;&gt;1 -->
<g id="edge3" class="edge">
<title>3&#45;&gt;1</title>
<path fill="none" stroke="black" d="M433.9,-175.61C471.99,-161.02 529.18,-139.13 569.21,-123.8"/>
<polygon fill="black" stroke="black" points="570.66,-126.99 578.74,-120.15 568.15,-120.46 570.66,-126.99"/>
<text text-anchor="middle" x="534.2" y="-144.8" font-family="Times New Roman,serif" font-size="14.00">0.090</text>
</g>
<!-- 4&#45;&gt;1 -->
<g id="edge4" class="edge">
<title>4&#45;&gt;1</title>
<path fill="none" stroke="black" d="M214.52,-32.92C257.63,-43.74 319.78,-58.62 374.7,-69 432.1,-79.85 497.74,-89.19 546.01,-95.48"/>
<polygon fill="black" stroke="black" points="545.67,-98.96 556.04,-96.78 546.57,-92.02 545.67,-98.96"/>
<text text-anchor="middle" x="390.2" y="-57.8" font-family="Times New Roman,serif" font-size="14.00">0.090</text>
</g>
<!-- 5&#45;&gt;1 -->
<g id="edge5" class="edge">
<title>5&#45;&gt;1</title>
<path fill="none" stroke="black" d="M388.58,-32.5C436.2,-47.49 513.07,-71.69 563.98,-87.72"/>
<polygon fill="black" stroke="black" points="563.22,-91.15 573.81,-90.81 565.32,-84.47 563.22,-91.15"/>
<text text-anchor="middle" x="513.2" y="-57.8" font-family="Times New Roman,serif" font-size="14.00">0.090</text>
</g>
<!-- 6 -->
<g id="node7" class="node">
<title>6</title>
<g id="a_node7"><a xlink:href="nature conservation officer.svg" xlink:title="nature conservation officer">
<ellipse fill="none" stroke="black" cx="615.7" cy="-192" rx="107.78" ry="18"/>
<text text-anchor="middle" x="615.7" y="-188.3" font-family="Times New Roman,serif" font-size="14.00">nature conservation officer</text>
</a>
</g>
</g>
<!-- 6&#45;&gt;1 -->
<g id="edge6" class="edge">
<title>6&#45;&gt;1</title>
<path fill="none" stroke="black" d="M615.7,-173.8C615.7,-162.16 615.7,-146.55 615.7,-133.24"/>
<polygon fill="black" stroke="black" points="619.2,-133.18 615.7,-123.18 612.2,-133.18 619.2,-133.18"/>
<text text-anchor="middle" x="631.2" y="-144.8" font-family="Times New Roman,serif" font-size="14.00">0.090</text>
</g>
<!-- 7 -->
<g id="node8" class="node">
<title>7</title>
<g id="a_node8"><a xlink:href="pharmacovigilance officer.svg" xlink:title="pharmacovigilance officer">
<ellipse fill="none" stroke="black" cx="846.7" cy="-192" rx="104.78" ry="18"/>
<text text-anchor="middle" x="846.7" y="-188.3" font-family="Times New Roman,serif" font-size="14.00">pharmacovigilance officer</text>
</a>
</g>
</g>
<!-- 7&#45;&gt;1 -->
<g id="edge7" class="edge">
<title>7&#45;&gt;1</title>
<path fill="none" stroke="black" d="M804.6,-175.51C764.72,-160.84 704.91,-138.83 663.31,-123.52"/>
<polygon fill="black" stroke="black" points="664.27,-120.14 653.68,-119.98 661.85,-126.71 664.27,-120.14"/>
<text text-anchor="middle" x="761.2" y="-144.8" font-family="Times New Roman,serif" font-size="14.00">0.090</text>
</g>
<!-- 8 -->
<g id="node9" class="node">
<title>8</title>
<g id="a_node9"><a xlink:href="research scientist.svg" xlink:title="research scientist">
<ellipse fill="none" stroke="black" cx="1041.7" cy="-192" rx="72.59" ry="18"/>
<text text-anchor="middle" x="1041.7" y="-188.3" font-family="Times New Roman,serif" font-size="14.00">research scientist</text>
</a>
</g>
</g>
<!-- 8&#45;&gt;1 -->
<g id="edge8" class="edge">
<title>8&#45;&gt;1</title>
<path fill="none" stroke="black" d="M988.12,-179.66C978.98,-177.75 969.57,-175.81 960.7,-174 862.06,-153.93 747.35,-131.5 678.21,-118.08"/>
<polygon fill="black" stroke="black" points="678.82,-114.64 668.34,-116.17 677.49,-121.51 678.82,-114.64"/>
<text text-anchor="middle" x="882.2" y="-144.8" font-family="Times New Roman,serif" font-size="14.00">0.090</text>
</g>
<!-- 9 -->
<g id="node10" class="node">
<title>9</title>
<g id="a_node10"><a xlink:href="television production assistant.svg" xlink:title="television production assistant">
<ellipse fill="none" stroke="black" cx="1252.7" cy="-192" rx="120.48" ry="18"/>
<text text-anchor="middle" x="1252.7" y="-188.3" font-family="Times New Roman,serif" font-size="14.00">television production assistant</text>
</a>
</g>
</g>
<!-- 9&#45;&gt;1 -->
<g id="edge9" class="edge">
<title>9&#45;&gt;1</title>
<path fill="none" stroke="black" d="M1170.49,-178.82C1099.4,-168.4 993.84,-153.2 901.7,-141 828.13,-131.26 743.79,-121.06 685.86,-114.2"/>
<polygon fill="black" stroke="black" points="686.07,-110.7 675.72,-113 685.24,-117.65 686.07,-110.7"/>
<text text-anchor="middle" x="1024.2" y="-144.8" font-family="Times New Roman,serif" font-size="14.00">0.090</text>
</g>
<!-- 10 -->
<g id="node11" class="node">
<title>10</title>
<g id="a_node11"><a xlink:href="trade union research officer.svg" xlink:title="trade union research officer">
<ellipse fill="none" stroke="black" cx="1501.7" cy="-192" rx="110.48" ry="18"/>
<text text-anchor="middle" x="1501.7" y="-188.3" font-family="Times New Roman,serif" font-size="14.00">trade union research officer</text>
</a>
</g>
</g>
<!-- 10&#45;&gt;1 -->
<g id="edge10" class="edge">
<title>10&#45;&gt;1</title>
<path fill="none" stroke="black" d="M1423.01,-179.35C1409.25,-177.46 1395.07,-175.6 1381.7,-174 1128.63,-143.73 827.03,-120.79 690.01,-111.08"/>
<polygon fill="black" stroke="black" points="689.86,-107.56 679.64,-110.35 689.37,-114.55 689.86,-107.56"/>
<text text-anchor="middle" x="1229.2" y="-144.8" font-family="Times New Roman,serif" font-size="14.00">0.090</text>
</g>
</g>
</svg>
