<?xml version="1.0" encoding="UTF-8" standalone="no"?>
<!DOCTYPE svg PUBLIC "-//W3C//DTD SVG 1.1//EN"
 "http://www.w3.org/Graphics/SVG/1.1/DTD/svg11.dtd">
<!-- Generated by graphviz version 2.44.1 (20200629.0800)
 -->
<!-- Title: fitness_centre_manager Pages: 1 -->
<svg width="1420pt" height="218pt"
 viewBox="0.00 0.00 1420.08 218.00" xmlns="http://www.w3.org/2000/svg" xmlns:xlink="http://www.w3.org/1999/xlink">
<g id="graph0" class="graph" transform="scale(1 1) rotate(0) translate(4 214)">
<title>fitness_centre_manager</title>
<polygon fill="white" stroke="transparent" points="-4,4 -4,-214 1416.08,-214 1416.08,4 -4,4"/>
<!-- 0 -->
<g id="node1" class="node">
<title>0</title>
<g id="a_node1"><a xlink:href="project manager.svg" xlink:title="project manager">
<ellipse fill="none" stroke="black" cx="289.64" cy="-192" rx="68.79" ry="18"/>
<text text-anchor="middle" x="289.64" y="-188.3" font-family="Times New Roman,serif" font-size="14.00">project manager</text>
</a>
</g>
</g>
<!-- 1 -->
<g id="node2" class="node">
<title>1</title>
<g id="a_node2"><a xlink:href="fitness centre manager.svg" xlink:title="fitness centre manager">
<ellipse fill="none" stroke="black" cx="504.64" cy="-105" rx="90.98" ry="18"/>
<text text-anchor="middle" x="504.64" y="-101.3" font-family="Times New Roman,serif" font-size="14.00">fitness centre manager</text>
</a>
</g>
</g>
<!-- 0&#45;&gt;1 -->
<g id="edge1" class="edge">
<title>0&#45;&gt;1</title>
<path fill="none" stroke="black" d="M294.55,-174.04C298.65,-162.92 305.64,-149.02 316.64,-141 332.69,-129.3 374.8,-120.89 415.1,-115.26"/>
<polygon fill="black" stroke="black" points="415.58,-118.72 425.02,-113.92 414.64,-111.79 415.58,-118.72"/>
<text text-anchor="middle" x="332.14" y="-144.8" font-family="Times New Roman,serif" font-size="14.00">0.101</text>
</g>
<!-- 1&#45;&gt;0 -->
<g id="edge11" class="edge">
<title>1&#45;&gt;0</title>
<path fill="none" stroke="black" d="M465.81,-121.35C429.21,-135.82 374.36,-157.51 335.6,-172.83"/>
<polygon fill="black" stroke="black" points="334.13,-169.65 326.11,-176.58 336.7,-176.16 334.13,-169.65"/>
<text text-anchor="middle" x="426.14" y="-144.8" font-family="Times New Roman,serif" font-size="14.00">0.087</text>
</g>
<!-- 1&#45;&gt;1 -->
<g id="edge10" class="edge">
<title>1&#45;&gt;1</title>
<path fill="none" stroke="black" d="M587.8,-112.44C602.98,-111.5 613.63,-109.02 613.63,-105 613.63,-101.95 607.52,-99.79 597.95,-98.51"/>
<polygon fill="black" stroke="black" points="598.09,-95.01 587.8,-97.56 597.43,-101.98 598.09,-95.01"/>
<text text-anchor="middle" x="629.13" y="-101.3" font-family="Times New Roman,serif" font-size="14.00">0.124</text>
</g>
<!-- 2 -->
<g id="node3" class="node">
<title>2</title>
<g id="a_node3"><a xlink:href="pharmacovigilance officer.svg" xlink:title="pharmacovigilance officer">
<ellipse fill="none" stroke="black" cx="104.64" cy="-18" rx="104.78" ry="18"/>
<text text-anchor="middle" x="104.64" y="-14.3" font-family="Times New Roman,serif" font-size="14.00">pharmacovigilance officer</text>
</a>
</g>
</g>
<!-- 1&#45;&gt;2 -->
<g id="edge12" class="edge">
<title>1&#45;&gt;2</title>
<path fill="none" stroke="black" d="M418.58,-98.92C338.83,-93.44 226.42,-83.49 184.64,-69 166.7,-62.78 148.6,-51.94 134.17,-41.94"/>
<polygon fill="black" stroke="black" points="135.86,-38.84 125.69,-35.87 131.78,-44.53 135.86,-38.84"/>
<text text-anchor="middle" x="200.14" y="-57.8" font-family="Times New Roman,serif" font-size="14.00">0.065</text>
</g>
<!-- 3 -->
<g id="node4" class="node">
<title>3</title>
<g id="a_node4"><a xlink:href="sales manager.svg" xlink:title="sales manager">
<ellipse fill="none" stroke="black" cx="288.64" cy="-18" rx="61.19" ry="18"/>
<text text-anchor="middle" x="288.64" y="-14.3" font-family="Times New Roman,serif" font-size="14.00">sales manager</text>
</a>
</g>
</g>
<!-- 1&#45;&gt;3 -->
<g id="edge16" class="edge">
<title>1&#45;&gt;3</title>
<path fill="none" stroke="black" d="M418.78,-99.02C388.6,-94.24 355.53,-85.34 328.64,-69 318.71,-62.96 310.21,-53.51 303.64,-44.45"/>
<polygon fill="black" stroke="black" points="306.44,-42.33 297.95,-36 300.63,-46.25 306.44,-42.33"/>
<text text-anchor="middle" x="344.14" y="-57.8" font-family="Times New Roman,serif" font-size="14.00">0.036</text>
</g>
<!-- 4 -->
<g id="node5" class="node">
<title>4</title>
<g id="a_node5"><a xlink:href="facilities manager.svg" xlink:title="facilities manager">
<ellipse fill="none" stroke="black" cx="440.64" cy="-18" rx="72.59" ry="18"/>
<text text-anchor="middle" x="440.64" y="-14.3" font-family="Times New Roman,serif" font-size="14.00">facilities manager</text>
</a>
</g>
</g>
<!-- 1&#45;&gt;4 -->
<g id="edge17" class="edge">
<title>1&#45;&gt;4</title>
<path fill="none" stroke="black" d="M457.54,-89.45C448.44,-84.44 440.07,-77.78 434.64,-69 430.42,-62.17 430,-53.82 431.19,-45.9"/>
<polygon fill="black" stroke="black" points="434.66,-46.45 433.51,-35.92 427.84,-44.87 434.66,-46.45"/>
<text text-anchor="middle" x="450.14" y="-57.8" font-family="Times New Roman,serif" font-size="14.00">0.029</text>
</g>
<!-- 5 -->
<g id="node6" class="node">
<title>5</title>
<g id="a_node6"><a xlink:href="lecturer.svg" xlink:title="lecturer">
<ellipse fill="none" stroke="black" cx="568.64" cy="-18" rx="37.89" ry="18"/>
<text text-anchor="middle" x="568.64" y="-14.3" font-family="Times New Roman,serif" font-size="14.00">lecturer</text>
</a>
</g>
</g>
<!-- 1&#45;&gt;5 -->
<g id="edge13" class="edge">
<title>1&#45;&gt;5</title>
<path fill="none" stroke="black" d="M510.86,-86.83C515,-76.7 521.07,-63.97 528.64,-54 532.29,-49.2 536.68,-44.57 541.2,-40.33"/>
<polygon fill="black" stroke="black" points="543.63,-42.86 548.81,-33.62 539,-37.61 543.63,-42.86"/>
<text text-anchor="middle" x="544.14" y="-57.8" font-family="Times New Roman,serif" font-size="14.00">0.051</text>
</g>
<!-- 10 -->
<g id="node11" class="node">
<title>10</title>
<g id="a_node11"><a xlink:href="financial manager.svg" xlink:title="financial manager">
<ellipse fill="none" stroke="black" cx="697.64" cy="-18" rx="73.39" ry="18"/>
<text text-anchor="middle" x="697.64" y="-14.3" font-family="Times New Roman,serif" font-size="14.00">financial manager</text>
</a>
</g>
</g>
<!-- 1&#45;&gt;10 -->
<g id="edge14" class="edge">
<title>1&#45;&gt;10</title>
<path fill="none" stroke="black" d="M551.03,-89.45C568.11,-83.66 587.47,-76.56 604.64,-69 624.03,-60.46 644.87,-49.43 661.9,-39.91"/>
<polygon fill="black" stroke="black" points="663.95,-42.77 670.93,-34.8 660.51,-36.68 663.95,-42.77"/>
<text text-anchor="middle" x="649.14" y="-57.8" font-family="Times New Roman,serif" font-size="14.00">0.036</text>
</g>
<!-- 11 -->
<g id="node12" class="node">
<title>11</title>
<g id="a_node12"><a xlink:href="geographical information systems manager.svg" xlink:title="geographical information systems manager">
<ellipse fill="none" stroke="black" cx="954.64" cy="-18" rx="165.17" ry="18"/>
<text text-anchor="middle" x="954.64" y="-14.3" font-family="Times New Roman,serif" font-size="14.00">geographical information systems manager</text>
</a>
</g>
</g>
<!-- 1&#45;&gt;11 -->
<g id="edge15" class="edge">
<title>1&#45;&gt;11</title>
<path fill="none" stroke="black" d="M568.16,-92C645.96,-77.31 778.2,-52.33 865.99,-35.75"/>
<polygon fill="black" stroke="black" points="866.76,-39.16 875.93,-33.87 865.46,-32.28 866.76,-39.16"/>
<text text-anchor="middle" x="771.14" y="-57.8" font-family="Times New Roman,serif" font-size="14.00">0.036</text>
</g>
<!-- 12 -->
<g id="node13" class="node">
<title>12</title>
<g id="a_node13"><a xlink:href="it consultant.svg" xlink:title="it consultant">
<ellipse fill="none" stroke="black" cx="1192.64" cy="-18" rx="54.69" ry="18"/>
<text text-anchor="middle" x="1192.64" y="-14.3" font-family="Times New Roman,serif" font-size="14.00">it consultant</text>
</a>
</g>
</g>
<!-- 1&#45;&gt;12 -->
<g id="edge18" class="edge">
<title>1&#45;&gt;12</title>
<path fill="none" stroke="black" d="M590.27,-98.78C711.07,-90.49 938.08,-71.48 1128.64,-36 1133.34,-35.13 1138.2,-34.09 1143.04,-32.96"/>
<polygon fill="black" stroke="black" points="1144.03,-36.32 1152.91,-30.55 1142.36,-29.52 1144.03,-36.32"/>
<text text-anchor="middle" x="1025.14" y="-57.8" font-family="Times New Roman,serif" font-size="14.00">0.029</text>
</g>
<!-- 13 -->
<g id="node14" class="node">
<title>13</title>
<g id="a_node14"><a xlink:href="logistics manager.svg" xlink:title="logistics manager">
<ellipse fill="none" stroke="black" cx="1338.64" cy="-18" rx="73.39" ry="18"/>
<text text-anchor="middle" x="1338.64" y="-14.3" font-family="Times New Roman,serif" font-size="14.00">logistics manager</text>
</a>
</g>
</g>
<!-- 1&#45;&gt;13 -->
<g id="edge19" class="edge">
<title>1&#45;&gt;13</title>
<path fill="none" stroke="black" d="M593.25,-100.7C700.4,-96.14 886.12,-86.44 1044.64,-69 1139.43,-58.57 1162.81,-53.02 1256.64,-36 1262.74,-34.89 1269.09,-33.68 1275.43,-32.44"/>
<polygon fill="black" stroke="black" points="1276.22,-35.85 1285.34,-30.45 1274.85,-28.98 1276.22,-35.85"/>
<text text-anchor="middle" x="1169.14" y="-57.8" font-family="Times New Roman,serif" font-size="14.00">0.029</text>
</g>
<!-- 2&#45;&gt;1 -->
<g id="edge2" class="edge">
<title>2&#45;&gt;1</title>
<path fill="none" stroke="black" d="M150.94,-34.24C185.32,-45.13 233.52,-59.47 276.64,-69 323.25,-79.31 375.88,-87.6 418.83,-93.53"/>
<polygon fill="black" stroke="black" points="418.58,-97.02 428.96,-94.91 419.52,-90.09 418.58,-97.02"/>
<text text-anchor="middle" x="292.14" y="-57.8" font-family="Times New Roman,serif" font-size="14.00">0.050</text>
</g>
<!-- 3&#45;&gt;1 -->
<g id="edge3" class="edge">
<title>3&#45;&gt;1</title>
<path fill="none" stroke="black" d="M318.48,-33.99C339.93,-44.48 369.71,-58.45 396.64,-69 412.6,-75.25 430.17,-81.3 446.43,-86.55"/>
<polygon fill="black" stroke="black" points="445.76,-90.01 456.35,-89.72 447.89,-83.34 445.76,-90.01"/>
<text text-anchor="middle" x="412.14" y="-57.8" font-family="Times New Roman,serif" font-size="14.00">0.038</text>
</g>
<!-- 4&#45;&gt;1 -->
<g id="edge4" class="edge">
<title>4&#45;&gt;1</title>
<path fill="none" stroke="black" d="M453.35,-35.89C462.55,-48.1 475.14,-64.82 485.54,-78.64"/>
<polygon fill="black" stroke="black" points="482.88,-80.92 491.69,-86.8 488.47,-76.7 482.88,-80.92"/>
<text text-anchor="middle" x="492.14" y="-57.8" font-family="Times New Roman,serif" font-size="14.00">0.031</text>
</g>
<!-- 5&#45;&gt;1 -->
<g id="edge5" class="edge">
<title>5&#45;&gt;1</title>
<path fill="none" stroke="black" d="M570.61,-35.99C570.97,-46.3 569.83,-59.29 563.64,-69 560.36,-74.15 556.03,-78.64 551.2,-82.52"/>
<polygon fill="black" stroke="black" points="548.86,-79.89 542.69,-88.51 552.89,-85.62 548.86,-79.89"/>
<text text-anchor="middle" x="585.14" y="-57.8" font-family="Times New Roman,serif" font-size="14.00">0.031</text>
</g>
<!-- 6 -->
<g id="node7" class="node">
<title>6</title>
<g id="a_node7"><a xlink:href="site manager.svg" xlink:title="site manager">
<ellipse fill="none" stroke="black" cx="432.64" cy="-192" rx="55.79" ry="18"/>
<text text-anchor="middle" x="432.64" y="-188.3" font-family="Times New Roman,serif" font-size="14.00">site manager</text>
</a>
</g>
</g>
<!-- 6&#45;&gt;1 -->
<g id="edge6" class="edge">
<title>6&#45;&gt;1</title>
<path fill="none" stroke="black" d="M446.87,-174.21C457.35,-161.83 471.78,-144.8 483.59,-130.85"/>
<polygon fill="black" stroke="black" points="486.41,-132.94 490.2,-123.05 481.06,-128.42 486.41,-132.94"/>
<text text-anchor="middle" x="489.14" y="-144.8" font-family="Times New Roman,serif" font-size="14.00">0.031</text>
</g>
<!-- 7 -->
<g id="node8" class="node">
<title>7</title>
<g id="a_node8"><a xlink:href="heritage manager.svg" xlink:title="heritage manager">
<ellipse fill="none" stroke="black" cx="577.64" cy="-192" rx="71.49" ry="18"/>
<text text-anchor="middle" x="577.64" y="-188.3" font-family="Times New Roman,serif" font-size="14.00">heritage manager</text>
</a>
</g>
</g>
<!-- 7&#45;&gt;1 -->
<g id="edge7" class="edge">
<title>7&#45;&gt;1</title>
<path fill="none" stroke="black" d="M563.22,-174.21C552.59,-161.83 537.96,-144.8 525.98,-130.85"/>
<polygon fill="black" stroke="black" points="528.45,-128.36 519.28,-123.05 523.14,-132.92 528.45,-128.36"/>
<text text-anchor="middle" x="561.14" y="-144.8" font-family="Times New Roman,serif" font-size="14.00">0.025</text>
</g>
<!-- 8 -->
<g id="node9" class="node">
<title>8</title>
<g id="a_node9"><a xlink:href="programme researcher.svg" xlink:title="programme researcher">
<ellipse fill="none" stroke="black" cx="758.64" cy="-192" rx="91.78" ry="18"/>
<text text-anchor="middle" x="758.64" y="-188.3" font-family="Times New Roman,serif" font-size="14.00">programme researcher</text>
</a>
</g>
</g>
<!-- 8&#45;&gt;1 -->
<g id="edge8" class="edge">
<title>8&#45;&gt;1</title>
<path fill="none" stroke="black" d="M714.4,-176.19C671.01,-161.67 604.79,-139.51 558.39,-123.99"/>
<polygon fill="black" stroke="black" points="559.4,-120.63 548.8,-120.78 557.17,-127.27 559.4,-120.63"/>
<text text-anchor="middle" x="663.14" y="-144.8" font-family="Times New Roman,serif" font-size="14.00">0.025</text>
</g>
<!-- 9 -->
<g id="node10" class="node">
<title>9</title>
<g id="a_node10"><a xlink:href="sports coach.svg" xlink:title="sports coach">
<ellipse fill="none" stroke="black" cx="925.64" cy="-192" rx="57.69" ry="18"/>
<text text-anchor="middle" x="925.64" y="-188.3" font-family="Times New Roman,serif" font-size="14.00">sports coach</text>
</a>
</g>
</g>
<!-- 9&#45;&gt;1 -->
<g id="edge9" class="edge">
<title>9&#45;&gt;1</title>
<path fill="none" stroke="black" d="M883.13,-179.63C875.34,-177.67 867.26,-175.71 859.64,-174 764.03,-152.55 652.97,-131.97 580.89,-119.17"/>
<polygon fill="black" stroke="black" points="581.44,-115.72 570.98,-117.42 580.22,-122.61 581.44,-115.72"/>
<text text-anchor="middle" x="787.14" y="-144.8" font-family="Times New Roman,serif" font-size="14.00">0.025</text>
</g>
</g>
</svg>
