<?xml version="1.0" encoding="UTF-8" standalone="no"?>
<!DOCTYPE svg PUBLIC "-//W3C//DTD SVG 1.1//EN"
 "http://www.w3.org/Graphics/SVG/1.1/DTD/svg11.dtd">
<!-- Generated by graphviz version 2.44.1 (20200629.0800)
 -->
<!-- Title: test Pages: 1 -->
<svg width="1747pt" height="218pt"
 viewBox="0.00 0.00 1746.68 218.00" xmlns="http://www.w3.org/2000/svg" xmlns:xlink="http://www.w3.org/1999/xlink">
<g id="graph0" class="graph" transform="scale(1 1) rotate(0) translate(4 214)">
<title>test</title>
<polygon fill="white" stroke="transparent" points="-4,4 -4,-214 1742.68,-214 1742.68,4 -4,4"/>
<!-- 0 -->
<g id="node1" class="node">
<title>0</title>
<g id="a_node1"><a xlink:href="academic librarian.svg" xlink:title="academic librarian">
<ellipse fill="none" stroke="black" cx="122.04" cy="-192" rx="76.09" ry="18"/>
<text text-anchor="middle" x="122.04" y="-188.3" font-family="Times New Roman,serif" font-size="14.00">academic librarian</text>
</a>
</g>
</g>
<!-- 1 -->
<g id="node2" class="node">
<title>1</title>
<g id="a_node2"><a xlink:href="food scientist.svg" xlink:title="food scientist">
<ellipse fill="none" stroke="black" cx="778.04" cy="-105" rx="59.59" ry="18"/>
<text text-anchor="middle" x="778.04" y="-101.3" font-family="Times New Roman,serif" font-size="14.00">food scientist</text>
</a>
</g>
</g>
<!-- 0&#45;&gt;1 -->
<g id="edge1" class="edge">
<title>0&#45;&gt;1</title>
<path fill="none" stroke="black" d="M176.81,-179.48C186.85,-177.53 197.24,-175.61 207.04,-174 388.59,-144.09 604.69,-122 711.49,-111.97"/>
<polygon fill="black" stroke="black" points="711.85,-115.46 721.48,-111.04 711.2,-108.49 711.85,-115.46"/>
<text text-anchor="middle" x="442.54" y="-144.8" font-family="Times New Roman,serif" font-size="14.00">0.076</text>
</g>
<!-- 6 -->
<g id="node7" class="node">
<title>6</title>
<g id="a_node7"><a xlink:href="commissioning editor.svg" xlink:title="commissioning editor">
<ellipse fill="none" stroke="black" cx="89.04" cy="-18" rx="89.08" ry="18"/>
<text text-anchor="middle" x="89.04" y="-14.3" font-family="Times New Roman,serif" font-size="14.00">commissioning editor</text>
</a>
</g>
</g>
<!-- 1&#45;&gt;6 -->
<g id="edge13" class="edge">
<title>1&#45;&gt;6</title>
<path fill="none" stroke="black" d="M718.01,-104.32C620.36,-103.87 421.39,-98.91 256.04,-69 216.23,-61.8 172.46,-48.49 139.73,-37.41"/>
<polygon fill="black" stroke="black" points="140.53,-33.98 129.94,-34.05 138.26,-40.6 140.53,-33.98"/>
<text text-anchor="middle" x="271.54" y="-57.8" font-family="Times New Roman,serif" font-size="14.00">0.071</text>
</g>
<!-- 8 -->
<g id="node9" class="node">
<title>8</title>
<g id="a_node9"><a xlink:href="government research officer.svg" xlink:title="government research officer">
<ellipse fill="none" stroke="black" cx="308.04" cy="-18" rx="112.38" ry="18"/>
<text text-anchor="middle" x="308.04" y="-14.3" font-family="Times New Roman,serif" font-size="14.00">government research officer</text>
</a>
</g>
</g>
<!-- 1&#45;&gt;8 -->
<g id="edge16" class="edge">
<title>1&#45;&gt;8</title>
<path fill="none" stroke="black" d="M720.47,-100.09C660.12,-95.32 562.75,-85.76 480.04,-69 440.37,-60.96 396.58,-48.17 363.11,-37.54"/>
<polygon fill="black" stroke="black" points="364.11,-34.19 353.52,-34.46 361.97,-40.85 364.11,-34.19"/>
<text text-anchor="middle" x="495.54" y="-57.8" font-family="Times New Roman,serif" font-size="14.00">0.071</text>
</g>
<!-- 11 -->
<g id="node12" class="node">
<title>11</title>
<g id="a_node12"><a xlink:href="advertising copywriter.svg" xlink:title="advertising copywriter">
<ellipse fill="none" stroke="black" cx="529.04" cy="-18" rx="90.98" ry="18"/>
<text text-anchor="middle" x="529.04" y="-14.3" font-family="Times New Roman,serif" font-size="14.00">advertising copywriter</text>
</a>
</g>
</g>
<!-- 1&#45;&gt;11 -->
<g id="edge11" class="edge">
<title>1&#45;&gt;11</title>
<path fill="none" stroke="black" d="M739.95,-91C697.77,-76.6 629.46,-53.28 582.06,-37.1"/>
<polygon fill="black" stroke="black" points="583.17,-33.78 572.57,-33.86 580.91,-40.4 583.17,-33.78"/>
<text text-anchor="middle" x="684.54" y="-57.8" font-family="Times New Roman,serif" font-size="14.00">0.071</text>
</g>
<!-- 12 -->
<g id="node13" class="node">
<title>12</title>
<g id="a_node13"><a xlink:href="brand manager.svg" xlink:title="brand manager">
<ellipse fill="none" stroke="black" cx="702.04" cy="-18" rx="64.19" ry="18"/>
<text text-anchor="middle" x="702.04" y="-14.3" font-family="Times New Roman,serif" font-size="14.00">brand manager</text>
</a>
</g>
</g>
<!-- 1&#45;&gt;12 -->
<g id="edge12" class="edge">
<title>1&#45;&gt;12</title>
<path fill="none" stroke="black" d="M763.03,-87.21C751.89,-74.75 736.53,-57.57 724.01,-43.57"/>
<polygon fill="black" stroke="black" points="726.3,-40.88 717.03,-35.76 721.08,-45.55 726.3,-40.88"/>
<text text-anchor="middle" x="760.54" y="-57.8" font-family="Times New Roman,serif" font-size="14.00">0.071</text>
</g>
<!-- 13 -->
<g id="node14" class="node">
<title>13</title>
<g id="a_node14"><a xlink:href="content manager.svg" xlink:title="content manager">
<ellipse fill="none" stroke="black" cx="855.04" cy="-18" rx="70.39" ry="18"/>
<text text-anchor="middle" x="855.04" y="-14.3" font-family="Times New Roman,serif" font-size="14.00">content manager</text>
</a>
</g>
</g>
<!-- 1&#45;&gt;13 -->
<g id="edge14" class="edge">
<title>1&#45;&gt;13</title>
<path fill="none" stroke="black" d="M793.25,-87.21C804.64,-74.63 820.39,-57.25 833.14,-43.18"/>
<polygon fill="black" stroke="black" points="835.74,-45.52 839.86,-35.76 830.55,-40.82 835.74,-45.52"/>
<text text-anchor="middle" x="837.54" y="-57.8" font-family="Times New Roman,serif" font-size="14.00">0.071</text>
</g>
<!-- 14 -->
<g id="node15" class="node">
<title>14</title>
<g id="a_node15"><a xlink:href="electrical engineer.svg" xlink:title="electrical engineer">
<ellipse fill="none" stroke="black" cx="1018.04" cy="-18" rx="74.99" ry="18"/>
<text text-anchor="middle" x="1018.04" y="-14.3" font-family="Times New Roman,serif" font-size="14.00">electrical engineer</text>
</a>
</g>
</g>
<!-- 1&#45;&gt;14 -->
<g id="edge15" class="edge">
<title>1&#45;&gt;14</title>
<path fill="none" stroke="black" d="M815.28,-90.81C856.37,-76.26 922.71,-52.76 968.24,-36.64"/>
<polygon fill="black" stroke="black" points="969.66,-39.85 977.91,-33.21 967.32,-33.25 969.66,-39.85"/>
<text text-anchor="middle" x="928.54" y="-57.8" font-family="Times New Roman,serif" font-size="14.00">0.071</text>
</g>
<!-- 15 -->
<g id="node16" class="node">
<title>15</title>
<g id="a_node16"><a xlink:href="journalist.svg" xlink:title="journalist">
<ellipse fill="none" stroke="black" cx="1154.04" cy="-18" rx="43.59" ry="18"/>
<text text-anchor="middle" x="1154.04" y="-14.3" font-family="Times New Roman,serif" font-size="14.00">journalist</text>
</a>
</g>
</g>
<!-- 1&#45;&gt;15 -->
<g id="edge17" class="edge">
<title>1&#45;&gt;15</title>
<path fill="none" stroke="black" d="M828.41,-95.26C892.49,-83.72 1006.32,-61.83 1102.04,-36 1105.35,-35.11 1108.76,-34.13 1112.18,-33.1"/>
<polygon fill="black" stroke="black" points="1113.23,-36.44 1121.75,-30.14 1111.16,-29.76 1113.23,-36.44"/>
<text text-anchor="middle" x="1037.54" y="-57.8" font-family="Times New Roman,serif" font-size="14.00">0.071</text>
</g>
<!-- 16 -->
<g id="node17" class="node">
<title>16</title>
<g id="a_node17"><a xlink:href="office manager.svg" xlink:title="office manager">
<ellipse fill="none" stroke="black" cx="1280.04" cy="-18" rx="64.19" ry="18"/>
<text text-anchor="middle" x="1280.04" y="-14.3" font-family="Times New Roman,serif" font-size="14.00">office manager</text>
</a>
</g>
</g>
<!-- 1&#45;&gt;16 -->
<g id="edge18" class="edge">
<title>1&#45;&gt;16</title>
<path fill="none" stroke="black" d="M833.85,-98.52C890.33,-92.62 980.07,-82.27 1057.04,-69 1124.31,-57.41 1140.47,-51.07 1207.04,-36 1212.07,-34.86 1217.29,-33.67 1222.52,-32.47"/>
<polygon fill="black" stroke="black" points="1223.59,-35.81 1232.55,-30.15 1222.02,-28.99 1223.59,-35.81"/>
<text text-anchor="middle" x="1144.54" y="-57.8" font-family="Times New Roman,serif" font-size="14.00">0.071</text>
</g>
<!-- 17 -->
<g id="node18" class="node">
<title>17</title>
<g id="a_node18"><a xlink:href="personal assistant.svg" xlink:title="personal assistant">
<ellipse fill="none" stroke="black" cx="1437.04" cy="-18" rx="74.99" ry="18"/>
<text text-anchor="middle" x="1437.04" y="-14.3" font-family="Times New Roman,serif" font-size="14.00">personal assistant</text>
</a>
</g>
</g>
<!-- 1&#45;&gt;17 -->
<g id="edge19" class="edge">
<title>1&#45;&gt;17</title>
<path fill="none" stroke="black" d="M835.76,-100.26C911.36,-95.01 1047.97,-84.37 1164.04,-69 1248.58,-57.81 1269.25,-51.79 1353.04,-36 1359.18,-34.84 1365.57,-33.61 1371.96,-32.35"/>
<polygon fill="black" stroke="black" points="1372.83,-35.75 1381.96,-30.37 1371.47,-28.88 1372.83,-35.75"/>
<text text-anchor="middle" x="1273.54" y="-57.8" font-family="Times New Roman,serif" font-size="14.00">0.071</text>
</g>
<!-- 18 -->
<g id="node19" class="node">
<title>18</title>
<g id="a_node19"><a xlink:href="pharmacovigilance officer.svg" xlink:title="pharmacovigilance officer">
<ellipse fill="none" stroke="black" cx="1634.04" cy="-18" rx="104.78" ry="18"/>
<text text-anchor="middle" x="1634.04" y="-14.3" font-family="Times New Roman,serif" font-size="14.00">pharmacovigilance officer</text>
</a>
</g>
</g>
<!-- 1&#45;&gt;18 -->
<g id="edge20" class="edge">
<title>1&#45;&gt;18</title>
<path fill="none" stroke="black" d="M836.87,-101.46C932.65,-96.99 1128.18,-86.51 1293.04,-69 1394.86,-58.19 1419.75,-50.95 1521.04,-36 1529.91,-34.69 1539.16,-33.32 1548.39,-31.94"/>
<polygon fill="black" stroke="black" points="1549,-35.38 1558.38,-30.44 1547.97,-28.46 1549,-35.38"/>
<text text-anchor="middle" x="1422.54" y="-57.8" font-family="Times New Roman,serif" font-size="14.00">0.071</text>
</g>
<!-- 2 -->
<g id="node3" class="node">
<title>2</title>
<g id="a_node3"><a xlink:href="biomedical scientist.svg" xlink:title="biomedical scientist">
<ellipse fill="none" stroke="black" cx="298.04" cy="-192" rx="81.79" ry="18"/>
<text text-anchor="middle" x="298.04" y="-188.3" font-family="Times New Roman,serif" font-size="14.00">biomedical scientist</text>
</a>
</g>
</g>
<!-- 2&#45;&gt;1 -->
<g id="edge2" class="edge">
<title>2&#45;&gt;1</title>
<path fill="none" stroke="black" d="M358.23,-179.65C368.51,-177.75 379.08,-175.8 389.04,-174 505.1,-153.02 640.84,-129.53 717.4,-116.38"/>
<polygon fill="black" stroke="black" points="718.08,-119.81 727.34,-114.67 716.9,-112.91 718.08,-119.81"/>
<text text-anchor="middle" x="586.54" y="-144.8" font-family="Times New Roman,serif" font-size="14.00">0.076</text>
</g>
<!-- 3 -->
<g id="node4" class="node">
<title>3</title>
<g id="a_node4"><a xlink:href="broadcasting presenter.svg" xlink:title="broadcasting presenter">
<ellipse fill="none" stroke="black" cx="491.04" cy="-192" rx="92.88" ry="18"/>
<text text-anchor="middle" x="491.04" y="-188.3" font-family="Times New Roman,serif" font-size="14.00">broadcasting presenter</text>
</a>
</g>
</g>
<!-- 3&#45;&gt;1 -->
<g id="edge3" class="edge">
<title>3&#45;&gt;1</title>
<path fill="none" stroke="black" d="M539.73,-176.58C591.86,-161.14 674.22,-136.75 727.18,-121.06"/>
<polygon fill="black" stroke="black" points="728.44,-124.34 737.03,-118.15 726.45,-117.63 728.44,-124.34"/>
<text text-anchor="middle" x="667.54" y="-144.8" font-family="Times New Roman,serif" font-size="14.00">0.076</text>
</g>
<!-- 4 -->
<g id="node5" class="node">
<title>4</title>
<g id="a_node5"><a xlink:href="clinical biochemist.svg" xlink:title="clinical biochemist">
<ellipse fill="none" stroke="black" cx="679.04" cy="-192" rx="77.19" ry="18"/>
<text text-anchor="middle" x="679.04" y="-188.3" font-family="Times New Roman,serif" font-size="14.00">clinical biochemist</text>
</a>
</g>
</g>
<!-- 4&#45;&gt;1 -->
<g id="edge4" class="edge">
<title>4&#45;&gt;1</title>
<path fill="none" stroke="black" d="M698.6,-174.21C713.71,-161.23 734.78,-143.14 751.43,-128.85"/>
<polygon fill="black" stroke="black" points="753.89,-131.35 759.2,-122.18 749.33,-126.04 753.89,-131.35"/>
<text text-anchor="middle" x="750.54" y="-144.8" font-family="Times New Roman,serif" font-size="14.00">0.076</text>
</g>
<!-- 5 -->
<g id="node6" class="node">
<title>5</title>
<g id="a_node6"><a xlink:href="clinical research associate.svg" xlink:title="clinical research associate">
<ellipse fill="none" stroke="black" cx="878.04" cy="-192" rx="103.98" ry="18"/>
<text text-anchor="middle" x="878.04" y="-188.3" font-family="Times New Roman,serif" font-size="14.00">clinical research associate</text>
</a>
</g>
</g>
<!-- 5&#45;&gt;1 -->
<g id="edge5" class="edge">
<title>5&#45;&gt;1</title>
<path fill="none" stroke="black" d="M858.29,-174.21C843.02,-161.23 821.74,-143.14 804.93,-128.85"/>
<polygon fill="black" stroke="black" points="806.97,-125.99 797.08,-122.18 802.43,-131.32 806.97,-125.99"/>
<text text-anchor="middle" x="849.54" y="-144.8" font-family="Times New Roman,serif" font-size="14.00">0.076</text>
</g>
<!-- 6&#45;&gt;1 -->
<g id="edge6" class="edge">
<title>6&#45;&gt;1</title>
<path fill="none" stroke="black" d="M154.13,-30.38C165.11,-32.27 176.4,-34.2 187.04,-36 276.31,-51.07 298.23,-57.61 388.04,-69 500.67,-83.28 632.32,-93.82 710.25,-99.43"/>
<polygon fill="black" stroke="black" points="710.19,-102.93 720.41,-100.15 710.68,-95.95 710.19,-102.93"/>
<text text-anchor="middle" x="403.54" y="-57.8" font-family="Times New Roman,serif" font-size="14.00">0.076</text>
</g>
<!-- 7 -->
<g id="node8" class="node">
<title>7</title>
<g id="a_node8"><a xlink:href="dietitian.svg" xlink:title="dietitian">
<ellipse fill="none" stroke="black" cx="1038.04" cy="-192" rx="38.19" ry="18"/>
<text text-anchor="middle" x="1038.04" y="-188.3" font-family="Times New Roman,serif" font-size="14.00">dietitian</text>
</a>
</g>
</g>
<!-- 7&#45;&gt;1 -->
<g id="edge7" class="edge">
<title>7&#45;&gt;1</title>
<path fill="none" stroke="black" d="M1008.77,-180.22C1002.91,-178.11 996.79,-175.96 991.04,-174 935.47,-155.09 871.23,-134.79 827.95,-121.34"/>
<polygon fill="black" stroke="black" points="828.82,-117.95 818.23,-118.33 826.75,-124.64 828.82,-117.95"/>
<text text-anchor="middle" x="947.54" y="-144.8" font-family="Times New Roman,serif" font-size="14.00">0.076</text>
</g>
<!-- 8&#45;&gt;1 -->
<g id="edge8" class="edge">
<title>8&#45;&gt;1</title>
<path fill="none" stroke="black" d="M379.49,-31.92C472.06,-48.66 631.8,-77.55 718.27,-93.19"/>
<polygon fill="black" stroke="black" points="717.73,-96.65 728.19,-94.98 718.97,-89.76 717.73,-96.65"/>
<text text-anchor="middle" x="587.54" y="-57.8" font-family="Times New Roman,serif" font-size="14.00">0.076</text>
</g>
<!-- 9 -->
<g id="node10" class="node">
<title>9</title>
<g id="a_node10"><a xlink:href="hydrologist.svg" xlink:title="hydrologist">
<ellipse fill="none" stroke="black" cx="1146.04" cy="-192" rx="51.99" ry="18"/>
<text text-anchor="middle" x="1146.04" y="-188.3" font-family="Times New Roman,serif" font-size="14.00">hydrologist</text>
</a>
</g>
</g>
<!-- 9&#45;&gt;1 -->
<g id="edge9" class="edge">
<title>9&#45;&gt;1</title>
<path fill="none" stroke="black" d="M1108.58,-179.48C1072.54,-168.65 1016.39,-152.44 967.04,-141 924.85,-131.22 876.85,-122.36 839.79,-116"/>
<polygon fill="black" stroke="black" points="840.08,-112.5 829.64,-114.28 838.91,-119.4 840.08,-112.5"/>
<text text-anchor="middle" x="1036.54" y="-144.8" font-family="Times New Roman,serif" font-size="14.00">0.076</text>
</g>
<!-- 10 -->
<g id="node11" class="node">
<title>10</title>
<g id="a_node11"><a xlink:href="laboratory technician.svg" xlink:title="laboratory technician">
<ellipse fill="none" stroke="black" cx="1302.04" cy="-192" rx="86.38" ry="18"/>
<text text-anchor="middle" x="1302.04" y="-188.3" font-family="Times New Roman,serif" font-size="14.00">laboratory technician</text>
</a>
</g>
</g>
<!-- 10&#45;&gt;1 -->
<g id="edge10" class="edge">
<title>10&#45;&gt;1</title>
<path fill="none" stroke="black" d="M1245.59,-178.27C1195.88,-167.35 1121.41,-151.74 1056.04,-141 983.74,-129.12 900.28,-119.1 843.82,-112.87"/>
<polygon fill="black" stroke="black" points="843.92,-109.36 833.6,-111.75 843.16,-116.32 843.92,-109.36"/>
<text text-anchor="middle" x="1152.54" y="-144.8" font-family="Times New Roman,serif" font-size="14.00">0.076</text>
</g>
</g>
</svg>
