<?xml version="1.0" encoding="UTF-8" standalone="no"?>
<!DOCTYPE svg PUBLIC "-//W3C//DTD SVG 1.1//EN"
 "http://www.w3.org/Graphics/SVG/1.1/DTD/svg11.dtd">
<!-- Generated by graphviz version 2.44.1 (20200629.0800)
 -->
<!-- Title: test Pages: 1 -->
<svg width="346pt" height="131pt"
 viewBox="0.00 0.00 345.89 131.00" xmlns="http://www.w3.org/2000/svg" xmlns:xlink="http://www.w3.org/1999/xlink">
<g id="graph0" class="graph" transform="scale(1 1) rotate(0) translate(4 127)">
<title>test</title>
<polygon fill="white" stroke="transparent" points="-4,4 -4,-127 341.89,-127 341.89,4 -4,4"/>
<!-- 0 -->
<g id="node1" class="node">
<title>0</title>
<g id="a_node1"><a xlink:href="from_psychotherapist.svg" xlink:title="psychotherapist">
<ellipse fill="none" stroke="black" cx="177.39" cy="-105" rx="68.49" ry="18"/>
<text text-anchor="middle" x="177.39" y="-101.3" font-family="Times New Roman,serif" font-size="14.00">psychotherapist</text>
</a>
</g>
</g>
<!-- 1 -->
<g id="node2" class="node">
<title>1</title>
<g id="a_node2"><a xlink:href="from_child psychotherapist.svg" xlink:title="child psychotherapist">
<ellipse fill="none" stroke="black" cx="88.39" cy="-18" rx="88.28" ry="18"/>
<text text-anchor="middle" x="88.39" y="-14.3" font-family="Times New Roman,serif" font-size="14.00">child psychotherapist</text>
</a>
</g>
</g>
<!-- 0&#45;&gt;1 -->
<g id="edge1" class="edge">
<title>0&#45;&gt;1</title>
<path fill="none" stroke="black" d="M159.81,-87.21C146.52,-74.52 128.11,-56.93 113.3,-42.79"/>
<polygon fill="black" stroke="black" points="115.59,-40.13 105.94,-35.76 110.75,-45.2 115.59,-40.13"/>
<text text-anchor="middle" x="147.39" y="-57.8" font-family="Times New Roman,serif" font-size="14.00">0.5</text>
</g>
<!-- 2 -->
<g id="node3" class="node">
<title>2</title>
<g id="a_node3"><a xlink:href="from_heritage manager.svg" xlink:title="heritage manager">
<ellipse fill="none" stroke="black" cx="266.39" cy="-18" rx="71.49" ry="18"/>
<text text-anchor="middle" x="266.39" y="-14.3" font-family="Times New Roman,serif" font-size="14.00">heritage manager</text>
</a>
</g>
</g>
<!-- 0&#45;&gt;2 -->
<g id="edge2" class="edge">
<title>0&#45;&gt;2</title>
<path fill="none" stroke="black" d="M194.98,-87.21C208.35,-74.43 226.92,-56.7 241.77,-42.52"/>
<polygon fill="black" stroke="black" points="244.33,-44.91 249.15,-35.47 239.5,-39.84 244.33,-44.91"/>
<text text-anchor="middle" x="235.39" y="-57.8" font-family="Times New Roman,serif" font-size="14.00">0.5</text>
</g>
</g>
</svg>
