<?xml version="1.0" encoding="UTF-8" standalone="no"?>
<!DOCTYPE svg PUBLIC "-//W3C//DTD SVG 1.1//EN"
 "http://www.w3.org/Graphics/SVG/1.1/DTD/svg11.dtd">
<!-- Generated by graphviz version 2.44.1 (20200629.0800)
 -->
<!-- Title: test Pages: 1 -->
<svg width="1457pt" height="131pt"
 viewBox="0.00 0.00 1457.48 131.00" xmlns="http://www.w3.org/2000/svg" xmlns:xlink="http://www.w3.org/1999/xlink">
<g id="graph0" class="graph" transform="scale(1 1) rotate(0) translate(4 127)">
<title>test</title>
<polygon fill="white" stroke="transparent" points="-4,4 -4,-127 1453.48,-127 1453.48,4 -4,4"/>
<!-- 0 -->
<g id="node1" class="node">
<title>0</title>
<g id="a_node1"><a xlink:href="from_journalist.svg" xlink:title="journalist">
<ellipse fill="none" stroke="black" cx="814.04" cy="-105" rx="43.59" ry="18"/>
<text text-anchor="middle" x="814.04" y="-101.3" font-family="Times New Roman,serif" font-size="14.00">journalist</text>
</a>
</g>
</g>
<!-- 0&#45;&gt;0 -->
<g id="edge1" class="edge">
<title>0&#45;&gt;0</title>
<path fill="none" stroke="black" d="M853.41,-112.87C865.81,-112.75 875.59,-110.13 875.59,-105 875.59,-101.4 870.75,-99.03 863.57,-97.9"/>
<polygon fill="black" stroke="black" points="863.64,-94.39 853.41,-97.13 863.11,-101.37 863.64,-94.39"/>
<text text-anchor="middle" x="891.09" y="-101.3" font-family="Times New Roman,serif" font-size="14.00">0.469</text>
</g>
<!-- 1 -->
<g id="node2" class="node">
<title>1</title>
<g id="a_node2"><a xlink:href="from_commissioning editor.svg" xlink:title="commissioning editor">
<ellipse fill="none" stroke="black" cx="89.04" cy="-18" rx="89.08" ry="18"/>
<text text-anchor="middle" x="89.04" y="-14.3" font-family="Times New Roman,serif" font-size="14.00">commissioning editor</text>
</a>
</g>
</g>
<!-- 0&#45;&gt;1 -->
<g id="edge2" class="edge">
<title>0&#45;&gt;1</title>
<path fill="none" stroke="black" d="M771.58,-100.6C701.73,-94.88 558.21,-82.62 437.04,-69 325.67,-56.48 297.83,-52.91 187.04,-36 179.36,-34.83 171.35,-33.54 163.37,-32.22"/>
<polygon fill="black" stroke="black" points="163.74,-28.73 153.29,-30.53 162.58,-35.64 163.74,-28.73"/>
<text text-anchor="middle" x="452.54" y="-57.8" font-family="Times New Roman,serif" font-size="14.00">0.160</text>
</g>
<!-- 2 -->
<g id="node3" class="node">
<title>2</title>
<g id="a_node3"><a xlink:href="from_production manager.svg" xlink:title="production manager">
<ellipse fill="none" stroke="black" cx="279.04" cy="-18" rx="83.39" ry="18"/>
<text text-anchor="middle" x="279.04" y="-14.3" font-family="Times New Roman,serif" font-size="14.00">production manager</text>
</a>
</g>
</g>
<!-- 0&#45;&gt;2 -->
<g id="edge3" class="edge">
<title>0&#45;&gt;2</title>
<path fill="none" stroke="black" d="M773.06,-98.81C722.8,-92.35 635.03,-80.71 560.04,-69 475.79,-55.84 454.97,-51.08 371.04,-36 364.28,-34.78 357.23,-33.51 350.19,-32.22"/>
<polygon fill="black" stroke="black" points="350.36,-28.69 339.9,-30.33 349.1,-35.58 350.36,-28.69"/>
<text text-anchor="middle" x="575.54" y="-57.8" font-family="Times New Roman,serif" font-size="14.00">0.086</text>
</g>
<!-- 3 -->
<g id="node4" class="node">
<title>3</title>
<g id="a_node4"><a xlink:href="from_media planner.svg" xlink:title="media planner">
<ellipse fill="none" stroke="black" cx="441.04" cy="-18" rx="61.19" ry="18"/>
<text text-anchor="middle" x="441.04" y="-14.3" font-family="Times New Roman,serif" font-size="14.00">media planner</text>
</a>
</g>
</g>
<!-- 0&#45;&gt;3 -->
<g id="edge4" class="edge">
<title>0&#45;&gt;3</title>
<path fill="none" stroke="black" d="M776.2,-95.73C718.81,-83.14 606.33,-58.26 511.04,-36 506.34,-34.9 501.47,-33.75 496.58,-32.58"/>
<polygon fill="black" stroke="black" points="497.12,-29.11 486.58,-30.18 495.48,-35.92 497.12,-29.11"/>
<text text-anchor="middle" x="667.54" y="-57.8" font-family="Times New Roman,serif" font-size="14.00">0.061</text>
</g>
<!-- 4 -->
<g id="node5" class="node">
<title>4</title>
<g id="a_node5"><a xlink:href="from_broadcasting presenter.svg" xlink:title="broadcasting presenter">
<ellipse fill="none" stroke="black" cx="613.04" cy="-18" rx="92.88" ry="18"/>
<text text-anchor="middle" x="613.04" y="-14.3" font-family="Times New Roman,serif" font-size="14.00">broadcasting presenter</text>
</a>
</g>
</g>
<!-- 0&#45;&gt;4 -->
<g id="edge5" class="edge">
<title>0&#45;&gt;4</title>
<path fill="none" stroke="black" d="M784.81,-91.64C751.89,-77.72 697.95,-54.9 659.29,-38.56"/>
<polygon fill="black" stroke="black" points="660.39,-35.22 649.81,-34.55 657.66,-41.67 660.39,-35.22"/>
<text text-anchor="middle" x="741.54" y="-57.8" font-family="Times New Roman,serif" font-size="14.00">0.037</text>
</g>
<!-- 5 -->
<g id="node6" class="node">
<title>5</title>
<g id="a_node6"><a xlink:href="from_public house manager.svg" xlink:title="public house manager">
<ellipse fill="none" stroke="black" cx="814.04" cy="-18" rx="89.88" ry="18"/>
<text text-anchor="middle" x="814.04" y="-14.3" font-family="Times New Roman,serif" font-size="14.00">public house manager</text>
</a>
</g>
</g>
<!-- 0&#45;&gt;5 -->
<g id="edge6" class="edge">
<title>0&#45;&gt;5</title>
<path fill="none" stroke="black" d="M814.04,-86.8C814.04,-75.16 814.04,-59.55 814.04,-46.24"/>
<polygon fill="black" stroke="black" points="817.54,-46.18 814.04,-36.18 810.54,-46.18 817.54,-46.18"/>
<text text-anchor="middle" x="829.54" y="-57.8" font-family="Times New Roman,serif" font-size="14.00">0.037</text>
</g>
<!-- 6 -->
<g id="node7" class="node">
<title>6</title>
<g id="a_node7"><a xlink:href="from_secretary.svg" xlink:title="secretary">
<ellipse fill="none" stroke="black" cx="965.04" cy="-18" rx="43.59" ry="18"/>
<text text-anchor="middle" x="965.04" y="-14.3" font-family="Times New Roman,serif" font-size="14.00">secretary</text>
</a>
</g>
</g>
<!-- 0&#45;&gt;6 -->
<g id="edge7" class="edge">
<title>0&#45;&gt;6</title>
<path fill="none" stroke="black" d="M838.98,-89.96C864.19,-75.77 903.32,-53.74 931.3,-38"/>
<polygon fill="black" stroke="black" points="933.32,-40.87 940.32,-32.92 929.89,-34.77 933.32,-40.87"/>
<text text-anchor="middle" x="914.54" y="-57.8" font-family="Times New Roman,serif" font-size="14.00">0.037</text>
</g>
<!-- 7 -->
<g id="node8" class="node">
<title>7</title>
<g id="a_node8"><a xlink:href="from_writer.svg" xlink:title="writer">
<ellipse fill="none" stroke="black" cx="1058.04" cy="-18" rx="31.4" ry="18"/>
<text text-anchor="middle" x="1058.04" y="-14.3" font-family="Times New Roman,serif" font-size="14.00">writer</text>
</a>
</g>
</g>
<!-- 0&#45;&gt;7 -->
<g id="edge8" class="edge">
<title>0&#45;&gt;7</title>
<path fill="none" stroke="black" d="M849.75,-94.5C873.75,-87.89 906.01,-78.57 934.04,-69 972,-56.04 980.91,-51.18 1018.04,-36 1020.09,-35.16 1022.18,-34.3 1024.3,-33.42"/>
<polygon fill="black" stroke="black" points="1025.68,-36.63 1033.55,-29.54 1022.97,-30.18 1025.68,-36.63"/>
<text text-anchor="middle" x="989.54" y="-57.8" font-family="Times New Roman,serif" font-size="14.00">0.037</text>
</g>
<!-- 8 -->
<g id="node9" class="node">
<title>8</title>
<g id="a_node9"><a xlink:href="from_academic librarian.svg" xlink:title="academic librarian">
<ellipse fill="none" stroke="black" cx="1183.04" cy="-18" rx="76.09" ry="18"/>
<text text-anchor="middle" x="1183.04" y="-14.3" font-family="Times New Roman,serif" font-size="14.00">academic librarian</text>
</a>
</g>
</g>
<!-- 0&#45;&gt;8 -->
<g id="edge9" class="edge">
<title>0&#45;&gt;8</title>
<path fill="none" stroke="black" d="M854.25,-98.02C893.85,-91.83 955.95,-81.36 1009.04,-69 1049.86,-59.5 1095.36,-46.33 1129.59,-35.89"/>
<polygon fill="black" stroke="black" points="1130.85,-39.17 1139.39,-32.89 1128.8,-32.48 1130.85,-39.17"/>
<text text-anchor="middle" x="1082.54" y="-57.8" font-family="Times New Roman,serif" font-size="14.00">0.024</text>
</g>
<!-- 9 -->
<g id="node10" class="node">
<title>9</title>
<g id="a_node10"><a xlink:href="from_conference organiser.svg" xlink:title="conference organiser">
<ellipse fill="none" stroke="black" cx="1363.04" cy="-18" rx="86.38" ry="18"/>
<text text-anchor="middle" x="1363.04" y="-14.3" font-family="Times New Roman,serif" font-size="14.00">conference organiser</text>
</a>
</g>
</g>
<!-- 0&#45;&gt;9 -->
<g id="edge10" class="edge">
<title>0&#45;&gt;9</title>
<path fill="none" stroke="black" d="M856.14,-99.8C912.35,-93.97 1014.96,-82.62 1102.04,-69 1167.77,-58.72 1242.27,-44.16 1294.8,-33.4"/>
<polygon fill="black" stroke="black" points="1295.58,-36.81 1304.67,-31.37 1294.17,-29.95 1295.58,-36.81"/>
<text text-anchor="middle" x="1204.54" y="-57.8" font-family="Times New Roman,serif" font-size="14.00">0.024</text>
</g>
</g>
</svg>
