<?xml version="1.0" encoding="UTF-8" standalone="no"?>
<!DOCTYPE svg PUBLIC "-//W3C//DTD SVG 1.1//EN"
 "http://www.w3.org/Graphics/SVG/1.1/DTD/svg11.dtd">
<!-- Generated by graphviz version 2.44.1 (20200629.0800)
 -->
<!-- Title: test Pages: 1 -->
<svg width="1452pt" height="131pt"
 viewBox="0.00 0.00 1451.64 131.00" xmlns="http://www.w3.org/2000/svg" xmlns:xlink="http://www.w3.org/1999/xlink">
<g id="graph0" class="graph" transform="scale(1 1) rotate(0) translate(4 127)">
<title>test</title>
<polygon fill="white" stroke="transparent" points="-4,4 -4,-127 1447.64,-127 1447.64,4 -4,4"/>
<!-- 0 -->
<g id="node1" class="node">
<title>0</title>
<g id="a_node1"><a xlink:href="from_careers adviser.svg" xlink:title="careers adviser">
<ellipse fill="none" stroke="black" cx="786.6" cy="-105" rx="64.99" ry="18"/>
<text text-anchor="middle" x="786.6" y="-101.3" font-family="Times New Roman,serif" font-size="14.00">careers adviser</text>
</a>
</g>
</g>
<!-- 0&#45;&gt;0 -->
<g id="edge1" class="edge">
<title>0&#45;&gt;0</title>
<path fill="none" stroke="black" d="M845.53,-112.72C859.37,-112.08 869.59,-109.51 869.59,-105 869.59,-101.69 864.08,-99.42 855.67,-98.2"/>
<polygon fill="black" stroke="black" points="855.8,-94.69 845.53,-97.28 855.17,-101.67 855.8,-94.69"/>
<text text-anchor="middle" x="885.09" y="-101.3" font-family="Times New Roman,serif" font-size="14.00">0.211</text>
</g>
<!-- 1 -->
<g id="node2" class="node">
<title>1</title>
<g id="a_node2"><a xlink:href="from_it consultant.svg" xlink:title="it consultant">
<ellipse fill="none" stroke="black" cx="54.6" cy="-18" rx="54.69" ry="18"/>
<text text-anchor="middle" x="54.6" y="-14.3" font-family="Times New Roman,serif" font-size="14.00">it consultant</text>
</a>
</g>
</g>
<!-- 0&#45;&gt;1 -->
<g id="edge2" class="edge">
<title>0&#45;&gt;1</title>
<path fill="none" stroke="black" d="M722.93,-100.98C603.43,-94.55 337.73,-76.63 117.6,-36 112.96,-35.15 108.18,-34.12 103.41,-33"/>
<polygon fill="black" stroke="black" points="104.24,-29.6 93.69,-30.6 102.56,-36.4 104.24,-29.6"/>
<text text-anchor="middle" x="353.1" y="-57.8" font-family="Times New Roman,serif" font-size="14.00">0.096</text>
</g>
<!-- 2 -->
<g id="node3" class="node">
<title>2</title>
<g id="a_node3"><a xlink:href="from_pharmacovigilance officer.svg" xlink:title="pharmacovigilance officer">
<ellipse fill="none" stroke="black" cx="231.6" cy="-18" rx="104.78" ry="18"/>
<text text-anchor="middle" x="231.6" y="-14.3" font-family="Times New Roman,serif" font-size="14.00">pharmacovigilance officer</text>
</a>
</g>
</g>
<!-- 0&#45;&gt;2 -->
<g id="edge3" class="edge">
<title>0&#45;&gt;2</title>
<path fill="none" stroke="black" d="M731.09,-95.5C633.96,-80.62 432.53,-49.77 317.35,-32.13"/>
<polygon fill="black" stroke="black" points="317.58,-28.63 307.16,-30.57 316.52,-35.55 317.58,-28.63"/>
<text text-anchor="middle" x="558.1" y="-57.8" font-family="Times New Roman,serif" font-size="14.00">0.073</text>
</g>
<!-- 3 -->
<g id="node4" class="node">
<title>3</title>
<g id="a_node4"><a xlink:href="from_human resources officer.svg" xlink:title="human resources officer">
<ellipse fill="none" stroke="black" cx="452.6" cy="-18" rx="98.58" ry="18"/>
<text text-anchor="middle" x="452.6" y="-14.3" font-family="Times New Roman,serif" font-size="14.00">human resources officer</text>
</a>
</g>
</g>
<!-- 0&#45;&gt;3 -->
<g id="edge4" class="edge">
<title>0&#45;&gt;3</title>
<path fill="none" stroke="black" d="M740.5,-92.27C682.63,-77.54 583,-52.19 517.45,-35.51"/>
<polygon fill="black" stroke="black" points="518.19,-32.08 507.64,-33.01 516.47,-38.87 518.19,-32.08"/>
<text text-anchor="middle" x="655.1" y="-57.8" font-family="Times New Roman,serif" font-size="14.00">0.058</text>
</g>
<!-- 4 -->
<g id="node5" class="node">
<title>4</title>
<g id="a_node5"><a xlink:href="from_project manager.svg" xlink:title="project manager">
<ellipse fill="none" stroke="black" cx="638.6" cy="-18" rx="68.79" ry="18"/>
<text text-anchor="middle" x="638.6" y="-14.3" font-family="Times New Roman,serif" font-size="14.00">project manager</text>
</a>
</g>
</g>
<!-- 0&#45;&gt;4 -->
<g id="edge5" class="edge">
<title>0&#45;&gt;4</title>
<path fill="none" stroke="black" d="M759.45,-88.41C735.64,-74.73 700.83,-54.74 674.68,-39.72"/>
<polygon fill="black" stroke="black" points="676.23,-36.58 665.82,-34.64 672.75,-42.65 676.23,-36.58"/>
<text text-anchor="middle" x="737.1" y="-57.8" font-family="Times New Roman,serif" font-size="14.00">0.058</text>
</g>
<!-- 5 -->
<g id="node6" class="node">
<title>5</title>
<g id="a_node6"><a xlink:href="from_sales manager.svg" xlink:title="sales manager">
<ellipse fill="none" stroke="black" cx="786.6" cy="-18" rx="61.19" ry="18"/>
<text text-anchor="middle" x="786.6" y="-14.3" font-family="Times New Roman,serif" font-size="14.00">sales manager</text>
</a>
</g>
</g>
<!-- 0&#45;&gt;5 -->
<g id="edge6" class="edge">
<title>0&#45;&gt;5</title>
<path fill="none" stroke="black" d="M786.6,-86.8C786.6,-75.16 786.6,-59.55 786.6,-46.24"/>
<polygon fill="black" stroke="black" points="790.1,-46.18 786.6,-36.18 783.1,-46.18 790.1,-46.18"/>
<text text-anchor="middle" x="802.1" y="-57.8" font-family="Times New Roman,serif" font-size="14.00">0.023</text>
</g>
<!-- 6 -->
<g id="node7" class="node">
<title>6</title>
<g id="a_node7"><a xlink:href="from_heritage manager.svg" xlink:title="heritage manager">
<ellipse fill="none" stroke="black" cx="937.6" cy="-18" rx="71.49" ry="18"/>
<text text-anchor="middle" x="937.6" y="-14.3" font-family="Times New Roman,serif" font-size="14.00">heritage manager</text>
</a>
</g>
</g>
<!-- 0&#45;&gt;6 -->
<g id="edge7" class="edge">
<title>0&#45;&gt;6</title>
<path fill="none" stroke="black" d="M813.94,-88.61C838.3,-74.9 874.13,-54.72 900.96,-39.62"/>
<polygon fill="black" stroke="black" points="902.69,-42.67 909.69,-34.71 899.26,-36.57 902.69,-42.67"/>
<text text-anchor="middle" x="887.1" y="-57.8" font-family="Times New Roman,serif" font-size="14.00">0.020</text>
</g>
<!-- 7 -->
<g id="node8" class="node">
<title>7</title>
<g id="a_node8"><a xlink:href="from_investment analyst.svg" xlink:title="investment analyst">
<ellipse fill="none" stroke="black" cx="1103.6" cy="-18" rx="76.89" ry="18"/>
<text text-anchor="middle" x="1103.6" y="-14.3" font-family="Times New Roman,serif" font-size="14.00">investment analyst</text>
</a>
</g>
</g>
<!-- 0&#45;&gt;7 -->
<g id="edge8" class="edge">
<title>0&#45;&gt;7</title>
<path fill="none" stroke="black" d="M831.68,-91.91C887.7,-76.89 983.43,-51.22 1045.07,-34.69"/>
<polygon fill="black" stroke="black" points="1046.28,-37.99 1055.03,-32.02 1044.47,-31.23 1046.28,-37.99"/>
<text text-anchor="middle" x="980.1" y="-57.8" font-family="Times New Roman,serif" font-size="14.00">0.020</text>
</g>
<!-- 8 -->
<g id="node9" class="node">
<title>8</title>
<g id="a_node9"><a xlink:href="from_lecturer.svg" xlink:title="lecturer">
<ellipse fill="none" stroke="black" cx="1235.6" cy="-18" rx="37.89" ry="18"/>
<text text-anchor="middle" x="1235.6" y="-14.3" font-family="Times New Roman,serif" font-size="14.00">lecturer</text>
</a>
</g>
</g>
<!-- 0&#45;&gt;8 -->
<g id="edge9" class="edge">
<title>0&#45;&gt;8</title>
<path fill="none" stroke="black" d="M846.09,-97.58C925.4,-88.2 1069.69,-68.28 1189.6,-36 1192.37,-35.25 1195.21,-34.41 1198.06,-33.5"/>
<polygon fill="black" stroke="black" points="1199.29,-36.78 1207.64,-30.25 1197.04,-30.15 1199.29,-36.78"/>
<text text-anchor="middle" x="1130.1" y="-57.8" font-family="Times New Roman,serif" font-size="14.00">0.020</text>
</g>
<!-- 9 -->
<g id="node10" class="node">
<title>9</title>
<g id="a_node10"><a xlink:href="from_academic librarian.svg" xlink:title="academic librarian">
<ellipse fill="none" stroke="black" cx="1367.6" cy="-18" rx="76.09" ry="18"/>
<text text-anchor="middle" x="1367.6" y="-14.3" font-family="Times New Roman,serif" font-size="14.00">academic librarian</text>
</a>
</g>
</g>
<!-- 0&#45;&gt;9 -->
<g id="edge10" class="edge">
<title>0&#45;&gt;9</title>
<path fill="none" stroke="black" d="M849.54,-100.41C922.18,-95.69 1045.07,-85.95 1149.6,-69 1204.18,-60.15 1265.49,-45.67 1309.16,-34.57"/>
<polygon fill="black" stroke="black" points="1310.21,-37.91 1319.03,-32.04 1308.48,-31.13 1310.21,-37.91"/>
<text text-anchor="middle" x="1238.1" y="-57.8" font-family="Times New Roman,serif" font-size="14.00">0.017</text>
</g>
</g>
</svg>
