<?xml version="1.0" encoding="UTF-8" standalone="no"?>
<!DOCTYPE svg PUBLIC "-//W3C//DTD SVG 1.1//EN"
 "http://www.w3.org/Graphics/SVG/1.1/DTD/svg11.dtd">
<!-- Generated by graphviz version 2.44.1 (20200629.0800)
 -->
<!-- Title: test Pages: 1 -->
<svg width="1490pt" height="131pt"
 viewBox="0.00 0.00 1490.24 131.00" xmlns="http://www.w3.org/2000/svg" xmlns:xlink="http://www.w3.org/1999/xlink">
<g id="graph0" class="graph" transform="scale(1 1) rotate(0) translate(4 127)">
<title>test</title>
<polygon fill="white" stroke="transparent" points="-4,4 -4,-127 1486.24,-127 1486.24,4 -4,4"/>
<!-- 0 -->
<g id="node1" class="node">
<title>0</title>
<g id="a_node1"><a xlink:href="from_geographical information systems manager.svg" xlink:title="geographical information systems manager">
<ellipse fill="none" stroke="black" cx="722.89" cy="-105" rx="165.17" ry="18"/>
<text text-anchor="middle" x="722.89" y="-101.3" font-family="Times New Roman,serif" font-size="14.00">geographical information systems manager</text>
</a>
</g>
</g>
<!-- 0&#45;&gt;0 -->
<g id="edge2" class="edge">
<title>0&#45;&gt;0</title>
<path fill="none" stroke="black" d="M876.15,-111.74C894.21,-110.51 905.98,-108.26 905.98,-105 905.98,-102.4 898.5,-100.45 886.33,-99.13"/>
<polygon fill="black" stroke="black" points="886.41,-95.63 876.15,-98.26 885.81,-102.6 886.41,-95.63"/>
<text text-anchor="middle" x="921.48" y="-101.3" font-family="Times New Roman,serif" font-size="14.00">0.068</text>
</g>
<!-- 1 -->
<g id="node2" class="node">
<title>1</title>
<g id="a_node2"><a xlink:href="from_project manager.svg" xlink:title="project manager">
<ellipse fill="none" stroke="black" cx="68.89" cy="-18" rx="68.79" ry="18"/>
<text text-anchor="middle" x="68.89" y="-14.3" font-family="Times New Roman,serif" font-size="14.00">project manager</text>
</a>
</g>
</g>
<!-- 0&#45;&gt;1 -->
<g id="edge1" class="edge">
<title>0&#45;&gt;1</title>
<path fill="none" stroke="black" d="M589.58,-94.32C516.08,-88.35 423.27,-79.76 340.89,-69 254.17,-57.67 232.76,-52.65 146.89,-36 141.14,-34.88 135.16,-33.67 129.19,-32.43"/>
<polygon fill="black" stroke="black" points="129.68,-28.96 119.17,-30.32 128.23,-35.81 129.68,-28.96"/>
<text text-anchor="middle" x="356.39" y="-57.8" font-family="Times New Roman,serif" font-size="14.00">0.089</text>
</g>
<!-- 2 -->
<g id="node3" class="node">
<title>2</title>
<g id="a_node3"><a xlink:href="from_sales manager.svg" xlink:title="sales manager">
<ellipse fill="none" stroke="black" cx="216.89" cy="-18" rx="61.19" ry="18"/>
<text text-anchor="middle" x="216.89" y="-14.3" font-family="Times New Roman,serif" font-size="14.00">sales manager</text>
</a>
</g>
</g>
<!-- 0&#45;&gt;2 -->
<g id="edge3" class="edge">
<title>0&#45;&gt;2</title>
<path fill="none" stroke="black" d="M618.12,-91.05C570.91,-84.91 514.52,-77.13 463.89,-69 384.89,-56.3 365.14,-52.78 286.89,-36 281.98,-34.95 276.88,-33.8 271.77,-32.62"/>
<polygon fill="black" stroke="black" points="272.53,-29.21 262,-30.33 270.93,-36.02 272.53,-29.21"/>
<text text-anchor="middle" x="479.39" y="-57.8" font-family="Times New Roman,serif" font-size="14.00">0.059</text>
</g>
<!-- 3 -->
<g id="node4" class="node">
<title>3</title>
<g id="a_node4"><a xlink:href="from_it consultant.svg" xlink:title="it consultant">
<ellipse fill="none" stroke="black" cx="350.89" cy="-18" rx="54.69" ry="18"/>
<text text-anchor="middle" x="350.89" y="-14.3" font-family="Times New Roman,serif" font-size="14.00">it consultant</text>
</a>
</g>
</g>
<!-- 0&#45;&gt;3 -->
<g id="edge4" class="edge">
<title>0&#45;&gt;3</title>
<path fill="none" stroke="black" d="M649.31,-88.82C586.56,-75.64 494.06,-55.63 413.89,-36 409.75,-34.98 405.46,-33.9 401.15,-32.79"/>
<polygon fill="black" stroke="black" points="401.71,-29.32 391.15,-30.16 399.94,-36.09 401.71,-29.32"/>
<text text-anchor="middle" x="565.39" y="-57.8" font-family="Times New Roman,serif" font-size="14.00">0.055</text>
</g>
<!-- 4 -->
<g id="node5" class="node">
<title>4</title>
<g id="a_node5"><a xlink:href="from_pharmacovigilance officer.svg" xlink:title="pharmacovigilance officer">
<ellipse fill="none" stroke="black" cx="527.89" cy="-18" rx="104.78" ry="18"/>
<text text-anchor="middle" x="527.89" y="-14.3" font-family="Times New Roman,serif" font-size="14.00">pharmacovigilance officer</text>
</a>
</g>
</g>
<!-- 0&#45;&gt;4 -->
<g id="edge5" class="edge">
<title>0&#45;&gt;4</title>
<path fill="none" stroke="black" d="M684.83,-87.41C653.02,-73.54 607.56,-53.73 573.74,-38.99"/>
<polygon fill="black" stroke="black" points="575.1,-35.76 564.54,-34.97 572.31,-42.18 575.1,-35.76"/>
<text text-anchor="middle" x="653.39" y="-57.8" font-family="Times New Roman,serif" font-size="14.00">0.055</text>
</g>
<!-- 5 -->
<g id="node6" class="node">
<title>5</title>
<g id="a_node6"><a xlink:href="from_facilities manager.svg" xlink:title="facilities manager">
<ellipse fill="none" stroke="black" cx="722.89" cy="-18" rx="72.59" ry="18"/>
<text text-anchor="middle" x="722.89" y="-14.3" font-family="Times New Roman,serif" font-size="14.00">facilities manager</text>
</a>
</g>
</g>
<!-- 0&#45;&gt;5 -->
<g id="edge6" class="edge">
<title>0&#45;&gt;5</title>
<path fill="none" stroke="black" d="M722.89,-86.8C722.89,-75.16 722.89,-59.55 722.89,-46.24"/>
<polygon fill="black" stroke="black" points="726.39,-46.18 722.89,-36.18 719.39,-46.18 726.39,-46.18"/>
<text text-anchor="middle" x="738.39" y="-57.8" font-family="Times New Roman,serif" font-size="14.00">0.029</text>
</g>
<!-- 6 -->
<g id="node7" class="node">
<title>6</title>
<g id="a_node7"><a xlink:href="from_heritage manager.svg" xlink:title="heritage manager">
<ellipse fill="none" stroke="black" cx="884.89" cy="-18" rx="71.49" ry="18"/>
<text text-anchor="middle" x="884.89" y="-14.3" font-family="Times New Roman,serif" font-size="14.00">heritage manager</text>
</a>
</g>
</g>
<!-- 0&#45;&gt;6 -->
<g id="edge7" class="edge">
<title>0&#45;&gt;6</title>
<path fill="none" stroke="black" d="M754.9,-87.21C781.16,-73.43 818.43,-53.87 846.33,-39.23"/>
<polygon fill="black" stroke="black" points="848.18,-42.22 855.41,-34.47 844.93,-36.02 848.18,-42.22"/>
<text text-anchor="middle" x="829.39" y="-57.8" font-family="Times New Roman,serif" font-size="14.00">0.029</text>
</g>
<!-- 7 -->
<g id="node8" class="node">
<title>7</title>
<g id="a_node8"><a xlink:href="from_marketing executive.svg" xlink:title="marketing executive">
<ellipse fill="none" stroke="black" cx="1055.89" cy="-18" rx="81.79" ry="18"/>
<text text-anchor="middle" x="1055.89" y="-14.3" font-family="Times New Roman,serif" font-size="14.00">marketing executive</text>
</a>
</g>
</g>
<!-- 0&#45;&gt;7 -->
<g id="edge8" class="edge">
<title>0&#45;&gt;7</title>
<path fill="none" stroke="black" d="M784.75,-88.21C844.67,-72.92 934.99,-49.86 994.69,-34.62"/>
<polygon fill="black" stroke="black" points="995.91,-37.92 1004.73,-32.06 994.18,-31.14 995.91,-37.92"/>
<text text-anchor="middle" x="925.39" y="-57.8" font-family="Times New Roman,serif" font-size="14.00">0.025</text>
</g>
<!-- 8 -->
<g id="node9" class="node">
<title>8</title>
<g id="a_node9"><a xlink:href="from_network administrator.svg" xlink:title="network administrator">
<ellipse fill="none" stroke="black" cx="1245.89" cy="-18" rx="89.88" ry="18"/>
<text text-anchor="middle" x="1245.89" y="-14.3" font-family="Times New Roman,serif" font-size="14.00">network administrator</text>
</a>
</g>
</g>
<!-- 0&#45;&gt;8 -->
<g id="edge9" class="edge">
<title>0&#45;&gt;8</title>
<path fill="none" stroke="black" d="M813.1,-89.89C853.43,-83.56 901.55,-75.96 944.89,-69 1034.71,-54.58 1057.18,-51.03 1146.89,-36 1154.51,-34.72 1162.46,-33.38 1170.39,-32.03"/>
<polygon fill="black" stroke="black" points="1171.14,-35.45 1180.41,-30.32 1169.96,-28.55 1171.14,-35.45"/>
<text text-anchor="middle" x="1051.39" y="-57.8" font-family="Times New Roman,serif" font-size="14.00">0.025</text>
</g>
<!-- 9 -->
<g id="node10" class="node">
<title>9</title>
<g id="a_node10"><a xlink:href="from_sales executive.svg" xlink:title="sales executive">
<ellipse fill="none" stroke="black" cx="1417.89" cy="-18" rx="64.19" ry="18"/>
<text text-anchor="middle" x="1417.89" y="-14.3" font-family="Times New Roman,serif" font-size="14.00">sales executive</text>
</a>
</g>
</g>
<!-- 0&#45;&gt;9 -->
<g id="edge10" class="edge">
<title>0&#45;&gt;9</title>
<path fill="none" stroke="black" d="M856.77,-94.46C983.22,-84.24 1177.87,-65.42 1344.89,-36 1350.34,-35.04 1355.99,-33.93 1361.63,-32.75"/>
<polygon fill="black" stroke="black" points="1362.68,-36.1 1371.71,-30.56 1361.19,-29.26 1362.68,-36.1"/>
<text text-anchor="middle" x="1242.39" y="-57.8" font-family="Times New Roman,serif" font-size="14.00">0.025</text>
</g>
</g>
</svg>
