<?xml version="1.0" encoding="UTF-8" standalone="no"?>
<!DOCTYPE svg PUBLIC "-//W3C//DTD SVG 1.1//EN"
 "http://www.w3.org/Graphics/SVG/1.1/DTD/svg11.dtd">
<!-- Generated by graphviz version 2.44.1 (20200629.0800)
 -->
<!-- Title: test Pages: 1 -->
<svg width="1513pt" height="131pt"
 viewBox="0.00 0.00 1513.49 131.00" xmlns="http://www.w3.org/2000/svg" xmlns:xlink="http://www.w3.org/1999/xlink">
<g id="graph0" class="graph" transform="scale(1 1) rotate(0) translate(4 127)">
<title>test</title>
<polygon fill="white" stroke="transparent" points="-4,4 -4,-127 1509.49,-127 1509.49,4 -4,4"/>
<!-- 0 -->
<g id="node1" class="node">
<title>0</title>
<g id="a_node1"><a xlink:href="from_manufacturing engineer.svg" xlink:title="manufacturing engineer">
<ellipse fill="none" stroke="black" cx="699.69" cy="-105" rx="94.48" ry="18"/>
<text text-anchor="middle" x="699.69" y="-101.3" font-family="Times New Roman,serif" font-size="14.00">manufacturing engineer</text>
</a>
</g>
</g>
<!-- 0&#45;&gt;0 -->
<g id="edge1" class="edge">
<title>0&#45;&gt;0</title>
<path fill="none" stroke="black" d="M785.81,-112.41C801.19,-111.45 811.93,-108.98 811.93,-105 811.93,-101.95 805.64,-99.79 795.78,-98.51"/>
<polygon fill="black" stroke="black" points="796.09,-95.03 785.81,-97.59 795.45,-102 796.09,-95.03"/>
<text text-anchor="middle" x="827.43" y="-101.3" font-family="Times New Roman,serif" font-size="14.00">0.295</text>
</g>
<!-- 1 -->
<g id="node2" class="node">
<title>1</title>
<g id="a_node2"><a xlink:href="from_structural engineer.svg" xlink:title="structural engineer">
<ellipse fill="none" stroke="black" cx="76.69" cy="-18" rx="76.89" ry="18"/>
<text text-anchor="middle" x="76.69" y="-14.3" font-family="Times New Roman,serif" font-size="14.00">structural engineer</text>
</a>
</g>
</g>
<!-- 0&#45;&gt;1 -->
<g id="edge2" class="edge">
<title>0&#45;&gt;1</title>
<path fill="none" stroke="black" d="M617.94,-95.92C512.37,-84.96 323.15,-63.56 162.69,-36 156.14,-34.88 149.32,-33.64 142.52,-32.36"/>
<polygon fill="black" stroke="black" points="143.07,-28.91 132.59,-30.47 141.76,-35.78 143.07,-28.91"/>
<text text-anchor="middle" x="399.19" y="-57.8" font-family="Times New Roman,serif" font-size="14.00">0.198</text>
</g>
<!-- 2 -->
<g id="node3" class="node">
<title>2</title>
<g id="a_node3"><a xlink:href="from_project manager.svg" xlink:title="project manager">
<ellipse fill="none" stroke="black" cx="240.69" cy="-18" rx="68.79" ry="18"/>
<text text-anchor="middle" x="240.69" y="-14.3" font-family="Times New Roman,serif" font-size="14.00">project manager</text>
</a>
</g>
</g>
<!-- 0&#45;&gt;2 -->
<g id="edge3" class="edge">
<title>0&#45;&gt;2</title>
<path fill="none" stroke="black" d="M631.06,-92.56C554.67,-79.63 427.61,-57.58 318.69,-36 313.03,-34.88 307.15,-33.67 301.27,-32.44"/>
<polygon fill="black" stroke="black" points="301.91,-29 291.4,-30.34 300.46,-35.84 301.91,-29"/>
<text text-anchor="middle" x="501.19" y="-57.8" font-family="Times New Roman,serif" font-size="14.00">0.073</text>
</g>
<!-- 3 -->
<g id="node4" class="node">
<title>3</title>
<g id="a_node4"><a xlink:href="from_mechanical engineer.svg" xlink:title="mechanical engineer">
<ellipse fill="none" stroke="black" cx="410.69" cy="-18" rx="83.39" ry="18"/>
<text text-anchor="middle" x="410.69" y="-14.3" font-family="Times New Roman,serif" font-size="14.00">mechanical engineer</text>
</a>
</g>
</g>
<!-- 0&#45;&gt;3 -->
<g id="edge4" class="edge">
<title>0&#45;&gt;3</title>
<path fill="none" stroke="black" d="M650.67,-89.58C600.03,-74.69 521.08,-51.47 467.7,-35.77"/>
<polygon fill="black" stroke="black" points="468.62,-32.39 458.04,-32.92 466.64,-39.1 468.62,-32.39"/>
<text text-anchor="middle" x="588.19" y="-57.8" font-family="Times New Roman,serif" font-size="14.00">0.062</text>
</g>
<!-- 4 -->
<g id="node5" class="node">
<title>4</title>
<g id="a_node5"><a xlink:href="from_civil engineer.svg" xlink:title="civil engineer">
<ellipse fill="none" stroke="black" cx="569.69" cy="-18" rx="57.69" ry="18"/>
<text text-anchor="middle" x="569.69" y="-14.3" font-family="Times New Roman,serif" font-size="14.00">civil engineer</text>
</a>
</g>
</g>
<!-- 0&#45;&gt;4 -->
<g id="edge5" class="edge">
<title>0&#45;&gt;4</title>
<path fill="none" stroke="black" d="M674.63,-87.61C653.91,-74.07 624.37,-54.75 601.9,-40.06"/>
<polygon fill="black" stroke="black" points="603.65,-37.02 593.37,-34.48 599.82,-42.88 603.65,-37.02"/>
<text text-anchor="middle" x="658.19" y="-57.8" font-family="Times New Roman,serif" font-size="14.00">0.045</text>
</g>
<!-- 5 -->
<g id="node6" class="node">
<title>5</title>
<g id="a_node6"><a xlink:href="from_it consultant.svg" xlink:title="it consultant">
<ellipse fill="none" stroke="black" cx="699.69" cy="-18" rx="54.69" ry="18"/>
<text text-anchor="middle" x="699.69" y="-14.3" font-family="Times New Roman,serif" font-size="14.00">it consultant</text>
</a>
</g>
</g>
<!-- 0&#45;&gt;5 -->
<g id="edge6" class="edge">
<title>0&#45;&gt;5</title>
<path fill="none" stroke="black" d="M699.69,-86.8C699.69,-75.16 699.69,-59.55 699.69,-46.24"/>
<polygon fill="black" stroke="black" points="703.19,-46.18 699.69,-36.18 696.19,-46.18 703.19,-46.18"/>
<text text-anchor="middle" x="715.19" y="-57.8" font-family="Times New Roman,serif" font-size="14.00">0.045</text>
</g>
<!-- 6 -->
<g id="node7" class="node">
<title>6</title>
<g id="a_node7"><a xlink:href="from_software developer.svg" xlink:title="software developer">
<ellipse fill="none" stroke="black" cx="852.69" cy="-18" rx="79.89" ry="18"/>
<text text-anchor="middle" x="852.69" y="-14.3" font-family="Times New Roman,serif" font-size="14.00">software developer</text>
</a>
</g>
</g>
<!-- 0&#45;&gt;6 -->
<g id="edge7" class="edge">
<title>0&#45;&gt;6</title>
<path fill="none" stroke="black" d="M728.83,-87.81C753.34,-74.2 788.54,-54.64 815.16,-39.85"/>
<polygon fill="black" stroke="black" points="817.14,-42.76 824.18,-34.84 813.74,-36.64 817.14,-42.76"/>
<text text-anchor="middle" x="801.19" y="-57.8" font-family="Times New Roman,serif" font-size="14.00">0.045</text>
</g>
<!-- 7 -->
<g id="node8" class="node">
<title>7</title>
<g id="a_node8"><a xlink:href="from_catering manager.svg" xlink:title="catering manager">
<ellipse fill="none" stroke="black" cx="1021.69" cy="-18" rx="71.49" ry="18"/>
<text text-anchor="middle" x="1021.69" y="-14.3" font-family="Times New Roman,serif" font-size="14.00">catering manager</text>
</a>
</g>
</g>
<!-- 0&#45;&gt;7 -->
<g id="edge8" class="edge">
<title>0&#45;&gt;7</title>
<path fill="none" stroke="black" d="M752.5,-90.06C810.9,-74.64 904.63,-49.9 964.66,-34.05"/>
<polygon fill="black" stroke="black" points="965.59,-37.43 974.36,-31.49 963.8,-30.66 965.59,-37.43"/>
<text text-anchor="middle" x="896.19" y="-57.8" font-family="Times New Roman,serif" font-size="14.00">0.022</text>
</g>
<!-- 8 -->
<g id="node9" class="node">
<title>8</title>
<g id="a_node9"><a xlink:href="from_control and instrumentation engineer.svg" xlink:title="control and instrumentation engineer">
<ellipse fill="none" stroke="black" cx="1252.69" cy="-18" rx="141.88" ry="18"/>
<text text-anchor="middle" x="1252.69" y="-14.3" font-family="Times New Roman,serif" font-size="14.00">control and instrumentation engineer</text>
</a>
</g>
</g>
<!-- 0&#45;&gt;8 -->
<g id="edge9" class="edge">
<title>0&#45;&gt;8</title>
<path fill="none" stroke="black" d="M770.57,-93.11C868.64,-78.03 1046.05,-50.76 1156.15,-33.84"/>
<polygon fill="black" stroke="black" points="1156.91,-37.26 1166.26,-32.28 1155.85,-30.34 1156.91,-37.26"/>
<text text-anchor="middle" x="1025.19" y="-57.8" font-family="Times New Roman,serif" font-size="14.00">0.022</text>
</g>
<!-- 9 -->
<g id="node10" class="node">
<title>9</title>
<g id="a_node10"><a xlink:href="from_qa analyst.svg" xlink:title="qa analyst">
<ellipse fill="none" stroke="black" cx="1458.69" cy="-18" rx="46.59" ry="18"/>
<text text-anchor="middle" x="1458.69" y="-14.3" font-family="Times New Roman,serif" font-size="14.00">qa analyst</text>
</a>
</g>
</g>
<!-- 0&#45;&gt;9 -->
<g id="edge10" class="edge">
<title>0&#45;&gt;9</title>
<path fill="none" stroke="black" d="M791.7,-101.08C926.98,-95.44 1186.99,-79.48 1403.69,-36 1407.39,-35.26 1411.19,-34.37 1414.98,-33.38"/>
<polygon fill="black" stroke="black" points="1416.24,-36.67 1424.94,-30.62 1414.37,-29.92 1416.24,-36.67"/>
<text text-anchor="middle" x="1306.19" y="-57.8" font-family="Times New Roman,serif" font-size="14.00">0.022</text>
</g>
</g>
</svg>
