<?xml version="1.0" encoding="UTF-8" standalone="no"?>
<!DOCTYPE svg PUBLIC "-//W3C//DTD SVG 1.1//EN"
 "http://www.w3.org/Graphics/SVG/1.1/DTD/svg11.dtd">
<!-- Generated by graphviz version 2.44.1 (20200629.0800)
 -->
<!-- Title: test Pages: 1 -->
<svg width="1478pt" height="131pt"
 viewBox="0.00 0.00 1478.24 131.00" xmlns="http://www.w3.org/2000/svg" xmlns:xlink="http://www.w3.org/1999/xlink">
<g id="graph0" class="graph" transform="scale(1 1) rotate(0) translate(4 127)">
<title>test</title>
<polygon fill="white" stroke="transparent" points="-4,4 -4,-127 1474.24,-127 1474.24,4 -4,4"/>
<!-- 0 -->
<g id="node1" class="node">
<title>0</title>
<g id="a_node1"><a xlink:href="from_catering manager.svg" xlink:title="catering manager">
<ellipse fill="none" stroke="black" cx="771.64" cy="-105" rx="71.49" ry="18"/>
<text text-anchor="middle" x="771.64" y="-101.3" font-family="Times New Roman,serif" font-size="14.00">catering manager</text>
</a>
</g>
</g>
<!-- 0&#45;&gt;0 -->
<g id="edge1" class="edge">
<title>0&#45;&gt;0</title>
<path fill="none" stroke="black" d="M836.4,-112.66C850.71,-111.94 861.13,-109.39 861.13,-105 861.13,-101.74 855.39,-99.5 846.58,-98.26"/>
<polygon fill="black" stroke="black" points="846.68,-94.75 836.4,-97.34 846.04,-101.73 846.68,-94.75"/>
<text text-anchor="middle" x="876.63" y="-101.3" font-family="Times New Roman,serif" font-size="14.00">0.136</text>
</g>
<!-- 1 -->
<g id="node2" class="node">
<title>1</title>
<g id="a_node2"><a xlink:href="from_pharmacovigilance officer.svg" xlink:title="pharmacovigilance officer">
<ellipse fill="none" stroke="black" cx="104.64" cy="-18" rx="104.78" ry="18"/>
<text text-anchor="middle" x="104.64" y="-14.3" font-family="Times New Roman,serif" font-size="14.00">pharmacovigilance officer</text>
</a>
</g>
</g>
<!-- 0&#45;&gt;1 -->
<g id="edge2" class="edge">
<title>0&#45;&gt;1</title>
<path fill="none" stroke="black" d="M705.19,-98.35C635.44,-92.16 522.65,-81.45 425.64,-69 343.86,-58.5 250.81,-43.69 186.03,-32.91"/>
<polygon fill="black" stroke="black" points="186.32,-29.41 175.88,-31.22 185.17,-36.32 186.32,-29.41"/>
<text text-anchor="middle" x="441.14" y="-57.8" font-family="Times New Roman,serif" font-size="14.00">0.092</text>
</g>
<!-- 2 -->
<g id="node3" class="node">
<title>2</title>
<g id="a_node3"><a xlink:href="from_sales manager.svg" xlink:title="sales manager">
<ellipse fill="none" stroke="black" cx="288.64" cy="-18" rx="61.19" ry="18"/>
<text text-anchor="middle" x="288.64" y="-14.3" font-family="Times New Roman,serif" font-size="14.00">sales manager</text>
</a>
</g>
</g>
<!-- 0&#45;&gt;2 -->
<g id="edge3" class="edge">
<title>0&#45;&gt;2</title>
<path fill="none" stroke="black" d="M710.84,-95.47C630.06,-83.8 483.06,-61.39 358.64,-36 353.64,-34.98 348.45,-33.85 343.26,-32.68"/>
<polygon fill="black" stroke="black" points="343.87,-29.23 333.34,-30.38 342.29,-36.04 343.87,-29.23"/>
<text text-anchor="middle" x="555.14" y="-57.8" font-family="Times New Roman,serif" font-size="14.00">0.078</text>
</g>
<!-- 3 -->
<g id="node4" class="node">
<title>3</title>
<g id="a_node4"><a xlink:href="from_production manager.svg" xlink:title="production manager">
<ellipse fill="none" stroke="black" cx="450.64" cy="-18" rx="83.39" ry="18"/>
<text text-anchor="middle" x="450.64" y="-14.3" font-family="Times New Roman,serif" font-size="14.00">production manager</text>
</a>
</g>
</g>
<!-- 0&#45;&gt;3 -->
<g id="edge4" class="edge">
<title>0&#45;&gt;3</title>
<path fill="none" stroke="black" d="M724.28,-91.46C667.69,-76.48 572.95,-51.39 511.12,-35.02"/>
<polygon fill="black" stroke="black" points="511.68,-31.54 501.11,-32.37 509.89,-38.31 511.68,-31.54"/>
<text text-anchor="middle" x="646.14" y="-57.8" font-family="Times New Roman,serif" font-size="14.00">0.058</text>
</g>
<!-- 4 -->
<g id="node5" class="node">
<title>4</title>
<g id="a_node5"><a xlink:href="from_project manager.svg" xlink:title="project manager">
<ellipse fill="none" stroke="black" cx="620.64" cy="-18" rx="68.79" ry="18"/>
<text text-anchor="middle" x="620.64" y="-14.3" font-family="Times New Roman,serif" font-size="14.00">project manager</text>
</a>
</g>
</g>
<!-- 0&#45;&gt;4 -->
<g id="edge5" class="edge">
<title>0&#45;&gt;4</title>
<path fill="none" stroke="black" d="M743.59,-88.21C719.25,-74.51 683.85,-54.58 657.28,-39.63"/>
<polygon fill="black" stroke="black" points="658.71,-36.42 648.28,-34.56 655.28,-42.52 658.71,-36.42"/>
<text text-anchor="middle" x="721.14" y="-57.8" font-family="Times New Roman,serif" font-size="14.00">0.051</text>
</g>
<!-- 5 -->
<g id="node6" class="node">
<title>5</title>
<g id="a_node6"><a xlink:href="from_office manager.svg" xlink:title="office manager">
<ellipse fill="none" stroke="black" cx="771.64" cy="-18" rx="64.19" ry="18"/>
<text text-anchor="middle" x="771.64" y="-14.3" font-family="Times New Roman,serif" font-size="14.00">office manager</text>
</a>
</g>
</g>
<!-- 0&#45;&gt;5 -->
<g id="edge6" class="edge">
<title>0&#45;&gt;5</title>
<path fill="none" stroke="black" d="M771.64,-86.8C771.64,-75.16 771.64,-59.55 771.64,-46.24"/>
<polygon fill="black" stroke="black" points="775.14,-46.18 771.64,-36.18 768.14,-46.18 775.14,-46.18"/>
<text text-anchor="middle" x="787.14" y="-57.8" font-family="Times New Roman,serif" font-size="14.00">0.047</text>
</g>
<!-- 6 -->
<g id="node7" class="node">
<title>6</title>
<g id="a_node7"><a xlink:href="from_financial manager.svg" xlink:title="financial manager">
<ellipse fill="none" stroke="black" cx="927.64" cy="-18" rx="73.39" ry="18"/>
<text text-anchor="middle" x="927.64" y="-14.3" font-family="Times New Roman,serif" font-size="14.00">financial manager</text>
</a>
</g>
</g>
<!-- 0&#45;&gt;6 -->
<g id="edge7" class="edge">
<title>0&#45;&gt;6</title>
<path fill="none" stroke="black" d="M800.25,-88.41C825.46,-74.67 862.37,-54.57 889.97,-39.53"/>
<polygon fill="black" stroke="black" points="891.84,-42.49 898.95,-34.64 888.49,-36.35 891.84,-42.49"/>
<text text-anchor="middle" x="875.14" y="-57.8" font-family="Times New Roman,serif" font-size="14.00">0.034</text>
</g>
<!-- 7 -->
<g id="node8" class="node">
<title>7</title>
<g id="a_node8"><a xlink:href="from_heritage manager.svg" xlink:title="heritage manager">
<ellipse fill="none" stroke="black" cx="1090.64" cy="-18" rx="71.49" ry="18"/>
<text text-anchor="middle" x="1090.64" y="-14.3" font-family="Times New Roman,serif" font-size="14.00">heritage manager</text>
</a>
</g>
</g>
<!-- 0&#45;&gt;7 -->
<g id="edge8" class="edge">
<title>0&#45;&gt;7</title>
<path fill="none" stroke="black" d="M819.05,-91.37C876.27,-76.12 972.39,-50.51 1033.6,-34.2"/>
<polygon fill="black" stroke="black" points="1034.73,-37.52 1043.49,-31.56 1032.92,-30.76 1034.73,-37.52"/>
<text text-anchor="middle" x="966.14" y="-57.8" font-family="Times New Roman,serif" font-size="14.00">0.027</text>
</g>
<!-- 8 -->
<g id="node9" class="node">
<title>8</title>
<g id="a_node9"><a xlink:href="from_marketing executive.svg" xlink:title="marketing executive">
<ellipse fill="none" stroke="black" cx="1261.64" cy="-18" rx="81.79" ry="18"/>
<text text-anchor="middle" x="1261.64" y="-14.3" font-family="Times New Roman,serif" font-size="14.00">marketing executive</text>
</a>
</g>
</g>
<!-- 0&#45;&gt;8 -->
<g id="edge9" class="edge">
<title>0&#45;&gt;8</title>
<path fill="none" stroke="black" d="M830.26,-94.65C873.29,-87.72 933.13,-77.98 985.64,-69 1067.97,-54.93 1088.48,-51 1170.64,-36 1177.33,-34.78 1184.3,-33.5 1191.27,-32.21"/>
<polygon fill="black" stroke="black" points="1192.25,-35.58 1201.45,-30.32 1190.98,-28.7 1192.25,-35.58"/>
<text text-anchor="middle" x="1085.14" y="-57.8" font-family="Times New Roman,serif" font-size="14.00">0.023</text>
</g>
<!-- 9 -->
<g id="node10" class="node">
<title>9</title>
<g id="a_node10"><a xlink:href="from_it consultant.svg" xlink:title="it consultant">
<ellipse fill="none" stroke="black" cx="1415.64" cy="-18" rx="54.69" ry="18"/>
<text text-anchor="middle" x="1415.64" y="-14.3" font-family="Times New Roman,serif" font-size="14.00">it consultant</text>
</a>
</g>
</g>
<!-- 0&#45;&gt;9 -->
<g id="edge10" class="edge">
<title>0&#45;&gt;9</title>
<path fill="none" stroke="black" d="M840.19,-99.61C949.44,-91.8 1169.42,-72.74 1352.64,-36 1357.07,-35.11 1361.65,-34.09 1366.23,-32.99"/>
<polygon fill="black" stroke="black" points="1367.32,-36.32 1376.17,-30.5 1365.62,-29.53 1367.32,-36.32"/>
<text text-anchor="middle" x="1258.14" y="-57.8" font-family="Times New Roman,serif" font-size="14.00">0.020</text>
</g>
</g>
</svg>
