<?xml version="1.0" encoding="UTF-8" standalone="no"?>
<!DOCTYPE svg PUBLIC "-//W3C//DTD SVG 1.1//EN"
 "http://www.w3.org/Graphics/SVG/1.1/DTD/svg11.dtd">
<!-- Generated by graphviz version 2.44.1 (20200629.0800)
 -->
<!-- Title: conference_organiser Pages: 1 -->
<svg width="1594pt" height="131pt"
 viewBox="0.00 0.00 1594.04 131.00" xmlns="http://www.w3.org/2000/svg" xmlns:xlink="http://www.w3.org/1999/xlink">
<g id="graph0" class="graph" transform="scale(1 1) rotate(0) translate(4 127)">
<title>conference_organiser</title>
<polygon fill="white" stroke="transparent" points="-4,4 -4,-127 1590.04,-127 1590.04,4 -4,4"/>
<!-- 0 -->
<g id="node1" class="node">
<title>0</title>
<g id="a_node1"><a xlink:href="from_conference organiser.svg" xlink:title="conference organiser">
<ellipse fill="none" stroke="black" cx="715.94" cy="-105" rx="86.38" ry="18"/>
<text text-anchor="middle" x="715.94" y="-101.3" font-family="Times New Roman,serif" font-size="14.00">conference organiser</text>
</a>
</g>
</g>
<!-- 0&#45;&gt;0 -->
<g id="edge1" class="edge">
<title>0&#45;&gt;0</title>
<path fill="none" stroke="black" d="M794.74,-112.5C809.76,-111.6 820.38,-109.1 820.38,-105 820.38,-101.89 814.28,-99.7 804.79,-98.44"/>
<polygon fill="black" stroke="black" points="805.02,-94.94 794.74,-97.5 804.37,-101.91 805.02,-94.94"/>
<text text-anchor="middle" x="835.88" y="-101.3" font-family="Times New Roman,serif" font-size="14.00">0.184</text>
</g>
<!-- 1 -->
<g id="node2" class="node">
<title>1</title>
<g id="a_node2"><a xlink:href="from_broadcasting presenter.svg" xlink:title="broadcasting presenter">
<ellipse fill="none" stroke="black" cx="92.94" cy="-18" rx="92.88" ry="18"/>
<text text-anchor="middle" x="92.94" y="-14.3" font-family="Times New Roman,serif" font-size="14.00">broadcasting presenter</text>
</a>
</g>
</g>
<!-- 0&#45;&gt;1 -->
<g id="edge2" class="edge">
<title>0&#45;&gt;1</title>
<path fill="none" stroke="black" d="M633.87,-99.13C556.5,-93.91 437.44,-84.25 334.94,-69 274.92,-60.07 207.35,-45.75 158.9,-34.71"/>
<polygon fill="black" stroke="black" points="159.39,-31.23 148.86,-32.41 157.82,-38.06 159.39,-31.23"/>
<text text-anchor="middle" x="350.44" y="-57.8" font-family="Times New Roman,serif" font-size="14.00">0.078</text>
</g>
<!-- 2 -->
<g id="node3" class="node">
<title>2</title>
<g id="a_node3"><a xlink:href="from_lecturer.svg" xlink:title="lecturer">
<ellipse fill="none" stroke="black" cx="241.94" cy="-18" rx="37.89" ry="18"/>
<text text-anchor="middle" x="241.94" y="-14.3" font-family="Times New Roman,serif" font-size="14.00">lecturer</text>
</a>
</g>
</g>
<!-- 0&#45;&gt;2 -->
<g id="edge3" class="edge">
<title>0&#45;&gt;2</title>
<path fill="none" stroke="black" d="M639.4,-96.47C553.2,-86.93 409.43,-67.77 288.94,-36 285.93,-35.21 282.85,-34.3 279.76,-33.33"/>
<polygon fill="black" stroke="black" points="280.61,-29.93 270.02,-30.08 278.39,-36.57 280.61,-29.93"/>
<text text-anchor="middle" x="455.44" y="-57.8" font-family="Times New Roman,serif" font-size="14.00">0.052</text>
</g>
<!-- 3 -->
<g id="node4" class="node">
<title>3</title>
<g id="a_node4"><a xlink:href="from_office manager.svg" xlink:title="office manager">
<ellipse fill="none" stroke="black" cx="361.94" cy="-18" rx="64.19" ry="18"/>
<text text-anchor="middle" x="361.94" y="-14.3" font-family="Times New Roman,serif" font-size="14.00">office manager</text>
</a>
</g>
</g>
<!-- 0&#45;&gt;3 -->
<g id="edge4" class="edge">
<title>0&#45;&gt;3</title>
<path fill="none" stroke="black" d="M661.41,-90.91C595.73,-75.14 485.94,-48.77 419.11,-32.73"/>
<polygon fill="black" stroke="black" points="419.71,-29.27 409.17,-30.34 418.08,-36.08 419.71,-29.27"/>
<text text-anchor="middle" x="576.44" y="-57.8" font-family="Times New Roman,serif" font-size="14.00">0.052</text>
</g>
<!-- 4 -->
<g id="node5" class="node">
<title>4</title>
<g id="a_node5"><a xlink:href="from_personal assistant.svg" xlink:title="personal assistant">
<ellipse fill="none" stroke="black" cx="518.94" cy="-18" rx="74.99" ry="18"/>
<text text-anchor="middle" x="518.94" y="-14.3" font-family="Times New Roman,serif" font-size="14.00">personal assistant</text>
</a>
</g>
</g>
<!-- 0&#45;&gt;4 -->
<g id="edge5" class="edge">
<title>0&#45;&gt;4</title>
<path fill="none" stroke="black" d="M679.81,-88.41C647.01,-74.26 598.55,-53.35 563.39,-38.18"/>
<polygon fill="black" stroke="black" points="564.42,-34.81 553.85,-34.06 561.65,-41.24 564.42,-34.81"/>
<text text-anchor="middle" x="645.44" y="-57.8" font-family="Times New Roman,serif" font-size="14.00">0.052</text>
</g>
<!-- 5 -->
<g id="node6" class="node">
<title>5</title>
<g id="a_node6"><a xlink:href="from_pharmacovigilance officer.svg" xlink:title="pharmacovigilance officer">
<ellipse fill="none" stroke="black" cx="715.94" cy="-18" rx="104.78" ry="18"/>
<text text-anchor="middle" x="715.94" y="-14.3" font-family="Times New Roman,serif" font-size="14.00">pharmacovigilance officer</text>
</a>
</g>
</g>
<!-- 0&#45;&gt;5 -->
<g id="edge6" class="edge">
<title>0&#45;&gt;5</title>
<path fill="none" stroke="black" d="M715.94,-86.8C715.94,-75.16 715.94,-59.55 715.94,-46.24"/>
<polygon fill="black" stroke="black" points="719.44,-46.18 715.94,-36.18 712.44,-46.18 719.44,-46.18"/>
<text text-anchor="middle" x="731.44" y="-57.8" font-family="Times New Roman,serif" font-size="14.00">0.052</text>
</g>
<!-- 6 -->
<g id="node7" class="node">
<title>6</title>
<g id="a_node7"><a xlink:href="from_trade union research officer.svg" xlink:title="trade union research officer">
<ellipse fill="none" stroke="black" cx="948.94" cy="-18" rx="110.48" ry="18"/>
<text text-anchor="middle" x="948.94" y="-14.3" font-family="Times New Roman,serif" font-size="14.00">trade union research officer</text>
</a>
</g>
</g>
<!-- 0&#45;&gt;6 -->
<g id="edge7" class="edge">
<title>0&#45;&gt;6</title>
<path fill="none" stroke="black" d="M756.79,-89.1C795.66,-74.92 854.32,-53.52 896.6,-38.1"/>
<polygon fill="black" stroke="black" points="897.97,-41.32 906.16,-34.61 895.57,-34.75 897.97,-41.32"/>
<text text-anchor="middle" x="862.44" y="-57.8" font-family="Times New Roman,serif" font-size="14.00">0.052</text>
</g>
<!-- 7 -->
<g id="node8" class="node">
<title>7</title>
<g id="a_node8"><a xlink:href="from_academic librarian.svg" xlink:title="academic librarian">
<ellipse fill="none" stroke="black" cx="1153.94" cy="-18" rx="76.09" ry="18"/>
<text text-anchor="middle" x="1153.94" y="-14.3" font-family="Times New Roman,serif" font-size="14.00">academic librarian</text>
</a>
</g>
</g>
<!-- 0&#45;&gt;7 -->
<g id="edge8" class="edge">
<title>0&#45;&gt;7</title>
<path fill="none" stroke="black" d="M777.32,-92.23C847.57,-78.73 966.08,-55.91 1067.94,-36 1074.22,-34.77 1080.75,-33.49 1087.28,-32.21"/>
<polygon fill="black" stroke="black" points="1088.38,-35.56 1097.51,-30.19 1087.02,-28.69 1088.38,-35.56"/>
<text text-anchor="middle" x="987.44" y="-57.8" font-family="Times New Roman,serif" font-size="14.00">0.026</text>
</g>
<!-- 8 -->
<g id="node9" class="node">
<title>8</title>
<g id="a_node9"><a xlink:href="from_aeronautical engineer.svg" xlink:title="aeronautical engineer">
<ellipse fill="none" stroke="black" cx="1333.94" cy="-18" rx="85.59" ry="18"/>
<text text-anchor="middle" x="1333.94" y="-14.3" font-family="Times New Roman,serif" font-size="14.00">aeronautical engineer</text>
</a>
</g>
</g>
<!-- 0&#45;&gt;8 -->
<g id="edge9" class="edge">
<title>0&#45;&gt;8</title>
<path fill="none" stroke="black" d="M790.2,-95.76C891.76,-84.17 1079.6,-61.58 1238.94,-36 1246.3,-34.82 1253.98,-33.53 1261.63,-32.22"/>
<polygon fill="black" stroke="black" points="1262.4,-35.64 1271.65,-30.48 1261.2,-28.74 1262.4,-35.64"/>
<text text-anchor="middle" x="1126.44" y="-57.8" font-family="Times New Roman,serif" font-size="14.00">0.026</text>
</g>
<!-- 9 -->
<g id="node10" class="node">
<title>9</title>
<g id="a_node10"><a xlink:href="from_analytical chemist.svg" xlink:title="analytical chemist">
<ellipse fill="none" stroke="black" cx="1511.94" cy="-18" rx="74.19" ry="18"/>
<text text-anchor="middle" x="1511.94" y="-14.3" font-family="Times New Roman,serif" font-size="14.00">analytical chemist</text>
</a>
</g>
</g>
<!-- 0&#45;&gt;9 -->
<g id="edge10" class="edge">
<title>0&#45;&gt;9</title>
<path fill="none" stroke="black" d="M798.45,-99.57C931.7,-91.64 1202.27,-72.36 1428.94,-36 1435.23,-34.99 1441.77,-33.84 1448.29,-32.62"/>
<polygon fill="black" stroke="black" points="1449.33,-35.98 1458.49,-30.65 1448.01,-29.11 1449.33,-35.98"/>
<text text-anchor="middle" x="1309.44" y="-57.8" font-family="Times New Roman,serif" font-size="14.00">0.026</text>
</g>
</g>
</svg>
