<?xml version="1.0" encoding="UTF-8" standalone="no"?>
<!DOCTYPE svg PUBLIC "-//W3C//DTD SVG 1.1//EN"
 "http://www.w3.org/Graphics/SVG/1.1/DTD/svg11.dtd">
<!-- Generated by graphviz version 2.44.1 (20200629.0800)
 -->
<!-- Title: test Pages: 1 -->
<svg width="1352pt" height="131pt"
 viewBox="0.00 0.00 1351.58 131.00" xmlns="http://www.w3.org/2000/svg" xmlns:xlink="http://www.w3.org/1999/xlink">
<g id="graph0" class="graph" transform="scale(1 1) rotate(0) translate(4 127)">
<title>test</title>
<polygon fill="white" stroke="transparent" points="-4,4 -4,-127 1347.58,-127 1347.58,4 -4,4"/>
<!-- 0 -->
<g id="node1" class="node">
<title>0</title>
<g id="a_node1"><a xlink:href="from_youth worker.svg" xlink:title="youth worker">
<ellipse fill="none" stroke="black" cx="759.64" cy="-105" rx="59.29" ry="18"/>
<text text-anchor="middle" x="759.64" y="-101.3" font-family="Times New Roman,serif" font-size="14.00">youth worker</text>
</a>
</g>
</g>
<!-- 0&#45;&gt;0 -->
<g id="edge2" class="edge">
<title>0&#45;&gt;0</title>
<path fill="none" stroke="black" d="M813,-112.78C826.59,-112.27 836.79,-109.68 836.79,-105 836.79,-101.57 831.29,-99.26 822.98,-98.07"/>
<polygon fill="black" stroke="black" points="823.26,-94.58 813,-97.22 822.67,-101.55 823.26,-94.58"/>
<text text-anchor="middle" x="852.29" y="-101.3" font-family="Times New Roman,serif" font-size="14.00">0.061</text>
</g>
<!-- 1 -->
<g id="node2" class="node">
<title>1</title>
<g id="a_node2"><a xlink:href="from_pharmacovigilance officer.svg" xlink:title="pharmacovigilance officer">
<ellipse fill="none" stroke="black" cx="104.64" cy="-18" rx="104.78" ry="18"/>
<text text-anchor="middle" x="104.64" y="-14.3" font-family="Times New Roman,serif" font-size="14.00">pharmacovigilance officer</text>
</a>
</g>
</g>
<!-- 0&#45;&gt;1 -->
<g id="edge1" class="edge">
<title>0&#45;&gt;1</title>
<path fill="none" stroke="black" d="M704.18,-98.63C640.13,-92.26 531.63,-81.01 438.64,-69 340.15,-56.28 315.85,-50.72 217.64,-36 208.85,-34.68 199.68,-33.31 190.52,-31.93"/>
<polygon fill="black" stroke="black" points="191.03,-28.47 180.62,-30.44 189.99,-35.39 191.03,-28.47"/>
<text text-anchor="middle" x="454.14" y="-57.8" font-family="Times New Roman,serif" font-size="14.00">0.070</text>
</g>
<!-- 2 -->
<g id="node3" class="node">
<title>2</title>
<g id="a_node3"><a xlink:href="from_research scientist.svg" xlink:title="research scientist">
<ellipse fill="none" stroke="black" cx="299.64" cy="-18" rx="72.59" ry="18"/>
<text text-anchor="middle" x="299.64" y="-14.3" font-family="Times New Roman,serif" font-size="14.00">research scientist</text>
</a>
</g>
</g>
<!-- 0&#45;&gt;2 -->
<g id="edge3" class="edge">
<title>0&#45;&gt;2</title>
<path fill="none" stroke="black" d="M708.54,-95.7C666.61,-88.8 605.72,-78.61 552.64,-69 476.48,-55.21 457.54,-51.19 381.64,-36 375.8,-34.83 369.72,-33.6 363.64,-32.36"/>
<polygon fill="black" stroke="black" points="363.93,-28.84 353.43,-30.26 362.52,-35.7 363.93,-28.84"/>
<text text-anchor="middle" x="568.14" y="-57.8" font-family="Times New Roman,serif" font-size="14.00">0.053</text>
</g>
<!-- 3 -->
<g id="node4" class="node">
<title>3</title>
<g id="a_node4"><a xlink:href="from_sales manager.svg" xlink:title="sales manager">
<ellipse fill="none" stroke="black" cx="451.64" cy="-18" rx="61.19" ry="18"/>
<text text-anchor="middle" x="451.64" y="-14.3" font-family="Times New Roman,serif" font-size="14.00">sales manager</text>
</a>
</g>
</g>
<!-- 0&#45;&gt;3 -->
<g id="edge4" class="edge">
<title>0&#45;&gt;3</title>
<path fill="none" stroke="black" d="M717.46,-92.36C662.06,-77.07 564.76,-50.22 504.5,-33.59"/>
<polygon fill="black" stroke="black" points="505.37,-30.2 494.8,-30.91 503.51,-36.94 505.37,-30.2"/>
<text text-anchor="middle" x="640.14" y="-57.8" font-family="Times New Roman,serif" font-size="14.00">0.053</text>
</g>
<!-- 4 -->
<g id="node5" class="node">
<title>4</title>
<g id="a_node5"><a xlink:href="from_laboratory technician.svg" xlink:title="laboratory technician">
<ellipse fill="none" stroke="black" cx="617.64" cy="-18" rx="86.38" ry="18"/>
<text text-anchor="middle" x="617.64" y="-14.3" font-family="Times New Roman,serif" font-size="14.00">laboratory technician</text>
</a>
</g>
</g>
<!-- 0&#45;&gt;4 -->
<g id="edge5" class="edge">
<title>0&#45;&gt;4</title>
<path fill="none" stroke="black" d="M733.93,-88.61C711.43,-75.14 678.53,-55.45 653.46,-40.44"/>
<polygon fill="black" stroke="black" points="654.99,-37.28 644.61,-35.15 651.4,-43.28 654.99,-37.28"/>
<text text-anchor="middle" x="713.14" y="-57.8" font-family="Times New Roman,serif" font-size="14.00">0.044</text>
</g>
<!-- 5 -->
<g id="node6" class="node">
<title>5</title>
<g id="a_node6"><a xlink:href="from_lecturer.svg" xlink:title="lecturer">
<ellipse fill="none" stroke="black" cx="759.64" cy="-18" rx="37.89" ry="18"/>
<text text-anchor="middle" x="759.64" y="-14.3" font-family="Times New Roman,serif" font-size="14.00">lecturer</text>
</a>
</g>
</g>
<!-- 0&#45;&gt;5 -->
<g id="edge6" class="edge">
<title>0&#45;&gt;5</title>
<path fill="none" stroke="black" d="M759.64,-86.8C759.64,-75.16 759.64,-59.55 759.64,-46.24"/>
<polygon fill="black" stroke="black" points="763.14,-46.18 759.64,-36.18 756.14,-46.18 763.14,-46.18"/>
<text text-anchor="middle" x="775.14" y="-57.8" font-family="Times New Roman,serif" font-size="14.00">0.044</text>
</g>
<!-- 6 -->
<g id="node7" class="node">
<title>6</title>
<g id="a_node7"><a xlink:href="from_it consultant.svg" xlink:title="it consultant">
<ellipse fill="none" stroke="black" cx="869.64" cy="-18" rx="54.69" ry="18"/>
<text text-anchor="middle" x="869.64" y="-14.3" font-family="Times New Roman,serif" font-size="14.00">it consultant</text>
</a>
</g>
</g>
<!-- 0&#45;&gt;6 -->
<g id="edge7" class="edge">
<title>0&#45;&gt;6</title>
<path fill="none" stroke="black" d="M780.33,-88.01C797.46,-74.77 821.99,-55.82 841,-41.13"/>
<polygon fill="black" stroke="black" points="843.27,-43.8 849.04,-34.92 838.99,-38.26 843.27,-43.8"/>
<text text-anchor="middle" x="837.14" y="-57.8" font-family="Times New Roman,serif" font-size="14.00">0.035</text>
</g>
<!-- 7 -->
<g id="node8" class="node">
<title>7</title>
<g id="a_node8"><a xlink:href="from_project manager.svg" xlink:title="project manager">
<ellipse fill="none" stroke="black" cx="1010.64" cy="-18" rx="68.79" ry="18"/>
<text text-anchor="middle" x="1010.64" y="-14.3" font-family="Times New Roman,serif" font-size="14.00">project manager</text>
</a>
</g>
</g>
<!-- 0&#45;&gt;7 -->
<g id="edge8" class="edge">
<title>0&#45;&gt;7</title>
<path fill="none" stroke="black" d="M797.76,-91.09C841.26,-76.36 912.55,-52.22 960.51,-35.98"/>
<polygon fill="black" stroke="black" points="961.73,-39.26 970.08,-32.74 959.48,-32.63 961.73,-39.26"/>
<text text-anchor="middle" x="916.14" y="-57.8" font-family="Times New Roman,serif" font-size="14.00">0.035</text>
</g>
<!-- 8 -->
<g id="node9" class="node">
<title>8</title>
<g id="a_node9"><a xlink:href="from_lawyer.svg" xlink:title="lawyer">
<ellipse fill="none" stroke="black" cx="1131.64" cy="-18" rx="34.39" ry="18"/>
<text text-anchor="middle" x="1131.64" y="-14.3" font-family="Times New Roman,serif" font-size="14.00">lawyer</text>
</a>
</g>
</g>
<!-- 0&#45;&gt;8 -->
<g id="edge9" class="edge">
<title>0&#45;&gt;8</title>
<path fill="none" stroke="black" d="M811.65,-96.24C877.12,-85.8 992.64,-65.12 1088.64,-36 1091.06,-35.27 1093.54,-34.46 1096.02,-33.6"/>
<polygon fill="black" stroke="black" points="1097.32,-36.85 1105.5,-30.12 1094.91,-30.28 1097.32,-36.85"/>
<text text-anchor="middle" x="1034.14" y="-57.8" font-family="Times New Roman,serif" font-size="14.00">0.026</text>
</g>
<!-- 9 -->
<g id="node10" class="node">
<title>9</title>
<g id="a_node10"><a xlink:href="from_software developer.svg" xlink:title="software developer">
<ellipse fill="none" stroke="black" cx="1263.64" cy="-18" rx="79.89" ry="18"/>
<text text-anchor="middle" x="1263.64" y="-14.3" font-family="Times New Roman,serif" font-size="14.00">software developer</text>
</a>
</g>
</g>
<!-- 0&#45;&gt;9 -->
<g id="edge10" class="edge">
<title>0&#45;&gt;9</title>
<path fill="none" stroke="black" d="M815.74,-99.26C875.11,-93.79 971.4,-83.63 1053.64,-69 1105.22,-59.82 1163.09,-45.76 1205,-34.88"/>
<polygon fill="black" stroke="black" points="1205.97,-38.24 1214.76,-32.33 1204.2,-31.47 1205.97,-38.24"/>
<text text-anchor="middle" x="1139.14" y="-57.8" font-family="Times New Roman,serif" font-size="14.00">0.026</text>
</g>
</g>
</svg>
