<?xml version="1.0" encoding="UTF-8" standalone="no"?>
<!DOCTYPE svg PUBLIC "-//W3C//DTD SVG 1.1//EN"
 "http://www.w3.org/Graphics/SVG/1.1/DTD/svg11.dtd">
<!-- Generated by graphviz version 2.44.1 (20200629.0800)
 -->
<!-- Title: public_affairs_consultant Pages: 1 -->
<svg width="1435pt" height="131pt"
 viewBox="0.00 0.00 1435.09 131.00" xmlns="http://www.w3.org/2000/svg" xmlns:xlink="http://www.w3.org/1999/xlink">
<g id="graph0" class="graph" transform="scale(1 1) rotate(0) translate(4 127)">
<title>public_affairs_consultant</title>
<polygon fill="white" stroke="transparent" points="-4,4 -4,-127 1431.09,-127 1431.09,4 -4,4"/>
<!-- 0 -->
<g id="node1" class="node">
<title>0</title>
<g id="a_node1"><a xlink:href="from_public affairs consultant.svg" xlink:title="public affairs consultant">
<ellipse fill="none" stroke="black" cx="696.6" cy="-105" rx="97.48" ry="18"/>
<text text-anchor="middle" x="696.6" y="-101.3" font-family="Times New Roman,serif" font-size="14.00">public affairs consultant</text>
</a>
</g>
</g>
<!-- 0&#45;&gt;0 -->
<g id="edge1" class="edge">
<title>0&#45;&gt;0</title>
<path fill="none" stroke="black" d="M785.69,-112.38C801.26,-111.4 812.09,-108.94 812.09,-105 812.09,-101.99 805.74,-99.84 795.78,-98.55"/>
<polygon fill="black" stroke="black" points="795.98,-95.06 785.69,-97.62 795.33,-102.03 795.98,-95.06"/>
<text text-anchor="middle" x="827.59" y="-101.3" font-family="Times New Roman,serif" font-size="14.00">0.128</text>
</g>
<!-- 1 -->
<g id="node2" class="node">
<title>1</title>
<g id="a_node2"><a xlink:href="from_it consultant.svg" xlink:title="it consultant">
<ellipse fill="none" stroke="black" cx="54.6" cy="-18" rx="54.69" ry="18"/>
<text text-anchor="middle" x="54.6" y="-14.3" font-family="Times New Roman,serif" font-size="14.00">it consultant</text>
</a>
</g>
</g>
<!-- 0&#45;&gt;1 -->
<g id="edge2" class="edge">
<title>0&#45;&gt;1</title>
<path fill="none" stroke="black" d="M605.51,-98.43C490.76,-90.24 287.94,-71.88 117.6,-36 113.24,-35.08 108.73,-34.05 104.23,-32.95"/>
<polygon fill="black" stroke="black" points="104.98,-29.53 94.43,-30.47 103.26,-36.31 104.98,-29.53"/>
<text text-anchor="middle" x="323.1" y="-57.8" font-family="Times New Roman,serif" font-size="14.00">0.106</text>
</g>
<!-- 2 -->
<g id="node3" class="node">
<title>2</title>
<g id="a_node3"><a xlink:href="from_project manager.svg" xlink:title="project manager">
<ellipse fill="none" stroke="black" cx="195.6" cy="-18" rx="68.79" ry="18"/>
<text text-anchor="middle" x="195.6" y="-14.3" font-family="Times New Roman,serif" font-size="14.00">project manager</text>
</a>
</g>
</g>
<!-- 0&#45;&gt;2 -->
<g id="edge3" class="edge">
<title>0&#45;&gt;2</title>
<path fill="none" stroke="black" d="M620.83,-93.62C573.55,-86.97 511.45,-77.94 456.6,-69 375.03,-55.7 354.65,-52.14 273.6,-36 267.94,-34.87 262.05,-33.66 256.17,-32.43"/>
<polygon fill="black" stroke="black" points="256.82,-28.99 246.31,-30.33 255.36,-35.83 256.82,-28.99"/>
<text text-anchor="middle" x="472.1" y="-57.8" font-family="Times New Roman,serif" font-size="14.00">0.068</text>
</g>
<!-- 3 -->
<g id="node4" class="node">
<title>3</title>
<g id="a_node4"><a xlink:href="from_sales manager.svg" xlink:title="sales manager">
<ellipse fill="none" stroke="black" cx="343.6" cy="-18" rx="61.19" ry="18"/>
<text text-anchor="middle" x="343.6" y="-14.3" font-family="Times New Roman,serif" font-size="14.00">sales manager</text>
</a>
</g>
</g>
<!-- 0&#45;&gt;3 -->
<g id="edge4" class="edge">
<title>0&#45;&gt;3</title>
<path fill="none" stroke="black" d="M639.67,-90.36C582.52,-76.66 491.94,-54.93 413.6,-36 408.9,-34.87 404.04,-33.69 399.15,-32.51"/>
<polygon fill="black" stroke="black" points="399.7,-29.04 389.15,-30.08 398.05,-35.84 399.7,-29.04"/>
<text text-anchor="middle" x="561.1" y="-57.8" font-family="Times New Roman,serif" font-size="14.00">0.042</text>
</g>
<!-- 4 -->
<g id="node5" class="node">
<title>4</title>
<g id="a_node5"><a xlink:href="from_pharmacovigilance officer.svg" xlink:title="pharmacovigilance officer">
<ellipse fill="none" stroke="black" cx="527.6" cy="-18" rx="104.78" ry="18"/>
<text text-anchor="middle" x="527.6" y="-14.3" font-family="Times New Roman,serif" font-size="14.00">pharmacovigilance officer</text>
</a>
</g>
</g>
<!-- 0&#45;&gt;4 -->
<g id="edge5" class="edge">
<title>0&#45;&gt;4</title>
<path fill="none" stroke="black" d="M664.41,-87.81C637.36,-74.21 598.52,-54.67 569.13,-39.89"/>
<polygon fill="black" stroke="black" points="570.45,-36.64 559.95,-35.27 567.31,-42.89 570.45,-36.64"/>
<text text-anchor="middle" x="638.1" y="-57.8" font-family="Times New Roman,serif" font-size="14.00">0.029</text>
</g>
<!-- 5 -->
<g id="node6" class="node">
<title>5</title>
<g id="a_node6"><a xlink:href="from_qa analyst.svg" xlink:title="qa analyst">
<ellipse fill="none" stroke="black" cx="696.6" cy="-18" rx="46.59" ry="18"/>
<text text-anchor="middle" x="696.6" y="-14.3" font-family="Times New Roman,serif" font-size="14.00">qa analyst</text>
</a>
</g>
</g>
<!-- 0&#45;&gt;5 -->
<g id="edge6" class="edge">
<title>0&#45;&gt;5</title>
<path fill="none" stroke="black" d="M696.6,-86.8C696.6,-75.16 696.6,-59.55 696.6,-46.24"/>
<polygon fill="black" stroke="black" points="700.1,-46.18 696.6,-36.18 693.1,-46.18 700.1,-46.18"/>
<text text-anchor="middle" x="712.1" y="-57.8" font-family="Times New Roman,serif" font-size="14.00">0.029</text>
</g>
<!-- 6 -->
<g id="node7" class="node">
<title>6</title>
<g id="a_node7"><a xlink:href="from_careers adviser.svg" xlink:title="careers adviser">
<ellipse fill="none" stroke="black" cx="826.6" cy="-18" rx="64.99" ry="18"/>
<text text-anchor="middle" x="826.6" y="-14.3" font-family="Times New Roman,serif" font-size="14.00">careers adviser</text>
</a>
</g>
</g>
<!-- 0&#45;&gt;6 -->
<g id="edge7" class="edge">
<title>0&#45;&gt;6</title>
<path fill="none" stroke="black" d="M721.97,-87.41C742.45,-74.02 771.42,-55.07 793.69,-40.52"/>
<polygon fill="black" stroke="black" points="795.71,-43.37 802.17,-34.97 791.88,-37.52 795.71,-43.37"/>
<text text-anchor="middle" x="785.1" y="-57.8" font-family="Times New Roman,serif" font-size="14.00">0.025</text>
</g>
<!-- 7 -->
<g id="node8" class="node">
<title>7</title>
<g id="a_node8"><a xlink:href="from_education administrator.svg" xlink:title="education administrator">
<ellipse fill="none" stroke="black" cx="1005.6" cy="-18" rx="95.58" ry="18"/>
<text text-anchor="middle" x="1005.6" y="-14.3" font-family="Times New Roman,serif" font-size="14.00">education administrator</text>
</a>
</g>
</g>
<!-- 0&#45;&gt;7 -->
<g id="edge8" class="edge">
<title>0&#45;&gt;7</title>
<path fill="none" stroke="black" d="M748.66,-89.68C802.72,-74.81 887.24,-51.56 944.44,-35.82"/>
<polygon fill="black" stroke="black" points="945.37,-39.2 954.09,-33.17 943.52,-32.45 945.37,-39.2"/>
<text text-anchor="middle" x="886.1" y="-57.8" font-family="Times New Roman,serif" font-size="14.00">0.025</text>
</g>
<!-- 8 -->
<g id="node9" class="node">
<title>8</title>
<g id="a_node9"><a xlink:href="from_financial manager.svg" xlink:title="financial manager">
<ellipse fill="none" stroke="black" cx="1192.6" cy="-18" rx="73.39" ry="18"/>
<text text-anchor="middle" x="1192.6" y="-14.3" font-family="Times New Roman,serif" font-size="14.00">financial manager</text>
</a>
</g>
</g>
<!-- 0&#45;&gt;8 -->
<g id="edge9" class="edge">
<title>0&#45;&gt;8</title>
<path fill="none" stroke="black" d="M769.3,-93C852.1,-80.25 991.36,-58.14 1110.6,-36 1116.69,-34.87 1123.03,-33.64 1129.37,-32.38"/>
<polygon fill="black" stroke="black" points="1130.17,-35.79 1139.29,-30.39 1128.79,-28.93 1130.17,-35.79"/>
<text text-anchor="middle" x="1025.1" y="-57.8" font-family="Times New Roman,serif" font-size="14.00">0.025</text>
</g>
<!-- 9 -->
<g id="node10" class="node">
<title>9</title>
<g id="a_node10"><a xlink:href="from_heritage manager.svg" xlink:title="heritage manager">
<ellipse fill="none" stroke="black" cx="1355.6" cy="-18" rx="71.49" ry="18"/>
<text text-anchor="middle" x="1355.6" y="-14.3" font-family="Times New Roman,serif" font-size="14.00">heritage manager</text>
</a>
</g>
</g>
<!-- 0&#45;&gt;9 -->
<g id="edge10" class="edge">
<title>0&#45;&gt;9</title>
<path fill="none" stroke="black" d="M783.71,-96.9C897.25,-86.93 1101.71,-66.51 1274.6,-36 1280.72,-34.92 1287.1,-33.72 1293.46,-32.46"/>
<polygon fill="black" stroke="black" points="1294.29,-35.87 1303.4,-30.47 1292.91,-29.01 1294.29,-35.87"/>
<text text-anchor="middle" x="1165.1" y="-57.8" font-family="Times New Roman,serif" font-size="14.00">0.025</text>
</g>
</g>
</svg>
