<?xml version="1.0" encoding="UTF-8" standalone="no"?>
<!DOCTYPE svg PUBLIC "-//W3C//DTD SVG 1.1//EN"
 "http://www.w3.org/Graphics/SVG/1.1/DTD/svg11.dtd">
<!-- Generated by graphviz version 2.44.1 (20200629.0800)
 -->
<!-- Title: test Pages: 1 -->
<svg width="1587pt" height="131pt"
 viewBox="0.00 0.00 1587.33 131.00" xmlns="http://www.w3.org/2000/svg" xmlns:xlink="http://www.w3.org/1999/xlink">
<g id="graph0" class="graph" transform="scale(1 1) rotate(0) translate(4 127)">
<title>test</title>
<polygon fill="white" stroke="transparent" points="-4,4 -4,-127 1583.33,-127 1583.33,4 -4,4"/>
<!-- 0 -->
<g id="node1" class="node">
<title>0</title>
<g id="a_node1"><a xlink:href="from_air traffic controller.svg" xlink:title="air traffic controller">
<ellipse fill="none" stroke="black" cx="773.64" cy="-105" rx="80.69" ry="18"/>
<text text-anchor="middle" x="773.64" y="-101.3" font-family="Times New Roman,serif" font-size="14.00">air traffic controller</text>
</a>
</g>
</g>
<!-- 0&#45;&gt;0 -->
<g id="edge1" class="edge">
<title>0&#45;&gt;0</title>
<path fill="none" stroke="black" d="M847.17,-112.55C861.8,-111.7 872.23,-109.18 872.23,-105 872.23,-101.86 866.36,-99.66 857.26,-98.4"/>
<polygon fill="black" stroke="black" points="857.45,-94.9 847.17,-97.45 856.79,-101.87 857.45,-94.9"/>
<text text-anchor="middle" x="887.73" y="-101.3" font-family="Times New Roman,serif" font-size="14.00">0.130</text>
</g>
<!-- 1 -->
<g id="node2" class="node">
<title>1</title>
<g id="a_node2"><a xlink:href="from_pharmacovigilance officer.svg" xlink:title="pharmacovigilance officer">
<ellipse fill="none" stroke="black" cx="104.64" cy="-18" rx="104.78" ry="18"/>
<text text-anchor="middle" x="104.64" y="-14.3" font-family="Times New Roman,serif" font-size="14.00">pharmacovigilance officer</text>
</a>
</g>
</g>
<!-- 0&#45;&gt;1 -->
<g id="edge2" class="edge">
<title>0&#45;&gt;1</title>
<path fill="none" stroke="black" d="M701.02,-97.1C634.29,-90.56 532.69,-80.11 444.64,-69 343.93,-56.3 319.06,-50.82 218.64,-36 209.63,-34.67 200.21,-33.28 190.83,-31.88"/>
<polygon fill="black" stroke="black" points="191.08,-28.38 180.67,-30.37 190.05,-35.3 191.08,-28.38"/>
<text text-anchor="middle" x="460.14" y="-57.8" font-family="Times New Roman,serif" font-size="14.00">0.130</text>
</g>
<!-- 2 -->
<g id="node3" class="node">
<title>2</title>
<g id="a_node3"><a xlink:href="from_airline cabin crew.svg" xlink:title="airline cabin crew">
<ellipse fill="none" stroke="black" cx="300.64" cy="-18" rx="73.39" ry="18"/>
<text text-anchor="middle" x="300.64" y="-14.3" font-family="Times New Roman,serif" font-size="14.00">airline cabin crew</text>
</a>
</g>
</g>
<!-- 0&#45;&gt;2 -->
<g id="edge3" class="edge">
<title>0&#45;&gt;2</title>
<path fill="none" stroke="black" d="M710.18,-93.77C632.71,-81.1 497.78,-58.43 382.64,-36 376.79,-34.86 370.71,-33.65 364.62,-32.42"/>
<polygon fill="black" stroke="black" points="364.91,-28.91 354.42,-30.34 363.52,-35.77 364.91,-28.91"/>
<text text-anchor="middle" x="570.14" y="-57.8" font-family="Times New Roman,serif" font-size="14.00">0.086</text>
</g>
<!-- 3 -->
<g id="node4" class="node">
<title>3</title>
<g id="a_node4"><a xlink:href="from_project manager.svg" xlink:title="project manager">
<ellipse fill="none" stroke="black" cx="460.64" cy="-18" rx="68.79" ry="18"/>
<text text-anchor="middle" x="460.64" y="-14.3" font-family="Times New Roman,serif" font-size="14.00">project manager</text>
</a>
</g>
</g>
<!-- 0&#45;&gt;3 -->
<g id="edge4" class="edge">
<title>0&#45;&gt;3</title>
<path fill="none" stroke="black" d="M724.39,-90.63C667.92,-75.29 575.55,-50.2 516.46,-34.16"/>
<polygon fill="black" stroke="black" points="517.12,-30.71 506.55,-31.47 515.28,-37.47 517.12,-30.71"/>
<text text-anchor="middle" x="652.14" y="-57.8" font-family="Times New Roman,serif" font-size="14.00">0.086</text>
</g>
<!-- 4 -->
<g id="node5" class="node">
<title>4</title>
<g id="a_node5"><a xlink:href="from_sales manager.svg" xlink:title="sales manager">
<ellipse fill="none" stroke="black" cx="608.64" cy="-18" rx="61.19" ry="18"/>
<text text-anchor="middle" x="608.64" y="-14.3" font-family="Times New Roman,serif" font-size="14.00">sales manager</text>
</a>
</g>
</g>
<!-- 0&#45;&gt;4 -->
<g id="edge5" class="edge">
<title>0&#45;&gt;4</title>
<path fill="none" stroke="black" d="M742.99,-88.21C715.83,-74.22 676.06,-53.73 646.83,-38.67"/>
<polygon fill="black" stroke="black" points="648.23,-35.46 637.74,-33.99 645.03,-41.68 648.23,-35.46"/>
<text text-anchor="middle" x="717.14" y="-57.8" font-family="Times New Roman,serif" font-size="14.00">0.086</text>
</g>
<!-- 5 -->
<g id="node6" class="node">
<title>5</title>
<g id="a_node6"><a xlink:href="from_aeronautical engineer.svg" xlink:title="aeronautical engineer">
<ellipse fill="none" stroke="black" cx="773.64" cy="-18" rx="85.59" ry="18"/>
<text text-anchor="middle" x="773.64" y="-14.3" font-family="Times New Roman,serif" font-size="14.00">aeronautical engineer</text>
</a>
</g>
</g>
<!-- 0&#45;&gt;5 -->
<g id="edge6" class="edge">
<title>0&#45;&gt;5</title>
<path fill="none" stroke="black" d="M773.64,-86.8C773.64,-75.16 773.64,-59.55 773.64,-46.24"/>
<polygon fill="black" stroke="black" points="777.14,-46.18 773.64,-36.18 770.14,-46.18 777.14,-46.18"/>
<text text-anchor="middle" x="789.14" y="-57.8" font-family="Times New Roman,serif" font-size="14.00">0.043</text>
</g>
<!-- 6 -->
<g id="node7" class="node">
<title>6</title>
<g id="a_node7"><a xlink:href="from_armed forces officer.svg" xlink:title="armed forces officer">
<ellipse fill="none" stroke="black" cx="962.64" cy="-18" rx="85.29" ry="18"/>
<text text-anchor="middle" x="962.64" y="-14.3" font-family="Times New Roman,serif" font-size="14.00">armed forces officer</text>
</a>
</g>
</g>
<!-- 0&#45;&gt;6 -->
<g id="edge7" class="edge">
<title>0&#45;&gt;6</title>
<path fill="none" stroke="black" d="M807.87,-88.61C838.98,-74.61 885.06,-53.89 918.85,-38.69"/>
<polygon fill="black" stroke="black" points="920.35,-41.86 928.03,-34.57 917.47,-35.48 920.35,-41.86"/>
<text text-anchor="middle" x="895.14" y="-57.8" font-family="Times New Roman,serif" font-size="14.00">0.043</text>
</g>
<!-- 7 -->
<g id="node8" class="node">
<title>7</title>
<g id="a_node8"><a xlink:href="from_careers adviser.svg" xlink:title="careers adviser">
<ellipse fill="none" stroke="black" cx="1130.64" cy="-18" rx="64.99" ry="18"/>
<text text-anchor="middle" x="1130.64" y="-14.3" font-family="Times New Roman,serif" font-size="14.00">careers adviser</text>
</a>
</g>
</g>
<!-- 0&#45;&gt;7 -->
<g id="edge8" class="edge">
<title>0&#45;&gt;7</title>
<path fill="none" stroke="black" d="M826.7,-91.37C892.66,-75.66 1004.82,-48.96 1072.88,-32.75"/>
<polygon fill="black" stroke="black" points="1074.09,-36.06 1083.01,-30.34 1072.47,-29.25 1074.09,-36.06"/>
<text text-anchor="middle" x="989.14" y="-57.8" font-family="Times New Roman,serif" font-size="14.00">0.043</text>
</g>
<!-- 8 -->
<g id="node9" class="node">
<title>8</title>
<g id="a_node9"><a xlink:href="from_catering manager.svg" xlink:title="catering manager">
<ellipse fill="none" stroke="black" cx="1284.64" cy="-18" rx="71.49" ry="18"/>
<text text-anchor="middle" x="1284.64" y="-14.3" font-family="Times New Roman,serif" font-size="14.00">catering manager</text>
</a>
</g>
</g>
<!-- 0&#45;&gt;8 -->
<g id="edge9" class="edge">
<title>0&#45;&gt;8</title>
<path fill="none" stroke="black" d="M840.32,-94.81C925.21,-82.81 1076.27,-60.43 1204.64,-36 1210.45,-34.89 1216.48,-33.7 1222.52,-32.47"/>
<polygon fill="black" stroke="black" points="1223.55,-35.83 1232.63,-30.39 1222.13,-28.98 1223.55,-35.83"/>
<text text-anchor="middle" x="1114.14" y="-57.8" font-family="Times New Roman,serif" font-size="14.00">0.043</text>
</g>
<!-- 9 -->
<g id="node10" class="node">
<title>9</title>
<g id="a_node10"><a xlink:href="from_civil service administrator.svg" xlink:title="civil service administrator">
<ellipse fill="none" stroke="black" cx="1476.64" cy="-18" rx="102.88" ry="18"/>
<text text-anchor="middle" x="1476.64" y="-14.3" font-family="Times New Roman,serif" font-size="14.00">civil service administrator</text>
</a>
</g>
</g>
<!-- 0&#45;&gt;9 -->
<g id="edge10" class="edge">
<title>0&#45;&gt;9</title>
<path fill="none" stroke="black" d="M847.52,-97.8C920.37,-91.45 1034.82,-80.86 1133.64,-69 1236.61,-56.65 1262.04,-51.12 1364.64,-36 1373.5,-34.69 1382.75,-33.32 1391.97,-31.93"/>
<polygon fill="black" stroke="black" points="1392.58,-35.38 1401.95,-30.43 1391.54,-28.46 1392.58,-35.38"/>
<text text-anchor="middle" x="1261.14" y="-57.8" font-family="Times New Roman,serif" font-size="14.00">0.043</text>
</g>
</g>
</svg>
