<?xml version="1.0" encoding="UTF-8" standalone="no"?>
<!DOCTYPE svg PUBLIC "-//W3C//DTD SVG 1.1//EN"
 "http://www.w3.org/Graphics/SVG/1.1/DTD/svg11.dtd">
<!-- Generated by graphviz version 2.44.1 (20200629.0800)
 -->
<!-- Title: test Pages: 1 -->
<svg width="1355pt" height="131pt"
 viewBox="0.00 0.00 1355.34 131.00" xmlns="http://www.w3.org/2000/svg" xmlns:xlink="http://www.w3.org/1999/xlink">
<g id="graph0" class="graph" transform="scale(1 1) rotate(0) translate(4 127)">
<title>test</title>
<polygon fill="white" stroke="transparent" points="-4,4 -4,-127 1351.34,-127 1351.34,4 -4,4"/>
<!-- 0 -->
<g id="node1" class="node">
<title>0</title>
<g id="a_node1"><a xlink:href="from_community worker.svg" xlink:title="community worker">
<ellipse fill="none" stroke="black" cx="688.89" cy="-105" rx="79.09" ry="18"/>
<text text-anchor="middle" x="688.89" y="-101.3" font-family="Times New Roman,serif" font-size="14.00">community worker</text>
</a>
</g>
</g>
<!-- 0&#45;&gt;0 -->
<g id="edge3" class="edge">
<title>0&#45;&gt;0</title>
<path fill="none" stroke="black" d="M761.02,-112.57C775.69,-111.75 786.19,-109.22 786.19,-105 786.19,-101.83 780.28,-99.62 771.14,-98.36"/>
<polygon fill="black" stroke="black" points="771.3,-94.86 761.02,-97.43 770.66,-101.83 771.3,-94.86"/>
<text text-anchor="middle" x="801.69" y="-101.3" font-family="Times New Roman,serif" font-size="14.00">0.040</text>
</g>
<!-- 1 -->
<g id="node2" class="node">
<title>1</title>
<g id="a_node2"><a xlink:href="from_project manager.svg" xlink:title="project manager">
<ellipse fill="none" stroke="black" cx="68.89" cy="-18" rx="68.79" ry="18"/>
<text text-anchor="middle" x="68.89" y="-14.3" font-family="Times New Roman,serif" font-size="14.00">project manager</text>
</a>
</g>
</g>
<!-- 0&#45;&gt;1 -->
<g id="edge1" class="edge">
<title>0&#45;&gt;1</title>
<path fill="none" stroke="black" d="M617.09,-97.34C512.98,-87.15 314.27,-65.7 146.89,-36 141.04,-34.96 134.95,-33.79 128.88,-32.57"/>
<polygon fill="black" stroke="black" points="129.21,-29.06 118.71,-30.46 127.8,-35.92 129.21,-29.06"/>
<text text-anchor="middle" x="370.39" y="-57.8" font-family="Times New Roman,serif" font-size="14.00">0.102</text>
</g>
<!-- 2 -->
<g id="node3" class="node">
<title>2</title>
<g id="a_node3"><a xlink:href="from_charities administrator.svg" xlink:title="charities administrator">
<ellipse fill="none" stroke="black" cx="245.89" cy="-18" rx="90.18" ry="18"/>
<text text-anchor="middle" x="245.89" y="-14.3" font-family="Times New Roman,serif" font-size="14.00">charities administrator</text>
</a>
</g>
</g>
<!-- 0&#45;&gt;2 -->
<g id="edge2" class="edge">
<title>0&#45;&gt;2</title>
<path fill="none" stroke="black" d="M628.64,-93.19C591.02,-86.39 541.6,-77.34 497.89,-69 436.59,-57.3 367.02,-43.45 316.53,-33.3"/>
<polygon fill="black" stroke="black" points="317.19,-29.86 306.69,-31.32 315.81,-36.73 317.19,-29.86"/>
<text text-anchor="middle" x="513.39" y="-57.8" font-family="Times New Roman,serif" font-size="14.00">0.040</text>
</g>
<!-- 3 -->
<g id="node4" class="node">
<title>3</title>
<g id="a_node4"><a xlink:href="from_it consultant.svg" xlink:title="it consultant">
<ellipse fill="none" stroke="black" cx="408.89" cy="-18" rx="54.69" ry="18"/>
<text text-anchor="middle" x="408.89" y="-14.3" font-family="Times New Roman,serif" font-size="14.00">it consultant</text>
</a>
</g>
</g>
<!-- 0&#45;&gt;3 -->
<g id="edge4" class="edge">
<title>0&#45;&gt;3</title>
<path fill="none" stroke="black" d="M643.28,-90.15C592.18,-74.64 509.68,-49.6 457.42,-33.73"/>
<polygon fill="black" stroke="black" points="458.3,-30.34 447.71,-30.78 456.27,-37.04 458.3,-30.34"/>
<text text-anchor="middle" x="581.39" y="-57.8" font-family="Times New Roman,serif" font-size="14.00">0.040</text>
</g>
<!-- 4 -->
<g id="node5" class="node">
<title>4</title>
<g id="a_node5"><a xlink:href="from_marketing assistant.svg" xlink:title="marketing assistant">
<ellipse fill="none" stroke="black" cx="560.89" cy="-18" rx="79.09" ry="18"/>
<text text-anchor="middle" x="560.89" y="-14.3" font-family="Times New Roman,serif" font-size="14.00">marketing assistant</text>
</a>
</g>
</g>
<!-- 0&#45;&gt;4 -->
<g id="edge5" class="edge">
<title>0&#45;&gt;4</title>
<path fill="none" stroke="black" d="M664.52,-87.81C644.54,-74.54 616.07,-55.64 594.02,-41"/>
<polygon fill="black" stroke="black" points="595.88,-38.03 585.62,-35.42 592.01,-43.86 595.88,-38.03"/>
<text text-anchor="middle" x="648.39" y="-57.8" font-family="Times New Roman,serif" font-size="14.00">0.040</text>
</g>
<!-- 5 -->
<g id="node6" class="node">
<title>5</title>
<g id="a_node6"><a xlink:href="from_nurse.svg" xlink:title="nurse">
<ellipse fill="none" stroke="black" cx="688.89" cy="-18" rx="30.59" ry="18"/>
<text text-anchor="middle" x="688.89" y="-14.3" font-family="Times New Roman,serif" font-size="14.00">nurse</text>
</a>
</g>
</g>
<!-- 0&#45;&gt;5 -->
<g id="edge6" class="edge">
<title>0&#45;&gt;5</title>
<path fill="none" stroke="black" d="M688.89,-86.8C688.89,-75.16 688.89,-59.55 688.89,-46.24"/>
<polygon fill="black" stroke="black" points="692.39,-46.18 688.89,-36.18 685.39,-46.18 692.39,-46.18"/>
<text text-anchor="middle" x="704.39" y="-57.8" font-family="Times New Roman,serif" font-size="14.00">0.040</text>
</g>
<!-- 6 -->
<g id="node7" class="node">
<title>6</title>
<g id="a_node7"><a xlink:href="from_personal assistant.svg" xlink:title="personal assistant">
<ellipse fill="none" stroke="black" cx="811.89" cy="-18" rx="74.99" ry="18"/>
<text text-anchor="middle" x="811.89" y="-14.3" font-family="Times New Roman,serif" font-size="14.00">personal assistant</text>
</a>
</g>
</g>
<!-- 0&#45;&gt;6 -->
<g id="edge7" class="edge">
<title>0&#45;&gt;6</title>
<path fill="none" stroke="black" d="M712.61,-87.61C731.75,-74.38 758.87,-55.64 779.93,-41.09"/>
<polygon fill="black" stroke="black" points="782.01,-43.9 788.25,-35.34 778.03,-38.14 782.01,-43.9"/>
<text text-anchor="middle" x="773.39" y="-57.8" font-family="Times New Roman,serif" font-size="14.00">0.040</text>
</g>
<!-- 7 -->
<g id="node8" class="node">
<title>7</title>
<g id="a_node8"><a xlink:href="from_production manager.svg" xlink:title="production manager">
<ellipse fill="none" stroke="black" cx="987.89" cy="-18" rx="83.39" ry="18"/>
<text text-anchor="middle" x="987.89" y="-14.3" font-family="Times New Roman,serif" font-size="14.00">production manager</text>
</a>
</g>
</g>
<!-- 0&#45;&gt;7 -->
<g id="edge8" class="edge">
<title>0&#45;&gt;7</title>
<path fill="none" stroke="black" d="M736.27,-90.53C788.78,-75.61 873.47,-51.53 929.9,-35.49"/>
<polygon fill="black" stroke="black" points="931.09,-38.79 939.75,-32.69 929.17,-32.05 931.09,-38.79"/>
<text text-anchor="middle" x="872.39" y="-57.8" font-family="Times New Roman,serif" font-size="14.00">0.040</text>
</g>
<!-- 8 -->
<g id="node9" class="node">
<title>8</title>
<g id="a_node9"><a xlink:href="from_qa analyst.svg" xlink:title="qa analyst">
<ellipse fill="none" stroke="black" cx="1135.89" cy="-18" rx="46.59" ry="18"/>
<text text-anchor="middle" x="1135.89" y="-14.3" font-family="Times New Roman,serif" font-size="14.00">qa analyst</text>
</a>
</g>
</g>
<!-- 0&#45;&gt;8 -->
<g id="edge9" class="edge">
<title>0&#45;&gt;8</title>
<path fill="none" stroke="black" d="M755.13,-95.04C833.3,-83.88 966.97,-62.95 1079.89,-36 1083.73,-35.08 1087.69,-34.06 1091.65,-32.97"/>
<polygon fill="black" stroke="black" points="1092.77,-36.29 1101.42,-30.18 1090.84,-29.56 1092.77,-36.29"/>
<text text-anchor="middle" x="1011.39" y="-57.8" font-family="Times New Roman,serif" font-size="14.00">0.040</text>
</g>
<!-- 9 -->
<g id="node10" class="node">
<title>9</title>
<g id="a_node10"><a xlink:href="from_airline cabin crew.svg" xlink:title="airline cabin crew">
<ellipse fill="none" stroke="black" cx="1273.89" cy="-18" rx="73.39" ry="18"/>
<text text-anchor="middle" x="1273.89" y="-14.3" font-family="Times New Roman,serif" font-size="14.00">airline cabin crew</text>
</a>
</g>
</g>
<!-- 0&#45;&gt;9 -->
<g id="edge10" class="edge">
<title>0&#45;&gt;9</title>
<path fill="none" stroke="black" d="M763.22,-98.55C832.68,-92.95 939.15,-83.06 1030.89,-69 1103.09,-57.93 1120.35,-50.75 1191.89,-36 1197.64,-34.82 1203.61,-33.58 1209.6,-32.34"/>
<polygon fill="black" stroke="black" points="1210.56,-35.72 1219.64,-30.26 1209.14,-28.86 1210.56,-35.72"/>
<text text-anchor="middle" x="1125.39" y="-57.8" font-family="Times New Roman,serif" font-size="14.00">0.020</text>
</g>
</g>
</svg>
