<?xml version="1.0" encoding="UTF-8" standalone="no"?>
<!DOCTYPE svg PUBLIC "-//W3C//DTD SVG 1.1//EN"
 "http://www.w3.org/Graphics/SVG/1.1/DTD/svg11.dtd">
<!-- Generated by graphviz version 2.44.1 (20200629.0800)
 -->
<!-- Title: insurance_claims_inspector Pages: 1 -->
<svg width="1295pt" height="131pt"
 viewBox="0.00 0.00 1294.88 131.00" xmlns="http://www.w3.org/2000/svg" xmlns:xlink="http://www.w3.org/1999/xlink">
<g id="graph0" class="graph" transform="scale(1 1) rotate(0) translate(4 127)">
<title>insurance_claims_inspector</title>
<polygon fill="white" stroke="transparent" points="-4,4 -4,-127 1290.88,-127 1290.88,4 -4,4"/>
<!-- 0 -->
<g id="node1" class="node">
<title>0</title>
<g id="a_node1"><a xlink:href="from_insurance claims inspector.svg" xlink:title="insurance claims inspector">
<ellipse fill="none" stroke="black" cx="670.59" cy="-105" rx="106.68" ry="18"/>
<text text-anchor="middle" x="670.59" y="-101.3" font-family="Times New Roman,serif" font-size="14.00">insurance claims inspector</text>
</a>
</g>
</g>
<!-- 0&#45;&gt;0 -->
<g id="edge1" class="edge">
<title>0&#45;&gt;0</title>
<path fill="none" stroke="black" d="M768.27,-112.29C784.22,-111.24 795.18,-108.81 795.18,-105 795.18,-102.05 788.62,-99.93 778.27,-98.64"/>
<polygon fill="black" stroke="black" points="778.55,-95.15 768.27,-97.71 777.91,-102.12 778.55,-95.15"/>
<text text-anchor="middle" x="810.68" y="-101.3" font-family="Times New Roman,serif" font-size="14.00">0.115</text>
</g>
<!-- 1 -->
<g id="node2" class="node">
<title>1</title>
<g id="a_node2"><a xlink:href="from_environmental manager.svg" xlink:title="environmental manager">
<ellipse fill="none" stroke="black" cx="93.59" cy="-18" rx="93.68" ry="18"/>
<text text-anchor="middle" x="93.59" y="-14.3" font-family="Times New Roman,serif" font-size="14.00">environmental manager</text>
</a>
</g>
</g>
<!-- 0&#45;&gt;1 -->
<g id="edge2" class="edge">
<title>0&#45;&gt;1</title>
<path fill="none" stroke="black" d="M582.01,-94.89C523.11,-88.5 444.08,-79.28 374.59,-69 303.73,-58.51 223.29,-43.93 166.68,-33.21"/>
<polygon fill="black" stroke="black" points="167.23,-29.75 156.75,-31.33 165.92,-36.63 167.23,-29.75"/>
<text text-anchor="middle" x="390.09" y="-57.8" font-family="Times New Roman,serif" font-size="14.00">0.076</text>
</g>
<!-- 2 -->
<g id="node3" class="node">
<title>2</title>
<g id="a_node3"><a xlink:href="from_it consultant.svg" xlink:title="it consultant">
<ellipse fill="none" stroke="black" cx="259.59" cy="-18" rx="54.69" ry="18"/>
<text text-anchor="middle" x="259.59" y="-14.3" font-family="Times New Roman,serif" font-size="14.00">it consultant</text>
</a>
</g>
</g>
<!-- 0&#45;&gt;2 -->
<g id="edge3" class="edge">
<title>0&#45;&gt;2</title>
<path fill="none" stroke="black" d="M599.52,-91.53C529.17,-78.84 418.54,-57.97 323.59,-36 319.19,-34.98 314.63,-33.87 310.06,-32.73"/>
<polygon fill="black" stroke="black" points="310.68,-29.28 300.12,-30.19 308.94,-36.06 310.68,-29.28"/>
<text text-anchor="middle" x="491.09" y="-57.8" font-family="Times New Roman,serif" font-size="14.00">0.076</text>
</g>
<!-- 3 -->
<g id="node4" class="node">
<title>3</title>
<g id="a_node4"><a xlink:href="from_marketing assistant.svg" xlink:title="marketing assistant">
<ellipse fill="none" stroke="black" cx="411.59" cy="-18" rx="79.09" ry="18"/>
<text text-anchor="middle" x="411.59" y="-14.3" font-family="Times New Roman,serif" font-size="14.00">marketing assistant</text>
</a>
</g>
</g>
<!-- 0&#45;&gt;3 -->
<g id="edge4" class="edge">
<title>0&#45;&gt;3</title>
<path fill="none" stroke="black" d="M623.99,-88.71C579.12,-73.98 511.34,-51.74 464.48,-36.36"/>
<polygon fill="black" stroke="black" points="465.4,-32.98 454.81,-33.18 463.22,-39.63 465.4,-32.98"/>
<text text-anchor="middle" x="573.09" y="-57.8" font-family="Times New Roman,serif" font-size="14.00">0.076</text>
</g>
<!-- 4 -->
<g id="node5" class="node">
<title>4</title>
<g id="a_node5"><a xlink:href="from_qa analyst.svg" xlink:title="qa analyst">
<ellipse fill="none" stroke="black" cx="555.59" cy="-18" rx="46.59" ry="18"/>
<text text-anchor="middle" x="555.59" y="-14.3" font-family="Times New Roman,serif" font-size="14.00">qa analyst</text>
</a>
</g>
</g>
<!-- 0&#45;&gt;4 -->
<g id="edge5" class="edge">
<title>0&#45;&gt;4</title>
<path fill="none" stroke="black" d="M647.87,-87.21C629.74,-73.8 604.22,-54.94 584.61,-40.45"/>
<polygon fill="black" stroke="black" points="586.45,-37.46 576.33,-34.33 582.29,-43.09 586.45,-37.46"/>
<text text-anchor="middle" x="636.09" y="-57.8" font-family="Times New Roman,serif" font-size="14.00">0.076</text>
</g>
<!-- 5 -->
<g id="node6" class="node">
<title>5</title>
<g id="a_node6"><a xlink:href="from_accountant.svg" xlink:title="accountant">
<ellipse fill="none" stroke="black" cx="670.59" cy="-18" rx="50.09" ry="18"/>
<text text-anchor="middle" x="670.59" y="-14.3" font-family="Times New Roman,serif" font-size="14.00">accountant</text>
</a>
</g>
</g>
<!-- 0&#45;&gt;5 -->
<g id="edge6" class="edge">
<title>0&#45;&gt;5</title>
<path fill="none" stroke="black" d="M670.59,-86.8C670.59,-75.16 670.59,-59.55 670.59,-46.24"/>
<polygon fill="black" stroke="black" points="674.09,-46.18 670.59,-36.18 667.09,-46.18 674.09,-46.18"/>
<text text-anchor="middle" x="686.09" y="-57.8" font-family="Times New Roman,serif" font-size="14.00">0.038</text>
</g>
<!-- 6 -->
<g id="node7" class="node">
<title>6</title>
<g id="a_node7"><a xlink:href="from_agricultural consultant.svg" xlink:title="agricultural consultant">
<ellipse fill="none" stroke="black" cx="828.59" cy="-18" rx="89.88" ry="18"/>
<text text-anchor="middle" x="828.59" y="-14.3" font-family="Times New Roman,serif" font-size="14.00">agricultural consultant</text>
</a>
</g>
</g>
<!-- 0&#45;&gt;6 -->
<g id="edge7" class="edge">
<title>0&#45;&gt;6</title>
<path fill="none" stroke="black" d="M701.06,-87.61C726.35,-74 762.49,-54.56 789.85,-39.84"/>
<polygon fill="black" stroke="black" points="791.61,-42.87 798.76,-35.05 788.29,-36.71 791.61,-42.87"/>
<text text-anchor="middle" x="775.09" y="-57.8" font-family="Times New Roman,serif" font-size="14.00">0.038</text>
</g>
<!-- 7 -->
<g id="node8" class="node">
<title>7</title>
<g id="a_node8"><a xlink:href="from_architect.svg" xlink:title="architect">
<ellipse fill="none" stroke="black" cx="977.59" cy="-18" rx="41.69" ry="18"/>
<text text-anchor="middle" x="977.59" y="-14.3" font-family="Times New Roman,serif" font-size="14.00">architect</text>
</a>
</g>
</g>
<!-- 0&#45;&gt;7 -->
<g id="edge8" class="edge">
<title>0&#45;&gt;7</title>
<path fill="none" stroke="black" d="M728.58,-89.87C780.88,-76.84 859.77,-56.48 927.59,-36 930.53,-35.11 933.55,-34.17 936.58,-33.2"/>
<polygon fill="black" stroke="black" points="937.81,-36.48 946.23,-30.03 935.63,-29.82 937.81,-36.48"/>
<text text-anchor="middle" x="880.09" y="-57.8" font-family="Times New Roman,serif" font-size="14.00">0.038</text>
</g>
<!-- 8 -->
<g id="node9" class="node">
<title>8</title>
<g id="a_node9"><a xlink:href="from_auditor.svg" xlink:title="auditor">
<ellipse fill="none" stroke="black" cx="1073.59" cy="-18" rx="36.29" ry="18"/>
<text text-anchor="middle" x="1073.59" y="-14.3" font-family="Times New Roman,serif" font-size="14.00">auditor</text>
</a>
</g>
</g>
<!-- 0&#45;&gt;8 -->
<g id="edge9" class="edge">
<title>0&#45;&gt;8</title>
<path fill="none" stroke="black" d="M752.55,-93.47C796.36,-87.34 851.12,-78.88 899.59,-69 957.58,-57.18 972.16,-53.82 1028.59,-36 1031.19,-35.18 1033.86,-34.29 1036.53,-33.37"/>
<polygon fill="black" stroke="black" points="1037.92,-36.59 1046.15,-29.92 1035.56,-30 1037.92,-36.59"/>
<text text-anchor="middle" x="983.09" y="-57.8" font-family="Times New Roman,serif" font-size="14.00">0.038</text>
</g>
<!-- 9 -->
<g id="node10" class="node">
<title>9</title>
<g id="a_node10"><a xlink:href="from_community worker.svg" xlink:title="community worker">
<ellipse fill="none" stroke="black" cx="1207.59" cy="-18" rx="79.09" ry="18"/>
<text text-anchor="middle" x="1207.59" y="-14.3" font-family="Times New Roman,serif" font-size="14.00">community worker</text>
</a>
</g>
</g>
<!-- 0&#45;&gt;9 -->
<g id="edge10" class="edge">
<title>0&#45;&gt;9</title>
<path fill="none" stroke="black" d="M766.95,-97.28C833.47,-91.8 923.79,-82.7 1002.59,-69 1052.94,-60.25 1109.29,-46.19 1150.15,-35.2"/>
<polygon fill="black" stroke="black" points="1151.19,-38.55 1159.93,-32.55 1149.36,-31.79 1151.19,-38.55"/>
<text text-anchor="middle" x="1087.09" y="-57.8" font-family="Times New Roman,serif" font-size="14.00">0.038</text>
</g>
</g>
</svg>
