<?xml version="1.0" encoding="UTF-8" standalone="no"?>
<!DOCTYPE svg PUBLIC "-//W3C//DTD SVG 1.1//EN"
 "http://www.w3.org/Graphics/SVG/1.1/DTD/svg11.dtd">
<!-- Generated by graphviz version 2.44.1 (20200629.0800)
 -->
<!-- Title: test Pages: 1 -->
<svg width="1546pt" height="131pt"
 viewBox="0.00 0.00 1545.74 131.00" xmlns="http://www.w3.org/2000/svg" xmlns:xlink="http://www.w3.org/1999/xlink">
<g id="graph0" class="graph" transform="scale(1 1) rotate(0) translate(4 127)">
<title>test</title>
<polygon fill="white" stroke="transparent" points="-4,4 -4,-127 1541.74,-127 1541.74,4 -4,4"/>
<!-- 0 -->
<g id="node1" class="node">
<title>0</title>
<g id="a_node1"><a xlink:href="from_corporate treasurer.svg" xlink:title="corporate treasurer">
<ellipse fill="none" stroke="black" cx="790.69" cy="-105" rx="79.09" ry="18"/>
<text text-anchor="middle" x="790.69" y="-101.3" font-family="Times New Roman,serif" font-size="14.00">corporate treasurer</text>
</a>
</g>
</g>
<!-- 0&#45;&gt;0 -->
<g id="edge4" class="edge">
<title>0&#45;&gt;0</title>
<path fill="none" stroke="black" d="M862.82,-112.57C877.49,-111.75 887.99,-109.22 887.99,-105 887.99,-101.83 882.08,-99.62 872.94,-98.36"/>
<polygon fill="black" stroke="black" points="873.1,-94.86 862.82,-97.43 872.46,-101.83 873.1,-94.86"/>
<text text-anchor="middle" x="903.49" y="-101.3" font-family="Times New Roman,serif" font-size="14.00">0.040</text>
</g>
<!-- 1 -->
<g id="node2" class="node">
<title>1</title>
<g id="a_node2"><a xlink:href="from_investment analyst.svg" xlink:title="investment analyst">
<ellipse fill="none" stroke="black" cx="76.69" cy="-18" rx="76.89" ry="18"/>
<text text-anchor="middle" x="76.69" y="-14.3" font-family="Times New Roman,serif" font-size="14.00">investment analyst</text>
</a>
</g>
</g>
<!-- 0&#45;&gt;1 -->
<g id="edge1" class="edge">
<title>0&#45;&gt;1</title>
<path fill="none" stroke="black" d="M716.81,-98.25C598.97,-88.57 361.4,-67.01 161.69,-36 155.1,-34.98 148.24,-33.8 141.4,-32.55"/>
<polygon fill="black" stroke="black" points="141.91,-29.08 131.44,-30.67 140.62,-35.96 141.91,-29.08"/>
<text text-anchor="middle" x="419.19" y="-57.8" font-family="Times New Roman,serif" font-size="14.00">0.081</text>
</g>
<!-- 2 -->
<g id="node3" class="node">
<title>2</title>
<g id="a_node3"><a xlink:href="from_pharmacovigilance officer.svg" xlink:title="pharmacovigilance officer">
<ellipse fill="none" stroke="black" cx="275.69" cy="-18" rx="104.78" ry="18"/>
<text text-anchor="middle" x="275.69" y="-14.3" font-family="Times New Roman,serif" font-size="14.00">pharmacovigilance officer</text>
</a>
</g>
</g>
<!-- 0&#45;&gt;2 -->
<g id="edge2" class="edge">
<title>0&#45;&gt;2</title>
<path fill="none" stroke="black" d="M728.12,-93.88C685.22,-86.92 627,-77.45 575.69,-69 502.06,-56.87 418.3,-42.9 358.03,-32.81"/>
<polygon fill="black" stroke="black" points="358.26,-29.3 347.82,-31.1 357.1,-36.2 358.26,-29.3"/>
<text text-anchor="middle" x="591.19" y="-57.8" font-family="Times New Roman,serif" font-size="14.00">0.067</text>
</g>
<!-- 3 -->
<g id="node4" class="node">
<title>3</title>
<g id="a_node4"><a xlink:href="from_project manager.svg" xlink:title="project manager">
<ellipse fill="none" stroke="black" cx="467.69" cy="-18" rx="68.79" ry="18"/>
<text text-anchor="middle" x="467.69" y="-14.3" font-family="Times New Roman,serif" font-size="14.00">project manager</text>
</a>
</g>
</g>
<!-- 0&#45;&gt;3 -->
<g id="edge3" class="edge">
<title>0&#45;&gt;3</title>
<path fill="none" stroke="black" d="M740.93,-90.91C682.43,-75.51 585.56,-50.02 524.26,-33.89"/>
<polygon fill="black" stroke="black" points="524.92,-30.44 514.36,-31.28 523.14,-37.21 524.92,-30.44"/>
<text text-anchor="middle" x="664.19" y="-57.8" font-family="Times New Roman,serif" font-size="14.00">0.054</text>
</g>
<!-- 4 -->
<g id="node5" class="node">
<title>4</title>
<g id="a_node5"><a xlink:href="from_financial manager.svg" xlink:title="financial manager">
<ellipse fill="none" stroke="black" cx="627.69" cy="-18" rx="73.39" ry="18"/>
<text text-anchor="middle" x="627.69" y="-14.3" font-family="Times New Roman,serif" font-size="14.00">financial manager</text>
</a>
</g>
</g>
<!-- 0&#45;&gt;4 -->
<g id="edge5" class="edge">
<title>0&#45;&gt;4</title>
<path fill="none" stroke="black" d="M760.42,-88.21C733.91,-74.39 695.26,-54.24 666.5,-39.23"/>
<polygon fill="black" stroke="black" points="668.02,-36.08 657.53,-34.56 664.78,-42.29 668.02,-36.08"/>
<text text-anchor="middle" x="735.19" y="-57.8" font-family="Times New Roman,serif" font-size="14.00">0.040</text>
</g>
<!-- 5 -->
<g id="node6" class="node">
<title>5</title>
<g id="a_node6"><a xlink:href="from_heritage manager.svg" xlink:title="heritage manager">
<ellipse fill="none" stroke="black" cx="790.69" cy="-18" rx="71.49" ry="18"/>
<text text-anchor="middle" x="790.69" y="-14.3" font-family="Times New Roman,serif" font-size="14.00">heritage manager</text>
</a>
</g>
</g>
<!-- 0&#45;&gt;5 -->
<g id="edge6" class="edge">
<title>0&#45;&gt;5</title>
<path fill="none" stroke="black" d="M790.69,-86.8C790.69,-75.16 790.69,-59.55 790.69,-46.24"/>
<polygon fill="black" stroke="black" points="794.19,-46.18 790.69,-36.18 787.19,-46.18 794.19,-46.18"/>
<text text-anchor="middle" x="806.19" y="-57.8" font-family="Times New Roman,serif" font-size="14.00">0.040</text>
</g>
<!-- 6 -->
<g id="node7" class="node">
<title>6</title>
<g id="a_node7"><a xlink:href="from_it consultant.svg" xlink:title="it consultant">
<ellipse fill="none" stroke="black" cx="934.69" cy="-18" rx="54.69" ry="18"/>
<text text-anchor="middle" x="934.69" y="-14.3" font-family="Times New Roman,serif" font-size="14.00">it consultant</text>
</a>
</g>
</g>
<!-- 0&#45;&gt;6 -->
<g id="edge7" class="edge">
<title>0&#45;&gt;6</title>
<path fill="none" stroke="black" d="M817.78,-88.01C841.14,-74.22 875.01,-54.23 900.29,-39.31"/>
<polygon fill="black" stroke="black" points="902.35,-42.16 909.18,-34.06 898.79,-36.13 902.35,-42.16"/>
<text text-anchor="middle" x="887.19" y="-57.8" font-family="Times New Roman,serif" font-size="14.00">0.040</text>
</g>
<!-- 7 -->
<g id="node8" class="node">
<title>7</title>
<g id="a_node8"><a xlink:href="from_environmental scientist.svg" xlink:title="environmental scientist">
<ellipse fill="none" stroke="black" cx="1100.69" cy="-18" rx="92.88" ry="18"/>
<text text-anchor="middle" x="1100.69" y="-14.3" font-family="Times New Roman,serif" font-size="14.00">environmental scientist</text>
</a>
</g>
</g>
<!-- 0&#45;&gt;7 -->
<g id="edge8" class="edge">
<title>0&#45;&gt;7</title>
<path fill="none" stroke="black" d="M839.13,-90.72C893.22,-75.89 980.86,-51.86 1039.61,-35.75"/>
<polygon fill="black" stroke="black" points="1040.78,-39.06 1049.5,-33.04 1038.93,-32.31 1040.78,-39.06"/>
<text text-anchor="middle" x="980.19" y="-57.8" font-family="Times New Roman,serif" font-size="14.00">0.027</text>
</g>
<!-- 8 -->
<g id="node9" class="node">
<title>8</title>
<g id="a_node9"><a xlink:href="from_fitness centre manager.svg" xlink:title="fitness centre manager">
<ellipse fill="none" stroke="black" cx="1302.69" cy="-18" rx="90.98" ry="18"/>
<text text-anchor="middle" x="1302.69" y="-14.3" font-family="Times New Roman,serif" font-size="14.00">fitness centre manager</text>
</a>
</g>
</g>
<!-- 0&#45;&gt;8 -->
<g id="edge9" class="edge">
<title>0&#45;&gt;8</title>
<path fill="none" stroke="black" d="M853.18,-93.78C933.92,-80.56 1078.82,-56.75 1202.69,-36 1210.33,-34.72 1218.28,-33.38 1226.23,-32.04"/>
<polygon fill="black" stroke="black" points="1226.99,-35.46 1236.27,-30.34 1225.83,-28.56 1226.99,-35.46"/>
<text text-anchor="middle" x="1105.19" y="-57.8" font-family="Times New Roman,serif" font-size="14.00">0.027</text>
</g>
<!-- 9 -->
<g id="node10" class="node">
<title>9</title>
<g id="a_node10"><a xlink:href="from_legal executive.svg" xlink:title="legal executive">
<ellipse fill="none" stroke="black" cx="1474.69" cy="-18" rx="63.09" ry="18"/>
<text text-anchor="middle" x="1474.69" y="-14.3" font-family="Times New Roman,serif" font-size="14.00">legal executive</text>
</a>
</g>
</g>
<!-- 0&#45;&gt;9 -->
<g id="edge10" class="edge">
<title>0&#45;&gt;9</title>
<path fill="none" stroke="black" d="M865.56,-98.8C981.35,-90.06 1210.57,-69.97 1402.69,-36 1408.07,-35.05 1413.64,-33.95 1419.2,-32.77"/>
<polygon fill="black" stroke="black" points="1420.13,-36.15 1429.15,-30.58 1418.63,-29.31 1420.13,-36.15"/>
<text text-anchor="middle" x="1302.19" y="-57.8" font-family="Times New Roman,serif" font-size="14.00">0.027</text>
</g>
</g>
</svg>
