<?xml version="1.0" encoding="UTF-8" standalone="no"?>
<!DOCTYPE svg PUBLIC "-//W3C//DTD SVG 1.1//EN"
 "http://www.w3.org/Graphics/SVG/1.1/DTD/svg11.dtd">
<!-- Generated by graphviz version 2.44.1 (20200629.0800)
 -->
<!-- Title: welfare_rights_adviser Pages: 1 -->
<svg width="1509pt" height="131pt"
 viewBox="0.00 0.00 1508.59 131.00" xmlns="http://www.w3.org/2000/svg" xmlns:xlink="http://www.w3.org/1999/xlink">
<g id="graph0" class="graph" transform="scale(1 1) rotate(0) translate(4 127)">
<title>welfare_rights_adviser</title>
<polygon fill="white" stroke="transparent" points="-4,4 -4,-127 1504.59,-127 1504.59,4 -4,4"/>
<!-- 0 -->
<g id="node1" class="node">
<title>0</title>
<g id="a_node1"><a xlink:href="from_welfare rights adviser.svg" xlink:title="welfare rights adviser">
<ellipse fill="none" stroke="black" cx="703.99" cy="-105" rx="87.18" ry="18"/>
<text text-anchor="middle" x="703.99" y="-101.3" font-family="Times New Roman,serif" font-size="14.00">welfare rights adviser</text>
</a>
</g>
</g>
<!-- 0&#45;&gt;0 -->
<g id="edge9" class="edge">
<title>0&#45;&gt;0</title>
<path fill="none" stroke="black" d="M783.28,-112.5C798.4,-111.6 809.09,-109.1 809.09,-105 809.09,-101.89 802.95,-99.7 793.39,-98.44"/>
<polygon fill="black" stroke="black" points="793.56,-94.94 783.28,-97.5 792.91,-101.91 793.56,-94.94"/>
<text text-anchor="middle" x="821.59" y="-101.3" font-family="Times New Roman,serif" font-size="14.00">0.04</text>
</g>
<!-- 1 -->
<g id="node2" class="node">
<title>1</title>
<g id="a_node2"><a xlink:href="from_careers adviser.svg" xlink:title="careers adviser">
<ellipse fill="none" stroke="black" cx="64.99" cy="-18" rx="64.99" ry="18"/>
<text text-anchor="middle" x="64.99" y="-14.3" font-family="Times New Roman,serif" font-size="14.00">careers adviser</text>
</a>
</g>
</g>
<!-- 0&#45;&gt;1 -->
<g id="edge1" class="edge">
<title>0&#45;&gt;1</title>
<path fill="none" stroke="black" d="M623.96,-97.67C514.03,-88.22 310.4,-68.04 138.99,-36 133.57,-34.99 127.94,-33.85 122.31,-32.66"/>
<polygon fill="black" stroke="black" points="122.76,-29.17 112.25,-30.46 121.27,-36.01 122.76,-29.17"/>
<text text-anchor="middle" x="352.49" y="-57.8" font-family="Times New Roman,serif" font-size="14.00">0.08</text>
</g>
<!-- 2 -->
<g id="node3" class="node">
<title>2</title>
<g id="a_node3"><a xlink:href="from_project manager.svg" xlink:title="project manager">
<ellipse fill="none" stroke="black" cx="216.99" cy="-18" rx="68.79" ry="18"/>
<text text-anchor="middle" x="216.99" y="-14.3" font-family="Times New Roman,serif" font-size="14.00">project manager</text>
</a>
</g>
</g>
<!-- 0&#45;&gt;2 -->
<g id="edge2" class="edge">
<title>0&#45;&gt;2</title>
<path fill="none" stroke="black" d="M635.4,-93.8C553.98,-81.42 414.21,-59.28 294.99,-36 289.33,-34.89 283.44,-33.7 277.56,-32.47"/>
<polygon fill="black" stroke="black" points="278.2,-29.03 267.7,-30.39 276.76,-35.88 278.2,-29.03"/>
<text text-anchor="middle" x="487.49" y="-57.8" font-family="Times New Roman,serif" font-size="14.00">0.06</text>
</g>
<!-- 3 -->
<g id="node4" class="node">
<title>3</title>
<g id="a_node4"><a xlink:href="from_sales manager.svg" xlink:title="sales manager">
<ellipse fill="none" stroke="black" cx="364.99" cy="-18" rx="61.19" ry="18"/>
<text text-anchor="middle" x="364.99" y="-14.3" font-family="Times New Roman,serif" font-size="14.00">sales manager</text>
</a>
</g>
</g>
<!-- 0&#45;&gt;3 -->
<g id="edge3" class="edge">
<title>0&#45;&gt;3</title>
<path fill="none" stroke="black" d="M650.65,-90.63C587.64,-74.83 483.37,-48.68 419.75,-32.73"/>
<polygon fill="black" stroke="black" points="420.46,-29.3 409.9,-30.26 418.75,-36.09 420.46,-29.3"/>
<text text-anchor="middle" x="567.49" y="-57.8" font-family="Times New Roman,serif" font-size="14.00">0.06</text>
</g>
<!-- 4 -->
<g id="node5" class="node">
<title>4</title>
<g id="a_node5"><a xlink:href="from_civil service administrator.svg" xlink:title="civil service administrator">
<ellipse fill="none" stroke="black" cx="546.99" cy="-18" rx="102.88" ry="18"/>
<text text-anchor="middle" x="546.99" y="-14.3" font-family="Times New Roman,serif" font-size="14.00">civil service administrator</text>
</a>
</g>
</g>
<!-- 0&#45;&gt;4 -->
<g id="edge4" class="edge">
<title>0&#45;&gt;4</title>
<path fill="none" stroke="black" d="M674.46,-88.01C649.48,-74.49 613.49,-55 586.12,-40.18"/>
<polygon fill="black" stroke="black" points="587.65,-37.03 577.19,-35.35 584.32,-43.19 587.65,-37.03"/>
<text text-anchor="middle" x="647.49" y="-57.8" font-family="Times New Roman,serif" font-size="14.00">0.04</text>
</g>
<!-- 5 -->
<g id="node6" class="node">
<title>5</title>
<g id="a_node6"><a xlink:href="from_curator.svg" xlink:title="curator">
<ellipse fill="none" stroke="black" cx="703.99" cy="-18" rx="36.29" ry="18"/>
<text text-anchor="middle" x="703.99" y="-14.3" font-family="Times New Roman,serif" font-size="14.00">curator</text>
</a>
</g>
</g>
<!-- 0&#45;&gt;5 -->
<g id="edge5" class="edge">
<title>0&#45;&gt;5</title>
<path fill="none" stroke="black" d="M703.99,-86.8C703.99,-75.16 703.99,-59.55 703.99,-46.24"/>
<polygon fill="black" stroke="black" points="707.49,-46.18 703.99,-36.18 700.49,-46.18 707.49,-46.18"/>
<text text-anchor="middle" x="716.49" y="-57.8" font-family="Times New Roman,serif" font-size="14.00">0.04</text>
</g>
<!-- 6 -->
<g id="node7" class="node">
<title>6</title>
<g id="a_node7"><a xlink:href="from_health and safety adviser.svg" xlink:title="health and safety adviser">
<ellipse fill="none" stroke="black" cx="857.99" cy="-18" rx="99.38" ry="18"/>
<text text-anchor="middle" x="857.99" y="-14.3" font-family="Times New Roman,serif" font-size="14.00">health and safety adviser</text>
</a>
</g>
</g>
<!-- 0&#45;&gt;6 -->
<g id="edge6" class="edge">
<title>0&#45;&gt;6</title>
<path fill="none" stroke="black" d="M732.96,-88.01C757.54,-74.45 792.99,-54.88 819.87,-40.04"/>
<polygon fill="black" stroke="black" points="821.57,-43.1 828.63,-35.21 818.19,-36.97 821.57,-43.1"/>
<text text-anchor="middle" x="803.49" y="-57.8" font-family="Times New Roman,serif" font-size="14.00">0.04</text>
</g>
<!-- 7 -->
<g id="node8" class="node">
<title>7</title>
<g id="a_node8"><a xlink:href="from_human resources officer.svg" xlink:title="human resources officer">
<ellipse fill="none" stroke="black" cx="1073.99" cy="-18" rx="98.58" ry="18"/>
<text text-anchor="middle" x="1073.99" y="-14.3" font-family="Times New Roman,serif" font-size="14.00">human resources officer</text>
</a>
</g>
</g>
<!-- 0&#45;&gt;7 -->
<g id="edge7" class="edge">
<title>0&#45;&gt;7</title>
<path fill="none" stroke="black" d="M760.19,-91.09C825.8,-76.02 934.32,-51.09 1004.98,-34.85"/>
<polygon fill="black" stroke="black" points="1006.16,-38.17 1015.13,-32.52 1004.6,-31.35 1006.16,-38.17"/>
<text text-anchor="middle" x="924.49" y="-57.8" font-family="Times New Roman,serif" font-size="14.00">0.04</text>
</g>
<!-- 8 -->
<g id="node9" class="node">
<title>8</title>
<g id="a_node9"><a xlink:href="from_pharmacovigilance officer.svg" xlink:title="pharmacovigilance officer">
<ellipse fill="none" stroke="black" cx="1294.99" cy="-18" rx="104.78" ry="18"/>
<text text-anchor="middle" x="1294.99" y="-14.3" font-family="Times New Roman,serif" font-size="14.00">pharmacovigilance officer</text>
</a>
</g>
</g>
<!-- 0&#45;&gt;8 -->
<g id="edge8" class="edge">
<title>0&#45;&gt;8</title>
<path fill="none" stroke="black" d="M774.08,-94.21C867.26,-81.15 1037.06,-57.21 1181.99,-36 1190.86,-34.7 1200.11,-33.33 1209.34,-31.96"/>
<polygon fill="black" stroke="black" points="1209.96,-35.41 1219.33,-30.47 1208.92,-28.48 1209.96,-35.41"/>
<text text-anchor="middle" x="1063.49" y="-57.8" font-family="Times New Roman,serif" font-size="14.00">0.04</text>
</g>
<!-- 9 -->
<g id="node10" class="node">
<title>9</title>
<g id="a_node10"><a xlink:href="from_architect.svg" xlink:title="architect">
<ellipse fill="none" stroke="black" cx="1458.99" cy="-18" rx="41.69" ry="18"/>
<text text-anchor="middle" x="1458.99" y="-14.3" font-family="Times New Roman,serif" font-size="14.00">architect</text>
</a>
</g>
</g>
<!-- 0&#45;&gt;9 -->
<g id="edge10" class="edge">
<title>0&#45;&gt;9</title>
<path fill="none" stroke="black" d="M790.19,-102.2C924.05,-97.95 1189.4,-83.69 1408.99,-36 1412.37,-35.27 1415.83,-34.38 1419.28,-33.41"/>
<polygon fill="black" stroke="black" points="1420.36,-36.74 1428.9,-30.46 1418.31,-30.04 1420.36,-36.74"/>
<text text-anchor="middle" x="1327.49" y="-57.8" font-family="Times New Roman,serif" font-size="14.00">0.02</text>
</g>
</g>
</svg>
