<?xml version="1.0" encoding="UTF-8" standalone="no"?>
<!DOCTYPE svg PUBLIC "-//W3C//DTD SVG 1.1//EN"
 "http://www.w3.org/Graphics/SVG/1.1/DTD/svg11.dtd">
<!-- Generated by graphviz version 2.44.1 (20200629.0800)
 -->
<!-- Title: test Pages: 1 -->
<svg width="1413pt" height="131pt"
 viewBox="0.00 0.00 1412.99 131.00" xmlns="http://www.w3.org/2000/svg" xmlns:xlink="http://www.w3.org/1999/xlink">
<g id="graph0" class="graph" transform="scale(1 1) rotate(0) translate(4 127)">
<title>test</title>
<polygon fill="white" stroke="transparent" points="-4,4 -4,-127 1408.99,-127 1408.99,4 -4,4"/>
<!-- 0 -->
<g id="node1" class="node">
<title>0</title>
<g id="a_node1"><a xlink:href="from_patent attorney.svg" xlink:title="patent attorney">
<ellipse fill="none" stroke="black" cx="616.4" cy="-105" rx="64.19" ry="18"/>
<text text-anchor="middle" x="616.4" y="-101.3" font-family="Times New Roman,serif" font-size="14.00">patent attorney</text>
</a>
</g>
</g>
<!-- 0&#45;&gt;0 -->
<g id="edge1" class="edge">
<title>0&#45;&gt;0</title>
<path fill="none" stroke="black" d="M674.87,-112.72C688.61,-112.08 698.74,-109.51 698.74,-105 698.74,-101.69 693.27,-99.42 684.93,-98.2"/>
<polygon fill="black" stroke="black" points="685.14,-94.7 674.87,-97.28 684.51,-101.67 685.14,-94.7"/>
<text text-anchor="middle" x="714.24" y="-101.3" font-family="Times New Roman,serif" font-size="14.00">0.380</text>
</g>
<!-- 1 -->
<g id="node2" class="node">
<title>1</title>
<g id="a_node2"><a xlink:href="from_curator.svg" xlink:title="curator">
<ellipse fill="none" stroke="black" cx="36.4" cy="-18" rx="36.29" ry="18"/>
<text text-anchor="middle" x="36.4" y="-14.3" font-family="Times New Roman,serif" font-size="14.00">curator</text>
</a>
</g>
</g>
<!-- 0&#45;&gt;1 -->
<g id="edge2" class="edge">
<title>0&#45;&gt;1</title>
<path fill="none" stroke="black" d="M553.18,-101.38C452.01,-95.98 248.16,-80.17 81.4,-36 78.6,-35.26 75.73,-34.41 72.86,-33.49"/>
<polygon fill="black" stroke="black" points="73.83,-30.12 63.23,-30.16 71.54,-36.73 73.83,-30.12"/>
<text text-anchor="middle" x="241.9" y="-57.8" font-family="Times New Roman,serif" font-size="14.00">0.142</text>
</g>
<!-- 2 -->
<g id="node3" class="node">
<title>2</title>
<g id="a_node3"><a xlink:href="from_careers adviser.svg" xlink:title="careers adviser">
<ellipse fill="none" stroke="black" cx="155.4" cy="-18" rx="64.99" ry="18"/>
<text text-anchor="middle" x="155.4" y="-14.3" font-family="Times New Roman,serif" font-size="14.00">careers adviser</text>
</a>
</g>
</g>
<!-- 0&#45;&gt;2 -->
<g id="edge3" class="edge">
<title>0&#45;&gt;2</title>
<path fill="none" stroke="black" d="M561.75,-95.32C486.65,-83.17 347.4,-59.91 229.4,-36 224.07,-34.92 218.53,-33.75 213,-32.54"/>
<polygon fill="black" stroke="black" points="213.61,-29.09 203.09,-30.34 212.09,-35.92 213.61,-29.09"/>
<text text-anchor="middle" x="414.9" y="-57.8" font-family="Times New Roman,serif" font-size="14.00">0.095</text>
</g>
<!-- 3 -->
<g id="node4" class="node">
<title>3</title>
<g id="a_node4"><a xlink:href="from_pharmacovigilance officer.svg" xlink:title="pharmacovigilance officer">
<ellipse fill="none" stroke="black" cx="343.4" cy="-18" rx="104.78" ry="18"/>
<text text-anchor="middle" x="343.4" y="-14.3" font-family="Times New Roman,serif" font-size="14.00">pharmacovigilance officer</text>
</a>
</g>
</g>
<!-- 0&#45;&gt;3 -->
<g id="edge4" class="edge">
<title>0&#45;&gt;3</title>
<path fill="none" stroke="black" d="M574.93,-91.09C528.69,-76.69 453.56,-53.3 401.48,-37.08"/>
<polygon fill="black" stroke="black" points="402.3,-33.67 391.71,-34.04 400.21,-40.36 402.3,-33.67"/>
<text text-anchor="middle" x="511.9" y="-57.8" font-family="Times New Roman,serif" font-size="14.00">0.095</text>
</g>
<!-- 4 -->
<g id="node5" class="node">
<title>4</title>
<g id="a_node5"><a xlink:href="from_animator.svg" xlink:title="animator">
<ellipse fill="none" stroke="black" cx="508.4" cy="-18" rx="42.49" ry="18"/>
<text text-anchor="middle" x="508.4" y="-14.3" font-family="Times New Roman,serif" font-size="14.00">animator</text>
</a>
</g>
</g>
<!-- 0&#45;&gt;4 -->
<g id="edge5" class="edge">
<title>0&#45;&gt;4</title>
<path fill="none" stroke="black" d="M595.83,-87.81C578.77,-74.39 554.37,-55.18 535.68,-40.47"/>
<polygon fill="black" stroke="black" points="537.82,-37.7 527.8,-34.27 533.49,-43.2 537.82,-37.7"/>
<text text-anchor="middle" x="584.9" y="-57.8" font-family="Times New Roman,serif" font-size="14.00">0.047</text>
</g>
<!-- 5 -->
<g id="node6" class="node">
<title>5</title>
<g id="a_node6"><a xlink:href="from_counsellor.svg" xlink:title="counsellor">
<ellipse fill="none" stroke="black" cx="616.4" cy="-18" rx="48.19" ry="18"/>
<text text-anchor="middle" x="616.4" y="-14.3" font-family="Times New Roman,serif" font-size="14.00">counsellor</text>
</a>
</g>
</g>
<!-- 0&#45;&gt;5 -->
<g id="edge6" class="edge">
<title>0&#45;&gt;5</title>
<path fill="none" stroke="black" d="M616.4,-86.8C616.4,-75.16 616.4,-59.55 616.4,-46.24"/>
<polygon fill="black" stroke="black" points="619.9,-46.18 616.4,-36.18 612.9,-46.18 619.9,-46.18"/>
<text text-anchor="middle" x="631.9" y="-57.8" font-family="Times New Roman,serif" font-size="14.00">0.047</text>
</g>
<!-- 6 -->
<g id="node7" class="node">
<title>6</title>
<g id="a_node7"><a xlink:href="from_education administrator.svg" xlink:title="education administrator">
<ellipse fill="none" stroke="black" cx="778.4" cy="-18" rx="95.58" ry="18"/>
<text text-anchor="middle" x="778.4" y="-14.3" font-family="Times New Roman,serif" font-size="14.00">education administrator</text>
</a>
</g>
</g>
<!-- 0&#45;&gt;6 -->
<g id="edge7" class="edge">
<title>0&#45;&gt;6</title>
<path fill="none" stroke="black" d="M645.36,-88.8C671.39,-75.14 709.86,-54.96 738.74,-39.81"/>
<polygon fill="black" stroke="black" points="740.53,-42.82 747.76,-35.08 737.28,-36.62 740.53,-42.82"/>
<text text-anchor="middle" x="722.9" y="-57.8" font-family="Times New Roman,serif" font-size="14.00">0.047</text>
</g>
<!-- 7 -->
<g id="node8" class="node">
<title>7</title>
<g id="a_node8"><a xlink:href="from_forensic scientist.svg" xlink:title="forensic scientist">
<ellipse fill="none" stroke="black" cx="963.4" cy="-18" rx="71.49" ry="18"/>
<text text-anchor="middle" x="963.4" y="-14.3" font-family="Times New Roman,serif" font-size="14.00">forensic scientist</text>
</a>
</g>
</g>
<!-- 0&#45;&gt;7 -->
<g id="edge8" class="edge">
<title>0&#45;&gt;7</title>
<path fill="none" stroke="black" d="M663.19,-92.54C725.61,-77.25 836.13,-50.17 904.25,-33.49"/>
<polygon fill="black" stroke="black" points="905.11,-36.88 913.99,-31.1 903.44,-30.08 905.11,-36.88"/>
<text text-anchor="middle" x="826.9" y="-57.8" font-family="Times New Roman,serif" font-size="14.00">0.047</text>
</g>
<!-- 8 -->
<g id="node9" class="node">
<title>8</title>
<g id="a_node9"><a xlink:href="from_government research officer.svg" xlink:title="government research officer">
<ellipse fill="none" stroke="black" cx="1165.4" cy="-18" rx="112.38" ry="18"/>
<text text-anchor="middle" x="1165.4" y="-14.3" font-family="Times New Roman,serif" font-size="14.00">government research officer</text>
</a>
</g>
</g>
<!-- 0&#45;&gt;8 -->
<g id="edge9" class="edge">
<title>0&#45;&gt;8</title>
<path fill="none" stroke="black" d="M671.71,-95.65C718.31,-88.61 786.72,-78.22 846.4,-69 924.88,-56.88 1014.2,-42.86 1078.32,-32.76"/>
<polygon fill="black" stroke="black" points="1079.05,-36.18 1088.38,-31.17 1077.96,-29.27 1079.05,-36.18"/>
<text text-anchor="middle" x="958.9" y="-57.8" font-family="Times New Roman,serif" font-size="14.00">0.047</text>
</g>
<!-- 9 -->
<g id="node10" class="node">
<title>9</title>
<g id="a_node10"><a xlink:href="from_it consultant.svg" xlink:title="it consultant">
<ellipse fill="none" stroke="black" cx="1350.4" cy="-18" rx="54.69" ry="18"/>
<text text-anchor="middle" x="1350.4" y="-14.3" font-family="Times New Roman,serif" font-size="14.00">it consultant</text>
</a>
</g>
</g>
<!-- 0&#45;&gt;9 -->
<g id="edge10" class="edge">
<title>0&#45;&gt;9</title>
<path fill="none" stroke="black" d="M679.23,-101.07C798.47,-94.74 1065.38,-76.94 1286.4,-36 1291.16,-35.12 1296.09,-34.06 1301.01,-32.92"/>
<polygon fill="black" stroke="black" points="1302.13,-36.25 1311.01,-30.47 1300.46,-29.45 1302.13,-36.25"/>
<text text-anchor="middle" x="1174.9" y="-57.8" font-family="Times New Roman,serif" font-size="14.00">0.047</text>
</g>
</g>
</svg>
