<?xml version="1.0" encoding="UTF-8" standalone="no"?>
<!DOCTYPE svg PUBLIC "-//W3C//DTD SVG 1.1//EN"
 "http://www.w3.org/Graphics/SVG/1.1/DTD/svg11.dtd">
<!-- Generated by graphviz version 2.44.1 (20200629.0800)
 -->
<!-- Title: actuary Pages: 1 -->
<svg width="1294pt" height="131pt"
 viewBox="0.00 0.00 1293.74 131.00" xmlns="http://www.w3.org/2000/svg" xmlns:xlink="http://www.w3.org/1999/xlink">
<g id="graph0" class="graph" transform="scale(1 1) rotate(0) translate(4 127)">
<title>actuary</title>
<polygon fill="white" stroke="transparent" points="-4,4 -4,-127 1289.74,-127 1289.74,4 -4,4"/>
<!-- 0 -->
<g id="node1" class="node">
<title>0</title>
<g id="a_node1"><a xlink:href="from_actuary.svg" xlink:title="actuary">
<ellipse fill="none" stroke="black" cx="582.89" cy="-105" rx="37.09" ry="18"/>
<text text-anchor="middle" x="582.89" y="-101.3" font-family="Times New Roman,serif" font-size="14.00">actuary</text>
</a>
</g>
</g>
<!-- 0&#45;&gt;0 -->
<g id="edge1" class="edge">
<title>0&#45;&gt;0</title>
<path fill="none" stroke="black" d="M616.22,-112.87C628.18,-113.04 637.94,-110.41 637.94,-105 637.94,-101.28 633.33,-98.88 626.56,-97.79"/>
<polygon fill="black" stroke="black" points="626.42,-94.28 616.22,-97.13 625.97,-101.26 626.42,-94.28"/>
<text text-anchor="middle" x="646.94" y="-101.3" font-family="Times New Roman,serif" font-size="14.00">0.4</text>
</g>
<!-- 1 -->
<g id="node2" class="node">
<title>1</title>
<g id="a_node2"><a xlink:href="from_project manager.svg" xlink:title="project manager">
<ellipse fill="none" stroke="black" cx="68.89" cy="-18" rx="68.79" ry="18"/>
<text text-anchor="middle" x="68.89" y="-14.3" font-family="Times New Roman,serif" font-size="14.00">project manager</text>
</a>
</g>
</g>
<!-- 0&#45;&gt;1 -->
<g id="edge2" class="edge">
<title>0&#45;&gt;1</title>
<path fill="none" stroke="black" d="M547.37,-99.41C499.01,-93.06 409.78,-81.03 333.89,-69 250.54,-55.79 229.7,-52.32 146.89,-36 141.23,-34.88 135.35,-33.68 129.46,-32.45"/>
<polygon fill="black" stroke="black" points="130.11,-29.01 119.6,-30.36 128.66,-35.86 130.11,-29.01"/>
<text text-anchor="middle" x="346.39" y="-57.8" font-family="Times New Roman,serif" font-size="14.00">0.12</text>
</g>
<!-- 2 -->
<g id="node3" class="node">
<title>2</title>
<g id="a_node3"><a xlink:href="from_investment analyst.svg" xlink:title="investment analyst">
<ellipse fill="none" stroke="black" cx="232.89" cy="-18" rx="76.89" ry="18"/>
<text text-anchor="middle" x="232.89" y="-14.3" font-family="Times New Roman,serif" font-size="14.00">investment analyst</text>
</a>
</g>
</g>
<!-- 0&#45;&gt;2 -->
<g id="edge3" class="edge">
<title>0&#45;&gt;2</title>
<path fill="none" stroke="black" d="M549.17,-97.34C515.93,-90.65 463.75,-79.81 418.89,-69 375.36,-58.51 326.48,-45.31 289.75,-35.11"/>
<polygon fill="black" stroke="black" points="290.31,-31.63 279.73,-32.32 288.43,-38.38 290.31,-31.63"/>
<text text-anchor="middle" x="431.39" y="-57.8" font-family="Times New Roman,serif" font-size="14.00">0.08</text>
</g>
<!-- 3 -->
<g id="node4" class="node">
<title>3</title>
<g id="a_node4"><a xlink:href="from_lecturer.svg" xlink:title="lecturer">
<ellipse fill="none" stroke="black" cx="364.89" cy="-18" rx="37.89" ry="18"/>
<text text-anchor="middle" x="364.89" y="-14.3" font-family="Times New Roman,serif" font-size="14.00">lecturer</text>
</a>
</g>
</g>
<!-- 0&#45;&gt;3 -->
<g id="edge4" class="edge">
<title>0&#45;&gt;3</title>
<path fill="none" stroke="black" d="M553.27,-94.03C533.51,-87.26 507.02,-77.94 483.89,-69 455.79,-58.14 424.37,-44.89 400.88,-34.76"/>
<polygon fill="black" stroke="black" points="402.22,-31.53 391.65,-30.77 399.44,-37.95 402.22,-31.53"/>
<text text-anchor="middle" x="496.39" y="-57.8" font-family="Times New Roman,serif" font-size="14.00">0.08</text>
</g>
<!-- 4 -->
<g id="node5" class="node">
<title>4</title>
<g id="a_node5"><a xlink:href="from_auditor.svg" xlink:title="auditor">
<ellipse fill="none" stroke="black" cx="456.89" cy="-18" rx="36.29" ry="18"/>
<text text-anchor="middle" x="456.89" y="-14.3" font-family="Times New Roman,serif" font-size="14.00">auditor</text>
</a>
</g>
</g>
<!-- 0&#45;&gt;4 -->
<g id="edge5" class="edge">
<title>0&#45;&gt;4</title>
<path fill="none" stroke="black" d="M562.09,-89.96C541.39,-76 509.44,-54.45 486.18,-38.76"/>
<polygon fill="black" stroke="black" points="487.98,-35.75 477.73,-33.06 484.06,-41.55 487.98,-35.75"/>
<text text-anchor="middle" x="540.39" y="-57.8" font-family="Times New Roman,serif" font-size="14.00">0.04</text>
</g>
<!-- 5 -->
<g id="node6" class="node">
<title>5</title>
<g id="a_node6"><a xlink:href="from_catering manager.svg" xlink:title="catering manager">
<ellipse fill="none" stroke="black" cx="582.89" cy="-18" rx="71.49" ry="18"/>
<text text-anchor="middle" x="582.89" y="-14.3" font-family="Times New Roman,serif" font-size="14.00">catering manager</text>
</a>
</g>
</g>
<!-- 0&#45;&gt;5 -->
<g id="edge6" class="edge">
<title>0&#45;&gt;5</title>
<path fill="none" stroke="black" d="M582.89,-86.8C582.89,-75.16 582.89,-59.55 582.89,-46.24"/>
<polygon fill="black" stroke="black" points="586.39,-46.18 582.89,-36.18 579.39,-46.18 586.39,-46.18"/>
<text text-anchor="middle" x="595.39" y="-57.8" font-family="Times New Roman,serif" font-size="14.00">0.04</text>
</g>
<!-- 6 -->
<g id="node7" class="node">
<title>6</title>
<g id="a_node7"><a xlink:href="from_chemical engineer.svg" xlink:title="chemical engineer">
<ellipse fill="none" stroke="black" cx="746.89" cy="-18" rx="74.99" ry="18"/>
<text text-anchor="middle" x="746.89" y="-14.3" font-family="Times New Roman,serif" font-size="14.00">chemical engineer</text>
</a>
</g>
</g>
<!-- 0&#45;&gt;6 -->
<g id="edge7" class="edge">
<title>0&#45;&gt;6</title>
<path fill="none" stroke="black" d="M607.45,-91.27C633.93,-77.55 676.47,-55.5 707.61,-39.36"/>
<polygon fill="black" stroke="black" points="709.61,-42.27 716.88,-34.56 706.39,-36.05 709.61,-42.27"/>
<text text-anchor="middle" x="687.39" y="-57.8" font-family="Times New Roman,serif" font-size="14.00">0.04</text>
</g>
<!-- 7 -->
<g id="node8" class="node">
<title>7</title>
<g id="a_node8"><a xlink:href="from_civil engineer.svg" xlink:title="civil engineer">
<ellipse fill="none" stroke="black" cx="897.89" cy="-18" rx="57.69" ry="18"/>
<text text-anchor="middle" x="897.89" y="-14.3" font-family="Times New Roman,serif" font-size="14.00">civil engineer</text>
</a>
</g>
</g>
<!-- 0&#45;&gt;7 -->
<g id="edge8" class="edge">
<title>0&#45;&gt;7</title>
<path fill="none" stroke="black" d="M614.54,-95.46C668.78,-80.82 780,-50.81 845.82,-33.05"/>
<polygon fill="black" stroke="black" points="846.84,-36.4 855.58,-30.42 845.01,-29.64 846.84,-36.4"/>
<text text-anchor="middle" x="772.39" y="-57.8" font-family="Times New Roman,serif" font-size="14.00">0.04</text>
</g>
<!-- 8 -->
<g id="node9" class="node">
<title>8</title>
<g id="a_node9"><a xlink:href="from_commissioning editor.svg" xlink:title="commissioning editor">
<ellipse fill="none" stroke="black" cx="1062.89" cy="-18" rx="89.08" ry="18"/>
<text text-anchor="middle" x="1062.89" y="-14.3" font-family="Times New Roman,serif" font-size="14.00">commissioning editor</text>
</a>
</g>
</g>
<!-- 0&#45;&gt;8 -->
<g id="edge9" class="edge">
<title>0&#45;&gt;8</title>
<path fill="none" stroke="black" d="M617.54,-98.25C658.5,-91.41 728.7,-79.61 788.89,-69 857.04,-56.99 934.61,-42.79 989.78,-32.59"/>
<polygon fill="black" stroke="black" points="990.62,-36 999.81,-30.74 989.34,-29.11 990.62,-36"/>
<text text-anchor="middle" x="884.39" y="-57.8" font-family="Times New Roman,serif" font-size="14.00">0.04</text>
</g>
<!-- 9 -->
<g id="node10" class="node">
<title>9</title>
<g id="a_node10"><a xlink:href="from_data scientist.svg" xlink:title="data scientist">
<ellipse fill="none" stroke="black" cx="1227.89" cy="-18" rx="57.69" ry="18"/>
<text text-anchor="middle" x="1227.89" y="-14.3" font-family="Times New Roman,serif" font-size="14.00">data scientist</text>
</a>
</g>
</g>
<!-- 0&#45;&gt;9 -->
<g id="edge10" class="edge">
<title>0&#45;&gt;9</title>
<path fill="none" stroke="black" d="M619.35,-101.5C710.98,-94.83 958.13,-74.44 1160.89,-36 1165.85,-35.06 1170.99,-33.97 1176.11,-32.81"/>
<polygon fill="black" stroke="black" points="1176.97,-36.2 1185.89,-30.49 1175.36,-29.39 1176.97,-36.2"/>
<text text-anchor="middle" x="1064.39" y="-57.8" font-family="Times New Roman,serif" font-size="14.00">0.04</text>
</g>
</g>
</svg>
