<?xml version="1.0" encoding="UTF-8" standalone="no"?>
<!DOCTYPE svg PUBLIC "-//W3C//DTD SVG 1.1//EN"
 "http://www.w3.org/Graphics/SVG/1.1/DTD/svg11.dtd">
<!-- Generated by graphviz version 2.44.1 (20200629.0800)
 -->
<!-- Title: test Pages: 1 -->
<svg width="1381pt" height="131pt"
 viewBox="0.00 0.00 1381.34 131.00" xmlns="http://www.w3.org/2000/svg" xmlns:xlink="http://www.w3.org/1999/xlink">
<g id="graph0" class="graph" transform="scale(1 1) rotate(0) translate(4 127)">
<title>test</title>
<polygon fill="white" stroke="transparent" points="-4,4 -4,-127 1377.34,-127 1377.34,4 -4,4"/>
<!-- 0 -->
<g id="node1" class="node">
<title>0</title>
<g id="a_node1"><a xlink:href="from_personal assistant.svg" xlink:title="personal assistant">
<ellipse fill="none" stroke="black" cx="709.64" cy="-105" rx="74.99" ry="18"/>
<text text-anchor="middle" x="709.64" y="-101.3" font-family="Times New Roman,serif" font-size="14.00">personal assistant</text>
</a>
</g>
</g>
<!-- 0&#45;&gt;0 -->
<g id="edge1" class="edge">
<title>0&#45;&gt;0</title>
<path fill="none" stroke="black" d="M777.58,-112.62C791.98,-111.85 802.38,-109.31 802.38,-105 802.38,-101.8 796.65,-99.58 787.81,-98.33"/>
<polygon fill="black" stroke="black" points="787.86,-94.82 777.58,-97.38 787.21,-101.79 787.86,-94.82"/>
<text text-anchor="middle" x="817.88" y="-101.3" font-family="Times New Roman,serif" font-size="14.00">0.142</text>
</g>
<!-- 1 -->
<g id="node2" class="node">
<title>1</title>
<g id="a_node2"><a xlink:href="from_pharmacovigilance officer.svg" xlink:title="pharmacovigilance officer">
<ellipse fill="none" stroke="black" cx="104.64" cy="-18" rx="104.78" ry="18"/>
<text text-anchor="middle" x="104.64" y="-14.3" font-family="Times New Roman,serif" font-size="14.00">pharmacovigilance officer</text>
</a>
</g>
</g>
<!-- 0&#45;&gt;1 -->
<g id="edge2" class="edge">
<title>0&#45;&gt;1</title>
<path fill="none" stroke="black" d="M643.62,-96.51C585.81,-89.81 499.56,-79.45 424.64,-69 343.89,-57.74 251.96,-43.19 187.42,-32.7"/>
<polygon fill="black" stroke="black" points="187.73,-29.2 177.3,-31.05 186.61,-36.11 187.73,-29.2"/>
<text text-anchor="middle" x="440.14" y="-57.8" font-family="Times New Roman,serif" font-size="14.00">0.060</text>
</g>
<!-- 2 -->
<g id="node3" class="node">
<title>2</title>
<g id="a_node3"><a xlink:href="from_project manager.svg" xlink:title="project manager">
<ellipse fill="none" stroke="black" cx="296.64" cy="-18" rx="68.79" ry="18"/>
<text text-anchor="middle" x="296.64" y="-14.3" font-family="Times New Roman,serif" font-size="14.00">project manager</text>
</a>
</g>
</g>
<!-- 0&#45;&gt;2 -->
<g id="edge3" class="edge">
<title>0&#45;&gt;2</title>
<path fill="none" stroke="black" d="M652.52,-93.26C616.87,-86.48 570.04,-77.44 528.64,-69 460.05,-55.02 443.06,-50.79 374.64,-36 369.22,-34.83 363.59,-33.61 357.95,-32.38"/>
<polygon fill="black" stroke="black" points="358.34,-28.89 347.82,-30.18 356.85,-35.73 358.34,-28.89"/>
<text text-anchor="middle" x="544.14" y="-57.8" font-family="Times New Roman,serif" font-size="14.00">0.045</text>
</g>
<!-- 3 -->
<g id="node4" class="node">
<title>3</title>
<g id="a_node4"><a xlink:href="from_careers adviser.svg" xlink:title="careers adviser">
<ellipse fill="none" stroke="black" cx="448.64" cy="-18" rx="64.99" ry="18"/>
<text text-anchor="middle" x="448.64" y="-14.3" font-family="Times New Roman,serif" font-size="14.00">careers adviser</text>
</a>
</g>
</g>
<!-- 0&#45;&gt;3 -->
<g id="edge4" class="edge">
<title>0&#45;&gt;3</title>
<path fill="none" stroke="black" d="M667.13,-90.15C621.04,-75.15 547.56,-51.22 498.72,-35.31"/>
<polygon fill="black" stroke="black" points="499.58,-31.91 488.99,-32.14 497.42,-38.57 499.58,-31.91"/>
<text text-anchor="middle" x="611.14" y="-57.8" font-family="Times New Roman,serif" font-size="14.00">0.040</text>
</g>
<!-- 4 -->
<g id="node5" class="node">
<title>4</title>
<g id="a_node5"><a xlink:href="from_it consultant.svg" xlink:title="it consultant">
<ellipse fill="none" stroke="black" cx="586.64" cy="-18" rx="54.69" ry="18"/>
<text text-anchor="middle" x="586.64" y="-14.3" font-family="Times New Roman,serif" font-size="14.00">it consultant</text>
</a>
</g>
</g>
<!-- 0&#45;&gt;4 -->
<g id="edge5" class="edge">
<title>0&#45;&gt;4</title>
<path fill="none" stroke="black" d="M686.22,-87.81C666.73,-74.35 638.85,-55.08 617.54,-40.35"/>
<polygon fill="black" stroke="black" points="619.36,-37.36 609.15,-34.55 615.39,-43.12 619.36,-37.36"/>
<text text-anchor="middle" x="671.14" y="-57.8" font-family="Times New Roman,serif" font-size="14.00">0.035</text>
</g>
<!-- 5 -->
<g id="node6" class="node">
<title>5</title>
<g id="a_node6"><a xlink:href="from_accountant.svg" xlink:title="accountant">
<ellipse fill="none" stroke="black" cx="709.64" cy="-18" rx="50.09" ry="18"/>
<text text-anchor="middle" x="709.64" y="-14.3" font-family="Times New Roman,serif" font-size="14.00">accountant</text>
</a>
</g>
</g>
<!-- 0&#45;&gt;5 -->
<g id="edge6" class="edge">
<title>0&#45;&gt;5</title>
<path fill="none" stroke="black" d="M709.64,-86.8C709.64,-75.16 709.64,-59.55 709.64,-46.24"/>
<polygon fill="black" stroke="black" points="713.14,-46.18 709.64,-36.18 706.14,-46.18 713.14,-46.18"/>
<text text-anchor="middle" x="725.14" y="-57.8" font-family="Times New Roman,serif" font-size="14.00">0.030</text>
</g>
<!-- 6 -->
<g id="node7" class="node">
<title>6</title>
<g id="a_node7"><a xlink:href="from_sales manager.svg" xlink:title="sales manager">
<ellipse fill="none" stroke="black" cx="838.64" cy="-18" rx="61.19" ry="18"/>
<text text-anchor="middle" x="838.64" y="-14.3" font-family="Times New Roman,serif" font-size="14.00">sales manager</text>
</a>
</g>
</g>
<!-- 0&#45;&gt;6 -->
<g id="edge7" class="edge">
<title>0&#45;&gt;6</title>
<path fill="none" stroke="black" d="M734.21,-87.81C754.6,-74.37 783.77,-55.15 806.11,-40.44"/>
<polygon fill="black" stroke="black" points="808.18,-43.26 814.6,-34.84 804.33,-37.42 808.18,-43.26"/>
<text text-anchor="middle" x="798.14" y="-57.8" font-family="Times New Roman,serif" font-size="14.00">0.030</text>
</g>
<!-- 7 -->
<g id="node8" class="node">
<title>7</title>
<g id="a_node8"><a xlink:href="from_teaching assistant.svg" xlink:title="teaching assistant">
<ellipse fill="none" stroke="black" cx="991.64" cy="-18" rx="73.39" ry="18"/>
<text text-anchor="middle" x="991.64" y="-14.3" font-family="Times New Roman,serif" font-size="14.00">teaching assistant</text>
</a>
</g>
</g>
<!-- 0&#45;&gt;7 -->
<g id="edge8" class="edge">
<title>0&#45;&gt;7</title>
<path fill="none" stroke="black" d="M754.32,-90.53C804.03,-75.55 884.34,-51.34 937.56,-35.3"/>
<polygon fill="black" stroke="black" points="938.6,-38.64 947.17,-32.41 936.58,-31.94 938.6,-38.64"/>
<text text-anchor="middle" x="883.14" y="-57.8" font-family="Times New Roman,serif" font-size="14.00">0.030</text>
</g>
<!-- 8 -->
<g id="node9" class="node">
<title>8</title>
<g id="a_node9"><a xlink:href="from_human resources officer.svg" xlink:title="human resources officer">
<ellipse fill="none" stroke="black" cx="1181.64" cy="-18" rx="98.58" ry="18"/>
<text text-anchor="middle" x="1181.64" y="-14.3" font-family="Times New Roman,serif" font-size="14.00">human resources officer</text>
</a>
</g>
</g>
<!-- 0&#45;&gt;8 -->
<g id="edge9" class="edge">
<title>0&#45;&gt;8</title>
<path fill="none" stroke="black" d="M767.52,-93.58C852.07,-78.35 1009.56,-49.99 1104.07,-32.97"/>
<polygon fill="black" stroke="black" points="1104.92,-36.37 1114.14,-31.16 1103.68,-29.48 1104.92,-36.37"/>
<text text-anchor="middle" x="990.14" y="-57.8" font-family="Times New Roman,serif" font-size="14.00">0.025</text>
</g>
<!-- 9 -->
<g id="node10" class="node">
<title>9</title>
<g id="a_node10"><a xlink:href="from_lecturer.svg" xlink:title="lecturer">
<ellipse fill="none" stroke="black" cx="1335.64" cy="-18" rx="37.89" ry="18"/>
<text text-anchor="middle" x="1335.64" y="-14.3" font-family="Times New Roman,serif" font-size="14.00">lecturer</text>
</a>
</g>
</g>
<!-- 0&#45;&gt;9 -->
<g id="edge10" class="edge">
<title>0&#45;&gt;9</title>
<path fill="none" stroke="black" d="M782.95,-100.99C893.96,-95.19 1110.71,-78.96 1289.64,-36 1292.43,-35.33 1295.29,-34.54 1298.15,-33.67"/>
<polygon fill="black" stroke="black" points="1299.35,-36.96 1307.75,-30.5 1297.15,-30.32 1299.35,-36.96"/>
<text text-anchor="middle" x="1212.14" y="-57.8" font-family="Times New Roman,serif" font-size="14.00">0.025</text>
</g>
</g>
</svg>
