<?xml version="1.0" encoding="UTF-8" standalone="no"?>
<!DOCTYPE svg PUBLIC "-//W3C//DTD SVG 1.1//EN"
 "http://www.w3.org/Graphics/SVG/1.1/DTD/svg11.dtd">
<!-- Generated by graphviz version 2.44.1 (20200629.0800)
 -->
<!-- Title: food_scientist Pages: 1 -->
<svg width="1693pt" height="131pt"
 viewBox="0.00 0.00 1692.74 131.00" xmlns="http://www.w3.org/2000/svg" xmlns:xlink="http://www.w3.org/1999/xlink">
<g id="graph0" class="graph" transform="scale(1 1) rotate(0) translate(4 127)">
<title>food_scientist</title>
<polygon fill="white" stroke="transparent" points="-4,4 -4,-127 1688.74,-127 1688.74,4 -4,4"/>
<!-- 0 -->
<g id="node1" class="node">
<title>0</title>
<g id="a_node1"><a xlink:href="from_food scientist.svg" xlink:title="food scientist">
<ellipse fill="none" stroke="black" cx="865.99" cy="-105" rx="59.59" ry="18"/>
<text text-anchor="middle" x="865.99" y="-101.3" font-family="Times New Roman,serif" font-size="14.00">food scientist</text>
</a>
</g>
</g>
<!-- 1 -->
<g id="node2" class="node">
<title>1</title>
<g id="a_node2"><a xlink:href="from_advertising copywriter.svg" xlink:title="advertising copywriter">
<ellipse fill="none" stroke="black" cx="90.99" cy="-18" rx="90.98" ry="18"/>
<text text-anchor="middle" x="90.99" y="-14.3" font-family="Times New Roman,serif" font-size="14.00">advertising copywriter</text>
</a>
</g>
</g>
<!-- 0&#45;&gt;1 -->
<g id="edge1" class="edge">
<title>0&#45;&gt;1</title>
<path fill="none" stroke="black" d="M807.66,-100.66C722.21,-95.48 558.05,-84.49 418.99,-69 317.23,-57.66 292.14,-51.91 190.99,-36 183.14,-34.76 174.95,-33.44 166.78,-32.09"/>
<polygon fill="black" stroke="black" points="167.29,-28.62 156.85,-30.43 166.14,-35.53 167.29,-28.62"/>
<text text-anchor="middle" x="434.49" y="-57.8" font-family="Times New Roman,serif" font-size="14.00">0.066</text>
</g>
<!-- 2 -->
<g id="node3" class="node">
<title>2</title>
<g id="a_node3"><a xlink:href="from_brand manager.svg" xlink:title="brand manager">
<ellipse fill="none" stroke="black" cx="263.99" cy="-18" rx="64.19" ry="18"/>
<text text-anchor="middle" x="263.99" y="-14.3" font-family="Times New Roman,serif" font-size="14.00">brand manager</text>
</a>
</g>
</g>
<!-- 0&#45;&gt;2 -->
<g id="edge2" class="edge">
<title>0&#45;&gt;2</title>
<path fill="none" stroke="black" d="M809.8,-98.8C712.97,-89.38 508.63,-67.52 337.99,-36 332.35,-34.96 326.48,-33.78 320.63,-32.54"/>
<polygon fill="black" stroke="black" points="321.36,-29.11 310.84,-30.4 319.87,-35.95 321.36,-29.11"/>
<text text-anchor="middle" x="556.49" y="-57.8" font-family="Times New Roman,serif" font-size="14.00">0.066</text>
</g>
<!-- 3 -->
<g id="node4" class="node">
<title>3</title>
<g id="a_node4"><a xlink:href="from_clinical biochemist.svg" xlink:title="clinical biochemist">
<ellipse fill="none" stroke="black" cx="423.99" cy="-18" rx="77.19" ry="18"/>
<text text-anchor="middle" x="423.99" y="-14.3" font-family="Times New Roman,serif" font-size="14.00">clinical biochemist</text>
</a>
</g>
</g>
<!-- 0&#45;&gt;3 -->
<g id="edge3" class="edge">
<title>0&#45;&gt;3</title>
<path fill="none" stroke="black" d="M816.74,-94.69C748.01,-81.69 619.47,-57.28 509.99,-36 503.82,-34.8 497.39,-33.54 490.96,-32.28"/>
<polygon fill="black" stroke="black" points="491.37,-28.79 480.88,-30.3 490.02,-35.66 491.37,-28.79"/>
<text text-anchor="middle" x="691.49" y="-57.8" font-family="Times New Roman,serif" font-size="14.00">0.066</text>
</g>
<!-- 4 -->
<g id="node5" class="node">
<title>4</title>
<g id="a_node5"><a xlink:href="from_commissioning editor.svg" xlink:title="commissioning editor">
<ellipse fill="none" stroke="black" cx="607.99" cy="-18" rx="89.08" ry="18"/>
<text text-anchor="middle" x="607.99" y="-14.3" font-family="Times New Roman,serif" font-size="14.00">commissioning editor</text>
</a>
</g>
</g>
<!-- 0&#45;&gt;4 -->
<g id="edge4" class="edge">
<title>0&#45;&gt;4</title>
<path fill="none" stroke="black" d="M827.09,-91.18C783.14,-76.7 711.33,-53.05 661.97,-36.78"/>
<polygon fill="black" stroke="black" points="663.01,-33.44 652.42,-33.64 660.82,-40.09 663.01,-33.44"/>
<text text-anchor="middle" x="768.49" y="-57.8" font-family="Times New Roman,serif" font-size="14.00">0.066</text>
</g>
<!-- 5 -->
<g id="node6" class="node">
<title>5</title>
<g id="a_node6"><a xlink:href="from_content manager.svg" xlink:title="content manager">
<ellipse fill="none" stroke="black" cx="784.99" cy="-18" rx="70.39" ry="18"/>
<text text-anchor="middle" x="784.99" y="-14.3" font-family="Times New Roman,serif" font-size="14.00">content manager</text>
</a>
</g>
</g>
<!-- 0&#45;&gt;5 -->
<g id="edge5" class="edge">
<title>0&#45;&gt;5</title>
<path fill="none" stroke="black" d="M850.37,-87.61C838.35,-74.99 821.55,-57.36 807.99,-43.13"/>
<polygon fill="black" stroke="black" points="810.27,-40.45 800.84,-35.63 805.2,-45.28 810.27,-40.45"/>
<text text-anchor="middle" x="846.49" y="-57.8" font-family="Times New Roman,serif" font-size="14.00">0.066</text>
</g>
<!-- 6 -->
<g id="node7" class="node">
<title>6</title>
<g id="a_node7"><a xlink:href="from_electrical engineer.svg" xlink:title="electrical engineer">
<ellipse fill="none" stroke="black" cx="947.99" cy="-18" rx="74.99" ry="18"/>
<text text-anchor="middle" x="947.99" y="-14.3" font-family="Times New Roman,serif" font-size="14.00">electrical engineer</text>
</a>
</g>
</g>
<!-- 0&#45;&gt;6 -->
<g id="edge6" class="edge">
<title>0&#45;&gt;6</title>
<path fill="none" stroke="black" d="M881.8,-87.61C893.98,-74.99 910.99,-57.36 924.71,-43.13"/>
<polygon fill="black" stroke="black" points="927.53,-45.26 931.95,-35.63 922.49,-40.4 927.53,-45.26"/>
<text text-anchor="middle" x="927.49" y="-57.8" font-family="Times New Roman,serif" font-size="14.00">0.066</text>
</g>
<!-- 7 -->
<g id="node8" class="node">
<title>7</title>
<g id="a_node8"><a xlink:href="from_government research officer.svg" xlink:title="government research officer">
<ellipse fill="none" stroke="black" cx="1152.99" cy="-18" rx="112.38" ry="18"/>
<text text-anchor="middle" x="1152.99" y="-14.3" font-family="Times New Roman,serif" font-size="14.00">government research officer</text>
</a>
</g>
</g>
<!-- 0&#45;&gt;7 -->
<g id="edge7" class="edge">
<title>0&#45;&gt;7</title>
<path fill="none" stroke="black" d="M907.11,-91.82C955.58,-77.47 1036.57,-53.48 1092.27,-36.98"/>
<polygon fill="black" stroke="black" points="1093.42,-40.29 1102.02,-34.1 1091.44,-33.58 1093.42,-40.29"/>
<text text-anchor="middle" x="1042.49" y="-57.8" font-family="Times New Roman,serif" font-size="14.00">0.066</text>
</g>
<!-- 8 -->
<g id="node9" class="node">
<title>8</title>
<g id="a_node9"><a xlink:href="from_journalist.svg" xlink:title="journalist">
<ellipse fill="none" stroke="black" cx="1326.99" cy="-18" rx="43.59" ry="18"/>
<text text-anchor="middle" x="1326.99" y="-14.3" font-family="Times New Roman,serif" font-size="14.00">journalist</text>
</a>
</g>
</g>
<!-- 0&#45;&gt;8 -->
<g id="edge8" class="edge">
<title>0&#45;&gt;8</title>
<path fill="none" stroke="black" d="M920.62,-97.46C999.37,-87.46 1149.07,-66.28 1273.99,-36 1277.58,-35.13 1281.29,-34.14 1284.98,-33.09"/>
<polygon fill="black" stroke="black" points="1286.11,-36.4 1294.69,-30.18 1284.11,-29.69 1286.11,-36.4"/>
<text text-anchor="middle" x="1201.49" y="-57.8" font-family="Times New Roman,serif" font-size="14.00">0.066</text>
</g>
<!-- 9 -->
<g id="node10" class="node">
<title>9</title>
<g id="a_node10"><a xlink:href="from_office manager.svg" xlink:title="office manager">
<ellipse fill="none" stroke="black" cx="1452.99" cy="-18" rx="64.19" ry="18"/>
<text text-anchor="middle" x="1452.99" y="-14.3" font-family="Times New Roman,serif" font-size="14.00">office manager</text>
</a>
</g>
</g>
<!-- 0&#45;&gt;9 -->
<g id="edge9" class="edge">
<title>0&#45;&gt;9</title>
<path fill="none" stroke="black" d="M923.72,-100.2C994.16,-95.14 1116.76,-84.91 1220.99,-69 1292.34,-58.11 1309.51,-51.52 1379.99,-36 1385.03,-34.89 1390.25,-33.72 1395.48,-32.53"/>
<polygon fill="black" stroke="black" points="1396.55,-35.88 1405.52,-30.23 1394.99,-29.05 1396.55,-35.88"/>
<text text-anchor="middle" x="1316.49" y="-57.8" font-family="Times New Roman,serif" font-size="14.00">0.066</text>
</g>
<!-- 10 -->
<g id="node11" class="node">
<title>10</title>
<g id="a_node11"><a xlink:href="from_personal assistant.svg" xlink:title="personal assistant">
<ellipse fill="none" stroke="black" cx="1609.99" cy="-18" rx="74.99" ry="18"/>
<text text-anchor="middle" x="1609.99" y="-14.3" font-family="Times New Roman,serif" font-size="14.00">personal assistant</text>
</a>
</g>
</g>
<!-- 0&#45;&gt;10 -->
<g id="edge10" class="edge">
<title>0&#45;&gt;10</title>
<path fill="none" stroke="black" d="M924.79,-101.47C1013.96,-97.21 1188.61,-87.24 1335.99,-69 1421.05,-58.47 1441.76,-51.84 1525.99,-36 1532.23,-34.83 1538.72,-33.57 1545.21,-32.3"/>
<polygon fill="black" stroke="black" points="1546.23,-35.66 1555.36,-30.28 1544.87,-28.8 1546.23,-35.66"/>
<text text-anchor="middle" x="1447.49" y="-57.8" font-family="Times New Roman,serif" font-size="14.00">0.066</text>
</g>
</g>
</svg>
