<?xml version="1.0" encoding="UTF-8" standalone="no"?>
<!DOCTYPE svg PUBLIC "-//W3C//DTD SVG 1.1//EN"
 "http://www.w3.org/Graphics/SVG/1.1/DTD/svg11.dtd">
<!-- Generated by graphviz version 2.44.1 (20200629.0800)
 -->
<!-- Title: planning_technician Pages: 1 -->
<svg width="1665pt" height="131pt"
 viewBox="0.00 0.00 1664.74 131.00" xmlns="http://www.w3.org/2000/svg" xmlns:xlink="http://www.w3.org/1999/xlink">
<g id="graph0" class="graph" transform="scale(1 1) rotate(0) translate(4 127)">
<title>planning_technician</title>
<polygon fill="white" stroke="transparent" points="-4,4 -4,-127 1660.74,-127 1660.74,4 -4,4"/>
<!-- 0 -->
<g id="node1" class="node">
<title>0</title>
<g id="a_node1"><a xlink:href="from_planning technician.svg" xlink:title="planning technician">
<ellipse fill="none" stroke="black" cx="835.89" cy="-105" rx="79.09" ry="18"/>
<text text-anchor="middle" x="835.89" y="-101.3" font-family="Times New Roman,serif" font-size="14.00">planning technician</text>
</a>
</g>
</g>
<!-- 0&#45;&gt;0 -->
<g id="edge1" class="edge">
<title>0&#45;&gt;0</title>
<path fill="none" stroke="black" d="M908.02,-112.57C922.69,-111.75 933.19,-109.22 933.19,-105 933.19,-101.83 927.28,-99.62 918.14,-98.36"/>
<polygon fill="black" stroke="black" points="918.3,-94.86 908.02,-97.43 917.66,-101.83 918.3,-94.86"/>
<text text-anchor="middle" x="948.69" y="-101.3" font-family="Times New Roman,serif" font-size="14.00">0.133</text>
</g>
<!-- 1 -->
<g id="node2" class="node">
<title>1</title>
<g id="a_node2"><a xlink:href="from_project manager.svg" xlink:title="project manager">
<ellipse fill="none" stroke="black" cx="68.89" cy="-18" rx="68.79" ry="18"/>
<text text-anchor="middle" x="68.89" y="-14.3" font-family="Times New Roman,serif" font-size="14.00">project manager</text>
</a>
</g>
</g>
<!-- 0&#45;&gt;1 -->
<g id="edge2" class="edge">
<title>0&#45;&gt;1</title>
<path fill="none" stroke="black" d="M758.72,-100.73C661.84,-96.1 490.65,-86.24 344.89,-69 255.86,-58.47 233.92,-53 145.89,-36 140.43,-34.95 134.77,-33.8 129.1,-32.61"/>
<polygon fill="black" stroke="black" points="129.44,-29.11 118.93,-30.45 127.99,-35.95 129.44,-29.11"/>
<text text-anchor="middle" x="360.39" y="-57.8" font-family="Times New Roman,serif" font-size="14.00">0.091</text>
</g>
<!-- 2 -->
<g id="node3" class="node">
<title>2</title>
<g id="a_node3"><a xlink:href="from_it consultant.svg" xlink:title="it consultant">
<ellipse fill="none" stroke="black" cx="209.89" cy="-18" rx="54.69" ry="18"/>
<text text-anchor="middle" x="209.89" y="-14.3" font-family="Times New Roman,serif" font-size="14.00">it consultant</text>
</a>
</g>
</g>
<!-- 0&#45;&gt;2 -->
<g id="edge3" class="edge">
<title>0&#45;&gt;2</title>
<path fill="none" stroke="black" d="M761.59,-98.44C653.37,-89.57 446.37,-69.7 272.89,-36 268.46,-35.14 263.87,-34.13 259.3,-33.05"/>
<polygon fill="black" stroke="black" points="259.9,-29.59 249.35,-30.57 258.21,-36.38 259.9,-29.59"/>
<text text-anchor="middle" x="486.39" y="-57.8" font-family="Times New Roman,serif" font-size="14.00">0.05</text>
</g>
<!-- 3 -->
<g id="node4" class="node">
<title>3</title>
<g id="a_node4"><a xlink:href="from_pharmacovigilance officer.svg" xlink:title="pharmacovigilance officer">
<ellipse fill="none" stroke="black" cx="386.89" cy="-18" rx="104.78" ry="18"/>
<text text-anchor="middle" x="386.89" y="-14.3" font-family="Times New Roman,serif" font-size="14.00">pharmacovigilance officer</text>
</a>
</g>
</g>
<!-- 0&#45;&gt;3 -->
<g id="edge4" class="edge">
<title>0&#45;&gt;3</title>
<path fill="none" stroke="black" d="M777.19,-92.89C697.08,-77.72 553.33,-50.51 464.43,-33.68"/>
<polygon fill="black" stroke="black" points="464.88,-30.2 454.4,-31.78 463.58,-37.08 464.88,-30.2"/>
<text text-anchor="middle" x="654.39" y="-57.8" font-family="Times New Roman,serif" font-size="14.00">0.041</text>
</g>
<!-- 4 -->
<g id="node5" class="node">
<title>4</title>
<g id="a_node5"><a xlink:href="from_catering manager.svg" xlink:title="catering manager">
<ellipse fill="none" stroke="black" cx="580.89" cy="-18" rx="71.49" ry="18"/>
<text text-anchor="middle" x="580.89" y="-14.3" font-family="Times New Roman,serif" font-size="14.00">catering manager</text>
</a>
</g>
</g>
<!-- 0&#45;&gt;4 -->
<g id="edge5" class="edge">
<title>0&#45;&gt;4</title>
<path fill="none" stroke="black" d="M793.21,-89.77C748.87,-74.99 679.48,-51.86 632.18,-36.1"/>
<polygon fill="black" stroke="black" points="633.04,-32.69 622.44,-32.85 630.82,-39.33 633.04,-32.69"/>
<text text-anchor="middle" x="739.39" y="-57.8" font-family="Times New Roman,serif" font-size="14.00">0.033</text>
</g>
<!-- 5 -->
<g id="node6" class="node">
<title>5</title>
<g id="a_node6"><a xlink:href="from_geographical information systems manager.svg" xlink:title="geographical information systems manager">
<ellipse fill="none" stroke="black" cx="835.89" cy="-18" rx="165.17" ry="18"/>
<text text-anchor="middle" x="835.89" y="-14.3" font-family="Times New Roman,serif" font-size="14.00">geographical information systems manager</text>
</a>
</g>
</g>
<!-- 0&#45;&gt;5 -->
<g id="edge6" class="edge">
<title>0&#45;&gt;5</title>
<path fill="none" stroke="black" d="M835.89,-86.8C835.89,-75.16 835.89,-59.55 835.89,-46.24"/>
<polygon fill="black" stroke="black" points="839.39,-46.18 835.89,-36.18 832.39,-46.18 839.39,-46.18"/>
<text text-anchor="middle" x="851.39" y="-57.8" font-family="Times New Roman,serif" font-size="14.00">0.033</text>
</g>
<!-- 6 -->
<g id="node7" class="node">
<title>6</title>
<g id="a_node7"><a xlink:href="from_network administrator.svg" xlink:title="network administrator">
<ellipse fill="none" stroke="black" cx="1108.89" cy="-18" rx="89.88" ry="18"/>
<text text-anchor="middle" x="1108.89" y="-14.3" font-family="Times New Roman,serif" font-size="14.00">network administrator</text>
</a>
</g>
</g>
<!-- 0&#45;&gt;6 -->
<g id="edge7" class="edge">
<title>0&#45;&gt;6</title>
<path fill="none" stroke="black" d="M880.67,-90.06C927.61,-75.44 1001.48,-52.44 1052.4,-36.59"/>
<polygon fill="black" stroke="black" points="1053.76,-39.83 1062.27,-33.52 1051.68,-33.15 1053.76,-39.83"/>
<text text-anchor="middle" x="1004.39" y="-57.8" font-family="Times New Roman,serif" font-size="14.00">0.033</text>
</g>
<!-- 7 -->
<g id="node8" class="node">
<title>7</title>
<g id="a_node8"><a xlink:href="from_production manager.svg" xlink:title="production manager">
<ellipse fill="none" stroke="black" cx="1299.89" cy="-18" rx="83.39" ry="18"/>
<text text-anchor="middle" x="1299.89" y="-14.3" font-family="Times New Roman,serif" font-size="14.00">production manager</text>
</a>
</g>
</g>
<!-- 0&#45;&gt;7 -->
<g id="edge8" class="edge">
<title>0&#45;&gt;7</title>
<path fill="none" stroke="black" d="M895.82,-93.08C969.34,-79.68 1097.8,-56.23 1207.89,-36 1214.55,-34.78 1221.47,-33.5 1228.4,-32.22"/>
<polygon fill="black" stroke="black" points="1229.33,-35.61 1238.53,-30.36 1228.06,-28.73 1229.33,-35.61"/>
<text text-anchor="middle" x="1121.39" y="-57.8" font-family="Times New Roman,serif" font-size="14.00">0.033</text>
</g>
<!-- 8 -->
<g id="node9" class="node">
<title>8</title>
<g id="a_node9"><a xlink:href="from_sales manager.svg" xlink:title="sales manager">
<ellipse fill="none" stroke="black" cx="1461.89" cy="-18" rx="61.19" ry="18"/>
<text text-anchor="middle" x="1461.89" y="-14.3" font-family="Times New Roman,serif" font-size="14.00">sales manager</text>
</a>
</g>
</g>
<!-- 0&#45;&gt;8 -->
<g id="edge9" class="edge">
<title>0&#45;&gt;8</title>
<path fill="none" stroke="black" d="M909.2,-97.99C1015.99,-88.57 1220.3,-68.02 1391.89,-36 1396.99,-35.05 1402.27,-33.96 1407.54,-32.8"/>
<polygon fill="black" stroke="black" points="1408.64,-36.14 1417.61,-30.51 1407.09,-29.32 1408.64,-36.14"/>
<text text-anchor="middle" x="1286.39" y="-57.8" font-family="Times New Roman,serif" font-size="14.00">0.033</text>
</g>
<!-- 9 -->
<g id="node10" class="node">
<title>9</title>
<g id="a_node10"><a xlink:href="from_civil engineer.svg" xlink:title="civil engineer">
<ellipse fill="none" stroke="black" cx="1598.89" cy="-18" rx="57.69" ry="18"/>
<text text-anchor="middle" x="1598.89" y="-14.3" font-family="Times New Roman,serif" font-size="14.00">civil engineer</text>
</a>
</g>
</g>
<!-- 0&#45;&gt;9 -->
<g id="edge10" class="edge">
<title>0&#45;&gt;9</title>
<path fill="none" stroke="black" d="M913.88,-101.43C1043.37,-96.04 1310.43,-80.14 1531.89,-36 1536.84,-35.01 1541.97,-33.89 1547.09,-32.71"/>
<polygon fill="black" stroke="black" points="1547.96,-36.1 1556.87,-30.37 1546.33,-29.29 1547.96,-36.1"/>
<text text-anchor="middle" x="1435.39" y="-57.8" font-family="Times New Roman,serif" font-size="14.00">0.025</text>
</g>
</g>
</svg>
