<?xml version="1.0" encoding="UTF-8" standalone="no"?>
<!DOCTYPE svg PUBLIC "-//W3C//DTD SVG 1.1//EN"
 "http://www.w3.org/Graphics/SVG/1.1/DTD/svg11.dtd">
<!-- Generated by graphviz version 2.44.1 (20200629.0800)
 -->
<!-- Title: building_surveyor Pages: 1 -->
<svg width="1466pt" height="131pt"
 viewBox="0.00 0.00 1466.49 131.00" xmlns="http://www.w3.org/2000/svg" xmlns:xlink="http://www.w3.org/1999/xlink">
<g id="graph0" class="graph" transform="scale(1 1) rotate(0) translate(4 127)">
<title>building_surveyor</title>
<polygon fill="white" stroke="transparent" points="-4,4 -4,-127 1462.49,-127 1462.49,4 -4,4"/>
<!-- 0 -->
<g id="node1" class="node">
<title>0</title>
<g id="a_node1"><a xlink:href="from_building surveyor.svg" xlink:title="building surveyor">
<ellipse fill="none" stroke="black" cx="633.89" cy="-105" rx="73.39" ry="18"/>
<text text-anchor="middle" x="633.89" y="-101.3" font-family="Times New Roman,serif" font-size="14.00">building surveyor</text>
</a>
</g>
</g>
<!-- 0&#45;&gt;0 -->
<g id="edge1" class="edge">
<title>0&#45;&gt;0</title>
<path fill="none" stroke="black" d="M700.47,-112.64C714.89,-111.9 725.34,-109.35 725.34,-105 725.34,-101.74 719.46,-99.49 710.44,-98.26"/>
<polygon fill="black" stroke="black" points="710.75,-94.77 700.47,-97.36 710.12,-101.74 710.75,-94.77"/>
<text text-anchor="middle" x="740.84" y="-101.3" font-family="Times New Roman,serif" font-size="14.00">0.320</text>
</g>
<!-- 1 -->
<g id="node2" class="node">
<title>1</title>
<g id="a_node2"><a xlink:href="from_project manager.svg" xlink:title="project manager">
<ellipse fill="none" stroke="black" cx="68.89" cy="-18" rx="68.79" ry="18"/>
<text text-anchor="middle" x="68.89" y="-14.3" font-family="Times New Roman,serif" font-size="14.00">project manager</text>
</a>
</g>
</g>
<!-- 0&#45;&gt;1 -->
<g id="edge2" class="edge">
<title>0&#45;&gt;1</title>
<path fill="none" stroke="black" d="M568.2,-96.78C474.35,-86.02 296.68,-64.01 146.89,-36 141.13,-34.92 135.15,-33.74 129.17,-32.51"/>
<polygon fill="black" stroke="black" points="129.66,-29.04 119.16,-30.41 128.23,-35.89 129.66,-29.04"/>
<text text-anchor="middle" x="362.39" y="-57.8" font-family="Times New Roman,serif" font-size="14.00">0.153</text>
</g>
<!-- 2 -->
<g id="node3" class="node">
<title>2</title>
<g id="a_node3"><a xlink:href="from_structural engineer.svg" xlink:title="structural engineer">
<ellipse fill="none" stroke="black" cx="232.89" cy="-18" rx="76.89" ry="18"/>
<text text-anchor="middle" x="232.89" y="-14.3" font-family="Times New Roman,serif" font-size="14.00">structural engineer</text>
</a>
</g>
</g>
<!-- 0&#45;&gt;2 -->
<g id="edge3" class="edge">
<title>0&#45;&gt;2</title>
<path fill="none" stroke="black" d="M578.85,-93.01C545.08,-86.21 500.95,-77.24 461.89,-69 405.88,-57.19 342.28,-43.26 296.34,-33.11"/>
<polygon fill="black" stroke="black" points="297.04,-29.68 286.52,-30.93 295.53,-36.51 297.04,-29.68"/>
<text text-anchor="middle" x="477.39" y="-57.8" font-family="Times New Roman,serif" font-size="14.00">0.076</text>
</g>
<!-- 3 -->
<g id="node4" class="node">
<title>3</title>
<g id="a_node4"><a xlink:href="from_sales manager.svg" xlink:title="sales manager">
<ellipse fill="none" stroke="black" cx="388.89" cy="-18" rx="61.19" ry="18"/>
<text text-anchor="middle" x="388.89" y="-14.3" font-family="Times New Roman,serif" font-size="14.00">sales manager</text>
</a>
</g>
</g>
<!-- 0&#45;&gt;3 -->
<g id="edge4" class="edge">
<title>0&#45;&gt;3</title>
<path fill="none" stroke="black" d="M593.44,-89.96C550.39,-75.03 482.31,-51.41 436.66,-35.57"/>
<polygon fill="black" stroke="black" points="437.59,-32.19 426.99,-32.22 435.29,-38.8 437.59,-32.19"/>
<text text-anchor="middle" x="542.39" y="-57.8" font-family="Times New Roman,serif" font-size="14.00">0.064</text>
</g>
<!-- 4 -->
<g id="node5" class="node">
<title>4</title>
<g id="a_node5"><a xlink:href="from_site manager.svg" xlink:title="site manager">
<ellipse fill="none" stroke="black" cx="523.89" cy="-18" rx="55.79" ry="18"/>
<text text-anchor="middle" x="523.89" y="-14.3" font-family="Times New Roman,serif" font-size="14.00">site manager</text>
</a>
</g>
</g>
<!-- 0&#45;&gt;4 -->
<g id="edge5" class="edge">
<title>0&#45;&gt;4</title>
<path fill="none" stroke="black" d="M612.68,-87.61C595.5,-74.33 571.13,-55.5 552.27,-40.92"/>
<polygon fill="black" stroke="black" points="554.35,-38.11 544.29,-34.76 550.07,-43.65 554.35,-38.11"/>
<text text-anchor="middle" x="601.39" y="-57.8" font-family="Times New Roman,serif" font-size="14.00">0.064</text>
</g>
<!-- 5 -->
<g id="node6" class="node">
<title>5</title>
<g id="a_node6"><a xlink:href="from_curator.svg" xlink:title="curator">
<ellipse fill="none" stroke="black" cx="633.89" cy="-18" rx="36.29" ry="18"/>
<text text-anchor="middle" x="633.89" y="-14.3" font-family="Times New Roman,serif" font-size="14.00">curator</text>
</a>
</g>
</g>
<!-- 0&#45;&gt;5 -->
<g id="edge6" class="edge">
<title>0&#45;&gt;5</title>
<path fill="none" stroke="black" d="M633.89,-86.8C633.89,-75.16 633.89,-59.55 633.89,-46.24"/>
<polygon fill="black" stroke="black" points="637.39,-46.18 633.89,-36.18 630.39,-46.18 637.39,-46.18"/>
<text text-anchor="middle" x="649.39" y="-57.8" font-family="Times New Roman,serif" font-size="14.00">0.051</text>
</g>
<!-- 6 -->
<g id="node7" class="node">
<title>6</title>
<g id="a_node7"><a xlink:href="from_barristers clerk.svg" xlink:title="barristers clerk">
<ellipse fill="none" stroke="black" cx="752.89" cy="-18" rx="64.19" ry="18"/>
<text text-anchor="middle" x="752.89" y="-14.3" font-family="Times New Roman,serif" font-size="14.00">barristers clerk</text>
</a>
</g>
</g>
<!-- 0&#45;&gt;6 -->
<g id="edge7" class="edge">
<title>0&#45;&gt;6</title>
<path fill="none" stroke="black" d="M656.56,-87.81C675.08,-74.58 701.47,-55.73 721.94,-41.11"/>
<polygon fill="black" stroke="black" points="724.21,-43.79 730.32,-35.13 720.14,-38.09 724.21,-43.79"/>
<text text-anchor="middle" x="716.39" y="-57.8" font-family="Times New Roman,serif" font-size="14.00">0.038</text>
</g>
<!-- 7 -->
<g id="node8" class="node">
<title>7</title>
<g id="a_node8"><a xlink:href="from_pharmacovigilance officer.svg" xlink:title="pharmacovigilance officer">
<ellipse fill="none" stroke="black" cx="939.89" cy="-18" rx="104.78" ry="18"/>
<text text-anchor="middle" x="939.89" y="-14.3" font-family="Times New Roman,serif" font-size="14.00">pharmacovigilance officer</text>
</a>
</g>
</g>
<!-- 0&#45;&gt;7 -->
<g id="edge8" class="edge">
<title>0&#45;&gt;7</title>
<path fill="none" stroke="black" d="M680.7,-91C733.33,-76.38 819.02,-52.58 877.35,-36.37"/>
<polygon fill="black" stroke="black" points="878.49,-39.69 887.19,-33.64 876.61,-32.95 878.49,-39.69"/>
<text text-anchor="middle" x="821.39" y="-57.8" font-family="Times New Roman,serif" font-size="14.00">0.038</text>
</g>
<!-- 8 -->
<g id="node9" class="node">
<title>8</title>
<g id="a_node9"><a xlink:href="from_education administrator.svg" xlink:title="education administrator">
<ellipse fill="none" stroke="black" cx="1157.89" cy="-18" rx="95.58" ry="18"/>
<text text-anchor="middle" x="1157.89" y="-14.3" font-family="Times New Roman,serif" font-size="14.00">education administrator</text>
</a>
</g>
</g>
<!-- 0&#45;&gt;8 -->
<g id="edge9" class="edge">
<title>0&#45;&gt;8</title>
<path fill="none" stroke="black" d="M693.37,-94.4C774.75,-81.26 925.39,-56.9 1053.89,-36 1061.79,-34.72 1070.02,-33.37 1078.24,-32.03"/>
<polygon fill="black" stroke="black" points="1078.94,-35.46 1088.25,-30.4 1077.81,-28.56 1078.94,-35.46"/>
<text text-anchor="middle" x="954.39" y="-57.8" font-family="Times New Roman,serif" font-size="14.00">0.025</text>
</g>
<!-- 9 -->
<g id="node10" class="node">
<title>9</title>
<g id="a_node10"><a xlink:href="from_environmental manager.svg" xlink:title="environmental manager">
<ellipse fill="none" stroke="black" cx="1364.89" cy="-18" rx="93.68" ry="18"/>
<text text-anchor="middle" x="1364.89" y="-14.3" font-family="Times New Roman,serif" font-size="14.00">environmental manager</text>
</a>
</g>
</g>
<!-- 0&#45;&gt;9 -->
<g id="edge10" class="edge">
<title>0&#45;&gt;9</title>
<path fill="none" stroke="black" d="M702.02,-98.06C817.62,-87.67 1059.49,-64.54 1262.89,-36 1271.07,-34.85 1279.6,-33.57 1288.1,-32.23"/>
<polygon fill="black" stroke="black" points="1288.71,-35.68 1298.03,-30.65 1287.61,-28.77 1288.71,-35.68"/>
<text text-anchor="middle" x="1124.39" y="-57.8" font-family="Times New Roman,serif" font-size="14.00">0.025</text>
</g>
</g>
</svg>
