<?xml version="1.0" encoding="UTF-8" standalone="no"?>
<!DOCTYPE svg PUBLIC "-//W3C//DTD SVG 1.1//EN"
 "http://www.w3.org/Graphics/SVG/1.1/DTD/svg11.dtd">
<!-- Generated by graphviz version 2.44.1 (20200629.0800)
 -->
<!-- Title: test Pages: 1 -->
<svg width="1361pt" height="131pt"
 viewBox="0.00 0.00 1360.79 131.00" xmlns="http://www.w3.org/2000/svg" xmlns:xlink="http://www.w3.org/1999/xlink">
<g id="graph0" class="graph" transform="scale(1 1) rotate(0) translate(4 127)">
<title>test</title>
<polygon fill="white" stroke="transparent" points="-4,4 -4,-127 1356.79,-127 1356.79,4 -4,4"/>
<!-- 0 -->
<g id="node1" class="node">
<title>0</title>
<g id="a_node1"><a xlink:href="from_photographer.svg" xlink:title="photographer">
<ellipse fill="none" stroke="black" cx="686.19" cy="-105" rx="59.59" ry="18"/>
<text text-anchor="middle" x="686.19" y="-101.3" font-family="Times New Roman,serif" font-size="14.00">photographer</text>
</a>
</g>
</g>
<!-- 0&#45;&gt;0 -->
<g id="edge1" class="edge">
<title>0&#45;&gt;0</title>
<path fill="none" stroke="black" d="M740.36,-112.77C753.88,-112.22 763.99,-109.63 763.99,-105 763.99,-101.63 758.65,-99.35 750.55,-98.14"/>
<polygon fill="black" stroke="black" points="750.63,-94.63 740.36,-97.23 750.01,-101.6 750.63,-94.63"/>
<text text-anchor="middle" x="779.49" y="-101.3" font-family="Times New Roman,serif" font-size="14.00">0.382</text>
</g>
<!-- 1 -->
<g id="node2" class="node">
<title>1</title>
<g id="a_node2"><a xlink:href="from_production manager.svg" xlink:title="production manager">
<ellipse fill="none" stroke="black" cx="83.19" cy="-18" rx="83.39" ry="18"/>
<text text-anchor="middle" x="83.19" y="-14.3" font-family="Times New Roman,serif" font-size="14.00">production manager</text>
</a>
</g>
</g>
<!-- 0&#45;&gt;1 -->
<g id="edge2" class="edge">
<title>0&#45;&gt;1</title>
<path fill="none" stroke="black" d="M627.78,-100.78C553.78,-96.18 422.48,-86.33 311.19,-69 254.3,-60.14 190.33,-45.72 144.67,-34.63"/>
<polygon fill="black" stroke="black" points="145.46,-31.22 134.92,-32.25 143.8,-38.02 145.46,-31.22"/>
<text text-anchor="middle" x="326.69" y="-57.8" font-family="Times New Roman,serif" font-size="14.00">0.146</text>
</g>
<!-- 2 -->
<g id="node3" class="node">
<title>2</title>
<g id="a_node3"><a xlink:href="from_teacher.svg" xlink:title="teacher">
<ellipse fill="none" stroke="black" cx="221.19" cy="-18" rx="36.29" ry="18"/>
<text text-anchor="middle" x="221.19" y="-14.3" font-family="Times New Roman,serif" font-size="14.00">teacher</text>
</a>
</g>
</g>
<!-- 0&#45;&gt;2 -->
<g id="edge3" class="edge">
<title>0&#45;&gt;2</title>
<path fill="none" stroke="black" d="M630.21,-98.51C549.15,-89.76 394.82,-70.06 267.19,-36 264.24,-35.21 261.22,-34.31 258.2,-33.35"/>
<polygon fill="black" stroke="black" points="259.25,-30.01 248.65,-30.1 256.99,-36.63 259.25,-30.01"/>
<text text-anchor="middle" x="431.69" y="-57.8" font-family="Times New Roman,serif" font-size="14.00">0.067</text>
</g>
<!-- 3 -->
<g id="node4" class="node">
<title>3</title>
<g id="a_node4"><a xlink:href="from_catering manager.svg" xlink:title="catering manager">
<ellipse fill="none" stroke="black" cx="347.19" cy="-18" rx="71.49" ry="18"/>
<text text-anchor="middle" x="347.19" y="-14.3" font-family="Times New Roman,serif" font-size="14.00">catering manager</text>
</a>
</g>
</g>
<!-- 0&#45;&gt;3 -->
<g id="edge4" class="edge">
<title>0&#45;&gt;3</title>
<path fill="none" stroke="black" d="M641.87,-92.89C581.44,-77.74 473.05,-50.56 405.91,-33.72"/>
<polygon fill="black" stroke="black" points="406.46,-30.25 395.91,-31.22 404.76,-37.04 406.46,-30.25"/>
<text text-anchor="middle" x="552.69" y="-57.8" font-family="Times New Roman,serif" font-size="14.00">0.044</text>
</g>
<!-- 4 -->
<g id="node5" class="node">
<title>4</title>
<g id="a_node5"><a xlink:href="from_legal executive.svg" xlink:title="legal executive">
<ellipse fill="none" stroke="black" cx="500.19" cy="-18" rx="63.09" ry="18"/>
<text text-anchor="middle" x="500.19" y="-14.3" font-family="Times New Roman,serif" font-size="14.00">legal executive</text>
</a>
</g>
</g>
<!-- 0&#45;&gt;4 -->
<g id="edge5" class="edge">
<title>0&#45;&gt;4</title>
<path fill="none" stroke="black" d="M654.64,-89.58C623.47,-75.34 575.63,-53.48 541.46,-37.86"/>
<polygon fill="black" stroke="black" points="542.76,-34.61 532.21,-33.63 539.85,-40.97 542.76,-34.61"/>
<text text-anchor="middle" x="620.69" y="-57.8" font-family="Times New Roman,serif" font-size="14.00">0.044</text>
</g>
<!-- 5 -->
<g id="node6" class="node">
<title>5</title>
<g id="a_node6"><a xlink:href="from_pharmacovigilance officer.svg" xlink:title="pharmacovigilance officer">
<ellipse fill="none" stroke="black" cx="686.19" cy="-18" rx="104.78" ry="18"/>
<text text-anchor="middle" x="686.19" y="-14.3" font-family="Times New Roman,serif" font-size="14.00">pharmacovigilance officer</text>
</a>
</g>
</g>
<!-- 0&#45;&gt;5 -->
<g id="edge6" class="edge">
<title>0&#45;&gt;5</title>
<path fill="none" stroke="black" d="M686.19,-86.8C686.19,-75.16 686.19,-59.55 686.19,-46.24"/>
<polygon fill="black" stroke="black" points="689.69,-46.18 686.19,-36.18 682.69,-46.18 689.69,-46.18"/>
<text text-anchor="middle" x="701.69" y="-57.8" font-family="Times New Roman,serif" font-size="14.00">0.033</text>
</g>
<!-- 6 -->
<g id="node7" class="node">
<title>6</title>
<g id="a_node7"><a xlink:href="from_content manager.svg" xlink:title="content manager">
<ellipse fill="none" stroke="black" cx="879.19" cy="-18" rx="70.39" ry="18"/>
<text text-anchor="middle" x="879.19" y="-14.3" font-family="Times New Roman,serif" font-size="14.00">content manager</text>
</a>
</g>
</g>
<!-- 0&#45;&gt;6 -->
<g id="edge7" class="edge">
<title>0&#45;&gt;6</title>
<path fill="none" stroke="black" d="M718.5,-89.77C750.81,-75.54 800.69,-53.57 836.3,-37.89"/>
<polygon fill="black" stroke="black" points="837.74,-41.08 845.48,-33.85 834.92,-34.67 837.74,-41.08"/>
<text text-anchor="middle" x="810.69" y="-57.8" font-family="Times New Roman,serif" font-size="14.00">0.022</text>
</g>
<!-- 7 -->
<g id="node8" class="node">
<title>7</title>
<g id="a_node8"><a xlink:href="from_curator.svg" xlink:title="curator">
<ellipse fill="none" stroke="black" cx="1004.19" cy="-18" rx="36.29" ry="18"/>
<text text-anchor="middle" x="1004.19" y="-14.3" font-family="Times New Roman,serif" font-size="14.00">curator</text>
</a>
</g>
</g>
<!-- 0&#45;&gt;7 -->
<g id="edge8" class="edge">
<title>0&#45;&gt;7</title>
<path fill="none" stroke="black" d="M733.83,-93.86C788.5,-81.81 880.61,-60.27 958.19,-36 960.94,-35.14 963.75,-34.22 966.58,-33.25"/>
<polygon fill="black" stroke="black" points="967.86,-36.51 976.13,-29.89 965.53,-29.91 967.86,-36.51"/>
<text text-anchor="middle" x="907.69" y="-57.8" font-family="Times New Roman,serif" font-size="14.00">0.022</text>
</g>
<!-- 8 -->
<g id="node9" class="node">
<title>8</title>
<g id="a_node9"><a xlink:href="from_graphic designer.svg" xlink:title="graphic designer">
<ellipse fill="none" stroke="black" cx="1129.19" cy="-18" rx="70.39" ry="18"/>
<text text-anchor="middle" x="1129.19" y="-14.3" font-family="Times New Roman,serif" font-size="14.00">graphic designer</text>
</a>
</g>
</g>
<!-- 0&#45;&gt;8 -->
<g id="edge9" class="edge">
<title>0&#45;&gt;8</title>
<path fill="none" stroke="black" d="M741.01,-97.6C790.03,-91.51 863.71,-81.43 927.19,-69 977.04,-59.24 1033.05,-45.12 1073.43,-34.37"/>
<polygon fill="black" stroke="black" points="1074.59,-37.68 1083.35,-31.72 1072.78,-30.92 1074.59,-37.68"/>
<text text-anchor="middle" x="1010.69" y="-57.8" font-family="Times New Roman,serif" font-size="14.00">0.022</text>
</g>
<!-- 9 -->
<g id="node10" class="node">
<title>9</title>
<g id="a_node10"><a xlink:href="from_housing adviser.svg" xlink:title="housing adviser">
<ellipse fill="none" stroke="black" cx="1285.19" cy="-18" rx="67.69" ry="18"/>
<text text-anchor="middle" x="1285.19" y="-14.3" font-family="Times New Roman,serif" font-size="14.00">housing adviser</text>
</a>
</g>
</g>
<!-- 0&#45;&gt;9 -->
<g id="edge10" class="edge">
<title>0&#45;&gt;9</title>
<path fill="none" stroke="black" d="M743.28,-99.63C811.67,-94.07 929.62,-83.41 1030.19,-69 1109.84,-57.58 1129.34,-52.01 1208.19,-36 1213.87,-34.85 1219.76,-33.61 1225.66,-32.35"/>
<polygon fill="black" stroke="black" points="1226.5,-35.75 1235.54,-30.22 1225.03,-28.91 1226.5,-35.75"/>
<text text-anchor="middle" x="1135.69" y="-57.8" font-family="Times New Roman,serif" font-size="14.00">0.022</text>
</g>
</g>
</svg>
