<?xml version="1.0" encoding="UTF-8" standalone="no"?>
<!DOCTYPE svg PUBLIC "-//W3C//DTD SVG 1.1//EN"
 "http://www.w3.org/Graphics/SVG/1.1/DTD/svg11.dtd">
<!-- Generated by graphviz version 2.44.1 (20200629.0800)
 -->
<!-- Title: exploration_geologist Pages: 1 -->
<svg width="1834pt" height="131pt"
 viewBox="0.00 0.00 1834.34 131.00" xmlns="http://www.w3.org/2000/svg" xmlns:xlink="http://www.w3.org/1999/xlink">
<g id="graph0" class="graph" transform="scale(1 1) rotate(0) translate(4 127)">
<title>exploration_geologist</title>
<polygon fill="white" stroke="transparent" points="-4,4 -4,-127 1830.34,-127 1830.34,4 -4,4"/>
<!-- 0 -->
<g id="node1" class="node">
<title>0</title>
<g id="a_node1"><a xlink:href="from_exploration geologist.svg" xlink:title="exploration geologist">
<ellipse fill="none" stroke="black" cx="944.44" cy="-105" rx="86.38" ry="18"/>
<text text-anchor="middle" x="944.44" y="-101.3" font-family="Times New Roman,serif" font-size="14.00">exploration geologist</text>
</a>
</g>
</g>
<!-- 1 -->
<g id="node2" class="node">
<title>1</title>
<g id="a_node2"><a xlink:href="from_engineering geologist.svg" xlink:title="engineering geologist">
<ellipse fill="none" stroke="black" cx="86.44" cy="-18" rx="86.38" ry="18"/>
<text text-anchor="middle" x="86.44" y="-14.3" font-family="Times New Roman,serif" font-size="14.00">engineering geologist</text>
</a>
</g>
</g>
<!-- 0&#45;&gt;1 -->
<g id="edge1" class="edge">
<title>0&#45;&gt;1</title>
<path fill="none" stroke="black" d="M861.65,-99.75C761.52,-94.27 587.9,-83.66 439.44,-69 324.84,-57.68 296.28,-53.38 182.44,-36 174.8,-34.83 166.82,-33.54 158.87,-32.2"/>
<polygon fill="black" stroke="black" points="159.3,-28.73 148.86,-30.5 158.13,-35.63 159.3,-28.73"/>
<text text-anchor="middle" x="454.94" y="-57.8" font-family="Times New Roman,serif" font-size="14.00">0.285</text>
</g>
<!-- 2 -->
<g id="node3" class="node">
<title>2</title>
<g id="a_node3"><a xlink:href="from_catering manager.svg" xlink:title="catering manager">
<ellipse fill="none" stroke="black" cx="262.44" cy="-18" rx="71.49" ry="18"/>
<text text-anchor="middle" x="262.44" y="-14.3" font-family="Times New Roman,serif" font-size="14.00">catering manager</text>
</a>
</g>
</g>
<!-- 0&#45;&gt;2 -->
<g id="edge2" class="edge">
<title>0&#45;&gt;2</title>
<path fill="none" stroke="black" d="M865.2,-97.68C749.73,-87.88 528.7,-66.86 342.44,-36 336.38,-34.99 330.07,-33.84 323.78,-32.62"/>
<polygon fill="black" stroke="black" points="324.45,-29.19 313.95,-30.66 323.08,-36.05 324.45,-29.19"/>
<text text-anchor="middle" x="588.94" y="-57.8" font-family="Times New Roman,serif" font-size="14.00">0.071</text>
</g>
<!-- 3 -->
<g id="node4" class="node">
<title>3</title>
<g id="a_node4"><a xlink:href="from_fitness centre manager.svg" xlink:title="fitness centre manager">
<ellipse fill="none" stroke="black" cx="442.44" cy="-18" rx="90.98" ry="18"/>
<text text-anchor="middle" x="442.44" y="-14.3" font-family="Times New Roman,serif" font-size="14.00">fitness centre manager</text>
</a>
</g>
</g>
<!-- 0&#45;&gt;3 -->
<g id="edge3" class="edge">
<title>0&#45;&gt;3</title>
<path fill="none" stroke="black" d="M879.69,-93.06C800.24,-79.64 661.43,-56.18 542.44,-36 534.81,-34.71 526.86,-33.36 518.91,-32.01"/>
<polygon fill="black" stroke="black" points="519.32,-28.53 508.87,-30.3 518.14,-35.43 519.32,-28.53"/>
<text text-anchor="middle" x="745.94" y="-57.8" font-family="Times New Roman,serif" font-size="14.00">0.071</text>
</g>
<!-- 4 -->
<g id="node5" class="node">
<title>4</title>
<g id="a_node5"><a xlink:href="from_human resources officer.svg" xlink:title="human resources officer">
<ellipse fill="none" stroke="black" cx="650.44" cy="-18" rx="98.58" ry="18"/>
<text text-anchor="middle" x="650.44" y="-14.3" font-family="Times New Roman,serif" font-size="14.00">human resources officer</text>
</a>
</g>
</g>
<!-- 0&#45;&gt;4 -->
<g id="edge4" class="edge">
<title>0&#45;&gt;4</title>
<path fill="none" stroke="black" d="M896.22,-90.06C845.46,-75.38 765.45,-52.25 710.59,-36.39"/>
<polygon fill="black" stroke="black" points="711.24,-32.93 700.66,-33.52 709.29,-39.66 711.24,-32.93"/>
<text text-anchor="middle" x="830.94" y="-57.8" font-family="Times New Roman,serif" font-size="14.00">0.071</text>
</g>
<!-- 5 -->
<g id="node6" class="node">
<title>5</title>
<g id="a_node6"><a xlink:href="from_investment analyst.svg" xlink:title="investment analyst">
<ellipse fill="none" stroke="black" cx="843.44" cy="-18" rx="76.89" ry="18"/>
<text text-anchor="middle" x="843.44" y="-14.3" font-family="Times New Roman,serif" font-size="14.00">investment analyst</text>
</a>
</g>
</g>
<!-- 0&#45;&gt;5 -->
<g id="edge5" class="edge">
<title>0&#45;&gt;5</title>
<path fill="none" stroke="black" d="M924.49,-87.21C909.17,-74.32 887.85,-56.38 870.92,-42.13"/>
<polygon fill="black" stroke="black" points="872.92,-39.23 863.01,-35.47 868.41,-44.59 872.92,-39.23"/>
<text text-anchor="middle" x="915.94" y="-57.8" font-family="Times New Roman,serif" font-size="14.00">0.071</text>
</g>
<!-- 6 -->
<g id="node7" class="node">
<title>6</title>
<g id="a_node7"><a xlink:href="from_nature conservation officer.svg" xlink:title="nature conservation officer">
<ellipse fill="none" stroke="black" cx="1046.44" cy="-18" rx="107.78" ry="18"/>
<text text-anchor="middle" x="1046.44" y="-14.3" font-family="Times New Roman,serif" font-size="14.00">nature conservation officer</text>
</a>
</g>
</g>
<!-- 0&#45;&gt;6 -->
<g id="edge6" class="edge">
<title>0&#45;&gt;6</title>
<path fill="none" stroke="black" d="M964.59,-87.21C979.96,-74.4 1001.31,-56.61 1018.36,-42.4"/>
<polygon fill="black" stroke="black" points="1020.89,-44.85 1026.33,-35.76 1016.41,-39.47 1020.89,-44.85"/>
<text text-anchor="middle" x="1017.94" y="-57.8" font-family="Times New Roman,serif" font-size="14.00">0.071</text>
</g>
<!-- 7 -->
<g id="node8" class="node">
<title>7</title>
<g id="a_node8"><a xlink:href="from_pharmacovigilance officer.svg" xlink:title="pharmacovigilance officer">
<ellipse fill="none" stroke="black" cx="1277.44" cy="-18" rx="104.78" ry="18"/>
<text text-anchor="middle" x="1277.44" y="-14.3" font-family="Times New Roman,serif" font-size="14.00">pharmacovigilance officer</text>
</a>
</g>
</g>
<!-- 0&#45;&gt;7 -->
<g id="edge7" class="edge">
<title>0&#45;&gt;7</title>
<path fill="none" stroke="black" d="M996.84,-90.63C1054.91,-75.8 1148.65,-51.87 1211.63,-35.8"/>
<polygon fill="black" stroke="black" points="1212.64,-39.15 1221.46,-33.29 1210.91,-32.37 1212.64,-39.15"/>
<text text-anchor="middle" x="1146.94" y="-57.8" font-family="Times New Roman,serif" font-size="14.00">0.071</text>
</g>
<!-- 8 -->
<g id="node9" class="node">
<title>8</title>
<g id="a_node9"><a xlink:href="from_press editor.svg" xlink:title="press editor">
<ellipse fill="none" stroke="black" cx="1454.44" cy="-18" rx="53.89" ry="18"/>
<text text-anchor="middle" x="1454.44" y="-14.3" font-family="Times New Roman,serif" font-size="14.00">press editor</text>
</a>
</g>
</g>
<!-- 0&#45;&gt;8 -->
<g id="edge8" class="edge">
<title>0&#45;&gt;8</title>
<path fill="none" stroke="black" d="M1017.67,-95.43C1106.59,-84.44 1260.85,-63.46 1391.44,-36 1395.86,-35.07 1400.44,-34.02 1405.01,-32.9"/>
<polygon fill="black" stroke="black" points="1406.12,-36.23 1414.95,-30.39 1404.4,-29.45 1406.12,-36.23"/>
<text text-anchor="middle" x="1309.94" y="-57.8" font-family="Times New Roman,serif" font-size="14.00">0.071</text>
</g>
<!-- 9 -->
<g id="node10" class="node">
<title>9</title>
<g id="a_node10"><a xlink:href="from_probation officer.svg" xlink:title="probation officer">
<ellipse fill="none" stroke="black" cx="1598.44" cy="-18" rx="72.29" ry="18"/>
<text text-anchor="middle" x="1598.44" y="-14.3" font-family="Times New Roman,serif" font-size="14.00">probation officer</text>
</a>
</g>
</g>
<!-- 0&#45;&gt;9 -->
<g id="edge9" class="edge">
<title>0&#45;&gt;9</title>
<path fill="none" stroke="black" d="M1025.41,-98.6C1103.47,-92.94 1224.82,-82.91 1329.44,-69 1413.54,-57.82 1434.14,-52.05 1517.44,-36 1523.32,-34.87 1529.42,-33.65 1535.53,-32.42"/>
<polygon fill="black" stroke="black" points="1536.68,-35.75 1545.77,-30.32 1535.27,-28.9 1536.68,-35.75"/>
<text text-anchor="middle" x="1439.94" y="-57.8" font-family="Times New Roman,serif" font-size="14.00">0.071</text>
</g>
<!-- 10 -->
<g id="node11" class="node">
<title>10</title>
<g id="a_node11"><a xlink:href="from_project manager.svg" xlink:title="project manager">
<ellipse fill="none" stroke="black" cx="1757.44" cy="-18" rx="68.79" ry="18"/>
<text text-anchor="middle" x="1757.44" y="-14.3" font-family="Times New Roman,serif" font-size="14.00">project manager</text>
</a>
</g>
</g>
<!-- 0&#45;&gt;10 -->
<g id="edge10" class="edge">
<title>0&#45;&gt;10</title>
<path fill="none" stroke="black" d="M1028.03,-100.4C1130.06,-95.53 1307.77,-85.5 1459.44,-69 1557.73,-58.31 1582.2,-53.87 1679.44,-36 1685.21,-34.94 1691.19,-33.77 1697.17,-32.55"/>
<polygon fill="black" stroke="black" points="1698.11,-35.93 1707.19,-30.46 1696.69,-29.07 1698.11,-35.93"/>
<text text-anchor="middle" x="1592.94" y="-57.8" font-family="Times New Roman,serif" font-size="14.00">0.071</text>
</g>
</g>
</svg>
