<?xml version="1.0" encoding="UTF-8" standalone="no"?>
<!DOCTYPE svg PUBLIC "-//W3C//DTD SVG 1.1//EN"
 "http://www.w3.org/Graphics/SVG/1.1/DTD/svg11.dtd">
<!-- Generated by graphviz version 2.44.1 (20200629.0800)
 -->
<!-- Title: hydrologist Pages: 1 -->
<svg width="1395pt" height="131pt"
 viewBox="0.00 0.00 1395.29 131.00" xmlns="http://www.w3.org/2000/svg" xmlns:xlink="http://www.w3.org/1999/xlink">
<g id="graph0" class="graph" transform="scale(1 1) rotate(0) translate(4 127)">
<title>hydrologist</title>
<polygon fill="white" stroke="transparent" points="-4,4 -4,-127 1391.29,-127 1391.29,4 -4,4"/>
<!-- 0 -->
<g id="node1" class="node">
<title>0</title>
<g id="a_node1"><a xlink:href="from_hydrologist.svg" xlink:title="hydrologist">
<ellipse fill="none" stroke="black" cx="676.09" cy="-105" rx="51.99" ry="18"/>
<text text-anchor="middle" x="676.09" y="-101.3" font-family="Times New Roman,serif" font-size="14.00">hydrologist</text>
</a>
</g>
</g>
<!-- 0&#45;&gt;0 -->
<g id="edge10" class="edge">
<title>0&#45;&gt;0</title>
<path fill="none" stroke="black" d="M723.2,-112.83C736.18,-112.45 746.09,-109.84 746.09,-105 746.09,-101.52 740.97,-99.2 733.27,-98.02"/>
<polygon fill="black" stroke="black" points="733.46,-94.53 723.2,-97.17 732.87,-101.5 733.46,-94.53"/>
<text text-anchor="middle" x="761.59" y="-101.3" font-family="Times New Roman,serif" font-size="14.00">0.038</text>
</g>
<!-- 1 -->
<g id="node2" class="node">
<title>1</title>
<g id="a_node2"><a xlink:href="from_sales manager.svg" xlink:title="sales manager">
<ellipse fill="none" stroke="black" cx="61.09" cy="-18" rx="61.19" ry="18"/>
<text text-anchor="middle" x="61.09" y="-14.3" font-family="Times New Roman,serif" font-size="14.00">sales manager</text>
</a>
</g>
</g>
<!-- 0&#45;&gt;1 -->
<g id="edge1" class="edge">
<title>0&#45;&gt;1</title>
<path fill="none" stroke="black" d="M624.68,-101.75C548.27,-97.9 400.4,-88.49 276.09,-69 210.8,-58.76 195.43,-51.13 131.09,-36 126.4,-34.89 121.52,-33.74 116.64,-32.57"/>
<polygon fill="black" stroke="black" points="117.17,-29.1 106.63,-30.16 115.54,-35.9 117.17,-29.1"/>
<text text-anchor="middle" x="291.59" y="-57.8" font-family="Times New Roman,serif" font-size="14.00">0.115</text>
</g>
<!-- 2 -->
<g id="node3" class="node">
<title>2</title>
<g id="a_node3"><a xlink:href="from_lecturer.svg" xlink:title="lecturer">
<ellipse fill="none" stroke="black" cx="178.09" cy="-18" rx="37.89" ry="18"/>
<text text-anchor="middle" x="178.09" y="-14.3" font-family="Times New Roman,serif" font-size="14.00">lecturer</text>
</a>
</g>
</g>
<!-- 0&#45;&gt;2 -->
<g id="edge2" class="edge">
<title>0&#45;&gt;2</title>
<path fill="none" stroke="black" d="M626.05,-99.79C542.13,-91.99 368.15,-72.64 225.09,-36 222.08,-35.23 218.99,-34.34 215.9,-33.38"/>
<polygon fill="black" stroke="black" points="216.75,-29.97 206.15,-30.14 214.54,-36.62 216.75,-29.97"/>
<text text-anchor="middle" x="400.59" y="-57.8" font-family="Times New Roman,serif" font-size="14.00">0.076</text>
</g>
<!-- 3 -->
<g id="node4" class="node">
<title>3</title>
<g id="a_node4"><a xlink:href="from_academic librarian.svg" xlink:title="academic librarian">
<ellipse fill="none" stroke="black" cx="310.09" cy="-18" rx="76.09" ry="18"/>
<text text-anchor="middle" x="310.09" y="-14.3" font-family="Times New Roman,serif" font-size="14.00">academic librarian</text>
</a>
</g>
</g>
<!-- 0&#45;&gt;3 -->
<g id="edge3" class="edge">
<title>0&#45;&gt;3</title>
<path fill="none" stroke="black" d="M634.11,-94.25C569.87,-79.33 446.8,-50.75 372.21,-33.43"/>
<polygon fill="black" stroke="black" points="373,-30.02 362.46,-31.16 371.41,-36.83 373,-30.02"/>
<text text-anchor="middle" x="530.59" y="-57.8" font-family="Times New Roman,serif" font-size="14.00">0.038</text>
</g>
<!-- 4 -->
<g id="node5" class="node">
<title>4</title>
<g id="a_node5"><a xlink:href="from_community worker.svg" xlink:title="community worker">
<ellipse fill="none" stroke="black" cx="483.09" cy="-18" rx="79.09" ry="18"/>
<text text-anchor="middle" x="483.09" y="-14.3" font-family="Times New Roman,serif" font-size="14.00">community worker</text>
</a>
</g>
</g>
<!-- 0&#45;&gt;4 -->
<g id="edge4" class="edge">
<title>0&#45;&gt;4</title>
<path fill="none" stroke="black" d="M645.09,-90.34C613.2,-76.3 563.25,-54.3 527.24,-38.44"/>
<polygon fill="black" stroke="black" points="528.51,-35.18 517.94,-34.35 525.69,-41.58 528.51,-35.18"/>
<text text-anchor="middle" x="607.59" y="-57.8" font-family="Times New Roman,serif" font-size="14.00">0.038</text>
</g>
<!-- 5 -->
<g id="node6" class="node">
<title>5</title>
<g id="a_node6"><a xlink:href="from_education administrator.svg" xlink:title="education administrator">
<ellipse fill="none" stroke="black" cx="676.09" cy="-18" rx="95.58" ry="18"/>
<text text-anchor="middle" x="676.09" y="-14.3" font-family="Times New Roman,serif" font-size="14.00">education administrator</text>
</a>
</g>
</g>
<!-- 0&#45;&gt;5 -->
<g id="edge5" class="edge">
<title>0&#45;&gt;5</title>
<path fill="none" stroke="black" d="M676.09,-86.8C676.09,-75.16 676.09,-59.55 676.09,-46.24"/>
<polygon fill="black" stroke="black" points="679.59,-46.18 676.09,-36.18 672.59,-46.18 679.59,-46.18"/>
<text text-anchor="middle" x="691.59" y="-57.8" font-family="Times New Roman,serif" font-size="14.00">0.038</text>
</g>
<!-- 6 -->
<g id="node7" class="node">
<title>6</title>
<g id="a_node7"><a xlink:href="from_electrical engineer.svg" xlink:title="electrical engineer">
<ellipse fill="none" stroke="black" cx="864.09" cy="-18" rx="74.99" ry="18"/>
<text text-anchor="middle" x="864.09" y="-14.3" font-family="Times New Roman,serif" font-size="14.00">electrical engineer</text>
</a>
</g>
</g>
<!-- 0&#45;&gt;6 -->
<g id="edge6" class="edge">
<title>0&#45;&gt;6</title>
<path fill="none" stroke="black" d="M706.3,-90.34C737.32,-76.32 785.9,-54.35 820.97,-38.5"/>
<polygon fill="black" stroke="black" points="822.8,-41.51 830.47,-34.2 819.92,-35.13 822.8,-41.51"/>
<text text-anchor="middle" x="797.59" y="-57.8" font-family="Times New Roman,serif" font-size="14.00">0.038</text>
</g>
<!-- 7 -->
<g id="node8" class="node">
<title>7</title>
<g id="a_node8"><a xlink:href="from_environmental scientist.svg" xlink:title="environmental scientist">
<ellipse fill="none" stroke="black" cx="1050.09" cy="-18" rx="92.88" ry="18"/>
<text text-anchor="middle" x="1050.09" y="-14.3" font-family="Times New Roman,serif" font-size="14.00">environmental scientist</text>
</a>
</g>
</g>
<!-- 0&#45;&gt;7 -->
<g id="edge7" class="edge">
<title>0&#45;&gt;7</title>
<path fill="none" stroke="black" d="M718.27,-94.41C782.44,-79.83 905.24,-51.92 982.12,-34.45"/>
<polygon fill="black" stroke="black" points="983.21,-37.79 992.19,-32.16 981.66,-30.96 983.21,-37.79"/>
<text text-anchor="middle" x="901.59" y="-57.8" font-family="Times New Roman,serif" font-size="14.00">0.038</text>
</g>
<!-- 8 -->
<g id="node9" class="node">
<title>8</title>
<g id="a_node9"><a xlink:href="from_food scientist.svg" xlink:title="food scientist">
<ellipse fill="none" stroke="black" cx="1221.09" cy="-18" rx="59.59" ry="18"/>
<text text-anchor="middle" x="1221.09" y="-14.3" font-family="Times New Roman,serif" font-size="14.00">food scientist</text>
</a>
</g>
</g>
<!-- 0&#45;&gt;8 -->
<g id="edge8" class="edge">
<title>0&#45;&gt;8</title>
<path fill="none" stroke="black" d="M725.01,-98.64C811.58,-88.8 997.21,-66.07 1152.09,-36 1157.11,-35.03 1162.31,-33.92 1167.51,-32.75"/>
<polygon fill="black" stroke="black" points="1168.49,-36.12 1177.44,-30.45 1166.91,-29.3 1168.49,-36.12"/>
<text text-anchor="middle" x="1064.59" y="-57.8" font-family="Times New Roman,serif" font-size="14.00">0.038</text>
</g>
<!-- 9 -->
<g id="node10" class="node">
<title>9</title>
<g id="a_node10"><a xlink:href="from_geneticist.svg" xlink:title="geneticist">
<ellipse fill="none" stroke="black" cx="1343.09" cy="-18" rx="44.39" ry="18"/>
<text text-anchor="middle" x="1343.09" y="-14.3" font-family="Times New Roman,serif" font-size="14.00">geneticist</text>
</a>
</g>
</g>
<!-- 0&#45;&gt;9 -->
<g id="edge9" class="edge">
<title>0&#45;&gt;9</title>
<path fill="none" stroke="black" d="M727.78,-102.6C834.34,-98.77 1085.65,-84.87 1290.09,-36 1293.54,-35.18 1297.08,-34.24 1300.62,-33.24"/>
<polygon fill="black" stroke="black" points="1301.93,-36.51 1310.52,-30.3 1299.94,-29.8 1301.93,-36.51"/>
<text text-anchor="middle" x="1207.59" y="-57.8" font-family="Times New Roman,serif" font-size="14.00">0.038</text>
</g>
</g>
</svg>
