<?xml version="1.0" encoding="UTF-8" standalone="no"?>
<!DOCTYPE svg PUBLIC "-//W3C//DTD SVG 1.1//EN"
 "http://www.w3.org/Graphics/SVG/1.1/DTD/svg11.dtd">
<!-- Generated by graphviz version 2.44.1 (20200629.0800)
 -->
<!-- Title: it_consultant Pages: 1 -->
<svg width="1469pt" height="131pt"
 viewBox="0.00 0.00 1469.49 131.00" xmlns="http://www.w3.org/2000/svg" xmlns:xlink="http://www.w3.org/1999/xlink">
<g id="graph0" class="graph" transform="scale(1 1) rotate(0) translate(4 127)">
<title>it_consultant</title>
<polygon fill="white" stroke="transparent" points="-4,4 -4,-127 1465.49,-127 1465.49,4 -4,4"/>
<!-- 0 -->
<g id="node1" class="node">
<title>0</title>
<g id="a_node1"><a xlink:href="from_it consultant.svg" xlink:title="it consultant">
<ellipse fill="none" stroke="black" cx="747.89" cy="-105" rx="54.69" ry="18"/>
<text text-anchor="middle" x="747.89" y="-101.3" font-family="Times New Roman,serif" font-size="14.00">it consultant</text>
</a>
</g>
</g>
<!-- 0&#45;&gt;0 -->
<g id="edge1" class="edge">
<title>0&#45;&gt;0</title>
<path fill="none" stroke="black" d="M797.09,-112.82C810.38,-112.4 820.49,-109.8 820.49,-105 820.49,-101.51 815.15,-99.18 807.14,-98.01"/>
<polygon fill="black" stroke="black" points="807.35,-94.52 797.09,-97.18 806.77,-101.5 807.35,-94.52"/>
<text text-anchor="middle" x="835.99" y="-101.3" font-family="Times New Roman,serif" font-size="14.00">0.382</text>
</g>
<!-- 1 -->
<g id="node2" class="node">
<title>1</title>
<g id="a_node2"><a xlink:href="from_project manager.svg" xlink:title="project manager">
<ellipse fill="none" stroke="black" cx="68.89" cy="-18" rx="68.79" ry="18"/>
<text text-anchor="middle" x="68.89" y="-14.3" font-family="Times New Roman,serif" font-size="14.00">project manager</text>
</a>
</g>
</g>
<!-- 0&#45;&gt;1 -->
<g id="edge2" class="edge">
<title>0&#45;&gt;1</title>
<path fill="none" stroke="black" d="M695.35,-100.11C590.53,-91.89 348.17,-70.64 146.89,-36 141.03,-34.99 134.94,-33.84 128.87,-32.63"/>
<polygon fill="black" stroke="black" points="129.2,-29.12 118.7,-30.54 127.79,-35.98 129.2,-29.12"/>
<text text-anchor="middle" x="393.39" y="-57.8" font-family="Times New Roman,serif" font-size="14.00">0.071</text>
</g>
<!-- 2 -->
<g id="node3" class="node">
<title>2</title>
<g id="a_node3"><a xlink:href="from_software developer.svg" xlink:title="software developer">
<ellipse fill="none" stroke="black" cx="235.89" cy="-18" rx="79.89" ry="18"/>
<text text-anchor="middle" x="235.89" y="-14.3" font-family="Times New Roman,serif" font-size="14.00">software developer</text>
</a>
</g>
</g>
<!-- 0&#45;&gt;2 -->
<g id="edge3" class="edge">
<title>0&#45;&gt;2</title>
<path fill="none" stroke="black" d="M699.29,-96.66C620.54,-84.66 460.24,-59.8 324.89,-36 318.23,-34.83 311.3,-33.57 304.37,-32.29"/>
<polygon fill="black" stroke="black" points="304.73,-28.8 294.26,-30.4 303.44,-35.68 304.73,-28.8"/>
<text text-anchor="middle" x="537.39" y="-57.8" font-family="Times New Roman,serif" font-size="14.00">0.053</text>
</g>
<!-- 3 -->
<g id="node4" class="node">
<title>3</title>
<g id="a_node4"><a xlink:href="from_pharmacovigilance officer.svg" xlink:title="pharmacovigilance officer">
<ellipse fill="none" stroke="black" cx="438.89" cy="-18" rx="104.78" ry="18"/>
<text text-anchor="middle" x="438.89" y="-14.3" font-family="Times New Roman,serif" font-size="14.00">pharmacovigilance officer</text>
</a>
</g>
</g>
<!-- 0&#45;&gt;3 -->
<g id="edge4" class="edge">
<title>0&#45;&gt;3</title>
<path fill="none" stroke="black" d="M707.5,-92.89C655.2,-78.5 563.48,-53.27 501.97,-36.35"/>
<polygon fill="black" stroke="black" points="502.56,-32.88 491.99,-33.61 500.7,-39.63 502.56,-32.88"/>
<text text-anchor="middle" x="628.39" y="-57.8" font-family="Times New Roman,serif" font-size="14.00">0.046</text>
</g>
<!-- 4 -->
<g id="node5" class="node">
<title>4</title>
<g id="a_node5"><a xlink:href="from_qa analyst.svg" xlink:title="qa analyst">
<ellipse fill="none" stroke="black" cx="607.89" cy="-18" rx="46.59" ry="18"/>
<text text-anchor="middle" x="607.89" y="-14.3" font-family="Times New Roman,serif" font-size="14.00">qa analyst</text>
</a>
</g>
</g>
<!-- 0&#45;&gt;4 -->
<g id="edge5" class="edge">
<title>0&#45;&gt;4</title>
<path fill="none" stroke="black" d="M722.86,-88.8C699.89,-74.85 665.7,-54.1 640.58,-38.85"/>
<polygon fill="black" stroke="black" points="642.14,-35.7 631.77,-33.5 638.5,-41.68 642.14,-35.7"/>
<text text-anchor="middle" x="702.39" y="-57.8" font-family="Times New Roman,serif" font-size="14.00">0.042</text>
</g>
<!-- 5 -->
<g id="node6" class="node">
<title>5</title>
<g id="a_node6"><a xlink:href="from_software architect.svg" xlink:title="software architect">
<ellipse fill="none" stroke="black" cx="747.89" cy="-18" rx="75.29" ry="18"/>
<text text-anchor="middle" x="747.89" y="-14.3" font-family="Times New Roman,serif" font-size="14.00">software architect</text>
</a>
</g>
</g>
<!-- 0&#45;&gt;5 -->
<g id="edge6" class="edge">
<title>0&#45;&gt;5</title>
<path fill="none" stroke="black" d="M747.89,-86.8C747.89,-75.16 747.89,-59.55 747.89,-46.24"/>
<polygon fill="black" stroke="black" points="751.39,-46.18 747.89,-36.18 744.39,-46.18 751.39,-46.18"/>
<text text-anchor="middle" x="763.39" y="-57.8" font-family="Times New Roman,serif" font-size="14.00">0.041</text>
</g>
<!-- 6 -->
<g id="node7" class="node">
<title>6</title>
<g id="a_node7"><a xlink:href="from_sales manager.svg" xlink:title="sales manager">
<ellipse fill="none" stroke="black" cx="901.89" cy="-18" rx="61.19" ry="18"/>
<text text-anchor="middle" x="901.89" y="-14.3" font-family="Times New Roman,serif" font-size="14.00">sales manager</text>
</a>
</g>
</g>
<!-- 0&#45;&gt;6 -->
<g id="edge7" class="edge">
<title>0&#45;&gt;6</title>
<path fill="none" stroke="black" d="M774.72,-89.19C799.8,-75.35 837.47,-54.56 865.31,-39.19"/>
<polygon fill="black" stroke="black" points="867.28,-42.11 874.34,-34.21 863.89,-35.98 867.28,-42.11"/>
<text text-anchor="middle" x="850.39" y="-57.8" font-family="Times New Roman,serif" font-size="14.00">0.033</text>
</g>
<!-- 7 -->
<g id="node8" class="node">
<title>7</title>
<g id="a_node8"><a xlink:href="from_production manager.svg" xlink:title="production manager">
<ellipse fill="none" stroke="black" cx="1063.89" cy="-18" rx="83.39" ry="18"/>
<text text-anchor="middle" x="1063.89" y="-14.3" font-family="Times New Roman,serif" font-size="14.00">production manager</text>
</a>
</g>
</g>
<!-- 0&#45;&gt;7 -->
<g id="edge8" class="edge">
<title>0&#45;&gt;7</title>
<path fill="none" stroke="black" d="M788.88,-92.97C843.65,-78.24 941.09,-52.03 1004.07,-35.09"/>
<polygon fill="black" stroke="black" points="1005.12,-38.43 1013.86,-32.46 1003.3,-31.67 1005.12,-38.43"/>
<text text-anchor="middle" x="940.39" y="-57.8" font-family="Times New Roman,serif" font-size="14.00">0.031</text>
</g>
<!-- 8 -->
<g id="node9" class="node">
<title>8</title>
<g id="a_node9"><a xlink:href="from_public affairs consultant.svg" xlink:title="public affairs consultant">
<ellipse fill="none" stroke="black" cx="1262.89" cy="-18" rx="97.48" ry="18"/>
<text text-anchor="middle" x="1262.89" y="-14.3" font-family="Times New Roman,serif" font-size="14.00">public affairs consultant</text>
</a>
</g>
</g>
<!-- 0&#45;&gt;8 -->
<g id="edge9" class="edge">
<title>0&#45;&gt;8</title>
<path fill="none" stroke="black" d="M795.88,-96.08C884.51,-81.45 1074.67,-50.07 1183.02,-32.18"/>
<polygon fill="black" stroke="black" points="1183.63,-35.63 1192.92,-30.55 1182.49,-28.72 1183.63,-35.63"/>
<text text-anchor="middle" x="1052.39" y="-57.8" font-family="Times New Roman,serif" font-size="14.00">0.028</text>
</g>
<!-- 9 -->
<g id="node10" class="node">
<title>9</title>
<g id="a_node10"><a xlink:href="from_architect.svg" xlink:title="architect">
<ellipse fill="none" stroke="black" cx="1419.89" cy="-18" rx="41.69" ry="18"/>
<text text-anchor="middle" x="1419.89" y="-14.3" font-family="Times New Roman,serif" font-size="14.00">architect</text>
</a>
</g>
</g>
<!-- 0&#45;&gt;9 -->
<g id="edge10" class="edge">
<title>0&#45;&gt;9</title>
<path fill="none" stroke="black" d="M802.1,-101.97C910.78,-97.04 1162.59,-81.31 1368.89,-36 1372.48,-35.21 1376.16,-34.27 1379.84,-33.23"/>
<polygon fill="black" stroke="black" points="1380.89,-36.57 1389.44,-30.31 1378.86,-29.87 1380.89,-36.57"/>
<text text-anchor="middle" x="1284.39" y="-57.8" font-family="Times New Roman,serif" font-size="14.00">0.024</text>
</g>
</g>
</svg>
