<?xml version="1.0" encoding="UTF-8" standalone="no"?>
<!DOCTYPE svg PUBLIC "-//W3C//DTD SVG 1.1//EN"
 "http://www.w3.org/Graphics/SVG/1.1/DTD/svg11.dtd">
<!-- Generated by graphviz version 2.44.1 (20200629.0800)
 -->
<!-- Title: test Pages: 1 -->
<svg width="1688pt" height="131pt"
 viewBox="0.00 0.00 1687.68 131.00" xmlns="http://www.w3.org/2000/svg" xmlns:xlink="http://www.w3.org/1999/xlink">
<g id="graph0" class="graph" transform="scale(1 1) rotate(0) translate(4 127)">
<title>test</title>
<polygon fill="white" stroke="transparent" points="-4,4 -4,-127 1683.68,-127 1683.68,4 -4,4"/>
<!-- 0 -->
<g id="node1" class="node">
<title>0</title>
<g id="a_node1"><a xlink:href="from_health and safety adviser.svg" xlink:title="health and safety adviser">
<ellipse fill="none" stroke="black" cx="779.64" cy="-105" rx="99.38" ry="18"/>
<text text-anchor="middle" x="779.64" y="-101.3" font-family="Times New Roman,serif" font-size="14.00">health and safety adviser</text>
</a>
</g>
</g>
<!-- 0&#45;&gt;0 -->
<g id="edge1" class="edge">
<title>0&#45;&gt;0</title>
<path fill="none" stroke="black" d="M870.74,-112.35C886.3,-111.35 897.08,-108.9 897.08,-105 897.08,-102.02 890.76,-99.88 880.81,-98.59"/>
<polygon fill="black" stroke="black" points="881.02,-95.1 870.74,-97.65 880.37,-102.07 881.02,-95.1"/>
<text text-anchor="middle" x="912.58" y="-101.3" font-family="Times New Roman,serif" font-size="14.00">0.092</text>
</g>
<!-- 1 -->
<g id="node2" class="node">
<title>1</title>
<g id="a_node2"><a xlink:href="from_pharmacovigilance officer.svg" xlink:title="pharmacovigilance officer">
<ellipse fill="none" stroke="black" cx="104.64" cy="-18" rx="104.78" ry="18"/>
<text text-anchor="middle" x="104.64" y="-14.3" font-family="Times New Roman,serif" font-size="14.00">pharmacovigilance officer</text>
</a>
</g>
</g>
<!-- 0&#45;&gt;1 -->
<g id="edge2" class="edge">
<title>0&#45;&gt;1</title>
<path fill="none" stroke="black" d="M689.27,-97.4C613.19,-91.41 501.58,-81.59 404.64,-69 328.88,-59.16 242.92,-44.47 182.49,-33.56"/>
<polygon fill="black" stroke="black" points="183.11,-30.11 172.64,-31.77 181.86,-37 183.11,-30.11"/>
<text text-anchor="middle" x="420.14" y="-57.8" font-family="Times New Roman,serif" font-size="14.00">0.069</text>
</g>
<!-- 2 -->
<g id="node3" class="node">
<title>2</title>
<g id="a_node3"><a xlink:href="from_it consultant.svg" xlink:title="it consultant">
<ellipse fill="none" stroke="black" cx="281.64" cy="-18" rx="54.69" ry="18"/>
<text text-anchor="middle" x="281.64" y="-14.3" font-family="Times New Roman,serif" font-size="14.00">it consultant</text>
</a>
</g>
</g>
<!-- 0&#45;&gt;2 -->
<g id="edge3" class="edge">
<title>0&#45;&gt;2</title>
<path fill="none" stroke="black" d="M699.35,-94.29C611.67,-83.03 467.35,-62.56 344.64,-36 340.29,-35.06 335.79,-34 331.28,-32.9"/>
<polygon fill="black" stroke="black" points="332.04,-29.48 321.49,-30.4 330.31,-36.26 332.04,-29.48"/>
<text text-anchor="middle" x="539.14" y="-57.8" font-family="Times New Roman,serif" font-size="14.00">0.053</text>
</g>
<!-- 3 -->
<g id="node4" class="node">
<title>3</title>
<g id="a_node4"><a xlink:href="from_project manager.svg" xlink:title="project manager">
<ellipse fill="none" stroke="black" cx="422.64" cy="-18" rx="68.79" ry="18"/>
<text text-anchor="middle" x="422.64" y="-14.3" font-family="Times New Roman,serif" font-size="14.00">project manager</text>
</a>
</g>
</g>
<!-- 0&#45;&gt;3 -->
<g id="edge4" class="edge">
<title>0&#45;&gt;3</title>
<path fill="none" stroke="black" d="M721.89,-90.25C655.81,-74.52 548.19,-48.89 481.61,-33.04"/>
<polygon fill="black" stroke="black" points="482.23,-29.59 471.69,-30.68 480.61,-36.4 482.23,-29.59"/>
<text text-anchor="middle" x="638.14" y="-57.8" font-family="Times New Roman,serif" font-size="14.00">0.046</text>
</g>
<!-- 4 -->
<g id="node5" class="node">
<title>4</title>
<g id="a_node5"><a xlink:href="from_health and safety inspector.svg" xlink:title="health and safety inspector">
<ellipse fill="none" stroke="black" cx="616.64" cy="-18" rx="107.48" ry="18"/>
<text text-anchor="middle" x="616.64" y="-14.3" font-family="Times New Roman,serif" font-size="14.00">health and safety inspector</text>
</a>
</g>
</g>
<!-- 0&#45;&gt;4 -->
<g id="edge5" class="edge">
<title>0&#45;&gt;4</title>
<path fill="none" stroke="black" d="M748.6,-87.81C722.62,-74.27 685.37,-54.84 657.07,-40.08"/>
<polygon fill="black" stroke="black" points="658.33,-36.79 647.85,-35.27 655.09,-43 658.33,-36.79"/>
<text text-anchor="middle" x="724.14" y="-57.8" font-family="Times New Roman,serif" font-size="14.00">0.038</text>
</g>
<!-- 5 -->
<g id="node6" class="node">
<title>5</title>
<g id="a_node6"><a xlink:href="from_lecturer.svg" xlink:title="lecturer">
<ellipse fill="none" stroke="black" cx="779.64" cy="-18" rx="37.89" ry="18"/>
<text text-anchor="middle" x="779.64" y="-14.3" font-family="Times New Roman,serif" font-size="14.00">lecturer</text>
</a>
</g>
</g>
<!-- 0&#45;&gt;5 -->
<g id="edge6" class="edge">
<title>0&#45;&gt;5</title>
<path fill="none" stroke="black" d="M779.64,-86.8C779.64,-75.16 779.64,-59.55 779.64,-46.24"/>
<polygon fill="black" stroke="black" points="783.14,-46.18 779.64,-36.18 776.14,-46.18 783.14,-46.18"/>
<text text-anchor="middle" x="795.14" y="-57.8" font-family="Times New Roman,serif" font-size="14.00">0.038</text>
</g>
<!-- 6 -->
<g id="node7" class="node">
<title>6</title>
<g id="a_node7"><a xlink:href="from_education administrator.svg" xlink:title="education administrator">
<ellipse fill="none" stroke="black" cx="930.64" cy="-18" rx="95.58" ry="18"/>
<text text-anchor="middle" x="930.64" y="-14.3" font-family="Times New Roman,serif" font-size="14.00">education administrator</text>
</a>
</g>
</g>
<!-- 0&#45;&gt;6 -->
<g id="edge7" class="edge">
<title>0&#45;&gt;6</title>
<path fill="none" stroke="black" d="M808.76,-87.61C832.75,-74.1 866.95,-54.85 893.02,-40.18"/>
<polygon fill="black" stroke="black" points="894.87,-43.15 901.87,-35.19 891.44,-37.05 894.87,-43.15"/>
<text text-anchor="middle" x="880.14" y="-57.8" font-family="Times New Roman,serif" font-size="14.00">0.030</text>
</g>
<!-- 7 -->
<g id="node8" class="node">
<title>7</title>
<g id="a_node8"><a xlink:href="from_environmental health officer.svg" xlink:title="environmental health officer">
<ellipse fill="none" stroke="black" cx="1154.64" cy="-18" rx="110.48" ry="18"/>
<text text-anchor="middle" x="1154.64" y="-14.3" font-family="Times New Roman,serif" font-size="14.00">environmental health officer</text>
</a>
</g>
</g>
<!-- 0&#45;&gt;7 -->
<g id="edge8" class="edge">
<title>0&#45;&gt;7</title>
<path fill="none" stroke="black" d="M839.06,-90.53C905.2,-75.54 1012.07,-51.32 1082.84,-35.28"/>
<polygon fill="black" stroke="black" points="1084.03,-38.59 1093.01,-32.97 1082.48,-31.77 1084.03,-38.59"/>
<text text-anchor="middle" x="1005.14" y="-57.8" font-family="Times New Roman,serif" font-size="14.00">0.030</text>
</g>
<!-- 8 -->
<g id="node9" class="node">
<title>8</title>
<g id="a_node9"><a xlink:href="from_sales manager.svg" xlink:title="sales manager">
<ellipse fill="none" stroke="black" cx="1344.64" cy="-18" rx="61.19" ry="18"/>
<text text-anchor="middle" x="1344.64" y="-14.3" font-family="Times New Roman,serif" font-size="14.00">sales manager</text>
</a>
</g>
</g>
<!-- 0&#45;&gt;8 -->
<g id="edge9" class="edge">
<title>0&#45;&gt;8</title>
<path fill="none" stroke="black" d="M863.08,-95.05C961.62,-83.89 1130.28,-62.96 1273.64,-36 1279.01,-34.99 1284.59,-33.84 1290.15,-32.62"/>
<polygon fill="black" stroke="black" points="1291.11,-35.99 1300.09,-30.37 1289.57,-29.16 1291.11,-35.99"/>
<text text-anchor="middle" x="1182.14" y="-57.8" font-family="Times New Roman,serif" font-size="14.00">0.030</text>
</g>
<!-- 9 -->
<g id="node10" class="node">
<title>9</title>
<g id="a_node10"><a xlink:href="from_training and development officer.svg" xlink:title="training and development officer">
<ellipse fill="none" stroke="black" cx="1551.64" cy="-18" rx="128.08" ry="18"/>
<text text-anchor="middle" x="1551.64" y="-14.3" font-family="Times New Roman,serif" font-size="14.00">training and development officer</text>
</a>
</g>
</g>
<!-- 0&#45;&gt;9 -->
<g id="edge10" class="edge">
<title>0&#45;&gt;9</title>
<path fill="none" stroke="black" d="M871.58,-97.95C957.17,-91.94 1088.23,-81.79 1201.64,-69 1289.72,-59.07 1389.79,-44.43 1460.3,-33.56"/>
<polygon fill="black" stroke="black" points="1461.14,-36.97 1470.49,-31.98 1460.07,-30.05 1461.14,-36.97"/>
<text text-anchor="middle" x="1333.14" y="-57.8" font-family="Times New Roman,serif" font-size="14.00">0.030</text>
</g>
</g>
</svg>
