<?xml version="1.0" encoding="UTF-8" standalone="no"?>
<!DOCTYPE svg PUBLIC "-//W3C//DTD SVG 1.1//EN"
 "http://www.w3.org/Graphics/SVG/1.1/DTD/svg11.dtd">
<!-- Generated by graphviz version 2.44.1 (20200629.0800)
 -->
<!-- Title: hotel_manager Pages: 1 -->
<svg width="1502pt" height="131pt"
 viewBox="0.00 0.00 1501.59 131.00" xmlns="http://www.w3.org/2000/svg" xmlns:xlink="http://www.w3.org/1999/xlink">
<g id="graph0" class="graph" transform="scale(1 1) rotate(0) translate(4 127)">
<title>hotel_manager</title>
<polygon fill="white" stroke="transparent" points="-4,4 -4,-127 1497.59,-127 1497.59,4 -4,4"/>
<!-- 0 -->
<g id="node1" class="node">
<title>0</title>
<g id="a_node1"><a xlink:href="from_hotel manager.svg" xlink:title="hotel manager">
<ellipse fill="none" stroke="black" cx="769.49" cy="-105" rx="61.19" ry="18"/>
<text text-anchor="middle" x="769.49" y="-101.3" font-family="Times New Roman,serif" font-size="14.00">hotel manager</text>
</a>
</g>
</g>
<!-- 0&#45;&gt;0 -->
<g id="edge1" class="edge">
<title>0&#45;&gt;0</title>
<path fill="none" stroke="black" d="M824.93,-112.75C838.5,-112.18 848.59,-109.59 848.59,-105 848.59,-101.66 843.26,-99.39 835.14,-98.17"/>
<polygon fill="black" stroke="black" points="835.21,-94.66 824.93,-97.25 834.58,-101.63 835.21,-94.66"/>
<text text-anchor="middle" x="861.09" y="-101.3" font-family="Times New Roman,serif" font-size="14.00">0.15</text>
</g>
<!-- 1 -->
<g id="node2" class="node">
<title>1</title>
<g id="a_node2"><a xlink:href="from_catering manager.svg" xlink:title="catering manager">
<ellipse fill="none" stroke="black" cx="71.49" cy="-18" rx="71.49" ry="18"/>
<text text-anchor="middle" x="71.49" y="-14.3" font-family="Times New Roman,serif" font-size="14.00">catering manager</text>
</a>
</g>
</g>
<!-- 0&#45;&gt;1 -->
<g id="edge2" class="edge">
<title>0&#45;&gt;1</title>
<path fill="none" stroke="black" d="M710.79,-99.95C600.59,-91.81 355.45,-71.19 151.49,-36 145.43,-34.95 139.13,-33.78 132.85,-32.54"/>
<polygon fill="black" stroke="black" points="133.52,-29.1 123.02,-30.56 132.13,-35.97 133.52,-29.1"/>
<text text-anchor="middle" x="380.49" y="-57.8" font-family="Times New Roman,serif" font-size="14.00">0.1</text>
</g>
<!-- 2 -->
<g id="node3" class="node">
<title>2</title>
<g id="a_node3"><a xlink:href="from_project manager.svg" xlink:title="project manager">
<ellipse fill="none" stroke="black" cx="229.49" cy="-18" rx="68.79" ry="18"/>
<text text-anchor="middle" x="229.49" y="-14.3" font-family="Times New Roman,serif" font-size="14.00">project manager</text>
</a>
</g>
</g>
<!-- 0&#45;&gt;2 -->
<g id="edge3" class="edge">
<title>0&#45;&gt;2</title>
<path fill="none" stroke="black" d="M714.18,-97.1C627.29,-85.99 453.65,-62.65 307.49,-36 301.73,-34.95 295.74,-33.78 289.76,-32.56"/>
<polygon fill="black" stroke="black" points="290.25,-29.09 279.74,-30.48 288.82,-35.94 290.25,-29.09"/>
<text text-anchor="middle" x="525.99" y="-57.8" font-family="Times New Roman,serif" font-size="14.00">0.091</text>
</g>
<!-- 3 -->
<g id="node4" class="node">
<title>3</title>
<g id="a_node4"><a xlink:href="from_pharmacovigilance officer.svg" xlink:title="pharmacovigilance officer">
<ellipse fill="none" stroke="black" cx="421.49" cy="-18" rx="104.78" ry="18"/>
<text text-anchor="middle" x="421.49" y="-14.3" font-family="Times New Roman,serif" font-size="14.00">pharmacovigilance officer</text>
</a>
</g>
</g>
<!-- 0&#45;&gt;3 -->
<g id="edge4" class="edge">
<title>0&#45;&gt;3</title>
<path fill="none" stroke="black" d="M724,-92.89C664.12,-78.26 558.36,-52.43 489.1,-35.51"/>
<polygon fill="black" stroke="black" points="489.71,-32.06 479.16,-33.09 488.04,-38.86 489.71,-32.06"/>
<text text-anchor="middle" x="631.99" y="-57.8" font-family="Times New Roman,serif" font-size="14.00">0.058</text>
</g>
<!-- 4 -->
<g id="node5" class="node">
<title>4</title>
<g id="a_node5"><a xlink:href="from_heritage manager.svg" xlink:title="heritage manager">
<ellipse fill="none" stroke="black" cx="615.49" cy="-18" rx="71.49" ry="18"/>
<text text-anchor="middle" x="615.49" y="-14.3" font-family="Times New Roman,serif" font-size="14.00">heritage manager</text>
</a>
</g>
</g>
<!-- 0&#45;&gt;4 -->
<g id="edge5" class="edge">
<title>0&#45;&gt;4</title>
<path fill="none" stroke="black" d="M741.96,-88.8C717.09,-75.08 680.27,-54.75 652.77,-39.57"/>
<polygon fill="black" stroke="black" points="654.28,-36.41 643.83,-34.64 650.89,-42.54 654.28,-36.41"/>
<text text-anchor="middle" x="714.99" y="-57.8" font-family="Times New Roman,serif" font-size="14.00">0.05</text>
</g>
<!-- 5 -->
<g id="node6" class="node">
<title>5</title>
<g id="a_node6"><a xlink:href="from_office manager.svg" xlink:title="office manager">
<ellipse fill="none" stroke="black" cx="769.49" cy="-18" rx="64.19" ry="18"/>
<text text-anchor="middle" x="769.49" y="-14.3" font-family="Times New Roman,serif" font-size="14.00">office manager</text>
</a>
</g>
</g>
<!-- 0&#45;&gt;5 -->
<g id="edge6" class="edge">
<title>0&#45;&gt;5</title>
<path fill="none" stroke="black" d="M769.49,-86.8C769.49,-75.16 769.49,-59.55 769.49,-46.24"/>
<polygon fill="black" stroke="black" points="772.99,-46.18 769.49,-36.18 765.99,-46.18 772.99,-46.18"/>
<text text-anchor="middle" x="784.99" y="-57.8" font-family="Times New Roman,serif" font-size="14.00">0.041</text>
</g>
<!-- 6 -->
<g id="node7" class="node">
<title>6</title>
<g id="a_node7"><a xlink:href="from_human resources officer.svg" xlink:title="human resources officer">
<ellipse fill="none" stroke="black" cx="950.49" cy="-18" rx="98.58" ry="18"/>
<text text-anchor="middle" x="950.49" y="-14.3" font-family="Times New Roman,serif" font-size="14.00">human resources officer</text>
</a>
</g>
</g>
<!-- 0&#45;&gt;6 -->
<g id="edge7" class="edge">
<title>0&#45;&gt;6</title>
<path fill="none" stroke="black" d="M800.61,-89.39C829.95,-75.61 874.22,-54.82 907.04,-39.41"/>
<polygon fill="black" stroke="black" points="908.84,-42.43 916.4,-35.01 905.86,-36.09 908.84,-42.43"/>
<text text-anchor="middle" x="886.99" y="-57.8" font-family="Times New Roman,serif" font-size="14.00">0.025</text>
</g>
<!-- 7 -->
<g id="node8" class="node">
<title>7</title>
<g id="a_node8"><a xlink:href="from_production manager.svg" xlink:title="production manager">
<ellipse fill="none" stroke="black" cx="1150.49" cy="-18" rx="83.39" ry="18"/>
<text text-anchor="middle" x="1150.49" y="-14.3" font-family="Times New Roman,serif" font-size="14.00">production manager</text>
</a>
</g>
</g>
<!-- 0&#45;&gt;7 -->
<g id="edge8" class="edge">
<title>0&#45;&gt;7</title>
<path fill="none" stroke="black" d="M816.59,-93.49C884.05,-78.44 1008.43,-50.69 1084.87,-33.64"/>
<polygon fill="black" stroke="black" points="1085.86,-37 1094.86,-31.41 1084.34,-30.17 1085.86,-37"/>
<text text-anchor="middle" x="998.99" y="-57.8" font-family="Times New Roman,serif" font-size="14.00">0.025</text>
</g>
<!-- 8 -->
<g id="node9" class="node">
<title>8</title>
<g id="a_node9"><a xlink:href="from_retail buyer.svg" xlink:title="retail buyer">
<ellipse fill="none" stroke="black" cx="1302.49" cy="-18" rx="50.89" ry="18"/>
<text text-anchor="middle" x="1302.49" y="-14.3" font-family="Times New Roman,serif" font-size="14.00">retail buyer</text>
</a>
</g>
</g>
<!-- 0&#45;&gt;8 -->
<g id="edge9" class="edge">
<title>0&#45;&gt;8</title>
<path fill="none" stroke="black" d="M826.36,-98.37C915.64,-88.96 1093.84,-67.87 1242.49,-36 1246.66,-35.11 1250.97,-34.09 1255.27,-33"/>
<polygon fill="black" stroke="black" points="1256.46,-36.3 1265.23,-30.37 1254.67,-29.54 1256.46,-36.3"/>
<text text-anchor="middle" x="1155.99" y="-57.8" font-family="Times New Roman,serif" font-size="14.00">0.025</text>
</g>
<!-- 9 -->
<g id="node10" class="node">
<title>9</title>
<g id="a_node10"><a xlink:href="from_sales manager.svg" xlink:title="sales manager">
<ellipse fill="none" stroke="black" cx="1432.49" cy="-18" rx="61.19" ry="18"/>
<text text-anchor="middle" x="1432.49" y="-14.3" font-family="Times New Roman,serif" font-size="14.00">sales manager</text>
</a>
</g>
</g>
<!-- 0&#45;&gt;9 -->
<g id="edge10" class="edge">
<title>0&#45;&gt;9</title>
<path fill="none" stroke="black" d="M828.84,-100.54C908.09,-95.54 1052.74,-85.09 1175.49,-69 1259.17,-58.03 1279.89,-53.3 1362.49,-36 1367.49,-34.95 1372.68,-33.81 1377.86,-32.62"/>
<polygon fill="black" stroke="black" points="1378.84,-35.99 1387.78,-30.31 1377.24,-29.17 1378.84,-35.99"/>
<text text-anchor="middle" x="1288.99" y="-57.8" font-family="Times New Roman,serif" font-size="14.00">0.025</text>
</g>
</g>
</svg>
