<?xml version="1.0" encoding="UTF-8" standalone="no"?>
<!DOCTYPE svg PUBLIC "-//W3C//DTD SVG 1.1//EN"
 "http://www.w3.org/Graphics/SVG/1.1/DTD/svg11.dtd">
<!-- Generated by graphviz version 2.44.1 (20200629.0800)
 -->
<!-- Title: test Pages: 1 -->
<svg width="1576pt" height="131pt"
 viewBox="0.00 0.00 1576.39 131.00" xmlns="http://www.w3.org/2000/svg" xmlns:xlink="http://www.w3.org/1999/xlink">
<g id="graph0" class="graph" transform="scale(1 1) rotate(0) translate(4 127)">
<title>test</title>
<polygon fill="white" stroke="transparent" points="-4,4 -4,-127 1572.39,-127 1572.39,4 -4,4"/>
<!-- 0 -->
<g id="node1" class="node">
<title>0</title>
<g id="a_node1"><a xlink:href="from_tourist information manager.svg" xlink:title="tourist information manager">
<ellipse fill="none" stroke="black" cx="715.6" cy="-105" rx="110.48" ry="18"/>
<text text-anchor="middle" x="715.6" y="-101.3" font-family="Times New Roman,serif" font-size="14.00">tourist information manager</text>
</a>
</g>
</g>
<!-- 0&#45;&gt;0 -->
<g id="edge1" class="edge">
<title>0&#45;&gt;0</title>
<path fill="none" stroke="black" d="M816.86,-112.25C833.02,-111.19 844.09,-108.77 844.09,-105 844.09,-102.08 837.47,-99.97 826.99,-98.68"/>
<polygon fill="black" stroke="black" points="827.14,-95.18 816.86,-97.75 826.5,-102.15 827.14,-95.18"/>
<text text-anchor="middle" x="859.59" y="-101.3" font-family="Times New Roman,serif" font-size="14.00">0.145</text>
</g>
<!-- 1 -->
<g id="node2" class="node">
<title>1</title>
<g id="a_node2"><a xlink:href="from_it consultant.svg" xlink:title="it consultant">
<ellipse fill="none" stroke="black" cx="54.6" cy="-18" rx="54.69" ry="18"/>
<text text-anchor="middle" x="54.6" y="-14.3" font-family="Times New Roman,serif" font-size="14.00">it consultant</text>
</a>
</g>
</g>
<!-- 0&#45;&gt;1 -->
<g id="edge2" class="edge">
<title>0&#45;&gt;1</title>
<path fill="none" stroke="black" d="M613.67,-98C493.94,-89.67 289.79,-71.45 117.6,-36 113.17,-35.09 108.59,-34.05 104.02,-32.94"/>
<polygon fill="black" stroke="black" points="104.63,-29.49 94.08,-30.44 102.92,-36.27 104.63,-29.49"/>
<text text-anchor="middle" x="329.1" y="-57.8" font-family="Times New Roman,serif" font-size="14.00">0.080</text>
</g>
<!-- 2 -->
<g id="node3" class="node">
<title>2</title>
<g id="a_node3"><a xlink:href="from_project manager.svg" xlink:title="project manager">
<ellipse fill="none" stroke="black" cx="195.6" cy="-18" rx="68.79" ry="18"/>
<text text-anchor="middle" x="195.6" y="-14.3" font-family="Times New Roman,serif" font-size="14.00">project manager</text>
</a>
</g>
</g>
<!-- 0&#45;&gt;2 -->
<g id="edge3" class="edge">
<title>0&#45;&gt;2</title>
<path fill="none" stroke="black" d="M633.47,-92.92C544.52,-80.55 398.59,-59.21 273.6,-36 267.83,-34.93 261.85,-33.75 255.87,-32.52"/>
<polygon fill="black" stroke="black" points="256.36,-29.05 245.85,-30.43 254.93,-35.9 256.36,-29.05"/>
<text text-anchor="middle" x="483.1" y="-57.8" font-family="Times New Roman,serif" font-size="14.00">0.064</text>
</g>
<!-- 3 -->
<g id="node4" class="node">
<title>3</title>
<g id="a_node4"><a xlink:href="from_pharmacovigilance officer.svg" xlink:title="pharmacovigilance officer">
<ellipse fill="none" stroke="black" cx="387.6" cy="-18" rx="104.78" ry="18"/>
<text text-anchor="middle" x="387.6" y="-14.3" font-family="Times New Roman,serif" font-size="14.00">pharmacovigilance officer</text>
</a>
</g>
</g>
<!-- 0&#45;&gt;3 -->
<g id="edge4" class="edge">
<title>0&#45;&gt;3</title>
<path fill="none" stroke="black" d="M659.21,-89.39C601.87,-74.53 513.1,-51.52 452.77,-35.89"/>
<polygon fill="black" stroke="black" points="453.53,-32.47 442.97,-33.35 451.77,-39.25 453.53,-32.47"/>
<text text-anchor="middle" x="587.1" y="-57.8" font-family="Times New Roman,serif" font-size="14.00">0.048</text>
</g>
<!-- 4 -->
<g id="node5" class="node">
<title>4</title>
<g id="a_node5"><a xlink:href="from_sales manager.svg" xlink:title="sales manager">
<ellipse fill="none" stroke="black" cx="571.6" cy="-18" rx="61.19" ry="18"/>
<text text-anchor="middle" x="571.6" y="-14.3" font-family="Times New Roman,serif" font-size="14.00">sales manager</text>
</a>
</g>
</g>
<!-- 0&#45;&gt;4 -->
<g id="edge5" class="edge">
<title>0&#45;&gt;4</title>
<path fill="none" stroke="black" d="M687.49,-87.41C664.31,-73.73 631.31,-54.25 606.45,-39.57"/>
<polygon fill="black" stroke="black" points="608.08,-36.47 597.69,-34.4 604.52,-42.5 608.08,-36.47"/>
<text text-anchor="middle" x="668.1" y="-57.8" font-family="Times New Roman,serif" font-size="14.00">0.048</text>
</g>
<!-- 5 -->
<g id="node6" class="node">
<title>5</title>
<g id="a_node6"><a xlink:href="from_careers adviser.svg" xlink:title="careers adviser">
<ellipse fill="none" stroke="black" cx="715.6" cy="-18" rx="64.99" ry="18"/>
<text text-anchor="middle" x="715.6" y="-14.3" font-family="Times New Roman,serif" font-size="14.00">careers adviser</text>
</a>
</g>
</g>
<!-- 0&#45;&gt;5 -->
<g id="edge6" class="edge">
<title>0&#45;&gt;5</title>
<path fill="none" stroke="black" d="M715.6,-86.8C715.6,-75.16 715.6,-59.55 715.6,-46.24"/>
<polygon fill="black" stroke="black" points="719.1,-46.18 715.6,-36.18 712.1,-46.18 719.1,-46.18"/>
<text text-anchor="middle" x="731.1" y="-57.8" font-family="Times New Roman,serif" font-size="14.00">0.032</text>
</g>
<!-- 6 -->
<g id="node7" class="node">
<title>6</title>
<g id="a_node7"><a xlink:href="from_community worker.svg" xlink:title="community worker">
<ellipse fill="none" stroke="black" cx="877.6" cy="-18" rx="79.09" ry="18"/>
<text text-anchor="middle" x="877.6" y="-14.3" font-family="Times New Roman,serif" font-size="14.00">community worker</text>
</a>
</g>
</g>
<!-- 0&#45;&gt;6 -->
<g id="edge7" class="edge">
<title>0&#45;&gt;6</title>
<path fill="none" stroke="black" d="M746.83,-87.61C772.93,-73.91 810.3,-54.31 838.4,-39.56"/>
<polygon fill="black" stroke="black" points="840.32,-42.51 847.55,-34.76 837.07,-36.31 840.32,-42.51"/>
<text text-anchor="middle" x="822.1" y="-57.8" font-family="Times New Roman,serif" font-size="14.00">0.032</text>
</g>
<!-- 7 -->
<g id="node8" class="node">
<title>7</title>
<g id="a_node8"><a xlink:href="from_education administrator.svg" xlink:title="education administrator">
<ellipse fill="none" stroke="black" cx="1070.6" cy="-18" rx="95.58" ry="18"/>
<text text-anchor="middle" x="1070.6" y="-14.3" font-family="Times New Roman,serif" font-size="14.00">education administrator</text>
</a>
</g>
</g>
<!-- 0&#45;&gt;7 -->
<g id="edge8" class="edge">
<title>0&#45;&gt;7</title>
<path fill="none" stroke="black" d="M775.01,-89.77C838.28,-74.62 938.19,-50.7 1004.05,-34.93"/>
<polygon fill="black" stroke="black" points="1005.01,-38.3 1013.92,-32.57 1003.38,-31.5 1005.01,-38.3"/>
<text text-anchor="middle" x="930.1" y="-57.8" font-family="Times New Roman,serif" font-size="14.00">0.032</text>
</g>
<!-- 8 -->
<g id="node9" class="node">
<title>8</title>
<g id="a_node9"><a xlink:href="from_environmental health officer.svg" xlink:title="environmental health officer">
<ellipse fill="none" stroke="black" cx="1294.6" cy="-18" rx="110.48" ry="18"/>
<text text-anchor="middle" x="1294.6" y="-14.3" font-family="Times New Roman,serif" font-size="14.00">environmental health officer</text>
</a>
</g>
</g>
<!-- 0&#45;&gt;8 -->
<g id="edge9" class="edge">
<title>0&#45;&gt;8</title>
<path fill="none" stroke="black" d="M794.59,-92.4C901.83,-76.66 1092.96,-48.6 1205.29,-32.11"/>
<polygon fill="black" stroke="black" points="1205.86,-35.57 1215.24,-30.65 1204.84,-28.64 1205.86,-35.57"/>
<text text-anchor="middle" x="1056.1" y="-57.8" font-family="Times New Roman,serif" font-size="14.00">0.032</text>
</g>
<!-- 9 -->
<g id="node10" class="node">
<title>9</title>
<g id="a_node10"><a xlink:href="from_facilities manager.svg" xlink:title="facilities manager">
<ellipse fill="none" stroke="black" cx="1495.6" cy="-18" rx="72.59" ry="18"/>
<text text-anchor="middle" x="1495.6" y="-14.3" font-family="Times New Roman,serif" font-size="14.00">facilities manager</text>
</a>
</g>
</g>
<!-- 0&#45;&gt;9 -->
<g id="edge10" class="edge">
<title>0&#45;&gt;9</title>
<path fill="none" stroke="black" d="M816.58,-97.58C952.7,-88.16 1202.34,-68.12 1413.6,-36 1420.16,-35 1427,-33.82 1433.79,-32.55"/>
<polygon fill="black" stroke="black" points="1434.54,-35.97 1443.69,-30.63 1433.21,-29.1 1434.54,-35.97"/>
<text text-anchor="middle" x="1297.1" y="-57.8" font-family="Times New Roman,serif" font-size="14.00">0.032</text>
</g>
</g>
</svg>
