<?xml version="1.0" encoding="UTF-8" standalone="no"?>
<!DOCTYPE svg PUBLIC "-//W3C//DTD SVG 1.1//EN"
 "http://www.w3.org/Graphics/SVG/1.1/DTD/svg11.dtd">
<!-- Generated by graphviz version 2.44.1 (20200629.0800)
 -->
<!-- Title: test Pages: 1 -->
<svg width="1486pt" height="131pt"
 viewBox="0.00 0.00 1485.89 131.00" xmlns="http://www.w3.org/2000/svg" xmlns:xlink="http://www.w3.org/1999/xlink">
<g id="graph0" class="graph" transform="scale(1 1) rotate(0) translate(4 127)">
<title>test</title>
<polygon fill="white" stroke="transparent" points="-4,4 -4,-127 1481.89,-127 1481.89,4 -4,4"/>
<!-- 0 -->
<g id="node1" class="node">
<title>0</title>
<g id="a_node1"><a xlink:href="from_content manager.svg" xlink:title="content manager">
<ellipse fill="none" stroke="black" cx="810.89" cy="-105" rx="70.39" ry="18"/>
<text text-anchor="middle" x="810.89" y="-101.3" font-family="Times New Roman,serif" font-size="14.00">content manager</text>
</a>
</g>
</g>
<!-- 0&#45;&gt;0 -->
<g id="edge1" class="edge">
<title>0&#45;&gt;0</title>
<path fill="none" stroke="black" d="M874.71,-112.66C888.81,-111.94 899.09,-109.39 899.09,-105 899.09,-101.74 893.43,-99.5 884.75,-98.26"/>
<polygon fill="black" stroke="black" points="884.99,-94.77 874.71,-97.34 884.35,-101.74 884.99,-94.77"/>
<text text-anchor="middle" x="914.59" y="-101.3" font-family="Times New Roman,serif" font-size="14.00">0.237</text>
</g>
<!-- 1 -->
<g id="node2" class="node">
<title>1</title>
<g id="a_node2"><a xlink:href="from_marketing executive.svg" xlink:title="marketing executive">
<ellipse fill="none" stroke="black" cx="81.89" cy="-18" rx="81.79" ry="18"/>
<text text-anchor="middle" x="81.89" y="-14.3" font-family="Times New Roman,serif" font-size="14.00">marketing executive</text>
</a>
</g>
</g>
<!-- 0&#45;&gt;1 -->
<g id="edge2" class="edge">
<title>0&#45;&gt;1</title>
<path fill="none" stroke="black" d="M744.48,-99.08C628.2,-89.99 380.34,-68.46 172.89,-36 165.8,-34.89 158.41,-33.65 151.04,-32.36"/>
<polygon fill="black" stroke="black" points="151.5,-28.88 141.04,-30.57 150.27,-35.77 151.5,-28.88"/>
<text text-anchor="middle" x="433.39" y="-57.8" font-family="Times New Roman,serif" font-size="14.00">0.090</text>
</g>
<!-- 2 -->
<g id="node3" class="node">
<title>2</title>
<g id="a_node3"><a xlink:href="from_production manager.svg" xlink:title="production manager">
<ellipse fill="none" stroke="black" cx="264.89" cy="-18" rx="83.39" ry="18"/>
<text text-anchor="middle" x="264.89" y="-14.3" font-family="Times New Roman,serif" font-size="14.00">production manager</text>
</a>
</g>
</g>
<!-- 0&#45;&gt;2 -->
<g id="edge3" class="edge">
<title>0&#45;&gt;2</title>
<path fill="none" stroke="black" d="M750.56,-95.7C663.47,-83.55 497.56,-59.79 356.89,-36 349.85,-34.81 342.5,-33.52 335.18,-32.21"/>
<polygon fill="black" stroke="black" points="335.68,-28.75 325.22,-30.42 334.44,-35.64 335.68,-28.75"/>
<text text-anchor="middle" x="572.39" y="-57.8" font-family="Times New Roman,serif" font-size="14.00">0.090</text>
</g>
<!-- 3 -->
<g id="node4" class="node">
<title>3</title>
<g id="a_node4"><a xlink:href="from_marketing assistant.svg" xlink:title="marketing assistant">
<ellipse fill="none" stroke="black" cx="444.89" cy="-18" rx="79.09" ry="18"/>
<text text-anchor="middle" x="444.89" y="-14.3" font-family="Times New Roman,serif" font-size="14.00">marketing assistant</text>
</a>
</g>
</g>
<!-- 0&#45;&gt;3 -->
<g id="edge4" class="edge">
<title>0&#45;&gt;3</title>
<path fill="none" stroke="black" d="M760.77,-92.36C695.04,-77.1 579.71,-50.31 508.07,-33.67"/>
<polygon fill="black" stroke="black" points="508.8,-30.25 498.27,-31.4 507.21,-37.07 508.8,-30.25"/>
<text text-anchor="middle" x="665.39" y="-57.8" font-family="Times New Roman,serif" font-size="14.00">0.073</text>
</g>
<!-- 4 -->
<g id="node5" class="node">
<title>4</title>
<g id="a_node5"><a xlink:href="from_advertising copywriter.svg" xlink:title="advertising copywriter">
<ellipse fill="none" stroke="black" cx="632.89" cy="-18" rx="90.98" ry="18"/>
<text text-anchor="middle" x="632.89" y="-14.3" font-family="Times New Roman,serif" font-size="14.00">advertising copywriter</text>
</a>
</g>
</g>
<!-- 0&#45;&gt;4 -->
<g id="edge5" class="edge">
<title>0&#45;&gt;4</title>
<path fill="none" stroke="black" d="M779.07,-88.8C750.04,-74.94 706.93,-54.35 675.04,-39.13"/>
<polygon fill="black" stroke="black" points="676.48,-35.94 665.95,-34.78 673.46,-42.25 676.48,-35.94"/>
<text text-anchor="middle" x="748.39" y="-57.8" font-family="Times New Roman,serif" font-size="14.00">0.057</text>
</g>
<!-- 5 -->
<g id="node6" class="node">
<title>5</title>
<g id="a_node6"><a xlink:href="from_project manager.svg" xlink:title="project manager">
<ellipse fill="none" stroke="black" cx="810.89" cy="-18" rx="68.79" ry="18"/>
<text text-anchor="middle" x="810.89" y="-14.3" font-family="Times New Roman,serif" font-size="14.00">project manager</text>
</a>
</g>
</g>
<!-- 0&#45;&gt;5 -->
<g id="edge6" class="edge">
<title>0&#45;&gt;5</title>
<path fill="none" stroke="black" d="M810.89,-86.8C810.89,-75.16 810.89,-59.55 810.89,-46.24"/>
<polygon fill="black" stroke="black" points="814.39,-46.18 810.89,-36.18 807.39,-46.18 814.39,-46.18"/>
<text text-anchor="middle" x="826.39" y="-57.8" font-family="Times New Roman,serif" font-size="14.00">0.057</text>
</g>
<!-- 6 -->
<g id="node7" class="node">
<title>6</title>
<g id="a_node7"><a xlink:href="from_commissioning editor.svg" xlink:title="commissioning editor">
<ellipse fill="none" stroke="black" cx="986.89" cy="-18" rx="89.08" ry="18"/>
<text text-anchor="middle" x="986.89" y="-14.3" font-family="Times New Roman,serif" font-size="14.00">commissioning editor</text>
</a>
</g>
</g>
<!-- 0&#45;&gt;6 -->
<g id="edge7" class="edge">
<title>0&#45;&gt;6</title>
<path fill="none" stroke="black" d="M842.36,-88.8C870.94,-75 913.33,-54.53 944.81,-39.32"/>
<polygon fill="black" stroke="black" points="946.73,-42.29 954.21,-34.78 943.68,-35.98 946.73,-42.29"/>
<text text-anchor="middle" x="925.39" y="-57.8" font-family="Times New Roman,serif" font-size="14.00">0.040</text>
</g>
<!-- 7 -->
<g id="node8" class="node">
<title>7</title>
<g id="a_node8"><a xlink:href="from_sales manager.svg" xlink:title="sales manager">
<ellipse fill="none" stroke="black" cx="1154.89" cy="-18" rx="61.19" ry="18"/>
<text text-anchor="middle" x="1154.89" y="-14.3" font-family="Times New Roman,serif" font-size="14.00">sales manager</text>
</a>
</g>
</g>
<!-- 0&#45;&gt;7 -->
<g id="edge8" class="edge">
<title>0&#45;&gt;7</title>
<path fill="none" stroke="black" d="M859.81,-91.91C923.24,-76.24 1033.57,-48.98 1099.85,-32.6"/>
<polygon fill="black" stroke="black" points="1100.83,-35.96 1109.7,-30.17 1099.15,-29.17 1100.83,-35.96"/>
<text text-anchor="middle" x="1019.39" y="-57.8" font-family="Times New Roman,serif" font-size="14.00">0.040</text>
</g>
<!-- 8 -->
<g id="node9" class="node">
<title>8</title>
<g id="a_node9"><a xlink:href="from_media planner.svg" xlink:title="media planner">
<ellipse fill="none" stroke="black" cx="1294.89" cy="-18" rx="61.19" ry="18"/>
<text text-anchor="middle" x="1294.89" y="-14.3" font-family="Times New Roman,serif" font-size="14.00">media planner</text>
</a>
</g>
</g>
<!-- 0&#45;&gt;8 -->
<g id="edge9" class="edge">
<title>0&#45;&gt;8</title>
<path fill="none" stroke="black" d="M871.54,-95.75C952.49,-84.35 1100.15,-62.19 1224.89,-36 1229.89,-34.95 1235.07,-33.8 1240.26,-32.62"/>
<polygon fill="black" stroke="black" points="1241.23,-35.98 1250.18,-30.3 1239.64,-29.17 1241.23,-35.98"/>
<text text-anchor="middle" x="1139.39" y="-57.8" font-family="Times New Roman,serif" font-size="14.00">0.032</text>
</g>
<!-- 9 -->
<g id="node10" class="node">
<title>9</title>
<g id="a_node10"><a xlink:href="from_ux designer.svg" xlink:title="ux designer">
<ellipse fill="none" stroke="black" cx="1425.89" cy="-18" rx="51.99" ry="18"/>
<text text-anchor="middle" x="1425.89" y="-14.3" font-family="Times New Roman,serif" font-size="14.00">ux designer</text>
</a>
</g>
</g>
<!-- 0&#45;&gt;9 -->
<g id="edge10" class="edge">
<title>0&#45;&gt;9</title>
<path fill="none" stroke="black" d="M878.52,-99.78C983.57,-92.31 1191.89,-73.84 1364.89,-36 1369.06,-35.09 1373.37,-34.06 1377.67,-32.98"/>
<polygon fill="black" stroke="black" points="1378.87,-36.28 1387.66,-30.37 1377.1,-29.51 1378.87,-36.28"/>
<text text-anchor="middle" x="1276.39" y="-57.8" font-family="Times New Roman,serif" font-size="14.00">0.032</text>
</g>
</g>
</svg>
