<?xml version="1.0" encoding="UTF-8" standalone="no"?>
<!DOCTYPE svg PUBLIC "-//W3C//DTD SVG 1.1//EN"
 "http://www.w3.org/Graphics/SVG/1.1/DTD/svg11.dtd">
<!-- Generated by graphviz version 2.44.1 (20200629.0800)
 -->
<!-- Title: civil_service_administrator Pages: 1 -->
<svg width="1373pt" height="131pt"
 viewBox="0.00 0.00 1373.24 131.00" xmlns="http://www.w3.org/2000/svg" xmlns:xlink="http://www.w3.org/1999/xlink">
<g id="graph0" class="graph" transform="scale(1 1) rotate(0) translate(4 127)">
<title>civil_service_administrator</title>
<polygon fill="white" stroke="transparent" points="-4,4 -4,-127 1369.24,-127 1369.24,4 -4,4"/>
<!-- 0 -->
<g id="node1" class="node">
<title>0</title>
<g id="a_node1"><a xlink:href="from_civil service administrator.svg" xlink:title="civil service administrator">
<ellipse fill="none" stroke="black" cx="737.89" cy="-105" rx="102.88" ry="18"/>
<text text-anchor="middle" x="737.89" y="-101.3" font-family="Times New Roman,serif" font-size="14.00">civil service administrator</text>
</a>
</g>
</g>
<!-- 0&#45;&gt;0 -->
<g id="edge2" class="edge">
<title>0&#45;&gt;0</title>
<path fill="none" stroke="black" d="M831.76,-112.34C847.62,-111.32 858.58,-108.88 858.58,-105 858.58,-102.03 852.16,-99.9 842.03,-98.61"/>
<polygon fill="black" stroke="black" points="842.04,-95.1 831.76,-97.66 841.4,-102.07 842.04,-95.1"/>
<text text-anchor="middle" x="874.08" y="-101.3" font-family="Times New Roman,serif" font-size="14.00">0.080</text>
</g>
<!-- 1 -->
<g id="node2" class="node">
<title>1</title>
<g id="a_node2"><a xlink:href="from_project manager.svg" xlink:title="project manager">
<ellipse fill="none" stroke="black" cx="68.89" cy="-18" rx="68.79" ry="18"/>
<text text-anchor="middle" x="68.89" y="-14.3" font-family="Times New Roman,serif" font-size="14.00">project manager</text>
</a>
</g>
</g>
<!-- 0&#45;&gt;1 -->
<g id="edge1" class="edge">
<title>0&#45;&gt;1</title>
<path fill="none" stroke="black" d="M647.39,-96.42C531.09,-86.04 323.16,-65.27 146.89,-36 141.03,-35.03 134.93,-33.9 128.85,-32.7"/>
<polygon fill="black" stroke="black" points="129.18,-29.2 118.68,-30.63 127.78,-36.05 129.18,-29.2"/>
<text text-anchor="middle" x="389.39" y="-57.8" font-family="Times New Roman,serif" font-size="14.00">0.111</text>
</g>
<!-- 2 -->
<g id="node3" class="node">
<title>2</title>
<g id="a_node3"><a xlink:href="from_pharmacovigilance officer.svg" xlink:title="pharmacovigilance officer">
<ellipse fill="none" stroke="black" cx="260.89" cy="-18" rx="104.78" ry="18"/>
<text text-anchor="middle" x="260.89" y="-14.3" font-family="Times New Roman,serif" font-size="14.00">pharmacovigilance officer</text>
</a>
</g>
</g>
<!-- 0&#45;&gt;2 -->
<g id="edge3" class="edge">
<title>0&#45;&gt;2</title>
<path fill="none" stroke="black" d="M668.53,-91.64C581.49,-76.13 432.52,-49.58 340.79,-33.24"/>
<polygon fill="black" stroke="black" points="341.18,-29.75 330.73,-31.44 339.96,-36.64 341.18,-29.75"/>
<text text-anchor="middle" x="544.39" y="-57.8" font-family="Times New Roman,serif" font-size="14.00">0.061</text>
</g>
<!-- 3 -->
<g id="node4" class="node">
<title>3</title>
<g id="a_node4"><a xlink:href="from_facilities manager.svg" xlink:title="facilities manager">
<ellipse fill="none" stroke="black" cx="455.89" cy="-18" rx="72.59" ry="18"/>
<text text-anchor="middle" x="455.89" y="-14.3" font-family="Times New Roman,serif" font-size="14.00">facilities manager</text>
</a>
</g>
</g>
<!-- 0&#45;&gt;3 -->
<g id="edge4" class="edge">
<title>0&#45;&gt;3</title>
<path fill="none" stroke="black" d="M688.45,-89.1C638.44,-74.02 561.36,-50.79 509.81,-35.25"/>
<polygon fill="black" stroke="black" points="510.75,-31.88 500.17,-32.35 508.73,-38.58 510.75,-31.88"/>
<text text-anchor="middle" x="629.39" y="-57.8" font-family="Times New Roman,serif" font-size="14.00">0.043</text>
</g>
<!-- 4 -->
<g id="node5" class="node">
<title>4</title>
<g id="a_node5"><a xlink:href="from_it consultant.svg" xlink:title="it consultant">
<ellipse fill="none" stroke="black" cx="600.89" cy="-18" rx="54.69" ry="18"/>
<text text-anchor="middle" x="600.89" y="-14.3" font-family="Times New Roman,serif" font-size="14.00">it consultant</text>
</a>
</g>
</g>
<!-- 0&#45;&gt;4 -->
<g id="edge5" class="edge">
<title>0&#45;&gt;4</title>
<path fill="none" stroke="black" d="M711.15,-87.41C689.06,-73.7 657.59,-54.18 633.92,-39.49"/>
<polygon fill="black" stroke="black" points="635.61,-36.42 625.27,-34.12 631.92,-42.37 635.61,-36.42"/>
<text text-anchor="middle" x="693.39" y="-57.8" font-family="Times New Roman,serif" font-size="14.00">0.043</text>
</g>
<!-- 5 -->
<g id="node6" class="node">
<title>5</title>
<g id="a_node6"><a xlink:href="from_office manager.svg" xlink:title="office manager">
<ellipse fill="none" stroke="black" cx="737.89" cy="-18" rx="64.19" ry="18"/>
<text text-anchor="middle" x="737.89" y="-14.3" font-family="Times New Roman,serif" font-size="14.00">office manager</text>
</a>
</g>
</g>
<!-- 0&#45;&gt;5 -->
<g id="edge6" class="edge">
<title>0&#45;&gt;5</title>
<path fill="none" stroke="black" d="M737.89,-86.8C737.89,-75.16 737.89,-59.55 737.89,-46.24"/>
<polygon fill="black" stroke="black" points="741.39,-46.18 737.89,-36.18 734.39,-46.18 741.39,-46.18"/>
<text text-anchor="middle" x="753.39" y="-57.8" font-family="Times New Roman,serif" font-size="14.00">0.030</text>
</g>
<!-- 6 -->
<g id="node7" class="node">
<title>6</title>
<g id="a_node7"><a xlink:href="from_sales manager.svg" xlink:title="sales manager">
<ellipse fill="none" stroke="black" cx="880.89" cy="-18" rx="61.19" ry="18"/>
<text text-anchor="middle" x="880.89" y="-14.3" font-family="Times New Roman,serif" font-size="14.00">sales manager</text>
</a>
</g>
</g>
<!-- 0&#45;&gt;6 -->
<g id="edge7" class="edge">
<title>0&#45;&gt;6</title>
<path fill="none" stroke="black" d="M765.47,-87.61C788.45,-73.95 821.33,-54.41 846.12,-39.67"/>
<polygon fill="black" stroke="black" points="848.04,-42.6 854.85,-34.48 844.47,-36.58 848.04,-42.6"/>
<text text-anchor="middle" x="834.39" y="-57.8" font-family="Times New Roman,serif" font-size="14.00">0.030</text>
</g>
<!-- 7 -->
<g id="node8" class="node">
<title>7</title>
<g id="a_node8"><a xlink:href="from_logistics manager.svg" xlink:title="logistics manager">
<ellipse fill="none" stroke="black" cx="1033.89" cy="-18" rx="73.39" ry="18"/>
<text text-anchor="middle" x="1033.89" y="-14.3" font-family="Times New Roman,serif" font-size="14.00">logistics manager</text>
</a>
</g>
</g>
<!-- 0&#45;&gt;7 -->
<g id="edge8" class="edge">
<title>0&#45;&gt;7</title>
<path fill="none" stroke="black" d="M789.12,-89.29C841.92,-74.13 924,-50.56 978.34,-34.95"/>
<polygon fill="black" stroke="black" points="979.51,-38.26 988.15,-32.14 977.58,-31.53 979.51,-38.26"/>
<text text-anchor="middle" x="919.39" y="-57.8" font-family="Times New Roman,serif" font-size="14.00">0.024</text>
</g>
<!-- 8 -->
<g id="node9" class="node">
<title>8</title>
<g id="a_node9"><a xlink:href="from_qa analyst.svg" xlink:title="qa analyst">
<ellipse fill="none" stroke="black" cx="1171.89" cy="-18" rx="46.59" ry="18"/>
<text text-anchor="middle" x="1171.89" y="-14.3" font-family="Times New Roman,serif" font-size="14.00">qa analyst</text>
</a>
</g>
</g>
<!-- 0&#45;&gt;8 -->
<g id="edge9" class="edge">
<title>0&#45;&gt;8</title>
<path fill="none" stroke="black" d="M814.85,-93C891.65,-81.36 1012.74,-61.19 1115.89,-36 1119.67,-35.08 1123.57,-34.05 1127.47,-32.97"/>
<polygon fill="black" stroke="black" points="1128.46,-36.33 1137.11,-30.21 1126.53,-29.6 1128.46,-36.33"/>
<text text-anchor="middle" x="1049.39" y="-57.8" font-family="Times New Roman,serif" font-size="14.00">0.024</text>
</g>
<!-- 9 -->
<g id="node10" class="node">
<title>9</title>
<g id="a_node10"><a xlink:href="from_sales executive.svg" xlink:title="sales executive">
<ellipse fill="none" stroke="black" cx="1300.89" cy="-18" rx="64.19" ry="18"/>
<text text-anchor="middle" x="1300.89" y="-14.3" font-family="Times New Roman,serif" font-size="14.00">sales executive</text>
</a>
</g>
</g>
<!-- 0&#45;&gt;9 -->
<g id="edge10" class="edge">
<title>0&#45;&gt;9</title>
<path fill="none" stroke="black" d="M829.53,-96.77C896.16,-90.92 988.39,-81.58 1068.89,-69 1140.2,-57.86 1157.41,-51.52 1227.89,-36 1232.93,-34.89 1238.15,-33.72 1243.39,-32.53"/>
<polygon fill="black" stroke="black" points="1244.45,-35.88 1253.42,-30.23 1242.89,-29.05 1244.45,-35.88"/>
<text text-anchor="middle" x="1164.39" y="-57.8" font-family="Times New Roman,serif" font-size="14.00">0.024</text>
</g>
</g>
</svg>
