<?xml version="1.0" encoding="UTF-8" standalone="no"?>
<!DOCTYPE svg PUBLIC "-//W3C//DTD SVG 1.1//EN"
 "http://www.w3.org/Graphics/SVG/1.1/DTD/svg11.dtd">
<!-- Generated by graphviz version 2.44.1 (20200629.0800)
 -->
<!-- Title: prison_officer Pages: 1 -->
<svg width="1030pt" height="131pt"
 viewBox="0.00 0.00 1030.38 131.00" xmlns="http://www.w3.org/2000/svg" xmlns:xlink="http://www.w3.org/1999/xlink">
<g id="graph0" class="graph" transform="scale(1 1) rotate(0) translate(4 127)">
<title>prison_officer</title>
<polygon fill="white" stroke="transparent" points="-4,4 -4,-127 1026.38,-127 1026.38,4 -4,4"/>
<!-- 0 -->
<g id="node1" class="node">
<title>0</title>
<g id="a_node1"><a xlink:href="from_prison officer.svg" xlink:title="prison officer">
<ellipse fill="none" stroke="black" cx="465.14" cy="-105" rx="59.59" ry="18"/>
<text text-anchor="middle" x="465.14" y="-101.3" font-family="Times New Roman,serif" font-size="14.00">prison officer</text>
</a>
</g>
</g>
<!-- 1 -->
<g id="node2" class="node">
<title>1</title>
<g id="a_node2"><a xlink:href="from_armed forces officer.svg" xlink:title="armed forces officer">
<ellipse fill="none" stroke="black" cx="85.14" cy="-18" rx="85.29" ry="18"/>
<text text-anchor="middle" x="85.14" y="-14.3" font-family="Times New Roman,serif" font-size="14.00">armed forces officer</text>
</a>
</g>
</g>
<!-- 0&#45;&gt;1 -->
<g id="edge1" class="edge">
<title>0&#45;&gt;1</title>
<path fill="none" stroke="black" d="M418.55,-93.58C351.59,-78.6 227.84,-50.92 151.39,-33.82"/>
<polygon fill="black" stroke="black" points="151.91,-30.35 141.39,-31.58 150.39,-37.18 151.91,-30.35"/>
<text text-anchor="middle" x="307.14" y="-57.8" font-family="Times New Roman,serif" font-size="14.00">0.2</text>
</g>
<!-- 2 -->
<g id="node3" class="node">
<title>2</title>
<g id="a_node3"><a xlink:href="from_environmental manager.svg" xlink:title="environmental manager">
<ellipse fill="none" stroke="black" cx="282.14" cy="-18" rx="93.68" ry="18"/>
<text text-anchor="middle" x="282.14" y="-14.3" font-family="Times New Roman,serif" font-size="14.00">environmental manager</text>
</a>
</g>
</g>
<!-- 0&#45;&gt;2 -->
<g id="edge2" class="edge">
<title>0&#45;&gt;2</title>
<path fill="none" stroke="black" d="M434.1,-89.58C404.18,-75.68 358.65,-54.53 325.22,-39.01"/>
<polygon fill="black" stroke="black" points="326.68,-35.83 316.14,-34.79 323.73,-42.18 326.68,-35.83"/>
<text text-anchor="middle" x="394.14" y="-57.8" font-family="Times New Roman,serif" font-size="14.00">0.2</text>
</g>
<!-- 3 -->
<g id="node4" class="node">
<title>3</title>
<g id="a_node4"><a xlink:href="from_forensic scientist.svg" xlink:title="forensic scientist">
<ellipse fill="none" stroke="black" cx="465.14" cy="-18" rx="71.49" ry="18"/>
<text text-anchor="middle" x="465.14" y="-14.3" font-family="Times New Roman,serif" font-size="14.00">forensic scientist</text>
</a>
</g>
</g>
<!-- 0&#45;&gt;3 -->
<g id="edge3" class="edge">
<title>0&#45;&gt;3</title>
<path fill="none" stroke="black" d="M465.14,-86.8C465.14,-75.16 465.14,-59.55 465.14,-46.24"/>
<polygon fill="black" stroke="black" points="468.64,-46.18 465.14,-36.18 461.64,-46.18 468.64,-46.18"/>
<text text-anchor="middle" x="474.14" y="-57.8" font-family="Times New Roman,serif" font-size="14.00">0.2</text>
</g>
<!-- 4 -->
<g id="node5" class="node">
<title>4</title>
<g id="a_node5"><a xlink:href="from_pharmacovigilance officer.svg" xlink:title="pharmacovigilance officer">
<ellipse fill="none" stroke="black" cx="659.14" cy="-18" rx="104.78" ry="18"/>
<text text-anchor="middle" x="659.14" y="-14.3" font-family="Times New Roman,serif" font-size="14.00">pharmacovigilance officer</text>
</a>
</g>
</g>
<!-- 0&#45;&gt;4 -->
<g id="edge4" class="edge">
<title>0&#45;&gt;4</title>
<path fill="none" stroke="black" d="M497.61,-89.77C529.3,-75.89 577.8,-54.64 613.39,-39.05"/>
<polygon fill="black" stroke="black" points="614.84,-42.23 622.6,-35.01 612.03,-35.82 614.84,-42.23"/>
<text text-anchor="middle" x="583.14" y="-57.8" font-family="Times New Roman,serif" font-size="14.00">0.2</text>
</g>
<!-- 5 -->
<g id="node6" class="node">
<title>5</title>
<g id="a_node6"><a xlink:href="from_television production assistant.svg" xlink:title="television production assistant">
<ellipse fill="none" stroke="black" cx="902.14" cy="-18" rx="120.48" ry="18"/>
<text text-anchor="middle" x="902.14" y="-14.3" font-family="Times New Roman,serif" font-size="14.00">television production assistant</text>
</a>
</g>
</g>
<!-- 0&#45;&gt;5 -->
<g id="edge5" class="edge">
<title>0&#45;&gt;5</title>
<path fill="none" stroke="black" d="M514,-94.5C588.71,-79.97 732.12,-52.07 822.15,-34.56"/>
<polygon fill="black" stroke="black" points="822.89,-37.98 832.04,-32.64 821.56,-31.11 822.89,-37.98"/>
<text text-anchor="middle" x="719.14" y="-57.8" font-family="Times New Roman,serif" font-size="14.00">0.2</text>
</g>
</g>
</svg>
