<?xml version="1.0" encoding="UTF-8" standalone="no"?>
<!DOCTYPE svg PUBLIC "-//W3C//DTD SVG 1.1//EN"
 "http://www.w3.org/Graphics/SVG/1.1/DTD/svg11.dtd">
<!-- Generated by graphviz version 2.44.1 (20200629.0800)
 -->
<!-- Title: ux_designer Pages: 1 -->
<svg width="1327pt" height="131pt"
 viewBox="0.00 0.00 1326.99 131.00" xmlns="http://www.w3.org/2000/svg" xmlns:xlink="http://www.w3.org/1999/xlink">
<g id="graph0" class="graph" transform="scale(1 1) rotate(0) translate(4 127)">
<title>ux_designer</title>
<polygon fill="white" stroke="transparent" points="-4,4 -4,-127 1322.99,-127 1322.99,4 -4,4"/>
<!-- 0 -->
<g id="node1" class="node">
<title>0</title>
<g id="a_node1"><a xlink:href="from_ux designer.svg" xlink:title="ux designer">
<ellipse fill="none" stroke="black" cx="720.19" cy="-105" rx="51.99" ry="18"/>
<text text-anchor="middle" x="720.19" y="-101.3" font-family="Times New Roman,serif" font-size="14.00">ux designer</text>
</a>
</g>
</g>
<!-- 0&#45;&gt;0 -->
<g id="edge1" class="edge">
<title>0&#45;&gt;0</title>
<path fill="none" stroke="black" d="M767.3,-112.83C780.27,-112.45 790.19,-109.84 790.19,-105 790.19,-101.52 785.07,-99.2 777.37,-98.02"/>
<polygon fill="black" stroke="black" points="777.56,-94.53 767.3,-97.17 776.97,-101.5 777.56,-94.53"/>
<text text-anchor="middle" x="805.69" y="-101.3" font-family="Times New Roman,serif" font-size="14.00">0.844</text>
</g>
<!-- 1 -->
<g id="node2" class="node">
<title>1</title>
<g id="a_node2"><a xlink:href="from_graphic designer.svg" xlink:title="graphic designer">
<ellipse fill="none" stroke="black" cx="70.19" cy="-18" rx="70.39" ry="18"/>
<text text-anchor="middle" x="70.19" y="-14.3" font-family="Times New Roman,serif" font-size="14.00">graphic designer</text>
</a>
</g>
</g>
<!-- 0&#45;&gt;1 -->
<g id="edge2" class="edge">
<title>0&#45;&gt;1</title>
<path fill="none" stroke="black" d="M669.51,-100.65C596.37,-95.51 457.06,-84.62 339.19,-69 254.23,-57.74 233.33,-52.35 149.19,-36 143.46,-34.89 137.5,-33.68 131.54,-32.45"/>
<polygon fill="black" stroke="black" points="132.06,-28.98 121.55,-30.36 130.62,-35.84 132.06,-28.98"/>
<text text-anchor="middle" x="354.69" y="-57.8" font-family="Times New Roman,serif" font-size="14.00">0.093</text>
</g>
<!-- 2 -->
<g id="node3" class="node">
<title>2</title>
<g id="a_node3"><a xlink:href="from_it consultant.svg" xlink:title="it consultant">
<ellipse fill="none" stroke="black" cx="213.19" cy="-18" rx="54.69" ry="18"/>
<text text-anchor="middle" x="213.19" y="-14.3" font-family="Times New Roman,serif" font-size="14.00">it consultant</text>
</a>
</g>
</g>
<!-- 0&#45;&gt;2 -->
<g id="edge3" class="edge">
<title>0&#45;&gt;2</title>
<path fill="none" stroke="black" d="M671.7,-98.34C589.87,-88.4 419.38,-65.97 277.19,-36 272.59,-35.03 267.81,-33.93 263.05,-32.78"/>
<polygon fill="black" stroke="black" points="263.88,-29.38 253.33,-30.34 262.18,-36.17 263.88,-29.38"/>
<text text-anchor="middle" x="474.69" y="-57.8" font-family="Times New Roman,serif" font-size="14.00">0.085</text>
</g>
<!-- 3 -->
<g id="node4" class="node">
<title>3</title>
<g id="a_node4"><a xlink:href="from_software developer.svg" xlink:title="software developer">
<ellipse fill="none" stroke="black" cx="366.19" cy="-18" rx="79.89" ry="18"/>
<text text-anchor="middle" x="366.19" y="-14.3" font-family="Times New Roman,serif" font-size="14.00">software developer</text>
</a>
</g>
</g>
<!-- 0&#45;&gt;3 -->
<g id="edge4" class="edge">
<title>0&#45;&gt;3</title>
<path fill="none" stroke="black" d="M678.54,-94C616.84,-79.18 500.69,-51.3 428.74,-34.02"/>
<polygon fill="black" stroke="black" points="429.43,-30.58 418.89,-31.65 427.79,-37.39 429.43,-30.58"/>
<text text-anchor="middle" x="580.69" y="-57.8" font-family="Times New Roman,serif" font-size="14.00">0.077</text>
</g>
<!-- 4 -->
<g id="node5" class="node">
<title>4</title>
<g id="a_node5"><a xlink:href="from_production manager.svg" xlink:title="production manager">
<ellipse fill="none" stroke="black" cx="547.19" cy="-18" rx="83.39" ry="18"/>
<text text-anchor="middle" x="547.19" y="-14.3" font-family="Times New Roman,serif" font-size="14.00">production manager</text>
</a>
</g>
</g>
<!-- 0&#45;&gt;4 -->
<g id="edge5" class="edge">
<title>0&#45;&gt;4</title>
<path fill="none" stroke="black" d="M691.24,-89.77C663.05,-75.92 619.93,-54.74 588.22,-39.16"/>
<polygon fill="black" stroke="black" points="589.7,-35.99 579.18,-34.72 586.62,-42.27 589.7,-35.99"/>
<text text-anchor="middle" x="659.69" y="-57.8" font-family="Times New Roman,serif" font-size="14.00">0.069</text>
</g>
<!-- 5 -->
<g id="node6" class="node">
<title>5</title>
<g id="a_node6"><a xlink:href="from_heritage manager.svg" xlink:title="heritage manager">
<ellipse fill="none" stroke="black" cx="720.19" cy="-18" rx="71.49" ry="18"/>
<text text-anchor="middle" x="720.19" y="-14.3" font-family="Times New Roman,serif" font-size="14.00">heritage manager</text>
</a>
</g>
</g>
<!-- 0&#45;&gt;5 -->
<g id="edge6" class="edge">
<title>0&#45;&gt;5</title>
<path fill="none" stroke="black" d="M720.19,-86.8C720.19,-75.16 720.19,-59.55 720.19,-46.24"/>
<polygon fill="black" stroke="black" points="723.69,-46.18 720.19,-36.18 716.69,-46.18 723.69,-46.18"/>
<text text-anchor="middle" x="735.69" y="-57.8" font-family="Times New Roman,serif" font-size="14.00">0.038</text>
</g>
<!-- 6 -->
<g id="node7" class="node">
<title>6</title>
<g id="a_node7"><a xlink:href="from_project manager.svg" xlink:title="project manager">
<ellipse fill="none" stroke="black" cx="878.19" cy="-18" rx="68.79" ry="18"/>
<text text-anchor="middle" x="878.19" y="-14.3" font-family="Times New Roman,serif" font-size="14.00">project manager</text>
</a>
</g>
</g>
<!-- 0&#45;&gt;6 -->
<g id="edge7" class="edge">
<title>0&#45;&gt;6</title>
<path fill="none" stroke="black" d="M747.35,-89.39C773.07,-75.55 811.91,-54.66 840.59,-39.23"/>
<polygon fill="black" stroke="black" points="842.37,-42.25 849.52,-34.43 839.06,-36.08 842.37,-42.25"/>
<text text-anchor="middle" x="824.69" y="-57.8" font-family="Times New Roman,serif" font-size="14.00">0.038</text>
</g>
<!-- 7 -->
<g id="node8" class="node">
<title>7</title>
<g id="a_node8"><a xlink:href="from_set designer.svg" xlink:title="set designer">
<ellipse fill="none" stroke="black" cx="1019.19" cy="-18" rx="53.89" ry="18"/>
<text text-anchor="middle" x="1019.19" y="-14.3" font-family="Times New Roman,serif" font-size="14.00">set designer</text>
</a>
</g>
</g>
<!-- 0&#45;&gt;7 -->
<g id="edge8" class="edge">
<title>0&#45;&gt;7</title>
<path fill="none" stroke="black" d="M759.3,-93C783.71,-86.12 815.79,-77.07 844.19,-69 886.52,-56.98 934.58,-43.24 969.61,-33.21"/>
<polygon fill="black" stroke="black" points="970.94,-36.47 979.59,-30.36 969.01,-29.74 970.94,-36.47"/>
<text text-anchor="middle" x="908.69" y="-57.8" font-family="Times New Roman,serif" font-size="14.00">0.038</text>
</g>
<!-- 8 -->
<g id="node9" class="node">
<title>8</title>
<g id="a_node9"><a xlink:href="from_web designer.svg" xlink:title="web designer">
<ellipse fill="none" stroke="black" cx="1149.19" cy="-18" rx="58.49" ry="18"/>
<text text-anchor="middle" x="1149.19" y="-14.3" font-family="Times New Roman,serif" font-size="14.00">web designer</text>
</a>
</g>
</g>
<!-- 0&#45;&gt;8 -->
<g id="edge9" class="edge">
<title>0&#45;&gt;8</title>
<path fill="none" stroke="black" d="M766.56,-96.8C808.78,-90.1 872.8,-79.59 928.19,-69 996.95,-55.86 1014.04,-51.94 1082.19,-36 1086.77,-34.93 1091.52,-33.79 1096.28,-32.62"/>
<polygon fill="black" stroke="black" points="1097.14,-36.01 1106,-30.21 1095.45,-29.22 1097.14,-36.01"/>
<text text-anchor="middle" x="1018.69" y="-57.8" font-family="Times New Roman,serif" font-size="14.00">0.038</text>
</g>
<!-- 9 -->
<g id="node10" class="node">
<title>9</title>
<g id="a_node10"><a xlink:href="from_qa analyst.svg" xlink:title="qa analyst">
<ellipse fill="none" stroke="black" cx="1272.19" cy="-18" rx="46.59" ry="18"/>
<text text-anchor="middle" x="1272.19" y="-14.3" font-family="Times New Roman,serif" font-size="14.00">qa analyst</text>
</a>
</g>
</g>
<!-- 0&#45;&gt;9 -->
<g id="edge10" class="edge">
<title>0&#45;&gt;9</title>
<path fill="none" stroke="black" d="M770.82,-100.51C861.27,-93.52 1056.17,-74.99 1216.19,-36 1219.97,-35.08 1223.87,-34.05 1227.78,-32.98"/>
<polygon fill="black" stroke="black" points="1228.76,-36.33 1237.41,-30.22 1226.83,-29.61 1228.76,-36.33"/>
<text text-anchor="middle" x="1138.69" y="-57.8" font-family="Times New Roman,serif" font-size="14.00">0.031</text>
</g>
</g>
</svg>
