<?xml version="1.0" encoding="UTF-8" standalone="no"?>
<!DOCTYPE svg PUBLIC "-//W3C//DTD SVG 1.1//EN"
 "http://www.w3.org/Graphics/SVG/1.1/DTD/svg11.dtd">
<!-- Generated by graphviz version 2.44.1 (20200629.0800)
 -->
<!-- Title: test Pages: 1 -->
<svg width="1558pt" height="131pt"
 viewBox="0.00 0.00 1557.69 131.00" xmlns="http://www.w3.org/2000/svg" xmlns:xlink="http://www.w3.org/1999/xlink">
<g id="graph0" class="graph" transform="scale(1 1) rotate(0) translate(4 127)">
<title>test</title>
<polygon fill="white" stroke="transparent" points="-4,4 -4,-127 1553.69,-127 1553.69,4 -4,4"/>
<!-- 0 -->
<g id="node1" class="node">
<title>0</title>
<g id="a_node1"><a xlink:href="from_press sub-editor.svg" xlink:title="press sub&#45;editor">
<ellipse fill="none" stroke="black" cx="721.19" cy="-105" rx="69.59" ry="18"/>
<text text-anchor="middle" x="721.19" y="-101.3" font-family="Times New Roman,serif" font-size="14.00">press sub&#45;editor</text>
</a>
</g>
</g>
<!-- 1 -->
<g id="node2" class="node">
<title>1</title>
<g id="a_node2"><a xlink:href="from_automotive engineer.svg" xlink:title="automotive engineer">
<ellipse fill="none" stroke="black" cx="83.19" cy="-18" rx="83.39" ry="18"/>
<text text-anchor="middle" x="83.19" y="-14.3" font-family="Times New Roman,serif" font-size="14.00">automotive engineer</text>
</a>
</g>
</g>
<!-- 0&#45;&gt;1 -->
<g id="edge1" class="edge">
<title>0&#45;&gt;1</title>
<path fill="none" stroke="black" d="M657.88,-97.48C594.61,-90.84 494.57,-79.97 408.19,-69 304.87,-55.88 278.99,-52.7 176.19,-36 168.87,-34.81 161.24,-33.51 153.63,-32.18"/>
<polygon fill="black" stroke="black" points="154.12,-28.71 143.66,-30.41 152.9,-35.6 154.12,-28.71"/>
<text text-anchor="middle" x="423.69" y="-57.8" font-family="Times New Roman,serif" font-size="14.00">0.125</text>
</g>
<!-- 2 -->
<g id="node3" class="node">
<title>2</title>
<g id="a_node3"><a xlink:href="from_catering manager.svg" xlink:title="catering manager">
<ellipse fill="none" stroke="black" cx="256.19" cy="-18" rx="71.49" ry="18"/>
<text text-anchor="middle" x="256.19" y="-14.3" font-family="Times New Roman,serif" font-size="14.00">catering manager</text>
</a>
</g>
</g>
<!-- 0&#45;&gt;2 -->
<g id="edge2" class="edge">
<title>0&#45;&gt;2</title>
<path fill="none" stroke="black" d="M664.15,-94.54C589.05,-81.93 452.98,-58.59 337.19,-36 331.32,-34.85 325.21,-33.63 319.11,-32.39"/>
<polygon fill="black" stroke="black" points="319.37,-28.87 308.87,-30.28 317.96,-35.72 319.37,-28.87"/>
<text text-anchor="middle" x="531.69" y="-57.8" font-family="Times New Roman,serif" font-size="14.00">0.125</text>
</g>
<!-- 3 -->
<g id="node4" class="node">
<title>3</title>
<g id="a_node4"><a xlink:href="from_clinical biochemist.svg" xlink:title="clinical biochemist">
<ellipse fill="none" stroke="black" cx="423.19" cy="-18" rx="77.19" ry="18"/>
<text text-anchor="middle" x="423.19" y="-14.3" font-family="Times New Roman,serif" font-size="14.00">clinical biochemist</text>
</a>
</g>
</g>
<!-- 0&#45;&gt;3 -->
<g id="edge3" class="edge">
<title>0&#45;&gt;3</title>
<path fill="none" stroke="black" d="M676.26,-91.18C623.8,-76.22 536.97,-51.45 479.91,-35.18"/>
<polygon fill="black" stroke="black" points="480.55,-31.72 469.97,-32.34 478.63,-38.45 480.55,-31.72"/>
<text text-anchor="middle" x="605.69" y="-57.8" font-family="Times New Roman,serif" font-size="14.00">0.125</text>
</g>
<!-- 4 -->
<g id="node5" class="node">
<title>4</title>
<g id="a_node5"><a xlink:href="from_education administrator.svg" xlink:title="education administrator">
<ellipse fill="none" stroke="black" cx="614.19" cy="-18" rx="95.58" ry="18"/>
<text text-anchor="middle" x="614.19" y="-14.3" font-family="Times New Roman,serif" font-size="14.00">education administrator</text>
</a>
</g>
</g>
<!-- 0&#45;&gt;4 -->
<g id="edge4" class="edge">
<title>0&#45;&gt;4</title>
<path fill="none" stroke="black" d="M700.56,-87.61C684.24,-74.64 661.24,-56.38 643.09,-41.95"/>
<polygon fill="black" stroke="black" points="645.13,-39.11 635.13,-35.63 640.78,-44.59 645.13,-39.11"/>
<text text-anchor="middle" x="689.69" y="-57.8" font-family="Times New Roman,serif" font-size="14.00">0.125</text>
</g>
<!-- 5 -->
<g id="node6" class="node">
<title>5</title>
<g id="a_node6"><a xlink:href="from_investment fund manager.svg" xlink:title="investment fund manager">
<ellipse fill="none" stroke="black" cx="828.19" cy="-18" rx="100.98" ry="18"/>
<text text-anchor="middle" x="828.19" y="-14.3" font-family="Times New Roman,serif" font-size="14.00">investment fund manager</text>
</a>
</g>
</g>
<!-- 0&#45;&gt;5 -->
<g id="edge5" class="edge">
<title>0&#45;&gt;5</title>
<path fill="none" stroke="black" d="M741.82,-87.61C758.15,-74.64 781.14,-56.38 799.3,-41.95"/>
<polygon fill="black" stroke="black" points="801.61,-44.59 807.26,-35.63 797.25,-39.11 801.61,-44.59"/>
<text text-anchor="middle" x="796.69" y="-57.8" font-family="Times New Roman,serif" font-size="14.00">0.125</text>
</g>
<!-- 6 -->
<g id="node7" class="node">
<title>6</title>
<g id="a_node7"><a xlink:href="from_network administrator.svg" xlink:title="network administrator">
<ellipse fill="none" stroke="black" cx="1036.19" cy="-18" rx="89.88" ry="18"/>
<text text-anchor="middle" x="1036.19" y="-14.3" font-family="Times New Roman,serif" font-size="14.00">network administrator</text>
</a>
</g>
</g>
<!-- 0&#45;&gt;6 -->
<g id="edge6" class="edge">
<title>0&#45;&gt;6</title>
<path fill="none" stroke="black" d="M767.67,-91.46C822.71,-76.61 914.55,-51.83 975.24,-35.45"/>
<polygon fill="black" stroke="black" points="976.33,-38.78 985.08,-32.79 974.51,-32.02 976.33,-38.78"/>
<text text-anchor="middle" x="913.69" y="-57.8" font-family="Times New Roman,serif" font-size="14.00">0.125</text>
</g>
<!-- 7 -->
<g id="node8" class="node">
<title>7</title>
<g id="a_node8"><a xlink:href="from_public affairs consultant (lobbyist).svg" xlink:title="public affairs consultant (lobbyist)">
<ellipse fill="none" stroke="black" cx="1279.19" cy="-18" rx="135.38" ry="18"/>
<text text-anchor="middle" x="1279.19" y="-14.3" font-family="Times New Roman,serif" font-size="14.00">public affairs consultant (lobbyist)</text>
</a>
</g>
</g>
<!-- 0&#45;&gt;7 -->
<g id="edge7" class="edge">
<title>0&#45;&gt;7</title>
<path fill="none" stroke="black" d="M779.59,-95.1C875.59,-80.48 1067.64,-51.23 1183.66,-33.55"/>
<polygon fill="black" stroke="black" points="1184.24,-37 1193.6,-32.04 1183.19,-30.08 1184.24,-37"/>
<text text-anchor="middle" x="1049.69" y="-57.8" font-family="Times New Roman,serif" font-size="14.00">0.125</text>
</g>
<!-- 8 -->
<g id="node9" class="node">
<title>8</title>
<g id="a_node9"><a xlink:href="from_web designer.svg" xlink:title="web designer">
<ellipse fill="none" stroke="black" cx="1491.19" cy="-18" rx="58.49" ry="18"/>
<text text-anchor="middle" x="1491.19" y="-14.3" font-family="Times New Roman,serif" font-size="14.00">web designer</text>
</a>
</g>
</g>
<!-- 0&#45;&gt;8 -->
<g id="edge8" class="edge">
<title>0&#45;&gt;8</title>
<path fill="none" stroke="black" d="M788.91,-100.79C914.66,-94.08 1192.42,-75.8 1423.19,-36 1428.31,-35.12 1433.61,-34.06 1438.89,-32.9"/>
<polygon fill="black" stroke="black" points="1440,-36.24 1448.96,-30.59 1438.43,-29.42 1440,-36.24"/>
<text text-anchor="middle" x="1305.69" y="-57.8" font-family="Times New Roman,serif" font-size="14.00">0.125</text>
</g>
</g>
</svg>
