<?xml version="1.0" encoding="UTF-8" standalone="no"?>
<!DOCTYPE svg PUBLIC "-//W3C//DTD SVG 1.1//EN"
 "http://www.w3.org/Graphics/SVG/1.1/DTD/svg11.dtd">
<!-- Generated by graphviz version 2.44.1 (20200629.0800)
 -->
<!-- Title: biotechnologist Pages: 1 -->
<svg width="1361pt" height="131pt"
 viewBox="0.00 0.00 1361.23 131.00" xmlns="http://www.w3.org/2000/svg" xmlns:xlink="http://www.w3.org/1999/xlink">
<g id="graph0" class="graph" transform="scale(1 1) rotate(0) translate(4 127)">
<title>biotechnologist</title>
<polygon fill="white" stroke="transparent" points="-4,4 -4,-127 1357.23,-127 1357.23,4 -4,4"/>
<!-- 0 -->
<g id="node1" class="node">
<title>0</title>
<g id="a_node1"><a xlink:href="from_biotechnologist.svg" xlink:title="biotechnologist">
<ellipse fill="none" stroke="black" cx="744.49" cy="-105" rx="66.09" ry="18"/>
<text text-anchor="middle" x="744.49" y="-101.3" font-family="Times New Roman,serif" font-size="14.00">biotechnologist</text>
</a>
</g>
</g>
<!-- 0&#45;&gt;0 -->
<g id="edge2" class="edge">
<title>0&#45;&gt;0</title>
<path fill="none" stroke="black" d="M804.73,-112.7C818.6,-112.04 828.79,-109.47 828.79,-105 828.79,-101.72 823.29,-99.46 814.88,-98.23"/>
<polygon fill="black" stroke="black" points="815.01,-94.73 804.73,-97.3 814.37,-101.7 815.01,-94.73"/>
<text text-anchor="middle" x="844.29" y="-101.3" font-family="Times New Roman,serif" font-size="14.00">0.076</text>
</g>
<!-- 1 -->
<g id="node2" class="node">
<title>1</title>
<g id="a_node2"><a xlink:href="from_heritage manager.svg" xlink:title="heritage manager">
<ellipse fill="none" stroke="black" cx="71.49" cy="-18" rx="71.49" ry="18"/>
<text text-anchor="middle" x="71.49" y="-14.3" font-family="Times New Roman,serif" font-size="14.00">heritage manager</text>
</a>
</g>
</g>
<!-- 0&#45;&gt;1 -->
<g id="edge1" class="edge">
<title>0&#45;&gt;1</title>
<path fill="none" stroke="black" d="M681.89,-98.83C573.44,-89.42 343.74,-67.52 151.49,-36 145.33,-34.99 138.93,-33.83 132.55,-32.59"/>
<polygon fill="black" stroke="black" points="133.06,-29.12 122.57,-30.6 131.69,-35.99 133.06,-29.12"/>
<text text-anchor="middle" x="394.99" y="-57.8" font-family="Times New Roman,serif" font-size="14.00">0.115</text>
</g>
<!-- 2 -->
<g id="node3" class="node">
<title>2</title>
<g id="a_node3"><a xlink:href="from_broadcasting presenter.svg" xlink:title="broadcasting presenter">
<ellipse fill="none" stroke="black" cx="253.49" cy="-18" rx="92.88" ry="18"/>
<text text-anchor="middle" x="253.49" y="-14.3" font-family="Times New Roman,serif" font-size="14.00">broadcasting presenter</text>
</a>
</g>
</g>
<!-- 0&#45;&gt;2 -->
<g id="edge3" class="edge">
<title>0&#45;&gt;2</title>
<path fill="none" stroke="black" d="M690.07,-94.58C602.57,-79.43 430.3,-49.61 330.31,-32.3"/>
<polygon fill="black" stroke="black" points="330.72,-28.82 320.27,-30.56 329.53,-35.72 330.72,-28.82"/>
<text text-anchor="middle" x="543.99" y="-57.8" font-family="Times New Roman,serif" font-size="14.00">0.076</text>
</g>
<!-- 3 -->
<g id="node4" class="node">
<title>3</title>
<g id="a_node4"><a xlink:href="from_programme researcher.svg" xlink:title="programme researcher">
<ellipse fill="none" stroke="black" cx="456.49" cy="-18" rx="91.78" ry="18"/>
<text text-anchor="middle" x="456.49" y="-14.3" font-family="Times New Roman,serif" font-size="14.00">programme researcher</text>
</a>
</g>
</g>
<!-- 0&#45;&gt;3 -->
<g id="edge4" class="edge">
<title>0&#45;&gt;3</title>
<path fill="none" stroke="black" d="M701.38,-91.27C651.79,-76.64 570.12,-52.54 514.86,-36.23"/>
<polygon fill="black" stroke="black" points="515.79,-32.85 505.21,-33.38 513.81,-39.57 515.79,-32.85"/>
<text text-anchor="middle" x="633.99" y="-57.8" font-family="Times New Roman,serif" font-size="14.00">0.076</text>
</g>
<!-- 4 -->
<g id="node5" class="node">
<title>4</title>
<g id="a_node5"><a xlink:href="from_qa analyst.svg" xlink:title="qa analyst">
<ellipse fill="none" stroke="black" cx="612.49" cy="-18" rx="46.59" ry="18"/>
<text text-anchor="middle" x="612.49" y="-14.3" font-family="Times New Roman,serif" font-size="14.00">qa analyst</text>
</a>
</g>
</g>
<!-- 0&#45;&gt;4 -->
<g id="edge5" class="edge">
<title>0&#45;&gt;4</title>
<path fill="none" stroke="black" d="M719.97,-88.21C698.55,-74.42 667.33,-54.31 644.05,-39.32"/>
<polygon fill="black" stroke="black" points="645.86,-36.32 635.55,-33.85 642.07,-42.21 645.86,-36.32"/>
<text text-anchor="middle" x="701.99" y="-57.8" font-family="Times New Roman,serif" font-size="14.00">0.076</text>
</g>
<!-- 5 -->
<g id="node6" class="node">
<title>5</title>
<g id="a_node6"><a xlink:href="from_systems analyst.svg" xlink:title="systems analyst">
<ellipse fill="none" stroke="black" cx="744.49" cy="-18" rx="67.69" ry="18"/>
<text text-anchor="middle" x="744.49" y="-14.3" font-family="Times New Roman,serif" font-size="14.00">systems analyst</text>
</a>
</g>
</g>
<!-- 0&#45;&gt;5 -->
<g id="edge6" class="edge">
<title>0&#45;&gt;5</title>
<path fill="none" stroke="black" d="M744.49,-86.8C744.49,-75.16 744.49,-59.55 744.49,-46.24"/>
<polygon fill="black" stroke="black" points="747.99,-46.18 744.49,-36.18 740.99,-46.18 747.99,-46.18"/>
<text text-anchor="middle" x="759.99" y="-57.8" font-family="Times New Roman,serif" font-size="14.00">0.076</text>
</g>
<!-- 6 -->
<g id="node7" class="node">
<title>6</title>
<g id="a_node7"><a xlink:href="from_accountant.svg" xlink:title="accountant">
<ellipse fill="none" stroke="black" cx="880.49" cy="-18" rx="50.09" ry="18"/>
<text text-anchor="middle" x="880.49" y="-14.3" font-family="Times New Roman,serif" font-size="14.00">accountant</text>
</a>
</g>
</g>
<!-- 0&#45;&gt;6 -->
<g id="edge7" class="edge">
<title>0&#45;&gt;6</title>
<path fill="none" stroke="black" d="M769.76,-88.21C791.82,-74.42 823.99,-54.31 847.98,-39.32"/>
<polygon fill="black" stroke="black" points="850.11,-42.12 856.73,-33.85 846.4,-36.18 850.11,-42.12"/>
<text text-anchor="middle" x="836.99" y="-57.8" font-family="Times New Roman,serif" font-size="14.00">0.038</text>
</g>
<!-- 7 -->
<g id="node8" class="node">
<title>7</title>
<g id="a_node8"><a xlink:href="from_animator.svg" xlink:title="animator">
<ellipse fill="none" stroke="black" cx="990.49" cy="-18" rx="42.49" ry="18"/>
<text text-anchor="middle" x="990.49" y="-14.3" font-family="Times New Roman,serif" font-size="14.00">animator</text>
</a>
</g>
</g>
<!-- 0&#45;&gt;7 -->
<g id="edge8" class="edge">
<title>0&#45;&gt;7</title>
<path fill="none" stroke="black" d="M787.48,-91.16C808.4,-84.77 833.85,-76.76 856.49,-69 888.5,-58.04 924.4,-44.58 950.98,-34.39"/>
<polygon fill="black" stroke="black" points="952.25,-37.65 960.33,-30.79 949.74,-31.11 952.25,-37.65"/>
<text text-anchor="middle" x="912.99" y="-57.8" font-family="Times New Roman,serif" font-size="14.00">0.038</text>
</g>
<!-- 8 -->
<g id="node9" class="node">
<title>8</title>
<g id="a_node9"><a xlink:href="from_architect.svg" xlink:title="architect">
<ellipse fill="none" stroke="black" cx="1092.49" cy="-18" rx="41.69" ry="18"/>
<text text-anchor="middle" x="1092.49" y="-14.3" font-family="Times New Roman,serif" font-size="14.00">architect</text>
</a>
</g>
</g>
<!-- 0&#45;&gt;8 -->
<g id="edge9" class="edge">
<title>0&#45;&gt;8</title>
<path fill="none" stroke="black" d="M800.36,-95.25C837.94,-88.97 888.46,-79.73 932.49,-69 981.67,-57.02 993.26,-51.34 1041.49,-36 1044.61,-35.01 1047.82,-33.97 1051.05,-32.92"/>
<polygon fill="black" stroke="black" points="1052.3,-36.19 1060.71,-29.75 1050.11,-29.54 1052.3,-36.19"/>
<text text-anchor="middle" x="1001.99" y="-57.8" font-family="Times New Roman,serif" font-size="14.00">0.038</text>
</g>
<!-- 9 -->
<g id="node10" class="node">
<title>9</title>
<g id="a_node10"><a xlink:href="from_commercial horticulturist.svg" xlink:title="commercial horticulturist">
<ellipse fill="none" stroke="black" cx="1252.49" cy="-18" rx="100.98" ry="18"/>
<text text-anchor="middle" x="1252.49" y="-14.3" font-family="Times New Roman,serif" font-size="14.00">commercial horticulturist</text>
</a>
</g>
</g>
<!-- 0&#45;&gt;9 -->
<g id="edge10" class="edge">
<title>0&#45;&gt;9</title>
<path fill="none" stroke="black" d="M805.51,-97.84C861.79,-91.79 947.56,-81.65 1021.49,-69 1077.07,-59.49 1139.54,-45.78 1185.49,-35.13"/>
<polygon fill="black" stroke="black" points="1186.39,-38.51 1195.33,-32.83 1184.8,-31.69 1186.39,-38.51"/>
<text text-anchor="middle" x="1113.99" y="-57.8" font-family="Times New Roman,serif" font-size="14.00">0.038</text>
</g>
</g>
</svg>
