<?xml version="1.0" encoding="UTF-8" standalone="no"?>
<!DOCTYPE svg PUBLIC "-//W3C//DTD SVG 1.1//EN"
 "http://www.w3.org/Graphics/SVG/1.1/DTD/svg11.dtd">
<!-- Generated by graphviz version 2.44.1 (20200629.0800)
 -->
<!-- Title: test Pages: 1 -->
<svg width="1575pt" height="131pt"
 viewBox="0.00 0.00 1575.34 131.00" xmlns="http://www.w3.org/2000/svg" xmlns:xlink="http://www.w3.org/1999/xlink">
<g id="graph0" class="graph" transform="scale(1 1) rotate(0) translate(4 127)">
<title>test</title>
<polygon fill="white" stroke="transparent" points="-4,4 -4,-127 1571.34,-127 1571.34,4 -4,4"/>
<!-- 0 -->
<g id="node1" class="node">
<title>0</title>
<g id="a_node1"><a xlink:href="from_fitness centre manager.svg" xlink:title="fitness centre manager">
<ellipse fill="none" stroke="black" cx="676.89" cy="-105" rx="90.98" ry="18"/>
<text text-anchor="middle" x="676.89" y="-101.3" font-family="Times New Roman,serif" font-size="14.00">fitness centre manager</text>
</a>
</g>
</g>
<!-- 0&#45;&gt;0 -->
<g id="edge1" class="edge">
<title>0&#45;&gt;0</title>
<path fill="none" stroke="black" d="M760.06,-112.44C775.24,-111.5 785.89,-109.02 785.89,-105 785.89,-101.95 779.77,-99.79 770.2,-98.51"/>
<polygon fill="black" stroke="black" points="770.34,-95.01 760.06,-97.56 769.68,-101.98 770.34,-95.01"/>
<text text-anchor="middle" x="801.39" y="-101.3" font-family="Times New Roman,serif" font-size="14.00">0.124</text>
</g>
<!-- 1 -->
<g id="node2" class="node">
<title>1</title>
<g id="a_node2"><a xlink:href="from_project manager.svg" xlink:title="project manager">
<ellipse fill="none" stroke="black" cx="68.89" cy="-18" rx="68.79" ry="18"/>
<text text-anchor="middle" x="68.89" y="-14.3" font-family="Times New Roman,serif" font-size="14.00">project manager</text>
</a>
</g>
</g>
<!-- 0&#45;&gt;1 -->
<g id="edge2" class="edge">
<title>0&#45;&gt;1</title>
<path fill="none" stroke="black" d="M597.05,-96.27C492.98,-85.63 305.54,-64.48 146.89,-36 141.04,-34.95 134.95,-33.77 128.88,-32.54"/>
<polygon fill="black" stroke="black" points="129.22,-29.04 118.72,-30.43 127.8,-35.89 129.22,-29.04"/>
<text text-anchor="middle" x="366.39" y="-57.8" font-family="Times New Roman,serif" font-size="14.00">0.087</text>
</g>
<!-- 2 -->
<g id="node3" class="node">
<title>2</title>
<g id="a_node3"><a xlink:href="from_pharmacovigilance officer.svg" xlink:title="pharmacovigilance officer">
<ellipse fill="none" stroke="black" cx="260.89" cy="-18" rx="104.78" ry="18"/>
<text text-anchor="middle" x="260.89" y="-14.3" font-family="Times New Roman,serif" font-size="14.00">pharmacovigilance officer</text>
</a>
</g>
</g>
<!-- 0&#45;&gt;2 -->
<g id="edge3" class="edge">
<title>0&#45;&gt;2</title>
<path fill="none" stroke="black" d="M609.97,-92.75C572.27,-86.23 524.37,-77.61 481.89,-69 430.57,-58.59 372.86,-45.49 329.28,-35.31"/>
<polygon fill="black" stroke="black" points="329.9,-31.86 319.37,-32.98 328.31,-38.67 329.9,-31.86"/>
<text text-anchor="middle" x="497.39" y="-57.8" font-family="Times New Roman,serif" font-size="14.00">0.065</text>
</g>
<!-- 3 -->
<g id="node4" class="node">
<title>3</title>
<g id="a_node4"><a xlink:href="from_lecturer.svg" xlink:title="lecturer">
<ellipse fill="none" stroke="black" cx="420.89" cy="-18" rx="37.89" ry="18"/>
<text text-anchor="middle" x="420.89" y="-14.3" font-family="Times New Roman,serif" font-size="14.00">lecturer</text>
</a>
</g>
</g>
<!-- 0&#45;&gt;3 -->
<g id="edge4" class="edge">
<title>0&#45;&gt;3</title>
<path fill="none" stroke="black" d="M627.92,-89.75C607.18,-83.58 582.79,-76.14 560.89,-69 518.8,-55.27 508.55,-51.01 466.89,-36 464.35,-35.08 461.74,-34.14 459.1,-33.17"/>
<polygon fill="black" stroke="black" points="460.17,-29.84 449.58,-29.68 457.76,-36.41 460.17,-29.84"/>
<text text-anchor="middle" x="576.39" y="-57.8" font-family="Times New Roman,serif" font-size="14.00">0.051</text>
</g>
<!-- 4 -->
<g id="node5" class="node">
<title>4</title>
<g id="a_node5"><a xlink:href="from_it consultant.svg" xlink:title="it consultant">
<ellipse fill="none" stroke="black" cx="530.89" cy="-18" rx="54.69" ry="18"/>
<text text-anchor="middle" x="530.89" y="-14.3" font-family="Times New Roman,serif" font-size="14.00">it consultant</text>
</a>
</g>
</g>
<!-- 0&#45;&gt;4 -->
<g id="edge5" class="edge">
<title>0&#45;&gt;4</title>
<path fill="none" stroke="black" d="M649.09,-87.81C625.36,-74 591.13,-54.07 565.61,-39.21"/>
<polygon fill="black" stroke="black" points="567.04,-35.99 556.64,-33.99 563.52,-42.04 567.04,-35.99"/>
<text text-anchor="middle" x="628.39" y="-57.8" font-family="Times New Roman,serif" font-size="14.00">0.043</text>
</g>
<!-- 5 -->
<g id="node6" class="node">
<title>5</title>
<g id="a_node6"><a xlink:href="from_financial manager.svg" xlink:title="financial manager">
<ellipse fill="none" stroke="black" cx="676.89" cy="-18" rx="73.39" ry="18"/>
<text text-anchor="middle" x="676.89" y="-14.3" font-family="Times New Roman,serif" font-size="14.00">financial manager</text>
</a>
</g>
</g>
<!-- 0&#45;&gt;5 -->
<g id="edge6" class="edge">
<title>0&#45;&gt;5</title>
<path fill="none" stroke="black" d="M676.89,-86.8C676.89,-75.16 676.89,-59.55 676.89,-46.24"/>
<polygon fill="black" stroke="black" points="680.39,-46.18 676.89,-36.18 673.39,-46.18 680.39,-46.18"/>
<text text-anchor="middle" x="692.39" y="-57.8" font-family="Times New Roman,serif" font-size="14.00">0.036</text>
</g>
<!-- 6 -->
<g id="node7" class="node">
<title>6</title>
<g id="a_node7"><a xlink:href="from_geographical information systems manager.svg" xlink:title="geographical information systems manager">
<ellipse fill="none" stroke="black" cx="933.89" cy="-18" rx="165.17" ry="18"/>
<text text-anchor="middle" x="933.89" y="-14.3" font-family="Times New Roman,serif" font-size="14.00">geographical information systems manager</text>
</a>
</g>
</g>
<!-- 0&#45;&gt;6 -->
<g id="edge7" class="edge">
<title>0&#45;&gt;6</title>
<path fill="none" stroke="black" d="M721.37,-89.29C763.88,-75.23 828.26,-53.94 875.01,-38.47"/>
<polygon fill="black" stroke="black" points="876.32,-41.73 884.71,-35.27 874.12,-35.08 876.32,-41.73"/>
<text text-anchor="middle" x="836.39" y="-57.8" font-family="Times New Roman,serif" font-size="14.00">0.036</text>
</g>
<!-- 7 -->
<g id="node8" class="node">
<title>7</title>
<g id="a_node8"><a xlink:href="from_sales manager.svg" xlink:title="sales manager">
<ellipse fill="none" stroke="black" cx="1177.89" cy="-18" rx="61.19" ry="18"/>
<text text-anchor="middle" x="1177.89" y="-14.3" font-family="Times New Roman,serif" font-size="14.00">sales manager</text>
</a>
</g>
</g>
<!-- 0&#45;&gt;7 -->
<g id="edge8" class="edge">
<title>0&#45;&gt;7</title>
<path fill="none" stroke="black" d="M750.43,-94.26C836.48,-82.44 983.1,-60.95 1107.89,-36 1112.9,-35 1118.09,-33.88 1123.28,-32.72"/>
<polygon fill="black" stroke="black" points="1124.25,-36.09 1133.2,-30.43 1122.67,-29.27 1124.25,-36.09"/>
<text text-anchor="middle" x="1018.39" y="-57.8" font-family="Times New Roman,serif" font-size="14.00">0.036</text>
</g>
<!-- 8 -->
<g id="node9" class="node">
<title>8</title>
<g id="a_node9"><a xlink:href="from_facilities manager.svg" xlink:title="facilities manager">
<ellipse fill="none" stroke="black" cx="1329.89" cy="-18" rx="72.59" ry="18"/>
<text text-anchor="middle" x="1329.89" y="-14.3" font-family="Times New Roman,serif" font-size="14.00">facilities manager</text>
</a>
</g>
</g>
<!-- 0&#45;&gt;8 -->
<g id="edge9" class="edge">
<title>0&#45;&gt;8</title>
<path fill="none" stroke="black" d="M759.49,-97.39C832.76,-91.2 942.63,-81.09 1037.89,-69 1131.62,-57.1 1154.94,-52.93 1247.89,-36 1254,-34.89 1260.34,-33.68 1266.68,-32.43"/>
<polygon fill="black" stroke="black" points="1267.48,-35.84 1276.59,-30.44 1266.1,-28.97 1267.48,-35.84"/>
<text text-anchor="middle" x="1159.39" y="-57.8" font-family="Times New Roman,serif" font-size="14.00">0.029</text>
</g>
<!-- 9 -->
<g id="node10" class="node">
<title>9</title>
<g id="a_node10"><a xlink:href="from_logistics manager.svg" xlink:title="logistics manager">
<ellipse fill="none" stroke="black" cx="1493.89" cy="-18" rx="73.39" ry="18"/>
<text text-anchor="middle" x="1493.89" y="-14.3" font-family="Times New Roman,serif" font-size="14.00">logistics manager</text>
</a>
</g>
</g>
<!-- 0&#45;&gt;9 -->
<g id="edge10" class="edge">
<title>0&#45;&gt;9</title>
<path fill="none" stroke="black" d="M764.12,-99.8C864.38,-94.54 1033.8,-84.31 1178.89,-69 1282.91,-58.02 1308.86,-53.96 1411.89,-36 1418,-34.94 1424.35,-33.75 1430.69,-32.52"/>
<polygon fill="black" stroke="black" points="1431.49,-35.93 1440.62,-30.56 1430.13,-29.07 1431.49,-35.93"/>
<text text-anchor="middle" x="1315.39" y="-57.8" font-family="Times New Roman,serif" font-size="14.00">0.029</text>
</g>
</g>
</svg>
