<?xml version="1.0" encoding="UTF-8" standalone="no"?>
<!DOCTYPE svg PUBLIC "-//W3C//DTD SVG 1.1//EN"
 "http://www.w3.org/Graphics/SVG/1.1/DTD/svg11.dtd">
<!-- Generated by graphviz version 2.44.1 (20200629.0800)
 -->
<!-- Title: market_research_analyst Pages: 1 -->
<svg width="1311pt" height="131pt"
 viewBox="0.00 0.00 1311.39 131.00" xmlns="http://www.w3.org/2000/svg" xmlns:xlink="http://www.w3.org/1999/xlink">
<g id="graph0" class="graph" transform="scale(1 1) rotate(0) translate(4 127)">
<title>market_research_analyst</title>
<polygon fill="white" stroke="transparent" points="-4,4 -4,-127 1307.39,-127 1307.39,4 -4,4"/>
<!-- 0 -->
<g id="node1" class="node">
<title>0</title>
<g id="a_node1"><a xlink:href="from_market research analyst.svg" xlink:title="market research analyst">
<ellipse fill="none" stroke="black" cx="644.69" cy="-105" rx="94.78" ry="18"/>
<text text-anchor="middle" x="644.69" y="-101.3" font-family="Times New Roman,serif" font-size="14.00">market research analyst</text>
</a>
</g>
</g>
<!-- 0&#45;&gt;0 -->
<g id="edge1" class="edge">
<title>0&#45;&gt;0</title>
<path fill="none" stroke="black" d="M731.31,-112.41C746.78,-111.45 757.58,-108.98 757.58,-105 757.58,-101.95 751.25,-99.79 741.34,-98.51"/>
<polygon fill="black" stroke="black" points="741.59,-95.02 731.31,-97.59 740.95,-101.99 741.59,-95.02"/>
<text text-anchor="middle" x="773.08" y="-101.3" font-family="Times New Roman,serif" font-size="14.00">0.143</text>
</g>
<!-- 1 -->
<g id="node2" class="node">
<title>1</title>
<g id="a_node2"><a xlink:href="from_investment analyst.svg" xlink:title="investment analyst">
<ellipse fill="none" stroke="black" cx="76.69" cy="-18" rx="76.89" ry="18"/>
<text text-anchor="middle" x="76.69" y="-14.3" font-family="Times New Roman,serif" font-size="14.00">investment analyst</text>
</a>
</g>
</g>
<!-- 0&#45;&gt;1 -->
<g id="edge2" class="edge">
<title>0&#45;&gt;1</title>
<path fill="none" stroke="black" d="M563.98,-95.48C505.27,-89 423.92,-79.45 352.69,-69 267.89,-56.56 246.96,-51.64 162.69,-36 156.41,-34.83 149.87,-33.59 143.33,-32.33"/>
<polygon fill="black" stroke="black" points="143.58,-28.81 133.09,-30.34 142.24,-35.69 143.58,-28.81"/>
<text text-anchor="middle" x="368.19" y="-57.8" font-family="Times New Roman,serif" font-size="14.00">0.115</text>
</g>
<!-- 2 -->
<g id="node3" class="node">
<title>2</title>
<g id="a_node3"><a xlink:href="from_project manager.svg" xlink:title="project manager">
<ellipse fill="none" stroke="black" cx="240.69" cy="-18" rx="68.79" ry="18"/>
<text text-anchor="middle" x="240.69" y="-14.3" font-family="Times New Roman,serif" font-size="14.00">project manager</text>
</a>
</g>
</g>
<!-- 0&#45;&gt;2 -->
<g id="edge3" class="edge">
<title>0&#45;&gt;2</title>
<path fill="none" stroke="black" d="M575.83,-92.53C538.67,-86.1 492.07,-77.65 450.69,-69 398.73,-58.14 339.98,-43.99 297.86,-33.51"/>
<polygon fill="black" stroke="black" points="298.61,-30.09 288.07,-31.07 296.92,-36.89 298.61,-30.09"/>
<text text-anchor="middle" x="466.19" y="-57.8" font-family="Times New Roman,serif" font-size="14.00">0.100</text>
</g>
<!-- 3 -->
<g id="node4" class="node">
<title>3</title>
<g id="a_node4"><a xlink:href="from_it consultant.svg" xlink:title="it consultant">
<ellipse fill="none" stroke="black" cx="381.69" cy="-18" rx="54.69" ry="18"/>
<text text-anchor="middle" x="381.69" y="-14.3" font-family="Times New Roman,serif" font-size="14.00">it consultant</text>
</a>
</g>
</g>
<!-- 0&#45;&gt;3 -->
<g id="edge4" class="edge">
<title>0&#45;&gt;3</title>
<path fill="none" stroke="black" d="M595.91,-89.51C575.42,-83.33 551.35,-75.95 529.69,-69 495.24,-57.94 456.5,-44.83 427.3,-34.81"/>
<polygon fill="black" stroke="black" points="428.38,-31.48 417.78,-31.53 426.1,-38.1 428.38,-31.48"/>
<text text-anchor="middle" x="545.19" y="-57.8" font-family="Times New Roman,serif" font-size="14.00">0.071</text>
</g>
<!-- 4 -->
<g id="node5" class="node">
<title>4</title>
<g id="a_node5"><a xlink:href="from_qa analyst.svg" xlink:title="qa analyst">
<ellipse fill="none" stroke="black" cx="500.69" cy="-18" rx="46.59" ry="18"/>
<text text-anchor="middle" x="500.69" y="-14.3" font-family="Times New Roman,serif" font-size="14.00">qa analyst</text>
</a>
</g>
</g>
<!-- 0&#45;&gt;4 -->
<g id="edge5" class="edge">
<title>0&#45;&gt;4</title>
<path fill="none" stroke="black" d="M616.93,-87.61C593.34,-73.69 559.42,-53.67 534.31,-38.84"/>
<polygon fill="black" stroke="black" points="535.88,-35.71 525.49,-33.64 532.32,-41.73 535.88,-35.71"/>
<text text-anchor="middle" x="597.19" y="-57.8" font-family="Times New Roman,serif" font-size="14.00">0.071</text>
</g>
<!-- 5 -->
<g id="node6" class="node">
<title>5</title>
<g id="a_node6"><a xlink:href="from_marketing assistant.svg" xlink:title="marketing assistant">
<ellipse fill="none" stroke="black" cx="644.69" cy="-18" rx="79.09" ry="18"/>
<text text-anchor="middle" x="644.69" y="-14.3" font-family="Times New Roman,serif" font-size="14.00">marketing assistant</text>
</a>
</g>
</g>
<!-- 0&#45;&gt;5 -->
<g id="edge6" class="edge">
<title>0&#45;&gt;5</title>
<path fill="none" stroke="black" d="M644.69,-86.8C644.69,-75.16 644.69,-59.55 644.69,-46.24"/>
<polygon fill="black" stroke="black" points="648.19,-46.18 644.69,-36.18 641.19,-46.18 648.19,-46.18"/>
<text text-anchor="middle" x="660.19" y="-57.8" font-family="Times New Roman,serif" font-size="14.00">0.064</text>
</g>
<!-- 6 -->
<g id="node7" class="node">
<title>6</title>
<g id="a_node7"><a xlink:href="from_sales manager.svg" xlink:title="sales manager">
<ellipse fill="none" stroke="black" cx="802.69" cy="-18" rx="61.19" ry="18"/>
<text text-anchor="middle" x="802.69" y="-14.3" font-family="Times New Roman,serif" font-size="14.00">sales manager</text>
</a>
</g>
</g>
<!-- 0&#45;&gt;6 -->
<g id="edge7" class="edge">
<title>0&#45;&gt;6</title>
<path fill="none" stroke="black" d="M674.78,-87.81C700.61,-73.92 737.92,-53.85 765.59,-38.96"/>
<polygon fill="black" stroke="black" points="767.42,-41.95 774.57,-34.13 764.11,-35.78 767.42,-41.95"/>
<text text-anchor="middle" x="749.19" y="-57.8" font-family="Times New Roman,serif" font-size="14.00">0.064</text>
</g>
<!-- 7 -->
<g id="node8" class="node">
<title>7</title>
<g id="a_node8"><a xlink:href="from_marketing executive.svg" xlink:title="marketing executive">
<ellipse fill="none" stroke="black" cx="963.69" cy="-18" rx="81.79" ry="18"/>
<text text-anchor="middle" x="963.69" y="-14.3" font-family="Times New Roman,serif" font-size="14.00">marketing executive</text>
</a>
</g>
</g>
<!-- 0&#45;&gt;7 -->
<g id="edge8" class="edge">
<title>0&#45;&gt;7</title>
<path fill="none" stroke="black" d="M697.37,-89.96C754.16,-74.83 844.4,-50.79 903.84,-34.95"/>
<polygon fill="black" stroke="black" points="905.07,-38.24 913.83,-32.29 903.27,-31.48 905.07,-38.24"/>
<text text-anchor="middle" x="839.19" y="-57.8" font-family="Times New Roman,serif" font-size="14.00">0.028</text>
</g>
<!-- 8 -->
<g id="node9" class="node">
<title>8</title>
<g id="a_node9"><a xlink:href="from_financial manager.svg" xlink:title="financial manager">
<ellipse fill="none" stroke="black" cx="1136.69" cy="-18" rx="73.39" ry="18"/>
<text text-anchor="middle" x="1136.69" y="-14.3" font-family="Times New Roman,serif" font-size="14.00">financial manager</text>
</a>
</g>
</g>
<!-- 0&#45;&gt;8 -->
<g id="edge9" class="edge">
<title>0&#45;&gt;8</title>
<path fill="none" stroke="black" d="M716.33,-93.06C798.29,-80.33 936.44,-58.2 1054.69,-36 1060.55,-34.9 1066.64,-33.72 1072.73,-32.5"/>
<polygon fill="black" stroke="black" points="1073.83,-35.85 1082.94,-30.45 1072.44,-28.99 1073.83,-35.85"/>
<text text-anchor="middle" x="970.19" y="-57.8" font-family="Times New Roman,serif" font-size="14.00">0.021</text>
</g>
<!-- 9 -->
<g id="node10" class="node">
<title>9</title>
<g id="a_node10"><a xlink:href="from_lecturer.svg" xlink:title="lecturer">
<ellipse fill="none" stroke="black" cx="1265.69" cy="-18" rx="37.89" ry="18"/>
<text text-anchor="middle" x="1265.69" y="-14.3" font-family="Times New Roman,serif" font-size="14.00">lecturer</text>
</a>
</g>
</g>
<!-- 0&#45;&gt;9 -->
<g id="edge10" class="edge">
<title>0&#45;&gt;9</title>
<path fill="none" stroke="black" d="M736.45,-100.31C850.87,-94.09 1051.74,-77.76 1218.69,-36 1221.71,-35.25 1224.8,-34.37 1227.89,-33.42"/>
<polygon fill="black" stroke="black" points="1229.25,-36.66 1237.65,-30.2 1227.06,-30.01 1229.25,-36.66"/>
<text text-anchor="middle" x="1142.19" y="-57.8" font-family="Times New Roman,serif" font-size="14.00">0.021</text>
</g>
</g>
</svg>
