<?xml version="1.0" encoding="UTF-8" standalone="no"?>
<!DOCTYPE svg PUBLIC "-//W3C//DTD SVG 1.1//EN"
 "http://www.w3.org/Graphics/SVG/1.1/DTD/svg11.dtd">
<!-- Generated by graphviz version 2.44.1 (20200629.0800)
 -->
<!-- Title: customs_officer Pages: 1 -->
<svg width="1341pt" height="131pt"
 viewBox="0.00 0.00 1341.29 131.00" xmlns="http://www.w3.org/2000/svg" xmlns:xlink="http://www.w3.org/1999/xlink">
<g id="graph0" class="graph" transform="scale(1 1) rotate(0) translate(4 127)">
<title>customs_officer</title>
<polygon fill="white" stroke="transparent" points="-4,4 -4,-127 1337.29,-127 1337.29,4 -4,4"/>
<!-- 0 -->
<g id="node1" class="node">
<title>0</title>
<g id="a_node1"><a xlink:href="from_customs officer.svg" xlink:title="customs officer">
<ellipse fill="none" stroke="black" cx="775.89" cy="-105" rx="67.69" ry="18"/>
<text text-anchor="middle" x="775.89" y="-101.3" font-family="Times New Roman,serif" font-size="14.00">customs officer</text>
</a>
</g>
</g>
<!-- 0&#45;&gt;0 -->
<g id="edge2" class="edge">
<title>0&#45;&gt;0</title>
<path fill="none" stroke="black" d="M837.06,-112.7C851.14,-112.04 861.49,-109.47 861.49,-105 861.49,-101.68 855.79,-99.41 847.09,-98.19"/>
<polygon fill="black" stroke="black" points="847.33,-94.7 837.06,-97.3 846.71,-101.67 847.33,-94.7"/>
<text text-anchor="middle" x="876.99" y="-101.3" font-family="Times New Roman,serif" font-size="14.00">0.125</text>
</g>
<!-- 1 -->
<g id="node2" class="node">
<title>1</title>
<g id="a_node2"><a xlink:href="from_biomedical scientist.svg" xlink:title="biomedical scientist">
<ellipse fill="none" stroke="black" cx="81.89" cy="-18" rx="81.79" ry="18"/>
<text text-anchor="middle" x="81.89" y="-14.3" font-family="Times New Roman,serif" font-size="14.00">biomedical scientist</text>
</a>
</g>
</g>
<!-- 0&#45;&gt;1 -->
<g id="edge1" class="edge">
<title>0&#45;&gt;1</title>
<path fill="none" stroke="black" d="M712.25,-98.82C601.98,-89.39 368.44,-67.47 172.89,-36 165.8,-34.86 158.41,-33.6 151.05,-32.29"/>
<polygon fill="black" stroke="black" points="151.51,-28.82 141.05,-30.5 150.27,-35.71 151.51,-28.82"/>
<text text-anchor="middle" x="420.39" y="-57.8" font-family="Times New Roman,serif" font-size="14.00">0.125</text>
</g>
<!-- 2 -->
<g id="node3" class="node">
<title>2</title>
<g id="a_node3"><a xlink:href="from_investment analyst.svg" xlink:title="investment analyst">
<ellipse fill="none" stroke="black" cx="258.89" cy="-18" rx="76.89" ry="18"/>
<text text-anchor="middle" x="258.89" y="-14.3" font-family="Times New Roman,serif" font-size="14.00">investment analyst</text>
</a>
</g>
</g>
<!-- 0&#45;&gt;2 -->
<g id="edge3" class="edge">
<title>0&#45;&gt;2</title>
<path fill="none" stroke="black" d="M717.91,-95.58C635.04,-83.38 478.03,-59.65 344.89,-36 338.35,-34.84 331.53,-33.58 324.73,-32.29"/>
<polygon fill="black" stroke="black" points="325.29,-28.83 314.81,-30.38 323.97,-35.7 325.29,-28.83"/>
<text text-anchor="middle" x="549.39" y="-57.8" font-family="Times New Roman,serif" font-size="14.00">0.125</text>
</g>
<!-- 3 -->
<g id="node4" class="node">
<title>3</title>
<g id="a_node4"><a xlink:href="from_outdoor pursuits manager.svg" xlink:title="outdoor pursuits manager">
<ellipse fill="none" stroke="black" cx="457.89" cy="-18" rx="103.98" ry="18"/>
<text text-anchor="middle" x="457.89" y="-14.3" font-family="Times New Roman,serif" font-size="14.00">outdoor pursuits manager</text>
</a>
</g>
</g>
<!-- 0&#45;&gt;3 -->
<g id="edge4" class="edge">
<title>0&#45;&gt;3</title>
<path fill="none" stroke="black" d="M729.99,-91.73C675.25,-77.1 583.42,-52.55 521.76,-36.07"/>
<polygon fill="black" stroke="black" points="522.32,-32.6 511.76,-33.4 520.52,-39.36 522.32,-32.6"/>
<text text-anchor="middle" x="652.39" y="-57.8" font-family="Times New Roman,serif" font-size="14.00">0.125</text>
</g>
<!-- 4 -->
<g id="node5" class="node">
<title>4</title>
<g id="a_node5"><a xlink:href="from_pharmacovigilance officer.svg" xlink:title="pharmacovigilance officer">
<ellipse fill="none" stroke="black" cx="684.89" cy="-18" rx="104.78" ry="18"/>
<text text-anchor="middle" x="684.89" y="-14.3" font-family="Times New Roman,serif" font-size="14.00">pharmacovigilance officer</text>
</a>
</g>
</g>
<!-- 0&#45;&gt;4 -->
<g id="edge5" class="edge">
<title>0&#45;&gt;4</title>
<path fill="none" stroke="black" d="M758.35,-87.61C744.8,-74.96 725.86,-57.26 710.6,-43.01"/>
<polygon fill="black" stroke="black" points="712.7,-40.19 703.01,-35.92 707.93,-45.3 712.7,-40.19"/>
<text text-anchor="middle" x="751.39" y="-57.8" font-family="Times New Roman,serif" font-size="14.00">0.125</text>
</g>
<!-- 5 -->
<g id="node6" class="node">
<title>5</title>
<g id="a_node6"><a xlink:href="from_police officer.svg" xlink:title="police officer">
<ellipse fill="none" stroke="black" cx="866.89" cy="-18" rx="59.29" ry="18"/>
<text text-anchor="middle" x="866.89" y="-14.3" font-family="Times New Roman,serif" font-size="14.00">police officer</text>
</a>
</g>
</g>
<!-- 0&#45;&gt;5 -->
<g id="edge6" class="edge">
<title>0&#45;&gt;5</title>
<path fill="none" stroke="black" d="M793.44,-87.61C807.16,-74.79 826.42,-56.8 841.78,-42.46"/>
<polygon fill="black" stroke="black" points="844.48,-44.72 849.4,-35.34 839.7,-39.61 844.48,-44.72"/>
<text text-anchor="middle" x="842.39" y="-57.8" font-family="Times New Roman,serif" font-size="14.00">0.125</text>
</g>
<!-- 6 -->
<g id="node7" class="node">
<title>6</title>
<g id="a_node7"><a xlink:href="from_project manager.svg" xlink:title="project manager">
<ellipse fill="none" stroke="black" cx="1012.89" cy="-18" rx="68.79" ry="18"/>
<text text-anchor="middle" x="1012.89" y="-14.3" font-family="Times New Roman,serif" font-size="14.00">project manager</text>
</a>
</g>
</g>
<!-- 0&#45;&gt;6 -->
<g id="edge7" class="edge">
<title>0&#45;&gt;6</title>
<path fill="none" stroke="black" d="M814.5,-90.15C855.35,-75.5 919.91,-52.35 964.22,-36.46"/>
<polygon fill="black" stroke="black" points="965.68,-39.65 973.91,-32.98 963.31,-33.06 965.68,-39.65"/>
<text text-anchor="middle" x="924.39" y="-57.8" font-family="Times New Roman,serif" font-size="14.00">0.125</text>
</g>
<!-- 7 -->
<g id="node8" class="node">
<title>7</title>
<g id="a_node8"><a xlink:href="from_records manager.svg" xlink:title="records manager">
<ellipse fill="none" stroke="black" cx="1170.89" cy="-18" rx="71.49" ry="18"/>
<text text-anchor="middle" x="1170.89" y="-14.3" font-family="Times New Roman,serif" font-size="14.00">records manager</text>
</a>
</g>
</g>
<!-- 0&#45;&gt;7 -->
<g id="edge8" class="edge">
<title>0&#45;&gt;7</title>
<path fill="none" stroke="black" d="M827.77,-93.35C860.99,-86.49 905,-77.33 943.89,-69 999.84,-57.01 1063.44,-42.97 1109.06,-32.82"/>
<polygon fill="black" stroke="black" points="1110.09,-36.18 1119.09,-30.59 1108.57,-29.34 1110.09,-36.18"/>
<text text-anchor="middle" x="1028.39" y="-57.8" font-family="Times New Roman,serif" font-size="14.00">0.125</text>
</g>
<!-- 8 -->
<g id="node9" class="node">
<title>8</title>
<g id="a_node9"><a xlink:href="from_teacher.svg" xlink:title="teacher">
<ellipse fill="none" stroke="black" cx="1296.89" cy="-18" rx="36.29" ry="18"/>
<text text-anchor="middle" x="1296.89" y="-14.3" font-family="Times New Roman,serif" font-size="14.00">teacher</text>
</a>
</g>
</g>
<!-- 0&#45;&gt;8 -->
<g id="edge9" class="edge">
<title>0&#45;&gt;8</title>
<path fill="none" stroke="black" d="M840.6,-99.49C932.89,-92 1107.1,-73.88 1250.89,-36 1253.84,-35.22 1256.87,-34.33 1259.89,-33.37"/>
<polygon fill="black" stroke="black" points="1261.1,-36.66 1269.44,-30.13 1258.85,-30.03 1261.1,-36.66"/>
<text text-anchor="middle" x="1177.39" y="-57.8" font-family="Times New Roman,serif" font-size="14.00">0.125</text>
</g>
</g>
</svg>
