<?xml version="1.0" encoding="UTF-8" standalone="no"?>
<!DOCTYPE svg PUBLIC "-//W3C//DTD SVG 1.1//EN"
 "http://www.w3.org/Graphics/SVG/1.1/DTD/svg11.dtd">
<!-- Generated by graphviz version 2.44.1 (20200629.0800)
 -->
<!-- Title: test Pages: 1 -->
<svg width="1447pt" height="131pt"
 viewBox="0.00 0.00 1446.99 131.00" xmlns="http://www.w3.org/2000/svg" xmlns:xlink="http://www.w3.org/1999/xlink">
<g id="graph0" class="graph" transform="scale(1 1) rotate(0) translate(4 127)">
<title>test</title>
<polygon fill="white" stroke="transparent" points="-4,4 -4,-127 1442.99,-127 1442.99,4 -4,4"/>
<!-- 0 -->
<g id="node1" class="node">
<title>0</title>
<g id="a_node1"><a xlink:href="from_agricultural consultant.svg" xlink:title="agricultural consultant">
<ellipse fill="none" stroke="black" cx="759.6" cy="-105" rx="89.88" ry="18"/>
<text text-anchor="middle" x="759.6" y="-101.3" font-family="Times New Roman,serif" font-size="14.00">agricultural consultant</text>
</a>
</g>
</g>
<!-- 0&#45;&gt;0 -->
<g id="edge1" class="edge">
<title>0&#45;&gt;0</title>
<path fill="none" stroke="black" d="M841.3,-112.47C856.55,-111.55 867.29,-109.06 867.29,-105 867.29,-101.92 861.12,-99.75 851.5,-98.47"/>
<polygon fill="black" stroke="black" points="851.58,-94.97 841.3,-97.53 850.94,-101.94 851.58,-94.97"/>
<text text-anchor="middle" x="882.79" y="-101.3" font-family="Times New Roman,serif" font-size="14.00">0.252</text>
</g>
<!-- 1 -->
<g id="node2" class="node">
<title>1</title>
<g id="a_node2"><a xlink:href="from_it consultant.svg" xlink:title="it consultant">
<ellipse fill="none" stroke="black" cx="54.6" cy="-18" rx="54.69" ry="18"/>
<text text-anchor="middle" x="54.6" y="-14.3" font-family="Times New Roman,serif" font-size="14.00">it consultant</text>
</a>
</g>
</g>
<!-- 0&#45;&gt;1 -->
<g id="edge2" class="edge">
<title>0&#45;&gt;1</title>
<path fill="none" stroke="black" d="M673.14,-100.02C549.1,-93.15 313.95,-75.77 117.6,-36 113.17,-35.1 108.59,-34.07 104.01,-32.97"/>
<polygon fill="black" stroke="black" points="104.62,-29.52 94.07,-30.48 102.92,-36.31 104.62,-29.52"/>
<text text-anchor="middle" x="326.1" y="-57.8" font-family="Times New Roman,serif" font-size="14.00">0.208</text>
</g>
<!-- 2 -->
<g id="node3" class="node">
<title>2</title>
<g id="a_node3"><a xlink:href="from_project manager.svg" xlink:title="project manager">
<ellipse fill="none" stroke="black" cx="195.6" cy="-18" rx="68.79" ry="18"/>
<text text-anchor="middle" x="195.6" y="-14.3" font-family="Times New Roman,serif" font-size="14.00">project manager</text>
</a>
</g>
</g>
<!-- 0&#45;&gt;2 -->
<g id="edge3" class="edge">
<title>0&#45;&gt;2</title>
<path fill="none" stroke="black" d="M683.96,-95.28C588.12,-83.81 418.02,-62.02 273.6,-36 267.83,-34.96 261.84,-33.8 255.86,-32.59"/>
<polygon fill="black" stroke="black" points="256.34,-29.12 245.84,-30.51 254.92,-35.97 256.34,-29.12"/>
<text text-anchor="middle" x="489.1" y="-57.8" font-family="Times New Roman,serif" font-size="14.00">0.069</text>
</g>
<!-- 3 -->
<g id="node4" class="node">
<title>3</title>
<g id="a_node4"><a xlink:href="from_production manager.svg" xlink:title="production manager">
<ellipse fill="none" stroke="black" cx="365.6" cy="-18" rx="83.39" ry="18"/>
<text text-anchor="middle" x="365.6" y="-14.3" font-family="Times New Roman,serif" font-size="14.00">production manager</text>
</a>
</g>
</g>
<!-- 0&#45;&gt;3 -->
<g id="edge4" class="edge">
<title>0&#45;&gt;3</title>
<path fill="none" stroke="black" d="M700.61,-91.27C628.7,-75.76 507.49,-49.61 432.27,-33.38"/>
<polygon fill="black" stroke="black" points="432.94,-29.95 422.42,-31.26 431.46,-36.79 432.94,-29.95"/>
<text text-anchor="middle" x="602.1" y="-57.8" font-family="Times New Roman,serif" font-size="14.00">0.043</text>
</g>
<!-- 4 -->
<g id="node5" class="node">
<title>4</title>
<g id="a_node5"><a xlink:href="from_pharmacovigilance officer.svg" xlink:title="pharmacovigilance officer">
<ellipse fill="none" stroke="black" cx="571.6" cy="-18" rx="104.78" ry="18"/>
<text text-anchor="middle" x="571.6" y="-14.3" font-family="Times New Roman,serif" font-size="14.00">pharmacovigilance officer</text>
</a>
</g>
</g>
<!-- 0&#45;&gt;4 -->
<g id="edge5" class="edge">
<title>0&#45;&gt;4</title>
<path fill="none" stroke="black" d="M724.67,-88.21C694.13,-74.4 649.6,-54.27 616.43,-39.27"/>
<polygon fill="black" stroke="black" points="617.52,-35.92 606.97,-34.99 614.64,-42.3 617.52,-35.92"/>
<text text-anchor="middle" x="693.1" y="-57.8" font-family="Times New Roman,serif" font-size="14.00">0.034</text>
</g>
<!-- 5 -->
<g id="node6" class="node">
<title>5</title>
<g id="a_node6"><a xlink:href="from_careers adviser.svg" xlink:title="careers adviser">
<ellipse fill="none" stroke="black" cx="759.6" cy="-18" rx="64.99" ry="18"/>
<text text-anchor="middle" x="759.6" y="-14.3" font-family="Times New Roman,serif" font-size="14.00">careers adviser</text>
</a>
</g>
</g>
<!-- 0&#45;&gt;5 -->
<g id="edge6" class="edge">
<title>0&#45;&gt;5</title>
<path fill="none" stroke="black" d="M759.6,-86.8C759.6,-75.16 759.6,-59.55 759.6,-46.24"/>
<polygon fill="black" stroke="black" points="763.1,-46.18 759.6,-36.18 756.1,-46.18 763.1,-46.18"/>
<text text-anchor="middle" x="775.1" y="-57.8" font-family="Times New Roman,serif" font-size="14.00">0.026</text>
</g>
<!-- 6 -->
<g id="node7" class="node">
<title>6</title>
<g id="a_node7"><a xlink:href="from_heritage manager.svg" xlink:title="heritage manager">
<ellipse fill="none" stroke="black" cx="913.6" cy="-18" rx="71.49" ry="18"/>
<text text-anchor="middle" x="913.6" y="-14.3" font-family="Times New Roman,serif" font-size="14.00">heritage manager</text>
</a>
</g>
</g>
<!-- 0&#45;&gt;6 -->
<g id="edge7" class="edge">
<title>0&#45;&gt;6</title>
<path fill="none" stroke="black" d="M788.92,-87.81C813.75,-74.11 849.47,-54.39 876.32,-39.57"/>
<polygon fill="black" stroke="black" points="878.35,-42.45 885.41,-34.55 874.97,-36.32 878.35,-42.45"/>
<text text-anchor="middle" x="862.1" y="-57.8" font-family="Times New Roman,serif" font-size="14.00">0.026</text>
</g>
<!-- 7 -->
<g id="node8" class="node">
<title>7</title>
<g id="a_node8"><a xlink:href="from_materials specialist.svg" xlink:title="materials specialist">
<ellipse fill="none" stroke="black" cx="1080.6" cy="-18" rx="77.99" ry="18"/>
<text text-anchor="middle" x="1080.6" y="-14.3" font-family="Times New Roman,serif" font-size="14.00">materials specialist</text>
</a>
</g>
</g>
<!-- 0&#45;&gt;7 -->
<g id="edge8" class="edge">
<title>0&#45;&gt;7</title>
<path fill="none" stroke="black" d="M811.53,-90.25C869.01,-75.03 961.48,-50.54 1021.64,-34.61"/>
<polygon fill="black" stroke="black" points="1022.6,-37.98 1031.37,-32.03 1020.81,-31.21 1022.6,-37.98"/>
<text text-anchor="middle" x="955.1" y="-57.8" font-family="Times New Roman,serif" font-size="14.00">0.026</text>
</g>
<!-- 8 -->
<g id="node9" class="node">
<title>8</title>
<g id="a_node9"><a xlink:href="from_qa analyst.svg" xlink:title="qa analyst">
<ellipse fill="none" stroke="black" cx="1223.6" cy="-18" rx="46.59" ry="18"/>
<text text-anchor="middle" x="1223.6" y="-14.3" font-family="Times New Roman,serif" font-size="14.00">qa analyst</text>
</a>
</g>
</g>
<!-- 0&#45;&gt;8 -->
<g id="edge9" class="edge">
<title>0&#45;&gt;8</title>
<path fill="none" stroke="black" d="M833.52,-94.71C915.71,-83.68 1052.11,-63.29 1167.6,-36 1171.43,-35.09 1175.4,-34.07 1179.36,-32.99"/>
<polygon fill="black" stroke="black" points="1180.47,-36.31 1189.13,-30.2 1178.55,-29.58 1180.47,-36.31"/>
<text text-anchor="middle" x="1095.1" y="-57.8" font-family="Times New Roman,serif" font-size="14.00">0.026</text>
</g>
<!-- 9 -->
<g id="node10" class="node">
<title>9</title>
<g id="a_node10"><a xlink:href="from_software architect.svg" xlink:title="software architect">
<ellipse fill="none" stroke="black" cx="1363.6" cy="-18" rx="75.29" ry="18"/>
<text text-anchor="middle" x="1363.6" y="-14.3" font-family="Times New Roman,serif" font-size="14.00">software architect</text>
</a>
</g>
</g>
<!-- 0&#45;&gt;9 -->
<g id="edge10" class="edge">
<title>0&#45;&gt;9</title>
<path fill="none" stroke="black" d="M842.73,-98.15C914.86,-92.51 1021.95,-82.8 1114.6,-69 1188.57,-57.98 1206.28,-50.75 1279.6,-36 1285.63,-34.79 1291.9,-33.52 1298.18,-32.25"/>
<polygon fill="black" stroke="black" points="1298.91,-35.68 1308.02,-30.27 1297.53,-28.82 1298.91,-35.68"/>
<text text-anchor="middle" x="1211.1" y="-57.8" font-family="Times New Roman,serif" font-size="14.00">0.026</text>
</g>
</g>
</svg>
