<?xml version="1.0" encoding="UTF-8" standalone="no"?>
<!DOCTYPE svg PUBLIC "-//W3C//DTD SVG 1.1//EN"
 "http://www.w3.org/Graphics/SVG/1.1/DTD/svg11.dtd">
<!-- Generated by graphviz version 2.44.1 (20200629.0800)
 -->
<!-- Title: equality_and_diversity_officer Pages: 1 -->
<svg width="1768pt" height="131pt"
 viewBox="0.00 0.00 1767.64 131.00" xmlns="http://www.w3.org/2000/svg" xmlns:xlink="http://www.w3.org/1999/xlink">
<g id="graph0" class="graph" transform="scale(1 1) rotate(0) translate(4 127)">
<title>equality_and_diversity_officer</title>
<polygon fill="white" stroke="transparent" points="-4,4 -4,-127 1763.64,-127 1763.64,4 -4,4"/>
<!-- 0 -->
<g id="node1" class="node">
<title>0</title>
<g id="a_node1"><a xlink:href="from_equality and diversity officer.svg" xlink:title="equality and diversity officer">
<ellipse fill="none" stroke="black" cx="859.89" cy="-105" rx="113.98" ry="18"/>
<text text-anchor="middle" x="859.89" y="-101.3" font-family="Times New Roman,serif" font-size="14.00">equality and diversity officer</text>
</a>
</g>
</g>
<!-- 1 -->
<g id="node2" class="node">
<title>1</title>
<g id="a_node2"><a xlink:href="from_project manager.svg" xlink:title="project manager">
<ellipse fill="none" stroke="black" cx="68.89" cy="-18" rx="68.79" ry="18"/>
<text text-anchor="middle" x="68.89" y="-14.3" font-family="Times New Roman,serif" font-size="14.00">project manager</text>
</a>
</g>
</g>
<!-- 0&#45;&gt;1 -->
<g id="edge1" class="edge">
<title>0&#45;&gt;1</title>
<path fill="none" stroke="black" d="M752.59,-99C612.45,-91.27 359.87,-73.26 146.89,-36 141.03,-34.97 134.95,-33.82 128.87,-32.6"/>
<polygon fill="black" stroke="black" points="129.21,-29.09 118.71,-30.5 127.79,-35.95 129.21,-29.09"/>
<text text-anchor="middle" x="396.39" y="-57.8" font-family="Times New Roman,serif" font-size="14.00">0.210</text>
</g>
<!-- 2 -->
<g id="node3" class="node">
<title>2</title>
<g id="a_node3"><a xlink:href="from_corporate banker.svg" xlink:title="corporate banker">
<ellipse fill="none" stroke="black" cx="228.89" cy="-18" rx="72.59" ry="18"/>
<text text-anchor="middle" x="228.89" y="-14.3" font-family="Times New Roman,serif" font-size="14.00">corporate banker</text>
</a>
</g>
</g>
<!-- 0&#45;&gt;2 -->
<g id="edge2" class="edge">
<title>0&#45;&gt;2</title>
<path fill="none" stroke="black" d="M765.63,-94.79C655.82,-83.49 469.1,-62.53 309.89,-36 303.76,-34.98 297.37,-33.81 291.01,-32.59"/>
<polygon fill="black" stroke="black" points="291.55,-29.12 281.06,-30.62 290.19,-35.99 291.55,-29.12"/>
<text text-anchor="middle" x="551.39" y="-57.8" font-family="Times New Roman,serif" font-size="14.00">0.105</text>
</g>
<!-- 3 -->
<g id="node4" class="node">
<title>3</title>
<g id="a_node4"><a xlink:href="from_education administrator.svg" xlink:title="education administrator">
<ellipse fill="none" stroke="black" cx="414.89" cy="-18" rx="95.58" ry="18"/>
<text text-anchor="middle" x="414.89" y="-14.3" font-family="Times New Roman,serif" font-size="14.00">education administrator</text>
</a>
</g>
</g>
<!-- 0&#45;&gt;3 -->
<g id="edge3" class="edge">
<title>0&#45;&gt;3</title>
<path fill="none" stroke="black" d="M790.36,-90.72C708.62,-75.1 573.48,-49.29 489.57,-33.26"/>
<polygon fill="black" stroke="black" points="490.08,-29.8 479.6,-31.36 488.77,-36.67 490.08,-29.8"/>
<text text-anchor="middle" x="680.39" y="-57.8" font-family="Times New Roman,serif" font-size="14.00">0.105</text>
</g>
<!-- 4 -->
<g id="node5" class="node">
<title>4</title>
<g id="a_node5"><a xlink:href="from_camera operator.svg" xlink:title="camera operator">
<ellipse fill="none" stroke="black" cx="597.89" cy="-18" rx="69.59" ry="18"/>
<text text-anchor="middle" x="597.89" y="-14.3" font-family="Times New Roman,serif" font-size="14.00">camera operator</text>
</a>
</g>
</g>
<!-- 0&#45;&gt;4 -->
<g id="edge4" class="edge">
<title>0&#45;&gt;4</title>
<path fill="none" stroke="black" d="M812.45,-88.61C766.33,-73.64 696.5,-50.99 649.13,-35.62"/>
<polygon fill="black" stroke="black" points="649.97,-32.22 639.38,-32.46 647.81,-38.87 649.97,-32.22"/>
<text text-anchor="middle" x="760.39" y="-57.8" font-family="Times New Roman,serif" font-size="14.00">0.052</text>
</g>
<!-- 5 -->
<g id="node6" class="node">
<title>5</title>
<g id="a_node6"><a xlink:href="from_corporate treasurer.svg" xlink:title="corporate treasurer">
<ellipse fill="none" stroke="black" cx="764.89" cy="-18" rx="79.09" ry="18"/>
<text text-anchor="middle" x="764.89" y="-14.3" font-family="Times New Roman,serif" font-size="14.00">corporate treasurer</text>
</a>
</g>
</g>
<!-- 0&#45;&gt;5 -->
<g id="edge5" class="edge">
<title>0&#45;&gt;5</title>
<path fill="none" stroke="black" d="M841.12,-87.21C826.94,-74.52 807.29,-56.93 791.49,-42.79"/>
<polygon fill="black" stroke="black" points="793.41,-39.82 783.62,-35.76 788.74,-45.03 793.41,-39.82"/>
<text text-anchor="middle" x="834.39" y="-57.8" font-family="Times New Roman,serif" font-size="14.00">0.052</text>
</g>
<!-- 6 -->
<g id="node7" class="node">
<title>6</title>
<g id="a_node7"><a xlink:href="from_environmental manager.svg" xlink:title="environmental manager">
<ellipse fill="none" stroke="black" cx="955.89" cy="-18" rx="93.68" ry="18"/>
<text text-anchor="middle" x="955.89" y="-14.3" font-family="Times New Roman,serif" font-size="14.00">environmental manager</text>
</a>
</g>
</g>
<!-- 0&#45;&gt;6 -->
<g id="edge6" class="edge">
<title>0&#45;&gt;6</title>
<path fill="none" stroke="black" d="M878.86,-87.21C893.32,-74.4 913.42,-56.61 929.46,-42.4"/>
<polygon fill="black" stroke="black" points="931.8,-45.01 936.97,-35.76 927.16,-39.77 931.8,-45.01"/>
<text text-anchor="middle" x="929.39" y="-57.8" font-family="Times New Roman,serif" font-size="14.00">0.052</text>
</g>
<!-- 7 -->
<g id="node8" class="node">
<title>7</title>
<g id="a_node8"><a xlink:href="from_health and safety adviser.svg" xlink:title="health and safety adviser">
<ellipse fill="none" stroke="black" cx="1166.89" cy="-18" rx="99.38" ry="18"/>
<text text-anchor="middle" x="1166.89" y="-14.3" font-family="Times New Roman,serif" font-size="14.00">health and safety adviser</text>
</a>
</g>
</g>
<!-- 0&#45;&gt;7 -->
<g id="edge7" class="edge">
<title>0&#45;&gt;7</title>
<path fill="none" stroke="black" d="M913.72,-89.1C967.17,-74.3 1049.04,-51.63 1105.11,-36.11"/>
<polygon fill="black" stroke="black" points="1106.22,-39.43 1114.92,-33.39 1104.35,-32.68 1106.22,-39.43"/>
<text text-anchor="middle" x="1047.39" y="-57.8" font-family="Times New Roman,serif" font-size="14.00">0.052</text>
</g>
<!-- 8 -->
<g id="node9" class="node">
<title>8</title>
<g id="a_node9"><a xlink:href="from_health and safety inspector.svg" xlink:title="health and safety inspector">
<ellipse fill="none" stroke="black" cx="1391.89" cy="-18" rx="107.48" ry="18"/>
<text text-anchor="middle" x="1391.89" y="-14.3" font-family="Times New Roman,serif" font-size="14.00">health and safety inspector</text>
</a>
</g>
</g>
<!-- 0&#45;&gt;8 -->
<g id="edge8" class="edge">
<title>0&#45;&gt;8</title>
<path fill="none" stroke="black" d="M936.97,-91.69C1035.34,-75.97 1204.97,-48.87 1306.97,-32.57"/>
<polygon fill="black" stroke="black" points="1307.61,-36.01 1316.93,-30.98 1306.51,-29.1 1307.61,-36.01"/>
<text text-anchor="middle" x="1173.39" y="-57.8" font-family="Times New Roman,serif" font-size="14.00">0.052</text>
</g>
<!-- 9 -->
<g id="node10" class="node">
<title>9</title>
<g id="a_node10"><a xlink:href="from_lecturer.svg" xlink:title="lecturer">
<ellipse fill="none" stroke="black" cx="1554.89" cy="-18" rx="37.89" ry="18"/>
<text text-anchor="middle" x="1554.89" y="-14.3" font-family="Times New Roman,serif" font-size="14.00">lecturer</text>
</a>
</g>
</g>
<!-- 0&#45;&gt;9 -->
<g id="edge9" class="edge">
<title>0&#45;&gt;9</title>
<path fill="none" stroke="black" d="M970.15,-100.55C1100.17,-94.63 1322.13,-78.68 1507.89,-36 1510.93,-35.3 1514.03,-34.47 1517.13,-33.55"/>
<polygon fill="black" stroke="black" points="1518.46,-36.79 1526.89,-30.38 1516.3,-30.14 1518.46,-36.79"/>
<text text-anchor="middle" x="1419.39" y="-57.8" font-family="Times New Roman,serif" font-size="14.00">0.052</text>
</g>
<!-- 10 -->
<g id="node11" class="node">
<title>10</title>
<g id="a_node11"><a xlink:href="from_personal assistant.svg" xlink:title="personal assistant">
<ellipse fill="none" stroke="black" cx="1684.89" cy="-18" rx="74.99" ry="18"/>
<text text-anchor="middle" x="1684.89" y="-14.3" font-family="Times New Roman,serif" font-size="14.00">personal assistant</text>
</a>
</g>
</g>
<!-- 0&#45;&gt;10 -->
<g id="edge10" class="edge">
<title>0&#45;&gt;10</title>
<path fill="none" stroke="black" d="M972.14,-101.84C1089.11,-98.52 1277.51,-90.11 1438.89,-69 1502.77,-60.64 1574.9,-45.27 1624.45,-33.76"/>
<polygon fill="black" stroke="black" points="1625.42,-37.13 1634.36,-31.45 1623.83,-30.32 1625.42,-37.13"/>
<text text-anchor="middle" x="1543.39" y="-57.8" font-family="Times New Roman,serif" font-size="14.00">0.052</text>
</g>
</g>
</svg>
