<?xml version="1.0" encoding="UTF-8" standalone="no"?>
<!DOCTYPE svg PUBLIC "-//W3C//DTD SVG 1.1//EN"
 "http://www.w3.org/Graphics/SVG/1.1/DTD/svg11.dtd">
<!-- Generated by graphviz version 2.44.1 (20200629.0800)
 -->
<!-- Title: test Pages: 1 -->
<svg width="1569pt" height="131pt"
 viewBox="0.00 0.00 1569.08 131.00" xmlns="http://www.w3.org/2000/svg" xmlns:xlink="http://www.w3.org/1999/xlink">
<g id="graph0" class="graph" transform="scale(1 1) rotate(0) translate(4 127)">
<title>test</title>
<polygon fill="white" stroke="transparent" points="-4,4 -4,-127 1565.08,-127 1565.08,4 -4,4"/>
<!-- 0 -->
<g id="node1" class="node">
<title>0</title>
<g id="a_node1"><a xlink:href="from_heritage manager.svg" xlink:title="heritage manager">
<ellipse fill="none" stroke="black" cx="747.64" cy="-105" rx="71.49" ry="18"/>
<text text-anchor="middle" x="747.64" y="-101.3" font-family="Times New Roman,serif" font-size="14.00">heritage manager</text>
</a>
</g>
</g>
<!-- 0&#45;&gt;0 -->
<g id="edge1" class="edge">
<title>0&#45;&gt;0</title>
<path fill="none" stroke="black" d="M812.4,-112.66C826.71,-111.94 837.13,-109.39 837.13,-105 837.13,-101.74 831.39,-99.5 822.58,-98.26"/>
<polygon fill="black" stroke="black" points="822.68,-94.75 812.4,-97.34 822.04,-101.73 822.68,-94.75"/>
<text text-anchor="middle" x="852.63" y="-101.3" font-family="Times New Roman,serif" font-size="14.00">0.098</text>
</g>
<!-- 1 -->
<g id="node2" class="node">
<title>1</title>
<g id="a_node2"><a xlink:href="from_pharmacovigilance officer.svg" xlink:title="pharmacovigilance officer">
<ellipse fill="none" stroke="black" cx="104.64" cy="-18" rx="104.78" ry="18"/>
<text text-anchor="middle" x="104.64" y="-14.3" font-family="Times New Roman,serif" font-size="14.00">pharmacovigilance officer</text>
</a>
</g>
</g>
<!-- 0&#45;&gt;1 -->
<g id="edge2" class="edge">
<title>0&#45;&gt;1</title>
<path fill="none" stroke="black" d="M683.64,-96.95C623.26,-90.19 530.22,-79.49 449.64,-69 346.8,-55.62 321.26,-50.98 218.64,-36 209.63,-34.68 200.21,-33.3 190.82,-31.91"/>
<polygon fill="black" stroke="black" points="191.07,-28.41 180.67,-30.4 190.05,-35.33 191.07,-28.41"/>
<text text-anchor="middle" x="465.14" y="-57.8" font-family="Times New Roman,serif" font-size="14.00">0.080</text>
</g>
<!-- 2 -->
<g id="node3" class="node">
<title>2</title>
<g id="a_node3"><a xlink:href="from_production manager.svg" xlink:title="production manager">
<ellipse fill="none" stroke="black" cx="310.64" cy="-18" rx="83.39" ry="18"/>
<text text-anchor="middle" x="310.64" y="-14.3" font-family="Times New Roman,serif" font-size="14.00">production manager</text>
</a>
</g>
</g>
<!-- 0&#45;&gt;2 -->
<g id="edge3" class="edge">
<title>0&#45;&gt;2</title>
<path fill="none" stroke="black" d="M691.66,-93.79C654.26,-86.92 603.97,-77.58 559.64,-69 498.39,-57.15 428.77,-43.12 378.75,-32.95"/>
<polygon fill="black" stroke="black" points="379.2,-29.47 368.71,-30.9 377.81,-36.33 379.2,-29.47"/>
<text text-anchor="middle" x="575.14" y="-57.8" font-family="Times New Roman,serif" font-size="14.00">0.068</text>
</g>
<!-- 3 -->
<g id="node4" class="node">
<title>3</title>
<g id="a_node4"><a xlink:href="from_sales manager.svg" xlink:title="sales manager">
<ellipse fill="none" stroke="black" cx="472.64" cy="-18" rx="61.19" ry="18"/>
<text text-anchor="middle" x="472.64" y="-14.3" font-family="Times New Roman,serif" font-size="14.00">sales manager</text>
</a>
</g>
</g>
<!-- 0&#45;&gt;3 -->
<g id="edge4" class="edge">
<title>0&#45;&gt;3</title>
<path fill="none" stroke="black" d="M704.37,-90.63C655.2,-75.43 575.07,-50.66 523.1,-34.6"/>
<polygon fill="black" stroke="black" points="524.01,-31.21 513.42,-31.6 521.94,-37.9 524.01,-31.21"/>
<text text-anchor="middle" x="642.14" y="-57.8" font-family="Times New Roman,serif" font-size="14.00">0.044</text>
</g>
<!-- 4 -->
<g id="node5" class="node">
<title>4</title>
<g id="a_node5"><a xlink:href="from_it consultant.svg" xlink:title="it consultant">
<ellipse fill="none" stroke="black" cx="606.64" cy="-18" rx="54.69" ry="18"/>
<text text-anchor="middle" x="606.64" y="-14.3" font-family="Times New Roman,serif" font-size="14.00">it consultant</text>
</a>
</g>
</g>
<!-- 0&#45;&gt;4 -->
<g id="edge5" class="edge">
<title>0&#45;&gt;4</title>
<path fill="none" stroke="black" d="M721.45,-88.21C698.61,-74.44 665.34,-54.38 640.48,-39.4"/>
<polygon fill="black" stroke="black" points="642.11,-36.3 631.74,-34.13 638.5,-42.29 642.11,-36.3"/>
<text text-anchor="middle" x="701.14" y="-57.8" font-family="Times New Roman,serif" font-size="14.00">0.041</text>
</g>
<!-- 5 -->
<g id="node6" class="node">
<title>5</title>
<g id="a_node6"><a xlink:href="from_project manager.svg" xlink:title="project manager">
<ellipse fill="none" stroke="black" cx="747.64" cy="-18" rx="68.79" ry="18"/>
<text text-anchor="middle" x="747.64" y="-14.3" font-family="Times New Roman,serif" font-size="14.00">project manager</text>
</a>
</g>
</g>
<!-- 0&#45;&gt;5 -->
<g id="edge6" class="edge">
<title>0&#45;&gt;5</title>
<path fill="none" stroke="black" d="M747.64,-86.8C747.64,-75.16 747.64,-59.55 747.64,-46.24"/>
<polygon fill="black" stroke="black" points="751.14,-46.18 747.64,-36.18 744.14,-46.18 751.14,-46.18"/>
<text text-anchor="middle" x="763.14" y="-57.8" font-family="Times New Roman,serif" font-size="14.00">0.041</text>
</g>
<!-- 6 -->
<g id="node7" class="node">
<title>6</title>
<g id="a_node7"><a xlink:href="from_software developer.svg" xlink:title="software developer">
<ellipse fill="none" stroke="black" cx="914.64" cy="-18" rx="79.89" ry="18"/>
<text text-anchor="middle" x="914.64" y="-14.3" font-family="Times New Roman,serif" font-size="14.00">software developer</text>
</a>
</g>
</g>
<!-- 0&#45;&gt;6 -->
<g id="edge7" class="edge">
<title>0&#45;&gt;6</title>
<path fill="none" stroke="black" d="M777.88,-88.61C804.94,-74.84 844.8,-54.55 874.51,-39.42"/>
<polygon fill="black" stroke="black" points="876.45,-42.37 883.78,-34.71 873.28,-36.13 876.45,-42.37"/>
<text text-anchor="middle" x="857.14" y="-57.8" font-family="Times New Roman,serif" font-size="14.00">0.035</text>
</g>
<!-- 7 -->
<g id="node8" class="node">
<title>7</title>
<g id="a_node8"><a xlink:href="from_investment fund manager.svg" xlink:title="investment fund manager">
<ellipse fill="none" stroke="black" cx="1113.64" cy="-18" rx="100.98" ry="18"/>
<text text-anchor="middle" x="1113.64" y="-14.3" font-family="Times New Roman,serif" font-size="14.00">investment fund manager</text>
</a>
</g>
</g>
<!-- 0&#45;&gt;7 -->
<g id="edge8" class="edge">
<title>0&#45;&gt;7</title>
<path fill="none" stroke="black" d="M798.53,-92.18C862.69,-77.28 973.23,-51.61 1044.87,-34.97"/>
<polygon fill="black" stroke="black" points="1045.76,-38.36 1054.71,-32.69 1044.18,-31.54 1045.76,-38.36"/>
<text text-anchor="middle" x="968.14" y="-57.8" font-family="Times New Roman,serif" font-size="14.00">0.032</text>
</g>
<!-- 8 -->
<g id="node9" class="node">
<title>8</title>
<g id="a_node9"><a xlink:href="from_marketing executive.svg" xlink:title="marketing executive">
<ellipse fill="none" stroke="black" cx="1314.64" cy="-18" rx="81.79" ry="18"/>
<text text-anchor="middle" x="1314.64" y="-14.3" font-family="Times New Roman,serif" font-size="14.00">marketing executive</text>
</a>
</g>
</g>
<!-- 0&#45;&gt;8 -->
<g id="edge9" class="edge">
<title>0&#45;&gt;8</title>
<path fill="none" stroke="black" d="M809.77,-95.99C900.77,-84.06 1075.59,-60.39 1223.64,-36 1230.62,-34.85 1237.89,-33.59 1245.14,-32.3"/>
<polygon fill="black" stroke="black" points="1245.77,-35.74 1254.99,-30.52 1244.52,-28.86 1245.77,-35.74"/>
<text text-anchor="middle" x="1122.14" y="-57.8" font-family="Times New Roman,serif" font-size="14.00">0.029</text>
</g>
<!-- 9 -->
<g id="node10" class="node">
<title>9</title>
<g id="a_node10"><a xlink:href="from_financial manager.svg" xlink:title="financial manager">
<ellipse fill="none" stroke="black" cx="1487.64" cy="-18" rx="73.39" ry="18"/>
<text text-anchor="middle" x="1487.64" y="-14.3" font-family="Times New Roman,serif" font-size="14.00">financial manager</text>
</a>
</g>
</g>
<!-- 0&#45;&gt;9 -->
<g id="edge10" class="edge">
<title>0&#45;&gt;9</title>
<path fill="none" stroke="black" d="M816.21,-99.7C936.27,-91.55 1192.08,-71.43 1405.64,-36 1411.85,-34.97 1418.31,-33.8 1424.75,-32.57"/>
<polygon fill="black" stroke="black" points="1425.68,-35.95 1434.82,-30.6 1424.34,-29.09 1425.68,-35.95"/>
<text text-anchor="middle" x="1296.14" y="-57.8" font-family="Times New Roman,serif" font-size="14.00">0.026</text>
</g>
</g>
</svg>
