<?xml version="1.0" encoding="UTF-8" standalone="no"?>
<!DOCTYPE svg PUBLIC "-//W3C//DTD SVG 1.1//EN"
 "http://www.w3.org/Graphics/SVG/1.1/DTD/svg11.dtd">
<!-- Generated by graphviz version 2.44.1 (20200629.0800)
 -->
<!-- Title: test Pages: 1 -->
<svg width="1530pt" height="131pt"
 viewBox="0.00 0.00 1530.49 131.00" xmlns="http://www.w3.org/2000/svg" xmlns:xlink="http://www.w3.org/1999/xlink">
<g id="graph0" class="graph" transform="scale(1 1) rotate(0) translate(4 127)">
<title>test</title>
<polygon fill="white" stroke="transparent" points="-4,4 -4,-127 1526.49,-127 1526.49,4 -4,4"/>
<!-- 0 -->
<g id="node1" class="node">
<title>0</title>
<g id="a_node1"><a xlink:href="from_aeronautical engineer.svg" xlink:title="aeronautical engineer">
<ellipse fill="none" stroke="black" cx="784.89" cy="-105" rx="85.59" ry="18"/>
<text text-anchor="middle" x="784.89" y="-101.3" font-family="Times New Roman,serif" font-size="14.00">aeronautical engineer</text>
</a>
</g>
</g>
<!-- 0&#45;&gt;0 -->
<g id="edge2" class="edge">
<title>0&#45;&gt;0</title>
<path fill="none" stroke="black" d="M863.2,-112.5C878.13,-111.6 888.69,-109.1 888.69,-105 888.69,-101.89 882.62,-99.7 873.19,-98.44"/>
<polygon fill="black" stroke="black" points="873.48,-94.95 863.2,-97.5 872.83,-101.92 873.48,-94.95"/>
<text text-anchor="middle" x="897.69" y="-101.3" font-family="Times New Roman,serif" font-size="14.00">0.1</text>
</g>
<!-- 1 -->
<g id="node2" class="node">
<title>1</title>
<g id="a_node2"><a xlink:href="from_project manager.svg" xlink:title="project manager">
<ellipse fill="none" stroke="black" cx="68.89" cy="-18" rx="68.79" ry="18"/>
<text text-anchor="middle" x="68.89" y="-14.3" font-family="Times New Roman,serif" font-size="14.00">project manager</text>
</a>
</g>
</g>
<!-- 0&#45;&gt;1 -->
<g id="edge1" class="edge">
<title>0&#45;&gt;1</title>
<path fill="none" stroke="black" d="M704.1,-98.8C582.55,-90.2 345.69,-70.46 146.89,-36 141.03,-34.98 134.94,-33.83 128.87,-32.61"/>
<polygon fill="black" stroke="black" points="129.2,-29.11 118.7,-30.52 127.79,-35.97 129.2,-29.11"/>
<text text-anchor="middle" x="386.39" y="-57.8" font-family="Times New Roman,serif" font-size="14.00">0.12</text>
</g>
<!-- 2 -->
<g id="node3" class="node">
<title>2</title>
<g id="a_node3"><a xlink:href="from_electrical engineer.svg" xlink:title="electrical engineer">
<ellipse fill="none" stroke="black" cx="230.89" cy="-18" rx="74.99" ry="18"/>
<text text-anchor="middle" x="230.89" y="-14.3" font-family="Times New Roman,serif" font-size="14.00">electrical engineer</text>
</a>
</g>
</g>
<!-- 0&#45;&gt;2 -->
<g id="edge3" class="edge">
<title>0&#45;&gt;2</title>
<path fill="none" stroke="black" d="M713.43,-94.93C621.14,-82.92 455.63,-60.4 314.89,-36 308.39,-34.87 301.62,-33.63 294.87,-32.33"/>
<polygon fill="black" stroke="black" points="295.52,-28.89 285.03,-30.42 294.18,-35.77 295.52,-28.89"/>
<text text-anchor="middle" x="533.39" y="-57.8" font-family="Times New Roman,serif" font-size="14.00">0.06</text>
</g>
<!-- 3 -->
<g id="node4" class="node">
<title>3</title>
<g id="a_node4"><a xlink:href="from_manufacturing engineer.svg" xlink:title="manufacturing engineer">
<ellipse fill="none" stroke="black" cx="417.89" cy="-18" rx="94.48" ry="18"/>
<text text-anchor="middle" x="417.89" y="-14.3" font-family="Times New Roman,serif" font-size="14.00">manufacturing engineer</text>
</a>
</g>
</g>
<!-- 0&#45;&gt;3 -->
<g id="edge4" class="edge">
<title>0&#45;&gt;3</title>
<path fill="none" stroke="black" d="M729.55,-91.18C664.28,-76.06 555.79,-50.94 485.58,-34.68"/>
<polygon fill="black" stroke="black" points="486.04,-31.19 475.5,-32.34 484.46,-38.01 486.04,-31.19"/>
<text text-anchor="middle" x="636.39" y="-57.8" font-family="Times New Roman,serif" font-size="14.00">0.06</text>
</g>
<!-- 4 -->
<g id="node5" class="node">
<title>4</title>
<g id="a_node5"><a xlink:href="from_software developer.svg" xlink:title="software developer">
<ellipse fill="none" stroke="black" cx="609.89" cy="-18" rx="79.89" ry="18"/>
<text text-anchor="middle" x="609.89" y="-14.3" font-family="Times New Roman,serif" font-size="14.00">software developer</text>
</a>
</g>
</g>
<!-- 0&#45;&gt;4 -->
<g id="edge5" class="edge">
<title>0&#45;&gt;4</title>
<path fill="none" stroke="black" d="M752.39,-88.21C723.81,-74.33 682.08,-54.06 651.15,-39.04"/>
<polygon fill="black" stroke="black" points="652.45,-35.78 641.93,-34.56 649.4,-42.08 652.45,-35.78"/>
<text text-anchor="middle" x="720.39" y="-57.8" font-family="Times New Roman,serif" font-size="14.00">0.06</text>
</g>
<!-- 5 -->
<g id="node6" class="node">
<title>5</title>
<g id="a_node6"><a xlink:href="from_structural engineer.svg" xlink:title="structural engineer">
<ellipse fill="none" stroke="black" cx="784.89" cy="-18" rx="76.89" ry="18"/>
<text text-anchor="middle" x="784.89" y="-14.3" font-family="Times New Roman,serif" font-size="14.00">structural engineer</text>
</a>
</g>
</g>
<!-- 0&#45;&gt;5 -->
<g id="edge6" class="edge">
<title>0&#45;&gt;5</title>
<path fill="none" stroke="black" d="M784.89,-86.8C784.89,-75.16 784.89,-59.55 784.89,-46.24"/>
<polygon fill="black" stroke="black" points="788.39,-46.18 784.89,-36.18 781.39,-46.18 788.39,-46.18"/>
<text text-anchor="middle" x="797.39" y="-57.8" font-family="Times New Roman,serif" font-size="14.00">0.06</text>
</g>
<!-- 6 -->
<g id="node7" class="node">
<title>6</title>
<g id="a_node7"><a xlink:href="from_it consultant.svg" xlink:title="it consultant">
<ellipse fill="none" stroke="black" cx="933.89" cy="-18" rx="54.69" ry="18"/>
<text text-anchor="middle" x="933.89" y="-14.3" font-family="Times New Roman,serif" font-size="14.00">it consultant</text>
</a>
</g>
</g>
<!-- 0&#45;&gt;6 -->
<g id="edge7" class="edge">
<title>0&#45;&gt;6</title>
<path fill="none" stroke="black" d="M813.27,-87.81C837.59,-73.94 872.72,-53.9 898.81,-39.02"/>
<polygon fill="black" stroke="black" points="900.67,-41.98 907.62,-33.99 897.2,-35.9 900.67,-41.98"/>
<text text-anchor="middle" x="881.39" y="-57.8" font-family="Times New Roman,serif" font-size="14.00">0.04</text>
</g>
<!-- 7 -->
<g id="node8" class="node">
<title>7</title>
<g id="a_node8"><a xlink:href="from_mechanical engineer.svg" xlink:title="mechanical engineer">
<ellipse fill="none" stroke="black" cx="1089.89" cy="-18" rx="83.39" ry="18"/>
<text text-anchor="middle" x="1089.89" y="-14.3" font-family="Times New Roman,serif" font-size="14.00">mechanical engineer</text>
</a>
</g>
</g>
<!-- 0&#45;&gt;7 -->
<g id="edge8" class="edge">
<title>0&#45;&gt;7</title>
<path fill="none" stroke="black" d="M834.24,-90.25C887.99,-75.27 973.95,-51.31 1031.15,-35.37"/>
<polygon fill="black" stroke="black" points="1032.43,-38.65 1041.13,-32.59 1030.55,-31.9 1032.43,-38.65"/>
<text text-anchor="middle" x="968.39" y="-57.8" font-family="Times New Roman,serif" font-size="14.00">0.04</text>
</g>
<!-- 8 -->
<g id="node9" class="node">
<title>8</title>
<g id="a_node9"><a xlink:href="from_academic librarian.svg" xlink:title="academic librarian">
<ellipse fill="none" stroke="black" cx="1266.89" cy="-18" rx="76.09" ry="18"/>
<text text-anchor="middle" x="1266.89" y="-14.3" font-family="Times New Roman,serif" font-size="14.00">academic librarian</text>
</a>
</g>
</g>
<!-- 0&#45;&gt;8 -->
<g id="edge9" class="edge">
<title>0&#45;&gt;8</title>
<path fill="none" stroke="black" d="M850.67,-93.31C929.5,-80.36 1065.53,-57.6 1181.89,-36 1188.11,-34.85 1194.57,-33.61 1201.03,-32.36"/>
<polygon fill="black" stroke="black" points="1202.01,-35.73 1211.16,-30.38 1200.67,-28.86 1202.01,-35.73"/>
<text text-anchor="middle" x="1086.39" y="-57.8" font-family="Times New Roman,serif" font-size="14.00">0.02</text>
</g>
<!-- 9 -->
<g id="node10" class="node">
<title>9</title>
<g id="a_node10"><a xlink:href="from_air traffic controller.svg" xlink:title="air traffic controller">
<ellipse fill="none" stroke="black" cx="1441.89" cy="-18" rx="80.69" ry="18"/>
<text text-anchor="middle" x="1441.89" y="-14.3" font-family="Times New Roman,serif" font-size="14.00">air traffic controller</text>
</a>
</g>
</g>
<!-- 0&#45;&gt;9 -->
<g id="edge10" class="edge">
<title>0&#45;&gt;9</title>
<path fill="none" stroke="black" d="M861.28,-96.79C970.44,-86.05 1177.16,-64.06 1351.89,-36 1358.91,-34.87 1366.22,-33.62 1373.5,-32.32"/>
<polygon fill="black" stroke="black" points="1374.18,-35.76 1383.4,-30.53 1372.93,-28.87 1374.18,-35.76"/>
<text text-anchor="middle" x="1241.39" y="-57.8" font-family="Times New Roman,serif" font-size="14.00">0.02</text>
</g>
</g>
</svg>
