<?xml version="1.0" encoding="UTF-8" standalone="no"?>
<!DOCTYPE svg PUBLIC "-//W3C//DTD SVG 1.1//EN"
 "http://www.w3.org/Graphics/SVG/1.1/DTD/svg11.dtd">
<!-- Generated by graphviz version 2.44.1 (20200629.0800)
 -->
<!-- Title: test Pages: 1 -->
<svg width="1453pt" height="131pt"
 viewBox="0.00 0.00 1452.54 131.00" xmlns="http://www.w3.org/2000/svg" xmlns:xlink="http://www.w3.org/1999/xlink">
<g id="graph0" class="graph" transform="scale(1 1) rotate(0) translate(4 127)">
<title>test</title>
<polygon fill="white" stroke="transparent" points="-4,4 -4,-127 1448.54,-127 1448.54,4 -4,4"/>
<!-- 0 -->
<g id="node1" class="node">
<title>0</title>
<g id="a_node1"><a xlink:href="from_accountant.svg" xlink:title="accountant">
<ellipse fill="none" stroke="black" cx="625.44" cy="-105" rx="50.09" ry="18"/>
<text text-anchor="middle" x="625.44" y="-101.3" font-family="Times New Roman,serif" font-size="14.00">accountant</text>
</a>
</g>
</g>
<!-- 0&#45;&gt;0 -->
<g id="edge1" class="edge">
<title>0&#45;&gt;0</title>
<path fill="none" stroke="black" d="M670.59,-112.84C683.52,-112.54 693.49,-109.92 693.49,-105 693.49,-101.46 688.34,-99.12 680.64,-97.96"/>
<polygon fill="black" stroke="black" points="680.84,-94.47 670.59,-97.16 680.28,-101.45 680.84,-94.47"/>
<text text-anchor="middle" x="708.99" y="-101.3" font-family="Times New Roman,serif" font-size="14.00">0.528</text>
</g>
<!-- 1 -->
<g id="node2" class="node">
<title>1</title>
<g id="a_node2"><a xlink:href="from_financial manager.svg" xlink:title="financial manager">
<ellipse fill="none" stroke="black" cx="73.44" cy="-18" rx="73.39" ry="18"/>
<text text-anchor="middle" x="73.44" y="-14.3" font-family="Times New Roman,serif" font-size="14.00">financial manager</text>
</a>
</g>
</g>
<!-- 0&#45;&gt;1 -->
<g id="edge2" class="edge">
<title>0&#45;&gt;1</title>
<path fill="none" stroke="black" d="M578.48,-98.66C523.49,-92.26 429.71,-80.91 349.44,-69 262.93,-56.16 241.39,-52.21 155.44,-36 149.59,-34.89 143.5,-33.71 137.41,-32.49"/>
<polygon fill="black" stroke="black" points="137.7,-28.98 127.2,-30.43 136.31,-35.84 137.7,-28.98"/>
<text text-anchor="middle" x="364.94" y="-57.8" font-family="Times New Roman,serif" font-size="14.00">0.246</text>
</g>
<!-- 2 -->
<g id="node3" class="node">
<title>2</title>
<g id="a_node3"><a xlink:href="from_investment analyst.svg" xlink:title="investment analyst">
<ellipse fill="none" stroke="black" cx="241.44" cy="-18" rx="76.89" ry="18"/>
<text text-anchor="middle" x="241.44" y="-14.3" font-family="Times New Roman,serif" font-size="14.00">investment analyst</text>
</a>
</g>
</g>
<!-- 0&#45;&gt;2 -->
<g id="edge3" class="edge">
<title>0&#45;&gt;2</title>
<path fill="none" stroke="black" d="M581.92,-96.07C545.6,-89.32 492.53,-79.12 446.44,-69 397.19,-58.18 341.63,-44.54 300.79,-34.24"/>
<polygon fill="black" stroke="black" points="301.56,-30.83 291,-31.77 299.84,-37.61 301.56,-30.83"/>
<text text-anchor="middle" x="461.94" y="-57.8" font-family="Times New Roman,serif" font-size="14.00">0.091</text>
</g>
<!-- 3 -->
<g id="node4" class="node">
<title>3</title>
<g id="a_node4"><a xlink:href="from_it consultant.svg" xlink:title="it consultant">
<ellipse fill="none" stroke="black" cx="390.44" cy="-18" rx="54.69" ry="18"/>
<text text-anchor="middle" x="390.44" y="-14.3" font-family="Times New Roman,serif" font-size="14.00">it consultant</text>
</a>
</g>
</g>
<!-- 0&#45;&gt;3 -->
<g id="edge4" class="edge">
<title>0&#45;&gt;3</title>
<path fill="none" stroke="black" d="M589.34,-92.41C569.02,-85.78 543.23,-77.18 520.44,-69 491.31,-58.55 458.81,-46.05 433.59,-36.16"/>
<polygon fill="black" stroke="black" points="434.54,-32.77 423.96,-32.37 431.98,-39.29 434.54,-32.77"/>
<text text-anchor="middle" x="535.94" y="-57.8" font-family="Times New Roman,serif" font-size="14.00">0.049</text>
</g>
<!-- 4 -->
<g id="node5" class="node">
<title>4</title>
<g id="a_node5"><a xlink:href="from_auditor.svg" xlink:title="auditor">
<ellipse fill="none" stroke="black" cx="499.44" cy="-18" rx="36.29" ry="18"/>
<text text-anchor="middle" x="499.44" y="-14.3" font-family="Times New Roman,serif" font-size="14.00">auditor</text>
</a>
</g>
</g>
<!-- 0&#45;&gt;4 -->
<g id="edge5" class="edge">
<title>0&#45;&gt;4</title>
<path fill="none" stroke="black" d="M602.92,-88.8C582.17,-74.81 551.27,-53.96 528.64,-38.69"/>
<polygon fill="black" stroke="black" points="530.35,-35.63 520.1,-32.94 526.44,-41.43 530.35,-35.63"/>
<text text-anchor="middle" x="585.94" y="-57.8" font-family="Times New Roman,serif" font-size="14.00">0.035</text>
</g>
<!-- 5 -->
<g id="node6" class="node">
<title>5</title>
<g id="a_node6"><a xlink:href="from_heritage manager.svg" xlink:title="heritage manager">
<ellipse fill="none" stroke="black" cx="625.44" cy="-18" rx="71.49" ry="18"/>
<text text-anchor="middle" x="625.44" y="-14.3" font-family="Times New Roman,serif" font-size="14.00">heritage manager</text>
</a>
</g>
</g>
<!-- 0&#45;&gt;5 -->
<g id="edge6" class="edge">
<title>0&#45;&gt;5</title>
<path fill="none" stroke="black" d="M625.44,-86.8C625.44,-75.16 625.44,-59.55 625.44,-46.24"/>
<polygon fill="black" stroke="black" points="628.94,-46.18 625.44,-36.18 621.94,-46.18 628.94,-46.18"/>
<text text-anchor="middle" x="640.94" y="-57.8" font-family="Times New Roman,serif" font-size="14.00">0.035</text>
</g>
<!-- 6 -->
<g id="node7" class="node">
<title>6</title>
<g id="a_node7"><a xlink:href="from_catering manager.svg" xlink:title="catering manager">
<ellipse fill="none" stroke="black" cx="786.44" cy="-18" rx="71.49" ry="18"/>
<text text-anchor="middle" x="786.44" y="-14.3" font-family="Times New Roman,serif" font-size="14.00">catering manager</text>
</a>
</g>
</g>
<!-- 0&#45;&gt;6 -->
<g id="edge7" class="edge">
<title>0&#45;&gt;6</title>
<path fill="none" stroke="black" d="M652.39,-89.77C678.48,-76 718.31,-54.97 747.78,-39.41"/>
<polygon fill="black" stroke="black" points="749.74,-42.34 756.95,-34.57 746.47,-36.15 749.74,-42.34"/>
<text text-anchor="middle" x="731.94" y="-57.8" font-family="Times New Roman,serif" font-size="14.00">0.028</text>
</g>
<!-- 7 -->
<g id="node8" class="node">
<title>7</title>
<g id="a_node8"><a xlink:href="from_investment fund manager.svg" xlink:title="investment fund manager">
<ellipse fill="none" stroke="black" cx="976.44" cy="-18" rx="100.98" ry="18"/>
<text text-anchor="middle" x="976.44" y="-14.3" font-family="Times New Roman,serif" font-size="14.00">investment fund manager</text>
</a>
</g>
</g>
<!-- 0&#45;&gt;7 -->
<g id="edge8" class="edge">
<title>0&#45;&gt;7</title>
<path fill="none" stroke="black" d="M665.71,-94.25C725.21,-79.84 837.35,-52.68 909.39,-35.24"/>
<polygon fill="black" stroke="black" points="910.39,-38.6 919.28,-32.84 908.74,-31.79 910.39,-38.6"/>
<text text-anchor="middle" x="837.94" y="-57.8" font-family="Times New Roman,serif" font-size="14.00">0.028</text>
</g>
<!-- 8 -->
<g id="node9" class="node">
<title>8</title>
<g id="a_node9"><a xlink:href="from_pharmacovigilance officer.svg" xlink:title="pharmacovigilance officer">
<ellipse fill="none" stroke="black" cx="1199.44" cy="-18" rx="104.78" ry="18"/>
<text text-anchor="middle" x="1199.44" y="-14.3" font-family="Times New Roman,serif" font-size="14.00">pharmacovigilance officer</text>
</a>
</g>
</g>
<!-- 0&#45;&gt;8 -->
<g id="edge9" class="edge">
<title>0&#45;&gt;8</title>
<path fill="none" stroke="black" d="M670.93,-97.34C753.64,-85.21 934.21,-58.68 1086.44,-36 1095.23,-34.69 1104.41,-33.32 1113.56,-31.95"/>
<polygon fill="black" stroke="black" points="1114.1,-35.41 1123.47,-30.46 1113.06,-28.48 1114.1,-35.41"/>
<text text-anchor="middle" x="975.94" y="-57.8" font-family="Times New Roman,serif" font-size="14.00">0.028</text>
</g>
<!-- 9 -->
<g id="node10" class="node">
<title>9</title>
<g id="a_node10"><a xlink:href="from_sales manager.svg" xlink:title="sales manager">
<ellipse fill="none" stroke="black" cx="1383.44" cy="-18" rx="61.19" ry="18"/>
<text text-anchor="middle" x="1383.44" y="-14.3" font-family="Times New Roman,serif" font-size="14.00">sales manager</text>
</a>
</g>
</g>
<!-- 0&#45;&gt;9 -->
<g id="edge10" class="edge">
<title>0&#45;&gt;9</title>
<path fill="none" stroke="black" d="M674.99,-101.57C788.59,-95.45 1076.29,-76.91 1313.44,-36 1318.76,-35.08 1324.27,-33.99 1329.76,-32.81"/>
<polygon fill="black" stroke="black" points="1330.58,-36.22 1339.57,-30.61 1329.05,-29.39 1330.58,-36.22"/>
<text text-anchor="middle" x="1198.94" y="-57.8" font-family="Times New Roman,serif" font-size="14.00">0.028</text>
</g>
</g>
</svg>
