<?xml version="1.0" encoding="UTF-8" standalone="no"?>
<!DOCTYPE svg PUBLIC "-//W3C//DTD SVG 1.1//EN"
 "http://www.w3.org/Graphics/SVG/1.1/DTD/svg11.dtd">
<!-- Generated by graphviz version 2.44.1 (20200629.0800)
 -->
<!-- Title: health_and_safety_inspector Pages: 1 -->
<svg width="1587pt" height="131pt"
 viewBox="0.00 0.00 1587.13 131.00" xmlns="http://www.w3.org/2000/svg" xmlns:xlink="http://www.w3.org/1999/xlink">
<g id="graph0" class="graph" transform="scale(1 1) rotate(0) translate(4 127)">
<title>health_and_safety_inspector</title>
<polygon fill="white" stroke="transparent" points="-4,4 -4,-127 1583.13,-127 1583.13,4 -4,4"/>
<!-- 0 -->
<g id="node1" class="node">
<title>0</title>
<g id="a_node1"><a xlink:href="from_health and safety inspector.svg" xlink:title="health and safety inspector">
<ellipse fill="none" stroke="black" cx="782.44" cy="-105" rx="107.48" ry="18"/>
<text text-anchor="middle" x="782.44" y="-101.3" font-family="Times New Roman,serif" font-size="14.00">health and safety inspector</text>
</a>
</g>
</g>
<!-- 0&#45;&gt;0 -->
<g id="edge2" class="edge">
<title>0&#45;&gt;0</title>
<path fill="none" stroke="black" d="M880.63,-112.29C896.66,-111.24 907.68,-108.81 907.68,-105 907.68,-102.05 901.09,-99.93 890.69,-98.64"/>
<polygon fill="black" stroke="black" points="890.91,-95.14 880.63,-97.71 890.27,-102.11 890.91,-95.14"/>
<text text-anchor="middle" x="916.68" y="-101.3" font-family="Times New Roman,serif" font-size="14.00">0.1</text>
</g>
<!-- 1 -->
<g id="node2" class="node">
<title>1</title>
<g id="a_node2"><a xlink:href="from_health and safety adviser.svg" xlink:title="health and safety adviser">
<ellipse fill="none" stroke="black" cx="99.44" cy="-18" rx="99.38" ry="18"/>
<text text-anchor="middle" x="99.44" y="-14.3" font-family="Times New Roman,serif" font-size="14.00">health and safety adviser</text>
</a>
</g>
</g>
<!-- 0&#45;&gt;1 -->
<g id="edge1" class="edge">
<title>0&#45;&gt;1</title>
<path fill="none" stroke="black" d="M693.61,-94.86C580.49,-82.9 379.09,-60.57 207.44,-36 198.84,-34.77 189.86,-33.43 180.92,-32.07"/>
<polygon fill="black" stroke="black" points="181.27,-28.59 170.85,-30.53 180.21,-35.51 181.27,-28.59"/>
<text text-anchor="middle" x="475.94" y="-57.8" font-family="Times New Roman,serif" font-size="14.00">0.175</text>
</g>
<!-- 2 -->
<g id="node3" class="node">
<title>2</title>
<g id="a_node3"><a xlink:href="from_clinical research associate.svg" xlink:title="clinical research associate">
<ellipse fill="none" stroke="black" cx="320.44" cy="-18" rx="103.98" ry="18"/>
<text text-anchor="middle" x="320.44" y="-14.3" font-family="Times New Roman,serif" font-size="14.00">clinical research associate</text>
</a>
</g>
</g>
<!-- 0&#45;&gt;2 -->
<g id="edge3" class="edge">
<title>0&#45;&gt;2</title>
<path fill="none" stroke="black" d="M708.11,-91.91C668.65,-85.38 619.36,-77.02 575.44,-69 514.59,-57.89 445.78,-44.34 394.98,-34.15"/>
<polygon fill="black" stroke="black" points="395.56,-30.7 385.07,-32.16 394.18,-37.56 395.56,-30.7"/>
<text text-anchor="middle" x="587.94" y="-57.8" font-family="Times New Roman,serif" font-size="14.00">0.05</text>
</g>
<!-- 3 -->
<g id="node4" class="node">
<title>3</title>
<g id="a_node4"><a xlink:href="from_firefighter.svg" xlink:title="firefighter">
<ellipse fill="none" stroke="black" cx="487.44" cy="-18" rx="45.49" ry="18"/>
<text text-anchor="middle" x="487.44" y="-14.3" font-family="Times New Roman,serif" font-size="14.00">firefighter</text>
</a>
</g>
</g>
<!-- 0&#45;&gt;3 -->
<g id="edge4" class="edge">
<title>0&#45;&gt;3</title>
<path fill="none" stroke="black" d="M728.2,-89.39C705.4,-83.19 678.61,-75.83 654.44,-69 604.09,-54.77 591.51,-51.19 541.44,-36 538.14,-35 534.74,-33.95 531.31,-32.9"/>
<polygon fill="black" stroke="black" points="532.28,-29.53 521.69,-29.9 530.2,-36.21 532.28,-29.53"/>
<text text-anchor="middle" x="666.94" y="-57.8" font-family="Times New Roman,serif" font-size="14.00">0.05</text>
</g>
<!-- 4 -->
<g id="node5" class="node">
<title>4</title>
<g id="a_node5"><a xlink:href="from_it consultant.svg" xlink:title="it consultant">
<ellipse fill="none" stroke="black" cx="605.44" cy="-18" rx="54.69" ry="18"/>
<text text-anchor="middle" x="605.44" y="-14.3" font-family="Times New Roman,serif" font-size="14.00">it consultant</text>
</a>
</g>
</g>
<!-- 0&#45;&gt;4 -->
<g id="edge5" class="edge">
<title>0&#45;&gt;4</title>
<path fill="none" stroke="black" d="M748.73,-87.81C719.01,-73.54 675.69,-52.73 644.47,-37.74"/>
<polygon fill="black" stroke="black" points="645.73,-34.46 635.2,-33.29 642.7,-40.77 645.73,-34.46"/>
<text text-anchor="middle" x="717.94" y="-57.8" font-family="Times New Roman,serif" font-size="14.00">0.05</text>
</g>
<!-- 5 -->
<g id="node6" class="node">
<title>5</title>
<g id="a_node6"><a xlink:href="from_pharmacovigilance officer.svg" xlink:title="pharmacovigilance officer">
<ellipse fill="none" stroke="black" cx="782.44" cy="-18" rx="104.78" ry="18"/>
<text text-anchor="middle" x="782.44" y="-14.3" font-family="Times New Roman,serif" font-size="14.00">pharmacovigilance officer</text>
</a>
</g>
</g>
<!-- 0&#45;&gt;5 -->
<g id="edge6" class="edge">
<title>0&#45;&gt;5</title>
<path fill="none" stroke="black" d="M782.44,-86.8C782.44,-75.16 782.44,-59.55 782.44,-46.24"/>
<polygon fill="black" stroke="black" points="785.94,-46.18 782.44,-36.18 778.94,-46.18 785.94,-46.18"/>
<text text-anchor="middle" x="794.94" y="-57.8" font-family="Times New Roman,serif" font-size="14.00">0.05</text>
</g>
<!-- 6 -->
<g id="node7" class="node">
<title>6</title>
<g id="a_node7"><a xlink:href="from_planning technician.svg" xlink:title="planning technician">
<ellipse fill="none" stroke="black" cx="984.44" cy="-18" rx="79.09" ry="18"/>
<text text-anchor="middle" x="984.44" y="-14.3" font-family="Times New Roman,serif" font-size="14.00">planning technician</text>
</a>
</g>
</g>
<!-- 0&#45;&gt;6 -->
<g id="edge7" class="edge">
<title>0&#45;&gt;6</title>
<path fill="none" stroke="black" d="M820.44,-88.01C854.11,-73.84 903.35,-53.12 939.08,-38.09"/>
<polygon fill="black" stroke="black" points="940.46,-41.31 948.31,-34.2 937.74,-34.85 940.46,-41.31"/>
<text text-anchor="middle" x="908.94" y="-57.8" font-family="Times New Roman,serif" font-size="14.00">0.05</text>
</g>
<!-- 7 -->
<g id="node8" class="node">
<title>7</title>
<g id="a_node8"><a xlink:href="from_regulatory affairs officer.svg" xlink:title="regulatory affairs officer">
<ellipse fill="none" stroke="black" cx="1179.44" cy="-18" rx="98.28" ry="18"/>
<text text-anchor="middle" x="1179.44" y="-14.3" font-family="Times New Roman,serif" font-size="14.00">regulatory affairs officer</text>
</a>
</g>
</g>
<!-- 0&#45;&gt;7 -->
<g id="edge8" class="edge">
<title>0&#45;&gt;7</title>
<path fill="none" stroke="black" d="M845.79,-90.44C917.44,-75.1 1033.83,-50.18 1108.48,-34.19"/>
<polygon fill="black" stroke="black" points="1109.23,-37.61 1118.28,-32.1 1107.77,-30.77 1109.23,-37.61"/>
<text text-anchor="middle" x="1017.94" y="-57.8" font-family="Times New Roman,serif" font-size="14.00">0.05</text>
</g>
<!-- 8 -->
<g id="node9" class="node">
<title>8</title>
<g id="a_node9"><a xlink:href="from_site manager.svg" xlink:title="site manager">
<ellipse fill="none" stroke="black" cx="1351.44" cy="-18" rx="55.79" ry="18"/>
<text text-anchor="middle" x="1351.44" y="-14.3" font-family="Times New Roman,serif" font-size="14.00">site manager</text>
</a>
</g>
</g>
<!-- 0&#45;&gt;8 -->
<g id="edge9" class="edge">
<title>0&#45;&gt;8</title>
<path fill="none" stroke="black" d="M872.66,-95.18C973.93,-84.5 1142.87,-64.35 1286.44,-36 1291.13,-35.07 1295.98,-34.01 1300.83,-32.87"/>
<polygon fill="black" stroke="black" points="1301.82,-36.23 1310.7,-30.46 1300.16,-29.43 1301.82,-36.23"/>
<text text-anchor="middle" x="1189.94" y="-57.8" font-family="Times New Roman,serif" font-size="14.00">0.05</text>
</g>
<!-- 9 -->
<g id="node10" class="node">
<title>9</title>
<g id="a_node10"><a xlink:href="from_structural engineer.svg" xlink:title="structural engineer">
<ellipse fill="none" stroke="black" cx="1502.44" cy="-18" rx="76.89" ry="18"/>
<text text-anchor="middle" x="1502.44" y="-14.3" font-family="Times New Roman,serif" font-size="14.00">structural engineer</text>
</a>
</g>
</g>
<!-- 0&#45;&gt;9 -->
<g id="edge10" class="edge">
<title>0&#45;&gt;9</title>
<path fill="none" stroke="black" d="M881.17,-97.91C967.24,-92.11 1095.33,-82.3 1206.44,-69 1300.25,-57.77 1323.41,-52.5 1416.44,-36 1422.99,-34.84 1429.8,-33.58 1436.6,-32.29"/>
<polygon fill="black" stroke="black" points="1437.36,-35.71 1446.53,-30.38 1436.04,-28.83 1437.36,-35.71"/>
<text text-anchor="middle" x="1324.94" y="-57.8" font-family="Times New Roman,serif" font-size="14.00">0.05</text>
</g>
</g>
</svg>
