<?xml version="1.0" encoding="UTF-8" standalone="no"?>
<!DOCTYPE svg PUBLIC "-//W3C//DTD SVG 1.1//EN"
 "http://www.w3.org/Graphics/SVG/1.1/DTD/svg11.dtd">
<!-- Generated by graphviz version 2.44.1 (20200629.0800)
 -->
<!-- Title: programme_researcher Pages: 1 -->
<svg width="1431pt" height="131pt"
 viewBox="0.00 0.00 1430.69 131.00" xmlns="http://www.w3.org/2000/svg" xmlns:xlink="http://www.w3.org/1999/xlink">
<g id="graph0" class="graph" transform="scale(1 1) rotate(0) translate(4 127)">
<title>programme_researcher</title>
<polygon fill="white" stroke="transparent" points="-4,4 -4,-127 1426.69,-127 1426.69,4 -4,4"/>
<!-- 0 -->
<g id="node1" class="node">
<title>0</title>
<g id="a_node1"><a xlink:href="from_programme researcher.svg" xlink:title="programme researcher">
<ellipse fill="none" stroke="black" cx="774.89" cy="-105" rx="91.78" ry="18"/>
<text text-anchor="middle" x="774.89" y="-101.3" font-family="Times New Roman,serif" font-size="14.00">programme researcher</text>
</a>
</g>
</g>
<!-- 0&#45;&gt;0 -->
<g id="edge1" class="edge">
<title>0&#45;&gt;0</title>
<path fill="none" stroke="black" d="M858.55,-112.44C873.82,-111.5 884.54,-109.02 884.54,-105 884.54,-101.95 878.38,-99.79 868.76,-98.51"/>
<polygon fill="black" stroke="black" points="868.83,-95 858.55,-97.56 868.18,-101.97 868.83,-95"/>
<text text-anchor="middle" x="900.04" y="-101.3" font-family="Times New Roman,serif" font-size="14.00">0.170</text>
</g>
<!-- 1 -->
<g id="node2" class="node">
<title>1</title>
<g id="a_node2"><a xlink:href="from_project manager.svg" xlink:title="project manager">
<ellipse fill="none" stroke="black" cx="68.89" cy="-18" rx="68.79" ry="18"/>
<text text-anchor="middle" x="68.89" y="-14.3" font-family="Times New Roman,serif" font-size="14.00">project manager</text>
</a>
</g>
</g>
<!-- 0&#45;&gt;1 -->
<g id="edge2" class="edge">
<title>0&#45;&gt;1</title>
<path fill="none" stroke="black" d="M688.41,-98.95C602,-93.43 465.47,-83.4 347.89,-69 257.6,-57.94 235.23,-53.15 145.89,-36 140.43,-34.95 134.76,-33.81 129.09,-32.63"/>
<polygon fill="black" stroke="black" points="129.44,-29.12 118.93,-30.47 127.98,-35.97 129.44,-29.12"/>
<text text-anchor="middle" x="363.39" y="-57.8" font-family="Times New Roman,serif" font-size="14.00">0.156</text>
</g>
<!-- 2 -->
<g id="node3" class="node">
<title>2</title>
<g id="a_node3"><a xlink:href="from_it consultant.svg" xlink:title="it consultant">
<ellipse fill="none" stroke="black" cx="209.89" cy="-18" rx="54.69" ry="18"/>
<text text-anchor="middle" x="209.89" y="-14.3" font-family="Times New Roman,serif" font-size="14.00">it consultant</text>
</a>
</g>
</g>
<!-- 0&#45;&gt;2 -->
<g id="edge3" class="edge">
<title>0&#45;&gt;2</title>
<path fill="none" stroke="black" d="M694.54,-96.29C595.14,-86.02 421.04,-65.63 273.89,-36 269.21,-35.06 264.36,-33.97 259.52,-32.82"/>
<polygon fill="black" stroke="black" points="260.21,-29.38 249.66,-30.37 258.52,-36.17 260.21,-29.38"/>
<text text-anchor="middle" x="481.39" y="-57.8" font-family="Times New Roman,serif" font-size="14.00">0.040</text>
</g>
<!-- 3 -->
<g id="node4" class="node">
<title>3</title>
<g id="a_node4"><a xlink:href="from_production manager.svg" xlink:title="production manager">
<ellipse fill="none" stroke="black" cx="365.89" cy="-18" rx="83.39" ry="18"/>
<text text-anchor="middle" x="365.89" y="-14.3" font-family="Times New Roman,serif" font-size="14.00">production manager</text>
</a>
</g>
</g>
<!-- 0&#45;&gt;3 -->
<g id="edge4" class="edge">
<title>0&#45;&gt;3</title>
<path fill="none" stroke="black" d="M714.1,-91.37C639.14,-75.79 512.08,-49.38 433.93,-33.14"/>
<polygon fill="black" stroke="black" points="434.21,-29.62 423.71,-31.02 432.79,-36.48 434.21,-29.62"/>
<text text-anchor="middle" x="610.39" y="-57.8" font-family="Times New Roman,serif" font-size="14.00">0.040</text>
</g>
<!-- 4 -->
<g id="node5" class="node">
<title>4</title>
<g id="a_node5"><a xlink:href="from_pharmacovigilance officer.svg" xlink:title="pharmacovigilance officer">
<ellipse fill="none" stroke="black" cx="571.89" cy="-18" rx="104.78" ry="18"/>
<text text-anchor="middle" x="571.89" y="-14.3" font-family="Times New Roman,serif" font-size="14.00">pharmacovigilance officer</text>
</a>
</g>
</g>
<!-- 0&#45;&gt;4 -->
<g id="edge5" class="edge">
<title>0&#45;&gt;4</title>
<path fill="none" stroke="black" d="M737.66,-88.41C704.35,-74.46 655.36,-53.95 619.27,-38.84"/>
<polygon fill="black" stroke="black" points="620.5,-35.56 609.92,-34.92 617.8,-42.01 620.5,-35.56"/>
<text text-anchor="middle" x="701.39" y="-57.8" font-family="Times New Roman,serif" font-size="14.00">0.037</text>
</g>
<!-- 5 -->
<g id="node6" class="node">
<title>5</title>
<g id="a_node6"><a xlink:href="from_software developer.svg" xlink:title="software developer">
<ellipse fill="none" stroke="black" cx="774.89" cy="-18" rx="79.89" ry="18"/>
<text text-anchor="middle" x="774.89" y="-14.3" font-family="Times New Roman,serif" font-size="14.00">software developer</text>
</a>
</g>
</g>
<!-- 0&#45;&gt;5 -->
<g id="edge6" class="edge">
<title>0&#45;&gt;5</title>
<path fill="none" stroke="black" d="M774.89,-86.8C774.89,-75.16 774.89,-59.55 774.89,-46.24"/>
<polygon fill="black" stroke="black" points="778.39,-46.18 774.89,-36.18 771.39,-46.18 778.39,-46.18"/>
<text text-anchor="middle" x="790.39" y="-57.8" font-family="Times New Roman,serif" font-size="14.00">0.034</text>
</g>
<!-- 6 -->
<g id="node7" class="node">
<title>6</title>
<g id="a_node7"><a xlink:href="from_lecturer.svg" xlink:title="lecturer">
<ellipse fill="none" stroke="black" cx="910.89" cy="-18" rx="37.89" ry="18"/>
<text text-anchor="middle" x="910.89" y="-14.3" font-family="Times New Roman,serif" font-size="14.00">lecturer</text>
</a>
</g>
</g>
<!-- 0&#45;&gt;6 -->
<g id="edge7" class="edge">
<title>0&#45;&gt;6</title>
<path fill="none" stroke="black" d="M801.12,-87.61C823.7,-73.49 856.33,-53.1 880.14,-38.22"/>
<polygon fill="black" stroke="black" points="882.17,-41.08 888.8,-32.81 878.46,-35.14 882.17,-41.08"/>
<text text-anchor="middle" x="867.39" y="-57.8" font-family="Times New Roman,serif" font-size="14.00">0.030</text>
</g>
<!-- 7 -->
<g id="node8" class="node">
<title>7</title>
<g id="a_node8"><a xlink:href="from_office manager.svg" xlink:title="office manager">
<ellipse fill="none" stroke="black" cx="1030.89" cy="-18" rx="64.19" ry="18"/>
<text text-anchor="middle" x="1030.89" y="-14.3" font-family="Times New Roman,serif" font-size="14.00">office manager</text>
</a>
</g>
</g>
<!-- 0&#45;&gt;7 -->
<g id="edge8" class="edge">
<title>0&#45;&gt;7</title>
<path fill="none" stroke="black" d="M822.41,-89.51C842.37,-83.33 865.81,-75.95 886.89,-69 919.16,-58.36 955.27,-45.82 983.26,-35.96"/>
<polygon fill="black" stroke="black" points="984.54,-39.22 992.8,-32.59 982.21,-32.62 984.54,-39.22"/>
<text text-anchor="middle" x="946.39" y="-57.8" font-family="Times New Roman,serif" font-size="14.00">0.023</text>
</g>
<!-- 8 -->
<g id="node9" class="node">
<title>8</title>
<g id="a_node9"><a xlink:href="from_research scientist.svg" xlink:title="research scientist">
<ellipse fill="none" stroke="black" cx="1185.89" cy="-18" rx="72.59" ry="18"/>
<text text-anchor="middle" x="1185.89" y="-14.3" font-family="Times New Roman,serif" font-size="14.00">research scientist</text>
</a>
</g>
</g>
<!-- 0&#45;&gt;8 -->
<g id="edge9" class="edge">
<title>0&#45;&gt;8</title>
<path fill="none" stroke="black" d="M841.32,-92.54C878.11,-86.01 924.61,-77.47 965.89,-69 1020,-57.9 1081.25,-43.86 1125.36,-33.48"/>
<polygon fill="black" stroke="black" points="1126.42,-36.83 1135.34,-31.13 1124.81,-30.02 1126.42,-36.83"/>
<text text-anchor="middle" x="1048.39" y="-57.8" font-family="Times New Roman,serif" font-size="14.00">0.023</text>
</g>
<!-- 9 -->
<g id="node10" class="node">
<title>9</title>
<g id="a_node10"><a xlink:href="from_facilities manager.svg" xlink:title="facilities manager">
<ellipse fill="none" stroke="black" cx="1349.89" cy="-18" rx="72.59" ry="18"/>
<text text-anchor="middle" x="1349.89" y="-14.3" font-family="Times New Roman,serif" font-size="14.00">facilities manager</text>
</a>
</g>
</g>
<!-- 0&#45;&gt;9 -->
<g id="edge10" class="edge">
<title>0&#45;&gt;9</title>
<path fill="none" stroke="black" d="M853.37,-95.59C912.44,-89.02 995.36,-79.31 1067.89,-69 1157.09,-56.32 1179.32,-52.48 1267.89,-36 1273.99,-34.87 1280.33,-33.64 1286.67,-32.38"/>
<polygon fill="black" stroke="black" points="1287.47,-35.79 1296.58,-30.38 1286.09,-28.92 1287.47,-35.79"/>
<text text-anchor="middle" x="1180.39" y="-57.8" font-family="Times New Roman,serif" font-size="14.00">0.017</text>
</g>
</g>
</svg>
