<?xml version="1.0" encoding="UTF-8" standalone="no"?>
<!DOCTYPE svg PUBLIC "-//W3C//DTD SVG 1.1//EN"
 "http://www.w3.org/Graphics/SVG/1.1/DTD/svg11.dtd">
<!-- Generated by graphviz version 2.44.1 (20200629.0800)
 -->
<!-- Title: social_worker Pages: 1 -->
<svg width="1394pt" height="131pt"
 viewBox="0.00 0.00 1394.43 131.00" xmlns="http://www.w3.org/2000/svg" xmlns:xlink="http://www.w3.org/1999/xlink">
<g id="graph0" class="graph" transform="scale(1 1) rotate(0) translate(4 127)">
<title>social_worker</title>
<polygon fill="white" stroke="transparent" points="-4,4 -4,-127 1390.43,-127 1390.43,4 -4,4"/>
<!-- 0 -->
<g id="node1" class="node">
<title>0</title>
<g id="a_node1"><a xlink:href="from_social worker.svg" xlink:title="social worker">
<ellipse fill="none" stroke="black" cx="622.79" cy="-105" rx="59.59" ry="18"/>
<text text-anchor="middle" x="622.79" y="-101.3" font-family="Times New Roman,serif" font-size="14.00">social worker</text>
</a>
</g>
</g>
<!-- 0&#45;&gt;0 -->
<g id="edge1" class="edge">
<title>0&#45;&gt;0</title>
<path fill="none" stroke="black" d="M676.96,-112.77C690.48,-112.22 700.59,-109.63 700.59,-105 700.59,-101.63 695.25,-99.35 687.15,-98.14"/>
<polygon fill="black" stroke="black" points="687.23,-94.63 676.96,-97.23 686.62,-101.6 687.23,-94.63"/>
<text text-anchor="middle" x="716.09" y="-101.3" font-family="Times New Roman,serif" font-size="14.00">0.235</text>
</g>
<!-- 1 -->
<g id="node2" class="node">
<title>1</title>
<g id="a_node2"><a xlink:href="from_research scientist.svg" xlink:title="research scientist">
<ellipse fill="none" stroke="black" cx="72.79" cy="-18" rx="72.59" ry="18"/>
<text text-anchor="middle" x="72.79" y="-14.3" font-family="Times New Roman,serif" font-size="14.00">research scientist</text>
</a>
</g>
</g>
<!-- 0&#45;&gt;1 -->
<g id="edge2" class="edge">
<title>0&#45;&gt;1</title>
<path fill="none" stroke="black" d="M565.41,-99.81C500.08,-94.58 390.31,-84.41 296.79,-69 240.14,-59.67 176.29,-45 131.3,-33.96"/>
<polygon fill="black" stroke="black" points="131.97,-30.52 121.42,-31.52 130.29,-37.31 131.97,-30.52"/>
<text text-anchor="middle" x="312.29" y="-57.8" font-family="Times New Roman,serif" font-size="14.00">0.117</text>
</g>
<!-- 2 -->
<g id="node3" class="node">
<title>2</title>
<g id="a_node3"><a xlink:href="from_aid worker.svg" xlink:title="aid worker">
<ellipse fill="none" stroke="black" cx="212.79" cy="-18" rx="49.29" ry="18"/>
<text text-anchor="middle" x="212.79" y="-14.3" font-family="Times New Roman,serif" font-size="14.00">aid worker</text>
</a>
</g>
</g>
<!-- 0&#45;&gt;2 -->
<g id="edge3" class="edge">
<title>0&#45;&gt;2</title>
<path fill="none" stroke="black" d="M567.6,-97.71C519.96,-91.81 449.45,-81.97 388.79,-69 335.54,-57.62 323.15,-50.99 270.79,-36 267.2,-34.97 263.49,-33.9 259.76,-32.82"/>
<polygon fill="black" stroke="black" points="260.48,-29.38 249.9,-29.95 258.53,-36.11 260.48,-29.38"/>
<text text-anchor="middle" x="404.29" y="-57.8" font-family="Times New Roman,serif" font-size="14.00">0.058</text>
</g>
<!-- 3 -->
<g id="node4" class="node">
<title>3</title>
<g id="a_node4"><a xlink:href="from_doctor.svg" xlink:title="doctor">
<ellipse fill="none" stroke="black" cx="314.79" cy="-18" rx="35.19" ry="18"/>
<text text-anchor="middle" x="314.79" y="-14.3" font-family="Times New Roman,serif" font-size="14.00">doctor</text>
</a>
</g>
</g>
<!-- 0&#45;&gt;3 -->
<g id="edge4" class="edge">
<title>0&#45;&gt;3</title>
<path fill="none" stroke="black" d="M576.07,-93.71C522.93,-81.6 433.83,-60.08 358.79,-36 356.25,-35.18 353.64,-34.3 351.02,-33.38"/>
<polygon fill="black" stroke="black" points="352.2,-30.08 341.61,-29.93 349.8,-36.66 352.2,-30.08"/>
<text text-anchor="middle" x="490.29" y="-57.8" font-family="Times New Roman,serif" font-size="14.00">0.058</text>
</g>
<!-- 4 -->
<g id="node5" class="node">
<title>4</title>
<g id="a_node5"><a xlink:href="from_facilities manager.svg" xlink:title="facilities manager">
<ellipse fill="none" stroke="black" cx="440.79" cy="-18" rx="72.59" ry="18"/>
<text text-anchor="middle" x="440.79" y="-14.3" font-family="Times New Roman,serif" font-size="14.00">facilities manager</text>
</a>
</g>
</g>
<!-- 0&#45;&gt;4 -->
<g id="edge5" class="edge">
<title>0&#45;&gt;4</title>
<path fill="none" stroke="black" d="M591.92,-89.58C561.92,-75.57 516.14,-54.19 482.83,-38.63"/>
<polygon fill="black" stroke="black" points="483.9,-35.27 473.36,-34.21 480.94,-41.61 483.9,-35.27"/>
<text text-anchor="middle" x="558.29" y="-57.8" font-family="Times New Roman,serif" font-size="14.00">0.058</text>
</g>
<!-- 5 -->
<g id="node6" class="node">
<title>5</title>
<g id="a_node6"><a xlink:href="from_leisure centre manager.svg" xlink:title="leisure centre manager">
<ellipse fill="none" stroke="black" cx="622.79" cy="-18" rx="90.98" ry="18"/>
<text text-anchor="middle" x="622.79" y="-14.3" font-family="Times New Roman,serif" font-size="14.00">leisure centre manager</text>
</a>
</g>
</g>
<!-- 0&#45;&gt;5 -->
<g id="edge6" class="edge">
<title>0&#45;&gt;5</title>
<path fill="none" stroke="black" d="M622.79,-86.8C622.79,-75.16 622.79,-59.55 622.79,-46.24"/>
<polygon fill="black" stroke="black" points="626.29,-46.18 622.79,-36.18 619.29,-46.18 626.29,-46.18"/>
<text text-anchor="middle" x="638.29" y="-57.8" font-family="Times New Roman,serif" font-size="14.00">0.058</text>
</g>
<!-- 6 -->
<g id="node7" class="node">
<title>6</title>
<g id="a_node7"><a xlink:href="from_market research analyst.svg" xlink:title="market research analyst">
<ellipse fill="none" stroke="black" cx="826.79" cy="-18" rx="94.78" ry="18"/>
<text text-anchor="middle" x="826.79" y="-14.3" font-family="Times New Roman,serif" font-size="14.00">market research analyst</text>
</a>
</g>
</g>
<!-- 0&#45;&gt;6 -->
<g id="edge7" class="edge">
<title>0&#45;&gt;6</title>
<path fill="none" stroke="black" d="M656.48,-89.96C690.18,-75.92 742.28,-54.21 779.99,-38.5"/>
<polygon fill="black" stroke="black" points="781.36,-41.72 789.25,-34.64 778.67,-35.26 781.36,-41.72"/>
<text text-anchor="middle" x="753.29" y="-57.8" font-family="Times New Roman,serif" font-size="14.00">0.058</text>
</g>
<!-- 7 -->
<g id="node8" class="node">
<title>7</title>
<g id="a_node8"><a xlink:href="from_media planner.svg" xlink:title="media planner">
<ellipse fill="none" stroke="black" cx="1000.79" cy="-18" rx="61.19" ry="18"/>
<text text-anchor="middle" x="1000.79" y="-14.3" font-family="Times New Roman,serif" font-size="14.00">media planner</text>
</a>
</g>
</g>
<!-- 0&#45;&gt;7 -->
<g id="edge8" class="edge">
<title>0&#45;&gt;7</title>
<path fill="none" stroke="black" d="M670.09,-93.88C730.61,-80.86 838.64,-57.36 930.79,-36 935.5,-34.91 940.37,-33.76 945.26,-32.6"/>
<polygon fill="black" stroke="black" points="946.35,-35.94 955.26,-30.2 944.72,-29.13 946.35,-35.94"/>
<text text-anchor="middle" x="862.29" y="-57.8" font-family="Times New Roman,serif" font-size="14.00">0.058</text>
</g>
<!-- 8 -->
<g id="node9" class="node">
<title>8</title>
<g id="a_node9"><a xlink:href="from_midwife.svg" xlink:title="midwife">
<ellipse fill="none" stroke="black" cx="1119.79" cy="-18" rx="39.79" ry="18"/>
<text text-anchor="middle" x="1119.79" y="-14.3" font-family="Times New Roman,serif" font-size="14.00">midwife</text>
</a>
</g>
</g>
<!-- 0&#45;&gt;8 -->
<g id="edge9" class="edge">
<title>0&#45;&gt;8</title>
<path fill="none" stroke="black" d="M679.42,-99.17C765.15,-91.02 932.57,-71.8 1070.79,-36 1073.98,-35.18 1077.25,-34.24 1080.51,-33.24"/>
<polygon fill="black" stroke="black" points="1081.78,-36.51 1090.23,-30.12 1079.64,-29.85 1081.78,-36.51"/>
<text text-anchor="middle" x="1002.29" y="-57.8" font-family="Times New Roman,serif" font-size="14.00">0.058</text>
</g>
<!-- 9 -->
<g id="node10" class="node">
<title>9</title>
<g id="a_node10"><a xlink:href="from_museum exhibition officer.svg" xlink:title="museum exhibition officer">
<ellipse fill="none" stroke="black" cx="1281.79" cy="-18" rx="104.78" ry="18"/>
<text text-anchor="middle" x="1281.79" y="-14.3" font-family="Times New Roman,serif" font-size="14.00">museum exhibition officer</text>
</a>
</g>
</g>
<!-- 0&#45;&gt;9 -->
<g id="edge10" class="edge">
<title>0&#45;&gt;9</title>
<path fill="none" stroke="black" d="M681.15,-100.76C759.07,-96.01 901.27,-85.83 1021.79,-69 1086.05,-60.03 1158.49,-45.75 1210.56,-34.74"/>
<polygon fill="black" stroke="black" points="1211.31,-38.16 1220.36,-32.66 1209.85,-31.31 1211.31,-38.16"/>
<text text-anchor="middle" x="1124.29" y="-57.8" font-family="Times New Roman,serif" font-size="14.00">0.058</text>
</g>
</g>
</svg>
