<?xml version="1.0" encoding="UTF-8" standalone="no"?>
<!DOCTYPE svg PUBLIC "-//W3C//DTD SVG 1.1//EN"
 "http://www.w3.org/Graphics/SVG/1.1/DTD/svg11.dtd">
<!-- Generated by graphviz version 2.44.1 (20200629.0800)
 -->
<!-- Title: animator Pages: 1 -->
<svg width="1450pt" height="131pt"
 viewBox="0.00 0.00 1449.89 131.00" xmlns="http://www.w3.org/2000/svg" xmlns:xlink="http://www.w3.org/1999/xlink">
<g id="graph0" class="graph" transform="scale(1 1) rotate(0) translate(4 127)">
<title>animator</title>
<polygon fill="white" stroke="transparent" points="-4,4 -4,-127 1445.89,-127 1445.89,4 -4,4"/>
<!-- 0 -->
<g id="node1" class="node">
<title>0</title>
<g id="a_node1"><a xlink:href="from_animator.svg" xlink:title="animator">
<ellipse fill="none" stroke="black" cx="784.19" cy="-105" rx="42.49" ry="18"/>
<text text-anchor="middle" x="784.19" y="-101.3" font-family="Times New Roman,serif" font-size="14.00">animator</text>
</a>
</g>
</g>
<!-- 0&#45;&gt;0 -->
<g id="edge1" class="edge">
<title>0&#45;&gt;0</title>
<path fill="none" stroke="black" d="M822.43,-112.87C834.71,-112.79 844.44,-110.17 844.44,-105 844.44,-101.37 839.63,-98.99 832.51,-97.87"/>
<polygon fill="black" stroke="black" points="832.66,-94.37 822.43,-97.13 832.15,-101.35 832.66,-94.37"/>
<text text-anchor="middle" x="859.94" y="-101.3" font-family="Times New Roman,serif" font-size="14.00">0.391</text>
</g>
<!-- 1 -->
<g id="node2" class="node">
<title>1</title>
<g id="a_node2"><a xlink:href="from_graphic designer.svg" xlink:title="graphic designer">
<ellipse fill="none" stroke="black" cx="70.19" cy="-18" rx="70.39" ry="18"/>
<text text-anchor="middle" x="70.19" y="-14.3" font-family="Times New Roman,serif" font-size="14.00">graphic designer</text>
</a>
</g>
</g>
<!-- 0&#45;&gt;1 -->
<g id="edge2" class="edge">
<title>0&#45;&gt;1</title>
<path fill="none" stroke="black" d="M742.76,-101.08C641.16,-93.6 371.69,-71.75 149.19,-36 143.1,-35.02 136.77,-33.88 130.47,-32.65"/>
<polygon fill="black" stroke="black" points="131.11,-29.21 120.62,-30.68 129.73,-36.08 131.11,-29.21"/>
<text text-anchor="middle" x="408.69" y="-57.8" font-family="Times New Roman,serif" font-size="14.00">0.130</text>
</g>
<!-- 2 -->
<g id="node3" class="node">
<title>2</title>
<g id="a_node3"><a xlink:href="from_pharmacovigilance officer.svg" xlink:title="pharmacovigilance officer">
<ellipse fill="none" stroke="black" cx="263.19" cy="-18" rx="104.78" ry="18"/>
<text text-anchor="middle" x="263.19" y="-14.3" font-family="Times New Roman,serif" font-size="14.00">pharmacovigilance officer</text>
</a>
</g>
</g>
<!-- 0&#45;&gt;2 -->
<g id="edge3" class="edge">
<title>0&#45;&gt;2</title>
<path fill="none" stroke="black" d="M745.46,-97.68C661.45,-83.97 460.86,-51.25 346.6,-32.61"/>
<polygon fill="black" stroke="black" points="346.93,-29.12 336.5,-30.96 345.81,-36.02 346.93,-29.12"/>
<text text-anchor="middle" x="570.69" y="-57.8" font-family="Times New Roman,serif" font-size="14.00">0.130</text>
</g>
<!-- 3 -->
<g id="node4" class="node">
<title>3</title>
<g id="a_node4"><a xlink:href="from_production manager.svg" xlink:title="production manager">
<ellipse fill="none" stroke="black" cx="469.19" cy="-18" rx="83.39" ry="18"/>
<text text-anchor="middle" x="469.19" y="-14.3" font-family="Times New Roman,serif" font-size="14.00">production manager</text>
</a>
</g>
</g>
<!-- 0&#45;&gt;3 -->
<g id="edge4" class="edge">
<title>0&#45;&gt;3</title>
<path fill="none" stroke="black" d="M749.58,-94.66C696.45,-80.32 594.11,-52.71 528.86,-35.1"/>
<polygon fill="black" stroke="black" points="529.68,-31.7 519.12,-32.47 527.86,-38.46 529.68,-31.7"/>
<text text-anchor="middle" x="661.69" y="-57.8" font-family="Times New Roman,serif" font-size="14.00">0.086</text>
</g>
<!-- 4 -->
<g id="node5" class="node">
<title>4</title>
<g id="a_node5"><a xlink:href="from_software developer.svg" xlink:title="software developer">
<ellipse fill="none" stroke="black" cx="650.19" cy="-18" rx="79.89" ry="18"/>
<text text-anchor="middle" x="650.19" y="-14.3" font-family="Times New Roman,serif" font-size="14.00">software developer</text>
</a>
</g>
</g>
<!-- 0&#45;&gt;4 -->
<g id="edge5" class="edge">
<title>0&#45;&gt;4</title>
<path fill="none" stroke="black" d="M761.46,-89.58C740.31,-76.17 708.52,-56 684.32,-40.65"/>
<polygon fill="black" stroke="black" points="686.1,-37.63 675.79,-35.23 682.35,-43.55 686.1,-37.63"/>
<text text-anchor="middle" x="741.69" y="-57.8" font-family="Times New Roman,serif" font-size="14.00">0.086</text>
</g>
<!-- 5 -->
<g id="node6" class="node">
<title>5</title>
<g id="a_node6"><a xlink:href="from_auditor.svg" xlink:title="auditor">
<ellipse fill="none" stroke="black" cx="784.19" cy="-18" rx="36.29" ry="18"/>
<text text-anchor="middle" x="784.19" y="-14.3" font-family="Times New Roman,serif" font-size="14.00">auditor</text>
</a>
</g>
</g>
<!-- 0&#45;&gt;5 -->
<g id="edge6" class="edge">
<title>0&#45;&gt;5</title>
<path fill="none" stroke="black" d="M784.19,-86.8C784.19,-75.16 784.19,-59.55 784.19,-46.24"/>
<polygon fill="black" stroke="black" points="787.69,-46.18 784.19,-36.18 780.69,-46.18 787.69,-46.18"/>
<text text-anchor="middle" x="799.69" y="-57.8" font-family="Times New Roman,serif" font-size="14.00">0.043</text>
</g>
<!-- 6 -->
<g id="node7" class="node">
<title>6</title>
<g id="a_node7"><a xlink:href="from_broadcasting presenter.svg" xlink:title="broadcasting presenter">
<ellipse fill="none" stroke="black" cx="931.19" cy="-18" rx="92.88" ry="18"/>
<text text-anchor="middle" x="931.19" y="-14.3" font-family="Times New Roman,serif" font-size="14.00">broadcasting presenter</text>
</a>
</g>
</g>
<!-- 0&#45;&gt;6 -->
<g id="edge7" class="edge">
<title>0&#45;&gt;6</title>
<path fill="none" stroke="black" d="M808.14,-90.15C831.46,-76.67 867.23,-55.99 894.2,-40.39"/>
<polygon fill="black" stroke="black" points="896.08,-43.35 902.98,-35.31 892.57,-37.29 896.08,-43.35"/>
<text text-anchor="middle" x="882.69" y="-57.8" font-family="Times New Roman,serif" font-size="14.00">0.043</text>
</g>
<!-- 7 -->
<g id="node8" class="node">
<title>7</title>
<g id="a_node8"><a xlink:href="from_careers adviser.svg" xlink:title="careers adviser">
<ellipse fill="none" stroke="black" cx="1107.19" cy="-18" rx="64.99" ry="18"/>
<text text-anchor="middle" x="1107.19" y="-14.3" font-family="Times New Roman,serif" font-size="14.00">careers adviser</text>
</a>
</g>
</g>
<!-- 0&#45;&gt;7 -->
<g id="edge8" class="edge">
<title>0&#45;&gt;7</title>
<path fill="none" stroke="black" d="M819.07,-94.82C875,-80.1 985.25,-51.09 1051.97,-33.53"/>
<polygon fill="black" stroke="black" points="1053.11,-36.85 1061.89,-30.92 1051.33,-30.08 1053.11,-36.85"/>
<text text-anchor="middle" x="980.69" y="-57.8" font-family="Times New Roman,serif" font-size="14.00">0.043</text>
</g>
<!-- 8 -->
<g id="node9" class="node">
<title>8</title>
<g id="a_node9"><a xlink:href="from_community worker.svg" xlink:title="community worker">
<ellipse fill="none" stroke="black" cx="1269.19" cy="-18" rx="79.09" ry="18"/>
<text text-anchor="middle" x="1269.19" y="-14.3" font-family="Times New Roman,serif" font-size="14.00">community worker</text>
</a>
</g>
</g>
<!-- 0&#45;&gt;8 -->
<g id="edge9" class="edge">
<title>0&#45;&gt;8</title>
<path fill="none" stroke="black" d="M823.25,-97.91C866.55,-91.1 938.42,-79.63 1000.19,-69 1080.78,-55.13 1100.83,-51.09 1181.19,-36 1187.67,-34.78 1194.41,-33.51 1201.14,-32.22"/>
<polygon fill="black" stroke="black" points="1201.82,-35.65 1210.99,-30.33 1200.51,-28.78 1201.82,-35.65"/>
<text text-anchor="middle" x="1100.69" y="-57.8" font-family="Times New Roman,serif" font-size="14.00">0.043</text>
</g>
<!-- 9 -->
<g id="node10" class="node">
<title>9</title>
<g id="a_node10"><a xlink:href="from_lecturer.svg" xlink:title="lecturer">
<ellipse fill="none" stroke="black" cx="1404.19" cy="-18" rx="37.89" ry="18"/>
<text text-anchor="middle" x="1404.19" y="-14.3" font-family="Times New Roman,serif" font-size="14.00">lecturer</text>
</a>
</g>
</g>
<!-- 0&#45;&gt;9 -->
<g id="edge10" class="edge">
<title>0&#45;&gt;9</title>
<path fill="none" stroke="black" d="M826.18,-102.59C921.78,-98.61 1162.47,-84.21 1357.19,-36 1360.21,-35.25 1363.31,-34.38 1366.4,-33.44"/>
<polygon fill="black" stroke="black" points="1367.75,-36.67 1376.16,-30.22 1365.56,-30.03 1367.75,-36.67"/>
<text text-anchor="middle" x="1280.69" y="-57.8" font-family="Times New Roman,serif" font-size="14.00">0.043</text>
</g>
</g>
</svg>
