<?xml version="1.0" encoding="UTF-8" standalone="no"?>
<!DOCTYPE svg PUBLIC "-//W3C//DTD SVG 1.1//EN"
 "http://www.w3.org/Graphics/SVG/1.1/DTD/svg11.dtd">
<!-- Generated by graphviz version 2.44.1 (20200629.0800)
 -->
<!-- Title: secretary Pages: 1 -->
<svg width="1347pt" height="131pt"
 viewBox="0.00 0.00 1346.99 131.00" xmlns="http://www.w3.org/2000/svg" xmlns:xlink="http://www.w3.org/1999/xlink">
<g id="graph0" class="graph" transform="scale(1 1) rotate(0) translate(4 127)">
<title>secretary</title>
<polygon fill="white" stroke="transparent" points="-4,4 -4,-127 1342.99,-127 1342.99,4 -4,4"/>
<!-- 0 -->
<g id="node1" class="node">
<title>0</title>
<g id="a_node1"><a xlink:href="from_secretary.svg" xlink:title="secretary">
<ellipse fill="none" stroke="black" cx="692.04" cy="-105" rx="43.59" ry="18"/>
<text text-anchor="middle" x="692.04" y="-101.3" font-family="Times New Roman,serif" font-size="14.00">secretary</text>
</a>
</g>
</g>
<!-- 0&#45;&gt;0 -->
<g id="edge1" class="edge">
<title>0&#45;&gt;0</title>
<path fill="none" stroke="black" d="M731.41,-112.87C743.81,-112.75 753.59,-110.13 753.59,-105 753.59,-101.4 748.75,-99.03 741.57,-97.9"/>
<polygon fill="black" stroke="black" points="741.64,-94.39 731.41,-97.13 741.12,-101.37 741.64,-94.39"/>
<text text-anchor="middle" x="769.09" y="-101.3" font-family="Times New Roman,serif" font-size="14.00">0.074</text>
</g>
<!-- 1 -->
<g id="node2" class="node">
<title>1</title>
<g id="a_node2"><a xlink:href="from_legal executive.svg" xlink:title="legal executive">
<ellipse fill="none" stroke="black" cx="63.04" cy="-18" rx="63.09" ry="18"/>
<text text-anchor="middle" x="63.04" y="-14.3" font-family="Times New Roman,serif" font-size="14.00">legal executive</text>
</a>
</g>
</g>
<!-- 0&#45;&gt;1 -->
<g id="edge2" class="edge">
<title>0&#45;&gt;1</title>
<path fill="none" stroke="black" d="M649.88,-100.46C556.61,-92.26 325.89,-70.07 135.04,-36 129.67,-35.04 124.1,-33.93 118.54,-32.75"/>
<polygon fill="black" stroke="black" points="119.11,-29.29 108.59,-30.56 117.6,-36.13 119.11,-29.29"/>
<text text-anchor="middle" x="364.54" y="-57.8" font-family="Times New Roman,serif" font-size="14.00">0.052</text>
</g>
<!-- 2 -->
<g id="node3" class="node">
<title>2</title>
<g id="a_node3"><a xlink:href="from_pharmacovigilance officer.svg" xlink:title="pharmacovigilance officer">
<ellipse fill="none" stroke="black" cx="249.04" cy="-18" rx="104.78" ry="18"/>
<text text-anchor="middle" x="249.04" y="-14.3" font-family="Times New Roman,serif" font-size="14.00">pharmacovigilance officer</text>
</a>
</g>
</g>
<!-- 0&#45;&gt;2 -->
<g id="edge3" class="edge">
<title>0&#45;&gt;2</title>
<path fill="none" stroke="black" d="M653.51,-96.61C580.62,-82.62 421.34,-52.06 325.85,-33.74"/>
<polygon fill="black" stroke="black" points="326.44,-30.29 315.96,-31.84 325.12,-37.16 326.44,-30.29"/>
<text text-anchor="middle" x="513.54" y="-57.8" font-family="Times New Roman,serif" font-size="14.00">0.048</text>
</g>
<!-- 3 -->
<g id="node4" class="node">
<title>3</title>
<g id="a_node4"><a xlink:href="from_project manager.svg" xlink:title="project manager">
<ellipse fill="none" stroke="black" cx="441.04" cy="-18" rx="68.79" ry="18"/>
<text text-anchor="middle" x="441.04" y="-14.3" font-family="Times New Roman,serif" font-size="14.00">project manager</text>
</a>
</g>
</g>
<!-- 0&#45;&gt;3 -->
<g id="edge4" class="edge">
<title>0&#45;&gt;3</title>
<path fill="none" stroke="black" d="M659.49,-92.97C616.71,-78.49 541.15,-52.9 491.09,-35.95"/>
<polygon fill="black" stroke="black" points="492.02,-32.57 481.43,-32.68 489.78,-39.2 492.02,-32.57"/>
<text text-anchor="middle" x="597.54" y="-57.8" font-family="Times New Roman,serif" font-size="14.00">0.039</text>
</g>
<!-- 4 -->
<g id="node5" class="node">
<title>4</title>
<g id="a_node5"><a xlink:href="from_it consultant.svg" xlink:title="it consultant">
<ellipse fill="none" stroke="black" cx="582.04" cy="-18" rx="54.69" ry="18"/>
<text text-anchor="middle" x="582.04" y="-14.3" font-family="Times New Roman,serif" font-size="14.00">it consultant</text>
</a>
</g>
</g>
<!-- 0&#45;&gt;4 -->
<g id="edge5" class="edge">
<title>0&#45;&gt;4</title>
<path fill="none" stroke="black" d="M672.38,-88.8C655.18,-75.52 630,-56.06 610.59,-41.05"/>
<polygon fill="black" stroke="black" points="612.71,-38.28 602.66,-34.93 608.43,-43.81 612.71,-38.28"/>
<text text-anchor="middle" x="659.54" y="-57.8" font-family="Times New Roman,serif" font-size="14.00">0.034</text>
</g>
<!-- 5 -->
<g id="node6" class="node">
<title>5</title>
<g id="a_node6"><a xlink:href="from_lecturer.svg" xlink:title="lecturer">
<ellipse fill="none" stroke="black" cx="692.04" cy="-18" rx="37.89" ry="18"/>
<text text-anchor="middle" x="692.04" y="-14.3" font-family="Times New Roman,serif" font-size="14.00">lecturer</text>
</a>
</g>
</g>
<!-- 0&#45;&gt;5 -->
<g id="edge6" class="edge">
<title>0&#45;&gt;5</title>
<path fill="none" stroke="black" d="M692.04,-86.8C692.04,-75.16 692.04,-59.55 692.04,-46.24"/>
<polygon fill="black" stroke="black" points="695.54,-46.18 692.04,-36.18 688.54,-46.18 695.54,-46.18"/>
<text text-anchor="middle" x="707.54" y="-57.8" font-family="Times New Roman,serif" font-size="14.00">0.034</text>
</g>
<!-- 6 -->
<g id="node7" class="node">
<title>6</title>
<g id="a_node7"><a xlink:href="from_marketing assistant.svg" xlink:title="marketing assistant">
<ellipse fill="none" stroke="black" cx="827.04" cy="-18" rx="79.09" ry="18"/>
<text text-anchor="middle" x="827.04" y="-14.3" font-family="Times New Roman,serif" font-size="14.00">marketing assistant</text>
</a>
</g>
</g>
<!-- 0&#45;&gt;6 -->
<g id="edge7" class="edge">
<title>0&#45;&gt;6</title>
<path fill="none" stroke="black" d="M714.95,-89.58C736.25,-76.17 768.29,-56 792.66,-40.65"/>
<polygon fill="black" stroke="black" points="794.66,-43.52 801.26,-35.23 790.93,-37.6 794.66,-43.52"/>
<text text-anchor="middle" x="783.54" y="-57.8" font-family="Times New Roman,serif" font-size="14.00">0.030</text>
</g>
<!-- 7 -->
<g id="node8" class="node">
<title>7</title>
<g id="a_node8"><a xlink:href="from_curator.svg" xlink:title="curator">
<ellipse fill="none" stroke="black" cx="961.04" cy="-18" rx="36.29" ry="18"/>
<text text-anchor="middle" x="961.04" y="-14.3" font-family="Times New Roman,serif" font-size="14.00">curator</text>
</a>
</g>
</g>
<!-- 0&#45;&gt;7 -->
<g id="edge8" class="edge">
<title>0&#45;&gt;7</title>
<path fill="none" stroke="black" d="M727.01,-94.02C771.08,-81.28 849.07,-58.23 915.04,-36 917.77,-35.08 920.57,-34.11 923.39,-33.12"/>
<polygon fill="black" stroke="black" points="924.69,-36.37 932.92,-29.69 922.32,-29.78 924.69,-36.37"/>
<text text-anchor="middle" x="870.54" y="-57.8" font-family="Times New Roman,serif" font-size="14.00">0.026</text>
</g>
<!-- 8 -->
<g id="node9" class="node">
<title>8</title>
<g id="a_node9"><a xlink:href="from_research scientist.svg" xlink:title="research scientist">
<ellipse fill="none" stroke="black" cx="1088.04" cy="-18" rx="72.59" ry="18"/>
<text text-anchor="middle" x="1088.04" y="-14.3" font-family="Times New Roman,serif" font-size="14.00">research scientist</text>
</a>
</g>
</g>
<!-- 0&#45;&gt;8 -->
<g id="edge9" class="edge">
<title>0&#45;&gt;8</title>
<path fill="none" stroke="black" d="M732.03,-97.8C772.14,-91.38 835.6,-80.67 890.04,-69 937.98,-58.72 991.9,-44.96 1031.36,-34.48"/>
<polygon fill="black" stroke="black" points="1032.3,-37.85 1041.06,-31.89 1030.5,-31.08 1032.3,-37.85"/>
<text text-anchor="middle" x="966.54" y="-57.8" font-family="Times New Roman,serif" font-size="14.00">0.026</text>
</g>
<!-- 9 -->
<g id="node10" class="node">
<title>9</title>
<g id="a_node10"><a xlink:href="from_software developer.svg" xlink:title="software developer">
<ellipse fill="none" stroke="black" cx="1259.04" cy="-18" rx="79.89" ry="18"/>
<text text-anchor="middle" x="1259.04" y="-14.3" font-family="Times New Roman,serif" font-size="14.00">software developer</text>
</a>
</g>
</g>
<!-- 0&#45;&gt;9 -->
<g id="edge10" class="edge">
<title>0&#45;&gt;9</title>
<path fill="none" stroke="black" d="M734.02,-99.79C791.16,-93.88 896.57,-82.34 986.04,-69 1068.22,-56.75 1088.35,-51.13 1170.04,-36 1176.59,-34.79 1183.41,-33.51 1190.22,-32.23"/>
<polygon fill="black" stroke="black" points="1191,-35.64 1200.18,-30.34 1189.7,-28.76 1191,-35.64"/>
<text text-anchor="middle" x="1091.54" y="-57.8" font-family="Times New Roman,serif" font-size="14.00">0.026</text>
</g>
</g>
</svg>
