<?xml version="1.0" encoding="UTF-8" standalone="no"?>
<!DOCTYPE svg PUBLIC "-//W3C//DTD SVG 1.1//EN"
 "http://www.w3.org/Graphics/SVG/1.1/DTD/svg11.dtd">
<!-- Generated by graphviz version 2.44.1 (20200629.0800)
 -->
<!-- Title: retail_manager Pages: 1 -->
<svg width="1397pt" height="131pt"
 viewBox="0.00 0.00 1397.44 131.00" xmlns="http://www.w3.org/2000/svg" xmlns:xlink="http://www.w3.org/1999/xlink">
<g id="graph0" class="graph" transform="scale(1 1) rotate(0) translate(4 127)">
<title>retail_manager</title>
<polygon fill="white" stroke="transparent" points="-4,4 -4,-127 1393.44,-127 1393.44,4 -4,4"/>
<!-- 0 -->
<g id="node1" class="node">
<title>0</title>
<g id="a_node1"><a xlink:href="from_retail manager.svg" xlink:title="retail manager">
<ellipse fill="none" stroke="black" cx="697.09" cy="-105" rx="60.39" ry="18"/>
<text text-anchor="middle" x="697.09" y="-101.3" font-family="Times New Roman,serif" font-size="14.00">retail manager</text>
</a>
</g>
</g>
<!-- 0&#45;&gt;0 -->
<g id="edge1" class="edge">
<title>0&#45;&gt;0</title>
<path fill="none" stroke="black" d="M751.72,-112.77C765.35,-112.22 775.54,-109.63 775.54,-105 775.54,-101.6 770.04,-99.3 761.73,-98.1"/>
<polygon fill="black" stroke="black" points="761.98,-94.61 751.72,-97.23 761.38,-101.58 761.98,-94.61"/>
<text text-anchor="middle" x="791.04" y="-101.3" font-family="Times New Roman,serif" font-size="14.00">0.172</text>
</g>
<!-- 1 -->
<g id="node2" class="node">
<title>1</title>
<g id="a_node2"><a xlink:href="from_sales manager.svg" xlink:title="sales manager">
<ellipse fill="none" stroke="black" cx="61.09" cy="-18" rx="61.19" ry="18"/>
<text text-anchor="middle" x="61.09" y="-14.3" font-family="Times New Roman,serif" font-size="14.00">sales manager</text>
</a>
</g>
</g>
<!-- 0&#45;&gt;1 -->
<g id="edge2" class="edge">
<title>0&#45;&gt;1</title>
<path fill="none" stroke="black" d="M638.81,-99.83C535.69,-91.83 314.68,-71.86 131.09,-36 126.01,-35.01 120.73,-33.89 115.47,-32.71"/>
<polygon fill="black" stroke="black" points="115.93,-29.23 105.4,-30.4 114.36,-36.05 115.93,-29.23"/>
<text text-anchor="middle" x="348.59" y="-57.8" font-family="Times New Roman,serif" font-size="14.00">0.098</text>
</g>
<!-- 2 -->
<g id="node3" class="node">
<title>2</title>
<g id="a_node3"><a xlink:href="from_project manager.svg" xlink:title="project manager">
<ellipse fill="none" stroke="black" cx="209.09" cy="-18" rx="68.79" ry="18"/>
<text text-anchor="middle" x="209.09" y="-14.3" font-family="Times New Roman,serif" font-size="14.00">project manager</text>
</a>
</g>
</g>
<!-- 0&#45;&gt;2 -->
<g id="edge3" class="edge">
<title>0&#45;&gt;2</title>
<path fill="none" stroke="black" d="M644.17,-96.21C565.9,-84.46 414.74,-60.92 287.09,-36 281.43,-34.89 275.55,-33.7 269.66,-32.47"/>
<polygon fill="black" stroke="black" points="270.3,-29.03 259.8,-30.39 268.86,-35.88 270.3,-29.03"/>
<text text-anchor="middle" x="482.59" y="-57.8" font-family="Times New Roman,serif" font-size="14.00">0.055</text>
</g>
<!-- 3 -->
<g id="node4" class="node">
<title>3</title>
<g id="a_node4"><a xlink:href="from_catering manager.svg" xlink:title="catering manager">
<ellipse fill="none" stroke="black" cx="367.09" cy="-18" rx="71.49" ry="18"/>
<text text-anchor="middle" x="367.09" y="-14.3" font-family="Times New Roman,serif" font-size="14.00">catering manager</text>
</a>
</g>
</g>
<!-- 0&#45;&gt;3 -->
<g id="edge4" class="edge">
<title>0&#45;&gt;3</title>
<path fill="none" stroke="black" d="M652.93,-92.62C594.13,-77.48 490,-50.66 424.97,-33.91"/>
<polygon fill="black" stroke="black" points="425.84,-30.52 415.28,-31.41 424.09,-37.29 425.84,-30.52"/>
<text text-anchor="middle" x="567.59" y="-57.8" font-family="Times New Roman,serif" font-size="14.00">0.037</text>
</g>
<!-- 4 -->
<g id="node5" class="node">
<title>4</title>
<g id="a_node5"><a xlink:href="from_personal assistant.svg" xlink:title="personal assistant">
<ellipse fill="none" stroke="black" cx="531.09" cy="-18" rx="74.99" ry="18"/>
<text text-anchor="middle" x="531.09" y="-14.3" font-family="Times New Roman,serif" font-size="14.00">personal assistant</text>
</a>
</g>
</g>
<!-- 0&#45;&gt;4 -->
<g id="edge5" class="edge">
<title>0&#45;&gt;4</title>
<path fill="none" stroke="black" d="M667.8,-89C640.72,-75.13 600.28,-54.43 570.41,-39.13"/>
<polygon fill="black" stroke="black" points="572,-36.01 561.5,-34.57 568.81,-42.24 572,-36.01"/>
<text text-anchor="middle" x="639.59" y="-57.8" font-family="Times New Roman,serif" font-size="14.00">0.037</text>
</g>
<!-- 5 -->
<g id="node6" class="node">
<title>5</title>
<g id="a_node6"><a xlink:href="from_facilities manager.svg" xlink:title="facilities manager">
<ellipse fill="none" stroke="black" cx="697.09" cy="-18" rx="72.59" ry="18"/>
<text text-anchor="middle" x="697.09" y="-14.3" font-family="Times New Roman,serif" font-size="14.00">facilities manager</text>
</a>
</g>
</g>
<!-- 0&#45;&gt;5 -->
<g id="edge6" class="edge">
<title>0&#45;&gt;5</title>
<path fill="none" stroke="black" d="M697.09,-86.8C697.09,-75.16 697.09,-59.55 697.09,-46.24"/>
<polygon fill="black" stroke="black" points="700.59,-46.18 697.09,-36.18 693.59,-46.18 700.59,-46.18"/>
<text text-anchor="middle" x="712.59" y="-57.8" font-family="Times New Roman,serif" font-size="14.00">0.030</text>
</g>
<!-- 6 -->
<g id="node7" class="node">
<title>6</title>
<g id="a_node7"><a xlink:href="from_it consultant.svg" xlink:title="it consultant">
<ellipse fill="none" stroke="black" cx="842.09" cy="-18" rx="54.69" ry="18"/>
<text text-anchor="middle" x="842.09" y="-14.3" font-family="Times New Roman,serif" font-size="14.00">it consultant</text>
</a>
</g>
</g>
<!-- 0&#45;&gt;6 -->
<g id="edge7" class="edge">
<title>0&#45;&gt;6</title>
<path fill="none" stroke="black" d="M723.35,-88.61C747.01,-74.74 781.93,-54.27 807.78,-39.11"/>
<polygon fill="black" stroke="black" points="809.66,-42.07 816.52,-33.99 806.12,-36.03 809.66,-42.07"/>
<text text-anchor="middle" x="794.59" y="-57.8" font-family="Times New Roman,serif" font-size="14.00">0.030</text>
</g>
<!-- 7 -->
<g id="node8" class="node">
<title>7</title>
<g id="a_node8"><a xlink:href="from_logistics manager.svg" xlink:title="logistics manager">
<ellipse fill="none" stroke="black" cx="988.09" cy="-18" rx="73.39" ry="18"/>
<text text-anchor="middle" x="988.09" y="-14.3" font-family="Times New Roman,serif" font-size="14.00">logistics manager</text>
</a>
</g>
</g>
<!-- 0&#45;&gt;7 -->
<g id="edge8" class="edge">
<title>0&#45;&gt;7</title>
<path fill="none" stroke="black" d="M738.79,-91.82C789.79,-76.92 876.29,-51.66 932.8,-35.15"/>
<polygon fill="black" stroke="black" points="934.03,-38.44 942.65,-32.28 932.07,-31.72 934.03,-38.44"/>
<text text-anchor="middle" x="875.59" y="-57.8" font-family="Times New Roman,serif" font-size="14.00">0.030</text>
</g>
<!-- 8 -->
<g id="node9" class="node">
<title>8</title>
<g id="a_node9"><a xlink:href="from_marketing executive.svg" xlink:title="marketing executive">
<ellipse fill="none" stroke="black" cx="1161.09" cy="-18" rx="81.79" ry="18"/>
<text text-anchor="middle" x="1161.09" y="-14.3" font-family="Times New Roman,serif" font-size="14.00">marketing executive</text>
</a>
</g>
</g>
<!-- 0&#45;&gt;8 -->
<g id="edge9" class="edge">
<title>0&#45;&gt;8</title>
<path fill="none" stroke="black" d="M747.99,-95.16C788,-88.17 845.13,-78.11 895.09,-69 961.76,-56.84 1037.72,-42.52 1091.36,-32.32"/>
<polygon fill="black" stroke="black" points="1092.27,-35.71 1101.44,-30.4 1090.96,-28.83 1092.27,-35.71"/>
<text text-anchor="middle" x="991.59" y="-57.8" font-family="Times New Roman,serif" font-size="14.00">0.030</text>
</g>
<!-- 9 -->
<g id="node10" class="node">
<title>9</title>
<g id="a_node10"><a xlink:href="from_office manager.svg" xlink:title="office manager">
<ellipse fill="none" stroke="black" cx="1325.09" cy="-18" rx="64.19" ry="18"/>
<text text-anchor="middle" x="1325.09" y="-14.3" font-family="Times New Roman,serif" font-size="14.00">office manager</text>
</a>
</g>
</g>
<!-- 0&#45;&gt;9 -->
<g id="edge10" class="edge">
<title>0&#45;&gt;9</title>
<path fill="none" stroke="black" d="M754.57,-99.27C855.72,-90.43 1071.91,-69.24 1252.09,-36 1257.45,-35.01 1263.01,-33.89 1268.56,-32.71"/>
<polygon fill="black" stroke="black" points="1269.48,-36.09 1278.5,-30.53 1267.98,-29.25 1269.48,-36.09"/>
<text text-anchor="middle" x="1147.59" y="-57.8" font-family="Times New Roman,serif" font-size="14.00">0.030</text>
</g>
</g>
</svg>
