<?xml version="1.0" encoding="UTF-8" standalone="no"?>
<!DOCTYPE svg PUBLIC "-//W3C//DTD SVG 1.1//EN"
 "http://www.w3.org/Graphics/SVG/1.1/DTD/svg11.dtd">
<!-- Generated by graphviz version 2.44.1 (20200629.0800)
 -->
<!-- Title: personal_assistant Pages: 1 -->
<svg width="1381pt" height="131pt"
 viewBox="0.00 0.00 1381.34 131.00" xmlns="http://www.w3.org/2000/svg" xmlns:xlink="http://www.w3.org/1999/xlink">
<g id="graph0" class="graph" transform="scale(1 1) rotate(0) translate(4 127)">
<title>personal_assistant</title>
<polygon fill="white" stroke="transparent" points="-4,4 -4,-127 1377.34,-127 1377.34,4 -4,4"/>
<!-- 0 -->
<g id="node1" class="node">
<title>0</title>
<g id="a_node1"><a xlink:href="from_personal assistant.svg" xlink:title="personal assistant">
<ellipse fill="none" stroke="black" cx="704.64" cy="-105" rx="74.99" ry="18"/>
<text text-anchor="middle" x="704.64" y="-101.3" font-family="Times New Roman,serif" font-size="14.00">personal assistant</text>
</a>
</g>
</g>
<!-- 0&#45;&gt;0 -->
<g id="edge1" class="edge">
<title>0&#45;&gt;0</title>
<path fill="none" stroke="black" d="M772.58,-112.62C786.98,-111.85 797.38,-109.31 797.38,-105 797.38,-101.8 791.65,-99.58 782.81,-98.33"/>
<polygon fill="black" stroke="black" points="782.86,-94.82 772.58,-97.38 782.21,-101.79 782.86,-94.82"/>
<text text-anchor="middle" x="812.88" y="-101.3" font-family="Times New Roman,serif" font-size="14.00">0.142</text>
</g>
<!-- 1 -->
<g id="node2" class="node">
<title>1</title>
<g id="a_node2"><a xlink:href="from_pharmacovigilance officer.svg" xlink:title="pharmacovigilance officer">
<ellipse fill="none" stroke="black" cx="104.64" cy="-18" rx="104.78" ry="18"/>
<text text-anchor="middle" x="104.64" y="-14.3" font-family="Times New Roman,serif" font-size="14.00">pharmacovigilance officer</text>
</a>
</g>
</g>
<!-- 0&#45;&gt;1 -->
<g id="edge2" class="edge">
<title>0&#45;&gt;1</title>
<path fill="none" stroke="black" d="M638.7,-96.38C581.71,-89.66 497.15,-79.34 423.64,-69 343.15,-57.68 251.51,-43.15 187.16,-32.67"/>
<polygon fill="black" stroke="black" points="187.51,-29.18 177.08,-31.02 186.38,-36.09 187.51,-29.18"/>
<text text-anchor="middle" x="439.14" y="-57.8" font-family="Times New Roman,serif" font-size="14.00">0.061</text>
</g>
<!-- 2 -->
<g id="node3" class="node">
<title>2</title>
<g id="a_node3"><a xlink:href="from_project manager.svg" xlink:title="project manager">
<ellipse fill="none" stroke="black" cx="296.64" cy="-18" rx="68.79" ry="18"/>
<text text-anchor="middle" x="296.64" y="-14.3" font-family="Times New Roman,serif" font-size="14.00">project manager</text>
</a>
</g>
</g>
<!-- 0&#45;&gt;2 -->
<g id="edge3" class="edge">
<title>0&#45;&gt;2</title>
<path fill="none" stroke="black" d="M648.07,-93.17C613.06,-86.39 567.2,-77.39 526.64,-69 458.94,-55 442.19,-50.69 374.64,-36 369.22,-34.82 363.59,-33.6 357.95,-32.37"/>
<polygon fill="black" stroke="black" points="358.34,-28.87 347.83,-30.16 356.85,-35.71 358.34,-28.87"/>
<text text-anchor="middle" x="542.14" y="-57.8" font-family="Times New Roman,serif" font-size="14.00">0.045</text>
</g>
<!-- 3 -->
<g id="node4" class="node">
<title>3</title>
<g id="a_node4"><a xlink:href="from_careers adviser.svg" xlink:title="careers adviser">
<ellipse fill="none" stroke="black" cx="448.64" cy="-18" rx="64.99" ry="18"/>
<text text-anchor="middle" x="448.64" y="-14.3" font-family="Times New Roman,serif" font-size="14.00">careers adviser</text>
</a>
</g>
</g>
<!-- 0&#45;&gt;3 -->
<g id="edge4" class="edge">
<title>0&#45;&gt;3</title>
<path fill="none" stroke="black" d="M662.65,-90.06C617.53,-75.08 545.87,-51.28 498.07,-35.41"/>
<polygon fill="black" stroke="black" points="499.14,-32.08 488.54,-32.25 496.93,-38.72 499.14,-32.08"/>
<text text-anchor="middle" x="608.14" y="-57.8" font-family="Times New Roman,serif" font-size="14.00">0.035</text>
</g>
<!-- 4 -->
<g id="node5" class="node">
<title>4</title>
<g id="a_node5"><a xlink:href="from_accountant.svg" xlink:title="accountant">
<ellipse fill="none" stroke="black" cx="581.64" cy="-18" rx="50.09" ry="18"/>
<text text-anchor="middle" x="581.64" y="-14.3" font-family="Times New Roman,serif" font-size="14.00">accountant</text>
</a>
</g>
</g>
<!-- 0&#45;&gt;4 -->
<g id="edge5" class="edge">
<title>0&#45;&gt;4</title>
<path fill="none" stroke="black" d="M681.22,-87.81C661.61,-74.26 633.5,-54.84 612.14,-40.08"/>
<polygon fill="black" stroke="black" points="613.95,-37.08 603.74,-34.27 609.97,-42.83 613.95,-37.08"/>
<text text-anchor="middle" x="666.14" y="-57.8" font-family="Times New Roman,serif" font-size="14.00">0.030</text>
</g>
<!-- 5 -->
<g id="node6" class="node">
<title>5</title>
<g id="a_node6"><a xlink:href="from_it consultant.svg" xlink:title="it consultant">
<ellipse fill="none" stroke="black" cx="704.64" cy="-18" rx="54.69" ry="18"/>
<text text-anchor="middle" x="704.64" y="-14.3" font-family="Times New Roman,serif" font-size="14.00">it consultant</text>
</a>
</g>
</g>
<!-- 0&#45;&gt;5 -->
<g id="edge6" class="edge">
<title>0&#45;&gt;5</title>
<path fill="none" stroke="black" d="M704.64,-86.8C704.64,-75.16 704.64,-59.55 704.64,-46.24"/>
<polygon fill="black" stroke="black" points="708.14,-46.18 704.64,-36.18 701.14,-46.18 708.14,-46.18"/>
<text text-anchor="middle" x="720.14" y="-57.8" font-family="Times New Roman,serif" font-size="14.00">0.030</text>
</g>
<!-- 6 -->
<g id="node7" class="node">
<title>6</title>
<g id="a_node7"><a xlink:href="from_sales manager.svg" xlink:title="sales manager">
<ellipse fill="none" stroke="black" cx="838.64" cy="-18" rx="61.19" ry="18"/>
<text text-anchor="middle" x="838.64" y="-14.3" font-family="Times New Roman,serif" font-size="14.00">sales manager</text>
</a>
</g>
</g>
<!-- 0&#45;&gt;6 -->
<g id="edge7" class="edge">
<title>0&#45;&gt;6</title>
<path fill="none" stroke="black" d="M729.85,-88.01C751.22,-74.45 782.05,-54.9 805.44,-40.06"/>
<polygon fill="black" stroke="black" points="807.43,-42.94 814,-34.63 803.68,-37.03 807.43,-42.94"/>
<text text-anchor="middle" x="796.14" y="-57.8" font-family="Times New Roman,serif" font-size="14.00">0.030</text>
</g>
<!-- 7 -->
<g id="node8" class="node">
<title>7</title>
<g id="a_node8"><a xlink:href="from_teaching assistant.svg" xlink:title="teaching assistant">
<ellipse fill="none" stroke="black" cx="991.64" cy="-18" rx="73.39" ry="18"/>
<text text-anchor="middle" x="991.64" y="-14.3" font-family="Times New Roman,serif" font-size="14.00">teaching assistant</text>
</a>
</g>
</g>
<!-- 0&#45;&gt;7 -->
<g id="edge8" class="edge">
<title>0&#45;&gt;7</title>
<path fill="none" stroke="black" d="M749.8,-90.63C800.48,-75.62 882.68,-51.27 936.95,-35.2"/>
<polygon fill="black" stroke="black" points="938.15,-38.49 946.74,-32.3 936.16,-31.78 938.15,-38.49"/>
<text text-anchor="middle" x="881.14" y="-57.8" font-family="Times New Roman,serif" font-size="14.00">0.030</text>
</g>
<!-- 8 -->
<g id="node9" class="node">
<title>8</title>
<g id="a_node9"><a xlink:href="from_human resources officer.svg" xlink:title="human resources officer">
<ellipse fill="none" stroke="black" cx="1181.64" cy="-18" rx="98.58" ry="18"/>
<text text-anchor="middle" x="1181.64" y="-14.3" font-family="Times New Roman,serif" font-size="14.00">human resources officer</text>
</a>
</g>
</g>
<!-- 0&#45;&gt;8 -->
<g id="edge9" class="edge">
<title>0&#45;&gt;8</title>
<path fill="none" stroke="black" d="M763.13,-93.58C848.67,-78.33 1008.06,-49.93 1103.53,-32.92"/>
<polygon fill="black" stroke="black" points="1104.19,-36.36 1113.43,-31.16 1102.97,-29.46 1104.19,-36.36"/>
<text text-anchor="middle" x="988.14" y="-57.8" font-family="Times New Roman,serif" font-size="14.00">0.025</text>
</g>
<!-- 9 -->
<g id="node10" class="node">
<title>9</title>
<g id="a_node10"><a xlink:href="from_lecturer.svg" xlink:title="lecturer">
<ellipse fill="none" stroke="black" cx="1335.64" cy="-18" rx="37.89" ry="18"/>
<text text-anchor="middle" x="1335.64" y="-14.3" font-family="Times New Roman,serif" font-size="14.00">lecturer</text>
</a>
</g>
</g>
<!-- 0&#45;&gt;9 -->
<g id="edge10" class="edge">
<title>0&#45;&gt;9</title>
<path fill="none" stroke="black" d="M777.66,-101.11C889.34,-95.44 1108.68,-79.37 1289.64,-36 1292.44,-35.33 1295.29,-34.54 1298.15,-33.68"/>
<polygon fill="black" stroke="black" points="1299.35,-36.97 1307.75,-30.51 1297.16,-30.32 1299.35,-36.97"/>
<text text-anchor="middle" x="1211.14" y="-57.8" font-family="Times New Roman,serif" font-size="14.00">0.025</text>
</g>
</g>
</svg>
