<?xml version="1.0" encoding="UTF-8" standalone="no"?>
<!DOCTYPE svg PUBLIC "-//W3C//DTD SVG 1.1//EN"
 "http://www.w3.org/Graphics/SVG/1.1/DTD/svg11.dtd">
<!-- Generated by graphviz version 2.44.1 (20200629.0800)
 -->
<!-- Title: translator Pages: 1 -->
<svg width="1462pt" height="131pt"
 viewBox="0.00 0.00 1461.53 131.00" xmlns="http://www.w3.org/2000/svg" xmlns:xlink="http://www.w3.org/1999/xlink">
<g id="graph0" class="graph" transform="scale(1 1) rotate(0) translate(4 127)">
<title>translator</title>
<polygon fill="white" stroke="transparent" points="-4,4 -4,-127 1457.53,-127 1457.53,4 -4,4"/>
<!-- 0 -->
<g id="node1" class="node">
<title>0</title>
<g id="a_node1"><a xlink:href="from_translator.svg" xlink:title="translator">
<ellipse fill="none" stroke="black" cx="725.19" cy="-105" rx="44.39" ry="18"/>
<text text-anchor="middle" x="725.19" y="-101.3" font-family="Times New Roman,serif" font-size="14.00">translator</text>
</a>
</g>
</g>
<!-- 0&#45;&gt;0 -->
<g id="edge9" class="edge">
<title>0&#45;&gt;0</title>
<path fill="none" stroke="black" d="M764.97,-112.87C777.5,-112.75 787.39,-110.13 787.39,-105 787.39,-101.4 782.5,-99.03 775.24,-97.9"/>
<polygon fill="black" stroke="black" points="775.21,-94.39 764.97,-97.13 774.68,-101.37 775.21,-94.39"/>
<text text-anchor="middle" x="802.89" y="-101.3" font-family="Times New Roman,serif" font-size="14.00">0.111</text>
</g>
<!-- 1 -->
<g id="node2" class="node">
<title>1</title>
<g id="a_node2"><a xlink:href="from_production manager.svg" xlink:title="production manager">
<ellipse fill="none" stroke="black" cx="83.19" cy="-18" rx="83.39" ry="18"/>
<text text-anchor="middle" x="83.19" y="-14.3" font-family="Times New Roman,serif" font-size="14.00">production manager</text>
</a>
</g>
</g>
<!-- 0&#45;&gt;1 -->
<g id="edge1" class="edge">
<title>0&#45;&gt;1</title>
<path fill="none" stroke="black" d="M682.63,-99.65C590.08,-89.98 363.68,-65.26 175.19,-36 167.94,-34.87 160.38,-33.62 152.85,-32.31"/>
<polygon fill="black" stroke="black" points="153.45,-28.86 142.99,-30.56 152.23,-35.75 153.45,-28.86"/>
<text text-anchor="middle" x="417.69" y="-57.8" font-family="Times New Roman,serif" font-size="14.00">0.222</text>
</g>
<!-- 2 -->
<g id="node3" class="node">
<title>2</title>
<g id="a_node3"><a xlink:href="from_commissioning editor.svg" xlink:title="commissioning editor">
<ellipse fill="none" stroke="black" cx="273.19" cy="-18" rx="89.08" ry="18"/>
<text text-anchor="middle" x="273.19" y="-14.3" font-family="Times New Roman,serif" font-size="14.00">commissioning editor</text>
</a>
</g>
</g>
<!-- 0&#45;&gt;2 -->
<g id="edge2" class="edge">
<title>0&#45;&gt;2</title>
<path fill="none" stroke="black" d="M685.87,-96.61C610.05,-82.35 442.61,-50.86 345.93,-32.68"/>
<polygon fill="black" stroke="black" points="346.41,-29.21 335.94,-30.8 345.12,-36.09 346.41,-29.21"/>
<text text-anchor="middle" x="542.69" y="-57.8" font-family="Times New Roman,serif" font-size="14.00">0.111</text>
</g>
<!-- 3 -->
<g id="node4" class="node">
<title>3</title>
<g id="a_node4"><a xlink:href="from_community worker.svg" xlink:title="community worker">
<ellipse fill="none" stroke="black" cx="459.19" cy="-18" rx="79.09" ry="18"/>
<text text-anchor="middle" x="459.19" y="-14.3" font-family="Times New Roman,serif" font-size="14.00">community worker</text>
</a>
</g>
</g>
<!-- 0&#45;&gt;3 -->
<g id="edge3" class="edge">
<title>0&#45;&gt;3</title>
<path fill="none" stroke="black" d="M691.5,-93.23C646.49,-78.85 566.23,-53.2 512.85,-36.14"/>
<polygon fill="black" stroke="black" points="513.8,-32.77 503.21,-33.06 511.67,-39.44 513.8,-32.77"/>
<text text-anchor="middle" x="623.69" y="-57.8" font-family="Times New Roman,serif" font-size="14.00">0.111</text>
</g>
<!-- 4 -->
<g id="node5" class="node">
<title>4</title>
<g id="a_node5"><a xlink:href="from_manufacturing engineer.svg" xlink:title="manufacturing engineer">
<ellipse fill="none" stroke="black" cx="651.19" cy="-18" rx="94.48" ry="18"/>
<text text-anchor="middle" x="651.19" y="-14.3" font-family="Times New Roman,serif" font-size="14.00">manufacturing engineer</text>
</a>
</g>
</g>
<!-- 0&#45;&gt;4 -->
<g id="edge4" class="edge">
<title>0&#45;&gt;4</title>
<path fill="none" stroke="black" d="M710.92,-87.61C700.11,-75.19 685.07,-57.91 672.78,-43.8"/>
<polygon fill="black" stroke="black" points="675.13,-41.16 665.92,-35.92 669.85,-45.76 675.13,-41.16"/>
<text text-anchor="middle" x="708.69" y="-57.8" font-family="Times New Roman,serif" font-size="14.00">0.111</text>
</g>
<!-- 5 -->
<g id="node6" class="node">
<title>5</title>
<g id="a_node6"><a xlink:href="from_teacher.svg" xlink:title="teacher">
<ellipse fill="none" stroke="black" cx="800.19" cy="-18" rx="36.29" ry="18"/>
<text text-anchor="middle" x="800.19" y="-14.3" font-family="Times New Roman,serif" font-size="14.00">teacher</text>
</a>
</g>
</g>
<!-- 0&#45;&gt;5 -->
<g id="edge5" class="edge">
<title>0&#45;&gt;5</title>
<path fill="none" stroke="black" d="M739.65,-87.61C751,-74.75 766.95,-56.68 779.63,-42.31"/>
<polygon fill="black" stroke="black" points="782.29,-44.58 786.28,-34.76 777.04,-39.95 782.29,-44.58"/>
<text text-anchor="middle" x="782.69" y="-57.8" font-family="Times New Roman,serif" font-size="14.00">0.111</text>
</g>
<!-- 6 -->
<g id="node7" class="node">
<title>6</title>
<g id="a_node7"><a xlink:href="from_technical author.svg" xlink:title="technical author">
<ellipse fill="none" stroke="black" cx="922.19" cy="-18" rx="67.69" ry="18"/>
<text text-anchor="middle" x="922.19" y="-14.3" font-family="Times New Roman,serif" font-size="14.00">technical author</text>
</a>
</g>
</g>
<!-- 0&#45;&gt;6 -->
<g id="edge6" class="edge">
<title>0&#45;&gt;6</title>
<path fill="none" stroke="black" d="M754.69,-91.27C787.64,-77.06 841.29,-53.91 878.98,-37.65"/>
<polygon fill="black" stroke="black" points="880.4,-40.85 888.19,-33.67 877.62,-34.42 880.4,-40.85"/>
<text text-anchor="middle" x="851.69" y="-57.8" font-family="Times New Roman,serif" font-size="14.00">0.111</text>
</g>
<!-- 7 -->
<g id="node8" class="node">
<title>7</title>
<g id="a_node8"><a xlink:href="from_tourist information manager.svg" xlink:title="tourist information manager">
<ellipse fill="none" stroke="black" cx="1118.19" cy="-18" rx="110.48" ry="18"/>
<text text-anchor="middle" x="1118.19" y="-14.3" font-family="Times New Roman,serif" font-size="14.00">tourist information manager</text>
</a>
</g>
</g>
<!-- 0&#45;&gt;7 -->
<g id="edge7" class="edge">
<title>0&#45;&gt;7</title>
<path fill="none" stroke="black" d="M763.23,-95.77C828.11,-81.74 961.24,-52.95 1044.74,-34.89"/>
<polygon fill="black" stroke="black" points="1045.64,-38.27 1054.67,-32.74 1044.16,-31.43 1045.64,-38.27"/>
<text text-anchor="middle" x="961.69" y="-57.8" font-family="Times New Roman,serif" font-size="14.00">0.111</text>
</g>
<!-- 8 -->
<g id="node9" class="node">
<title>8</title>
<g id="a_node9"><a xlink:href="from_town and country planner.svg" xlink:title="town and country planner">
<ellipse fill="none" stroke="black" cx="1350.19" cy="-18" rx="103.18" ry="18"/>
<text text-anchor="middle" x="1350.19" y="-14.3" font-family="Times New Roman,serif" font-size="14.00">town and country planner</text>
</a>
</g>
</g>
<!-- 0&#45;&gt;8 -->
<g id="edge8" class="edge">
<title>0&#45;&gt;8</title>
<path fill="none" stroke="black" d="M766.7,-98.73C853.91,-87.62 1062.51,-60.74 1237.19,-36 1246.21,-34.72 1255.62,-33.36 1265.01,-31.98"/>
<polygon fill="black" stroke="black" points="1265.77,-35.4 1275.15,-30.48 1264.75,-28.48 1265.77,-35.4"/>
<text text-anchor="middle" x="1112.69" y="-57.8" font-family="Times New Roman,serif" font-size="14.00">0.111</text>
</g>
</g>
</svg>
