<?xml version="1.0" encoding="UTF-8" standalone="no"?>
<!DOCTYPE svg PUBLIC "-//W3C//DTD SVG 1.1//EN"
 "http://www.w3.org/Graphics/SVG/1.1/DTD/svg11.dtd">
<!-- Generated by graphviz version 2.44.1 (20200629.0800)
 -->
<!-- Title: stockbroker Pages: 1 -->
<svg width="1393pt" height="131pt"
 viewBox="0.00 0.00 1392.69 131.00" xmlns="http://www.w3.org/2000/svg" xmlns:xlink="http://www.w3.org/1999/xlink">
<g id="graph0" class="graph" transform="scale(1 1) rotate(0) translate(4 127)">
<title>stockbroker</title>
<polygon fill="white" stroke="transparent" points="-4,4 -4,-127 1388.69,-127 1388.69,4 -4,4"/>
<!-- 0 -->
<g id="node1" class="node">
<title>0</title>
<g id="a_node1"><a xlink:href="from_stockbroker.svg" xlink:title="stockbroker">
<ellipse fill="none" stroke="black" cx="656.69" cy="-105" rx="54.69" ry="18"/>
<text text-anchor="middle" x="656.69" y="-101.3" font-family="Times New Roman,serif" font-size="14.00">stockbroker</text>
</a>
</g>
</g>
<!-- 1 -->
<g id="node2" class="node">
<title>1</title>
<g id="a_node2"><a xlink:href="from_investment analyst.svg" xlink:title="investment analyst">
<ellipse fill="none" stroke="black" cx="76.69" cy="-18" rx="76.89" ry="18"/>
<text text-anchor="middle" x="76.69" y="-14.3" font-family="Times New Roman,serif" font-size="14.00">investment analyst</text>
</a>
</g>
</g>
<!-- 0&#45;&gt;1 -->
<g id="edge1" class="edge">
<title>0&#45;&gt;1</title>
<path fill="none" stroke="black" d="M602.72,-101.67C528.58,-97.88 391.26,-88.71 275.69,-69 226.49,-60.61 171.53,-46.42 131.85,-35.3"/>
<polygon fill="black" stroke="black" points="132.68,-31.9 122.11,-32.55 130.78,-38.64 132.68,-31.9"/>
<text text-anchor="middle" x="291.19" y="-57.8" font-family="Times New Roman,serif" font-size="14.00">0.083</text>
</g>
<!-- 2 -->
<g id="node3" class="node">
<title>2</title>
<g id="a_node3"><a xlink:href="from_trader.svg" xlink:title="trader">
<ellipse fill="none" stroke="black" cx="203.69" cy="-18" rx="31.7" ry="18"/>
<text text-anchor="middle" x="203.69" y="-14.3" font-family="Times New Roman,serif" font-size="14.00">trader</text>
</a>
</g>
</g>
<!-- 0&#45;&gt;2 -->
<g id="edge2" class="edge">
<title>0&#45;&gt;2</title>
<path fill="none" stroke="black" d="M603.7,-100.65C523.99,-94.42 369.31,-77.67 244.69,-36 242.41,-35.24 240.08,-34.41 237.74,-33.54"/>
<polygon fill="black" stroke="black" points="238.78,-30.19 228.2,-29.82 236.24,-36.71 238.78,-30.19"/>
<text text-anchor="middle" x="382.19" y="-57.8" font-family="Times New Roman,serif" font-size="14.00">0.083</text>
</g>
<!-- 3 -->
<g id="node4" class="node">
<title>3</title>
<g id="a_node4"><a xlink:href="from_lecturer.svg" xlink:title="lecturer">
<ellipse fill="none" stroke="black" cx="291.69" cy="-18" rx="37.89" ry="18"/>
<text text-anchor="middle" x="291.69" y="-14.3" font-family="Times New Roman,serif" font-size="14.00">lecturer</text>
</a>
</g>
</g>
<!-- 0&#45;&gt;3 -->
<g id="edge3" class="edge">
<title>0&#45;&gt;3</title>
<path fill="none" stroke="black" d="M609,-96.08C546.32,-85.15 433.11,-63.63 338.69,-36 335.79,-35.15 332.8,-34.22 329.81,-33.24"/>
<polygon fill="black" stroke="black" points="330.93,-29.92 320.34,-30 328.67,-36.55 330.93,-29.92"/>
<text text-anchor="middle" x="484.19" y="-57.8" font-family="Times New Roman,serif" font-size="14.00">0.055</text>
</g>
<!-- 4 -->
<g id="node5" class="node">
<title>4</title>
<g id="a_node5"><a xlink:href="from_legal executive.svg" xlink:title="legal executive">
<ellipse fill="none" stroke="black" cx="410.69" cy="-18" rx="63.09" ry="18"/>
<text text-anchor="middle" x="410.69" y="-14.3" font-family="Times New Roman,serif" font-size="14.00">legal executive</text>
</a>
</g>
</g>
<!-- 0&#45;&gt;4 -->
<g id="edge4" class="edge">
<title>0&#45;&gt;4</title>
<path fill="none" stroke="black" d="M620.4,-91.46C577.6,-76.67 506.31,-52.04 458.9,-35.66"/>
<polygon fill="black" stroke="black" points="459.76,-32.25 449.17,-32.29 457.48,-38.87 459.76,-32.25"/>
<text text-anchor="middle" x="564.19" y="-57.8" font-family="Times New Roman,serif" font-size="14.00">0.055</text>
</g>
<!-- 5 -->
<g id="node6" class="node">
<title>5</title>
<g id="a_node6"><a xlink:href="from_retail merchandiser.svg" xlink:title="retail merchandiser">
<ellipse fill="none" stroke="black" cx="570.69" cy="-18" rx="78.79" ry="18"/>
<text text-anchor="middle" x="570.69" y="-14.3" font-family="Times New Roman,serif" font-size="14.00">retail merchandiser</text>
</a>
</g>
</g>
<!-- 0&#45;&gt;5 -->
<g id="edge5" class="edge">
<title>0&#45;&gt;5</title>
<path fill="none" stroke="black" d="M640.11,-87.61C627.23,-74.88 609.17,-57.03 594.71,-42.74"/>
<polygon fill="black" stroke="black" points="597.09,-40.17 587.52,-35.63 592.17,-45.15 597.09,-40.17"/>
<text text-anchor="middle" x="635.19" y="-57.8" font-family="Times New Roman,serif" font-size="14.00">0.055</text>
</g>
<!-- 6 -->
<g id="node7" class="node">
<title>6</title>
<g id="a_node7"><a xlink:href="from_academic librarian.svg" xlink:title="academic librarian">
<ellipse fill="none" stroke="black" cx="743.69" cy="-18" rx="76.09" ry="18"/>
<text text-anchor="middle" x="743.69" y="-14.3" font-family="Times New Roman,serif" font-size="14.00">academic librarian</text>
</a>
</g>
</g>
<!-- 0&#45;&gt;6 -->
<g id="edge6" class="edge">
<title>0&#45;&gt;6</title>
<path fill="none" stroke="black" d="M673.47,-87.61C686.5,-74.88 704.76,-57.03 719.4,-42.74"/>
<polygon fill="black" stroke="black" points="721.97,-45.12 726.67,-35.63 717.07,-40.11 721.97,-45.12"/>
<text text-anchor="middle" x="721.19" y="-57.8" font-family="Times New Roman,serif" font-size="14.00">0.027</text>
</g>
<!-- 7 -->
<g id="node8" class="node">
<title>7</title>
<g id="a_node8"><a xlink:href="from_accountant.svg" xlink:title="accountant">
<ellipse fill="none" stroke="black" cx="887.69" cy="-18" rx="50.09" ry="18"/>
<text text-anchor="middle" x="887.69" y="-14.3" font-family="Times New Roman,serif" font-size="14.00">accountant</text>
</a>
</g>
</g>
<!-- 0&#45;&gt;7 -->
<g id="edge7" class="edge">
<title>0&#45;&gt;7</title>
<path fill="none" stroke="black" d="M691.78,-91.09C732.61,-76.06 800.07,-51.24 844.2,-35.01"/>
<polygon fill="black" stroke="black" points="845.61,-38.21 853.79,-31.48 843.19,-31.65 845.61,-38.21"/>
<text text-anchor="middle" x="802.19" y="-57.8" font-family="Times New Roman,serif" font-size="14.00">0.027</text>
</g>
<!-- 8 -->
<g id="node9" class="node">
<title>8</title>
<g id="a_node9"><a xlink:href="from_agricultural consultant.svg" xlink:title="agricultural consultant">
<ellipse fill="none" stroke="black" cx="1045.69" cy="-18" rx="89.88" ry="18"/>
<text text-anchor="middle" x="1045.69" y="-14.3" font-family="Times New Roman,serif" font-size="14.00">agricultural consultant</text>
</a>
</g>
</g>
<!-- 0&#45;&gt;8 -->
<g id="edge8" class="edge">
<title>0&#45;&gt;8</title>
<path fill="none" stroke="black" d="M701.54,-94.62C734.74,-87.65 781.06,-77.84 821.69,-69 874.54,-57.5 934.32,-44.14 978.82,-34.12"/>
<polygon fill="black" stroke="black" points="979.66,-37.52 988.65,-31.91 978.12,-30.69 979.66,-37.52"/>
<text text-anchor="middle" x="905.19" y="-57.8" font-family="Times New Roman,serif" font-size="14.00">0.027</text>
</g>
<!-- 9 -->
<g id="node10" class="node">
<title>9</title>
<g id="a_node10"><a xlink:href="from_architect.svg" xlink:title="architect">
<ellipse fill="none" stroke="black" cx="1194.69" cy="-18" rx="41.69" ry="18"/>
<text text-anchor="middle" x="1194.69" y="-14.3" font-family="Times New Roman,serif" font-size="14.00">architect</text>
</a>
</g>
</g>
<!-- 0&#45;&gt;9 -->
<g id="edge9" class="edge">
<title>0&#45;&gt;9</title>
<path fill="none" stroke="black" d="M709.34,-100.13C799.5,-92.74 988.84,-73.86 1144.69,-36 1147.9,-35.22 1151.19,-34.32 1154.49,-33.36"/>
<polygon fill="black" stroke="black" points="1155.77,-36.63 1164.28,-30.31 1153.69,-29.94 1155.77,-36.63"/>
<text text-anchor="middle" x="1068.19" y="-57.8" font-family="Times New Roman,serif" font-size="14.00">0.027</text>
</g>
<!-- 10 -->
<g id="node11" class="node">
<title>10</title>
<g id="a_node11"><a xlink:href="from_careers adviser.svg" xlink:title="careers adviser">
<ellipse fill="none" stroke="black" cx="1319.69" cy="-18" rx="64.99" ry="18"/>
<text text-anchor="middle" x="1319.69" y="-14.3" font-family="Times New Roman,serif" font-size="14.00">careers adviser</text>
</a>
</g>
</g>
<!-- 0&#45;&gt;10 -->
<g id="edge10" class="edge">
<title>0&#45;&gt;10</title>
<path fill="none" stroke="black" d="M710.69,-101.78C792.56,-97.93 952.84,-88.48 1087.69,-69 1158.69,-58.74 1175.62,-51.37 1245.69,-36 1250.92,-34.85 1256.36,-33.64 1261.8,-32.42"/>
<polygon fill="black" stroke="black" points="1262.58,-35.83 1271.56,-30.2 1261.03,-29 1262.58,-35.83"/>
<text text-anchor="middle" x="1183.19" y="-57.8" font-family="Times New Roman,serif" font-size="14.00">0.027</text>
</g>
</g>
</svg>
