<?xml version="1.0" encoding="UTF-8" standalone="no"?>
<!DOCTYPE svg PUBLIC "-//W3C//DTD SVG 1.1//EN"
 "http://www.w3.org/Graphics/SVG/1.1/DTD/svg11.dtd">
<!-- Generated by graphviz version 2.44.1 (20200629.0800)
 -->
<!-- Title: sports_therapist Pages: 1 -->
<svg width="1837pt" height="131pt"
 viewBox="0.00 0.00 1837.18 131.00" xmlns="http://www.w3.org/2000/svg" xmlns:xlink="http://www.w3.org/1999/xlink">
<g id="graph0" class="graph" transform="scale(1 1) rotate(0) translate(4 127)">
<title>sports_therapist</title>
<polygon fill="white" stroke="transparent" points="-4,4 -4,-127 1833.18,-127 1833.18,4 -4,4"/>
<!-- 0 -->
<g id="node1" class="node">
<title>0</title>
<g id="a_node1"><a xlink:href="from_sports therapist.svg" xlink:title="sports therapist">
<ellipse fill="none" stroke="black" cx="926.54" cy="-105" rx="66.89" ry="18"/>
<text text-anchor="middle" x="926.54" y="-101.3" font-family="Times New Roman,serif" font-size="14.00">sports therapist</text>
</a>
</g>
</g>
<!-- 1 -->
<g id="node2" class="node">
<title>1</title>
<g id="a_node2"><a xlink:href="from_sports development officer.svg" xlink:title="sports development officer">
<ellipse fill="none" stroke="black" cx="108.54" cy="-18" rx="108.58" ry="18"/>
<text text-anchor="middle" x="108.54" y="-14.3" font-family="Times New Roman,serif" font-size="14.00">sports development officer</text>
</a>
</g>
</g>
<!-- 0&#45;&gt;1 -->
<g id="edge1" class="edge">
<title>0&#45;&gt;1</title>
<path fill="none" stroke="black" d="M861.78,-100.16C773.6,-94.67 610.91,-83.6 472.54,-69 362.84,-57.42 335.8,-51.2 226.54,-36 217.11,-34.69 207.25,-33.3 197.43,-31.9"/>
<polygon fill="black" stroke="black" points="197.63,-28.39 187.23,-30.45 196.64,-35.32 197.63,-28.39"/>
<text text-anchor="middle" x="488.04" y="-57.8" font-family="Times New Roman,serif" font-size="14.00">0.176</text>
</g>
<!-- 2 -->
<g id="node3" class="node">
<title>2</title>
<g id="a_node3"><a xlink:href="from_medical physicist.svg" xlink:title="medical physicist">
<ellipse fill="none" stroke="black" cx="308.54" cy="-18" rx="73.39" ry="18"/>
<text text-anchor="middle" x="308.54" y="-14.3" font-family="Times New Roman,serif" font-size="14.00">medical physicist</text>
</a>
</g>
</g>
<!-- 0&#45;&gt;2 -->
<g id="edge2" class="edge">
<title>0&#45;&gt;2</title>
<path fill="none" stroke="black" d="M864.81,-97.81C764.83,-87.41 561.44,-64.73 390.54,-36 384.33,-34.96 377.87,-33.78 371.43,-32.54"/>
<polygon fill="black" stroke="black" points="371.85,-29.06 361.36,-30.56 370.5,-35.93 371.85,-29.06"/>
<text text-anchor="middle" x="627.04" y="-57.8" font-family="Times New Roman,serif" font-size="14.00">0.117</text>
</g>
<!-- 3 -->
<g id="node4" class="node">
<title>3</title>
<g id="a_node4"><a xlink:href="from_aeronautical engineer.svg" xlink:title="aeronautical engineer">
<ellipse fill="none" stroke="black" cx="485.54" cy="-18" rx="85.59" ry="18"/>
<text text-anchor="middle" x="485.54" y="-14.3" font-family="Times New Roman,serif" font-size="14.00">aeronautical engineer</text>
</a>
</g>
</g>
<!-- 0&#45;&gt;3 -->
<g id="edge3" class="edge">
<title>0&#45;&gt;3</title>
<path fill="none" stroke="black" d="M873.78,-93.83C794.64,-78.58 645.05,-49.74 556.44,-32.67"/>
<polygon fill="black" stroke="black" points="556.96,-29.2 546.48,-30.75 555.63,-36.07 556.96,-29.2"/>
<text text-anchor="middle" x="748.04" y="-57.8" font-family="Times New Roman,serif" font-size="14.00">0.058</text>
</g>
<!-- 4 -->
<g id="node5" class="node">
<title>4</title>
<g id="a_node5"><a xlink:href="from_civil service administrator.svg" xlink:title="civil service administrator">
<ellipse fill="none" stroke="black" cx="691.54" cy="-18" rx="102.88" ry="18"/>
<text text-anchor="middle" x="691.54" y="-14.3" font-family="Times New Roman,serif" font-size="14.00">civil service administrator</text>
</a>
</g>
</g>
<!-- 0&#45;&gt;4 -->
<g id="edge4" class="edge">
<title>0&#45;&gt;4</title>
<path fill="none" stroke="black" d="M888.26,-90.15C848.96,-75.94 787.54,-53.72 743.79,-37.9"/>
<polygon fill="black" stroke="black" points="744.78,-34.53 734.18,-34.42 742.39,-41.12 744.78,-34.53"/>
<text text-anchor="middle" x="839.04" y="-57.8" font-family="Times New Roman,serif" font-size="14.00">0.058</text>
</g>
<!-- 5 -->
<g id="node6" class="node">
<title>5</title>
<g id="a_node6"><a xlink:href="from_dietitian.svg" xlink:title="dietitian">
<ellipse fill="none" stroke="black" cx="850.54" cy="-18" rx="38.19" ry="18"/>
<text text-anchor="middle" x="850.54" y="-14.3" font-family="Times New Roman,serif" font-size="14.00">dietitian</text>
</a>
</g>
</g>
<!-- 0&#45;&gt;5 -->
<g id="edge5" class="edge">
<title>0&#45;&gt;5</title>
<path fill="none" stroke="black" d="M911.53,-87.21C900.06,-74.39 884.14,-56.57 871.43,-42.36"/>
<polygon fill="black" stroke="black" points="874.03,-40.02 864.75,-34.9 868.81,-44.68 874.03,-40.02"/>
<text text-anchor="middle" x="909.04" y="-57.8" font-family="Times New Roman,serif" font-size="14.00">0.058</text>
</g>
<!-- 6 -->
<g id="node7" class="node">
<title>6</title>
<g id="a_node7"><a xlink:href="from_education administrator.svg" xlink:title="education administrator">
<ellipse fill="none" stroke="black" cx="1002.54" cy="-18" rx="95.58" ry="18"/>
<text text-anchor="middle" x="1002.54" y="-14.3" font-family="Times New Roman,serif" font-size="14.00">education administrator</text>
</a>
</g>
</g>
<!-- 0&#45;&gt;6 -->
<g id="edge6" class="edge">
<title>0&#45;&gt;6</title>
<path fill="none" stroke="black" d="M941.56,-87.21C952.62,-74.83 967.85,-57.8 980.32,-43.85"/>
<polygon fill="black" stroke="black" points="983.24,-45.84 987.3,-36.05 978.02,-41.17 983.24,-45.84"/>
<text text-anchor="middle" x="985.04" y="-57.8" font-family="Times New Roman,serif" font-size="14.00">0.058</text>
</g>
<!-- 7 -->
<g id="node8" class="node">
<title>7</title>
<g id="a_node8"><a xlink:href="from_heritage manager.svg" xlink:title="heritage manager">
<ellipse fill="none" stroke="black" cx="1187.54" cy="-18" rx="71.49" ry="18"/>
<text text-anchor="middle" x="1187.54" y="-14.3" font-family="Times New Roman,serif" font-size="14.00">heritage manager</text>
</a>
</g>
</g>
<!-- 0&#45;&gt;7 -->
<g id="edge7" class="edge">
<title>0&#45;&gt;7</title>
<path fill="none" stroke="black" d="M967.32,-90.72C1012.89,-75.88 1086.74,-51.83 1136.2,-35.72"/>
<polygon fill="black" stroke="black" points="1137.33,-39.03 1145.75,-32.61 1135.16,-32.38 1137.33,-39.03"/>
<text text-anchor="middle" x="1089.04" y="-57.8" font-family="Times New Roman,serif" font-size="14.00">0.058</text>
</g>
<!-- 8 -->
<g id="node9" class="node">
<title>8</title>
<g id="a_node9"><a xlink:href="from_legal executive.svg" xlink:title="legal executive">
<ellipse fill="none" stroke="black" cx="1340.54" cy="-18" rx="63.09" ry="18"/>
<text text-anchor="middle" x="1340.54" y="-14.3" font-family="Times New Roman,serif" font-size="14.00">legal executive</text>
</a>
</g>
</g>
<!-- 0&#45;&gt;8 -->
<g id="edge8" class="edge">
<title>0&#45;&gt;8</title>
<path fill="none" stroke="black" d="M979.84,-94.05C1047.06,-81.35 1166.14,-58.33 1267.54,-36 1272.78,-34.85 1278.23,-33.62 1283.68,-32.38"/>
<polygon fill="black" stroke="black" points="1284.49,-35.79 1293.46,-30.14 1282.93,-28.96 1284.49,-35.79"/>
<text text-anchor="middle" x="1190.04" y="-57.8" font-family="Times New Roman,serif" font-size="14.00">0.058</text>
</g>
<!-- 9 -->
<g id="node10" class="node">
<title>9</title>
<g id="a_node10"><a xlink:href="from_occupational therapist.svg" xlink:title="occupational therapist">
<ellipse fill="none" stroke="black" cx="1511.54" cy="-18" rx="90.18" ry="18"/>
<text text-anchor="middle" x="1511.54" y="-14.3" font-family="Times New Roman,serif" font-size="14.00">occupational therapist</text>
</a>
</g>
</g>
<!-- 0&#45;&gt;9 -->
<g id="edge9" class="edge">
<title>0&#45;&gt;9</title>
<path fill="none" stroke="black" d="M987.08,-97.19C1044.44,-90.58 1132.97,-79.96 1209.54,-69 1300.03,-56.05 1322.38,-51.07 1412.54,-36 1420.1,-34.74 1427.98,-33.41 1435.85,-32.07"/>
<polygon fill="black" stroke="black" points="1436.52,-35.51 1445.79,-30.38 1435.34,-28.6 1436.52,-35.51"/>
<text text-anchor="middle" x="1320.04" y="-57.8" font-family="Times New Roman,serif" font-size="14.00">0.058</text>
</g>
<!-- 10 -->
<g id="node11" class="node">
<title>10</title>
<g id="a_node11"><a xlink:href="from_pharmacovigilance officer.svg" xlink:title="pharmacovigilance officer">
<ellipse fill="none" stroke="black" cx="1724.54" cy="-18" rx="104.78" ry="18"/>
<text text-anchor="middle" x="1724.54" y="-14.3" font-family="Times New Roman,serif" font-size="14.00">pharmacovigilance officer</text>
</a>
</g>
</g>
<!-- 0&#45;&gt;10 -->
<g id="edge10" class="edge">
<title>0&#45;&gt;10</title>
<path fill="none" stroke="black" d="M990.28,-99.33C1071.47,-93.21 1216.07,-81.75 1339.54,-69 1460.23,-56.54 1490.3,-52.28 1610.54,-36 1619.81,-34.74 1629.5,-33.38 1639.14,-31.99"/>
<polygon fill="black" stroke="black" points="1639.76,-35.44 1649.16,-30.53 1638.76,-28.51 1639.76,-35.44"/>
<text text-anchor="middle" x="1487.04" y="-57.8" font-family="Times New Roman,serif" font-size="14.00">0.058</text>
</g>
</g>
</svg>
