<?xml version="1.0" encoding="UTF-8" standalone="no"?>
<!DOCTYPE svg PUBLIC "-//W3C//DTD SVG 1.1//EN"
 "http://www.w3.org/Graphics/SVG/1.1/DTD/svg11.dtd">
<!-- Generated by graphviz version 2.44.1 (20200629.0800)
 -->
<!-- Title: test Pages: 1 -->
<svg width="1351pt" height="131pt"
 viewBox="0.00 0.00 1351.28 131.00" xmlns="http://www.w3.org/2000/svg" xmlns:xlink="http://www.w3.org/1999/xlink">
<g id="graph0" class="graph" transform="scale(1 1) rotate(0) translate(4 127)">
<title>test</title>
<polygon fill="white" stroke="transparent" points="-4,4 -4,-127 1347.28,-127 1347.28,4 -4,4"/>
<!-- 0 -->
<g id="node1" class="node">
<title>0</title>
<g id="a_node1"><a xlink:href="from_lawyer.svg" xlink:title="lawyer">
<ellipse fill="none" stroke="black" cx="626.64" cy="-105" rx="34.39" ry="18"/>
<text text-anchor="middle" x="626.64" y="-101.3" font-family="Times New Roman,serif" font-size="14.00">lawyer</text>
</a>
</g>
</g>
<!-- 0&#45;&gt;0 -->
<g id="edge1" class="edge">
<title>0&#45;&gt;0</title>
<path fill="none" stroke="black" d="M657.87,-112.86C669.51,-113.12 679.09,-110.5 679.09,-105 679.09,-101.22 674.56,-98.8 667.95,-97.74"/>
<polygon fill="black" stroke="black" points="668.06,-94.24 657.87,-97.14 667.64,-101.23 668.06,-94.24"/>
<text text-anchor="middle" x="694.59" y="-101.3" font-family="Times New Roman,serif" font-size="14.00">0.448</text>
</g>
<!-- 1 -->
<g id="node2" class="node">
<title>1</title>
<g id="a_node2"><a xlink:href="from_pharmacovigilance officer.svg" xlink:title="pharmacovigilance officer">
<ellipse fill="none" stroke="black" cx="104.64" cy="-18" rx="104.78" ry="18"/>
<text text-anchor="middle" x="104.64" y="-14.3" font-family="Times New Roman,serif" font-size="14.00">pharmacovigilance officer</text>
</a>
</g>
</g>
<!-- 0&#45;&gt;1 -->
<g id="edge2" class="edge">
<title>0&#45;&gt;1</title>
<path fill="none" stroke="black" d="M592.89,-100.97C538.51,-95.87 428.23,-84.55 335.64,-69 280.22,-59.69 217.99,-46.03 172.09,-35.34"/>
<polygon fill="black" stroke="black" points="172.8,-31.91 162.26,-33.04 171.2,-38.73 172.8,-31.91"/>
<text text-anchor="middle" x="351.14" y="-57.8" font-family="Times New Roman,serif" font-size="14.00">0.224</text>
</g>
<!-- 2 -->
<g id="node3" class="node">
<title>2</title>
<g id="a_node3"><a xlink:href="from_curator.svg" xlink:title="curator">
<ellipse fill="none" stroke="black" cx="263.64" cy="-18" rx="36.29" ry="18"/>
<text text-anchor="middle" x="263.64" y="-14.3" font-family="Times New Roman,serif" font-size="14.00">curator</text>
</a>
</g>
</g>
<!-- 0&#45;&gt;2 -->
<g id="edge3" class="edge">
<title>0&#45;&gt;2</title>
<path fill="none" stroke="black" d="M593.86,-99.07C554.79,-92.98 487.63,-81.83 430.64,-69 376.26,-56.75 362.72,-53.01 309.64,-36 306.9,-35.12 304.09,-34.18 301.27,-33.21"/>
<polygon fill="black" stroke="black" points="302.32,-29.87 291.72,-29.82 299.98,-36.47 302.32,-29.87"/>
<text text-anchor="middle" x="446.14" y="-57.8" font-family="Times New Roman,serif" font-size="14.00">0.129</text>
</g>
<!-- 3 -->
<g id="node4" class="node">
<title>3</title>
<g id="a_node4"><a xlink:href="from_solicitor.svg" xlink:title="solicitor">
<ellipse fill="none" stroke="black" cx="358.64" cy="-18" rx="40.09" ry="18"/>
<text text-anchor="middle" x="358.64" y="-14.3" font-family="Times New Roman,serif" font-size="14.00">solicitor</text>
</a>
</g>
</g>
<!-- 0&#45;&gt;3 -->
<g id="edge4" class="edge">
<title>0&#45;&gt;3</title>
<path fill="none" stroke="black" d="M597.51,-95.39C574.02,-88.4 540.15,-78.23 510.64,-69 465.16,-54.78 453.86,-51 408.64,-36 405.55,-34.98 402.36,-33.91 399.15,-32.83"/>
<polygon fill="black" stroke="black" points="400.15,-29.47 389.56,-29.59 397.91,-36.11 400.15,-29.47"/>
<text text-anchor="middle" x="526.14" y="-57.8" font-family="Times New Roman,serif" font-size="14.00">0.095</text>
</g>
<!-- 4 -->
<g id="node5" class="node">
<title>4</title>
<g id="a_node5"><a xlink:href="from_barristers clerk.svg" xlink:title="barristers clerk">
<ellipse fill="none" stroke="black" cx="481.64" cy="-18" rx="64.19" ry="18"/>
<text text-anchor="middle" x="481.64" y="-14.3" font-family="Times New Roman,serif" font-size="14.00">barristers clerk</text>
</a>
</g>
</g>
<!-- 0&#45;&gt;4 -->
<g id="edge5" class="edge">
<title>0&#45;&gt;4</title>
<path fill="none" stroke="black" d="M604.62,-91.09C581.34,-77.45 544.29,-55.72 516.93,-39.69"/>
<polygon fill="black" stroke="black" points="518.46,-36.52 508.06,-34.49 514.92,-42.56 518.46,-36.52"/>
<text text-anchor="middle" x="579.14" y="-57.8" font-family="Times New Roman,serif" font-size="14.00">0.047</text>
</g>
<!-- 5 -->
<g id="node6" class="node">
<title>5</title>
<g id="a_node6"><a xlink:href="from_legal executive.svg" xlink:title="legal executive">
<ellipse fill="none" stroke="black" cx="626.64" cy="-18" rx="63.09" ry="18"/>
<text text-anchor="middle" x="626.64" y="-14.3" font-family="Times New Roman,serif" font-size="14.00">legal executive</text>
</a>
</g>
</g>
<!-- 0&#45;&gt;5 -->
<g id="edge6" class="edge">
<title>0&#45;&gt;5</title>
<path fill="none" stroke="black" d="M626.64,-86.8C626.64,-75.16 626.64,-59.55 626.64,-46.24"/>
<polygon fill="black" stroke="black" points="630.14,-46.18 626.64,-36.18 623.14,-46.18 630.14,-46.18"/>
<text text-anchor="middle" x="642.14" y="-57.8" font-family="Times New Roman,serif" font-size="14.00">0.040</text>
</g>
<!-- 6 -->
<g id="node7" class="node">
<title>6</title>
<g id="a_node7"><a xlink:href="from_regulatory affairs officer.svg" xlink:title="regulatory affairs officer">
<ellipse fill="none" stroke="black" cx="805.64" cy="-18" rx="98.28" ry="18"/>
<text text-anchor="middle" x="805.64" y="-14.3" font-family="Times New Roman,serif" font-size="14.00">regulatory affairs officer</text>
</a>
</g>
</g>
<!-- 0&#45;&gt;6 -->
<g id="edge7" class="edge">
<title>0&#45;&gt;6</title>
<path fill="none" stroke="black" d="M651.53,-92.18C680.16,-78.59 727.66,-56.03 762.38,-39.54"/>
<polygon fill="black" stroke="black" points="764.27,-42.52 771.8,-35.07 761.27,-36.2 764.27,-42.52"/>
<text text-anchor="middle" x="743.14" y="-57.8" font-family="Times New Roman,serif" font-size="14.00">0.040</text>
</g>
<!-- 7 -->
<g id="node8" class="node">
<title>7</title>
<g id="a_node8"><a xlink:href="from_photographer.svg" xlink:title="photographer">
<ellipse fill="none" stroke="black" cx="981.64" cy="-18" rx="59.59" ry="18"/>
<text text-anchor="middle" x="981.64" y="-14.3" font-family="Times New Roman,serif" font-size="14.00">photographer</text>
</a>
</g>
</g>
<!-- 0&#45;&gt;7 -->
<g id="edge8" class="edge">
<title>0&#45;&gt;7</title>
<path fill="none" stroke="black" d="M657.56,-96.74C710.03,-84.39 819.88,-58.45 912.64,-36 917.34,-34.86 922.22,-33.67 927.11,-32.48"/>
<polygon fill="black" stroke="black" points="928.23,-35.81 937.11,-30.03 926.57,-29.01 928.23,-35.81"/>
<text text-anchor="middle" x="850.14" y="-57.8" font-family="Times New Roman,serif" font-size="14.00">0.034</text>
</g>
<!-- 8 -->
<g id="node9" class="node">
<title>8</title>
<g id="a_node9"><a xlink:href="from_it consultant.svg" xlink:title="it consultant">
<ellipse fill="none" stroke="black" cx="1113.64" cy="-18" rx="54.69" ry="18"/>
<text text-anchor="middle" x="1113.64" y="-14.3" font-family="Times New Roman,serif" font-size="14.00">it consultant</text>
</a>
</g>
</g>
<!-- 0&#45;&gt;8 -->
<g id="edge9" class="edge">
<title>0&#45;&gt;8</title>
<path fill="none" stroke="black" d="M659.9,-100.11C731.76,-91.4 906.65,-68.49 1050.64,-36 1054.81,-35.06 1059.11,-34.03 1063.42,-32.95"/>
<polygon fill="black" stroke="black" points="1064.62,-36.26 1073.43,-30.38 1062.88,-29.48 1064.62,-36.26"/>
<text text-anchor="middle" x="974.14" y="-57.8" font-family="Times New Roman,serif" font-size="14.00">0.020</text>
</g>
<!-- 9 -->
<g id="node10" class="node">
<title>9</title>
<g id="a_node10"><a xlink:href="from_retail merchandiser.svg" xlink:title="retail merchandiser">
<ellipse fill="none" stroke="black" cx="1264.64" cy="-18" rx="78.79" ry="18"/>
<text text-anchor="middle" x="1264.64" y="-14.3" font-family="Times New Roman,serif" font-size="14.00">retail merchandiser</text>
</a>
</g>
</g>
<!-- 0&#45;&gt;9 -->
<g id="edge10" class="edge">
<title>0&#45;&gt;9</title>
<path fill="none" stroke="black" d="M660.65,-101.7C725.57,-97.09 871.57,-85.74 993.64,-69 1075.95,-57.71 1095.98,-51.3 1177.64,-36 1183.89,-34.83 1190.4,-33.59 1196.91,-32.34"/>
<polygon fill="black" stroke="black" points="1197.95,-35.71 1207.1,-30.37 1196.62,-28.83 1197.95,-35.71"/>
<text text-anchor="middle" x="1102.14" y="-57.8" font-family="Times New Roman,serif" font-size="14.00">0.020</text>
</g>
</g>
</svg>
