<?xml version="1.0" encoding="UTF-8" standalone="no"?>
<!DOCTYPE svg PUBLIC "-//W3C//DTD SVG 1.1//EN"
 "http://www.w3.org/Graphics/SVG/1.1/DTD/svg11.dtd">
<!-- Generated by graphviz version 2.44.1 (20200629.0800)
 -->
<!-- Title: environmental_scientist Pages: 1 -->
<svg width="1632pt" height="131pt"
 viewBox="0.00 0.00 1632.13 131.00" xmlns="http://www.w3.org/2000/svg" xmlns:xlink="http://www.w3.org/1999/xlink">
<g id="graph0" class="graph" transform="scale(1 1) rotate(0) translate(4 127)">
<title>environmental_scientist</title>
<polygon fill="white" stroke="transparent" points="-4,4 -4,-127 1628.13,-127 1628.13,4 -4,4"/>
<!-- 0 -->
<g id="node1" class="node">
<title>0</title>
<g id="a_node1"><a xlink:href="from_environmental scientist.svg" xlink:title="environmental scientist">
<ellipse fill="none" stroke="black" cx="677.59" cy="-105" rx="92.88" ry="18"/>
<text text-anchor="middle" x="677.59" y="-101.3" font-family="Times New Roman,serif" font-size="14.00">environmental scientist</text>
</a>
</g>
</g>
<!-- 0&#45;&gt;0 -->
<g id="edge2" class="edge">
<title>0&#45;&gt;0</title>
<path fill="none" stroke="black" d="M762.24,-112.44C777.69,-111.5 788.53,-109.02 788.53,-105 788.53,-101.92 782.18,-99.75 772.27,-98.47"/>
<polygon fill="black" stroke="black" points="772.52,-94.98 762.24,-97.56 771.88,-101.95 772.52,-94.98"/>
<text text-anchor="middle" x="804.03" y="-101.3" font-family="Times New Roman,serif" font-size="14.00">0.214</text>
</g>
<!-- 1 -->
<g id="node2" class="node">
<title>1</title>
<g id="a_node2"><a xlink:href="from_environmental manager.svg" xlink:title="environmental manager">
<ellipse fill="none" stroke="black" cx="93.59" cy="-18" rx="93.68" ry="18"/>
<text text-anchor="middle" x="93.59" y="-14.3" font-family="Times New Roman,serif" font-size="14.00">environmental manager</text>
</a>
</g>
</g>
<!-- 0&#45;&gt;1 -->
<g id="edge1" class="edge">
<title>0&#45;&gt;1</title>
<path fill="none" stroke="black" d="M591.56,-98.02C520.72,-92.45 417.79,-82.92 328.59,-69 270.68,-59.96 205.55,-45.78 158.57,-34.83"/>
<polygon fill="black" stroke="black" points="159.36,-31.42 148.83,-32.54 157.76,-38.24 159.36,-31.42"/>
<text text-anchor="middle" x="344.09" y="-57.8" font-family="Times New Roman,serif" font-size="14.00">0.285</text>
</g>
<!-- 2 -->
<g id="node3" class="node">
<title>2</title>
<g id="a_node3"><a xlink:href="from_lecturer.svg" xlink:title="lecturer">
<ellipse fill="none" stroke="black" cx="242.59" cy="-18" rx="37.89" ry="18"/>
<text text-anchor="middle" x="242.59" y="-14.3" font-family="Times New Roman,serif" font-size="14.00">lecturer</text>
</a>
</g>
</g>
<!-- 0&#45;&gt;2 -->
<g id="edge3" class="edge">
<title>0&#45;&gt;2</title>
<path fill="none" stroke="black" d="M600.44,-94.87C521.46,-84.5 395.59,-65.14 289.59,-36 286.67,-35.2 283.68,-34.3 280.68,-33.34"/>
<polygon fill="black" stroke="black" points="281.79,-30.02 271.19,-30.16 279.56,-36.66 281.79,-30.02"/>
<text text-anchor="middle" x="443.09" y="-57.8" font-family="Times New Roman,serif" font-size="14.00">0.142</text>
</g>
<!-- 3 -->
<g id="node4" class="node">
<title>3</title>
<g id="a_node4"><a xlink:href="from_careers adviser.svg" xlink:title="careers adviser">
<ellipse fill="none" stroke="black" cx="363.59" cy="-18" rx="64.99" ry="18"/>
<text text-anchor="middle" x="363.59" y="-14.3" font-family="Times New Roman,serif" font-size="14.00">careers adviser</text>
</a>
</g>
</g>
<!-- 0&#45;&gt;3 -->
<g id="edge4" class="edge">
<title>0&#45;&gt;3</title>
<path fill="none" stroke="black" d="M625.3,-90.1C601.31,-83.71 572.5,-76 546.59,-69 503.29,-57.3 454.26,-43.9 417.86,-33.91"/>
<polygon fill="black" stroke="black" points="418.52,-30.46 407.95,-31.19 416.67,-37.22 418.52,-30.46"/>
<text text-anchor="middle" x="562.09" y="-57.8" font-family="Times New Roman,serif" font-size="14.00">0.047</text>
</g>
<!-- 4 -->
<g id="node5" class="node">
<title>4</title>
<g id="a_node5"><a xlink:href="from_civil engineer.svg" xlink:title="civil engineer">
<ellipse fill="none" stroke="black" cx="504.59" cy="-18" rx="57.69" ry="18"/>
<text text-anchor="middle" x="504.59" y="-14.3" font-family="Times New Roman,serif" font-size="14.00">civil engineer</text>
</a>
</g>
</g>
<!-- 0&#45;&gt;4 -->
<g id="edge5" class="edge">
<title>0&#45;&gt;4</title>
<path fill="none" stroke="black" d="M645.05,-88.01C616.13,-73.8 573.82,-53.01 543.2,-37.97"/>
<polygon fill="black" stroke="black" points="544.62,-34.77 534.1,-33.5 541.53,-41.05 544.62,-34.77"/>
<text text-anchor="middle" x="617.09" y="-57.8" font-family="Times New Roman,serif" font-size="14.00">0.047</text>
</g>
<!-- 5 -->
<g id="node6" class="node">
<title>5</title>
<g id="a_node6"><a xlink:href="from_public affairs consultant.svg" xlink:title="public affairs consultant">
<ellipse fill="none" stroke="black" cx="677.59" cy="-18" rx="97.48" ry="18"/>
<text text-anchor="middle" x="677.59" y="-14.3" font-family="Times New Roman,serif" font-size="14.00">public affairs consultant</text>
</a>
</g>
</g>
<!-- 0&#45;&gt;5 -->
<g id="edge6" class="edge">
<title>0&#45;&gt;5</title>
<path fill="none" stroke="black" d="M677.59,-86.8C677.59,-75.16 677.59,-59.55 677.59,-46.24"/>
<polygon fill="black" stroke="black" points="681.09,-46.18 677.59,-36.18 674.09,-46.18 681.09,-46.18"/>
<text text-anchor="middle" x="693.09" y="-57.8" font-family="Times New Roman,serif" font-size="14.00">0.047</text>
</g>
<!-- 6 -->
<g id="node7" class="node">
<title>6</title>
<g id="a_node7"><a xlink:href="from_training and development officer.svg" xlink:title="training and development officer">
<ellipse fill="none" stroke="black" cx="921.59" cy="-18" rx="128.08" ry="18"/>
<text text-anchor="middle" x="921.59" y="-14.3" font-family="Times New Roman,serif" font-size="14.00">training and development officer</text>
</a>
</g>
</g>
<!-- 0&#45;&gt;6 -->
<g id="edge7" class="edge">
<title>0&#45;&gt;6</title>
<path fill="none" stroke="black" d="M720.65,-89C761.23,-74.86 822.22,-53.62 866.36,-38.24"/>
<polygon fill="black" stroke="black" points="867.77,-41.45 876.06,-34.86 865.47,-34.84 867.77,-41.45"/>
<text text-anchor="middle" x="830.09" y="-57.8" font-family="Times New Roman,serif" font-size="14.00">0.047</text>
</g>
<!-- 7 -->
<g id="node8" class="node">
<title>7</title>
<g id="a_node8"><a xlink:href="from_charities administrator.svg" xlink:title="charities administrator">
<ellipse fill="none" stroke="black" cx="1157.59" cy="-18" rx="90.18" ry="18"/>
<text text-anchor="middle" x="1157.59" y="-14.3" font-family="Times New Roman,serif" font-size="14.00">charities administrator</text>
</a>
</g>
</g>
<!-- 0&#45;&gt;7 -->
<g id="edge8" class="edge">
<title>0&#45;&gt;7</title>
<path fill="none" stroke="black" d="M743.58,-92.31C832.22,-76.62 989.33,-48.8 1082.43,-32.31"/>
<polygon fill="black" stroke="black" points="1083.11,-35.74 1092.34,-30.55 1081.88,-28.85 1083.11,-35.74"/>
<text text-anchor="middle" x="962.09" y="-57.8" font-family="Times New Roman,serif" font-size="14.00">0.023</text>
</g>
<!-- 8 -->
<g id="node9" class="node">
<title>8</title>
<g id="a_node9"><a xlink:href="from_chemical engineer.svg" xlink:title="chemical engineer">
<ellipse fill="none" stroke="black" cx="1340.59" cy="-18" rx="74.99" ry="18"/>
<text text-anchor="middle" x="1340.59" y="-14.3" font-family="Times New Roman,serif" font-size="14.00">chemical engineer</text>
</a>
</g>
</g>
<!-- 0&#45;&gt;8 -->
<g id="edge9" class="edge">
<title>0&#45;&gt;8</title>
<path fill="none" stroke="black" d="M759.88,-96.57C872.41,-85.89 1080.47,-64.34 1256.59,-36 1263.11,-34.95 1269.88,-33.76 1276.64,-32.5"/>
<polygon fill="black" stroke="black" points="1277.32,-35.93 1286.48,-30.61 1276.01,-29.05 1277.32,-35.93"/>
<text text-anchor="middle" x="1146.09" y="-57.8" font-family="Times New Roman,serif" font-size="14.00">0.023</text>
</g>
<!-- 9 -->
<g id="node10" class="node">
<title>9</title>
<g id="a_node10"><a xlink:href="from_education administrator.svg" xlink:title="education administrator">
<ellipse fill="none" stroke="black" cx="1528.59" cy="-18" rx="95.58" ry="18"/>
<text text-anchor="middle" x="1528.59" y="-14.3" font-family="Times New Roman,serif" font-size="14.00">education administrator</text>
</a>
</g>
</g>
<!-- 0&#45;&gt;9 -->
<g id="edge10" class="edge">
<title>0&#45;&gt;9</title>
<path fill="none" stroke="black" d="M765.88,-99.14C863.72,-93.4 1026.13,-82.88 1165.59,-69 1281.06,-57.51 1309.76,-52.7 1424.59,-36 1432.79,-34.81 1441.34,-33.51 1449.87,-32.17"/>
<polygon fill="black" stroke="black" points="1450.51,-35.61 1459.84,-30.59 1449.41,-28.7 1450.51,-35.61"/>
<text text-anchor="middle" x="1311.09" y="-57.8" font-family="Times New Roman,serif" font-size="14.00">0.023</text>
</g>
</g>
</svg>
