<?xml version="1.0" encoding="UTF-8" standalone="no"?>
<!DOCTYPE svg PUBLIC "-//W3C//DTD SVG 1.1//EN"
 "http://www.w3.org/Graphics/SVG/1.1/DTD/svg11.dtd">
<!-- Generated by graphviz version 2.44.1 (20200629.0800)
 -->
<!-- Title: debt_adviser Pages: 1 -->
<svg width="1439pt" height="131pt"
 viewBox="0.00 0.00 1439.08 131.00" xmlns="http://www.w3.org/2000/svg" xmlns:xlink="http://www.w3.org/1999/xlink">
<g id="graph0" class="graph" transform="scale(1 1) rotate(0) translate(4 127)">
<title>debt_adviser</title>
<polygon fill="white" stroke="transparent" points="-4,4 -4,-127 1435.08,-127 1435.08,4 -4,4"/>
<!-- 0 -->
<g id="node1" class="node">
<title>0</title>
<g id="a_node1"><a xlink:href="from_debt adviser.svg" xlink:title="debt adviser">
<ellipse fill="none" stroke="black" cx="678.44" cy="-105" rx="55.49" ry="18"/>
<text text-anchor="middle" x="678.44" y="-101.3" font-family="Times New Roman,serif" font-size="14.00">debt adviser</text>
</a>
</g>
</g>
<!-- 0&#45;&gt;0 -->
<g id="edge1" class="edge">
<title>0&#45;&gt;0</title>
<path fill="none" stroke="black" d="M728.43,-112.81C741.66,-112.36 751.69,-109.76 751.69,-105 751.69,-101.54 746.4,-99.22 738.42,-98.04"/>
<polygon fill="black" stroke="black" points="738.69,-94.55 728.43,-97.19 738.09,-101.53 738.69,-94.55"/>
<text text-anchor="middle" x="767.19" y="-101.3" font-family="Times New Roman,serif" font-size="14.00">0.203</text>
</g>
<!-- 1 -->
<g id="node2" class="node">
<title>1</title>
<g id="a_node2"><a xlink:href="from_financial manager.svg" xlink:title="financial manager">
<ellipse fill="none" stroke="black" cx="73.44" cy="-18" rx="73.39" ry="18"/>
<text text-anchor="middle" x="73.44" y="-14.3" font-family="Times New Roman,serif" font-size="14.00">financial manager</text>
</a>
</g>
</g>
<!-- 0&#45;&gt;1 -->
<g id="edge2" class="edge">
<title>0&#45;&gt;1</title>
<path fill="none" stroke="black" d="M626.24,-98.8C531.87,-89.05 326.76,-66.24 155.44,-36 149.34,-34.92 142.99,-33.73 136.65,-32.5"/>
<polygon fill="black" stroke="black" points="137.22,-29.04 126.73,-30.53 135.85,-35.91 137.22,-29.04"/>
<text text-anchor="middle" x="385.94" y="-57.8" font-family="Times New Roman,serif" font-size="14.00">0.109</text>
</g>
<!-- 2 -->
<g id="node3" class="node">
<title>2</title>
<g id="a_node3"><a xlink:href="from_investment analyst.svg" xlink:title="investment analyst">
<ellipse fill="none" stroke="black" cx="241.44" cy="-18" rx="76.89" ry="18"/>
<text text-anchor="middle" x="241.44" y="-14.3" font-family="Times New Roman,serif" font-size="14.00">investment analyst</text>
</a>
</g>
</g>
<!-- 0&#45;&gt;2 -->
<g id="edge3" class="edge">
<title>0&#45;&gt;2</title>
<path fill="none" stroke="black" d="M631.53,-95.39C593.69,-88.4 539.11,-78.23 491.44,-69 429.04,-56.92 357.98,-42.66 307.61,-32.47"/>
<polygon fill="black" stroke="black" points="308,-28.97 297.5,-30.42 306.61,-35.83 308,-28.97"/>
<text text-anchor="middle" x="506.94" y="-57.8" font-family="Times New Roman,serif" font-size="14.00">0.078</text>
</g>
<!-- 3 -->
<g id="node4" class="node">
<title>3</title>
<g id="a_node4"><a xlink:href="from_project manager.svg" xlink:title="project manager">
<ellipse fill="none" stroke="black" cx="405.44" cy="-18" rx="68.79" ry="18"/>
<text text-anchor="middle" x="405.44" y="-14.3" font-family="Times New Roman,serif" font-size="14.00">project manager</text>
</a>
</g>
</g>
<!-- 0&#45;&gt;3 -->
<g id="edge4" class="edge">
<title>0&#45;&gt;3</title>
<path fill="none" stroke="black" d="M639.91,-92C592.17,-77.14 510.65,-51.76 457.42,-35.18"/>
<polygon fill="black" stroke="black" points="458.41,-31.83 447.82,-32.19 456.33,-38.51 458.41,-31.83"/>
<text text-anchor="middle" x="573.94" y="-57.8" font-family="Times New Roman,serif" font-size="14.00">0.062</text>
</g>
<!-- 4 -->
<g id="node5" class="node">
<title>4</title>
<g id="a_node5"><a xlink:href="from_accountant.svg" xlink:title="accountant">
<ellipse fill="none" stroke="black" cx="542.44" cy="-18" rx="50.09" ry="18"/>
<text text-anchor="middle" x="542.44" y="-14.3" font-family="Times New Roman,serif" font-size="14.00">accountant</text>
</a>
</g>
</g>
<!-- 0&#45;&gt;4 -->
<g id="edge5" class="edge">
<title>0&#45;&gt;4</title>
<path fill="none" stroke="black" d="M654.13,-88.8C632.08,-75.02 599.41,-54.6 575.09,-39.41"/>
<polygon fill="black" stroke="black" points="576.88,-36.4 566.55,-34.06 573.17,-42.33 576.88,-36.4"/>
<text text-anchor="middle" x="634.94" y="-57.8" font-family="Times New Roman,serif" font-size="14.00">0.046</text>
</g>
<!-- 5 -->
<g id="node6" class="node">
<title>5</title>
<g id="a_node6"><a xlink:href="from_housing adviser.svg" xlink:title="housing adviser">
<ellipse fill="none" stroke="black" cx="678.44" cy="-18" rx="67.69" ry="18"/>
<text text-anchor="middle" x="678.44" y="-14.3" font-family="Times New Roman,serif" font-size="14.00">housing adviser</text>
</a>
</g>
</g>
<!-- 0&#45;&gt;5 -->
<g id="edge6" class="edge">
<title>0&#45;&gt;5</title>
<path fill="none" stroke="black" d="M678.44,-86.8C678.44,-75.16 678.44,-59.55 678.44,-46.24"/>
<polygon fill="black" stroke="black" points="681.94,-46.18 678.44,-36.18 674.94,-46.18 681.94,-46.18"/>
<text text-anchor="middle" x="693.94" y="-57.8" font-family="Times New Roman,serif" font-size="14.00">0.046</text>
</g>
<!-- 6 -->
<g id="node7" class="node">
<title>6</title>
<g id="a_node7"><a xlink:href="from_qa analyst.svg" xlink:title="qa analyst">
<ellipse fill="none" stroke="black" cx="810.44" cy="-18" rx="46.59" ry="18"/>
<text text-anchor="middle" x="810.44" y="-14.3" font-family="Times New Roman,serif" font-size="14.00">qa analyst</text>
</a>
</g>
</g>
<!-- 0&#45;&gt;6 -->
<g id="edge7" class="edge">
<title>0&#45;&gt;6</title>
<path fill="none" stroke="black" d="M702.35,-88.61C723.69,-74.86 755.12,-54.63 778.59,-39.51"/>
<polygon fill="black" stroke="black" points="780.65,-42.35 787.16,-33.99 776.86,-36.46 780.65,-42.35"/>
<text text-anchor="middle" x="767.94" y="-57.8" font-family="Times New Roman,serif" font-size="14.00">0.046</text>
</g>
<!-- 7 -->
<g id="node8" class="node">
<title>7</title>
<g id="a_node8"><a xlink:href="from_investment fund manager.svg" xlink:title="investment fund manager">
<ellipse fill="none" stroke="black" cx="976.44" cy="-18" rx="100.98" ry="18"/>
<text text-anchor="middle" x="976.44" y="-14.3" font-family="Times New Roman,serif" font-size="14.00">investment fund manager</text>
</a>
</g>
</g>
<!-- 0&#45;&gt;7 -->
<g id="edge8" class="edge">
<title>0&#45;&gt;7</title>
<path fill="none" stroke="black" d="M718.63,-92.54C769.24,-78.1 856.68,-53.16 915.53,-36.38"/>
<polygon fill="black" stroke="black" points="916.78,-39.66 925.44,-33.55 914.86,-32.93 916.78,-39.66"/>
<text text-anchor="middle" x="860.94" y="-57.8" font-family="Times New Roman,serif" font-size="14.00">0.031</text>
</g>
<!-- 8 -->
<g id="node9" class="node">
<title>8</title>
<g id="a_node9"><a xlink:href="from_it consultant.svg" xlink:title="it consultant">
<ellipse fill="none" stroke="black" cx="1149.44" cy="-18" rx="54.69" ry="18"/>
<text text-anchor="middle" x="1149.44" y="-14.3" font-family="Times New Roman,serif" font-size="14.00">it consultant</text>
</a>
</g>
</g>
<!-- 0&#45;&gt;8 -->
<g id="edge9" class="edge">
<title>0&#45;&gt;8</title>
<path fill="none" stroke="black" d="M728.68,-97.25C805.98,-86.5 958.56,-63.84 1086.44,-36 1090.8,-35.05 1095.3,-34 1099.8,-32.88"/>
<polygon fill="black" stroke="black" points="1100.77,-36.25 1109.6,-30.39 1099.04,-29.47 1100.77,-36.25"/>
<text text-anchor="middle" x="1001.94" y="-57.8" font-family="Times New Roman,serif" font-size="14.00">0.031</text>
</g>
<!-- 9 -->
<g id="node10" class="node">
<title>9</title>
<g id="a_node10"><a xlink:href="from_pharmacovigilance officer.svg" xlink:title="pharmacovigilance officer">
<ellipse fill="none" stroke="black" cx="1326.44" cy="-18" rx="104.78" ry="18"/>
<text text-anchor="middle" x="1326.44" y="-14.3" font-family="Times New Roman,serif" font-size="14.00">pharmacovigilance officer</text>
</a>
</g>
</g>
<!-- 0&#45;&gt;9 -->
<g id="edge10" class="edge">
<title>0&#45;&gt;9</title>
<path fill="none" stroke="black" d="M731.44,-99.6C798.94,-93.76 919.09,-82.6 1021.44,-69 1098.41,-58.77 1185.81,-44.13 1247.26,-33.34"/>
<polygon fill="black" stroke="black" points="1248.03,-36.75 1257.27,-31.57 1246.82,-29.86 1248.03,-36.75"/>
<text text-anchor="middle" x="1137.94" y="-57.8" font-family="Times New Roman,serif" font-size="14.00">0.031</text>
</g>
</g>
</svg>
