<?xml version="1.0" encoding="UTF-8" standalone="no"?>
<!DOCTYPE svg PUBLIC "-//W3C//DTD SVG 1.1//EN"
 "http://www.w3.org/Graphics/SVG/1.1/DTD/svg11.dtd">
<!-- Generated by graphviz version 2.44.1 (20200629.0800)
 -->
<!-- Title: television_production_assistant Pages: 1 -->
<svg width="1436pt" height="131pt"
 viewBox="0.00 0.00 1436.09 131.00" xmlns="http://www.w3.org/2000/svg" xmlns:xlink="http://www.w3.org/1999/xlink">
<g id="graph0" class="graph" transform="scale(1 1) rotate(0) translate(4 127)">
<title>television_production_assistant</title>
<polygon fill="white" stroke="transparent" points="-4,4 -4,-127 1432.09,-127 1432.09,4 -4,4"/>
<!-- 0 -->
<g id="node1" class="node">
<title>0</title>
<g id="a_node1"><a xlink:href="from_television production assistant.svg" xlink:title="television production assistant">
<ellipse fill="none" stroke="black" cx="780.19" cy="-105" rx="120.48" ry="18"/>
<text text-anchor="middle" x="780.19" y="-101.3" font-family="Times New Roman,serif" font-size="14.00">television production assistant</text>
</a>
</g>
</g>
<!-- 0&#45;&gt;0 -->
<g id="edge2" class="edge">
<title>0&#45;&gt;0</title>
<path fill="none" stroke="black" d="M890.55,-112.16C907.17,-111.06 918.43,-108.67 918.43,-105 918.43,-102.13 911.56,-100.05 900.62,-98.75"/>
<polygon fill="black" stroke="black" points="900.82,-95.25 890.55,-97.84 900.19,-102.22 900.82,-95.25"/>
<text text-anchor="middle" x="933.93" y="-101.3" font-family="Times New Roman,serif" font-size="14.00">0.158</text>
</g>
<!-- 1 -->
<g id="node2" class="node">
<title>1</title>
<g id="a_node2"><a xlink:href="from_production manager.svg" xlink:title="production manager">
<ellipse fill="none" stroke="black" cx="83.19" cy="-18" rx="83.39" ry="18"/>
<text text-anchor="middle" x="83.19" y="-14.3" font-family="Times New Roman,serif" font-size="14.00">production manager</text>
</a>
</g>
</g>
<!-- 0&#45;&gt;1 -->
<g id="edge1" class="edge">
<title>0&#45;&gt;1</title>
<path fill="none" stroke="black" d="M667.69,-98.55C578.57,-93.4 451.04,-84.14 340.19,-69 274.33,-60 199.84,-44.97 148.08,-33.73"/>
<polygon fill="black" stroke="black" points="148.56,-30.25 138.04,-31.53 147.06,-37.09 148.56,-30.25"/>
<text text-anchor="middle" x="355.69" y="-57.8" font-family="Times New Roman,serif" font-size="14.00">0.158</text>
</g>
<!-- 2 -->
<g id="node3" class="node">
<title>2</title>
<g id="a_node3"><a xlink:href="from_journalist.svg" xlink:title="journalist">
<ellipse fill="none" stroke="black" cx="228.19" cy="-18" rx="43.59" ry="18"/>
<text text-anchor="middle" x="228.19" y="-14.3" font-family="Times New Roman,serif" font-size="14.00">journalist</text>
</a>
</g>
</g>
<!-- 0&#45;&gt;2 -->
<g id="edge3" class="edge">
<title>0&#45;&gt;2</title>
<path fill="none" stroke="black" d="M677.71,-95.53C575.95,-85.84 415.96,-67.15 280.19,-36 276.8,-35.22 273.32,-34.32 269.84,-33.34"/>
<polygon fill="black" stroke="black" points="270.7,-29.95 260.11,-30.44 268.7,-36.65 270.7,-29.95"/>
<text text-anchor="middle" x="473.69" y="-57.8" font-family="Times New Roman,serif" font-size="14.00">0.046</text>
</g>
<!-- 3 -->
<g id="node4" class="node">
<title>3</title>
<g id="a_node4"><a xlink:href="from_education administrator.svg" xlink:title="education administrator">
<ellipse fill="none" stroke="black" cx="385.19" cy="-18" rx="95.58" ry="18"/>
<text text-anchor="middle" x="385.19" y="-14.3" font-family="Times New Roman,serif" font-size="14.00">education administrator</text>
</a>
</g>
</g>
<!-- 0&#45;&gt;3 -->
<g id="edge4" class="edge">
<title>0&#45;&gt;3</title>
<path fill="none" stroke="black" d="M714.52,-89.87C642.97,-74.47 528.94,-49.93 455.58,-34.15"/>
<polygon fill="black" stroke="black" points="456.02,-30.66 445.51,-31.98 454.55,-37.5 456.02,-30.66"/>
<text text-anchor="middle" x="622.69" y="-57.8" font-family="Times New Roman,serif" font-size="14.00">0.037</text>
</g>
<!-- 4 -->
<g id="node5" class="node">
<title>4</title>
<g id="a_node5"><a xlink:href="from_marketing assistant.svg" xlink:title="marketing assistant">
<ellipse fill="none" stroke="black" cx="578.19" cy="-18" rx="79.09" ry="18"/>
<text text-anchor="middle" x="578.19" y="-14.3" font-family="Times New Roman,serif" font-size="14.00">marketing assistant</text>
</a>
</g>
</g>
<!-- 0&#45;&gt;4 -->
<g id="edge5" class="edge">
<title>0&#45;&gt;4</title>
<path fill="none" stroke="black" d="M741.72,-87.81C708.14,-73.68 659.34,-53.15 623.8,-38.19"/>
<polygon fill="black" stroke="black" points="624.72,-34.78 614.15,-34.13 622,-41.23 624.72,-34.78"/>
<text text-anchor="middle" x="707.69" y="-57.8" font-family="Times New Roman,serif" font-size="14.00">0.037</text>
</g>
<!-- 5 -->
<g id="node6" class="node">
<title>5</title>
<g id="a_node6"><a xlink:href="from_pharmacovigilance officer.svg" xlink:title="pharmacovigilance officer">
<ellipse fill="none" stroke="black" cx="780.19" cy="-18" rx="104.78" ry="18"/>
<text text-anchor="middle" x="780.19" y="-14.3" font-family="Times New Roman,serif" font-size="14.00">pharmacovigilance officer</text>
</a>
</g>
</g>
<!-- 0&#45;&gt;5 -->
<g id="edge6" class="edge">
<title>0&#45;&gt;5</title>
<path fill="none" stroke="black" d="M780.19,-86.8C780.19,-75.16 780.19,-59.55 780.19,-46.24"/>
<polygon fill="black" stroke="black" points="783.69,-46.18 780.19,-36.18 776.69,-46.18 783.69,-46.18"/>
<text text-anchor="middle" x="795.69" y="-57.8" font-family="Times New Roman,serif" font-size="14.00">0.037</text>
</g>
<!-- 6 -->
<g id="node7" class="node">
<title>6</title>
<g id="a_node7"><a xlink:href="from_animator.svg" xlink:title="animator">
<ellipse fill="none" stroke="black" cx="945.19" cy="-18" rx="42.49" ry="18"/>
<text text-anchor="middle" x="945.19" y="-14.3" font-family="Times New Roman,serif" font-size="14.00">animator</text>
</a>
</g>
</g>
<!-- 0&#45;&gt;6 -->
<g id="edge7" class="edge">
<title>0&#45;&gt;6</title>
<path fill="none" stroke="black" d="M812.01,-87.61C840.23,-73.07 881.37,-51.88 910.45,-36.9"/>
<polygon fill="black" stroke="black" points="912.15,-39.96 919.43,-32.27 908.94,-33.74 912.15,-39.96"/>
<text text-anchor="middle" x="888.69" y="-57.8" font-family="Times New Roman,serif" font-size="14.00">0.028</text>
</g>
<!-- 7 -->
<g id="node8" class="node">
<title>7</title>
<g id="a_node8"><a xlink:href="from_office manager.svg" xlink:title="office manager">
<ellipse fill="none" stroke="black" cx="1070.19" cy="-18" rx="64.19" ry="18"/>
<text text-anchor="middle" x="1070.19" y="-14.3" font-family="Times New Roman,serif" font-size="14.00">office manager</text>
</a>
</g>
</g>
<!-- 0&#45;&gt;7 -->
<g id="edge8" class="edge">
<title>0&#45;&gt;7</title>
<path fill="none" stroke="black" d="M836.38,-89.06C858.77,-83 884.74,-75.82 908.19,-69 945.72,-58.08 987.89,-45.04 1019.8,-35.01"/>
<polygon fill="black" stroke="black" points="1020.87,-38.35 1029.36,-32.01 1018.77,-31.67 1020.87,-38.35"/>
<text text-anchor="middle" x="973.69" y="-57.8" font-family="Times New Roman,serif" font-size="14.00">0.028</text>
</g>
<!-- 8 -->
<g id="node9" class="node">
<title>8</title>
<g id="a_node9"><a xlink:href="from_photographer.svg" xlink:title="photographer">
<ellipse fill="none" stroke="black" cx="1212.19" cy="-18" rx="59.59" ry="18"/>
<text text-anchor="middle" x="1212.19" y="-14.3" font-family="Times New Roman,serif" font-size="14.00">photographer</text>
</a>
</g>
</g>
<!-- 0&#45;&gt;8 -->
<g id="edge9" class="edge">
<title>0&#45;&gt;8</title>
<path fill="none" stroke="black" d="M861.54,-91.68C901.32,-85.39 949.86,-77.32 993.19,-69 1060.23,-56.13 1076.71,-51.5 1143.19,-36 1147.9,-34.9 1152.78,-33.74 1157.68,-32.56"/>
<polygon fill="black" stroke="black" points="1158.8,-35.9 1167.69,-30.14 1157.15,-29.09 1158.8,-35.9"/>
<text text-anchor="middle" x="1081.69" y="-57.8" font-family="Times New Roman,serif" font-size="14.00">0.028</text>
</g>
<!-- 9 -->
<g id="node10" class="node">
<title>9</title>
<g id="a_node10"><a xlink:href="from_project manager.svg" xlink:title="project manager">
<ellipse fill="none" stroke="black" cx="1359.19" cy="-18" rx="68.79" ry="18"/>
<text text-anchor="middle" x="1359.19" y="-14.3" font-family="Times New Roman,serif" font-size="14.00">project manager</text>
</a>
</g>
</g>
<!-- 0&#45;&gt;9 -->
<g id="edge10" class="edge">
<title>0&#45;&gt;9</title>
<path fill="none" stroke="black" d="M880.2,-94.98C943.66,-88.8 1027.42,-79.77 1101.19,-69 1181.67,-57.25 1201.45,-52 1281.19,-36 1286.85,-34.86 1292.73,-33.65 1298.61,-32.41"/>
<polygon fill="black" stroke="black" points="1299.42,-35.82 1308.48,-30.31 1297.97,-28.97 1299.42,-35.82"/>
<text text-anchor="middle" x="1207.69" y="-57.8" font-family="Times New Roman,serif" font-size="14.00">0.028</text>
</g>
</g>
</svg>
