<?xml version="1.0" encoding="UTF-8" standalone="no"?>
<!DOCTYPE svg PUBLIC "-//W3C//DTD SVG 1.1//EN"
 "http://www.w3.org/Graphics/SVG/1.1/DTD/svg11.dtd">
<!-- Generated by graphviz version 2.44.1 (20200629.0800)
 -->
<!-- Title: commissioning_editor Pages: 1 -->
<svg width="1324pt" height="131pt"
 viewBox="0.00 0.00 1323.54 131.00" xmlns="http://www.w3.org/2000/svg" xmlns:xlink="http://www.w3.org/1999/xlink">
<g id="graph0" class="graph" transform="scale(1 1) rotate(0) translate(4 127)">
<title>commissioning_editor</title>
<polygon fill="white" stroke="transparent" points="-4,4 -4,-127 1319.54,-127 1319.54,4 -4,4"/>
<!-- 0 -->
<g id="node1" class="node">
<title>0</title>
<g id="a_node1"><a xlink:href="from_commissioning editor.svg" xlink:title="commissioning editor">
<ellipse fill="none" stroke="black" cx="756.19" cy="-105" rx="89.08" ry="18"/>
<text text-anchor="middle" x="756.19" y="-101.3" font-family="Times New Roman,serif" font-size="14.00">commissioning editor</text>
</a>
</g>
</g>
<!-- 0&#45;&gt;0 -->
<g id="edge1" class="edge">
<title>0&#45;&gt;0</title>
<path fill="none" stroke="black" d="M837.41,-112.47C852.56,-111.55 863.23,-109.06 863.23,-105 863.23,-101.92 857.11,-99.75 847.54,-98.47"/>
<polygon fill="black" stroke="black" points="847.69,-94.97 837.41,-97.53 847.04,-101.94 847.69,-94.97"/>
<text text-anchor="middle" x="878.73" y="-101.3" font-family="Times New Roman,serif" font-size="14.00">0.253</text>
</g>
<!-- 1 -->
<g id="node2" class="node">
<title>1</title>
<g id="a_node2"><a xlink:href="from_production manager.svg" xlink:title="production manager">
<ellipse fill="none" stroke="black" cx="83.19" cy="-18" rx="83.39" ry="18"/>
<text text-anchor="middle" x="83.19" y="-14.3" font-family="Times New Roman,serif" font-size="14.00">production manager</text>
</a>
</g>
</g>
<!-- 0&#45;&gt;1 -->
<g id="edge2" class="edge">
<title>0&#45;&gt;1</title>
<path fill="none" stroke="black" d="M676.17,-97.1C604.55,-90.68 496.73,-80.4 403.19,-69 301.56,-56.61 276.22,-52.64 175.19,-36 168.14,-34.84 160.8,-33.57 153.47,-32.28"/>
<polygon fill="black" stroke="black" points="153.97,-28.81 143.51,-30.49 152.73,-35.7 153.97,-28.81"/>
<text text-anchor="middle" x="418.69" y="-57.8" font-family="Times New Roman,serif" font-size="14.00">0.095</text>
</g>
<!-- 2 -->
<g id="node3" class="node">
<title>2</title>
<g id="a_node3"><a xlink:href="from_content manager.svg" xlink:title="content manager">
<ellipse fill="none" stroke="black" cx="254.19" cy="-18" rx="70.39" ry="18"/>
<text text-anchor="middle" x="254.19" y="-14.3" font-family="Times New Roman,serif" font-size="14.00">content manager</text>
</a>
</g>
</g>
<!-- 0&#45;&gt;2 -->
<g id="edge3" class="edge">
<title>0&#45;&gt;2</title>
<path fill="none" stroke="black" d="M686.01,-93.87C601.94,-81.47 456.92,-59.24 333.19,-36 327.45,-34.92 321.49,-33.74 315.53,-32.53"/>
<polygon fill="black" stroke="black" points="316.04,-29.06 305.53,-30.46 314.61,-35.91 316.04,-29.06"/>
<text text-anchor="middle" x="534.69" y="-57.8" font-family="Times New Roman,serif" font-size="14.00">0.079</text>
</g>
<!-- 3 -->
<g id="node4" class="node">
<title>3</title>
<g id="a_node4"><a xlink:href="from_pharmacovigilance officer.svg" xlink:title="pharmacovigilance officer">
<ellipse fill="none" stroke="black" cx="447.19" cy="-18" rx="104.78" ry="18"/>
<text text-anchor="middle" x="447.19" y="-14.3" font-family="Times New Roman,serif" font-size="14.00">pharmacovigilance officer</text>
</a>
</g>
</g>
<!-- 0&#45;&gt;3 -->
<g id="edge4" class="edge">
<title>0&#45;&gt;3</title>
<path fill="none" stroke="black" d="M705.51,-90.06C652.02,-75.34 567.63,-52.13 509.96,-36.27"/>
<polygon fill="black" stroke="black" points="510.8,-32.87 500.23,-33.59 508.94,-39.62 510.8,-32.87"/>
<text text-anchor="middle" x="636.69" y="-57.8" font-family="Times New Roman,serif" font-size="14.00">0.063</text>
</g>
<!-- 4 -->
<g id="node5" class="node">
<title>4</title>
<g id="a_node5"><a xlink:href="from_journalist.svg" xlink:title="journalist">
<ellipse fill="none" stroke="black" cx="613.19" cy="-18" rx="43.59" ry="18"/>
<text text-anchor="middle" x="613.19" y="-14.3" font-family="Times New Roman,serif" font-size="14.00">journalist</text>
</a>
</g>
</g>
<!-- 0&#45;&gt;4 -->
<g id="edge5" class="edge">
<title>0&#45;&gt;4</title>
<path fill="none" stroke="black" d="M728.96,-87.81C705.29,-73.74 670.94,-53.33 645.81,-38.39"/>
<polygon fill="black" stroke="black" points="647.39,-35.25 637,-33.15 643.81,-41.27 647.39,-35.25"/>
<text text-anchor="middle" x="709.69" y="-57.8" font-family="Times New Roman,serif" font-size="14.00">0.047</text>
</g>
<!-- 5 -->
<g id="node6" class="node">
<title>5</title>
<g id="a_node6"><a xlink:href="from_marketing executive.svg" xlink:title="marketing executive">
<ellipse fill="none" stroke="black" cx="756.19" cy="-18" rx="81.79" ry="18"/>
<text text-anchor="middle" x="756.19" y="-14.3" font-family="Times New Roman,serif" font-size="14.00">marketing executive</text>
</a>
</g>
</g>
<!-- 0&#45;&gt;5 -->
<g id="edge6" class="edge">
<title>0&#45;&gt;5</title>
<path fill="none" stroke="black" d="M756.19,-86.8C756.19,-75.16 756.19,-59.55 756.19,-46.24"/>
<polygon fill="black" stroke="black" points="759.69,-46.18 756.19,-36.18 752.69,-46.18 759.69,-46.18"/>
<text text-anchor="middle" x="771.69" y="-57.8" font-family="Times New Roman,serif" font-size="14.00">0.047</text>
</g>
<!-- 6 -->
<g id="node7" class="node">
<title>6</title>
<g id="a_node7"><a xlink:href="from_writer.svg" xlink:title="writer">
<ellipse fill="none" stroke="black" cx="887.19" cy="-18" rx="31.4" ry="18"/>
<text text-anchor="middle" x="887.19" y="-14.3" font-family="Times New Roman,serif" font-size="14.00">writer</text>
</a>
</g>
</g>
<!-- 0&#45;&gt;6 -->
<g id="edge7" class="edge">
<title>0&#45;&gt;6</title>
<path fill="none" stroke="black" d="M781.45,-87.61C803.5,-73.3 835.5,-52.54 858.51,-37.61"/>
<polygon fill="black" stroke="black" points="860.67,-40.38 867.15,-32 856.86,-34.51 860.67,-40.38"/>
<text text-anchor="middle" x="845.69" y="-57.8" font-family="Times New Roman,serif" font-size="14.00">0.047</text>
</g>
<!-- 7 -->
<g id="node8" class="node">
<title>7</title>
<g id="a_node8"><a xlink:href="from_facilities manager.svg" xlink:title="facilities manager">
<ellipse fill="none" stroke="black" cx="1009.19" cy="-18" rx="72.59" ry="18"/>
<text text-anchor="middle" x="1009.19" y="-14.3" font-family="Times New Roman,serif" font-size="14.00">facilities manager</text>
</a>
</g>
</g>
<!-- 0&#45;&gt;7 -->
<g id="edge8" class="edge">
<title>0&#45;&gt;7</title>
<path fill="none" stroke="black" d="M802.15,-89.51C821.63,-83.3 844.55,-75.9 865.19,-69 896.74,-58.46 932.02,-46.22 959.76,-36.49"/>
<polygon fill="black" stroke="black" points="960.97,-39.77 969.24,-33.15 958.65,-33.17 960.97,-39.77"/>
<text text-anchor="middle" x="924.69" y="-57.8" font-family="Times New Roman,serif" font-size="14.00">0.031</text>
</g>
<!-- 8 -->
<g id="node9" class="node">
<title>8</title>
<g id="a_node9"><a xlink:href="from_lawyer.svg" xlink:title="lawyer">
<ellipse fill="none" stroke="black" cx="1134.19" cy="-18" rx="34.39" ry="18"/>
<text text-anchor="middle" x="1134.19" y="-14.3" font-family="Times New Roman,serif" font-size="14.00">lawyer</text>
</a>
</g>
</g>
<!-- 0&#45;&gt;8 -->
<g id="edge9" class="edge">
<title>0&#45;&gt;8</title>
<path fill="none" stroke="black" d="M826.49,-93.86C894.97,-83.03 1001.58,-63.59 1091.19,-36 1093.61,-35.26 1096.08,-34.44 1098.56,-33.57"/>
<polygon fill="black" stroke="black" points="1099.87,-36.82 1108.04,-30.09 1097.45,-30.25 1099.87,-36.82"/>
<text text-anchor="middle" x="1034.69" y="-57.8" font-family="Times New Roman,serif" font-size="14.00">0.031</text>
</g>
<!-- 9 -->
<g id="node10" class="node">
<title>9</title>
<g id="a_node10"><a xlink:href="from_office manager.svg" xlink:title="office manager">
<ellipse fill="none" stroke="black" cx="1251.19" cy="-18" rx="64.19" ry="18"/>
<text text-anchor="middle" x="1251.19" y="-14.3" font-family="Times New Roman,serif" font-size="14.00">office manager</text>
</a>
</g>
</g>
<!-- 0&#45;&gt;9 -->
<g id="edge10" class="edge">
<title>0&#45;&gt;9</title>
<path fill="none" stroke="black" d="M837.25,-97.39C897.43,-91.77 981.33,-82.47 1054.19,-69 1103.77,-59.84 1159.38,-45.33 1198.84,-34.29"/>
<polygon fill="black" stroke="black" points="1199.84,-37.65 1208.51,-31.57 1197.94,-30.91 1199.84,-37.65"/>
<text text-anchor="middle" x="1135.69" y="-57.8" font-family="Times New Roman,serif" font-size="14.00">0.031</text>
</g>
</g>
</svg>
