<?xml version="1.0" encoding="UTF-8" standalone="no"?>
<!DOCTYPE svg PUBLIC "-//W3C//DTD SVG 1.1//EN"
 "http://www.w3.org/Graphics/SVG/1.1/DTD/svg11.dtd">
<!-- Generated by graphviz version 2.44.1 (20200629.0800)
 -->
<!-- Title: economist Pages: 1 -->
<svg width="1551pt" height="131pt"
 viewBox="0.00 0.00 1551.04 131.00" xmlns="http://www.w3.org/2000/svg" xmlns:xlink="http://www.w3.org/1999/xlink">
<g id="graph0" class="graph" transform="scale(1 1) rotate(0) translate(4 127)">
<title>economist</title>
<polygon fill="white" stroke="transparent" points="-4,4 -4,-127 1547.04,-127 1547.04,4 -4,4"/>
<!-- 0 -->
<g id="node1" class="node">
<title>0</title>
<g id="a_node1"><a xlink:href="from_economist.svg" xlink:title="economist">
<ellipse fill="none" stroke="black" cx="854.44" cy="-105" rx="48.19" ry="18"/>
<text text-anchor="middle" x="854.44" y="-101.3" font-family="Times New Roman,serif" font-size="14.00">economist</text>
</a>
</g>
</g>
<!-- 0&#45;&gt;0 -->
<g id="edge1" class="edge">
<title>0&#45;&gt;0</title>
<path fill="none" stroke="black" d="M897.98,-112.85C910.69,-112.58 920.54,-109.96 920.54,-105 920.54,-101.51 915.67,-99.18 908.36,-98.01"/>
<polygon fill="black" stroke="black" points="908.24,-94.49 897.98,-97.15 907.66,-101.46 908.24,-94.49"/>
<text text-anchor="middle" x="933.04" y="-101.3" font-family="Times New Roman,serif" font-size="14.00">0.25</text>
</g>
<!-- 1 -->
<g id="node2" class="node">
<title>1</title>
<g id="a_node2"><a xlink:href="from_government research officer.svg" xlink:title="government research officer">
<ellipse fill="none" stroke="black" cx="112.44" cy="-18" rx="112.38" ry="18"/>
<text text-anchor="middle" x="112.44" y="-14.3" font-family="Times New Roman,serif" font-size="14.00">government research officer</text>
</a>
</g>
</g>
<!-- 0&#45;&gt;1 -->
<g id="edge2" class="edge">
<title>0&#45;&gt;1</title>
<path fill="none" stroke="black" d="M808.37,-99.6C742.19,-93.21 616.4,-80.84 509.44,-69 387.09,-55.45 356.52,-51.83 234.44,-36 224.4,-34.7 213.89,-33.3 203.44,-31.87"/>
<polygon fill="black" stroke="black" points="203.84,-28.4 193.46,-30.51 202.89,-35.33 203.84,-28.4"/>
<text text-anchor="middle" x="518.44" y="-57.8" font-family="Times New Roman,serif" font-size="14.00">0.2</text>
</g>
<!-- 2 -->
<g id="node3" class="node">
<title>2</title>
<g id="a_node3"><a xlink:href="from_public affairs consultant.svg" xlink:title="public affairs consultant">
<ellipse fill="none" stroke="black" cx="340.44" cy="-18" rx="97.48" ry="18"/>
<text text-anchor="middle" x="340.44" y="-14.3" font-family="Times New Roman,serif" font-size="14.00">public affairs consultant</text>
</a>
</g>
</g>
<!-- 0&#45;&gt;2 -->
<g id="edge3" class="edge">
<title>0&#45;&gt;2</title>
<path fill="none" stroke="black" d="M809.95,-98.04C761.53,-91.44 681.86,-80.23 613.44,-69 546.19,-57.96 469.91,-43.86 415.11,-33.44"/>
<polygon fill="black" stroke="black" points="415.61,-29.98 405.14,-31.54 414.3,-36.85 415.61,-29.98"/>
<text text-anchor="middle" x="622.44" y="-57.8" font-family="Times New Roman,serif" font-size="14.00">0.1</text>
</g>
<!-- 3 -->
<g id="node4" class="node">
<title>3</title>
<g id="a_node4"><a xlink:href="from_aid worker.svg" xlink:title="aid worker">
<ellipse fill="none" stroke="black" cx="505.44" cy="-18" rx="49.29" ry="18"/>
<text text-anchor="middle" x="505.44" y="-14.3" font-family="Times New Roman,serif" font-size="14.00">aid worker</text>
</a>
</g>
</g>
<!-- 0&#45;&gt;3 -->
<g id="edge4" class="edge">
<title>0&#45;&gt;3</title>
<path fill="none" stroke="black" d="M813.78,-95.25C757.36,-82.93 652.25,-59.37 563.44,-36 559.67,-35.01 555.77,-33.94 551.85,-32.85"/>
<polygon fill="black" stroke="black" points="552.75,-29.47 542.17,-30.1 550.84,-36.2 552.75,-29.47"/>
<text text-anchor="middle" x="703.94" y="-57.8" font-family="Times New Roman,serif" font-size="14.00">0.05</text>
</g>
<!-- 4 -->
<g id="node5" class="node">
<title>4</title>
<g id="a_node5"><a xlink:href="from_education administrator.svg" xlink:title="education administrator">
<ellipse fill="none" stroke="black" cx="668.44" cy="-18" rx="95.58" ry="18"/>
<text text-anchor="middle" x="668.44" y="-14.3" font-family="Times New Roman,serif" font-size="14.00">education administrator</text>
</a>
</g>
</g>
<!-- 0&#45;&gt;4 -->
<g id="edge5" class="edge">
<title>0&#45;&gt;4</title>
<path fill="none" stroke="black" d="M824.97,-90.53C794.72,-76.71 747.31,-55.04 712.59,-39.18"/>
<polygon fill="black" stroke="black" points="713.71,-35.84 703.16,-34.86 710.8,-42.2 713.71,-35.84"/>
<text text-anchor="middle" x="785.94" y="-57.8" font-family="Times New Roman,serif" font-size="14.00">0.05</text>
</g>
<!-- 5 -->
<g id="node6" class="node">
<title>5</title>
<g id="a_node6"><a xlink:href="from_facilities manager.svg" xlink:title="facilities manager">
<ellipse fill="none" stroke="black" cx="854.44" cy="-18" rx="72.59" ry="18"/>
<text text-anchor="middle" x="854.44" y="-14.3" font-family="Times New Roman,serif" font-size="14.00">facilities manager</text>
</a>
</g>
</g>
<!-- 0&#45;&gt;5 -->
<g id="edge6" class="edge">
<title>0&#45;&gt;5</title>
<path fill="none" stroke="black" d="M854.44,-86.8C854.44,-75.16 854.44,-59.55 854.44,-46.24"/>
<polygon fill="black" stroke="black" points="857.94,-46.18 854.44,-36.18 850.94,-46.18 857.94,-46.18"/>
<text text-anchor="middle" x="866.94" y="-57.8" font-family="Times New Roman,serif" font-size="14.00">0.05</text>
</g>
<!-- 6 -->
<g id="node7" class="node">
<title>6</title>
<g id="a_node7"><a xlink:href="from_financial manager.svg" xlink:title="financial manager">
<ellipse fill="none" stroke="black" cx="1018.44" cy="-18" rx="73.39" ry="18"/>
<text text-anchor="middle" x="1018.44" y="-14.3" font-family="Times New Roman,serif" font-size="14.00">financial manager</text>
</a>
</g>
</g>
<!-- 0&#45;&gt;6 -->
<g id="edge7" class="edge">
<title>0&#45;&gt;6</title>
<path fill="none" stroke="black" d="M881.52,-89.96C908.23,-76.12 949.34,-54.81 979.54,-39.16"/>
<polygon fill="black" stroke="black" points="981.27,-42.21 988.54,-34.5 978.05,-35.99 981.27,-42.21"/>
<text text-anchor="middle" x="958.94" y="-57.8" font-family="Times New Roman,serif" font-size="14.00">0.05</text>
</g>
<!-- 7 -->
<g id="node8" class="node">
<title>7</title>
<g id="a_node8"><a xlink:href="from_housing adviser.svg" xlink:title="housing adviser">
<ellipse fill="none" stroke="black" cx="1177.44" cy="-18" rx="67.69" ry="18"/>
<text text-anchor="middle" x="1177.44" y="-14.3" font-family="Times New Roman,serif" font-size="14.00">housing adviser</text>
</a>
</g>
</g>
<!-- 0&#45;&gt;7 -->
<g id="edge8" class="edge">
<title>0&#45;&gt;7</title>
<path fill="none" stroke="black" d="M892.76,-93.92C949.43,-79 1055.9,-50.98 1121.36,-33.76"/>
<polygon fill="black" stroke="black" points="1122.32,-37.12 1131.1,-31.2 1120.54,-30.36 1122.32,-37.12"/>
<text text-anchor="middle" x="1047.94" y="-57.8" font-family="Times New Roman,serif" font-size="14.00">0.05</text>
</g>
<!-- 8 -->
<g id="node9" class="node">
<title>8</title>
<g id="a_node9"><a xlink:href="from_investment analyst.svg" xlink:title="investment analyst">
<ellipse fill="none" stroke="black" cx="1339.44" cy="-18" rx="76.89" ry="18"/>
<text text-anchor="middle" x="1339.44" y="-14.3" font-family="Times New Roman,serif" font-size="14.00">investment analyst</text>
</a>
</g>
</g>
<!-- 0&#45;&gt;8 -->
<g id="edge9" class="edge">
<title>0&#45;&gt;8</title>
<path fill="none" stroke="black" d="M897.73,-97.11C971.21,-85.32 1124.96,-60.19 1254.44,-36 1260.56,-34.86 1266.91,-33.64 1273.28,-32.4"/>
<polygon fill="black" stroke="black" points="1274.1,-35.81 1283.24,-30.45 1272.75,-28.94 1274.1,-35.81"/>
<text text-anchor="middle" x="1157.94" y="-57.8" font-family="Times New Roman,serif" font-size="14.00">0.05</text>
</g>
<!-- 9 -->
<g id="node10" class="node">
<title>9</title>
<g id="a_node10"><a xlink:href="from_it consultant.svg" xlink:title="it consultant">
<ellipse fill="none" stroke="black" cx="1488.44" cy="-18" rx="54.69" ry="18"/>
<text text-anchor="middle" x="1488.44" y="-14.3" font-family="Times New Roman,serif" font-size="14.00">it consultant</text>
</a>
</g>
</g>
<!-- 0&#45;&gt;9 -->
<g id="edge10" class="edge">
<title>0&#45;&gt;9</title>
<path fill="none" stroke="black" d="M901.46,-100.91C999.6,-93.93 1233.07,-74.42 1425.44,-36 1429.87,-35.11 1434.45,-34.09 1439.03,-33"/>
<polygon fill="black" stroke="black" points="1440.12,-36.33 1448.97,-30.51 1438.42,-29.54 1440.12,-36.33"/>
<text text-anchor="middle" x="1329.94" y="-57.8" font-family="Times New Roman,serif" font-size="14.00">0.05</text>
</g>
</g>
</svg>
