<?xml version="1.0" encoding="UTF-8" standalone="no"?>
<!DOCTYPE svg PUBLIC "-//W3C//DTD SVG 1.1//EN"
 "http://www.w3.org/Graphics/SVG/1.1/DTD/svg11.dtd">
<!-- Generated by graphviz version 2.44.1 (20200629.0800)
 -->
<!-- Title: laboratory_technician Pages: 1 -->
<svg width="1509pt" height="131pt"
 viewBox="0.00 0.00 1509.43 131.00" xmlns="http://www.w3.org/2000/svg" xmlns:xlink="http://www.w3.org/1999/xlink">
<g id="graph0" class="graph" transform="scale(1 1) rotate(0) translate(4 127)">
<title>laboratory_technician</title>
<polygon fill="white" stroke="transparent" points="-4,4 -4,-127 1505.43,-127 1505.43,4 -4,4"/>
<!-- 0 -->
<g id="node1" class="node">
<title>0</title>
<g id="a_node1"><a xlink:href="from_laboratory technician.svg" xlink:title="laboratory technician">
<ellipse fill="none" stroke="black" cx="742.79" cy="-105" rx="86.38" ry="18"/>
<text text-anchor="middle" x="742.79" y="-101.3" font-family="Times New Roman,serif" font-size="14.00">laboratory technician</text>
</a>
</g>
</g>
<!-- 0&#45;&gt;0 -->
<g id="edge1" class="edge">
<title>0&#45;&gt;0</title>
<path fill="none" stroke="black" d="M821.59,-112.5C836.61,-111.6 847.24,-109.1 847.24,-105 847.24,-101.89 841.13,-99.7 831.64,-98.44"/>
<polygon fill="black" stroke="black" points="831.87,-94.94 821.59,-97.5 831.22,-101.91 831.87,-94.94"/>
<text text-anchor="middle" x="862.74" y="-101.3" font-family="Times New Roman,serif" font-size="14.00">0.191</text>
</g>
<!-- 1 -->
<g id="node2" class="node">
<title>1</title>
<g id="a_node2"><a xlink:href="from_research scientist.svg" xlink:title="research scientist">
<ellipse fill="none" stroke="black" cx="72.79" cy="-18" rx="72.59" ry="18"/>
<text text-anchor="middle" x="72.79" y="-14.3" font-family="Times New Roman,serif" font-size="14.00">research scientist</text>
</a>
</g>
</g>
<!-- 0&#45;&gt;1 -->
<g id="edge2" class="edge">
<title>0&#45;&gt;1</title>
<path fill="none" stroke="black" d="M663.94,-97.61C550.75,-87.82 335.86,-66.92 154.79,-36 148.59,-34.94 142.13,-33.75 135.69,-32.51"/>
<polygon fill="black" stroke="black" points="136.11,-29.02 125.62,-30.52 134.76,-35.89 136.11,-29.02"/>
<text text-anchor="middle" x="396.29" y="-57.8" font-family="Times New Roman,serif" font-size="14.00">0.070</text>
</g>
<!-- 2 -->
<g id="node3" class="node">
<title>2</title>
<g id="a_node3"><a xlink:href="from_software developer.svg" xlink:title="software developer">
<ellipse fill="none" stroke="black" cx="243.79" cy="-18" rx="79.89" ry="18"/>
<text text-anchor="middle" x="243.79" y="-14.3" font-family="Times New Roman,serif" font-size="14.00">software developer</text>
</a>
</g>
</g>
<!-- 0&#45;&gt;2 -->
<g id="edge3" class="edge">
<title>0&#45;&gt;2</title>
<path fill="none" stroke="black" d="M675.84,-93.6C632.23,-86.76 574.11,-77.54 522.79,-69 438.25,-54.93 417.11,-51.37 332.79,-36 326.24,-34.81 319.43,-33.54 312.61,-32.26"/>
<polygon fill="black" stroke="black" points="313.13,-28.8 302.65,-30.39 311.83,-35.68 313.13,-28.8"/>
<text text-anchor="middle" x="538.29" y="-57.8" font-family="Times New Roman,serif" font-size="14.00">0.070</text>
</g>
<!-- 3 -->
<g id="node4" class="node">
<title>3</title>
<g id="a_node4"><a xlink:href="from_project manager.svg" xlink:title="project manager">
<ellipse fill="none" stroke="black" cx="410.79" cy="-18" rx="68.79" ry="18"/>
<text text-anchor="middle" x="410.79" y="-14.3" font-family="Times New Roman,serif" font-size="14.00">project manager</text>
</a>
</g>
</g>
<!-- 0&#45;&gt;3 -->
<g id="edge4" class="edge">
<title>0&#45;&gt;3</title>
<path fill="none" stroke="black" d="M690.55,-90.63C629.97,-75.12 530.44,-49.63 467.87,-33.61"/>
<polygon fill="black" stroke="black" points="468.72,-30.22 458.16,-31.13 466.98,-37 468.72,-30.22"/>
<text text-anchor="middle" x="612.29" y="-57.8" font-family="Times New Roman,serif" font-size="14.00">0.060</text>
</g>
<!-- 4 -->
<g id="node5" class="node">
<title>4</title>
<g id="a_node5"><a xlink:href="from_mechanical engineer.svg" xlink:title="mechanical engineer">
<ellipse fill="none" stroke="black" cx="580.79" cy="-18" rx="83.39" ry="18"/>
<text text-anchor="middle" x="580.79" y="-14.3" font-family="Times New Roman,serif" font-size="14.00">mechanical engineer</text>
</a>
</g>
</g>
<!-- 0&#45;&gt;4 -->
<g id="edge5" class="edge">
<title>0&#45;&gt;4</title>
<path fill="none" stroke="black" d="M712.32,-88.01C686.19,-74.3 648.37,-54.46 619.98,-39.56"/>
<polygon fill="black" stroke="black" points="621.61,-36.46 611.13,-34.92 618.36,-42.66 621.61,-36.46"/>
<text text-anchor="middle" x="687.29" y="-57.8" font-family="Times New Roman,serif" font-size="14.00">0.040</text>
</g>
<!-- 5 -->
<g id="node6" class="node">
<title>5</title>
<g id="a_node6"><a xlink:href="from_sales manager.svg" xlink:title="sales manager">
<ellipse fill="none" stroke="black" cx="742.79" cy="-18" rx="61.19" ry="18"/>
<text text-anchor="middle" x="742.79" y="-14.3" font-family="Times New Roman,serif" font-size="14.00">sales manager</text>
</a>
</g>
</g>
<!-- 0&#45;&gt;5 -->
<g id="edge6" class="edge">
<title>0&#45;&gt;5</title>
<path fill="none" stroke="black" d="M742.79,-86.8C742.79,-75.16 742.79,-59.55 742.79,-46.24"/>
<polygon fill="black" stroke="black" points="746.29,-46.18 742.79,-36.18 739.29,-46.18 746.29,-46.18"/>
<text text-anchor="middle" x="758.29" y="-57.8" font-family="Times New Roman,serif" font-size="14.00">0.040</text>
</g>
<!-- 6 -->
<g id="node7" class="node">
<title>6</title>
<g id="a_node7"><a xlink:href="from_computer sales support.svg" xlink:title="computer sales support">
<ellipse fill="none" stroke="black" cx="917.79" cy="-18" rx="96.38" ry="18"/>
<text text-anchor="middle" x="917.79" y="-14.3" font-family="Times New Roman,serif" font-size="14.00">computer sales support</text>
</a>
</g>
</g>
<!-- 0&#45;&gt;6 -->
<g id="edge7" class="edge">
<title>0&#45;&gt;6</title>
<path fill="none" stroke="black" d="M775.3,-88.21C803.61,-74.46 844.83,-54.44 875.66,-39.47"/>
<polygon fill="black" stroke="black" points="877.4,-42.51 884.87,-34.99 874.34,-36.21 877.4,-42.51"/>
<text text-anchor="middle" x="856.29" y="-57.8" font-family="Times New Roman,serif" font-size="14.00">0.030</text>
</g>
<!-- 7 -->
<g id="node8" class="node">
<title>7</title>
<g id="a_node8"><a xlink:href="from_electrical engineer.svg" xlink:title="electrical engineer">
<ellipse fill="none" stroke="black" cx="1106.79" cy="-18" rx="74.99" ry="18"/>
<text text-anchor="middle" x="1106.79" y="-14.3" font-family="Times New Roman,serif" font-size="14.00">electrical engineer</text>
</a>
</g>
</g>
<!-- 0&#45;&gt;7 -->
<g id="edge8" class="edge">
<title>0&#45;&gt;7</title>
<path fill="none" stroke="black" d="M798.08,-91.09C864.61,-75.55 976,-49.54 1045.22,-33.38"/>
<polygon fill="black" stroke="black" points="1046.18,-36.75 1055.12,-31.07 1044.59,-29.93 1046.18,-36.75"/>
<text text-anchor="middle" x="962.29" y="-57.8" font-family="Times New Roman,serif" font-size="14.00">0.030</text>
</g>
<!-- 8 -->
<g id="node9" class="node">
<title>8</title>
<g id="a_node9"><a xlink:href="from_lecturer.svg" xlink:title="lecturer">
<ellipse fill="none" stroke="black" cx="1236.79" cy="-18" rx="37.89" ry="18"/>
<text text-anchor="middle" x="1236.79" y="-14.3" font-family="Times New Roman,serif" font-size="14.00">lecturer</text>
</a>
</g>
</g>
<!-- 0&#45;&gt;8 -->
<g id="edge9" class="edge">
<title>0&#45;&gt;8</title>
<path fill="none" stroke="black" d="M820.68,-97.17C910.85,-88.12 1063.29,-69.28 1190.79,-36 1193.57,-35.27 1196.42,-34.44 1199.27,-33.55"/>
<polygon fill="black" stroke="black" points="1200.49,-36.83 1208.86,-30.32 1198.26,-30.2 1200.49,-36.83"/>
<text text-anchor="middle" x="1122.29" y="-57.8" font-family="Times New Roman,serif" font-size="14.00">0.030</text>
</g>
<!-- 9 -->
<g id="node10" class="node">
<title>9</title>
<g id="a_node10"><a xlink:href="from_pharmacovigilance officer.svg" xlink:title="pharmacovigilance officer">
<ellipse fill="none" stroke="black" cx="1396.79" cy="-18" rx="104.78" ry="18"/>
<text text-anchor="middle" x="1396.79" y="-14.3" font-family="Times New Roman,serif" font-size="14.00">pharmacovigilance officer</text>
</a>
</g>
</g>
<!-- 0&#45;&gt;9 -->
<g id="edge10" class="edge">
<title>0&#45;&gt;9</title>
<path fill="none" stroke="black" d="M825.23,-99.33C906.12,-94.15 1032.84,-84.42 1141.79,-69 1204.61,-60.11 1275.36,-45.9 1326.37,-34.9"/>
<polygon fill="black" stroke="black" points="1327.27,-38.28 1336.3,-32.74 1325.79,-31.44 1327.27,-38.28"/>
<text text-anchor="middle" x="1242.29" y="-57.8" font-family="Times New Roman,serif" font-size="14.00">0.030</text>
</g>
</g>
</svg>
