<?xml version="1.0" encoding="UTF-8" standalone="no"?>
<!DOCTYPE svg PUBLIC "-//W3C//DTD SVG 1.1//EN"
 "http://www.w3.org/Graphics/SVG/1.1/DTD/svg11.dtd">
<!-- Generated by graphviz version 2.44.1 (20200629.0800)
 -->
<!-- Title: test Pages: 1 -->
<svg width="1446pt" height="131pt"
 viewBox="0.00 0.00 1446.39 131.00" xmlns="http://www.w3.org/2000/svg" xmlns:xlink="http://www.w3.org/1999/xlink">
<g id="graph0" class="graph" transform="scale(1 1) rotate(0) translate(4 127)">
<title>test</title>
<polygon fill="white" stroke="transparent" points="-4,4 -4,-127 1442.39,-127 1442.39,4 -4,4"/>
<!-- 0 -->
<g id="node1" class="node">
<title>0</title>
<g id="a_node1"><a xlink:href="from_logistics manager.svg" xlink:title="logistics manager">
<ellipse fill="none" stroke="black" cx="680.6" cy="-105" rx="73.39" ry="18"/>
<text text-anchor="middle" x="680.6" y="-101.3" font-family="Times New Roman,serif" font-size="14.00">logistics manager</text>
</a>
</g>
</g>
<!-- 0&#45;&gt;0 -->
<g id="edge1" class="edge">
<title>0&#45;&gt;0</title>
<path fill="none" stroke="black" d="M747.17,-112.64C761.59,-111.9 772.04,-109.35 772.04,-105 772.04,-101.74 766.16,-99.49 757.14,-98.26"/>
<polygon fill="black" stroke="black" points="757.45,-94.77 747.17,-97.36 756.82,-101.74 757.45,-94.77"/>
<text text-anchor="middle" x="787.54" y="-101.3" font-family="Times New Roman,serif" font-size="14.00">0.166</text>
</g>
<!-- 1 -->
<g id="node2" class="node">
<title>1</title>
<g id="a_node2"><a xlink:href="from_it consultant.svg" xlink:title="it consultant">
<ellipse fill="none" stroke="black" cx="54.6" cy="-18" rx="54.69" ry="18"/>
<text text-anchor="middle" x="54.6" y="-14.3" font-family="Times New Roman,serif" font-size="14.00">it consultant</text>
</a>
</g>
</g>
<!-- 0&#45;&gt;1 -->
<g id="edge2" class="edge">
<title>0&#45;&gt;1</title>
<path fill="none" stroke="black" d="M610.63,-99.41C503.56,-91.51 293.01,-72.58 117.6,-36 113.24,-35.09 108.73,-34.06 104.22,-32.97"/>
<polygon fill="black" stroke="black" points="104.97,-29.55 94.42,-30.49 103.26,-36.33 104.97,-29.55"/>
<text text-anchor="middle" x="318.1" y="-57.8" font-family="Times New Roman,serif" font-size="14.00">0.086</text>
</g>
<!-- 2 -->
<g id="node3" class="node">
<title>2</title>
<g id="a_node3"><a xlink:href="from_project manager.svg" xlink:title="project manager">
<ellipse fill="none" stroke="black" cx="195.6" cy="-18" rx="68.79" ry="18"/>
<text text-anchor="middle" x="195.6" y="-14.3" font-family="Times New Roman,serif" font-size="14.00">project manager</text>
</a>
</g>
</g>
<!-- 0&#45;&gt;2 -->
<g id="edge3" class="edge">
<title>0&#45;&gt;2</title>
<path fill="none" stroke="black" d="M619.36,-94.96C539.53,-82.9 395.68,-60.24 273.6,-36 267.93,-34.88 262.05,-33.67 256.17,-32.43"/>
<polygon fill="black" stroke="black" points="256.82,-28.99 246.31,-30.34 255.36,-35.84 256.82,-28.99"/>
<text text-anchor="middle" x="468.1" y="-57.8" font-family="Times New Roman,serif" font-size="14.00">0.086</text>
</g>
<!-- 3 -->
<g id="node4" class="node">
<title>3</title>
<g id="a_node4"><a xlink:href="from_sales manager.svg" xlink:title="sales manager">
<ellipse fill="none" stroke="black" cx="343.6" cy="-18" rx="61.19" ry="18"/>
<text text-anchor="middle" x="343.6" y="-14.3" font-family="Times New Roman,serif" font-size="14.00">sales manager</text>
</a>
</g>
</g>
<!-- 0&#45;&gt;3 -->
<g id="edge4" class="edge">
<title>0&#45;&gt;3</title>
<path fill="none" stroke="black" d="M631.23,-91.55C569.19,-75.9 463.04,-49.13 398.5,-32.85"/>
<polygon fill="black" stroke="black" points="399.06,-29.38 388.51,-30.33 397.35,-36.17 399.06,-29.38"/>
<text text-anchor="middle" x="548.1" y="-57.8" font-family="Times New Roman,serif" font-size="14.00">0.053</text>
</g>
<!-- 4 -->
<g id="node5" class="node">
<title>4</title>
<g id="a_node5"><a xlink:href="from_production manager.svg" xlink:title="production manager">
<ellipse fill="none" stroke="black" cx="505.6" cy="-18" rx="83.39" ry="18"/>
<text text-anchor="middle" x="505.6" y="-14.3" font-family="Times New Roman,serif" font-size="14.00">production manager</text>
</a>
</g>
</g>
<!-- 0&#45;&gt;4 -->
<g id="edge5" class="edge">
<title>0&#45;&gt;4</title>
<path fill="none" stroke="black" d="M648.9,-88.61C620.43,-74.78 578.42,-54.37 547.24,-39.23"/>
<polygon fill="black" stroke="black" points="548.46,-35.93 537.94,-34.71 545.4,-42.23 548.46,-35.93"/>
<text text-anchor="middle" x="619.1" y="-57.8" font-family="Times New Roman,serif" font-size="14.00">0.048</text>
</g>
<!-- 5 -->
<g id="node6" class="node">
<title>5</title>
<g id="a_node6"><a xlink:href="from_financial manager.svg" xlink:title="financial manager">
<ellipse fill="none" stroke="black" cx="680.6" cy="-18" rx="73.39" ry="18"/>
<text text-anchor="middle" x="680.6" y="-14.3" font-family="Times New Roman,serif" font-size="14.00">financial manager</text>
</a>
</g>
</g>
<!-- 0&#45;&gt;5 -->
<g id="edge6" class="edge">
<title>0&#45;&gt;5</title>
<path fill="none" stroke="black" d="M680.6,-86.8C680.6,-75.16 680.6,-59.55 680.6,-46.24"/>
<polygon fill="black" stroke="black" points="684.1,-46.18 680.6,-36.18 677.1,-46.18 684.1,-46.18"/>
<text text-anchor="middle" x="696.1" y="-57.8" font-family="Times New Roman,serif" font-size="14.00">0.037</text>
</g>
<!-- 6 -->
<g id="node7" class="node">
<title>6</title>
<g id="a_node7"><a xlink:href="from_sales executive.svg" xlink:title="sales executive">
<ellipse fill="none" stroke="black" cx="836.6" cy="-18" rx="64.19" ry="18"/>
<text text-anchor="middle" x="836.6" y="-14.3" font-family="Times New Roman,serif" font-size="14.00">sales executive</text>
</a>
</g>
</g>
<!-- 0&#45;&gt;6 -->
<g id="edge7" class="edge">
<title>0&#45;&gt;6</title>
<path fill="none" stroke="black" d="M709.21,-88.41C734.58,-74.59 771.78,-54.31 799.44,-39.24"/>
<polygon fill="black" stroke="black" points="801.32,-42.21 808.43,-34.35 797.97,-36.06 801.32,-42.21"/>
<text text-anchor="middle" x="784.1" y="-57.8" font-family="Times New Roman,serif" font-size="14.00">0.037</text>
</g>
<!-- 7 -->
<g id="node8" class="node">
<title>7</title>
<g id="a_node8"><a xlink:href="from_pharmacovigilance officer.svg" xlink:title="pharmacovigilance officer">
<ellipse fill="none" stroke="black" cx="1023.6" cy="-18" rx="104.78" ry="18"/>
<text text-anchor="middle" x="1023.6" y="-14.3" font-family="Times New Roman,serif" font-size="14.00">pharmacovigilance officer</text>
</a>
</g>
</g>
<!-- 0&#45;&gt;7 -->
<g id="edge8" class="edge">
<title>0&#45;&gt;7</title>
<path fill="none" stroke="black" d="M730.47,-91.64C790.12,-76.86 890.2,-52.06 956.57,-35.61"/>
<polygon fill="black" stroke="black" points="957.65,-38.95 966.51,-33.15 955.96,-32.15 957.65,-38.95"/>
<text text-anchor="middle" x="889.1" y="-57.8" font-family="Times New Roman,serif" font-size="14.00">0.032</text>
</g>
<!-- 8 -->
<g id="node9" class="node">
<title>8</title>
<g id="a_node9"><a xlink:href="from_brand manager.svg" xlink:title="brand manager">
<ellipse fill="none" stroke="black" cx="1210.6" cy="-18" rx="64.19" ry="18"/>
<text text-anchor="middle" x="1210.6" y="-14.3" font-family="Times New Roman,serif" font-size="14.00">brand manager</text>
</a>
</g>
</g>
<!-- 0&#45;&gt;8 -->
<g id="edge9" class="edge">
<title>0&#45;&gt;8</title>
<path fill="none" stroke="black" d="M744.83,-96.11C833.52,-84.84 998.32,-62.53 1137.6,-36 1142.95,-34.98 1148.5,-33.84 1154.05,-32.64"/>
<polygon fill="black" stroke="black" points="1154.97,-36.02 1163.98,-30.45 1153.46,-29.19 1154.97,-36.02"/>
<text text-anchor="middle" x="1041.1" y="-57.8" font-family="Times New Roman,serif" font-size="14.00">0.026</text>
</g>
<!-- 9 -->
<g id="node10" class="node">
<title>9</title>
<g id="a_node10"><a xlink:href="from_facilities manager.svg" xlink:title="facilities manager">
<ellipse fill="none" stroke="black" cx="1365.6" cy="-18" rx="72.59" ry="18"/>
<text text-anchor="middle" x="1365.6" y="-14.3" font-family="Times New Roman,serif" font-size="14.00">facilities manager</text>
</a>
</g>
</g>
<!-- 0&#45;&gt;9 -->
<g id="edge10" class="edge">
<title>0&#45;&gt;9</title>
<path fill="none" stroke="black" d="M749.71,-98.78C825.96,-92.76 952.22,-82 1060.6,-69 1160.07,-57.07 1184.95,-53.51 1283.6,-36 1289.8,-34.9 1296.24,-33.68 1302.68,-32.43"/>
<polygon fill="black" stroke="black" points="1303.62,-35.81 1312.75,-30.42 1302.26,-28.94 1303.62,-35.81"/>
<text text-anchor="middle" x="1192.1" y="-57.8" font-family="Times New Roman,serif" font-size="14.00">0.026</text>
</g>
</g>
</svg>
