<?xml version="1.0" encoding="UTF-8" standalone="no"?>
<!DOCTYPE svg PUBLIC "-//W3C//DTD SVG 1.1//EN"
 "http://www.w3.org/Graphics/SVG/1.1/DTD/svg11.dtd">
<!-- Generated by graphviz version 2.44.1 (20200629.0800)
 -->
<!-- Title: marketing_assistant Pages: 1 -->
<svg width="1417pt" height="131pt"
 viewBox="0.00 0.00 1417.44 131.00" xmlns="http://www.w3.org/2000/svg" xmlns:xlink="http://www.w3.org/1999/xlink">
<g id="graph0" class="graph" transform="scale(1 1) rotate(0) translate(4 127)">
<title>marketing_assistant</title>
<polygon fill="white" stroke="transparent" points="-4,4 -4,-127 1413.44,-127 1413.44,4 -4,4"/>
<!-- 0 -->
<g id="node1" class="node">
<title>0</title>
<g id="a_node1"><a xlink:href="from_marketing assistant.svg" xlink:title="marketing assistant">
<ellipse fill="none" stroke="black" cx="690.89" cy="-105" rx="79.09" ry="18"/>
<text text-anchor="middle" x="690.89" y="-101.3" font-family="Times New Roman,serif" font-size="14.00">marketing assistant</text>
</a>
</g>
</g>
<!-- 0&#45;&gt;0 -->
<g id="edge1" class="edge">
<title>0&#45;&gt;0</title>
<path fill="none" stroke="black" d="M763.02,-112.57C777.69,-111.75 788.19,-109.22 788.19,-105 788.19,-101.83 782.28,-99.62 773.14,-98.36"/>
<polygon fill="black" stroke="black" points="773.3,-94.86 763.02,-97.43 772.66,-101.83 773.3,-94.86"/>
<text text-anchor="middle" x="803.69" y="-101.3" font-family="Times New Roman,serif" font-size="14.00">0.259</text>
</g>
<!-- 1 -->
<g id="node2" class="node">
<title>1</title>
<g id="a_node2"><a xlink:href="from_marketing executive.svg" xlink:title="marketing executive">
<ellipse fill="none" stroke="black" cx="81.89" cy="-18" rx="81.79" ry="18"/>
<text text-anchor="middle" x="81.89" y="-14.3" font-family="Times New Roman,serif" font-size="14.00">marketing executive</text>
</a>
</g>
</g>
<!-- 0&#45;&gt;1 -->
<g id="edge2" class="edge">
<title>0&#45;&gt;1</title>
<path fill="none" stroke="black" d="M618.94,-97.3C553.99,-90.97 455.87,-80.72 370.89,-69 282.52,-56.81 260.75,-51.53 172.89,-36 166.19,-34.82 159.22,-33.56 152.25,-32.29"/>
<polygon fill="black" stroke="black" points="152.54,-28.78 142.07,-30.41 151.27,-35.66 152.54,-28.78"/>
<text text-anchor="middle" x="386.39" y="-57.8" font-family="Times New Roman,serif" font-size="14.00">0.220</text>
</g>
<!-- 2 -->
<g id="node3" class="node">
<title>2</title>
<g id="a_node3"><a xlink:href="from_sales manager.svg" xlink:title="sales manager">
<ellipse fill="none" stroke="black" cx="242.89" cy="-18" rx="61.19" ry="18"/>
<text text-anchor="middle" x="242.89" y="-14.3" font-family="Times New Roman,serif" font-size="14.00">sales manager</text>
</a>
</g>
</g>
<!-- 0&#45;&gt;2 -->
<g id="edge3" class="edge">
<title>0&#45;&gt;2</title>
<path fill="none" stroke="black" d="M627.77,-93.98C552.51,-81.74 423.06,-59.69 312.89,-36 307.98,-34.94 302.88,-33.8 297.77,-32.62"/>
<polygon fill="black" stroke="black" points="298.53,-29.2 288,-30.33 296.93,-36.02 298.53,-29.2"/>
<text text-anchor="middle" x="494.39" y="-57.8" font-family="Times New Roman,serif" font-size="14.00">0.063</text>
</g>
<!-- 3 -->
<g id="node4" class="node">
<title>3</title>
<g id="a_node4"><a xlink:href="from_project manager.svg" xlink:title="project manager">
<ellipse fill="none" stroke="black" cx="390.89" cy="-18" rx="68.79" ry="18"/>
<text text-anchor="middle" x="390.89" y="-14.3" font-family="Times New Roman,serif" font-size="14.00">project manager</text>
</a>
</g>
</g>
<!-- 0&#45;&gt;3 -->
<g id="edge4" class="edge">
<title>0&#45;&gt;3</title>
<path fill="none" stroke="black" d="M643.36,-90.53C589.58,-75.3 502.16,-50.53 445.6,-34.5"/>
<polygon fill="black" stroke="black" points="446.33,-31.07 435.76,-31.71 444.42,-37.8 446.33,-31.07"/>
<text text-anchor="middle" x="574.39" y="-57.8" font-family="Times New Roman,serif" font-size="14.00">0.038</text>
</g>
<!-- 4 -->
<g id="node5" class="node">
<title>4</title>
<g id="a_node5"><a xlink:href="from_content manager.svg" xlink:title="content manager">
<ellipse fill="none" stroke="black" cx="547.89" cy="-18" rx="70.39" ry="18"/>
<text text-anchor="middle" x="547.89" y="-14.3" font-family="Times New Roman,serif" font-size="14.00">content manager</text>
</a>
</g>
</g>
<!-- 0&#45;&gt;4 -->
<g id="edge5" class="edge">
<title>0&#45;&gt;4</title>
<path fill="none" stroke="black" d="M664,-88.01C641.23,-74.48 608.41,-54.97 583.47,-40.15"/>
<polygon fill="black" stroke="black" points="585.05,-37.02 574.67,-34.92 581.48,-43.03 585.05,-37.02"/>
<text text-anchor="middle" x="644.39" y="-57.8" font-family="Times New Roman,serif" font-size="14.00">0.029</text>
</g>
<!-- 5 -->
<g id="node6" class="node">
<title>5</title>
<g id="a_node6"><a xlink:href="from_it consultant.svg" xlink:title="it consultant">
<ellipse fill="none" stroke="black" cx="690.89" cy="-18" rx="54.69" ry="18"/>
<text text-anchor="middle" x="690.89" y="-14.3" font-family="Times New Roman,serif" font-size="14.00">it consultant</text>
</a>
</g>
</g>
<!-- 0&#45;&gt;5 -->
<g id="edge6" class="edge">
<title>0&#45;&gt;5</title>
<path fill="none" stroke="black" d="M690.89,-86.8C690.89,-75.16 690.89,-59.55 690.89,-46.24"/>
<polygon fill="black" stroke="black" points="694.39,-46.18 690.89,-36.18 687.39,-46.18 694.39,-46.18"/>
<text text-anchor="middle" x="706.39" y="-57.8" font-family="Times New Roman,serif" font-size="14.00">0.022</text>
</g>
<!-- 6 -->
<g id="node7" class="node">
<title>6</title>
<g id="a_node7"><a xlink:href="from_production manager.svg" xlink:title="production manager">
<ellipse fill="none" stroke="black" cx="846.89" cy="-18" rx="83.39" ry="18"/>
<text text-anchor="middle" x="846.89" y="-14.3" font-family="Times New Roman,serif" font-size="14.00">production manager</text>
</a>
</g>
</g>
<!-- 0&#45;&gt;6 -->
<g id="edge7" class="edge">
<title>0&#45;&gt;6</title>
<path fill="none" stroke="black" d="M719.87,-88.21C744.89,-74.58 781.21,-54.79 808.62,-39.85"/>
<polygon fill="black" stroke="black" points="810.44,-42.85 817.54,-34.99 807.09,-36.7 810.44,-42.85"/>
<text text-anchor="middle" x="794.39" y="-57.8" font-family="Times New Roman,serif" font-size="14.00">0.022</text>
</g>
<!-- 7 -->
<g id="node8" class="node">
<title>7</title>
<g id="a_node8"><a xlink:href="from_brand manager.svg" xlink:title="brand manager">
<ellipse fill="none" stroke="black" cx="1012.89" cy="-18" rx="64.19" ry="18"/>
<text text-anchor="middle" x="1012.89" y="-14.3" font-family="Times New Roman,serif" font-size="14.00">brand manager</text>
</a>
</g>
</g>
<!-- 0&#45;&gt;7 -->
<g id="edge8" class="edge">
<title>0&#45;&gt;7</title>
<path fill="none" stroke="black" d="M740.5,-90.91C799.32,-75.38 897.06,-49.58 958.07,-33.47"/>
<polygon fill="black" stroke="black" points="959.13,-36.81 967.91,-30.87 957.35,-30.04 959.13,-36.81"/>
<text text-anchor="middle" x="887.39" y="-57.8" font-family="Times New Roman,serif" font-size="14.00">0.020</text>
</g>
<!-- 8 -->
<g id="node9" class="node">
<title>8</title>
<g id="a_node9"><a xlink:href="from_pharmacovigilance officer.svg" xlink:title="pharmacovigilance officer">
<ellipse fill="none" stroke="black" cx="1199.89" cy="-18" rx="104.78" ry="18"/>
<text text-anchor="middle" x="1199.89" y="-14.3" font-family="Times New Roman,serif" font-size="14.00">pharmacovigilance officer</text>
</a>
</g>
</g>
<!-- 0&#45;&gt;8 -->
<g id="edge9" class="edge">
<title>0&#45;&gt;8</title>
<path fill="none" stroke="black" d="M753.77,-93.95C796.88,-87.03 855.37,-77.57 906.89,-69 978.59,-57.07 1060.09,-43.13 1118.9,-33.01"/>
<polygon fill="black" stroke="black" points="1119.61,-36.44 1128.87,-31.29 1118.42,-29.54 1119.61,-36.44"/>
<text text-anchor="middle" x="1011.39" y="-57.8" font-family="Times New Roman,serif" font-size="14.00">0.020</text>
</g>
<!-- 9 -->
<g id="node10" class="node">
<title>9</title>
<g id="a_node10"><a xlink:href="from_secretary.svg" xlink:title="secretary">
<ellipse fill="none" stroke="black" cx="1365.89" cy="-18" rx="43.59" ry="18"/>
<text text-anchor="middle" x="1365.89" y="-14.3" font-family="Times New Roman,serif" font-size="14.00">secretary</text>
</a>
</g>
</g>
<!-- 0&#45;&gt;9 -->
<g id="edge10" class="edge">
<title>0&#45;&gt;9</title>
<path fill="none" stroke="black" d="M768.48,-100.88C887.19,-94.91 1120.48,-78.45 1313.89,-36 1317.34,-35.24 1320.88,-34.35 1324.41,-33.37"/>
<polygon fill="black" stroke="black" points="1325.68,-36.65 1334.27,-30.45 1323.69,-29.94 1325.68,-36.65"/>
<text text-anchor="middle" x="1229.39" y="-57.8" font-family="Times New Roman,serif" font-size="14.00">0.020</text>
</g>
</g>
</svg>
