<?xml version="1.0" encoding="UTF-8" standalone="no"?>
<!DOCTYPE svg PUBLIC "-//W3C//DTD SVG 1.1//EN"
 "http://www.w3.org/Graphics/SVG/1.1/DTD/svg11.dtd">
<!-- Generated by graphviz version 2.44.1 (20200629.0800)
 -->
<!-- Title: lawyer Pages: 1 -->
<svg width="1438pt" height="131pt"
 viewBox="0.00 0.00 1438.28 131.00" xmlns="http://www.w3.org/2000/svg" xmlns:xlink="http://www.w3.org/1999/xlink">
<g id="graph0" class="graph" transform="scale(1 1) rotate(0) translate(4 127)">
<title>lawyer</title>
<polygon fill="white" stroke="transparent" points="-4,4 -4,-127 1434.28,-127 1434.28,4 -4,4"/>
<!-- 0 -->
<g id="node1" class="node">
<title>0</title>
<g id="a_node1"><a xlink:href="from_lawyer.svg" xlink:title="lawyer">
<ellipse fill="none" stroke="black" cx="626.64" cy="-105" rx="34.39" ry="18"/>
<text text-anchor="middle" x="626.64" y="-101.3" font-family="Times New Roman,serif" font-size="14.00">lawyer</text>
</a>
</g>
</g>
<!-- 0&#45;&gt;0 -->
<g id="edge1" class="edge">
<title>0&#45;&gt;0</title>
<path fill="none" stroke="black" d="M657.87,-112.86C669.51,-113.12 679.09,-110.5 679.09,-105 679.09,-101.22 674.56,-98.8 667.95,-97.74"/>
<polygon fill="black" stroke="black" points="668.06,-94.24 657.87,-97.14 667.64,-101.23 668.06,-94.24"/>
<text text-anchor="middle" x="694.59" y="-101.3" font-family="Times New Roman,serif" font-size="14.00">0.445</text>
</g>
<!-- 1 -->
<g id="node2" class="node">
<title>1</title>
<g id="a_node2"><a xlink:href="from_pharmacovigilance officer.svg" xlink:title="pharmacovigilance officer">
<ellipse fill="none" stroke="black" cx="104.64" cy="-18" rx="104.78" ry="18"/>
<text text-anchor="middle" x="104.64" y="-14.3" font-family="Times New Roman,serif" font-size="14.00">pharmacovigilance officer</text>
</a>
</g>
</g>
<!-- 0&#45;&gt;1 -->
<g id="edge2" class="edge">
<title>0&#45;&gt;1</title>
<path fill="none" stroke="black" d="M592.89,-100.97C538.51,-95.87 428.23,-84.55 335.64,-69 280.22,-59.69 217.99,-46.03 172.09,-35.34"/>
<polygon fill="black" stroke="black" points="172.8,-31.91 162.26,-33.04 171.2,-38.73 172.8,-31.91"/>
<text text-anchor="middle" x="351.14" y="-57.8" font-family="Times New Roman,serif" font-size="14.00">0.222</text>
</g>
<!-- 2 -->
<g id="node3" class="node">
<title>2</title>
<g id="a_node3"><a xlink:href="from_curator.svg" xlink:title="curator">
<ellipse fill="none" stroke="black" cx="263.64" cy="-18" rx="36.29" ry="18"/>
<text text-anchor="middle" x="263.64" y="-14.3" font-family="Times New Roman,serif" font-size="14.00">curator</text>
</a>
</g>
</g>
<!-- 0&#45;&gt;2 -->
<g id="edge3" class="edge">
<title>0&#45;&gt;2</title>
<path fill="none" stroke="black" d="M593.86,-99.07C554.79,-92.98 487.63,-81.83 430.64,-69 376.26,-56.75 362.72,-53.01 309.64,-36 306.9,-35.12 304.09,-34.18 301.27,-33.21"/>
<polygon fill="black" stroke="black" points="302.32,-29.87 291.72,-29.82 299.98,-36.47 302.32,-29.87"/>
<text text-anchor="middle" x="446.14" y="-57.8" font-family="Times New Roman,serif" font-size="14.00">0.128</text>
</g>
<!-- 3 -->
<g id="node4" class="node">
<title>3</title>
<g id="a_node4"><a xlink:href="from_solicitor.svg" xlink:title="solicitor">
<ellipse fill="none" stroke="black" cx="358.64" cy="-18" rx="40.09" ry="18"/>
<text text-anchor="middle" x="358.64" y="-14.3" font-family="Times New Roman,serif" font-size="14.00">solicitor</text>
</a>
</g>
</g>
<!-- 0&#45;&gt;3 -->
<g id="edge4" class="edge">
<title>0&#45;&gt;3</title>
<path fill="none" stroke="black" d="M597.51,-95.39C574.02,-88.4 540.15,-78.23 510.64,-69 465.16,-54.78 453.86,-51 408.64,-36 405.55,-34.98 402.36,-33.91 399.15,-32.83"/>
<polygon fill="black" stroke="black" points="400.15,-29.47 389.56,-29.59 397.91,-36.11 400.15,-29.47"/>
<text text-anchor="middle" x="526.14" y="-57.8" font-family="Times New Roman,serif" font-size="14.00">0.094</text>
</g>
<!-- 4 -->
<g id="node5" class="node">
<title>4</title>
<g id="a_node5"><a xlink:href="from_barristers clerk.svg" xlink:title="barristers clerk">
<ellipse fill="none" stroke="black" cx="481.64" cy="-18" rx="64.19" ry="18"/>
<text text-anchor="middle" x="481.64" y="-14.3" font-family="Times New Roman,serif" font-size="14.00">barristers clerk</text>
</a>
</g>
</g>
<!-- 0&#45;&gt;4 -->
<g id="edge5" class="edge">
<title>0&#45;&gt;4</title>
<path fill="none" stroke="black" d="M604.62,-91.09C581.34,-77.45 544.29,-55.72 516.93,-39.69"/>
<polygon fill="black" stroke="black" points="518.46,-36.52 508.06,-34.49 514.92,-42.56 518.46,-36.52"/>
<text text-anchor="middle" x="579.14" y="-57.8" font-family="Times New Roman,serif" font-size="14.00">0.054</text>
</g>
<!-- 5 -->
<g id="node6" class="node">
<title>5</title>
<g id="a_node6"><a xlink:href="from_legal executive.svg" xlink:title="legal executive">
<ellipse fill="none" stroke="black" cx="626.64" cy="-18" rx="63.09" ry="18"/>
<text text-anchor="middle" x="626.64" y="-14.3" font-family="Times New Roman,serif" font-size="14.00">legal executive</text>
</a>
</g>
</g>
<!-- 0&#45;&gt;5 -->
<g id="edge6" class="edge">
<title>0&#45;&gt;5</title>
<path fill="none" stroke="black" d="M626.64,-86.8C626.64,-75.16 626.64,-59.55 626.64,-46.24"/>
<polygon fill="black" stroke="black" points="630.14,-46.18 626.64,-36.18 623.14,-46.18 630.14,-46.18"/>
<text text-anchor="middle" x="642.14" y="-57.8" font-family="Times New Roman,serif" font-size="14.00">0.047</text>
</g>
<!-- 6 -->
<g id="node7" class="node">
<title>6</title>
<g id="a_node7"><a xlink:href="from_public affairs consultant.svg" xlink:title="public affairs consultant">
<ellipse fill="none" stroke="black" cx="805.64" cy="-18" rx="97.48" ry="18"/>
<text text-anchor="middle" x="805.64" y="-14.3" font-family="Times New Roman,serif" font-size="14.00">public affairs consultant</text>
</a>
</g>
</g>
<!-- 0&#45;&gt;6 -->
<g id="edge7" class="edge">
<title>0&#45;&gt;6</title>
<path fill="none" stroke="black" d="M651.53,-92.18C680.24,-78.55 727.95,-55.89 762.69,-39.39"/>
<polygon fill="black" stroke="black" points="764.59,-42.37 772.12,-34.92 761.59,-36.04 764.59,-42.37"/>
<text text-anchor="middle" x="743.14" y="-57.8" font-family="Times New Roman,serif" font-size="14.00">0.040</text>
</g>
<!-- 7 -->
<g id="node8" class="node">
<title>7</title>
<g id="a_node8"><a xlink:href="from_photographer.svg" xlink:title="photographer">
<ellipse fill="none" stroke="black" cx="980.64" cy="-18" rx="59.59" ry="18"/>
<text text-anchor="middle" x="980.64" y="-14.3" font-family="Times New Roman,serif" font-size="14.00">photographer</text>
</a>
</g>
</g>
<!-- 0&#45;&gt;7 -->
<g id="edge8" class="edge">
<title>0&#45;&gt;7</title>
<path fill="none" stroke="black" d="M657.45,-96.73C709.74,-84.37 819.2,-58.42 911.64,-36 916.34,-34.86 921.22,-33.67 926.11,-32.48"/>
<polygon fill="black" stroke="black" points="927.23,-35.8 936.11,-30.02 925.57,-29 927.23,-35.8"/>
<text text-anchor="middle" x="849.14" y="-57.8" font-family="Times New Roman,serif" font-size="14.00">0.033</text>
</g>
<!-- 8 -->
<g id="node9" class="node">
<title>8</title>
<g id="a_node9"><a xlink:href="from_regulatory affairs officer.svg" xlink:title="regulatory affairs officer">
<ellipse fill="none" stroke="black" cx="1156.64" cy="-18" rx="98.28" ry="18"/>
<text text-anchor="middle" x="1156.64" y="-14.3" font-family="Times New Roman,serif" font-size="14.00">regulatory affairs officer</text>
</a>
</g>
</g>
<!-- 0&#45;&gt;8 -->
<g id="edge9" class="edge">
<title>0&#45;&gt;8</title>
<path fill="none" stroke="black" d="M659.57,-99.54C706.17,-93.16 794.02,-80.87 868.64,-69 940.15,-57.62 1021.41,-43.4 1079.34,-33.03"/>
<polygon fill="black" stroke="black" points="1080.29,-36.42 1089.52,-31.21 1079.06,-29.53 1080.29,-36.42"/>
<text text-anchor="middle" x="972.14" y="-57.8" font-family="Times New Roman,serif" font-size="14.00">0.020</text>
</g>
<!-- 9 -->
<g id="node10" class="node">
<title>9</title>
<g id="a_node10"><a xlink:href="from_retail merchandiser.svg" xlink:title="retail merchandiser">
<ellipse fill="none" stroke="black" cx="1351.64" cy="-18" rx="78.79" ry="18"/>
<text text-anchor="middle" x="1351.64" y="-14.3" font-family="Times New Roman,serif" font-size="14.00">retail merchandiser</text>
</a>
</g>
</g>
<!-- 0&#45;&gt;9 -->
<g id="edge10" class="edge">
<title>0&#45;&gt;9</title>
<path fill="none" stroke="black" d="M660.63,-101.56C756.09,-94.46 1034.56,-71.98 1263.64,-36 1270.46,-34.93 1277.55,-33.72 1284.63,-32.45"/>
<polygon fill="black" stroke="black" points="1285.73,-35.81 1294.94,-30.56 1284.47,-28.92 1285.73,-35.81"/>
<text text-anchor="middle" x="1141.14" y="-57.8" font-family="Times New Roman,serif" font-size="14.00">0.020</text>
</g>
</g>
</svg>
