<?xml version="1.0" encoding="UTF-8" standalone="no"?>
<!DOCTYPE svg PUBLIC "-//W3C//DTD SVG 1.1//EN"
 "http://www.w3.org/Graphics/SVG/1.1/DTD/svg11.dtd">
<!-- Generated by graphviz version 2.44.1 (20200629.0800)
 -->
<!-- Title: investment_fund_manager Pages: 1 -->
<svg width="1397pt" height="131pt"
 viewBox="0.00 0.00 1396.59 131.00" xmlns="http://www.w3.org/2000/svg" xmlns:xlink="http://www.w3.org/1999/xlink">
<g id="graph0" class="graph" transform="scale(1 1) rotate(0) translate(4 127)">
<title>investment_fund_manager</title>
<polygon fill="white" stroke="transparent" points="-4,4 -4,-127 1392.59,-127 1392.59,4 -4,4"/>
<!-- 0 -->
<g id="node1" class="node">
<title>0</title>
<g id="a_node1"><a xlink:href="from_investment fund manager.svg" xlink:title="investment fund manager">
<ellipse fill="none" stroke="black" cx="745.89" cy="-105" rx="100.98" ry="18"/>
<text text-anchor="middle" x="745.89" y="-101.3" font-family="Times New Roman,serif" font-size="14.00">investment fund manager</text>
</a>
</g>
</g>
<!-- 0&#45;&gt;0 -->
<g id="edge1" class="edge">
<title>0&#45;&gt;0</title>
<path fill="none" stroke="black" d="M838,-112.35C853.73,-111.35 864.63,-108.9 864.63,-105 864.63,-102.02 858.24,-99.88 848.19,-98.59"/>
<polygon fill="black" stroke="black" points="848.28,-95.09 838,-97.65 847.63,-102.06 848.28,-95.09"/>
<text text-anchor="middle" x="880.13" y="-101.3" font-family="Times New Roman,serif" font-size="14.00">0.121</text>
</g>
<!-- 1 -->
<g id="node2" class="node">
<title>1</title>
<g id="a_node2"><a xlink:href="from_project manager.svg" xlink:title="project manager">
<ellipse fill="none" stroke="black" cx="68.89" cy="-18" rx="68.79" ry="18"/>
<text text-anchor="middle" x="68.89" y="-14.3" font-family="Times New Roman,serif" font-size="14.00">project manager</text>
</a>
</g>
</g>
<!-- 0&#45;&gt;1 -->
<g id="edge2" class="edge">
<title>0&#45;&gt;1</title>
<path fill="none" stroke="black" d="M654.24,-97.51C536.23,-88.26 325.11,-68.69 146.89,-36 141.13,-34.94 135.14,-33.77 129.16,-32.55"/>
<polygon fill="black" stroke="black" points="129.65,-29.08 119.15,-30.47 128.22,-35.93 129.65,-29.08"/>
<text text-anchor="middle" x="375.39" y="-57.8" font-family="Times New Roman,serif" font-size="14.00">0.089</text>
</g>
<!-- 2 -->
<g id="node3" class="node">
<title>2</title>
<g id="a_node3"><a xlink:href="from_financial manager.svg" xlink:title="financial manager">
<ellipse fill="none" stroke="black" cx="228.89" cy="-18" rx="73.39" ry="18"/>
<text text-anchor="middle" x="228.89" y="-14.3" font-family="Times New Roman,serif" font-size="14.00">financial manager</text>
</a>
</g>
</g>
<!-- 0&#45;&gt;2 -->
<g id="edge3" class="edge">
<title>0&#45;&gt;2</title>
<path fill="none" stroke="black" d="M665.27,-94.1C614.31,-87.59 547.14,-78.54 487.89,-69 408.89,-56.28 389.41,-51.46 310.89,-36 305.05,-34.85 298.97,-33.63 292.88,-32.4"/>
<polygon fill="black" stroke="black" points="293.17,-28.88 282.68,-30.31 291.77,-35.74 293.17,-28.88"/>
<text text-anchor="middle" x="503.39" y="-57.8" font-family="Times New Roman,serif" font-size="14.00">0.057</text>
</g>
<!-- 3 -->
<g id="node4" class="node">
<title>3</title>
<g id="a_node4"><a xlink:href="from_it consultant.svg" xlink:title="it consultant">
<ellipse fill="none" stroke="black" cx="374.89" cy="-18" rx="54.69" ry="18"/>
<text text-anchor="middle" x="374.89" y="-14.3" font-family="Times New Roman,serif" font-size="14.00">it consultant</text>
</a>
</g>
</g>
<!-- 0&#45;&gt;3 -->
<g id="edge4" class="edge">
<title>0&#45;&gt;3</title>
<path fill="none" stroke="black" d="M682.58,-90.92C620.17,-77.81 522.19,-56.67 437.89,-36 433.75,-34.98 429.46,-33.9 425.15,-32.79"/>
<polygon fill="black" stroke="black" points="425.71,-29.31 415.15,-30.16 423.94,-36.08 425.71,-29.31"/>
<text text-anchor="middle" x="588.39" y="-57.8" font-family="Times New Roman,serif" font-size="14.00">0.050</text>
</g>
<!-- 4 -->
<g id="node5" class="node">
<title>4</title>
<g id="a_node5"><a xlink:href="from_pharmacovigilance officer.svg" xlink:title="pharmacovigilance officer">
<ellipse fill="none" stroke="black" cx="551.89" cy="-18" rx="104.78" ry="18"/>
<text text-anchor="middle" x="551.89" y="-14.3" font-family="Times New Roman,serif" font-size="14.00">pharmacovigilance officer</text>
</a>
</g>
</g>
<!-- 0&#45;&gt;4 -->
<g id="edge5" class="edge">
<title>0&#45;&gt;4</title>
<path fill="none" stroke="black" d="M709.4,-88.01C677.7,-74.12 631.64,-53.94 597.51,-38.99"/>
<polygon fill="black" stroke="black" points="598.78,-35.72 588.22,-34.92 595.97,-42.14 598.78,-35.72"/>
<text text-anchor="middle" x="676.39" y="-57.8" font-family="Times New Roman,serif" font-size="14.00">0.044</text>
</g>
<!-- 5 -->
<g id="node6" class="node">
<title>5</title>
<g id="a_node6"><a xlink:href="from_heritage manager.svg" xlink:title="heritage manager">
<ellipse fill="none" stroke="black" cx="745.89" cy="-18" rx="71.49" ry="18"/>
<text text-anchor="middle" x="745.89" y="-14.3" font-family="Times New Roman,serif" font-size="14.00">heritage manager</text>
</a>
</g>
</g>
<!-- 0&#45;&gt;5 -->
<g id="edge6" class="edge">
<title>0&#45;&gt;5</title>
<path fill="none" stroke="black" d="M745.89,-86.8C745.89,-75.16 745.89,-59.55 745.89,-46.24"/>
<polygon fill="black" stroke="black" points="749.39,-46.18 745.89,-36.18 742.39,-46.18 749.39,-46.18"/>
<text text-anchor="middle" x="761.39" y="-57.8" font-family="Times New Roman,serif" font-size="14.00">0.038</text>
</g>
<!-- 6 -->
<g id="node7" class="node">
<title>6</title>
<g id="a_node7"><a xlink:href="from_housing adviser.svg" xlink:title="housing adviser">
<ellipse fill="none" stroke="black" cx="902.89" cy="-18" rx="67.69" ry="18"/>
<text text-anchor="middle" x="902.89" y="-14.3" font-family="Times New Roman,serif" font-size="14.00">housing adviser</text>
</a>
</g>
</g>
<!-- 0&#45;&gt;6 -->
<g id="edge7" class="edge">
<title>0&#45;&gt;6</title>
<path fill="none" stroke="black" d="M776.17,-87.61C801.62,-73.83 838.13,-54.06 865.43,-39.28"/>
<polygon fill="black" stroke="black" points="867.18,-42.32 874.3,-34.48 863.84,-36.16 867.18,-42.32"/>
<text text-anchor="middle" x="849.39" y="-57.8" font-family="Times New Roman,serif" font-size="14.00">0.038</text>
</g>
<!-- 7 -->
<g id="node8" class="node">
<title>7</title>
<g id="a_node8"><a xlink:href="from_production manager.svg" xlink:title="production manager">
<ellipse fill="none" stroke="black" cx="1071.89" cy="-18" rx="83.39" ry="18"/>
<text text-anchor="middle" x="1071.89" y="-14.3" font-family="Times New Roman,serif" font-size="14.00">production manager</text>
</a>
</g>
</g>
<!-- 0&#45;&gt;7 -->
<g id="edge8" class="edge">
<title>0&#45;&gt;7</title>
<path fill="none" stroke="black" d="M800.46,-89.77C858.67,-74.6 950.63,-50.62 1011.12,-34.85"/>
<polygon fill="black" stroke="black" points="1012.12,-38.2 1020.91,-32.29 1010.35,-31.43 1012.12,-38.2"/>
<text text-anchor="middle" x="944.39" y="-57.8" font-family="Times New Roman,serif" font-size="14.00">0.038</text>
</g>
<!-- 8 -->
<g id="node9" class="node">
<title>8</title>
<g id="a_node9"><a xlink:href="from_sales manager.svg" xlink:title="sales manager">
<ellipse fill="none" stroke="black" cx="1233.89" cy="-18" rx="61.19" ry="18"/>
<text text-anchor="middle" x="1233.89" y="-14.3" font-family="Times New Roman,serif" font-size="14.00">sales manager</text>
</a>
</g>
</g>
<!-- 0&#45;&gt;8 -->
<g id="edge9" class="edge">
<title>0&#45;&gt;8</title>
<path fill="none" stroke="black" d="M822.88,-93.34C907,-81.26 1045.56,-60.1 1163.89,-36 1168.9,-34.98 1174.09,-33.85 1179.27,-32.68"/>
<polygon fill="black" stroke="black" points="1180.24,-36.05 1189.19,-30.38 1178.66,-29.23 1180.24,-36.05"/>
<text text-anchor="middle" x="1077.39" y="-57.8" font-family="Times New Roman,serif" font-size="14.00">0.038</text>
</g>
<!-- 9 -->
<g id="node10" class="node">
<title>9</title>
<g id="a_node10"><a xlink:href="from_lecturer.svg" xlink:title="lecturer">
<ellipse fill="none" stroke="black" cx="1350.89" cy="-18" rx="37.89" ry="18"/>
<text text-anchor="middle" x="1350.89" y="-14.3" font-family="Times New Roman,serif" font-size="14.00">lecturer</text>
</a>
</g>
</g>
<!-- 0&#45;&gt;9 -->
<g id="edge10" class="edge">
<title>0&#45;&gt;9</title>
<path fill="none" stroke="black" d="M842.6,-99.91C955.01,-93.4 1145.38,-76.91 1303.89,-36 1306.91,-35.22 1309.99,-34.33 1313.08,-33.37"/>
<polygon fill="black" stroke="black" points="1314.45,-36.6 1322.83,-30.13 1312.24,-29.96 1314.45,-36.6"/>
<text text-anchor="middle" x="1230.39" y="-57.8" font-family="Times New Roman,serif" font-size="14.00">0.025</text>
</g>
</g>
</svg>
