<?xml version="1.0" encoding="UTF-8" standalone="no"?>
<!DOCTYPE svg PUBLIC "-//W3C//DTD SVG 1.1//EN"
 "http://www.w3.org/Graphics/SVG/1.1/DTD/svg11.dtd">
<!-- Generated by graphviz version 2.44.1 (20200629.0800)
 -->
<!-- Title: test Pages: 1 -->
<svg width="2000pt" height="131pt"
 viewBox="0.00 0.00 2000.38 131.00" xmlns="http://www.w3.org/2000/svg" xmlns:xlink="http://www.w3.org/1999/xlink">
<g id="graph0" class="graph" transform="scale(1 1) rotate(0) translate(4 127)">
<title>test</title>
<polygon fill="white" stroke="transparent" points="-4,4 -4,-127 1996.38,-127 1996.38,4 -4,4"/>
<!-- 0 -->
<g id="node1" class="node">
<title>0</title>
<g id="a_node1"><a xlink:href="from_archivist.svg" xlink:title="archivist">
<ellipse fill="none" stroke="black" cx="961.64" cy="-105" rx="40.89" ry="18"/>
<text text-anchor="middle" x="961.64" y="-101.3" font-family="Times New Roman,serif" font-size="14.00">archivist</text>
</a>
</g>
</g>
<!-- 1 -->
<g id="node2" class="node">
<title>1</title>
<g id="a_node2"><a xlink:href="from_pharmacovigilance officer.svg" xlink:title="pharmacovigilance officer">
<ellipse fill="none" stroke="black" cx="104.64" cy="-18" rx="104.78" ry="18"/>
<text text-anchor="middle" x="104.64" y="-14.3" font-family="Times New Roman,serif" font-size="14.00">pharmacovigilance officer</text>
</a>
</g>
</g>
<!-- 0&#45;&gt;1 -->
<g id="edge1" class="edge">
<title>0&#45;&gt;1</title>
<path fill="none" stroke="black" d="M920.91,-102.88C828.6,-100.04 596.51,-91.12 403.64,-69 327.4,-60.26 241,-45.25 180.76,-33.96"/>
<polygon fill="black" stroke="black" points="181.05,-30.45 170.57,-32.03 179.75,-37.33 181.05,-30.45"/>
<text text-anchor="middle" x="419.14" y="-57.8" font-family="Times New Roman,serif" font-size="14.00">0.111</text>
</g>
<!-- 2 -->
<g id="node3" class="node">
<title>2</title>
<g id="a_node3"><a xlink:href="from_accountant.svg" xlink:title="accountant">
<ellipse fill="none" stroke="black" cx="277.64" cy="-18" rx="50.09" ry="18"/>
<text text-anchor="middle" x="277.64" y="-14.3" font-family="Times New Roman,serif" font-size="14.00">accountant</text>
</a>
</g>
</g>
<!-- 0&#45;&gt;2 -->
<g id="edge2" class="edge">
<title>0&#45;&gt;2</title>
<path fill="none" stroke="black" d="M921.03,-102.18C820.85,-97.13 554.3,-80.27 336.64,-36 332.47,-35.15 328.16,-34.15 323.87,-33.07"/>
<polygon fill="black" stroke="black" points="324.49,-29.62 313.92,-30.44 322.69,-36.38 324.49,-29.62"/>
<text text-anchor="middle" x="540.14" y="-57.8" font-family="Times New Roman,serif" font-size="14.00">0.055</text>
</g>
<!-- 3 -->
<g id="node4" class="node">
<title>3</title>
<g id="a_node4"><a xlink:href="from_agricultural consultant.svg" xlink:title="agricultural consultant">
<ellipse fill="none" stroke="black" cx="435.64" cy="-18" rx="89.88" ry="18"/>
<text text-anchor="middle" x="435.64" y="-14.3" font-family="Times New Roman,serif" font-size="14.00">agricultural consultant</text>
</a>
</g>
</g>
<!-- 0&#45;&gt;3 -->
<g id="edge3" class="edge">
<title>0&#45;&gt;3</title>
<path fill="none" stroke="black" d="M923.53,-98.34C878.06,-91.54 799.76,-79.72 732.64,-69 644.54,-54.93 622.6,-50.88 534.64,-36 527.08,-34.72 519.21,-33.38 511.34,-32.04"/>
<polygon fill="black" stroke="black" points="511.85,-28.57 501.4,-30.34 510.67,-35.47 511.85,-28.57"/>
<text text-anchor="middle" x="748.14" y="-57.8" font-family="Times New Roman,serif" font-size="14.00">0.055</text>
</g>
<!-- 4 -->
<g id="node5" class="node">
<title>4</title>
<g id="a_node5"><a xlink:href="from_catering manager.svg" xlink:title="catering manager">
<ellipse fill="none" stroke="black" cx="614.64" cy="-18" rx="71.49" ry="18"/>
<text text-anchor="middle" x="614.64" y="-14.3" font-family="Times New Roman,serif" font-size="14.00">catering manager</text>
</a>
</g>
</g>
<!-- 0&#45;&gt;4 -->
<g id="edge4" class="edge">
<title>0&#45;&gt;4</title>
<path fill="none" stroke="black" d="M926.78,-95.46C867.52,-80.95 746.53,-51.31 673.81,-33.49"/>
<polygon fill="black" stroke="black" points="674.43,-30.04 663.89,-31.06 672.77,-36.84 674.43,-30.04"/>
<text text-anchor="middle" x="825.14" y="-57.8" font-family="Times New Roman,serif" font-size="14.00">0.055</text>
</g>
<!-- 5 -->
<g id="node6" class="node">
<title>5</title>
<g id="a_node6"><a xlink:href="from_control and instrumentation engineer.svg" xlink:title="control and instrumentation engineer">
<ellipse fill="none" stroke="black" cx="845.64" cy="-18" rx="141.88" ry="18"/>
<text text-anchor="middle" x="845.64" y="-14.3" font-family="Times New Roman,serif" font-size="14.00">control and instrumentation engineer</text>
</a>
</g>
</g>
<!-- 0&#45;&gt;5 -->
<g id="edge5" class="edge">
<title>0&#45;&gt;5</title>
<path fill="none" stroke="black" d="M941.44,-89.19C923.64,-76.15 897.42,-56.94 876.92,-41.92"/>
<polygon fill="black" stroke="black" points="878.94,-39.06 868.8,-35.97 874.8,-44.71 878.94,-39.06"/>
<text text-anchor="middle" x="926.14" y="-57.8" font-family="Times New Roman,serif" font-size="14.00">0.055</text>
</g>
<!-- 6 -->
<g id="node7" class="node">
<title>6</title>
<g id="a_node7"><a xlink:href="from_corporate banker.svg" xlink:title="corporate banker">
<ellipse fill="none" stroke="black" cx="1077.64" cy="-18" rx="72.59" ry="18"/>
<text text-anchor="middle" x="1077.64" y="-14.3" font-family="Times New Roman,serif" font-size="14.00">corporate banker</text>
</a>
</g>
</g>
<!-- 0&#45;&gt;6 -->
<g id="edge6" class="edge">
<title>0&#45;&gt;6</title>
<path fill="none" stroke="black" d="M981.85,-89.19C999.87,-75.98 1026.53,-56.45 1047.15,-41.34"/>
<polygon fill="black" stroke="black" points="1049.29,-44.11 1055.29,-35.38 1045.16,-38.46 1049.29,-44.11"/>
<text text-anchor="middle" x="1042.14" y="-57.8" font-family="Times New Roman,serif" font-size="14.00">0.055</text>
</g>
<!-- 7 -->
<g id="node8" class="node">
<title>7</title>
<g id="a_node8"><a xlink:href="from_education administrator.svg" xlink:title="education administrator">
<ellipse fill="none" stroke="black" cx="1263.64" cy="-18" rx="95.58" ry="18"/>
<text text-anchor="middle" x="1263.64" y="-14.3" font-family="Times New Roman,serif" font-size="14.00">education administrator</text>
</a>
</g>
</g>
<!-- 0&#45;&gt;7 -->
<g id="edge7" class="edge">
<title>0&#45;&gt;7</title>
<path fill="none" stroke="black" d="M995.11,-94.58C1045.26,-80.46 1140.66,-53.61 1203.2,-36.01"/>
<polygon fill="black" stroke="black" points="1204.27,-39.35 1212.94,-33.27 1202.37,-32.61 1204.27,-39.35"/>
<text text-anchor="middle" x="1147.14" y="-57.8" font-family="Times New Roman,serif" font-size="14.00">0.055</text>
</g>
<!-- 8 -->
<g id="node9" class="node">
<title>8</title>
<g id="a_node9"><a xlink:href="from_government research officer.svg" xlink:title="government research officer">
<ellipse fill="none" stroke="black" cx="1489.64" cy="-18" rx="112.38" ry="18"/>
<text text-anchor="middle" x="1489.64" y="-14.3" font-family="Times New Roman,serif" font-size="14.00">government research officer</text>
</a>
</g>
</g>
<!-- 0&#45;&gt;8 -->
<g id="edge8" class="edge">
<title>0&#45;&gt;8</title>
<path fill="none" stroke="black" d="M999.61,-97.89C1083.59,-84.37 1286.84,-51.65 1403.49,-32.87"/>
<polygon fill="black" stroke="black" points="1404.15,-36.31 1413.47,-31.26 1403.04,-29.4 1404.15,-36.31"/>
<text text-anchor="middle" x="1273.14" y="-57.8" font-family="Times New Roman,serif" font-size="14.00">0.055</text>
</g>
<!-- 9 -->
<g id="node10" class="node">
<title>9</title>
<g id="a_node10"><a xlink:href="from_investment analyst.svg" xlink:title="investment analyst">
<ellipse fill="none" stroke="black" cx="1696.64" cy="-18" rx="76.89" ry="18"/>
<text text-anchor="middle" x="1696.64" y="-14.3" font-family="Times New Roman,serif" font-size="14.00">investment analyst</text>
</a>
</g>
</g>
<!-- 0&#45;&gt;9 -->
<g id="edge9" class="edge">
<title>0&#45;&gt;9</title>
<path fill="none" stroke="black" d="M1001.68,-101.08C1103.65,-93.36 1381.28,-70.61 1610.64,-36 1617.42,-34.98 1624.47,-33.79 1631.49,-32.52"/>
<polygon fill="black" stroke="black" points="1632.52,-35.89 1641.72,-30.63 1631.25,-29.01 1632.52,-35.89"/>
<text text-anchor="middle" x="1485.14" y="-57.8" font-family="Times New Roman,serif" font-size="14.00">0.055</text>
</g>
<!-- 10 -->
<g id="node11" class="node">
<title>10</title>
<g id="a_node11"><a xlink:href="from_investment fund manager.svg" xlink:title="investment fund manager">
<ellipse fill="none" stroke="black" cx="1891.64" cy="-18" rx="100.98" ry="18"/>
<text text-anchor="middle" x="1891.64" y="-14.3" font-family="Times New Roman,serif" font-size="14.00">investment fund manager</text>
</a>
</g>
</g>
<!-- 0&#45;&gt;10 -->
<g id="edge10" class="edge">
<title>0&#45;&gt;10</title>
<path fill="none" stroke="black" d="M1002.23,-102.13C1092.6,-97.81 1317.2,-86.15 1504.64,-69 1628.55,-57.66 1659.37,-52.92 1782.64,-36 1791.33,-34.81 1800.39,-33.5 1809.42,-32.15"/>
<polygon fill="black" stroke="black" points="1810.21,-35.57 1819.58,-30.62 1809.17,-28.65 1810.21,-35.57"/>
<text text-anchor="middle" x="1664.14" y="-57.8" font-family="Times New Roman,serif" font-size="14.00">0.055</text>
</g>
</g>
</svg>
