<?xml version="1.0" encoding="UTF-8" standalone="no"?>
<!DOCTYPE svg PUBLIC "-//W3C//DTD SVG 1.1//EN"
 "http://www.w3.org/Graphics/SVG/1.1/DTD/svg11.dtd">
<!-- Generated by graphviz version 2.44.1 (20200629.0800)
 -->
<!-- Title: test Pages: 1 -->
<svg width="1617pt" height="131pt"
 viewBox="0.00 0.00 1617.13 131.00" xmlns="http://www.w3.org/2000/svg" xmlns:xlink="http://www.w3.org/1999/xlink">
<g id="graph0" class="graph" transform="scale(1 1) rotate(0) translate(4 127)">
<title>test</title>
<polygon fill="white" stroke="transparent" points="-4,4 -4,-127 1613.13,-127 1613.13,4 -4,4"/>
<!-- 0 -->
<g id="node1" class="node">
<title>0</title>
<g id="a_node1"><a xlink:href="from_environmental scientist.svg" xlink:title="environmental scientist">
<ellipse fill="none" stroke="black" cx="708.59" cy="-105" rx="92.88" ry="18"/>
<text text-anchor="middle" x="708.59" y="-101.3" font-family="Times New Roman,serif" font-size="14.00">environmental scientist</text>
</a>
</g>
</g>
<!-- 0&#45;&gt;0 -->
<g id="edge2" class="edge">
<title>0&#45;&gt;0</title>
<path fill="none" stroke="black" d="M793.24,-112.44C808.69,-111.5 819.53,-109.02 819.53,-105 819.53,-101.92 813.18,-99.75 803.27,-98.47"/>
<polygon fill="black" stroke="black" points="803.52,-94.98 793.24,-97.56 802.88,-101.95 803.52,-94.98"/>
<text text-anchor="middle" x="835.03" y="-101.3" font-family="Times New Roman,serif" font-size="14.00">0.214</text>
</g>
<!-- 1 -->
<g id="node2" class="node">
<title>1</title>
<g id="a_node2"><a xlink:href="from_environmental manager.svg" xlink:title="environmental manager">
<ellipse fill="none" stroke="black" cx="93.59" cy="-18" rx="93.68" ry="18"/>
<text text-anchor="middle" x="93.59" y="-14.3" font-family="Times New Roman,serif" font-size="14.00">environmental manager</text>
</a>
</g>
</g>
<!-- 0&#45;&gt;1 -->
<g id="edge1" class="edge">
<title>0&#45;&gt;1</title>
<path fill="none" stroke="black" d="M621.49,-98.65C545.28,-93.31 431.71,-83.75 333.59,-69 274.26,-60.08 207.49,-45.82 159.47,-34.81"/>
<polygon fill="black" stroke="black" points="160.05,-31.35 149.52,-32.51 158.48,-38.17 160.05,-31.35"/>
<text text-anchor="middle" x="349.09" y="-57.8" font-family="Times New Roman,serif" font-size="14.00">0.285</text>
</g>
<!-- 2 -->
<g id="node3" class="node">
<title>2</title>
<g id="a_node3"><a xlink:href="from_lecturer.svg" xlink:title="lecturer">
<ellipse fill="none" stroke="black" cx="242.59" cy="-18" rx="37.89" ry="18"/>
<text text-anchor="middle" x="242.59" y="-14.3" font-family="Times New Roman,serif" font-size="14.00">lecturer</text>
</a>
</g>
</g>
<!-- 0&#45;&gt;2 -->
<g id="edge3" class="edge">
<title>0&#45;&gt;2</title>
<path fill="none" stroke="black" d="M627.98,-96.02C542.81,-86.41 405.13,-67.5 289.59,-36 286.67,-35.2 283.68,-34.31 280.68,-33.36"/>
<polygon fill="black" stroke="black" points="281.78,-30.04 271.19,-30.18 279.56,-36.67 281.78,-30.04"/>
<text text-anchor="middle" x="453.09" y="-57.8" font-family="Times New Roman,serif" font-size="14.00">0.142</text>
</g>
<!-- 3 -->
<g id="node4" class="node">
<title>3</title>
<g id="a_node4"><a xlink:href="from_careers adviser.svg" xlink:title="careers adviser">
<ellipse fill="none" stroke="black" cx="363.59" cy="-18" rx="64.99" ry="18"/>
<text text-anchor="middle" x="363.59" y="-14.3" font-family="Times New Roman,serif" font-size="14.00">careers adviser</text>
</a>
</g>
</g>
<!-- 0&#45;&gt;3 -->
<g id="edge4" class="edge">
<title>0&#45;&gt;3</title>
<path fill="none" stroke="black" d="M651.22,-90.79C623.51,-84.34 589.79,-76.4 559.59,-69 512.05,-57.35 458.19,-43.57 418.97,-33.43"/>
<polygon fill="black" stroke="black" points="419.63,-29.98 409.07,-30.86 417.88,-36.76 419.63,-29.98"/>
<text text-anchor="middle" x="575.09" y="-57.8" font-family="Times New Roman,serif" font-size="14.00">0.047</text>
</g>
<!-- 4 -->
<g id="node5" class="node">
<title>4</title>
<g id="a_node5"><a xlink:href="from_civil engineer.svg" xlink:title="civil engineer">
<ellipse fill="none" stroke="black" cx="504.59" cy="-18" rx="57.69" ry="18"/>
<text text-anchor="middle" x="504.59" y="-14.3" font-family="Times New Roman,serif" font-size="14.00">civil engineer</text>
</a>
</g>
</g>
<!-- 0&#45;&gt;4 -->
<g id="edge5" class="edge">
<title>0&#45;&gt;4</title>
<path fill="none" stroke="black" d="M671.17,-88.41C636.12,-73.8 583.77,-51.99 547.14,-36.73"/>
<polygon fill="black" stroke="black" points="548.3,-33.42 537.72,-32.8 545.61,-39.88 548.3,-33.42"/>
<text text-anchor="middle" x="635.09" y="-57.8" font-family="Times New Roman,serif" font-size="14.00">0.047</text>
</g>
<!-- 5 -->
<g id="node6" class="node">
<title>5</title>
<g id="a_node6"><a xlink:href="from_training and development officer.svg" xlink:title="training and development officer">
<ellipse fill="none" stroke="black" cx="708.59" cy="-18" rx="128.08" ry="18"/>
<text text-anchor="middle" x="708.59" y="-14.3" font-family="Times New Roman,serif" font-size="14.00">training and development officer</text>
</a>
</g>
</g>
<!-- 0&#45;&gt;5 -->
<g id="edge6" class="edge">
<title>0&#45;&gt;5</title>
<path fill="none" stroke="black" d="M708.59,-86.8C708.59,-75.16 708.59,-59.55 708.59,-46.24"/>
<polygon fill="black" stroke="black" points="712.09,-46.18 708.59,-36.18 705.09,-46.18 712.09,-46.18"/>
<text text-anchor="middle" x="724.09" y="-57.8" font-family="Times New Roman,serif" font-size="14.00">0.047</text>
</g>
<!-- 6 -->
<g id="node7" class="node">
<title>6</title>
<g id="a_node7"><a xlink:href="from_agricultural consultant.svg" xlink:title="agricultural consultant">
<ellipse fill="none" stroke="black" cx="944.59" cy="-18" rx="89.88" ry="18"/>
<text text-anchor="middle" x="944.59" y="-14.3" font-family="Times New Roman,serif" font-size="14.00">agricultural consultant</text>
</a>
</g>
</g>
<!-- 0&#45;&gt;6 -->
<g id="edge7" class="edge">
<title>0&#45;&gt;6</title>
<path fill="none" stroke="black" d="M750.51,-88.9C790.45,-74.52 850.65,-52.83 893.41,-37.44"/>
<polygon fill="black" stroke="black" points="894.84,-40.64 903.06,-33.96 892.47,-34.05 894.84,-40.64"/>
<text text-anchor="middle" x="857.09" y="-57.8" font-family="Times New Roman,serif" font-size="14.00">0.023</text>
</g>
<!-- 7 -->
<g id="node8" class="node">
<title>7</title>
<g id="a_node8"><a xlink:href="from_charities administrator.svg" xlink:title="charities administrator">
<ellipse fill="none" stroke="black" cx="1142.59" cy="-18" rx="90.18" ry="18"/>
<text text-anchor="middle" x="1142.59" y="-14.3" font-family="Times New Roman,serif" font-size="14.00">charities administrator</text>
</a>
</g>
</g>
<!-- 0&#45;&gt;7 -->
<g id="edge8" class="edge">
<title>0&#45;&gt;7</title>
<path fill="none" stroke="black" d="M771.7,-91.64C851.11,-76.09 987.16,-49.44 1070.56,-33.11"/>
<polygon fill="black" stroke="black" points="1071.32,-36.52 1080.46,-31.17 1069.98,-29.66 1071.32,-36.52"/>
<text text-anchor="middle" x="967.09" y="-57.8" font-family="Times New Roman,serif" font-size="14.00">0.023</text>
</g>
<!-- 8 -->
<g id="node9" class="node">
<title>8</title>
<g id="a_node9"><a xlink:href="from_chemical engineer.svg" xlink:title="chemical engineer">
<ellipse fill="none" stroke="black" cx="1325.59" cy="-18" rx="74.99" ry="18"/>
<text text-anchor="middle" x="1325.59" y="-14.3" font-family="Times New Roman,serif" font-size="14.00">chemical engineer</text>
</a>
</g>
</g>
<!-- 0&#45;&gt;8 -->
<g id="edge9" class="edge">
<title>0&#45;&gt;8</title>
<path fill="none" stroke="black" d="M788.33,-95.71C892.77,-84.41 1081.46,-62.53 1241.59,-36 1248.1,-34.92 1254.88,-33.71 1261.63,-32.43"/>
<polygon fill="black" stroke="black" points="1262.31,-35.87 1271.47,-30.54 1260.99,-28.99 1262.31,-35.87"/>
<text text-anchor="middle" x="1126.09" y="-57.8" font-family="Times New Roman,serif" font-size="14.00">0.023</text>
</g>
<!-- 9 -->
<g id="node10" class="node">
<title>9</title>
<g id="a_node10"><a xlink:href="from_education administrator.svg" xlink:title="education administrator">
<ellipse fill="none" stroke="black" cx="1513.59" cy="-18" rx="95.58" ry="18"/>
<text text-anchor="middle" x="1513.59" y="-14.3" font-family="Times New Roman,serif" font-size="14.00">education administrator</text>
</a>
</g>
</g>
<!-- 0&#45;&gt;9 -->
<g id="edge10" class="edge">
<title>0&#45;&gt;9</title>
<path fill="none" stroke="black" d="M794.93,-98.22C883.15,-92.05 1024.07,-81.46 1145.59,-69 1263.22,-56.94 1292.56,-52.87 1409.59,-36 1417.86,-34.81 1426.48,-33.5 1435.07,-32.16"/>
<polygon fill="black" stroke="black" points="1435.79,-35.59 1445.12,-30.57 1434.69,-28.67 1435.79,-35.59"/>
<text text-anchor="middle" x="1294.09" y="-57.8" font-family="Times New Roman,serif" font-size="14.00">0.023</text>
</g>
</g>
</svg>
