<?xml version="1.0" encoding="UTF-8" standalone="no"?>
<!DOCTYPE svg PUBLIC "-//W3C//DTD SVG 1.1//EN"
 "http://www.w3.org/Graphics/SVG/1.1/DTD/svg11.dtd">
<!-- Generated by graphviz version 2.44.1 (20200629.0800)
 -->
<!-- Title: test Pages: 1 -->
<svg width="1467pt" height="131pt"
 viewBox="0.00 0.00 1466.54 131.00" xmlns="http://www.w3.org/2000/svg" xmlns:xlink="http://www.w3.org/1999/xlink">
<g id="graph0" class="graph" transform="scale(1 1) rotate(0) translate(4 127)">
<title>test</title>
<polygon fill="white" stroke="transparent" points="-4,4 -4,-127 1462.54,-127 1462.54,4 -4,4"/>
<!-- 0 -->
<g id="node1" class="node">
<title>0</title>
<g id="a_node1"><a xlink:href="from_writer.svg" xlink:title="writer">
<ellipse fill="none" stroke="black" cx="734.55" cy="-105" rx="31.4" ry="18"/>
<text text-anchor="middle" x="734.55" y="-101.3" font-family="Times New Roman,serif" font-size="14.00">writer</text>
</a>
</g>
</g>
<!-- 0&#45;&gt;0 -->
<g id="edge1" class="edge">
<title>0&#45;&gt;0</title>
<path fill="none" stroke="black" d="M762.86,-112.83C774.21,-113.27 783.74,-110.66 783.74,-105 783.74,-101.2 779.44,-98.77 773.17,-97.72"/>
<polygon fill="black" stroke="black" points="773.03,-94.21 762.86,-97.17 772.66,-101.2 773.03,-94.21"/>
<text text-anchor="middle" x="799.24" y="-101.3" font-family="Times New Roman,serif" font-size="14.00">0.127</text>
</g>
<!-- 1 -->
<g id="node2" class="node">
<title>1</title>
<g id="a_node2"><a xlink:href="from_journalist.svg" xlink:title="journalist">
<ellipse fill="none" stroke="black" cx="43.55" cy="-18" rx="43.59" ry="18"/>
<text text-anchor="middle" x="43.55" y="-14.3" font-family="Times New Roman,serif" font-size="14.00">journalist</text>
</a>
</g>
</g>
<!-- 0&#45;&gt;1 -->
<g id="edge2" class="edge">
<title>0&#45;&gt;1</title>
<path fill="none" stroke="black" d="M703.61,-102.36C632.22,-98.4 450.54,-87.26 299.55,-69 208.36,-57.97 184.8,-57.67 95.55,-36 92.17,-35.18 88.69,-34.25 85.22,-33.25"/>
<polygon fill="black" stroke="black" points="86.08,-29.86 75.5,-30.31 84.06,-36.56 86.08,-29.86"/>
<text text-anchor="middle" x="315.05" y="-57.8" font-family="Times New Roman,serif" font-size="14.00">0.060</text>
</g>
<!-- 2 -->
<g id="node3" class="node">
<title>2</title>
<g id="a_node3"><a xlink:href="from_it consultant.svg" xlink:title="it consultant">
<ellipse fill="none" stroke="black" cx="159.55" cy="-18" rx="54.69" ry="18"/>
<text text-anchor="middle" x="159.55" y="-14.3" font-family="Times New Roman,serif" font-size="14.00">it consultant</text>
</a>
</g>
</g>
<!-- 0&#45;&gt;2 -->
<g id="edge3" class="edge">
<title>0&#45;&gt;2</title>
<path fill="none" stroke="black" d="M703.73,-101.33C623.75,-94.1 403.22,-72.21 222.55,-36 218.12,-35.11 213.54,-34.09 208.96,-32.99"/>
<polygon fill="black" stroke="black" points="209.56,-29.53 199.01,-30.5 207.86,-36.33 209.56,-29.53"/>
<text text-anchor="middle" x="434.05" y="-57.8" font-family="Times New Roman,serif" font-size="14.00">0.052</text>
</g>
<!-- 3 -->
<g id="node4" class="node">
<title>3</title>
<g id="a_node4"><a xlink:href="from_pharmacovigilance officer.svg" xlink:title="pharmacovigilance officer">
<ellipse fill="none" stroke="black" cx="336.55" cy="-18" rx="104.78" ry="18"/>
<text text-anchor="middle" x="336.55" y="-14.3" font-family="Times New Roman,serif" font-size="14.00">pharmacovigilance officer</text>
</a>
</g>
</g>
<!-- 0&#45;&gt;3 -->
<g id="edge4" class="edge">
<title>0&#45;&gt;3</title>
<path fill="none" stroke="black" d="M705.6,-97.82C644.03,-84.67 498.42,-53.57 409.62,-34.61"/>
<polygon fill="black" stroke="black" points="410.12,-31.13 399.61,-32.47 408.66,-37.98 410.12,-31.13"/>
<text text-anchor="middle" x="575.05" y="-57.8" font-family="Times New Roman,serif" font-size="14.00">0.045</text>
</g>
<!-- 4 -->
<g id="node5" class="node">
<title>4</title>
<g id="a_node5"><a xlink:href="from_commissioning editor.svg" xlink:title="commissioning editor">
<ellipse fill="none" stroke="black" cx="548.55" cy="-18" rx="89.08" ry="18"/>
<text text-anchor="middle" x="548.55" y="-14.3" font-family="Times New Roman,serif" font-size="14.00">commissioning editor</text>
</a>
</g>
</g>
<!-- 0&#45;&gt;4 -->
<g id="edge5" class="edge">
<title>0&#45;&gt;4</title>
<path fill="none" stroke="black" d="M710.61,-93.06C680.8,-79.44 629.29,-55.9 592.34,-39.01"/>
<polygon fill="black" stroke="black" points="593.36,-35.63 582.81,-34.66 590.45,-42 593.36,-35.63"/>
<text text-anchor="middle" x="669.05" y="-57.8" font-family="Times New Roman,serif" font-size="14.00">0.037</text>
</g>
<!-- 5 -->
<g id="node6" class="node">
<title>5</title>
<g id="a_node6"><a xlink:href="from_marketing assistant.svg" xlink:title="marketing assistant">
<ellipse fill="none" stroke="black" cx="734.55" cy="-18" rx="79.09" ry="18"/>
<text text-anchor="middle" x="734.55" y="-14.3" font-family="Times New Roman,serif" font-size="14.00">marketing assistant</text>
</a>
</g>
</g>
<!-- 0&#45;&gt;5 -->
<g id="edge6" class="edge">
<title>0&#45;&gt;5</title>
<path fill="none" stroke="black" d="M734.55,-86.8C734.55,-75.16 734.55,-59.55 734.55,-46.24"/>
<polygon fill="black" stroke="black" points="738.05,-46.18 734.55,-36.18 731.05,-46.18 738.05,-46.18"/>
<text text-anchor="middle" x="750.05" y="-57.8" font-family="Times New Roman,serif" font-size="14.00">0.037</text>
</g>
<!-- 6 -->
<g id="node7" class="node">
<title>6</title>
<g id="a_node7"><a xlink:href="from_production manager.svg" xlink:title="production manager">
<ellipse fill="none" stroke="black" cx="914.55" cy="-18" rx="83.39" ry="18"/>
<text text-anchor="middle" x="914.55" y="-14.3" font-family="Times New Roman,serif" font-size="14.00">production manager</text>
</a>
</g>
</g>
<!-- 0&#45;&gt;6 -->
<g id="edge7" class="edge">
<title>0&#45;&gt;6</title>
<path fill="none" stroke="black" d="M758.08,-92.89C787.03,-79.21 836.73,-55.75 872.35,-38.93"/>
<polygon fill="black" stroke="black" points="873.99,-42.02 881.53,-34.59 871,-35.69 873.99,-42.02"/>
<text text-anchor="middle" x="851.05" y="-57.8" font-family="Times New Roman,serif" font-size="14.00">0.037</text>
</g>
<!-- 7 -->
<g id="node8" class="node">
<title>7</title>
<g id="a_node8"><a xlink:href="from_project manager.svg" xlink:title="project manager">
<ellipse fill="none" stroke="black" cx="1084.55" cy="-18" rx="68.79" ry="18"/>
<text text-anchor="middle" x="1084.55" y="-14.3" font-family="Times New Roman,serif" font-size="14.00">project manager</text>
</a>
</g>
</g>
<!-- 0&#45;&gt;7 -->
<g id="edge8" class="edge">
<title>0&#45;&gt;7</title>
<path fill="none" stroke="black" d="M762.89,-97.12C819.97,-83.25 949.8,-51.72 1025.92,-33.24"/>
<polygon fill="black" stroke="black" points="1026.94,-36.59 1035.83,-30.83 1025.29,-29.79 1026.94,-36.59"/>
<text text-anchor="middle" x="946.05" y="-57.8" font-family="Times New Roman,serif" font-size="14.00">0.037</text>
</g>
<!-- 8 -->
<g id="node9" class="node">
<title>8</title>
<g id="a_node9"><a xlink:href="from_secretary.svg" xlink:title="secretary">
<ellipse fill="none" stroke="black" cx="1214.55" cy="-18" rx="43.59" ry="18"/>
<text text-anchor="middle" x="1214.55" y="-14.3" font-family="Times New Roman,serif" font-size="14.00">secretary</text>
</a>
</g>
</g>
<!-- 0&#45;&gt;8 -->
<g id="edge9" class="edge">
<title>0&#45;&gt;8</title>
<path fill="none" stroke="black" d="M764.99,-100.93C835.59,-93.43 1015.69,-72.09 1162.55,-36 1165.92,-35.17 1169.4,-34.23 1172.87,-33.23"/>
<polygon fill="black" stroke="black" points="1174.03,-36.53 1182.59,-30.28 1172,-29.83 1174.03,-36.53"/>
<text text-anchor="middle" x="1086.05" y="-57.8" font-family="Times New Roman,serif" font-size="14.00">0.037</text>
</g>
<!-- 9 -->
<g id="node10" class="node">
<title>9</title>
<g id="a_node10"><a xlink:href="from_advertising copywriter.svg" xlink:title="advertising copywriter">
<ellipse fill="none" stroke="black" cx="1367.55" cy="-18" rx="90.98" ry="18"/>
<text text-anchor="middle" x="1367.55" y="-14.3" font-family="Times New Roman,serif" font-size="14.00">advertising copywriter</text>
</a>
</g>
</g>
<!-- 0&#45;&gt;9 -->
<g id="edge10" class="edge">
<title>0&#45;&gt;9</title>
<path fill="none" stroke="black" d="M765.44,-102.08C829.23,-97.89 980.01,-86.86 1105.55,-69 1171.66,-59.59 1246.42,-44.92 1299.12,-33.9"/>
<polygon fill="black" stroke="black" points="1299.95,-37.3 1309.02,-31.81 1298.51,-30.45 1299.95,-37.3"/>
<text text-anchor="middle" x="1208.05" y="-57.8" font-family="Times New Roman,serif" font-size="14.00">0.030</text>
</g>
</g>
</svg>
