<?xml version="1.0" encoding="UTF-8" standalone="no"?>
<!DOCTYPE svg PUBLIC "-//W3C//DTD SVG 1.1//EN"
 "http://www.w3.org/Graphics/SVG/1.1/DTD/svg11.dtd">
<!-- Generated by graphviz version 2.44.1 (20200629.0800)
 -->
<!-- Title: test Pages: 1 -->
<svg width="1416pt" height="131pt"
 viewBox="0.00 0.00 1416.44 131.00" xmlns="http://www.w3.org/2000/svg" xmlns:xlink="http://www.w3.org/1999/xlink">
<g id="graph0" class="graph" transform="scale(1 1) rotate(0) translate(4 127)">
<title>test</title>
<polygon fill="white" stroke="transparent" points="-4,4 -4,-127 1412.44,-127 1412.44,4 -4,4"/>
<!-- 0 -->
<g id="node1" class="node">
<title>0</title>
<g id="a_node1"><a xlink:href="from_marketing assistant.svg" xlink:title="marketing assistant">
<ellipse fill="none" stroke="black" cx="718.89" cy="-105" rx="79.09" ry="18"/>
<text text-anchor="middle" x="718.89" y="-101.3" font-family="Times New Roman,serif" font-size="14.00">marketing assistant</text>
</a>
</g>
</g>
<!-- 0&#45;&gt;0 -->
<g id="edge1" class="edge">
<title>0&#45;&gt;0</title>
<path fill="none" stroke="black" d="M791.02,-112.57C805.69,-111.75 816.19,-109.22 816.19,-105 816.19,-101.83 810.28,-99.62 801.14,-98.36"/>
<polygon fill="black" stroke="black" points="801.3,-94.86 791.02,-97.43 800.66,-101.83 801.3,-94.86"/>
<text text-anchor="middle" x="831.69" y="-101.3" font-family="Times New Roman,serif" font-size="14.00">0.259</text>
</g>
<!-- 1 -->
<g id="node2" class="node">
<title>1</title>
<g id="a_node2"><a xlink:href="from_marketing executive.svg" xlink:title="marketing executive">
<ellipse fill="none" stroke="black" cx="81.89" cy="-18" rx="81.79" ry="18"/>
<text text-anchor="middle" x="81.89" y="-14.3" font-family="Times New Roman,serif" font-size="14.00">marketing executive</text>
</a>
</g>
</g>
<!-- 0&#45;&gt;1 -->
<g id="edge2" class="edge">
<title>0&#45;&gt;1</title>
<path fill="none" stroke="black" d="M646.24,-97.76C577.11,-91.53 470.23,-81.16 377.89,-69 286.4,-56.95 263.81,-51.81 172.89,-36 165.93,-34.79 158.67,-33.49 151.42,-32.17"/>
<polygon fill="black" stroke="black" points="152.04,-28.73 141.57,-30.37 150.78,-35.62 152.04,-28.73"/>
<text text-anchor="middle" x="393.39" y="-57.8" font-family="Times New Roman,serif" font-size="14.00">0.220</text>
</g>
<!-- 2 -->
<g id="node3" class="node">
<title>2</title>
<g id="a_node3"><a xlink:href="from_sales manager.svg" xlink:title="sales manager">
<ellipse fill="none" stroke="black" cx="242.89" cy="-18" rx="61.19" ry="18"/>
<text text-anchor="middle" x="242.89" y="-14.3" font-family="Times New Roman,serif" font-size="14.00">sales manager</text>
</a>
</g>
</g>
<!-- 0&#45;&gt;2 -->
<g id="edge3" class="edge">
<title>0&#45;&gt;2</title>
<path fill="none" stroke="black" d="M653.55,-94.7C573.07,-82.88 432.34,-60.96 312.89,-36 307.89,-34.96 302.71,-33.81 297.53,-32.63"/>
<polygon fill="black" stroke="black" points="298.14,-29.18 287.61,-30.31 296.55,-35.99 298.14,-29.18"/>
<text text-anchor="middle" x="495.39" y="-57.8" font-family="Times New Roman,serif" font-size="14.00">0.063</text>
</g>
<!-- 3 -->
<g id="node4" class="node">
<title>3</title>
<g id="a_node4"><a xlink:href="from_project manager.svg" xlink:title="project manager">
<ellipse fill="none" stroke="black" cx="390.89" cy="-18" rx="68.79" ry="18"/>
<text text-anchor="middle" x="390.89" y="-14.3" font-family="Times New Roman,serif" font-size="14.00">project manager</text>
</a>
</g>
</g>
<!-- 0&#45;&gt;3 -->
<g id="edge4" class="edge">
<title>0&#45;&gt;3</title>
<path fill="none" stroke="black" d="M668.72,-91C609.22,-75.58 510.28,-49.94 447.93,-33.78"/>
<polygon fill="black" stroke="black" points="448.43,-30.29 437.87,-31.17 446.67,-37.07 448.43,-30.29"/>
<text text-anchor="middle" x="590.39" y="-57.8" font-family="Times New Roman,serif" font-size="14.00">0.038</text>
</g>
<!-- 4 -->
<g id="node5" class="node">
<title>4</title>
<g id="a_node5"><a xlink:href="from_content manager.svg" xlink:title="content manager">
<ellipse fill="none" stroke="black" cx="547.89" cy="-18" rx="70.39" ry="18"/>
<text text-anchor="middle" x="547.89" y="-14.3" font-family="Times New Roman,serif" font-size="14.00">content manager</text>
</a>
</g>
</g>
<!-- 0&#45;&gt;4 -->
<g id="edge5" class="edge">
<title>0&#45;&gt;4</title>
<path fill="none" stroke="black" d="M687.53,-88.41C659.39,-74.42 617.97,-53.83 587.54,-38.71"/>
<polygon fill="black" stroke="black" points="589,-35.52 578.48,-34.21 585.88,-41.79 589,-35.52"/>
<text text-anchor="middle" x="659.39" y="-57.8" font-family="Times New Roman,serif" font-size="14.00">0.029</text>
</g>
<!-- 5 -->
<g id="node6" class="node">
<title>5</title>
<g id="a_node6"><a xlink:href="from_production manager.svg" xlink:title="production manager">
<ellipse fill="none" stroke="black" cx="718.89" cy="-18" rx="83.39" ry="18"/>
<text text-anchor="middle" x="718.89" y="-14.3" font-family="Times New Roman,serif" font-size="14.00">production manager</text>
</a>
</g>
</g>
<!-- 0&#45;&gt;5 -->
<g id="edge6" class="edge">
<title>0&#45;&gt;5</title>
<path fill="none" stroke="black" d="M718.89,-86.8C718.89,-75.16 718.89,-59.55 718.89,-46.24"/>
<polygon fill="black" stroke="black" points="722.39,-46.18 718.89,-36.18 715.39,-46.18 722.39,-46.18"/>
<text text-anchor="middle" x="734.39" y="-57.8" font-family="Times New Roman,serif" font-size="14.00">0.022</text>
</g>
<!-- 6 -->
<g id="node7" class="node">
<title>6</title>
<g id="a_node7"><a xlink:href="from_brand manager.svg" xlink:title="brand manager">
<ellipse fill="none" stroke="black" cx="884.89" cy="-18" rx="64.19" ry="18"/>
<text text-anchor="middle" x="884.89" y="-14.3" font-family="Times New Roman,serif" font-size="14.00">brand manager</text>
</a>
</g>
</g>
<!-- 0&#45;&gt;6 -->
<g id="edge7" class="edge">
<title>0&#45;&gt;6</title>
<path fill="none" stroke="black" d="M749.73,-88.21C776.97,-74.26 816.82,-53.86 846.2,-38.81"/>
<polygon fill="black" stroke="black" points="848.03,-41.81 855.34,-34.13 844.84,-35.58 848.03,-41.81"/>
<text text-anchor="middle" x="827.39" y="-57.8" font-family="Times New Roman,serif" font-size="14.00">0.020</text>
</g>
<!-- 7 -->
<g id="node8" class="node">
<title>7</title>
<g id="a_node8"><a xlink:href="from_it consultant.svg" xlink:title="it consultant">
<ellipse fill="none" stroke="black" cx="1021.89" cy="-18" rx="54.69" ry="18"/>
<text text-anchor="middle" x="1021.89" y="-14.3" font-family="Times New Roman,serif" font-size="14.00">it consultant</text>
</a>
</g>
</g>
<!-- 0&#45;&gt;7 -->
<g id="edge8" class="edge">
<title>0&#45;&gt;7</title>
<path fill="none" stroke="black" d="M767.86,-90.75C791.72,-84.26 820.82,-76.29 846.89,-69 889.27,-57.15 937.32,-43.4 972.34,-33.32"/>
<polygon fill="black" stroke="black" points="973.67,-36.58 982.31,-30.45 971.73,-29.85 973.67,-36.58"/>
<text text-anchor="middle" x="915.39" y="-57.8" font-family="Times New Roman,serif" font-size="14.00">0.020</text>
</g>
<!-- 8 -->
<g id="node9" class="node">
<title>8</title>
<g id="a_node9"><a xlink:href="from_pharmacovigilance officer.svg" xlink:title="pharmacovigilance officer">
<ellipse fill="none" stroke="black" cx="1198.89" cy="-18" rx="104.78" ry="18"/>
<text text-anchor="middle" x="1198.89" y="-14.3" font-family="Times New Roman,serif" font-size="14.00">pharmacovigilance officer</text>
</a>
</g>
</g>
<!-- 0&#45;&gt;8 -->
<g id="edge9" class="edge">
<title>0&#45;&gt;8</title>
<path fill="none" stroke="black" d="M782.29,-94.18C825.38,-87.4 883.63,-78.01 934.89,-69 998.34,-57.85 1070.16,-44.18 1122.86,-33.95"/>
<polygon fill="black" stroke="black" points="1123.65,-37.37 1132.8,-32.02 1122.32,-30.49 1123.65,-37.37"/>
<text text-anchor="middle" x="1030.39" y="-57.8" font-family="Times New Roman,serif" font-size="14.00">0.020</text>
</g>
<!-- 9 -->
<g id="node10" class="node">
<title>9</title>
<g id="a_node10"><a xlink:href="from_secretary.svg" xlink:title="secretary">
<ellipse fill="none" stroke="black" cx="1364.89" cy="-18" rx="43.59" ry="18"/>
<text text-anchor="middle" x="1364.89" y="-14.3" font-family="Times New Roman,serif" font-size="14.00">secretary</text>
</a>
</g>
</g>
<!-- 0&#45;&gt;9 -->
<g id="edge10" class="edge">
<title>0&#45;&gt;9</title>
<path fill="none" stroke="black" d="M795.71,-100.43C909.76,-93.96 1130.07,-76.96 1312.89,-36 1316.33,-35.23 1319.87,-34.32 1323.4,-33.34"/>
<polygon fill="black" stroke="black" points="1324.68,-36.61 1333.26,-30.41 1322.68,-29.9 1324.68,-36.61"/>
<text text-anchor="middle" x="1233.39" y="-57.8" font-family="Times New Roman,serif" font-size="14.00">0.020</text>
</g>
</g>
</svg>
