<?xml version="1.0" encoding="UTF-8" standalone="no"?>
<!DOCTYPE svg PUBLIC "-//W3C//DTD SVG 1.1//EN"
 "http://www.w3.org/Graphics/SVG/1.1/DTD/svg11.dtd">
<!-- Generated by graphviz version 2.44.1 (20200629.0800)
 -->
<!-- Title: doctor Pages: 1 -->
<svg width="1653pt" height="131pt"
 viewBox="0.00 0.00 1653.49 131.00" xmlns="http://www.w3.org/2000/svg" xmlns:xlink="http://www.w3.org/1999/xlink">
<g id="graph0" class="graph" transform="scale(1 1) rotate(0) translate(4 127)">
<title>doctor</title>
<polygon fill="white" stroke="transparent" points="-4,4 -4,-127 1649.49,-127 1649.49,4 -4,4"/>
<!-- 0 -->
<g id="node1" class="node">
<title>0</title>
<g id="a_node1"><a xlink:href="from_doctor.svg" xlink:title="doctor">
<ellipse fill="none" stroke="black" cx="762.7" cy="-105" rx="35.19" ry="18"/>
<text text-anchor="middle" x="762.7" y="-101.3" font-family="Times New Roman,serif" font-size="14.00">doctor</text>
</a>
</g>
</g>
<!-- 0&#45;&gt;0 -->
<g id="edge2" class="edge">
<title>0&#45;&gt;0</title>
<path fill="none" stroke="black" d="M794.31,-112.86C806.09,-113.12 815.79,-110.5 815.79,-105 815.79,-101.22 811.21,-98.8 804.52,-97.74"/>
<polygon fill="black" stroke="black" points="804.5,-94.24 794.31,-97.14 804.09,-101.22 804.5,-94.24"/>
<text text-anchor="middle" x="831.29" y="-101.3" font-family="Times New Roman,serif" font-size="14.00">0.086</text>
</g>
<!-- 1 -->
<g id="node2" class="node">
<title>1</title>
<g id="a_node2"><a xlink:href="from_lecturer.svg" xlink:title="lecturer">
<ellipse fill="none" stroke="black" cx="37.7" cy="-18" rx="37.89" ry="18"/>
<text text-anchor="middle" x="37.7" y="-14.3" font-family="Times New Roman,serif" font-size="14.00">lecturer</text>
</a>
</g>
</g>
<!-- 0&#45;&gt;1 -->
<g id="edge1" class="edge">
<title>0&#45;&gt;1</title>
<path fill="none" stroke="black" d="M727.63,-103.53C626.55,-101.52 326.35,-91.01 84.7,-36 81.66,-35.31 78.56,-34.48 75.46,-33.56"/>
<polygon fill="black" stroke="black" points="76.28,-30.15 65.69,-30.4 74.13,-36.81 76.28,-30.15"/>
<text text-anchor="middle" x="284.2" y="-57.8" font-family="Times New Roman,serif" font-size="14.00">0.130</text>
</g>
<!-- 2 -->
<g id="node3" class="node">
<title>2</title>
<g id="a_node3"><a xlink:href="from_television production assistant.svg" xlink:title="television production assistant">
<ellipse fill="none" stroke="black" cx="213.7" cy="-18" rx="120.48" ry="18"/>
<text text-anchor="middle" x="213.7" y="-14.3" font-family="Times New Roman,serif" font-size="14.00">television production assistant</text>
</a>
</g>
</g>
<!-- 0&#45;&gt;2 -->
<g id="edge3" class="edge">
<title>0&#45;&gt;2</title>
<path fill="none" stroke="black" d="M729.47,-98.92C685.07,-92.13 603.96,-79.71 534.7,-69 456.66,-56.93 367.96,-43.11 303.61,-33.06"/>
<polygon fill="black" stroke="black" points="303.92,-29.57 293.5,-31.48 302.84,-36.48 303.92,-29.57"/>
<text text-anchor="middle" x="550.2" y="-57.8" font-family="Times New Roman,serif" font-size="14.00">0.086</text>
</g>
<!-- 3 -->
<g id="node4" class="node">
<title>3</title>
<g id="a_node4"><a xlink:href="from_careers adviser.svg" xlink:title="careers adviser">
<ellipse fill="none" stroke="black" cx="416.7" cy="-18" rx="64.99" ry="18"/>
<text text-anchor="middle" x="416.7" y="-14.3" font-family="Times New Roman,serif" font-size="14.00">careers adviser</text>
</a>
</g>
</g>
<!-- 0&#45;&gt;3 -->
<g id="edge4" class="edge">
<title>0&#45;&gt;3</title>
<path fill="none" stroke="black" d="M731.69,-96.38C673.55,-82.1 547.38,-51.11 473.58,-32.98"/>
<polygon fill="black" stroke="black" points="474.08,-29.49 463.53,-30.51 472.41,-36.29 474.08,-29.49"/>
<text text-anchor="middle" x="626.2" y="-57.8" font-family="Times New Roman,serif" font-size="14.00">0.043</text>
</g>
<!-- 4 -->
<g id="node5" class="node">
<title>4</title>
<g id="a_node5"><a xlink:href="from_catering manager.svg" xlink:title="catering manager">
<ellipse fill="none" stroke="black" cx="570.7" cy="-18" rx="71.49" ry="18"/>
<text text-anchor="middle" x="570.7" y="-14.3" font-family="Times New Roman,serif" font-size="14.00">catering manager</text>
</a>
</g>
</g>
<!-- 0&#45;&gt;4 -->
<g id="edge5" class="edge">
<title>0&#45;&gt;4</title>
<path fill="none" stroke="black" d="M736.8,-92.54C705.29,-78.58 651.6,-54.82 613.81,-38.09"/>
<polygon fill="black" stroke="black" points="615.13,-34.84 604.57,-34 612.3,-41.24 615.13,-34.84"/>
<text text-anchor="middle" x="694.2" y="-57.8" font-family="Times New Roman,serif" font-size="14.00">0.043</text>
</g>
<!-- 5 -->
<g id="node6" class="node">
<title>5</title>
<g id="a_node6"><a xlink:href="from_civil service administrator.svg" xlink:title="civil service administrator">
<ellipse fill="none" stroke="black" cx="762.7" cy="-18" rx="102.88" ry="18"/>
<text text-anchor="middle" x="762.7" y="-14.3" font-family="Times New Roman,serif" font-size="14.00">civil service administrator</text>
</a>
</g>
</g>
<!-- 0&#45;&gt;5 -->
<g id="edge6" class="edge">
<title>0&#45;&gt;5</title>
<path fill="none" stroke="black" d="M762.7,-86.8C762.7,-75.16 762.7,-59.55 762.7,-46.24"/>
<polygon fill="black" stroke="black" points="766.2,-46.18 762.7,-36.18 759.2,-46.18 766.2,-46.18"/>
<text text-anchor="middle" x="778.2" y="-57.8" font-family="Times New Roman,serif" font-size="14.00">0.043</text>
</g>
<!-- 6 -->
<g id="node7" class="node">
<title>6</title>
<g id="a_node7"><a xlink:href="from_content manager.svg" xlink:title="content manager">
<ellipse fill="none" stroke="black" cx="953.7" cy="-18" rx="70.39" ry="18"/>
<text text-anchor="middle" x="953.7" y="-14.3" font-family="Times New Roman,serif" font-size="14.00">content manager</text>
</a>
</g>
</g>
<!-- 0&#45;&gt;6 -->
<g id="edge7" class="edge">
<title>0&#45;&gt;6</title>
<path fill="none" stroke="black" d="M788.46,-92.54C819.9,-78.54 873.53,-54.68 911.14,-37.94"/>
<polygon fill="black" stroke="black" points="912.62,-41.11 920.34,-33.85 909.78,-34.71 912.62,-41.11"/>
<text text-anchor="middle" x="885.2" y="-57.8" font-family="Times New Roman,serif" font-size="14.00">0.043</text>
</g>
<!-- 7 -->
<g id="node8" class="node">
<title>7</title>
<g id="a_node8"><a xlink:href="from_facilities manager.svg" xlink:title="facilities manager">
<ellipse fill="none" stroke="black" cx="1114.7" cy="-18" rx="72.59" ry="18"/>
<text text-anchor="middle" x="1114.7" y="-14.3" font-family="Times New Roman,serif" font-size="14.00">facilities manager</text>
</a>
</g>
</g>
<!-- 0&#45;&gt;7 -->
<g id="edge8" class="edge">
<title>0&#45;&gt;7</title>
<path fill="none" stroke="black" d="M793.93,-96.46C852.39,-82.34 979.19,-51.72 1054.68,-33.49"/>
<polygon fill="black" stroke="black" points="1055.63,-36.86 1064.53,-31.11 1053.99,-30.06 1055.63,-36.86"/>
<text text-anchor="middle" x="976.2" y="-57.8" font-family="Times New Roman,serif" font-size="14.00">0.043</text>
</g>
<!-- 8 -->
<g id="node9" class="node">
<title>8</title>
<g id="a_node9"><a xlink:href="from_government research officer.svg" xlink:title="government research officer">
<ellipse fill="none" stroke="black" cx="1317.7" cy="-18" rx="112.38" ry="18"/>
<text text-anchor="middle" x="1317.7" y="-14.3" font-family="Times New Roman,serif" font-size="14.00">government research officer</text>
</a>
</g>
</g>
<!-- 0&#45;&gt;8 -->
<g id="edge9" class="edge">
<title>0&#45;&gt;8</title>
<path fill="none" stroke="black" d="M795.89,-99.07C841.09,-92.34 924.53,-79.87 995.7,-69 1075.06,-56.88 1165.38,-42.83 1230.12,-32.72"/>
<polygon fill="black" stroke="black" points="1230.95,-36.13 1240.29,-31.13 1229.87,-29.22 1230.95,-36.13"/>
<text text-anchor="middle" x="1109.2" y="-57.8" font-family="Times New Roman,serif" font-size="14.00">0.043</text>
</g>
<!-- 9 -->
<g id="node10" class="node">
<title>9</title>
<g id="a_node10"><a xlink:href="from_human resources officer.svg" xlink:title="human resources officer">
<ellipse fill="none" stroke="black" cx="1546.7" cy="-18" rx="98.58" ry="18"/>
<text text-anchor="middle" x="1546.7" y="-14.3" font-family="Times New Roman,serif" font-size="14.00">human resources officer</text>
</a>
</g>
</g>
<!-- 0&#45;&gt;9 -->
<g id="edge10" class="edge">
<title>0&#45;&gt;9</title>
<path fill="none" stroke="black" d="M797.26,-101.28C896.97,-93.27 1193.7,-68.3 1438.7,-36 1447.61,-34.82 1456.92,-33.5 1466.18,-32.13"/>
<polygon fill="black" stroke="black" points="1466.82,-35.57 1476.19,-30.62 1465.78,-28.65 1466.82,-35.57"/>
<text text-anchor="middle" x="1307.2" y="-57.8" font-family="Times New Roman,serif" font-size="14.00">0.043</text>
</g>
</g>
</svg>
