<?xml version="1.0" encoding="UTF-8" standalone="no"?>
<!DOCTYPE svg PUBLIC "-//W3C//DTD SVG 1.1//EN"
 "http://www.w3.org/Graphics/SVG/1.1/DTD/svg11.dtd">
<!-- Generated by graphviz version 2.44.1 (20200629.0800)
 -->
<!-- Title: test Pages: 1 -->
<svg width="1486pt" height="131pt"
 viewBox="0.00 0.00 1486.13 131.00" xmlns="http://www.w3.org/2000/svg" xmlns:xlink="http://www.w3.org/1999/xlink">
<g id="graph0" class="graph" transform="scale(1 1) rotate(0) translate(4 127)">
<title>test</title>
<polygon fill="white" stroke="transparent" points="-4,4 -4,-127 1482.13,-127 1482.13,4 -4,4"/>
<!-- 0 -->
<g id="node1" class="node">
<title>0</title>
<g id="a_node1"><a xlink:href="from_economist.svg" xlink:title="economist">
<ellipse fill="none" stroke="black" cx="730.44" cy="-105" rx="48.19" ry="18"/>
<text text-anchor="middle" x="730.44" y="-101.3" font-family="Times New Roman,serif" font-size="14.00">economist</text>
</a>
</g>
</g>
<!-- 0&#45;&gt;0 -->
<g id="edge1" class="edge">
<title>0&#45;&gt;0</title>
<path fill="none" stroke="black" d="M773.98,-112.85C786.69,-112.58 796.54,-109.96 796.54,-105 796.54,-101.51 791.67,-99.18 784.36,-98.01"/>
<polygon fill="black" stroke="black" points="784.24,-94.49 773.98,-97.15 783.66,-101.46 784.24,-94.49"/>
<text text-anchor="middle" x="809.04" y="-101.3" font-family="Times New Roman,serif" font-size="14.00">0.25</text>
</g>
<!-- 1 -->
<g id="node2" class="node">
<title>1</title>
<g id="a_node2"><a xlink:href="from_government research officer.svg" xlink:title="government research officer">
<ellipse fill="none" stroke="black" cx="112.44" cy="-18" rx="112.38" ry="18"/>
<text text-anchor="middle" x="112.44" y="-14.3" font-family="Times New Roman,serif" font-size="14.00">government research officer</text>
</a>
</g>
</g>
<!-- 0&#45;&gt;1 -->
<g id="edge2" class="edge">
<title>0&#45;&gt;1</title>
<path fill="none" stroke="black" d="M684.63,-99.23C625.72,-92.96 520.32,-81.3 430.44,-69 351.08,-58.14 260.9,-43.76 196.89,-33.22"/>
<polygon fill="black" stroke="black" points="197.29,-29.73 186.85,-31.56 196.15,-36.64 197.29,-29.73"/>
<text text-anchor="middle" x="439.44" y="-57.8" font-family="Times New Roman,serif" font-size="14.00">0.2</text>
</g>
<!-- 2 -->
<g id="node3" class="node">
<title>2</title>
<g id="a_node3"><a xlink:href="from_it consultant.svg" xlink:title="it consultant">
<ellipse fill="none" stroke="black" cx="297.44" cy="-18" rx="54.69" ry="18"/>
<text text-anchor="middle" x="297.44" y="-14.3" font-family="Times New Roman,serif" font-size="14.00">it consultant</text>
</a>
</g>
</g>
<!-- 0&#45;&gt;2 -->
<g id="edge3" class="edge">
<title>0&#45;&gt;2</title>
<path fill="none" stroke="black" d="M686.71,-97.3C617.35,-86.38 478.01,-63.18 361.44,-36 357.04,-34.97 352.48,-33.86 347.92,-32.71"/>
<polygon fill="black" stroke="black" points="348.53,-29.26 337.97,-30.17 346.79,-36.04 348.53,-29.26"/>
<text text-anchor="middle" x="522.44" y="-57.8" font-family="Times New Roman,serif" font-size="14.00">0.1</text>
</g>
<!-- 3 -->
<g id="node4" class="node">
<title>3</title>
<g id="a_node4"><a xlink:href="from_aid worker.svg" xlink:title="aid worker">
<ellipse fill="none" stroke="black" cx="419.44" cy="-18" rx="49.29" ry="18"/>
<text text-anchor="middle" x="419.44" y="-14.3" font-family="Times New Roman,serif" font-size="14.00">aid worker</text>
</a>
</g>
</g>
<!-- 0&#45;&gt;3 -->
<g id="edge4" class="edge">
<title>0&#45;&gt;3</title>
<path fill="none" stroke="black" d="M692.22,-94.01C642.62,-80.99 553.41,-57.34 477.44,-36 473.84,-34.99 470.13,-33.93 466.39,-32.86"/>
<polygon fill="black" stroke="black" points="467.11,-29.42 456.53,-30.01 465.17,-36.15 467.11,-29.42"/>
<text text-anchor="middle" x="607.94" y="-57.8" font-family="Times New Roman,serif" font-size="14.00">0.05</text>
</g>
<!-- 4 -->
<g id="node5" class="node">
<title>4</title>
<g id="a_node5"><a xlink:href="from_careers adviser.svg" xlink:title="careers adviser">
<ellipse fill="none" stroke="black" cx="551.44" cy="-18" rx="64.99" ry="18"/>
<text text-anchor="middle" x="551.44" y="-14.3" font-family="Times New Roman,serif" font-size="14.00">careers adviser</text>
</a>
</g>
</g>
<!-- 0&#45;&gt;4 -->
<g id="edge5" class="edge">
<title>0&#45;&gt;4</title>
<path fill="none" stroke="black" d="M701.68,-90.34C671.96,-76.23 625.32,-54.08 591.89,-38.21"/>
<polygon fill="black" stroke="black" points="593.37,-35.04 582.84,-33.91 590.37,-41.36 593.37,-35.04"/>
<text text-anchor="middle" x="664.94" y="-57.8" font-family="Times New Roman,serif" font-size="14.00">0.05</text>
</g>
<!-- 5 -->
<g id="node6" class="node">
<title>5</title>
<g id="a_node6"><a xlink:href="from_education administrator.svg" xlink:title="education administrator">
<ellipse fill="none" stroke="black" cx="730.44" cy="-18" rx="95.58" ry="18"/>
<text text-anchor="middle" x="730.44" y="-14.3" font-family="Times New Roman,serif" font-size="14.00">education administrator</text>
</a>
</g>
</g>
<!-- 0&#45;&gt;5 -->
<g id="edge6" class="edge">
<title>0&#45;&gt;5</title>
<path fill="none" stroke="black" d="M730.44,-86.8C730.44,-75.16 730.44,-59.55 730.44,-46.24"/>
<polygon fill="black" stroke="black" points="733.94,-46.18 730.44,-36.18 726.94,-46.18 733.94,-46.18"/>
<text text-anchor="middle" x="742.94" y="-57.8" font-family="Times New Roman,serif" font-size="14.00">0.05</text>
</g>
<!-- 6 -->
<g id="node7" class="node">
<title>6</title>
<g id="a_node7"><a xlink:href="from_facilities manager.svg" xlink:title="facilities manager">
<ellipse fill="none" stroke="black" cx="916.44" cy="-18" rx="72.59" ry="18"/>
<text text-anchor="middle" x="916.44" y="-14.3" font-family="Times New Roman,serif" font-size="14.00">facilities manager</text>
</a>
</g>
</g>
<!-- 0&#45;&gt;6 -->
<g id="edge7" class="edge">
<title>0&#45;&gt;6</title>
<path fill="none" stroke="black" d="M759.91,-90.53C790.62,-76.5 839.04,-54.37 873.9,-38.44"/>
<polygon fill="black" stroke="black" points="875.7,-41.47 883.34,-34.13 872.79,-35.1 875.7,-41.47"/>
<text text-anchor="middle" x="847.94" y="-57.8" font-family="Times New Roman,serif" font-size="14.00">0.05</text>
</g>
<!-- 7 -->
<g id="node8" class="node">
<title>7</title>
<g id="a_node8"><a xlink:href="from_financial manager.svg" xlink:title="financial manager">
<ellipse fill="none" stroke="black" cx="1080.44" cy="-18" rx="73.39" ry="18"/>
<text text-anchor="middle" x="1080.44" y="-14.3" font-family="Times New Roman,serif" font-size="14.00">financial manager</text>
</a>
</g>
</g>
<!-- 0&#45;&gt;7 -->
<g id="edge8" class="edge">
<title>0&#45;&gt;7</title>
<path fill="none" stroke="black" d="M769.57,-94.5C830.56,-79.68 948.73,-50.99 1020.51,-33.55"/>
<polygon fill="black" stroke="black" points="1021.43,-36.93 1030.32,-31.17 1019.77,-30.13 1021.43,-36.93"/>
<text text-anchor="middle" x="938.94" y="-57.8" font-family="Times New Roman,serif" font-size="14.00">0.05</text>
</g>
<!-- 8 -->
<g id="node9" class="node">
<title>8</title>
<g id="a_node9"><a xlink:href="from_housing adviser.svg" xlink:title="housing adviser">
<ellipse fill="none" stroke="black" cx="1239.44" cy="-18" rx="67.69" ry="18"/>
<text text-anchor="middle" x="1239.44" y="-14.3" font-family="Times New Roman,serif" font-size="14.00">housing adviser</text>
</a>
</g>
</g>
<!-- 0&#45;&gt;8 -->
<g id="edge9" class="edge">
<title>0&#45;&gt;8</title>
<path fill="none" stroke="black" d="M774.75,-97.97C853.18,-87.08 1021.46,-62.78 1162.44,-36 1168.13,-34.92 1174.04,-33.73 1179.94,-32.5"/>
<polygon fill="black" stroke="black" points="1180.77,-35.91 1189.82,-30.41 1179.32,-29.06 1180.77,-35.91"/>
<text text-anchor="middle" x="1068.94" y="-57.8" font-family="Times New Roman,serif" font-size="14.00">0.05</text>
</g>
<!-- 9 -->
<g id="node10" class="node">
<title>9</title>
<g id="a_node10"><a xlink:href="from_investment analyst.svg" xlink:title="investment analyst">
<ellipse fill="none" stroke="black" cx="1401.44" cy="-18" rx="76.89" ry="18"/>
<text text-anchor="middle" x="1401.44" y="-14.3" font-family="Times New Roman,serif" font-size="14.00">investment analyst</text>
</a>
</g>
</g>
<!-- 0&#45;&gt;9 -->
<g id="edge10" class="edge">
<title>0&#45;&gt;9</title>
<path fill="none" stroke="black" d="M777.02,-100.32C876.54,-92.08 1117.07,-70.15 1316.44,-36 1322.77,-34.92 1329.35,-33.72 1335.92,-32.48"/>
<polygon fill="black" stroke="black" points="1337.04,-35.83 1346.2,-30.51 1335.72,-28.96 1337.04,-35.83"/>
<text text-anchor="middle" x="1201.94" y="-57.8" font-family="Times New Roman,serif" font-size="14.00">0.05</text>
</g>
</g>
</svg>
