<?xml version="1.0" encoding="UTF-8" standalone="no"?>
<!DOCTYPE svg PUBLIC "-//W3C//DTD SVG 1.1//EN"
 "http://www.w3.org/Graphics/SVG/1.1/DTD/svg11.dtd">
<!-- Generated by graphviz version 2.44.1 (20200629.0800)
 -->
<!-- Title: test Pages: 1 -->
<svg width="1472pt" height="131pt"
 viewBox="0.00 0.00 1472.03 131.00" xmlns="http://www.w3.org/2000/svg" xmlns:xlink="http://www.w3.org/1999/xlink">
<g id="graph0" class="graph" transform="scale(1 1) rotate(0) translate(4 127)">
<title>test</title>
<polygon fill="white" stroke="transparent" points="-4,4 -4,-127 1468.03,-127 1468.03,4 -4,4"/>
<!-- 0 -->
<g id="node1" class="node">
<title>0</title>
<g id="a_node1"><a xlink:href="from_clinical biochemist.svg" xlink:title="clinical biochemist">
<ellipse fill="none" stroke="black" cx="763.99" cy="-105" rx="77.19" ry="18"/>
<text text-anchor="middle" x="763.99" y="-101.3" font-family="Times New Roman,serif" font-size="14.00">clinical biochemist</text>
</a>
</g>
</g>
<!-- 0&#45;&gt;0 -->
<g id="edge1" class="edge">
<title>0&#45;&gt;0</title>
<path fill="none" stroke="black" d="M834.26,-112.6C848.84,-111.8 859.33,-109.27 859.33,-105 859.33,-101.8 853.43,-99.58 844.33,-98.33"/>
<polygon fill="black" stroke="black" points="844.53,-94.83 834.26,-97.4 843.89,-101.8 844.53,-94.83"/>
<text text-anchor="middle" x="874.83" y="-101.3" font-family="Times New Roman,serif" font-size="14.00">0.171</text>
</g>
<!-- 1 -->
<g id="node2" class="node">
<title>1</title>
<g id="a_node2"><a xlink:href="from_clinical research associate.svg" xlink:title="clinical research associate">
<ellipse fill="none" stroke="black" cx="103.99" cy="-18" rx="103.98" ry="18"/>
<text text-anchor="middle" x="103.99" y="-14.3" font-family="Times New Roman,serif" font-size="14.00">clinical research associate</text>
</a>
</g>
</g>
<!-- 0&#45;&gt;1 -->
<g id="edge2" class="edge">
<title>0&#45;&gt;1</title>
<path fill="none" stroke="black" d="M691.7,-98.51C618.51,-92.59 502.15,-82.23 401.99,-69 326.89,-59.08 241.7,-44.44 181.7,-33.57"/>
<polygon fill="black" stroke="black" points="182.01,-30.07 171.55,-31.72 180.76,-36.95 182.01,-30.07"/>
<text text-anchor="middle" x="417.49" y="-57.8" font-family="Times New Roman,serif" font-size="14.00">0.114</text>
</g>
<!-- 2 -->
<g id="node3" class="node">
<title>2</title>
<g id="a_node3"><a xlink:href="from_it consultant.svg" xlink:title="it consultant">
<ellipse fill="none" stroke="black" cx="280.99" cy="-18" rx="54.69" ry="18"/>
<text text-anchor="middle" x="280.99" y="-14.3" font-family="Times New Roman,serif" font-size="14.00">it consultant</text>
</a>
</g>
</g>
<!-- 0&#45;&gt;2 -->
<g id="edge3" class="edge">
<title>0&#45;&gt;2</title>
<path fill="none" stroke="black" d="M698.27,-95.5C615.43,-84.3 468.88,-62.82 344.99,-36 340.39,-35 335.62,-33.89 330.85,-32.72"/>
<polygon fill="black" stroke="black" points="331.69,-29.32 321.14,-30.27 329.98,-36.11 331.69,-29.32"/>
<text text-anchor="middle" x="532.49" y="-57.8" font-family="Times New Roman,serif" font-size="14.00">0.085</text>
</g>
<!-- 3 -->
<g id="node4" class="node">
<title>3</title>
<g id="a_node4"><a xlink:href="from_medical physicist.svg" xlink:title="medical physicist">
<ellipse fill="none" stroke="black" cx="426.99" cy="-18" rx="73.39" ry="18"/>
<text text-anchor="middle" x="426.99" y="-14.3" font-family="Times New Roman,serif" font-size="14.00">medical physicist</text>
</a>
</g>
</g>
<!-- 0&#45;&gt;3 -->
<g id="edge4" class="edge">
<title>0&#45;&gt;3</title>
<path fill="none" stroke="black" d="M713.54,-91.27C652.71,-75.93 550.64,-50.19 486.16,-33.92"/>
<polygon fill="black" stroke="black" points="486.69,-30.45 476.14,-31.4 484.98,-37.24 486.69,-30.45"/>
<text text-anchor="middle" x="631.49" y="-57.8" font-family="Times New Roman,serif" font-size="14.00">0.085</text>
</g>
<!-- 4 -->
<g id="node5" class="node">
<title>4</title>
<g id="a_node5"><a xlink:href="from_research scientist.svg" xlink:title="research scientist">
<ellipse fill="none" stroke="black" cx="590.99" cy="-18" rx="72.59" ry="18"/>
<text text-anchor="middle" x="590.99" y="-14.3" font-family="Times New Roman,serif" font-size="14.00">research scientist</text>
</a>
</g>
</g>
<!-- 0&#45;&gt;4 -->
<g id="edge5" class="edge">
<title>0&#45;&gt;4</title>
<path fill="none" stroke="black" d="M732.26,-88.41C703.88,-74.47 662.15,-53.96 631.39,-38.85"/>
<polygon fill="black" stroke="black" points="632.75,-35.62 622.23,-34.35 629.66,-41.9 632.75,-35.62"/>
<text text-anchor="middle" x="703.49" y="-57.8" font-family="Times New Roman,serif" font-size="14.00">0.085</text>
</g>
<!-- 5 -->
<g id="node6" class="node">
<title>5</title>
<g id="a_node6"><a xlink:href="from_biomedical scientist.svg" xlink:title="biomedical scientist">
<ellipse fill="none" stroke="black" cx="763.99" cy="-18" rx="81.79" ry="18"/>
<text text-anchor="middle" x="763.99" y="-14.3" font-family="Times New Roman,serif" font-size="14.00">biomedical scientist</text>
</a>
</g>
</g>
<!-- 0&#45;&gt;5 -->
<g id="edge6" class="edge">
<title>0&#45;&gt;5</title>
<path fill="none" stroke="black" d="M763.99,-86.8C763.99,-75.16 763.99,-59.55 763.99,-46.24"/>
<polygon fill="black" stroke="black" points="767.49,-46.18 763.99,-36.18 760.49,-46.18 767.49,-46.18"/>
<text text-anchor="middle" x="779.49" y="-57.8" font-family="Times New Roman,serif" font-size="14.00">0.057</text>
</g>
<!-- 6 -->
<g id="node7" class="node">
<title>6</title>
<g id="a_node7"><a xlink:href="from_laboratory technician.svg" xlink:title="laboratory technician">
<ellipse fill="none" stroke="black" cx="949.99" cy="-18" rx="86.38" ry="18"/>
<text text-anchor="middle" x="949.99" y="-14.3" font-family="Times New Roman,serif" font-size="14.00">laboratory technician</text>
</a>
</g>
</g>
<!-- 0&#45;&gt;6 -->
<g id="edge7" class="edge">
<title>0&#45;&gt;6</title>
<path fill="none" stroke="black" d="M797.67,-88.61C828.16,-74.67 873.25,-54.07 906.47,-38.89"/>
<polygon fill="black" stroke="black" points="908.29,-41.91 915.93,-34.57 905.38,-35.54 908.29,-41.91"/>
<text text-anchor="middle" x="884.49" y="-57.8" font-family="Times New Roman,serif" font-size="14.00">0.057</text>
</g>
<!-- 7 -->
<g id="node8" class="node">
<title>7</title>
<g id="a_node8"><a xlink:href="from_lecturer.svg" xlink:title="lecturer">
<ellipse fill="none" stroke="black" cx="1091.99" cy="-18" rx="37.89" ry="18"/>
<text text-anchor="middle" x="1091.99" y="-14.3" font-family="Times New Roman,serif" font-size="14.00">lecturer</text>
</a>
</g>
</g>
<!-- 0&#45;&gt;7 -->
<g id="edge8" class="edge">
<title>0&#45;&gt;7</title>
<path fill="none" stroke="black" d="M819.66,-92.42C876.7,-80.11 967.73,-59.25 1044.99,-36 1047.89,-35.13 1050.87,-34.18 1053.86,-33.19"/>
<polygon fill="black" stroke="black" points="1055.01,-36.49 1063.32,-29.93 1052.73,-29.87 1055.01,-36.49"/>
<text text-anchor="middle" x="992.49" y="-57.8" font-family="Times New Roman,serif" font-size="14.00">0.057</text>
</g>
<!-- 8 -->
<g id="node9" class="node">
<title>8</title>
<g id="a_node9"><a xlink:href="from_teaching assistant.svg" xlink:title="teaching assistant">
<ellipse fill="none" stroke="black" cx="1220.99" cy="-18" rx="73.39" ry="18"/>
<text text-anchor="middle" x="1220.99" y="-14.3" font-family="Times New Roman,serif" font-size="14.00">teaching assistant</text>
</a>
</g>
</g>
<!-- 0&#45;&gt;8 -->
<g id="edge9" class="edge">
<title>0&#45;&gt;8</title>
<path fill="none" stroke="black" d="M831.64,-96.21C881.66,-90.02 951.33,-80.51 1011.99,-69 1063.57,-59.21 1121.6,-45.08 1163.39,-34.33"/>
<polygon fill="black" stroke="black" points="1164.32,-37.71 1173.12,-31.82 1162.56,-30.93 1164.32,-37.71"/>
<text text-anchor="middle" x="1097.49" y="-57.8" font-family="Times New Roman,serif" font-size="14.00">0.057</text>
</g>
<!-- 9 -->
<g id="node10" class="node">
<title>9</title>
<g id="a_node10"><a xlink:href="from_academic librarian.svg" xlink:title="academic librarian">
<ellipse fill="none" stroke="black" cx="1387.99" cy="-18" rx="76.09" ry="18"/>
<text text-anchor="middle" x="1387.99" y="-14.3" font-family="Times New Roman,serif" font-size="14.00">academic librarian</text>
</a>
</g>
</g>
<!-- 0&#45;&gt;9 -->
<g id="edge10" class="edge">
<title>0&#45;&gt;9</title>
<path fill="none" stroke="black" d="M836.18,-98.47C907.66,-92.62 1020.14,-82.37 1116.99,-69 1200.16,-57.52 1220.49,-51.57 1302.99,-36 1309.2,-34.83 1315.66,-33.58 1322.12,-32.32"/>
<polygon fill="black" stroke="black" points="1323.11,-35.69 1332.24,-30.33 1321.76,-28.83 1323.11,-35.69"/>
<text text-anchor="middle" x="1226.49" y="-57.8" font-family="Times New Roman,serif" font-size="14.00">0.028</text>
</g>
</g>
</svg>
