<?xml version="1.0" encoding="UTF-8" standalone="no"?>
<!DOCTYPE svg PUBLIC "-//W3C//DTD SVG 1.1//EN"
 "http://www.w3.org/Graphics/SVG/1.1/DTD/svg11.dtd">
<!-- Generated by graphviz version 2.44.1 (20200629.0800)
 -->
<!-- Title: test Pages: 1 -->
<svg width="897pt" height="131pt"
 viewBox="0.00 0.00 896.84 131.00" xmlns="http://www.w3.org/2000/svg" xmlns:xlink="http://www.w3.org/1999/xlink">
<g id="graph0" class="graph" transform="scale(1 1) rotate(0) translate(4 127)">
<title>test</title>
<polygon fill="white" stroke="transparent" points="-4,4 -4,-127 892.84,-127 892.84,4 -4,4"/>
<!-- 0 -->
<g id="node1" class="node">
<title>0</title>
<g id="a_node1"><a xlink:href="from_oceanographer.svg" xlink:title="oceanographer">
<ellipse fill="none" stroke="black" cx="483.29" cy="-105" rx="64.19" ry="18"/>
<text text-anchor="middle" x="483.29" y="-101.3" font-family="Times New Roman,serif" font-size="14.00">oceanographer</text>
</a>
</g>
</g>
<!-- 0&#45;&gt;0 -->
<g id="edge1" class="edge">
<title>0&#45;&gt;0</title>
<path fill="none" stroke="black" d="M541.76,-112.72C555.5,-112.08 565.64,-109.51 565.64,-105 565.64,-101.69 560.17,-99.42 551.83,-98.2"/>
<polygon fill="black" stroke="black" points="552.04,-94.7 541.76,-97.28 551.41,-101.67 552.04,-94.7"/>
<text text-anchor="middle" x="581.14" y="-101.3" font-family="Times New Roman,serif" font-size="14.00">0.333</text>
</g>
<!-- 1 -->
<g id="node2" class="node">
<title>1</title>
<g id="a_node2"><a xlink:href="from_biotechnologist.svg" xlink:title="biotechnologist">
<ellipse fill="none" stroke="black" cx="66.29" cy="-18" rx="66.09" ry="18"/>
<text text-anchor="middle" x="66.29" y="-14.3" font-family="Times New Roman,serif" font-size="14.00">biotechnologist</text>
</a>
</g>
</g>
<!-- 0&#45;&gt;1 -->
<g id="edge2" class="edge">
<title>0&#45;&gt;1</title>
<path fill="none" stroke="black" d="M431.64,-94.17C364.6,-81.32 244.03,-57.85 141.29,-36 135.99,-34.87 130.48,-33.67 124.96,-32.46"/>
<polygon fill="black" stroke="black" points="125.59,-29.01 115.07,-30.25 124.07,-35.84 125.59,-29.01"/>
<text text-anchor="middle" x="316.79" y="-57.8" font-family="Times New Roman,serif" font-size="14.00">0.166</text>
</g>
<!-- 2 -->
<g id="node3" class="node">
<title>2</title>
<g id="a_node3"><a xlink:href="from_environmental manager.svg" xlink:title="environmental manager">
<ellipse fill="none" stroke="black" cx="244.29" cy="-18" rx="93.68" ry="18"/>
<text text-anchor="middle" x="244.29" y="-14.3" font-family="Times New Roman,serif" font-size="14.00">environmental manager</text>
</a>
</g>
</g>
<!-- 0&#45;&gt;2 -->
<g id="edge3" class="edge">
<title>0&#45;&gt;2</title>
<path fill="none" stroke="black" d="M445.16,-90.44C404.89,-76.11 341.14,-53.44 296.28,-37.49"/>
<polygon fill="black" stroke="black" points="297.32,-34.14 286.73,-34.09 294.97,-40.74 297.32,-34.14"/>
<text text-anchor="middle" x="393.79" y="-57.8" font-family="Times New Roman,serif" font-size="14.00">0.166</text>
</g>
<!-- 3 -->
<g id="node4" class="node">
<title>3</title>
<g id="a_node4"><a xlink:href="from_microbiologist.svg" xlink:title="microbiologist">
<ellipse fill="none" stroke="black" cx="419.29" cy="-18" rx="63.09" ry="18"/>
<text text-anchor="middle" x="419.29" y="-14.3" font-family="Times New Roman,serif" font-size="14.00">microbiologist</text>
</a>
</g>
</g>
<!-- 0&#45;&gt;3 -->
<g id="edge4" class="edge">
<title>0&#45;&gt;3</title>
<path fill="none" stroke="black" d="M470.65,-87.21C461.36,-74.87 448.58,-57.89 438.09,-43.97"/>
<polygon fill="black" stroke="black" points="440.72,-41.64 431.91,-35.76 435.13,-45.85 440.72,-41.64"/>
<text text-anchor="middle" x="470.79" y="-57.8" font-family="Times New Roman,serif" font-size="14.00">0.166</text>
</g>
<!-- 4 -->
<g id="node5" class="node">
<title>4</title>
<g id="a_node5"><a xlink:href="from_qa analyst.svg" xlink:title="qa analyst">
<ellipse fill="none" stroke="black" cx="547.29" cy="-18" rx="46.59" ry="18"/>
<text text-anchor="middle" x="547.29" y="-14.3" font-family="Times New Roman,serif" font-size="14.00">qa analyst</text>
</a>
</g>
</g>
<!-- 0&#45;&gt;4 -->
<g id="edge5" class="edge">
<title>0&#45;&gt;4</title>
<path fill="none" stroke="black" d="M495.94,-87.21C505.29,-74.79 518.18,-57.67 528.7,-43.7"/>
<polygon fill="black" stroke="black" points="531.67,-45.56 534.89,-35.47 526.08,-41.35 531.67,-45.56"/>
<text text-anchor="middle" x="534.79" y="-57.8" font-family="Times New Roman,serif" font-size="14.00">0.166</text>
</g>
<!-- 5 -->
<g id="node6" class="node">
<title>5</title>
<g id="a_node6"><a xlink:href="from_research scientist.svg" xlink:title="research scientist">
<ellipse fill="none" stroke="black" cx="685.29" cy="-18" rx="72.59" ry="18"/>
<text text-anchor="middle" x="685.29" y="-14.3" font-family="Times New Roman,serif" font-size="14.00">research scientist</text>
</a>
</g>
</g>
<!-- 0&#45;&gt;5 -->
<g id="edge6" class="edge">
<title>0&#45;&gt;5</title>
<path fill="none" stroke="black" d="M517.56,-89.58C551.45,-75.32 603.49,-53.42 640.61,-37.8"/>
<polygon fill="black" stroke="black" points="642.32,-40.88 650.18,-33.78 639.61,-34.43 642.32,-40.88"/>
<text text-anchor="middle" x="612.79" y="-57.8" font-family="Times New Roman,serif" font-size="14.00">0.166</text>
</g>
<!-- 6 -->
<g id="node7" class="node">
<title>6</title>
<g id="a_node7"><a xlink:href="from_water officer.svg" xlink:title="water officer">
<ellipse fill="none" stroke="black" cx="832.29" cy="-18" rx="56.59" ry="18"/>
<text text-anchor="middle" x="832.29" y="-14.3" font-family="Times New Roman,serif" font-size="14.00">water officer</text>
</a>
</g>
</g>
<!-- 0&#45;&gt;6 -->
<g id="edge7" class="edge">
<title>0&#45;&gt;6</title>
<path fill="none" stroke="black" d="M531.12,-92.94C587.64,-79.78 684.47,-56.95 767.29,-36 771.43,-34.95 775.71,-33.86 780.01,-32.75"/>
<polygon fill="black" stroke="black" points="781.21,-36.06 790.01,-30.16 779.45,-29.28 781.21,-36.06"/>
<text text-anchor="middle" x="705.79" y="-57.8" font-family="Times New Roman,serif" font-size="14.00">0.166</text>
</g>
</g>
</svg>
