<?xml version="1.0" encoding="UTF-8" standalone="no"?>
<!DOCTYPE svg PUBLIC "-//W3C//DTD SVG 1.1//EN"
 "http://www.w3.org/Graphics/SVG/1.1/DTD/svg11.dtd">
<!-- Generated by graphviz version 2.44.1 (20200629.0800)
 -->
<!-- Title: journalist Pages: 1 -->
<svg width="1393pt" height="131pt"
 viewBox="0.00 0.00 1393.09 131.00" xmlns="http://www.w3.org/2000/svg" xmlns:xlink="http://www.w3.org/1999/xlink">
<g id="graph0" class="graph" transform="scale(1 1) rotate(0) translate(4 127)">
<title>journalist</title>
<polygon fill="white" stroke="transparent" points="-4,4 -4,-127 1389.09,-127 1389.09,4 -4,4"/>
<!-- 0 -->
<g id="node1" class="node">
<title>0</title>
<g id="a_node1"><a xlink:href="from_journalist.svg" xlink:title="journalist">
<ellipse fill="none" stroke="black" cx="739.04" cy="-105" rx="43.59" ry="18"/>
<text text-anchor="middle" x="739.04" y="-101.3" font-family="Times New Roman,serif" font-size="14.00">journalist</text>
</a>
</g>
</g>
<!-- 0&#45;&gt;0 -->
<g id="edge1" class="edge">
<title>0&#45;&gt;0</title>
<path fill="none" stroke="black" d="M778.41,-112.87C790.81,-112.75 800.59,-110.13 800.59,-105 800.59,-101.4 795.75,-99.03 788.57,-97.9"/>
<polygon fill="black" stroke="black" points="788.64,-94.39 778.41,-97.13 788.11,-101.37 788.64,-94.39"/>
<text text-anchor="middle" x="816.09" y="-101.3" font-family="Times New Roman,serif" font-size="14.00">0.448</text>
</g>
<!-- 1 -->
<g id="node2" class="node">
<title>1</title>
<g id="a_node2"><a xlink:href="from_commissioning editor.svg" xlink:title="commissioning editor">
<ellipse fill="none" stroke="black" cx="89.04" cy="-18" rx="89.08" ry="18"/>
<text text-anchor="middle" x="89.04" y="-14.3" font-family="Times New Roman,serif" font-size="14.00">commissioning editor</text>
</a>
</g>
</g>
<!-- 0&#45;&gt;1 -->
<g id="edge2" class="edge">
<title>0&#45;&gt;1</title>
<path fill="none" stroke="black" d="M697.05,-99.9C635.53,-93.79 517.33,-81.64 417.04,-69 314.58,-56.09 289.04,-52.16 187.04,-36 179.43,-34.79 171.49,-33.49 163.57,-32.16"/>
<polygon fill="black" stroke="black" points="164.02,-28.69 153.57,-30.47 162.85,-35.59 164.02,-28.69"/>
<text text-anchor="middle" x="432.54" y="-57.8" font-family="Times New Roman,serif" font-size="14.00">0.128</text>
</g>
<!-- 2 -->
<g id="node3" class="node">
<title>2</title>
<g id="a_node3"><a xlink:href="from_production manager.svg" xlink:title="production manager">
<ellipse fill="none" stroke="black" cx="279.04" cy="-18" rx="83.39" ry="18"/>
<text text-anchor="middle" x="279.04" y="-14.3" font-family="Times New Roman,serif" font-size="14.00">production manager</text>
</a>
</g>
</g>
<!-- 0&#45;&gt;2 -->
<g id="edge3" class="edge">
<title>0&#45;&gt;2</title>
<path fill="none" stroke="black" d="M698.92,-97.86C656.05,-91.19 586.13,-80.01 526.04,-69 465.05,-57.82 395.88,-43.69 346.28,-33.31"/>
<polygon fill="black" stroke="black" points="346.83,-29.85 336.32,-31.22 345.39,-36.7 346.83,-29.85"/>
<text text-anchor="middle" x="541.54" y="-57.8" font-family="Times New Roman,serif" font-size="14.00">0.089</text>
</g>
<!-- 3 -->
<g id="node4" class="node">
<title>3</title>
<g id="a_node4"><a xlink:href="from_media planner.svg" xlink:title="media planner">
<ellipse fill="none" stroke="black" cx="441.04" cy="-18" rx="61.19" ry="18"/>
<text text-anchor="middle" x="441.04" y="-14.3" font-family="Times New Roman,serif" font-size="14.00">media planner</text>
</a>
</g>
</g>
<!-- 0&#45;&gt;3 -->
<g id="edge4" class="edge">
<title>0&#45;&gt;3</title>
<path fill="none" stroke="black" d="M703.69,-94.42C678.19,-87.46 642.95,-77.78 612.04,-69 571.69,-57.54 526.1,-44.19 492.15,-34.17"/>
<polygon fill="black" stroke="black" points="493.04,-30.78 482.45,-31.3 491.05,-37.49 493.04,-30.78"/>
<text text-anchor="middle" x="627.54" y="-57.8" font-family="Times New Roman,serif" font-size="14.00">0.064</text>
</g>
<!-- 4 -->
<g id="node5" class="node">
<title>4</title>
<g id="a_node5"><a xlink:href="from_press editor.svg" xlink:title="press editor">
<ellipse fill="none" stroke="black" cx="574.04" cy="-18" rx="53.89" ry="18"/>
<text text-anchor="middle" x="574.04" y="-14.3" font-family="Times New Roman,serif" font-size="14.00">press editor</text>
</a>
</g>
</g>
<!-- 0&#45;&gt;4 -->
<g id="edge5" class="edge">
<title>0&#45;&gt;4</title>
<path fill="none" stroke="black" d="M712.9,-90.53C685.47,-76.4 642.14,-54.08 611.18,-38.13"/>
<polygon fill="black" stroke="black" points="612.49,-34.87 601.99,-33.4 609.28,-41.09 612.49,-34.87"/>
<text text-anchor="middle" x="682.54" y="-57.8" font-family="Times New Roman,serif" font-size="14.00">0.051</text>
</g>
<!-- 5 -->
<g id="node6" class="node">
<title>5</title>
<g id="a_node6"><a xlink:href="from_broadcasting presenter.svg" xlink:title="broadcasting presenter">
<ellipse fill="none" stroke="black" cx="739.04" cy="-18" rx="92.88" ry="18"/>
<text text-anchor="middle" x="739.04" y="-14.3" font-family="Times New Roman,serif" font-size="14.00">broadcasting presenter</text>
</a>
</g>
</g>
<!-- 0&#45;&gt;5 -->
<g id="edge6" class="edge">
<title>0&#45;&gt;5</title>
<path fill="none" stroke="black" d="M739.04,-86.8C739.04,-75.16 739.04,-59.55 739.04,-46.24"/>
<polygon fill="black" stroke="black" points="742.54,-46.18 739.04,-36.18 735.54,-46.18 742.54,-46.18"/>
<text text-anchor="middle" x="754.54" y="-57.8" font-family="Times New Roman,serif" font-size="14.00">0.038</text>
</g>
<!-- 6 -->
<g id="node7" class="node">
<title>6</title>
<g id="a_node7"><a xlink:href="from_public house manager.svg" xlink:title="public house manager">
<ellipse fill="none" stroke="black" cx="940.04" cy="-18" rx="89.88" ry="18"/>
<text text-anchor="middle" x="940.04" y="-14.3" font-family="Times New Roman,serif" font-size="14.00">public house manager</text>
</a>
</g>
</g>
<!-- 0&#45;&gt;6 -->
<g id="edge7" class="edge">
<title>0&#45;&gt;6</title>
<path fill="none" stroke="black" d="M768.27,-91.64C801.19,-77.72 855.14,-54.9 893.79,-38.56"/>
<polygon fill="black" stroke="black" points="895.42,-41.67 903.27,-34.55 892.7,-35.22 895.42,-41.67"/>
<text text-anchor="middle" x="867.54" y="-57.8" font-family="Times New Roman,serif" font-size="14.00">0.038</text>
</g>
<!-- 7 -->
<g id="node8" class="node">
<title>7</title>
<g id="a_node8"><a xlink:href="from_secretary.svg" xlink:title="secretary">
<ellipse fill="none" stroke="black" cx="1091.04" cy="-18" rx="43.59" ry="18"/>
<text text-anchor="middle" x="1091.04" y="-14.3" font-family="Times New Roman,serif" font-size="14.00">secretary</text>
</a>
</g>
</g>
<!-- 0&#45;&gt;7 -->
<g id="edge8" class="edge">
<title>0&#45;&gt;7</title>
<path fill="none" stroke="black" d="M777.69,-96.44C835.09,-84.94 946.12,-61.66 1039.04,-36 1042.35,-35.09 1045.75,-34.09 1049.17,-33.06"/>
<polygon fill="black" stroke="black" points="1050.22,-36.4 1058.73,-30.08 1048.14,-29.72 1050.22,-36.4"/>
<text text-anchor="middle" x="981.54" y="-57.8" font-family="Times New Roman,serif" font-size="14.00">0.038</text>
</g>
<!-- 8 -->
<g id="node9" class="node">
<title>8</title>
<g id="a_node9"><a xlink:href="from_writer.svg" xlink:title="writer">
<ellipse fill="none" stroke="black" cx="1184.04" cy="-18" rx="31.4" ry="18"/>
<text text-anchor="middle" x="1184.04" y="-14.3" font-family="Times New Roman,serif" font-size="14.00">writer</text>
</a>
</g>
</g>
<!-- 0&#45;&gt;8 -->
<g id="edge9" class="edge">
<title>0&#45;&gt;8</title>
<path fill="none" stroke="black" d="M781.71,-101C856.64,-94.83 1016.06,-77.61 1144.04,-36 1146.28,-35.27 1148.57,-34.47 1150.86,-33.62"/>
<polygon fill="black" stroke="black" points="1152.17,-36.87 1160.19,-29.94 1149.6,-30.35 1152.17,-36.87"/>
<text text-anchor="middle" x="1095.54" y="-57.8" font-family="Times New Roman,serif" font-size="14.00">0.038</text>
</g>
<!-- 9 -->
<g id="node10" class="node">
<title>9</title>
<g id="a_node10"><a xlink:href="from_academic librarian.svg" xlink:title="academic librarian">
<ellipse fill="none" stroke="black" cx="1309.04" cy="-18" rx="76.09" ry="18"/>
<text text-anchor="middle" x="1309.04" y="-14.3" font-family="Times New Roman,serif" font-size="14.00">academic librarian</text>
</a>
</g>
</g>
<!-- 0&#45;&gt;9 -->
<g id="edge10" class="edge">
<title>0&#45;&gt;9</title>
<path fill="none" stroke="black" d="M782.19,-102.22C852.41,-98.83 995.56,-89.82 1115.04,-69 1162.69,-60.7 1215.83,-46.66 1254.42,-35.57"/>
<polygon fill="black" stroke="black" points="1255.78,-38.82 1264.4,-32.67 1253.83,-32.1 1255.78,-38.82"/>
<text text-anchor="middle" x="1200.54" y="-57.8" font-family="Times New Roman,serif" font-size="14.00">0.025</text>
</g>
</g>
</svg>
