<?xml version="1.0" encoding="UTF-8" standalone="no"?>
<!DOCTYPE svg PUBLIC "-//W3C//DTD SVG 1.1//EN"
 "http://www.w3.org/Graphics/SVG/1.1/DTD/svg11.dtd">
<!-- Generated by graphviz version 2.44.1 (20200629.0800)
 -->
<!-- Title: test Pages: 1 -->
<svg width="1770pt" height="131pt"
 viewBox="0.00 0.00 1769.63 131.00" xmlns="http://www.w3.org/2000/svg" xmlns:xlink="http://www.w3.org/1999/xlink">
<g id="graph0" class="graph" transform="scale(1 1) rotate(0) translate(4 127)">
<title>test</title>
<polygon fill="white" stroke="transparent" points="-4,4 -4,-127 1765.63,-127 1765.63,4 -4,4"/>
<!-- 0 -->
<g id="node1" class="node">
<title>0</title>
<g id="a_node1"><a xlink:href="from_welfare rights adviser.svg" xlink:title="welfare rights adviser">
<ellipse fill="none" stroke="black" cx="780.99" cy="-105" rx="87.18" ry="18"/>
<text text-anchor="middle" x="780.99" y="-101.3" font-family="Times New Roman,serif" font-size="14.00">welfare rights adviser</text>
</a>
</g>
</g>
<!-- 1 -->
<g id="node2" class="node">
<title>1</title>
<g id="a_node2"><a xlink:href="from_careers adviser.svg" xlink:title="careers adviser">
<ellipse fill="none" stroke="black" cx="64.99" cy="-18" rx="64.99" ry="18"/>
<text text-anchor="middle" x="64.99" y="-14.3" font-family="Times New Roman,serif" font-size="14.00">careers adviser</text>
</a>
</g>
</g>
<!-- 0&#45;&gt;1 -->
<g id="edge1" class="edge">
<title>0&#45;&gt;1</title>
<path fill="none" stroke="black" d="M697.75,-99.6C574.72,-92.1 337.45,-73.83 138.99,-36 133.57,-34.97 127.94,-33.82 122.32,-32.61"/>
<polygon fill="black" stroke="black" points="122.77,-29.13 112.25,-30.41 121.28,-35.97 122.77,-29.13"/>
<text text-anchor="middle" x="365.49" y="-57.8" font-family="Times New Roman,serif" font-size="14.00">0.074</text>
</g>
<!-- 2 -->
<g id="node3" class="node">
<title>2</title>
<g id="a_node3"><a xlink:href="from_project manager.svg" xlink:title="project manager">
<ellipse fill="none" stroke="black" cx="216.99" cy="-18" rx="68.79" ry="18"/>
<text text-anchor="middle" x="216.99" y="-14.3" font-family="Times New Roman,serif" font-size="14.00">project manager</text>
</a>
</g>
</g>
<!-- 0&#45;&gt;2 -->
<g id="edge2" class="edge">
<title>0&#45;&gt;2</title>
<path fill="none" stroke="black" d="M705.06,-96.11C645.39,-89.64 560.25,-79.81 485.99,-69 400.75,-56.59 379.54,-52.51 294.99,-36 289.33,-34.89 283.44,-33.7 277.56,-32.47"/>
<polygon fill="black" stroke="black" points="278.2,-29.03 267.7,-30.39 276.76,-35.88 278.2,-29.03"/>
<text text-anchor="middle" x="501.49" y="-57.8" font-family="Times New Roman,serif" font-size="14.00">0.074</text>
</g>
<!-- 3 -->
<g id="node4" class="node">
<title>3</title>
<g id="a_node4"><a xlink:href="from_sales manager.svg" xlink:title="sales manager">
<ellipse fill="none" stroke="black" cx="364.99" cy="-18" rx="61.19" ry="18"/>
<text text-anchor="middle" x="364.99" y="-14.3" font-family="Times New Roman,serif" font-size="14.00">sales manager</text>
</a>
</g>
</g>
<!-- 0&#45;&gt;3 -->
<g id="edge3" class="edge">
<title>0&#45;&gt;3</title>
<path fill="none" stroke="black" d="M718,-92.49C648.52,-79.58 533.5,-57.63 434.99,-36 430.08,-34.92 424.98,-33.76 419.88,-32.57"/>
<polygon fill="black" stroke="black" points="420.65,-29.16 410.11,-30.27 419.04,-35.97 420.65,-29.16"/>
<text text-anchor="middle" x="602.49" y="-57.8" font-family="Times New Roman,serif" font-size="14.00">0.055</text>
</g>
<!-- 4 -->
<g id="node5" class="node">
<title>4</title>
<g id="a_node5"><a xlink:href="from_civil service administrator.svg" xlink:title="civil service administrator">
<ellipse fill="none" stroke="black" cx="546.99" cy="-18" rx="102.88" ry="18"/>
<text text-anchor="middle" x="546.99" y="-14.3" font-family="Times New Roman,serif" font-size="14.00">civil service administrator</text>
</a>
</g>
</g>
<!-- 0&#45;&gt;4 -->
<g id="edge4" class="edge">
<title>0&#45;&gt;4</title>
<path fill="none" stroke="black" d="M739.97,-89.1C700.81,-74.87 641.65,-53.39 599.17,-37.95"/>
<polygon fill="black" stroke="black" points="600.15,-34.59 589.56,-34.46 597.76,-41.16 600.15,-34.59"/>
<text text-anchor="middle" x="694.49" y="-57.8" font-family="Times New Roman,serif" font-size="14.00">0.037</text>
</g>
<!-- 5 -->
<g id="node6" class="node">
<title>5</title>
<g id="a_node6"><a xlink:href="from_curator.svg" xlink:title="curator">
<ellipse fill="none" stroke="black" cx="703.99" cy="-18" rx="36.29" ry="18"/>
<text text-anchor="middle" x="703.99" y="-14.3" font-family="Times New Roman,serif" font-size="14.00">curator</text>
</a>
</g>
</g>
<!-- 0&#45;&gt;5 -->
<g id="edge5" class="edge">
<title>0&#45;&gt;5</title>
<path fill="none" stroke="black" d="M765.78,-87.21C754.1,-74.31 737.83,-56.35 724.91,-42.09"/>
<polygon fill="black" stroke="black" points="727.44,-39.67 718.14,-34.61 722.26,-44.37 727.44,-39.67"/>
<text text-anchor="middle" x="763.49" y="-57.8" font-family="Times New Roman,serif" font-size="14.00">0.037</text>
</g>
<!-- 6 -->
<g id="node7" class="node">
<title>6</title>
<g id="a_node7"><a xlink:href="from_health and safety adviser.svg" xlink:title="health and safety adviser">
<ellipse fill="none" stroke="black" cx="857.99" cy="-18" rx="99.38" ry="18"/>
<text text-anchor="middle" x="857.99" y="-14.3" font-family="Times New Roman,serif" font-size="14.00">health and safety adviser</text>
</a>
</g>
</g>
<!-- 0&#45;&gt;6 -->
<g id="edge6" class="edge">
<title>0&#45;&gt;6</title>
<path fill="none" stroke="black" d="M796.21,-87.21C807.42,-74.83 822.85,-57.8 835.49,-43.85"/>
<polygon fill="black" stroke="black" points="838.43,-45.81 842.55,-36.05 833.24,-41.11 838.43,-45.81"/>
<text text-anchor="middle" x="840.49" y="-57.8" font-family="Times New Roman,serif" font-size="14.00">0.037</text>
</g>
<!-- 7 -->
<g id="node8" class="node">
<title>7</title>
<g id="a_node8"><a xlink:href="from_housing adviser.svg" xlink:title="housing adviser">
<ellipse fill="none" stroke="black" cx="1042.99" cy="-18" rx="67.69" ry="18"/>
<text text-anchor="middle" x="1042.99" y="-14.3" font-family="Times New Roman,serif" font-size="14.00">housing adviser</text>
</a>
</g>
</g>
<!-- 0&#45;&gt;7 -->
<g id="edge7" class="edge">
<title>0&#45;&gt;7</title>
<path fill="none" stroke="black" d="M825.74,-89.48C871.95,-74.49 943.95,-51.13 992.26,-35.46"/>
<polygon fill="black" stroke="black" points="993.46,-38.75 1001.89,-32.34 991.3,-32.09 993.46,-38.75"/>
<text text-anchor="middle" x="943.49" y="-57.8" font-family="Times New Roman,serif" font-size="14.00">0.037</text>
</g>
<!-- 8 -->
<g id="node9" class="node">
<title>8</title>
<g id="a_node9"><a xlink:href="from_human resources officer.svg" xlink:title="human resources officer">
<ellipse fill="none" stroke="black" cx="1226.99" cy="-18" rx="98.58" ry="18"/>
<text text-anchor="middle" x="1226.99" y="-14.3" font-family="Times New Roman,serif" font-size="14.00">human resources officer</text>
</a>
</g>
</g>
<!-- 0&#45;&gt;8 -->
<g id="edge8" class="edge">
<title>0&#45;&gt;8</title>
<path fill="none" stroke="black" d="M843.01,-92.18C923.59,-76.82 1064.23,-50.02 1151.1,-33.46"/>
<polygon fill="black" stroke="black" points="1151.99,-36.86 1161.16,-31.55 1150.68,-29.98 1151.99,-36.86"/>
<text text-anchor="middle" x="1046.49" y="-57.8" font-family="Times New Roman,serif" font-size="14.00">0.037</text>
</g>
<!-- 9 -->
<g id="node10" class="node">
<title>9</title>
<g id="a_node10"><a xlink:href="from_market research analyst.svg" xlink:title="market research analyst">
<ellipse fill="none" stroke="black" cx="1438.99" cy="-18" rx="94.78" ry="18"/>
<text text-anchor="middle" x="1438.99" y="-14.3" font-family="Times New Roman,serif" font-size="14.00">market research analyst</text>
</a>
</g>
</g>
<!-- 0&#45;&gt;9 -->
<g id="edge9" class="edge">
<title>0&#45;&gt;9</title>
<path fill="none" stroke="black" d="M855.94,-95.76C962.54,-83.82 1164.01,-60.46 1334.99,-36 1343.33,-34.81 1352.02,-33.5 1360.68,-32.14"/>
<polygon fill="black" stroke="black" points="1361.47,-35.56 1370.8,-30.55 1360.38,-28.65 1361.47,-35.56"/>
<text text-anchor="middle" x="1214.49" y="-57.8" font-family="Times New Roman,serif" font-size="14.00">0.037</text>
</g>
<!-- 10 -->
<g id="node11" class="node">
<title>10</title>
<g id="a_node11"><a xlink:href="from_pharmacovigilance officer.svg" xlink:title="pharmacovigilance officer">
<ellipse fill="none" stroke="black" cx="1656.99" cy="-18" rx="104.78" ry="18"/>
<text text-anchor="middle" x="1656.99" y="-14.3" font-family="Times New Roman,serif" font-size="14.00">pharmacovigilance officer</text>
</a>
</g>
</g>
<!-- 0&#45;&gt;10 -->
<g id="edge10" class="edge">
<title>0&#45;&gt;10</title>
<path fill="none" stroke="black" d="M862.97,-98.75C1002.81,-89.33 1296.3,-67.55 1542.99,-36 1552.42,-34.79 1562.28,-33.45 1572.07,-32.06"/>
<polygon fill="black" stroke="black" points="1572.84,-35.49 1582.24,-30.6 1571.85,-28.56 1572.84,-35.49"/>
<text text-anchor="middle" x="1392.49" y="-57.8" font-family="Times New Roman,serif" font-size="14.00">0.037</text>
</g>
</g>
</svg>
