<?xml version="1.0" encoding="UTF-8" standalone="no"?>
<!DOCTYPE svg PUBLIC "-//W3C//DTD SVG 1.1//EN"
 "http://www.w3.org/Graphics/SVG/1.1/DTD/svg11.dtd">
<!-- Generated by graphviz version 2.44.1 (20200629.0800)
 -->
<!-- Title: test Pages: 1 -->
<svg width="1483pt" height="131pt"
 viewBox="0.00 0.00 1482.79 131.00" xmlns="http://www.w3.org/2000/svg" xmlns:xlink="http://www.w3.org/1999/xlink">
<g id="graph0" class="graph" transform="scale(1 1) rotate(0) translate(4 127)">
<title>test</title>
<polygon fill="white" stroke="transparent" points="-4,4 -4,-127 1478.79,-127 1478.79,4 -4,4"/>
<!-- 0 -->
<g id="node1" class="node">
<title>0</title>
<g id="a_node1"><a xlink:href="from_broadcasting presenter.svg" xlink:title="broadcasting presenter">
<ellipse fill="none" stroke="black" cx="745.19" cy="-105" rx="92.88" ry="18"/>
<text text-anchor="middle" x="745.19" y="-101.3" font-family="Times New Roman,serif" font-size="14.00">broadcasting presenter</text>
</a>
</g>
</g>
<!-- 0&#45;&gt;0 -->
<g id="edge1" class="edge">
<title>0&#45;&gt;0</title>
<path fill="none" stroke="black" d="M829.84,-112.44C845.3,-111.5 856.13,-109.02 856.13,-105 856.13,-101.92 849.78,-99.75 839.87,-98.47"/>
<polygon fill="black" stroke="black" points="840.12,-94.98 829.84,-97.56 839.48,-101.95 840.12,-94.98"/>
<text text-anchor="middle" x="871.63" y="-101.3" font-family="Times New Roman,serif" font-size="14.00">0.303</text>
</g>
<!-- 1 -->
<g id="node2" class="node">
<title>1</title>
<g id="a_node2"><a xlink:href="from_production manager.svg" xlink:title="production manager">
<ellipse fill="none" stroke="black" cx="83.19" cy="-18" rx="83.39" ry="18"/>
<text text-anchor="middle" x="83.19" y="-14.3" font-family="Times New Roman,serif" font-size="14.00">production manager</text>
</a>
</g>
</g>
<!-- 0&#45;&gt;1 -->
<g id="edge2" class="edge">
<title>0&#45;&gt;1</title>
<path fill="none" stroke="black" d="M663.75,-96.21C552.9,-85.17 348.47,-63.24 175.19,-36 167.94,-34.86 160.38,-33.59 152.85,-32.28"/>
<polygon fill="black" stroke="black" points="153.45,-28.83 142.99,-30.53 152.23,-35.72 153.45,-28.83"/>
<text text-anchor="middle" x="425.69" y="-57.8" font-family="Times New Roman,serif" font-size="14.00">0.060</text>
</g>
<!-- 2 -->
<g id="node3" class="node">
<title>2</title>
<g id="a_node3"><a xlink:href="from_pharmacovigilance officer.svg" xlink:title="pharmacovigilance officer">
<ellipse fill="none" stroke="black" cx="289.19" cy="-18" rx="104.78" ry="18"/>
<text text-anchor="middle" x="289.19" y="-14.3" font-family="Times New Roman,serif" font-size="14.00">pharmacovigilance officer</text>
</a>
</g>
</g>
<!-- 0&#45;&gt;2 -->
<g id="edge3" class="edge">
<title>0&#45;&gt;2</title>
<path fill="none" stroke="black" d="M676.78,-92.8C636.89,-86.15 585.64,-77.4 540.19,-69 480.62,-57.98 413.3,-44.52 363.38,-34.34"/>
<polygon fill="black" stroke="black" points="363.82,-30.85 353.32,-32.28 362.42,-37.71 363.82,-30.85"/>
<text text-anchor="middle" x="555.69" y="-57.8" font-family="Times New Roman,serif" font-size="14.00">0.053</text>
</g>
<!-- 3 -->
<g id="node4" class="node">
<title>3</title>
<g id="a_node4"><a xlink:href="from_pr officer.svg" xlink:title="pr officer">
<ellipse fill="none" stroke="black" cx="456.19" cy="-18" rx="44.69" ry="18"/>
<text text-anchor="middle" x="456.19" y="-14.3" font-family="Times New Roman,serif" font-size="14.00">pr officer</text>
</a>
</g>
</g>
<!-- 0&#45;&gt;3 -->
<g id="edge4" class="edge">
<title>0&#45;&gt;3</title>
<path fill="none" stroke="black" d="M694.66,-89.78C646.99,-76.28 573.6,-55.24 510.19,-36 506.85,-34.98 503.39,-33.92 499.91,-32.85"/>
<polygon fill="black" stroke="black" points="500.74,-29.44 490.15,-29.81 498.66,-36.12 500.74,-29.44"/>
<text text-anchor="middle" x="635.69" y="-57.8" font-family="Times New Roman,serif" font-size="14.00">0.045</text>
</g>
<!-- 4 -->
<g id="node5" class="node">
<title>4</title>
<g id="a_node5"><a xlink:href="from_project manager.svg" xlink:title="project manager">
<ellipse fill="none" stroke="black" cx="588.19" cy="-18" rx="68.79" ry="18"/>
<text text-anchor="middle" x="588.19" y="-14.3" font-family="Times New Roman,serif" font-size="14.00">project manager</text>
</a>
</g>
</g>
<!-- 0&#45;&gt;4 -->
<g id="edge5" class="edge">
<title>0&#45;&gt;4</title>
<path fill="none" stroke="black" d="M715.29,-87.81C689.79,-74.01 653.02,-54.1 625.58,-39.24"/>
<polygon fill="black" stroke="black" points="627.12,-36.09 616.66,-34.41 623.79,-42.25 627.12,-36.09"/>
<text text-anchor="middle" x="691.69" y="-57.8" font-family="Times New Roman,serif" font-size="14.00">0.045</text>
</g>
<!-- 5 -->
<g id="node6" class="node">
<title>5</title>
<g id="a_node6"><a xlink:href="from_content manager.svg" xlink:title="content manager">
<ellipse fill="none" stroke="black" cx="745.19" cy="-18" rx="70.39" ry="18"/>
<text text-anchor="middle" x="745.19" y="-14.3" font-family="Times New Roman,serif" font-size="14.00">content manager</text>
</a>
</g>
</g>
<!-- 0&#45;&gt;5 -->
<g id="edge6" class="edge">
<title>0&#45;&gt;5</title>
<path fill="none" stroke="black" d="M745.19,-86.8C745.19,-75.16 745.19,-59.55 745.19,-46.24"/>
<polygon fill="black" stroke="black" points="748.69,-46.18 745.19,-36.18 741.69,-46.18 748.69,-46.18"/>
<text text-anchor="middle" x="760.69" y="-57.8" font-family="Times New Roman,serif" font-size="14.00">0.037</text>
</g>
<!-- 6 -->
<g id="node7" class="node">
<title>6</title>
<g id="a_node7"><a xlink:href="from_marketing assistant.svg" xlink:title="marketing assistant">
<ellipse fill="none" stroke="black" cx="912.19" cy="-18" rx="79.09" ry="18"/>
<text text-anchor="middle" x="912.19" y="-14.3" font-family="Times New Roman,serif" font-size="14.00">marketing assistant</text>
</a>
</g>
</g>
<!-- 0&#45;&gt;6 -->
<g id="edge7" class="edge">
<title>0&#45;&gt;6</title>
<path fill="none" stroke="black" d="M776.6,-88.01C803.72,-74.21 843.03,-54.2 872.35,-39.28"/>
<polygon fill="black" stroke="black" points="874.16,-42.28 881.49,-34.63 870.99,-36.05 874.16,-42.28"/>
<text text-anchor="middle" x="854.69" y="-57.8" font-family="Times New Roman,serif" font-size="14.00">0.037</text>
</g>
<!-- 7 -->
<g id="node8" class="node">
<title>7</title>
<g id="a_node8"><a xlink:href="from_marketing executive.svg" xlink:title="marketing executive">
<ellipse fill="none" stroke="black" cx="1091.19" cy="-18" rx="81.79" ry="18"/>
<text text-anchor="middle" x="1091.19" y="-14.3" font-family="Times New Roman,serif" font-size="14.00">marketing executive</text>
</a>
</g>
</g>
<!-- 0&#45;&gt;7 -->
<g id="edge8" class="edge">
<title>0&#45;&gt;7</title>
<path fill="none" stroke="black" d="M800.4,-90.44C862.74,-75.12 963.93,-50.26 1029.01,-34.28"/>
<polygon fill="black" stroke="black" points="1029.86,-37.67 1038.73,-31.89 1028.19,-30.87 1029.86,-37.67"/>
<text text-anchor="middle" x="954.69" y="-57.8" font-family="Times New Roman,serif" font-size="14.00">0.037</text>
</g>
<!-- 8 -->
<g id="node9" class="node">
<title>8</title>
<g id="a_node9"><a xlink:href="from_materials specialist.svg" xlink:title="materials specialist">
<ellipse fill="none" stroke="black" cx="1269.19" cy="-18" rx="77.99" ry="18"/>
<text text-anchor="middle" x="1269.19" y="-14.3" font-family="Times New Roman,serif" font-size="14.00">materials specialist</text>
</a>
</g>
</g>
<!-- 0&#45;&gt;8 -->
<g id="edge9" class="edge">
<title>0&#45;&gt;8</title>
<path fill="none" stroke="black" d="M817.64,-93.67C904.46,-81.07 1054.23,-58.65 1182.19,-36 1188.71,-34.85 1195.49,-33.6 1202.27,-32.33"/>
<polygon fill="black" stroke="black" points="1202.98,-35.75 1212.15,-30.45 1201.68,-28.88 1202.98,-35.75"/>
<text text-anchor="middle" x="1090.69" y="-57.8" font-family="Times New Roman,serif" font-size="14.00">0.030</text>
</g>
<!-- 9 -->
<g id="node10" class="node">
<title>9</title>
<g id="a_node10"><a xlink:href="from_it consultant.svg" xlink:title="it consultant">
<ellipse fill="none" stroke="black" cx="1420.19" cy="-18" rx="54.69" ry="18"/>
<text text-anchor="middle" x="1420.19" y="-14.3" font-family="Times New Roman,serif" font-size="14.00">it consultant</text>
</a>
</g>
</g>
<!-- 0&#45;&gt;9 -->
<g id="edge10" class="edge">
<title>0&#45;&gt;9</title>
<path fill="none" stroke="black" d="M832.93,-98.97C952.25,-91.06 1171.96,-72.67 1356.19,-36 1360.88,-35.07 1365.73,-33.99 1370.57,-32.84"/>
<polygon fill="black" stroke="black" points="1371.57,-36.2 1380.43,-30.39 1369.88,-29.4 1371.57,-36.2"/>
<text text-anchor="middle" x="1256.69" y="-57.8" font-family="Times New Roman,serif" font-size="14.00">0.022</text>
</g>
</g>
</svg>
