<?xml version="1.0" encoding="UTF-8" standalone="no"?>
<!DOCTYPE svg PUBLIC "-//W3C//DTD SVG 1.1//EN"
 "http://www.w3.org/Graphics/SVG/1.1/DTD/svg11.dtd">
<!-- Generated by graphviz version 2.44.1 (20200629.0800)
 -->
<!-- Title: test Pages: 1 -->
<svg width="621pt" height="131pt"
 viewBox="0.00 0.00 621.34 131.00" xmlns="http://www.w3.org/2000/svg" xmlns:xlink="http://www.w3.org/1999/xlink">
<g id="graph0" class="graph" transform="scale(1 1) rotate(0) translate(4 127)">
<title>test</title>
<polygon fill="white" stroke="transparent" points="-4,4 -4,-127 617.34,-127 617.34,4 -4,4"/>
<!-- 0 -->
<g id="node1" class="node">
<title>0</title>
<g id="a_node1"><a xlink:href="from_nanoscientist.svg" xlink:title="nanoscientist">
<ellipse fill="none" stroke="black" cx="311.44" cy="-105" rx="57.69" ry="18"/>
<text text-anchor="middle" x="311.44" y="-101.3" font-family="Times New Roman,serif" font-size="14.00">nanoscientist</text>
</a>
</g>
</g>
<!-- 1 -->
<g id="node2" class="node">
<title>1</title>
<g id="a_node2"><a xlink:href="from_engineering geologist.svg" xlink:title="engineering geologist">
<ellipse fill="none" stroke="black" cx="86.44" cy="-18" rx="86.38" ry="18"/>
<text text-anchor="middle" x="86.44" y="-14.3" font-family="Times New Roman,serif" font-size="14.00">engineering geologist</text>
</a>
</g>
</g>
<!-- 0&#45;&gt;1 -->
<g id="edge1" class="edge">
<title>0&#45;&gt;1</title>
<path fill="none" stroke="black" d="M275.79,-90.53C238.08,-76.29 178.31,-53.71 136.03,-37.73"/>
<polygon fill="black" stroke="black" points="137.07,-34.39 126.48,-34.13 134.6,-40.93 137.07,-34.39"/>
<text text-anchor="middle" x="227.94" y="-57.8" font-family="Times New Roman,serif" font-size="14.00">0.333</text>
</g>
<!-- 2 -->
<g id="node3" class="node">
<title>2</title>
<g id="a_node3"><a xlink:href="from_television production assistant.svg" xlink:title="television production assistant">
<ellipse fill="none" stroke="black" cx="311.44" cy="-18" rx="120.48" ry="18"/>
<text text-anchor="middle" x="311.44" y="-14.3" font-family="Times New Roman,serif" font-size="14.00">television production assistant</text>
</a>
</g>
</g>
<!-- 0&#45;&gt;2 -->
<g id="edge2" class="edge">
<title>0&#45;&gt;2</title>
<path fill="none" stroke="black" d="M311.44,-86.8C311.44,-75.16 311.44,-59.55 311.44,-46.24"/>
<polygon fill="black" stroke="black" points="314.94,-46.18 311.44,-36.18 307.94,-46.18 314.94,-46.18"/>
<text text-anchor="middle" x="326.94" y="-57.8" font-family="Times New Roman,serif" font-size="14.00">0.333</text>
</g>
<!-- 3 -->
<g id="node4" class="node">
<title>3</title>
<g id="a_node4"><a xlink:href="from_warehouse manager.svg" xlink:title="warehouse manager">
<ellipse fill="none" stroke="black" cx="531.44" cy="-18" rx="81.79" ry="18"/>
<text text-anchor="middle" x="531.44" y="-14.3" font-family="Times New Roman,serif" font-size="14.00">warehouse manager</text>
</a>
</g>
</g>
<!-- 0&#45;&gt;3 -->
<g id="edge3" class="edge">
<title>0&#45;&gt;3</title>
<path fill="none" stroke="black" d="M346.3,-90.53C383.28,-76.24 441.97,-53.57 483.34,-37.59"/>
<polygon fill="black" stroke="black" points="484.6,-40.85 492.67,-33.98 482.08,-34.32 484.6,-40.85"/>
<text text-anchor="middle" x="450.94" y="-57.8" font-family="Times New Roman,serif" font-size="14.00">0.333</text>
</g>
</g>
</svg>
