<?xml version="1.0" encoding="UTF-8" standalone="no"?>
<!DOCTYPE svg PUBLIC "-//W3C//DTD SVG 1.1//EN"
 "http://www.w3.org/Graphics/SVG/1.1/DTD/svg11.dtd">
<!-- Generated by graphviz version 2.44.1 (20200629.0800)
 -->
<!-- Title: test Pages: 1 -->
<svg width="1263pt" height="131pt"
 viewBox="0.00 0.00 1263.49 131.00" xmlns="http://www.w3.org/2000/svg" xmlns:xlink="http://www.w3.org/1999/xlink">
<g id="graph0" class="graph" transform="scale(1 1) rotate(0) translate(4 127)">
<title>test</title>
<polygon fill="white" stroke="transparent" points="-4,4 -4,-127 1259.49,-127 1259.49,4 -4,4"/>
<!-- 0 -->
<g id="node1" class="node">
<title>0</title>
<g id="a_node1"><a xlink:href="from_barrister.svg" xlink:title="barrister">
<ellipse fill="none" stroke="black" cx="693.4" cy="-105" rx="40.09" ry="18"/>
<text text-anchor="middle" x="693.4" y="-101.3" font-family="Times New Roman,serif" font-size="14.00">barrister</text>
</a>
</g>
</g>
<!-- 0&#45;&gt;0 -->
<g id="edge1" class="edge">
<title>0&#45;&gt;0</title>
<path fill="none" stroke="black" d="M729.83,-112.88C741.98,-112.88 751.69,-110.25 751.69,-105 751.69,-101.31 746.89,-98.91 739.82,-97.82"/>
<polygon fill="black" stroke="black" points="740.05,-94.33 729.83,-97.13 739.57,-101.31 740.05,-94.33"/>
<text text-anchor="middle" x="767.19" y="-101.3" font-family="Times New Roman,serif" font-size="14.00">0.444</text>
</g>
<!-- 1 -->
<g id="node2" class="node">
<title>1</title>
<g id="a_node2"><a xlink:href="from_auditor.svg" xlink:title="auditor">
<ellipse fill="none" stroke="black" cx="36.4" cy="-18" rx="36.29" ry="18"/>
<text text-anchor="middle" x="36.4" y="-14.3" font-family="Times New Roman,serif" font-size="14.00">auditor</text>
</a>
</g>
</g>
<!-- 0&#45;&gt;1 -->
<g id="edge2" class="edge">
<title>0&#45;&gt;1</title>
<path fill="none" stroke="black" d="M653.02,-103.15C554.11,-100.29 292.37,-87.99 81.4,-36 78.58,-35.31 75.71,-34.49 72.84,-33.59"/>
<polygon fill="black" stroke="black" points="73.79,-30.22 63.19,-30.32 71.53,-36.85 73.79,-30.22"/>
<text text-anchor="middle" x="262.9" y="-57.8" font-family="Times New Roman,serif" font-size="14.00">0.111</text>
</g>
<!-- 2 -->
<g id="node3" class="node">
<title>2</title>
<g id="a_node3"><a xlink:href="from_broadcasting presenter.svg" xlink:title="broadcasting presenter">
<ellipse fill="none" stroke="black" cx="183.4" cy="-18" rx="92.88" ry="18"/>
<text text-anchor="middle" x="183.4" y="-14.3" font-family="Times New Roman,serif" font-size="14.00">broadcasting presenter</text>
</a>
</g>
</g>
<!-- 0&#45;&gt;2 -->
<g id="edge3" class="edge">
<title>0&#45;&gt;2</title>
<path fill="none" stroke="black" d="M655.83,-98.22C611.84,-91.41 536.78,-79.67 472.4,-69 399.98,-57 317.48,-42.66 259.21,-32.42"/>
<polygon fill="black" stroke="black" points="259.81,-28.97 249.35,-30.69 258.59,-35.87 259.81,-28.97"/>
<text text-anchor="middle" x="487.9" y="-57.8" font-family="Times New Roman,serif" font-size="14.00">0.111</text>
</g>
<!-- 3 -->
<g id="node4" class="node">
<title>3</title>
<g id="a_node4"><a xlink:href="from_careers adviser.svg" xlink:title="careers adviser">
<ellipse fill="none" stroke="black" cx="359.4" cy="-18" rx="64.99" ry="18"/>
<text text-anchor="middle" x="359.4" y="-14.3" font-family="Times New Roman,serif" font-size="14.00">careers adviser</text>
</a>
</g>
</g>
<!-- 0&#45;&gt;3 -->
<g id="edge4" class="edge">
<title>0&#45;&gt;3</title>
<path fill="none" stroke="black" d="M659.22,-95.3C601.7,-80.66 485.01,-50.97 415.38,-33.25"/>
<polygon fill="black" stroke="black" points="416.02,-29.8 405.46,-30.72 414.29,-36.58 416.02,-29.8"/>
<text text-anchor="middle" x="561.9" y="-57.8" font-family="Times New Roman,serif" font-size="14.00">0.111</text>
</g>
<!-- 4 -->
<g id="node5" class="node">
<title>4</title>
<g id="a_node5"><a xlink:href="from_health and safety adviser.svg" xlink:title="health and safety adviser">
<ellipse fill="none" stroke="black" cx="541.4" cy="-18" rx="99.38" ry="18"/>
<text text-anchor="middle" x="541.4" y="-14.3" font-family="Times New Roman,serif" font-size="14.00">health and safety adviser</text>
</a>
</g>
</g>
<!-- 0&#45;&gt;4 -->
<g id="edge5" class="edge">
<title>0&#45;&gt;4</title>
<path fill="none" stroke="black" d="M669.31,-90.53C645.14,-77.01 607.55,-55.99 579.36,-40.23"/>
<polygon fill="black" stroke="black" points="581.01,-37.14 570.57,-35.31 577.59,-43.25 581.01,-37.14"/>
<text text-anchor="middle" x="642.9" y="-57.8" font-family="Times New Roman,serif" font-size="14.00">0.111</text>
</g>
<!-- 5 -->
<g id="node6" class="node">
<title>5</title>
<g id="a_node6"><a xlink:href="from_lawyer.svg" xlink:title="lawyer">
<ellipse fill="none" stroke="black" cx="693.4" cy="-18" rx="34.39" ry="18"/>
<text text-anchor="middle" x="693.4" y="-14.3" font-family="Times New Roman,serif" font-size="14.00">lawyer</text>
</a>
</g>
</g>
<!-- 0&#45;&gt;5 -->
<g id="edge6" class="edge">
<title>0&#45;&gt;5</title>
<path fill="none" stroke="black" d="M693.4,-86.8C693.4,-75.16 693.4,-59.55 693.4,-46.24"/>
<polygon fill="black" stroke="black" points="696.9,-46.18 693.4,-36.18 689.9,-46.18 696.9,-46.18"/>
<text text-anchor="middle" x="708.9" y="-57.8" font-family="Times New Roman,serif" font-size="14.00">0.111</text>
</g>
<!-- 6 -->
<g id="node7" class="node">
<title>6</title>
<g id="a_node7"><a xlink:href="from_lecturer.svg" xlink:title="lecturer">
<ellipse fill="none" stroke="black" cx="783.4" cy="-18" rx="37.89" ry="18"/>
<text text-anchor="middle" x="783.4" y="-14.3" font-family="Times New Roman,serif" font-size="14.00">lecturer</text>
</a>
</g>
</g>
<!-- 0&#45;&gt;6 -->
<g id="edge7" class="edge">
<title>0&#45;&gt;6</title>
<path fill="none" stroke="black" d="M709.9,-88.41C723.86,-75.23 744.03,-56.18 759.7,-41.38"/>
<polygon fill="black" stroke="black" points="762.13,-43.9 766.99,-34.49 757.32,-38.81 762.13,-43.9"/>
<text text-anchor="middle" x="759.9" y="-57.8" font-family="Times New Roman,serif" font-size="14.00">0.111</text>
</g>
<!-- 7 -->
<g id="node8" class="node">
<title>7</title>
<g id="a_node8"><a xlink:href="from_legal executive.svg" xlink:title="legal executive">
<ellipse fill="none" stroke="black" cx="902.4" cy="-18" rx="63.09" ry="18"/>
<text text-anchor="middle" x="902.4" y="-14.3" font-family="Times New Roman,serif" font-size="14.00">legal executive</text>
</a>
</g>
</g>
<!-- 0&#45;&gt;7 -->
<g id="edge8" class="edge">
<title>0&#45;&gt;7</title>
<path fill="none" stroke="black" d="M722.46,-92.18C757.66,-77.86 817.31,-53.6 858.22,-36.97"/>
<polygon fill="black" stroke="black" points="859.73,-40.13 867.67,-33.12 857.09,-33.65 859.73,-40.13"/>
<text text-anchor="middle" x="826.9" y="-57.8" font-family="Times New Roman,serif" font-size="14.00">0.111</text>
</g>
<!-- 8 -->
<g id="node9" class="node">
<title>8</title>
<g id="a_node9"><a xlink:href="from_solicitor.svg" xlink:title="solicitor">
<ellipse fill="none" stroke="black" cx="1023.4" cy="-18" rx="40.09" ry="18"/>
<text text-anchor="middle" x="1023.4" y="-14.3" font-family="Times New Roman,serif" font-size="14.00">solicitor</text>
</a>
</g>
</g>
<!-- 0&#45;&gt;8 -->
<g id="edge9" class="edge">
<title>0&#45;&gt;8</title>
<path fill="none" stroke="black" d="M729.23,-96.67C782.97,-85.37 887.42,-62.25 974.4,-36 977.32,-35.12 980.33,-34.17 983.35,-33.19"/>
<polygon fill="black" stroke="black" points="984.56,-36.48 992.94,-30 982.35,-29.84 984.56,-36.48"/>
<text text-anchor="middle" x="921.9" y="-57.8" font-family="Times New Roman,serif" font-size="14.00">0.111</text>
</g>
<!-- 9 -->
<g id="node10" class="node">
<title>9</title>
<g id="a_node10"><a xlink:href="from_welfare rights adviser.svg" xlink:title="welfare rights adviser">
<ellipse fill="none" stroke="black" cx="1168.4" cy="-18" rx="87.18" ry="18"/>
<text text-anchor="middle" x="1168.4" y="-14.3" font-family="Times New Roman,serif" font-size="14.00">welfare rights adviser</text>
</a>
</g>
</g>
<!-- 0&#45;&gt;9 -->
<g id="edge10" class="edge">
<title>0&#45;&gt;9</title>
<path fill="none" stroke="black" d="M731.78,-99.51C780.64,-93.58 867.58,-82.32 941.4,-69 996.59,-59.04 1058.77,-45.16 1104.07,-34.55"/>
<polygon fill="black" stroke="black" points="1105.12,-37.9 1114.05,-32.2 1103.51,-31.08 1105.12,-37.9"/>
<text text-anchor="middle" x="1032.9" y="-57.8" font-family="Times New Roman,serif" font-size="14.00">0.111</text>
</g>
</g>
</svg>
