<?xml version="1.0" encoding="UTF-8" standalone="no"?>
<!DOCTYPE svg PUBLIC "-//W3C//DTD SVG 1.1//EN"
 "http://www.w3.org/Graphics/SVG/1.1/DTD/svg11.dtd">
<!-- Generated by graphviz version 2.44.1 (20200629.0800)
 -->
<!-- Title: test Pages: 1 -->
<svg width="1509pt" height="131pt"
 viewBox="0.00 0.00 1508.94 131.00" xmlns="http://www.w3.org/2000/svg" xmlns:xlink="http://www.w3.org/1999/xlink">
<g id="graph0" class="graph" transform="scale(1 1) rotate(0) translate(4 127)">
<title>test</title>
<polygon fill="white" stroke="transparent" points="-4,4 -4,-127 1504.94,-127 1504.94,4 -4,4"/>
<!-- 0 -->
<g id="node1" class="node">
<title>0</title>
<g id="a_node1"><a xlink:href="from_pr officer.svg" xlink:title="pr officer">
<ellipse fill="none" stroke="black" cx="722.89" cy="-105" rx="44.69" ry="18"/>
<text text-anchor="middle" x="722.89" y="-101.3" font-family="Times New Roman,serif" font-size="14.00">pr officer</text>
</a>
</g>
</g>
<!-- 0&#45;&gt;0 -->
<g id="edge1" class="edge">
<title>0&#45;&gt;0</title>
<path fill="none" stroke="black" d="M763.39,-112.87C775.91,-112.71 785.74,-110.09 785.74,-105 785.74,-101.42 780.88,-99.07 773.64,-97.93"/>
<polygon fill="black" stroke="black" points="773.63,-94.41 763.39,-97.13 773.09,-101.39 773.63,-94.41"/>
<text text-anchor="middle" x="801.24" y="-101.3" font-family="Times New Roman,serif" font-size="14.00">0.092</text>
</g>
<!-- 1 -->
<g id="node2" class="node">
<title>1</title>
<g id="a_node2"><a xlink:href="from_project manager.svg" xlink:title="project manager">
<ellipse fill="none" stroke="black" cx="68.89" cy="-18" rx="68.79" ry="18"/>
<text text-anchor="middle" x="68.89" y="-14.3" font-family="Times New Roman,serif" font-size="14.00">project manager</text>
</a>
</g>
</g>
<!-- 0&#45;&gt;1 -->
<g id="edge2" class="edge">
<title>0&#45;&gt;1</title>
<path fill="none" stroke="black" d="M679.34,-100.31C582.95,-91.84 344.52,-69.12 146.89,-36 141.03,-35.02 134.93,-33.89 128.86,-32.68"/>
<polygon fill="black" stroke="black" points="129.19,-29.18 118.69,-30.61 127.78,-36.04 129.19,-29.18"/>
<text text-anchor="middle" x="383.39" y="-57.8" font-family="Times New Roman,serif" font-size="14.00">0.092</text>
</g>
<!-- 2 -->
<g id="node3" class="node">
<title>2</title>
<g id="a_node3"><a xlink:href="from_pharmacovigilance officer.svg" xlink:title="pharmacovigilance officer">
<ellipse fill="none" stroke="black" cx="260.89" cy="-18" rx="104.78" ry="18"/>
<text text-anchor="middle" x="260.89" y="-14.3" font-family="Times New Roman,serif" font-size="14.00">pharmacovigilance officer</text>
</a>
</g>
</g>
<!-- 0&#45;&gt;2 -->
<g id="edge3" class="edge">
<title>0&#45;&gt;2</title>
<path fill="none" stroke="black" d="M683.1,-96.68C606.93,-82.66 439.21,-51.81 339.61,-33.48"/>
<polygon fill="black" stroke="black" points="340.07,-30.01 329.6,-31.64 338.8,-36.89 340.07,-30.01"/>
<text text-anchor="middle" x="535.39" y="-57.8" font-family="Times New Roman,serif" font-size="14.00">0.041</text>
</g>
<!-- 3 -->
<g id="node4" class="node">
<title>3</title>
<g id="a_node4"><a xlink:href="from_records manager.svg" xlink:title="records manager">
<ellipse fill="none" stroke="black" cx="454.89" cy="-18" rx="71.49" ry="18"/>
<text text-anchor="middle" x="454.89" y="-14.3" font-family="Times New Roman,serif" font-size="14.00">records manager</text>
</a>
</g>
</g>
<!-- 0&#45;&gt;3 -->
<g id="edge4" class="edge">
<title>0&#45;&gt;3</title>
<path fill="none" stroke="black" d="M688.95,-93.23C643.21,-78.73 561.31,-52.75 507.54,-35.7"/>
<polygon fill="black" stroke="black" points="508.43,-32.31 497.84,-32.62 506.32,-38.98 508.43,-32.31"/>
<text text-anchor="middle" x="621.39" y="-57.8" font-family="Times New Roman,serif" font-size="14.00">0.030</text>
</g>
<!-- 4 -->
<g id="node5" class="node">
<title>4</title>
<g id="a_node5"><a xlink:href="from_secretary.svg" xlink:title="secretary">
<ellipse fill="none" stroke="black" cx="587.89" cy="-18" rx="43.59" ry="18"/>
<text text-anchor="middle" x="587.89" y="-14.3" font-family="Times New Roman,serif" font-size="14.00">secretary</text>
</a>
</g>
</g>
<!-- 0&#45;&gt;4 -->
<g id="edge5" class="edge">
<title>0&#45;&gt;4</title>
<path fill="none" stroke="black" d="M699.69,-89.39C677.53,-75.44 643.97,-54.31 619.41,-38.84"/>
<polygon fill="black" stroke="black" points="621.13,-35.79 610.8,-33.42 617.4,-41.71 621.13,-35.79"/>
<text text-anchor="middle" x="679.39" y="-57.8" font-family="Times New Roman,serif" font-size="14.00">0.030</text>
</g>
<!-- 5 -->
<g id="node6" class="node">
<title>5</title>
<g id="a_node6"><a xlink:href="from_teaching assistant.svg" xlink:title="teaching assistant">
<ellipse fill="none" stroke="black" cx="722.89" cy="-18" rx="73.39" ry="18"/>
<text text-anchor="middle" x="722.89" y="-14.3" font-family="Times New Roman,serif" font-size="14.00">teaching assistant</text>
</a>
</g>
</g>
<!-- 0&#45;&gt;5 -->
<g id="edge6" class="edge">
<title>0&#45;&gt;5</title>
<path fill="none" stroke="black" d="M722.89,-86.8C722.89,-75.16 722.89,-59.55 722.89,-46.24"/>
<polygon fill="black" stroke="black" points="726.39,-46.18 722.89,-36.18 719.39,-46.18 726.39,-46.18"/>
<text text-anchor="middle" x="738.39" y="-57.8" font-family="Times New Roman,serif" font-size="14.00">0.030</text>
</g>
<!-- 6 -->
<g id="node7" class="node">
<title>6</title>
<g id="a_node7"><a xlink:href="from_advertising copywriter.svg" xlink:title="advertising copywriter">
<ellipse fill="none" stroke="black" cx="904.89" cy="-18" rx="90.98" ry="18"/>
<text text-anchor="middle" x="904.89" y="-14.3" font-family="Times New Roman,serif" font-size="14.00">advertising copywriter</text>
</a>
</g>
</g>
<!-- 0&#45;&gt;6 -->
<g id="edge7" class="edge">
<title>0&#45;&gt;6</title>
<path fill="none" stroke="black" d="M750.93,-90.91C780.46,-77.11 827.34,-55.22 861.62,-39.21"/>
<polygon fill="black" stroke="black" points="863.35,-42.26 870.93,-34.86 860.39,-35.92 863.35,-42.26"/>
<text text-anchor="middle" x="840.39" y="-57.8" font-family="Times New Roman,serif" font-size="14.00">0.020</text>
</g>
<!-- 7 -->
<g id="node8" class="node">
<title>7</title>
<g id="a_node8"><a xlink:href="from_careers adviser.svg" xlink:title="careers adviser">
<ellipse fill="none" stroke="black" cx="1078.89" cy="-18" rx="64.99" ry="18"/>
<text text-anchor="middle" x="1078.89" y="-14.3" font-family="Times New Roman,serif" font-size="14.00">careers adviser</text>
</a>
</g>
</g>
<!-- 0&#45;&gt;7 -->
<g id="edge8" class="edge">
<title>0&#45;&gt;7</title>
<path fill="none" stroke="black" d="M760.32,-95.06C822.55,-80.21 947.72,-50.32 1021.28,-32.76"/>
<polygon fill="black" stroke="black" points="1022.39,-36.09 1031.3,-30.36 1020.77,-29.28 1022.39,-36.09"/>
<text text-anchor="middle" x="938.39" y="-57.8" font-family="Times New Roman,serif" font-size="14.00">0.020</text>
</g>
<!-- 8 -->
<g id="node9" class="node">
<title>8</title>
<g id="a_node9"><a xlink:href="from_catering manager.svg" xlink:title="catering manager">
<ellipse fill="none" stroke="black" cx="1232.89" cy="-18" rx="71.49" ry="18"/>
<text text-anchor="middle" x="1232.89" y="-14.3" font-family="Times New Roman,serif" font-size="14.00">catering manager</text>
</a>
</g>
</g>
<!-- 0&#45;&gt;8 -->
<g id="edge9" class="edge">
<title>0&#45;&gt;8</title>
<path fill="none" stroke="black" d="M764.56,-98.31C841.52,-87.59 1011.09,-63.05 1152.89,-36 1158.7,-34.89 1164.74,-33.69 1170.77,-32.47"/>
<polygon fill="black" stroke="black" points="1171.8,-35.83 1180.89,-30.38 1170.39,-28.97 1171.8,-35.83"/>
<text text-anchor="middle" x="1063.39" y="-57.8" font-family="Times New Roman,serif" font-size="14.00">0.020</text>
</g>
<!-- 9 -->
<g id="node10" class="node">
<title>9</title>
<g id="a_node10"><a xlink:href="from_commissioning editor.svg" xlink:title="commissioning editor">
<ellipse fill="none" stroke="black" cx="1411.89" cy="-18" rx="89.08" ry="18"/>
<text text-anchor="middle" x="1411.89" y="-14.3" font-family="Times New Roman,serif" font-size="14.00">commissioning editor</text>
</a>
</g>
</g>
<!-- 0&#45;&gt;9 -->
<g id="edge10" class="edge">
<title>0&#45;&gt;9</title>
<path fill="none" stroke="black" d="M766.46,-100.41C834.23,-94.68 968.96,-82.7 1082.89,-69 1185.42,-56.67 1210.88,-52.07 1312.89,-36 1320.73,-34.76 1328.91,-33.43 1337.06,-32.07"/>
<polygon fill="black" stroke="black" points="1337.68,-35.52 1346.97,-30.41 1336.53,-28.62 1337.68,-35.52"/>
<text text-anchor="middle" x="1210.39" y="-57.8" font-family="Times New Roman,serif" font-size="14.00">0.020</text>
</g>
</g>
</svg>
