<?xml version="1.0" encoding="UTF-8" standalone="no"?>
<!DOCTYPE svg PUBLIC "-//W3C//DTD SVG 1.1//EN"
 "http://www.w3.org/Graphics/SVG/1.1/DTD/svg11.dtd">
<!-- Generated by graphviz version 2.44.1 (20200629.0800)
 -->
<!-- Title: test Pages: 1 -->
<svg width="1491pt" height="131pt"
 viewBox="0.00 0.00 1490.59 131.00" xmlns="http://www.w3.org/2000/svg" xmlns:xlink="http://www.w3.org/1999/xlink">
<g id="graph0" class="graph" transform="scale(1 1) rotate(0) translate(4 127)">
<title>test</title>
<polygon fill="white" stroke="transparent" points="-4,4 -4,-127 1486.59,-127 1486.59,4 -4,4"/>
<!-- 0 -->
<g id="node1" class="node">
<title>0</title>
<g id="a_node1"><a xlink:href="from_sales executive.svg" xlink:title="sales executive">
<ellipse fill="none" stroke="black" cx="739.09" cy="-105" rx="64.19" ry="18"/>
<text text-anchor="middle" x="739.09" y="-101.3" font-family="Times New Roman,serif" font-size="14.00">sales executive</text>
</a>
</g>
</g>
<!-- 0&#45;&gt;0 -->
<g id="edge1" class="edge">
<title>0&#45;&gt;0</title>
<path fill="none" stroke="black" d="M797.56,-112.72C811.3,-112.08 821.44,-109.51 821.44,-105 821.44,-101.69 815.97,-99.42 807.63,-98.2"/>
<polygon fill="black" stroke="black" points="807.84,-94.7 797.56,-97.28 807.21,-101.67 807.84,-94.7"/>
<text text-anchor="middle" x="836.94" y="-101.3" font-family="Times New Roman,serif" font-size="14.00">0.137</text>
</g>
<!-- 1 -->
<g id="node2" class="node">
<title>1</title>
<g id="a_node2"><a xlink:href="from_sales manager.svg" xlink:title="sales manager">
<ellipse fill="none" stroke="black" cx="61.09" cy="-18" rx="61.19" ry="18"/>
<text text-anchor="middle" x="61.09" y="-14.3" font-family="Times New Roman,serif" font-size="14.00">sales manager</text>
</a>
</g>
</g>
<!-- 0&#45;&gt;1 -->
<g id="edge2" class="edge">
<title>0&#45;&gt;1</title>
<path fill="none" stroke="black" d="M676.96,-100.28C596.33,-95.1 451.37,-84.55 328.09,-69 240.02,-57.89 218.06,-53.82 131.09,-36 126.09,-34.98 120.91,-33.84 115.72,-32.67"/>
<polygon fill="black" stroke="black" points="116.33,-29.22 105.8,-30.37 114.75,-36.04 116.33,-29.22"/>
<text text-anchor="middle" x="343.59" y="-57.8" font-family="Times New Roman,serif" font-size="14.00">0.127</text>
</g>
<!-- 2 -->
<g id="node3" class="node">
<title>2</title>
<g id="a_node3"><a xlink:href="from_it consultant.svg" xlink:title="it consultant">
<ellipse fill="none" stroke="black" cx="195.09" cy="-18" rx="54.69" ry="18"/>
<text text-anchor="middle" x="195.09" y="-14.3" font-family="Times New Roman,serif" font-size="14.00">it consultant</text>
</a>
</g>
</g>
<!-- 0&#45;&gt;2 -->
<g id="edge3" class="edge">
<title>0&#45;&gt;2</title>
<path fill="none" stroke="black" d="M679.45,-97.96C588.14,-88.17 408.47,-66.8 258.09,-36 253.67,-35.09 249.09,-34.06 244.52,-32.95"/>
<polygon fill="black" stroke="black" points="245.12,-29.5 234.57,-30.45 243.42,-36.28 245.12,-29.5"/>
<text text-anchor="middle" x="458.59" y="-57.8" font-family="Times New Roman,serif" font-size="14.00">0.061</text>
</g>
<!-- 3 -->
<g id="node4" class="node">
<title>3</title>
<g id="a_node4"><a xlink:href="from_pharmacovigilance officer.svg" xlink:title="pharmacovigilance officer">
<ellipse fill="none" stroke="black" cx="372.09" cy="-18" rx="104.78" ry="18"/>
<text text-anchor="middle" x="372.09" y="-14.3" font-family="Times New Roman,serif" font-size="14.00">pharmacovigilance officer</text>
</a>
</g>
</g>
<!-- 0&#45;&gt;3 -->
<g id="edge4" class="edge">
<title>0&#45;&gt;3</title>
<path fill="none" stroke="black" d="M691.12,-92.89C627.56,-78.17 514.99,-52.1 441.99,-35.19"/>
<polygon fill="black" stroke="black" points="442.49,-31.71 431.96,-32.86 440.91,-38.53 442.49,-31.71"/>
<text text-anchor="middle" x="593.59" y="-57.8" font-family="Times New Roman,serif" font-size="14.00">0.061</text>
</g>
<!-- 4 -->
<g id="node5" class="node">
<title>4</title>
<g id="a_node5"><a xlink:href="from_financial manager.svg" xlink:title="financial manager">
<ellipse fill="none" stroke="black" cx="568.09" cy="-18" rx="73.39" ry="18"/>
<text text-anchor="middle" x="568.09" y="-14.3" font-family="Times New Roman,serif" font-size="14.00">financial manager</text>
</a>
</g>
</g>
<!-- 0&#45;&gt;4 -->
<g id="edge5" class="edge">
<title>0&#45;&gt;4</title>
<path fill="none" stroke="black" d="M708.92,-89C680.94,-75.09 639.11,-54.3 608.3,-38.99"/>
<polygon fill="black" stroke="black" points="609.64,-35.74 599.12,-34.42 606.52,-42.01 609.64,-35.74"/>
<text text-anchor="middle" x="679.59" y="-57.8" font-family="Times New Roman,serif" font-size="14.00">0.056</text>
</g>
<!-- 5 -->
<g id="node6" class="node">
<title>5</title>
<g id="a_node6"><a xlink:href="from_marketing assistant.svg" xlink:title="marketing assistant">
<ellipse fill="none" stroke="black" cx="739.09" cy="-18" rx="79.09" ry="18"/>
<text text-anchor="middle" x="739.09" y="-14.3" font-family="Times New Roman,serif" font-size="14.00">marketing assistant</text>
</a>
</g>
</g>
<!-- 0&#45;&gt;5 -->
<g id="edge6" class="edge">
<title>0&#45;&gt;5</title>
<path fill="none" stroke="black" d="M739.09,-86.8C739.09,-75.16 739.09,-59.55 739.09,-46.24"/>
<polygon fill="black" stroke="black" points="742.59,-46.18 739.09,-36.18 735.59,-46.18 742.59,-46.18"/>
<text text-anchor="middle" x="754.59" y="-57.8" font-family="Times New Roman,serif" font-size="14.00">0.030</text>
</g>
<!-- 6 -->
<g id="node7" class="node">
<title>6</title>
<g id="a_node7"><a xlink:href="from_production manager.svg" xlink:title="production manager">
<ellipse fill="none" stroke="black" cx="919.09" cy="-18" rx="83.39" ry="18"/>
<text text-anchor="middle" x="919.09" y="-14.3" font-family="Times New Roman,serif" font-size="14.00">production manager</text>
</a>
</g>
</g>
<!-- 0&#45;&gt;6 -->
<g id="edge7" class="edge">
<title>0&#45;&gt;6</title>
<path fill="none" stroke="black" d="M770.45,-89.19C799.88,-75.3 844.12,-54.4 876.69,-39.02"/>
<polygon fill="black" stroke="black" points="878.42,-42.08 885.97,-34.64 875.43,-35.75 878.42,-42.08"/>
<text text-anchor="middle" x="855.59" y="-57.8" font-family="Times New Roman,serif" font-size="14.00">0.030</text>
</g>
<!-- 7 -->
<g id="node8" class="node">
<title>7</title>
<g id="a_node8"><a xlink:href="from_project manager.svg" xlink:title="project manager">
<ellipse fill="none" stroke="black" cx="1089.09" cy="-18" rx="68.79" ry="18"/>
<text text-anchor="middle" x="1089.09" y="-14.3" font-family="Times New Roman,serif" font-size="14.00">project manager</text>
</a>
</g>
</g>
<!-- 0&#45;&gt;7 -->
<g id="edge8" class="edge">
<title>0&#45;&gt;7</title>
<path fill="none" stroke="black" d="M785.93,-92.62C849.23,-77.25 962.03,-49.86 1030.76,-33.17"/>
<polygon fill="black" stroke="black" points="1031.67,-36.55 1040.57,-30.79 1030.02,-29.74 1031.67,-36.55"/>
<text text-anchor="middle" x="950.59" y="-57.8" font-family="Times New Roman,serif" font-size="14.00">0.025</text>
</g>
<!-- 8 -->
<g id="node9" class="node">
<title>8</title>
<g id="a_node9"><a xlink:href="from_facilities manager.svg" xlink:title="facilities manager">
<ellipse fill="none" stroke="black" cx="1249.09" cy="-18" rx="72.59" ry="18"/>
<text text-anchor="middle" x="1249.09" y="-14.3" font-family="Times New Roman,serif" font-size="14.00">facilities manager</text>
</a>
</g>
</g>
<!-- 0&#45;&gt;8 -->
<g id="edge9" class="edge">
<title>0&#45;&gt;8</title>
<path fill="none" stroke="black" d="M795.35,-96.07C877.34,-84.29 1034.35,-60.87 1167.09,-36 1173.19,-34.86 1179.53,-33.62 1185.87,-32.36"/>
<polygon fill="black" stroke="black" points="1186.67,-35.77 1195.78,-30.36 1185.29,-28.91 1186.67,-35.77"/>
<text text-anchor="middle" x="1077.59" y="-57.8" font-family="Times New Roman,serif" font-size="14.00">0.020</text>
</g>
<!-- 9 -->
<g id="node10" class="node">
<title>9</title>
<g id="a_node10"><a xlink:href="from_heritage manager.svg" xlink:title="heritage manager">
<ellipse fill="none" stroke="black" cx="1411.09" cy="-18" rx="71.49" ry="18"/>
<text text-anchor="middle" x="1411.09" y="-14.3" font-family="Times New Roman,serif" font-size="14.00">heritage manager</text>
</a>
</g>
</g>
<!-- 0&#45;&gt;9 -->
<g id="edge10" class="edge">
<title>0&#45;&gt;9</title>
<path fill="none" stroke="black" d="M800.38,-99.42C908.24,-90.8 1138.8,-69.95 1331.09,-36 1337.15,-34.93 1343.45,-33.74 1349.73,-32.49"/>
<polygon fill="black" stroke="black" points="1350.45,-35.92 1359.56,-30.5 1349.06,-29.06 1350.45,-35.92"/>
<text text-anchor="middle" x="1218.59" y="-57.8" font-family="Times New Roman,serif" font-size="14.00">0.020</text>
</g>
</g>
</svg>
