<?xml version="1.0" encoding="UTF-8" standalone="no"?>
<!DOCTYPE svg PUBLIC "-//W3C//DTD SVG 1.1//EN"
 "http://www.w3.org/Graphics/SVG/1.1/DTD/svg11.dtd">
<!-- Generated by graphviz version 2.44.1 (20200629.0800)
 -->
<!-- Title: barristers_clerk Pages: 1 -->
<svg width="1324pt" height="131pt"
 viewBox="0.00 0.00 1323.84 131.00" xmlns="http://www.w3.org/2000/svg" xmlns:xlink="http://www.w3.org/1999/xlink">
<g id="graph0" class="graph" transform="scale(1 1) rotate(0) translate(4 127)">
<title>barristers_clerk</title>
<polygon fill="white" stroke="transparent" points="-4,4 -4,-127 1319.84,-127 1319.84,4 -4,4"/>
<!-- 0 -->
<g id="node1" class="node">
<title>0</title>
<g id="a_node1"><a xlink:href="from_barristers clerk.svg" xlink:title="barristers clerk">
<ellipse fill="none" stroke="black" cx="593.45" cy="-105" rx="64.19" ry="18"/>
<text text-anchor="middle" x="593.45" y="-101.3" font-family="Times New Roman,serif" font-size="14.00">barristers clerk</text>
</a>
</g>
</g>
<!-- 0&#45;&gt;0 -->
<g id="edge2" class="edge">
<title>0&#45;&gt;0</title>
<path fill="none" stroke="black" d="M651.92,-112.72C665.66,-112.08 675.79,-109.51 675.79,-105 675.79,-101.69 670.33,-99.42 661.98,-98.2"/>
<polygon fill="black" stroke="black" points="662.19,-94.7 651.92,-97.28 661.56,-101.67 662.19,-94.7"/>
<text text-anchor="middle" x="691.29" y="-101.3" font-family="Times New Roman,serif" font-size="14.00">0.175</text>
</g>
<!-- 1 -->
<g id="node2" class="node">
<title>1</title>
<g id="a_node2"><a xlink:href="from_lawyer.svg" xlink:title="lawyer">
<ellipse fill="none" stroke="black" cx="34.45" cy="-18" rx="34.39" ry="18"/>
<text text-anchor="middle" x="34.45" y="-14.3" font-family="Times New Roman,serif" font-size="14.00">lawyer</text>
</a>
</g>
</g>
<!-- 0&#45;&gt;1 -->
<g id="edge1" class="edge">
<title>0&#45;&gt;1</title>
<path fill="none" stroke="black" d="M530.2,-101.6C452.7,-97.91 317.61,-89.04 203.45,-69 146.85,-59.06 133.11,-53.71 78.45,-36 75.83,-35.15 73.15,-34.24 70.46,-33.28"/>
<polygon fill="black" stroke="black" points="71.4,-29.9 60.8,-29.73 68.98,-36.47 71.4,-29.9"/>
<text text-anchor="middle" x="218.95" y="-57.8" font-family="Times New Roman,serif" font-size="14.00">0.198</text>
</g>
<!-- 2 -->
<g id="node3" class="node">
<title>2</title>
<g id="a_node3"><a xlink:href="from_solicitor.svg" xlink:title="solicitor">
<ellipse fill="none" stroke="black" cx="127.45" cy="-18" rx="40.09" ry="18"/>
<text text-anchor="middle" x="127.45" y="-14.3" font-family="Times New Roman,serif" font-size="14.00">solicitor</text>
</a>
</g>
</g>
<!-- 0&#45;&gt;2 -->
<g id="edge3" class="edge">
<title>0&#45;&gt;2</title>
<path fill="none" stroke="black" d="M532.7,-98.92C474.17,-93.49 383.29,-83.62 305.45,-69 247.28,-58.07 233.12,-53.05 176.45,-36 173.52,-35.12 170.51,-34.18 167.49,-33.2"/>
<polygon fill="black" stroke="black" points="168.49,-29.84 157.9,-30.01 166.28,-36.48 168.49,-29.84"/>
<text text-anchor="middle" x="320.95" y="-57.8" font-family="Times New Roman,serif" font-size="14.00">0.106</text>
</g>
<!-- 3 -->
<g id="node4" class="node">
<title>3</title>
<g id="a_node4"><a xlink:href="from_lecturer.svg" xlink:title="lecturer">
<ellipse fill="none" stroke="black" cx="223.45" cy="-18" rx="37.89" ry="18"/>
<text text-anchor="middle" x="223.45" y="-14.3" font-family="Times New Roman,serif" font-size="14.00">lecturer</text>
</a>
</g>
</g>
<!-- 0&#45;&gt;3 -->
<g id="edge4" class="edge">
<title>0&#45;&gt;3</title>
<path fill="none" stroke="black" d="M539.25,-95.14C474.42,-83.97 362.92,-62.92 269.45,-36 266.69,-35.2 263.85,-34.32 261.02,-33.39"/>
<polygon fill="black" stroke="black" points="262.04,-30.05 251.45,-30.09 259.76,-36.66 262.04,-30.05"/>
<text text-anchor="middle" x="417.95" y="-57.8" font-family="Times New Roman,serif" font-size="14.00">0.061</text>
</g>
<!-- 4 -->
<g id="node5" class="node">
<title>4</title>
<g id="a_node5"><a xlink:href="from_pharmacovigilance officer.svg" xlink:title="pharmacovigilance officer">
<ellipse fill="none" stroke="black" cx="383.45" cy="-18" rx="104.78" ry="18"/>
<text text-anchor="middle" x="383.45" y="-14.3" font-family="Times New Roman,serif" font-size="14.00">pharmacovigilance officer</text>
</a>
</g>
</g>
<!-- 0&#45;&gt;4 -->
<g id="edge5" class="edge">
<title>0&#45;&gt;4</title>
<path fill="none" stroke="black" d="M558.3,-89.77C523.64,-75.74 470.39,-54.19 431.77,-38.56"/>
<polygon fill="black" stroke="black" points="432.86,-35.23 422.28,-34.72 430.24,-41.71 432.86,-35.23"/>
<text text-anchor="middle" x="516.95" y="-57.8" font-family="Times New Roman,serif" font-size="14.00">0.053</text>
</g>
<!-- 5 -->
<g id="node6" class="node">
<title>5</title>
<g id="a_node6"><a xlink:href="from_welfare rights adviser.svg" xlink:title="welfare rights adviser">
<ellipse fill="none" stroke="black" cx="593.45" cy="-18" rx="87.18" ry="18"/>
<text text-anchor="middle" x="593.45" y="-14.3" font-family="Times New Roman,serif" font-size="14.00">welfare rights adviser</text>
</a>
</g>
</g>
<!-- 0&#45;&gt;5 -->
<g id="edge6" class="edge">
<title>0&#45;&gt;5</title>
<path fill="none" stroke="black" d="M593.45,-86.8C593.45,-75.16 593.45,-59.55 593.45,-46.24"/>
<polygon fill="black" stroke="black" points="596.95,-46.18 593.45,-36.18 589.95,-46.18 596.95,-46.18"/>
<text text-anchor="middle" x="608.95" y="-57.8" font-family="Times New Roman,serif" font-size="14.00">0.038</text>
</g>
<!-- 6 -->
<g id="node7" class="node">
<title>6</title>
<g id="a_node7"><a xlink:href="from_research scientist.svg" xlink:title="research scientist">
<ellipse fill="none" stroke="black" cx="771.45" cy="-18" rx="72.59" ry="18"/>
<text text-anchor="middle" x="771.45" y="-14.3" font-family="Times New Roman,serif" font-size="14.00">research scientist</text>
</a>
</g>
</g>
<!-- 0&#45;&gt;6 -->
<g id="edge7" class="edge">
<title>0&#45;&gt;6</title>
<path fill="none" stroke="black" d="M624.45,-89.19C653.83,-75.17 698.13,-54.01 730.41,-38.59"/>
<polygon fill="black" stroke="black" points="732.08,-41.68 739.6,-34.21 729.07,-35.36 732.08,-41.68"/>
<text text-anchor="middle" x="708.95" y="-57.8" font-family="Times New Roman,serif" font-size="14.00">0.030</text>
</g>
<!-- 7 -->
<g id="node8" class="node">
<title>7</title>
<g id="a_node8"><a xlink:href="from_human resources officer.svg" xlink:title="human resources officer">
<ellipse fill="none" stroke="black" cx="961.45" cy="-18" rx="98.58" ry="18"/>
<text text-anchor="middle" x="961.45" y="-14.3" font-family="Times New Roman,serif" font-size="14.00">human resources officer</text>
</a>
</g>
</g>
<!-- 0&#45;&gt;7 -->
<g id="edge8" class="edge">
<title>0&#45;&gt;7</title>
<path fill="none" stroke="black" d="M641.56,-92.89C705.66,-78.08 819.48,-51.79 892.64,-34.89"/>
<polygon fill="black" stroke="black" points="893.73,-38.23 902.69,-32.57 892.16,-31.41 893.73,-38.23"/>
<text text-anchor="middle" x="815.95" y="-57.8" font-family="Times New Roman,serif" font-size="14.00">0.022</text>
</g>
<!-- 8 -->
<g id="node9" class="node">
<title>8</title>
<g id="a_node9"><a xlink:href="from_teaching assistant.svg" xlink:title="teaching assistant">
<ellipse fill="none" stroke="black" cx="1151.45" cy="-18" rx="73.39" ry="18"/>
<text text-anchor="middle" x="1151.45" y="-14.3" font-family="Times New Roman,serif" font-size="14.00">teaching assistant</text>
</a>
</g>
</g>
<!-- 0&#45;&gt;8 -->
<g id="edge9" class="edge">
<title>0&#45;&gt;8</title>
<path fill="none" stroke="black" d="M651.15,-96.94C740.88,-85.7 919.17,-62.28 1069.45,-36 1075.56,-34.93 1081.91,-33.75 1088.25,-32.52"/>
<polygon fill="black" stroke="black" points="1089.04,-35.93 1098.17,-30.55 1087.68,-29.06 1089.04,-35.93"/>
<text text-anchor="middle" x="967.95" y="-57.8" font-family="Times New Roman,serif" font-size="14.00">0.022</text>
</g>
<!-- 9 -->
<g id="node10" class="node">
<title>9</title>
<g id="a_node10"><a xlink:href="from_curator.svg" xlink:title="curator">
<ellipse fill="none" stroke="black" cx="1279.45" cy="-18" rx="36.29" ry="18"/>
<text text-anchor="middle" x="1279.45" y="-14.3" font-family="Times New Roman,serif" font-size="14.00">curator</text>
</a>
</g>
</g>
<!-- 0&#45;&gt;9 -->
<g id="edge10" class="edge">
<title>0&#45;&gt;9</title>
<path fill="none" stroke="black" d="M657.59,-103C774.01,-99.9 1027.15,-87.29 1233.45,-36 1236.41,-35.26 1239.44,-34.4 1242.47,-33.46"/>
<polygon fill="black" stroke="black" points="1243.66,-36.75 1252.03,-30.25 1241.43,-30.12 1243.66,-36.75"/>
<text text-anchor="middle" x="1163.95" y="-57.8" font-family="Times New Roman,serif" font-size="14.00">0.015</text>
</g>
</g>
</svg>
