<?xml version="1.0" encoding="UTF-8" standalone="no"?>
<!DOCTYPE svg PUBLIC "-//W3C//DTD SVG 1.1//EN"
 "http://www.w3.org/Graphics/SVG/1.1/DTD/svg11.dtd">
<!-- Generated by graphviz version 2.44.1 (20200629.0800)
 -->
<!-- Title: test Pages: 1 -->
<svg width="1415pt" height="131pt"
 viewBox="0.00 0.00 1415.14 131.00" xmlns="http://www.w3.org/2000/svg" xmlns:xlink="http://www.w3.org/1999/xlink">
<g id="graph0" class="graph" transform="scale(1 1) rotate(0) translate(4 127)">
<title>test</title>
<polygon fill="white" stroke="transparent" points="-4,4 -4,-127 1411.14,-127 1411.14,4 -4,4"/>
<!-- 0 -->
<g id="node1" class="node">
<title>0</title>
<g id="a_node1"><a xlink:href="from_diplomatic service.svg" xlink:title="diplomatic service">
<ellipse fill="none" stroke="black" cx="687.7" cy="-105" rx="76.89" ry="18"/>
<text text-anchor="middle" x="687.7" y="-101.3" font-family="Times New Roman,serif" font-size="14.00">diplomatic service</text>
</a>
</g>
</g>
<!-- 0&#45;&gt;0 -->
<g id="edge8" class="edge">
<title>0&#45;&gt;0</title>
<path fill="none" stroke="black" d="M757.48,-112.6C771.97,-111.8 782.39,-109.27 782.39,-105 782.39,-101.8 776.53,-99.58 767.49,-98.33"/>
<polygon fill="black" stroke="black" points="767.76,-94.84 757.48,-97.4 767.12,-101.81 767.76,-94.84"/>
<text text-anchor="middle" x="797.89" y="-101.3" font-family="Times New Roman,serif" font-size="14.00">0.038</text>
</g>
<!-- 1 -->
<g id="node2" class="node">
<title>1</title>
<g id="a_node2"><a xlink:href="from_lecturer.svg" xlink:title="lecturer">
<ellipse fill="none" stroke="black" cx="37.7" cy="-18" rx="37.89" ry="18"/>
<text text-anchor="middle" x="37.7" y="-14.3" font-family="Times New Roman,serif" font-size="14.00">lecturer</text>
</a>
</g>
</g>
<!-- 0&#45;&gt;1 -->
<g id="edge1" class="edge">
<title>0&#45;&gt;1</title>
<path fill="none" stroke="black" d="M612.31,-101.36C497.01,-96.01 270.56,-80.35 83.7,-36 80.9,-35.34 78.04,-34.55 75.19,-33.69"/>
<polygon fill="black" stroke="black" points="76.18,-30.33 65.58,-30.53 73.99,-36.98 76.18,-30.33"/>
<text text-anchor="middle" x="263.2" y="-57.8" font-family="Times New Roman,serif" font-size="14.00">0.076</text>
</g>
<!-- 2 -->
<g id="node3" class="node">
<title>2</title>
<g id="a_node3"><a xlink:href="from_pharmacovigilance officer.svg" xlink:title="pharmacovigilance officer">
<ellipse fill="none" stroke="black" cx="197.7" cy="-18" rx="104.78" ry="18"/>
<text text-anchor="middle" x="197.7" y="-14.3" font-family="Times New Roman,serif" font-size="14.00">pharmacovigilance officer</text>
</a>
</g>
</g>
<!-- 0&#45;&gt;2 -->
<g id="edge2" class="edge">
<title>0&#45;&gt;2</title>
<path fill="none" stroke="black" d="M628.1,-93.66C540.57,-78.48 376.98,-50.1 278.64,-33.04"/>
<polygon fill="black" stroke="black" points="279.2,-29.59 268.75,-31.33 278,-36.48 279.2,-29.59"/>
<text text-anchor="middle" x="488.2" y="-57.8" font-family="Times New Roman,serif" font-size="14.00">0.076</text>
</g>
<!-- 3 -->
<g id="node4" class="node">
<title>3</title>
<g id="a_node4"><a xlink:href="from_programme researcher.svg" xlink:title="programme researcher">
<ellipse fill="none" stroke="black" cx="411.7" cy="-18" rx="91.78" ry="18"/>
<text text-anchor="middle" x="411.7" y="-14.3" font-family="Times New Roman,serif" font-size="14.00">programme researcher</text>
</a>
</g>
</g>
<!-- 0&#45;&gt;3 -->
<g id="edge3" class="edge">
<title>0&#45;&gt;3</title>
<path fill="none" stroke="black" d="M643.05,-90.25C595.6,-75.64 520.45,-52.49 468.75,-36.57"/>
<polygon fill="black" stroke="black" points="469.65,-33.18 459.06,-33.59 467.59,-39.87 469.65,-33.18"/>
<text text-anchor="middle" x="582.2" y="-57.8" font-family="Times New Roman,serif" font-size="14.00">0.076</text>
</g>
<!-- 4 -->
<g id="node5" class="node">
<title>4</title>
<g id="a_node5"><a xlink:href="from_writer.svg" xlink:title="writer">
<ellipse fill="none" stroke="black" cx="552.7" cy="-18" rx="31.4" ry="18"/>
<text text-anchor="middle" x="552.7" y="-14.3" font-family="Times New Roman,serif" font-size="14.00">writer</text>
</a>
</g>
</g>
<!-- 0&#45;&gt;4 -->
<g id="edge4" class="edge">
<title>0&#45;&gt;4</title>
<path fill="none" stroke="black" d="M662.3,-88.01C639.41,-73.6 605.76,-52.41 581.79,-37.32"/>
<polygon fill="black" stroke="black" points="583.45,-34.23 573.12,-31.86 579.72,-40.15 583.45,-34.23"/>
<text text-anchor="middle" x="644.2" y="-57.8" font-family="Times New Roman,serif" font-size="14.00">0.076</text>
</g>
<!-- 5 -->
<g id="node6" class="node">
<title>5</title>
<g id="a_node6"><a xlink:href="from_aeronautical engineer.svg" xlink:title="aeronautical engineer">
<ellipse fill="none" stroke="black" cx="687.7" cy="-18" rx="85.59" ry="18"/>
<text text-anchor="middle" x="687.7" y="-14.3" font-family="Times New Roman,serif" font-size="14.00">aeronautical engineer</text>
</a>
</g>
</g>
<!-- 0&#45;&gt;5 -->
<g id="edge5" class="edge">
<title>0&#45;&gt;5</title>
<path fill="none" stroke="black" d="M687.7,-86.8C687.7,-75.16 687.7,-59.55 687.7,-46.24"/>
<polygon fill="black" stroke="black" points="691.2,-46.18 687.7,-36.18 684.2,-46.18 691.2,-46.18"/>
<text text-anchor="middle" x="703.2" y="-57.8" font-family="Times New Roman,serif" font-size="14.00">0.038</text>
</g>
<!-- 6 -->
<g id="node7" class="node">
<title>6</title>
<g id="a_node7"><a xlink:href="from_auditor.svg" xlink:title="auditor">
<ellipse fill="none" stroke="black" cx="827.7" cy="-18" rx="36.29" ry="18"/>
<text text-anchor="middle" x="827.7" y="-14.3" font-family="Times New Roman,serif" font-size="14.00">auditor</text>
</a>
</g>
</g>
<!-- 0&#45;&gt;6 -->
<g id="edge6" class="edge">
<title>0&#45;&gt;6</title>
<path fill="none" stroke="black" d="M714.03,-88.01C737.59,-73.71 772.14,-52.73 796.96,-37.66"/>
<polygon fill="black" stroke="black" points="798.9,-40.58 805.63,-32.4 795.26,-34.6 798.9,-40.58"/>
<text text-anchor="middle" x="782.2" y="-57.8" font-family="Times New Roman,serif" font-size="14.00">0.038</text>
</g>
<!-- 7 -->
<g id="node8" class="node">
<title>7</title>
<g id="a_node8"><a xlink:href="from_catering manager.svg" xlink:title="catering manager">
<ellipse fill="none" stroke="black" cx="953.7" cy="-18" rx="71.49" ry="18"/>
<text text-anchor="middle" x="953.7" y="-14.3" font-family="Times New Roman,serif" font-size="14.00">catering manager</text>
</a>
</g>
</g>
<!-- 0&#45;&gt;7 -->
<g id="edge7" class="edge">
<title>0&#45;&gt;7</title>
<path fill="none" stroke="black" d="M732.7,-90.41C753.7,-84.01 779.01,-76.21 801.7,-69 835.47,-58.26 873.33,-45.81 902.82,-36.02"/>
<polygon fill="black" stroke="black" points="904.1,-39.28 912.48,-32.8 901.89,-32.64 904.1,-39.28"/>
<text text-anchor="middle" x="864.2" y="-57.8" font-family="Times New Roman,serif" font-size="14.00">0.038</text>
</g>
<!-- 8 -->
<g id="node9" class="node">
<title>8</title>
<g id="a_node9"><a xlink:href="from_financial manager.svg" xlink:title="financial manager">
<ellipse fill="none" stroke="black" cx="1116.7" cy="-18" rx="73.39" ry="18"/>
<text text-anchor="middle" x="1116.7" y="-14.3" font-family="Times New Roman,serif" font-size="14.00">financial manager</text>
</a>
</g>
</g>
<!-- 0&#45;&gt;8 -->
<g id="edge9" class="edge">
<title>0&#45;&gt;8</title>
<path fill="none" stroke="black" d="M747.84,-93.82C786.68,-87.1 838.25,-77.93 883.7,-69 941.75,-57.59 1007.65,-43.33 1054.52,-32.96"/>
<polygon fill="black" stroke="black" points="1055.51,-36.32 1064.52,-30.74 1054,-29.49 1055.51,-36.32"/>
<text text-anchor="middle" x="970.2" y="-57.8" font-family="Times New Roman,serif" font-size="14.00">0.038</text>
</g>
<!-- 9 -->
<g id="node10" class="node">
<title>9</title>
<g id="a_node10"><a xlink:href="from_health and safety adviser.svg" xlink:title="health and safety adviser">
<ellipse fill="none" stroke="black" cx="1307.7" cy="-18" rx="99.38" ry="18"/>
<text text-anchor="middle" x="1307.7" y="-14.3" font-family="Times New Roman,serif" font-size="14.00">health and safety adviser</text>
</a>
</g>
</g>
<!-- 0&#45;&gt;9 -->
<g id="edge10" class="edge">
<title>0&#45;&gt;9</title>
<path fill="none" stroke="black" d="M756.16,-96.87C817.44,-90.29 909.68,-79.92 989.7,-69 1070.9,-57.91 1163.43,-43.12 1227.66,-32.51"/>
<polygon fill="black" stroke="black" points="1228.42,-35.93 1237.71,-30.84 1227.28,-29.02 1228.42,-35.93"/>
<text text-anchor="middle" x="1102.2" y="-57.8" font-family="Times New Roman,serif" font-size="14.00">0.038</text>
</g>
</g>
</svg>
