<?xml version="1.0" encoding="UTF-8" standalone="no"?>
<!DOCTYPE svg PUBLIC "-//W3C//DTD SVG 1.1//EN"
 "http://www.w3.org/Graphics/SVG/1.1/DTD/svg11.dtd">
<!-- Generated by graphviz version 2.44.1 (20200629.0800)
 -->
<!-- Title: test Pages: 1 -->
<svg width="546pt" height="131pt"
 viewBox="0.00 0.00 545.94 131.00" xmlns="http://www.w3.org/2000/svg" xmlns:xlink="http://www.w3.org/1999/xlink">
<g id="graph0" class="graph" transform="scale(1 1) rotate(0) translate(4 127)">
<title>test</title>
<polygon fill="white" stroke="transparent" points="-4,4 -4,-127 541.94,-127 541.94,4 -4,4"/>
<!-- 0 -->
<g id="node1" class="node">
<title>0</title>
<g id="a_node1"><a xlink:href="from_illustrator.svg" xlink:title="illustrator">
<ellipse fill="none" stroke="black" cx="266.1" cy="-105" rx="44.39" ry="18"/>
<text text-anchor="middle" x="266.1" y="-101.3" font-family="Times New Roman,serif" font-size="14.00">illustrator</text>
</a>
</g>
</g>
<!-- 0&#45;&gt;0 -->
<g id="edge1" class="edge">
<title>0&#45;&gt;0</title>
<path fill="none" stroke="black" d="M305.87,-112.87C318.41,-112.75 328.29,-110.13 328.29,-105 328.29,-101.4 323.4,-99.03 316.15,-97.9"/>
<polygon fill="black" stroke="black" points="316.11,-94.39 305.87,-97.13 315.59,-101.37 316.11,-94.39"/>
<text text-anchor="middle" x="340.79" y="-101.3" font-family="Times New Roman,serif" font-size="14.00">1.25</text>
</g>
<!-- 1 -->
<g id="node2" class="node">
<title>1</title>
<g id="a_node2"><a xlink:href="from_paramedic.svg" xlink:title="paramedic">
<ellipse fill="none" stroke="black" cx="48.1" cy="-18" rx="48.19" ry="18"/>
<text text-anchor="middle" x="48.1" y="-14.3" font-family="Times New Roman,serif" font-size="14.00">paramedic</text>
</a>
</g>
</g>
<!-- 0&#45;&gt;1 -->
<g id="edge2" class="edge">
<title>0&#45;&gt;1</title>
<path fill="none" stroke="black" d="M235.32,-92C197.21,-77.14 132.14,-51.77 89.63,-35.19"/>
<polygon fill="black" stroke="black" points="90.72,-31.86 80.13,-31.49 88.17,-38.38 90.72,-31.86"/>
<text text-anchor="middle" x="183.6" y="-57.8" font-family="Times New Roman,serif" font-size="14.00">0.25</text>
</g>
<!-- 2 -->
<g id="node3" class="node">
<title>2</title>
<g id="a_node3"><a xlink:href="from_personal assistant.svg" xlink:title="personal assistant">
<ellipse fill="none" stroke="black" cx="189.1" cy="-18" rx="74.99" ry="18"/>
<text text-anchor="middle" x="189.1" y="-14.3" font-family="Times New Roman,serif" font-size="14.00">personal assistant</text>
</a>
</g>
</g>
<!-- 0&#45;&gt;2 -->
<g id="edge3" class="edge">
<title>0&#45;&gt;2</title>
<path fill="none" stroke="black" d="M251.25,-87.61C239.89,-75.07 224.05,-57.59 211.21,-43.41"/>
<polygon fill="black" stroke="black" points="213.73,-40.98 204.42,-35.92 208.54,-45.68 213.73,-40.98"/>
<text text-anchor="middle" x="245.6" y="-57.8" font-family="Times New Roman,serif" font-size="14.00">0.25</text>
</g>
<!-- 3 -->
<g id="node4" class="node">
<title>3</title>
<g id="a_node4"><a xlink:href="from_sales manager.svg" xlink:title="sales manager">
<ellipse fill="none" stroke="black" cx="343.1" cy="-18" rx="61.19" ry="18"/>
<text text-anchor="middle" x="343.1" y="-14.3" font-family="Times New Roman,serif" font-size="14.00">sales manager</text>
</a>
</g>
</g>
<!-- 0&#45;&gt;3 -->
<g id="edge4" class="edge">
<title>0&#45;&gt;3</title>
<path fill="none" stroke="black" d="M280.94,-87.61C292.37,-74.99 308.35,-57.36 321.24,-43.13"/>
<polygon fill="black" stroke="black" points="323.91,-45.39 328.03,-35.63 318.72,-40.69 323.91,-45.39"/>
<text text-anchor="middle" x="322.6" y="-57.8" font-family="Times New Roman,serif" font-size="14.00">0.25</text>
</g>
<!-- 4 -->
<g id="node5" class="node">
<title>4</title>
<g id="a_node5"><a xlink:href="from_sports coach.svg" xlink:title="sports coach">
<ellipse fill="none" stroke="black" cx="480.1" cy="-18" rx="57.69" ry="18"/>
<text text-anchor="middle" x="480.1" y="-14.3" font-family="Times New Roman,serif" font-size="14.00">sports coach</text>
</a>
</g>
</g>
<!-- 0&#45;&gt;4 -->
<g id="edge5" class="edge">
<title>0&#45;&gt;4</title>
<path fill="none" stroke="black" d="M296.76,-91.82C333.43,-77.26 395.05,-52.78 436.63,-36.27"/>
<polygon fill="black" stroke="black" points="437.95,-39.51 445.95,-32.56 435.37,-33 437.95,-39.51"/>
<text text-anchor="middle" x="398.6" y="-57.8" font-family="Times New Roman,serif" font-size="14.00">0.25</text>
</g>
</g>
</svg>
