<?xml version="1.0" encoding="UTF-8" standalone="no"?>
<!DOCTYPE svg PUBLIC "-//W3C//DTD SVG 1.1//EN"
 "http://www.w3.org/Graphics/SVG/1.1/DTD/svg11.dtd">
<!-- Generated by graphviz version 2.44.1 (20200629.0800)
 -->
<!-- Title: test Pages: 1 -->
<svg width="1268pt" height="131pt"
 viewBox="0.00 0.00 1268.24 131.00" xmlns="http://www.w3.org/2000/svg" xmlns:xlink="http://www.w3.org/1999/xlink">
<g id="graph0" class="graph" transform="scale(1 1) rotate(0) translate(4 127)">
<title>test</title>
<polygon fill="white" stroke="transparent" points="-4,4 -4,-127 1264.24,-127 1264.24,4 -4,4"/>
<!-- 0 -->
<g id="node1" class="node">
<title>0</title>
<g id="a_node1"><a xlink:href="from_commercial horticulturist.svg" xlink:title="commercial horticulturist">
<ellipse fill="none" stroke="black" cx="715.19" cy="-105" rx="100.98" ry="18"/>
<text text-anchor="middle" x="715.19" y="-101.3" font-family="Times New Roman,serif" font-size="14.00">commercial horticulturist</text>
</a>
</g>
</g>
<!-- 0&#45;&gt;0 -->
<g id="edge4" class="edge">
<title>0&#45;&gt;0</title>
<path fill="none" stroke="black" d="M807.3,-112.35C823.03,-111.35 833.93,-108.9 833.93,-105 833.93,-102.02 827.54,-99.88 817.49,-98.59"/>
<polygon fill="black" stroke="black" points="817.58,-95.09 807.3,-97.65 816.93,-102.06 817.58,-95.09"/>
<text text-anchor="middle" x="849.43" y="-101.3" font-family="Times New Roman,serif" font-size="14.00">0.051</text>
</g>
<!-- 1 -->
<g id="node2" class="node">
<title>1</title>
<g id="a_node2"><a xlink:href="from_production manager.svg" xlink:title="production manager">
<ellipse fill="none" stroke="black" cx="83.19" cy="-18" rx="83.39" ry="18"/>
<text text-anchor="middle" x="83.19" y="-14.3" font-family="Times New Roman,serif" font-size="14.00">production manager</text>
</a>
</g>
</g>
<!-- 0&#45;&gt;1 -->
<g id="edge1" class="edge">
<title>0&#45;&gt;1</title>
<path fill="none" stroke="black" d="M622.92,-97.7C547.89,-91.99 439.41,-82.42 345.19,-69 278.11,-59.45 202.12,-44.48 149.32,-33.41"/>
<polygon fill="black" stroke="black" points="149.92,-29.96 139.41,-31.32 148.47,-36.81 149.92,-29.96"/>
<text text-anchor="middle" x="360.69" y="-57.8" font-family="Times New Roman,serif" font-size="14.00">0.076</text>
</g>
<!-- 2 -->
<g id="node3" class="node">
<title>2</title>
<g id="a_node3"><a xlink:href="from_qa analyst.svg" xlink:title="qa analyst">
<ellipse fill="none" stroke="black" cx="231.19" cy="-18" rx="46.59" ry="18"/>
<text text-anchor="middle" x="231.19" y="-14.3" font-family="Times New Roman,serif" font-size="14.00">qa analyst</text>
</a>
</g>
</g>
<!-- 0&#45;&gt;2 -->
<g id="edge2" class="edge">
<title>0&#45;&gt;2</title>
<path fill="none" stroke="black" d="M632.39,-94.74C545.62,-84.13 405.71,-64.45 287.19,-36 283.41,-35.09 279.51,-34.08 275.6,-33"/>
<polygon fill="black" stroke="black" points="276.55,-29.63 265.97,-30.25 274.62,-36.36 276.55,-29.63"/>
<text text-anchor="middle" x="466.69" y="-57.8" font-family="Times New Roman,serif" font-size="14.00">0.076</text>
</g>
<!-- 3 -->
<g id="node4" class="node">
<title>3</title>
<g id="a_node4"><a xlink:href="from_sales manager.svg" xlink:title="sales manager">
<ellipse fill="none" stroke="black" cx="357.19" cy="-18" rx="61.19" ry="18"/>
<text text-anchor="middle" x="357.19" y="-14.3" font-family="Times New Roman,serif" font-size="14.00">sales manager</text>
</a>
</g>
</g>
<!-- 0&#45;&gt;3 -->
<g id="edge3" class="edge">
<title>0&#45;&gt;3</title>
<path fill="none" stroke="black" d="M656.7,-90.3C598.49,-76.65 506.63,-55.02 427.19,-36 422.5,-34.88 417.63,-33.7 412.74,-32.53"/>
<polygon fill="black" stroke="black" points="413.29,-29.06 402.74,-30.11 411.64,-35.86 413.29,-29.06"/>
<text text-anchor="middle" x="577.69" y="-57.8" font-family="Times New Roman,serif" font-size="14.00">0.076</text>
</g>
<!-- 4 -->
<g id="node5" class="node">
<title>4</title>
<g id="a_node5"><a xlink:href="from_environmental manager.svg" xlink:title="environmental manager">
<ellipse fill="none" stroke="black" cx="530.19" cy="-18" rx="93.68" ry="18"/>
<text text-anchor="middle" x="530.19" y="-14.3" font-family="Times New Roman,serif" font-size="14.00">environmental manager</text>
</a>
</g>
</g>
<!-- 0&#45;&gt;4 -->
<g id="edge5" class="edge">
<title>0&#45;&gt;4</title>
<path fill="none" stroke="black" d="M680.4,-88.01C650.2,-74.14 606.34,-53.98 573.8,-39.04"/>
<polygon fill="black" stroke="black" points="575.07,-35.77 564.52,-34.77 572.15,-42.13 575.07,-35.77"/>
<text text-anchor="middle" x="649.69" y="-57.8" font-family="Times New Roman,serif" font-size="14.00">0.051</text>
</g>
<!-- 5 -->
<g id="node6" class="node">
<title>5</title>
<g id="a_node6"><a xlink:href="from_financial manager.svg" xlink:title="financial manager">
<ellipse fill="none" stroke="black" cx="715.19" cy="-18" rx="73.39" ry="18"/>
<text text-anchor="middle" x="715.19" y="-14.3" font-family="Times New Roman,serif" font-size="14.00">financial manager</text>
</a>
</g>
</g>
<!-- 0&#45;&gt;5 -->
<g id="edge6" class="edge">
<title>0&#45;&gt;5</title>
<path fill="none" stroke="black" d="M715.19,-86.8C715.19,-75.16 715.19,-59.55 715.19,-46.24"/>
<polygon fill="black" stroke="black" points="718.69,-46.18 715.19,-36.18 711.69,-46.18 718.69,-46.18"/>
<text text-anchor="middle" x="730.69" y="-57.8" font-family="Times New Roman,serif" font-size="14.00">0.051</text>
</g>
<!-- 6 -->
<g id="node7" class="node">
<title>6</title>
<g id="a_node7"><a xlink:href="from_investment analyst.svg" xlink:title="investment analyst">
<ellipse fill="none" stroke="black" cx="883.19" cy="-18" rx="76.89" ry="18"/>
<text text-anchor="middle" x="883.19" y="-14.3" font-family="Times New Roman,serif" font-size="14.00">investment analyst</text>
</a>
</g>
</g>
<!-- 0&#45;&gt;6 -->
<g id="edge7" class="edge">
<title>0&#45;&gt;6</title>
<path fill="none" stroke="black" d="M747.19,-87.81C774.51,-73.99 813.92,-54.05 843.29,-39.19"/>
<polygon fill="black" stroke="black" points="845.11,-42.19 852.45,-34.55 841.95,-35.95 845.11,-42.19"/>
<text text-anchor="middle" x="825.69" y="-57.8" font-family="Times New Roman,serif" font-size="14.00">0.051</text>
</g>
<!-- 7 -->
<g id="node8" class="node">
<title>7</title>
<g id="a_node8"><a xlink:href="from_teacher.svg" xlink:title="teacher">
<ellipse fill="none" stroke="black" cx="1014.19" cy="-18" rx="36.29" ry="18"/>
<text text-anchor="middle" x="1014.19" y="-14.3" font-family="Times New Roman,serif" font-size="14.00">teacher</text>
</a>
</g>
</g>
<!-- 0&#45;&gt;7 -->
<g id="edge8" class="edge">
<title>0&#45;&gt;7</title>
<path fill="none" stroke="black" d="M773.17,-90.23C824.97,-77.51 902.71,-57.4 969.19,-36 971.79,-35.17 974.45,-34.27 977.12,-33.34"/>
<polygon fill="black" stroke="black" points="978.52,-36.55 986.74,-29.87 976.15,-29.97 978.52,-36.55"/>
<text text-anchor="middle" x="922.69" y="-57.8" font-family="Times New Roman,serif" font-size="14.00">0.051</text>
</g>
<!-- 8 -->
<g id="node9" class="node">
<title>8</title>
<g id="a_node9"><a xlink:href="from_accountant.svg" xlink:title="accountant">
<ellipse fill="none" stroke="black" cx="1118.19" cy="-18" rx="50.09" ry="18"/>
<text text-anchor="middle" x="1118.19" y="-14.3" font-family="Times New Roman,serif" font-size="14.00">accountant</text>
</a>
</g>
</g>
<!-- 0&#45;&gt;8 -->
<g id="edge9" class="edge">
<title>0&#45;&gt;8</title>
<path fill="none" stroke="black" d="M795.47,-94.05C839.11,-88.04 893.87,-79.5 942.19,-69 994.99,-57.53 1007.23,-50.81 1059.19,-36 1062.95,-34.93 1066.84,-33.82 1070.75,-32.7"/>
<polygon fill="black" stroke="black" points="1071.79,-36.04 1080.43,-29.91 1069.85,-29.31 1071.79,-36.04"/>
<text text-anchor="middle" x="1014.69" y="-57.8" font-family="Times New Roman,serif" font-size="14.00">0.025</text>
</g>
<!-- 9 -->
<g id="node10" class="node">
<title>9</title>
<g id="a_node10"><a xlink:href="from_actuary.svg" xlink:title="actuary">
<ellipse fill="none" stroke="black" cx="1223.19" cy="-18" rx="37.09" ry="18"/>
<text text-anchor="middle" x="1223.19" y="-14.3" font-family="Times New Roman,serif" font-size="14.00">actuary</text>
</a>
</g>
</g>
<!-- 0&#45;&gt;9 -->
<g id="edge10" class="edge">
<title>0&#45;&gt;9</title>
<path fill="none" stroke="black" d="M808.5,-98.19C903.04,-90.47 1052.71,-73.2 1177.19,-36 1179.95,-35.18 1182.77,-34.28 1185.61,-33.33"/>
<polygon fill="black" stroke="black" points="1186.87,-36.6 1195.16,-30 1184.57,-29.99 1186.87,-36.6"/>
<text text-anchor="middle" x="1119.69" y="-57.8" font-family="Times New Roman,serif" font-size="14.00">0.025</text>
</g>
</g>
</svg>
