<?xml version="1.0" encoding="UTF-8" standalone="no"?>
<!DOCTYPE svg PUBLIC "-//W3C//DTD SVG 1.1//EN"
 "http://www.w3.org/Graphics/SVG/1.1/DTD/svg11.dtd">
<!-- Generated by graphviz version 2.44.1 (20200629.0800)
 -->
<!-- Title: medical_physicist Pages: 1 -->
<svg width="1551pt" height="131pt"
 viewBox="0.00 0.00 1551.39 131.00" xmlns="http://www.w3.org/2000/svg" xmlns:xlink="http://www.w3.org/1999/xlink">
<g id="graph0" class="graph" transform="scale(1 1) rotate(0) translate(4 127)">
<title>medical_physicist</title>
<polygon fill="white" stroke="transparent" points="-4,4 -4,-127 1547.39,-127 1547.39,4 -4,4"/>
<!-- 0 -->
<g id="node1" class="node">
<title>0</title>
<g id="a_node1"><a xlink:href="from_medical physicist.svg" xlink:title="medical physicist">
<ellipse fill="none" stroke="black" cx="797.34" cy="-105" rx="73.39" ry="18"/>
<text text-anchor="middle" x="797.34" y="-101.3" font-family="Times New Roman,serif" font-size="14.00">medical physicist</text>
</a>
</g>
</g>
<!-- 0&#45;&gt;0 -->
<g id="edge1" class="edge">
<title>0&#45;&gt;0</title>
<path fill="none" stroke="black" d="M863.92,-112.64C878.33,-111.9 888.79,-109.35 888.79,-105 888.79,-101.74 882.91,-99.49 873.89,-98.26"/>
<polygon fill="black" stroke="black" points="874.2,-94.77 863.92,-97.36 873.57,-101.74 874.2,-94.77"/>
<text text-anchor="middle" x="904.29" y="-101.3" font-family="Times New Roman,serif" font-size="14.00">0.270</text>
</g>
<!-- 1 -->
<g id="node2" class="node">
<title>1</title>
<g id="a_node2"><a xlink:href="from_clinical biochemist.svg" xlink:title="clinical biochemist">
<ellipse fill="none" stroke="black" cx="77.34" cy="-18" rx="77.19" ry="18"/>
<text text-anchor="middle" x="77.34" y="-14.3" font-family="Times New Roman,serif" font-size="14.00">clinical biochemist</text>
</a>
</g>
</g>
<!-- 0&#45;&gt;1 -->
<g id="edge2" class="edge">
<title>0&#45;&gt;1</title>
<path fill="none" stroke="black" d="M728.22,-98.74C611.54,-89.37 368.29,-67.77 164.34,-36 157.34,-34.91 150.04,-33.66 142.78,-32.35"/>
<polygon fill="black" stroke="black" points="143.4,-28.9 132.93,-30.52 142.12,-35.78 143.4,-28.9"/>
<text text-anchor="middle" x="422.84" y="-57.8" font-family="Times New Roman,serif" font-size="14.00">0.081</text>
</g>
<!-- 2 -->
<g id="node3" class="node">
<title>2</title>
<g id="a_node3"><a xlink:href="from_clinical microbiologist.svg" xlink:title="clinical microbiologist">
<ellipse fill="none" stroke="black" cx="263.34" cy="-18" rx="90.18" ry="18"/>
<text text-anchor="middle" x="263.34" y="-14.3" font-family="Times New Roman,serif" font-size="14.00">clinical microbiologist</text>
</a>
</g>
</g>
<!-- 0&#45;&gt;2 -->
<g id="edge3" class="edge">
<title>0&#45;&gt;2</title>
<path fill="none" stroke="black" d="M736.42,-94.77C652.25,-81.95 495.67,-57.87 362.34,-36 354.78,-34.76 346.9,-33.44 339.03,-32.12"/>
<polygon fill="black" stroke="black" points="339.53,-28.65 329.09,-30.43 338.36,-35.55 339.53,-28.65"/>
<text text-anchor="middle" x="580.84" y="-57.8" font-family="Times New Roman,serif" font-size="14.00">0.081</text>
</g>
<!-- 3 -->
<g id="node4" class="node">
<title>3</title>
<g id="a_node4"><a xlink:href="from_clinical research associate.svg" xlink:title="clinical research associate">
<ellipse fill="none" stroke="black" cx="475.34" cy="-18" rx="103.98" ry="18"/>
<text text-anchor="middle" x="475.34" y="-14.3" font-family="Times New Roman,serif" font-size="14.00">clinical research associate</text>
</a>
</g>
</g>
<!-- 0&#45;&gt;3 -->
<g id="edge4" class="edge">
<title>0&#45;&gt;3</title>
<path fill="none" stroke="black" d="M749.14,-91.27C693.46,-76.58 601.63,-52.34 539.84,-36.03"/>
<polygon fill="black" stroke="black" points="540.37,-32.55 529.81,-33.38 538.59,-39.31 540.37,-32.55"/>
<text text-anchor="middle" x="671.84" y="-57.8" font-family="Times New Roman,serif" font-size="14.00">0.081</text>
</g>
<!-- 4 -->
<g id="node5" class="node">
<title>4</title>
<g id="a_node5"><a xlink:href="from_lecturer.svg" xlink:title="lecturer">
<ellipse fill="none" stroke="black" cx="635.34" cy="-18" rx="37.89" ry="18"/>
<text text-anchor="middle" x="635.34" y="-14.3" font-family="Times New Roman,serif" font-size="14.00">lecturer</text>
</a>
</g>
</g>
<!-- 0&#45;&gt;4 -->
<g id="edge5" class="edge">
<title>0&#45;&gt;4</title>
<path fill="none" stroke="black" d="M767.63,-88.41C739.69,-73.75 697.91,-51.83 668.81,-36.56"/>
<polygon fill="black" stroke="black" points="670.32,-33.4 659.84,-31.85 667.07,-39.6 670.32,-33.4"/>
<text text-anchor="middle" x="741.84" y="-57.8" font-family="Times New Roman,serif" font-size="14.00">0.081</text>
</g>
<!-- 5 -->
<g id="node6" class="node">
<title>5</title>
<g id="a_node6"><a xlink:href="from_insurance claims inspector.svg" xlink:title="insurance claims inspector">
<ellipse fill="none" stroke="black" cx="797.34" cy="-18" rx="106.68" ry="18"/>
<text text-anchor="middle" x="797.34" y="-14.3" font-family="Times New Roman,serif" font-size="14.00">insurance claims inspector</text>
</a>
</g>
</g>
<!-- 0&#45;&gt;5 -->
<g id="edge6" class="edge">
<title>0&#45;&gt;5</title>
<path fill="none" stroke="black" d="M797.34,-86.8C797.34,-75.16 797.34,-59.55 797.34,-46.24"/>
<polygon fill="black" stroke="black" points="800.84,-46.18 797.34,-36.18 793.84,-46.18 800.84,-46.18"/>
<text text-anchor="middle" x="812.84" y="-57.8" font-family="Times New Roman,serif" font-size="14.00">0.054</text>
</g>
<!-- 6 -->
<g id="node7" class="node">
<title>6</title>
<g id="a_node7"><a xlink:href="from_physiotherapist.svg" xlink:title="physiotherapist">
<ellipse fill="none" stroke="black" cx="987.34" cy="-18" rx="65.79" ry="18"/>
<text text-anchor="middle" x="987.34" y="-14.3" font-family="Times New Roman,serif" font-size="14.00">physiotherapist</text>
</a>
</g>
</g>
<!-- 0&#45;&gt;6 -->
<g id="edge7" class="edge">
<title>0&#45;&gt;6</title>
<path fill="none" stroke="black" d="M831.31,-88.8C863.22,-74.53 911.05,-53.13 945.33,-37.79"/>
<polygon fill="black" stroke="black" points="946.92,-40.92 954.62,-33.64 944.06,-34.53 946.92,-40.92"/>
<text text-anchor="middle" x="919.84" y="-57.8" font-family="Times New Roman,serif" font-size="14.00">0.054</text>
</g>
<!-- 7 -->
<g id="node8" class="node">
<title>7</title>
<g id="a_node8"><a xlink:href="from_project manager.svg" xlink:title="project manager">
<ellipse fill="none" stroke="black" cx="1140.34" cy="-18" rx="68.79" ry="18"/>
<text text-anchor="middle" x="1140.34" y="-14.3" font-family="Times New Roman,serif" font-size="14.00">project manager</text>
</a>
</g>
</g>
<!-- 0&#45;&gt;7 -->
<g id="edge8" class="edge">
<title>0&#45;&gt;7</title>
<path fill="none" stroke="black" d="M847.29,-91.72C874.51,-85.02 908.78,-76.57 939.34,-69 987.61,-57.05 1042.38,-43.42 1082.54,-33.41"/>
<polygon fill="black" stroke="black" points="1083.57,-36.76 1092.43,-30.95 1081.88,-29.97 1083.57,-36.76"/>
<text text-anchor="middle" x="1010.84" y="-57.8" font-family="Times New Roman,serif" font-size="14.00">0.054</text>
</g>
<!-- 8 -->
<g id="node9" class="node">
<title>8</title>
<g id="a_node9"><a xlink:href="from_research scientist.svg" xlink:title="research scientist">
<ellipse fill="none" stroke="black" cx="1300.34" cy="-18" rx="72.59" ry="18"/>
<text text-anchor="middle" x="1300.34" y="-14.3" font-family="Times New Roman,serif" font-size="14.00">research scientist</text>
</a>
</g>
</g>
<!-- 0&#45;&gt;8 -->
<g id="edge9" class="edge">
<title>0&#45;&gt;8</title>
<path fill="none" stroke="black" d="M859.22,-95.13C906.21,-88.29 972.41,-78.43 1030.34,-69 1114.07,-55.36 1135.02,-51.95 1218.34,-36 1224.43,-34.83 1230.77,-33.59 1237.11,-32.31"/>
<polygon fill="black" stroke="black" points="1237.91,-35.72 1247.02,-30.3 1236.52,-28.86 1237.91,-35.72"/>
<text text-anchor="middle" x="1133.84" y="-57.8" font-family="Times New Roman,serif" font-size="14.00">0.054</text>
</g>
<!-- 9 -->
<g id="node10" class="node">
<title>9</title>
<g id="a_node10"><a xlink:href="from_academic librarian.svg" xlink:title="academic librarian">
<ellipse fill="none" stroke="black" cx="1467.34" cy="-18" rx="76.09" ry="18"/>
<text text-anchor="middle" x="1467.34" y="-14.3" font-family="Times New Roman,serif" font-size="14.00">academic librarian</text>
</a>
</g>
</g>
<!-- 0&#45;&gt;9 -->
<g id="edge10" class="edge">
<title>0&#45;&gt;9</title>
<path fill="none" stroke="black" d="M865.69,-98.2C937.43,-91.9 1053.47,-81.1 1153.34,-69 1255.43,-56.63 1281,-53.42 1382.34,-36 1388.67,-34.91 1395.25,-33.72 1401.82,-32.48"/>
<polygon fill="black" stroke="black" points="1402.94,-35.82 1412.1,-30.5 1401.62,-28.95 1402.94,-35.82"/>
<text text-anchor="middle" x="1283.84" y="-57.8" font-family="Times New Roman,serif" font-size="14.00">0.027</text>
</g>
</g>
</svg>
