<?xml version="1.0" encoding="UTF-8" standalone="no"?>
<!DOCTYPE svg PUBLIC "-//W3C//DTD SVG 1.1//EN"
 "http://www.w3.org/Graphics/SVG/1.1/DTD/svg11.dtd">
<!-- Generated by graphviz version 2.44.1 (20200629.0800)
 -->
<!-- Title: product_development_scientist Pages: 1 -->
<svg width="1531pt" height="131pt"
 viewBox="0.00 0.00 1531.39 131.00" xmlns="http://www.w3.org/2000/svg" xmlns:xlink="http://www.w3.org/1999/xlink">
<g id="graph0" class="graph" transform="scale(1 1) rotate(0) translate(4 127)">
<title>product_development_scientist</title>
<polygon fill="white" stroke="transparent" points="-4,4 -4,-127 1527.39,-127 1527.39,4 -4,4"/>
<!-- 0 -->
<g id="node1" class="node">
<title>0</title>
<g id="a_node1"><a xlink:href="from_product development scientist.svg" xlink:title="product development scientist">
<ellipse fill="none" stroke="black" cx="744.19" cy="-105" rx="120.48" ry="18"/>
<text text-anchor="middle" x="744.19" y="-101.3" font-family="Times New Roman,serif" font-size="14.00">product development scientist</text>
</a>
</g>
</g>
<!-- 0&#45;&gt;0 -->
<g id="edge1" class="edge">
<title>0&#45;&gt;0</title>
<path fill="none" stroke="black" d="M854.55,-112.16C871.17,-111.06 882.43,-108.67 882.43,-105 882.43,-102.13 875.56,-100.05 864.62,-98.75"/>
<polygon fill="black" stroke="black" points="864.82,-95.25 854.55,-97.84 864.19,-102.22 864.82,-95.25"/>
<text text-anchor="middle" x="897.93" y="-101.3" font-family="Times New Roman,serif" font-size="14.00">0.084</text>
</g>
<!-- 1 -->
<g id="node2" class="node">
<title>1</title>
<g id="a_node2"><a xlink:href="from_production manager.svg" xlink:title="production manager">
<ellipse fill="none" stroke="black" cx="83.19" cy="-18" rx="83.39" ry="18"/>
<text text-anchor="middle" x="83.19" y="-14.3" font-family="Times New Roman,serif" font-size="14.00">production manager</text>
</a>
</g>
</g>
<!-- 0&#45;&gt;1 -->
<g id="edge2" class="edge">
<title>0&#45;&gt;1</title>
<path fill="none" stroke="black" d="M644.17,-94.91C575.92,-88.42 483.49,-79.09 402.19,-69 301.46,-56.5 276.36,-52.46 176.19,-36 168.87,-34.8 161.24,-33.49 153.63,-32.15"/>
<polygon fill="black" stroke="black" points="154.13,-28.68 143.67,-30.38 152.9,-35.58 154.13,-28.68"/>
<text text-anchor="middle" x="417.69" y="-57.8" font-family="Times New Roman,serif" font-size="14.00">0.061</text>
</g>
<!-- 2 -->
<g id="node3" class="node">
<title>2</title>
<g id="a_node3"><a xlink:href="from_heritage manager.svg" xlink:title="heritage manager">
<ellipse fill="none" stroke="black" cx="256.19" cy="-18" rx="71.49" ry="18"/>
<text text-anchor="middle" x="256.19" y="-14.3" font-family="Times New Roman,serif" font-size="14.00">heritage manager</text>
</a>
</g>
</g>
<!-- 0&#45;&gt;2 -->
<g id="edge3" class="edge">
<title>0&#45;&gt;2</title>
<path fill="none" stroke="black" d="M662.69,-91.69C580.17,-78.93 449,-57.83 336.19,-36 330.48,-34.89 324.54,-33.71 318.6,-32.49"/>
<polygon fill="black" stroke="black" points="319.14,-29.03 308.64,-30.43 317.72,-35.88 319.14,-29.03"/>
<text text-anchor="middle" x="530.69" y="-57.8" font-family="Times New Roman,serif" font-size="14.00">0.053</text>
</g>
<!-- 3 -->
<g id="node4" class="node">
<title>3</title>
<g id="a_node4"><a xlink:href="from_project manager.svg" xlink:title="project manager">
<ellipse fill="none" stroke="black" cx="414.19" cy="-18" rx="68.79" ry="18"/>
<text text-anchor="middle" x="414.19" y="-14.3" font-family="Times New Roman,serif" font-size="14.00">project manager</text>
</a>
</g>
</g>
<!-- 0&#45;&gt;3 -->
<g id="edge4" class="edge">
<title>0&#45;&gt;3</title>
<path fill="none" stroke="black" d="M686.33,-89.1C625.84,-73.51 531.48,-49.21 471.28,-33.7"/>
<polygon fill="black" stroke="black" points="472.11,-30.3 461.55,-31.2 470.36,-37.08 472.11,-30.3"/>
<text text-anchor="middle" x="614.69" y="-57.8" font-family="Times New Roman,serif" font-size="14.00">0.053</text>
</g>
<!-- 4 -->
<g id="node5" class="node">
<title>4</title>
<g id="a_node5"><a xlink:href="from_marketing executive.svg" xlink:title="marketing executive">
<ellipse fill="none" stroke="black" cx="583.19" cy="-18" rx="81.79" ry="18"/>
<text text-anchor="middle" x="583.19" y="-14.3" font-family="Times New Roman,serif" font-size="14.00">marketing executive</text>
</a>
</g>
</g>
<!-- 0&#45;&gt;4 -->
<g id="edge5" class="edge">
<title>0&#45;&gt;4</title>
<path fill="none" stroke="black" d="M712.77,-87.41C686.87,-73.74 650.01,-54.28 622.22,-39.61"/>
<polygon fill="black" stroke="black" points="623.65,-36.4 613.18,-34.83 620.39,-42.59 623.65,-36.4"/>
<text text-anchor="middle" x="689.69" y="-57.8" font-family="Times New Roman,serif" font-size="14.00">0.046</text>
</g>
<!-- 5 -->
<g id="node6" class="node">
<title>5</title>
<g id="a_node6"><a xlink:href="from_sales manager.svg" xlink:title="sales manager">
<ellipse fill="none" stroke="black" cx="744.19" cy="-18" rx="61.19" ry="18"/>
<text text-anchor="middle" x="744.19" y="-14.3" font-family="Times New Roman,serif" font-size="14.00">sales manager</text>
</a>
</g>
</g>
<!-- 0&#45;&gt;5 -->
<g id="edge6" class="edge">
<title>0&#45;&gt;5</title>
<path fill="none" stroke="black" d="M744.19,-86.8C744.19,-75.16 744.19,-59.55 744.19,-46.24"/>
<polygon fill="black" stroke="black" points="747.69,-46.18 744.19,-36.18 740.69,-46.18 747.69,-46.18"/>
<text text-anchor="middle" x="759.69" y="-57.8" font-family="Times New Roman,serif" font-size="14.00">0.046</text>
</g>
<!-- 6 -->
<g id="node7" class="node">
<title>6</title>
<g id="a_node7"><a xlink:href="from_pharmacovigilance officer.svg" xlink:title="pharmacovigilance officer">
<ellipse fill="none" stroke="black" cx="928.19" cy="-18" rx="104.78" ry="18"/>
<text text-anchor="middle" x="928.19" y="-14.3" font-family="Times New Roman,serif" font-size="14.00">pharmacovigilance officer</text>
</a>
</g>
</g>
<!-- 0&#45;&gt;6 -->
<g id="edge7" class="edge">
<title>0&#45;&gt;6</title>
<path fill="none" stroke="black" d="M779.67,-87.61C809.51,-73.82 852.32,-54.05 884.31,-39.27"/>
<polygon fill="black" stroke="black" points="885.84,-42.42 893.45,-35.05 882.9,-36.07 885.84,-42.42"/>
<text text-anchor="middle" x="863.69" y="-57.8" font-family="Times New Roman,serif" font-size="14.00">0.038</text>
</g>
<!-- 7 -->
<g id="node8" class="node">
<title>7</title>
<g id="a_node8"><a xlink:href="from_software developer.svg" xlink:title="software developer">
<ellipse fill="none" stroke="black" cx="1131.19" cy="-18" rx="79.89" ry="18"/>
<text text-anchor="middle" x="1131.19" y="-14.3" font-family="Times New Roman,serif" font-size="14.00">software developer</text>
</a>
</g>
</g>
<!-- 0&#45;&gt;7 -->
<g id="edge8" class="edge">
<title>0&#45;&gt;7</title>
<path fill="none" stroke="black" d="M808.97,-89.77C880.38,-74.09 994.61,-49 1066.13,-33.29"/>
<polygon fill="black" stroke="black" points="1066.92,-36.7 1075.94,-31.14 1065.42,-29.86 1066.92,-36.7"/>
<text text-anchor="middle" x="976.69" y="-57.8" font-family="Times New Roman,serif" font-size="14.00">0.038</text>
</g>
<!-- 8 -->
<g id="node9" class="node">
<title>8</title>
<g id="a_node9"><a xlink:href="from_it consultant.svg" xlink:title="it consultant">
<ellipse fill="none" stroke="black" cx="1284.19" cy="-18" rx="54.69" ry="18"/>
<text text-anchor="middle" x="1284.19" y="-14.3" font-family="Times New Roman,serif" font-size="14.00">it consultant</text>
</a>
</g>
</g>
<!-- 0&#45;&gt;8 -->
<g id="edge9" class="edge">
<title>0&#45;&gt;8</title>
<path fill="none" stroke="black" d="M839.16,-93.89C935.66,-82.82 1089.16,-62.96 1220.19,-36 1224.81,-35.05 1229.58,-33.97 1234.35,-32.82"/>
<polygon fill="black" stroke="black" points="1235.21,-36.22 1244.07,-30.4 1233.52,-29.42 1235.21,-36.22"/>
<text text-anchor="middle" x="1132.69" y="-57.8" font-family="Times New Roman,serif" font-size="14.00">0.030</text>
</g>
<!-- 9 -->
<g id="node10" class="node">
<title>9</title>
<g id="a_node10"><a xlink:href="from_mechanical engineer.svg" xlink:title="mechanical engineer">
<ellipse fill="none" stroke="black" cx="1440.19" cy="-18" rx="83.39" ry="18"/>
<text text-anchor="middle" x="1440.19" y="-14.3" font-family="Times New Roman,serif" font-size="14.00">mechanical engineer</text>
</a>
</g>
</g>
<!-- 0&#45;&gt;9 -->
<g id="edge10" class="edge">
<title>0&#45;&gt;9</title>
<path fill="none" stroke="black" d="M852.68,-97.1C935.04,-91.28 1050.98,-81.84 1152.19,-69 1239.83,-57.88 1261.2,-51.36 1348.19,-36 1354.96,-34.8 1362.01,-33.54 1369.06,-32.26"/>
<polygon fill="black" stroke="black" points="1370.14,-35.62 1379.35,-30.38 1368.88,-28.74 1370.14,-35.62"/>
<text text-anchor="middle" x="1266.69" y="-57.8" font-family="Times New Roman,serif" font-size="14.00">0.030</text>
</g>
</g>
</svg>
