<?xml version="1.0" encoding="UTF-8" standalone="no"?>
<!DOCTYPE svg PUBLIC "-//W3C//DTD SVG 1.1//EN"
 "http://www.w3.org/Graphics/SVG/1.1/DTD/svg11.dtd">
<!-- Generated by graphviz version 2.44.1 (20200629.0800)
 -->
<!-- Title: trading_standards_officer Pages: 1 -->
<svg width="1815pt" height="131pt"
 viewBox="0.00 0.00 1815.38 131.00" xmlns="http://www.w3.org/2000/svg" xmlns:xlink="http://www.w3.org/1999/xlink">
<g id="graph0" class="graph" transform="scale(1 1) rotate(0) translate(4 127)">
<title>trading_standards_officer</title>
<polygon fill="white" stroke="transparent" points="-4,4 -4,-127 1811.38,-127 1811.38,4 -4,4"/>
<!-- 0 -->
<g id="node1" class="node">
<title>0</title>
<g id="a_node1"><a xlink:href="from_trading standards officer.svg" xlink:title="trading standards officer">
<ellipse fill="none" stroke="black" cx="851.69" cy="-105" rx="99.38" ry="18"/>
<text text-anchor="middle" x="851.69" y="-101.3" font-family="Times New Roman,serif" font-size="14.00">trading standards officer</text>
</a>
</g>
</g>
<!-- 1 -->
<g id="node2" class="node">
<title>1</title>
<g id="a_node2"><a xlink:href="from_investment analyst.svg" xlink:title="investment analyst">
<ellipse fill="none" stroke="black" cx="76.69" cy="-18" rx="76.89" ry="18"/>
<text text-anchor="middle" x="76.69" y="-14.3" font-family="Times New Roman,serif" font-size="14.00">investment analyst</text>
</a>
</g>
</g>
<!-- 0&#45;&gt;1 -->
<g id="edge1" class="edge">
<title>0&#45;&gt;1</title>
<path fill="none" stroke="black" d="M758.26,-98.75C625.13,-90.38 373.5,-71.23 161.69,-36 155.36,-34.95 148.78,-33.77 142.21,-32.55"/>
<polygon fill="black" stroke="black" points="142.4,-29.02 131.92,-30.59 141.09,-35.9 142.4,-29.02"/>
<text text-anchor="middle" x="423.19" y="-57.8" font-family="Times New Roman,serif" font-size="14.00">0.083</text>
</g>
<!-- 2 -->
<g id="node3" class="node">
<title>2</title>
<g id="a_node3"><a xlink:href="from_pharmacovigilance officer.svg" xlink:title="pharmacovigilance officer">
<ellipse fill="none" stroke="black" cx="275.69" cy="-18" rx="104.78" ry="18"/>
<text text-anchor="middle" x="275.69" y="-14.3" font-family="Times New Roman,serif" font-size="14.00">pharmacovigilance officer</text>
</a>
</g>
</g>
<!-- 0&#45;&gt;2 -->
<g id="edge2" class="edge">
<title>0&#45;&gt;2</title>
<path fill="none" stroke="black" d="M763.41,-96.58C698.11,-90.58 607.11,-81.14 527.69,-69 466.21,-59.6 396.93,-45.6 346.6,-34.81"/>
<polygon fill="black" stroke="black" points="347.3,-31.38 336.79,-32.69 345.83,-38.22 347.3,-31.38"/>
<text text-anchor="middle" x="543.19" y="-57.8" font-family="Times New Roman,serif" font-size="14.00">0.083</text>
</g>
<!-- 3 -->
<g id="node4" class="node">
<title>3</title>
<g id="a_node4"><a xlink:href="from_lecturer.svg" xlink:title="lecturer">
<ellipse fill="none" stroke="black" cx="435.69" cy="-18" rx="37.89" ry="18"/>
<text text-anchor="middle" x="435.69" y="-14.3" font-family="Times New Roman,serif" font-size="14.00">lecturer</text>
</a>
</g>
</g>
<!-- 0&#45;&gt;3 -->
<g id="edge3" class="edge">
<title>0&#45;&gt;3</title>
<path fill="none" stroke="black" d="M774.54,-93.57C699.31,-82.52 582.03,-62.93 482.69,-36 479.69,-35.19 476.61,-34.27 473.53,-33.29"/>
<polygon fill="black" stroke="black" points="474.38,-29.88 463.78,-30.01 472.15,-36.52 474.38,-29.88"/>
<text text-anchor="middle" x="639.19" y="-57.8" font-family="Times New Roman,serif" font-size="14.00">0.055</text>
</g>
<!-- 4 -->
<g id="node5" class="node">
<title>4</title>
<g id="a_node5"><a xlink:href="from_production manager.svg" xlink:title="production manager">
<ellipse fill="none" stroke="black" cx="574.69" cy="-18" rx="83.39" ry="18"/>
<text text-anchor="middle" x="574.69" y="-14.3" font-family="Times New Roman,serif" font-size="14.00">production manager</text>
</a>
</g>
</g>
<!-- 0&#45;&gt;4 -->
<g id="edge4" class="edge">
<title>0&#45;&gt;4</title>
<path fill="none" stroke="black" d="M803.44,-89.19C755.2,-74.39 681.07,-51.64 630.37,-36.08"/>
<polygon fill="black" stroke="black" points="631.14,-32.66 620.55,-33.07 629.08,-39.35 631.14,-32.66"/>
<text text-anchor="middle" x="746.19" y="-57.8" font-family="Times New Roman,serif" font-size="14.00">0.055</text>
</g>
<!-- 5 -->
<g id="node6" class="node">
<title>5</title>
<g id="a_node6"><a xlink:href="from_agricultural consultant.svg" xlink:title="agricultural consultant">
<ellipse fill="none" stroke="black" cx="765.69" cy="-18" rx="89.88" ry="18"/>
<text text-anchor="middle" x="765.69" y="-14.3" font-family="Times New Roman,serif" font-size="14.00">agricultural consultant</text>
</a>
</g>
</g>
<!-- 0&#45;&gt;5 -->
<g id="edge5" class="edge">
<title>0&#45;&gt;5</title>
<path fill="none" stroke="black" d="M834.7,-87.21C821.86,-74.52 804.07,-56.93 789.77,-42.79"/>
<polygon fill="black" stroke="black" points="792.22,-40.3 782.65,-35.76 787.3,-45.28 792.22,-40.3"/>
<text text-anchor="middle" x="830.19" y="-57.8" font-family="Times New Roman,serif" font-size="14.00">0.027</text>
</g>
<!-- 6 -->
<g id="node7" class="node">
<title>6</title>
<g id="a_node7"><a xlink:href="from_careers adviser.svg" xlink:title="careers adviser">
<ellipse fill="none" stroke="black" cx="938.69" cy="-18" rx="64.99" ry="18"/>
<text text-anchor="middle" x="938.69" y="-14.3" font-family="Times New Roman,serif" font-size="14.00">careers adviser</text>
</a>
</g>
</g>
<!-- 0&#45;&gt;6 -->
<g id="edge6" class="edge">
<title>0&#45;&gt;6</title>
<path fill="none" stroke="black" d="M868.88,-87.21C881.95,-74.43 900.11,-56.7 914.62,-42.52"/>
<polygon fill="black" stroke="black" points="917.13,-44.96 921.84,-35.47 912.24,-39.95 917.13,-44.96"/>
<text text-anchor="middle" x="916.19" y="-57.8" font-family="Times New Roman,serif" font-size="14.00">0.027</text>
</g>
<!-- 7 -->
<g id="node8" class="node">
<title>7</title>
<g id="a_node8"><a xlink:href="from_catering manager.svg" xlink:title="catering manager">
<ellipse fill="none" stroke="black" cx="1092.69" cy="-18" rx="71.49" ry="18"/>
<text text-anchor="middle" x="1092.69" y="-14.3" font-family="Times New Roman,serif" font-size="14.00">catering manager</text>
</a>
</g>
</g>
<!-- 0&#45;&gt;7 -->
<g id="edge7" class="edge">
<title>0&#45;&gt;7</title>
<path fill="none" stroke="black" d="M895.06,-88.71C936.76,-74 999.73,-51.79 1043.33,-36.41"/>
<polygon fill="black" stroke="black" points="1044.61,-39.67 1052.88,-33.04 1042.28,-33.07 1044.61,-39.67"/>
<text text-anchor="middle" x="1002.19" y="-57.8" font-family="Times New Roman,serif" font-size="14.00">0.027</text>
</g>
<!-- 8 -->
<g id="node9" class="node">
<title>8</title>
<g id="a_node9"><a xlink:href="from_chemical engineer.svg" xlink:title="chemical engineer">
<ellipse fill="none" stroke="black" cx="1256.69" cy="-18" rx="74.99" ry="18"/>
<text text-anchor="middle" x="1256.69" y="-14.3" font-family="Times New Roman,serif" font-size="14.00">chemical engineer</text>
</a>
</g>
</g>
<!-- 0&#45;&gt;8 -->
<g id="edge8" class="edge">
<title>0&#45;&gt;8</title>
<path fill="none" stroke="black" d="M915.09,-91.05C947.06,-84.49 986.45,-76.38 1021.69,-69 1079.63,-56.87 1145.54,-42.83 1192.79,-32.72"/>
<polygon fill="black" stroke="black" points="1193.53,-36.14 1202.58,-30.62 1192.07,-29.29 1193.53,-36.14"/>
<text text-anchor="middle" x="1109.19" y="-57.8" font-family="Times New Roman,serif" font-size="14.00">0.027</text>
</g>
<!-- 9 -->
<g id="node10" class="node">
<title>9</title>
<g id="a_node10"><a xlink:href="from_commodity broker.svg" xlink:title="commodity broker">
<ellipse fill="none" stroke="black" cx="1427.69" cy="-18" rx="78.79" ry="18"/>
<text text-anchor="middle" x="1427.69" y="-14.3" font-family="Times New Roman,serif" font-size="14.00">commodity broker</text>
</a>
</g>
</g>
<!-- 0&#45;&gt;9 -->
<g id="edge9" class="edge">
<title>0&#45;&gt;9</title>
<path fill="none" stroke="black" d="M932.38,-94.43C987.68,-87.71 1062.7,-78.3 1128.69,-69 1223.12,-55.69 1246.77,-52.48 1340.69,-36 1347.21,-34.86 1353.99,-33.62 1360.77,-32.35"/>
<polygon fill="black" stroke="black" points="1361.49,-35.77 1370.66,-30.47 1360.18,-28.9 1361.49,-35.77"/>
<text text-anchor="middle" x="1247.19" y="-57.8" font-family="Times New Roman,serif" font-size="14.00">0.027</text>
</g>
<!-- 10 -->
<g id="node11" class="node">
<title>10</title>
<g id="a_node11"><a xlink:href="from_control and instrumentation engineer.svg" xlink:title="control and instrumentation engineer">
<ellipse fill="none" stroke="black" cx="1665.69" cy="-18" rx="141.88" ry="18"/>
<text text-anchor="middle" x="1665.69" y="-14.3" font-family="Times New Roman,serif" font-size="14.00">control and instrumentation engineer</text>
</a>
</g>
</g>
<!-- 0&#45;&gt;10 -->
<g id="edge10" class="edge">
<title>0&#45;&gt;10</title>
<path fill="none" stroke="black" d="M942.06,-97.44C1026.19,-91.08 1155.05,-80.7 1266.69,-69 1367.57,-58.43 1482.46,-43.75 1562.96,-33.04"/>
<polygon fill="black" stroke="black" points="1563.65,-36.47 1573.1,-31.68 1562.72,-29.54 1563.65,-36.47"/>
<text text-anchor="middle" x="1403.19" y="-57.8" font-family="Times New Roman,serif" font-size="14.00">0.027</text>
</g>
</g>
</svg>
