<?xml version="1.0" encoding="UTF-8" standalone="no"?>
<!DOCTYPE svg PUBLIC "-//W3C//DTD SVG 1.1//EN"
 "http://www.w3.org/Graphics/SVG/1.1/DTD/svg11.dtd">
<!-- Generated by graphviz version 2.44.1 (20200629.0800)
 -->
<!-- Title: technical_author Pages: 1 -->
<svg width="1401pt" height="131pt"
 viewBox="0.00 0.00 1400.94 131.00" xmlns="http://www.w3.org/2000/svg" xmlns:xlink="http://www.w3.org/1999/xlink">
<g id="graph0" class="graph" transform="scale(1 1) rotate(0) translate(4 127)">
<title>technical_author</title>
<polygon fill="white" stroke="transparent" points="-4,4 -4,-127 1396.94,-127 1396.94,4 -4,4"/>
<!-- 0 -->
<g id="node1" class="node">
<title>0</title>
<g id="a_node1"><a xlink:href="from_technical author.svg" xlink:title="technical author">
<ellipse fill="none" stroke="black" cx="771.94" cy="-105" rx="67.69" ry="18"/>
<text text-anchor="middle" x="771.94" y="-101.3" font-family="Times New Roman,serif" font-size="14.00">technical author</text>
</a>
</g>
</g>
<!-- 0&#45;&gt;0 -->
<g id="edge2" class="edge">
<title>0&#45;&gt;0</title>
<path fill="none" stroke="black" d="M833.11,-112.7C847.19,-112.04 857.54,-109.47 857.54,-105 857.54,-101.68 851.84,-99.41 843.14,-98.19"/>
<polygon fill="black" stroke="black" points="843.38,-94.7 833.11,-97.3 842.76,-101.67 843.38,-94.7"/>
<text text-anchor="middle" x="873.04" y="-101.3" font-family="Times New Roman,serif" font-size="14.00">0.128</text>
</g>
<!-- 1 -->
<g id="node2" class="node">
<title>1</title>
<g id="a_node2"><a xlink:href="from_software developer.svg" xlink:title="software developer">
<ellipse fill="none" stroke="black" cx="79.94" cy="-18" rx="79.89" ry="18"/>
<text text-anchor="middle" x="79.94" y="-14.3" font-family="Times New Roman,serif" font-size="14.00">software developer</text>
</a>
</g>
</g>
<!-- 0&#45;&gt;1 -->
<g id="edge1" class="edge">
<title>0&#45;&gt;1</title>
<path fill="none" stroke="black" d="M706.92,-100.04C626.43,-94.76 485.25,-84.28 364.94,-69 277.31,-57.87 255.89,-51.62 168.94,-36 162.29,-34.8 155.35,-33.53 148.43,-32.24"/>
<polygon fill="black" stroke="black" points="148.79,-28.75 138.32,-30.34 147.5,-35.62 148.79,-28.75"/>
<text text-anchor="middle" x="380.44" y="-57.8" font-family="Times New Roman,serif" font-size="14.00">0.134</text>
</g>
<!-- 2 -->
<g id="node3" class="node">
<title>2</title>
<g id="a_node3"><a xlink:href="from_it consultant.svg" xlink:title="it consultant">
<ellipse fill="none" stroke="black" cx="232.94" cy="-18" rx="54.69" ry="18"/>
<text text-anchor="middle" x="232.94" y="-14.3" font-family="Times New Roman,serif" font-size="14.00">it consultant</text>
</a>
</g>
</g>
<!-- 0&#45;&gt;2 -->
<g id="edge3" class="edge">
<title>0&#45;&gt;2</title>
<path fill="none" stroke="black" d="M709.85,-97.86C618.53,-88.22 442.9,-67.34 295.94,-36 291.59,-35.07 287.08,-34.03 282.58,-32.92"/>
<polygon fill="black" stroke="black" points="283.33,-29.5 272.78,-30.44 281.61,-36.29 283.33,-29.5"/>
<text text-anchor="middle" x="494.44" y="-57.8" font-family="Times New Roman,serif" font-size="14.00">0.089</text>
</g>
<!-- 3 -->
<g id="node4" class="node">
<title>3</title>
<g id="a_node4"><a xlink:href="from_project manager.svg" xlink:title="project manager">
<ellipse fill="none" stroke="black" cx="373.94" cy="-18" rx="68.79" ry="18"/>
<text text-anchor="middle" x="373.94" y="-14.3" font-family="Times New Roman,serif" font-size="14.00">project manager</text>
</a>
</g>
</g>
<!-- 0&#45;&gt;3 -->
<g id="edge4" class="edge">
<title>0&#45;&gt;3</title>
<path fill="none" stroke="black" d="M720.66,-93.19C657.45,-79.84 546.75,-56.4 451.94,-36 446.52,-34.83 440.89,-33.62 435.25,-32.39"/>
<polygon fill="black" stroke="black" points="435.64,-28.9 425.12,-30.19 434.15,-35.74 435.64,-28.9"/>
<text text-anchor="middle" x="616.44" y="-57.8" font-family="Times New Roman,serif" font-size="14.00">0.083</text>
</g>
<!-- 4 -->
<g id="node5" class="node">
<title>4</title>
<g id="a_node5"><a xlink:href="from_pharmacovigilance officer.svg" xlink:title="pharmacovigilance officer">
<ellipse fill="none" stroke="black" cx="565.94" cy="-18" rx="104.78" ry="18"/>
<text text-anchor="middle" x="565.94" y="-14.3" font-family="Times New Roman,serif" font-size="14.00">pharmacovigilance officer</text>
</a>
</g>
</g>
<!-- 0&#45;&gt;4 -->
<g id="edge5" class="edge">
<title>0&#45;&gt;4</title>
<path fill="none" stroke="black" d="M737,-89.58C703.03,-75.56 651.18,-54.17 613.48,-38.61"/>
<polygon fill="black" stroke="black" points="614.79,-35.37 604.21,-34.79 612.12,-41.84 614.79,-35.37"/>
<text text-anchor="middle" x="697.44" y="-57.8" font-family="Times New Roman,serif" font-size="14.00">0.044</text>
</g>
<!-- 5 -->
<g id="node6" class="node">
<title>5</title>
<g id="a_node6"><a xlink:href="from_production manager.svg" xlink:title="production manager">
<ellipse fill="none" stroke="black" cx="771.94" cy="-18" rx="83.39" ry="18"/>
<text text-anchor="middle" x="771.94" y="-14.3" font-family="Times New Roman,serif" font-size="14.00">production manager</text>
</a>
</g>
</g>
<!-- 0&#45;&gt;5 -->
<g id="edge6" class="edge">
<title>0&#45;&gt;5</title>
<path fill="none" stroke="black" d="M771.94,-86.8C771.94,-75.16 771.94,-59.55 771.94,-46.24"/>
<polygon fill="black" stroke="black" points="775.44,-46.18 771.94,-36.18 768.44,-46.18 775.44,-46.18"/>
<text text-anchor="middle" x="787.44" y="-57.8" font-family="Times New Roman,serif" font-size="14.00">0.044</text>
</g>
<!-- 6 -->
<g id="node7" class="node">
<title>6</title>
<g id="a_node7"><a xlink:href="from_software architect.svg" xlink:title="software architect">
<ellipse fill="none" stroke="black" cx="948.94" cy="-18" rx="75.29" ry="18"/>
<text text-anchor="middle" x="948.94" y="-14.3" font-family="Times New Roman,serif" font-size="14.00">software architect</text>
</a>
</g>
</g>
<!-- 0&#45;&gt;6 -->
<g id="edge7" class="edge">
<title>0&#45;&gt;6</title>
<path fill="none" stroke="black" d="M803.18,-89C832.27,-75.03 875.81,-54.12 907.74,-38.79"/>
<polygon fill="black" stroke="black" points="909.32,-41.91 916.82,-34.42 906.29,-35.6 909.32,-41.91"/>
<text text-anchor="middle" x="887.44" y="-57.8" font-family="Times New Roman,serif" font-size="14.00">0.038</text>
</g>
<!-- 7 -->
<g id="node8" class="node">
<title>7</title>
<g id="a_node8"><a xlink:href="from_architect.svg" xlink:title="architect">
<ellipse fill="none" stroke="black" cx="1083.94" cy="-18" rx="41.69" ry="18"/>
<text text-anchor="middle" x="1083.94" y="-14.3" font-family="Times New Roman,serif" font-size="14.00">architect</text>
</a>
</g>
</g>
<!-- 0&#45;&gt;7 -->
<g id="edge8" class="edge">
<title>0&#45;&gt;7</title>
<path fill="none" stroke="black" d="M820.8,-92.33C873.45,-79.5 959.56,-57.82 1032.94,-36 1036.12,-35.06 1039.39,-34.05 1042.68,-33.01"/>
<polygon fill="black" stroke="black" points="1044.05,-36.25 1052.49,-29.84 1041.9,-29.58 1044.05,-36.25"/>
<text text-anchor="middle" x="984.44" y="-57.8" font-family="Times New Roman,serif" font-size="14.00">0.025</text>
</g>
<!-- 8 -->
<g id="node9" class="node">
<title>8</title>
<g id="a_node9"><a xlink:href="from_lecturer.svg" xlink:title="lecturer">
<ellipse fill="none" stroke="black" cx="1180.94" cy="-18" rx="37.89" ry="18"/>
<text text-anchor="middle" x="1180.94" y="-14.3" font-family="Times New Roman,serif" font-size="14.00">lecturer</text>
</a>
</g>
</g>
<!-- 0&#45;&gt;8 -->
<g id="edge9" class="edge">
<title>0&#45;&gt;8</title>
<path fill="none" stroke="black" d="M831.82,-96.59C878.84,-90.38 945.84,-80.67 1003.94,-69 1062.81,-57.17 1077.59,-53.77 1134.94,-36 1137.52,-35.2 1140.17,-34.34 1142.83,-33.44"/>
<polygon fill="black" stroke="black" points="1144.12,-36.7 1152.4,-30.09 1141.8,-30.09 1144.12,-36.7"/>
<text text-anchor="middle" x="1088.44" y="-57.8" font-family="Times New Roman,serif" font-size="14.00">0.025</text>
</g>
<!-- 9 -->
<g id="node10" class="node">
<title>9</title>
<g id="a_node10"><a xlink:href="from_materials specialist.svg" xlink:title="materials specialist">
<ellipse fill="none" stroke="black" cx="1314.94" cy="-18" rx="77.99" ry="18"/>
<text text-anchor="middle" x="1314.94" y="-14.3" font-family="Times New Roman,serif" font-size="14.00">materials specialist</text>
</a>
</g>
</g>
<!-- 0&#45;&gt;9 -->
<g id="edge10" class="edge">
<title>0&#45;&gt;9</title>
<path fill="none" stroke="black" d="M836.71,-99.83C904.63,-94.85 1014.31,-85.11 1107.94,-69 1159.11,-60.2 1216.42,-46.01 1257.75,-34.99"/>
<polygon fill="black" stroke="black" points="1258.88,-38.31 1267.63,-32.33 1257.07,-31.55 1258.88,-38.31"/>
<text text-anchor="middle" x="1192.44" y="-57.8" font-family="Times New Roman,serif" font-size="14.00">0.025</text>
</g>
</g>
</svg>
