<?xml version="1.0" encoding="UTF-8" standalone="no"?>
<!DOCTYPE svg PUBLIC "-//W3C//DTD SVG 1.1//EN"
 "http://www.w3.org/Graphics/SVG/1.1/DTD/svg11.dtd">
<!-- Generated by graphviz version 2.44.1 (20200629.0800)
 -->
<!-- Title: dietitian Pages: 1 -->
<svg width="1483pt" height="131pt"
 viewBox="0.00 0.00 1483.49 131.00" xmlns="http://www.w3.org/2000/svg" xmlns:xlink="http://www.w3.org/1999/xlink">
<g id="graph0" class="graph" transform="scale(1 1) rotate(0) translate(4 127)">
<title>dietitian</title>
<polygon fill="white" stroke="transparent" points="-4,4 -4,-127 1479.49,-127 1479.49,4 -4,4"/>
<!-- 0 -->
<g id="node1" class="node">
<title>0</title>
<g id="a_node1"><a xlink:href="from_dietitian.svg" xlink:title="dietitian">
<ellipse fill="none" stroke="black" cx="767.7" cy="-105" rx="38.19" ry="18"/>
<text text-anchor="middle" x="767.7" y="-101.3" font-family="Times New Roman,serif" font-size="14.00">dietitian</text>
</a>
</g>
</g>
<!-- 0&#45;&gt;0 -->
<g id="edge1" class="edge">
<title>0&#45;&gt;0</title>
<path fill="none" stroke="black" d="M802.36,-112.87C814.36,-112.96 824.04,-110.33 824.04,-105 824.04,-101.33 819.46,-98.95 812.71,-97.84"/>
<polygon fill="black" stroke="black" points="812.58,-94.33 802.36,-97.13 812.1,-101.31 812.58,-94.33"/>
<text text-anchor="middle" x="839.54" y="-101.3" font-family="Times New Roman,serif" font-size="14.00">1.409</text>
</g>
<!-- 1 -->
<g id="node2" class="node">
<title>1</title>
<g id="a_node2"><a xlink:href="from_lecturer.svg" xlink:title="lecturer">
<ellipse fill="none" stroke="black" cx="37.7" cy="-18" rx="37.89" ry="18"/>
<text text-anchor="middle" x="37.7" y="-14.3" font-family="Times New Roman,serif" font-size="14.00">lecturer</text>
</a>
</g>
</g>
<!-- 0&#45;&gt;1 -->
<g id="edge2" class="edge">
<title>0&#45;&gt;1</title>
<path fill="none" stroke="black" d="M729.29,-103.98C624.38,-103.11 324.76,-95.22 84.7,-36 81.68,-35.26 78.58,-34.39 75.49,-33.44"/>
<polygon fill="black" stroke="black" points="76.33,-30.03 65.73,-30.23 74.14,-36.68 76.33,-30.03"/>
<text text-anchor="middle" x="266.2" y="-57.8" font-family="Times New Roman,serif" font-size="14.00">0.227</text>
</g>
<!-- 2 -->
<g id="node3" class="node">
<title>2</title>
<g id="a_node3"><a xlink:href="from_catering manager.svg" xlink:title="catering manager">
<ellipse fill="none" stroke="black" cx="164.7" cy="-18" rx="71.49" ry="18"/>
<text text-anchor="middle" x="164.7" y="-14.3" font-family="Times New Roman,serif" font-size="14.00">catering manager</text>
</a>
</g>
</g>
<!-- 0&#45;&gt;2 -->
<g id="edge3" class="edge">
<title>0&#45;&gt;2</title>
<path fill="none" stroke="black" d="M730.5,-100.29C644.7,-91.49 426.41,-67.67 245.7,-36 239.57,-34.93 233.19,-33.73 226.83,-32.48"/>
<polygon fill="black" stroke="black" points="227.38,-29.02 216.88,-30.49 226,-35.88 227.38,-29.02"/>
<text text-anchor="middle" x="476.2" y="-57.8" font-family="Times New Roman,serif" font-size="14.00">0.045</text>
</g>
<!-- 3 -->
<g id="node4" class="node">
<title>3</title>
<g id="a_node4"><a xlink:href="from_clinical biochemist.svg" xlink:title="clinical biochemist">
<ellipse fill="none" stroke="black" cx="331.7" cy="-18" rx="77.19" ry="18"/>
<text text-anchor="middle" x="331.7" y="-14.3" font-family="Times New Roman,serif" font-size="14.00">clinical biochemist</text>
</a>
</g>
</g>
<!-- 0&#45;&gt;3 -->
<g id="edge4" class="edge">
<title>0&#45;&gt;3</title>
<path fill="none" stroke="black" d="M732.92,-97.28C670,-85.12 533.11,-58.62 417.7,-36 411.52,-34.79 405.1,-33.53 398.67,-32.26"/>
<polygon fill="black" stroke="black" points="399.08,-28.77 388.59,-30.27 397.73,-35.64 399.08,-28.77"/>
<text text-anchor="middle" x="596.2" y="-57.8" font-family="Times New Roman,serif" font-size="14.00">0.045</text>
</g>
<!-- 4 -->
<g id="node5" class="node">
<title>4</title>
<g id="a_node5"><a xlink:href="from_clinical research associate.svg" xlink:title="clinical research associate">
<ellipse fill="none" stroke="black" cx="530.7" cy="-18" rx="103.98" ry="18"/>
<text text-anchor="middle" x="530.7" y="-14.3" font-family="Times New Roman,serif" font-size="14.00">clinical research associate</text>
</a>
</g>
</g>
<!-- 0&#45;&gt;4 -->
<g id="edge5" class="edge">
<title>0&#45;&gt;4</title>
<path fill="none" stroke="black" d="M738.16,-93.41C699.5,-79.54 631.08,-55 583.42,-37.91"/>
<polygon fill="black" stroke="black" points="584.48,-34.57 573.89,-34.49 582.12,-41.16 584.48,-34.57"/>
<text text-anchor="middle" x="679.2" y="-57.8" font-family="Times New Roman,serif" font-size="14.00">0.045</text>
</g>
<!-- 5 -->
<g id="node6" class="node">
<title>5</title>
<g id="a_node6"><a xlink:href="from_community education officer.svg" xlink:title="community education officer">
<ellipse fill="none" stroke="black" cx="767.7" cy="-18" rx="115.08" ry="18"/>
<text text-anchor="middle" x="767.7" y="-14.3" font-family="Times New Roman,serif" font-size="14.00">community education officer</text>
</a>
</g>
</g>
<!-- 0&#45;&gt;5 -->
<g id="edge6" class="edge">
<title>0&#45;&gt;5</title>
<path fill="none" stroke="black" d="M767.7,-86.8C767.7,-75.16 767.7,-59.55 767.7,-46.24"/>
<polygon fill="black" stroke="black" points="771.2,-46.18 767.7,-36.18 764.2,-46.18 771.2,-46.18"/>
<text text-anchor="middle" x="783.2" y="-57.8" font-family="Times New Roman,serif" font-size="14.00">0.045</text>
</g>
<!-- 6 -->
<g id="node7" class="node">
<title>6</title>
<g id="a_node7"><a xlink:href="from_curator.svg" xlink:title="curator">
<ellipse fill="none" stroke="black" cx="936.7" cy="-18" rx="36.29" ry="18"/>
<text text-anchor="middle" x="936.7" y="-14.3" font-family="Times New Roman,serif" font-size="14.00">curator</text>
</a>
</g>
</g>
<!-- 0&#45;&gt;6 -->
<g id="edge7" class="edge">
<title>0&#45;&gt;6</title>
<path fill="none" stroke="black" d="M793,-91.27C822.25,-76.56 870.51,-52.29 902.94,-35.98"/>
<polygon fill="black" stroke="black" points="904.69,-39.02 912.05,-31.4 901.54,-32.76 904.69,-39.02"/>
<text text-anchor="middle" x="878.2" y="-57.8" font-family="Times New Roman,serif" font-size="14.00">0.045</text>
</g>
<!-- 7 -->
<g id="node8" class="node">
<title>7</title>
<g id="a_node8"><a xlink:href="from_financial manager.svg" xlink:title="financial manager">
<ellipse fill="none" stroke="black" cx="1064.7" cy="-18" rx="73.39" ry="18"/>
<text text-anchor="middle" x="1064.7" y="-14.3" font-family="Times New Roman,serif" font-size="14.00">financial manager</text>
</a>
</g>
</g>
<!-- 0&#45;&gt;7 -->
<g id="edge8" class="edge">
<title>0&#45;&gt;7</title>
<path fill="none" stroke="black" d="M800.36,-95.48C826.69,-88.54 864.65,-78.39 897.7,-69 935.69,-58.2 978.34,-45.42 1011.03,-35.48"/>
<polygon fill="black" stroke="black" points="1012.3,-38.76 1020.84,-32.49 1010.26,-32.06 1012.3,-38.76"/>
<text text-anchor="middle" x="964.2" y="-57.8" font-family="Times New Roman,serif" font-size="14.00">0.045</text>
</g>
<!-- 8 -->
<g id="node9" class="node">
<title>8</title>
<g id="a_node9"><a xlink:href="from_fitness centre manager.svg" xlink:title="fitness centre manager">
<ellipse fill="none" stroke="black" cx="1246.7" cy="-18" rx="90.98" ry="18"/>
<text text-anchor="middle" x="1246.7" y="-14.3" font-family="Times New Roman,serif" font-size="14.00">fitness centre manager</text>
</a>
</g>
</g>
<!-- 0&#45;&gt;8 -->
<g id="edge9" class="edge">
<title>0&#45;&gt;8</title>
<path fill="none" stroke="black" d="M803.67,-98.48C846.59,-91.82 920.47,-80.13 983.7,-69 1048.52,-57.59 1122.11,-43.5 1174.93,-33.19"/>
<polygon fill="black" stroke="black" points="1175.73,-36.6 1184.88,-31.25 1174.39,-29.73 1175.73,-36.6"/>
<text text-anchor="middle" x="1079.2" y="-57.8" font-family="Times New Roman,serif" font-size="14.00">0.045</text>
</g>
<!-- 9 -->
<g id="node10" class="node">
<title>9</title>
<g id="a_node10"><a xlink:href="from_food scientist.svg" xlink:title="food scientist">
<ellipse fill="none" stroke="black" cx="1415.7" cy="-18" rx="59.59" ry="18"/>
<text text-anchor="middle" x="1415.7" y="-14.3" font-family="Times New Roman,serif" font-size="14.00">food scientist</text>
</a>
</g>
</g>
<!-- 0&#45;&gt;9 -->
<g id="edge10" class="edge">
<title>0&#45;&gt;9</title>
<path fill="none" stroke="black" d="M805.57,-101.4C898.43,-94.62 1144.57,-74.23 1346.7,-36 1351.79,-35.04 1357.08,-33.93 1362.35,-32.75"/>
<polygon fill="black" stroke="black" points="1363.47,-36.09 1372.42,-30.43 1361.89,-29.27 1363.47,-36.09"/>
<text text-anchor="middle" x="1253.2" y="-57.8" font-family="Times New Roman,serif" font-size="14.00">0.045</text>
</g>
</g>
</svg>
