<?xml version="1.0" encoding="UTF-8" standalone="no"?>
<!DOCTYPE svg PUBLIC "-//W3C//DTD SVG 1.1//EN"
 "http://www.w3.org/Graphics/SVG/1.1/DTD/svg11.dtd">
<!-- Generated by graphviz version 2.44.1 (20200629.0800)
 -->
<!-- Title: computer_sales_support Pages: 1 -->
<svg width="1429pt" height="131pt"
 viewBox="0.00 0.00 1429.39 131.00" xmlns="http://www.w3.org/2000/svg" xmlns:xlink="http://www.w3.org/1999/xlink">
<g id="graph0" class="graph" transform="scale(1 1) rotate(0) translate(4 127)">
<title>computer_sales_support</title>
<polygon fill="white" stroke="transparent" points="-4,4 -4,-127 1425.39,-127 1425.39,4 -4,4"/>
<!-- 0 -->
<g id="node1" class="node">
<title>0</title>
<g id="a_node1"><a xlink:href="from_computer sales support.svg" xlink:title="computer sales support">
<ellipse fill="none" stroke="black" cx="683.69" cy="-105" rx="96.38" ry="18"/>
<text text-anchor="middle" x="683.69" y="-101.3" font-family="Times New Roman,serif" font-size="14.00">computer sales support</text>
</a>
</g>
</g>
<!-- 0&#45;&gt;0 -->
<g id="edge1" class="edge">
<title>0&#45;&gt;0</title>
<path fill="none" stroke="black" d="M771.79,-112.38C787.18,-111.4 797.88,-108.94 797.88,-105 797.88,-101.99 791.61,-99.84 781.76,-98.55"/>
<polygon fill="black" stroke="black" points="782.07,-95.07 771.79,-97.62 781.42,-102.04 782.07,-95.07"/>
<text text-anchor="middle" x="813.38" y="-101.3" font-family="Times New Roman,serif" font-size="14.00">0.098</text>
</g>
<!-- 1 -->
<g id="node2" class="node">
<title>1</title>
<g id="a_node2"><a xlink:href="from_network administrator.svg" xlink:title="network administrator">
<ellipse fill="none" stroke="black" cx="89.69" cy="-18" rx="89.88" ry="18"/>
<text text-anchor="middle" x="89.69" y="-14.3" font-family="Times New Roman,serif" font-size="14.00">network administrator</text>
</a>
</g>
</g>
<!-- 0&#45;&gt;1 -->
<g id="edge2" class="edge">
<title>0&#45;&gt;1</title>
<path fill="none" stroke="black" d="M599.81,-96.11C536.67,-89.81 448.08,-80.2 370.69,-69 299.1,-58.64 217.78,-43.84 161.11,-33.03"/>
<polygon fill="black" stroke="black" points="161.66,-29.57 151.18,-31.12 160.34,-36.44 161.66,-29.57"/>
<text text-anchor="middle" x="386.19" y="-57.8" font-family="Times New Roman,serif" font-size="14.00">0.078</text>
</g>
<!-- 2 -->
<g id="node3" class="node">
<title>2</title>
<g id="a_node3"><a xlink:href="from_it consultant.svg" xlink:title="it consultant">
<ellipse fill="none" stroke="black" cx="251.69" cy="-18" rx="54.69" ry="18"/>
<text text-anchor="middle" x="251.69" y="-14.3" font-family="Times New Roman,serif" font-size="14.00">it consultant</text>
</a>
</g>
</g>
<!-- 0&#45;&gt;2 -->
<g id="edge3" class="edge">
<title>0&#45;&gt;2</title>
<path fill="none" stroke="black" d="M612.57,-92.82C537.98,-80.64 417.52,-59.7 314.69,-36 310.53,-35.04 306.23,-34 301.92,-32.91"/>
<polygon fill="black" stroke="black" points="302.47,-29.44 291.91,-30.33 300.72,-36.22 302.47,-29.44"/>
<text text-anchor="middle" x="482.19" y="-57.8" font-family="Times New Roman,serif" font-size="14.00">0.052</text>
</g>
<!-- 3 -->
<g id="node4" class="node">
<title>3</title>
<g id="a_node4"><a xlink:href="from_project manager.svg" xlink:title="project manager">
<ellipse fill="none" stroke="black" cx="392.69" cy="-18" rx="68.79" ry="18"/>
<text text-anchor="middle" x="392.69" y="-14.3" font-family="Times New Roman,serif" font-size="14.00">project manager</text>
</a>
</g>
</g>
<!-- 0&#45;&gt;3 -->
<g id="edge4" class="edge">
<title>0&#45;&gt;3</title>
<path fill="none" stroke="black" d="M634,-89.48C581.89,-74.26 500.26,-50.42 446.62,-34.75"/>
<polygon fill="black" stroke="black" points="447.52,-31.37 436.94,-31.92 445.56,-38.09 447.52,-31.37"/>
<text text-anchor="middle" x="571.19" y="-57.8" font-family="Times New Roman,serif" font-size="14.00">0.046</text>
</g>
<!-- 4 -->
<g id="node5" class="node">
<title>4</title>
<g id="a_node5"><a xlink:href="from_sales manager.svg" xlink:title="sales manager">
<ellipse fill="none" stroke="black" cx="540.69" cy="-18" rx="61.19" ry="18"/>
<text text-anchor="middle" x="540.69" y="-14.3" font-family="Times New Roman,serif" font-size="14.00">sales manager</text>
</a>
</g>
</g>
<!-- 0&#45;&gt;4 -->
<g id="edge5" class="edge">
<title>0&#45;&gt;4</title>
<path fill="none" stroke="black" d="M656.12,-87.61C633.13,-73.95 600.26,-54.41 575.47,-39.67"/>
<polygon fill="black" stroke="black" points="577.12,-36.58 566.73,-34.48 573.54,-42.6 577.12,-36.58"/>
<text text-anchor="middle" x="637.19" y="-57.8" font-family="Times New Roman,serif" font-size="14.00">0.046</text>
</g>
<!-- 5 -->
<g id="node6" class="node">
<title>5</title>
<g id="a_node6"><a xlink:href="from_office manager.svg" xlink:title="office manager">
<ellipse fill="none" stroke="black" cx="683.69" cy="-18" rx="64.19" ry="18"/>
<text text-anchor="middle" x="683.69" y="-14.3" font-family="Times New Roman,serif" font-size="14.00">office manager</text>
</a>
</g>
</g>
<!-- 0&#45;&gt;5 -->
<g id="edge6" class="edge">
<title>0&#45;&gt;5</title>
<path fill="none" stroke="black" d="M683.69,-86.8C683.69,-75.16 683.69,-59.55 683.69,-46.24"/>
<polygon fill="black" stroke="black" points="687.19,-46.18 683.69,-36.18 680.19,-46.18 687.19,-46.18"/>
<text text-anchor="middle" x="699.19" y="-57.8" font-family="Times New Roman,serif" font-size="14.00">0.031</text>
</g>
<!-- 6 -->
<g id="node7" class="node">
<title>6</title>
<g id="a_node7"><a xlink:href="from_software developer.svg" xlink:title="software developer">
<ellipse fill="none" stroke="black" cx="845.69" cy="-18" rx="79.89" ry="18"/>
<text text-anchor="middle" x="845.69" y="-14.3" font-family="Times New Roman,serif" font-size="14.00">software developer</text>
</a>
</g>
</g>
<!-- 0&#45;&gt;6 -->
<g id="edge7" class="edge">
<title>0&#45;&gt;6</title>
<path fill="none" stroke="black" d="M714.54,-87.81C740.69,-74.09 778.33,-54.35 806.58,-39.52"/>
<polygon fill="black" stroke="black" points="808.55,-42.44 815.78,-34.7 805.29,-36.24 808.55,-42.44"/>
<text text-anchor="middle" x="790.19" y="-57.8" font-family="Times New Roman,serif" font-size="14.00">0.031</text>
</g>
<!-- 7 -->
<g id="node8" class="node">
<title>7</title>
<g id="a_node8"><a xlink:href="from_systems analyst.svg" xlink:title="systems analyst">
<ellipse fill="none" stroke="black" cx="1011.69" cy="-18" rx="67.69" ry="18"/>
<text text-anchor="middle" x="1011.69" y="-14.3" font-family="Times New Roman,serif" font-size="14.00">systems analyst</text>
</a>
</g>
</g>
<!-- 0&#45;&gt;7 -->
<g id="edge8" class="edge">
<title>0&#45;&gt;7</title>
<path fill="none" stroke="black" d="M737.49,-90.06C797.48,-74.51 894.11,-49.47 955.18,-33.64"/>
<polygon fill="black" stroke="black" points="956.24,-36.99 965.04,-31.09 954.48,-30.21 956.24,-36.99"/>
<text text-anchor="middle" x="883.19" y="-57.8" font-family="Times New Roman,serif" font-size="14.00">0.031</text>
</g>
<!-- 8 -->
<g id="node9" class="node">
<title>8</title>
<g id="a_node9"><a xlink:href="from_civil service administrator.svg" xlink:title="civil service administrator">
<ellipse fill="none" stroke="black" cx="1199.69" cy="-18" rx="102.88" ry="18"/>
<text text-anchor="middle" x="1199.69" y="-14.3" font-family="Times New Roman,serif" font-size="14.00">civil service administrator</text>
</a>
</g>
</g>
<!-- 0&#45;&gt;8 -->
<g id="edge9" class="edge">
<title>0&#45;&gt;8</title>
<path fill="none" stroke="black" d="M754.73,-92.8C797.6,-86 853.3,-77.1 902.69,-69 975.86,-57 1059.09,-42.95 1118.79,-32.81"/>
<polygon fill="black" stroke="black" points="1119.64,-36.21 1128.91,-31.09 1118.46,-29.31 1119.64,-36.21"/>
<text text-anchor="middle" x="1008.19" y="-57.8" font-family="Times New Roman,serif" font-size="14.00">0.026</text>
</g>
<!-- 9 -->
<g id="node10" class="node">
<title>9</title>
<g id="a_node10"><a xlink:href="from_retail buyer.svg" xlink:title="retail buyer">
<ellipse fill="none" stroke="black" cx="1370.69" cy="-18" rx="50.89" ry="18"/>
<text text-anchor="middle" x="1370.69" y="-14.3" font-family="Times New Roman,serif" font-size="14.00">retail buyer</text>
</a>
</g>
</g>
<!-- 0&#45;&gt;9 -->
<g id="edge10" class="edge">
<title>0&#45;&gt;9</title>
<path fill="none" stroke="black" d="M774.95,-99.29C897.87,-91.78 1122.99,-73.88 1311.69,-36 1315.81,-35.17 1320.05,-34.2 1324.29,-33.14"/>
<polygon fill="black" stroke="black" points="1325.32,-36.49 1334.1,-30.56 1323.54,-29.72 1325.32,-36.49"/>
<text text-anchor="middle" x="1226.19" y="-57.8" font-family="Times New Roman,serif" font-size="14.00">0.026</text>
</g>
</g>
</svg>
