<?xml version="1.0" encoding="UTF-8" standalone="no"?>
<!DOCTYPE svg PUBLIC "-//W3C//DTD SVG 1.1//EN"
 "http://www.w3.org/Graphics/SVG/1.1/DTD/svg11.dtd">
<!-- Generated by graphviz version 2.44.1 (20200629.0800)
 -->
<!-- Title: barrister Pages: 1 -->
<svg width="1334pt" height="131pt"
 viewBox="0.00 0.00 1333.69 131.00" xmlns="http://www.w3.org/2000/svg" xmlns:xlink="http://www.w3.org/1999/xlink">
<g id="graph0" class="graph" transform="scale(1 1) rotate(0) translate(4 127)">
<title>barrister</title>
<polygon fill="white" stroke="transparent" points="-4,4 -4,-127 1329.69,-127 1329.69,4 -4,4"/>
<!-- 0 -->
<g id="node1" class="node">
<title>0</title>
<g id="a_node1"><a xlink:href="from_barrister.svg" xlink:title="barrister">
<ellipse fill="none" stroke="black" cx="693.4" cy="-105" rx="40.09" ry="18"/>
<text text-anchor="middle" x="693.4" y="-101.3" font-family="Times New Roman,serif" font-size="14.00">barrister</text>
</a>
</g>
</g>
<!-- 0&#45;&gt;0 -->
<g id="edge1" class="edge">
<title>0&#45;&gt;0</title>
<path fill="none" stroke="black" d="M729.83,-112.88C741.98,-112.88 751.69,-110.25 751.69,-105 751.69,-101.31 746.89,-98.91 739.82,-97.82"/>
<polygon fill="black" stroke="black" points="740.05,-94.33 729.83,-97.13 739.57,-101.31 740.05,-94.33"/>
<text text-anchor="middle" x="760.69" y="-101.3" font-family="Times New Roman,serif" font-size="14.00">0.4</text>
</g>
<!-- 1 -->
<g id="node2" class="node">
<title>1</title>
<g id="a_node2"><a xlink:href="from_auditor.svg" xlink:title="auditor">
<ellipse fill="none" stroke="black" cx="36.4" cy="-18" rx="36.29" ry="18"/>
<text text-anchor="middle" x="36.4" y="-14.3" font-family="Times New Roman,serif" font-size="14.00">auditor</text>
</a>
</g>
</g>
<!-- 0&#45;&gt;1 -->
<g id="edge2" class="edge">
<title>0&#45;&gt;1</title>
<path fill="none" stroke="black" d="M653.06,-103C554.23,-99.79 292.66,-86.79 81.4,-36 78.58,-35.32 75.7,-34.52 72.83,-33.63"/>
<polygon fill="black" stroke="black" points="73.77,-30.26 63.18,-30.37 71.53,-36.89 73.77,-30.26"/>
<text text-anchor="middle" x="256.4" y="-57.8" font-family="Times New Roman,serif" font-size="14.00">0.1</text>
</g>
<!-- 2 -->
<g id="node3" class="node">
<title>2</title>
<g id="a_node3"><a xlink:href="from_broadcasting presenter.svg" xlink:title="broadcasting presenter">
<ellipse fill="none" stroke="black" cx="183.4" cy="-18" rx="92.88" ry="18"/>
<text text-anchor="middle" x="183.4" y="-14.3" font-family="Times New Roman,serif" font-size="14.00">broadcasting presenter</text>
</a>
</g>
</g>
<!-- 0&#45;&gt;2 -->
<g id="edge3" class="edge">
<title>0&#45;&gt;2</title>
<path fill="none" stroke="black" d="M656.31,-97.82C573.73,-84.06 373.23,-50.64 261.64,-32.04"/>
<polygon fill="black" stroke="black" points="261.89,-28.53 251.45,-30.34 260.74,-35.44 261.89,-28.53"/>
<text text-anchor="middle" x="478.4" y="-57.8" font-family="Times New Roman,serif" font-size="14.00">0.1</text>
</g>
<!-- 3 -->
<g id="node4" class="node">
<title>3</title>
<g id="a_node4"><a xlink:href="from_careers adviser.svg" xlink:title="careers adviser">
<ellipse fill="none" stroke="black" cx="359.4" cy="-18" rx="64.99" ry="18"/>
<text text-anchor="middle" x="359.4" y="-14.3" font-family="Times New Roman,serif" font-size="14.00">careers adviser</text>
</a>
</g>
</g>
<!-- 0&#45;&gt;3 -->
<g id="edge4" class="edge">
<title>0&#45;&gt;3</title>
<path fill="none" stroke="black" d="M659.22,-95.3C601.7,-80.66 485.01,-50.97 415.38,-33.25"/>
<polygon fill="black" stroke="black" points="416.02,-29.8 405.46,-30.72 414.29,-36.58 416.02,-29.8"/>
<text text-anchor="middle" x="555.4" y="-57.8" font-family="Times New Roman,serif" font-size="14.00">0.1</text>
</g>
<!-- 4 -->
<g id="node5" class="node">
<title>4</title>
<g id="a_node5"><a xlink:href="from_health and safety adviser.svg" xlink:title="health and safety adviser">
<ellipse fill="none" stroke="black" cx="541.4" cy="-18" rx="99.38" ry="18"/>
<text text-anchor="middle" x="541.4" y="-14.3" font-family="Times New Roman,serif" font-size="14.00">health and safety adviser</text>
</a>
</g>
</g>
<!-- 0&#45;&gt;4 -->
<g id="edge5" class="edge">
<title>0&#45;&gt;4</title>
<path fill="none" stroke="black" d="M669.31,-90.53C645.14,-77.01 607.55,-55.99 579.36,-40.23"/>
<polygon fill="black" stroke="black" points="581.01,-37.14 570.57,-35.31 577.59,-43.25 581.01,-37.14"/>
<text text-anchor="middle" x="636.4" y="-57.8" font-family="Times New Roman,serif" font-size="14.00">0.1</text>
</g>
<!-- 5 -->
<g id="node6" class="node">
<title>5</title>
<g id="a_node6"><a xlink:href="from_lawyer.svg" xlink:title="lawyer">
<ellipse fill="none" stroke="black" cx="693.4" cy="-18" rx="34.39" ry="18"/>
<text text-anchor="middle" x="693.4" y="-14.3" font-family="Times New Roman,serif" font-size="14.00">lawyer</text>
</a>
</g>
</g>
<!-- 0&#45;&gt;5 -->
<g id="edge6" class="edge">
<title>0&#45;&gt;5</title>
<path fill="none" stroke="black" d="M693.4,-86.8C693.4,-75.16 693.4,-59.55 693.4,-46.24"/>
<polygon fill="black" stroke="black" points="696.9,-46.18 693.4,-36.18 689.9,-46.18 696.9,-46.18"/>
<text text-anchor="middle" x="702.4" y="-57.8" font-family="Times New Roman,serif" font-size="14.00">0.1</text>
</g>
<!-- 6 -->
<g id="node7" class="node">
<title>6</title>
<g id="a_node7"><a xlink:href="from_lecturer.svg" xlink:title="lecturer">
<ellipse fill="none" stroke="black" cx="783.4" cy="-18" rx="37.89" ry="18"/>
<text text-anchor="middle" x="783.4" y="-14.3" font-family="Times New Roman,serif" font-size="14.00">lecturer</text>
</a>
</g>
</g>
<!-- 0&#45;&gt;6 -->
<g id="edge7" class="edge">
<title>0&#45;&gt;6</title>
<path fill="none" stroke="black" d="M709.9,-88.41C723.86,-75.23 744.03,-56.18 759.7,-41.38"/>
<polygon fill="black" stroke="black" points="762.13,-43.9 766.99,-34.49 757.32,-38.81 762.13,-43.9"/>
<text text-anchor="middle" x="753.4" y="-57.8" font-family="Times New Roman,serif" font-size="14.00">0.1</text>
</g>
<!-- 7 -->
<g id="node8" class="node">
<title>7</title>
<g id="a_node8"><a xlink:href="from_legal executive.svg" xlink:title="legal executive">
<ellipse fill="none" stroke="black" cx="902.4" cy="-18" rx="63.09" ry="18"/>
<text text-anchor="middle" x="902.4" y="-14.3" font-family="Times New Roman,serif" font-size="14.00">legal executive</text>
</a>
</g>
</g>
<!-- 0&#45;&gt;7 -->
<g id="edge8" class="edge">
<title>0&#45;&gt;7</title>
<path fill="none" stroke="black" d="M722.46,-92.18C757.66,-77.86 817.31,-53.6 858.22,-36.97"/>
<polygon fill="black" stroke="black" points="859.73,-40.13 867.67,-33.12 857.09,-33.65 859.73,-40.13"/>
<text text-anchor="middle" x="820.4" y="-57.8" font-family="Times New Roman,serif" font-size="14.00">0.1</text>
</g>
<!-- 8 -->
<g id="node9" class="node">
<title>8</title>
<g id="a_node9"><a xlink:href="from_local government administrator.svg" xlink:title="local government administrator">
<ellipse fill="none" stroke="black" cx="1105.4" cy="-18" rx="122.38" ry="18"/>
<text text-anchor="middle" x="1105.4" y="-14.3" font-family="Times New Roman,serif" font-size="14.00">local government administrator</text>
</a>
</g>
</g>
<!-- 0&#45;&gt;8 -->
<g id="edge9" class="edge">
<title>0&#45;&gt;8</title>
<path fill="none" stroke="black" d="M729.24,-96.61C795.47,-82.94 938.42,-53.45 1027.77,-35.01"/>
<polygon fill="black" stroke="black" points="1028.5,-38.44 1037.59,-32.99 1027.09,-31.58 1028.5,-38.44"/>
<text text-anchor="middle" x="933.4" y="-57.8" font-family="Times New Roman,serif" font-size="14.00">0.1</text>
</g>
<!-- 9 -->
<g id="node10" class="node">
<title>9</title>
<g id="a_node10"><a xlink:href="from_solicitor.svg" xlink:title="solicitor">
<ellipse fill="none" stroke="black" cx="1285.4" cy="-18" rx="40.09" ry="18"/>
<text text-anchor="middle" x="1285.4" y="-14.3" font-family="Times New Roman,serif" font-size="14.00">solicitor</text>
</a>
</g>
</g>
<!-- 0&#45;&gt;9 -->
<g id="edge10" class="edge">
<title>0&#45;&gt;9</title>
<path fill="none" stroke="black" d="M733.42,-101.86C824.02,-96.4 1051.35,-79.18 1236.4,-36 1239.6,-35.25 1242.88,-34.37 1246.16,-33.41"/>
<polygon fill="black" stroke="black" points="1247.4,-36.69 1255.89,-30.35 1245.3,-30.02 1247.4,-36.69"/>
<text text-anchor="middle" x="1158.4" y="-57.8" font-family="Times New Roman,serif" font-size="14.00">0.1</text>
</g>
</g>
</svg>
