<?xml version="1.0" encoding="UTF-8" standalone="no"?>
<!DOCTYPE svg PUBLIC "-//W3C//DTD SVG 1.1//EN"
 "http://www.w3.org/Graphics/SVG/1.1/DTD/svg11.dtd">
<!-- Generated by graphviz version 2.44.1 (20200629.0800)
 -->
<!-- Title: training_and_development_officer Pages: 1 -->
<svg width="1483pt" height="131pt"
 viewBox="0.00 0.00 1483.24 131.00" xmlns="http://www.w3.org/2000/svg" xmlns:xlink="http://www.w3.org/1999/xlink">
<g id="graph0" class="graph" transform="scale(1 1) rotate(0) translate(4 127)">
<title>training_and_development_officer</title>
<polygon fill="white" stroke="transparent" points="-4,4 -4,-127 1479.24,-127 1479.24,4 -4,4"/>
<!-- 0 -->
<g id="node1" class="node">
<title>0</title>
<g id="a_node1"><a xlink:href="from_training and development officer.svg" xlink:title="training and development officer">
<ellipse fill="none" stroke="black" cx="759.6" cy="-105" rx="128.08" ry="18"/>
<text text-anchor="middle" x="759.6" y="-101.3" font-family="Times New Roman,serif" font-size="14.00">training and development officer</text>
</a>
</g>
</g>
<!-- 0&#45;&gt;0 -->
<g id="edge1" class="edge">
<title>0&#45;&gt;0</title>
<path fill="none" stroke="black" d="M877.34,-112.09C894.26,-110.95 905.63,-108.59 905.63,-105 905.63,-102.2 898.69,-100.14 887.59,-98.83"/>
<polygon fill="black" stroke="black" points="887.62,-95.32 877.34,-97.91 886.99,-102.3 887.62,-95.32"/>
<text text-anchor="middle" x="921.13" y="-101.3" font-family="Times New Roman,serif" font-size="14.00">0.123</text>
</g>
<!-- 1 -->
<g id="node2" class="node">
<title>1</title>
<g id="a_node2"><a xlink:href="from_it consultant.svg" xlink:title="it consultant">
<ellipse fill="none" stroke="black" cx="54.6" cy="-18" rx="54.69" ry="18"/>
<text text-anchor="middle" x="54.6" y="-14.3" font-family="Times New Roman,serif" font-size="14.00">it consultant</text>
</a>
</g>
</g>
<!-- 0&#45;&gt;1 -->
<g id="edge2" class="edge">
<title>0&#45;&gt;1</title>
<path fill="none" stroke="black" d="M643.06,-97.46C513.78,-88.86 299.41,-70.6 117.6,-36 113.16,-35.16 108.57,-34.16 103.99,-33.08"/>
<polygon fill="black" stroke="black" points="104.59,-29.63 94.04,-30.62 102.91,-36.42 104.59,-29.63"/>
<text text-anchor="middle" x="344.1" y="-57.8" font-family="Times New Roman,serif" font-size="14.00">0.070</text>
</g>
<!-- 2 -->
<g id="node3" class="node">
<title>2</title>
<g id="a_node3"><a xlink:href="from_pharmacovigilance officer.svg" xlink:title="pharmacovigilance officer">
<ellipse fill="none" stroke="black" cx="231.6" cy="-18" rx="104.78" ry="18"/>
<text text-anchor="middle" x="231.6" y="-14.3" font-family="Times New Roman,serif" font-size="14.00">pharmacovigilance officer</text>
</a>
</g>
</g>
<!-- 0&#45;&gt;2 -->
<g id="edge3" class="edge">
<title>0&#45;&gt;2</title>
<path fill="none" stroke="black" d="M677.23,-91.21C635.15,-84.64 583.13,-76.47 536.6,-69 461.19,-56.9 375.36,-42.8 314,-32.66"/>
<polygon fill="black" stroke="black" points="314.42,-29.19 303.98,-31.01 313.28,-36.09 314.42,-29.19"/>
<text text-anchor="middle" x="552.1" y="-57.8" font-family="Times New Roman,serif" font-size="14.00">0.052</text>
</g>
<!-- 3 -->
<g id="node4" class="node">
<title>3</title>
<g id="a_node4"><a xlink:href="from_project manager.svg" xlink:title="project manager">
<ellipse fill="none" stroke="black" cx="423.6" cy="-18" rx="68.79" ry="18"/>
<text text-anchor="middle" x="423.6" y="-14.3" font-family="Times New Roman,serif" font-size="14.00">project manager</text>
</a>
</g>
</g>
<!-- 0&#45;&gt;3 -->
<g id="edge4" class="edge">
<title>0&#45;&gt;3</title>
<path fill="none" stroke="black" d="M700.3,-89C638.46,-73.36 542.19,-49 481.05,-33.53"/>
<polygon fill="black" stroke="black" points="481.73,-30.1 471.18,-31.04 480.01,-36.88 481.73,-30.1"/>
<text text-anchor="middle" x="628.1" y="-57.8" font-family="Times New Roman,serif" font-size="14.00">0.052</text>
</g>
<!-- 4 -->
<g id="node5" class="node">
<title>4</title>
<g id="a_node5"><a xlink:href="from_production manager.svg" xlink:title="production manager">
<ellipse fill="none" stroke="black" cx="593.6" cy="-18" rx="83.39" ry="18"/>
<text text-anchor="middle" x="593.6" y="-14.3" font-family="Times New Roman,serif" font-size="14.00">production manager</text>
</a>
</g>
</g>
<!-- 0&#45;&gt;4 -->
<g id="edge5" class="edge">
<title>0&#45;&gt;4</title>
<path fill="none" stroke="black" d="M727.19,-87.41C700.38,-73.68 662.16,-54.11 633.47,-39.42"/>
<polygon fill="black" stroke="black" points="635.01,-36.27 624.51,-34.83 631.82,-42.5 635.01,-36.27"/>
<text text-anchor="middle" x="702.1" y="-57.8" font-family="Times New Roman,serif" font-size="14.00">0.047</text>
</g>
<!-- 5 -->
<g id="node6" class="node">
<title>5</title>
<g id="a_node6"><a xlink:href="from_office manager.svg" xlink:title="office manager">
<ellipse fill="none" stroke="black" cx="759.6" cy="-18" rx="64.19" ry="18"/>
<text text-anchor="middle" x="759.6" y="-14.3" font-family="Times New Roman,serif" font-size="14.00">office manager</text>
</a>
</g>
</g>
<!-- 0&#45;&gt;5 -->
<g id="edge6" class="edge">
<title>0&#45;&gt;5</title>
<path fill="none" stroke="black" d="M759.6,-86.8C759.6,-75.16 759.6,-59.55 759.6,-46.24"/>
<polygon fill="black" stroke="black" points="763.1,-46.18 759.6,-36.18 756.1,-46.18 763.1,-46.18"/>
<text text-anchor="middle" x="775.1" y="-57.8" font-family="Times New Roman,serif" font-size="14.00">0.035</text>
</g>
<!-- 6 -->
<g id="node7" class="node">
<title>6</title>
<g id="a_node7"><a xlink:href="from_careers adviser.svg" xlink:title="careers adviser">
<ellipse fill="none" stroke="black" cx="906.6" cy="-18" rx="64.99" ry="18"/>
<text text-anchor="middle" x="906.6" y="-14.3" font-family="Times New Roman,serif" font-size="14.00">careers adviser</text>
</a>
</g>
</g>
<!-- 0&#45;&gt;6 -->
<g id="edge7" class="edge">
<title>0&#45;&gt;6</title>
<path fill="none" stroke="black" d="M788.29,-87.41C811.8,-73.81 845.21,-54.49 870.53,-39.85"/>
<polygon fill="black" stroke="black" points="872.56,-42.72 879.46,-34.69 869.06,-36.66 872.56,-42.72"/>
<text text-anchor="middle" x="858.1" y="-57.8" font-family="Times New Roman,serif" font-size="14.00">0.029</text>
</g>
<!-- 7 -->
<g id="node8" class="node">
<title>7</title>
<g id="a_node8"><a xlink:href="from_education administrator.svg" xlink:title="education administrator">
<ellipse fill="none" stroke="black" cx="1085.6" cy="-18" rx="95.58" ry="18"/>
<text text-anchor="middle" x="1085.6" y="-14.3" font-family="Times New Roman,serif" font-size="14.00">education administrator</text>
</a>
</g>
</g>
<!-- 0&#45;&gt;7 -->
<g id="edge8" class="edge">
<title>0&#45;&gt;7</title>
<path fill="none" stroke="black" d="M817.5,-88.9C874.92,-73.93 962.68,-51.05 1022.01,-35.58"/>
<polygon fill="black" stroke="black" points="1023.22,-38.88 1032.01,-32.97 1021.45,-32.11 1023.22,-38.88"/>
<text text-anchor="middle" x="958.1" y="-57.8" font-family="Times New Roman,serif" font-size="14.00">0.029</text>
</g>
<!-- 8 -->
<g id="node9" class="node">
<title>8</title>
<g id="a_node9"><a xlink:href="from_lecturer.svg" xlink:title="lecturer">
<ellipse fill="none" stroke="black" cx="1236.6" cy="-18" rx="37.89" ry="18"/>
<text text-anchor="middle" x="1236.6" y="-14.3" font-family="Times New Roman,serif" font-size="14.00">lecturer</text>
</a>
</g>
</g>
<!-- 0&#45;&gt;8 -->
<g id="edge9" class="edge">
<title>0&#45;&gt;8</title>
<path fill="none" stroke="black" d="M860.47,-93.79C948.56,-83.53 1079.37,-65.02 1190.6,-36 1193.38,-35.27 1196.22,-34.44 1199.07,-33.55"/>
<polygon fill="black" stroke="black" points="1200.3,-36.83 1208.66,-30.32 1198.06,-30.2 1200.3,-36.83"/>
<text text-anchor="middle" x="1125.1" y="-57.8" font-family="Times New Roman,serif" font-size="14.00">0.029</text>
</g>
<!-- 9 -->
<g id="node10" class="node">
<title>9</title>
<g id="a_node10"><a xlink:href="from_programme researcher.svg" xlink:title="programme researcher">
<ellipse fill="none" stroke="black" cx="1383.6" cy="-18" rx="91.78" ry="18"/>
<text text-anchor="middle" x="1383.6" y="-14.3" font-family="Times New Roman,serif" font-size="14.00">programme researcher</text>
</a>
</g>
</g>
<!-- 0&#45;&gt;9 -->
<g id="edge10" class="edge">
<title>0&#45;&gt;9</title>
<path fill="none" stroke="black" d="M874.57,-97.04C951.31,-91.53 1054.32,-82.5 1144.6,-69 1203.89,-60.13 1270.62,-45.8 1318.47,-34.75"/>
<polygon fill="black" stroke="black" points="1319.44,-38.12 1328.39,-32.44 1317.85,-31.3 1319.44,-38.12"/>
<text text-anchor="middle" x="1240.1" y="-57.8" font-family="Times New Roman,serif" font-size="14.00">0.029</text>
</g>
</g>
</svg>
