<?xml version="1.0" encoding="UTF-8" standalone="no"?>
<!DOCTYPE svg PUBLIC "-//W3C//DTD SVG 1.1//EN"
 "http://www.w3.org/Graphics/SVG/1.1/DTD/svg11.dtd">
<!-- Generated by graphviz version 2.44.1 (20200629.0800)
 -->
<!-- Title: charities_administrator Pages: 1 -->
<svg width="1764pt" height="131pt"
 viewBox="0.00 0.00 1763.63 131.00" xmlns="http://www.w3.org/2000/svg" xmlns:xlink="http://www.w3.org/1999/xlink">
<g id="graph0" class="graph" transform="scale(1 1) rotate(0) translate(4 127)">
<title>charities_administrator</title>
<polygon fill="white" stroke="transparent" points="-4,4 -4,-127 1759.63,-127 1759.63,4 -4,4"/>
<!-- 0 -->
<g id="node1" class="node">
<title>0</title>
<g id="a_node1"><a xlink:href="from_charities administrator.svg" xlink:title="charities administrator">
<ellipse fill="none" stroke="black" cx="888.64" cy="-105" rx="90.18" ry="18"/>
<text text-anchor="middle" x="888.64" y="-101.3" font-family="Times New Roman,serif" font-size="14.00">charities administrator</text>
</a>
</g>
</g>
<!-- 0&#45;&gt;0 -->
<g id="edge1" class="edge">
<title>0&#45;&gt;0</title>
<path fill="none" stroke="black" d="M970.84,-112.47C986.18,-111.55 996.98,-109.06 996.98,-105 996.98,-101.92 990.78,-99.75 981.1,-98.47"/>
<polygon fill="black" stroke="black" points="981.12,-94.96 970.84,-97.53 980.48,-101.93 981.12,-94.96"/>
<text text-anchor="middle" x="1012.48" y="-101.3" font-family="Times New Roman,serif" font-size="14.00">0.087</text>
</g>
<!-- 1 -->
<g id="node2" class="node">
<title>1</title>
<g id="a_node2"><a xlink:href="from_pharmacovigilance officer.svg" xlink:title="pharmacovigilance officer">
<ellipse fill="none" stroke="black" cx="104.64" cy="-18" rx="104.78" ry="18"/>
<text text-anchor="middle" x="104.64" y="-14.3" font-family="Times New Roman,serif" font-size="14.00">pharmacovigilance officer</text>
</a>
</g>
</g>
<!-- 0&#45;&gt;1 -->
<g id="edge2" class="edge">
<title>0&#45;&gt;1</title>
<path fill="none" stroke="black" d="M803.69,-98.69C715.72,-92.85 574.35,-82.45 452.64,-69 348.25,-57.46 322.58,-51.08 218.64,-36 209.62,-34.69 200.21,-33.31 190.82,-31.93"/>
<polygon fill="black" stroke="black" points="191.07,-28.42 180.67,-30.42 190.05,-35.35 191.07,-28.42"/>
<text text-anchor="middle" x="468.14" y="-57.8" font-family="Times New Roman,serif" font-size="14.00">0.052</text>
</g>
<!-- 2 -->
<g id="node3" class="node">
<title>2</title>
<g id="a_node3"><a xlink:href="from_project manager.svg" xlink:title="project manager">
<ellipse fill="none" stroke="black" cx="296.64" cy="-18" rx="68.79" ry="18"/>
<text text-anchor="middle" x="296.64" y="-14.3" font-family="Times New Roman,serif" font-size="14.00">project manager</text>
</a>
</g>
</g>
<!-- 0&#45;&gt;2 -->
<g id="edge3" class="edge">
<title>0&#45;&gt;2</title>
<path fill="none" stroke="black" d="M809.89,-96.02C708.71,-85.21 527.83,-63.99 374.64,-36 368.88,-34.95 362.89,-33.78 356.91,-32.56"/>
<polygon fill="black" stroke="black" points="357.39,-29.09 346.89,-30.48 355.97,-35.94 357.39,-29.09"/>
<text text-anchor="middle" x="601.14" y="-57.8" font-family="Times New Roman,serif" font-size="14.00">0.052</text>
</g>
<!-- 3 -->
<g id="node4" class="node">
<title>3</title>
<g id="a_node4"><a xlink:href="from_catering manager.svg" xlink:title="catering manager">
<ellipse fill="none" stroke="black" cx="454.64" cy="-18" rx="71.49" ry="18"/>
<text text-anchor="middle" x="454.64" y="-14.3" font-family="Times New Roman,serif" font-size="14.00">catering manager</text>
</a>
</g>
</g>
<!-- 0&#45;&gt;3 -->
<g id="edge4" class="edge">
<title>0&#45;&gt;3</title>
<path fill="none" stroke="black" d="M825.13,-92.09C754.41,-78.76 636.75,-56.35 535.64,-36 529.78,-34.82 523.67,-33.57 517.57,-32.31"/>
<polygon fill="black" stroke="black" points="517.84,-28.8 507.34,-30.19 516.42,-35.65 517.84,-28.8"/>
<text text-anchor="middle" x="716.14" y="-57.8" font-family="Times New Roman,serif" font-size="14.00">0.035</text>
</g>
<!-- 4 -->
<g id="node5" class="node">
<title>4</title>
<g id="a_node5"><a xlink:href="from_community education officer.svg" xlink:title="community education officer">
<ellipse fill="none" stroke="black" cx="659.64" cy="-18" rx="115.08" ry="18"/>
<text text-anchor="middle" x="659.64" y="-14.3" font-family="Times New Roman,serif" font-size="14.00">community education officer</text>
</a>
</g>
</g>
<!-- 0&#45;&gt;4 -->
<g id="edge5" class="edge">
<title>0&#45;&gt;4</title>
<path fill="none" stroke="black" d="M847.96,-88.9C810.01,-74.81 753.18,-53.72 711.88,-38.39"/>
<polygon fill="black" stroke="black" points="712.86,-35.02 702.27,-34.82 710.42,-41.58 712.86,-35.02"/>
<text text-anchor="middle" x="804.14" y="-57.8" font-family="Times New Roman,serif" font-size="14.00">0.035</text>
</g>
<!-- 5 -->
<g id="node6" class="node">
<title>5</title>
<g id="a_node6"><a xlink:href="from_education administrator.svg" xlink:title="education administrator">
<ellipse fill="none" stroke="black" cx="888.64" cy="-18" rx="95.58" ry="18"/>
<text text-anchor="middle" x="888.64" y="-14.3" font-family="Times New Roman,serif" font-size="14.00">education administrator</text>
</a>
</g>
</g>
<!-- 0&#45;&gt;5 -->
<g id="edge6" class="edge">
<title>0&#45;&gt;5</title>
<path fill="none" stroke="black" d="M888.64,-86.8C888.64,-75.16 888.64,-59.55 888.64,-46.24"/>
<polygon fill="black" stroke="black" points="892.14,-46.18 888.64,-36.18 885.14,-46.18 892.14,-46.18"/>
<text text-anchor="middle" x="904.14" y="-57.8" font-family="Times New Roman,serif" font-size="14.00">0.035</text>
</g>
<!-- 6 -->
<g id="node7" class="node">
<title>6</title>
<g id="a_node7"><a xlink:href="from_environmental scientist.svg" xlink:title="environmental scientist">
<ellipse fill="none" stroke="black" cx="1094.64" cy="-18" rx="92.88" ry="18"/>
<text text-anchor="middle" x="1094.64" y="-14.3" font-family="Times New Roman,serif" font-size="14.00">environmental scientist</text>
</a>
</g>
</g>
<!-- 0&#45;&gt;6 -->
<g id="edge7" class="edge">
<title>0&#45;&gt;6</title>
<path fill="none" stroke="black" d="M926.42,-88.41C960.54,-74.33 1010.88,-53.56 1047.6,-38.41"/>
<polygon fill="black" stroke="black" points="1049.19,-41.54 1057.1,-34.49 1046.52,-35.07 1049.19,-41.54"/>
<text text-anchor="middle" x="1020.14" y="-57.8" font-family="Times New Roman,serif" font-size="14.00">0.035</text>
</g>
<!-- 7 -->
<g id="node8" class="node">
<title>7</title>
<g id="a_node8"><a xlink:href="from_heritage manager.svg" xlink:title="heritage manager">
<ellipse fill="none" stroke="black" cx="1276.64" cy="-18" rx="71.49" ry="18"/>
<text text-anchor="middle" x="1276.64" y="-14.3" font-family="Times New Roman,serif" font-size="14.00">heritage manager</text>
</a>
</g>
</g>
<!-- 0&#45;&gt;7 -->
<g id="edge8" class="edge">
<title>0&#45;&gt;7</title>
<path fill="none" stroke="black" d="M947.15,-91.18C1019.13,-75.41 1140.81,-48.76 1214.44,-32.63"/>
<polygon fill="black" stroke="black" points="1215.49,-35.98 1224.51,-30.42 1213.99,-29.14 1215.49,-35.98"/>
<text text-anchor="middle" x="1122.14" y="-57.8" font-family="Times New Roman,serif" font-size="14.00">0.035</text>
</g>
<!-- 8 -->
<g id="node9" class="node">
<title>8</title>
<g id="a_node9"><a xlink:href="from_marketing executive.svg" xlink:title="marketing executive">
<ellipse fill="none" stroke="black" cx="1447.64" cy="-18" rx="81.79" ry="18"/>
<text text-anchor="middle" x="1447.64" y="-14.3" font-family="Times New Roman,serif" font-size="14.00">marketing executive</text>
</a>
</g>
</g>
<!-- 0&#45;&gt;8 -->
<g id="edge9" class="edge">
<title>0&#45;&gt;8</title>
<path fill="none" stroke="black" d="M962.17,-94.44C1054.49,-82.17 1217.63,-59.65 1356.64,-36 1363.61,-34.81 1370.88,-33.53 1378.12,-32.23"/>
<polygon fill="black" stroke="black" points="1378.76,-35.67 1387.97,-30.43 1377.51,-28.78 1378.76,-35.67"/>
<text text-anchor="middle" x="1257.14" y="-57.8" font-family="Times New Roman,serif" font-size="14.00">0.035</text>
</g>
<!-- 9 -->
<g id="node10" class="node">
<title>9</title>
<g id="a_node10"><a xlink:href="from_outdoor pursuits manager.svg" xlink:title="outdoor pursuits manager">
<ellipse fill="none" stroke="black" cx="1651.64" cy="-18" rx="103.98" ry="18"/>
<text text-anchor="middle" x="1651.64" y="-14.3" font-family="Times New Roman,serif" font-size="14.00">outdoor pursuits manager</text>
</a>
</g>
</g>
<!-- 0&#45;&gt;9 -->
<g id="edge10" class="edge">
<title>0&#45;&gt;9</title>
<path fill="none" stroke="black" d="M970.85,-97.43C1049.44,-90.95 1171.24,-80.39 1276.64,-69 1393.33,-56.39 1422.38,-52.06 1538.64,-36 1547.66,-34.75 1557.08,-33.41 1566.46,-32.04"/>
<polygon fill="black" stroke="black" points="1567.23,-35.46 1576.61,-30.55 1566.21,-28.54 1567.23,-35.46"/>
<text text-anchor="middle" x="1419.14" y="-57.8" font-family="Times New Roman,serif" font-size="14.00">0.035</text>
</g>
</g>
</svg>
