<?xml version="1.0" encoding="UTF-8" standalone="no"?>
<!DOCTYPE svg PUBLIC "-//W3C//DTD SVG 1.1//EN"
 "http://www.w3.org/Graphics/SVG/1.1/DTD/svg11.dtd">
<!-- Generated by graphviz version 2.44.1 (20200629.0800)
 -->
<!-- Title: test Pages: 1 -->
<svg width="1441pt" height="131pt"
 viewBox="0.00 0.00 1440.63 131.00" xmlns="http://www.w3.org/2000/svg" xmlns:xlink="http://www.w3.org/1999/xlink">
<g id="graph0" class="graph" transform="scale(1 1) rotate(0) translate(4 127)">
<title>test</title>
<polygon fill="white" stroke="transparent" points="-4,4 -4,-127 1436.63,-127 1436.63,4 -4,4"/>
<!-- 0 -->
<g id="node1" class="node">
<title>0</title>
<g id="a_node1"><a xlink:href="from_armed forces officer.svg" xlink:title="armed forces officer">
<ellipse fill="none" stroke="black" cx="796.64" cy="-105" rx="85.29" ry="18"/>
<text text-anchor="middle" x="796.64" y="-101.3" font-family="Times New Roman,serif" font-size="14.00">armed forces officer</text>
</a>
</g>
</g>
<!-- 0&#45;&gt;0 -->
<g id="edge1" class="edge">
<title>0&#45;&gt;0</title>
<path fill="none" stroke="black" d="M874.01,-112.52C889.08,-111.65 899.78,-109.14 899.78,-105 899.78,-101.86 893.64,-99.66 884.1,-98.4"/>
<polygon fill="black" stroke="black" points="884.29,-94.9 874.01,-97.48 883.65,-101.87 884.29,-94.9"/>
<text text-anchor="middle" x="915.28" y="-101.3" font-family="Times New Roman,serif" font-size="14.00">0.082</text>
</g>
<!-- 1 -->
<g id="node2" class="node">
<title>1</title>
<g id="a_node2"><a xlink:href="from_pharmacovigilance officer.svg" xlink:title="pharmacovigilance officer">
<ellipse fill="none" stroke="black" cx="104.64" cy="-18" rx="104.78" ry="18"/>
<text text-anchor="middle" x="104.64" y="-14.3" font-family="Times New Roman,serif" font-size="14.00">pharmacovigilance officer</text>
</a>
</g>
</g>
<!-- 0&#45;&gt;1 -->
<g id="edge2" class="edge">
<title>0&#45;&gt;1</title>
<path fill="none" stroke="black" d="M719.4,-97.39C647.81,-91.01 538.39,-80.64 443.64,-69 343.32,-56.68 318.62,-50.79 218.64,-36 209.7,-34.68 200.37,-33.29 191.06,-31.91"/>
<polygon fill="black" stroke="black" points="191.39,-28.42 180.98,-30.41 190.36,-35.34 191.39,-28.42"/>
<text text-anchor="middle" x="459.14" y="-57.8" font-family="Times New Roman,serif" font-size="14.00">0.082</text>
</g>
<!-- 2 -->
<g id="node3" class="node">
<title>2</title>
<g id="a_node3"><a xlink:href="from_project manager.svg" xlink:title="project manager">
<ellipse fill="none" stroke="black" cx="296.64" cy="-18" rx="68.79" ry="18"/>
<text text-anchor="middle" x="296.64" y="-14.3" font-family="Times New Roman,serif" font-size="14.00">project manager</text>
</a>
</g>
</g>
<!-- 0&#45;&gt;2 -->
<g id="edge3" class="edge">
<title>0&#45;&gt;2</title>
<path fill="none" stroke="black" d="M728.07,-94.28C644.39,-82.12 498.69,-59.95 374.64,-36 368.89,-34.89 362.91,-33.68 356.93,-32.44"/>
<polygon fill="black" stroke="black" points="357.43,-28.97 346.92,-30.33 355.98,-35.82 357.43,-28.97"/>
<text text-anchor="middle" x="575.14" y="-57.8" font-family="Times New Roman,serif" font-size="14.00">0.058</text>
</g>
<!-- 3 -->
<g id="node4" class="node">
<title>3</title>
<g id="a_node4"><a xlink:href="from_catering manager.svg" xlink:title="catering manager">
<ellipse fill="none" stroke="black" cx="454.64" cy="-18" rx="71.49" ry="18"/>
<text text-anchor="middle" x="454.64" y="-14.3" font-family="Times New Roman,serif" font-size="14.00">catering manager</text>
</a>
</g>
</g>
<!-- 0&#45;&gt;3 -->
<g id="edge4" class="edge">
<title>0&#45;&gt;3</title>
<path fill="none" stroke="black" d="M743.58,-90.81C681.34,-75.34 578.44,-49.77 513.71,-33.68"/>
<polygon fill="black" stroke="black" points="514.21,-30.2 503.67,-31.18 512.53,-36.99 514.21,-30.2"/>
<text text-anchor="middle" x="662.14" y="-57.8" font-family="Times New Roman,serif" font-size="14.00">0.047</text>
</g>
<!-- 4 -->
<g id="node5" class="node">
<title>4</title>
<g id="a_node5"><a xlink:href="from_human resources officer.svg" xlink:title="human resources officer">
<ellipse fill="none" stroke="black" cx="642.64" cy="-18" rx="98.58" ry="18"/>
<text text-anchor="middle" x="642.64" y="-14.3" font-family="Times New Roman,serif" font-size="14.00">human resources officer</text>
</a>
</g>
</g>
<!-- 0&#45;&gt;4 -->
<g id="edge5" class="edge">
<title>0&#45;&gt;4</title>
<path fill="none" stroke="black" d="M767.67,-88.01C743.09,-74.45 707.64,-54.88 680.76,-40.04"/>
<polygon fill="black" stroke="black" points="682.45,-36.97 672,-35.21 679.06,-43.1 682.45,-36.97"/>
<text text-anchor="middle" x="745.14" y="-57.8" font-family="Times New Roman,serif" font-size="14.00">0.035</text>
</g>
<!-- 5 -->
<g id="node6" class="node">
<title>5</title>
<g id="a_node6"><a xlink:href="from_lecturer.svg" xlink:title="lecturer">
<ellipse fill="none" stroke="black" cx="796.64" cy="-18" rx="37.89" ry="18"/>
<text text-anchor="middle" x="796.64" y="-14.3" font-family="Times New Roman,serif" font-size="14.00">lecturer</text>
</a>
</g>
</g>
<!-- 0&#45;&gt;5 -->
<g id="edge6" class="edge">
<title>0&#45;&gt;5</title>
<path fill="none" stroke="black" d="M796.64,-86.8C796.64,-75.16 796.64,-59.55 796.64,-46.24"/>
<polygon fill="black" stroke="black" points="800.14,-46.18 796.64,-36.18 793.14,-46.18 800.14,-46.18"/>
<text text-anchor="middle" x="812.14" y="-57.8" font-family="Times New Roman,serif" font-size="14.00">0.035</text>
</g>
<!-- 6 -->
<g id="node7" class="node">
<title>6</title>
<g id="a_node7"><a xlink:href="from_production manager.svg" xlink:title="production manager">
<ellipse fill="none" stroke="black" cx="935.64" cy="-18" rx="83.39" ry="18"/>
<text text-anchor="middle" x="935.64" y="-14.3" font-family="Times New Roman,serif" font-size="14.00">production manager</text>
</a>
</g>
</g>
<!-- 0&#45;&gt;6 -->
<g id="edge7" class="edge">
<title>0&#45;&gt;6</title>
<path fill="none" stroke="black" d="M823.11,-87.81C845.04,-74.4 876.4,-55.23 900.44,-40.52"/>
<polygon fill="black" stroke="black" points="902.56,-43.33 909.27,-35.13 898.91,-37.36 902.56,-43.33"/>
<text text-anchor="middle" x="890.14" y="-57.8" font-family="Times New Roman,serif" font-size="14.00">0.035</text>
</g>
<!-- 7 -->
<g id="node8" class="node">
<title>7</title>
<g id="a_node8"><a xlink:href="from_trader.svg" xlink:title="trader">
<ellipse fill="none" stroke="black" cx="1068.64" cy="-18" rx="31.7" ry="18"/>
<text text-anchor="middle" x="1068.64" y="-14.3" font-family="Times New Roman,serif" font-size="14.00">trader</text>
</a>
</g>
</g>
<!-- 0&#45;&gt;7 -->
<g id="edge8" class="edge">
<title>0&#45;&gt;7</title>
<path fill="none" stroke="black" d="M848.06,-90.56C895.21,-77.83 966.74,-57.52 1027.64,-36 1029.91,-35.2 1032.23,-34.34 1034.57,-33.45"/>
<polygon fill="black" stroke="black" points="1036.08,-36.61 1044.09,-29.68 1033.5,-30.11 1036.08,-36.61"/>
<text text-anchor="middle" x="987.14" y="-57.8" font-family="Times New Roman,serif" font-size="14.00">0.035</text>
</g>
<!-- 8 -->
<g id="node9" class="node">
<title>8</title>
<g id="a_node9"><a xlink:href="from_automotive engineer.svg" xlink:title="automotive engineer">
<ellipse fill="none" stroke="black" cx="1201.64" cy="-18" rx="83.39" ry="18"/>
<text text-anchor="middle" x="1201.64" y="-14.3" font-family="Times New Roman,serif" font-size="14.00">automotive engineer</text>
</a>
</g>
</g>
<!-- 0&#45;&gt;8 -->
<g id="edge9" class="edge">
<title>0&#45;&gt;8</title>
<path fill="none" stroke="black" d="M865.01,-94.12C906.21,-87.8 959.63,-78.93 1006.64,-69 1052.78,-59.26 1104.46,-45.89 1143.02,-35.43"/>
<polygon fill="black" stroke="black" points="1144.3,-38.71 1153.03,-32.7 1142.46,-31.96 1144.3,-38.71"/>
<text text-anchor="middle" x="1087.14" y="-57.8" font-family="Times New Roman,serif" font-size="14.00">0.023</text>
</g>
<!-- 9 -->
<g id="node10" class="node">
<title>9</title>
<g id="a_node10"><a xlink:href="from_careers adviser.svg" xlink:title="careers adviser">
<ellipse fill="none" stroke="black" cx="1367.64" cy="-18" rx="64.99" ry="18"/>
<text text-anchor="middle" x="1367.64" y="-14.3" font-family="Times New Roman,serif" font-size="14.00">careers adviser</text>
</a>
</g>
</g>
<!-- 0&#45;&gt;9 -->
<g id="edge10" class="edge">
<title>0&#45;&gt;9</title>
<path fill="none" stroke="black" d="M872.61,-96.75C935.48,-90.44 1027.04,-80.51 1106.64,-69 1190.17,-56.93 1210.93,-52.79 1293.64,-36 1298.97,-34.92 1304.5,-33.74 1310.04,-32.53"/>
<polygon fill="black" stroke="black" points="1310.95,-35.92 1319.95,-30.33 1309.43,-29.08 1310.95,-35.92"/>
<text text-anchor="middle" x="1216.14" y="-57.8" font-family="Times New Roman,serif" font-size="14.00">0.023</text>
</g>
</g>
</svg>
