<?xml version="1.0" encoding="UTF-8" standalone="no"?>
<!DOCTYPE svg PUBLIC "-//W3C//DTD SVG 1.1//EN"
 "http://www.w3.org/Graphics/SVG/1.1/DTD/svg11.dtd">
<!-- Generated by graphviz version 2.44.1 (20200629.0800)
 -->
<!-- Title: test Pages: 1 -->
<svg width="1525pt" height="131pt"
 viewBox="0.00 0.00 1525.34 131.00" xmlns="http://www.w3.org/2000/svg" xmlns:xlink="http://www.w3.org/1999/xlink">
<g id="graph0" class="graph" transform="scale(1 1) rotate(0) translate(4 127)">
<title>test</title>
<polygon fill="white" stroke="transparent" points="-4,4 -4,-127 1521.34,-127 1521.34,4 -4,4"/>
<!-- 0 -->
<g id="node1" class="node">
<title>0</title>
<g id="a_node1"><a xlink:href="from_facilities manager.svg" xlink:title="facilities manager">
<ellipse fill="none" stroke="black" cx="723.89" cy="-105" rx="72.59" ry="18"/>
<text text-anchor="middle" x="723.89" y="-101.3" font-family="Times New Roman,serif" font-size="14.00">facilities manager</text>
</a>
</g>
</g>
<!-- 0&#45;&gt;0 -->
<g id="edge1" class="edge">
<title>0&#45;&gt;0</title>
<path fill="none" stroke="black" d="M790,-112.64C804.31,-111.9 814.69,-109.35 814.69,-105 814.69,-101.77 808.97,-99.54 800.17,-98.29"/>
<polygon fill="black" stroke="black" points="800.28,-94.79 790,-97.36 799.64,-101.76 800.28,-94.79"/>
<text text-anchor="middle" x="830.19" y="-101.3" font-family="Times New Roman,serif" font-size="14.00">0.183</text>
</g>
<!-- 1 -->
<g id="node2" class="node">
<title>1</title>
<g id="a_node2"><a xlink:href="from_project manager.svg" xlink:title="project manager">
<ellipse fill="none" stroke="black" cx="68.89" cy="-18" rx="68.79" ry="18"/>
<text text-anchor="middle" x="68.89" y="-14.3" font-family="Times New Roman,serif" font-size="14.00">project manager</text>
</a>
</g>
</g>
<!-- 0&#45;&gt;1 -->
<g id="edge2" class="edge">
<title>0&#45;&gt;1</title>
<path fill="none" stroke="black" d="M655.67,-98.63C582.43,-92.58 462.73,-81.9 359.89,-69 264.84,-57.08 241.07,-53.54 146.89,-36 141.13,-34.93 135.15,-33.74 129.17,-32.52"/>
<polygon fill="black" stroke="black" points="129.66,-29.05 119.15,-30.42 128.23,-35.9 129.66,-29.05"/>
<text text-anchor="middle" x="375.39" y="-57.8" font-family="Times New Roman,serif" font-size="14.00">0.093</text>
</g>
<!-- 2 -->
<g id="node3" class="node">
<title>2</title>
<g id="a_node3"><a xlink:href="from_sales manager.svg" xlink:title="sales manager">
<ellipse fill="none" stroke="black" cx="216.89" cy="-18" rx="61.19" ry="18"/>
<text text-anchor="middle" x="216.89" y="-14.3" font-family="Times New Roman,serif" font-size="14.00">sales manager</text>
</a>
</g>
</g>
<!-- 0&#45;&gt;2 -->
<g id="edge3" class="edge">
<title>0&#45;&gt;2</title>
<path fill="none" stroke="black" d="M661.01,-95.9C575.84,-84.55 419.24,-62.32 286.89,-36 281.89,-35 276.69,-33.89 271.51,-32.73"/>
<polygon fill="black" stroke="black" points="272.11,-29.28 261.58,-30.44 270.54,-36.1 272.11,-29.28"/>
<text text-anchor="middle" x="482.39" y="-57.8" font-family="Times New Roman,serif" font-size="14.00">0.058</text>
</g>
<!-- 3 -->
<g id="node4" class="node">
<title>3</title>
<g id="a_node4"><a xlink:href="from_pharmacovigilance officer.svg" xlink:title="pharmacovigilance officer">
<ellipse fill="none" stroke="black" cx="400.89" cy="-18" rx="104.78" ry="18"/>
<text text-anchor="middle" x="400.89" y="-14.3" font-family="Times New Roman,serif" font-size="14.00">pharmacovigilance officer</text>
</a>
</g>
</g>
<!-- 0&#45;&gt;3 -->
<g id="edge4" class="edge">
<title>0&#45;&gt;3</title>
<path fill="none" stroke="black" d="M675.89,-91.37C620,-76.66 527.46,-52.31 465.35,-35.96"/>
<polygon fill="black" stroke="black" points="466.22,-32.57 455.66,-33.41 464.44,-39.34 466.22,-32.57"/>
<text text-anchor="middle" x="597.39" y="-57.8" font-family="Times New Roman,serif" font-size="14.00">0.051</text>
</g>
<!-- 4 -->
<g id="node5" class="node">
<title>4</title>
<g id="a_node5"><a xlink:href="from_it consultant.svg" xlink:title="it consultant">
<ellipse fill="none" stroke="black" cx="577.89" cy="-18" rx="54.69" ry="18"/>
<text text-anchor="middle" x="577.89" y="-14.3" font-family="Times New Roman,serif" font-size="14.00">it consultant</text>
</a>
</g>
</g>
<!-- 0&#45;&gt;4 -->
<g id="edge5" class="edge">
<title>0&#45;&gt;4</title>
<path fill="none" stroke="black" d="M696.77,-88.21C673.02,-74.38 638.37,-54.21 612.6,-39.21"/>
<polygon fill="black" stroke="black" points="614.29,-36.14 603.89,-34.13 610.77,-42.19 614.29,-36.14"/>
<text text-anchor="middle" x="675.39" y="-57.8" font-family="Times New Roman,serif" font-size="14.00">0.048</text>
</g>
<!-- 5 -->
<g id="node6" class="node">
<title>5</title>
<g id="a_node6"><a xlink:href="from_logistics manager.svg" xlink:title="logistics manager">
<ellipse fill="none" stroke="black" cx="723.89" cy="-18" rx="73.39" ry="18"/>
<text text-anchor="middle" x="723.89" y="-14.3" font-family="Times New Roman,serif" font-size="14.00">logistics manager</text>
</a>
</g>
</g>
<!-- 0&#45;&gt;5 -->
<g id="edge6" class="edge">
<title>0&#45;&gt;5</title>
<path fill="none" stroke="black" d="M723.89,-86.8C723.89,-75.16 723.89,-59.55 723.89,-46.24"/>
<polygon fill="black" stroke="black" points="727.39,-46.18 723.89,-36.18 720.39,-46.18 727.39,-46.18"/>
<text text-anchor="middle" x="739.39" y="-57.8" font-family="Times New Roman,serif" font-size="14.00">0.035</text>
</g>
<!-- 6 -->
<g id="node7" class="node">
<title>6</title>
<g id="a_node7"><a xlink:href="from_office manager.svg" xlink:title="office manager">
<ellipse fill="none" stroke="black" cx="879.89" cy="-18" rx="64.19" ry="18"/>
<text text-anchor="middle" x="879.89" y="-14.3" font-family="Times New Roman,serif" font-size="14.00">office manager</text>
</a>
</g>
</g>
<!-- 0&#45;&gt;6 -->
<g id="edge7" class="edge">
<title>0&#45;&gt;6</title>
<path fill="none" stroke="black" d="M752.51,-88.41C777.87,-74.59 815.08,-54.31 842.74,-39.24"/>
<polygon fill="black" stroke="black" points="844.62,-42.21 851.73,-34.35 841.27,-36.06 844.62,-42.21"/>
<text text-anchor="middle" x="827.39" y="-57.8" font-family="Times New Roman,serif" font-size="14.00">0.035</text>
</g>
<!-- 7 -->
<g id="node8" class="node">
<title>7</title>
<g id="a_node8"><a xlink:href="from_production manager.svg" xlink:title="production manager">
<ellipse fill="none" stroke="black" cx="1045.89" cy="-18" rx="83.39" ry="18"/>
<text text-anchor="middle" x="1045.89" y="-14.3" font-family="Times New Roman,serif" font-size="14.00">production manager</text>
</a>
</g>
</g>
<!-- 0&#45;&gt;7 -->
<g id="edge8" class="edge">
<title>0&#45;&gt;7</title>
<path fill="none" stroke="black" d="M771.75,-91.37C828.59,-76.36 923.47,-51.32 985.36,-34.98"/>
<polygon fill="black" stroke="black" points="986.61,-38.27 995.38,-32.33 984.82,-31.5 986.61,-38.27"/>
<text text-anchor="middle" x="920.39" y="-57.8" font-family="Times New Roman,serif" font-size="14.00">0.032</text>
</g>
<!-- 8 -->
<g id="node9" class="node">
<title>8</title>
<g id="a_node9"><a xlink:href="from_civil service administrator.svg" xlink:title="civil service administrator">
<ellipse fill="none" stroke="black" cx="1249.89" cy="-18" rx="102.88" ry="18"/>
<text text-anchor="middle" x="1249.89" y="-14.3" font-family="Times New Roman,serif" font-size="14.00">civil service administrator</text>
</a>
</g>
</g>
<!-- 0&#45;&gt;8 -->
<g id="edge9" class="edge">
<title>0&#45;&gt;8</title>
<path fill="none" stroke="black" d="M782.96,-94.46C876.81,-79.29 1060.3,-49.64 1167.19,-32.36"/>
<polygon fill="black" stroke="black" points="1167.98,-35.78 1177.29,-30.73 1166.86,-28.87 1167.98,-35.78"/>
<text text-anchor="middle" x="1034.39" y="-57.8" font-family="Times New Roman,serif" font-size="14.00">0.029</text>
</g>
<!-- 9 -->
<g id="node10" class="node">
<title>9</title>
<g id="a_node10"><a xlink:href="from_financial manager.svg" xlink:title="financial manager">
<ellipse fill="none" stroke="black" cx="1443.89" cy="-18" rx="73.39" ry="18"/>
<text text-anchor="middle" x="1443.89" y="-14.3" font-family="Times New Roman,serif" font-size="14.00">financial manager</text>
</a>
</g>
</g>
<!-- 0&#45;&gt;9 -->
<g id="edge10" class="edge">
<title>0&#45;&gt;9</title>
<path fill="none" stroke="black" d="M792.64,-98.91C909.88,-89.74 1155.83,-68.32 1361.89,-36 1368.21,-35.01 1374.77,-33.86 1381.32,-32.63"/>
<polygon fill="black" stroke="black" points="1382.39,-35.99 1391.54,-30.65 1381.06,-29.11 1382.39,-35.99"/>
<text text-anchor="middle" x="1238.39" y="-57.8" font-family="Times New Roman,serif" font-size="14.00">0.029</text>
</g>
</g>
</svg>
