<?xml version="1.0" encoding="UTF-8" standalone="no"?>
<!DOCTYPE svg PUBLIC "-//W3C//DTD SVG 1.1//EN"
 "http://www.w3.org/Graphics/SVG/1.1/DTD/svg11.dtd">
<!-- Generated by graphviz version 2.44.1 (20200629.0800)
 -->
<!-- Title: test Pages: 1 -->
<svg width="1606pt" height="131pt"
 viewBox="0.00 0.00 1605.88 131.00" xmlns="http://www.w3.org/2000/svg" xmlns:xlink="http://www.w3.org/1999/xlink">
<g id="graph0" class="graph" transform="scale(1 1) rotate(0) translate(4 127)">
<title>test</title>
<polygon fill="white" stroke="transparent" points="-4,4 -4,-127 1601.88,-127 1601.88,4 -4,4"/>
<!-- 0 -->
<g id="node1" class="node">
<title>0</title>
<g id="a_node1"><a xlink:href="from_museum exhibition officer.svg" xlink:title="museum exhibition officer">
<ellipse fill="none" stroke="black" cx="808.69" cy="-105" rx="104.78" ry="18"/>
<text text-anchor="middle" x="808.69" y="-101.3" font-family="Times New Roman,serif" font-size="14.00">museum exhibition officer</text>
</a>
</g>
</g>
<!-- 1 -->
<g id="node2" class="node">
<title>1</title>
<g id="a_node2"><a xlink:href="from_civil service administrator.svg" xlink:title="civil service administrator">
<ellipse fill="none" stroke="black" cx="102.69" cy="-18" rx="102.88" ry="18"/>
<text text-anchor="middle" x="102.69" y="-14.3" font-family="Times New Roman,serif" font-size="14.00">civil service administrator</text>
</a>
</g>
</g>
<!-- 0&#45;&gt;1 -->
<g id="edge1" class="edge">
<title>0&#45;&gt;1</title>
<path fill="none" stroke="black" d="M713.93,-97.29C634.84,-91.26 519.21,-81.45 418.69,-69 337.72,-58.97 245.63,-43.99 181.84,-33.04"/>
<polygon fill="black" stroke="black" points="182.3,-29.57 171.85,-31.32 181.11,-36.47 182.3,-29.57"/>
<text text-anchor="middle" x="434.19" y="-57.8" font-family="Times New Roman,serif" font-size="14.00">0.083</text>
</g>
<!-- 2 -->
<g id="node3" class="node">
<title>2</title>
<g id="a_node3"><a xlink:href="from_retail manager.svg" xlink:title="retail manager">
<ellipse fill="none" stroke="black" cx="283.69" cy="-18" rx="60.39" ry="18"/>
<text text-anchor="middle" x="283.69" y="-14.3" font-family="Times New Roman,serif" font-size="14.00">retail manager</text>
</a>
</g>
</g>
<!-- 0&#45;&gt;2 -->
<g id="edge2" class="edge">
<title>0&#45;&gt;2</title>
<path fill="none" stroke="black" d="M724.34,-94.24C632.62,-82.96 481.97,-62.51 353.69,-36 348.62,-34.95 343.35,-33.8 338.09,-32.6"/>
<polygon fill="black" stroke="black" points="338.56,-29.11 328.02,-30.25 336.97,-35.93 338.56,-29.11"/>
<text text-anchor="middle" x="556.19" y="-57.8" font-family="Times New Roman,serif" font-size="14.00">0.083</text>
</g>
<!-- 3 -->
<g id="node4" class="node">
<title>3</title>
<g id="a_node4"><a xlink:href="from_brand manager.svg" xlink:title="brand manager">
<ellipse fill="none" stroke="black" cx="426.69" cy="-18" rx="64.19" ry="18"/>
<text text-anchor="middle" x="426.69" y="-14.3" font-family="Times New Roman,serif" font-size="14.00">brand manager</text>
</a>
</g>
</g>
<!-- 0&#45;&gt;3 -->
<g id="edge3" class="edge">
<title>0&#45;&gt;3</title>
<path fill="none" stroke="black" d="M745.57,-90.51C715.6,-84.07 679.28,-76.2 646.69,-69 581.73,-54.64 565.55,-50.78 500.69,-36 495.47,-34.81 490.04,-33.57 484.6,-32.33"/>
<polygon fill="black" stroke="black" points="485.38,-28.91 474.85,-30.09 483.82,-35.74 485.38,-28.91"/>
<text text-anchor="middle" x="662.19" y="-57.8" font-family="Times New Roman,serif" font-size="14.00">0.041</text>
</g>
<!-- 4 -->
<g id="node5" class="node">
<title>4</title>
<g id="a_node5"><a xlink:href="from_catering manager.svg" xlink:title="catering manager">
<ellipse fill="none" stroke="black" cx="580.69" cy="-18" rx="71.49" ry="18"/>
<text text-anchor="middle" x="580.69" y="-14.3" font-family="Times New Roman,serif" font-size="14.00">catering manager</text>
</a>
</g>
</g>
<!-- 0&#45;&gt;4 -->
<g id="edge4" class="edge">
<title>0&#45;&gt;4</title>
<path fill="none" stroke="black" d="M766.87,-88.41C727.83,-73.86 669.61,-52.15 628.7,-36.9"/>
<polygon fill="black" stroke="black" points="629.8,-33.57 619.21,-33.36 627.35,-40.13 629.8,-33.57"/>
<text text-anchor="middle" x="724.19" y="-57.8" font-family="Times New Roman,serif" font-size="14.00">0.041</text>
</g>
<!-- 5 -->
<g id="node6" class="node">
<title>5</title>
<g id="a_node6"><a xlink:href="from_civil engineer.svg" xlink:title="civil engineer">
<ellipse fill="none" stroke="black" cx="727.69" cy="-18" rx="57.69" ry="18"/>
<text text-anchor="middle" x="727.69" y="-14.3" font-family="Times New Roman,serif" font-size="14.00">civil engineer</text>
</a>
</g>
</g>
<!-- 0&#45;&gt;5 -->
<g id="edge5" class="edge">
<title>0&#45;&gt;5</title>
<path fill="none" stroke="black" d="M792.69,-87.21C780.63,-74.55 763.93,-57.03 750.47,-42.91"/>
<polygon fill="black" stroke="black" points="752.82,-40.29 743.39,-35.47 747.75,-45.12 752.82,-40.29"/>
<text text-anchor="middle" x="789.19" y="-57.8" font-family="Times New Roman,serif" font-size="14.00">0.041</text>
</g>
<!-- 6 -->
<g id="node7" class="node">
<title>6</title>
<g id="a_node7"><a xlink:href="from_conference organiser.svg" xlink:title="conference organiser">
<ellipse fill="none" stroke="black" cx="889.69" cy="-18" rx="86.38" ry="18"/>
<text text-anchor="middle" x="889.69" y="-14.3" font-family="Times New Roman,serif" font-size="14.00">conference organiser</text>
</a>
</g>
</g>
<!-- 0&#45;&gt;6 -->
<g id="edge6" class="edge">
<title>0&#45;&gt;6</title>
<path fill="none" stroke="black" d="M824.69,-87.21C836.68,-74.63 853.24,-57.25 866.65,-43.18"/>
<polygon fill="black" stroke="black" points="869.36,-45.41 873.72,-35.76 864.29,-40.58 869.36,-45.41"/>
<text text-anchor="middle" x="870.19" y="-57.8" font-family="Times New Roman,serif" font-size="14.00">0.041</text>
</g>
<!-- 7 -->
<g id="node8" class="node">
<title>7</title>
<g id="a_node8"><a xlink:href="from_curator.svg" xlink:title="curator">
<ellipse fill="none" stroke="black" cx="1030.69" cy="-18" rx="36.29" ry="18"/>
<text text-anchor="middle" x="1030.69" y="-14.3" font-family="Times New Roman,serif" font-size="14.00">curator</text>
</a>
</g>
</g>
<!-- 0&#45;&gt;7 -->
<g id="edge7" class="edge">
<title>0&#45;&gt;7</title>
<path fill="none" stroke="black" d="M849.41,-88.41C890.58,-72.65 953.66,-48.5 993.51,-33.24"/>
<polygon fill="black" stroke="black" points="994.78,-36.5 1002.87,-29.65 992.28,-29.96 994.78,-36.5"/>
<text text-anchor="middle" x="949.19" y="-57.8" font-family="Times New Roman,serif" font-size="14.00">0.041</text>
</g>
<!-- 8 -->
<g id="node9" class="node">
<title>8</title>
<g id="a_node9"><a xlink:href="from_education administrator.svg" xlink:title="education administrator">
<ellipse fill="none" stroke="black" cx="1180.69" cy="-18" rx="95.58" ry="18"/>
<text text-anchor="middle" x="1180.69" y="-14.3" font-family="Times New Roman,serif" font-size="14.00">education administrator</text>
</a>
</g>
</g>
<!-- 0&#45;&gt;8 -->
<g id="edge8" class="edge">
<title>0&#45;&gt;8</title>
<path fill="none" stroke="black" d="M871.43,-90.52C900.97,-84.11 936.67,-76.28 968.69,-69 1017.51,-57.9 1072.53,-44.91 1114.28,-34.95"/>
<polygon fill="black" stroke="black" points="1115.15,-38.35 1124.06,-32.62 1113.52,-31.54 1115.15,-38.35"/>
<text text-anchor="middle" x="1049.19" y="-57.8" font-family="Times New Roman,serif" font-size="14.00">0.041</text>
</g>
<!-- 9 -->
<g id="node10" class="node">
<title>9</title>
<g id="a_node10"><a xlink:href="from_facilities manager.svg" xlink:title="facilities manager">
<ellipse fill="none" stroke="black" cx="1366.69" cy="-18" rx="72.59" ry="18"/>
<text text-anchor="middle" x="1366.69" y="-14.3" font-family="Times New Roman,serif" font-size="14.00">facilities manager</text>
</a>
</g>
</g>
<!-- 0&#45;&gt;9 -->
<g id="edge9" class="edge">
<title>0&#45;&gt;9</title>
<path fill="none" stroke="black" d="M892.15,-94.02C987.6,-82.16 1148.43,-60.82 1285.69,-36 1291.58,-34.94 1297.69,-33.77 1303.81,-32.56"/>
<polygon fill="black" stroke="black" points="1304.94,-35.9 1314.05,-30.49 1303.56,-29.04 1304.94,-35.9"/>
<text text-anchor="middle" x="1184.19" y="-57.8" font-family="Times New Roman,serif" font-size="14.00">0.041</text>
</g>
<!-- 10 -->
<g id="node11" class="node">
<title>10</title>
<g id="a_node11"><a xlink:href="from_graphic designer.svg" xlink:title="graphic designer">
<ellipse fill="none" stroke="black" cx="1527.69" cy="-18" rx="70.39" ry="18"/>
<text text-anchor="middle" x="1527.69" y="-14.3" font-family="Times New Roman,serif" font-size="14.00">graphic designer</text>
</a>
</g>
</g>
<!-- 0&#45;&gt;10 -->
<g id="edge10" class="edge">
<title>0&#45;&gt;10</title>
<path fill="none" stroke="black" d="M904.94,-97.82C1030.66,-88.82 1257.31,-69.43 1448.69,-36 1454.53,-34.98 1460.6,-33.83 1466.66,-32.63"/>
<polygon fill="black" stroke="black" points="1467.71,-35.99 1476.81,-30.56 1466.31,-29.13 1467.71,-35.99"/>
<text text-anchor="middle" x="1343.19" y="-57.8" font-family="Times New Roman,serif" font-size="14.00">0.041</text>
</g>
</g>
</svg>
