<?xml version="1.0" encoding="UTF-8" standalone="no"?>
<!DOCTYPE svg PUBLIC "-//W3C//DTD SVG 1.1//EN"
 "http://www.w3.org/Graphics/SVG/1.1/DTD/svg11.dtd">
<!-- Generated by graphviz version 2.44.1 (20200629.0800)
 -->
<!-- Title: press_editor Pages: 1 -->
<svg width="1294pt" height="131pt"
 viewBox="0.00 0.00 1293.99 131.00" xmlns="http://www.w3.org/2000/svg" xmlns:xlink="http://www.w3.org/1999/xlink">
<g id="graph0" class="graph" transform="scale(1 1) rotate(0) translate(4 127)">
<title>press_editor</title>
<polygon fill="white" stroke="transparent" points="-4,4 -4,-127 1289.99,-127 1289.99,4 -4,4"/>
<!-- 0 -->
<g id="node1" class="node">
<title>0</title>
<g id="a_node1"><a xlink:href="from_press editor.svg" xlink:title="press editor">
<ellipse fill="none" stroke="black" cx="575.2" cy="-105" rx="53.89" ry="18"/>
<text text-anchor="middle" x="575.2" y="-101.3" font-family="Times New Roman,serif" font-size="14.00">press editor</text>
</a>
</g>
</g>
<!-- 0&#45;&gt;0 -->
<g id="edge1" class="edge">
<title>0&#45;&gt;0</title>
<path fill="none" stroke="black" d="M623.96,-112.82C637.12,-112.4 647.14,-109.8 647.14,-105 647.14,-101.55 641.97,-99.23 634.17,-98.05"/>
<polygon fill="black" stroke="black" points="634.22,-94.54 623.96,-97.18 633.62,-101.52 634.22,-94.54"/>
<text text-anchor="middle" x="662.64" y="-101.3" font-family="Times New Roman,serif" font-size="14.00">0.206</text>
</g>
<!-- 1 -->
<g id="node2" class="node">
<title>1</title>
<g id="a_node2"><a xlink:href="from_writer.svg" xlink:title="writer">
<ellipse fill="none" stroke="black" cx="31.2" cy="-18" rx="31.4" ry="18"/>
<text text-anchor="middle" x="31.2" y="-14.3" font-family="Times New Roman,serif" font-size="14.00">writer</text>
</a>
</g>
</g>
<!-- 0&#45;&gt;1 -->
<g id="edge2" class="edge">
<title>0&#45;&gt;1</title>
<path fill="none" stroke="black" d="M521.94,-101.83C428.86,-96.94 231.25,-81.64 71.2,-36 68.87,-35.34 66.5,-34.57 64.13,-33.74"/>
<polygon fill="black" stroke="black" points="65.13,-30.38 54.53,-30.06 62.62,-36.91 65.13,-30.38"/>
<text text-anchor="middle" x="222.7" y="-57.8" font-family="Times New Roman,serif" font-size="14.00">0.137</text>
</g>
<!-- 2 -->
<g id="node3" class="node">
<title>2</title>
<g id="a_node3"><a xlink:href="from_commissioning editor.svg" xlink:title="commissioning editor">
<ellipse fill="none" stroke="black" cx="169.2" cy="-18" rx="89.08" ry="18"/>
<text text-anchor="middle" x="169.2" y="-14.3" font-family="Times New Roman,serif" font-size="14.00">commissioning editor</text>
</a>
</g>
</g>
<!-- 0&#45;&gt;2 -->
<g id="edge3" class="edge">
<title>0&#45;&gt;2</title>
<path fill="none" stroke="black" d="M528.12,-96.08C489.18,-89.38 432.46,-79.24 383.2,-69 332.53,-58.47 275.49,-45.06 233.04,-34.78"/>
<polygon fill="black" stroke="black" points="233.67,-31.33 223.12,-32.38 232.02,-38.14 233.67,-31.33"/>
<text text-anchor="middle" x="398.7" y="-57.8" font-family="Times New Roman,serif" font-size="14.00">0.103</text>
</g>
<!-- 3 -->
<g id="node4" class="node">
<title>3</title>
<g id="a_node4"><a xlink:href="from_curator.svg" xlink:title="curator">
<ellipse fill="none" stroke="black" cx="312.2" cy="-18" rx="36.29" ry="18"/>
<text text-anchor="middle" x="312.2" y="-14.3" font-family="Times New Roman,serif" font-size="14.00">curator</text>
</a>
</g>
</g>
<!-- 0&#45;&gt;3 -->
<g id="edge4" class="edge">
<title>0&#45;&gt;3</title>
<path fill="none" stroke="black" d="M536.2,-92.43C492.61,-79.34 420.04,-57.1 358.2,-36 355.48,-35.07 352.68,-34.09 349.86,-33.09"/>
<polygon fill="black" stroke="black" points="350.93,-29.76 340.34,-29.65 348.55,-36.34 350.93,-29.76"/>
<text text-anchor="middle" x="474.7" y="-57.8" font-family="Times New Roman,serif" font-size="14.00">0.068</text>
</g>
<!-- 4 -->
<g id="node5" class="node">
<title>4</title>
<g id="a_node5"><a xlink:href="from_financial manager.svg" xlink:title="financial manager">
<ellipse fill="none" stroke="black" cx="440.2" cy="-18" rx="73.39" ry="18"/>
<text text-anchor="middle" x="440.2" y="-14.3" font-family="Times New Roman,serif" font-size="14.00">financial manager</text>
</a>
</g>
</g>
<!-- 0&#45;&gt;4 -->
<g id="edge5" class="edge">
<title>0&#45;&gt;4</title>
<path fill="none" stroke="black" d="M551.06,-88.8C529.68,-75.34 498.22,-55.53 474.27,-40.45"/>
<polygon fill="black" stroke="black" points="475.83,-37.3 465.5,-34.93 472.1,-43.22 475.83,-37.3"/>
<text text-anchor="middle" x="531.7" y="-57.8" font-family="Times New Roman,serif" font-size="14.00">0.068</text>
</g>
<!-- 5 -->
<g id="node6" class="node">
<title>5</title>
<g id="a_node6"><a xlink:href="from_journalist.svg" xlink:title="journalist">
<ellipse fill="none" stroke="black" cx="575.2" cy="-18" rx="43.59" ry="18"/>
<text text-anchor="middle" x="575.2" y="-14.3" font-family="Times New Roman,serif" font-size="14.00">journalist</text>
</a>
</g>
</g>
<!-- 0&#45;&gt;5 -->
<g id="edge6" class="edge">
<title>0&#45;&gt;5</title>
<path fill="none" stroke="black" d="M575.2,-86.8C575.2,-75.16 575.2,-59.55 575.2,-46.24"/>
<polygon fill="black" stroke="black" points="578.7,-46.18 575.2,-36.18 571.7,-46.18 578.7,-46.18"/>
<text text-anchor="middle" x="590.7" y="-57.8" font-family="Times New Roman,serif" font-size="14.00">0.068</text>
</g>
<!-- 6 -->
<g id="node7" class="node">
<title>6</title>
<g id="a_node7"><a xlink:href="from_production manager.svg" xlink:title="production manager">
<ellipse fill="none" stroke="black" cx="720.2" cy="-18" rx="83.39" ry="18"/>
<text text-anchor="middle" x="720.2" y="-14.3" font-family="Times New Roman,serif" font-size="14.00">production manager</text>
</a>
</g>
</g>
<!-- 0&#45;&gt;6 -->
<g id="edge7" class="edge">
<title>0&#45;&gt;6</title>
<path fill="none" stroke="black" d="M600.79,-89C623.91,-75.44 658.2,-55.34 684.11,-40.15"/>
<polygon fill="black" stroke="black" points="686.04,-43.08 692.89,-35.01 682.5,-37.04 686.04,-43.08"/>
<text text-anchor="middle" x="672.7" y="-57.8" font-family="Times New Roman,serif" font-size="14.00">0.068</text>
</g>
<!-- 7 -->
<g id="node8" class="node">
<title>7</title>
<g id="a_node8"><a xlink:href="from_automotive engineer.svg" xlink:title="automotive engineer">
<ellipse fill="none" stroke="black" cx="904.2" cy="-18" rx="83.39" ry="18"/>
<text text-anchor="middle" x="904.2" y="-14.3" font-family="Times New Roman,serif" font-size="14.00">automotive engineer</text>
</a>
</g>
</g>
<!-- 0&#45;&gt;7 -->
<g id="edge8" class="edge">
<title>0&#45;&gt;7</title>
<path fill="none" stroke="black" d="M616.53,-93.32C673.66,-78.56 777.15,-51.82 843.19,-34.76"/>
<polygon fill="black" stroke="black" points="844.24,-38.11 853.05,-32.21 842.49,-31.33 844.24,-38.11"/>
<text text-anchor="middle" x="775.7" y="-57.8" font-family="Times New Roman,serif" font-size="14.00">0.034</text>
</g>
<!-- 8 -->
<g id="node9" class="node">
<title>8</title>
<g id="a_node9"><a xlink:href="from_catering manager.svg" xlink:title="catering manager">
<ellipse fill="none" stroke="black" cx="1077.2" cy="-18" rx="71.49" ry="18"/>
<text text-anchor="middle" x="1077.2" y="-14.3" font-family="Times New Roman,serif" font-size="14.00">catering manager</text>
</a>
</g>
</g>
<!-- 0&#45;&gt;8 -->
<g id="edge9" class="edge">
<title>0&#45;&gt;8</title>
<path fill="none" stroke="black" d="M623.63,-96.97C702.09,-85.41 861.74,-61.13 996.2,-36 1002.31,-34.86 1008.68,-33.61 1015.04,-32.34"/>
<polygon fill="black" stroke="black" points="1015.88,-35.74 1024.98,-30.31 1014.48,-28.88 1015.88,-35.74"/>
<text text-anchor="middle" x="908.7" y="-57.8" font-family="Times New Roman,serif" font-size="14.00">0.034</text>
</g>
<!-- 9 -->
<g id="node10" class="node">
<title>9</title>
<g id="a_node10"><a xlink:href="from_food scientist.svg" xlink:title="food scientist">
<ellipse fill="none" stroke="black" cx="1226.2" cy="-18" rx="59.59" ry="18"/>
<text text-anchor="middle" x="1226.2" y="-14.3" font-family="Times New Roman,serif" font-size="14.00">food scientist</text>
</a>
</g>
</g>
<!-- 0&#45;&gt;9 -->
<g id="edge10" class="edge">
<title>0&#45;&gt;9</title>
<path fill="none" stroke="black" d="M627.78,-100.55C730.34,-93.22 963.98,-73.63 1157.2,-36 1162.22,-35.02 1167.42,-33.92 1172.61,-32.75"/>
<polygon fill="black" stroke="black" points="1173.59,-36.11 1182.54,-30.44 1172.01,-29.3 1173.59,-36.11"/>
<text text-anchor="middle" x="1062.7" y="-57.8" font-family="Times New Roman,serif" font-size="14.00">0.034</text>
</g>
</g>
</svg>
