<?xml version="1.0" encoding="UTF-8" standalone="no"?>
<!DOCTYPE svg PUBLIC "-//W3C//DTD SVG 1.1//EN"
 "http://www.w3.org/Graphics/SVG/1.1/DTD/svg11.dtd">
<!-- Generated by graphviz version 2.44.1 (20200629.0800)
 -->
<!-- Title: software_developer Pages: 1 -->
<svg width="1382pt" height="131pt"
 viewBox="0.00 0.00 1381.79 131.00" xmlns="http://www.w3.org/2000/svg" xmlns:xlink="http://www.w3.org/1999/xlink">
<g id="graph0" class="graph" transform="scale(1 1) rotate(0) translate(4 127)">
<title>software_developer</title>
<polygon fill="white" stroke="transparent" points="-4,4 -4,-127 1377.79,-127 1377.79,4 -4,4"/>
<!-- 0 -->
<g id="node1" class="node">
<title>0</title>
<g id="a_node1"><a xlink:href="from_software developer.svg" xlink:title="software developer">
<ellipse fill="none" stroke="black" cx="628.6" cy="-105" rx="79.89" ry="18"/>
<text text-anchor="middle" x="628.6" y="-101.3" font-family="Times New Roman,serif" font-size="14.00">software developer</text>
</a>
</g>
</g>
<!-- 0&#45;&gt;0 -->
<g id="edge1" class="edge">
<title>0&#45;&gt;0</title>
<path fill="none" stroke="black" d="M701.21,-112.57C715.97,-111.75 726.54,-109.22 726.54,-105 726.54,-101.83 720.59,-99.62 711.39,-98.36"/>
<polygon fill="black" stroke="black" points="711.49,-94.86 701.21,-97.43 710.84,-101.83 711.49,-94.86"/>
<text text-anchor="middle" x="742.04" y="-101.3" font-family="Times New Roman,serif" font-size="14.00">0.890</text>
</g>
<!-- 1 -->
<g id="node2" class="node">
<title>1</title>
<g id="a_node2"><a xlink:href="from_it consultant.svg" xlink:title="it consultant">
<ellipse fill="none" stroke="black" cx="54.6" cy="-18" rx="54.69" ry="18"/>
<text text-anchor="middle" x="54.6" y="-14.3" font-family="Times New Roman,serif" font-size="14.00">it consultant</text>
</a>
</g>
</g>
<!-- 0&#45;&gt;1 -->
<g id="edge2" class="edge">
<title>0&#45;&gt;1</title>
<path fill="none" stroke="black" d="M553.87,-98.59C483.42,-92.99 375,-83.07 281.6,-69 208.08,-57.92 189.97,-53.03 117.6,-36 113.44,-35.02 109.14,-33.96 104.83,-32.87"/>
<polygon fill="black" stroke="black" points="105.39,-29.4 94.83,-30.27 103.63,-36.17 105.39,-29.4"/>
<text text-anchor="middle" x="297.1" y="-57.8" font-family="Times New Roman,serif" font-size="14.00">0.151</text>
</g>
<!-- 2 -->
<g id="node3" class="node">
<title>2</title>
<g id="a_node3"><a xlink:href="from_qa analyst.svg" xlink:title="qa analyst">
<ellipse fill="none" stroke="black" cx="173.6" cy="-18" rx="46.59" ry="18"/>
<text text-anchor="middle" x="173.6" y="-14.3" font-family="Times New Roman,serif" font-size="14.00">qa analyst</text>
</a>
</g>
</g>
<!-- 0&#45;&gt;2 -->
<g id="edge3" class="edge">
<title>0&#45;&gt;2</title>
<path fill="none" stroke="black" d="M560.98,-95.23C481.18,-84.25 344.77,-63.48 229.6,-36 225.76,-35.08 221.8,-34.06 217.84,-32.97"/>
<polygon fill="black" stroke="black" points="218.65,-29.56 208.07,-30.18 216.72,-36.29 218.65,-29.56"/>
<text text-anchor="middle" x="398.1" y="-57.8" font-family="Times New Roman,serif" font-size="14.00">0.067</text>
</g>
<!-- 3 -->
<g id="node4" class="node">
<title>3</title>
<g id="a_node4"><a xlink:href="from_software architect.svg" xlink:title="software architect">
<ellipse fill="none" stroke="black" cx="313.6" cy="-18" rx="75.29" ry="18"/>
<text text-anchor="middle" x="313.6" y="-14.3" font-family="Times New Roman,serif" font-size="14.00">software architect</text>
</a>
</g>
</g>
<!-- 0&#45;&gt;3 -->
<g id="edge4" class="edge">
<title>0&#45;&gt;3</title>
<path fill="none" stroke="black" d="M579.38,-90.72C523.19,-75.56 431.37,-50.78 371.71,-34.68"/>
<polygon fill="black" stroke="black" points="372.26,-31.21 361.69,-31.98 370.44,-37.96 372.26,-31.21"/>
<text text-anchor="middle" x="506.1" y="-57.8" font-family="Times New Roman,serif" font-size="14.00">0.062</text>
</g>
<!-- 4 -->
<g id="node5" class="node">
<title>4</title>
<g id="a_node5"><a xlink:href="from_technical author.svg" xlink:title="technical author">
<ellipse fill="none" stroke="black" cx="474.6" cy="-18" rx="67.69" ry="18"/>
<text text-anchor="middle" x="474.6" y="-14.3" font-family="Times New Roman,serif" font-size="14.00">technical author</text>
</a>
</g>
</g>
<!-- 0&#45;&gt;4 -->
<g id="edge5" class="edge">
<title>0&#45;&gt;4</title>
<path fill="none" stroke="black" d="M599.63,-88.01C574.66,-74.23 538.46,-54.25 511.44,-39.33"/>
<polygon fill="black" stroke="black" points="513.1,-36.25 502.65,-34.49 509.72,-42.38 513.1,-36.25"/>
<text text-anchor="middle" x="577.1" y="-57.8" font-family="Times New Roman,serif" font-size="14.00">0.055</text>
</g>
<!-- 5 -->
<g id="node6" class="node">
<title>5</title>
<g id="a_node6"><a xlink:href="from_project manager.svg" xlink:title="project manager">
<ellipse fill="none" stroke="black" cx="628.6" cy="-18" rx="68.79" ry="18"/>
<text text-anchor="middle" x="628.6" y="-14.3" font-family="Times New Roman,serif" font-size="14.00">project manager</text>
</a>
</g>
</g>
<!-- 0&#45;&gt;5 -->
<g id="edge6" class="edge">
<title>0&#45;&gt;5</title>
<path fill="none" stroke="black" d="M628.6,-86.8C628.6,-75.16 628.6,-59.55 628.6,-46.24"/>
<polygon fill="black" stroke="black" points="632.1,-46.18 628.6,-36.18 625.1,-46.18 632.1,-46.18"/>
<text text-anchor="middle" x="644.1" y="-57.8" font-family="Times New Roman,serif" font-size="14.00">0.040</text>
</g>
<!-- 6 -->
<g id="node7" class="node">
<title>6</title>
<g id="a_node7"><a xlink:href="from_web designer.svg" xlink:title="web designer">
<ellipse fill="none" stroke="black" cx="773.6" cy="-18" rx="58.49" ry="18"/>
<text text-anchor="middle" x="773.6" y="-14.3" font-family="Times New Roman,serif" font-size="14.00">web designer</text>
</a>
</g>
</g>
<!-- 0&#45;&gt;6 -->
<g id="edge7" class="edge">
<title>0&#45;&gt;6</title>
<path fill="none" stroke="black" d="M655.87,-88.01C679.25,-74.31 713.08,-54.48 738.48,-39.59"/>
<polygon fill="black" stroke="black" points="740.56,-42.42 747.42,-34.34 737.02,-36.38 740.56,-42.42"/>
<text text-anchor="middle" x="726.1" y="-57.8" font-family="Times New Roman,serif" font-size="14.00">0.036</text>
</g>
<!-- 7 -->
<g id="node8" class="node">
<title>7</title>
<g id="a_node8"><a xlink:href="from_pharmacovigilance officer.svg" xlink:title="pharmacovigilance officer">
<ellipse fill="none" stroke="black" cx="954.6" cy="-18" rx="104.78" ry="18"/>
<text text-anchor="middle" x="954.6" y="-14.3" font-family="Times New Roman,serif" font-size="14.00">pharmacovigilance officer</text>
</a>
</g>
</g>
<!-- 0&#45;&gt;7 -->
<g id="edge8" class="edge">
<title>0&#45;&gt;7</title>
<path fill="none" stroke="black" d="M678.82,-90.91C735.44,-76.14 827.68,-52.09 889.72,-35.92"/>
<polygon fill="black" stroke="black" points="890.61,-39.3 899.41,-33.39 888.85,-32.53 890.61,-39.3"/>
<text text-anchor="middle" x="827.1" y="-57.8" font-family="Times New Roman,serif" font-size="14.00">0.032</text>
</g>
<!-- 8 -->
<g id="node9" class="node">
<title>8</title>
<g id="a_node9"><a xlink:href="from_site manager.svg" xlink:title="site manager">
<ellipse fill="none" stroke="black" cx="1133.6" cy="-18" rx="55.79" ry="18"/>
<text text-anchor="middle" x="1133.6" y="-14.3" font-family="Times New Roman,serif" font-size="14.00">site manager</text>
</a>
</g>
</g>
<!-- 0&#45;&gt;8 -->
<g id="edge9" class="edge">
<title>0&#45;&gt;8</title>
<path fill="none" stroke="black" d="M697.2,-95.61C784.1,-84.48 938.23,-63.05 1068.6,-36 1073.27,-35.03 1078.12,-33.93 1082.96,-32.78"/>
<polygon fill="black" stroke="black" points="1083.96,-36.14 1092.83,-30.34 1082.28,-29.34 1083.96,-36.14"/>
<text text-anchor="middle" x="989.1" y="-57.8" font-family="Times New Roman,serif" font-size="14.00">0.030</text>
</g>
<!-- 9 -->
<g id="node10" class="node">
<title>9</title>
<g id="a_node10"><a xlink:href="from_production manager.svg" xlink:title="production manager">
<ellipse fill="none" stroke="black" cx="1290.6" cy="-18" rx="83.39" ry="18"/>
<text text-anchor="middle" x="1290.6" y="-14.3" font-family="Times New Roman,serif" font-size="14.00">production manager</text>
</a>
</g>
</g>
<!-- 0&#45;&gt;9 -->
<g id="edge10" class="edge">
<title>0&#45;&gt;9</title>
<path fill="none" stroke="black" d="M703.78,-98.86C780.58,-93.19 903.19,-82.99 1008.6,-69 1093.56,-57.73 1114.23,-51.12 1198.6,-36 1205.36,-34.79 1212.41,-33.51 1219.45,-32.22"/>
<polygon fill="black" stroke="black" points="1220.54,-35.58 1229.74,-30.34 1219.28,-28.7 1220.54,-35.58"/>
<text text-anchor="middle" x="1117.1" y="-57.8" font-family="Times New Roman,serif" font-size="14.00">0.026</text>
</g>
</g>
</svg>
