<?xml version="1.0" encoding="UTF-8" standalone="no"?>
<!DOCTYPE svg PUBLIC "-//W3C//DTD SVG 1.1//EN"
 "http://www.w3.org/Graphics/SVG/1.1/DTD/svg11.dtd">
<!-- Generated by graphviz version 2.44.1 (20200629.0800)
 -->
<!-- Title: test Pages: 1 -->
<svg width="1570pt" height="131pt"
 viewBox="0.00 0.00 1569.63 131.00" xmlns="http://www.w3.org/2000/svg" xmlns:xlink="http://www.w3.org/1999/xlink">
<g id="graph0" class="graph" transform="scale(1 1) rotate(0) translate(4 127)">
<title>test</title>
<polygon fill="white" stroke="transparent" points="-4,4 -4,-127 1565.63,-127 1565.63,4 -4,4"/>
<!-- 0 -->
<g id="node1" class="node">
<title>0</title>
<g id="a_node1"><a xlink:href="from_public house manager.svg" xlink:title="public house manager">
<ellipse fill="none" stroke="black" cx="799.64" cy="-105" rx="89.88" ry="18"/>
<text text-anchor="middle" x="799.64" y="-101.3" font-family="Times New Roman,serif" font-size="14.00">public house manager</text>
</a>
</g>
</g>
<!-- 0&#45;&gt;0 -->
<g id="edge1" class="edge">
<title>0&#45;&gt;0</title>
<path fill="none" stroke="black" d="M881.35,-112.47C896.6,-111.55 907.33,-109.06 907.33,-105 907.33,-101.92 901.17,-99.75 891.55,-98.47"/>
<polygon fill="black" stroke="black" points="891.63,-94.97 881.35,-97.53 890.98,-101.94 891.63,-94.97"/>
<text text-anchor="middle" x="922.83" y="-101.3" font-family="Times New Roman,serif" font-size="14.00">0.080</text>
</g>
<!-- 1 -->
<g id="node2" class="node">
<title>1</title>
<g id="a_node2"><a xlink:href="from_pharmacovigilance officer.svg" xlink:title="pharmacovigilance officer">
<ellipse fill="none" stroke="black" cx="104.64" cy="-18" rx="104.78" ry="18"/>
<text text-anchor="middle" x="104.64" y="-14.3" font-family="Times New Roman,serif" font-size="14.00">pharmacovigilance officer</text>
</a>
</g>
</g>
<!-- 0&#45;&gt;1 -->
<g id="edge2" class="edge">
<title>0&#45;&gt;1</title>
<path fill="none" stroke="black" d="M718.8,-97.11C646.77,-90.72 538.54,-80.48 444.64,-69 343.88,-56.68 319.06,-50.82 218.64,-36 209.63,-34.67 200.21,-33.28 190.83,-31.88"/>
<polygon fill="black" stroke="black" points="191.08,-28.38 180.67,-30.37 190.05,-35.3 191.08,-28.38"/>
<text text-anchor="middle" x="460.14" y="-57.8" font-family="Times New Roman,serif" font-size="14.00">0.072</text>
</g>
<!-- 2 -->
<g id="node3" class="node">
<title>2</title>
<g id="a_node3"><a xlink:href="from_project manager.svg" xlink:title="project manager">
<ellipse fill="none" stroke="black" cx="296.64" cy="-18" rx="68.79" ry="18"/>
<text text-anchor="middle" x="296.64" y="-14.3" font-family="Times New Roman,serif" font-size="14.00">project manager</text>
</a>
</g>
</g>
<!-- 0&#45;&gt;2 -->
<g id="edge3" class="edge">
<title>0&#45;&gt;2</title>
<path fill="none" stroke="black" d="M728.74,-93.93C644.19,-81.63 498.71,-59.54 374.64,-36 368.88,-34.91 362.9,-33.71 356.92,-32.48"/>
<polygon fill="black" stroke="black" points="357.42,-29.01 346.91,-30.38 355.98,-35.86 357.42,-29.01"/>
<text text-anchor="middle" x="577.14" y="-57.8" font-family="Times New Roman,serif" font-size="14.00">0.058</text>
</g>
<!-- 3 -->
<g id="node4" class="node">
<title>3</title>
<g id="a_node4"><a xlink:href="from_production manager.svg" xlink:title="production manager">
<ellipse fill="none" stroke="black" cx="466.64" cy="-18" rx="83.39" ry="18"/>
<text text-anchor="middle" x="466.64" y="-14.3" font-family="Times New Roman,serif" font-size="14.00">production manager</text>
</a>
</g>
</g>
<!-- 0&#45;&gt;3 -->
<g id="edge4" class="edge">
<title>0&#45;&gt;3</title>
<path fill="none" stroke="black" d="M746.51,-90.44C686.98,-75.24 590.65,-50.65 527.97,-34.66"/>
<polygon fill="black" stroke="black" points="528.77,-31.25 518.22,-32.16 527.04,-38.03 528.77,-31.25"/>
<text text-anchor="middle" x="669.14" y="-57.8" font-family="Times New Roman,serif" font-size="14.00">0.036</text>
</g>
<!-- 4 -->
<g id="node5" class="node">
<title>4</title>
<g id="a_node5"><a xlink:href="from_retail manager.svg" xlink:title="retail manager">
<ellipse fill="none" stroke="black" cx="628.64" cy="-18" rx="60.39" ry="18"/>
<text text-anchor="middle" x="628.64" y="-14.3" font-family="Times New Roman,serif" font-size="14.00">retail manager</text>
</a>
</g>
</g>
<!-- 0&#45;&gt;4 -->
<g id="edge5" class="edge">
<title>0&#45;&gt;4</title>
<path fill="none" stroke="black" d="M767.48,-88.01C739.07,-73.89 697.58,-53.27 667.36,-38.25"/>
<polygon fill="black" stroke="black" points="668.88,-35.1 658.37,-33.78 665.77,-41.36 668.88,-35.1"/>
<text text-anchor="middle" x="740.14" y="-57.8" font-family="Times New Roman,serif" font-size="14.00">0.036</text>
</g>
<!-- 5 -->
<g id="node6" class="node">
<title>5</title>
<g id="a_node6"><a xlink:href="from_broadcasting presenter.svg" xlink:title="broadcasting presenter">
<ellipse fill="none" stroke="black" cx="799.64" cy="-18" rx="92.88" ry="18"/>
<text text-anchor="middle" x="799.64" y="-14.3" font-family="Times New Roman,serif" font-size="14.00">broadcasting presenter</text>
</a>
</g>
</g>
<!-- 0&#45;&gt;5 -->
<g id="edge6" class="edge">
<title>0&#45;&gt;5</title>
<path fill="none" stroke="black" d="M799.64,-86.8C799.64,-75.16 799.64,-59.55 799.64,-46.24"/>
<polygon fill="black" stroke="black" points="803.14,-46.18 799.64,-36.18 796.14,-46.18 803.14,-46.18"/>
<text text-anchor="middle" x="815.14" y="-57.8" font-family="Times New Roman,serif" font-size="14.00">0.029</text>
</g>
<!-- 6 -->
<g id="node7" class="node">
<title>6</title>
<g id="a_node7"><a xlink:href="from_facilities manager.svg" xlink:title="facilities manager">
<ellipse fill="none" stroke="black" cx="983.64" cy="-18" rx="72.59" ry="18"/>
<text text-anchor="middle" x="983.64" y="-14.3" font-family="Times New Roman,serif" font-size="14.00">facilities manager</text>
</a>
</g>
</g>
<!-- 0&#45;&gt;6 -->
<g id="edge7" class="edge">
<title>0&#45;&gt;6</title>
<path fill="none" stroke="black" d="M833.82,-88.21C864.28,-74.14 908.95,-53.5 941.59,-38.42"/>
<polygon fill="black" stroke="black" points="943.27,-41.5 950.88,-34.13 940.34,-35.15 943.27,-41.5"/>
<text text-anchor="middle" x="919.14" y="-57.8" font-family="Times New Roman,serif" font-size="14.00">0.029</text>
</g>
<!-- 7 -->
<g id="node8" class="node">
<title>7</title>
<g id="a_node8"><a xlink:href="from_sales manager.svg" xlink:title="sales manager">
<ellipse fill="none" stroke="black" cx="1135.64" cy="-18" rx="61.19" ry="18"/>
<text text-anchor="middle" x="1135.64" y="-14.3" font-family="Times New Roman,serif" font-size="14.00">sales manager</text>
</a>
</g>
</g>
<!-- 0&#45;&gt;7 -->
<g id="edge8" class="edge">
<title>0&#45;&gt;7</title>
<path fill="none" stroke="black" d="M853.44,-90.48C879.22,-83.99 910.53,-76.11 938.64,-69 986.89,-56.8 1041.78,-42.87 1081.34,-32.81"/>
<polygon fill="black" stroke="black" points="1082.22,-36.2 1091.05,-30.34 1080.5,-29.41 1082.22,-36.2"/>
<text text-anchor="middle" x="1009.14" y="-57.8" font-family="Times New Roman,serif" font-size="14.00">0.029</text>
</g>
<!-- 8 -->
<g id="node9" class="node">
<title>8</title>
<g id="a_node9"><a xlink:href="from_financial manager.svg" xlink:title="financial manager">
<ellipse fill="none" stroke="black" cx="1288.64" cy="-18" rx="73.39" ry="18"/>
<text text-anchor="middle" x="1288.64" y="-14.3" font-family="Times New Roman,serif" font-size="14.00">financial manager</text>
</a>
</g>
</g>
<!-- 0&#45;&gt;8 -->
<g id="edge9" class="edge">
<title>0&#45;&gt;8</title>
<path fill="none" stroke="black" d="M870.15,-93.83C915.48,-87.14 975.61,-77.99 1028.64,-69 1107.54,-55.62 1127.11,-51.36 1205.64,-36 1211.8,-34.8 1218.21,-33.52 1224.62,-32.23"/>
<polygon fill="black" stroke="black" points="1225.54,-35.62 1234.65,-30.2 1224.15,-28.76 1225.54,-35.62"/>
<text text-anchor="middle" x="1127.14" y="-57.8" font-family="Times New Roman,serif" font-size="14.00">0.021</text>
</g>
<!-- 9 -->
<g id="node10" class="node">
<title>9</title>
<g id="a_node10"><a xlink:href="from_fitness centre manager.svg" xlink:title="fitness centre manager">
<ellipse fill="none" stroke="black" cx="1470.64" cy="-18" rx="90.98" ry="18"/>
<text text-anchor="middle" x="1470.64" y="-14.3" font-family="Times New Roman,serif" font-size="14.00">fitness centre manager</text>
</a>
</g>
</g>
<!-- 0&#45;&gt;9 -->
<g id="edge10" class="edge">
<title>0&#45;&gt;9</title>
<path fill="none" stroke="black" d="M880.04,-96.94C950.45,-90.51 1055.46,-80.31 1146.64,-69 1246.51,-56.61 1271.25,-51.77 1370.64,-36 1378.35,-34.78 1386.38,-33.47 1394.39,-32.14"/>
<polygon fill="black" stroke="black" points="1395.22,-35.55 1404.51,-30.45 1394.07,-28.65 1395.22,-35.55"/>
<text text-anchor="middle" x="1271.14" y="-57.8" font-family="Times New Roman,serif" font-size="14.00">0.021</text>
</g>
</g>
</svg>
