<?xml version="1.0" encoding="UTF-8" standalone="no"?>
<!DOCTYPE svg PUBLIC "-//W3C//DTD SVG 1.1//EN"
 "http://www.w3.org/Graphics/SVG/1.1/DTD/svg11.dtd">
<!-- Generated by graphviz version 2.44.1 (20200629.0800)
 -->
<!-- Title: test Pages: 1 -->
<svg width="1453pt" height="131pt"
 viewBox="0.00 0.00 1452.94 131.00" xmlns="http://www.w3.org/2000/svg" xmlns:xlink="http://www.w3.org/1999/xlink">
<g id="graph0" class="graph" transform="scale(1 1) rotate(0) translate(4 127)">
<title>test</title>
<polygon fill="white" stroke="transparent" points="-4,4 -4,-127 1448.94,-127 1448.94,4 -4,4"/>
<!-- 0 -->
<g id="node1" class="node">
<title>0</title>
<g id="a_node1"><a xlink:href="from_corporate banker.svg" xlink:title="corporate banker">
<ellipse fill="none" stroke="black" cx="764.44" cy="-105" rx="72.59" ry="18"/>
<text text-anchor="middle" x="764.44" y="-101.3" font-family="Times New Roman,serif" font-size="14.00">corporate banker</text>
</a>
</g>
</g>
<!-- 0&#45;&gt;0 -->
<g id="edge1" class="edge">
<title>0&#45;&gt;0</title>
<path fill="none" stroke="black" d="M830.55,-112.64C844.86,-111.9 855.24,-109.35 855.24,-105 855.24,-101.77 849.52,-99.54 840.72,-98.29"/>
<polygon fill="black" stroke="black" points="840.83,-94.79 830.55,-97.36 840.19,-101.76 840.83,-94.79"/>
<text text-anchor="middle" x="870.74" y="-101.3" font-family="Times New Roman,serif" font-size="14.00">0.172</text>
</g>
<!-- 1 -->
<g id="node2" class="node">
<title>1</title>
<g id="a_node2"><a xlink:href="from_financial manager.svg" xlink:title="financial manager">
<ellipse fill="none" stroke="black" cx="73.44" cy="-18" rx="73.39" ry="18"/>
<text text-anchor="middle" x="73.44" y="-14.3" font-family="Times New Roman,serif" font-size="14.00">financial manager</text>
</a>
</g>
</g>
<!-- 0&#45;&gt;1 -->
<g id="edge2" class="edge">
<title>0&#45;&gt;1</title>
<path fill="none" stroke="black" d="M694.6,-99.67C613.22,-94.24 474.78,-83.82 356.44,-69 267.05,-57.81 245.03,-52.37 156.44,-36 150.27,-34.86 143.86,-33.63 137.44,-32.37"/>
<polygon fill="black" stroke="black" points="137.9,-28.89 127.41,-30.37 136.53,-35.75 137.9,-28.89"/>
<text text-anchor="middle" x="371.94" y="-57.8" font-family="Times New Roman,serif" font-size="14.00">0.149</text>
</g>
<!-- 2 -->
<g id="node3" class="node">
<title>2</title>
<g id="a_node3"><a xlink:href="from_office manager.svg" xlink:title="office manager">
<ellipse fill="none" stroke="black" cx="229.44" cy="-18" rx="64.19" ry="18"/>
<text text-anchor="middle" x="229.44" y="-14.3" font-family="Times New Roman,serif" font-size="14.00">office manager</text>
</a>
</g>
</g>
<!-- 0&#45;&gt;2 -->
<g id="edge3" class="edge">
<title>0&#45;&gt;2</title>
<path fill="none" stroke="black" d="M698.68,-97.17C640.6,-90.85 553.7,-80.69 478.44,-69 400.23,-56.85 380.92,-52.2 303.44,-36 298.12,-34.89 292.59,-33.69 287.06,-32.47"/>
<polygon fill="black" stroke="black" points="287.67,-29.02 277.15,-30.25 286.15,-35.85 287.67,-29.02"/>
<text text-anchor="middle" x="493.94" y="-57.8" font-family="Times New Roman,serif" font-size="14.00">0.045</text>
</g>
<!-- 3 -->
<g id="node4" class="node">
<title>3</title>
<g id="a_node4"><a xlink:href="from_debt adviser.svg" xlink:title="debt adviser">
<ellipse fill="none" stroke="black" cx="367.44" cy="-18" rx="55.49" ry="18"/>
<text text-anchor="middle" x="367.44" y="-14.3" font-family="Times New Roman,serif" font-size="14.00">debt adviser</text>
</a>
</g>
</g>
<!-- 0&#45;&gt;3 -->
<g id="edge4" class="edge">
<title>0&#45;&gt;3</title>
<path fill="none" stroke="black" d="M707.96,-93.5C641.54,-80.92 528.09,-58.68 431.44,-36 427.11,-34.98 422.62,-33.88 418.12,-32.75"/>
<polygon fill="black" stroke="black" points="418.88,-29.33 408.32,-30.24 417.14,-36.11 418.88,-29.33"/>
<text text-anchor="middle" x="592.94" y="-57.8" font-family="Times New Roman,serif" font-size="14.00">0.034</text>
</g>
<!-- 4 -->
<g id="node5" class="node">
<title>4</title>
<g id="a_node5"><a xlink:href="from_investment fund manager.svg" xlink:title="investment fund manager">
<ellipse fill="none" stroke="black" cx="541.44" cy="-18" rx="100.98" ry="18"/>
<text text-anchor="middle" x="541.44" y="-14.3" font-family="Times New Roman,serif" font-size="14.00">investment fund manager</text>
</a>
</g>
</g>
<!-- 0&#45;&gt;4 -->
<g id="edge5" class="edge">
<title>0&#45;&gt;4</title>
<path fill="none" stroke="black" d="M726.61,-89.58C689.46,-75.42 632.54,-53.72 591.62,-38.13"/>
<polygon fill="black" stroke="black" points="592.69,-34.79 582.1,-34.5 590.2,-41.33 592.69,-34.79"/>
<text text-anchor="middle" x="681.94" y="-57.8" font-family="Times New Roman,serif" font-size="14.00">0.034</text>
</g>
<!-- 5 -->
<g id="node6" class="node">
<title>5</title>
<g id="a_node6"><a xlink:href="from_pharmacovigilance officer.svg" xlink:title="pharmacovigilance officer">
<ellipse fill="none" stroke="black" cx="764.44" cy="-18" rx="104.78" ry="18"/>
<text text-anchor="middle" x="764.44" y="-14.3" font-family="Times New Roman,serif" font-size="14.00">pharmacovigilance officer</text>
</a>
</g>
</g>
<!-- 0&#45;&gt;5 -->
<g id="edge6" class="edge">
<title>0&#45;&gt;5</title>
<path fill="none" stroke="black" d="M764.44,-86.8C764.44,-75.16 764.44,-59.55 764.44,-46.24"/>
<polygon fill="black" stroke="black" points="767.94,-46.18 764.44,-36.18 760.94,-46.18 767.94,-46.18"/>
<text text-anchor="middle" x="779.94" y="-57.8" font-family="Times New Roman,serif" font-size="14.00">0.034</text>
</g>
<!-- 6 -->
<g id="node7" class="node">
<title>6</title>
<g id="a_node7"><a xlink:href="from_project manager.svg" xlink:title="project manager">
<ellipse fill="none" stroke="black" cx="956.44" cy="-18" rx="68.79" ry="18"/>
<text text-anchor="middle" x="956.44" y="-14.3" font-family="Times New Roman,serif" font-size="14.00">project manager</text>
</a>
</g>
</g>
<!-- 0&#45;&gt;6 -->
<g id="edge7" class="edge">
<title>0&#45;&gt;6</title>
<path fill="none" stroke="black" d="M798.33,-89C830.41,-74.8 878.7,-53.42 913.47,-38.02"/>
<polygon fill="black" stroke="black" points="915.17,-41.1 922.9,-33.85 912.34,-34.7 915.17,-41.1"/>
<text text-anchor="middle" x="887.94" y="-57.8" font-family="Times New Roman,serif" font-size="14.00">0.034</text>
</g>
<!-- 7 -->
<g id="node8" class="node">
<title>7</title>
<g id="a_node8"><a xlink:href="from_qa analyst.svg" xlink:title="qa analyst">
<ellipse fill="none" stroke="black" cx="1090.44" cy="-18" rx="46.59" ry="18"/>
<text text-anchor="middle" x="1090.44" y="-14.3" font-family="Times New Roman,serif" font-size="14.00">qa analyst</text>
</a>
</g>
</g>
<!-- 0&#45;&gt;7 -->
<g id="edge8" class="edge">
<title>0&#45;&gt;7</title>
<path fill="none" stroke="black" d="M815.42,-92.05C869.88,-79.08 958.6,-57.36 1034.44,-36 1038.03,-34.99 1041.73,-33.92 1045.45,-32.83"/>
<polygon fill="black" stroke="black" points="1046.67,-36.12 1055.26,-29.92 1044.67,-29.41 1046.67,-36.12"/>
<text text-anchor="middle" x="976.94" y="-57.8" font-family="Times New Roman,serif" font-size="14.00">0.034</text>
</g>
<!-- 8 -->
<g id="node9" class="node">
<title>8</title>
<g id="a_node9"><a xlink:href="from_brand manager.svg" xlink:title="brand manager">
<ellipse fill="none" stroke="black" cx="1219.44" cy="-18" rx="64.19" ry="18"/>
<text text-anchor="middle" x="1219.44" y="-14.3" font-family="Times New Roman,serif" font-size="14.00">brand manager</text>
</a>
</g>
</g>
<!-- 0&#45;&gt;8 -->
<g id="edge9" class="edge">
<title>0&#45;&gt;8</title>
<path fill="none" stroke="black" d="M827.16,-95.69C873.95,-89.22 939.37,-79.57 996.44,-69 1063.56,-56.57 1079.87,-51.07 1146.44,-36 1151.47,-34.86 1156.69,-33.67 1161.92,-32.47"/>
<polygon fill="black" stroke="black" points="1162.99,-35.81 1171.95,-30.15 1161.42,-28.99 1162.99,-35.81"/>
<text text-anchor="middle" x="1084.94" y="-57.8" font-family="Times New Roman,serif" font-size="14.00">0.022</text>
</g>
<!-- 9 -->
<g id="node10" class="node">
<title>9</title>
<g id="a_node10"><a xlink:href="from_catering manager.svg" xlink:title="catering manager">
<ellipse fill="none" stroke="black" cx="1373.44" cy="-18" rx="71.49" ry="18"/>
<text text-anchor="middle" x="1373.44" y="-14.3" font-family="Times New Roman,serif" font-size="14.00">catering manager</text>
</a>
</g>
</g>
<!-- 0&#45;&gt;9 -->
<g id="edge10" class="edge">
<title>0&#45;&gt;9</title>
<path fill="none" stroke="black" d="M832.35,-98.44C901.1,-92.48 1010.4,-82.08 1104.44,-69 1188.47,-57.32 1209.14,-52.05 1292.44,-36 1298.32,-34.87 1304.43,-33.65 1310.53,-32.42"/>
<polygon fill="black" stroke="black" points="1311.68,-35.75 1320.77,-30.32 1310.27,-28.9 1311.68,-35.75"/>
<text text-anchor="middle" x="1214.94" y="-57.8" font-family="Times New Roman,serif" font-size="14.00">0.022</text>
</g>
</g>
</svg>
