<?xml version="1.0" encoding="UTF-8" standalone="no"?>
<!DOCTYPE svg PUBLIC "-//W3C//DTD SVG 1.1//EN"
 "http://www.w3.org/Graphics/SVG/1.1/DTD/svg11.dtd">
<!-- Generated by graphviz version 2.44.1 (20200629.0800)
 -->
<!-- Title: office_manager Pages: 1 -->
<svg width="1526pt" height="131pt"
 viewBox="0.00 0.00 1526.13 131.00" xmlns="http://www.w3.org/2000/svg" xmlns:xlink="http://www.w3.org/1999/xlink">
<g id="graph0" class="graph" transform="scale(1 1) rotate(0) translate(4 127)">
<title>office_manager</title>
<polygon fill="white" stroke="transparent" points="-4,4 -4,-127 1522.13,-127 1522.13,4 -4,4"/>
<!-- 0 -->
<g id="node1" class="node">
<title>0</title>
<g id="a_node1"><a xlink:href="from_office manager.svg" xlink:title="office manager">
<ellipse fill="none" stroke="black" cx="739.64" cy="-105" rx="64.19" ry="18"/>
<text text-anchor="middle" x="739.64" y="-101.3" font-family="Times New Roman,serif" font-size="14.00">office manager</text>
</a>
</g>
</g>
<!-- 0&#45;&gt;0 -->
<g id="edge1" class="edge">
<title>0&#45;&gt;0</title>
<path fill="none" stroke="black" d="M798.11,-112.72C811.85,-112.08 821.99,-109.51 821.99,-105 821.99,-101.69 816.52,-99.42 808.17,-98.2"/>
<polygon fill="black" stroke="black" points="808.39,-94.7 798.11,-97.28 807.75,-101.67 808.39,-94.7"/>
<text text-anchor="middle" x="837.49" y="-101.3" font-family="Times New Roman,serif" font-size="14.00">0.132</text>
</g>
<!-- 1 -->
<g id="node2" class="node">
<title>1</title>
<g id="a_node2"><a xlink:href="from_pharmacovigilance officer.svg" xlink:title="pharmacovigilance officer">
<ellipse fill="none" stroke="black" cx="104.64" cy="-18" rx="104.78" ry="18"/>
<text text-anchor="middle" x="104.64" y="-14.3" font-family="Times New Roman,serif" font-size="14.00">pharmacovigilance officer</text>
</a>
</g>
</g>
<!-- 0&#45;&gt;1 -->
<g id="edge2" class="edge">
<title>0&#45;&gt;1</title>
<path fill="none" stroke="black" d="M680.03,-98.06C617.17,-91.63 515.3,-80.7 427.64,-69 345.69,-58.07 252.39,-43.38 187.21,-32.76"/>
<polygon fill="black" stroke="black" points="187.43,-29.25 177,-31.09 186.3,-36.15 187.43,-29.25"/>
<text text-anchor="middle" x="443.14" y="-57.8" font-family="Times New Roman,serif" font-size="14.00">0.072</text>
</g>
<!-- 2 -->
<g id="node3" class="node">
<title>2</title>
<g id="a_node3"><a xlink:href="from_project manager.svg" xlink:title="project manager">
<ellipse fill="none" stroke="black" cx="296.64" cy="-18" rx="68.79" ry="18"/>
<text text-anchor="middle" x="296.64" y="-14.3" font-family="Times New Roman,serif" font-size="14.00">project manager</text>
</a>
</g>
</g>
<!-- 0&#45;&gt;2 -->
<g id="edge3" class="edge">
<title>0&#45;&gt;2</title>
<path fill="none" stroke="black" d="M686.1,-94.99C645.78,-88.12 589.18,-78.29 539.64,-69 466.14,-55.22 447.85,-51.3 374.64,-36 368.99,-34.82 363.12,-33.57 357.24,-32.31"/>
<polygon fill="black" stroke="black" points="357.9,-28.88 347.38,-30.19 356.42,-35.72 357.9,-28.88"/>
<text text-anchor="middle" x="555.14" y="-57.8" font-family="Times New Roman,serif" font-size="14.00">0.064</text>
</g>
<!-- 3 -->
<g id="node4" class="node">
<title>3</title>
<g id="a_node4"><a xlink:href="from_sales manager.svg" xlink:title="sales manager">
<ellipse fill="none" stroke="black" cx="444.64" cy="-18" rx="61.19" ry="18"/>
<text text-anchor="middle" x="444.64" y="-14.3" font-family="Times New Roman,serif" font-size="14.00">sales manager</text>
</a>
</g>
</g>
<!-- 0&#45;&gt;3 -->
<g id="edge4" class="edge">
<title>0&#45;&gt;3</title>
<path fill="none" stroke="black" d="M696.43,-91.55C643.44,-76.28 553.68,-50.42 496.87,-34.05"/>
<polygon fill="black" stroke="black" points="497.59,-30.61 487.01,-31.21 495.65,-37.34 497.59,-30.61"/>
<text text-anchor="middle" x="626.14" y="-57.8" font-family="Times New Roman,serif" font-size="14.00">0.057</text>
</g>
<!-- 4 -->
<g id="node5" class="node">
<title>4</title>
<g id="a_node5"><a xlink:href="from_catering manager.svg" xlink:title="catering manager">
<ellipse fill="none" stroke="black" cx="595.64" cy="-18" rx="71.49" ry="18"/>
<text text-anchor="middle" x="595.64" y="-14.3" font-family="Times New Roman,serif" font-size="14.00">catering manager</text>
</a>
</g>
</g>
<!-- 0&#45;&gt;4 -->
<g id="edge5" class="edge">
<title>0&#45;&gt;4</title>
<path fill="none" stroke="black" d="M713.23,-88.41C690.13,-74.78 656.4,-54.87 630.99,-39.86"/>
<polygon fill="black" stroke="black" points="632.76,-36.85 622.37,-34.78 629.21,-42.88 632.76,-36.85"/>
<text text-anchor="middle" x="692.14" y="-57.8" font-family="Times New Roman,serif" font-size="14.00">0.048</text>
</g>
<!-- 5 -->
<g id="node6" class="node">
<title>5</title>
<g id="a_node6"><a xlink:href="from_it consultant.svg" xlink:title="it consultant">
<ellipse fill="none" stroke="black" cx="739.64" cy="-18" rx="54.69" ry="18"/>
<text text-anchor="middle" x="739.64" y="-14.3" font-family="Times New Roman,serif" font-size="14.00">it consultant</text>
</a>
</g>
</g>
<!-- 0&#45;&gt;5 -->
<g id="edge6" class="edge">
<title>0&#45;&gt;5</title>
<path fill="none" stroke="black" d="M739.64,-86.8C739.64,-75.16 739.64,-59.55 739.64,-46.24"/>
<polygon fill="black" stroke="black" points="743.14,-46.18 739.64,-36.18 736.14,-46.18 743.14,-46.18"/>
<text text-anchor="middle" x="755.14" y="-57.8" font-family="Times New Roman,serif" font-size="14.00">0.040</text>
</g>
<!-- 6 -->
<g id="node7" class="node">
<title>6</title>
<g id="a_node7"><a xlink:href="from_production manager.svg" xlink:title="production manager">
<ellipse fill="none" stroke="black" cx="895.64" cy="-18" rx="83.39" ry="18"/>
<text text-anchor="middle" x="895.64" y="-14.3" font-family="Times New Roman,serif" font-size="14.00">production manager</text>
</a>
</g>
</g>
<!-- 0&#45;&gt;6 -->
<g id="edge7" class="edge">
<title>0&#45;&gt;6</title>
<path fill="none" stroke="black" d="M767.89,-88.61C792.9,-74.98 829.61,-54.98 857.27,-39.91"/>
<polygon fill="black" stroke="black" points="859.17,-42.86 866.28,-35 855.82,-36.71 859.17,-42.86"/>
<text text-anchor="middle" x="843.14" y="-57.8" font-family="Times New Roman,serif" font-size="14.00">0.038</text>
</g>
<!-- 7 -->
<g id="node8" class="node">
<title>7</title>
<g id="a_node8"><a xlink:href="from_heritage manager.svg" xlink:title="heritage manager">
<ellipse fill="none" stroke="black" cx="1068.64" cy="-18" rx="71.49" ry="18"/>
<text text-anchor="middle" x="1068.64" y="-14.3" font-family="Times New Roman,serif" font-size="14.00">heritage manager</text>
</a>
</g>
</g>
<!-- 0&#45;&gt;7 -->
<g id="edge8" class="edge">
<title>0&#45;&gt;7</title>
<path fill="none" stroke="black" d="M785.39,-92.18C844.21,-76.98 946.42,-50.58 1010.65,-33.98"/>
<polygon fill="black" stroke="black" points="1011.81,-37.3 1020.61,-31.41 1010.06,-30.52 1011.81,-37.3"/>
<text text-anchor="middle" x="940.14" y="-57.8" font-family="Times New Roman,serif" font-size="14.00">0.024</text>
</g>
<!-- 8 -->
<g id="node9" class="node">
<title>8</title>
<g id="a_node9"><a xlink:href="from_financial manager.svg" xlink:title="financial manager">
<ellipse fill="none" stroke="black" cx="1231.64" cy="-18" rx="73.39" ry="18"/>
<text text-anchor="middle" x="1231.64" y="-14.3" font-family="Times New Roman,serif" font-size="14.00">financial manager</text>
</a>
</g>
</g>
<!-- 0&#45;&gt;8 -->
<g id="edge9" class="edge">
<title>0&#45;&gt;8</title>
<path fill="none" stroke="black" d="M794.69,-95.66C873.36,-83.56 1022.4,-59.94 1148.64,-36 1154.81,-34.83 1161.22,-33.58 1167.63,-32.31"/>
<polygon fill="black" stroke="black" points="1168.55,-35.69 1177.66,-30.29 1167.17,-28.83 1168.55,-35.69"/>
<text text-anchor="middle" x="1064.14" y="-57.8" font-family="Times New Roman,serif" font-size="14.00">0.021</text>
</g>
<!-- 9 -->
<g id="node10" class="node">
<title>9</title>
<g id="a_node10"><a xlink:href="from_public affairs consultant.svg" xlink:title="public affairs consultant">
<ellipse fill="none" stroke="black" cx="1420.64" cy="-18" rx="97.48" ry="18"/>
<text text-anchor="middle" x="1420.64" y="-14.3" font-family="Times New Roman,serif" font-size="14.00">public affairs consultant</text>
</a>
</g>
</g>
<!-- 0&#45;&gt;9 -->
<g id="edge10" class="edge">
<title>0&#45;&gt;9</title>
<path fill="none" stroke="black" d="M800,-98.62C868.76,-92.31 984.43,-81.16 1083.64,-69 1186.14,-56.44 1211.53,-51.44 1313.64,-36 1322.15,-34.71 1331.04,-33.34 1339.9,-31.96"/>
<polygon fill="black" stroke="black" points="1340.53,-35.4 1349.87,-30.4 1339.45,-28.49 1340.53,-35.4"/>
<text text-anchor="middle" x="1211.14" y="-57.8" font-family="Times New Roman,serif" font-size="14.00">0.021</text>
</g>
</g>
</svg>
