<?xml version="1.0" encoding="UTF-8" standalone="no"?>
<!DOCTYPE svg PUBLIC "-//W3C//DTD SVG 1.1//EN"
 "http://www.w3.org/Graphics/SVG/1.1/DTD/svg11.dtd">
<!-- Generated by graphviz version 2.44.1 (20200629.0800)
 -->
<!-- Title: aromatherapist Pages: 1 -->
<svg width="1740pt" height="131pt"
 viewBox="0.00 0.00 1739.99 131.00" xmlns="http://www.w3.org/2000/svg" xmlns:xlink="http://www.w3.org/1999/xlink">
<g id="graph0" class="graph" transform="scale(1 1) rotate(0) translate(4 127)">
<title>aromatherapist</title>
<polygon fill="white" stroke="transparent" points="-4,4 -4,-127 1735.99,-127 1735.99,4 -4,4"/>
<!-- 0 -->
<g id="node1" class="node">
<title>0</title>
<g id="a_node1"><a xlink:href="from_aromatherapist.svg" xlink:title="aromatherapist">
<ellipse fill="none" stroke="black" cx="820.04" cy="-105" rx="63.89" ry="18"/>
<text text-anchor="middle" x="820.04" y="-101.3" font-family="Times New Roman,serif" font-size="14.00">aromatherapist</text>
</a>
</g>
</g>
<!-- 0&#45;&gt;0 -->
<g id="edge5" class="edge">
<title>0&#45;&gt;0</title>
<path fill="none" stroke="black" d="M877.68,-112.74C891.5,-112.13 901.74,-109.55 901.74,-105 901.74,-101.66 896.22,-99.38 887.81,-98.16"/>
<polygon fill="black" stroke="black" points="887.95,-94.66 877.68,-97.26 887.33,-101.63 887.95,-94.66"/>
<text text-anchor="middle" x="917.24" y="-101.3" font-family="Times New Roman,serif" font-size="14.00">0.041</text>
</g>
<!-- 1 -->
<g id="node2" class="node">
<title>1</title>
<g id="a_node2"><a xlink:href="from_legal executive.svg" xlink:title="legal executive">
<ellipse fill="none" stroke="black" cx="63.04" cy="-18" rx="63.09" ry="18"/>
<text text-anchor="middle" x="63.04" y="-14.3" font-family="Times New Roman,serif" font-size="14.00">legal executive</text>
</a>
</g>
</g>
<!-- 0&#45;&gt;1 -->
<g id="edge1" class="edge">
<title>0&#45;&gt;1</title>
<path fill="none" stroke="black" d="M757.78,-100.78C636.98,-93.88 362.67,-75.03 135.04,-36 129.66,-35.08 124.09,-33.99 118.52,-32.83"/>
<polygon fill="black" stroke="black" points="119.09,-29.37 108.58,-30.65 117.6,-36.21 119.09,-29.37"/>
<text text-anchor="middle" x="375.54" y="-57.8" font-family="Times New Roman,serif" font-size="14.00">0.083</text>
</g>
<!-- 2 -->
<g id="node3" class="node">
<title>2</title>
<g id="a_node3"><a xlink:href="from_pharmacovigilance officer.svg" xlink:title="pharmacovigilance officer">
<ellipse fill="none" stroke="black" cx="249.04" cy="-18" rx="104.78" ry="18"/>
<text text-anchor="middle" x="249.04" y="-14.3" font-family="Times New Roman,serif" font-size="14.00">pharmacovigilance officer</text>
</a>
</g>
</g>
<!-- 0&#45;&gt;2 -->
<g id="edge2" class="edge">
<title>0&#45;&gt;2</title>
<path fill="none" stroke="black" d="M764.1,-96.27C714.02,-89.31 638.6,-78.7 573.04,-69 491.68,-56.96 398.92,-42.58 333.57,-32.34"/>
<polygon fill="black" stroke="black" points="333.74,-28.82 323.32,-30.73 332.66,-35.74 333.74,-28.82"/>
<text text-anchor="middle" x="588.54" y="-57.8" font-family="Times New Roman,serif" font-size="14.00">0.083</text>
</g>
<!-- 3 -->
<g id="node4" class="node">
<title>3</title>
<g id="a_node4"><a xlink:href="from_project manager.svg" xlink:title="project manager">
<ellipse fill="none" stroke="black" cx="441.04" cy="-18" rx="68.79" ry="18"/>
<text text-anchor="middle" x="441.04" y="-14.3" font-family="Times New Roman,serif" font-size="14.00">project manager</text>
</a>
</g>
</g>
<!-- 0&#45;&gt;3 -->
<g id="edge3" class="edge">
<title>0&#45;&gt;3</title>
<path fill="none" stroke="black" d="M771.66,-93.15C702.71,-77.69 576.28,-49.33 501.33,-32.52"/>
<polygon fill="black" stroke="black" points="502.08,-29.1 491.55,-30.33 500.55,-35.93 502.08,-29.1"/>
<text text-anchor="middle" x="669.54" y="-57.8" font-family="Times New Roman,serif" font-size="14.00">0.083</text>
</g>
<!-- 4 -->
<g id="node5" class="node">
<title>4</title>
<g id="a_node5"><a xlink:href="from_aeronautical engineer.svg" xlink:title="aeronautical engineer">
<ellipse fill="none" stroke="black" cx="614.04" cy="-18" rx="85.59" ry="18"/>
<text text-anchor="middle" x="614.04" y="-14.3" font-family="Times New Roman,serif" font-size="14.00">aeronautical engineer</text>
</a>
</g>
</g>
<!-- 0&#45;&gt;4 -->
<g id="edge4" class="edge">
<title>0&#45;&gt;4</title>
<path fill="none" stroke="black" d="M785.56,-89.77C751.25,-75.61 698.36,-53.79 660.39,-38.12"/>
<polygon fill="black" stroke="black" points="661.65,-34.86 651.07,-34.28 658.98,-41.33 661.65,-34.86"/>
<text text-anchor="middle" x="745.54" y="-57.8" font-family="Times New Roman,serif" font-size="14.00">0.041</text>
</g>
<!-- 5 -->
<g id="node6" class="node">
<title>5</title>
<g id="a_node6"><a xlink:href="from_civil service administrator.svg" xlink:title="civil service administrator">
<ellipse fill="none" stroke="black" cx="820.04" cy="-18" rx="102.88" ry="18"/>
<text text-anchor="middle" x="820.04" y="-14.3" font-family="Times New Roman,serif" font-size="14.00">civil service administrator</text>
</a>
</g>
</g>
<!-- 0&#45;&gt;5 -->
<g id="edge6" class="edge">
<title>0&#45;&gt;5</title>
<path fill="none" stroke="black" d="M820.04,-86.8C820.04,-75.16 820.04,-59.55 820.04,-46.24"/>
<polygon fill="black" stroke="black" points="823.54,-46.18 820.04,-36.18 816.54,-46.18 823.54,-46.18"/>
<text text-anchor="middle" x="835.54" y="-57.8" font-family="Times New Roman,serif" font-size="14.00">0.041</text>
</g>
<!-- 6 -->
<g id="node7" class="node">
<title>6</title>
<g id="a_node7"><a xlink:href="from_conference organiser.svg" xlink:title="conference organiser">
<ellipse fill="none" stroke="black" cx="1027.04" cy="-18" rx="86.38" ry="18"/>
<text text-anchor="middle" x="1027.04" y="-14.3" font-family="Times New Roman,serif" font-size="14.00">conference organiser</text>
</a>
</g>
</g>
<!-- 0&#45;&gt;6 -->
<g id="edge7" class="edge">
<title>0&#45;&gt;6</title>
<path fill="none" stroke="black" d="M854.69,-89.77C889.17,-75.61 942.32,-53.79 980.48,-38.12"/>
<polygon fill="black" stroke="black" points="981.91,-41.32 989.83,-34.28 979.25,-34.84 981.91,-41.32"/>
<text text-anchor="middle" x="951.54" y="-57.8" font-family="Times New Roman,serif" font-size="14.00">0.041</text>
</g>
<!-- 7 -->
<g id="node8" class="node">
<title>7</title>
<g id="a_node8"><a xlink:href="from_education administrator.svg" xlink:title="education administrator">
<ellipse fill="none" stroke="black" cx="1227.04" cy="-18" rx="95.58" ry="18"/>
<text text-anchor="middle" x="1227.04" y="-14.3" font-family="Times New Roman,serif" font-size="14.00">education administrator</text>
</a>
</g>
</g>
<!-- 0&#45;&gt;7 -->
<g id="edge8" class="edge">
<title>0&#45;&gt;7</title>
<path fill="none" stroke="black" d="M869.54,-93.66C941.03,-78.73 1073.56,-51.05 1155.63,-33.91"/>
<polygon fill="black" stroke="black" points="1156.56,-37.3 1165.63,-31.83 1155.13,-30.44 1156.56,-37.3"/>
<text text-anchor="middle" x="1063.54" y="-57.8" font-family="Times New Roman,serif" font-size="14.00">0.041</text>
</g>
<!-- 8 -->
<g id="node9" class="node">
<title>8</title>
<g id="a_node9"><a xlink:href="from_environmental manager.svg" xlink:title="environmental manager">
<ellipse fill="none" stroke="black" cx="1434.04" cy="-18" rx="93.68" ry="18"/>
<text text-anchor="middle" x="1434.04" y="-14.3" font-family="Times New Roman,serif" font-size="14.00">environmental manager</text>
</a>
</g>
</g>
<!-- 0&#45;&gt;8 -->
<g id="edge9" class="edge">
<title>0&#45;&gt;8</title>
<path fill="none" stroke="black" d="M877.34,-97.02C972.08,-85.33 1167.32,-60.66 1332.04,-36 1340,-34.81 1348.29,-33.52 1356.56,-32.19"/>
<polygon fill="black" stroke="black" points="1357.3,-35.62 1366.61,-30.56 1356.18,-28.71 1357.3,-35.62"/>
<text text-anchor="middle" x="1221.54" y="-57.8" font-family="Times New Roman,serif" font-size="14.00">0.041</text>
</g>
<!-- 9 -->
<g id="node10" class="node">
<title>9</title>
<g id="a_node10"><a xlink:href="from_environmental scientist.svg" xlink:title="environmental scientist">
<ellipse fill="none" stroke="black" cx="1639.04" cy="-18" rx="92.88" ry="18"/>
<text text-anchor="middle" x="1639.04" y="-14.3" font-family="Times New Roman,serif" font-size="14.00">environmental scientist</text>
</a>
</g>
</g>
<!-- 0&#45;&gt;9 -->
<g id="edge10" class="edge">
<title>0&#45;&gt;9</title>
<path fill="none" stroke="black" d="M881.64,-99.97C1005.94,-91.45 1295.54,-69.56 1537.04,-36 1545.29,-34.85 1553.89,-33.57 1562.45,-32.22"/>
<polygon fill="black" stroke="black" points="1563.14,-35.66 1572.46,-30.63 1562.03,-28.75 1563.14,-35.66"/>
<text text-anchor="middle" x="1396.54" y="-57.8" font-family="Times New Roman,serif" font-size="14.00">0.041</text>
</g>
</g>
</svg>
