<?xml version="1.0" encoding="UTF-8" standalone="no"?>
<!DOCTYPE svg PUBLIC "-//W3C//DTD SVG 1.1//EN"
 "http://www.w3.org/Graphics/SVG/1.1/DTD/svg11.dtd">
<!-- Generated by graphviz version 2.44.1 (20200629.0800)
 -->
<!-- Title: test Pages: 1 -->
<svg width="1825pt" height="131pt"
 viewBox="0.00 0.00 1825.49 131.00" xmlns="http://www.w3.org/2000/svg" xmlns:xlink="http://www.w3.org/1999/xlink">
<g id="graph0" class="graph" transform="scale(1 1) rotate(0) translate(4 127)">
<title>test</title>
<polygon fill="white" stroke="transparent" points="-4,4 -4,-127 1821.49,-127 1821.49,4 -4,4"/>
<!-- 0 -->
<g id="node1" class="node">
<title>0</title>
<g id="a_node1"><a xlink:href="from_social researcher.svg" xlink:title="social researcher">
<ellipse fill="none" stroke="black" cx="903.7" cy="-105" rx="71.49" ry="18"/>
<text text-anchor="middle" x="903.7" y="-101.3" font-family="Times New Roman,serif" font-size="14.00">social researcher</text>
</a>
</g>
</g>
<!-- 1 -->
<g id="node2" class="node">
<title>1</title>
<g id="a_node2"><a xlink:href="from_lecturer.svg" xlink:title="lecturer">
<ellipse fill="none" stroke="black" cx="37.7" cy="-18" rx="37.89" ry="18"/>
<text text-anchor="middle" x="37.7" y="-14.3" font-family="Times New Roman,serif" font-size="14.00">lecturer</text>
</a>
</g>
</g>
<!-- 0&#45;&gt;1 -->
<g id="edge1" class="edge">
<title>0&#45;&gt;1</title>
<path fill="none" stroke="black" d="M832.07,-104.51C688.49,-104.11 355.98,-96.1 84.7,-36 81.66,-35.33 78.55,-34.51 75.45,-33.6"/>
<polygon fill="black" stroke="black" points="76.27,-30.19 65.68,-30.45 74.13,-36.85 76.27,-30.19"/>
<text text-anchor="middle" x="277.2" y="-57.8" font-family="Times New Roman,serif" font-size="14.00">0.060</text>
</g>
<!-- 2 -->
<g id="node3" class="node">
<title>2</title>
<g id="a_node3"><a xlink:href="from_community education officer.svg" xlink:title="community education officer">
<ellipse fill="none" stroke="black" cx="208.7" cy="-18" rx="115.08" ry="18"/>
<text text-anchor="middle" x="208.7" y="-14.3" font-family="Times New Roman,serif" font-size="14.00">community education officer</text>
</a>
</g>
</g>
<!-- 0&#45;&gt;2 -->
<g id="edge2" class="edge">
<title>0&#45;&gt;2</title>
<path fill="none" stroke="black" d="M839.85,-96.77C734.26,-84.73 516.63,-59.56 332.7,-36 322.57,-34.7 311.98,-33.31 301.45,-31.9"/>
<polygon fill="black" stroke="black" points="301.76,-28.41 291.38,-30.54 300.82,-35.35 301.76,-28.41"/>
<text text-anchor="middle" x="614.2" y="-57.8" font-family="Times New Roman,serif" font-size="14.00">0.030</text>
</g>
<!-- 3 -->
<g id="node4" class="node">
<title>3</title>
<g id="a_node4"><a xlink:href="from_government research officer.svg" xlink:title="government research officer">
<ellipse fill="none" stroke="black" cx="453.7" cy="-18" rx="112.38" ry="18"/>
<text text-anchor="middle" x="453.7" y="-14.3" font-family="Times New Roman,serif" font-size="14.00">government research officer</text>
</a>
</g>
</g>
<!-- 0&#45;&gt;3 -->
<g id="edge3" class="edge">
<title>0&#45;&gt;3</title>
<path fill="none" stroke="black" d="M848.07,-93.49C769.08,-78.57 623.99,-51.17 533.53,-34.08"/>
<polygon fill="black" stroke="black" points="534.06,-30.62 523.59,-32.2 532.77,-37.5 534.06,-30.62"/>
<text text-anchor="middle" x="721.2" y="-57.8" font-family="Times New Roman,serif" font-size="14.00">0.030</text>
</g>
<!-- 4 -->
<g id="node5" class="node">
<title>4</title>
<g id="a_node5"><a xlink:href="from_heritage manager.svg" xlink:title="heritage manager">
<ellipse fill="none" stroke="black" cx="655.7" cy="-18" rx="71.49" ry="18"/>
<text text-anchor="middle" x="655.7" y="-14.3" font-family="Times New Roman,serif" font-size="14.00">heritage manager</text>
</a>
</g>
</g>
<!-- 0&#45;&gt;4 -->
<g id="edge4" class="edge">
<title>0&#45;&gt;4</title>
<path fill="none" stroke="black" d="M863.02,-90.06C820.04,-75.33 752.21,-52.08 705.93,-36.22"/>
<polygon fill="black" stroke="black" points="706.99,-32.88 696.39,-32.95 704.72,-39.5 706.99,-32.88"/>
<text text-anchor="middle" x="810.2" y="-57.8" font-family="Times New Roman,serif" font-size="14.00">0.030</text>
</g>
<!-- 5 -->
<g id="node6" class="node">
<title>5</title>
<g id="a_node6"><a xlink:href="from_marketing assistant.svg" xlink:title="marketing assistant">
<ellipse fill="none" stroke="black" cx="824.7" cy="-18" rx="79.09" ry="18"/>
<text text-anchor="middle" x="824.7" y="-14.3" font-family="Times New Roman,serif" font-size="14.00">marketing assistant</text>
</a>
</g>
</g>
<!-- 0&#45;&gt;5 -->
<g id="edge5" class="edge">
<title>0&#45;&gt;5</title>
<path fill="none" stroke="black" d="M888.09,-87.21C876.4,-74.63 860.25,-57.25 847.17,-43.18"/>
<polygon fill="black" stroke="black" points="849.64,-40.7 840.27,-35.76 844.52,-45.47 849.64,-40.7"/>
<text text-anchor="middle" x="885.2" y="-57.8" font-family="Times New Roman,serif" font-size="14.00">0.030</text>
</g>
<!-- 6 -->
<g id="node7" class="node">
<title>6</title>
<g id="a_node7"><a xlink:href="from_media planner.svg" xlink:title="media planner">
<ellipse fill="none" stroke="black" cx="982.7" cy="-18" rx="61.19" ry="18"/>
<text text-anchor="middle" x="982.7" y="-14.3" font-family="Times New Roman,serif" font-size="14.00">media planner</text>
</a>
</g>
</g>
<!-- 0&#45;&gt;6 -->
<g id="edge6" class="edge">
<title>0&#45;&gt;6</title>
<path fill="none" stroke="black" d="M919.3,-87.21C931.07,-74.55 947.35,-57.03 960.48,-42.91"/>
<polygon fill="black" stroke="black" points="963.15,-45.18 967.39,-35.47 958.02,-40.41 963.15,-45.18"/>
<text text-anchor="middle" x="964.2" y="-57.8" font-family="Times New Roman,serif" font-size="14.00">0.030</text>
</g>
<!-- 7 -->
<g id="node8" class="node">
<title>7</title>
<g id="a_node8"><a xlink:href="from_outdoor pursuits manager.svg" xlink:title="outdoor pursuits manager">
<ellipse fill="none" stroke="black" cx="1165.7" cy="-18" rx="103.98" ry="18"/>
<text text-anchor="middle" x="1165.7" y="-14.3" font-family="Times New Roman,serif" font-size="14.00">outdoor pursuits manager</text>
</a>
</g>
</g>
<!-- 0&#45;&gt;7 -->
<g id="edge7" class="edge">
<title>0&#45;&gt;7</title>
<path fill="none" stroke="black" d="M945.79,-90.34C990.14,-75.96 1060.22,-53.22 1109.31,-37.29"/>
<polygon fill="black" stroke="black" points="1110.41,-40.62 1118.84,-34.2 1108.25,-33.96 1110.41,-40.62"/>
<text text-anchor="middle" x="1066.2" y="-57.8" font-family="Times New Roman,serif" font-size="14.00">0.030</text>
</g>
<!-- 8 -->
<g id="node9" class="node">
<title>8</title>
<g id="a_node9"><a xlink:href="from_pharmacovigilance officer.svg" xlink:title="pharmacovigilance officer">
<ellipse fill="none" stroke="black" cx="1392.7" cy="-18" rx="104.78" ry="18"/>
<text text-anchor="middle" x="1392.7" y="-14.3" font-family="Times New Roman,serif" font-size="14.00">pharmacovigilance officer</text>
</a>
</g>
</g>
<!-- 0&#45;&gt;8 -->
<g id="edge8" class="edge">
<title>0&#45;&gt;8</title>
<path fill="none" stroke="black" d="M960.75,-94.08C1047.46,-79.01 1212.78,-50.27 1311.85,-33.05"/>
<polygon fill="black" stroke="black" points="1312.56,-36.48 1321.81,-31.32 1311.36,-29.59 1312.56,-36.48"/>
<text text-anchor="middle" x="1193.2" y="-57.8" font-family="Times New Roman,serif" font-size="14.00">0.030</text>
</g>
<!-- 9 -->
<g id="node10" class="node">
<title>9</title>
<g id="a_node10"><a xlink:href="from_project manager.svg" xlink:title="project manager">
<ellipse fill="none" stroke="black" cx="1584.7" cy="-18" rx="68.79" ry="18"/>
<text text-anchor="middle" x="1584.7" y="-14.3" font-family="Times New Roman,serif" font-size="14.00">project manager</text>
</a>
</g>
</g>
<!-- 0&#45;&gt;9 -->
<g id="edge9" class="edge">
<title>0&#45;&gt;9</title>
<path fill="none" stroke="black" d="M970.93,-98.68C1082.64,-89.33 1313.36,-67.88 1506.7,-36 1512.8,-34.99 1519.14,-33.82 1525.46,-32.57"/>
<polygon fill="black" stroke="black" points="1526.23,-35.99 1535.33,-30.56 1524.83,-29.13 1526.23,-35.99"/>
<text text-anchor="middle" x="1391.2" y="-57.8" font-family="Times New Roman,serif" font-size="14.00">0.030</text>
</g>
<!-- 10 -->
<g id="node11" class="node">
<title>10</title>
<g id="a_node11"><a xlink:href="from_research scientist.svg" xlink:title="research scientist">
<ellipse fill="none" stroke="black" cx="1744.7" cy="-18" rx="72.59" ry="18"/>
<text text-anchor="middle" x="1744.7" y="-14.3" font-family="Times New Roman,serif" font-size="14.00">research scientist</text>
</a>
</g>
</g>
<!-- 0&#45;&gt;10 -->
<g id="edge10" class="edge">
<title>0&#45;&gt;10</title>
<path fill="none" stroke="black" d="M973.75,-101.38C1108.17,-95.53 1411.25,-78.47 1662.7,-36 1668.91,-34.95 1675.36,-33.77 1681.8,-32.53"/>
<polygon fill="black" stroke="black" points="1682.74,-35.92 1691.87,-30.55 1681.39,-29.05 1682.74,-35.92"/>
<text text-anchor="middle" x="1555.2" y="-57.8" font-family="Times New Roman,serif" font-size="14.00">0.030</text>
</g>
</g>
</svg>
