<?xml version="1.0" encoding="UTF-8" standalone="no"?>
<!DOCTYPE svg PUBLIC "-//W3C//DTD SVG 1.1//EN"
 "http://www.w3.org/Graphics/SVG/1.1/DTD/svg11.dtd">
<!-- Generated by graphviz version 2.44.1 (20200629.0800)
 -->
<!-- Title: tax_inspector Pages: 1 -->
<svg width="1547pt" height="131pt"
 viewBox="0.00 0.00 1547.14 131.00" xmlns="http://www.w3.org/2000/svg" xmlns:xlink="http://www.w3.org/1999/xlink">
<g id="graph0" class="graph" transform="scale(1 1) rotate(0) translate(4 127)">
<title>tax_inspector</title>
<polygon fill="white" stroke="transparent" points="-4,4 -4,-127 1543.14,-127 1543.14,4 -4,4"/>
<!-- 0 -->
<g id="node1" class="node">
<title>0</title>
<g id="a_node1"><a xlink:href="from_tax inspector.svg" xlink:title="tax inspector">
<ellipse fill="none" stroke="black" cx="766.45" cy="-105" rx="57.69" ry="18"/>
<text text-anchor="middle" x="766.45" y="-101.3" font-family="Times New Roman,serif" font-size="14.00">tax inspector</text>
</a>
</g>
</g>
<!-- 0&#45;&gt;0 -->
<g id="edge1" class="edge">
<title>0&#45;&gt;0</title>
<path fill="none" stroke="black" d="M818.91,-112.78C832.26,-112.27 842.29,-109.68 842.29,-105 842.29,-101.6 837,-99.3 828.98,-98.11"/>
<polygon fill="black" stroke="black" points="829.18,-94.61 818.91,-97.22 828.56,-101.58 829.18,-94.61"/>
<text text-anchor="middle" x="857.79" y="-101.3" font-family="Times New Roman,serif" font-size="14.00">0.344</text>
</g>
<!-- 1 -->
<g id="node2" class="node">
<title>1</title>
<g id="a_node2"><a xlink:href="from_lawyer.svg" xlink:title="lawyer">
<ellipse fill="none" stroke="black" cx="34.45" cy="-18" rx="34.39" ry="18"/>
<text text-anchor="middle" x="34.45" y="-14.3" font-family="Times New Roman,serif" font-size="14.00">lawyer</text>
</a>
</g>
</g>
<!-- 0&#45;&gt;1 -->
<g id="edge2" class="edge">
<title>0&#45;&gt;1</title>
<path fill="none" stroke="black" d="M708.37,-104.06C588.64,-102.92 306.5,-93.74 78.45,-36 75.62,-35.28 72.73,-34.44 69.84,-33.51"/>
<polygon fill="black" stroke="black" points="70.76,-30.13 60.17,-30.13 68.45,-36.73 70.76,-30.13"/>
<text text-anchor="middle" x="242.95" y="-57.8" font-family="Times New Roman,serif" font-size="14.00">0.137</text>
</g>
<!-- 2 -->
<g id="node3" class="node">
<title>2</title>
<g id="a_node3"><a xlink:href="from_financial manager.svg" xlink:title="financial manager">
<ellipse fill="none" stroke="black" cx="160.45" cy="-18" rx="73.39" ry="18"/>
<text text-anchor="middle" x="160.45" y="-14.3" font-family="Times New Roman,serif" font-size="14.00">financial manager</text>
</a>
</g>
</g>
<!-- 0&#45;&gt;2 -->
<g id="edge3" class="edge">
<title>0&#45;&gt;2</title>
<path fill="none" stroke="black" d="M712.31,-98.34C617.01,-88.06 413.2,-64.74 242.45,-36 236.24,-34.95 229.78,-33.78 223.34,-32.54"/>
<polygon fill="black" stroke="black" points="223.76,-29.06 213.27,-30.56 222.41,-35.92 223.76,-29.06"/>
<text text-anchor="middle" x="473.95" y="-57.8" font-family="Times New Roman,serif" font-size="14.00">0.103</text>
</g>
<!-- 3 -->
<g id="node4" class="node">
<title>3</title>
<g id="a_node4"><a xlink:href="from_pharmacovigilance officer.svg" xlink:title="pharmacovigilance officer">
<ellipse fill="none" stroke="black" cx="356.45" cy="-18" rx="104.78" ry="18"/>
<text text-anchor="middle" x="356.45" y="-14.3" font-family="Times New Roman,serif" font-size="14.00">pharmacovigilance officer</text>
</a>
</g>
</g>
<!-- 0&#45;&gt;3 -->
<g id="edge4" class="edge">
<title>0&#45;&gt;3</title>
<path fill="none" stroke="black" d="M719.81,-94.33C649.22,-79.7 514.58,-51.78 430.49,-34.35"/>
<polygon fill="black" stroke="black" points="431,-30.88 420.5,-32.28 429.58,-37.74 431,-30.88"/>
<text text-anchor="middle" x="601.95" y="-57.8" font-family="Times New Roman,serif" font-size="14.00">0.103</text>
</g>
<!-- 4 -->
<g id="node5" class="node">
<title>4</title>
<g id="a_node5"><a xlink:href="from_production manager.svg" xlink:title="production manager">
<ellipse fill="none" stroke="black" cx="562.45" cy="-18" rx="83.39" ry="18"/>
<text text-anchor="middle" x="562.45" y="-14.3" font-family="Times New Roman,serif" font-size="14.00">production manager</text>
</a>
</g>
</g>
<!-- 0&#45;&gt;4 -->
<g id="edge5" class="edge">
<title>0&#45;&gt;4</title>
<path fill="none" stroke="black" d="M733.22,-90.15C699.29,-76.02 646.35,-53.96 608.41,-38.15"/>
<polygon fill="black" stroke="black" points="609.69,-34.89 599.11,-34.28 607,-41.35 609.69,-34.89"/>
<text text-anchor="middle" x="692.95" y="-57.8" font-family="Times New Roman,serif" font-size="14.00">0.103</text>
</g>
<!-- 5 -->
<g id="node6" class="node">
<title>5</title>
<g id="a_node6"><a xlink:href="from_civil service administrator.svg" xlink:title="civil service administrator">
<ellipse fill="none" stroke="black" cx="766.45" cy="-18" rx="102.88" ry="18"/>
<text text-anchor="middle" x="766.45" y="-14.3" font-family="Times New Roman,serif" font-size="14.00">civil service administrator</text>
</a>
</g>
</g>
<!-- 0&#45;&gt;5 -->
<g id="edge6" class="edge">
<title>0&#45;&gt;5</title>
<path fill="none" stroke="black" d="M766.45,-86.8C766.45,-75.16 766.45,-59.55 766.45,-46.24"/>
<polygon fill="black" stroke="black" points="769.95,-46.18 766.45,-36.18 762.95,-46.18 769.95,-46.18"/>
<text text-anchor="middle" x="781.95" y="-57.8" font-family="Times New Roman,serif" font-size="14.00">0.068</text>
</g>
<!-- 6 -->
<g id="node7" class="node">
<title>6</title>
<g id="a_node7"><a xlink:href="from_regulatory affairs officer.svg" xlink:title="regulatory affairs officer">
<ellipse fill="none" stroke="black" cx="985.45" cy="-18" rx="98.28" ry="18"/>
<text text-anchor="middle" x="985.45" y="-14.3" font-family="Times New Roman,serif" font-size="14.00">regulatory affairs officer</text>
</a>
</g>
</g>
<!-- 0&#45;&gt;6 -->
<g id="edge7" class="edge">
<title>0&#45;&gt;6</title>
<path fill="none" stroke="black" d="M801.15,-90.53C837.44,-76.45 894.72,-54.21 935.79,-38.27"/>
<polygon fill="black" stroke="black" points="937.28,-41.45 945.34,-34.57 934.75,-34.92 937.28,-41.45"/>
<text text-anchor="middle" x="904.95" y="-57.8" font-family="Times New Roman,serif" font-size="14.00">0.068</text>
</g>
<!-- 7 -->
<g id="node8" class="node">
<title>7</title>
<g id="a_node8"><a xlink:href="from_sales manager.svg" xlink:title="sales manager">
<ellipse fill="none" stroke="black" cx="1162.45" cy="-18" rx="61.19" ry="18"/>
<text text-anchor="middle" x="1162.45" y="-14.3" font-family="Times New Roman,serif" font-size="14.00">sales manager</text>
</a>
</g>
</g>
<!-- 0&#45;&gt;7 -->
<g id="edge8" class="edge">
<title>0&#45;&gt;7</title>
<path fill="none" stroke="black" d="M813.79,-94.63C877.32,-81.94 993.61,-58.3 1092.45,-36 1097.35,-34.89 1102.45,-33.71 1107.54,-32.51"/>
<polygon fill="black" stroke="black" points="1108.39,-35.91 1117.31,-30.19 1106.77,-29.1 1108.39,-35.91"/>
<text text-anchor="middle" x="1018.95" y="-57.8" font-family="Times New Roman,serif" font-size="14.00">0.068</text>
</g>
<!-- 8 -->
<g id="node9" class="node">
<title>8</title>
<g id="a_node9"><a xlink:href="from_accountant.svg" xlink:title="accountant">
<ellipse fill="none" stroke="black" cx="1291.45" cy="-18" rx="50.09" ry="18"/>
<text text-anchor="middle" x="1291.45" y="-14.3" font-family="Times New Roman,serif" font-size="14.00">accountant</text>
</a>
</g>
</g>
<!-- 0&#45;&gt;8 -->
<g id="edge9" class="edge">
<title>0&#45;&gt;8</title>
<path fill="none" stroke="black" d="M821.14,-98.87C908.73,-90.02 1085.59,-69.54 1232.45,-36 1236.48,-35.08 1240.65,-34.05 1244.81,-32.96"/>
<polygon fill="black" stroke="black" points="1245.74,-36.33 1254.47,-30.34 1243.91,-29.58 1245.74,-36.33"/>
<text text-anchor="middle" x="1159.95" y="-57.8" font-family="Times New Roman,serif" font-size="14.00">0.034</text>
</g>
<!-- 9 -->
<g id="node10" class="node">
<title>9</title>
<g id="a_node10"><a xlink:href="from_agricultural consultant.svg" xlink:title="agricultural consultant">
<ellipse fill="none" stroke="black" cx="1449.45" cy="-18" rx="89.88" ry="18"/>
<text text-anchor="middle" x="1449.45" y="-14.3" font-family="Times New Roman,serif" font-size="14.00">agricultural consultant</text>
</a>
</g>
</g>
<!-- 0&#45;&gt;9 -->
<g id="edge10" class="edge">
<title>0&#45;&gt;9</title>
<path fill="none" stroke="black" d="M823.09,-100.97C902.85,-96.31 1052.68,-86.07 1179.45,-69 1248.28,-59.73 1326.21,-44.82 1380.59,-33.69"/>
<polygon fill="black" stroke="black" points="1381.37,-37.1 1390.46,-31.66 1379.96,-30.25 1381.37,-37.1"/>
<text text-anchor="middle" x="1284.95" y="-57.8" font-family="Times New Roman,serif" font-size="14.00">0.034</text>
</g>
</g>
</svg>
