<?xml version="1.0" encoding="UTF-8" standalone="no"?>
<!DOCTYPE svg PUBLIC "-//W3C//DTD SVG 1.1//EN"
 "http://www.w3.org/Graphics/SVG/1.1/DTD/svg11.dtd">
<!-- Generated by graphviz version 2.44.1 (20200629.0800)
 -->
<!-- Title: librarian Pages: 1 -->
<svg width="1533pt" height="131pt"
 viewBox="0.00 0.00 1532.74 131.00" xmlns="http://www.w3.org/2000/svg" xmlns:xlink="http://www.w3.org/1999/xlink">
<g id="graph0" class="graph" transform="scale(1 1) rotate(0) translate(4 127)">
<title>librarian</title>
<polygon fill="white" stroke="transparent" points="-4,4 -4,-127 1528.74,-127 1528.74,4 -4,4"/>
<!-- 0 -->
<g id="node1" class="node">
<title>0</title>
<g id="a_node1"><a xlink:href="from_librarian.svg" xlink:title="librarian">
<ellipse fill="none" stroke="black" cx="784.04" cy="-105" rx="39.79" ry="18"/>
<text text-anchor="middle" x="784.04" y="-101.3" font-family="Times New Roman,serif" font-size="14.00">librarian</text>
</a>
</g>
</g>
<!-- 0&#45;&gt;0 -->
<g id="edge10" class="edge">
<title>0&#45;&gt;0</title>
<path fill="none" stroke="black" d="M819.79,-112.87C831.93,-112.92 841.69,-110.29 841.69,-105 841.69,-101.28 836.87,-98.88 829.78,-97.79"/>
<polygon fill="black" stroke="black" points="830,-94.3 819.79,-97.13 829.53,-101.29 830,-94.3"/>
<text text-anchor="middle" x="857.19" y="-101.3" font-family="Times New Roman,serif" font-size="14.00">0.052</text>
</g>
<!-- 1 -->
<g id="node2" class="node">
<title>1</title>
<g id="a_node2"><a xlink:href="from_academic librarian.svg" xlink:title="academic librarian">
<ellipse fill="none" stroke="black" cx="76.04" cy="-18" rx="76.09" ry="18"/>
<text text-anchor="middle" x="76.04" y="-14.3" font-family="Times New Roman,serif" font-size="14.00">academic librarian</text>
</a>
</g>
</g>
<!-- 0&#45;&gt;1 -->
<g id="edge1" class="edge">
<title>0&#45;&gt;1</title>
<path fill="none" stroke="black" d="M745.21,-101.19C646.95,-93.77 380.65,-71.74 161.04,-36 154.46,-34.93 147.6,-33.72 140.77,-32.45"/>
<polygon fill="black" stroke="black" points="141.28,-28.98 130.81,-30.56 139.98,-35.86 141.28,-28.98"/>
<text text-anchor="middle" x="415.54" y="-57.8" font-family="Times New Roman,serif" font-size="14.00">0.263</text>
</g>
<!-- 2 -->
<g id="node3" class="node">
<title>2</title>
<g id="a_node3"><a xlink:href="from_programme researcher.svg" xlink:title="programme researcher">
<ellipse fill="none" stroke="black" cx="262.04" cy="-18" rx="91.78" ry="18"/>
<text text-anchor="middle" x="262.04" y="-14.3" font-family="Times New Roman,serif" font-size="14.00">programme researcher</text>
</a>
</g>
</g>
<!-- 0&#45;&gt;2 -->
<g id="edge2" class="edge">
<title>0&#45;&gt;2</title>
<path fill="none" stroke="black" d="M746.42,-98.91C698.95,-92.41 614.83,-80.6 543.04,-69 472.55,-57.61 392.39,-43.2 335.77,-32.78"/>
<polygon fill="black" stroke="black" points="336.31,-29.32 325.84,-30.95 335.04,-36.2 336.31,-29.32"/>
<text text-anchor="middle" x="558.54" y="-57.8" font-family="Times New Roman,serif" font-size="14.00">0.105</text>
</g>
<!-- 3 -->
<g id="node4" class="node">
<title>3</title>
<g id="a_node4"><a xlink:href="from_youth worker.svg" xlink:title="youth worker">
<ellipse fill="none" stroke="black" cx="431.04" cy="-18" rx="59.29" ry="18"/>
<text text-anchor="middle" x="431.04" y="-14.3" font-family="Times New Roman,serif" font-size="14.00">youth worker</text>
</a>
</g>
</g>
<!-- 0&#45;&gt;3 -->
<g id="edge3" class="edge">
<title>0&#45;&gt;3</title>
<path fill="none" stroke="black" d="M749.36,-95.85C695.67,-83.21 589.23,-58.03 499.04,-36 494.48,-34.89 489.75,-33.72 485,-32.55"/>
<polygon fill="black" stroke="black" points="485.83,-29.15 475.29,-30.13 484.15,-35.94 485.83,-29.15"/>
<text text-anchor="middle" x="647.54" y="-57.8" font-family="Times New Roman,serif" font-size="14.00">0.105</text>
</g>
<!-- 4 -->
<g id="node5" class="node">
<title>4</title>
<g id="a_node5"><a xlink:href="from_air traffic controller.svg" xlink:title="air traffic controller">
<ellipse fill="none" stroke="black" cx="589.04" cy="-18" rx="80.69" ry="18"/>
<text text-anchor="middle" x="589.04" y="-14.3" font-family="Times New Roman,serif" font-size="14.00">air traffic controller</text>
</a>
</g>
</g>
<!-- 0&#45;&gt;4 -->
<g id="edge4" class="edge">
<title>0&#45;&gt;4</title>
<path fill="none" stroke="black" d="M756.52,-92C724.48,-78.04 671.15,-54.79 633.28,-38.28"/>
<polygon fill="black" stroke="black" points="634.57,-35.03 624.01,-34.24 631.77,-41.44 634.57,-35.03"/>
<text text-anchor="middle" x="714.54" y="-57.8" font-family="Times New Roman,serif" font-size="14.00">0.052</text>
</g>
<!-- 5 -->
<g id="node6" class="node">
<title>5</title>
<g id="a_node6"><a xlink:href="from_computer sales support.svg" xlink:title="computer sales support">
<ellipse fill="none" stroke="black" cx="784.04" cy="-18" rx="96.38" ry="18"/>
<text text-anchor="middle" x="784.04" y="-14.3" font-family="Times New Roman,serif" font-size="14.00">computer sales support</text>
</a>
</g>
</g>
<!-- 0&#45;&gt;5 -->
<g id="edge5" class="edge">
<title>0&#45;&gt;5</title>
<path fill="none" stroke="black" d="M784.04,-86.8C784.04,-75.16 784.04,-59.55 784.04,-46.24"/>
<polygon fill="black" stroke="black" points="787.54,-46.18 784.04,-36.18 780.54,-46.18 787.54,-46.18"/>
<text text-anchor="middle" x="799.54" y="-57.8" font-family="Times New Roman,serif" font-size="14.00">0.052</text>
</g>
<!-- 6 -->
<g id="node7" class="node">
<title>6</title>
<g id="a_node7"><a xlink:href="from_conference organiser.svg" xlink:title="conference organiser">
<ellipse fill="none" stroke="black" cx="985.04" cy="-18" rx="86.38" ry="18"/>
<text text-anchor="middle" x="985.04" y="-14.3" font-family="Times New Roman,serif" font-size="14.00">conference organiser</text>
</a>
</g>
</g>
<!-- 0&#45;&gt;6 -->
<g id="edge6" class="edge">
<title>0&#45;&gt;6</title>
<path fill="none" stroke="black" d="M811.99,-92.18C844.81,-78.3 899.72,-55.08 938.89,-38.52"/>
<polygon fill="black" stroke="black" points="940.64,-41.58 948.48,-34.46 937.91,-35.13 940.64,-41.58"/>
<text text-anchor="middle" x="912.54" y="-57.8" font-family="Times New Roman,serif" font-size="14.00">0.052</text>
</g>
<!-- 7 -->
<g id="node8" class="node">
<title>7</title>
<g id="a_node8"><a xlink:href="from_fitness centre manager.svg" xlink:title="fitness centre manager">
<ellipse fill="none" stroke="black" cx="1180.04" cy="-18" rx="90.98" ry="18"/>
<text text-anchor="middle" x="1180.04" y="-14.3" font-family="Times New Roman,serif" font-size="14.00">fitness centre manager</text>
</a>
</g>
</g>
<!-- 0&#45;&gt;7 -->
<g id="edge7" class="edge">
<title>0&#45;&gt;7</title>
<path fill="none" stroke="black" d="M819.19,-96.46C884.55,-82.43 1025.9,-52.09 1111,-33.82"/>
<polygon fill="black" stroke="black" points="1111.79,-37.23 1120.83,-31.71 1110.32,-30.39 1111.79,-37.23"/>
<text text-anchor="middle" x="1021.54" y="-57.8" font-family="Times New Roman,serif" font-size="14.00">0.052</text>
</g>
<!-- 8 -->
<g id="node9" class="node">
<title>8</title>
<g id="a_node9"><a xlink:href="from_heritage manager.svg" xlink:title="heritage manager">
<ellipse fill="none" stroke="black" cx="1360.04" cy="-18" rx="71.49" ry="18"/>
<text text-anchor="middle" x="1360.04" y="-14.3" font-family="Times New Roman,serif" font-size="14.00">heritage manager</text>
</a>
</g>
</g>
<!-- 0&#45;&gt;8 -->
<g id="edge8" class="edge">
<title>0&#45;&gt;8</title>
<path fill="none" stroke="black" d="M822.15,-99.75C905.49,-90.25 1110.1,-65.75 1280.04,-36 1286.1,-34.94 1292.4,-33.75 1298.68,-32.51"/>
<polygon fill="black" stroke="black" points="1299.4,-35.93 1308.51,-30.52 1298.01,-29.07 1299.4,-35.93"/>
<text text-anchor="middle" x="1173.54" y="-57.8" font-family="Times New Roman,serif" font-size="14.00">0.052</text>
</g>
<!-- 9 -->
<g id="node10" class="node">
<title>9</title>
<g id="a_node10"><a xlink:href="from_lecturer.svg" xlink:title="lecturer">
<ellipse fill="none" stroke="black" cx="1487.04" cy="-18" rx="37.89" ry="18"/>
<text text-anchor="middle" x="1487.04" y="-14.3" font-family="Times New Roman,serif" font-size="14.00">lecturer</text>
</a>
</g>
</g>
<!-- 0&#45;&gt;9 -->
<g id="edge9" class="edge">
<title>0&#45;&gt;9</title>
<path fill="none" stroke="black" d="M823.87,-103.63C927.16,-101.88 1211.49,-91.92 1440.04,-36 1443.06,-35.26 1446.16,-34.4 1449.25,-33.45"/>
<polygon fill="black" stroke="black" points="1450.6,-36.69 1459.01,-30.25 1448.42,-30.04 1450.6,-36.69"/>
<text text-anchor="middle" x="1368.54" y="-57.8" font-family="Times New Roman,serif" font-size="14.00">0.052</text>
</g>
</g>
</svg>
