<?xml version="1.0" encoding="UTF-8" standalone="no"?>
<!DOCTYPE svg PUBLIC "-//W3C//DTD SVG 1.1//EN"
 "http://www.w3.org/Graphics/SVG/1.1/DTD/svg11.dtd">
<!-- Generated by graphviz version 2.44.1 (20200629.0800)
 -->
<!-- Title: test Pages: 1 -->
<svg width="1555pt" height="131pt"
 viewBox="0.00 0.00 1555.38 131.00" xmlns="http://www.w3.org/2000/svg" xmlns:xlink="http://www.w3.org/1999/xlink">
<g id="graph0" class="graph" transform="scale(1 1) rotate(0) translate(4 127)">
<title>test</title>
<polygon fill="white" stroke="transparent" points="-4,4 -4,-127 1551.38,-127 1551.38,4 -4,4"/>
<!-- 0 -->
<g id="node1" class="node">
<title>0</title>
<g id="a_node1"><a xlink:href="from_civil engineer.svg" xlink:title="civil engineer">
<ellipse fill="none" stroke="black" cx="744.69" cy="-105" rx="57.69" ry="18"/>
<text text-anchor="middle" x="744.69" y="-101.3" font-family="Times New Roman,serif" font-size="14.00">civil engineer</text>
</a>
</g>
</g>
<!-- 0&#45;&gt;0 -->
<g id="edge1" class="edge">
<title>0&#45;&gt;0</title>
<path fill="none" stroke="black" d="M797.16,-112.78C810.51,-112.27 820.54,-109.68 820.54,-105 820.54,-101.6 815.24,-99.3 807.23,-98.11"/>
<polygon fill="black" stroke="black" points="807.42,-94.61 797.16,-97.22 806.81,-101.58 807.42,-94.61"/>
<text text-anchor="middle" x="836.04" y="-101.3" font-family="Times New Roman,serif" font-size="14.00">0.375</text>
</g>
<!-- 1 -->
<g id="node2" class="node">
<title>1</title>
<g id="a_node2"><a xlink:href="from_structural engineer.svg" xlink:title="structural engineer">
<ellipse fill="none" stroke="black" cx="76.69" cy="-18" rx="76.89" ry="18"/>
<text text-anchor="middle" x="76.69" y="-14.3" font-family="Times New Roman,serif" font-size="14.00">structural engineer</text>
</a>
</g>
</g>
<!-- 0&#45;&gt;1 -->
<g id="edge2" class="edge">
<title>0&#45;&gt;1</title>
<path fill="none" stroke="black" d="M689.41,-99.38C619.34,-93.33 494.88,-81.96 388.69,-69 287.93,-56.7 262.74,-53.18 162.69,-36 156.14,-34.88 149.32,-33.64 142.52,-32.36"/>
<polygon fill="black" stroke="black" points="143.07,-28.91 132.59,-30.47 141.76,-35.78 143.07,-28.91"/>
<text text-anchor="middle" x="404.19" y="-57.8" font-family="Times New Roman,serif" font-size="14.00">0.118</text>
</g>
<!-- 2 -->
<g id="node3" class="node">
<title>2</title>
<g id="a_node3"><a xlink:href="from_project manager.svg" xlink:title="project manager">
<ellipse fill="none" stroke="black" cx="240.69" cy="-18" rx="68.79" ry="18"/>
<text text-anchor="middle" x="240.69" y="-14.3" font-family="Times New Roman,serif" font-size="14.00">project manager</text>
</a>
</g>
</g>
<!-- 0&#45;&gt;2 -->
<g id="edge3" class="edge">
<title>0&#45;&gt;2</title>
<path fill="none" stroke="black" d="M693.05,-96.74C612.74,-85.22 453.17,-61.46 318.69,-36 312.94,-34.91 306.95,-33.72 300.97,-32.48"/>
<polygon fill="black" stroke="black" points="301.47,-29.01 290.96,-30.38 300.03,-35.86 301.47,-29.01"/>
<text text-anchor="middle" x="521.19" y="-57.8" font-family="Times New Roman,serif" font-size="14.00">0.111</text>
</g>
<!-- 3 -->
<g id="node4" class="node">
<title>3</title>
<g id="a_node4"><a xlink:href="from_mechanical engineer.svg" xlink:title="mechanical engineer">
<ellipse fill="none" stroke="black" cx="410.69" cy="-18" rx="83.39" ry="18"/>
<text text-anchor="middle" x="410.69" y="-14.3" font-family="Times New Roman,serif" font-size="14.00">mechanical engineer</text>
</a>
</g>
</g>
<!-- 0&#45;&gt;3 -->
<g id="edge4" class="edge">
<title>0&#45;&gt;3</title>
<path fill="none" stroke="black" d="M701.37,-92.97C643.03,-78.13 538.87,-51.62 472.37,-34.7"/>
<polygon fill="black" stroke="black" points="472.99,-31.24 462.43,-32.17 471.26,-38.03 472.99,-31.24"/>
<text text-anchor="middle" x="613.19" y="-57.8" font-family="Times New Roman,serif" font-size="14.00">0.092</text>
</g>
<!-- 4 -->
<g id="node5" class="node">
<title>4</title>
<g id="a_node5"><a xlink:href="from_software developer.svg" xlink:title="software developer">
<ellipse fill="none" stroke="black" cx="591.69" cy="-18" rx="79.89" ry="18"/>
<text text-anchor="middle" x="591.69" y="-14.3" font-family="Times New Roman,serif" font-size="14.00">software developer</text>
</a>
</g>
</g>
<!-- 0&#45;&gt;4 -->
<g id="edge5" class="edge">
<title>0&#45;&gt;4</title>
<path fill="none" stroke="black" d="M717.69,-89C693.11,-75.34 656.56,-55.04 629.16,-39.81"/>
<polygon fill="black" stroke="black" points="630.68,-36.66 620.24,-34.86 627.28,-42.78 630.68,-36.66"/>
<text text-anchor="middle" x="693.19" y="-57.8" font-family="Times New Roman,serif" font-size="14.00">0.052</text>
</g>
<!-- 5 -->
<g id="node6" class="node">
<title>5</title>
<g id="a_node6"><a xlink:href="from_it consultant.svg" xlink:title="it consultant">
<ellipse fill="none" stroke="black" cx="744.69" cy="-18" rx="54.69" ry="18"/>
<text text-anchor="middle" x="744.69" y="-14.3" font-family="Times New Roman,serif" font-size="14.00">it consultant</text>
</a>
</g>
</g>
<!-- 0&#45;&gt;5 -->
<g id="edge6" class="edge">
<title>0&#45;&gt;5</title>
<path fill="none" stroke="black" d="M744.69,-86.8C744.69,-75.16 744.69,-59.55 744.69,-46.24"/>
<polygon fill="black" stroke="black" points="748.19,-46.18 744.69,-36.18 741.19,-46.18 748.19,-46.18"/>
<text text-anchor="middle" x="760.19" y="-57.8" font-family="Times New Roman,serif" font-size="14.00">0.046</text>
</g>
<!-- 6 -->
<g id="node7" class="node">
<title>6</title>
<g id="a_node7"><a xlink:href="from_network administrator.svg" xlink:title="network administrator">
<ellipse fill="none" stroke="black" cx="906.69" cy="-18" rx="89.88" ry="18"/>
<text text-anchor="middle" x="906.69" y="-14.3" font-family="Times New Roman,serif" font-size="14.00">network administrator</text>
</a>
</g>
</g>
<!-- 0&#45;&gt;6 -->
<g id="edge7" class="edge">
<title>0&#45;&gt;6</title>
<path fill="none" stroke="black" d="M772.91,-89.19C798.92,-75.55 837.8,-55.15 866.95,-39.85"/>
<polygon fill="black" stroke="black" points="868.81,-42.83 876.04,-35.08 865.56,-36.63 868.81,-42.83"/>
<text text-anchor="middle" x="851.19" y="-57.8" font-family="Times New Roman,serif" font-size="14.00">0.032</text>
</g>
<!-- 7 -->
<g id="node8" class="node">
<title>7</title>
<g id="a_node8"><a xlink:href="from_pharmacovigilance officer.svg" xlink:title="pharmacovigilance officer">
<ellipse fill="none" stroke="black" cx="1118.69" cy="-18" rx="104.78" ry="18"/>
<text text-anchor="middle" x="1118.69" y="-14.3" font-family="Times New Roman,serif" font-size="14.00">pharmacovigilance officer</text>
</a>
</g>
</g>
<!-- 0&#45;&gt;7 -->
<g id="edge8" class="edge">
<title>0&#45;&gt;7</title>
<path fill="none" stroke="black" d="M790.18,-93.66C854.45,-79.05 972.45,-52.24 1048.15,-35.03"/>
<polygon fill="black" stroke="black" points="1049.1,-38.41 1058.08,-32.78 1047.55,-31.58 1049.1,-38.41"/>
<text text-anchor="middle" x="970.19" y="-57.8" font-family="Times New Roman,serif" font-size="14.00">0.032</text>
</g>
<!-- 8 -->
<g id="node9" class="node">
<title>8</title>
<g id="a_node9"><a xlink:href="from_architect.svg" xlink:title="architect">
<ellipse fill="none" stroke="black" cx="1282.69" cy="-18" rx="41.69" ry="18"/>
<text text-anchor="middle" x="1282.69" y="-14.3" font-family="Times New Roman,serif" font-size="14.00">architect</text>
</a>
</g>
</g>
<!-- 0&#45;&gt;8 -->
<g id="edge9" class="edge">
<title>0&#45;&gt;8</title>
<path fill="none" stroke="black" d="M800.21,-99.71C891.43,-91.89 1078.31,-72.65 1232.69,-36 1235.9,-35.24 1239.2,-34.35 1242.5,-33.4"/>
<polygon fill="black" stroke="black" points="1243.77,-36.67 1252.29,-30.36 1241.7,-29.98 1243.77,-36.67"/>
<text text-anchor="middle" x="1156.19" y="-57.8" font-family="Times New Roman,serif" font-size="14.00">0.019</text>
</g>
<!-- 9 -->
<g id="node10" class="node">
<title>9</title>
<g id="a_node10"><a xlink:href="from_civil service administrator.svg" xlink:title="civil service administrator">
<ellipse fill="none" stroke="black" cx="1444.69" cy="-18" rx="102.88" ry="18"/>
<text text-anchor="middle" x="1444.69" y="-14.3" font-family="Times New Roman,serif" font-size="14.00">civil service administrator</text>
</a>
</g>
</g>
<!-- 0&#45;&gt;9 -->
<g id="edge10" class="edge">
<title>0&#45;&gt;9</title>
<path fill="none" stroke="black" d="M801.37,-101.26C883.96,-96.84 1042.12,-86.79 1175.69,-69 1242.96,-60.04 1318.92,-45.51 1372.92,-34.42"/>
<polygon fill="black" stroke="black" points="1373.66,-37.84 1382.75,-32.39 1372.24,-30.98 1373.66,-37.84"/>
<text text-anchor="middle" x="1281.19" y="-57.8" font-family="Times New Roman,serif" font-size="14.00">0.019</text>
</g>
</g>
</svg>
