<?xml version="1.0" encoding="UTF-8" standalone="no"?>
<!DOCTYPE svg PUBLIC "-//W3C//DTD SVG 1.1//EN"
 "http://www.w3.org/Graphics/SVG/1.1/DTD/svg11.dtd">
<!-- Generated by graphviz version 2.44.1 (20200629.0800)
 -->
<!-- Title: courier Pages: 1 -->
<svg width="1722pt" height="131pt"
 viewBox="0.00 0.00 1721.94 131.00" xmlns="http://www.w3.org/2000/svg" xmlns:xlink="http://www.w3.org/1999/xlink">
<g id="graph0" class="graph" transform="scale(1 1) rotate(0) translate(4 127)">
<title>courier</title>
<polygon fill="white" stroke="transparent" points="-4,4 -4,-127 1717.94,-127 1717.94,4 -4,4"/>
<!-- 0 -->
<g id="node1" class="node">
<title>0</title>
<g id="a_node1"><a xlink:href="from_courier.svg" xlink:title="courier">
<ellipse fill="none" stroke="black" cx="750.44" cy="-105" rx="36.29" ry="18"/>
<text text-anchor="middle" x="750.44" y="-101.3" font-family="Times New Roman,serif" font-size="14.00">courier</text>
</a>
</g>
</g>
<!-- 0&#45;&gt;0 -->
<g id="edge1" class="edge">
<title>0&#45;&gt;0</title>
<path fill="none" stroke="black" d="M783.37,-112.87C795.2,-113.04 804.84,-110.41 804.84,-105 804.84,-101.28 800.28,-98.88 793.59,-97.79"/>
<polygon fill="black" stroke="black" points="793.58,-94.28 783.37,-97.13 793.13,-101.27 793.58,-94.28"/>
<text text-anchor="middle" x="820.34" y="-101.3" font-family="Times New Roman,serif" font-size="14.00">0.125</text>
</g>
<!-- 1 -->
<g id="node2" class="node">
<title>1</title>
<g id="a_node2"><a xlink:href="from_logistics manager.svg" xlink:title="logistics manager">
<ellipse fill="none" stroke="black" cx="73.44" cy="-18" rx="73.39" ry="18"/>
<text text-anchor="middle" x="73.44" y="-14.3" font-family="Times New Roman,serif" font-size="14.00">logistics manager</text>
</a>
</g>
</g>
<!-- 0&#45;&gt;1 -->
<g id="edge2" class="edge">
<title>0&#45;&gt;1</title>
<path fill="none" stroke="black" d="M714.55,-101.46C646.77,-96.5 495.35,-84.63 368.44,-69 273.37,-57.29 249.71,-53.06 155.44,-36 149.34,-34.9 143,-33.69 136.66,-32.44"/>
<polygon fill="black" stroke="black" points="137.23,-28.99 126.74,-30.46 135.86,-35.85 137.23,-28.99"/>
<text text-anchor="middle" x="383.94" y="-57.8" font-family="Times New Roman,serif" font-size="14.00">0.125</text>
</g>
<!-- 2 -->
<g id="node3" class="node">
<title>2</title>
<g id="a_node3"><a xlink:href="from_advertising copywriter.svg" xlink:title="advertising copywriter">
<ellipse fill="none" stroke="black" cx="255.44" cy="-18" rx="90.98" ry="18"/>
<text text-anchor="middle" x="255.44" y="-14.3" font-family="Times New Roman,serif" font-size="14.00">advertising copywriter</text>
</a>
</g>
</g>
<!-- 0&#45;&gt;2 -->
<g id="edge3" class="edge">
<title>0&#45;&gt;2</title>
<path fill="none" stroke="black" d="M714.81,-100.55C662.38,-95.22 561.45,-84.01 476.44,-69 423.07,-59.58 363.14,-45.81 319.17,-35.11"/>
<polygon fill="black" stroke="black" points="319.74,-31.65 309.19,-32.67 318.07,-38.45 319.74,-31.65"/>
<text text-anchor="middle" x="491.94" y="-57.8" font-family="Times New Roman,serif" font-size="14.00">0.062</text>
</g>
<!-- 3 -->
<g id="node4" class="node">
<title>3</title>
<g id="a_node4"><a xlink:href="from_auditor.svg" xlink:title="auditor">
<ellipse fill="none" stroke="black" cx="400.44" cy="-18" rx="36.29" ry="18"/>
<text text-anchor="middle" x="400.44" y="-14.3" font-family="Times New Roman,serif" font-size="14.00">auditor</text>
</a>
</g>
</g>
<!-- 0&#45;&gt;3 -->
<g id="edge4" class="edge">
<title>0&#45;&gt;3</title>
<path fill="none" stroke="black" d="M716.65,-98.09C659.96,-87.81 542.39,-64.96 445.44,-36 442.83,-35.22 440.16,-34.36 437.47,-33.46"/>
<polygon fill="black" stroke="black" points="438.43,-30.09 427.84,-30.05 436.1,-36.69 438.43,-30.09"/>
<text text-anchor="middle" x="585.94" y="-57.8" font-family="Times New Roman,serif" font-size="14.00">0.062</text>
</g>
<!-- 4 -->
<g id="node5" class="node">
<title>4</title>
<g id="a_node5"><a xlink:href="from_civil service administrator.svg" xlink:title="civil service administrator">
<ellipse fill="none" stroke="black" cx="557.44" cy="-18" rx="102.88" ry="18"/>
<text text-anchor="middle" x="557.44" y="-14.3" font-family="Times New Roman,serif" font-size="14.00">civil service administrator</text>
</a>
</g>
</g>
<!-- 0&#45;&gt;4 -->
<g id="edge5" class="edge">
<title>0&#45;&gt;4</title>
<path fill="none" stroke="black" d="M724.01,-92.36C692.89,-78.65 640.67,-55.66 602.99,-39.06"/>
<polygon fill="black" stroke="black" points="604.31,-35.82 593.75,-34.99 601.49,-42.22 604.31,-35.82"/>
<text text-anchor="middle" x="681.94" y="-57.8" font-family="Times New Roman,serif" font-size="14.00">0.062</text>
</g>
<!-- 5 -->
<g id="node6" class="node">
<title>5</title>
<g id="a_node6"><a xlink:href="from_corporate banker.svg" xlink:title="corporate banker">
<ellipse fill="none" stroke="black" cx="750.44" cy="-18" rx="72.59" ry="18"/>
<text text-anchor="middle" x="750.44" y="-14.3" font-family="Times New Roman,serif" font-size="14.00">corporate banker</text>
</a>
</g>
</g>
<!-- 0&#45;&gt;5 -->
<g id="edge6" class="edge">
<title>0&#45;&gt;5</title>
<path fill="none" stroke="black" d="M750.44,-86.8C750.44,-75.16 750.44,-59.55 750.44,-46.24"/>
<polygon fill="black" stroke="black" points="753.94,-46.18 750.44,-36.18 746.94,-46.18 753.94,-46.18"/>
<text text-anchor="middle" x="765.94" y="-57.8" font-family="Times New Roman,serif" font-size="14.00">0.062</text>
</g>
<!-- 6 -->
<g id="node7" class="node">
<title>6</title>
<g id="a_node7"><a xlink:href="from_facilities manager.svg" xlink:title="facilities manager">
<ellipse fill="none" stroke="black" cx="914.44" cy="-18" rx="72.59" ry="18"/>
<text text-anchor="middle" x="914.44" y="-14.3" font-family="Times New Roman,serif" font-size="14.00">facilities manager</text>
</a>
</g>
</g>
<!-- 0&#45;&gt;6 -->
<g id="edge7" class="edge">
<title>0&#45;&gt;6</title>
<path fill="none" stroke="black" d="M774.64,-91.46C801.24,-77.67 844.35,-55.33 875.67,-39.09"/>
<polygon fill="black" stroke="black" points="877.31,-42.19 884.58,-34.48 874.09,-35.97 877.31,-42.19"/>
<text text-anchor="middle" x="857.94" y="-57.8" font-family="Times New Roman,serif" font-size="14.00">0.062</text>
</g>
<!-- 7 -->
<g id="node8" class="node">
<title>7</title>
<g id="a_node8"><a xlink:href="from_geographical information systems manager.svg" xlink:title="geographical information systems manager">
<ellipse fill="none" stroke="black" cx="1170.44" cy="-18" rx="165.17" ry="18"/>
<text text-anchor="middle" x="1170.44" y="-14.3" font-family="Times New Roman,serif" font-size="14.00">geographical information systems manager</text>
</a>
</g>
</g>
<!-- 0&#45;&gt;7 -->
<g id="edge8" class="edge">
<title>0&#45;&gt;7</title>
<path fill="none" stroke="black" d="M783.4,-97.33C847.96,-84.26 992.87,-54.94 1085.91,-36.11"/>
<polygon fill="black" stroke="black" points="1086.76,-39.51 1095.87,-34.09 1085.37,-32.65 1086.76,-39.51"/>
<text text-anchor="middle" x="1001.94" y="-57.8" font-family="Times New Roman,serif" font-size="14.00">0.062</text>
</g>
<!-- 8 -->
<g id="node9" class="node">
<title>8</title>
<g id="a_node9"><a xlink:href="from_health and safety adviser.svg" xlink:title="health and safety adviser">
<ellipse fill="none" stroke="black" cx="1453.44" cy="-18" rx="99.38" ry="18"/>
<text text-anchor="middle" x="1453.44" y="-14.3" font-family="Times New Roman,serif" font-size="14.00">health and safety adviser</text>
</a>
</g>
</g>
<!-- 0&#45;&gt;8 -->
<g id="edge9" class="edge">
<title>0&#45;&gt;8</title>
<path fill="none" stroke="black" d="M785.99,-100.44C878.28,-91.09 1133.06,-64.57 1344.44,-36 1353.36,-34.79 1362.68,-33.46 1371.95,-32.08"/>
<polygon fill="black" stroke="black" points="1372.6,-35.52 1381.97,-30.57 1371.56,-28.6 1372.6,-35.52"/>
<text text-anchor="middle" x="1213.94" y="-57.8" font-family="Times New Roman,serif" font-size="14.00">0.062</text>
</g>
<!-- 9 -->
<g id="node10" class="node">
<title>9</title>
<g id="a_node10"><a xlink:href="from_heritage manager.svg" xlink:title="heritage manager">
<ellipse fill="none" stroke="black" cx="1642.44" cy="-18" rx="71.49" ry="18"/>
<text text-anchor="middle" x="1642.44" y="-14.3" font-family="Times New Roman,serif" font-size="14.00">heritage manager</text>
</a>
</g>
</g>
<!-- 0&#45;&gt;9 -->
<g id="edge10" class="edge">
<title>0&#45;&gt;9</title>
<path fill="none" stroke="black" d="M786.63,-102.77C900.95,-98.5 1264.38,-81.98 1561.44,-36 1567.78,-35.02 1574.37,-33.86 1580.93,-32.62"/>
<polygon fill="black" stroke="black" points="1582.03,-35.97 1591.17,-30.62 1580.69,-29.11 1582.03,-35.97"/>
<text text-anchor="middle" x="1445.94" y="-57.8" font-family="Times New Roman,serif" font-size="14.00">0.062</text>
</g>
</g>
</svg>
