<?xml version="1.0" encoding="UTF-8" standalone="no"?>
<!DOCTYPE svg PUBLIC "-//W3C//DTD SVG 1.1//EN"
 "http://www.w3.org/Graphics/SVG/1.1/DTD/svg11.dtd">
<!-- Generated by graphviz version 2.44.1 (20200629.0800)
 -->
<!-- Title: environmental_manager Pages: 1 -->
<svg width="1666pt" height="131pt"
 viewBox="0.00 0.00 1666.49 131.00" xmlns="http://www.w3.org/2000/svg" xmlns:xlink="http://www.w3.org/1999/xlink">
<g id="graph0" class="graph" transform="scale(1 1) rotate(0) translate(4 127)">
<title>environmental_manager</title>
<polygon fill="white" stroke="transparent" points="-4,4 -4,-127 1662.49,-127 1662.49,4 -4,4"/>
<!-- 0 -->
<g id="node1" class="node">
<title>0</title>
<g id="a_node1"><a xlink:href="from_environmental manager.svg" xlink:title="environmental manager">
<ellipse fill="none" stroke="black" cx="852.89" cy="-105" rx="93.68" ry="18"/>
<text text-anchor="middle" x="852.89" y="-101.3" font-family="Times New Roman,serif" font-size="14.00">environmental manager</text>
</a>
</g>
</g>
<!-- 0&#45;&gt;0 -->
<g id="edge1" class="edge">
<title>0&#45;&gt;0</title>
<path fill="none" stroke="black" d="M938.51,-112.41C953.8,-111.45 964.49,-108.98 964.49,-105 964.49,-101.99 958.35,-99.84 948.73,-98.55"/>
<polygon fill="black" stroke="black" points="948.8,-95.04 938.51,-97.59 948.14,-102.01 948.8,-95.04"/>
<text text-anchor="middle" x="979.99" y="-101.3" font-family="Times New Roman,serif" font-size="14.00">0.305</text>
</g>
<!-- 1 -->
<g id="node2" class="node">
<title>1</title>
<g id="a_node2"><a xlink:href="from_project manager.svg" xlink:title="project manager">
<ellipse fill="none" stroke="black" cx="68.89" cy="-18" rx="68.79" ry="18"/>
<text text-anchor="middle" x="68.89" y="-14.3" font-family="Times New Roman,serif" font-size="14.00">project manager</text>
</a>
</g>
</g>
<!-- 0&#45;&gt;1 -->
<g id="edge2" class="edge">
<title>0&#45;&gt;1</title>
<path fill="none" stroke="black" d="M762.81,-100.07C627.98,-93.12 366.09,-75.49 146.89,-36 141.13,-34.96 135.14,-33.8 129.16,-32.59"/>
<polygon fill="black" stroke="black" points="129.64,-29.12 119.14,-30.51 128.22,-35.97 129.64,-29.12"/>
<text text-anchor="middle" x="375.39" y="-57.8" font-family="Times New Roman,serif" font-size="14.00">0.067</text>
</g>
<!-- 2 -->
<g id="node3" class="node">
<title>2</title>
<g id="a_node3"><a xlink:href="from_facilities manager.svg" xlink:title="facilities manager">
<ellipse fill="none" stroke="black" cx="228.89" cy="-18" rx="72.59" ry="18"/>
<text text-anchor="middle" x="228.89" y="-14.3" font-family="Times New Roman,serif" font-size="14.00">facilities manager</text>
</a>
</g>
</g>
<!-- 0&#45;&gt;2 -->
<g id="edge3" class="edge">
<title>0&#45;&gt;2</title>
<path fill="none" stroke="black" d="M769.74,-96.73C701.23,-90.41 601.59,-80.49 514.89,-69 423.84,-56.93 401.22,-52.66 310.89,-36 304.8,-34.88 298.45,-33.65 292.12,-32.4"/>
<polygon fill="black" stroke="black" points="292.69,-28.94 282.2,-30.41 291.31,-35.81 292.69,-28.94"/>
<text text-anchor="middle" x="530.39" y="-57.8" font-family="Times New Roman,serif" font-size="14.00">0.052</text>
</g>
<!-- 3 -->
<g id="node4" class="node">
<title>3</title>
<g id="a_node4"><a xlink:href="from_sales manager.svg" xlink:title="sales manager">
<ellipse fill="none" stroke="black" cx="380.89" cy="-18" rx="61.19" ry="18"/>
<text text-anchor="middle" x="380.89" y="-14.3" font-family="Times New Roman,serif" font-size="14.00">sales manager</text>
</a>
</g>
</g>
<!-- 0&#45;&gt;3 -->
<g id="edge4" class="edge">
<title>0&#45;&gt;3</title>
<path fill="none" stroke="black" d="M781.08,-93.42C700.44,-81.18 565.81,-59.64 450.89,-36 445.89,-34.97 440.71,-33.84 435.52,-32.66"/>
<polygon fill="black" stroke="black" points="436.13,-29.21 425.6,-30.36 434.55,-36.03 436.13,-29.21"/>
<text text-anchor="middle" x="642.39" y="-57.8" font-family="Times New Roman,serif" font-size="14.00">0.052</text>
</g>
<!-- 4 -->
<g id="node5" class="node">
<title>4</title>
<g id="a_node5"><a xlink:href="from_pharmacovigilance officer.svg" xlink:title="pharmacovigilance officer">
<ellipse fill="none" stroke="black" cx="564.89" cy="-18" rx="104.78" ry="18"/>
<text text-anchor="middle" x="564.89" y="-14.3" font-family="Times New Roman,serif" font-size="14.00">pharmacovigilance officer</text>
</a>
</g>
</g>
<!-- 0&#45;&gt;4 -->
<g id="edge5" class="edge">
<title>0&#45;&gt;4</title>
<path fill="none" stroke="black" d="M804.04,-89.58C754.64,-75 678.19,-52.44 625.08,-36.76"/>
<polygon fill="black" stroke="black" points="626.03,-33.39 615.44,-33.92 624.04,-40.11 626.03,-33.39"/>
<text text-anchor="middle" x="742.39" y="-57.8" font-family="Times New Roman,serif" font-size="14.00">0.044</text>
</g>
<!-- 5 -->
<g id="node6" class="node">
<title>5</title>
<g id="a_node6"><a xlink:href="from_geographical information systems manager.svg" xlink:title="geographical information systems manager">
<ellipse fill="none" stroke="black" cx="852.89" cy="-18" rx="165.17" ry="18"/>
<text text-anchor="middle" x="852.89" y="-14.3" font-family="Times New Roman,serif" font-size="14.00">geographical information systems manager</text>
</a>
</g>
</g>
<!-- 0&#45;&gt;5 -->
<g id="edge6" class="edge">
<title>0&#45;&gt;5</title>
<path fill="none" stroke="black" d="M852.89,-86.8C852.89,-75.16 852.89,-59.55 852.89,-46.24"/>
<polygon fill="black" stroke="black" points="856.39,-46.18 852.89,-36.18 849.39,-46.18 856.39,-46.18"/>
<text text-anchor="middle" x="868.39" y="-57.8" font-family="Times New Roman,serif" font-size="14.00">0.037</text>
</g>
<!-- 6 -->
<g id="node7" class="node">
<title>6</title>
<g id="a_node7"><a xlink:href="from_heritage manager.svg" xlink:title="heritage manager">
<ellipse fill="none" stroke="black" cx="1107.89" cy="-18" rx="71.49" ry="18"/>
<text text-anchor="middle" x="1107.89" y="-14.3" font-family="Times New Roman,serif" font-size="14.00">heritage manager</text>
</a>
</g>
</g>
<!-- 0&#45;&gt;6 -->
<g id="edge7" class="edge">
<title>0&#45;&gt;6</title>
<path fill="none" stroke="black" d="M897.6,-89.1C942.14,-74.25 1010.43,-51.49 1057.02,-35.96"/>
<polygon fill="black" stroke="black" points="1058.23,-39.24 1066.61,-32.76 1056.02,-32.6 1058.23,-39.24"/>
<text text-anchor="middle" x="1011.39" y="-57.8" font-family="Times New Roman,serif" font-size="14.00">0.037</text>
</g>
<!-- 7 -->
<g id="node8" class="node">
<title>7</title>
<g id="a_node8"><a xlink:href="from_careers adviser.svg" xlink:title="careers adviser">
<ellipse fill="none" stroke="black" cx="1261.89" cy="-18" rx="64.99" ry="18"/>
<text text-anchor="middle" x="1261.89" y="-14.3" font-family="Times New Roman,serif" font-size="14.00">careers adviser</text>
</a>
</g>
</g>
<!-- 0&#45;&gt;7 -->
<g id="edge8" class="edge">
<title>0&#45;&gt;7</title>
<path fill="none" stroke="black" d="M916.37,-91.73C950.36,-85.1 992.93,-76.72 1030.89,-69 1100.77,-54.79 1118.26,-51.32 1187.89,-36 1193.12,-34.85 1198.56,-33.64 1204,-32.41"/>
<polygon fill="black" stroke="black" points="1204.78,-35.82 1213.76,-30.2 1203.23,-28.99 1204.78,-35.82"/>
<text text-anchor="middle" x="1120.39" y="-57.8" font-family="Times New Roman,serif" font-size="14.00">0.029</text>
</g>
<!-- 8 -->
<g id="node9" class="node">
<title>8</title>
<g id="a_node9"><a xlink:href="from_environmental scientist.svg" xlink:title="environmental scientist">
<ellipse fill="none" stroke="black" cx="1437.89" cy="-18" rx="92.88" ry="18"/>
<text text-anchor="middle" x="1437.89" y="-14.3" font-family="Times New Roman,serif" font-size="14.00">environmental scientist</text>
</a>
</g>
</g>
<!-- 0&#45;&gt;8 -->
<g id="edge9" class="edge">
<title>0&#45;&gt;8</title>
<path fill="none" stroke="black" d="M931.9,-95.33C989.61,-88.76 1069.72,-79.16 1139.89,-69 1215.84,-58 1302.3,-43.25 1362.46,-32.62"/>
<polygon fill="black" stroke="black" points="1363.39,-36.01 1372.63,-30.82 1362.17,-29.12 1363.39,-36.01"/>
<text text-anchor="middle" x="1246.39" y="-57.8" font-family="Times New Roman,serif" font-size="14.00">0.029</text>
</g>
<!-- 9 -->
<g id="node10" class="node">
<title>9</title>
<g id="a_node10"><a xlink:href="from_it consultant.svg" xlink:title="it consultant">
<ellipse fill="none" stroke="black" cx="1603.89" cy="-18" rx="54.69" ry="18"/>
<text text-anchor="middle" x="1603.89" y="-14.3" font-family="Times New Roman,serif" font-size="14.00">it consultant</text>
</a>
</g>
</g>
<!-- 0&#45;&gt;9 -->
<g id="edge10" class="edge">
<title>0&#45;&gt;9</title>
<path fill="none" stroke="black" d="M943.4,-100.3C1075.51,-93.71 1328.47,-76.61 1539.89,-36 1544.59,-35.1 1549.44,-34.04 1554.28,-32.9"/>
<polygon fill="black" stroke="black" points="1555.27,-36.27 1564.15,-30.48 1553.6,-29.47 1555.27,-36.27"/>
<text text-anchor="middle" x="1444.39" y="-57.8" font-family="Times New Roman,serif" font-size="14.00">0.029</text>
</g>
</g>
</svg>
