<?xml version="1.0" encoding="UTF-8" standalone="no"?>
<!DOCTYPE svg PUBLIC "-//W3C//DTD SVG 1.1//EN"
 "http://www.w3.org/Graphics/SVG/1.1/DTD/svg11.dtd">
<!-- Generated by graphviz version 2.44.1 (20200629.0800)
 -->
<!-- Title: test Pages: 1 -->
<svg width="1554pt" height="131pt"
 viewBox="0.00 0.00 1554.38 131.00" xmlns="http://www.w3.org/2000/svg" xmlns:xlink="http://www.w3.org/1999/xlink">
<g id="graph0" class="graph" transform="scale(1 1) rotate(0) translate(4 127)">
<title>test</title>
<polygon fill="white" stroke="transparent" points="-4,4 -4,-127 1550.38,-127 1550.38,4 -4,4"/>
<!-- 0 -->
<g id="node1" class="node">
<title>0</title>
<g id="a_node1"><a xlink:href="from_mechanical engineer.svg" xlink:title="mechanical engineer">
<ellipse fill="none" stroke="black" cx="758.74" cy="-105" rx="83.39" ry="18"/>
<text text-anchor="middle" x="758.74" y="-101.3" font-family="Times New Roman,serif" font-size="14.00">mechanical engineer</text>
</a>
</g>
</g>
<!-- 0&#45;&gt;0 -->
<g id="edge1" class="edge">
<title>0&#45;&gt;0</title>
<path fill="none" stroke="black" d="M834.65,-112.52C849.44,-111.65 859.94,-109.14 859.94,-105 859.94,-101.89 854.03,-99.71 844.84,-98.44"/>
<polygon fill="black" stroke="black" points="844.93,-94.93 834.65,-97.48 844.27,-101.9 844.93,-94.93"/>
<text text-anchor="middle" x="875.44" y="-101.3" font-family="Times New Roman,serif" font-size="14.00">0.340</text>
</g>
<!-- 1 -->
<g id="node2" class="node">
<title>1</title>
<g id="a_node2"><a xlink:href="from_electrical engineer.svg" xlink:title="electrical engineer">
<ellipse fill="none" stroke="black" cx="74.74" cy="-18" rx="74.99" ry="18"/>
<text text-anchor="middle" x="74.74" y="-14.3" font-family="Times New Roman,serif" font-size="14.00">electrical engineer</text>
</a>
</g>
</g>
<!-- 0&#45;&gt;1 -->
<g id="edge2" class="edge">
<title>0&#45;&gt;1</title>
<path fill="none" stroke="black" d="M681.51,-98.04C566.73,-88.55 344.59,-67.79 157.74,-36 151.56,-34.95 145.13,-33.77 138.71,-32.55"/>
<polygon fill="black" stroke="black" points="139.15,-29.07 128.67,-30.59 137.81,-35.94 139.15,-29.07"/>
<text text-anchor="middle" x="404.24" y="-57.8" font-family="Times New Roman,serif" font-size="14.00">0.097</text>
</g>
<!-- 2 -->
<g id="node3" class="node">
<title>2</title>
<g id="a_node3"><a xlink:href="from_structural engineer.svg" xlink:title="structural engineer">
<ellipse fill="none" stroke="black" cx="243.74" cy="-18" rx="76.89" ry="18"/>
<text text-anchor="middle" x="243.74" y="-14.3" font-family="Times New Roman,serif" font-size="14.00">structural engineer</text>
</a>
</g>
</g>
<!-- 0&#45;&gt;2 -->
<g id="edge3" class="edge">
<title>0&#45;&gt;2</title>
<path fill="none" stroke="black" d="M691.73,-94.18C607.2,-81.61 457.44,-58.73 329.74,-36 323.2,-34.84 316.39,-33.57 309.58,-32.28"/>
<polygon fill="black" stroke="black" points="310.14,-28.82 299.66,-30.37 308.82,-35.7 310.14,-28.82"/>
<text text-anchor="middle" x="534.24" y="-57.8" font-family="Times New Roman,serif" font-size="14.00">0.093</text>
</g>
<!-- 3 -->
<g id="node4" class="node">
<title>3</title>
<g id="a_node4"><a xlink:href="from_manufacturing engineer.svg" xlink:title="manufacturing engineer">
<ellipse fill="none" stroke="black" cx="432.74" cy="-18" rx="94.48" ry="18"/>
<text text-anchor="middle" x="432.74" y="-14.3" font-family="Times New Roman,serif" font-size="14.00">manufacturing engineer</text>
</a>
</g>
</g>
<!-- 0&#45;&gt;3 -->
<g id="edge4" class="edge">
<title>0&#45;&gt;3</title>
<path fill="none" stroke="black" d="M707.81,-90.72C650.64,-75.81 557.83,-51.61 496.05,-35.51"/>
<polygon fill="black" stroke="black" points="496.59,-32.03 486.03,-32.89 494.82,-38.8 496.59,-32.03"/>
<text text-anchor="middle" x="631.24" y="-57.8" font-family="Times New Roman,serif" font-size="14.00">0.085</text>
</g>
<!-- 4 -->
<g id="node5" class="node">
<title>4</title>
<g id="a_node5"><a xlink:href="from_project manager.svg" xlink:title="project manager">
<ellipse fill="none" stroke="black" cx="613.74" cy="-18" rx="68.79" ry="18"/>
<text text-anchor="middle" x="613.74" y="-14.3" font-family="Times New Roman,serif" font-size="14.00">project manager</text>
</a>
</g>
</g>
<!-- 0&#45;&gt;4 -->
<g id="edge5" class="edge">
<title>0&#45;&gt;4</title>
<path fill="none" stroke="black" d="M731.13,-87.81C708,-74.26 674.83,-54.81 649.65,-40.05"/>
<polygon fill="black" stroke="black" points="651.16,-36.88 640.76,-34.84 647.62,-42.92 651.16,-36.88"/>
<text text-anchor="middle" x="711.24" y="-57.8" font-family="Times New Roman,serif" font-size="14.00">0.080</text>
</g>
<!-- 5 -->
<g id="node6" class="node">
<title>5</title>
<g id="a_node6"><a xlink:href="from_civil engineer.svg" xlink:title="civil engineer">
<ellipse fill="none" stroke="black" cx="758.74" cy="-18" rx="57.69" ry="18"/>
<text text-anchor="middle" x="758.74" y="-14.3" font-family="Times New Roman,serif" font-size="14.00">civil engineer</text>
</a>
</g>
</g>
<!-- 0&#45;&gt;5 -->
<g id="edge6" class="edge">
<title>0&#45;&gt;5</title>
<path fill="none" stroke="black" d="M758.74,-86.8C758.74,-75.16 758.74,-59.55 758.74,-46.24"/>
<polygon fill="black" stroke="black" points="762.24,-46.18 758.74,-36.18 755.24,-46.18 762.24,-46.18"/>
<text text-anchor="middle" x="774.24" y="-57.8" font-family="Times New Roman,serif" font-size="14.00">0.048</text>
</g>
<!-- 6 -->
<g id="node7" class="node">
<title>6</title>
<g id="a_node7"><a xlink:href="from_it consultant.svg" xlink:title="it consultant">
<ellipse fill="none" stroke="black" cx="888.74" cy="-18" rx="54.69" ry="18"/>
<text text-anchor="middle" x="888.74" y="-14.3" font-family="Times New Roman,serif" font-size="14.00">it consultant</text>
</a>
</g>
</g>
<!-- 0&#45;&gt;6 -->
<g id="edge7" class="edge">
<title>0&#45;&gt;6</title>
<path fill="none" stroke="black" d="M783.5,-87.81C804.18,-74.29 833.82,-54.91 856.38,-40.16"/>
<polygon fill="black" stroke="black" points="858.5,-42.96 864.95,-34.55 854.67,-37.1 858.5,-42.96"/>
<text text-anchor="middle" x="847.24" y="-57.8" font-family="Times New Roman,serif" font-size="14.00">0.048</text>
</g>
<!-- 7 -->
<g id="node8" class="node">
<title>7</title>
<g id="a_node8"><a xlink:href="from_network administrator.svg" xlink:title="network administrator">
<ellipse fill="none" stroke="black" cx="1050.74" cy="-18" rx="89.88" ry="18"/>
<text text-anchor="middle" x="1050.74" y="-14.3" font-family="Times New Roman,serif" font-size="14.00">network administrator</text>
</a>
</g>
</g>
<!-- 0&#45;&gt;7 -->
<g id="edge8" class="edge">
<title>0&#45;&gt;7</title>
<path fill="none" stroke="black" d="M806.31,-90.15C856.97,-75.41 937.23,-52.04 991.85,-36.14"/>
<polygon fill="black" stroke="black" points="993.11,-39.42 1001.74,-33.27 991.16,-32.7 993.11,-39.42"/>
<text text-anchor="middle" x="938.24" y="-57.8" font-family="Times New Roman,serif" font-size="14.00">0.028</text>
</g>
<!-- 8 -->
<g id="node9" class="node">
<title>8</title>
<g id="a_node9"><a xlink:href="from_software developer.svg" xlink:title="software developer">
<ellipse fill="none" stroke="black" cx="1238.74" cy="-18" rx="79.89" ry="18"/>
<text text-anchor="middle" x="1238.74" y="-14.3" font-family="Times New Roman,serif" font-size="14.00">software developer</text>
</a>
</g>
</g>
<!-- 0&#45;&gt;8 -->
<g id="edge9" class="edge">
<title>0&#45;&gt;8</title>
<path fill="none" stroke="black" d="M822.12,-93.31C899.5,-80.18 1034.34,-57.05 1149.74,-36 1156.29,-34.8 1163.11,-33.54 1169.93,-32.26"/>
<polygon fill="black" stroke="black" points="1170.71,-35.68 1179.88,-30.39 1169.41,-28.8 1170.71,-35.68"/>
<text text-anchor="middle" x="1058.24" y="-57.8" font-family="Times New Roman,serif" font-size="14.00">0.024</text>
</g>
<!-- 9 -->
<g id="node10" class="node">
<title>9</title>
<g id="a_node10"><a xlink:href="from_pharmacovigilance officer.svg" xlink:title="pharmacovigilance officer">
<ellipse fill="none" stroke="black" cx="1441.74" cy="-18" rx="104.78" ry="18"/>
<text text-anchor="middle" x="1441.74" y="-14.3" font-family="Times New Roman,serif" font-size="14.00">pharmacovigilance officer</text>
</a>
</g>
</g>
<!-- 0&#45;&gt;9 -->
<g id="edge10" class="edge">
<title>0&#45;&gt;9</title>
<path fill="none" stroke="black" d="M831.96,-96.43C896.66,-89.63 993.53,-79.18 1077.74,-69 1189.01,-55.55 1216.76,-51.6 1327.74,-36 1336.94,-34.71 1346.54,-33.33 1356.1,-31.93"/>
<polygon fill="black" stroke="black" points="1356.65,-35.39 1366.04,-30.47 1355.64,-28.46 1356.65,-35.39"/>
<text text-anchor="middle" x="1210.24" y="-57.8" font-family="Times New Roman,serif" font-size="14.00">0.020</text>
</g>
</g>
</svg>
