<?xml version="1.0" encoding="UTF-8" standalone="no"?>
<!DOCTYPE svg PUBLIC "-//W3C//DTD SVG 1.1//EN"
 "http://www.w3.org/Graphics/SVG/1.1/DTD/svg11.dtd">
<!-- Generated by graphviz version 2.44.1 (20200629.0800)
 -->
<!-- Title: test Pages: 1 -->
<svg width="1818pt" height="131pt"
 viewBox="0.00 0.00 1817.53 131.00" xmlns="http://www.w3.org/2000/svg" xmlns:xlink="http://www.w3.org/1999/xlink">
<g id="graph0" class="graph" transform="scale(1 1) rotate(0) translate(4 127)">
<title>test</title>
<polygon fill="white" stroke="transparent" points="-4,4 -4,-127 1813.53,-127 1813.53,4 -4,4"/>
<!-- 0 -->
<g id="node1" class="node">
<title>0</title>
<g id="a_node1"><a xlink:href="from_equality and diversity officer.svg" xlink:title="equality and diversity officer">
<ellipse fill="none" stroke="black" cx="883.89" cy="-105" rx="113.98" ry="18"/>
<text text-anchor="middle" x="883.89" y="-101.3" font-family="Times New Roman,serif" font-size="14.00">equality and diversity officer</text>
</a>
</g>
</g>
<!-- 1 -->
<g id="node2" class="node">
<title>1</title>
<g id="a_node2"><a xlink:href="from_project manager.svg" xlink:title="project manager">
<ellipse fill="none" stroke="black" cx="68.89" cy="-18" rx="68.79" ry="18"/>
<text text-anchor="middle" x="68.89" y="-14.3" font-family="Times New Roman,serif" font-size="14.00">project manager</text>
</a>
</g>
</g>
<!-- 0&#45;&gt;1 -->
<g id="edge1" class="edge">
<title>0&#45;&gt;1</title>
<path fill="none" stroke="black" d="M775.47,-99.42C631.12,-92.09 368.29,-74.44 146.89,-36 141.03,-34.98 134.94,-33.83 128.87,-32.61"/>
<polygon fill="black" stroke="black" points="129.2,-29.11 118.7,-30.52 127.79,-35.96 129.2,-29.11"/>
<text text-anchor="middle" x="384.39" y="-57.8" font-family="Times New Roman,serif" font-size="14.00">0.210</text>
</g>
<!-- 2 -->
<g id="node3" class="node">
<title>2</title>
<g id="a_node3"><a xlink:href="from_corporate banker.svg" xlink:title="corporate banker">
<ellipse fill="none" stroke="black" cx="228.89" cy="-18" rx="72.59" ry="18"/>
<text text-anchor="middle" x="228.89" y="-14.3" font-family="Times New Roman,serif" font-size="14.00">corporate banker</text>
</a>
</g>
</g>
<!-- 0&#45;&gt;2 -->
<g id="edge2" class="edge">
<title>0&#45;&gt;2</title>
<path fill="none" stroke="black" d="M787.53,-95.35C673.18,-84.45 476.95,-63.73 309.89,-36 303.75,-34.98 297.37,-33.82 291.01,-32.59"/>
<polygon fill="black" stroke="black" points="291.55,-29.13 281.06,-30.63 290.19,-36 291.55,-29.13"/>
<text text-anchor="middle" x="546.39" y="-57.8" font-family="Times New Roman,serif" font-size="14.00">0.105</text>
</g>
<!-- 3 -->
<g id="node4" class="node">
<title>3</title>
<g id="a_node4"><a xlink:href="from_education administrator.svg" xlink:title="education administrator">
<ellipse fill="none" stroke="black" cx="414.89" cy="-18" rx="95.58" ry="18"/>
<text text-anchor="middle" x="414.89" y="-14.3" font-family="Times New Roman,serif" font-size="14.00">education administrator</text>
</a>
</g>
</g>
<!-- 0&#45;&gt;3 -->
<g id="edge3" class="edge">
<title>0&#45;&gt;3</title>
<path fill="none" stroke="black" d="M811.65,-91.09C774.89,-84.5 729.51,-76.35 688.89,-69 621.93,-56.88 545.78,-42.97 490.78,-32.91"/>
<polygon fill="black" stroke="black" points="491.23,-29.43 480.77,-31.08 489.97,-36.32 491.23,-29.43"/>
<text text-anchor="middle" x="704.39" y="-57.8" font-family="Times New Roman,serif" font-size="14.00">0.105</text>
</g>
<!-- 4 -->
<g id="node5" class="node">
<title>4</title>
<g id="a_node5"><a xlink:href="from_camera operator.svg" xlink:title="camera operator">
<ellipse fill="none" stroke="black" cx="597.89" cy="-18" rx="69.59" ry="18"/>
<text text-anchor="middle" x="597.89" y="-14.3" font-family="Times New Roman,serif" font-size="14.00">camera operator</text>
</a>
</g>
</g>
<!-- 0&#45;&gt;4 -->
<g id="edge4" class="edge">
<title>0&#45;&gt;4</title>
<path fill="none" stroke="black" d="M832.76,-88.8C781.74,-73.64 703.67,-50.44 651.72,-35"/>
<polygon fill="black" stroke="black" points="652.6,-31.61 642.02,-32.11 650.61,-38.32 652.6,-31.61"/>
<text text-anchor="middle" x="774.39" y="-57.8" font-family="Times New Roman,serif" font-size="14.00">0.052</text>
</g>
<!-- 5 -->
<g id="node6" class="node">
<title>5</title>
<g id="a_node6"><a xlink:href="from_environmental manager.svg" xlink:title="environmental manager">
<ellipse fill="none" stroke="black" cx="778.89" cy="-18" rx="93.68" ry="18"/>
<text text-anchor="middle" x="778.89" y="-14.3" font-family="Times New Roman,serif" font-size="14.00">environmental manager</text>
</a>
</g>
</g>
<!-- 0&#45;&gt;5 -->
<g id="edge5" class="edge">
<title>0&#45;&gt;5</title>
<path fill="none" stroke="black" d="M863.15,-87.21C847.33,-74.4 825.35,-56.61 807.81,-42.4"/>
<polygon fill="black" stroke="black" points="809.57,-39.33 799.6,-35.76 805.17,-44.77 809.57,-39.33"/>
<text text-anchor="middle" x="853.39" y="-57.8" font-family="Times New Roman,serif" font-size="14.00">0.052</text>
</g>
<!-- 6 -->
<g id="node7" class="node">
<title>6</title>
<g id="a_node7"><a xlink:href="from_health and safety adviser.svg" xlink:title="health and safety adviser">
<ellipse fill="none" stroke="black" cx="989.89" cy="-18" rx="99.38" ry="18"/>
<text text-anchor="middle" x="989.89" y="-14.3" font-family="Times New Roman,serif" font-size="14.00">health and safety adviser</text>
</a>
</g>
</g>
<!-- 0&#45;&gt;6 -->
<g id="edge6" class="edge">
<title>0&#45;&gt;6</title>
<path fill="none" stroke="black" d="M904.84,-87.21C920.95,-74.28 943.4,-56.28 961.19,-42.02"/>
<polygon fill="black" stroke="black" points="963.38,-44.74 969,-35.76 959,-39.28 963.38,-44.74"/>
<text text-anchor="middle" x="959.39" y="-57.8" font-family="Times New Roman,serif" font-size="14.00">0.052</text>
</g>
<!-- 7 -->
<g id="node8" class="node">
<title>7</title>
<g id="a_node8"><a xlink:href="from_health and safety inspector.svg" xlink:title="health and safety inspector">
<ellipse fill="none" stroke="black" cx="1214.89" cy="-18" rx="107.48" ry="18"/>
<text text-anchor="middle" x="1214.89" y="-14.3" font-family="Times New Roman,serif" font-size="14.00">health and safety inspector</text>
</a>
</g>
</g>
<!-- 0&#45;&gt;7 -->
<g id="edge7" class="edge">
<title>0&#45;&gt;7</title>
<path fill="none" stroke="black" d="M940.79,-89.39C998.58,-74.55 1087.97,-51.59 1148.85,-35.96"/>
<polygon fill="black" stroke="black" points="1149.92,-39.3 1158.74,-33.42 1148.18,-32.52 1149.92,-39.3"/>
<text text-anchor="middle" x="1085.39" y="-57.8" font-family="Times New Roman,serif" font-size="14.00">0.052</text>
</g>
<!-- 8 -->
<g id="node9" class="node">
<title>8</title>
<g id="a_node9"><a xlink:href="from_lecturer.svg" xlink:title="lecturer">
<ellipse fill="none" stroke="black" cx="1377.89" cy="-18" rx="37.89" ry="18"/>
<text text-anchor="middle" x="1377.89" y="-14.3" font-family="Times New Roman,serif" font-size="14.00">lecturer</text>
</a>
</g>
</g>
<!-- 0&#45;&gt;8 -->
<g id="edge8" class="edge">
<title>0&#45;&gt;8</title>
<path fill="none" stroke="black" d="M978.72,-95.03C1069.94,-85.13 1211.26,-66.42 1330.89,-36 1333.91,-35.23 1337,-34.35 1340.09,-33.39"/>
<polygon fill="black" stroke="black" points="1341.45,-36.63 1349.84,-30.16 1339.25,-29.98 1341.45,-36.63"/>
<text text-anchor="middle" x="1262.39" y="-57.8" font-family="Times New Roman,serif" font-size="14.00">0.052</text>
</g>
<!-- 9 -->
<g id="node10" class="node">
<title>9</title>
<g id="a_node10"><a xlink:href="from_personal assistant.svg" xlink:title="personal assistant">
<ellipse fill="none" stroke="black" cx="1507.89" cy="-18" rx="74.99" ry="18"/>
<text text-anchor="middle" x="1507.89" y="-14.3" font-family="Times New Roman,serif" font-size="14.00">personal assistant</text>
</a>
</g>
</g>
<!-- 0&#45;&gt;9 -->
<g id="edge9" class="edge">
<title>0&#45;&gt;9</title>
<path fill="none" stroke="black" d="M989.93,-98.44C1070.37,-93.31 1183.52,-84.14 1281.89,-69 1339.13,-60.19 1403.54,-45.46 1448.91,-34.26"/>
<polygon fill="black" stroke="black" points="1450,-37.59 1458.86,-31.78 1448.32,-30.8 1450,-37.59"/>
<text text-anchor="middle" x="1373.39" y="-57.8" font-family="Times New Roman,serif" font-size="14.00">0.052</text>
</g>
<!-- 10 -->
<g id="node11" class="node">
<title>10</title>
<g id="a_node11"><a xlink:href="from_pharmacovigilance officer.svg" xlink:title="pharmacovigilance officer">
<ellipse fill="none" stroke="black" cx="1704.89" cy="-18" rx="104.78" ry="18"/>
<text text-anchor="middle" x="1704.89" y="-14.3" font-family="Times New Roman,serif" font-size="14.00">pharmacovigilance officer</text>
</a>
</g>
</g>
<!-- 0&#45;&gt;10 -->
<g id="edge10" class="edge">
<title>0&#45;&gt;10</title>
<path fill="none" stroke="black" d="M992.38,-99.38C1095.61,-94.31 1255.17,-84.74 1392.89,-69 1473.08,-59.84 1564.16,-44.69 1627.11,-33.47"/>
<polygon fill="black" stroke="black" points="1627.74,-36.91 1636.97,-31.7 1626.51,-30.02 1627.74,-36.91"/>
<text text-anchor="middle" x="1512.39" y="-57.8" font-family="Times New Roman,serif" font-size="14.00">0.052</text>
</g>
</g>
</svg>
