<?xml version="1.0" encoding="UTF-8" standalone="no"?>
<!DOCTYPE svg PUBLIC "-//W3C//DTD SVG 1.1//EN"
 "http://www.w3.org/Graphics/SVG/1.1/DTD/svg11.dtd">
<!-- Generated by graphviz version 2.44.1 (20200629.0800)
 -->
<!-- Title: test Pages: 1 -->
<svg width="1436pt" height="131pt"
 viewBox="0.00 0.00 1436.04 131.00" xmlns="http://www.w3.org/2000/svg" xmlns:xlink="http://www.w3.org/1999/xlink">
<g id="graph0" class="graph" transform="scale(1 1) rotate(0) translate(4 127)">
<title>test</title>
<polygon fill="white" stroke="transparent" points="-4,4 -4,-127 1432.04,-127 1432.04,4 -4,4"/>
<!-- 0 -->
<g id="node1" class="node">
<title>0</title>
<g id="a_node1"><a xlink:href="from_set designer.svg" xlink:title="set designer">
<ellipse fill="none" stroke="black" cx="642.19" cy="-105" rx="53.89" ry="18"/>
<text text-anchor="middle" x="642.19" y="-101.3" font-family="Times New Roman,serif" font-size="14.00">set designer</text>
</a>
</g>
</g>
<!-- 0&#45;&gt;0 -->
<g id="edge2" class="edge">
<title>0&#45;&gt;0</title>
<path fill="none" stroke="black" d="M690.95,-112.82C704.12,-112.4 714.14,-109.8 714.14,-105 714.14,-101.55 708.96,-99.23 701.16,-98.05"/>
<polygon fill="black" stroke="black" points="701.21,-94.54 690.95,-97.18 700.62,-101.52 701.21,-94.54"/>
<text text-anchor="middle" x="729.64" y="-101.3" font-family="Times New Roman,serif" font-size="14.00">0.187</text>
</g>
<!-- 1 -->
<g id="node2" class="node">
<title>1</title>
<g id="a_node2"><a xlink:href="from_graphic designer.svg" xlink:title="graphic designer">
<ellipse fill="none" stroke="black" cx="70.19" cy="-18" rx="70.39" ry="18"/>
<text text-anchor="middle" x="70.19" y="-14.3" font-family="Times New Roman,serif" font-size="14.00">graphic designer</text>
</a>
</g>
</g>
<!-- 0&#45;&gt;1 -->
<g id="edge1" class="edge">
<title>0&#45;&gt;1</title>
<path fill="none" stroke="black" d="M589.81,-100.47C522.5,-95.52 402.16,-85.25 300.19,-69 241.17,-59.59 174.51,-44.61 128.21,-33.5"/>
<polygon fill="black" stroke="black" points="128.9,-30.07 118.36,-31.12 127.25,-36.87 128.9,-30.07"/>
<text text-anchor="middle" x="315.69" y="-57.8" font-family="Times New Roman,serif" font-size="14.00">0.208</text>
</g>
<!-- 2 -->
<g id="node3" class="node">
<title>2</title>
<g id="a_node3"><a xlink:href="from_architect.svg" xlink:title="architect">
<ellipse fill="none" stroke="black" cx="200.19" cy="-18" rx="41.69" ry="18"/>
<text text-anchor="middle" x="200.19" y="-14.3" font-family="Times New Roman,serif" font-size="14.00">architect</text>
</a>
</g>
</g>
<!-- 0&#45;&gt;2 -->
<g id="edge3" class="edge">
<title>0&#45;&gt;2</title>
<path fill="none" stroke="black" d="M592.08,-98.18C516.95,-88.81 371.02,-68.11 250.19,-36 247.05,-35.16 243.81,-34.23 240.57,-33.25"/>
<polygon fill="black" stroke="black" points="241.52,-29.88 230.93,-30.18 239.4,-36.55 241.52,-29.88"/>
<text text-anchor="middle" x="415.69" y="-57.8" font-family="Times New Roman,serif" font-size="14.00">0.125</text>
</g>
<!-- 3 -->
<g id="node4" class="node">
<title>3</title>
<g id="a_node4"><a xlink:href="from_project manager.svg" xlink:title="project manager">
<ellipse fill="none" stroke="black" cx="328.19" cy="-18" rx="68.79" ry="18"/>
<text text-anchor="middle" x="328.19" y="-14.3" font-family="Times New Roman,serif" font-size="14.00">project manager</text>
</a>
</g>
</g>
<!-- 0&#45;&gt;3 -->
<g id="edge4" class="edge">
<title>0&#45;&gt;3</title>
<path fill="none" stroke="black" d="M601.14,-93.22C575.08,-86.34 540.64,-77.22 510.19,-69 467.69,-57.53 419.66,-44.32 383.62,-34.37"/>
<polygon fill="black" stroke="black" points="384.36,-30.94 373.79,-31.65 382.49,-37.69 384.36,-30.94"/>
<text text-anchor="middle" x="525.69" y="-57.8" font-family="Times New Roman,serif" font-size="14.00">0.062</text>
</g>
<!-- 4 -->
<g id="node5" class="node">
<title>4</title>
<g id="a_node5"><a xlink:href="from_ux designer.svg" xlink:title="ux designer">
<ellipse fill="none" stroke="black" cx="467.19" cy="-18" rx="51.99" ry="18"/>
<text text-anchor="middle" x="467.19" y="-14.3" font-family="Times New Roman,serif" font-size="14.00">ux designer</text>
</a>
</g>
</g>
<!-- 0&#45;&gt;4 -->
<g id="edge5" class="edge">
<title>0&#45;&gt;4</title>
<path fill="none" stroke="black" d="M612.9,-89.77C583.32,-75.41 537.5,-53.15 505.16,-37.44"/>
<polygon fill="black" stroke="black" points="506.52,-34.21 496,-32.99 503.46,-40.51 506.52,-34.21"/>
<text text-anchor="middle" x="580.69" y="-57.8" font-family="Times New Roman,serif" font-size="14.00">0.062</text>
</g>
<!-- 5 -->
<g id="node6" class="node">
<title>5</title>
<g id="a_node6"><a xlink:href="from_pharmacovigilance officer.svg" xlink:title="pharmacovigilance officer">
<ellipse fill="none" stroke="black" cx="642.19" cy="-18" rx="104.78" ry="18"/>
<text text-anchor="middle" x="642.19" y="-14.3" font-family="Times New Roman,serif" font-size="14.00">pharmacovigilance officer</text>
</a>
</g>
</g>
<!-- 0&#45;&gt;5 -->
<g id="edge6" class="edge">
<title>0&#45;&gt;5</title>
<path fill="none" stroke="black" d="M642.19,-86.8C642.19,-75.16 642.19,-59.55 642.19,-46.24"/>
<polygon fill="black" stroke="black" points="645.69,-46.18 642.19,-36.18 638.69,-46.18 645.69,-46.18"/>
<text text-anchor="middle" x="657.69" y="-57.8" font-family="Times New Roman,serif" font-size="14.00">0.041</text>
</g>
<!-- 6 -->
<g id="node7" class="node">
<title>6</title>
<g id="a_node7"><a xlink:href="from_software developer.svg" xlink:title="software developer">
<ellipse fill="none" stroke="black" cx="845.19" cy="-18" rx="79.89" ry="18"/>
<text text-anchor="middle" x="845.19" y="-14.3" font-family="Times New Roman,serif" font-size="14.00">software developer</text>
</a>
</g>
</g>
<!-- 0&#45;&gt;6 -->
<g id="edge7" class="edge">
<title>0&#45;&gt;6</title>
<path fill="none" stroke="black" d="M674.36,-90.53C708.16,-76.38 761.62,-53.99 799.73,-38.04"/>
<polygon fill="black" stroke="black" points="801.2,-41.22 809.07,-34.13 798.49,-34.76 801.2,-41.22"/>
<text text-anchor="middle" x="771.69" y="-57.8" font-family="Times New Roman,serif" font-size="14.00">0.041</text>
</g>
<!-- 7 -->
<g id="node8" class="node">
<title>7</title>
<g id="a_node8"><a xlink:href="from_sports development officer.svg" xlink:title="sports development officer">
<ellipse fill="none" stroke="black" cx="1051.19" cy="-18" rx="108.58" ry="18"/>
<text text-anchor="middle" x="1051.19" y="-14.3" font-family="Times New Roman,serif" font-size="14.00">sports development officer</text>
</a>
</g>
</g>
<!-- 0&#45;&gt;7 -->
<g id="edge8" class="edge">
<title>0&#45;&gt;7</title>
<path fill="none" stroke="black" d="M686.74,-94.74C756.35,-80.28 891.68,-52.15 976.41,-34.54"/>
<polygon fill="black" stroke="black" points="977.15,-37.96 986.23,-32.5 975.73,-31.11 977.15,-37.96"/>
<text text-anchor="middle" x="886.69" y="-57.8" font-family="Times New Roman,serif" font-size="14.00">0.041</text>
</g>
<!-- 8 -->
<g id="node9" class="node">
<title>8</title>
<g id="a_node9"><a xlink:href="from_web designer.svg" xlink:title="web designer">
<ellipse fill="none" stroke="black" cx="1236.19" cy="-18" rx="58.49" ry="18"/>
<text text-anchor="middle" x="1236.19" y="-14.3" font-family="Times New Roman,serif" font-size="14.00">web designer</text>
</a>
</g>
</g>
<!-- 0&#45;&gt;8 -->
<g id="edge9" class="edge">
<title>0&#45;&gt;8</title>
<path fill="none" stroke="black" d="M693.76,-99.42C788.49,-90.55 996.34,-68.96 1169.19,-36 1173.95,-35.09 1178.88,-34.05 1183.8,-32.93"/>
<polygon fill="black" stroke="black" points="1184.9,-36.27 1193.83,-30.57 1183.3,-29.46 1184.9,-36.27"/>
<text text-anchor="middle" x="1070.69" y="-57.8" font-family="Times New Roman,serif" font-size="14.00">0.041</text>
</g>
<!-- 9 -->
<g id="node10" class="node">
<title>9</title>
<g id="a_node10"><a xlink:href="from_data scientist.svg" xlink:title="data scientist">
<ellipse fill="none" stroke="black" cx="1370.19" cy="-18" rx="57.69" ry="18"/>
<text text-anchor="middle" x="1370.19" y="-14.3" font-family="Times New Roman,serif" font-size="14.00">data scientist</text>
</a>
</g>
</g>
<!-- 0&#45;&gt;9 -->
<g id="edge10" class="edge">
<title>0&#45;&gt;9</title>
<path fill="none" stroke="black" d="M695.85,-102.06C809.12,-97.19 1080.51,-81.39 1303.19,-36 1307.94,-35.03 1312.86,-33.95 1317.77,-32.8"/>
<polygon fill="black" stroke="black" points="1318.89,-36.14 1327.8,-30.4 1317.26,-29.33 1318.89,-36.14"/>
<text text-anchor="middle" x="1212.69" y="-57.8" font-family="Times New Roman,serif" font-size="14.00">0.020</text>
</g>
</g>
</svg>
