<?xml version="1.0" encoding="UTF-8" standalone="no"?>
<!DOCTYPE svg PUBLIC "-//W3C//DTD SVG 1.1//EN"
 "http://www.w3.org/Graphics/SVG/1.1/DTD/svg11.dtd">
<!-- Generated by graphviz version 2.44.1 (20200629.0800)
 -->
<!-- Title: test Pages: 1 -->
<svg width="1491pt" height="131pt"
 viewBox="0.00 0.00 1490.69 131.00" xmlns="http://www.w3.org/2000/svg" xmlns:xlink="http://www.w3.org/1999/xlink">
<g id="graph0" class="graph" transform="scale(1 1) rotate(0) translate(4 127)">
<title>test</title>
<polygon fill="white" stroke="transparent" points="-4,4 -4,-127 1486.69,-127 1486.69,4 -4,4"/>
<!-- 0 -->
<g id="node1" class="node">
<title>0</title>
<g id="a_node1"><a xlink:href="from_regulatory affairs officer.svg" xlink:title="regulatory affairs officer">
<ellipse fill="none" stroke="black" cx="770.09" cy="-105" rx="98.28" ry="18"/>
<text text-anchor="middle" x="770.09" y="-101.3" font-family="Times New Roman,serif" font-size="14.00">regulatory affairs officer</text>
</a>
</g>
</g>
<!-- 0&#45;&gt;0 -->
<g id="edge1" class="edge">
<title>0&#45;&gt;0</title>
<path fill="none" stroke="black" d="M859.7,-112.38C875.35,-111.4 886.24,-108.94 886.24,-105 886.24,-101.99 879.85,-99.84 869.84,-98.55"/>
<polygon fill="black" stroke="black" points="869.98,-95.05 859.7,-97.62 869.33,-102.02 869.98,-95.05"/>
<text text-anchor="middle" x="901.74" y="-101.3" font-family="Times New Roman,serif" font-size="14.00">0.096</text>
</g>
<!-- 1 -->
<g id="node2" class="node">
<title>1</title>
<g id="a_node2"><a xlink:href="from_sales manager.svg" xlink:title="sales manager">
<ellipse fill="none" stroke="black" cx="61.09" cy="-18" rx="61.19" ry="18"/>
<text text-anchor="middle" x="61.09" y="-14.3" font-family="Times New Roman,serif" font-size="14.00">sales manager</text>
</a>
</g>
</g>
<!-- 0&#45;&gt;1 -->
<g id="edge2" class="edge">
<title>0&#45;&gt;1</title>
<path fill="none" stroke="black" d="M678.8,-98.28C554.29,-89.58 324.57,-70.29 131.09,-36 125.78,-35.06 120.28,-33.95 114.79,-32.76"/>
<polygon fill="black" stroke="black" points="115.5,-29.34 104.98,-30.55 113.96,-36.17 115.5,-29.34"/>
<text text-anchor="middle" x="374.59" y="-57.8" font-family="Times New Roman,serif" font-size="14.00">0.082</text>
</g>
<!-- 2 -->
<g id="node3" class="node">
<title>2</title>
<g id="a_node3"><a xlink:href="from_pharmacovigilance officer.svg" xlink:title="pharmacovigilance officer">
<ellipse fill="none" stroke="black" cx="245.09" cy="-18" rx="104.78" ry="18"/>
<text text-anchor="middle" x="245.09" y="-14.3" font-family="Times New Roman,serif" font-size="14.00">pharmacovigilance officer</text>
</a>
</g>
</g>
<!-- 0&#45;&gt;2 -->
<g id="edge3" class="edge">
<title>0&#45;&gt;2</title>
<path fill="none" stroke="black" d="M698.17,-92.72C654.94,-85.91 598.85,-77.03 549.09,-69 474.07,-56.89 388.67,-42.82 327.53,-32.7"/>
<polygon fill="black" stroke="black" points="327.99,-29.22 317.55,-31.04 326.85,-36.13 327.99,-29.22"/>
<text text-anchor="middle" x="564.59" y="-57.8" font-family="Times New Roman,serif" font-size="14.00">0.068</text>
</g>
<!-- 3 -->
<g id="node4" class="node">
<title>3</title>
<g id="a_node4"><a xlink:href="from_project manager.svg" xlink:title="project manager">
<ellipse fill="none" stroke="black" cx="437.09" cy="-18" rx="68.79" ry="18"/>
<text text-anchor="middle" x="437.09" y="-14.3" font-family="Times New Roman,serif" font-size="14.00">project manager</text>
</a>
</g>
</g>
<!-- 0&#45;&gt;3 -->
<g id="edge4" class="edge">
<title>0&#45;&gt;3</title>
<path fill="none" stroke="black" d="M715.11,-89.96C654.21,-74.42 556.48,-49.47 494.6,-33.68"/>
<polygon fill="black" stroke="black" points="495.16,-30.21 484.61,-31.13 493.43,-36.99 495.16,-30.21"/>
<text text-anchor="middle" x="639.59" y="-57.8" font-family="Times New Roman,serif" font-size="14.00">0.068</text>
</g>
<!-- 4 -->
<g id="node5" class="node">
<title>4</title>
<g id="a_node5"><a xlink:href="from_marketing executive.svg" xlink:title="marketing executive">
<ellipse fill="none" stroke="black" cx="606.09" cy="-18" rx="81.79" ry="18"/>
<text text-anchor="middle" x="606.09" y="-14.3" font-family="Times New Roman,serif" font-size="14.00">marketing executive</text>
</a>
</g>
</g>
<!-- 0&#45;&gt;4 -->
<g id="edge5" class="edge">
<title>0&#45;&gt;4</title>
<path fill="none" stroke="black" d="M738.86,-87.81C712.36,-74.08 674.2,-54.3 645.58,-39.47"/>
<polygon fill="black" stroke="black" points="647.15,-36.33 636.66,-34.84 643.92,-42.55 647.15,-36.33"/>
<text text-anchor="middle" x="713.59" y="-57.8" font-family="Times New Roman,serif" font-size="14.00">0.027</text>
</g>
<!-- 5 -->
<g id="node6" class="node">
<title>5</title>
<g id="a_node6"><a xlink:href="from_office manager.svg" xlink:title="office manager">
<ellipse fill="none" stroke="black" cx="770.09" cy="-18" rx="64.19" ry="18"/>
<text text-anchor="middle" x="770.09" y="-14.3" font-family="Times New Roman,serif" font-size="14.00">office manager</text>
</a>
</g>
</g>
<!-- 0&#45;&gt;5 -->
<g id="edge6" class="edge">
<title>0&#45;&gt;5</title>
<path fill="none" stroke="black" d="M770.09,-86.8C770.09,-75.16 770.09,-59.55 770.09,-46.24"/>
<polygon fill="black" stroke="black" points="773.59,-46.18 770.09,-36.18 766.59,-46.18 773.59,-46.18"/>
<text text-anchor="middle" x="785.59" y="-57.8" font-family="Times New Roman,serif" font-size="14.00">0.027</text>
</g>
<!-- 6 -->
<g id="node7" class="node">
<title>6</title>
<g id="a_node7"><a xlink:href="from_auditor.svg" xlink:title="auditor">
<ellipse fill="none" stroke="black" cx="889.09" cy="-18" rx="36.29" ry="18"/>
<text text-anchor="middle" x="889.09" y="-14.3" font-family="Times New Roman,serif" font-size="14.00">auditor</text>
</a>
</g>
</g>
<!-- 0&#45;&gt;6 -->
<g id="edge7" class="edge">
<title>0&#45;&gt;6</title>
<path fill="none" stroke="black" d="M793.32,-87.41C812.62,-73.63 840.14,-53.97 860.73,-39.26"/>
<polygon fill="black" stroke="black" points="862.99,-41.95 869.09,-33.29 858.92,-36.25 862.99,-41.95"/>
<text text-anchor="middle" x="852.59" y="-57.8" font-family="Times New Roman,serif" font-size="14.00">0.020</text>
</g>
<!-- 7 -->
<g id="node8" class="node">
<title>7</title>
<g id="a_node8"><a xlink:href="from_broadcasting presenter.svg" xlink:title="broadcasting presenter">
<ellipse fill="none" stroke="black" cx="1036.09" cy="-18" rx="92.88" ry="18"/>
<text text-anchor="middle" x="1036.09" y="-14.3" font-family="Times New Roman,serif" font-size="14.00">broadcasting presenter</text>
</a>
</g>
</g>
<!-- 0&#45;&gt;7 -->
<g id="edge8" class="edge">
<title>0&#45;&gt;7</title>
<path fill="none" stroke="black" d="M816.73,-89.1C862.32,-74.53 931.74,-52.35 980.24,-36.85"/>
<polygon fill="black" stroke="black" points="981.5,-40.12 989.96,-33.74 979.37,-33.45 981.5,-40.12"/>
<text text-anchor="middle" x="934.59" y="-57.8" font-family="Times New Roman,serif" font-size="14.00">0.020</text>
</g>
<!-- 8 -->
<g id="node9" class="node">
<title>8</title>
<g id="a_node9"><a xlink:href="from_careers adviser.svg" xlink:title="careers adviser">
<ellipse fill="none" stroke="black" cx="1212.09" cy="-18" rx="64.99" ry="18"/>
<text text-anchor="middle" x="1212.09" y="-14.3" font-family="Times New Roman,serif" font-size="14.00">careers adviser</text>
</a>
</g>
</g>
<!-- 0&#45;&gt;8 -->
<g id="edge9" class="edge">
<title>0&#45;&gt;8</title>
<path fill="none" stroke="black" d="M839.11,-92.16C913.19,-79.24 1034.24,-57.52 1138.09,-36 1143.42,-34.9 1148.95,-33.71 1154.48,-32.49"/>
<polygon fill="black" stroke="black" points="1155.4,-35.87 1164.39,-30.28 1153.87,-29.04 1155.4,-35.87"/>
<text text-anchor="middle" x="1063.59" y="-57.8" font-family="Times New Roman,serif" font-size="14.00">0.020</text>
</g>
<!-- 9 -->
<g id="node10" class="node">
<title>9</title>
<g id="a_node10"><a xlink:href="from_environmental manager.svg" xlink:title="environmental manager">
<ellipse fill="none" stroke="black" cx="1389.09" cy="-18" rx="93.68" ry="18"/>
<text text-anchor="middle" x="1389.09" y="-14.3" font-family="Times New Roman,serif" font-size="14.00">environmental manager</text>
</a>
</g>
</g>
<!-- 0&#45;&gt;9 -->
<g id="edge10" class="edge">
<title>0&#45;&gt;9</title>
<path fill="none" stroke="black" d="M854.26,-95.74C917.35,-89.26 1005.76,-79.6 1083.09,-69 1173.65,-56.58 1195.89,-50.78 1286.09,-36 1294.04,-34.7 1302.33,-33.34 1310.61,-31.97"/>
<polygon fill="black" stroke="black" points="1311.38,-35.4 1320.67,-30.32 1310.24,-28.49 1311.38,-35.4"/>
<text text-anchor="middle" x="1193.59" y="-57.8" font-family="Times New Roman,serif" font-size="14.00">0.020</text>
</g>
</g>
</svg>
