<?xml version="1.0" encoding="UTF-8" standalone="no"?>
<!DOCTYPE svg PUBLIC "-//W3C//DTD SVG 1.1//EN"
 "http://www.w3.org/Graphics/SVG/1.1/DTD/svg11.dtd">
<!-- Generated by graphviz version 2.44.1 (20200629.0800)
 -->
<!-- Title: test Pages: 1 -->
<svg width="1346pt" height="131pt"
 viewBox="0.00 0.00 1345.99 131.00" xmlns="http://www.w3.org/2000/svg" xmlns:xlink="http://www.w3.org/1999/xlink">
<g id="graph0" class="graph" transform="scale(1 1) rotate(0) translate(4 127)">
<title>test</title>
<polygon fill="white" stroke="transparent" points="-4,4 -4,-127 1341.99,-127 1341.99,4 -4,4"/>
<!-- 0 -->
<g id="node1" class="node">
<title>0</title>
<g id="a_node1"><a xlink:href="from_psychologist.svg" xlink:title="psychologist">
<ellipse fill="none" stroke="black" cx="683.7" cy="-105" rx="57.39" ry="18"/>
<text text-anchor="middle" x="683.7" y="-101.3" font-family="Times New Roman,serif" font-size="14.00">psychologist</text>
</a>
</g>
</g>
<!-- 0&#45;&gt;0 -->
<g id="edge1" class="edge">
<title>0&#45;&gt;0</title>
<path fill="none" stroke="black" d="M735.36,-112.79C748.78,-112.31 758.89,-109.72 758.89,-105 758.89,-101.57 753.55,-99.26 745.49,-98.07"/>
<polygon fill="black" stroke="black" points="745.62,-94.57 735.36,-97.21 745.02,-101.55 745.62,-94.57"/>
<text text-anchor="middle" x="774.39" y="-101.3" font-family="Times New Roman,serif" font-size="14.00">0.818</text>
</g>
<!-- 1 -->
<g id="node2" class="node">
<title>1</title>
<g id="a_node2"><a xlink:href="from_lecturer.svg" xlink:title="lecturer">
<ellipse fill="none" stroke="black" cx="37.7" cy="-18" rx="37.89" ry="18"/>
<text text-anchor="middle" x="37.7" y="-14.3" font-family="Times New Roman,serif" font-size="14.00">lecturer</text>
</a>
</g>
</g>
<!-- 0&#45;&gt;1 -->
<g id="edge2" class="edge">
<title>0&#45;&gt;1</title>
<path fill="none" stroke="black" d="M626.57,-102.85C518.88,-99.51 279.19,-86.51 84.7,-36 81.69,-35.22 78.6,-34.32 75.51,-33.36"/>
<polygon fill="black" stroke="black" points="76.36,-29.95 65.76,-30.11 74.14,-36.59 76.36,-29.95"/>
<text text-anchor="middle" x="262.2" y="-57.8" font-family="Times New Roman,serif" font-size="14.00">0.136</text>
</g>
<!-- 2 -->
<g id="node3" class="node">
<title>2</title>
<g id="a_node3"><a xlink:href="from_careers adviser.svg" xlink:title="careers adviser">
<ellipse fill="none" stroke="black" cx="158.7" cy="-18" rx="64.99" ry="18"/>
<text text-anchor="middle" x="158.7" y="-14.3" font-family="Times New Roman,serif" font-size="14.00">careers adviser</text>
</a>
</g>
</g>
<!-- 0&#45;&gt;2 -->
<g id="edge3" class="edge">
<title>0&#45;&gt;2</title>
<path fill="none" stroke="black" d="M630.52,-98.32C574.46,-92.09 483.65,-81.33 405.7,-69 328.38,-56.77 309.3,-52.1 232.7,-36 227.38,-34.88 221.85,-33.68 216.32,-32.46"/>
<polygon fill="black" stroke="black" points="216.93,-29.01 206.41,-30.24 215.4,-35.84 216.93,-29.01"/>
<text text-anchor="middle" x="421.2" y="-57.8" font-family="Times New Roman,serif" font-size="14.00">0.113</text>
</g>
<!-- 3 -->
<g id="node4" class="node">
<title>3</title>
<g id="a_node4"><a xlink:href="from_it consultant.svg" xlink:title="it consultant">
<ellipse fill="none" stroke="black" cx="296.7" cy="-18" rx="54.69" ry="18"/>
<text text-anchor="middle" x="296.7" y="-14.3" font-family="Times New Roman,serif" font-size="14.00">it consultant</text>
</a>
</g>
</g>
<!-- 0&#45;&gt;3 -->
<g id="edge4" class="edge">
<title>0&#45;&gt;3</title>
<path fill="none" stroke="black" d="M636.18,-94.8C573.04,-82.4 458.12,-59.18 360.7,-36 356.3,-34.95 351.74,-33.83 347.18,-32.67"/>
<polygon fill="black" stroke="black" points="347.8,-29.22 337.24,-30.11 346.05,-36 347.8,-29.22"/>
<text text-anchor="middle" x="518.2" y="-57.8" font-family="Times New Roman,serif" font-size="14.00">0.113</text>
</g>
<!-- 4 -->
<g id="node5" class="node">
<title>4</title>
<g id="a_node5"><a xlink:href="from_clinical research associate.svg" xlink:title="clinical research associate">
<ellipse fill="none" stroke="black" cx="473.7" cy="-18" rx="103.98" ry="18"/>
<text text-anchor="middle" x="473.7" y="-14.3" font-family="Times New Roman,serif" font-size="14.00">clinical research associate</text>
</a>
</g>
</g>
<!-- 0&#45;&gt;4 -->
<g id="edge5" class="edge">
<title>0&#45;&gt;4</title>
<path fill="none" stroke="black" d="M649.96,-90.34C615.43,-76.37 561.45,-54.52 522.32,-38.68"/>
<polygon fill="black" stroke="black" points="523.29,-35.3 512.71,-34.79 520.67,-41.79 523.29,-35.3"/>
<text text-anchor="middle" x="607.2" y="-57.8" font-family="Times New Roman,serif" font-size="14.00">0.068</text>
</g>
<!-- 5 -->
<g id="node6" class="node">
<title>5</title>
<g id="a_node6"><a xlink:href="from_child psychotherapist.svg" xlink:title="child psychotherapist">
<ellipse fill="none" stroke="black" cx="683.7" cy="-18" rx="88.28" ry="18"/>
<text text-anchor="middle" x="683.7" y="-14.3" font-family="Times New Roman,serif" font-size="14.00">child psychotherapist</text>
</a>
</g>
</g>
<!-- 0&#45;&gt;5 -->
<g id="edge6" class="edge">
<title>0&#45;&gt;5</title>
<path fill="none" stroke="black" d="M683.7,-86.8C683.7,-75.16 683.7,-59.55 683.7,-46.24"/>
<polygon fill="black" stroke="black" points="687.2,-46.18 683.7,-36.18 680.2,-46.18 687.2,-46.18"/>
<text text-anchor="middle" x="699.2" y="-57.8" font-family="Times New Roman,serif" font-size="14.00">0.045</text>
</g>
<!-- 6 -->
<g id="node7" class="node">
<title>6</title>
<g id="a_node7"><a xlink:href="from_human resources officer.svg" xlink:title="human resources officer">
<ellipse fill="none" stroke="black" cx="888.7" cy="-18" rx="98.58" ry="18"/>
<text text-anchor="middle" x="888.7" y="-14.3" font-family="Times New Roman,serif" font-size="14.00">human resources officer</text>
</a>
</g>
</g>
<!-- 0&#45;&gt;6 -->
<g id="edge7" class="edge">
<title>0&#45;&gt;6</title>
<path fill="none" stroke="black" d="M717.09,-90.15C750.87,-76.15 803.4,-54.37 841.45,-38.59"/>
<polygon fill="black" stroke="black" points="842.89,-41.78 850.79,-34.72 840.21,-35.31 842.89,-41.78"/>
<text text-anchor="middle" x="814.2" y="-57.8" font-family="Times New Roman,serif" font-size="14.00">0.045</text>
</g>
<!-- 7 -->
<g id="node8" class="node">
<title>7</title>
<g id="a_node8"><a xlink:href="from_social researcher.svg" xlink:title="social researcher">
<ellipse fill="none" stroke="black" cx="1076.7" cy="-18" rx="71.49" ry="18"/>
<text text-anchor="middle" x="1076.7" y="-14.3" font-family="Times New Roman,serif" font-size="14.00">social researcher</text>
</a>
</g>
</g>
<!-- 0&#45;&gt;7 -->
<g id="edge8" class="edge">
<title>0&#45;&gt;7</title>
<path fill="none" stroke="black" d="M729.55,-94.08C800.03,-78.84 935.15,-49.61 1014.43,-32.47"/>
<polygon fill="black" stroke="black" points="1015.25,-35.87 1024.28,-30.34 1013.77,-29.03 1015.25,-35.87"/>
<text text-anchor="middle" x="920.2" y="-57.8" font-family="Times New Roman,serif" font-size="14.00">0.045</text>
</g>
<!-- 8 -->
<g id="node9" class="node">
<title>8</title>
<g id="a_node9"><a xlink:href="from_teacher.svg" xlink:title="teacher">
<ellipse fill="none" stroke="black" cx="1202.7" cy="-18" rx="36.29" ry="18"/>
<text text-anchor="middle" x="1202.7" y="-14.3" font-family="Times New Roman,serif" font-size="14.00">teacher</text>
</a>
</g>
</g>
<!-- 0&#45;&gt;8 -->
<g id="edge9" class="edge">
<title>0&#45;&gt;8</title>
<path fill="none" stroke="black" d="M738.73,-100.03C827.73,-92.73 1008.28,-74.29 1156.7,-36 1159.65,-35.24 1162.68,-34.36 1165.71,-33.4"/>
<polygon fill="black" stroke="black" points="1166.9,-36.69 1175.26,-30.17 1164.66,-30.06 1166.9,-36.69"/>
<text text-anchor="middle" x="1083.2" y="-57.8" font-family="Times New Roman,serif" font-size="14.00">0.045</text>
</g>
<!-- 9 -->
<g id="node10" class="node">
<title>9</title>
<g id="a_node10"><a xlink:href="from_barrister.svg" xlink:title="barrister">
<ellipse fill="none" stroke="black" cx="1297.7" cy="-18" rx="40.09" ry="18"/>
<text text-anchor="middle" x="1297.7" y="-14.3" font-family="Times New Roman,serif" font-size="14.00">barrister</text>
</a>
</g>
</g>
<!-- 0&#45;&gt;9 -->
<g id="edge10" class="edge">
<title>0&#45;&gt;9</title>
<path fill="none" stroke="black" d="M740.24,-101.8C821.02,-98.08 973.93,-88.93 1102.7,-69 1168.01,-58.89 1184.1,-54 1247.7,-36 1250.87,-35.1 1254.14,-34.12 1257.42,-33.09"/>
<polygon fill="black" stroke="black" points="1258.74,-36.35 1267.18,-29.94 1256.59,-29.69 1258.74,-36.35"/>
<text text-anchor="middle" x="1196.2" y="-57.8" font-family="Times New Roman,serif" font-size="14.00">0.022</text>
</g>
</g>
</svg>
