<?xml version="1.0" encoding="UTF-8" standalone="no"?>
<!DOCTYPE svg PUBLIC "-//W3C//DTD SVG 1.1//EN"
 "http://www.w3.org/Graphics/SVG/1.1/DTD/svg11.dtd">
<!-- Generated by graphviz version 2.44.1 (20200629.0800)
 -->
<!-- Title: test Pages: 1 -->
<svg width="1376pt" height="131pt"
 viewBox="0.00 0.00 1376.49 131.00" xmlns="http://www.w3.org/2000/svg" xmlns:xlink="http://www.w3.org/1999/xlink">
<g id="graph0" class="graph" transform="scale(1 1) rotate(0) translate(4 127)">
<title>test</title>
<polygon fill="white" stroke="transparent" points="-4,4 -4,-127 1372.49,-127 1372.49,4 -4,4"/>
<!-- 0 -->
<g id="node1" class="node">
<title>0</title>
<g id="a_node1"><a xlink:href="from_landscape architect.svg" xlink:title="landscape architect">
<ellipse fill="none" stroke="black" cx="691.6" cy="-105" rx="79.89" ry="18"/>
<text text-anchor="middle" x="691.6" y="-101.3" font-family="Times New Roman,serif" font-size="14.00">landscape architect</text>
</a>
</g>
</g>
<!-- 0&#45;&gt;0 -->
<g id="edge1" class="edge">
<title>0&#45;&gt;0</title>
<path fill="none" stroke="black" d="M764.21,-112.57C778.97,-111.75 789.54,-109.22 789.54,-105 789.54,-101.83 783.59,-99.62 774.39,-98.36"/>
<polygon fill="black" stroke="black" points="774.49,-94.86 764.21,-97.43 773.85,-101.83 774.49,-94.86"/>
<text text-anchor="middle" x="805.04" y="-101.3" font-family="Times New Roman,serif" font-size="14.00">0.227</text>
</g>
<!-- 1 -->
<g id="node2" class="node">
<title>1</title>
<g id="a_node2"><a xlink:href="from_architect.svg" xlink:title="architect">
<ellipse fill="none" stroke="black" cx="41.6" cy="-18" rx="41.69" ry="18"/>
<text text-anchor="middle" x="41.6" y="-14.3" font-family="Times New Roman,serif" font-size="14.00">architect</text>
</a>
</g>
</g>
<!-- 0&#45;&gt;1 -->
<g id="edge2" class="edge">
<title>0&#45;&gt;1</title>
<path fill="none" stroke="black" d="M613.48,-100.69C498.08,-94.55 275.84,-77.98 91.6,-36 88.38,-35.27 85.08,-34.4 81.78,-33.46"/>
<polygon fill="black" stroke="black" points="82.57,-30.04 71.98,-30.45 80.51,-36.73 82.57,-30.04"/>
<text text-anchor="middle" x="287.1" y="-57.8" font-family="Times New Roman,serif" font-size="14.00">0.136</text>
</g>
<!-- 2 -->
<g id="node3" class="node">
<title>2</title>
<g id="a_node3"><a xlink:href="from_pharmacovigilance officer.svg" xlink:title="pharmacovigilance officer">
<ellipse fill="none" stroke="black" cx="205.6" cy="-18" rx="104.78" ry="18"/>
<text text-anchor="middle" x="205.6" y="-14.3" font-family="Times New Roman,serif" font-size="14.00">pharmacovigilance officer</text>
</a>
</g>
</g>
<!-- 0&#45;&gt;2 -->
<g id="edge3" class="edge">
<title>0&#45;&gt;2</title>
<path fill="none" stroke="black" d="M629.22,-93.69C587.89,-86.82 532.48,-77.51 483.6,-69 416.4,-57.3 340.15,-43.56 284.53,-33.44"/>
<polygon fill="black" stroke="black" points="284.86,-29.94 274.39,-31.6 283.6,-36.83 284.86,-29.94"/>
<text text-anchor="middle" x="499.1" y="-57.8" font-family="Times New Roman,serif" font-size="14.00">0.090</text>
</g>
<!-- 3 -->
<g id="node4" class="node">
<title>3</title>
<g id="a_node4"><a xlink:href="from_it consultant.svg" xlink:title="it consultant">
<ellipse fill="none" stroke="black" cx="382.6" cy="-18" rx="54.69" ry="18"/>
<text text-anchor="middle" x="382.6" y="-14.3" font-family="Times New Roman,serif" font-size="14.00">it consultant</text>
</a>
</g>
</g>
<!-- 0&#45;&gt;3 -->
<g id="edge4" class="edge">
<title>0&#45;&gt;3</title>
<path fill="none" stroke="black" d="M642.98,-90.63C585.62,-74.85 490.75,-48.75 432.74,-32.79"/>
<polygon fill="black" stroke="black" points="433.63,-29.41 423.06,-30.13 431.77,-36.16 433.63,-29.41"/>
<text text-anchor="middle" x="572.1" y="-57.8" font-family="Times New Roman,serif" font-size="14.00">0.068</text>
</g>
<!-- 4 -->
<g id="node5" class="node">
<title>4</title>
<g id="a_node5"><a xlink:href="from_software architect.svg" xlink:title="software architect">
<ellipse fill="none" stroke="black" cx="530.6" cy="-18" rx="75.29" ry="18"/>
<text text-anchor="middle" x="530.6" y="-14.3" font-family="Times New Roman,serif" font-size="14.00">software architect</text>
</a>
</g>
</g>
<!-- 0&#45;&gt;4 -->
<g id="edge5" class="edge">
<title>0&#45;&gt;4</title>
<path fill="none" stroke="black" d="M661.69,-88.21C635.6,-74.43 597.58,-54.36 569.19,-39.38"/>
<polygon fill="black" stroke="black" points="570.82,-36.28 560.34,-34.7 567.55,-42.47 570.82,-36.28"/>
<text text-anchor="middle" x="637.1" y="-57.8" font-family="Times New Roman,serif" font-size="14.00">0.068</text>
</g>
<!-- 5 -->
<g id="node6" class="node">
<title>5</title>
<g id="a_node6"><a xlink:href="from_housing adviser.svg" xlink:title="housing adviser">
<ellipse fill="none" stroke="black" cx="691.6" cy="-18" rx="67.69" ry="18"/>
<text text-anchor="middle" x="691.6" y="-14.3" font-family="Times New Roman,serif" font-size="14.00">housing adviser</text>
</a>
</g>
</g>
<!-- 0&#45;&gt;5 -->
<g id="edge6" class="edge">
<title>0&#45;&gt;5</title>
<path fill="none" stroke="black" d="M691.6,-86.8C691.6,-75.16 691.6,-59.55 691.6,-46.24"/>
<polygon fill="black" stroke="black" points="695.1,-46.18 691.6,-36.18 688.1,-46.18 695.1,-46.18"/>
<text text-anchor="middle" x="707.1" y="-57.8" font-family="Times New Roman,serif" font-size="14.00">0.045</text>
</g>
<!-- 6 -->
<g id="node7" class="node">
<title>6</title>
<g id="a_node7"><a xlink:href="from_lecturer.svg" xlink:title="lecturer">
<ellipse fill="none" stroke="black" cx="814.6" cy="-18" rx="37.89" ry="18"/>
<text text-anchor="middle" x="814.6" y="-14.3" font-family="Times New Roman,serif" font-size="14.00">lecturer</text>
</a>
</g>
</g>
<!-- 0&#45;&gt;6 -->
<g id="edge7" class="edge">
<title>0&#45;&gt;6</title>
<path fill="none" stroke="black" d="M715.31,-87.61C735.31,-73.79 764.02,-53.95 785.43,-39.16"/>
<polygon fill="black" stroke="black" points="787.58,-41.92 793.82,-33.36 783.6,-36.16 787.58,-41.92"/>
<text text-anchor="middle" x="776.1" y="-57.8" font-family="Times New Roman,serif" font-size="14.00">0.045</text>
</g>
<!-- 7 -->
<g id="node8" class="node">
<title>7</title>
<g id="a_node8"><a xlink:href="from_planning technician.svg" xlink:title="planning technician">
<ellipse fill="none" stroke="black" cx="949.6" cy="-18" rx="79.09" ry="18"/>
<text text-anchor="middle" x="949.6" y="-14.3" font-family="Times New Roman,serif" font-size="14.00">planning technician</text>
</a>
</g>
</g>
<!-- 0&#45;&gt;7 -->
<g id="edge8" class="edge">
<title>0&#45;&gt;7</title>
<path fill="none" stroke="black" d="M734.78,-89.77C779.34,-75.09 848.89,-52.18 896.71,-36.42"/>
<polygon fill="black" stroke="black" points="897.87,-39.73 906.27,-33.27 895.68,-33.08 897.87,-39.73"/>
<text text-anchor="middle" x="852.1" y="-57.8" font-family="Times New Roman,serif" font-size="14.00">0.045</text>
</g>
<!-- 8 -->
<g id="node9" class="node">
<title>8</title>
<g id="a_node9"><a xlink:href="from_production manager.svg" xlink:title="production manager">
<ellipse fill="none" stroke="black" cx="1129.6" cy="-18" rx="83.39" ry="18"/>
<text text-anchor="middle" x="1129.6" y="-14.3" font-family="Times New Roman,serif" font-size="14.00">production manager</text>
</a>
</g>
</g>
<!-- 0&#45;&gt;8 -->
<g id="edge9" class="edge">
<title>0&#45;&gt;8</title>
<path fill="none" stroke="black" d="M750.21,-92.62C830.49,-77.05 974.4,-49.12 1060.04,-32.5"/>
<polygon fill="black" stroke="black" points="1060.78,-35.92 1069.93,-30.58 1059.44,-29.05 1060.78,-35.92"/>
<text text-anchor="middle" x="953.1" y="-57.8" font-family="Times New Roman,serif" font-size="14.00">0.045</text>
</g>
<!-- 9 -->
<g id="node10" class="node">
<title>9</title>
<g id="a_node10"><a xlink:href="from_project manager.svg" xlink:title="project manager">
<ellipse fill="none" stroke="black" cx="1299.6" cy="-18" rx="68.79" ry="18"/>
<text text-anchor="middle" x="1299.6" y="-14.3" font-family="Times New Roman,serif" font-size="14.00">project manager</text>
</a>
</g>
</g>
<!-- 0&#45;&gt;9 -->
<g id="edge10" class="edge">
<title>0&#45;&gt;9</title>
<path fill="none" stroke="black" d="M763.06,-96.92C865.16,-86.34 1058.48,-64.53 1221.6,-36 1227.46,-34.97 1233.54,-33.82 1239.62,-32.6"/>
<polygon fill="black" stroke="black" points="1240.7,-35.95 1249.78,-30.5 1239.28,-29.09 1240.7,-35.95"/>
<text text-anchor="middle" x="1122.1" y="-57.8" font-family="Times New Roman,serif" font-size="14.00">0.045</text>
</g>
</g>
</svg>
