<?xml version="1.0" encoding="UTF-8" standalone="no"?>
<!DOCTYPE svg PUBLIC "-//W3C//DTD SVG 1.1//EN"
 "http://www.w3.org/Graphics/SVG/1.1/DTD/svg11.dtd">
<!-- Generated by graphviz version 2.44.1 (20200629.0800)
 -->
<!-- Title: test Pages: 1 -->
<svg width="1469pt" height="131pt"
 viewBox="0.00 0.00 1468.79 131.00" xmlns="http://www.w3.org/2000/svg" xmlns:xlink="http://www.w3.org/1999/xlink">
<g id="graph0" class="graph" transform="scale(1 1) rotate(0) translate(4 127)">
<title>test</title>
<polygon fill="white" stroke="transparent" points="-4,4 -4,-127 1464.79,-127 1464.79,4 -4,4"/>
<!-- 0 -->
<g id="node1" class="node">
<title>0</title>
<g id="a_node1"><a xlink:href="from_marketing executive.svg" xlink:title="marketing executive">
<ellipse fill="none" stroke="black" cx="733.29" cy="-105" rx="81.79" ry="18"/>
<text text-anchor="middle" x="733.29" y="-101.3" font-family="Times New Roman,serif" font-size="14.00">marketing executive</text>
</a>
</g>
</g>
<!-- 0&#45;&gt;0 -->
<g id="edge1" class="edge">
<title>0&#45;&gt;0</title>
<path fill="none" stroke="black" d="M807.79,-112.55C822.61,-111.7 833.19,-109.18 833.19,-105 833.19,-101.86 827.24,-99.66 818.01,-98.4"/>
<polygon fill="black" stroke="black" points="818.07,-94.89 807.79,-97.45 817.42,-101.86 818.07,-94.89"/>
<text text-anchor="middle" x="848.69" y="-101.3" font-family="Times New Roman,serif" font-size="14.00">0.424</text>
</g>
<!-- 1 -->
<g id="node2" class="node">
<title>1</title>
<g id="a_node2"><a xlink:href="from_marketing assistant.svg" xlink:title="marketing assistant">
<ellipse fill="none" stroke="black" cx="79.29" cy="-18" rx="79.09" ry="18"/>
<text text-anchor="middle" x="79.29" y="-14.3" font-family="Times New Roman,serif" font-size="14.00">marketing assistant</text>
</a>
</g>
</g>
<!-- 0&#45;&gt;1 -->
<g id="edge2" class="edge">
<title>0&#45;&gt;1</title>
<path fill="none" stroke="black" d="M656.93,-98.4C581.99,-92.53 464.53,-82.29 363.29,-69 275.71,-57.5 254.22,-51.71 167.29,-36 160.71,-34.81 153.85,-33.54 147,-32.25"/>
<polygon fill="black" stroke="black" points="147.48,-28.78 137.01,-30.35 146.18,-35.66 147.48,-28.78"/>
<text text-anchor="middle" x="378.79" y="-57.8" font-family="Times New Roman,serif" font-size="14.00">0.164</text>
</g>
<!-- 2 -->
<g id="node3" class="node">
<title>2</title>
<g id="a_node3"><a xlink:href="from_sales manager.svg" xlink:title="sales manager">
<ellipse fill="none" stroke="black" cx="237.29" cy="-18" rx="61.19" ry="18"/>
<text text-anchor="middle" x="237.29" y="-14.3" font-family="Times New Roman,serif" font-size="14.00">sales manager</text>
</a>
</g>
</g>
<!-- 0&#45;&gt;2 -->
<g id="edge3" class="edge">
<title>0&#45;&gt;2</title>
<path fill="none" stroke="black" d="M664.18,-95.27C613.69,-88.67 543.62,-79.05 482.29,-69 404.19,-56.2 384.66,-52.68 307.29,-36 302.38,-34.94 297.28,-33.79 292.17,-32.61"/>
<polygon fill="black" stroke="black" points="292.94,-29.2 282.4,-30.32 291.33,-36.01 292.94,-29.2"/>
<text text-anchor="middle" x="497.79" y="-57.8" font-family="Times New Roman,serif" font-size="14.00">0.102</text>
</g>
<!-- 3 -->
<g id="node4" class="node">
<title>3</title>
<g id="a_node4"><a xlink:href="from_it consultant.svg" xlink:title="it consultant">
<ellipse fill="none" stroke="black" cx="371.29" cy="-18" rx="54.69" ry="18"/>
<text text-anchor="middle" x="371.29" y="-14.3" font-family="Times New Roman,serif" font-size="14.00">it consultant</text>
</a>
</g>
</g>
<!-- 0&#45;&gt;3 -->
<g id="edge4" class="edge">
<title>0&#45;&gt;3</title>
<path fill="none" stroke="black" d="M677.13,-91.8C617.12,-78.63 519.27,-56.73 435.29,-36 430.97,-34.93 426.49,-33.8 422,-32.64"/>
<polygon fill="black" stroke="black" points="422.77,-29.23 412.21,-30.1 421.01,-36 422.77,-29.23"/>
<text text-anchor="middle" x="589.79" y="-57.8" font-family="Times New Roman,serif" font-size="14.00">0.050</text>
</g>
<!-- 4 -->
<g id="node5" class="node">
<title>4</title>
<g id="a_node5"><a xlink:href="from_production manager.svg" xlink:title="production manager">
<ellipse fill="none" stroke="black" cx="527.29" cy="-18" rx="83.39" ry="18"/>
<text text-anchor="middle" x="527.29" y="-14.3" font-family="Times New Roman,serif" font-size="14.00">production manager</text>
</a>
</g>
</g>
<!-- 0&#45;&gt;4 -->
<g id="edge5" class="edge">
<title>0&#45;&gt;4</title>
<path fill="none" stroke="black" d="M696.46,-88.8C662.15,-74.65 610.84,-53.48 573.74,-38.16"/>
<polygon fill="black" stroke="black" points="574.73,-34.79 564.15,-34.21 572.06,-41.26 574.73,-34.79"/>
<text text-anchor="middle" x="658.79" y="-57.8" font-family="Times New Roman,serif" font-size="14.00">0.042</text>
</g>
<!-- 5 -->
<g id="node6" class="node">
<title>5</title>
<g id="a_node6"><a xlink:href="from_pharmacovigilance officer.svg" xlink:title="pharmacovigilance officer">
<ellipse fill="none" stroke="black" cx="733.29" cy="-18" rx="104.78" ry="18"/>
<text text-anchor="middle" x="733.29" y="-14.3" font-family="Times New Roman,serif" font-size="14.00">pharmacovigilance officer</text>
</a>
</g>
</g>
<!-- 0&#45;&gt;5 -->
<g id="edge6" class="edge">
<title>0&#45;&gt;5</title>
<path fill="none" stroke="black" d="M733.29,-86.8C733.29,-75.16 733.29,-59.55 733.29,-46.24"/>
<polygon fill="black" stroke="black" points="736.79,-46.18 733.29,-36.18 729.79,-46.18 736.79,-46.18"/>
<text text-anchor="middle" x="748.79" y="-57.8" font-family="Times New Roman,serif" font-size="14.00">0.038</text>
</g>
<!-- 6 -->
<g id="node7" class="node">
<title>6</title>
<g id="a_node7"><a xlink:href="from_project manager.svg" xlink:title="project manager">
<ellipse fill="none" stroke="black" cx="925.29" cy="-18" rx="68.79" ry="18"/>
<text text-anchor="middle" x="925.29" y="-14.3" font-family="Times New Roman,serif" font-size="14.00">project manager</text>
</a>
</g>
</g>
<!-- 0&#45;&gt;6 -->
<g id="edge7" class="edge">
<title>0&#45;&gt;6</title>
<path fill="none" stroke="black" d="M768.06,-88.61C800.17,-74.39 847.95,-53.24 882.41,-37.99"/>
<polygon fill="black" stroke="black" points="884.02,-41.1 891.75,-33.85 881.19,-34.7 884.02,-41.1"/>
<text text-anchor="middle" x="856.79" y="-57.8" font-family="Times New Roman,serif" font-size="14.00">0.038</text>
</g>
<!-- 7 -->
<g id="node8" class="node">
<title>7</title>
<g id="a_node8"><a xlink:href="from_content manager.svg" xlink:title="content manager">
<ellipse fill="none" stroke="black" cx="1082.29" cy="-18" rx="70.39" ry="18"/>
<text text-anchor="middle" x="1082.29" y="-14.3" font-family="Times New Roman,serif" font-size="14.00">content manager</text>
</a>
</g>
</g>
<!-- 0&#45;&gt;7 -->
<g id="edge8" class="edge">
<title>0&#45;&gt;7</title>
<path fill="none" stroke="black" d="M785.92,-91.18C849.68,-75.65 956.78,-49.57 1023.28,-33.37"/>
<polygon fill="black" stroke="black" points="1024.3,-36.73 1033.19,-30.96 1022.65,-29.92 1024.3,-36.73"/>
<text text-anchor="middle" x="944.79" y="-57.8" font-family="Times New Roman,serif" font-size="14.00">0.028</text>
</g>
<!-- 8 -->
<g id="node9" class="node">
<title>8</title>
<g id="a_node9"><a xlink:href="from_brand manager.svg" xlink:title="brand manager">
<ellipse fill="none" stroke="black" cx="1235.29" cy="-18" rx="64.19" ry="18"/>
<text text-anchor="middle" x="1235.29" y="-14.3" font-family="Times New Roman,serif" font-size="14.00">brand manager</text>
</a>
</g>
</g>
<!-- 0&#45;&gt;8 -->
<g id="edge9" class="edge">
<title>0&#45;&gt;8</title>
<path fill="none" stroke="black" d="M801.03,-94.87C885.66,-83.1 1034.73,-61.12 1161.29,-36 1166.71,-34.93 1172.33,-33.75 1177.95,-32.53"/>
<polygon fill="black" stroke="black" points="1179,-35.88 1188.01,-30.31 1177.49,-29.05 1179,-35.88"/>
<text text-anchor="middle" x="1071.79" y="-57.8" font-family="Times New Roman,serif" font-size="14.00">0.026</text>
</g>
<!-- 9 -->
<g id="node10" class="node">
<title>9</title>
<g id="a_node10"><a xlink:href="from_catering manager.svg" xlink:title="catering manager">
<ellipse fill="none" stroke="black" cx="1389.29" cy="-18" rx="71.49" ry="18"/>
<text text-anchor="middle" x="1389.29" y="-14.3" font-family="Times New Roman,serif" font-size="14.00">catering manager</text>
</a>
</g>
</g>
<!-- 0&#45;&gt;9 -->
<g id="edge10" class="edge">
<title>0&#45;&gt;9</title>
<path fill="none" stroke="black" d="M808.51,-97.82C881.04,-91.59 993.85,-81.16 1091.29,-69 1188.09,-56.92 1212.3,-53.36 1308.29,-36 1314.42,-34.89 1320.79,-33.67 1327.15,-32.41"/>
<polygon fill="black" stroke="black" points="1327.98,-35.81 1337.09,-30.4 1326.6,-28.95 1327.98,-35.81"/>
<text text-anchor="middle" x="1215.79" y="-57.8" font-family="Times New Roman,serif" font-size="14.00">0.026</text>
</g>
</g>
</svg>
