<?xml version="1.0" encoding="UTF-8" standalone="no"?>
<!DOCTYPE svg PUBLIC "-//W3C//DTD SVG 1.1//EN"
 "http://www.w3.org/Graphics/SVG/1.1/DTD/svg11.dtd">
<!-- Generated by graphviz version 2.44.1 (20200629.0800)
 -->
<!-- Title: test Pages: 1 -->
<svg width="1611pt" height="131pt"
 viewBox="0.00 0.00 1611.34 131.00" xmlns="http://www.w3.org/2000/svg" xmlns:xlink="http://www.w3.org/1999/xlink">
<g id="graph0" class="graph" transform="scale(1 1) rotate(0) translate(4 127)">
<title>test</title>
<polygon fill="white" stroke="transparent" points="-4,4 -4,-127 1607.34,-127 1607.34,4 -4,4"/>
<!-- 0 -->
<g id="node1" class="node">
<title>0</title>
<g id="a_node1"><a xlink:href="from_museum education officer.svg" xlink:title="museum education officer">
<ellipse fill="none" stroke="black" cx="767.54" cy="-105" rx="104.78" ry="18"/>
<text text-anchor="middle" x="767.54" y="-101.3" font-family="Times New Roman,serif" font-size="14.00">museum education officer</text>
</a>
</g>
</g>
<!-- 0&#45;&gt;0 -->
<g id="edge5" class="edge">
<title>0&#45;&gt;0</title>
<path fill="none" stroke="black" d="M863.18,-112.32C879.16,-111.3 890.18,-108.86 890.18,-105 890.18,-102.02 883.59,-99.88 873.21,-98.59"/>
<polygon fill="black" stroke="black" points="873.46,-95.1 863.18,-97.68 872.82,-102.07 873.46,-95.1"/>
<text text-anchor="middle" x="905.68" y="-101.3" font-family="Times New Roman,serif" font-size="14.00">0.066</text>
</g>
<!-- 1 -->
<g id="node2" class="node">
<title>1</title>
<g id="a_node2"><a xlink:href="from_education administrator.svg" xlink:title="education administrator">
<ellipse fill="none" stroke="black" cx="95.54" cy="-18" rx="95.58" ry="18"/>
<text text-anchor="middle" x="95.54" y="-14.3" font-family="Times New Roman,serif" font-size="14.00">education administrator</text>
</a>
</g>
</g>
<!-- 0&#45;&gt;1 -->
<g id="edge1" class="edge">
<title>0&#45;&gt;1</title>
<path fill="none" stroke="black" d="M676.02,-96.14C605.32,-89.76 505.09,-80.03 417.54,-69 320.75,-56.81 296.91,-51.13 200.54,-36 192.35,-34.71 183.79,-33.36 175.26,-31.99"/>
<polygon fill="black" stroke="black" points="175.71,-28.52 165.28,-30.39 174.6,-35.43 175.71,-28.52"/>
<text text-anchor="middle" x="433.04" y="-57.8" font-family="Times New Roman,serif" font-size="14.00">0.133</text>
</g>
<!-- 2 -->
<g id="node3" class="node">
<title>2</title>
<g id="a_node3"><a xlink:href="from_careers adviser.svg" xlink:title="careers adviser">
<ellipse fill="none" stroke="black" cx="274.54" cy="-18" rx="64.99" ry="18"/>
<text text-anchor="middle" x="274.54" y="-14.3" font-family="Times New Roman,serif" font-size="14.00">careers adviser</text>
</a>
</g>
</g>
<!-- 0&#45;&gt;2 -->
<g id="edge2" class="edge">
<title>0&#45;&gt;2</title>
<path fill="none" stroke="black" d="M689.26,-92.93C604.87,-80.62 466.75,-59.36 348.54,-36 343.21,-34.95 337.67,-33.79 332.14,-32.59"/>
<polygon fill="black" stroke="black" points="332.74,-29.14 322.22,-30.41 331.23,-35.98 332.74,-29.14"/>
<text text-anchor="middle" x="548.04" y="-57.8" font-family="Times New Roman,serif" font-size="14.00">0.066</text>
</g>
<!-- 3 -->
<g id="node4" class="node">
<title>3</title>
<g id="a_node4"><a xlink:href="from_immigration officer.svg" xlink:title="immigration officer">
<ellipse fill="none" stroke="black" cx="436.54" cy="-18" rx="79.09" ry="18"/>
<text text-anchor="middle" x="436.54" y="-14.3" font-family="Times New Roman,serif" font-size="14.00">immigration officer</text>
</a>
</g>
</g>
<!-- 0&#45;&gt;3 -->
<g id="edge3" class="edge">
<title>0&#45;&gt;3</title>
<path fill="none" stroke="black" d="M711.77,-89.68C652.17,-74.37 558.01,-50.19 496.76,-34.46"/>
<polygon fill="black" stroke="black" points="497.4,-31.02 486.84,-31.92 495.66,-37.8 497.4,-31.02"/>
<text text-anchor="middle" x="638.04" y="-57.8" font-family="Times New Roman,serif" font-size="14.00">0.066</text>
</g>
<!-- 4 -->
<g id="node5" class="node">
<title>4</title>
<g id="a_node5"><a xlink:href="from_legal executive.svg" xlink:title="legal executive">
<ellipse fill="none" stroke="black" cx="596.54" cy="-18" rx="63.09" ry="18"/>
<text text-anchor="middle" x="596.54" y="-14.3" font-family="Times New Roman,serif" font-size="14.00">legal executive</text>
</a>
</g>
</g>
<!-- 0&#45;&gt;4 -->
<g id="edge4" class="edge">
<title>0&#45;&gt;4</title>
<path fill="none" stroke="black" d="M734.98,-87.81C706.82,-73.82 666.04,-53.55 636.03,-38.63"/>
<polygon fill="black" stroke="black" points="637.21,-35.3 626.69,-33.99 634.09,-41.57 637.21,-35.3"/>
<text text-anchor="middle" x="708.04" y="-57.8" font-family="Times New Roman,serif" font-size="14.00">0.066</text>
</g>
<!-- 5 -->
<g id="node6" class="node">
<title>5</title>
<g id="a_node6"><a xlink:href="from_network administrator.svg" xlink:title="network administrator">
<ellipse fill="none" stroke="black" cx="767.54" cy="-18" rx="89.88" ry="18"/>
<text text-anchor="middle" x="767.54" y="-14.3" font-family="Times New Roman,serif" font-size="14.00">network administrator</text>
</a>
</g>
</g>
<!-- 0&#45;&gt;5 -->
<g id="edge6" class="edge">
<title>0&#45;&gt;5</title>
<path fill="none" stroke="black" d="M767.54,-86.8C767.54,-75.16 767.54,-59.55 767.54,-46.24"/>
<polygon fill="black" stroke="black" points="771.04,-46.18 767.54,-36.18 764.04,-46.18 771.04,-46.18"/>
<text text-anchor="middle" x="783.04" y="-57.8" font-family="Times New Roman,serif" font-size="14.00">0.066</text>
</g>
<!-- 6 -->
<g id="node7" class="node">
<title>6</title>
<g id="a_node7"><a xlink:href="from_production manager.svg" xlink:title="production manager">
<ellipse fill="none" stroke="black" cx="958.54" cy="-18" rx="83.39" ry="18"/>
<text text-anchor="middle" x="958.54" y="-14.3" font-family="Times New Roman,serif" font-size="14.00">production manager</text>
</a>
</g>
</g>
<!-- 0&#45;&gt;6 -->
<g id="edge7" class="edge">
<title>0&#45;&gt;6</title>
<path fill="none" stroke="black" d="M803.47,-88.01C834.98,-73.99 880.89,-53.56 914.59,-38.56"/>
<polygon fill="black" stroke="black" points="916.03,-41.75 923.74,-34.49 913.18,-35.35 916.03,-41.75"/>
<text text-anchor="middle" x="890.04" y="-57.8" font-family="Times New Roman,serif" font-size="14.00">0.066</text>
</g>
<!-- 7 -->
<g id="node8" class="node">
<title>7</title>
<g id="a_node8"><a xlink:href="from_programme researcher.svg" xlink:title="programme researcher">
<ellipse fill="none" stroke="black" cx="1151.54" cy="-18" rx="91.78" ry="18"/>
<text text-anchor="middle" x="1151.54" y="-14.3" font-family="Times New Roman,serif" font-size="14.00">programme researcher</text>
</a>
</g>
</g>
<!-- 0&#45;&gt;7 -->
<g id="edge8" class="edge">
<title>0&#45;&gt;7</title>
<path fill="none" stroke="black" d="M829.24,-90.34C898.69,-74.97 1011.21,-50.06 1083.26,-34.12"/>
<polygon fill="black" stroke="black" points="1084.14,-37.5 1093.15,-31.93 1082.63,-30.67 1084.14,-37.5"/>
<text text-anchor="middle" x="998.04" y="-57.8" font-family="Times New Roman,serif" font-size="14.00">0.066</text>
</g>
<!-- 8 -->
<g id="node9" class="node">
<title>8</title>
<g id="a_node9"><a xlink:href="from_public house manager.svg" xlink:title="public house manager">
<ellipse fill="none" stroke="black" cx="1350.54" cy="-18" rx="89.88" ry="18"/>
<text text-anchor="middle" x="1350.54" y="-14.3" font-family="Times New Roman,serif" font-size="14.00">public house manager</text>
</a>
</g>
</g>
<!-- 0&#45;&gt;8 -->
<g id="edge9" class="edge">
<title>0&#45;&gt;8</title>
<path fill="none" stroke="black" d="M848.33,-93.49C944.69,-80.77 1110.59,-58.27 1252.54,-36 1260.1,-34.81 1267.97,-33.53 1275.83,-32.22"/>
<polygon fill="black" stroke="black" points="1276.47,-35.66 1285.75,-30.54 1275.31,-28.76 1276.47,-35.66"/>
<text text-anchor="middle" x="1149.04" y="-57.8" font-family="Times New Roman,serif" font-size="14.00">0.066</text>
</g>
<!-- 9 -->
<g id="node10" class="node">
<title>9</title>
<g id="a_node10"><a xlink:href="from_research scientist.svg" xlink:title="research scientist">
<ellipse fill="none" stroke="black" cx="1530.54" cy="-18" rx="72.59" ry="18"/>
<text text-anchor="middle" x="1530.54" y="-14.3" font-family="Times New Roman,serif" font-size="14.00">research scientist</text>
</a>
</g>
</g>
<!-- 0&#45;&gt;9 -->
<g id="edge10" class="edge">
<title>0&#45;&gt;9</title>
<path fill="none" stroke="black" d="M864.6,-98.16C997.32,-89.29 1242.56,-69.8 1449.54,-36 1455.68,-35 1462.07,-33.85 1468.43,-32.63"/>
<polygon fill="black" stroke="black" points="1469.25,-36.03 1478.38,-30.67 1467.9,-29.17 1469.25,-36.03"/>
<text text-anchor="middle" x="1336.04" y="-57.8" font-family="Times New Roman,serif" font-size="14.00">0.066</text>
</g>
</g>
</svg>
