<?xml version="1.0" encoding="UTF-8" standalone="no"?>
<!DOCTYPE svg PUBLIC "-//W3C//DTD SVG 1.1//EN"
 "http://www.w3.org/Graphics/SVG/1.1/DTD/svg11.dtd">
<!-- Generated by graphviz version 2.44.1 (20200629.0800)
 -->
<!-- Title: test Pages: 1 -->
<svg width="1417pt" height="131pt"
 viewBox="0.00 0.00 1416.59 131.00" xmlns="http://www.w3.org/2000/svg" xmlns:xlink="http://www.w3.org/1999/xlink">
<g id="graph0" class="graph" transform="scale(1 1) rotate(0) translate(4 127)">
<title>test</title>
<polygon fill="white" stroke="transparent" points="-4,4 -4,-127 1412.59,-127 1412.59,4 -4,4"/>
<!-- 0 -->
<g id="node1" class="node">
<title>0</title>
<g id="a_node1"><a xlink:href="from_materials specialist.svg" xlink:title="materials specialist">
<ellipse fill="none" stroke="black" cx="773.6" cy="-105" rx="77.99" ry="18"/>
<text text-anchor="middle" x="773.6" y="-101.3" font-family="Times New Roman,serif" font-size="14.00">materials specialist</text>
</a>
</g>
</g>
<!-- 0&#45;&gt;0 -->
<g id="edge2" class="edge">
<title>0&#45;&gt;0</title>
<path fill="none" stroke="black" d="M844.34,-112.6C859.03,-111.8 869.59,-109.27 869.59,-105 869.59,-101.8 863.65,-99.58 854.48,-98.33"/>
<polygon fill="black" stroke="black" points="854.62,-94.82 844.34,-97.4 853.98,-101.8 854.62,-94.82"/>
<text text-anchor="middle" x="885.09" y="-101.3" font-family="Times New Roman,serif" font-size="14.00">0.076</text>
</g>
<!-- 1 -->
<g id="node2" class="node">
<title>1</title>
<g id="a_node2"><a xlink:href="from_it consultant.svg" xlink:title="it consultant">
<ellipse fill="none" stroke="black" cx="54.6" cy="-18" rx="54.69" ry="18"/>
<text text-anchor="middle" x="54.6" y="-14.3" font-family="Times New Roman,serif" font-size="14.00">it consultant</text>
</a>
</g>
</g>
<!-- 0&#45;&gt;1 -->
<g id="edge1" class="edge">
<title>0&#45;&gt;1</title>
<path fill="none" stroke="black" d="M697.8,-100.53C575.13,-93.93 325.9,-76.45 118.6,-36 113.91,-35.08 109.05,-34.02 104.21,-32.88"/>
<polygon fill="black" stroke="black" points="104.9,-29.44 94.35,-30.44 103.22,-36.24 104.9,-29.44"/>
<text text-anchor="middle" x="331.1" y="-57.8" font-family="Times New Roman,serif" font-size="14.00">0.096</text>
</g>
<!-- 2 -->
<g id="node3" class="node">
<title>2</title>
<g id="a_node3"><a xlink:href="from_software developer.svg" xlink:title="software developer">
<ellipse fill="none" stroke="black" cx="207.6" cy="-18" rx="79.89" ry="18"/>
<text text-anchor="middle" x="207.6" y="-14.3" font-family="Times New Roman,serif" font-size="14.00">software developer</text>
</a>
</g>
</g>
<!-- 0&#45;&gt;2 -->
<g id="edge3" class="edge">
<title>0&#45;&gt;2</title>
<path fill="none" stroke="black" d="M706.67,-95.57C614.24,-83.68 442.38,-60.65 296.6,-36 289.82,-34.85 282.77,-33.61 275.73,-32.32"/>
<polygon fill="black" stroke="black" points="275.93,-28.8 265.46,-30.42 274.66,-35.68 275.93,-28.8"/>
<text text-anchor="middle" x="522.1" y="-57.8" font-family="Times New Roman,serif" font-size="14.00">0.044</text>
</g>
<!-- 3 -->
<g id="node4" class="node">
<title>3</title>
<g id="a_node4"><a xlink:href="from_investment analyst.svg" xlink:title="investment analyst">
<ellipse fill="none" stroke="black" cx="382.6" cy="-18" rx="76.89" ry="18"/>
<text text-anchor="middle" x="382.6" y="-14.3" font-family="Times New Roman,serif" font-size="14.00">investment analyst</text>
</a>
</g>
</g>
<!-- 0&#45;&gt;3 -->
<g id="edge4" class="edge">
<title>0&#45;&gt;3</title>
<path fill="none" stroke="black" d="M718.82,-92.09C647.41,-76.57 522.72,-49.46 446.91,-32.98"/>
<polygon fill="black" stroke="black" points="447.52,-29.53 437,-30.83 446.03,-36.37 447.52,-29.53"/>
<text text-anchor="middle" x="617.1" y="-57.8" font-family="Times New Roman,serif" font-size="14.00">0.032</text>
</g>
<!-- 4 -->
<g id="node5" class="node">
<title>4</title>
<g id="a_node5"><a xlink:href="from_pharmacovigilance officer.svg" xlink:title="pharmacovigilance officer">
<ellipse fill="none" stroke="black" cx="581.6" cy="-18" rx="104.78" ry="18"/>
<text text-anchor="middle" x="581.6" y="-14.3" font-family="Times New Roman,serif" font-size="14.00">pharmacovigilance officer</text>
</a>
</g>
</g>
<!-- 0&#45;&gt;4 -->
<g id="edge5" class="edge">
<title>0&#45;&gt;4</title>
<path fill="none" stroke="black" d="M739.27,-88.8C707.92,-74.92 661.34,-54.31 626.94,-39.07"/>
<polygon fill="black" stroke="black" points="628.14,-35.78 617.58,-34.93 625.31,-42.18 628.14,-35.78"/>
<text text-anchor="middle" x="705.1" y="-57.8" font-family="Times New Roman,serif" font-size="14.00">0.032</text>
</g>
<!-- 5 -->
<g id="node6" class="node">
<title>5</title>
<g id="a_node6"><a xlink:href="from_project manager.svg" xlink:title="project manager">
<ellipse fill="none" stroke="black" cx="773.6" cy="-18" rx="68.79" ry="18"/>
<text text-anchor="middle" x="773.6" y="-14.3" font-family="Times New Roman,serif" font-size="14.00">project manager</text>
</a>
</g>
</g>
<!-- 0&#45;&gt;5 -->
<g id="edge6" class="edge">
<title>0&#45;&gt;5</title>
<path fill="none" stroke="black" d="M773.6,-86.8C773.6,-75.16 773.6,-59.55 773.6,-46.24"/>
<polygon fill="black" stroke="black" points="777.1,-46.18 773.6,-36.18 770.1,-46.18 777.1,-46.18"/>
<text text-anchor="middle" x="789.1" y="-57.8" font-family="Times New Roman,serif" font-size="14.00">0.032</text>
</g>
<!-- 6 -->
<g id="node7" class="node">
<title>6</title>
<g id="a_node7"><a xlink:href="from_qa analyst.svg" xlink:title="qa analyst">
<ellipse fill="none" stroke="black" cx="907.6" cy="-18" rx="46.59" ry="18"/>
<text text-anchor="middle" x="907.6" y="-14.3" font-family="Times New Roman,serif" font-size="14.00">qa analyst</text>
</a>
</g>
</g>
<!-- 0&#45;&gt;6 -->
<g id="edge7" class="edge">
<title>0&#45;&gt;6</title>
<path fill="none" stroke="black" d="M799.11,-87.81C820.93,-73.97 852.42,-54 875.86,-39.13"/>
<polygon fill="black" stroke="black" points="877.84,-42.02 884.41,-33.71 874.09,-36.11 877.84,-42.02"/>
<text text-anchor="middle" x="865.1" y="-57.8" font-family="Times New Roman,serif" font-size="14.00">0.032</text>
</g>
<!-- 7 -->
<g id="node8" class="node">
<title>7</title>
<g id="a_node8"><a xlink:href="from_systems analyst.svg" xlink:title="systems analyst">
<ellipse fill="none" stroke="black" cx="1039.6" cy="-18" rx="67.69" ry="18"/>
<text text-anchor="middle" x="1039.6" y="-14.3" font-family="Times New Roman,serif" font-size="14.00">systems analyst</text>
</a>
</g>
</g>
<!-- 0&#45;&gt;7 -->
<g id="edge8" class="edge">
<title>0&#45;&gt;7</title>
<path fill="none" stroke="black" d="M817.91,-90.1C838.24,-83.71 862.65,-76 884.6,-69 919.33,-57.92 958.39,-45.32 988.61,-35.54"/>
<polygon fill="black" stroke="black" points="990.06,-38.75 998.5,-32.34 987.91,-32.09 990.06,-38.75"/>
<text text-anchor="middle" x="943.1" y="-57.8" font-family="Times New Roman,serif" font-size="14.00">0.032</text>
</g>
<!-- 8 -->
<g id="node9" class="node">
<title>8</title>
<g id="a_node9"><a xlink:href="from_technical author.svg" xlink:title="technical author">
<ellipse fill="none" stroke="black" cx="1192.6" cy="-18" rx="67.69" ry="18"/>
<text text-anchor="middle" x="1192.6" y="-14.3" font-family="Times New Roman,serif" font-size="14.00">technical author</text>
</a>
</g>
</g>
<!-- 0&#45;&gt;8 -->
<g id="edge9" class="edge">
<title>0&#45;&gt;8</title>
<path fill="none" stroke="black" d="M833.26,-93.39C870.5,-86.66 919.4,-77.63 962.6,-69 1031.24,-55.29 1048.22,-50.97 1116.6,-36 1121.88,-34.84 1127.37,-33.63 1132.86,-32.41"/>
<polygon fill="black" stroke="black" points="1133.73,-35.81 1142.73,-30.22 1132.21,-28.97 1133.73,-35.81"/>
<text text-anchor="middle" x="1050.1" y="-57.8" font-family="Times New Roman,serif" font-size="14.00">0.032</text>
</g>
<!-- 9 -->
<g id="node10" class="node">
<title>9</title>
<g id="a_node10"><a xlink:href="from_careers adviser.svg" xlink:title="careers adviser">
<ellipse fill="none" stroke="black" cx="1343.6" cy="-18" rx="64.99" ry="18"/>
<text text-anchor="middle" x="1343.6" y="-14.3" font-family="Times New Roman,serif" font-size="14.00">careers adviser</text>
</a>
</g>
</g>
<!-- 0&#45;&gt;9 -->
<g id="edge10" class="edge">
<title>0&#45;&gt;9</title>
<path fill="none" stroke="black" d="M843.84,-96.99C940.34,-86.75 1119.08,-65.68 1269.6,-36 1274.93,-34.95 1280.47,-33.79 1286,-32.6"/>
<polygon fill="black" stroke="black" points="1286.91,-35.98 1295.92,-30.41 1285.4,-29.15 1286.91,-35.98"/>
<text text-anchor="middle" x="1178.1" y="-57.8" font-family="Times New Roman,serif" font-size="14.00">0.025</text>
</g>
</g>
</svg>
