<?xml version="1.0" encoding="UTF-8" standalone="no"?>
<!DOCTYPE svg PUBLIC "-//W3C//DTD SVG 1.1//EN"
 "http://www.w3.org/Graphics/SVG/1.1/DTD/svg11.dtd">
<!-- Generated by graphviz version 2.44.1 (20200629.0800)
 -->
<!-- Title: transportation_planner Pages: 1 -->
<svg width="1548pt" height="131pt"
 viewBox="0.00 0.00 1548.09 131.00" xmlns="http://www.w3.org/2000/svg" xmlns:xlink="http://www.w3.org/1999/xlink">
<g id="graph0" class="graph" transform="scale(1 1) rotate(0) translate(4 127)">
<title>transportation_planner</title>
<polygon fill="white" stroke="transparent" points="-4,4 -4,-127 1544.09,-127 1544.09,4 -4,4"/>
<!-- 0 -->
<g id="node1" class="node">
<title>0</title>
<g id="a_node1"><a xlink:href="from_transportation planner.svg" xlink:title="transportation planner">
<ellipse fill="none" stroke="black" cx="717.49" cy="-105" rx="89.88" ry="18"/>
<text text-anchor="middle" x="717.49" y="-101.3" font-family="Times New Roman,serif" font-size="14.00">transportation planner</text>
</a>
</g>
</g>
<!-- 0&#45;&gt;0 -->
<g id="edge1" class="edge">
<title>0&#45;&gt;0</title>
<path fill="none" stroke="black" d="M799.2,-112.47C814.45,-111.55 825.19,-109.06 825.19,-105 825.19,-101.92 819.02,-99.75 809.4,-98.47"/>
<polygon fill="black" stroke="black" points="809.48,-94.97 799.2,-97.53 808.84,-101.94 809.48,-94.97"/>
<text text-anchor="middle" x="834.19" y="-101.3" font-family="Times New Roman,serif" font-size="14.00">0.2</text>
</g>
<!-- 1 -->
<g id="node2" class="node">
<title>1</title>
<g id="a_node2"><a xlink:href="from_catering manager.svg" xlink:title="catering manager">
<ellipse fill="none" stroke="black" cx="71.49" cy="-18" rx="71.49" ry="18"/>
<text text-anchor="middle" x="71.49" y="-14.3" font-family="Times New Roman,serif" font-size="14.00">catering manager</text>
</a>
</g>
</g>
<!-- 0&#45;&gt;1 -->
<g id="edge2" class="edge">
<title>0&#45;&gt;1</title>
<path fill="none" stroke="black" d="M636.85,-97.04C566.23,-90.67 460.92,-80.51 369.49,-69 272.27,-56.76 247.91,-53.53 151.49,-36 145.68,-34.94 139.64,-33.78 133.6,-32.57"/>
<polygon fill="black" stroke="black" points="133.97,-29.08 123.48,-30.51 132.58,-35.94 133.97,-29.08"/>
<text text-anchor="middle" x="384.99" y="-57.8" font-family="Times New Roman,serif" font-size="14.00">0.114</text>
</g>
<!-- 2 -->
<g id="node3" class="node">
<title>2</title>
<g id="a_node3"><a xlink:href="from_facilities manager.svg" xlink:title="facilities manager">
<ellipse fill="none" stroke="black" cx="233.49" cy="-18" rx="72.59" ry="18"/>
<text text-anchor="middle" x="233.49" y="-14.3" font-family="Times New Roman,serif" font-size="14.00">facilities manager</text>
</a>
</g>
</g>
<!-- 0&#45;&gt;2 -->
<g id="edge3" class="edge">
<title>0&#45;&gt;2</title>
<path fill="none" stroke="black" d="M645.62,-94.17C599.03,-87.58 537.06,-78.42 482.49,-69 407.51,-56.06 389.06,-51.15 314.49,-36 308.81,-34.85 302.91,-33.63 296.99,-32.41"/>
<polygon fill="black" stroke="black" points="297.57,-28.95 287.07,-30.35 296.14,-35.81 297.57,-28.95"/>
<text text-anchor="middle" x="497.99" y="-57.8" font-family="Times New Roman,serif" font-size="14.00">0.085</text>
</g>
<!-- 3 -->
<g id="node4" class="node">
<title>3</title>
<g id="a_node4"><a xlink:href="from_it consultant.svg" xlink:title="it consultant">
<ellipse fill="none" stroke="black" cx="378.49" cy="-18" rx="54.69" ry="18"/>
<text text-anchor="middle" x="378.49" y="-14.3" font-family="Times New Roman,serif" font-size="14.00">it consultant</text>
</a>
</g>
</g>
<!-- 0&#45;&gt;3 -->
<g id="edge4" class="edge">
<title>0&#45;&gt;3</title>
<path fill="none" stroke="black" d="M662.16,-90.75C606.37,-77.29 517.83,-55.7 441.49,-36 437.42,-34.95 433.21,-33.85 428.97,-32.73"/>
<polygon fill="black" stroke="black" points="429.69,-29.3 419.13,-30.11 427.89,-36.06 429.69,-29.3"/>
<text text-anchor="middle" x="585.99" y="-57.8" font-family="Times New Roman,serif" font-size="14.00">0.085</text>
</g>
<!-- 4 -->
<g id="node5" class="node">
<title>4</title>
<g id="a_node5"><a xlink:href="from_network administrator.svg" xlink:title="network administrator">
<ellipse fill="none" stroke="black" cx="540.49" cy="-18" rx="89.88" ry="18"/>
<text text-anchor="middle" x="540.49" y="-14.3" font-family="Times New Roman,serif" font-size="14.00">network administrator</text>
</a>
</g>
</g>
<!-- 0&#45;&gt;4 -->
<g id="edge5" class="edge">
<title>0&#45;&gt;4</title>
<path fill="none" stroke="black" d="M684.62,-88.21C655.9,-74.42 614.03,-54.31 582.81,-39.32"/>
<polygon fill="black" stroke="black" points="584.02,-36.02 573.49,-34.85 580.99,-42.33 584.02,-36.02"/>
<text text-anchor="middle" x="655.99" y="-57.8" font-family="Times New Roman,serif" font-size="14.00">0.057</text>
</g>
<!-- 5 -->
<g id="node6" class="node">
<title>5</title>
<g id="a_node6"><a xlink:href="from_project manager.svg" xlink:title="project manager">
<ellipse fill="none" stroke="black" cx="717.49" cy="-18" rx="68.79" ry="18"/>
<text text-anchor="middle" x="717.49" y="-14.3" font-family="Times New Roman,serif" font-size="14.00">project manager</text>
</a>
</g>
</g>
<!-- 0&#45;&gt;5 -->
<g id="edge6" class="edge">
<title>0&#45;&gt;5</title>
<path fill="none" stroke="black" d="M717.49,-86.8C717.49,-75.16 717.49,-59.55 717.49,-46.24"/>
<polygon fill="black" stroke="black" points="720.99,-46.18 717.49,-36.18 713.99,-46.18 720.99,-46.18"/>
<text text-anchor="middle" x="732.99" y="-57.8" font-family="Times New Roman,serif" font-size="14.00">0.057</text>
</g>
<!-- 6 -->
<g id="node7" class="node">
<title>6</title>
<g id="a_node7"><a xlink:href="from_aid worker.svg" xlink:title="aid worker">
<ellipse fill="none" stroke="black" cx="853.49" cy="-18" rx="49.29" ry="18"/>
<text text-anchor="middle" x="853.49" y="-14.3" font-family="Times New Roman,serif" font-size="14.00">aid worker</text>
</a>
</g>
</g>
<!-- 0&#45;&gt;6 -->
<g id="edge7" class="edge">
<title>0&#45;&gt;6</title>
<path fill="none" stroke="black" d="M743.72,-87.61C765.75,-73.84 797.35,-54.09 820.99,-39.31"/>
<polygon fill="black" stroke="black" points="823,-42.18 829.63,-33.92 819.29,-36.25 823,-42.18"/>
<text text-anchor="middle" x="809.99" y="-57.8" font-family="Times New Roman,serif" font-size="14.00">0.028</text>
</g>
<!-- 7 -->
<g id="node8" class="node">
<title>7</title>
<g id="a_node8"><a xlink:href="from_civil service administrator.svg" xlink:title="civil service administrator">
<ellipse fill="none" stroke="black" cx="1023.49" cy="-18" rx="102.88" ry="18"/>
<text text-anchor="middle" x="1023.49" y="-14.3" font-family="Times New Roman,serif" font-size="14.00">civil service administrator</text>
</a>
</g>
</g>
<!-- 0&#45;&gt;7 -->
<g id="edge8" class="edge">
<title>0&#45;&gt;7</title>
<path fill="none" stroke="black" d="M767.68,-90.06C820.62,-75.35 904.14,-52.15 961.24,-36.29"/>
<polygon fill="black" stroke="black" points="962.53,-39.57 971.23,-33.52 960.66,-32.82 962.53,-39.57"/>
<text text-anchor="middle" x="904.99" y="-57.8" font-family="Times New Roman,serif" font-size="14.00">0.028</text>
</g>
<!-- 8 -->
<g id="node9" class="node">
<title>8</title>
<g id="a_node9"><a xlink:href="from_education administrator.svg" xlink:title="education administrator">
<ellipse fill="none" stroke="black" cx="1239.49" cy="-18" rx="95.58" ry="18"/>
<text text-anchor="middle" x="1239.49" y="-14.3" font-family="Times New Roman,serif" font-size="14.00">education administrator</text>
</a>
</g>
</g>
<!-- 0&#45;&gt;8 -->
<g id="edge9" class="edge">
<title>0&#45;&gt;8</title>
<path fill="none" stroke="black" d="M784.82,-93.06C867.44,-79.64 1011.77,-56.18 1135.49,-36 1143.39,-34.71 1151.62,-33.37 1159.84,-32.03"/>
<polygon fill="black" stroke="black" points="1160.54,-35.46 1169.85,-30.39 1159.41,-28.55 1160.54,-35.46"/>
<text text-anchor="middle" x="1036.99" y="-57.8" font-family="Times New Roman,serif" font-size="14.00">0.028</text>
</g>
<!-- 9 -->
<g id="node10" class="node">
<title>9</title>
<g id="a_node10"><a xlink:href="from_environmental manager.svg" xlink:title="environmental manager">
<ellipse fill="none" stroke="black" cx="1446.49" cy="-18" rx="93.68" ry="18"/>
<text text-anchor="middle" x="1446.49" y="-14.3" font-family="Times New Roman,serif" font-size="14.00">environmental manager</text>
</a>
</g>
</g>
<!-- 0&#45;&gt;9 -->
<g id="edge10" class="edge">
<title>0&#45;&gt;9</title>
<path fill="none" stroke="black" d="M797.87,-96.92C917.35,-86.03 1148.78,-63.5 1344.49,-36 1352.67,-34.85 1361.2,-33.57 1369.7,-32.23"/>
<polygon fill="black" stroke="black" points="1370.31,-35.68 1379.63,-30.65 1369.2,-28.77 1370.31,-35.68"/>
<text text-anchor="middle" x="1205.99" y="-57.8" font-family="Times New Roman,serif" font-size="14.00">0.028</text>
</g>
</g>
</svg>
