<?xml version="1.0" encoding="UTF-8" standalone="no"?>
<!DOCTYPE svg PUBLIC "-//W3C//DTD SVG 1.1//EN"
 "http://www.w3.org/Graphics/SVG/1.1/DTD/svg11.dtd">
<!-- Generated by graphviz version 2.44.1 (20200629.0800)
 -->
<!-- Title: test Pages: 1 -->
<svg width="1412pt" height="131pt"
 viewBox="0.00 0.00 1411.84 131.00" xmlns="http://www.w3.org/2000/svg" xmlns:xlink="http://www.w3.org/1999/xlink">
<g id="graph0" class="graph" transform="scale(1 1) rotate(0) translate(4 127)">
<title>test</title>
<polygon fill="white" stroke="transparent" points="-4,4 -4,-127 1407.84,-127 1407.84,4 -4,4"/>
<!-- 0 -->
<g id="node1" class="node">
<title>0</title>
<g id="a_node1"><a xlink:href="from_private music teacher.svg" xlink:title="private music teacher">
<ellipse fill="none" stroke="black" cx="652.44" cy="-105" rx="87.18" ry="18"/>
<text text-anchor="middle" x="652.44" y="-101.3" font-family="Times New Roman,serif" font-size="14.00">private music teacher</text>
</a>
</g>
</g>
<!-- 0&#45;&gt;0 -->
<g id="edge4" class="edge">
<title>0&#45;&gt;0</title>
<path fill="none" stroke="black" d="M731.73,-112.5C746.85,-111.6 757.54,-109.1 757.54,-105 757.54,-101.89 751.4,-99.7 741.84,-98.44"/>
<polygon fill="black" stroke="black" points="742.01,-94.94 731.73,-97.5 741.36,-101.91 742.01,-94.94"/>
<text text-anchor="middle" x="773.04" y="-101.3" font-family="Times New Roman,serif" font-size="14.00">0.042</text>
</g>
<!-- 1 -->
<g id="node2" class="node">
<title>1</title>
<g id="a_node2"><a xlink:href="from_teaching assistant.svg" xlink:title="teaching assistant">
<ellipse fill="none" stroke="black" cx="73.44" cy="-18" rx="73.39" ry="18"/>
<text text-anchor="middle" x="73.44" y="-14.3" font-family="Times New Roman,serif" font-size="14.00">teaching assistant</text>
</a>
</g>
</g>
<!-- 0&#45;&gt;1 -->
<g id="edge1" class="edge">
<title>0&#45;&gt;1</title>
<path fill="none" stroke="black" d="M572.59,-97.63C505.38,-91.78 406.85,-82.03 321.44,-69 247.51,-57.72 229.74,-50.84 156.44,-36 150.39,-34.77 144.09,-33.49 137.78,-32.21"/>
<polygon fill="black" stroke="black" points="138.4,-28.76 127.9,-30.19 137,-35.62 138.4,-28.76"/>
<text text-anchor="middle" x="336.94" y="-57.8" font-family="Times New Roman,serif" font-size="14.00">0.085</text>
</g>
<!-- 2 -->
<g id="node3" class="node">
<title>2</title>
<g id="a_node3"><a xlink:href="from_media planner.svg" xlink:title="media planner">
<ellipse fill="none" stroke="black" cx="226.44" cy="-18" rx="61.19" ry="18"/>
<text text-anchor="middle" x="226.44" y="-14.3" font-family="Times New Roman,serif" font-size="14.00">media planner</text>
</a>
</g>
</g>
<!-- 0&#45;&gt;2 -->
<g id="edge2" class="edge">
<title>0&#45;&gt;2</title>
<path fill="none" stroke="black" d="M579.74,-94.98C533.85,-88.81 473.43,-79.8 420.44,-69 371.95,-59.12 317.43,-44.78 278.57,-33.98"/>
<polygon fill="black" stroke="black" points="279.11,-30.5 268.54,-31.18 277.23,-37.24 279.11,-30.5"/>
<text text-anchor="middle" x="435.94" y="-57.8" font-family="Times New Roman,serif" font-size="14.00">0.063</text>
</g>
<!-- 3 -->
<g id="node4" class="node">
<title>3</title>
<g id="a_node4"><a xlink:href="from_lecturer.svg" xlink:title="lecturer">
<ellipse fill="none" stroke="black" cx="343.44" cy="-18" rx="37.89" ry="18"/>
<text text-anchor="middle" x="343.44" y="-14.3" font-family="Times New Roman,serif" font-size="14.00">lecturer</text>
</a>
</g>
</g>
<!-- 0&#45;&gt;3 -->
<g id="edge3" class="edge">
<title>0&#45;&gt;3</title>
<path fill="none" stroke="black" d="M596.56,-91.09C543.23,-78.4 460.8,-57.8 390.44,-36 387.55,-35.1 384.58,-34.14 381.59,-33.13"/>
<polygon fill="black" stroke="black" points="382.73,-29.82 372.13,-29.86 380.44,-36.44 382.73,-29.82"/>
<text text-anchor="middle" x="520.94" y="-57.8" font-family="Times New Roman,serif" font-size="14.00">0.042</text>
</g>
<!-- 4 -->
<g id="node5" class="node">
<title>4</title>
<g id="a_node5"><a xlink:href="from_production manager.svg" xlink:title="production manager">
<ellipse fill="none" stroke="black" cx="482.44" cy="-18" rx="83.39" ry="18"/>
<text text-anchor="middle" x="482.44" y="-14.3" font-family="Times New Roman,serif" font-size="14.00">production manager</text>
</a>
</g>
</g>
<!-- 0&#45;&gt;4 -->
<g id="edge5" class="edge">
<title>0&#45;&gt;4</title>
<path fill="none" stroke="black" d="M620.87,-88.21C593.19,-74.38 552.82,-54.19 522.81,-39.18"/>
<polygon fill="black" stroke="black" points="524.36,-36.05 513.85,-34.7 521.23,-42.31 524.36,-36.05"/>
<text text-anchor="middle" x="593.94" y="-57.8" font-family="Times New Roman,serif" font-size="14.00">0.042</text>
</g>
<!-- 5 -->
<g id="node6" class="node">
<title>5</title>
<g id="a_node6"><a xlink:href="from_project manager.svg" xlink:title="project manager">
<ellipse fill="none" stroke="black" cx="652.44" cy="-18" rx="68.79" ry="18"/>
<text text-anchor="middle" x="652.44" y="-14.3" font-family="Times New Roman,serif" font-size="14.00">project manager</text>
</a>
</g>
</g>
<!-- 0&#45;&gt;5 -->
<g id="edge6" class="edge">
<title>0&#45;&gt;5</title>
<path fill="none" stroke="black" d="M652.44,-86.8C652.44,-75.16 652.44,-59.55 652.44,-46.24"/>
<polygon fill="black" stroke="black" points="655.94,-46.18 652.44,-36.18 648.94,-46.18 655.94,-46.18"/>
<text text-anchor="middle" x="667.94" y="-57.8" font-family="Times New Roman,serif" font-size="14.00">0.042</text>
</g>
<!-- 6 -->
<g id="node7" class="node">
<title>6</title>
<g id="a_node7"><a xlink:href="from_research scientist.svg" xlink:title="research scientist">
<ellipse fill="none" stroke="black" cx="812.44" cy="-18" rx="72.59" ry="18"/>
<text text-anchor="middle" x="812.44" y="-14.3" font-family="Times New Roman,serif" font-size="14.00">research scientist</text>
</a>
</g>
</g>
<!-- 0&#45;&gt;6 -->
<g id="edge7" class="edge">
<title>0&#45;&gt;6</title>
<path fill="none" stroke="black" d="M682.54,-88.01C708.4,-74.27 745.85,-54.38 773.9,-39.48"/>
<polygon fill="black" stroke="black" points="775.84,-42.41 783.02,-34.63 772.55,-36.23 775.84,-42.41"/>
<text text-anchor="middle" x="757.94" y="-57.8" font-family="Times New Roman,serif" font-size="14.00">0.042</text>
</g>
<!-- 7 -->
<g id="node8" class="node">
<title>7</title>
<g id="a_node8"><a xlink:href="from_speech and language therapist.svg" xlink:title="speech and language therapist">
<ellipse fill="none" stroke="black" cx="1021.44" cy="-18" rx="118.08" ry="18"/>
<text text-anchor="middle" x="1021.44" y="-14.3" font-family="Times New Roman,serif" font-size="14.00">speech and language therapist</text>
</a>
</g>
</g>
<!-- 0&#45;&gt;7 -->
<g id="edge8" class="edge">
<title>0&#45;&gt;7</title>
<path fill="none" stroke="black" d="M708.49,-91.09C772.77,-76.28 878.34,-51.96 948.86,-35.72"/>
<polygon fill="black" stroke="black" points="950.04,-39.04 959,-33.38 948.47,-32.22 950.04,-39.04"/>
<text text-anchor="middle" x="874.94" y="-57.8" font-family="Times New Roman,serif" font-size="14.00">0.042</text>
</g>
<!-- 8 -->
<g id="node9" class="node">
<title>8</title>
<g id="a_node9"><a xlink:href="from_systems developer.svg" xlink:title="systems developer">
<ellipse fill="none" stroke="black" cx="1235.44" cy="-18" rx="77.99" ry="18"/>
<text text-anchor="middle" x="1235.44" y="-14.3" font-family="Times New Roman,serif" font-size="14.00">systems developer</text>
</a>
</g>
</g>
<!-- 0&#45;&gt;8 -->
<g id="edge9" class="edge">
<title>0&#45;&gt;8</title>
<path fill="none" stroke="black" d="M725.75,-95.27C822.72,-83.42 998.82,-60.85 1148.44,-36 1155.07,-34.9 1161.97,-33.68 1168.86,-32.41"/>
<polygon fill="black" stroke="black" points="1169.72,-35.81 1178.9,-30.53 1168.43,-28.93 1169.72,-35.81"/>
<text text-anchor="middle" x="1041.94" y="-57.8" font-family="Times New Roman,serif" font-size="14.00">0.042</text>
</g>
<!-- 9 -->
<g id="node10" class="node">
<title>9</title>
<g id="a_node10"><a xlink:href="from_teacher.svg" xlink:title="teacher">
<ellipse fill="none" stroke="black" cx="1367.44" cy="-18" rx="36.29" ry="18"/>
<text text-anchor="middle" x="1367.44" y="-14.3" font-family="Times New Roman,serif" font-size="14.00">teacher</text>
</a>
</g>
</g>
<!-- 0&#45;&gt;9 -->
<g id="edge10" class="edge">
<title>0&#45;&gt;9</title>
<path fill="none" stroke="black" d="M739.19,-103.03C868.21,-99.83 1117.49,-86.91 1322.44,-36 1325.25,-35.3 1328.13,-34.48 1331,-33.58"/>
<polygon fill="black" stroke="black" points="1332.31,-36.84 1340.64,-30.3 1330.05,-30.21 1332.31,-36.84"/>
<text text-anchor="middle" x="1248.94" y="-57.8" font-family="Times New Roman,serif" font-size="14.00">0.042</text>
</g>
</g>
</svg>
