<?xml version="1.0" encoding="UTF-8" standalone="no"?>
<!DOCTYPE svg PUBLIC "-//W3C//DTD SVG 1.1//EN"
 "http://www.w3.org/Graphics/SVG/1.1/DTD/svg11.dtd">
<!-- Generated by graphviz version 2.44.1 (20200629.0800)
 -->
<!-- Title: financial_manager Pages: 1 -->
<svg width="1438pt" height="131pt"
 viewBox="0.00 0.00 1438.34 131.00" xmlns="http://www.w3.org/2000/svg" xmlns:xlink="http://www.w3.org/1999/xlink">
<g id="graph0" class="graph" transform="scale(1 1) rotate(0) translate(4 127)">
<title>financial_manager</title>
<polygon fill="white" stroke="transparent" points="-4,4 -4,-127 1434.34,-127 1434.34,4 -4,4"/>
<!-- 0 -->
<g id="node1" class="node">
<title>0</title>
<g id="a_node1"><a xlink:href="from_financial manager.svg" xlink:title="financial manager">
<ellipse fill="none" stroke="black" cx="734.09" cy="-105" rx="73.39" ry="18"/>
<text text-anchor="middle" x="734.09" y="-101.3" font-family="Times New Roman,serif" font-size="14.00">financial manager</text>
</a>
</g>
</g>
<!-- 0&#45;&gt;0 -->
<g id="edge1" class="edge">
<title>0&#45;&gt;0</title>
<path fill="none" stroke="black" d="M800.67,-112.64C815.09,-111.9 825.54,-109.35 825.54,-105 825.54,-101.74 819.66,-99.49 810.64,-98.26"/>
<polygon fill="black" stroke="black" points="810.95,-94.77 800.67,-97.36 810.32,-101.74 810.95,-94.77"/>
<text text-anchor="middle" x="841.04" y="-101.3" font-family="Times New Roman,serif" font-size="14.00">0.350</text>
</g>
<!-- 1 -->
<g id="node2" class="node">
<title>1</title>
<g id="a_node2"><a xlink:href="from_sales manager.svg" xlink:title="sales manager">
<ellipse fill="none" stroke="black" cx="61.09" cy="-18" rx="61.19" ry="18"/>
<text text-anchor="middle" x="61.09" y="-14.3" font-family="Times New Roman,serif" font-size="14.00">sales manager</text>
</a>
</g>
</g>
<!-- 0&#45;&gt;1 -->
<g id="edge2" class="edge">
<title>0&#45;&gt;1</title>
<path fill="none" stroke="black" d="M664.5,-99.02C551.83,-90.31 322.75,-69.94 131.09,-36 125.78,-35.06 120.28,-33.95 114.79,-32.76"/>
<polygon fill="black" stroke="black" points="115.5,-29.34 104.98,-30.55 113.96,-36.17 115.5,-29.34"/>
<text text-anchor="middle" x="361.59" y="-57.8" font-family="Times New Roman,serif" font-size="14.00">0.083</text>
</g>
<!-- 2 -->
<g id="node3" class="node">
<title>2</title>
<g id="a_node3"><a xlink:href="from_pharmacovigilance officer.svg" xlink:title="pharmacovigilance officer">
<ellipse fill="none" stroke="black" cx="245.09" cy="-18" rx="104.78" ry="18"/>
<text text-anchor="middle" x="245.09" y="-14.3" font-family="Times New Roman,serif" font-size="14.00">pharmacovigilance officer</text>
</a>
</g>
</g>
<!-- 0&#45;&gt;2 -->
<g id="edge3" class="edge">
<title>0&#45;&gt;2</title>
<path fill="none" stroke="black" d="M676.08,-93.92C589.13,-78.8 424.7,-50.22 326,-33.06"/>
<polygon fill="black" stroke="black" points="326.52,-29.6 316.07,-31.34 325.32,-36.5 326.52,-29.6"/>
<text text-anchor="middle" x="534.59" y="-57.8" font-family="Times New Roman,serif" font-size="14.00">0.050</text>
</g>
<!-- 3 -->
<g id="node4" class="node">
<title>3</title>
<g id="a_node4"><a xlink:href="from_heritage manager.svg" xlink:title="heritage manager">
<ellipse fill="none" stroke="black" cx="439.09" cy="-18" rx="71.49" ry="18"/>
<text text-anchor="middle" x="439.09" y="-14.3" font-family="Times New Roman,serif" font-size="14.00">heritage manager</text>
</a>
</g>
</g>
<!-- 0&#45;&gt;3 -->
<g id="edge4" class="edge">
<title>0&#45;&gt;3</title>
<path fill="none" stroke="black" d="M688.32,-90.81C635.96,-75.72 550.24,-51.02 494.24,-34.89"/>
<polygon fill="black" stroke="black" points="495.07,-31.48 484.49,-32.08 493.13,-38.21 495.07,-31.48"/>
<text text-anchor="middle" x="620.59" y="-57.8" font-family="Times New Roman,serif" font-size="14.00">0.047</text>
</g>
<!-- 4 -->
<g id="node5" class="node">
<title>4</title>
<g id="a_node5"><a xlink:href="from_project manager.svg" xlink:title="project manager">
<ellipse fill="none" stroke="black" cx="597.09" cy="-18" rx="68.79" ry="18"/>
<text text-anchor="middle" x="597.09" y="-14.3" font-family="Times New Roman,serif" font-size="14.00">project manager</text>
</a>
</g>
</g>
<!-- 0&#45;&gt;4 -->
<g id="edge5" class="edge">
<title>0&#45;&gt;4</title>
<path fill="none" stroke="black" d="M708.33,-88.01C686.61,-74.54 655.35,-55.14 631.49,-40.34"/>
<polygon fill="black" stroke="black" points="633.09,-37.21 622.75,-34.92 629.4,-43.16 633.09,-37.21"/>
<text text-anchor="middle" x="689.59" y="-57.8" font-family="Times New Roman,serif" font-size="14.00">0.040</text>
</g>
<!-- 5 -->
<g id="node6" class="node">
<title>5</title>
<g id="a_node6"><a xlink:href="from_accountant.svg" xlink:title="accountant">
<ellipse fill="none" stroke="black" cx="734.09" cy="-18" rx="50.09" ry="18"/>
<text text-anchor="middle" x="734.09" y="-14.3" font-family="Times New Roman,serif" font-size="14.00">accountant</text>
</a>
</g>
</g>
<!-- 0&#45;&gt;5 -->
<g id="edge6" class="edge">
<title>0&#45;&gt;5</title>
<path fill="none" stroke="black" d="M734.09,-86.8C734.09,-75.16 734.09,-59.55 734.09,-46.24"/>
<polygon fill="black" stroke="black" points="737.59,-46.18 734.09,-36.18 730.59,-46.18 737.59,-46.18"/>
<text text-anchor="middle" x="749.59" y="-57.8" font-family="Times New Roman,serif" font-size="14.00">0.035</text>
</g>
<!-- 6 -->
<g id="node7" class="node">
<title>6</title>
<g id="a_node7"><a xlink:href="from_it consultant.svg" xlink:title="it consultant">
<ellipse fill="none" stroke="black" cx="857.09" cy="-18" rx="54.69" ry="18"/>
<text text-anchor="middle" x="857.09" y="-14.3" font-family="Times New Roman,serif" font-size="14.00">it consultant</text>
</a>
</g>
</g>
<!-- 0&#45;&gt;6 -->
<g id="edge7" class="edge">
<title>0&#45;&gt;6</title>
<path fill="none" stroke="black" d="M757.52,-87.81C777,-74.35 804.89,-55.08 826.19,-40.35"/>
<polygon fill="black" stroke="black" points="828.35,-43.12 834.59,-34.55 824.37,-37.36 828.35,-43.12"/>
<text text-anchor="middle" x="818.59" y="-57.8" font-family="Times New Roman,serif" font-size="14.00">0.035</text>
</g>
<!-- 7 -->
<g id="node8" class="node">
<title>7</title>
<g id="a_node8"><a xlink:href="from_investment analyst.svg" xlink:title="investment analyst">
<ellipse fill="none" stroke="black" cx="1006.09" cy="-18" rx="76.89" ry="18"/>
<text text-anchor="middle" x="1006.09" y="-14.3" font-family="Times New Roman,serif" font-size="14.00">investment analyst</text>
</a>
</g>
</g>
<!-- 0&#45;&gt;7 -->
<g id="edge8" class="edge">
<title>0&#45;&gt;7</title>
<path fill="none" stroke="black" d="M777.49,-90.44C824.98,-75.6 901.15,-51.8 952.37,-35.79"/>
<polygon fill="black" stroke="black" points="953.45,-39.12 961.95,-32.8 951.36,-32.44 953.45,-39.12"/>
<text text-anchor="middle" x="902.59" y="-57.8" font-family="Times New Roman,serif" font-size="14.00">0.033</text>
</g>
<!-- 8 -->
<g id="node9" class="node">
<title>8</title>
<g id="a_node9"><a xlink:href="from_investment fund manager.svg" xlink:title="investment fund manager">
<ellipse fill="none" stroke="black" cx="1201.09" cy="-18" rx="100.98" ry="18"/>
<text text-anchor="middle" x="1201.09" y="-14.3" font-family="Times New Roman,serif" font-size="14.00">investment fund manager</text>
</a>
</g>
</g>
<!-- 0&#45;&gt;8 -->
<g id="edge9" class="edge">
<title>0&#45;&gt;8</title>
<path fill="none" stroke="black" d="M791.36,-93.58C874.66,-78.41 1029.52,-50.23 1123.16,-33.19"/>
<polygon fill="black" stroke="black" points="1123.93,-36.6 1133.14,-31.37 1122.68,-29.72 1123.93,-36.6"/>
<text text-anchor="middle" x="1011.59" y="-57.8" font-family="Times New Roman,serif" font-size="14.00">0.026</text>
</g>
<!-- 9 -->
<g id="node10" class="node">
<title>9</title>
<g id="a_node10"><a xlink:href="from_debt adviser.svg" xlink:title="debt adviser">
<ellipse fill="none" stroke="black" cx="1375.09" cy="-18" rx="55.49" ry="18"/>
<text text-anchor="middle" x="1375.09" y="-14.3" font-family="Times New Roman,serif" font-size="14.00">debt adviser</text>
</a>
</g>
</g>
<!-- 0&#45;&gt;9 -->
<g id="edge10" class="edge">
<title>0&#45;&gt;9</title>
<path fill="none" stroke="black" d="M803.41,-99.04C912.25,-90.53 1129.53,-70.63 1311.09,-36 1315.72,-35.12 1320.51,-34.08 1325.28,-32.97"/>
<polygon fill="black" stroke="black" points="1326.13,-36.36 1335.01,-30.58 1324.46,-29.56 1326.13,-36.36"/>
<text text-anchor="middle" x="1217.59" y="-57.8" font-family="Times New Roman,serif" font-size="14.00">0.023</text>
</g>
</g>
</svg>
