<?xml version="1.0" encoding="UTF-8" standalone="no"?>
<!DOCTYPE svg PUBLIC "-//W3C//DTD SVG 1.1//EN"
 "http://www.w3.org/Graphics/SVG/1.1/DTD/svg11.dtd">
<!-- Generated by graphviz version 2.44.1 (20200629.0800)
 -->
<!-- Title: retail_banker Pages: 1 -->
<svg width="1443pt" height="131pt"
 viewBox="0.00 0.00 1443.49 131.00" xmlns="http://www.w3.org/2000/svg" xmlns:xlink="http://www.w3.org/1999/xlink">
<g id="graph0" class="graph" transform="scale(1 1) rotate(0) translate(4 127)">
<title>retail_banker</title>
<polygon fill="white" stroke="transparent" points="-4,4 -4,-127 1439.49,-127 1439.49,4 -4,4"/>
<!-- 0 -->
<g id="node1" class="node">
<title>0</title>
<g id="a_node1"><a xlink:href="from_retail banker.svg" xlink:title="retail banker">
<ellipse fill="none" stroke="black" cx="703.79" cy="-105" rx="54.69" ry="18"/>
<text text-anchor="middle" x="703.79" y="-101.3" font-family="Times New Roman,serif" font-size="14.00">retail banker</text>
</a>
</g>
</g>
<!-- 0&#45;&gt;0 -->
<g id="edge5" class="edge">
<title>0&#45;&gt;0</title>
<path fill="none" stroke="black" d="M752.99,-112.82C766.28,-112.4 776.39,-109.8 776.39,-105 776.39,-101.51 771.05,-99.18 763.04,-98.01"/>
<polygon fill="black" stroke="black" points="763.25,-94.52 752.99,-97.18 762.67,-101.5 763.25,-94.52"/>
<text text-anchor="middle" x="791.89" y="-101.3" font-family="Times New Roman,serif" font-size="14.00">0.076</text>
</g>
<!-- 1 -->
<g id="node2" class="node">
<title>1</title>
<g id="a_node2"><a xlink:href="from_corporate banker.svg" xlink:title="corporate banker">
<ellipse fill="none" stroke="black" cx="72.79" cy="-18" rx="72.59" ry="18"/>
<text text-anchor="middle" x="72.79" y="-14.3" font-family="Times New Roman,serif" font-size="14.00">corporate banker</text>
</a>
</g>
</g>
<!-- 0&#45;&gt;1 -->
<g id="edge1" class="edge">
<title>0&#45;&gt;1</title>
<path fill="none" stroke="black" d="M651.7,-99.26C553.88,-89.97 336.24,-67.51 154.79,-36 148.59,-34.92 142.14,-33.72 135.7,-32.47"/>
<polygon fill="black" stroke="black" points="136.12,-28.99 125.63,-30.48 134.76,-35.86 136.12,-28.99"/>
<text text-anchor="middle" x="381.29" y="-57.8" font-family="Times New Roman,serif" font-size="14.00">0.153</text>
</g>
<!-- 2 -->
<g id="node3" class="node">
<title>2</title>
<g id="a_node3"><a xlink:href="from_financial manager.svg" xlink:title="financial manager">
<ellipse fill="none" stroke="black" cx="236.79" cy="-18" rx="73.39" ry="18"/>
<text text-anchor="middle" x="236.79" y="-14.3" font-family="Times New Roman,serif" font-size="14.00">financial manager</text>
</a>
</g>
</g>
<!-- 0&#45;&gt;2 -->
<g id="edge2" class="edge">
<title>0&#45;&gt;2</title>
<path fill="none" stroke="black" d="M656.28,-96.13C583.5,-83.96 440.07,-59.5 318.79,-36 312.94,-34.87 306.86,-33.66 300.77,-32.43"/>
<polygon fill="black" stroke="black" points="301.06,-28.92 290.57,-30.36 299.67,-35.78 301.06,-28.92"/>
<text text-anchor="middle" x="514.29" y="-57.8" font-family="Times New Roman,serif" font-size="14.00">0.115</text>
</g>
<!-- 3 -->
<g id="node4" class="node">
<title>3</title>
<g id="a_node4"><a xlink:href="from_investment analyst.svg" xlink:title="investment analyst">
<ellipse fill="none" stroke="black" cx="404.79" cy="-18" rx="76.89" ry="18"/>
<text text-anchor="middle" x="404.79" y="-14.3" font-family="Times New Roman,serif" font-size="14.00">investment analyst</text>
</a>
</g>
</g>
<!-- 0&#45;&gt;3 -->
<g id="edge3" class="edge">
<title>0&#45;&gt;3</title>
<path fill="none" stroke="black" d="M663.78,-92.62C611.81,-77.85 520.75,-51.97 461.63,-35.16"/>
<polygon fill="black" stroke="black" points="462.28,-31.7 451.7,-32.34 460.36,-38.44 462.28,-31.7"/>
<text text-anchor="middle" x="588.29" y="-57.8" font-family="Times New Roman,serif" font-size="14.00">0.076</text>
</g>
<!-- 4 -->
<g id="node5" class="node">
<title>4</title>
<g id="a_node5"><a xlink:href="from_legal executive.svg" xlink:title="legal executive">
<ellipse fill="none" stroke="black" cx="562.79" cy="-18" rx="63.09" ry="18"/>
<text text-anchor="middle" x="562.79" y="-14.3" font-family="Times New Roman,serif" font-size="14.00">legal executive</text>
</a>
</g>
</g>
<!-- 0&#45;&gt;4 -->
<g id="edge4" class="edge">
<title>0&#45;&gt;4</title>
<path fill="none" stroke="black" d="M678.59,-88.8C656.01,-75.19 622.69,-55.11 597.58,-39.97"/>
<polygon fill="black" stroke="black" points="599.11,-36.81 588.74,-34.64 595.49,-42.8 599.11,-36.81"/>
<text text-anchor="middle" x="657.29" y="-57.8" font-family="Times New Roman,serif" font-size="14.00">0.076</text>
</g>
<!-- 5 -->
<g id="node6" class="node">
<title>5</title>
<g id="a_node6"><a xlink:href="from_retail manager.svg" xlink:title="retail manager">
<ellipse fill="none" stroke="black" cx="703.79" cy="-18" rx="60.39" ry="18"/>
<text text-anchor="middle" x="703.79" y="-14.3" font-family="Times New Roman,serif" font-size="14.00">retail manager</text>
</a>
</g>
</g>
<!-- 0&#45;&gt;5 -->
<g id="edge6" class="edge">
<title>0&#45;&gt;5</title>
<path fill="none" stroke="black" d="M703.79,-86.8C703.79,-75.16 703.79,-59.55 703.79,-46.24"/>
<polygon fill="black" stroke="black" points="707.29,-46.18 703.79,-36.18 700.29,-46.18 707.29,-46.18"/>
<text text-anchor="middle" x="719.29" y="-57.8" font-family="Times New Roman,serif" font-size="14.00">0.076</text>
</g>
<!-- 6 -->
<g id="node7" class="node">
<title>6</title>
<g id="a_node7"><a xlink:href="from_careers adviser.svg" xlink:title="careers adviser">
<ellipse fill="none" stroke="black" cx="846.79" cy="-18" rx="64.99" ry="18"/>
<text text-anchor="middle" x="846.79" y="-14.3" font-family="Times New Roman,serif" font-size="14.00">careers adviser</text>
</a>
</g>
</g>
<!-- 0&#45;&gt;6 -->
<g id="edge7" class="edge">
<title>0&#45;&gt;6</title>
<path fill="none" stroke="black" d="M729.03,-89C751.98,-75.36 786.08,-55.09 811.69,-39.87"/>
<polygon fill="black" stroke="black" points="813.55,-42.83 820.36,-34.71 809.97,-36.82 813.55,-42.83"/>
<text text-anchor="middle" x="800.29" y="-57.8" font-family="Times New Roman,serif" font-size="14.00">0.038</text>
</g>
<!-- 7 -->
<g id="node8" class="node">
<title>7</title>
<g id="a_node8"><a xlink:href="from_civil service administrator.svg" xlink:title="civil service administrator">
<ellipse fill="none" stroke="black" cx="1032.79" cy="-18" rx="102.88" ry="18"/>
<text text-anchor="middle" x="1032.79" y="-14.3" font-family="Times New Roman,serif" font-size="14.00">civil service administrator</text>
</a>
</g>
</g>
<!-- 0&#45;&gt;7 -->
<g id="edge8" class="edge">
<title>0&#45;&gt;7</title>
<path fill="none" stroke="black" d="M745.46,-93.23C801.54,-78.75 901.88,-52.82 967.9,-35.77"/>
<polygon fill="black" stroke="black" points="968.97,-39.1 977.78,-33.21 967.22,-32.33 968.97,-39.1"/>
<text text-anchor="middle" x="904.29" y="-57.8" font-family="Times New Roman,serif" font-size="14.00">0.038</text>
</g>
<!-- 8 -->
<g id="node9" class="node">
<title>8</title>
<g id="a_node9"><a xlink:href="from_debt adviser.svg" xlink:title="debt adviser">
<ellipse fill="none" stroke="black" cx="1208.79" cy="-18" rx="55.49" ry="18"/>
<text text-anchor="middle" x="1208.79" y="-14.3" font-family="Times New Roman,serif" font-size="14.00">debt adviser</text>
</a>
</g>
</g>
<!-- 0&#45;&gt;8 -->
<g id="edge9" class="edge">
<title>0&#45;&gt;8</title>
<path fill="none" stroke="black" d="M754.37,-97.98C836.68,-87.8 1004.52,-65.36 1144.79,-36 1149.22,-35.07 1153.79,-34.03 1158.37,-32.93"/>
<polygon fill="black" stroke="black" points="1159.47,-36.26 1168.32,-30.45 1157.77,-29.47 1159.47,-36.26"/>
<text text-anchor="middle" x="1065.29" y="-57.8" font-family="Times New Roman,serif" font-size="14.00">0.038</text>
</g>
<!-- 9 -->
<g id="node10" class="node">
<title>9</title>
<g id="a_node10"><a xlink:href="from_diplomatic service.svg" xlink:title="diplomatic service">
<ellipse fill="none" stroke="black" cx="1358.79" cy="-18" rx="76.89" ry="18"/>
<text text-anchor="middle" x="1358.79" y="-14.3" font-family="Times New Roman,serif" font-size="14.00">diplomatic service</text>
</a>
</g>
</g>
<!-- 0&#45;&gt;9 -->
<g id="edge10" class="edge">
<title>0&#45;&gt;9</title>
<path fill="none" stroke="black" d="M756.95,-100.5C830.73,-95.33 968.26,-84.55 1084.79,-69 1168.88,-57.78 1189.4,-51.56 1272.79,-36 1279.08,-34.83 1285.61,-33.58 1292.15,-32.32"/>
<polygon fill="black" stroke="black" points="1293.24,-35.67 1302.39,-30.33 1291.9,-28.8 1293.24,-35.67"/>
<text text-anchor="middle" x="1195.29" y="-57.8" font-family="Times New Roman,serif" font-size="14.00">0.038</text>
</g>
</g>
</svg>
