<?xml version="1.0" encoding="UTF-8" standalone="no"?>
<!DOCTYPE svg PUBLIC "-//W3C//DTD SVG 1.1//EN"
 "http://www.w3.org/Graphics/SVG/1.1/DTD/svg11.dtd">
<!-- Generated by graphviz version 2.44.1 (20200629.0800)
 -->
<!-- Title: housing_adviser Pages: 1 -->
<svg width="1406pt" height="131pt"
 viewBox="0.00 0.00 1406.04 131.00" xmlns="http://www.w3.org/2000/svg" xmlns:xlink="http://www.w3.org/1999/xlink">
<g id="graph0" class="graph" transform="scale(1 1) rotate(0) translate(4 127)">
<title>housing_adviser</title>
<polygon fill="white" stroke="transparent" points="-4,4 -4,-127 1402.04,-127 1402.04,4 -4,4"/>
<!-- 0 -->
<g id="node1" class="node">
<title>0</title>
<g id="a_node1"><a xlink:href="from_housing adviser.svg" xlink:title="housing adviser">
<ellipse fill="none" stroke="black" cx="800.64" cy="-105" rx="67.69" ry="18"/>
<text text-anchor="middle" x="800.64" y="-101.3" font-family="Times New Roman,serif" font-size="14.00">housing adviser</text>
</a>
</g>
</g>
<!-- 0&#45;&gt;0 -->
<g id="edge2" class="edge">
<title>0&#45;&gt;0</title>
<path fill="none" stroke="black" d="M861.81,-112.7C875.89,-112.04 886.23,-109.47 886.23,-105 886.23,-101.68 880.54,-99.41 871.84,-98.19"/>
<polygon fill="black" stroke="black" points="872.08,-94.7 861.81,-97.3 871.46,-101.67 872.08,-94.7"/>
<text text-anchor="middle" x="901.73" y="-101.3" font-family="Times New Roman,serif" font-size="14.00">0.073</text>
</g>
<!-- 1 -->
<g id="node2" class="node">
<title>1</title>
<g id="a_node2"><a xlink:href="from_pharmacovigilance officer.svg" xlink:title="pharmacovigilance officer">
<ellipse fill="none" stroke="black" cx="104.64" cy="-18" rx="104.78" ry="18"/>
<text text-anchor="middle" x="104.64" y="-14.3" font-family="Times New Roman,serif" font-size="14.00">pharmacovigilance officer</text>
</a>
</g>
</g>
<!-- 0&#45;&gt;1 -->
<g id="edge1" class="edge">
<title>0&#45;&gt;1</title>
<path fill="none" stroke="black" d="M738.17,-97.91C671.4,-91.28 562.45,-80.13 468.64,-69 357.35,-55.79 329.62,-51.6 218.64,-36 209.45,-34.71 199.85,-33.33 190.28,-31.93"/>
<polygon fill="black" stroke="black" points="190.75,-28.46 180.35,-30.47 189.73,-35.39 190.75,-28.46"/>
<text text-anchor="middle" x="484.14" y="-57.8" font-family="Times New Roman,serif" font-size="14.00">0.093</text>
</g>
<!-- 2 -->
<g id="node3" class="node">
<title>2</title>
<g id="a_node3"><a xlink:href="from_production manager.svg" xlink:title="production manager">
<ellipse fill="none" stroke="black" cx="310.64" cy="-18" rx="83.39" ry="18"/>
<text text-anchor="middle" x="310.64" y="-14.3" font-family="Times New Roman,serif" font-size="14.00">production manager</text>
</a>
</g>
</g>
<!-- 0&#45;&gt;2 -->
<g id="edge3" class="edge">
<title>0&#45;&gt;2</title>
<path fill="none" stroke="black" d="M743.74,-95.08C700.16,-88.17 638.56,-78.26 584.64,-69 503.62,-55.09 483.5,-50.8 402.64,-36 395.88,-34.76 388.84,-33.47 381.79,-32.17"/>
<polygon fill="black" stroke="black" points="381.97,-28.65 371.5,-30.28 380.7,-35.53 381.97,-28.65"/>
<text text-anchor="middle" x="600.14" y="-57.8" font-family="Times New Roman,serif" font-size="14.00">0.053</text>
</g>
<!-- 3 -->
<g id="node4" class="node">
<title>3</title>
<g id="a_node4"><a xlink:href="from_careers adviser.svg" xlink:title="careers adviser">
<ellipse fill="none" stroke="black" cx="476.64" cy="-18" rx="64.99" ry="18"/>
<text text-anchor="middle" x="476.64" y="-14.3" font-family="Times New Roman,serif" font-size="14.00">careers adviser</text>
</a>
</g>
</g>
<!-- 0&#45;&gt;3 -->
<g id="edge4" class="edge">
<title>0&#45;&gt;3</title>
<path fill="none" stroke="black" d="M754.22,-91.82C695.51,-76.42 594.53,-49.93 531.9,-33.5"/>
<polygon fill="black" stroke="black" points="532.75,-30.1 522.19,-30.95 530.98,-36.87 532.75,-30.1"/>
<text text-anchor="middle" x="671.14" y="-57.8" font-family="Times New Roman,serif" font-size="14.00">0.04</text>
</g>
<!-- 4 -->
<g id="node5" class="node">
<title>4</title>
<g id="a_node5"><a xlink:href="from_investment analyst.svg" xlink:title="investment analyst">
<ellipse fill="none" stroke="black" cx="636.64" cy="-18" rx="76.89" ry="18"/>
<text text-anchor="middle" x="636.64" y="-14.3" font-family="Times New Roman,serif" font-size="14.00">investment analyst</text>
</a>
</g>
</g>
<!-- 0&#45;&gt;4 -->
<g id="edge5" class="edge">
<title>0&#45;&gt;4</title>
<path fill="none" stroke="black" d="M770.94,-88.61C744.29,-74.79 704.98,-54.42 675.77,-39.28"/>
<polygon fill="black" stroke="black" points="677.16,-36.06 666.67,-34.57 673.94,-42.27 677.16,-36.06"/>
<text text-anchor="middle" x="741.14" y="-57.8" font-family="Times New Roman,serif" font-size="14.00">0.04</text>
</g>
<!-- 5 -->
<g id="node6" class="node">
<title>5</title>
<g id="a_node6"><a xlink:href="from_project manager.svg" xlink:title="project manager">
<ellipse fill="none" stroke="black" cx="800.64" cy="-18" rx="68.79" ry="18"/>
<text text-anchor="middle" x="800.64" y="-14.3" font-family="Times New Roman,serif" font-size="14.00">project manager</text>
</a>
</g>
</g>
<!-- 0&#45;&gt;5 -->
<g id="edge6" class="edge">
<title>0&#45;&gt;5</title>
<path fill="none" stroke="black" d="M800.64,-86.8C800.64,-75.16 800.64,-59.55 800.64,-46.24"/>
<polygon fill="black" stroke="black" points="804.14,-46.18 800.64,-36.18 797.14,-46.18 804.14,-46.18"/>
<text text-anchor="middle" x="813.14" y="-57.8" font-family="Times New Roman,serif" font-size="14.00">0.04</text>
</g>
<!-- 6 -->
<g id="node7" class="node">
<title>6</title>
<g id="a_node7"><a xlink:href="from_lecturer.svg" xlink:title="lecturer">
<ellipse fill="none" stroke="black" cx="925.64" cy="-18" rx="37.89" ry="18"/>
<text text-anchor="middle" x="925.64" y="-14.3" font-family="Times New Roman,serif" font-size="14.00">lecturer</text>
</a>
</g>
</g>
<!-- 0&#45;&gt;6 -->
<g id="edge7" class="edge">
<title>0&#45;&gt;6</title>
<path fill="none" stroke="black" d="M824.15,-88.01C844.63,-74.09 874.41,-53.84 896.41,-38.87"/>
<polygon fill="black" stroke="black" points="898.43,-41.74 904.73,-33.22 894.49,-35.95 898.43,-41.74"/>
<text text-anchor="middle" x="886.14" y="-57.8" font-family="Times New Roman,serif" font-size="14.00">0.033</text>
</g>
<!-- 7 -->
<g id="node8" class="node">
<title>7</title>
<g id="a_node8"><a xlink:href="from_sales manager.svg" xlink:title="sales manager">
<ellipse fill="none" stroke="black" cx="1042.64" cy="-18" rx="61.19" ry="18"/>
<text text-anchor="middle" x="1042.64" y="-14.3" font-family="Times New Roman,serif" font-size="14.00">sales manager</text>
</a>
</g>
</g>
<!-- 0&#45;&gt;7 -->
<g id="edge8" class="edge">
<title>0&#45;&gt;7</title>
<path fill="none" stroke="black" d="M841.62,-90.64C861.06,-84.22 884.6,-76.35 905.64,-69 936.19,-58.34 970.38,-45.86 996.97,-36.03"/>
<polygon fill="black" stroke="black" points="998.23,-39.3 1006.4,-32.54 995.8,-32.73 998.23,-39.3"/>
<text text-anchor="middle" x="963.14" y="-57.8" font-family="Times New Roman,serif" font-size="14.00">0.026</text>
</g>
<!-- 8 -->
<g id="node9" class="node">
<title>8</title>
<g id="a_node9"><a xlink:href="from_broadcasting presenter.svg" xlink:title="broadcasting presenter">
<ellipse fill="none" stroke="black" cx="1214.64" cy="-18" rx="92.88" ry="18"/>
<text text-anchor="middle" x="1214.64" y="-14.3" font-family="Times New Roman,serif" font-size="14.00">broadcasting presenter</text>
</a>
</g>
</g>
<!-- 0&#45;&gt;8 -->
<g id="edge9" class="edge">
<title>0&#45;&gt;8</title>
<path fill="none" stroke="black" d="M854.46,-93.98C890.72,-87.14 939.61,-77.77 982.64,-69 1037.74,-57.77 1100.03,-44.3 1146.19,-34.17"/>
<polygon fill="black" stroke="black" points="1147.06,-37.56 1156.08,-32 1145.56,-30.73 1147.06,-37.56"/>
<text text-anchor="middle" x="1066.14" y="-57.8" font-family="Times New Roman,serif" font-size="14.00">0.02</text>
</g>
<!-- 9 -->
<g id="node10" class="node">
<title>9</title>
<g id="a_node10"><a xlink:href="from_curator.svg" xlink:title="curator">
<ellipse fill="none" stroke="black" cx="1361.64" cy="-18" rx="36.29" ry="18"/>
<text text-anchor="middle" x="1361.64" y="-14.3" font-family="Times New Roman,serif" font-size="14.00">curator</text>
</a>
</g>
</g>
<!-- 0&#45;&gt;9 -->
<g id="edge10" class="edge">
<title>0&#45;&gt;9</title>
<path fill="none" stroke="black" d="M866.35,-100.38C965.33,-93.81 1157.98,-76.62 1316.64,-36 1319.45,-35.28 1322.32,-34.45 1325.19,-33.54"/>
<polygon fill="black" stroke="black" points="1326.5,-36.79 1334.83,-30.24 1324.23,-30.17 1326.5,-36.79"/>
<text text-anchor="middle" x="1247.14" y="-57.8" font-family="Times New Roman,serif" font-size="14.00">0.02</text>
</g>
</g>
</svg>
