<?xml version="1.0" encoding="UTF-8" standalone="no"?>
<!DOCTYPE svg PUBLIC "-//W3C//DTD SVG 1.1//EN"
 "http://www.w3.org/Graphics/SVG/1.1/DTD/svg11.dtd">
<!-- Generated by graphviz version 2.44.1 (20200629.0800)
 -->
<!-- Title: immunologist Pages: 1 -->
<svg width="362pt" height="131pt"
 viewBox="0.00 0.00 361.84 131.00" xmlns="http://www.w3.org/2000/svg" xmlns:xlink="http://www.w3.org/1999/xlink">
<g id="graph0" class="graph" transform="scale(1 1) rotate(0) translate(4 127)">
<title>immunologist</title>
<polygon fill="white" stroke="transparent" points="-4,4 -4,-127 357.84,-127 357.84,4 -4,4"/>
<!-- 0 -->
<g id="node1" class="node">
<title>0</title>
<g id="a_node1"><a xlink:href="from_immunologist.svg" xlink:title="immunologist">
<ellipse fill="none" stroke="black" cx="206.04" cy="-105" rx="59.59" ry="18"/>
<text text-anchor="middle" x="206.04" y="-101.3" font-family="Times New Roman,serif" font-size="14.00">immunologist</text>
</a>
</g>
</g>
<!-- 1 -->
<g id="node2" class="node">
<title>1</title>
<g id="a_node2"><a xlink:href="from_academic librarian.svg" xlink:title="academic librarian">
<ellipse fill="none" stroke="black" cx="76.04" cy="-18" rx="76.09" ry="18"/>
<text text-anchor="middle" x="76.04" y="-14.3" font-family="Times New Roman,serif" font-size="14.00">academic librarian</text>
</a>
</g>
</g>
<!-- 0&#45;&gt;1 -->
<g id="edge1" class="edge">
<title>0&#45;&gt;1</title>
<path fill="none" stroke="black" d="M182.2,-88.41C161.75,-75.04 132.07,-55.63 109.29,-40.74"/>
<polygon fill="black" stroke="black" points="110.9,-37.61 100.62,-35.07 107.07,-43.47 110.9,-37.61"/>
<text text-anchor="middle" x="164.54" y="-57.8" font-family="Times New Roman,serif" font-size="14.00">0.333</text>
</g>
<!-- 2 -->
<g id="node3" class="node">
<title>2</title>
<g id="a_node3"><a xlink:href="from_curator.svg" xlink:title="curator">
<ellipse fill="none" stroke="black" cx="206.04" cy="-18" rx="36.29" ry="18"/>
<text text-anchor="middle" x="206.04" y="-14.3" font-family="Times New Roman,serif" font-size="14.00">curator</text>
</a>
</g>
</g>
<!-- 0&#45;&gt;2 -->
<g id="edge2" class="edge">
<title>0&#45;&gt;2</title>
<path fill="none" stroke="black" d="M206.04,-86.8C206.04,-75.16 206.04,-59.55 206.04,-46.24"/>
<polygon fill="black" stroke="black" points="209.54,-46.18 206.04,-36.18 202.54,-46.18 209.54,-46.18"/>
<text text-anchor="middle" x="221.54" y="-57.8" font-family="Times New Roman,serif" font-size="14.00">0.333</text>
</g>
<!-- 3 -->
<g id="node4" class="node">
<title>3</title>
<g id="a_node4"><a xlink:href="from_qa analyst.svg" xlink:title="qa analyst">
<ellipse fill="none" stroke="black" cx="307.04" cy="-18" rx="46.59" ry="18"/>
<text text-anchor="middle" x="307.04" y="-14.3" font-family="Times New Roman,serif" font-size="14.00">qa analyst</text>
</a>
</g>
</g>
<!-- 0&#45;&gt;3 -->
<g id="edge3" class="edge">
<title>0&#45;&gt;3</title>
<path fill="none" stroke="black" d="M225.52,-87.61C241.08,-74.51 263.07,-56.01 280.29,-41.51"/>
<polygon fill="black" stroke="black" points="282.91,-43.88 288.31,-34.76 278.41,-38.52 282.91,-43.88"/>
<text text-anchor="middle" x="277.54" y="-57.8" font-family="Times New Roman,serif" font-size="14.00">0.333</text>
</g>
</g>
</svg>
