<?xml version="1.0" encoding="UTF-8" standalone="no"?>
<!DOCTYPE svg PUBLIC "-//W3C//DTD SVG 1.1//EN"
 "http://www.w3.org/Graphics/SVG/1.1/DTD/svg11.dtd">
<!-- Generated by graphviz version 2.44.1 (20200629.0800)
 -->
<!-- Title: test Pages: 1 -->
<svg width="1400pt" height="131pt"
 viewBox="0.00 0.00 1399.89 131.00" xmlns="http://www.w3.org/2000/svg" xmlns:xlink="http://www.w3.org/1999/xlink">
<g id="graph0" class="graph" transform="scale(1 1) rotate(0) translate(4 127)">
<title>test</title>
<polygon fill="white" stroke="transparent" points="-4,4 -4,-127 1395.89,-127 1395.89,4 -4,4"/>
<!-- 0 -->
<g id="node1" class="node">
<title>0</title>
<g id="a_node1"><a xlink:href="from_software architect.svg" xlink:title="software architect">
<ellipse fill="none" stroke="black" cx="667.6" cy="-105" rx="75.29" ry="18"/>
<text text-anchor="middle" x="667.6" y="-101.3" font-family="Times New Roman,serif" font-size="14.00">software architect</text>
</a>
</g>
</g>
<!-- 0&#45;&gt;0 -->
<g id="edge1" class="edge">
<title>0&#45;&gt;0</title>
<path fill="none" stroke="black" d="M736.01,-112.62C750.52,-111.85 760.99,-109.31 760.99,-105 760.99,-101.77 755.1,-99.53 746.03,-98.29"/>
<polygon fill="black" stroke="black" points="746.29,-94.8 736.01,-97.38 745.65,-101.77 746.29,-94.8"/>
<text text-anchor="middle" x="776.49" y="-101.3" font-family="Times New Roman,serif" font-size="14.00">0.322</text>
</g>
<!-- 1 -->
<g id="node2" class="node">
<title>1</title>
<g id="a_node2"><a xlink:href="from_architect.svg" xlink:title="architect">
<ellipse fill="none" stroke="black" cx="41.6" cy="-18" rx="41.69" ry="18"/>
<text text-anchor="middle" x="41.6" y="-14.3" font-family="Times New Roman,serif" font-size="14.00">architect</text>
</a>
</g>
</g>
<!-- 0&#45;&gt;1 -->
<g id="edge2" class="edge">
<title>0&#45;&gt;1</title>
<path fill="none" stroke="black" d="M593.27,-101.47C482.43,-96.31 267.97,-80.93 91.6,-36 88.44,-35.2 85.2,-34.29 81.96,-33.32"/>
<polygon fill="black" stroke="black" points="82.9,-29.95 72.31,-30.29 80.8,-36.63 82.9,-29.95"/>
<text text-anchor="middle" x="263.1" y="-57.8" font-family="Times New Roman,serif" font-size="14.00">0.154</text>
</g>
<!-- 2 -->
<g id="node3" class="node">
<title>2</title>
<g id="a_node3"><a xlink:href="from_it consultant.svg" xlink:title="it consultant">
<ellipse fill="none" stroke="black" cx="155.6" cy="-18" rx="54.69" ry="18"/>
<text text-anchor="middle" x="155.6" y="-14.3" font-family="Times New Roman,serif" font-size="14.00">it consultant</text>
</a>
</g>
</g>
<!-- 0&#45;&gt;2 -->
<g id="edge3" class="edge">
<title>0&#45;&gt;2</title>
<path fill="none" stroke="black" d="M601.52,-96.32C513.76,-85.59 354.14,-64.21 219.6,-36 214.99,-35.03 210.21,-33.94 205.45,-32.79"/>
<polygon fill="black" stroke="black" points="206.28,-29.39 195.73,-30.36 204.58,-36.18 206.28,-29.39"/>
<text text-anchor="middle" x="419.1" y="-57.8" font-family="Times New Roman,serif" font-size="14.00">0.149</text>
</g>
<!-- 3 -->
<g id="node4" class="node">
<title>3</title>
<g id="a_node4"><a xlink:href="from_software developer.svg" xlink:title="software developer">
<ellipse fill="none" stroke="black" cx="308.6" cy="-18" rx="79.89" ry="18"/>
<text text-anchor="middle" x="308.6" y="-14.3" font-family="Times New Roman,serif" font-size="14.00">software developer</text>
</a>
</g>
</g>
<!-- 0&#45;&gt;3 -->
<g id="edge4" class="edge">
<title>0&#45;&gt;3</title>
<path fill="none" stroke="black" d="M616.16,-91.82C551.67,-76.55 441.15,-50.39 371.64,-33.93"/>
<polygon fill="black" stroke="black" points="372.23,-30.47 361.69,-31.57 370.62,-37.28 372.23,-30.47"/>
<text text-anchor="middle" x="525.1" y="-57.8" font-family="Times New Roman,serif" font-size="14.00">0.116</text>
</g>
<!-- 4 -->
<g id="node5" class="node">
<title>4</title>
<g id="a_node5"><a xlink:href="from_project manager.svg" xlink:title="project manager">
<ellipse fill="none" stroke="black" cx="475.6" cy="-18" rx="68.79" ry="18"/>
<text text-anchor="middle" x="475.6" y="-14.3" font-family="Times New Roman,serif" font-size="14.00">project manager</text>
</a>
</g>
</g>
<!-- 0&#45;&gt;4 -->
<g id="edge5" class="edge">
<title>0&#45;&gt;4</title>
<path fill="none" stroke="black" d="M633.27,-88.8C601.13,-74.57 552.99,-53.26 518.37,-37.93"/>
<polygon fill="black" stroke="black" points="519.54,-34.63 508.98,-33.78 516.71,-41.03 519.54,-34.63"/>
<text text-anchor="middle" x="599.1" y="-57.8" font-family="Times New Roman,serif" font-size="14.00">0.042</text>
</g>
<!-- 5 -->
<g id="node6" class="node">
<title>5</title>
<g id="a_node6"><a xlink:href="from_pharmacovigilance officer.svg" xlink:title="pharmacovigilance officer">
<ellipse fill="none" stroke="black" cx="667.6" cy="-18" rx="104.78" ry="18"/>
<text text-anchor="middle" x="667.6" y="-14.3" font-family="Times New Roman,serif" font-size="14.00">pharmacovigilance officer</text>
</a>
</g>
</g>
<!-- 0&#45;&gt;5 -->
<g id="edge6" class="edge">
<title>0&#45;&gt;5</title>
<path fill="none" stroke="black" d="M667.6,-86.8C667.6,-75.16 667.6,-59.55 667.6,-46.24"/>
<polygon fill="black" stroke="black" points="671.1,-46.18 667.6,-36.18 664.1,-46.18 671.1,-46.18"/>
<text text-anchor="middle" x="683.1" y="-57.8" font-family="Times New Roman,serif" font-size="14.00">0.037</text>
</g>
<!-- 6 -->
<g id="node7" class="node">
<title>6</title>
<g id="a_node7"><a xlink:href="from_site manager.svg" xlink:title="site manager">
<ellipse fill="none" stroke="black" cx="846.6" cy="-18" rx="55.79" ry="18"/>
<text text-anchor="middle" x="846.6" y="-14.3" font-family="Times New Roman,serif" font-size="14.00">site manager</text>
</a>
</g>
</g>
<!-- 0&#45;&gt;6 -->
<g id="edge7" class="edge">
<title>0&#45;&gt;6</title>
<path fill="none" stroke="black" d="M700.01,-88.61C730.18,-74.28 775.2,-52.9 807.38,-37.62"/>
<polygon fill="black" stroke="black" points="808.98,-40.74 816.51,-33.29 805.97,-34.42 808.98,-40.74"/>
<text text-anchor="middle" x="784.1" y="-57.8" font-family="Times New Roman,serif" font-size="14.00">0.032</text>
</g>
<!-- 7 -->
<g id="node8" class="node">
<title>7</title>
<g id="a_node8"><a xlink:href="from_ux designer.svg" xlink:title="ux designer">
<ellipse fill="none" stroke="black" cx="972.6" cy="-18" rx="51.99" ry="18"/>
<text text-anchor="middle" x="972.6" y="-14.3" font-family="Times New Roman,serif" font-size="14.00">ux designer</text>
</a>
</g>
</g>
<!-- 0&#45;&gt;7 -->
<g id="edge8" class="edge">
<title>0&#45;&gt;7</title>
<path fill="none" stroke="black" d="M717.77,-91.54C743.49,-85.04 775.28,-76.83 803.6,-69 844.93,-57.57 891.67,-43.67 925.49,-33.43"/>
<polygon fill="black" stroke="black" points="926.56,-36.76 935.12,-30.51 924.53,-30.06 926.56,-36.76"/>
<text text-anchor="middle" x="871.1" y="-57.8" font-family="Times New Roman,serif" font-size="14.00">0.032</text>
</g>
<!-- 8 -->
<g id="node9" class="node">
<title>8</title>
<g id="a_node9"><a xlink:href="from_logistics manager.svg" xlink:title="logistics manager">
<ellipse fill="none" stroke="black" cx="1115.6" cy="-18" rx="73.39" ry="18"/>
<text text-anchor="middle" x="1115.6" y="-14.3" font-family="Times New Roman,serif" font-size="14.00">logistics manager</text>
</a>
</g>
</g>
<!-- 0&#45;&gt;8 -->
<g id="edge9" class="edge">
<title>0&#45;&gt;8</title>
<path fill="none" stroke="black" d="M731.22,-95.1C775.93,-88.58 837.07,-79.14 890.6,-69 946.7,-58.37 1010.18,-44.06 1055.37,-33.47"/>
<polygon fill="black" stroke="black" points="1056.36,-36.83 1065.29,-31.13 1054.76,-30.01 1056.36,-36.83"/>
<text text-anchor="middle" x="975.1" y="-57.8" font-family="Times New Roman,serif" font-size="14.00">0.028</text>
</g>
<!-- 9 -->
<g id="node10" class="node">
<title>9</title>
<g id="a_node10"><a xlink:href="from_database administrator.svg" xlink:title="database administrator">
<ellipse fill="none" stroke="black" cx="1299.6" cy="-18" rx="92.08" ry="18"/>
<text text-anchor="middle" x="1299.6" y="-14.3" font-family="Times New Roman,serif" font-size="14.00">database administrator</text>
</a>
</g>
</g>
<!-- 0&#45;&gt;9 -->
<g id="edge10" class="edge">
<title>0&#45;&gt;9</title>
<path fill="none" stroke="black" d="M736.63,-97.71C802.9,-91.42 905.76,-80.97 994.6,-69 1085.18,-56.8 1107.4,-50.85 1197.6,-36 1205.53,-34.69 1213.81,-33.32 1222.07,-31.95"/>
<polygon fill="black" stroke="black" points="1222.83,-35.38 1232.12,-30.29 1221.68,-28.47 1222.83,-35.38"/>
<text text-anchor="middle" x="1109.1" y="-57.8" font-family="Times New Roman,serif" font-size="14.00">0.023</text>
</g>
</g>
</svg>
