<?xml version="1.0" encoding="UTF-8" standalone="no"?>
<!DOCTYPE svg PUBLIC "-//W3C//DTD SVG 1.1//EN"
 "http://www.w3.org/Graphics/SVG/1.1/DTD/svg11.dtd">
<!-- Generated by graphviz version 2.44.1 (20200629.0800)
 -->
<!-- Title: public_house_manager Pages: 1 -->
<svg width="1600pt" height="131pt"
 viewBox="0.00 0.00 1599.74 131.00" xmlns="http://www.w3.org/2000/svg" xmlns:xlink="http://www.w3.org/1999/xlink">
<g id="graph0" class="graph" transform="scale(1 1) rotate(0) translate(4 127)">
<title>public_house_manager</title>
<polygon fill="white" stroke="transparent" points="-4,4 -4,-127 1595.74,-127 1595.74,4 -4,4"/>
<!-- 0 -->
<g id="node1" class="node">
<title>0</title>
<g id="a_node1"><a xlink:href="from_public house manager.svg" xlink:title="public house manager">
<ellipse fill="none" stroke="black" cx="799.64" cy="-105" rx="89.88" ry="18"/>
<text text-anchor="middle" x="799.64" y="-101.3" font-family="Times New Roman,serif" font-size="14.00">public house manager</text>
</a>
</g>
</g>
<!-- 0&#45;&gt;0 -->
<g id="edge2" class="edge">
<title>0&#45;&gt;0</title>
<path fill="none" stroke="black" d="M881.35,-112.47C896.6,-111.55 907.33,-109.06 907.33,-105 907.33,-101.92 901.17,-99.75 891.55,-98.47"/>
<polygon fill="black" stroke="black" points="891.63,-94.97 881.35,-97.53 890.98,-101.94 891.63,-94.97"/>
<text text-anchor="middle" x="922.83" y="-101.3" font-family="Times New Roman,serif" font-size="14.00">0.072</text>
</g>
<!-- 1 -->
<g id="node2" class="node">
<title>1</title>
<g id="a_node2"><a xlink:href="from_pharmacovigilance officer.svg" xlink:title="pharmacovigilance officer">
<ellipse fill="none" stroke="black" cx="104.64" cy="-18" rx="104.78" ry="18"/>
<text text-anchor="middle" x="104.64" y="-14.3" font-family="Times New Roman,serif" font-size="14.00">pharmacovigilance officer</text>
</a>
</g>
</g>
<!-- 0&#45;&gt;1 -->
<g id="edge1" class="edge">
<title>0&#45;&gt;1</title>
<path fill="none" stroke="black" d="M718.8,-97.11C646.77,-90.72 538.54,-80.48 444.64,-69 343.88,-56.68 319.06,-50.82 218.64,-36 209.63,-34.67 200.21,-33.28 190.83,-31.88"/>
<polygon fill="black" stroke="black" points="191.08,-28.38 180.67,-30.37 190.05,-35.3 191.08,-28.38"/>
<text text-anchor="middle" x="460.14" y="-57.8" font-family="Times New Roman,serif" font-size="14.00">0.072</text>
</g>
<!-- 2 -->
<g id="node3" class="node">
<title>2</title>
<g id="a_node3"><a xlink:href="from_project manager.svg" xlink:title="project manager">
<ellipse fill="none" stroke="black" cx="296.64" cy="-18" rx="68.79" ry="18"/>
<text text-anchor="middle" x="296.64" y="-14.3" font-family="Times New Roman,serif" font-size="14.00">project manager</text>
</a>
</g>
</g>
<!-- 0&#45;&gt;2 -->
<g id="edge3" class="edge">
<title>0&#45;&gt;2</title>
<path fill="none" stroke="black" d="M728.74,-93.93C644.19,-81.63 498.71,-59.54 374.64,-36 368.88,-34.91 362.9,-33.71 356.92,-32.48"/>
<polygon fill="black" stroke="black" points="357.42,-29.01 346.91,-30.38 355.98,-35.86 357.42,-29.01"/>
<text text-anchor="middle" x="577.14" y="-57.8" font-family="Times New Roman,serif" font-size="14.00">0.058</text>
</g>
<!-- 3 -->
<g id="node4" class="node">
<title>3</title>
<g id="a_node4"><a xlink:href="from_production manager.svg" xlink:title="production manager">
<ellipse fill="none" stroke="black" cx="466.64" cy="-18" rx="83.39" ry="18"/>
<text text-anchor="middle" x="466.64" y="-14.3" font-family="Times New Roman,serif" font-size="14.00">production manager</text>
</a>
</g>
</g>
<!-- 0&#45;&gt;3 -->
<g id="edge4" class="edge">
<title>0&#45;&gt;3</title>
<path fill="none" stroke="black" d="M746.51,-90.44C686.98,-75.24 590.65,-50.65 527.97,-34.66"/>
<polygon fill="black" stroke="black" points="528.77,-31.25 518.22,-32.16 527.04,-38.03 528.77,-31.25"/>
<text text-anchor="middle" x="669.14" y="-57.8" font-family="Times New Roman,serif" font-size="14.00">0.036</text>
</g>
<!-- 4 -->
<g id="node5" class="node">
<title>4</title>
<g id="a_node5"><a xlink:href="from_retail manager.svg" xlink:title="retail manager">
<ellipse fill="none" stroke="black" cx="628.64" cy="-18" rx="60.39" ry="18"/>
<text text-anchor="middle" x="628.64" y="-14.3" font-family="Times New Roman,serif" font-size="14.00">retail manager</text>
</a>
</g>
</g>
<!-- 0&#45;&gt;4 -->
<g id="edge5" class="edge">
<title>0&#45;&gt;4</title>
<path fill="none" stroke="black" d="M767.48,-88.01C739.07,-73.89 697.58,-53.27 667.36,-38.25"/>
<polygon fill="black" stroke="black" points="668.88,-35.1 658.37,-33.78 665.77,-41.36 668.88,-35.1"/>
<text text-anchor="middle" x="740.14" y="-57.8" font-family="Times New Roman,serif" font-size="14.00">0.036</text>
</g>
<!-- 5 -->
<g id="node6" class="node">
<title>5</title>
<g id="a_node6"><a xlink:href="from_broadcasting presenter.svg" xlink:title="broadcasting presenter">
<ellipse fill="none" stroke="black" cx="799.64" cy="-18" rx="92.88" ry="18"/>
<text text-anchor="middle" x="799.64" y="-14.3" font-family="Times New Roman,serif" font-size="14.00">broadcasting presenter</text>
</a>
</g>
</g>
<!-- 0&#45;&gt;5 -->
<g id="edge6" class="edge">
<title>0&#45;&gt;5</title>
<path fill="none" stroke="black" d="M799.64,-86.8C799.64,-75.16 799.64,-59.55 799.64,-46.24"/>
<polygon fill="black" stroke="black" points="803.14,-46.18 799.64,-36.18 796.14,-46.18 803.14,-46.18"/>
<text text-anchor="middle" x="815.14" y="-57.8" font-family="Times New Roman,serif" font-size="14.00">0.029</text>
</g>
<!-- 6 -->
<g id="node7" class="node">
<title>6</title>
<g id="a_node7"><a xlink:href="from_facilities manager.svg" xlink:title="facilities manager">
<ellipse fill="none" stroke="black" cx="983.64" cy="-18" rx="72.59" ry="18"/>
<text text-anchor="middle" x="983.64" y="-14.3" font-family="Times New Roman,serif" font-size="14.00">facilities manager</text>
</a>
</g>
</g>
<!-- 0&#45;&gt;6 -->
<g id="edge7" class="edge">
<title>0&#45;&gt;6</title>
<path fill="none" stroke="black" d="M833.82,-88.21C864.28,-74.14 908.95,-53.5 941.59,-38.42"/>
<polygon fill="black" stroke="black" points="943.27,-41.5 950.88,-34.13 940.34,-35.15 943.27,-41.5"/>
<text text-anchor="middle" x="919.14" y="-57.8" font-family="Times New Roman,serif" font-size="14.00">0.029</text>
</g>
<!-- 7 -->
<g id="node8" class="node">
<title>7</title>
<g id="a_node8"><a xlink:href="from_marketing executive.svg" xlink:title="marketing executive">
<ellipse fill="none" stroke="black" cx="1156.64" cy="-18" rx="81.79" ry="18"/>
<text text-anchor="middle" x="1156.64" y="-14.3" font-family="Times New Roman,serif" font-size="14.00">marketing executive</text>
</a>
</g>
</g>
<!-- 0&#45;&gt;7 -->
<g id="edge8" class="edge">
<title>0&#45;&gt;7</title>
<path fill="none" stroke="black" d="M855.03,-90.81C919.39,-75.49 1025.39,-50.25 1093.06,-34.14"/>
<polygon fill="black" stroke="black" points="1094.25,-37.45 1103.17,-31.73 1092.63,-30.64 1094.25,-37.45"/>
<text text-anchor="middle" x="1015.14" y="-57.8" font-family="Times New Roman,serif" font-size="14.00">0.029</text>
</g>
<!-- 8 -->
<g id="node9" class="node">
<title>8</title>
<g id="a_node9"><a xlink:href="from_public affairs consultant.svg" xlink:title="public affairs consultant">
<ellipse fill="none" stroke="black" cx="1353.64" cy="-18" rx="97.48" ry="18"/>
<text text-anchor="middle" x="1353.64" y="-14.3" font-family="Times New Roman,serif" font-size="14.00">public affairs consultant</text>
</a>
</g>
</g>
<!-- 0&#45;&gt;8 -->
<g id="edge9" class="edge">
<title>0&#45;&gt;8</title>
<path fill="none" stroke="black" d="M869.58,-93.69C916.32,-86.78 979.18,-77.43 1034.64,-69 1129.35,-54.61 1153.01,-50.92 1247.64,-36 1255.78,-34.72 1264.27,-33.37 1272.74,-32.02"/>
<polygon fill="black" stroke="black" points="1273.34,-35.47 1282.66,-30.44 1272.23,-28.56 1273.34,-35.47"/>
<text text-anchor="middle" x="1146.14" y="-57.8" font-family="Times New Roman,serif" font-size="14.00">0.029</text>
</g>
<!-- 9 -->
<g id="node10" class="node">
<title>9</title>
<g id="a_node10"><a xlink:href="from_sales manager.svg" xlink:title="sales manager">
<ellipse fill="none" stroke="black" cx="1530.64" cy="-18" rx="61.19" ry="18"/>
<text text-anchor="middle" x="1530.64" y="-14.3" font-family="Times New Roman,serif" font-size="14.00">sales manager</text>
</a>
</g>
</g>
<!-- 0&#45;&gt;9 -->
<g id="edge10" class="edge">
<title>0&#45;&gt;9</title>
<path fill="none" stroke="black" d="M884.56,-99.11C1010.73,-90.96 1254.84,-71.87 1459.64,-36 1465.1,-35.04 1470.77,-33.92 1476.42,-32.71"/>
<polygon fill="black" stroke="black" points="1477.51,-36.05 1486.5,-30.46 1475.98,-29.22 1477.51,-36.05"/>
<text text-anchor="middle" x="1350.14" y="-57.8" font-family="Times New Roman,serif" font-size="14.00">0.029</text>
</g>
</g>
</svg>
