<?xml version="1.0" encoding="UTF-8" standalone="no"?>
<!DOCTYPE svg PUBLIC "-//W3C//DTD SVG 1.1//EN"
 "http://www.w3.org/Graphics/SVG/1.1/DTD/svg11.dtd">
<!-- Generated by graphviz version 2.44.1 (20200629.0800)
 -->
<!-- Title: curator Pages: 1 -->
<svg width="1270pt" height="131pt"
 viewBox="0.00 0.00 1270.19 131.00" xmlns="http://www.w3.org/2000/svg" xmlns:xlink="http://www.w3.org/1999/xlink">
<g id="graph0" class="graph" transform="scale(1 1) rotate(0) translate(4 127)">
<title>curator</title>
<polygon fill="white" stroke="transparent" points="-4,4 -4,-127 1266.19,-127 1266.19,4 -4,4"/>
<!-- 0 -->
<g id="node1" class="node">
<title>0</title>
<g id="a_node1"><a xlink:href="from_curator.svg" xlink:title="curator">
<ellipse fill="none" stroke="black" cx="663.64" cy="-105" rx="36.29" ry="18"/>
<text text-anchor="middle" x="663.64" y="-101.3" font-family="Times New Roman,serif" font-size="14.00">curator</text>
</a>
</g>
</g>
<!-- 0&#45;&gt;0 -->
<g id="edge2" class="edge">
<title>0&#45;&gt;0</title>
<path fill="none" stroke="black" d="M696.57,-112.87C708.4,-113.04 718.04,-110.41 718.04,-105 718.04,-101.28 713.48,-98.88 706.79,-97.79"/>
<polygon fill="black" stroke="black" points="706.77,-94.28 696.57,-97.13 706.32,-101.27 706.77,-94.28"/>
<text text-anchor="middle" x="733.54" y="-101.3" font-family="Times New Roman,serif" font-size="14.00">0.081</text>
</g>
<!-- 1 -->
<g id="node2" class="node">
<title>1</title>
<g id="a_node2"><a xlink:href="from_pharmacovigilance officer.svg" xlink:title="pharmacovigilance officer">
<ellipse fill="none" stroke="black" cx="104.64" cy="-18" rx="104.78" ry="18"/>
<text text-anchor="middle" x="104.64" y="-14.3" font-family="Times New Roman,serif" font-size="14.00">pharmacovigilance officer</text>
</a>
</g>
</g>
<!-- 0&#45;&gt;1 -->
<g id="edge1" class="edge">
<title>0&#45;&gt;1</title>
<path fill="none" stroke="black" d="M628.7,-99.28C580.66,-92.75 491.53,-80.45 415.64,-69 338.17,-57.31 250,-43.04 187.37,-32.74"/>
<polygon fill="black" stroke="black" points="187.59,-29.23 177.16,-31.06 186.46,-36.14 187.59,-29.23"/>
<text text-anchor="middle" x="431.14" y="-57.8" font-family="Times New Roman,serif" font-size="14.00">0.233</text>
</g>
<!-- 2 -->
<g id="node3" class="node">
<title>2</title>
<g id="a_node3"><a xlink:href="from_production manager.svg" xlink:title="production manager">
<ellipse fill="none" stroke="black" cx="310.64" cy="-18" rx="83.39" ry="18"/>
<text text-anchor="middle" x="310.64" y="-14.3" font-family="Times New Roman,serif" font-size="14.00">production manager</text>
</a>
</g>
</g>
<!-- 0&#45;&gt;2 -->
<g id="edge3" class="edge">
<title>0&#45;&gt;2</title>
<path fill="none" stroke="black" d="M631.06,-96.75C600.06,-89.8 552.11,-78.93 510.64,-69 464.11,-57.86 411.65,-44.72 372.13,-34.71"/>
<polygon fill="black" stroke="black" points="372.92,-31.3 362.37,-32.24 371.2,-38.09 372.92,-31.3"/>
<text text-anchor="middle" x="526.14" y="-57.8" font-family="Times New Roman,serif" font-size="14.00">0.064</text>
</g>
<!-- 3 -->
<g id="node4" class="node">
<title>3</title>
<g id="a_node4"><a xlink:href="from_it consultant.svg" xlink:title="it consultant">
<ellipse fill="none" stroke="black" cx="466.64" cy="-18" rx="54.69" ry="18"/>
<text text-anchor="middle" x="466.64" y="-14.3" font-family="Times New Roman,serif" font-size="14.00">it consultant</text>
</a>
</g>
</g>
<!-- 0&#45;&gt;3 -->
<g id="edge4" class="edge">
<title>0&#45;&gt;3</title>
<path fill="none" stroke="black" d="M636.38,-93.01C619.66,-86.21 597.85,-77.24 578.64,-69 554.71,-58.74 528.09,-46.87 506.81,-37.27"/>
<polygon fill="black" stroke="black" points="507.99,-33.97 497.43,-33.04 505.11,-40.35 507.99,-33.97"/>
<text text-anchor="middle" x="594.14" y="-57.8" font-family="Times New Roman,serif" font-size="14.00">0.035</text>
</g>
<!-- 4 -->
<g id="node5" class="node">
<title>4</title>
<g id="a_node5"><a xlink:href="from_lawyer.svg" xlink:title="lawyer">
<ellipse fill="none" stroke="black" cx="573.64" cy="-18" rx="34.39" ry="18"/>
<text text-anchor="middle" x="573.64" y="-14.3" font-family="Times New Roman,serif" font-size="14.00">lawyer</text>
</a>
</g>
</g>
<!-- 0&#45;&gt;4 -->
<g id="edge5" class="edge">
<title>0&#45;&gt;4</title>
<path fill="none" stroke="black" d="M647.55,-88.8C633.47,-75.51 612.85,-56.03 596.96,-41.02"/>
<polygon fill="black" stroke="black" points="599.26,-38.39 589.59,-34.06 594.46,-43.48 599.26,-38.39"/>
<text text-anchor="middle" x="640.14" y="-57.8" font-family="Times New Roman,serif" font-size="14.00">0.035</text>
</g>
<!-- 5 -->
<g id="node6" class="node">
<title>5</title>
<g id="a_node6"><a xlink:href="from_lecturer.svg" xlink:title="lecturer">
<ellipse fill="none" stroke="black" cx="663.64" cy="-18" rx="37.89" ry="18"/>
<text text-anchor="middle" x="663.64" y="-14.3" font-family="Times New Roman,serif" font-size="14.00">lecturer</text>
</a>
</g>
</g>
<!-- 0&#45;&gt;5 -->
<g id="edge6" class="edge">
<title>0&#45;&gt;5</title>
<path fill="none" stroke="black" d="M663.64,-86.8C663.64,-75.16 663.64,-59.55 663.64,-46.24"/>
<polygon fill="black" stroke="black" points="667.14,-46.18 663.64,-36.18 660.14,-46.18 667.14,-46.18"/>
<text text-anchor="middle" x="679.14" y="-57.8" font-family="Times New Roman,serif" font-size="14.00">0.029</text>
</g>
<!-- 6 -->
<g id="node7" class="node">
<title>6</title>
<g id="a_node7"><a xlink:href="from_project manager.svg" xlink:title="project manager">
<ellipse fill="none" stroke="black" cx="788.64" cy="-18" rx="68.79" ry="18"/>
<text text-anchor="middle" x="788.64" y="-14.3" font-family="Times New Roman,serif" font-size="14.00">project manager</text>
</a>
</g>
</g>
<!-- 0&#45;&gt;6 -->
<g id="edge7" class="edge">
<title>0&#45;&gt;6</title>
<path fill="none" stroke="black" d="M684.28,-89.96C703.96,-76.58 733.88,-56.24 756.64,-40.76"/>
<polygon fill="black" stroke="black" points="758.68,-43.61 764.98,-35.09 754.74,-37.82 758.68,-43.61"/>
<text text-anchor="middle" x="749.14" y="-57.8" font-family="Times New Roman,serif" font-size="14.00">0.029</text>
</g>
<!-- 7 -->
<g id="node8" class="node">
<title>7</title>
<g id="a_node8"><a xlink:href="from_housing adviser.svg" xlink:title="housing adviser">
<ellipse fill="none" stroke="black" cx="942.64" cy="-18" rx="67.69" ry="18"/>
<text text-anchor="middle" x="942.64" y="-14.3" font-family="Times New Roman,serif" font-size="14.00">housing adviser</text>
</a>
</g>
</g>
<!-- 0&#45;&gt;7 -->
<g id="edge8" class="edge">
<title>0&#45;&gt;7</title>
<path fill="none" stroke="black" d="M693.76,-94.82C740.78,-80.5 832.23,-52.64 890.22,-34.97"/>
<polygon fill="black" stroke="black" points="891.39,-38.27 899.93,-32.01 889.35,-31.58 891.39,-38.27"/>
<text text-anchor="middle" x="836.14" y="-57.8" font-family="Times New Roman,serif" font-size="14.00">0.023</text>
</g>
<!-- 8 -->
<g id="node9" class="node">
<title>8</title>
<g id="a_node9"><a xlink:href="from_office manager.svg" xlink:title="office manager">
<ellipse fill="none" stroke="black" cx="1092.64" cy="-18" rx="64.19" ry="18"/>
<text text-anchor="middle" x="1092.64" y="-14.3" font-family="Times New Roman,serif" font-size="14.00">office manager</text>
</a>
</g>
</g>
<!-- 0&#45;&gt;8 -->
<g id="edge9" class="edge">
<title>0&#45;&gt;8</title>
<path fill="none" stroke="black" d="M697.62,-98.09C761.09,-86.93 901.88,-61.55 1019.64,-36 1024.68,-34.91 1029.9,-33.75 1035.14,-32.56"/>
<polygon fill="black" stroke="black" points="1036.2,-35.91 1045.17,-30.27 1034.65,-29.09 1036.2,-35.91"/>
<text text-anchor="middle" x="948.14" y="-57.8" font-family="Times New Roman,serif" font-size="14.00">0.023</text>
</g>
<!-- 9 -->
<g id="node10" class="node">
<title>9</title>
<g id="a_node10"><a xlink:href="from_secretary.svg" xlink:title="secretary">
<ellipse fill="none" stroke="black" cx="1218.64" cy="-18" rx="43.59" ry="18"/>
<text text-anchor="middle" x="1218.64" y="-14.3" font-family="Times New Roman,serif" font-size="14.00">secretary</text>
</a>
</g>
</g>
<!-- 0&#45;&gt;9 -->
<g id="edge10" class="edge">
<title>0&#45;&gt;9</title>
<path fill="none" stroke="black" d="M699.72,-101.68C782.88,-95.77 994.05,-77.59 1165.64,-36 1169.23,-35.13 1172.93,-34.14 1176.63,-33.09"/>
<polygon fill="black" stroke="black" points="1177.76,-36.4 1186.34,-30.18 1175.76,-29.69 1177.76,-36.4"/>
<text text-anchor="middle" x="1087.14" y="-57.8" font-family="Times New Roman,serif" font-size="14.00">0.023</text>
</g>
</g>
</svg>
