<?xml version="1.0" encoding="UTF-8" standalone="no"?>
<!DOCTYPE svg PUBLIC "-//W3C//DTD SVG 1.1//EN"
 "http://www.w3.org/Graphics/SVG/1.1/DTD/svg11.dtd">
<!-- Generated by graphviz version 2.44.1 (20200629.0800)
 -->
<!-- Title: test Pages: 1 -->
<svg width="1383pt" height="131pt"
 viewBox="0.00 0.00 1382.79 131.00" xmlns="http://www.w3.org/2000/svg" xmlns:xlink="http://www.w3.org/1999/xlink">
<g id="graph0" class="graph" transform="scale(1 1) rotate(0) translate(4 127)">
<title>test</title>
<polygon fill="white" stroke="transparent" points="-4,4 -4,-127 1378.79,-127 1378.79,4 -4,4"/>
<!-- 0 -->
<g id="node1" class="node">
<title>0</title>
<g id="a_node1"><a xlink:href="from_commissioning editor.svg" xlink:title="commissioning editor">
<ellipse fill="none" stroke="black" cx="632.19" cy="-105" rx="89.08" ry="18"/>
<text text-anchor="middle" x="632.19" y="-101.3" font-family="Times New Roman,serif" font-size="14.00">commissioning editor</text>
</a>
</g>
</g>
<!-- 0&#45;&gt;0 -->
<g id="edge1" class="edge">
<title>0&#45;&gt;0</title>
<path fill="none" stroke="black" d="M713.41,-112.47C728.56,-111.55 739.23,-109.06 739.23,-105 739.23,-101.92 733.11,-99.75 723.54,-98.47"/>
<polygon fill="black" stroke="black" points="723.69,-94.97 713.41,-97.53 723.04,-101.94 723.69,-94.97"/>
<text text-anchor="middle" x="754.73" y="-101.3" font-family="Times New Roman,serif" font-size="14.00">0.311</text>
</g>
<!-- 1 -->
<g id="node2" class="node">
<title>1</title>
<g id="a_node2"><a xlink:href="from_production manager.svg" xlink:title="production manager">
<ellipse fill="none" stroke="black" cx="83.19" cy="-18" rx="83.39" ry="18"/>
<text text-anchor="middle" x="83.19" y="-14.3" font-family="Times New Roman,serif" font-size="14.00">production manager</text>
</a>
</g>
</g>
<!-- 0&#45;&gt;1 -->
<g id="edge2" class="edge">
<title>0&#45;&gt;1</title>
<path fill="none" stroke="black" d="M548.74,-98.56C479.44,-93.3 378.45,-83.9 291.19,-69 240.29,-60.31 183.33,-46.31 141.9,-35.33"/>
<polygon fill="black" stroke="black" points="142.55,-31.88 131.98,-32.68 140.74,-38.65 142.55,-31.88"/>
<text text-anchor="middle" x="306.69" y="-57.8" font-family="Times New Roman,serif" font-size="14.00">0.090</text>
</g>
<!-- 2 -->
<g id="node3" class="node">
<title>2</title>
<g id="a_node3"><a xlink:href="from_writer.svg" xlink:title="writer">
<ellipse fill="none" stroke="black" cx="215.19" cy="-18" rx="31.4" ry="18"/>
<text text-anchor="middle" x="215.19" y="-14.3" font-family="Times New Roman,serif" font-size="14.00">writer</text>
</a>
</g>
</g>
<!-- 0&#45;&gt;2 -->
<g id="edge3" class="edge">
<title>0&#45;&gt;2</title>
<path fill="none" stroke="black" d="M555.43,-95.72C478.32,-86.11 356.69,-67.42 255.19,-36 252.94,-35.3 250.65,-34.52 248.35,-33.69"/>
<polygon fill="black" stroke="black" points="249.6,-30.42 239.01,-30.06 247.06,-36.95 249.6,-30.42"/>
<text text-anchor="middle" x="403.69" y="-57.8" font-family="Times New Roman,serif" font-size="14.00">0.090</text>
</g>
<!-- 3 -->
<g id="node4" class="node">
<title>3</title>
<g id="a_node4"><a xlink:href="from_content manager.svg" xlink:title="content manager">
<ellipse fill="none" stroke="black" cx="334.19" cy="-18" rx="70.39" ry="18"/>
<text text-anchor="middle" x="334.19" y="-14.3" font-family="Times New Roman,serif" font-size="14.00">content manager</text>
</a>
</g>
</g>
<!-- 0&#45;&gt;3 -->
<g id="edge4" class="edge">
<title>0&#45;&gt;3</title>
<path fill="none" stroke="black" d="M581.16,-90.13C557.96,-83.77 530.16,-76.09 505.19,-69 465.93,-57.85 421.7,-44.91 388.06,-34.98"/>
<polygon fill="black" stroke="black" points="389.01,-31.61 378.43,-32.14 387.03,-38.33 389.01,-31.61"/>
<text text-anchor="middle" x="520.69" y="-57.8" font-family="Times New Roman,serif" font-size="14.00">0.064</text>
</g>
<!-- 4 -->
<g id="node5" class="node">
<title>4</title>
<g id="a_node5"><a xlink:href="from_journalist.svg" xlink:title="journalist">
<ellipse fill="none" stroke="black" cx="466.19" cy="-18" rx="43.59" ry="18"/>
<text text-anchor="middle" x="466.19" y="-14.3" font-family="Times New Roman,serif" font-size="14.00">journalist</text>
</a>
</g>
</g>
<!-- 0&#45;&gt;4 -->
<g id="edge5" class="edge">
<title>0&#45;&gt;4</title>
<path fill="none" stroke="black" d="M600.97,-88.01C572.66,-73.52 530.98,-52.18 501.48,-37.07"/>
<polygon fill="black" stroke="black" points="502.86,-33.84 492.36,-32.4 499.67,-40.07 502.86,-33.84"/>
<text text-anchor="middle" x="574.69" y="-57.8" font-family="Times New Roman,serif" font-size="14.00">0.051</text>
</g>
<!-- 5 -->
<g id="node6" class="node">
<title>5</title>
<g id="a_node6"><a xlink:href="from_pharmacovigilance officer.svg" xlink:title="pharmacovigilance officer">
<ellipse fill="none" stroke="black" cx="632.19" cy="-18" rx="104.78" ry="18"/>
<text text-anchor="middle" x="632.19" y="-14.3" font-family="Times New Roman,serif" font-size="14.00">pharmacovigilance officer</text>
</a>
</g>
</g>
<!-- 0&#45;&gt;5 -->
<g id="edge6" class="edge">
<title>0&#45;&gt;5</title>
<path fill="none" stroke="black" d="M632.19,-86.8C632.19,-75.16 632.19,-59.55 632.19,-46.24"/>
<polygon fill="black" stroke="black" points="635.69,-46.18 632.19,-36.18 628.69,-46.18 635.69,-46.18"/>
<text text-anchor="middle" x="647.69" y="-57.8" font-family="Times New Roman,serif" font-size="14.00">0.051</text>
</g>
<!-- 6 -->
<g id="node7" class="node">
<title>6</title>
<g id="a_node7"><a xlink:href="from_marketing executive.svg" xlink:title="marketing executive">
<ellipse fill="none" stroke="black" cx="837.19" cy="-18" rx="81.79" ry="18"/>
<text text-anchor="middle" x="837.19" y="-14.3" font-family="Times New Roman,serif" font-size="14.00">marketing executive</text>
</a>
</g>
</g>
<!-- 0&#45;&gt;6 -->
<g id="edge7" class="edge">
<title>0&#45;&gt;6</title>
<path fill="none" stroke="black" d="M669.32,-88.61C703.53,-74.42 754.42,-53.32 791.19,-38.07"/>
<polygon fill="black" stroke="black" points="792.79,-41.2 800.69,-34.14 790.11,-34.73 792.79,-41.2"/>
<text text-anchor="middle" x="762.69" y="-57.8" font-family="Times New Roman,serif" font-size="14.00">0.038</text>
</g>
<!-- 7 -->
<g id="node8" class="node">
<title>7</title>
<g id="a_node8"><a xlink:href="from_facilities manager.svg" xlink:title="facilities manager">
<ellipse fill="none" stroke="black" cx="1010.19" cy="-18" rx="72.59" ry="18"/>
<text text-anchor="middle" x="1010.19" y="-14.3" font-family="Times New Roman,serif" font-size="14.00">facilities manager</text>
</a>
</g>
</g>
<!-- 0&#45;&gt;7 -->
<g id="edge8" class="edge">
<title>0&#45;&gt;7</title>
<path fill="none" stroke="black" d="M689.6,-91.09C759.43,-75.39 876.83,-48.99 948.53,-32.87"/>
<polygon fill="black" stroke="black" points="949.34,-36.27 958.33,-30.66 947.81,-29.44 949.34,-36.27"/>
<text text-anchor="middle" x="859.69" y="-57.8" font-family="Times New Roman,serif" font-size="14.00">0.025</text>
</g>
<!-- 8 -->
<g id="node9" class="node">
<title>8</title>
<g id="a_node9"><a xlink:href="from_financial manager.svg" xlink:title="financial manager">
<ellipse fill="none" stroke="black" cx="1174.19" cy="-18" rx="73.39" ry="18"/>
<text text-anchor="middle" x="1174.19" y="-14.3" font-family="Times New Roman,serif" font-size="14.00">financial manager</text>
</a>
</g>
</g>
<!-- 0&#45;&gt;8 -->
<g id="edge9" class="edge">
<title>0&#45;&gt;8</title>
<path fill="none" stroke="black" d="M705.33,-94.67C796.28,-82.73 956.15,-60.62 1092.19,-36 1098.3,-34.9 1104.64,-33.69 1110.98,-32.44"/>
<polygon fill="black" stroke="black" points="1111.78,-35.85 1120.9,-30.46 1110.4,-28.99 1111.78,-35.85"/>
<text text-anchor="middle" x="994.69" y="-57.8" font-family="Times New Roman,serif" font-size="14.00">0.025</text>
</g>
<!-- 9 -->
<g id="node10" class="node">
<title>9</title>
<g id="a_node10"><a xlink:href="from_it consultant.svg" xlink:title="it consultant">
<ellipse fill="none" stroke="black" cx="1320.19" cy="-18" rx="54.69" ry="18"/>
<text text-anchor="middle" x="1320.19" y="-14.3" font-family="Times New Roman,serif" font-size="14.00">it consultant</text>
</a>
</g>
</g>
<!-- 0&#45;&gt;9 -->
<g id="edge10" class="edge">
<title>0&#45;&gt;9</title>
<path fill="none" stroke="black" d="M717.2,-99.54C837.97,-92.13 1065.72,-74.13 1256.19,-36 1260.88,-35.06 1265.73,-33.98 1270.57,-32.83"/>
<polygon fill="black" stroke="black" points="1271.57,-36.19 1280.43,-30.38 1269.88,-29.39 1271.57,-36.19"/>
<text text-anchor="middle" x="1153.69" y="-57.8" font-family="Times New Roman,serif" font-size="14.00">0.025</text>
</g>
</g>
</svg>
