<?xml version="1.0" encoding="UTF-8" standalone="no"?>
<!DOCTYPE svg PUBLIC "-//W3C//DTD SVG 1.1//EN"
 "http://www.w3.org/Graphics/SVG/1.1/DTD/svg11.dtd">
<!-- Generated by graphviz version 2.44.1 (20200629.0800)
 -->
<!-- Title: test Pages: 1 -->
<svg width="1500pt" height="131pt"
 viewBox="0.00 0.00 1499.99 131.00" xmlns="http://www.w3.org/2000/svg" xmlns:xlink="http://www.w3.org/1999/xlink">
<g id="graph0" class="graph" transform="scale(1 1) rotate(0) translate(4 127)">
<title>test</title>
<polygon fill="white" stroke="transparent" points="-4,4 -4,-127 1495.99,-127 1495.99,4 -4,4"/>
<!-- 0 -->
<g id="node1" class="node">
<title>0</title>
<g id="a_node1"><a xlink:href="from_public affairs consultant (lobbyist).svg" xlink:title="public affairs consultant (lobbyist)">
<ellipse fill="none" stroke="black" cx="712.6" cy="-105" rx="135.38" ry="18"/>
<text text-anchor="middle" x="712.6" y="-101.3" font-family="Times New Roman,serif" font-size="14.00">public affairs consultant (lobbyist)</text>
</a>
</g>
</g>
<!-- 0&#45;&gt;0 -->
<g id="edge2" class="edge">
<title>0&#45;&gt;0</title>
<path fill="none" stroke="black" d="M837.32,-112.01C854.39,-110.84 865.78,-108.51 865.78,-105 865.78,-102.23 858.69,-100.2 847.31,-98.89"/>
<polygon fill="black" stroke="black" points="847.59,-95.4 837.32,-97.99 846.96,-102.37 847.59,-95.4"/>
<text text-anchor="middle" x="881.28" y="-101.3" font-family="Times New Roman,serif" font-size="14.00">0.070</text>
</g>
<!-- 1 -->
<g id="node2" class="node">
<title>1</title>
<g id="a_node2"><a xlink:href="from_it consultant.svg" xlink:title="it consultant">
<ellipse fill="none" stroke="black" cx="54.6" cy="-18" rx="54.69" ry="18"/>
<text text-anchor="middle" x="54.6" y="-14.3" font-family="Times New Roman,serif" font-size="14.00">it consultant</text>
</a>
</g>
</g>
<!-- 0&#45;&gt;1 -->
<g id="edge1" class="edge">
<title>0&#45;&gt;1</title>
<path fill="none" stroke="black" d="M593.61,-96.38C473.02,-87.25 281.51,-68.9 118.6,-36 113.91,-35.05 109.06,-33.97 104.22,-32.81"/>
<polygon fill="black" stroke="black" points="104.91,-29.38 94.36,-30.36 103.22,-36.17 104.91,-29.38"/>
<text text-anchor="middle" x="329.1" y="-57.8" font-family="Times New Roman,serif" font-size="14.00">0.070</text>
</g>
<!-- 2 -->
<g id="node3" class="node">
<title>2</title>
<g id="a_node3"><a xlink:href="from_financial manager.svg" xlink:title="financial manager">
<ellipse fill="none" stroke="black" cx="200.6" cy="-18" rx="73.39" ry="18"/>
<text text-anchor="middle" x="200.6" y="-14.3" font-family="Times New Roman,serif" font-size="14.00">financial manager</text>
</a>
</g>
</g>
<!-- 0&#45;&gt;2 -->
<g id="edge3" class="edge">
<title>0&#45;&gt;2</title>
<path fill="none" stroke="black" d="M624.47,-91.3C537.6,-78.47 401.16,-57.54 283.6,-36 277.42,-34.87 271,-33.64 264.59,-32.39"/>
<polygon fill="black" stroke="black" points="265.05,-28.91 254.55,-30.39 263.68,-35.77 265.05,-28.91"/>
<text text-anchor="middle" x="487.1" y="-57.8" font-family="Times New Roman,serif" font-size="14.00">0.060</text>
</g>
<!-- 3 -->
<g id="node4" class="node">
<title>3</title>
<g id="a_node4"><a xlink:href="from_marketing assistant.svg" xlink:title="marketing assistant">
<ellipse fill="none" stroke="black" cx="371.6" cy="-18" rx="79.09" ry="18"/>
<text text-anchor="middle" x="371.6" y="-14.3" font-family="Times New Roman,serif" font-size="14.00">marketing assistant</text>
</a>
</g>
</g>
<!-- 0&#45;&gt;3 -->
<g id="edge4" class="edge">
<title>0&#45;&gt;3</title>
<path fill="none" stroke="black" d="M652.02,-88.9C590.29,-73.51 495.05,-49.77 433.01,-34.31"/>
<polygon fill="black" stroke="black" points="433.52,-30.83 422.97,-31.81 431.83,-37.62 433.52,-30.83"/>
<text text-anchor="middle" x="578.1" y="-57.8" font-family="Times New Roman,serif" font-size="14.00">0.050</text>
</g>
<!-- 4 -->
<g id="node5" class="node">
<title>4</title>
<g id="a_node5"><a xlink:href="from_careers adviser.svg" xlink:title="careers adviser">
<ellipse fill="none" stroke="black" cx="533.6" cy="-18" rx="64.99" ry="18"/>
<text text-anchor="middle" x="533.6" y="-14.3" font-family="Times New Roman,serif" font-size="14.00">careers adviser</text>
</a>
</g>
</g>
<!-- 0&#45;&gt;4 -->
<g id="edge5" class="edge">
<title>0&#45;&gt;4</title>
<path fill="none" stroke="black" d="M677.66,-87.41C647.97,-73.31 605.32,-53.06 574.14,-38.25"/>
<polygon fill="black" stroke="black" points="575.39,-34.97 564.85,-33.84 572.38,-41.29 575.39,-34.97"/>
<text text-anchor="middle" x="650.1" y="-57.8" font-family="Times New Roman,serif" font-size="14.00">0.040</text>
</g>
<!-- 5 -->
<g id="node6" class="node">
<title>5</title>
<g id="a_node6"><a xlink:href="from_education administrator.svg" xlink:title="education administrator">
<ellipse fill="none" stroke="black" cx="712.6" cy="-18" rx="95.58" ry="18"/>
<text text-anchor="middle" x="712.6" y="-14.3" font-family="Times New Roman,serif" font-size="14.00">education administrator</text>
</a>
</g>
</g>
<!-- 0&#45;&gt;5 -->
<g id="edge6" class="edge">
<title>0&#45;&gt;5</title>
<path fill="none" stroke="black" d="M712.6,-86.8C712.6,-75.16 712.6,-59.55 712.6,-46.24"/>
<polygon fill="black" stroke="black" points="716.1,-46.18 712.6,-36.18 709.1,-46.18 716.1,-46.18"/>
<text text-anchor="middle" x="728.1" y="-57.8" font-family="Times New Roman,serif" font-size="14.00">0.030</text>
</g>
<!-- 6 -->
<g id="node7" class="node">
<title>6</title>
<g id="a_node7"><a xlink:href="from_marketing executive.svg" xlink:title="marketing executive">
<ellipse fill="none" stroke="black" cx="907.6" cy="-18" rx="81.79" ry="18"/>
<text text-anchor="middle" x="907.6" y="-14.3" font-family="Times New Roman,serif" font-size="14.00">marketing executive</text>
</a>
</g>
</g>
<!-- 0&#45;&gt;6 -->
<g id="edge7" class="edge">
<title>0&#45;&gt;6</title>
<path fill="none" stroke="black" d="M750.19,-87.61C782.46,-73.54 829.03,-53.25 863.14,-38.38"/>
<polygon fill="black" stroke="black" points="864.64,-41.54 872.41,-34.34 861.84,-35.12 864.64,-41.54"/>
<text text-anchor="middle" x="838.1" y="-57.8" font-family="Times New Roman,serif" font-size="14.00">0.030</text>
</g>
<!-- 7 -->
<g id="node8" class="node">
<title>7</title>
<g id="a_node8"><a xlink:href="from_regulatory affairs officer.svg" xlink:title="regulatory affairs officer">
<ellipse fill="none" stroke="black" cx="1105.6" cy="-18" rx="98.28" ry="18"/>
<text text-anchor="middle" x="1105.6" y="-14.3" font-family="Times New Roman,serif" font-size="14.00">regulatory affairs officer</text>
</a>
</g>
</g>
<!-- 0&#45;&gt;7 -->
<g id="edge8" class="edge">
<title>0&#45;&gt;7</title>
<path fill="none" stroke="black" d="M780.15,-89.39C851.21,-74.02 962.54,-49.94 1034.79,-34.31"/>
<polygon fill="black" stroke="black" points="1035.69,-37.7 1044.72,-32.17 1034.21,-30.86 1035.69,-37.7"/>
<text text-anchor="middle" x="949.1" y="-57.8" font-family="Times New Roman,serif" font-size="14.00">0.030</text>
</g>
<!-- 8 -->
<g id="node9" class="node">
<title>8</title>
<g id="a_node9"><a xlink:href="from_agricultural consultant.svg" xlink:title="agricultural consultant">
<ellipse fill="none" stroke="black" cx="1311.6" cy="-18" rx="89.88" ry="18"/>
<text text-anchor="middle" x="1311.6" y="-14.3" font-family="Times New Roman,serif" font-size="14.00">agricultural consultant</text>
</a>
</g>
</g>
<!-- 0&#45;&gt;8 -->
<g id="edge9" class="edge">
<title>0&#45;&gt;8</title>
<path fill="none" stroke="black" d="M807.2,-92.13C907.85,-79.27 1071.68,-57.67 1212.6,-36 1220.44,-34.79 1228.62,-33.48 1236.77,-32.13"/>
<polygon fill="black" stroke="black" points="1237.39,-35.58 1246.68,-30.48 1236.24,-28.67 1237.39,-35.58"/>
<text text-anchor="middle" x="1105.1" y="-57.8" font-family="Times New Roman,serif" font-size="14.00">0.020</text>
</g>
<!-- 9 -->
<g id="node10" class="node">
<title>9</title>
<g id="a_node10"><a xlink:href="from_auditor.svg" xlink:title="auditor">
<ellipse fill="none" stroke="black" cx="1455.6" cy="-18" rx="36.29" ry="18"/>
<text text-anchor="middle" x="1455.6" y="-14.3" font-family="Times New Roman,serif" font-size="14.00">auditor</text>
</a>
</g>
</g>
<!-- 0&#45;&gt;9 -->
<g id="edge10" class="edge">
<title>0&#45;&gt;9</title>
<path fill="none" stroke="black" d="M846.31,-102.1C988.2,-97.52 1218.03,-82.72 1410.6,-36 1413.41,-35.32 1416.29,-34.51 1419.16,-33.62"/>
<polygon fill="black" stroke="black" points="1420.46,-36.87 1428.81,-30.35 1418.21,-30.24 1420.46,-36.87"/>
<text text-anchor="middle" x="1333.1" y="-57.8" font-family="Times New Roman,serif" font-size="14.00">0.020</text>
</g>
</g>
</svg>
