<?xml version="1.0" encoding="UTF-8" standalone="no"?>
<!DOCTYPE svg PUBLIC "-//W3C//DTD SVG 1.1//EN"
 "http://www.w3.org/Graphics/SVG/1.1/DTD/svg11.dtd">
<!-- Generated by graphviz version 2.44.1 (20200629.0800)
 -->
<!-- Title: government_research_officer Pages: 1 -->
<svg width="1383pt" height="218pt"
 viewBox="0.00 0.00 1383.34 218.00" xmlns="http://www.w3.org/2000/svg" xmlns:xlink="http://www.w3.org/1999/xlink">
<g id="graph0" class="graph" transform="scale(1 1) rotate(0) translate(4 214)">
<title>government_research_officer</title>
<polygon fill="white" stroke="transparent" points="-4,4 -4,-214 1379.34,-214 1379.34,4 -4,4"/>
<!-- 0 -->
<g id="node1" class="node">
<title>0</title>
<g id="a_node1"><a xlink:href="research scientist.svg" xlink:title="research scientist">
<ellipse fill="none" stroke="black" cx="177.7" cy="-192" rx="72.59" ry="18"/>
<text text-anchor="middle" x="177.7" y="-188.3" font-family="Times New Roman,serif" font-size="14.00">research scientist</text>
</a>
</g>
</g>
<!-- 1 -->
<g id="node2" class="node">
<title>1</title>
<g id="a_node2"><a xlink:href="government research officer.svg" xlink:title="government research officer">
<ellipse fill="none" stroke="black" cx="457.7" cy="-105" rx="112.38" ry="18"/>
<text text-anchor="middle" x="457.7" y="-101.3" font-family="Times New Roman,serif" font-size="14.00">government research officer</text>
</a>
</g>
</g>
<!-- 0&#45;&gt;1 -->
<g id="edge1" class="edge">
<title>0&#45;&gt;1</title>
<path fill="none" stroke="black" d="M194.68,-174.39C207.2,-163.14 225.2,-148.93 243.7,-141 275.21,-127.48 311.38,-119.15 344.92,-114.03"/>
<polygon fill="black" stroke="black" points="345.83,-117.44 355.23,-112.54 344.83,-110.51 345.83,-117.44"/>
<text text-anchor="middle" x="259.2" y="-144.8" font-family="Times New Roman,serif" font-size="14.00">0.137</text>
</g>
<!-- 1&#45;&gt;0 -->
<g id="edge12" class="edge">
<title>1&#45;&gt;0</title>
<path fill="none" stroke="black" d="M407.75,-121.16C358.2,-136.21 282.48,-159.19 231.59,-174.64"/>
<polygon fill="black" stroke="black" points="230.31,-171.37 221.75,-177.63 232.34,-178.07 230.31,-171.37"/>
<text text-anchor="middle" x="350.2" y="-144.8" font-family="Times New Roman,serif" font-size="14.00">0.066</text>
</g>
<!-- 1&#45;&gt;1 -->
<g id="edge10" class="edge">
<title>1&#45;&gt;1</title>
<path fill="none" stroke="black" d="M560.77,-112.23C577.03,-111.16 588.14,-108.75 588.14,-105 588.14,-102.1 581.49,-100 570.96,-98.7"/>
<polygon fill="black" stroke="black" points="571.04,-95.19 560.77,-97.77 570.4,-102.16 571.04,-95.19"/>
<text text-anchor="middle" x="603.64" y="-101.3" font-family="Times New Roman,serif" font-size="14.00">0.138</text>
</g>
<!-- 2 -->
<g id="node3" class="node">
<title>2</title>
<g id="a_node3"><a xlink:href="lecturer.svg" xlink:title="lecturer">
<ellipse fill="none" stroke="black" cx="37.7" cy="-18" rx="37.89" ry="18"/>
<text text-anchor="middle" x="37.7" y="-14.3" font-family="Times New Roman,serif" font-size="14.00">lecturer</text>
</a>
</g>
</g>
<!-- 1&#45;&gt;2 -->
<g id="edge11" class="edge">
<title>1&#45;&gt;2</title>
<path fill="none" stroke="black" d="M347.48,-101.18C256.7,-97.45 135.97,-88.83 91.7,-69 78.45,-63.07 66.32,-52.55 56.93,-42.69"/>
<polygon fill="black" stroke="black" points="59.31,-40.1 50.02,-35.02 54.11,-44.79 59.31,-40.1"/>
<text text-anchor="middle" x="107.2" y="-57.8" font-family="Times New Roman,serif" font-size="14.00">0.099</text>
</g>
<!-- 3 -->
<g id="node4" class="node">
<title>3</title>
<g id="a_node4"><a xlink:href="project manager.svg" xlink:title="project manager">
<ellipse fill="none" stroke="black" cx="162.7" cy="-18" rx="68.79" ry="18"/>
<text text-anchor="middle" x="162.7" y="-14.3" font-family="Times New Roman,serif" font-size="14.00">project manager</text>
</a>
</g>
</g>
<!-- 1&#45;&gt;3 -->
<g id="edge15" class="edge">
<title>1&#45;&gt;3</title>
<path fill="none" stroke="black" d="M357.98,-96.58C320.33,-91.56 277.68,-83.13 240.7,-69 223.15,-62.3 205.38,-51.31 191.25,-41.33"/>
<polygon fill="black" stroke="black" points="193.1,-38.35 182.95,-35.3 188.98,-44.01 193.1,-38.35"/>
<text text-anchor="middle" x="256.2" y="-57.8" font-family="Times New Roman,serif" font-size="14.00">0.038</text>
</g>
<!-- 4 -->
<g id="node5" class="node">
<title>4</title>
<g id="a_node5"><a xlink:href="pharmacovigilance officer.svg" xlink:title="pharmacovigilance officer">
<ellipse fill="none" stroke="black" cx="354.7" cy="-18" rx="104.78" ry="18"/>
<text text-anchor="middle" x="354.7" y="-14.3" font-family="Times New Roman,serif" font-size="14.00">pharmacovigilance officer</text>
</a>
</g>
</g>
<!-- 1&#45;&gt;4 -->
<g id="edge13" class="edge">
<title>1&#45;&gt;4</title>
<path fill="none" stroke="black" d="M395.42,-89.98C384.23,-84.97 373.62,-78.19 365.7,-69 360.23,-62.66 357.29,-54.21 355.77,-46.07"/>
<polygon fill="black" stroke="black" points="359.23,-45.58 354.51,-36.1 352.29,-46.46 359.23,-45.58"/>
<text text-anchor="middle" x="381.2" y="-57.8" font-family="Times New Roman,serif" font-size="14.00">0.060</text>
</g>
<!-- 5 -->
<g id="node6" class="node">
<title>5</title>
<g id="a_node6"><a xlink:href="academic librarian.svg" xlink:title="academic librarian">
<ellipse fill="none" stroke="black" cx="553.7" cy="-18" rx="76.09" ry="18"/>
<text text-anchor="middle" x="553.7" y="-14.3" font-family="Times New Roman,serif" font-size="14.00">academic librarian</text>
</a>
</g>
</g>
<!-- 1&#45;&gt;5 -->
<g id="edge16" class="edge">
<title>1&#45;&gt;5</title>
<path fill="none" stroke="black" d="M464.39,-86.59C469.1,-76.13 476.25,-63.12 485.7,-54 491.81,-48.1 499.11,-42.96 506.63,-38.58"/>
<polygon fill="black" stroke="black" points="508.37,-41.61 515.49,-33.77 505.03,-35.46 508.37,-41.61"/>
<text text-anchor="middle" x="501.2" y="-57.8" font-family="Times New Roman,serif" font-size="14.00">0.027</text>
</g>
<!-- 10 -->
<g id="node11" class="node">
<title>10</title>
<g id="a_node11"><a xlink:href="it consultant.svg" xlink:title="it consultant">
<ellipse fill="none" stroke="black" cx="702.7" cy="-18" rx="54.69" ry="18"/>
<text text-anchor="middle" x="702.7" y="-14.3" font-family="Times New Roman,serif" font-size="14.00">it consultant</text>
</a>
</g>
</g>
<!-- 1&#45;&gt;10 -->
<g id="edge14" class="edge">
<title>1&#45;&gt;10</title>
<path fill="none" stroke="black" d="M507.61,-88.86C526.78,-82.89 548.82,-75.84 568.7,-69 599.09,-58.54 633.02,-45.88 659.12,-35.91"/>
<polygon fill="black" stroke="black" points="660.64,-39.08 668.72,-32.23 658.13,-32.54 660.64,-39.08"/>
<text text-anchor="middle" x="624.2" y="-57.8" font-family="Times New Roman,serif" font-size="14.00">0.044</text>
</g>
<!-- 11 -->
<g id="node12" class="node">
<title>11</title>
<g id="a_node12"><a xlink:href="education administrator.svg" xlink:title="education administrator">
<ellipse fill="none" stroke="black" cx="870.7" cy="-18" rx="95.58" ry="18"/>
<text text-anchor="middle" x="870.7" y="-14.3" font-family="Times New Roman,serif" font-size="14.00">education administrator</text>
</a>
</g>
</g>
<!-- 1&#45;&gt;11 -->
<g id="edge17" class="edge">
<title>1&#45;&gt;11</title>
<path fill="none" stroke="black" d="M529.34,-91.05C563.94,-84.66 606.03,-76.69 643.7,-69 697.18,-58.08 757.52,-44.74 802.54,-34.59"/>
<polygon fill="black" stroke="black" points="803.5,-37.96 812.48,-32.34 801.96,-31.13 803.5,-37.96"/>
<text text-anchor="middle" x="727.2" y="-57.8" font-family="Times New Roman,serif" font-size="14.00">0.022</text>
</g>
<!-- 12 -->
<g id="node13" class="node">
<title>12</title>
<g id="a_node13"><a xlink:href="market research analyst.svg" xlink:title="market research analyst">
<ellipse fill="none" stroke="black" cx="1078.7" cy="-18" rx="94.78" ry="18"/>
<text text-anchor="middle" x="1078.7" y="-14.3" font-family="Times New Roman,serif" font-size="14.00">market research analyst</text>
</a>
</g>
</g>
<!-- 1&#45;&gt;12 -->
<g id="edge18" class="edge">
<title>1&#45;&gt;12</title>
<path fill="none" stroke="black" d="M545.98,-93.83C603.24,-87.11 679.44,-77.92 746.7,-69 848.63,-55.48 874.07,-51.71 975.7,-36 983.66,-34.77 991.95,-33.45 1000.24,-32.12"/>
<polygon fill="black" stroke="black" points="1000.99,-35.54 1010.3,-30.49 999.87,-28.63 1000.99,-35.54"/>
<text text-anchor="middle" x="868.2" y="-57.8" font-family="Times New Roman,serif" font-size="14.00">0.022</text>
</g>
<!-- 13 -->
<g id="node14" class="node">
<title>13</title>
<g id="a_node14"><a xlink:href="programme researcher.svg" xlink:title="programme researcher">
<ellipse fill="none" stroke="black" cx="1283.7" cy="-18" rx="91.78" ry="18"/>
<text text-anchor="middle" x="1283.7" y="-14.3" font-family="Times New Roman,serif" font-size="14.00">programme researcher</text>
</a>
</g>
</g>
<!-- 1&#45;&gt;13 -->
<g id="edge19" class="edge">
<title>1&#45;&gt;13</title>
<path fill="none" stroke="black" d="M559.79,-97.37C700.45,-87.56 961.56,-66.95 1182.7,-36 1190.92,-34.85 1199.51,-33.55 1208.05,-32.2"/>
<polygon fill="black" stroke="black" points="1208.72,-35.64 1218.04,-30.59 1207.61,-28.73 1208.72,-35.64"/>
<text text-anchor="middle" x="1039.2" y="-57.8" font-family="Times New Roman,serif" font-size="14.00">0.022</text>
</g>
<!-- 2&#45;&gt;1 -->
<g id="edge2" class="edge">
<title>2&#45;&gt;1</title>
<path fill="none" stroke="black" d="M64.58,-30.7C92.19,-42.22 136.66,-59.45 176.7,-69 232.18,-82.23 295.09,-90.66 347.3,-95.92"/>
<polygon fill="black" stroke="black" points="346.96,-99.4 357.25,-96.9 347.64,-92.44 346.96,-99.4"/>
<text text-anchor="middle" x="192.2" y="-57.8" font-family="Times New Roman,serif" font-size="14.00">0.081</text>
</g>
<!-- 3&#45;&gt;1 -->
<g id="edge3" class="edge">
<title>3&#45;&gt;1</title>
<path fill="none" stroke="black" d="M204.24,-32.47C236.66,-42.85 282.89,-57.34 323.7,-69 345.15,-75.13 368.66,-81.42 389.92,-86.94"/>
<polygon fill="black" stroke="black" points="389.27,-90.39 399.83,-89.5 391.02,-83.61 389.27,-90.39"/>
<text text-anchor="middle" x="339.2" y="-57.8" font-family="Times New Roman,serif" font-size="14.00">0.045</text>
</g>
<!-- 4&#45;&gt;1 -->
<g id="edge4" class="edge">
<title>4&#45;&gt;1</title>
<path fill="none" stroke="black" d="M375,-35.76C390.51,-48.56 412.07,-66.35 429.29,-80.56"/>
<polygon fill="black" stroke="black" points="427.41,-83.54 437.35,-87.21 431.86,-78.14 427.41,-83.54"/>
<text text-anchor="middle" x="428.2" y="-57.8" font-family="Times New Roman,serif" font-size="14.00">0.030</text>
</g>
<!-- 5&#45;&gt;1 -->
<g id="edge5" class="edge">
<title>5&#45;&gt;1</title>
<path fill="none" stroke="black" d="M545.06,-36.26C539.23,-46.67 530.77,-59.67 520.7,-69 515.27,-74.03 508.99,-78.6 502.54,-82.66"/>
<polygon fill="black" stroke="black" points="500.54,-79.78 493.7,-87.87 504.09,-85.81 500.54,-79.78"/>
<text text-anchor="middle" x="549.2" y="-57.8" font-family="Times New Roman,serif" font-size="14.00">0.020</text>
</g>
<!-- 6 -->
<g id="node7" class="node">
<title>6</title>
<g id="a_node7"><a xlink:href="clinical research associate.svg" xlink:title="clinical research associate">
<ellipse fill="none" stroke="black" cx="372.7" cy="-192" rx="103.98" ry="18"/>
<text text-anchor="middle" x="372.7" y="-188.3" font-family="Times New Roman,serif" font-size="14.00">clinical research associate</text>
</a>
</g>
</g>
<!-- 6&#45;&gt;1 -->
<g id="edge6" class="edge">
<title>6&#45;&gt;1</title>
<path fill="none" stroke="black" d="M389.49,-174.21C401.98,-161.72 419.22,-144.48 433.24,-130.46"/>
<polygon fill="black" stroke="black" points="436.05,-132.6 440.65,-123.05 431.1,-127.65 436.05,-132.6"/>
<text text-anchor="middle" x="436.2" y="-144.8" font-family="Times New Roman,serif" font-size="14.00">0.020</text>
</g>
<!-- 7 -->
<g id="node8" class="node">
<title>7</title>
<g id="a_node8"><a xlink:href="economist.svg" xlink:title="economist">
<ellipse fill="none" stroke="black" cx="542.7" cy="-192" rx="48.19" ry="18"/>
<text text-anchor="middle" x="542.7" y="-188.3" font-family="Times New Roman,serif" font-size="14.00">economist</text>
</a>
</g>
</g>
<!-- 7&#45;&gt;1 -->
<g id="edge7" class="edge">
<title>7&#45;&gt;1</title>
<path fill="none" stroke="black" d="M526.71,-175.01C514.1,-162.4 496.29,-144.6 481.93,-130.23"/>
<polygon fill="black" stroke="black" points="484.33,-127.68 474.78,-123.08 479.38,-132.63 484.33,-127.68"/>
<text text-anchor="middle" x="521.2" y="-144.8" font-family="Times New Roman,serif" font-size="14.00">0.020</text>
</g>
<!-- 8 -->
<g id="node9" class="node">
<title>8</title>
<g id="a_node9"><a xlink:href="office manager.svg" xlink:title="office manager">
<ellipse fill="none" stroke="black" cx="672.7" cy="-192" rx="64.19" ry="18"/>
<text text-anchor="middle" x="672.7" y="-188.3" font-family="Times New Roman,serif" font-size="14.00">office manager</text>
</a>
</g>
</g>
<!-- 8&#45;&gt;1 -->
<g id="edge8" class="edge">
<title>8&#45;&gt;1</title>
<path fill="none" stroke="black" d="M637.19,-176.96C601.82,-162.98 547.21,-141.39 507.51,-125.69"/>
<polygon fill="black" stroke="black" points="508.6,-122.36 498.01,-121.94 506.03,-128.87 508.6,-122.36"/>
<text text-anchor="middle" x="593.2" y="-144.8" font-family="Times New Roman,serif" font-size="14.00">0.020</text>
</g>
<!-- 9 -->
<g id="node10" class="node">
<title>9</title>
<g id="a_node10"><a xlink:href="biomedical scientist.svg" xlink:title="biomedical scientist">
<ellipse fill="none" stroke="black" cx="836.7" cy="-192" rx="81.79" ry="18"/>
<text text-anchor="middle" x="836.7" y="-188.3" font-family="Times New Roman,serif" font-size="14.00">biomedical scientist</text>
</a>
</g>
</g>
<!-- 9&#45;&gt;1 -->
<g id="edge9" class="edge">
<title>9&#45;&gt;1</title>
<path fill="none" stroke="black" d="M781.59,-178.64C715.21,-163.75 603.52,-138.71 530.21,-122.26"/>
<polygon fill="black" stroke="black" points="530.65,-118.77 520.13,-120 529.12,-125.61 530.65,-118.77"/>
<text text-anchor="middle" x="685.2" y="-144.8" font-family="Times New Roman,serif" font-size="14.00">0.015</text>
</g>
</g>
</svg>
