<?xml version="1.0" encoding="UTF-8" standalone="no"?>
<!DOCTYPE svg PUBLIC "-//W3C//DTD SVG 1.1//EN"
 "http://www.w3.org/Graphics/SVG/1.1/DTD/svg11.dtd">
<!-- Generated by graphviz version 2.44.1 (20200629.0800)
 -->
<!-- Title: test Pages: 1 -->
<svg width="1202pt" height="218pt"
 viewBox="0.00 0.00 1202.24 218.00" xmlns="http://www.w3.org/2000/svg" xmlns:xlink="http://www.w3.org/1999/xlink">
<g id="graph0" class="graph" transform="scale(1 1) rotate(0) translate(4 214)">
<title>test</title>
<polygon fill="white" stroke="transparent" points="-4,4 -4,-214 1198.24,-214 1198.24,4 -4,4"/>
<!-- 0 -->
<g id="node1" class="node">
<title>0</title>
<g id="a_node1"><a xlink:href="ux designer.svg" xlink:title="ux designer">
<ellipse fill="none" stroke="black" cx="219.95" cy="-192" rx="51.99" ry="18"/>
<text text-anchor="middle" x="219.95" y="-188.3" font-family="Times New Roman,serif" font-size="14.00">ux designer</text>
</a>
</g>
</g>
<!-- 1 -->
<g id="node2" class="node">
<title>1</title>
<g id="a_node2"><a xlink:href="graphic designer.svg" xlink:title="graphic designer">
<ellipse fill="none" stroke="black" cx="421.95" cy="-105" rx="70.39" ry="18"/>
<text text-anchor="middle" x="421.95" y="-101.3" font-family="Times New Roman,serif" font-size="14.00">graphic designer</text>
</a>
</g>
</g>
<!-- 0&#45;&gt;1 -->
<g id="edge1" class="edge">
<title>0&#45;&gt;1</title>
<path fill="none" stroke="black" d="M221.07,-173.75C222.72,-162.8 226.66,-149.21 235.95,-141 252.34,-126.52 301.98,-117.63 345.86,-112.44"/>
<polygon fill="black" stroke="black" points="346.45,-115.9 355.99,-111.29 345.66,-108.94 346.45,-115.9"/>
<text text-anchor="middle" x="251.45" y="-144.8" font-family="Times New Roman,serif" font-size="14.00">0.062</text>
</g>
<!-- 1&#45;&gt;0 -->
<g id="edge11" class="edge">
<title>1&#45;&gt;0</title>
<path fill="none" stroke="black" d="M387.04,-120.69C352.15,-135.37 298.51,-157.94 261.46,-173.53"/>
<polygon fill="black" stroke="black" points="259.81,-170.43 251.95,-177.53 262.53,-176.88 259.81,-170.43"/>
<text text-anchor="middle" x="349.45" y="-144.8" font-family="Times New Roman,serif" font-size="14.00">0.164</text>
</g>
<!-- 1&#45;&gt;1 -->
<g id="edge10" class="edge">
<title>1&#45;&gt;1</title>
<path fill="none" stroke="black" d="M485.76,-112.66C499.87,-111.94 510.14,-109.39 510.14,-105 510.14,-101.74 504.48,-99.5 495.8,-98.26"/>
<polygon fill="black" stroke="black" points="496.04,-94.77 485.76,-97.34 495.4,-101.74 496.04,-94.77"/>
<text text-anchor="middle" x="525.64" y="-101.3" font-family="Times New Roman,serif" font-size="14.00">0.434</text>
</g>
<!-- 2 -->
<g id="node3" class="node">
<title>2</title>
<g id="a_node3"><a xlink:href="set designer.svg" xlink:title="set designer">
<ellipse fill="none" stroke="black" cx="53.95" cy="-18" rx="53.89" ry="18"/>
<text text-anchor="middle" x="53.95" y="-14.3" font-family="Times New Roman,serif" font-size="14.00">set designer</text>
</a>
</g>
</g>
<!-- 1&#45;&gt;2 -->
<g id="edge14" class="edge">
<title>1&#45;&gt;2</title>
<path fill="none" stroke="black" d="M352.2,-102.56C269.92,-99.81 138.9,-91.89 95.95,-69 85.22,-63.29 76.11,-53.59 69.15,-44.25"/>
<polygon fill="black" stroke="black" points="71.94,-42.13 63.37,-35.9 66.18,-46.11 71.94,-42.13"/>
<text text-anchor="middle" x="111.45" y="-57.8" font-family="Times New Roman,serif" font-size="14.00">0.065</text>
</g>
<!-- 5 -->
<g id="node6" class="node">
<title>5</title>
<g id="a_node6"><a xlink:href="it consultant.svg" xlink:title="it consultant">
<ellipse fill="none" stroke="black" cx="180.95" cy="-18" rx="54.69" ry="18"/>
<text text-anchor="middle" x="180.95" y="-14.3" font-family="Times New Roman,serif" font-size="14.00">it consultant</text>
</a>
</g>
</g>
<!-- 1&#45;&gt;5 -->
<g id="edge15" class="edge">
<title>1&#45;&gt;5</title>
<path fill="none" stroke="black" d="M352.43,-101.79C314.1,-98.09 266.75,-89.29 228.95,-69 217.63,-62.93 207.4,-53.23 199.33,-43.98"/>
<polygon fill="black" stroke="black" points="201.87,-41.56 192.81,-36.07 196.47,-46.01 201.87,-41.56"/>
<text text-anchor="middle" x="244.45" y="-57.8" font-family="Times New Roman,serif" font-size="14.00">0.032</text>
</g>
<!-- 6 -->
<g id="node7" class="node">
<title>6</title>
<g id="a_node7"><a xlink:href="production manager.svg" xlink:title="production manager">
<ellipse fill="none" stroke="black" cx="336.95" cy="-18" rx="83.39" ry="18"/>
<text text-anchor="middle" x="336.95" y="-14.3" font-family="Times New Roman,serif" font-size="14.00">production manager</text>
</a>
</g>
</g>
<!-- 1&#45;&gt;6 -->
<g id="edge12" class="edge">
<title>1&#45;&gt;6</title>
<path fill="none" stroke="black" d="M371.2,-92.41C359.11,-87.23 347.52,-79.76 339.95,-69 335.35,-62.47 333.66,-54.2 333.39,-46.27"/>
<polygon fill="black" stroke="black" points="336.89,-46.33 333.72,-36.22 329.89,-46.1 336.89,-46.33"/>
<text text-anchor="middle" x="355.45" y="-57.8" font-family="Times New Roman,serif" font-size="14.00">0.078</text>
</g>
<!-- 7 -->
<g id="node8" class="node">
<title>7</title>
<g id="a_node8"><a xlink:href="project manager.svg" xlink:title="project manager">
<ellipse fill="none" stroke="black" cx="506.95" cy="-18" rx="68.79" ry="18"/>
<text text-anchor="middle" x="506.95" y="-14.3" font-family="Times New Roman,serif" font-size="14.00">project manager</text>
</a>
</g>
</g>
<!-- 1&#45;&gt;7 -->
<g id="edge13" class="edge">
<title>1&#45;&gt;7</title>
<path fill="none" stroke="black" d="M428.09,-86.78C432.44,-76.38 439.07,-63.38 447.95,-54 453.06,-48.59 459.21,-43.73 465.56,-39.48"/>
<polygon fill="black" stroke="black" points="467.64,-42.31 474.29,-34.06 463.95,-36.36 467.64,-42.31"/>
<text text-anchor="middle" x="463.45" y="-57.8" font-family="Times New Roman,serif" font-size="14.00">0.078</text>
</g>
<!-- 10 -->
<g id="node11" class="node">
<title>10</title>
<g id="a_node11"><a xlink:href="software developer.svg" xlink:title="software developer">
<ellipse fill="none" stroke="black" cx="673.95" cy="-18" rx="79.89" ry="18"/>
<text text-anchor="middle" x="673.95" y="-14.3" font-family="Times New Roman,serif" font-size="14.00">software developer</text>
</a>
</g>
</g>
<!-- 1&#45;&gt;10 -->
<g id="edge16" class="edge">
<title>1&#45;&gt;10</title>
<path fill="none" stroke="black" d="M463.92,-90.44C483.68,-84.02 507.55,-76.19 528.95,-69 560.22,-58.49 595.18,-46.45 622.94,-36.81"/>
<polygon fill="black" stroke="black" points="624.14,-40.1 632.44,-33.51 621.85,-33.48 624.14,-40.1"/>
<text text-anchor="middle" x="587.45" y="-57.8" font-family="Times New Roman,serif" font-size="14.00">0.032</text>
</g>
<!-- 11 -->
<g id="node12" class="node">
<title>11</title>
<g id="a_node12"><a xlink:href="industrial designer.svg" xlink:title="industrial designer">
<ellipse fill="none" stroke="black" cx="847.95" cy="-18" rx="76.09" ry="18"/>
<text text-anchor="middle" x="847.95" y="-14.3" font-family="Times New Roman,serif" font-size="14.00">industrial designer</text>
</a>
</g>
</g>
<!-- 1&#45;&gt;11 -->
<g id="edge17" class="edge">
<title>1&#45;&gt;11</title>
<path fill="none" stroke="black" d="M477.04,-93.84C513.85,-86.99 563.34,-77.65 606.95,-69 666.82,-57.13 734.91,-42.94 783.4,-32.71"/>
<polygon fill="black" stroke="black" points="784.38,-36.08 793.44,-30.59 782.94,-29.23 784.38,-36.08"/>
<text text-anchor="middle" x="694.45" y="-57.8" font-family="Times New Roman,serif" font-size="14.00">0.026</text>
</g>
<!-- 12 -->
<g id="node13" class="node">
<title>12</title>
<g id="a_node13"><a xlink:href="lecturer.svg" xlink:title="lecturer">
<ellipse fill="none" stroke="black" cx="979.95" cy="-18" rx="37.89" ry="18"/>
<text text-anchor="middle" x="979.95" y="-14.3" font-family="Times New Roman,serif" font-size="14.00">lecturer</text>
</a>
</g>
</g>
<!-- 1&#45;&gt;12 -->
<g id="edge18" class="edge">
<title>1&#45;&gt;12</title>
<path fill="none" stroke="black" d="M489.44,-100.02C588.12,-93.08 777.01,-75.54 932.95,-36 935.96,-35.24 939.05,-34.35 942.14,-33.4"/>
<polygon fill="black" stroke="black" points="943.5,-36.63 951.89,-30.17 941.3,-29.99 943.5,-36.63"/>
<text text-anchor="middle" x="865.45" y="-57.8" font-family="Times New Roman,serif" font-size="14.00">0.026</text>
</g>
<!-- 13 -->
<g id="node14" class="node">
<title>13</title>
<g id="a_node14"><a xlink:href="marketing assistant.svg" xlink:title="marketing assistant">
<ellipse fill="none" stroke="black" cx="1114.95" cy="-18" rx="79.09" ry="18"/>
<text text-anchor="middle" x="1114.95" y="-14.3" font-family="Times New Roman,serif" font-size="14.00">marketing assistant</text>
</a>
</g>
</g>
<!-- 1&#45;&gt;13 -->
<g id="edge19" class="edge">
<title>1&#45;&gt;13</title>
<path fill="none" stroke="black" d="M491.3,-101.76C582.13,-98.13 746.15,-89.23 884.95,-69 943.15,-60.52 1008.61,-45.77 1054.77,-34.48"/>
<polygon fill="black" stroke="black" points="1055.74,-37.84 1064.61,-32.05 1054.06,-31.05 1055.74,-37.84"/>
<text text-anchor="middle" x="982.45" y="-57.8" font-family="Times New Roman,serif" font-size="14.00">0.026</text>
</g>
<!-- 2&#45;&gt;1 -->
<g id="edge2" class="edge">
<title>2&#45;&gt;1</title>
<path fill="none" stroke="black" d="M83.05,-33.46C107.12,-44.82 142.49,-60.15 174.95,-69 231.04,-84.3 296.23,-93.18 345.55,-98.16"/>
<polygon fill="black" stroke="black" points="345.21,-101.65 355.51,-99.14 345.89,-94.68 345.21,-101.65"/>
<text text-anchor="middle" x="190.45" y="-57.8" font-family="Times New Roman,serif" font-size="14.00">0.052</text>
</g>
<!-- 3 -->
<g id="node4" class="node">
<title>3</title>
<g id="a_node4"><a xlink:href="web designer.svg" xlink:title="web designer">
<ellipse fill="none" stroke="black" cx="347.95" cy="-192" rx="58.49" ry="18"/>
<text text-anchor="middle" x="347.95" y="-188.3" font-family="Times New Roman,serif" font-size="14.00">web designer</text>
</a>
</g>
</g>
<!-- 3&#45;&gt;1 -->
<g id="edge3" class="edge">
<title>3&#45;&gt;1</title>
<path fill="none" stroke="black" d="M362.57,-174.21C373.41,-161.75 388.36,-144.57 400.55,-130.57"/>
<polygon fill="black" stroke="black" points="403.43,-132.6 407.36,-122.76 398.15,-128 403.43,-132.6"/>
<text text-anchor="middle" x="405.45" y="-144.8" font-family="Times New Roman,serif" font-size="14.00">0.052</text>
</g>
<!-- 4 -->
<g id="node5" class="node">
<title>4</title>
<g id="a_node5"><a xlink:href="heritage manager.svg" xlink:title="heritage manager">
<ellipse fill="none" stroke="black" cx="495.95" cy="-192" rx="71.49" ry="18"/>
<text text-anchor="middle" x="495.95" y="-188.3" font-family="Times New Roman,serif" font-size="14.00">heritage manager</text>
</a>
</g>
</g>
<!-- 4&#45;&gt;1 -->
<g id="edge4" class="edge">
<title>4&#45;&gt;1</title>
<path fill="none" stroke="black" d="M481.33,-174.21C470.48,-161.75 455.53,-144.57 443.34,-130.57"/>
<polygon fill="black" stroke="black" points="445.74,-128 436.53,-122.76 440.46,-132.6 445.74,-128"/>
<text text-anchor="middle" x="479.45" y="-144.8" font-family="Times New Roman,serif" font-size="14.00">0.026</text>
</g>
<!-- 5&#45;&gt;1 -->
<g id="edge5" class="edge">
<title>5&#45;&gt;1</title>
<path fill="none" stroke="black" d="M211.38,-32.96C235.19,-43.6 269.3,-58.21 299.95,-69 320.75,-76.33 343.95,-83.28 364.47,-89.02"/>
<polygon fill="black" stroke="black" points="363.75,-92.45 374.32,-91.74 365.61,-85.71 363.75,-92.45"/>
<text text-anchor="middle" x="315.45" y="-57.8" font-family="Times New Roman,serif" font-size="14.00">0.026</text>
</g>
<!-- 6&#45;&gt;1 -->
<g id="edge6" class="edge">
<title>6&#45;&gt;1</title>
<path fill="none" stroke="black" d="M353.7,-35.76C366.27,-48.32 383.65,-65.7 397.72,-79.78"/>
<polygon fill="black" stroke="black" points="395.61,-82.61 405.15,-87.21 400.56,-77.66 395.61,-82.61"/>
<text text-anchor="middle" x="400.45" y="-57.8" font-family="Times New Roman,serif" font-size="14.00">0.026</text>
</g>
<!-- 7&#45;&gt;1 -->
<g id="edge7" class="edge">
<title>7&#45;&gt;1</title>
<path fill="none" stroke="black" d="M501.6,-36.27C497.71,-46.69 491.6,-59.69 482.95,-69 477.8,-74.53 471.58,-79.44 465.11,-83.69"/>
<polygon fill="black" stroke="black" points="462.93,-80.92 456.19,-89.09 466.56,-86.9 462.93,-80.92"/>
<text text-anchor="middle" x="509.45" y="-57.8" font-family="Times New Roman,serif" font-size="14.00">0.020</text>
</g>
<!-- 8 -->
<g id="node9" class="node">
<title>8</title>
<g id="a_node9"><a xlink:href="animator.svg" xlink:title="animator">
<ellipse fill="none" stroke="black" cx="627.95" cy="-192" rx="42.49" ry="18"/>
<text text-anchor="middle" x="627.95" y="-188.3" font-family="Times New Roman,serif" font-size="14.00">animator</text>
</a>
</g>
</g>
<!-- 8&#45;&gt;1 -->
<g id="edge8" class="edge">
<title>8&#45;&gt;1</title>
<path fill="none" stroke="black" d="M598.43,-178.82C563.93,-164.58 506.47,-140.88 466.52,-124.39"/>
<polygon fill="black" stroke="black" points="467.85,-121.16 457.28,-120.58 465.18,-127.63 467.85,-121.16"/>
<text text-anchor="middle" x="552.45" y="-144.8" font-family="Times New Roman,serif" font-size="14.00">0.015</text>
</g>
<!-- 9 -->
<g id="node10" class="node">
<title>9</title>
<g id="a_node10"><a xlink:href="education administrator.svg" xlink:title="education administrator">
<ellipse fill="none" stroke="black" cx="783.95" cy="-192" rx="95.58" ry="18"/>
<text text-anchor="middle" x="783.95" y="-188.3" font-family="Times New Roman,serif" font-size="14.00">education administrator</text>
</a>
</g>
</g>
<!-- 9&#45;&gt;1 -->
<g id="edge9" class="edge">
<title>9&#45;&gt;1</title>
<path fill="none" stroke="black" d="M726.82,-177.49C684.15,-167.41 624.41,-153.31 571.95,-141 542.27,-134.04 509.27,-126.34 481.81,-119.93"/>
<polygon fill="black" stroke="black" points="482.49,-116.5 471.95,-117.64 480.9,-123.32 482.49,-116.5"/>
<text text-anchor="middle" x="645.45" y="-144.8" font-family="Times New Roman,serif" font-size="14.00">0.015</text>
</g>
</g>
</svg>
