<?xml version="1.0" encoding="UTF-8" standalone="no"?>
<!DOCTYPE svg PUBLIC "-//W3C//DTD SVG 1.1//EN"
 "http://www.w3.org/Graphics/SVG/1.1/DTD/svg11.dtd">
<!-- Generated by graphviz version 2.44.1 (20200629.0800)
 -->
<!-- Title: test Pages: 1 -->
<svg width="1456pt" height="218pt"
 viewBox="0.00 0.00 1455.63 218.00" xmlns="http://www.w3.org/2000/svg" xmlns:xlink="http://www.w3.org/1999/xlink">
<g id="graph0" class="graph" transform="scale(1 1) rotate(0) translate(4 214)">
<title>test</title>
<polygon fill="white" stroke="transparent" points="-4,4 -4,-214 1451.63,-214 1451.63,4 -4,4"/>
<!-- 0 -->
<g id="node1" class="node">
<title>0</title>
<g id="a_node1"><a xlink:href="health and safety inspector.svg" xlink:title="health and safety inspector">
<ellipse fill="none" stroke="black" cx="262.6" cy="-192" rx="107.48" ry="18"/>
<text text-anchor="middle" x="262.6" y="-188.3" font-family="Times New Roman,serif" font-size="14.00">health and safety inspector</text>
</a>
</g>
</g>
<!-- 1 -->
<g id="node2" class="node">
<title>1</title>
<g id="a_node2"><a xlink:href="health and safety adviser.svg" xlink:title="health and safety adviser">
<ellipse fill="none" stroke="black" cx="525.6" cy="-105" rx="99.38" ry="18"/>
<text text-anchor="middle" x="525.6" y="-101.3" font-family="Times New Roman,serif" font-size="14.00">health and safety adviser</text>
</a>
</g>
</g>
<!-- 0&#45;&gt;1 -->
<g id="edge1" class="edge">
<title>0&#45;&gt;1</title>
<path fill="none" stroke="black" d="M278.95,-174.2C290.84,-163.01 307.89,-148.95 325.6,-141 356.27,-127.23 391.85,-118.86 424.42,-113.78"/>
<polygon fill="black" stroke="black" points="425.04,-117.23 434.42,-112.31 424.02,-110.3 425.04,-117.23"/>
<text text-anchor="middle" x="341.1" y="-144.8" font-family="Times New Roman,serif" font-size="14.00">0.040</text>
</g>
<!-- 1&#45;&gt;0 -->
<g id="edge14" class="edge">
<title>1&#45;&gt;0</title>
<path fill="none" stroke="black" d="M478.98,-121.06C434.34,-135.49 366.89,-157.29 319.18,-172.71"/>
<polygon fill="black" stroke="black" points="318.05,-169.4 309.61,-175.8 320.21,-176.06 318.05,-169.4"/>
<text text-anchor="middle" x="426.1" y="-144.8" font-family="Times New Roman,serif" font-size="14.00">0.038</text>
</g>
<!-- 1&#45;&gt;1 -->
<g id="edge10" class="edge">
<title>1&#45;&gt;1</title>
<path fill="none" stroke="black" d="M616.69,-112.35C632.25,-111.35 643.04,-108.9 643.04,-105 643.04,-102.02 636.72,-99.88 626.77,-98.59"/>
<polygon fill="black" stroke="black" points="626.98,-95.1 616.69,-97.65 626.32,-102.07 626.98,-95.1"/>
<text text-anchor="middle" x="658.54" y="-101.3" font-family="Times New Roman,serif" font-size="14.00">0.092</text>
</g>
<!-- 2 -->
<g id="node3" class="node">
<title>2</title>
<g id="a_node3"><a xlink:href="it consultant.svg" xlink:title="it consultant">
<ellipse fill="none" stroke="black" cx="54.6" cy="-18" rx="54.69" ry="18"/>
<text text-anchor="middle" x="54.6" y="-14.3" font-family="Times New Roman,serif" font-size="14.00">it consultant</text>
</a>
</g>
</g>
<!-- 1&#45;&gt;2 -->
<g id="edge12" class="edge">
<title>1&#45;&gt;2</title>
<path fill="none" stroke="black" d="M430.63,-99.46C336.6,-94.19 199.53,-84.24 148.6,-69 126.58,-62.41 103.78,-50.43 86.14,-39.85"/>
<polygon fill="black" stroke="black" points="87.78,-36.74 77.43,-34.48 84.1,-42.7 87.78,-36.74"/>
<text text-anchor="middle" x="164.1" y="-57.8" font-family="Times New Roman,serif" font-size="14.00">0.053</text>
</g>
<!-- 3 -->
<g id="node4" class="node">
<title>3</title>
<g id="a_node4"><a xlink:href="pharmacovigilance officer.svg" xlink:title="pharmacovigilance officer">
<ellipse fill="none" stroke="black" cx="231.6" cy="-18" rx="104.78" ry="18"/>
<text text-anchor="middle" x="231.6" y="-14.3" font-family="Times New Roman,serif" font-size="14.00">pharmacovigilance officer</text>
</a>
</g>
</g>
<!-- 1&#45;&gt;3 -->
<g id="edge11" class="edge">
<title>1&#45;&gt;3</title>
<path fill="none" stroke="black" d="M434.45,-97.8C394.79,-92.95 348.39,-84.34 308.6,-69 291.48,-62.4 274.18,-51.63 260.34,-41.77"/>
<polygon fill="black" stroke="black" points="262.32,-38.89 252.19,-35.79 258.18,-44.53 262.32,-38.89"/>
<text text-anchor="middle" x="324.1" y="-57.8" font-family="Times New Roman,serif" font-size="14.00">0.069</text>
</g>
<!-- 6 -->
<g id="node7" class="node">
<title>6</title>
<g id="a_node7"><a xlink:href="project manager.svg" xlink:title="project manager">
<ellipse fill="none" stroke="black" cx="423.6" cy="-18" rx="68.79" ry="18"/>
<text text-anchor="middle" x="423.6" y="-14.3" font-family="Times New Roman,serif" font-size="14.00">project manager</text>
</a>
</g>
</g>
<!-- 1&#45;&gt;6 -->
<g id="edge13" class="edge">
<title>1&#45;&gt;6</title>
<path fill="none" stroke="black" d="M464.6,-90.72C452.9,-85.65 441.76,-78.65 433.6,-69 428.21,-62.63 425.43,-54.18 424.07,-46.04"/>
<polygon fill="black" stroke="black" points="427.55,-45.65 423.02,-36.07 420.59,-46.39 427.55,-45.65"/>
<text text-anchor="middle" x="449.1" y="-57.8" font-family="Times New Roman,serif" font-size="14.00">0.046</text>
</g>
<!-- 7 -->
<g id="node8" class="node">
<title>7</title>
<g id="a_node8"><a xlink:href="environmental health officer.svg" xlink:title="environmental health officer">
<ellipse fill="none" stroke="black" cx="620.6" cy="-18" rx="110.48" ry="18"/>
<text text-anchor="middle" x="620.6" y="-14.3" font-family="Times New Roman,serif" font-size="14.00">environmental health officer</text>
</a>
</g>
</g>
<!-- 1&#45;&gt;7 -->
<g id="edge17" class="edge">
<title>1&#45;&gt;7</title>
<path fill="none" stroke="black" d="M532.31,-86.61C537.02,-76.16 544.17,-63.15 553.6,-54 558.97,-48.78 565.27,-44.15 571.83,-40.11"/>
<polygon fill="black" stroke="black" points="573.91,-42.95 580.86,-34.95 570.44,-36.87 573.91,-42.95"/>
<text text-anchor="middle" x="569.1" y="-57.8" font-family="Times New Roman,serif" font-size="14.00">0.030</text>
</g>
<!-- 10 -->
<g id="node11" class="node">
<title>10</title>
<g id="a_node11"><a xlink:href="lecturer.svg" xlink:title="lecturer">
<ellipse fill="none" stroke="black" cx="786.6" cy="-18" rx="37.89" ry="18"/>
<text text-anchor="middle" x="786.6" y="-14.3" font-family="Times New Roman,serif" font-size="14.00">lecturer</text>
</a>
</g>
</g>
<!-- 1&#45;&gt;10 -->
<g id="edge15" class="edge">
<title>1&#45;&gt;10</title>
<path fill="none" stroke="black" d="M574.23,-89.18C617.73,-75.78 683.14,-55.25 739.6,-36 742.33,-35.07 745.15,-34.09 747.98,-33.1"/>
<polygon fill="black" stroke="black" points="749.32,-36.33 757.57,-29.69 746.98,-29.74 749.32,-36.33"/>
<text text-anchor="middle" x="696.1" y="-57.8" font-family="Times New Roman,serif" font-size="14.00">0.038</text>
</g>
<!-- 11 -->
<g id="node12" class="node">
<title>11</title>
<g id="a_node12"><a xlink:href="education administrator.svg" xlink:title="education administrator">
<ellipse fill="none" stroke="black" cx="937.6" cy="-18" rx="95.58" ry="18"/>
<text text-anchor="middle" x="937.6" y="-14.3" font-family="Times New Roman,serif" font-size="14.00">education administrator</text>
</a>
</g>
</g>
<!-- 1&#45;&gt;11 -->
<g id="edge16" class="edge">
<title>1&#45;&gt;11</title>
<path fill="none" stroke="black" d="M594.76,-91.93C630.84,-85.47 675.67,-77.17 715.6,-69 767.84,-58.31 826.71,-44.99 870.7,-34.79"/>
<polygon fill="black" stroke="black" points="871.75,-38.14 880.69,-32.46 870.16,-31.32 871.75,-38.14"/>
<text text-anchor="middle" x="798.1" y="-57.8" font-family="Times New Roman,serif" font-size="14.00">0.030</text>
</g>
<!-- 12 -->
<g id="node13" class="node">
<title>12</title>
<g id="a_node13"><a xlink:href="sales manager.svg" xlink:title="sales manager">
<ellipse fill="none" stroke="black" cx="1112.6" cy="-18" rx="61.19" ry="18"/>
<text text-anchor="middle" x="1112.6" y="-14.3" font-family="Times New Roman,serif" font-size="14.00">sales manager</text>
</a>
</g>
</g>
<!-- 1&#45;&gt;12 -->
<g id="edge18" class="edge">
<title>1&#45;&gt;12</title>
<path fill="none" stroke="black" d="M611.65,-95.94C714.68,-85.53 892.19,-65.23 1042.6,-36 1047.68,-35.01 1052.96,-33.9 1058.22,-32.72"/>
<polygon fill="black" stroke="black" points="1059.33,-36.06 1068.29,-30.41 1057.77,-29.24 1059.33,-36.06"/>
<text text-anchor="middle" x="945.1" y="-57.8" font-family="Times New Roman,serif" font-size="14.00">0.030</text>
</g>
<!-- 13 -->
<g id="node14" class="node">
<title>13</title>
<g id="a_node14"><a xlink:href="training and development officer.svg" xlink:title="training and development officer">
<ellipse fill="none" stroke="black" cx="1319.6" cy="-18" rx="128.08" ry="18"/>
<text text-anchor="middle" x="1319.6" y="-14.3" font-family="Times New Roman,serif" font-size="14.00">training and development officer</text>
</a>
</g>
</g>
<!-- 1&#45;&gt;13 -->
<g id="edge19" class="edge">
<title>1&#45;&gt;13</title>
<path fill="none" stroke="black" d="M618.24,-98.24C707.2,-92.33 845.28,-82.15 964.6,-69 1054.41,-59.1 1156.52,-44.35 1228.1,-33.44"/>
<polygon fill="black" stroke="black" points="1228.64,-36.89 1237.99,-31.92 1227.58,-29.97 1228.64,-36.89"/>
<text text-anchor="middle" x="1097.1" y="-57.8" font-family="Times New Roman,serif" font-size="14.00">0.030</text>
</g>
<!-- 2&#45;&gt;1 -->
<g id="edge2" class="edge">
<title>2&#45;&gt;1</title>
<path fill="none" stroke="black" d="M95.25,-30.03C102.68,-32.03 110.37,-34.09 117.6,-36 173.97,-50.93 187.32,-58.04 244.6,-69 305.39,-80.63 374.36,-89.29 428.76,-95.08"/>
<polygon fill="black" stroke="black" points="428.43,-98.57 438.74,-96.13 429.16,-91.61 428.43,-98.57"/>
<text text-anchor="middle" x="260.1" y="-57.8" font-family="Times New Roman,serif" font-size="14.00">0.040</text>
</g>
<!-- 3&#45;&gt;1 -->
<g id="edge3" class="edge">
<title>3&#45;&gt;1</title>
<path fill="none" stroke="black" d="M278.33,-34.25C310.14,-44.47 353.27,-58.01 391.6,-69 413.74,-75.35 438.09,-81.85 459.88,-87.5"/>
<polygon fill="black" stroke="black" points="459.13,-90.92 469.69,-90.03 460.88,-84.14 459.13,-90.92"/>
<text text-anchor="middle" x="407.1" y="-57.8" font-family="Times New Roman,serif" font-size="14.00">0.040</text>
</g>
<!-- 4 -->
<g id="node5" class="node">
<title>4</title>
<g id="a_node5"><a xlink:href="careers adviser.svg" xlink:title="careers adviser">
<ellipse fill="none" stroke="black" cx="452.6" cy="-192" rx="64.99" ry="18"/>
<text text-anchor="middle" x="452.6" y="-188.3" font-family="Times New Roman,serif" font-size="14.00">careers adviser</text>
</a>
</g>
</g>
<!-- 4&#45;&gt;1 -->
<g id="edge4" class="edge">
<title>4&#45;&gt;1</title>
<path fill="none" stroke="black" d="M467.02,-174.21C477.65,-161.83 492.28,-144.8 504.26,-130.85"/>
<polygon fill="black" stroke="black" points="507.09,-132.92 510.95,-123.05 501.78,-128.36 507.09,-132.92"/>
<text text-anchor="middle" x="509.1" y="-144.8" font-family="Times New Roman,serif" font-size="14.00">0.028</text>
</g>
<!-- 5 -->
<g id="node6" class="node">
<title>5</title>
<g id="a_node6"><a xlink:href="office manager.svg" xlink:title="office manager">
<ellipse fill="none" stroke="black" cx="599.6" cy="-192" rx="64.19" ry="18"/>
<text text-anchor="middle" x="599.6" y="-188.3" font-family="Times New Roman,serif" font-size="14.00">office manager</text>
</a>
</g>
</g>
<!-- 5&#45;&gt;1 -->
<g id="edge5" class="edge">
<title>5&#45;&gt;1</title>
<path fill="none" stroke="black" d="M584.98,-174.21C574.2,-161.83 559.37,-144.8 547.23,-130.85"/>
<polygon fill="black" stroke="black" points="549.64,-128.29 540.44,-123.05 544.36,-132.89 549.64,-128.29"/>
<text text-anchor="middle" x="583.1" y="-144.8" font-family="Times New Roman,serif" font-size="14.00">0.028</text>
</g>
<!-- 6&#45;&gt;1 -->
<g id="edge6" class="edge">
<title>6&#45;&gt;1</title>
<path fill="none" stroke="black" d="M443.36,-35.47C458.72,-48.27 480.24,-66.2 497.41,-80.51"/>
<polygon fill="black" stroke="black" points="495.52,-83.49 505.44,-87.21 500,-78.12 495.52,-83.49"/>
<text text-anchor="middle" x="497.1" y="-57.8" font-family="Times New Roman,serif" font-size="14.00">0.028</text>
</g>
<!-- 7&#45;&gt;1 -->
<g id="edge7" class="edge">
<title>7&#45;&gt;1</title>
<path fill="none" stroke="black" d="M612.32,-36.27C606.71,-46.68 598.51,-59.68 588.6,-69 583.14,-74.12 576.8,-78.77 570.28,-82.87"/>
<polygon fill="black" stroke="black" points="568.18,-80.04 561.34,-88.12 571.73,-86.07 568.18,-80.04"/>
<text text-anchor="middle" x="617.1" y="-57.8" font-family="Times New Roman,serif" font-size="14.00">0.022</text>
</g>
<!-- 8 -->
<g id="node9" class="node">
<title>8</title>
<g id="a_node9"><a xlink:href="facilities manager.svg" xlink:title="facilities manager">
<ellipse fill="none" stroke="black" cx="754.6" cy="-192" rx="72.59" ry="18"/>
<text text-anchor="middle" x="754.6" y="-188.3" font-family="Times New Roman,serif" font-size="14.00">facilities manager</text>
</a>
</g>
</g>
<!-- 8&#45;&gt;1 -->
<g id="edge8" class="edge">
<title>8&#45;&gt;1</title>
<path fill="none" stroke="black" d="M716.01,-176.68C677.69,-162.46 618.74,-140.57 576.58,-124.93"/>
<polygon fill="black" stroke="black" points="577.65,-121.59 567.05,-121.39 575.21,-128.15 577.65,-121.59"/>
<text text-anchor="middle" x="670.1" y="-144.8" font-family="Times New Roman,serif" font-size="14.00">0.022</text>
</g>
<!-- 9 -->
<g id="node10" class="node">
<title>9</title>
<g id="a_node10"><a xlink:href="human resources officer.svg" xlink:title="human resources officer">
<ellipse fill="none" stroke="black" cx="944.6" cy="-192" rx="98.58" ry="18"/>
<text text-anchor="middle" x="944.6" y="-188.3" font-family="Times New Roman,serif" font-size="14.00">human resources officer</text>
</a>
</g>
</g>
<!-- 9&#45;&gt;1 -->
<g id="edge9" class="edge">
<title>9&#45;&gt;1</title>
<path fill="none" stroke="black" d="M880.96,-178.09C805.22,-162.72 678.98,-137.12 599.13,-120.92"/>
<polygon fill="black" stroke="black" points="599.64,-117.45 589.14,-118.89 598.25,-124.31 599.64,-117.45"/>
<text text-anchor="middle" x="775.1" y="-144.8" font-family="Times New Roman,serif" font-size="14.00">0.022</text>
</g>
</g>
</svg>
