<?xml version="1.0" encoding="UTF-8" standalone="no"?>
<!DOCTYPE svg PUBLIC "-//W3C//DTD SVG 1.1//EN"
 "http://www.w3.org/Graphics/SVG/1.1/DTD/svg11.dtd">
<!-- Generated by graphviz version 2.44.1 (20200629.0800)
 -->
<!-- Title: health_and_safety_adviser Pages: 1 -->
<svg width="1330pt" height="218pt"
 viewBox="0.00 0.00 1329.69 218.00" xmlns="http://www.w3.org/2000/svg" xmlns:xlink="http://www.w3.org/1999/xlink">
<g id="graph0" class="graph" transform="scale(1 1) rotate(0) translate(4 214)">
<title>health_and_safety_adviser</title>
<polygon fill="white" stroke="transparent" points="-4,4 -4,-214 1325.69,-214 1325.69,4 -4,4"/>
<!-- 0 -->
<g id="node1" class="node">
<title>0</title>
<g id="a_node1"><a xlink:href="health and safety inspector.svg" xlink:title="health and safety inspector">
<ellipse fill="none" stroke="black" cx="337.6" cy="-192" rx="107.48" ry="18"/>
<text text-anchor="middle" x="337.6" y="-188.3" font-family="Times New Roman,serif" font-size="14.00">health and safety inspector</text>
</a>
</g>
</g>
<!-- 1 -->
<g id="node2" class="node">
<title>1</title>
<g id="a_node2"><a xlink:href="health and safety adviser.svg" xlink:title="health and safety adviser">
<ellipse fill="none" stroke="black" cx="527.6" cy="-105" rx="99.38" ry="18"/>
<text text-anchor="middle" x="527.6" y="-101.3" font-family="Times New Roman,serif" font-size="14.00">health and safety adviser</text>
</a>
</g>
</g>
<!-- 0&#45;&gt;1 -->
<g id="edge1" class="edge">
<title>0&#45;&gt;1</title>
<path fill="none" stroke="black" d="M354.98,-174.01C366.94,-163.17 383.66,-149.6 400.6,-141 416.77,-132.79 435.11,-126.3 452.72,-121.27"/>
<polygon fill="black" stroke="black" points="453.7,-124.63 462.42,-118.61 451.85,-117.88 453.7,-124.63"/>
<text text-anchor="middle" x="416.1" y="-144.8" font-family="Times New Roman,serif" font-size="14.00">0.041</text>
</g>
<!-- 1&#45;&gt;0 -->
<g id="edge14" class="edge">
<title>1&#45;&gt;0</title>
<path fill="none" stroke="black" d="M498.65,-122.27C479.83,-132.55 454.6,-145.77 431.6,-156 418.92,-161.64 405.03,-167.15 391.91,-172.08"/>
<polygon fill="black" stroke="black" points="390.68,-168.8 382.52,-175.56 393.11,-175.37 390.68,-168.8"/>
<text text-anchor="middle" x="477.1" y="-144.8" font-family="Times New Roman,serif" font-size="14.00">0.039</text>
</g>
<!-- 1&#45;&gt;1 -->
<g id="edge10" class="edge">
<title>1&#45;&gt;1</title>
<path fill="none" stroke="black" d="M618.69,-112.35C634.25,-111.35 645.04,-108.9 645.04,-105 645.04,-102.02 638.72,-99.88 628.77,-98.59"/>
<polygon fill="black" stroke="black" points="628.98,-95.1 618.69,-97.65 628.32,-102.07 628.98,-95.1"/>
<text text-anchor="middle" x="660.54" y="-101.3" font-family="Times New Roman,serif" font-size="14.00">0.093</text>
</g>
<!-- 2 -->
<g id="node3" class="node">
<title>2</title>
<g id="a_node3"><a xlink:href="it consultant.svg" xlink:title="it consultant">
<ellipse fill="none" stroke="black" cx="54.6" cy="-18" rx="54.69" ry="18"/>
<text text-anchor="middle" x="54.6" y="-14.3" font-family="Times New Roman,serif" font-size="14.00">it consultant</text>
</a>
</g>
</g>
<!-- 1&#45;&gt;2 -->
<g id="edge12" class="edge">
<title>1&#45;&gt;2</title>
<path fill="none" stroke="black" d="M432.74,-99.59C337.93,-94.41 199.06,-84.5 147.6,-69 125.77,-62.43 103.21,-50.44 85.78,-39.86"/>
<polygon fill="black" stroke="black" points="87.49,-36.81 77.16,-34.49 83.79,-42.75 87.49,-36.81"/>
<text text-anchor="middle" x="163.1" y="-57.8" font-family="Times New Roman,serif" font-size="14.00">0.054</text>
</g>
<!-- 3 -->
<g id="node4" class="node">
<title>3</title>
<g id="a_node4"><a xlink:href="pharmacovigilance officer.svg" xlink:title="pharmacovigilance officer">
<ellipse fill="none" stroke="black" cx="231.6" cy="-18" rx="104.78" ry="18"/>
<text text-anchor="middle" x="231.6" y="-14.3" font-family="Times New Roman,serif" font-size="14.00">pharmacovigilance officer</text>
</a>
</g>
</g>
<!-- 1&#45;&gt;3 -->
<g id="edge11" class="edge">
<title>1&#45;&gt;3</title>
<path fill="none" stroke="black" d="M435.22,-98.3C394.7,-93.55 347.21,-84.87 306.6,-69 289.98,-62.51 273.28,-51.88 259.88,-42.09"/>
<polygon fill="black" stroke="black" points="261.67,-39.05 251.58,-35.82 257.45,-44.64 261.67,-39.05"/>
<text text-anchor="middle" x="322.1" y="-57.8" font-family="Times New Roman,serif" font-size="14.00">0.070</text>
</g>
<!-- 4 -->
<g id="node5" class="node">
<title>4</title>
<g id="a_node5"><a xlink:href="careers adviser.svg" xlink:title="careers adviser">
<ellipse fill="none" stroke="black" cx="419.6" cy="-18" rx="64.99" ry="18"/>
<text text-anchor="middle" x="419.6" y="-14.3" font-family="Times New Roman,serif" font-size="14.00">careers adviser</text>
</a>
</g>
</g>
<!-- 1&#45;&gt;4 -->
<g id="edge19" class="edge">
<title>1&#45;&gt;4</title>
<path fill="none" stroke="black" d="M465.55,-90.9C453.26,-85.82 441.45,-78.77 432.6,-69 426.92,-62.74 423.66,-54.31 421.81,-46.16"/>
<polygon fill="black" stroke="black" points="425.24,-45.46 420.14,-36.17 418.34,-46.62 425.24,-45.46"/>
<text text-anchor="middle" x="448.1" y="-57.8" font-family="Times New Roman,serif" font-size="14.00">0.023</text>
</g>
<!-- 6 -->
<g id="node7" class="node">
<title>6</title>
<g id="a_node7"><a xlink:href="project manager.svg" xlink:title="project manager">
<ellipse fill="none" stroke="black" cx="571.6" cy="-18" rx="68.79" ry="18"/>
<text text-anchor="middle" x="571.6" y="-14.3" font-family="Times New Roman,serif" font-size="14.00">project manager</text>
</a>
</g>
</g>
<!-- 1&#45;&gt;6 -->
<g id="edge13" class="edge">
<title>1&#45;&gt;6</title>
<path fill="none" stroke="black" d="M522.44,-86.93C520.38,-76.84 519.52,-64.1 524.6,-54 526.99,-49.24 530.37,-44.95 534.24,-41.16"/>
<polygon fill="black" stroke="black" points="536.77,-43.6 542.14,-34.46 532.25,-38.26 536.77,-43.6"/>
<text text-anchor="middle" x="540.1" y="-57.8" font-family="Times New Roman,serif" font-size="14.00">0.046</text>
</g>
<!-- 7 -->
<g id="node8" class="node">
<title>7</title>
<g id="a_node8"><a xlink:href="environmental health officer.svg" xlink:title="environmental health officer">
<ellipse fill="none" stroke="black" cx="768.6" cy="-18" rx="110.48" ry="18"/>
<text text-anchor="middle" x="768.6" y="-14.3" font-family="Times New Roman,serif" font-size="14.00">environmental health officer</text>
</a>
</g>
</g>
<!-- 1&#45;&gt;7 -->
<g id="edge17" class="edge">
<title>1&#45;&gt;7</title>
<path fill="none" stroke="black" d="M565.69,-88.29C591.01,-78.05 625.08,-64.67 655.6,-54 672.37,-48.13 690.71,-42.24 707.65,-37"/>
<polygon fill="black" stroke="black" points="708.9,-40.27 717.43,-33.99 706.85,-33.58 708.9,-40.27"/>
<text text-anchor="middle" x="671.1" y="-57.8" font-family="Times New Roman,serif" font-size="14.00">0.031</text>
</g>
<!-- 10 -->
<g id="node11" class="node">
<title>10</title>
<g id="a_node11"><a xlink:href="lecturer.svg" xlink:title="lecturer">
<ellipse fill="none" stroke="black" cx="934.6" cy="-18" rx="37.89" ry="18"/>
<text text-anchor="middle" x="934.6" y="-14.3" font-family="Times New Roman,serif" font-size="14.00">lecturer</text>
</a>
</g>
</g>
<!-- 1&#45;&gt;10 -->
<g id="edge15" class="edge">
<title>1&#45;&gt;10</title>
<path fill="none" stroke="black" d="M606.7,-94.01C680.43,-83.55 792.92,-64.6 887.6,-36 890.49,-35.12 893.47,-34.17 896.46,-33.18"/>
<polygon fill="black" stroke="black" points="897.61,-36.49 905.93,-29.92 895.33,-29.87 897.61,-36.49"/>
<text text-anchor="middle" x="835.1" y="-57.8" font-family="Times New Roman,serif" font-size="14.00">0.039</text>
</g>
<!-- 11 -->
<g id="node12" class="node">
<title>11</title>
<g id="a_node12"><a xlink:href="education administrator.svg" xlink:title="education administrator">
<ellipse fill="none" stroke="black" cx="1085.6" cy="-18" rx="95.58" ry="18"/>
<text text-anchor="middle" x="1085.6" y="-14.3" font-family="Times New Roman,serif" font-size="14.00">education administrator</text>
</a>
</g>
</g>
<!-- 1&#45;&gt;11 -->
<g id="edge16" class="edge">
<title>1&#45;&gt;11</title>
<path fill="none" stroke="black" d="M617.11,-97.01C683.02,-91.23 774.7,-81.89 854.6,-69 911.02,-59.9 974.42,-45.9 1020.51,-35.03"/>
<polygon fill="black" stroke="black" points="1021.44,-38.4 1030.37,-32.69 1019.83,-31.59 1021.44,-38.4"/>
<text text-anchor="middle" x="946.1" y="-57.8" font-family="Times New Roman,serif" font-size="14.00">0.031</text>
</g>
<!-- 12 -->
<g id="node13" class="node">
<title>12</title>
<g id="a_node13"><a xlink:href="sales manager.svg" xlink:title="sales manager">
<ellipse fill="none" stroke="black" cx="1260.6" cy="-18" rx="61.19" ry="18"/>
<text text-anchor="middle" x="1260.6" y="-14.3" font-family="Times New Roman,serif" font-size="14.00">sales manager</text>
</a>
</g>
</g>
<!-- 1&#45;&gt;12 -->
<g id="edge18" class="edge">
<title>1&#45;&gt;12</title>
<path fill="none" stroke="black" d="M622.53,-99.62C751.94,-92.45 990.55,-74.88 1190.6,-36 1195.68,-35.01 1200.96,-33.9 1206.22,-32.72"/>
<polygon fill="black" stroke="black" points="1207.33,-36.06 1216.29,-30.41 1205.77,-29.24 1207.33,-36.06"/>
<text text-anchor="middle" x="1098.1" y="-57.8" font-family="Times New Roman,serif" font-size="14.00">0.031</text>
</g>
<!-- 2&#45;&gt;1 -->
<g id="edge2" class="edge">
<title>2&#45;&gt;1</title>
<path fill="none" stroke="black" d="M95.25,-30.02C102.68,-32.02 110.37,-34.08 117.6,-36 173.54,-50.87 186.74,-58.1 243.6,-69 305.26,-80.82 375.26,-89.5 430.33,-95.26"/>
<polygon fill="black" stroke="black" points="430.13,-98.76 440.43,-96.3 430.84,-91.79 430.13,-98.76"/>
<text text-anchor="middle" x="259.1" y="-57.8" font-family="Times New Roman,serif" font-size="14.00">0.041</text>
</g>
<!-- 3&#45;&gt;1 -->
<g id="edge3" class="edge">
<title>3&#45;&gt;1</title>
<path fill="none" stroke="black" d="M277.36,-34.26C308.79,-44.54 351.55,-58.16 389.6,-69 412.58,-75.55 437.89,-82.14 460.49,-87.81"/>
<polygon fill="black" stroke="black" points="459.78,-91.24 470.33,-90.27 461.47,-84.45 459.78,-91.24"/>
<text text-anchor="middle" x="405.1" y="-57.8" font-family="Times New Roman,serif" font-size="14.00">0.041</text>
</g>
<!-- 4&#45;&gt;1 -->
<g id="edge4" class="edge">
<title>4&#45;&gt;1</title>
<path fill="none" stroke="black" d="M440.16,-35.18C456.58,-48.11 479.8,-66.39 498.19,-80.86"/>
<polygon fill="black" stroke="black" points="496.24,-83.77 506.26,-87.21 500.56,-78.27 496.24,-83.77"/>
<text text-anchor="middle" x="496.1" y="-57.8" font-family="Times New Roman,serif" font-size="14.00">0.029</text>
</g>
<!-- 5 -->
<g id="node6" class="node">
<title>5</title>
<g id="a_node6"><a xlink:href="office manager.svg" xlink:title="office manager">
<ellipse fill="none" stroke="black" cx="527.6" cy="-192" rx="64.19" ry="18"/>
<text text-anchor="middle" x="527.6" y="-188.3" font-family="Times New Roman,serif" font-size="14.00">office manager</text>
</a>
</g>
</g>
<!-- 5&#45;&gt;1 -->
<g id="edge5" class="edge">
<title>5&#45;&gt;1</title>
<path fill="none" stroke="black" d="M527.6,-173.8C527.6,-162.16 527.6,-146.55 527.6,-133.24"/>
<polygon fill="black" stroke="black" points="531.1,-133.18 527.6,-123.18 524.1,-133.18 531.1,-133.18"/>
<text text-anchor="middle" x="543.1" y="-144.8" font-family="Times New Roman,serif" font-size="14.00">0.029</text>
</g>
<!-- 6&#45;&gt;1 -->
<g id="edge6" class="edge">
<title>6&#45;&gt;1</title>
<path fill="none" stroke="black" d="M569.61,-36.43C567.95,-46.41 564.95,-58.91 559.6,-69 557.69,-72.58 555.34,-76.08 552.78,-79.39"/>
<polygon fill="black" stroke="black" points="549.95,-77.31 546.13,-87.19 555.28,-81.85 549.95,-77.31"/>
<text text-anchor="middle" x="581.1" y="-57.8" font-family="Times New Roman,serif" font-size="14.00">0.029</text>
</g>
<!-- 7&#45;&gt;1 -->
<g id="edge7" class="edge">
<title>7&#45;&gt;1</title>
<path fill="none" stroke="black" d="M747.24,-35.69C732.18,-46.68 711.12,-60.54 690.6,-69 666.5,-78.93 639.18,-86.2 613.9,-91.46"/>
<polygon fill="black" stroke="black" points="613.07,-88.06 603.95,-93.45 614.44,-94.92 613.07,-88.06"/>
<text text-anchor="middle" x="733.1" y="-57.8" font-family="Times New Roman,serif" font-size="14.00">0.023</text>
</g>
<!-- 8 -->
<g id="node9" class="node">
<title>8</title>
<g id="a_node9"><a xlink:href="facilities manager.svg" xlink:title="facilities manager">
<ellipse fill="none" stroke="black" cx="682.6" cy="-192" rx="72.59" ry="18"/>
<text text-anchor="middle" x="682.6" y="-188.3" font-family="Times New Roman,serif" font-size="14.00">facilities manager</text>
</a>
</g>
</g>
<!-- 8&#45;&gt;1 -->
<g id="edge8" class="edge">
<title>8&#45;&gt;1</title>
<path fill="none" stroke="black" d="M654.17,-175.41C629.43,-161.85 593.37,-142.07 566.06,-127.09"/>
<polygon fill="black" stroke="black" points="567.61,-123.95 557.16,-122.21 564.25,-130.09 567.61,-123.95"/>
<text text-anchor="middle" x="630.1" y="-144.8" font-family="Times New Roman,serif" font-size="14.00">0.023</text>
</g>
<!-- 9 -->
<g id="node10" class="node">
<title>9</title>
<g id="a_node10"><a xlink:href="human resources officer.svg" xlink:title="human resources officer">
<ellipse fill="none" stroke="black" cx="872.6" cy="-192" rx="98.58" ry="18"/>
<text text-anchor="middle" x="872.6" y="-188.3" font-family="Times New Roman,serif" font-size="14.00">human resources officer</text>
</a>
</g>
</g>
<!-- 9&#45;&gt;1 -->
<g id="edge9" class="edge">
<title>9&#45;&gt;1</title>
<path fill="none" stroke="black" d="M816.4,-177.15C755.59,-162.17 658.7,-138.3 594.13,-122.39"/>
<polygon fill="black" stroke="black" points="594.6,-118.9 584.06,-119.91 592.93,-125.7 594.6,-118.9"/>
<text text-anchor="middle" x="736.1" y="-144.8" font-family="Times New Roman,serif" font-size="14.00">0.023</text>
</g>
</g>
</svg>
