<?xml version="1.0" encoding="UTF-8" standalone="no"?>
<!DOCTYPE svg PUBLIC "-//W3C//DTD SVG 1.1//EN"
 "http://www.w3.org/Graphics/SVG/1.1/DTD/svg11.dtd">
<!-- Generated by graphviz version 2.44.1 (20200629.0800)
 -->
<!-- Title: test Pages: 1 -->
<svg width="1343pt" height="218pt"
 viewBox="0.00 0.00 1343.34 218.00" xmlns="http://www.w3.org/2000/svg" xmlns:xlink="http://www.w3.org/1999/xlink">
<g id="graph0" class="graph" transform="scale(1 1) rotate(0) translate(4 214)">
<title>test</title>
<polygon fill="white" stroke="transparent" points="-4,4 -4,-214 1339.34,-214 1339.34,4 -4,4"/>
<!-- 0 -->
<g id="node1" class="node">
<title>0</title>
<g id="a_node1"><a xlink:href="pharmacovigilance officer.svg" xlink:title="pharmacovigilance officer">
<ellipse fill="none" stroke="black" cx="393.44" cy="-192" rx="104.78" ry="18"/>
<text text-anchor="middle" x="393.44" y="-188.3" font-family="Times New Roman,serif" font-size="14.00">pharmacovigilance officer</text>
</a>
</g>
</g>
<!-- 1 -->
<g id="node2" class="node">
<title>1</title>
<g id="a_node2"><a xlink:href="heritage manager.svg" xlink:title="heritage manager">
<ellipse fill="none" stroke="black" cx="543.44" cy="-105" rx="71.49" ry="18"/>
<text text-anchor="middle" x="543.44" y="-101.3" font-family="Times New Roman,serif" font-size="14.00">heritage manager</text>
</a>
</g>
</g>
<!-- 0&#45;&gt;1 -->
<g id="edge1" class="edge">
<title>0&#45;&gt;1</title>
<path fill="none" stroke="black" d="M410.67,-174.04C422.09,-163.5 437.79,-150.23 453.44,-141 465.07,-134.15 478.28,-128.14 490.93,-123.13"/>
<polygon fill="black" stroke="black" points="492.36,-126.33 500.46,-119.5 489.87,-119.79 492.36,-126.33"/>
<text text-anchor="middle" x="468.94" y="-144.8" font-family="Times New Roman,serif" font-size="14.00">0.058</text>
</g>
<!-- 1&#45;&gt;0 -->
<g id="edge11" class="edge">
<title>1&#45;&gt;0</title>
<path fill="none" stroke="black" d="M527.06,-122.52C515.82,-133.16 500.15,-146.69 484.44,-156 474.09,-162.14 462.47,-167.56 451.09,-172.2"/>
<polygon fill="black" stroke="black" points="449.65,-169.01 441.61,-175.91 452.2,-175.53 449.65,-169.01"/>
<text text-anchor="middle" x="520.94" y="-144.8" font-family="Times New Roman,serif" font-size="14.00">0.080</text>
</g>
<!-- 1&#45;&gt;1 -->
<g id="edge10" class="edge">
<title>1&#45;&gt;1</title>
<path fill="none" stroke="black" d="M608.2,-112.66C622.51,-111.94 632.94,-109.39 632.94,-105 632.94,-101.74 627.2,-99.5 618.38,-98.26"/>
<polygon fill="black" stroke="black" points="618.48,-94.75 608.2,-97.34 617.85,-101.73 618.48,-94.75"/>
<text text-anchor="middle" x="648.44" y="-101.3" font-family="Times New Roman,serif" font-size="14.00">0.098</text>
</g>
<!-- 2 -->
<g id="node3" class="node">
<title>2</title>
<g id="a_node3"><a xlink:href="financial manager.svg" xlink:title="financial manager">
<ellipse fill="none" stroke="black" cx="73.44" cy="-18" rx="73.39" ry="18"/>
<text text-anchor="middle" x="73.44" y="-14.3" font-family="Times New Roman,serif" font-size="14.00">financial manager</text>
</a>
</g>
</g>
<!-- 1&#45;&gt;2 -->
<g id="edge19" class="edge">
<title>1&#45;&gt;2</title>
<path fill="none" stroke="black" d="M473.07,-101.67C376.95,-97.81 209.97,-88.5 152.44,-69 134.37,-62.87 116.23,-51.82 101.9,-41.67"/>
<polygon fill="black" stroke="black" points="103.64,-38.6 93.5,-35.51 99.5,-44.25 103.64,-38.6"/>
<text text-anchor="middle" x="167.94" y="-57.8" font-family="Times New Roman,serif" font-size="14.00">0.026</text>
</g>
<!-- 3 -->
<g id="node4" class="node">
<title>3</title>
<g id="a_node4"><a xlink:href="production manager.svg" xlink:title="production manager">
<ellipse fill="none" stroke="black" cx="248.44" cy="-18" rx="83.39" ry="18"/>
<text text-anchor="middle" x="248.44" y="-14.3" font-family="Times New Roman,serif" font-size="14.00">production manager</text>
</a>
</g>
</g>
<!-- 1&#45;&gt;3 -->
<g id="edge12" class="edge">
<title>1&#45;&gt;3</title>
<path fill="none" stroke="black" d="M475.71,-99.02C414.51,-93.68 329.56,-83.88 299.44,-69 287.46,-63.08 276.52,-53.28 267.88,-43.91"/>
<polygon fill="black" stroke="black" points="270.4,-41.47 261.18,-36.24 265.12,-46.08 270.4,-41.47"/>
<text text-anchor="middle" x="314.94" y="-57.8" font-family="Times New Roman,serif" font-size="14.00">0.068</text>
</g>
<!-- 4 -->
<g id="node5" class="node">
<title>4</title>
<g id="a_node5"><a xlink:href="it consultant.svg" xlink:title="it consultant">
<ellipse fill="none" stroke="black" cx="404.44" cy="-18" rx="54.69" ry="18"/>
<text text-anchor="middle" x="404.44" y="-14.3" font-family="Times New Roman,serif" font-size="14.00">it consultant</text>
</a>
</g>
</g>
<!-- 1&#45;&gt;4 -->
<g id="edge14" class="edge">
<title>1&#45;&gt;4</title>
<path fill="none" stroke="black" d="M477.95,-97.6C457.32,-92.63 435.92,-83.98 420.44,-69 414.21,-62.96 410.39,-54.49 408.07,-46.24"/>
<polygon fill="black" stroke="black" points="411.48,-45.46 405.9,-36.46 404.65,-46.98 411.48,-45.46"/>
<text text-anchor="middle" x="435.94" y="-57.8" font-family="Times New Roman,serif" font-size="14.00">0.041</text>
</g>
<!-- 5 -->
<g id="node6" class="node">
<title>5</title>
<g id="a_node6"><a xlink:href="sales manager.svg" xlink:title="sales manager">
<ellipse fill="none" stroke="black" cx="538.44" cy="-18" rx="61.19" ry="18"/>
<text text-anchor="middle" x="538.44" y="-14.3" font-family="Times New Roman,serif" font-size="14.00">sales manager</text>
</a>
</g>
</g>
<!-- 1&#45;&gt;5 -->
<g id="edge13" class="edge">
<title>1&#45;&gt;5</title>
<path fill="none" stroke="black" d="M525.11,-87.46C520.39,-82.09 515.94,-75.76 513.44,-69 510.39,-60.76 512.63,-52.09 516.8,-44.33"/>
<polygon fill="black" stroke="black" points="519.87,-46.01 522.37,-35.71 514,-42.21 519.87,-46.01"/>
<text text-anchor="middle" x="528.94" y="-57.8" font-family="Times New Roman,serif" font-size="14.00">0.044</text>
</g>
<!-- 6 -->
<g id="node7" class="node">
<title>6</title>
<g id="a_node7"><a xlink:href="project manager.svg" xlink:title="project manager">
<ellipse fill="none" stroke="black" cx="686.44" cy="-18" rx="68.79" ry="18"/>
<text text-anchor="middle" x="686.44" y="-14.3" font-family="Times New Roman,serif" font-size="14.00">project manager</text>
</a>
</g>
</g>
<!-- 1&#45;&gt;6 -->
<g id="edge15" class="edge">
<title>1&#45;&gt;6</title>
<path fill="none" stroke="black" d="M568.46,-87.9C584.13,-77.93 604.82,-64.98 623.44,-54 631.6,-49.19 640.43,-44.17 648.83,-39.48"/>
<polygon fill="black" stroke="black" points="650.68,-42.46 657.73,-34.55 647.29,-36.34 650.68,-42.46"/>
<text text-anchor="middle" x="638.94" y="-57.8" font-family="Times New Roman,serif" font-size="14.00">0.041</text>
</g>
<!-- 8 -->
<g id="node9" class="node">
<title>8</title>
<g id="a_node9"><a xlink:href="software developer.svg" xlink:title="software developer">
<ellipse fill="none" stroke="black" cx="853.44" cy="-18" rx="79.89" ry="18"/>
<text text-anchor="middle" x="853.44" y="-14.3" font-family="Times New Roman,serif" font-size="14.00">software developer</text>
</a>
</g>
</g>
<!-- 1&#45;&gt;8 -->
<g id="edge16" class="edge">
<title>1&#45;&gt;8</title>
<path fill="none" stroke="black" d="M598.93,-93.63C630.39,-87.34 670.36,-78.68 705.44,-69 715.11,-66.33 763.05,-50.04 801.78,-36.77"/>
<polygon fill="black" stroke="black" points="803.08,-40.03 811.4,-33.47 800.81,-33.41 803.08,-40.03"/>
<text text-anchor="middle" x="763.94" y="-57.8" font-family="Times New Roman,serif" font-size="14.00">0.035</text>
</g>
<!-- 10 -->
<g id="node11" class="node">
<title>10</title>
<g id="a_node11"><a xlink:href="investment fund manager.svg" xlink:title="investment fund manager">
<ellipse fill="none" stroke="black" cx="1052.44" cy="-18" rx="100.98" ry="18"/>
<text text-anchor="middle" x="1052.44" y="-14.3" font-family="Times New Roman,serif" font-size="14.00">investment fund manager</text>
</a>
</g>
</g>
<!-- 1&#45;&gt;10 -->
<g id="edge17" class="edge">
<title>1&#45;&gt;10</title>
<path fill="none" stroke="black" d="M610.58,-98.63C672.21,-93.14 765.9,-83.37 846.44,-69 895.31,-60.28 949.87,-46.87 990.56,-36.13"/>
<polygon fill="black" stroke="black" points="991.56,-39.49 1000.33,-33.53 989.76,-32.72 991.56,-39.49"/>
<text text-anchor="middle" x="929.94" y="-57.8" font-family="Times New Roman,serif" font-size="14.00">0.032</text>
</g>
<!-- 11 -->
<g id="node12" class="node">
<title>11</title>
<g id="a_node12"><a xlink:href="marketing executive.svg" xlink:title="marketing executive">
<ellipse fill="none" stroke="black" cx="1253.44" cy="-18" rx="81.79" ry="18"/>
<text text-anchor="middle" x="1253.44" y="-14.3" font-family="Times New Roman,serif" font-size="14.00">marketing executive</text>
</a>
</g>
</g>
<!-- 1&#45;&gt;11 -->
<g id="edge18" class="edge">
<title>1&#45;&gt;11</title>
<path fill="none" stroke="black" d="M611.83,-99.52C692.65,-93.91 831.09,-83.25 949.44,-69 1044.55,-57.55 1068.02,-52.13 1162.44,-36 1169.41,-34.81 1176.68,-33.53 1183.93,-32.22"/>
<polygon fill="black" stroke="black" points="1184.56,-35.66 1193.77,-30.42 1183.31,-28.77 1184.56,-35.66"/>
<text text-anchor="middle" x="1070.94" y="-57.8" font-family="Times New Roman,serif" font-size="14.00">0.029</text>
</g>
<!-- 2&#45;&gt;1 -->
<g id="edge2" class="edge">
<title>2&#45;&gt;1</title>
<path fill="none" stroke="black" d="M114.42,-33.09C148.76,-44.39 199.28,-59.82 244.44,-69 318.64,-84.08 404.61,-93.3 465.27,-98.46"/>
<polygon fill="black" stroke="black" points="465.28,-101.98 475.54,-99.32 465.87,-95 465.28,-101.98"/>
<text text-anchor="middle" x="259.94" y="-57.8" font-family="Times New Roman,serif" font-size="14.00">0.051</text>
</g>
<!-- 3&#45;&gt;1 -->
<g id="edge3" class="edge">
<title>3&#45;&gt;1</title>
<path fill="none" stroke="black" d="M283.21,-34.39C308.65,-45.2 344.2,-59.4 376.44,-69 408.58,-78.57 444.95,-86.52 475.53,-92.41"/>
<polygon fill="black" stroke="black" points="475.18,-95.91 485.66,-94.33 476.49,-89.03 475.18,-95.91"/>
<text text-anchor="middle" x="391.94" y="-57.8" font-family="Times New Roman,serif" font-size="14.00">0.051</text>
</g>
<!-- 4&#45;&gt;1 -->
<g id="edge4" class="edge">
<title>4&#45;&gt;1</title>
<path fill="none" stroke="black" d="M426.06,-34.76C440.37,-44.95 459.7,-58.27 477.44,-69 485.84,-74.08 495.05,-79.22 503.85,-83.93"/>
<polygon fill="black" stroke="black" points="502.34,-87.1 512.82,-88.68 505.61,-80.91 502.34,-87.1"/>
<text text-anchor="middle" x="492.94" y="-57.8" font-family="Times New Roman,serif" font-size="14.00">0.043</text>
</g>
<!-- 5&#45;&gt;1 -->
<g id="edge5" class="edge">
<title>5&#45;&gt;1</title>
<path fill="none" stroke="black" d="M544.4,-36.24C546.05,-41.84 547.62,-48.12 548.44,-54 549.48,-61.4 549.26,-69.44 548.52,-76.87"/>
<polygon fill="black" stroke="black" points="545.04,-76.46 547.18,-86.84 551.98,-77.39 545.04,-76.46"/>
<text text-anchor="middle" x="564.94" y="-57.8" font-family="Times New Roman,serif" font-size="14.00">0.041</text>
</g>
<!-- 6&#45;&gt;1 -->
<g id="edge6" class="edge">
<title>6&#45;&gt;1</title>
<path fill="none" stroke="black" d="M680.7,-36.07C676.23,-46.93 668.98,-60.51 658.44,-69 645.39,-79.51 629.2,-86.88 613.13,-92.03"/>
<polygon fill="black" stroke="black" points="611.78,-88.78 603.18,-94.96 613.76,-95.49 611.78,-88.78"/>
<text text-anchor="middle" x="685.94" y="-57.8" font-family="Times New Roman,serif" font-size="14.00">0.036</text>
</g>
<!-- 7 -->
<g id="node8" class="node">
<title>7</title>
<g id="a_node8"><a xlink:href="office manager.svg" xlink:title="office manager">
<ellipse fill="none" stroke="black" cx="580.44" cy="-192" rx="64.19" ry="18"/>
<text text-anchor="middle" x="580.44" y="-188.3" font-family="Times New Roman,serif" font-size="14.00">office manager</text>
</a>
</g>
</g>
<!-- 7&#45;&gt;1 -->
<g id="edge7" class="edge">
<title>7&#45;&gt;1</title>
<path fill="none" stroke="black" d="M572.96,-173.8C567.79,-161.93 560.82,-145.93 554.96,-132.45"/>
<polygon fill="black" stroke="black" points="558.12,-130.95 550.92,-123.18 551.7,-133.74 558.12,-130.95"/>
<text text-anchor="middle" x="579.94" y="-144.8" font-family="Times New Roman,serif" font-size="14.00">0.024</text>
</g>
<!-- 8&#45;&gt;1 -->
<g id="edge8" class="edge">
<title>8&#45;&gt;1</title>
<path fill="none" stroke="black" d="M836.21,-35.71C823.5,-47.01 805.22,-61.24 786.44,-69 735.24,-90.17 673.37,-98.87 624.88,-102.3"/>
<polygon fill="black" stroke="black" points="624.5,-98.81 614.74,-102.95 624.95,-105.8 624.5,-98.81"/>
<text text-anchor="middle" x="826.94" y="-57.8" font-family="Times New Roman,serif" font-size="14.00">0.024</text>
</g>
<!-- 9 -->
<g id="node10" class="node">
<title>9</title>
<g id="a_node10"><a xlink:href="catering manager.svg" xlink:title="catering manager">
<ellipse fill="none" stroke="black" cx="734.44" cy="-192" rx="71.49" ry="18"/>
<text text-anchor="middle" x="734.44" y="-188.3" font-family="Times New Roman,serif" font-size="14.00">catering manager</text>
</a>
</g>
</g>
<!-- 9&#45;&gt;1 -->
<g id="edge9" class="edge">
<title>9&#45;&gt;1</title>
<path fill="none" stroke="black" d="M700.74,-176C668.92,-161.84 621.07,-140.55 586.51,-125.16"/>
<polygon fill="black" stroke="black" points="587.69,-121.86 577.13,-120.99 584.85,-128.26 587.69,-121.86"/>
<text text-anchor="middle" x="664.94" y="-144.8" font-family="Times New Roman,serif" font-size="14.00">0.019</text>
</g>
</g>
</svg>
