<?xml version="1.0" encoding="UTF-8" standalone="no"?>
<!DOCTYPE svg PUBLIC "-//W3C//DTD SVG 1.1//EN"
 "http://www.w3.org/Graphics/SVG/1.1/DTD/svg11.dtd">
<!-- Generated by graphviz version 2.44.1 (20200629.0800)
 -->
<!-- Title: hotel_manager Pages: 1 -->
<svg width="1502pt" height="218pt"
 viewBox="0.00 0.00 1501.59 218.00" xmlns="http://www.w3.org/2000/svg" xmlns:xlink="http://www.w3.org/1999/xlink">
<g id="graph0" class="graph" transform="scale(1 1) rotate(0) translate(4 214)">
<title>hotel_manager</title>
<polygon fill="white" stroke="transparent" points="-4,4 -4,-214 1497.59,-214 1497.59,4 -4,4"/>
<!-- 0 -->
<g id="node1" class="node">
<title>0</title>
<g id="a_node1"><a xlink:href="it consultant.svg" xlink:title="it consultant">
<ellipse fill="none" stroke="black" cx="492.89" cy="-192" rx="54.69" ry="18"/>
<text text-anchor="middle" x="492.89" y="-188.3" font-family="Times New Roman,serif" font-size="14.00">it consultant</text>
</a>
</g>
</g>
<!-- 1 -->
<g id="node2" class="node">
<title>1</title>
<g id="a_node2"><a xlink:href="hotel manager.svg" xlink:title="hotel manager">
<ellipse fill="none" stroke="black" cx="641.89" cy="-105" rx="61.19" ry="18"/>
<text text-anchor="middle" x="641.89" y="-101.3" font-family="Times New Roman,serif" font-size="14.00">hotel manager</text>
</a>
</g>
</g>
<!-- 0&#45;&gt;1 -->
<g id="edge1" class="edge">
<title>0&#45;&gt;1</title>
<path fill="none" stroke="black" d="M519.19,-176C543.43,-162.17 579.61,-141.53 606.41,-126.24"/>
<polygon fill="black" stroke="black" points="608.16,-129.28 615.11,-121.28 604.69,-123.2 608.16,-129.28"/>
<text text-anchor="middle" x="592.39" y="-144.8" font-family="Times New Roman,serif" font-size="14.00">0.142</text>
</g>
<!-- 1&#45;&gt;1 -->
<g id="edge10" class="edge">
<title>1&#45;&gt;1</title>
<path fill="none" stroke="black" d="M697.33,-112.75C710.9,-112.18 720.99,-109.59 720.99,-105 720.99,-101.66 715.66,-99.39 707.55,-98.17"/>
<polygon fill="black" stroke="black" points="707.61,-94.66 697.33,-97.25 706.98,-101.63 707.61,-94.66"/>
<text text-anchor="middle" x="733.49" y="-101.3" font-family="Times New Roman,serif" font-size="14.00">0.15</text>
</g>
<!-- 2 -->
<g id="node3" class="node">
<title>2</title>
<g id="a_node3"><a xlink:href="project manager.svg" xlink:title="project manager">
<ellipse fill="none" stroke="black" cx="68.89" cy="-18" rx="68.79" ry="18"/>
<text text-anchor="middle" x="68.89" y="-14.3" font-family="Times New Roman,serif" font-size="14.00">project manager</text>
</a>
</g>
</g>
<!-- 1&#45;&gt;2 -->
<g id="edge12" class="edge">
<title>1&#45;&gt;2</title>
<path fill="none" stroke="black" d="M581.09,-102.95C469.09,-100.46 234.55,-92.54 156.89,-69 136.46,-62.81 115.6,-51.23 99.32,-40.77"/>
<polygon fill="black" stroke="black" points="101.05,-37.72 90.78,-35.12 97.19,-43.56 101.05,-37.72"/>
<text text-anchor="middle" x="172.39" y="-57.8" font-family="Times New Roman,serif" font-size="14.00">0.091</text>
</g>
<!-- 3 -->
<g id="node4" class="node">
<title>3</title>
<g id="a_node4"><a xlink:href="office manager.svg" xlink:title="office manager">
<ellipse fill="none" stroke="black" cx="219.89" cy="-18" rx="64.19" ry="18"/>
<text text-anchor="middle" x="219.89" y="-14.3" font-family="Times New Roman,serif" font-size="14.00">office manager</text>
</a>
</g>
</g>
<!-- 1&#45;&gt;3 -->
<g id="edge15" class="edge">
<title>1&#45;&gt;3</title>
<path fill="none" stroke="black" d="M581.33,-102.2C519.09,-99.16 419.84,-90.98 336.89,-69 309.62,-61.77 280.43,-49.31 258.03,-38.63"/>
<polygon fill="black" stroke="black" points="259.39,-35.4 248.87,-34.19 256.34,-41.7 259.39,-35.4"/>
<text text-anchor="middle" x="352.39" y="-57.8" font-family="Times New Roman,serif" font-size="14.00">0.041</text>
</g>
<!-- 4 -->
<g id="node5" class="node">
<title>4</title>
<g id="a_node5"><a xlink:href="pharmacovigilance officer.svg" xlink:title="pharmacovigilance officer">
<ellipse fill="none" stroke="black" cx="406.89" cy="-18" rx="104.78" ry="18"/>
<text text-anchor="middle" x="406.89" y="-14.3" font-family="Times New Roman,serif" font-size="14.00">pharmacovigilance officer</text>
</a>
</g>
</g>
<!-- 1&#45;&gt;4 -->
<g id="edge13" class="edge">
<title>1&#45;&gt;4</title>
<path fill="none" stroke="black" d="M587.04,-96.8C555.94,-91.52 516.8,-82.79 483.89,-69 467.09,-61.96 449.95,-51.24 436.11,-41.53"/>
<polygon fill="black" stroke="black" points="438.12,-38.66 427.96,-35.66 434.03,-44.34 438.12,-38.66"/>
<text text-anchor="middle" x="499.39" y="-57.8" font-family="Times New Roman,serif" font-size="14.00">0.058</text>
</g>
<!-- 5 -->
<g id="node6" class="node">
<title>5</title>
<g id="a_node6"><a xlink:href="catering manager.svg" xlink:title="catering manager">
<ellipse fill="none" stroke="black" cx="600.89" cy="-18" rx="71.49" ry="18"/>
<text text-anchor="middle" x="600.89" y="-14.3" font-family="Times New Roman,serif" font-size="14.00">catering manager</text>
</a>
</g>
</g>
<!-- 1&#45;&gt;5 -->
<g id="edge11" class="edge">
<title>1&#45;&gt;5</title>
<path fill="none" stroke="black" d="M614.74,-88.56C607.99,-83.29 601.63,-76.74 597.89,-69 594.52,-62 593.86,-53.79 594.44,-46.08"/>
<polygon fill="black" stroke="black" points="597.93,-46.4 595.86,-36.01 591,-45.43 597.93,-46.4"/>
<text text-anchor="middle" x="606.89" y="-57.8" font-family="Times New Roman,serif" font-size="14.00">0.1</text>
</g>
<!-- 7 -->
<g id="node8" class="node">
<title>7</title>
<g id="a_node8"><a xlink:href="sales manager.svg" xlink:title="sales manager">
<ellipse fill="none" stroke="black" cx="751.89" cy="-18" rx="61.19" ry="18"/>
<text text-anchor="middle" x="751.89" y="-14.3" font-family="Times New Roman,serif" font-size="14.00">sales manager</text>
</a>
</g>
</g>
<!-- 1&#45;&gt;7 -->
<g id="edge19" class="edge">
<title>1&#45;&gt;7</title>
<path fill="none" stroke="black" d="M657.44,-87.25C667.36,-77.04 680.78,-64.06 693.89,-54 700.46,-48.97 707.79,-44.06 714.97,-39.59"/>
<polygon fill="black" stroke="black" points="717.18,-42.34 723.93,-34.18 713.56,-36.35 717.18,-42.34"/>
<text text-anchor="middle" x="709.39" y="-57.8" font-family="Times New Roman,serif" font-size="14.00">0.025</text>
</g>
<!-- 8 -->
<g id="node9" class="node">
<title>8</title>
<g id="a_node9"><a xlink:href="human resources officer.svg" xlink:title="human resources officer">
<ellipse fill="none" stroke="black" cx="929.89" cy="-18" rx="98.58" ry="18"/>
<text text-anchor="middle" x="929.89" y="-14.3" font-family="Times New Roman,serif" font-size="14.00">human resources officer</text>
</a>
</g>
</g>
<!-- 1&#45;&gt;8 -->
<g id="edge16" class="edge">
<title>1&#45;&gt;8</title>
<path fill="none" stroke="black" d="M686.65,-92.74C712.28,-86.14 745,-77.46 773.89,-69 792.94,-63.43 837.56,-49.08 874.23,-37.17"/>
<polygon fill="black" stroke="black" points="875.42,-40.47 883.85,-34.05 873.25,-33.81 875.42,-40.47"/>
<text text-anchor="middle" x="834.39" y="-57.8" font-family="Times New Roman,serif" font-size="14.00">0.025</text>
</g>
<!-- 10 -->
<g id="node11" class="node">
<title>10</title>
<g id="a_node11"><a xlink:href="heritage manager.svg" xlink:title="heritage manager">
<ellipse fill="none" stroke="black" cx="1117.89" cy="-18" rx="71.49" ry="18"/>
<text text-anchor="middle" x="1117.89" y="-14.3" font-family="Times New Roman,serif" font-size="14.00">heritage manager</text>
</a>
</g>
</g>
<!-- 1&#45;&gt;10 -->
<g id="edge14" class="edge">
<title>1&#45;&gt;10</title>
<path fill="none" stroke="black" d="M699.45,-98.82C755.89,-93.26 844.25,-83.26 919.89,-69 968.71,-59.8 1023.41,-45.69 1062.93,-34.8"/>
<polygon fill="black" stroke="black" points="1063.93,-38.16 1072.63,-32.11 1062.06,-31.41 1063.93,-38.16"/>
<text text-anchor="middle" x="997.39" y="-57.8" font-family="Times New Roman,serif" font-size="14.00">0.05</text>
</g>
<!-- 11 -->
<g id="node12" class="node">
<title>11</title>
<g id="a_node12"><a xlink:href="production manager.svg" xlink:title="production manager">
<ellipse fill="none" stroke="black" cx="1290.89" cy="-18" rx="83.39" ry="18"/>
<text text-anchor="middle" x="1290.89" y="-14.3" font-family="Times New Roman,serif" font-size="14.00">production manager</text>
</a>
</g>
</g>
<!-- 1&#45;&gt;11 -->
<g id="edge17" class="edge">
<title>1&#45;&gt;11</title>
<path fill="none" stroke="black" d="M700.7,-99.99C774.17,-94.64 903.67,-84.04 1013.89,-69 1096.21,-57.77 1116.14,-50.8 1197.89,-36 1204.94,-34.72 1212.3,-33.39 1219.64,-32.05"/>
<polygon fill="black" stroke="black" points="1220.41,-35.47 1229.62,-30.23 1219.15,-28.58 1220.41,-35.47"/>
<text text-anchor="middle" x="1118.39" y="-57.8" font-family="Times New Roman,serif" font-size="14.00">0.025</text>
</g>
<!-- 12 -->
<g id="node13" class="node">
<title>12</title>
<g id="a_node13"><a xlink:href="retail buyer.svg" xlink:title="retail buyer">
<ellipse fill="none" stroke="black" cx="1442.89" cy="-18" rx="50.89" ry="18"/>
<text text-anchor="middle" x="1442.89" y="-14.3" font-family="Times New Roman,serif" font-size="14.00">retail buyer</text>
</a>
</g>
</g>
<!-- 1&#45;&gt;12 -->
<g id="edge18" class="edge">
<title>1&#45;&gt;12</title>
<path fill="none" stroke="black" d="M703.1,-103.06C830.78,-100.08 1134.36,-87.67 1382.89,-36 1387.24,-35.1 1391.74,-34.04 1396.23,-32.92"/>
<polygon fill="black" stroke="black" points="1397.19,-36.28 1405.97,-30.35 1395.41,-29.51 1397.19,-36.28"/>
<text text-anchor="middle" x="1298.39" y="-57.8" font-family="Times New Roman,serif" font-size="14.00">0.025</text>
</g>
<!-- 2&#45;&gt;1 -->
<g id="edge2" class="edge">
<title>2&#45;&gt;1</title>
<path fill="none" stroke="black" d="M111.31,-32.25C149.72,-43.74 208.07,-59.91 259.89,-69 367.71,-87.92 494.56,-96.97 571.55,-101.03"/>
<polygon fill="black" stroke="black" points="571.44,-104.53 581.61,-101.55 571.8,-97.54 571.44,-104.53"/>
<text text-anchor="middle" x="275.39" y="-57.8" font-family="Times New Roman,serif" font-size="14.00">0.060</text>
</g>
<!-- 3&#45;&gt;1 -->
<g id="edge3" class="edge">
<title>3&#45;&gt;1</title>
<path fill="none" stroke="black" d="M267.79,-30.19C276.16,-32.13 284.78,-34.13 292.89,-36 327.99,-44.08 337.05,-44.92 371.89,-54 394.76,-59.96 399.85,-63.79 422.89,-69 474.11,-80.58 532.91,-89.75 576.68,-95.8"/>
<polygon fill="black" stroke="black" points="576.24,-99.27 586.62,-97.15 577.19,-92.33 576.24,-99.27"/>
<text text-anchor="middle" x="438.39" y="-57.8" font-family="Times New Roman,serif" font-size="14.00">0.045</text>
</g>
<!-- 4&#45;&gt;1 -->
<g id="edge4" class="edge">
<title>4&#45;&gt;1</title>
<path fill="none" stroke="black" d="M457.37,-33.8C476.73,-39.73 498.95,-46.84 518.89,-54 546.07,-63.75 576.09,-75.93 599.68,-85.82"/>
<polygon fill="black" stroke="black" points="598.46,-89.11 609.03,-89.77 601.18,-82.66 598.46,-89.11"/>
<text text-anchor="middle" x="572.39" y="-57.8" font-family="Times New Roman,serif" font-size="14.00">0.045</text>
</g>
<!-- 5&#45;&gt;1 -->
<g id="edge5" class="edge">
<title>5&#45;&gt;1</title>
<path fill="none" stroke="black" d="M610.46,-35.94C613.57,-41.63 616.97,-48.04 619.89,-54 623.59,-61.54 627.37,-69.85 630.72,-77.5"/>
<polygon fill="black" stroke="black" points="627.52,-78.93 634.71,-86.71 633.95,-76.15 627.52,-78.93"/>
<text text-anchor="middle" x="643.39" y="-57.8" font-family="Times New Roman,serif" font-size="14.00">0.037</text>
</g>
<!-- 6 -->
<g id="node7" class="node">
<title>6</title>
<g id="a_node7"><a xlink:href="investment analyst.svg" xlink:title="investment analyst">
<ellipse fill="none" stroke="black" cx="641.89" cy="-192" rx="76.89" ry="18"/>
<text text-anchor="middle" x="641.89" y="-188.3" font-family="Times New Roman,serif" font-size="14.00">investment analyst</text>
</a>
</g>
</g>
<!-- 6&#45;&gt;1 -->
<g id="edge6" class="edge">
<title>6&#45;&gt;1</title>
<path fill="none" stroke="black" d="M641.89,-173.8C641.89,-162.16 641.89,-146.55 641.89,-133.24"/>
<polygon fill="black" stroke="black" points="645.39,-133.18 641.89,-123.18 638.39,-133.18 645.39,-133.18"/>
<text text-anchor="middle" x="657.39" y="-144.8" font-family="Times New Roman,serif" font-size="14.00">0.037</text>
</g>
<!-- 7&#45;&gt;1 -->
<g id="edge7" class="edge">
<title>7&#45;&gt;1</title>
<path fill="none" stroke="black" d="M747.52,-36.23C744.03,-46.88 738.16,-60.17 728.89,-69 719.96,-77.51 708.69,-84.05 697.25,-89.04"/>
<polygon fill="black" stroke="black" points="695.64,-85.91 687.65,-92.87 698.24,-92.41 695.64,-85.91"/>
<text text-anchor="middle" x="754.39" y="-57.8" font-family="Times New Roman,serif" font-size="14.00">0.037</text>
</g>
<!-- 8&#45;&gt;1 -->
<g id="edge8" class="edge">
<title>8&#45;&gt;1</title>
<path fill="none" stroke="black" d="M910.81,-35.82C897.05,-47.02 877.51,-61.08 857.89,-69 811.42,-87.77 755.49,-96.49 712.18,-100.53"/>
<polygon fill="black" stroke="black" points="711.68,-97.06 702.02,-101.41 712.29,-104.03 711.68,-97.06"/>
<text text-anchor="middle" x="900.39" y="-57.8" font-family="Times New Roman,serif" font-size="14.00">0.022</text>
</g>
<!-- 9 -->
<g id="node10" class="node">
<title>9</title>
<g id="a_node10"><a xlink:href="public house manager.svg" xlink:title="public house manager">
<ellipse fill="none" stroke="black" cx="825.89" cy="-192" rx="89.88" ry="18"/>
<text text-anchor="middle" x="825.89" y="-188.3" font-family="Times New Roman,serif" font-size="14.00">public house manager</text>
</a>
</g>
</g>
<!-- 9&#45;&gt;1 -->
<g id="edge9" class="edge">
<title>9&#45;&gt;1</title>
<path fill="none" stroke="black" d="M791.72,-175.21C760.88,-160.97 715.47,-139.99 682.73,-124.86"/>
<polygon fill="black" stroke="black" points="683.98,-121.59 673.43,-120.57 681.04,-127.94 683.98,-121.59"/>
<text text-anchor="middle" x="760.39" y="-144.8" font-family="Times New Roman,serif" font-size="14.00">0.022</text>
</g>
</g>
</svg>
