<?xml version="1.0" encoding="UTF-8" standalone="no"?>
<!DOCTYPE svg PUBLIC "-//W3C//DTD SVG 1.1//EN"
 "http://www.w3.org/Graphics/SVG/1.1/DTD/svg11.dtd">
<!-- Generated by graphviz version 2.44.1 (20200629.0800)
 -->
<!-- Title: housing_adviser Pages: 1 -->
<svg width="1208pt" height="218pt"
 viewBox="0.00 0.00 1207.58 218.00" xmlns="http://www.w3.org/2000/svg" xmlns:xlink="http://www.w3.org/1999/xlink">
<g id="graph0" class="graph" transform="scale(1 1) rotate(0) translate(4 214)">
<title>housing_adviser</title>
<polygon fill="white" stroke="transparent" points="-4,4 -4,-214 1203.58,-214 1203.58,4 -4,4"/>
<!-- 0 -->
<g id="node1" class="node">
<title>0</title>
<g id="a_node1"><a xlink:href="pharmacovigilance officer.svg" xlink:title="pharmacovigilance officer">
<ellipse fill="none" stroke="black" cx="104.64" cy="-192" rx="104.78" ry="18"/>
<text text-anchor="middle" x="104.64" y="-188.3" font-family="Times New Roman,serif" font-size="14.00">pharmacovigilance officer</text>
</a>
</g>
</g>
<!-- 1 -->
<g id="node2" class="node">
<title>1</title>
<g id="a_node2"><a xlink:href="housing adviser.svg" xlink:title="housing adviser">
<ellipse fill="none" stroke="black" cx="454.64" cy="-105" rx="67.69" ry="18"/>
<text text-anchor="middle" x="454.64" y="-101.3" font-family="Times New Roman,serif" font-size="14.00">housing adviser</text>
</a>
</g>
</g>
<!-- 0&#45;&gt;1 -->
<g id="edge1" class="edge">
<title>0&#45;&gt;1</title>
<path fill="none" stroke="black" d="M117.54,-174.12C127.25,-162.74 141.59,-148.49 157.64,-141 195.55,-123.3 303.45,-114.01 378.18,-109.56"/>
<polygon fill="black" stroke="black" points="378.71,-113.04 388.49,-108.97 378.31,-106.05 378.71,-113.04"/>
<text text-anchor="middle" x="173.14" y="-144.8" font-family="Times New Roman,serif" font-size="14.00">0.074</text>
</g>
<!-- 1&#45;&gt;0 -->
<g id="edge10" class="edge">
<title>1&#45;&gt;0</title>
<path fill="none" stroke="black" d="M406.35,-117.73C345.61,-132.48 240.98,-157.89 172.3,-174.57"/>
<polygon fill="black" stroke="black" points="171.33,-171.2 162.44,-176.96 172.98,-178.01 171.33,-171.2"/>
<text text-anchor="middle" x="316.14" y="-144.8" font-family="Times New Roman,serif" font-size="14.00">0.093</text>
</g>
<!-- 1&#45;&gt;1 -->
<g id="edge11" class="edge">
<title>1&#45;&gt;1</title>
<path fill="none" stroke="black" d="M515.81,-112.7C529.89,-112.04 540.23,-109.47 540.23,-105 540.23,-101.68 534.54,-99.41 525.84,-98.19"/>
<polygon fill="black" stroke="black" points="526.08,-94.7 515.81,-97.3 525.46,-101.67 526.08,-94.7"/>
<text text-anchor="middle" x="555.73" y="-101.3" font-family="Times New Roman,serif" font-size="14.00">0.073</text>
</g>
<!-- 2 -->
<g id="node3" class="node">
<title>2</title>
<g id="a_node3"><a xlink:href="production manager.svg" xlink:title="production manager">
<ellipse fill="none" stroke="black" cx="113.64" cy="-18" rx="83.39" ry="18"/>
<text text-anchor="middle" x="113.64" y="-14.3" font-family="Times New Roman,serif" font-size="14.00">production manager</text>
</a>
</g>
</g>
<!-- 1&#45;&gt;2 -->
<g id="edge12" class="edge">
<title>1&#45;&gt;2</title>
<path fill="none" stroke="black" d="M389.72,-99.7C320.44,-94.43 215.65,-84.25 178.64,-69 163.81,-62.89 149.45,-52.47 138.01,-42.73"/>
<polygon fill="black" stroke="black" points="140.03,-39.84 130.23,-35.82 135.38,-45.07 140.03,-39.84"/>
<text text-anchor="middle" x="194.14" y="-57.8" font-family="Times New Roman,serif" font-size="14.00">0.053</text>
</g>
<!-- 3 -->
<g id="node4" class="node">
<title>3</title>
<g id="a_node4"><a xlink:href="project manager.svg" xlink:title="project manager">
<ellipse fill="none" stroke="black" cx="283.64" cy="-18" rx="68.79" ry="18"/>
<text text-anchor="middle" x="283.64" y="-14.3" font-family="Times New Roman,serif" font-size="14.00">project manager</text>
</a>
</g>
</g>
<!-- 1&#45;&gt;3 -->
<g id="edge15" class="edge">
<title>1&#45;&gt;3</title>
<path fill="none" stroke="black" d="M389.99,-99.44C363.57,-94.87 334.02,-86.02 311.64,-69 303.73,-62.99 297.73,-54.05 293.36,-45.4"/>
<polygon fill="black" stroke="black" points="296.54,-43.93 289.23,-36.26 290.16,-46.81 296.54,-43.93"/>
<text text-anchor="middle" x="324.14" y="-57.8" font-family="Times New Roman,serif" font-size="14.00">0.04</text>
</g>
<!-- 9 -->
<g id="node10" class="node">
<title>9</title>
<g id="a_node10"><a xlink:href="curator.svg" xlink:title="curator">
<ellipse fill="none" stroke="black" cx="406.64" cy="-18" rx="36.29" ry="18"/>
<text text-anchor="middle" x="406.64" y="-14.3" font-family="Times New Roman,serif" font-size="14.00">curator</text>
</a>
</g>
</g>
<!-- 1&#45;&gt;9 -->
<g id="edge19" class="edge">
<title>1&#45;&gt;9</title>
<path fill="none" stroke="black" d="M422.73,-89.01C415.11,-83.8 407.94,-77.17 403.64,-69 400.02,-62.12 399.29,-53.95 399.88,-46.23"/>
<polygon fill="black" stroke="black" points="403.37,-46.54 401.35,-36.14 396.44,-45.54 403.37,-46.54"/>
<text text-anchor="middle" x="416.14" y="-57.8" font-family="Times New Roman,serif" font-size="14.00">0.02</text>
</g>
<!-- 10 -->
<g id="node11" class="node">
<title>10</title>
<g id="a_node11"><a xlink:href="careers adviser.svg" xlink:title="careers adviser">
<ellipse fill="none" stroke="black" cx="525.64" cy="-18" rx="64.99" ry="18"/>
<text text-anchor="middle" x="525.64" y="-14.3" font-family="Times New Roman,serif" font-size="14.00">careers adviser</text>
</a>
</g>
</g>
<!-- 1&#45;&gt;10 -->
<g id="edge13" class="edge">
<title>1&#45;&gt;10</title>
<path fill="none" stroke="black" d="M468.67,-87.21C479.07,-74.75 493.42,-57.57 505.11,-43.57"/>
<polygon fill="black" stroke="black" points="507.92,-45.68 511.64,-35.76 502.55,-41.19 507.92,-45.68"/>
<text text-anchor="middle" x="507.14" y="-57.8" font-family="Times New Roman,serif" font-size="14.00">0.04</text>
</g>
<!-- 11 -->
<g id="node12" class="node">
<title>11</title>
<g id="a_node12"><a xlink:href="investment analyst.svg" xlink:title="investment analyst">
<ellipse fill="none" stroke="black" cx="685.64" cy="-18" rx="76.89" ry="18"/>
<text text-anchor="middle" x="685.64" y="-14.3" font-family="Times New Roman,serif" font-size="14.00">investment analyst</text>
</a>
</g>
</g>
<!-- 1&#45;&gt;11 -->
<g id="edge14" class="edge">
<title>1&#45;&gt;11</title>
<path fill="none" stroke="black" d="M492.53,-90.06C531.91,-75.57 593.72,-52.83 636.76,-36.99"/>
<polygon fill="black" stroke="black" points="638.01,-40.26 646.19,-33.52 635.59,-33.69 638.01,-40.26"/>
<text text-anchor="middle" x="597.14" y="-57.8" font-family="Times New Roman,serif" font-size="14.00">0.04</text>
</g>
<!-- 12 -->
<g id="node13" class="node">
<title>12</title>
<g id="a_node13"><a xlink:href="lecturer.svg" xlink:title="lecturer">
<ellipse fill="none" stroke="black" cx="817.64" cy="-18" rx="37.89" ry="18"/>
<text text-anchor="middle" x="817.64" y="-14.3" font-family="Times New Roman,serif" font-size="14.00">lecturer</text>
</a>
</g>
</g>
<!-- 1&#45;&gt;12 -->
<g id="edge16" class="edge">
<title>1&#45;&gt;12</title>
<path fill="none" stroke="black" d="M509.93,-94.62C573.65,-83.23 681.24,-62.26 771.64,-36 774.4,-35.2 777.23,-34.31 780.07,-33.38"/>
<polygon fill="black" stroke="black" points="781.33,-36.65 789.63,-30.07 779.04,-30.03 781.33,-36.65"/>
<text text-anchor="middle" x="718.14" y="-57.8" font-family="Times New Roman,serif" font-size="14.00">0.033</text>
</g>
<!-- 13 -->
<g id="node14" class="node">
<title>13</title>
<g id="a_node14"><a xlink:href="sales manager.svg" xlink:title="sales manager">
<ellipse fill="none" stroke="black" cx="934.64" cy="-18" rx="61.19" ry="18"/>
<text text-anchor="middle" x="934.64" y="-14.3" font-family="Times New Roman,serif" font-size="14.00">sales manager</text>
</a>
</g>
</g>
<!-- 1&#45;&gt;13 -->
<g id="edge17" class="edge">
<title>1&#45;&gt;13</title>
<path fill="none" stroke="black" d="M517.94,-98.47C575.52,-92.89 662.71,-83.08 737.64,-69 787.51,-59.63 843.52,-45 883.03,-33.99"/>
<polygon fill="black" stroke="black" points="884.03,-37.35 892.71,-31.27 882.14,-30.61 884.03,-37.35"/>
<text text-anchor="middle" x="818.14" y="-57.8" font-family="Times New Roman,serif" font-size="14.00">0.026</text>
</g>
<!-- 14 -->
<g id="node15" class="node">
<title>14</title>
<g id="a_node15"><a xlink:href="broadcasting presenter.svg" xlink:title="broadcasting presenter">
<ellipse fill="none" stroke="black" cx="1106.64" cy="-18" rx="92.88" ry="18"/>
<text text-anchor="middle" x="1106.64" y="-14.3" font-family="Times New Roman,serif" font-size="14.00">broadcasting presenter</text>
</a>
</g>
</g>
<!-- 1&#45;&gt;14 -->
<g id="edge18" class="edge">
<title>1&#45;&gt;14</title>
<path fill="none" stroke="black" d="M519.57,-99.91C595.92,-94.67 726.36,-84.39 837.64,-69 905.64,-59.59 982.58,-44.88 1036.7,-33.84"/>
<polygon fill="black" stroke="black" points="1037.44,-37.26 1046.54,-31.82 1036.04,-30.4 1037.44,-37.26"/>
<text text-anchor="middle" x="939.14" y="-57.8" font-family="Times New Roman,serif" font-size="14.00">0.02</text>
</g>
<!-- 2&#45;&gt;1 -->
<g id="edge2" class="edge">
<title>2&#45;&gt;1</title>
<path fill="none" stroke="black" d="M153.29,-33.92C183.27,-44.78 225.62,-59.23 263.64,-69 304.08,-79.39 350.1,-87.92 386.83,-93.96"/>
<polygon fill="black" stroke="black" points="386.5,-97.45 396.93,-95.59 387.62,-90.54 386.5,-97.45"/>
<text text-anchor="middle" x="279.14" y="-57.8" font-family="Times New Roman,serif" font-size="14.00">0.053</text>
</g>
<!-- 3&#45;&gt;1 -->
<g id="edge3" class="edge">
<title>3&#45;&gt;1</title>
<path fill="none" stroke="black" d="M307.42,-35.01C323.46,-45.43 345.33,-58.91 365.64,-69 378.44,-75.36 392.7,-81.4 405.99,-86.62"/>
<polygon fill="black" stroke="black" points="404.87,-89.94 415.46,-90.27 407.38,-83.41 404.87,-89.94"/>
<text text-anchor="middle" x="381.14" y="-57.8" font-family="Times New Roman,serif" font-size="14.00">0.047</text>
</g>
<!-- 4 -->
<g id="node5" class="node">
<title>4</title>
<g id="a_node5"><a xlink:href="it consultant.svg" xlink:title="it consultant">
<ellipse fill="none" stroke="black" cx="281.64" cy="-192" rx="54.69" ry="18"/>
<text text-anchor="middle" x="281.64" y="-188.3" font-family="Times New Roman,serif" font-size="14.00">it consultant</text>
</a>
</g>
</g>
<!-- 4&#45;&gt;1 -->
<g id="edge4" class="edge">
<title>4&#45;&gt;1</title>
<path fill="none" stroke="black" d="M310.99,-176.58C339.59,-162.53 383.29,-141.06 414.98,-125.49"/>
<polygon fill="black" stroke="black" points="416.55,-128.61 423.98,-121.06 413.46,-122.33 416.55,-128.61"/>
<text text-anchor="middle" x="394.14" y="-144.8" font-family="Times New Roman,serif" font-size="14.00">0.042</text>
</g>
<!-- 5 -->
<g id="node6" class="node">
<title>5</title>
<g id="a_node6"><a xlink:href="investment fund manager.svg" xlink:title="investment fund manager">
<ellipse fill="none" stroke="black" cx="454.64" cy="-192" rx="100.98" ry="18"/>
<text text-anchor="middle" x="454.64" y="-188.3" font-family="Times New Roman,serif" font-size="14.00">investment fund manager</text>
</a>
</g>
</g>
<!-- 5&#45;&gt;1 -->
<g id="edge5" class="edge">
<title>5&#45;&gt;1</title>
<path fill="none" stroke="black" d="M454.64,-173.8C454.64,-162.16 454.64,-146.55 454.64,-133.24"/>
<polygon fill="black" stroke="black" points="458.14,-133.18 454.64,-123.18 451.14,-133.18 458.14,-133.18"/>
<text text-anchor="middle" x="470.14" y="-144.8" font-family="Times New Roman,serif" font-size="14.00">0.031</text>
</g>
<!-- 6 -->
<g id="node7" class="node">
<title>6</title>
<g id="a_node7"><a xlink:href="financial manager.svg" xlink:title="financial manager">
<ellipse fill="none" stroke="black" cx="646.64" cy="-192" rx="73.39" ry="18"/>
<text text-anchor="middle" x="646.64" y="-188.3" font-family="Times New Roman,serif" font-size="14.00">financial manager</text>
</a>
</g>
</g>
<!-- 6&#45;&gt;1 -->
<g id="edge6" class="edge">
<title>6&#45;&gt;1</title>
<path fill="none" stroke="black" d="M612.76,-176C580.58,-161.75 532.08,-140.28 497.29,-124.88"/>
<polygon fill="black" stroke="black" points="498.43,-121.56 487.86,-120.71 495.59,-127.96 498.43,-121.56"/>
<text text-anchor="middle" x="578.14" y="-144.8" font-family="Times New Roman,serif" font-size="14.00">0.026</text>
</g>
<!-- 7 -->
<g id="node8" class="node">
<title>7</title>
<g id="a_node8"><a xlink:href="heritage manager.svg" xlink:title="heritage manager">
<ellipse fill="none" stroke="black" cx="809.64" cy="-192" rx="71.49" ry="18"/>
<text text-anchor="middle" x="809.64" y="-188.3" font-family="Times New Roman,serif" font-size="14.00">heritage manager</text>
</a>
</g>
</g>
<!-- 7&#45;&gt;1 -->
<g id="edge7" class="edge">
<title>7&#45;&gt;1</title>
<path fill="none" stroke="black" d="M759.53,-179C694.59,-163.45 581.56,-136.39 512.87,-119.94"/>
<polygon fill="black" stroke="black" points="513.61,-116.52 503.07,-117.6 511.98,-123.33 513.61,-116.52"/>
<text text-anchor="middle" x="668.14" y="-144.8" font-family="Times New Roman,serif" font-size="14.00">0.026</text>
</g>
<!-- 8 -->
<g id="node9" class="node">
<title>8</title>
<g id="a_node9"><a xlink:href="office manager.svg" xlink:title="office manager">
<ellipse fill="none" stroke="black" cx="963.64" cy="-192" rx="64.19" ry="18"/>
<text text-anchor="middle" x="963.64" y="-188.3" font-family="Times New Roman,serif" font-size="14.00">office manager</text>
</a>
</g>
</g>
<!-- 8&#45;&gt;1 -->
<g id="edge8" class="edge">
<title>8&#45;&gt;1</title>
<path fill="none" stroke="black" d="M916.36,-179.67C907.51,-177.68 898.31,-175.7 889.64,-174 761.21,-148.78 609.99,-126.88 523.91,-115.14"/>
<polygon fill="black" stroke="black" points="524.38,-111.67 514,-113.79 523.44,-118.61 524.38,-111.67"/>
<text text-anchor="middle" x="798.14" y="-144.8" font-family="Times New Roman,serif" font-size="14.00">0.026</text>
</g>
<!-- 9&#45;&gt;1 -->
<g id="edge9" class="edge">
<title>9&#45;&gt;1</title>
<path fill="none" stroke="black" d="M419.6,-34.86C424.04,-40.68 428.84,-47.46 432.64,-54 436.93,-61.38 440.92,-69.75 444.3,-77.5"/>
<polygon fill="black" stroke="black" points="441.13,-79 448.22,-86.87 447.59,-76.29 441.13,-79"/>
<text text-anchor="middle" x="456.14" y="-57.8" font-family="Times New Roman,serif" font-size="14.00">0.021</text>
</g>
</g>
</svg>
