<?xml version="1.0" encoding="UTF-8" standalone="no"?>
<!DOCTYPE svg PUBLIC "-//W3C//DTD SVG 1.1//EN"
 "http://www.w3.org/Graphics/SVG/1.1/DTD/svg11.dtd">
<!-- Generated by graphviz version 2.44.1 (20200629.0800)
 -->
<!-- Title: test Pages: 1 -->
<svg width="1285pt" height="218pt"
 viewBox="0.00 0.00 1284.79 218.00" xmlns="http://www.w3.org/2000/svg" xmlns:xlink="http://www.w3.org/1999/xlink">
<g id="graph0" class="graph" transform="scale(1 1) rotate(0) translate(4 214)">
<title>test</title>
<polygon fill="white" stroke="transparent" points="-4,4 -4,-214 1280.79,-214 1280.79,4 -4,4"/>
<!-- 0 -->
<g id="node1" class="node">
<title>0</title>
<g id="a_node1"><a xlink:href="pharmacovigilance officer.svg" xlink:title="pharmacovigilance officer">
<ellipse fill="none" stroke="black" cx="291.99" cy="-192" rx="104.78" ry="18"/>
<text text-anchor="middle" x="291.99" y="-188.3" font-family="Times New Roman,serif" font-size="14.00">pharmacovigilance officer</text>
</a>
</g>
</g>
<!-- 1 -->
<g id="node2" class="node">
<title>1</title>
<g id="a_node2"><a xlink:href="human resources officer.svg" xlink:title="human resources officer">
<ellipse fill="none" stroke="black" cx="451.99" cy="-105" rx="98.58" ry="18"/>
<text text-anchor="middle" x="451.99" y="-101.3" font-family="Times New Roman,serif" font-size="14.00">human resources officer</text>
</a>
</g>
</g>
<!-- 0&#45;&gt;1 -->
<g id="edge1" class="edge">
<title>0&#45;&gt;1</title>
<path fill="none" stroke="black" d="M301.84,-173.88C308.93,-163 319.43,-149.41 331.99,-141 344.72,-132.48 359.54,-126 374.34,-121.08"/>
<polygon fill="black" stroke="black" points="375.53,-124.38 384.04,-118.07 373.45,-117.69 375.53,-124.38"/>
<text text-anchor="middle" x="347.49" y="-144.8" font-family="Times New Roman,serif" font-size="14.00">0.112</text>
</g>
<!-- 1&#45;&gt;0 -->
<g id="edge11" class="edge">
<title>1&#45;&gt;0</title>
<path fill="none" stroke="black" d="M423.75,-122.38C406.36,-132.34 383.53,-145.18 362.99,-156 353.97,-160.76 344.2,-165.7 334.89,-170.32"/>
<polygon fill="black" stroke="black" points="333.19,-167.25 325.77,-174.81 336.29,-173.53 333.19,-167.25"/>
<text text-anchor="middle" x="406.49" y="-144.8" font-family="Times New Roman,serif" font-size="14.00">0.134</text>
</g>
<!-- 1&#45;&gt;1 -->
<g id="edge10" class="edge">
<title>1&#45;&gt;1</title>
<path fill="none" stroke="black" d="M542.1,-112.38C557.84,-111.4 568.79,-108.94 568.79,-105 568.79,-101.99 562.37,-99.84 552.29,-98.55"/>
<polygon fill="black" stroke="black" points="552.37,-95.05 542.1,-97.62 551.74,-102.02 552.37,-95.05"/>
<text text-anchor="middle" x="584.29" y="-101.3" font-family="Times New Roman,serif" font-size="14.00">0.553</text>
</g>
<!-- 2 -->
<g id="node3" class="node">
<title>2</title>
<g id="a_node3"><a xlink:href="careers adviser.svg" xlink:title="careers adviser">
<ellipse fill="none" stroke="black" cx="64.99" cy="-18" rx="64.99" ry="18"/>
<text text-anchor="middle" x="64.99" y="-14.3" font-family="Times New Roman,serif" font-size="14.00">careers adviser</text>
</a>
</g>
</g>
<!-- 1&#45;&gt;2 -->
<g id="edge12" class="edge">
<title>1&#45;&gt;2</title>
<path fill="none" stroke="black" d="M354.38,-101.77C268.66,-98.41 151.37,-90.02 109.99,-69 98.72,-63.27 88.93,-53.45 81.39,-44.01"/>
<polygon fill="black" stroke="black" points="84.15,-41.85 75.36,-35.93 78.54,-46.04 84.15,-41.85"/>
<text text-anchor="middle" x="125.49" y="-57.8" font-family="Times New Roman,serif" font-size="14.00">0.100</text>
</g>
<!-- 3 -->
<g id="node4" class="node">
<title>3</title>
<g id="a_node4"><a xlink:href="it consultant.svg" xlink:title="it consultant">
<ellipse fill="none" stroke="black" cx="202.99" cy="-18" rx="54.69" ry="18"/>
<text text-anchor="middle" x="202.99" y="-14.3" font-family="Times New Roman,serif" font-size="14.00">it consultant</text>
</a>
</g>
</g>
<!-- 1&#45;&gt;3 -->
<g id="edge13" class="edge">
<title>1&#45;&gt;3</title>
<path fill="none" stroke="black" d="M366.12,-96.04C317.72,-90.32 262.88,-81.43 241.99,-69 232.1,-63.11 223.78,-53.69 217.4,-44.61"/>
<polygon fill="black" stroke="black" points="220.28,-42.6 211.89,-36.12 214.41,-46.42 220.28,-42.6"/>
<text text-anchor="middle" x="257.49" y="-57.8" font-family="Times New Roman,serif" font-size="14.00">0.067</text>
</g>
<!-- 4 -->
<g id="node5" class="node">
<title>4</title>
<g id="a_node5"><a xlink:href="project manager.svg" xlink:title="project manager">
<ellipse fill="none" stroke="black" cx="343.99" cy="-18" rx="68.79" ry="18"/>
<text text-anchor="middle" x="343.99" y="-14.3" font-family="Times New Roman,serif" font-size="14.00">project manager</text>
</a>
</g>
</g>
<!-- 1&#45;&gt;4 -->
<g id="edge14" class="edge">
<title>1&#45;&gt;4</title>
<path fill="none" stroke="black" d="M389.95,-90.9C377.66,-85.82 365.84,-78.77 356.99,-69 351.32,-62.74 348.06,-54.31 346.21,-46.16"/>
<polygon fill="black" stroke="black" points="349.64,-45.46 344.54,-36.17 342.74,-46.62 349.64,-45.46"/>
<text text-anchor="middle" x="372.49" y="-57.8" font-family="Times New Roman,serif" font-size="14.00">0.061</text>
</g>
<!-- 6 -->
<g id="node7" class="node">
<title>6</title>
<g id="a_node7"><a xlink:href="office manager.svg" xlink:title="office manager">
<ellipse fill="none" stroke="black" cx="494.99" cy="-18" rx="64.19" ry="18"/>
<text text-anchor="middle" x="494.99" y="-14.3" font-family="Times New Roman,serif" font-size="14.00">office manager</text>
</a>
</g>
</g>
<!-- 1&#45;&gt;6 -->
<g id="edge15" class="edge">
<title>1&#45;&gt;6</title>
<path fill="none" stroke="black" d="M446.88,-86.95C444.83,-76.86 443.97,-64.13 448.99,-54 451.45,-49.05 454.97,-44.62 458.98,-40.7"/>
<polygon fill="black" stroke="black" points="461.27,-43.35 466.63,-34.21 456.74,-38.02 461.27,-43.35"/>
<text text-anchor="middle" x="464.49" y="-57.8" font-family="Times New Roman,serif" font-size="14.00">0.033</text>
</g>
<!-- 8 -->
<g id="node9" class="node">
<title>8</title>
<g id="a_node9"><a xlink:href="sales manager.svg" xlink:title="sales manager">
<ellipse fill="none" stroke="black" cx="637.99" cy="-18" rx="61.19" ry="18"/>
<text text-anchor="middle" x="637.99" y="-14.3" font-family="Times New Roman,serif" font-size="14.00">sales manager</text>
</a>
</g>
</g>
<!-- 1&#45;&gt;8 -->
<g id="edge18" class="edge">
<title>1&#45;&gt;8</title>
<path fill="none" stroke="black" d="M486.98,-88.01C518.2,-73.74 563.95,-52.84 596.91,-37.78"/>
<polygon fill="black" stroke="black" points="598.63,-40.84 606.27,-33.5 595.72,-34.47 598.63,-40.84"/>
<text text-anchor="middle" x="571.49" y="-57.8" font-family="Times New Roman,serif" font-size="14.00">0.022</text>
</g>
<!-- 10 -->
<g id="node11" class="node">
<title>10</title>
<g id="a_node11"><a xlink:href="health and safety adviser.svg" xlink:title="health and safety adviser">
<ellipse fill="none" stroke="black" cx="816.99" cy="-18" rx="99.38" ry="18"/>
<text text-anchor="middle" x="816.99" y="-14.3" font-family="Times New Roman,serif" font-size="14.00">health and safety adviser</text>
</a>
</g>
</g>
<!-- 1&#45;&gt;10 -->
<g id="edge16" class="edge">
<title>1&#45;&gt;10</title>
<path fill="none" stroke="black" d="M526.52,-93.16C564.33,-87.1 610.84,-78.8 651.99,-69 689.33,-60.11 730.67,-47.58 762.62,-37.29"/>
<polygon fill="black" stroke="black" points="763.79,-40.59 772.22,-34.17 761.63,-33.93 763.79,-40.59"/>
<text text-anchor="middle" x="721.49" y="-57.8" font-family="Times New Roman,serif" font-size="14.00">0.022</text>
</g>
<!-- 11 -->
<g id="node12" class="node">
<title>11</title>
<g id="a_node12"><a xlink:href="public house manager.svg" xlink:title="public house manager">
<ellipse fill="none" stroke="black" cx="1023.99" cy="-18" rx="89.88" ry="18"/>
<text text-anchor="middle" x="1023.99" y="-14.3" font-family="Times New Roman,serif" font-size="14.00">public house manager</text>
</a>
</g>
</g>
<!-- 1&#45;&gt;11 -->
<g id="edge17" class="edge">
<title>1&#45;&gt;11</title>
<path fill="none" stroke="black" d="M535,-95.16C592.85,-88.7 671.76,-79.3 740.99,-69 812.92,-58.3 894.68,-43.58 951.76,-32.88"/>
<polygon fill="black" stroke="black" points="952.58,-36.29 961.77,-31 951.29,-29.41 952.58,-36.29"/>
<text text-anchor="middle" x="841.49" y="-57.8" font-family="Times New Roman,serif" font-size="14.00">0.022</text>
</g>
<!-- 12 -->
<g id="node13" class="node">
<title>12</title>
<g id="a_node13"><a xlink:href="facilities manager.svg" xlink:title="facilities manager">
<ellipse fill="none" stroke="black" cx="1203.99" cy="-18" rx="72.59" ry="18"/>
<text text-anchor="middle" x="1203.99" y="-14.3" font-family="Times New Roman,serif" font-size="14.00">facilities manager</text>
</a>
</g>
</g>
<!-- 1&#45;&gt;12 -->
<g id="edge19" class="edge">
<title>1&#45;&gt;12</title>
<path fill="none" stroke="black" d="M544.21,-98.47C674.02,-89.82 917.73,-70.41 1122.99,-36 1129.13,-34.97 1135.51,-33.8 1141.88,-32.57"/>
<polygon fill="black" stroke="black" points="1142.7,-35.98 1151.83,-30.6 1141.34,-29.11 1142.7,-35.98"/>
<text text-anchor="middle" x="1010.49" y="-57.8" font-family="Times New Roman,serif" font-size="14.00">0.016</text>
</g>
<!-- 2&#45;&gt;1 -->
<g id="edge2" class="edge">
<title>2&#45;&gt;1</title>
<path fill="none" stroke="black" d="M96.12,-33.83C121.19,-45.17 157.64,-60.29 190.99,-69 243.34,-82.68 303.07,-91.19 352.17,-96.39"/>
<polygon fill="black" stroke="black" points="351.85,-99.87 362.16,-97.41 352.57,-92.91 351.85,-99.87"/>
<text text-anchor="middle" x="206.49" y="-57.8" font-family="Times New Roman,serif" font-size="14.00">0.066</text>
</g>
<!-- 3&#45;&gt;1 -->
<g id="edge3" class="edge">
<title>3&#45;&gt;1</title>
<path fill="none" stroke="black" d="M231.64,-33.58C253.73,-44.4 285.26,-58.97 313.99,-69 335.34,-76.45 359.06,-83.05 380.72,-88.45"/>
<polygon fill="black" stroke="black" points="379.97,-91.87 390.52,-90.84 381.63,-85.07 379.97,-91.87"/>
<text text-anchor="middle" x="329.49" y="-57.8" font-family="Times New Roman,serif" font-size="14.00">0.056</text>
</g>
<!-- 4&#45;&gt;1 -->
<g id="edge4" class="edge">
<title>4&#45;&gt;1</title>
<path fill="none" stroke="black" d="M364.65,-35.26C381.15,-48.24 404.46,-66.59 422.85,-81.06"/>
<polygon fill="black" stroke="black" points="420.89,-83.98 430.91,-87.41 425.22,-78.47 420.89,-83.98"/>
<text text-anchor="middle" x="420.49" y="-57.8" font-family="Times New Roman,serif" font-size="14.00">0.046</text>
</g>
<!-- 5 -->
<g id="node6" class="node">
<title>5</title>
<g id="a_node6"><a xlink:href="lecturer.svg" xlink:title="lecturer">
<ellipse fill="none" stroke="black" cx="451.99" cy="-192" rx="37.89" ry="18"/>
<text text-anchor="middle" x="451.99" y="-188.3" font-family="Times New Roman,serif" font-size="14.00">lecturer</text>
</a>
</g>
</g>
<!-- 5&#45;&gt;1 -->
<g id="edge5" class="edge">
<title>5&#45;&gt;1</title>
<path fill="none" stroke="black" d="M451.99,-173.8C451.99,-162.16 451.99,-146.55 451.99,-133.24"/>
<polygon fill="black" stroke="black" points="455.49,-133.18 451.99,-123.18 448.49,-133.18 455.49,-133.18"/>
<text text-anchor="middle" x="467.49" y="-144.8" font-family="Times New Roman,serif" font-size="14.00">0.019</text>
</g>
<!-- 6&#45;&gt;1 -->
<g id="edge6" class="edge">
<title>6&#45;&gt;1</title>
<path fill="none" stroke="black" d="M493.42,-36.43C491.98,-46.4 489.23,-58.9 483.99,-69 482.13,-72.6 479.8,-76.1 477.25,-79.42"/>
<polygon fill="black" stroke="black" points="474.42,-77.35 470.61,-87.23 479.75,-81.88 474.42,-77.35"/>
<text text-anchor="middle" x="505.49" y="-57.8" font-family="Times New Roman,serif" font-size="14.00">0.016</text>
</g>
<!-- 7 -->
<g id="node8" class="node">
<title>7</title>
<g id="a_node8"><a xlink:href="personal assistant.svg" xlink:title="personal assistant">
<ellipse fill="none" stroke="black" cx="581.99" cy="-192" rx="74.99" ry="18"/>
<text text-anchor="middle" x="581.99" y="-188.3" font-family="Times New Roman,serif" font-size="14.00">personal assistant</text>
</a>
</g>
</g>
<!-- 7&#45;&gt;1 -->
<g id="edge7" class="edge">
<title>7&#45;&gt;1</title>
<path fill="none" stroke="black" d="M557.24,-174.81C536.95,-161.54 508.03,-142.64 485.64,-128"/>
<polygon fill="black" stroke="black" points="487.39,-124.96 477.1,-122.42 483.56,-130.82 487.39,-124.96"/>
<text text-anchor="middle" x="540.49" y="-144.8" font-family="Times New Roman,serif" font-size="14.00">0.016</text>
</g>
<!-- 8&#45;&gt;1 -->
<g id="edge8" class="edge">
<title>8&#45;&gt;1</title>
<path fill="none" stroke="black" d="M629.59,-35.85C623.22,-46.92 613.44,-60.81 600.99,-69 584.29,-80 564.52,-87.56 544.94,-92.74"/>
<polygon fill="black" stroke="black" points="543.92,-89.39 535.05,-95.18 545.59,-96.19 543.92,-89.39"/>
<text text-anchor="middle" x="632.49" y="-57.8" font-family="Times New Roman,serif" font-size="14.00">0.016</text>
</g>
<!-- 9 -->
<g id="node10" class="node">
<title>9</title>
<g id="a_node10"><a xlink:href="education administrator.svg" xlink:title="education administrator">
<ellipse fill="none" stroke="black" cx="769.99" cy="-192" rx="95.58" ry="18"/>
<text text-anchor="middle" x="769.99" y="-188.3" font-family="Times New Roman,serif" font-size="14.00">education administrator</text>
</a>
</g>
</g>
<!-- 9&#45;&gt;1 -->
<g id="edge9" class="edge">
<title>9&#45;&gt;1</title>
<path fill="none" stroke="black" d="M717.13,-176.87C661.61,-162.03 574.34,-138.7 515.22,-122.9"/>
<polygon fill="black" stroke="black" points="515.82,-119.44 505.25,-120.24 514.01,-126.2 515.82,-119.44"/>
<text text-anchor="middle" x="645.49" y="-144.8" font-family="Times New Roman,serif" font-size="14.00">0.013</text>
</g>
</g>
</svg>
