<?xml version="1.0" encoding="UTF-8" standalone="no"?>
<!DOCTYPE svg PUBLIC "-//W3C//DTD SVG 1.1//EN"
 "http://www.w3.org/Graphics/SVG/1.1/DTD/svg11.dtd">
<!-- Generated by graphviz version 2.44.1 (20200629.0800)
 -->
<!-- Title: test Pages: 1 -->
<svg width="1220pt" height="218pt"
 viewBox="0.00 0.00 1219.89 218.00" xmlns="http://www.w3.org/2000/svg" xmlns:xlink="http://www.w3.org/1999/xlink">
<g id="graph0" class="graph" transform="scale(1 1) rotate(0) translate(4 214)">
<title>test</title>
<polygon fill="white" stroke="transparent" points="-4,4 -4,-214 1215.89,-214 1215.89,4 -4,4"/>
<!-- 0 -->
<g id="node1" class="node">
<title>0</title>
<g id="a_node1"><a xlink:href="lecturer.svg" xlink:title="lecturer">
<ellipse fill="none" stroke="black" cx="37.7" cy="-192" rx="37.89" ry="18"/>
<text text-anchor="middle" x="37.7" y="-188.3" font-family="Times New Roman,serif" font-size="14.00">lecturer</text>
</a>
</g>
</g>
<!-- 1 -->
<g id="node2" class="node">
<title>1</title>
<g id="a_node2"><a xlink:href="hydrologist.svg" xlink:title="hydrologist">
<ellipse fill="none" stroke="black" cx="516.7" cy="-105" rx="51.99" ry="18"/>
<text text-anchor="middle" x="516.7" y="-101.3" font-family="Times New Roman,serif" font-size="14.00">hydrologist</text>
</a>
</g>
</g>
<!-- 0&#45;&gt;1 -->
<g id="edge1" class="edge">
<title>0&#45;&gt;1</title>
<path fill="none" stroke="black" d="M40.25,-173.77C42.88,-162.53 48.16,-148.6 58.7,-141 90.05,-118.39 336.65,-109.95 454.45,-107.19"/>
<polygon fill="black" stroke="black" points="454.84,-110.68 464.76,-106.95 454.68,-103.68 454.84,-110.68"/>
<text text-anchor="middle" x="74.2" y="-144.8" font-family="Times New Roman,serif" font-size="14.00">0.136</text>
</g>
<!-- 1&#45;&gt;0 -->
<g id="edge11" class="edge">
<title>1&#45;&gt;0</title>
<path fill="none" stroke="black" d="M467.01,-110.54C385.82,-118.69 220.08,-138.35 83.7,-174 80.92,-174.73 78.07,-175.56 75.22,-176.45"/>
<polygon fill="black" stroke="black" points="74,-173.17 65.64,-179.68 76.23,-179.81 74,-173.17"/>
<text text-anchor="middle" x="250.2" y="-144.8" font-family="Times New Roman,serif" font-size="14.00">0.08</text>
</g>
<!-- 1&#45;&gt;1 -->
<g id="edge18" class="edge">
<title>1&#45;&gt;1</title>
<path fill="none" stroke="black" d="M563.8,-112.83C576.78,-112.45 586.69,-109.84 586.69,-105 586.69,-101.52 581.57,-99.2 573.87,-98.02"/>
<polygon fill="black" stroke="black" points="574.06,-94.53 563.8,-97.17 573.47,-101.5 574.06,-94.53"/>
<text text-anchor="middle" x="599.19" y="-101.3" font-family="Times New Roman,serif" font-size="14.00">0.04</text>
</g>
<!-- 2 -->
<g id="node3" class="node">
<title>2</title>
<g id="a_node3"><a xlink:href="it consultant.svg" xlink:title="it consultant">
<ellipse fill="none" stroke="black" cx="54.7" cy="-18" rx="54.69" ry="18"/>
<text text-anchor="middle" x="54.7" y="-14.3" font-family="Times New Roman,serif" font-size="14.00">it consultant</text>
</a>
</g>
</g>
<!-- 1&#45;&gt;2 -->
<g id="edge19" class="edge">
<title>1&#45;&gt;2</title>
<path fill="none" stroke="black" d="M465.01,-102.54C399.64,-99.78 283.97,-91.82 187.7,-69 155.56,-61.38 120.66,-48.05 94.67,-37.07"/>
<polygon fill="black" stroke="black" points="95.74,-33.73 85.17,-33 92.98,-40.16 95.74,-33.73"/>
<text text-anchor="middle" x="200.2" y="-57.8" font-family="Times New Roman,serif" font-size="14.00">0.04</text>
</g>
<!-- 10 -->
<g id="node11" class="node">
<title>10</title>
<g id="a_node11"><a xlink:href="sales manager.svg" xlink:title="sales manager">
<ellipse fill="none" stroke="black" cx="188.7" cy="-18" rx="61.19" ry="18"/>
<text text-anchor="middle" x="188.7" y="-14.3" font-family="Times New Roman,serif" font-size="14.00">sales manager</text>
</a>
</g>
</g>
<!-- 1&#45;&gt;10 -->
<g id="edge10" class="edge">
<title>1&#45;&gt;10</title>
<path fill="none" stroke="black" d="M476.48,-93.58C417.74,-78.36 308.35,-50.01 242.67,-32.99"/>
<polygon fill="black" stroke="black" points="243.47,-29.58 232.91,-30.46 241.71,-36.35 243.47,-29.58"/>
<text text-anchor="middle" x="385.2" y="-57.8" font-family="Times New Roman,serif" font-size="14.00">0.12</text>
</g>
<!-- 11 -->
<g id="node12" class="node">
<title>11</title>
<g id="a_node12"><a xlink:href="academic librarian.svg" xlink:title="academic librarian">
<ellipse fill="none" stroke="black" cx="343.7" cy="-18" rx="76.09" ry="18"/>
<text text-anchor="middle" x="343.7" y="-14.3" font-family="Times New Roman,serif" font-size="14.00">academic librarian</text>
</a>
</g>
</g>
<!-- 1&#45;&gt;11 -->
<g id="edge12" class="edge">
<title>1&#45;&gt;11</title>
<path fill="none" stroke="black" d="M487.74,-89.77C459.38,-75.84 415.9,-54.48 384.13,-38.87"/>
<polygon fill="black" stroke="black" points="385.61,-35.69 375.09,-34.43 382.52,-41.98 385.61,-35.69"/>
<text text-anchor="middle" x="453.2" y="-57.8" font-family="Times New Roman,serif" font-size="14.00">0.04</text>
</g>
<!-- 12 -->
<g id="node13" class="node">
<title>12</title>
<g id="a_node13"><a xlink:href="community worker.svg" xlink:title="community worker">
<ellipse fill="none" stroke="black" cx="516.7" cy="-18" rx="79.09" ry="18"/>
<text text-anchor="middle" x="516.7" y="-14.3" font-family="Times New Roman,serif" font-size="14.00">community worker</text>
</a>
</g>
</g>
<!-- 1&#45;&gt;12 -->
<g id="edge13" class="edge">
<title>1&#45;&gt;12</title>
<path fill="none" stroke="black" d="M516.7,-86.8C516.7,-75.16 516.7,-59.55 516.7,-46.24"/>
<polygon fill="black" stroke="black" points="520.2,-46.18 516.7,-36.18 513.2,-46.18 520.2,-46.18"/>
<text text-anchor="middle" x="529.2" y="-57.8" font-family="Times New Roman,serif" font-size="14.00">0.04</text>
</g>
<!-- 13 -->
<g id="node14" class="node">
<title>13</title>
<g id="a_node14"><a xlink:href="electrical engineer.svg" xlink:title="electrical engineer">
<ellipse fill="none" stroke="black" cx="688.7" cy="-18" rx="74.99" ry="18"/>
<text text-anchor="middle" x="688.7" y="-14.3" font-family="Times New Roman,serif" font-size="14.00">electrical engineer</text>
</a>
</g>
</g>
<!-- 1&#45;&gt;13 -->
<g id="edge14" class="edge">
<title>1&#45;&gt;13</title>
<path fill="none" stroke="black" d="M545.49,-89.77C573.69,-75.84 616.91,-54.48 648.5,-38.87"/>
<polygon fill="black" stroke="black" points="650.07,-41.99 657.48,-34.43 646.97,-35.72 650.07,-41.99"/>
<text text-anchor="middle" x="626.2" y="-57.8" font-family="Times New Roman,serif" font-size="14.00">0.04</text>
</g>
<!-- 14 -->
<g id="node15" class="node">
<title>14</title>
<g id="a_node15"><a xlink:href="environmental scientist.svg" xlink:title="environmental scientist">
<ellipse fill="none" stroke="black" cx="874.7" cy="-18" rx="92.88" ry="18"/>
<text text-anchor="middle" x="874.7" y="-14.3" font-family="Times New Roman,serif" font-size="14.00">environmental scientist</text>
</a>
</g>
</g>
<!-- 1&#45;&gt;14 -->
<g id="edge15" class="edge">
<title>1&#45;&gt;14</title>
<path fill="none" stroke="black" d="M558.46,-94.08C619.86,-79.51 735.07,-52.15 808.19,-34.79"/>
<polygon fill="black" stroke="black" points="809.29,-38.13 818.21,-32.41 807.68,-31.32 809.29,-38.13"/>
<text text-anchor="middle" x="729.2" y="-57.8" font-family="Times New Roman,serif" font-size="14.00">0.04</text>
</g>
<!-- 15 -->
<g id="node16" class="node">
<title>15</title>
<g id="a_node16"><a xlink:href="food scientist.svg" xlink:title="food scientist">
<ellipse fill="none" stroke="black" cx="1045.7" cy="-18" rx="59.59" ry="18"/>
<text text-anchor="middle" x="1045.7" y="-14.3" font-family="Times New Roman,serif" font-size="14.00">food scientist</text>
</a>
</g>
</g>
<!-- 1&#45;&gt;15 -->
<g id="edge16" class="edge">
<title>1&#45;&gt;15</title>
<path fill="none" stroke="black" d="M565.3,-98.35C649.5,-88.23 827.78,-65.28 976.7,-36 981.71,-35.01 986.91,-33.9 992.11,-32.73"/>
<polygon fill="black" stroke="black" points="993.09,-36.09 1002.03,-30.42 991.5,-29.28 993.09,-36.09"/>
<text text-anchor="middle" x="888.2" y="-57.8" font-family="Times New Roman,serif" font-size="14.00">0.04</text>
</g>
<!-- 16 -->
<g id="node17" class="node">
<title>16</title>
<g id="a_node17"><a xlink:href="geneticist.svg" xlink:title="geneticist">
<ellipse fill="none" stroke="black" cx="1167.7" cy="-18" rx="44.39" ry="18"/>
<text text-anchor="middle" x="1167.7" y="-14.3" font-family="Times New Roman,serif" font-size="14.00">geneticist</text>
</a>
</g>
</g>
<!-- 1&#45;&gt;16 -->
<g id="edge17" class="edge">
<title>1&#45;&gt;16</title>
<path fill="none" stroke="black" d="M568.21,-102.29C672.63,-97.93 916.2,-83.13 1114.7,-36 1118.14,-35.18 1121.68,-34.25 1125.22,-33.26"/>
<polygon fill="black" stroke="black" points="1126.53,-36.52 1135.12,-30.32 1124.54,-29.81 1126.53,-36.52"/>
<text text-anchor="middle" x="1030.2" y="-57.8" font-family="Times New Roman,serif" font-size="14.00">0.04</text>
</g>
<!-- 2&#45;&gt;1 -->
<g id="edge2" class="edge">
<title>2&#45;&gt;1</title>
<path fill="none" stroke="black" d="M95.21,-30.27C102.98,-32.29 111.07,-34.29 118.7,-36 238.82,-62.92 381.43,-84.91 459.15,-96.06"/>
<polygon fill="black" stroke="black" points="458.82,-99.55 469.21,-97.5 459.81,-92.62 458.82,-99.55"/>
<text text-anchor="middle" x="298.2" y="-57.8" font-family="Times New Roman,serif" font-size="14.00">0.090</text>
</g>
<!-- 3 -->
<g id="node4" class="node">
<title>3</title>
<g id="a_node4"><a xlink:href="research scientist.svg" xlink:title="research scientist">
<ellipse fill="none" stroke="black" cx="165.7" cy="-192" rx="72.59" ry="18"/>
<text text-anchor="middle" x="165.7" y="-188.3" font-family="Times New Roman,serif" font-size="14.00">research scientist</text>
</a>
</g>
</g>
<!-- 3&#45;&gt;1 -->
<g id="edge3" class="edge">
<title>3&#45;&gt;1</title>
<path fill="none" stroke="black" d="M215.99,-178.82C282.34,-162.75 398.51,-134.62 465.38,-118.43"/>
<polygon fill="black" stroke="black" points="466.38,-121.79 475.27,-116.03 464.73,-114.98 466.38,-121.79"/>
<text text-anchor="middle" x="378.2" y="-144.8" font-family="Times New Roman,serif" font-size="14.00">0.090</text>
</g>
<!-- 4 -->
<g id="node5" class="node">
<title>4</title>
<g id="a_node5"><a xlink:href="structural engineer.svg" xlink:title="structural engineer">
<ellipse fill="none" stroke="black" cx="332.7" cy="-192" rx="76.89" ry="18"/>
<text text-anchor="middle" x="332.7" y="-188.3" font-family="Times New Roman,serif" font-size="14.00">structural engineer</text>
</a>
</g>
</g>
<!-- 4&#45;&gt;1 -->
<g id="edge4" class="edge">
<title>4&#45;&gt;1</title>
<path fill="none" stroke="black" d="M366.02,-175.61C397.31,-161.15 444.15,-139.51 477.29,-124.21"/>
<polygon fill="black" stroke="black" points="479.06,-127.24 486.67,-119.87 476.12,-120.89 479.06,-127.24"/>
<text text-anchor="middle" x="452.2" y="-144.8" font-family="Times New Roman,serif" font-size="14.00">0.090</text>
</g>
<!-- 5 -->
<g id="node6" class="node">
<title>5</title>
<g id="a_node6"><a xlink:href="agricultural consultant.svg" xlink:title="agricultural consultant">
<ellipse fill="none" stroke="black" cx="516.7" cy="-192" rx="89.88" ry="18"/>
<text text-anchor="middle" x="516.7" y="-188.3" font-family="Times New Roman,serif" font-size="14.00">agricultural consultant</text>
</a>
</g>
</g>
<!-- 5&#45;&gt;1 -->
<g id="edge5" class="edge">
<title>5&#45;&gt;1</title>
<path fill="none" stroke="black" d="M516.7,-173.8C516.7,-162.16 516.7,-146.55 516.7,-133.24"/>
<polygon fill="black" stroke="black" points="520.2,-133.18 516.7,-123.18 513.2,-133.18 520.2,-133.18"/>
<text text-anchor="middle" x="532.2" y="-144.8" font-family="Times New Roman,serif" font-size="14.00">0.045</text>
</g>
<!-- 6 -->
<g id="node7" class="node">
<title>6</title>
<g id="a_node7"><a xlink:href="cartographer.svg" xlink:title="cartographer">
<ellipse fill="none" stroke="black" cx="680.7" cy="-192" rx="56.59" ry="18"/>
<text text-anchor="middle" x="680.7" y="-188.3" font-family="Times New Roman,serif" font-size="14.00">cartographer</text>
</a>
</g>
</g>
<!-- 6&#45;&gt;1 -->
<g id="edge6" class="edge">
<title>6&#45;&gt;1</title>
<path fill="none" stroke="black" d="M652.5,-176.39C625.03,-162.15 583.13,-140.43 553.14,-124.89"/>
<polygon fill="black" stroke="black" points="554.74,-121.77 544.25,-120.28 551.52,-127.99 554.74,-121.77"/>
<text text-anchor="middle" x="624.2" y="-144.8" font-family="Times New Roman,serif" font-size="14.00">0.045</text>
</g>
<!-- 7 -->
<g id="node8" class="node">
<title>7</title>
<g id="a_node8"><a xlink:href="commercial horticulturist.svg" xlink:title="commercial horticulturist">
<ellipse fill="none" stroke="black" cx="855.7" cy="-192" rx="100.98" ry="18"/>
<text text-anchor="middle" x="855.7" y="-188.3" font-family="Times New Roman,serif" font-size="14.00">commercial horticulturist</text>
</a>
</g>
</g>
<!-- 7&#45;&gt;1 -->
<g id="edge7" class="edge">
<title>7&#45;&gt;1</title>
<path fill="none" stroke="black" d="M799.72,-176.96C735.14,-160.77 629.88,-134.38 567.55,-118.75"/>
<polygon fill="black" stroke="black" points="568.11,-115.28 557.56,-116.25 566.41,-122.07 568.11,-115.28"/>
<text text-anchor="middle" x="721.2" y="-144.8" font-family="Times New Roman,serif" font-size="14.00">0.045</text>
</g>
<!-- 8 -->
<g id="node9" class="node">
<title>8</title>
<g id="a_node9"><a xlink:href="curator.svg" xlink:title="curator">
<ellipse fill="none" stroke="black" cx="1010.7" cy="-192" rx="36.29" ry="18"/>
<text text-anchor="middle" x="1010.7" y="-188.3" font-family="Times New Roman,serif" font-size="14.00">curator</text>
</a>
</g>
</g>
<!-- 8&#45;&gt;1 -->
<g id="edge8" class="edge">
<title>8&#45;&gt;1</title>
<path fill="none" stroke="black" d="M983.87,-179.81C977.96,-177.64 971.68,-175.56 965.7,-174 829.18,-138.3 664.09,-119.28 577.1,-111.07"/>
<polygon fill="black" stroke="black" points="577.17,-107.56 566.89,-110.12 576.52,-114.53 577.17,-107.56"/>
<text text-anchor="middle" x="896.2" y="-144.8" font-family="Times New Roman,serif" font-size="14.00">0.045</text>
</g>
<!-- 9 -->
<g id="node10" class="node">
<title>9</title>
<g id="a_node10"><a xlink:href="office manager.svg" xlink:title="office manager">
<ellipse fill="none" stroke="black" cx="1129.7" cy="-192" rx="64.19" ry="18"/>
<text text-anchor="middle" x="1129.7" y="-188.3" font-family="Times New Roman,serif" font-size="14.00">office manager</text>
</a>
</g>
</g>
<!-- 9&#45;&gt;1 -->
<g id="edge9" class="edge">
<title>9&#45;&gt;1</title>
<path fill="none" stroke="black" d="M1085.8,-178.81C1042.79,-167.33 975.22,-150.52 915.7,-141 797.08,-122.04 656.87,-112.73 578.21,-108.68"/>
<polygon fill="black" stroke="black" points="578.16,-105.17 568,-108.17 577.81,-112.17 578.16,-105.17"/>
<text text-anchor="middle" x="1008.2" y="-144.8" font-family="Times New Roman,serif" font-size="14.00">0.045</text>
</g>
</g>
</svg>
