<?xml version="1.0" encoding="UTF-8" standalone="no"?>
<!DOCTYPE svg PUBLIC "-//W3C//DTD SVG 1.1//EN"
 "http://www.w3.org/Graphics/SVG/1.1/DTD/svg11.dtd">
<!-- Generated by graphviz version 2.44.1 (20200629.0800)
 -->
<!-- Title: illustrator Pages: 1 -->
<svg width="750pt" height="218pt"
 viewBox="0.00 0.00 749.59 218.00" xmlns="http://www.w3.org/2000/svg" xmlns:xlink="http://www.w3.org/1999/xlink">
<g id="graph0" class="graph" transform="scale(1 1) rotate(0) translate(4 214)">
<title>illustrator</title>
<polygon fill="white" stroke="transparent" points="-4,4 -4,-214 745.59,-214 745.59,4 -4,4"/>
<!-- 0 -->
<g id="node1" class="node">
<title>0</title>
<g id="a_node1"><a xlink:href="environmental manager.svg" xlink:title="environmental manager">
<ellipse fill="none" stroke="black" cx="93.59" cy="-192" rx="93.68" ry="18"/>
<text text-anchor="middle" x="93.59" y="-188.3" font-family="Times New Roman,serif" font-size="14.00">environmental manager</text>
</a>
</g>
</g>
<!-- 1 -->
<g id="node2" class="node">
<title>1</title>
<g id="a_node2"><a xlink:href="illustrator.svg" xlink:title="illustrator">
<ellipse fill="none" stroke="black" cx="383.59" cy="-105" rx="44.39" ry="18"/>
<text text-anchor="middle" x="383.59" y="-101.3" font-family="Times New Roman,serif" font-size="14.00">illustrator</text>
</a>
</g>
</g>
<!-- 0&#45;&gt;1 -->
<g id="edge1" class="edge">
<title>0&#45;&gt;1</title>
<path fill="none" stroke="black" d="M142.79,-176.58C197.74,-160.47 285.93,-134.62 338.96,-119.08"/>
<polygon fill="black" stroke="black" points="340.15,-122.38 348.76,-116.21 338.18,-115.66 340.15,-122.38"/>
<text text-anchor="middle" x="265.59" y="-144.8" font-family="Times New Roman,serif" font-size="14.00">0.1</text>
</g>
<!-- 1&#45;&gt;1 -->
<g id="edge6" class="edge">
<title>1&#45;&gt;1</title>
<path fill="none" stroke="black" d="M423.37,-112.87C435.9,-112.75 445.79,-110.13 445.79,-105 445.79,-101.4 440.9,-99.03 433.64,-97.9"/>
<polygon fill="black" stroke="black" points="433.6,-94.39 423.37,-97.13 433.08,-101.37 433.6,-94.39"/>
<text text-anchor="middle" x="458.29" y="-101.3" font-family="Times New Roman,serif" font-size="14.00">1.25</text>
</g>
<!-- 3 -->
<g id="node4" class="node">
<title>3</title>
<g id="a_node4"><a xlink:href="sales manager.svg" xlink:title="sales manager">
<ellipse fill="none" stroke="black" cx="256.59" cy="-18" rx="61.19" ry="18"/>
<text text-anchor="middle" x="256.59" y="-14.3" font-family="Times New Roman,serif" font-size="14.00">sales manager</text>
</a>
</g>
</g>
<!-- 1&#45;&gt;3 -->
<g id="edge9" class="edge">
<title>1&#45;&gt;3</title>
<path fill="none" stroke="black" d="M343.62,-97.12C323.79,-92.05 300.53,-83.44 283.59,-69 276.28,-62.77 270.63,-54.04 266.43,-45.62"/>
<polygon fill="black" stroke="black" points="269.58,-44.09 262.29,-36.4 263.19,-46.96 269.58,-44.09"/>
<text text-anchor="middle" x="296.09" y="-57.8" font-family="Times New Roman,serif" font-size="14.00">0.25</text>
</g>
<!-- 6 -->
<g id="node7" class="node">
<title>6</title>
<g id="a_node7"><a xlink:href="paramedic.svg" xlink:title="paramedic">
<ellipse fill="none" stroke="black" cx="383.59" cy="-18" rx="48.19" ry="18"/>
<text text-anchor="middle" x="383.59" y="-14.3" font-family="Times New Roman,serif" font-size="14.00">paramedic</text>
</a>
</g>
</g>
<!-- 1&#45;&gt;6 -->
<g id="edge7" class="edge">
<title>1&#45;&gt;6</title>
<path fill="none" stroke="black" d="M383.59,-86.8C383.59,-75.16 383.59,-59.55 383.59,-46.24"/>
<polygon fill="black" stroke="black" points="387.09,-46.18 383.59,-36.18 380.09,-46.18 387.09,-46.18"/>
<text text-anchor="middle" x="396.09" y="-57.8" font-family="Times New Roman,serif" font-size="14.00">0.25</text>
</g>
<!-- 7 -->
<g id="node8" class="node">
<title>7</title>
<g id="a_node8"><a xlink:href="personal assistant.svg" xlink:title="personal assistant">
<ellipse fill="none" stroke="black" cx="524.59" cy="-18" rx="74.99" ry="18"/>
<text text-anchor="middle" x="524.59" y="-14.3" font-family="Times New Roman,serif" font-size="14.00">personal assistant</text>
</a>
</g>
</g>
<!-- 1&#45;&gt;7 -->
<g id="edge8" class="edge">
<title>1&#45;&gt;7</title>
<path fill="none" stroke="black" d="M407.19,-89.77C429.63,-76.24 463.68,-55.72 489.34,-40.25"/>
<polygon fill="black" stroke="black" points="491.27,-43.17 498.03,-35.01 487.66,-37.18 491.27,-43.17"/>
<text text-anchor="middle" x="475.09" y="-57.8" font-family="Times New Roman,serif" font-size="14.00">0.25</text>
</g>
<!-- 8 -->
<g id="node9" class="node">
<title>8</title>
<g id="a_node9"><a xlink:href="sports coach.svg" xlink:title="sports coach">
<ellipse fill="none" stroke="black" cx="675.59" cy="-18" rx="57.69" ry="18"/>
<text text-anchor="middle" x="675.59" y="-14.3" font-family="Times New Roman,serif" font-size="14.00">sports coach</text>
</a>
</g>
</g>
<!-- 1&#45;&gt;8 -->
<g id="edge10" class="edge">
<title>1&#45;&gt;8</title>
<path fill="none" stroke="black" d="M418.52,-93.83C469.75,-78.92 565.57,-51.03 624.65,-33.83"/>
<polygon fill="black" stroke="black" points="625.9,-37.11 634.52,-30.96 623.94,-30.39 625.9,-37.11"/>
<text text-anchor="middle" x="560.09" y="-57.8" font-family="Times New Roman,serif" font-size="14.00">0.25</text>
</g>
<!-- 2 -->
<g id="node3" class="node">
<title>2</title>
<g id="a_node3"><a xlink:href="graphic designer.svg" xlink:title="graphic designer">
<ellipse fill="none" stroke="black" cx="275.59" cy="-192" rx="70.39" ry="18"/>
<text text-anchor="middle" x="275.59" y="-188.3" font-family="Times New Roman,serif" font-size="14.00">graphic designer</text>
</a>
</g>
</g>
<!-- 2&#45;&gt;1 -->
<g id="edge2" class="edge">
<title>2&#45;&gt;1</title>
<path fill="none" stroke="black" d="M296.42,-174.61C313.42,-161.22 337.6,-142.19 356.19,-127.57"/>
<polygon fill="black" stroke="black" points="358.59,-130.13 364.28,-121.2 354.26,-124.63 358.59,-130.13"/>
<text text-anchor="middle" x="345.59" y="-144.8" font-family="Times New Roman,serif" font-size="14.00">0.1</text>
</g>
<!-- 3&#45;&gt;1 -->
<g id="edge3" class="edge">
<title>3&#45;&gt;1</title>
<path fill="none" stroke="black" d="M280.18,-34.79C300.72,-48.53 330.62,-68.55 353,-83.52"/>
<polygon fill="black" stroke="black" points="351.21,-86.54 361.47,-89.19 355.11,-80.72 351.21,-86.54"/>
<text text-anchor="middle" x="337.59" y="-57.8" font-family="Times New Roman,serif" font-size="14.00">0.1</text>
</g>
<!-- 4 -->
<g id="node5" class="node">
<title>4</title>
<g id="a_node5"><a xlink:href="training and development officer.svg" xlink:title="training and development officer">
<ellipse fill="none" stroke="black" cx="491.59" cy="-192" rx="128.08" ry="18"/>
<text text-anchor="middle" x="491.59" y="-188.3" font-family="Times New Roman,serif" font-size="14.00">training and development officer</text>
</a>
</g>
</g>
<!-- 4&#45;&gt;1 -->
<g id="edge4" class="edge">
<title>4&#45;&gt;1</title>
<path fill="none" stroke="black" d="M470.25,-174.21C453.3,-160.86 429.47,-142.11 411.09,-127.64"/>
<polygon fill="black" stroke="black" points="413.09,-124.76 403.07,-121.33 408.76,-130.26 413.09,-124.76"/>
<text text-anchor="middle" x="453.59" y="-144.8" font-family="Times New Roman,serif" font-size="14.00">0.1</text>
</g>
<!-- 5 -->
<g id="node6" class="node">
<title>5</title>
<g id="a_node6"><a xlink:href="ux designer.svg" xlink:title="ux designer">
<ellipse fill="none" stroke="black" cx="689.59" cy="-192" rx="51.99" ry="18"/>
<text text-anchor="middle" x="689.59" y="-188.3" font-family="Times New Roman,serif" font-size="14.00">ux designer</text>
</a>
</g>
</g>
<!-- 5&#45;&gt;1 -->
<g id="edge5" class="edge">
<title>5&#45;&gt;1</title>
<path fill="none" stroke="black" d="M650.54,-180.11C643.25,-178.08 635.69,-175.97 628.59,-174 558.96,-154.64 478.19,-132.23 429,-118.59"/>
<polygon fill="black" stroke="black" points="429.87,-115.2 419.3,-115.9 428,-121.94 429.87,-115.2"/>
<text text-anchor="middle" x="570.59" y="-144.8" font-family="Times New Roman,serif" font-size="14.00">0.1</text>
</g>
</g>
</svg>
