<?xml version="1.0" encoding="UTF-8" standalone="no"?>
<!DOCTYPE svg PUBLIC "-//W3C//DTD SVG 1.1//EN"
 "http://www.w3.org/Graphics/SVG/1.1/DTD/svg11.dtd">
<!-- Generated by graphviz version 2.44.1 (20200629.0800)
 -->
<!-- Title: test Pages: 1 -->
<svg width="1695pt" height="218pt"
 viewBox="0.00 0.00 1695.34 218.00" xmlns="http://www.w3.org/2000/svg" xmlns:xlink="http://www.w3.org/1999/xlink">
<g id="graph0" class="graph" transform="scale(1 1) rotate(0) translate(4 214)">
<title>test</title>
<polygon fill="white" stroke="transparent" points="-4,4 -4,-214 1691.34,-214 1691.34,4 -4,4"/>
<!-- 0 -->
<g id="node1" class="node">
<title>0</title>
<g id="a_node1"><a xlink:href="education administrator.svg" xlink:title="education administrator">
<ellipse fill="none" stroke="black" cx="177.6" cy="-192" rx="95.58" ry="18"/>
<text text-anchor="middle" x="177.6" y="-188.3" font-family="Times New Roman,serif" font-size="14.00">education administrator</text>
</a>
</g>
</g>
<!-- 1 -->
<g id="node2" class="node">
<title>1</title>
<g id="a_node2"><a xlink:href="immigration officer.svg" xlink:title="immigration officer">
<ellipse fill="none" stroke="black" cx="546.6" cy="-105" rx="79.09" ry="18"/>
<text text-anchor="middle" x="546.6" y="-101.3" font-family="Times New Roman,serif" font-size="14.00">immigration officer</text>
</a>
</g>
</g>
<!-- 0&#45;&gt;1 -->
<g id="edge1" class="edge">
<title>0&#45;&gt;1</title>
<path fill="none" stroke="black" d="M232.59,-177.23C274.03,-166.96 332.29,-152.73 383.6,-141 415.41,-133.72 450.82,-126.07 480.49,-119.78"/>
<polygon fill="black" stroke="black" points="481.25,-123.19 490.31,-117.7 479.81,-116.34 481.25,-123.19"/>
<text text-anchor="middle" x="399.1" y="-144.8" font-family="Times New Roman,serif" font-size="14.00">0.068</text>
</g>
<!-- 1&#45;&gt;1 -->
<g id="edge10" class="edge">
<title>1&#45;&gt;1</title>
<path fill="none" stroke="black" d="M618.73,-112.57C633.39,-111.75 643.89,-109.22 643.89,-105 643.89,-101.83 637.98,-99.62 628.84,-98.36"/>
<polygon fill="black" stroke="black" points="629.01,-94.86 618.73,-97.43 628.36,-101.83 629.01,-94.86"/>
<text text-anchor="middle" x="652.89" y="-101.3" font-family="Times New Roman,serif" font-size="14.00">0.3</text>
</g>
<!-- 2 -->
<g id="node3" class="node">
<title>2</title>
<g id="a_node3"><a xlink:href="it consultant.svg" xlink:title="it consultant">
<ellipse fill="none" stroke="black" cx="54.6" cy="-18" rx="54.69" ry="18"/>
<text text-anchor="middle" x="54.6" y="-14.3" font-family="Times New Roman,serif" font-size="14.00">it consultant</text>
</a>
</g>
</g>
<!-- 1&#45;&gt;2 -->
<g id="edge12" class="edge">
<title>1&#45;&gt;2</title>
<path fill="none" stroke="black" d="M467.29,-104.1C389.71,-102.47 268.8,-95.31 167.6,-69 140.83,-62.04 112.36,-49.41 90.7,-38.59"/>
<polygon fill="black" stroke="black" points="92.05,-35.35 81.55,-33.92 88.87,-41.58 92.05,-35.35"/>
<text text-anchor="middle" x="176.6" y="-57.8" font-family="Times New Roman,serif" font-size="14.00">0.1</text>
</g>
<!-- 4 -->
<g id="node5" class="node">
<title>4</title>
<g id="a_node5"><a xlink:href="pharmacovigilance officer.svg" xlink:title="pharmacovigilance officer">
<ellipse fill="none" stroke="black" cx="231.6" cy="-18" rx="104.78" ry="18"/>
<text text-anchor="middle" x="231.6" y="-14.3" font-family="Times New Roman,serif" font-size="14.00">pharmacovigilance officer</text>
</a>
</g>
</g>
<!-- 1&#45;&gt;4 -->
<g id="edge13" class="edge">
<title>1&#45;&gt;4</title>
<path fill="none" stroke="black" d="M473.64,-97.66C431.41,-92.63 377.66,-83.88 331.6,-69 309.63,-61.9 286.5,-50.61 268.02,-40.55"/>
<polygon fill="black" stroke="black" points="269.52,-37.38 259.08,-35.59 266.12,-43.5 269.52,-37.38"/>
<text text-anchor="middle" x="340.6" y="-57.8" font-family="Times New Roman,serif" font-size="14.00">0.1</text>
</g>
<!-- 8 -->
<g id="node9" class="node">
<title>8</title>
<g id="a_node9"><a xlink:href="barristers clerk.svg" xlink:title="barristers clerk">
<ellipse fill="none" stroke="black" cx="418.6" cy="-18" rx="64.19" ry="18"/>
<text text-anchor="middle" x="418.6" y="-14.3" font-family="Times New Roman,serif" font-size="14.00">barristers clerk</text>
</a>
</g>
</g>
<!-- 1&#45;&gt;8 -->
<g id="edge11" class="edge">
<title>1&#45;&gt;8</title>
<path fill="none" stroke="black" d="M495.95,-91.12C481.33,-85.83 466,-78.63 453.6,-69 445.27,-62.54 438.13,-53.55 432.51,-44.98"/>
<polygon fill="black" stroke="black" points="435.42,-43.02 427.22,-36.31 429.45,-46.67 435.42,-43.02"/>
<text text-anchor="middle" x="462.6" y="-57.8" font-family="Times New Roman,serif" font-size="14.00">0.1</text>
</g>
<!-- 10 -->
<g id="node11" class="node">
<title>10</title>
<g id="a_node11"><a xlink:href="airline cabin crew.svg" xlink:title="airline cabin crew">
<ellipse fill="none" stroke="black" cx="574.6" cy="-18" rx="73.39" ry="18"/>
<text text-anchor="middle" x="574.6" y="-14.3" font-family="Times New Roman,serif" font-size="14.00">airline cabin crew</text>
</a>
</g>
</g>
<!-- 1&#45;&gt;10 -->
<g id="edge14" class="edge">
<title>1&#45;&gt;10</title>
<path fill="none" stroke="black" d="M552.26,-86.8C556.13,-75.05 561.34,-59.24 565.75,-45.84"/>
<polygon fill="black" stroke="black" points="569.13,-46.77 568.94,-36.18 562.48,-44.58 569.13,-46.77"/>
<text text-anchor="middle" x="575.1" y="-57.8" font-family="Times New Roman,serif" font-size="14.00">0.05</text>
</g>
<!-- 11 -->
<g id="node12" class="node">
<title>11</title>
<g id="a_node12"><a xlink:href="community education officer.svg" xlink:title="community education officer">
<ellipse fill="none" stroke="black" cx="780.6" cy="-18" rx="115.08" ry="18"/>
<text text-anchor="middle" x="780.6" y="-14.3" font-family="Times New Roman,serif" font-size="14.00">community education officer</text>
</a>
</g>
</g>
<!-- 1&#45;&gt;11 -->
<g id="edge15" class="edge">
<title>1&#45;&gt;11</title>
<path fill="none" stroke="black" d="M586.82,-89.39C625.74,-75.25 684.94,-53.75 727.66,-38.23"/>
<polygon fill="black" stroke="black" points="729.12,-41.42 737.33,-34.72 726.73,-34.84 729.12,-41.42"/>
<text text-anchor="middle" x="690.1" y="-57.8" font-family="Times New Roman,serif" font-size="14.00">0.05</text>
</g>
<!-- 12 -->
<g id="node13" class="node">
<title>12</title>
<g id="a_node13"><a xlink:href="government research officer.svg" xlink:title="government research officer">
<ellipse fill="none" stroke="black" cx="1025.6" cy="-18" rx="112.38" ry="18"/>
<text text-anchor="middle" x="1025.6" y="-14.3" font-family="Times New Roman,serif" font-size="14.00">government research officer</text>
</a>
</g>
</g>
<!-- 1&#45;&gt;12 -->
<g id="edge16" class="edge">
<title>1&#45;&gt;12</title>
<path fill="none" stroke="black" d="M607.26,-93.23C692.48,-78.11 847.88,-50.54 943.41,-33.58"/>
<polygon fill="black" stroke="black" points="944.09,-37.02 953.32,-31.82 942.87,-30.13 944.09,-37.02"/>
<text text-anchor="middle" x="827.1" y="-57.8" font-family="Times New Roman,serif" font-size="14.00">0.05</text>
</g>
<!-- 13 -->
<g id="node14" class="node">
<title>13</title>
<g id="a_node14"><a xlink:href="market research analyst.svg" xlink:title="market research analyst">
<ellipse fill="none" stroke="black" cx="1250.6" cy="-18" rx="94.78" ry="18"/>
<text text-anchor="middle" x="1250.6" y="-14.3" font-family="Times New Roman,serif" font-size="14.00">market research analyst</text>
</a>
</g>
</g>
<!-- 1&#45;&gt;13 -->
<g id="edge17" class="edge">
<title>1&#45;&gt;13</title>
<path fill="none" stroke="black" d="M617.86,-97.07C730.38,-85.87 956.04,-62.36 1146.6,-36 1155.09,-34.83 1163.96,-33.51 1172.78,-32.15"/>
<polygon fill="black" stroke="black" points="1173.36,-35.6 1182.7,-30.59 1172.28,-28.68 1173.36,-35.6"/>
<text text-anchor="middle" x="1011.1" y="-57.8" font-family="Times New Roman,serif" font-size="14.00">0.05</text>
</g>
<!-- 14 -->
<g id="node15" class="node">
<title>14</title>
<g id="a_node15"><a xlink:href="materials specialist.svg" xlink:title="materials specialist">
<ellipse fill="none" stroke="black" cx="1441.6" cy="-18" rx="77.99" ry="18"/>
<text text-anchor="middle" x="1441.6" y="-14.3" font-family="Times New Roman,serif" font-size="14.00">materials specialist</text>
</a>
</g>
</g>
<!-- 1&#45;&gt;14 -->
<g id="edge18" class="edge">
<title>1&#45;&gt;14</title>
<path fill="none" stroke="black" d="M623.84,-100.73C768.08,-93.92 1087.91,-75.43 1354.6,-36 1361.61,-34.96 1368.91,-33.75 1376.18,-32.46"/>
<polygon fill="black" stroke="black" points="1376.83,-35.9 1386.03,-30.65 1375.57,-29.01 1376.83,-35.9"/>
<text text-anchor="middle" x="1213.1" y="-57.8" font-family="Times New Roman,serif" font-size="14.00">0.05</text>
</g>
<!-- 15 -->
<g id="node16" class="node">
<title>15</title>
<g id="a_node16"><a xlink:href="personal assistant.svg" xlink:title="personal assistant">
<ellipse fill="none" stroke="black" cx="1612.6" cy="-18" rx="74.99" ry="18"/>
<text text-anchor="middle" x="1612.6" y="-14.3" font-family="Times New Roman,serif" font-size="14.00">personal assistant</text>
</a>
</g>
</g>
<!-- 1&#45;&gt;15 -->
<g id="edge19" class="edge">
<title>1&#45;&gt;15</title>
<path fill="none" stroke="black" d="M624.54,-101.5C751.47,-97.08 1010.65,-86.68 1229.6,-69 1362.86,-58.24 1396.5,-56.61 1528.6,-36 1535.21,-34.97 1542.1,-33.77 1548.96,-32.5"/>
<polygon fill="black" stroke="black" points="1549.78,-35.91 1558.95,-30.6 1548.47,-29.03 1549.78,-35.91"/>
<text text-anchor="middle" x="1411.1" y="-57.8" font-family="Times New Roman,serif" font-size="14.00">0.05</text>
</g>
<!-- 2&#45;&gt;1 -->
<g id="edge2" class="edge">
<title>2&#45;&gt;1</title>
<path fill="none" stroke="black" d="M95.21,-30.19C102.64,-32.18 110.34,-34.19 117.6,-36 180.87,-51.83 196.36,-57.69 260.6,-69 328.91,-81.03 407.14,-90.3 464.49,-96.26"/>
<polygon fill="black" stroke="black" points="464.28,-99.76 474.59,-97.3 465,-92.8 464.28,-99.76"/>
<text text-anchor="middle" x="276.1" y="-57.8" font-family="Times New Roman,serif" font-size="14.00">0.068</text>
</g>
<!-- 3 -->
<g id="node4" class="node">
<title>3</title>
<g id="a_node4"><a xlink:href="lawyer.svg" xlink:title="lawyer">
<ellipse fill="none" stroke="black" cx="325.6" cy="-192" rx="34.39" ry="18"/>
<text text-anchor="middle" x="325.6" y="-188.3" font-family="Times New Roman,serif" font-size="14.00">lawyer</text>
</a>
</g>
</g>
<!-- 3&#45;&gt;1 -->
<g id="edge3" class="edge">
<title>3&#45;&gt;1</title>
<path fill="none" stroke="black" d="M352.58,-180.56C358.21,-178.39 364.09,-176.12 369.6,-174 413.12,-157.23 462.68,-138.2 498.27,-124.54"/>
<polygon fill="black" stroke="black" points="499.83,-127.69 507.92,-120.84 497.33,-121.15 499.83,-127.69"/>
<text text-anchor="middle" x="468.1" y="-144.8" font-family="Times New Roman,serif" font-size="14.00">0.068</text>
</g>
<!-- 4&#45;&gt;1 -->
<g id="edge4" class="edge">
<title>4&#45;&gt;1</title>
<path fill="none" stroke="black" d="M281.71,-33.93C316.41,-44.13 363.7,-57.78 405.6,-69 431.18,-75.85 459.51,-82.97 484.02,-88.99"/>
<polygon fill="black" stroke="black" points="483.37,-92.43 493.92,-91.41 485.03,-85.63 483.37,-92.43"/>
<text text-anchor="middle" x="421.1" y="-57.8" font-family="Times New Roman,serif" font-size="14.00">0.068</text>
</g>
<!-- 5 -->
<g id="node6" class="node">
<title>5</title>
<g id="a_node6"><a xlink:href="production manager.svg" xlink:title="production manager">
<ellipse fill="none" stroke="black" cx="461.6" cy="-192" rx="83.39" ry="18"/>
<text text-anchor="middle" x="461.6" y="-188.3" font-family="Times New Roman,serif" font-size="14.00">production manager</text>
</a>
</g>
</g>
<!-- 5&#45;&gt;1 -->
<g id="edge5" class="edge">
<title>5&#45;&gt;1</title>
<path fill="none" stroke="black" d="M478.39,-174.21C490.96,-161.63 508.34,-144.25 522.41,-130.18"/>
<polygon fill="black" stroke="black" points="525.24,-132.3 529.84,-122.76 520.29,-127.35 525.24,-132.3"/>
<text text-anchor="middle" x="525.1" y="-144.8" font-family="Times New Roman,serif" font-size="14.00">0.068</text>
</g>
<!-- 6 -->
<g id="node7" class="node">
<title>6</title>
<g id="a_node7"><a xlink:href="project manager.svg" xlink:title="project manager">
<ellipse fill="none" stroke="black" cx="631.6" cy="-192" rx="68.79" ry="18"/>
<text text-anchor="middle" x="631.6" y="-188.3" font-family="Times New Roman,serif" font-size="14.00">project manager</text>
</a>
</g>
</g>
<!-- 6&#45;&gt;1 -->
<g id="edge6" class="edge">
<title>6&#45;&gt;1</title>
<path fill="none" stroke="black" d="M614.8,-174.21C602.23,-161.63 584.85,-144.25 570.78,-130.18"/>
<polygon fill="black" stroke="black" points="572.9,-127.35 563.35,-122.76 567.95,-132.3 572.9,-127.35"/>
<text text-anchor="middle" x="610.1" y="-144.8" font-family="Times New Roman,serif" font-size="14.00">0.068</text>
</g>
<!-- 7 -->
<g id="node8" class="node">
<title>7</title>
<g id="a_node8"><a xlink:href="accountant.svg" xlink:title="accountant">
<ellipse fill="none" stroke="black" cx="768.6" cy="-192" rx="50.09" ry="18"/>
<text text-anchor="middle" x="768.6" y="-188.3" font-family="Times New Roman,serif" font-size="14.00">accountant</text>
</a>
</g>
</g>
<!-- 7&#45;&gt;1 -->
<g id="edge7" class="edge">
<title>7&#45;&gt;1</title>
<path fill="none" stroke="black" d="M735.36,-178.27C698.1,-164.01 637.36,-140.75 594.87,-124.48"/>
<polygon fill="black" stroke="black" points="595.88,-121.12 585.29,-120.82 593.38,-127.66 595.88,-121.12"/>
<text text-anchor="middle" x="686.1" y="-144.8" font-family="Times New Roman,serif" font-size="14.00">0.034</text>
</g>
<!-- 8&#45;&gt;1 -->
<g id="edge8" class="edge">
<title>8&#45;&gt;1</title>
<path fill="none" stroke="black" d="M442.45,-34.84C462.53,-48.18 491.46,-67.39 513.74,-82.18"/>
<polygon fill="black" stroke="black" points="511.95,-85.2 522.22,-87.81 515.82,-79.36 511.95,-85.2"/>
<text text-anchor="middle" x="506.1" y="-57.8" font-family="Times New Roman,serif" font-size="14.00">0.034</text>
</g>
<!-- 9 -->
<g id="node10" class="node">
<title>9</title>
<g id="a_node10"><a xlink:href="curator.svg" xlink:title="curator">
<ellipse fill="none" stroke="black" cx="872.6" cy="-192" rx="36.29" ry="18"/>
<text text-anchor="middle" x="872.6" y="-188.3" font-family="Times New Roman,serif" font-size="14.00">curator</text>
</a>
</g>
</g>
<!-- 9&#45;&gt;1 -->
<g id="edge9" class="edge">
<title>9&#45;&gt;1</title>
<path fill="none" stroke="black" d="M845.14,-180.14C839.38,-178 833.32,-175.85 827.6,-174 756.07,-150.88 672.07,-131.54 614.66,-119.47"/>
<polygon fill="black" stroke="black" points="615.12,-115.99 604.62,-117.37 613.69,-122.84 615.12,-115.99"/>
<text text-anchor="middle" x="782.1" y="-144.8" font-family="Times New Roman,serif" font-size="14.00">0.034</text>
</g>
</g>
</svg>
