<?xml version="1.0" encoding="UTF-8" standalone="no"?>
<!DOCTYPE svg PUBLIC "-//W3C//DTD SVG 1.1//EN"
 "http://www.w3.org/Graphics/SVG/1.1/DTD/svg11.dtd">
<!-- Generated by graphviz version 2.44.1 (20200629.0800)
 -->
<!-- Title: test Pages: 1 -->
<svg width="1304pt" height="218pt"
 viewBox="0.00 0.00 1303.63 218.00" xmlns="http://www.w3.org/2000/svg" xmlns:xlink="http://www.w3.org/1999/xlink">
<g id="graph0" class="graph" transform="scale(1 1) rotate(0) translate(4 214)">
<title>test</title>
<polygon fill="white" stroke="transparent" points="-4,4 -4,-214 1299.63,-214 1299.63,4 -4,4"/>
<!-- 0 -->
<g id="node1" class="node">
<title>0</title>
<g id="a_node1"><a xlink:href="graphic designer.svg" xlink:title="graphic designer">
<ellipse fill="none" stroke="black" cx="129.44" cy="-192" rx="70.39" ry="18"/>
<text text-anchor="middle" x="129.44" y="-188.3" font-family="Times New Roman,serif" font-size="14.00">graphic designer</text>
</a>
</g>
</g>
<!-- 1 -->
<g id="node2" class="node">
<title>1</title>
<g id="a_node2"><a xlink:href="industrial designer.svg" xlink:title="industrial designer">
<ellipse fill="none" stroke="black" cx="505.44" cy="-105" rx="76.09" ry="18"/>
<text text-anchor="middle" x="505.44" y="-101.3" font-family="Times New Roman,serif" font-size="14.00">industrial designer</text>
</a>
</g>
</g>
<!-- 0&#45;&gt;1 -->
<g id="edge1" class="edge">
<title>0&#45;&gt;1</title>
<path fill="none" stroke="black" d="M137.58,-174.11C144.02,-162.73 154.14,-148.48 167.44,-141 209.14,-117.56 333.63,-109.77 419.3,-107.21"/>
<polygon fill="black" stroke="black" points="419.64,-110.71 429.54,-106.93 419.45,-103.71 419.64,-110.71"/>
<text text-anchor="middle" x="182.94" y="-144.8" font-family="Times New Roman,serif" font-size="14.00">0.057</text>
</g>
<!-- 1&#45;&gt;0 -->
<g id="edge13" class="edge">
<title>1&#45;&gt;0</title>
<path fill="none" stroke="black" d="M452.02,-117.84C421.64,-124.59 382.9,-133.23 348.44,-141 294.8,-153.1 233.8,-167.04 189.83,-177.13"/>
<polygon fill="black" stroke="black" points="188.84,-173.76 179.88,-179.41 190.41,-180.58 188.84,-173.76"/>
<text text-anchor="middle" x="363.94" y="-144.8" font-family="Times New Roman,serif" font-size="14.00">0.051</text>
</g>
<!-- 1&#45;&gt;1 -->
<g id="edge10" class="edge">
<title>1&#45;&gt;1</title>
<path fill="none" stroke="black" d="M574.75,-112.6C589.14,-111.8 599.49,-109.27 599.49,-105 599.49,-101.83 593.79,-99.62 584.97,-98.37"/>
<polygon fill="black" stroke="black" points="585.04,-94.86 574.75,-97.4 584.38,-101.83 585.04,-94.86"/>
<text text-anchor="middle" x="614.99" y="-101.3" font-family="Times New Roman,serif" font-size="14.00">0.692</text>
</g>
<!-- 7 -->
<g id="node8" class="node">
<title>7</title>
<g id="a_node8"><a xlink:href="teaching assistant.svg" xlink:title="teaching assistant">
<ellipse fill="none" stroke="black" cx="73.44" cy="-18" rx="73.39" ry="18"/>
<text text-anchor="middle" x="73.44" y="-14.3" font-family="Times New Roman,serif" font-size="14.00">teaching assistant</text>
</a>
</g>
</g>
<!-- 1&#45;&gt;7 -->
<g id="edge17" class="edge">
<title>1&#45;&gt;7</title>
<path fill="none" stroke="black" d="M431.9,-100.08C346.2,-94.89 210.12,-84.54 161.44,-69 141.25,-62.55 120.54,-51.07 104.29,-40.74"/>
<polygon fill="black" stroke="black" points="106.04,-37.7 95.75,-35.16 102.21,-43.56 106.04,-37.7"/>
<text text-anchor="middle" x="176.94" y="-57.8" font-family="Times New Roman,serif" font-size="14.00">0.051</text>
</g>
<!-- 8 -->
<g id="node9" class="node">
<title>8</title>
<g id="a_node9"><a xlink:href="academic librarian.svg" xlink:title="academic librarian">
<ellipse fill="none" stroke="black" cx="240.44" cy="-18" rx="76.09" ry="18"/>
<text text-anchor="middle" x="240.44" y="-14.3" font-family="Times New Roman,serif" font-size="14.00">academic librarian</text>
</a>
</g>
</g>
<!-- 1&#45;&gt;8 -->
<g id="edge12" class="edge">
<title>1&#45;&gt;8</title>
<path fill="none" stroke="black" d="M437.34,-96.88C402.19,-91.75 359.11,-83.15 322.44,-69 304.24,-61.98 285.54,-50.92 270.61,-41"/>
<polygon fill="black" stroke="black" points="272.51,-38.06 262.28,-35.32 268.57,-43.84 272.51,-38.06"/>
<text text-anchor="middle" x="337.94" y="-57.8" font-family="Times New Roman,serif" font-size="14.00">0.051</text>
</g>
<!-- 10 -->
<g id="node11" class="node">
<title>10</title>
<g id="a_node11"><a xlink:href="software architect.svg" xlink:title="software architect">
<ellipse fill="none" stroke="black" cx="409.44" cy="-18" rx="75.29" ry="18"/>
<text text-anchor="middle" x="409.44" y="-14.3" font-family="Times New Roman,serif" font-size="14.00">software architect</text>
</a>
</g>
</g>
<!-- 1&#45;&gt;10 -->
<g id="edge11" class="edge">
<title>1&#45;&gt;10</title>
<path fill="none" stroke="black" d="M486.48,-87.21C471.92,-74.32 451.66,-56.38 435.56,-42.13"/>
<polygon fill="black" stroke="black" points="437.85,-39.48 428.04,-35.47 433.21,-44.72 437.85,-39.48"/>
<text text-anchor="middle" x="478.94" y="-57.8" font-family="Times New Roman,serif" font-size="14.00">0.076</text>
</g>
<!-- 11 -->
<g id="node12" class="node">
<title>11</title>
<g id="a_node12"><a xlink:href="human resources officer.svg" xlink:title="human resources officer">
<ellipse fill="none" stroke="black" cx="601.44" cy="-18" rx="98.58" ry="18"/>
<text text-anchor="middle" x="601.44" y="-14.3" font-family="Times New Roman,serif" font-size="14.00">human resources officer</text>
</a>
</g>
</g>
<!-- 1&#45;&gt;11 -->
<g id="edge14" class="edge">
<title>1&#45;&gt;11</title>
<path fill="none" stroke="black" d="M524.41,-87.21C538.87,-74.4 558.97,-56.61 575.01,-42.4"/>
<polygon fill="black" stroke="black" points="577.35,-45.01 582.52,-35.76 572.71,-39.77 577.35,-45.01"/>
<text text-anchor="middle" x="574.94" y="-57.8" font-family="Times New Roman,serif" font-size="14.00">0.051</text>
</g>
<!-- 12 -->
<g id="node13" class="node">
<title>12</title>
<g id="a_node13"><a xlink:href="lecturer.svg" xlink:title="lecturer">
<ellipse fill="none" stroke="black" cx="755.44" cy="-18" rx="37.89" ry="18"/>
<text text-anchor="middle" x="755.44" y="-14.3" font-family="Times New Roman,serif" font-size="14.00">lecturer</text>
</a>
</g>
</g>
<!-- 1&#45;&gt;12 -->
<g id="edge15" class="edge">
<title>1&#45;&gt;12</title>
<path fill="none" stroke="black" d="M548.56,-90.07C589.95,-76.6 654.15,-55.43 709.44,-36 711.99,-35.1 714.61,-34.17 717.25,-33.22"/>
<polygon fill="black" stroke="black" points="718.58,-36.46 726.79,-29.75 716.19,-29.88 718.58,-36.46"/>
<text text-anchor="middle" x="669.94" y="-57.8" font-family="Times New Roman,serif" font-size="14.00">0.051</text>
</g>
<!-- 13 -->
<g id="node14" class="node">
<title>13</title>
<g id="a_node14"><a xlink:href="office manager.svg" xlink:title="office manager">
<ellipse fill="none" stroke="black" cx="875.44" cy="-18" rx="64.19" ry="18"/>
<text text-anchor="middle" x="875.44" y="-14.3" font-family="Times New Roman,serif" font-size="14.00">office manager</text>
</a>
</g>
</g>
<!-- 1&#45;&gt;13 -->
<g id="edge16" class="edge">
<title>1&#45;&gt;13</title>
<path fill="none" stroke="black" d="M565.34,-93.77C601.43,-87.32 648.24,-78.44 689.44,-69 734.58,-58.66 785.31,-44.87 822.37,-34.4"/>
<polygon fill="black" stroke="black" points="823.79,-37.63 832.45,-31.54 821.88,-30.9 823.79,-37.63"/>
<text text-anchor="middle" x="760.94" y="-57.8" font-family="Times New Roman,serif" font-size="14.00">0.051</text>
</g>
<!-- 14 -->
<g id="node15" class="node">
<title>14</title>
<g id="a_node15"><a xlink:href="aromatherapist.svg" xlink:title="aromatherapist">
<ellipse fill="none" stroke="black" cx="1021.44" cy="-18" rx="63.89" ry="18"/>
<text text-anchor="middle" x="1021.44" y="-14.3" font-family="Times New Roman,serif" font-size="14.00">aromatherapist</text>
</a>
</g>
</g>
<!-- 1&#45;&gt;14 -->
<g id="edge18" class="edge">
<title>1&#45;&gt;14</title>
<path fill="none" stroke="black" d="M573.15,-96.67C628.93,-90.32 710.01,-80.39 780.44,-69 855.56,-56.86 874.04,-51.97 948.44,-36 953.69,-34.87 959.14,-33.67 964.6,-32.44"/>
<polygon fill="black" stroke="black" points="965.4,-35.85 974.37,-30.22 963.85,-29.02 965.4,-35.85"/>
<text text-anchor="middle" x="876.94" y="-57.8" font-family="Times New Roman,serif" font-size="14.00">0.025</text>
</g>
<!-- 15 -->
<g id="node16" class="node">
<title>15</title>
<g id="a_node16"><a xlink:href="computer sales support.svg" xlink:title="computer sales support">
<ellipse fill="none" stroke="black" cx="1199.44" cy="-18" rx="96.38" ry="18"/>
<text text-anchor="middle" x="1199.44" y="-14.3" font-family="Times New Roman,serif" font-size="14.00">computer sales support</text>
</a>
</g>
</g>
<!-- 1&#45;&gt;15 -->
<g id="edge19" class="edge">
<title>1&#45;&gt;15</title>
<path fill="none" stroke="black" d="M577.68,-99.15C656.28,-93.49 785.56,-83.09 896.44,-69 974.35,-59.1 1062.92,-44.04 1124.09,-33.03"/>
<polygon fill="black" stroke="black" points="1124.82,-36.46 1134.04,-31.23 1123.58,-29.57 1124.82,-36.46"/>
<text text-anchor="middle" x="1011.94" y="-57.8" font-family="Times New Roman,serif" font-size="14.00">0.025</text>
</g>
<!-- 2 -->
<g id="node3" class="node">
<title>2</title>
<g id="a_node3"><a xlink:href="project manager.svg" xlink:title="project manager">
<ellipse fill="none" stroke="black" cx="286.44" cy="-192" rx="68.79" ry="18"/>
<text text-anchor="middle" x="286.44" y="-188.3" font-family="Times New Roman,serif" font-size="14.00">project manager</text>
</a>
</g>
</g>
<!-- 2&#45;&gt;1 -->
<g id="edge2" class="edge">
<title>2&#45;&gt;1</title>
<path fill="none" stroke="black" d="M323.59,-176.58C360.76,-162.15 418.06,-139.91 458.39,-124.26"/>
<polygon fill="black" stroke="black" points="459.69,-127.51 467.74,-120.63 457.15,-120.99 459.69,-127.51"/>
<text text-anchor="middle" x="424.94" y="-144.8" font-family="Times New Roman,serif" font-size="14.00">0.057</text>
</g>
<!-- 3 -->
<g id="node4" class="node">
<title>3</title>
<g id="a_node4"><a xlink:href="it consultant.svg" xlink:title="it consultant">
<ellipse fill="none" stroke="black" cx="427.44" cy="-192" rx="54.69" ry="18"/>
<text text-anchor="middle" x="427.44" y="-188.3" font-family="Times New Roman,serif" font-size="14.00">it consultant</text>
</a>
</g>
</g>
<!-- 3&#45;&gt;1 -->
<g id="edge3" class="edge">
<title>3&#45;&gt;1</title>
<path fill="none" stroke="black" d="M442.48,-174.61C453.99,-162.07 470.03,-144.59 483.05,-130.41"/>
<polygon fill="black" stroke="black" points="485.73,-132.65 489.92,-122.92 480.58,-127.92 485.73,-132.65"/>
<text text-anchor="middle" x="486.94" y="-144.8" font-family="Times New Roman,serif" font-size="14.00">0.028</text>
</g>
<!-- 4 -->
<g id="node5" class="node">
<title>4</title>
<g id="a_node5"><a xlink:href="production manager.svg" xlink:title="production manager">
<ellipse fill="none" stroke="black" cx="583.44" cy="-192" rx="83.39" ry="18"/>
<text text-anchor="middle" x="583.44" y="-188.3" font-family="Times New Roman,serif" font-size="14.00">production manager</text>
</a>
</g>
</g>
<!-- 4&#45;&gt;1 -->
<g id="edge4" class="edge">
<title>4&#45;&gt;1</title>
<path fill="none" stroke="black" d="M568.03,-174.21C556.5,-161.63 540.55,-144.25 527.63,-130.18"/>
<polygon fill="black" stroke="black" points="530.16,-127.76 520.82,-122.76 525,-132.49 530.16,-127.76"/>
<text text-anchor="middle" x="564.94" y="-144.8" font-family="Times New Roman,serif" font-size="14.00">0.028</text>
</g>
<!-- 5 -->
<g id="node6" class="node">
<title>5</title>
<g id="a_node6"><a xlink:href="research scientist.svg" xlink:title="research scientist">
<ellipse fill="none" stroke="black" cx="757.44" cy="-192" rx="72.59" ry="18"/>
<text text-anchor="middle" x="757.44" y="-188.3" font-family="Times New Roman,serif" font-size="14.00">research scientist</text>
</a>
</g>
</g>
<!-- 5&#45;&gt;1 -->
<g id="edge5" class="edge">
<title>5&#45;&gt;1</title>
<path fill="none" stroke="black" d="M716.11,-177.06C672.57,-162.37 603.93,-139.22 556.91,-123.36"/>
<polygon fill="black" stroke="black" points="557.81,-119.97 547.22,-120.09 555.57,-126.6 557.81,-119.97"/>
<text text-anchor="middle" x="662.94" y="-144.8" font-family="Times New Roman,serif" font-size="14.00">0.028</text>
</g>
<!-- 6 -->
<g id="node7" class="node">
<title>6</title>
<g id="a_node7"><a xlink:href="retail merchandiser.svg" xlink:title="retail merchandiser">
<ellipse fill="none" stroke="black" cx="926.44" cy="-192" rx="78.79" ry="18"/>
<text text-anchor="middle" x="926.44" y="-188.3" font-family="Times New Roman,serif" font-size="14.00">retail merchandiser</text>
</a>
</g>
</g>
<!-- 6&#45;&gt;1 -->
<g id="edge6" class="edge">
<title>6&#45;&gt;1</title>
<path fill="none" stroke="black" d="M870.26,-179.37C820.82,-169.17 746.88,-153.97 682.44,-141 645.99,-133.66 605.28,-125.6 572.1,-119.07"/>
<polygon fill="black" stroke="black" points="572.55,-115.59 562.06,-117.09 571.2,-122.46 572.55,-115.59"/>
<text text-anchor="middle" x="770.94" y="-144.8" font-family="Times New Roman,serif" font-size="14.00">0.028</text>
</g>
<!-- 7&#45;&gt;1 -->
<g id="edge7" class="edge">
<title>7&#45;&gt;1</title>
<path fill="none" stroke="black" d="M117.31,-32.59C154.36,-43.66 208.97,-59.03 257.44,-69 313.91,-80.61 378.4,-89.58 427.46,-95.53"/>
<polygon fill="black" stroke="black" points="427.34,-99.04 437.69,-96.76 428.17,-92.09 427.34,-99.04"/>
<text text-anchor="middle" x="272.94" y="-57.8" font-family="Times New Roman,serif" font-size="14.00">0.028</text>
</g>
<!-- 8&#45;&gt;1 -->
<g id="edge8" class="edge">
<title>8&#45;&gt;1</title>
<path fill="none" stroke="black" d="M283.59,-32.84C329.78,-47.66 403.1,-71.17 452.69,-87.08"/>
<polygon fill="black" stroke="black" points="451.69,-90.43 462.28,-90.15 453.82,-83.77 451.69,-90.43"/>
<text text-anchor="middle" x="404.94" y="-57.8" font-family="Times New Roman,serif" font-size="14.00">0.014</text>
</g>
<!-- 9 -->
<g id="node10" class="node">
<title>9</title>
<g id="a_node10"><a xlink:href="agricultural consultant.svg" xlink:title="agricultural consultant">
<ellipse fill="none" stroke="black" cx="1112.44" cy="-192" rx="89.88" ry="18"/>
<text text-anchor="middle" x="1112.44" y="-188.3" font-family="Times New Roman,serif" font-size="14.00">agricultural consultant</text>
</a>
</g>
</g>
<!-- 9&#45;&gt;1 -->
<g id="edge9" class="edge">
<title>9&#45;&gt;1</title>
<path fill="none" stroke="black" d="M1047.64,-179.52C1036.57,-177.63 1025.19,-175.72 1014.44,-174 915.08,-158.07 890.17,-154.47 790.44,-141 719.95,-131.48 639.51,-121.7 582.1,-114.91"/>
<polygon fill="black" stroke="black" points="582.35,-111.41 572.01,-113.72 581.53,-118.36 582.35,-111.41"/>
<text text-anchor="middle" x="909.94" y="-144.8" font-family="Times New Roman,serif" font-size="14.00">0.014</text>
</g>
</g>
</svg>
