<?xml version="1.0" encoding="UTF-8" standalone="no"?>
<!DOCTYPE svg PUBLIC "-//W3C//DTD SVG 1.1//EN"
 "http://www.w3.org/Graphics/SVG/1.1/DTD/svg11.dtd">
<!-- Generated by graphviz version 2.44.1 (20200629.0800)
 -->
<!-- Title: insurance_claims_inspector Pages: 1 -->
<svg width="1294pt" height="218pt"
 viewBox="0.00 0.00 1294.09 218.00" xmlns="http://www.w3.org/2000/svg" xmlns:xlink="http://www.w3.org/1999/xlink">
<g id="graph0" class="graph" transform="scale(1 1) rotate(0) translate(4 214)">
<title>insurance_claims_inspector</title>
<polygon fill="white" stroke="transparent" points="-4,4 -4,-214 1290.09,-214 1290.09,4 -4,4"/>
<!-- 0 -->
<g id="node1" class="node">
<title>0</title>
<g id="a_node1"><a xlink:href="insurance broker.svg" xlink:title="insurance broker">
<ellipse fill="none" stroke="black" cx="82.8" cy="-192" rx="71.49" ry="18"/>
<text text-anchor="middle" x="82.8" y="-188.3" font-family="Times New Roman,serif" font-size="14.00">insurance broker</text>
</a>
</g>
</g>
<!-- 1 -->
<g id="node2" class="node">
<title>1</title>
<g id="a_node2"><a xlink:href="insurance claims inspector.svg" xlink:title="insurance claims inspector">
<ellipse fill="none" stroke="black" cx="595.8" cy="-105" rx="106.68" ry="18"/>
<text text-anchor="middle" x="595.8" y="-101.3" font-family="Times New Roman,serif" font-size="14.00">insurance claims inspector</text>
</a>
</g>
</g>
<!-- 0&#45;&gt;1 -->
<g id="edge1" class="edge">
<title>0&#45;&gt;1</title>
<path fill="none" stroke="black" d="M135.46,-179.65C144.88,-177.71 154.62,-175.75 163.8,-174 281.56,-151.53 418.42,-130.91 506,-118.4"/>
<polygon fill="black" stroke="black" points="506.5,-121.87 515.91,-116.99 505.51,-114.94 506.5,-121.87"/>
<text text-anchor="middle" x="369.3" y="-144.8" font-family="Times New Roman,serif" font-size="14.00">0.085</text>
</g>
<!-- 1&#45;&gt;1 -->
<g id="edge10" class="edge">
<title>1&#45;&gt;1</title>
<path fill="none" stroke="black" d="M693.47,-112.29C709.42,-111.24 720.39,-108.81 720.39,-105 720.39,-102.05 713.83,-99.93 703.48,-98.64"/>
<polygon fill="black" stroke="black" points="703.75,-95.15 693.47,-97.71 703.11,-102.12 703.75,-95.15"/>
<text text-anchor="middle" x="735.89" y="-101.3" font-family="Times New Roman,serif" font-size="14.00">0.115</text>
</g>
<!-- 4 -->
<g id="node5" class="node">
<title>4</title>
<g id="a_node5"><a xlink:href="qa analyst.svg" xlink:title="qa analyst">
<ellipse fill="none" stroke="black" cx="46.8" cy="-18" rx="46.59" ry="18"/>
<text text-anchor="middle" x="46.8" y="-14.3" font-family="Times New Roman,serif" font-size="14.00">qa analyst</text>
</a>
</g>
</g>
<!-- 1&#45;&gt;4 -->
<g id="edge14" class="edge">
<title>1&#45;&gt;4</title>
<path fill="none" stroke="black" d="M493.44,-99.69C385.09,-94.43 221.5,-84.29 160.8,-69 133.11,-62.02 103.63,-48.93 81.59,-37.89"/>
<polygon fill="black" stroke="black" points="83.12,-34.74 72.63,-33.31 79.94,-40.98 83.12,-34.74"/>
<text text-anchor="middle" x="176.3" y="-57.8" font-family="Times New Roman,serif" font-size="14.00">0.076</text>
</g>
<!-- 10 -->
<g id="node11" class="node">
<title>10</title>
<g id="a_node11"><a xlink:href="environmental manager.svg" xlink:title="environmental manager">
<ellipse fill="none" stroke="black" cx="204.8" cy="-18" rx="93.68" ry="18"/>
<text text-anchor="middle" x="204.8" y="-14.3" font-family="Times New Roman,serif" font-size="14.00">environmental manager</text>
</a>
</g>
</g>
<!-- 1&#45;&gt;10 -->
<g id="edge11" class="edge">
<title>1&#45;&gt;10</title>
<path fill="none" stroke="black" d="M532.97,-90.34C462.26,-74.97 347.68,-50.06 274.33,-34.12"/>
<polygon fill="black" stroke="black" points="274.77,-30.63 264.26,-31.93 273.28,-37.47 274.77,-30.63"/>
<text text-anchor="middle" x="439.3" y="-57.8" font-family="Times New Roman,serif" font-size="14.00">0.076</text>
</g>
<!-- 11 -->
<g id="node12" class="node">
<title>11</title>
<g id="a_node12"><a xlink:href="it consultant.svg" xlink:title="it consultant">
<ellipse fill="none" stroke="black" cx="370.8" cy="-18" rx="54.69" ry="18"/>
<text text-anchor="middle" x="370.8" y="-14.3" font-family="Times New Roman,serif" font-size="14.00">it consultant</text>
</a>
</g>
</g>
<!-- 1&#45;&gt;11 -->
<g id="edge12" class="edge">
<title>1&#45;&gt;11</title>
<path fill="none" stroke="black" d="M554.27,-88.31C514.73,-73.38 455.44,-50.98 415.04,-35.71"/>
<polygon fill="black" stroke="black" points="416.04,-32.35 405.45,-32.09 413.57,-38.9 416.04,-32.35"/>
<text text-anchor="middle" x="512.3" y="-57.8" font-family="Times New Roman,serif" font-size="14.00">0.076</text>
</g>
<!-- 12 -->
<g id="node13" class="node">
<title>12</title>
<g id="a_node13"><a xlink:href="marketing assistant.svg" xlink:title="marketing assistant">
<ellipse fill="none" stroke="black" cx="522.8" cy="-18" rx="79.09" ry="18"/>
<text text-anchor="middle" x="522.8" y="-14.3" font-family="Times New Roman,serif" font-size="14.00">marketing assistant</text>
</a>
</g>
</g>
<!-- 1&#45;&gt;12 -->
<g id="edge13" class="edge">
<title>1&#45;&gt;12</title>
<path fill="none" stroke="black" d="M581.02,-86.8C570.37,-74.39 555.82,-57.46 543.94,-43.62"/>
<polygon fill="black" stroke="black" points="546.47,-41.19 537.3,-35.89 541.16,-45.75 546.47,-41.19"/>
<text text-anchor="middle" x="579.3" y="-57.8" font-family="Times New Roman,serif" font-size="14.00">0.076</text>
</g>
<!-- 13 -->
<g id="node14" class="node">
<title>13</title>
<g id="a_node14"><a xlink:href="accountant.svg" xlink:title="accountant">
<ellipse fill="none" stroke="black" cx="669.8" cy="-18" rx="50.09" ry="18"/>
<text text-anchor="middle" x="669.8" y="-14.3" font-family="Times New Roman,serif" font-size="14.00">accountant</text>
</a>
</g>
</g>
<!-- 1&#45;&gt;13 -->
<g id="edge15" class="edge">
<title>1&#45;&gt;13</title>
<path fill="none" stroke="black" d="M610.77,-86.8C621.71,-74.23 636.7,-57.01 648.83,-43.08"/>
<polygon fill="black" stroke="black" points="651.67,-45.15 655.6,-35.31 646.39,-40.55 651.67,-45.15"/>
<text text-anchor="middle" x="653.3" y="-57.8" font-family="Times New Roman,serif" font-size="14.00">0.038</text>
</g>
<!-- 14 -->
<g id="node15" class="node">
<title>14</title>
<g id="a_node15"><a xlink:href="agricultural consultant.svg" xlink:title="agricultural consultant">
<ellipse fill="none" stroke="black" cx="827.8" cy="-18" rx="89.88" ry="18"/>
<text text-anchor="middle" x="827.8" y="-14.3" font-family="Times New Roman,serif" font-size="14.00">agricultural consultant</text>
</a>
</g>
</g>
<!-- 1&#45;&gt;14 -->
<g id="edge16" class="edge">
<title>1&#45;&gt;14</title>
<path fill="none" stroke="black" d="M638.35,-88.41C677.46,-74.08 735.51,-52.81 777.03,-37.6"/>
<polygon fill="black" stroke="black" points="778.5,-40.79 786.68,-34.06 776.09,-34.22 778.5,-40.79"/>
<text text-anchor="middle" x="741.3" y="-57.8" font-family="Times New Roman,serif" font-size="14.00">0.038</text>
</g>
<!-- 15 -->
<g id="node16" class="node">
<title>15</title>
<g id="a_node16"><a xlink:href="architect.svg" xlink:title="architect">
<ellipse fill="none" stroke="black" cx="976.8" cy="-18" rx="41.69" ry="18"/>
<text text-anchor="middle" x="976.8" y="-14.3" font-family="Times New Roman,serif" font-size="14.00">architect</text>
</a>
</g>
</g>
<!-- 1&#45;&gt;15 -->
<g id="edge17" class="edge">
<title>1&#45;&gt;15</title>
<path fill="none" stroke="black" d="M668.4,-91.78C735.88,-79.8 838.9,-59.87 926.8,-36 929.94,-35.15 933.17,-34.2 936.4,-33.21"/>
<polygon fill="black" stroke="black" points="937.58,-36.51 946.04,-30.13 935.45,-29.84 937.58,-36.51"/>
<text text-anchor="middle" x="861.3" y="-57.8" font-family="Times New Roman,serif" font-size="14.00">0.038</text>
</g>
<!-- 16 -->
<g id="node17" class="node">
<title>16</title>
<g id="a_node17"><a xlink:href="auditor.svg" xlink:title="auditor">
<ellipse fill="none" stroke="black" cx="1072.8" cy="-18" rx="36.29" ry="18"/>
<text text-anchor="middle" x="1072.8" y="-14.3" font-family="Times New Roman,serif" font-size="14.00">auditor</text>
</a>
</g>
</g>
<!-- 1&#45;&gt;16 -->
<g id="edge18" class="edge">
<title>1&#45;&gt;16</title>
<path fill="none" stroke="black" d="M690.11,-96.53C778.74,-87.8 914.34,-69.98 1027.8,-36 1030.41,-35.22 1033.08,-34.36 1035.76,-33.46"/>
<polygon fill="black" stroke="black" points="1037.14,-36.68 1045.4,-30.05 1034.8,-30.08 1037.14,-36.68"/>
<text text-anchor="middle" x="973.3" y="-57.8" font-family="Times New Roman,serif" font-size="14.00">0.038</text>
</g>
<!-- 17 -->
<g id="node18" class="node">
<title>17</title>
<g id="a_node18"><a xlink:href="community worker.svg" xlink:title="community worker">
<ellipse fill="none" stroke="black" cx="1206.8" cy="-18" rx="79.09" ry="18"/>
<text text-anchor="middle" x="1206.8" y="-14.3" font-family="Times New Roman,serif" font-size="14.00">community worker</text>
</a>
</g>
</g>
<!-- 1&#45;&gt;17 -->
<g id="edge19" class="edge">
<title>1&#45;&gt;17</title>
<path fill="none" stroke="black" d="M696.62,-99.06C777.16,-94.17 892.71,-85.02 992.8,-69 1046.1,-60.47 1105.84,-46.09 1148.63,-34.94"/>
<polygon fill="black" stroke="black" points="1149.53,-38.33 1158.31,-32.4 1147.75,-31.56 1149.53,-38.33"/>
<text text-anchor="middle" x="1085.3" y="-57.8" font-family="Times New Roman,serif" font-size="14.00">0.038</text>
</g>
<!-- 2 -->
<g id="node3" class="node">
<title>2</title>
<g id="a_node3"><a xlink:href="brand manager.svg" xlink:title="brand manager">
<ellipse fill="none" stroke="black" cx="236.8" cy="-192" rx="64.19" ry="18"/>
<text text-anchor="middle" x="236.8" y="-188.3" font-family="Times New Roman,serif" font-size="14.00">brand manager</text>
</a>
</g>
</g>
<!-- 2&#45;&gt;1 -->
<g id="edge2" class="edge">
<title>2&#45;&gt;1</title>
<path fill="none" stroke="black" d="M284.14,-179.77C326.9,-169.64 391.56,-154.31 447.8,-141 473.43,-134.93 501.55,-128.28 526.34,-122.42"/>
<polygon fill="black" stroke="black" points="527.46,-125.75 536.38,-120.04 525.85,-118.94 527.46,-125.75"/>
<text text-anchor="middle" x="463.3" y="-144.8" font-family="Times New Roman,serif" font-size="14.00">0.057</text>
</g>
<!-- 3 -->
<g id="node4" class="node">
<title>3</title>
<g id="a_node4"><a xlink:href="medical physicist.svg" xlink:title="medical physicist">
<ellipse fill="none" stroke="black" cx="392.8" cy="-192" rx="73.39" ry="18"/>
<text text-anchor="middle" x="392.8" y="-188.3" font-family="Times New Roman,serif" font-size="14.00">medical physicist</text>
</a>
</g>
</g>
<!-- 3&#45;&gt;1 -->
<g id="edge3" class="edge">
<title>3&#45;&gt;1</title>
<path fill="none" stroke="black" d="M428.16,-176.19C461.42,-162.27 511.47,-141.31 548.23,-125.92"/>
<polygon fill="black" stroke="black" points="549.87,-129.03 557.74,-121.93 547.16,-122.57 549.87,-129.03"/>
<text text-anchor="middle" x="522.3" y="-144.8" font-family="Times New Roman,serif" font-size="14.00">0.057</text>
</g>
<!-- 4&#45;&gt;1 -->
<g id="edge4" class="edge">
<title>4&#45;&gt;1</title>
<path fill="none" stroke="black" d="M80.89,-30.48C87.76,-32.53 94.97,-34.48 101.8,-36 235.6,-65.68 392.83,-84.66 493.35,-94.82"/>
<polygon fill="black" stroke="black" points="493.2,-98.32 503.5,-95.83 493.9,-91.35 493.2,-98.32"/>
<text text-anchor="middle" x="293.3" y="-57.8" font-family="Times New Roman,serif" font-size="14.00">0.057</text>
</g>
<!-- 5 -->
<g id="node6" class="node">
<title>5</title>
<g id="a_node6"><a xlink:href="solicitor.svg" xlink:title="solicitor">
<ellipse fill="none" stroke="black" cx="524.8" cy="-192" rx="40.09" ry="18"/>
<text text-anchor="middle" x="524.8" y="-188.3" font-family="Times New Roman,serif" font-size="14.00">solicitor</text>
</a>
</g>
</g>
<!-- 5&#45;&gt;1 -->
<g id="edge5" class="edge">
<title>5&#45;&gt;1</title>
<path fill="none" stroke="black" d="M538.15,-175.01C548.49,-162.63 563.01,-145.25 574.89,-131.03"/>
<polygon fill="black" stroke="black" points="577.8,-133 581.53,-123.08 572.43,-128.51 577.8,-133"/>
<text text-anchor="middle" x="580.3" y="-144.8" font-family="Times New Roman,serif" font-size="14.00">0.057</text>
</g>
<!-- 6 -->
<g id="node7" class="node">
<title>6</title>
<g id="a_node7"><a xlink:href="armed forces officer.svg" xlink:title="armed forces officer">
<ellipse fill="none" stroke="black" cx="667.8" cy="-192" rx="85.29" ry="18"/>
<text text-anchor="middle" x="667.8" y="-188.3" font-family="Times New Roman,serif" font-size="14.00">armed forces officer</text>
</a>
</g>
</g>
<!-- 6&#45;&gt;1 -->
<g id="edge6" class="edge">
<title>6&#45;&gt;1</title>
<path fill="none" stroke="black" d="M653.57,-174.21C643.09,-161.83 628.66,-144.8 616.84,-130.85"/>
<polygon fill="black" stroke="black" points="619.37,-128.42 610.24,-123.05 614.03,-132.94 619.37,-128.42"/>
<text text-anchor="middle" x="652.3" y="-144.8" font-family="Times New Roman,serif" font-size="14.00">0.028</text>
</g>
<!-- 7 -->
<g id="node8" class="node">
<title>7</title>
<g id="a_node8"><a xlink:href="automotive engineer.svg" xlink:title="automotive engineer">
<ellipse fill="none" stroke="black" cx="853.8" cy="-192" rx="83.39" ry="18"/>
<text text-anchor="middle" x="853.8" y="-188.3" font-family="Times New Roman,serif" font-size="14.00">automotive engineer</text>
</a>
</g>
</g>
<!-- 7&#45;&gt;1 -->
<g id="edge7" class="edge">
<title>7&#45;&gt;1</title>
<path fill="none" stroke="black" d="M810.03,-176.58C766.45,-162.22 699.38,-140.13 651.91,-124.49"/>
<polygon fill="black" stroke="black" points="652.99,-121.16 642.4,-121.35 650.8,-127.81 652.99,-121.16"/>
<text text-anchor="middle" x="756.3" y="-144.8" font-family="Times New Roman,serif" font-size="14.00">0.028</text>
</g>
<!-- 8 -->
<g id="node9" class="node">
<title>8</title>
<g id="a_node9"><a xlink:href="building surveyor.svg" xlink:title="building surveyor">
<ellipse fill="none" stroke="black" cx="1028.8" cy="-192" rx="73.39" ry="18"/>
<text text-anchor="middle" x="1028.8" y="-188.3" font-family="Times New Roman,serif" font-size="14.00">building surveyor</text>
</a>
</g>
</g>
<!-- 8&#45;&gt;1 -->
<g id="edge8" class="edge">
<title>8&#45;&gt;1</title>
<path fill="none" stroke="black" d="M974.34,-179.76C964.83,-177.83 955.03,-175.84 945.8,-174 852.36,-155.35 744.74,-134.55 673.78,-120.92"/>
<polygon fill="black" stroke="black" points="674.07,-117.41 663.59,-118.96 672.75,-124.28 674.07,-117.41"/>
<text text-anchor="middle" x="864.3" y="-144.8" font-family="Times New Roman,serif" font-size="14.00">0.028</text>
</g>
<!-- 9 -->
<g id="node10" class="node">
<title>9</title>
<g id="a_node10"><a xlink:href="catering manager.svg" xlink:title="catering manager">
<ellipse fill="none" stroke="black" cx="1191.8" cy="-192" rx="71.49" ry="18"/>
<text text-anchor="middle" x="1191.8" y="-188.3" font-family="Times New Roman,serif" font-size="14.00">catering manager</text>
</a>
</g>
</g>
<!-- 9&#45;&gt;1 -->
<g id="edge9" class="edge">
<title>9&#45;&gt;1</title>
<path fill="none" stroke="black" d="M1139.6,-179.55C1130.04,-177.59 1120.13,-175.66 1110.8,-174 966.42,-148.38 797.7,-127.88 693.8,-116.32"/>
<polygon fill="black" stroke="black" points="693.96,-112.82 683.64,-115.2 693.19,-119.78 693.96,-112.82"/>
<text text-anchor="middle" x="1013.3" y="-144.8" font-family="Times New Roman,serif" font-size="14.00">0.028</text>
</g>
</g>
</svg>
