<?xml version="1.0" encoding="UTF-8" standalone="no"?>
<!DOCTYPE svg PUBLIC "-//W3C//DTD SVG 1.1//EN"
 "http://www.w3.org/Graphics/SVG/1.1/DTD/svg11.dtd">
<!-- Generated by graphviz version 2.44.1 (20200629.0800)
 -->
<!-- Title: test Pages: 1 -->
<svg width="1241pt" height="218pt"
 viewBox="0.00 0.00 1241.14 218.00" xmlns="http://www.w3.org/2000/svg" xmlns:xlink="http://www.w3.org/1999/xlink">
<g id="graph0" class="graph" transform="scale(1 1) rotate(0) translate(4 214)">
<title>test</title>
<polygon fill="white" stroke="transparent" points="-4,4 -4,-214 1237.14,-214 1237.14,4 -4,4"/>
<!-- 0 -->
<g id="node1" class="node">
<title>0</title>
<g id="a_node1"><a xlink:href="project manager.svg" xlink:title="project manager">
<ellipse fill="none" stroke="black" cx="396.44" cy="-192" rx="68.79" ry="18"/>
<text text-anchor="middle" x="396.44" y="-188.3" font-family="Times New Roman,serif" font-size="14.00">project manager</text>
</a>
</g>
</g>
<!-- 1 -->
<g id="node2" class="node">
<title>1</title>
<g id="a_node2"><a xlink:href="investment fund manager.svg" xlink:title="investment fund manager">
<ellipse fill="none" stroke="black" cx="560.44" cy="-105" rx="100.98" ry="18"/>
<text text-anchor="middle" x="560.44" y="-101.3" font-family="Times New Roman,serif" font-size="14.00">investment fund manager</text>
</a>
</g>
</g>
<!-- 0&#45;&gt;1 -->
<g id="edge1" class="edge">
<title>0&#45;&gt;1</title>
<path fill="none" stroke="black" d="M407.3,-173.89C415.03,-163 426.34,-149.42 439.44,-141 452.42,-132.66 467.44,-126.26 482.38,-121.36"/>
<polygon fill="black" stroke="black" points="483.64,-124.64 492.17,-118.36 481.58,-117.95 483.64,-124.64"/>
<text text-anchor="middle" x="454.94" y="-144.8" font-family="Times New Roman,serif" font-size="14.00">0.102</text>
</g>
<!-- 1&#45;&gt;0 -->
<g id="edge11" class="edge">
<title>1&#45;&gt;0</title>
<path fill="none" stroke="black" d="M531.92,-122.47C514.35,-132.46 491.27,-145.3 470.44,-156 460.08,-161.32 448.76,-166.83 438.17,-171.85"/>
<polygon fill="black" stroke="black" points="436.65,-168.7 429.09,-176.12 439.63,-175.03 436.65,-168.7"/>
<text text-anchor="middle" x="513.94" y="-144.8" font-family="Times New Roman,serif" font-size="14.00">0.089</text>
</g>
<!-- 1&#45;&gt;1 -->
<g id="edge10" class="edge">
<title>1&#45;&gt;1</title>
<path fill="none" stroke="black" d="M652.55,-112.35C668.28,-111.35 679.18,-108.9 679.18,-105 679.18,-102.02 672.79,-99.88 662.74,-98.59"/>
<polygon fill="black" stroke="black" points="662.83,-95.09 652.55,-97.65 662.18,-102.06 662.83,-95.09"/>
<text text-anchor="middle" x="694.68" y="-101.3" font-family="Times New Roman,serif" font-size="14.00">0.121</text>
</g>
<!-- 2 -->
<g id="node3" class="node">
<title>2</title>
<g id="a_node3"><a xlink:href="financial manager.svg" xlink:title="financial manager">
<ellipse fill="none" stroke="black" cx="73.44" cy="-18" rx="73.39" ry="18"/>
<text text-anchor="middle" x="73.44" y="-14.3" font-family="Times New Roman,serif" font-size="14.00">financial manager</text>
</a>
</g>
</g>
<!-- 1&#45;&gt;2 -->
<g id="edge12" class="edge">
<title>1&#45;&gt;2</title>
<path fill="none" stroke="black" d="M462.81,-100.28C362.89,-95.62 214.81,-86.08 160.44,-69 140.39,-62.7 119.91,-51.23 103.87,-40.87"/>
<polygon fill="black" stroke="black" points="105.71,-37.88 95.44,-35.26 101.83,-43.71 105.71,-37.88"/>
<text text-anchor="middle" x="175.94" y="-57.8" font-family="Times New Roman,serif" font-size="14.00">0.057</text>
</g>
<!-- 3 -->
<g id="node4" class="node">
<title>3</title>
<g id="a_node4"><a xlink:href="heritage manager.svg" xlink:title="heritage manager">
<ellipse fill="none" stroke="black" cx="236.44" cy="-18" rx="71.49" ry="18"/>
<text text-anchor="middle" x="236.44" y="-14.3" font-family="Times New Roman,serif" font-size="14.00">heritage manager</text>
</a>
</g>
</g>
<!-- 1&#45;&gt;3 -->
<g id="edge15" class="edge">
<title>1&#45;&gt;3</title>
<path fill="none" stroke="black" d="M465.93,-98.6C421.16,-93.93 367.53,-85.23 321.44,-69 302.41,-62.3 282.88,-51.17 267.35,-41.11"/>
<polygon fill="black" stroke="black" points="268.97,-37.98 258.71,-35.35 265.09,-43.81 268.97,-37.98"/>
<text text-anchor="middle" x="336.94" y="-57.8" font-family="Times New Roman,serif" font-size="14.00">0.038</text>
</g>
<!-- 5 -->
<g id="node6" class="node">
<title>5</title>
<g id="a_node6"><a xlink:href="pharmacovigilance officer.svg" xlink:title="pharmacovigilance officer">
<ellipse fill="none" stroke="black" cx="430.44" cy="-18" rx="104.78" ry="18"/>
<text text-anchor="middle" x="430.44" y="-14.3" font-family="Times New Roman,serif" font-size="14.00">pharmacovigilance officer</text>
</a>
</g>
</g>
<!-- 1&#45;&gt;5 -->
<g id="edge14" class="edge">
<title>1&#45;&gt;5</title>
<path fill="none" stroke="black" d="M493.7,-91.48C479.2,-86.35 464.83,-79.14 453.44,-69 446.57,-62.88 441.62,-54.28 438.11,-45.95"/>
<polygon fill="black" stroke="black" points="441.35,-44.62 434.62,-36.44 434.78,-47.03 441.35,-44.62"/>
<text text-anchor="middle" x="468.94" y="-57.8" font-family="Times New Roman,serif" font-size="14.00">0.044</text>
</g>
<!-- 6 -->
<g id="node7" class="node">
<title>6</title>
<g id="a_node7"><a xlink:href="sales manager.svg" xlink:title="sales manager">
<ellipse fill="none" stroke="black" cx="614.44" cy="-18" rx="61.19" ry="18"/>
<text text-anchor="middle" x="614.44" y="-14.3" font-family="Times New Roman,serif" font-size="14.00">sales manager</text>
</a>
</g>
</g>
<!-- 1&#45;&gt;6 -->
<g id="edge18" class="edge">
<title>1&#45;&gt;6</title>
<path fill="none" stroke="black" d="M554.97,-86.76C552.78,-76.61 551.92,-63.87 557.44,-54 560.8,-48.01 565.64,-42.92 571.11,-38.63"/>
<polygon fill="black" stroke="black" points="573.19,-41.45 579.47,-32.91 569.24,-35.67 573.19,-41.45"/>
<text text-anchor="middle" x="572.94" y="-57.8" font-family="Times New Roman,serif" font-size="14.00">0.038</text>
</g>
<!-- 7 -->
<g id="node8" class="node">
<title>7</title>
<g id="a_node8"><a xlink:href="production manager.svg" xlink:title="production manager">
<ellipse fill="none" stroke="black" cx="776.44" cy="-18" rx="83.39" ry="18"/>
<text text-anchor="middle" x="776.44" y="-14.3" font-family="Times New Roman,serif" font-size="14.00">production manager</text>
</a>
</g>
</g>
<!-- 1&#45;&gt;7 -->
<g id="edge17" class="edge">
<title>1&#45;&gt;7</title>
<path fill="none" stroke="black" d="M597.96,-88.25C622.03,-78.25 653.98,-65.13 682.44,-54 696.54,-48.49 711.91,-42.68 726.05,-37.42"/>
<polygon fill="black" stroke="black" points="727.46,-40.63 735.62,-33.87 725.02,-34.07 727.46,-40.63"/>
<text text-anchor="middle" x="697.94" y="-57.8" font-family="Times New Roman,serif" font-size="14.00">0.038</text>
</g>
<!-- 10 -->
<g id="node11" class="node">
<title>10</title>
<g id="a_node11"><a xlink:href="it consultant.svg" xlink:title="it consultant">
<ellipse fill="none" stroke="black" cx="932.44" cy="-18" rx="54.69" ry="18"/>
<text text-anchor="middle" x="932.44" y="-14.3" font-family="Times New Roman,serif" font-size="14.00">it consultant</text>
</a>
</g>
</g>
<!-- 1&#45;&gt;10 -->
<g id="edge13" class="edge">
<title>1&#45;&gt;10</title>
<path fill="none" stroke="black" d="M639.88,-93.91C680.68,-88.01 731.03,-79.63 775.44,-69 813.85,-59.81 856.5,-45.99 887.63,-35.21"/>
<polygon fill="black" stroke="black" points="889.03,-38.43 897.32,-31.82 886.73,-31.82 889.03,-38.43"/>
<text text-anchor="middle" x="842.94" y="-57.8" font-family="Times New Roman,serif" font-size="14.00">0.050</text>
</g>
<!-- 11 -->
<g id="node12" class="node">
<title>11</title>
<g id="a_node12"><a xlink:href="housing adviser.svg" xlink:title="housing adviser">
<ellipse fill="none" stroke="black" cx="1072.44" cy="-18" rx="67.69" ry="18"/>
<text text-anchor="middle" x="1072.44" y="-14.3" font-family="Times New Roman,serif" font-size="14.00">housing adviser</text>
</a>
</g>
</g>
<!-- 1&#45;&gt;11 -->
<g id="edge16" class="edge">
<title>1&#45;&gt;11</title>
<path fill="none" stroke="black" d="M649.38,-96.48C709.75,-90.7 791.23,-81.56 862.44,-69 915.4,-59.66 974.97,-45.08 1017.1,-34.07"/>
<polygon fill="black" stroke="black" points="1018.11,-37.43 1026.89,-31.5 1016.33,-30.66 1018.11,-37.43"/>
<text text-anchor="middle" x="946.94" y="-57.8" font-family="Times New Roman,serif" font-size="14.00">0.038</text>
</g>
<!-- 12 -->
<g id="node13" class="node">
<title>12</title>
<g id="a_node13"><a xlink:href="lecturer.svg" xlink:title="lecturer">
<ellipse fill="none" stroke="black" cx="1195.44" cy="-18" rx="37.89" ry="18"/>
<text text-anchor="middle" x="1195.44" y="-14.3" font-family="Times New Roman,serif" font-size="14.00">lecturer</text>
</a>
</g>
</g>
<!-- 1&#45;&gt;12 -->
<g id="edge19" class="edge">
<title>1&#45;&gt;12</title>
<path fill="none" stroke="black" d="M654.24,-98.38C736.7,-92.86 859.85,-83.18 966.44,-69 1048.37,-58.11 1069.71,-57.74 1149.44,-36 1152.22,-35.24 1155.06,-34.39 1157.9,-33.48"/>
<polygon fill="black" stroke="black" points="1159.14,-36.76 1167.48,-30.22 1156.88,-30.13 1159.14,-36.76"/>
<text text-anchor="middle" x="1085.94" y="-57.8" font-family="Times New Roman,serif" font-size="14.00">0.025</text>
</g>
<!-- 2&#45;&gt;1 -->
<g id="edge2" class="edge">
<title>2&#45;&gt;1</title>
<path fill="none" stroke="black" d="M116.03,-32.7C152.64,-44 207.03,-59.63 255.44,-69 322.84,-82.04 399.63,-90.82 459.29,-96.33"/>
<polygon fill="black" stroke="black" points="459.19,-99.83 469.47,-97.25 459.83,-92.86 459.19,-99.83"/>
<text text-anchor="middle" x="270.94" y="-57.8" font-family="Times New Roman,serif" font-size="14.00">0.056</text>
</g>
<!-- 3&#45;&gt;1 -->
<g id="edge3" class="edge">
<title>3&#45;&gt;1</title>
<path fill="none" stroke="black" d="M280.09,-32.43C314.74,-42.91 364.51,-57.56 408.44,-69 434.59,-75.8 463.44,-82.62 488.91,-88.41"/>
<polygon fill="black" stroke="black" points="488.34,-91.86 498.87,-90.65 489.88,-85.04 488.34,-91.86"/>
<text text-anchor="middle" x="423.94" y="-57.8" font-family="Times New Roman,serif" font-size="14.00">0.056</text>
</g>
<!-- 4 -->
<g id="node5" class="node">
<title>4</title>
<g id="a_node5"><a xlink:href="investment analyst.svg" xlink:title="investment analyst">
<ellipse fill="none" stroke="black" cx="560.44" cy="-192" rx="76.89" ry="18"/>
<text text-anchor="middle" x="560.44" y="-188.3" font-family="Times New Roman,serif" font-size="14.00">investment analyst</text>
</a>
</g>
</g>
<!-- 4&#45;&gt;1 -->
<g id="edge4" class="edge">
<title>4&#45;&gt;1</title>
<path fill="none" stroke="black" d="M560.44,-173.8C560.44,-162.16 560.44,-146.55 560.44,-133.24"/>
<polygon fill="black" stroke="black" points="563.94,-133.18 560.44,-123.18 556.94,-133.18 563.94,-133.18"/>
<text text-anchor="middle" x="575.94" y="-144.8" font-family="Times New Roman,serif" font-size="14.00">0.051</text>
</g>
<!-- 5&#45;&gt;1 -->
<g id="edge5" class="edge">
<title>5&#45;&gt;1</title>
<path fill="none" stroke="black" d="M455.75,-35.55C475.96,-48.76 504.45,-67.39 526.61,-81.88"/>
<polygon fill="black" stroke="black" points="524.78,-84.87 535.07,-87.41 528.62,-79.01 524.78,-84.87"/>
<text text-anchor="middle" x="518.94" y="-57.8" font-family="Times New Roman,serif" font-size="14.00">0.040</text>
</g>
<!-- 6&#45;&gt;1 -->
<g id="edge6" class="edge">
<title>6&#45;&gt;1</title>
<path fill="none" stroke="black" d="M608.41,-36.37C604.57,-46.33 599.07,-58.83 592.44,-69 590.12,-72.57 587.42,-76.13 584.61,-79.53"/>
<polygon fill="black" stroke="black" points="581.9,-77.31 577.92,-87.12 587.16,-81.93 581.9,-77.31"/>
<text text-anchor="middle" x="616.94" y="-57.8" font-family="Times New Roman,serif" font-size="14.00">0.040</text>
</g>
<!-- 7&#45;&gt;1 -->
<g id="edge7" class="edge">
<title>7&#45;&gt;1</title>
<path fill="none" stroke="black" d="M760.97,-35.82C749.88,-46.87 734.04,-60.75 717.44,-69 696.75,-79.28 673.03,-86.58 650.4,-91.74"/>
<polygon fill="black" stroke="black" points="649.47,-88.36 640.44,-93.89 650.95,-95.2 649.47,-88.36"/>
<text text-anchor="middle" x="755.94" y="-57.8" font-family="Times New Roman,serif" font-size="14.00">0.035</text>
</g>
<!-- 8 -->
<g id="node9" class="node">
<title>8</title>
<g id="a_node9"><a xlink:href="facilities manager.svg" xlink:title="facilities manager">
<ellipse fill="none" stroke="black" cx="727.44" cy="-192" rx="72.59" ry="18"/>
<text text-anchor="middle" x="727.44" y="-188.3" font-family="Times New Roman,serif" font-size="14.00">facilities manager</text>
</a>
</g>
</g>
<!-- 8&#45;&gt;1 -->
<g id="edge8" class="edge">
<title>8&#45;&gt;1</title>
<path fill="none" stroke="black" d="M697.2,-175.61C670.4,-161.97 631.03,-141.93 601.41,-126.85"/>
<polygon fill="black" stroke="black" points="602.66,-123.56 592.16,-122.15 599.49,-129.8 602.66,-123.56"/>
<text text-anchor="middle" x="669.94" y="-144.8" font-family="Times New Roman,serif" font-size="14.00">0.030</text>
</g>
<!-- 9 -->
<g id="node10" class="node">
<title>9</title>
<g id="a_node10"><a xlink:href="programme researcher.svg" xlink:title="programme researcher">
<ellipse fill="none" stroke="black" cx="909.44" cy="-192" rx="91.78" ry="18"/>
<text text-anchor="middle" x="909.44" y="-188.3" font-family="Times New Roman,serif" font-size="14.00">programme researcher</text>
</a>
</g>
</g>
<!-- 9&#45;&gt;1 -->
<g id="edge9" class="edge">
<title>9&#45;&gt;1</title>
<path fill="none" stroke="black" d="M854.14,-177.53C792.62,-162.55 693.24,-138.34 627.38,-122.3"/>
<polygon fill="black" stroke="black" points="628.06,-118.87 617.51,-119.9 626.4,-125.67 628.06,-118.87"/>
<text text-anchor="middle" x="770.94" y="-144.8" font-family="Times New Roman,serif" font-size="14.00">0.025</text>
</g>
</g>
</svg>
