<?xml version="1.0" encoding="UTF-8" standalone="no"?>
<!DOCTYPE svg PUBLIC "-//W3C//DTD SVG 1.1//EN"
 "http://www.w3.org/Graphics/SVG/1.1/DTD/svg11.dtd">
<!-- Generated by graphviz version 2.44.1 (20200629.0800)
 -->
<!-- Title: it_consultant Pages: 1 -->
<svg width="1291pt" height="218pt"
 viewBox="0.00 0.00 1291.49 218.00" xmlns="http://www.w3.org/2000/svg" xmlns:xlink="http://www.w3.org/1999/xlink">
<g id="graph0" class="graph" transform="scale(1 1) rotate(0) translate(4 214)">
<title>it_consultant</title>
<polygon fill="white" stroke="transparent" points="-4,4 -4,-214 1287.49,-214 1287.49,4 -4,4"/>
<!-- 0 -->
<g id="node1" class="node">
<title>0</title>
<g id="a_node1"><a xlink:href="software developer.svg" xlink:title="software developer">
<ellipse fill="none" stroke="black" cx="348.89" cy="-192" rx="79.89" ry="18"/>
<text text-anchor="middle" x="348.89" y="-188.3" font-family="Times New Roman,serif" font-size="14.00">software developer</text>
</a>
</g>
</g>
<!-- 1 -->
<g id="node2" class="node">
<title>1</title>
<g id="a_node2"><a xlink:href="it consultant.svg" xlink:title="it consultant">
<ellipse fill="none" stroke="black" cx="523.89" cy="-105" rx="54.69" ry="18"/>
<text text-anchor="middle" x="523.89" y="-101.3" font-family="Times New Roman,serif" font-size="14.00">it consultant</text>
</a>
</g>
</g>
<!-- 0&#45;&gt;1 -->
<g id="edge1" class="edge">
<title>0&#45;&gt;1</title>
<path fill="none" stroke="black" d="M362.39,-173.92C371.82,-163.04 385.3,-149.46 399.89,-141 420.12,-129.28 444.49,-121.29 466.26,-115.95"/>
<polygon fill="black" stroke="black" points="467.1,-119.35 476.05,-113.68 465.52,-112.53 467.1,-119.35"/>
<text text-anchor="middle" x="415.39" y="-144.8" font-family="Times New Roman,serif" font-size="14.00">0.062</text>
</g>
<!-- 1&#45;&gt;0 -->
<g id="edge12" class="edge">
<title>1&#45;&gt;0</title>
<path fill="none" stroke="black" d="M497.76,-120.86C479.3,-131.16 453.86,-144.95 430.89,-156 419.45,-161.51 406.91,-167.08 395.16,-172.11"/>
<polygon fill="black" stroke="black" points="393.79,-168.89 385.95,-176.02 396.52,-175.34 393.79,-168.89"/>
<text text-anchor="middle" x="475.39" y="-144.8" font-family="Times New Roman,serif" font-size="14.00">0.053</text>
</g>
<!-- 1&#45;&gt;1 -->
<g id="edge10" class="edge">
<title>1&#45;&gt;1</title>
<path fill="none" stroke="black" d="M573.09,-112.82C586.38,-112.4 596.49,-109.8 596.49,-105 596.49,-101.51 591.15,-99.18 583.14,-98.01"/>
<polygon fill="black" stroke="black" points="583.35,-94.52 573.09,-97.18 582.77,-101.5 583.35,-94.52"/>
<text text-anchor="middle" x="611.99" y="-101.3" font-family="Times New Roman,serif" font-size="14.00">0.382</text>
</g>
<!-- 2 -->
<g id="node3" class="node">
<title>2</title>
<g id="a_node3"><a xlink:href="project manager.svg" xlink:title="project manager">
<ellipse fill="none" stroke="black" cx="68.89" cy="-18" rx="68.79" ry="18"/>
<text text-anchor="middle" x="68.89" y="-14.3" font-family="Times New Roman,serif" font-size="14.00">project manager</text>
</a>
</g>
</g>
<!-- 1&#45;&gt;2 -->
<g id="edge11" class="edge">
<title>1&#45;&gt;2</title>
<path fill="none" stroke="black" d="M469.3,-103.3C375.31,-101.41 187.21,-94.48 126.89,-69 113.23,-63.23 100.46,-52.99 90.4,-43.28"/>
<polygon fill="black" stroke="black" points="92.78,-40.7 83.27,-36.03 87.79,-45.61 92.78,-40.7"/>
<text text-anchor="middle" x="142.39" y="-57.8" font-family="Times New Roman,serif" font-size="14.00">0.071</text>
</g>
<!-- 3 -->
<g id="node4" class="node">
<title>3</title>
<g id="a_node4"><a xlink:href="qa analyst.svg" xlink:title="qa analyst">
<ellipse fill="none" stroke="black" cx="202.89" cy="-18" rx="46.59" ry="18"/>
<text text-anchor="middle" x="202.89" y="-14.3" font-family="Times New Roman,serif" font-size="14.00">qa analyst</text>
</a>
</g>
</g>
<!-- 1&#45;&gt;3 -->
<g id="edge14" class="edge">
<title>1&#45;&gt;3</title>
<path fill="none" stroke="black" d="M469.39,-103.14C418.36,-100.75 340.76,-93 277.89,-69 260.46,-62.34 242.99,-51.04 229.31,-40.86"/>
<polygon fill="black" stroke="black" points="231.37,-38.04 221.31,-34.72 227.11,-43.59 231.37,-38.04"/>
<text text-anchor="middle" x="293.39" y="-57.8" font-family="Times New Roman,serif" font-size="14.00">0.042</text>
</g>
<!-- 5 -->
<g id="node6" class="node">
<title>5</title>
<g id="a_node6"><a xlink:href="pharmacovigilance officer.svg" xlink:title="pharmacovigilance officer">
<ellipse fill="none" stroke="black" cx="371.89" cy="-18" rx="104.78" ry="18"/>
<text text-anchor="middle" x="371.89" y="-14.3" font-family="Times New Roman,serif" font-size="14.00">pharmacovigilance officer</text>
</a>
</g>
</g>
<!-- 1&#45;&gt;5 -->
<g id="edge13" class="edge">
<title>1&#45;&gt;5</title>
<path fill="none" stroke="black" d="M476.01,-96.25C454.4,-91.07 429.42,-82.63 409.89,-69 400.77,-62.63 392.89,-53.4 386.7,-44.6"/>
<polygon fill="black" stroke="black" points="389.51,-42.5 381.1,-36.06 383.66,-46.35 389.51,-42.5"/>
<text text-anchor="middle" x="425.39" y="-57.8" font-family="Times New Roman,serif" font-size="14.00">0.046</text>
</g>
<!-- 6 -->
<g id="node7" class="node">
<title>6</title>
<g id="a_node7"><a xlink:href="production manager.svg" xlink:title="production manager">
<ellipse fill="none" stroke="black" cx="577.89" cy="-18" rx="83.39" ry="18"/>
<text text-anchor="middle" x="577.89" y="-14.3" font-family="Times New Roman,serif" font-size="14.00">production manager</text>
</a>
</g>
</g>
<!-- 1&#45;&gt;6 -->
<g id="edge17" class="edge">
<title>1&#45;&gt;6</title>
<path fill="none" stroke="black" d="M518.42,-86.76C516.23,-76.61 515.37,-63.87 520.89,-54 523.84,-48.74 527.93,-44.18 532.58,-40.24"/>
<polygon fill="black" stroke="black" points="534.84,-42.93 540.84,-34.2 530.7,-37.28 534.84,-42.93"/>
<text text-anchor="middle" x="536.39" y="-57.8" font-family="Times New Roman,serif" font-size="14.00">0.031</text>
</g>
<!-- 7 -->
<g id="node8" class="node">
<title>7</title>
<g id="a_node8"><a xlink:href="sales manager.svg" xlink:title="sales manager">
<ellipse fill="none" stroke="black" cx="739.89" cy="-18" rx="61.19" ry="18"/>
<text text-anchor="middle" x="739.89" y="-14.3" font-family="Times New Roman,serif" font-size="14.00">sales manager</text>
</a>
</g>
</g>
<!-- 1&#45;&gt;7 -->
<g id="edge16" class="edge">
<title>1&#45;&gt;7</title>
<path fill="none" stroke="black" d="M556.14,-90.45C580.67,-80.22 615.3,-65.96 645.89,-54 661.19,-48.02 677.98,-41.69 693.08,-36.09"/>
<polygon fill="black" stroke="black" points="694.57,-39.27 702.73,-32.52 692.14,-32.71 694.57,-39.27"/>
<text text-anchor="middle" x="661.39" y="-57.8" font-family="Times New Roman,serif" font-size="14.00">0.033</text>
</g>
<!-- 10 -->
<g id="node11" class="node">
<title>10</title>
<g id="a_node11"><a xlink:href="software architect.svg" xlink:title="software architect">
<ellipse fill="none" stroke="black" cx="893.89" cy="-18" rx="75.29" ry="18"/>
<text text-anchor="middle" x="893.89" y="-14.3" font-family="Times New Roman,serif" font-size="14.00">software architect</text>
</a>
</g>
</g>
<!-- 1&#45;&gt;10 -->
<g id="edge15" class="edge">
<title>1&#45;&gt;10</title>
<path fill="none" stroke="black" d="M574.28,-97.98C618.13,-92.23 683.2,-82.44 738.89,-69 774.98,-60.29 814.82,-47.37 845.07,-36.84"/>
<polygon fill="black" stroke="black" points="846.27,-40.13 854.54,-33.51 843.95,-33.52 846.27,-40.13"/>
<text text-anchor="middle" x="805.39" y="-57.8" font-family="Times New Roman,serif" font-size="14.00">0.041</text>
</g>
<!-- 11 -->
<g id="node12" class="node">
<title>11</title>
<g id="a_node12"><a xlink:href="public affairs consultant.svg" xlink:title="public affairs consultant">
<ellipse fill="none" stroke="black" cx="1084.89" cy="-18" rx="97.48" ry="18"/>
<text text-anchor="middle" x="1084.89" y="-14.3" font-family="Times New Roman,serif" font-size="14.00">public affairs consultant</text>
</a>
</g>
</g>
<!-- 1&#45;&gt;11 -->
<g id="edge18" class="edge">
<title>1&#45;&gt;11</title>
<path fill="none" stroke="black" d="M575.71,-99.15C635.82,-93.26 737.8,-82.42 824.89,-69 889.23,-59.09 961.96,-44.84 1014.1,-34.09"/>
<polygon fill="black" stroke="black" points="1014.83,-37.51 1023.92,-32.05 1013.41,-30.66 1014.83,-37.51"/>
<text text-anchor="middle" x="926.39" y="-57.8" font-family="Times New Roman,serif" font-size="14.00">0.028</text>
</g>
<!-- 12 -->
<g id="node13" class="node">
<title>12</title>
<g id="a_node13"><a xlink:href="architect.svg" xlink:title="architect">
<ellipse fill="none" stroke="black" cx="1241.89" cy="-18" rx="41.69" ry="18"/>
<text text-anchor="middle" x="1241.89" y="-14.3" font-family="Times New Roman,serif" font-size="14.00">architect</text>
</a>
</g>
</g>
<!-- 1&#45;&gt;12 -->
<g id="edge19" class="edge">
<title>1&#45;&gt;12</title>
<path fill="none" stroke="black" d="M578.25,-103.08C692.95,-100.14 967.51,-87.79 1190.89,-36 1194.32,-35.21 1197.83,-34.28 1201.35,-33.27"/>
<polygon fill="black" stroke="black" points="1202.6,-36.55 1211.14,-30.28 1200.56,-29.86 1202.6,-36.55"/>
<text text-anchor="middle" x="1116.39" y="-57.8" font-family="Times New Roman,serif" font-size="14.00">0.024</text>
</g>
<!-- 2&#45;&gt;1 -->
<g id="edge2" class="edge">
<title>2&#45;&gt;1</title>
<path fill="none" stroke="black" d="M104.27,-33.54C133.46,-44.94 176.21,-60.29 214.89,-69 298.47,-87.81 397.14,-96.75 460.1,-100.83"/>
<polygon fill="black" stroke="black" points="460.07,-104.33 470.27,-101.46 460.51,-97.34 460.07,-104.33"/>
<text text-anchor="middle" x="230.39" y="-57.8" font-family="Times New Roman,serif" font-size="14.00">0.046</text>
</g>
<!-- 3&#45;&gt;1 -->
<g id="edge3" class="edge">
<title>3&#45;&gt;1</title>
<path fill="none" stroke="black" d="M238.07,-30.18C259.66,-37.05 287.88,-46.03 312.89,-54 333.79,-60.66 338.7,-63.37 359.89,-69 395.44,-78.44 435.84,-87.09 467.65,-93.42"/>
<polygon fill="black" stroke="black" points="467.17,-96.9 477.66,-95.4 468.52,-90.03 467.17,-96.9"/>
<text text-anchor="middle" x="375.39" y="-57.8" font-family="Times New Roman,serif" font-size="14.00">0.029</text>
</g>
<!-- 4 -->
<g id="node5" class="node">
<title>4</title>
<g id="a_node5"><a xlink:href="investment analyst.svg" xlink:title="investment analyst">
<ellipse fill="none" stroke="black" cx="523.89" cy="-192" rx="76.89" ry="18"/>
<text text-anchor="middle" x="523.89" y="-188.3" font-family="Times New Roman,serif" font-size="14.00">investment analyst</text>
</a>
</g>
</g>
<!-- 4&#45;&gt;1 -->
<g id="edge4" class="edge">
<title>4&#45;&gt;1</title>
<path fill="none" stroke="black" d="M523.89,-173.8C523.89,-162.16 523.89,-146.55 523.89,-133.24"/>
<polygon fill="black" stroke="black" points="527.39,-133.18 523.89,-123.18 520.39,-133.18 527.39,-133.18"/>
<text text-anchor="middle" x="539.39" y="-144.8" font-family="Times New Roman,serif" font-size="14.00">0.025</text>
</g>
<!-- 5&#45;&gt;1 -->
<g id="edge5" class="edge">
<title>5&#45;&gt;1</title>
<path fill="none" stroke="black" d="M407.59,-35.09C419.6,-40.77 432.97,-47.4 444.89,-54 461,-62.92 478.35,-73.75 492.67,-83.05"/>
<polygon fill="black" stroke="black" points="490.88,-86.06 501.16,-88.61 494.72,-80.21 490.88,-86.06"/>
<text text-anchor="middle" x="485.39" y="-57.8" font-family="Times New Roman,serif" font-size="14.00">0.023</text>
</g>
<!-- 6&#45;&gt;1 -->
<g id="edge6" class="edge">
<title>6&#45;&gt;1</title>
<path fill="none" stroke="black" d="M571.86,-36.37C568.02,-46.33 562.52,-58.83 555.89,-69 553.4,-72.83 550.48,-76.64 547.44,-80.27"/>
<polygon fill="black" stroke="black" points="544.74,-78.04 540.71,-87.83 549.97,-82.69 544.74,-78.04"/>
<text text-anchor="middle" x="580.39" y="-57.8" font-family="Times New Roman,serif" font-size="14.00">0.021</text>
</g>
<!-- 7&#45;&gt;1 -->
<g id="edge7" class="edge">
<title>7&#45;&gt;1</title>
<path fill="none" stroke="black" d="M724.42,-35.82C713.34,-46.87 697.49,-60.75 680.89,-69 651.24,-83.74 615.36,-92.33 585.4,-97.31"/>
<polygon fill="black" stroke="black" points="584.82,-93.86 575.48,-98.87 585.9,-100.78 584.82,-93.86"/>
<text text-anchor="middle" x="719.39" y="-57.8" font-family="Times New Roman,serif" font-size="14.00">0.018</text>
</g>
<!-- 8 -->
<g id="node9" class="node">
<title>8</title>
<g id="a_node9"><a xlink:href="systems analyst.svg" xlink:title="systems analyst">
<ellipse fill="none" stroke="black" cx="685.89" cy="-192" rx="67.69" ry="18"/>
<text text-anchor="middle" x="685.89" y="-188.3" font-family="Times New Roman,serif" font-size="14.00">systems analyst</text>
</a>
</g>
</g>
<!-- 8&#45;&gt;1 -->
<g id="edge8" class="edge">
<title>8&#45;&gt;1</title>
<path fill="none" stroke="black" d="M656.56,-175.61C629.65,-161.49 589.7,-140.53 560.67,-125.3"/>
<polygon fill="black" stroke="black" points="562.14,-122.12 551.66,-120.57 558.89,-128.31 562.14,-122.12"/>
<text text-anchor="middle" x="630.39" y="-144.8" font-family="Times New Roman,serif" font-size="14.00">0.017</text>
</g>
<!-- 9 -->
<g id="node10" class="node">
<title>9</title>
<g id="a_node10"><a xlink:href="careers adviser.svg" xlink:title="careers adviser">
<ellipse fill="none" stroke="black" cx="836.89" cy="-192" rx="64.99" ry="18"/>
<text text-anchor="middle" x="836.89" y="-188.3" font-family="Times New Roman,serif" font-size="14.00">careers adviser</text>
</a>
</g>
</g>
<!-- 9&#45;&gt;1 -->
<g id="edge9" class="edge">
<title>9&#45;&gt;1</title>
<path fill="none" stroke="black" d="M792.05,-178.82C734.4,-163.17 634.59,-136.06 574.35,-119.7"/>
<polygon fill="black" stroke="black" points="575.24,-116.32 564.67,-117.07 573.41,-123.07 575.24,-116.32"/>
<text text-anchor="middle" x="714.39" y="-144.8" font-family="Times New Roman,serif" font-size="14.00">0.017</text>
</g>
</g>
</svg>
