<?xml version="1.0" encoding="UTF-8" standalone="no"?>
<!DOCTYPE svg PUBLIC "-//W3C//DTD SVG 1.1//EN"
 "http://www.w3.org/Graphics/SVG/1.1/DTD/svg11.dtd">
<!-- Generated by graphviz version 2.44.1 (20200629.0800)
 -->
<!-- Title: test Pages: 1 -->
<svg width="1249pt" height="218pt"
 viewBox="0.00 0.00 1249.49 218.00" xmlns="http://www.w3.org/2000/svg" xmlns:xlink="http://www.w3.org/1999/xlink">
<g id="graph0" class="graph" transform="scale(1 1) rotate(0) translate(4 214)">
<title>test</title>
<polygon fill="white" stroke="transparent" points="-4,4 -4,-214 1245.49,-214 1245.49,4 -4,4"/>
<!-- 0 -->
<g id="node1" class="node">
<title>0</title>
<g id="a_node1"><a xlink:href="software developer.svg" xlink:title="software developer">
<ellipse fill="none" stroke="black" cx="542.89" cy="-192" rx="79.89" ry="18"/>
<text text-anchor="middle" x="542.89" y="-188.3" font-family="Times New Roman,serif" font-size="14.00">software developer</text>
</a>
</g>
</g>
<!-- 1 -->
<g id="node2" class="node">
<title>1</title>
<g id="a_node2"><a xlink:href="it consultant.svg" xlink:title="it consultant">
<ellipse fill="none" stroke="black" cx="596.89" cy="-105" rx="54.69" ry="18"/>
<text text-anchor="middle" x="596.89" y="-101.3" font-family="Times New Roman,serif" font-size="14.00">it consultant</text>
</a>
</g>
</g>
<!-- 0&#45;&gt;1 -->
<g id="edge1" class="edge">
<title>0&#45;&gt;1</title>
<path fill="none" stroke="black" d="M539.42,-173.77C538.27,-163.63 538.45,-150.89 543.89,-141 547.18,-135.03 551.97,-129.9 557.35,-125.56"/>
<polygon fill="black" stroke="black" points="559.41,-128.39 565.54,-119.75 555.36,-122.68 559.41,-128.39"/>
<text text-anchor="middle" x="559.39" y="-144.8" font-family="Times New Roman,serif" font-size="14.00">0.059</text>
</g>
<!-- 1&#45;&gt;0 -->
<g id="edge12" class="edge">
<title>1&#45;&gt;0</title>
<path fill="none" stroke="black" d="M591.04,-122.91C587.19,-132.94 581.63,-145.67 574.89,-156 572.57,-159.57 569.87,-163.13 567.06,-166.53"/>
<polygon fill="black" stroke="black" points="564.35,-164.31 560.37,-174.12 569.61,-168.93 564.35,-164.31"/>
<text text-anchor="middle" x="599.39" y="-144.8" font-family="Times New Roman,serif" font-size="14.00">0.051</text>
</g>
<!-- 1&#45;&gt;1 -->
<g id="edge10" class="edge">
<title>1&#45;&gt;1</title>
<path fill="none" stroke="black" d="M646.09,-112.82C659.38,-112.4 669.49,-109.8 669.49,-105 669.49,-101.51 664.15,-99.18 656.14,-98.01"/>
<polygon fill="black" stroke="black" points="656.35,-94.52 646.09,-97.18 655.77,-101.5 656.35,-94.52"/>
<text text-anchor="middle" x="684.99" y="-101.3" font-family="Times New Roman,serif" font-size="14.00">0.403</text>
</g>
<!-- 2 -->
<g id="node3" class="node">
<title>2</title>
<g id="a_node3"><a xlink:href="project manager.svg" xlink:title="project manager">
<ellipse fill="none" stroke="black" cx="68.89" cy="-18" rx="68.79" ry="18"/>
<text text-anchor="middle" x="68.89" y="-14.3" font-family="Times New Roman,serif" font-size="14.00">project manager</text>
</a>
</g>
</g>
<!-- 1&#45;&gt;2 -->
<g id="edge11" class="edge">
<title>1&#45;&gt;2</title>
<path fill="none" stroke="black" d="M542.1,-104.38C434.09,-104.42 197.75,-100.74 123.89,-69 110.8,-63.37 98.76,-53.29 89.31,-43.65"/>
<polygon fill="black" stroke="black" points="91.68,-41.06 82.31,-36.1 86.55,-45.81 91.68,-41.06"/>
<text text-anchor="middle" x="139.39" y="-57.8" font-family="Times New Roman,serif" font-size="14.00">0.075</text>
</g>
<!-- 3 -->
<g id="node4" class="node">
<title>3</title>
<g id="a_node4"><a xlink:href="qa analyst.svg" xlink:title="qa analyst">
<ellipse fill="none" stroke="black" cx="202.89" cy="-18" rx="46.59" ry="18"/>
<text text-anchor="middle" x="202.89" y="-14.3" font-family="Times New Roman,serif" font-size="14.00">qa analyst</text>
</a>
</g>
</g>
<!-- 1&#45;&gt;3 -->
<g id="edge14" class="edge">
<title>1&#45;&gt;3</title>
<path fill="none" stroke="black" d="M543.03,-101.62C463.58,-97.53 319.18,-87.76 270.89,-69 254.91,-62.79 239.34,-51.82 227.13,-41.72"/>
<polygon fill="black" stroke="black" points="229.12,-38.82 219.26,-34.95 224.56,-44.13 229.12,-38.82"/>
<text text-anchor="middle" x="286.39" y="-57.8" font-family="Times New Roman,serif" font-size="14.00">0.043</text>
</g>
<!-- 4 -->
<g id="node5" class="node">
<title>4</title>
<g id="a_node5"><a xlink:href="investment analyst.svg" xlink:title="investment analyst">
<ellipse fill="none" stroke="black" cx="343.89" cy="-18" rx="76.89" ry="18"/>
<text text-anchor="middle" x="343.89" y="-14.3" font-family="Times New Roman,serif" font-size="14.00">investment analyst</text>
</a>
</g>
</g>
<!-- 1&#45;&gt;4 -->
<g id="edge19" class="edge">
<title>1&#45;&gt;4</title>
<path fill="none" stroke="black" d="M545.35,-98.97C509.45,-94.22 461.01,-85.31 420.89,-69 403.9,-62.09 386.62,-51.29 372.75,-41.49"/>
<polygon fill="black" stroke="black" points="374.73,-38.6 364.58,-35.56 370.62,-44.27 374.73,-38.6"/>
<text text-anchor="middle" x="436.39" y="-57.8" font-family="Times New Roman,serif" font-size="14.00">0.023</text>
</g>
<!-- 5 -->
<g id="node6" class="node">
<title>5</title>
<g id="a_node6"><a xlink:href="pharmacovigilance officer.svg" xlink:title="pharmacovigilance officer">
<ellipse fill="none" stroke="black" cx="542.89" cy="-18" rx="104.78" ry="18"/>
<text text-anchor="middle" x="542.89" y="-14.3" font-family="Times New Roman,serif" font-size="14.00">pharmacovigilance officer</text>
</a>
</g>
</g>
<!-- 1&#45;&gt;5 -->
<g id="edge13" class="edge">
<title>1&#45;&gt;5</title>
<path fill="none" stroke="black" d="M563.11,-90.79C553.94,-85.47 545.11,-78.32 539.89,-69 536.1,-62.22 535.32,-54.08 535.91,-46.35"/>
<polygon fill="black" stroke="black" points="539.41,-46.65 537.42,-36.24 532.48,-45.62 539.41,-46.65"/>
<text text-anchor="middle" x="555.39" y="-57.8" font-family="Times New Roman,serif" font-size="14.00">0.047</text>
</g>
<!-- 6 -->
<g id="node7" class="node">
<title>6</title>
<g id="a_node7"><a xlink:href="production manager.svg" xlink:title="production manager">
<ellipse fill="none" stroke="black" cx="748.89" cy="-18" rx="83.39" ry="18"/>
<text text-anchor="middle" x="748.89" y="-14.3" font-family="Times New Roman,serif" font-size="14.00">production manager</text>
</a>
</g>
</g>
<!-- 1&#45;&gt;6 -->
<g id="edge17" class="edge">
<title>1&#45;&gt;6</title>
<path fill="none" stroke="black" d="M614.99,-87.9C627.53,-77.32 644.96,-63.68 661.89,-54 672.82,-47.75 685.09,-42.09 696.89,-37.22"/>
<polygon fill="black" stroke="black" points="698.23,-40.46 706.21,-33.49 695.63,-33.96 698.23,-40.46"/>
<text text-anchor="middle" x="677.39" y="-57.8" font-family="Times New Roman,serif" font-size="14.00">0.031</text>
</g>
<!-- 8 -->
<g id="node9" class="node">
<title>8</title>
<g id="a_node9"><a xlink:href="sales manager.svg" xlink:title="sales manager">
<ellipse fill="none" stroke="black" cx="910.89" cy="-18" rx="61.19" ry="18"/>
<text text-anchor="middle" x="910.89" y="-14.3" font-family="Times New Roman,serif" font-size="14.00">sales manager</text>
</a>
</g>
</g>
<!-- 1&#45;&gt;8 -->
<g id="edge16" class="edge">
<title>1&#45;&gt;8</title>
<path fill="none" stroke="black" d="M641.97,-94.63C672.56,-88.05 713.85,-78.71 749.89,-69 760.87,-66.04 817.85,-48.25 860.93,-34.73"/>
<polygon fill="black" stroke="black" points="862.23,-37.99 870.72,-31.65 860.13,-31.31 862.23,-37.99"/>
<text text-anchor="middle" x="811.39" y="-57.8" font-family="Times New Roman,serif" font-size="14.00">0.036</text>
</g>
<!-- 9 -->
<g id="node10" class="node">
<title>9</title>
<g id="a_node10"><a xlink:href="software architect.svg" xlink:title="software architect">
<ellipse fill="none" stroke="black" cx="1064.89" cy="-18" rx="75.29" ry="18"/>
<text text-anchor="middle" x="1064.89" y="-14.3" font-family="Times New Roman,serif" font-size="14.00">software architect</text>
</a>
</g>
</g>
<!-- 1&#45;&gt;9 -->
<g id="edge15" class="edge">
<title>1&#45;&gt;9</title>
<path fill="none" stroke="black" d="M650.08,-100.65C710.59,-96.19 812.11,-86.71 897.89,-69 920.62,-64.31 925.67,-60.66 947.89,-54 968.22,-47.91 990.54,-41.23 1010.18,-35.36"/>
<polygon fill="black" stroke="black" points="1011.31,-38.67 1019.89,-32.45 1009.3,-31.97 1011.31,-38.67"/>
<text text-anchor="middle" x="963.39" y="-57.8" font-family="Times New Roman,serif" font-size="14.00">0.039</text>
</g>
<!-- 10 -->
<g id="node11" class="node">
<title>10</title>
<g id="a_node11"><a xlink:href="architect.svg" xlink:title="architect">
<ellipse fill="none" stroke="black" cx="1199.89" cy="-18" rx="41.69" ry="18"/>
<text text-anchor="middle" x="1199.89" y="-14.3" font-family="Times New Roman,serif" font-size="14.00">architect</text>
</a>
</g>
</g>
<!-- 1&#45;&gt;10 -->
<g id="edge18" class="edge">
<title>1&#45;&gt;10</title>
<path fill="none" stroke="black" d="M651.75,-104C737.38,-103.04 907.67,-97.33 1048.89,-69 1088.06,-61.14 1131.17,-46.2 1161.27,-34.69"/>
<polygon fill="black" stroke="black" points="1162.9,-37.81 1170.95,-30.93 1160.36,-31.29 1162.9,-37.81"/>
<text text-anchor="middle" x="1118.39" y="-57.8" font-family="Times New Roman,serif" font-size="14.00">0.024</text>
</g>
<!-- 2&#45;&gt;1 -->
<g id="edge2" class="edge">
<title>2&#45;&gt;1</title>
<path fill="none" stroke="black" d="M102.96,-33.8C131.08,-45.35 172.34,-60.78 209.89,-69 321.53,-93.43 454.87,-100.86 532.32,-103.08"/>
<polygon fill="black" stroke="black" points="532.31,-106.58 542.4,-103.35 532.5,-99.59 532.31,-106.58"/>
<text text-anchor="middle" x="225.39" y="-57.8" font-family="Times New Roman,serif" font-size="14.00">0.045</text>
</g>
<!-- 3&#45;&gt;1 -->
<g id="edge3" class="edge">
<title>3&#45;&gt;1</title>
<path fill="none" stroke="black" d="M234.89,-31.15C265.73,-42.43 313.92,-58.97 356.89,-69 416.61,-82.94 486.06,-92.35 534.84,-97.87"/>
<polygon fill="black" stroke="black" points="534.6,-101.36 544.92,-98.99 535.37,-94.41 534.6,-101.36"/>
<text text-anchor="middle" x="372.39" y="-57.8" font-family="Times New Roman,serif" font-size="14.00">0.029</text>
</g>
<!-- 4&#45;&gt;1 -->
<g id="edge4" class="edge">
<title>4&#45;&gt;1</title>
<path fill="none" stroke="black" d="M386.22,-33.22C431.63,-48.48 503.55,-72.64 550.49,-88.41"/>
<polygon fill="black" stroke="black" points="549.51,-91.77 560.11,-91.64 551.74,-85.14 549.51,-91.77"/>
<text text-anchor="middle" x="501.39" y="-57.8" font-family="Times New Roman,serif" font-size="14.00">0.026</text>
</g>
<!-- 5&#45;&gt;1 -->
<g id="edge5" class="edge">
<title>5&#45;&gt;1</title>
<path fill="none" stroke="black" d="M560.37,-35.88C565.46,-41.35 570.76,-47.65 574.89,-54 579.63,-61.26 583.78,-69.71 587.17,-77.58"/>
<polygon fill="black" stroke="black" points="584.03,-79.15 591.04,-87.09 590.52,-76.51 584.03,-79.15"/>
<text text-anchor="middle" x="599.39" y="-57.8" font-family="Times New Roman,serif" font-size="14.00">0.024</text>
</g>
<!-- 6&#45;&gt;1 -->
<g id="edge6" class="edge">
<title>6&#45;&gt;1</title>
<path fill="none" stroke="black" d="M734.89,-35.78C725.17,-46.53 711.4,-60.08 696.89,-69 682.36,-77.94 665.23,-84.99 649.3,-90.35"/>
<polygon fill="black" stroke="black" points="648.01,-87.09 639.56,-93.48 650.15,-93.76 648.01,-87.09"/>
<text text-anchor="middle" x="730.39" y="-57.8" font-family="Times New Roman,serif" font-size="14.00">0.020</text>
</g>
<!-- 7 -->
<g id="node8" class="node">
<title>7</title>
<g id="a_node8"><a xlink:href="careers adviser.svg" xlink:title="careers adviser">
<ellipse fill="none" stroke="black" cx="705.89" cy="-192" rx="64.99" ry="18"/>
<text text-anchor="middle" x="705.89" y="-188.3" font-family="Times New Roman,serif" font-size="14.00">careers adviser</text>
</a>
</g>
</g>
<!-- 7&#45;&gt;1 -->
<g id="edge7" class="edge">
<title>7&#45;&gt;1</title>
<path fill="none" stroke="black" d="M685.14,-174.81C668.13,-161.55 643.91,-142.66 625.14,-128.03"/>
<polygon fill="black" stroke="black" points="627.24,-125.23 617.21,-121.84 622.94,-130.75 627.24,-125.23"/>
<text text-anchor="middle" x="673.39" y="-144.8" font-family="Times New Roman,serif" font-size="14.00">0.018</text>
</g>
<!-- 8&#45;&gt;1 -->
<g id="edge8" class="edge">
<title>8&#45;&gt;1</title>
<path fill="none" stroke="black" d="M891.57,-35.17C876.94,-46.51 855.85,-61.02 834.89,-69 778.78,-90.37 710.63,-98.78 661.66,-102.04"/>
<polygon fill="black" stroke="black" points="661.28,-98.56 651.51,-102.66 661.71,-105.55 661.28,-98.56"/>
<text text-anchor="middle" x="878.39" y="-57.8" font-family="Times New Roman,serif" font-size="14.00">0.018</text>
</g>
<!-- 9&#45;&gt;1 -->
<g id="edge9" class="edge">
<title>9&#45;&gt;1</title>
<path fill="none" stroke="black" d="M1043.97,-35.5C1028.15,-47 1005.38,-61.57 982.89,-69 924.93,-88.15 755.22,-97.73 661.29,-101.69"/>
<polygon fill="black" stroke="black" points="660.9,-98.21 651.05,-102.12 661.19,-105.2 660.9,-98.21"/>
<text text-anchor="middle" x="1029.39" y="-57.8" font-family="Times New Roman,serif" font-size="14.00">0.018</text>
</g>
</g>
</svg>
