<?xml version="1.0" encoding="UTF-8" standalone="no"?>
<!DOCTYPE svg PUBLIC "-//W3C//DTD SVG 1.1//EN"
 "http://www.w3.org/Graphics/SVG/1.1/DTD/svg11.dtd">
<!-- Generated by graphviz version 2.44.1 (20200629.0800)
 -->
<!-- Title: test Pages: 1 -->
<svg width="1346pt" height="218pt"
 viewBox="0.00 0.00 1346.38 218.00" xmlns="http://www.w3.org/2000/svg" xmlns:xlink="http://www.w3.org/1999/xlink">
<g id="graph0" class="graph" transform="scale(1 1) rotate(0) translate(4 214)">
<title>test</title>
<polygon fill="white" stroke="transparent" points="-4,4 -4,-214 1342.38,-214 1342.38,4 -4,4"/>
<!-- 0 -->
<g id="node1" class="node">
<title>0</title>
<g id="a_node1"><a xlink:href="research scientist.svg" xlink:title="research scientist">
<ellipse fill="none" stroke="black" cx="134.74" cy="-192" rx="72.59" ry="18"/>
<text text-anchor="middle" x="134.74" y="-188.3" font-family="Times New Roman,serif" font-size="14.00">research scientist</text>
</a>
</g>
</g>
<!-- 1 -->
<g id="node2" class="node">
<title>1</title>
<g id="a_node2"><a xlink:href="laboratory technician.svg" xlink:title="laboratory technician">
<ellipse fill="none" stroke="black" cx="584.74" cy="-105" rx="86.38" ry="18"/>
<text text-anchor="middle" x="584.74" y="-101.3" font-family="Times New Roman,serif" font-size="14.00">laboratory technician</text>
</a>
</g>
</g>
<!-- 0&#45;&gt;1 -->
<g id="edge1" class="edge">
<title>0&#45;&gt;1</title>
<path fill="none" stroke="black" d="M141.45,-173.59C146.78,-162.28 155.4,-148.32 167.74,-141 194.77,-124.96 375.76,-114.61 490.24,-109.59"/>
<polygon fill="black" stroke="black" points="490.58,-113.08 500.42,-109.15 490.28,-106.09 490.58,-113.08"/>
<text text-anchor="middle" x="183.24" y="-144.8" font-family="Times New Roman,serif" font-size="14.00">0.071</text>
</g>
<!-- 1&#45;&gt;0 -->
<g id="edge11" class="edge">
<title>1&#45;&gt;0</title>
<path fill="none" stroke="black" d="M519.63,-116.86C480.01,-123.58 428.41,-132.51 382.74,-141 308.79,-154.76 290.46,-159.03 216.74,-174 210.9,-175.19 204.83,-176.43 198.75,-177.68"/>
<polygon fill="black" stroke="black" points="197.63,-174.33 188.54,-179.78 199.04,-181.19 197.63,-174.33"/>
<text text-anchor="middle" x="398.24" y="-144.8" font-family="Times New Roman,serif" font-size="14.00">0.070</text>
</g>
<!-- 1&#45;&gt;1 -->
<g id="edge10" class="edge">
<title>1&#45;&gt;1</title>
<path fill="none" stroke="black" d="M663.54,-112.5C678.56,-111.6 689.19,-109.1 689.19,-105 689.19,-101.89 683.08,-99.7 673.59,-98.44"/>
<polygon fill="black" stroke="black" points="673.82,-94.94 663.54,-97.5 673.17,-101.91 673.82,-94.94"/>
<text text-anchor="middle" x="704.69" y="-101.3" font-family="Times New Roman,serif" font-size="14.00">0.191</text>
</g>
<!-- 3 -->
<g id="node4" class="node">
<title>3</title>
<g id="a_node4"><a xlink:href="electrical engineer.svg" xlink:title="electrical engineer">
<ellipse fill="none" stroke="black" cx="74.74" cy="-18" rx="74.99" ry="18"/>
<text text-anchor="middle" x="74.74" y="-14.3" font-family="Times New Roman,serif" font-size="14.00">electrical engineer</text>
</a>
</g>
</g>
<!-- 1&#45;&gt;3 -->
<g id="edge17" class="edge">
<title>1&#45;&gt;3</title>
<path fill="none" stroke="black" d="M500.53,-100.85C427.9,-96.91 320.54,-88.18 228.74,-69 192,-61.32 151.68,-48.05 121.52,-37.11"/>
<polygon fill="black" stroke="black" points="122.69,-33.81 112.1,-33.65 120.28,-40.38 122.69,-33.81"/>
<text text-anchor="middle" x="244.24" y="-57.8" font-family="Times New Roman,serif" font-size="14.00">0.030</text>
</g>
<!-- 10 -->
<g id="node11" class="node">
<title>10</title>
<g id="a_node11"><a xlink:href="software developer.svg" xlink:title="software developer">
<ellipse fill="none" stroke="black" cx="247.74" cy="-18" rx="79.89" ry="18"/>
<text text-anchor="middle" x="247.74" y="-14.3" font-family="Times New Roman,serif" font-size="14.00">software developer</text>
</a>
</g>
</g>
<!-- 1&#45;&gt;10 -->
<g id="edge12" class="edge">
<title>1&#45;&gt;10</title>
<path fill="none" stroke="black" d="M532.09,-90.72C471.64,-75.47 372.64,-50.5 308.85,-34.41"/>
<polygon fill="black" stroke="black" points="309.48,-30.96 298.93,-31.91 307.77,-37.75 309.48,-30.96"/>
<text text-anchor="middle" x="452.24" y="-57.8" font-family="Times New Roman,serif" font-size="14.00">0.070</text>
</g>
<!-- 11 -->
<g id="node12" class="node">
<title>11</title>
<g id="a_node12"><a xlink:href="project manager.svg" xlink:title="project manager">
<ellipse fill="none" stroke="black" cx="414.74" cy="-18" rx="68.79" ry="18"/>
<text text-anchor="middle" x="414.74" y="-14.3" font-family="Times New Roman,serif" font-size="14.00">project manager</text>
</a>
</g>
</g>
<!-- 1&#45;&gt;11 -->
<g id="edge13" class="edge">
<title>1&#45;&gt;11</title>
<path fill="none" stroke="black" d="M553.17,-88.21C525.23,-74.24 484.36,-53.81 454.26,-38.76"/>
<polygon fill="black" stroke="black" points="455.8,-35.62 445.29,-34.27 452.67,-41.88 455.8,-35.62"/>
<text text-anchor="middle" x="526.24" y="-57.8" font-family="Times New Roman,serif" font-size="14.00">0.060</text>
</g>
<!-- 12 -->
<g id="node13" class="node">
<title>12</title>
<g id="a_node13"><a xlink:href="mechanical engineer.svg" xlink:title="mechanical engineer">
<ellipse fill="none" stroke="black" cx="584.74" cy="-18" rx="83.39" ry="18"/>
<text text-anchor="middle" x="584.74" y="-14.3" font-family="Times New Roman,serif" font-size="14.00">mechanical engineer</text>
</a>
</g>
</g>
<!-- 1&#45;&gt;12 -->
<g id="edge14" class="edge">
<title>1&#45;&gt;12</title>
<path fill="none" stroke="black" d="M584.74,-86.8C584.74,-75.16 584.74,-59.55 584.74,-46.24"/>
<polygon fill="black" stroke="black" points="588.24,-46.18 584.74,-36.18 581.24,-46.18 588.24,-46.18"/>
<text text-anchor="middle" x="600.24" y="-57.8" font-family="Times New Roman,serif" font-size="14.00">0.040</text>
</g>
<!-- 13 -->
<g id="node14" class="node">
<title>13</title>
<g id="a_node14"><a xlink:href="sales manager.svg" xlink:title="sales manager">
<ellipse fill="none" stroke="black" cx="746.74" cy="-18" rx="61.19" ry="18"/>
<text text-anchor="middle" x="746.74" y="-14.3" font-family="Times New Roman,serif" font-size="14.00">sales manager</text>
</a>
</g>
</g>
<!-- 1&#45;&gt;13 -->
<g id="edge15" class="edge">
<title>1&#45;&gt;13</title>
<path fill="none" stroke="black" d="M615.21,-88.01C641.85,-74.04 680.61,-53.7 709.16,-38.72"/>
<polygon fill="black" stroke="black" points="710.81,-41.81 718.04,-34.06 707.56,-35.61 710.81,-41.81"/>
<text text-anchor="middle" x="690.24" y="-57.8" font-family="Times New Roman,serif" font-size="14.00">0.040</text>
</g>
<!-- 14 -->
<g id="node15" class="node">
<title>14</title>
<g id="a_node15"><a xlink:href="computer sales support.svg" xlink:title="computer sales support">
<ellipse fill="none" stroke="black" cx="921.74" cy="-18" rx="96.38" ry="18"/>
<text text-anchor="middle" x="921.74" y="-14.3" font-family="Times New Roman,serif" font-size="14.00">computer sales support</text>
</a>
</g>
</g>
<!-- 1&#45;&gt;14 -->
<g id="edge16" class="edge">
<title>1&#45;&gt;14</title>
<path fill="none" stroke="black" d="M637.4,-90.72C696.7,-75.76 793.12,-51.44 856.98,-35.33"/>
<polygon fill="black" stroke="black" points="858.1,-38.66 866.94,-32.82 856.39,-31.87 858.1,-38.66"/>
<text text-anchor="middle" x="788.24" y="-57.8" font-family="Times New Roman,serif" font-size="14.00">0.030</text>
</g>
<!-- 15 -->
<g id="node16" class="node">
<title>15</title>
<g id="a_node16"><a xlink:href="lecturer.svg" xlink:title="lecturer">
<ellipse fill="none" stroke="black" cx="1073.74" cy="-18" rx="37.89" ry="18"/>
<text text-anchor="middle" x="1073.74" y="-14.3" font-family="Times New Roman,serif" font-size="14.00">lecturer</text>
</a>
</g>
</g>
<!-- 1&#45;&gt;15 -->
<g id="edge18" class="edge">
<title>1&#45;&gt;15</title>
<path fill="none" stroke="black" d="M661.91,-96.73C750.85,-87.29 900.92,-68.11 1026.74,-36 1029.76,-35.23 1032.85,-34.34 1035.94,-33.39"/>
<polygon fill="black" stroke="black" points="1037.3,-36.62 1045.69,-30.15 1035.09,-29.98 1037.3,-36.62"/>
<text text-anchor="middle" x="958.24" y="-57.8" font-family="Times New Roman,serif" font-size="14.00">0.030</text>
</g>
<!-- 16 -->
<g id="node17" class="node">
<title>16</title>
<g id="a_node17"><a xlink:href="pharmacovigilance officer.svg" xlink:title="pharmacovigilance officer">
<ellipse fill="none" stroke="black" cx="1233.74" cy="-18" rx="104.78" ry="18"/>
<text text-anchor="middle" x="1233.74" y="-14.3" font-family="Times New Roman,serif" font-size="14.00">pharmacovigilance officer</text>
</a>
</g>
</g>
<!-- 1&#45;&gt;16 -->
<g id="edge19" class="edge">
<title>1&#45;&gt;16</title>
<path fill="none" stroke="black" d="M666.69,-99.19C746.39,-93.93 870.76,-84.17 977.74,-69 1040.79,-60.06 1111.82,-45.85 1163.04,-34.87"/>
<polygon fill="black" stroke="black" points="1163.97,-38.24 1173.01,-32.71 1162.5,-31.4 1163.97,-38.24"/>
<text text-anchor="middle" x="1077.24" y="-57.8" font-family="Times New Roman,serif" font-size="14.00">0.030</text>
</g>
<!-- 2 -->
<g id="node3" class="node">
<title>2</title>
<g id="a_node3"><a xlink:href="youth worker.svg" xlink:title="youth worker">
<ellipse fill="none" stroke="black" cx="284.74" cy="-192" rx="59.29" ry="18"/>
<text text-anchor="middle" x="284.74" y="-188.3" font-family="Times New Roman,serif" font-size="14.00">youth worker</text>
</a>
</g>
</g>
<!-- 2&#45;&gt;1 -->
<g id="edge2" class="edge">
<title>2&#45;&gt;1</title>
<path fill="none" stroke="black" d="M326.46,-179.18C378.28,-164.5 467.02,-139.35 525.79,-122.7"/>
<polygon fill="black" stroke="black" points="527,-126 535.67,-119.9 525.1,-119.26 527,-126"/>
<text text-anchor="middle" x="468.24" y="-144.8" font-family="Times New Roman,serif" font-size="14.00">0.051</text>
</g>
<!-- 3&#45;&gt;1 -->
<g id="edge3" class="edge">
<title>3&#45;&gt;1</title>
<path fill="none" stroke="black" d="M129.36,-30.37C139.13,-32.31 149.23,-34.26 158.74,-36 279.58,-58.04 420.43,-79.75 506.06,-92.51"/>
<polygon fill="black" stroke="black" points="505.56,-95.97 515.97,-93.98 506.59,-89.05 505.56,-95.97"/>
<text text-anchor="middle" x="361.24" y="-57.8" font-family="Times New Roman,serif" font-size="14.00">0.040</text>
</g>
<!-- 4 -->
<g id="node5" class="node">
<title>4</title>
<g id="a_node5"><a xlink:href="planning technician.svg" xlink:title="planning technician">
<ellipse fill="none" stroke="black" cx="440.74" cy="-192" rx="79.09" ry="18"/>
<text text-anchor="middle" x="440.74" y="-188.3" font-family="Times New Roman,serif" font-size="14.00">planning technician</text>
</a>
</g>
</g>
<!-- 4&#45;&gt;1 -->
<g id="edge4" class="edge">
<title>4&#45;&gt;1</title>
<path fill="none" stroke="black" d="M467.83,-175.01C490.61,-161.56 523.39,-142.22 548.44,-127.43"/>
<polygon fill="black" stroke="black" points="550.46,-130.3 557.29,-122.21 546.9,-124.27 550.46,-130.3"/>
<text text-anchor="middle" x="537.24" y="-144.8" font-family="Times New Roman,serif" font-size="14.00">0.030</text>
</g>
<!-- 5 -->
<g id="node6" class="node">
<title>5</title>
<g id="a_node6"><a xlink:href="qa analyst.svg" xlink:title="qa analyst">
<ellipse fill="none" stroke="black" cx="584.74" cy="-192" rx="46.59" ry="18"/>
<text text-anchor="middle" x="584.74" y="-188.3" font-family="Times New Roman,serif" font-size="14.00">qa analyst</text>
</a>
</g>
</g>
<!-- 5&#45;&gt;1 -->
<g id="edge5" class="edge">
<title>5&#45;&gt;1</title>
<path fill="none" stroke="black" d="M584.74,-173.8C584.74,-162.16 584.74,-146.55 584.74,-133.24"/>
<polygon fill="black" stroke="black" points="588.24,-133.18 584.74,-123.18 581.24,-133.18 588.24,-133.18"/>
<text text-anchor="middle" x="600.24" y="-144.8" font-family="Times New Roman,serif" font-size="14.00">0.030</text>
</g>
<!-- 6 -->
<g id="node7" class="node">
<title>6</title>
<g id="a_node7"><a xlink:href="secretary.svg" xlink:title="secretary">
<ellipse fill="none" stroke="black" cx="692.74" cy="-192" rx="43.59" ry="18"/>
<text text-anchor="middle" x="692.74" y="-188.3" font-family="Times New Roman,serif" font-size="14.00">secretary</text>
</a>
</g>
</g>
<!-- 6&#45;&gt;1 -->
<g id="edge6" class="edge">
<title>6&#45;&gt;1</title>
<path fill="none" stroke="black" d="M673.44,-175.8C656.84,-162.74 632.66,-143.71 613.74,-128.82"/>
<polygon fill="black" stroke="black" points="615.75,-125.95 605.73,-122.52 611.42,-131.45 615.75,-125.95"/>
<text text-anchor="middle" x="660.24" y="-144.8" font-family="Times New Roman,serif" font-size="14.00">0.030</text>
</g>
<!-- 7 -->
<g id="node8" class="node">
<title>7</title>
<g id="a_node8"><a xlink:href="writer.svg" xlink:title="writer">
<ellipse fill="none" stroke="black" cx="785.74" cy="-192" rx="31.4" ry="18"/>
<text text-anchor="middle" x="785.74" y="-188.3" font-family="Times New Roman,serif" font-size="14.00">writer</text>
</a>
</g>
</g>
<!-- 7&#45;&gt;1 -->
<g id="edge7" class="edge">
<title>7&#45;&gt;1</title>
<path fill="none" stroke="black" d="M762.85,-179.49C741.55,-168.95 708.83,-153.19 679.74,-141 665.91,-135.2 650.75,-129.38 636.68,-124.2"/>
<polygon fill="black" stroke="black" points="637.74,-120.86 627.14,-120.72 635.34,-127.44 637.74,-120.86"/>
<text text-anchor="middle" x="727.24" y="-144.8" font-family="Times New Roman,serif" font-size="14.00">0.030</text>
</g>
<!-- 8 -->
<g id="node9" class="node">
<title>8</title>
<g id="a_node9"><a xlink:href="catering manager.svg" xlink:title="catering manager">
<ellipse fill="none" stroke="black" cx="906.74" cy="-192" rx="71.49" ry="18"/>
<text text-anchor="middle" x="906.74" y="-188.3" font-family="Times New Roman,serif" font-size="14.00">catering manager</text>
</a>
</g>
</g>
<!-- 8&#45;&gt;1 -->
<g id="edge8" class="edge">
<title>8&#45;&gt;1</title>
<path fill="none" stroke="black" d="M865.93,-177.13C833.78,-166.47 787.69,-151.8 746.74,-141 717.13,-133.19 684.13,-125.82 655.68,-119.88"/>
<polygon fill="black" stroke="black" points="656.33,-116.44 645.83,-117.84 654.91,-123.3 656.33,-116.44"/>
<text text-anchor="middle" x="810.24" y="-144.8" font-family="Times New Roman,serif" font-size="14.00">0.020</text>
</g>
<!-- 9 -->
<g id="node10" class="node">
<title>9</title>
<g id="a_node10"><a xlink:href="clinical biochemist.svg" xlink:title="clinical biochemist">
<ellipse fill="none" stroke="black" cx="1073.74" cy="-192" rx="77.19" ry="18"/>
<text text-anchor="middle" x="1073.74" y="-188.3" font-family="Times New Roman,serif" font-size="14.00">clinical biochemist</text>
</a>
</g>
</g>
<!-- 9&#45;&gt;1 -->
<g id="edge9" class="edge">
<title>9&#45;&gt;1</title>
<path fill="none" stroke="black" d="M1019.65,-178.94C970.32,-168.18 895.35,-152.4 829.74,-141 775.5,-131.58 714.18,-122.82 666.45,-116.42"/>
<polygon fill="black" stroke="black" points="666.86,-112.94 656.48,-115.09 665.93,-119.88 666.86,-112.94"/>
<text text-anchor="middle" x="919.24" y="-144.8" font-family="Times New Roman,serif" font-size="14.00">0.020</text>
</g>
</g>
</svg>
