<?xml version="1.0" encoding="UTF-8" standalone="no"?>
<!DOCTYPE svg PUBLIC "-//W3C//DTD SVG 1.1//EN"
 "http://www.w3.org/Graphics/SVG/1.1/DTD/svg11.dtd">
<!-- Generated by graphviz version 2.44.1 (20200629.0800)
 -->
<!-- Title: test Pages: 1 -->
<svg width="1204pt" height="218pt"
 viewBox="0.00 0.00 1203.94 218.00" xmlns="http://www.w3.org/2000/svg" xmlns:xlink="http://www.w3.org/1999/xlink">
<g id="graph0" class="graph" transform="scale(1 1) rotate(0) translate(4 214)">
<title>test</title>
<polygon fill="white" stroke="transparent" points="-4,4 -4,-214 1199.94,-214 1199.94,4 -4,4"/>
<!-- 0 -->
<g id="node1" class="node">
<title>0</title>
<g id="a_node1"><a xlink:href="barristers clerk.svg" xlink:title="barristers clerk">
<ellipse fill="none" stroke="black" cx="191.3" cy="-192" rx="64.19" ry="18"/>
<text text-anchor="middle" x="191.3" y="-188.3" font-family="Times New Roman,serif" font-size="14.00">barristers clerk</text>
</a>
</g>
</g>
<!-- 1 -->
<g id="node2" class="node">
<title>1</title>
<g id="a_node2"><a xlink:href="lawyer.svg" xlink:title="lawyer">
<ellipse fill="none" stroke="black" cx="416.3" cy="-105" rx="34.39" ry="18"/>
<text text-anchor="middle" x="416.3" y="-101.3" font-family="Times New Roman,serif" font-size="14.00">lawyer</text>
</a>
</g>
</g>
<!-- 0&#45;&gt;1 -->
<g id="edge1" class="edge">
<title>0&#45;&gt;1</title>
<path fill="none" stroke="black" d="M192,-173.71C193.39,-162.75 197.05,-149.15 206.3,-141 230.27,-119.88 317.61,-111.33 371.82,-107.99"/>
<polygon fill="black" stroke="black" points="372.08,-111.49 381.86,-107.41 371.68,-104.5 372.08,-111.49"/>
<text text-anchor="middle" x="221.8" y="-144.8" font-family="Times New Roman,serif" font-size="14.00">0.139</text>
</g>
<!-- 1&#45;&gt;0 -->
<g id="edge14" class="edge">
<title>1&#45;&gt;0</title>
<path fill="none" stroke="black" d="M389.21,-116.23C351.61,-130.44 283.06,-156.33 237.34,-173.61"/>
<polygon fill="black" stroke="black" points="236.07,-170.35 227.95,-177.15 238.54,-176.89 236.07,-170.35"/>
<text text-anchor="middle" x="332.8" y="-144.8" font-family="Times New Roman,serif" font-size="14.00">0.047</text>
</g>
<!-- 1&#45;&gt;1 -->
<g id="edge10" class="edge">
<title>1&#45;&gt;1</title>
<path fill="none" stroke="black" d="M447.53,-112.86C459.16,-113.12 468.74,-110.5 468.74,-105 468.74,-101.22 464.22,-98.8 457.6,-97.74"/>
<polygon fill="black" stroke="black" points="457.72,-94.24 447.53,-97.14 457.3,-101.23 457.72,-94.24"/>
<text text-anchor="middle" x="484.24" y="-101.3" font-family="Times New Roman,serif" font-size="14.00">0.448</text>
</g>
<!-- 2 -->
<g id="node3" class="node">
<title>2</title>
<g id="a_node3"><a xlink:href="solicitor.svg" xlink:title="solicitor">
<ellipse fill="none" stroke="black" cx="40.3" cy="-18" rx="40.09" ry="18"/>
<text text-anchor="middle" x="40.3" y="-14.3" font-family="Times New Roman,serif" font-size="14.00">solicitor</text>
</a>
</g>
</g>
<!-- 1&#45;&gt;2 -->
<g id="edge13" class="edge">
<title>1&#45;&gt;2</title>
<path fill="none" stroke="black" d="M382.09,-102.33C312.65,-98.59 157.52,-88.3 108.3,-69 92.22,-62.7 76.54,-51.61 64.3,-41.47"/>
<polygon fill="black" stroke="black" points="66.27,-38.55 56.41,-34.68 61.7,-43.85 66.27,-38.55"/>
<text text-anchor="middle" x="123.8" y="-57.8" font-family="Times New Roman,serif" font-size="14.00">0.095</text>
</g>
<!-- 3 -->
<g id="node4" class="node">
<title>3</title>
<g id="a_node4"><a xlink:href="pharmacovigilance officer.svg" xlink:title="pharmacovigilance officer">
<ellipse fill="none" stroke="black" cx="203.3" cy="-18" rx="104.78" ry="18"/>
<text text-anchor="middle" x="203.3" y="-14.3" font-family="Times New Roman,serif" font-size="14.00">pharmacovigilance officer</text>
</a>
</g>
</g>
<!-- 1&#45;&gt;3 -->
<g id="edge11" class="edge">
<title>1&#45;&gt;3</title>
<path fill="none" stroke="black" d="M382.02,-102.58C347.14,-99.85 292.5,-91.91 251.3,-69 240.07,-62.76 229.86,-53.03 221.77,-43.81"/>
<polygon fill="black" stroke="black" points="224.32,-41.39 215.24,-35.93 218.93,-45.86 224.32,-41.39"/>
<text text-anchor="middle" x="266.8" y="-57.8" font-family="Times New Roman,serif" font-size="14.00">0.224</text>
</g>
<!-- 4 -->
<g id="node5" class="node">
<title>4</title>
<g id="a_node5"><a xlink:href="curator.svg" xlink:title="curator">
<ellipse fill="none" stroke="black" cx="362.3" cy="-18" rx="36.29" ry="18"/>
<text text-anchor="middle" x="362.3" y="-14.3" font-family="Times New Roman,serif" font-size="14.00">curator</text>
</a>
</g>
</g>
<!-- 1&#45;&gt;4 -->
<g id="edge12" class="edge">
<title>1&#45;&gt;4</title>
<path fill="none" stroke="black" d="M388.51,-94.01C377.35,-88.47 365.65,-80.35 359.3,-69 355.5,-62.22 354.72,-54.08 355.32,-46.35"/>
<polygon fill="black" stroke="black" points="358.81,-46.65 356.82,-36.24 351.89,-45.62 358.81,-46.65"/>
<text text-anchor="middle" x="374.8" y="-57.8" font-family="Times New Roman,serif" font-size="14.00">0.129</text>
</g>
<!-- 10 -->
<g id="node11" class="node">
<title>10</title>
<g id="a_node11"><a xlink:href="legal executive.svg" xlink:title="legal executive">
<ellipse fill="none" stroke="black" cx="479.3" cy="-18" rx="63.09" ry="18"/>
<text text-anchor="middle" x="479.3" y="-14.3" font-family="Times New Roman,serif" font-size="14.00">legal executive</text>
</a>
</g>
</g>
<!-- 1&#45;&gt;10 -->
<g id="edge15" class="edge">
<title>1&#45;&gt;10</title>
<path fill="none" stroke="black" d="M428.15,-88.01C437.3,-75.67 450.13,-58.35 460.65,-44.15"/>
<polygon fill="black" stroke="black" points="463.71,-45.91 466.85,-35.79 458.09,-41.74 463.71,-45.91"/>
<text text-anchor="middle" x="467.8" y="-57.8" font-family="Times New Roman,serif" font-size="14.00">0.040</text>
</g>
<!-- 11 -->
<g id="node12" class="node">
<title>11</title>
<g id="a_node12"><a xlink:href="regulatory affairs officer.svg" xlink:title="regulatory affairs officer">
<ellipse fill="none" stroke="black" cx="658.3" cy="-18" rx="98.28" ry="18"/>
<text text-anchor="middle" x="658.3" y="-14.3" font-family="Times New Roman,serif" font-size="14.00">regulatory affairs officer</text>
</a>
</g>
</g>
<!-- 1&#45;&gt;11 -->
<g id="edge16" class="edge">
<title>1&#45;&gt;11</title>
<path fill="none" stroke="black" d="M444.06,-94.25C483.28,-80.47 555.67,-55.05 605.36,-37.59"/>
<polygon fill="black" stroke="black" points="606.71,-40.83 614.98,-34.21 604.39,-34.22 606.71,-40.83"/>
<text text-anchor="middle" x="566.8" y="-57.8" font-family="Times New Roman,serif" font-size="14.00">0.040</text>
</g>
<!-- 12 -->
<g id="node13" class="node">
<title>12</title>
<g id="a_node13"><a xlink:href="photographer.svg" xlink:title="photographer">
<ellipse fill="none" stroke="black" cx="834.3" cy="-18" rx="59.59" ry="18"/>
<text text-anchor="middle" x="834.3" y="-14.3" font-family="Times New Roman,serif" font-size="14.00">photographer</text>
</a>
</g>
</g>
<!-- 1&#45;&gt;12 -->
<g id="edge17" class="edge">
<title>1&#45;&gt;12</title>
<path fill="none" stroke="black" d="M448.64,-98.25C510.39,-87.14 649.25,-61.58 765.3,-36 770.22,-34.92 775.32,-33.74 780.43,-32.54"/>
<polygon fill="black" stroke="black" points="781.29,-35.94 790.2,-30.21 779.66,-29.13 781.29,-35.94"/>
<text text-anchor="middle" x="694.8" y="-57.8" font-family="Times New Roman,serif" font-size="14.00">0.034</text>
</g>
<!-- 13 -->
<g id="node14" class="node">
<title>13</title>
<g id="a_node14"><a xlink:href="it consultant.svg" xlink:title="it consultant">
<ellipse fill="none" stroke="black" cx="966.3" cy="-18" rx="54.69" ry="18"/>
<text text-anchor="middle" x="966.3" y="-14.3" font-family="Times New Roman,serif" font-size="14.00">it consultant</text>
</a>
</g>
</g>
<!-- 1&#45;&gt;13 -->
<g id="edge18" class="edge">
<title>1&#45;&gt;13</title>
<path fill="none" stroke="black" d="M449.98,-101.16C529.57,-94.04 735.15,-73.29 903.3,-36 907.64,-35.04 912.14,-33.97 916.64,-32.85"/>
<polygon fill="black" stroke="black" points="917.62,-36.21 926.44,-30.34 915.88,-29.43 917.62,-36.21"/>
<text text-anchor="middle" x="825.8" y="-57.8" font-family="Times New Roman,serif" font-size="14.00">0.020</text>
</g>
<!-- 14 -->
<g id="node15" class="node">
<title>14</title>
<g id="a_node15"><a xlink:href="retail merchandiser.svg" xlink:title="retail merchandiser">
<ellipse fill="none" stroke="black" cx="1117.3" cy="-18" rx="78.79" ry="18"/>
<text text-anchor="middle" x="1117.3" y="-14.3" font-family="Times New Roman,serif" font-size="14.00">retail merchandiser</text>
</a>
</g>
</g>
<!-- 1&#45;&gt;14 -->
<g id="edge19" class="edge">
<title>1&#45;&gt;14</title>
<path fill="none" stroke="black" d="M450.61,-102.31C523.52,-98.48 699.12,-87.96 845.3,-69 928.12,-58.26 948.2,-51.34 1030.3,-36 1036.55,-34.83 1043.05,-33.6 1049.56,-32.35"/>
<polygon fill="black" stroke="black" points="1050.6,-35.71 1059.76,-30.38 1049.28,-28.84 1050.6,-35.71"/>
<text text-anchor="middle" x="952.8" y="-57.8" font-family="Times New Roman,serif" font-size="14.00">0.020</text>
</g>
<!-- 2&#45;&gt;1 -->
<g id="edge2" class="edge">
<title>2&#45;&gt;1</title>
<path fill="none" stroke="black" d="M70.82,-29.79C76.93,-31.89 83.3,-34.05 89.3,-36 137.01,-51.56 148.4,-57.68 197.3,-69 257.55,-82.95 328.41,-93.17 372.84,-98.85"/>
<polygon fill="black" stroke="black" points="372.64,-102.36 383,-100.13 373.52,-95.41 372.64,-102.36"/>
<text text-anchor="middle" x="212.8" y="-57.8" font-family="Times New Roman,serif" font-size="14.00">0.069</text>
</g>
<!-- 3&#45;&gt;1 -->
<g id="edge3" class="edge">
<title>3&#45;&gt;1</title>
<path fill="none" stroke="black" d="M239.79,-34.99C263.01,-45.04 293.78,-58.11 321.3,-69 340.01,-76.41 361,-84.19 378.47,-90.53"/>
<polygon fill="black" stroke="black" points="377.72,-93.98 388.31,-94.09 380.1,-87.4 377.72,-93.98"/>
<text text-anchor="middle" x="336.8" y="-57.8" font-family="Times New Roman,serif" font-size="14.00">0.048</text>
</g>
<!-- 4&#45;&gt;1 -->
<g id="edge4" class="edge">
<title>4&#45;&gt;1</title>
<path fill="none" stroke="black" d="M378.45,-34.47C383.93,-40.25 389.8,-47.1 394.3,-54 399.03,-61.26 403.19,-69.71 406.58,-77.58"/>
<polygon fill="black" stroke="black" points="403.44,-79.15 410.45,-87.09 409.92,-76.51 403.44,-79.15"/>
<text text-anchor="middle" x="418.8" y="-57.8" font-family="Times New Roman,serif" font-size="14.00">0.032</text>
</g>
<!-- 5 -->
<g id="node6" class="node">
<title>5</title>
<g id="a_node6"><a xlink:href="secretary.svg" xlink:title="secretary">
<ellipse fill="none" stroke="black" cx="317.3" cy="-192" rx="43.59" ry="18"/>
<text text-anchor="middle" x="317.3" y="-188.3" font-family="Times New Roman,serif" font-size="14.00">secretary</text>
</a>
</g>
</g>
<!-- 5&#45;&gt;1 -->
<g id="edge5" class="edge">
<title>5&#45;&gt;1</title>
<path fill="none" stroke="black" d="M335.45,-175.41C351,-162.06 373.54,-142.71 390.88,-127.82"/>
<polygon fill="black" stroke="black" points="393.61,-130.09 398.92,-120.92 389.05,-124.78 393.61,-130.09"/>
<text text-anchor="middle" x="388.8" y="-144.8" font-family="Times New Roman,serif" font-size="14.00">0.026</text>
</g>
<!-- 6 -->
<g id="node7" class="node">
<title>6</title>
<g id="a_node7"><a xlink:href="lecturer.svg" xlink:title="lecturer">
<ellipse fill="none" stroke="black" cx="416.3" cy="-192" rx="37.89" ry="18"/>
<text text-anchor="middle" x="416.3" y="-188.3" font-family="Times New Roman,serif" font-size="14.00">lecturer</text>
</a>
</g>
</g>
<!-- 6&#45;&gt;1 -->
<g id="edge6" class="edge">
<title>6&#45;&gt;1</title>
<path fill="none" stroke="black" d="M416.3,-173.8C416.3,-162.16 416.3,-146.55 416.3,-133.24"/>
<polygon fill="black" stroke="black" points="419.8,-133.18 416.3,-123.18 412.8,-133.18 419.8,-133.18"/>
<text text-anchor="middle" x="431.8" y="-144.8" font-family="Times New Roman,serif" font-size="14.00">0.021</text>
</g>
<!-- 7 -->
<g id="node8" class="node">
<title>7</title>
<g id="a_node8"><a xlink:href="office manager.svg" xlink:title="office manager">
<ellipse fill="none" stroke="black" cx="536.3" cy="-192" rx="64.19" ry="18"/>
<text text-anchor="middle" x="536.3" y="-188.3" font-family="Times New Roman,serif" font-size="14.00">office manager</text>
</a>
</g>
</g>
<!-- 7&#45;&gt;1 -->
<g id="edge7" class="edge">
<title>7&#45;&gt;1</title>
<path fill="none" stroke="black" d="M513.73,-175.01C494.03,-161.06 465.39,-140.77 444.25,-125.8"/>
<polygon fill="black" stroke="black" points="446.17,-122.87 435.98,-119.95 442.12,-128.58 446.17,-122.87"/>
<text text-anchor="middle" x="499.8" y="-144.8" font-family="Times New Roman,serif" font-size="14.00">0.021</text>
</g>
<!-- 8 -->
<g id="node9" class="node">
<title>8</title>
<g id="a_node9"><a xlink:href="tax inspector.svg" xlink:title="tax inspector">
<ellipse fill="none" stroke="black" cx="676.3" cy="-192" rx="57.69" ry="18"/>
<text text-anchor="middle" x="676.3" y="-188.3" font-family="Times New Roman,serif" font-size="14.00">tax inspector</text>
</a>
</g>
</g>
<!-- 8&#45;&gt;1 -->
<g id="edge8" class="edge">
<title>8&#45;&gt;1</title>
<path fill="none" stroke="black" d="M637.93,-178.46C588.64,-162.34 503.58,-134.54 454.41,-118.46"/>
<polygon fill="black" stroke="black" points="455.38,-115.09 444.78,-115.31 453.2,-121.75 455.38,-115.09"/>
<text text-anchor="middle" x="576.8" y="-144.8" font-family="Times New Roman,serif" font-size="14.00">0.021</text>
</g>
<!-- 9 -->
<g id="node10" class="node">
<title>9</title>
<g id="a_node10"><a xlink:href="research scientist.svg" xlink:title="research scientist">
<ellipse fill="none" stroke="black" cx="825.3" cy="-192" rx="72.59" ry="18"/>
<text text-anchor="middle" x="825.3" y="-188.3" font-family="Times New Roman,serif" font-size="14.00">research scientist</text>
</a>
</g>
</g>
<!-- 9&#45;&gt;1 -->
<g id="edge9" class="edge">
<title>9&#45;&gt;1</title>
<path fill="none" stroke="black" d="M773.53,-179.34C727.16,-168.99 657.27,-153.58 596.3,-141 549.19,-131.28 494.99,-120.84 458.48,-113.92"/>
<polygon fill="black" stroke="black" points="458.68,-110.4 448.21,-111.98 457.38,-117.27 458.68,-110.4"/>
<text text-anchor="middle" x="680.8" y="-144.8" font-family="Times New Roman,serif" font-size="14.00">0.016</text>
</g>
</g>
</svg>
