<?xml version="1.0" encoding="UTF-8" standalone="no"?>
<!DOCTYPE svg PUBLIC "-//W3C//DTD SVG 1.1//EN"
 "http://www.w3.org/Graphics/SVG/1.1/DTD/svg11.dtd">
<!-- Generated by graphviz version 2.44.1 (20200629.0800)
 -->
<!-- Title: test Pages: 1 -->
<svg width="1322pt" height="218pt"
 viewBox="0.00 0.00 1322.13 218.00" xmlns="http://www.w3.org/2000/svg" xmlns:xlink="http://www.w3.org/1999/xlink">
<g id="graph0" class="graph" transform="scale(1 1) rotate(0) translate(4 214)">
<title>test</title>
<polygon fill="white" stroke="transparent" points="-4,4 -4,-214 1318.13,-214 1318.13,4 -4,4"/>
<!-- 0 -->
<g id="node1" class="node">
<title>0</title>
<g id="a_node1"><a xlink:href="secretary.svg" xlink:title="secretary">
<ellipse fill="none" stroke="black" cx="388.64" cy="-192" rx="43.59" ry="18"/>
<text text-anchor="middle" x="388.64" y="-188.3" font-family="Times New Roman,serif" font-size="14.00">secretary</text>
</a>
</g>
</g>
<!-- 1 -->
<g id="node2" class="node">
<title>1</title>
<g id="a_node2"><a xlink:href="legal executive.svg" xlink:title="legal executive">
<ellipse fill="none" stroke="black" cx="556.64" cy="-105" rx="63.09" ry="18"/>
<text text-anchor="middle" x="556.64" y="-101.3" font-family="Times New Roman,serif" font-size="14.00">legal executive</text>
</a>
</g>
</g>
<!-- 0&#45;&gt;1 -->
<g id="edge1" class="edge">
<title>0&#45;&gt;1</title>
<path fill="none" stroke="black" d="M384.05,-173.86C382.29,-163.24 382.22,-149.96 389.64,-141 402.19,-125.86 446.63,-117.01 486.51,-112"/>
<polygon fill="black" stroke="black" points="487.02,-115.46 496.53,-110.81 486.19,-108.51 487.02,-115.46"/>
<text text-anchor="middle" x="405.14" y="-144.8" font-family="Times New Roman,serif" font-size="14.00">0.065</text>
</g>
<!-- 1&#45;&gt;0 -->
<g id="edge14" class="edge">
<title>1&#45;&gt;0</title>
<path fill="none" stroke="black" d="M524.33,-120.59C511.03,-126.73 495.51,-134.04 481.64,-141 462.01,-150.85 440.38,-162.43 422.93,-171.97"/>
<polygon fill="black" stroke="black" points="420.78,-169.15 413.7,-177.03 424.15,-175.29 420.78,-169.15"/>
<text text-anchor="middle" x="497.14" y="-144.8" font-family="Times New Roman,serif" font-size="14.00">0.048</text>
</g>
<!-- 1&#45;&gt;1 -->
<g id="edge12" class="edge">
<title>1&#45;&gt;1</title>
<path fill="none" stroke="black" d="M613.82,-112.74C627.53,-112.13 637.69,-109.55 637.69,-105 637.69,-101.66 632.21,-99.38 623.87,-98.16"/>
<polygon fill="black" stroke="black" points="624.09,-94.67 613.82,-97.26 623.47,-101.64 624.09,-94.67"/>
<text text-anchor="middle" x="653.19" y="-101.3" font-family="Times New Roman,serif" font-size="14.00">0.083</text>
</g>
<!-- 2 -->
<g id="node3" class="node">
<title>2</title>
<g id="a_node3"><a xlink:href="pharmacovigilance officer.svg" xlink:title="pharmacovigilance officer">
<ellipse fill="none" stroke="black" cx="104.64" cy="-18" rx="104.78" ry="18"/>
<text text-anchor="middle" x="104.64" y="-14.3" font-family="Times New Roman,serif" font-size="14.00">pharmacovigilance officer</text>
</a>
</g>
</g>
<!-- 1&#45;&gt;2 -->
<g id="edge13" class="edge">
<title>1&#45;&gt;2</title>
<path fill="none" stroke="black" d="M493.6,-104.77C421.74,-104.05 301.46,-97.97 202.64,-69 180.63,-62.55 157.71,-51.15 139.57,-40.86"/>
<polygon fill="black" stroke="black" points="140.96,-37.62 130.56,-35.62 137.44,-43.67 140.96,-37.62"/>
<text text-anchor="middle" x="218.14" y="-57.8" font-family="Times New Roman,serif" font-size="14.00">0.062</text>
</g>
<!-- 3 -->
<g id="node4" class="node">
<title>3</title>
<g id="a_node4"><a xlink:href="financial manager.svg" xlink:title="financial manager">
<ellipse fill="none" stroke="black" cx="300.64" cy="-18" rx="73.39" ry="18"/>
<text text-anchor="middle" x="300.64" y="-14.3" font-family="Times New Roman,serif" font-size="14.00">financial manager</text>
</a>
</g>
</g>
<!-- 1&#45;&gt;3 -->
<g id="edge11" class="edge">
<title>1&#45;&gt;3</title>
<path fill="none" stroke="black" d="M495.02,-101.13C455.14,-97.35 402.94,-88.7 360.64,-69 347.12,-62.71 334.15,-52.59 323.74,-43.1"/>
<polygon fill="black" stroke="black" points="325.98,-40.4 316.32,-36.04 321.15,-45.47 325.98,-40.4"/>
<text text-anchor="middle" x="376.14" y="-57.8" font-family="Times New Roman,serif" font-size="14.00">0.083</text>
</g>
<!-- 7 -->
<g id="node8" class="node">
<title>7</title>
<g id="a_node8"><a xlink:href="production manager.svg" xlink:title="production manager">
<ellipse fill="none" stroke="black" cx="475.64" cy="-18" rx="83.39" ry="18"/>
<text text-anchor="middle" x="475.64" y="-14.3" font-family="Times New Roman,serif" font-size="14.00">production manager</text>
</a>
</g>
</g>
<!-- 1&#45;&gt;7 -->
<g id="edge16" class="edge">
<title>1&#45;&gt;7</title>
<path fill="none" stroke="black" d="M508.5,-93.07C496.09,-87.87 484.14,-80.22 476.64,-69 472.21,-62.37 470.83,-54.07 470.88,-46.15"/>
<polygon fill="black" stroke="black" points="474.38,-46.36 471.63,-36.12 467.39,-45.83 474.38,-46.36"/>
<text text-anchor="middle" x="492.14" y="-57.8" font-family="Times New Roman,serif" font-size="14.00">0.034</text>
</g>
<!-- 8 -->
<g id="node9" class="node">
<title>8</title>
<g id="a_node9"><a xlink:href="sales manager.svg" xlink:title="sales manager">
<ellipse fill="none" stroke="black" cx="637.64" cy="-18" rx="61.19" ry="18"/>
<text text-anchor="middle" x="637.64" y="-14.3" font-family="Times New Roman,serif" font-size="14.00">sales manager</text>
</a>
</g>
</g>
<!-- 1&#45;&gt;8 -->
<g id="edge10" class="edge">
<title>1&#45;&gt;8</title>
<path fill="none" stroke="black" d="M562.09,-86.81C566.01,-76.44 572.13,-63.44 580.64,-54 585.67,-48.43 591.79,-43.44 598.13,-39.09"/>
<polygon fill="black" stroke="black" points="600.26,-41.88 606.83,-33.57 596.52,-35.97 600.26,-41.88"/>
<text text-anchor="middle" x="596.14" y="-57.8" font-family="Times New Roman,serif" font-size="14.00">0.090</text>
</g>
<!-- 10 -->
<g id="node11" class="node">
<title>10</title>
<g id="a_node11"><a xlink:href="sales executive.svg" xlink:title="sales executive">
<ellipse fill="none" stroke="black" cx="780.64" cy="-18" rx="64.19" ry="18"/>
<text text-anchor="middle" x="780.64" y="-14.3" font-family="Times New Roman,serif" font-size="14.00">sales executive</text>
</a>
</g>
</g>
<!-- 1&#45;&gt;10 -->
<g id="edge15" class="edge">
<title>1&#45;&gt;10</title>
<path fill="none" stroke="black" d="M597.37,-91.03C616.66,-84.69 639.96,-76.78 660.64,-69 686.61,-59.23 715.31,-47.32 738.13,-37.57"/>
<polygon fill="black" stroke="black" points="739.72,-40.69 747.53,-33.53 736.96,-34.26 739.72,-40.69"/>
<text text-anchor="middle" x="712.14" y="-57.8" font-family="Times New Roman,serif" font-size="14.00">0.041</text>
</g>
<!-- 11 -->
<g id="node12" class="node">
<title>11</title>
<g id="a_node12"><a xlink:href="records manager.svg" xlink:title="records manager">
<ellipse fill="none" stroke="black" cx="934.64" cy="-18" rx="71.49" ry="18"/>
<text text-anchor="middle" x="934.64" y="-14.3" font-family="Times New Roman,serif" font-size="14.00">records manager</text>
</a>
</g>
</g>
<!-- 1&#45;&gt;11 -->
<g id="edge17" class="edge">
<title>1&#45;&gt;11</title>
<path fill="none" stroke="black" d="M607.69,-94.41C642.66,-87.68 690.06,-78.27 731.64,-69 780.9,-58.01 836.53,-44.21 877.08,-33.9"/>
<polygon fill="black" stroke="black" points="877.97,-37.28 886.79,-31.42 876.24,-30.5 877.97,-37.28"/>
<text text-anchor="middle" x="808.14" y="-57.8" font-family="Times New Roman,serif" font-size="14.00">0.034</text>
</g>
<!-- 12 -->
<g id="node13" class="node">
<title>12</title>
<g id="a_node13"><a xlink:href="barristers clerk.svg" xlink:title="barristers clerk">
<ellipse fill="none" stroke="black" cx="1088.64" cy="-18" rx="64.19" ry="18"/>
<text text-anchor="middle" x="1088.64" y="-14.3" font-family="Times New Roman,serif" font-size="14.00">barristers clerk</text>
</a>
</g>
</g>
<!-- 1&#45;&gt;12 -->
<g id="edge18" class="edge">
<title>1&#45;&gt;12</title>
<path fill="none" stroke="black" d="M613.85,-97.39C668.77,-90.86 754.01,-80.24 827.64,-69 911.07,-56.26 931.93,-52.79 1014.64,-36 1020.05,-34.9 1025.67,-33.71 1031.29,-32.48"/>
<polygon fill="black" stroke="black" points="1032.34,-35.83 1041.35,-30.24 1030.83,-29 1032.34,-35.83"/>
<text text-anchor="middle" x="936.14" y="-57.8" font-family="Times New Roman,serif" font-size="14.00">0.027</text>
</g>
<!-- 13 -->
<g id="node14" class="node">
<title>13</title>
<g id="a_node14"><a xlink:href="heritage manager.svg" xlink:title="heritage manager">
<ellipse fill="none" stroke="black" cx="1242.64" cy="-18" rx="71.49" ry="18"/>
<text text-anchor="middle" x="1242.64" y="-14.3" font-family="Times New Roman,serif" font-size="14.00">heritage manager</text>
</a>
</g>
</g>
<!-- 1&#45;&gt;13 -->
<g id="edge19" class="edge">
<title>1&#45;&gt;13</title>
<path fill="none" stroke="black" d="M617.28,-100.03C695.6,-94.6 836.08,-83.8 955.64,-69 1047.66,-57.61 1070.46,-52.86 1161.64,-36 1167.76,-34.87 1174.13,-33.63 1180.48,-32.36"/>
<polygon fill="black" stroke="black" points="1181.32,-35.76 1190.43,-30.34 1179.93,-28.9 1181.32,-35.76"/>
<text text-anchor="middle" x="1074.14" y="-57.8" font-family="Times New Roman,serif" font-size="14.00">0.027</text>
</g>
<!-- 2&#45;&gt;1 -->
<g id="edge2" class="edge">
<title>2&#45;&gt;1</title>
<path fill="none" stroke="black" d="M156.4,-33.74C196.14,-44.65 252.53,-59.25 302.64,-69 365.21,-81.17 437.26,-90.68 488.6,-96.69"/>
<polygon fill="black" stroke="black" points="488.25,-100.18 498.59,-97.85 489.06,-93.22 488.25,-100.18"/>
<text text-anchor="middle" x="318.14" y="-57.8" font-family="Times New Roman,serif" font-size="14.00">0.054</text>
</g>
<!-- 3&#45;&gt;1 -->
<g id="edge3" class="edge">
<title>3&#45;&gt;1</title>
<path fill="none" stroke="black" d="M338.21,-33.6C365.38,-43.97 403.07,-57.95 436.64,-69 458.26,-76.12 482.31,-83.28 503.17,-89.25"/>
<polygon fill="black" stroke="black" points="502.24,-92.63 512.81,-92 504.15,-85.89 502.24,-92.63"/>
<text text-anchor="middle" x="452.14" y="-57.8" font-family="Times New Roman,serif" font-size="14.00">0.032</text>
</g>
<!-- 4 -->
<g id="node5" class="node">
<title>4</title>
<g id="a_node5"><a xlink:href="lawyer.svg" xlink:title="lawyer">
<ellipse fill="none" stroke="black" cx="484.64" cy="-192" rx="34.39" ry="18"/>
<text text-anchor="middle" x="484.64" y="-188.3" font-family="Times New Roman,serif" font-size="14.00">lawyer</text>
</a>
</g>
</g>
<!-- 4&#45;&gt;1 -->
<g id="edge4" class="edge">
<title>4&#45;&gt;1</title>
<path fill="none" stroke="black" d="M498.18,-175.01C508.74,-162.55 523.59,-145.02 535.67,-130.75"/>
<polygon fill="black" stroke="black" points="538.63,-132.68 542.42,-122.79 533.29,-128.16 538.63,-132.68"/>
<text text-anchor="middle" x="541.14" y="-144.8" font-family="Times New Roman,serif" font-size="14.00">0.032</text>
</g>
<!-- 5 -->
<g id="node6" class="node">
<title>5</title>
<g id="a_node6"><a xlink:href="marketing assistant.svg" xlink:title="marketing assistant">
<ellipse fill="none" stroke="black" cx="616.64" cy="-192" rx="79.09" ry="18"/>
<text text-anchor="middle" x="616.64" y="-188.3" font-family="Times New Roman,serif" font-size="14.00">marketing assistant</text>
</a>
</g>
</g>
<!-- 5&#45;&gt;1 -->
<g id="edge5" class="edge">
<title>5&#45;&gt;1</title>
<path fill="none" stroke="black" d="M604.5,-173.8C595.9,-161.62 584.23,-145.09 574.57,-131.4"/>
<polygon fill="black" stroke="black" points="577.19,-129.04 568.56,-122.89 571.47,-133.07 577.19,-129.04"/>
<text text-anchor="middle" x="606.14" y="-144.8" font-family="Times New Roman,serif" font-size="14.00">0.032</text>
</g>
<!-- 6 -->
<g id="node7" class="node">
<title>6</title>
<g id="a_node7"><a xlink:href="project manager.svg" xlink:title="project manager">
<ellipse fill="none" stroke="black" cx="782.64" cy="-192" rx="68.79" ry="18"/>
<text text-anchor="middle" x="782.64" y="-188.3" font-family="Times New Roman,serif" font-size="14.00">project manager</text>
</a>
</g>
</g>
<!-- 6&#45;&gt;1 -->
<g id="edge6" class="edge">
<title>6&#45;&gt;1</title>
<path fill="none" stroke="black" d="M745.07,-176.87C705.94,-162.15 644.61,-139.09 602.62,-123.29"/>
<polygon fill="black" stroke="black" points="603.77,-119.99 593.18,-119.74 601.31,-126.54 603.77,-119.99"/>
<text text-anchor="middle" x="698.14" y="-144.8" font-family="Times New Roman,serif" font-size="14.00">0.032</text>
</g>
<!-- 7&#45;&gt;1 -->
<g id="edge7" class="edge">
<title>7&#45;&gt;1</title>
<path fill="none" stroke="black" d="M491.61,-35.76C503.58,-48.32 520.15,-65.7 533.56,-79.78"/>
<polygon fill="black" stroke="black" points="531.21,-82.38 540.64,-87.21 536.27,-77.55 531.21,-82.38"/>
<text text-anchor="middle" x="537.14" y="-57.8" font-family="Times New Roman,serif" font-size="14.00">0.027</text>
</g>
<!-- 8&#45;&gt;1 -->
<g id="edge8" class="edge">
<title>8&#45;&gt;1</title>
<path fill="none" stroke="black" d="M633,-36.23C629.53,-46.63 623.94,-59.63 615.64,-69 610.65,-74.64 604.52,-79.63 598.12,-83.94"/>
<polygon fill="black" stroke="black" points="595.96,-81.16 589.31,-89.41 599.65,-87.11 595.96,-81.16"/>
<text text-anchor="middle" x="641.14" y="-57.8" font-family="Times New Roman,serif" font-size="14.00">0.027</text>
</g>
<!-- 9 -->
<g id="node10" class="node">
<title>9</title>
<g id="a_node10"><a xlink:href="solicitor.svg" xlink:title="solicitor">
<ellipse fill="none" stroke="black" cx="909.64" cy="-192" rx="40.09" ry="18"/>
<text text-anchor="middle" x="909.64" y="-188.3" font-family="Times New Roman,serif" font-size="14.00">solicitor</text>
</a>
</g>
</g>
<!-- 9&#45;&gt;1 -->
<g id="edge9" class="edge">
<title>9&#45;&gt;1</title>
<path fill="none" stroke="black" d="M879.48,-179.97C873.29,-177.86 866.78,-175.77 860.64,-174 777.57,-150.08 679.71,-129.52 617.92,-117.45"/>
<polygon fill="black" stroke="black" points="618.43,-113.98 607.95,-115.51 617.1,-120.85 618.43,-113.98"/>
<text text-anchor="middle" x="801.14" y="-144.8" font-family="Times New Roman,serif" font-size="14.00">0.027</text>
</g>
</g>
</svg>
