<?xml version="1.0" encoding="UTF-8" standalone="no"?>
<!DOCTYPE svg PUBLIC "-//W3C//DTD SVG 1.1//EN"
 "http://www.w3.org/Graphics/SVG/1.1/DTD/svg11.dtd">
<!-- Generated by graphviz version 2.44.1 (20200629.0800)
 -->
<!-- Title: test Pages: 1 -->
<svg width="1455pt" height="218pt"
 viewBox="0.00 0.00 1455.29 218.00" xmlns="http://www.w3.org/2000/svg" xmlns:xlink="http://www.w3.org/1999/xlink">
<g id="graph0" class="graph" transform="scale(1 1) rotate(0) translate(4 214)">
<title>test</title>
<polygon fill="white" stroke="transparent" points="-4,4 -4,-214 1451.29,-214 1451.29,4 -4,4"/>
<!-- 0 -->
<g id="node1" class="node">
<title>0</title>
<g id="a_node1"><a xlink:href="lecturer.svg" xlink:title="lecturer">
<ellipse fill="none" stroke="black" cx="158.49" cy="-192" rx="37.89" ry="18"/>
<text text-anchor="middle" x="158.49" y="-188.3" font-family="Times New Roman,serif" font-size="14.00">lecturer</text>
</a>
</g>
</g>
<!-- 1 -->
<g id="node2" class="node">
<title>1</title>
<g id="a_node2"><a xlink:href="leisure centre manager.svg" xlink:title="leisure centre manager">
<ellipse fill="none" stroke="black" cx="666.49" cy="-105" rx="90.98" ry="18"/>
<text text-anchor="middle" x="666.49" y="-101.3" font-family="Times New Roman,serif" font-size="14.00">leisure centre manager</text>
</a>
</g>
</g>
<!-- 0&#45;&gt;1 -->
<g id="edge1" class="edge">
<title>0&#45;&gt;1</title>
<path fill="none" stroke="black" d="M156.3,-173.66C155.97,-162.68 157.67,-149.07 166.49,-141 195.21,-114.73 427.96,-108.08 565.56,-106.46"/>
<polygon fill="black" stroke="black" points="565.75,-109.96 575.71,-106.35 565.67,-102.96 565.75,-109.96"/>
<text text-anchor="middle" x="181.99" y="-144.8" font-family="Times New Roman,serif" font-size="14.00">0.117</text>
</g>
<!-- 1&#45;&gt;0 -->
<g id="edge16" class="edge">
<title>1&#45;&gt;0</title>
<path fill="none" stroke="black" d="M583.77,-112.59C490.63,-121.3 335.34,-139.71 205.49,-174 202.49,-174.79 199.4,-175.7 196.32,-176.67"/>
<polygon fill="black" stroke="black" points="194.94,-173.44 186.57,-179.93 197.16,-180.08 194.94,-173.44"/>
<text text-anchor="middle" x="371.99" y="-144.8" font-family="Times New Roman,serif" font-size="14.00">0.046</text>
</g>
<!-- 1&#45;&gt;1 -->
<g id="edge10" class="edge">
<title>1&#45;&gt;1</title>
<path fill="none" stroke="black" d="M749.66,-112.44C764.84,-111.5 775.49,-109.02 775.49,-105 775.49,-101.95 769.37,-99.79 759.8,-98.51"/>
<polygon fill="black" stroke="black" points="759.94,-95.01 749.66,-97.56 759.28,-101.98 759.94,-95.01"/>
<text text-anchor="middle" x="790.99" y="-101.3" font-family="Times New Roman,serif" font-size="14.00">0.093</text>
</g>
<!-- 8 -->
<g id="node9" class="node">
<title>8</title>
<g id="a_node9"><a xlink:href="catering manager.svg" xlink:title="catering manager">
<ellipse fill="none" stroke="black" cx="71.49" cy="-18" rx="71.49" ry="18"/>
<text text-anchor="middle" x="71.49" y="-14.3" font-family="Times New Roman,serif" font-size="14.00">catering manager</text>
</a>
</g>
</g>
<!-- 1&#45;&gt;8 -->
<g id="edge14" class="edge">
<title>1&#45;&gt;8</title>
<path fill="none" stroke="black" d="M576.68,-101.78C490.58,-98.42 357.26,-90.02 243.49,-69 201.47,-61.23 154.99,-47.4 120.96,-36.24"/>
<polygon fill="black" stroke="black" points="121.85,-32.85 111.26,-33.03 119.65,-39.5 121.85,-32.85"/>
<text text-anchor="middle" x="258.99" y="-57.8" font-family="Times New Roman,serif" font-size="14.00">0.046</text>
</g>
<!-- 10 -->
<g id="node11" class="node">
<title>10</title>
<g id="a_node11"><a xlink:href="education administrator.svg" xlink:title="education administrator">
<ellipse fill="none" stroke="black" cx="256.49" cy="-18" rx="95.58" ry="18"/>
<text text-anchor="middle" x="256.49" y="-14.3" font-family="Times New Roman,serif" font-size="14.00">education administrator</text>
</a>
</g>
</g>
<!-- 1&#45;&gt;10 -->
<g id="edge11" class="edge">
<title>1&#45;&gt;10</title>
<path fill="none" stroke="black" d="M606,-91.46C531.98,-76.11 406.83,-50.17 328.09,-33.84"/>
<polygon fill="black" stroke="black" points="328.75,-30.41 318.25,-31.8 327.33,-37.26 328.75,-30.41"/>
<text text-anchor="middle" x="501.99" y="-57.8" font-family="Times New Roman,serif" font-size="14.00">0.069</text>
</g>
<!-- 11 -->
<g id="node12" class="node">
<title>11</title>
<g id="a_node12"><a xlink:href="pharmacovigilance officer.svg" xlink:title="pharmacovigilance officer">
<ellipse fill="none" stroke="black" cx="474.49" cy="-18" rx="104.78" ry="18"/>
<text text-anchor="middle" x="474.49" y="-14.3" font-family="Times New Roman,serif" font-size="14.00">pharmacovigilance officer</text>
</a>
</g>
</g>
<!-- 1&#45;&gt;11 -->
<g id="edge12" class="edge">
<title>1&#45;&gt;11</title>
<path fill="none" stroke="black" d="M630.83,-88.21C599.51,-74.34 553.77,-54.1 519.85,-39.08"/>
<polygon fill="black" stroke="black" points="521.18,-35.84 510.62,-34.99 518.35,-42.24 521.18,-35.84"/>
<text text-anchor="middle" x="597.99" y="-57.8" font-family="Times New Roman,serif" font-size="14.00">0.069</text>
</g>
<!-- 12 -->
<g id="node13" class="node">
<title>12</title>
<g id="a_node13"><a xlink:href="project manager.svg" xlink:title="project manager">
<ellipse fill="none" stroke="black" cx="666.49" cy="-18" rx="68.79" ry="18"/>
<text text-anchor="middle" x="666.49" y="-14.3" font-family="Times New Roman,serif" font-size="14.00">project manager</text>
</a>
</g>
</g>
<!-- 1&#45;&gt;12 -->
<g id="edge13" class="edge">
<title>1&#45;&gt;12</title>
<path fill="none" stroke="black" d="M666.49,-86.8C666.49,-75.16 666.49,-59.55 666.49,-46.24"/>
<polygon fill="black" stroke="black" points="669.99,-46.18 666.49,-36.18 662.99,-46.18 669.99,-46.18"/>
<text text-anchor="middle" x="681.99" y="-57.8" font-family="Times New Roman,serif" font-size="14.00">0.069</text>
</g>
<!-- 13 -->
<g id="node14" class="node">
<title>13</title>
<g id="a_node14"><a xlink:href="financial manager.svg" xlink:title="financial manager">
<ellipse fill="none" stroke="black" cx="826.49" cy="-18" rx="73.39" ry="18"/>
<text text-anchor="middle" x="826.49" y="-14.3" font-family="Times New Roman,serif" font-size="14.00">financial manager</text>
</a>
</g>
</g>
<!-- 1&#45;&gt;13 -->
<g id="edge15" class="edge">
<title>1&#45;&gt;13</title>
<path fill="none" stroke="black" d="M696.59,-88.01C722.45,-74.27 759.9,-54.38 787.95,-39.48"/>
<polygon fill="black" stroke="black" points="789.89,-42.41 797.07,-34.63 786.6,-36.23 789.89,-42.41"/>
<text text-anchor="middle" x="771.99" y="-57.8" font-family="Times New Roman,serif" font-size="14.00">0.046</text>
</g>
<!-- 14 -->
<g id="node15" class="node">
<title>14</title>
<g id="a_node15"><a xlink:href="secretary.svg" xlink:title="secretary">
<ellipse fill="none" stroke="black" cx="961.49" cy="-18" rx="43.59" ry="18"/>
<text text-anchor="middle" x="961.49" y="-14.3" font-family="Times New Roman,serif" font-size="14.00">secretary</text>
</a>
</g>
</g>
<!-- 1&#45;&gt;14 -->
<g id="edge17" class="edge">
<title>1&#45;&gt;14</title>
<path fill="none" stroke="black" d="M718.11,-90.1C767.22,-76.73 843.1,-55.7 908.49,-36 911.83,-34.99 915.28,-33.93 918.75,-32.85"/>
<polygon fill="black" stroke="black" points="919.99,-36.13 928.47,-29.79 917.88,-29.46 919.99,-36.13"/>
<text text-anchor="middle" x="857.99" y="-57.8" font-family="Times New Roman,serif" font-size="14.00">0.046</text>
</g>
<!-- 15 -->
<g id="node16" class="node">
<title>15</title>
<g id="a_node16"><a xlink:href="software developer.svg" xlink:title="software developer">
<ellipse fill="none" stroke="black" cx="1102.49" cy="-18" rx="79.89" ry="18"/>
<text text-anchor="middle" x="1102.49" y="-14.3" font-family="Times New Roman,serif" font-size="14.00">software developer</text>
</a>
</g>
</g>
<!-- 1&#45;&gt;15 -->
<g id="edge18" class="edge">
<title>1&#45;&gt;15</title>
<path fill="none" stroke="black" d="M736.52,-93.36C777.67,-86.87 830.65,-78.08 877.49,-69 932.46,-58.34 994.55,-44.4 1039.56,-33.94"/>
<polygon fill="black" stroke="black" points="1040.53,-37.31 1049.47,-31.64 1038.94,-30.5 1040.53,-37.31"/>
<text text-anchor="middle" x="960.99" y="-57.8" font-family="Times New Roman,serif" font-size="14.00">0.046</text>
</g>
<!-- 16 -->
<g id="node17" class="node">
<title>16</title>
<g id="a_node17"><a xlink:href="civil service administrator.svg" xlink:title="civil service administrator">
<ellipse fill="none" stroke="black" cx="1303.49" cy="-18" rx="102.88" ry="18"/>
<text text-anchor="middle" x="1303.49" y="-14.3" font-family="Times New Roman,serif" font-size="14.00">civil service administrator</text>
</a>
</g>
</g>
<!-- 1&#45;&gt;16 -->
<g id="edge19" class="edge">
<title>1&#45;&gt;16</title>
<path fill="none" stroke="black" d="M745.65,-96.12C809.21,-89.56 900.7,-79.62 980.49,-69 1062.85,-58.04 1156.66,-43.26 1221.88,-32.62"/>
<polygon fill="black" stroke="black" points="1222.79,-36.01 1232.1,-30.95 1221.66,-29.11 1222.79,-36.01"/>
<text text-anchor="middle" x="1092.99" y="-57.8" font-family="Times New Roman,serif" font-size="14.00">0.023</text>
</g>
<!-- 2 -->
<g id="node3" class="node">
<title>2</title>
<g id="a_node3"><a xlink:href="sales manager.svg" xlink:title="sales manager">
<ellipse fill="none" stroke="black" cx="275.49" cy="-192" rx="61.19" ry="18"/>
<text text-anchor="middle" x="275.49" y="-188.3" font-family="Times New Roman,serif" font-size="14.00">sales manager</text>
</a>
</g>
</g>
<!-- 2&#45;&gt;1 -->
<g id="edge2" class="edge">
<title>2&#45;&gt;1</title>
<path fill="none" stroke="black" d="M320.63,-179.83C328.89,-177.85 337.44,-175.83 345.49,-174 431.18,-154.52 530.14,-133.83 595.28,-120.46"/>
<polygon fill="black" stroke="black" points="596.34,-123.81 605.44,-118.38 594.94,-116.96 596.34,-123.81"/>
<text text-anchor="middle" x="510.99" y="-144.8" font-family="Times New Roman,serif" font-size="14.00">0.058</text>
</g>
<!-- 3 -->
<g id="node4" class="node">
<title>3</title>
<g id="a_node4"><a xlink:href="community education officer.svg" xlink:title="community education officer">
<ellipse fill="none" stroke="black" cx="469.49" cy="-192" rx="115.08" ry="18"/>
<text text-anchor="middle" x="469.49" y="-188.3" font-family="Times New Roman,serif" font-size="14.00">community education officer</text>
</a>
</g>
</g>
<!-- 3&#45;&gt;1 -->
<g id="edge3" class="edge">
<title>3&#45;&gt;1</title>
<path fill="none" stroke="black" d="M507.01,-174.81C539.46,-160.81 586.47,-140.53 621.04,-125.61"/>
<polygon fill="black" stroke="black" points="622.65,-128.73 630.44,-121.55 619.88,-122.3 622.65,-128.73"/>
<text text-anchor="middle" x="595.99" y="-144.8" font-family="Times New Roman,serif" font-size="14.00">0.039</text>
</g>
<!-- 4 -->
<g id="node5" class="node">
<title>4</title>
<g id="a_node5"><a xlink:href="office manager.svg" xlink:title="office manager">
<ellipse fill="none" stroke="black" cx="666.49" cy="-192" rx="64.19" ry="18"/>
<text text-anchor="middle" x="666.49" y="-188.3" font-family="Times New Roman,serif" font-size="14.00">office manager</text>
</a>
</g>
</g>
<!-- 4&#45;&gt;1 -->
<g id="edge4" class="edge">
<title>4&#45;&gt;1</title>
<path fill="none" stroke="black" d="M666.49,-173.8C666.49,-162.16 666.49,-146.55 666.49,-133.24"/>
<polygon fill="black" stroke="black" points="669.99,-133.18 666.49,-123.18 662.99,-133.18 669.99,-133.18"/>
<text text-anchor="middle" x="681.99" y="-144.8" font-family="Times New Roman,serif" font-size="14.00">0.039</text>
</g>
<!-- 5 -->
<g id="node6" class="node">
<title>5</title>
<g id="a_node6"><a xlink:href="sales executive.svg" xlink:title="sales executive">
<ellipse fill="none" stroke="black" cx="813.49" cy="-192" rx="64.19" ry="18"/>
<text text-anchor="middle" x="813.49" y="-188.3" font-family="Times New Roman,serif" font-size="14.00">sales executive</text>
</a>
</g>
</g>
<!-- 5&#45;&gt;1 -->
<g id="edge5" class="edge">
<title>5&#45;&gt;1</title>
<path fill="none" stroke="black" d="M786.87,-175.61C763.49,-162.08 729.23,-142.28 703.23,-127.24"/>
<polygon fill="black" stroke="black" points="704.83,-124.12 694.42,-122.15 701.32,-130.18 704.83,-124.12"/>
<text text-anchor="middle" x="764.99" y="-144.8" font-family="Times New Roman,serif" font-size="14.00">0.039</text>
</g>
<!-- 6 -->
<g id="node7" class="node">
<title>6</title>
<g id="a_node7"><a xlink:href="sports development officer.svg" xlink:title="sports development officer">
<ellipse fill="none" stroke="black" cx="1004.49" cy="-192" rx="108.58" ry="18"/>
<text text-anchor="middle" x="1004.49" y="-188.3" font-family="Times New Roman,serif" font-size="14.00">sports development officer</text>
</a>
</g>
</g>
<!-- 6&#45;&gt;1 -->
<g id="edge6" class="edge">
<title>6&#45;&gt;1</title>
<path fill="none" stroke="black" d="M947.54,-176.68C887.36,-161.54 792.67,-137.73 730.09,-121.99"/>
<polygon fill="black" stroke="black" points="730.88,-118.58 720.33,-119.54 729.17,-125.37 730.88,-118.58"/>
<text text-anchor="middle" x="871.99" y="-144.8" font-family="Times New Roman,serif" font-size="14.00">0.039</text>
</g>
<!-- 7 -->
<g id="node8" class="node">
<title>7</title>
<g id="a_node8"><a xlink:href="academic librarian.svg" xlink:title="academic librarian">
<ellipse fill="none" stroke="black" cx="1207.49" cy="-192" rx="76.09" ry="18"/>
<text text-anchor="middle" x="1207.49" y="-188.3" font-family="Times New Roman,serif" font-size="14.00">academic librarian</text>
</a>
</g>
</g>
<!-- 7&#45;&gt;1 -->
<g id="edge7" class="edge">
<title>7&#45;&gt;1</title>
<path fill="none" stroke="black" d="M1152.24,-179.54C1142.35,-177.6 1132.13,-175.68 1122.49,-174 992.72,-151.36 841.34,-129.73 749.77,-117.16"/>
<polygon fill="black" stroke="black" points="750.11,-113.67 739.73,-115.79 749.16,-120.61 750.11,-113.67"/>
<text text-anchor="middle" x="1024.99" y="-144.8" font-family="Times New Roman,serif" font-size="14.00">0.019</text>
</g>
<!-- 8&#45;&gt;1 -->
<g id="edge8" class="edge">
<title>8&#45;&gt;1</title>
<path fill="none" stroke="black" d="M123.02,-30.57C132.47,-32.51 142.26,-34.41 151.49,-36 300.73,-61.67 475.75,-82.92 578.53,-94.5"/>
<polygon fill="black" stroke="black" points="578.23,-97.99 588.56,-95.63 579.01,-91.04 578.23,-97.99"/>
<text text-anchor="middle" x="378.99" y="-57.8" font-family="Times New Roman,serif" font-size="14.00">0.019</text>
</g>
<!-- 9 -->
<g id="node10" class="node">
<title>9</title>
<g id="a_node10"><a xlink:href="facilities manager.svg" xlink:title="facilities manager">
<ellipse fill="none" stroke="black" cx="1374.49" cy="-192" rx="72.59" ry="18"/>
<text text-anchor="middle" x="1374.49" y="-188.3" font-family="Times New Roman,serif" font-size="14.00">facilities manager</text>
</a>
</g>
</g>
<!-- 9&#45;&gt;1 -->
<g id="edge9" class="edge">
<title>9&#45;&gt;1</title>
<path fill="none" stroke="black" d="M1321.67,-179.46C1311.99,-177.52 1301.95,-175.61 1292.49,-174 1105.25,-142.17 883.82,-122.23 760.86,-112.69"/>
<polygon fill="black" stroke="black" points="760.96,-109.19 750.73,-111.91 760.43,-116.17 760.96,-109.19"/>
<text text-anchor="middle" x="1187.99" y="-144.8" font-family="Times New Roman,serif" font-size="14.00">0.019</text>
</g>
</g>
</svg>
