<?xml version="1.0" encoding="UTF-8" standalone="no"?>
<!DOCTYPE svg PUBLIC "-//W3C//DTD SVG 1.1//EN"
 "http://www.w3.org/Graphics/SVG/1.1/DTD/svg11.dtd">
<!-- Generated by graphviz version 2.44.1 (20200629.0800)
 -->
<!-- Title: test Pages: 1 -->
<svg width="1910pt" height="218pt"
 viewBox="0.00 0.00 1910.33 218.00" xmlns="http://www.w3.org/2000/svg" xmlns:xlink="http://www.w3.org/1999/xlink">
<g id="graph0" class="graph" transform="scale(1 1) rotate(0) translate(4 214)">
<title>test</title>
<polygon fill="white" stroke="transparent" points="-4,4 -4,-214 1906.33,-214 1906.33,4 -4,4"/>
<!-- 0 -->
<g id="node1" class="node">
<title>0</title>
<g id="a_node1"><a xlink:href="pharmacovigilance officer.svg" xlink:title="pharmacovigilance officer">
<ellipse fill="none" stroke="black" cx="104.64" cy="-192" rx="104.78" ry="18"/>
<text text-anchor="middle" x="104.64" y="-188.3" font-family="Times New Roman,serif" font-size="14.00">pharmacovigilance officer</text>
</a>
</g>
</g>
<!-- 1 -->
<g id="node2" class="node">
<title>1</title>
<g id="a_node2"><a xlink:href="local government administrator.svg" xlink:title="local government administrator">
<ellipse fill="none" stroke="black" cx="735.64" cy="-105" rx="122.38" ry="18"/>
<text text-anchor="middle" x="735.64" y="-101.3" font-family="Times New Roman,serif" font-size="14.00">local government administrator</text>
</a>
</g>
</g>
<!-- 0&#45;&gt;1 -->
<g id="edge1" class="edge">
<title>0&#45;&gt;1</title>
<path fill="none" stroke="black" d="M127.8,-174.34C145.26,-162.76 170.29,-148.16 194.64,-141 268.64,-119.25 469.64,-111 604.69,-107.89"/>
<polygon fill="black" stroke="black" points="604.78,-111.38 614.7,-107.66 604.62,-104.39 604.78,-111.38"/>
<text text-anchor="middle" x="210.14" y="-144.8" font-family="Times New Roman,serif" font-size="14.00">0.088</text>
</g>
<!-- 1&#45;&gt;0 -->
<g id="edge11" class="edge">
<title>1&#45;&gt;0</title>
<path fill="none" stroke="black" d="M645.91,-117.32C542.75,-130.46 368.36,-152.99 218.64,-174 209.45,-175.29 199.84,-176.67 190.28,-178.07"/>
<polygon fill="black" stroke="black" points="189.73,-174.61 180.35,-179.52 190.75,-181.54 189.73,-174.61"/>
<text text-anchor="middle" x="475.14" y="-144.8" font-family="Times New Roman,serif" font-size="14.00">0.125</text>
</g>
<!-- 3 -->
<g id="node4" class="node">
<title>3</title>
<g id="a_node4"><a xlink:href="careers adviser.svg" xlink:title="careers adviser">
<ellipse fill="none" stroke="black" cx="259.64" cy="-18" rx="64.99" ry="18"/>
<text text-anchor="middle" x="259.64" y="-14.3" font-family="Times New Roman,serif" font-size="14.00">careers adviser</text>
</a>
</g>
</g>
<!-- 1&#45;&gt;3 -->
<g id="edge17" class="edge">
<title>1&#45;&gt;3</title>
<path fill="none" stroke="black" d="M621.28,-98.51C527.3,-93.07 402.06,-83.45 353.64,-69 331.92,-62.52 309.44,-50.77 291.91,-40.29"/>
<polygon fill="black" stroke="black" points="293.58,-37.21 283.23,-34.96 289.92,-43.18 293.58,-37.21"/>
<text text-anchor="middle" x="369.14" y="-57.8" font-family="Times New Roman,serif" font-size="14.00">0.025</text>
</g>
<!-- 5 -->
<g id="node6" class="node">
<title>5</title>
<g id="a_node6"><a xlink:href="project manager.svg" xlink:title="project manager">
<ellipse fill="none" stroke="black" cx="411.64" cy="-18" rx="68.79" ry="18"/>
<text text-anchor="middle" x="411.64" y="-14.3" font-family="Times New Roman,serif" font-size="14.00">project manager</text>
</a>
</g>
</g>
<!-- 1&#45;&gt;5 -->
<g id="edge15" class="edge">
<title>1&#45;&gt;5</title>
<path fill="none" stroke="black" d="M641.73,-93.43C605.05,-87.98 562.93,-80.1 525.64,-69 499.84,-61.32 472.15,-49.28 450.53,-38.93"/>
<polygon fill="black" stroke="black" points="451.88,-35.7 441.35,-34.47 448.82,-41.99 451.88,-35.7"/>
<text text-anchor="middle" x="538.14" y="-57.8" font-family="Times New Roman,serif" font-size="14.00">0.05</text>
</g>
<!-- 11 -->
<g id="node12" class="node">
<title>11</title>
<g id="a_node12"><a xlink:href="facilities manager.svg" xlink:title="facilities manager">
<ellipse fill="none" stroke="black" cx="571.64" cy="-18" rx="72.59" ry="18"/>
<text text-anchor="middle" x="571.64" y="-14.3" font-family="Times New Roman,serif" font-size="14.00">facilities manager</text>
</a>
</g>
</g>
<!-- 1&#45;&gt;11 -->
<g id="edge12" class="edge">
<title>1&#45;&gt;11</title>
<path fill="none" stroke="black" d="M704.02,-87.61C677.31,-73.77 638.96,-53.89 610.41,-39.09"/>
<polygon fill="black" stroke="black" points="612,-35.97 601.51,-34.48 608.77,-42.19 612,-35.97"/>
<text text-anchor="middle" x="676.14" y="-57.8" font-family="Times New Roman,serif" font-size="14.00">0.05</text>
</g>
<!-- 12 -->
<g id="node13" class="node">
<title>12</title>
<g id="a_node13"><a xlink:href="financial manager.svg" xlink:title="financial manager">
<ellipse fill="none" stroke="black" cx="735.64" cy="-18" rx="73.39" ry="18"/>
<text text-anchor="middle" x="735.64" y="-14.3" font-family="Times New Roman,serif" font-size="14.00">financial manager</text>
</a>
</g>
</g>
<!-- 1&#45;&gt;12 -->
<g id="edge13" class="edge">
<title>1&#45;&gt;12</title>
<path fill="none" stroke="black" d="M735.64,-86.8C735.64,-75.16 735.64,-59.55 735.64,-46.24"/>
<polygon fill="black" stroke="black" points="739.14,-46.18 735.64,-36.18 732.14,-46.18 739.14,-46.18"/>
<text text-anchor="middle" x="748.14" y="-57.8" font-family="Times New Roman,serif" font-size="14.00">0.05</text>
</g>
<!-- 13 -->
<g id="node14" class="node">
<title>13</title>
<g id="a_node14"><a xlink:href="health and safety adviser.svg" xlink:title="health and safety adviser">
<ellipse fill="none" stroke="black" cx="926.64" cy="-18" rx="99.38" ry="18"/>
<text text-anchor="middle" x="926.64" y="-14.3" font-family="Times New Roman,serif" font-size="14.00">health and safety adviser</text>
</a>
</g>
</g>
<!-- 1&#45;&gt;13 -->
<g id="edge14" class="edge">
<title>1&#45;&gt;13</title>
<path fill="none" stroke="black" d="M772.02,-87.81C803.15,-73.96 848.09,-53.96 881.51,-39.08"/>
<polygon fill="black" stroke="black" points="883.33,-42.1 891.05,-34.84 880.49,-35.71 883.33,-42.1"/>
<text text-anchor="middle" x="855.14" y="-57.8" font-family="Times New Roman,serif" font-size="14.00">0.05</text>
</g>
<!-- 14 -->
<g id="node15" class="node">
<title>14</title>
<g id="a_node15"><a xlink:href="teaching assistant.svg" xlink:title="teaching assistant">
<ellipse fill="none" stroke="black" cx="1117.64" cy="-18" rx="73.39" ry="18"/>
<text text-anchor="middle" x="1117.64" y="-14.3" font-family="Times New Roman,serif" font-size="14.00">teaching assistant</text>
</a>
</g>
</g>
<!-- 1&#45;&gt;14 -->
<g id="edge16" class="edge">
<title>1&#45;&gt;14</title>
<path fill="none" stroke="black" d="M800.01,-89.68C871.14,-73.85 984.93,-48.53 1055.26,-32.88"/>
<polygon fill="black" stroke="black" points="1056.31,-36.23 1065.31,-30.64 1054.79,-29.4 1056.31,-36.23"/>
<text text-anchor="middle" x="962.14" y="-57.8" font-family="Times New Roman,serif" font-size="14.00">0.05</text>
</g>
<!-- 15 -->
<g id="node16" class="node">
<title>15</title>
<g id="a_node16"><a xlink:href="catering manager.svg" xlink:title="catering manager">
<ellipse fill="none" stroke="black" cx="1280.64" cy="-18" rx="71.49" ry="18"/>
<text text-anchor="middle" x="1280.64" y="-14.3" font-family="Times New Roman,serif" font-size="14.00">catering manager</text>
</a>
</g>
</g>
<!-- 1&#45;&gt;15 -->
<g id="edge18" class="edge">
<title>1&#45;&gt;15</title>
<path fill="none" stroke="black" d="M824.87,-92.65C918.49,-80.34 1069.82,-59.29 1199.64,-36 1205.77,-34.9 1212.14,-33.69 1218.5,-32.43"/>
<polygon fill="black" stroke="black" points="1219.33,-35.83 1228.44,-30.42 1217.95,-28.97 1219.33,-35.83"/>
<text text-anchor="middle" x="1100.14" y="-57.8" font-family="Times New Roman,serif" font-size="14.00">0.025</text>
</g>
<!-- 16 -->
<g id="node17" class="node">
<title>16</title>
<g id="a_node17"><a xlink:href="community education officer.svg" xlink:title="community education officer">
<ellipse fill="none" stroke="black" cx="1485.64" cy="-18" rx="115.08" ry="18"/>
<text text-anchor="middle" x="1485.64" y="-14.3" font-family="Times New Roman,serif" font-size="14.00">community education officer</text>
</a>
</g>
</g>
<!-- 1&#45;&gt;16 -->
<g id="edge19" class="edge">
<title>1&#45;&gt;16</title>
<path fill="none" stroke="black" d="M840.49,-95.72C917.75,-89.31 1025.36,-79.73 1119.64,-69 1213.82,-58.28 1321.25,-43.27 1395.23,-32.5"/>
<polygon fill="black" stroke="black" points="1396.06,-35.92 1405.45,-31.01 1395.05,-28.99 1396.06,-35.92"/>
<text text-anchor="middle" x="1255.14" y="-57.8" font-family="Times New Roman,serif" font-size="14.00">0.025</text>
</g>
<!-- 17 -->
<g id="node18" class="node">
<title>17</title>
<g id="a_node18"><a xlink:href="control and instrumentation engineer.svg" xlink:title="control and instrumentation engineer">
<ellipse fill="none" stroke="black" cx="1760.64" cy="-18" rx="141.88" ry="18"/>
<text text-anchor="middle" x="1760.64" y="-14.3" font-family="Times New Roman,serif" font-size="14.00">control and instrumentation engineer</text>
</a>
</g>
</g>
<!-- 1&#45;&gt;17 -->
<g id="edge20" class="edge">
<title>1&#45;&gt;17</title>
<path fill="none" stroke="black" d="M847.73,-97.81C956.8,-91.54 1127.2,-81.05 1274.64,-69 1423.75,-56.82 1460.86,-51.7 1609.64,-36 1622.39,-34.65 1635.75,-33.21 1649.01,-31.74"/>
<polygon fill="black" stroke="black" points="1649.58,-35.2 1659.13,-30.62 1648.81,-28.25 1649.58,-35.2"/>
<text text-anchor="middle" x="1452.14" y="-57.8" font-family="Times New Roman,serif" font-size="14.00">0.025</text>
</g>
<!-- 2 -->
<g id="node3" class="node">
<title>2</title>
<g id="a_node3"><a xlink:href="outdoor pursuits manager.svg" xlink:title="outdoor pursuits manager">
<ellipse fill="none" stroke="black" cx="331.64" cy="-192" rx="103.98" ry="18"/>
<text text-anchor="middle" x="331.64" y="-188.3" font-family="Times New Roman,serif" font-size="14.00">outdoor pursuits manager</text>
</a>
</g>
</g>
<!-- 2&#45;&gt;1 -->
<g id="edge2" class="edge">
<title>2&#45;&gt;1</title>
<path fill="none" stroke="black" d="M395.21,-177.63C466.56,-162.61 582.3,-138.26 658.7,-122.19"/>
<polygon fill="black" stroke="black" points="659.68,-125.56 668.74,-120.07 658.24,-118.71 659.68,-125.56"/>
<text text-anchor="middle" x="574.14" y="-144.8" font-family="Times New Roman,serif" font-size="14.00">0.066</text>
</g>
<!-- 3&#45;&gt;1 -->
<g id="edge3" class="edge">
<title>3&#45;&gt;1</title>
<path fill="none" stroke="black" d="M302.2,-31.74C341.07,-42.96 400.28,-59.02 452.64,-69 509.06,-79.75 572.47,-87.95 624.95,-93.69"/>
<polygon fill="black" stroke="black" points="624.63,-97.18 634.95,-94.77 625.38,-90.22 624.63,-97.18"/>
<text text-anchor="middle" x="468.14" y="-57.8" font-family="Times New Roman,serif" font-size="14.00">0.044</text>
</g>
<!-- 4 -->
<g id="node5" class="node">
<title>4</title>
<g id="a_node5"><a xlink:href="production manager.svg" xlink:title="production manager">
<ellipse fill="none" stroke="black" cx="536.64" cy="-192" rx="83.39" ry="18"/>
<text text-anchor="middle" x="536.64" y="-188.3" font-family="Times New Roman,serif" font-size="14.00">production manager</text>
</a>
</g>
</g>
<!-- 4&#45;&gt;1 -->
<g id="edge4" class="edge">
<title>4&#45;&gt;1</title>
<path fill="none" stroke="black" d="M572.68,-175.61C605.03,-161.79 652.74,-141.41 688.19,-126.27"/>
<polygon fill="black" stroke="black" points="690.02,-129.29 697.84,-122.15 687.27,-122.86 690.02,-129.29"/>
<text text-anchor="middle" x="664.14" y="-144.8" font-family="Times New Roman,serif" font-size="14.00">0.044</text>
</g>
<!-- 5&#45;&gt;1 -->
<g id="edge5" class="edge">
<title>5&#45;&gt;1</title>
<path fill="none" stroke="black" d="M458.53,-31.3C513.76,-45.79 605.91,-69.97 668.65,-86.43"/>
<polygon fill="black" stroke="black" points="667.9,-89.85 678.46,-89 669.68,-83.08 667.9,-89.85"/>
<text text-anchor="middle" x="609.14" y="-57.8" font-family="Times New Roman,serif" font-size="14.00">0.044</text>
</g>
<!-- 6 -->
<g id="node7" class="node">
<title>6</title>
<g id="a_node7"><a xlink:href="regulatory affairs officer.svg" xlink:title="regulatory affairs officer">
<ellipse fill="none" stroke="black" cx="735.64" cy="-192" rx="98.28" ry="18"/>
<text text-anchor="middle" x="735.64" y="-188.3" font-family="Times New Roman,serif" font-size="14.00">regulatory affairs officer</text>
</a>
</g>
</g>
<!-- 6&#45;&gt;1 -->
<g id="edge6" class="edge">
<title>6&#45;&gt;1</title>
<path fill="none" stroke="black" d="M735.64,-173.8C735.64,-162.16 735.64,-146.55 735.64,-133.24"/>
<polygon fill="black" stroke="black" points="739.14,-133.18 735.64,-123.18 732.14,-133.18 739.14,-133.18"/>
<text text-anchor="middle" x="751.14" y="-144.8" font-family="Times New Roman,serif" font-size="14.00">0.044</text>
</g>
<!-- 7 -->
<g id="node8" class="node">
<title>7</title>
<g id="a_node8"><a xlink:href="sales executive.svg" xlink:title="sales executive">
<ellipse fill="none" stroke="black" cx="915.64" cy="-192" rx="64.19" ry="18"/>
<text text-anchor="middle" x="915.64" y="-188.3" font-family="Times New Roman,serif" font-size="14.00">sales executive</text>
</a>
</g>
</g>
<!-- 7&#45;&gt;1 -->
<g id="edge7" class="edge">
<title>7&#45;&gt;1</title>
<path fill="none" stroke="black" d="M884.29,-176.19C855.32,-162.51 811.99,-142.05 779.58,-126.75"/>
<polygon fill="black" stroke="black" points="780.86,-123.48 770.32,-122.38 777.87,-129.81 780.86,-123.48"/>
<text text-anchor="middle" x="852.14" y="-144.8" font-family="Times New Roman,serif" font-size="14.00">0.044</text>
</g>
<!-- 8 -->
<g id="node9" class="node">
<title>8</title>
<g id="a_node9"><a xlink:href="sales manager.svg" xlink:title="sales manager">
<ellipse fill="none" stroke="black" cx="1058.64" cy="-192" rx="61.19" ry="18"/>
<text text-anchor="middle" x="1058.64" y="-188.3" font-family="Times New Roman,serif" font-size="14.00">sales manager</text>
</a>
</g>
</g>
<!-- 8&#45;&gt;1 -->
<g id="edge8" class="edge">
<title>8&#45;&gt;1</title>
<path fill="none" stroke="black" d="M1015.22,-179.27C977.34,-169.06 920.89,-153.92 871.64,-141 849.55,-135.21 825.43,-128.97 803.71,-123.38"/>
<polygon fill="black" stroke="black" points="804.47,-119.97 793.91,-120.87 802.73,-126.75 804.47,-119.97"/>
<text text-anchor="middle" x="944.14" y="-144.8" font-family="Times New Roman,serif" font-size="14.00">0.044</text>
</g>
<!-- 9 -->
<g id="node10" class="node">
<title>9</title>
<g id="a_node10"><a xlink:href="academic librarian.svg" xlink:title="academic librarian">
<ellipse fill="none" stroke="black" cx="1213.64" cy="-192" rx="76.09" ry="18"/>
<text text-anchor="middle" x="1213.64" y="-188.3" font-family="Times New Roman,serif" font-size="14.00">academic librarian</text>
</a>
</g>
</g>
<!-- 9&#45;&gt;1 -->
<g id="edge9" class="edge">
<title>9&#45;&gt;1</title>
<path fill="none" stroke="black" d="M1159.15,-179.37C1108.6,-168.75 1031.2,-152.94 963.64,-141 919.92,-133.28 871.31,-125.68 830.24,-119.55"/>
<polygon fill="black" stroke="black" points="830.65,-116.07 820.25,-118.06 829.62,-122.99 830.65,-116.07"/>
<text text-anchor="middle" x="1054.14" y="-144.8" font-family="Times New Roman,serif" font-size="14.00">0.022</text>
</g>
<!-- 10 -->
<g id="node11" class="node">
<title>10</title>
<g id="a_node11"><a xlink:href="advertising copywriter.svg" xlink:title="advertising copywriter">
<ellipse fill="none" stroke="black" cx="1398.64" cy="-192" rx="90.98" ry="18"/>
<text text-anchor="middle" x="1398.64" y="-188.3" font-family="Times New Roman,serif" font-size="14.00">advertising copywriter</text>
</a>
</g>
</g>
<!-- 10&#45;&gt;1 -->
<g id="edge10" class="edge">
<title>10&#45;&gt;1</title>
<path fill="none" stroke="black" d="M1332.51,-179.54C1321.22,-177.65 1309.6,-175.73 1298.64,-174 1198.81,-158.2 1173.93,-153.54 1073.64,-141 997.92,-131.53 912.42,-122.69 846.35,-116.27"/>
<polygon fill="black" stroke="black" points="846.63,-112.78 836.34,-115.3 845.95,-119.75 846.63,-112.78"/>
<text text-anchor="middle" x="1197.14" y="-144.8" font-family="Times New Roman,serif" font-size="14.00">0.022</text>
</g>
</g>
</svg>
