<?xml version="1.0" encoding="UTF-8" standalone="no"?>
<!DOCTYPE svg PUBLIC "-//W3C//DTD SVG 1.1//EN"
 "http://www.w3.org/Graphics/SVG/1.1/DTD/svg11.dtd">
<!-- Generated by graphviz version 2.44.1 (20200629.0800)
 -->
<!-- Title: logistics_manager Pages: 1 -->
<svg width="1291pt" height="218pt"
 viewBox="0.00 0.00 1291.44 218.00" xmlns="http://www.w3.org/2000/svg" xmlns:xlink="http://www.w3.org/1999/xlink">
<g id="graph0" class="graph" transform="scale(1 1) rotate(0) translate(4 214)">
<title>logistics_manager</title>
<polygon fill="white" stroke="transparent" points="-4,4 -4,-214 1287.44,-214 1287.44,4 -4,4"/>
<!-- 0 -->
<g id="node1" class="node">
<title>0</title>
<g id="a_node1"><a xlink:href="project manager.svg" xlink:title="project manager">
<ellipse fill="none" stroke="black" cx="386.09" cy="-192" rx="68.79" ry="18"/>
<text text-anchor="middle" x="386.09" y="-188.3" font-family="Times New Roman,serif" font-size="14.00">project manager</text>
</a>
</g>
</g>
<!-- 1 -->
<g id="node2" class="node">
<title>1</title>
<g id="a_node2"><a xlink:href="logistics manager.svg" xlink:title="logistics manager">
<ellipse fill="none" stroke="black" cx="520.09" cy="-105" rx="73.39" ry="18"/>
<text text-anchor="middle" x="520.09" y="-101.3" font-family="Times New Roman,serif" font-size="14.00">logistics manager</text>
</a>
</g>
</g>
<!-- 0&#45;&gt;1 -->
<g id="edge1" class="edge">
<title>0&#45;&gt;1</title>
<path fill="none" stroke="black" d="M398.96,-173.89C407.65,-163.28 419.91,-150.01 433.09,-141 443.18,-134.11 454.82,-128.26 466.24,-123.42"/>
<polygon fill="black" stroke="black" points="467.77,-126.57 475.74,-119.59 465.16,-120.08 467.77,-126.57"/>
<text text-anchor="middle" x="448.59" y="-144.8" font-family="Times New Roman,serif" font-size="14.00">0.108</text>
</g>
<!-- 1&#45;&gt;0 -->
<g id="edge11" class="edge">
<title>1&#45;&gt;0</title>
<path fill="none" stroke="black" d="M504.05,-122.77C493.4,-133.24 478.75,-146.5 464.09,-156 454.46,-162.25 443.53,-167.91 432.96,-172.78"/>
<polygon fill="black" stroke="black" points="431.53,-169.59 423.81,-176.85 434.37,-175.98 431.53,-169.59"/>
<text text-anchor="middle" x="499.59" y="-144.8" font-family="Times New Roman,serif" font-size="14.00">0.080</text>
</g>
<!-- 1&#45;&gt;1 -->
<g id="edge10" class="edge">
<title>1&#45;&gt;1</title>
<path fill="none" stroke="black" d="M586.67,-112.64C601.09,-111.9 611.54,-109.35 611.54,-105 611.54,-101.74 605.66,-99.49 596.64,-98.26"/>
<polygon fill="black" stroke="black" points="596.95,-94.77 586.67,-97.36 596.32,-101.74 596.95,-94.77"/>
<text text-anchor="middle" x="627.04" y="-101.3" font-family="Times New Roman,serif" font-size="14.00">0.172</text>
</g>
<!-- 2 -->
<g id="node3" class="node">
<title>2</title>
<g id="a_node3"><a xlink:href="sales manager.svg" xlink:title="sales manager">
<ellipse fill="none" stroke="black" cx="61.09" cy="-18" rx="61.19" ry="18"/>
<text text-anchor="middle" x="61.09" y="-14.3" font-family="Times New Roman,serif" font-size="14.00">sales manager</text>
</a>
</g>
</g>
<!-- 1&#45;&gt;2 -->
<g id="edge13" class="edge">
<title>1&#45;&gt;2</title>
<path fill="none" stroke="black" d="M446.86,-102.7C348.39,-100.08 179.1,-92.24 122.09,-69 107.61,-63.09 93.9,-52.5 83.16,-42.58"/>
<polygon fill="black" stroke="black" points="85.52,-39.99 75.9,-35.55 80.65,-45.02 85.52,-39.99"/>
<text text-anchor="middle" x="137.59" y="-57.8" font-family="Times New Roman,serif" font-size="14.00">0.053</text>
</g>
<!-- 3 -->
<g id="node4" class="node">
<title>3</title>
<g id="a_node4"><a xlink:href="facilities manager.svg" xlink:title="facilities manager">
<ellipse fill="none" stroke="black" cx="213.09" cy="-18" rx="72.59" ry="18"/>
<text text-anchor="middle" x="213.09" y="-14.3" font-family="Times New Roman,serif" font-size="14.00">facilities manager</text>
</a>
</g>
</g>
<!-- 1&#45;&gt;3 -->
<g id="edge19" class="edge">
<title>1&#45;&gt;3</title>
<path fill="none" stroke="black" d="M450.57,-99.08C387.15,-93.75 298.65,-83.94 267.09,-69 254.34,-62.96 242.54,-52.82 233.24,-43.25"/>
<polygon fill="black" stroke="black" points="235.7,-40.76 226.35,-35.78 230.56,-45.5 235.7,-40.76"/>
<text text-anchor="middle" x="282.59" y="-57.8" font-family="Times New Roman,serif" font-size="14.00">0.026</text>
</g>
<!-- 4 -->
<g id="node5" class="node">
<title>4</title>
<g id="a_node5"><a xlink:href="it consultant.svg" xlink:title="it consultant">
<ellipse fill="none" stroke="black" cx="358.09" cy="-18" rx="54.69" ry="18"/>
<text text-anchor="middle" x="358.09" y="-14.3" font-family="Times New Roman,serif" font-size="14.00">it consultant</text>
</a>
</g>
</g>
<!-- 1&#45;&gt;4 -->
<g id="edge12" class="edge">
<title>1&#45;&gt;4</title>
<path fill="none" stroke="black" d="M458.41,-95.17C437.02,-90.01 413.74,-81.85 395.09,-69 386.02,-62.75 378.31,-53.54 372.31,-44.73"/>
<polygon fill="black" stroke="black" points="375.2,-42.75 366.89,-36.17 369.28,-46.49 375.2,-42.75"/>
<text text-anchor="middle" x="410.59" y="-57.8" font-family="Times New Roman,serif" font-size="14.00">0.075</text>
</g>
<!-- 5 -->
<g id="node6" class="node">
<title>5</title>
<g id="a_node6"><a xlink:href="pharmacovigilance officer.svg" xlink:title="pharmacovigilance officer">
<ellipse fill="none" stroke="black" cx="535.09" cy="-18" rx="104.78" ry="18"/>
<text text-anchor="middle" x="535.09" y="-14.3" font-family="Times New Roman,serif" font-size="14.00">pharmacovigilance officer</text>
</a>
</g>
</g>
<!-- 1&#45;&gt;5 -->
<g id="edge17" class="edge">
<title>1&#45;&gt;5</title>
<path fill="none" stroke="black" d="M501.6,-87.17C493.41,-77.61 486.71,-65.32 492.09,-54 494.05,-49.88 496.76,-46.08 499.87,-42.64"/>
<polygon fill="black" stroke="black" points="502.38,-45.08 507.2,-35.65 497.55,-40.02 502.38,-45.08"/>
<text text-anchor="middle" x="507.59" y="-57.8" font-family="Times New Roman,serif" font-size="14.00">0.032</text>
</g>
<!-- 7 -->
<g id="node8" class="node">
<title>7</title>
<g id="a_node8"><a xlink:href="production manager.svg" xlink:title="production manager">
<ellipse fill="none" stroke="black" cx="741.09" cy="-18" rx="83.39" ry="18"/>
<text text-anchor="middle" x="741.09" y="-14.3" font-family="Times New Roman,serif" font-size="14.00">production manager</text>
</a>
</g>
</g>
<!-- 1&#45;&gt;7 -->
<g id="edge14" class="edge">
<title>1&#45;&gt;7</title>
<path fill="none" stroke="black" d="M546.49,-87.94C564.93,-77.23 590.4,-63.44 614.09,-54 633.72,-46.18 655.73,-39.45 675.83,-34.04"/>
<polygon fill="black" stroke="black" points="676.75,-37.42 685.53,-31.49 674.97,-30.65 676.75,-37.42"/>
<text text-anchor="middle" x="629.59" y="-57.8" font-family="Times New Roman,serif" font-size="14.00">0.048</text>
</g>
<!-- 8 -->
<g id="node9" class="node">
<title>8</title>
<g id="a_node9"><a xlink:href="financial manager.svg" xlink:title="financial manager">
<ellipse fill="none" stroke="black" cx="916.09" cy="-18" rx="73.39" ry="18"/>
<text text-anchor="middle" x="916.09" y="-14.3" font-family="Times New Roman,serif" font-size="14.00">financial manager</text>
</a>
</g>
</g>
<!-- 1&#45;&gt;8 -->
<g id="edge15" class="edge">
<title>1&#45;&gt;8</title>
<path fill="none" stroke="black" d="M579.61,-94.39C618.33,-87.87 669.86,-78.7 715.09,-69 741.97,-63.24 748.42,-60.64 775.09,-54 801.89,-47.33 831.55,-39.96 856.72,-33.71"/>
<polygon fill="black" stroke="black" points="857.63,-37.09 866.5,-31.29 855.95,-30.3 857.63,-37.09"/>
<text text-anchor="middle" x="790.59" y="-57.8" font-family="Times New Roman,serif" font-size="14.00">0.043</text>
</g>
<!-- 10 -->
<g id="node11" class="node">
<title>10</title>
<g id="a_node11"><a xlink:href="sales executive.svg" xlink:title="sales executive">
<ellipse fill="none" stroke="black" cx="1072.09" cy="-18" rx="64.19" ry="18"/>
<text text-anchor="middle" x="1072.09" y="-14.3" font-family="Times New Roman,serif" font-size="14.00">sales executive</text>
</a>
</g>
</g>
<!-- 1&#45;&gt;10 -->
<g id="edge16" class="edge">
<title>1&#45;&gt;10</title>
<path fill="none" stroke="black" d="M591.37,-100.61C665.09,-96.3 783.34,-87.12 884.09,-69 931.24,-60.52 983.85,-46.09 1021.4,-34.91"/>
<polygon fill="black" stroke="black" points="1022.52,-38.22 1031.09,-31.99 1020.5,-31.52 1022.52,-38.22"/>
<text text-anchor="middle" x="966.59" y="-57.8" font-family="Times New Roman,serif" font-size="14.00">0.037</text>
</g>
<!-- 11 -->
<g id="node12" class="node">
<title>11</title>
<g id="a_node12"><a xlink:href="brand manager.svg" xlink:title="brand manager">
<ellipse fill="none" stroke="black" cx="1219.09" cy="-18" rx="64.19" ry="18"/>
<text text-anchor="middle" x="1219.09" y="-14.3" font-family="Times New Roman,serif" font-size="14.00">brand manager</text>
</a>
</g>
</g>
<!-- 1&#45;&gt;11 -->
<g id="edge18" class="edge">
<title>1&#45;&gt;11</title>
<path fill="none" stroke="black" d="M592.25,-101.48C684.1,-97.61 847.51,-88.5 986.09,-69 1047.35,-60.38 1116.54,-44.77 1163.5,-33.28"/>
<polygon fill="black" stroke="black" points="1164.59,-36.61 1173.46,-30.82 1162.92,-29.82 1164.59,-36.61"/>
<text text-anchor="middle" x="1084.59" y="-57.8" font-family="Times New Roman,serif" font-size="14.00">0.026</text>
</g>
<!-- 2&#45;&gt;1 -->
<g id="edge2" class="edge">
<title>2&#45;&gt;1</title>
<path fill="none" stroke="black" d="M95.97,-32.94C126,-44.38 170.75,-60.09 211.09,-69 287.38,-85.84 376.14,-94.82 438.91,-99.45"/>
<polygon fill="black" stroke="black" points="438.92,-102.96 449.15,-100.19 439.42,-95.98 438.92,-102.96"/>
<text text-anchor="middle" x="226.59" y="-57.8" font-family="Times New Roman,serif" font-size="14.00">0.044</text>
</g>
<!-- 3&#45;&gt;1 -->
<g id="edge3" class="edge">
<title>3&#45;&gt;1</title>
<path fill="none" stroke="black" d="M247.86,-33.83C274.4,-44.72 312.07,-59.25 346.09,-69 379.91,-78.69 418.16,-86.69 450.17,-92.59"/>
<polygon fill="black" stroke="black" points="449.87,-96.1 460.33,-94.43 451.12,-89.21 449.87,-96.1"/>
<text text-anchor="middle" x="361.59" y="-57.8" font-family="Times New Roman,serif" font-size="14.00">0.041</text>
</g>
<!-- 4&#45;&gt;1 -->
<g id="edge4" class="edge">
<title>4&#45;&gt;1</title>
<path fill="none" stroke="black" d="M386,-33.64C412.27,-47.43 451.87,-68.21 481.24,-83.61"/>
<polygon fill="black" stroke="black" points="479.9,-86.86 490.38,-88.41 483.15,-80.66 479.9,-86.86"/>
<text text-anchor="middle" x="464.59" y="-57.8" font-family="Times New Roman,serif" font-size="14.00">0.037</text>
</g>
<!-- 5&#45;&gt;1 -->
<g id="edge5" class="edge">
<title>5&#45;&gt;1</title>
<path fill="none" stroke="black" d="M532.06,-36.18C530.01,-47.81 527.26,-63.42 524.91,-76.73"/>
<polygon fill="black" stroke="black" points="521.42,-76.34 523.13,-86.8 528.31,-77.56 521.42,-76.34"/>
<text text-anchor="middle" x="544.59" y="-57.8" font-family="Times New Roman,serif" font-size="14.00">0.033</text>
</g>
<!-- 6 -->
<g id="node7" class="node">
<title>6</title>
<g id="a_node7"><a xlink:href="warehouse manager.svg" xlink:title="warehouse manager">
<ellipse fill="none" stroke="black" cx="555.09" cy="-192" rx="81.79" ry="18"/>
<text text-anchor="middle" x="555.09" y="-188.3" font-family="Times New Roman,serif" font-size="14.00">warehouse manager</text>
</a>
</g>
</g>
<!-- 6&#45;&gt;1 -->
<g id="edge6" class="edge">
<title>6&#45;&gt;1</title>
<path fill="none" stroke="black" d="M548.01,-173.8C543.13,-161.93 536.54,-145.93 530.99,-132.45"/>
<polygon fill="black" stroke="black" points="534.21,-131.09 527.17,-123.18 527.74,-133.75 534.21,-131.09"/>
<text text-anchor="middle" x="555.59" y="-144.8" font-family="Times New Roman,serif" font-size="14.00">0.033</text>
</g>
<!-- 7&#45;&gt;1 -->
<g id="edge7" class="edge">
<title>7&#45;&gt;1</title>
<path fill="none" stroke="black" d="M715.32,-35.12C697.29,-45.86 672.38,-59.66 649.09,-69 628.18,-77.39 604.56,-84.45 583.31,-89.98"/>
<polygon fill="black" stroke="black" points="582.24,-86.64 573.41,-92.5 583.97,-93.43 582.24,-86.64"/>
<text text-anchor="middle" x="695.59" y="-57.8" font-family="Times New Roman,serif" font-size="14.00">0.029</text>
</g>
<!-- 8&#45;&gt;1 -->
<g id="edge8" class="edge">
<title>8&#45;&gt;1</title>
<path fill="none" stroke="black" d="M888.71,-34.92C867.85,-46.29 838.05,-60.95 810.09,-69 741.8,-88.67 661.37,-97.29 602.56,-101.07"/>
<polygon fill="black" stroke="black" points="602.35,-97.58 592.58,-101.68 602.77,-104.56 602.35,-97.58"/>
<text text-anchor="middle" x="864.59" y="-57.8" font-family="Times New Roman,serif" font-size="14.00">0.022</text>
</g>
<!-- 9 -->
<g id="node10" class="node">
<title>9</title>
<g id="a_node10"><a xlink:href="software architect.svg" xlink:title="software architect">
<ellipse fill="none" stroke="black" cx="730.09" cy="-192" rx="75.29" ry="18"/>
<text text-anchor="middle" x="730.09" y="-188.3" font-family="Times New Roman,serif" font-size="14.00">software architect</text>
</a>
</g>
</g>
<!-- 9&#45;&gt;1 -->
<g id="edge9" class="edge">
<title>9&#45;&gt;1</title>
<path fill="none" stroke="black" d="M693.52,-176.19C658.09,-161.86 604.26,-140.07 565.98,-124.57"/>
<polygon fill="black" stroke="black" points="567.19,-121.29 556.61,-120.78 564.56,-127.77 567.19,-121.29"/>
<text text-anchor="middle" x="652.59" y="-144.8" font-family="Times New Roman,serif" font-size="14.00">0.022</text>
</g>
</g>
</svg>
