<?xml version="1.0" encoding="UTF-8" standalone="no"?>
<!DOCTYPE svg PUBLIC "-//W3C//DTD SVG 1.1//EN"
 "http://www.w3.org/Graphics/SVG/1.1/DTD/svg11.dtd">
<!-- Generated by graphviz version 2.44.1 (20200629.0800)
 -->
<!-- Title: marketing_assistant Pages: 1 -->
<svg width="1235pt" height="218pt"
 viewBox="0.00 0.00 1234.64 218.00" xmlns="http://www.w3.org/2000/svg" xmlns:xlink="http://www.w3.org/1999/xlink">
<g id="graph0" class="graph" transform="scale(1 1) rotate(0) translate(4 214)">
<title>marketing_assistant</title>
<polygon fill="white" stroke="transparent" points="-4,4 -4,-214 1230.64,-214 1230.64,4 -4,4"/>
<!-- 0 -->
<g id="node1" class="node">
<title>0</title>
<g id="a_node1"><a xlink:href="marketing executive.svg" xlink:title="marketing executive">
<ellipse fill="none" stroke="black" cx="363.09" cy="-192" rx="81.79" ry="18"/>
<text text-anchor="middle" x="363.09" y="-188.3" font-family="Times New Roman,serif" font-size="14.00">marketing executive</text>
</a>
</g>
</g>
<!-- 1 -->
<g id="node2" class="node">
<title>1</title>
<g id="a_node2"><a xlink:href="marketing assistant.svg" xlink:title="marketing assistant">
<ellipse fill="none" stroke="black" cx="516.09" cy="-105" rx="79.09" ry="18"/>
<text text-anchor="middle" x="516.09" y="-101.3" font-family="Times New Roman,serif" font-size="14.00">marketing assistant</text>
</a>
</g>
</g>
<!-- 0&#45;&gt;1 -->
<g id="edge1" class="edge">
<title>0&#45;&gt;1</title>
<path fill="none" stroke="black" d="M381.05,-174.34C393.12,-163.77 409.74,-150.38 426.09,-141 437.57,-134.42 450.51,-128.57 462.94,-123.63"/>
<polygon fill="black" stroke="black" points="464.23,-126.88 472.31,-120.03 461.72,-120.35 464.23,-126.88"/>
<text text-anchor="middle" x="441.59" y="-144.8" font-family="Times New Roman,serif" font-size="14.00">0.143</text>
</g>
<!-- 1&#45;&gt;0 -->
<g id="edge11" class="edge">
<title>1&#45;&gt;0</title>
<path fill="none" stroke="black" d="M499.5,-122.81C488.29,-133.44 472.74,-146.84 457.09,-156 445.48,-162.8 432.31,-168.69 419.58,-173.59"/>
<polygon fill="black" stroke="black" points="418.13,-170.39 409.97,-177.14 420.56,-176.96 418.13,-170.39"/>
<text text-anchor="middle" x="493.59" y="-144.8" font-family="Times New Roman,serif" font-size="14.00">0.220</text>
</g>
<!-- 1&#45;&gt;1 -->
<g id="edge10" class="edge">
<title>1&#45;&gt;1</title>
<path fill="none" stroke="black" d="M588.22,-112.57C602.89,-111.75 613.39,-109.22 613.39,-105 613.39,-101.83 607.48,-99.62 598.34,-98.36"/>
<polygon fill="black" stroke="black" points="598.51,-94.86 588.22,-97.43 597.86,-101.83 598.51,-94.86"/>
<text text-anchor="middle" x="628.89" y="-101.3" font-family="Times New Roman,serif" font-size="14.00">0.259</text>
</g>
<!-- 2 -->
<g id="node3" class="node">
<title>2</title>
<g id="a_node3"><a xlink:href="sales manager.svg" xlink:title="sales manager">
<ellipse fill="none" stroke="black" cx="61.09" cy="-18" rx="61.19" ry="18"/>
<text text-anchor="middle" x="61.09" y="-14.3" font-family="Times New Roman,serif" font-size="14.00">sales manager</text>
</a>
</g>
</g>
<!-- 1&#45;&gt;2 -->
<g id="edge12" class="edge">
<title>1&#45;&gt;2</title>
<path fill="none" stroke="black" d="M437.52,-102.56C339.04,-99.81 176.46,-91.86 121.09,-69 106.77,-63.09 93.28,-52.49 82.74,-42.57"/>
<polygon fill="black" stroke="black" points="85.18,-40.07 75.6,-35.54 80.27,-45.06 85.18,-40.07"/>
<text text-anchor="middle" x="136.59" y="-57.8" font-family="Times New Roman,serif" font-size="14.00">0.063</text>
</g>
<!-- 3 -->
<g id="node4" class="node">
<title>3</title>
<g id="a_node4"><a xlink:href="project manager.svg" xlink:title="project manager">
<ellipse fill="none" stroke="black" cx="209.09" cy="-18" rx="68.79" ry="18"/>
<text text-anchor="middle" x="209.09" y="-14.3" font-family="Times New Roman,serif" font-size="14.00">project manager</text>
</a>
</g>
</g>
<!-- 1&#45;&gt;3 -->
<g id="edge13" class="edge">
<title>1&#45;&gt;3</title>
<path fill="none" stroke="black" d="M442.38,-98.26C380.51,-92.6 297.51,-82.79 267.09,-69 253.59,-62.88 240.84,-52.6 230.75,-42.94"/>
<polygon fill="black" stroke="black" points="233.13,-40.37 223.59,-35.76 228.17,-45.31 233.13,-40.37"/>
<text text-anchor="middle" x="282.59" y="-57.8" font-family="Times New Roman,serif" font-size="14.00">0.038</text>
</g>
<!-- 5 -->
<g id="node6" class="node">
<title>5</title>
<g id="a_node6"><a xlink:href="content manager.svg" xlink:title="content manager">
<ellipse fill="none" stroke="black" cx="366.09" cy="-18" rx="70.39" ry="18"/>
<text text-anchor="middle" x="366.09" y="-14.3" font-family="Times New Roman,serif" font-size="14.00">content manager</text>
</a>
</g>
</g>
<!-- 1&#45;&gt;5 -->
<g id="edge14" class="edge">
<title>1&#45;&gt;5</title>
<path fill="none" stroke="black" d="M450.89,-94.73C431.47,-89.57 411.12,-81.52 395.09,-69 387.2,-62.83 381.05,-53.86 376.49,-45.22"/>
<polygon fill="black" stroke="black" points="379.61,-43.64 372.15,-36.12 373.29,-46.65 379.61,-43.64"/>
<text text-anchor="middle" x="410.59" y="-57.8" font-family="Times New Roman,serif" font-size="14.00">0.029</text>
</g>
<!-- 7 -->
<g id="node8" class="node">
<title>7</title>
<g id="a_node8"><a xlink:href="production manager.svg" xlink:title="production manager">
<ellipse fill="none" stroke="black" cx="537.09" cy="-18" rx="83.39" ry="18"/>
<text text-anchor="middle" x="537.09" y="-14.3" font-family="Times New Roman,serif" font-size="14.00">production manager</text>
</a>
</g>
</g>
<!-- 1&#45;&gt;7 -->
<g id="edge16" class="edge">
<title>1&#45;&gt;7</title>
<path fill="none" stroke="black" d="M499.46,-87.35C491.83,-77.63 485.58,-65.13 491.09,-54 493.32,-49.52 496.42,-45.45 499.98,-41.81"/>
<polygon fill="black" stroke="black" points="502.58,-44.18 507.77,-34.94 497.96,-38.93 502.58,-44.18"/>
<text text-anchor="middle" x="506.59" y="-57.8" font-family="Times New Roman,serif" font-size="14.00">0.022</text>
</g>
<!-- 8 -->
<g id="node9" class="node">
<title>8</title>
<g id="a_node9"><a xlink:href="it consultant.svg" xlink:title="it consultant">
<ellipse fill="none" stroke="black" cx="693.09" cy="-18" rx="54.69" ry="18"/>
<text text-anchor="middle" x="693.09" y="-14.3" font-family="Times New Roman,serif" font-size="14.00">it consultant</text>
</a>
</g>
</g>
<!-- 1&#45;&gt;8 -->
<g id="edge15" class="edge">
<title>1&#45;&gt;8</title>
<path fill="none" stroke="black" d="M541.81,-87.85C558.85,-77.5 581.88,-64.15 603.09,-54 617.23,-47.24 633.03,-40.75 647.41,-35.24"/>
<polygon fill="black" stroke="black" points="648.97,-38.39 657.09,-31.58 646.5,-31.84 648.97,-38.39"/>
<text text-anchor="middle" x="618.59" y="-57.8" font-family="Times New Roman,serif" font-size="14.00">0.022</text>
</g>
<!-- 9 -->
<g id="node10" class="node">
<title>9</title>
<g id="a_node10"><a xlink:href="brand manager.svg" xlink:title="brand manager">
<ellipse fill="none" stroke="black" cx="830.09" cy="-18" rx="64.19" ry="18"/>
<text text-anchor="middle" x="830.09" y="-14.3" font-family="Times New Roman,serif" font-size="14.00">brand manager</text>
</a>
</g>
</g>
<!-- 1&#45;&gt;9 -->
<g id="edge17" class="edge">
<title>1&#45;&gt;9</title>
<path fill="none" stroke="black" d="M578.95,-93.88C612.77,-87.84 655.03,-79.33 692.09,-69 709.8,-64.06 751.37,-48.81 784.29,-36.44"/>
<polygon fill="black" stroke="black" points="785.63,-39.68 793.75,-32.87 783.16,-33.12 785.63,-39.68"/>
<text text-anchor="middle" x="750.59" y="-57.8" font-family="Times New Roman,serif" font-size="14.00">0.020</text>
</g>
<!-- 10 -->
<g id="node11" class="node">
<title>10</title>
<g id="a_node11"><a xlink:href="pharmacovigilance officer.svg" xlink:title="pharmacovigilance officer">
<ellipse fill="none" stroke="black" cx="1017.09" cy="-18" rx="104.78" ry="18"/>
<text text-anchor="middle" x="1017.09" y="-14.3" font-family="Times New Roman,serif" font-size="14.00">pharmacovigilance officer</text>
</a>
</g>
</g>
<!-- 1&#45;&gt;10 -->
<g id="edge18" class="edge">
<title>1&#45;&gt;10</title>
<path fill="none" stroke="black" d="M590.55,-98.81C654.26,-93.62 748.22,-84.19 829.09,-69 872.94,-60.77 921.58,-47.72 958.41,-37.02"/>
<polygon fill="black" stroke="black" points="959.86,-40.24 968.47,-34.07 957.89,-33.52 959.86,-40.24"/>
<text text-anchor="middle" x="906.59" y="-57.8" font-family="Times New Roman,serif" font-size="14.00">0.020</text>
</g>
<!-- 11 -->
<g id="node12" class="node">
<title>11</title>
<g id="a_node12"><a xlink:href="secretary.svg" xlink:title="secretary">
<ellipse fill="none" stroke="black" cx="1183.09" cy="-18" rx="43.59" ry="18"/>
<text text-anchor="middle" x="1183.09" y="-14.3" font-family="Times New Roman,serif" font-size="14.00">secretary</text>
</a>
</g>
</g>
<!-- 1&#45;&gt;11 -->
<g id="edge19" class="edge">
<title>1&#45;&gt;11</title>
<path fill="none" stroke="black" d="M594.38,-101.72C712.31,-96.87 941.87,-81.86 1131.09,-36 1134.47,-35.18 1137.95,-34.25 1141.43,-33.25"/>
<polygon fill="black" stroke="black" points="1142.58,-36.56 1151.14,-30.31 1140.56,-29.86 1142.58,-36.56"/>
<text text-anchor="middle" x="1047.59" y="-57.8" font-family="Times New Roman,serif" font-size="14.00">0.020</text>
</g>
<!-- 2&#45;&gt;1 -->
<g id="edge2" class="edge">
<title>2&#45;&gt;1</title>
<path fill="none" stroke="black" d="M95.73,-32.93C125.56,-44.37 170.01,-60.09 210.09,-69 283.39,-85.3 368.36,-94.25 430.13,-99.01"/>
<polygon fill="black" stroke="black" points="429.99,-102.51 440.22,-99.76 430.51,-95.53 429.99,-102.51"/>
<text text-anchor="middle" x="225.59" y="-57.8" font-family="Times New Roman,serif" font-size="14.00">0.064</text>
</g>
<!-- 3&#45;&gt;1 -->
<g id="edge3" class="edge">
<title>3&#45;&gt;1</title>
<path fill="none" stroke="black" d="M244.94,-33.46C272.74,-44.29 312.43,-58.92 348.09,-69 379.52,-77.88 414.83,-85.57 444.94,-91.46"/>
<polygon fill="black" stroke="black" points="444.46,-94.94 454.94,-93.39 445.79,-88.06 444.46,-94.94"/>
<text text-anchor="middle" x="363.59" y="-57.8" font-family="Times New Roman,serif" font-size="14.00">0.027</text>
</g>
<!-- 4 -->
<g id="node5" class="node">
<title>4</title>
<g id="a_node5"><a xlink:href="advertising copywriter.svg" xlink:title="advertising copywriter">
<ellipse fill="none" stroke="black" cx="554.09" cy="-192" rx="90.98" ry="18"/>
<text text-anchor="middle" x="554.09" y="-188.3" font-family="Times New Roman,serif" font-size="14.00">advertising copywriter</text>
</a>
</g>
</g>
<!-- 4&#45;&gt;1 -->
<g id="edge4" class="edge">
<title>4&#45;&gt;1</title>
<path fill="none" stroke="black" d="M546.4,-173.8C541.1,-161.93 533.94,-145.93 527.92,-132.45"/>
<polygon fill="black" stroke="black" points="531.05,-130.88 523.77,-123.18 524.66,-133.73 531.05,-130.88"/>
<text text-anchor="middle" x="553.59" y="-144.8" font-family="Times New Roman,serif" font-size="14.00">0.022</text>
</g>
<!-- 5&#45;&gt;1 -->
<g id="edge5" class="edge">
<title>5&#45;&gt;1</title>
<path fill="none" stroke="black" d="M393.83,-34.78C411.15,-44.63 433.91,-57.57 454.09,-69 462.23,-73.61 470.97,-78.55 479.25,-83.22"/>
<polygon fill="black" stroke="black" points="477.57,-86.29 488,-88.16 481.01,-80.2 477.57,-86.29"/>
<text text-anchor="middle" x="469.59" y="-57.8" font-family="Times New Roman,serif" font-size="14.00">0.018</text>
</g>
<!-- 6 -->
<g id="node7" class="node">
<title>6</title>
<g id="a_node7"><a xlink:href="market research analyst.svg" xlink:title="market research analyst">
<ellipse fill="none" stroke="black" cx="758.09" cy="-192" rx="94.78" ry="18"/>
<text text-anchor="middle" x="758.09" y="-188.3" font-family="Times New Roman,serif" font-size="14.00">market research analyst</text>
</a>
</g>
</g>
<!-- 6&#45;&gt;1 -->
<g id="edge6" class="edge">
<title>6&#45;&gt;1</title>
<path fill="none" stroke="black" d="M715.11,-175.9C673.69,-161.35 611.02,-139.34 567.09,-123.91"/>
<polygon fill="black" stroke="black" points="568.06,-120.54 557.47,-120.53 565.74,-127.15 568.06,-120.54"/>
<text text-anchor="middle" x="666.59" y="-144.8" font-family="Times New Roman,serif" font-size="14.00">0.018</text>
</g>
<!-- 7&#45;&gt;1 -->
<g id="edge7" class="edge">
<title>7&#45;&gt;1</title>
<path fill="none" stroke="black" d="M532.85,-36.18C529.98,-47.81 526.12,-63.42 522.83,-76.73"/>
<polygon fill="black" stroke="black" points="519.34,-76.25 520.34,-86.8 526.14,-77.93 519.34,-76.25"/>
<text text-anchor="middle" x="543.59" y="-57.8" font-family="Times New Roman,serif" font-size="14.00">0.018</text>
</g>
<!-- 8&#45;&gt;1 -->
<g id="edge8" class="edge">
<title>8&#45;&gt;1</title>
<path fill="none" stroke="black" d="M678.72,-35.55C668.42,-46.48 653.65,-60.33 638.09,-69 621.77,-78.1 602.88,-85.01 584.91,-90.18"/>
<polygon fill="black" stroke="black" points="583.76,-86.87 575.04,-92.88 585.61,-93.62 583.76,-86.87"/>
<text text-anchor="middle" x="672.59" y="-57.8" font-family="Times New Roman,serif" font-size="14.00">0.016</text>
</g>
<!-- 9&#45;&gt;1 -->
<g id="edge9" class="edge">
<title>9&#45;&gt;1</title>
<path fill="none" stroke="black" d="M815.61,-35.78C804.82,-47.11 789.06,-61.35 772.09,-69 742.22,-82.47 663.05,-91.97 600.59,-97.64"/>
<polygon fill="black" stroke="black" points="599.98,-94.18 590.32,-98.55 600.6,-101.15 599.98,-94.18"/>
<text text-anchor="middle" x="809.59" y="-57.8" font-family="Times New Roman,serif" font-size="14.00">0.014</text>
</g>
</g>
</svg>
