<?xml version="1.0" encoding="UTF-8" standalone="no"?>
<!DOCTYPE svg PUBLIC "-//W3C//DTD SVG 1.1//EN"
 "http://www.w3.org/Graphics/SVG/1.1/DTD/svg11.dtd">
<!-- Generated by graphviz version 2.44.1 (20200629.0800)
 -->
<!-- Title: market_research_analyst Pages: 1 -->
<svg width="1140pt" height="218pt"
 viewBox="0.00 0.00 1140.49 218.00" xmlns="http://www.w3.org/2000/svg" xmlns:xlink="http://www.w3.org/1999/xlink">
<g id="graph0" class="graph" transform="scale(1 1) rotate(0) translate(4 214)">
<title>market_research_analyst</title>
<polygon fill="white" stroke="transparent" points="-4,4 -4,-214 1136.49,-214 1136.49,4 -4,4"/>
<!-- 0 -->
<g id="node1" class="node">
<title>0</title>
<g id="a_node1"><a xlink:href="investment analyst.svg" xlink:title="investment analyst">
<ellipse fill="none" stroke="black" cx="434.6" cy="-192" rx="76.89" ry="18"/>
<text text-anchor="middle" x="434.6" y="-188.3" font-family="Times New Roman,serif" font-size="14.00">investment analyst</text>
</a>
</g>
</g>
<!-- 1 -->
<g id="node2" class="node">
<title>1</title>
<g id="a_node2"><a xlink:href="market research analyst.svg" xlink:title="market research analyst">
<ellipse fill="none" stroke="black" cx="488.6" cy="-105" rx="94.78" ry="18"/>
<text text-anchor="middle" x="488.6" y="-101.3" font-family="Times New Roman,serif" font-size="14.00">market research analyst</text>
</a>
</g>
</g>
<!-- 0&#45;&gt;1 -->
<g id="edge1" class="edge">
<title>0&#45;&gt;1</title>
<path fill="none" stroke="black" d="M431.13,-173.77C429.98,-163.63 430.15,-150.89 435.6,-141 438.26,-136.17 441.9,-131.89 446.04,-128.14"/>
<polygon fill="black" stroke="black" points="448.23,-130.86 453.92,-121.93 443.9,-125.36 448.23,-130.86"/>
<text text-anchor="middle" x="451.1" y="-144.8" font-family="Times New Roman,serif" font-size="14.00">0.071</text>
</g>
<!-- 1&#45;&gt;0 -->
<g id="edge11" class="edge">
<title>1&#45;&gt;0</title>
<path fill="none" stroke="black" d="M482.57,-123.37C478.72,-133.33 473.22,-145.83 466.6,-156 464.27,-159.57 461.58,-163.13 458.76,-166.53"/>
<polygon fill="black" stroke="black" points="456.05,-164.31 452.08,-174.12 461.31,-168.93 456.05,-164.31"/>
<text text-anchor="middle" x="491.1" y="-144.8" font-family="Times New Roman,serif" font-size="14.00">0.115</text>
</g>
<!-- 1&#45;&gt;1 -->
<g id="edge10" class="edge">
<title>1&#45;&gt;1</title>
<path fill="none" stroke="black" d="M575.21,-112.41C590.68,-111.45 601.49,-108.98 601.49,-105 601.49,-101.95 595.15,-99.79 585.24,-98.51"/>
<polygon fill="black" stroke="black" points="585.49,-95.02 575.21,-97.59 584.85,-101.99 585.49,-95.02"/>
<text text-anchor="middle" x="616.99" y="-101.3" font-family="Times New Roman,serif" font-size="14.00">0.143</text>
</g>
<!-- 2 -->
<g id="node3" class="node">
<title>2</title>
<g id="a_node3"><a xlink:href="it consultant.svg" xlink:title="it consultant">
<ellipse fill="none" stroke="black" cx="54.6" cy="-18" rx="54.69" ry="18"/>
<text text-anchor="middle" x="54.6" y="-14.3" font-family="Times New Roman,serif" font-size="14.00">it consultant</text>
</a>
</g>
</g>
<!-- 1&#45;&gt;2 -->
<g id="edge13" class="edge">
<title>1&#45;&gt;2</title>
<path fill="none" stroke="black" d="M393.4,-104.76C292.04,-104 139.5,-97.82 89.6,-69 79.96,-63.44 72.34,-54.02 66.71,-44.86"/>
<polygon fill="black" stroke="black" points="69.65,-42.96 61.73,-35.92 63.54,-46.36 69.65,-42.96"/>
<text text-anchor="middle" x="105.1" y="-57.8" font-family="Times New Roman,serif" font-size="14.00">0.071</text>
</g>
<!-- 3 -->
<g id="node4" class="node">
<title>3</title>
<g id="a_node4"><a xlink:href="qa analyst.svg" xlink:title="qa analyst">
<ellipse fill="none" stroke="black" cx="173.6" cy="-18" rx="46.59" ry="18"/>
<text text-anchor="middle" x="173.6" y="-14.3" font-family="Times New Roman,serif" font-size="14.00">qa analyst</text>
</a>
</g>
</g>
<!-- 1&#45;&gt;3 -->
<g id="edge14" class="edge">
<title>1&#45;&gt;3</title>
<path fill="none" stroke="black" d="M398.77,-99.2C332.3,-94.39 248.22,-85.29 217.6,-69 206.65,-63.18 197.16,-53.47 189.82,-44.14"/>
<polygon fill="black" stroke="black" points="192.44,-41.8 183.71,-35.81 186.8,-45.95 192.44,-41.8"/>
<text text-anchor="middle" x="233.1" y="-57.8" font-family="Times New Roman,serif" font-size="14.00">0.071</text>
</g>
<!-- 4 -->
<g id="node5" class="node">
<title>4</title>
<g id="a_node5"><a xlink:href="project manager.svg" xlink:title="project manager">
<ellipse fill="none" stroke="black" cx="307.6" cy="-18" rx="68.79" ry="18"/>
<text text-anchor="middle" x="307.6" y="-14.3" font-family="Times New Roman,serif" font-size="14.00">project manager</text>
</a>
</g>
</g>
<!-- 1&#45;&gt;4 -->
<g id="edge12" class="edge">
<title>1&#45;&gt;4</title>
<path fill="none" stroke="black" d="M407.08,-95.67C384.44,-90.52 360.82,-82.25 341.6,-69 332.87,-62.99 325.74,-53.94 320.31,-45.19"/>
<polygon fill="black" stroke="black" points="323.24,-43.28 315.26,-36.32 317.16,-46.74 323.24,-43.28"/>
<text text-anchor="middle" x="357.1" y="-57.8" font-family="Times New Roman,serif" font-size="14.00">0.100</text>
</g>
<!-- 6 -->
<g id="node7" class="node">
<title>6</title>
<g id="a_node7"><a xlink:href="financial manager.svg" xlink:title="financial manager">
<ellipse fill="none" stroke="black" cx="467.6" cy="-18" rx="73.39" ry="18"/>
<text text-anchor="middle" x="467.6" y="-14.3" font-family="Times New Roman,serif" font-size="14.00">financial manager</text>
</a>
</g>
</g>
<!-- 1&#45;&gt;6 -->
<g id="edge18" class="edge">
<title>1&#45;&gt;6</title>
<path fill="none" stroke="black" d="M458.8,-87.69C452.28,-82.61 446.25,-76.37 442.6,-69 438.59,-60.91 440.79,-52.1 445.22,-44.16"/>
<polygon fill="black" stroke="black" points="448.27,-45.9 450.96,-35.65 442.47,-41.99 448.27,-45.9"/>
<text text-anchor="middle" x="458.1" y="-57.8" font-family="Times New Roman,serif" font-size="14.00">0.021</text>
</g>
<!-- 7 -->
<g id="node8" class="node">
<title>7</title>
<g id="a_node8"><a xlink:href="lecturer.svg" xlink:title="lecturer">
<ellipse fill="none" stroke="black" cx="596.6" cy="-18" rx="37.89" ry="18"/>
<text text-anchor="middle" x="596.6" y="-14.3" font-family="Times New Roman,serif" font-size="14.00">lecturer</text>
</a>
</g>
</g>
<!-- 1&#45;&gt;7 -->
<g id="edge19" class="edge">
<title>1&#45;&gt;7</title>
<path fill="none" stroke="black" d="M504.27,-86.8C513.94,-76.66 526.89,-63.92 539.6,-54 547.19,-48.07 555.85,-42.3 564.09,-37.22"/>
<polygon fill="black" stroke="black" points="566.02,-40.15 572.79,-32 562.41,-34.15 566.02,-40.15"/>
<text text-anchor="middle" x="555.1" y="-57.8" font-family="Times New Roman,serif" font-size="14.00">0.021</text>
</g>
<!-- 8 -->
<g id="node9" class="node">
<title>8</title>
<g id="a_node9"><a xlink:href="marketing assistant.svg" xlink:title="marketing assistant">
<ellipse fill="none" stroke="black" cx="731.6" cy="-18" rx="79.09" ry="18"/>
<text text-anchor="middle" x="731.6" y="-14.3" font-family="Times New Roman,serif" font-size="14.00">marketing assistant</text>
</a>
</g>
</g>
<!-- 1&#45;&gt;8 -->
<g id="edge15" class="edge">
<title>1&#45;&gt;8</title>
<path fill="none" stroke="black" d="M546.26,-90.7C569.32,-84.84 595.96,-77.37 619.6,-69 643.79,-60.43 670.03,-48.84 691.03,-38.98"/>
<polygon fill="black" stroke="black" points="692.75,-42.04 700.28,-34.59 689.74,-35.72 692.75,-42.04"/>
<text text-anchor="middle" x="672.1" y="-57.8" font-family="Times New Roman,serif" font-size="14.00">0.064</text>
</g>
<!-- 9 -->
<g id="node10" class="node">
<title>9</title>
<g id="a_node10"><a xlink:href="sales manager.svg" xlink:title="sales manager">
<ellipse fill="none" stroke="black" cx="889.6" cy="-18" rx="61.19" ry="18"/>
<text text-anchor="middle" x="889.6" y="-14.3" font-family="Times New Roman,serif" font-size="14.00">sales manager</text>
</a>
</g>
</g>
<!-- 1&#45;&gt;9 -->
<g id="edge16" class="edge">
<title>1&#45;&gt;9</title>
<path fill="none" stroke="black" d="M572.61,-96.6C622.7,-91.17 687.29,-82.37 743.6,-69 748.66,-67.8 801.46,-49.6 842.13,-35.5"/>
<polygon fill="black" stroke="black" points="843.34,-38.79 851.64,-32.2 841.05,-32.17 843.34,-38.79"/>
<text text-anchor="middle" x="801.1" y="-57.8" font-family="Times New Roman,serif" font-size="14.00">0.064</text>
</g>
<!-- 10 -->
<g id="node11" class="node">
<title>10</title>
<g id="a_node11"><a xlink:href="marketing executive.svg" xlink:title="marketing executive">
<ellipse fill="none" stroke="black" cx="1050.6" cy="-18" rx="81.79" ry="18"/>
<text text-anchor="middle" x="1050.6" y="-14.3" font-family="Times New Roman,serif" font-size="14.00">marketing executive</text>
</a>
</g>
</g>
<!-- 1&#45;&gt;10 -->
<g id="edge17" class="edge">
<title>1&#45;&gt;10</title>
<path fill="none" stroke="black" d="M581.51,-101.07C662.03,-97.28 781.33,-88.63 883.6,-69 923.46,-61.35 967.39,-47.99 1000.19,-37"/>
<polygon fill="black" stroke="black" points="1001.65,-40.21 1009.99,-33.68 999.4,-33.58 1001.65,-40.21"/>
<text text-anchor="middle" x="959.1" y="-57.8" font-family="Times New Roman,serif" font-size="14.00">0.028</text>
</g>
<!-- 2&#45;&gt;1 -->
<g id="edge2" class="edge">
<title>2&#45;&gt;1</title>
<path fill="none" stroke="black" d="M80.82,-33.81C102.56,-45.37 134.65,-60.81 164.6,-69 236.6,-88.7 320.44,-97.39 384.8,-101.19"/>
<polygon fill="black" stroke="black" points="384.78,-104.69 394.96,-101.76 385.17,-97.7 384.78,-104.69"/>
<text text-anchor="middle" x="180.1" y="-57.8" font-family="Times New Roman,serif" font-size="14.00">0.052</text>
</g>
<!-- 3&#45;&gt;1 -->
<g id="edge3" class="edge">
<title>3&#45;&gt;1</title>
<path fill="none" stroke="black" d="M201.08,-32.74C224.59,-43.98 259.6,-59.51 291.6,-69 326.91,-79.47 366.76,-87.27 401.34,-92.82"/>
<polygon fill="black" stroke="black" points="401,-96.31 411.42,-94.4 402.08,-89.39 401,-96.31"/>
<text text-anchor="middle" x="307.1" y="-57.8" font-family="Times New Roman,serif" font-size="14.00">0.052</text>
</g>
<!-- 4&#45;&gt;1 -->
<g id="edge4" class="edge">
<title>4&#45;&gt;1</title>
<path fill="none" stroke="black" d="M336.48,-34.44C355.86,-44.62 382.04,-58.04 405.6,-69 416.78,-74.2 428.96,-79.53 440.45,-84.4"/>
<polygon fill="black" stroke="black" points="439.33,-87.72 449.91,-88.37 442.05,-81.27 439.33,-87.72"/>
<text text-anchor="middle" x="421.1" y="-57.8" font-family="Times New Roman,serif" font-size="14.00">0.039</text>
</g>
<!-- 5 -->
<g id="node6" class="node">
<title>5</title>
<g id="a_node6"><a xlink:href="public affairs consultant.svg" xlink:title="public affairs consultant">
<ellipse fill="none" stroke="black" cx="626.6" cy="-192" rx="97.48" ry="18"/>
<text text-anchor="middle" x="626.6" y="-188.3" font-family="Times New Roman,serif" font-size="14.00">public affairs consultant</text>
</a>
</g>
</g>
<!-- 5&#45;&gt;1 -->
<g id="edge5" class="edge">
<title>5&#45;&gt;1</title>
<path fill="none" stroke="black" d="M599.99,-174.61C578.32,-161.26 547.54,-142.31 523.83,-127.7"/>
<polygon fill="black" stroke="black" points="525.47,-124.6 515.12,-122.34 521.8,-130.56 525.47,-124.6"/>
<text text-anchor="middle" x="581.1" y="-144.8" font-family="Times New Roman,serif" font-size="14.00">0.039</text>
</g>
<!-- 6&#45;&gt;1 -->
<g id="edge6" class="edge">
<title>6&#45;&gt;1</title>
<path fill="none" stroke="black" d="M471.84,-36.18C474.71,-47.81 478.57,-63.42 481.86,-76.73"/>
<polygon fill="black" stroke="black" points="478.55,-77.93 484.35,-86.8 485.34,-76.25 478.55,-77.93"/>
<text text-anchor="middle" x="495.1" y="-57.8" font-family="Times New Roman,serif" font-size="14.00">0.032</text>
</g>
<!-- 7&#45;&gt;1 -->
<g id="edge7" class="edge">
<title>7&#45;&gt;1</title>
<path fill="none" stroke="black" d="M592.58,-36.21C589.31,-46.86 583.71,-60.14 574.6,-69 567.73,-75.67 559.43,-81.13 550.72,-85.58"/>
<polygon fill="black" stroke="black" points="549.12,-82.47 541.54,-89.87 552.08,-88.81 549.12,-82.47"/>
<text text-anchor="middle" x="600.1" y="-57.8" font-family="Times New Roman,serif" font-size="14.00">0.032</text>
</g>
<!-- 8&#45;&gt;1 -->
<g id="edge8" class="edge">
<title>8&#45;&gt;1</title>
<path fill="none" stroke="black" d="M722.69,-36.1C715.95,-47.28 705.63,-61.2 692.6,-69 673.6,-80.36 625.65,-88.89 581.01,-94.69"/>
<polygon fill="black" stroke="black" points="580.44,-91.23 570.95,-95.96 581.31,-98.18 580.44,-91.23"/>
<text text-anchor="middle" x="724.1" y="-57.8" font-family="Times New Roman,serif" font-size="14.00">0.032</text>
</g>
<!-- 9&#45;&gt;1 -->
<g id="edge9" class="edge">
<title>9&#45;&gt;1</title>
<path fill="none" stroke="black" d="M873.28,-35.45C860.81,-46.94 842.58,-61.5 823.6,-69 782.42,-85.27 672.73,-94.54 590,-99.39"/>
<polygon fill="black" stroke="black" points="589.58,-95.91 579.8,-99.98 589.98,-102.9 589.58,-95.91"/>
<text text-anchor="middle" x="864.1" y="-57.8" font-family="Times New Roman,serif" font-size="14.00">0.032</text>
</g>
</g>
</svg>
