<?xml version="1.0" encoding="UTF-8" standalone="no"?>
<!DOCTYPE svg PUBLIC "-//W3C//DTD SVG 1.1//EN"
 "http://www.w3.org/Graphics/SVG/1.1/DTD/svg11.dtd">
<!-- Generated by graphviz version 2.44.1 (20200629.0800)
 -->
<!-- Title: marketing_executive Pages: 1 -->
<svg width="1290pt" height="218pt"
 viewBox="0.00 0.00 1289.59 218.00" xmlns="http://www.w3.org/2000/svg" xmlns:xlink="http://www.w3.org/1999/xlink">
<g id="graph0" class="graph" transform="scale(1 1) rotate(0) translate(4 214)">
<title>marketing_executive</title>
<polygon fill="white" stroke="transparent" points="-4,4 -4,-214 1285.59,-214 1285.59,4 -4,4"/>
<!-- 0 -->
<g id="node1" class="node">
<title>0</title>
<g id="a_node1"><a xlink:href="marketing assistant.svg" xlink:title="marketing assistant">
<ellipse fill="none" stroke="black" cx="378.09" cy="-192" rx="79.09" ry="18"/>
<text text-anchor="middle" x="378.09" y="-188.3" font-family="Times New Roman,serif" font-size="14.00">marketing assistant</text>
</a>
</g>
</g>
<!-- 1 -->
<g id="node2" class="node">
<title>1</title>
<g id="a_node2"><a xlink:href="marketing executive.svg" xlink:title="marketing executive">
<ellipse fill="none" stroke="black" cx="503.09" cy="-105" rx="81.79" ry="18"/>
<text text-anchor="middle" x="503.09" y="-101.3" font-family="Times New Roman,serif" font-size="14.00">marketing executive</text>
</a>
</g>
</g>
<!-- 0&#45;&gt;1 -->
<g id="edge1" class="edge">
<title>0&#45;&gt;1</title>
<path fill="none" stroke="black" d="M388.21,-173.82C395.19,-163.18 405.33,-149.9 417.09,-141 426.14,-134.16 436.72,-128.43 447.29,-123.73"/>
<polygon fill="black" stroke="black" points="448.68,-126.94 456.55,-119.85 445.98,-120.48 448.68,-126.94"/>
<text text-anchor="middle" x="432.59" y="-144.8" font-family="Times New Roman,serif" font-size="14.00">0.149</text>
</g>
<!-- 1&#45;&gt;0 -->
<g id="edge11" class="edge">
<title>1&#45;&gt;0</title>
<path fill="none" stroke="black" d="M486.77,-123.05C476.33,-133.38 462.15,-146.37 448.09,-156 440.11,-161.47 431.15,-166.61 422.37,-171.17"/>
<polygon fill="black" stroke="black" points="420.7,-168.1 413.34,-175.71 423.84,-174.35 420.7,-168.1"/>
<text text-anchor="middle" x="481.59" y="-144.8" font-family="Times New Roman,serif" font-size="14.00">0.164</text>
</g>
<!-- 1&#45;&gt;1 -->
<g id="edge10" class="edge">
<title>1&#45;&gt;1</title>
<path fill="none" stroke="black" d="M577.59,-112.55C592.42,-111.7 602.99,-109.18 602.99,-105 602.99,-101.86 597.04,-99.66 587.81,-98.4"/>
<polygon fill="black" stroke="black" points="587.87,-94.89 577.59,-97.45 587.22,-101.86 587.87,-94.89"/>
<text text-anchor="middle" x="618.49" y="-101.3" font-family="Times New Roman,serif" font-size="14.00">0.424</text>
</g>
<!-- 2 -->
<g id="node3" class="node">
<title>2</title>
<g id="a_node3"><a xlink:href="sales manager.svg" xlink:title="sales manager">
<ellipse fill="none" stroke="black" cx="61.09" cy="-18" rx="61.19" ry="18"/>
<text text-anchor="middle" x="61.09" y="-14.3" font-family="Times New Roman,serif" font-size="14.00">sales manager</text>
</a>
</g>
</g>
<!-- 1&#45;&gt;2 -->
<g id="edge12" class="edge">
<title>1&#45;&gt;2</title>
<path fill="none" stroke="black" d="M421.68,-102.89C324.13,-100.49 167.19,-92.9 114.09,-69 101.35,-63.26 89.74,-53.17 80.65,-43.54"/>
<polygon fill="black" stroke="black" points="83.2,-41.15 73.93,-36.02 77.98,-45.81 83.2,-41.15"/>
<text text-anchor="middle" x="129.59" y="-57.8" font-family="Times New Roman,serif" font-size="14.00">0.102</text>
</g>
<!-- 3 -->
<g id="node4" class="node">
<title>3</title>
<g id="a_node4"><a xlink:href="brand manager.svg" xlink:title="brand manager">
<ellipse fill="none" stroke="black" cx="204.09" cy="-18" rx="64.19" ry="18"/>
<text text-anchor="middle" x="204.09" y="-14.3" font-family="Times New Roman,serif" font-size="14.00">brand manager</text>
</a>
</g>
</g>
<!-- 1&#45;&gt;3 -->
<g id="edge18" class="edge">
<title>1&#45;&gt;3</title>
<path fill="none" stroke="black" d="M426.33,-98.69C364.31,-93.4 282.64,-83.91 253.09,-69 241.23,-63.01 230.55,-53.01 222.22,-43.52"/>
<polygon fill="black" stroke="black" points="224.88,-41.24 215.8,-35.77 219.49,-45.71 224.88,-41.24"/>
<text text-anchor="middle" x="268.59" y="-57.8" font-family="Times New Roman,serif" font-size="14.00">0.026</text>
</g>
<!-- 4 -->
<g id="node5" class="node">
<title>4</title>
<g id="a_node5"><a xlink:href="it consultant.svg" xlink:title="it consultant">
<ellipse fill="none" stroke="black" cx="341.09" cy="-18" rx="54.69" ry="18"/>
<text text-anchor="middle" x="341.09" y="-14.3" font-family="Times New Roman,serif" font-size="14.00">it consultant</text>
</a>
</g>
</g>
<!-- 1&#45;&gt;4 -->
<g id="edge13" class="edge">
<title>1&#45;&gt;4</title>
<path fill="none" stroke="black" d="M437.23,-94.13C417.02,-88.93 395.54,-81.02 378.09,-69 369.02,-62.75 361.31,-53.54 355.31,-44.73"/>
<polygon fill="black" stroke="black" points="358.2,-42.75 349.89,-36.17 352.28,-46.49 358.2,-42.75"/>
<text text-anchor="middle" x="393.59" y="-57.8" font-family="Times New Roman,serif" font-size="14.00">0.045</text>
</g>
<!-- 5 -->
<g id="node6" class="node">
<title>5</title>
<g id="a_node6"><a xlink:href="pharmacovigilance officer.svg" xlink:title="pharmacovigilance officer">
<ellipse fill="none" stroke="black" cx="518.09" cy="-18" rx="104.78" ry="18"/>
<text text-anchor="middle" x="518.09" y="-14.3" font-family="Times New Roman,serif" font-size="14.00">pharmacovigilance officer</text>
</a>
</g>
</g>
<!-- 1&#45;&gt;5 -->
<g id="edge15" class="edge">
<title>1&#45;&gt;5</title>
<path fill="none" stroke="black" d="M484.6,-87.17C476.41,-77.61 469.71,-65.32 475.09,-54 477.05,-49.88 479.76,-46.08 482.87,-42.64"/>
<polygon fill="black" stroke="black" points="485.38,-45.08 490.2,-35.65 480.55,-40.02 485.38,-45.08"/>
<text text-anchor="middle" x="490.59" y="-57.8" font-family="Times New Roman,serif" font-size="14.00">0.038</text>
</g>
<!-- 6 -->
<g id="node7" class="node">
<title>6</title>
<g id="a_node7"><a xlink:href="production manager.svg" xlink:title="production manager">
<ellipse fill="none" stroke="black" cx="724.09" cy="-18" rx="83.39" ry="18"/>
<text text-anchor="middle" x="724.09" y="-14.3" font-family="Times New Roman,serif" font-size="14.00">production manager</text>
</a>
</g>
</g>
<!-- 1&#45;&gt;6 -->
<g id="edge14" class="edge">
<title>1&#45;&gt;6</title>
<path fill="none" stroke="black" d="M529.49,-87.94C547.93,-77.23 573.4,-63.44 597.09,-54 616.72,-46.18 638.73,-39.45 658.83,-34.04"/>
<polygon fill="black" stroke="black" points="659.75,-37.42 668.53,-31.49 657.97,-30.65 659.75,-37.42"/>
<text text-anchor="middle" x="612.59" y="-57.8" font-family="Times New Roman,serif" font-size="14.00">0.042</text>
</g>
<!-- 7 -->
<g id="node8" class="node">
<title>7</title>
<g id="a_node8"><a xlink:href="content manager.svg" xlink:title="content manager">
<ellipse fill="none" stroke="black" cx="895.09" cy="-18" rx="70.39" ry="18"/>
<text text-anchor="middle" x="895.09" y="-14.3" font-family="Times New Roman,serif" font-size="14.00">content manager</text>
</a>
</g>
</g>
<!-- 1&#45;&gt;7 -->
<g id="edge17" class="edge">
<title>1&#45;&gt;7</title>
<path fill="none" stroke="black" d="M566.99,-93.71C605.17,-87.27 654.56,-78.43 698.09,-69 724.54,-63.27 730.87,-60.66 757.09,-54 783.31,-47.34 812.33,-39.98 836.96,-33.74"/>
<polygon fill="black" stroke="black" points="838.04,-37.07 846.87,-31.22 836.32,-30.29 838.04,-37.07"/>
<text text-anchor="middle" x="772.59" y="-57.8" font-family="Times New Roman,serif" font-size="14.00">0.028</text>
</g>
<!-- 10 -->
<g id="node11" class="node">
<title>10</title>
<g id="a_node11"><a xlink:href="project manager.svg" xlink:title="project manager">
<ellipse fill="none" stroke="black" cx="1052.09" cy="-18" rx="68.79" ry="18"/>
<text text-anchor="middle" x="1052.09" y="-14.3" font-family="Times New Roman,serif" font-size="14.00">project manager</text>
</a>
</g>
</g>
<!-- 1&#45;&gt;10 -->
<g id="edge16" class="edge">
<title>1&#45;&gt;10</title>
<path fill="none" stroke="black" d="M581.99,-100.13C655.67,-95.63 768.48,-86.46 865.09,-69 911.54,-60.6 963.31,-46.37 1000.58,-35.23"/>
<polygon fill="black" stroke="black" points="1001.65,-38.57 1010.21,-32.33 999.63,-31.87 1001.65,-38.57"/>
<text text-anchor="middle" x="947.59" y="-57.8" font-family="Times New Roman,serif" font-size="14.00">0.038</text>
</g>
<!-- 11 -->
<g id="node12" class="node">
<title>11</title>
<g id="a_node12"><a xlink:href="catering manager.svg" xlink:title="catering manager">
<ellipse fill="none" stroke="black" cx="1210.09" cy="-18" rx="71.49" ry="18"/>
<text text-anchor="middle" x="1210.09" y="-14.3" font-family="Times New Roman,serif" font-size="14.00">catering manager</text>
</a>
</g>
</g>
<!-- 1&#45;&gt;11 -->
<g id="edge19" class="edge">
<title>1&#45;&gt;11</title>
<path fill="none" stroke="black" d="M583.06,-100.99C675.78,-96.81 833.06,-87.55 967.09,-69 1040.31,-58.87 1057.72,-51.02 1130.09,-36 1135.79,-34.82 1141.72,-33.58 1147.66,-32.33"/>
<polygon fill="black" stroke="black" points="1148.55,-35.72 1157.61,-30.23 1147.1,-28.87 1148.55,-35.72"/>
<text text-anchor="middle" x="1063.59" y="-57.8" font-family="Times New Roman,serif" font-size="14.00">0.026</text>
</g>
<!-- 2&#45;&gt;1 -->
<g id="edge2" class="edge">
<title>2&#45;&gt;1</title>
<path fill="none" stroke="black" d="M93.65,-33.35C120.99,-44.81 161.38,-60.32 198.09,-69 269.71,-85.93 352.79,-94.78 414.14,-99.34"/>
<polygon fill="black" stroke="black" points="413.95,-102.83 424.18,-100.06 414.45,-95.85 413.95,-102.83"/>
<text text-anchor="middle" x="213.59" y="-57.8" font-family="Times New Roman,serif" font-size="14.00">0.068</text>
</g>
<!-- 3&#45;&gt;1 -->
<g id="edge3" class="edge">
<title>3&#45;&gt;1</title>
<path fill="none" stroke="black" d="M236.16,-33.71C261.07,-44.67 296.73,-59.36 329.09,-69 361.2,-78.56 397.43,-86.32 428.48,-92.07"/>
<polygon fill="black" stroke="black" points="427.9,-95.53 438.36,-93.87 429.15,-88.64 427.9,-95.53"/>
<text text-anchor="middle" x="344.59" y="-57.8" font-family="Times New Roman,serif" font-size="14.00">0.030</text>
</g>
<!-- 4&#45;&gt;1 -->
<g id="edge4" class="edge">
<title>4&#45;&gt;1</title>
<path fill="none" stroke="black" d="M368.86,-33.57C395.02,-47.3 434.48,-68 463.85,-83.41"/>
<polygon fill="black" stroke="black" points="462.52,-86.66 473,-88.21 465.77,-80.47 462.52,-86.66"/>
<text text-anchor="middle" x="447.59" y="-57.8" font-family="Times New Roman,serif" font-size="14.00">0.026</text>
</g>
<!-- 5&#45;&gt;1 -->
<g id="edge5" class="edge">
<title>5&#45;&gt;1</title>
<path fill="none" stroke="black" d="M515.06,-36.18C513.01,-47.81 510.26,-63.42 507.91,-76.73"/>
<polygon fill="black" stroke="black" points="504.42,-76.34 506.13,-86.8 511.31,-77.56 504.42,-76.34"/>
<text text-anchor="middle" x="527.59" y="-57.8" font-family="Times New Roman,serif" font-size="14.00">0.026</text>
</g>
<!-- 6&#45;&gt;1 -->
<g id="edge6" class="edge">
<title>6&#45;&gt;1</title>
<path fill="none" stroke="black" d="M698.32,-35.12C680.29,-45.86 655.38,-59.66 632.09,-69 612.1,-77.02 589.65,-83.82 569.15,-89.24"/>
<polygon fill="black" stroke="black" points="568.08,-85.9 559.26,-91.78 569.82,-92.68 568.08,-85.9"/>
<text text-anchor="middle" x="678.59" y="-57.8" font-family="Times New Roman,serif" font-size="14.00">0.021</text>
</g>
<!-- 7&#45;&gt;1 -->
<g id="edge7" class="edge">
<title>7&#45;&gt;1</title>
<path fill="none" stroke="black" d="M868.54,-34.93C848.31,-46.31 819.36,-60.97 792.09,-69 727.26,-88.08 651.31,-96.78 593.54,-100.73"/>
<polygon fill="black" stroke="black" points="593.09,-97.25 583.34,-101.39 593.54,-104.24 593.09,-97.25"/>
<text text-anchor="middle" x="845.59" y="-57.8" font-family="Times New Roman,serif" font-size="14.00">0.017</text>
</g>
<!-- 8 -->
<g id="node9" class="node">
<title>8</title>
<g id="a_node9"><a xlink:href="media planner.svg" xlink:title="media planner">
<ellipse fill="none" stroke="black" cx="536.09" cy="-192" rx="61.19" ry="18"/>
<text text-anchor="middle" x="536.09" y="-188.3" font-family="Times New Roman,serif" font-size="14.00">media planner</text>
</a>
</g>
</g>
<!-- 8&#45;&gt;1 -->
<g id="edge8" class="edge">
<title>8&#45;&gt;1</title>
<path fill="none" stroke="black" d="M529.42,-173.8C524.85,-162.05 518.72,-146.24 513.52,-132.84"/>
<polygon fill="black" stroke="black" points="516.64,-131.23 509.76,-123.18 510.12,-133.76 516.64,-131.23"/>
<text text-anchor="middle" x="537.59" y="-144.8" font-family="Times New Roman,serif" font-size="14.00">0.017</text>
</g>
<!-- 9 -->
<g id="node10" class="node">
<title>9</title>
<g id="a_node10"><a xlink:href="heritage manager.svg" xlink:title="heritage manager">
<ellipse fill="none" stroke="black" cx="687.09" cy="-192" rx="71.49" ry="18"/>
<text text-anchor="middle" x="687.09" y="-188.3" font-family="Times New Roman,serif" font-size="14.00">heritage manager</text>
</a>
</g>
</g>
<!-- 9&#45;&gt;1 -->
<g id="edge9" class="edge">
<title>9&#45;&gt;1</title>
<path fill="none" stroke="black" d="M654.2,-175.8C624,-161.85 579.06,-141.09 546.04,-125.84"/>
<polygon fill="black" stroke="black" points="547.18,-122.51 536.64,-121.5 544.25,-128.87 547.18,-122.51"/>
<text text-anchor="middle" x="621.59" y="-144.8" font-family="Times New Roman,serif" font-size="14.00">0.015</text>
</g>
</g>
</svg>
