<?xml version="1.0" encoding="UTF-8" standalone="no"?>
<!DOCTYPE svg PUBLIC "-//W3C//DTD SVG 1.1//EN"
 "http://www.w3.org/Graphics/SVG/1.1/DTD/svg11.dtd">
<!-- Generated by graphviz version 2.44.1 (20200629.0800)
 -->
<!-- Title: materials_specialist Pages: 1 -->
<svg width="1289pt" height="218pt"
 viewBox="0.00 0.00 1289.23 218.00" xmlns="http://www.w3.org/2000/svg" xmlns:xlink="http://www.w3.org/1999/xlink">
<g id="graph0" class="graph" transform="scale(1 1) rotate(0) translate(4 214)">
<title>materials_specialist</title>
<polygon fill="white" stroke="transparent" points="-4,4 -4,-214 1285.23,-214 1285.23,4 -4,4"/>
<!-- 0 -->
<g id="node1" class="node">
<title>0</title>
<g id="a_node1"><a xlink:href="it consultant.svg" xlink:title="it consultant">
<ellipse fill="none" stroke="black" cx="238.64" cy="-192" rx="54.69" ry="18"/>
<text text-anchor="middle" x="238.64" y="-188.3" font-family="Times New Roman,serif" font-size="14.00">it consultant</text>
</a>
</g>
</g>
<!-- 1 -->
<g id="node2" class="node">
<title>1</title>
<g id="a_node2"><a xlink:href="materials specialist.svg" xlink:title="materials specialist">
<ellipse fill="none" stroke="black" cx="524.64" cy="-105" rx="77.99" ry="18"/>
<text text-anchor="middle" x="524.64" y="-101.3" font-family="Times New Roman,serif" font-size="14.00">materials specialist</text>
</a>
</g>
</g>
<!-- 0&#45;&gt;1 -->
<g id="edge1" class="edge">
<title>0&#45;&gt;1</title>
<path fill="none" stroke="black" d="M241.33,-173.95C244.02,-162.8 249.31,-148.89 259.64,-141 286.92,-120.17 371.13,-111.73 437.39,-108.31"/>
<polygon fill="black" stroke="black" points="437.62,-111.8 447.44,-107.82 437.28,-104.81 437.62,-111.8"/>
<text text-anchor="middle" x="275.14" y="-144.8" font-family="Times New Roman,serif" font-size="14.00">0.073</text>
</g>
<!-- 1&#45;&gt;0 -->
<g id="edge10" class="edge">
<title>1&#45;&gt;0</title>
<path fill="none" stroke="black" d="M477.88,-119.53C455.68,-125.99 428.78,-133.85 404.64,-141 365.15,-152.71 320.45,-166.18 287.39,-176.19"/>
<polygon fill="black" stroke="black" points="286.07,-172.94 277.52,-179.18 288.1,-179.63 286.07,-172.94"/>
<text text-anchor="middle" x="420.14" y="-144.8" font-family="Times New Roman,serif" font-size="14.00">0.090</text>
</g>
<!-- 1&#45;&gt;1 -->
<g id="edge11" class="edge">
<title>1&#45;&gt;1</title>
<path fill="none" stroke="black" d="M595.38,-112.6C610.07,-111.8 620.63,-109.27 620.63,-105 620.63,-101.8 614.69,-99.58 605.53,-98.33"/>
<polygon fill="black" stroke="black" points="605.66,-94.82 595.38,-97.4 605.03,-101.8 605.66,-94.82"/>
<text text-anchor="middle" x="636.13" y="-101.3" font-family="Times New Roman,serif" font-size="14.00">0.071</text>
</g>
<!-- 2 -->
<g id="node3" class="node">
<title>2</title>
<g id="a_node3"><a xlink:href="pharmacovigilance officer.svg" xlink:title="pharmacovigilance officer">
<ellipse fill="none" stroke="black" cx="104.64" cy="-18" rx="104.78" ry="18"/>
<text text-anchor="middle" x="104.64" y="-14.3" font-family="Times New Roman,serif" font-size="14.00">pharmacovigilance officer</text>
</a>
</g>
</g>
<!-- 1&#45;&gt;2 -->
<g id="edge14" class="edge">
<title>1&#45;&gt;2</title>
<path fill="none" stroke="black" d="M446.64,-103.39C380.45,-101.02 283.6,-93.16 202.64,-69 180.66,-62.44 157.74,-51.04 139.6,-40.77"/>
<polygon fill="black" stroke="black" points="140.98,-37.53 130.58,-35.54 137.47,-43.59 140.98,-37.53"/>
<text text-anchor="middle" x="218.14" y="-57.8" font-family="Times New Roman,serif" font-size="14.00">0.032</text>
</g>
<!-- 5 -->
<g id="node6" class="node">
<title>5</title>
<g id="a_node6"><a xlink:href="software developer.svg" xlink:title="software developer">
<ellipse fill="none" stroke="black" cx="307.64" cy="-18" rx="79.89" ry="18"/>
<text text-anchor="middle" x="307.64" y="-14.3" font-family="Times New Roman,serif" font-size="14.00">software developer</text>
</a>
</g>
</g>
<!-- 1&#45;&gt;5 -->
<g id="edge12" class="edge">
<title>1&#45;&gt;5</title>
<path fill="none" stroke="black" d="M452.44,-98.1C421.8,-93.31 386.56,-84.65 357.64,-69 346,-62.7 335.3,-52.84 326.8,-43.53"/>
<polygon fill="black" stroke="black" points="329.41,-41.2 320.22,-35.94 324.13,-45.79 329.41,-41.2"/>
<text text-anchor="middle" x="373.14" y="-57.8" font-family="Times New Roman,serif" font-size="14.00">0.045</text>
</g>
<!-- 8 -->
<g id="node9" class="node">
<title>8</title>
<g id="a_node9"><a xlink:href="careers adviser.svg" xlink:title="careers adviser">
<ellipse fill="none" stroke="black" cx="470.64" cy="-18" rx="64.99" ry="18"/>
<text text-anchor="middle" x="470.64" y="-14.3" font-family="Times New Roman,serif" font-size="14.00">careers adviser</text>
</a>
</g>
</g>
<!-- 1&#45;&gt;8 -->
<g id="edge19" class="edge">
<title>1&#45;&gt;8</title>
<path fill="none" stroke="black" d="M487.88,-88.99C479.81,-83.89 472.29,-77.31 467.64,-69 463.85,-62.22 463.07,-54.08 463.66,-46.35"/>
<polygon fill="black" stroke="black" points="467.15,-46.65 465.16,-36.24 460.23,-45.62 467.15,-46.65"/>
<text text-anchor="middle" x="483.14" y="-57.8" font-family="Times New Roman,serif" font-size="14.00">0.025</text>
</g>
<!-- 10 -->
<g id="node11" class="node">
<title>10</title>
<g id="a_node11"><a xlink:href="investment analyst.svg" xlink:title="investment analyst">
<ellipse fill="none" stroke="black" cx="630.64" cy="-18" rx="76.89" ry="18"/>
<text text-anchor="middle" x="630.64" y="-14.3" font-family="Times New Roman,serif" font-size="14.00">investment analyst</text>
</a>
</g>
</g>
<!-- 1&#45;&gt;10 -->
<g id="edge13" class="edge">
<title>1&#45;&gt;10</title>
<path fill="none" stroke="black" d="M545.08,-87.61C561.25,-74.64 584.03,-56.38 602.02,-41.95"/>
<polygon fill="black" stroke="black" points="604.29,-44.62 609.9,-35.63 599.91,-39.15 604.29,-44.62"/>
<text text-anchor="middle" x="600.14" y="-57.8" font-family="Times New Roman,serif" font-size="14.00">0.032</text>
</g>
<!-- 11 -->
<g id="node12" class="node">
<title>11</title>
<g id="a_node12"><a xlink:href="project manager.svg" xlink:title="project manager">
<ellipse fill="none" stroke="black" cx="794.64" cy="-18" rx="68.79" ry="18"/>
<text text-anchor="middle" x="794.64" y="-14.3" font-family="Times New Roman,serif" font-size="14.00">project manager</text>
</a>
</g>
</g>
<!-- 1&#45;&gt;11 -->
<g id="edge15" class="edge">
<title>1&#45;&gt;11</title>
<path fill="none" stroke="black" d="M568.92,-90.06C616.47,-75.09 691.96,-51.33 742.38,-35.45"/>
<polygon fill="black" stroke="black" points="743.63,-38.73 752.12,-32.39 741.53,-32.05 743.63,-38.73"/>
<text text-anchor="middle" x="692.14" y="-57.8" font-family="Times New Roman,serif" font-size="14.00">0.032</text>
</g>
<!-- 12 -->
<g id="node13" class="node">
<title>12</title>
<g id="a_node13"><a xlink:href="qa analyst.svg" xlink:title="qa analyst">
<ellipse fill="none" stroke="black" cx="928.64" cy="-18" rx="46.59" ry="18"/>
<text text-anchor="middle" x="928.64" y="-14.3" font-family="Times New Roman,serif" font-size="14.00">qa analyst</text>
</a>
</g>
</g>
<!-- 1&#45;&gt;12 -->
<g id="edge16" class="edge">
<title>1&#45;&gt;12</title>
<path fill="none" stroke="black" d="M586.71,-94.01C656.67,-82.26 773.59,-61.13 872.64,-36 876.41,-35.04 880.31,-33.99 884.2,-32.9"/>
<polygon fill="black" stroke="black" points="885.2,-36.25 893.83,-30.11 883.25,-29.53 885.2,-36.25"/>
<text text-anchor="middle" x="802.14" y="-57.8" font-family="Times New Roman,serif" font-size="14.00">0.032</text>
</g>
<!-- 13 -->
<g id="node14" class="node">
<title>13</title>
<g id="a_node14"><a xlink:href="systems analyst.svg" xlink:title="systems analyst">
<ellipse fill="none" stroke="black" cx="1060.64" cy="-18" rx="67.69" ry="18"/>
<text text-anchor="middle" x="1060.64" y="-14.3" font-family="Times New Roman,serif" font-size="14.00">systems analyst</text>
</a>
</g>
</g>
<!-- 1&#45;&gt;13 -->
<g id="edge17" class="edge">
<title>1&#45;&gt;13</title>
<path fill="none" stroke="black" d="M595.38,-97.32C655.69,-91.23 744.61,-81.31 821.64,-69 894.63,-57.33 912.35,-51.4 984.64,-36 989.93,-34.87 995.42,-33.68 1000.92,-32.48"/>
<polygon fill="black" stroke="black" points="1001.79,-35.87 1010.8,-30.3 1000.28,-29.04 1001.79,-35.87"/>
<text text-anchor="middle" x="916.14" y="-57.8" font-family="Times New Roman,serif" font-size="14.00">0.032</text>
</g>
<!-- 14 -->
<g id="node15" class="node">
<title>14</title>
<g id="a_node15"><a xlink:href="technical author.svg" xlink:title="technical author">
<ellipse fill="none" stroke="black" cx="1213.64" cy="-18" rx="67.69" ry="18"/>
<text text-anchor="middle" x="1213.64" y="-14.3" font-family="Times New Roman,serif" font-size="14.00">technical author</text>
</a>
</g>
</g>
<!-- 1&#45;&gt;14 -->
<g id="edge18" class="edge">
<title>1&#45;&gt;14</title>
<path fill="none" stroke="black" d="M599.07,-99.39C681.54,-93.88 818.38,-83.55 935.64,-69 1025.92,-57.8 1048.33,-53.27 1137.64,-36 1143.03,-34.96 1148.63,-33.82 1154.23,-32.64"/>
<polygon fill="black" stroke="black" points="1155.22,-36 1164.26,-30.48 1153.75,-29.16 1155.22,-36"/>
<text text-anchor="middle" x="1055.14" y="-57.8" font-family="Times New Roman,serif" font-size="14.00">0.032</text>
</g>
<!-- 2&#45;&gt;1 -->
<g id="edge2" class="edge">
<title>2&#45;&gt;1</title>
<path fill="none" stroke="black" d="M157.29,-33.68C197.01,-44.42 252.97,-58.84 302.64,-69 350.95,-78.89 405.66,-87.54 448.68,-93.77"/>
<polygon fill="black" stroke="black" points="448.39,-97.27 458.79,-95.22 449.39,-90.34 448.39,-97.27"/>
<text text-anchor="middle" x="318.14" y="-57.8" font-family="Times New Roman,serif" font-size="14.00">0.042</text>
</g>
<!-- 3 -->
<g id="node4" class="node">
<title>3</title>
<g id="a_node4"><a xlink:href="sales manager.svg" xlink:title="sales manager">
<ellipse fill="none" stroke="black" cx="372.64" cy="-192" rx="61.19" ry="18"/>
<text text-anchor="middle" x="372.64" y="-188.3" font-family="Times New Roman,serif" font-size="14.00">sales manager</text>
</a>
</g>
</g>
<!-- 3&#45;&gt;1 -->
<g id="edge3" class="edge">
<title>3&#45;&gt;1</title>
<path fill="none" stroke="black" d="M399.82,-175.8C424.29,-162.12 460.48,-141.88 487.59,-126.72"/>
<polygon fill="black" stroke="black" points="489.39,-129.72 496.41,-121.78 485.98,-123.61 489.39,-129.72"/>
<text text-anchor="middle" x="474.14" y="-144.8" font-family="Times New Roman,serif" font-size="14.00">0.036</text>
</g>
<!-- 4 -->
<g id="node5" class="node">
<title>4</title>
<g id="a_node5"><a xlink:href="research scientist.svg" xlink:title="research scientist">
<ellipse fill="none" stroke="black" cx="524.64" cy="-192" rx="72.59" ry="18"/>
<text text-anchor="middle" x="524.64" y="-188.3" font-family="Times New Roman,serif" font-size="14.00">research scientist</text>
</a>
</g>
</g>
<!-- 4&#45;&gt;1 -->
<g id="edge4" class="edge">
<title>4&#45;&gt;1</title>
<path fill="none" stroke="black" d="M524.64,-173.8C524.64,-162.16 524.64,-146.55 524.64,-133.24"/>
<polygon fill="black" stroke="black" points="528.14,-133.18 524.64,-123.18 521.14,-133.18 528.14,-133.18"/>
<text text-anchor="middle" x="540.14" y="-144.8" font-family="Times New Roman,serif" font-size="14.00">0.030</text>
</g>
<!-- 5&#45;&gt;1 -->
<g id="edge5" class="edge">
<title>5&#45;&gt;1</title>
<path fill="none" stroke="black" d="M343.54,-34.11C367.77,-44.21 400.52,-57.67 429.64,-69 444.15,-74.64 459.99,-80.57 474.5,-85.91"/>
<polygon fill="black" stroke="black" points="473.71,-89.35 484.3,-89.5 476.12,-82.78 473.71,-89.35"/>
<text text-anchor="middle" x="445.14" y="-57.8" font-family="Times New Roman,serif" font-size="14.00">0.030</text>
</g>
<!-- 6 -->
<g id="node7" class="node">
<title>6</title>
<g id="a_node7"><a xlink:href="structural engineer.svg" xlink:title="structural engineer">
<ellipse fill="none" stroke="black" cx="691.64" cy="-192" rx="76.89" ry="18"/>
<text text-anchor="middle" x="691.64" y="-188.3" font-family="Times New Roman,serif" font-size="14.00">structural engineer</text>
</a>
</g>
</g>
<!-- 6&#45;&gt;1 -->
<g id="edge6" class="edge">
<title>6&#45;&gt;1</title>
<path fill="none" stroke="black" d="M661.01,-175.41C633.91,-161.61 594.18,-141.39 564.58,-126.33"/>
<polygon fill="black" stroke="black" points="565.86,-123.05 555.36,-121.64 562.68,-129.29 565.86,-123.05"/>
<text text-anchor="middle" x="634.14" y="-144.8" font-family="Times New Roman,serif" font-size="14.00">0.030</text>
</g>
<!-- 7 -->
<g id="node8" class="node">
<title>7</title>
<g id="a_node8"><a xlink:href="broadcasting presenter.svg" xlink:title="broadcasting presenter">
<ellipse fill="none" stroke="black" cx="879.64" cy="-192" rx="92.88" ry="18"/>
<text text-anchor="middle" x="879.64" y="-188.3" font-family="Times New Roman,serif" font-size="14.00">broadcasting presenter</text>
</a>
</g>
</g>
<!-- 7&#45;&gt;1 -->
<g id="edge7" class="edge">
<title>7&#45;&gt;1</title>
<path fill="none" stroke="black" d="M823.39,-177.53C758.86,-162.08 653.38,-136.82 586.56,-120.83"/>
<polygon fill="black" stroke="black" points="587.13,-117.36 576.59,-118.44 585.5,-124.17 587.13,-117.36"/>
<text text-anchor="middle" x="739.14" y="-144.8" font-family="Times New Roman,serif" font-size="14.00">0.024</text>
</g>
<!-- 8&#45;&gt;1 -->
<g id="edge8" class="edge">
<title>8&#45;&gt;1</title>
<path fill="none" stroke="black" d="M487.79,-35.52C492.98,-41.07 498.42,-47.52 502.64,-54 507.3,-61.15 511.4,-69.45 514.76,-77.21"/>
<polygon fill="black" stroke="black" points="511.59,-78.69 518.61,-86.63 518.07,-76.05 511.59,-78.69"/>
<text text-anchor="middle" x="527.14" y="-57.8" font-family="Times New Roman,serif" font-size="14.00">0.024</text>
</g>
<!-- 9 -->
<g id="node10" class="node">
<title>9</title>
<g id="a_node10"><a xlink:href="computer sales support.svg" xlink:title="computer sales support">
<ellipse fill="none" stroke="black" cx="1086.64" cy="-192" rx="96.38" ry="18"/>
<text text-anchor="middle" x="1086.64" y="-188.3" font-family="Times New Roman,serif" font-size="14.00">computer sales support</text>
</a>
</g>
</g>
<!-- 9&#45;&gt;1 -->
<g id="edge9" class="edge">
<title>9&#45;&gt;1</title>
<path fill="none" stroke="black" d="M1016.91,-179.58C1005.14,-177.69 993.05,-175.77 981.64,-174 846.93,-153.07 689.67,-129.96 599.17,-116.79"/>
<polygon fill="black" stroke="black" points="599.41,-113.29 589.01,-115.31 598.4,-120.22 599.41,-113.29"/>
<text text-anchor="middle" x="871.14" y="-144.8" font-family="Times New Roman,serif" font-size="14.00">0.024</text>
</g>
</g>
</svg>
