<?xml version="1.0" encoding="UTF-8" standalone="no"?>
<!DOCTYPE svg PUBLIC "-//W3C//DTD SVG 1.1//EN"
 "http://www.w3.org/Graphics/SVG/1.1/DTD/svg11.dtd">
<!-- Generated by graphviz version 2.44.1 (20200629.0800)
 -->
<!-- Title: media_planner Pages: 1 -->
<svg width="1425pt" height="218pt"
 viewBox="0.00 0.00 1425.23 218.00" xmlns="http://www.w3.org/2000/svg" xmlns:xlink="http://www.w3.org/1999/xlink">
<g id="graph0" class="graph" transform="scale(1 1) rotate(0) translate(4 214)">
<title>media_planner</title>
<polygon fill="white" stroke="transparent" points="-4,4 -4,-214 1421.23,-214 1421.23,4 -4,4"/>
<!-- 0 -->
<g id="node1" class="node">
<title>0</title>
<g id="a_node1"><a xlink:href="marketing executive.svg" xlink:title="marketing executive">
<ellipse fill="none" stroke="black" cx="289.29" cy="-192" rx="81.79" ry="18"/>
<text text-anchor="middle" x="289.29" y="-188.3" font-family="Times New Roman,serif" font-size="14.00">marketing executive</text>
</a>
</g>
</g>
<!-- 1 -->
<g id="node2" class="node">
<title>1</title>
<g id="a_node2"><a xlink:href="media planner.svg" xlink:title="media planner">
<ellipse fill="none" stroke="black" cx="511.29" cy="-105" rx="61.19" ry="18"/>
<text text-anchor="middle" x="511.29" y="-101.3" font-family="Times New Roman,serif" font-size="14.00">media planner</text>
</a>
</g>
</g>
<!-- 0&#45;&gt;1 -->
<g id="edge1" class="edge">
<title>0&#45;&gt;1</title>
<path fill="none" stroke="black" d="M298.91,-173.98C306.11,-162.84 316.99,-148.93 330.29,-141 363.32,-121.31 405.21,-112.4 440.38,-108.48"/>
<polygon fill="black" stroke="black" points="440.98,-111.93 450.58,-107.46 440.28,-104.97 440.98,-111.93"/>
<text text-anchor="middle" x="345.79" y="-144.8" font-family="Times New Roman,serif" font-size="14.00">0.055</text>
</g>
<!-- 1&#45;&gt;0 -->
<g id="edge11" class="edge">
<title>1&#45;&gt;0</title>
<path fill="none" stroke="black" d="M475.36,-119.76C437.92,-134.09 379.05,-156.63 337.57,-172.51"/>
<polygon fill="black" stroke="black" points="336.3,-169.25 328.22,-176.1 338.81,-175.79 336.3,-169.25"/>
<text text-anchor="middle" x="429.79" y="-144.8" font-family="Times New Roman,serif" font-size="14.00">0.085</text>
</g>
<!-- 1&#45;&gt;1 -->
<g id="edge10" class="edge">
<title>1&#45;&gt;1</title>
<path fill="none" stroke="black" d="M566.73,-112.75C580.29,-112.18 590.39,-109.59 590.39,-105 590.39,-101.66 585.06,-99.39 576.94,-98.17"/>
<polygon fill="black" stroke="black" points="577.01,-94.66 566.73,-97.25 576.38,-101.63 577.01,-94.66"/>
<text text-anchor="middle" x="605.89" y="-101.3" font-family="Times New Roman,serif" font-size="14.00">0.139</text>
</g>
<!-- 2 -->
<g id="node3" class="node">
<title>2</title>
<g id="a_node3"><a xlink:href="marketing assistant.svg" xlink:title="marketing assistant">
<ellipse fill="none" stroke="black" cx="79.29" cy="-18" rx="79.09" ry="18"/>
<text text-anchor="middle" x="79.29" y="-14.3" font-family="Times New Roman,serif" font-size="14.00">marketing assistant</text>
</a>
</g>
</g>
<!-- 1&#45;&gt;2 -->
<g id="edge15" class="edge">
<title>1&#45;&gt;2</title>
<path fill="none" stroke="black" d="M451.58,-101.01C367.04,-96.26 216.98,-85.77 165.29,-69 145.61,-62.61 125.51,-51.25 109.7,-40.97"/>
<polygon fill="black" stroke="black" points="111.65,-38.06 101.39,-35.41 107.75,-43.88 111.65,-38.06"/>
<text text-anchor="middle" x="180.79" y="-57.8" font-family="Times New Roman,serif" font-size="14.00">0.046</text>
</g>
<!-- 4 -->
<g id="node5" class="node">
<title>4</title>
<g id="a_node5"><a xlink:href="production manager.svg" xlink:title="production manager">
<ellipse fill="none" stroke="black" cx="259.29" cy="-18" rx="83.39" ry="18"/>
<text text-anchor="middle" x="259.29" y="-14.3" font-family="Times New Roman,serif" font-size="14.00">production manager</text>
</a>
</g>
</g>
<!-- 1&#45;&gt;4 -->
<g id="edge13" class="edge">
<title>1&#45;&gt;4</title>
<path fill="none" stroke="black" d="M451.14,-101.56C411.22,-97.97 358.59,-89.37 316.29,-69 303.38,-62.78 291.14,-52.81 281.33,-43.4"/>
<polygon fill="black" stroke="black" points="283.56,-40.67 274.03,-36.05 278.6,-45.61 283.56,-40.67"/>
<text text-anchor="middle" x="331.79" y="-57.8" font-family="Times New Roman,serif" font-size="14.00">0.062</text>
</g>
<!-- 6 -->
<g id="node7" class="node">
<title>6</title>
<g id="a_node7"><a xlink:href="content manager.svg" xlink:title="content manager">
<ellipse fill="none" stroke="black" cx="430.29" cy="-18" rx="70.39" ry="18"/>
<text text-anchor="middle" x="430.29" y="-14.3" font-family="Times New Roman,serif" font-size="14.00">content manager</text>
</a>
</g>
</g>
<!-- 1&#45;&gt;6 -->
<g id="edge16" class="edge">
<title>1&#45;&gt;6</title>
<path fill="none" stroke="black" d="M463.99,-93.42C451.28,-88.21 438.96,-80.47 431.29,-69 426.86,-62.37 425.48,-54.07 425.53,-46.15"/>
<polygon fill="black" stroke="black" points="429.03,-46.36 426.29,-36.12 422.05,-45.83 429.03,-46.36"/>
<text text-anchor="middle" x="446.79" y="-57.8" font-family="Times New Roman,serif" font-size="14.00">0.038</text>
</g>
<!-- 7 -->
<g id="node8" class="node">
<title>7</title>
<g id="a_node8"><a xlink:href="financial manager.svg" xlink:title="financial manager">
<ellipse fill="none" stroke="black" cx="592.29" cy="-18" rx="73.39" ry="18"/>
<text text-anchor="middle" x="592.29" y="-14.3" font-family="Times New Roman,serif" font-size="14.00">financial manager</text>
</a>
</g>
</g>
<!-- 1&#45;&gt;7 -->
<g id="edge12" class="edge">
<title>1&#45;&gt;7</title>
<path fill="none" stroke="black" d="M516.74,-86.81C520.67,-76.44 526.78,-63.44 535.29,-54 540,-48.79 545.66,-44.08 551.56,-39.94"/>
<polygon fill="black" stroke="black" points="553.81,-42.65 560.3,-34.27 550.01,-36.77 553.81,-42.65"/>
<text text-anchor="middle" x="550.79" y="-57.8" font-family="Times New Roman,serif" font-size="14.00">0.062</text>
</g>
<!-- 10 -->
<g id="node11" class="node">
<title>10</title>
<g id="a_node11"><a xlink:href="project manager.svg" xlink:title="project manager">
<ellipse fill="none" stroke="black" cx="752.29" cy="-18" rx="68.79" ry="18"/>
<text text-anchor="middle" x="752.29" y="-14.3" font-family="Times New Roman,serif" font-size="14.00">project manager</text>
</a>
</g>
</g>
<!-- 1&#45;&gt;10 -->
<g id="edge14" class="edge">
<title>1&#45;&gt;10</title>
<path fill="none" stroke="black" d="M550.39,-91.1C569.92,-84.59 593.9,-76.5 615.29,-69 645.06,-58.56 678.3,-46.44 704.58,-36.75"/>
<polygon fill="black" stroke="black" points="706.13,-39.91 714.29,-33.16 703.7,-33.34 706.13,-39.91"/>
<text text-anchor="middle" x="671.79" y="-57.8" font-family="Times New Roman,serif" font-size="14.00">0.054</text>
</g>
<!-- 11 -->
<g id="node12" class="node">
<title>11</title>
<g id="a_node12"><a xlink:href="logistics manager.svg" xlink:title="logistics manager">
<ellipse fill="none" stroke="black" cx="912.29" cy="-18" rx="73.39" ry="18"/>
<text text-anchor="middle" x="912.29" y="-14.3" font-family="Times New Roman,serif" font-size="14.00">logistics manager</text>
</a>
</g>
</g>
<!-- 1&#45;&gt;11 -->
<g id="edge17" class="edge">
<title>1&#45;&gt;11</title>
<path fill="none" stroke="black" d="M561.42,-94.68C597.58,-87.85 647.52,-78.2 691.29,-69 745.51,-57.6 806.97,-43.61 851.29,-33.33"/>
<polygon fill="black" stroke="black" points="852.09,-36.73 861.04,-31.06 850.5,-29.92 852.09,-36.73"/>
<text text-anchor="middle" x="772.79" y="-57.8" font-family="Times New Roman,serif" font-size="14.00">0.031</text>
</g>
<!-- 12 -->
<g id="node13" class="node">
<title>12</title>
<g id="a_node13"><a xlink:href="pharmacovigilance officer.svg" xlink:title="pharmacovigilance officer">
<ellipse fill="none" stroke="black" cx="1108.29" cy="-18" rx="104.78" ry="18"/>
<text text-anchor="middle" x="1108.29" y="-14.3" font-family="Times New Roman,serif" font-size="14.00">pharmacovigilance officer</text>
</a>
</g>
</g>
<!-- 1&#45;&gt;12 -->
<g id="edge18" class="edge">
<title>1&#45;&gt;12</title>
<path fill="none" stroke="black" d="M567.08,-97.6C623.83,-90.96 714.29,-80.03 792.29,-69 871.9,-57.75 962.52,-43.23 1026.24,-32.74"/>
<polygon fill="black" stroke="black" points="1026.93,-36.18 1036.23,-31.1 1025.79,-29.27 1026.93,-36.18"/>
<text text-anchor="middle" x="902.79" y="-57.8" font-family="Times New Roman,serif" font-size="14.00">0.031</text>
</g>
<!-- 13 -->
<g id="node14" class="node">
<title>13</title>
<g id="a_node14"><a xlink:href="broadcasting presenter.svg" xlink:title="broadcasting presenter">
<ellipse fill="none" stroke="black" cx="1324.29" cy="-18" rx="92.88" ry="18"/>
<text text-anchor="middle" x="1324.29" y="-14.3" font-family="Times New Roman,serif" font-size="14.00">broadcasting presenter</text>
</a>
</g>
</g>
<!-- 1&#45;&gt;13 -->
<g id="edge19" class="edge">
<title>1&#45;&gt;13</title>
<path fill="none" stroke="black" d="M570.48,-100.03C692.67,-91.46 981.54,-69.28 1222.29,-36 1230.54,-34.86 1239.14,-33.58 1247.7,-32.24"/>
<polygon fill="black" stroke="black" points="1248.38,-35.67 1257.71,-30.64 1247.29,-28.76 1248.38,-35.67"/>
<text text-anchor="middle" x="1081.79" y="-57.8" font-family="Times New Roman,serif" font-size="14.00">0.023</text>
</g>
<!-- 2&#45;&gt;1 -->
<g id="edge2" class="edge">
<title>2&#45;&gt;1</title>
<path fill="none" stroke="black" d="M123.28,-32.98C159.47,-44.06 212.29,-59.25 259.29,-69 321.4,-81.88 393.13,-91.32 444.14,-97.13"/>
<polygon fill="black" stroke="black" points="444.05,-100.64 454.38,-98.28 444.83,-93.69 444.05,-100.64"/>
<text text-anchor="middle" x="274.79" y="-57.8" font-family="Times New Roman,serif" font-size="14.00">0.048</text>
</g>
<!-- 3 -->
<g id="node4" class="node">
<title>3</title>
<g id="a_node4"><a xlink:href="sales manager.svg" xlink:title="sales manager">
<ellipse fill="none" stroke="black" cx="450.29" cy="-192" rx="61.19" ry="18"/>
<text text-anchor="middle" x="450.29" y="-188.3" font-family="Times New Roman,serif" font-size="14.00">sales manager</text>
</a>
</g>
</g>
<!-- 3&#45;&gt;1 -->
<g id="edge3" class="edge">
<title>3&#45;&gt;1</title>
<path fill="none" stroke="black" d="M462.34,-174.21C471.2,-161.87 483.38,-144.89 493.38,-130.97"/>
<polygon fill="black" stroke="black" points="496.28,-132.92 499.27,-122.76 490.59,-128.84 496.28,-132.92"/>
<text text-anchor="middle" x="500.79" y="-144.8" font-family="Times New Roman,serif" font-size="14.00">0.048</text>
</g>
<!-- 4&#45;&gt;1 -->
<g id="edge4" class="edge">
<title>4&#45;&gt;1</title>
<path fill="none" stroke="black" d="M296.85,-34.12C323.11,-44.48 359.11,-58.23 391.29,-69 413.06,-76.28 437.32,-83.52 458.3,-89.51"/>
<polygon fill="black" stroke="black" points="457.42,-92.9 468,-92.26 459.33,-86.16 457.42,-92.9"/>
<text text-anchor="middle" x="406.79" y="-57.8" font-family="Times New Roman,serif" font-size="14.00">0.041</text>
</g>
<!-- 5 -->
<g id="node6" class="node">
<title>5</title>
<g id="a_node6"><a xlink:href="journalist.svg" xlink:title="journalist">
<ellipse fill="none" stroke="black" cx="573.29" cy="-192" rx="43.59" ry="18"/>
<text text-anchor="middle" x="573.29" y="-188.3" font-family="Times New Roman,serif" font-size="14.00">journalist</text>
</a>
</g>
</g>
<!-- 5&#45;&gt;1 -->
<g id="edge5" class="edge">
<title>5&#45;&gt;1</title>
<path fill="none" stroke="black" d="M561.34,-174.61C552.36,-162.31 539.91,-145.23 529.67,-131.2"/>
<polygon fill="black" stroke="black" points="532.36,-128.94 523.63,-122.92 526.7,-133.06 532.36,-128.94"/>
<text text-anchor="middle" x="561.79" y="-144.8" font-family="Times New Roman,serif" font-size="14.00">0.034</text>
</g>
<!-- 6&#45;&gt;1 -->
<g id="edge6" class="edge">
<title>6&#45;&gt;1</title>
<path fill="none" stroke="black" d="M446.26,-35.76C458.24,-48.32 474.8,-65.7 488.21,-79.78"/>
<polygon fill="black" stroke="black" points="485.86,-82.38 495.29,-87.21 490.93,-77.55 485.86,-82.38"/>
<text text-anchor="middle" x="491.79" y="-57.8" font-family="Times New Roman,serif" font-size="14.00">0.027</text>
</g>
<!-- 7&#45;&gt;1 -->
<g id="edge7" class="edge">
<title>7&#45;&gt;1</title>
<path fill="none" stroke="black" d="M587.65,-36.23C584.18,-46.63 578.59,-59.63 570.29,-69 565.24,-74.7 559.04,-79.74 552.56,-84.08"/>
<polygon fill="black" stroke="black" points="550.33,-81.35 543.66,-89.58 554.01,-87.31 550.33,-81.35"/>
<text text-anchor="middle" x="595.79" y="-57.8" font-family="Times New Roman,serif" font-size="14.00">0.027</text>
</g>
<!-- 8 -->
<g id="node9" class="node">
<title>8</title>
<g id="a_node9"><a xlink:href="legal executive.svg" xlink:title="legal executive">
<ellipse fill="none" stroke="black" cx="698.29" cy="-192" rx="63.09" ry="18"/>
<text text-anchor="middle" x="698.29" y="-188.3" font-family="Times New Roman,serif" font-size="14.00">legal executive</text>
</a>
</g>
</g>
<!-- 8&#45;&gt;1 -->
<g id="edge8" class="edge">
<title>8&#45;&gt;1</title>
<path fill="none" stroke="black" d="M666.15,-176.39C634.65,-162.07 586.52,-140.19 552.28,-124.63"/>
<polygon fill="black" stroke="black" points="553.57,-121.37 543.02,-120.42 550.68,-127.75 553.57,-121.37"/>
<text text-anchor="middle" x="630.79" y="-144.8" font-family="Times New Roman,serif" font-size="14.00">0.027</text>
</g>
<!-- 9 -->
<g id="node10" class="node">
<title>9</title>
<g id="a_node10"><a xlink:href="heritage manager.svg" xlink:title="heritage manager">
<ellipse fill="none" stroke="black" cx="851.29" cy="-192" rx="71.49" ry="18"/>
<text text-anchor="middle" x="851.29" y="-188.3" font-family="Times New Roman,serif" font-size="14.00">heritage manager</text>
</a>
</g>
</g>
<!-- 9&#45;&gt;1 -->
<g id="edge9" class="edge">
<title>9&#45;&gt;1</title>
<path fill="none" stroke="black" d="M802.58,-178.82C739.97,-163.17 631.55,-136.06 566.11,-119.71"/>
<polygon fill="black" stroke="black" points="566.94,-116.3 556.39,-117.27 565.24,-123.09 566.94,-116.3"/>
<text text-anchor="middle" x="716.79" y="-144.8" font-family="Times New Roman,serif" font-size="14.00">0.020</text>
</g>
</g>
</svg>
