<?xml version="1.0" encoding="UTF-8" standalone="no"?>
<!DOCTYPE svg PUBLIC "-//W3C//DTD SVG 1.1//EN"
 "http://www.w3.org/Graphics/SVG/1.1/DTD/svg11.dtd">
<!-- Generated by graphviz version 2.44.1 (20200629.0800)
 -->
<!-- Title: test Pages: 1 -->
<svg width="898pt" height="218pt"
 viewBox="0.00 0.00 897.79 218.00" xmlns="http://www.w3.org/2000/svg" xmlns:xlink="http://www.w3.org/1999/xlink">
<g id="graph0" class="graph" transform="scale(1 1) rotate(0) translate(4 214)">
<title>test</title>
<polygon fill="white" stroke="transparent" points="-4,4 -4,-214 893.79,-214 893.79,4 -4,4"/>
<!-- 0 -->
<g id="node1" class="node">
<title>0</title>
<g id="a_node1"><a xlink:href="manufacturing engineer.svg" xlink:title="manufacturing engineer">
<ellipse fill="none" stroke="black" cx="94.24" cy="-192" rx="94.48" ry="18"/>
<text text-anchor="middle" x="94.24" y="-188.3" font-family="Times New Roman,serif" font-size="14.00">manufacturing engineer</text>
</a>
</g>
</g>
<!-- 1 -->
<g id="node2" class="node">
<title>1</title>
<g id="a_node2"><a xlink:href="metallurgist.svg" xlink:title="metallurgist">
<ellipse fill="none" stroke="black" cx="420.24" cy="-105" rx="51.99" ry="18"/>
<text text-anchor="middle" x="420.24" y="-101.3" font-family="Times New Roman,serif" font-size="14.00">metallurgist</text>
</a>
</g>
</g>
<!-- 0&#45;&gt;1 -->
<g id="edge1" class="edge">
<title>0&#45;&gt;1</title>
<path fill="none" stroke="black" d="M107.79,-174.18C117.93,-162.83 132.84,-148.58 149.24,-141 185.44,-124.26 290.97,-114.41 359.16,-109.62"/>
<polygon fill="black" stroke="black" points="359.61,-113.1 369.35,-108.93 359.13,-106.12 359.61,-113.1"/>
<text text-anchor="middle" x="158.24" y="-144.8" font-family="Times New Roman,serif" font-size="14.00">0.3</text>
</g>
<!-- 1&#45;&gt;0 -->
<g id="edge7" class="edge">
<title>1&#45;&gt;0</title>
<path fill="none" stroke="black" d="M380.13,-116.46C324.51,-130.96 223.42,-157.32 157.56,-174.49"/>
<polygon fill="black" stroke="black" points="156.5,-171.15 147.71,-177.06 158.27,-177.92 156.5,-171.15"/>
<text text-anchor="middle" x="292.74" y="-144.8" font-family="Times New Roman,serif" font-size="14.00">0.285</text>
</g>
<!-- 1&#45;&gt;1 -->
<g id="edge8" class="edge">
<title>1&#45;&gt;1</title>
<path fill="none" stroke="black" d="M467.35,-112.83C480.32,-112.45 490.24,-109.84 490.24,-105 490.24,-101.52 485.12,-99.2 477.42,-98.02"/>
<polygon fill="black" stroke="black" points="477.61,-94.53 467.35,-97.17 477.02,-101.5 477.61,-94.53"/>
<text text-anchor="middle" x="505.74" y="-101.3" font-family="Times New Roman,serif" font-size="14.00">0.285</text>
</g>
<!-- 7 -->
<g id="node8" class="node">
<title>7</title>
<g id="a_node8"><a xlink:href="aid worker.svg" xlink:title="aid worker">
<ellipse fill="none" stroke="black" cx="89.24" cy="-18" rx="49.29" ry="18"/>
<text text-anchor="middle" x="89.24" y="-14.3" font-family="Times New Roman,serif" font-size="14.00">aid worker</text>
</a>
</g>
</g>
<!-- 1&#45;&gt;7 -->
<g id="edge9" class="edge">
<title>1&#45;&gt;7</title>
<path fill="none" stroke="black" d="M378.48,-94.16C324.8,-81.38 228.8,-58.1 147.24,-36 143.64,-35.02 139.91,-33.99 136.17,-32.93"/>
<polygon fill="black" stroke="black" points="136.88,-29.5 126.31,-30.11 134.96,-36.23 136.88,-29.5"/>
<text text-anchor="middle" x="289.74" y="-57.8" font-family="Times New Roman,serif" font-size="14.00">0.142</text>
</g>
<!-- 8 -->
<g id="node9" class="node">
<title>8</title>
<g id="a_node9"><a xlink:href="broadcasting presenter.svg" xlink:title="broadcasting presenter">
<ellipse fill="none" stroke="black" cx="249.24" cy="-18" rx="92.88" ry="18"/>
<text text-anchor="middle" x="249.24" y="-14.3" font-family="Times New Roman,serif" font-size="14.00">broadcasting presenter</text>
</a>
</g>
</g>
<!-- 1&#45;&gt;8 -->
<g id="edge10" class="edge">
<title>1&#45;&gt;8</title>
<path fill="none" stroke="black" d="M391.62,-89.77C364.05,-76.07 322.03,-55.18 290.78,-39.65"/>
<polygon fill="black" stroke="black" points="291.97,-36.33 281.46,-35.01 288.85,-42.6 291.97,-36.33"/>
<text text-anchor="middle" x="360.74" y="-57.8" font-family="Times New Roman,serif" font-size="14.00">0.142</text>
</g>
<!-- 9 -->
<g id="node10" class="node">
<title>9</title>
<g id="a_node10"><a xlink:href="photographer.svg" xlink:title="photographer">
<ellipse fill="none" stroke="black" cx="420.24" cy="-18" rx="59.59" ry="18"/>
<text text-anchor="middle" x="420.24" y="-14.3" font-family="Times New Roman,serif" font-size="14.00">photographer</text>
</a>
</g>
</g>
<!-- 1&#45;&gt;9 -->
<g id="edge11" class="edge">
<title>1&#45;&gt;9</title>
<path fill="none" stroke="black" d="M420.24,-86.8C420.24,-75.16 420.24,-59.55 420.24,-46.24"/>
<polygon fill="black" stroke="black" points="423.74,-46.18 420.24,-36.18 416.74,-46.18 423.74,-46.18"/>
<text text-anchor="middle" x="435.74" y="-57.8" font-family="Times New Roman,serif" font-size="14.00">0.142</text>
</g>
<!-- 10 -->
<g id="node11" class="node">
<title>10</title>
<g id="a_node11"><a xlink:href="social worker.svg" xlink:title="social worker">
<ellipse fill="none" stroke="black" cx="558.24" cy="-18" rx="59.59" ry="18"/>
<text text-anchor="middle" x="558.24" y="-14.3" font-family="Times New Roman,serif" font-size="14.00">social worker</text>
</a>
</g>
</g>
<!-- 1&#45;&gt;10 -->
<g id="edge12" class="edge">
<title>1&#45;&gt;10</title>
<path fill="none" stroke="black" d="M444.6,-89C466.79,-75.33 499.77,-55.01 524.5,-39.78"/>
<polygon fill="black" stroke="black" points="526.52,-42.65 533.2,-34.42 522.85,-36.69 526.52,-42.65"/>
<text text-anchor="middle" x="513.74" y="-57.8" font-family="Times New Roman,serif" font-size="14.00">0.142</text>
</g>
<!-- 11 -->
<g id="node12" class="node">
<title>11</title>
<g id="a_node12"><a xlink:href="sports coach.svg" xlink:title="sports coach">
<ellipse fill="none" stroke="black" cx="694.24" cy="-18" rx="57.69" ry="18"/>
<text text-anchor="middle" x="694.24" y="-14.3" font-family="Times New Roman,serif" font-size="14.00">sports coach</text>
</a>
</g>
</g>
<!-- 1&#45;&gt;11 -->
<g id="edge13" class="edge">
<title>1&#45;&gt;11</title>
<path fill="none" stroke="black" d="M457.65,-92.42C479.66,-85.61 508.04,-76.82 533.24,-69 570.7,-57.38 613.06,-44.23 644.92,-34.33"/>
<polygon fill="black" stroke="black" points="646.36,-37.54 654.88,-31.23 644.29,-30.86 646.36,-37.54"/>
<text text-anchor="middle" x="593.74" y="-57.8" font-family="Times New Roman,serif" font-size="14.00">0.142</text>
</g>
<!-- 2 -->
<g id="node3" class="node">
<title>2</title>
<g id="a_node3"><a xlink:href="it consultant.svg" xlink:title="it consultant">
<ellipse fill="none" stroke="black" cx="261.24" cy="-192" rx="54.69" ry="18"/>
<text text-anchor="middle" x="261.24" y="-188.3" font-family="Times New Roman,serif" font-size="14.00">it consultant</text>
</a>
</g>
</g>
<!-- 2&#45;&gt;1 -->
<g id="edge2" class="edge">
<title>2&#45;&gt;1</title>
<path fill="none" stroke="black" d="M288.57,-176.39C315.01,-162.25 355.24,-140.75 384.26,-125.23"/>
<polygon fill="black" stroke="black" points="386.1,-128.22 393.27,-120.42 382.8,-122.05 386.1,-128.22"/>
<text text-anchor="middle" x="360.24" y="-144.8" font-family="Times New Roman,serif" font-size="14.00">0.1</text>
</g>
<!-- 3 -->
<g id="node4" class="node">
<title>3</title>
<g id="a_node4"><a xlink:href="laboratory technician.svg" xlink:title="laboratory technician">
<ellipse fill="none" stroke="black" cx="420.24" cy="-192" rx="86.38" ry="18"/>
<text text-anchor="middle" x="420.24" y="-188.3" font-family="Times New Roman,serif" font-size="14.00">laboratory technician</text>
</a>
</g>
</g>
<!-- 3&#45;&gt;1 -->
<g id="edge3" class="edge">
<title>3&#45;&gt;1</title>
<path fill="none" stroke="black" d="M420.24,-173.8C420.24,-162.16 420.24,-146.55 420.24,-133.24"/>
<polygon fill="black" stroke="black" points="423.74,-133.18 420.24,-123.18 416.74,-133.18 423.74,-133.18"/>
<text text-anchor="middle" x="429.24" y="-144.8" font-family="Times New Roman,serif" font-size="14.00">0.1</text>
</g>
<!-- 4 -->
<g id="node5" class="node">
<title>4</title>
<g id="a_node5"><a xlink:href="lecturer.svg" xlink:title="lecturer">
<ellipse fill="none" stroke="black" cx="562.24" cy="-192" rx="37.89" ry="18"/>
<text text-anchor="middle" x="562.24" y="-188.3" font-family="Times New Roman,serif" font-size="14.00">lecturer</text>
</a>
</g>
</g>
<!-- 4&#45;&gt;1 -->
<g id="edge4" class="edge">
<title>4&#45;&gt;1</title>
<path fill="none" stroke="black" d="M539.74,-177.53C516.56,-163.65 480.15,-141.86 453.61,-125.98"/>
<polygon fill="black" stroke="black" points="455.4,-122.97 445.02,-120.83 451.81,-128.97 455.4,-122.97"/>
<text text-anchor="middle" x="509.24" y="-144.8" font-family="Times New Roman,serif" font-size="14.00">0.1</text>
</g>
<!-- 5 -->
<g id="node6" class="node">
<title>5</title>
<g id="a_node6"><a xlink:href="mechanical engineer.svg" xlink:title="mechanical engineer">
<ellipse fill="none" stroke="black" cx="701.24" cy="-192" rx="83.39" ry="18"/>
<text text-anchor="middle" x="701.24" y="-188.3" font-family="Times New Roman,serif" font-size="14.00">mechanical engineer</text>
</a>
</g>
</g>
<!-- 5&#45;&gt;1 -->
<g id="edge5" class="edge">
<title>5&#45;&gt;1</title>
<path fill="none" stroke="black" d="M654.84,-176.96C603.15,-161.33 520,-136.17 467.83,-120.39"/>
<polygon fill="black" stroke="black" points="468.73,-117.01 458.14,-117.46 466.7,-123.71 468.73,-117.01"/>
<text text-anchor="middle" x="587.24" y="-144.8" font-family="Times New Roman,serif" font-size="14.00">0.1</text>
</g>
<!-- 6 -->
<g id="node7" class="node">
<title>6</title>
<g id="a_node7"><a xlink:href="secretary.svg" xlink:title="secretary">
<ellipse fill="none" stroke="black" cx="846.24" cy="-192" rx="43.59" ry="18"/>
<text text-anchor="middle" x="846.24" y="-188.3" font-family="Times New Roman,serif" font-size="14.00">secretary</text>
</a>
</g>
</g>
<!-- 6&#45;&gt;1 -->
<g id="edge6" class="edge">
<title>6&#45;&gt;1</title>
<path fill="none" stroke="black" d="M813.92,-179.9C807.14,-177.77 799.99,-175.69 793.24,-174 682.71,-146.32 551.11,-124.98 477.47,-114.07"/>
<polygon fill="black" stroke="black" points="477.88,-110.59 467.47,-112.59 476.86,-117.51 477.88,-110.59"/>
<text text-anchor="middle" x="721.24" y="-144.8" font-family="Times New Roman,serif" font-size="14.00">0.1</text>
</g>
</g>
</svg>
