<?xml version="1.0" encoding="UTF-8" standalone="no"?>
<!DOCTYPE svg PUBLIC "-//W3C//DTD SVG 1.1//EN"
 "http://www.w3.org/Graphics/SVG/1.1/DTD/svg11.dtd">
<!-- Generated by graphviz version 2.44.1 (20200629.0800)
 -->
<!-- Title: meteorologist Pages: 1 -->
<svg width="648pt" height="218pt"
 viewBox="0.00 0.00 647.79 218.00" xmlns="http://www.w3.org/2000/svg" xmlns:xlink="http://www.w3.org/1999/xlink">
<g id="graph0" class="graph" transform="scale(1 1) rotate(0) translate(4 214)">
<title>meteorologist</title>
<polygon fill="white" stroke="transparent" points="-4,4 -4,-214 643.79,-214 643.79,4 -4,4"/>
<!-- 0 -->
<g id="node1" class="node">
<title>0</title>
<g id="a_node1"><a xlink:href="political party agent.svg" xlink:title="political party agent">
<ellipse fill="none" stroke="black" cx="99.69" cy="-192" rx="81.49" ry="18"/>
<text text-anchor="middle" x="99.69" y="-188.3" font-family="Times New Roman,serif" font-size="14.00">political party agent</text>
</a>
</g>
</g>
<!-- 1 -->
<g id="node2" class="node">
<title>1</title>
<g id="a_node2"><a xlink:href="meteorologist.svg" xlink:title="meteorologist">
<ellipse fill="none" stroke="black" cx="281.69" cy="-105" rx="59.59" ry="18"/>
<text text-anchor="middle" x="281.69" y="-101.3" font-family="Times New Roman,serif" font-size="14.00">meteorologist</text>
</a>
</g>
</g>
<!-- 0&#45;&gt;1 -->
<g id="edge1" class="edge">
<title>0&#45;&gt;1</title>
<path fill="none" stroke="black" d="M133.07,-175.41C163.62,-161.15 208.87,-140.01 241.41,-124.81"/>
<polygon fill="black" stroke="black" points="243.07,-127.9 250.65,-120.5 240.11,-121.56 243.07,-127.9"/>
<text text-anchor="middle" x="217.19" y="-144.8" font-family="Times New Roman,serif" font-size="14.00">0.333</text>
</g>
<!-- 4 -->
<g id="node5" class="node">
<title>4</title>
<g id="a_node5"><a xlink:href="investment analyst.svg" xlink:title="investment analyst">
<ellipse fill="none" stroke="black" cx="76.69" cy="-18" rx="76.89" ry="18"/>
<text text-anchor="middle" x="76.69" y="-14.3" font-family="Times New Roman,serif" font-size="14.00">investment analyst</text>
</a>
</g>
</g>
<!-- 1&#45;&gt;4 -->
<g id="edge4" class="edge">
<title>1&#45;&gt;4</title>
<path fill="none" stroke="black" d="M247.84,-89.96C213.45,-75.71 159.99,-53.54 121.98,-37.78"/>
<polygon fill="black" stroke="black" points="123.24,-34.51 112.67,-33.92 120.56,-40.98 123.24,-34.51"/>
<text text-anchor="middle" x="204.19" y="-57.8" font-family="Times New Roman,serif" font-size="14.00">0.25</text>
</g>
<!-- 5 -->
<g id="node6" class="node">
<title>5</title>
<g id="a_node6"><a xlink:href="lecturer.svg" xlink:title="lecturer">
<ellipse fill="none" stroke="black" cx="208.69" cy="-18" rx="37.89" ry="18"/>
<text text-anchor="middle" x="208.69" y="-14.3" font-family="Times New Roman,serif" font-size="14.00">lecturer</text>
</a>
</g>
</g>
<!-- 1&#45;&gt;5 -->
<g id="edge5" class="edge">
<title>1&#45;&gt;5</title>
<path fill="none" stroke="black" d="M267.27,-87.21C256.36,-74.51 241.24,-56.9 229.1,-42.76"/>
<polygon fill="black" stroke="black" points="231.52,-40.2 222.34,-34.9 226.21,-44.76 231.52,-40.2"/>
<text text-anchor="middle" x="262.19" y="-57.8" font-family="Times New Roman,serif" font-size="14.00">0.25</text>
</g>
<!-- 6 -->
<g id="node7" class="node">
<title>6</title>
<g id="a_node7"><a xlink:href="programme researcher.svg" xlink:title="programme researcher">
<ellipse fill="none" stroke="black" cx="355.69" cy="-18" rx="91.78" ry="18"/>
<text text-anchor="middle" x="355.69" y="-14.3" font-family="Times New Roman,serif" font-size="14.00">programme researcher</text>
</a>
</g>
</g>
<!-- 1&#45;&gt;6 -->
<g id="edge6" class="edge">
<title>1&#45;&gt;6</title>
<path fill="none" stroke="black" d="M296.31,-87.21C307.09,-74.83 321.92,-57.8 334.06,-43.85"/>
<polygon fill="black" stroke="black" points="336.92,-45.89 340.85,-36.05 331.64,-41.29 336.92,-45.89"/>
<text text-anchor="middle" x="336.19" y="-57.8" font-family="Times New Roman,serif" font-size="14.00">0.25</text>
</g>
<!-- 7 -->
<g id="node8" class="node">
<title>7</title>
<g id="a_node8"><a xlink:href="welfare rights adviser.svg" xlink:title="welfare rights adviser">
<ellipse fill="none" stroke="black" cx="552.69" cy="-18" rx="87.18" ry="18"/>
<text text-anchor="middle" x="552.69" y="-14.3" font-family="Times New Roman,serif" font-size="14.00">welfare rights adviser</text>
</a>
</g>
</g>
<!-- 1&#45;&gt;7 -->
<g id="edge7" class="edge">
<title>1&#45;&gt;7</title>
<path fill="none" stroke="black" d="M321.68,-91.46C368.02,-76.92 444.67,-52.88 496.87,-36.51"/>
<polygon fill="black" stroke="black" points="498.15,-39.78 506.64,-33.44 496.05,-33.1 498.15,-39.78"/>
<text text-anchor="middle" x="445.19" y="-57.8" font-family="Times New Roman,serif" font-size="14.00">0.25</text>
</g>
<!-- 2 -->
<g id="node3" class="node">
<title>2</title>
<g id="a_node3"><a xlink:href="production manager.svg" xlink:title="production manager">
<ellipse fill="none" stroke="black" cx="281.69" cy="-192" rx="83.39" ry="18"/>
<text text-anchor="middle" x="281.69" y="-188.3" font-family="Times New Roman,serif" font-size="14.00">production manager</text>
</a>
</g>
</g>
<!-- 2&#45;&gt;1 -->
<g id="edge2" class="edge">
<title>2&#45;&gt;1</title>
<path fill="none" stroke="black" d="M281.69,-173.8C281.69,-162.16 281.69,-146.55 281.69,-133.24"/>
<polygon fill="black" stroke="black" points="285.19,-133.18 281.69,-123.18 278.19,-133.18 285.19,-133.18"/>
<text text-anchor="middle" x="297.19" y="-144.8" font-family="Times New Roman,serif" font-size="14.00">0.333</text>
</g>
<!-- 3 -->
<g id="node4" class="node">
<title>3</title>
<g id="a_node4"><a xlink:href="quality assurance manager.svg" xlink:title="quality assurance manager">
<ellipse fill="none" stroke="black" cx="487.69" cy="-192" rx="105.08" ry="18"/>
<text text-anchor="middle" x="487.69" y="-188.3" font-family="Times New Roman,serif" font-size="14.00">quality assurance manager</text>
</a>
</g>
</g>
<!-- 3&#45;&gt;1 -->
<g id="edge3" class="edge">
<title>3&#45;&gt;1</title>
<path fill="none" stroke="black" d="M449.43,-175.21C414.18,-160.67 361.93,-139.11 325.13,-123.92"/>
<polygon fill="black" stroke="black" points="326.23,-120.59 315.65,-120.01 323.56,-127.06 326.23,-120.59"/>
<text text-anchor="middle" x="412.19" y="-144.8" font-family="Times New Roman,serif" font-size="14.00">0.333</text>
</g>
</g>
</svg>
