<?xml version="1.0" encoding="UTF-8" standalone="no"?>
<!DOCTYPE svg PUBLIC "-//W3C//DTD SVG 1.1//EN"
 "http://www.w3.org/Graphics/SVG/1.1/DTD/svg11.dtd">
<!-- Generated by graphviz version 2.44.1 (20200629.0800)
 -->
<!-- Title: test Pages: 1 -->
<svg width="690pt" height="218pt"
 viewBox="0.00 0.00 690.48 218.00" xmlns="http://www.w3.org/2000/svg" xmlns:xlink="http://www.w3.org/1999/xlink">
<g id="graph0" class="graph" transform="scale(1 1) rotate(0) translate(4 214)">
<title>test</title>
<polygon fill="white" stroke="transparent" points="-4,4 -4,-214 686.48,-214 686.48,4 -4,4"/>
<!-- 0 -->
<g id="node1" class="node">
<title>0</title>
<g id="a_node1"><a xlink:href="production manager.svg" xlink:title="production manager">
<ellipse fill="none" stroke="black" cx="83.19" cy="-192" rx="83.39" ry="18"/>
<text text-anchor="middle" x="83.19" y="-188.3" font-family="Times New Roman,serif" font-size="14.00">production manager</text>
</a>
</g>
</g>
<!-- 1 -->
<g id="node2" class="node">
<title>1</title>
<g id="a_node2"><a xlink:href="meteorologist.svg" xlink:title="meteorologist">
<ellipse fill="none" stroke="black" cx="319.19" cy="-105" rx="59.59" ry="18"/>
<text text-anchor="middle" x="319.19" y="-101.3" font-family="Times New Roman,serif" font-size="14.00">meteorologist</text>
</a>
</g>
</g>
<!-- 0&#45;&gt;1 -->
<g id="edge1" class="edge">
<title>0&#45;&gt;1</title>
<path fill="none" stroke="black" d="M124.03,-176.29C165.49,-161.36 229.57,-138.28 272.89,-122.68"/>
<polygon fill="black" stroke="black" points="274.12,-125.95 282.34,-119.27 271.75,-119.37 274.12,-125.95"/>
<text text-anchor="middle" x="231.69" y="-144.8" font-family="Times New Roman,serif" font-size="14.00">0.333</text>
</g>
<!-- 4 -->
<g id="node5" class="node">
<title>4</title>
<g id="a_node5"><a xlink:href="investment analyst.svg" xlink:title="investment analyst">
<ellipse fill="none" stroke="black" cx="114.19" cy="-18" rx="76.89" ry="18"/>
<text text-anchor="middle" x="114.19" y="-14.3" font-family="Times New Roman,serif" font-size="14.00">investment analyst</text>
</a>
</g>
</g>
<!-- 1&#45;&gt;4 -->
<g id="edge4" class="edge">
<title>1&#45;&gt;4</title>
<path fill="none" stroke="black" d="M285.34,-89.96C250.95,-75.71 197.49,-53.54 159.48,-37.78"/>
<polygon fill="black" stroke="black" points="160.74,-34.51 150.16,-33.92 158.06,-40.98 160.74,-34.51"/>
<text text-anchor="middle" x="241.69" y="-57.8" font-family="Times New Roman,serif" font-size="14.00">0.25</text>
</g>
<!-- 5 -->
<g id="node6" class="node">
<title>5</title>
<g id="a_node6"><a xlink:href="lecturer.svg" xlink:title="lecturer">
<ellipse fill="none" stroke="black" cx="246.19" cy="-18" rx="37.89" ry="18"/>
<text text-anchor="middle" x="246.19" y="-14.3" font-family="Times New Roman,serif" font-size="14.00">lecturer</text>
</a>
</g>
</g>
<!-- 1&#45;&gt;5 -->
<g id="edge5" class="edge">
<title>1&#45;&gt;5</title>
<path fill="none" stroke="black" d="M304.77,-87.21C293.86,-74.51 278.74,-56.9 266.6,-42.76"/>
<polygon fill="black" stroke="black" points="269.01,-40.2 259.84,-34.9 263.7,-44.76 269.01,-40.2"/>
<text text-anchor="middle" x="299.69" y="-57.8" font-family="Times New Roman,serif" font-size="14.00">0.25</text>
</g>
<!-- 6 -->
<g id="node7" class="node">
<title>6</title>
<g id="a_node7"><a xlink:href="programme researcher.svg" xlink:title="programme researcher">
<ellipse fill="none" stroke="black" cx="393.19" cy="-18" rx="91.78" ry="18"/>
<text text-anchor="middle" x="393.19" y="-14.3" font-family="Times New Roman,serif" font-size="14.00">programme researcher</text>
</a>
</g>
</g>
<!-- 1&#45;&gt;6 -->
<g id="edge6" class="edge">
<title>1&#45;&gt;6</title>
<path fill="none" stroke="black" d="M333.81,-87.21C344.59,-74.83 359.42,-57.8 371.56,-43.85"/>
<polygon fill="black" stroke="black" points="374.42,-45.89 378.35,-36.05 369.14,-41.29 374.42,-45.89"/>
<text text-anchor="middle" x="373.69" y="-57.8" font-family="Times New Roman,serif" font-size="14.00">0.25</text>
</g>
<!-- 7 -->
<g id="node8" class="node">
<title>7</title>
<g id="a_node8"><a xlink:href="welfare rights adviser.svg" xlink:title="welfare rights adviser">
<ellipse fill="none" stroke="black" cx="590.19" cy="-18" rx="87.18" ry="18"/>
<text text-anchor="middle" x="590.19" y="-14.3" font-family="Times New Roman,serif" font-size="14.00">welfare rights adviser</text>
</a>
</g>
</g>
<!-- 1&#45;&gt;7 -->
<g id="edge7" class="edge">
<title>1&#45;&gt;7</title>
<path fill="none" stroke="black" d="M359.18,-91.46C405.52,-76.92 482.17,-52.88 534.37,-36.51"/>
<polygon fill="black" stroke="black" points="535.65,-39.78 544.14,-33.44 533.55,-33.1 535.65,-39.78"/>
<text text-anchor="middle" x="482.69" y="-57.8" font-family="Times New Roman,serif" font-size="14.00">0.25</text>
</g>
<!-- 2 -->
<g id="node3" class="node">
<title>2</title>
<g id="a_node3"><a xlink:href="public affairs consultant (lobbyist).svg" xlink:title="public affairs consultant (lobbyist)">
<ellipse fill="none" stroke="black" cx="319.19" cy="-192" rx="135.38" ry="18"/>
<text text-anchor="middle" x="319.19" y="-188.3" font-family="Times New Roman,serif" font-size="14.00">public affairs consultant (lobbyist)</text>
</a>
</g>
</g>
<!-- 2&#45;&gt;1 -->
<g id="edge2" class="edge">
<title>2&#45;&gt;1</title>
<path fill="none" stroke="black" d="M319.19,-173.8C319.19,-162.16 319.19,-146.55 319.19,-133.24"/>
<polygon fill="black" stroke="black" points="322.69,-133.18 319.19,-123.18 315.69,-133.18 322.69,-133.18"/>
<text text-anchor="middle" x="334.69" y="-144.8" font-family="Times New Roman,serif" font-size="14.00">0.333</text>
</g>
<!-- 3 -->
<g id="node4" class="node">
<title>3</title>
<g id="a_node4"><a xlink:href="quality assurance manager.svg" xlink:title="quality assurance manager">
<ellipse fill="none" stroke="black" cx="577.19" cy="-192" rx="105.08" ry="18"/>
<text text-anchor="middle" x="577.19" y="-188.3" font-family="Times New Roman,serif" font-size="14.00">quality assurance manager</text>
</a>
</g>
</g>
<!-- 3&#45;&gt;1 -->
<g id="edge3" class="edge">
<title>3&#45;&gt;1</title>
<path fill="none" stroke="black" d="M531.07,-175.8C485.06,-160.65 414.66,-137.45 367.8,-122.01"/>
<polygon fill="black" stroke="black" points="368.77,-118.65 358.18,-118.84 366.58,-125.3 368.77,-118.65"/>
<text text-anchor="middle" x="479.69" y="-144.8" font-family="Times New Roman,serif" font-size="14.00">0.333</text>
</g>
</g>
</svg>
