<?xml version="1.0" encoding="UTF-8" standalone="no"?>
<!DOCTYPE svg PUBLIC "-//W3C//DTD SVG 1.1//EN"
 "http://www.w3.org/Graphics/SVG/1.1/DTD/svg11.dtd">
<!-- Generated by graphviz version 2.44.1 (20200629.0800)
 -->
<!-- Title: mining_engineer Pages: 1 -->
<svg width="1802pt" height="218pt"
 viewBox="0.00 0.00 1802.14 218.00" xmlns="http://www.w3.org/2000/svg" xmlns:xlink="http://www.w3.org/1999/xlink">
<g id="graph0" class="graph" transform="scale(1 1) rotate(0) translate(4 214)">
<title>mining_engineer</title>
<polygon fill="white" stroke="transparent" points="-4,4 -4,-214 1798.14,-214 1798.14,4 -4,4"/>
<!-- 0 -->
<g id="node1" class="node">
<title>0</title>
<g id="a_node1"><a xlink:href="it consultant.svg" xlink:title="it consultant">
<ellipse fill="none" stroke="black" cx="119.69" cy="-192" rx="54.69" ry="18"/>
<text text-anchor="middle" x="119.69" y="-188.3" font-family="Times New Roman,serif" font-size="14.00">it consultant</text>
</a>
</g>
</g>
<!-- 1 -->
<g id="node2" class="node">
<title>1</title>
<g id="a_node2"><a xlink:href="mining engineer.svg" xlink:title="mining engineer">
<ellipse fill="none" stroke="black" cx="616.69" cy="-105" rx="66.89" ry="18"/>
<text text-anchor="middle" x="616.69" y="-101.3" font-family="Times New Roman,serif" font-size="14.00">mining engineer</text>
</a>
</g>
</g>
<!-- 0&#45;&gt;1 -->
<g id="edge1" class="edge">
<title>0&#45;&gt;1</title>
<path fill="none" stroke="black" d="M159.83,-179.67C167.7,-177.63 175.93,-175.64 183.69,-174 310.85,-147.1 461.09,-125.82 547,-114.64"/>
<polygon fill="black" stroke="black" points="547.68,-118.08 557.15,-113.33 546.78,-111.14 547.68,-118.08"/>
<text text-anchor="middle" x="377.19" y="-144.8" font-family="Times New Roman,serif" font-size="14.00">0.048</text>
</g>
<!-- 1&#45;&gt;1 -->
<g id="edge10" class="edge">
<title>1&#45;&gt;1</title>
<path fill="none" stroke="black" d="M677.39,-112.7C691.37,-112.04 701.64,-109.47 701.64,-105 701.64,-101.72 696.1,-99.46 687.62,-98.23"/>
<polygon fill="black" stroke="black" points="687.67,-94.72 677.39,-97.3 687.04,-101.69 687.67,-94.72"/>
<text text-anchor="middle" x="717.14" y="-101.3" font-family="Times New Roman,serif" font-size="14.00">0.196</text>
</g>
<!-- 6 -->
<g id="node7" class="node">
<title>6</title>
<g id="a_node7"><a xlink:href="network administrator.svg" xlink:title="network administrator">
<ellipse fill="none" stroke="black" cx="89.69" cy="-18" rx="89.88" ry="18"/>
<text text-anchor="middle" x="89.69" y="-14.3" font-family="Times New Roman,serif" font-size="14.00">network administrator</text>
</a>
</g>
</g>
<!-- 1&#45;&gt;6 -->
<g id="edge11" class="edge">
<title>1&#45;&gt;6</title>
<path fill="none" stroke="black" d="M550.58,-101.6C448.29,-97.38 256.56,-87.29 190.69,-69 167.52,-62.57 143.32,-50.79 124.42,-40.28"/>
<polygon fill="black" stroke="black" points="126.02,-37.16 115.6,-35.25 122.55,-43.24 126.02,-37.16"/>
<text text-anchor="middle" x="206.19" y="-57.8" font-family="Times New Roman,serif" font-size="14.00">0.065</text>
</g>
<!-- 8 -->
<g id="node9" class="node">
<title>8</title>
<g id="a_node9"><a xlink:href="civil engineer.svg" xlink:title="civil engineer">
<ellipse fill="none" stroke="black" cx="255.69" cy="-18" rx="57.69" ry="18"/>
<text text-anchor="middle" x="255.69" y="-14.3" font-family="Times New Roman,serif" font-size="14.00">civil engineer</text>
</a>
</g>
</g>
<!-- 1&#45;&gt;8 -->
<g id="edge12" class="edge">
<title>1&#45;&gt;8</title>
<path fill="none" stroke="black" d="M552.49,-99.83C501.81,-95.38 429.73,-86.45 368.69,-69 342.46,-61.5 314.4,-49.11 292.81,-38.54"/>
<polygon fill="black" stroke="black" points="294.18,-35.32 283.67,-33.99 291.06,-41.59 294.18,-35.32"/>
<text text-anchor="middle" x="384.19" y="-57.8" font-family="Times New Roman,serif" font-size="14.00">0.049</text>
</g>
<!-- 10 -->
<g id="node11" class="node">
<title>10</title>
<g id="a_node11"><a xlink:href="engineering geologist.svg" xlink:title="engineering geologist">
<ellipse fill="none" stroke="black" cx="417.69" cy="-18" rx="86.38" ry="18"/>
<text text-anchor="middle" x="417.69" y="-14.3" font-family="Times New Roman,serif" font-size="14.00">engineering geologist</text>
</a>
</g>
</g>
<!-- 1&#45;&gt;10 -->
<g id="edge13" class="edge">
<title>1&#45;&gt;10</title>
<path fill="none" stroke="black" d="M582.48,-89.39C549.53,-75.31 499.48,-53.93 463.18,-38.43"/>
<polygon fill="black" stroke="black" points="464.38,-35.13 453.81,-34.43 461.63,-41.57 464.38,-35.13"/>
<text text-anchor="middle" x="545.19" y="-57.8" font-family="Times New Roman,serif" font-size="14.00">0.049</text>
</g>
<!-- 11 -->
<g id="node12" class="node">
<title>11</title>
<g id="a_node12"><a xlink:href="manufacturing engineer.svg" xlink:title="manufacturing engineer">
<ellipse fill="none" stroke="black" cx="616.69" cy="-18" rx="94.48" ry="18"/>
<text text-anchor="middle" x="616.69" y="-14.3" font-family="Times New Roman,serif" font-size="14.00">manufacturing engineer</text>
</a>
</g>
</g>
<!-- 1&#45;&gt;11 -->
<g id="edge14" class="edge">
<title>1&#45;&gt;11</title>
<path fill="none" stroke="black" d="M616.69,-86.8C616.69,-75.16 616.69,-59.55 616.69,-46.24"/>
<polygon fill="black" stroke="black" points="620.19,-46.18 616.69,-36.18 613.19,-46.18 620.19,-46.18"/>
<text text-anchor="middle" x="632.19" y="-57.8" font-family="Times New Roman,serif" font-size="14.00">0.049</text>
</g>
<!-- 12 -->
<g id="node13" class="node">
<title>12</title>
<g id="a_node13"><a xlink:href="aeronautical engineer.svg" xlink:title="aeronautical engineer">
<ellipse fill="none" stroke="black" cx="814.69" cy="-18" rx="85.59" ry="18"/>
<text text-anchor="middle" x="814.69" y="-14.3" font-family="Times New Roman,serif" font-size="14.00">aeronautical engineer</text>
</a>
</g>
</g>
<!-- 1&#45;&gt;12 -->
<g id="edge15" class="edge">
<title>1&#45;&gt;12</title>
<path fill="none" stroke="black" d="M650.73,-89.39C683.51,-75.31 733.31,-53.93 769.43,-38.43"/>
<polygon fill="black" stroke="black" points="770.95,-41.59 778.76,-34.43 768.19,-35.15 770.95,-41.59"/>
<text text-anchor="middle" x="743.19" y="-57.8" font-family="Times New Roman,serif" font-size="14.00">0.032</text>
</g>
<!-- 13 -->
<g id="node14" class="node">
<title>13</title>
<g id="a_node14"><a xlink:href="computer sales support.svg" xlink:title="computer sales support">
<ellipse fill="none" stroke="black" cx="1014.69" cy="-18" rx="96.38" ry="18"/>
<text text-anchor="middle" x="1014.69" y="-14.3" font-family="Times New Roman,serif" font-size="14.00">computer sales support</text>
</a>
</g>
</g>
<!-- 1&#45;&gt;13 -->
<g id="edge16" class="edge">
<title>1&#45;&gt;13</title>
<path fill="none" stroke="black" d="M667.5,-93.15C737.64,-78.17 864.44,-51.09 943.85,-34.13"/>
<polygon fill="black" stroke="black" points="944.72,-37.52 953.77,-32.01 943.26,-30.68 944.72,-37.52"/>
<text text-anchor="middle" x="854.19" y="-57.8" font-family="Times New Roman,serif" font-size="14.00">0.032</text>
</g>
<!-- 14 -->
<g id="node15" class="node">
<title>14</title>
<g id="a_node15"><a xlink:href="control and instrumentation engineer.svg" xlink:title="control and instrumentation engineer">
<ellipse fill="none" stroke="black" cx="1270.69" cy="-18" rx="141.88" ry="18"/>
<text text-anchor="middle" x="1270.69" y="-14.3" font-family="Times New Roman,serif" font-size="14.00">control and instrumentation engineer</text>
</a>
</g>
</g>
<!-- 1&#45;&gt;14 -->
<g id="edge17" class="edge">
<title>1&#45;&gt;14</title>
<path fill="none" stroke="black" d="M675.59,-96.34C786.17,-81.97 1026.2,-50.78 1165.27,-32.7"/>
<polygon fill="black" stroke="black" points="1166.05,-36.13 1175.52,-31.37 1165.15,-29.19 1166.05,-36.13"/>
<text text-anchor="middle" x="998.19" y="-57.8" font-family="Times New Roman,serif" font-size="14.00">0.032</text>
</g>
<!-- 15 -->
<g id="node16" class="node">
<title>15</title>
<g id="a_node16"><a xlink:href="health and safety adviser.svg" xlink:title="health and safety adviser">
<ellipse fill="none" stroke="black" cx="1529.69" cy="-18" rx="99.38" ry="18"/>
<text text-anchor="middle" x="1529.69" y="-14.3" font-family="Times New Roman,serif" font-size="14.00">health and safety adviser</text>
</a>
</g>
</g>
<!-- 1&#45;&gt;15 -->
<g id="edge18" class="edge">
<title>1&#45;&gt;15</title>
<path fill="none" stroke="black" d="M681.29,-100.12C818.13,-91.57 1147.21,-69.15 1421.69,-36 1430.69,-34.91 1440.08,-33.64 1449.42,-32.29"/>
<polygon fill="black" stroke="black" points="1450.12,-35.72 1459.5,-30.8 1449.09,-28.8 1450.12,-35.72"/>
<text text-anchor="middle" x="1261.19" y="-57.8" font-family="Times New Roman,serif" font-size="14.00">0.032</text>
</g>
<!-- 16 -->
<g id="node17" class="node">
<title>16</title>
<g id="a_node17"><a xlink:href="logistics manager.svg" xlink:title="logistics manager">
<ellipse fill="none" stroke="black" cx="1720.69" cy="-18" rx="73.39" ry="18"/>
<text text-anchor="middle" x="1720.69" y="-14.3" font-family="Times New Roman,serif" font-size="14.00">logistics manager</text>
</a>
</g>
</g>
<!-- 1&#45;&gt;16 -->
<g id="edge19" class="edge">
<title>1&#45;&gt;16</title>
<path fill="none" stroke="black" d="M683.38,-103.27C846.91,-100.67 1280.52,-88.92 1637.69,-36 1644.34,-35.02 1651.26,-33.84 1658.14,-32.57"/>
<polygon fill="black" stroke="black" points="1658.99,-35.98 1668.16,-30.67 1657.68,-29.1 1658.99,-35.98"/>
<text text-anchor="middle" x="1515.19" y="-57.8" font-family="Times New Roman,serif" font-size="14.00">0.032</text>
</g>
<!-- 2 -->
<g id="node3" class="node">
<title>2</title>
<g id="a_node3"><a xlink:href="mechanical engineer.svg" xlink:title="mechanical engineer">
<ellipse fill="none" stroke="black" cx="275.69" cy="-192" rx="83.39" ry="18"/>
<text text-anchor="middle" x="275.69" y="-188.3" font-family="Times New Roman,serif" font-size="14.00">mechanical engineer</text>
</a>
</g>
</g>
<!-- 2&#45;&gt;1 -->
<g id="edge2" class="edge">
<title>2&#45;&gt;1</title>
<path fill="none" stroke="black" d="M328.23,-177.91C390.74,-162.32 494.74,-136.4 559.31,-120.3"/>
<polygon fill="black" stroke="black" points="560.47,-123.62 569.32,-117.81 558.77,-116.83 560.47,-123.62"/>
<text text-anchor="middle" x="482.19" y="-144.8" font-family="Times New Roman,serif" font-size="14.00">0.048</text>
</g>
<!-- 3 -->
<g id="node4" class="node">
<title>3</title>
<g id="a_node4"><a xlink:href="research scientist.svg" xlink:title="research scientist">
<ellipse fill="none" stroke="black" cx="449.69" cy="-192" rx="72.59" ry="18"/>
<text text-anchor="middle" x="449.69" y="-188.3" font-family="Times New Roman,serif" font-size="14.00">research scientist</text>
</a>
</g>
</g>
<!-- 3&#45;&gt;1 -->
<g id="edge3" class="edge">
<title>3&#45;&gt;1</title>
<path fill="none" stroke="black" d="M479.93,-175.61C507.33,-161.66 547.85,-141.04 577.68,-125.86"/>
<polygon fill="black" stroke="black" points="579.63,-128.79 586.96,-121.14 576.46,-122.55 579.63,-128.79"/>
<text text-anchor="middle" x="559.19" y="-144.8" font-family="Times New Roman,serif" font-size="14.00">0.048</text>
</g>
<!-- 4 -->
<g id="node5" class="node">
<title>4</title>
<g id="a_node5"><a xlink:href="structural engineer.svg" xlink:title="structural engineer">
<ellipse fill="none" stroke="black" cx="616.69" cy="-192" rx="76.89" ry="18"/>
<text text-anchor="middle" x="616.69" y="-188.3" font-family="Times New Roman,serif" font-size="14.00">structural engineer</text>
</a>
</g>
</g>
<!-- 4&#45;&gt;1 -->
<g id="edge4" class="edge">
<title>4&#45;&gt;1</title>
<path fill="none" stroke="black" d="M616.69,-173.8C616.69,-162.16 616.69,-146.55 616.69,-133.24"/>
<polygon fill="black" stroke="black" points="620.19,-133.18 616.69,-123.18 613.19,-133.18 620.19,-133.18"/>
<text text-anchor="middle" x="632.19" y="-144.8" font-family="Times New Roman,serif" font-size="14.00">0.048</text>
</g>
<!-- 5 -->
<g id="node6" class="node">
<title>5</title>
<g id="a_node6"><a xlink:href="electrical engineer.svg" xlink:title="electrical engineer">
<ellipse fill="none" stroke="black" cx="785.69" cy="-192" rx="74.99" ry="18"/>
<text text-anchor="middle" x="785.69" y="-188.3" font-family="Times New Roman,serif" font-size="14.00">electrical engineer</text>
</a>
</g>
</g>
<!-- 5&#45;&gt;1 -->
<g id="edge5" class="edge">
<title>5&#45;&gt;1</title>
<path fill="none" stroke="black" d="M754.69,-175.41C726.89,-161.42 685.95,-140.83 655.88,-125.71"/>
<polygon fill="black" stroke="black" points="657.43,-122.57 646.92,-121.21 654.29,-128.83 657.43,-122.57"/>
<text text-anchor="middle" x="727.19" y="-144.8" font-family="Times New Roman,serif" font-size="14.00">0.036</text>
</g>
<!-- 6&#45;&gt;1 -->
<g id="edge6" class="edge">
<title>6&#45;&gt;1</title>
<path fill="none" stroke="black" d="M138.94,-33.09C179.8,-44.31 239.61,-59.64 292.69,-69 377.71,-83.99 476.49,-93.55 542.41,-98.82"/>
<polygon fill="black" stroke="black" points="542.46,-102.33 552.71,-99.63 543.01,-95.36 542.46,-102.33"/>
<text text-anchor="middle" x="308.19" y="-57.8" font-family="Times New Roman,serif" font-size="14.00">0.036</text>
</g>
<!-- 7 -->
<g id="node8" class="node">
<title>7</title>
<g id="a_node8"><a xlink:href="project manager.svg" xlink:title="project manager">
<ellipse fill="none" stroke="black" cx="947.69" cy="-192" rx="68.79" ry="18"/>
<text text-anchor="middle" x="947.69" y="-188.3" font-family="Times New Roman,serif" font-size="14.00">project manager</text>
</a>
</g>
</g>
<!-- 7&#45;&gt;1 -->
<g id="edge7" class="edge">
<title>7&#45;&gt;1</title>
<path fill="none" stroke="black" d="M900.27,-178.82C840.29,-163.42 737.13,-136.93 673.15,-120.5"/>
<polygon fill="black" stroke="black" points="673.78,-117.05 663.23,-117.95 672.04,-123.83 673.78,-117.05"/>
<text text-anchor="middle" x="818.19" y="-144.8" font-family="Times New Roman,serif" font-size="14.00">0.036</text>
</g>
<!-- 8&#45;&gt;1 -->
<g id="edge8" class="edge">
<title>8&#45;&gt;1</title>
<path fill="none" stroke="black" d="M298.91,-30.11C306.81,-32.1 314.99,-34.13 322.69,-36 403.67,-55.64 497.51,-77.12 556.97,-90.58"/>
<polygon fill="black" stroke="black" points="556.41,-94.04 566.94,-92.83 557.96,-87.21 556.41,-94.04"/>
<text text-anchor="middle" x="475.19" y="-57.8" font-family="Times New Roman,serif" font-size="14.00">0.024</text>
</g>
<!-- 9 -->
<g id="node10" class="node">
<title>9</title>
<g id="a_node10"><a xlink:href="education administrator.svg" xlink:title="education administrator">
<ellipse fill="none" stroke="black" cx="1129.69" cy="-192" rx="95.58" ry="18"/>
<text text-anchor="middle" x="1129.69" y="-188.3" font-family="Times New Roman,serif" font-size="14.00">education administrator</text>
</a>
</g>
</g>
<!-- 9&#45;&gt;1 -->
<g id="edge9" class="edge">
<title>9&#45;&gt;1</title>
<path fill="none" stroke="black" d="M1062.17,-179.19C1003.02,-168.91 914.7,-153.69 837.69,-141 785.78,-132.44 726.93,-123.14 683.02,-116.28"/>
<polygon fill="black" stroke="black" points="683.46,-112.81 673.04,-114.72 682.38,-119.73 683.46,-112.81"/>
<text text-anchor="middle" x="941.19" y="-144.8" font-family="Times New Roman,serif" font-size="14.00">0.024</text>
</g>
</g>
</svg>
