<?xml version="1.0" encoding="UTF-8" standalone="no"?>
<!DOCTYPE svg PUBLIC "-//W3C//DTD SVG 1.1//EN"
 "http://www.w3.org/Graphics/SVG/1.1/DTD/svg11.dtd">
<!-- Generated by graphviz version 2.44.1 (20200629.0800)
 -->
<!-- Title: network_administrator Pages: 1 -->
<svg width="1479pt" height="218pt"
 viewBox="0.00 0.00 1479.19 218.00" xmlns="http://www.w3.org/2000/svg" xmlns:xlink="http://www.w3.org/1999/xlink">
<g id="graph0" class="graph" transform="scale(1 1) rotate(0) translate(4 214)">
<title>network_administrator</title>
<polygon fill="white" stroke="transparent" points="-4,4 -4,-214 1475.19,-214 1475.19,4 -4,4"/>
<!-- 0 -->
<g id="node1" class="node">
<title>0</title>
<g id="a_node1"><a xlink:href="computer sales support.svg" xlink:title="computer sales support">
<ellipse fill="none" stroke="black" cx="387.6" cy="-192" rx="96.38" ry="18"/>
<text text-anchor="middle" x="387.6" y="-188.3" font-family="Times New Roman,serif" font-size="14.00">computer sales support</text>
</a>
</g>
</g>
<!-- 1 -->
<g id="node2" class="node">
<title>1</title>
<g id="a_node2"><a xlink:href="network administrator.svg" xlink:title="network administrator">
<ellipse fill="none" stroke="black" cx="593.6" cy="-105" rx="89.88" ry="18"/>
<text text-anchor="middle" x="593.6" y="-101.3" font-family="Times New Roman,serif" font-size="14.00">network administrator</text>
</a>
</g>
</g>
<!-- 0&#45;&gt;1 -->
<g id="edge1" class="edge">
<title>0&#45;&gt;1</title>
<path fill="none" stroke="black" d="M425.38,-175.41C459.5,-161.33 509.84,-140.56 546.56,-125.41"/>
<polygon fill="black" stroke="black" points="548.14,-128.54 556.05,-121.49 545.47,-122.07 548.14,-128.54"/>
<text text-anchor="middle" x="519.1" y="-144.8" font-family="Times New Roman,serif" font-size="14.00">0.053</text>
</g>
<!-- 1&#45;&gt;1 -->
<g id="edge10" class="edge">
<title>1&#45;&gt;1</title>
<path fill="none" stroke="black" d="M675.3,-112.47C690.55,-111.55 701.29,-109.06 701.29,-105 701.29,-101.92 695.12,-99.75 685.5,-98.47"/>
<polygon fill="black" stroke="black" points="685.58,-94.97 675.3,-97.53 684.94,-101.94 685.58,-94.97"/>
<text text-anchor="middle" x="716.79" y="-101.3" font-family="Times New Roman,serif" font-size="14.00">0.367</text>
</g>
<!-- 2 -->
<g id="node3" class="node">
<title>2</title>
<g id="a_node3"><a xlink:href="it consultant.svg" xlink:title="it consultant">
<ellipse fill="none" stroke="black" cx="54.6" cy="-18" rx="54.69" ry="18"/>
<text text-anchor="middle" x="54.6" y="-14.3" font-family="Times New Roman,serif" font-size="14.00">it consultant</text>
</a>
</g>
</g>
<!-- 1&#45;&gt;2 -->
<g id="edge13" class="edge">
<title>1&#45;&gt;2</title>
<path fill="none" stroke="black" d="M503.9,-103.12C387.45,-100.98 191.12,-93.7 123.6,-69 107.3,-63.04 91.45,-52.04 79.06,-41.88"/>
<polygon fill="black" stroke="black" points="81.32,-39.21 71.45,-35.38 76.78,-44.53 81.32,-39.21"/>
<text text-anchor="middle" x="139.1" y="-57.8" font-family="Times New Roman,serif" font-size="14.00">0.044</text>
</g>
<!-- 3 -->
<g id="node4" class="node">
<title>3</title>
<g id="a_node4"><a xlink:href="project manager.svg" xlink:title="project manager">
<ellipse fill="none" stroke="black" cx="195.6" cy="-18" rx="68.79" ry="18"/>
<text text-anchor="middle" x="195.6" y="-14.3" font-family="Times New Roman,serif" font-size="14.00">project manager</text>
</a>
</g>
</g>
<!-- 1&#45;&gt;3 -->
<g id="edge11" class="edge">
<title>1&#45;&gt;3</title>
<path fill="none" stroke="black" d="M504.37,-103.07C441.82,-100.22 356.96,-91.87 285.6,-69 265.06,-62.42 243.89,-50.93 227.24,-40.63"/>
<polygon fill="black" stroke="black" points="228.81,-37.48 218.49,-35.07 225.05,-43.39 228.81,-37.48"/>
<text text-anchor="middle" x="301.1" y="-57.8" font-family="Times New Roman,serif" font-size="14.00">0.067</text>
</g>
<!-- 4 -->
<g id="node5" class="node">
<title>4</title>
<g id="a_node5"><a xlink:href="mechanical engineer.svg" xlink:title="mechanical engineer">
<ellipse fill="none" stroke="black" cx="365.6" cy="-18" rx="83.39" ry="18"/>
<text text-anchor="middle" x="365.6" y="-14.3" font-family="Times New Roman,serif" font-size="14.00">mechanical engineer</text>
</a>
</g>
</g>
<!-- 1&#45;&gt;4 -->
<g id="edge18" class="edge">
<title>1&#45;&gt;4</title>
<path fill="none" stroke="black" d="M515.75,-95.89C486.45,-90.78 453.49,-82.48 425.6,-69 412.17,-62.51 399.21,-52.37 388.79,-42.92"/>
<polygon fill="black" stroke="black" points="391.02,-40.21 381.35,-35.89 386.21,-45.3 391.02,-40.21"/>
<text text-anchor="middle" x="441.1" y="-57.8" font-family="Times New Roman,serif" font-size="14.00">0.035</text>
</g>
<!-- 6 -->
<g id="node7" class="node">
<title>6</title>
<g id="a_node7"><a xlink:href="facilities manager.svg" xlink:title="facilities manager">
<ellipse fill="none" stroke="black" cx="539.6" cy="-18" rx="72.59" ry="18"/>
<text text-anchor="middle" x="539.6" y="-14.3" font-family="Times New Roman,serif" font-size="14.00">facilities manager</text>
</a>
</g>
</g>
<!-- 1&#45;&gt;6 -->
<g id="edge17" class="edge">
<title>1&#45;&gt;6</title>
<path fill="none" stroke="black" d="M556.25,-88.61C548.4,-83.57 541.13,-77.11 536.6,-69 532.8,-62.22 532.02,-54.08 532.61,-46.35"/>
<polygon fill="black" stroke="black" points="536.11,-46.65 534.12,-36.24 529.18,-45.62 536.11,-46.65"/>
<text text-anchor="middle" x="552.1" y="-57.8" font-family="Times New Roman,serif" font-size="14.00">0.035</text>
</g>
<!-- 8 -->
<g id="node9" class="node">
<title>8</title>
<g id="a_node9"><a xlink:href="pharmacovigilance officer.svg" xlink:title="pharmacovigilance officer">
<ellipse fill="none" stroke="black" cx="734.6" cy="-18" rx="104.78" ry="18"/>
<text text-anchor="middle" x="734.6" y="-14.3" font-family="Times New Roman,serif" font-size="14.00">pharmacovigilance officer</text>
</a>
</g>
</g>
<!-- 1&#45;&gt;8 -->
<g id="edge14" class="edge">
<title>1&#45;&gt;8</title>
<path fill="none" stroke="black" d="M611.99,-87.38C624.1,-76.97 640.61,-63.72 656.6,-54 665.53,-48.57 675.46,-43.47 685.16,-38.94"/>
<polygon fill="black" stroke="black" points="686.68,-42.09 694.34,-34.78 683.79,-35.72 686.68,-42.09"/>
<text text-anchor="middle" x="672.1" y="-57.8" font-family="Times New Roman,serif" font-size="14.00">0.044</text>
</g>
<!-- 9 -->
<g id="node10" class="node">
<title>9</title>
<g id="a_node10"><a xlink:href="structural engineer.svg" xlink:title="structural engineer">
<ellipse fill="none" stroke="black" cx="933.6" cy="-18" rx="76.89" ry="18"/>
<text text-anchor="middle" x="933.6" y="-14.3" font-family="Times New Roman,serif" font-size="14.00">structural engineer</text>
</a>
</g>
</g>
<!-- 1&#45;&gt;9 -->
<g id="edge12" class="edge">
<title>1&#45;&gt;9</title>
<path fill="none" stroke="black" d="M651.04,-91.06C679.02,-84.64 713.12,-76.64 743.6,-69 768.59,-62.74 774.69,-60.59 799.6,-54 824.1,-47.52 851.15,-40.44 874.5,-34.35"/>
<polygon fill="black" stroke="black" points="875.46,-37.72 884.25,-31.81 873.7,-30.94 875.46,-37.72"/>
<text text-anchor="middle" x="815.1" y="-57.8" font-family="Times New Roman,serif" font-size="14.00">0.049</text>
</g>
<!-- 10 -->
<g id="node11" class="node">
<title>10</title>
<g id="a_node11"><a xlink:href="sales manager.svg" xlink:title="sales manager">
<ellipse fill="none" stroke="black" cx="1089.6" cy="-18" rx="61.19" ry="18"/>
<text text-anchor="middle" x="1089.6" y="-14.3" font-family="Times New Roman,serif" font-size="14.00">sales manager</text>
</a>
</g>
</g>
<!-- 1&#45;&gt;10 -->
<g id="edge15" class="edge">
<title>1&#45;&gt;10</title>
<path fill="none" stroke="black" d="M676.89,-98.16C740.03,-92.88 828.76,-83.66 905.6,-69 951.66,-60.21 1003.1,-45.84 1039.85,-34.75"/>
<polygon fill="black" stroke="black" points="1041.26,-37.98 1049.81,-31.72 1039.22,-31.28 1041.26,-37.98"/>
<text text-anchor="middle" x="982.1" y="-57.8" font-family="Times New Roman,serif" font-size="14.00">0.044</text>
</g>
<!-- 11 -->
<g id="node12" class="node">
<title>11</title>
<g id="a_node12"><a xlink:href="electrical engineer.svg" xlink:title="electrical engineer">
<ellipse fill="none" stroke="black" cx="1243.6" cy="-18" rx="74.99" ry="18"/>
<text text-anchor="middle" x="1243.6" y="-14.3" font-family="Times New Roman,serif" font-size="14.00">electrical engineer</text>
</a>
</g>
</g>
<!-- 1&#45;&gt;11 -->
<g id="edge16" class="edge">
<title>1&#45;&gt;11</title>
<path fill="none" stroke="black" d="M679.5,-99.59C762.3,-94.64 890.97,-85.12 1001.6,-69 1063.95,-59.92 1134.42,-44.8 1183.16,-33.56"/>
<polygon fill="black" stroke="black" points="1183.97,-36.96 1192.92,-31.29 1182.38,-30.14 1183.97,-36.96"/>
<text text-anchor="middle" x="1097.1" y="-57.8" font-family="Times New Roman,serif" font-size="14.00">0.040</text>
</g>
<!-- 12 -->
<g id="node13" class="node">
<title>12</title>
<g id="a_node13"><a xlink:href="systems analyst.svg" xlink:title="systems analyst">
<ellipse fill="none" stroke="black" cx="1403.6" cy="-18" rx="67.69" ry="18"/>
<text text-anchor="middle" x="1403.6" y="-14.3" font-family="Times New Roman,serif" font-size="14.00">systems analyst</text>
</a>
</g>
</g>
<!-- 1&#45;&gt;12 -->
<g id="edge19" class="edge">
<title>1&#45;&gt;12</title>
<path fill="none" stroke="black" d="M680.79,-100.52C784.78,-95.83 963.75,-86.03 1116.6,-69 1210.93,-58.49 1234.34,-53.7 1327.6,-36 1333.07,-34.96 1338.76,-33.81 1344.45,-32.62"/>
<polygon fill="black" stroke="black" points="1345.59,-35.96 1354.63,-30.44 1344.12,-29.11 1345.59,-35.96"/>
<text text-anchor="middle" x="1244.1" y="-57.8" font-family="Times New Roman,serif" font-size="14.00">0.035</text>
</g>
<!-- 2&#45;&gt;1 -->
<g id="edge2" class="edge">
<title>2&#45;&gt;1</title>
<path fill="none" stroke="black" d="M89.36,-31.94C122,-43.54 172.44,-60.07 217.6,-69 311,-87.47 419.44,-96.25 495.79,-100.39"/>
<polygon fill="black" stroke="black" points="495.7,-103.89 505.87,-100.92 496.07,-96.9 495.7,-103.89"/>
<text text-anchor="middle" x="233.1" y="-57.8" font-family="Times New Roman,serif" font-size="14.00">0.039</text>
</g>
<!-- 3&#45;&gt;1 -->
<g id="edge3" class="edge">
<title>3&#45;&gt;1</title>
<path fill="none" stroke="black" d="M241.72,-31.49C265.36,-38 294.58,-46.21 320.6,-54 341.6,-60.29 346.25,-63.97 367.6,-69 413.48,-79.81 465.42,-88.12 507.92,-93.92"/>
<polygon fill="black" stroke="black" points="507.58,-97.41 517.95,-95.27 508.51,-90.47 507.58,-97.41"/>
<text text-anchor="middle" x="383.1" y="-57.8" font-family="Times New Roman,serif" font-size="14.00">0.039</text>
</g>
<!-- 4&#45;&gt;1 -->
<g id="edge4" class="edge">
<title>4&#45;&gt;1</title>
<path fill="none" stroke="black" d="M405.23,-33.93C437.72,-46.17 481.08,-62.48 498.6,-69 512.92,-74.33 528.47,-80.08 542.76,-85.34"/>
<polygon fill="black" stroke="black" points="541.83,-88.73 552.42,-88.9 544.25,-82.16 541.83,-88.73"/>
<text text-anchor="middle" x="514.1" y="-57.8" font-family="Times New Roman,serif" font-size="14.00">0.025</text>
</g>
<!-- 5 -->
<g id="node6" class="node">
<title>5</title>
<g id="a_node6"><a xlink:href="database administrator.svg" xlink:title="database administrator">
<ellipse fill="none" stroke="black" cx="593.6" cy="-192" rx="92.08" ry="18"/>
<text text-anchor="middle" x="593.6" y="-188.3" font-family="Times New Roman,serif" font-size="14.00">database administrator</text>
</a>
</g>
</g>
<!-- 5&#45;&gt;1 -->
<g id="edge5" class="edge">
<title>5&#45;&gt;1</title>
<path fill="none" stroke="black" d="M593.6,-173.8C593.6,-162.16 593.6,-146.55 593.6,-133.24"/>
<polygon fill="black" stroke="black" points="597.1,-133.18 593.6,-123.18 590.1,-133.18 597.1,-133.18"/>
<text text-anchor="middle" x="609.1" y="-144.8" font-family="Times New Roman,serif" font-size="14.00">0.021</text>
</g>
<!-- 6&#45;&gt;1 -->
<g id="edge6" class="edge">
<title>6&#45;&gt;1</title>
<path fill="none" stroke="black" d="M556.74,-35.52C561.93,-41.07 567.37,-47.52 571.6,-54 576.26,-61.15 580.36,-69.45 583.72,-77.21"/>
<polygon fill="black" stroke="black" points="580.54,-78.69 587.57,-86.63 587.02,-76.05 580.54,-78.69"/>
<text text-anchor="middle" x="596.1" y="-57.8" font-family="Times New Roman,serif" font-size="14.00">0.021</text>
</g>
<!-- 7 -->
<g id="node8" class="node">
<title>7</title>
<g id="a_node8"><a xlink:href="geographical information systems manager.svg" xlink:title="geographical information systems manager">
<ellipse fill="none" stroke="black" cx="868.6" cy="-192" rx="165.17" ry="18"/>
<text text-anchor="middle" x="868.6" y="-188.3" font-family="Times New Roman,serif" font-size="14.00">geographical information systems manager</text>
</a>
</g>
</g>
<!-- 7&#45;&gt;1 -->
<g id="edge7" class="edge">
<title>7&#45;&gt;1</title>
<path fill="none" stroke="black" d="M816.55,-174.91C769.06,-160.23 699.03,-138.59 650.17,-123.49"/>
<polygon fill="black" stroke="black" points="650.98,-120.07 640.39,-120.46 648.91,-126.76 650.98,-120.07"/>
<text text-anchor="middle" x="763.1" y="-144.8" font-family="Times New Roman,serif" font-size="14.00">0.021</text>
</g>
<!-- 8&#45;&gt;1 -->
<g id="edge8" class="edge">
<title>8&#45;&gt;1</title>
<path fill="none" stroke="black" d="M723.22,-36.33C715.43,-47.02 704.24,-60.31 691.6,-69 681.08,-76.22 668.91,-82.12 656.79,-86.88"/>
<polygon fill="black" stroke="black" points="655.29,-83.71 647.12,-90.46 657.71,-90.27 655.29,-83.71"/>
<text text-anchor="middle" x="724.1" y="-57.8" font-family="Times New Roman,serif" font-size="14.00">0.021</text>
</g>
<!-- 9&#45;&gt;1 -->
<g id="edge9" class="edge">
<title>9&#45;&gt;1</title>
<path fill="none" stroke="black" d="M907.69,-35.02C888.28,-46.28 860.67,-60.76 834.6,-69 787.28,-83.95 732.69,-92.55 687.44,-97.47"/>
<polygon fill="black" stroke="black" points="686.92,-94.01 677.34,-98.53 687.65,-100.97 686.92,-94.01"/>
<text text-anchor="middle" x="886.1" y="-57.8" font-family="Times New Roman,serif" font-size="14.00">0.021</text>
</g>
</g>
</svg>
