<?xml version="1.0" encoding="UTF-8" standalone="no"?>
<!DOCTYPE svg PUBLIC "-//W3C//DTD SVG 1.1//EN"
 "http://www.w3.org/Graphics/SVG/1.1/DTD/svg11.dtd">
<!-- Generated by graphviz version 2.44.1 (20200629.0800)
 -->
<!-- Title: test Pages: 1 -->
<svg width="1677pt" height="218pt"
 viewBox="0.00 0.00 1676.78 218.00" xmlns="http://www.w3.org/2000/svg" xmlns:xlink="http://www.w3.org/1999/xlink">
<g id="graph0" class="graph" transform="scale(1 1) rotate(0) translate(4 214)">
<title>test</title>
<polygon fill="white" stroke="transparent" points="-4,4 -4,-214 1672.78,-214 1672.78,4 -4,4"/>
<!-- 0 -->
<g id="node1" class="node">
<title>0</title>
<g id="a_node1"><a xlink:href="community worker.svg" xlink:title="community worker">
<ellipse fill="none" stroke="black" cx="166.69" cy="-192" rx="79.09" ry="18"/>
<text text-anchor="middle" x="166.69" y="-188.3" font-family="Times New Roman,serif" font-size="14.00">community worker</text>
</a>
</g>
</g>
<!-- 1 -->
<g id="node2" class="node">
<title>1</title>
<g id="a_node2"><a xlink:href="nurse.svg" xlink:title="nurse">
<ellipse fill="none" stroke="black" cx="544.69" cy="-105" rx="30.59" ry="18"/>
<text text-anchor="middle" x="544.69" y="-101.3" font-family="Times New Roman,serif" font-size="14.00">nurse</text>
</a>
</g>
</g>
<!-- 0&#45;&gt;1 -->
<g id="edge1" class="edge">
<title>0&#45;&gt;1</title>
<path fill="none" stroke="black" d="M220.85,-178.82C298.52,-161.36 439.58,-129.64 506.93,-114.49"/>
<polygon fill="black" stroke="black" points="507.72,-117.9 516.7,-112.29 506.18,-111.07 507.72,-117.9"/>
<text text-anchor="middle" x="391.19" y="-144.8" font-family="Times New Roman,serif" font-size="14.00">0.08</text>
</g>
<!-- 1&#45;&gt;1 -->
<g id="edge10" class="edge">
<title>1&#45;&gt;1</title>
<path fill="none" stroke="black" d="M572.63,-112.83C583.83,-113.27 593.24,-110.66 593.24,-105 593.24,-101.2 588.99,-98.77 582.81,-97.72"/>
<polygon fill="black" stroke="black" points="582.8,-94.22 572.63,-97.17 582.43,-101.21 582.8,-94.22"/>
<text text-anchor="middle" x="608.74" y="-101.3" font-family="Times New Roman,serif" font-size="14.00">0.631</text>
</g>
<!-- 3 -->
<g id="node4" class="node">
<title>3</title>
<g id="a_node4"><a xlink:href="agricultural consultant.svg" xlink:title="agricultural consultant">
<ellipse fill="none" stroke="black" cx="89.69" cy="-18" rx="89.88" ry="18"/>
<text text-anchor="middle" x="89.69" y="-14.3" font-family="Times New Roman,serif" font-size="14.00">agricultural consultant</text>
</a>
</g>
</g>
<!-- 1&#45;&gt;3 -->
<g id="edge13" class="edge">
<title>1&#45;&gt;3</title>
<path fill="none" stroke="black" d="M514.4,-102.53C439.48,-98.67 247.07,-87.23 185.69,-69 163.91,-62.53 141.29,-51.02 123.48,-40.67"/>
<polygon fill="black" stroke="black" points="125.01,-37.51 114.63,-35.4 121.43,-43.52 125.01,-37.51"/>
<text text-anchor="middle" x="201.19" y="-57.8" font-family="Times New Roman,serif" font-size="14.00">0.052</text>
</g>
<!-- 4 -->
<g id="node5" class="node">
<title>4</title>
<g id="a_node5"><a xlink:href="clinical biochemist.svg" xlink:title="clinical biochemist">
<ellipse fill="none" stroke="black" cx="274.69" cy="-18" rx="77.19" ry="18"/>
<text text-anchor="middle" x="274.69" y="-14.3" font-family="Times New Roman,serif" font-size="14.00">clinical biochemist</text>
</a>
</g>
</g>
<!-- 1&#45;&gt;4 -->
<g id="edge12" class="edge">
<title>1&#45;&gt;4</title>
<path fill="none" stroke="black" d="M514.03,-103.44C472.56,-101.66 397.1,-94.79 338.69,-69 324.26,-62.63 310.23,-52.28 298.99,-42.65"/>
<polygon fill="black" stroke="black" points="301.14,-39.87 291.34,-35.83 296.48,-45.09 301.14,-39.87"/>
<text text-anchor="middle" x="354.19" y="-57.8" font-family="Times New Roman,serif" font-size="14.00">0.105</text>
</g>
<!-- 5 -->
<g id="node6" class="node">
<title>5</title>
<g id="a_node6"><a xlink:href="facilities manager.svg" xlink:title="facilities manager">
<ellipse fill="none" stroke="black" cx="442.69" cy="-18" rx="72.59" ry="18"/>
<text text-anchor="middle" x="442.69" y="-14.3" font-family="Times New Roman,serif" font-size="14.00">facilities manager</text>
</a>
</g>
</g>
<!-- 1&#45;&gt;5 -->
<g id="edge18" class="edge">
<title>1&#45;&gt;5</title>
<path fill="none" stroke="black" d="M515.1,-100.29C494.59,-96.14 468.26,-87.39 452.69,-69 447.3,-62.63 444.53,-54.18 443.17,-46.04"/>
<polygon fill="black" stroke="black" points="446.65,-45.65 442.12,-36.07 439.69,-46.39 446.65,-45.65"/>
<text text-anchor="middle" x="468.19" y="-57.8" font-family="Times New Roman,serif" font-size="14.00">0.052</text>
</g>
<!-- 7 -->
<g id="node8" class="node">
<title>7</title>
<g id="a_node8"><a xlink:href="lecturer.svg" xlink:title="lecturer">
<ellipse fill="none" stroke="black" cx="570.69" cy="-18" rx="37.89" ry="18"/>
<text text-anchor="middle" x="570.69" y="-14.3" font-family="Times New Roman,serif" font-size="14.00">lecturer</text>
</a>
</g>
</g>
<!-- 1&#45;&gt;7 -->
<g id="edge11" class="edge">
<title>1&#45;&gt;7</title>
<path fill="none" stroke="black" d="M540.36,-86.85C538.67,-76.97 537.92,-64.47 541.69,-54 543.17,-49.91 545.35,-45.95 547.87,-42.27"/>
<polygon fill="black" stroke="black" points="550.76,-44.25 554.18,-34.23 545.26,-39.93 550.76,-44.25"/>
<text text-anchor="middle" x="557.19" y="-57.8" font-family="Times New Roman,serif" font-size="14.00">0.157</text>
</g>
<!-- 10 -->
<g id="node11" class="node">
<title>10</title>
<g id="a_node11"><a xlink:href="charities administrator.svg" xlink:title="charities administrator">
<ellipse fill="none" stroke="black" cx="716.69" cy="-18" rx="90.18" ry="18"/>
<text text-anchor="middle" x="716.69" y="-14.3" font-family="Times New Roman,serif" font-size="14.00">charities administrator</text>
</a>
</g>
</g>
<!-- 1&#45;&gt;10 -->
<g id="edge14" class="edge">
<title>1&#45;&gt;10</title>
<path fill="none" stroke="black" d="M567.53,-92.71C594.93,-79.17 641.39,-56.21 675.19,-39.51"/>
<polygon fill="black" stroke="black" points="676.94,-42.55 684.36,-34.98 673.84,-36.27 676.94,-42.55"/>
<text text-anchor="middle" x="657.19" y="-57.8" font-family="Times New Roman,serif" font-size="14.00">0.052</text>
</g>
<!-- 11 -->
<g id="node12" class="node">
<title>11</title>
<g id="a_node12"><a xlink:href="clinical microbiologist.svg" xlink:title="clinical microbiologist">
<ellipse fill="none" stroke="black" cx="915.69" cy="-18" rx="90.18" ry="18"/>
<text text-anchor="middle" x="915.69" y="-14.3" font-family="Times New Roman,serif" font-size="14.00">clinical microbiologist</text>
</a>
</g>
</g>
<!-- 1&#45;&gt;11 -->
<g id="edge15" class="edge">
<title>1&#45;&gt;11</title>
<path fill="none" stroke="black" d="M572.58,-97.61C630.79,-84.27 766.65,-53.15 848.88,-34.31"/>
<polygon fill="black" stroke="black" points="849.66,-37.72 858.63,-32.07 848.1,-30.9 849.66,-37.72"/>
<text text-anchor="middle" x="767.19" y="-57.8" font-family="Times New Roman,serif" font-size="14.00">0.052</text>
</g>
<!-- 12 -->
<g id="node13" class="node">
<title>12</title>
<g id="a_node13"><a xlink:href="content manager.svg" xlink:title="content manager">
<ellipse fill="none" stroke="black" cx="1094.69" cy="-18" rx="70.39" ry="18"/>
<text text-anchor="middle" x="1094.69" y="-14.3" font-family="Times New Roman,serif" font-size="14.00">content manager</text>
</a>
</g>
</g>
<!-- 1&#45;&gt;12 -->
<g id="edge16" class="edge">
<title>1&#45;&gt;12</title>
<path fill="none" stroke="black" d="M574.5,-100.38C648.97,-91.18 849.12,-65.54 1014.69,-36 1020.84,-34.9 1027.23,-33.68 1033.61,-32.41"/>
<polygon fill="black" stroke="black" points="1034.48,-35.81 1043.58,-30.38 1033.08,-28.95 1034.48,-35.81"/>
<text text-anchor="middle" x="914.19" y="-57.8" font-family="Times New Roman,serif" font-size="14.00">0.052</text>
</g>
<!-- 13 -->
<g id="node14" class="node">
<title>13</title>
<g id="a_node14"><a xlink:href="crystallographer.svg" xlink:title="crystallographer">
<ellipse fill="none" stroke="black" cx="1251.69" cy="-18" rx="68.79" ry="18"/>
<text text-anchor="middle" x="1251.69" y="-14.3" font-family="Times New Roman,serif" font-size="14.00">crystallographer</text>
</a>
</g>
</g>
<!-- 1&#45;&gt;13 -->
<g id="edge17" class="edge">
<title>1&#45;&gt;13</title>
<path fill="none" stroke="black" d="M575.01,-102.19C666.17,-96.43 945.5,-76.49 1173.69,-36 1179.55,-34.96 1185.64,-33.79 1191.71,-32.57"/>
<polygon fill="black" stroke="black" points="1192.79,-35.92 1201.87,-30.46 1191.37,-29.06 1192.79,-35.92"/>
<text text-anchor="middle" x="1069.19" y="-57.8" font-family="Times New Roman,serif" font-size="14.00">0.052</text>
</g>
<!-- 14 -->
<g id="node15" class="node">
<title>14</title>
<g id="a_node15"><a xlink:href="geographical information systems manager.svg" xlink:title="geographical information systems manager">
<ellipse fill="none" stroke="black" cx="1503.69" cy="-18" rx="165.17" ry="18"/>
<text text-anchor="middle" x="1503.69" y="-14.3" font-family="Times New Roman,serif" font-size="14.00">geographical information systems manager</text>
</a>
</g>
</g>
<!-- 1&#45;&gt;14 -->
<g id="edge19" class="edge">
<title>1&#45;&gt;14</title>
<path fill="none" stroke="black" d="M575.11,-102.64C657.77,-98.81 893.38,-87.03 1088.69,-69 1192.85,-59.38 1311.28,-44.74 1394.89,-33.79"/>
<polygon fill="black" stroke="black" points="1395.45,-37.24 1404.91,-32.47 1394.54,-30.3 1395.45,-37.24"/>
<text text-anchor="middle" x="1241.19" y="-57.8" font-family="Times New Roman,serif" font-size="14.00">0.052</text>
</g>
<!-- 2 -->
<g id="node3" class="node">
<title>2</title>
<g id="a_node3"><a xlink:href="education administrator.svg" xlink:title="education administrator">
<ellipse fill="none" stroke="black" cx="359.69" cy="-192" rx="95.58" ry="18"/>
<text text-anchor="middle" x="359.69" y="-188.3" font-family="Times New Roman,serif" font-size="14.00">education administrator</text>
</a>
</g>
</g>
<!-- 2&#45;&gt;1 -->
<g id="edge2" class="edge">
<title>2&#45;&gt;1</title>
<path fill="none" stroke="black" d="M394.49,-175.01C428.21,-159.52 478.97,-136.2 511.97,-121.03"/>
<polygon fill="black" stroke="black" points="513.57,-124.15 521.19,-116.8 510.65,-117.79 513.57,-124.15"/>
<text text-anchor="middle" x="476.19" y="-144.8" font-family="Times New Roman,serif" font-size="14.00">0.08</text>
</g>
<!-- 3&#45;&gt;1 -->
<g id="edge3" class="edge">
<title>3&#45;&gt;1</title>
<path fill="none" stroke="black" d="M138.47,-33.12C177.91,-44.12 235.02,-59.15 285.69,-69 362.57,-83.95 453.52,-94.65 504.62,-100.04"/>
<polygon fill="black" stroke="black" points="504.29,-103.52 514.6,-101.07 505.01,-96.56 504.29,-103.52"/>
<text text-anchor="middle" x="298.19" y="-57.8" font-family="Times New Roman,serif" font-size="14.00">0.04</text>
</g>
<!-- 4&#45;&gt;1 -->
<g id="edge4" class="edge">
<title>4&#45;&gt;1</title>
<path fill="none" stroke="black" d="M313.92,-33.66C342.29,-44.06 381.64,-58.05 416.69,-69 446.98,-78.46 481.72,-87.87 507.36,-94.55"/>
<polygon fill="black" stroke="black" points="506.5,-97.94 517.06,-97.06 508.26,-91.16 506.5,-97.94"/>
<text text-anchor="middle" x="429.19" y="-57.8" font-family="Times New Roman,serif" font-size="14.00">0.04</text>
</g>
<!-- 5&#45;&gt;1 -->
<g id="edge5" class="edge">
<title>5&#45;&gt;1</title>
<path fill="none" stroke="black" d="M462.35,-35.39C478.69,-49 502.03,-68.45 519.69,-83.17"/>
<polygon fill="black" stroke="black" points="517.93,-86.25 527.85,-89.96 522.41,-80.87 517.93,-86.25"/>
<text text-anchor="middle" x="513.19" y="-57.8" font-family="Times New Roman,serif" font-size="14.00">0.04</text>
</g>
<!-- 6 -->
<g id="node7" class="node">
<title>6</title>
<g id="a_node7"><a xlink:href="heritage manager.svg" xlink:title="heritage manager">
<ellipse fill="none" stroke="black" cx="544.69" cy="-192" rx="71.49" ry="18"/>
<text text-anchor="middle" x="544.69" y="-188.3" font-family="Times New Roman,serif" font-size="14.00">heritage manager</text>
</a>
</g>
</g>
<!-- 6&#45;&gt;1 -->
<g id="edge6" class="edge">
<title>6&#45;&gt;1</title>
<path fill="none" stroke="black" d="M544.69,-173.8C544.69,-162.16 544.69,-146.55 544.69,-133.24"/>
<polygon fill="black" stroke="black" points="548.19,-133.18 544.69,-123.18 541.19,-133.18 548.19,-133.18"/>
<text text-anchor="middle" x="557.19" y="-144.8" font-family="Times New Roman,serif" font-size="14.00">0.04</text>
</g>
<!-- 7&#45;&gt;1 -->
<g id="edge7" class="edge">
<title>7&#45;&gt;1</title>
<path fill="none" stroke="black" d="M576.73,-36.18C579.24,-46.07 580.74,-58.57 576.69,-69 574.8,-73.86 571.89,-78.46 568.57,-82.63"/>
<polygon fill="black" stroke="black" points="565.96,-80.31 561.86,-90.08 571.16,-84.99 565.96,-80.31"/>
<text text-anchor="middle" x="592.19" y="-57.8" font-family="Times New Roman,serif" font-size="14.00">0.04</text>
</g>
<!-- 8 -->
<g id="node9" class="node">
<title>8</title>
<g id="a_node9"><a xlink:href="marketing assistant.svg" xlink:title="marketing assistant">
<ellipse fill="none" stroke="black" cx="713.69" cy="-192" rx="79.09" ry="18"/>
<text text-anchor="middle" x="713.69" y="-188.3" font-family="Times New Roman,serif" font-size="14.00">marketing assistant</text>
</a>
</g>
</g>
<!-- 8&#45;&gt;1 -->
<g id="edge8" class="edge">
<title>8&#45;&gt;1</title>
<path fill="none" stroke="black" d="M682.69,-175.41C652.51,-160.23 606.86,-137.27 576.43,-121.96"/>
<polygon fill="black" stroke="black" points="577.63,-118.65 567.13,-117.28 574.49,-124.9 577.63,-118.65"/>
<text text-anchor="middle" x="652.19" y="-144.8" font-family="Times New Roman,serif" font-size="14.00">0.04</text>
</g>
<!-- 9 -->
<g id="node10" class="node">
<title>9</title>
<g id="a_node10"><a xlink:href="physiotherapist.svg" xlink:title="physiotherapist">
<ellipse fill="none" stroke="black" cx="876.69" cy="-192" rx="65.79" ry="18"/>
<text text-anchor="middle" x="876.69" y="-188.3" font-family="Times New Roman,serif" font-size="14.00">physiotherapist</text>
</a>
</g>
</g>
<!-- 9&#45;&gt;1 -->
<g id="edge9" class="edge">
<title>9&#45;&gt;1</title>
<path fill="none" stroke="black" d="M830.53,-179.18C764.17,-162.19 643.1,-131.19 582.03,-115.56"/>
<polygon fill="black" stroke="black" points="582.61,-112.1 572.06,-113.01 580.87,-118.88 582.61,-112.1"/>
<text text-anchor="middle" x="742.19" y="-144.8" font-family="Times New Roman,serif" font-size="14.00">0.04</text>
</g>
</g>
</svg>
