<?xml version="1.0" encoding="UTF-8" standalone="no"?>
<!DOCTYPE svg PUBLIC "-//W3C//DTD SVG 1.1//EN"
 "http://www.w3.org/Graphics/SVG/1.1/DTD/svg11.dtd">
<!-- Generated by graphviz version 2.44.1 (20200629.0800)
 -->
<!-- Title: occupational_therapist Pages: 1 -->
<svg width="1547pt" height="218pt"
 viewBox="0.00 0.00 1547.44 218.00" xmlns="http://www.w3.org/2000/svg" xmlns:xlink="http://www.w3.org/1999/xlink">
<g id="graph0" class="graph" transform="scale(1 1) rotate(0) translate(4 214)">
<title>occupational_therapist</title>
<polygon fill="white" stroke="transparent" points="-4,4 -4,-214 1543.44,-214 1543.44,4 -4,4"/>
<!-- 0 -->
<g id="node1" class="node">
<title>0</title>
<g id="a_node1"><a xlink:href="software developer.svg" xlink:title="software developer">
<ellipse fill="none" stroke="black" cx="79.94" cy="-192" rx="79.89" ry="18"/>
<text text-anchor="middle" x="79.94" y="-188.3" font-family="Times New Roman,serif" font-size="14.00">software developer</text>
</a>
</g>
</g>
<!-- 1 -->
<g id="node2" class="node">
<title>1</title>
<g id="a_node2"><a xlink:href="occupational therapist.svg" xlink:title="occupational therapist">
<ellipse fill="none" stroke="black" cx="667.94" cy="-105" rx="90.18" ry="18"/>
<text text-anchor="middle" x="667.94" y="-101.3" font-family="Times New Roman,serif" font-size="14.00">occupational therapist</text>
</a>
</g>
</g>
<!-- 0&#45;&gt;1 -->
<g id="edge1" class="edge">
<title>0&#45;&gt;1</title>
<path fill="none" stroke="black" d="M137.79,-179.49C148.15,-177.56 158.85,-175.65 168.94,-174 313.67,-150.29 482.97,-128.45 582.51,-116.22"/>
<polygon fill="black" stroke="black" points="583.02,-119.68 592.51,-114.99 582.16,-112.74 583.02,-119.68"/>
<text text-anchor="middle" x="403.44" y="-144.8" font-family="Times New Roman,serif" font-size="14.00">0.039</text>
</g>
<!-- 1&#45;&gt;1 -->
<g id="edge10" class="edge">
<title>1&#45;&gt;1</title>
<path fill="none" stroke="black" d="M750.15,-112.47C765.48,-111.55 776.28,-109.06 776.28,-105 776.28,-101.92 770.08,-99.75 760.4,-98.47"/>
<polygon fill="black" stroke="black" points="760.42,-94.96 750.15,-97.53 759.78,-101.93 760.42,-94.96"/>
<text text-anchor="middle" x="791.78" y="-101.3" font-family="Times New Roman,serif" font-size="14.00">0.821</text>
</g>
<!-- 5 -->
<g id="node6" class="node">
<title>5</title>
<g id="a_node6"><a xlink:href="child psychotherapist.svg" xlink:title="child psychotherapist">
<ellipse fill="none" stroke="black" cx="183.94" cy="-18" rx="88.28" ry="18"/>
<text text-anchor="middle" x="183.94" y="-14.3" font-family="Times New Roman,serif" font-size="14.00">child psychotherapist</text>
</a>
</g>
</g>
<!-- 1&#45;&gt;5 -->
<g id="edge16" class="edge">
<title>1&#45;&gt;5</title>
<path fill="none" stroke="black" d="M578.01,-103.12C502.89,-100.57 393.51,-92.58 300.94,-69 274.16,-62.18 245.61,-50.08 223.41,-39.49"/>
<polygon fill="black" stroke="black" points="224.84,-36.29 214.31,-35.07 221.78,-42.59 224.84,-36.29"/>
<text text-anchor="middle" x="316.44" y="-57.8" font-family="Times New Roman,serif" font-size="14.00">0.035</text>
</g>
<!-- 10 -->
<g id="node11" class="node">
<title>10</title>
<g id="a_node11"><a xlink:href="lecturer.svg" xlink:title="lecturer">
<ellipse fill="none" stroke="black" cx="327.94" cy="-18" rx="37.89" ry="18"/>
<text text-anchor="middle" x="327.94" y="-14.3" font-family="Times New Roman,serif" font-size="14.00">lecturer</text>
</a>
</g>
</g>
<!-- 1&#45;&gt;10 -->
<g id="edge11" class="edge">
<title>1&#45;&gt;10</title>
<path fill="none" stroke="black" d="M605.06,-92.04C545.09,-80.02 452.51,-59.89 373.94,-36 371.36,-35.21 368.71,-34.36 366.05,-33.47"/>
<polygon fill="black" stroke="black" points="367.07,-30.12 356.48,-30.14 364.77,-36.73 367.07,-30.12"/>
<text text-anchor="middle" x="510.44" y="-57.8" font-family="Times New Roman,serif" font-size="14.00">0.071</text>
</g>
<!-- 11 -->
<g id="node12" class="node">
<title>11</title>
<g id="a_node12"><a xlink:href="physiotherapist.svg" xlink:title="physiotherapist">
<ellipse fill="none" stroke="black" cx="448.94" cy="-18" rx="65.79" ry="18"/>
<text text-anchor="middle" x="448.94" y="-14.3" font-family="Times New Roman,serif" font-size="14.00">physiotherapist</text>
</a>
</g>
</g>
<!-- 1&#45;&gt;11 -->
<g id="edge12" class="edge">
<title>1&#45;&gt;11</title>
<path fill="none" stroke="black" d="M628.54,-88.71C590.88,-74.09 534.14,-52.07 494.55,-36.7"/>
<polygon fill="black" stroke="black" points="495.71,-33.4 485.13,-33.04 493.18,-39.92 495.71,-33.4"/>
<text text-anchor="middle" x="587.44" y="-57.8" font-family="Times New Roman,serif" font-size="14.00">0.071</text>
</g>
<!-- 12 -->
<g id="node13" class="node">
<title>12</title>
<g id="a_node13"><a xlink:href="research scientist.svg" xlink:title="research scientist">
<ellipse fill="none" stroke="black" cx="604.94" cy="-18" rx="72.59" ry="18"/>
<text text-anchor="middle" x="604.94" y="-14.3" font-family="Times New Roman,serif" font-size="14.00">research scientist</text>
</a>
</g>
</g>
<!-- 1&#45;&gt;12 -->
<g id="edge13" class="edge">
<title>1&#45;&gt;12</title>
<path fill="none" stroke="black" d="M655.19,-86.8C646.08,-74.51 633.68,-57.77 623.48,-44.01"/>
<polygon fill="black" stroke="black" points="626.22,-41.84 617.46,-35.89 620.6,-46 626.22,-41.84"/>
<text text-anchor="middle" x="656.44" y="-57.8" font-family="Times New Roman,serif" font-size="14.00">0.071</text>
</g>
<!-- 13 -->
<g id="node14" class="node">
<title>13</title>
<g id="a_node14"><a xlink:href="auditor.svg" xlink:title="auditor">
<ellipse fill="none" stroke="black" cx="731.94" cy="-18" rx="36.29" ry="18"/>
<text text-anchor="middle" x="731.94" y="-14.3" font-family="Times New Roman,serif" font-size="14.00">auditor</text>
</a>
</g>
</g>
<!-- 1&#45;&gt;13 -->
<g id="edge14" class="edge">
<title>1&#45;&gt;13</title>
<path fill="none" stroke="black" d="M680.89,-86.8C690.33,-74.27 703.24,-57.12 713.72,-43.2"/>
<polygon fill="black" stroke="black" points="716.66,-45.12 719.88,-35.03 711.07,-40.91 716.66,-45.12"/>
<text text-anchor="middle" x="719.44" y="-57.8" font-family="Times New Roman,serif" font-size="14.00">0.035</text>
</g>
<!-- 14 -->
<g id="node15" class="node">
<title>14</title>
<g id="a_node15"><a xlink:href="catering manager.svg" xlink:title="catering manager">
<ellipse fill="none" stroke="black" cx="857.94" cy="-18" rx="71.49" ry="18"/>
<text text-anchor="middle" x="857.94" y="-14.3" font-family="Times New Roman,serif" font-size="14.00">catering manager</text>
</a>
</g>
</g>
<!-- 1&#45;&gt;14 -->
<g id="edge15" class="edge">
<title>1&#45;&gt;14</title>
<path fill="none" stroke="black" d="M703.24,-88.21C734.92,-74.04 781.51,-53.2 815.27,-38.09"/>
<polygon fill="black" stroke="black" points="816.73,-41.27 824.43,-33.99 813.88,-34.88 816.73,-41.27"/>
<text text-anchor="middle" x="790.44" y="-57.8" font-family="Times New Roman,serif" font-size="14.00">0.035</text>
</g>
<!-- 15 -->
<g id="node16" class="node">
<title>15</title>
<g id="a_node16"><a xlink:href="civil service administrator.svg" xlink:title="civil service administrator">
<ellipse fill="none" stroke="black" cx="1049.94" cy="-18" rx="102.88" ry="18"/>
<text text-anchor="middle" x="1049.94" y="-14.3" font-family="Times New Roman,serif" font-size="14.00">civil service administrator</text>
</a>
</g>
</g>
<!-- 1&#45;&gt;15 -->
<g id="edge17" class="edge">
<title>1&#45;&gt;15</title>
<path fill="none" stroke="black" d="M725.96,-91.09C793.84,-75.99 906.19,-50.99 979.14,-34.75"/>
<polygon fill="black" stroke="black" points="980.16,-38.11 989.16,-32.52 978.64,-31.28 980.16,-38.11"/>
<text text-anchor="middle" x="897.44" y="-57.8" font-family="Times New Roman,serif" font-size="14.00">0.035</text>
</g>
<!-- 16 -->
<g id="node17" class="node">
<title>16</title>
<g id="a_node17"><a xlink:href="clinical research associate.svg" xlink:title="clinical research associate">
<ellipse fill="none" stroke="black" cx="1274.94" cy="-18" rx="103.98" ry="18"/>
<text text-anchor="middle" x="1274.94" y="-14.3" font-family="Times New Roman,serif" font-size="14.00">clinical research associate</text>
</a>
</g>
</g>
<!-- 1&#45;&gt;16 -->
<g id="edge18" class="edge">
<title>1&#45;&gt;16</title>
<path fill="none" stroke="black" d="M740.8,-94.26C837.21,-81.31 1012.42,-57.54 1161.94,-36 1170.88,-34.71 1180.22,-33.34 1189.52,-31.97"/>
<polygon fill="black" stroke="black" points="1190.21,-35.4 1199.59,-30.47 1189.19,-28.48 1190.21,-35.4"/>
<text text-anchor="middle" x="1041.44" y="-57.8" font-family="Times New Roman,serif" font-size="14.00">0.035</text>
</g>
<!-- 17 -->
<g id="node18" class="node">
<title>17</title>
<g id="a_node18"><a xlink:href="heritage manager.svg" xlink:title="heritage manager">
<ellipse fill="none" stroke="black" cx="1467.94" cy="-18" rx="71.49" ry="18"/>
<text text-anchor="middle" x="1467.94" y="-14.3" font-family="Times New Roman,serif" font-size="14.00">heritage manager</text>
</a>
</g>
</g>
<!-- 1&#45;&gt;17 -->
<g id="edge19" class="edge">
<title>1&#45;&gt;17</title>
<path fill="none" stroke="black" d="M753.7,-99.28C889.08,-91.08 1160.31,-71.56 1387.94,-36 1394.11,-35.04 1400.52,-33.9 1406.91,-32.68"/>
<polygon fill="black" stroke="black" points="1407.75,-36.09 1416.88,-30.71 1406.39,-29.22 1407.75,-36.09"/>
<text text-anchor="middle" x="1265.44" y="-57.8" font-family="Times New Roman,serif" font-size="14.00">0.035</text>
</g>
<!-- 2 -->
<g id="node3" class="node">
<title>2</title>
<g id="a_node3"><a xlink:href="agricultural consultant.svg" xlink:title="agricultural consultant">
<ellipse fill="none" stroke="black" cx="267.94" cy="-192" rx="89.88" ry="18"/>
<text text-anchor="middle" x="267.94" y="-188.3" font-family="Times New Roman,serif" font-size="14.00">agricultural consultant</text>
</a>
</g>
</g>
<!-- 2&#45;&gt;1 -->
<g id="edge2" class="edge">
<title>2&#45;&gt;1</title>
<path fill="none" stroke="black" d="M327.4,-178.37C399.77,-162.99 521.81,-137.05 598.45,-120.77"/>
<polygon fill="black" stroke="black" points="599.44,-124.14 608.49,-118.63 597.98,-117.29 599.44,-124.14"/>
<text text-anchor="middle" x="507.44" y="-144.8" font-family="Times New Roman,serif" font-size="14.00">0.019</text>
</g>
<!-- 3 -->
<g id="node4" class="node">
<title>3</title>
<g id="a_node4"><a xlink:href="barristers clerk.svg" xlink:title="barristers clerk">
<ellipse fill="none" stroke="black" cx="439.94" cy="-192" rx="64.19" ry="18"/>
<text text-anchor="middle" x="439.94" y="-188.3" font-family="Times New Roman,serif" font-size="14.00">barristers clerk</text>
</a>
</g>
</g>
<!-- 3&#45;&gt;1 -->
<g id="edge3" class="edge">
<title>3&#45;&gt;1</title>
<path fill="none" stroke="black" d="M476.83,-177.25C515.06,-162.99 575.08,-140.62 617.65,-124.75"/>
<polygon fill="black" stroke="black" points="619.11,-127.94 627.26,-121.17 616.67,-121.38 619.11,-127.94"/>
<text text-anchor="middle" x="583.44" y="-144.8" font-family="Times New Roman,serif" font-size="14.00">0.019</text>
</g>
<!-- 4 -->
<g id="node5" class="node">
<title>4</title>
<g id="a_node5"><a xlink:href="careers adviser.svg" xlink:title="careers adviser">
<ellipse fill="none" stroke="black" cx="586.94" cy="-192" rx="64.99" ry="18"/>
<text text-anchor="middle" x="586.94" y="-188.3" font-family="Times New Roman,serif" font-size="14.00">careers adviser</text>
</a>
</g>
</g>
<!-- 4&#45;&gt;1 -->
<g id="edge4" class="edge">
<title>4&#45;&gt;1</title>
<path fill="none" stroke="black" d="M602.95,-174.21C614.93,-161.63 631.49,-144.25 644.9,-130.18"/>
<polygon fill="black" stroke="black" points="647.61,-132.41 651.97,-122.76 642.54,-127.58 647.61,-132.41"/>
<text text-anchor="middle" x="648.44" y="-144.8" font-family="Times New Roman,serif" font-size="14.00">0.019</text>
</g>
<!-- 5&#45;&gt;1 -->
<g id="edge5" class="edge">
<title>5&#45;&gt;1</title>
<path fill="none" stroke="black" d="M238.28,-32.27C284.11,-43.16 351.55,-58.43 410.94,-69 467.56,-79.07 531.64,-87.81 581.65,-94.03"/>
<polygon fill="black" stroke="black" points="581.43,-97.53 591.78,-95.28 582.29,-90.58 581.43,-97.53"/>
<text text-anchor="middle" x="426.44" y="-57.8" font-family="Times New Roman,serif" font-size="14.00">0.019</text>
</g>
<!-- 6 -->
<g id="node7" class="node">
<title>6</title>
<g id="a_node7"><a xlink:href="community worker.svg" xlink:title="community worker">
<ellipse fill="none" stroke="black" cx="748.94" cy="-192" rx="79.09" ry="18"/>
<text text-anchor="middle" x="748.94" y="-188.3" font-family="Times New Roman,serif" font-size="14.00">community worker</text>
</a>
</g>
</g>
<!-- 6&#45;&gt;1 -->
<g id="edge6" class="edge">
<title>6&#45;&gt;1</title>
<path fill="none" stroke="black" d="M732.94,-174.21C720.96,-161.63 704.39,-144.25 690.99,-130.18"/>
<polygon fill="black" stroke="black" points="693.35,-127.58 683.91,-122.76 688.28,-132.41 693.35,-127.58"/>
<text text-anchor="middle" x="729.44" y="-144.8" font-family="Times New Roman,serif" font-size="14.00">0.019</text>
</g>
<!-- 7 -->
<g id="node8" class="node">
<title>7</title>
<g id="a_node8"><a xlink:href="crystallographer.svg" xlink:title="crystallographer">
<ellipse fill="none" stroke="black" cx="914.94" cy="-192" rx="68.79" ry="18"/>
<text text-anchor="middle" x="914.94" y="-188.3" font-family="Times New Roman,serif" font-size="14.00">crystallographer</text>
</a>
</g>
</g>
<!-- 7&#45;&gt;1 -->
<g id="edge7" class="edge">
<title>7&#45;&gt;1</title>
<path fill="none" stroke="black" d="M874.98,-177.25C833.05,-162.82 766.91,-140.06 720.71,-124.16"/>
<polygon fill="black" stroke="black" points="721.76,-120.82 711.17,-120.88 719.49,-127.44 721.76,-120.82"/>
<text text-anchor="middle" x="822.44" y="-144.8" font-family="Times New Roman,serif" font-size="14.00">0.019</text>
</g>
<!-- 8 -->
<g id="node9" class="node">
<title>8</title>
<g id="a_node9"><a xlink:href="education administrator.svg" xlink:title="education administrator">
<ellipse fill="none" stroke="black" cx="1096.94" cy="-192" rx="95.58" ry="18"/>
<text text-anchor="middle" x="1096.94" y="-188.3" font-family="Times New Roman,serif" font-size="14.00">education administrator</text>
</a>
</g>
</g>
<!-- 8&#45;&gt;1 -->
<g id="edge8" class="edge">
<title>8&#45;&gt;1</title>
<path fill="none" stroke="black" d="M1033.64,-178.46C955.22,-162.92 821.94,-136.51 739.77,-120.23"/>
<polygon fill="black" stroke="black" points="740.25,-116.76 729.76,-118.25 738.89,-123.63 740.25,-116.76"/>
<text text-anchor="middle" x="924.44" y="-144.8" font-family="Times New Roman,serif" font-size="14.00">0.019</text>
</g>
<!-- 9 -->
<g id="node10" class="node">
<title>9</title>
<g id="a_node10"><a xlink:href="health and safety adviser.svg" xlink:title="health and safety adviser">
<ellipse fill="none" stroke="black" cx="1309.94" cy="-192" rx="99.38" ry="18"/>
<text text-anchor="middle" x="1309.94" y="-188.3" font-family="Times New Roman,serif" font-size="14.00">health and safety adviser</text>
</a>
</g>
</g>
<!-- 9&#45;&gt;1 -->
<g id="edge9" class="edge">
<title>9&#45;&gt;1</title>
<path fill="none" stroke="black" d="M1238.53,-179.46C1226.33,-177.58 1213.78,-175.69 1201.94,-174 1043.97,-151.47 859.18,-128.74 753.61,-116.11"/>
<polygon fill="black" stroke="black" points="753.99,-112.63 743.65,-114.91 753.16,-119.58 753.99,-112.63"/>
<text text-anchor="middle" x="1085.44" y="-144.8" font-family="Times New Roman,serif" font-size="14.00">0.019</text>
</g>
</g>
</svg>
