<?xml version="1.0" encoding="UTF-8" standalone="no"?>
<!DOCTYPE svg PUBLIC "-//W3C//DTD SVG 1.1//EN"
 "http://www.w3.org/Graphics/SVG/1.1/DTD/svg11.dtd">
<!-- Generated by graphviz version 2.44.1 (20200629.0800)
 -->
<!-- Title: test Pages: 1 -->
<svg width="2100pt" height="218pt"
 viewBox="0.00 0.00 2099.79 218.00" xmlns="http://www.w3.org/2000/svg" xmlns:xlink="http://www.w3.org/1999/xlink">
<g id="graph0" class="graph" transform="scale(1 1) rotate(0) translate(4 214)">
<title>test</title>
<polygon fill="white" stroke="transparent" points="-4,4 -4,-214 2095.79,-214 2095.79,4 -4,4"/>
<!-- 0 -->
<g id="node1" class="node">
<title>0</title>
<g id="a_node1"><a xlink:href="research scientist.svg" xlink:title="research scientist">
<ellipse fill="none" stroke="black" cx="113.49" cy="-192" rx="72.59" ry="18"/>
<text text-anchor="middle" x="113.49" y="-188.3" font-family="Times New Roman,serif" font-size="14.00">research scientist</text>
</a>
</g>
</g>
<!-- 1 -->
<g id="node2" class="node">
<title>1</title>
<g id="a_node2"><a xlink:href="operational researcher.svg" xlink:title="operational researcher">
<ellipse fill="none" stroke="black" cx="794.49" cy="-105" rx="90.18" ry="18"/>
<text text-anchor="middle" x="794.49" y="-101.3" font-family="Times New Roman,serif" font-size="14.00">operational researcher</text>
</a>
</g>
</g>
<!-- 0&#45;&gt;1 -->
<g id="edge1" class="edge">
<title>0&#45;&gt;1</title>
<path fill="none" stroke="black" d="M166.33,-179.51C176.01,-177.56 186.04,-175.64 195.49,-174 373.36,-143.21 583.45,-123.05 701.61,-113.16"/>
<polygon fill="black" stroke="black" points="702.03,-116.64 711.7,-112.32 701.45,-109.66 702.03,-116.64"/>
<text text-anchor="middle" x="440.99" y="-144.8" font-family="Times New Roman,serif" font-size="14.00">0.090</text>
</g>
<!-- 6 -->
<g id="node7" class="node">
<title>6</title>
<g id="a_node7"><a xlink:href="catering manager.svg" xlink:title="catering manager">
<ellipse fill="none" stroke="black" cx="71.49" cy="-18" rx="71.49" ry="18"/>
<text text-anchor="middle" x="71.49" y="-14.3" font-family="Times New Roman,serif" font-size="14.00">catering manager</text>
</a>
</g>
</g>
<!-- 1&#45;&gt;6 -->
<g id="edge13" class="edge">
<title>1&#45;&gt;6</title>
<path fill="none" stroke="black" d="M705.97,-101.35C569.3,-96.78 313.29,-86.22 223.49,-69 186.85,-61.97 146.81,-48.55 117.03,-37.39"/>
<polygon fill="black" stroke="black" points="117.94,-33.99 107.35,-33.7 115.45,-40.53 117.94,-33.99"/>
<text text-anchor="middle" x="238.99" y="-57.8" font-family="Times New Roman,serif" font-size="14.00">0.043</text>
</g>
<!-- 7 -->
<g id="node8" class="node">
<title>7</title>
<g id="a_node8"><a xlink:href="community education officer.svg" xlink:title="community education officer">
<ellipse fill="none" stroke="black" cx="276.49" cy="-18" rx="115.08" ry="18"/>
<text text-anchor="middle" x="276.49" y="-14.3" font-family="Times New Roman,serif" font-size="14.00">community education officer</text>
</a>
</g>
</g>
<!-- 1&#45;&gt;7 -->
<g id="edge15" class="edge">
<title>1&#45;&gt;7</title>
<path fill="none" stroke="black" d="M710.51,-98.35C644.6,-93.09 550.72,-83.81 469.49,-69 424.48,-60.79 374.5,-47.73 336.67,-37.01"/>
<polygon fill="black" stroke="black" points="337.41,-33.58 326.84,-34.2 335.49,-40.32 337.41,-33.58"/>
<text text-anchor="middle" x="484.99" y="-57.8" font-family="Times New Roman,serif" font-size="14.00">0.043</text>
</g>
<!-- 11 -->
<g id="node12" class="node">
<title>11</title>
<g id="a_node12"><a xlink:href="agricultural consultant.svg" xlink:title="agricultural consultant">
<ellipse fill="none" stroke="black" cx="499.49" cy="-18" rx="89.88" ry="18"/>
<text text-anchor="middle" x="499.49" y="-14.3" font-family="Times New Roman,serif" font-size="14.00">agricultural consultant</text>
</a>
</g>
</g>
<!-- 1&#45;&gt;11 -->
<g id="edge11" class="edge">
<title>1&#45;&gt;11</title>
<path fill="none" stroke="black" d="M745.45,-89.87C694.09,-75.07 613.42,-51.83 558.58,-36.03"/>
<polygon fill="black" stroke="black" points="559.23,-32.57 548.66,-33.17 557.3,-39.3 559.23,-32.57"/>
<text text-anchor="middle" x="680.99" y="-57.8" font-family="Times New Roman,serif" font-size="14.00">0.043</text>
</g>
<!-- 12 -->
<g id="node13" class="node">
<title>12</title>
<g id="a_node13"><a xlink:href="armed forces officer.svg" xlink:title="armed forces officer">
<ellipse fill="none" stroke="black" cx="692.49" cy="-18" rx="85.29" ry="18"/>
<text text-anchor="middle" x="692.49" y="-14.3" font-family="Times New Roman,serif" font-size="14.00">armed forces officer</text>
</a>
</g>
</g>
<!-- 1&#45;&gt;12 -->
<g id="edge12" class="edge">
<title>1&#45;&gt;12</title>
<path fill="none" stroke="black" d="M774.34,-87.21C758.97,-74.4 737.62,-56.61 720.58,-42.4"/>
<polygon fill="black" stroke="black" points="722.53,-39.47 712.6,-35.76 718.05,-44.85 722.53,-39.47"/>
<text text-anchor="middle" x="765.99" y="-57.8" font-family="Times New Roman,serif" font-size="14.00">0.043</text>
</g>
<!-- 13 -->
<g id="node14" class="node">
<title>13</title>
<g id="a_node14"><a xlink:href="commercial horticulturist.svg" xlink:title="commercial horticulturist">
<ellipse fill="none" stroke="black" cx="896.49" cy="-18" rx="100.98" ry="18"/>
<text text-anchor="middle" x="896.49" y="-14.3" font-family="Times New Roman,serif" font-size="14.00">commercial horticulturist</text>
</a>
</g>
</g>
<!-- 1&#45;&gt;13 -->
<g id="edge14" class="edge">
<title>1&#45;&gt;13</title>
<path fill="none" stroke="black" d="M814.65,-87.21C830.01,-74.4 851.37,-56.61 868.41,-42.4"/>
<polygon fill="black" stroke="black" points="870.94,-44.85 876.38,-35.76 866.46,-39.47 870.94,-44.85"/>
<text text-anchor="middle" x="867.99" y="-57.8" font-family="Times New Roman,serif" font-size="14.00">0.043</text>
</g>
<!-- 14 -->
<g id="node15" class="node">
<title>14</title>
<g id="a_node15"><a xlink:href="education administrator.svg" xlink:title="education administrator">
<ellipse fill="none" stroke="black" cx="1110.49" cy="-18" rx="95.58" ry="18"/>
<text text-anchor="middle" x="1110.49" y="-14.3" font-family="Times New Roman,serif" font-size="14.00">education administrator</text>
</a>
</g>
</g>
<!-- 1&#45;&gt;14 -->
<g id="edge16" class="edge">
<title>1&#45;&gt;14</title>
<path fill="none" stroke="black" d="M845.97,-90.15C901.19,-75.3 988.9,-51.71 1048.03,-35.8"/>
<polygon fill="black" stroke="black" points="1049.24,-39.1 1057.99,-33.12 1047.42,-32.34 1049.24,-39.1"/>
<text text-anchor="middle" x="985.99" y="-57.8" font-family="Times New Roman,serif" font-size="14.00">0.043</text>
</g>
<!-- 15 -->
<g id="node16" class="node">
<title>15</title>
<g id="a_node16"><a xlink:href="geographical information systems manager.svg" xlink:title="geographical information systems manager">
<ellipse fill="none" stroke="black" cx="1389.49" cy="-18" rx="165.17" ry="18"/>
<text text-anchor="middle" x="1389.49" y="-14.3" font-family="Times New Roman,serif" font-size="14.00">geographical information systems manager</text>
</a>
</g>
</g>
<!-- 1&#45;&gt;15 -->
<g id="edge17" class="edge">
<title>1&#45;&gt;15</title>
<path fill="none" stroke="black" d="M865.67,-93.83C969.48,-79 1163.14,-51.34 1283.68,-34.12"/>
<polygon fill="black" stroke="black" points="1284.26,-37.57 1293.67,-32.69 1283.27,-30.64 1284.26,-37.57"/>
<text text-anchor="middle" x="1142.99" y="-57.8" font-family="Times New Roman,serif" font-size="14.00">0.043</text>
</g>
<!-- 16 -->
<g id="node17" class="node">
<title>16</title>
<g id="a_node17"><a xlink:href="health and safety adviser.svg" xlink:title="health and safety adviser">
<ellipse fill="none" stroke="black" cx="1672.49" cy="-18" rx="99.38" ry="18"/>
<text text-anchor="middle" x="1672.49" y="-14.3" font-family="Times New Roman,serif" font-size="14.00">health and safety adviser</text>
</a>
</g>
</g>
<!-- 1&#45;&gt;16 -->
<g id="edge18" class="edge">
<title>1&#45;&gt;16</title>
<path fill="none" stroke="black" d="M878.61,-98.4C1020.24,-88.56 1315.21,-66.31 1563.49,-36 1572.74,-34.87 1582.4,-33.56 1591.99,-32.17"/>
<polygon fill="black" stroke="black" points="1592.55,-35.63 1601.94,-30.71 1591.53,-28.7 1592.55,-35.63"/>
<text text-anchor="middle" x="1409.99" y="-57.8" font-family="Times New Roman,serif" font-size="14.00">0.043</text>
</g>
<!-- 17 -->
<g id="node18" class="node">
<title>17</title>
<g id="a_node18"><a xlink:href="legal executive.svg" xlink:title="legal executive">
<ellipse fill="none" stroke="black" cx="1852.49" cy="-18" rx="63.09" ry="18"/>
<text text-anchor="middle" x="1852.49" y="-14.3" font-family="Times New Roman,serif" font-size="14.00">legal executive</text>
</a>
</g>
</g>
<!-- 1&#45;&gt;17 -->
<g id="edge19" class="edge">
<title>1&#45;&gt;17</title>
<path fill="none" stroke="black" d="M884.54,-103.43C1058.73,-101.08 1453.5,-89.71 1780.49,-36 1785.96,-35.1 1791.63,-34.02 1797.27,-32.85"/>
<polygon fill="black" stroke="black" points="1798.33,-36.2 1807.36,-30.66 1796.85,-29.36 1798.33,-36.2"/>
<text text-anchor="middle" x="1662.99" y="-57.8" font-family="Times New Roman,serif" font-size="14.00">0.043</text>
</g>
<!-- 18 -->
<g id="node19" class="node">
<title>18</title>
<g id="a_node19"><a xlink:href="marketing assistant.svg" xlink:title="marketing assistant">
<ellipse fill="none" stroke="black" cx="2012.49" cy="-18" rx="79.09" ry="18"/>
<text text-anchor="middle" x="2012.49" y="-14.3" font-family="Times New Roman,serif" font-size="14.00">marketing assistant</text>
</a>
</g>
</g>
<!-- 1&#45;&gt;18 -->
<g id="edge20" class="edge">
<title>1&#45;&gt;18</title>
<path fill="none" stroke="black" d="M884.48,-103.31C1045.06,-101.44 1391.43,-94.52 1682.49,-69 1790.63,-59.52 1817.38,-53.63 1924.49,-36 1931.2,-34.9 1938.18,-33.67 1945.14,-32.41"/>
<polygon fill="black" stroke="black" points="1946.1,-35.79 1955.3,-30.52 1944.83,-28.9 1946.1,-35.79"/>
<text text-anchor="middle" x="1826.99" y="-57.8" font-family="Times New Roman,serif" font-size="14.00">0.043</text>
</g>
<!-- 2 -->
<g id="node3" class="node">
<title>2</title>
<g id="a_node3"><a xlink:href="teaching assistant.svg" xlink:title="teaching assistant">
<ellipse fill="none" stroke="black" cx="277.49" cy="-192" rx="73.39" ry="18"/>
<text text-anchor="middle" x="277.49" y="-188.3" font-family="Times New Roman,serif" font-size="14.00">teaching assistant</text>
</a>
</g>
</g>
<!-- 2&#45;&gt;1 -->
<g id="edge2" class="edge">
<title>2&#45;&gt;1</title>
<path fill="none" stroke="black" d="M330.79,-179.55C340.33,-177.62 350.2,-175.69 359.49,-174 482.29,-151.69 625.41,-130.17 712.97,-117.52"/>
<polygon fill="black" stroke="black" points="713.71,-120.95 723.11,-116.06 712.71,-114.02 713.71,-120.95"/>
<text text-anchor="middle" x="565.99" y="-144.8" font-family="Times New Roman,serif" font-size="14.00">0.090</text>
</g>
<!-- 3 -->
<g id="node4" class="node">
<title>3</title>
<g id="a_node4"><a xlink:href="control and instrumentation engineer.svg" xlink:title="control and instrumentation engineer">
<ellipse fill="none" stroke="black" cx="510.49" cy="-192" rx="141.88" ry="18"/>
<text text-anchor="middle" x="510.49" y="-188.3" font-family="Times New Roman,serif" font-size="14.00">control and instrumentation engineer</text>
</a>
</g>
</g>
<!-- 3&#45;&gt;1 -->
<g id="edge3" class="edge">
<title>3&#45;&gt;1</title>
<path fill="none" stroke="black" d="M563.25,-175.21C612.57,-160.45 686.06,-138.45 736.9,-123.24"/>
<polygon fill="black" stroke="black" points="738.17,-126.51 746.75,-120.29 736.16,-119.8 738.17,-126.51"/>
<text text-anchor="middle" x="685.99" y="-144.8" font-family="Times New Roman,serif" font-size="14.00">0.060</text>
</g>
<!-- 4 -->
<g id="node5" class="node">
<title>4</title>
<g id="a_node5"><a xlink:href="it consultant.svg" xlink:title="it consultant">
<ellipse fill="none" stroke="black" cx="724.49" cy="-192" rx="54.69" ry="18"/>
<text text-anchor="middle" x="724.49" y="-188.3" font-family="Times New Roman,serif" font-size="14.00">it consultant</text>
</a>
</g>
</g>
<!-- 4&#45;&gt;1 -->
<g id="edge4" class="edge">
<title>4&#45;&gt;1</title>
<path fill="none" stroke="black" d="M738.32,-174.21C748.52,-161.83 762.54,-144.8 774.03,-130.85"/>
<polygon fill="black" stroke="black" points="776.8,-132.99 780.45,-123.05 771.39,-128.54 776.8,-132.99"/>
<text text-anchor="middle" x="779.99" y="-144.8" font-family="Times New Roman,serif" font-size="14.00">0.060</text>
</g>
<!-- 5 -->
<g id="node6" class="node">
<title>5</title>
<g id="a_node6"><a xlink:href="project manager.svg" xlink:title="project manager">
<ellipse fill="none" stroke="black" cx="865.49" cy="-192" rx="68.79" ry="18"/>
<text text-anchor="middle" x="865.49" y="-188.3" font-family="Times New Roman,serif" font-size="14.00">project manager</text>
</a>
</g>
</g>
<!-- 5&#45;&gt;1 -->
<g id="edge5" class="edge">
<title>5&#45;&gt;1</title>
<path fill="none" stroke="black" d="M851.47,-174.21C841.13,-161.83 826.9,-144.8 815.25,-130.85"/>
<polygon fill="black" stroke="black" points="817.83,-128.48 808.73,-123.05 812.46,-132.97 817.83,-128.48"/>
<text text-anchor="middle" x="849.99" y="-144.8" font-family="Times New Roman,serif" font-size="14.00">0.060</text>
</g>
<!-- 6&#45;&gt;1 -->
<g id="edge6" class="edge">
<title>6&#45;&gt;1</title>
<path fill="none" stroke="black" d="M123.7,-30.41C133.26,-32.37 143.16,-34.32 152.49,-36 248.93,-53.4 273.16,-57.63 370.49,-69 483.23,-82.17 613.39,-92.14 699.44,-98.01"/>
<polygon fill="black" stroke="black" points="699.24,-101.5 709.46,-98.68 699.71,-94.52 699.24,-101.5"/>
<text text-anchor="middle" x="385.99" y="-57.8" font-family="Times New Roman,serif" font-size="14.00">0.030</text>
</g>
<!-- 7&#45;&gt;1 -->
<g id="edge7" class="edge">
<title>7&#45;&gt;1</title>
<path fill="none" stroke="black" d="M352.73,-31.51C450.35,-47.53 618.6,-75.14 716.88,-91.26"/>
<polygon fill="black" stroke="black" points="716.61,-94.77 727.04,-92.93 717.74,-87.86 716.61,-94.77"/>
<text text-anchor="middle" x="582.99" y="-57.8" font-family="Times New Roman,serif" font-size="14.00">0.030</text>
</g>
<!-- 8 -->
<g id="node9" class="node">
<title>8</title>
<g id="a_node9"><a xlink:href="doctor.svg" xlink:title="doctor">
<ellipse fill="none" stroke="black" cx="987.49" cy="-192" rx="35.19" ry="18"/>
<text text-anchor="middle" x="987.49" y="-188.3" font-family="Times New Roman,serif" font-size="14.00">doctor</text>
</a>
</g>
</g>
<!-- 8&#45;&gt;1 -->
<g id="edge8" class="edge">
<title>8&#45;&gt;1</title>
<path fill="none" stroke="black" d="M961.46,-179.54C930.16,-165.75 877.11,-142.39 839.21,-125.69"/>
<polygon fill="black" stroke="black" points="840.48,-122.43 829.92,-121.6 837.66,-128.83 840.48,-122.43"/>
<text text-anchor="middle" x="918.99" y="-144.8" font-family="Times New Roman,serif" font-size="14.00">0.030</text>
</g>
<!-- 9 -->
<g id="node10" class="node">
<title>9</title>
<g id="a_node10"><a xlink:href="fitness centre manager.svg" xlink:title="fitness centre manager">
<ellipse fill="none" stroke="black" cx="1131.49" cy="-192" rx="90.98" ry="18"/>
<text text-anchor="middle" x="1131.49" y="-188.3" font-family="Times New Roman,serif" font-size="14.00">fitness centre manager</text>
</a>
</g>
</g>
<!-- 9&#45;&gt;1 -->
<g id="edge9" class="edge">
<title>9&#45;&gt;1</title>
<path fill="none" stroke="black" d="M1079.12,-177.2C1040.33,-167.04 986.16,-152.97 938.49,-141 912.83,-134.56 884.55,-127.64 859.9,-121.68"/>
<polygon fill="black" stroke="black" points="860.47,-118.21 849.93,-119.27 858.83,-125.02 860.47,-118.21"/>
<text text-anchor="middle" x="1011.99" y="-144.8" font-family="Times New Roman,serif" font-size="14.00">0.030</text>
</g>
<!-- 10 -->
<g id="node11" class="node">
<title>10</title>
<g id="a_node11"><a xlink:href="insurance broker.svg" xlink:title="insurance broker">
<ellipse fill="none" stroke="black" cx="1311.49" cy="-192" rx="71.49" ry="18"/>
<text text-anchor="middle" x="1311.49" y="-188.3" font-family="Times New Roman,serif" font-size="14.00">insurance broker</text>
</a>
</g>
</g>
<!-- 10&#45;&gt;1 -->
<g id="edge10" class="edge">
<title>10&#45;&gt;1</title>
<path fill="none" stroke="black" d="M1259.49,-179.59C1250.18,-177.65 1240.56,-175.71 1231.49,-174 1108.53,-150.8 965.03,-129.58 876.97,-117.22"/>
<polygon fill="black" stroke="black" points="877.42,-113.75 867.04,-115.83 876.45,-120.69 877.42,-113.75"/>
<text text-anchor="middle" x="1138.99" y="-144.8" font-family="Times New Roman,serif" font-size="14.00">0.030</text>
</g>
</g>
</svg>
