<?xml version="1.0" encoding="UTF-8" standalone="no"?>
<!DOCTYPE svg PUBLIC "-//W3C//DTD SVG 1.1//EN"
 "http://www.w3.org/Graphics/SVG/1.1/DTD/svg11.dtd">
<!-- Generated by graphviz version 2.44.1 (20200629.0800)
 -->
<!-- Title: outdoor_pursuits_manager Pages: 1 -->
<svg width="1432pt" height="218pt"
 viewBox="0.00 0.00 1431.78 218.00" xmlns="http://www.w3.org/2000/svg" xmlns:xlink="http://www.w3.org/1999/xlink">
<g id="graph0" class="graph" transform="scale(1 1) rotate(0) translate(4 214)">
<title>outdoor_pursuits_manager</title>
<polygon fill="white" stroke="transparent" points="-4,4 -4,-214 1427.78,-214 1427.78,4 -4,4"/>
<!-- 0 -->
<g id="node1" class="node">
<title>0</title>
<g id="a_node1"><a xlink:href="project manager.svg" xlink:title="project manager">
<ellipse fill="none" stroke="black" cx="156.6" cy="-192" rx="68.79" ry="18"/>
<text text-anchor="middle" x="156.6" y="-188.3" font-family="Times New Roman,serif" font-size="14.00">project manager</text>
</a>
</g>
</g>
<!-- 1 -->
<g id="node2" class="node">
<title>1</title>
<g id="a_node2"><a xlink:href="outdoor pursuits manager.svg" xlink:title="outdoor pursuits manager">
<ellipse fill="none" stroke="black" cx="444.6" cy="-105" rx="103.98" ry="18"/>
<text text-anchor="middle" x="444.6" y="-101.3" font-family="Times New Roman,serif" font-size="14.00">outdoor pursuits manager</text>
</a>
</g>
</g>
<!-- 0&#45;&gt;1 -->
<g id="edge1" class="edge">
<title>0&#45;&gt;1</title>
<path fill="none" stroke="black" d="M165.76,-173.77C172.69,-162.53 183.27,-148.6 196.6,-141 220.83,-127.19 283.06,-118.43 339.12,-113.13"/>
<polygon fill="black" stroke="black" points="339.5,-116.61 349.14,-112.21 338.86,-109.64 339.5,-116.61"/>
<text text-anchor="middle" x="212.1" y="-144.8" font-family="Times New Roman,serif" font-size="14.00">0.064</text>
</g>
<!-- 1&#45;&gt;0 -->
<g id="edge12" class="edge">
<title>1&#45;&gt;0</title>
<path fill="none" stroke="black" d="M394.13,-120.89C342.57,-136.11 262.82,-159.65 210.16,-175.19"/>
<polygon fill="black" stroke="black" points="208.94,-171.9 200.34,-178.09 210.92,-178.62 208.94,-171.9"/>
<text text-anchor="middle" x="334.1" y="-144.8" font-family="Times New Roman,serif" font-size="14.00">0.071</text>
</g>
<!-- 1&#45;&gt;1 -->
<g id="edge10" class="edge">
<title>1&#45;&gt;1</title>
<path fill="none" stroke="black" d="M539.73,-112.32C555.62,-111.3 566.59,-108.86 566.59,-105 566.59,-102.02 560.03,-99.88 549.7,-98.59"/>
<polygon fill="black" stroke="black" points="550.01,-95.11 539.73,-97.68 549.37,-102.08 550.01,-95.11"/>
<text text-anchor="middle" x="582.09" y="-101.3" font-family="Times New Roman,serif" font-size="14.00">0.098</text>
</g>
<!-- 2 -->
<g id="node3" class="node">
<title>2</title>
<g id="a_node3"><a xlink:href="it consultant.svg" xlink:title="it consultant">
<ellipse fill="none" stroke="black" cx="54.6" cy="-18" rx="54.69" ry="18"/>
<text text-anchor="middle" x="54.6" y="-14.3" font-family="Times New Roman,serif" font-size="14.00">it consultant</text>
</a>
</g>
</g>
<!-- 1&#45;&gt;2 -->
<g id="edge13" class="edge">
<title>1&#45;&gt;2</title>
<path fill="none" stroke="black" d="M345.62,-99.46C264.79,-94.64 157.62,-85.39 117.6,-69 102.83,-62.95 88.69,-52.34 77.57,-42.45"/>
<polygon fill="black" stroke="black" points="79.74,-39.69 70.03,-35.44 74.97,-44.82 79.74,-39.69"/>
<text text-anchor="middle" x="133.1" y="-57.8" font-family="Times New Roman,serif" font-size="14.00">0.062</text>
</g>
<!-- 3 -->
<g id="node4" class="node">
<title>3</title>
<g id="a_node4"><a xlink:href="marketing assistant.svg" xlink:title="marketing assistant">
<ellipse fill="none" stroke="black" cx="206.6" cy="-18" rx="79.09" ry="18"/>
<text text-anchor="middle" x="206.6" y="-14.3" font-family="Times New Roman,serif" font-size="14.00">marketing assistant</text>
</a>
</g>
</g>
<!-- 1&#45;&gt;3 -->
<g id="edge19" class="edge">
<title>1&#45;&gt;3</title>
<path fill="none" stroke="black" d="M348.42,-98.04C317.1,-93.1 283.09,-84.35 254.6,-69 243.29,-62.91 233.06,-53.21 224.99,-43.96"/>
<polygon fill="black" stroke="black" points="227.53,-41.55 218.47,-36.06 222.13,-46 227.53,-41.55"/>
<text text-anchor="middle" x="270.1" y="-57.8" font-family="Times New Roman,serif" font-size="14.00">0.026</text>
</g>
<!-- 4 -->
<g id="node5" class="node">
<title>4</title>
<g id="a_node5"><a xlink:href="sales manager.svg" xlink:title="sales manager">
<ellipse fill="none" stroke="black" cx="364.6" cy="-18" rx="61.19" ry="18"/>
<text text-anchor="middle" x="364.6" y="-14.3" font-family="Times New Roman,serif" font-size="14.00">sales manager</text>
</a>
</g>
</g>
<!-- 1&#45;&gt;4 -->
<g id="edge14" class="edge">
<title>1&#45;&gt;4</title>
<path fill="none" stroke="black" d="M389.69,-89.48C380.2,-84.51 371.49,-77.87 365.6,-69 361.18,-62.36 359.81,-54.06 359.85,-46.14"/>
<polygon fill="black" stroke="black" points="363.35,-46.35 360.6,-36.11 356.37,-45.82 363.35,-46.35"/>
<text text-anchor="middle" x="381.1" y="-57.8" font-family="Times New Roman,serif" font-size="14.00">0.062</text>
</g>
<!-- 7 -->
<g id="node8" class="node">
<title>7</title>
<g id="a_node8"><a xlink:href="marketing executive.svg" xlink:title="marketing executive">
<ellipse fill="none" stroke="black" cx="525.6" cy="-18" rx="81.79" ry="18"/>
<text text-anchor="middle" x="525.6" y="-14.3" font-family="Times New Roman,serif" font-size="14.00">marketing executive</text>
</a>
</g>
</g>
<!-- 1&#45;&gt;7 -->
<g id="edge15" class="edge">
<title>1&#45;&gt;7</title>
<path fill="none" stroke="black" d="M450.04,-86.81C453.97,-76.44 460.08,-63.44 468.6,-54 473.19,-48.9 478.71,-44.29 484.47,-40.21"/>
<polygon fill="black" stroke="black" points="486.56,-43.03 493.01,-34.63 482.73,-37.17 486.56,-43.03"/>
<text text-anchor="middle" x="484.1" y="-57.8" font-family="Times New Roman,serif" font-size="14.00">0.035</text>
</g>
<!-- 10 -->
<g id="node11" class="node">
<title>10</title>
<g id="a_node11"><a xlink:href="pharmacovigilance officer.svg" xlink:title="pharmacovigilance officer">
<ellipse fill="none" stroke="black" cx="730.6" cy="-18" rx="104.78" ry="18"/>
<text text-anchor="middle" x="730.6" y="-14.3" font-family="Times New Roman,serif" font-size="14.00">pharmacovigilance officer</text>
</a>
</g>
</g>
<!-- 1&#45;&gt;10 -->
<g id="edge11" class="edge">
<title>1&#45;&gt;10</title>
<path fill="none" stroke="black" d="M494.41,-89.19C543.43,-74.63 618.31,-52.37 670.58,-36.84"/>
<polygon fill="black" stroke="black" points="671.8,-40.13 680.39,-33.92 669.81,-33.42 671.8,-40.13"/>
<text text-anchor="middle" x="621.1" y="-57.8" font-family="Times New Roman,serif" font-size="14.00">0.089</text>
</g>
<!-- 11 -->
<g id="node12" class="node">
<title>11</title>
<g id="a_node12"><a xlink:href="teaching assistant.svg" xlink:title="teaching assistant">
<ellipse fill="none" stroke="black" cx="926.6" cy="-18" rx="73.39" ry="18"/>
<text text-anchor="middle" x="926.6" y="-14.3" font-family="Times New Roman,serif" font-size="14.00">teaching assistant</text>
</a>
</g>
</g>
<!-- 1&#45;&gt;11 -->
<g id="edge16" class="edge">
<title>1&#45;&gt;11</title>
<path fill="none" stroke="black" d="M518.46,-92.26C598.84,-79.3 731.07,-57.41 844.6,-36 850.45,-34.9 856.54,-33.71 862.63,-32.49"/>
<polygon fill="black" stroke="black" points="863.73,-35.84 872.84,-30.43 862.34,-28.98 863.73,-35.84"/>
<text text-anchor="middle" x="750.1" y="-57.8" font-family="Times New Roman,serif" font-size="14.00">0.035</text>
</g>
<!-- 12 -->
<g id="node13" class="node">
<title>12</title>
<g id="a_node13"><a xlink:href="heritage manager.svg" xlink:title="heritage manager">
<ellipse fill="none" stroke="black" cx="1089.6" cy="-18" rx="71.49" ry="18"/>
<text text-anchor="middle" x="1089.6" y="-14.3" font-family="Times New Roman,serif" font-size="14.00">heritage manager</text>
</a>
</g>
</g>
<!-- 1&#45;&gt;12 -->
<g id="edge17" class="edge">
<title>1&#45;&gt;12</title>
<path fill="none" stroke="black" d="M534.88,-96.04C646.61,-85.51 842.43,-64.87 1008.6,-36 1014.82,-34.92 1021.3,-33.71 1027.75,-32.44"/>
<polygon fill="black" stroke="black" points="1028.73,-35.82 1037.85,-30.42 1027.35,-28.95 1028.73,-35.82"/>
<text text-anchor="middle" x="901.1" y="-57.8" font-family="Times New Roman,serif" font-size="14.00">0.026</text>
</g>
<!-- 13 -->
<g id="node14" class="node">
<title>13</title>
<g id="a_node14"><a xlink:href="local government administrator.svg" xlink:title="local government administrator">
<ellipse fill="none" stroke="black" cx="1301.6" cy="-18" rx="122.38" ry="18"/>
<text text-anchor="middle" x="1301.6" y="-14.3" font-family="Times New Roman,serif" font-size="14.00">local government administrator</text>
</a>
</g>
</g>
<!-- 1&#45;&gt;13 -->
<g id="edge18" class="edge">
<title>1&#45;&gt;13</title>
<path fill="none" stroke="black" d="M541.83,-98.48C638.13,-92.63 789.73,-82.39 920.6,-69 1019.04,-58.93 1131.33,-43.74 1208.35,-32.75"/>
<polygon fill="black" stroke="black" points="1209.11,-36.18 1218.51,-31.29 1208.12,-29.25 1209.11,-36.18"/>
<text text-anchor="middle" x="1061.1" y="-57.8" font-family="Times New Roman,serif" font-size="14.00">0.026</text>
</g>
<!-- 2&#45;&gt;1 -->
<g id="edge2" class="edge">
<title>2&#45;&gt;1</title>
<path fill="none" stroke="black" d="M87.7,-32.33C116.95,-43.63 161,-59.47 200.6,-69 247.98,-80.41 301.49,-88.59 346.31,-94.16"/>
<polygon fill="black" stroke="black" points="345.97,-97.65 356.32,-95.38 346.81,-90.7 345.97,-97.65"/>
<text text-anchor="middle" x="216.1" y="-57.8" font-family="Times New Roman,serif" font-size="14.00">0.035</text>
</g>
<!-- 3&#45;&gt;1 -->
<g id="edge3" class="edge">
<title>3&#45;&gt;1</title>
<path fill="none" stroke="black" d="M240.31,-34.35C263.92,-44.81 296.35,-58.59 325.6,-69 343.4,-75.34 362.98,-81.44 381.03,-86.73"/>
<polygon fill="black" stroke="black" points="380.29,-90.16 390.87,-89.58 382.24,-83.44 380.29,-90.16"/>
<text text-anchor="middle" x="341.1" y="-57.8" font-family="Times New Roman,serif" font-size="14.00">0.035</text>
</g>
<!-- 4&#45;&gt;1 -->
<g id="edge4" class="edge">
<title>4&#45;&gt;1</title>
<path fill="none" stroke="black" d="M380.1,-35.47C391.93,-48.04 408.41,-65.55 421.75,-79.73"/>
<polygon fill="black" stroke="black" points="419.39,-82.32 428.79,-87.21 424.48,-77.53 419.39,-82.32"/>
<text text-anchor="middle" x="425.1" y="-57.8" font-family="Times New Roman,serif" font-size="14.00">0.035</text>
</g>
<!-- 5 -->
<g id="node6" class="node">
<title>5</title>
<g id="a_node6"><a xlink:href="facilities manager.svg" xlink:title="facilities manager">
<ellipse fill="none" stroke="black" cx="316.6" cy="-192" rx="72.59" ry="18"/>
<text text-anchor="middle" x="316.6" y="-188.3" font-family="Times New Roman,serif" font-size="14.00">facilities manager</text>
</a>
</g>
</g>
<!-- 5&#45;&gt;1 -->
<g id="edge5" class="edge">
<title>5&#45;&gt;1</title>
<path fill="none" stroke="black" d="M340.67,-175.01C360.62,-161.77 389.18,-142.8 411.31,-128.1"/>
<polygon fill="black" stroke="black" points="413.36,-130.94 419.75,-122.5 409.49,-125.11 413.36,-130.94"/>
<text text-anchor="middle" x="404.1" y="-144.8" font-family="Times New Roman,serif" font-size="14.00">0.028</text>
</g>
<!-- 6 -->
<g id="node7" class="node">
<title>6</title>
<g id="a_node7"><a xlink:href="geographical information systems manager.svg" xlink:title="geographical information systems manager">
<ellipse fill="none" stroke="black" cx="572.6" cy="-192" rx="165.17" ry="18"/>
<text text-anchor="middle" x="572.6" y="-188.3" font-family="Times New Roman,serif" font-size="14.00">geographical information systems manager</text>
</a>
</g>
</g>
<!-- 6&#45;&gt;1 -->
<g id="edge6" class="edge">
<title>6&#45;&gt;1</title>
<path fill="none" stroke="black" d="M547.31,-174.21C527.58,-161.11 500,-142.8 478.39,-128.44"/>
<polygon fill="black" stroke="black" points="480.1,-125.37 469.83,-122.76 476.23,-131.21 480.1,-125.37"/>
<text text-anchor="middle" x="532.1" y="-144.8" font-family="Times New Roman,serif" font-size="14.00">0.028</text>
</g>
<!-- 7&#45;&gt;1 -->
<g id="edge7" class="edge">
<title>7&#45;&gt;1</title>
<path fill="none" stroke="black" d="M520.95,-36.23C517.49,-46.63 511.9,-59.63 503.6,-69 499.14,-74.03 493.78,-78.55 488.13,-82.53"/>
<polygon fill="black" stroke="black" points="486.21,-79.6 479.72,-87.97 490.02,-85.47 486.21,-79.6"/>
<text text-anchor="middle" x="529.1" y="-57.8" font-family="Times New Roman,serif" font-size="14.00">0.028</text>
</g>
<!-- 8 -->
<g id="node9" class="node">
<title>8</title>
<g id="a_node9"><a xlink:href="office manager.svg" xlink:title="office manager">
<ellipse fill="none" stroke="black" cx="819.6" cy="-192" rx="64.19" ry="18"/>
<text text-anchor="middle" x="819.6" y="-188.3" font-family="Times New Roman,serif" font-size="14.00">office manager</text>
</a>
</g>
</g>
<!-- 8&#45;&gt;1 -->
<g id="edge8" class="edge">
<title>8&#45;&gt;1</title>
<path fill="none" stroke="black" d="M771.7,-179.79C763.33,-177.85 754.71,-175.86 746.6,-174 667.57,-155.9 576.81,-135.52 515.59,-121.83"/>
<polygon fill="black" stroke="black" points="516.17,-118.38 505.65,-119.61 514.64,-125.21 516.17,-118.38"/>
<text text-anchor="middle" x="680.1" y="-144.8" font-family="Times New Roman,serif" font-size="14.00">0.028</text>
</g>
<!-- 9 -->
<g id="node10" class="node">
<title>9</title>
<g id="a_node10"><a xlink:href="warehouse manager.svg" xlink:title="warehouse manager">
<ellipse fill="none" stroke="black" cx="983.6" cy="-192" rx="81.79" ry="18"/>
<text text-anchor="middle" x="983.6" y="-188.3" font-family="Times New Roman,serif" font-size="14.00">warehouse manager</text>
</a>
</g>
</g>
<!-- 9&#45;&gt;1 -->
<g id="edge9" class="edge">
<title>9&#45;&gt;1</title>
<path fill="none" stroke="black" d="M923.41,-179.62C913.13,-177.72 902.56,-175.78 892.6,-174 806.93,-158.68 785.6,-154.25 699.6,-141 645.27,-132.63 584.28,-124.22 535.57,-117.75"/>
<polygon fill="black" stroke="black" points="535.75,-114.24 525.37,-116.4 534.83,-121.18 535.75,-114.24"/>
<text text-anchor="middle" x="805.1" y="-144.8" font-family="Times New Roman,serif" font-size="14.00">0.028</text>
</g>
</g>
</svg>
