<?xml version="1.0" encoding="UTF-8" standalone="no"?>
<!DOCTYPE svg PUBLIC "-//W3C//DTD SVG 1.1//EN"
 "http://www.w3.org/Graphics/SVG/1.1/DTD/svg11.dtd">
<!-- Generated by graphviz version 2.44.1 (20200629.0800)
 -->
<!-- Title: test Pages: 1 -->
<svg width="1545pt" height="218pt"
 viewBox="0.00 0.00 1545.04 218.00" xmlns="http://www.w3.org/2000/svg" xmlns:xlink="http://www.w3.org/1999/xlink">
<g id="graph0" class="graph" transform="scale(1 1) rotate(0) translate(4 214)">
<title>test</title>
<polygon fill="white" stroke="transparent" points="-4,4 -4,-214 1541.04,-214 1541.04,4 -4,4"/>
<!-- 0 -->
<g id="node1" class="node">
<title>0</title>
<g id="a_node1"><a xlink:href="network administrator.svg" xlink:title="network administrator">
<ellipse fill="none" stroke="black" cx="91.79" cy="-192" rx="89.88" ry="18"/>
<text text-anchor="middle" x="91.79" y="-188.3" font-family="Times New Roman,serif" font-size="14.00">network administrator</text>
</a>
</g>
</g>
<!-- 1 -->
<g id="node2" class="node">
<title>1</title>
<g id="a_node2"><a xlink:href="packaging technologist.svg" xlink:title="packaging technologist">
<ellipse fill="none" stroke="black" cx="740.79" cy="-105" rx="93.68" ry="18"/>
<text text-anchor="middle" x="740.79" y="-101.3" font-family="Times New Roman,serif" font-size="14.00">packaging technologist</text>
</a>
</g>
</g>
<!-- 0&#45;&gt;1 -->
<g id="edge1" class="edge">
<title>0&#45;&gt;1</title>
<path fill="none" stroke="black" d="M103.32,-173.84C112.1,-162.34 125.3,-148.05 140.79,-141 184.71,-121.03 478.31,-111.64 637.92,-107.98"/>
<polygon fill="black" stroke="black" points="638.32,-111.47 648.23,-107.74 638.16,-104.47 638.32,-111.47"/>
<text text-anchor="middle" x="156.29" y="-144.8" font-family="Times New Roman,serif" font-size="14.00">0.111</text>
</g>
<!-- 1&#45;&gt;0 -->
<g id="edge17" class="edge">
<title>1&#45;&gt;0</title>
<path fill="none" stroke="black" d="M657.76,-113.35C589.04,-119.73 488.93,-129.7 401.79,-141 307.66,-153.21 284.46,-158.63 190.79,-174 183.17,-175.25 175.22,-176.58 167.29,-177.92"/>
<polygon fill="black" stroke="black" points="166.55,-174.49 157.27,-179.61 167.72,-181.39 166.55,-174.49"/>
<text text-anchor="middle" x="417.29" y="-144.8" font-family="Times New Roman,serif" font-size="14.00">0.066</text>
</g>
<!-- 1&#45;&gt;1 -->
<g id="edge10" class="edge">
<title>1&#45;&gt;1</title>
<path fill="none" stroke="black" d="M826.41,-112.41C841.7,-111.45 852.39,-108.98 852.39,-105 852.39,-101.99 846.25,-99.84 836.63,-98.55"/>
<polygon fill="black" stroke="black" points="836.7,-95.04 826.41,-97.59 836.04,-102.01 836.7,-95.04"/>
<text text-anchor="middle" x="867.89" y="-101.3" font-family="Times New Roman,serif" font-size="14.00">0.133</text>
</g>
<!-- 10 -->
<g id="node11" class="node">
<title>10</title>
<g id="a_node11"><a xlink:href="research scientist.svg" xlink:title="research scientist">
<ellipse fill="none" stroke="black" cx="72.79" cy="-18" rx="72.59" ry="18"/>
<text text-anchor="middle" x="72.79" y="-14.3" font-family="Times New Roman,serif" font-size="14.00">research scientist</text>
</a>
</g>
</g>
<!-- 1&#45;&gt;10 -->
<g id="edge11" class="edge">
<title>1&#45;&gt;10</title>
<path fill="none" stroke="black" d="M656.84,-96.82C542.59,-86.47 331.96,-65.33 153.79,-36 147.65,-34.99 141.27,-33.83 134.91,-32.61"/>
<polygon fill="black" stroke="black" points="135.44,-29.15 124.95,-30.65 134.09,-36.02 135.44,-29.15"/>
<text text-anchor="middle" x="395.29" y="-57.8" font-family="Times New Roman,serif" font-size="14.00">0.133</text>
</g>
<!-- 11 -->
<g id="node12" class="node">
<title>11</title>
<g id="a_node12"><a xlink:href="education administrator.svg" xlink:title="education administrator">
<ellipse fill="none" stroke="black" cx="258.79" cy="-18" rx="95.58" ry="18"/>
<text text-anchor="middle" x="258.79" y="-14.3" font-family="Times New Roman,serif" font-size="14.00">education administrator</text>
</a>
</g>
</g>
<!-- 1&#45;&gt;11 -->
<g id="edge12" class="edge">
<title>1&#45;&gt;11</title>
<path fill="none" stroke="black" d="M673.66,-92.29C634.84,-85.51 585.06,-76.8 540.79,-69 471.39,-56.77 392.39,-42.76 335.7,-32.68"/>
<polygon fill="black" stroke="black" points="336.19,-29.22 325.73,-30.91 334.97,-36.11 336.19,-29.22"/>
<text text-anchor="middle" x="556.29" y="-57.8" font-family="Times New Roman,serif" font-size="14.00">0.066</text>
</g>
<!-- 12 -->
<g id="node13" class="node">
<title>12</title>
<g id="a_node13"><a xlink:href="financial manager.svg" xlink:title="financial manager">
<ellipse fill="none" stroke="black" cx="445.79" cy="-18" rx="73.39" ry="18"/>
<text text-anchor="middle" x="445.79" y="-14.3" font-family="Times New Roman,serif" font-size="14.00">financial manager</text>
</a>
</g>
</g>
<!-- 1&#45;&gt;12 -->
<g id="edge13" class="edge">
<title>1&#45;&gt;12</title>
<path fill="none" stroke="black" d="M691.08,-89.68C638.53,-74.53 555.82,-50.7 501.2,-34.96"/>
<polygon fill="black" stroke="black" points="501.92,-31.53 491.34,-32.12 499.98,-38.26 501.92,-31.53"/>
<text text-anchor="middle" x="627.29" y="-57.8" font-family="Times New Roman,serif" font-size="14.00">0.066</text>
</g>
<!-- 13 -->
<g id="node14" class="node">
<title>13</title>
<g id="a_node14"><a xlink:href="health and safety adviser.svg" xlink:title="health and safety adviser">
<ellipse fill="none" stroke="black" cx="636.79" cy="-18" rx="99.38" ry="18"/>
<text text-anchor="middle" x="636.79" y="-14.3" font-family="Times New Roman,serif" font-size="14.00">health and safety adviser</text>
</a>
</g>
</g>
<!-- 1&#45;&gt;13 -->
<g id="edge14" class="edge">
<title>1&#45;&gt;13</title>
<path fill="none" stroke="black" d="M720.25,-87.21C704.58,-74.4 682.81,-56.61 665.43,-42.4"/>
<polygon fill="black" stroke="black" points="667.26,-39.38 657.3,-35.76 662.83,-44.8 667.26,-39.38"/>
<text text-anchor="middle" x="711.29" y="-57.8" font-family="Times New Roman,serif" font-size="14.00">0.066</text>
</g>
<!-- 14 -->
<g id="node15" class="node">
<title>14</title>
<g id="a_node15"><a xlink:href="leisure centre manager.svg" xlink:title="leisure centre manager">
<ellipse fill="none" stroke="black" cx="844.79" cy="-18" rx="90.98" ry="18"/>
<text text-anchor="middle" x="844.79" y="-14.3" font-family="Times New Roman,serif" font-size="14.00">leisure centre manager</text>
</a>
</g>
</g>
<!-- 1&#45;&gt;14 -->
<g id="edge15" class="edge">
<title>1&#45;&gt;14</title>
<path fill="none" stroke="black" d="M761.34,-87.21C777.01,-74.4 798.78,-56.61 816.16,-42.4"/>
<polygon fill="black" stroke="black" points="818.76,-44.8 824.29,-35.76 814.33,-39.38 818.76,-44.8"/>
<text text-anchor="middle" x="815.29" y="-57.8" font-family="Times New Roman,serif" font-size="14.00">0.066</text>
</g>
<!-- 15 -->
<g id="node16" class="node">
<title>15</title>
<g id="a_node16"><a xlink:href="logistics manager.svg" xlink:title="logistics manager">
<ellipse fill="none" stroke="black" cx="1026.79" cy="-18" rx="73.39" ry="18"/>
<text text-anchor="middle" x="1026.79" y="-14.3" font-family="Times New Roman,serif" font-size="14.00">logistics manager</text>
</a>
</g>
</g>
<!-- 1&#45;&gt;15 -->
<g id="edge16" class="edge">
<title>1&#45;&gt;15</title>
<path fill="none" stroke="black" d="M789.31,-89.58C839.91,-74.54 919.09,-51.01 971.94,-35.3"/>
<polygon fill="black" stroke="black" points="973.23,-38.57 981.82,-32.37 971.23,-31.86 973.23,-38.57"/>
<text text-anchor="middle" x="917.29" y="-57.8" font-family="Times New Roman,serif" font-size="14.00">0.066</text>
</g>
<!-- 16 -->
<g id="node17" class="node">
<title>16</title>
<g id="a_node17"><a xlink:href="pharmacovigilance officer.svg" xlink:title="pharmacovigilance officer">
<ellipse fill="none" stroke="black" cx="1222.79" cy="-18" rx="104.78" ry="18"/>
<text text-anchor="middle" x="1222.79" y="-14.3" font-family="Times New Roman,serif" font-size="14.00">pharmacovigilance officer</text>
</a>
</g>
</g>
<!-- 1&#45;&gt;16 -->
<g id="edge18" class="edge">
<title>1&#45;&gt;16</title>
<path fill="none" stroke="black" d="M807.31,-92.27C894.89,-76.82 1048.74,-49.69 1142.65,-33.13"/>
<polygon fill="black" stroke="black" points="1143.43,-36.55 1152.67,-31.37 1142.21,-29.66 1143.43,-36.55"/>
<text text-anchor="middle" x="1025.29" y="-57.8" font-family="Times New Roman,serif" font-size="14.00">0.066</text>
</g>
<!-- 17 -->
<g id="node18" class="node">
<title>17</title>
<g id="a_node18"><a xlink:href="planning technician.svg" xlink:title="planning technician">
<ellipse fill="none" stroke="black" cx="1424.79" cy="-18" rx="79.09" ry="18"/>
<text text-anchor="middle" x="1424.79" y="-14.3" font-family="Times New Roman,serif" font-size="14.00">planning technician</text>
</a>
</g>
</g>
<!-- 1&#45;&gt;17 -->
<g id="edge19" class="edge">
<title>1&#45;&gt;17</title>
<path fill="none" stroke="black" d="M823.98,-96.55C939.43,-85.76 1154.59,-63.95 1336.79,-36 1343.61,-34.95 1350.71,-33.76 1357.79,-32.5"/>
<polygon fill="black" stroke="black" points="1358.89,-35.86 1368.1,-30.62 1357.63,-28.97 1358.89,-35.86"/>
<text text-anchor="middle" x="1221.29" y="-57.8" font-family="Times New Roman,serif" font-size="14.00">0.066</text>
</g>
<!-- 2 -->
<g id="node3" class="node">
<title>2</title>
<g id="a_node3"><a xlink:href="barristers clerk.svg" xlink:title="barristers clerk">
<ellipse fill="none" stroke="black" cx="263.79" cy="-192" rx="64.19" ry="18"/>
<text text-anchor="middle" x="263.79" y="-188.3" font-family="Times New Roman,serif" font-size="14.00">barristers clerk</text>
</a>
</g>
</g>
<!-- 2&#45;&gt;1 -->
<g id="edge2" class="edge">
<title>2&#45;&gt;1</title>
<path fill="none" stroke="black" d="M310.83,-179.61C319.44,-177.65 328.37,-175.7 336.79,-174 447.9,-151.59 577.22,-130.73 659.03,-118.17"/>
<polygon fill="black" stroke="black" points="659.66,-121.62 669.02,-116.65 658.6,-114.7 659.66,-121.62"/>
<text text-anchor="middle" x="529.29" y="-144.8" font-family="Times New Roman,serif" font-size="14.00">0.055</text>
</g>
<!-- 3 -->
<g id="node4" class="node">
<title>3</title>
<g id="a_node4"><a xlink:href="commodity broker.svg" xlink:title="commodity broker">
<ellipse fill="none" stroke="black" cx="424.79" cy="-192" rx="78.79" ry="18"/>
<text text-anchor="middle" x="424.79" y="-188.3" font-family="Times New Roman,serif" font-size="14.00">commodity broker</text>
</a>
</g>
</g>
<!-- 3&#45;&gt;1 -->
<g id="edge3" class="edge">
<title>3&#45;&gt;1</title>
<path fill="none" stroke="black" d="M473.82,-177.81C529.08,-162.95 619.01,-138.76 679.02,-122.62"/>
<polygon fill="black" stroke="black" points="680.01,-125.97 688.76,-120 678.19,-119.21 680.01,-125.97"/>
<text text-anchor="middle" x="617.29" y="-144.8" font-family="Times New Roman,serif" font-size="14.00">0.055</text>
</g>
<!-- 4 -->
<g id="node5" class="node">
<title>4</title>
<g id="a_node5"><a xlink:href="community education officer.svg" xlink:title="community education officer">
<ellipse fill="none" stroke="black" cx="636.79" cy="-192" rx="115.08" ry="18"/>
<text text-anchor="middle" x="636.79" y="-188.3" font-family="Times New Roman,serif" font-size="14.00">community education officer</text>
</a>
</g>
</g>
<!-- 4&#45;&gt;1 -->
<g id="edge4" class="edge">
<title>4&#45;&gt;1</title>
<path fill="none" stroke="black" d="M657.34,-174.21C673.01,-161.4 694.78,-143.61 712.16,-129.4"/>
<polygon fill="black" stroke="black" points="714.76,-131.8 720.29,-122.76 710.33,-126.38 714.76,-131.8"/>
<text text-anchor="middle" x="711.29" y="-144.8" font-family="Times New Roman,serif" font-size="14.00">0.055</text>
</g>
<!-- 5 -->
<g id="node6" class="node">
<title>5</title>
<g id="a_node6"><a xlink:href="electrical engineer.svg" xlink:title="electrical engineer">
<ellipse fill="none" stroke="black" cx="844.79" cy="-192" rx="74.99" ry="18"/>
<text text-anchor="middle" x="844.79" y="-188.3" font-family="Times New Roman,serif" font-size="14.00">electrical engineer</text>
</a>
</g>
</g>
<!-- 5&#45;&gt;1 -->
<g id="edge5" class="edge">
<title>5&#45;&gt;1</title>
<path fill="none" stroke="black" d="M824.74,-174.61C809.02,-161.76 786.93,-143.71 769.36,-129.34"/>
<polygon fill="black" stroke="black" points="771.1,-126.25 761.14,-122.63 766.67,-131.67 771.1,-126.25"/>
<text text-anchor="middle" x="815.29" y="-144.8" font-family="Times New Roman,serif" font-size="14.00">0.055</text>
</g>
<!-- 6 -->
<g id="node7" class="node">
<title>6</title>
<g id="a_node7"><a xlink:href="it consultant.svg" xlink:title="it consultant">
<ellipse fill="none" stroke="black" cx="991.79" cy="-192" rx="54.69" ry="18"/>
<text text-anchor="middle" x="991.79" y="-188.3" font-family="Times New Roman,serif" font-size="14.00">it consultant</text>
</a>
</g>
</g>
<!-- 6&#45;&gt;1 -->
<g id="edge6" class="edge">
<title>6&#45;&gt;1</title>
<path fill="none" stroke="black" d="M955.03,-178.55C912.73,-164.23 842.91,-140.58 794.53,-124.2"/>
<polygon fill="black" stroke="black" points="795.44,-120.81 784.85,-120.92 793.2,-127.44 795.44,-120.81"/>
<text text-anchor="middle" x="897.29" y="-144.8" font-family="Times New Roman,serif" font-size="14.00">0.055</text>
</g>
<!-- 7 -->
<g id="node8" class="node">
<title>7</title>
<g id="a_node8"><a xlink:href="laboratory technician.svg" xlink:title="laboratory technician">
<ellipse fill="none" stroke="black" cx="1150.79" cy="-192" rx="86.38" ry="18"/>
<text text-anchor="middle" x="1150.79" y="-188.3" font-family="Times New Roman,serif" font-size="14.00">laboratory technician</text>
</a>
</g>
</g>
<!-- 7&#45;&gt;1 -->
<g id="edge7" class="edge">
<title>7&#45;&gt;1</title>
<path fill="none" stroke="black" d="M1093.14,-178.44C1045.81,-168.19 977.01,-153.42 916.79,-141 883.07,-134.04 845.65,-126.57 814.02,-120.32"/>
<polygon fill="black" stroke="black" points="814.46,-116.84 803.97,-118.34 813.1,-123.71 814.46,-116.84"/>
<text text-anchor="middle" x="1002.29" y="-144.8" font-family="Times New Roman,serif" font-size="14.00">0.055</text>
</g>
<!-- 8 -->
<g id="node9" class="node">
<title>8</title>
<g id="a_node9"><a xlink:href="lecturer.svg" xlink:title="lecturer">
<ellipse fill="none" stroke="black" cx="1292.79" cy="-192" rx="37.89" ry="18"/>
<text text-anchor="middle" x="1292.79" y="-188.3" font-family="Times New Roman,serif" font-size="14.00">lecturer</text>
</a>
</g>
</g>
<!-- 8&#45;&gt;1 -->
<g id="edge8" class="edge">
<title>8&#45;&gt;1</title>
<path fill="none" stroke="black" d="M1264.75,-179.82C1258.57,-177.65 1252.02,-175.57 1245.79,-174 1106.32,-138.88 940.31,-120.94 837.73,-112.53"/>
<polygon fill="black" stroke="black" points="837.95,-109.03 827.7,-111.72 837.38,-116.01 837.95,-109.03"/>
<text text-anchor="middle" x="1179.29" y="-144.8" font-family="Times New Roman,serif" font-size="14.00">0.055</text>
</g>
<!-- 9 -->
<g id="node10" class="node">
<title>9</title>
<g id="a_node10"><a xlink:href="manufacturing engineer.svg" xlink:title="manufacturing engineer">
<ellipse fill="none" stroke="black" cx="1442.79" cy="-192" rx="94.48" ry="18"/>
<text text-anchor="middle" x="1442.79" y="-188.3" font-family="Times New Roman,serif" font-size="14.00">manufacturing engineer</text>
</a>
</g>
</g>
<!-- 9&#45;&gt;1 -->
<g id="edge9" class="edge">
<title>9&#45;&gt;1</title>
<path fill="none" stroke="black" d="M1386.93,-177.46C1337.7,-166.04 1263.88,-150.12 1198.79,-141 1076.62,-123.88 934.85,-114.67 841.79,-110.06"/>
<polygon fill="black" stroke="black" points="841.69,-106.55 831.53,-109.56 841.35,-113.55 841.69,-106.55"/>
<text text-anchor="middle" x="1301.29" y="-144.8" font-family="Times New Roman,serif" font-size="14.00">0.055</text>
</g>
</g>
</svg>
