<?xml version="1.0" encoding="UTF-8" standalone="no"?>
<!DOCTYPE svg PUBLIC "-//W3C//DTD SVG 1.1//EN"
 "http://www.w3.org/Graphics/SVG/1.1/DTD/svg11.dtd">
<!-- Generated by graphviz version 2.44.1 (20200629.0800)
 -->
<!-- Title: patent_attorney Pages: 1 -->
<svg width="1186pt" height="218pt"
 viewBox="0.00 0.00 1185.59 218.00" xmlns="http://www.w3.org/2000/svg" xmlns:xlink="http://www.w3.org/1999/xlink">
<g id="graph0" class="graph" transform="scale(1 1) rotate(0) translate(4 214)">
<title>patent_attorney</title>
<polygon fill="white" stroke="transparent" points="-4,4 -4,-214 1181.59,-214 1181.59,4 -4,4"/>
<!-- 0 -->
<g id="node1" class="node">
<title>0</title>
<g id="a_node1"><a xlink:href="pharmacovigilance officer.svg" xlink:title="pharmacovigilance officer">
<ellipse fill="none" stroke="black" cx="123.99" cy="-192" rx="104.78" ry="18"/>
<text text-anchor="middle" x="123.99" y="-188.3" font-family="Times New Roman,serif" font-size="14.00">pharmacovigilance officer</text>
</a>
</g>
</g>
<!-- 1 -->
<g id="node2" class="node">
<title>1</title>
<g id="a_node2"><a xlink:href="patent attorney.svg" xlink:title="patent attorney">
<ellipse fill="none" stroke="black" cx="427.99" cy="-105" rx="64.19" ry="18"/>
<text text-anchor="middle" x="427.99" y="-101.3" font-family="Times New Roman,serif" font-size="14.00">patent attorney</text>
</a>
</g>
</g>
<!-- 0&#45;&gt;1 -->
<g id="edge1" class="edge">
<title>0&#45;&gt;1</title>
<path fill="none" stroke="black" d="M141.2,-174.06C153.69,-162.81 171.57,-148.73 189.99,-141 242.04,-119.17 305.46,-110.63 353.74,-107.44"/>
<polygon fill="black" stroke="black" points="354.03,-110.93 363.8,-106.84 353.61,-103.94 354.03,-110.93"/>
<text text-anchor="middle" x="205.49" y="-144.8" font-family="Times New Roman,serif" font-size="14.00">0.058</text>
</g>
<!-- 1&#45;&gt;0 -->
<g id="edge13" class="edge">
<title>1&#45;&gt;0</title>
<path fill="none" stroke="black" d="M384.29,-118.22C332.31,-132.75 245.19,-157.11 186.2,-173.61"/>
<polygon fill="black" stroke="black" points="184.94,-170.32 176.25,-176.39 186.83,-177.07 184.94,-170.32"/>
<text text-anchor="middle" x="310.49" y="-144.8" font-family="Times New Roman,serif" font-size="14.00">0.090</text>
</g>
<!-- 1&#45;&gt;1 -->
<g id="edge10" class="edge">
<title>1&#45;&gt;1</title>
<path fill="none" stroke="black" d="M486.46,-112.72C500.2,-112.08 510.34,-109.51 510.34,-105 510.34,-101.69 504.87,-99.42 496.53,-98.2"/>
<polygon fill="black" stroke="black" points="496.74,-94.7 486.46,-97.28 496.11,-101.67 496.74,-94.7"/>
<text text-anchor="middle" x="525.84" y="-101.3" font-family="Times New Roman,serif" font-size="14.00">0.363</text>
</g>
<!-- 5 -->
<g id="node6" class="node">
<title>5</title>
<g id="a_node6"><a xlink:href="careers adviser.svg" xlink:title="careers adviser">
<ellipse fill="none" stroke="black" cx="64.99" cy="-18" rx="64.99" ry="18"/>
<text text-anchor="middle" x="64.99" y="-14.3" font-family="Times New Roman,serif" font-size="14.00">careers adviser</text>
</a>
</g>
</g>
<!-- 1&#45;&gt;5 -->
<g id="edge12" class="edge">
<title>1&#45;&gt;5</title>
<path fill="none" stroke="black" d="M363.68,-103.48C280.81,-101.74 142.23,-94.91 98.99,-69 89.67,-63.42 82.33,-54.17 76.89,-45.15"/>
<polygon fill="black" stroke="black" points="79.95,-43.43 72.09,-36.33 73.8,-46.79 79.95,-43.43"/>
<text text-anchor="middle" x="114.49" y="-57.8" font-family="Times New Roman,serif" font-size="14.00">0.090</text>
</g>
<!-- 6 -->
<g id="node7" class="node">
<title>6</title>
<g id="a_node7"><a xlink:href="curator.svg" xlink:title="curator">
<ellipse fill="none" stroke="black" cx="183.99" cy="-18" rx="36.29" ry="18"/>
<text text-anchor="middle" x="183.99" y="-14.3" font-family="Times New Roman,serif" font-size="14.00">curator</text>
</a>
</g>
</g>
<!-- 1&#45;&gt;6 -->
<g id="edge11" class="edge">
<title>1&#45;&gt;6</title>
<path fill="none" stroke="black" d="M363.6,-103.76C322.2,-101.05 268.58,-92.61 226.99,-69 216.32,-62.94 207.05,-53.19 199.87,-43.9"/>
<polygon fill="black" stroke="black" points="202.59,-41.68 193.89,-35.62 196.91,-45.78 202.59,-41.68"/>
<text text-anchor="middle" x="242.49" y="-57.8" font-family="Times New Roman,serif" font-size="14.00">0.136</text>
</g>
<!-- 8 -->
<g id="node9" class="node">
<title>8</title>
<g id="a_node9"><a xlink:href="education administrator.svg" xlink:title="education administrator">
<ellipse fill="none" stroke="black" cx="333.99" cy="-18" rx="95.58" ry="18"/>
<text text-anchor="middle" x="333.99" y="-14.3" font-family="Times New Roman,serif" font-size="14.00">education administrator</text>
</a>
</g>
</g>
<!-- 1&#45;&gt;8 -->
<g id="edge16" class="edge">
<title>1&#45;&gt;8</title>
<path fill="none" stroke="black" d="M377.53,-93.67C363.75,-88.47 350.12,-80.67 340.99,-69 336.04,-62.66 333.74,-54.44 332.82,-46.5"/>
<polygon fill="black" stroke="black" points="336.31,-46.22 332.31,-36.41 329.32,-46.58 336.31,-46.22"/>
<text text-anchor="middle" x="356.49" y="-57.8" font-family="Times New Roman,serif" font-size="14.00">0.045</text>
</g>
<!-- 9 -->
<g id="node10" class="node">
<title>9</title>
<g id="a_node10"><a xlink:href="forensic scientist.svg" xlink:title="forensic scientist">
<ellipse fill="none" stroke="black" cx="518.99" cy="-18" rx="71.49" ry="18"/>
<text text-anchor="middle" x="518.99" y="-14.3" font-family="Times New Roman,serif" font-size="14.00">forensic scientist</text>
</a>
</g>
</g>
<!-- 1&#45;&gt;9 -->
<g id="edge17" class="edge">
<title>1&#45;&gt;9</title>
<path fill="none" stroke="black" d="M434.79,-86.7C439.54,-76.27 446.69,-63.27 455.99,-54 461.66,-48.35 468.44,-43.34 475.4,-39"/>
<polygon fill="black" stroke="black" points="477.37,-41.9 484.27,-33.86 473.86,-35.85 477.37,-41.9"/>
<text text-anchor="middle" x="471.49" y="-57.8" font-family="Times New Roman,serif" font-size="14.00">0.045</text>
</g>
<!-- 10 -->
<g id="node11" class="node">
<title>10</title>
<g id="a_node11"><a xlink:href="animator.svg" xlink:title="animator">
<ellipse fill="none" stroke="black" cx="650.99" cy="-18" rx="42.49" ry="18"/>
<text text-anchor="middle" x="650.99" y="-14.3" font-family="Times New Roman,serif" font-size="14.00">animator</text>
</a>
</g>
</g>
<!-- 1&#45;&gt;10 -->
<g id="edge14" class="edge">
<title>1&#45;&gt;10</title>
<path fill="none" stroke="black" d="M470.94,-91.52C491.42,-85.27 516.16,-77.28 537.99,-69 564.03,-59.13 592.71,-46.42 614.67,-36.28"/>
<polygon fill="black" stroke="black" points="616.35,-39.36 623.94,-31.97 613.4,-33.01 616.35,-39.36"/>
<text text-anchor="middle" x="588.49" y="-57.8" font-family="Times New Roman,serif" font-size="14.00">0.045</text>
</g>
<!-- 11 -->
<g id="node12" class="node">
<title>11</title>
<g id="a_node12"><a xlink:href="counsellor.svg" xlink:title="counsellor">
<ellipse fill="none" stroke="black" cx="758.99" cy="-18" rx="48.19" ry="18"/>
<text text-anchor="middle" x="758.99" y="-14.3" font-family="Times New Roman,serif" font-size="14.00">counsellor</text>
</a>
</g>
</g>
<!-- 1&#45;&gt;11 -->
<g id="edge15" class="edge">
<title>1&#45;&gt;11</title>
<path fill="none" stroke="black" d="M482.35,-95.29C518.28,-89.08 566.26,-79.92 607.99,-69 645.08,-59.3 686.34,-45.42 716.35,-34.74"/>
<polygon fill="black" stroke="black" points="717.84,-37.92 726.07,-31.25 715.48,-31.34 717.84,-37.92"/>
<text text-anchor="middle" x="673.49" y="-57.8" font-family="Times New Roman,serif" font-size="14.00">0.045</text>
</g>
<!-- 12 -->
<g id="node13" class="node">
<title>12</title>
<g id="a_node13"><a xlink:href="government research officer.svg" xlink:title="government research officer">
<ellipse fill="none" stroke="black" cx="937.99" cy="-18" rx="112.38" ry="18"/>
<text text-anchor="middle" x="937.99" y="-14.3" font-family="Times New Roman,serif" font-size="14.00">government research officer</text>
</a>
</g>
</g>
<!-- 1&#45;&gt;12 -->
<g id="edge18" class="edge">
<title>1&#45;&gt;12</title>
<path fill="none" stroke="black" d="M486.59,-97.45C540.4,-91.16 622.29,-80.87 692.99,-69 751.37,-59.2 817.07,-45.65 865.73,-35.13"/>
<polygon fill="black" stroke="black" points="866.5,-38.55 875.53,-33 865.02,-31.71 866.5,-38.55"/>
<text text-anchor="middle" x="789.49" y="-57.8" font-family="Times New Roman,serif" font-size="14.00">0.045</text>
</g>
<!-- 13 -->
<g id="node14" class="node">
<title>13</title>
<g id="a_node14"><a xlink:href="it consultant.svg" xlink:title="it consultant">
<ellipse fill="none" stroke="black" cx="1122.99" cy="-18" rx="54.69" ry="18"/>
<text text-anchor="middle" x="1122.99" y="-14.3" font-family="Times New Roman,serif" font-size="14.00">it consultant</text>
</a>
</g>
</g>
<!-- 1&#45;&gt;13 -->
<g id="edge19" class="edge">
<title>1&#45;&gt;13</title>
<path fill="none" stroke="black" d="M490.79,-100.9C604.87,-94.47 853.36,-76.71 1058.99,-36 1063.68,-35.07 1068.53,-34 1073.37,-32.85"/>
<polygon fill="black" stroke="black" points="1074.37,-36.21 1083.23,-30.41 1072.69,-29.41 1074.37,-36.21"/>
<text text-anchor="middle" x="954.49" y="-57.8" font-family="Times New Roman,serif" font-size="14.00">0.045</text>
</g>
<!-- 2 -->
<g id="node3" class="node">
<title>2</title>
<g id="a_node3"><a xlink:href="research scientist.svg" xlink:title="research scientist">
<ellipse fill="none" stroke="black" cx="318.99" cy="-192" rx="72.59" ry="18"/>
<text text-anchor="middle" x="318.99" y="-188.3" font-family="Times New Roman,serif" font-size="14.00">research scientist</text>
</a>
</g>
</g>
<!-- 2&#45;&gt;1 -->
<g id="edge2" class="edge">
<title>2&#45;&gt;1</title>
<path fill="none" stroke="black" d="M340.01,-174.61C356.75,-161.56 380.37,-143.14 398.92,-128.67"/>
<polygon fill="black" stroke="black" points="401.31,-131.25 407.04,-122.34 397,-125.73 401.31,-131.25"/>
<text text-anchor="middle" x="396.49" y="-144.8" font-family="Times New Roman,serif" font-size="14.00">0.058</text>
</g>
<!-- 3 -->
<g id="node4" class="node">
<title>3</title>
<g id="a_node4"><a xlink:href="training and development officer.svg" xlink:title="training and development officer">
<ellipse fill="none" stroke="black" cx="537.99" cy="-192" rx="128.08" ry="18"/>
<text text-anchor="middle" x="537.99" y="-188.3" font-family="Times New Roman,serif" font-size="14.00">training and development officer</text>
</a>
</g>
</g>
<!-- 3&#45;&gt;1 -->
<g id="edge3" class="edge">
<title>3&#45;&gt;1</title>
<path fill="none" stroke="black" d="M516.26,-174.21C499.32,-161.12 475.64,-142.81 457.07,-128.46"/>
<polygon fill="black" stroke="black" points="458.99,-125.53 448.94,-122.18 454.71,-131.07 458.99,-125.53"/>
<text text-anchor="middle" x="505.49" y="-144.8" font-family="Times New Roman,serif" font-size="14.00">0.058</text>
</g>
<!-- 4 -->
<g id="node5" class="node">
<title>4</title>
<g id="a_node5"><a xlink:href="barristers clerk.svg" xlink:title="barristers clerk">
<ellipse fill="none" stroke="black" cx="747.99" cy="-192" rx="64.19" ry="18"/>
<text text-anchor="middle" x="747.99" y="-188.3" font-family="Times New Roman,serif" font-size="14.00">barristers clerk</text>
</a>
</g>
</g>
<!-- 4&#45;&gt;1 -->
<g id="edge4" class="edge">
<title>4&#45;&gt;1</title>
<path fill="none" stroke="black" d="M702.82,-179C645.05,-163.66 545.07,-137.1 482.94,-120.6"/>
<polygon fill="black" stroke="black" points="483.5,-117.12 472.93,-117.94 481.7,-123.89 483.5,-117.12"/>
<text text-anchor="middle" x="623.49" y="-144.8" font-family="Times New Roman,serif" font-size="14.00">0.029</text>
</g>
<!-- 5&#45;&gt;1 -->
<g id="edge5" class="edge">
<title>5&#45;&gt;1</title>
<path fill="none" stroke="black" d="M92.8,-34.52C114.32,-45.84 145.21,-60.61 173.99,-69 233.79,-86.42 304.1,-95.26 355.57,-99.68"/>
<polygon fill="black" stroke="black" points="355.35,-103.18 365.6,-100.51 355.92,-96.2 355.35,-103.18"/>
<text text-anchor="middle" x="189.49" y="-57.8" font-family="Times New Roman,serif" font-size="14.00">0.029</text>
</g>
<!-- 6&#45;&gt;1 -->
<g id="edge6" class="edge">
<title>6&#45;&gt;1</title>
<path fill="none" stroke="black" d="M209.39,-31.17C232.62,-42.01 268.12,-57.83 299.99,-69 322.91,-77.03 348.66,-84.38 371.01,-90.25"/>
<polygon fill="black" stroke="black" points="370.14,-93.64 380.7,-92.75 371.89,-86.86 370.14,-93.64"/>
<text text-anchor="middle" x="315.49" y="-57.8" font-family="Times New Roman,serif" font-size="14.00">0.029</text>
</g>
<!-- 7 -->
<g id="node8" class="node">
<title>7</title>
<g id="a_node8"><a xlink:href="debt adviser.svg" xlink:title="debt adviser">
<ellipse fill="none" stroke="black" cx="885.99" cy="-192" rx="55.49" ry="18"/>
<text text-anchor="middle" x="885.99" y="-188.3" font-family="Times New Roman,serif" font-size="14.00">debt adviser</text>
</a>
</g>
</g>
<!-- 7&#45;&gt;1 -->
<g id="edge7" class="edge">
<title>7&#45;&gt;1</title>
<path fill="none" stroke="black" d="M845.19,-179.85C837.19,-177.8 828.85,-175.75 820.99,-174 707,-148.56 572.61,-127.12 494.19,-115.46"/>
<polygon fill="black" stroke="black" points="494.38,-111.95 483.97,-113.95 493.35,-118.87 494.38,-111.95"/>
<text text-anchor="middle" x="739.49" y="-144.8" font-family="Times New Roman,serif" font-size="14.00">0.029</text>
</g>
<!-- 8&#45;&gt;1 -->
<g id="edge8" class="edge">
<title>8&#45;&gt;1</title>
<path fill="none" stroke="black" d="M352.71,-35.92C366.85,-48.71 386.44,-66.43 402.09,-80.58"/>
<polygon fill="black" stroke="black" points="400.11,-83.5 409.87,-87.61 404.8,-78.31 400.11,-83.5"/>
<text text-anchor="middle" x="402.49" y="-57.8" font-family="Times New Roman,serif" font-size="14.00">0.029</text>
</g>
<!-- 9&#45;&gt;1 -->
<g id="edge9" class="edge">
<title>9&#45;&gt;1</title>
<path fill="none" stroke="black" d="M512.2,-36.3C507.45,-46.73 500.3,-59.73 490.99,-69 485.14,-74.84 478.1,-79.99 470.89,-84.43"/>
<polygon fill="black" stroke="black" points="468.69,-81.66 461.74,-89.67 472.16,-87.74 468.69,-81.66"/>
<text text-anchor="middle" x="518.49" y="-57.8" font-family="Times New Roman,serif" font-size="14.00">0.029</text>
</g>
</g>
</svg>
