<?xml version="1.0" encoding="UTF-8" standalone="no"?>
<!DOCTYPE svg PUBLIC "-//W3C//DTD SVG 1.1//EN"
 "http://www.w3.org/Graphics/SVG/1.1/DTD/svg11.dtd">
<!-- Generated by graphviz version 2.44.1 (20200629.0800)
 -->
<!-- Title: test Pages: 1 -->
<svg width="1186pt" height="218pt"
 viewBox="0.00 0.00 1185.59 218.00" xmlns="http://www.w3.org/2000/svg" xmlns:xlink="http://www.w3.org/1999/xlink">
<g id="graph0" class="graph" transform="scale(1 1) rotate(0) translate(4 214)">
<title>test</title>
<polygon fill="white" stroke="transparent" points="-4,4 -4,-214 1181.59,-214 1181.59,4 -4,4"/>
<!-- 0 -->
<g id="node1" class="node">
<title>0</title>
<g id="a_node1"><a xlink:href="pharmacovigilance officer.svg" xlink:title="pharmacovigilance officer">
<ellipse fill="none" stroke="black" cx="269.99" cy="-192" rx="104.78" ry="18"/>
<text text-anchor="middle" x="269.99" y="-188.3" font-family="Times New Roman,serif" font-size="14.00">pharmacovigilance officer</text>
</a>
</g>
</g>
<!-- 1 -->
<g id="node2" class="node">
<title>1</title>
<g id="a_node2"><a xlink:href="patent attorney.svg" xlink:title="patent attorney">
<ellipse fill="none" stroke="black" cx="464.99" cy="-105" rx="64.19" ry="18"/>
<text text-anchor="middle" x="464.99" y="-101.3" font-family="Times New Roman,serif" font-size="14.00">patent attorney</text>
</a>
</g>
</g>
<!-- 0&#45;&gt;1 -->
<g id="edge1" class="edge">
<title>0&#45;&gt;1</title>
<path fill="none" stroke="black" d="M288.06,-174.26C300.66,-163.39 318.32,-149.68 335.99,-141 356.77,-130.8 380.93,-123.23 402.69,-117.8"/>
<polygon fill="black" stroke="black" points="403.59,-121.18 412.5,-115.45 401.96,-114.37 403.59,-121.18"/>
<text text-anchor="middle" x="351.49" y="-144.8" font-family="Times New Roman,serif" font-size="14.00">0.060</text>
</g>
<!-- 1&#45;&gt;0 -->
<g id="edge13" class="edge">
<title>1&#45;&gt;0</title>
<path fill="none" stroke="black" d="M437.14,-121.39C417.77,-131.81 391.18,-145.52 366.99,-156 353.78,-161.73 339.28,-167.32 325.62,-172.28"/>
<polygon fill="black" stroke="black" points="324.09,-169.11 315.86,-175.78 326.45,-175.7 324.09,-169.11"/>
<text text-anchor="middle" x="413.49" y="-144.8" font-family="Times New Roman,serif" font-size="14.00">0.095</text>
</g>
<!-- 1&#45;&gt;1 -->
<g id="edge10" class="edge">
<title>1&#45;&gt;1</title>
<path fill="none" stroke="black" d="M523.46,-112.72C537.2,-112.08 547.34,-109.51 547.34,-105 547.34,-101.69 541.87,-99.42 533.53,-98.2"/>
<polygon fill="black" stroke="black" points="533.74,-94.7 523.46,-97.28 533.11,-101.67 533.74,-94.7"/>
<text text-anchor="middle" x="562.84" y="-101.3" font-family="Times New Roman,serif" font-size="14.00">0.380</text>
</g>
<!-- 5 -->
<g id="node6" class="node">
<title>5</title>
<g id="a_node6"><a xlink:href="careers adviser.svg" xlink:title="careers adviser">
<ellipse fill="none" stroke="black" cx="64.99" cy="-18" rx="64.99" ry="18"/>
<text text-anchor="middle" x="64.99" y="-14.3" font-family="Times New Roman,serif" font-size="14.00">careers adviser</text>
</a>
</g>
</g>
<!-- 1&#45;&gt;5 -->
<g id="edge12" class="edge">
<title>1&#45;&gt;5</title>
<path fill="none" stroke="black" d="M400.6,-103.88C310.55,-102.7 152.49,-96.6 102.99,-69 92.89,-63.37 84.64,-53.81 78.43,-44.56"/>
<polygon fill="black" stroke="black" points="81.34,-42.6 73.12,-35.92 75.37,-46.27 81.34,-42.6"/>
<text text-anchor="middle" x="118.49" y="-57.8" font-family="Times New Roman,serif" font-size="14.00">0.095</text>
</g>
<!-- 6 -->
<g id="node7" class="node">
<title>6</title>
<g id="a_node7"><a xlink:href="curator.svg" xlink:title="curator">
<ellipse fill="none" stroke="black" cx="183.99" cy="-18" rx="36.29" ry="18"/>
<text text-anchor="middle" x="183.99" y="-14.3" font-family="Times New Roman,serif" font-size="14.00">curator</text>
</a>
</g>
</g>
<!-- 1&#45;&gt;6 -->
<g id="edge11" class="edge">
<title>1&#45;&gt;6</title>
<path fill="none" stroke="black" d="M404.14,-98.99C346.26,-93.47 263.86,-83.42 234.99,-69 222.69,-62.85 211.47,-52.64 202.71,-43.05"/>
<polygon fill="black" stroke="black" points="205.14,-40.51 195.96,-35.23 199.85,-45.09 205.14,-40.51"/>
<text text-anchor="middle" x="250.49" y="-57.8" font-family="Times New Roman,serif" font-size="14.00">0.142</text>
</g>
<!-- 7 -->
<g id="node8" class="node">
<title>7</title>
<g id="a_node8"><a xlink:href="education administrator.svg" xlink:title="education administrator">
<ellipse fill="none" stroke="black" cx="333.99" cy="-18" rx="95.58" ry="18"/>
<text text-anchor="middle" x="333.99" y="-14.3" font-family="Times New Roman,serif" font-size="14.00">education administrator</text>
</a>
</g>
</g>
<!-- 1&#45;&gt;7 -->
<g id="edge16" class="edge">
<title>1&#45;&gt;7</title>
<path fill="none" stroke="black" d="M410.25,-95.51C391.63,-90.38 371.8,-82.16 356.99,-69 350.12,-62.89 345.16,-54.3 341.65,-45.96"/>
<polygon fill="black" stroke="black" points="344.89,-44.64 338.17,-36.45 338.32,-47.04 344.89,-44.64"/>
<text text-anchor="middle" x="372.49" y="-57.8" font-family="Times New Roman,serif" font-size="14.00">0.047</text>
</g>
<!-- 8 -->
<g id="node9" class="node">
<title>8</title>
<g id="a_node9"><a xlink:href="forensic scientist.svg" xlink:title="forensic scientist">
<ellipse fill="none" stroke="black" cx="518.99" cy="-18" rx="71.49" ry="18"/>
<text text-anchor="middle" x="518.99" y="-14.3" font-family="Times New Roman,serif" font-size="14.00">forensic scientist</text>
</a>
</g>
</g>
<!-- 1&#45;&gt;8 -->
<g id="edge17" class="edge">
<title>1&#45;&gt;8</title>
<path fill="none" stroke="black" d="M459.52,-86.76C457.33,-76.61 456.47,-63.87 461.99,-54 465.12,-48.41 469.54,-43.61 474.56,-39.51"/>
<polygon fill="black" stroke="black" points="476.7,-42.28 482.83,-33.64 472.65,-36.58 476.7,-42.28"/>
<text text-anchor="middle" x="477.49" y="-57.8" font-family="Times New Roman,serif" font-size="14.00">0.047</text>
</g>
<!-- 9 -->
<g id="node10" class="node">
<title>9</title>
<g id="a_node10"><a xlink:href="government research officer.svg" xlink:title="government research officer">
<ellipse fill="none" stroke="black" cx="720.99" cy="-18" rx="112.38" ry="18"/>
<text text-anchor="middle" x="720.99" y="-14.3" font-family="Times New Roman,serif" font-size="14.00">government research officer</text>
</a>
</g>
</g>
<!-- 1&#45;&gt;9 -->
<g id="edge18" class="edge">
<title>1&#45;&gt;9</title>
<path fill="none" stroke="black" d="M499.99,-89.79C526.43,-79.29 563.71,-64.98 596.99,-54 615.81,-47.79 636.44,-41.69 655.39,-36.37"/>
<polygon fill="black" stroke="black" points="656.43,-39.71 665.13,-33.66 654.55,-32.97 656.43,-39.71"/>
<text text-anchor="middle" x="612.49" y="-57.8" font-family="Times New Roman,serif" font-size="14.00">0.047</text>
</g>
<!-- 10 -->
<g id="node11" class="node">
<title>10</title>
<g id="a_node11"><a xlink:href="animator.svg" xlink:title="animator">
<ellipse fill="none" stroke="black" cx="893.99" cy="-18" rx="42.49" ry="18"/>
<text text-anchor="middle" x="893.99" y="-14.3" font-family="Times New Roman,serif" font-size="14.00">animator</text>
</a>
</g>
</g>
<!-- 1&#45;&gt;10 -->
<g id="edge14" class="edge">
<title>1&#45;&gt;10</title>
<path fill="none" stroke="black" d="M522.17,-96.65C569.47,-90.27 638.31,-80.3 697.99,-69 762.51,-56.78 778.72,-53.55 841.99,-36 845.39,-35.06 848.9,-34.03 852.41,-32.96"/>
<polygon fill="black" stroke="black" points="853.74,-36.22 862.23,-29.89 851.64,-29.54 853.74,-36.22"/>
<text text-anchor="middle" x="785.49" y="-57.8" font-family="Times New Roman,serif" font-size="14.00">0.047</text>
</g>
<!-- 11 -->
<g id="node12" class="node">
<title>11</title>
<g id="a_node12"><a xlink:href="counsellor.svg" xlink:title="counsellor">
<ellipse fill="none" stroke="black" cx="1001.99" cy="-18" rx="48.19" ry="18"/>
<text text-anchor="middle" x="1001.99" y="-14.3" font-family="Times New Roman,serif" font-size="14.00">counsellor</text>
</a>
</g>
</g>
<!-- 1&#45;&gt;11 -->
<g id="edge15" class="edge">
<title>1&#45;&gt;11</title>
<path fill="none" stroke="black" d="M527.05,-100.02C595.46,-95.08 708.59,-85.25 804.99,-69 868.03,-58.37 883.23,-52.48 944.99,-36 948.6,-35.04 952.32,-34.01 956.06,-32.95"/>
<polygon fill="black" stroke="black" points="957.26,-36.25 965.9,-30.11 955.32,-29.52 957.26,-36.25"/>
<text text-anchor="middle" x="892.49" y="-57.8" font-family="Times New Roman,serif" font-size="14.00">0.047</text>
</g>
<!-- 12 -->
<g id="node13" class="node">
<title>12</title>
<g id="a_node13"><a xlink:href="it consultant.svg" xlink:title="it consultant">
<ellipse fill="none" stroke="black" cx="1122.99" cy="-18" rx="54.69" ry="18"/>
<text text-anchor="middle" x="1122.99" y="-14.3" font-family="Times New Roman,serif" font-size="14.00">it consultant</text>
</a>
</g>
</g>
<!-- 1&#45;&gt;12 -->
<g id="edge19" class="edge">
<title>1&#45;&gt;12</title>
<path fill="none" stroke="black" d="M528.61,-101.88C615.59,-98.32 776.33,-89.43 911.99,-69 968,-60.57 1031.05,-44.78 1073.52,-33.19"/>
<polygon fill="black" stroke="black" points="1074.61,-36.52 1083.32,-30.49 1072.75,-29.77 1074.61,-36.52"/>
<text text-anchor="middle" x="1003.49" y="-57.8" font-family="Times New Roman,serif" font-size="14.00">0.047</text>
</g>
<!-- 2 -->
<g id="node3" class="node">
<title>2</title>
<g id="a_node3"><a xlink:href="research scientist.svg" xlink:title="research scientist">
<ellipse fill="none" stroke="black" cx="464.99" cy="-192" rx="72.59" ry="18"/>
<text text-anchor="middle" x="464.99" y="-188.3" font-family="Times New Roman,serif" font-size="14.00">research scientist</text>
</a>
</g>
</g>
<!-- 2&#45;&gt;1 -->
<g id="edge2" class="edge">
<title>2&#45;&gt;1</title>
<path fill="none" stroke="black" d="M464.99,-173.8C464.99,-162.16 464.99,-146.55 464.99,-133.24"/>
<polygon fill="black" stroke="black" points="468.49,-133.18 464.99,-123.18 461.49,-133.18 468.49,-133.18"/>
<text text-anchor="middle" x="480.49" y="-144.8" font-family="Times New Roman,serif" font-size="14.00">0.060</text>
</g>
<!-- 3 -->
<g id="node4" class="node">
<title>3</title>
<g id="a_node4"><a xlink:href="training and development officer.svg" xlink:title="training and development officer">
<ellipse fill="none" stroke="black" cx="683.99" cy="-192" rx="128.08" ry="18"/>
<text text-anchor="middle" x="683.99" y="-188.3" font-family="Times New Roman,serif" font-size="14.00">training and development officer</text>
</a>
</g>
</g>
<!-- 3&#45;&gt;1 -->
<g id="edge3" class="edge">
<title>3&#45;&gt;1</title>
<path fill="none" stroke="black" d="M642.54,-174.91C604.93,-160.31 549.58,-138.83 510.7,-123.74"/>
<polygon fill="black" stroke="black" points="511.78,-120.4 501.19,-120.05 509.25,-126.93 511.78,-120.4"/>
<text text-anchor="middle" x="603.49" y="-144.8" font-family="Times New Roman,serif" font-size="14.00">0.060</text>
</g>
<!-- 4 -->
<g id="node5" class="node">
<title>4</title>
<g id="a_node5"><a xlink:href="barristers clerk.svg" xlink:title="barristers clerk">
<ellipse fill="none" stroke="black" cx="893.99" cy="-192" rx="64.19" ry="18"/>
<text text-anchor="middle" x="893.99" y="-188.3" font-family="Times New Roman,serif" font-size="14.00">barristers clerk</text>
</a>
</g>
</g>
<!-- 4&#45;&gt;1 -->
<g id="edge4" class="edge">
<title>4&#45;&gt;1</title>
<path fill="none" stroke="black" d="M846.54,-179.66C838.05,-177.71 829.27,-175.75 820.99,-174 718.61,-152.31 599,-130.1 527.76,-117.2"/>
<polygon fill="black" stroke="black" points="528.07,-113.7 517.6,-115.37 526.82,-120.59 528.07,-113.7"/>
<text text-anchor="middle" x="738.49" y="-144.8" font-family="Times New Roman,serif" font-size="14.00">0.030</text>
</g>
<!-- 5&#45;&gt;1 -->
<g id="edge5" class="edge">
<title>5&#45;&gt;1</title>
<path fill="none" stroke="black" d="M93.93,-34.37C116.69,-45.76 149.54,-60.7 179.99,-69 250.32,-88.17 333.29,-96.86 391.51,-100.79"/>
<polygon fill="black" stroke="black" points="391.52,-104.3 401.72,-101.45 391.97,-97.31 391.52,-104.3"/>
<text text-anchor="middle" x="195.49" y="-57.8" font-family="Times New Roman,serif" font-size="14.00">0.030</text>
</g>
<!-- 6&#45;&gt;1 -->
<g id="edge6" class="edge">
<title>6&#45;&gt;1</title>
<path fill="none" stroke="black" d="M210.56,-30.7C236.16,-41.67 276.2,-57.98 311.99,-69 341.68,-78.14 375.27,-86.08 403.4,-92.08"/>
<polygon fill="black" stroke="black" points="402.99,-95.57 413.5,-94.2 404.43,-88.72 402.99,-95.57"/>
<text text-anchor="middle" x="327.49" y="-57.8" font-family="Times New Roman,serif" font-size="14.00">0.030</text>
</g>
<!-- 7&#45;&gt;1 -->
<g id="edge7" class="edge">
<title>7&#45;&gt;1</title>
<path fill="none" stroke="black" d="M359.54,-35.57C380.26,-49.02 409.63,-68.08 432.11,-82.66"/>
<polygon fill="black" stroke="black" points="430.37,-85.7 440.66,-88.21 434.18,-79.83 430.37,-85.7"/>
<text text-anchor="middle" x="423.49" y="-57.8" font-family="Times New Roman,serif" font-size="14.00">0.030</text>
</g>
<!-- 8&#45;&gt;1 -->
<g id="edge8" class="edge">
<title>8&#45;&gt;1</title>
<path fill="none" stroke="black" d="M512.97,-36.37C509.12,-46.33 503.62,-58.83 496.99,-69 494.62,-72.65 491.86,-76.28 488.97,-79.75"/>
<polygon fill="black" stroke="black" points="486.14,-77.67 482.14,-87.48 491.39,-82.3 486.14,-77.67"/>
<text text-anchor="middle" x="521.49" y="-57.8" font-family="Times New Roman,serif" font-size="14.00">0.030</text>
</g>
<!-- 9&#45;&gt;1 -->
<g id="edge9" class="edge">
<title>9&#45;&gt;1</title>
<path fill="none" stroke="black" d="M696.29,-35.6C678.96,-46.54 654.89,-60.4 631.99,-69 599.96,-81.03 562.84,-89.33 531.74,-94.81"/>
<polygon fill="black" stroke="black" points="531.14,-91.37 521.87,-96.5 532.32,-98.27 531.14,-91.37"/>
<text text-anchor="middle" x="678.49" y="-57.8" font-family="Times New Roman,serif" font-size="14.00">0.030</text>
</g>
</g>
</svg>
