<?xml version="1.0" encoding="UTF-8" standalone="no"?>
<!DOCTYPE svg PUBLIC "-//W3C//DTD SVG 1.1//EN"
 "http://www.w3.org/Graphics/SVG/1.1/DTD/svg11.dtd">
<!-- Generated by graphviz version 2.44.1 (20200629.0800)
 -->
<!-- Title: photographer Pages: 1 -->
<svg width="1089pt" height="218pt"
 viewBox="0.00 0.00 1088.83 218.00" xmlns="http://www.w3.org/2000/svg" xmlns:xlink="http://www.w3.org/1999/xlink">
<g id="graph0" class="graph" transform="scale(1 1) rotate(0) translate(4 214)">
<title>photographer</title>
<polygon fill="white" stroke="transparent" points="-4,4 -4,-214 1084.83,-214 1084.83,4 -4,4"/>
<!-- 0 -->
<g id="node1" class="node">
<title>0</title>
<g id="a_node1"><a xlink:href="pharmacovigilance officer.svg" xlink:title="pharmacovigilance officer">
<ellipse fill="none" stroke="black" cx="104.64" cy="-192" rx="104.78" ry="18"/>
<text text-anchor="middle" x="104.64" y="-188.3" font-family="Times New Roman,serif" font-size="14.00">pharmacovigilance officer</text>
</a>
</g>
</g>
<!-- 1 -->
<g id="node2" class="node">
<title>1</title>
<g id="a_node2"><a xlink:href="photographer.svg" xlink:title="photographer">
<ellipse fill="none" stroke="black" cx="368.64" cy="-105" rx="59.59" ry="18"/>
<text text-anchor="middle" x="368.64" y="-101.3" font-family="Times New Roman,serif" font-size="14.00">photographer</text>
</a>
</g>
</g>
<!-- 0&#45;&gt;1 -->
<g id="edge1" class="edge">
<title>0&#45;&gt;1</title>
<path fill="none" stroke="black" d="M113.18,-173.83C119.68,-162.63 129.71,-148.7 142.64,-141 168.74,-125.45 244.42,-115.98 301.06,-110.88"/>
<polygon fill="black" stroke="black" points="301.39,-114.37 311.05,-110.01 300.78,-107.39 301.39,-114.37"/>
<text text-anchor="middle" x="158.14" y="-144.8" font-family="Times New Roman,serif" font-size="14.00">0.141</text>
</g>
<!-- 1&#45;&gt;0 -->
<g id="edge15" class="edge">
<title>1&#45;&gt;0</title>
<path fill="none" stroke="black" d="M329.49,-118.61C285.02,-132.92 212.06,-156.41 161.36,-172.74"/>
<polygon fill="black" stroke="black" points="159.98,-169.51 151.53,-175.9 162.13,-176.17 159.98,-169.51"/>
<text text-anchor="middle" x="268.14" y="-144.8" font-family="Times New Roman,serif" font-size="14.00">0.033</text>
</g>
<!-- 1&#45;&gt;1 -->
<g id="edge10" class="edge">
<title>1&#45;&gt;1</title>
<path fill="none" stroke="black" d="M422.81,-112.77C436.33,-112.22 446.44,-109.63 446.44,-105 446.44,-101.63 441.1,-99.35 433,-98.14"/>
<polygon fill="black" stroke="black" points="433.08,-94.63 422.81,-97.23 432.46,-101.6 433.08,-94.63"/>
<text text-anchor="middle" x="461.94" y="-101.3" font-family="Times New Roman,serif" font-size="14.00">0.382</text>
</g>
<!-- 2 -->
<g id="node3" class="node">
<title>2</title>
<g id="a_node3"><a xlink:href="solicitor.svg" xlink:title="solicitor">
<ellipse fill="none" stroke="black" cx="52.64" cy="-18" rx="40.09" ry="18"/>
<text text-anchor="middle" x="52.64" y="-14.3" font-family="Times New Roman,serif" font-size="14.00">solicitor</text>
</a>
</g>
</g>
<!-- 1&#45;&gt;2 -->
<g id="edge16" class="edge">
<title>1&#45;&gt;2</title>
<path fill="none" stroke="black" d="M309.88,-101.27C241.23,-97.25 132.48,-88.05 96.64,-69 85.7,-63.18 76.2,-53.47 68.86,-44.15"/>
<polygon fill="black" stroke="black" points="71.49,-41.81 62.75,-35.81 65.85,-45.95 71.49,-41.81"/>
<text text-anchor="middle" x="112.14" y="-57.8" font-family="Times New Roman,serif" font-size="14.00">0.033</text>
</g>
<!-- 3 -->
<g id="node4" class="node">
<title>3</title>
<g id="a_node4"><a xlink:href="production manager.svg" xlink:title="production manager">
<ellipse fill="none" stroke="black" cx="193.64" cy="-18" rx="83.39" ry="18"/>
<text text-anchor="middle" x="193.64" y="-14.3" font-family="Times New Roman,serif" font-size="14.00">production manager</text>
</a>
</g>
</g>
<!-- 1&#45;&gt;3 -->
<g id="edge11" class="edge">
<title>1&#45;&gt;3</title>
<path fill="none" stroke="black" d="M309.11,-102.5C278.58,-98.92 242.48,-90.02 216.64,-69 209.4,-63.11 204.33,-54.42 200.84,-45.94"/>
<polygon fill="black" stroke="black" points="204.05,-44.52 197.42,-36.25 197.45,-46.85 204.05,-44.52"/>
<text text-anchor="middle" x="232.14" y="-57.8" font-family="Times New Roman,serif" font-size="14.00">0.146</text>
</g>
<!-- 8 -->
<g id="node9" class="node">
<title>8</title>
<g id="a_node9"><a xlink:href="curator.svg" xlink:title="curator">
<ellipse fill="none" stroke="black" cx="331.64" cy="-18" rx="36.29" ry="18"/>
<text text-anchor="middle" x="331.64" y="-14.3" font-family="Times New Roman,serif" font-size="14.00">curator</text>
</a>
</g>
</g>
<!-- 1&#45;&gt;8 -->
<g id="edge18" class="edge">
<title>1&#45;&gt;8</title>
<path fill="none" stroke="black" d="M335.15,-90.02C326.61,-84.75 318.49,-77.83 313.64,-69 309.43,-61.33 310.81,-52.47 314.22,-44.37"/>
<polygon fill="black" stroke="black" points="317.42,-45.8 318.94,-35.31 311.21,-42.57 317.42,-45.8"/>
<text text-anchor="middle" x="329.14" y="-57.8" font-family="Times New Roman,serif" font-size="14.00">0.022</text>
</g>
<!-- 10 -->
<g id="node11" class="node">
<title>10</title>
<g id="a_node11"><a xlink:href="teacher.svg" xlink:title="teacher">
<ellipse fill="none" stroke="black" cx="422.64" cy="-18" rx="36.29" ry="18"/>
<text text-anchor="middle" x="422.64" y="-14.3" font-family="Times New Roman,serif" font-size="14.00">teacher</text>
</a>
</g>
</g>
<!-- 1&#45;&gt;10 -->
<g id="edge12" class="edge">
<title>1&#45;&gt;10</title>
<path fill="none" stroke="black" d="M379.31,-87.21C387.13,-74.9 397.87,-58 406.7,-44.09"/>
<polygon fill="black" stroke="black" points="409.77,-45.79 412.18,-35.47 403.86,-42.03 409.77,-45.79"/>
<text text-anchor="middle" x="415.14" y="-57.8" font-family="Times New Roman,serif" font-size="14.00">0.067</text>
</g>
<!-- 11 -->
<g id="node12" class="node">
<title>11</title>
<g id="a_node12"><a xlink:href="catering manager.svg" xlink:title="catering manager">
<ellipse fill="none" stroke="black" cx="548.64" cy="-18" rx="71.49" ry="18"/>
<text text-anchor="middle" x="548.64" y="-14.3" font-family="Times New Roman,serif" font-size="14.00">catering manager</text>
</a>
</g>
</g>
<!-- 1&#45;&gt;11 -->
<g id="edge13" class="edge">
<title>1&#45;&gt;11</title>
<path fill="none" stroke="black" d="M399.58,-89.39C429.32,-75.35 474.45,-54.04 507.26,-38.54"/>
<polygon fill="black" stroke="black" points="509.04,-41.57 516.59,-34.14 506.05,-35.24 509.04,-41.57"/>
<text text-anchor="middle" x="484.14" y="-57.8" font-family="Times New Roman,serif" font-size="14.00">0.044</text>
</g>
<!-- 12 -->
<g id="node13" class="node">
<title>12</title>
<g id="a_node13"><a xlink:href="legal executive.svg" xlink:title="legal executive">
<ellipse fill="none" stroke="black" cx="701.64" cy="-18" rx="63.09" ry="18"/>
<text text-anchor="middle" x="701.64" y="-14.3" font-family="Times New Roman,serif" font-size="14.00">legal executive</text>
</a>
</g>
</g>
<!-- 1&#45;&gt;12 -->
<g id="edge14" class="edge">
<title>1&#45;&gt;12</title>
<path fill="none" stroke="black" d="M412.86,-92.71C473.1,-77.33 580.95,-49.81 646.43,-33.09"/>
<polygon fill="black" stroke="black" points="647.35,-36.47 656.17,-30.61 645.61,-29.69 647.35,-36.47"/>
<text text-anchor="middle" x="570.14" y="-57.8" font-family="Times New Roman,serif" font-size="14.00">0.044</text>
</g>
<!-- 13 -->
<g id="node14" class="node">
<title>13</title>
<g id="a_node14"><a xlink:href="content manager.svg" xlink:title="content manager">
<ellipse fill="none" stroke="black" cx="852.64" cy="-18" rx="70.39" ry="18"/>
<text text-anchor="middle" x="852.64" y="-14.3" font-family="Times New Roman,serif" font-size="14.00">content manager</text>
</a>
</g>
</g>
<!-- 1&#45;&gt;13 -->
<g id="edge17" class="edge">
<title>1&#45;&gt;13</title>
<path fill="none" stroke="black" d="M420.92,-96.19C498.24,-84.43 647.56,-60.86 773.64,-36 779.37,-34.87 785.33,-33.66 791.29,-32.42"/>
<polygon fill="black" stroke="black" points="792.21,-35.8 801.27,-30.32 790.77,-28.95 792.21,-35.8"/>
<text text-anchor="middle" x="689.14" y="-57.8" font-family="Times New Roman,serif" font-size="14.00">0.022</text>
</g>
<!-- 14 -->
<g id="node15" class="node">
<title>14</title>
<g id="a_node15"><a xlink:href="graphic designer.svg" xlink:title="graphic designer">
<ellipse fill="none" stroke="black" cx="1010.64" cy="-18" rx="70.39" ry="18"/>
<text text-anchor="middle" x="1010.64" y="-14.3" font-family="Times New Roman,serif" font-size="14.00">graphic designer</text>
</a>
</g>
</g>
<!-- 1&#45;&gt;14 -->
<g id="edge19" class="edge">
<title>1&#45;&gt;14</title>
<path fill="none" stroke="black" d="M425.71,-99.36C527.77,-90.56 748.07,-69.3 931.64,-36 937.48,-34.94 943.54,-33.77 949.6,-32.55"/>
<polygon fill="black" stroke="black" points="950.65,-35.9 959.74,-30.46 949.24,-29.05 950.65,-35.9"/>
<text text-anchor="middle" x="824.14" y="-57.8" font-family="Times New Roman,serif" font-size="14.00">0.022</text>
</g>
<!-- 2&#45;&gt;1 -->
<g id="edge2" class="edge">
<title>2&#45;&gt;1</title>
<path fill="none" stroke="black" d="M78.72,-32.08C102.23,-43.36 138,-59.34 170.64,-69 214.12,-81.87 264.45,-90.69 303.49,-96.26"/>
<polygon fill="black" stroke="black" points="303.28,-99.76 313.67,-97.67 304.25,-92.83 303.28,-99.76"/>
<text text-anchor="middle" x="186.14" y="-57.8" font-family="Times New Roman,serif" font-size="14.00">0.108</text>
</g>
<!-- 3&#45;&gt;1 -->
<g id="edge3" class="edge">
<title>3&#45;&gt;1</title>
<path fill="none" stroke="black" d="M218.05,-35.29C234.25,-45.7 256.22,-59.06 276.64,-69 290.5,-75.74 306.01,-82.08 320.29,-87.46"/>
<polygon fill="black" stroke="black" points="319.35,-90.84 329.95,-91.02 321.78,-84.28 319.35,-90.84"/>
<text text-anchor="middle" x="292.14" y="-57.8" font-family="Times New Roman,serif" font-size="14.00">0.076</text>
</g>
<!-- 4 -->
<g id="node5" class="node">
<title>4</title>
<g id="a_node5"><a xlink:href="lawyer.svg" xlink:title="lawyer">
<ellipse fill="none" stroke="black" cx="261.64" cy="-192" rx="34.39" ry="18"/>
<text text-anchor="middle" x="261.64" y="-188.3" font-family="Times New Roman,serif" font-size="14.00">lawyer</text>
</a>
</g>
</g>
<!-- 4&#45;&gt;1 -->
<g id="edge4" class="edge">
<title>4&#45;&gt;1</title>
<path fill="none" stroke="black" d="M279.79,-176.58C296.38,-163.4 321.18,-143.7 340.37,-128.46"/>
<polygon fill="black" stroke="black" points="342.55,-131.19 348.21,-122.23 338.2,-125.71 342.55,-131.19"/>
<text text-anchor="middle" x="337.14" y="-144.8" font-family="Times New Roman,serif" font-size="14.00">0.032</text>
</g>
<!-- 5 -->
<g id="node6" class="node">
<title>5</title>
<g id="a_node6"><a xlink:href="it consultant.svg" xlink:title="it consultant">
<ellipse fill="none" stroke="black" cx="368.64" cy="-192" rx="54.69" ry="18"/>
<text text-anchor="middle" x="368.64" y="-188.3" font-family="Times New Roman,serif" font-size="14.00">it consultant</text>
</a>
</g>
</g>
<!-- 5&#45;&gt;1 -->
<g id="edge5" class="edge">
<title>5&#45;&gt;1</title>
<path fill="none" stroke="black" d="M368.64,-173.8C368.64,-162.16 368.64,-146.55 368.64,-133.24"/>
<polygon fill="black" stroke="black" points="372.14,-133.18 368.64,-123.18 365.14,-133.18 372.14,-133.18"/>
<text text-anchor="middle" x="384.14" y="-144.8" font-family="Times New Roman,serif" font-size="14.00">0.025</text>
</g>
<!-- 6 -->
<g id="node7" class="node">
<title>6</title>
<g id="a_node7"><a xlink:href="lecturer.svg" xlink:title="lecturer">
<ellipse fill="none" stroke="black" cx="478.64" cy="-192" rx="37.89" ry="18"/>
<text text-anchor="middle" x="478.64" y="-188.3" font-family="Times New Roman,serif" font-size="14.00">lecturer</text>
</a>
</g>
</g>
<!-- 6&#45;&gt;1 -->
<g id="edge6" class="edge">
<title>6&#45;&gt;1</title>
<path fill="none" stroke="black" d="M459.48,-176.19C442.35,-162.96 417.01,-143.38 397.44,-128.26"/>
<polygon fill="black" stroke="black" points="399.51,-125.43 389.45,-122.08 395.22,-130.97 399.51,-125.43"/>
<text text-anchor="middle" x="446.14" y="-144.8" font-family="Times New Roman,serif" font-size="14.00">0.025</text>
</g>
<!-- 7 -->
<g id="node8" class="node">
<title>7</title>
<g id="a_node8"><a xlink:href="marketing executive.svg" xlink:title="marketing executive">
<ellipse fill="none" stroke="black" cx="616.64" cy="-192" rx="81.79" ry="18"/>
<text text-anchor="middle" x="616.64" y="-188.3" font-family="Times New Roman,serif" font-size="14.00">marketing executive</text>
</a>
</g>
</g>
<!-- 7&#45;&gt;1 -->
<g id="edge7" class="edge">
<title>7&#45;&gt;1</title>
<path fill="none" stroke="black" d="M574.29,-176.48C530.47,-161.47 462.16,-138.05 416.43,-122.38"/>
<polygon fill="black" stroke="black" points="417.34,-118.99 406.75,-119.06 415.07,-125.61 417.34,-118.99"/>
<text text-anchor="middle" x="522.14" y="-144.8" font-family="Times New Roman,serif" font-size="14.00">0.025</text>
</g>
<!-- 8&#45;&gt;1 -->
<g id="edge8" class="edge">
<title>8&#45;&gt;1</title>
<path fill="none" stroke="black" d="M338.99,-35.89C344.16,-47.76 351.18,-63.88 357.09,-77.46"/>
<polygon fill="black" stroke="black" points="353.95,-79.03 361.15,-86.8 360.37,-76.23 353.95,-79.03"/>
<text text-anchor="middle" x="368.14" y="-57.8" font-family="Times New Roman,serif" font-size="14.00">0.019</text>
</g>
<!-- 9 -->
<g id="node10" class="node">
<title>9</title>
<g id="a_node10"><a xlink:href="project manager.svg" xlink:title="project manager">
<ellipse fill="none" stroke="black" cx="785.64" cy="-192" rx="68.79" ry="18"/>
<text text-anchor="middle" x="785.64" y="-188.3" font-family="Times New Roman,serif" font-size="14.00">project manager</text>
</a>
</g>
</g>
<!-- 9&#45;&gt;1 -->
<g id="edge9" class="edge">
<title>9&#45;&gt;1</title>
<path fill="none" stroke="black" d="M734.9,-179.81C725.83,-177.85 716.46,-175.85 707.64,-174 609.42,-153.45 494.92,-130.74 427.29,-117.46"/>
<polygon fill="black" stroke="black" points="427.74,-113.98 417.25,-115.49 426.39,-120.85 427.74,-113.98"/>
<text text-anchor="middle" x="629.14" y="-144.8" font-family="Times New Roman,serif" font-size="14.00">0.019</text>
</g>
</g>
</svg>
