<?xml version="1.0" encoding="UTF-8" standalone="no"?>
<!DOCTYPE svg PUBLIC "-//W3C//DTD SVG 1.1//EN"
 "http://www.w3.org/Graphics/SVG/1.1/DTD/svg11.dtd">
<!-- Generated by graphviz version 2.44.1 (20200629.0800)
 -->
<!-- Title: test Pages: 1 -->
<svg width="1162pt" height="218pt"
 viewBox="0.00 0.00 1162.23 218.00" xmlns="http://www.w3.org/2000/svg" xmlns:xlink="http://www.w3.org/1999/xlink">
<g id="graph0" class="graph" transform="scale(1 1) rotate(0) translate(4 214)">
<title>test</title>
<polygon fill="white" stroke="transparent" points="-4,4 -4,-214 1158.23,-214 1158.23,4 -4,4"/>
<!-- 0 -->
<g id="node1" class="node">
<title>0</title>
<g id="a_node1"><a xlink:href="pharmacovigilance officer.svg" xlink:title="pharmacovigilance officer">
<ellipse fill="none" stroke="black" cx="104.64" cy="-192" rx="104.78" ry="18"/>
<text text-anchor="middle" x="104.64" y="-188.3" font-family="Times New Roman,serif" font-size="14.00">pharmacovigilance officer</text>
</a>
</g>
</g>
<!-- 1 -->
<g id="node2" class="node">
<title>1</title>
<g id="a_node2"><a xlink:href="photographer.svg" xlink:title="photographer">
<ellipse fill="none" stroke="black" cx="413.64" cy="-105" rx="59.59" ry="18"/>
<text text-anchor="middle" x="413.64" y="-101.3" font-family="Times New Roman,serif" font-size="14.00">photographer</text>
</a>
</g>
</g>
<!-- 0&#45;&gt;1 -->
<g id="edge1" class="edge">
<title>0&#45;&gt;1</title>
<path fill="none" stroke="black" d="M114.44,-173.72C121.79,-162.46 132.92,-148.52 146.64,-141 179.74,-122.86 277.3,-113.68 344.84,-109.37"/>
<polygon fill="black" stroke="black" points="345.22,-112.86 354.99,-108.75 344.79,-105.87 345.22,-112.86"/>
<text text-anchor="middle" x="162.14" y="-144.8" font-family="Times New Roman,serif" font-size="14.00">0.141</text>
</g>
<!-- 1&#45;&gt;0 -->
<g id="edge15" class="edge">
<title>1&#45;&gt;0</title>
<path fill="none" stroke="black" d="M371.14,-117.69C318.48,-132.18 228.31,-156.98 167.61,-173.68"/>
<polygon fill="black" stroke="black" points="166.47,-170.36 157.76,-176.39 168.33,-177.11 166.47,-170.36"/>
<text text-anchor="middle" x="294.14" y="-144.8" font-family="Times New Roman,serif" font-size="14.00">0.033</text>
</g>
<!-- 1&#45;&gt;1 -->
<g id="edge10" class="edge">
<title>1&#45;&gt;1</title>
<path fill="none" stroke="black" d="M467.81,-112.77C481.33,-112.22 491.44,-109.63 491.44,-105 491.44,-101.63 486.1,-99.35 478,-98.14"/>
<polygon fill="black" stroke="black" points="478.08,-94.63 467.81,-97.23 477.46,-101.6 478.08,-94.63"/>
<text text-anchor="middle" x="506.94" y="-101.3" font-family="Times New Roman,serif" font-size="14.00">0.382</text>
</g>
<!-- 3 -->
<g id="node4" class="node">
<title>3</title>
<g id="a_node4"><a xlink:href="production manager.svg" xlink:title="production manager">
<ellipse fill="none" stroke="black" cx="113.64" cy="-18" rx="83.39" ry="18"/>
<text text-anchor="middle" x="113.64" y="-14.3" font-family="Times New Roman,serif" font-size="14.00">production manager</text>
</a>
</g>
</g>
<!-- 1&#45;&gt;3 -->
<g id="edge11" class="edge">
<title>1&#45;&gt;3</title>
<path fill="none" stroke="black" d="M355.46,-100.75C290.72,-96.32 190.84,-86.82 157.64,-69 146.88,-63.22 137.5,-53.7 130.2,-44.5"/>
<polygon fill="black" stroke="black" points="132.87,-42.22 124.11,-36.27 127.24,-46.39 132.87,-42.22"/>
<text text-anchor="middle" x="173.14" y="-57.8" font-family="Times New Roman,serif" font-size="14.00">0.146</text>
</g>
<!-- 8 -->
<g id="node9" class="node">
<title>8</title>
<g id="a_node9"><a xlink:href="curator.svg" xlink:title="curator">
<ellipse fill="none" stroke="black" cx="251.64" cy="-18" rx="36.29" ry="18"/>
<text text-anchor="middle" x="251.64" y="-14.3" font-family="Times New Roman,serif" font-size="14.00">curator</text>
</a>
</g>
</g>
<!-- 1&#45;&gt;8 -->
<g id="edge17" class="edge">
<title>1&#45;&gt;8</title>
<path fill="none" stroke="black" d="M356.51,-99.59C330.54,-95.13 300.75,-86.32 278.64,-69 270.97,-62.99 265.2,-54.17 261,-45.6"/>
<polygon fill="black" stroke="black" points="264.11,-43.98 256.92,-36.2 257.69,-46.77 264.11,-43.98"/>
<text text-anchor="middle" x="294.14" y="-57.8" font-family="Times New Roman,serif" font-size="14.00">0.022</text>
</g>
<!-- 10 -->
<g id="node11" class="node">
<title>10</title>
<g id="a_node11"><a xlink:href="teacher.svg" xlink:title="teacher">
<ellipse fill="none" stroke="black" cx="342.64" cy="-18" rx="36.29" ry="18"/>
<text text-anchor="middle" x="342.64" y="-14.3" font-family="Times New Roman,serif" font-size="14.00">teacher</text>
</a>
</g>
</g>
<!-- 1&#45;&gt;10 -->
<g id="edge12" class="edge">
<title>1&#45;&gt;10</title>
<path fill="none" stroke="black" d="M399.61,-87.21C389.01,-74.51 374.3,-56.9 362.49,-42.76"/>
<polygon fill="black" stroke="black" points="365.02,-40.33 355.92,-34.9 359.64,-44.81 365.02,-40.33"/>
<text text-anchor="middle" x="398.14" y="-57.8" font-family="Times New Roman,serif" font-size="14.00">0.067</text>
</g>
<!-- 11 -->
<g id="node12" class="node">
<title>11</title>
<g id="a_node12"><a xlink:href="catering manager.svg" xlink:title="catering manager">
<ellipse fill="none" stroke="black" cx="468.64" cy="-18" rx="71.49" ry="18"/>
<text text-anchor="middle" x="468.64" y="-14.3" font-family="Times New Roman,serif" font-size="14.00">catering manager</text>
</a>
</g>
</g>
<!-- 1&#45;&gt;11 -->
<g id="edge13" class="edge">
<title>1&#45;&gt;11</title>
<path fill="none" stroke="black" d="M424.51,-87.21C432.37,-75.06 443.13,-58.43 452.05,-44.63"/>
<polygon fill="black" stroke="black" points="455.11,-46.35 457.61,-36.05 449.24,-42.54 455.11,-46.35"/>
<text text-anchor="middle" x="460.14" y="-57.8" font-family="Times New Roman,serif" font-size="14.00">0.044</text>
</g>
<!-- 12 -->
<g id="node13" class="node">
<title>12</title>
<g id="a_node13"><a xlink:href="legal executive.svg" xlink:title="legal executive">
<ellipse fill="none" stroke="black" cx="621.64" cy="-18" rx="63.09" ry="18"/>
<text text-anchor="middle" x="621.64" y="-14.3" font-family="Times New Roman,serif" font-size="14.00">legal executive</text>
</a>
</g>
</g>
<!-- 1&#45;&gt;12 -->
<g id="edge14" class="edge">
<title>1&#45;&gt;12</title>
<path fill="none" stroke="black" d="M447.52,-90.15C482.97,-75.67 538.75,-52.87 577.59,-37"/>
<polygon fill="black" stroke="black" points="579.15,-40.15 587.08,-33.12 576.5,-33.67 579.15,-40.15"/>
<text text-anchor="middle" x="545.14" y="-57.8" font-family="Times New Roman,serif" font-size="14.00">0.044</text>
</g>
<!-- 13 -->
<g id="node14" class="node">
<title>13</title>
<g id="a_node14"><a xlink:href="content manager.svg" xlink:title="content manager">
<ellipse fill="none" stroke="black" cx="772.64" cy="-18" rx="70.39" ry="18"/>
<text text-anchor="middle" x="772.64" y="-14.3" font-family="Times New Roman,serif" font-size="14.00">content manager</text>
</a>
</g>
</g>
<!-- 1&#45;&gt;13 -->
<g id="edge16" class="edge">
<title>1&#45;&gt;13</title>
<path fill="none" stroke="black" d="M459.59,-93.45C489.52,-86.56 529.41,-77.32 564.64,-69 614.9,-57.14 671.92,-43.41 713.53,-33.34"/>
<polygon fill="black" stroke="black" points="714.6,-36.69 723.5,-30.93 712.95,-29.88 714.6,-36.69"/>
<text text-anchor="middle" x="642.14" y="-57.8" font-family="Times New Roman,serif" font-size="14.00">0.022</text>
</g>
<!-- 14 -->
<g id="node15" class="node">
<title>14</title>
<g id="a_node15"><a xlink:href="graphic designer.svg" xlink:title="graphic designer">
<ellipse fill="none" stroke="black" cx="930.64" cy="-18" rx="70.39" ry="18"/>
<text text-anchor="middle" x="930.64" y="-14.3" font-family="Times New Roman,serif" font-size="14.00">graphic designer</text>
</a>
</g>
</g>
<!-- 1&#45;&gt;14 -->
<g id="edge18" class="edge">
<title>1&#45;&gt;14</title>
<path fill="none" stroke="black" d="M467.41,-96.91C517.7,-90.17 594.85,-79.51 661.64,-69 746.31,-55.68 767.51,-52.35 851.64,-36 857.38,-34.89 863.33,-33.68 869.29,-32.45"/>
<polygon fill="black" stroke="black" points="870.21,-35.84 879.28,-30.36 868.78,-28.98 870.21,-35.84"/>
<text text-anchor="middle" x="769.14" y="-57.8" font-family="Times New Roman,serif" font-size="14.00">0.022</text>
</g>
<!-- 15 -->
<g id="node16" class="node">
<title>15</title>
<g id="a_node16"><a xlink:href="housing adviser.svg" xlink:title="housing adviser">
<ellipse fill="none" stroke="black" cx="1086.64" cy="-18" rx="67.69" ry="18"/>
<text text-anchor="middle" x="1086.64" y="-14.3" font-family="Times New Roman,serif" font-size="14.00">housing adviser</text>
</a>
</g>
</g>
<!-- 1&#45;&gt;15 -->
<g id="edge19" class="edge">
<title>1&#45;&gt;15</title>
<path fill="none" stroke="black" d="M471.57,-100.07C578.54,-92.21 814.04,-72.15 1009.64,-36 1015.42,-34.93 1021.42,-33.74 1027.42,-32.51"/>
<polygon fill="black" stroke="black" points="1028.39,-35.88 1037.45,-30.39 1026.94,-29.03 1028.39,-35.88"/>
<text text-anchor="middle" x="911.14" y="-57.8" font-family="Times New Roman,serif" font-size="14.00">0.022</text>
</g>
<!-- 2 -->
<g id="node3" class="node">
<title>2</title>
<g id="a_node3"><a xlink:href="solicitor.svg" xlink:title="solicitor">
<ellipse fill="none" stroke="black" cx="267.64" cy="-192" rx="40.09" ry="18"/>
<text text-anchor="middle" x="267.64" y="-188.3" font-family="Times New Roman,serif" font-size="14.00">solicitor</text>
</a>
</g>
</g>
<!-- 2&#45;&gt;1 -->
<g id="edge2" class="edge">
<title>2&#45;&gt;1</title>
<path fill="none" stroke="black" d="M290.09,-176.92C306.48,-166.74 329.29,-152.76 349.64,-141 358.27,-136.01 367.64,-130.79 376.48,-125.94"/>
<polygon fill="black" stroke="black" points="378.34,-128.91 385.44,-121.05 374.99,-122.76 378.34,-128.91"/>
<text text-anchor="middle" x="365.14" y="-144.8" font-family="Times New Roman,serif" font-size="14.00">0.108</text>
</g>
<!-- 3&#45;&gt;1 -->
<g id="edge3" class="edge">
<title>3&#45;&gt;1</title>
<path fill="none" stroke="black" d="M145.51,-34.68C168.88,-45.63 201.63,-59.87 231.64,-69 270.3,-80.77 314.84,-89.41 350.18,-95.17"/>
<polygon fill="black" stroke="black" points="349.93,-98.67 360.36,-96.79 351.03,-91.76 349.93,-98.67"/>
<text text-anchor="middle" x="247.14" y="-57.8" font-family="Times New Roman,serif" font-size="14.00">0.076</text>
</g>
<!-- 4 -->
<g id="node5" class="node">
<title>4</title>
<g id="a_node5"><a xlink:href="lawyer.svg" xlink:title="lawyer">
<ellipse fill="none" stroke="black" cx="360.64" cy="-192" rx="34.39" ry="18"/>
<text text-anchor="middle" x="360.64" y="-188.3" font-family="Times New Roman,serif" font-size="14.00">lawyer</text>
</a>
</g>
</g>
<!-- 4&#45;&gt;1 -->
<g id="edge4" class="edge">
<title>4&#45;&gt;1</title>
<path fill="none" stroke="black" d="M370.86,-174.61C378.46,-162.42 388.98,-145.56 397.68,-131.6"/>
<polygon fill="black" stroke="black" points="400.77,-133.26 403.09,-122.92 394.83,-129.55 400.77,-133.26"/>
<text text-anchor="middle" x="406.14" y="-144.8" font-family="Times New Roman,serif" font-size="14.00">0.032</text>
</g>
<!-- 5 -->
<g id="node6" class="node">
<title>5</title>
<g id="a_node6"><a xlink:href="it consultant.svg" xlink:title="it consultant">
<ellipse fill="none" stroke="black" cx="467.64" cy="-192" rx="54.69" ry="18"/>
<text text-anchor="middle" x="467.64" y="-188.3" font-family="Times New Roman,serif" font-size="14.00">it consultant</text>
</a>
</g>
</g>
<!-- 5&#45;&gt;1 -->
<g id="edge5" class="edge">
<title>5&#45;&gt;1</title>
<path fill="none" stroke="black" d="M456.97,-174.21C449.21,-161.98 438.55,-145.21 429.75,-131.36"/>
<polygon fill="black" stroke="black" points="432.6,-129.32 424.29,-122.76 426.7,-133.08 432.6,-129.32"/>
<text text-anchor="middle" x="460.14" y="-144.8" font-family="Times New Roman,serif" font-size="14.00">0.025</text>
</g>
<!-- 6 -->
<g id="node7" class="node">
<title>6</title>
<g id="a_node7"><a xlink:href="lecturer.svg" xlink:title="lecturer">
<ellipse fill="none" stroke="black" cx="577.64" cy="-192" rx="37.89" ry="18"/>
<text text-anchor="middle" x="577.64" y="-188.3" font-family="Times New Roman,serif" font-size="14.00">lecturer</text>
</a>
</g>
</g>
<!-- 6&#45;&gt;1 -->
<g id="edge6" class="edge">
<title>6&#45;&gt;1</title>
<path fill="none" stroke="black" d="M553.09,-178.27C526.2,-164.34 482.76,-141.82 451.5,-125.62"/>
<polygon fill="black" stroke="black" points="452.72,-122.31 442.23,-120.82 449.5,-128.53 452.72,-122.31"/>
<text text-anchor="middle" x="521.14" y="-144.8" font-family="Times New Roman,serif" font-size="14.00">0.025</text>
</g>
<!-- 7 -->
<g id="node8" class="node">
<title>7</title>
<g id="a_node8"><a xlink:href="marketing executive.svg" xlink:title="marketing executive">
<ellipse fill="none" stroke="black" cx="715.64" cy="-192" rx="81.79" ry="18"/>
<text text-anchor="middle" x="715.64" y="-188.3" font-family="Times New Roman,serif" font-size="14.00">marketing executive</text>
</a>
</g>
</g>
<!-- 7&#45;&gt;1 -->
<g id="edge7" class="edge">
<title>7&#45;&gt;1</title>
<path fill="none" stroke="black" d="M668.14,-177.3C632.96,-167.18 583.84,-153.12 540.64,-141 516.18,-134.14 489.04,-126.64 466.15,-120.35"/>
<polygon fill="black" stroke="black" points="466.86,-116.92 456.29,-117.65 465.01,-123.67 466.86,-116.92"/>
<text text-anchor="middle" x="608.14" y="-144.8" font-family="Times New Roman,serif" font-size="14.00">0.025</text>
</g>
<!-- 8&#45;&gt;1 -->
<g id="edge8" class="edge">
<title>8&#45;&gt;1</title>
<path fill="none" stroke="black" d="M274.18,-32.42C291.8,-42.77 317.03,-57.25 339.64,-69 350.27,-74.52 361.93,-80.21 372.78,-85.34"/>
<polygon fill="black" stroke="black" points="371.52,-88.62 382.06,-89.7 374.49,-82.28 371.52,-88.62"/>
<text text-anchor="middle" x="355.14" y="-57.8" font-family="Times New Roman,serif" font-size="14.00">0.019</text>
</g>
<!-- 9 -->
<g id="node10" class="node">
<title>9</title>
<g id="a_node10"><a xlink:href="project manager.svg" xlink:title="project manager">
<ellipse fill="none" stroke="black" cx="884.64" cy="-192" rx="68.79" ry="18"/>
<text text-anchor="middle" x="884.64" y="-188.3" font-family="Times New Roman,serif" font-size="14.00">project manager</text>
</a>
</g>
</g>
<!-- 9&#45;&gt;1 -->
<g id="edge9" class="edge">
<title>9&#45;&gt;1</title>
<path fill="none" stroke="black" d="M833.92,-179.7C824.85,-177.75 815.47,-175.78 806.64,-174 690.19,-150.58 553.33,-128.01 475.71,-115.67"/>
<polygon fill="black" stroke="black" points="476.05,-112.18 465.62,-114.07 474.95,-119.1 476.05,-112.18"/>
<text text-anchor="middle" x="725.14" y="-144.8" font-family="Times New Roman,serif" font-size="14.00">0.019</text>
</g>
</g>
</svg>
