<?xml version="1.0" encoding="UTF-8" standalone="no"?>
<!DOCTYPE svg PUBLIC "-//W3C//DTD SVG 1.1//EN"
 "http://www.w3.org/Graphics/SVG/1.1/DTD/svg11.dtd">
<!-- Generated by graphviz version 2.44.1 (20200629.0800)
 -->
<!-- Title: test Pages: 1 -->
<svg width="1624pt" height="218pt"
 viewBox="0.00 0.00 1624.49 218.00" xmlns="http://www.w3.org/2000/svg" xmlns:xlink="http://www.w3.org/1999/xlink">
<g id="graph0" class="graph" transform="scale(1 1) rotate(0) translate(4 214)">
<title>test</title>
<polygon fill="white" stroke="transparent" points="-4,4 -4,-214 1620.49,-214 1620.49,4 -4,4"/>
<!-- 0 -->
<g id="node1" class="node">
<title>0</title>
<g id="a_node1"><a xlink:href="it consultant.svg" xlink:title="it consultant">
<ellipse fill="none" stroke="black" cx="96.7" cy="-192" rx="54.69" ry="18"/>
<text text-anchor="middle" x="96.7" y="-188.3" font-family="Times New Roman,serif" font-size="14.00">it consultant</text>
</a>
</g>
</g>
<!-- 1 -->
<g id="node2" class="node">
<title>1</title>
<g id="a_node2"><a xlink:href="physiotherapist.svg" xlink:title="physiotherapist">
<ellipse fill="none" stroke="black" cx="675.7" cy="-105" rx="65.79" ry="18"/>
<text text-anchor="middle" x="675.7" y="-101.3" font-family="Times New Roman,serif" font-size="14.00">physiotherapist</text>
</a>
</g>
</g>
<!-- 0&#45;&gt;1 -->
<g id="edge1" class="edge">
<title>0&#45;&gt;1</title>
<path fill="none" stroke="black" d="M136.81,-179.59C144.69,-177.56 152.93,-175.59 160.7,-174 317.23,-141.94 503.75,-121.69 603.79,-112.25"/>
<polygon fill="black" stroke="black" points="604.16,-115.74 613.79,-111.32 603.51,-108.77 604.16,-115.74"/>
<text text-anchor="middle" x="359.2" y="-144.8" font-family="Times New Roman,serif" font-size="14.00">0.052</text>
</g>
<!-- 1&#45;&gt;1 -->
<g id="edge10" class="edge">
<title>1&#45;&gt;1</title>
<path fill="none" stroke="black" d="M735.09,-112.72C749.05,-112.08 759.34,-109.51 759.34,-105 759.34,-101.69 753.79,-99.42 745.31,-98.2"/>
<polygon fill="black" stroke="black" points="745.36,-94.69 735.09,-97.28 744.74,-101.66 745.36,-94.69"/>
<text text-anchor="middle" x="774.84" y="-101.3" font-family="Times New Roman,serif" font-size="14.00">0.518</text>
</g>
<!-- 2 -->
<g id="node3" class="node">
<title>2</title>
<g id="a_node3"><a xlink:href="lecturer.svg" xlink:title="lecturer">
<ellipse fill="none" stroke="black" cx="37.7" cy="-18" rx="37.89" ry="18"/>
<text text-anchor="middle" x="37.7" y="-14.3" font-family="Times New Roman,serif" font-size="14.00">lecturer</text>
</a>
</g>
</g>
<!-- 1&#45;&gt;2 -->
<g id="edge11" class="edge">
<title>1&#45;&gt;2</title>
<path fill="none" stroke="black" d="M610.39,-102.67C488.71,-99.7 231.81,-90.97 145.7,-69 118.66,-62.1 90.1,-48.57 69.15,-37.33"/>
<polygon fill="black" stroke="black" points="70.82,-34.25 60.37,-32.51 67.46,-40.39 70.82,-34.25"/>
<text text-anchor="middle" x="161.2" y="-57.8" font-family="Times New Roman,serif" font-size="14.00">0.111</text>
</g>
<!-- 10 -->
<g id="node11" class="node">
<title>10</title>
<g id="a_node11"><a xlink:href="fitness centre manager.svg" xlink:title="fitness centre manager">
<ellipse fill="none" stroke="black" cx="184.7" cy="-18" rx="90.98" ry="18"/>
<text text-anchor="middle" x="184.7" y="-14.3" font-family="Times New Roman,serif" font-size="14.00">fitness centre manager</text>
</a>
</g>
</g>
<!-- 1&#45;&gt;10 -->
<g id="edge12" class="edge">
<title>1&#45;&gt;10</title>
<path fill="none" stroke="black" d="M621.75,-94.66C534.2,-79.5 360.93,-49.51 260.86,-32.18"/>
<polygon fill="black" stroke="black" points="261.26,-28.7 250.81,-30.45 260.07,-35.6 261.26,-28.7"/>
<text text-anchor="middle" x="475.2" y="-57.8" font-family="Times New Roman,serif" font-size="14.00">0.074</text>
</g>
<!-- 11 -->
<g id="node12" class="node">
<title>11</title>
<g id="a_node12"><a xlink:href="sports development officer.svg" xlink:title="sports development officer">
<ellipse fill="none" stroke="black" cx="402.7" cy="-18" rx="108.58" ry="18"/>
<text text-anchor="middle" x="402.7" y="-14.3" font-family="Times New Roman,serif" font-size="14.00">sports development officer</text>
</a>
</g>
</g>
<!-- 1&#45;&gt;11 -->
<g id="edge13" class="edge">
<title>1&#45;&gt;11</title>
<path fill="none" stroke="black" d="M633.94,-91C587.77,-76.62 513.07,-53.37 461.12,-37.19"/>
<polygon fill="black" stroke="black" points="461.96,-33.79 451.37,-34.15 459.88,-40.47 461.96,-33.79"/>
<text text-anchor="middle" x="571.2" y="-57.8" font-family="Times New Roman,serif" font-size="14.00">0.074</text>
</g>
<!-- 12 -->
<g id="node13" class="node">
<title>12</title>
<g id="a_node13"><a xlink:href="sports therapist.svg" xlink:title="sports therapist">
<ellipse fill="none" stroke="black" cx="595.7" cy="-18" rx="66.89" ry="18"/>
<text text-anchor="middle" x="595.7" y="-14.3" font-family="Times New Roman,serif" font-size="14.00">sports therapist</text>
</a>
</g>
</g>
<!-- 1&#45;&gt;12 -->
<g id="edge14" class="edge">
<title>1&#45;&gt;12</title>
<path fill="none" stroke="black" d="M659.89,-87.21C648.06,-74.63 631.7,-57.25 618.46,-43.18"/>
<polygon fill="black" stroke="black" points="620.87,-40.64 611.47,-35.76 615.77,-45.44 620.87,-40.64"/>
<text text-anchor="middle" x="656.2" y="-57.8" font-family="Times New Roman,serif" font-size="14.00">0.074</text>
</g>
<!-- 13 -->
<g id="node14" class="node">
<title>13</title>
<g id="a_node14"><a xlink:href="academic librarian.svg" xlink:title="academic librarian">
<ellipse fill="none" stroke="black" cx="756.7" cy="-18" rx="76.09" ry="18"/>
<text text-anchor="middle" x="756.7" y="-14.3" font-family="Times New Roman,serif" font-size="14.00">academic librarian</text>
</a>
</g>
</g>
<!-- 1&#45;&gt;13 -->
<g id="edge15" class="edge">
<title>1&#45;&gt;13</title>
<path fill="none" stroke="black" d="M691.7,-87.21C703.68,-74.63 720.24,-57.25 733.65,-43.18"/>
<polygon fill="black" stroke="black" points="736.36,-45.41 740.73,-35.76 731.29,-40.58 736.36,-45.41"/>
<text text-anchor="middle" x="737.2" y="-57.8" font-family="Times New Roman,serif" font-size="14.00">0.037</text>
</g>
<!-- 14 -->
<g id="node15" class="node">
<title>14</title>
<g id="a_node15"><a xlink:href="automotive engineer.svg" xlink:title="automotive engineer">
<ellipse fill="none" stroke="black" cx="933.7" cy="-18" rx="83.39" ry="18"/>
<text text-anchor="middle" x="933.7" y="-14.3" font-family="Times New Roman,serif" font-size="14.00">automotive engineer</text>
</a>
</g>
</g>
<!-- 1&#45;&gt;14 -->
<g id="edge16" class="edge">
<title>1&#45;&gt;14</title>
<path fill="none" stroke="black" d="M716.01,-90.72C760.16,-76.17 831.18,-52.78 880.02,-36.68"/>
<polygon fill="black" stroke="black" points="881.38,-39.92 889.78,-33.47 879.19,-33.27 881.38,-39.92"/>
<text text-anchor="middle" x="836.2" y="-57.8" font-family="Times New Roman,serif" font-size="14.00">0.037</text>
</g>
<!-- 15 -->
<g id="node16" class="node">
<title>15</title>
<g id="a_node16"><a xlink:href="clinical research associate.svg" xlink:title="clinical research associate">
<ellipse fill="none" stroke="black" cx="1138.7" cy="-18" rx="103.98" ry="18"/>
<text text-anchor="middle" x="1138.7" y="-14.3" font-family="Times New Roman,serif" font-size="14.00">clinical research associate</text>
</a>
</g>
</g>
<!-- 1&#45;&gt;15 -->
<g id="edge17" class="edge">
<title>1&#45;&gt;15</title>
<path fill="none" stroke="black" d="M728.81,-94.25C810.05,-79.33 965.67,-50.76 1060.04,-33.44"/>
<polygon fill="black" stroke="black" points="1060.9,-36.84 1070.1,-31.59 1059.64,-29.96 1060.9,-36.84"/>
<text text-anchor="middle" x="950.2" y="-57.8" font-family="Times New Roman,serif" font-size="14.00">0.037</text>
</g>
<!-- 16 -->
<g id="node17" class="node">
<title>16</title>
<g id="a_node17"><a xlink:href="computer sales support.svg" xlink:title="computer sales support">
<ellipse fill="none" stroke="black" cx="1356.7" cy="-18" rx="96.38" ry="18"/>
<text text-anchor="middle" x="1356.7" y="-14.3" font-family="Times New Roman,serif" font-size="14.00">computer sales support</text>
</a>
</g>
</g>
<!-- 1&#45;&gt;16 -->
<g id="edge18" class="edge">
<title>1&#45;&gt;16</title>
<path fill="none" stroke="black" d="M735.93,-97.75C840.87,-86.67 1063.97,-62.27 1251.7,-36 1260.2,-34.81 1269.08,-33.49 1277.92,-32.13"/>
<polygon fill="black" stroke="black" points="1278.51,-35.58 1287.85,-30.58 1277.43,-28.66 1278.51,-35.58"/>
<text text-anchor="middle" x="1125.2" y="-57.8" font-family="Times New Roman,serif" font-size="14.00">0.037</text>
</g>
<!-- 17 -->
<g id="node18" class="node">
<title>17</title>
<g id="a_node18"><a xlink:href="facilities manager.svg" xlink:title="facilities manager">
<ellipse fill="none" stroke="black" cx="1543.7" cy="-18" rx="72.59" ry="18"/>
<text text-anchor="middle" x="1543.7" y="-14.3" font-family="Times New Roman,serif" font-size="14.00">facilities manager</text>
</a>
</g>
</g>
<!-- 1&#45;&gt;17 -->
<g id="edge19" class="edge">
<title>1&#45;&gt;17</title>
<path fill="none" stroke="black" d="M740.24,-101.38C874.98,-95.26 1195.74,-77.3 1461.7,-36 1468.01,-35.02 1474.58,-33.87 1481.12,-32.65"/>
<polygon fill="black" stroke="black" points="1482.19,-36.01 1491.35,-30.67 1480.86,-29.13 1482.19,-36.01"/>
<text text-anchor="middle" x="1327.2" y="-57.8" font-family="Times New Roman,serif" font-size="14.00">0.037</text>
</g>
<!-- 2&#45;&gt;1 -->
<g id="edge2" class="edge">
<title>2&#45;&gt;1</title>
<path fill="none" stroke="black" d="M65.71,-30.32C71.88,-32.48 78.45,-34.53 84.7,-36 266.98,-79.02 487.56,-95.21 600.72,-101"/>
<polygon fill="black" stroke="black" points="600.84,-104.51 611,-101.51 601.19,-97.52 600.84,-104.51"/>
<text text-anchor="middle" x="277.2" y="-57.8" font-family="Times New Roman,serif" font-size="14.00">0.052</text>
</g>
<!-- 3 -->
<g id="node4" class="node">
<title>3</title>
<g id="a_node4"><a xlink:href="medical physicist.svg" xlink:title="medical physicist">
<ellipse fill="none" stroke="black" cx="242.7" cy="-192" rx="73.39" ry="18"/>
<text text-anchor="middle" x="242.7" y="-188.3" font-family="Times New Roman,serif" font-size="14.00">medical physicist</text>
</a>
</g>
</g>
<!-- 3&#45;&gt;1 -->
<g id="edge3" class="edge">
<title>3&#45;&gt;1</title>
<path fill="none" stroke="black" d="M297.15,-179.76C306.66,-177.83 316.46,-175.84 325.7,-174 426.37,-153.91 543.49,-131.31 613.5,-117.89"/>
<polygon fill="black" stroke="black" points="614.32,-121.29 623.48,-115.97 613,-114.42 614.32,-121.29"/>
<text text-anchor="middle" x="504.2" y="-144.8" font-family="Times New Roman,serif" font-size="14.00">0.052</text>
</g>
<!-- 4 -->
<g id="node5" class="node">
<title>4</title>
<g id="a_node5"><a xlink:href="occupational therapist.svg" xlink:title="occupational therapist">
<ellipse fill="none" stroke="black" cx="424.7" cy="-192" rx="90.18" ry="18"/>
<text text-anchor="middle" x="424.7" y="-188.3" font-family="Times New Roman,serif" font-size="14.00">occupational therapist</text>
</a>
</g>
</g>
<!-- 4&#45;&gt;1 -->
<g id="edge4" class="edge">
<title>4&#45;&gt;1</title>
<path fill="none" stroke="black" d="M468.42,-176.19C512.52,-161.26 580.47,-138.25 626.45,-122.68"/>
<polygon fill="black" stroke="black" points="627.84,-125.9 636.19,-119.38 625.6,-119.27 627.84,-125.9"/>
<text text-anchor="middle" x="581.2" y="-144.8" font-family="Times New Roman,serif" font-size="14.00">0.052</text>
</g>
<!-- 5 -->
<g id="node6" class="node">
<title>5</title>
<g id="a_node6"><a xlink:href="sales manager.svg" xlink:title="sales manager">
<ellipse fill="none" stroke="black" cx="593.7" cy="-192" rx="61.19" ry="18"/>
<text text-anchor="middle" x="593.7" y="-188.3" font-family="Times New Roman,serif" font-size="14.00">sales manager</text>
</a>
</g>
</g>
<!-- 5&#45;&gt;1 -->
<g id="edge5" class="edge">
<title>5&#45;&gt;1</title>
<path fill="none" stroke="black" d="M609.51,-174.61C621.68,-161.99 638.69,-144.36 652.42,-130.13"/>
<polygon fill="black" stroke="black" points="655.23,-132.26 659.65,-122.63 650.19,-127.4 655.23,-132.26"/>
<text text-anchor="middle" x="655.2" y="-144.8" font-family="Times New Roman,serif" font-size="14.00">0.052</text>
</g>
<!-- 6 -->
<g id="node7" class="node">
<title>6</title>
<g id="a_node7"><a xlink:href="aeronautical engineer.svg" xlink:title="aeronautical engineer">
<ellipse fill="none" stroke="black" cx="758.7" cy="-192" rx="85.59" ry="18"/>
<text text-anchor="middle" x="758.7" y="-188.3" font-family="Times New Roman,serif" font-size="14.00">aeronautical engineer</text>
</a>
</g>
</g>
<!-- 6&#45;&gt;1 -->
<g id="edge6" class="edge">
<title>6&#45;&gt;1</title>
<path fill="none" stroke="black" d="M742.3,-174.21C729.94,-161.55 712.83,-144.03 699.04,-129.91"/>
<polygon fill="black" stroke="black" points="701.27,-127.18 691.78,-122.47 696.26,-132.07 701.27,-127.18"/>
<text text-anchor="middle" x="738.2" y="-144.8" font-family="Times New Roman,serif" font-size="14.00">0.026</text>
</g>
<!-- 7 -->
<g id="node8" class="node">
<title>7</title>
<g id="a_node8"><a xlink:href="aid worker.svg" xlink:title="aid worker">
<ellipse fill="none" stroke="black" cx="911.7" cy="-192" rx="49.29" ry="18"/>
<text text-anchor="middle" x="911.7" y="-188.3" font-family="Times New Roman,serif" font-size="14.00">aid worker</text>
</a>
</g>
</g>
<!-- 7&#45;&gt;1 -->
<g id="edge7" class="edge">
<title>7&#45;&gt;1</title>
<path fill="none" stroke="black" d="M877.88,-178.82C837.31,-164.21 769.02,-139.61 723.17,-123.1"/>
<polygon fill="black" stroke="black" points="724.34,-119.8 713.75,-119.7 721.97,-126.39 724.34,-119.8"/>
<text text-anchor="middle" x="824.2" y="-144.8" font-family="Times New Roman,serif" font-size="14.00">0.026</text>
</g>
<!-- 8 -->
<g id="node9" class="node">
<title>8</title>
<g id="a_node9"><a xlink:href="airline cabin crew.svg" xlink:title="airline cabin crew">
<ellipse fill="none" stroke="black" cx="1052.7" cy="-192" rx="73.39" ry="18"/>
<text text-anchor="middle" x="1052.7" y="-188.3" font-family="Times New Roman,serif" font-size="14.00">airline cabin crew</text>
</a>
</g>
</g>
<!-- 8&#45;&gt;1 -->
<g id="edge8" class="edge">
<title>8&#45;&gt;1</title>
<path fill="none" stroke="black" d="M1002.96,-178.67C960.68,-168.28 898.31,-153.22 843.7,-141 808.54,-133.13 769.12,-124.89 737.3,-118.38"/>
<polygon fill="black" stroke="black" points="737.75,-114.9 727.25,-116.33 736.35,-121.76 737.75,-114.9"/>
<text text-anchor="middle" x="922.2" y="-144.8" font-family="Times New Roman,serif" font-size="14.00">0.026</text>
</g>
<!-- 9 -->
<g id="node10" class="node">
<title>9</title>
<g id="a_node10"><a xlink:href="biomedical scientist.svg" xlink:title="biomedical scientist">
<ellipse fill="none" stroke="black" cx="1225.7" cy="-192" rx="81.79" ry="18"/>
<text text-anchor="middle" x="1225.7" y="-188.3" font-family="Times New Roman,serif" font-size="14.00">biomedical scientist</text>
</a>
</g>
</g>
<!-- 9&#45;&gt;1 -->
<g id="edge9" class="edge">
<title>9&#45;&gt;1</title>
<path fill="none" stroke="black" d="M1165.51,-179.62C1155.24,-177.72 1144.66,-175.78 1134.7,-174 1049.03,-158.68 1027.74,-154.01 941.7,-141 874.85,-130.89 798.3,-120.99 744.53,-114.32"/>
<polygon fill="black" stroke="black" points="744.78,-110.82 734.43,-113.07 743.92,-117.77 744.78,-110.82"/>
<text text-anchor="middle" x="1047.2" y="-144.8" font-family="Times New Roman,serif" font-size="14.00">0.026</text>
</g>
</g>
</svg>
