<?xml version="1.0" encoding="UTF-8" standalone="no"?>
<!DOCTYPE svg PUBLIC "-//W3C//DTD SVG 1.1//EN"
 "http://www.w3.org/Graphics/SVG/1.1/DTD/svg11.dtd">
<!-- Generated by graphviz version 2.44.1 (20200629.0800)
 -->
<!-- Title: planning_technician Pages: 1 -->
<svg width="1510pt" height="218pt"
 viewBox="0.00 0.00 1509.69 218.00" xmlns="http://www.w3.org/2000/svg" xmlns:xlink="http://www.w3.org/1999/xlink">
<g id="graph0" class="graph" transform="scale(1 1) rotate(0) translate(4 214)">
<title>planning_technician</title>
<polygon fill="white" stroke="transparent" points="-4,4 -4,-214 1505.69,-214 1505.69,4 -4,4"/>
<!-- 0 -->
<g id="node1" class="node">
<title>0</title>
<g id="a_node1"><a xlink:href="project manager.svg" xlink:title="project manager">
<ellipse fill="none" stroke="black" cx="266.6" cy="-192" rx="68.79" ry="18"/>
<text text-anchor="middle" x="266.6" y="-188.3" font-family="Times New Roman,serif" font-size="14.00">project manager</text>
</a>
</g>
</g>
<!-- 1 -->
<g id="node2" class="node">
<title>1</title>
<g id="a_node2"><a xlink:href="planning technician.svg" xlink:title="planning technician">
<ellipse fill="none" stroke="black" cx="512.6" cy="-105" rx="79.09" ry="18"/>
<text text-anchor="middle" x="512.6" y="-101.3" font-family="Times New Roman,serif" font-size="14.00">planning technician</text>
</a>
</g>
</g>
<!-- 0&#45;&gt;1 -->
<g id="edge1" class="edge">
<title>0&#45;&gt;1</title>
<path fill="none" stroke="black" d="M276.49,-173.89C283.88,-162.71 295.03,-148.79 308.6,-141 329.4,-129.06 383.98,-120.05 431.46,-114.17"/>
<polygon fill="black" stroke="black" points="431.96,-117.64 441.47,-112.96 431.12,-110.69 431.96,-117.64"/>
<text text-anchor="middle" x="324.1" y="-144.8" font-family="Times New Roman,serif" font-size="14.00">0.072</text>
</g>
<!-- 1&#45;&gt;0 -->
<g id="edge11" class="edge">
<title>1&#45;&gt;0</title>
<path fill="none" stroke="black" d="M470.8,-120.44C427.98,-135.24 361.43,-158.23 316.03,-173.92"/>
<polygon fill="black" stroke="black" points="314.7,-170.67 306.39,-177.25 316.99,-177.29 314.7,-170.67"/>
<text text-anchor="middle" x="420.1" y="-144.8" font-family="Times New Roman,serif" font-size="14.00">0.091</text>
</g>
<!-- 1&#45;&gt;1 -->
<g id="edge10" class="edge">
<title>1&#45;&gt;1</title>
<path fill="none" stroke="black" d="M584.73,-112.57C599.39,-111.75 609.89,-109.22 609.89,-105 609.89,-101.83 603.98,-99.62 594.84,-98.36"/>
<polygon fill="black" stroke="black" points="595.01,-94.86 584.73,-97.43 594.36,-101.83 595.01,-94.86"/>
<text text-anchor="middle" x="625.39" y="-101.3" font-family="Times New Roman,serif" font-size="14.00">0.133</text>
</g>
<!-- 3 -->
<g id="node4" class="node">
<title>3</title>
<g id="a_node4"><a xlink:href="it consultant.svg" xlink:title="it consultant">
<ellipse fill="none" stroke="black" cx="54.6" cy="-18" rx="54.69" ry="18"/>
<text text-anchor="middle" x="54.6" y="-14.3" font-family="Times New Roman,serif" font-size="14.00">it consultant</text>
</a>
</g>
</g>
<!-- 1&#45;&gt;3 -->
<g id="edge12" class="edge">
<title>1&#45;&gt;3</title>
<path fill="none" stroke="black" d="M435.22,-100.84C341.93,-96.32 191.02,-86.56 137.6,-69 118.22,-62.63 98.59,-51.08 83.28,-40.69"/>
<polygon fill="black" stroke="black" points="85.01,-37.62 74.81,-34.75 80.99,-43.36 85.01,-37.62"/>
<text text-anchor="middle" x="150.1" y="-57.8" font-family="Times New Roman,serif" font-size="14.00">0.05</text>
</g>
<!-- 4 -->
<g id="node5" class="node">
<title>4</title>
<g id="a_node5"><a xlink:href="network administrator.svg" xlink:title="network administrator">
<ellipse fill="none" stroke="black" cx="216.6" cy="-18" rx="89.88" ry="18"/>
<text text-anchor="middle" x="216.6" y="-14.3" font-family="Times New Roman,serif" font-size="14.00">network administrator</text>
</a>
</g>
</g>
<!-- 1&#45;&gt;4 -->
<g id="edge16" class="edge">
<title>1&#45;&gt;4</title>
<path fill="none" stroke="black" d="M434.65,-101.7C388.84,-98.04 330.69,-89.31 282.6,-69 267.64,-62.68 253.03,-52.21 241.38,-42.47"/>
<polygon fill="black" stroke="black" points="243.67,-39.82 233.82,-35.91 239.08,-45.11 243.67,-39.82"/>
<text text-anchor="middle" x="298.1" y="-57.8" font-family="Times New Roman,serif" font-size="14.00">0.033</text>
</g>
<!-- 7 -->
<g id="node8" class="node">
<title>7</title>
<g id="a_node8"><a xlink:href="civil engineer.svg" xlink:title="civil engineer">
<ellipse fill="none" stroke="black" cx="382.6" cy="-18" rx="57.69" ry="18"/>
<text text-anchor="middle" x="382.6" y="-14.3" font-family="Times New Roman,serif" font-size="14.00">civil engineer</text>
</a>
</g>
</g>
<!-- 1&#45;&gt;7 -->
<g id="edge19" class="edge">
<title>1&#45;&gt;7</title>
<path fill="none" stroke="black" d="M451.7,-93.44C435.28,-88.24 418.51,-80.51 405.6,-69 398.62,-62.79 393.62,-54.03 390.1,-45.57"/>
<polygon fill="black" stroke="black" points="393.32,-44.17 386.62,-35.96 386.74,-46.55 393.32,-44.17"/>
<text text-anchor="middle" x="421.1" y="-57.8" font-family="Times New Roman,serif" font-size="14.00">0.025</text>
</g>
<!-- 8 -->
<g id="node9" class="node">
<title>8</title>
<g id="a_node9"><a xlink:href="geographical information systems manager.svg" xlink:title="geographical information systems manager">
<ellipse fill="none" stroke="black" cx="623.6" cy="-18" rx="165.17" ry="18"/>
<text text-anchor="middle" x="623.6" y="-14.3" font-family="Times New Roman,serif" font-size="14.00">geographical information systems manager</text>
</a>
</g>
</g>
<!-- 1&#45;&gt;8 -->
<g id="edge15" class="edge">
<title>1&#45;&gt;8</title>
<path fill="none" stroke="black" d="M518.47,-86.8C522.85,-76.15 529.79,-62.87 539.6,-54 545.83,-48.36 553.1,-43.56 560.7,-39.48"/>
<polygon fill="black" stroke="black" points="562.32,-42.59 569.74,-35.03 559.22,-36.31 562.32,-42.59"/>
<text text-anchor="middle" x="555.1" y="-57.8" font-family="Times New Roman,serif" font-size="14.00">0.033</text>
</g>
<!-- 10 -->
<g id="node11" class="node">
<title>10</title>
<g id="a_node11"><a xlink:href="pharmacovigilance officer.svg" xlink:title="pharmacovigilance officer">
<ellipse fill="none" stroke="black" cx="911.6" cy="-18" rx="104.78" ry="18"/>
<text text-anchor="middle" x="911.6" y="-14.3" font-family="Times New Roman,serif" font-size="14.00">pharmacovigilance officer</text>
</a>
</g>
</g>
<!-- 1&#45;&gt;10 -->
<g id="edge13" class="edge">
<title>1&#45;&gt;10</title>
<path fill="none" stroke="black" d="M568.49,-92.09C639,-77.07 760.41,-51.21 838.29,-34.62"/>
<polygon fill="black" stroke="black" points="839.46,-37.95 848.51,-32.44 838,-31.1 839.46,-37.95"/>
<text text-anchor="middle" x="751.1" y="-57.8" font-family="Times New Roman,serif" font-size="14.00">0.041</text>
</g>
<!-- 11 -->
<g id="node12" class="node">
<title>11</title>
<g id="a_node12"><a xlink:href="catering manager.svg" xlink:title="catering manager">
<ellipse fill="none" stroke="black" cx="1105.6" cy="-18" rx="71.49" ry="18"/>
<text text-anchor="middle" x="1105.6" y="-14.3" font-family="Times New Roman,serif" font-size="14.00">catering manager</text>
</a>
</g>
</g>
<!-- 1&#45;&gt;11 -->
<g id="edge14" class="edge">
<title>1&#45;&gt;11</title>
<path fill="none" stroke="black" d="M582.56,-96.47C681.54,-85.42 868,-63.15 1025.6,-36 1031.66,-34.96 1037.96,-33.78 1044.24,-32.54"/>
<polygon fill="black" stroke="black" points="1044.96,-35.97 1054.07,-30.56 1043.57,-29.11 1044.96,-35.97"/>
<text text-anchor="middle" x="914.1" y="-57.8" font-family="Times New Roman,serif" font-size="14.00">0.033</text>
</g>
<!-- 12 -->
<g id="node13" class="node">
<title>12</title>
<g id="a_node13"><a xlink:href="production manager.svg" xlink:title="production manager">
<ellipse fill="none" stroke="black" cx="1278.6" cy="-18" rx="83.39" ry="18"/>
<text text-anchor="middle" x="1278.6" y="-14.3" font-family="Times New Roman,serif" font-size="14.00">production manager</text>
</a>
</g>
</g>
<!-- 1&#45;&gt;12 -->
<g id="edge17" class="edge">
<title>1&#45;&gt;12</title>
<path fill="none" stroke="black" d="M587.22,-98.87C671.46,-92.82 812.54,-81.95 933.6,-69 1045.91,-56.98 1074,-53.49 1185.6,-36 1192.92,-34.85 1200.56,-33.58 1208.18,-32.26"/>
<polygon fill="black" stroke="black" points="1208.9,-35.69 1218.14,-30.51 1207.68,-28.79 1208.9,-35.69"/>
<text text-anchor="middle" x="1079.1" y="-57.8" font-family="Times New Roman,serif" font-size="14.00">0.033</text>
</g>
<!-- 13 -->
<g id="node14" class="node">
<title>13</title>
<g id="a_node14"><a xlink:href="sales manager.svg" xlink:title="sales manager">
<ellipse fill="none" stroke="black" cx="1440.6" cy="-18" rx="61.19" ry="18"/>
<text text-anchor="middle" x="1440.6" y="-14.3" font-family="Times New Roman,serif" font-size="14.00">sales manager</text>
</a>
</g>
</g>
<!-- 1&#45;&gt;13 -->
<g id="edge18" class="edge">
<title>1&#45;&gt;13</title>
<path fill="none" stroke="black" d="M589.97,-100.89C702.2,-96.03 916.65,-85.46 1098.6,-69 1219.88,-58.03 1250.78,-57.74 1370.6,-36 1375.69,-35.07 1380.98,-34 1386.25,-32.86"/>
<polygon fill="black" stroke="black" points="1387.34,-36.2 1396.33,-30.58 1385.8,-29.37 1387.34,-36.2"/>
<text text-anchor="middle" x="1268.1" y="-57.8" font-family="Times New Roman,serif" font-size="14.00">0.033</text>
</g>
<!-- 2 -->
<g id="node3" class="node">
<title>2</title>
<g id="a_node3"><a xlink:href="electrical engineer.svg" xlink:title="electrical engineer">
<ellipse fill="none" stroke="black" cx="428.6" cy="-192" rx="74.99" ry="18"/>
<text text-anchor="middle" x="428.6" y="-188.3" font-family="Times New Roman,serif" font-size="14.00">electrical engineer</text>
</a>
</g>
</g>
<!-- 2&#45;&gt;1 -->
<g id="edge2" class="edge">
<title>2&#45;&gt;1</title>
<path fill="none" stroke="black" d="M445.19,-174.21C457.62,-161.63 474.79,-144.25 488.7,-130.18"/>
<polygon fill="black" stroke="black" points="491.49,-132.33 496.03,-122.76 486.52,-127.41 491.49,-132.33"/>
<text text-anchor="middle" x="492.1" y="-144.8" font-family="Times New Roman,serif" font-size="14.00">0.043</text>
</g>
<!-- 3&#45;&gt;1 -->
<g id="edge3" class="edge">
<title>3&#45;&gt;1</title>
<path fill="none" stroke="black" d="M90.52,-31.62C124.23,-43 176.26,-59.38 222.6,-69 291.1,-83.22 370,-92.28 428.19,-97.61"/>
<polygon fill="black" stroke="black" points="428.16,-101.12 438.44,-98.53 428.79,-94.15 428.16,-101.12"/>
<text text-anchor="middle" x="238.1" y="-57.8" font-family="Times New Roman,serif" font-size="14.00">0.043</text>
</g>
<!-- 4&#45;&gt;1 -->
<g id="edge4" class="edge">
<title>4&#45;&gt;1</title>
<path fill="none" stroke="black" d="M256.57,-34.18C285.26,-44.76 324.99,-58.75 360.6,-69 388.17,-76.94 418.96,-84.3 445.58,-90.2"/>
<polygon fill="black" stroke="black" points="445.04,-93.67 455.56,-92.39 446.54,-86.83 445.04,-93.67"/>
<text text-anchor="middle" x="376.1" y="-57.8" font-family="Times New Roman,serif" font-size="14.00">0.028</text>
</g>
<!-- 5 -->
<g id="node6" class="node">
<title>5</title>
<g id="a_node6"><a xlink:href="structural engineer.svg" xlink:title="structural engineer">
<ellipse fill="none" stroke="black" cx="597.6" cy="-192" rx="76.89" ry="18"/>
<text text-anchor="middle" x="597.6" y="-188.3" font-family="Times New Roman,serif" font-size="14.00">structural engineer</text>
</a>
</g>
</g>
<!-- 5&#45;&gt;1 -->
<g id="edge5" class="edge">
<title>5&#45;&gt;1</title>
<path fill="none" stroke="black" d="M580.8,-174.21C568.23,-161.63 550.85,-144.25 536.78,-130.18"/>
<polygon fill="black" stroke="black" points="538.9,-127.35 529.35,-122.76 533.95,-132.3 538.9,-127.35"/>
<text text-anchor="middle" x="576.1" y="-144.8" font-family="Times New Roman,serif" font-size="14.00">0.028</text>
</g>
<!-- 6 -->
<g id="node7" class="node">
<title>6</title>
<g id="a_node7"><a xlink:href="broadcasting presenter.svg" xlink:title="broadcasting presenter">
<ellipse fill="none" stroke="black" cx="785.6" cy="-192" rx="92.88" ry="18"/>
<text text-anchor="middle" x="785.6" y="-188.3" font-family="Times New Roman,serif" font-size="14.00">broadcasting presenter</text>
</a>
</g>
</g>
<!-- 6&#45;&gt;1 -->
<g id="edge6" class="edge">
<title>6&#45;&gt;1</title>
<path fill="none" stroke="black" d="M738.66,-176.39C691.07,-161.57 617.47,-138.65 567.27,-123.02"/>
<polygon fill="black" stroke="black" points="568.14,-119.63 557.55,-120 566.06,-126.31 568.14,-119.63"/>
<text text-anchor="middle" x="681.1" y="-144.8" font-family="Times New Roman,serif" font-size="14.00">0.021</text>
</g>
<!-- 7&#45;&gt;1 -->
<g id="edge7" class="edge">
<title>7&#45;&gt;1</title>
<path fill="none" stroke="black" d="M406.38,-34.55C426.87,-47.95 456.65,-67.42 479.47,-82.34"/>
<polygon fill="black" stroke="black" points="477.55,-85.27 487.84,-87.81 481.38,-79.41 477.55,-85.27"/>
<text text-anchor="middle" x="471.1" y="-57.8" font-family="Times New Roman,serif" font-size="14.00">0.021</text>
</g>
<!-- 8&#45;&gt;1 -->
<g id="edge8" class="edge">
<title>8&#45;&gt;1</title>
<path fill="none" stroke="black" d="M609.2,-35.95C599.95,-46.24 587.32,-59.23 574.6,-69 568.05,-74.03 560.69,-78.81 553.4,-83.14"/>
<polygon fill="black" stroke="black" points="551.21,-80.37 544.27,-88.37 554.68,-86.44 551.21,-80.37"/>
<text text-anchor="middle" x="606.1" y="-57.8" font-family="Times New Roman,serif" font-size="14.00">0.021</text>
</g>
<!-- 9 -->
<g id="node10" class="node">
<title>9</title>
<g id="a_node10"><a xlink:href="media planner.svg" xlink:title="media planner">
<ellipse fill="none" stroke="black" cx="957.6" cy="-192" rx="61.19" ry="18"/>
<text text-anchor="middle" x="957.6" y="-188.3" font-family="Times New Roman,serif" font-size="14.00">media planner</text>
</a>
</g>
</g>
<!-- 9&#45;&gt;1 -->
<g id="edge9" class="edge">
<title>9&#45;&gt;1</title>
<path fill="none" stroke="black" d="M912.87,-179.72C904.49,-177.73 895.79,-175.74 887.6,-174 782.9,-151.82 660.81,-130.52 585.1,-117.85"/>
<polygon fill="black" stroke="black" points="585.63,-114.39 575.19,-116.19 584.47,-121.29 585.63,-114.39"/>
<text text-anchor="middle" x="810.1" y="-144.8" font-family="Times New Roman,serif" font-size="14.00">0.021</text>
</g>
</g>
</svg>
