<?xml version="1.0" encoding="UTF-8" standalone="no"?>
<!DOCTYPE svg PUBLIC "-//W3C//DTD SVG 1.1//EN"
 "http://www.w3.org/Graphics/SVG/1.1/DTD/svg11.dtd">
<!-- Generated by graphviz version 2.44.1 (20200629.0800)
 -->
<!-- Title: pr_officer Pages: 1 -->
<svg width="1442pt" height="218pt"
 viewBox="0.00 0.00 1441.83 218.00" xmlns="http://www.w3.org/2000/svg" xmlns:xlink="http://www.w3.org/1999/xlink">
<g id="graph0" class="graph" transform="scale(1 1) rotate(0) translate(4 214)">
<title>pr_officer</title>
<polygon fill="white" stroke="transparent" points="-4,4 -4,-214 1437.83,-214 1437.83,4 -4,4"/>
<!-- 0 -->
<g id="node1" class="node">
<title>0</title>
<g id="a_node1"><a xlink:href="pharmacovigilance officer.svg" xlink:title="pharmacovigilance officer">
<ellipse fill="none" stroke="black" cx="104.64" cy="-192" rx="104.78" ry="18"/>
<text text-anchor="middle" x="104.64" y="-188.3" font-family="Times New Roman,serif" font-size="14.00">pharmacovigilance officer</text>
</a>
</g>
</g>
<!-- 1 -->
<g id="node2" class="node">
<title>1</title>
<g id="a_node2"><a xlink:href="pr officer.svg" xlink:title="pr officer">
<ellipse fill="none" stroke="black" cx="486.64" cy="-105" rx="44.69" ry="18"/>
<text text-anchor="middle" x="486.64" y="-101.3" font-family="Times New Roman,serif" font-size="14.00">pr officer</text>
</a>
</g>
</g>
<!-- 0&#45;&gt;1 -->
<g id="edge1" class="edge">
<title>0&#45;&gt;1</title>
<path fill="none" stroke="black" d="M126.3,-174.19C142.12,-162.85 164.57,-148.61 186.64,-141 268.65,-112.74 369.95,-106.39 431.36,-105.43"/>
<polygon fill="black" stroke="black" points="431.64,-108.93 441.6,-105.32 431.56,-101.93 431.64,-108.93"/>
<text text-anchor="middle" x="202.14" y="-144.8" font-family="Times New Roman,serif" font-size="14.00">0.067</text>
</g>
<!-- 1&#45;&gt;0 -->
<g id="edge12" class="edge">
<title>1&#45;&gt;0</title>
<path fill="none" stroke="black" d="M448.37,-114.52C384.86,-128.65 256.71,-157.16 176.09,-175.1"/>
<polygon fill="black" stroke="black" points="175.02,-171.75 166.02,-177.34 176.54,-178.59 175.02,-171.75"/>
<text text-anchor="middle" x="334.14" y="-144.8" font-family="Times New Roman,serif" font-size="14.00">0.042</text>
</g>
<!-- 1&#45;&gt;1 -->
<g id="edge10" class="edge">
<title>1&#45;&gt;1</title>
<path fill="none" stroke="black" d="M527.14,-112.87C539.66,-112.71 549.49,-110.09 549.49,-105 549.49,-101.42 544.63,-99.07 537.39,-97.93"/>
<polygon fill="black" stroke="black" points="537.38,-94.41 527.14,-97.13 536.84,-101.39 537.38,-94.41"/>
<text text-anchor="middle" x="564.99" y="-101.3" font-family="Times New Roman,serif" font-size="14.00">0.094</text>
</g>
<!-- 4 -->
<g id="node5" class="node">
<title>4</title>
<g id="a_node5"><a xlink:href="project manager.svg" xlink:title="project manager">
<ellipse fill="none" stroke="black" cx="167.64" cy="-18" rx="68.79" ry="18"/>
<text text-anchor="middle" x="167.64" y="-14.3" font-family="Times New Roman,serif" font-size="14.00">project manager</text>
</a>
</g>
</g>
<!-- 1&#45;&gt;4 -->
<g id="edge11" class="edge">
<title>1&#45;&gt;4</title>
<path fill="none" stroke="black" d="M442.15,-102.46C373.82,-99.42 246.83,-90.94 207.64,-69 197.5,-63.32 188.97,-53.94 182.42,-44.82"/>
<polygon fill="black" stroke="black" points="185.21,-42.7 176.77,-36.3 179.38,-46.57 185.21,-42.7"/>
<text text-anchor="middle" x="223.14" y="-57.8" font-family="Times New Roman,serif" font-size="14.00">0.094</text>
</g>
<!-- 5 -->
<g id="node6" class="node">
<title>5</title>
<g id="a_node6"><a xlink:href="secretary.svg" xlink:title="secretary">
<ellipse fill="none" stroke="black" cx="297.64" cy="-18" rx="43.59" ry="18"/>
<text text-anchor="middle" x="297.64" y="-14.3" font-family="Times New Roman,serif" font-size="14.00">secretary</text>
</a>
</g>
</g>
<!-- 1&#45;&gt;5 -->
<g id="edge14" class="edge">
<title>1&#45;&gt;5</title>
<path fill="none" stroke="black" d="M441.68,-103.23C407.83,-100.61 361.76,-92.49 328.64,-69 320.11,-62.95 313.44,-53.74 308.51,-44.86"/>
<polygon fill="black" stroke="black" points="311.62,-43.24 304,-35.88 305.36,-46.39 311.62,-43.24"/>
<text text-anchor="middle" x="344.14" y="-57.8" font-family="Times New Roman,serif" font-size="14.00">0.031</text>
</g>
<!-- 9 -->
<g id="node10" class="node">
<title>9</title>
<g id="a_node10"><a xlink:href="teaching assistant.svg" xlink:title="teaching assistant">
<ellipse fill="none" stroke="black" cx="432.64" cy="-18" rx="73.39" ry="18"/>
<text text-anchor="middle" x="432.64" y="-14.3" font-family="Times New Roman,serif" font-size="14.00">teaching assistant</text>
</a>
</g>
</g>
<!-- 1&#45;&gt;9 -->
<g id="edge15" class="edge">
<title>1&#45;&gt;9</title>
<path fill="none" stroke="black" d="M455.25,-92.14C445.25,-86.69 435.31,-79.13 429.64,-69 425.85,-62.22 425.07,-54.08 425.66,-46.35"/>
<polygon fill="black" stroke="black" points="429.15,-46.65 427.16,-36.24 422.23,-45.62 429.15,-46.65"/>
<text text-anchor="middle" x="445.14" y="-57.8" font-family="Times New Roman,serif" font-size="14.00">0.031</text>
</g>
<!-- 10 -->
<g id="node11" class="node">
<title>10</title>
<g id="a_node11"><a xlink:href="records manager.svg" xlink:title="records manager">
<ellipse fill="none" stroke="black" cx="595.64" cy="-18" rx="71.49" ry="18"/>
<text text-anchor="middle" x="595.64" y="-14.3" font-family="Times New Roman,serif" font-size="14.00">records manager</text>
</a>
</g>
</g>
<!-- 1&#45;&gt;10 -->
<g id="edge13" class="edge">
<title>1&#45;&gt;10</title>
<path fill="none" stroke="black" d="M506.38,-88.61C523.16,-75.52 547.49,-56.55 566.51,-41.72"/>
<polygon fill="black" stroke="black" points="568.83,-44.35 574.56,-35.44 564.52,-38.83 568.83,-44.35"/>
<text text-anchor="middle" x="564.14" y="-57.8" font-family="Times New Roman,serif" font-size="14.00">0.031</text>
</g>
<!-- 11 -->
<g id="node12" class="node">
<title>11</title>
<g id="a_node12"><a xlink:href="advertising copywriter.svg" xlink:title="advertising copywriter">
<ellipse fill="none" stroke="black" cx="775.64" cy="-18" rx="90.98" ry="18"/>
<text text-anchor="middle" x="775.64" y="-14.3" font-family="Times New Roman,serif" font-size="14.00">advertising copywriter</text>
</a>
</g>
</g>
<!-- 1&#45;&gt;11 -->
<g id="edge16" class="edge">
<title>1&#45;&gt;11</title>
<path fill="none" stroke="black" d="M521.79,-93.66C570.35,-79.38 658.59,-53.43 717.17,-36.2"/>
<polygon fill="black" stroke="black" points="718.42,-39.48 727.03,-33.3 716.45,-32.76 718.42,-39.48"/>
<text text-anchor="middle" x="663.14" y="-57.8" font-family="Times New Roman,serif" font-size="14.00">0.021</text>
</g>
<!-- 12 -->
<g id="node13" class="node">
<title>12</title>
<g id="a_node13"><a xlink:href="catering manager.svg" xlink:title="catering manager">
<ellipse fill="none" stroke="black" cx="955.64" cy="-18" rx="71.49" ry="18"/>
<text text-anchor="middle" x="955.64" y="-14.3" font-family="Times New Roman,serif" font-size="14.00">catering manager</text>
</a>
</g>
</g>
<!-- 1&#45;&gt;12 -->
<g id="edge17" class="edge">
<title>1&#45;&gt;12</title>
<path fill="none" stroke="black" d="M527.33,-97.39C598.23,-85.75 748.93,-60.53 875.64,-36 881.36,-34.89 887.29,-33.71 893.23,-32.49"/>
<polygon fill="black" stroke="black" points="894.11,-35.88 903.2,-30.43 892.69,-29.03 894.11,-35.88"/>
<text text-anchor="middle" x="784.14" y="-57.8" font-family="Times New Roman,serif" font-size="14.00">0.021</text>
</g>
<!-- 13 -->
<g id="node14" class="node">
<title>13</title>
<g id="a_node14"><a xlink:href="commissioning editor.svg" xlink:title="commissioning editor">
<ellipse fill="none" stroke="black" cx="1134.64" cy="-18" rx="89.08" ry="18"/>
<text text-anchor="middle" x="1134.64" y="-14.3" font-family="Times New Roman,serif" font-size="14.00">commissioning editor</text>
</a>
</g>
</g>
<!-- 1&#45;&gt;13 -->
<g id="edge18" class="edge">
<title>1&#45;&gt;13</title>
<path fill="none" stroke="black" d="M529.5,-99.7C590.48,-93.48 705.72,-81.37 803.64,-69 906.97,-55.95 932.75,-52.15 1035.64,-36 1043.54,-34.76 1051.79,-33.42 1060,-32.05"/>
<polygon fill="black" stroke="black" points="1060.7,-35.48 1069.98,-30.38 1059.54,-28.58 1060.7,-35.48"/>
<text text-anchor="middle" x="931.14" y="-57.8" font-family="Times New Roman,serif" font-size="14.00">0.021</text>
</g>
<!-- 14 -->
<g id="node15" class="node">
<title>14</title>
<g id="a_node15"><a xlink:href="computer sales support.svg" xlink:title="computer sales support">
<ellipse fill="none" stroke="black" cx="1337.64" cy="-18" rx="96.38" ry="18"/>
<text text-anchor="middle" x="1337.64" y="-14.3" font-family="Times New Roman,serif" font-size="14.00">computer sales support</text>
</a>
</g>
</g>
<!-- 1&#45;&gt;14 -->
<g id="edge19" class="edge">
<title>1&#45;&gt;14</title>
<path fill="none" stroke="black" d="M530.84,-101.27C613.4,-96.05 796.65,-83.81 950.64,-69 1076.25,-56.92 1107.66,-53.42 1232.64,-36 1241.15,-34.81 1250.02,-33.5 1258.86,-32.14"/>
<polygon fill="black" stroke="black" points="1259.46,-35.59 1268.8,-30.59 1258.38,-28.67 1259.46,-35.59"/>
<text text-anchor="middle" x="1107.14" y="-57.8" font-family="Times New Roman,serif" font-size="14.00">0.021</text>
</g>
<!-- 2 -->
<g id="node3" class="node">
<title>2</title>
<g id="a_node3"><a xlink:href="broadcasting presenter.svg" xlink:title="broadcasting presenter">
<ellipse fill="none" stroke="black" cx="320.64" cy="-192" rx="92.88" ry="18"/>
<text text-anchor="middle" x="320.64" y="-188.3" font-family="Times New Roman,serif" font-size="14.00">broadcasting presenter</text>
</a>
</g>
</g>
<!-- 2&#45;&gt;1 -->
<g id="edge2" class="edge">
<title>2&#45;&gt;1</title>
<path fill="none" stroke="black" d="M351.86,-175.01C380,-160.61 421.35,-139.43 450.82,-124.34"/>
<polygon fill="black" stroke="black" points="452.64,-127.34 459.94,-119.67 449.44,-121.11 452.64,-127.34"/>
<text text-anchor="middle" x="429.14" y="-144.8" font-family="Times New Roman,serif" font-size="14.00">0.057</text>
</g>
<!-- 3 -->
<g id="node4" class="node">
<title>3</title>
<g id="a_node4"><a xlink:href="it consultant.svg" xlink:title="it consultant">
<ellipse fill="none" stroke="black" cx="486.64" cy="-192" rx="54.69" ry="18"/>
<text text-anchor="middle" x="486.64" y="-188.3" font-family="Times New Roman,serif" font-size="14.00">it consultant</text>
</a>
</g>
</g>
<!-- 3&#45;&gt;1 -->
<g id="edge3" class="edge">
<title>3&#45;&gt;1</title>
<path fill="none" stroke="black" d="M486.64,-173.8C486.64,-162.16 486.64,-146.55 486.64,-133.24"/>
<polygon fill="black" stroke="black" points="490.14,-133.18 486.64,-123.18 483.14,-133.18 490.14,-133.18"/>
<text text-anchor="middle" x="502.14" y="-144.8" font-family="Times New Roman,serif" font-size="14.00">0.057</text>
</g>
<!-- 4&#45;&gt;1 -->
<g id="edge4" class="edge">
<title>4&#45;&gt;1</title>
<path fill="none" stroke="black" d="M196.81,-34.47C218.96,-45.62 250.49,-60.19 279.64,-69 330.72,-84.45 391.09,-93.68 433.41,-98.74"/>
<polygon fill="black" stroke="black" points="433.16,-102.24 443.5,-99.91 433.97,-95.28 433.16,-102.24"/>
<text text-anchor="middle" x="295.14" y="-57.8" font-family="Times New Roman,serif" font-size="14.00">0.057</text>
</g>
<!-- 5&#45;&gt;1 -->
<g id="edge5" class="edge">
<title>5&#45;&gt;1</title>
<path fill="none" stroke="black" d="M321.92,-33.09C340.64,-43.66 367.35,-58.12 391.64,-69 408.25,-76.43 426.96,-83.58 443.35,-89.45"/>
<polygon fill="black" stroke="black" points="442.63,-92.91 453.22,-92.94 444.96,-86.31 442.63,-92.91"/>
<text text-anchor="middle" x="407.14" y="-57.8" font-family="Times New Roman,serif" font-size="14.00">0.038</text>
</g>
<!-- 6 -->
<g id="node7" class="node">
<title>6</title>
<g id="a_node7"><a xlink:href="lecturer.svg" xlink:title="lecturer">
<ellipse fill="none" stroke="black" cx="596.64" cy="-192" rx="37.89" ry="18"/>
<text text-anchor="middle" x="596.64" y="-188.3" font-family="Times New Roman,serif" font-size="14.00">lecturer</text>
</a>
</g>
</g>
<!-- 6&#45;&gt;1 -->
<g id="edge6" class="edge">
<title>6&#45;&gt;1</title>
<path fill="none" stroke="black" d="M577.48,-176.19C560.03,-162.71 534.05,-142.64 514.34,-127.41"/>
<polygon fill="black" stroke="black" points="516.38,-124.55 506.32,-121.21 512.1,-130.09 516.38,-124.55"/>
<text text-anchor="middle" x="564.14" y="-144.8" font-family="Times New Roman,serif" font-size="14.00">0.028</text>
</g>
<!-- 7 -->
<g id="node8" class="node">
<title>7</title>
<g id="a_node8"><a xlink:href="legal executive.svg" xlink:title="legal executive">
<ellipse fill="none" stroke="black" cx="715.64" cy="-192" rx="63.09" ry="18"/>
<text text-anchor="middle" x="715.64" y="-188.3" font-family="Times New Roman,serif" font-size="14.00">legal executive</text>
</a>
</g>
</g>
<!-- 7&#45;&gt;1 -->
<g id="edge7" class="edge">
<title>7&#45;&gt;1</title>
<path fill="none" stroke="black" d="M679.56,-177.16C653.06,-167.03 616.16,-153.03 583.64,-141 565.67,-134.36 545.78,-127.15 528.71,-121.02"/>
<polygon fill="black" stroke="black" points="529.62,-117.62 519.02,-117.54 527.25,-124.21 529.62,-117.62"/>
<text text-anchor="middle" x="638.14" y="-144.8" font-family="Times New Roman,serif" font-size="14.00">0.028</text>
</g>
<!-- 8 -->
<g id="node9" class="node">
<title>8</title>
<g id="a_node9"><a xlink:href="marketing assistant.svg" xlink:title="marketing assistant">
<ellipse fill="none" stroke="black" cx="875.64" cy="-192" rx="79.09" ry="18"/>
<text text-anchor="middle" x="875.64" y="-188.3" font-family="Times New Roman,serif" font-size="14.00">marketing assistant</text>
</a>
</g>
</g>
<!-- 8&#45;&gt;1 -->
<g id="edge8" class="edge">
<title>8&#45;&gt;1</title>
<path fill="none" stroke="black" d="M822.86,-178.53C778.76,-168.19 714.18,-153.27 657.64,-141 616.85,-132.15 570.44,-122.69 536.28,-115.84"/>
<polygon fill="black" stroke="black" points="536.58,-112.33 526.09,-113.8 535.21,-119.19 536.58,-112.33"/>
<text text-anchor="middle" x="739.14" y="-144.8" font-family="Times New Roman,serif" font-size="14.00">0.028</text>
</g>
<!-- 9&#45;&gt;1 -->
<g id="edge9" class="edge">
<title>9&#45;&gt;1</title>
<path fill="none" stroke="black" d="M449.79,-35.52C454.98,-41.07 460.42,-47.52 464.64,-54 469.37,-61.26 473.53,-69.71 476.92,-77.58"/>
<polygon fill="black" stroke="black" points="473.78,-79.15 480.79,-87.09 480.27,-76.51 473.78,-79.15"/>
<text text-anchor="middle" x="489.14" y="-57.8" font-family="Times New Roman,serif" font-size="14.00">0.028</text>
</g>
</g>
</svg>
