<?xml version="1.0" encoding="UTF-8" standalone="no"?>
<!DOCTYPE svg PUBLIC "-//W3C//DTD SVG 1.1//EN"
 "http://www.w3.org/Graphics/SVG/1.1/DTD/svg11.dtd">
<!-- Generated by graphviz version 2.44.1 (20200629.0800)
 -->
<!-- Title: test Pages: 1 -->
<svg width="1564pt" height="218pt"
 viewBox="0.00 0.00 1564.29 218.00" xmlns="http://www.w3.org/2000/svg" xmlns:xlink="http://www.w3.org/1999/xlink">
<g id="graph0" class="graph" transform="scale(1 1) rotate(0) translate(4 214)">
<title>test</title>
<polygon fill="white" stroke="transparent" points="-4,4 -4,-214 1560.29,-214 1560.29,4 -4,4"/>
<!-- 0 -->
<g id="node1" class="node">
<title>0</title>
<g id="a_node1"><a xlink:href="aeronautical engineer.svg" xlink:title="aeronautical engineer">
<ellipse fill="none" stroke="black" cx="85.79" cy="-192" rx="85.59" ry="18"/>
<text text-anchor="middle" x="85.79" y="-188.3" font-family="Times New Roman,serif" font-size="14.00">aeronautical engineer</text>
</a>
</g>
</g>
<!-- 1 -->
<g id="node2" class="node">
<title>1</title>
<g id="a_node2"><a xlink:href="press sub-editor.svg" xlink:title="press sub&#45;editor">
<ellipse fill="none" stroke="black" cx="536.79" cy="-105" rx="69.59" ry="18"/>
<text text-anchor="middle" x="536.79" y="-101.3" font-family="Times New Roman,serif" font-size="14.00">press sub&#45;editor</text>
</a>
</g>
</g>
<!-- 0&#45;&gt;1 -->
<g id="edge1" class="edge">
<title>0&#45;&gt;1</title>
<path fill="none" stroke="black" d="M145.96,-179.13C198.23,-168.86 275.97,-153.72 343.79,-141 386.01,-133.08 433.48,-124.47 470.78,-117.77"/>
<polygon fill="black" stroke="black" points="471.79,-121.14 481.02,-115.93 470.56,-114.25 471.79,-121.14"/>
<text text-anchor="middle" x="359.29" y="-144.8" font-family="Times New Roman,serif" font-size="14.00">0.125</text>
</g>
<!-- 4 -->
<g id="node5" class="node">
<title>4</title>
<g id="a_node5"><a xlink:href="catering manager.svg" xlink:title="catering manager">
<ellipse fill="none" stroke="black" cx="77.79" cy="-18" rx="71.49" ry="18"/>
<text text-anchor="middle" x="77.79" y="-14.3" font-family="Times New Roman,serif" font-size="14.00">catering manager</text>
</a>
</g>
</g>
<!-- 1&#45;&gt;4 -->
<g id="edge10" class="edge">
<title>1&#45;&gt;4</title>
<path fill="none" stroke="black" d="M467.02,-104.78C393.43,-103.87 274.79,-97.43 176.79,-69 153.91,-62.36 130.01,-50.46 111.43,-39.93"/>
<polygon fill="black" stroke="black" points="113.17,-36.89 102.77,-34.9 109.66,-42.95 113.17,-36.89"/>
<text text-anchor="middle" x="192.29" y="-57.8" font-family="Times New Roman,serif" font-size="14.00">0.125</text>
</g>
<!-- 5 -->
<g id="node6" class="node">
<title>5</title>
<g id="a_node6"><a xlink:href="network administrator.svg" xlink:title="network administrator">
<ellipse fill="none" stroke="black" cx="256.79" cy="-18" rx="89.88" ry="18"/>
<text text-anchor="middle" x="256.79" y="-14.3" font-family="Times New Roman,serif" font-size="14.00">network administrator</text>
</a>
</g>
</g>
<!-- 1&#45;&gt;5 -->
<g id="edge14" class="edge">
<title>1&#45;&gt;5</title>
<path fill="none" stroke="black" d="M473.05,-97.67C435.25,-92.61 386.85,-83.83 345.79,-69 326.24,-61.94 305.93,-50.85 289.65,-40.91"/>
<polygon fill="black" stroke="black" points="291.39,-37.87 281.05,-35.54 287.68,-43.81 291.39,-37.87"/>
<text text-anchor="middle" x="361.29" y="-57.8" font-family="Times New Roman,serif" font-size="14.00">0.125</text>
</g>
<!-- 9 -->
<g id="node10" class="node">
<title>9</title>
<g id="a_node10"><a xlink:href="automotive engineer.svg" xlink:title="automotive engineer">
<ellipse fill="none" stroke="black" cx="447.79" cy="-18" rx="83.39" ry="18"/>
<text text-anchor="middle" x="447.79" y="-14.3" font-family="Times New Roman,serif" font-size="14.00">automotive engineer</text>
</a>
</g>
</g>
<!-- 1&#45;&gt;9 -->
<g id="edge9" class="edge">
<title>1&#45;&gt;9</title>
<path fill="none" stroke="black" d="M519.21,-87.21C505.92,-74.52 487.51,-56.93 472.7,-42.79"/>
<polygon fill="black" stroke="black" points="474.99,-40.13 465.34,-35.76 470.15,-45.2 474.99,-40.13"/>
<text text-anchor="middle" x="513.29" y="-57.8" font-family="Times New Roman,serif" font-size="14.00">0.125</text>
</g>
<!-- 10 -->
<g id="node11" class="node">
<title>10</title>
<g id="a_node11"><a xlink:href="clinical biochemist.svg" xlink:title="clinical biochemist">
<ellipse fill="none" stroke="black" cx="626.79" cy="-18" rx="77.19" ry="18"/>
<text text-anchor="middle" x="626.79" y="-14.3" font-family="Times New Roman,serif" font-size="14.00">clinical biochemist</text>
</a>
</g>
</g>
<!-- 1&#45;&gt;10 -->
<g id="edge11" class="edge">
<title>1&#45;&gt;10</title>
<path fill="none" stroke="black" d="M554.57,-87.21C568.01,-74.52 586.63,-56.93 601.6,-42.79"/>
<polygon fill="black" stroke="black" points="604.18,-45.17 609.05,-35.76 599.37,-40.08 604.18,-45.17"/>
<text text-anchor="middle" x="603.29" y="-57.8" font-family="Times New Roman,serif" font-size="14.00">0.125</text>
</g>
<!-- 11 -->
<g id="node12" class="node">
<title>11</title>
<g id="a_node12"><a xlink:href="education administrator.svg" xlink:title="education administrator">
<ellipse fill="none" stroke="black" cx="817.79" cy="-18" rx="95.58" ry="18"/>
<text text-anchor="middle" x="817.79" y="-14.3" font-family="Times New Roman,serif" font-size="14.00">education administrator</text>
</a>
</g>
</g>
<!-- 1&#45;&gt;11 -->
<g id="edge12" class="edge">
<title>1&#45;&gt;11</title>
<path fill="none" stroke="black" d="M580.08,-90.91C628.2,-76.35 706.15,-52.77 759.58,-36.61"/>
<polygon fill="black" stroke="black" points="760.7,-39.93 769.26,-33.68 758.68,-33.23 760.7,-39.93"/>
<text text-anchor="middle" x="710.29" y="-57.8" font-family="Times New Roman,serif" font-size="14.00">0.125</text>
</g>
<!-- 12 -->
<g id="node13" class="node">
<title>12</title>
<g id="a_node13"><a xlink:href="investment fund manager.svg" xlink:title="investment fund manager">
<ellipse fill="none" stroke="black" cx="1031.79" cy="-18" rx="100.98" ry="18"/>
<text text-anchor="middle" x="1031.79" y="-14.3" font-family="Times New Roman,serif" font-size="14.00">investment fund manager</text>
</a>
</g>
</g>
<!-- 1&#45;&gt;12 -->
<g id="edge13" class="edge">
<title>1&#45;&gt;12</title>
<path fill="none" stroke="black" d="M593.09,-94.33C680.92,-79.25 850.88,-50.07 951.52,-32.78"/>
<polygon fill="black" stroke="black" points="952.37,-36.19 961.64,-31.05 951.19,-29.29 952.37,-36.19"/>
<text text-anchor="middle" x="829.29" y="-57.8" font-family="Times New Roman,serif" font-size="14.00">0.125</text>
</g>
<!-- 13 -->
<g id="node14" class="node">
<title>13</title>
<g id="a_node14"><a xlink:href="public affairs consultant (lobbyist).svg" xlink:title="public affairs consultant (lobbyist)">
<ellipse fill="none" stroke="black" cx="1285.79" cy="-18" rx="135.38" ry="18"/>
<text text-anchor="middle" x="1285.79" y="-14.3" font-family="Times New Roman,serif" font-size="14.00">public affairs consultant (lobbyist)</text>
</a>
</g>
</g>
<!-- 1&#45;&gt;13 -->
<g id="edge15" class="edge">
<title>1&#45;&gt;13</title>
<path fill="none" stroke="black" d="M599.51,-97.07C709.4,-84.91 943.87,-58.83 1141.79,-36 1153.73,-34.62 1166.22,-33.17 1178.65,-31.71"/>
<polygon fill="black" stroke="black" points="1179.07,-35.19 1188.59,-30.55 1178.25,-28.24 1179.07,-35.19"/>
<text text-anchor="middle" x="990.29" y="-57.8" font-family="Times New Roman,serif" font-size="14.00">0.125</text>
</g>
<!-- 14 -->
<g id="node15" class="node">
<title>14</title>
<g id="a_node15"><a xlink:href="web designer.svg" xlink:title="web designer">
<ellipse fill="none" stroke="black" cx="1497.79" cy="-18" rx="58.49" ry="18"/>
<text text-anchor="middle" x="1497.79" y="-14.3" font-family="Times New Roman,serif" font-size="14.00">web designer</text>
</a>
</g>
</g>
<!-- 1&#45;&gt;14 -->
<g id="edge16" class="edge">
<title>1&#45;&gt;14</title>
<path fill="none" stroke="black" d="M605.89,-102.76C756.52,-99.19 1125.38,-85.66 1429.79,-36 1435.12,-35.13 1440.65,-34.05 1446.14,-32.86"/>
<polygon fill="black" stroke="black" points="1446.97,-36.26 1455.94,-30.62 1445.41,-29.44 1446.97,-36.26"/>
<text text-anchor="middle" x="1299.29" y="-57.8" font-family="Times New Roman,serif" font-size="14.00">0.125</text>
</g>
<!-- 2 -->
<g id="node3" class="node">
<title>2</title>
<g id="a_node3"><a xlink:href="barristers clerk.svg" xlink:title="barristers clerk">
<ellipse fill="none" stroke="black" cx="253.79" cy="-192" rx="64.19" ry="18"/>
<text text-anchor="middle" x="253.79" y="-188.3" font-family="Times New Roman,serif" font-size="14.00">barristers clerk</text>
</a>
</g>
</g>
<!-- 2&#45;&gt;1 -->
<g id="edge2" class="edge">
<title>2&#45;&gt;1</title>
<path fill="none" stroke="black" d="M295.85,-178.37C345.72,-163.39 428.89,-138.41 483.29,-122.07"/>
<polygon fill="black" stroke="black" points="484.53,-125.35 493.1,-119.12 482.52,-118.65 484.53,-125.35"/>
<text text-anchor="middle" x="428.29" y="-144.8" font-family="Times New Roman,serif" font-size="14.00">0.125</text>
</g>
<!-- 3 -->
<g id="node4" class="node">
<title>3</title>
<g id="a_node4"><a xlink:href="broadcasting presenter.svg" xlink:title="broadcasting presenter">
<ellipse fill="none" stroke="black" cx="428.79" cy="-192" rx="92.88" ry="18"/>
<text text-anchor="middle" x="428.79" y="-188.3" font-family="Times New Roman,serif" font-size="14.00">broadcasting presenter</text>
</a>
</g>
</g>
<!-- 3&#45;&gt;1 -->
<g id="edge3" class="edge">
<title>3&#45;&gt;1</title>
<path fill="none" stroke="black" d="M449.87,-174.41C466.48,-161.34 489.81,-142.98 508.12,-128.57"/>
<polygon fill="black" stroke="black" points="510.44,-131.2 516.13,-122.26 506.11,-125.69 510.44,-131.2"/>
<text text-anchor="middle" x="505.29" y="-144.8" font-family="Times New Roman,serif" font-size="14.00">0.125</text>
</g>
<!-- 4&#45;&gt;1 -->
<g id="edge4" class="edge">
<title>4&#45;&gt;1</title>
<path fill="none" stroke="black" d="M123.54,-31.97C163.88,-43.04 224.37,-58.74 277.79,-69 339.93,-80.93 411.23,-90.25 463.27,-96.26"/>
<polygon fill="black" stroke="black" points="463.08,-99.76 473.41,-97.42 463.87,-92.81 463.08,-99.76"/>
<text text-anchor="middle" x="293.29" y="-57.8" font-family="Times New Roman,serif" font-size="14.00">0.125</text>
</g>
<!-- 5&#45;&gt;1 -->
<g id="edge5" class="edge">
<title>5&#45;&gt;1</title>
<path fill="none" stroke="black" d="M304.08,-33.36C353.8,-48.45 431.87,-72.15 483.67,-87.87"/>
<polygon fill="black" stroke="black" points="482.76,-91.26 493.35,-90.81 484.8,-84.56 482.76,-91.26"/>
<text text-anchor="middle" x="429.29" y="-57.8" font-family="Times New Roman,serif" font-size="14.00">0.125</text>
</g>
<!-- 6 -->
<g id="node7" class="node">
<title>6</title>
<g id="a_node7"><a xlink:href="pharmacovigilance officer.svg" xlink:title="pharmacovigilance officer">
<ellipse fill="none" stroke="black" cx="644.79" cy="-192" rx="104.78" ry="18"/>
<text text-anchor="middle" x="644.79" y="-188.3" font-family="Times New Roman,serif" font-size="14.00">pharmacovigilance officer</text>
</a>
</g>
</g>
<!-- 6&#45;&gt;1 -->
<g id="edge6" class="edge">
<title>6&#45;&gt;1</title>
<path fill="none" stroke="black" d="M623.46,-174.21C606.93,-161.2 583.87,-143.05 565.69,-128.74"/>
<polygon fill="black" stroke="black" points="567.74,-125.9 557.72,-122.47 563.41,-131.4 567.74,-125.9"/>
<text text-anchor="middle" x="613.29" y="-144.8" font-family="Times New Roman,serif" font-size="14.00">0.125</text>
</g>
<!-- 7 -->
<g id="node8" class="node">
<title>7</title>
<g id="a_node8"><a xlink:href="physiotherapist.svg" xlink:title="physiotherapist">
<ellipse fill="none" stroke="black" cx="832.79" cy="-192" rx="65.79" ry="18"/>
<text text-anchor="middle" x="832.79" y="-188.3" font-family="Times New Roman,serif" font-size="14.00">physiotherapist</text>
</a>
</g>
</g>
<!-- 7&#45;&gt;1 -->
<g id="edge7" class="edge">
<title>7&#45;&gt;1</title>
<path fill="none" stroke="black" d="M789.12,-178.46C736.63,-163.38 648.51,-138.08 591.53,-121.72"/>
<polygon fill="black" stroke="black" points="592.2,-118.27 581.62,-118.87 590.26,-125 592.2,-118.27"/>
<text text-anchor="middle" x="717.29" y="-144.8" font-family="Times New Roman,serif" font-size="14.00">0.125</text>
</g>
<!-- 8 -->
<g id="node9" class="node">
<title>8</title>
<g id="a_node9"><a xlink:href="set designer.svg" xlink:title="set designer">
<ellipse fill="none" stroke="black" cx="970.79" cy="-192" rx="53.89" ry="18"/>
<text text-anchor="middle" x="970.79" y="-188.3" font-family="Times New Roman,serif" font-size="14.00">set designer</text>
</a>
</g>
</g>
<!-- 8&#45;&gt;1 -->
<g id="edge8" class="edge">
<title>8&#45;&gt;1</title>
<path fill="none" stroke="black" d="M930.91,-179.77C923.26,-177.75 915.3,-175.73 907.79,-174 802.98,-149.78 679.92,-128.64 605.18,-116.61"/>
<polygon fill="black" stroke="black" points="605.39,-113.09 594.97,-114.97 604.29,-120.01 605.39,-113.09"/>
<text text-anchor="middle" x="831.29" y="-144.8" font-family="Times New Roman,serif" font-size="14.00">0.125</text>
</g>
</g>
</svg>
