<?xml version="1.0" encoding="UTF-8" standalone="no"?>
<!DOCTYPE svg PUBLIC "-//W3C//DTD SVG 1.1//EN"
 "http://www.w3.org/Graphics/SVG/1.1/DTD/svg11.dtd">
<!-- Generated by graphviz version 2.44.1 (20200629.0800)
 -->
<!-- Title: press_editor Pages: 1 -->
<svg width="1283pt" height="218pt"
 viewBox="0.00 0.00 1283.34 218.00" xmlns="http://www.w3.org/2000/svg" xmlns:xlink="http://www.w3.org/1999/xlink">
<g id="graph0" class="graph" transform="scale(1 1) rotate(0) translate(4 214)">
<title>press_editor</title>
<polygon fill="white" stroke="transparent" points="-4,4 -4,-214 1279.34,-214 1279.34,4 -4,4"/>
<!-- 0 -->
<g id="node1" class="node">
<title>0</title>
<g id="a_node1"><a xlink:href="journalist.svg" xlink:title="journalist">
<ellipse fill="none" stroke="black" cx="43.55" cy="-192" rx="43.59" ry="18"/>
<text text-anchor="middle" x="43.55" y="-188.3" font-family="Times New Roman,serif" font-size="14.00">journalist</text>
</a>
</g>
</g>
<!-- 1 -->
<g id="node2" class="node">
<title>1</title>
<g id="a_node2"><a xlink:href="press editor.svg" xlink:title="press editor">
<ellipse fill="none" stroke="black" cx="481.55" cy="-105" rx="53.89" ry="18"/>
<text text-anchor="middle" x="481.55" y="-101.3" font-family="Times New Roman,serif" font-size="14.00">press editor</text>
</a>
</g>
</g>
<!-- 0&#45;&gt;1 -->
<g id="edge1" class="edge">
<title>0&#45;&gt;1</title>
<path fill="none" stroke="black" d="M51,-174.06C56.98,-162.66 66.53,-148.4 79.55,-141 135.58,-109.16 318.72,-105.01 417.32,-105.19"/>
<polygon fill="black" stroke="black" points="417.44,-108.69 427.46,-105.23 417.47,-101.69 417.44,-108.69"/>
<text text-anchor="middle" x="95.05" y="-144.8" font-family="Times New Roman,serif" font-size="14.00">0.117</text>
</g>
<!-- 1&#45;&gt;0 -->
<g id="edge15" class="edge">
<title>1&#45;&gt;0</title>
<path fill="none" stroke="black" d="M432.33,-112.39C358.51,-122.49 215.03,-144.11 95.55,-174 92.17,-174.84 88.7,-175.79 85.23,-176.8"/>
<polygon fill="black" stroke="black" points="84.06,-173.5 75.52,-179.76 86.1,-180.2 84.06,-173.5"/>
<text text-anchor="middle" x="259.05" y="-144.8" font-family="Times New Roman,serif" font-size="14.00">0.068</text>
</g>
<!-- 1&#45;&gt;1 -->
<g id="edge10" class="edge">
<title>1&#45;&gt;1</title>
<path fill="none" stroke="black" d="M530.3,-112.82C543.47,-112.4 553.49,-109.8 553.49,-105 553.49,-101.55 548.32,-99.23 540.51,-98.05"/>
<polygon fill="black" stroke="black" points="540.56,-94.54 530.3,-97.18 539.97,-101.52 540.56,-94.54"/>
<text text-anchor="middle" x="568.99" y="-101.3" font-family="Times New Roman,serif" font-size="14.00">0.206</text>
</g>
<!-- 3 -->
<g id="node4" class="node">
<title>3</title>
<g id="a_node4"><a xlink:href="commissioning editor.svg" xlink:title="commissioning editor">
<ellipse fill="none" stroke="black" cx="182.55" cy="-18" rx="89.08" ry="18"/>
<text text-anchor="middle" x="182.55" y="-14.3" font-family="Times New Roman,serif" font-size="14.00">commissioning editor</text>
</a>
</g>
</g>
<!-- 1&#45;&gt;3 -->
<g id="edge12" class="edge">
<title>1&#45;&gt;3</title>
<path fill="none" stroke="black" d="M428.49,-101.26C363.73,-97.15 258.61,-87.77 224.55,-69 214.06,-63.22 205.07,-53.69 198.13,-44.5"/>
<polygon fill="black" stroke="black" points="200.97,-42.44 192.36,-36.26 195.24,-46.46 200.97,-42.44"/>
<text text-anchor="middle" x="240.05" y="-57.8" font-family="Times New Roman,serif" font-size="14.00">0.103</text>
</g>
<!-- 5 -->
<g id="node6" class="node">
<title>5</title>
<g id="a_node6"><a xlink:href="writer.svg" xlink:title="writer">
<ellipse fill="none" stroke="black" cx="320.55" cy="-18" rx="31.4" ry="18"/>
<text text-anchor="middle" x="320.55" y="-14.3" font-family="Times New Roman,serif" font-size="14.00">writer</text>
</a>
</g>
</g>
<!-- 1&#45;&gt;5 -->
<g id="edge11" class="edge">
<title>1&#45;&gt;5</title>
<path fill="none" stroke="black" d="M428.61,-101.07C400.97,-97.11 368.09,-88.3 344.55,-69 337.19,-62.97 331.93,-54.14 328.26,-45.58"/>
<polygon fill="black" stroke="black" points="331.53,-44.33 324.75,-36.19 324.97,-46.78 331.53,-44.33"/>
<text text-anchor="middle" x="360.05" y="-57.8" font-family="Times New Roman,serif" font-size="14.00">0.137</text>
</g>
<!-- 10 -->
<g id="node11" class="node">
<title>10</title>
<g id="a_node11"><a xlink:href="curator.svg" xlink:title="curator">
<ellipse fill="none" stroke="black" cx="406.55" cy="-18" rx="36.29" ry="18"/>
<text text-anchor="middle" x="406.55" y="-14.3" font-family="Times New Roman,serif" font-size="14.00">curator</text>
</a>
</g>
</g>
<!-- 1&#45;&gt;10 -->
<g id="edge13" class="edge">
<title>1&#45;&gt;10</title>
<path fill="none" stroke="black" d="M467.09,-87.61C455.74,-74.75 439.79,-56.68 427.11,-42.31"/>
<polygon fill="black" stroke="black" points="429.7,-39.95 420.46,-34.76 424.45,-44.58 429.7,-39.95"/>
<text text-anchor="middle" x="464.05" y="-57.8" font-family="Times New Roman,serif" font-size="14.00">0.068</text>
</g>
<!-- 11 -->
<g id="node12" class="node">
<title>11</title>
<g id="a_node12"><a xlink:href="financial manager.svg" xlink:title="financial manager">
<ellipse fill="none" stroke="black" cx="534.55" cy="-18" rx="73.39" ry="18"/>
<text text-anchor="middle" x="534.55" y="-14.3" font-family="Times New Roman,serif" font-size="14.00">financial manager</text>
</a>
</g>
</g>
<!-- 1&#45;&gt;11 -->
<g id="edge14" class="edge">
<title>1&#45;&gt;11</title>
<path fill="none" stroke="black" d="M492.02,-87.21C499.59,-75.06 509.96,-58.43 518.56,-44.63"/>
<polygon fill="black" stroke="black" points="521.59,-46.39 523.92,-36.05 515.65,-42.68 521.59,-46.39"/>
<text text-anchor="middle" x="527.05" y="-57.8" font-family="Times New Roman,serif" font-size="14.00">0.068</text>
</g>
<!-- 12 -->
<g id="node13" class="node">
<title>12</title>
<g id="a_node13"><a xlink:href="production manager.svg" xlink:title="production manager">
<ellipse fill="none" stroke="black" cx="709.55" cy="-18" rx="83.39" ry="18"/>
<text text-anchor="middle" x="709.55" y="-14.3" font-family="Times New Roman,serif" font-size="14.00">production manager</text>
</a>
</g>
</g>
<!-- 1&#45;&gt;12 -->
<g id="edge16" class="edge">
<title>1&#45;&gt;12</title>
<path fill="none" stroke="black" d="M516.17,-91.09C554.51,-76.8 616.62,-53.64 660.07,-37.44"/>
<polygon fill="black" stroke="black" points="661.45,-40.67 669.59,-33.89 659,-34.11 661.45,-40.67"/>
<text text-anchor="middle" x="625.05" y="-57.8" font-family="Times New Roman,serif" font-size="14.00">0.068</text>
</g>
<!-- 13 -->
<g id="node14" class="node">
<title>13</title>
<g id="a_node14"><a xlink:href="automotive engineer.svg" xlink:title="automotive engineer">
<ellipse fill="none" stroke="black" cx="893.55" cy="-18" rx="83.39" ry="18"/>
<text text-anchor="middle" x="893.55" y="-14.3" font-family="Times New Roman,serif" font-size="14.00">automotive engineer</text>
</a>
</g>
</g>
<!-- 1&#45;&gt;13 -->
<g id="edge17" class="edge">
<title>1&#45;&gt;13</title>
<path fill="none" stroke="black" d="M526.42,-94.74C598.57,-79.86 740.82,-50.51 825.51,-33.04"/>
<polygon fill="black" stroke="black" points="826.45,-36.42 835.54,-30.97 825.04,-29.56 826.45,-36.42"/>
<text text-anchor="middle" x="728.05" y="-57.8" font-family="Times New Roman,serif" font-size="14.00">0.034</text>
</g>
<!-- 14 -->
<g id="node15" class="node">
<title>14</title>
<g id="a_node15"><a xlink:href="catering manager.svg" xlink:title="catering manager">
<ellipse fill="none" stroke="black" cx="1066.55" cy="-18" rx="71.49" ry="18"/>
<text text-anchor="middle" x="1066.55" y="-14.3" font-family="Times New Roman,serif" font-size="14.00">catering manager</text>
</a>
</g>
</g>
<!-- 1&#45;&gt;14 -->
<g id="edge18" class="edge">
<title>1&#45;&gt;14</title>
<path fill="none" stroke="black" d="M532.18,-98.47C623.22,-88.23 820.49,-64.73 985.55,-36 991.68,-34.93 998.05,-33.74 1004.41,-32.49"/>
<polygon fill="black" stroke="black" points="1005.24,-35.9 1014.36,-30.51 1003.87,-29.03 1005.24,-35.9"/>
<text text-anchor="middle" x="877.05" y="-57.8" font-family="Times New Roman,serif" font-size="14.00">0.034</text>
</g>
<!-- 15 -->
<g id="node16" class="node">
<title>15</title>
<g id="a_node16"><a xlink:href="food scientist.svg" xlink:title="food scientist">
<ellipse fill="none" stroke="black" cx="1215.55" cy="-18" rx="59.59" ry="18"/>
<text text-anchor="middle" x="1215.55" y="-14.3" font-family="Times New Roman,serif" font-size="14.00">food scientist</text>
</a>
</g>
</g>
<!-- 1&#45;&gt;15 -->
<g id="edge19" class="edge">
<title>1&#45;&gt;15</title>
<path fill="none" stroke="black" d="M534.57,-101.62C647.81,-95.89 921.31,-78.48 1146.55,-36 1151.64,-35.04 1156.93,-33.93 1162.2,-32.76"/>
<polygon fill="black" stroke="black" points="1163.32,-36.09 1172.27,-30.44 1161.74,-29.27 1163.32,-36.09"/>
<text text-anchor="middle" x="1054.05" y="-57.8" font-family="Times New Roman,serif" font-size="14.00">0.034</text>
</g>
<!-- 2 -->
<g id="node3" class="node">
<title>2</title>
<g id="a_node3"><a xlink:href="broadcasting presenter.svg" xlink:title="broadcasting presenter">
<ellipse fill="none" stroke="black" cx="197.55" cy="-192" rx="92.88" ry="18"/>
<text text-anchor="middle" x="197.55" y="-188.3" font-family="Times New Roman,serif" font-size="14.00">broadcasting presenter</text>
</a>
</g>
</g>
<!-- 2&#45;&gt;1 -->
<g id="edge2" class="edge">
<title>2&#45;&gt;1</title>
<path fill="none" stroke="black" d="M245.72,-176.58C297.91,-160.96 380.69,-136.19 433.01,-120.53"/>
<polygon fill="black" stroke="black" points="434.16,-123.84 442.73,-117.62 432.15,-117.13 434.16,-123.84"/>
<text text-anchor="middle" x="373.05" y="-144.8" font-family="Times New Roman,serif" font-size="14.00">0.088</text>
</g>
<!-- 3&#45;&gt;1 -->
<g id="edge3" class="edge">
<title>3&#45;&gt;1</title>
<path fill="none" stroke="black" d="M214.34,-34.94C237.26,-45.88 269.2,-59.99 298.55,-69 339.1,-81.46 386.14,-90.34 422.37,-96.04"/>
<polygon fill="black" stroke="black" points="421.88,-99.5 432.29,-97.56 422.94,-92.58 421.88,-99.5"/>
<text text-anchor="middle" x="314.05" y="-57.8" font-family="Times New Roman,serif" font-size="14.00">0.058</text>
</g>
<!-- 4 -->
<g id="node5" class="node">
<title>4</title>
<g id="a_node5"><a xlink:href="marketing assistant.svg" xlink:title="marketing assistant">
<ellipse fill="none" stroke="black" cx="387.55" cy="-192" rx="79.09" ry="18"/>
<text text-anchor="middle" x="387.55" y="-188.3" font-family="Times New Roman,serif" font-size="14.00">marketing assistant</text>
</a>
</g>
</g>
<!-- 4&#45;&gt;1 -->
<g id="edge4" class="edge">
<title>4&#45;&gt;1</title>
<path fill="none" stroke="black" d="M406.12,-174.21C420.33,-161.35 440.11,-143.47 455.84,-129.24"/>
<polygon fill="black" stroke="black" points="458.58,-131.48 463.65,-122.18 453.89,-126.29 458.58,-131.48"/>
<text text-anchor="middle" x="456.05" y="-144.8" font-family="Times New Roman,serif" font-size="14.00">0.058</text>
</g>
<!-- 5&#45;&gt;1 -->
<g id="edge5" class="edge">
<title>5&#45;&gt;1</title>
<path fill="none" stroke="black" d="M340.83,-31.71C357.85,-42.18 382.94,-57.18 405.55,-69 416.71,-74.84 429.03,-80.73 440.45,-85.98"/>
<polygon fill="black" stroke="black" points="439.22,-89.27 449.77,-90.22 442.12,-82.9 439.22,-89.27"/>
<text text-anchor="middle" x="421.05" y="-57.8" font-family="Times New Roman,serif" font-size="14.00">0.058</text>
</g>
<!-- 6 -->
<g id="node7" class="node">
<title>6</title>
<g id="a_node7"><a xlink:href="advertising copywriter.svg" xlink:title="advertising copywriter">
<ellipse fill="none" stroke="black" cx="575.55" cy="-192" rx="90.98" ry="18"/>
<text text-anchor="middle" x="575.55" y="-188.3" font-family="Times New Roman,serif" font-size="14.00">advertising copywriter</text>
</a>
</g>
</g>
<!-- 6&#45;&gt;1 -->
<g id="edge6" class="edge">
<title>6&#45;&gt;1</title>
<path fill="none" stroke="black" d="M556.97,-174.21C542.76,-161.35 522.99,-143.47 507.25,-129.24"/>
<polygon fill="black" stroke="black" points="509.21,-126.29 499.44,-122.18 504.51,-131.48 509.21,-126.29"/>
<text text-anchor="middle" x="550.05" y="-144.8" font-family="Times New Roman,serif" font-size="14.00">0.029</text>
</g>
<!-- 7 -->
<g id="node8" class="node">
<title>7</title>
<g id="a_node8"><a xlink:href="aeronautical engineer.svg" xlink:title="aeronautical engineer">
<ellipse fill="none" stroke="black" cx="770.55" cy="-192" rx="85.59" ry="18"/>
<text text-anchor="middle" x="770.55" y="-188.3" font-family="Times New Roman,serif" font-size="14.00">aeronautical engineer</text>
</a>
</g>
</g>
<!-- 7&#45;&gt;1 -->
<g id="edge7" class="edge">
<title>7&#45;&gt;1</title>
<path fill="none" stroke="black" d="M722.82,-176.96C669.55,-161.29 583.79,-136.07 530.15,-120.3"/>
<polygon fill="black" stroke="black" points="531.11,-116.93 520.53,-117.46 529.13,-123.64 531.11,-116.93"/>
<text text-anchor="middle" x="659.05" y="-144.8" font-family="Times New Roman,serif" font-size="14.00">0.029</text>
</g>
<!-- 8 -->
<g id="node9" class="node">
<title>8</title>
<g id="a_node9"><a xlink:href="armed forces officer.svg" xlink:title="armed forces officer">
<ellipse fill="none" stroke="black" cx="959.55" cy="-192" rx="85.29" ry="18"/>
<text text-anchor="middle" x="959.55" y="-188.3" font-family="Times New Roman,serif" font-size="14.00">armed forces officer</text>
</a>
</g>
</g>
<!-- 8&#45;&gt;1 -->
<g id="edge8" class="edge">
<title>8&#45;&gt;1</title>
<path fill="none" stroke="black" d="M897.11,-179.67C886.57,-177.77 875.75,-175.83 865.55,-174 749.38,-153.21 613.39,-129.21 538.42,-116"/>
<polygon fill="black" stroke="black" points="538.71,-112.5 528.25,-114.21 537.5,-119.4 538.71,-112.5"/>
<text text-anchor="middle" x="775.05" y="-144.8" font-family="Times New Roman,serif" font-size="14.00">0.029</text>
</g>
<!-- 9 -->
<g id="node10" class="node">
<title>9</title>
<g id="a_node10"><a xlink:href="auditor.svg" xlink:title="auditor">
<ellipse fill="none" stroke="black" cx="1099.55" cy="-192" rx="36.29" ry="18"/>
<text text-anchor="middle" x="1099.55" y="-188.3" font-family="Times New Roman,serif" font-size="14.00">auditor</text>
</a>
</g>
</g>
<!-- 9&#45;&gt;1 -->
<g id="edge9" class="edge">
<title>9&#45;&gt;1</title>
<path fill="none" stroke="black" d="M1072.13,-179.71C1066.09,-177.55 1059.67,-175.5 1053.55,-174 872.36,-129.59 651.52,-113.8 545.01,-108.49"/>
<polygon fill="black" stroke="black" points="544.92,-104.99 534.76,-108 544.58,-111.98 544.92,-104.99"/>
<text text-anchor="middle" x="976.05" y="-144.8" font-family="Times New Roman,serif" font-size="14.00">0.029</text>
</g>
</g>
</svg>
