<?xml version="1.0" encoding="UTF-8" standalone="no"?>
<!DOCTYPE svg PUBLIC "-//W3C//DTD SVG 1.1//EN"
 "http://www.w3.org/Graphics/SVG/1.1/DTD/svg11.dtd">
<!-- Generated by graphviz version 2.44.1 (20200629.0800)
 -->
<!-- Title: test Pages: 1 -->
<svg width="1375pt" height="218pt"
 viewBox="0.00 0.00 1375.39 218.00" xmlns="http://www.w3.org/2000/svg" xmlns:xlink="http://www.w3.org/1999/xlink">
<g id="graph0" class="graph" transform="scale(1 1) rotate(0) translate(4 214)">
<title>test</title>
<polygon fill="white" stroke="transparent" points="-4,4 -4,-214 1371.39,-214 1371.39,4 -4,4"/>
<!-- 0 -->
<g id="node1" class="node">
<title>0</title>
<g id="a_node1"><a xlink:href="teacher.svg" xlink:title="teacher">
<ellipse fill="none" stroke="black" cx="36.4" cy="-192" rx="36.29" ry="18"/>
<text text-anchor="middle" x="36.4" y="-188.3" font-family="Times New Roman,serif" font-size="14.00">teacher</text>
</a>
</g>
</g>
<!-- 1 -->
<g id="node2" class="node">
<title>1</title>
<g id="a_node2"><a xlink:href="private music teacher.svg" xlink:title="private music teacher">
<ellipse fill="none" stroke="black" cx="455.4" cy="-105" rx="87.18" ry="18"/>
<text text-anchor="middle" x="455.4" y="-101.3" font-family="Times New Roman,serif" font-size="14.00">private music teacher</text>
</a>
</g>
</g>
<!-- 0&#45;&gt;1 -->
<g id="edge1" class="edge">
<title>0&#45;&gt;1</title>
<path fill="none" stroke="black" d="M42.89,-174.11C48.2,-162.73 56.9,-148.47 69.4,-141 116.39,-112.9 259.63,-106.38 357.75,-105.36"/>
<polygon fill="black" stroke="black" points="358.02,-108.86 367.99,-105.27 357.96,-101.86 358.02,-108.86"/>
<text text-anchor="middle" x="84.9" y="-144.8" font-family="Times New Roman,serif" font-size="14.00">0.081</text>
</g>
<!-- 1&#45;&gt;0 -->
<g id="edge19" class="edge">
<title>1&#45;&gt;0</title>
<path fill="none" stroke="black" d="M383.17,-115.17C307.2,-125.73 184.58,-145.38 81.4,-174 78.77,-174.73 76.08,-175.55 73.39,-176.42"/>
<polygon fill="black" stroke="black" points="72.04,-173.19 63.74,-179.77 74.34,-179.8 72.04,-173.19"/>
<text text-anchor="middle" x="239.9" y="-144.8" font-family="Times New Roman,serif" font-size="14.00">0.042</text>
</g>
<!-- 1&#45;&gt;1 -->
<g id="edge13" class="edge">
<title>1&#45;&gt;1</title>
<path fill="none" stroke="black" d="M534.68,-112.5C549.8,-111.6 560.49,-109.1 560.49,-105 560.49,-101.89 554.35,-99.7 544.8,-98.44"/>
<polygon fill="black" stroke="black" points="544.96,-94.94 534.68,-97.5 544.32,-101.91 544.96,-94.94"/>
<text text-anchor="middle" x="575.99" y="-101.3" font-family="Times New Roman,serif" font-size="14.00">0.042</text>
</g>
<!-- 3 -->
<g id="node4" class="node">
<title>3</title>
<g id="a_node4"><a xlink:href="lecturer.svg" xlink:title="lecturer">
<ellipse fill="none" stroke="black" cx="92.4" cy="-18" rx="37.89" ry="18"/>
<text text-anchor="middle" x="92.4" y="-14.3" font-family="Times New Roman,serif" font-size="14.00">lecturer</text>
</a>
</g>
</g>
<!-- 1&#45;&gt;3 -->
<g id="edge12" class="edge">
<title>1&#45;&gt;3</title>
<path fill="none" stroke="black" d="M371.51,-100.14C294.61,-95.57 187.01,-86.3 148.4,-69 134.75,-62.89 122.08,-52.21 112.26,-42.28"/>
<polygon fill="black" stroke="black" points="114.74,-39.81 105.34,-34.93 109.65,-44.61 114.74,-39.81"/>
<text text-anchor="middle" x="163.9" y="-57.8" font-family="Times New Roman,serif" font-size="14.00">0.042</text>
</g>
<!-- 5 -->
<g id="node6" class="node">
<title>5</title>
<g id="a_node6"><a xlink:href="teaching assistant.svg" xlink:title="teaching assistant">
<ellipse fill="none" stroke="black" cx="221.4" cy="-18" rx="73.39" ry="18"/>
<text text-anchor="middle" x="221.4" y="-14.3" font-family="Times New Roman,serif" font-size="14.00">teaching assistant</text>
</a>
</g>
</g>
<!-- 1&#45;&gt;5 -->
<g id="edge10" class="edge">
<title>1&#45;&gt;5</title>
<path fill="none" stroke="black" d="M381.39,-95.32C351.88,-90.1 318.16,-81.88 289.4,-69 274.29,-62.24 259.28,-51.71 247.22,-42.06"/>
<polygon fill="black" stroke="black" points="249.31,-39.25 239.38,-35.57 244.85,-44.64 249.31,-39.25"/>
<text text-anchor="middle" x="304.9" y="-57.8" font-family="Times New Roman,serif" font-size="14.00">0.085</text>
</g>
<!-- 10 -->
<g id="node11" class="node">
<title>10</title>
<g id="a_node11"><a xlink:href="media planner.svg" xlink:title="media planner">
<ellipse fill="none" stroke="black" cx="374.4" cy="-18" rx="61.19" ry="18"/>
<text text-anchor="middle" x="374.4" y="-14.3" font-family="Times New Roman,serif" font-size="14.00">media planner</text>
</a>
</g>
</g>
<!-- 1&#45;&gt;10 -->
<g id="edge11" class="edge">
<title>1&#45;&gt;10</title>
<path fill="none" stroke="black" d="M439.39,-87.21C427.33,-74.55 410.63,-57.03 397.18,-42.91"/>
<polygon fill="black" stroke="black" points="399.52,-40.29 390.09,-35.47 394.46,-45.12 399.52,-40.29"/>
<text text-anchor="middle" x="435.9" y="-57.8" font-family="Times New Roman,serif" font-size="14.00">0.063</text>
</g>
<!-- 11 -->
<g id="node12" class="node">
<title>11</title>
<g id="a_node12"><a xlink:href="production manager.svg" xlink:title="production manager">
<ellipse fill="none" stroke="black" cx="536.4" cy="-18" rx="83.39" ry="18"/>
<text text-anchor="middle" x="536.4" y="-14.3" font-family="Times New Roman,serif" font-size="14.00">production manager</text>
</a>
</g>
</g>
<!-- 1&#45;&gt;11 -->
<g id="edge14" class="edge">
<title>1&#45;&gt;11</title>
<path fill="none" stroke="black" d="M471.4,-87.21C483.38,-74.63 499.94,-57.25 513.35,-43.18"/>
<polygon fill="black" stroke="black" points="516.06,-45.41 520.43,-35.76 510.99,-40.58 516.06,-45.41"/>
<text text-anchor="middle" x="516.9" y="-57.8" font-family="Times New Roman,serif" font-size="14.00">0.042</text>
</g>
<!-- 12 -->
<g id="node13" class="node">
<title>12</title>
<g id="a_node13"><a xlink:href="project manager.svg" xlink:title="project manager">
<ellipse fill="none" stroke="black" cx="706.4" cy="-18" rx="68.79" ry="18"/>
<text text-anchor="middle" x="706.4" y="-14.3" font-family="Times New Roman,serif" font-size="14.00">project manager</text>
</a>
</g>
</g>
<!-- 1&#45;&gt;12 -->
<g id="edge15" class="edge">
<title>1&#45;&gt;12</title>
<path fill="none" stroke="black" d="M498.83,-89.29C542.71,-74.43 610.44,-51.5 656.5,-35.9"/>
<polygon fill="black" stroke="black" points="657.63,-39.21 665.98,-32.69 655.39,-32.58 657.63,-39.21"/>
<text text-anchor="middle" x="611.9" y="-57.8" font-family="Times New Roman,serif" font-size="14.00">0.042</text>
</g>
<!-- 13 -->
<g id="node14" class="node">
<title>13</title>
<g id="a_node14"><a xlink:href="research scientist.svg" xlink:title="research scientist">
<ellipse fill="none" stroke="black" cx="866.4" cy="-18" rx="72.59" ry="18"/>
<text text-anchor="middle" x="866.4" y="-14.3" font-family="Times New Roman,serif" font-size="14.00">research scientist</text>
</a>
</g>
</g>
<!-- 1&#45;&gt;13 -->
<g id="edge16" class="edge">
<title>1&#45;&gt;13</title>
<path fill="none" stroke="black" d="M516.53,-92.05C550.4,-85.38 593.25,-76.85 631.4,-69 689.95,-56.95 756.59,-42.72 803.91,-32.53"/>
<polygon fill="black" stroke="black" points="804.67,-35.95 813.71,-30.42 803.19,-29.11 804.67,-35.95"/>
<text text-anchor="middle" x="718.9" y="-57.8" font-family="Times New Roman,serif" font-size="14.00">0.042</text>
</g>
<!-- 14 -->
<g id="node15" class="node">
<title>14</title>
<g id="a_node15"><a xlink:href="speech and language therapist.svg" xlink:title="speech and language therapist">
<ellipse fill="none" stroke="black" cx="1075.4" cy="-18" rx="118.08" ry="18"/>
<text text-anchor="middle" x="1075.4" y="-14.3" font-family="Times New Roman,serif" font-size="14.00">speech and language therapist</text>
</a>
</g>
</g>
<!-- 1&#45;&gt;14 -->
<g id="edge17" class="edge">
<title>1&#45;&gt;14</title>
<path fill="none" stroke="black" d="M529.05,-95.39C586.2,-88.58 667.39,-78.66 738.4,-69 822.29,-57.59 917.74,-43.31 985.58,-32.93"/>
<polygon fill="black" stroke="black" points="986.45,-36.34 995.81,-31.36 985.39,-29.42 986.45,-36.34"/>
<text text-anchor="middle" x="855.9" y="-57.8" font-family="Times New Roman,serif" font-size="14.00">0.042</text>
</g>
<!-- 15 -->
<g id="node16" class="node">
<title>15</title>
<g id="a_node16"><a xlink:href="systems developer.svg" xlink:title="systems developer">
<ellipse fill="none" stroke="black" cx="1289.4" cy="-18" rx="77.99" ry="18"/>
<text text-anchor="middle" x="1289.4" y="-14.3" font-family="Times New Roman,serif" font-size="14.00">systems developer</text>
</a>
</g>
</g>
<!-- 1&#45;&gt;15 -->
<g id="edge18" class="edge">
<title>1&#45;&gt;15</title>
<path fill="none" stroke="black" d="M538.38,-99.49C676.64,-91.3 962.62,-71.45 1202.4,-36 1209.41,-34.96 1216.72,-33.75 1223.98,-32.46"/>
<polygon fill="black" stroke="black" points="1224.63,-35.9 1233.83,-30.65 1223.37,-29.01 1224.63,-35.9"/>
<text text-anchor="middle" x="1074.9" y="-57.8" font-family="Times New Roman,serif" font-size="14.00">0.042</text>
</g>
<!-- 2 -->
<g id="node3" class="node">
<title>2</title>
<g id="a_node3"><a xlink:href="education administrator.svg" xlink:title="education administrator">
<ellipse fill="none" stroke="black" cx="186.4" cy="-192" rx="95.58" ry="18"/>
<text text-anchor="middle" x="186.4" y="-188.3" font-family="Times New Roman,serif" font-size="14.00">education administrator</text>
</a>
</g>
</g>
<!-- 2&#45;&gt;1 -->
<g id="edge2" class="edge">
<title>2&#45;&gt;1</title>
<path fill="none" stroke="black" d="M233.25,-176.19C279.58,-161.55 350.49,-139.15 399.68,-123.6"/>
<polygon fill="black" stroke="black" points="401.05,-126.84 409.53,-120.49 398.94,-120.17 401.05,-126.84"/>
<text text-anchor="middle" x="352.9" y="-144.8" font-family="Times New Roman,serif" font-size="14.00">0.054</text>
</g>
<!-- 3&#45;&gt;1 -->
<g id="edge3" class="edge">
<title>3&#45;&gt;1</title>
<path fill="none" stroke="black" d="M119.24,-30.68C146.31,-42.03 189.55,-58.97 228.4,-69 274.33,-80.86 326.59,-89.25 369.38,-94.84"/>
<polygon fill="black" stroke="black" points="369.12,-98.34 379.48,-96.13 370.01,-91.39 369.12,-98.34"/>
<text text-anchor="middle" x="243.9" y="-57.8" font-family="Times New Roman,serif" font-size="14.00">0.054</text>
</g>
<!-- 4 -->
<g id="node5" class="node">
<title>4</title>
<g id="a_node5"><a xlink:href="sports coach.svg" xlink:title="sports coach">
<ellipse fill="none" stroke="black" cx="357.4" cy="-192" rx="57.69" ry="18"/>
<text text-anchor="middle" x="357.4" y="-188.3" font-family="Times New Roman,serif" font-size="14.00">sports coach</text>
</a>
</g>
</g>
<!-- 4&#45;&gt;1 -->
<g id="edge4" class="edge">
<title>4&#45;&gt;1</title>
<path fill="none" stroke="black" d="M376.29,-174.61C391.11,-161.76 411.92,-143.71 428.48,-129.34"/>
<polygon fill="black" stroke="black" points="430.96,-131.82 436.23,-122.63 426.38,-126.54 430.96,-131.82"/>
<text text-anchor="middle" x="427.9" y="-144.8" font-family="Times New Roman,serif" font-size="14.00">0.054</text>
</g>
<!-- 5&#45;&gt;1 -->
<g id="edge5" class="edge">
<title>5&#45;&gt;1</title>
<path fill="none" stroke="black" d="M260.82,-33.32C300.46,-47.72 361.72,-69.97 404.9,-85.66"/>
<polygon fill="black" stroke="black" points="403.78,-88.97 414.37,-89.1 406.17,-82.39 403.78,-88.97"/>
<text text-anchor="middle" x="368.9" y="-57.8" font-family="Times New Roman,serif" font-size="14.00">0.054</text>
</g>
<!-- 6 -->
<g id="node7" class="node">
<title>6</title>
<g id="a_node7"><a xlink:href="television production assistant.svg" xlink:title="television production assistant">
<ellipse fill="none" stroke="black" cx="553.4" cy="-192" rx="120.48" ry="18"/>
<text text-anchor="middle" x="553.4" y="-188.3" font-family="Times New Roman,serif" font-size="14.00">television production assistant</text>
</a>
</g>
</g>
<!-- 6&#45;&gt;1 -->
<g id="edge6" class="edge">
<title>6&#45;&gt;1</title>
<path fill="none" stroke="black" d="M534.04,-174.21C519.27,-161.4 498.75,-143.61 482.38,-129.4"/>
<polygon fill="black" stroke="black" points="484.57,-126.67 474.72,-122.76 479.98,-131.95 484.57,-126.67"/>
<text text-anchor="middle" x="525.9" y="-144.8" font-family="Times New Roman,serif" font-size="14.00">0.054</text>
</g>
<!-- 7 -->
<g id="node8" class="node">
<title>7</title>
<g id="a_node8"><a xlink:href="youth worker.svg" xlink:title="youth worker">
<ellipse fill="none" stroke="black" cx="750.4" cy="-192" rx="59.29" ry="18"/>
<text text-anchor="middle" x="750.4" y="-188.3" font-family="Times New Roman,serif" font-size="14.00">youth worker</text>
</a>
</g>
</g>
<!-- 7&#45;&gt;1 -->
<g id="edge7" class="edge">
<title>7&#45;&gt;1</title>
<path fill="none" stroke="black" d="M709.07,-179.09C658.18,-164.43 571.42,-139.43 513.75,-122.81"/>
<polygon fill="black" stroke="black" points="514.62,-119.42 504.05,-120.02 512.69,-126.15 514.62,-119.42"/>
<text text-anchor="middle" x="636.9" y="-144.8" font-family="Times New Roman,serif" font-size="14.00">0.054</text>
</g>
<!-- 8 -->
<g id="node9" class="node">
<title>8</title>
<g id="a_node9"><a xlink:href="air traffic controller.svg" xlink:title="air traffic controller">
<ellipse fill="none" stroke="black" cx="908.4" cy="-192" rx="80.69" ry="18"/>
<text text-anchor="middle" x="908.4" y="-188.3" font-family="Times New Roman,serif" font-size="14.00">air traffic controller</text>
</a>
</g>
</g>
<!-- 8&#45;&gt;1 -->
<g id="edge8" class="edge">
<title>8&#45;&gt;1</title>
<path fill="none" stroke="black" d="M851.17,-179.25C800.14,-168.86 723.38,-153.47 656.4,-141 614.84,-133.26 568.35,-125.13 530.56,-118.66"/>
<polygon fill="black" stroke="black" points="531.09,-115.2 520.64,-116.96 529.91,-122.1 531.09,-115.2"/>
<text text-anchor="middle" x="747.9" y="-144.8" font-family="Times New Roman,serif" font-size="14.00">0.027</text>
</g>
<!-- 9 -->
<g id="node10" class="node">
<title>9</title>
<g id="a_node10"><a xlink:href="biomedical scientist.svg" xlink:title="biomedical scientist">
<ellipse fill="none" stroke="black" cx="1088.4" cy="-192" rx="81.79" ry="18"/>
<text text-anchor="middle" x="1088.4" y="-188.3" font-family="Times New Roman,serif" font-size="14.00">biomedical scientist</text>
</a>
</g>
</g>
<!-- 9&#45;&gt;1 -->
<g id="edge9" class="edge">
<title>9&#45;&gt;1</title>
<path fill="none" stroke="black" d="M1029.4,-179.47C1019.08,-177.56 1008.44,-175.66 998.4,-174 838.14,-147.43 649.72,-126.02 542.25,-114.73"/>
<polygon fill="black" stroke="black" points="542.42,-111.23 532.11,-113.67 541.69,-118.19 542.42,-111.23"/>
<text text-anchor="middle" x="894.9" y="-144.8" font-family="Times New Roman,serif" font-size="14.00">0.027</text>
</g>
</g>
</svg>
