<?xml version="1.0" encoding="UTF-8" standalone="no"?>
<!DOCTYPE svg PUBLIC "-//W3C//DTD SVG 1.1//EN"
 "http://www.w3.org/Graphics/SVG/1.1/DTD/svg11.dtd">
<!-- Generated by graphviz version 2.44.1 (20200629.0800)
 -->
<!-- Title: test Pages: 1 -->
<svg width="1366pt" height="218pt"
 viewBox="0.00 0.00 1365.84 218.00" xmlns="http://www.w3.org/2000/svg" xmlns:xlink="http://www.w3.org/1999/xlink">
<g id="graph0" class="graph" transform="scale(1 1) rotate(0) translate(4 214)">
<title>test</title>
<polygon fill="white" stroke="transparent" points="-4,4 -4,-214 1361.84,-214 1361.84,4 -4,4"/>
<!-- 0 -->
<g id="node1" class="node">
<title>0</title>
<g id="a_node1"><a xlink:href="qa analyst.svg" xlink:title="qa analyst">
<ellipse fill="none" stroke="black" cx="101.74" cy="-192" rx="46.59" ry="18"/>
<text text-anchor="middle" x="101.74" y="-188.3" font-family="Times New Roman,serif" font-size="14.00">qa analyst</text>
</a>
</g>
</g>
<!-- 1 -->
<g id="node2" class="node">
<title>1</title>
<g id="a_node2"><a xlink:href="probation officer.svg" xlink:title="probation officer">
<ellipse fill="none" stroke="black" cx="530.74" cy="-105" rx="72.29" ry="18"/>
<text text-anchor="middle" x="530.74" y="-101.3" font-family="Times New Roman,serif" font-size="14.00">probation officer</text>
</a>
</g>
</g>
<!-- 0&#45;&gt;1 -->
<g id="edge1" class="edge">
<title>0&#45;&gt;1</title>
<path fill="none" stroke="black" d="M113.27,-174.49C122.3,-162.98 135.96,-148.41 151.74,-141 202.61,-117.13 353.13,-109.53 448.47,-107.12"/>
<polygon fill="black" stroke="black" points="448.75,-110.61 458.67,-106.87 448.58,-103.61 448.75,-110.61"/>
<text text-anchor="middle" x="160.74" y="-144.8" font-family="Times New Roman,serif" font-size="14.00">0.2</text>
</g>
<!-- 1&#45;&gt;0 -->
<g id="edge16" class="edge">
<title>1&#45;&gt;0</title>
<path fill="none" stroke="black" d="M470.03,-114.75C395.65,-125.98 266.04,-147.27 156.74,-174 153.18,-174.87 149.52,-175.84 145.85,-176.86"/>
<polygon fill="black" stroke="black" points="144.82,-173.52 136.19,-179.66 146.77,-180.24 144.82,-173.52"/>
<text text-anchor="middle" x="326.24" y="-144.8" font-family="Times New Roman,serif" font-size="14.00">0.083</text>
</g>
<!-- 1&#45;&gt;1 -->
<g id="edge14" class="edge">
<title>1&#45;&gt;1</title>
<path fill="none" stroke="black" d="M596.38,-112.64C610.58,-111.9 620.89,-109.35 620.89,-105 620.89,-101.77 615.21,-99.54 606.48,-98.29"/>
<polygon fill="black" stroke="black" points="606.66,-94.8 596.38,-97.36 606.01,-101.77 606.66,-94.8"/>
<text text-anchor="middle" x="636.39" y="-101.3" font-family="Times New Roman,serif" font-size="14.00">0.083</text>
</g>
<!-- 3 -->
<g id="node4" class="node">
<title>3</title>
<g id="a_node4"><a xlink:href="electrical engineer.svg" xlink:title="electrical engineer">
<ellipse fill="none" stroke="black" cx="74.74" cy="-18" rx="74.99" ry="18"/>
<text text-anchor="middle" x="74.74" y="-14.3" font-family="Times New Roman,serif" font-size="14.00">electrical engineer</text>
</a>
</g>
</g>
<!-- 1&#45;&gt;3 -->
<g id="edge11" class="edge">
<title>1&#45;&gt;3</title>
<path fill="none" stroke="black" d="M461.26,-100.03C399.21,-95.53 306.13,-86.44 226.74,-69 190.91,-61.13 151.59,-48.07 121.93,-37.27"/>
<polygon fill="black" stroke="black" points="122.85,-33.88 112.25,-33.71 120.43,-40.45 122.85,-33.88"/>
<text text-anchor="middle" x="242.24" y="-57.8" font-family="Times New Roman,serif" font-size="14.00">0.083</text>
</g>
<!-- 9 -->
<g id="node10" class="node">
<title>9</title>
<g id="a_node10"><a xlink:href="biotechnologist.svg" xlink:title="biotechnologist">
<ellipse fill="none" stroke="black" cx="233.74" cy="-18" rx="66.09" ry="18"/>
<text text-anchor="middle" x="233.74" y="-14.3" font-family="Times New Roman,serif" font-size="14.00">biotechnologist</text>
</a>
</g>
</g>
<!-- 1&#45;&gt;9 -->
<g id="edge9" class="edge">
<title>1&#45;&gt;9</title>
<path fill="none" stroke="black" d="M485.31,-91C432.12,-75.77 344.11,-50.59 287.55,-34.4"/>
<polygon fill="black" stroke="black" points="288.29,-30.97 277.72,-31.58 286.37,-37.7 288.29,-30.97"/>
<text text-anchor="middle" x="416.24" y="-57.8" font-family="Times New Roman,serif" font-size="14.00">0.083</text>
</g>
<!-- 10 -->
<g id="node11" class="node">
<title>10</title>
<g id="a_node11"><a xlink:href="content manager.svg" xlink:title="content manager">
<ellipse fill="none" stroke="black" cx="387.74" cy="-18" rx="70.39" ry="18"/>
<text text-anchor="middle" x="387.74" y="-14.3" font-family="Times New Roman,serif" font-size="14.00">content manager</text>
</a>
</g>
</g>
<!-- 1&#45;&gt;10 -->
<g id="edge10" class="edge">
<title>1&#45;&gt;10</title>
<path fill="none" stroke="black" d="M504.18,-88.21C481.31,-74.61 448.11,-54.88 423.01,-39.96"/>
<polygon fill="black" stroke="black" points="424.55,-36.81 414.16,-34.7 420.97,-42.82 424.55,-36.81"/>
<text text-anchor="middle" x="484.24" y="-57.8" font-family="Times New Roman,serif" font-size="14.00">0.083</text>
</g>
<!-- 11 -->
<g id="node12" class="node">
<title>11</title>
<g id="a_node12"><a xlink:href="it consultant.svg" xlink:title="it consultant">
<ellipse fill="none" stroke="black" cx="530.74" cy="-18" rx="54.69" ry="18"/>
<text text-anchor="middle" x="530.74" y="-14.3" font-family="Times New Roman,serif" font-size="14.00">it consultant</text>
</a>
</g>
</g>
<!-- 1&#45;&gt;11 -->
<g id="edge12" class="edge">
<title>1&#45;&gt;11</title>
<path fill="none" stroke="black" d="M530.74,-86.8C530.74,-75.16 530.74,-59.55 530.74,-46.24"/>
<polygon fill="black" stroke="black" points="534.24,-46.18 530.74,-36.18 527.24,-46.18 534.24,-46.18"/>
<text text-anchor="middle" x="546.24" y="-57.8" font-family="Times New Roman,serif" font-size="14.00">0.083</text>
</g>
<!-- 12 -->
<g id="node13" class="node">
<title>12</title>
<g id="a_node13"><a xlink:href="local government administrator.svg" xlink:title="local government administrator">
<ellipse fill="none" stroke="black" cx="725.74" cy="-18" rx="122.38" ry="18"/>
<text text-anchor="middle" x="725.74" y="-14.3" font-family="Times New Roman,serif" font-size="14.00">local government administrator</text>
</a>
</g>
</g>
<!-- 1&#45;&gt;12 -->
<g id="edge13" class="edge">
<title>1&#45;&gt;12</title>
<path fill="none" stroke="black" d="M565.16,-89C596.74,-75.23 643.8,-54.72 678.82,-39.46"/>
<polygon fill="black" stroke="black" points="680.58,-42.5 688.35,-35.3 677.79,-36.09 680.58,-42.5"/>
<text text-anchor="middle" x="656.24" y="-57.8" font-family="Times New Roman,serif" font-size="14.00">0.083</text>
</g>
<!-- 13 -->
<g id="node14" class="node">
<title>13</title>
<g id="a_node14"><a xlink:href="project manager.svg" xlink:title="project manager">
<ellipse fill="none" stroke="black" cx="934.74" cy="-18" rx="68.79" ry="18"/>
<text text-anchor="middle" x="934.74" y="-14.3" font-family="Times New Roman,serif" font-size="14.00">project manager</text>
</a>
</g>
</g>
<!-- 1&#45;&gt;13 -->
<g id="edge15" class="edge">
<title>1&#45;&gt;13</title>
<path fill="none" stroke="black" d="M584.42,-92.96C649.06,-79.62 760.9,-56.44 856.74,-36 862.17,-34.84 867.8,-33.63 873.44,-32.42"/>
<polygon fill="black" stroke="black" points="874.54,-35.76 883.57,-30.22 873.06,-28.92 874.54,-35.76"/>
<text text-anchor="middle" x="782.24" y="-57.8" font-family="Times New Roman,serif" font-size="14.00">0.083</text>
</g>
<!-- 14 -->
<g id="node15" class="node">
<title>14</title>
<g id="a_node15"><a xlink:href="regulatory affairs officer.svg" xlink:title="regulatory affairs officer">
<ellipse fill="none" stroke="black" cx="1119.74" cy="-18" rx="98.28" ry="18"/>
<text text-anchor="middle" x="1119.74" y="-14.3" font-family="Times New Roman,serif" font-size="14.00">regulatory affairs officer</text>
</a>
</g>
</g>
<!-- 1&#45;&gt;14 -->
<g id="edge17" class="edge">
<title>1&#45;&gt;14</title>
<path fill="none" stroke="black" d="M594.05,-96.31C649.02,-89.52 730.71,-79.14 801.74,-69 895.71,-55.59 918.98,-50.78 1012.74,-36 1021.02,-34.69 1029.66,-33.33 1038.29,-31.96"/>
<polygon fill="black" stroke="black" points="1039.05,-35.39 1048.38,-30.36 1037.95,-28.47 1039.05,-35.39"/>
<text text-anchor="middle" x="915.24" y="-57.8" font-family="Times New Roman,serif" font-size="14.00">0.083</text>
</g>
<!-- 15 -->
<g id="node16" class="node">
<title>15</title>
<g id="a_node16"><a xlink:href="sales manager.svg" xlink:title="sales manager">
<ellipse fill="none" stroke="black" cx="1296.74" cy="-18" rx="61.19" ry="18"/>
<text text-anchor="middle" x="1296.74" y="-14.3" font-family="Times New Roman,serif" font-size="14.00">sales manager</text>
</a>
</g>
</g>
<!-- 1&#45;&gt;15 -->
<g id="edge18" class="edge">
<title>1&#45;&gt;15</title>
<path fill="none" stroke="black" d="M600.88,-100.77C726.96,-94.16 999.9,-76.2 1226.74,-36 1232.05,-35.06 1237.56,-33.95 1243.05,-32.76"/>
<polygon fill="black" stroke="black" points="1243.87,-36.17 1252.86,-30.55 1242.33,-29.34 1243.87,-36.17"/>
<text text-anchor="middle" x="1109.24" y="-57.8" font-family="Times New Roman,serif" font-size="14.00">0.083</text>
</g>
<!-- 2 -->
<g id="node3" class="node">
<title>2</title>
<g id="a_node3"><a xlink:href="education administrator.svg" xlink:title="education administrator">
<ellipse fill="none" stroke="black" cx="261.74" cy="-192" rx="95.58" ry="18"/>
<text text-anchor="middle" x="261.74" y="-188.3" font-family="Times New Roman,serif" font-size="14.00">education administrator</text>
</a>
</g>
</g>
<!-- 2&#45;&gt;1 -->
<g id="edge2" class="edge">
<title>2&#45;&gt;1</title>
<path fill="none" stroke="black" d="M308.6,-176.19C355.92,-161.24 428.87,-138.19 478.14,-122.62"/>
<polygon fill="black" stroke="black" points="479.49,-125.87 487.97,-119.52 477.38,-119.19 479.49,-125.87"/>
<text text-anchor="middle" x="421.74" y="-144.8" font-family="Times New Roman,serif" font-size="14.00">0.1</text>
</g>
<!-- 3&#45;&gt;1 -->
<g id="edge3" class="edge">
<title>3&#45;&gt;1</title>
<path fill="none" stroke="black" d="M129.84,-30.31C139.47,-32.24 149.39,-34.2 158.74,-36 265.11,-56.48 388.89,-78.81 463.46,-92.09"/>
<polygon fill="black" stroke="black" points="463.18,-95.6 473.64,-93.91 464.41,-88.71 463.18,-95.6"/>
<text text-anchor="middle" x="341.74" y="-57.8" font-family="Times New Roman,serif" font-size="14.00">0.1</text>
</g>
<!-- 4 -->
<g id="node5" class="node">
<title>4</title>
<g id="a_node5"><a xlink:href="exploration geologist.svg" xlink:title="exploration geologist">
<ellipse fill="none" stroke="black" cx="461.74" cy="-192" rx="86.38" ry="18"/>
<text text-anchor="middle" x="461.74" y="-188.3" font-family="Times New Roman,serif" font-size="14.00">exploration geologist</text>
</a>
</g>
</g>
<!-- 4&#45;&gt;1 -->
<g id="edge4" class="edge">
<title>4&#45;&gt;1</title>
<path fill="none" stroke="black" d="M475.38,-174.21C485.49,-161.75 499.43,-144.57 510.79,-130.57"/>
<polygon fill="black" stroke="black" points="513.55,-132.73 517.14,-122.76 508.12,-128.32 513.55,-132.73"/>
<text text-anchor="middle" x="509.74" y="-144.8" font-family="Times New Roman,serif" font-size="14.00">0.1</text>
</g>
<!-- 5 -->
<g id="node6" class="node">
<title>5</title>
<g id="a_node6"><a xlink:href="lawyer.svg" xlink:title="lawyer">
<ellipse fill="none" stroke="black" cx="600.74" cy="-192" rx="34.39" ry="18"/>
<text text-anchor="middle" x="600.74" y="-188.3" font-family="Times New Roman,serif" font-size="14.00">lawyer</text>
</a>
</g>
</g>
<!-- 5&#45;&gt;1 -->
<g id="edge5" class="edge">
<title>5&#45;&gt;1</title>
<path fill="none" stroke="black" d="M587.58,-175.01C577.31,-162.55 562.88,-145.02 551.13,-130.75"/>
<polygon fill="black" stroke="black" points="553.63,-128.28 544.57,-122.79 548.22,-132.73 553.63,-128.28"/>
<text text-anchor="middle" x="579.74" y="-144.8" font-family="Times New Roman,serif" font-size="14.00">0.1</text>
</g>
<!-- 6 -->
<g id="node7" class="node">
<title>6</title>
<g id="a_node7"><a xlink:href="patent attorney.svg" xlink:title="patent attorney">
<ellipse fill="none" stroke="black" cx="717.74" cy="-192" rx="64.19" ry="18"/>
<text text-anchor="middle" x="717.74" y="-188.3" font-family="Times New Roman,serif" font-size="14.00">patent attorney</text>
</a>
</g>
</g>
<!-- 6&#45;&gt;1 -->
<g id="edge6" class="edge">
<title>6&#45;&gt;1</title>
<path fill="none" stroke="black" d="M685.6,-176.39C654.58,-162.29 607.42,-140.85 573.3,-125.34"/>
<polygon fill="black" stroke="black" points="574.6,-122.09 564.04,-121.14 571.7,-128.46 574.6,-122.09"/>
<text text-anchor="middle" x="644.74" y="-144.8" font-family="Times New Roman,serif" font-size="14.00">0.1</text>
</g>
<!-- 7 -->
<g id="node8" class="node">
<title>7</title>
<g id="a_node8"><a xlink:href="pr officer.svg" xlink:title="pr officer">
<ellipse fill="none" stroke="black" cx="844.74" cy="-192" rx="44.69" ry="18"/>
<text text-anchor="middle" x="844.74" y="-188.3" font-family="Times New Roman,serif" font-size="14.00">pr officer</text>
</a>
</g>
</g>
<!-- 7&#45;&gt;1 -->
<g id="edge7" class="edge">
<title>7&#45;&gt;1</title>
<path fill="none" stroke="black" d="M810.83,-180.04C804.19,-177.98 797.26,-175.88 790.74,-174 722.3,-154.29 643.03,-133.9 590.18,-120.66"/>
<polygon fill="black" stroke="black" points="590.85,-117.22 580.3,-118.19 589.15,-124.01 590.85,-117.22"/>
<text text-anchor="middle" x="727.74" y="-144.8" font-family="Times New Roman,serif" font-size="14.00">0.1</text>
</g>
<!-- 8 -->
<g id="node9" class="node">
<title>8</title>
<g id="a_node9"><a xlink:href="welfare rights adviser.svg" xlink:title="welfare rights adviser">
<ellipse fill="none" stroke="black" cx="994.74" cy="-192" rx="87.18" ry="18"/>
<text text-anchor="middle" x="994.74" y="-188.3" font-family="Times New Roman,serif" font-size="14.00">welfare rights adviser</text>
</a>
</g>
</g>
<!-- 8&#45;&gt;1 -->
<g id="edge8" class="edge">
<title>8&#45;&gt;1</title>
<path fill="none" stroke="black" d="M935.3,-178.79C883.89,-168.35 807.51,-153.13 740.74,-141 693.88,-132.48 640.98,-123.67 600,-117.02"/>
<polygon fill="black" stroke="black" points="600.54,-113.56 590.11,-115.42 599.43,-120.47 600.54,-113.56"/>
<text text-anchor="middle" x="825.74" y="-144.8" font-family="Times New Roman,serif" font-size="14.00">0.1</text>
</g>
</g>
</svg>
