<?xml version="1.0" encoding="UTF-8" standalone="no"?>
<!DOCTYPE svg PUBLIC "-//W3C//DTD SVG 1.1//EN"
 "http://www.w3.org/Graphics/SVG/1.1/DTD/svg11.dtd">
<!-- Generated by graphviz version 2.44.1 (20200629.0800)
 -->
<!-- Title: production_manager Pages: 1 -->
<svg width="1294pt" height="218pt"
 viewBox="0.00 0.00 1293.99 218.00" xmlns="http://www.w3.org/2000/svg" xmlns:xlink="http://www.w3.org/1999/xlink">
<g id="graph0" class="graph" transform="scale(1 1) rotate(0) translate(4 214)">
<title>production_manager</title>
<polygon fill="white" stroke="transparent" points="-4,4 -4,-214 1289.99,-214 1289.99,4 -4,4"/>
<!-- 0 -->
<g id="node1" class="node">
<title>0</title>
<g id="a_node1"><a xlink:href="project manager.svg" xlink:title="project manager">
<ellipse fill="none" stroke="black" cx="440.64" cy="-192" rx="68.79" ry="18"/>
<text text-anchor="middle" x="440.64" y="-188.3" font-family="Times New Roman,serif" font-size="14.00">project manager</text>
</a>
</g>
</g>
<!-- 1 -->
<g id="node2" class="node">
<title>1</title>
<g id="a_node2"><a xlink:href="production manager.svg" xlink:title="production manager">
<ellipse fill="none" stroke="black" cx="572.64" cy="-105" rx="83.39" ry="18"/>
<text text-anchor="middle" x="572.64" y="-101.3" font-family="Times New Roman,serif" font-size="14.00">production manager</text>
</a>
</g>
</g>
<!-- 0&#45;&gt;1 -->
<g id="edge1" class="edge">
<title>0&#45;&gt;1</title>
<path fill="none" stroke="black" d="M452.82,-173.87C461.09,-163.25 472.82,-149.97 485.64,-141 495.13,-134.36 506.07,-128.71 516.92,-124.01"/>
<polygon fill="black" stroke="black" points="518.46,-127.16 526.39,-120.12 515.81,-120.68 518.46,-127.16"/>
<text text-anchor="middle" x="501.14" y="-144.8" font-family="Times New Roman,serif" font-size="14.00">0.061</text>
</g>
<!-- 1&#45;&gt;0 -->
<g id="edge12" class="edge">
<title>1&#45;&gt;0</title>
<path fill="none" stroke="black" d="M556.56,-122.72C545.91,-133.18 531.25,-146.43 516.64,-156 507.34,-162.1 496.8,-167.68 486.6,-172.51"/>
<polygon fill="black" stroke="black" points="485.02,-169.38 477.38,-176.72 487.93,-175.75 485.02,-169.38"/>
<text text-anchor="middle" x="552.14" y="-144.8" font-family="Times New Roman,serif" font-size="14.00">0.064</text>
</g>
<!-- 1&#45;&gt;1 -->
<g id="edge10" class="edge">
<title>1&#45;&gt;1</title>
<path fill="none" stroke="black" d="M648.55,-112.52C663.33,-111.65 673.83,-109.14 673.83,-105 673.83,-101.89 667.93,-99.71 658.73,-98.44"/>
<polygon fill="black" stroke="black" points="658.83,-94.93 648.55,-97.48 658.17,-101.9 658.83,-94.93"/>
<text text-anchor="middle" x="689.33" y="-101.3" font-family="Times New Roman,serif" font-size="14.00">0.206</text>
</g>
<!-- 2 -->
<g id="node3" class="node">
<title>2</title>
<g id="a_node3"><a xlink:href="pharmacovigilance officer.svg" xlink:title="pharmacovigilance officer">
<ellipse fill="none" stroke="black" cx="104.64" cy="-18" rx="104.78" ry="18"/>
<text text-anchor="middle" x="104.64" y="-14.3" font-family="Times New Roman,serif" font-size="14.00">pharmacovigilance officer</text>
</a>
</g>
</g>
<!-- 1&#45;&gt;2 -->
<g id="edge11" class="edge">
<title>1&#45;&gt;2</title>
<path fill="none" stroke="black" d="M491.02,-101.31C393.59,-97.3 236.88,-88.08 181.64,-69 164.05,-62.92 146.49,-51.99 132.59,-41.89"/>
<polygon fill="black" stroke="black" points="134.53,-38.97 124.44,-35.76 130.32,-44.57 134.53,-38.97"/>
<text text-anchor="middle" x="197.14" y="-57.8" font-family="Times New Roman,serif" font-size="14.00">0.076</text>
</g>
<!-- 3 -->
<g id="node4" class="node">
<title>3</title>
<g id="a_node4"><a xlink:href="it consultant.svg" xlink:title="it consultant">
<ellipse fill="none" stroke="black" cx="281.64" cy="-18" rx="54.69" ry="18"/>
<text text-anchor="middle" x="281.64" y="-14.3" font-family="Times New Roman,serif" font-size="14.00">it consultant</text>
</a>
</g>
</g>
<!-- 1&#45;&gt;3 -->
<g id="edge14" class="edge">
<title>1&#45;&gt;3</title>
<path fill="none" stroke="black" d="M494.03,-99.08C432.31,-94.09 352.18,-84.81 323.64,-69 313.01,-63.11 303.92,-53.39 296.94,-44.07"/>
<polygon fill="black" stroke="black" points="299.73,-41.96 291.14,-35.76 293.99,-45.96 299.73,-41.96"/>
<text text-anchor="middle" x="339.14" y="-57.8" font-family="Times New Roman,serif" font-size="14.00">0.054</text>
</g>
<!-- 4 -->
<g id="node5" class="node">
<title>4</title>
<g id="a_node5"><a xlink:href="sales manager.svg" xlink:title="sales manager">
<ellipse fill="none" stroke="black" cx="415.64" cy="-18" rx="61.19" ry="18"/>
<text text-anchor="middle" x="415.64" y="-14.3" font-family="Times New Roman,serif" font-size="14.00">sales manager</text>
</a>
</g>
</g>
<!-- 1&#45;&gt;4 -->
<g id="edge13" class="edge">
<title>1&#45;&gt;4</title>
<path fill="none" stroke="black" d="M502.7,-95.15C482.46,-90 461.34,-81.86 444.64,-69 436.7,-62.89 430.54,-53.93 425.98,-45.29"/>
<polygon fill="black" stroke="black" points="429.11,-43.7 421.65,-36.17 422.78,-46.71 429.11,-43.7"/>
<text text-anchor="middle" x="460.14" y="-57.8" font-family="Times New Roman,serif" font-size="14.00">0.058</text>
</g>
<!-- 5 -->
<g id="node6" class="node">
<title>5</title>
<g id="a_node6"><a xlink:href="heritage manager.svg" xlink:title="heritage manager">
<ellipse fill="none" stroke="black" cx="566.64" cy="-18" rx="71.49" ry="18"/>
<text text-anchor="middle" x="566.64" y="-14.3" font-family="Times New Roman,serif" font-size="14.00">heritage manager</text>
</a>
</g>
</g>
<!-- 1&#45;&gt;5 -->
<g id="edge15" class="edge">
<title>1&#45;&gt;5</title>
<path fill="none" stroke="black" d="M554,-87.1C549.39,-81.81 545.08,-75.61 542.64,-69 539.62,-60.82 541.73,-52.17 545.74,-44.41"/>
<polygon fill="black" stroke="black" points="548.79,-46.12 551.1,-35.78 542.85,-42.42 548.79,-46.12"/>
<text text-anchor="middle" x="558.14" y="-57.8" font-family="Times New Roman,serif" font-size="14.00">0.031</text>
</g>
<!-- 6 -->
<g id="node7" class="node">
<title>6</title>
<g id="a_node7"><a xlink:href="marketing executive.svg" xlink:title="marketing executive">
<ellipse fill="none" stroke="black" cx="737.64" cy="-18" rx="81.79" ry="18"/>
<text text-anchor="middle" x="737.64" y="-14.3" font-family="Times New Roman,serif" font-size="14.00">marketing executive</text>
</a>
</g>
</g>
<!-- 1&#45;&gt;6 -->
<g id="edge18" class="edge">
<title>1&#45;&gt;6</title>
<path fill="none" stroke="black" d="M599.99,-87.88C617.44,-77.79 640.64,-64.71 661.64,-54 671.75,-48.85 682.76,-43.58 693.18,-38.75"/>
<polygon fill="black" stroke="black" points="694.92,-41.8 702.55,-34.45 692,-35.44 694.92,-41.8"/>
<text text-anchor="middle" x="677.14" y="-57.8" font-family="Times New Roman,serif" font-size="14.00">0.021</text>
</g>
<!-- 8 -->
<g id="node9" class="node">
<title>8</title>
<g id="a_node9"><a xlink:href="catering manager.svg" xlink:title="catering manager">
<ellipse fill="none" stroke="black" cx="908.64" cy="-18" rx="71.49" ry="18"/>
<text text-anchor="middle" x="908.64" y="-14.3" font-family="Times New Roman,serif" font-size="14.00">catering manager</text>
</a>
</g>
</g>
<!-- 1&#45;&gt;8 -->
<g id="edge16" class="edge">
<title>1&#45;&gt;8</title>
<path fill="none" stroke="black" d="M634.99,-93.04C668.31,-86.78 709.91,-78.34 746.64,-69 757.52,-66.23 813,-49 856.04,-35.52"/>
<polygon fill="black" stroke="black" points="857.35,-38.78 865.84,-32.45 855.26,-32.1 857.35,-38.78"/>
<text text-anchor="middle" x="809.14" y="-57.8" font-family="Times New Roman,serif" font-size="14.00">0.028</text>
</g>
<!-- 10 -->
<g id="node11" class="node">
<title>10</title>
<g id="a_node11"><a xlink:href="content manager.svg" xlink:title="content manager">
<ellipse fill="none" stroke="black" cx="1068.64" cy="-18" rx="70.39" ry="18"/>
<text text-anchor="middle" x="1068.64" y="-14.3" font-family="Times New Roman,serif" font-size="14.00">content manager</text>
</a>
</g>
</g>
<!-- 1&#45;&gt;10 -->
<g id="edge17" class="edge">
<title>1&#45;&gt;10</title>
<path fill="none" stroke="black" d="M651.54,-99.29C717.29,-94.45 813.18,-85.26 895.64,-69 937.66,-60.72 984.24,-46.98 1018.47,-36"/>
<polygon fill="black" stroke="black" points="1019.8,-39.25 1028.23,-32.84 1017.64,-32.59 1019.8,-39.25"/>
<text text-anchor="middle" x="973.14" y="-57.8" font-family="Times New Roman,serif" font-size="14.00">0.024</text>
</g>
<!-- 11 -->
<g id="node12" class="node">
<title>11</title>
<g id="a_node12"><a xlink:href="office manager.svg" xlink:title="office manager">
<ellipse fill="none" stroke="black" cx="1221.64" cy="-18" rx="64.19" ry="18"/>
<text text-anchor="middle" x="1221.64" y="-14.3" font-family="Times New Roman,serif" font-size="14.00">office manager</text>
</a>
</g>
</g>
<!-- 1&#45;&gt;11 -->
<g id="edge19" class="edge">
<title>1&#45;&gt;11</title>
<path fill="none" stroke="black" d="M653.11,-100.33C737.91,-95.75 875.19,-86.32 992.64,-69 1062.32,-58.72 1078.87,-51.22 1147.64,-36 1152.95,-34.83 1158.47,-33.59 1163.99,-32.34"/>
<polygon fill="black" stroke="black" points="1164.92,-35.72 1173.9,-30.09 1163.37,-28.89 1164.92,-35.72"/>
<text text-anchor="middle" x="1085.14" y="-57.8" font-family="Times New Roman,serif" font-size="14.00">0.021</text>
</g>
<!-- 2&#45;&gt;1 -->
<g id="edge2" class="edge">
<title>2&#45;&gt;1</title>
<path fill="none" stroke="black" d="M148.4,-34.4C181.78,-45.58 229.11,-60.23 271.64,-69 342.39,-83.59 423.83,-92.59 484.15,-97.81"/>
<polygon fill="black" stroke="black" points="484.14,-101.32 494.4,-98.68 484.73,-94.35 484.14,-101.32"/>
<text text-anchor="middle" x="287.14" y="-57.8" font-family="Times New Roman,serif" font-size="14.00">0.049</text>
</g>
<!-- 3&#45;&gt;1 -->
<g id="edge3" class="edge">
<title>3&#45;&gt;1</title>
<path fill="none" stroke="black" d="M310.56,-33.48C333.64,-44.55 367.07,-59.47 397.64,-69 429.4,-78.9 465.31,-86.65 496.29,-92.32"/>
<polygon fill="black" stroke="black" points="495.71,-95.77 506.17,-94.08 496.94,-88.88 495.71,-95.77"/>
<text text-anchor="middle" x="413.14" y="-57.8" font-family="Times New Roman,serif" font-size="14.00">0.041</text>
</g>
<!-- 4&#45;&gt;1 -->
<g id="edge4" class="edge">
<title>4&#45;&gt;1</title>
<path fill="none" stroke="black" d="M443.06,-34.2C461.09,-44.17 485.23,-57.44 506.64,-69 515.28,-73.66 524.58,-78.63 533.4,-83.31"/>
<polygon fill="black" stroke="black" points="531.89,-86.47 542.36,-88.06 535.17,-80.29 531.89,-86.47"/>
<text text-anchor="middle" x="522.14" y="-57.8" font-family="Times New Roman,serif" font-size="14.00">0.040</text>
</g>
<!-- 5&#45;&gt;1 -->
<g id="edge5" class="edge">
<title>5&#45;&gt;1</title>
<path fill="none" stroke="black" d="M573.19,-36.2C575.01,-41.79 576.73,-48.08 577.64,-54 578.77,-61.38 578.59,-69.42 577.84,-76.85"/>
<polygon fill="black" stroke="black" points="574.37,-76.44 576.49,-86.82 581.3,-77.38 574.37,-76.44"/>
<text text-anchor="middle" x="594.14" y="-57.8" font-family="Times New Roman,serif" font-size="14.00">0.025</text>
</g>
<!-- 6&#45;&gt;1 -->
<g id="edge6" class="edge">
<title>6&#45;&gt;1</title>
<path fill="none" stroke="black" d="M727.48,-36.15C720.19,-47.05 709.41,-60.64 696.64,-69 681.86,-78.68 664.39,-85.71 647.3,-90.82"/>
<polygon fill="black" stroke="black" points="646,-87.55 637.31,-93.61 647.88,-94.29 646,-87.55"/>
<text text-anchor="middle" x="727.14" y="-57.8" font-family="Times New Roman,serif" font-size="14.00">0.019</text>
</g>
<!-- 7 -->
<g id="node8" class="node">
<title>7</title>
<g id="a_node8"><a xlink:href="software developer.svg" xlink:title="software developer">
<ellipse fill="none" stroke="black" cx="607.64" cy="-192" rx="79.89" ry="18"/>
<text text-anchor="middle" x="607.64" y="-188.3" font-family="Times New Roman,serif" font-size="14.00">software developer</text>
</a>
</g>
</g>
<!-- 7&#45;&gt;1 -->
<g id="edge7" class="edge">
<title>7&#45;&gt;1</title>
<path fill="none" stroke="black" d="M600.56,-173.8C595.67,-161.93 589.08,-145.93 583.53,-132.45"/>
<polygon fill="black" stroke="black" points="586.76,-131.09 579.71,-123.18 580.28,-133.75 586.76,-131.09"/>
<text text-anchor="middle" x="608.14" y="-144.8" font-family="Times New Roman,serif" font-size="14.00">0.019</text>
</g>
<!-- 8&#45;&gt;1 -->
<g id="edge8" class="edge">
<title>8&#45;&gt;1</title>
<path fill="none" stroke="black" d="M888.74,-35.47C873.93,-46.81 852.71,-61.19 831.64,-69 778.51,-88.7 715.57,-97.51 665.04,-101.37"/>
<polygon fill="black" stroke="black" points="664.51,-97.9 654.79,-102.1 665.01,-104.88 664.51,-97.9"/>
<text text-anchor="middle" x="876.14" y="-57.8" font-family="Times New Roman,serif" font-size="14.00">0.018</text>
</g>
<!-- 9 -->
<g id="node10" class="node">
<title>9</title>
<g id="a_node10"><a xlink:href="television production assistant.svg" xlink:title="television production assistant">
<ellipse fill="none" stroke="black" cx="825.64" cy="-192" rx="120.48" ry="18"/>
<text text-anchor="middle" x="825.64" y="-188.3" font-family="Times New Roman,serif" font-size="14.00">television production assistant</text>
</a>
</g>
</g>
<!-- 9&#45;&gt;1 -->
<g id="edge9" class="edge">
<title>9&#45;&gt;1</title>
<path fill="none" stroke="black" d="M778.94,-175.31C735.44,-160.7 670.67,-138.94 625.34,-123.71"/>
<polygon fill="black" stroke="black" points="626.29,-120.33 615.69,-120.46 624.06,-126.97 626.29,-120.33"/>
<text text-anchor="middle" x="729.14" y="-144.8" font-family="Times New Roman,serif" font-size="14.00">0.018</text>
</g>
</g>
</svg>
