<?xml version="1.0" encoding="UTF-8" standalone="no"?>
<!DOCTYPE svg PUBLIC "-//W3C//DTD SVG 1.1//EN"
 "http://www.w3.org/Graphics/SVG/1.1/DTD/svg11.dtd">
<!-- Generated by graphviz version 2.44.1 (20200629.0800)
 -->
<!-- Title: project_manager Pages: 1 -->
<svg width="1532pt" height="218pt"
 viewBox="0.00 0.00 1532.09 218.00" xmlns="http://www.w3.org/2000/svg" xmlns:xlink="http://www.w3.org/1999/xlink">
<g id="graph0" class="graph" transform="scale(1 1) rotate(0) translate(4 214)">
<title>project_manager</title>
<polygon fill="white" stroke="transparent" points="-4,4 -4,-214 1528.09,-214 1528.09,4 -4,4"/>
<!-- 0 -->
<g id="node1" class="node">
<title>0</title>
<g id="a_node1"><a xlink:href="it consultant.svg" xlink:title="it consultant">
<ellipse fill="none" stroke="black" cx="531.64" cy="-192" rx="54.69" ry="18"/>
<text text-anchor="middle" x="531.64" y="-188.3" font-family="Times New Roman,serif" font-size="14.00">it consultant</text>
</a>
</g>
</g>
<!-- 1 -->
<g id="node2" class="node">
<title>1</title>
<g id="a_node2"><a xlink:href="project manager.svg" xlink:title="project manager">
<ellipse fill="none" stroke="black" cx="648.64" cy="-105" rx="68.79" ry="18"/>
<text text-anchor="middle" x="648.64" y="-101.3" font-family="Times New Roman,serif" font-size="14.00">project manager</text>
</a>
</g>
</g>
<!-- 0&#45;&gt;1 -->
<g id="edge1" class="edge">
<title>0&#45;&gt;1</title>
<path fill="none" stroke="black" d="M539.3,-173.79C544.77,-163.14 553.04,-149.85 563.64,-141 572.55,-133.56 583.25,-127.52 594.01,-122.69"/>
<polygon fill="black" stroke="black" points="595.56,-125.84 603.44,-118.75 592.86,-119.38 595.56,-125.84"/>
<text text-anchor="middle" x="579.14" y="-144.8" font-family="Times New Roman,serif" font-size="14.00">0.040</text>
</g>
<!-- 1&#45;&gt;0 -->
<g id="edge11" class="edge">
<title>1&#45;&gt;0</title>
<path fill="none" stroke="black" d="M632.52,-122.86C622.23,-133.12 608.3,-146.1 594.64,-156 586.9,-161.61 578.18,-166.98 569.74,-171.77"/>
<polygon fill="black" stroke="black" points="567.83,-168.82 560.75,-176.71 571.2,-174.96 567.83,-168.82"/>
<text text-anchor="middle" x="628.14" y="-144.8" font-family="Times New Roman,serif" font-size="14.00">0.059</text>
</g>
<!-- 1&#45;&gt;1 -->
<g id="edge10" class="edge">
<title>1&#45;&gt;1</title>
<path fill="none" stroke="black" d="M711.13,-112.68C725.23,-111.99 735.54,-109.43 735.54,-105 735.54,-101.71 729.86,-99.45 721.17,-98.23"/>
<polygon fill="black" stroke="black" points="721.4,-94.73 711.13,-97.32 720.77,-101.7 721.4,-94.73"/>
<text text-anchor="middle" x="751.04" y="-101.3" font-family="Times New Roman,serif" font-size="14.00">0.589</text>
</g>
<!-- 3 -->
<g id="node4" class="node">
<title>3</title>
<g id="a_node4"><a xlink:href="programme researcher.svg" xlink:title="programme researcher">
<ellipse fill="none" stroke="black" cx="91.64" cy="-18" rx="91.78" ry="18"/>
<text text-anchor="middle" x="91.64" y="-14.3" font-family="Times New Roman,serif" font-size="14.00">programme researcher</text>
</a>
</g>
</g>
<!-- 1&#45;&gt;3 -->
<g id="edge12" class="edge">
<title>1&#45;&gt;3</title>
<path fill="none" stroke="black" d="M579.61,-104.87C493.13,-104.51 340.95,-99.01 214.64,-69 186.26,-62.26 155.88,-49.96 132.41,-39.25"/>
<polygon fill="black" stroke="black" points="133.67,-35.97 123.13,-34.93 130.72,-42.32 133.67,-35.97"/>
<text text-anchor="middle" x="230.14" y="-57.8" font-family="Times New Roman,serif" font-size="14.00">0.050</text>
</g>
<!-- 4 -->
<g id="node5" class="node">
<title>4</title>
<g id="a_node5"><a xlink:href="pharmacovigilance officer.svg" xlink:title="pharmacovigilance officer">
<ellipse fill="none" stroke="black" cx="305.64" cy="-18" rx="104.78" ry="18"/>
<text text-anchor="middle" x="305.64" y="-14.3" font-family="Times New Roman,serif" font-size="14.00">pharmacovigilance officer</text>
</a>
</g>
</g>
<!-- 1&#45;&gt;4 -->
<g id="edge14" class="edge">
<title>1&#45;&gt;4</title>
<path fill="none" stroke="black" d="M580.76,-101.53C528.68,-98.01 455.61,-89.5 394.64,-69 374.8,-62.33 354.32,-51.17 338.01,-41.08"/>
<polygon fill="black" stroke="black" points="339.73,-38.03 329.42,-35.62 335.98,-43.94 339.73,-38.03"/>
<text text-anchor="middle" x="410.14" y="-57.8" font-family="Times New Roman,serif" font-size="14.00">0.037</text>
</g>
<!-- 5 -->
<g id="node6" class="node">
<title>5</title>
<g id="a_node6"><a xlink:href="production manager.svg" xlink:title="production manager">
<ellipse fill="none" stroke="black" cx="511.64" cy="-18" rx="83.39" ry="18"/>
<text text-anchor="middle" x="511.64" y="-14.3" font-family="Times New Roman,serif" font-size="14.00">production manager</text>
</a>
</g>
</g>
<!-- 1&#45;&gt;5 -->
<g id="edge13" class="edge">
<title>1&#45;&gt;5</title>
<path fill="none" stroke="black" d="M584.42,-98.3C563.28,-93.43 541.23,-84.65 525.64,-69 519.65,-62.98 516.17,-54.62 514.17,-46.46"/>
<polygon fill="black" stroke="black" points="517.57,-45.62 512.34,-36.41 510.69,-46.88 517.57,-45.62"/>
<text text-anchor="middle" x="541.14" y="-57.8" font-family="Times New Roman,serif" font-size="14.00">0.043</text>
</g>
<!-- 6 -->
<g id="node7" class="node">
<title>6</title>
<g id="a_node7"><a xlink:href="qa analyst.svg" xlink:title="qa analyst">
<ellipse fill="none" stroke="black" cx="659.64" cy="-18" rx="46.59" ry="18"/>
<text text-anchor="middle" x="659.64" y="-14.3" font-family="Times New Roman,serif" font-size="14.00">qa analyst</text>
</a>
</g>
</g>
<!-- 1&#45;&gt;6 -->
<g id="edge16" class="edge">
<title>1&#45;&gt;6</title>
<path fill="none" stroke="black" d="M629.16,-87.37C620.48,-77.88 613.3,-65.58 618.64,-54 620.89,-49.13 624.18,-44.69 627.94,-40.73"/>
<polygon fill="black" stroke="black" points="630.59,-43.05 635.59,-33.71 625.86,-37.89 630.59,-43.05"/>
<text text-anchor="middle" x="634.14" y="-57.8" font-family="Times New Roman,serif" font-size="14.00">0.026</text>
</g>
<!-- 7 -->
<g id="node8" class="node">
<title>7</title>
<g id="a_node8"><a xlink:href="sales manager.svg" xlink:title="sales manager">
<ellipse fill="none" stroke="black" cx="785.64" cy="-18" rx="61.19" ry="18"/>
<text text-anchor="middle" x="785.64" y="-14.3" font-family="Times New Roman,serif" font-size="14.00">sales manager</text>
</a>
</g>
</g>
<!-- 1&#45;&gt;7 -->
<g id="edge15" class="edge">
<title>1&#45;&gt;7</title>
<path fill="none" stroke="black" d="M673.1,-88.02C688.4,-78.09 708.57,-65.15 726.64,-54 734.37,-49.23 742.74,-44.19 750.67,-39.48"/>
<polygon fill="black" stroke="black" points="752.56,-42.42 759.39,-34.31 749,-36.4 752.56,-42.42"/>
<text text-anchor="middle" x="742.14" y="-57.8" font-family="Times New Roman,serif" font-size="14.00">0.035</text>
</g>
<!-- 9 -->
<g id="node10" class="node">
<title>9</title>
<g id="a_node10"><a xlink:href="facilities manager.svg" xlink:title="facilities manager">
<ellipse fill="none" stroke="black" cx="937.64" cy="-18" rx="72.59" ry="18"/>
<text text-anchor="middle" x="937.64" y="-14.3" font-family="Times New Roman,serif" font-size="14.00">facilities manager</text>
</a>
</g>
</g>
<!-- 1&#45;&gt;9 -->
<g id="edge19" class="edge">
<title>1&#45;&gt;9</title>
<path fill="none" stroke="black" d="M703.62,-94.02C734.48,-87.89 773.53,-79.25 807.64,-69 823.84,-64.13 861.14,-49.66 891.65,-37.53"/>
<polygon fill="black" stroke="black" points="893.29,-40.64 901.28,-33.69 890.7,-34.14 893.29,-40.64"/>
<text text-anchor="middle" x="864.14" y="-57.8" font-family="Times New Roman,serif" font-size="14.00">0.021</text>
</g>
<!-- 10 -->
<g id="node11" class="node">
<title>10</title>
<g id="a_node11"><a xlink:href="geographical information systems manager.svg" xlink:title="geographical information systems manager">
<ellipse fill="none" stroke="black" cx="1193.64" cy="-18" rx="165.17" ry="18"/>
<text text-anchor="middle" x="1193.64" y="-14.3" font-family="Times New Roman,serif" font-size="14.00">geographical information systems manager</text>
</a>
</g>
</g>
<!-- 1&#45;&gt;10 -->
<g id="edge17" class="edge">
<title>1&#45;&gt;10</title>
<path fill="none" stroke="black" d="M712.06,-97.8C771.34,-91.67 862.23,-81.43 940.64,-69 998.77,-59.79 1063.9,-46.85 1113.53,-36.45"/>
<polygon fill="black" stroke="black" points="1114.49,-39.82 1123.55,-34.34 1113.05,-32.97 1114.49,-39.82"/>
<text text-anchor="middle" x="1039.14" y="-57.8" font-family="Times New Roman,serif" font-size="14.00">0.023</text>
</g>
<!-- 11 -->
<g id="node12" class="node">
<title>11</title>
<g id="a_node12"><a xlink:href="logistics manager.svg" xlink:title="logistics manager">
<ellipse fill="none" stroke="black" cx="1450.64" cy="-18" rx="73.39" ry="18"/>
<text text-anchor="middle" x="1450.64" y="-14.3" font-family="Times New Roman,serif" font-size="14.00">logistics manager</text>
</a>
</g>
</g>
<!-- 1&#45;&gt;11 -->
<g id="edge18" class="edge">
<title>1&#45;&gt;11</title>
<path fill="none" stroke="black" d="M715.39,-100.37C842.78,-92.84 1129.14,-73.07 1367.64,-36 1374.18,-34.98 1380.99,-33.8 1387.77,-32.54"/>
<polygon fill="black" stroke="black" points="1388.48,-35.96 1397.65,-30.64 1387.16,-29.09 1388.48,-35.96"/>
<text text-anchor="middle" x="1246.14" y="-57.8" font-family="Times New Roman,serif" font-size="14.00">0.022</text>
</g>
<!-- 2 -->
<g id="node3" class="node">
<title>2</title>
<g id="a_node3"><a xlink:href="structural engineer.svg" xlink:title="structural engineer">
<ellipse fill="none" stroke="black" cx="680.64" cy="-192" rx="76.89" ry="18"/>
<text text-anchor="middle" x="680.64" y="-188.3" font-family="Times New Roman,serif" font-size="14.00">structural engineer</text>
</a>
</g>
</g>
<!-- 2&#45;&gt;1 -->
<g id="edge2" class="edge">
<title>2&#45;&gt;1</title>
<path fill="none" stroke="black" d="M674.17,-173.8C669.74,-162.05 663.79,-146.24 658.75,-132.84"/>
<polygon fill="black" stroke="black" points="661.91,-131.3 655.11,-123.18 655.36,-133.77 661.91,-131.3"/>
<text text-anchor="middle" x="682.14" y="-144.8" font-family="Times New Roman,serif" font-size="14.00">0.030</text>
</g>
<!-- 3&#45;&gt;1 -->
<g id="edge3" class="edge">
<title>3&#45;&gt;1</title>
<path fill="none" stroke="black" d="M146.9,-32.41C194.33,-43.53 264.66,-59.06 326.64,-69 410.7,-82.48 507.96,-92.25 573.4,-97.99"/>
<polygon fill="black" stroke="black" points="573.36,-101.5 583.62,-98.88 573.96,-94.53 573.36,-101.5"/>
<text text-anchor="middle" x="342.14" y="-57.8" font-family="Times New Roman,serif" font-size="14.00">0.021</text>
</g>
<!-- 4&#45;&gt;1 -->
<g id="edge4" class="edge">
<title>4&#45;&gt;1</title>
<path fill="none" stroke="black" d="M355,-33.91C390.37,-44.36 439.24,-58.31 482.64,-69 516.32,-77.3 554.14,-85.37 585.16,-91.66"/>
<polygon fill="black" stroke="black" points="584.49,-95.1 594.98,-93.64 585.87,-88.23 584.49,-95.1"/>
<text text-anchor="middle" x="498.14" y="-57.8" font-family="Times New Roman,serif" font-size="14.00">0.020</text>
</g>
<!-- 5&#45;&gt;1 -->
<g id="edge5" class="edge">
<title>5&#45;&gt;1</title>
<path fill="none" stroke="black" d="M533.54,-35.5C547.34,-45.62 565.68,-58.59 582.64,-69 591.01,-74.14 600.2,-79.3 608.99,-84.02"/>
<polygon fill="black" stroke="black" points="607.49,-87.18 617.97,-88.76 610.76,-80.99 607.49,-87.18"/>
<text text-anchor="middle" x="598.14" y="-57.8" font-family="Times New Roman,serif" font-size="14.00">0.020</text>
</g>
<!-- 6&#45;&gt;1 -->
<g id="edge6" class="edge">
<title>6&#45;&gt;1</title>
<path fill="none" stroke="black" d="M657.68,-36.14C656.55,-45.79 655.08,-58.08 653.64,-69 653.31,-71.56 652.95,-74.22 652.58,-76.88"/>
<polygon fill="black" stroke="black" points="649.09,-76.53 651.16,-86.92 656.02,-77.51 649.09,-76.53"/>
<text text-anchor="middle" x="671.14" y="-57.8" font-family="Times New Roman,serif" font-size="14.00">0.020</text>
</g>
<!-- 7&#45;&gt;1 -->
<g id="edge7" class="edge">
<title>7&#45;&gt;1</title>
<path fill="none" stroke="black" d="M781.3,-36.02C777.71,-46.87 771.56,-60.45 761.64,-69 749.02,-79.89 733.05,-87.39 717.11,-92.56"/>
<polygon fill="black" stroke="black" points="715.82,-89.29 707.23,-95.48 717.81,-96 715.82,-89.29"/>
<text text-anchor="middle" x="788.14" y="-57.8" font-family="Times New Roman,serif" font-size="14.00">0.020</text>
</g>
<!-- 8 -->
<g id="node9" class="node">
<title>8</title>
<g id="a_node9"><a xlink:href="investment analyst.svg" xlink:title="investment analyst">
<ellipse fill="none" stroke="black" cx="851.64" cy="-192" rx="76.89" ry="18"/>
<text text-anchor="middle" x="851.64" y="-188.3" font-family="Times New Roman,serif" font-size="14.00">investment analyst</text>
</a>
</g>
</g>
<!-- 8&#45;&gt;1 -->
<g id="edge8" class="edge">
<title>8&#45;&gt;1</title>
<path fill="none" stroke="black" d="M815.82,-176C781.55,-161.65 729.77,-139.97 692.93,-124.54"/>
<polygon fill="black" stroke="black" points="694.01,-121.2 683.43,-120.57 691.3,-127.66 694.01,-121.2"/>
<text text-anchor="middle" x="777.14" y="-144.8" font-family="Times New Roman,serif" font-size="14.00">0.019</text>
</g>
<!-- 9&#45;&gt;1 -->
<g id="edge9" class="edge">
<title>9&#45;&gt;1</title>
<path fill="none" stroke="black" d="M924.67,-35.73C914.93,-47.04 900.57,-61.27 884.64,-69 856.96,-82.43 781.91,-92.06 723.81,-97.78"/>
<polygon fill="black" stroke="black" points="723.16,-94.33 713.54,-98.77 723.83,-101.29 723.16,-94.33"/>
<text text-anchor="middle" x="921.14" y="-57.8" font-family="Times New Roman,serif" font-size="14.00">0.013</text>
</g>
</g>
</svg>
