<?xml version="1.0" encoding="UTF-8" standalone="no"?>
<!DOCTYPE svg PUBLIC "-//W3C//DTD SVG 1.1//EN"
 "http://www.w3.org/Graphics/SVG/1.1/DTD/svg11.dtd">
<!-- Generated by graphviz version 2.44.1 (20200629.0800)
 -->
<!-- Title: test Pages: 1 -->
<svg width="1275pt" height="218pt"
 viewBox="0.00 0.00 1274.99 218.00" xmlns="http://www.w3.org/2000/svg" xmlns:xlink="http://www.w3.org/1999/xlink">
<g id="graph0" class="graph" transform="scale(1 1) rotate(0) translate(4 214)">
<title>test</title>
<polygon fill="white" stroke="transparent" points="-4,4 -4,-214 1270.99,-214 1270.99,4 -4,4"/>
<!-- 0 -->
<g id="node1" class="node">
<title>0</title>
<g id="a_node1"><a xlink:href="lecturer.svg" xlink:title="lecturer">
<ellipse fill="none" stroke="black" cx="37.7" cy="-192" rx="37.89" ry="18"/>
<text text-anchor="middle" x="37.7" y="-188.3" font-family="Times New Roman,serif" font-size="14.00">lecturer</text>
</a>
</g>
</g>
<!-- 1 -->
<g id="node2" class="node">
<title>1</title>
<g id="a_node2"><a xlink:href="psychologist.svg" xlink:title="psychologist">
<ellipse fill="none" stroke="black" cx="360.7" cy="-105" rx="57.39" ry="18"/>
<text text-anchor="middle" x="360.7" y="-101.3" font-family="Times New Roman,serif" font-size="14.00">psychologist</text>
</a>
</g>
</g>
<!-- 0&#45;&gt;1 -->
<g id="edge1" class="edge">
<title>0&#45;&gt;1</title>
<path fill="none" stroke="black" d="M38.63,-173.52C40.2,-162.48 44.12,-148.86 53.7,-141 89.11,-111.93 213.97,-106.07 293.13,-105.39"/>
<polygon fill="black" stroke="black" points="293.52,-108.89 303.5,-105.33 293.48,-101.89 293.52,-108.89"/>
<text text-anchor="middle" x="69.2" y="-144.8" font-family="Times New Roman,serif" font-size="14.00">0.038</text>
</g>
<!-- 1&#45;&gt;0 -->
<g id="edge11" class="edge">
<title>1&#45;&gt;0</title>
<path fill="none" stroke="black" d="M314.18,-115.69C258.78,-127.63 163.68,-149.38 83.7,-174 81.12,-174.79 78.47,-175.65 75.81,-176.55"/>
<polygon fill="black" stroke="black" points="74.52,-173.29 66.24,-179.89 76.83,-179.9 74.52,-173.29"/>
<text text-anchor="middle" x="220.2" y="-144.8" font-family="Times New Roman,serif" font-size="14.00">0.136</text>
</g>
<!-- 1&#45;&gt;1 -->
<g id="edge10" class="edge">
<title>1&#45;&gt;1</title>
<path fill="none" stroke="black" d="M412.36,-112.79C425.78,-112.31 435.89,-109.72 435.89,-105 435.89,-101.57 430.55,-99.26 422.49,-98.07"/>
<polygon fill="black" stroke="black" points="422.62,-94.57 412.36,-97.21 422.02,-101.55 422.62,-94.57"/>
<text text-anchor="middle" x="451.39" y="-101.3" font-family="Times New Roman,serif" font-size="14.00">0.818</text>
</g>
<!-- 3 -->
<g id="node4" class="node">
<title>3</title>
<g id="a_node4"><a xlink:href="it consultant.svg" xlink:title="it consultant">
<ellipse fill="none" stroke="black" cx="78.7" cy="-18" rx="54.69" ry="18"/>
<text text-anchor="middle" x="78.7" y="-14.3" font-family="Times New Roman,serif" font-size="14.00">it consultant</text>
</a>
</g>
</g>
<!-- 1&#45;&gt;3 -->
<g id="edge13" class="edge">
<title>1&#45;&gt;3</title>
<path fill="none" stroke="black" d="M303.49,-103.34C235.25,-101.39 126.5,-94.28 95.7,-69 88.84,-63.38 84.74,-54.87 82.29,-46.46"/>
<polygon fill="black" stroke="black" points="85.65,-45.44 80.05,-36.45 78.82,-46.97 85.65,-45.44"/>
<text text-anchor="middle" x="111.2" y="-57.8" font-family="Times New Roman,serif" font-size="14.00">0.113</text>
</g>
<!-- 7 -->
<g id="node8" class="node">
<title>7</title>
<g id="a_node8"><a xlink:href="teacher.svg" xlink:title="teacher">
<ellipse fill="none" stroke="black" cx="187.7" cy="-18" rx="36.29" ry="18"/>
<text text-anchor="middle" x="187.7" y="-14.3" font-family="Times New Roman,serif" font-size="14.00">teacher</text>
</a>
</g>
</g>
<!-- 1&#45;&gt;7 -->
<g id="edge18" class="edge">
<title>1&#45;&gt;7</title>
<path fill="none" stroke="black" d="M308.19,-97.78C269.06,-92.15 219.87,-82.63 204.7,-69 198.1,-63.08 194.06,-54.49 191.59,-46.11"/>
<polygon fill="black" stroke="black" points="194.95,-45.12 189.29,-36.17 188.14,-46.7 194.95,-45.12"/>
<text text-anchor="middle" x="220.2" y="-57.8" font-family="Times New Roman,serif" font-size="14.00">0.045</text>
</g>
<!-- 9 -->
<g id="node10" class="node">
<title>9</title>
<g id="a_node10"><a xlink:href="careers adviser.svg" xlink:title="careers adviser">
<ellipse fill="none" stroke="black" cx="306.7" cy="-18" rx="64.99" ry="18"/>
<text text-anchor="middle" x="306.7" y="-14.3" font-family="Times New Roman,serif" font-size="14.00">careers adviser</text>
</a>
</g>
</g>
<!-- 1&#45;&gt;9 -->
<g id="edge12" class="edge">
<title>1&#45;&gt;9</title>
<path fill="none" stroke="black" d="M326.31,-90.44C317.36,-85.15 308.8,-78.12 303.7,-69 299.9,-62.22 299.12,-54.08 299.72,-46.35"/>
<polygon fill="black" stroke="black" points="303.21,-46.65 301.22,-36.24 296.29,-45.62 303.21,-46.65"/>
<text text-anchor="middle" x="319.2" y="-57.8" font-family="Times New Roman,serif" font-size="14.00">0.113</text>
</g>
<!-- 10 -->
<g id="node11" class="node">
<title>10</title>
<g id="a_node11"><a xlink:href="clinical research associate.svg" xlink:title="clinical research associate">
<ellipse fill="none" stroke="black" cx="493.7" cy="-18" rx="103.98" ry="18"/>
<text text-anchor="middle" x="493.7" y="-14.3" font-family="Times New Roman,serif" font-size="14.00">clinical research associate</text>
</a>
</g>
</g>
<!-- 1&#45;&gt;10 -->
<g id="edge14" class="edge">
<title>1&#45;&gt;10</title>
<path fill="none" stroke="black" d="M384.78,-88.61C405.49,-75.37 435.62,-56.12 458.94,-41.21"/>
<polygon fill="black" stroke="black" points="460.97,-44.07 467.51,-35.73 457.2,-38.17 460.97,-44.07"/>
<text text-anchor="middle" x="451.2" y="-57.8" font-family="Times New Roman,serif" font-size="14.00">0.068</text>
</g>
<!-- 11 -->
<g id="node12" class="node">
<title>11</title>
<g id="a_node12"><a xlink:href="child psychotherapist.svg" xlink:title="child psychotherapist">
<ellipse fill="none" stroke="black" cx="703.7" cy="-18" rx="88.28" ry="18"/>
<text text-anchor="middle" x="703.7" y="-14.3" font-family="Times New Roman,serif" font-size="14.00">child psychotherapist</text>
</a>
</g>
</g>
<!-- 1&#45;&gt;11 -->
<g id="edge15" class="edge">
<title>1&#45;&gt;11</title>
<path fill="none" stroke="black" d="M404.14,-93.23C463.76,-78.46 571.35,-51.8 640.06,-34.77"/>
<polygon fill="black" stroke="black" points="641.04,-38.13 649.91,-32.33 639.36,-31.34 641.04,-38.13"/>
<text text-anchor="middle" x="568.2" y="-57.8" font-family="Times New Roman,serif" font-size="14.00">0.045</text>
</g>
<!-- 12 -->
<g id="node13" class="node">
<title>12</title>
<g id="a_node13"><a xlink:href="human resources officer.svg" xlink:title="human resources officer">
<ellipse fill="none" stroke="black" cx="908.7" cy="-18" rx="98.58" ry="18"/>
<text text-anchor="middle" x="908.7" y="-14.3" font-family="Times New Roman,serif" font-size="14.00">human resources officer</text>
</a>
</g>
</g>
<!-- 1&#45;&gt;12 -->
<g id="edge16" class="edge">
<title>1&#45;&gt;12</title>
<path fill="none" stroke="black" d="M410.85,-96.3C492.55,-83.75 659.41,-58.06 800.7,-36 809.14,-34.68 817.96,-33.3 826.76,-31.92"/>
<polygon fill="black" stroke="black" points="827.33,-35.37 836.66,-30.36 826.24,-28.46 827.33,-35.37"/>
<text text-anchor="middle" x="695.2" y="-57.8" font-family="Times New Roman,serif" font-size="14.00">0.045</text>
</g>
<!-- 13 -->
<g id="node14" class="node">
<title>13</title>
<g id="a_node14"><a xlink:href="social researcher.svg" xlink:title="social researcher">
<ellipse fill="none" stroke="black" cx="1096.7" cy="-18" rx="71.49" ry="18"/>
<text text-anchor="middle" x="1096.7" y="-14.3" font-family="Times New Roman,serif" font-size="14.00">social researcher</text>
</a>
</g>
</g>
<!-- 1&#45;&gt;13 -->
<g id="edge17" class="edge">
<title>1&#45;&gt;13</title>
<path fill="none" stroke="black" d="M416.26,-100.34C529.66,-92.42 795.68,-71.47 1016.7,-36 1022.86,-35.01 1029.27,-33.86 1035.65,-32.63"/>
<polygon fill="black" stroke="black" points="1036.5,-36.03 1045.63,-30.65 1035.14,-29.17 1036.5,-36.03"/>
<text text-anchor="middle" x="907.2" y="-57.8" font-family="Times New Roman,serif" font-size="14.00">0.045</text>
</g>
<!-- 14 -->
<g id="node15" class="node">
<title>14</title>
<g id="a_node15"><a xlink:href="barrister.svg" xlink:title="barrister">
<ellipse fill="none" stroke="black" cx="1226.7" cy="-18" rx="40.09" ry="18"/>
<text text-anchor="middle" x="1226.7" y="-14.3" font-family="Times New Roman,serif" font-size="14.00">barrister</text>
</a>
</g>
</g>
<!-- 1&#45;&gt;14 -->
<g id="edge19" class="edge">
<title>1&#45;&gt;14</title>
<path fill="none" stroke="black" d="M417.03,-101.81C518.92,-97.57 740.51,-87.02 926.7,-69 1038.25,-58.2 1067.56,-61.49 1176.7,-36 1180.1,-35.2 1183.61,-34.27 1187.1,-33.25"/>
<polygon fill="black" stroke="black" points="1188.33,-36.53 1196.83,-30.22 1186.24,-29.85 1188.33,-36.53"/>
<text text-anchor="middle" x="1097.2" y="-57.8" font-family="Times New Roman,serif" font-size="14.00">0.022</text>
</g>
<!-- 2 -->
<g id="node3" class="node">
<title>2</title>
<g id="a_node3"><a xlink:href="research scientist.svg" xlink:title="research scientist">
<ellipse fill="none" stroke="black" cx="165.7" cy="-192" rx="72.59" ry="18"/>
<text text-anchor="middle" x="165.7" y="-188.3" font-family="Times New Roman,serif" font-size="14.00">research scientist</text>
</a>
</g>
</g>
<!-- 2&#45;&gt;1 -->
<g id="edge2" class="edge">
<title>2&#45;&gt;1</title>
<path fill="none" stroke="black" d="M200.11,-176C233.29,-161.54 283.55,-139.63 318.99,-124.18"/>
<polygon fill="black" stroke="black" points="320.8,-127.21 328.57,-120 318,-120.79 320.8,-127.21"/>
<text text-anchor="middle" x="291.2" y="-144.8" font-family="Times New Roman,serif" font-size="14.00">0.038</text>
</g>
<!-- 3&#45;&gt;1 -->
<g id="edge3" class="edge">
<title>3&#45;&gt;1</title>
<path fill="none" stroke="black" d="M99.48,-34.71C115.41,-45.98 138.38,-60.59 160.7,-69 204.09,-85.35 255.7,-94.14 295.62,-98.82"/>
<polygon fill="black" stroke="black" points="295.44,-102.32 305.77,-99.95 296.21,-95.37 295.44,-102.32"/>
<text text-anchor="middle" x="176.2" y="-57.8" font-family="Times New Roman,serif" font-size="14.00">0.025</text>
</g>
<!-- 4 -->
<g id="node5" class="node">
<title>4</title>
<g id="a_node5"><a xlink:href="pharmacovigilance officer.svg" xlink:title="pharmacovigilance officer">
<ellipse fill="none" stroke="black" cx="360.7" cy="-192" rx="104.78" ry="18"/>
<text text-anchor="middle" x="360.7" y="-188.3" font-family="Times New Roman,serif" font-size="14.00">pharmacovigilance officer</text>
</a>
</g>
</g>
<!-- 4&#45;&gt;1 -->
<g id="edge4" class="edge">
<title>4&#45;&gt;1</title>
<path fill="none" stroke="black" d="M360.7,-173.8C360.7,-162.16 360.7,-146.55 360.7,-133.24"/>
<polygon fill="black" stroke="black" points="364.2,-133.18 360.7,-123.18 357.2,-133.18 364.2,-133.18"/>
<text text-anchor="middle" x="376.2" y="-144.8" font-family="Times New Roman,serif" font-size="14.00">0.025</text>
</g>
<!-- 5 -->
<g id="node6" class="node">
<title>5</title>
<g id="a_node6"><a xlink:href="project manager.svg" xlink:title="project manager">
<ellipse fill="none" stroke="black" cx="552.7" cy="-192" rx="68.79" ry="18"/>
<text text-anchor="middle" x="552.7" y="-188.3" font-family="Times New Roman,serif" font-size="14.00">project manager</text>
</a>
</g>
</g>
<!-- 5&#45;&gt;1 -->
<g id="edge5" class="edge">
<title>5&#45;&gt;1</title>
<path fill="none" stroke="black" d="M519.25,-176.19C486.65,-161.76 436.99,-139.78 401.95,-124.26"/>
<polygon fill="black" stroke="black" points="403.04,-120.92 392.48,-120.07 400.21,-127.32 403.04,-120.92"/>
<text text-anchor="middle" x="484.2" y="-144.8" font-family="Times New Roman,serif" font-size="14.00">0.025</text>
</g>
<!-- 6 -->
<g id="node7" class="node">
<title>6</title>
<g id="a_node7"><a xlink:href="secretary.svg" xlink:title="secretary">
<ellipse fill="none" stroke="black" cx="682.7" cy="-192" rx="43.59" ry="18"/>
<text text-anchor="middle" x="682.7" y="-188.3" font-family="Times New Roman,serif" font-size="14.00">secretary</text>
</a>
</g>
</g>
<!-- 6&#45;&gt;1 -->
<g id="edge6" class="edge">
<title>6&#45;&gt;1</title>
<path fill="none" stroke="black" d="M650.06,-179.99C643.66,-177.93 636.99,-175.84 630.7,-174 556.9,-152.37 470.54,-131.36 415.74,-118.56"/>
<polygon fill="black" stroke="black" points="416.42,-115.12 405.89,-116.26 414.84,-121.94 416.42,-115.12"/>
<text text-anchor="middle" x="579.2" y="-144.8" font-family="Times New Roman,serif" font-size="14.00">0.025</text>
</g>
<!-- 7&#45;&gt;1 -->
<g id="edge7" class="edge">
<title>7&#45;&gt;1</title>
<path fill="none" stroke="black" d="M207.51,-33.41C222.87,-44.15 244.96,-58.69 265.7,-69 280.28,-76.26 296.76,-82.85 311.85,-88.3"/>
<polygon fill="black" stroke="black" points="310.94,-91.69 321.53,-91.72 313.27,-85.09 310.94,-91.69"/>
<text text-anchor="middle" x="281.2" y="-57.8" font-family="Times New Roman,serif" font-size="14.00">0.025</text>
</g>
<!-- 8 -->
<g id="node9" class="node">
<title>8</title>
<g id="a_node9"><a xlink:href="academic librarian.svg" xlink:title="academic librarian">
<ellipse fill="none" stroke="black" cx="820.7" cy="-192" rx="76.09" ry="18"/>
<text text-anchor="middle" x="820.7" y="-188.3" font-family="Times New Roman,serif" font-size="14.00">academic librarian</text>
</a>
</g>
</g>
<!-- 8&#45;&gt;1 -->
<g id="edge8" class="edge">
<title>8&#45;&gt;1</title>
<path fill="none" stroke="black" d="M770.22,-178.49C725.37,-167.65 657.93,-152.01 598.7,-141 539.28,-129.96 470.99,-120.21 422.84,-113.83"/>
<polygon fill="black" stroke="black" points="423.25,-110.36 412.88,-112.52 422.34,-117.3 423.25,-110.36"/>
<text text-anchor="middle" x="687.2" y="-144.8" font-family="Times New Roman,serif" font-size="14.00">0.012</text>
</g>
<!-- 9&#45;&gt;1 -->
<g id="edge9" class="edge">
<title>9&#45;&gt;1</title>
<path fill="none" stroke="black" d="M323.85,-35.52C329.03,-41.07 334.47,-47.52 338.7,-54 343.43,-61.26 347.59,-69.71 350.98,-77.58"/>
<polygon fill="black" stroke="black" points="347.84,-79.15 354.85,-87.09 354.32,-76.51 347.84,-79.15"/>
<text text-anchor="middle" x="363.2" y="-57.8" font-family="Times New Roman,serif" font-size="14.00">0.012</text>
</g>
</g>
</svg>
