<?xml version="1.0" encoding="UTF-8" standalone="no"?>
<!DOCTYPE svg PUBLIC "-//W3C//DTD SVG 1.1//EN"
 "http://www.w3.org/Graphics/SVG/1.1/DTD/svg11.dtd">
<!-- Generated by graphviz version 2.44.1 (20200629.0800)
 -->
<!-- Title: psychotherapist Pages: 1 -->
<svg width="346pt" height="218pt"
 viewBox="0.00 0.00 345.89 218.00" xmlns="http://www.w3.org/2000/svg" xmlns:xlink="http://www.w3.org/1999/xlink">
<g id="graph0" class="graph" transform="scale(1 1) rotate(0) translate(4 214)">
<title>psychotherapist</title>
<polygon fill="white" stroke="transparent" points="-4,4 -4,-214 341.89,-214 341.89,4 -4,4"/>
<!-- 0 -->
<g id="node1" class="node">
<title>0</title>
<g id="a_node1"><a xlink:href="accountant.svg" xlink:title="accountant">
<ellipse fill="none" stroke="black" cx="129.39" cy="-192" rx="50.09" ry="18"/>
<text text-anchor="middle" x="129.39" y="-188.3" font-family="Times New Roman,serif" font-size="14.00">accountant</text>
</a>
</g>
</g>
<!-- 1 -->
<g id="node2" class="node">
<title>1</title>
<g id="a_node2"><a xlink:href="psychotherapist.svg" xlink:title="psychotherapist">
<ellipse fill="none" stroke="black" cx="129.39" cy="-105" rx="68.49" ry="18"/>
<text text-anchor="middle" x="129.39" y="-101.3" font-family="Times New Roman,serif" font-size="14.00">psychotherapist</text>
</a>
</g>
</g>
<!-- 0&#45;&gt;1 -->
<g id="edge1" class="edge">
<title>0&#45;&gt;1</title>
<path fill="none" stroke="black" d="M129.39,-173.8C129.39,-162.16 129.39,-146.55 129.39,-133.24"/>
<polygon fill="black" stroke="black" points="132.89,-133.18 129.39,-123.18 125.89,-133.18 132.89,-133.18"/>
<text text-anchor="middle" x="138.39" y="-144.8" font-family="Times New Roman,serif" font-size="14.00">0.5</text>
</g>
<!-- 2 -->
<g id="node3" class="node">
<title>2</title>
<g id="a_node3"><a xlink:href="child psychotherapist.svg" xlink:title="child psychotherapist">
<ellipse fill="none" stroke="black" cx="88.39" cy="-18" rx="88.28" ry="18"/>
<text text-anchor="middle" x="88.39" y="-14.3" font-family="Times New Roman,serif" font-size="14.00">child psychotherapist</text>
</a>
</g>
</g>
<!-- 1&#45;&gt;2 -->
<g id="edge3" class="edge">
<title>1&#45;&gt;2</title>
<path fill="none" stroke="black" d="M101.78,-88.2C95.2,-82.99 89.04,-76.56 85.39,-69 82.02,-62 81.36,-53.79 81.94,-46.08"/>
<polygon fill="black" stroke="black" points="85.43,-46.4 83.36,-36.01 78.5,-45.43 85.43,-46.4"/>
<text text-anchor="middle" x="94.39" y="-57.8" font-family="Times New Roman,serif" font-size="14.00">0.5</text>
</g>
<!-- 3 -->
<g id="node4" class="node">
<title>3</title>
<g id="a_node4"><a xlink:href="heritage manager.svg" xlink:title="heritage manager">
<ellipse fill="none" stroke="black" cx="266.39" cy="-18" rx="71.49" ry="18"/>
<text text-anchor="middle" x="266.39" y="-14.3" font-family="Times New Roman,serif" font-size="14.00">heritage manager</text>
</a>
</g>
</g>
<!-- 1&#45;&gt;3 -->
<g id="edge4" class="edge">
<title>1&#45;&gt;3</title>
<path fill="none" stroke="black" d="M154.84,-88.21C176.52,-74.76 207.88,-55.3 231.83,-40.44"/>
<polygon fill="black" stroke="black" points="233.96,-43.24 240.62,-34.99 230.27,-37.29 233.96,-43.24"/>
<text text-anchor="middle" x="214.39" y="-57.8" font-family="Times New Roman,serif" font-size="14.00">0.5</text>
</g>
<!-- 2&#45;&gt;1 -->
<g id="edge2" class="edge">
<title>2&#45;&gt;1</title>
<path fill="none" stroke="black" d="M97.96,-35.94C101.07,-41.63 104.47,-48.04 107.39,-54 111.09,-61.54 114.87,-69.85 118.22,-77.5"/>
<polygon fill="black" stroke="black" points="115.02,-78.93 122.2,-86.71 121.45,-76.15 115.02,-78.93"/>
<text text-anchor="middle" x="124.39" y="-57.8" font-family="Times New Roman,serif" font-size="14.00">0.5</text>
</g>
</g>
</svg>
