<?xml version="1.0" encoding="UTF-8" standalone="no"?>
<!DOCTYPE svg PUBLIC "-//W3C//DTD SVG 1.1//EN"
 "http://www.w3.org/Graphics/SVG/1.1/DTD/svg11.dtd">
<!-- Generated by graphviz version 2.44.1 (20200629.0800)
 -->
<!-- Title: public_house_manager Pages: 1 -->
<svg width="1459pt" height="218pt"
 viewBox="0.00 0.00 1459.13 218.00" xmlns="http://www.w3.org/2000/svg" xmlns:xlink="http://www.w3.org/1999/xlink">
<g id="graph0" class="graph" transform="scale(1 1) rotate(0) translate(4 214)">
<title>public_house_manager</title>
<polygon fill="white" stroke="transparent" points="-4,4 -4,-214 1455.13,-214 1455.13,4 -4,4"/>
<!-- 0 -->
<g id="node1" class="node">
<title>0</title>
<g id="a_node1"><a xlink:href="sales manager.svg" xlink:title="sales manager">
<ellipse fill="none" stroke="black" cx="206.64" cy="-192" rx="61.19" ry="18"/>
<text text-anchor="middle" x="206.64" y="-188.3" font-family="Times New Roman,serif" font-size="14.00">sales manager</text>
</a>
</g>
</g>
<!-- 1 -->
<g id="node2" class="node">
<title>1</title>
<g id="a_node2"><a xlink:href="public house manager.svg" xlink:title="public house manager">
<ellipse fill="none" stroke="black" cx="520.64" cy="-105" rx="89.88" ry="18"/>
<text text-anchor="middle" x="520.64" y="-101.3" font-family="Times New Roman,serif" font-size="14.00">public house manager</text>
</a>
</g>
</g>
<!-- 0&#45;&gt;1 -->
<g id="edge1" class="edge">
<title>0&#45;&gt;1</title>
<path fill="none" stroke="black" d="M213.44,-173.75C218.81,-162.51 227.45,-148.57 239.64,-141 269.6,-122.4 354.21,-113.66 422.82,-109.56"/>
<polygon fill="black" stroke="black" points="423.03,-113.05 432.82,-108.99 422.63,-106.07 423.03,-113.05"/>
<text text-anchor="middle" x="255.14" y="-144.8" font-family="Times New Roman,serif" font-size="14.00">0.072</text>
</g>
<!-- 1&#45;&gt;0 -->
<g id="edge19" class="edge">
<title>1&#45;&gt;0</title>
<path fill="none" stroke="black" d="M469.43,-119.86C411.7,-135.49 318.27,-160.78 259.76,-176.62"/>
<polygon fill="black" stroke="black" points="258.71,-173.28 249.97,-179.27 260.54,-180.04 258.71,-173.28"/>
<text text-anchor="middle" x="398.14" y="-144.8" font-family="Times New Roman,serif" font-size="14.00">0.029</text>
</g>
<!-- 1&#45;&gt;1 -->
<g id="edge11" class="edge">
<title>1&#45;&gt;1</title>
<path fill="none" stroke="black" d="M602.35,-112.47C617.6,-111.55 628.33,-109.06 628.33,-105 628.33,-101.92 622.17,-99.75 612.55,-98.47"/>
<polygon fill="black" stroke="black" points="612.63,-94.97 602.35,-97.53 611.98,-101.94 612.63,-94.97"/>
<text text-anchor="middle" x="643.83" y="-101.3" font-family="Times New Roman,serif" font-size="14.00">0.072</text>
</g>
<!-- 2 -->
<g id="node3" class="node">
<title>2</title>
<g id="a_node3"><a xlink:href="pharmacovigilance officer.svg" xlink:title="pharmacovigilance officer">
<ellipse fill="none" stroke="black" cx="104.64" cy="-18" rx="104.78" ry="18"/>
<text text-anchor="middle" x="104.64" y="-14.3" font-family="Times New Roman,serif" font-size="14.00">pharmacovigilance officer</text>
</a>
</g>
</g>
<!-- 1&#45;&gt;2 -->
<g id="edge10" class="edge">
<title>1&#45;&gt;2</title>
<path fill="none" stroke="black" d="M431.04,-103.47C365.16,-100.89 274.14,-92.72 197.64,-69 176.62,-62.48 154.86,-51.08 137.67,-40.81"/>
<polygon fill="black" stroke="black" points="139.49,-37.81 129.14,-35.57 135.83,-43.78 139.49,-37.81"/>
<text text-anchor="middle" x="213.14" y="-57.8" font-family="Times New Roman,serif" font-size="14.00">0.072</text>
</g>
<!-- 3 -->
<g id="node4" class="node">
<title>3</title>
<g id="a_node4"><a xlink:href="project manager.svg" xlink:title="project manager">
<ellipse fill="none" stroke="black" cx="296.64" cy="-18" rx="68.79" ry="18"/>
<text text-anchor="middle" x="296.64" y="-14.3" font-family="Times New Roman,serif" font-size="14.00">project manager</text>
</a>
</g>
</g>
<!-- 1&#45;&gt;3 -->
<g id="edge12" class="edge">
<title>1&#45;&gt;3</title>
<path fill="none" stroke="black" d="M441.17,-96.45C411.87,-91.41 379.14,-83 351.64,-69 339.12,-62.62 327.3,-52.63 317.85,-43.24"/>
<polygon fill="black" stroke="black" points="320.27,-40.7 310.81,-35.93 315.22,-45.56 320.27,-40.7"/>
<text text-anchor="middle" x="367.14" y="-57.8" font-family="Times New Roman,serif" font-size="14.00">0.058</text>
</g>
<!-- 8 -->
<g id="node9" class="node">
<title>8</title>
<g id="a_node9"><a xlink:href="production manager.svg" xlink:title="production manager">
<ellipse fill="none" stroke="black" cx="466.64" cy="-18" rx="83.39" ry="18"/>
<text text-anchor="middle" x="466.64" y="-14.3" font-family="Times New Roman,serif" font-size="14.00">production manager</text>
</a>
</g>
</g>
<!-- 1&#45;&gt;8 -->
<g id="edge13" class="edge">
<title>1&#45;&gt;8</title>
<path fill="none" stroke="black" d="M483.29,-88.61C475.44,-83.57 468.18,-77.11 463.64,-69 459.85,-62.22 459.07,-54.08 459.66,-46.35"/>
<polygon fill="black" stroke="black" points="463.15,-46.65 461.16,-36.24 456.23,-45.62 463.15,-46.65"/>
<text text-anchor="middle" x="479.14" y="-57.8" font-family="Times New Roman,serif" font-size="14.00">0.036</text>
</g>
<!-- 10 -->
<g id="node11" class="node">
<title>10</title>
<g id="a_node11"><a xlink:href="retail manager.svg" xlink:title="retail manager">
<ellipse fill="none" stroke="black" cx="628.64" cy="-18" rx="60.39" ry="18"/>
<text text-anchor="middle" x="628.64" y="-14.3" font-family="Times New Roman,serif" font-size="14.00">retail manager</text>
</a>
</g>
</g>
<!-- 1&#45;&gt;10 -->
<g id="edge14" class="edge">
<title>1&#45;&gt;10</title>
<path fill="none" stroke="black" d="M541.72,-87.41C558.44,-74.25 581.96,-55.74 600.32,-41.29"/>
<polygon fill="black" stroke="black" points="602.65,-43.91 608.35,-34.97 598.32,-38.41 602.65,-43.91"/>
<text text-anchor="middle" x="597.14" y="-57.8" font-family="Times New Roman,serif" font-size="14.00">0.036</text>
</g>
<!-- 11 -->
<g id="node12" class="node">
<title>11</title>
<g id="a_node12"><a xlink:href="broadcasting presenter.svg" xlink:title="broadcasting presenter">
<ellipse fill="none" stroke="black" cx="799.64" cy="-18" rx="92.88" ry="18"/>
<text text-anchor="middle" x="799.64" y="-14.3" font-family="Times New Roman,serif" font-size="14.00">broadcasting presenter</text>
</a>
</g>
</g>
<!-- 1&#45;&gt;11 -->
<g id="edge15" class="edge">
<title>1&#45;&gt;11</title>
<path fill="none" stroke="black" d="M567.97,-89.58C616.17,-74.9 690.94,-52.12 742.43,-36.43"/>
<polygon fill="black" stroke="black" points="743.53,-39.75 752.08,-33.49 741.49,-33.06 743.53,-39.75"/>
<text text-anchor="middle" x="693.14" y="-57.8" font-family="Times New Roman,serif" font-size="14.00">0.029</text>
</g>
<!-- 12 -->
<g id="node13" class="node">
<title>12</title>
<g id="a_node13"><a xlink:href="facilities manager.svg" xlink:title="facilities manager">
<ellipse fill="none" stroke="black" cx="983.64" cy="-18" rx="72.59" ry="18"/>
<text text-anchor="middle" x="983.64" y="-14.3" font-family="Times New Roman,serif" font-size="14.00">facilities manager</text>
</a>
</g>
</g>
<!-- 1&#45;&gt;12 -->
<g id="edge16" class="edge">
<title>1&#45;&gt;12</title>
<path fill="none" stroke="black" d="M586.82,-92.76C662.9,-79.71 791.46,-57.25 901.64,-36 907.73,-34.83 914.07,-33.57 920.4,-32.29"/>
<polygon fill="black" stroke="black" points="921.21,-35.7 930.31,-30.28 919.81,-28.84 921.21,-35.7"/>
<text text-anchor="middle" x="812.14" y="-57.8" font-family="Times New Roman,serif" font-size="14.00">0.029</text>
</g>
<!-- 13 -->
<g id="node14" class="node">
<title>13</title>
<g id="a_node14"><a xlink:href="marketing executive.svg" xlink:title="marketing executive">
<ellipse fill="none" stroke="black" cx="1156.64" cy="-18" rx="81.79" ry="18"/>
<text text-anchor="middle" x="1156.64" y="-14.3" font-family="Times New Roman,serif" font-size="14.00">marketing executive</text>
</a>
</g>
</g>
<!-- 1&#45;&gt;13 -->
<g id="edge17" class="edge">
<title>1&#45;&gt;13</title>
<path fill="none" stroke="black" d="M598.98,-96.13C705.09,-85.04 900.26,-63.09 1065.64,-36 1072.73,-34.84 1080.11,-33.56 1087.48,-32.25"/>
<polygon fill="black" stroke="black" points="1088.26,-35.67 1097.48,-30.45 1087.01,-28.78 1088.26,-35.67"/>
<text text-anchor="middle" x="962.14" y="-57.8" font-family="Times New Roman,serif" font-size="14.00">0.029</text>
</g>
<!-- 14 -->
<g id="node15" class="node">
<title>14</title>
<g id="a_node15"><a xlink:href="public affairs consultant.svg" xlink:title="public affairs consultant">
<ellipse fill="none" stroke="black" cx="1353.64" cy="-18" rx="97.48" ry="18"/>
<text text-anchor="middle" x="1353.64" y="-14.3" font-family="Times New Roman,serif" font-size="14.00">public affairs consultant</text>
</a>
</g>
</g>
<!-- 1&#45;&gt;14 -->
<g id="edge18" class="edge">
<title>1&#45;&gt;14</title>
<path fill="none" stroke="black" d="M605.29,-98.79C697.84,-92.8 850.46,-82.11 981.64,-69 1100.18,-57.15 1129.7,-52.77 1247.64,-36 1256,-34.81 1264.71,-33.51 1273.4,-32.18"/>
<polygon fill="black" stroke="black" points="1274.22,-35.59 1283.56,-30.6 1273.14,-28.68 1274.22,-35.59"/>
<text text-anchor="middle" x="1130.14" y="-57.8" font-family="Times New Roman,serif" font-size="14.00">0.029</text>
</g>
<!-- 2&#45;&gt;1 -->
<g id="edge2" class="edge">
<title>2&#45;&gt;1</title>
<path fill="none" stroke="black" d="M155.38,-33.79C193.68,-44.58 247.65,-59.01 295.64,-69 342.22,-78.69 394.73,-87.01 437.3,-93.1"/>
<polygon fill="black" stroke="black" points="436.95,-96.58 447.34,-94.52 437.93,-89.65 436.95,-96.58"/>
<text text-anchor="middle" x="311.14" y="-57.8" font-family="Times New Roman,serif" font-size="14.00">0.048</text>
</g>
<!-- 3&#45;&gt;1 -->
<g id="edge3" class="edge">
<title>3&#45;&gt;1</title>
<path fill="none" stroke="black" d="M333.28,-33.39C359.06,-43.47 394.41,-57.2 425.64,-69 439.93,-74.4 455.48,-80.17 469.77,-85.44"/>
<polygon fill="black" stroke="black" points="468.84,-88.82 479.43,-88.99 471.26,-82.25 468.84,-88.82"/>
<text text-anchor="middle" x="441.14" y="-57.8" font-family="Times New Roman,serif" font-size="14.00">0.048</text>
</g>
<!-- 4 -->
<g id="node5" class="node">
<title>4</title>
<g id="a_node5"><a xlink:href="catering manager.svg" xlink:title="catering manager">
<ellipse fill="none" stroke="black" cx="357.64" cy="-192" rx="71.49" ry="18"/>
<text text-anchor="middle" x="357.64" y="-188.3" font-family="Times New Roman,serif" font-size="14.00">catering manager</text>
</a>
</g>
</g>
<!-- 4&#45;&gt;1 -->
<g id="edge4" class="edge">
<title>4&#45;&gt;1</title>
<path fill="none" stroke="black" d="M387.54,-175.41C413.74,-161.74 452.04,-141.77 480.84,-126.76"/>
<polygon fill="black" stroke="black" points="482.58,-129.8 489.83,-122.07 479.34,-123.59 482.58,-129.8"/>
<text text-anchor="middle" x="465.14" y="-144.8" font-family="Times New Roman,serif" font-size="14.00">0.036</text>
</g>
<!-- 5 -->
<g id="node6" class="node">
<title>5</title>
<g id="a_node6"><a xlink:href="financial manager.svg" xlink:title="financial manager">
<ellipse fill="none" stroke="black" cx="520.64" cy="-192" rx="73.39" ry="18"/>
<text text-anchor="middle" x="520.64" y="-188.3" font-family="Times New Roman,serif" font-size="14.00">financial manager</text>
</a>
</g>
</g>
<!-- 5&#45;&gt;1 -->
<g id="edge5" class="edge">
<title>5&#45;&gt;1</title>
<path fill="none" stroke="black" d="M520.64,-173.8C520.64,-162.16 520.64,-146.55 520.64,-133.24"/>
<polygon fill="black" stroke="black" points="524.14,-133.18 520.64,-123.18 517.14,-133.18 524.14,-133.18"/>
<text text-anchor="middle" x="536.14" y="-144.8" font-family="Times New Roman,serif" font-size="14.00">0.036</text>
</g>
<!-- 6 -->
<g id="node7" class="node">
<title>6</title>
<g id="a_node7"><a xlink:href="office manager.svg" xlink:title="office manager">
<ellipse fill="none" stroke="black" cx="676.64" cy="-192" rx="64.19" ry="18"/>
<text text-anchor="middle" x="676.64" y="-188.3" font-family="Times New Roman,serif" font-size="14.00">office manager</text>
</a>
</g>
</g>
<!-- 6&#45;&gt;1 -->
<g id="edge6" class="edge">
<title>6&#45;&gt;1</title>
<path fill="none" stroke="black" d="M648.39,-175.61C623.46,-162.02 586.9,-142.1 559.27,-127.05"/>
<polygon fill="black" stroke="black" points="560.73,-123.86 550.27,-122.15 557.38,-130 560.73,-123.86"/>
<text text-anchor="middle" x="624.14" y="-144.8" font-family="Times New Roman,serif" font-size="14.00">0.036</text>
</g>
<!-- 7 -->
<g id="node8" class="node">
<title>7</title>
<g id="a_node8"><a xlink:href="human resources officer.svg" xlink:title="human resources officer">
<ellipse fill="none" stroke="black" cx="857.64" cy="-192" rx="98.58" ry="18"/>
<text text-anchor="middle" x="857.64" y="-188.3" font-family="Times New Roman,serif" font-size="14.00">human resources officer</text>
</a>
</g>
</g>
<!-- 7&#45;&gt;1 -->
<g id="edge7" class="edge">
<title>7&#45;&gt;1</title>
<path fill="none" stroke="black" d="M802.37,-177.06C742.46,-161.95 647.01,-137.87 584.08,-122"/>
<polygon fill="black" stroke="black" points="584.82,-118.58 574.27,-119.53 583.11,-125.37 584.82,-118.58"/>
<text text-anchor="middle" x="725.14" y="-144.8" font-family="Times New Roman,serif" font-size="14.00">0.024</text>
</g>
<!-- 8&#45;&gt;1 -->
<g id="edge8" class="edge">
<title>8&#45;&gt;1</title>
<path fill="none" stroke="black" d="M484.12,-35.88C489.21,-41.35 494.5,-47.65 498.64,-54 503.3,-61.15 507.4,-69.45 510.76,-77.21"/>
<polygon fill="black" stroke="black" points="507.59,-78.69 514.61,-86.63 514.07,-76.05 507.59,-78.69"/>
<text text-anchor="middle" x="523.14" y="-57.8" font-family="Times New Roman,serif" font-size="14.00">0.024</text>
</g>
<!-- 9 -->
<g id="node10" class="node">
<title>9</title>
<g id="a_node10"><a xlink:href="retail merchandiser.svg" xlink:title="retail merchandiser">
<ellipse fill="none" stroke="black" cx="1052.64" cy="-192" rx="78.79" ry="18"/>
<text text-anchor="middle" x="1052.64" y="-188.3" font-family="Times New Roman,serif" font-size="14.00">retail merchandiser</text>
</a>
</g>
</g>
<!-- 9&#45;&gt;1 -->
<g id="edge9" class="edge">
<title>9&#45;&gt;1</title>
<path fill="none" stroke="black" d="M995.61,-179.51C985.63,-177.6 975.34,-175.69 965.64,-174 839.05,-151.97 691.51,-130.19 602.15,-117.42"/>
<polygon fill="black" stroke="black" points="602.47,-113.93 592.08,-115.99 601.49,-120.86 602.47,-113.93"/>
<text text-anchor="middle" x="871.14" y="-144.8" font-family="Times New Roman,serif" font-size="14.00">0.024</text>
</g>
</g>
</svg>
