<?xml version="1.0" encoding="UTF-8" standalone="no"?>
<!DOCTYPE svg PUBLIC "-//W3C//DTD SVG 1.1//EN"
 "http://www.w3.org/Graphics/SVG/1.1/DTD/svg11.dtd">
<!-- Generated by graphviz version 2.44.1 (20200629.0800)
 -->
<!-- Title: test Pages: 1 -->
<svg width="1429pt" height="218pt"
 viewBox="0.00 0.00 1428.98 218.00" xmlns="http://www.w3.org/2000/svg" xmlns:xlink="http://www.w3.org/1999/xlink">
<g id="graph0" class="graph" transform="scale(1 1) rotate(0) translate(4 214)">
<title>test</title>
<polygon fill="white" stroke="transparent" points="-4,4 -4,-214 1424.98,-214 1424.98,4 -4,4"/>
<!-- 0 -->
<g id="node1" class="node">
<title>0</title>
<g id="a_node1"><a xlink:href="it consultant.svg" xlink:title="it consultant">
<ellipse fill="none" stroke="black" cx="443.69" cy="-192" rx="54.69" ry="18"/>
<text text-anchor="middle" x="443.69" y="-188.3" font-family="Times New Roman,serif" font-size="14.00">it consultant</text>
</a>
</g>
</g>
<!-- 1 -->
<g id="node2" class="node">
<title>1</title>
<g id="a_node2"><a xlink:href="qa analyst.svg" xlink:title="qa analyst">
<ellipse fill="none" stroke="black" cx="575.69" cy="-105" rx="46.59" ry="18"/>
<text text-anchor="middle" x="575.69" y="-101.3" font-family="Times New Roman,serif" font-size="14.00">qa analyst</text>
</a>
</g>
</g>
<!-- 0&#45;&gt;1 -->
<g id="edge1" class="edge">
<title>0&#45;&gt;1</title>
<path fill="none" stroke="black" d="M455.51,-174.34C463.79,-163.64 475.68,-150.1 488.69,-141 501.05,-132.36 515.86,-125.39 529.72,-120.01"/>
<polygon fill="black" stroke="black" points="530.95,-123.29 539.12,-116.54 528.53,-116.72 530.95,-123.29"/>
<text text-anchor="middle" x="504.19" y="-144.8" font-family="Times New Roman,serif" font-size="14.00">0.083</text>
</g>
<!-- 1&#45;&gt;0 -->
<g id="edge11" class="edge">
<title>1&#45;&gt;0</title>
<path fill="none" stroke="black" d="M560.09,-122.25C549.4,-132.78 534.52,-146.28 519.69,-156 509.64,-162.59 498.14,-168.58 487.19,-173.66"/>
<polygon fill="black" stroke="black" points="485.44,-170.61 477.75,-177.89 488.31,-177 485.44,-170.61"/>
<text text-anchor="middle" x="555.19" y="-144.8" font-family="Times New Roman,serif" font-size="14.00">0.105</text>
</g>
<!-- 1&#45;&gt;1 -->
<g id="edge10" class="edge">
<title>1&#45;&gt;1</title>
<path fill="none" stroke="black" d="M618.07,-112.86C630.68,-112.62 640.49,-110 640.49,-105 640.49,-101.48 635.64,-99.14 628.38,-97.98"/>
<polygon fill="black" stroke="black" points="628.32,-94.47 618.07,-97.14 627.75,-101.44 628.32,-94.47"/>
<text text-anchor="middle" x="655.99" y="-101.3" font-family="Times New Roman,serif" font-size="14.00">0.325</text>
</g>
<!-- 2 -->
<g id="node3" class="node">
<title>2</title>
<g id="a_node3"><a xlink:href="investment analyst.svg" xlink:title="investment analyst">
<ellipse fill="none" stroke="black" cx="76.69" cy="-18" rx="76.89" ry="18"/>
<text text-anchor="middle" x="76.69" y="-14.3" font-family="Times New Roman,serif" font-size="14.00">investment analyst</text>
</a>
</g>
</g>
<!-- 1&#45;&gt;2 -->
<g id="edge14" class="edge">
<title>1&#45;&gt;2</title>
<path fill="none" stroke="black" d="M529.23,-102.67C435.95,-99.56 229.05,-90.43 161.69,-69 142.19,-62.8 122.37,-51.48 106.78,-41.19"/>
<polygon fill="black" stroke="black" points="108.35,-38.03 98.12,-35.29 104.41,-43.81 108.35,-38.03"/>
<text text-anchor="middle" x="177.19" y="-57.8" font-family="Times New Roman,serif" font-size="14.00">0.082</text>
</g>
<!-- 3 -->
<g id="node4" class="node">
<title>3</title>
<g id="a_node4"><a xlink:href="software developer.svg" xlink:title="software developer">
<ellipse fill="none" stroke="black" cx="251.69" cy="-18" rx="79.89" ry="18"/>
<text text-anchor="middle" x="251.69" y="-14.3" font-family="Times New Roman,serif" font-size="14.00">software developer</text>
</a>
</g>
</g>
<!-- 1&#45;&gt;3 -->
<g id="edge12" class="edge">
<title>1&#45;&gt;3</title>
<path fill="none" stroke="black" d="M528.43,-104.82C475.01,-104.13 386.42,-98.07 316.69,-69 301.89,-62.83 287.53,-52.41 276.08,-42.67"/>
<polygon fill="black" stroke="black" points="278.11,-39.79 268.3,-35.77 273.46,-45.02 278.11,-39.79"/>
<text text-anchor="middle" x="332.19" y="-57.8" font-family="Times New Roman,serif" font-size="14.00">0.090</text>
</g>
<!-- 4 -->
<g id="node5" class="node">
<title>4</title>
<g id="a_node5"><a xlink:href="systems analyst.svg" xlink:title="systems analyst">
<ellipse fill="none" stroke="black" cx="417.69" cy="-18" rx="67.69" ry="18"/>
<text text-anchor="middle" x="417.69" y="-14.3" font-family="Times New Roman,serif" font-size="14.00">systems analyst</text>
</a>
</g>
</g>
<!-- 1&#45;&gt;4 -->
<g id="edge15" class="edge">
<title>1&#45;&gt;4</title>
<path fill="none" stroke="black" d="M530.82,-99.55C505.06,-95.15 473.25,-86.4 449.69,-69 441.33,-62.82 434.58,-53.74 429.48,-45.01"/>
<polygon fill="black" stroke="black" points="432.56,-43.34 424.76,-36.17 426.39,-46.64 432.56,-43.34"/>
<text text-anchor="middle" x="465.19" y="-57.8" font-family="Times New Roman,serif" font-size="14.00">0.074</text>
</g>
<!-- 5 -->
<g id="node6" class="node">
<title>5</title>
<g id="a_node6"><a xlink:href="project manager.svg" xlink:title="project manager">
<ellipse fill="none" stroke="black" cx="571.69" cy="-18" rx="68.79" ry="18"/>
<text text-anchor="middle" x="571.69" y="-14.3" font-family="Times New Roman,serif" font-size="14.00">project manager</text>
</a>
</g>
</g>
<!-- 1&#45;&gt;5 -->
<g id="edge13" class="edge">
<title>1&#45;&gt;5</title>
<path fill="none" stroke="black" d="M557.99,-88.17C553.04,-82.65 548.3,-76.06 545.69,-69 542.59,-60.6 545.03,-51.81 549.44,-43.99"/>
<polygon fill="black" stroke="black" points="552.39,-45.89 555.08,-35.64 546.58,-41.97 552.39,-45.89"/>
<text text-anchor="middle" x="561.19" y="-57.8" font-family="Times New Roman,serif" font-size="14.00">0.086</text>
</g>
<!-- 7 -->
<g id="node8" class="node">
<title>7</title>
<g id="a_node8"><a xlink:href="pharmacovigilance officer.svg" xlink:title="pharmacovigilance officer">
<ellipse fill="none" stroke="black" cx="763.69" cy="-18" rx="104.78" ry="18"/>
<text text-anchor="middle" x="763.69" y="-14.3" font-family="Times New Roman,serif" font-size="14.00">pharmacovigilance officer</text>
</a>
</g>
</g>
<!-- 1&#45;&gt;7 -->
<g id="edge16" class="edge">
<title>1&#45;&gt;7</title>
<path fill="none" stroke="black" d="M600.67,-89.76C619.59,-79.24 646.38,-64.92 670.69,-54 683.11,-48.42 696.7,-42.96 709.57,-38.07"/>
<polygon fill="black" stroke="black" points="711.1,-41.23 719.24,-34.45 708.65,-34.68 711.1,-41.23"/>
<text text-anchor="middle" x="686.19" y="-57.8" font-family="Times New Roman,serif" font-size="14.00">0.028</text>
</g>
<!-- 9 -->
<g id="node10" class="node">
<title>9</title>
<g id="a_node10"><a xlink:href="sales manager.svg" xlink:title="sales manager">
<ellipse fill="none" stroke="black" cx="947.69" cy="-18" rx="61.19" ry="18"/>
<text text-anchor="middle" x="947.69" y="-14.3" font-family="Times New Roman,serif" font-size="14.00">sales manager</text>
</a>
</g>
</g>
<!-- 1&#45;&gt;9 -->
<g id="edge17" class="edge">
<title>1&#45;&gt;9</title>
<path fill="none" stroke="black" d="M617.76,-96.96C655.37,-90.45 711.93,-80.12 760.69,-69 767.37,-67.48 841.35,-47.62 894.23,-33.4"/>
<polygon fill="black" stroke="black" points="895.41,-36.7 904.16,-30.73 893.6,-29.95 895.41,-36.7"/>
<text text-anchor="middle" x="830.19" y="-57.8" font-family="Times New Roman,serif" font-size="14.00">0.024</text>
</g>
<!-- 10 -->
<g id="node11" class="node">
<title>10</title>
<g id="a_node11"><a xlink:href="production manager.svg" xlink:title="production manager">
<ellipse fill="none" stroke="black" cx="1109.69" cy="-18" rx="83.39" ry="18"/>
<text text-anchor="middle" x="1109.69" y="-14.3" font-family="Times New Roman,serif" font-size="14.00">production manager</text>
</a>
</g>
</g>
<!-- 1&#45;&gt;10 -->
<g id="edge18" class="edge">
<title>1&#45;&gt;10</title>
<path fill="none" stroke="black" d="M621.77,-101.71C688.55,-97.87 815.93,-88.53 922.69,-69 967.91,-60.73 1018.19,-47.02 1055.22,-36.05"/>
<polygon fill="black" stroke="black" points="1056.23,-39.4 1064.81,-33.18 1054.23,-32.69 1056.23,-39.4"/>
<text text-anchor="middle" x="1005.19" y="-57.8" font-family="Times New Roman,serif" font-size="14.00">0.020</text>
</g>
<!-- 11 -->
<g id="node12" class="node">
<title>11</title>
<g id="a_node12"><a xlink:href="quality assurance manager.svg" xlink:title="quality assurance manager">
<ellipse fill="none" stroke="black" cx="1315.69" cy="-18" rx="105.08" ry="18"/>
<text text-anchor="middle" x="1315.69" y="-14.3" font-family="Times New Roman,serif" font-size="14.00">quality assurance manager</text>
</a>
</g>
</g>
<!-- 1&#45;&gt;11 -->
<g id="edge19" class="edge">
<title>1&#45;&gt;11</title>
<path fill="none" stroke="black" d="M622.05,-101.8C703.67,-97.61 878.25,-87.25 1024.69,-69 1098.14,-59.85 1181.32,-45.11 1239.88,-34"/>
<polygon fill="black" stroke="black" points="1240.62,-37.43 1249.79,-32.11 1239.31,-30.55 1240.62,-37.43"/>
<text text-anchor="middle" x="1136.19" y="-57.8" font-family="Times New Roman,serif" font-size="14.00">0.018</text>
</g>
<!-- 2&#45;&gt;1 -->
<g id="edge2" class="edge">
<title>2&#45;&gt;1</title>
<path fill="none" stroke="black" d="M119.51,-33C155.69,-44.32 209.08,-59.84 256.69,-69 347.78,-86.53 455.3,-96.06 519.37,-100.58"/>
<polygon fill="black" stroke="black" points="519.43,-104.1 529.65,-101.29 519.92,-97.11 519.43,-104.1"/>
<text text-anchor="middle" x="272.19" y="-57.8" font-family="Times New Roman,serif" font-size="14.00">0.081</text>
</g>
<!-- 3&#45;&gt;1 -->
<g id="edge3" class="edge">
<title>3&#45;&gt;1</title>
<path fill="none" stroke="black" d="M291.4,-33.72C321.4,-44.49 363.76,-58.9 401.69,-69 442.21,-79.78 488.81,-88.99 523.59,-95.25"/>
<polygon fill="black" stroke="black" points="523.06,-98.71 533.52,-97.02 524.29,-91.82 523.06,-98.71"/>
<text text-anchor="middle" x="417.19" y="-57.8" font-family="Times New Roman,serif" font-size="14.00">0.069</text>
</g>
<!-- 4&#45;&gt;1 -->
<g id="edge4" class="edge">
<title>4&#45;&gt;1</title>
<path fill="none" stroke="black" d="M445.84,-34.39C464.03,-44.32 488.23,-57.48 509.69,-69 519.67,-74.35 530.51,-80.13 540.47,-85.41"/>
<polygon fill="black" stroke="black" points="538.85,-88.51 549.33,-90.1 542.13,-82.32 538.85,-88.51"/>
<text text-anchor="middle" x="525.19" y="-57.8" font-family="Times New Roman,serif" font-size="14.00">0.066</text>
</g>
<!-- 5&#45;&gt;1 -->
<g id="edge5" class="edge">
<title>5&#45;&gt;1</title>
<path fill="none" stroke="black" d="M577.05,-36.28C578.54,-41.88 579.95,-48.15 580.69,-54 581.63,-61.41 581.38,-69.46 580.63,-76.89"/>
<polygon fill="black" stroke="black" points="577.16,-76.48 579.32,-86.85 584.1,-77.39 577.16,-76.48"/>
<text text-anchor="middle" x="597.19" y="-57.8" font-family="Times New Roman,serif" font-size="14.00">0.052</text>
</g>
<!-- 6 -->
<g id="node7" class="node">
<title>6</title>
<g id="a_node7"><a xlink:href="market research analyst.svg" xlink:title="market research analyst">
<ellipse fill="none" stroke="black" cx="610.69" cy="-192" rx="94.78" ry="18"/>
<text text-anchor="middle" x="610.69" y="-188.3" font-family="Times New Roman,serif" font-size="14.00">market research analyst</text>
</a>
</g>
</g>
<!-- 6&#45;&gt;1 -->
<g id="edge6" class="edge">
<title>6&#45;&gt;1</title>
<path fill="none" stroke="black" d="M603.61,-173.8C598.69,-161.85 592.05,-145.72 586.47,-132.18"/>
<polygon fill="black" stroke="black" points="589.69,-130.8 582.65,-122.89 583.22,-133.46 589.69,-130.8"/>
<text text-anchor="middle" x="611.19" y="-144.8" font-family="Times New Roman,serif" font-size="14.00">0.015</text>
</g>
<!-- 7&#45;&gt;1 -->
<g id="edge7" class="edge">
<title>7&#45;&gt;1</title>
<path fill="none" stroke="black" d="M747.94,-36.08C737.04,-46.95 721.67,-60.54 705.69,-69 681.73,-81.7 652.79,-90.07 628.3,-95.44"/>
<polygon fill="black" stroke="black" points="627.54,-92.02 618.46,-97.49 628.96,-98.87 627.54,-92.02"/>
<text text-anchor="middle" x="741.19" y="-57.8" font-family="Times New Roman,serif" font-size="14.00">0.015</text>
</g>
<!-- 8 -->
<g id="node9" class="node">
<title>8</title>
<g id="a_node9"><a xlink:href="lecturer.svg" xlink:title="lecturer">
<ellipse fill="none" stroke="black" cx="761.69" cy="-192" rx="37.89" ry="18"/>
<text text-anchor="middle" x="761.69" y="-188.3" font-family="Times New Roman,serif" font-size="14.00">lecturer</text>
</a>
</g>
</g>
<!-- 8&#45;&gt;1 -->
<g id="edge8" class="edge">
<title>8&#45;&gt;1</title>
<path fill="none" stroke="black" d="M735.44,-179C703.72,-164.51 650.12,-140.01 613.85,-123.44"/>
<polygon fill="black" stroke="black" points="615.12,-120.17 604.57,-119.19 612.21,-126.53 615.12,-120.17"/>
<text text-anchor="middle" x="695.19" y="-144.8" font-family="Times New Roman,serif" font-size="14.00">0.012</text>
</g>
<!-- 9&#45;&gt;1 -->
<g id="edge9" class="edge">
<title>9&#45;&gt;1</title>
<path fill="none" stroke="black" d="M923.75,-34.71C905.15,-46.13 878.29,-60.94 852.69,-69 778.92,-92.23 689.49,-100.1 632.59,-102.73"/>
<polygon fill="black" stroke="black" points="632.2,-99.25 622.36,-103.17 632.49,-106.24 632.2,-99.25"/>
<text text-anchor="middle" x="903.19" y="-57.8" font-family="Times New Roman,serif" font-size="14.00">0.012</text>
</g>
</g>
</svg>
