<?xml version="1.0" encoding="UTF-8" standalone="no"?>
<!DOCTYPE svg PUBLIC "-//W3C//DTD SVG 1.1//EN"
 "http://www.w3.org/Graphics/SVG/1.1/DTD/svg11.dtd">
<!-- Generated by graphviz version 2.44.1 (20200629.0800)
 -->
<!-- Title: qa_analyst Pages: 1 -->
<svg width="1385pt" height="218pt"
 viewBox="0.00 0.00 1384.89 218.00" xmlns="http://www.w3.org/2000/svg" xmlns:xlink="http://www.w3.org/1999/xlink">
<g id="graph0" class="graph" transform="scale(1 1) rotate(0) translate(4 214)">
<title>qa_analyst</title>
<polygon fill="white" stroke="transparent" points="-4,4 -4,-214 1380.89,-214 1380.89,4 -4,4"/>
<!-- 0 -->
<g id="node1" class="node">
<title>0</title>
<g id="a_node1"><a xlink:href="investment analyst.svg" xlink:title="investment analyst">
<ellipse fill="none" stroke="black" cx="378.6" cy="-192" rx="76.89" ry="18"/>
<text text-anchor="middle" x="378.6" y="-188.3" font-family="Times New Roman,serif" font-size="14.00">investment analyst</text>
</a>
</g>
</g>
<!-- 1 -->
<g id="node2" class="node">
<title>1</title>
<g id="a_node2"><a xlink:href="qa analyst.svg" xlink:title="qa analyst">
<ellipse fill="none" stroke="black" cx="531.6" cy="-105" rx="46.59" ry="18"/>
<text text-anchor="middle" x="531.6" y="-101.3" font-family="Times New Roman,serif" font-size="14.00">qa analyst</text>
</a>
</g>
</g>
<!-- 0&#45;&gt;1 -->
<g id="edge1" class="edge">
<title>0&#45;&gt;1</title>
<path fill="none" stroke="black" d="M396.56,-174.34C408.62,-163.77 425.24,-150.38 441.6,-141 455.67,-132.92 471.97,-125.95 486.8,-120.4"/>
<polygon fill="black" stroke="black" points="488.08,-123.66 496.29,-116.96 485.7,-117.08 488.08,-123.66"/>
<text text-anchor="middle" x="457.1" y="-144.8" font-family="Times New Roman,serif" font-size="14.00">0.080</text>
</g>
<!-- 1&#45;&gt;0 -->
<g id="edge14" class="edge">
<title>1&#45;&gt;0</title>
<path fill="none" stroke="black" d="M515.74,-122.11C504.48,-132.84 488.58,-146.64 472.6,-156 460.62,-163.01 447,-169.05 433.91,-174.04"/>
<polygon fill="black" stroke="black" points="432.69,-170.76 424.51,-177.48 435.1,-177.33 432.69,-170.76"/>
<text text-anchor="middle" x="509.1" y="-144.8" font-family="Times New Roman,serif" font-size="14.00">0.082</text>
</g>
<!-- 1&#45;&gt;1 -->
<g id="edge10" class="edge">
<title>1&#45;&gt;1</title>
<path fill="none" stroke="black" d="M573.97,-112.86C586.58,-112.62 596.39,-110 596.39,-105 596.39,-101.48 591.54,-99.14 584.28,-97.98"/>
<polygon fill="black" stroke="black" points="584.22,-94.47 573.97,-97.14 583.66,-101.44 584.22,-94.47"/>
<text text-anchor="middle" x="611.89" y="-101.3" font-family="Times New Roman,serif" font-size="14.00">0.323</text>
</g>
<!-- 2 -->
<g id="node3" class="node">
<title>2</title>
<g id="a_node3"><a xlink:href="it consultant.svg" xlink:title="it consultant">
<ellipse fill="none" stroke="black" cx="54.6" cy="-18" rx="54.69" ry="18"/>
<text text-anchor="middle" x="54.6" y="-14.3" font-family="Times New Roman,serif" font-size="14.00">it consultant</text>
</a>
</g>
</g>
<!-- 1&#45;&gt;2 -->
<g id="edge11" class="edge">
<title>1&#45;&gt;2</title>
<path fill="none" stroke="black" d="M484.89,-103.27C391.7,-101.29 186.03,-94.13 120.6,-69 105,-63.01 89.97,-52.16 78.2,-42.09"/>
<polygon fill="black" stroke="black" points="80.4,-39.36 70.6,-35.32 75.74,-44.59 80.4,-39.36"/>
<text text-anchor="middle" x="136.1" y="-57.8" font-family="Times New Roman,serif" font-size="14.00">0.101</text>
</g>
<!-- 3 -->
<g id="node4" class="node">
<title>3</title>
<g id="a_node4"><a xlink:href="software developer.svg" xlink:title="software developer">
<ellipse fill="none" stroke="black" cx="207.6" cy="-18" rx="79.89" ry="18"/>
<text text-anchor="middle" x="207.6" y="-14.3" font-family="Times New Roman,serif" font-size="14.00">software developer</text>
</a>
</g>
</g>
<!-- 1&#45;&gt;3 -->
<g id="edge12" class="edge">
<title>1&#45;&gt;3</title>
<path fill="none" stroke="black" d="M484.33,-104.82C430.91,-104.13 342.33,-98.07 272.6,-69 257.79,-62.83 243.43,-52.41 231.99,-42.67"/>
<polygon fill="black" stroke="black" points="234.01,-39.79 224.21,-35.77 229.37,-45.02 234.01,-39.79"/>
<text text-anchor="middle" x="288.1" y="-57.8" font-family="Times New Roman,serif" font-size="14.00">0.091</text>
</g>
<!-- 4 -->
<g id="node5" class="node">
<title>4</title>
<g id="a_node5"><a xlink:href="systems analyst.svg" xlink:title="systems analyst">
<ellipse fill="none" stroke="black" cx="373.6" cy="-18" rx="67.69" ry="18"/>
<text text-anchor="middle" x="373.6" y="-14.3" font-family="Times New Roman,serif" font-size="14.00">systems analyst</text>
</a>
</g>
</g>
<!-- 1&#45;&gt;4 -->
<g id="edge15" class="edge">
<title>1&#45;&gt;4</title>
<path fill="none" stroke="black" d="M486.73,-99.55C460.96,-95.15 429.15,-86.4 405.6,-69 397.23,-62.82 390.48,-53.74 385.38,-45.01"/>
<polygon fill="black" stroke="black" points="388.46,-43.34 380.67,-36.17 382.29,-46.64 388.46,-43.34"/>
<text text-anchor="middle" x="421.1" y="-57.8" font-family="Times New Roman,serif" font-size="14.00">0.072</text>
</g>
<!-- 5 -->
<g id="node6" class="node">
<title>5</title>
<g id="a_node6"><a xlink:href="project manager.svg" xlink:title="project manager">
<ellipse fill="none" stroke="black" cx="527.6" cy="-18" rx="68.79" ry="18"/>
<text text-anchor="middle" x="527.6" y="-14.3" font-family="Times New Roman,serif" font-size="14.00">project manager</text>
</a>
</g>
</g>
<!-- 1&#45;&gt;5 -->
<g id="edge13" class="edge">
<title>1&#45;&gt;5</title>
<path fill="none" stroke="black" d="M513.89,-88.17C508.94,-82.65 504.21,-76.06 501.6,-69 498.49,-60.6 500.93,-51.81 505.34,-43.99"/>
<polygon fill="black" stroke="black" points="508.29,-45.89 510.98,-35.64 502.49,-41.97 508.29,-45.89"/>
<text text-anchor="middle" x="517.1" y="-57.8" font-family="Times New Roman,serif" font-size="14.00">0.087</text>
</g>
<!-- 7 -->
<g id="node8" class="node">
<title>7</title>
<g id="a_node8"><a xlink:href="pharmacovigilance officer.svg" xlink:title="pharmacovigilance officer">
<ellipse fill="none" stroke="black" cx="719.6" cy="-18" rx="104.78" ry="18"/>
<text text-anchor="middle" x="719.6" y="-14.3" font-family="Times New Roman,serif" font-size="14.00">pharmacovigilance officer</text>
</a>
</g>
</g>
<!-- 1&#45;&gt;7 -->
<g id="edge16" class="edge">
<title>1&#45;&gt;7</title>
<path fill="none" stroke="black" d="M556.57,-89.76C575.49,-79.24 602.28,-64.92 626.6,-54 639.01,-48.42 652.6,-42.96 665.47,-38.07"/>
<polygon fill="black" stroke="black" points="667,-41.23 675.14,-34.45 664.55,-34.68 667,-41.23"/>
<text text-anchor="middle" x="642.1" y="-57.8" font-family="Times New Roman,serif" font-size="14.00">0.028</text>
</g>
<!-- 9 -->
<g id="node10" class="node">
<title>9</title>
<g id="a_node10"><a xlink:href="sales manager.svg" xlink:title="sales manager">
<ellipse fill="none" stroke="black" cx="903.6" cy="-18" rx="61.19" ry="18"/>
<text text-anchor="middle" x="903.6" y="-14.3" font-family="Times New Roman,serif" font-size="14.00">sales manager</text>
</a>
</g>
</g>
<!-- 1&#45;&gt;9 -->
<g id="edge17" class="edge">
<title>1&#45;&gt;9</title>
<path fill="none" stroke="black" d="M573.66,-96.96C611.28,-90.45 667.83,-80.12 716.6,-69 723.27,-67.48 797.25,-47.62 850.13,-33.4"/>
<polygon fill="black" stroke="black" points="851.32,-36.7 860.06,-30.73 849.5,-29.95 851.32,-36.7"/>
<text text-anchor="middle" x="786.1" y="-57.8" font-family="Times New Roman,serif" font-size="14.00">0.024</text>
</g>
<!-- 10 -->
<g id="node11" class="node">
<title>10</title>
<g id="a_node11"><a xlink:href="production manager.svg" xlink:title="production manager">
<ellipse fill="none" stroke="black" cx="1065.6" cy="-18" rx="83.39" ry="18"/>
<text text-anchor="middle" x="1065.6" y="-14.3" font-family="Times New Roman,serif" font-size="14.00">production manager</text>
</a>
</g>
</g>
<!-- 1&#45;&gt;10 -->
<g id="edge18" class="edge">
<title>1&#45;&gt;10</title>
<path fill="none" stroke="black" d="M577.67,-101.71C644.45,-97.87 771.83,-88.53 878.6,-69 923.81,-60.73 974.09,-47.02 1011.12,-36.05"/>
<polygon fill="black" stroke="black" points="1012.14,-39.4 1020.71,-33.18 1010.13,-32.69 1012.14,-39.4"/>
<text text-anchor="middle" x="961.1" y="-57.8" font-family="Times New Roman,serif" font-size="14.00">0.020</text>
</g>
<!-- 11 -->
<g id="node12" class="node">
<title>11</title>
<g id="a_node12"><a xlink:href="quality assurance manager.svg" xlink:title="quality assurance manager">
<ellipse fill="none" stroke="black" cx="1271.6" cy="-18" rx="105.08" ry="18"/>
<text text-anchor="middle" x="1271.6" y="-14.3" font-family="Times New Roman,serif" font-size="14.00">quality assurance manager</text>
</a>
</g>
</g>
<!-- 1&#45;&gt;11 -->
<g id="edge19" class="edge">
<title>1&#45;&gt;11</title>
<path fill="none" stroke="black" d="M577.95,-101.8C659.57,-97.61 834.15,-87.25 980.6,-69 1054.05,-59.85 1137.22,-45.11 1195.78,-34"/>
<polygon fill="black" stroke="black" points="1196.52,-37.43 1205.69,-32.11 1195.21,-30.55 1196.52,-37.43"/>
<text text-anchor="middle" x="1092.1" y="-57.8" font-family="Times New Roman,serif" font-size="14.00">0.018</text>
</g>
<!-- 2&#45;&gt;1 -->
<g id="edge2" class="edge">
<title>2&#45;&gt;1</title>
<path fill="none" stroke="black" d="M88.9,-32.02C120.56,-43.51 169.1,-59.83 212.6,-69 303.35,-88.14 410.98,-97.19 475.15,-101.18"/>
<polygon fill="black" stroke="black" points="475.26,-104.69 485.45,-101.8 475.68,-97.7 475.26,-104.69"/>
<text text-anchor="middle" x="228.1" y="-57.8" font-family="Times New Roman,serif" font-size="14.00">0.077</text>
</g>
<!-- 3&#45;&gt;1 -->
<g id="edge3" class="edge">
<title>3&#45;&gt;1</title>
<path fill="none" stroke="black" d="M247.3,-33.72C277.3,-44.49 319.66,-58.9 357.6,-69 398.11,-79.78 444.71,-88.99 479.49,-95.25"/>
<polygon fill="black" stroke="black" points="478.96,-98.71 489.42,-97.02 480.19,-91.82 478.96,-98.71"/>
<text text-anchor="middle" x="373.1" y="-57.8" font-family="Times New Roman,serif" font-size="14.00">0.069</text>
</g>
<!-- 4&#45;&gt;1 -->
<g id="edge4" class="edge">
<title>4&#45;&gt;1</title>
<path fill="none" stroke="black" d="M401.74,-34.39C419.93,-44.32 444.13,-57.48 465.6,-69 475.57,-74.35 486.41,-80.13 496.38,-85.41"/>
<polygon fill="black" stroke="black" points="494.75,-88.51 505.23,-90.1 498.03,-82.32 494.75,-88.51"/>
<text text-anchor="middle" x="481.1" y="-57.8" font-family="Times New Roman,serif" font-size="14.00">0.066</text>
</g>
<!-- 5&#45;&gt;1 -->
<g id="edge5" class="edge">
<title>5&#45;&gt;1</title>
<path fill="none" stroke="black" d="M532.96,-36.28C534.44,-41.88 535.85,-48.15 536.6,-54 537.53,-61.41 537.28,-69.46 536.54,-76.89"/>
<polygon fill="black" stroke="black" points="533.06,-76.48 535.22,-86.85 540,-77.39 533.06,-76.48"/>
<text text-anchor="middle" x="553.1" y="-57.8" font-family="Times New Roman,serif" font-size="14.00">0.053</text>
</g>
<!-- 6 -->
<g id="node7" class="node">
<title>6</title>
<g id="a_node7"><a xlink:href="market research analyst.svg" xlink:title="market research analyst">
<ellipse fill="none" stroke="black" cx="568.6" cy="-192" rx="94.78" ry="18"/>
<text text-anchor="middle" x="568.6" y="-188.3" font-family="Times New Roman,serif" font-size="14.00">market research analyst</text>
</a>
</g>
</g>
<!-- 6&#45;&gt;1 -->
<g id="edge6" class="edge">
<title>6&#45;&gt;1</title>
<path fill="none" stroke="black" d="M561.11,-173.8C555.91,-161.85 548.88,-145.72 542.99,-132.18"/>
<polygon fill="black" stroke="black" points="546.15,-130.66 538.95,-122.89 539.73,-133.45 546.15,-130.66"/>
<text text-anchor="middle" x="568.1" y="-144.8" font-family="Times New Roman,serif" font-size="14.00">0.015</text>
</g>
<!-- 7&#45;&gt;1 -->
<g id="edge7" class="edge">
<title>7&#45;&gt;1</title>
<path fill="none" stroke="black" d="M703.84,-36.08C692.94,-46.95 677.57,-60.54 661.6,-69 637.63,-81.7 608.69,-90.07 584.2,-95.44"/>
<polygon fill="black" stroke="black" points="583.44,-92.02 574.36,-97.49 584.86,-98.87 583.44,-92.02"/>
<text text-anchor="middle" x="697.1" y="-57.8" font-family="Times New Roman,serif" font-size="14.00">0.015</text>
</g>
<!-- 8 -->
<g id="node9" class="node">
<title>8</title>
<g id="a_node9"><a xlink:href="lecturer.svg" xlink:title="lecturer">
<ellipse fill="none" stroke="black" cx="719.6" cy="-192" rx="37.89" ry="18"/>
<text text-anchor="middle" x="719.6" y="-188.3" font-family="Times New Roman,serif" font-size="14.00">lecturer</text>
</a>
</g>
</g>
<!-- 8&#45;&gt;1 -->
<g id="edge8" class="edge">
<title>8&#45;&gt;1</title>
<path fill="none" stroke="black" d="M693.06,-179C661,-164.51 606.83,-140.01 570.16,-123.44"/>
<polygon fill="black" stroke="black" points="571.33,-120.12 560.78,-119.19 568.45,-126.5 571.33,-120.12"/>
<text text-anchor="middle" x="652.1" y="-144.8" font-family="Times New Roman,serif" font-size="14.00">0.012</text>
</g>
<!-- 9&#45;&gt;1 -->
<g id="edge9" class="edge">
<title>9&#45;&gt;1</title>
<path fill="none" stroke="black" d="M879.65,-34.71C861.05,-46.13 834.19,-60.94 808.6,-69 734.82,-92.23 645.39,-100.1 588.49,-102.73"/>
<polygon fill="black" stroke="black" points="588.1,-99.25 578.26,-103.17 588.4,-106.24 588.1,-99.25"/>
<text text-anchor="middle" x="859.1" y="-57.8" font-family="Times New Roman,serif" font-size="14.00">0.012</text>
</g>
</g>
</svg>
