<?xml version="1.0" encoding="UTF-8" standalone="no"?>
<!DOCTYPE svg PUBLIC "-//W3C//DTD SVG 1.1//EN"
 "http://www.w3.org/Graphics/SVG/1.1/DTD/svg11.dtd">
<!-- Generated by graphviz version 2.44.1 (20200629.0800)
 -->
<!-- Title: quality_assurance_manager Pages: 1 -->
<svg width="1471pt" height="218pt"
 viewBox="0.00 0.00 1470.88 218.00" xmlns="http://www.w3.org/2000/svg" xmlns:xlink="http://www.w3.org/1999/xlink">
<g id="graph0" class="graph" transform="scale(1 1) rotate(0) translate(4 214)">
<title>quality_assurance_manager</title>
<polygon fill="white" stroke="transparent" points="-4,4 -4,-214 1466.88,-214 1466.88,4 -4,4"/>
<!-- 0 -->
<g id="node1" class="node">
<title>0</title>
<g id="a_node1"><a xlink:href="project manager.svg" xlink:title="project manager">
<ellipse fill="none" stroke="black" cx="548.8" cy="-192" rx="68.79" ry="18"/>
<text text-anchor="middle" x="548.8" y="-188.3" font-family="Times New Roman,serif" font-size="14.00">project manager</text>
</a>
</g>
</g>
<!-- 1 -->
<g id="node2" class="node">
<title>1</title>
<g id="a_node2"><a xlink:href="quality assurance manager.svg" xlink:title="quality assurance manager">
<ellipse fill="none" stroke="black" cx="602.8" cy="-105" rx="105.08" ry="18"/>
<text text-anchor="middle" x="602.8" y="-101.3" font-family="Times New Roman,serif" font-size="14.00">quality assurance manager</text>
</a>
</g>
</g>
<!-- 0&#45;&gt;1 -->
<g id="edge1" class="edge">
<title>0&#45;&gt;1</title>
<path fill="none" stroke="black" d="M545.33,-173.77C544.18,-163.63 544.35,-150.89 549.8,-141 552.36,-136.35 555.83,-132.21 559.78,-128.56"/>
<polygon fill="black" stroke="black" points="562.22,-131.09 567.85,-122.12 557.85,-125.62 562.22,-131.09"/>
<text text-anchor="middle" x="565.3" y="-144.8" font-family="Times New Roman,serif" font-size="14.00">0.095</text>
</g>
<!-- 1&#45;&gt;0 -->
<g id="edge11" class="edge">
<title>1&#45;&gt;0</title>
<path fill="none" stroke="black" d="M596.77,-123.37C592.92,-133.33 587.42,-145.83 580.8,-156 578.42,-159.65 575.66,-163.28 572.78,-166.75"/>
<polygon fill="black" stroke="black" points="569.94,-164.67 565.94,-174.48 575.19,-169.3 569.94,-164.67"/>
<text text-anchor="middle" x="605.3" y="-144.8" font-family="Times New Roman,serif" font-size="14.00">0.098</text>
</g>
<!-- 1&#45;&gt;1 -->
<g id="edge10" class="edge">
<title>1&#45;&gt;1</title>
<path fill="none" stroke="black" d="M699.2,-112.3C715.12,-111.27 726.09,-108.83 726.09,-105 726.09,-102.03 719.53,-99.91 709.19,-98.62"/>
<polygon fill="black" stroke="black" points="709.48,-95.13 699.2,-97.7 708.84,-102.1 709.48,-95.13"/>
<text text-anchor="middle" x="741.59" y="-101.3" font-family="Times New Roman,serif" font-size="14.00">0.157</text>
</g>
<!-- 2 -->
<g id="node3" class="node">
<title>2</title>
<g id="a_node3"><a xlink:href="qa analyst.svg" xlink:title="qa analyst">
<ellipse fill="none" stroke="black" cx="46.8" cy="-18" rx="46.59" ry="18"/>
<text text-anchor="middle" x="46.8" y="-14.3" font-family="Times New Roman,serif" font-size="14.00">qa analyst</text>
</a>
</g>
</g>
<!-- 1&#45;&gt;2 -->
<g id="edge15" class="edge">
<title>1&#45;&gt;2</title>
<path fill="none" stroke="black" d="M497.51,-104.44C372.54,-103.61 172.43,-97.62 103.8,-69 90.05,-63.27 77.32,-52.83 67.39,-42.97"/>
<polygon fill="black" stroke="black" points="69.81,-40.45 60.38,-35.64 64.75,-45.28 69.81,-40.45"/>
<text text-anchor="middle" x="119.3" y="-57.8" font-family="Times New Roman,serif" font-size="14.00">0.046</text>
</g>
<!-- 3 -->
<g id="node4" class="node">
<title>3</title>
<g id="a_node4"><a xlink:href="it consultant.svg" xlink:title="it consultant">
<ellipse fill="none" stroke="black" cx="165.8" cy="-18" rx="54.69" ry="18"/>
<text text-anchor="middle" x="165.8" y="-14.3" font-family="Times New Roman,serif" font-size="14.00">it consultant</text>
</a>
</g>
</g>
<!-- 1&#45;&gt;3 -->
<g id="edge13" class="edge">
<title>1&#45;&gt;3</title>
<path fill="none" stroke="black" d="M497.51,-103.54C428.82,-100.75 337.93,-92.29 260.8,-69 238.61,-62.3 215.57,-50.32 197.73,-39.76"/>
<polygon fill="black" stroke="black" points="199.28,-36.6 188.91,-34.4 195.65,-42.59 199.28,-36.6"/>
<text text-anchor="middle" x="276.3" y="-57.8" font-family="Times New Roman,serif" font-size="14.00">0.059</text>
</g>
<!-- 4 -->
<g id="node5" class="node">
<title>4</title>
<g id="a_node5"><a xlink:href="pharmacovigilance officer.svg" xlink:title="pharmacovigilance officer">
<ellipse fill="none" stroke="black" cx="342.8" cy="-18" rx="104.78" ry="18"/>
<text text-anchor="middle" x="342.8" y="-14.3" font-family="Times New Roman,serif" font-size="14.00">pharmacovigilance officer</text>
</a>
</g>
</g>
<!-- 1&#45;&gt;4 -->
<g id="edge12" class="edge">
<title>1&#45;&gt;4</title>
<path fill="none" stroke="black" d="M518.55,-94.16C487.72,-88.88 453.01,-80.9 422.8,-69 405.38,-62.14 387.57,-51.44 373.19,-41.7"/>
<polygon fill="black" stroke="black" points="374.92,-38.64 364.71,-35.8 370.92,-44.38 374.92,-38.64"/>
<text text-anchor="middle" x="438.3" y="-57.8" font-family="Times New Roman,serif" font-size="14.00">0.092</text>
</g>
<!-- 5 -->
<g id="node6" class="node">
<title>5</title>
<g id="a_node6"><a xlink:href="production manager.svg" xlink:title="production manager">
<ellipse fill="none" stroke="black" cx="548.8" cy="-18" rx="83.39" ry="18"/>
<text text-anchor="middle" x="548.8" y="-14.3" font-family="Times New Roman,serif" font-size="14.00">production manager</text>
</a>
</g>
</g>
<!-- 1&#45;&gt;5 -->
<g id="edge14" class="edge">
<title>1&#45;&gt;5</title>
<path fill="none" stroke="black" d="M564.57,-88.04C557.06,-83.08 550.16,-76.8 545.8,-69 542,-62.22 541.22,-54.08 541.81,-46.35"/>
<polygon fill="black" stroke="black" points="545.31,-46.65 543.32,-36.24 538.39,-45.62 545.31,-46.65"/>
<text text-anchor="middle" x="561.3" y="-57.8" font-family="Times New Roman,serif" font-size="14.00">0.046</text>
</g>
<!-- 7 -->
<g id="node8" class="node">
<title>7</title>
<g id="a_node8"><a xlink:href="careers adviser.svg" xlink:title="careers adviser">
<ellipse fill="none" stroke="black" cx="714.8" cy="-18" rx="64.99" ry="18"/>
<text text-anchor="middle" x="714.8" y="-14.3" font-family="Times New Roman,serif" font-size="14.00">careers adviser</text>
</a>
</g>
</g>
<!-- 1&#45;&gt;7 -->
<g id="edge19" class="edge">
<title>1&#45;&gt;7</title>
<path fill="none" stroke="black" d="M619.13,-86.78C629.2,-76.64 642.66,-63.9 655.8,-54 662.42,-49.01 669.8,-44.15 677.04,-39.71"/>
<polygon fill="black" stroke="black" points="679.26,-42.46 686.07,-34.34 675.68,-36.44 679.26,-42.46"/>
<text text-anchor="middle" x="671.3" y="-57.8" font-family="Times New Roman,serif" font-size="14.00">0.026</text>
</g>
<!-- 8 -->
<g id="node9" class="node">
<title>8</title>
<g id="a_node9"><a xlink:href="facilities manager.svg" xlink:title="facilities manager">
<ellipse fill="none" stroke="black" cx="870.8" cy="-18" rx="72.59" ry="18"/>
<text text-anchor="middle" x="870.8" y="-14.3" font-family="Times New Roman,serif" font-size="14.00">facilities manager</text>
</a>
</g>
</g>
<!-- 1&#45;&gt;8 -->
<g id="edge16" class="edge">
<title>1&#45;&gt;8</title>
<path fill="none" stroke="black" d="M661.09,-89.97C684.46,-84 711.55,-76.66 735.8,-69 752.53,-63.71 791.55,-49.17 823.35,-37.13"/>
<polygon fill="black" stroke="black" points="824.85,-40.3 832.96,-33.48 822.37,-33.76 824.85,-40.3"/>
<text text-anchor="middle" x="790.3" y="-57.8" font-family="Times New Roman,serif" font-size="14.00">0.032</text>
</g>
<!-- 9 -->
<g id="node10" class="node">
<title>9</title>
<g id="a_node10"><a xlink:href="investment analyst.svg" xlink:title="investment analyst">
<ellipse fill="none" stroke="black" cx="1037.8" cy="-18" rx="76.89" ry="18"/>
<text text-anchor="middle" x="1037.8" y="-14.3" font-family="Times New Roman,serif" font-size="14.00">investment analyst</text>
</a>
</g>
</g>
<!-- 1&#45;&gt;9 -->
<g id="edge18" class="edge">
<title>1&#45;&gt;9</title>
<path fill="none" stroke="black" d="M694.03,-95.97C746.42,-90.4 813.22,-81.68 871.8,-69 894.06,-64.18 899,-60.6 920.8,-54 940.93,-47.91 963.04,-41.28 982.56,-35.44"/>
<polygon fill="black" stroke="black" points="983.63,-38.78 992.21,-32.56 981.63,-32.07 983.63,-38.78"/>
<text text-anchor="middle" x="936.3" y="-57.8" font-family="Times New Roman,serif" font-size="14.00">0.032</text>
</g>
<!-- 10 -->
<g id="node11" class="node">
<title>10</title>
<g id="a_node11"><a xlink:href="geographical information systems manager.svg" xlink:title="geographical information systems manager">
<ellipse fill="none" stroke="black" cx="1297.8" cy="-18" rx="165.17" ry="18"/>
<text text-anchor="middle" x="1297.8" y="-14.3" font-family="Times New Roman,serif" font-size="14.00">geographical information systems manager</text>
</a>
</g>
</g>
<!-- 1&#45;&gt;10 -->
<g id="edge17" class="edge">
<title>1&#45;&gt;10</title>
<path fill="none" stroke="black" d="M701.29,-98.45C786.38,-93.01 912.52,-83.43 1021.8,-69 1087.01,-60.39 1160.26,-46.94 1214.9,-36.16"/>
<polygon fill="black" stroke="black" points="1215.75,-39.56 1224.88,-34.18 1214.39,-32.69 1215.75,-39.56"/>
<text text-anchor="middle" x="1128.3" y="-57.8" font-family="Times New Roman,serif" font-size="14.00">0.032</text>
</g>
<!-- 2&#45;&gt;1 -->
<g id="edge2" class="edge">
<title>2&#45;&gt;1</title>
<path fill="none" stroke="black" d="M76.79,-31.89C105.49,-43.62 150.28,-60.39 190.8,-69 289.98,-90.09 405.15,-98.56 488.46,-101.92"/>
<polygon fill="black" stroke="black" points="488.34,-105.41 498.46,-102.3 488.61,-98.42 488.34,-105.41"/>
<text text-anchor="middle" x="206.3" y="-57.8" font-family="Times New Roman,serif" font-size="14.00">0.050</text>
</g>
<!-- 3&#45;&gt;1 -->
<g id="edge3" class="edge">
<title>3&#45;&gt;1</title>
<path fill="none" stroke="black" d="M206.44,-30.05C213.87,-32.05 221.56,-34.1 228.8,-36 286.03,-51.04 299.75,-57.47 357.8,-69 407.06,-78.79 462.43,-86.94 508.05,-92.9"/>
<polygon fill="black" stroke="black" points="507.86,-96.41 518.22,-94.22 508.75,-89.46 507.86,-96.41"/>
<text text-anchor="middle" x="373.3" y="-57.8" font-family="Times New Roman,serif" font-size="14.00">0.044</text>
</g>
<!-- 4&#45;&gt;1 -->
<g id="edge4" class="edge">
<title>4&#45;&gt;1</title>
<path fill="none" stroke="black" d="M389.31,-34.21C433.37,-48.61 499.6,-70.26 546.59,-85.63"/>
<polygon fill="black" stroke="black" points="545.72,-89.02 556.31,-88.8 547.9,-82.37 545.72,-89.02"/>
<text text-anchor="middle" x="504.3" y="-57.8" font-family="Times New Roman,serif" font-size="14.00">0.039</text>
</g>
<!-- 5&#45;&gt;1 -->
<g id="edge5" class="edge">
<title>5&#45;&gt;1</title>
<path fill="none" stroke="black" d="M566.28,-35.88C571.36,-41.35 576.66,-47.65 580.8,-54 585.46,-61.15 589.56,-69.45 592.92,-77.21"/>
<polygon fill="black" stroke="black" points="589.74,-78.69 596.77,-86.63 596.22,-76.05 589.74,-78.69"/>
<text text-anchor="middle" x="605.3" y="-57.8" font-family="Times New Roman,serif" font-size="14.00">0.033</text>
</g>
<!-- 6 -->
<g id="node7" class="node">
<title>6</title>
<g id="a_node7"><a xlink:href="software developer.svg" xlink:title="software developer">
<ellipse fill="none" stroke="black" cx="715.8" cy="-192" rx="79.89" ry="18"/>
<text text-anchor="middle" x="715.8" y="-188.3" font-family="Times New Roman,serif" font-size="14.00">software developer</text>
</a>
</g>
</g>
<!-- 6&#45;&gt;1 -->
<g id="edge6" class="edge">
<title>6&#45;&gt;1</title>
<path fill="none" stroke="black" d="M694.01,-174.61C676.69,-161.58 652.27,-143.21 633.05,-128.76"/>
<polygon fill="black" stroke="black" points="635,-125.84 624.9,-122.63 630.79,-131.44 635,-125.84"/>
<text text-anchor="middle" x="681.3" y="-144.8" font-family="Times New Roman,serif" font-size="14.00">0.028</text>
</g>
<!-- 7&#45;&gt;1 -->
<g id="edge7" class="edge">
<title>7&#45;&gt;1</title>
<path fill="none" stroke="black" d="M710.07,-36.25C706.36,-46.91 700.23,-60.2 690.8,-69 683.84,-75.49 675.53,-80.84 666.83,-85.23"/>
<polygon fill="black" stroke="black" points="665.28,-82.09 657.67,-89.46 668.21,-88.44 665.28,-82.09"/>
<text text-anchor="middle" x="716.3" y="-57.8" font-family="Times New Roman,serif" font-size="14.00">0.022</text>
</g>
<!-- 8&#45;&gt;1 -->
<g id="edge8" class="edge">
<title>8&#45;&gt;1</title>
<path fill="none" stroke="black" d="M856.41,-36.13C846.03,-47.31 831.02,-61.24 814.8,-69 783.33,-84.06 746.56,-92.78 712.56,-97.79"/>
<polygon fill="black" stroke="black" points="712.01,-94.34 702.58,-99.17 712.97,-101.27 712.01,-94.34"/>
<text text-anchor="middle" x="852.3" y="-57.8" font-family="Times New Roman,serif" font-size="14.00">0.022</text>
</g>
<!-- 9&#45;&gt;1 -->
<g id="edge9" class="edge">
<title>9&#45;&gt;1</title>
<path fill="none" stroke="black" d="M1016.85,-35.44C1001.02,-46.92 978.25,-61.48 955.8,-69 912.12,-83.63 798.97,-93.11 712.45,-98.47"/>
<polygon fill="black" stroke="black" points="712.07,-94.98 702.3,-99.08 712.49,-101.97 712.07,-94.98"/>
<text text-anchor="middle" x="1002.3" y="-57.8" font-family="Times New Roman,serif" font-size="14.00">0.022</text>
</g>
</g>
</svg>
