<?xml version="1.0" encoding="UTF-8" standalone="no"?>
<!DOCTYPE svg PUBLIC "-//W3C//DTD SVG 1.1//EN"
 "http://www.w3.org/Graphics/SVG/1.1/DTD/svg11.dtd">
<!-- Generated by graphviz version 2.44.1 (20200629.0800)
 -->
<!-- Title: records_manager Pages: 1 -->
<svg width="1429pt" height="218pt"
 viewBox="0.00 0.00 1428.63 218.00" xmlns="http://www.w3.org/2000/svg" xmlns:xlink="http://www.w3.org/1999/xlink">
<g id="graph0" class="graph" transform="scale(1 1) rotate(0) translate(4 214)">
<title>records_manager</title>
<polygon fill="white" stroke="transparent" points="-4,4 -4,-214 1424.63,-214 1424.63,4 -4,4"/>
<!-- 0 -->
<g id="node1" class="node">
<title>0</title>
<g id="a_node1"><a xlink:href="financial manager.svg" xlink:title="financial manager">
<ellipse fill="none" stroke="black" cx="176.89" cy="-192" rx="73.39" ry="18"/>
<text text-anchor="middle" x="176.89" y="-188.3" font-family="Times New Roman,serif" font-size="14.00">financial manager</text>
</a>
</g>
</g>
<!-- 1 -->
<g id="node2" class="node">
<title>1</title>
<g id="a_node2"><a xlink:href="records manager.svg" xlink:title="records manager">
<ellipse fill="none" stroke="black" cx="423.89" cy="-105" rx="71.49" ry="18"/>
<text text-anchor="middle" x="423.89" y="-101.3" font-family="Times New Roman,serif" font-size="14.00">records manager</text>
</a>
</g>
</g>
<!-- 0&#45;&gt;1 -->
<g id="edge1" class="edge">
<title>0&#45;&gt;1</title>
<path fill="none" stroke="black" d="M186.79,-173.88C194.18,-162.7 205.32,-148.78 218.89,-141 240.69,-128.5 299.37,-119.25 348.39,-113.41"/>
<polygon fill="black" stroke="black" points="348.84,-116.88 358.37,-112.25 348.03,-109.93 348.84,-116.88"/>
<text text-anchor="middle" x="234.39" y="-144.8" font-family="Times New Roman,serif" font-size="14.00">0.052</text>
</g>
<!-- 1&#45;&gt;0 -->
<g id="edge17" class="edge">
<title>1&#45;&gt;0</title>
<path fill="none" stroke="black" d="M383.46,-119.92C340.74,-134.62 273.3,-157.82 227.18,-173.69"/>
<polygon fill="black" stroke="black" points="226,-170.4 217.68,-176.96 228.28,-177.02 226,-170.4"/>
<text text-anchor="middle" x="331.39" y="-144.8" font-family="Times New Roman,serif" font-size="14.00">0.036</text>
</g>
<!-- 1&#45;&gt;1 -->
<g id="edge10" class="edge">
<title>1&#45;&gt;1</title>
<path fill="none" stroke="black" d="M488.65,-112.66C502.96,-111.94 513.39,-109.39 513.39,-105 513.39,-101.74 507.65,-99.5 498.83,-98.26"/>
<polygon fill="black" stroke="black" points="498.93,-94.75 488.65,-97.34 498.3,-101.73 498.93,-94.75"/>
<text text-anchor="middle" x="528.89" y="-101.3" font-family="Times New Roman,serif" font-size="14.00">0.139</text>
</g>
<!-- 3 -->
<g id="node4" class="node">
<title>3</title>
<g id="a_node4"><a xlink:href="project manager.svg" xlink:title="project manager">
<ellipse fill="none" stroke="black" cx="68.89" cy="-18" rx="68.79" ry="18"/>
<text text-anchor="middle" x="68.89" y="-14.3" font-family="Times New Roman,serif" font-size="14.00">project manager</text>
</a>
</g>
</g>
<!-- 1&#45;&gt;3 -->
<g id="edge14" class="edge">
<title>1&#45;&gt;3</title>
<path fill="none" stroke="black" d="M353.44,-101.7C275.41,-98.17 155.27,-89.5 114.89,-69 103.51,-63.22 93.52,-53.38 85.79,-43.95"/>
<polygon fill="black" stroke="black" points="88.47,-41.69 79.6,-35.89 82.91,-45.95 88.47,-41.69"/>
<text text-anchor="middle" x="130.39" y="-57.8" font-family="Times New Roman,serif" font-size="14.00">0.051</text>
</g>
<!-- 4 -->
<g id="node5" class="node">
<title>4</title>
<g id="a_node5"><a xlink:href="it consultant.svg" xlink:title="it consultant">
<ellipse fill="none" stroke="black" cx="209.89" cy="-18" rx="54.69" ry="18"/>
<text text-anchor="middle" x="209.89" y="-14.3" font-family="Times New Roman,serif" font-size="14.00">it consultant</text>
</a>
</g>
</g>
<!-- 1&#45;&gt;4 -->
<g id="edge12" class="edge">
<title>1&#45;&gt;4</title>
<path fill="none" stroke="black" d="M358.32,-97.58C312.77,-92.03 256.97,-82.71 237.89,-69 229.71,-63.12 223.61,-54.05 219.24,-45.25"/>
<polygon fill="black" stroke="black" points="222.38,-43.71 215.15,-35.97 215.98,-46.53 222.38,-43.71"/>
<text text-anchor="middle" x="253.39" y="-57.8" font-family="Times New Roman,serif" font-size="14.00">0.066</text>
</g>
<!-- 6 -->
<g id="node7" class="node">
<title>6</title>
<g id="a_node7"><a xlink:href="sales manager.svg" xlink:title="sales manager">
<ellipse fill="none" stroke="black" cx="343.89" cy="-18" rx="61.19" ry="18"/>
<text text-anchor="middle" x="343.89" y="-14.3" font-family="Times New Roman,serif" font-size="14.00">sales manager</text>
</a>
</g>
</g>
<!-- 1&#45;&gt;6 -->
<g id="edge11" class="edge">
<title>1&#45;&gt;6</title>
<path fill="none" stroke="black" d="M373.87,-91.86C362.52,-86.69 351.79,-79.37 344.89,-69 340.48,-62.36 339.1,-54.06 339.15,-46.14"/>
<polygon fill="black" stroke="black" points="342.65,-46.35 339.9,-36.11 335.67,-45.82 342.65,-46.35"/>
<text text-anchor="middle" x="360.39" y="-57.8" font-family="Times New Roman,serif" font-size="14.00">0.102</text>
</g>
<!-- 9 -->
<g id="node10" class="node">
<title>9</title>
<g id="a_node10"><a xlink:href="marketing executive.svg" xlink:title="marketing executive">
<ellipse fill="none" stroke="black" cx="504.89" cy="-18" rx="81.79" ry="18"/>
<text text-anchor="middle" x="504.89" y="-14.3" font-family="Times New Roman,serif" font-size="14.00">marketing executive</text>
</a>
</g>
</g>
<!-- 1&#45;&gt;9 -->
<g id="edge15" class="edge">
<title>1&#45;&gt;9</title>
<path fill="none" stroke="black" d="M429.34,-86.81C433.27,-76.44 439.38,-63.44 447.89,-54 452.49,-48.9 458.01,-44.29 463.77,-40.21"/>
<polygon fill="black" stroke="black" points="465.86,-43.03 472.31,-34.63 462.03,-37.17 465.86,-43.03"/>
<text text-anchor="middle" x="463.39" y="-57.8" font-family="Times New Roman,serif" font-size="14.00">0.044</text>
</g>
<!-- 10 -->
<g id="node11" class="node">
<title>10</title>
<g id="a_node11"><a xlink:href="pharmacovigilance officer.svg" xlink:title="pharmacovigilance officer">
<ellipse fill="none" stroke="black" cx="709.89" cy="-18" rx="104.78" ry="18"/>
<text text-anchor="middle" x="709.89" y="-14.3" font-family="Times New Roman,serif" font-size="14.00">pharmacovigilance officer</text>
</a>
</g>
</g>
<!-- 1&#45;&gt;10 -->
<g id="edge13" class="edge">
<title>1&#45;&gt;10</title>
<path fill="none" stroke="black" d="M468.27,-90.81C517.01,-76.33 595.56,-52.98 649.8,-36.86"/>
<polygon fill="black" stroke="black" points="651.04,-40.14 659.63,-33.94 649.05,-33.43 651.04,-40.14"/>
<text text-anchor="middle" x="599.39" y="-57.8" font-family="Times New Roman,serif" font-size="14.00">0.051</text>
</g>
<!-- 11 -->
<g id="node12" class="node">
<title>11</title>
<g id="a_node12"><a xlink:href="database administrator.svg" xlink:title="database administrator">
<ellipse fill="none" stroke="black" cx="924.89" cy="-18" rx="92.08" ry="18"/>
<text text-anchor="middle" x="924.89" y="-14.3" font-family="Times New Roman,serif" font-size="14.00">database administrator</text>
</a>
</g>
</g>
<!-- 1&#45;&gt;11 -->
<g id="edge16" class="edge">
<title>1&#45;&gt;11</title>
<path fill="none" stroke="black" d="M481.36,-94.25C571.57,-78.95 746.5,-49.27 847.62,-32.11"/>
<polygon fill="black" stroke="black" points="848.5,-35.51 857.77,-30.39 847.33,-28.61 848.5,-35.51"/>
<text text-anchor="middle" x="719.39" y="-57.8" font-family="Times New Roman,serif" font-size="14.00">0.036</text>
</g>
<!-- 12 -->
<g id="node13" class="node">
<title>12</title>
<g id="a_node13"><a xlink:href="production manager.svg" xlink:title="production manager">
<ellipse fill="none" stroke="black" cx="1117.89" cy="-18" rx="83.39" ry="18"/>
<text text-anchor="middle" x="1117.89" y="-14.3" font-family="Times New Roman,serif" font-size="14.00">production manager</text>
</a>
</g>
</g>
<!-- 1&#45;&gt;12 -->
<g id="edge18" class="edge">
<title>1&#45;&gt;12</title>
<path fill="none" stroke="black" d="M490.02,-98.11C601.06,-87.86 831.9,-65.04 1025.89,-36 1033.15,-34.91 1040.72,-33.68 1048.25,-32.39"/>
<polygon fill="black" stroke="black" points="1048.87,-35.83 1058.11,-30.66 1047.66,-28.94 1048.87,-35.83"/>
<text text-anchor="middle" x="909.39" y="-57.8" font-family="Times New Roman,serif" font-size="14.00">0.036</text>
</g>
<!-- 13 -->
<g id="node14" class="node">
<title>13</title>
<g id="a_node14"><a xlink:href="investment fund manager.svg" xlink:title="investment fund manager">
<ellipse fill="none" stroke="black" cx="1319.89" cy="-18" rx="100.98" ry="18"/>
<text text-anchor="middle" x="1319.89" y="-14.3" font-family="Times New Roman,serif" font-size="14.00">investment fund manager</text>
</a>
</g>
</g>
<!-- 1&#45;&gt;13 -->
<g id="edge19" class="edge">
<title>1&#45;&gt;13</title>
<path fill="none" stroke="black" d="M493,-100.26C590.35,-94.75 773.36,-83.51 928.89,-69 1054.1,-57.32 1085.29,-52.94 1209.89,-36 1218.82,-34.79 1228.15,-33.45 1237.43,-32.08"/>
<polygon fill="black" stroke="black" points="1238.09,-35.52 1247.47,-30.58 1237.06,-28.59 1238.09,-35.52"/>
<text text-anchor="middle" x="1084.39" y="-57.8" font-family="Times New Roman,serif" font-size="14.00">0.029</text>
</g>
<!-- 2 -->
<g id="node3" class="node">
<title>2</title>
<g id="a_node3"><a xlink:href="heritage manager.svg" xlink:title="heritage manager">
<ellipse fill="none" stroke="black" cx="339.89" cy="-192" rx="71.49" ry="18"/>
<text text-anchor="middle" x="339.89" y="-188.3" font-family="Times New Roman,serif" font-size="14.00">heritage manager</text>
</a>
</g>
</g>
<!-- 2&#45;&gt;1 -->
<g id="edge2" class="edge">
<title>2&#45;&gt;1</title>
<path fill="none" stroke="black" d="M356.49,-174.21C368.91,-161.63 386.09,-144.25 400,-130.18"/>
<polygon fill="black" stroke="black" points="402.79,-132.33 407.33,-122.76 397.81,-127.41 402.79,-132.33"/>
<text text-anchor="middle" x="403.39" y="-144.8" font-family="Times New Roman,serif" font-size="14.00">0.052</text>
</g>
<!-- 3&#45;&gt;1 -->
<g id="edge3" class="edge">
<title>3&#45;&gt;1</title>
<path fill="none" stroke="black" d="M100,-34.32C124.01,-45.54 158.35,-60.26 189.89,-69 241.33,-83.24 300.83,-92.04 346.96,-97.26"/>
<polygon fill="black" stroke="black" points="346.86,-100.77 357.18,-98.38 347.62,-93.81 346.86,-100.77"/>
<text text-anchor="middle" x="205.39" y="-57.8" font-family="Times New Roman,serif" font-size="14.00">0.052</text>
</g>
<!-- 4&#45;&gt;1 -->
<g id="edge4" class="edge">
<title>4&#45;&gt;1</title>
<path fill="none" stroke="black" d="M235.04,-34C253.82,-44.76 280.37,-59.05 304.89,-69 323.93,-76.72 345.3,-83.54 364.62,-89.07"/>
<polygon fill="black" stroke="black" points="363.94,-92.51 374.51,-91.84 365.83,-85.77 363.94,-92.51"/>
<text text-anchor="middle" x="320.39" y="-57.8" font-family="Times New Roman,serif" font-size="14.00">0.046</text>
</g>
<!-- 5 -->
<g id="node6" class="node">
<title>5</title>
<g id="a_node6"><a xlink:href="marketing assistant.svg" xlink:title="marketing assistant">
<ellipse fill="none" stroke="black" cx="508.89" cy="-192" rx="79.09" ry="18"/>
<text text-anchor="middle" x="508.89" y="-188.3" font-family="Times New Roman,serif" font-size="14.00">marketing assistant</text>
</a>
</g>
</g>
<!-- 5&#45;&gt;1 -->
<g id="edge5" class="edge">
<title>5&#45;&gt;1</title>
<path fill="none" stroke="black" d="M492.1,-174.21C479.53,-161.63 462.15,-144.25 448.08,-130.18"/>
<polygon fill="black" stroke="black" points="450.2,-127.35 440.65,-122.76 445.25,-132.3 450.2,-127.35"/>
<text text-anchor="middle" x="487.39" y="-144.8" font-family="Times New Roman,serif" font-size="14.00">0.046</text>
</g>
<!-- 6&#45;&gt;1 -->
<g id="edge6" class="edge">
<title>6&#45;&gt;1</title>
<path fill="none" stroke="black" d="M359.39,-35.47C371.23,-48.04 387.71,-65.55 401.05,-79.73"/>
<polygon fill="black" stroke="black" points="398.69,-82.32 408.09,-87.21 403.78,-77.53 398.69,-82.32"/>
<text text-anchor="middle" x="404.39" y="-57.8" font-family="Times New Roman,serif" font-size="14.00">0.040</text>
</g>
<!-- 7 -->
<g id="node8" class="node">
<title>7</title>
<g id="a_node8"><a xlink:href="legal executive.svg" xlink:title="legal executive">
<ellipse fill="none" stroke="black" cx="668.89" cy="-192" rx="63.09" ry="18"/>
<text text-anchor="middle" x="668.89" y="-188.3" font-family="Times New Roman,serif" font-size="14.00">legal executive</text>
</a>
</g>
</g>
<!-- 7&#45;&gt;1 -->
<g id="edge7" class="edge">
<title>7&#45;&gt;1</title>
<path fill="none" stroke="black" d="M630.34,-177.63C588.07,-162.96 520.1,-139.38 473.79,-123.31"/>
<polygon fill="black" stroke="black" points="474.85,-119.97 464.26,-120 472.56,-126.59 474.85,-119.97"/>
<text text-anchor="middle" x="576.39" y="-144.8" font-family="Times New Roman,serif" font-size="14.00">0.029</text>
</g>
<!-- 8 -->
<g id="node9" class="node">
<title>8</title>
<g id="a_node9"><a xlink:href="facilities manager.svg" xlink:title="facilities manager">
<ellipse fill="none" stroke="black" cx="822.89" cy="-192" rx="72.59" ry="18"/>
<text text-anchor="middle" x="822.89" y="-188.3" font-family="Times New Roman,serif" font-size="14.00">facilities manager</text>
</a>
</g>
</g>
<!-- 8&#45;&gt;1 -->
<g id="edge8" class="edge">
<title>8&#45;&gt;1</title>
<path fill="none" stroke="black" d="M771.11,-179.34C725.13,-169.06 656.1,-153.75 595.89,-141 560.39,-133.48 520.69,-125.38 488.38,-118.87"/>
<polygon fill="black" stroke="black" points="488.66,-115.35 478.17,-116.81 487.28,-122.22 488.66,-115.35"/>
<text text-anchor="middle" x="679.39" y="-144.8" font-family="Times New Roman,serif" font-size="14.00">0.023</text>
</g>
<!-- 9&#45;&gt;1 -->
<g id="edge9" class="edge">
<title>9&#45;&gt;1</title>
<path fill="none" stroke="black" d="M500.25,-36.23C496.78,-46.63 491.19,-59.63 482.89,-69 478.01,-74.52 472.04,-79.41 465.79,-83.66"/>
<polygon fill="black" stroke="black" points="463.79,-80.78 457.18,-89.06 467.51,-86.71 463.79,-80.78"/>
<text text-anchor="middle" x="508.39" y="-57.8" font-family="Times New Roman,serif" font-size="14.00">0.023</text>
</g>
</g>
</svg>
