<?xml version="1.0" encoding="UTF-8" standalone="no"?>
<!DOCTYPE svg PUBLIC "-//W3C//DTD SVG 1.1//EN"
 "http://www.w3.org/Graphics/SVG/1.1/DTD/svg11.dtd">
<!-- Generated by graphviz version 2.44.1 (20200629.0800)
 -->
<!-- Title: test Pages: 1 -->
<svg width="1436pt" height="218pt"
 viewBox="0.00 0.00 1436.18 218.00" xmlns="http://www.w3.org/2000/svg" xmlns:xlink="http://www.w3.org/1999/xlink">
<g id="graph0" class="graph" transform="scale(1 1) rotate(0) translate(4 214)">
<title>test</title>
<polygon fill="white" stroke="transparent" points="-4,4 -4,-214 1432.18,-214 1432.18,4 -4,4"/>
<!-- 0 -->
<g id="node1" class="node">
<title>0</title>
<g id="a_node1"><a xlink:href="financial manager.svg" xlink:title="financial manager">
<ellipse fill="none" stroke="black" cx="73.44" cy="-192" rx="73.39" ry="18"/>
<text text-anchor="middle" x="73.44" y="-188.3" font-family="Times New Roman,serif" font-size="14.00">financial manager</text>
</a>
</g>
</g>
<!-- 1 -->
<g id="node2" class="node">
<title>1</title>
<g id="a_node2"><a xlink:href="records manager.svg" xlink:title="records manager">
<ellipse fill="none" stroke="black" cx="405.44" cy="-105" rx="71.49" ry="18"/>
<text text-anchor="middle" x="405.44" y="-101.3" font-family="Times New Roman,serif" font-size="14.00">records manager</text>
</a>
</g>
</g>
<!-- 0&#45;&gt;1 -->
<g id="edge1" class="edge">
<title>0&#45;&gt;1</title>
<path fill="none" stroke="black" d="M83.22,-173.67C90.56,-162.39 101.69,-148.45 115.44,-141 150.53,-122.01 252.04,-113.14 325.07,-109.13"/>
<polygon fill="black" stroke="black" points="325.38,-112.61 335.18,-108.59 325.01,-105.62 325.38,-112.61"/>
<text text-anchor="middle" x="130.94" y="-144.8" font-family="Times New Roman,serif" font-size="14.00">0.052</text>
</g>
<!-- 1&#45;&gt;0 -->
<g id="edge17" class="edge">
<title>1&#45;&gt;0</title>
<path fill="none" stroke="black" d="M357.33,-118.32C297.82,-133.55 196.52,-159.49 132.39,-175.91"/>
<polygon fill="black" stroke="black" points="131.25,-172.59 122.43,-178.46 132.99,-179.37 131.25,-172.59"/>
<text text-anchor="middle" x="274.94" y="-144.8" font-family="Times New Roman,serif" font-size="14.00">0.036</text>
</g>
<!-- 1&#45;&gt;1 -->
<g id="edge10" class="edge">
<title>1&#45;&gt;1</title>
<path fill="none" stroke="black" d="M470.2,-112.66C484.51,-111.94 494.94,-109.39 494.94,-105 494.94,-101.74 489.2,-99.5 480.38,-98.26"/>
<polygon fill="black" stroke="black" points="480.48,-94.75 470.2,-97.34 479.85,-101.73 480.48,-94.75"/>
<text text-anchor="middle" x="510.44" y="-101.3" font-family="Times New Roman,serif" font-size="14.00">0.139</text>
</g>
<!-- 3 -->
<g id="node4" class="node">
<title>3</title>
<g id="a_node4"><a xlink:href="it consultant.svg" xlink:title="it consultant">
<ellipse fill="none" stroke="black" cx="62.44" cy="-18" rx="54.69" ry="18"/>
<text text-anchor="middle" x="62.44" y="-14.3" font-family="Times New Roman,serif" font-size="14.00">it consultant</text>
</a>
</g>
</g>
<!-- 1&#45;&gt;3 -->
<g id="edge12" class="edge">
<title>1&#45;&gt;3</title>
<path fill="none" stroke="black" d="M335.72,-100.8C262.08,-96.52 151.48,-87.25 113.44,-69 101.22,-63.13 90.13,-53.15 81.44,-43.64"/>
<polygon fill="black" stroke="black" points="83.91,-41.15 74.73,-35.87 78.61,-45.73 83.91,-41.15"/>
<text text-anchor="middle" x="128.94" y="-57.8" font-family="Times New Roman,serif" font-size="14.00">0.073</text>
</g>
<!-- 4 -->
<g id="node5" class="node">
<title>4</title>
<g id="a_node5"><a xlink:href="project manager.svg" xlink:title="project manager">
<ellipse fill="none" stroke="black" cx="203.44" cy="-18" rx="68.79" ry="18"/>
<text text-anchor="middle" x="203.44" y="-14.3" font-family="Times New Roman,serif" font-size="14.00">project manager</text>
</a>
</g>
</g>
<!-- 1&#45;&gt;4 -->
<g id="edge14" class="edge">
<title>1&#45;&gt;4</title>
<path fill="none" stroke="black" d="M336.95,-99.58C306.51,-95.1 271.33,-86.27 243.44,-69 233.56,-62.88 225.08,-53.42 218.5,-44.36"/>
<polygon fill="black" stroke="black" points="221.29,-42.25 212.79,-35.93 215.5,-46.17 221.29,-42.25"/>
<text text-anchor="middle" x="258.94" y="-57.8" font-family="Times New Roman,serif" font-size="14.00">0.051</text>
</g>
<!-- 6 -->
<g id="node7" class="node">
<title>6</title>
<g id="a_node7"><a xlink:href="sales manager.svg" xlink:title="sales manager">
<ellipse fill="none" stroke="black" cx="351.44" cy="-18" rx="61.19" ry="18"/>
<text text-anchor="middle" x="351.44" y="-14.3" font-family="Times New Roman,serif" font-size="14.00">sales manager</text>
</a>
</g>
</g>
<!-- 1&#45;&gt;6 -->
<g id="edge11" class="edge">
<title>1&#45;&gt;6</title>
<path fill="none" stroke="black" d="M369.28,-89.36C360.98,-84.21 353.21,-77.51 348.44,-69 344.65,-62.22 343.87,-54.08 344.46,-46.35"/>
<polygon fill="black" stroke="black" points="347.96,-46.65 345.97,-36.24 341.03,-45.62 347.96,-46.65"/>
<text text-anchor="middle" x="363.94" y="-57.8" font-family="Times New Roman,serif" font-size="14.00">0.102</text>
</g>
<!-- 10 -->
<g id="node11" class="node">
<title>10</title>
<g id="a_node11"><a xlink:href="pharmacovigilance officer.svg" xlink:title="pharmacovigilance officer">
<ellipse fill="none" stroke="black" cx="535.44" cy="-18" rx="104.78" ry="18"/>
<text text-anchor="middle" x="535.44" y="-14.3" font-family="Times New Roman,serif" font-size="14.00">pharmacovigilance officer</text>
</a>
</g>
</g>
<!-- 1&#45;&gt;10 -->
<g id="edge13" class="edge">
<title>1&#45;&gt;10</title>
<path fill="none" stroke="black" d="M429.9,-88.01C450.15,-74.77 479.16,-55.8 501.64,-41.1"/>
<polygon fill="black" stroke="black" points="503.76,-43.9 510.21,-35.5 499.93,-38.04 503.76,-43.9"/>
<text text-anchor="middle" x="493.94" y="-57.8" font-family="Times New Roman,serif" font-size="14.00">0.051</text>
</g>
<!-- 11 -->
<g id="node12" class="node">
<title>11</title>
<g id="a_node12"><a xlink:href="marketing executive.svg" xlink:title="marketing executive">
<ellipse fill="none" stroke="black" cx="740.44" cy="-18" rx="81.79" ry="18"/>
<text text-anchor="middle" x="740.44" y="-14.3" font-family="Times New Roman,serif" font-size="14.00">marketing executive</text>
</a>
</g>
</g>
<!-- 1&#45;&gt;11 -->
<g id="edge15" class="edge">
<title>1&#45;&gt;11</title>
<path fill="none" stroke="black" d="M453.8,-91.73C513.22,-76.65 614.13,-51.05 678.99,-34.59"/>
<polygon fill="black" stroke="black" points="680.25,-37.88 689.08,-32.03 678.53,-31.1 680.25,-37.88"/>
<text text-anchor="middle" x="607.94" y="-57.8" font-family="Times New Roman,serif" font-size="14.00">0.044</text>
</g>
<!-- 12 -->
<g id="node13" class="node">
<title>12</title>
<g id="a_node13"><a xlink:href="database administrator.svg" xlink:title="database administrator">
<ellipse fill="none" stroke="black" cx="932.44" cy="-18" rx="92.08" ry="18"/>
<text text-anchor="middle" x="932.44" y="-14.3" font-family="Times New Roman,serif" font-size="14.00">database administrator</text>
</a>
</g>
</g>
<!-- 1&#45;&gt;12 -->
<g id="edge16" class="edge">
<title>1&#45;&gt;12</title>
<path fill="none" stroke="black" d="M464.39,-94.79C546.64,-81.9 700.46,-57.62 831.44,-36 839.09,-34.74 847.06,-33.41 855.03,-32.08"/>
<polygon fill="black" stroke="black" points="855.8,-35.5 865.09,-30.4 854.65,-28.6 855.8,-35.5"/>
<text text-anchor="middle" x="729.94" y="-57.8" font-family="Times New Roman,serif" font-size="14.00">0.036</text>
</g>
<!-- 13 -->
<g id="node14" class="node">
<title>13</title>
<g id="a_node14"><a xlink:href="production manager.svg" xlink:title="production manager">
<ellipse fill="none" stroke="black" cx="1125.44" cy="-18" rx="83.39" ry="18"/>
<text text-anchor="middle" x="1125.44" y="-14.3" font-family="Times New Roman,serif" font-size="14.00">production manager</text>
</a>
</g>
</g>
<!-- 1&#45;&gt;13 -->
<g id="edge18" class="edge">
<title>1&#45;&gt;13</title>
<path fill="none" stroke="black" d="M472.6,-98.56C587.74,-88.84 830.11,-66.57 1033.44,-36 1040.7,-34.91 1048.27,-33.67 1055.8,-32.38"/>
<polygon fill="black" stroke="black" points="1056.42,-35.82 1065.66,-30.65 1055.21,-28.93 1056.42,-35.82"/>
<text text-anchor="middle" x="910.94" y="-57.8" font-family="Times New Roman,serif" font-size="14.00">0.036</text>
</g>
<!-- 14 -->
<g id="node15" class="node">
<title>14</title>
<g id="a_node15"><a xlink:href="investment fund manager.svg" xlink:title="investment fund manager">
<ellipse fill="none" stroke="black" cx="1327.44" cy="-18" rx="100.98" ry="18"/>
<text text-anchor="middle" x="1327.44" y="-14.3" font-family="Times New Roman,serif" font-size="14.00">investment fund manager</text>
</a>
</g>
</g>
<!-- 1&#45;&gt;14 -->
<g id="edge19" class="edge">
<title>1&#45;&gt;14</title>
<path fill="none" stroke="black" d="M474.74,-100.44C575.27,-95.04 767.37,-83.8 930.44,-69 1058.31,-57.39 1090.2,-53.14 1217.44,-36 1226.37,-34.8 1235.7,-33.47 1244.98,-32.1"/>
<polygon fill="black" stroke="black" points="1245.64,-35.54 1255.02,-30.6 1244.61,-28.62 1245.64,-35.54"/>
<text text-anchor="middle" x="1093.94" y="-57.8" font-family="Times New Roman,serif" font-size="14.00">0.029</text>
</g>
<!-- 2 -->
<g id="node3" class="node">
<title>2</title>
<g id="a_node3"><a xlink:href="heritage manager.svg" xlink:title="heritage manager">
<ellipse fill="none" stroke="black" cx="236.44" cy="-192" rx="71.49" ry="18"/>
<text text-anchor="middle" x="236.44" y="-188.3" font-family="Times New Roman,serif" font-size="14.00">heritage manager</text>
</a>
</g>
</g>
<!-- 2&#45;&gt;1 -->
<g id="edge2" class="edge">
<title>2&#45;&gt;1</title>
<path fill="none" stroke="black" d="M267.05,-175.61C294.72,-161.69 335.62,-141.12 365.79,-125.94"/>
<polygon fill="black" stroke="black" points="367.42,-129.04 374.78,-121.42 364.28,-122.79 367.42,-129.04"/>
<text text-anchor="middle" x="346.94" y="-144.8" font-family="Times New Roman,serif" font-size="14.00">0.052</text>
</g>
<!-- 3&#45;&gt;1 -->
<g id="edge3" class="edge">
<title>3&#45;&gt;1</title>
<path fill="none" stroke="black" d="M93.12,-32.97C118.88,-44.2 156.91,-59.59 191.44,-69 237.08,-81.43 289.47,-90.09 330.99,-95.69"/>
<polygon fill="black" stroke="black" points="330.65,-99.17 341.02,-97.01 331.57,-92.23 330.65,-99.17"/>
<text text-anchor="middle" x="206.94" y="-57.8" font-family="Times New Roman,serif" font-size="14.00">0.052</text>
</g>
<!-- 4&#45;&gt;1 -->
<g id="edge4" class="edge">
<title>4&#45;&gt;1</title>
<path fill="none" stroke="black" d="M234.04,-34.13C255.27,-44.43 284.33,-58.11 310.44,-69 324.81,-74.99 340.61,-81.03 355.12,-86.36"/>
<polygon fill="black" stroke="black" points="354.34,-89.8 364.94,-89.93 356.74,-83.22 354.34,-89.8"/>
<text text-anchor="middle" x="325.94" y="-57.8" font-family="Times New Roman,serif" font-size="14.00">0.052</text>
</g>
<!-- 5 -->
<g id="node6" class="node">
<title>5</title>
<g id="a_node6"><a xlink:href="marketing assistant.svg" xlink:title="marketing assistant">
<ellipse fill="none" stroke="black" cx="405.44" cy="-192" rx="79.09" ry="18"/>
<text text-anchor="middle" x="405.44" y="-188.3" font-family="Times New Roman,serif" font-size="14.00">marketing assistant</text>
</a>
</g>
</g>
<!-- 5&#45;&gt;1 -->
<g id="edge5" class="edge">
<title>5&#45;&gt;1</title>
<path fill="none" stroke="black" d="M405.44,-173.8C405.44,-162.16 405.44,-146.55 405.44,-133.24"/>
<polygon fill="black" stroke="black" points="408.94,-133.18 405.44,-123.18 401.94,-133.18 408.94,-133.18"/>
<text text-anchor="middle" x="420.94" y="-144.8" font-family="Times New Roman,serif" font-size="14.00">0.046</text>
</g>
<!-- 6&#45;&gt;1 -->
<g id="edge6" class="edge">
<title>6&#45;&gt;1</title>
<path fill="none" stroke="black" d="M368.59,-35.52C373.78,-41.07 379.22,-47.52 383.44,-54 388.1,-61.15 392.21,-69.45 395.57,-77.21"/>
<polygon fill="black" stroke="black" points="392.39,-78.69 399.41,-86.63 398.87,-76.05 392.39,-78.69"/>
<text text-anchor="middle" x="407.94" y="-57.8" font-family="Times New Roman,serif" font-size="14.00">0.040</text>
</g>
<!-- 7 -->
<g id="node8" class="node">
<title>7</title>
<g id="a_node8"><a xlink:href="legal executive.svg" xlink:title="legal executive">
<ellipse fill="none" stroke="black" cx="565.44" cy="-192" rx="63.09" ry="18"/>
<text text-anchor="middle" x="565.44" y="-188.3" font-family="Times New Roman,serif" font-size="14.00">legal executive</text>
</a>
</g>
</g>
<!-- 7&#45;&gt;1 -->
<g id="edge7" class="edge">
<title>7&#45;&gt;1</title>
<path fill="none" stroke="black" d="M536.84,-175.8C510.8,-161.97 472.17,-141.45 443.53,-126.23"/>
<polygon fill="black" stroke="black" points="445.08,-123.1 434.61,-121.5 441.8,-129.28 445.08,-123.1"/>
<text text-anchor="middle" x="510.94" y="-144.8" font-family="Times New Roman,serif" font-size="14.00">0.029</text>
</g>
<!-- 8 -->
<g id="node9" class="node">
<title>8</title>
<g id="a_node9"><a xlink:href="careers adviser.svg" xlink:title="careers adviser">
<ellipse fill="none" stroke="black" cx="711.44" cy="-192" rx="64.99" ry="18"/>
<text text-anchor="middle" x="711.44" y="-188.3" font-family="Times New Roman,serif" font-size="14.00">careers adviser</text>
</a>
</g>
</g>
<!-- 8&#45;&gt;1 -->
<g id="edge8" class="edge">
<title>8&#45;&gt;1</title>
<path fill="none" stroke="black" d="M667.28,-178.73C612.98,-163.65 520.79,-138.04 461.54,-121.58"/>
<polygon fill="black" stroke="black" points="462.17,-118.13 451.6,-118.82 460.3,-124.87 462.17,-118.13"/>
<text text-anchor="middle" x="591.94" y="-144.8" font-family="Times New Roman,serif" font-size="14.00">0.023</text>
</g>
<!-- 9 -->
<g id="node10" class="node">
<title>9</title>
<g id="a_node10"><a xlink:href="facilities manager.svg" xlink:title="facilities manager">
<ellipse fill="none" stroke="black" cx="867.44" cy="-192" rx="72.59" ry="18"/>
<text text-anchor="middle" x="867.44" y="-188.3" font-family="Times New Roman,serif" font-size="14.00">facilities manager</text>
</a>
</g>
</g>
<!-- 9&#45;&gt;1 -->
<g id="edge9" class="edge">
<title>9&#45;&gt;1</title>
<path fill="none" stroke="black" d="M813.66,-179.71C804.26,-177.78 794.57,-175.81 785.44,-174 708.24,-158.68 688.91,-154.93 611.44,-141 565.53,-132.75 513.76,-123.95 473.6,-117.24"/>
<polygon fill="black" stroke="black" points="474.09,-113.78 463.66,-115.59 472.94,-120.68 474.09,-113.78"/>
<text text-anchor="middle" x="707.94" y="-144.8" font-family="Times New Roman,serif" font-size="14.00">0.023</text>
</g>
</g>
</svg>
