<?xml version="1.0" encoding="UTF-8" standalone="no"?>
<!DOCTYPE svg PUBLIC "-//W3C//DTD SVG 1.1//EN"
 "http://www.w3.org/Graphics/SVG/1.1/DTD/svg11.dtd">
<!-- Generated by graphviz version 2.44.1 (20200629.0800)
 -->
<!-- Title: regulatory_affairs_officer Pages: 1 -->
<svg width="1335pt" height="218pt"
 viewBox="0.00 0.00 1334.69 218.00" xmlns="http://www.w3.org/2000/svg" xmlns:xlink="http://www.w3.org/1999/xlink">
<g id="graph0" class="graph" transform="scale(1 1) rotate(0) translate(4 214)">
<title>regulatory_affairs_officer</title>
<polygon fill="white" stroke="transparent" points="-4,4 -4,-214 1330.69,-214 1330.69,4 -4,4"/>
<!-- 0 -->
<g id="node1" class="node">
<title>0</title>
<g id="a_node1"><a xlink:href="project manager.svg" xlink:title="project manager">
<ellipse fill="none" stroke="black" cx="348.09" cy="-192" rx="68.79" ry="18"/>
<text text-anchor="middle" x="348.09" y="-188.3" font-family="Times New Roman,serif" font-size="14.00">project manager</text>
</a>
</g>
</g>
<!-- 1 -->
<g id="node2" class="node">
<title>1</title>
<g id="a_node2"><a xlink:href="regulatory affairs officer.svg" xlink:title="regulatory affairs officer">
<ellipse fill="none" stroke="black" cx="512.09" cy="-105" rx="98.28" ry="18"/>
<text text-anchor="middle" x="512.09" y="-101.3" font-family="Times New Roman,serif" font-size="14.00">regulatory affairs officer</text>
</a>
</g>
</g>
<!-- 0&#45;&gt;1 -->
<g id="edge1" class="edge">
<title>0&#45;&gt;1</title>
<path fill="none" stroke="black" d="M358.95,-173.89C366.68,-163 377.99,-149.42 391.09,-141 404.23,-132.56 419.44,-126.11 434.55,-121.19"/>
<polygon fill="black" stroke="black" points="435.9,-124.44 444.45,-118.18 433.86,-117.74 435.9,-124.44"/>
<text text-anchor="middle" x="406.59" y="-144.8" font-family="Times New Roman,serif" font-size="14.00">0.052</text>
</g>
<!-- 1&#45;&gt;0 -->
<g id="edge12" class="edge">
<title>1&#45;&gt;0</title>
<path fill="none" stroke="black" d="M483.57,-122.47C466,-132.46 442.92,-145.3 422.09,-156 411.73,-161.32 400.41,-166.83 389.82,-171.85"/>
<polygon fill="black" stroke="black" points="388.3,-168.7 380.74,-176.12 391.28,-175.03 388.3,-168.7"/>
<text text-anchor="middle" x="465.59" y="-144.8" font-family="Times New Roman,serif" font-size="14.00">0.071</text>
</g>
<!-- 1&#45;&gt;1 -->
<g id="edge10" class="edge">
<title>1&#45;&gt;1</title>
<path fill="none" stroke="black" d="M601.7,-112.38C617.35,-111.4 628.24,-108.94 628.24,-105 628.24,-101.99 621.85,-99.84 611.84,-98.55"/>
<polygon fill="black" stroke="black" points="611.98,-95.05 601.7,-97.62 611.33,-102.02 611.98,-95.05"/>
<text text-anchor="middle" x="637.24" y="-101.3" font-family="Times New Roman,serif" font-size="14.00">0.1</text>
</g>
<!-- 2 -->
<g id="node3" class="node">
<title>2</title>
<g id="a_node3"><a xlink:href="sales manager.svg" xlink:title="sales manager">
<ellipse fill="none" stroke="black" cx="61.09" cy="-18" rx="61.19" ry="18"/>
<text text-anchor="middle" x="61.09" y="-14.3" font-family="Times New Roman,serif" font-size="14.00">sales manager</text>
</a>
</g>
</g>
<!-- 1&#45;&gt;2 -->
<g id="edge11" class="edge">
<title>1&#45;&gt;2</title>
<path fill="none" stroke="black" d="M418.46,-99.42C327.92,-94.19 197.54,-84.33 149.09,-69 128.74,-62.56 107.88,-50.97 91.59,-40.57"/>
<polygon fill="black" stroke="black" points="93.31,-37.52 83.03,-34.95 89.47,-43.37 93.31,-37.52"/>
<text text-anchor="middle" x="164.59" y="-57.8" font-family="Times New Roman,serif" font-size="14.00">0.085</text>
</g>
<!-- 4 -->
<g id="node5" class="node">
<title>4</title>
<g id="a_node5"><a xlink:href="pharmacovigilance officer.svg" xlink:title="pharmacovigilance officer">
<ellipse fill="none" stroke="black" cx="245.09" cy="-18" rx="104.78" ry="18"/>
<text text-anchor="middle" x="245.09" y="-14.3" font-family="Times New Roman,serif" font-size="14.00">pharmacovigilance officer</text>
</a>
</g>
</g>
<!-- 1&#45;&gt;4 -->
<g id="edge13" class="edge">
<title>1&#45;&gt;4</title>
<path fill="none" stroke="black" d="M417.55,-100C379.56,-95.48 336.28,-86.51 300.09,-69 287.45,-62.88 275.61,-52.92 266.18,-43.49"/>
<polygon fill="black" stroke="black" points="268.59,-40.96 259.16,-36.13 263.53,-45.79 268.59,-40.96"/>
<text text-anchor="middle" x="315.59" y="-57.8" font-family="Times New Roman,serif" font-size="14.00">0.064</text>
</g>
<!-- 5 -->
<g id="node6" class="node">
<title>5</title>
<g id="a_node6"><a xlink:href="auditor.svg" xlink:title="auditor">
<ellipse fill="none" stroke="black" cx="404.09" cy="-18" rx="36.29" ry="18"/>
<text text-anchor="middle" x="404.09" y="-14.3" font-family="Times New Roman,serif" font-size="14.00">auditor</text>
</a>
</g>
</g>
<!-- 1&#45;&gt;5 -->
<g id="edge16" class="edge">
<title>1&#45;&gt;5</title>
<path fill="none" stroke="black" d="M450.05,-90.9C437.76,-85.82 425.95,-78.77 417.09,-69 411.42,-62.74 408.16,-54.31 406.31,-46.16"/>
<polygon fill="black" stroke="black" points="409.74,-45.46 404.64,-36.17 402.84,-46.62 409.74,-45.46"/>
<text text-anchor="middle" x="432.59" y="-57.8" font-family="Times New Roman,serif" font-size="14.00">0.021</text>
</g>
<!-- 7 -->
<g id="node8" class="node">
<title>7</title>
<g id="a_node8"><a xlink:href="office manager.svg" xlink:title="office manager">
<ellipse fill="none" stroke="black" cx="523.09" cy="-18" rx="64.19" ry="18"/>
<text text-anchor="middle" x="523.09" y="-14.3" font-family="Times New Roman,serif" font-size="14.00">office manager</text>
</a>
</g>
</g>
<!-- 1&#45;&gt;7 -->
<g id="edge15" class="edge">
<title>1&#45;&gt;7</title>
<path fill="none" stroke="black" d="M508.96,-86.74C507.72,-77.04 507.02,-64.76 509.09,-54 509.62,-51.26 510.36,-48.47 511.23,-45.71"/>
<polygon fill="black" stroke="black" points="514.61,-46.65 514.77,-36.05 508.04,-44.24 514.61,-46.65"/>
<text text-anchor="middle" x="524.59" y="-57.8" font-family="Times New Roman,serif" font-size="14.00">0.028</text>
</g>
<!-- 8 -->
<g id="node9" class="node">
<title>8</title>
<g id="a_node9"><a xlink:href="marketing executive.svg" xlink:title="marketing executive">
<ellipse fill="none" stroke="black" cx="687.09" cy="-18" rx="81.79" ry="18"/>
<text text-anchor="middle" x="687.09" y="-14.3" font-family="Times New Roman,serif" font-size="14.00">marketing executive</text>
</a>
</g>
</g>
<!-- 1&#45;&gt;8 -->
<g id="edge14" class="edge">
<title>1&#45;&gt;8</title>
<path fill="none" stroke="black" d="M545.01,-88.01C573.54,-74.15 614.97,-54.03 645.74,-39.09"/>
<polygon fill="black" stroke="black" points="647.45,-42.15 654.92,-34.63 644.39,-35.85 647.45,-42.15"/>
<text text-anchor="middle" x="625.59" y="-57.8" font-family="Times New Roman,serif" font-size="14.00">0.028</text>
</g>
<!-- 10 -->
<g id="node11" class="node">
<title>10</title>
<g id="a_node11"><a xlink:href="broadcasting presenter.svg" xlink:title="broadcasting presenter">
<ellipse fill="none" stroke="black" cx="880.09" cy="-18" rx="92.88" ry="18"/>
<text text-anchor="middle" x="880.09" y="-14.3" font-family="Times New Roman,serif" font-size="14.00">broadcasting presenter</text>
</a>
</g>
</g>
<!-- 1&#45;&gt;10 -->
<g id="edge17" class="edge">
<title>1&#45;&gt;10</title>
<path fill="none" stroke="black" d="M584.69,-92.81C621.54,-86.67 666.9,-78.39 707.09,-69 746.72,-59.74 790.77,-46.98 824.5,-36.66"/>
<polygon fill="black" stroke="black" points="825.65,-39.97 834.18,-33.68 823.59,-33.28 825.65,-39.97"/>
<text text-anchor="middle" x="779.59" y="-57.8" font-family="Times New Roman,serif" font-size="14.00">0.021</text>
</g>
<!-- 11 -->
<g id="node12" class="node">
<title>11</title>
<g id="a_node12"><a xlink:href="careers adviser.svg" xlink:title="careers adviser">
<ellipse fill="none" stroke="black" cx="1056.09" cy="-18" rx="64.99" ry="18"/>
<text text-anchor="middle" x="1056.09" y="-14.3" font-family="Times New Roman,serif" font-size="14.00">careers adviser</text>
</a>
</g>
</g>
<!-- 1&#45;&gt;11 -->
<g id="edge18" class="edge">
<title>1&#45;&gt;11</title>
<path fill="none" stroke="black" d="M594.53,-95.21C651.99,-88.77 730.35,-79.38 799.09,-69 880.81,-56.66 901.13,-52.59 982.09,-36 987.42,-34.91 992.95,-33.73 998.48,-32.51"/>
<polygon fill="black" stroke="black" points="999.4,-35.9 1008.4,-30.31 997.88,-29.06 999.4,-35.9"/>
<text text-anchor="middle" x="905.59" y="-57.8" font-family="Times New Roman,serif" font-size="14.00">0.021</text>
</g>
<!-- 12 -->
<g id="node13" class="node">
<title>12</title>
<g id="a_node13"><a xlink:href="environmental manager.svg" xlink:title="environmental manager">
<ellipse fill="none" stroke="black" cx="1233.09" cy="-18" rx="93.68" ry="18"/>
<text text-anchor="middle" x="1233.09" y="-14.3" font-family="Times New Roman,serif" font-size="14.00">environmental manager</text>
</a>
</g>
</g>
<!-- 1&#45;&gt;12 -->
<g id="edge19" class="edge">
<title>1&#45;&gt;12</title>
<path fill="none" stroke="black" d="M603.34,-98.24C687.16,-92.48 814.75,-82.54 925.09,-69 1016.69,-57.76 1039.01,-50.85 1130.09,-36 1138.04,-34.7 1146.33,-33.35 1154.61,-31.99"/>
<polygon fill="black" stroke="black" points="1155.38,-35.41 1164.68,-30.33 1154.24,-28.5 1155.38,-35.41"/>
<text text-anchor="middle" x="1039.59" y="-57.8" font-family="Times New Roman,serif" font-size="14.00">0.021</text>
</g>
<!-- 2&#45;&gt;1 -->
<g id="edge2" class="edge">
<title>2&#45;&gt;1</title>
<path fill="none" stroke="black" d="M101.06,-31.62C137.88,-42.84 194.21,-58.98 244.09,-69 301.02,-80.44 365.54,-89 417,-94.79"/>
<polygon fill="black" stroke="black" points="416.79,-98.28 427.12,-95.91 417.56,-91.33 416.79,-98.28"/>
<text text-anchor="middle" x="259.59" y="-57.8" font-family="Times New Roman,serif" font-size="14.00">0.040</text>
</g>
<!-- 3 -->
<g id="node4" class="node">
<title>3</title>
<g id="a_node4"><a xlink:href="investment analyst.svg" xlink:title="investment analyst">
<ellipse fill="none" stroke="black" cx="512.09" cy="-192" rx="76.89" ry="18"/>
<text text-anchor="middle" x="512.09" y="-188.3" font-family="Times New Roman,serif" font-size="14.00">investment analyst</text>
</a>
</g>
</g>
<!-- 3&#45;&gt;1 -->
<g id="edge3" class="edge">
<title>3&#45;&gt;1</title>
<path fill="none" stroke="black" d="M512.09,-173.8C512.09,-162.16 512.09,-146.55 512.09,-133.24"/>
<polygon fill="black" stroke="black" points="515.59,-133.18 512.09,-123.18 508.59,-133.18 515.59,-133.18"/>
<text text-anchor="middle" x="527.59" y="-144.8" font-family="Times New Roman,serif" font-size="14.00">0.034</text>
</g>
<!-- 4&#45;&gt;1 -->
<g id="edge4" class="edge">
<title>4&#45;&gt;1</title>
<path fill="none" stroke="black" d="M282.48,-34.88C308.01,-45.37 342.75,-58.99 374.09,-69 396.15,-76.04 420.53,-82.62 442.6,-88.12"/>
<polygon fill="black" stroke="black" points="442.01,-91.58 452.55,-90.57 443.68,-84.78 442.01,-91.58"/>
<text text-anchor="middle" x="389.59" y="-57.8" font-family="Times New Roman,serif" font-size="14.00">0.034</text>
</g>
<!-- 5&#45;&gt;1 -->
<g id="edge5" class="edge">
<title>5&#45;&gt;1</title>
<path fill="none" stroke="black" d="M422.6,-33.57C439.23,-46.65 463.91,-66.08 483.14,-81.21"/>
<polygon fill="black" stroke="black" points="480.99,-83.98 491.01,-87.41 485.32,-78.47 480.99,-83.98"/>
<text text-anchor="middle" x="480.59" y="-57.8" font-family="Times New Roman,serif" font-size="14.00">0.028</text>
</g>
<!-- 6 -->
<g id="node7" class="node">
<title>6</title>
<g id="a_node7"><a xlink:href="catering manager.svg" xlink:title="catering manager">
<ellipse fill="none" stroke="black" cx="678.09" cy="-192" rx="71.49" ry="18"/>
<text text-anchor="middle" x="678.09" y="-188.3" font-family="Times New Roman,serif" font-size="14.00">catering manager</text>
</a>
</g>
</g>
<!-- 6&#45;&gt;1 -->
<g id="edge6" class="edge">
<title>6&#45;&gt;1</title>
<path fill="none" stroke="black" d="M648.03,-175.61C621.39,-161.97 582.26,-141.93 552.82,-126.85"/>
<polygon fill="black" stroke="black" points="554.12,-123.59 543.63,-122.15 550.93,-129.82 554.12,-123.59"/>
<text text-anchor="middle" x="620.59" y="-144.8" font-family="Times New Roman,serif" font-size="14.00">0.028</text>
</g>
<!-- 7&#45;&gt;1 -->
<g id="edge7" class="edge">
<title>7&#45;&gt;1</title>
<path fill="none" stroke="black" d="M537.16,-36.03C543.37,-45.66 548.39,-57.94 544.09,-69 542.7,-72.59 540.75,-76.03 538.49,-79.27"/>
<polygon fill="black" stroke="black" points="535.56,-77.32 531.96,-87.29 540.99,-81.74 535.56,-77.32"/>
<text text-anchor="middle" x="561.59" y="-57.8" font-family="Times New Roman,serif" font-size="14.00">0.028</text>
</g>
<!-- 8&#45;&gt;1 -->
<g id="edge8" class="edge">
<title>8&#45;&gt;1</title>
<path fill="none" stroke="black" d="M681.52,-36.28C677.12,-47.24 669.89,-60.84 659.09,-69 643.94,-80.45 625.61,-88.22 607.1,-93.48"/>
<polygon fill="black" stroke="black" points="606.21,-90.09 597.42,-96.01 607.98,-96.87 606.21,-90.09"/>
<text text-anchor="middle" x="687.59" y="-57.8" font-family="Times New Roman,serif" font-size="14.00">0.023</text>
</g>
<!-- 9 -->
<g id="node10" class="node">
<title>9</title>
<g id="a_node10"><a xlink:href="public affairs consultant.svg" xlink:title="public affairs consultant">
<ellipse fill="none" stroke="black" cx="865.09" cy="-192" rx="97.48" ry="18"/>
<text text-anchor="middle" x="865.09" y="-188.3" font-family="Times New Roman,serif" font-size="14.00">public affairs consultant</text>
</a>
</g>
</g>
<!-- 9&#45;&gt;1 -->
<g id="edge9" class="edge">
<title>9&#45;&gt;1</title>
<path fill="none" stroke="black" d="M808.38,-177.34C745.81,-162.28 645.23,-138.06 578.9,-122.09"/>
<polygon fill="black" stroke="black" points="579.5,-118.63 568.96,-119.69 577.86,-125.44 579.5,-118.63"/>
<text text-anchor="middle" x="724.59" y="-144.8" font-family="Times New Roman,serif" font-size="14.00">0.023</text>
</g>
</g>
</svg>
