<?xml version="1.0" encoding="UTF-8" standalone="no"?>
<!DOCTYPE svg PUBLIC "-//W3C//DTD SVG 1.1//EN"
 "http://www.w3.org/Graphics/SVG/1.1/DTD/svg11.dtd">
<!-- Generated by graphviz version 2.44.1 (20200629.0800)
 -->
<!-- Title: test Pages: 1 -->
<svg width="1334pt" height="218pt"
 viewBox="0.00 0.00 1333.69 218.00" xmlns="http://www.w3.org/2000/svg" xmlns:xlink="http://www.w3.org/1999/xlink">
<g id="graph0" class="graph" transform="scale(1 1) rotate(0) translate(4 214)">
<title>test</title>
<polygon fill="white" stroke="transparent" points="-4,4 -4,-214 1329.69,-214 1329.69,4 -4,4"/>
<!-- 0 -->
<g id="node1" class="node">
<title>0</title>
<g id="a_node1"><a xlink:href="project manager.svg" xlink:title="project manager">
<ellipse fill="none" stroke="black" cx="242.09" cy="-192" rx="68.79" ry="18"/>
<text text-anchor="middle" x="242.09" y="-188.3" font-family="Times New Roman,serif" font-size="14.00">project manager</text>
</a>
</g>
</g>
<!-- 1 -->
<g id="node2" class="node">
<title>1</title>
<g id="a_node2"><a xlink:href="regulatory affairs officer.svg" xlink:title="regulatory affairs officer">
<ellipse fill="none" stroke="black" cx="470.09" cy="-105" rx="98.28" ry="18"/>
<text text-anchor="middle" x="470.09" y="-101.3" font-family="Times New Roman,serif" font-size="14.00">regulatory affairs officer</text>
</a>
</g>
</g>
<!-- 0&#45;&gt;1 -->
<g id="edge1" class="edge">
<title>0&#45;&gt;1</title>
<path fill="none" stroke="black" d="M252.36,-173.96C259.99,-162.81 271.41,-148.9 285.09,-141 310.04,-126.6 339.72,-117.96 367.94,-112.83"/>
<polygon fill="black" stroke="black" points="368.57,-116.27 377.84,-111.16 367.4,-109.37 368.57,-116.27"/>
<text text-anchor="middle" x="300.59" y="-144.8" font-family="Times New Roman,serif" font-size="14.00">0.050</text>
</g>
<!-- 1&#45;&gt;0 -->
<g id="edge13" class="edge">
<title>1&#45;&gt;0</title>
<path fill="none" stroke="black" d="M428.62,-121.46C389.4,-136.08 330.58,-158.01 289.52,-173.32"/>
<polygon fill="black" stroke="black" points="288.15,-170.1 280,-176.87 290.59,-176.65 288.15,-170.1"/>
<text text-anchor="middle" x="385.59" y="-144.8" font-family="Times New Roman,serif" font-size="14.00">0.068</text>
</g>
<!-- 1&#45;&gt;1 -->
<g id="edge10" class="edge">
<title>1&#45;&gt;1</title>
<path fill="none" stroke="black" d="M559.7,-112.38C575.35,-111.4 586.24,-108.94 586.24,-105 586.24,-101.99 579.85,-99.84 569.84,-98.55"/>
<polygon fill="black" stroke="black" points="569.98,-95.05 559.7,-97.62 569.33,-102.02 569.98,-95.05"/>
<text text-anchor="middle" x="601.74" y="-101.3" font-family="Times New Roman,serif" font-size="14.00">0.096</text>
</g>
<!-- 2 -->
<g id="node3" class="node">
<title>2</title>
<g id="a_node3"><a xlink:href="sales manager.svg" xlink:title="sales manager">
<ellipse fill="none" stroke="black" cx="61.09" cy="-18" rx="61.19" ry="18"/>
<text text-anchor="middle" x="61.09" y="-14.3" font-family="Times New Roman,serif" font-size="14.00">sales manager</text>
</a>
</g>
</g>
<!-- 1&#45;&gt;2 -->
<g id="edge11" class="edge">
<title>1&#45;&gt;2</title>
<path fill="none" stroke="black" d="M375.5,-100.07C289.92,-95.48 170.82,-86.21 127.09,-69 111.66,-62.93 96.73,-52.17 84.99,-42.19"/>
<polygon fill="black" stroke="black" points="87.21,-39.48 77.4,-35.47 82.57,-44.72 87.21,-39.48"/>
<text text-anchor="middle" x="142.59" y="-57.8" font-family="Times New Roman,serif" font-size="14.00">0.082</text>
</g>
<!-- 5 -->
<g id="node6" class="node">
<title>5</title>
<g id="a_node6"><a xlink:href="office manager.svg" xlink:title="office manager">
<ellipse fill="none" stroke="black" cx="204.09" cy="-18" rx="64.19" ry="18"/>
<text text-anchor="middle" x="204.09" y="-14.3" font-family="Times New Roman,serif" font-size="14.00">office manager</text>
</a>
</g>
</g>
<!-- 1&#45;&gt;5 -->
<g id="edge15" class="edge">
<title>1&#45;&gt;5</title>
<path fill="none" stroke="black" d="M381.85,-96.92C346.96,-91.94 307.15,-83.46 273.09,-69 257.6,-62.42 242.26,-51.82 229.98,-42.07"/>
<polygon fill="black" stroke="black" points="231.96,-39.16 222.01,-35.51 227.51,-44.57 231.96,-39.16"/>
<text text-anchor="middle" x="288.59" y="-57.8" font-family="Times New Roman,serif" font-size="14.00">0.027</text>
</g>
<!-- 6 -->
<g id="node7" class="node">
<title>6</title>
<g id="a_node7"><a xlink:href="pharmacovigilance officer.svg" xlink:title="pharmacovigilance officer">
<ellipse fill="none" stroke="black" cx="391.09" cy="-18" rx="104.78" ry="18"/>
<text text-anchor="middle" x="391.09" y="-14.3" font-family="Times New Roman,serif" font-size="14.00">pharmacovigilance officer</text>
</a>
</g>
</g>
<!-- 1&#45;&gt;6 -->
<g id="edge12" class="edge">
<title>1&#45;&gt;6</title>
<path fill="none" stroke="black" d="M415.86,-89.99C406.06,-84.97 397.07,-78.18 391.09,-69 386.75,-62.32 385.52,-54.01 385.73,-46.08"/>
<polygon fill="black" stroke="black" points="389.22,-46.36 386.7,-36.07 382.25,-45.69 389.22,-46.36"/>
<text text-anchor="middle" x="406.59" y="-57.8" font-family="Times New Roman,serif" font-size="14.00">0.068</text>
</g>
<!-- 7 -->
<g id="node8" class="node">
<title>7</title>
<g id="a_node8"><a xlink:href="auditor.svg" xlink:title="auditor">
<ellipse fill="none" stroke="black" cx="550.09" cy="-18" rx="36.29" ry="18"/>
<text text-anchor="middle" x="550.09" y="-14.3" font-family="Times New Roman,serif" font-size="14.00">auditor</text>
</a>
</g>
</g>
<!-- 1&#45;&gt;7 -->
<g id="edge16" class="edge">
<title>1&#45;&gt;7</title>
<path fill="none" stroke="black" d="M475.57,-86.84C479.5,-76.47 485.62,-63.47 494.09,-54 500.2,-47.17 507.96,-41.19 515.73,-36.2"/>
<polygon fill="black" stroke="black" points="517.65,-39.14 524.43,-31 514.05,-33.13 517.65,-39.14"/>
<text text-anchor="middle" x="509.59" y="-57.8" font-family="Times New Roman,serif" font-size="14.00">0.020</text>
</g>
<!-- 10 -->
<g id="node11" class="node">
<title>10</title>
<g id="a_node11"><a xlink:href="marketing executive.svg" xlink:title="marketing executive">
<ellipse fill="none" stroke="black" cx="686.09" cy="-18" rx="81.79" ry="18"/>
<text text-anchor="middle" x="686.09" y="-14.3" font-family="Times New Roman,serif" font-size="14.00">marketing executive</text>
</a>
</g>
</g>
<!-- 1&#45;&gt;10 -->
<g id="edge14" class="edge">
<title>1&#45;&gt;10</title>
<path fill="none" stroke="black" d="M516.81,-89.1C534.56,-83.19 554.88,-76.11 573.09,-69 596.66,-59.8 622.5,-48.47 643.51,-38.92"/>
<polygon fill="black" stroke="black" points="645.16,-42.01 652.8,-34.67 642.25,-35.64 645.16,-42.01"/>
<text text-anchor="middle" x="622.59" y="-57.8" font-family="Times New Roman,serif" font-size="14.00">0.027</text>
</g>
<!-- 11 -->
<g id="node12" class="node">
<title>11</title>
<g id="a_node12"><a xlink:href="broadcasting presenter.svg" xlink:title="broadcasting presenter">
<ellipse fill="none" stroke="black" cx="879.09" cy="-18" rx="92.88" ry="18"/>
<text text-anchor="middle" x="879.09" y="-14.3" font-family="Times New Roman,serif" font-size="14.00">broadcasting presenter</text>
</a>
</g>
</g>
<!-- 1&#45;&gt;11 -->
<g id="edge17" class="edge">
<title>1&#45;&gt;11</title>
<path fill="none" stroke="black" d="M533.42,-91.23C565.92,-84.64 606.14,-76.45 642.09,-69 698.22,-57.37 761.77,-43.95 808.92,-33.94"/>
<polygon fill="black" stroke="black" points="809.67,-37.36 818.72,-31.86 808.22,-30.51 809.67,-37.36"/>
<text text-anchor="middle" x="728.59" y="-57.8" font-family="Times New Roman,serif" font-size="14.00">0.020</text>
</g>
<!-- 12 -->
<g id="node13" class="node">
<title>12</title>
<g id="a_node13"><a xlink:href="careers adviser.svg" xlink:title="careers adviser">
<ellipse fill="none" stroke="black" cx="1055.09" cy="-18" rx="64.99" ry="18"/>
<text text-anchor="middle" x="1055.09" y="-14.3" font-family="Times New Roman,serif" font-size="14.00">careers adviser</text>
</a>
</g>
</g>
<!-- 1&#45;&gt;12 -->
<g id="edge18" class="edge">
<title>1&#45;&gt;12</title>
<path fill="none" stroke="black" d="M553.71,-95.52C655.24,-84.61 831.5,-63.73 981.09,-36 986.52,-34.99 992.15,-33.86 997.78,-32.67"/>
<polygon fill="black" stroke="black" points="998.82,-36.03 1007.85,-30.48 997.33,-29.19 998.82,-36.03"/>
<text text-anchor="middle" x="884.59" y="-57.8" font-family="Times New Roman,serif" font-size="14.00">0.020</text>
</g>
<!-- 13 -->
<g id="node14" class="node">
<title>13</title>
<g id="a_node14"><a xlink:href="environmental manager.svg" xlink:title="environmental manager">
<ellipse fill="none" stroke="black" cx="1232.09" cy="-18" rx="93.68" ry="18"/>
<text text-anchor="middle" x="1232.09" y="-14.3" font-family="Times New Roman,serif" font-size="14.00">environmental manager</text>
</a>
</g>
</g>
<!-- 1&#45;&gt;13 -->
<g id="edge19" class="edge">
<title>1&#45;&gt;13</title>
<path fill="none" stroke="black" d="M561.7,-98.35C649.66,-92.52 786.17,-82.39 904.09,-69 1004.52,-57.6 1029.23,-51.56 1129.09,-36 1137.2,-34.74 1145.67,-33.39 1154.1,-32.02"/>
<polygon fill="black" stroke="black" points="1154.67,-35.48 1163.98,-30.42 1153.54,-28.57 1154.67,-35.48"/>
<text text-anchor="middle" x="1031.59" y="-57.8" font-family="Times New Roman,serif" font-size="14.00">0.020</text>
</g>
<!-- 2&#45;&gt;1 -->
<g id="edge2" class="edge">
<title>2&#45;&gt;1</title>
<path fill="none" stroke="black" d="M96.56,-32.82C126.83,-44.1 171.74,-59.67 212.09,-69 264.93,-81.22 324.9,-89.67 373.72,-95.21"/>
<polygon fill="black" stroke="black" points="373.64,-98.72 383.96,-96.34 374.41,-91.76 373.64,-98.72"/>
<text text-anchor="middle" x="227.59" y="-57.8" font-family="Times New Roman,serif" font-size="14.00">0.039</text>
</g>
<!-- 3 -->
<g id="node4" class="node">
<title>3</title>
<g id="a_node4"><a xlink:href="investment analyst.svg" xlink:title="investment analyst">
<ellipse fill="none" stroke="black" cx="406.09" cy="-192" rx="76.89" ry="18"/>
<text text-anchor="middle" x="406.09" y="-188.3" font-family="Times New Roman,serif" font-size="14.00">investment analyst</text>
</a>
</g>
</g>
<!-- 3&#45;&gt;1 -->
<g id="edge3" class="edge">
<title>3&#45;&gt;1</title>
<path fill="none" stroke="black" d="M418.74,-174.21C427.97,-161.95 440.64,-145.11 451.09,-131.24"/>
<polygon fill="black" stroke="black" points="454.04,-133.14 457.26,-123.05 448.45,-128.93 454.04,-133.14"/>
<text text-anchor="middle" x="457.59" y="-144.8" font-family="Times New Roman,serif" font-size="14.00">0.033</text>
</g>
<!-- 4 -->
<g id="node5" class="node">
<title>4</title>
<g id="a_node5"><a xlink:href="lawyer.svg" xlink:title="lawyer">
<ellipse fill="none" stroke="black" cx="535.09" cy="-192" rx="34.39" ry="18"/>
<text text-anchor="middle" x="535.09" y="-188.3" font-family="Times New Roman,serif" font-size="14.00">lawyer</text>
</a>
</g>
</g>
<!-- 4&#45;&gt;1 -->
<g id="edge4" class="edge">
<title>4&#45;&gt;1</title>
<path fill="none" stroke="black" d="M522.87,-175.01C513.4,-162.63 500.11,-145.25 489.23,-131.03"/>
<polygon fill="black" stroke="black" points="492.01,-128.9 483.16,-123.08 486.45,-133.15 492.01,-128.9"/>
<text text-anchor="middle" x="522.59" y="-144.8" font-family="Times New Roman,serif" font-size="14.00">0.033</text>
</g>
<!-- 5&#45;&gt;1 -->
<g id="edge5" class="edge">
<title>5&#45;&gt;1</title>
<path fill="none" stroke="black" d="M242.61,-32.45C272.4,-42.75 314.74,-57.15 352.09,-69 370.83,-74.94 391.33,-81.13 409.91,-86.62"/>
<polygon fill="black" stroke="black" points="409.15,-90.04 419.73,-89.51 411.12,-83.33 409.15,-90.04"/>
<text text-anchor="middle" x="367.59" y="-57.8" font-family="Times New Roman,serif" font-size="14.00">0.033</text>
</g>
<!-- 6&#45;&gt;1 -->
<g id="edge6" class="edge">
<title>6&#45;&gt;1</title>
<path fill="none" stroke="black" d="M406.94,-36.05C418.61,-48.61 434.64,-65.85 447.63,-79.83"/>
<polygon fill="black" stroke="black" points="445.12,-82.26 454.49,-87.21 450.24,-77.5 445.12,-82.26"/>
<text text-anchor="middle" x="451.59" y="-57.8" font-family="Times New Roman,serif" font-size="14.00">0.033</text>
</g>
<!-- 7&#45;&gt;1 -->
<g id="edge7" class="edge">
<title>7&#45;&gt;1</title>
<path fill="none" stroke="black" d="M545.83,-36.23C542.58,-46.63 537.26,-59.63 529.09,-69 524.68,-74.07 519.34,-78.6 513.71,-82.59"/>
<polygon fill="black" stroke="black" points="511.79,-79.67 505.31,-88.05 515.6,-85.54 511.79,-79.67"/>
<text text-anchor="middle" x="553.59" y="-57.8" font-family="Times New Roman,serif" font-size="14.00">0.027</text>
</g>
<!-- 8 -->
<g id="node9" class="node">
<title>8</title>
<g id="a_node9"><a xlink:href="catering manager.svg" xlink:title="catering manager">
<ellipse fill="none" stroke="black" cx="659.09" cy="-192" rx="71.49" ry="18"/>
<text text-anchor="middle" x="659.09" y="-188.3" font-family="Times New Roman,serif" font-size="14.00">catering manager</text>
</a>
</g>
</g>
<!-- 8&#45;&gt;1 -->
<g id="edge8" class="edge">
<title>8&#45;&gt;1</title>
<path fill="none" stroke="black" d="M625.74,-176C594.84,-162.1 548.65,-141.33 514.62,-126.02"/>
<polygon fill="black" stroke="black" points="515.91,-122.77 505.36,-121.86 513.04,-129.15 515.91,-122.77"/>
<text text-anchor="middle" x="590.59" y="-144.8" font-family="Times New Roman,serif" font-size="14.00">0.027</text>
</g>
<!-- 9 -->
<g id="node10" class="node">
<title>9</title>
<g id="a_node10"><a xlink:href="it consultant.svg" xlink:title="it consultant">
<ellipse fill="none" stroke="black" cx="803.09" cy="-192" rx="54.69" ry="18"/>
<text text-anchor="middle" x="803.09" y="-188.3" font-family="Times New Roman,serif" font-size="14.00">it consultant</text>
</a>
</g>
</g>
<!-- 9&#45;&gt;1 -->
<g id="edge9" class="edge">
<title>9&#45;&gt;1</title>
<path fill="none" stroke="black" d="M762.14,-180.06C754.48,-178.03 746.55,-175.94 739.09,-174 669.76,-155.92 590.19,-135.9 535.68,-122.29"/>
<polygon fill="black" stroke="black" points="536.35,-118.85 525.8,-119.82 534.65,-125.64 536.35,-118.85"/>
<text text-anchor="middle" x="680.59" y="-144.8" font-family="Times New Roman,serif" font-size="14.00">0.022</text>
</g>
</g>
</svg>
