<?xml version="1.0" encoding="UTF-8" standalone="no"?>
<!DOCTYPE svg PUBLIC "-//W3C//DTD SVG 1.1//EN"
 "http://www.w3.org/Graphics/SVG/1.1/DTD/svg11.dtd">
<!-- Generated by graphviz version 2.44.1 (20200629.0800)
 -->
<!-- Title: test Pages: 1 -->
<svg width="1471pt" height="218pt"
 viewBox="0.00 0.00 1470.74 218.00" xmlns="http://www.w3.org/2000/svg" xmlns:xlink="http://www.w3.org/1999/xlink">
<g id="graph0" class="graph" transform="scale(1 1) rotate(0) translate(4 214)">
<title>test</title>
<polygon fill="white" stroke="transparent" points="-4,4 -4,-214 1466.74,-214 1466.74,4 -4,4"/>
<!-- 0 -->
<g id="node1" class="node">
<title>0</title>
<g id="a_node1"><a xlink:href="lecturer.svg" xlink:title="lecturer">
<ellipse fill="none" stroke="black" cx="471.04" cy="-192" rx="37.89" ry="18"/>
<text text-anchor="middle" x="471.04" y="-188.3" font-family="Times New Roman,serif" font-size="14.00">lecturer</text>
</a>
</g>
</g>
<!-- 1 -->
<g id="node2" class="node">
<title>1</title>
<g id="a_node2"><a xlink:href="research scientist.svg" xlink:title="research scientist">
<ellipse fill="none" stroke="black" cx="571.04" cy="-105" rx="72.59" ry="18"/>
<text text-anchor="middle" x="571.04" y="-101.3" font-family="Times New Roman,serif" font-size="14.00">research scientist</text>
</a>
</g>
</g>
<!-- 0&#45;&gt;1 -->
<g id="edge1" class="edge">
<title>0&#45;&gt;1</title>
<path fill="none" stroke="black" d="M463.09,-174.24C459.39,-163.76 457.15,-150.51 464.04,-141 472.17,-129.79 483.98,-122.11 496.83,-116.86"/>
<polygon fill="black" stroke="black" points="498.1,-120.12 506.33,-113.45 495.73,-113.53 498.1,-120.12"/>
<text text-anchor="middle" x="479.54" y="-144.8" font-family="Times New Roman,serif" font-size="14.00">0.093</text>
</g>
<!-- 1&#45;&gt;0 -->
<g id="edge11" class="edge">
<title>1&#45;&gt;0</title>
<path fill="none" stroke="black" d="M551.61,-122.52C536.01,-135.78 513.95,-154.53 496.86,-169.05"/>
<polygon fill="black" stroke="black" points="494.27,-166.66 488.92,-175.8 498.81,-171.99 494.27,-166.66"/>
<text text-anchor="middle" x="542.54" y="-144.8" font-family="Times New Roman,serif" font-size="14.00">0.162</text>
</g>
<!-- 1&#45;&gt;1 -->
<g id="edge10" class="edge">
<title>1&#45;&gt;1</title>
<path fill="none" stroke="black" d="M637.15,-112.64C651.46,-111.9 661.84,-109.35 661.84,-105 661.84,-101.77 656.12,-99.54 647.32,-98.29"/>
<polygon fill="black" stroke="black" points="647.43,-94.79 637.15,-97.36 646.79,-101.76 647.43,-94.79"/>
<text text-anchor="middle" x="677.34" y="-101.3" font-family="Times New Roman,serif" font-size="14.00">0.306</text>
</g>
<!-- 2 -->
<g id="node3" class="node">
<title>2</title>
<g id="a_node3"><a xlink:href="academic librarian.svg" xlink:title="academic librarian">
<ellipse fill="none" stroke="black" cx="76.04" cy="-18" rx="76.09" ry="18"/>
<text text-anchor="middle" x="76.04" y="-14.3" font-family="Times New Roman,serif" font-size="14.00">academic librarian</text>
</a>
</g>
</g>
<!-- 1&#45;&gt;2 -->
<g id="edge16" class="edge">
<title>1&#45;&gt;2</title>
<path fill="none" stroke="black" d="M499.56,-101.42C400.39,-97.22 226.45,-87.46 166.04,-69 145.42,-62.7 124.24,-51.23 107.62,-40.86"/>
<polygon fill="black" stroke="black" points="109.19,-37.71 98.88,-35.26 105.41,-43.6 109.19,-37.71"/>
<text text-anchor="middle" x="181.54" y="-57.8" font-family="Times New Roman,serif" font-size="14.00">0.028</text>
</g>
<!-- 3 -->
<g id="node4" class="node">
<title>3</title>
<g id="a_node4"><a xlink:href="software developer.svg" xlink:title="software developer">
<ellipse fill="none" stroke="black" cx="250.04" cy="-18" rx="79.89" ry="18"/>
<text text-anchor="middle" x="250.04" y="-14.3" font-family="Times New Roman,serif" font-size="14.00">software developer</text>
</a>
</g>
</g>
<!-- 1&#45;&gt;3 -->
<g id="edge15" class="edge">
<title>1&#45;&gt;3</title>
<path fill="none" stroke="black" d="M498.96,-102.15C448.77,-98.87 381.06,-90.38 325.04,-69 308.25,-62.59 291.43,-51.87 277.99,-41.99"/>
<polygon fill="black" stroke="black" points="279.76,-38.94 269.68,-35.68 275.52,-44.52 279.76,-38.94"/>
<text text-anchor="middle" x="340.54" y="-57.8" font-family="Times New Roman,serif" font-size="14.00">0.031</text>
</g>
<!-- 4 -->
<g id="node5" class="node">
<title>4</title>
<g id="a_node5"><a xlink:href="teaching assistant.svg" xlink:title="teaching assistant">
<ellipse fill="none" stroke="black" cx="421.04" cy="-18" rx="73.39" ry="18"/>
<text text-anchor="middle" x="421.04" y="-14.3" font-family="Times New Roman,serif" font-size="14.00">teaching assistant</text>
</a>
</g>
</g>
<!-- 1&#45;&gt;4 -->
<g id="edge13" class="edge">
<title>1&#45;&gt;4</title>
<path fill="none" stroke="black" d="M512.02,-94.4C492.55,-89.19 471.66,-81.2 455.04,-69 446.5,-62.73 439.41,-53.63 433.95,-44.91"/>
<polygon fill="black" stroke="black" points="436.89,-43 428.87,-36.09 430.83,-46.5 436.89,-43"/>
<text text-anchor="middle" x="470.54" y="-57.8" font-family="Times New Roman,serif" font-size="14.00">0.044</text>
</g>
<!-- 5 -->
<g id="node6" class="node">
<title>5</title>
<g id="a_node6"><a xlink:href="government research officer.svg" xlink:title="government research officer">
<ellipse fill="none" stroke="black" cx="625.04" cy="-18" rx="112.38" ry="18"/>
<text text-anchor="middle" x="625.04" y="-14.3" font-family="Times New Roman,serif" font-size="14.00">government research officer</text>
</a>
</g>
</g>
<!-- 1&#45;&gt;5 -->
<g id="edge12" class="edge">
<title>1&#45;&gt;5</title>
<path fill="none" stroke="black" d="M565.57,-86.76C563.38,-76.61 562.52,-63.87 568.04,-54 570.77,-49.12 574.49,-44.84 578.73,-41.11"/>
<polygon fill="black" stroke="black" points="580.97,-43.8 586.81,-34.96 576.73,-38.22 580.97,-43.8"/>
<text text-anchor="middle" x="583.54" y="-57.8" font-family="Times New Roman,serif" font-size="14.00">0.070</text>
</g>
<!-- 6 -->
<g id="node7" class="node">
<title>6</title>
<g id="a_node7"><a xlink:href="clinical research associate.svg" xlink:title="clinical research associate">
<ellipse fill="none" stroke="black" cx="859.04" cy="-18" rx="103.98" ry="18"/>
<text text-anchor="middle" x="859.04" y="-14.3" font-family="Times New Roman,serif" font-size="14.00">clinical research associate</text>
</a>
</g>
</g>
<!-- 1&#45;&gt;6 -->
<g id="edge19" class="edge">
<title>1&#45;&gt;6</title>
<path fill="none" stroke="black" d="M608.11,-89.49C636.12,-78.84 675.65,-64.47 711.04,-54 735.19,-46.86 761.88,-40.18 785.87,-34.61"/>
<polygon fill="black" stroke="black" points="786.66,-38.02 795.62,-32.37 785.09,-31.2 786.66,-38.02"/>
<text text-anchor="middle" x="726.54" y="-57.8" font-family="Times New Roman,serif" font-size="14.00">0.018</text>
</g>
<!-- 10 -->
<g id="node11" class="node">
<title>10</title>
<g id="a_node11"><a xlink:href="programme researcher.svg" xlink:title="programme researcher">
<ellipse fill="none" stroke="black" cx="1073.04" cy="-18" rx="91.78" ry="18"/>
<text text-anchor="middle" x="1073.04" y="-14.3" font-family="Times New Roman,serif" font-size="14.00">programme researcher</text>
</a>
</g>
</g>
<!-- 1&#45;&gt;10 -->
<g id="edge14" class="edge">
<title>1&#45;&gt;10</title>
<path fill="none" stroke="black" d="M634.39,-96.02C684.58,-89.47 756.45,-79.57 819.04,-69 881.67,-58.42 952.57,-44.29 1003.51,-33.74"/>
<polygon fill="black" stroke="black" points="1004.34,-37.14 1013.42,-31.68 1002.92,-30.29 1004.34,-37.14"/>
<text text-anchor="middle" x="911.54" y="-57.8" font-family="Times New Roman,serif" font-size="14.00">0.031</text>
</g>
<!-- 11 -->
<g id="node12" class="node">
<title>11</title>
<g id="a_node12"><a xlink:href="it consultant.svg" xlink:title="it consultant">
<ellipse fill="none" stroke="black" cx="1237.04" cy="-18" rx="54.69" ry="18"/>
<text text-anchor="middle" x="1237.04" y="-14.3" font-family="Times New Roman,serif" font-size="14.00">it consultant</text>
</a>
</g>
</g>
<!-- 1&#45;&gt;11 -->
<g id="edge17" class="edge">
<title>1&#45;&gt;11</title>
<path fill="none" stroke="black" d="M641.3,-100.05C754.41,-92.81 983.52,-74.48 1174.04,-36 1178.47,-35.11 1183.05,-34.08 1187.63,-32.98"/>
<polygon fill="black" stroke="black" points="1188.72,-36.31 1197.57,-30.48 1187.02,-29.52 1188.72,-36.31"/>
<text text-anchor="middle" x="1074.54" y="-57.8" font-family="Times New Roman,serif" font-size="14.00">0.026</text>
</g>
<!-- 12 -->
<g id="node13" class="node">
<title>12</title>
<g id="a_node13"><a xlink:href="structural engineer.svg" xlink:title="structural engineer">
<ellipse fill="none" stroke="black" cx="1386.04" cy="-18" rx="76.89" ry="18"/>
<text text-anchor="middle" x="1386.04" y="-14.3" font-family="Times New Roman,serif" font-size="14.00">structural engineer</text>
</a>
</g>
</g>
<!-- 1&#45;&gt;12 -->
<g id="edge18" class="edge">
<title>1&#45;&gt;12</title>
<path fill="none" stroke="black" d="M642.29,-101.29C743.11,-97 933.08,-87.18 1094.04,-69 1186.62,-58.55 1209.35,-52.47 1301.04,-36 1307.26,-34.88 1313.73,-33.67 1320.2,-32.43"/>
<polygon fill="black" stroke="black" points="1321.17,-35.81 1330.32,-30.47 1319.84,-28.94 1321.17,-35.81"/>
<text text-anchor="middle" x="1216.54" y="-57.8" font-family="Times New Roman,serif" font-size="14.00">0.020</text>
</g>
<!-- 2&#45;&gt;1 -->
<g id="edge2" class="edge">
<title>2&#45;&gt;1</title>
<path fill="none" stroke="black" d="M119.96,-32.8C157.38,-44.08 212.77,-59.64 262.04,-69 339.42,-83.7 428.95,-93.01 491.66,-98.3"/>
<polygon fill="black" stroke="black" points="491.62,-101.81 501.87,-99.15 492.2,-94.83 491.62,-101.81"/>
<text text-anchor="middle" x="277.54" y="-57.8" font-family="Times New Roman,serif" font-size="14.00">0.030</text>
</g>
<!-- 3&#45;&gt;1 -->
<g id="edge3" class="edge">
<title>3&#45;&gt;1</title>
<path fill="none" stroke="black" d="M291.7,-33.5C323.15,-44.14 367.5,-58.51 407.04,-69 439.03,-77.48 474.93,-85.33 504.98,-91.44"/>
<polygon fill="black" stroke="black" points="504.44,-94.9 514.93,-93.44 505.82,-88.04 504.44,-94.9"/>
<text text-anchor="middle" x="422.54" y="-57.8" font-family="Times New Roman,serif" font-size="14.00">0.030</text>
</g>
<!-- 4&#45;&gt;1 -->
<g id="edge4" class="edge">
<title>4&#45;&gt;1</title>
<path fill="none" stroke="black" d="M452.59,-34.31C464.45,-40.24 477.98,-47.23 490.04,-54 505.92,-62.91 523.13,-73.4 537.58,-82.47"/>
<polygon fill="black" stroke="black" points="535.87,-85.53 546.19,-87.91 539.6,-79.61 535.87,-85.53"/>
<text text-anchor="middle" x="530.54" y="-57.8" font-family="Times New Roman,serif" font-size="14.00">0.030</text>
</g>
<!-- 5&#45;&gt;1 -->
<g id="edge5" class="edge">
<title>5&#45;&gt;1</title>
<path fill="none" stroke="black" d="M619.01,-36.37C615.17,-46.33 609.67,-58.83 603.04,-69 600.67,-72.65 597.91,-76.28 595.02,-79.75"/>
<polygon fill="black" stroke="black" points="592.19,-77.67 588.19,-87.48 597.44,-82.3 592.19,-77.67"/>
<text text-anchor="middle" x="627.54" y="-57.8" font-family="Times New Roman,serif" font-size="14.00">0.027</text>
</g>
<!-- 6&#45;&gt;1 -->
<g id="edge6" class="edge">
<title>6&#45;&gt;1</title>
<path fill="none" stroke="black" d="M827.14,-35.37C804.9,-46.22 774.26,-60.05 746.04,-69 712.6,-79.6 674.5,-87.67 642.4,-93.38"/>
<polygon fill="black" stroke="black" points="641.46,-89.99 632.21,-95.15 642.66,-96.89 641.46,-89.99"/>
<text text-anchor="middle" x="799.54" y="-57.8" font-family="Times New Roman,serif" font-size="14.00">0.025</text>
</g>
<!-- 7 -->
<g id="node8" class="node">
<title>7</title>
<g id="a_node8"><a xlink:href="teacher.svg" xlink:title="teacher">
<ellipse fill="none" stroke="black" cx="567.04" cy="-192" rx="36.29" ry="18"/>
<text text-anchor="middle" x="567.04" y="-188.3" font-family="Times New Roman,serif" font-size="14.00">teacher</text>
</a>
</g>
</g>
<!-- 7&#45;&gt;1 -->
<g id="edge7" class="edge">
<title>7&#45;&gt;1</title>
<path fill="none" stroke="black" d="M567.85,-173.8C568.4,-162.16 569.14,-146.55 569.76,-133.24"/>
<polygon fill="black" stroke="black" points="573.26,-133.33 570.23,-123.18 566.27,-133 573.26,-133.33"/>
<text text-anchor="middle" x="585.54" y="-144.8" font-family="Times New Roman,serif" font-size="14.00">0.023</text>
</g>
<!-- 8 -->
<g id="node9" class="node">
<title>8</title>
<g id="a_node9"><a xlink:href="electrical engineer.svg" xlink:title="electrical engineer">
<ellipse fill="none" stroke="black" cx="696.04" cy="-192" rx="74.99" ry="18"/>
<text text-anchor="middle" x="696.04" y="-188.3" font-family="Times New Roman,serif" font-size="14.00">electrical engineer</text>
</a>
</g>
</g>
<!-- 8&#45;&gt;1 -->
<g id="edge8" class="edge">
<title>8&#45;&gt;1</title>
<path fill="none" stroke="black" d="M672.24,-174.81C652.69,-161.52 624.81,-142.56 603.27,-127.91"/>
<polygon fill="black" stroke="black" points="605,-124.86 594.76,-122.13 601.06,-130.65 605,-124.86"/>
<text text-anchor="middle" x="656.54" y="-144.8" font-family="Times New Roman,serif" font-size="14.00">0.020</text>
</g>
<!-- 9 -->
<g id="node10" class="node">
<title>9</title>
<g id="a_node10"><a xlink:href="pharmacovigilance officer.svg" xlink:title="pharmacovigilance officer">
<ellipse fill="none" stroke="black" cx="893.04" cy="-192" rx="104.78" ry="18"/>
<text text-anchor="middle" x="893.04" y="-188.3" font-family="Times New Roman,serif" font-size="14.00">pharmacovigilance officer</text>
</a>
</g>
</g>
<!-- 9&#45;&gt;1 -->
<g id="edge9" class="edge">
<title>9&#45;&gt;1</title>
<path fill="none" stroke="black" d="M838.42,-176.58C780.16,-161.2 688.25,-136.94 628.81,-121.25"/>
<polygon fill="black" stroke="black" points="629.4,-117.78 618.83,-118.62 627.61,-124.55 629.4,-117.78"/>
<text text-anchor="middle" x="766.54" y="-144.8" font-family="Times New Roman,serif" font-size="14.00">0.020</text>
</g>
</g>
</svg>
