<?xml version="1.0" encoding="UTF-8" standalone="no"?>
<!DOCTYPE svg PUBLIC "-//W3C//DTD SVG 1.1//EN"
 "http://www.w3.org/Graphics/SVG/1.1/DTD/svg11.dtd">
<!-- Generated by graphviz version 2.44.1 (20200629.0800)
 -->
<!-- Title: test Pages: 1 -->
<svg width="1341pt" height="218pt"
 viewBox="0.00 0.00 1341.33 218.00" xmlns="http://www.w3.org/2000/svg" xmlns:xlink="http://www.w3.org/1999/xlink">
<g id="graph0" class="graph" transform="scale(1 1) rotate(0) translate(4 214)">
<title>test</title>
<polygon fill="white" stroke="transparent" points="-4,4 -4,-214 1337.33,-214 1337.33,4 -4,4"/>
<!-- 0 -->
<g id="node1" class="node">
<title>0</title>
<g id="a_node1"><a xlink:href="marketing assistant.svg" xlink:title="marketing assistant">
<ellipse fill="none" stroke="black" cx="148.09" cy="-192" rx="79.09" ry="18"/>
<text text-anchor="middle" x="148.09" y="-188.3" font-family="Times New Roman,serif" font-size="14.00">marketing assistant</text>
</a>
</g>
</g>
<!-- 1 -->
<g id="node2" class="node">
<title>1</title>
<g id="a_node2"><a xlink:href="retail merchandiser.svg" xlink:title="retail merchandiser">
<ellipse fill="none" stroke="black" cx="407.09" cy="-105" rx="78.79" ry="18"/>
<text text-anchor="middle" x="407.09" y="-101.3" font-family="Times New Roman,serif" font-size="14.00">retail merchandiser</text>
</a>
</g>
</g>
<!-- 0&#45;&gt;1 -->
<g id="edge1" class="edge">
<title>0&#45;&gt;1</title>
<path fill="none" stroke="black" d="M155.3,-173.86C160.93,-162.67 169.85,-148.74 182.09,-141 205.2,-126.38 269.04,-117.34 322.84,-112.12"/>
<polygon fill="black" stroke="black" points="323.47,-115.58 333.1,-111.16 322.82,-108.61 323.47,-115.58"/>
<text text-anchor="middle" x="197.59" y="-144.8" font-family="Times New Roman,serif" font-size="14.00">0.072</text>
</g>
<!-- 1&#45;&gt;0 -->
<g id="edge17" class="edge">
<title>1&#45;&gt;0</title>
<path fill="none" stroke="black" d="M363.93,-120.17C319.08,-134.88 248.85,-157.93 200.76,-173.72"/>
<polygon fill="black" stroke="black" points="199.56,-170.42 191.15,-176.87 201.75,-177.08 199.56,-170.42"/>
<text text-anchor="middle" x="309.59" y="-144.8" font-family="Times New Roman,serif" font-size="14.00">0.024</text>
</g>
<!-- 1&#45;&gt;1 -->
<g id="edge10" class="edge">
<title>1&#45;&gt;1</title>
<path fill="none" stroke="black" d="M478.74,-112.57C493.31,-111.75 503.74,-109.22 503.74,-105 503.74,-101.83 497.87,-99.62 488.79,-98.36"/>
<polygon fill="black" stroke="black" points="489.02,-94.87 478.74,-97.43 488.37,-101.84 489.02,-94.87"/>
<text text-anchor="middle" x="519.24" y="-101.3" font-family="Times New Roman,serif" font-size="14.00">0.104</text>
</g>
<!-- 2 -->
<g id="node3" class="node">
<title>2</title>
<g id="a_node3"><a xlink:href="sales manager.svg" xlink:title="sales manager">
<ellipse fill="none" stroke="black" cx="61.09" cy="-18" rx="61.19" ry="18"/>
<text text-anchor="middle" x="61.09" y="-14.3" font-family="Times New Roman,serif" font-size="14.00">sales manager</text>
</a>
</g>
</g>
<!-- 1&#45;&gt;2 -->
<g id="edge11" class="edge">
<title>1&#45;&gt;2</title>
<path fill="none" stroke="black" d="M330.79,-100.41C256.8,-95.95 150.44,-86.68 113.09,-69 100.71,-63.14 89.42,-53.16 80.54,-43.65"/>
<polygon fill="black" stroke="black" points="82.93,-41.06 73.69,-35.87 77.68,-45.69 82.93,-41.06"/>
<text text-anchor="middle" x="128.59" y="-57.8" font-family="Times New Roman,serif" font-size="14.00">0.064</text>
</g>
<!-- 7 -->
<g id="node8" class="node">
<title>7</title>
<g id="a_node8"><a xlink:href="retail manager.svg" xlink:title="retail manager">
<ellipse fill="none" stroke="black" cx="201.09" cy="-18" rx="60.39" ry="18"/>
<text text-anchor="middle" x="201.09" y="-14.3" font-family="Times New Roman,serif" font-size="14.00">retail manager</text>
</a>
</g>
</g>
<!-- 1&#45;&gt;7 -->
<g id="edge19" class="edge">
<title>1&#45;&gt;7</title>
<path fill="none" stroke="black" d="M333.6,-98.44C304.18,-93.69 270.97,-84.96 244.09,-69 233.69,-62.82 224.55,-53.23 217.41,-44.09"/>
<polygon fill="black" stroke="black" points="220.16,-41.92 211.42,-35.93 214.52,-46.07 220.16,-41.92"/>
<text text-anchor="middle" x="259.59" y="-57.8" font-family="Times New Roman,serif" font-size="14.00">0.024</text>
</g>
<!-- 9 -->
<g id="node10" class="node">
<title>9</title>
<g id="a_node10"><a xlink:href="teaching assistant.svg" xlink:title="teaching assistant">
<ellipse fill="none" stroke="black" cx="353.09" cy="-18" rx="73.39" ry="18"/>
<text text-anchor="middle" x="353.09" y="-14.3" font-family="Times New Roman,serif" font-size="14.00">teaching assistant</text>
</a>
</g>
</g>
<!-- 1&#45;&gt;9 -->
<g id="edge14" class="edge">
<title>1&#45;&gt;9</title>
<path fill="none" stroke="black" d="M370.34,-88.99C362.26,-83.89 354.74,-77.31 350.09,-69 346.3,-62.22 345.52,-54.08 346.11,-46.35"/>
<polygon fill="black" stroke="black" points="349.61,-46.65 347.62,-36.24 342.68,-45.62 349.61,-46.65"/>
<text text-anchor="middle" x="365.59" y="-57.8" font-family="Times New Roman,serif" font-size="14.00">0.032</text>
</g>
<!-- 10 -->
<g id="node11" class="node">
<title>10</title>
<g id="a_node11"><a xlink:href="public house manager.svg" xlink:title="public house manager">
<ellipse fill="none" stroke="black" cx="534.09" cy="-18" rx="89.88" ry="18"/>
<text text-anchor="middle" x="534.09" y="-14.3" font-family="Times New Roman,serif" font-size="14.00">public house manager</text>
</a>
</g>
</g>
<!-- 1&#45;&gt;10 -->
<g id="edge12" class="edge">
<title>1&#45;&gt;10</title>
<path fill="none" stroke="black" d="M431.28,-87.81C451.1,-74.54 479.35,-55.64 501.23,-41"/>
<polygon fill="black" stroke="black" points="503.2,-43.89 509.57,-35.42 499.31,-38.07 503.2,-43.89"/>
<text text-anchor="middle" x="494.59" y="-57.8" font-family="Times New Roman,serif" font-size="14.00">0.032</text>
</g>
<!-- 11 -->
<g id="node12" class="node">
<title>11</title>
<g id="a_node12"><a xlink:href="secretary.svg" xlink:title="secretary">
<ellipse fill="none" stroke="black" cx="685.09" cy="-18" rx="43.59" ry="18"/>
<text text-anchor="middle" x="685.09" y="-14.3" font-family="Times New Roman,serif" font-size="14.00">secretary</text>
</a>
</g>
</g>
<!-- 1&#45;&gt;11 -->
<g id="edge13" class="edge">
<title>1&#45;&gt;11</title>
<path fill="none" stroke="black" d="M453.51,-90.39C499.26,-76.88 571.13,-55.45 633.09,-36 636.18,-35.03 639.36,-34.02 642.55,-33"/>
<polygon fill="black" stroke="black" points="643.68,-36.31 652.12,-29.91 641.53,-29.65 643.68,-36.31"/>
<text text-anchor="middle" x="586.59" y="-57.8" font-family="Times New Roman,serif" font-size="14.00">0.032</text>
</g>
<!-- 12 -->
<g id="node13" class="node">
<title>12</title>
<g id="a_node13"><a xlink:href="barristers clerk.svg" xlink:title="barristers clerk">
<ellipse fill="none" stroke="black" cx="811.09" cy="-18" rx="64.19" ry="18"/>
<text text-anchor="middle" x="811.09" y="-14.3" font-family="Times New Roman,serif" font-size="14.00">barristers clerk</text>
</a>
</g>
</g>
<!-- 1&#45;&gt;12 -->
<g id="edge15" class="edge">
<title>1&#45;&gt;12</title>
<path fill="none" stroke="black" d="M470.03,-94.01C509.28,-87.51 560.78,-78.5 606.09,-69 657.27,-58.27 715.11,-43.96 756.27,-33.4"/>
<polygon fill="black" stroke="black" points="757.28,-36.75 766.09,-30.87 755.54,-29.98 757.28,-36.75"/>
<text text-anchor="middle" x="683.59" y="-57.8" font-family="Times New Roman,serif" font-size="14.00">0.024</text>
</g>
<!-- 13 -->
<g id="node14" class="node">
<title>13</title>
<g id="a_node14"><a xlink:href="charities administrator.svg" xlink:title="charities administrator">
<ellipse fill="none" stroke="black" cx="984.09" cy="-18" rx="90.18" ry="18"/>
<text text-anchor="middle" x="984.09" y="-14.3" font-family="Times New Roman,serif" font-size="14.00">charities administrator</text>
</a>
</g>
</g>
<!-- 1&#45;&gt;13 -->
<g id="edge16" class="edge">
<title>1&#45;&gt;13</title>
<path fill="none" stroke="black" d="M477.52,-96.84C537.59,-90.46 626.18,-80.38 703.09,-69 774.42,-58.45 855.45,-43.74 912.11,-33"/>
<polygon fill="black" stroke="black" points="912.87,-36.42 922.04,-31.12 911.56,-29.54 912.87,-36.42"/>
<text text-anchor="middle" x="810.59" y="-57.8" font-family="Times New Roman,serif" font-size="14.00">0.024</text>
</g>
<!-- 14 -->
<g id="node15" class="node">
<title>14</title>
<g id="a_node15"><a xlink:href="product development scientist.svg" xlink:title="product development scientist">
<ellipse fill="none" stroke="black" cx="1213.09" cy="-18" rx="120.48" ry="18"/>
<text text-anchor="middle" x="1213.09" y="-14.3" font-family="Times New Roman,serif" font-size="14.00">product development scientist</text>
</a>
</g>
</g>
<!-- 1&#45;&gt;14 -->
<g id="edge18" class="edge">
<title>1&#45;&gt;14</title>
<path fill="none" stroke="black" d="M481.31,-98.92C565.86,-92.89 708.09,-82 830.09,-69 942.85,-56.99 970.65,-50.69 1083.09,-36 1093.64,-34.62 1104.66,-33.18 1115.63,-31.75"/>
<polygon fill="black" stroke="black" points="1116.22,-35.2 1125.69,-30.43 1115.32,-28.26 1116.22,-35.2"/>
<text text-anchor="middle" x="967.59" y="-57.8" font-family="Times New Roman,serif" font-size="14.00">0.024</text>
</g>
<!-- 2&#45;&gt;1 -->
<g id="edge2" class="edge">
<title>2&#45;&gt;1</title>
<path fill="none" stroke="black" d="M93.32,-33.41C119.48,-44.59 157.54,-59.7 192.09,-69 236.29,-80.9 286.75,-89.37 327.67,-94.99"/>
<polygon fill="black" stroke="black" points="327.21,-98.46 337.59,-96.33 328.15,-91.53 327.21,-98.46"/>
<text text-anchor="middle" x="207.59" y="-57.8" font-family="Times New Roman,serif" font-size="14.00">0.041</text>
</g>
<!-- 3 -->
<g id="node4" class="node">
<title>3</title>
<g id="a_node4"><a xlink:href="it consultant.svg" xlink:title="it consultant">
<ellipse fill="none" stroke="black" cx="300.09" cy="-192" rx="54.69" ry="18"/>
<text text-anchor="middle" x="300.09" y="-188.3" font-family="Times New Roman,serif" font-size="14.00">it consultant</text>
</a>
</g>
</g>
<!-- 3&#45;&gt;1 -->
<g id="edge3" class="edge">
<title>3&#45;&gt;1</title>
<path fill="none" stroke="black" d="M319.97,-175.21C336.32,-162.22 359.72,-143.63 378.15,-128.99"/>
<polygon fill="black" stroke="black" points="380.58,-131.54 386.23,-122.57 376.22,-126.05 380.58,-131.54"/>
<text text-anchor="middle" x="375.59" y="-144.8" font-family="Times New Roman,serif" font-size="14.00">0.030</text>
</g>
<!-- 4 -->
<g id="node5" class="node">
<title>4</title>
<g id="a_node5"><a xlink:href="lawyer.svg" xlink:title="lawyer">
<ellipse fill="none" stroke="black" cx="407.09" cy="-192" rx="34.39" ry="18"/>
<text text-anchor="middle" x="407.09" y="-188.3" font-family="Times New Roman,serif" font-size="14.00">lawyer</text>
</a>
</g>
</g>
<!-- 4&#45;&gt;1 -->
<g id="edge4" class="edge">
<title>4&#45;&gt;1</title>
<path fill="none" stroke="black" d="M407.09,-173.8C407.09,-162.16 407.09,-146.55 407.09,-133.24"/>
<polygon fill="black" stroke="black" points="410.59,-133.18 407.09,-123.18 403.59,-133.18 410.59,-133.18"/>
<text text-anchor="middle" x="422.59" y="-144.8" font-family="Times New Roman,serif" font-size="14.00">0.030</text>
</g>
<!-- 5 -->
<g id="node6" class="node">
<title>5</title>
<g id="a_node6"><a xlink:href="marketing executive.svg" xlink:title="marketing executive">
<ellipse fill="none" stroke="black" cx="541.09" cy="-192" rx="81.79" ry="18"/>
<text text-anchor="middle" x="541.09" y="-188.3" font-family="Times New Roman,serif" font-size="14.00">marketing executive</text>
</a>
</g>
</g>
<!-- 5&#45;&gt;1 -->
<g id="edge5" class="edge">
<title>5&#45;&gt;1</title>
<path fill="none" stroke="black" d="M515.57,-174.81C494.43,-161.4 464.2,-142.23 441.02,-127.52"/>
<polygon fill="black" stroke="black" points="442.84,-124.53 432.52,-122.13 439.09,-130.44 442.84,-124.53"/>
<text text-anchor="middle" x="498.59" y="-144.8" font-family="Times New Roman,serif" font-size="14.00">0.030</text>
</g>
<!-- 6 -->
<g id="node7" class="node">
<title>6</title>
<g id="a_node7"><a xlink:href="personal assistant.svg" xlink:title="personal assistant">
<ellipse fill="none" stroke="black" cx="716.09" cy="-192" rx="74.99" ry="18"/>
<text text-anchor="middle" x="716.09" y="-188.3" font-family="Times New Roman,serif" font-size="14.00">personal assistant</text>
</a>
</g>
</g>
<!-- 6&#45;&gt;1 -->
<g id="edge6" class="edge">
<title>6&#45;&gt;1</title>
<path fill="none" stroke="black" d="M668.83,-178C614.17,-162.96 524.18,-138.21 465.27,-122"/>
<polygon fill="black" stroke="black" points="465.94,-118.56 455.37,-119.28 464.09,-125.31 465.94,-118.56"/>
<text text-anchor="middle" x="595.59" y="-144.8" font-family="Times New Roman,serif" font-size="14.00">0.030</text>
</g>
<!-- 7&#45;&gt;1 -->
<g id="edge7" class="edge">
<title>7&#45;&gt;1</title>
<path fill="none" stroke="black" d="M231.94,-33.6C254.08,-43.9 284.71,-57.8 312.09,-69 326.24,-74.78 341.73,-80.67 356.03,-85.93"/>
<polygon fill="black" stroke="black" points="355.11,-89.32 365.7,-89.47 357.51,-82.75 355.11,-89.32"/>
<text text-anchor="middle" x="327.59" y="-57.8" font-family="Times New Roman,serif" font-size="14.00">0.030</text>
</g>
<!-- 8 -->
<g id="node9" class="node">
<title>8</title>
<g id="a_node9"><a xlink:href="software developer.svg" xlink:title="software developer">
<ellipse fill="none" stroke="black" cx="889.09" cy="-192" rx="79.89" ry="18"/>
<text text-anchor="middle" x="889.09" y="-188.3" font-family="Times New Roman,serif" font-size="14.00">software developer</text>
</a>
</g>
</g>
<!-- 8&#45;&gt;1 -->
<g id="edge8" class="edge">
<title>8&#45;&gt;1</title>
<path fill="none" stroke="black" d="M830.23,-179.65C820.18,-177.74 809.84,-175.8 800.09,-174 717.96,-158.83 697.39,-155.26 615.09,-141 569.86,-133.16 519.04,-124.6 478.96,-117.91"/>
<polygon fill="black" stroke="black" points="479.45,-114.45 469.01,-116.26 478.3,-121.35 479.45,-114.45"/>
<text text-anchor="middle" x="713.59" y="-144.8" font-family="Times New Roman,serif" font-size="14.00">0.030</text>
</g>
<!-- 9&#45;&gt;1 -->
<g id="edge9" class="edge">
<title>9&#45;&gt;1</title>
<path fill="none" stroke="black" d="M370.24,-35.52C375.43,-41.07 380.87,-47.52 385.09,-54 389.75,-61.15 393.86,-69.45 397.22,-77.21"/>
<polygon fill="black" stroke="black" points="394.04,-78.69 401.07,-86.63 400.52,-76.05 394.04,-78.69"/>
<text text-anchor="middle" x="409.59" y="-57.8" font-family="Times New Roman,serif" font-size="14.00">0.030</text>
</g>
</g>
</svg>
