<?xml version="1.0" encoding="UTF-8" standalone="no"?>
<!DOCTYPE svg PUBLIC "-//W3C//DTD SVG 1.1//EN"
 "http://www.w3.org/Graphics/SVG/1.1/DTD/svg11.dtd">
<!-- Generated by graphviz version 2.44.1 (20200629.0800)
 -->
<!-- Title: sales_manager Pages: 1 -->
<svg width="1360pt" height="218pt"
 viewBox="0.00 0.00 1360.39 218.00" xmlns="http://www.w3.org/2000/svg" xmlns:xlink="http://www.w3.org/1999/xlink">
<g id="graph0" class="graph" transform="scale(1 1) rotate(0) translate(4 214)">
<title>sales_manager</title>
<polygon fill="white" stroke="transparent" points="-4,4 -4,-214 1356.39,-214 1356.39,4 -4,4"/>
<!-- 0 -->
<g id="node1" class="node">
<title>0</title>
<g id="a_node1"><a xlink:href="project manager.svg" xlink:title="project manager">
<ellipse fill="none" stroke="black" cx="566.89" cy="-192" rx="68.79" ry="18"/>
<text text-anchor="middle" x="566.89" y="-188.3" font-family="Times New Roman,serif" font-size="14.00">project manager</text>
</a>
</g>
</g>
<!-- 1 -->
<g id="node2" class="node">
<title>1</title>
<g id="a_node2"><a xlink:href="sales manager.svg" xlink:title="sales manager">
<ellipse fill="none" stroke="black" cx="620.89" cy="-105" rx="61.19" ry="18"/>
<text text-anchor="middle" x="620.89" y="-101.3" font-family="Times New Roman,serif" font-size="14.00">sales manager</text>
</a>
</g>
</g>
<!-- 0&#45;&gt;1 -->
<g id="edge1" class="edge">
<title>0&#45;&gt;1</title>
<path fill="none" stroke="black" d="M563.42,-173.77C562.27,-163.63 562.45,-150.89 567.89,-141 570.97,-135.42 575.35,-130.58 580.3,-126.43"/>
<polygon fill="black" stroke="black" points="582.44,-129.2 588.43,-120.46 578.29,-123.55 582.44,-129.2"/>
<text text-anchor="middle" x="583.39" y="-144.8" font-family="Times New Roman,serif" font-size="14.00">0.042</text>
</g>
<!-- 1&#45;&gt;0 -->
<g id="edge13" class="edge">
<title>1&#45;&gt;0</title>
<path fill="none" stroke="black" d="M614.86,-123.37C611.02,-133.33 605.52,-145.83 598.89,-156 596.52,-159.65 593.76,-163.28 590.87,-166.75"/>
<polygon fill="black" stroke="black" points="588.04,-164.67 584.04,-174.48 593.29,-169.3 588.04,-164.67"/>
<text text-anchor="middle" x="623.39" y="-144.8" font-family="Times New Roman,serif" font-size="14.00">0.049</text>
</g>
<!-- 1&#45;&gt;1 -->
<g id="edge10" class="edge">
<title>1&#45;&gt;1</title>
<path fill="none" stroke="black" d="M676.33,-112.75C689.89,-112.18 699.99,-109.59 699.99,-105 699.99,-101.66 694.66,-99.39 686.54,-98.17"/>
<polygon fill="black" stroke="black" points="686.61,-94.66 676.33,-97.25 685.98,-101.63 686.61,-94.66"/>
<text text-anchor="middle" x="715.49" y="-101.3" font-family="Times New Roman,serif" font-size="14.00">0.277</text>
</g>
<!-- 2 -->
<g id="node3" class="node">
<title>2</title>
<g id="a_node3"><a xlink:href="marketing executive.svg" xlink:title="marketing executive">
<ellipse fill="none" stroke="black" cx="81.89" cy="-18" rx="81.79" ry="18"/>
<text text-anchor="middle" x="81.89" y="-14.3" font-family="Times New Roman,serif" font-size="14.00">marketing executive</text>
</a>
</g>
</g>
<!-- 1&#45;&gt;2 -->
<g id="edge12" class="edge">
<title>1&#45;&gt;2</title>
<path fill="none" stroke="black" d="M559.72,-103.51C450.2,-101.96 225.21,-95.54 151.89,-69 135.54,-63.08 119.57,-52.19 107.03,-42.09"/>
<polygon fill="black" stroke="black" points="109.22,-39.36 99.31,-35.62 104.73,-44.73 109.22,-39.36"/>
<text text-anchor="middle" x="167.39" y="-57.8" font-family="Times New Roman,serif" font-size="14.00">0.050</text>
</g>
<!-- 3 -->
<g id="node4" class="node">
<title>3</title>
<g id="a_node4"><a xlink:href="it consultant.svg" xlink:title="it consultant">
<ellipse fill="none" stroke="black" cx="235.89" cy="-18" rx="54.69" ry="18"/>
<text text-anchor="middle" x="235.89" y="-14.3" font-family="Times New Roman,serif" font-size="14.00">it consultant</text>
</a>
</g>
</g>
<!-- 1&#45;&gt;3 -->
<g id="edge18" class="edge">
<title>1&#45;&gt;3</title>
<path fill="none" stroke="black" d="M561.16,-100.82C483.62,-96.08 352.88,-85.89 307.89,-69 291.18,-62.73 274.67,-51.7 261.68,-41.6"/>
<polygon fill="black" stroke="black" points="263.67,-38.71 253.68,-35.15 259.27,-44.16 263.67,-38.71"/>
<text text-anchor="middle" x="323.39" y="-57.8" font-family="Times New Roman,serif" font-size="14.00">0.035</text>
</g>
<!-- 4 -->
<g id="node5" class="node">
<title>4</title>
<g id="a_node5"><a xlink:href="production manager.svg" xlink:title="production manager">
<ellipse fill="none" stroke="black" cx="391.89" cy="-18" rx="83.39" ry="18"/>
<text text-anchor="middle" x="391.89" y="-14.3" font-family="Times New Roman,serif" font-size="14.00">production manager</text>
</a>
</g>
</g>
<!-- 1&#45;&gt;4 -->
<g id="edge14" class="edge">
<title>1&#45;&gt;4</title>
<path fill="none" stroke="black" d="M563.48,-98.53C530.51,-93.78 489.01,-85.03 454.89,-69 440.86,-62.4 427.15,-52.12 416.12,-42.59"/>
<polygon fill="black" stroke="black" points="418.38,-39.92 408.59,-35.85 413.7,-45.13 418.38,-39.92"/>
<text text-anchor="middle" x="470.39" y="-57.8" font-family="Times New Roman,serif" font-size="14.00">0.042</text>
</g>
<!-- 5 -->
<g id="node6" class="node">
<title>5</title>
<g id="a_node6"><a xlink:href="financial manager.svg" xlink:title="financial manager">
<ellipse fill="none" stroke="black" cx="566.89" cy="-18" rx="73.39" ry="18"/>
<text text-anchor="middle" x="566.89" y="-14.3" font-family="Times New Roman,serif" font-size="14.00">financial manager</text>
</a>
</g>
</g>
<!-- 1&#45;&gt;5 -->
<g id="edge16" class="edge">
<title>1&#45;&gt;5</title>
<path fill="none" stroke="black" d="M585.91,-90.09C577.18,-84.84 568.88,-77.92 563.89,-69 560.1,-62.22 559.32,-54.08 559.91,-46.35"/>
<polygon fill="black" stroke="black" points="563.41,-46.65 561.42,-36.24 556.48,-45.62 563.41,-46.65"/>
<text text-anchor="middle" x="579.39" y="-57.8" font-family="Times New Roman,serif" font-size="14.00">0.037</text>
</g>
<!-- 6 -->
<g id="node7" class="node">
<title>6</title>
<g id="a_node7"><a xlink:href="pharmacovigilance officer.svg" xlink:title="pharmacovigilance officer">
<ellipse fill="none" stroke="black" cx="762.89" cy="-18" rx="104.78" ry="18"/>
<text text-anchor="middle" x="762.89" y="-14.3" font-family="Times New Roman,serif" font-size="14.00">pharmacovigilance officer</text>
</a>
</g>
</g>
<!-- 1&#45;&gt;6 -->
<g id="edge11" class="edge">
<title>1&#45;&gt;6</title>
<path fill="none" stroke="black" d="M639,-87.59C651.13,-77.13 667.76,-63.76 683.89,-54 692.94,-48.53 702.99,-43.42 712.81,-38.88"/>
<polygon fill="black" stroke="black" points="714.42,-42 722.11,-34.72 711.56,-35.61 714.42,-42"/>
<text text-anchor="middle" x="699.39" y="-57.8" font-family="Times New Roman,serif" font-size="14.00">0.055</text>
</g>
<!-- 7 -->
<g id="node8" class="node">
<title>7</title>
<g id="a_node8"><a xlink:href="marketing assistant.svg" xlink:title="marketing assistant">
<ellipse fill="none" stroke="black" cx="964.89" cy="-18" rx="79.09" ry="18"/>
<text text-anchor="middle" x="964.89" y="-14.3" font-family="Times New Roman,serif" font-size="14.00">marketing assistant</text>
</a>
</g>
</g>
<!-- 1&#45;&gt;7 -->
<g id="edge19" class="edge">
<title>1&#45;&gt;7</title>
<path fill="none" stroke="black" d="M667.6,-93.31C697,-86.51 735.71,-77.43 769.89,-69 795.74,-62.62 802.11,-60.63 827.89,-54 852.86,-47.58 880.39,-40.54 904.19,-34.47"/>
<polygon fill="black" stroke="black" points="905.31,-37.79 914.14,-31.93 903.58,-31.01 905.31,-37.79"/>
<text text-anchor="middle" x="843.39" y="-57.8" font-family="Times New Roman,serif" font-size="14.00">0.035</text>
</g>
<!-- 8 -->
<g id="node9" class="node">
<title>8</title>
<g id="a_node9"><a xlink:href="office manager.svg" xlink:title="office manager">
<ellipse fill="none" stroke="black" cx="1126.89" cy="-18" rx="64.19" ry="18"/>
<text text-anchor="middle" x="1126.89" y="-14.3" font-family="Times New Roman,serif" font-size="14.00">office manager</text>
</a>
</g>
</g>
<!-- 1&#45;&gt;8 -->
<g id="edge15" class="edge">
<title>1&#45;&gt;8</title>
<path fill="none" stroke="black" d="M679.72,-100.03C743.1,-95.14 846.73,-85.42 934.89,-69 960.65,-64.2 966.55,-60.62 991.89,-54 1018.04,-47.17 1047.05,-39.64 1071.46,-33.32"/>
<polygon fill="black" stroke="black" points="1072.46,-36.68 1081.27,-30.79 1070.71,-29.9 1072.46,-36.68"/>
<text text-anchor="middle" x="1007.39" y="-57.8" font-family="Times New Roman,serif" font-size="14.00">0.038</text>
</g>
<!-- 10 -->
<g id="node11" class="node">
<title>10</title>
<g id="a_node11"><a xlink:href="catering manager.svg" xlink:title="catering manager">
<ellipse fill="none" stroke="black" cx="1280.89" cy="-18" rx="71.49" ry="18"/>
<text text-anchor="middle" x="1280.89" y="-14.3" font-family="Times New Roman,serif" font-size="14.00">catering manager</text>
</a>
</g>
</g>
<!-- 1&#45;&gt;10 -->
<g id="edge17" class="edge">
<title>1&#45;&gt;10</title>
<path fill="none" stroke="black" d="M682.1,-103.32C773.47,-101.46 950.68,-94.53 1098.89,-69 1143.91,-61.25 1193.86,-47.11 1230.03,-35.84"/>
<polygon fill="black" stroke="black" points="1231.36,-39.09 1239.85,-32.75 1229.26,-32.42 1231.36,-39.09"/>
<text text-anchor="middle" x="1179.39" y="-57.8" font-family="Times New Roman,serif" font-size="14.00">0.035</text>
</g>
<!-- 2&#45;&gt;1 -->
<g id="edge2" class="edge">
<title>2&#45;&gt;1</title>
<path fill="none" stroke="black" d="M122.09,-33.76C154.93,-45.21 202.82,-60.51 245.89,-69 350.52,-89.61 474.02,-98.16 549.89,-101.66"/>
<polygon fill="black" stroke="black" points="550.13,-105.17 560.28,-102.12 550.44,-98.18 550.13,-105.17"/>
<text text-anchor="middle" x="261.39" y="-57.8" font-family="Times New Roman,serif" font-size="14.00">0.039</text>
</g>
<!-- 3&#45;&gt;1 -->
<g id="edge3" class="edge">
<title>3&#45;&gt;1</title>
<path fill="none" stroke="black" d="M271.38,-31.76C303.53,-42.92 352.38,-58.88 395.89,-69 448.87,-81.33 509.9,-90.51 555.02,-96.37"/>
<polygon fill="black" stroke="black" points="554.61,-99.85 564.97,-97.65 555.5,-92.91 554.61,-99.85"/>
<text text-anchor="middle" x="411.39" y="-57.8" font-family="Times New Roman,serif" font-size="14.00">0.036</text>
</g>
<!-- 4&#45;&gt;1 -->
<g id="edge4" class="edge">
<title>4&#45;&gt;1</title>
<path fill="none" stroke="black" d="M431.75,-33.92C458.39,-43.88 494.23,-57.26 525.89,-69 541.86,-74.92 559.35,-81.37 574.92,-87.11"/>
<polygon fill="black" stroke="black" points="573.75,-90.4 584.34,-90.57 576.16,-83.83 573.75,-90.4"/>
<text text-anchor="middle" x="541.39" y="-57.8" font-family="Times New Roman,serif" font-size="14.00">0.035</text>
</g>
<!-- 5&#45;&gt;1 -->
<g id="edge5" class="edge">
<title>5&#45;&gt;1</title>
<path fill="none" stroke="black" d="M584.04,-35.52C589.23,-41.07 594.67,-47.52 598.89,-54 603.55,-61.15 607.66,-69.45 611.02,-77.21"/>
<polygon fill="black" stroke="black" points="607.84,-78.69 614.86,-86.63 614.32,-76.05 607.84,-78.69"/>
<text text-anchor="middle" x="623.39" y="-57.8" font-family="Times New Roman,serif" font-size="14.00">0.032</text>
</g>
<!-- 6&#45;&gt;1 -->
<g id="edge6" class="edge">
<title>6&#45;&gt;1</title>
<path fill="none" stroke="black" d="M751.17,-36.32C743.17,-47.01 731.72,-60.3 718.89,-69 706.02,-77.74 690.71,-84.56 676.07,-89.76"/>
<polygon fill="black" stroke="black" points="674.94,-86.45 666.57,-92.95 677.17,-93.08 674.94,-86.45"/>
<text text-anchor="middle" x="750.39" y="-57.8" font-family="Times New Roman,serif" font-size="14.00">0.030</text>
</g>
<!-- 7&#45;&gt;1 -->
<g id="edge7" class="edge">
<title>7&#45;&gt;1</title>
<path fill="none" stroke="black" d="M938.14,-35C918.11,-46.25 889.65,-60.73 862.89,-69 806.28,-86.49 739.47,-95.31 690.4,-99.72"/>
<polygon fill="black" stroke="black" points="689.87,-96.25 680.21,-100.6 690.47,-103.23 689.87,-96.25"/>
<text text-anchor="middle" x="915.39" y="-57.8" font-family="Times New Roman,serif" font-size="14.00">0.025</text>
</g>
<!-- 8&#45;&gt;1 -->
<g id="edge8" class="edge">
<title>8&#45;&gt;1</title>
<path fill="none" stroke="black" d="M1102.07,-34.74C1082.47,-46.34 1053.98,-61.36 1026.89,-69 965.73,-86.24 790.48,-96.52 691.38,-101.12"/>
<polygon fill="black" stroke="black" points="690.99,-97.63 681.16,-101.59 691.3,-104.63 690.99,-97.63"/>
<text text-anchor="middle" x="1079.39" y="-57.8" font-family="Times New Roman,serif" font-size="14.00">0.021</text>
</g>
<!-- 9 -->
<g id="node10" class="node">
<title>9</title>
<g id="a_node10"><a xlink:href="sales executive.svg" xlink:title="sales executive">
<ellipse fill="none" stroke="black" cx="717.89" cy="-192" rx="64.19" ry="18"/>
<text text-anchor="middle" x="717.89" y="-188.3" font-family="Times New Roman,serif" font-size="14.00">sales executive</text>
</a>
</g>
</g>
<!-- 9&#45;&gt;1 -->
<g id="edge9" class="edge">
<title>9&#45;&gt;1</title>
<path fill="none" stroke="black" d="M699.19,-174.61C684.43,-161.68 663.66,-143.47 647.22,-129.07"/>
<polygon fill="black" stroke="black" points="649.37,-126.3 639.54,-122.34 644.75,-131.56 649.37,-126.3"/>
<text text-anchor="middle" x="690.39" y="-144.8" font-family="Times New Roman,serif" font-size="14.00">0.021</text>
</g>
</g>
</svg>
