<?xml version="1.0" encoding="UTF-8" standalone="no"?>
<!DOCTYPE svg PUBLIC "-//W3C//DTD SVG 1.1//EN"
 "http://www.w3.org/Graphics/SVG/1.1/DTD/svg11.dtd">
<!-- Generated by graphviz version 2.44.1 (20200629.0800)
 -->
<!-- Title: test Pages: 1 -->
<svg width="1350pt" height="218pt"
 viewBox="0.00 0.00 1350.09 218.00" xmlns="http://www.w3.org/2000/svg" xmlns:xlink="http://www.w3.org/1999/xlink">
<g id="graph0" class="graph" transform="scale(1 1) rotate(0) translate(4 214)">
<title>test</title>
<polygon fill="white" stroke="transparent" points="-4,4 -4,-214 1346.09,-214 1346.09,4 -4,4"/>
<!-- 0 -->
<g id="node1" class="node">
<title>0</title>
<g id="a_node1"><a xlink:href="sales manager.svg" xlink:title="sales manager">
<ellipse fill="none" stroke="black" cx="249.6" cy="-192" rx="61.19" ry="18"/>
<text text-anchor="middle" x="249.6" y="-188.3" font-family="Times New Roman,serif" font-size="14.00">sales manager</text>
</a>
</g>
</g>
<!-- 1 -->
<g id="node2" class="node">
<title>1</title>
<g id="a_node2"><a xlink:href="sales executive.svg" xlink:title="sales executive">
<ellipse fill="none" stroke="black" cx="496.6" cy="-105" rx="64.19" ry="18"/>
<text text-anchor="middle" x="496.6" y="-101.3" font-family="Times New Roman,serif" font-size="14.00">sales executive</text>
</a>
</g>
</g>
<!-- 0&#45;&gt;1 -->
<g id="edge1" class="edge">
<title>0&#45;&gt;1</title>
<path fill="none" stroke="black" d="M259.16,-173.88C266.33,-162.7 277.2,-148.78 290.6,-141 313.27,-127.83 376.01,-118.38 426.34,-112.64"/>
<polygon fill="black" stroke="black" points="427,-116.09 436.55,-111.51 426.23,-109.13 427,-116.09"/>
<text text-anchor="middle" x="306.1" y="-144.8" font-family="Times New Roman,serif" font-size="14.00">0.100</text>
</g>
<!-- 1&#45;&gt;0 -->
<g id="edge11" class="edge">
<title>1&#45;&gt;0</title>
<path fill="none" stroke="black" d="M457.68,-119.39C414.25,-134.34 343.93,-158.54 297.24,-174.61"/>
<polygon fill="black" stroke="black" points="295.96,-171.34 287.65,-177.91 298.24,-177.96 295.96,-171.34"/>
<text text-anchor="middle" x="404.1" y="-144.8" font-family="Times New Roman,serif" font-size="14.00">0.127</text>
</g>
<!-- 1&#45;&gt;1 -->
<g id="edge10" class="edge">
<title>1&#45;&gt;1</title>
<path fill="none" stroke="black" d="M555.07,-112.72C568.8,-112.08 578.94,-109.51 578.94,-105 578.94,-101.69 573.47,-99.42 565.13,-98.2"/>
<polygon fill="black" stroke="black" points="565.34,-94.7 555.07,-97.28 564.71,-101.67 565.34,-94.7"/>
<text text-anchor="middle" x="594.44" y="-101.3" font-family="Times New Roman,serif" font-size="14.00">0.137</text>
</g>
<!-- 2 -->
<g id="node3" class="node">
<title>2</title>
<g id="a_node3"><a xlink:href="it consultant.svg" xlink:title="it consultant">
<ellipse fill="none" stroke="black" cx="54.6" cy="-18" rx="54.69" ry="18"/>
<text text-anchor="middle" x="54.6" y="-14.3" font-family="Times New Roman,serif" font-size="14.00">it consultant</text>
</a>
</g>
</g>
<!-- 1&#45;&gt;2 -->
<g id="edge12" class="edge">
<title>1&#45;&gt;2</title>
<path fill="none" stroke="black" d="M433.11,-101.81C342.8,-98.04 182.12,-88.75 127.6,-69 110.65,-62.86 93.91,-51.85 80.74,-41.72"/>
<polygon fill="black" stroke="black" points="82.64,-38.76 72.64,-35.25 78.27,-44.23 82.64,-38.76"/>
<text text-anchor="middle" x="143.1" y="-57.8" font-family="Times New Roman,serif" font-size="14.00">0.061</text>
</g>
<!-- 3 -->
<g id="node4" class="node">
<title>3</title>
<g id="a_node4"><a xlink:href="financial manager.svg" xlink:title="financial manager">
<ellipse fill="none" stroke="black" cx="200.6" cy="-18" rx="73.39" ry="18"/>
<text text-anchor="middle" x="200.6" y="-14.3" font-family="Times New Roman,serif" font-size="14.00">financial manager</text>
</a>
</g>
</g>
<!-- 1&#45;&gt;3 -->
<g id="edge14" class="edge">
<title>1&#45;&gt;3</title>
<path fill="none" stroke="black" d="M433.93,-100.44C389.88,-96.37 330.2,-87.65 280.6,-69 262.69,-62.27 244.48,-51.28 229.96,-41.31"/>
<polygon fill="black" stroke="black" points="231.62,-38.2 221.44,-35.28 227.58,-43.91 231.62,-38.2"/>
<text text-anchor="middle" x="296.1" y="-57.8" font-family="Times New Roman,serif" font-size="14.00">0.056</text>
</g>
<!-- 6 -->
<g id="node7" class="node">
<title>6</title>
<g id="a_node7"><a xlink:href="pharmacovigilance officer.svg" xlink:title="pharmacovigilance officer">
<ellipse fill="none" stroke="black" cx="396.6" cy="-18" rx="104.78" ry="18"/>
<text text-anchor="middle" x="396.6" y="-14.3" font-family="Times New Roman,serif" font-size="14.00">pharmacovigilance officer</text>
</a>
</g>
</g>
<!-- 1&#45;&gt;6 -->
<g id="edge13" class="edge">
<title>1&#45;&gt;6</title>
<path fill="none" stroke="black" d="M445.33,-93.85C430.93,-88.65 416.52,-80.81 406.6,-69 401.23,-62.61 398.46,-54.16 397.1,-46.02"/>
<polygon fill="black" stroke="black" points="400.58,-45.63 396.05,-36.05 393.62,-46.37 400.58,-45.63"/>
<text text-anchor="middle" x="422.1" y="-57.8" font-family="Times New Roman,serif" font-size="14.00">0.061</text>
</g>
<!-- 9 -->
<g id="node10" class="node">
<title>9</title>
<g id="a_node10"><a xlink:href="project manager.svg" xlink:title="project manager">
<ellipse fill="none" stroke="black" cx="588.6" cy="-18" rx="68.79" ry="18"/>
<text text-anchor="middle" x="588.6" y="-14.3" font-family="Times New Roman,serif" font-size="14.00">project manager</text>
</a>
</g>
</g>
<!-- 1&#45;&gt;9 -->
<g id="edge17" class="edge">
<title>1&#45;&gt;9</title>
<path fill="none" stroke="black" d="M502.98,-86.65C507.49,-76.21 514.38,-63.2 523.6,-54 529.59,-48.01 536.83,-42.78 544.26,-38.32"/>
<polygon fill="black" stroke="black" points="545.99,-41.36 553.02,-33.43 542.58,-35.25 545.99,-41.36"/>
<text text-anchor="middle" x="539.1" y="-57.8" font-family="Times New Roman,serif" font-size="14.00">0.025</text>
</g>
<!-- 10 -->
<g id="node11" class="node">
<title>10</title>
<g id="a_node11"><a xlink:href="marketing assistant.svg" xlink:title="marketing assistant">
<ellipse fill="none" stroke="black" cx="754.6" cy="-18" rx="79.09" ry="18"/>
<text text-anchor="middle" x="754.6" y="-14.3" font-family="Times New Roman,serif" font-size="14.00">marketing assistant</text>
</a>
</g>
</g>
<!-- 1&#45;&gt;10 -->
<g id="edge15" class="edge">
<title>1&#45;&gt;10</title>
<path fill="none" stroke="black" d="M537.66,-91.13C558.36,-84.59 583.84,-76.46 606.6,-69 638.75,-58.45 674.73,-46.31 703.15,-36.63"/>
<polygon fill="black" stroke="black" points="704.54,-39.85 712.88,-33.31 702.28,-33.23 704.54,-39.85"/>
<text text-anchor="middle" x="667.1" y="-57.8" font-family="Times New Roman,serif" font-size="14.00">0.030</text>
</g>
<!-- 11 -->
<g id="node12" class="node">
<title>11</title>
<g id="a_node12"><a xlink:href="production manager.svg" xlink:title="production manager">
<ellipse fill="none" stroke="black" cx="934.6" cy="-18" rx="83.39" ry="18"/>
<text text-anchor="middle" x="934.6" y="-14.3" font-family="Times New Roman,serif" font-size="14.00">production manager</text>
</a>
</g>
</g>
<!-- 1&#45;&gt;11 -->
<g id="edge16" class="edge">
<title>1&#45;&gt;11</title>
<path fill="none" stroke="black" d="M549.47,-94.51C587.61,-87.6 640.32,-77.93 686.6,-69 747.52,-57.25 816.72,-43.24 866.52,-33.05"/>
<polygon fill="black" stroke="black" points="867.43,-36.43 876.52,-30.99 866.02,-29.57 867.43,-36.43"/>
<text text-anchor="middle" x="778.1" y="-57.8" font-family="Times New Roman,serif" font-size="14.00">0.030</text>
</g>
<!-- 12 -->
<g id="node13" class="node">
<title>12</title>
<g id="a_node13"><a xlink:href="facilities manager.svg" xlink:title="facilities manager">
<ellipse fill="none" stroke="black" cx="1108.6" cy="-18" rx="72.59" ry="18"/>
<text text-anchor="middle" x="1108.6" y="-14.3" font-family="Times New Roman,serif" font-size="14.00">facilities manager</text>
</a>
</g>
</g>
<!-- 1&#45;&gt;12 -->
<g id="edge18" class="edge">
<title>1&#45;&gt;12</title>
<path fill="none" stroke="black" d="M556.48,-98.14C654.96,-88.09 857.1,-65.75 1026.6,-36 1032.8,-34.91 1039.25,-33.7 1045.69,-32.45"/>
<polygon fill="black" stroke="black" points="1046.63,-35.83 1055.75,-30.45 1045.26,-28.97 1046.63,-35.83"/>
<text text-anchor="middle" x="926.1" y="-57.8" font-family="Times New Roman,serif" font-size="14.00">0.020</text>
</g>
<!-- 13 -->
<g id="node14" class="node">
<title>13</title>
<g id="a_node14"><a xlink:href="heritage manager.svg" xlink:title="heritage manager">
<ellipse fill="none" stroke="black" cx="1270.6" cy="-18" rx="71.49" ry="18"/>
<text text-anchor="middle" x="1270.6" y="-14.3" font-family="Times New Roman,serif" font-size="14.00">heritage manager</text>
</a>
</g>
</g>
<!-- 1&#45;&gt;13 -->
<g id="edge19" class="edge">
<title>1&#45;&gt;13</title>
<path fill="none" stroke="black" d="M559.7,-100.95C682.11,-94.34 960.08,-75.96 1190.6,-36 1196.65,-34.95 1202.95,-33.77 1209.24,-32.53"/>
<polygon fill="black" stroke="black" points="1209.95,-35.96 1219.06,-30.55 1208.57,-29.09 1209.95,-35.96"/>
<text text-anchor="middle" x="1074.1" y="-57.8" font-family="Times New Roman,serif" font-size="14.00">0.020</text>
</g>
<!-- 2&#45;&gt;1 -->
<g id="edge2" class="edge">
<title>2&#45;&gt;1</title>
<path fill="none" stroke="black" d="M89.61,-31.85C121.9,-43.23 171.39,-59.46 215.6,-69 286.09,-84.21 368.06,-93.48 425.21,-98.63"/>
<polygon fill="black" stroke="black" points="424.96,-102.12 435.23,-99.51 425.57,-95.14 424.96,-102.12"/>
<text text-anchor="middle" x="231.1" y="-57.8" font-family="Times New Roman,serif" font-size="14.00">0.043</text>
</g>
<!-- 3&#45;&gt;1 -->
<g id="edge3" class="edge">
<title>3&#45;&gt;1</title>
<path fill="none" stroke="black" d="M243.63,-32.59C276.63,-42.9 323.37,-57.26 364.6,-69 389.53,-76.11 417.26,-83.53 440.83,-89.7"/>
<polygon fill="black" stroke="black" points="440.11,-93.13 450.67,-92.26 441.87,-86.35 440.11,-93.13"/>
<text text-anchor="middle" x="380.1" y="-57.8" font-family="Times New Roman,serif" font-size="14.00">0.039</text>
</g>
<!-- 4 -->
<g id="node5" class="node">
<title>4</title>
<g id="a_node5"><a xlink:href="marketing executive.svg" xlink:title="marketing executive">
<ellipse fill="none" stroke="black" cx="410.6" cy="-192" rx="81.79" ry="18"/>
<text text-anchor="middle" x="410.6" y="-188.3" font-family="Times New Roman,serif" font-size="14.00">marketing executive</text>
</a>
</g>
</g>
<!-- 4&#45;&gt;1 -->
<g id="edge4" class="edge">
<title>4&#45;&gt;1</title>
<path fill="none" stroke="black" d="M427.59,-174.21C440.51,-161.43 458.45,-143.7 472.8,-129.52"/>
<polygon fill="black" stroke="black" points="475.28,-131.99 479.93,-122.47 470.36,-127.01 475.28,-131.99"/>
<text text-anchor="middle" x="475.1" y="-144.8" font-family="Times New Roman,serif" font-size="14.00">0.034</text>
</g>
<!-- 5 -->
<g id="node6" class="node">
<title>5</title>
<g id="a_node6"><a xlink:href="logistics manager.svg" xlink:title="logistics manager">
<ellipse fill="none" stroke="black" cx="583.6" cy="-192" rx="73.39" ry="18"/>
<text text-anchor="middle" x="583.6" y="-188.3" font-family="Times New Roman,serif" font-size="14.00">logistics manager</text>
</a>
</g>
</g>
<!-- 5&#45;&gt;1 -->
<g id="edge5" class="edge">
<title>5&#45;&gt;1</title>
<path fill="none" stroke="black" d="M566.41,-174.21C553.33,-161.43 535.18,-143.7 520.67,-129.52"/>
<polygon fill="black" stroke="black" points="523.05,-126.95 513.45,-122.47 518.16,-131.96 523.05,-126.95"/>
<text text-anchor="middle" x="561.1" y="-144.8" font-family="Times New Roman,serif" font-size="14.00">0.030</text>
</g>
<!-- 6&#45;&gt;1 -->
<g id="edge6" class="edge">
<title>6&#45;&gt;1</title>
<path fill="none" stroke="black" d="M416.5,-35.92C431.69,-48.83 452.77,-66.75 469.5,-80.97"/>
<polygon fill="black" stroke="black" points="467.43,-83.8 477.31,-87.61 471.96,-78.47 467.43,-83.8"/>
<text text-anchor="middle" x="468.1" y="-57.8" font-family="Times New Roman,serif" font-size="14.00">0.030</text>
</g>
<!-- 7 -->
<g id="node8" class="node">
<title>7</title>
<g id="a_node8"><a xlink:href="geographical information systems manager.svg" xlink:title="geographical information systems manager">
<ellipse fill="none" stroke="black" cx="840.6" cy="-192" rx="165.17" ry="18"/>
<text text-anchor="middle" x="840.6" y="-188.3" font-family="Times New Roman,serif" font-size="14.00">geographical information systems manager</text>
</a>
</g>
</g>
<!-- 7&#45;&gt;1 -->
<g id="edge7" class="edge">
<title>7&#45;&gt;1</title>
<path fill="none" stroke="black" d="M777.1,-175.31C712.92,-159.45 614.67,-135.18 553.11,-119.96"/>
<polygon fill="black" stroke="black" points="553.73,-116.51 543.18,-117.51 552.05,-123.31 553.73,-116.51"/>
<text text-anchor="middle" x="705.1" y="-144.8" font-family="Times New Roman,serif" font-size="14.00">0.026</text>
</g>
<!-- 8 -->
<g id="node9" class="node">
<title>8</title>
<g id="a_node9"><a xlink:href="legal executive.svg" xlink:title="legal executive">
<ellipse fill="none" stroke="black" cx="1086.6" cy="-192" rx="63.09" ry="18"/>
<text text-anchor="middle" x="1086.6" y="-188.3" font-family="Times New Roman,serif" font-size="14.00">legal executive</text>
</a>
</g>
</g>
<!-- 8&#45;&gt;1 -->
<g id="edge8" class="edge">
<title>8&#45;&gt;1</title>
<path fill="none" stroke="black" d="M1041.04,-179.51C1032.29,-177.51 1023.19,-175.57 1014.6,-174 855.24,-144.81 666.09,-123.25 566.29,-112.88"/>
<polygon fill="black" stroke="black" points="566.64,-109.4 556.33,-111.85 565.92,-116.36 566.64,-109.4"/>
<text text-anchor="middle" x="917.1" y="-144.8" font-family="Times New Roman,serif" font-size="14.00">0.026</text>
</g>
<!-- 9&#45;&gt;1 -->
<g id="edge9" class="edge">
<title>9&#45;&gt;1</title>
<path fill="none" stroke="black" d="M581.04,-36.27C575.85,-46.68 568.17,-59.68 558.6,-69 552.74,-74.7 545.78,-79.79 538.67,-84.2"/>
<polygon fill="black" stroke="black" points="536.55,-81.39 529.66,-89.43 540.06,-87.44 536.55,-81.39"/>
<text text-anchor="middle" x="587.1" y="-57.8" font-family="Times New Roman,serif" font-size="14.00">0.026</text>
</g>
</g>
</svg>
