<?xml version="1.0" encoding="UTF-8" standalone="no"?>
<!DOCTYPE svg PUBLIC "-//W3C//DTD SVG 1.1//EN"
 "http://www.w3.org/Graphics/SVG/1.1/DTD/svg11.dtd">
<!-- Generated by graphviz version 2.44.1 (20200629.0800)
 -->
<!-- Title: social_researcher Pages: 1 -->
<svg width="1675pt" height="218pt"
 viewBox="0.00 0.00 1675.19 218.00" xmlns="http://www.w3.org/2000/svg" xmlns:xlink="http://www.w3.org/1999/xlink">
<g id="graph0" class="graph" transform="scale(1 1) rotate(0) translate(4 214)">
<title>social_researcher</title>
<polygon fill="white" stroke="transparent" points="-4,4 -4,-214 1671.19,-214 1671.19,4 -4,4"/>
<!-- 0 -->
<g id="node1" class="node">
<title>0</title>
<g id="a_node1"><a xlink:href="lecturer.svg" xlink:title="lecturer">
<ellipse fill="none" stroke="black" cx="289.29" cy="-192" rx="37.89" ry="18"/>
<text text-anchor="middle" x="289.29" y="-188.3" font-family="Times New Roman,serif" font-size="14.00">lecturer</text>
</a>
</g>
</g>
<!-- 1 -->
<g id="node2" class="node">
<title>1</title>
<g id="a_node2"><a xlink:href="social researcher.svg" xlink:title="social researcher">
<ellipse fill="none" stroke="black" cx="813.29" cy="-105" rx="71.49" ry="18"/>
<text text-anchor="middle" x="813.29" y="-101.3" font-family="Times New Roman,serif" font-size="14.00">social researcher</text>
</a>
</g>
</g>
<!-- 0&#45;&gt;1 -->
<g id="edge1" class="edge">
<title>0&#45;&gt;1</title>
<path fill="none" stroke="black" d="M285.16,-173.87C283.63,-162.98 283.96,-149.39 292.29,-141 322.5,-110.58 592.47,-106.01 731.43,-105.69"/>
<polygon fill="black" stroke="black" points="731.61,-109.19 741.61,-105.67 731.6,-102.19 731.61,-109.19"/>
<text text-anchor="middle" x="307.79" y="-144.8" font-family="Times New Roman,serif" font-size="14.00">0.085</text>
</g>
<!-- 1&#45;&gt;0 -->
<g id="edge11" class="edge">
<title>1&#45;&gt;0</title>
<path fill="none" stroke="black" d="M744.9,-110.26C651.11,-117.33 477.95,-134.8 335.29,-174 332.52,-174.76 329.68,-175.62 326.84,-176.53"/>
<polygon fill="black" stroke="black" points="325.6,-173.26 317.26,-179.79 327.86,-179.88 325.6,-173.26"/>
<text text-anchor="middle" x="493.79" y="-144.8" font-family="Times New Roman,serif" font-size="14.00">0.058</text>
</g>
<!-- 4 -->
<g id="node5" class="node">
<title>4</title>
<g id="a_node5"><a xlink:href="marketing assistant.svg" xlink:title="marketing assistant">
<ellipse fill="none" stroke="black" cx="79.29" cy="-18" rx="79.09" ry="18"/>
<text text-anchor="middle" x="79.29" y="-14.3" font-family="Times New Roman,serif" font-size="14.00">marketing assistant</text>
</a>
</g>
</g>
<!-- 1&#45;&gt;4 -->
<g id="edge12" class="edge">
<title>1&#45;&gt;4</title>
<path fill="none" stroke="black" d="M741.76,-103.58C638.08,-102.01 440.29,-95.43 274.29,-69 226.13,-61.33 172.54,-47.17 133.75,-35.87"/>
<polygon fill="black" stroke="black" points="134.3,-32.38 123.72,-32.91 132.32,-39.1 134.3,-32.38"/>
<text text-anchor="middle" x="289.79" y="-57.8" font-family="Times New Roman,serif" font-size="14.00">0.044</text>
</g>
<!-- 11 -->
<g id="node12" class="node">
<title>11</title>
<g id="a_node12"><a xlink:href="community education officer.svg" xlink:title="community education officer">
<ellipse fill="none" stroke="black" cx="291.29" cy="-18" rx="115.08" ry="18"/>
<text text-anchor="middle" x="291.29" y="-14.3" font-family="Times New Roman,serif" font-size="14.00">community education officer</text>
</a>
</g>
</g>
<!-- 1&#45;&gt;11 -->
<g id="edge13" class="edge">
<title>1&#45;&gt;11</title>
<path fill="none" stroke="black" d="M754.93,-94.5C663.18,-79.56 484.67,-50.49 377.91,-33.11"/>
<polygon fill="black" stroke="black" points="378.24,-29.61 367.81,-31.46 377.12,-36.52 378.24,-29.61"/>
<text text-anchor="middle" x="599.79" y="-57.8" font-family="Times New Roman,serif" font-size="14.00">0.029</text>
</g>
<!-- 12 -->
<g id="node13" class="node">
<title>12</title>
<g id="a_node13"><a xlink:href="government research officer.svg" xlink:title="government research officer">
<ellipse fill="none" stroke="black" cx="536.29" cy="-18" rx="112.38" ry="18"/>
<text text-anchor="middle" x="536.29" y="-14.3" font-family="Times New Roman,serif" font-size="14.00">government research officer</text>
</a>
</g>
</g>
<!-- 1&#45;&gt;12 -->
<g id="edge14" class="edge">
<title>1&#45;&gt;12</title>
<path fill="none" stroke="black" d="M769.71,-90.63C722.9,-76.26 648.23,-53.35 595.99,-37.32"/>
<polygon fill="black" stroke="black" points="596.77,-33.9 586.18,-34.31 594.71,-40.59 596.77,-33.9"/>
<text text-anchor="middle" x="707.79" y="-57.8" font-family="Times New Roman,serif" font-size="14.00">0.029</text>
</g>
<!-- 13 -->
<g id="node14" class="node">
<title>13</title>
<g id="a_node14"><a xlink:href="heritage manager.svg" xlink:title="heritage manager">
<ellipse fill="none" stroke="black" cx="738.29" cy="-18" rx="71.49" ry="18"/>
<text text-anchor="middle" x="738.29" y="-14.3" font-family="Times New Roman,serif" font-size="14.00">heritage manager</text>
</a>
</g>
</g>
<!-- 1&#45;&gt;13 -->
<g id="edge15" class="edge">
<title>1&#45;&gt;13</title>
<path fill="none" stroke="black" d="M798.48,-87.21C787.48,-74.75 772.33,-57.57 759.98,-43.57"/>
<polygon fill="black" stroke="black" points="762.32,-40.94 753.08,-35.76 757.07,-45.57 762.32,-40.94"/>
<text text-anchor="middle" x="795.79" y="-57.8" font-family="Times New Roman,serif" font-size="14.00">0.029</text>
</g>
<!-- 14 -->
<g id="node15" class="node">
<title>14</title>
<g id="a_node15"><a xlink:href="media planner.svg" xlink:title="media planner">
<ellipse fill="none" stroke="black" cx="889.29" cy="-18" rx="61.19" ry="18"/>
<text text-anchor="middle" x="889.29" y="-14.3" font-family="Times New Roman,serif" font-size="14.00">media planner</text>
</a>
</g>
</g>
<!-- 1&#45;&gt;14 -->
<g id="edge16" class="edge">
<title>1&#45;&gt;14</title>
<path fill="none" stroke="black" d="M828.31,-87.21C839.45,-74.75 854.8,-57.57 867.32,-43.57"/>
<polygon fill="black" stroke="black" points="870.25,-45.55 874.31,-35.76 865.03,-40.88 870.25,-45.55"/>
<text text-anchor="middle" x="871.79" y="-57.8" font-family="Times New Roman,serif" font-size="14.00">0.029</text>
</g>
<!-- 15 -->
<g id="node16" class="node">
<title>15</title>
<g id="a_node16"><a xlink:href="outdoor pursuits manager.svg" xlink:title="outdoor pursuits manager">
<ellipse fill="none" stroke="black" cx="1072.29" cy="-18" rx="103.98" ry="18"/>
<text text-anchor="middle" x="1072.29" y="-14.3" font-family="Times New Roman,serif" font-size="14.00">outdoor pursuits manager</text>
</a>
</g>
</g>
<!-- 1&#45;&gt;15 -->
<g id="edge17" class="edge">
<title>1&#45;&gt;15</title>
<path fill="none" stroke="black" d="M854.91,-90.34C898.65,-75.99 967.73,-53.32 1016.25,-37.39"/>
<polygon fill="black" stroke="black" points="1017.56,-40.65 1025.97,-34.2 1015.38,-33.99 1017.56,-40.65"/>
<text text-anchor="middle" x="974.79" y="-57.8" font-family="Times New Roman,serif" font-size="14.00">0.029</text>
</g>
<!-- 16 -->
<g id="node17" class="node">
<title>16</title>
<g id="a_node17"><a xlink:href="pharmacovigilance officer.svg" xlink:title="pharmacovigilance officer">
<ellipse fill="none" stroke="black" cx="1299.29" cy="-18" rx="104.78" ry="18"/>
<text text-anchor="middle" x="1299.29" y="-14.3" font-family="Times New Roman,serif" font-size="14.00">pharmacovigilance officer</text>
</a>
</g>
</g>
<!-- 1&#45;&gt;16 -->
<g id="edge18" class="edge">
<title>1&#45;&gt;16</title>
<path fill="none" stroke="black" d="M870.47,-94C956.71,-78.92 1120.4,-50.29 1218.7,-33.09"/>
<polygon fill="black" stroke="black" points="1219.35,-36.54 1228.59,-31.37 1218.14,-29.64 1219.35,-36.54"/>
<text text-anchor="middle" x="1100.79" y="-57.8" font-family="Times New Roman,serif" font-size="14.00">0.029</text>
</g>
<!-- 17 -->
<g id="node18" class="node">
<title>17</title>
<g id="a_node18"><a xlink:href="pr officer.svg" xlink:title="pr officer">
<ellipse fill="none" stroke="black" cx="1466.29" cy="-18" rx="44.69" ry="18"/>
<text text-anchor="middle" x="1466.29" y="-14.3" font-family="Times New Roman,serif" font-size="14.00">pr officer</text>
</a>
</g>
</g>
<!-- 1&#45;&gt;17 -->
<g id="edge19" class="edge">
<title>1&#45;&gt;17</title>
<path fill="none" stroke="black" d="M882.85,-100.58C995.39,-94.06 1223.93,-76.68 1413.29,-36 1416.75,-35.26 1420.31,-34.38 1423.86,-33.42"/>
<polygon fill="black" stroke="black" points="1425.14,-36.69 1433.77,-30.54 1423.19,-29.97 1425.14,-36.69"/>
<text text-anchor="middle" x="1331.79" y="-57.8" font-family="Times New Roman,serif" font-size="14.00">0.029</text>
</g>
<!-- 18 -->
<g id="node19" class="node">
<title>18</title>
<g id="a_node19"><a xlink:href="project manager.svg" xlink:title="project manager">
<ellipse fill="none" stroke="black" cx="1598.29" cy="-18" rx="68.79" ry="18"/>
<text text-anchor="middle" x="1598.29" y="-14.3" font-family="Times New Roman,serif" font-size="14.00">project manager</text>
</a>
</g>
</g>
<!-- 1&#45;&gt;18 -->
<g id="edge20" class="edge">
<title>1&#45;&gt;18</title>
<path fill="none" stroke="black" d="M884.07,-102.28C987.21,-99.12 1184.67,-90.6 1351.29,-69 1416.44,-60.56 1490.14,-44.82 1539.95,-33.24"/>
<polygon fill="black" stroke="black" points="1540.95,-36.6 1549.89,-30.91 1539.36,-29.79 1540.95,-36.6"/>
<text text-anchor="middle" x="1454.79" y="-57.8" font-family="Times New Roman,serif" font-size="14.00">0.029</text>
</g>
<!-- 2 -->
<g id="node3" class="node">
<title>2</title>
<g id="a_node3"><a xlink:href="it consultant.svg" xlink:title="it consultant">
<ellipse fill="none" stroke="black" cx="399.29" cy="-192" rx="54.69" ry="18"/>
<text text-anchor="middle" x="399.29" y="-188.3" font-family="Times New Roman,serif" font-size="14.00">it consultant</text>
</a>
</g>
</g>
<!-- 2&#45;&gt;1 -->
<g id="edge2" class="edge">
<title>2&#45;&gt;1</title>
<path fill="none" stroke="black" d="M439.52,-179.71C447.07,-177.72 454.9,-175.73 462.29,-174 560.22,-151.08 674.8,-129.93 745.72,-117.5"/>
<polygon fill="black" stroke="black" points="746.61,-120.89 755.86,-115.73 745.4,-114 746.61,-120.89"/>
<text text-anchor="middle" x="631.79" y="-144.8" font-family="Times New Roman,serif" font-size="14.00">0.057</text>
</g>
<!-- 3 -->
<g id="node4" class="node">
<title>3</title>
<g id="a_node4"><a xlink:href="research scientist.svg" xlink:title="research scientist">
<ellipse fill="none" stroke="black" cx="544.29" cy="-192" rx="72.59" ry="18"/>
<text text-anchor="middle" x="544.29" y="-188.3" font-family="Times New Roman,serif" font-size="14.00">research scientist</text>
</a>
</g>
</g>
<!-- 3&#45;&gt;1 -->
<g id="edge3" class="edge">
<title>3&#45;&gt;1</title>
<path fill="none" stroke="black" d="M587.21,-177.44C634.36,-162.54 710.08,-138.61 760.74,-122.61"/>
<polygon fill="black" stroke="black" points="762.04,-125.86 770.52,-119.51 759.93,-119.19 762.04,-125.86"/>
<text text-anchor="middle" x="710.79" y="-144.8" font-family="Times New Roman,serif" font-size="14.00">0.057</text>
</g>
<!-- 4&#45;&gt;1 -->
<g id="edge4" class="edge">
<title>4&#45;&gt;1</title>
<path fill="none" stroke="black" d="M135.98,-30.69C146.37,-32.62 157.14,-34.49 167.29,-36 371.6,-66.43 614.24,-88.13 735.78,-98.01"/>
<polygon fill="black" stroke="black" points="735.84,-101.52 746.09,-98.84 736.41,-94.55 735.84,-101.52"/>
<text text-anchor="middle" x="430.79" y="-57.8" font-family="Times New Roman,serif" font-size="14.00">0.042</text>
</g>
<!-- 5 -->
<g id="node6" class="node">
<title>5</title>
<g id="a_node6"><a xlink:href="programme researcher.svg" xlink:title="programme researcher">
<ellipse fill="none" stroke="black" cx="726.29" cy="-192" rx="91.78" ry="18"/>
<text text-anchor="middle" x="726.29" y="-188.3" font-family="Times New Roman,serif" font-size="14.00">programme researcher</text>
</a>
</g>
</g>
<!-- 5&#45;&gt;1 -->
<g id="edge5" class="edge">
<title>5&#45;&gt;1</title>
<path fill="none" stroke="black" d="M743.48,-174.21C756.47,-161.52 774.47,-143.93 788.94,-129.79"/>
<polygon fill="black" stroke="black" points="791.43,-132.25 796.14,-122.76 786.54,-127.24 791.43,-132.25"/>
<text text-anchor="middle" x="790.79" y="-144.8" font-family="Times New Roman,serif" font-size="14.00">0.042</text>
</g>
<!-- 6 -->
<g id="node7" class="node">
<title>6</title>
<g id="a_node7"><a xlink:href="careers adviser.svg" xlink:title="careers adviser">
<ellipse fill="none" stroke="black" cx="901.29" cy="-192" rx="64.99" ry="18"/>
<text text-anchor="middle" x="901.29" y="-188.3" font-family="Times New Roman,serif" font-size="14.00">careers adviser</text>
</a>
</g>
</g>
<!-- 6&#45;&gt;1 -->
<g id="edge6" class="edge">
<title>6&#45;&gt;1</title>
<path fill="none" stroke="black" d="M884.33,-174.61C871.14,-161.88 852.67,-144.03 837.87,-129.74"/>
<polygon fill="black" stroke="black" points="840.13,-127.06 830.51,-122.63 835.27,-132.09 840.13,-127.06"/>
<text text-anchor="middle" x="878.79" y="-144.8" font-family="Times New Roman,serif" font-size="14.00">0.028</text>
</g>
<!-- 7 -->
<g id="node8" class="node">
<title>7</title>
<g id="a_node8"><a xlink:href="education administrator.svg" xlink:title="education administrator">
<ellipse fill="none" stroke="black" cx="1080.29" cy="-192" rx="95.58" ry="18"/>
<text text-anchor="middle" x="1080.29" y="-188.3" font-family="Times New Roman,serif" font-size="14.00">education administrator</text>
</a>
</g>
</g>
<!-- 7&#45;&gt;1 -->
<g id="edge7" class="edge">
<title>7&#45;&gt;1</title>
<path fill="none" stroke="black" d="M1033.79,-176.19C986.82,-161.24 914.41,-138.19 865.5,-122.62"/>
<polygon fill="black" stroke="black" points="866.34,-119.21 855.75,-119.52 864.21,-125.88 866.34,-119.21"/>
<text text-anchor="middle" x="978.79" y="-144.8" font-family="Times New Roman,serif" font-size="14.00">0.028</text>
</g>
<!-- 8 -->
<g id="node9" class="node">
<title>8</title>
<g id="a_node9"><a xlink:href="hotel manager.svg" xlink:title="hotel manager">
<ellipse fill="none" stroke="black" cx="1255.29" cy="-192" rx="61.19" ry="18"/>
<text text-anchor="middle" x="1255.29" y="-188.3" font-family="Times New Roman,serif" font-size="14.00">hotel manager</text>
</a>
</g>
</g>
<!-- 8&#45;&gt;1 -->
<g id="edge8" class="edge">
<title>8&#45;&gt;1</title>
<path fill="none" stroke="black" d="M1210.57,-179.73C1202.19,-177.74 1193.49,-175.74 1185.29,-174 1079.8,-151.57 956.52,-129.92 881.71,-117.29"/>
<polygon fill="black" stroke="black" points="881.93,-113.78 871.49,-115.57 880.77,-120.68 881.93,-113.78"/>
<text text-anchor="middle" x="1108.79" y="-144.8" font-family="Times New Roman,serif" font-size="14.00">0.028</text>
</g>
<!-- 9 -->
<g id="node10" class="node">
<title>9</title>
<g id="a_node10"><a xlink:href="office manager.svg" xlink:title="office manager">
<ellipse fill="none" stroke="black" cx="1398.29" cy="-192" rx="64.19" ry="18"/>
<text text-anchor="middle" x="1398.29" y="-188.3" font-family="Times New Roman,serif" font-size="14.00">office manager</text>
</a>
</g>
</g>
<!-- 9&#45;&gt;1 -->
<g id="edge9" class="edge">
<title>9&#45;&gt;1</title>
<path fill="none" stroke="black" d="M1351.26,-179.59C1342.65,-177.63 1333.71,-175.68 1325.29,-174 1238.24,-156.59 1216.22,-153.24 1128.29,-141 1046.69,-129.64 952.78,-119.59 888.87,-113.21"/>
<polygon fill="black" stroke="black" points="889.18,-109.73 878.88,-112.22 888.49,-116.69 889.18,-109.73"/>
<text text-anchor="middle" x="1241.79" y="-144.8" font-family="Times New Roman,serif" font-size="14.00">0.028</text>
</g>
<!-- 10 -->
<g id="node11" class="node">
<title>10</title>
<g id="a_node11"><a xlink:href="psychologist.svg" xlink:title="psychologist">
<ellipse fill="none" stroke="black" cx="1538.29" cy="-192" rx="57.39" ry="18"/>
<text text-anchor="middle" x="1538.29" y="-188.3" font-family="Times New Roman,serif" font-size="14.00">psychologist</text>
</a>
</g>
</g>
<!-- 10&#45;&gt;1 -->
<g id="edge10" class="edge">
<title>10&#45;&gt;1</title>
<path fill="none" stroke="black" d="M1496.26,-179.7C1488.01,-177.66 1479.4,-175.66 1471.29,-174 1265.84,-131.89 1018.67,-115.25 893.85,-109.18"/>
<polygon fill="black" stroke="black" points="893.78,-105.67 883.62,-108.69 893.44,-112.66 893.78,-105.67"/>
<text text-anchor="middle" x="1379.79" y="-144.8" font-family="Times New Roman,serif" font-size="14.00">0.028</text>
</g>
</g>
</svg>
