<?xml version="1.0" encoding="UTF-8" standalone="no"?>
<!DOCTYPE svg PUBLIC "-//W3C//DTD SVG 1.1//EN"
 "http://www.w3.org/Graphics/SVG/1.1/DTD/svg11.dtd">
<!-- Generated by graphviz version 2.44.1 (20200629.0800)
 -->
<!-- Title: test Pages: 1 -->
<svg width="1732pt" height="218pt"
 viewBox="0.00 0.00 1731.69 218.00" xmlns="http://www.w3.org/2000/svg" xmlns:xlink="http://www.w3.org/1999/xlink">
<g id="graph0" class="graph" transform="scale(1 1) rotate(0) translate(4 214)">
<title>test</title>
<polygon fill="white" stroke="transparent" points="-4,4 -4,-214 1727.69,-214 1727.69,4 -4,4"/>
<!-- 0 -->
<g id="node1" class="node">
<title>0</title>
<g id="a_node1"><a xlink:href="lecturer.svg" xlink:title="lecturer">
<ellipse fill="none" stroke="black" cx="250.79" cy="-192" rx="37.89" ry="18"/>
<text text-anchor="middle" x="250.79" y="-188.3" font-family="Times New Roman,serif" font-size="14.00">lecturer</text>
</a>
</g>
</g>
<!-- 1 -->
<g id="node2" class="node">
<title>1</title>
<g id="a_node2"><a xlink:href="social researcher.svg" xlink:title="social researcher">
<ellipse fill="none" stroke="black" cx="699.79" cy="-105" rx="71.49" ry="18"/>
<text text-anchor="middle" x="699.79" y="-101.3" font-family="Times New Roman,serif" font-size="14.00">social researcher</text>
</a>
</g>
</g>
<!-- 0&#45;&gt;1 -->
<g id="edge1" class="edge">
<title>0&#45;&gt;1</title>
<path fill="none" stroke="black" d="M246.69,-173.9C245.18,-163.02 245.51,-149.44 253.79,-141 278.73,-115.6 496.72,-108.63 618.44,-106.72"/>
<polygon fill="black" stroke="black" points="618.52,-110.22 628.47,-106.57 618.42,-103.22 618.52,-110.22"/>
<text text-anchor="middle" x="269.29" y="-144.8" font-family="Times New Roman,serif" font-size="14.00">0.088</text>
</g>
<!-- 1&#45;&gt;0 -->
<g id="edge11" class="edge">
<title>1&#45;&gt;0</title>
<path fill="none" stroke="black" d="M635,-112.61C554.58,-121.8 413.77,-141.12 296.79,-174 294.03,-174.78 291.19,-175.65 288.35,-176.57"/>
<polygon fill="black" stroke="black" points="287.1,-173.29 278.78,-179.85 289.37,-179.92 287.1,-173.29"/>
<text text-anchor="middle" x="455.29" y="-144.8" font-family="Times New Roman,serif" font-size="14.00">0.060</text>
</g>
<!-- 3 -->
<g id="node4" class="node">
<title>3</title>
<g id="a_node4"><a xlink:href="research scientist.svg" xlink:title="research scientist">
<ellipse fill="none" stroke="black" cx="72.79" cy="-18" rx="72.59" ry="18"/>
<text text-anchor="middle" x="72.79" y="-14.3" font-family="Times New Roman,serif" font-size="14.00">research scientist</text>
</a>
</g>
</g>
<!-- 1&#45;&gt;3 -->
<g id="edge20" class="edge">
<title>1&#45;&gt;3</title>
<path fill="none" stroke="black" d="M629.33,-101.89C510.51,-97.87 275.35,-87.78 194.79,-69 166.19,-62.33 135.61,-49.78 112.22,-38.93"/>
<polygon fill="black" stroke="black" points="113.52,-35.67 102.98,-34.56 110.52,-42 113.52,-35.67"/>
<text text-anchor="middle" x="210.29" y="-57.8" font-family="Times New Roman,serif" font-size="14.00">0.030</text>
</g>
<!-- 4 -->
<g id="node5" class="node">
<title>4</title>
<g id="a_node5"><a xlink:href="marketing assistant.svg" xlink:title="marketing assistant">
<ellipse fill="none" stroke="black" cx="242.79" cy="-18" rx="79.09" ry="18"/>
<text text-anchor="middle" x="242.79" y="-14.3" font-family="Times New Roman,serif" font-size="14.00">marketing assistant</text>
</a>
</g>
</g>
<!-- 1&#45;&gt;4 -->
<g id="edge15" class="edge">
<title>1&#45;&gt;4</title>
<path fill="none" stroke="black" d="M631.1,-99.9C569.47,-95.31 476.84,-86.16 397.79,-69 361.27,-61.07 321.13,-48 290.86,-37.21"/>
<polygon fill="black" stroke="black" points="291.98,-33.9 281.39,-33.8 289.61,-40.48 291.98,-33.9"/>
<text text-anchor="middle" x="413.29" y="-57.8" font-family="Times New Roman,serif" font-size="14.00">0.030</text>
</g>
<!-- 11 -->
<g id="node12" class="node">
<title>11</title>
<g id="a_node12"><a xlink:href="community education officer.svg" xlink:title="community education officer">
<ellipse fill="none" stroke="black" cx="454.79" cy="-18" rx="115.08" ry="18"/>
<text text-anchor="middle" x="454.79" y="-14.3" font-family="Times New Roman,serif" font-size="14.00">community education officer</text>
</a>
</g>
</g>
<!-- 1&#45;&gt;11 -->
<g id="edge12" class="edge">
<title>1&#45;&gt;11</title>
<path fill="none" stroke="black" d="M659.61,-90.06C618.76,-75.89 555.18,-53.83 509.7,-38.05"/>
<polygon fill="black" stroke="black" points="510.59,-34.65 499.99,-34.68 508.29,-41.27 510.59,-34.65"/>
<text text-anchor="middle" x="608.29" y="-57.8" font-family="Times New Roman,serif" font-size="14.00">0.030</text>
</g>
<!-- 12 -->
<g id="node13" class="node">
<title>12</title>
<g id="a_node13"><a xlink:href="government research officer.svg" xlink:title="government research officer">
<ellipse fill="none" stroke="black" cx="699.79" cy="-18" rx="112.38" ry="18"/>
<text text-anchor="middle" x="699.79" y="-14.3" font-family="Times New Roman,serif" font-size="14.00">government research officer</text>
</a>
</g>
</g>
<!-- 1&#45;&gt;12 -->
<g id="edge13" class="edge">
<title>1&#45;&gt;12</title>
<path fill="none" stroke="black" d="M699.79,-86.8C699.79,-75.16 699.79,-59.55 699.79,-46.24"/>
<polygon fill="black" stroke="black" points="703.29,-46.18 699.79,-36.18 696.29,-46.18 703.29,-46.18"/>
<text text-anchor="middle" x="715.29" y="-57.8" font-family="Times New Roman,serif" font-size="14.00">0.030</text>
</g>
<!-- 13 -->
<g id="node14" class="node">
<title>13</title>
<g id="a_node14"><a xlink:href="heritage manager.svg" xlink:title="heritage manager">
<ellipse fill="none" stroke="black" cx="901.79" cy="-18" rx="71.49" ry="18"/>
<text text-anchor="middle" x="901.79" y="-14.3" font-family="Times New Roman,serif" font-size="14.00">heritage manager</text>
</a>
</g>
</g>
<!-- 1&#45;&gt;13 -->
<g id="edge14" class="edge">
<title>1&#45;&gt;13</title>
<path fill="none" stroke="black" d="M734.98,-89.19C768.91,-74.92 820.39,-53.25 857.18,-37.77"/>
<polygon fill="black" stroke="black" points="858.81,-40.88 866.67,-33.78 856.1,-34.43 858.81,-40.88"/>
<text text-anchor="middle" x="829.29" y="-57.8" font-family="Times New Roman,serif" font-size="14.00">0.030</text>
</g>
<!-- 14 -->
<g id="node15" class="node">
<title>14</title>
<g id="a_node15"><a xlink:href="media planner.svg" xlink:title="media planner">
<ellipse fill="none" stroke="black" cx="1052.79" cy="-18" rx="61.19" ry="18"/>
<text text-anchor="middle" x="1052.79" y="-14.3" font-family="Times New Roman,serif" font-size="14.00">media planner</text>
</a>
</g>
</g>
<!-- 1&#45;&gt;14 -->
<g id="edge16" class="edge">
<title>1&#45;&gt;14</title>
<path fill="none" stroke="black" d="M750.51,-92.21C779.34,-85.48 816.11,-76.84 848.79,-69 899.24,-56.89 956.62,-42.8 997.65,-32.67"/>
<polygon fill="black" stroke="black" points="998.58,-36.04 1007.45,-30.25 996.9,-29.25 998.58,-36.04"/>
<text text-anchor="middle" x="925.29" y="-57.8" font-family="Times New Roman,serif" font-size="14.00">0.030</text>
</g>
<!-- 15 -->
<g id="node16" class="node">
<title>15</title>
<g id="a_node16"><a xlink:href="outdoor pursuits manager.svg" xlink:title="outdoor pursuits manager">
<ellipse fill="none" stroke="black" cx="1235.79" cy="-18" rx="103.98" ry="18"/>
<text text-anchor="middle" x="1235.79" y="-14.3" font-family="Times New Roman,serif" font-size="14.00">outdoor pursuits manager</text>
</a>
</g>
</g>
<!-- 1&#45;&gt;15 -->
<g id="edge17" class="edge">
<title>1&#45;&gt;15</title>
<path fill="none" stroke="black" d="M761.28,-95.71C810.88,-88.9 882.4,-78.81 944.79,-69 1016.6,-57.7 1098.14,-43.58 1156.6,-33.23"/>
<polygon fill="black" stroke="black" points="1157.27,-36.67 1166.5,-31.47 1156.05,-29.77 1157.27,-36.67"/>
<text text-anchor="middle" x="1048.29" y="-57.8" font-family="Times New Roman,serif" font-size="14.00">0.030</text>
</g>
<!-- 16 -->
<g id="node17" class="node">
<title>16</title>
<g id="a_node17"><a xlink:href="pharmacovigilance officer.svg" xlink:title="pharmacovigilance officer">
<ellipse fill="none" stroke="black" cx="1462.79" cy="-18" rx="104.78" ry="18"/>
<text text-anchor="middle" x="1462.79" y="-14.3" font-family="Times New Roman,serif" font-size="14.00">pharmacovigilance officer</text>
</a>
</g>
</g>
<!-- 1&#45;&gt;16 -->
<g id="edge18" class="edge">
<title>1&#45;&gt;16</title>
<path fill="none" stroke="black" d="M766.27,-98.28C883.95,-87.87 1136.55,-64.28 1348.79,-36 1358.07,-34.76 1367.76,-33.41 1377.4,-32.03"/>
<polygon fill="black" stroke="black" points="1378.02,-35.48 1387.42,-30.58 1377.02,-28.55 1378.02,-35.48"/>
<text text-anchor="middle" x="1204.29" y="-57.8" font-family="Times New Roman,serif" font-size="14.00">0.030</text>
</g>
<!-- 17 -->
<g id="node18" class="node">
<title>17</title>
<g id="a_node18"><a xlink:href="project manager.svg" xlink:title="project manager">
<ellipse fill="none" stroke="black" cx="1654.79" cy="-18" rx="68.79" ry="18"/>
<text text-anchor="middle" x="1654.79" y="-14.3" font-family="Times New Roman,serif" font-size="14.00">project manager</text>
</a>
</g>
</g>
<!-- 1&#45;&gt;17 -->
<g id="edge19" class="edge">
<title>1&#45;&gt;17</title>
<path fill="none" stroke="black" d="M770.41,-102.19C919.97,-97.55 1279.31,-82.15 1576.79,-36 1582.91,-35.05 1589.26,-33.92 1595.58,-32.69"/>
<polygon fill="black" stroke="black" points="1596.34,-36.11 1605.45,-30.7 1594.95,-29.25 1596.34,-36.11"/>
<text text-anchor="middle" x="1449.29" y="-57.8" font-family="Times New Roman,serif" font-size="14.00">0.030</text>
</g>
<!-- 2 -->
<g id="node3" class="node">
<title>2</title>
<g id="a_node3"><a xlink:href="it consultant.svg" xlink:title="it consultant">
<ellipse fill="none" stroke="black" cx="360.79" cy="-192" rx="54.69" ry="18"/>
<text text-anchor="middle" x="360.79" y="-188.3" font-family="Times New Roman,serif" font-size="14.00">it consultant</text>
</a>
</g>
</g>
<!-- 2&#45;&gt;1 -->
<g id="edge2" class="edge">
<title>2&#45;&gt;1</title>
<path fill="none" stroke="black" d="M401.43,-179.89C408.86,-177.9 416.55,-175.87 423.79,-174 498.17,-154.8 584.14,-133.81 640.1,-120.31"/>
<polygon fill="black" stroke="black" points="640.95,-123.7 649.85,-117.96 639.31,-116.9 640.95,-123.7"/>
<text text-anchor="middle" x="568.29" y="-144.8" font-family="Times New Roman,serif" font-size="14.00">0.058</text>
</g>
<!-- 3&#45;&gt;1 -->
<g id="edge3" class="edge">
<title>3&#45;&gt;1</title>
<path fill="none" stroke="black" d="M122.23,-31.4C169.37,-42.78 242.51,-59.31 306.79,-69 414.72,-85.28 540.56,-94.85 620.19,-99.76"/>
<polygon fill="black" stroke="black" points="620.43,-103.28 630.63,-100.39 620.86,-96.29 620.43,-103.28"/>
<text text-anchor="middle" x="322.29" y="-57.8" font-family="Times New Roman,serif" font-size="14.00">0.058</text>
</g>
<!-- 4&#45;&gt;1 -->
<g id="edge4" class="edge">
<title>4&#45;&gt;1</title>
<path fill="none" stroke="black" d="M301,-30.32C310.94,-32.23 321.16,-34.18 330.79,-36 436.56,-55.96 559.51,-78.48 633.41,-91.94"/>
<polygon fill="black" stroke="black" points="633.04,-95.43 643.5,-93.78 634.29,-88.55 633.04,-95.43"/>
<text text-anchor="middle" x="518.29" y="-57.8" font-family="Times New Roman,serif" font-size="14.00">0.044</text>
</g>
<!-- 5 -->
<g id="node6" class="node">
<title>5</title>
<g id="a_node6"><a xlink:href="programme researcher.svg" xlink:title="programme researcher">
<ellipse fill="none" stroke="black" cx="524.79" cy="-192" rx="91.78" ry="18"/>
<text text-anchor="middle" x="524.79" y="-188.3" font-family="Times New Roman,serif" font-size="14.00">programme researcher</text>
</a>
</g>
</g>
<!-- 5&#45;&gt;1 -->
<g id="edge5" class="edge">
<title>5&#45;&gt;1</title>
<path fill="none" stroke="black" d="M557.71,-175.01C586.51,-161.02 628.45,-140.65 659.3,-125.67"/>
<polygon fill="black" stroke="black" points="661.03,-128.72 668.5,-121.2 657.97,-122.42 661.03,-128.72"/>
<text text-anchor="middle" x="638.29" y="-144.8" font-family="Times New Roman,serif" font-size="14.00">0.044</text>
</g>
<!-- 6 -->
<g id="node7" class="node">
<title>6</title>
<g id="a_node7"><a xlink:href="careers adviser.svg" xlink:title="careers adviser">
<ellipse fill="none" stroke="black" cx="699.79" cy="-192" rx="64.99" ry="18"/>
<text text-anchor="middle" x="699.79" y="-188.3" font-family="Times New Roman,serif" font-size="14.00">careers adviser</text>
</a>
</g>
</g>
<!-- 6&#45;&gt;1 -->
<g id="edge6" class="edge">
<title>6&#45;&gt;1</title>
<path fill="none" stroke="black" d="M699.79,-173.8C699.79,-162.16 699.79,-146.55 699.79,-133.24"/>
<polygon fill="black" stroke="black" points="703.29,-133.18 699.79,-123.18 696.29,-133.18 703.29,-133.18"/>
<text text-anchor="middle" x="715.29" y="-144.8" font-family="Times New Roman,serif" font-size="14.00">0.029</text>
</g>
<!-- 7 -->
<g id="node8" class="node">
<title>7</title>
<g id="a_node8"><a xlink:href="education administrator.svg" xlink:title="education administrator">
<ellipse fill="none" stroke="black" cx="878.79" cy="-192" rx="95.58" ry="18"/>
<text text-anchor="middle" x="878.79" y="-188.3" font-family="Times New Roman,serif" font-size="14.00">education administrator</text>
</a>
</g>
</g>
<!-- 7&#45;&gt;1 -->
<g id="edge7" class="edge">
<title>7&#45;&gt;1</title>
<path fill="none" stroke="black" d="M845.13,-175.01C815.66,-161.02 772.76,-140.65 741.21,-125.67"/>
<polygon fill="black" stroke="black" points="742.34,-122.33 731.81,-121.2 739.34,-128.65 742.34,-122.33"/>
<text text-anchor="middle" x="816.29" y="-144.8" font-family="Times New Roman,serif" font-size="14.00">0.029</text>
</g>
<!-- 8 -->
<g id="node9" class="node">
<title>8</title>
<g id="a_node9"><a xlink:href="hotel manager.svg" xlink:title="hotel manager">
<ellipse fill="none" stroke="black" cx="1053.79" cy="-192" rx="61.19" ry="18"/>
<text text-anchor="middle" x="1053.79" y="-188.3" font-family="Times New Roman,serif" font-size="14.00">hotel manager</text>
</a>
</g>
</g>
<!-- 8&#45;&gt;1 -->
<g id="edge8" class="edge">
<title>8&#45;&gt;1</title>
<path fill="none" stroke="black" d="M1008.24,-179.91C1000.1,-177.94 991.7,-175.91 983.79,-174 906.5,-155.36 817.32,-134.04 759.83,-120.31"/>
<polygon fill="black" stroke="black" points="760.36,-116.84 749.82,-117.93 758.74,-123.65 760.36,-116.84"/>
<text text-anchor="middle" x="921.29" y="-144.8" font-family="Times New Roman,serif" font-size="14.00">0.029</text>
</g>
<!-- 9 -->
<g id="node10" class="node">
<title>9</title>
<g id="a_node10"><a xlink:href="office manager.svg" xlink:title="office manager">
<ellipse fill="none" stroke="black" cx="1196.79" cy="-192" rx="64.19" ry="18"/>
<text text-anchor="middle" x="1196.79" y="-188.3" font-family="Times New Roman,serif" font-size="14.00">office manager</text>
</a>
</g>
</g>
<!-- 9&#45;&gt;1 -->
<g id="edge9" class="edge">
<title>9&#45;&gt;1</title>
<path fill="none" stroke="black" d="M1149.75,-179.68C1141.13,-177.71 1132.2,-175.74 1123.79,-174 1000.84,-148.61 856.17,-127.2 771.56,-115.52"/>
<polygon fill="black" stroke="black" points="771.93,-112.04 761.55,-114.14 770.98,-118.97 771.93,-112.04"/>
<text text-anchor="middle" x="1034.29" y="-144.8" font-family="Times New Roman,serif" font-size="14.00">0.029</text>
</g>
<!-- 10 -->
<g id="node11" class="node">
<title>10</title>
<g id="a_node11"><a xlink:href="psychologist.svg" xlink:title="psychologist">
<ellipse fill="none" stroke="black" cx="1336.79" cy="-192" rx="57.39" ry="18"/>
<text text-anchor="middle" x="1336.79" y="-188.3" font-family="Times New Roman,serif" font-size="14.00">psychologist</text>
</a>
</g>
</g>
<!-- 10&#45;&gt;1 -->
<g id="edge10" class="edge">
<title>10&#45;&gt;1</title>
<path fill="none" stroke="black" d="M1294.76,-179.67C1286.52,-177.64 1277.91,-175.65 1269.79,-174 1095.99,-138.76 888.41,-119.66 777.98,-111.28"/>
<polygon fill="black" stroke="black" points="778.16,-107.79 767.92,-110.53 777.63,-114.77 778.16,-107.79"/>
<text text-anchor="middle" x="1176.29" y="-144.8" font-family="Times New Roman,serif" font-size="14.00">0.029</text>
</g>
</g>
</svg>
