<?xml version="1.0" encoding="UTF-8" standalone="no"?>
<!DOCTYPE svg PUBLIC "-//W3C//DTD SVG 1.1//EN"
 "http://www.w3.org/Graphics/SVG/1.1/DTD/svg11.dtd">
<!-- Generated by graphviz version 2.44.1 (20200629.0800)
 -->
<!-- Title: test Pages: 1 -->
<svg width="1079pt" height="218pt"
 viewBox="0.00 0.00 1079.13 218.00" xmlns="http://www.w3.org/2000/svg" xmlns:xlink="http://www.w3.org/1999/xlink">
<g id="graph0" class="graph" transform="scale(1 1) rotate(0) translate(4 214)">
<title>test</title>
<polygon fill="white" stroke="transparent" points="-4,4 -4,-214 1075.13,-214 1075.13,4 -4,4"/>
<!-- 0 -->
<g id="node1" class="node">
<title>0</title>
<g id="a_node1"><a xlink:href="pharmacovigilance officer.svg" xlink:title="pharmacovigilance officer">
<ellipse fill="none" stroke="black" cx="104.64" cy="-192" rx="104.78" ry="18"/>
<text text-anchor="middle" x="104.64" y="-188.3" font-family="Times New Roman,serif" font-size="14.00">pharmacovigilance officer</text>
</a>
</g>
</g>
<!-- 1 -->
<g id="node2" class="node">
<title>1</title>
<g id="a_node2"><a xlink:href="solicitor.svg" xlink:title="solicitor">
<ellipse fill="none" stroke="black" cx="369.64" cy="-105" rx="40.09" ry="18"/>
<text text-anchor="middle" x="369.64" y="-101.3" font-family="Times New Roman,serif" font-size="14.00">solicitor</text>
</a>
</g>
</g>
<!-- 0&#45;&gt;1 -->
<g id="edge1" class="edge">
<title>0&#45;&gt;1</title>
<path fill="none" stroke="black" d="M120.3,-173.92C131.54,-162.75 147.65,-148.83 164.64,-141 214.02,-118.24 276.23,-110.15 319.1,-107.34"/>
<polygon fill="black" stroke="black" points="319.51,-110.82 329.29,-106.75 319.11,-103.83 319.51,-110.82"/>
<text text-anchor="middle" x="180.14" y="-144.8" font-family="Times New Roman,serif" font-size="14.00">0.190</text>
</g>
<!-- 1&#45;&gt;0 -->
<g id="edge12" class="edge">
<title>1&#45;&gt;0</title>
<path fill="none" stroke="black" d="M337.97,-116.16C294.43,-130.12 215.38,-155.48 161.47,-172.77"/>
<polygon fill="black" stroke="black" points="160.17,-169.51 151.71,-175.9 162.3,-176.18 160.17,-169.51"/>
<text text-anchor="middle" x="269.14" y="-144.8" font-family="Times New Roman,serif" font-size="14.00">0.147</text>
</g>
<!-- 1&#45;&gt;1 -->
<g id="edge10" class="edge">
<title>1&#45;&gt;1</title>
<path fill="none" stroke="black" d="M406.08,-112.88C418.22,-112.88 427.94,-110.25 427.94,-105 427.94,-101.31 423.13,-98.91 416.06,-97.82"/>
<polygon fill="black" stroke="black" points="416.29,-94.33 406.08,-97.13 415.81,-101.31 416.29,-94.33"/>
<text text-anchor="middle" x="443.44" y="-101.3" font-family="Times New Roman,serif" font-size="14.00">0.215</text>
</g>
<!-- 3 -->
<g id="node4" class="node">
<title>3</title>
<g id="a_node4"><a xlink:href="lawyer.svg" xlink:title="lawyer">
<ellipse fill="none" stroke="black" cx="84.64" cy="-18" rx="34.39" ry="18"/>
<text text-anchor="middle" x="84.64" y="-14.3" font-family="Times New Roman,serif" font-size="14.00">lawyer</text>
</a>
</g>
</g>
<!-- 1&#45;&gt;3 -->
<g id="edge13" class="edge">
<title>1&#45;&gt;3</title>
<path fill="none" stroke="black" d="M329.77,-101.84C255.94,-97.44 103.93,-86.36 87.64,-69 81.95,-62.94 80.09,-54.43 80,-46.14"/>
<polygon fill="black" stroke="black" points="83.5,-46.18 80.67,-35.97 76.52,-45.72 83.5,-46.18"/>
<text text-anchor="middle" x="103.14" y="-57.8" font-family="Times New Roman,serif" font-size="14.00">0.127</text>
</g>
<!-- 4 -->
<g id="node5" class="node">
<title>4</title>
<g id="a_node5"><a xlink:href="curator.svg" xlink:title="curator">
<ellipse fill="none" stroke="black" cx="182.64" cy="-18" rx="36.29" ry="18"/>
<text text-anchor="middle" x="182.64" y="-14.3" font-family="Times New Roman,serif" font-size="14.00">curator</text>
</a>
</g>
</g>
<!-- 1&#45;&gt;4 -->
<g id="edge14" class="edge">
<title>1&#45;&gt;4</title>
<path fill="none" stroke="black" d="M329.74,-101.77C282.05,-98.21 206.3,-89.43 187.64,-69 182.1,-62.93 179.96,-54.56 179.47,-46.4"/>
<polygon fill="black" stroke="black" points="182.97,-46.41 179.59,-36.36 175.97,-46.32 182.97,-46.41"/>
<text text-anchor="middle" x="203.14" y="-57.8" font-family="Times New Roman,serif" font-size="14.00">0.088</text>
</g>
<!-- 5 -->
<g id="node6" class="node">
<title>5</title>
<g id="a_node6"><a xlink:href="lecturer.svg" xlink:title="lecturer">
<ellipse fill="none" stroke="black" cx="278.64" cy="-18" rx="37.89" ry="18"/>
<text text-anchor="middle" x="278.64" y="-14.3" font-family="Times New Roman,serif" font-size="14.00">lecturer</text>
</a>
</g>
</g>
<!-- 1&#45;&gt;5 -->
<g id="edge17" class="edge">
<title>1&#45;&gt;5</title>
<path fill="none" stroke="black" d="M332.66,-97.32C315.77,-92.34 297.03,-83.76 285.64,-69 280.72,-62.63 278.43,-54.4 277.52,-46.47"/>
<polygon fill="black" stroke="black" points="281.01,-46.19 277,-36.38 274.02,-46.55 281.01,-46.19"/>
<text text-anchor="middle" x="301.14" y="-57.8" font-family="Times New Roman,serif" font-size="14.00">0.029</text>
</g>
<!-- 9 -->
<g id="node10" class="node">
<title>9</title>
<g id="a_node10"><a xlink:href="photographer.svg" xlink:title="photographer">
<ellipse fill="none" stroke="black" cx="393.64" cy="-18" rx="59.59" ry="18"/>
<text text-anchor="middle" x="393.64" y="-14.3" font-family="Times New Roman,serif" font-size="14.00">photographer</text>
</a>
</g>
</g>
<!-- 1&#45;&gt;9 -->
<g id="edge11" class="edge">
<title>1&#45;&gt;9</title>
<path fill="none" stroke="black" d="M374.5,-86.8C377.82,-75.05 382.28,-59.24 386.06,-45.84"/>
<polygon fill="black" stroke="black" points="389.44,-46.75 388.79,-36.18 382.71,-44.85 389.44,-46.75"/>
<text text-anchor="middle" x="399.14" y="-57.8" font-family="Times New Roman,serif" font-size="14.00">0.166</text>
</g>
<!-- 10 -->
<g id="node11" class="node">
<title>10</title>
<g id="a_node11"><a xlink:href="legal executive.svg" xlink:title="legal executive">
<ellipse fill="none" stroke="black" cx="534.64" cy="-18" rx="63.09" ry="18"/>
<text text-anchor="middle" x="534.64" y="-14.3" font-family="Times New Roman,serif" font-size="14.00">legal executive</text>
</a>
</g>
</g>
<!-- 1&#45;&gt;10 -->
<g id="edge15" class="edge">
<title>1&#45;&gt;10</title>
<path fill="none" stroke="black" d="M402.98,-94.59C422.17,-88.54 446.42,-79.79 466.64,-69 481.03,-61.32 495.76,-50.87 507.82,-41.5"/>
<polygon fill="black" stroke="black" points="510.05,-44.2 515.7,-35.24 505.69,-38.72 510.05,-44.2"/>
<text text-anchor="middle" x="506.14" y="-57.8" font-family="Times New Roman,serif" font-size="14.00">0.049</text>
</g>
<!-- 11 -->
<g id="node12" class="node">
<title>11</title>
<g id="a_node12"><a xlink:href="it consultant.svg" xlink:title="it consultant">
<ellipse fill="none" stroke="black" cx="670.64" cy="-18" rx="54.69" ry="18"/>
<text text-anchor="middle" x="670.64" y="-14.3" font-family="Times New Roman,serif" font-size="14.00">it consultant</text>
</a>
</g>
</g>
<!-- 1&#45;&gt;11 -->
<g id="edge16" class="edge">
<title>1&#45;&gt;11</title>
<path fill="none" stroke="black" d="M405.86,-97.06C437.67,-90.69 485.05,-80.51 525.64,-69 559.9,-59.28 597.94,-46.07 626.45,-35.67"/>
<polygon fill="black" stroke="black" points="627.94,-38.85 636.12,-32.12 625.53,-32.28 627.94,-38.85"/>
<text text-anchor="middle" x="589.14" y="-57.8" font-family="Times New Roman,serif" font-size="14.00">0.039</text>
</g>
<!-- 12 -->
<g id="node13" class="node">
<title>12</title>
<g id="a_node13"><a xlink:href="production manager.svg" xlink:title="production manager">
<ellipse fill="none" stroke="black" cx="826.64" cy="-18" rx="83.39" ry="18"/>
<text text-anchor="middle" x="826.64" y="-14.3" font-family="Times New Roman,serif" font-size="14.00">production manager</text>
</a>
</g>
</g>
<!-- 1&#45;&gt;12 -->
<g id="edge18" class="edge">
<title>1&#45;&gt;12</title>
<path fill="none" stroke="black" d="M408.29,-99.31C455.68,-93.33 538.37,-82.18 608.64,-69 661.57,-59.07 721.14,-45.22 764.61,-34.62"/>
<polygon fill="black" stroke="black" points="765.59,-37.98 774.47,-32.2 763.92,-31.18 765.59,-37.98"/>
<text text-anchor="middle" x="696.14" y="-57.8" font-family="Times New Roman,serif" font-size="14.00">0.029</text>
</g>
<!-- 13 -->
<g id="node14" class="node">
<title>13</title>
<g id="a_node14"><a xlink:href="catering manager.svg" xlink:title="catering manager">
<ellipse fill="none" stroke="black" cx="999.64" cy="-18" rx="71.49" ry="18"/>
<text text-anchor="middle" x="999.64" y="-14.3" font-family="Times New Roman,serif" font-size="14.00">catering manager</text>
</a>
</g>
</g>
<!-- 1&#45;&gt;13 -->
<g id="edge19" class="edge">
<title>1&#45;&gt;13</title>
<path fill="none" stroke="black" d="M408.91,-100.81C473.17,-95.4 604.75,-83.61 715.64,-69 806.26,-57.06 828.78,-52.73 918.64,-36 924.76,-34.86 931.13,-33.62 937.48,-32.35"/>
<polygon fill="black" stroke="black" points="938.32,-35.75 947.42,-30.33 936.93,-28.89 938.32,-35.75"/>
<text text-anchor="middle" x="832.14" y="-57.8" font-family="Times New Roman,serif" font-size="14.00">0.019</text>
</g>
<!-- 2 -->
<g id="node3" class="node">
<title>2</title>
<g id="a_node3"><a xlink:href="barristers clerk.svg" xlink:title="barristers clerk">
<ellipse fill="none" stroke="black" cx="291.64" cy="-192" rx="64.19" ry="18"/>
<text text-anchor="middle" x="291.64" y="-188.3" font-family="Times New Roman,serif" font-size="14.00">barristers clerk</text>
</a>
</g>
</g>
<!-- 2&#45;&gt;1 -->
<g id="edge2" class="edge">
<title>2&#45;&gt;1</title>
<path fill="none" stroke="black" d="M307.05,-174.21C318.81,-161.39 335.16,-143.57 348.2,-129.36"/>
<polygon fill="black" stroke="black" points="350.87,-131.63 355.05,-121.9 345.71,-126.9 350.87,-131.63"/>
<text text-anchor="middle" x="351.14" y="-144.8" font-family="Times New Roman,serif" font-size="14.00">0.127</text>
</g>
<!-- 3&#45;&gt;1 -->
<g id="edge3" class="edge">
<title>3&#45;&gt;1</title>
<path fill="none" stroke="black" d="M99.41,-34.7C111.09,-46.12 128.44,-60.93 146.64,-69 202.27,-93.65 272.44,-101.28 319.06,-103.46"/>
<polygon fill="black" stroke="black" points="319.09,-106.96 329.22,-103.87 319.37,-99.97 319.09,-106.96"/>
<text text-anchor="middle" x="162.14" y="-57.8" font-family="Times New Roman,serif" font-size="14.00">0.127</text>
</g>
<!-- 4&#45;&gt;1 -->
<g id="edge4" class="edge">
<title>4&#45;&gt;1</title>
<path fill="none" stroke="black" d="M198.19,-34.56C210.02,-45.61 227.19,-60.01 244.64,-69 269.01,-81.56 298.43,-90.08 322.61,-95.57"/>
<polygon fill="black" stroke="black" points="322.11,-99.04 332.63,-97.74 323.59,-92.2 322.11,-99.04"/>
<text text-anchor="middle" x="260.14" y="-57.8" font-family="Times New Roman,serif" font-size="14.00">0.036</text>
</g>
<!-- 5&#45;&gt;1 -->
<g id="edge5" class="edge">
<title>5&#45;&gt;1</title>
<path fill="none" stroke="black" d="M297.38,-33.94C304.77,-40 313.25,-47.18 320.64,-54 329.67,-62.33 339.21,-71.87 347.44,-80.38"/>
<polygon fill="black" stroke="black" points="345.14,-83.03 354.59,-87.83 350.19,-78.19 345.14,-83.03"/>
<text text-anchor="middle" x="352.14" y="-57.8" font-family="Times New Roman,serif" font-size="14.00">0.036</text>
</g>
<!-- 6 -->
<g id="node7" class="node">
<title>6</title>
<g id="a_node7"><a xlink:href="personal assistant.svg" xlink:title="personal assistant">
<ellipse fill="none" stroke="black" cx="448.64" cy="-192" rx="74.99" ry="18"/>
<text text-anchor="middle" x="448.64" y="-188.3" font-family="Times New Roman,serif" font-size="14.00">personal assistant</text>
</a>
</g>
</g>
<!-- 6&#45;&gt;1 -->
<g id="edge6" class="edge">
<title>6&#45;&gt;1</title>
<path fill="none" stroke="black" d="M433.03,-174.21C421.12,-161.39 404.56,-143.57 391.36,-129.36"/>
<polygon fill="black" stroke="black" points="393.79,-126.84 384.41,-121.9 388.66,-131.6 393.79,-126.84"/>
<text text-anchor="middle" x="430.14" y="-144.8" font-family="Times New Roman,serif" font-size="14.00">0.027</text>
</g>
<!-- 7 -->
<g id="node8" class="node">
<title>7</title>
<g id="a_node8"><a xlink:href="agricultural consultant.svg" xlink:title="agricultural consultant">
<ellipse fill="none" stroke="black" cx="630.64" cy="-192" rx="89.88" ry="18"/>
<text text-anchor="middle" x="630.64" y="-188.3" font-family="Times New Roman,serif" font-size="14.00">agricultural consultant</text>
</a>
</g>
</g>
<!-- 7&#45;&gt;1 -->
<g id="edge7" class="edge">
<title>7&#45;&gt;1</title>
<path fill="none" stroke="black" d="M585.77,-176.39C536.65,-160.39 458.55,-134.95 410.9,-119.44"/>
<polygon fill="black" stroke="black" points="411.81,-116.05 401.22,-116.28 409.64,-122.71 411.81,-116.05"/>
<text text-anchor="middle" x="532.14" y="-144.8" font-family="Times New Roman,serif" font-size="14.00">0.018</text>
</g>
<!-- 8 -->
<g id="node9" class="node">
<title>8</title>
<g id="a_node9"><a xlink:href="financial manager.svg" xlink:title="financial manager">
<ellipse fill="none" stroke="black" cx="811.64" cy="-192" rx="73.39" ry="18"/>
<text text-anchor="middle" x="811.64" y="-188.3" font-family="Times New Roman,serif" font-size="14.00">financial manager</text>
</a>
</g>
</g>
<!-- 8&#45;&gt;1 -->
<g id="edge8" class="edge">
<title>8&#45;&gt;1</title>
<path fill="none" stroke="black" d="M757.86,-179.71C748.46,-177.77 738.77,-175.81 729.64,-174 617.33,-151.75 484.97,-127.17 416.28,-114.54"/>
<polygon fill="black" stroke="black" points="416.69,-111.05 406.22,-112.69 415.42,-117.94 416.69,-111.05"/>
<text text-anchor="middle" x="646.14" y="-144.8" font-family="Times New Roman,serif" font-size="14.00">0.018</text>
</g>
<!-- 9&#45;&gt;1 -->
<g id="edge9" class="edge">
<title>9&#45;&gt;1</title>
<path fill="none" stroke="black" d="M416.17,-35.16C426.6,-44.71 435.35,-57.21 428.64,-69 424.19,-76.81 417.24,-83.06 409.65,-87.98"/>
<polygon fill="black" stroke="black" points="407.5,-85.18 400.55,-93.18 410.97,-91.26 407.5,-85.18"/>
<text text-anchor="middle" x="447.14" y="-57.8" font-family="Times New Roman,serif" font-size="14.00">0.018</text>
</g>
</g>
</svg>
