<?xml version="1.0" encoding="UTF-8" standalone="no"?>
<!DOCTYPE svg PUBLIC "-//W3C//DTD SVG 1.1//EN"
 "http://www.w3.org/Graphics/SVG/1.1/DTD/svg11.dtd">
<!-- Generated by graphviz version 2.44.1 (20200629.0800)
 -->
<!-- Title: test Pages: 1 -->
<svg width="1443pt" height="218pt"
 viewBox="0.00 0.00 1442.79 218.00" xmlns="http://www.w3.org/2000/svg" xmlns:xlink="http://www.w3.org/1999/xlink">
<g id="graph0" class="graph" transform="scale(1 1) rotate(0) translate(4 214)">
<title>test</title>
<polygon fill="white" stroke="transparent" points="-4,4 -4,-214 1438.79,-214 1438.79,4 -4,4"/>
<!-- 0 -->
<g id="node1" class="node">
<title>0</title>
<g id="a_node1"><a xlink:href="marketing assistant.svg" xlink:title="marketing assistant">
<ellipse fill="none" stroke="black" cx="79.29" cy="-192" rx="79.09" ry="18"/>
<text text-anchor="middle" x="79.29" y="-188.3" font-family="Times New Roman,serif" font-size="14.00">marketing assistant</text>
</a>
</g>
</g>
<!-- 1 -->
<g id="node2" class="node">
<title>1</title>
<g id="a_node2"><a xlink:href="speech and language therapist.svg" xlink:title="speech and language therapist">
<ellipse fill="none" stroke="black" cx="665.29" cy="-105" rx="118.08" ry="18"/>
<text text-anchor="middle" x="665.29" y="-101.3" font-family="Times New Roman,serif" font-size="14.00">speech and language therapist</text>
</a>
</g>
</g>
<!-- 0&#45;&gt;1 -->
<g id="edge1" class="edge">
<title>0&#45;&gt;1</title>
<path fill="none" stroke="black" d="M137.7,-179.82C147.89,-177.88 158.4,-175.88 168.29,-174 246.05,-159.24 265,-152.62 343.29,-141 413.63,-130.56 493.05,-121.89 555.42,-115.8"/>
<polygon fill="black" stroke="black" points="556.06,-119.25 565.67,-114.8 555.38,-112.28 556.06,-119.25"/>
<text text-anchor="middle" x="358.79" y="-144.8" font-family="Times New Roman,serif" font-size="14.00">0.090</text>
</g>
<!-- 1&#45;&gt;1 -->
<g id="edge10" class="edge">
<title>1&#45;&gt;1</title>
<path fill="none" stroke="black" d="M773.81,-112.18C790.35,-111.09 801.58,-108.69 801.58,-105 801.58,-102.12 794.73,-100.02 783.84,-98.72"/>
<polygon fill="black" stroke="black" points="784.09,-95.23 773.81,-97.82 783.46,-102.2 784.09,-95.23"/>
<text text-anchor="middle" x="817.08" y="-101.3" font-family="Times New Roman,serif" font-size="14.00">0.214</text>
</g>
<!-- 4 -->
<g id="node5" class="node">
<title>4</title>
<g id="a_node5"><a xlink:href="accountant.svg" xlink:title="accountant">
<ellipse fill="none" stroke="black" cx="93.29" cy="-18" rx="50.09" ry="18"/>
<text text-anchor="middle" x="93.29" y="-14.3" font-family="Times New Roman,serif" font-size="14.00">accountant</text>
</a>
</g>
</g>
<!-- 1&#45;&gt;4 -->
<g id="edge11" class="edge">
<title>1&#45;&gt;4</title>
<path fill="none" stroke="black" d="M553.07,-99.26C441.1,-93.81 277.09,-83.68 215.29,-69 185.74,-61.98 154.04,-48.8 130.36,-37.73"/>
<polygon fill="black" stroke="black" points="131.59,-34.44 121.06,-33.3 128.58,-40.76 131.59,-34.44"/>
<text text-anchor="middle" x="230.79" y="-57.8" font-family="Times New Roman,serif" font-size="14.00">0.071</text>
</g>
<!-- 10 -->
<g id="node11" class="node">
<title>10</title>
<g id="a_node11"><a xlink:href="broadcasting presenter.svg" xlink:title="broadcasting presenter">
<ellipse fill="none" stroke="black" cx="254.29" cy="-18" rx="92.88" ry="18"/>
<text text-anchor="middle" x="254.29" y="-14.3" font-family="Times New Roman,serif" font-size="14.00">broadcasting presenter</text>
</a>
</g>
</g>
<!-- 1&#45;&gt;10 -->
<g id="edge12" class="edge">
<title>1&#45;&gt;10</title>
<path fill="none" stroke="black" d="M598.34,-90.15C523.35,-74.64 402.28,-49.6 325.56,-33.74"/>
<polygon fill="black" stroke="black" points="326.01,-30.26 315.51,-31.66 324.59,-37.11 326.01,-30.26"/>
<text text-anchor="middle" x="500.79" y="-57.8" font-family="Times New Roman,serif" font-size="14.00">0.071</text>
</g>
<!-- 11 -->
<g id="node12" class="node">
<title>11</title>
<g id="a_node12"><a xlink:href="clinical biochemist.svg" xlink:title="clinical biochemist">
<ellipse fill="none" stroke="black" cx="442.29" cy="-18" rx="77.19" ry="18"/>
<text text-anchor="middle" x="442.29" y="-14.3" font-family="Times New Roman,serif" font-size="14.00">clinical biochemist</text>
</a>
</g>
</g>
<!-- 1&#45;&gt;11 -->
<g id="edge13" class="edge">
<title>1&#45;&gt;11</title>
<path fill="none" stroke="black" d="M623.61,-88.11C585.76,-73.68 529.95,-52.41 490.26,-37.28"/>
<polygon fill="black" stroke="black" points="491.38,-33.97 480.79,-33.67 488.89,-40.51 491.38,-33.97"/>
<text text-anchor="middle" x="582.79" y="-57.8" font-family="Times New Roman,serif" font-size="14.00">0.071</text>
</g>
<!-- 12 -->
<g id="node13" class="node">
<title>12</title>
<g id="a_node13"><a xlink:href="it consultant.svg" xlink:title="it consultant">
<ellipse fill="none" stroke="black" cx="592.29" cy="-18" rx="54.69" ry="18"/>
<text text-anchor="middle" x="592.29" y="-14.3" font-family="Times New Roman,serif" font-size="14.00">it consultant</text>
</a>
</g>
</g>
<!-- 1&#45;&gt;12 -->
<g id="edge14" class="edge">
<title>1&#45;&gt;12</title>
<path fill="none" stroke="black" d="M650.52,-86.8C639.79,-74.31 625.13,-57.24 613.2,-43.35"/>
<polygon fill="black" stroke="black" points="615.72,-40.9 606.55,-35.6 610.41,-45.46 615.72,-40.9"/>
<text text-anchor="middle" x="648.79" y="-57.8" font-family="Times New Roman,serif" font-size="14.00">0.071</text>
</g>
<!-- 13 -->
<g id="node14" class="node">
<title>13</title>
<g id="a_node14"><a xlink:href="teaching assistant.svg" xlink:title="teaching assistant">
<ellipse fill="none" stroke="black" cx="738.29" cy="-18" rx="73.39" ry="18"/>
<text text-anchor="middle" x="738.29" y="-14.3" font-family="Times New Roman,serif" font-size="14.00">teaching assistant</text>
</a>
</g>
</g>
<!-- 1&#45;&gt;13 -->
<g id="edge15" class="edge">
<title>1&#45;&gt;13</title>
<path fill="none" stroke="black" d="M680.07,-86.8C690.72,-74.39 705.26,-57.46 717.15,-43.62"/>
<polygon fill="black" stroke="black" points="719.93,-45.75 723.79,-35.89 714.62,-41.19 719.93,-45.75"/>
<text text-anchor="middle" x="721.79" y="-57.8" font-family="Times New Roman,serif" font-size="14.00">0.071</text>
</g>
<!-- 14 -->
<g id="node15" class="node">
<title>14</title>
<g id="a_node15"><a xlink:href="academic librarian.svg" xlink:title="academic librarian">
<ellipse fill="none" stroke="black" cx="905.29" cy="-18" rx="76.09" ry="18"/>
<text text-anchor="middle" x="905.29" y="-14.3" font-family="Times New Roman,serif" font-size="14.00">academic librarian</text>
</a>
</g>
</g>
<!-- 1&#45;&gt;14 -->
<g id="edge16" class="edge">
<title>1&#45;&gt;14</title>
<path fill="none" stroke="black" d="M709.87,-88.21C751.12,-73.6 812.37,-51.91 855.27,-36.72"/>
<polygon fill="black" stroke="black" points="856.69,-39.93 864.94,-33.29 854.35,-33.33 856.69,-39.93"/>
<text text-anchor="middle" x="815.79" y="-57.8" font-family="Times New Roman,serif" font-size="14.00">0.035</text>
</g>
<!-- 15 -->
<g id="node16" class="node">
<title>15</title>
<g id="a_node16"><a xlink:href="aromatherapist.svg" xlink:title="aromatherapist">
<ellipse fill="none" stroke="black" cx="1063.29" cy="-18" rx="63.89" ry="18"/>
<text text-anchor="middle" x="1063.29" y="-14.3" font-family="Times New Roman,serif" font-size="14.00">aromatherapist</text>
</a>
</g>
</g>
<!-- 1&#45;&gt;15 -->
<g id="edge17" class="edge">
<title>1&#45;&gt;15</title>
<path fill="none" stroke="black" d="M733.57,-90.25C799.41,-76.87 901.82,-55.72 990.29,-36 995.32,-34.88 1000.55,-33.7 1005.78,-32.5"/>
<polygon fill="black" stroke="black" points="1006.85,-35.85 1015.81,-30.2 1005.28,-29.03 1006.85,-35.85"/>
<text text-anchor="middle" x="916.79" y="-57.8" font-family="Times New Roman,serif" font-size="14.00">0.035</text>
</g>
<!-- 16 -->
<g id="node17" class="node">
<title>16</title>
<g id="a_node17"><a xlink:href="brand manager.svg" xlink:title="brand manager">
<ellipse fill="none" stroke="black" cx="1209.29" cy="-18" rx="64.19" ry="18"/>
<text text-anchor="middle" x="1209.29" y="-14.3" font-family="Times New Roman,serif" font-size="14.00">brand manager</text>
</a>
</g>
</g>
<!-- 1&#45;&gt;16 -->
<g id="edge18" class="edge">
<title>1&#45;&gt;16</title>
<path fill="none" stroke="black" d="M757.4,-93.62C852.7,-82.2 1005.63,-61.97 1136.29,-36 1141.56,-34.95 1147.02,-33.8 1152.48,-32.61"/>
<polygon fill="black" stroke="black" points="1153.27,-36.02 1162.27,-30.43 1151.75,-29.19 1153.27,-36.02"/>
<text text-anchor="middle" x="1048.79" y="-57.8" font-family="Times New Roman,serif" font-size="14.00">0.035</text>
</g>
<!-- 17 -->
<g id="node18" class="node">
<title>17</title>
<g id="a_node18"><a xlink:href="catering manager.svg" xlink:title="catering manager">
<ellipse fill="none" stroke="black" cx="1363.29" cy="-18" rx="71.49" ry="18"/>
<text text-anchor="middle" x="1363.29" y="-14.3" font-family="Times New Roman,serif" font-size="14.00">catering manager</text>
</a>
</g>
</g>
<!-- 1&#45;&gt;17 -->
<g id="edge19" class="edge">
<title>1&#45;&gt;17</title>
<path fill="none" stroke="black" d="M770.71,-96.77C852.13,-90.72 967.54,-81.13 1068.29,-69 1163.84,-57.5 1187.61,-53.22 1282.29,-36 1288.42,-34.89 1294.79,-33.66 1301.14,-32.4"/>
<polygon fill="black" stroke="black" points="1301.98,-35.8 1311.09,-30.39 1300.59,-28.94 1301.98,-35.8"/>
<text text-anchor="middle" x="1193.79" y="-57.8" font-family="Times New Roman,serif" font-size="14.00">0.035</text>
</g>
<!-- 2 -->
<g id="node3" class="node">
<title>2</title>
<g id="a_node3"><a xlink:href="aid worker.svg" xlink:title="aid worker">
<ellipse fill="none" stroke="black" cx="226.29" cy="-192" rx="49.29" ry="18"/>
<text text-anchor="middle" x="226.29" y="-188.3" font-family="Times New Roman,serif" font-size="14.00">aid worker</text>
</a>
</g>
</g>
<!-- 2&#45;&gt;1 -->
<g id="edge2" class="edge">
<title>2&#45;&gt;1</title>
<path fill="none" stroke="black" d="M262.64,-179.69C269.78,-177.66 277.24,-175.66 284.29,-174 381.95,-151.05 495.28,-131.74 572.79,-119.63"/>
<polygon fill="black" stroke="black" points="573.67,-123.04 583.01,-118.04 572.59,-116.12 573.67,-123.04"/>
<text text-anchor="middle" x="456.79" y="-144.8" font-family="Times New Roman,serif" font-size="14.00">0.060</text>
</g>
<!-- 3 -->
<g id="node4" class="node">
<title>3</title>
<g id="a_node4"><a xlink:href="private music teacher.svg" xlink:title="private music teacher">
<ellipse fill="none" stroke="black" cx="380.29" cy="-192" rx="87.18" ry="18"/>
<text text-anchor="middle" x="380.29" y="-188.3" font-family="Times New Roman,serif" font-size="14.00">private music teacher</text>
</a>
</g>
</g>
<!-- 3&#45;&gt;1 -->
<g id="edge3" class="edge">
<title>3&#45;&gt;1</title>
<path fill="none" stroke="black" d="M427.67,-176.87C476.1,-162.43 551.5,-139.94 604.35,-124.18"/>
<polygon fill="black" stroke="black" points="605.36,-127.53 613.94,-121.32 603.36,-120.82 605.36,-127.53"/>
<text text-anchor="middle" x="555.79" y="-144.8" font-family="Times New Roman,serif" font-size="14.00">0.060</text>
</g>
<!-- 4&#45;&gt;1 -->
<g id="edge4" class="edge">
<title>4&#45;&gt;1</title>
<path fill="none" stroke="black" d="M129.91,-30.46C137.27,-32.51 144.99,-34.47 152.29,-36 289.94,-64.82 451.07,-83.82 555.49,-94.23"/>
<polygon fill="black" stroke="black" points="555.43,-97.75 565.73,-95.25 556.12,-90.78 555.43,-97.75"/>
<text text-anchor="middle" x="350.79" y="-57.8" font-family="Times New Roman,serif" font-size="14.00">0.030</text>
</g>
<!-- 5 -->
<g id="node6" class="node">
<title>5</title>
<g id="a_node6"><a xlink:href="agricultural consultant.svg" xlink:title="agricultural consultant">
<ellipse fill="none" stroke="black" cx="575.29" cy="-192" rx="89.88" ry="18"/>
<text text-anchor="middle" x="575.29" y="-188.3" font-family="Times New Roman,serif" font-size="14.00">agricultural consultant</text>
</a>
</g>
</g>
<!-- 5&#45;&gt;1 -->
<g id="edge5" class="edge">
<title>5&#45;&gt;1</title>
<path fill="none" stroke="black" d="M593.07,-174.21C606.42,-161.6 624.89,-144.16 639.81,-130.07"/>
<polygon fill="black" stroke="black" points="642.37,-132.46 647.24,-123.05 637.57,-127.37 642.37,-132.46"/>
<text text-anchor="middle" x="641.79" y="-144.8" font-family="Times New Roman,serif" font-size="14.00">0.030</text>
</g>
<!-- 6 -->
<g id="node7" class="node">
<title>6</title>
<g id="a_node7"><a xlink:href="airline cabin crew.svg" xlink:title="airline cabin crew">
<ellipse fill="none" stroke="black" cx="756.29" cy="-192" rx="73.39" ry="18"/>
<text text-anchor="middle" x="756.29" y="-188.3" font-family="Times New Roman,serif" font-size="14.00">airline cabin crew</text>
</a>
</g>
</g>
<!-- 6&#45;&gt;1 -->
<g id="edge6" class="edge">
<title>6&#45;&gt;1</title>
<path fill="none" stroke="black" d="M738.31,-174.21C724.82,-161.6 706.14,-144.16 691.06,-130.07"/>
<polygon fill="black" stroke="black" points="693.24,-127.32 683.55,-123.05 688.46,-132.43 693.24,-127.32"/>
<text text-anchor="middle" x="731.79" y="-144.8" font-family="Times New Roman,serif" font-size="14.00">0.030</text>
</g>
<!-- 7 -->
<g id="node8" class="node">
<title>7</title>
<g id="a_node8"><a xlink:href="barristers clerk.svg" xlink:title="barristers clerk">
<ellipse fill="none" stroke="black" cx="912.29" cy="-192" rx="64.19" ry="18"/>
<text text-anchor="middle" x="912.29" y="-188.3" font-family="Times New Roman,serif" font-size="14.00">barristers clerk</text>
</a>
</g>
</g>
<!-- 7&#45;&gt;1 -->
<g id="edge7" class="edge">
<title>7&#45;&gt;1</title>
<path fill="none" stroke="black" d="M873.43,-177.63C832.33,-163.48 767.15,-141.05 720.68,-125.06"/>
<polygon fill="black" stroke="black" points="721.66,-121.7 711.07,-121.75 719.38,-128.32 721.66,-121.7"/>
<text text-anchor="middle" x="819.79" y="-144.8" font-family="Times New Roman,serif" font-size="14.00">0.030</text>
</g>
<!-- 8 -->
<g id="node9" class="node">
<title>8</title>
<g id="a_node9"><a xlink:href="computer sales support.svg" xlink:title="computer sales support">
<ellipse fill="none" stroke="black" cx="1091.29" cy="-192" rx="96.38" ry="18"/>
<text text-anchor="middle" x="1091.29" y="-188.3" font-family="Times New Roman,serif" font-size="14.00">computer sales support</text>
</a>
</g>
</g>
<!-- 8&#45;&gt;1 -->
<g id="edge8" class="edge">
<title>8&#45;&gt;1</title>
<path fill="none" stroke="black" d="M1027.98,-178.37C952.33,-163.27 825.74,-138.01 743.9,-121.69"/>
<polygon fill="black" stroke="black" points="744.4,-118.21 733.9,-119.69 743.03,-125.08 744.4,-118.21"/>
<text text-anchor="middle" x="919.79" y="-144.8" font-family="Times New Roman,serif" font-size="14.00">0.030</text>
</g>
<!-- 9 -->
<g id="node10" class="node">
<title>9</title>
<g id="a_node10"><a xlink:href="education administrator.svg" xlink:title="education administrator">
<ellipse fill="none" stroke="black" cx="1301.29" cy="-192" rx="95.58" ry="18"/>
<text text-anchor="middle" x="1301.29" y="-188.3" font-family="Times New Roman,serif" font-size="14.00">education administrator</text>
</a>
</g>
</g>
<!-- 9&#45;&gt;1 -->
<g id="edge9" class="edge">
<title>9&#45;&gt;1</title>
<path fill="none" stroke="black" d="M1232.44,-179.52C1220.4,-177.61 1207.99,-175.7 1196.29,-174 1046.6,-152.28 872.63,-130.69 765.75,-117.85"/>
<polygon fill="black" stroke="black" points="765.96,-114.35 755.61,-116.63 765.13,-121.3 765.96,-114.35"/>
<text text-anchor="middle" x="1080.79" y="-144.8" font-family="Times New Roman,serif" font-size="14.00">0.030</text>
</g>
</g>
</svg>
