<?xml version="1.0" encoding="UTF-8" standalone="no"?>
<!DOCTYPE svg PUBLIC "-//W3C//DTD SVG 1.1//EN"
 "http://www.w3.org/Graphics/SVG/1.1/DTD/svg11.dtd">
<!-- Generated by graphviz version 2.44.1 (20200629.0800)
 -->
<!-- Title: test Pages: 1 -->
<svg width="1435pt" height="218pt"
 viewBox="0.00 0.00 1434.94 218.00" xmlns="http://www.w3.org/2000/svg" xmlns:xlink="http://www.w3.org/1999/xlink">
<g id="graph0" class="graph" transform="scale(1 1) rotate(0) translate(4 214)">
<title>test</title>
<polygon fill="white" stroke="transparent" points="-4,4 -4,-214 1430.94,-214 1430.94,4 -4,4"/>
<!-- 0 -->
<g id="node1" class="node">
<title>0</title>
<g id="a_node1"><a xlink:href="project manager.svg" xlink:title="project manager">
<ellipse fill="none" stroke="black" cx="146.6" cy="-192" rx="68.79" ry="18"/>
<text text-anchor="middle" x="146.6" y="-188.3" font-family="Times New Roman,serif" font-size="14.00">project manager</text>
</a>
</g>
</g>
<!-- 1 -->
<g id="node2" class="node">
<title>1</title>
<g id="a_node2"><a xlink:href="sports coach.svg" xlink:title="sports coach">
<ellipse fill="none" stroke="black" cx="516.6" cy="-105" rx="57.69" ry="18"/>
<text text-anchor="middle" x="516.6" y="-101.3" font-family="Times New Roman,serif" font-size="14.00">sports coach</text>
</a>
</g>
</g>
<!-- 0&#45;&gt;1 -->
<g id="edge1" class="edge">
<title>0&#45;&gt;1</title>
<path fill="none" stroke="black" d="M157.92,-174.08C166.54,-162.69 179.48,-148.43 194.6,-141 237.97,-119.67 368.28,-111.21 449.21,-107.94"/>
<polygon fill="black" stroke="black" points="449.46,-111.44 459.32,-107.55 449.19,-104.44 449.46,-111.44"/>
<text text-anchor="middle" x="210.1" y="-144.8" font-family="Times New Roman,serif" font-size="14.00">0.052</text>
</g>
<!-- 1&#45;&gt;0 -->
<g id="edge16" class="edge">
<title>1&#45;&gt;0</title>
<path fill="none" stroke="black" d="M471.54,-116.35C405.09,-131.62 280.72,-160.19 206.61,-177.21"/>
<polygon fill="black" stroke="black" points="205.46,-173.89 196.5,-179.54 207.02,-180.71 205.46,-173.89"/>
<text text-anchor="middle" x="370.1" y="-144.8" font-family="Times New Roman,serif" font-size="14.00">0.037</text>
</g>
<!-- 1&#45;&gt;1 -->
<g id="edge10" class="edge">
<title>1&#45;&gt;1</title>
<path fill="none" stroke="black" d="M569.06,-112.78C582.41,-112.27 592.44,-109.68 592.44,-105 592.44,-101.6 587.15,-99.3 579.13,-98.11"/>
<polygon fill="black" stroke="black" points="579.33,-94.61 569.06,-97.22 578.71,-101.58 579.33,-94.61"/>
<text text-anchor="middle" x="607.94" y="-101.3" font-family="Times New Roman,serif" font-size="14.00">0.252</text>
</g>
<!-- 2 -->
<g id="node3" class="node">
<title>2</title>
<g id="a_node3"><a xlink:href="it consultant.svg" xlink:title="it consultant">
<ellipse fill="none" stroke="black" cx="54.6" cy="-18" rx="54.69" ry="18"/>
<text text-anchor="middle" x="54.6" y="-14.3" font-family="Times New Roman,serif" font-size="14.00">it consultant</text>
</a>
</g>
</g>
<!-- 1&#45;&gt;2 -->
<g id="edge14" class="edge">
<title>1&#45;&gt;2</title>
<path fill="none" stroke="black" d="M459.91,-101.19C372.21,-96.4 207.86,-85.53 151.6,-69 128.89,-62.33 105.25,-50.27 86.99,-39.66"/>
<polygon fill="black" stroke="black" points="88.62,-36.55 78.23,-34.44 85.03,-42.57 88.62,-36.55"/>
<text text-anchor="middle" x="167.1" y="-57.8" font-family="Times New Roman,serif" font-size="14.00">0.037</text>
</g>
<!-- 3 -->
<g id="node4" class="node">
<title>3</title>
<g id="a_node4"><a xlink:href="pharmacovigilance officer.svg" xlink:title="pharmacovigilance officer">
<ellipse fill="none" stroke="black" cx="231.6" cy="-18" rx="104.78" ry="18"/>
<text text-anchor="middle" x="231.6" y="-14.3" font-family="Times New Roman,serif" font-size="14.00">pharmacovigilance officer</text>
</a>
</g>
</g>
<!-- 1&#45;&gt;3 -->
<g id="edge11" class="edge">
<title>1&#45;&gt;3</title>
<path fill="none" stroke="black" d="M461.49,-99.42C421.01,-94.84 365.19,-85.92 318.6,-69 299.57,-62.09 279.89,-51.15 264.07,-41.27"/>
<polygon fill="black" stroke="black" points="265.55,-38.06 255.24,-35.61 261.77,-43.95 265.55,-38.06"/>
<text text-anchor="middle" x="334.1" y="-57.8" font-family="Times New Roman,serif" font-size="14.00">0.065</text>
</g>
<!-- 5 -->
<g id="node6" class="node">
<title>5</title>
<g id="a_node6"><a xlink:href="sports development officer.svg" xlink:title="sports development officer">
<ellipse fill="none" stroke="black" cx="462.6" cy="-18" rx="108.58" ry="18"/>
<text text-anchor="middle" x="462.6" y="-14.3" font-family="Times New Roman,serif" font-size="14.00">sports development officer</text>
</a>
</g>
</g>
<!-- 1&#45;&gt;5 -->
<g id="edge12" class="edge">
<title>1&#45;&gt;5</title>
<path fill="none" stroke="black" d="M482.21,-90.44C473.26,-85.15 464.7,-78.12 459.6,-69 455.8,-62.22 455.02,-54.08 455.61,-46.35"/>
<polygon fill="black" stroke="black" points="459.11,-46.65 457.12,-36.24 452.18,-45.62 459.11,-46.65"/>
<text text-anchor="middle" x="475.1" y="-57.8" font-family="Times New Roman,serif" font-size="14.00">0.056</text>
</g>
<!-- 10 -->
<g id="node11" class="node">
<title>10</title>
<g id="a_node11"><a xlink:href="fitness centre manager.svg" xlink:title="fitness centre manager">
<ellipse fill="none" stroke="black" cx="680.6" cy="-18" rx="90.98" ry="18"/>
<text text-anchor="middle" x="680.6" y="-14.3" font-family="Times New Roman,serif" font-size="14.00">fitness centre manager</text>
</a>
</g>
</g>
<!-- 1&#45;&gt;10 -->
<g id="edge13" class="edge">
<title>1&#45;&gt;10</title>
<path fill="none" stroke="black" d="M545.16,-89.19C571.5,-75.55 610.85,-55.15 640.36,-39.85"/>
<polygon fill="black" stroke="black" points="642.3,-42.79 649.57,-35.08 639.08,-36.58 642.3,-42.79"/>
<text text-anchor="middle" x="624.1" y="-57.8" font-family="Times New Roman,serif" font-size="14.00">0.037</text>
</g>
<!-- 11 -->
<g id="node12" class="node">
<title>11</title>
<g id="a_node12"><a xlink:href="marketing assistant.svg" xlink:title="marketing assistant">
<ellipse fill="none" stroke="black" cx="868.6" cy="-18" rx="79.09" ry="18"/>
<text text-anchor="middle" x="868.6" y="-14.3" font-family="Times New Roman,serif" font-size="14.00">marketing assistant</text>
</a>
</g>
</g>
<!-- 1&#45;&gt;11 -->
<g id="edge15" class="edge">
<title>1&#45;&gt;11</title>
<path fill="none" stroke="black" d="M560.82,-93.32C622.77,-78.36 735.68,-51.09 806.17,-34.07"/>
<polygon fill="black" stroke="black" points="807.35,-37.39 816.25,-31.64 805.71,-30.58 807.35,-37.39"/>
<text text-anchor="middle" x="729.1" y="-57.8" font-family="Times New Roman,serif" font-size="14.00">0.037</text>
</g>
<!-- 12 -->
<g id="node13" class="node">
<title>12</title>
<g id="a_node13"><a xlink:href="financial manager.svg" xlink:title="financial manager">
<ellipse fill="none" stroke="black" cx="1039.6" cy="-18" rx="73.39" ry="18"/>
<text text-anchor="middle" x="1039.6" y="-14.3" font-family="Times New Roman,serif" font-size="14.00">financial manager</text>
</a>
</g>
</g>
<!-- 1&#45;&gt;12 -->
<g id="edge17" class="edge">
<title>1&#45;&gt;12</title>
<path fill="none" stroke="black" d="M568.56,-96.87C651.03,-85.36 816.85,-61.38 956.6,-36 962.77,-34.88 969.19,-33.66 975.6,-32.4"/>
<polygon fill="black" stroke="black" points="976.51,-35.79 985.64,-30.42 975.15,-28.93 976.51,-35.79"/>
<text text-anchor="middle" x="863.1" y="-57.8" font-family="Times New Roman,serif" font-size="14.00">0.028</text>
</g>
<!-- 13 -->
<g id="node14" class="node">
<title>13</title>
<g id="a_node14"><a xlink:href="personal assistant.svg" xlink:title="personal assistant">
<ellipse fill="none" stroke="black" cx="1205.6" cy="-18" rx="74.99" ry="18"/>
<text text-anchor="middle" x="1205.6" y="-14.3" font-family="Times New Roman,serif" font-size="14.00">personal assistant</text>
</a>
</g>
</g>
<!-- 1&#45;&gt;13 -->
<g id="edge18" class="edge">
<title>1&#45;&gt;13</title>
<path fill="none" stroke="black" d="M572.36,-99.85C679.37,-91.43 920.75,-70.16 1121.6,-36 1128.1,-34.89 1134.87,-33.66 1141.62,-32.38"/>
<polygon fill="black" stroke="black" points="1142.31,-35.81 1151.46,-30.47 1140.98,-28.94 1142.31,-35.81"/>
<text text-anchor="middle" x="1005.1" y="-57.8" font-family="Times New Roman,serif" font-size="14.00">0.028</text>
</g>
<!-- 14 -->
<g id="node15" class="node">
<title>14</title>
<g id="a_node15"><a xlink:href="brand manager.svg" xlink:title="brand manager">
<ellipse fill="none" stroke="black" cx="1362.6" cy="-18" rx="64.19" ry="18"/>
<text text-anchor="middle" x="1362.6" y="-14.3" font-family="Times New Roman,serif" font-size="14.00">brand manager</text>
</a>
</g>
</g>
<!-- 1&#45;&gt;14 -->
<g id="edge19" class="edge">
<title>1&#45;&gt;14</title>
<path fill="none" stroke="black" d="M574.27,-102.42C703.35,-98.11 1025,-83.15 1289.6,-36 1294.96,-35.04 1300.52,-33.95 1306.08,-32.78"/>
<polygon fill="black" stroke="black" points="1306.99,-36.16 1316.01,-30.62 1305.5,-29.32 1306.99,-36.16"/>
<text text-anchor="middle" x="1179.1" y="-57.8" font-family="Times New Roman,serif" font-size="14.00">0.018</text>
</g>
<!-- 2&#45;&gt;1 -->
<g id="edge2" class="edge">
<title>2&#45;&gt;1</title>
<path fill="none" stroke="black" d="M95.23,-30.11C102.66,-32.1 110.36,-34.13 117.6,-36 176.99,-51.32 191.32,-57.63 251.6,-69 319.61,-81.83 398.31,-91.59 452.17,-97.5"/>
<polygon fill="black" stroke="black" points="451.95,-101 462.27,-98.6 452.7,-94.04 451.95,-101"/>
<text text-anchor="middle" x="267.1" y="-57.8" font-family="Times New Roman,serif" font-size="14.00">0.044</text>
</g>
<!-- 3&#45;&gt;1 -->
<g id="edge3" class="edge">
<title>3&#45;&gt;1</title>
<path fill="none" stroke="black" d="M283.6,-33.69C305.27,-39.87 330.68,-47.2 353.6,-54 391.91,-65.37 435.16,-78.66 467.47,-88.68"/>
<polygon fill="black" stroke="black" points="466.54,-92.05 477.13,-91.67 468.62,-85.37 466.54,-92.05"/>
<text text-anchor="middle" x="419.1" y="-57.8" font-family="Times New Roman,serif" font-size="14.00">0.037</text>
</g>
<!-- 4 -->
<g id="node5" class="node">
<title>4</title>
<g id="a_node5"><a xlink:href="production manager.svg" xlink:title="production manager">
<ellipse fill="none" stroke="black" cx="316.6" cy="-192" rx="83.39" ry="18"/>
<text text-anchor="middle" x="316.6" y="-188.3" font-family="Times New Roman,serif" font-size="14.00">production manager</text>
</a>
</g>
</g>
<!-- 4&#45;&gt;1 -->
<g id="edge4" class="edge">
<title>4&#45;&gt;1</title>
<path fill="none" stroke="black" d="M352.81,-175.61C387.12,-161.03 438.62,-139.14 474.68,-123.81"/>
<polygon fill="black" stroke="black" points="476.12,-127 483.96,-119.87 473.38,-120.56 476.12,-127"/>
<text text-anchor="middle" x="444.1" y="-144.8" font-family="Times New Roman,serif" font-size="14.00">0.037</text>
</g>
<!-- 5&#45;&gt;1 -->
<g id="edge5" class="edge">
<title>5&#45;&gt;1</title>
<path fill="none" stroke="black" d="M480.08,-35.88C485.16,-41.35 490.46,-47.65 494.6,-54 499.26,-61.15 503.36,-69.45 506.72,-77.21"/>
<polygon fill="black" stroke="black" points="503.54,-78.69 510.57,-86.63 510.02,-76.05 503.54,-78.69"/>
<text text-anchor="middle" x="519.1" y="-57.8" font-family="Times New Roman,serif" font-size="14.00">0.029</text>
</g>
<!-- 6 -->
<g id="node7" class="node">
<title>6</title>
<g id="a_node7"><a xlink:href="human resources officer.svg" xlink:title="human resources officer">
<ellipse fill="none" stroke="black" cx="516.6" cy="-192" rx="98.58" ry="18"/>
<text text-anchor="middle" x="516.6" y="-188.3" font-family="Times New Roman,serif" font-size="14.00">human resources officer</text>
</a>
</g>
</g>
<!-- 6&#45;&gt;1 -->
<g id="edge6" class="edge">
<title>6&#45;&gt;1</title>
<path fill="none" stroke="black" d="M516.6,-173.8C516.6,-162.16 516.6,-146.55 516.6,-133.24"/>
<polygon fill="black" stroke="black" points="520.1,-133.18 516.6,-123.18 513.1,-133.18 520.1,-133.18"/>
<text text-anchor="middle" x="532.1" y="-144.8" font-family="Times New Roman,serif" font-size="14.00">0.022</text>
</g>
<!-- 7 -->
<g id="node8" class="node">
<title>7</title>
<g id="a_node8"><a xlink:href="qa analyst.svg" xlink:title="qa analyst">
<ellipse fill="none" stroke="black" cx="680.6" cy="-192" rx="46.59" ry="18"/>
<text text-anchor="middle" x="680.6" y="-188.3" font-family="Times New Roman,serif" font-size="14.00">qa analyst</text>
</a>
</g>
</g>
<!-- 7&#45;&gt;1 -->
<g id="edge7" class="edge">
<title>7&#45;&gt;1</title>
<path fill="none" stroke="black" d="M653.88,-177.15C626.74,-163.09 584.46,-141.18 554,-125.38"/>
<polygon fill="black" stroke="black" points="555.44,-122.19 544.95,-120.7 552.22,-128.41 555.44,-122.19"/>
<text text-anchor="middle" x="624.1" y="-144.8" font-family="Times New Roman,serif" font-size="14.00">0.022</text>
</g>
<!-- 8 -->
<g id="node9" class="node">
<title>8</title>
<g id="a_node9"><a xlink:href="teaching assistant.svg" xlink:title="teaching assistant">
<ellipse fill="none" stroke="black" cx="818.6" cy="-192" rx="73.39" ry="18"/>
<text text-anchor="middle" x="818.6" y="-188.3" font-family="Times New Roman,serif" font-size="14.00">teaching assistant</text>
</a>
</g>
</g>
<!-- 8&#45;&gt;1 -->
<g id="edge8" class="edge">
<title>8&#45;&gt;1</title>
<path fill="none" stroke="black" d="M772.94,-177.83C737.64,-167.68 687.56,-153.34 643.6,-141 618.95,-134.08 591.57,-126.52 568.57,-120.21"/>
<polygon fill="black" stroke="black" points="569.24,-116.76 558.67,-117.49 567.38,-123.51 569.24,-116.76"/>
<text text-anchor="middle" x="712.1" y="-144.8" font-family="Times New Roman,serif" font-size="14.00">0.022</text>
</g>
<!-- 9 -->
<g id="node10" class="node">
<title>9</title>
<g id="a_node10"><a xlink:href="training and development officer.svg" xlink:title="training and development officer">
<ellipse fill="none" stroke="black" cx="1037.6" cy="-192" rx="128.08" ry="18"/>
<text text-anchor="middle" x="1037.6" y="-188.3" font-family="Times New Roman,serif" font-size="14.00">training and development officer</text>
</a>
</g>
</g>
<!-- 9&#45;&gt;1 -->
<g id="edge9" class="edge">
<title>9&#45;&gt;1</title>
<path fill="none" stroke="black" d="M957.7,-177.93C895.96,-167.84 808.36,-153.52 731.6,-141 679.25,-132.46 619.72,-122.77 576.6,-115.76"/>
<polygon fill="black" stroke="black" points="576.99,-112.28 566.56,-114.12 575.86,-119.18 576.99,-112.28"/>
<text text-anchor="middle" x="831.1" y="-144.8" font-family="Times New Roman,serif" font-size="14.00">0.022</text>
</g>
</g>
</svg>
