<?xml version="1.0" encoding="UTF-8" standalone="no"?>
<!DOCTYPE svg PUBLIC "-//W3C//DTD SVG 1.1//EN"
 "http://www.w3.org/Graphics/SVG/1.1/DTD/svg11.dtd">
<!-- Generated by graphviz version 2.44.1 (20200629.0800)
 -->
<!-- Title: sports_development_officer Pages: 1 -->
<svg width="1410pt" height="218pt"
 viewBox="0.00 0.00 1410.09 218.00" xmlns="http://www.w3.org/2000/svg" xmlns:xlink="http://www.w3.org/1999/xlink">
<g id="graph0" class="graph" transform="scale(1 1) rotate(0) translate(4 214)">
<title>sports_development_officer</title>
<polygon fill="white" stroke="transparent" points="-4,4 -4,-214 1406.09,-214 1406.09,4 -4,4"/>
<!-- 0 -->
<g id="node1" class="node">
<title>0</title>
<g id="a_node1"><a xlink:href="project manager.svg" xlink:title="project manager">
<ellipse fill="none" stroke="black" cx="92.6" cy="-192" rx="68.79" ry="18"/>
<text text-anchor="middle" x="92.6" y="-188.3" font-family="Times New Roman,serif" font-size="14.00">project manager</text>
</a>
</g>
</g>
<!-- 1 -->
<g id="node2" class="node">
<title>1</title>
<g id="a_node2"><a xlink:href="sports development officer.svg" xlink:title="sports development officer">
<ellipse fill="none" stroke="black" cx="378.6" cy="-105" rx="108.58" ry="18"/>
<text text-anchor="middle" x="378.6" y="-101.3" font-family="Times New Roman,serif" font-size="14.00">sports development officer</text>
</a>
</g>
</g>
<!-- 0&#45;&gt;1 -->
<g id="edge1" class="edge">
<title>0&#45;&gt;1</title>
<path fill="none" stroke="black" d="M98.07,-173.84C102.56,-162.64 110.09,-148.71 121.6,-141 145.2,-125.19 207.96,-116.46 265.56,-111.67"/>
<polygon fill="black" stroke="black" points="266.17,-115.14 275.86,-110.85 265.62,-108.16 266.17,-115.14"/>
<text text-anchor="middle" x="137.1" y="-144.8" font-family="Times New Roman,serif" font-size="14.00">0.069</text>
</g>
<!-- 1&#45;&gt;0 -->
<g id="edge11" class="edge">
<title>1&#45;&gt;0</title>
<path fill="none" stroke="black" d="M328.1,-121.01C276.99,-136.2 198.25,-159.6 146.08,-175.1"/>
<polygon fill="black" stroke="black" points="144.93,-171.79 136.34,-178 146.93,-178.5 144.93,-171.79"/>
<text text-anchor="middle" x="269.1" y="-144.8" font-family="Times New Roman,serif" font-size="14.00">0.101</text>
</g>
<!-- 1&#45;&gt;1 -->
<g id="edge10" class="edge">
<title>1&#45;&gt;1</title>
<path fill="none" stroke="black" d="M478.06,-112.27C494.12,-111.22 505.14,-108.79 505.14,-105 505.14,-102.07 498.55,-99.95 488.13,-98.66"/>
<polygon fill="black" stroke="black" points="488.34,-95.16 478.06,-97.73 487.7,-102.13 488.34,-95.16"/>
<text text-anchor="middle" x="520.64" y="-101.3" font-family="Times New Roman,serif" font-size="14.00">0.155</text>
</g>
<!-- 2 -->
<g id="node3" class="node">
<title>2</title>
<g id="a_node3"><a xlink:href="it consultant.svg" xlink:title="it consultant">
<ellipse fill="none" stroke="black" cx="54.6" cy="-18" rx="54.69" ry="18"/>
<text text-anchor="middle" x="54.6" y="-14.3" font-family="Times New Roman,serif" font-size="14.00">it consultant</text>
</a>
</g>
</g>
<!-- 1&#45;&gt;2 -->
<g id="edge19" class="edge">
<title>1&#45;&gt;2</title>
<path fill="none" stroke="black" d="M272.78,-100.91C201.84,-97.06 116.05,-88.41 85.6,-69 76.77,-63.38 70.05,-54.25 65.15,-45.32"/>
<polygon fill="black" stroke="black" points="68.25,-43.69 60.71,-36.25 61.96,-46.77 68.25,-43.69"/>
<text text-anchor="middle" x="101.1" y="-57.8" font-family="Times New Roman,serif" font-size="14.00">0.023</text>
</g>
<!-- 3 -->
<g id="node4" class="node">
<title>3</title>
<g id="a_node4"><a xlink:href="lecturer.svg" xlink:title="lecturer">
<ellipse fill="none" stroke="black" cx="164.6" cy="-18" rx="37.89" ry="18"/>
<text text-anchor="middle" x="164.6" y="-14.3" font-family="Times New Roman,serif" font-size="14.00">lecturer</text>
</a>
</g>
</g>
<!-- 1&#45;&gt;3 -->
<g id="edge13" class="edge">
<title>1&#45;&gt;3</title>
<path fill="none" stroke="black" d="M288.09,-94.99C262.56,-89.83 235.51,-81.72 212.6,-69 201.2,-62.68 190.86,-52.76 182.72,-43.41"/>
<polygon fill="black" stroke="black" points="185.22,-40.95 176.16,-35.46 179.82,-45.4 185.22,-40.95"/>
<text text-anchor="middle" x="228.1" y="-57.8" font-family="Times New Roman,serif" font-size="14.00">0.035</text>
</g>
<!-- 7 -->
<g id="node8" class="node">
<title>7</title>
<g id="a_node8"><a xlink:href="pharmacovigilance officer.svg" xlink:title="pharmacovigilance officer">
<ellipse fill="none" stroke="black" cx="324.6" cy="-18" rx="104.78" ry="18"/>
<text text-anchor="middle" x="324.6" y="-14.3" font-family="Times New Roman,serif" font-size="14.00">pharmacovigilance officer</text>
</a>
</g>
</g>
<!-- 1&#45;&gt;7 -->
<g id="edge12" class="edge">
<title>1&#45;&gt;7</title>
<path fill="none" stroke="black" d="M340.37,-88.04C332.86,-83.08 325.96,-76.8 321.6,-69 317.8,-62.22 317.02,-54.08 317.61,-46.35"/>
<polygon fill="black" stroke="black" points="321.11,-46.65 319.12,-36.24 314.18,-45.62 321.11,-46.65"/>
<text text-anchor="middle" x="337.1" y="-57.8" font-family="Times New Roman,serif" font-size="14.00">0.065</text>
</g>
<!-- 10 -->
<g id="node11" class="node">
<title>10</title>
<g id="a_node11"><a xlink:href="marketing executive.svg" xlink:title="marketing executive">
<ellipse fill="none" stroke="black" cx="529.6" cy="-18" rx="81.79" ry="18"/>
<text text-anchor="middle" x="529.6" y="-14.3" font-family="Times New Roman,serif" font-size="14.00">marketing executive</text>
</a>
</g>
</g>
<!-- 1&#45;&gt;10 -->
<g id="edge14" class="edge">
<title>1&#45;&gt;10</title>
<path fill="none" stroke="black" d="M407.71,-87.61C431.86,-74.02 466.34,-54.61 492.47,-39.9"/>
<polygon fill="black" stroke="black" points="494.34,-42.86 501.34,-34.91 490.91,-36.76 494.34,-42.86"/>
<text text-anchor="middle" x="479.1" y="-57.8" font-family="Times New Roman,serif" font-size="14.00">0.035</text>
</g>
<!-- 11 -->
<g id="node12" class="node">
<title>11</title>
<g id="a_node12"><a xlink:href="office manager.svg" xlink:title="office manager">
<ellipse fill="none" stroke="black" cx="693.6" cy="-18" rx="64.19" ry="18"/>
<text text-anchor="middle" x="693.6" y="-14.3" font-family="Times New Roman,serif" font-size="14.00">office manager</text>
</a>
</g>
</g>
<!-- 1&#45;&gt;11 -->
<g id="edge15" class="edge">
<title>1&#45;&gt;11</title>
<path fill="none" stroke="black" d="M432.75,-89.39C490.45,-73.82 581.28,-49.31 639.11,-33.7"/>
<polygon fill="black" stroke="black" points="640.06,-37.07 648.8,-31.09 638.24,-30.31 640.06,-37.07"/>
<text text-anchor="middle" x="571.1" y="-57.8" font-family="Times New Roman,serif" font-size="14.00">0.035</text>
</g>
<!-- 12 -->
<g id="node13" class="node">
<title>12</title>
<g id="a_node13"><a xlink:href="training and development officer.svg" xlink:title="training and development officer">
<ellipse fill="none" stroke="black" cx="903.6" cy="-18" rx="128.08" ry="18"/>
<text text-anchor="middle" x="903.6" y="-14.3" font-family="Times New Roman,serif" font-size="14.00">training and development officer</text>
</a>
</g>
</g>
<!-- 1&#45;&gt;12 -->
<g id="edge16" class="edge">
<title>1&#45;&gt;12</title>
<path fill="none" stroke="black" d="M453.26,-91.91C548.05,-76.56 711.47,-50.11 813.21,-33.63"/>
<polygon fill="black" stroke="black" points="813.85,-37.08 823.16,-32.02 812.73,-30.17 813.85,-37.08"/>
<text text-anchor="middle" x="687.1" y="-57.8" font-family="Times New Roman,serif" font-size="14.00">0.035</text>
</g>
<!-- 13 -->
<g id="node14" class="node">
<title>13</title>
<g id="a_node14"><a xlink:href="education administrator.svg" xlink:title="education administrator">
<ellipse fill="none" stroke="black" cx="1145.6" cy="-18" rx="95.58" ry="18"/>
<text text-anchor="middle" x="1145.6" y="-14.3" font-family="Times New Roman,serif" font-size="14.00">education administrator</text>
</a>
</g>
</g>
<!-- 1&#45;&gt;13 -->
<g id="edge17" class="edge">
<title>1&#45;&gt;13</title>
<path fill="none" stroke="black" d="M472.8,-96.06C601.37,-84.83 838.86,-62.67 1040.6,-36 1049.24,-34.86 1058.27,-33.56 1067.25,-32.2"/>
<polygon fill="black" stroke="black" points="1067.99,-35.62 1077.34,-30.64 1066.92,-28.71 1067.99,-35.62"/>
<text text-anchor="middle" x="892.1" y="-57.8" font-family="Times New Roman,serif" font-size="14.00">0.029</text>
</g>
<!-- 14 -->
<g id="node15" class="node">
<title>14</title>
<g id="a_node15"><a xlink:href="heritage manager.svg" xlink:title="heritage manager">
<ellipse fill="none" stroke="black" cx="1330.6" cy="-18" rx="71.49" ry="18"/>
<text text-anchor="middle" x="1330.6" y="-14.3" font-family="Times New Roman,serif" font-size="14.00">heritage manager</text>
</a>
</g>
</g>
<!-- 1&#45;&gt;14 -->
<g id="edge18" class="edge">
<title>1&#45;&gt;14</title>
<path fill="none" stroke="black" d="M484.56,-100.89C649.27,-94.89 976.34,-78.35 1250.6,-36 1256.77,-35.05 1263.18,-33.92 1269.56,-32.71"/>
<polygon fill="black" stroke="black" points="1270.4,-36.11 1279.54,-30.74 1269.05,-29.24 1270.4,-36.11"/>
<text text-anchor="middle" x="1124.1" y="-57.8" font-family="Times New Roman,serif" font-size="14.00">0.029</text>
</g>
<!-- 2&#45;&gt;1 -->
<g id="edge2" class="edge">
<title>2&#45;&gt;1</title>
<path fill="none" stroke="black" d="M80.24,-33.93C100.78,-45.24 130.68,-60.27 158.6,-69 196.29,-80.78 238.92,-88.74 276.55,-94.04"/>
<polygon fill="black" stroke="black" points="276.13,-97.51 286.51,-95.4 277.08,-90.58 276.13,-97.51"/>
<text text-anchor="middle" x="174.1" y="-57.8" font-family="Times New Roman,serif" font-size="14.00">0.044</text>
</g>
<!-- 3&#45;&gt;1 -->
<g id="edge3" class="edge">
<title>3&#45;&gt;1</title>
<path fill="none" stroke="black" d="M191.39,-30.66C215.42,-41.03 251.7,-56.43 283.6,-69 297.02,-74.29 311.6,-79.78 325.22,-84.81"/>
<polygon fill="black" stroke="black" points="324.34,-88.22 334.93,-88.38 326.75,-81.64 324.34,-88.22"/>
<text text-anchor="middle" x="299.1" y="-57.8" font-family="Times New Roman,serif" font-size="14.00">0.029</text>
</g>
<!-- 4 -->
<g id="node5" class="node">
<title>4</title>
<g id="a_node5"><a xlink:href="sports coach.svg" xlink:title="sports coach">
<ellipse fill="none" stroke="black" cx="237.6" cy="-192" rx="57.69" ry="18"/>
<text text-anchor="middle" x="237.6" y="-188.3" font-family="Times New Roman,serif" font-size="14.00">sports coach</text>
</a>
</g>
</g>
<!-- 4&#45;&gt;1 -->
<g id="edge4" class="edge">
<title>4&#45;&gt;1</title>
<path fill="none" stroke="black" d="M263.13,-175.61C285.32,-162.23 317.72,-142.7 342.55,-127.73"/>
<polygon fill="black" stroke="black" points="344.57,-130.6 351.33,-122.44 340.96,-124.6 344.57,-130.6"/>
<text text-anchor="middle" x="332.1" y="-144.8" font-family="Times New Roman,serif" font-size="14.00">0.029</text>
</g>
<!-- 5 -->
<g id="node6" class="node">
<title>5</title>
<g id="a_node6"><a xlink:href="careers adviser.svg" xlink:title="careers adviser">
<ellipse fill="none" stroke="black" cx="378.6" cy="-192" rx="64.99" ry="18"/>
<text text-anchor="middle" x="378.6" y="-188.3" font-family="Times New Roman,serif" font-size="14.00">careers adviser</text>
</a>
</g>
</g>
<!-- 5&#45;&gt;1 -->
<g id="edge5" class="edge">
<title>5&#45;&gt;1</title>
<path fill="none" stroke="black" d="M378.6,-173.8C378.6,-162.16 378.6,-146.55 378.6,-133.24"/>
<polygon fill="black" stroke="black" points="382.1,-133.18 378.6,-123.18 375.1,-133.18 382.1,-133.18"/>
<text text-anchor="middle" x="394.1" y="-144.8" font-family="Times New Roman,serif" font-size="14.00">0.024</text>
</g>
<!-- 6 -->
<g id="node7" class="node">
<title>6</title>
<g id="a_node7"><a xlink:href="financial manager.svg" xlink:title="financial manager">
<ellipse fill="none" stroke="black" cx="534.6" cy="-192" rx="73.39" ry="18"/>
<text text-anchor="middle" x="534.6" y="-188.3" font-family="Times New Roman,serif" font-size="14.00">financial manager</text>
</a>
</g>
</g>
<!-- 6&#45;&gt;1 -->
<g id="edge6" class="edge">
<title>6&#45;&gt;1</title>
<path fill="none" stroke="black" d="M505.98,-175.41C481.17,-161.89 445.02,-142.2 417.57,-127.24"/>
<polygon fill="black" stroke="black" points="419.08,-124.07 408.62,-122.36 415.73,-130.22 419.08,-124.07"/>
<text text-anchor="middle" x="482.1" y="-144.8" font-family="Times New Roman,serif" font-size="14.00">0.024</text>
</g>
<!-- 7&#45;&gt;1 -->
<g id="edge7" class="edge">
<title>7&#45;&gt;1</title>
<path fill="none" stroke="black" d="M342.08,-35.88C347.16,-41.35 352.46,-47.65 356.6,-54 361.26,-61.15 365.36,-69.45 368.72,-77.21"/>
<polygon fill="black" stroke="black" points="365.54,-78.69 372.57,-86.63 372.02,-76.05 365.54,-78.69"/>
<text text-anchor="middle" x="381.1" y="-57.8" font-family="Times New Roman,serif" font-size="14.00">0.024</text>
</g>
<!-- 8 -->
<g id="node9" class="node">
<title>8</title>
<g id="a_node9"><a xlink:href="software developer.svg" xlink:title="software developer">
<ellipse fill="none" stroke="black" cx="705.6" cy="-192" rx="79.89" ry="18"/>
<text text-anchor="middle" x="705.6" y="-188.3" font-family="Times New Roman,serif" font-size="14.00">software developer</text>
</a>
</g>
</g>
<!-- 8&#45;&gt;1 -->
<g id="edge8" class="edge">
<title>8&#45;&gt;1</title>
<path fill="none" stroke="black" d="M655.22,-177.91C598.5,-163.16 506.17,-139.16 443.95,-122.99"/>
<polygon fill="black" stroke="black" points="444.79,-119.59 434.23,-120.46 443.03,-126.37 444.79,-119.59"/>
<text text-anchor="middle" x="578.1" y="-144.8" font-family="Times New Roman,serif" font-size="14.00">0.024</text>
</g>
<!-- 9 -->
<g id="node10" class="node">
<title>9</title>
<g id="a_node10"><a xlink:href="fitness centre manager.svg" xlink:title="fitness centre manager">
<ellipse fill="none" stroke="black" cx="894.6" cy="-192" rx="90.98" ry="18"/>
<text text-anchor="middle" x="894.6" y="-188.3" font-family="Times New Roman,serif" font-size="14.00">fitness centre manager</text>
</a>
</g>
</g>
<!-- 9&#45;&gt;1 -->
<g id="edge9" class="edge">
<title>9&#45;&gt;1</title>
<path fill="none" stroke="black" d="M828.17,-179.68C816.96,-177.78 805.45,-175.83 794.6,-174 707.06,-159.23 685.21,-155.34 597.6,-141 553.63,-133.81 504.68,-125.96 464.22,-119.53"/>
<polygon fill="black" stroke="black" points="464.55,-116.04 454.13,-117.93 463.45,-122.95 464.55,-116.04"/>
<text text-anchor="middle" x="701.1" y="-144.8" font-family="Times New Roman,serif" font-size="14.00">0.019</text>
</g>
</g>
</svg>
