<?xml version="1.0" encoding="UTF-8" standalone="no"?>
<!DOCTYPE svg PUBLIC "-//W3C//DTD SVG 1.1//EN"
 "http://www.w3.org/Graphics/SVG/1.1/DTD/svg11.dtd">
<!-- Generated by graphviz version 2.44.1 (20200629.0800)
 -->
<!-- Title: stockbroker Pages: 1 -->
<svg width="1595pt" height="218pt"
 viewBox="0.00 0.00 1595.49 218.00" xmlns="http://www.w3.org/2000/svg" xmlns:xlink="http://www.w3.org/1999/xlink">
<g id="graph0" class="graph" transform="scale(1 1) rotate(0) translate(4 214)">
<title>stockbroker</title>
<polygon fill="white" stroke="transparent" points="-4,4 -4,-214 1591.49,-214 1591.49,4 -4,4"/>
<!-- 0 -->
<g id="node1" class="node">
<title>0</title>
<g id="a_node1"><a xlink:href="heritage manager.svg" xlink:title="heritage manager">
<ellipse fill="none" stroke="black" cx="71.49" cy="-192" rx="71.49" ry="18"/>
<text text-anchor="middle" x="71.49" y="-188.3" font-family="Times New Roman,serif" font-size="14.00">heritage manager</text>
</a>
</g>
</g>
<!-- 1 -->
<g id="node2" class="node">
<title>1</title>
<g id="a_node2"><a xlink:href="stockbroker.svg" xlink:title="stockbroker">
<ellipse fill="none" stroke="black" cx="789.49" cy="-105" rx="54.69" ry="18"/>
<text text-anchor="middle" x="789.49" y="-101.3" font-family="Times New Roman,serif" font-size="14.00">stockbroker</text>
</a>
</g>
</g>
<!-- 0&#45;&gt;1 -->
<g id="edge1" class="edge">
<title>0&#45;&gt;1</title>
<path fill="none" stroke="black" d="M122.57,-179.39C132.15,-177.43 142.11,-175.54 151.49,-174 360.91,-139.75 611.95,-118.82 726.7,-110.35"/>
<polygon fill="black" stroke="black" points="726.99,-113.84 736.71,-109.62 726.48,-106.86 726.99,-113.84"/>
<text text-anchor="middle" x="394.99" y="-144.8" font-family="Times New Roman,serif" font-size="14.00">0.090</text>
</g>
<!-- 5 -->
<g id="node6" class="node">
<title>5</title>
<g id="a_node6"><a xlink:href="retail merchandiser.svg" xlink:title="retail merchandiser">
<ellipse fill="none" stroke="black" cx="282.49" cy="-18" rx="78.79" ry="18"/>
<text text-anchor="middle" x="282.49" y="-14.3" font-family="Times New Roman,serif" font-size="14.00">retail merchandiser</text>
</a>
</g>
</g>
<!-- 1&#45;&gt;5 -->
<g id="edge15" class="edge">
<title>1&#45;&gt;5</title>
<path fill="none" stroke="black" d="M735.05,-102.89C663.15,-100.5 532.97,-92.92 424.49,-69 391.16,-61.65 354.88,-48.78 327.34,-37.95"/>
<polygon fill="black" stroke="black" points="328.56,-34.67 317.98,-34.21 325.97,-41.17 328.56,-34.67"/>
<text text-anchor="middle" x="439.99" y="-57.8" font-family="Times New Roman,serif" font-size="14.00">0.055</text>
</g>
<!-- 11 -->
<g id="node12" class="node">
<title>11</title>
<g id="a_node12"><a xlink:href="investment analyst.svg" xlink:title="investment analyst">
<ellipse fill="none" stroke="black" cx="455.49" cy="-18" rx="76.89" ry="18"/>
<text text-anchor="middle" x="455.49" y="-14.3" font-family="Times New Roman,serif" font-size="14.00">investment analyst</text>
</a>
</g>
</g>
<!-- 1&#45;&gt;11 -->
<g id="edge11" class="edge">
<title>1&#45;&gt;11</title>
<path fill="none" stroke="black" d="M742.89,-95.42C709.04,-88.92 662.21,-79.35 621.49,-69 583.16,-59.25 540.44,-46.34 507.94,-36.08"/>
<polygon fill="black" stroke="black" points="508.79,-32.67 498.2,-32.98 506.67,-39.35 508.79,-32.67"/>
<text text-anchor="middle" x="636.99" y="-57.8" font-family="Times New Roman,serif" font-size="14.00">0.083</text>
</g>
<!-- 12 -->
<g id="node13" class="node">
<title>12</title>
<g id="a_node13"><a xlink:href="trader.svg" xlink:title="trader">
<ellipse fill="none" stroke="black" cx="582.49" cy="-18" rx="31.7" ry="18"/>
<text text-anchor="middle" x="582.49" y="-14.3" font-family="Times New Roman,serif" font-size="14.00">trader</text>
</a>
</g>
</g>
<!-- 1&#45;&gt;12 -->
<g id="edge12" class="edge">
<title>1&#45;&gt;12</title>
<path fill="none" stroke="black" d="M751.72,-91.98C732.6,-85.62 709.11,-77.41 688.49,-69 663.17,-58.67 635.22,-45.41 614.38,-35.13"/>
<polygon fill="black" stroke="black" points="615.85,-31.96 605.34,-30.65 612.74,-38.23 615.85,-31.96"/>
<text text-anchor="middle" x="703.99" y="-57.8" font-family="Times New Roman,serif" font-size="14.00">0.083</text>
</g>
<!-- 13 -->
<g id="node14" class="node">
<title>13</title>
<g id="a_node14"><a xlink:href="lecturer.svg" xlink:title="lecturer">
<ellipse fill="none" stroke="black" cx="670.49" cy="-18" rx="37.89" ry="18"/>
<text text-anchor="middle" x="670.49" y="-14.3" font-family="Times New Roman,serif" font-size="14.00">lecturer</text>
</a>
</g>
</g>
<!-- 1&#45;&gt;13 -->
<g id="edge13" class="edge">
<title>1&#45;&gt;13</title>
<path fill="none" stroke="black" d="M767.67,-88.41C748.32,-74.59 719.96,-54.33 698.86,-39.26"/>
<polygon fill="black" stroke="black" points="700.77,-36.32 690.6,-33.36 696.7,-42.02 700.77,-36.32"/>
<text text-anchor="middle" x="752.99" y="-57.8" font-family="Times New Roman,serif" font-size="14.00">0.055</text>
</g>
<!-- 14 -->
<g id="node15" class="node">
<title>14</title>
<g id="a_node15"><a xlink:href="legal executive.svg" xlink:title="legal executive">
<ellipse fill="none" stroke="black" cx="789.49" cy="-18" rx="63.09" ry="18"/>
<text text-anchor="middle" x="789.49" y="-14.3" font-family="Times New Roman,serif" font-size="14.00">legal executive</text>
</a>
</g>
</g>
<!-- 1&#45;&gt;14 -->
<g id="edge14" class="edge">
<title>1&#45;&gt;14</title>
<path fill="none" stroke="black" d="M789.49,-86.8C789.49,-75.16 789.49,-59.55 789.49,-46.24"/>
<polygon fill="black" stroke="black" points="792.99,-46.18 789.49,-36.18 785.99,-46.18 792.99,-46.18"/>
<text text-anchor="middle" x="804.99" y="-57.8" font-family="Times New Roman,serif" font-size="14.00">0.055</text>
</g>
<!-- 15 -->
<g id="node16" class="node">
<title>15</title>
<g id="a_node16"><a xlink:href="academic librarian.svg" xlink:title="academic librarian">
<ellipse fill="none" stroke="black" cx="946.49" cy="-18" rx="76.09" ry="18"/>
<text text-anchor="middle" x="946.49" y="-14.3" font-family="Times New Roman,serif" font-size="14.00">academic librarian</text>
</a>
</g>
</g>
<!-- 1&#45;&gt;15 -->
<g id="edge16" class="edge">
<title>1&#45;&gt;15</title>
<path fill="none" stroke="black" d="M816.84,-89.19C842.21,-75.46 880.2,-54.89 908.51,-39.57"/>
<polygon fill="black" stroke="black" points="910.2,-42.63 917.33,-34.79 906.87,-36.47 910.2,-42.63"/>
<text text-anchor="middle" x="892.99" y="-57.8" font-family="Times New Roman,serif" font-size="14.00">0.027</text>
</g>
<!-- 16 -->
<g id="node17" class="node">
<title>16</title>
<g id="a_node17"><a xlink:href="accountant.svg" xlink:title="accountant">
<ellipse fill="none" stroke="black" cx="1090.49" cy="-18" rx="50.09" ry="18"/>
<text text-anchor="middle" x="1090.49" y="-14.3" font-family="Times New Roman,serif" font-size="14.00">accountant</text>
</a>
</g>
</g>
<!-- 1&#45;&gt;16 -->
<g id="edge17" class="edge">
<title>1&#45;&gt;16</title>
<path fill="none" stroke="black" d="M829.77,-92.77C877.81,-79.35 960.56,-56.19 1031.49,-36 1035.25,-34.93 1039.14,-33.82 1043.05,-32.7"/>
<polygon fill="black" stroke="black" points="1044.09,-36.04 1052.73,-29.92 1042.16,-29.31 1044.09,-36.04"/>
<text text-anchor="middle" x="980.99" y="-57.8" font-family="Times New Roman,serif" font-size="14.00">0.027</text>
</g>
<!-- 17 -->
<g id="node18" class="node">
<title>17</title>
<g id="a_node18"><a xlink:href="agricultural consultant.svg" xlink:title="agricultural consultant">
<ellipse fill="none" stroke="black" cx="1248.49" cy="-18" rx="89.88" ry="18"/>
<text text-anchor="middle" x="1248.49" y="-14.3" font-family="Times New Roman,serif" font-size="14.00">agricultural consultant</text>
</a>
</g>
</g>
<!-- 1&#45;&gt;17 -->
<g id="edge18" class="edge">
<title>1&#45;&gt;17</title>
<path fill="none" stroke="black" d="M837.76,-96.48C880.58,-89.69 944.8,-79.23 1000.49,-69 1061.01,-57.88 1129.57,-43.96 1179.24,-33.63"/>
<polygon fill="black" stroke="black" points="1180.15,-37.02 1189.23,-31.55 1178.72,-30.16 1180.15,-37.02"/>
<text text-anchor="middle" x="1090.99" y="-57.8" font-family="Times New Roman,serif" font-size="14.00">0.027</text>
</g>
<!-- 18 -->
<g id="node19" class="node">
<title>18</title>
<g id="a_node19"><a xlink:href="architect.svg" xlink:title="architect">
<ellipse fill="none" stroke="black" cx="1397.49" cy="-18" rx="41.69" ry="18"/>
<text text-anchor="middle" x="1397.49" y="-14.3" font-family="Times New Roman,serif" font-size="14.00">architect</text>
</a>
</g>
</g>
<!-- 1&#45;&gt;18 -->
<g id="edge19" class="edge">
<title>1&#45;&gt;18</title>
<path fill="none" stroke="black" d="M843.28,-101.44C943.62,-95.8 1165.66,-79.16 1347.49,-36 1350.71,-35.24 1354,-34.35 1357.3,-33.4"/>
<polygon fill="black" stroke="black" points="1358.57,-36.67 1367.09,-30.36 1356.5,-29.98 1358.57,-36.67"/>
<text text-anchor="middle" x="1272.99" y="-57.8" font-family="Times New Roman,serif" font-size="14.00">0.027</text>
</g>
<!-- 19 -->
<g id="node20" class="node">
<title>19</title>
<g id="a_node20"><a xlink:href="careers adviser.svg" xlink:title="careers adviser">
<ellipse fill="none" stroke="black" cx="1522.49" cy="-18" rx="64.99" ry="18"/>
<text text-anchor="middle" x="1522.49" y="-14.3" font-family="Times New Roman,serif" font-size="14.00">careers adviser</text>
</a>
</g>
</g>
<!-- 1&#45;&gt;19 -->
<g id="edge20" class="edge">
<title>1&#45;&gt;19</title>
<path fill="none" stroke="black" d="M843.72,-102.7C936.19,-99.92 1130.16,-91.71 1292.49,-69 1352.82,-60.56 1420.87,-45 1467.2,-33.47"/>
<polygon fill="black" stroke="black" points="1468.19,-36.83 1477.04,-31 1466.49,-30.04 1468.19,-36.83"/>
<text text-anchor="middle" x="1389.99" y="-57.8" font-family="Times New Roman,serif" font-size="14.00">0.027</text>
</g>
<!-- 2 -->
<g id="node3" class="node">
<title>2</title>
<g id="a_node3"><a xlink:href="market research analyst.svg" xlink:title="market research analyst">
<ellipse fill="none" stroke="black" cx="255.49" cy="-192" rx="94.78" ry="18"/>
<text text-anchor="middle" x="255.49" y="-188.3" font-family="Times New Roman,serif" font-size="14.00">market research analyst</text>
</a>
</g>
</g>
<!-- 2&#45;&gt;1 -->
<g id="edge2" class="edge">
<title>2&#45;&gt;1</title>
<path fill="none" stroke="black" d="M324.86,-179.65C336.42,-177.76 348.3,-175.82 359.49,-174 450.15,-159.26 472.78,-155.36 563.49,-141 620.37,-132 685.34,-121.96 730.97,-114.95"/>
<polygon fill="black" stroke="black" points="731.63,-118.39 740.98,-113.42 730.57,-111.47 731.63,-118.39"/>
<text text-anchor="middle" x="578.99" y="-144.8" font-family="Times New Roman,serif" font-size="14.00">0.090</text>
</g>
<!-- 3 -->
<g id="node4" class="node">
<title>3</title>
<g id="a_node4"><a xlink:href="marketing assistant.svg" xlink:title="marketing assistant">
<ellipse fill="none" stroke="black" cx="447.49" cy="-192" rx="79.09" ry="18"/>
<text text-anchor="middle" x="447.49" y="-188.3" font-family="Times New Roman,serif" font-size="14.00">marketing assistant</text>
</a>
</g>
</g>
<!-- 3&#45;&gt;1 -->
<g id="edge3" class="edge">
<title>3&#45;&gt;1</title>
<path fill="none" stroke="black" d="M499.06,-178.18C563.36,-162.2 672.65,-135.04 737.26,-118.98"/>
<polygon fill="black" stroke="black" points="738.37,-122.31 747.23,-116.5 736.68,-115.52 738.37,-122.31"/>
<text text-anchor="middle" x="654.99" y="-144.8" font-family="Times New Roman,serif" font-size="14.00">0.090</text>
</g>
<!-- 4 -->
<g id="node5" class="node">
<title>4</title>
<g id="a_node5"><a xlink:href="production manager.svg" xlink:title="production manager">
<ellipse fill="none" stroke="black" cx="627.49" cy="-192" rx="83.39" ry="18"/>
<text text-anchor="middle" x="627.49" y="-188.3" font-family="Times New Roman,serif" font-size="14.00">production manager</text>
</a>
</g>
</g>
<!-- 4&#45;&gt;1 -->
<g id="edge4" class="edge">
<title>4&#45;&gt;1</title>
<path fill="none" stroke="black" d="M657.58,-175.21C684.5,-161.09 724.03,-140.35 752.8,-125.26"/>
<polygon fill="black" stroke="black" points="754.5,-128.31 761.73,-120.57 751.25,-122.12 754.5,-128.31"/>
<text text-anchor="middle" x="733.99" y="-144.8" font-family="Times New Roman,serif" font-size="14.00">0.090</text>
</g>
<!-- 5&#45;&gt;1 -->
<g id="edge5" class="edge">
<title>5&#45;&gt;1</title>
<path fill="none" stroke="black" d="M337.82,-30.83C389.17,-41.59 467.79,-57.49 536.49,-69 602.09,-79.99 677.68,-90.11 729.03,-96.62"/>
<polygon fill="black" stroke="black" points="728.6,-100.09 738.96,-97.87 729.48,-93.15 728.6,-100.09"/>
<text text-anchor="middle" x="551.99" y="-57.8" font-family="Times New Roman,serif" font-size="14.00">0.090</text>
</g>
<!-- 6 -->
<g id="node7" class="node">
<title>6</title>
<g id="a_node7"><a xlink:href="sales manager.svg" xlink:title="sales manager">
<ellipse fill="none" stroke="black" cx="789.49" cy="-192" rx="61.19" ry="18"/>
<text text-anchor="middle" x="789.49" y="-188.3" font-family="Times New Roman,serif" font-size="14.00">sales manager</text>
</a>
</g>
</g>
<!-- 6&#45;&gt;1 -->
<g id="edge6" class="edge">
<title>6&#45;&gt;1</title>
<path fill="none" stroke="black" d="M789.49,-173.8C789.49,-162.16 789.49,-146.55 789.49,-133.24"/>
<polygon fill="black" stroke="black" points="792.99,-133.18 789.49,-123.18 785.99,-133.18 792.99,-133.18"/>
<text text-anchor="middle" x="804.99" y="-144.8" font-family="Times New Roman,serif" font-size="14.00">0.090</text>
</g>
<!-- 7 -->
<g id="node8" class="node">
<title>7</title>
<g id="a_node8"><a xlink:href="airline cabin crew.svg" xlink:title="airline cabin crew">
<ellipse fill="none" stroke="black" cx="942.49" cy="-192" rx="73.39" ry="18"/>
<text text-anchor="middle" x="942.49" y="-188.3" font-family="Times New Roman,serif" font-size="14.00">airline cabin crew</text>
</a>
</g>
</g>
<!-- 7&#45;&gt;1 -->
<g id="edge7" class="edge">
<title>7&#45;&gt;1</title>
<path fill="none" stroke="black" d="M914.07,-175.21C888.92,-161.24 852.1,-140.78 825.01,-125.73"/>
<polygon fill="black" stroke="black" points="826.66,-122.65 816.22,-120.85 823.27,-128.77 826.66,-122.65"/>
<text text-anchor="middle" x="890.99" y="-144.8" font-family="Times New Roman,serif" font-size="14.00">0.045</text>
</g>
<!-- 8 -->
<g id="node9" class="node">
<title>8</title>
<g id="a_node9"><a xlink:href="biomedical scientist.svg" xlink:title="biomedical scientist">
<ellipse fill="none" stroke="black" cx="1115.49" cy="-192" rx="81.79" ry="18"/>
<text text-anchor="middle" x="1115.49" y="-188.3" font-family="Times New Roman,serif" font-size="14.00">biomedical scientist</text>
</a>
</g>
</g>
<!-- 8&#45;&gt;1 -->
<g id="edge8" class="edge">
<title>8&#45;&gt;1</title>
<path fill="none" stroke="black" d="M1064.91,-177.81C1003.93,-161.91 902,-135.33 840.72,-119.36"/>
<polygon fill="black" stroke="black" points="841.44,-115.93 830.88,-116.79 839.67,-122.7 841.44,-115.93"/>
<text text-anchor="middle" x="987.99" y="-144.8" font-family="Times New Roman,serif" font-size="14.00">0.045</text>
</g>
<!-- 9 -->
<g id="node10" class="node">
<title>9</title>
<g id="a_node10"><a xlink:href="catering manager.svg" xlink:title="catering manager">
<ellipse fill="none" stroke="black" cx="1286.49" cy="-192" rx="71.49" ry="18"/>
<text text-anchor="middle" x="1286.49" y="-188.3" font-family="Times New Roman,serif" font-size="14.00">catering manager</text>
</a>
</g>
</g>
<!-- 9&#45;&gt;1 -->
<g id="edge9" class="edge">
<title>9&#45;&gt;1</title>
<path fill="none" stroke="black" d="M1234.49,-179.59C1225.18,-177.65 1215.56,-175.71 1206.49,-174 1079.31,-149.95 929.34,-126.75 848.42,-114.65"/>
<polygon fill="black" stroke="black" points="848.83,-111.17 838.42,-113.16 847.8,-118.1 848.83,-111.17"/>
<text text-anchor="middle" x="1118.99" y="-144.8" font-family="Times New Roman,serif" font-size="14.00">0.045</text>
</g>
<!-- 10 -->
<g id="node11" class="node">
<title>10</title>
<g id="a_node11"><a xlink:href="charities administrator.svg" xlink:title="charities administrator">
<ellipse fill="none" stroke="black" cx="1466.49" cy="-192" rx="90.18" ry="18"/>
<text text-anchor="middle" x="1466.49" y="-188.3" font-family="Times New Roman,serif" font-size="14.00">charities administrator</text>
</a>
</g>
</g>
<!-- 10&#45;&gt;1 -->
<g id="edge10" class="edge">
<title>10&#45;&gt;1</title>
<path fill="none" stroke="black" d="M1400.91,-179.61C1389.44,-177.69 1377.63,-175.75 1366.49,-174 1265.35,-158.09 1240.12,-153.44 1138.49,-141 1038.46,-128.75 921.9,-117.71 851.99,-111.44"/>
<polygon fill="black" stroke="black" points="851.88,-107.91 841.61,-110.51 851.25,-114.88 851.88,-107.91"/>
<text text-anchor="middle" x="1263.99" y="-144.8" font-family="Times New Roman,serif" font-size="14.00">0.045</text>
</g>
</g>
</svg>
