<?xml version="1.0" encoding="UTF-8" standalone="no"?>
<!DOCTYPE svg PUBLIC "-//W3C//DTD SVG 1.1//EN"
 "http://www.w3.org/Graphics/SVG/1.1/DTD/svg11.dtd">
<!-- Generated by graphviz version 2.44.1 (20200629.0800)
 -->
<!-- Title: test Pages: 1 -->
<svg width="1435pt" height="218pt"
 viewBox="0.00 0.00 1435.29 218.00" xmlns="http://www.w3.org/2000/svg" xmlns:xlink="http://www.w3.org/1999/xlink">
<g id="graph0" class="graph" transform="scale(1 1) rotate(0) translate(4 214)">
<title>test</title>
<polygon fill="white" stroke="transparent" points="-4,4 -4,-214 1431.29,-214 1431.29,4 -4,4"/>
<!-- 0 -->
<g id="node1" class="node">
<title>0</title>
<g id="a_node1"><a xlink:href="qa analyst.svg" xlink:title="qa analyst">
<ellipse fill="none" stroke="black" cx="361.69" cy="-192" rx="46.59" ry="18"/>
<text text-anchor="middle" x="361.69" y="-188.3" font-family="Times New Roman,serif" font-size="14.00">qa analyst</text>
</a>
</g>
</g>
<!-- 1 -->
<g id="node2" class="node">
<title>1</title>
<g id="a_node2"><a xlink:href="systems analyst.svg" xlink:title="systems analyst">
<ellipse fill="none" stroke="black" cx="491.69" cy="-105" rx="67.69" ry="18"/>
<text text-anchor="middle" x="491.69" y="-101.3" font-family="Times New Roman,serif" font-size="14.00">systems analyst</text>
</a>
</g>
</g>
<!-- 0&#45;&gt;1 -->
<g id="edge1" class="edge">
<title>0&#45;&gt;1</title>
<path fill="none" stroke="black" d="M363.98,-173.58C366.25,-162.85 370.77,-149.55 379.69,-141 391.57,-129.62 407.1,-121.94 422.79,-116.75"/>
<polygon fill="black" stroke="black" points="423.97,-120.05 432.55,-113.83 421.97,-113.34 423.97,-120.05"/>
<text text-anchor="middle" x="395.19" y="-144.8" font-family="Times New Roman,serif" font-size="14.00">0.118</text>
</g>
<!-- 1&#45;&gt;0 -->
<g id="edge10" class="edge">
<title>1&#45;&gt;0</title>
<path fill="none" stroke="black" d="M467.1,-122.08C446.07,-135.83 415.7,-155.69 392.95,-170.56"/>
<polygon fill="black" stroke="black" points="390.79,-167.79 384.34,-176.19 394.62,-173.65 390.79,-167.79"/>
<text text-anchor="middle" x="450.19" y="-144.8" font-family="Times New Roman,serif" font-size="14.00">0.147</text>
</g>
<!-- 1&#45;&gt;1 -->
<g id="edge11" class="edge">
<title>1&#45;&gt;1</title>
<path fill="none" stroke="black" d="M552.86,-112.7C566.94,-112.04 577.29,-109.47 577.29,-105 577.29,-101.68 571.59,-99.41 562.89,-98.19"/>
<polygon fill="black" stroke="black" points="563.13,-94.7 552.86,-97.3 562.51,-101.67 563.13,-94.7"/>
<text text-anchor="middle" x="592.79" y="-101.3" font-family="Times New Roman,serif" font-size="14.00">0.130</text>
</g>
<!-- 2 -->
<g id="node3" class="node">
<title>2</title>
<g id="a_node3"><a xlink:href="investment analyst.svg" xlink:title="investment analyst">
<ellipse fill="none" stroke="black" cx="76.69" cy="-18" rx="76.89" ry="18"/>
<text text-anchor="middle" x="76.69" y="-14.3" font-family="Times New Roman,serif" font-size="14.00">investment analyst</text>
</a>
</g>
</g>
<!-- 1&#45;&gt;2 -->
<g id="edge13" class="edge">
<title>1&#45;&gt;2</title>
<path fill="none" stroke="black" d="M424.57,-102.32C335.7,-99.27 184.34,-90.94 133.69,-69 120.22,-63.16 107.66,-52.92 97.78,-43.21"/>
<polygon fill="black" stroke="black" points="100.25,-40.73 90.78,-35.98 95.22,-45.6 100.25,-40.73"/>
<text text-anchor="middle" x="149.19" y="-57.8" font-family="Times New Roman,serif" font-size="14.00">0.080</text>
</g>
<!-- 3 -->
<g id="node4" class="node">
<title>3</title>
<g id="a_node4"><a xlink:href="it consultant.svg" xlink:title="it consultant">
<ellipse fill="none" stroke="black" cx="225.69" cy="-18" rx="54.69" ry="18"/>
<text text-anchor="middle" x="225.69" y="-14.3" font-family="Times New Roman,serif" font-size="14.00">it consultant</text>
</a>
</g>
</g>
<!-- 1&#45;&gt;3 -->
<g id="edge12" class="edge">
<title>1&#45;&gt;3</title>
<path fill="none" stroke="black" d="M424.22,-103.9C379.57,-101.31 320.95,-92.95 274.69,-69 262.89,-62.89 252.23,-52.87 243.88,-43.4"/>
<polygon fill="black" stroke="black" points="246.54,-41.12 237.45,-35.68 241.16,-45.6 246.54,-41.12"/>
<text text-anchor="middle" x="290.19" y="-57.8" font-family="Times New Roman,serif" font-size="14.00">0.104</text>
</g>
<!-- 4 -->
<g id="node5" class="node">
<title>4</title>
<g id="a_node5"><a xlink:href="software developer.svg" xlink:title="software developer">
<ellipse fill="none" stroke="black" cx="378.69" cy="-18" rx="79.89" ry="18"/>
<text text-anchor="middle" x="378.69" y="-14.3" font-family="Times New Roman,serif" font-size="14.00">software developer</text>
</a>
</g>
</g>
<!-- 1&#45;&gt;4 -->
<g id="edge15" class="edge">
<title>1&#45;&gt;4</title>
<path fill="none" stroke="black" d="M437.17,-94.32C421.36,-89.13 405.26,-81.18 393.69,-69 387.81,-62.81 384.23,-54.4 382.05,-46.25"/>
<polygon fill="black" stroke="black" points="385.43,-45.32 379.97,-36.24 378.58,-46.75 385.43,-45.32"/>
<text text-anchor="middle" x="409.19" y="-57.8" font-family="Times New Roman,serif" font-size="14.00">0.036</text>
</g>
<!-- 5 -->
<g id="node6" class="node">
<title>5</title>
<g id="a_node6"><a xlink:href="project manager.svg" xlink:title="project manager">
<ellipse fill="none" stroke="black" cx="545.69" cy="-18" rx="68.79" ry="18"/>
<text text-anchor="middle" x="545.69" y="-14.3" font-family="Times New Roman,serif" font-size="14.00">project manager</text>
</a>
</g>
</g>
<!-- 1&#45;&gt;5 -->
<g id="edge14" class="edge">
<title>1&#45;&gt;5</title>
<path fill="none" stroke="black" d="M486.22,-86.76C484.03,-76.61 483.17,-63.87 488.69,-54 491.86,-48.35 496.35,-43.5 501.44,-39.37"/>
<polygon fill="black" stroke="black" points="503.66,-42.08 509.82,-33.46 499.63,-36.35 503.66,-42.08"/>
<text text-anchor="middle" x="504.19" y="-57.8" font-family="Times New Roman,serif" font-size="14.00">0.057</text>
</g>
<!-- 6 -->
<g id="node7" class="node">
<title>6</title>
<g id="a_node7"><a xlink:href="network administrator.svg" xlink:title="network administrator">
<ellipse fill="none" stroke="black" cx="722.69" cy="-18" rx="89.88" ry="18"/>
<text text-anchor="middle" x="722.69" y="-14.3" font-family="Times New Roman,serif" font-size="14.00">network administrator</text>
</a>
</g>
</g>
<!-- 1&#45;&gt;6 -->
<g id="edge18" class="edge">
<title>1&#45;&gt;6</title>
<path fill="none" stroke="black" d="M526.52,-89.57C551.71,-79.28 586.63,-65.33 617.69,-54 633.76,-48.14 651.35,-42.12 667.47,-36.76"/>
<polygon fill="black" stroke="black" points="668.88,-39.98 677.28,-33.52 666.69,-33.34 668.88,-39.98"/>
<text text-anchor="middle" x="633.19" y="-57.8" font-family="Times New Roman,serif" font-size="14.00">0.020</text>
</g>
<!-- 10 -->
<g id="node11" class="node">
<title>10</title>
<g id="a_node11"><a xlink:href="geographical information systems manager.svg" xlink:title="geographical information systems manager">
<ellipse fill="none" stroke="black" cx="995.69" cy="-18" rx="165.17" ry="18"/>
<text text-anchor="middle" x="995.69" y="-14.3" font-family="Times New Roman,serif" font-size="14.00">geographical information systems manager</text>
</a>
</g>
</g>
<!-- 1&#45;&gt;10 -->
<g id="edge16" class="edge">
<title>1&#45;&gt;10</title>
<path fill="none" stroke="black" d="M548.78,-95.31C593.64,-88.4 657.7,-78.38 713.69,-69 777.63,-58.29 849.59,-45.52 904.82,-35.57"/>
<polygon fill="black" stroke="black" points="905.71,-38.96 914.93,-33.74 904.47,-32.07 905.71,-38.96"/>
<text text-anchor="middle" x="814.19" y="-57.8" font-family="Times New Roman,serif" font-size="14.00">0.020</text>
</g>
<!-- 11 -->
<g id="node12" class="node">
<title>11</title>
<g id="a_node12"><a xlink:href="logistics manager.svg" xlink:title="logistics manager">
<ellipse fill="none" stroke="black" cx="1252.69" cy="-18" rx="73.39" ry="18"/>
<text text-anchor="middle" x="1252.69" y="-14.3" font-family="Times New Roman,serif" font-size="14.00">logistics manager</text>
</a>
</g>
</g>
<!-- 1&#45;&gt;11 -->
<g id="edge17" class="edge">
<title>1&#45;&gt;11</title>
<path fill="none" stroke="black" d="M556.47,-99.71C677.44,-91.22 945.73,-70.08 1169.69,-36 1176.34,-34.99 1183.25,-33.8 1190.13,-32.52"/>
<polygon fill="black" stroke="black" points="1190.99,-35.92 1200.15,-30.6 1189.67,-29.05 1190.99,-35.92"/>
<text text-anchor="middle" x="1037.19" y="-57.8" font-family="Times New Roman,serif" font-size="14.00">0.020</text>
</g>
<!-- 12 -->
<g id="node13" class="node">
<title>12</title>
<g id="a_node13"><a xlink:href="architect.svg" xlink:title="architect">
<ellipse fill="none" stroke="black" cx="1385.69" cy="-18" rx="41.69" ry="18"/>
<text text-anchor="middle" x="1385.69" y="-14.3" font-family="Times New Roman,serif" font-size="14.00">architect</text>
</a>
</g>
</g>
<!-- 1&#45;&gt;12 -->
<g id="edge19" class="edge">
<title>1&#45;&gt;12</title>
<path fill="none" stroke="black" d="M557.89,-101.11C663.51,-96.22 876.59,-85.25 1056.69,-69 1180.61,-57.82 1213.27,-63.15 1334.69,-36 1338.27,-35.2 1341.96,-34.24 1345.63,-33.2"/>
<polygon fill="black" stroke="black" points="1346.69,-36.54 1355.23,-30.27 1344.65,-29.84 1346.69,-36.54"/>
<text text-anchor="middle" x="1249.19" y="-57.8" font-family="Times New Roman,serif" font-size="14.00">0.016</text>
</g>
<!-- 2&#45;&gt;1 -->
<g id="edge2" class="edge">
<title>2&#45;&gt;1</title>
<path fill="none" stroke="black" d="M112.81,-33.98C141.35,-45.25 182.45,-60.2 219.69,-69 285.56,-84.57 362.14,-93.64 417.24,-98.63"/>
<polygon fill="black" stroke="black" points="417,-102.12 427.26,-99.51 417.61,-95.15 417,-102.12"/>
<text text-anchor="middle" x="235.19" y="-57.8" font-family="Times New Roman,serif" font-size="14.00">0.086</text>
</g>
<!-- 3&#45;&gt;1 -->
<g id="edge3" class="edge">
<title>3&#45;&gt;1</title>
<path fill="none" stroke="black" d="M256.85,-32.85C281.88,-43.64 318.1,-58.49 350.69,-69 376.65,-77.37 405.84,-84.91 430.9,-90.84"/>
<polygon fill="black" stroke="black" points="430.11,-94.25 440.64,-93.11 431.7,-87.43 430.11,-94.25"/>
<text text-anchor="middle" x="366.19" y="-57.8" font-family="Times New Roman,serif" font-size="14.00">0.051</text>
</g>
<!-- 4&#45;&gt;1 -->
<g id="edge4" class="edge">
<title>4&#45;&gt;1</title>
<path fill="none" stroke="black" d="M400.52,-35.42C418.01,-48.57 442.72,-67.16 462.01,-81.67"/>
<polygon fill="black" stroke="black" points="460.08,-84.6 470.17,-87.81 464.29,-79 460.08,-84.6"/>
<text text-anchor="middle" x="458.19" y="-57.8" font-family="Times New Roman,serif" font-size="14.00">0.047</text>
</g>
<!-- 5&#45;&gt;1 -->
<g id="edge5" class="edge">
<title>5&#45;&gt;1</title>
<path fill="none" stroke="black" d="M539.66,-36.37C535.82,-46.33 530.32,-58.83 523.69,-69 521.32,-72.65 518.56,-76.28 515.67,-79.75"/>
<polygon fill="black" stroke="black" points="512.84,-77.67 508.84,-87.48 518.09,-82.3 512.84,-77.67"/>
<text text-anchor="middle" x="548.19" y="-57.8" font-family="Times New Roman,serif" font-size="14.00">0.041</text>
</g>
<!-- 6&#45;&gt;1 -->
<g id="edge6" class="edge">
<title>6&#45;&gt;1</title>
<path fill="none" stroke="black" d="M703.8,-35.75C690.4,-46.77 671.54,-60.65 652.69,-69 624.27,-81.6 590.96,-89.81 562.04,-95.08"/>
<polygon fill="black" stroke="black" points="561.26,-91.67 552.01,-96.83 562.46,-98.56 561.26,-91.67"/>
<text text-anchor="middle" x="694.19" y="-57.8" font-family="Times New Roman,serif" font-size="14.00">0.025</text>
</g>
<!-- 7 -->
<g id="node8" class="node">
<title>7</title>
<g id="a_node8"><a xlink:href="careers adviser.svg" xlink:title="careers adviser">
<ellipse fill="none" stroke="black" cx="491.69" cy="-192" rx="64.99" ry="18"/>
<text text-anchor="middle" x="491.69" y="-188.3" font-family="Times New Roman,serif" font-size="14.00">careers adviser</text>
</a>
</g>
</g>
<!-- 7&#45;&gt;1 -->
<g id="edge7" class="edge">
<title>7&#45;&gt;1</title>
<path fill="none" stroke="black" d="M491.69,-173.8C491.69,-162.16 491.69,-146.55 491.69,-133.24"/>
<polygon fill="black" stroke="black" points="495.19,-133.18 491.69,-123.18 488.19,-133.18 495.19,-133.18"/>
<text text-anchor="middle" x="507.19" y="-144.8" font-family="Times New Roman,serif" font-size="14.00">0.019</text>
</g>
<!-- 8 -->
<g id="node9" class="node">
<title>8</title>
<g id="a_node9"><a xlink:href="computer sales support.svg" xlink:title="computer sales support">
<ellipse fill="none" stroke="black" cx="670.69" cy="-192" rx="96.38" ry="18"/>
<text text-anchor="middle" x="670.69" y="-188.3" font-family="Times New Roman,serif" font-size="14.00">computer sales support</text>
</a>
</g>
</g>
<!-- 8&#45;&gt;1 -->
<g id="edge8" class="edge">
<title>8&#45;&gt;1</title>
<path fill="none" stroke="black" d="M637.02,-175.01C607.47,-160.98 564.4,-140.52 532.81,-125.53"/>
<polygon fill="black" stroke="black" points="533.94,-122.19 523.41,-121.06 530.94,-128.51 533.94,-122.19"/>
<text text-anchor="middle" x="608.19" y="-144.8" font-family="Times New Roman,serif" font-size="14.00">0.019</text>
</g>
<!-- 9 -->
<g id="node10" class="node">
<title>9</title>
<g id="a_node10"><a xlink:href="materials specialist.svg" xlink:title="materials specialist">
<ellipse fill="none" stroke="black" cx="862.69" cy="-192" rx="77.99" ry="18"/>
<text text-anchor="middle" x="862.69" y="-188.3" font-family="Times New Roman,serif" font-size="14.00">materials specialist</text>
</a>
</g>
</g>
<!-- 9&#45;&gt;1 -->
<g id="edge9" class="edge">
<title>9&#45;&gt;1</title>
<path fill="none" stroke="black" d="M809.54,-178.82C741.17,-163.16 622.76,-136.03 551.37,-119.67"/>
<polygon fill="black" stroke="black" points="551.72,-116.16 541.19,-117.34 550.16,-122.99 551.72,-116.16"/>
<text text-anchor="middle" x="714.19" y="-144.8" font-family="Times New Roman,serif" font-size="14.00">0.015</text>
</g>
</g>
</svg>
