<?xml version="1.0" encoding="UTF-8" standalone="no"?>
<!DOCTYPE svg PUBLIC "-//W3C//DTD SVG 1.1//EN"
 "http://www.w3.org/Graphics/SVG/1.1/DTD/svg11.dtd">
<!-- Generated by graphviz version 2.44.1 (20200629.0800)
 -->
<!-- Title: teaching_assistant Pages: 1 -->
<svg width="1245pt" height="218pt"
 viewBox="0.00 0.00 1245.24 218.00" xmlns="http://www.w3.org/2000/svg" xmlns:xlink="http://www.w3.org/1999/xlink">
<g id="graph0" class="graph" transform="scale(1 1) rotate(0) translate(4 214)">
<title>teaching_assistant</title>
<polygon fill="white" stroke="transparent" points="-4,4 -4,-214 1241.24,-214 1241.24,4 -4,4"/>
<!-- 0 -->
<g id="node1" class="node">
<title>0</title>
<g id="a_node1"><a xlink:href="research scientist.svg" xlink:title="research scientist">
<ellipse fill="none" stroke="black" cx="464.7" cy="-192" rx="72.59" ry="18"/>
<text text-anchor="middle" x="464.7" y="-188.3" font-family="Times New Roman,serif" font-size="14.00">research scientist</text>
</a>
</g>
</g>
<!-- 1 -->
<g id="node2" class="node">
<title>1</title>
<g id="a_node2"><a xlink:href="teaching assistant.svg" xlink:title="teaching assistant">
<ellipse fill="none" stroke="black" cx="561.7" cy="-105" rx="73.39" ry="18"/>
<text text-anchor="middle" x="561.7" y="-101.3" font-family="Times New Roman,serif" font-size="14.00">teaching assistant</text>
</a>
</g>
</g>
<!-- 0&#45;&gt;1 -->
<g id="edge1" class="edge">
<title>0&#45;&gt;1</title>
<path fill="none" stroke="black" d="M466.16,-173.93C467.87,-163.33 471.6,-150.05 479.7,-141 486.35,-133.56 494.86,-127.64 503.86,-122.96"/>
<polygon fill="black" stroke="black" points="505.42,-126.09 512.98,-118.67 502.44,-119.76 505.42,-126.09"/>
<text text-anchor="middle" x="495.2" y="-144.8" font-family="Times New Roman,serif" font-size="14.00">0.064</text>
</g>
<!-- 1&#45;&gt;0 -->
<g id="edge13" class="edge">
<title>1&#45;&gt;0</title>
<path fill="none" stroke="black" d="M545.66,-122.75C535.85,-132.73 522.89,-145.46 510.7,-156 505.81,-160.22 500.48,-164.53 495.23,-168.62"/>
<polygon fill="black" stroke="black" points="492.95,-165.96 487.13,-174.81 497.2,-171.52 492.95,-165.96"/>
<text text-anchor="middle" x="542.2" y="-144.8" font-family="Times New Roman,serif" font-size="14.00">0.044</text>
</g>
<!-- 1&#45;&gt;1 -->
<g id="edge11" class="edge">
<title>1&#45;&gt;1</title>
<path fill="none" stroke="black" d="M628.28,-112.64C642.69,-111.9 653.14,-109.35 653.14,-105 653.14,-101.74 647.26,-99.49 638.24,-98.26"/>
<polygon fill="black" stroke="black" points="638.55,-94.77 628.28,-97.36 637.92,-101.74 638.55,-94.77"/>
<text text-anchor="middle" x="668.64" y="-101.3" font-family="Times New Roman,serif" font-size="14.00">0.064</text>
</g>
<!-- 2 -->
<g id="node3" class="node">
<title>2</title>
<g id="a_node3"><a xlink:href="lecturer.svg" xlink:title="lecturer">
<ellipse fill="none" stroke="black" cx="37.7" cy="-18" rx="37.89" ry="18"/>
<text text-anchor="middle" x="37.7" y="-14.3" font-family="Times New Roman,serif" font-size="14.00">lecturer</text>
</a>
</g>
</g>
<!-- 1&#45;&gt;2 -->
<g id="edge10" class="edge">
<title>1&#45;&gt;2</title>
<path fill="none" stroke="black" d="M488.77,-102.7C380.05,-100.03 181.05,-92.06 113.7,-69 95.38,-62.73 77.19,-51 63.19,-40.48"/>
<polygon fill="black" stroke="black" points="65.1,-37.53 55.06,-34.14 60.79,-43.05 65.1,-37.53"/>
<text text-anchor="middle" x="129.2" y="-57.8" font-family="Times New Roman,serif" font-size="14.00">0.071</text>
</g>
<!-- 3 -->
<g id="node4" class="node">
<title>3</title>
<g id="a_node4"><a xlink:href="education administrator.svg" xlink:title="education administrator">
<ellipse fill="none" stroke="black" cx="188.7" cy="-18" rx="95.58" ry="18"/>
<text text-anchor="middle" x="188.7" y="-14.3" font-family="Times New Roman,serif" font-size="14.00">education administrator</text>
</a>
</g>
</g>
<!-- 1&#45;&gt;3 -->
<g id="edge16" class="edge">
<title>1&#45;&gt;3</title>
<path fill="none" stroke="black" d="M490.48,-100.44C436.44,-96.34 360.76,-87.59 296.7,-69 272.43,-61.96 246.71,-50.24 226.46,-39.91"/>
<polygon fill="black" stroke="black" points="228.05,-36.8 217.56,-35.29 224.82,-43.01 228.05,-36.8"/>
<text text-anchor="middle" x="312.2" y="-57.8" font-family="Times New Roman,serif" font-size="14.00">0.027</text>
</g>
<!-- 4 -->
<g id="node5" class="node">
<title>4</title>
<g id="a_node5"><a xlink:href="pharmacovigilance officer.svg" xlink:title="pharmacovigilance officer">
<ellipse fill="none" stroke="black" cx="406.7" cy="-18" rx="104.78" ry="18"/>
<text text-anchor="middle" x="406.7" y="-14.3" font-family="Times New Roman,serif" font-size="14.00">pharmacovigilance officer</text>
</a>
</g>
</g>
<!-- 1&#45;&gt;4 -->
<g id="edge17" class="edge">
<title>1&#45;&gt;4</title>
<path fill="none" stroke="black" d="M500.45,-94.92C480.06,-89.74 458.13,-81.65 440.7,-69 432.12,-62.78 425.02,-53.69 419.57,-44.96"/>
<polygon fill="black" stroke="black" points="422.51,-43.06 414.49,-36.13 416.44,-46.55 422.51,-43.06"/>
<text text-anchor="middle" x="456.2" y="-57.8" font-family="Times New Roman,serif" font-size="14.00">0.027</text>
</g>
<!-- 7 -->
<g id="node8" class="node">
<title>7</title>
<g id="a_node8"><a xlink:href="it consultant.svg" xlink:title="it consultant">
<ellipse fill="none" stroke="black" cx="583.7" cy="-18" rx="54.69" ry="18"/>
<text text-anchor="middle" x="583.7" y="-14.3" font-family="Times New Roman,serif" font-size="14.00">it consultant</text>
</a>
</g>
</g>
<!-- 1&#45;&gt;7 -->
<g id="edge12" class="edge">
<title>1&#45;&gt;7</title>
<path fill="none" stroke="black" d="M544.44,-87.37C536.52,-77.66 530.02,-65.16 535.7,-54 538.42,-48.64 542.39,-43.91 546.91,-39.79"/>
<polygon fill="black" stroke="black" points="549.23,-42.41 554.88,-33.45 544.88,-36.93 549.23,-42.41"/>
<text text-anchor="middle" x="551.2" y="-57.8" font-family="Times New Roman,serif" font-size="14.00">0.061</text>
</g>
<!-- 8 -->
<g id="node9" class="node">
<title>8</title>
<g id="a_node9"><a xlink:href="personal assistant.svg" xlink:title="personal assistant">
<ellipse fill="none" stroke="black" cx="730.7" cy="-18" rx="74.99" ry="18"/>
<text text-anchor="middle" x="730.7" y="-14.3" font-family="Times New Roman,serif" font-size="14.00">personal assistant</text>
</a>
</g>
</g>
<!-- 1&#45;&gt;8 -->
<g id="edge19" class="edge">
<title>1&#45;&gt;8</title>
<path fill="none" stroke="black" d="M587.19,-88.03C604.06,-77.75 626.83,-64.41 647.7,-54 659.18,-48.27 671.83,-42.62 683.72,-37.58"/>
<polygon fill="black" stroke="black" points="685.17,-40.77 693.05,-33.68 682.48,-34.31 685.17,-40.77"/>
<text text-anchor="middle" x="663.2" y="-57.8" font-family="Times New Roman,serif" font-size="14.00">0.020</text>
</g>
<!-- 9 -->
<g id="node10" class="node">
<title>9</title>
<g id="a_node10"><a xlink:href="project manager.svg" xlink:title="project manager">
<ellipse fill="none" stroke="black" cx="892.7" cy="-18" rx="68.79" ry="18"/>
<text text-anchor="middle" x="892.7" y="-14.3" font-family="Times New Roman,serif" font-size="14.00">project manager</text>
</a>
</g>
</g>
<!-- 1&#45;&gt;9 -->
<g id="edge18" class="edge">
<title>1&#45;&gt;9</title>
<path fill="none" stroke="black" d="M619.72,-93.86C653.47,-87.57 696.72,-78.82 734.7,-69 745.32,-66.25 799.43,-49.01 841.4,-35.53"/>
<polygon fill="black" stroke="black" points="842.51,-38.85 850.96,-32.46 840.37,-32.19 842.51,-38.85"/>
<text text-anchor="middle" x="796.2" y="-57.8" font-family="Times New Roman,serif" font-size="14.00">0.027</text>
</g>
<!-- 10 -->
<g id="node11" class="node">
<title>10</title>
<g id="a_node11"><a xlink:href="academic librarian.svg" xlink:title="academic librarian">
<ellipse fill="none" stroke="black" cx="1055.7" cy="-18" rx="76.09" ry="18"/>
<text text-anchor="middle" x="1055.7" y="-14.3" font-family="Times New Roman,serif" font-size="14.00">academic librarian</text>
</a>
</g>
</g>
<!-- 1&#45;&gt;10 -->
<g id="edge14" class="edge">
<title>1&#45;&gt;10</title>
<path fill="none" stroke="black" d="M632.13,-99.77C697.32,-95.03 796.7,-85.73 881.7,-69 923.52,-60.77 969.86,-47.23 1004.2,-36.31"/>
<polygon fill="black" stroke="black" points="1005.55,-39.55 1014,-33.16 1003.41,-32.89 1005.55,-39.55"/>
<text text-anchor="middle" x="955.2" y="-57.8" font-family="Times New Roman,serif" font-size="14.00">0.037</text>
</g>
<!-- 11 -->
<g id="node12" class="node">
<title>11</title>
<g id="a_node12"><a xlink:href="secretary.svg" xlink:title="secretary">
<ellipse fill="none" stroke="black" cx="1193.7" cy="-18" rx="43.59" ry="18"/>
<text text-anchor="middle" x="1193.7" y="-14.3" font-family="Times New Roman,serif" font-size="14.00">secretary</text>
</a>
</g>
</g>
<!-- 1&#45;&gt;11 -->
<g id="edge15" class="edge">
<title>1&#45;&gt;11</title>
<path fill="none" stroke="black" d="M632.86,-100.39C715.37,-95.64 855.35,-85.87 974.7,-69 1049.18,-58.47 1067.88,-54.85 1140.7,-36 1144.12,-35.11 1147.65,-34.13 1151.18,-33.1"/>
<polygon fill="black" stroke="black" points="1152.52,-36.36 1161.07,-30.11 1150.49,-29.66 1152.52,-36.36"/>
<text text-anchor="middle" x="1079.2" y="-57.8" font-family="Times New Roman,serif" font-size="14.00">0.030</text>
</g>
<!-- 2&#45;&gt;1 -->
<g id="edge2" class="edge">
<title>2&#45;&gt;1</title>
<path fill="none" stroke="black" d="M66.22,-30.15C71.97,-32.22 77.99,-34.28 83.7,-36 144.48,-54.37 160.1,-58.38 222.7,-69 310.5,-83.89 412.25,-93.37 481.19,-98.65"/>
<polygon fill="black" stroke="black" points="481.31,-102.17 491.54,-99.44 481.83,-95.19 481.31,-102.17"/>
<text text-anchor="middle" x="238.2" y="-57.8" font-family="Times New Roman,serif" font-size="14.00">0.041</text>
</g>
<!-- 3&#45;&gt;1 -->
<g id="edge3" class="edge">
<title>3&#45;&gt;1</title>
<path fill="none" stroke="black" d="M243.12,-32.91C284.14,-43.25 341.83,-57.5 392.7,-69 426.85,-76.72 465.03,-84.68 496.46,-91.06"/>
<polygon fill="black" stroke="black" points="495.91,-94.52 506.41,-93.07 497.3,-87.66 495.91,-94.52"/>
<text text-anchor="middle" x="408.2" y="-57.8" font-family="Times New Roman,serif" font-size="14.00">0.037</text>
</g>
<!-- 4&#45;&gt;1 -->
<g id="edge4" class="edge">
<title>4&#45;&gt;1</title>
<path fill="none" stroke="black" d="M436.39,-35.28C461.35,-48.97 497.18,-68.62 524.13,-83.4"/>
<polygon fill="black" stroke="black" points="522.45,-86.47 532.91,-88.21 525.82,-80.33 522.45,-86.47"/>
<text text-anchor="middle" x="509.2" y="-57.8" font-family="Times New Roman,serif" font-size="14.00">0.037</text>
</g>
<!-- 5 -->
<g id="node6" class="node">
<title>5</title>
<g id="a_node6"><a xlink:href="teacher.svg" xlink:title="teacher">
<ellipse fill="none" stroke="black" cx="591.7" cy="-192" rx="36.29" ry="18"/>
<text text-anchor="middle" x="591.7" y="-188.3" font-family="Times New Roman,serif" font-size="14.00">teacher</text>
</a>
</g>
</g>
<!-- 5&#45;&gt;1 -->
<g id="edge5" class="edge">
<title>5&#45;&gt;1</title>
<path fill="none" stroke="black" d="M585.77,-174.21C581.61,-162.41 575.95,-146.38 571.16,-132.82"/>
<polygon fill="black" stroke="black" points="574.34,-131.31 567.71,-123.05 567.74,-133.64 574.34,-131.31"/>
<text text-anchor="middle" x="593.2" y="-144.8" font-family="Times New Roman,serif" font-size="14.00">0.033</text>
</g>
<!-- 6 -->
<g id="node7" class="node">
<title>6</title>
<g id="a_node7"><a xlink:href="marketing assistant.svg" xlink:title="marketing assistant">
<ellipse fill="none" stroke="black" cx="725.7" cy="-192" rx="79.09" ry="18"/>
<text text-anchor="middle" x="725.7" y="-188.3" font-family="Times New Roman,serif" font-size="14.00">marketing assistant</text>
</a>
</g>
</g>
<!-- 6&#45;&gt;1 -->
<g id="edge6" class="edge">
<title>6&#45;&gt;1</title>
<path fill="none" stroke="black" d="M695.23,-175.21C668.57,-161.39 629.68,-141.24 600.74,-126.23"/>
<polygon fill="black" stroke="black" points="602.21,-123.05 591.72,-121.56 598.99,-129.27 602.21,-123.05"/>
<text text-anchor="middle" x="668.2" y="-144.8" font-family="Times New Roman,serif" font-size="14.00">0.026</text>
</g>
<!-- 7&#45;&gt;1 -->
<g id="edge7" class="edge">
<title>7&#45;&gt;1</title>
<path fill="none" stroke="black" d="M579.25,-36.18C576.24,-47.81 572.2,-63.42 568.75,-76.73"/>
<polygon fill="black" stroke="black" points="565.27,-76.24 566.15,-86.8 572.04,-77.99 565.27,-76.24"/>
<text text-anchor="middle" x="589.2" y="-57.8" font-family="Times New Roman,serif" font-size="14.00">0.022</text>
</g>
<!-- 8&#45;&gt;1 -->
<g id="edge8" class="edge">
<title>8&#45;&gt;1</title>
<path fill="none" stroke="black" d="M718.18,-36.08C709.37,-46.95 696.7,-60.53 682.7,-69 666.44,-78.83 647.28,-86.02 629.06,-91.23"/>
<polygon fill="black" stroke="black" points="628.09,-87.86 619.35,-93.85 629.91,-94.62 628.09,-87.86"/>
<text text-anchor="middle" x="715.2" y="-57.8" font-family="Times New Roman,serif" font-size="14.00">0.022</text>
</g>
<!-- 9&#45;&gt;1 -->
<g id="edge9" class="edge">
<title>9&#45;&gt;1</title>
<path fill="none" stroke="black" d="M873.97,-35.49C860,-46.84 839.91,-61.21 819.7,-69 763.84,-90.52 696.74,-99.14 644.97,-102.45"/>
<polygon fill="black" stroke="black" points="644.6,-98.96 634.83,-103.04 645.01,-105.95 644.6,-98.96"/>
<text text-anchor="middle" x="862.2" y="-57.8" font-family="Times New Roman,serif" font-size="14.00">0.022</text>
</g>
</g>
</svg>
