<?xml version="1.0" encoding="UTF-8" standalone="no"?>
<!DOCTYPE svg PUBLIC "-//W3C//DTD SVG 1.1//EN"
 "http://www.w3.org/Graphics/SVG/1.1/DTD/svg11.dtd">
<!-- Generated by graphviz version 2.44.1 (20200629.0800)
 -->
<!-- Title: teacher Pages: 1 -->
<svg width="1428pt" height="218pt"
 viewBox="0.00 0.00 1428.14 218.00" xmlns="http://www.w3.org/2000/svg" xmlns:xlink="http://www.w3.org/1999/xlink">
<g id="graph0" class="graph" transform="scale(1 1) rotate(0) translate(4 214)">
<title>teacher</title>
<polygon fill="white" stroke="transparent" points="-4,4 -4,-214 1424.14,-214 1424.14,4 -4,4"/>
<!-- 0 -->
<g id="node1" class="node">
<title>0</title>
<g id="a_node1"><a xlink:href="lecturer.svg" xlink:title="lecturer">
<ellipse fill="none" stroke="black" cx="394.94" cy="-192" rx="37.89" ry="18"/>
<text text-anchor="middle" x="394.94" y="-188.3" font-family="Times New Roman,serif" font-size="14.00">lecturer</text>
</a>
</g>
</g>
<!-- 1 -->
<g id="node2" class="node">
<title>1</title>
<g id="a_node2"><a xlink:href="teacher.svg" xlink:title="teacher">
<ellipse fill="none" stroke="black" cx="568.94" cy="-105" rx="36.29" ry="18"/>
<text text-anchor="middle" x="568.94" y="-101.3" font-family="Times New Roman,serif" font-size="14.00">teacher</text>
</a>
</g>
</g>
<!-- 0&#45;&gt;1 -->
<g id="edge1" class="edge">
<title>0&#45;&gt;1</title>
<path fill="none" stroke="black" d="M392.34,-173.64C391.75,-162.93 393.02,-149.63 400.94,-141 417.12,-123.37 479.13,-114.08 523.1,-109.61"/>
<polygon fill="black" stroke="black" points="523.67,-113.07 533.29,-108.63 523,-106.11 523.67,-113.07"/>
<text text-anchor="middle" x="416.44" y="-144.8" font-family="Times New Roman,serif" font-size="14.00">0.060</text>
</g>
<!-- 1&#45;&gt;0 -->
<g id="edge12" class="edge">
<title>1&#45;&gt;0</title>
<path fill="none" stroke="black" d="M543.89,-118.24C513.77,-132.95 463.05,-157.73 429.29,-174.22"/>
<polygon fill="black" stroke="black" points="427.69,-171.11 420.24,-178.64 430.77,-177.4 427.69,-171.11"/>
<text text-anchor="middle" x="508.44" y="-144.8" font-family="Times New Roman,serif" font-size="14.00">0.062</text>
</g>
<!-- 1&#45;&gt;1 -->
<g id="edge10" class="edge">
<title>1&#45;&gt;1</title>
<path fill="none" stroke="black" d="M601.87,-112.87C613.7,-113.04 623.34,-110.41 623.34,-105 623.34,-101.28 618.78,-98.88 612.09,-97.79"/>
<polygon fill="black" stroke="black" points="612.08,-94.28 601.87,-97.13 611.63,-101.27 612.08,-94.28"/>
<text text-anchor="middle" x="638.84" y="-101.3" font-family="Times New Roman,serif" font-size="14.00">0.107</text>
</g>
<!-- 2 -->
<g id="node3" class="node">
<title>2</title>
<g id="a_node3"><a xlink:href="software developer.svg" xlink:title="software developer">
<ellipse fill="none" stroke="black" cx="79.94" cy="-18" rx="79.89" ry="18"/>
<text text-anchor="middle" x="79.94" y="-14.3" font-family="Times New Roman,serif" font-size="14.00">software developer</text>
</a>
</g>
</g>
<!-- 1&#45;&gt;2 -->
<g id="edge11" class="edge">
<title>1&#45;&gt;2</title>
<path fill="none" stroke="black" d="M532.8,-102.47C449.43,-98.66 245.74,-87.69 179.94,-69 157,-62.48 133.04,-50.7 114.32,-40.21"/>
<polygon fill="black" stroke="black" points="116,-37.14 105.59,-35.19 112.52,-43.21 116,-37.14"/>
<text text-anchor="middle" x="195.44" y="-57.8" font-family="Times New Roman,serif" font-size="14.00">0.089</text>
</g>
<!-- 3 -->
<g id="node4" class="node">
<title>3</title>
<g id="a_node4"><a xlink:href="production manager.svg" xlink:title="production manager">
<ellipse fill="none" stroke="black" cx="260.94" cy="-18" rx="83.39" ry="18"/>
<text text-anchor="middle" x="260.94" y="-14.3" font-family="Times New Roman,serif" font-size="14.00">production manager</text>
</a>
</g>
</g>
<!-- 1&#45;&gt;3 -->
<g id="edge15" class="edge">
<title>1&#45;&gt;3</title>
<path fill="none" stroke="black" d="M532.75,-102.3C488.15,-99.3 410.58,-91.11 347.94,-69 328.54,-62.15 308.52,-50.98 292.58,-40.93"/>
<polygon fill="black" stroke="black" points="294.48,-37.98 284.18,-35.49 290.68,-43.86 294.48,-37.98"/>
<text text-anchor="middle" x="363.44" y="-57.8" font-family="Times New Roman,serif" font-size="14.00">0.049</text>
</g>
<!-- 4 -->
<g id="node5" class="node">
<title>4</title>
<g id="a_node5"><a xlink:href="pharmacovigilance officer.svg" xlink:title="pharmacovigilance officer">
<ellipse fill="none" stroke="black" cx="466.94" cy="-18" rx="104.78" ry="18"/>
<text text-anchor="middle" x="466.94" y="-14.3" font-family="Times New Roman,serif" font-size="14.00">pharmacovigilance officer</text>
</a>
</g>
</g>
<!-- 1&#45;&gt;4 -->
<g id="edge14" class="edge">
<title>1&#45;&gt;4</title>
<path fill="none" stroke="black" d="M534.45,-99.23C514.79,-94.72 491.29,-85.96 476.94,-69 471.55,-62.63 468.78,-54.18 467.42,-46.04"/>
<polygon fill="black" stroke="black" points="470.9,-45.65 466.37,-36.07 463.94,-46.39 470.9,-45.65"/>
<text text-anchor="middle" x="492.44" y="-57.8" font-family="Times New Roman,serif" font-size="14.00">0.049</text>
</g>
<!-- 6 -->
<g id="node7" class="node">
<title>6</title>
<g id="a_node7"><a xlink:href="teaching assistant.svg" xlink:title="teaching assistant">
<ellipse fill="none" stroke="black" cx="662.94" cy="-18" rx="73.39" ry="18"/>
<text text-anchor="middle" x="662.94" y="-14.3" font-family="Times New Roman,serif" font-size="14.00">teaching assistant</text>
</a>
</g>
</g>
<!-- 1&#45;&gt;6 -->
<g id="edge17" class="edge">
<title>1&#45;&gt;6</title>
<path fill="none" stroke="black" d="M575.46,-87.11C580.18,-76.58 587.41,-63.32 596.94,-54 602.81,-48.26 609.81,-43.22 617.03,-38.89"/>
<polygon fill="black" stroke="black" points="619.18,-41.7 626.21,-33.77 615.77,-35.58 619.18,-41.7"/>
<text text-anchor="middle" x="612.44" y="-57.8" font-family="Times New Roman,serif" font-size="14.00">0.040</text>
</g>
<!-- 10 -->
<g id="node11" class="node">
<title>10</title>
<g id="a_node11"><a xlink:href="education administrator.svg" xlink:title="education administrator">
<ellipse fill="none" stroke="black" cx="849.94" cy="-18" rx="95.58" ry="18"/>
<text text-anchor="middle" x="849.94" y="-14.3" font-family="Times New Roman,serif" font-size="14.00">education administrator</text>
</a>
</g>
</g>
<!-- 1&#45;&gt;10 -->
<g id="edge13" class="edge">
<title>1&#45;&gt;10</title>
<path fill="none" stroke="black" d="M599.28,-94.82C645.23,-80.92 733.3,-54.28 791.85,-36.57"/>
<polygon fill="black" stroke="black" points="793.14,-39.84 801.7,-33.59 791.11,-33.14 793.14,-39.84"/>
<text text-anchor="middle" x="741.44" y="-57.8" font-family="Times New Roman,serif" font-size="14.00">0.049</text>
</g>
<!-- 11 -->
<g id="node12" class="node">
<title>11</title>
<g id="a_node12"><a xlink:href="research scientist.svg" xlink:title="research scientist">
<ellipse fill="none" stroke="black" cx="1035.94" cy="-18" rx="72.59" ry="18"/>
<text text-anchor="middle" x="1035.94" y="-14.3" font-family="Times New Roman,serif" font-size="14.00">research scientist</text>
</a>
</g>
</g>
<!-- 1&#45;&gt;11 -->
<g id="edge16" class="edge">
<title>1&#45;&gt;11</title>
<path fill="none" stroke="black" d="M602.83,-98.41C670.09,-87.23 825.16,-61.04 954.94,-36 960.73,-34.88 966.74,-33.69 972.75,-32.47"/>
<polygon fill="black" stroke="black" points="973.74,-35.84 982.84,-30.4 972.34,-28.98 973.74,-35.84"/>
<text text-anchor="middle" x="864.44" y="-57.8" font-family="Times New Roman,serif" font-size="14.00">0.044</text>
</g>
<!-- 12 -->
<g id="node13" class="node">
<title>12</title>
<g id="a_node13"><a xlink:href="it consultant.svg" xlink:title="it consultant">
<ellipse fill="none" stroke="black" cx="1180.94" cy="-18" rx="54.69" ry="18"/>
<text text-anchor="middle" x="1180.94" y="-14.3" font-family="Times New Roman,serif" font-size="14.00">it consultant</text>
</a>
</g>
</g>
<!-- 1&#45;&gt;12 -->
<g id="edge18" class="edge">
<title>1&#45;&gt;12</title>
<path fill="none" stroke="black" d="M604.91,-101.51C693.07,-94.99 926.7,-75.13 1117.94,-36 1122.37,-35.09 1126.95,-34.06 1131.52,-32.95"/>
<polygon fill="black" stroke="black" points="1132.62,-36.29 1141.46,-30.45 1130.91,-29.5 1132.62,-36.29"/>
<text text-anchor="middle" x="1028.44" y="-57.8" font-family="Times New Roman,serif" font-size="14.00">0.022</text>
</g>
<!-- 13 -->
<g id="node14" class="node">
<title>13</title>
<g id="a_node14"><a xlink:href="mechanical engineer.svg" xlink:title="mechanical engineer">
<ellipse fill="none" stroke="black" cx="1336.94" cy="-18" rx="83.39" ry="18"/>
<text text-anchor="middle" x="1336.94" y="-14.3" font-family="Times New Roman,serif" font-size="14.00">mechanical engineer</text>
</a>
</g>
</g>
<!-- 1&#45;&gt;13 -->
<g id="edge19" class="edge">
<title>1&#45;&gt;13</title>
<path fill="none" stroke="black" d="M605.11,-102.51C685.14,-98.95 883.2,-88.77 1047.94,-69 1136.09,-58.42 1157.51,-51.4 1244.94,-36 1251.71,-34.81 1258.76,-33.54 1265.81,-32.27"/>
<polygon fill="black" stroke="black" points="1266.89,-35.63 1276.1,-30.39 1265.63,-28.74 1266.89,-35.63"/>
<text text-anchor="middle" x="1161.44" y="-57.8" font-family="Times New Roman,serif" font-size="14.00">0.022</text>
</g>
<!-- 2&#45;&gt;1 -->
<g id="edge2" class="edge">
<title>2&#45;&gt;1</title>
<path fill="none" stroke="black" d="M127.5,-32.59C168.01,-43.73 227.9,-59.22 280.94,-69 365.81,-84.65 466.08,-95.03 523.13,-100.18"/>
<polygon fill="black" stroke="black" points="522.99,-103.68 533.26,-101.08 523.61,-96.71 522.99,-103.68"/>
<text text-anchor="middle" x="296.44" y="-57.8" font-family="Times New Roman,serif" font-size="14.00">0.050</text>
</g>
<!-- 3&#45;&gt;1 -->
<g id="edge3" class="edge">
<title>3&#45;&gt;1</title>
<path fill="none" stroke="black" d="M308.12,-32.89C343.07,-43.1 391.9,-57.2 434.94,-69 465.89,-77.49 500.98,-86.64 527.49,-93.45"/>
<polygon fill="black" stroke="black" points="526.65,-96.85 537.21,-95.94 528.39,-90.07 526.65,-96.85"/>
<text text-anchor="middle" x="450.44" y="-57.8" font-family="Times New Roman,serif" font-size="14.00">0.046</text>
</g>
<!-- 4&#45;&gt;1 -->
<g id="edge4" class="edge">
<title>4&#45;&gt;1</title>
<path fill="none" stroke="black" d="M486.95,-35.67C503.01,-49.05 525.66,-67.93 543.09,-82.46"/>
<polygon fill="black" stroke="black" points="541.25,-85.48 551.18,-89.19 545.73,-80.1 541.25,-85.48"/>
<text text-anchor="middle" x="540.44" y="-57.8" font-family="Times New Roman,serif" font-size="14.00">0.032</text>
</g>
<!-- 5 -->
<g id="node6" class="node">
<title>5</title>
<g id="a_node6"><a xlink:href="photographer.svg" xlink:title="photographer">
<ellipse fill="none" stroke="black" cx="509.94" cy="-192" rx="59.59" ry="18"/>
<text text-anchor="middle" x="509.94" y="-188.3" font-family="Times New Roman,serif" font-size="14.00">photographer</text>
</a>
</g>
</g>
<!-- 5&#45;&gt;1 -->
<g id="edge5" class="edge">
<title>5&#45;&gt;1</title>
<path fill="none" stroke="black" d="M521.6,-174.21C530.28,-161.71 542.25,-144.45 551.99,-130.43"/>
<polygon fill="black" stroke="black" points="554.88,-132.39 557.71,-122.18 549.13,-128.4 554.88,-132.39"/>
<text text-anchor="middle" x="559.44" y="-144.8" font-family="Times New Roman,serif" font-size="14.00">0.027</text>
</g>
<!-- 6&#45;&gt;1 -->
<g id="edge6" class="edge">
<title>6&#45;&gt;1</title>
<path fill="none" stroke="black" d="M655.04,-36.28C649.64,-46.7 641.7,-59.7 631.94,-69 624.12,-76.46 614.4,-82.87 604.96,-88.09"/>
<polygon fill="black" stroke="black" points="603.31,-85 596.06,-92.72 606.55,-91.21 603.31,-85"/>
<text text-anchor="middle" x="659.44" y="-57.8" font-family="Times New Roman,serif" font-size="14.00">0.027</text>
</g>
<!-- 7 -->
<g id="node8" class="node">
<title>7</title>
<g id="a_node8"><a xlink:href="architect.svg" xlink:title="architect">
<ellipse fill="none" stroke="black" cx="628.94" cy="-192" rx="41.69" ry="18"/>
<text text-anchor="middle" x="628.94" y="-188.3" font-family="Times New Roman,serif" font-size="14.00">architect</text>
</a>
</g>
</g>
<!-- 7&#45;&gt;1 -->
<g id="edge7" class="edge">
<title>7&#45;&gt;1</title>
<path fill="none" stroke="black" d="M617.37,-174.61C608.58,-162.15 596.32,-144.79 586.34,-130.65"/>
<polygon fill="black" stroke="black" points="589.1,-128.49 580.48,-122.34 583.38,-132.53 589.1,-128.49"/>
<text text-anchor="middle" x="618.44" y="-144.8" font-family="Times New Roman,serif" font-size="14.00">0.023</text>
</g>
<!-- 8 -->
<g id="node9" class="node">
<title>8</title>
<g id="a_node9"><a xlink:href="project manager.svg" xlink:title="project manager">
<ellipse fill="none" stroke="black" cx="756.94" cy="-192" rx="68.79" ry="18"/>
<text text-anchor="middle" x="756.94" y="-188.3" font-family="Times New Roman,serif" font-size="14.00">project manager</text>
</a>
</g>
</g>
<!-- 8&#45;&gt;1 -->
<g id="edge8" class="edge">
<title>8&#45;&gt;1</title>
<path fill="none" stroke="black" d="M723.77,-176C690.14,-160.8 638.31,-137.36 604.02,-121.86"/>
<polygon fill="black" stroke="black" points="605.39,-118.64 594.84,-117.71 602.51,-125.02 605.39,-118.64"/>
<text text-anchor="middle" x="689.44" y="-144.8" font-family="Times New Roman,serif" font-size="14.00">0.023</text>
</g>
<!-- 9 -->
<g id="node10" class="node">
<title>9</title>
<g id="a_node10"><a xlink:href="heritage manager.svg" xlink:title="heritage manager">
<ellipse fill="none" stroke="black" cx="914.94" cy="-192" rx="71.49" ry="18"/>
<text text-anchor="middle" x="914.94" y="-188.3" font-family="Times New Roman,serif" font-size="14.00">heritage manager</text>
</a>
</g>
</g>
<!-- 9&#45;&gt;1 -->
<g id="edge9" class="edge">
<title>9&#45;&gt;1</title>
<path fill="none" stroke="black" d="M865.74,-178.91C797.38,-162.12 674.86,-132.02 610.71,-116.26"/>
<polygon fill="black" stroke="black" points="611.48,-112.85 600.94,-113.86 609.81,-119.64 611.48,-112.85"/>
<text text-anchor="middle" x="777.44" y="-144.8" font-family="Times New Roman,serif" font-size="14.00">0.018</text>
</g>
</g>
</svg>
