<?xml version="1.0" encoding="UTF-8" standalone="no"?>
<!DOCTYPE svg PUBLIC "-//W3C//DTD SVG 1.1//EN"
 "http://www.w3.org/Graphics/SVG/1.1/DTD/svg11.dtd">
<!-- Generated by graphviz version 2.44.1 (20200629.0800)
 -->
<!-- Title: test Pages: 1 -->
<svg width="1223pt" height="218pt"
 viewBox="0.00 0.00 1223.29 218.00" xmlns="http://www.w3.org/2000/svg" xmlns:xlink="http://www.w3.org/1999/xlink">
<g id="graph0" class="graph" transform="scale(1 1) rotate(0) translate(4 214)">
<title>test</title>
<polygon fill="white" stroke="transparent" points="-4,4 -4,-214 1219.29,-214 1219.29,4 -4,4"/>
<!-- 0 -->
<g id="node1" class="node">
<title>0</title>
<g id="a_node1"><a xlink:href="software developer.svg" xlink:title="software developer">
<ellipse fill="none" stroke="black" cx="255.6" cy="-192" rx="79.89" ry="18"/>
<text text-anchor="middle" x="255.6" y="-188.3" font-family="Times New Roman,serif" font-size="14.00">software developer</text>
</a>
</g>
</g>
<!-- 1 -->
<g id="node2" class="node">
<title>1</title>
<g id="a_node2"><a xlink:href="technical author.svg" xlink:title="technical author">
<ellipse fill="none" stroke="black" cx="470.6" cy="-105" rx="67.69" ry="18"/>
<text text-anchor="middle" x="470.6" y="-101.3" font-family="Times New Roman,serif" font-size="14.00">technical author</text>
</a>
</g>
</g>
<!-- 0&#45;&gt;1 -->
<g id="edge1" class="edge">
<title>0&#45;&gt;1</title>
<path fill="none" stroke="black" d="M261.19,-174.02C265.75,-162.9 273.29,-149 284.6,-141 302.83,-128.11 354.13,-119.04 398.24,-113.37"/>
<polygon fill="black" stroke="black" points="398.91,-116.81 408.4,-112.1 398.05,-109.86 398.91,-116.81"/>
<text text-anchor="middle" x="300.1" y="-144.8" font-family="Times New Roman,serif" font-size="14.00">0.205</text>
</g>
<!-- 1&#45;&gt;0 -->
<g id="edge10" class="edge">
<title>1&#45;&gt;0</title>
<path fill="none" stroke="black" d="M434.46,-120.28C398.35,-134.56 342.64,-156.59 303,-172.26"/>
<polygon fill="black" stroke="black" points="301.55,-169.07 293.54,-176 304.12,-175.58 301.55,-169.07"/>
<text text-anchor="middle" x="392.1" y="-144.8" font-family="Times New Roman,serif" font-size="14.00">0.134</text>
</g>
<!-- 1&#45;&gt;1 -->
<g id="edge11" class="edge">
<title>1&#45;&gt;1</title>
<path fill="none" stroke="black" d="M531.76,-112.7C545.84,-112.04 556.19,-109.47 556.19,-105 556.19,-101.68 550.49,-99.41 541.8,-98.19"/>
<polygon fill="black" stroke="black" points="542.03,-94.7 531.76,-97.3 541.41,-101.67 542.03,-94.7"/>
<text text-anchor="middle" x="571.69" y="-101.3" font-family="Times New Roman,serif" font-size="14.00">0.128</text>
</g>
<!-- 2 -->
<g id="node3" class="node">
<title>2</title>
<g id="a_node3"><a xlink:href="it consultant.svg" xlink:title="it consultant">
<ellipse fill="none" stroke="black" cx="54.6" cy="-18" rx="54.69" ry="18"/>
<text text-anchor="middle" x="54.6" y="-14.3" font-family="Times New Roman,serif" font-size="14.00">it consultant</text>
</a>
</g>
</g>
<!-- 1&#45;&gt;2 -->
<g id="edge12" class="edge">
<title>1&#45;&gt;2</title>
<path fill="none" stroke="black" d="M403.92,-101.55C317.36,-97.64 171.47,-88.38 121.6,-69 105.88,-62.89 90.62,-52.03 78.65,-41.99"/>
<polygon fill="black" stroke="black" points="80.76,-39.18 70.93,-35.23 76.15,-44.45 80.76,-39.18"/>
<text text-anchor="middle" x="137.1" y="-57.8" font-family="Times New Roman,serif" font-size="14.00">0.089</text>
</g>
<!-- 5 -->
<g id="node6" class="node">
<title>5</title>
<g id="a_node6"><a xlink:href="materials specialist.svg" xlink:title="materials specialist">
<ellipse fill="none" stroke="black" cx="205.6" cy="-18" rx="77.99" ry="18"/>
<text text-anchor="middle" x="205.6" y="-14.3" font-family="Times New Roman,serif" font-size="14.00">materials specialist</text>
</a>
</g>
</g>
<!-- 1&#45;&gt;5 -->
<g id="edge19" class="edge">
<title>1&#45;&gt;5</title>
<path fill="none" stroke="black" d="M404.01,-101.85C362.03,-98.33 307.63,-89.7 263.6,-69 250.36,-62.78 237.8,-52.68 227.77,-43.18"/>
<polygon fill="black" stroke="black" points="230.19,-40.65 220.62,-36.1 225.27,-45.62 230.19,-40.65"/>
<text text-anchor="middle" x="279.1" y="-57.8" font-family="Times New Roman,serif" font-size="14.00">0.025</text>
</g>
<!-- 6 -->
<g id="node7" class="node">
<title>6</title>
<g id="a_node7"><a xlink:href="project manager.svg" xlink:title="project manager">
<ellipse fill="none" stroke="black" cx="370.6" cy="-18" rx="68.79" ry="18"/>
<text text-anchor="middle" x="370.6" y="-14.3" font-family="Times New Roman,serif" font-size="14.00">project manager</text>
</a>
</g>
</g>
<!-- 1&#45;&gt;6 -->
<g id="edge13" class="edge">
<title>1&#45;&gt;6</title>
<path fill="none" stroke="black" d="M418.39,-93.51C404.3,-88.31 390.3,-80.55 380.6,-69 375.23,-62.61 372.46,-54.16 371.1,-46.02"/>
<polygon fill="black" stroke="black" points="374.58,-45.63 370.05,-36.05 367.62,-46.37 374.58,-45.63"/>
<text text-anchor="middle" x="396.1" y="-57.8" font-family="Times New Roman,serif" font-size="14.00">0.083</text>
</g>
<!-- 9 -->
<g id="node10" class="node">
<title>9</title>
<g id="a_node10"><a xlink:href="pharmacovigilance officer.svg" xlink:title="pharmacovigilance officer">
<ellipse fill="none" stroke="black" cx="562.6" cy="-18" rx="104.78" ry="18"/>
<text text-anchor="middle" x="562.6" y="-14.3" font-family="Times New Roman,serif" font-size="14.00">pharmacovigilance officer</text>
</a>
</g>
</g>
<!-- 1&#45;&gt;9 -->
<g id="edge14" class="edge">
<title>1&#45;&gt;9</title>
<path fill="none" stroke="black" d="M476.98,-86.65C481.49,-76.21 488.38,-63.2 497.6,-54 502.83,-48.77 509.01,-44.12 515.45,-40.05"/>
<polygon fill="black" stroke="black" points="517.45,-42.93 524.31,-34.86 513.91,-36.89 517.45,-42.93"/>
<text text-anchor="middle" x="513.1" y="-57.8" font-family="Times New Roman,serif" font-size="14.00">0.044</text>
</g>
<!-- 10 -->
<g id="node11" class="node">
<title>10</title>
<g id="a_node11"><a xlink:href="production manager.svg" xlink:title="production manager">
<ellipse fill="none" stroke="black" cx="768.6" cy="-18" rx="83.39" ry="18"/>
<text text-anchor="middle" x="768.6" y="-14.3" font-family="Times New Roman,serif" font-size="14.00">production manager</text>
</a>
</g>
</g>
<!-- 1&#45;&gt;10 -->
<g id="edge15" class="edge">
<title>1&#45;&gt;10</title>
<path fill="none" stroke="black" d="M514.89,-91.37C566.92,-76.52 653.41,-51.86 710.71,-35.51"/>
<polygon fill="black" stroke="black" points="711.69,-38.87 720.35,-32.76 709.77,-32.14 711.69,-38.87"/>
<text text-anchor="middle" x="653.1" y="-57.8" font-family="Times New Roman,serif" font-size="14.00">0.044</text>
</g>
<!-- 11 -->
<g id="node12" class="node">
<title>11</title>
<g id="a_node12"><a xlink:href="software architect.svg" xlink:title="software architect">
<ellipse fill="none" stroke="black" cx="945.6" cy="-18" rx="75.29" ry="18"/>
<text text-anchor="middle" x="945.6" y="-14.3" font-family="Times New Roman,serif" font-size="14.00">software architect</text>
</a>
</g>
</g>
<!-- 1&#45;&gt;11 -->
<g id="edge16" class="edge">
<title>1&#45;&gt;11</title>
<path fill="none" stroke="black" d="M526.22,-94.77C601.95,-82.09 741.71,-58.32 860.6,-36 866.9,-34.82 873.47,-33.55 880.03,-32.27"/>
<polygon fill="black" stroke="black" points="881.17,-35.62 890.31,-30.25 879.82,-28.75 881.17,-35.62"/>
<text text-anchor="middle" x="769.1" y="-57.8" font-family="Times New Roman,serif" font-size="14.00">0.038</text>
</g>
<!-- 12 -->
<g id="node13" class="node">
<title>12</title>
<g id="a_node13"><a xlink:href="architect.svg" xlink:title="architect">
<ellipse fill="none" stroke="black" cx="1080.6" cy="-18" rx="41.69" ry="18"/>
<text text-anchor="middle" x="1080.6" y="-14.3" font-family="Times New Roman,serif" font-size="14.00">architect</text>
</a>
</g>
</g>
<!-- 1&#45;&gt;12 -->
<g id="edge17" class="edge">
<title>1&#45;&gt;12</title>
<path fill="none" stroke="black" d="M536.37,-100.6C641.69,-94.14 854.16,-76.88 1029.6,-36 1033.02,-35.2 1036.53,-34.27 1040.05,-33.27"/>
<polygon fill="black" stroke="black" points="1041.3,-36.54 1049.84,-30.27 1039.26,-29.85 1041.3,-36.54"/>
<text text-anchor="middle" x="954.1" y="-57.8" font-family="Times New Roman,serif" font-size="14.00">0.025</text>
</g>
<!-- 13 -->
<g id="node14" class="node">
<title>13</title>
<g id="a_node14"><a xlink:href="lecturer.svg" xlink:title="lecturer">
<ellipse fill="none" stroke="black" cx="1177.6" cy="-18" rx="37.89" ry="18"/>
<text text-anchor="middle" x="1177.6" y="-14.3" font-family="Times New Roman,serif" font-size="14.00">lecturer</text>
</a>
</g>
</g>
<!-- 1&#45;&gt;13 -->
<g id="edge18" class="edge">
<title>1&#45;&gt;13</title>
<path fill="none" stroke="black" d="M537.61,-102.24C634.31,-99.05 818.39,-90.51 973.6,-69 1044.65,-59.15 1062.65,-55.82 1131.6,-36 1134.36,-35.21 1137.19,-34.33 1140.03,-33.4"/>
<polygon fill="black" stroke="black" points="1141.28,-36.67 1149.6,-30.1 1139,-30.05 1141.28,-36.67"/>
<text text-anchor="middle" x="1076.1" y="-57.8" font-family="Times New Roman,serif" font-size="14.00">0.025</text>
</g>
<!-- 2&#45;&gt;1 -->
<g id="edge2" class="edge">
<title>2&#45;&gt;1</title>
<path fill="none" stroke="black" d="M88.49,-32.17C118.96,-43.52 165.16,-59.53 206.6,-69 270,-83.5 343.45,-92.63 396.75,-97.92"/>
<polygon fill="black" stroke="black" points="396.5,-101.41 406.79,-98.89 397.18,-94.44 396.5,-101.41"/>
<text text-anchor="middle" x="222.1" y="-57.8" font-family="Times New Roman,serif" font-size="14.00">0.064</text>
</g>
<!-- 3 -->
<g id="node4" class="node">
<title>3</title>
<g id="a_node4"><a xlink:href="qa analyst.svg" xlink:title="qa analyst">
<ellipse fill="none" stroke="black" cx="400.6" cy="-192" rx="46.59" ry="18"/>
<text text-anchor="middle" x="400.6" y="-188.3" font-family="Times New Roman,serif" font-size="14.00">qa analyst</text>
</a>
</g>
</g>
<!-- 3&#45;&gt;1 -->
<g id="edge3" class="edge">
<title>3&#45;&gt;1</title>
<path fill="none" stroke="black" d="M414.09,-174.61C424.39,-162.11 438.74,-144.69 450.4,-130.53"/>
<polygon fill="black" stroke="black" points="453.25,-132.57 456.9,-122.63 447.84,-128.12 453.25,-132.57"/>
<text text-anchor="middle" x="456.1" y="-144.8" font-family="Times New Roman,serif" font-size="14.00">0.043</text>
</g>
<!-- 4 -->
<g id="node5" class="node">
<title>4</title>
<g id="a_node5"><a xlink:href="electrical engineer.svg" xlink:title="electrical engineer">
<ellipse fill="none" stroke="black" cx="540.6" cy="-192" rx="74.99" ry="18"/>
<text text-anchor="middle" x="540.6" y="-188.3" font-family="Times New Roman,serif" font-size="14.00">electrical engineer</text>
</a>
</g>
</g>
<!-- 4&#45;&gt;1 -->
<g id="edge4" class="edge">
<title>4&#45;&gt;1</title>
<path fill="none" stroke="black" d="M526.77,-174.21C516.51,-161.75 502.36,-144.57 490.83,-130.57"/>
<polygon fill="black" stroke="black" points="493.46,-128.25 484.4,-122.76 488.05,-132.7 493.46,-128.25"/>
<text text-anchor="middle" x="526.1" y="-144.8" font-family="Times New Roman,serif" font-size="14.00">0.027</text>
</g>
<!-- 5&#45;&gt;1 -->
<g id="edge5" class="edge">
<title>5&#45;&gt;1</title>
<path fill="none" stroke="black" d="M242.22,-33.91C268.74,-44.42 305.58,-58.45 338.6,-69 362.4,-76.61 388.98,-83.89 412.01,-89.81"/>
<polygon fill="black" stroke="black" points="411.43,-93.28 421.98,-92.35 413.16,-86.49 411.43,-93.28"/>
<text text-anchor="middle" x="354.1" y="-57.8" font-family="Times New Roman,serif" font-size="14.00">0.027</text>
</g>
<!-- 6&#45;&gt;1 -->
<g id="edge6" class="edge">
<title>6&#45;&gt;1</title>
<path fill="none" stroke="black" d="M389.82,-35.34C405.02,-48.26 426.43,-66.46 443.39,-80.88"/>
<polygon fill="black" stroke="black" points="441.43,-83.8 451.31,-87.61 445.96,-78.47 441.43,-83.8"/>
<text text-anchor="middle" x="442.1" y="-57.8" font-family="Times New Roman,serif" font-size="14.00">0.027</text>
</g>
<!-- 7 -->
<g id="node8" class="node">
<title>7</title>
<g id="a_node8"><a xlink:href="government research officer.svg" xlink:title="government research officer">
<ellipse fill="none" stroke="black" cx="745.6" cy="-192" rx="112.38" ry="18"/>
<text text-anchor="middle" x="745.6" y="-188.3" font-family="Times New Roman,serif" font-size="14.00">government research officer</text>
</a>
</g>
</g>
<!-- 7&#45;&gt;1 -->
<g id="edge7" class="edge">
<title>7&#45;&gt;1</title>
<path fill="none" stroke="black" d="M696.43,-175.8C647.48,-160.67 572.61,-137.53 522.67,-122.09"/>
<polygon fill="black" stroke="black" points="523.61,-118.72 513.02,-119.11 521.54,-125.41 523.61,-118.72"/>
<text text-anchor="middle" x="640.1" y="-144.8" font-family="Times New Roman,serif" font-size="14.00">0.021</text>
</g>
<!-- 8 -->
<g id="node9" class="node">
<title>8</title>
<g id="a_node9"><a xlink:href="network administrator.svg" xlink:title="network administrator">
<ellipse fill="none" stroke="black" cx="965.6" cy="-192" rx="89.88" ry="18"/>
<text text-anchor="middle" x="965.6" y="-188.3" font-family="Times New Roman,serif" font-size="14.00">network administrator</text>
</a>
</g>
</g>
<!-- 8&#45;&gt;1 -->
<g id="edge8" class="edge">
<title>8&#45;&gt;1</title>
<path fill="none" stroke="black" d="M899.86,-179.71C804.96,-163.42 630.6,-133.48 535.93,-117.22"/>
<polygon fill="black" stroke="black" points="536.35,-113.74 525.9,-115.5 535.17,-120.64 536.35,-113.74"/>
<text text-anchor="middle" x="763.1" y="-144.8" font-family="Times New Roman,serif" font-size="14.00">0.021</text>
</g>
<!-- 9&#45;&gt;1 -->
<g id="edge9" class="edge">
<title>9&#45;&gt;1</title>
<path fill="none" stroke="black" d="M555.04,-36.27C549.85,-46.68 542.17,-59.68 532.6,-69 526.8,-74.64 519.93,-79.68 512.9,-84.06"/>
<polygon fill="black" stroke="black" points="510.86,-81.2 503.98,-89.26 514.38,-87.25 510.86,-81.2"/>
<text text-anchor="middle" x="561.1" y="-57.8" font-family="Times New Roman,serif" font-size="14.00">0.021</text>
</g>
</g>
</svg>
