<?xml version="1.0" encoding="UTF-8" standalone="no"?>
<!DOCTYPE svg PUBLIC "-//W3C//DTD SVG 1.1//EN"
 "http://www.w3.org/Graphics/SVG/1.1/DTD/svg11.dtd">
<!-- Generated by graphviz version 2.44.1 (20200629.0800)
 -->
<!-- Title: test Pages: 1 -->
<svg width="1529pt" height="131pt"
 viewBox="0.00 0.00 1529.29 131.00" xmlns="http://www.w3.org/2000/svg" xmlns:xlink="http://www.w3.org/1999/xlink">
<g id="graph0" class="graph" transform="scale(1 1) rotate(0) translate(4 127)">
<title>test</title>
<polygon fill="white" stroke="transparent" points="-4,4 -4,-127 1525.29,-127 1525.29,4 -4,4"/>
<!-- 0 -->
<g id="node1" class="node">
<title>0</title>
<g id="a_node1"><a xlink:href="to_agricultural consultant.svg" xlink:title="agricultural consultant">
<ellipse fill="none" stroke="black" cx="655.6" cy="-18" rx="89.88" ry="18"/>
<text text-anchor="middle" x="655.6" y="-14.3" font-family="Times New Roman,serif" font-size="14.00">agricultural consultant</text>
</a>
</g>
</g>
<!-- 0&#45;&gt;0 -->
<g id="edge1" class="edge">
<title>0&#45;&gt;0</title>
<path fill="none" stroke="black" d="M737.3,-25.47C752.55,-24.55 763.29,-22.06 763.29,-18 763.29,-14.92 757.12,-12.75 747.5,-11.47"/>
<polygon fill="black" stroke="black" points="747.58,-7.97 737.3,-10.53 746.94,-14.94 747.58,-7.97"/>
<text text-anchor="middle" x="778.79" y="-14.3" font-family="Times New Roman,serif" font-size="14.00">0.189</text>
</g>
<!-- 1 -->
<g id="node2" class="node">
<title>1</title>
<g id="a_node2"><a xlink:href="to_it consultant.svg" xlink:title="it consultant">
<ellipse fill="none" stroke="black" cx="54.6" cy="-105" rx="54.69" ry="18"/>
<text text-anchor="middle" x="54.6" y="-101.3" font-family="Times New Roman,serif" font-size="14.00">it consultant</text>
</a>
</g>
</g>
<!-- 1&#45;&gt;0 -->
<g id="edge2" class="edge">
<title>1&#45;&gt;0</title>
<path fill="none" stroke="black" d="M94.82,-92.68C102.36,-90.69 110.2,-88.71 117.6,-87 192.58,-69.63 211.42,-64.99 287.6,-54 380.41,-40.61 487.17,-31.1 561.71,-25.41"/>
<polygon fill="black" stroke="black" points="562.31,-28.87 572.01,-24.63 561.78,-21.89 562.31,-28.87"/>
<text text-anchor="middle" x="303.1" y="-57.8" font-family="Times New Roman,serif" font-size="14.00">0.098</text>
</g>
<!-- 2 -->
<g id="node3" class="node">
<title>2</title>
<g id="a_node3"><a xlink:href="to_qa analyst.svg" xlink:title="qa analyst">
<ellipse fill="none" stroke="black" cx="173.6" cy="-105" rx="46.59" ry="18"/>
<text text-anchor="middle" x="173.6" y="-101.3" font-family="Times New Roman,serif" font-size="14.00">qa analyst</text>
</a>
</g>
</g>
<!-- 2&#45;&gt;0 -->
<g id="edge3" class="edge">
<title>2&#45;&gt;0</title>
<path fill="none" stroke="black" d="M208.06,-92.79C215.14,-90.7 222.57,-88.66 229.6,-87 346.17,-59.51 483.33,-39.83 569.88,-28.93"/>
<polygon fill="black" stroke="black" points="570.43,-32.39 579.91,-27.67 569.56,-25.44 570.43,-32.39"/>
<text text-anchor="middle" x="408.1" y="-57.8" font-family="Times New Roman,serif" font-size="14.00">0.039</text>
</g>
<!-- 3 -->
<g id="node4" class="node">
<title>3</title>
<g id="a_node4"><a xlink:href="to_careers adviser.svg" xlink:title="careers adviser">
<ellipse fill="none" stroke="black" cx="303.6" cy="-105" rx="64.99" ry="18"/>
<text text-anchor="middle" x="303.6" y="-101.3" font-family="Times New Roman,serif" font-size="14.00">careers adviser</text>
</a>
</g>
</g>
<!-- 3&#45;&gt;0 -->
<g id="edge4" class="edge">
<title>3&#45;&gt;0</title>
<path fill="none" stroke="black" d="M351.07,-92.54C412.86,-77.61 521.14,-51.47 590.55,-34.71"/>
<polygon fill="black" stroke="black" points="591.6,-38.05 600.5,-32.3 589.95,-31.25 591.6,-38.05"/>
<text text-anchor="middle" x="517.1" y="-57.8" font-family="Times New Roman,serif" font-size="14.00">0.032</text>
</g>
<!-- 4 -->
<g id="node5" class="node">
<title>4</title>
<g id="a_node5"><a xlink:href="to_pharmacovigilance officer.svg" xlink:title="pharmacovigilance officer">
<ellipse fill="none" stroke="black" cx="491.6" cy="-105" rx="104.78" ry="18"/>
<text text-anchor="middle" x="491.6" y="-101.3" font-family="Times New Roman,serif" font-size="14.00">pharmacovigilance officer</text>
</a>
</g>
</g>
<!-- 4&#45;&gt;0 -->
<g id="edge5" class="edge">
<title>4&#45;&gt;0</title>
<path fill="none" stroke="black" d="M522.83,-87.81C549.24,-74.12 587.25,-54.42 615.83,-39.61"/>
<polygon fill="black" stroke="black" points="617.49,-42.69 624.76,-34.98 614.27,-36.48 617.49,-42.69"/>
<text text-anchor="middle" x="599.1" y="-57.8" font-family="Times New Roman,serif" font-size="14.00">0.026</text>
</g>
<!-- 5 -->
<g id="node6" class="node">
<title>5</title>
<g id="a_node6"><a xlink:href="to_architect.svg" xlink:title="architect">
<ellipse fill="none" stroke="black" cx="655.6" cy="-105" rx="41.69" ry="18"/>
<text text-anchor="middle" x="655.6" y="-101.3" font-family="Times New Roman,serif" font-size="14.00">architect</text>
</a>
</g>
</g>
<!-- 5&#45;&gt;0 -->
<g id="edge6" class="edge">
<title>5&#45;&gt;0</title>
<path fill="none" stroke="black" d="M655.6,-86.8C655.6,-75.16 655.6,-59.55 655.6,-46.24"/>
<polygon fill="black" stroke="black" points="659.1,-46.18 655.6,-36.18 652.1,-46.18 659.1,-46.18"/>
<text text-anchor="middle" x="671.1" y="-57.8" font-family="Times New Roman,serif" font-size="14.00">0.019</text>
</g>
<!-- 6 -->
<g id="node7" class="node">
<title>6</title>
<g id="a_node7"><a xlink:href="to_financial manager.svg" xlink:title="financial manager">
<ellipse fill="none" stroke="black" cx="788.6" cy="-105" rx="73.39" ry="18"/>
<text text-anchor="middle" x="788.6" y="-101.3" font-family="Times New Roman,serif" font-size="14.00">financial manager</text>
</a>
</g>
</g>
<!-- 6&#45;&gt;0 -->
<g id="edge7" class="edge">
<title>6&#45;&gt;0</title>
<path fill="none" stroke="black" d="M763.58,-88.01C742.76,-74.71 712.91,-55.63 689.87,-40.91"/>
<polygon fill="black" stroke="black" points="691.72,-37.93 681.41,-35.5 687.95,-43.83 691.72,-37.93"/>
<text text-anchor="middle" x="746.1" y="-57.8" font-family="Times New Roman,serif" font-size="14.00">0.019</text>
</g>
<!-- 7 -->
<g id="node8" class="node">
<title>7</title>
<g id="a_node8"><a xlink:href="to_geographical information systems manager.svg" xlink:title="geographical information systems manager">
<ellipse fill="none" stroke="black" cx="1045.6" cy="-105" rx="165.17" ry="18"/>
<text text-anchor="middle" x="1045.6" y="-101.3" font-family="Times New Roman,serif" font-size="14.00">geographical information systems manager</text>
</a>
</g>
</g>
<!-- 7&#45;&gt;0 -->
<g id="edge8" class="edge">
<title>7&#45;&gt;0</title>
<path fill="none" stroke="black" d="M975.42,-88.71C904.25,-73.19 794.8,-49.34 724.2,-33.95"/>
<polygon fill="black" stroke="black" points="724.59,-30.46 714.07,-31.75 723.1,-37.29 724.59,-30.46"/>
<text text-anchor="middle" x="890.1" y="-57.8" font-family="Times New Roman,serif" font-size="14.00">0.019</text>
</g>
<!-- 8 -->
<g id="node9" class="node">
<title>8</title>
<g id="a_node9"><a xlink:href="to_health and safety adviser.svg" xlink:title="health and safety adviser">
<ellipse fill="none" stroke="black" cx="1328.6" cy="-105" rx="99.38" ry="18"/>
<text text-anchor="middle" x="1328.6" y="-101.3" font-family="Times New Roman,serif" font-size="14.00">health and safety adviser</text>
</a>
</g>
</g>
<!-- 8&#45;&gt;0 -->
<g id="edge9" class="edge">
<title>8&#45;&gt;0</title>
<path fill="none" stroke="black" d="M1256.82,-92.44C1244.42,-90.55 1231.64,-88.67 1219.6,-87 1050.96,-63.69 853.32,-40.9 742.46,-28.53"/>
<polygon fill="black" stroke="black" points="742.66,-25.03 732.33,-27.4 741.88,-31.98 742.66,-25.03"/>
<text text-anchor="middle" x="1095.1" y="-57.8" font-family="Times New Roman,serif" font-size="14.00">0.019</text>
</g>
<!-- 9 -->
<g id="node10" class="node">
<title>9</title>
<g id="a_node10"><a xlink:href="to_lecturer.svg" xlink:title="lecturer">
<ellipse fill="none" stroke="black" cx="1483.6" cy="-105" rx="37.89" ry="18"/>
<text text-anchor="middle" x="1483.6" y="-101.3" font-family="Times New Roman,serif" font-size="14.00">lecturer</text>
</a>
</g>
</g>
<!-- 9&#45;&gt;0 -->
<g id="edge10" class="edge">
<title>9&#45;&gt;0</title>
<path fill="none" stroke="black" d="M1455.6,-92.61C1449.42,-90.45 1442.85,-88.43 1436.6,-87 1196.32,-32.11 905.17,-20.85 755.36,-18.96"/>
<polygon fill="black" stroke="black" points="755.3,-15.46 745.26,-18.84 755.22,-22.46 755.3,-15.46"/>
<text text-anchor="middle" x="1347.1" y="-57.8" font-family="Times New Roman,serif" font-size="14.00">0.019</text>
</g>
</g>
</svg>
