<?xml version="1.0" encoding="UTF-8" standalone="no"?>
<!DOCTYPE svg PUBLIC "-//W3C//DTD SVG 1.1//EN"
 "http://www.w3.org/Graphics/SVG/1.1/DTD/svg11.dtd">
<!-- Generated by graphviz version 2.44.1 (20200629.0800)
 -->
<!-- Title: test Pages: 1 -->
<svg width="1614pt" height="131pt"
 viewBox="0.00 0.00 1613.99 131.00" xmlns="http://www.w3.org/2000/svg" xmlns:xlink="http://www.w3.org/1999/xlink">
<g id="graph0" class="graph" transform="scale(1 1) rotate(0) translate(4 127)">
<title>test</title>
<polygon fill="white" stroke="transparent" points="-4,4 -4,-127 1609.99,-127 1609.99,4 -4,4"/>
<!-- 0 -->
<g id="node1" class="node">
<title>0</title>
<g id="a_node1"><a xlink:href="to_animator.svg" xlink:title="animator">
<ellipse fill="none" stroke="black" cx="886.64" cy="-18" rx="42.49" ry="18"/>
<text text-anchor="middle" x="886.64" y="-14.3" font-family="Times New Roman,serif" font-size="14.00">animator</text>
</a>
</g>
</g>
<!-- 0&#45;&gt;0 -->
<g id="edge1" class="edge">
<title>0&#45;&gt;0</title>
<path fill="none" stroke="black" d="M924.88,-25.87C937.16,-25.79 946.89,-23.17 946.89,-18 946.89,-14.37 942.08,-11.99 934.95,-10.87"/>
<polygon fill="black" stroke="black" points="935.11,-7.37 924.88,-10.13 934.6,-14.35 935.11,-7.37"/>
<text text-anchor="middle" x="962.39" y="-14.3" font-family="Times New Roman,serif" font-size="14.00">0.290</text>
</g>
<!-- 1 -->
<g id="node2" class="node">
<title>1</title>
<g id="a_node2"><a xlink:href="to_pharmacovigilance officer.svg" xlink:title="pharmacovigilance officer">
<ellipse fill="none" stroke="black" cx="104.64" cy="-105" rx="104.78" ry="18"/>
<text text-anchor="middle" x="104.64" y="-101.3" font-family="Times New Roman,serif" font-size="14.00">pharmacovigilance officer</text>
</a>
</g>
</g>
<!-- 1&#45;&gt;0 -->
<g id="edge2" class="edge">
<title>1&#45;&gt;0</title>
<path fill="none" stroke="black" d="M179.38,-92.35C192.45,-90.45 205.93,-88.59 218.64,-87 448.3,-58.2 723.54,-33.17 835.52,-23.39"/>
<polygon fill="black" stroke="black" points="835.86,-26.87 845.52,-22.51 835.25,-19.9 835.86,-26.87"/>
<text text-anchor="middle" x="527.14" y="-57.8" font-family="Times New Roman,serif" font-size="14.00">0.096</text>
</g>
<!-- 2 -->
<g id="node3" class="node">
<title>2</title>
<g id="a_node3"><a xlink:href="to_television production assistant.svg" xlink:title="television production assistant">
<ellipse fill="none" stroke="black" cx="347.64" cy="-105" rx="120.48" ry="18"/>
<text text-anchor="middle" x="347.64" y="-101.3" font-family="Times New Roman,serif" font-size="14.00">television production assistant</text>
</a>
</g>
</g>
<!-- 2&#45;&gt;0 -->
<g id="edge3" class="edge">
<title>2&#45;&gt;0</title>
<path fill="none" stroke="black" d="M427.17,-91.46C540.36,-73.61 744.5,-41.42 837.76,-26.71"/>
<polygon fill="black" stroke="black" points="838.44,-30.14 847.78,-25.13 837.35,-23.23 838.44,-30.14"/>
<text text-anchor="middle" x="665.14" y="-57.8" font-family="Times New Roman,serif" font-size="14.00">0.096</text>
</g>
<!-- 3 -->
<g id="node4" class="node">
<title>3</title>
<g id="a_node4"><a xlink:href="to_graphic designer.svg" xlink:title="graphic designer">
<ellipse fill="none" stroke="black" cx="555.64" cy="-105" rx="70.39" ry="18"/>
<text text-anchor="middle" x="555.64" y="-101.3" font-family="Times New Roman,serif" font-size="14.00">graphic designer</text>
</a>
</g>
</g>
<!-- 3&#45;&gt;0 -->
<g id="edge4" class="edge">
<title>3&#45;&gt;0</title>
<path fill="none" stroke="black" d="M603.42,-91.73C667.01,-75.4 778.7,-46.72 841.13,-30.69"/>
<polygon fill="black" stroke="black" points="842.26,-34.01 851.08,-28.13 840.52,-27.23 842.26,-34.01"/>
<text text-anchor="middle" x="757.14" y="-57.8" font-family="Times New Roman,serif" font-size="14.00">0.064</text>
</g>
<!-- 4 -->
<g id="node5" class="node">
<title>4</title>
<g id="a_node5"><a xlink:href="to_biotechnologist.svg" xlink:title="biotechnologist">
<ellipse fill="none" stroke="black" cx="709.64" cy="-105" rx="66.09" ry="18"/>
<text text-anchor="middle" x="709.64" y="-101.3" font-family="Times New Roman,serif" font-size="14.00">biotechnologist</text>
</a>
</g>
</g>
<!-- 4&#45;&gt;0 -->
<g id="edge5" class="edge">
<title>4&#45;&gt;0</title>
<path fill="none" stroke="black" d="M740.88,-89C771.59,-74.25 818.42,-51.76 850.67,-36.27"/>
<polygon fill="black" stroke="black" points="852.27,-39.39 859.77,-31.91 849.24,-33.08 852.27,-39.39"/>
<text text-anchor="middle" x="825.14" y="-57.8" font-family="Times New Roman,serif" font-size="14.00">0.032</text>
</g>
<!-- 5 -->
<g id="node6" class="node">
<title>5</title>
<g id="a_node6"><a xlink:href="to_broadcasting presenter.svg" xlink:title="broadcasting presenter">
<ellipse fill="none" stroke="black" cx="886.64" cy="-105" rx="92.88" ry="18"/>
<text text-anchor="middle" x="886.64" y="-101.3" font-family="Times New Roman,serif" font-size="14.00">broadcasting presenter</text>
</a>
</g>
</g>
<!-- 5&#45;&gt;0 -->
<g id="edge6" class="edge">
<title>5&#45;&gt;0</title>
<path fill="none" stroke="black" d="M886.64,-86.8C886.64,-75.16 886.64,-59.55 886.64,-46.24"/>
<polygon fill="black" stroke="black" points="890.14,-46.18 886.64,-36.18 883.14,-46.18 890.14,-46.18"/>
<text text-anchor="middle" x="902.14" y="-57.8" font-family="Times New Roman,serif" font-size="14.00">0.032</text>
</g>
<!-- 6 -->
<g id="node7" class="node">
<title>6</title>
<g id="a_node7"><a xlink:href="to_civil service administrator.svg" xlink:title="civil service administrator">
<ellipse fill="none" stroke="black" cx="1100.64" cy="-105" rx="102.88" ry="18"/>
<text text-anchor="middle" x="1100.64" y="-101.3" font-family="Times New Roman,serif" font-size="14.00">civil service administrator</text>
</a>
</g>
</g>
<!-- 6&#45;&gt;0 -->
<g id="edge7" class="edge">
<title>6&#45;&gt;0</title>
<path fill="none" stroke="black" d="M1061.14,-88.31C1022.62,-73.01 964.37,-49.87 925.92,-34.6"/>
<polygon fill="black" stroke="black" points="927.18,-31.34 916.6,-30.9 924.6,-37.84 927.18,-31.34"/>
<text text-anchor="middle" x="1022.14" y="-57.8" font-family="Times New Roman,serif" font-size="14.00">0.032</text>
</g>
<!-- 7 -->
<g id="node8" class="node">
<title>7</title>
<g id="a_node8"><a xlink:href="to_facilities manager.svg" xlink:title="facilities manager">
<ellipse fill="none" stroke="black" cx="1293.64" cy="-105" rx="72.59" ry="18"/>
<text text-anchor="middle" x="1293.64" y="-101.3" font-family="Times New Roman,serif" font-size="14.00">facilities manager</text>
</a>
</g>
</g>
<!-- 7&#45;&gt;0 -->
<g id="edge8" class="edge">
<title>7&#45;&gt;0</title>
<path fill="none" stroke="black" d="M1240.05,-92.74C1230.91,-90.82 1221.5,-88.85 1212.64,-87 1113.47,-66.25 997.31,-42.04 933.89,-28.84"/>
<polygon fill="black" stroke="black" points="934.3,-25.35 923.8,-26.74 932.88,-32.2 934.3,-25.35"/>
<text text-anchor="middle" x="1138.14" y="-57.8" font-family="Times New Roman,serif" font-size="14.00">0.032</text>
</g>
<!-- 8 -->
<g id="node9" class="node">
<title>8</title>
<g id="a_node9"><a xlink:href="to_lecturer.svg" xlink:title="lecturer">
<ellipse fill="none" stroke="black" cx="1421.64" cy="-105" rx="37.89" ry="18"/>
<text text-anchor="middle" x="1421.64" y="-101.3" font-family="Times New Roman,serif" font-size="14.00">lecturer</text>
</a>
</g>
</g>
<!-- 8&#45;&gt;0 -->
<g id="edge9" class="edge">
<title>8&#45;&gt;0</title>
<path fill="none" stroke="black" d="M1393.71,-92.65C1387.81,-90.54 1381.58,-88.53 1375.64,-87 1219.35,-46.74 1028.42,-28.92 938.36,-22.31"/>
<polygon fill="black" stroke="black" points="938.37,-18.8 928.15,-21.57 937.87,-25.78 938.37,-18.8"/>
<text text-anchor="middle" x="1298.14" y="-57.8" font-family="Times New Roman,serif" font-size="14.00">0.032</text>
</g>
<!-- 9 -->
<g id="node10" class="node">
<title>9</title>
<g id="a_node10"><a xlink:href="to_patent attorney.svg" xlink:title="patent attorney">
<ellipse fill="none" stroke="black" cx="1541.64" cy="-105" rx="64.19" ry="18"/>
<text text-anchor="middle" x="1541.64" y="-101.3" font-family="Times New Roman,serif" font-size="14.00">patent attorney</text>
</a>
</g>
</g>
<!-- 9&#45;&gt;0 -->
<g id="edge10" class="edge">
<title>9&#45;&gt;0</title>
<path fill="none" stroke="black" d="M1494.15,-92.84C1485.66,-90.87 1476.89,-88.86 1468.64,-87 1401.63,-71.88 1385.58,-64.14 1317.64,-54 1182.09,-33.78 1020.69,-24.6 939.24,-21"/>
<polygon fill="black" stroke="black" points="938.91,-17.48 928.76,-20.54 938.6,-24.47 938.91,-17.48"/>
<text text-anchor="middle" x="1408.14" y="-57.8" font-family="Times New Roman,serif" font-size="14.00">0.032</text>
</g>
</g>
</svg>
