<?xml version="1.0" encoding="UTF-8" standalone="no"?>
<!DOCTYPE svg PUBLIC "-//W3C//DTD SVG 1.1//EN"
 "http://www.w3.org/Graphics/SVG/1.1/DTD/svg11.dtd">
<!-- Generated by graphviz version 2.44.1 (20200629.0800)
 -->
<!-- Title: test Pages: 1 -->
<svg width="1507pt" height="131pt"
 viewBox="0.00 0.00 1507.09 131.00" xmlns="http://www.w3.org/2000/svg" xmlns:xlink="http://www.w3.org/1999/xlink">
<g id="graph0" class="graph" transform="scale(1 1) rotate(0) translate(4 127)">
<title>test</title>
<polygon fill="white" stroke="transparent" points="-4,4 -4,-127 1503.09,-127 1503.09,4 -4,4"/>
<!-- 0 -->
<g id="node1" class="node">
<title>0</title>
<g id="a_node1"><a xlink:href="to_architect.svg" xlink:title="architect">
<ellipse fill="none" stroke="black" cx="734.39" cy="-18" rx="41.69" ry="18"/>
<text text-anchor="middle" x="734.39" y="-14.3" font-family="Times New Roman,serif" font-size="14.00">architect</text>
</a>
</g>
</g>
<!-- 0&#45;&gt;0 -->
<g id="edge1" class="edge">
<title>0&#45;&gt;0</title>
<path fill="none" stroke="black" d="M771.93,-25.87C784.21,-25.83 793.99,-23.21 793.99,-18 793.99,-14.34 789.16,-11.95 782.02,-10.84"/>
<polygon fill="black" stroke="black" points="782.16,-7.35 771.93,-10.13 781.66,-14.33 782.16,-7.35"/>
<text text-anchor="middle" x="809.49" y="-14.3" font-family="Times New Roman,serif" font-size="14.00">0.326</text>
</g>
<!-- 1 -->
<g id="node2" class="node">
<title>1</title>
<g id="a_node2"><a xlink:href="to_software architect.svg" xlink:title="software architect">
<ellipse fill="none" stroke="black" cx="75.39" cy="-105" rx="75.29" ry="18"/>
<text text-anchor="middle" x="75.39" y="-101.3" font-family="Times New Roman,serif" font-size="14.00">software architect</text>
</a>
</g>
</g>
<!-- 1&#45;&gt;0 -->
<g id="edge2" class="edge">
<title>1&#45;&gt;0</title>
<path fill="none" stroke="black" d="M130.48,-92.63C140.11,-90.7 150.03,-88.76 159.39,-87 243.63,-71.16 264.42,-65.22 349.39,-54 468.46,-38.27 609.19,-27.43 683.12,-22.33"/>
<polygon fill="black" stroke="black" points="683.79,-25.79 693.53,-21.62 683.31,-18.81 683.79,-25.79"/>
<text text-anchor="middle" x="364.89" y="-57.8" font-family="Times New Roman,serif" font-size="14.00">0.106</text>
</g>
<!-- 2 -->
<g id="node3" class="node">
<title>2</title>
<g id="a_node3"><a xlink:href="to_it consultant.svg" xlink:title="it consultant">
<ellipse fill="none" stroke="black" cx="223.39" cy="-105" rx="54.69" ry="18"/>
<text text-anchor="middle" x="223.39" y="-101.3" font-family="Times New Roman,serif" font-size="14.00">it consultant</text>
</a>
</g>
</g>
<!-- 2&#45;&gt;0 -->
<g id="edge3" class="edge">
<title>2&#45;&gt;0</title>
<path fill="none" stroke="black" d="M263.23,-92.57C270.89,-90.57 278.86,-88.61 286.39,-87 429.5,-56.32 601.21,-34.32 684.37,-24.58"/>
<polygon fill="black" stroke="black" points="685.02,-28.03 694.55,-23.4 684.21,-21.08 685.02,-28.03"/>
<text text-anchor="middle" x="473.89" y="-57.8" font-family="Times New Roman,serif" font-size="14.00">0.100</text>
</g>
<!-- 3 -->
<g id="node4" class="node">
<title>3</title>
<g id="a_node4"><a xlink:href="to_project manager.svg" xlink:title="project manager">
<ellipse fill="none" stroke="black" cx="364.39" cy="-105" rx="68.79" ry="18"/>
<text text-anchor="middle" x="364.39" y="-101.3" font-family="Times New Roman,serif" font-size="14.00">project manager</text>
</a>
</g>
</g>
<!-- 3&#45;&gt;0 -->
<g id="edge4" class="edge">
<title>3&#45;&gt;0</title>
<path fill="none" stroke="black" d="M414.29,-92.54C486.49,-75.95 619.04,-45.5 688.76,-29.48"/>
<polygon fill="black" stroke="black" points="689.62,-32.88 698.58,-27.23 688.05,-26.06 689.62,-32.88"/>
<text text-anchor="middle" x="587.89" y="-57.8" font-family="Times New Roman,serif" font-size="14.00">0.042</text>
</g>
<!-- 4 -->
<g id="node5" class="node">
<title>4</title>
<g id="a_node5"><a xlink:href="to_software developer.svg" xlink:title="software developer">
<ellipse fill="none" stroke="black" cx="531.39" cy="-105" rx="79.89" ry="18"/>
<text text-anchor="middle" x="531.39" y="-101.3" font-family="Times New Roman,serif" font-size="14.00">software developer</text>
</a>
</g>
</g>
<!-- 4&#45;&gt;0 -->
<g id="edge5" class="edge">
<title>4&#45;&gt;0</title>
<path fill="none" stroke="black" d="M567.69,-88.8C603.91,-73.64 659.34,-50.42 696.22,-34.99"/>
<polygon fill="black" stroke="black" points="697.76,-38.14 705.63,-31.04 695.05,-31.68 697.76,-38.14"/>
<text text-anchor="middle" x="660.89" y="-57.8" font-family="Times New Roman,serif" font-size="14.00">0.038</text>
</g>
<!-- 5 -->
<g id="node6" class="node">
<title>5</title>
<g id="a_node6"><a xlink:href="to_pharmacovigilance officer.svg" xlink:title="pharmacovigilance officer">
<ellipse fill="none" stroke="black" cx="734.39" cy="-105" rx="104.78" ry="18"/>
<text text-anchor="middle" x="734.39" y="-101.3" font-family="Times New Roman,serif" font-size="14.00">pharmacovigilance officer</text>
</a>
</g>
</g>
<!-- 5&#45;&gt;0 -->
<g id="edge6" class="edge">
<title>5&#45;&gt;0</title>
<path fill="none" stroke="black" d="M734.39,-86.8C734.39,-75.16 734.39,-59.55 734.39,-46.24"/>
<polygon fill="black" stroke="black" points="737.89,-46.18 734.39,-36.18 730.89,-46.18 737.89,-46.18"/>
<text text-anchor="middle" x="749.89" y="-57.8" font-family="Times New Roman,serif" font-size="14.00">0.022</text>
</g>
<!-- 6 -->
<g id="node7" class="node">
<title>6</title>
<g id="a_node7"><a xlink:href="to_landscape architect.svg" xlink:title="landscape architect">
<ellipse fill="none" stroke="black" cx="937.39" cy="-105" rx="79.89" ry="18"/>
<text text-anchor="middle" x="937.39" y="-101.3" font-family="Times New Roman,serif" font-size="14.00">landscape architect</text>
</a>
</g>
</g>
<!-- 6&#45;&gt;0 -->
<g id="edge7" class="edge">
<title>6&#45;&gt;0</title>
<path fill="none" stroke="black" d="M901.1,-88.8C864.88,-73.64 809.44,-50.42 772.57,-34.99"/>
<polygon fill="black" stroke="black" points="773.73,-31.68 763.16,-31.04 771.03,-38.14 773.73,-31.68"/>
<text text-anchor="middle" x="863.89" y="-57.8" font-family="Times New Roman,serif" font-size="14.00">0.019</text>
</g>
<!-- 7 -->
<g id="node8" class="node">
<title>7</title>
<g id="a_node8"><a xlink:href="to_production manager.svg" xlink:title="production manager">
<ellipse fill="none" stroke="black" cx="1118.39" cy="-105" rx="83.39" ry="18"/>
<text text-anchor="middle" x="1118.39" y="-101.3" font-family="Times New Roman,serif" font-size="14.00">production manager</text>
</a>
</g>
</g>
<!-- 7&#45;&gt;0 -->
<g id="edge8" class="edge">
<title>7&#45;&gt;0</title>
<path fill="none" stroke="black" d="M1062.56,-91.64C986.42,-74.79 851.45,-44.91 780.66,-29.24"/>
<polygon fill="black" stroke="black" points="781.21,-25.78 770.69,-27.03 779.7,-32.61 781.21,-25.78"/>
<text text-anchor="middle" x="964.89" y="-57.8" font-family="Times New Roman,serif" font-size="14.00">0.019</text>
</g>
<!-- 8 -->
<g id="node9" class="node">
<title>8</title>
<g id="a_node9"><a xlink:href="to_set designer.svg" xlink:title="set designer">
<ellipse fill="none" stroke="black" cx="1273.39" cy="-105" rx="53.89" ry="18"/>
<text text-anchor="middle" x="1273.39" y="-101.3" font-family="Times New Roman,serif" font-size="14.00">set designer</text>
</a>
</g>
</g>
<!-- 8&#45;&gt;0 -->
<g id="edge9" class="edge">
<title>8&#45;&gt;0</title>
<path fill="none" stroke="black" d="M1233.91,-92.58C1226.15,-90.55 1218.05,-88.59 1210.39,-87 1056.63,-55.15 871.84,-33.39 784.63,-24.09"/>
<polygon fill="black" stroke="black" points="784.8,-20.59 774.49,-23.02 784.07,-27.55 784.8,-20.59"/>
<text text-anchor="middle" x="1121.89" y="-57.8" font-family="Times New Roman,serif" font-size="14.00">0.019</text>
</g>
<!-- 9 -->
<g id="node10" class="node">
<title>9</title>
<g id="a_node10"><a xlink:href="to_investment analyst.svg" xlink:title="investment analyst">
<ellipse fill="none" stroke="black" cx="1422.39" cy="-105" rx="76.89" ry="18"/>
<text text-anchor="middle" x="1422.39" y="-101.3" font-family="Times New Roman,serif" font-size="14.00">investment analyst</text>
</a>
</g>
</g>
<!-- 9&#45;&gt;0 -->
<g id="edge10" class="edge">
<title>9&#45;&gt;0</title>
<path fill="none" stroke="black" d="M1366,-92.62C1356.14,-90.7 1345.97,-88.76 1336.39,-87 1249.94,-71.14 1228.59,-65.11 1141.39,-54 1014.07,-37.78 863.35,-27 785.95,-22.08"/>
<polygon fill="black" stroke="black" points="785.73,-18.56 775.53,-21.42 785.29,-25.54 785.73,-18.56"/>
<text text-anchor="middle" x="1253.89" y="-57.8" font-family="Times New Roman,serif" font-size="14.00">0.016</text>
</g>
</g>
</svg>
