<?xml version="1.0" encoding="UTF-8" standalone="no"?>
<!DOCTYPE svg PUBLIC "-//W3C//DTD SVG 1.1//EN"
 "http://www.w3.org/Graphics/SVG/1.1/DTD/svg11.dtd">
<!-- Generated by graphviz version 2.44.1 (20200629.0800)
 -->
<!-- Title: advertising_copywriter Pages: 1 -->
<svg width="1311pt" height="131pt"
 viewBox="0.00 0.00 1310.59 131.00" xmlns="http://www.w3.org/2000/svg" xmlns:xlink="http://www.w3.org/1999/xlink">
<g id="graph0" class="graph" transform="scale(1 1) rotate(0) translate(4 127)">
<title>advertising_copywriter</title>
<polygon fill="white" stroke="transparent" points="-4,4 -4,-127 1306.59,-127 1306.59,4 -4,4"/>
<!-- 0 -->
<g id="node1" class="node">
<title>0</title>
<g id="a_node1"><a xlink:href="to_advertising copywriter.svg" xlink:title="advertising copywriter">
<ellipse fill="none" stroke="black" cx="661.19" cy="-18" rx="90.98" ry="18"/>
<text text-anchor="middle" x="661.19" y="-14.3" font-family="Times New Roman,serif" font-size="14.00">advertising copywriter</text>
</a>
</g>
</g>
<!-- 0&#45;&gt;0 -->
<g id="edge1" class="edge">
<title>0&#45;&gt;0</title>
<path fill="none" stroke="black" d="M744.36,-25.44C759.54,-24.5 770.19,-22.02 770.19,-18 770.19,-14.95 764.07,-12.79 754.5,-11.51"/>
<polygon fill="black" stroke="black" points="754.64,-8.01 744.36,-10.56 753.98,-14.98 754.64,-8.01"/>
<text text-anchor="middle" x="785.69" y="-14.3" font-family="Times New Roman,serif" font-size="14.00">0.217</text>
</g>
<!-- 1 -->
<g id="node2" class="node">
<title>1</title>
<g id="a_node2"><a xlink:href="to_content manager.svg" xlink:title="content manager">
<ellipse fill="none" stroke="black" cx="70.19" cy="-105" rx="70.39" ry="18"/>
<text text-anchor="middle" x="70.19" y="-101.3" font-family="Times New Roman,serif" font-size="14.00">content manager</text>
</a>
</g>
</g>
<!-- 1&#45;&gt;0 -->
<g id="edge2" class="edge">
<title>1&#45;&gt;0</title>
<path fill="none" stroke="black" d="M121.08,-92.46C130.41,-90.51 140.07,-88.61 149.19,-87 297.05,-60.96 470.5,-39.9 572.83,-28.44"/>
<polygon fill="black" stroke="black" points="573.26,-31.91 582.81,-27.33 572.48,-24.95 573.26,-31.91"/>
<text text-anchor="middle" x="375.69" y="-57.8" font-family="Times New Roman,serif" font-size="14.00">0.076</text>
</g>
<!-- 2 -->
<g id="node3" class="node">
<title>2</title>
<g id="a_node3"><a xlink:href="to_marketing assistant.svg" xlink:title="marketing assistant">
<ellipse fill="none" stroke="black" cx="237.19" cy="-105" rx="79.09" ry="18"/>
<text text-anchor="middle" x="237.19" y="-101.3" font-family="Times New Roman,serif" font-size="14.00">marketing assistant</text>
</a>
</g>
</g>
<!-- 2&#45;&gt;0 -->
<g id="edge3" class="edge">
<title>2&#45;&gt;0</title>
<path fill="none" stroke="black" d="M294.82,-92.45C371.41,-77.09 506.7,-49.97 589.71,-33.33"/>
<polygon fill="black" stroke="black" points="590.45,-36.75 599.57,-31.35 589.08,-29.89 590.45,-36.75"/>
<text text-anchor="middle" x="490.69" y="-57.8" font-family="Times New Roman,serif" font-size="14.00">0.076</text>
</g>
<!-- 3 -->
<g id="node4" class="node">
<title>3</title>
<g id="a_node4"><a xlink:href="to_marketing executive.svg" xlink:title="marketing executive">
<ellipse fill="none" stroke="black" cx="416.19" cy="-105" rx="81.79" ry="18"/>
<text text-anchor="middle" x="416.19" y="-101.3" font-family="Times New Roman,serif" font-size="14.00">marketing executive</text>
</a>
</g>
</g>
<!-- 3&#45;&gt;0 -->
<g id="edge4" class="edge">
<title>3&#45;&gt;0</title>
<path fill="none" stroke="black" d="M458.03,-89.48C499.67,-75.04 563.68,-52.83 608.71,-37.21"/>
<polygon fill="black" stroke="black" points="609.99,-40.47 618.29,-33.88 607.7,-33.86 609.99,-40.47"/>
<text text-anchor="middle" x="569.69" y="-57.8" font-family="Times New Roman,serif" font-size="14.00">0.065</text>
</g>
<!-- 4 -->
<g id="node5" class="node">
<title>4</title>
<g id="a_node5"><a xlink:href="to_writer.svg" xlink:title="writer">
<ellipse fill="none" stroke="black" cx="547.19" cy="-105" rx="31.4" ry="18"/>
<text text-anchor="middle" x="547.19" y="-101.3" font-family="Times New Roman,serif" font-size="14.00">writer</text>
</a>
</g>
</g>
<!-- 4&#45;&gt;0 -->
<g id="edge5" class="edge">
<title>4&#45;&gt;0</title>
<path fill="none" stroke="black" d="M565.51,-90.34C583.1,-77.23 610,-57.17 630.8,-41.66"/>
<polygon fill="black" stroke="black" points="633.09,-44.32 639.01,-35.54 628.9,-38.71 633.09,-44.32"/>
<text text-anchor="middle" x="626.69" y="-57.8" font-family="Times New Roman,serif" font-size="14.00">0.043</text>
</g>
<!-- 5 -->
<g id="node6" class="node">
<title>5</title>
<g id="a_node6"><a xlink:href="to_careers adviser.svg" xlink:title="careers adviser">
<ellipse fill="none" stroke="black" cx="661.19" cy="-105" rx="64.99" ry="18"/>
<text text-anchor="middle" x="661.19" y="-101.3" font-family="Times New Roman,serif" font-size="14.00">careers adviser</text>
</a>
</g>
</g>
<!-- 5&#45;&gt;0 -->
<g id="edge6" class="edge">
<title>5&#45;&gt;0</title>
<path fill="none" stroke="black" d="M661.19,-86.8C661.19,-75.16 661.19,-59.55 661.19,-46.24"/>
<polygon fill="black" stroke="black" points="664.69,-46.18 661.19,-36.18 657.69,-46.18 664.69,-46.18"/>
<text text-anchor="middle" x="676.69" y="-57.8" font-family="Times New Roman,serif" font-size="14.00">0.032</text>
</g>
<!-- 6 -->
<g id="node7" class="node">
<title>6</title>
<g id="a_node7"><a xlink:href="to_production manager.svg" xlink:title="production manager">
<ellipse fill="none" stroke="black" cx="827.19" cy="-105" rx="83.39" ry="18"/>
<text text-anchor="middle" x="827.19" y="-101.3" font-family="Times New Roman,serif" font-size="14.00">production manager</text>
</a>
</g>
</g>
<!-- 6&#45;&gt;0 -->
<g id="edge7" class="edge">
<title>6&#45;&gt;0</title>
<path fill="none" stroke="black" d="M796.36,-88.21C769.62,-74.52 730.75,-54.61 701.54,-39.66"/>
<polygon fill="black" stroke="black" points="702.92,-36.43 692.43,-34.99 699.73,-42.67 702.92,-36.43"/>
<text text-anchor="middle" x="769.69" y="-57.8" font-family="Times New Roman,serif" font-size="14.00">0.032</text>
</g>
<!-- 7 -->
<g id="node8" class="node">
<title>7</title>
<g id="a_node8"><a xlink:href="to_sales manager.svg" xlink:title="sales manager">
<ellipse fill="none" stroke="black" cx="989.19" cy="-105" rx="61.19" ry="18"/>
<text text-anchor="middle" x="989.19" y="-101.3" font-family="Times New Roman,serif" font-size="14.00">sales manager</text>
</a>
</g>
</g>
<!-- 7&#45;&gt;0 -->
<g id="edge8" class="edge">
<title>7&#45;&gt;0</title>
<path fill="none" stroke="black" d="M944.96,-92.54C887.99,-77.77 788.64,-52.03 723.9,-35.25"/>
<polygon fill="black" stroke="black" points="724.77,-31.86 714.21,-32.74 723.01,-38.64 724.77,-31.86"/>
<text text-anchor="middle" x="859.69" y="-57.8" font-family="Times New Roman,serif" font-size="14.00">0.032</text>
</g>
<!-- 8 -->
<g id="node9" class="node">
<title>8</title>
<g id="a_node9"><a xlink:href="to_catering manager.svg" xlink:title="catering manager">
<ellipse fill="none" stroke="black" cx="1140.19" cy="-105" rx="71.49" ry="18"/>
<text text-anchor="middle" x="1140.19" y="-101.3" font-family="Times New Roman,serif" font-size="14.00">catering manager</text>
</a>
</g>
</g>
<!-- 8&#45;&gt;0 -->
<g id="edge9" class="edge">
<title>8&#45;&gt;0</title>
<path fill="none" stroke="black" d="M1087.51,-92.74C1078.09,-90.78 1068.36,-88.8 1059.19,-87 979.39,-71.31 959.35,-67.78 879.19,-54 833.3,-46.11 781.87,-37.83 740.5,-31.3"/>
<polygon fill="black" stroke="black" points="740.9,-27.82 730.48,-29.72 739.81,-34.73 740.9,-27.82"/>
<text text-anchor="middle" x="978.69" y="-57.8" font-family="Times New Roman,serif" font-size="14.00">0.021</text>
</g>
<!-- 9 -->
<g id="node10" class="node">
<title>9</title>
<g id="a_node10"><a xlink:href="to_curator.svg" xlink:title="curator">
<ellipse fill="none" stroke="black" cx="1266.19" cy="-105" rx="36.29" ry="18"/>
<text text-anchor="middle" x="1266.19" y="-101.3" font-family="Times New Roman,serif" font-size="14.00">curator</text>
</a>
</g>
</g>
<!-- 9&#45;&gt;0 -->
<g id="edge10" class="edge">
<title>9&#45;&gt;0</title>
<path fill="none" stroke="black" d="M1238.76,-92.81C1232.72,-90.64 1226.3,-88.56 1220.19,-87 1061.84,-46.43 871.88,-29.85 759.15,-23.23"/>
<polygon fill="black" stroke="black" points="759.34,-19.73 749.15,-22.65 758.94,-26.72 759.34,-19.73"/>
<text text-anchor="middle" x="1145.69" y="-57.8" font-family="Times New Roman,serif" font-size="14.00">0.021</text>
</g>
</g>
</svg>
