<?xml version="1.0" encoding="UTF-8" standalone="no"?>
<!DOCTYPE svg PUBLIC "-//W3C//DTD SVG 1.1//EN"
 "http://www.w3.org/Graphics/SVG/1.1/DTD/svg11.dtd">
<!-- Generated by graphviz version 2.44.1 (20200629.0800)
 -->
<!-- Title: armed_forces_officer Pages: 1 -->
<svg width="1664pt" height="131pt"
 viewBox="0.00 0.00 1663.68 131.00" xmlns="http://www.w3.org/2000/svg" xmlns:xlink="http://www.w3.org/1999/xlink">
<g id="graph0" class="graph" transform="scale(1 1) rotate(0) translate(4 127)">
<title>armed_forces_officer</title>
<polygon fill="white" stroke="transparent" points="-4,4 -4,-127 1659.68,-127 1659.68,4 -4,4"/>
<!-- 0 -->
<g id="node1" class="node">
<title>0</title>
<g id="a_node1"><a xlink:href="to_armed forces officer.svg" xlink:title="armed forces officer">
<ellipse fill="none" stroke="black" cx="846.64" cy="-18" rx="85.29" ry="18"/>
<text text-anchor="middle" x="846.64" y="-14.3" font-family="Times New Roman,serif" font-size="14.00">armed forces officer</text>
</a>
</g>
</g>
<!-- 0&#45;&gt;0 -->
<g id="edge1" class="edge">
<title>0&#45;&gt;0</title>
<path fill="none" stroke="black" d="M924.01,-25.52C939.08,-24.65 949.78,-22.14 949.78,-18 949.78,-14.86 943.64,-12.66 934.1,-11.4"/>
<polygon fill="black" stroke="black" points="934.29,-7.9 924.01,-10.48 933.65,-14.87 934.29,-7.9"/>
<text text-anchor="middle" x="965.28" y="-14.3" font-family="Times New Roman,serif" font-size="14.00">0.118</text>
</g>
<!-- 1 -->
<g id="node2" class="node">
<title>1</title>
<g id="a_node2"><a xlink:href="to_pharmacovigilance officer.svg" xlink:title="pharmacovigilance officer">
<ellipse fill="none" stroke="black" cx="104.64" cy="-105" rx="104.78" ry="18"/>
<text text-anchor="middle" x="104.64" y="-101.3" font-family="Times New Roman,serif" font-size="14.00">pharmacovigilance officer</text>
</a>
</g>
</g>
<!-- 1&#45;&gt;0 -->
<g id="edge2" class="edge">
<title>1&#45;&gt;0</title>
<path fill="none" stroke="black" d="M176.35,-91.84C243.47,-80.78 346.62,-64.61 436.64,-54 546.46,-41.06 673.38,-30.97 756.56,-25.02"/>
<polygon fill="black" stroke="black" points="757.01,-28.49 766.74,-24.29 756.51,-21.51 757.01,-28.49"/>
<text text-anchor="middle" x="452.14" y="-57.8" font-family="Times New Roman,serif" font-size="14.00">0.101</text>
</g>
<!-- 2 -->
<g id="node3" class="node">
<title>2</title>
<g id="a_node3"><a xlink:href="to_careers adviser.svg" xlink:title="careers adviser">
<ellipse fill="none" stroke="black" cx="292.64" cy="-105" rx="64.99" ry="18"/>
<text text-anchor="middle" x="292.64" y="-101.3" font-family="Times New Roman,serif" font-size="14.00">careers adviser</text>
</a>
</g>
</g>
<!-- 2&#45;&gt;0 -->
<g id="edge3" class="edge">
<title>2&#45;&gt;0</title>
<path fill="none" stroke="black" d="M339.91,-92.62C348.77,-90.64 357.97,-88.68 366.64,-87 504.72,-60.32 667.03,-39.5 763.12,-28.26"/>
<polygon fill="black" stroke="black" points="763.54,-31.73 773.07,-27.1 762.74,-24.78 763.54,-31.73"/>
<text text-anchor="middle" x="579.14" y="-57.8" font-family="Times New Roman,serif" font-size="14.00">0.050</text>
</g>
<!-- 3 -->
<g id="node4" class="node">
<title>3</title>
<g id="a_node4"><a xlink:href="to_project manager.svg" xlink:title="project manager">
<ellipse fill="none" stroke="black" cx="444.64" cy="-105" rx="68.79" ry="18"/>
<text text-anchor="middle" x="444.64" y="-101.3" font-family="Times New Roman,serif" font-size="14.00">project manager</text>
</a>
</g>
</g>
<!-- 3&#45;&gt;0 -->
<g id="edge4" class="edge">
<title>3&#45;&gt;0</title>
<path fill="none" stroke="black" d="M495.82,-92.79C504.75,-90.85 513.97,-88.86 522.64,-87 610.85,-68.13 712.68,-46.84 778.27,-33.19"/>
<polygon fill="black" stroke="black" points="779,-36.61 788.08,-31.15 777.58,-29.76 779,-36.61"/>
<text text-anchor="middle" x="689.14" y="-57.8" font-family="Times New Roman,serif" font-size="14.00">0.050</text>
</g>
<!-- 4 -->
<g id="node5" class="node">
<title>4</title>
<g id="a_node5"><a xlink:href="to_civil service administrator.svg" xlink:title="civil service administrator">
<ellipse fill="none" stroke="black" cx="634.64" cy="-105" rx="102.88" ry="18"/>
<text text-anchor="middle" x="634.64" y="-101.3" font-family="Times New Roman,serif" font-size="14.00">civil service administrator</text>
</a>
</g>
</g>
<!-- 4&#45;&gt;0 -->
<g id="edge5" class="edge">
<title>4&#45;&gt;0</title>
<path fill="none" stroke="black" d="M674.02,-88.21C709.3,-74.06 761.15,-53.28 798.81,-38.18"/>
<polygon fill="black" stroke="black" points="800.56,-41.25 808.54,-34.27 797.96,-34.75 800.56,-41.25"/>
<text text-anchor="middle" x="769.14" y="-57.8" font-family="Times New Roman,serif" font-size="14.00">0.033</text>
</g>
<!-- 5 -->
<g id="node6" class="node">
<title>5</title>
<g id="a_node6"><a xlink:href="to_programme researcher.svg" xlink:title="programme researcher">
<ellipse fill="none" stroke="black" cx="846.64" cy="-105" rx="91.78" ry="18"/>
<text text-anchor="middle" x="846.64" y="-101.3" font-family="Times New Roman,serif" font-size="14.00">programme researcher</text>
</a>
</g>
</g>
<!-- 5&#45;&gt;0 -->
<g id="edge6" class="edge">
<title>5&#45;&gt;0</title>
<path fill="none" stroke="black" d="M846.64,-86.8C846.64,-75.16 846.64,-59.55 846.64,-46.24"/>
<polygon fill="black" stroke="black" points="850.14,-46.18 846.64,-36.18 843.14,-46.18 850.14,-46.18"/>
<text text-anchor="middle" x="862.14" y="-57.8" font-family="Times New Roman,serif" font-size="14.00">0.033</text>
</g>
<!-- 6 -->
<g id="node7" class="node">
<title>6</title>
<g id="a_node7"><a xlink:href="to_public affairs consultant.svg" xlink:title="public affairs consultant">
<ellipse fill="none" stroke="black" cx="1053.64" cy="-105" rx="97.48" ry="18"/>
<text text-anchor="middle" x="1053.64" y="-101.3" font-family="Times New Roman,serif" font-size="14.00">public affairs consultant</text>
</a>
</g>
</g>
<!-- 6&#45;&gt;0 -->
<g id="edge7" class="edge">
<title>6&#45;&gt;0</title>
<path fill="none" stroke="black" d="M1015.67,-88.41C981.28,-74.29 930.49,-53.43 893.56,-38.27"/>
<polygon fill="black" stroke="black" points="894.6,-34.91 884.02,-34.35 891.94,-41.38 894.6,-34.91"/>
<text text-anchor="middle" x="978.14" y="-57.8" font-family="Times New Roman,serif" font-size="14.00">0.033</text>
</g>
<!-- 7 -->
<g id="node8" class="node">
<title>7</title>
<g id="a_node8"><a xlink:href="to_sales manager.svg" xlink:title="sales manager">
<ellipse fill="none" stroke="black" cx="1230.64" cy="-105" rx="61.19" ry="18"/>
<text text-anchor="middle" x="1230.64" y="-101.3" font-family="Times New Roman,serif" font-size="14.00">sales manager</text>
</a>
</g>
</g>
<!-- 7&#45;&gt;0 -->
<g id="edge8" class="edge">
<title>7&#45;&gt;0</title>
<path fill="none" stroke="black" d="M1184.84,-92.88C1176.47,-90.89 1167.8,-88.86 1159.64,-87 1075.38,-67.76 978.05,-46.82 914.59,-33.33"/>
<polygon fill="black" stroke="black" points="915.21,-29.88 904.7,-31.23 913.75,-36.73 915.21,-29.88"/>
<text text-anchor="middle" x="1090.14" y="-57.8" font-family="Times New Roman,serif" font-size="14.00">0.033</text>
</g>
<!-- 8 -->
<g id="node9" class="node">
<title>8</title>
<g id="a_node9"><a xlink:href="to_teacher.svg" xlink:title="teacher">
<ellipse fill="none" stroke="black" cx="1345.64" cy="-105" rx="36.29" ry="18"/>
<text text-anchor="middle" x="1345.64" y="-101.3" font-family="Times New Roman,serif" font-size="14.00">teacher</text>
</a>
</g>
</g>
<!-- 8&#45;&gt;0 -->
<g id="edge9" class="edge">
<title>8&#45;&gt;0</title>
<path fill="none" stroke="black" d="M1318.31,-92.73C1312.54,-90.62 1306.44,-88.58 1300.64,-87 1176.13,-53.06 1027.49,-34.85 935.06,-26.05"/>
<polygon fill="black" stroke="black" points="935.19,-22.54 924.91,-25.1 934.54,-29.51 935.19,-22.54"/>
<text text-anchor="middle" x="1230.14" y="-57.8" font-family="Times New Roman,serif" font-size="14.00">0.033</text>
</g>
<!-- 9 -->
<g id="node10" class="node">
<title>9</title>
<g id="a_node10"><a xlink:href="to_training and development officer.svg" xlink:title="training and development officer">
<ellipse fill="none" stroke="black" cx="1527.64" cy="-105" rx="128.08" ry="18"/>
<text text-anchor="middle" x="1527.64" y="-101.3" font-family="Times New Roman,serif" font-size="14.00">training and development officer</text>
</a>
</g>
</g>
<!-- 9&#45;&gt;0 -->
<g id="edge10" class="edge">
<title>9&#45;&gt;0</title>
<path fill="none" stroke="black" d="M1458.8,-89.81C1402.71,-78.69 1321.34,-63.54 1249.64,-54 1142.88,-39.79 1019.41,-30.05 937.56,-24.52"/>
<polygon fill="black" stroke="black" points="937.76,-21.02 927.54,-23.85 937.29,-28.01 937.76,-21.02"/>
<text text-anchor="middle" x="1357.14" y="-57.8" font-family="Times New Roman,serif" font-size="14.00">0.033</text>
</g>
</g>
</svg>
