<?xml version="1.0" encoding="UTF-8" standalone="no"?>
<!DOCTYPE svg PUBLIC "-//W3C//DTD SVG 1.1//EN"
 "http://www.w3.org/Graphics/SVG/1.1/DTD/svg11.dtd">
<!-- Generated by graphviz version 2.44.1 (20200629.0800)
 -->
<!-- Title: test Pages: 1 -->
<svg width="1398pt" height="131pt"
 viewBox="0.00 0.00 1397.59 131.00" xmlns="http://www.w3.org/2000/svg" xmlns:xlink="http://www.w3.org/1999/xlink">
<g id="graph0" class="graph" transform="scale(1 1) rotate(0) translate(4 127)">
<title>test</title>
<polygon fill="white" stroke="transparent" points="-4,4 -4,-127 1393.59,-127 1393.59,4 -4,4"/>
<!-- 0 -->
<g id="node1" class="node">
<title>0</title>
<g id="a_node1"><a xlink:href="to_air traffic controller.svg" xlink:title="air traffic controller">
<ellipse fill="none" stroke="black" cx="695.89" cy="-18" rx="80.69" ry="18"/>
<text text-anchor="middle" x="695.89" y="-14.3" font-family="Times New Roman,serif" font-size="14.00">air traffic controller</text>
</a>
</g>
</g>
<!-- 0&#45;&gt;0 -->
<g id="edge1" class="edge">
<title>0&#45;&gt;0</title>
<path fill="none" stroke="black" d="M769.42,-25.55C784.05,-24.7 794.49,-22.18 794.49,-18 794.49,-14.86 788.62,-12.66 779.51,-11.4"/>
<polygon fill="black" stroke="black" points="779.7,-7.9 769.42,-10.45 779.05,-14.87 779.7,-7.9"/>
<text text-anchor="middle" x="806.99" y="-14.3" font-family="Times New Roman,serif" font-size="14.00">0.12</text>
</g>
<!-- 1 -->
<g id="node2" class="node">
<title>1</title>
<g id="a_node2"><a xlink:href="to_project manager.svg" xlink:title="project manager">
<ellipse fill="none" stroke="black" cx="68.89" cy="-105" rx="68.79" ry="18"/>
<text text-anchor="middle" x="68.89" y="-101.3" font-family="Times New Roman,serif" font-size="14.00">project manager</text>
</a>
</g>
</g>
<!-- 1&#45;&gt;0 -->
<g id="edge2" class="edge">
<title>1&#45;&gt;0</title>
<path fill="none" stroke="black" d="M118.71,-92.53C128.05,-90.56 137.75,-88.62 146.89,-87 310.88,-57.95 504.61,-37.05 612.54,-26.6"/>
<polygon fill="black" stroke="black" points="613.09,-30.06 622.71,-25.62 612.42,-23.09 613.09,-30.06"/>
<text text-anchor="middle" x="370.39" y="-57.8" font-family="Times New Roman,serif" font-size="14.00">0.12</text>
</g>
<!-- 2 -->
<g id="node3" class="node">
<title>2</title>
<g id="a_node3"><a xlink:href="to_airline cabin crew.svg" xlink:title="airline cabin crew">
<ellipse fill="none" stroke="black" cx="228.89" cy="-105" rx="73.39" ry="18"/>
<text text-anchor="middle" x="228.89" y="-101.3" font-family="Times New Roman,serif" font-size="14.00">airline cabin crew</text>
</a>
</g>
</g>
<!-- 2&#45;&gt;0 -->
<g id="edge3" class="edge">
<title>2&#45;&gt;0</title>
<path fill="none" stroke="black" d="M282.66,-92.62C292.06,-90.69 301.76,-88.75 310.89,-87 419.5,-66.15 545.82,-44.3 623.31,-31.16"/>
<polygon fill="black" stroke="black" points="624.17,-34.57 633.44,-29.45 623,-27.66 624.17,-34.57"/>
<text text-anchor="middle" x="503.39" y="-57.8" font-family="Times New Roman,serif" font-size="14.00">0.08</text>
</g>
<!-- 3 -->
<g id="node4" class="node">
<title>3</title>
<g id="a_node4"><a xlink:href="to_aeronautical engineer.svg" xlink:title="aeronautical engineer">
<ellipse fill="none" stroke="black" cx="405.89" cy="-105" rx="85.59" ry="18"/>
<text text-anchor="middle" x="405.89" y="-101.3" font-family="Times New Roman,serif" font-size="14.00">aeronautical engineer</text>
</a>
</g>
</g>
<!-- 3&#45;&gt;0 -->
<g id="edge4" class="edge">
<title>3&#45;&gt;0</title>
<path fill="none" stroke="black" d="M453.78,-89.96C504.67,-75.05 585.09,-51.48 639.13,-35.64"/>
<polygon fill="black" stroke="black" points="640.29,-38.95 648.9,-32.77 638.32,-32.23 640.29,-38.95"/>
<text text-anchor="middle" x="581.39" y="-57.8" font-family="Times New Roman,serif" font-size="14.00">0.04</text>
</g>
<!-- 4 -->
<g id="node5" class="node">
<title>4</title>
<g id="a_node5"><a xlink:href="to_architect.svg" xlink:title="architect">
<ellipse fill="none" stroke="black" cx="550.89" cy="-105" rx="41.69" ry="18"/>
<text text-anchor="middle" x="550.89" y="-101.3" font-family="Times New Roman,serif" font-size="14.00">architect</text>
</a>
</g>
</g>
<!-- 4&#45;&gt;0 -->
<g id="edge5" class="edge">
<title>4&#45;&gt;0</title>
<path fill="none" stroke="black" d="M574.51,-90.15C597.66,-76.59 633.24,-55.73 659.91,-40.1"/>
<polygon fill="black" stroke="black" points="661.72,-43.09 668.58,-35.01 658.18,-37.05 661.72,-43.09"/>
<text text-anchor="middle" x="645.39" y="-57.8" font-family="Times New Roman,serif" font-size="14.00">0.04</text>
</g>
<!-- 5 -->
<g id="node6" class="node">
<title>5</title>
<g id="a_node6"><a xlink:href="to_armed forces officer.svg" xlink:title="armed forces officer">
<ellipse fill="none" stroke="black" cx="695.89" cy="-105" rx="85.29" ry="18"/>
<text text-anchor="middle" x="695.89" y="-101.3" font-family="Times New Roman,serif" font-size="14.00">armed forces officer</text>
</a>
</g>
</g>
<!-- 5&#45;&gt;0 -->
<g id="edge6" class="edge">
<title>5&#45;&gt;0</title>
<path fill="none" stroke="black" d="M695.89,-86.8C695.89,-75.16 695.89,-59.55 695.89,-46.24"/>
<polygon fill="black" stroke="black" points="699.39,-46.18 695.89,-36.18 692.39,-46.18 699.39,-46.18"/>
<text text-anchor="middle" x="708.39" y="-57.8" font-family="Times New Roman,serif" font-size="14.00">0.04</text>
</g>
<!-- 6 -->
<g id="node7" class="node">
<title>6</title>
<g id="a_node7"><a xlink:href="to_civil service administrator.svg" xlink:title="civil service administrator">
<ellipse fill="none" stroke="black" cx="901.89" cy="-105" rx="102.88" ry="18"/>
<text text-anchor="middle" x="901.89" y="-101.3" font-family="Times New Roman,serif" font-size="14.00">civil service administrator</text>
</a>
</g>
</g>
<!-- 6&#45;&gt;0 -->
<g id="edge7" class="edge">
<title>6&#45;&gt;0</title>
<path fill="none" stroke="black" d="M863.63,-88.21C829.24,-74.02 778.65,-53.15 742.03,-38.04"/>
<polygon fill="black" stroke="black" points="743.15,-34.71 732.57,-34.13 740.48,-41.18 743.15,-34.71"/>
<text text-anchor="middle" x="824.39" y="-57.8" font-family="Times New Roman,serif" font-size="14.00">0.04</text>
</g>
<!-- 7 -->
<g id="node8" class="node">
<title>7</title>
<g id="a_node8"><a xlink:href="to_ergonomist.svg" xlink:title="ergonomist">
<ellipse fill="none" stroke="black" cx="1073.89" cy="-105" rx="51.19" ry="18"/>
<text text-anchor="middle" x="1073.89" y="-101.3" font-family="Times New Roman,serif" font-size="14.00">ergonomist</text>
</a>
</g>
</g>
<!-- 7&#45;&gt;0 -->
<g id="edge8" class="edge">
<title>7&#45;&gt;0</title>
<path fill="none" stroke="black" d="M1035.91,-92.83C1028.62,-90.81 1021.04,-88.77 1013.89,-87 928.6,-65.82 829.45,-45.25 764.83,-32.39"/>
<polygon fill="black" stroke="black" points="765.26,-28.9 754.77,-30.39 763.9,-35.77 765.26,-28.9"/>
<text text-anchor="middle" x="948.39" y="-57.8" font-family="Times New Roman,serif" font-size="14.00">0.04</text>
</g>
<!-- 8 -->
<g id="node9" class="node">
<title>8</title>
<g id="a_node9"><a xlink:href="to_investment analyst.svg" xlink:title="investment analyst">
<ellipse fill="none" stroke="black" cx="1219.89" cy="-105" rx="76.89" ry="18"/>
<text text-anchor="middle" x="1219.89" y="-101.3" font-family="Times New Roman,serif" font-size="14.00">investment analyst</text>
</a>
</g>
</g>
<!-- 8&#45;&gt;0 -->
<g id="edge9" class="edge">
<title>8&#45;&gt;0</title>
<path fill="none" stroke="black" d="M1163,-92.73C1153.29,-90.82 1143.3,-88.85 1133.89,-87 1058.8,-72.25 1040.43,-66.28 964.89,-54 901.68,-43.73 829.72,-34.49 776.14,-28.09"/>
<polygon fill="black" stroke="black" points="776.36,-24.59 766.02,-26.89 775.54,-31.54 776.36,-24.59"/>
<text text-anchor="middle" x="1058.39" y="-57.8" font-family="Times New Roman,serif" font-size="14.00">0.04</text>
</g>
<!-- 9 -->
<g id="node10" class="node">
<title>9</title>
<g id="a_node10"><a xlink:href="to_lecturer.svg" xlink:title="lecturer">
<ellipse fill="none" stroke="black" cx="1351.89" cy="-105" rx="37.89" ry="18"/>
<text text-anchor="middle" x="1351.89" y="-101.3" font-family="Times New Roman,serif" font-size="14.00">lecturer</text>
</a>
</g>
</g>
<!-- 9&#45;&gt;0 -->
<g id="edge10" class="edge">
<title>9&#45;&gt;0</title>
<path fill="none" stroke="black" d="M1323.97,-92.61C1318.08,-90.51 1311.84,-88.5 1305.89,-87 1124.97,-41.2 906.08,-26.24 785.86,-21.36"/>
<polygon fill="black" stroke="black" points="785.73,-17.85 775.61,-20.96 785.46,-24.85 785.73,-17.85"/>
<text text-anchor="middle" x="1236.39" y="-57.8" font-family="Times New Roman,serif" font-size="14.00">0.04</text>
</g>
</g>
</svg>
