<?xml version="1.0" encoding="UTF-8" standalone="no"?>
<!DOCTYPE svg PUBLIC "-//W3C//DTD SVG 1.1//EN"
 "http://www.w3.org/Graphics/SVG/1.1/DTD/svg11.dtd">
<!-- Generated by graphviz version 2.44.1 (20200629.0800)
 -->
<!-- Title: agricultural_consultant Pages: 1 -->
<svg width="1494pt" height="131pt"
 viewBox="0.00 0.00 1494.29 131.00" xmlns="http://www.w3.org/2000/svg" xmlns:xlink="http://www.w3.org/1999/xlink">
<g id="graph0" class="graph" transform="scale(1 1) rotate(0) translate(4 127)">
<title>agricultural_consultant</title>
<polygon fill="white" stroke="transparent" points="-4,4 -4,-127 1490.29,-127 1490.29,4 -4,4"/>
<!-- 0 -->
<g id="node1" class="node">
<title>0</title>
<g id="a_node1"><a xlink:href="to_agricultural consultant.svg" xlink:title="agricultural consultant">
<ellipse fill="none" stroke="black" cx="655.6" cy="-18" rx="89.88" ry="18"/>
<text text-anchor="middle" x="655.6" y="-14.3" font-family="Times New Roman,serif" font-size="14.00">agricultural consultant</text>
</a>
</g>
</g>
<!-- 0&#45;&gt;0 -->
<g id="edge1" class="edge">
<title>0&#45;&gt;0</title>
<path fill="none" stroke="black" d="M737.3,-25.47C752.55,-24.55 763.29,-22.06 763.29,-18 763.29,-14.92 757.12,-12.75 747.5,-11.47"/>
<polygon fill="black" stroke="black" points="747.58,-7.97 737.3,-10.53 746.94,-14.94 747.58,-7.97"/>
<text text-anchor="middle" x="778.79" y="-14.3" font-family="Times New Roman,serif" font-size="14.00">0.213</text>
</g>
<!-- 1 -->
<g id="node2" class="node">
<title>1</title>
<g id="a_node2"><a xlink:href="to_it consultant.svg" xlink:title="it consultant">
<ellipse fill="none" stroke="black" cx="54.6" cy="-105" rx="54.69" ry="18"/>
<text text-anchor="middle" x="54.6" y="-101.3" font-family="Times New Roman,serif" font-size="14.00">it consultant</text>
</a>
</g>
</g>
<!-- 1&#45;&gt;0 -->
<g id="edge2" class="edge">
<title>1&#45;&gt;0</title>
<path fill="none" stroke="black" d="M94.73,-92.66C102.61,-90.63 110.83,-88.64 118.6,-87 272.69,-54.46 455.17,-35.38 562.83,-26.09"/>
<polygon fill="black" stroke="black" points="563.35,-29.55 573.02,-25.22 562.75,-22.58 563.35,-29.55"/>
<text text-anchor="middle" x="325.1" y="-57.8" font-family="Times New Roman,serif" font-size="14.00">0.106</text>
</g>
<!-- 2 -->
<g id="node3" class="node">
<title>2</title>
<g id="a_node3"><a xlink:href="to_careers adviser.svg" xlink:title="careers adviser">
<ellipse fill="none" stroke="black" cx="192.6" cy="-105" rx="64.99" ry="18"/>
<text text-anchor="middle" x="192.6" y="-101.3" font-family="Times New Roman,serif" font-size="14.00">careers adviser</text>
</a>
</g>
</g>
<!-- 2&#45;&gt;0 -->
<g id="edge3" class="edge">
<title>2&#45;&gt;0</title>
<path fill="none" stroke="black" d="M240.28,-92.66C249.02,-90.69 258.07,-88.72 266.6,-87 373.84,-65.32 498.54,-44.25 577.26,-31.45"/>
<polygon fill="black" stroke="black" points="578.27,-34.83 587.58,-29.77 577.15,-27.92 578.27,-34.83"/>
<text text-anchor="middle" x="453.1" y="-57.8" font-family="Times New Roman,serif" font-size="14.00">0.030</text>
</g>
<!-- 3 -->
<g id="node4" class="node">
<title>3</title>
<g id="a_node4"><a xlink:href="to_pharmacovigilance officer.svg" xlink:title="pharmacovigilance officer">
<ellipse fill="none" stroke="black" cx="380.6" cy="-105" rx="104.78" ry="18"/>
<text text-anchor="middle" x="380.6" y="-101.3" font-family="Times New Roman,serif" font-size="14.00">pharmacovigilance officer</text>
</a>
</g>
</g>
<!-- 3&#45;&gt;0 -->
<g id="edge4" class="edge">
<title>3&#45;&gt;0</title>
<path fill="none" stroke="black" d="M429.13,-89C476.69,-74.3 549.13,-51.91 599.22,-36.43"/>
<polygon fill="black" stroke="black" points="600.4,-39.72 608.92,-33.43 598.34,-33.03 600.4,-39.72"/>
<text text-anchor="middle" x="550.1" y="-57.8" font-family="Times New Roman,serif" font-size="14.00">0.030</text>
</g>
<!-- 4 -->
<g id="node5" class="node">
<title>4</title>
<g id="a_node5"><a xlink:href="to_qa analyst.svg" xlink:title="qa analyst">
<ellipse fill="none" stroke="black" cx="549.6" cy="-105" rx="46.59" ry="18"/>
<text text-anchor="middle" x="549.6" y="-101.3" font-family="Times New Roman,serif" font-size="14.00">qa analyst</text>
</a>
</g>
</g>
<!-- 4&#45;&gt;0 -->
<g id="edge5" class="edge">
<title>4&#45;&gt;0</title>
<path fill="none" stroke="black" d="M569.04,-88.41C585.21,-75.44 608.46,-56.8 626.79,-42.1"/>
<polygon fill="black" stroke="black" points="629.21,-44.64 634.83,-35.65 624.84,-39.18 629.21,-44.64"/>
<text text-anchor="middle" x="625.1" y="-57.8" font-family="Times New Roman,serif" font-size="14.00">0.030</text>
</g>
<!-- 5 -->
<g id="node6" class="node">
<title>5</title>
<g id="a_node6"><a xlink:href="to_architect.svg" xlink:title="architect">
<ellipse fill="none" stroke="black" cx="655.6" cy="-105" rx="41.69" ry="18"/>
<text text-anchor="middle" x="655.6" y="-101.3" font-family="Times New Roman,serif" font-size="14.00">architect</text>
</a>
</g>
</g>
<!-- 5&#45;&gt;0 -->
<g id="edge6" class="edge">
<title>5&#45;&gt;0</title>
<path fill="none" stroke="black" d="M655.6,-86.8C655.6,-75.16 655.6,-59.55 655.6,-46.24"/>
<polygon fill="black" stroke="black" points="659.1,-46.18 655.6,-36.18 652.1,-46.18 659.1,-46.18"/>
<text text-anchor="middle" x="671.1" y="-57.8" font-family="Times New Roman,serif" font-size="14.00">0.022</text>
</g>
<!-- 6 -->
<g id="node7" class="node">
<title>6</title>
<g id="a_node7"><a xlink:href="to_financial manager.svg" xlink:title="financial manager">
<ellipse fill="none" stroke="black" cx="788.6" cy="-105" rx="73.39" ry="18"/>
<text text-anchor="middle" x="788.6" y="-101.3" font-family="Times New Roman,serif" font-size="14.00">financial manager</text>
</a>
</g>
</g>
<!-- 6&#45;&gt;0 -->
<g id="edge7" class="edge">
<title>6&#45;&gt;0</title>
<path fill="none" stroke="black" d="M763.58,-88.01C742.76,-74.71 712.91,-55.63 689.87,-40.91"/>
<polygon fill="black" stroke="black" points="691.72,-37.93 681.41,-35.5 687.95,-43.83 691.72,-37.93"/>
<text text-anchor="middle" x="746.1" y="-57.8" font-family="Times New Roman,serif" font-size="14.00">0.022</text>
</g>
<!-- 7 -->
<g id="node8" class="node">
<title>7</title>
<g id="a_node8"><a xlink:href="to_geographical information systems manager.svg" xlink:title="geographical information systems manager">
<ellipse fill="none" stroke="black" cx="1045.6" cy="-105" rx="165.17" ry="18"/>
<text text-anchor="middle" x="1045.6" y="-101.3" font-family="Times New Roman,serif" font-size="14.00">geographical information systems manager</text>
</a>
</g>
</g>
<!-- 7&#45;&gt;0 -->
<g id="edge8" class="edge">
<title>7&#45;&gt;0</title>
<path fill="none" stroke="black" d="M975.42,-88.71C904.25,-73.19 794.8,-49.34 724.2,-33.95"/>
<polygon fill="black" stroke="black" points="724.59,-30.46 714.07,-31.75 723.1,-37.29 724.59,-30.46"/>
<text text-anchor="middle" x="890.1" y="-57.8" font-family="Times New Roman,serif" font-size="14.00">0.022</text>
</g>
<!-- 8 -->
<g id="node9" class="node">
<title>8</title>
<g id="a_node9"><a xlink:href="to_project manager.svg" xlink:title="project manager">
<ellipse fill="none" stroke="black" cx="1297.6" cy="-105" rx="68.79" ry="18"/>
<text text-anchor="middle" x="1297.6" y="-101.3" font-family="Times New Roman,serif" font-size="14.00">project manager</text>
</a>
</g>
</g>
<!-- 8&#45;&gt;0 -->
<g id="edge9" class="edge">
<title>8&#45;&gt;0</title>
<path fill="none" stroke="black" d="M1247.8,-92.41C1238.46,-90.45 1228.75,-88.55 1219.6,-87 1053.38,-58.93 857.71,-38.03 746.01,-27.24"/>
<polygon fill="black" stroke="black" points="746.08,-23.73 735.79,-26.26 745.41,-30.7 746.08,-23.73"/>
<text text-anchor="middle" x="1111.1" y="-57.8" font-family="Times New Roman,serif" font-size="14.00">0.022</text>
</g>
<!-- 9 -->
<g id="node10" class="node">
<title>9</title>
<g id="a_node10"><a xlink:href="to_retail buyer.svg" xlink:title="retail buyer">
<ellipse fill="none" stroke="black" cx="1435.6" cy="-105" rx="50.89" ry="18"/>
<text text-anchor="middle" x="1435.6" y="-101.3" font-family="Times New Roman,serif" font-size="14.00">retail buyer</text>
</a>
</g>
</g>
<!-- 9&#45;&gt;0 -->
<g id="edge10" class="edge">
<title>9&#45;&gt;0</title>
<path fill="none" stroke="black" d="M1398.67,-92.65C1391.09,-90.57 1383.12,-88.56 1375.6,-87 1156.73,-41.5 894.04,-26.39 754.34,-21.42"/>
<polygon fill="black" stroke="black" points="754.2,-17.91 744.09,-21.06 753.96,-24.91 754.2,-17.91"/>
<text text-anchor="middle" x="1274.1" y="-57.8" font-family="Times New Roman,serif" font-size="14.00">0.022</text>
</g>
</g>
</svg>
