<?xml version="1.0" encoding="UTF-8" standalone="no"?>
<!DOCTYPE svg PUBLIC "-//W3C//DTD SVG 1.1//EN"
 "http://www.w3.org/Graphics/SVG/1.1/DTD/svg11.dtd">
<!-- Generated by graphviz version 2.44.1 (20200629.0800)
 -->
<!-- Title: test Pages: 1 -->
<svg width="1413pt" height="131pt"
 viewBox="0.00 0.00 1412.63 131.00" xmlns="http://www.w3.org/2000/svg" xmlns:xlink="http://www.w3.org/1999/xlink">
<g id="graph0" class="graph" transform="scale(1 1) rotate(0) translate(4 127)">
<title>test</title>
<polygon fill="white" stroke="transparent" points="-4,4 -4,-127 1408.63,-127 1408.63,4 -4,4"/>
<!-- 0 -->
<g id="node1" class="node">
<title>0</title>
<g id="a_node1"><a xlink:href="to_accountant.svg" xlink:title="accountant">
<ellipse fill="none" stroke="black" cx="626.44" cy="-18" rx="50.09" ry="18"/>
<text text-anchor="middle" x="626.44" y="-14.3" font-family="Times New Roman,serif" font-size="14.00">accountant</text>
</a>
</g>
</g>
<!-- 0&#45;&gt;0 -->
<g id="edge1" class="edge">
<title>0&#45;&gt;0</title>
<path fill="none" stroke="black" d="M671.59,-25.84C684.52,-25.54 694.49,-22.92 694.49,-18 694.49,-14.46 689.34,-12.12 681.64,-10.96"/>
<polygon fill="black" stroke="black" points="681.84,-7.47 671.59,-10.16 681.28,-14.45 681.84,-7.47"/>
<text text-anchor="middle" x="709.99" y="-14.3" font-family="Times New Roman,serif" font-size="14.00">0.390</text>
</g>
<!-- 1 -->
<g id="node2" class="node">
<title>1</title>
<g id="a_node2"><a xlink:href="to_financial manager.svg" xlink:title="financial manager">
<ellipse fill="none" stroke="black" cx="73.44" cy="-105" rx="73.39" ry="18"/>
<text text-anchor="middle" x="73.44" y="-101.3" font-family="Times New Roman,serif" font-size="14.00">financial manager</text>
</a>
</g>
</g>
<!-- 1&#45;&gt;0 -->
<g id="edge2" class="edge">
<title>1&#45;&gt;0</title>
<path fill="none" stroke="black" d="M120.2,-90.99C162.52,-79.67 226.72,-63.6 283.44,-54 382.38,-37.25 498.83,-27.43 567.43,-22.64"/>
<polygon fill="black" stroke="black" points="567.87,-26.12 577.61,-21.95 567.39,-19.14 567.87,-26.12"/>
<text text-anchor="middle" x="298.94" y="-57.8" font-family="Times New Roman,serif" font-size="14.00">0.078</text>
</g>
<!-- 2 -->
<g id="node3" class="node">
<title>2</title>
<g id="a_node3"><a xlink:href="to_auditor.svg" xlink:title="auditor">
<ellipse fill="none" stroke="black" cx="201.44" cy="-105" rx="36.29" ry="18"/>
<text text-anchor="middle" x="201.44" y="-101.3" font-family="Times New Roman,serif" font-size="14.00">auditor</text>
</a>
</g>
</g>
<!-- 2&#45;&gt;0 -->
<g id="edge3" class="edge">
<title>2&#45;&gt;0</title>
<path fill="none" stroke="black" d="M228.81,-92.86C234.58,-90.74 240.67,-88.67 246.44,-87 358.52,-54.64 493.87,-34.85 569.02,-25.49"/>
<polygon fill="black" stroke="black" points="569.72,-28.93 579.22,-24.24 568.87,-21.99 569.72,-28.93"/>
<text text-anchor="middle" x="396.94" y="-57.8" font-family="Times New Roman,serif" font-size="14.00">0.036</text>
</g>
<!-- 3 -->
<g id="node4" class="node">
<title>3</title>
<g id="a_node4"><a xlink:href="to_it consultant.svg" xlink:title="it consultant">
<ellipse fill="none" stroke="black" cx="310.44" cy="-105" rx="54.69" ry="18"/>
<text text-anchor="middle" x="310.44" y="-101.3" font-family="Times New Roman,serif" font-size="14.00">it consultant</text>
</a>
</g>
</g>
<!-- 3&#45;&gt;0 -->
<g id="edge4" class="edge">
<title>3&#45;&gt;0</title>
<path fill="none" stroke="black" d="M351.45,-92.93C358.77,-90.95 366.33,-88.91 373.44,-87 444.47,-67.87 526.72,-45.78 577.67,-32.09"/>
<polygon fill="black" stroke="black" points="578.68,-35.45 587.43,-29.47 576.87,-28.69 578.68,-35.45"/>
<text text-anchor="middle" x="506.94" y="-57.8" font-family="Times New Roman,serif" font-size="14.00">0.031</text>
</g>
<!-- 4 -->
<g id="node5" class="node">
<title>4</title>
<g id="a_node5"><a xlink:href="to_personal assistant.svg" xlink:title="personal assistant">
<ellipse fill="none" stroke="black" cx="457.44" cy="-105" rx="74.99" ry="18"/>
<text text-anchor="middle" x="457.44" y="-101.3" font-family="Times New Roman,serif" font-size="14.00">personal assistant</text>
</a>
</g>
</g>
<!-- 4&#45;&gt;0 -->
<g id="edge5" class="edge">
<title>4&#45;&gt;0</title>
<path fill="none" stroke="black" d="M488.44,-88.41C516.94,-74.08 559.23,-52.81 589.48,-37.59"/>
<polygon fill="black" stroke="black" points="591.09,-40.7 598.45,-33.08 587.94,-34.45 591.09,-40.7"/>
<text text-anchor="middle" x="567.94" y="-57.8" font-family="Times New Roman,serif" font-size="14.00">0.031</text>
</g>
<!-- 5 -->
<g id="node6" class="node">
<title>5</title>
<g id="a_node6"><a xlink:href="to_investment analyst.svg" xlink:title="investment analyst">
<ellipse fill="none" stroke="black" cx="626.44" cy="-105" rx="76.89" ry="18"/>
<text text-anchor="middle" x="626.44" y="-101.3" font-family="Times New Roman,serif" font-size="14.00">investment analyst</text>
</a>
</g>
</g>
<!-- 5&#45;&gt;0 -->
<g id="edge6" class="edge">
<title>5&#45;&gt;0</title>
<path fill="none" stroke="black" d="M626.44,-86.8C626.44,-75.16 626.44,-59.55 626.44,-46.24"/>
<polygon fill="black" stroke="black" points="629.94,-46.18 626.44,-36.18 622.94,-46.18 629.94,-46.18"/>
<text text-anchor="middle" x="641.94" y="-57.8" font-family="Times New Roman,serif" font-size="14.00">0.026</text>
</g>
<!-- 6 -->
<g id="node7" class="node">
<title>6</title>
<g id="a_node7"><a xlink:href="to_project manager.svg" xlink:title="project manager">
<ellipse fill="none" stroke="black" cx="790.44" cy="-105" rx="68.79" ry="18"/>
<text text-anchor="middle" x="790.44" y="-101.3" font-family="Times New Roman,serif" font-size="14.00">project manager</text>
</a>
</g>
</g>
<!-- 6&#45;&gt;0 -->
<g id="edge7" class="edge">
<title>6&#45;&gt;0</title>
<path fill="none" stroke="black" d="M760.74,-88.61C733.26,-74.36 692.32,-53.14 662.87,-37.88"/>
<polygon fill="black" stroke="black" points="664.23,-34.64 653.74,-33.15 661.01,-40.86 664.23,-34.64"/>
<text text-anchor="middle" x="733.94" y="-57.8" font-family="Times New Roman,serif" font-size="14.00">0.026</text>
</g>
<!-- 7 -->
<g id="node8" class="node">
<title>7</title>
<g id="a_node8"><a xlink:href="to_qa analyst.svg" xlink:title="qa analyst">
<ellipse fill="none" stroke="black" cx="924.44" cy="-105" rx="46.59" ry="18"/>
<text text-anchor="middle" x="924.44" y="-101.3" font-family="Times New Roman,serif" font-size="14.00">qa analyst</text>
</a>
</g>
</g>
<!-- 7&#45;&gt;0 -->
<g id="edge8" class="edge">
<title>7&#45;&gt;0</title>
<path fill="none" stroke="black" d="M888.92,-93.13C882.13,-91.07 875.07,-88.96 868.44,-87 801.48,-67.23 723.71,-45.61 674.78,-32.18"/>
<polygon fill="black" stroke="black" points="675.66,-28.79 665.09,-29.52 673.81,-35.54 675.66,-28.79"/>
<text text-anchor="middle" x="817.94" y="-57.8" font-family="Times New Roman,serif" font-size="14.00">0.020</text>
</g>
<!-- 8 -->
<g id="node9" class="node">
<title>8</title>
<g id="a_node9"><a xlink:href="to_civil service administrator.svg" xlink:title="civil service administrator">
<ellipse fill="none" stroke="black" cx="1091.44" cy="-105" rx="102.88" ry="18"/>
<text text-anchor="middle" x="1091.44" y="-101.3" font-family="Times New Roman,serif" font-size="14.00">civil service administrator</text>
</a>
</g>
</g>
<!-- 8&#45;&gt;0 -->
<g id="edge9" class="edge">
<title>8&#45;&gt;0</title>
<path fill="none" stroke="black" d="M1027.61,-90.88C976.3,-80.47 902.34,-65.77 837.44,-54 784.51,-44.4 723.91,-34.46 681.27,-27.63"/>
<polygon fill="black" stroke="black" points="681.8,-24.17 671.38,-26.05 680.7,-31.09 681.8,-24.17"/>
<text text-anchor="middle" x="928.94" y="-57.8" font-family="Times New Roman,serif" font-size="14.00">0.015</text>
</g>
<!-- 9 -->
<g id="node10" class="node">
<title>9</title>
<g id="a_node10"><a xlink:href="to_computer sales support.svg" xlink:title="computer sales support">
<ellipse fill="none" stroke="black" cx="1308.44" cy="-105" rx="96.38" ry="18"/>
<text text-anchor="middle" x="1308.44" y="-101.3" font-family="Times New Roman,serif" font-size="14.00">computer sales support</text>
</a>
</g>
</g>
<!-- 9&#45;&gt;0 -->
<g id="edge10" class="edge">
<title>9&#45;&gt;0</title>
<path fill="none" stroke="black" d="M1239.3,-92.49C1227.35,-90.59 1215.05,-88.69 1203.44,-87 1013.87,-59.39 788,-35.32 684.03,-24.73"/>
<polygon fill="black" stroke="black" points="684.36,-21.25 674.05,-23.72 683.65,-28.21 684.36,-21.25"/>
<text text-anchor="middle" x="1075.94" y="-57.8" font-family="Times New Roman,serif" font-size="14.00">0.015</text>
</g>
</g>
</svg>
