<?xml version="1.0" encoding="UTF-8" standalone="no"?>
<!DOCTYPE svg PUBLIC "-//W3C//DTD SVG 1.1//EN"
 "http://www.w3.org/Graphics/SVG/1.1/DTD/svg11.dtd">
<!-- Generated by graphviz version 2.44.1 (20200629.0800)
 -->
<!-- Title: automotive_engineer Pages: 1 -->
<svg width="1555pt" height="131pt"
 viewBox="0.00 0.00 1555.09 131.00" xmlns="http://www.w3.org/2000/svg" xmlns:xlink="http://www.w3.org/1999/xlink">
<g id="graph0" class="graph" transform="scale(1 1) rotate(0) translate(4 127)">
<title>automotive_engineer</title>
<polygon fill="white" stroke="transparent" points="-4,4 -4,-127 1551.09,-127 1551.09,4 -4,4"/>
<!-- 0 -->
<g id="node1" class="node">
<title>0</title>
<g id="a_node1"><a xlink:href="to_automotive engineer.svg" xlink:title="automotive engineer">
<ellipse fill="none" stroke="black" cx="798.14" cy="-18" rx="83.39" ry="18"/>
<text text-anchor="middle" x="798.14" y="-14.3" font-family="Times New Roman,serif" font-size="14.00">automotive engineer</text>
</a>
</g>
</g>
<!-- 0&#45;&gt;0 -->
<g id="edge1" class="edge">
<title>0&#45;&gt;0</title>
<path fill="none" stroke="black" d="M874.05,-25.52C888.83,-24.65 899.34,-22.14 899.34,-18 899.34,-14.89 893.43,-12.71 884.24,-11.44"/>
<polygon fill="black" stroke="black" points="884.33,-7.93 874.05,-10.48 883.67,-14.9 884.33,-7.93"/>
<text text-anchor="middle" x="914.84" y="-14.3" font-family="Times New Roman,serif" font-size="14.00">0.147</text>
</g>
<!-- 1 -->
<g id="node2" class="node">
<title>1</title>
<g id="a_node2"><a xlink:href="to_armed forces officer.svg" xlink:title="armed forces officer">
<ellipse fill="none" stroke="black" cx="85.14" cy="-105" rx="85.29" ry="18"/>
<text text-anchor="middle" x="85.14" y="-101.3" font-family="Times New Roman,serif" font-size="14.00">armed forces officer</text>
</a>
</g>
</g>
<!-- 1&#45;&gt;0 -->
<g id="edge2" class="edge">
<title>1&#45;&gt;0</title>
<path fill="none" stroke="black" d="M146.51,-92.49C157.37,-90.57 168.58,-88.67 179.14,-87 287.67,-69.89 314.98,-66.45 424.14,-54 522.58,-42.77 635.91,-32.54 711.78,-26.08"/>
<polygon fill="black" stroke="black" points="712.1,-29.57 721.76,-25.23 711.5,-22.59 712.1,-29.57"/>
<text text-anchor="middle" x="439.64" y="-57.8" font-family="Times New Roman,serif" font-size="14.00">0.058</text>
</g>
<!-- 2 -->
<g id="node3" class="node">
<title>2</title>
<g id="a_node3"><a xlink:href="to_electrical engineer.svg" xlink:title="electrical engineer">
<ellipse fill="none" stroke="black" cx="263.14" cy="-105" rx="74.99" ry="18"/>
<text text-anchor="middle" x="263.14" y="-101.3" font-family="Times New Roman,serif" font-size="14.00">electrical engineer</text>
</a>
</g>
</g>
<!-- 2&#45;&gt;0 -->
<g id="edge3" class="edge">
<title>2&#45;&gt;0</title>
<path fill="none" stroke="black" d="M317.74,-92.54C327.52,-90.6 337.62,-88.68 347.14,-87 477.23,-64.04 629.29,-42.13 719.44,-29.65"/>
<polygon fill="black" stroke="black" points="720.16,-33.08 729.59,-28.25 719.2,-26.15 720.16,-33.08"/>
<text text-anchor="middle" x="560.64" y="-57.8" font-family="Times New Roman,serif" font-size="14.00">0.058</text>
</g>
<!-- 3 -->
<g id="node4" class="node">
<title>3</title>
<g id="a_node4"><a xlink:href="to_manufacturing engineer.svg" xlink:title="manufacturing engineer">
<ellipse fill="none" stroke="black" cx="450.14" cy="-105" rx="94.48" ry="18"/>
<text text-anchor="middle" x="450.14" y="-101.3" font-family="Times New Roman,serif" font-size="14.00">manufacturing engineer</text>
</a>
</g>
</g>
<!-- 3&#45;&gt;0 -->
<g id="edge4" class="edge">
<title>3&#45;&gt;0</title>
<path fill="none" stroke="black" d="M505.67,-90.44C568.27,-75.15 669.85,-50.34 735.31,-34.35"/>
<polygon fill="black" stroke="black" points="736.21,-37.73 745.1,-31.96 734.55,-30.93 736.21,-37.73"/>
<text text-anchor="middle" x="660.64" y="-57.8" font-family="Times New Roman,serif" font-size="14.00">0.058</text>
</g>
<!-- 4 -->
<g id="node5" class="node">
<title>4</title>
<g id="a_node5"><a xlink:href="to_structural engineer.svg" xlink:title="structural engineer">
<ellipse fill="none" stroke="black" cx="639.14" cy="-105" rx="76.89" ry="18"/>
<text text-anchor="middle" x="639.14" y="-101.3" font-family="Times New Roman,serif" font-size="14.00">structural engineer</text>
</a>
</g>
</g>
<!-- 4&#45;&gt;0 -->
<g id="edge5" class="edge">
<title>4&#45;&gt;0</title>
<path fill="none" stroke="black" d="M668.68,-88.21C694.25,-74.54 731.44,-54.66 759.4,-39.71"/>
<polygon fill="black" stroke="black" points="761.33,-42.65 768.5,-34.85 758.03,-36.48 761.33,-42.65"/>
<text text-anchor="middle" x="744.64" y="-57.8" font-family="Times New Roman,serif" font-size="14.00">0.058</text>
</g>
<!-- 5 -->
<g id="node6" class="node">
<title>5</title>
<g id="a_node6"><a xlink:href="to_barristers clerk.svg" xlink:title="barristers clerk">
<ellipse fill="none" stroke="black" cx="798.14" cy="-105" rx="64.19" ry="18"/>
<text text-anchor="middle" x="798.14" y="-101.3" font-family="Times New Roman,serif" font-size="14.00">barristers clerk</text>
</a>
</g>
</g>
<!-- 5&#45;&gt;0 -->
<g id="edge6" class="edge">
<title>5&#45;&gt;0</title>
<path fill="none" stroke="black" d="M798.14,-86.8C798.14,-75.16 798.14,-59.55 798.14,-46.24"/>
<polygon fill="black" stroke="black" points="801.64,-46.18 798.14,-36.18 794.64,-46.18 801.64,-46.18"/>
<text text-anchor="middle" x="813.64" y="-57.8" font-family="Times New Roman,serif" font-size="14.00">0.029</text>
</g>
<!-- 6 -->
<g id="node7" class="node">
<title>6</title>
<g id="a_node7"><a xlink:href="to_civil engineer.svg" xlink:title="civil engineer">
<ellipse fill="none" stroke="black" cx="938.14" cy="-105" rx="57.69" ry="18"/>
<text text-anchor="middle" x="938.14" y="-101.3" font-family="Times New Roman,serif" font-size="14.00">civil engineer</text>
</a>
</g>
</g>
<!-- 6&#45;&gt;0 -->
<g id="edge7" class="edge">
<title>6&#45;&gt;0</title>
<path fill="none" stroke="black" d="M912.79,-88.61C890.61,-75.14 858.18,-55.45 833.46,-40.44"/>
<polygon fill="black" stroke="black" points="835.1,-37.34 824.74,-35.15 831.47,-43.33 835.1,-37.34"/>
<text text-anchor="middle" x="892.64" y="-57.8" font-family="Times New Roman,serif" font-size="14.00">0.029</text>
</g>
<!-- 7 -->
<g id="node8" class="node">
<title>7</title>
<g id="a_node8"><a xlink:href="to_civil service administrator.svg" xlink:title="civil service administrator">
<ellipse fill="none" stroke="black" cx="1117.14" cy="-105" rx="102.88" ry="18"/>
<text text-anchor="middle" x="1117.14" y="-101.3" font-family="Times New Roman,serif" font-size="14.00">civil service administrator</text>
</a>
</g>
</g>
<!-- 7&#45;&gt;0 -->
<g id="edge8" class="edge">
<title>7&#45;&gt;0</title>
<path fill="none" stroke="black" d="M1063.03,-89.58C1006.23,-74.45 917.17,-50.71 858.22,-35.01"/>
<polygon fill="black" stroke="black" points="858.87,-31.56 848.31,-32.37 857.07,-38.32 858.87,-31.56"/>
<text text-anchor="middle" x="992.64" y="-57.8" font-family="Times New Roman,serif" font-size="14.00">0.029</text>
</g>
<!-- 8 -->
<g id="node9" class="node">
<title>8</title>
<g id="a_node9"><a xlink:href="to_commodity broker.svg" xlink:title="commodity broker">
<ellipse fill="none" stroke="black" cx="1316.14" cy="-105" rx="78.79" ry="18"/>
<text text-anchor="middle" x="1316.14" y="-101.3" font-family="Times New Roman,serif" font-size="14.00">commodity broker</text>
</a>
</g>
</g>
<!-- 8&#45;&gt;0 -->
<g id="edge9" class="edge">
<title>8&#45;&gt;0</title>
<path fill="none" stroke="black" d="M1259.1,-92.55C1249.13,-90.63 1238.84,-88.71 1229.14,-87 1105.54,-65.18 961.39,-43.12 875.07,-30.27"/>
<polygon fill="black" stroke="black" points="875.49,-26.8 865.09,-28.79 874.47,-33.72 875.49,-26.8"/>
<text text-anchor="middle" x="1137.64" y="-57.8" font-family="Times New Roman,serif" font-size="14.00">0.029</text>
</g>
<!-- 9 -->
<g id="node10" class="node">
<title>9</title>
<g id="a_node10"><a xlink:href="to_fisheries officer.svg" xlink:title="fisheries officer">
<ellipse fill="none" stroke="black" cx="1480.14" cy="-105" rx="66.89" ry="18"/>
<text text-anchor="middle" x="1480.14" y="-101.3" font-family="Times New Roman,serif" font-size="14.00">fisheries officer</text>
</a>
</g>
</g>
<!-- 9&#45;&gt;0 -->
<g id="edge10" class="edge">
<title>9&#45;&gt;0</title>
<path fill="none" stroke="black" d="M1431.62,-92.48C1422.52,-90.51 1413.06,-88.59 1404.14,-87 1221.34,-54.41 1004.58,-34.56 886.19,-25.29"/>
<polygon fill="black" stroke="black" points="886.33,-21.79 876.09,-24.5 885.79,-28.77 886.33,-21.79"/>
<text text-anchor="middle" x="1303.64" y="-57.8" font-family="Times New Roman,serif" font-size="14.00">0.029</text>
</g>
</g>
</svg>
