<?xml version="1.0" encoding="UTF-8" standalone="no"?>
<!DOCTYPE svg PUBLIC "-//W3C//DTD SVG 1.1//EN"
 "http://www.w3.org/Graphics/SVG/1.1/DTD/svg11.dtd">
<!-- Generated by graphviz version 2.44.1 (20200629.0800)
 -->
<!-- Title: academic_librarian Pages: 1 -->
<svg width="1449pt" height="131pt"
 viewBox="0.00 0.00 1448.89 131.00" xmlns="http://www.w3.org/2000/svg" xmlns:xlink="http://www.w3.org/1999/xlink">
<g id="graph0" class="graph" transform="scale(1 1) rotate(0) translate(4 127)">
<title>academic_librarian</title>
<polygon fill="white" stroke="transparent" points="-4,4 -4,-127 1444.89,-127 1444.89,4 -4,4"/>
<!-- 0 -->
<g id="node1" class="node">
<title>0</title>
<g id="a_node1"><a xlink:href="to_academic librarian.svg" xlink:title="academic librarian">
<ellipse fill="none" stroke="black" cx="641.7" cy="-18" rx="76.09" ry="18"/>
<text text-anchor="middle" x="641.7" y="-14.3" font-family="Times New Roman,serif" font-size="14.00">academic librarian</text>
</a>
</g>
</g>
<!-- 0&#45;&gt;0 -->
<g id="edge1" class="edge">
<title>0&#45;&gt;0</title>
<path fill="none" stroke="black" d="M711,-25.6C725.39,-24.8 735.74,-22.27 735.74,-18 735.74,-14.83 730.04,-12.62 721.22,-11.37"/>
<polygon fill="black" stroke="black" points="721.29,-7.86 711,-10.4 720.63,-14.83 721.29,-7.86"/>
<text text-anchor="middle" x="751.24" y="-14.3" font-family="Times New Roman,serif" font-size="14.00">0.142</text>
</g>
<!-- 1 -->
<g id="node2" class="node">
<title>1</title>
<g id="a_node2"><a xlink:href="to_lecturer.svg" xlink:title="lecturer">
<ellipse fill="none" stroke="black" cx="37.7" cy="-105" rx="37.89" ry="18"/>
<text text-anchor="middle" x="37.7" y="-101.3" font-family="Times New Roman,serif" font-size="14.00">lecturer</text>
</a>
</g>
</g>
<!-- 1&#45;&gt;0 -->
<g id="edge2" class="edge">
<title>1&#45;&gt;0</title>
<path fill="none" stroke="black" d="M65.62,-92.62C71.52,-90.52 77.76,-88.51 83.7,-87 248.32,-45.11 447.05,-28.75 557.4,-22.56"/>
<polygon fill="black" stroke="black" points="557.68,-26.05 567.47,-22.01 557.3,-19.06 557.68,-26.05"/>
<text text-anchor="middle" x="251.2" y="-57.8" font-family="Times New Roman,serif" font-size="14.00">0.065</text>
</g>
<!-- 2 -->
<g id="node3" class="node">
<title>2</title>
<g id="a_node3"><a xlink:href="to_research scientist.svg" xlink:title="research scientist">
<ellipse fill="none" stroke="black" cx="165.7" cy="-105" rx="72.59" ry="18"/>
<text text-anchor="middle" x="165.7" y="-101.3" font-family="Times New Roman,serif" font-size="14.00">research scientist</text>
</a>
</g>
</g>
<!-- 2&#45;&gt;0 -->
<g id="edge3" class="edge">
<title>2&#45;&gt;0</title>
<path fill="none" stroke="black" d="M219.03,-92.72C228.56,-90.77 238.42,-88.79 247.7,-87 360.06,-65.34 491.09,-43.38 570.15,-30.48"/>
<polygon fill="black" stroke="black" points="571.17,-33.86 580.48,-28.8 570.05,-26.96 571.17,-33.86"/>
<text text-anchor="middle" x="436.2" y="-57.8" font-family="Times New Roman,serif" font-size="14.00">0.065</text>
</g>
<!-- 3 -->
<g id="node4" class="node">
<title>3</title>
<g id="a_node4"><a xlink:href="to_teaching assistant.svg" xlink:title="teaching assistant">
<ellipse fill="none" stroke="black" cx="329.7" cy="-105" rx="73.39" ry="18"/>
<text text-anchor="middle" x="329.7" y="-101.3" font-family="Times New Roman,serif" font-size="14.00">teaching assistant</text>
</a>
</g>
</g>
<!-- 3&#45;&gt;0 -->
<g id="edge4" class="edge">
<title>3&#45;&gt;0</title>
<path fill="none" stroke="black" d="M377.08,-91.09C432.52,-75.99 524.28,-50.99 583.86,-34.76"/>
<polygon fill="black" stroke="black" points="585.14,-38.04 593.86,-32.03 583.3,-31.28 585.14,-38.04"/>
<text text-anchor="middle" x="520.2" y="-57.8" font-family="Times New Roman,serif" font-size="14.00">0.065</text>
</g>
<!-- 4 -->
<g id="node5" class="node">
<title>4</title>
<g id="a_node5"><a xlink:href="to_project manager.svg" xlink:title="project manager">
<ellipse fill="none" stroke="black" cx="489.7" cy="-105" rx="68.79" ry="18"/>
<text text-anchor="middle" x="489.7" y="-101.3" font-family="Times New Roman,serif" font-size="14.00">project manager</text>
</a>
</g>
</g>
<!-- 4&#45;&gt;0 -->
<g id="edge5" class="edge">
<title>4&#45;&gt;0</title>
<path fill="none" stroke="black" d="M517.58,-88.41C542.06,-74.72 577.87,-54.69 604.74,-39.67"/>
<polygon fill="black" stroke="black" points="606.46,-42.71 613.48,-34.78 603.04,-36.61 606.46,-42.71"/>
<text text-anchor="middle" x="591.2" y="-57.8" font-family="Times New Roman,serif" font-size="14.00">0.035</text>
</g>
<!-- 5 -->
<g id="node6" class="node">
<title>5</title>
<g id="a_node6"><a xlink:href="to_careers adviser.svg" xlink:title="careers adviser">
<ellipse fill="none" stroke="black" cx="641.7" cy="-105" rx="64.99" ry="18"/>
<text text-anchor="middle" x="641.7" y="-101.3" font-family="Times New Roman,serif" font-size="14.00">careers adviser</text>
</a>
</g>
</g>
<!-- 5&#45;&gt;0 -->
<g id="edge6" class="edge">
<title>5&#45;&gt;0</title>
<path fill="none" stroke="black" d="M641.7,-86.8C641.7,-75.16 641.7,-59.55 641.7,-46.24"/>
<polygon fill="black" stroke="black" points="645.2,-46.18 641.7,-36.18 638.2,-46.18 645.2,-46.18"/>
<text text-anchor="middle" x="657.2" y="-57.8" font-family="Times New Roman,serif" font-size="14.00">0.029</text>
</g>
<!-- 6 -->
<g id="node7" class="node">
<title>6</title>
<g id="a_node7"><a xlink:href="to_education administrator.svg" xlink:title="education administrator">
<ellipse fill="none" stroke="black" cx="820.7" cy="-105" rx="95.58" ry="18"/>
<text text-anchor="middle" x="820.7" y="-101.3" font-family="Times New Roman,serif" font-size="14.00">education administrator</text>
</a>
</g>
</g>
<!-- 6&#45;&gt;0 -->
<g id="edge7" class="edge">
<title>6&#45;&gt;0</title>
<path fill="none" stroke="black" d="M787.03,-88.01C757.66,-74.07 714.93,-53.78 683.41,-38.81"/>
<polygon fill="black" stroke="black" points="684.54,-35.47 674.01,-34.34 681.54,-41.79 684.54,-35.47"/>
<text text-anchor="middle" x="758.2" y="-57.8" font-family="Times New Roman,serif" font-size="14.00">0.029</text>
</g>
<!-- 7 -->
<g id="node8" class="node">
<title>7</title>
<g id="a_node8"><a xlink:href="to_government research officer.svg" xlink:title="government research officer">
<ellipse fill="none" stroke="black" cx="1046.7" cy="-105" rx="112.38" ry="18"/>
<text text-anchor="middle" x="1046.7" y="-101.3" font-family="Times New Roman,serif" font-size="14.00">government research officer</text>
</a>
</g>
</g>
<!-- 7&#45;&gt;0 -->
<g id="edge8" class="edge">
<title>7&#45;&gt;0</title>
<path fill="none" stroke="black" d="M981.18,-90.25C905.54,-74.38 781.92,-48.43 706.57,-32.61"/>
<polygon fill="black" stroke="black" points="707.22,-29.18 696.72,-30.55 705.78,-36.03 707.22,-29.18"/>
<text text-anchor="middle" x="884.2" y="-57.8" font-family="Times New Roman,serif" font-size="14.00">0.029</text>
</g>
<!-- 8 -->
<g id="node9" class="node">
<title>8</title>
<g id="a_node9"><a xlink:href="to_librarian.svg" xlink:title="librarian">
<ellipse fill="none" stroke="black" cx="1216.7" cy="-105" rx="39.79" ry="18"/>
<text text-anchor="middle" x="1216.7" y="-101.3" font-family="Times New Roman,serif" font-size="14.00">librarian</text>
</a>
</g>
</g>
<!-- 8&#45;&gt;0 -->
<g id="edge9" class="edge">
<title>8&#45;&gt;0</title>
<path fill="none" stroke="black" d="M1187.45,-92.76C1181.01,-90.59 1174.18,-88.53 1167.7,-87 1013.3,-50.64 828.52,-32.43 724.16,-24.4"/>
<polygon fill="black" stroke="black" points="724.24,-20.89 714,-23.63 723.71,-27.87 724.24,-20.89"/>
<text text-anchor="middle" x="1083.2" y="-57.8" font-family="Times New Roman,serif" font-size="14.00">0.029</text>
</g>
<!-- 9 -->
<g id="node10" class="node">
<title>9</title>
<g id="a_node10"><a xlink:href="to_mechanical engineer.svg" xlink:title="mechanical engineer">
<ellipse fill="none" stroke="black" cx="1357.7" cy="-105" rx="83.39" ry="18"/>
<text text-anchor="middle" x="1357.7" y="-101.3" font-family="Times New Roman,serif" font-size="14.00">mechanical engineer</text>
</a>
</g>
</g>
<!-- 9&#45;&gt;0 -->
<g id="edge10" class="edge">
<title>9&#45;&gt;0</title>
<path fill="none" stroke="black" d="M1302.79,-91.29C1251.36,-79.84 1172.21,-63.42 1102.7,-54 971.98,-36.29 819.12,-26.89 726.4,-22.44"/>
<polygon fill="black" stroke="black" points="726.39,-18.93 716.23,-21.95 726.06,-25.92 726.39,-18.93"/>
<text text-anchor="middle" x="1202.2" y="-57.8" font-family="Times New Roman,serif" font-size="14.00">0.017</text>
</g>
</g>
</svg>
