<?xml version="1.0" encoding="UTF-8" standalone="no"?>
<!DOCTYPE svg PUBLIC "-//W3C//DTD SVG 1.1//EN"
 "http://www.w3.org/Graphics/SVG/1.1/DTD/svg11.dtd">
<!-- Generated by graphviz version 2.44.1 (20200629.0800)
 -->
<!-- Title: test Pages: 1 -->
<svg width="1566pt" height="131pt"
 viewBox="0.00 0.00 1566.04 131.00" xmlns="http://www.w3.org/2000/svg" xmlns:xlink="http://www.w3.org/1999/xlink">
<g id="graph0" class="graph" transform="scale(1 1) rotate(0) translate(4 127)">
<title>test</title>
<polygon fill="white" stroke="transparent" points="-4,4 -4,-127 1562.04,-127 1562.04,4 -4,4"/>
<!-- 0 -->
<g id="node1" class="node">
<title>0</title>
<g id="a_node1"><a xlink:href="to_armed forces officer.svg" xlink:title="armed forces officer">
<ellipse fill="none" stroke="black" cx="833.64" cy="-18" rx="85.29" ry="18"/>
<text text-anchor="middle" x="833.64" y="-14.3" font-family="Times New Roman,serif" font-size="14.00">armed forces officer</text>
</a>
</g>
</g>
<!-- 0&#45;&gt;0 -->
<g id="edge1" class="edge">
<title>0&#45;&gt;0</title>
<path fill="none" stroke="black" d="M911.01,-25.52C926.08,-24.65 936.78,-22.14 936.78,-18 936.78,-14.86 930.64,-12.66 921.1,-11.4"/>
<polygon fill="black" stroke="black" points="921.29,-7.9 911.01,-10.48 920.65,-14.87 921.29,-7.9"/>
<text text-anchor="middle" x="952.28" y="-14.3" font-family="Times New Roman,serif" font-size="14.00">0.118</text>
</g>
<!-- 1 -->
<g id="node2" class="node">
<title>1</title>
<g id="a_node2"><a xlink:href="to_pharmacovigilance officer.svg" xlink:title="pharmacovigilance officer">
<ellipse fill="none" stroke="black" cx="104.64" cy="-105" rx="104.78" ry="18"/>
<text text-anchor="middle" x="104.64" y="-101.3" font-family="Times New Roman,serif" font-size="14.00">pharmacovigilance officer</text>
</a>
</g>
</g>
<!-- 1&#45;&gt;0 -->
<g id="edge2" class="edge">
<title>1&#45;&gt;0</title>
<path fill="none" stroke="black" d="M176.02,-91.81C242.54,-80.77 344.58,-64.65 433.64,-54 539.84,-41.3 662.43,-31.25 743.61,-25.23"/>
<polygon fill="black" stroke="black" points="744.08,-28.71 753.8,-24.49 743.57,-21.73 744.08,-28.71"/>
<text text-anchor="middle" x="449.14" y="-57.8" font-family="Times New Roman,serif" font-size="14.00">0.101</text>
</g>
<!-- 2 -->
<g id="node3" class="node">
<title>2</title>
<g id="a_node3"><a xlink:href="to_careers adviser.svg" xlink:title="careers adviser">
<ellipse fill="none" stroke="black" cx="292.64" cy="-105" rx="64.99" ry="18"/>
<text text-anchor="middle" x="292.64" y="-101.3" font-family="Times New Roman,serif" font-size="14.00">careers adviser</text>
</a>
</g>
</g>
<!-- 2&#45;&gt;0 -->
<g id="edge3" class="edge">
<title>2&#45;&gt;0</title>
<path fill="none" stroke="black" d="M339.9,-92.6C348.76,-90.62 357.97,-88.66 366.64,-87 500.57,-61.37 657.75,-40.33 751.33,-28.74"/>
<polygon fill="black" stroke="black" points="751.81,-32.2 761.31,-27.51 750.95,-25.26 751.81,-32.2"/>
<text text-anchor="middle" x="574.14" y="-57.8" font-family="Times New Roman,serif" font-size="14.00">0.050</text>
</g>
<!-- 3 -->
<g id="node4" class="node">
<title>3</title>
<g id="a_node4"><a xlink:href="to_project manager.svg" xlink:title="project manager">
<ellipse fill="none" stroke="black" cx="444.64" cy="-105" rx="68.79" ry="18"/>
<text text-anchor="middle" x="444.64" y="-101.3" font-family="Times New Roman,serif" font-size="14.00">project manager</text>
</a>
</g>
</g>
<!-- 3&#45;&gt;0 -->
<g id="edge4" class="edge">
<title>3&#45;&gt;0</title>
<path fill="none" stroke="black" d="M495.9,-92.8C565.4,-77.61 689.65,-50.46 766.52,-33.67"/>
<polygon fill="black" stroke="black" points="767.56,-37.02 776.58,-31.47 766.07,-30.18 767.56,-37.02"/>
<text text-anchor="middle" x="678.14" y="-57.8" font-family="Times New Roman,serif" font-size="14.00">0.050</text>
</g>
<!-- 4 -->
<g id="node5" class="node">
<title>4</title>
<g id="a_node5"><a xlink:href="to_civil service administrator.svg" xlink:title="civil service administrator">
<ellipse fill="none" stroke="black" cx="634.64" cy="-105" rx="102.88" ry="18"/>
<text text-anchor="middle" x="634.64" y="-101.3" font-family="Times New Roman,serif" font-size="14.00">civil service administrator</text>
</a>
</g>
</g>
<!-- 4&#45;&gt;0 -->
<g id="edge5" class="edge">
<title>4&#45;&gt;0</title>
<path fill="none" stroke="black" d="M672.07,-88.01C705,-73.95 753.04,-53.43 788.17,-38.42"/>
<polygon fill="black" stroke="black" points="789.9,-41.49 797.72,-34.34 787.15,-35.05 789.9,-41.49"/>
<text text-anchor="middle" x="762.14" y="-57.8" font-family="Times New Roman,serif" font-size="14.00">0.033</text>
</g>
<!-- 5 -->
<g id="node6" class="node">
<title>5</title>
<g id="a_node6"><a xlink:href="to_materials specialist.svg" xlink:title="materials specialist">
<ellipse fill="none" stroke="black" cx="833.64" cy="-105" rx="77.99" ry="18"/>
<text text-anchor="middle" x="833.64" y="-101.3" font-family="Times New Roman,serif" font-size="14.00">materials specialist</text>
</a>
</g>
</g>
<!-- 5&#45;&gt;0 -->
<g id="edge6" class="edge">
<title>5&#45;&gt;0</title>
<path fill="none" stroke="black" d="M833.64,-86.8C833.64,-75.16 833.64,-59.55 833.64,-46.24"/>
<polygon fill="black" stroke="black" points="837.14,-46.18 833.64,-36.18 830.14,-46.18 837.14,-46.18"/>
<text text-anchor="middle" x="849.14" y="-57.8" font-family="Times New Roman,serif" font-size="14.00">0.033</text>
</g>
<!-- 6 -->
<g id="node7" class="node">
<title>6</title>
<g id="a_node7"><a xlink:href="to_programme researcher.svg" xlink:title="programme researcher">
<ellipse fill="none" stroke="black" cx="1021.64" cy="-105" rx="91.78" ry="18"/>
<text text-anchor="middle" x="1021.64" y="-101.3" font-family="Times New Roman,serif" font-size="14.00">programme researcher</text>
</a>
</g>
</g>
<!-- 6&#45;&gt;0 -->
<g id="edge7" class="edge">
<title>6&#45;&gt;0</title>
<path fill="none" stroke="black" d="M986.72,-88.21C955.89,-74.27 910.8,-53.89 877.54,-38.85"/>
<polygon fill="black" stroke="black" points="878.61,-35.49 868.06,-34.56 875.73,-41.87 878.61,-35.49"/>
<text text-anchor="middle" x="955.14" y="-57.8" font-family="Times New Roman,serif" font-size="14.00">0.033</text>
</g>
<!-- 7 -->
<g id="node8" class="node">
<title>7</title>
<g id="a_node8"><a xlink:href="to_regulatory affairs officer.svg" xlink:title="regulatory affairs officer">
<ellipse fill="none" stroke="black" cx="1229.64" cy="-105" rx="98.28" ry="18"/>
<text text-anchor="middle" x="1229.64" y="-101.3" font-family="Times New Roman,serif" font-size="14.00">regulatory affairs officer</text>
</a>
</g>
</g>
<!-- 7&#45;&gt;0 -->
<g id="edge8" class="edge">
<title>7&#45;&gt;0</title>
<path fill="none" stroke="black" d="M1168.2,-90.81C1095.74,-75.26 975.72,-49.5 900.84,-33.42"/>
<polygon fill="black" stroke="black" points="901.55,-30 891.04,-31.32 900.08,-36.84 901.55,-30"/>
<text text-anchor="middle" x="1071.14" y="-57.8" font-family="Times New Roman,serif" font-size="14.00">0.033</text>
</g>
<!-- 8 -->
<g id="node9" class="node">
<title>8</title>
<g id="a_node9"><a xlink:href="to_sales manager.svg" xlink:title="sales manager">
<ellipse fill="none" stroke="black" cx="1406.64" cy="-105" rx="61.19" ry="18"/>
<text text-anchor="middle" x="1406.64" y="-101.3" font-family="Times New Roman,serif" font-size="14.00">sales manager</text>
</a>
</g>
</g>
<!-- 8&#45;&gt;0 -->
<g id="edge9" class="edge">
<title>8&#45;&gt;0</title>
<path fill="none" stroke="black" d="M1362.35,-92.51C1353.85,-90.51 1345,-88.58 1336.64,-87 1190.76,-59.5 1019.05,-38.75 918.68,-27.77"/>
<polygon fill="black" stroke="black" points="918.92,-24.27 908.6,-26.67 918.16,-31.23 918.92,-24.27"/>
<text text-anchor="middle" x="1242.14" y="-57.8" font-family="Times New Roman,serif" font-size="14.00">0.033</text>
</g>
<!-- 9 -->
<g id="node10" class="node">
<title>9</title>
<g id="a_node10"><a xlink:href="to_teacher.svg" xlink:title="teacher">
<ellipse fill="none" stroke="black" cx="1521.64" cy="-105" rx="36.29" ry="18"/>
<text text-anchor="middle" x="1521.64" y="-101.3" font-family="Times New Roman,serif" font-size="14.00">teacher</text>
</a>
</g>
</g>
<!-- 9&#45;&gt;0 -->
<g id="edge10" class="edge">
<title>9&#45;&gt;0</title>
<path fill="none" stroke="black" d="M1494.81,-92.82C1488.9,-90.65 1482.62,-88.57 1476.64,-87 1383.14,-62.45 1357.65,-65.28 1261.64,-54 1145.55,-40.36 1011.11,-30.3 924.35,-24.55"/>
<polygon fill="black" stroke="black" points="924.48,-21.05 914.27,-23.89 924.02,-28.04 924.48,-21.05"/>
<text text-anchor="middle" x="1407.14" y="-57.8" font-family="Times New Roman,serif" font-size="14.00">0.033</text>
</g>
</g>
</svg>
