<?xml version="1.0" encoding="UTF-8" standalone="no"?>
<!DOCTYPE svg PUBLIC "-//W3C//DTD SVG 1.1//EN"
 "http://www.w3.org/Graphics/SVG/1.1/DTD/svg11.dtd">
<!-- Generated by graphviz version 2.44.1 (20200629.0800)
 -->
<!-- Title: auditor Pages: 1 -->
<svg width="1411pt" height="131pt"
 viewBox="0.00 0.00 1411.19 131.00" xmlns="http://www.w3.org/2000/svg" xmlns:xlink="http://www.w3.org/1999/xlink">
<g id="graph0" class="graph" transform="scale(1 1) rotate(0) translate(4 127)">
<title>auditor</title>
<polygon fill="white" stroke="transparent" points="-4,4 -4,-127 1407.19,-127 1407.19,4 -4,4"/>
<!-- 0 -->
<g id="node1" class="node">
<title>0</title>
<g id="a_node1"><a xlink:href="to_auditor.svg" xlink:title="auditor">
<ellipse fill="none" stroke="black" cx="704.64" cy="-18" rx="36.29" ry="18"/>
<text text-anchor="middle" x="704.64" y="-14.3" font-family="Times New Roman,serif" font-size="14.00">auditor</text>
</a>
</g>
</g>
<!-- 0&#45;&gt;0 -->
<g id="edge1" class="edge">
<title>0&#45;&gt;0</title>
<path fill="none" stroke="black" d="M737.57,-25.87C749.4,-26.04 759.04,-23.41 759.04,-18 759.04,-14.28 754.48,-11.88 747.79,-10.79"/>
<polygon fill="black" stroke="black" points="747.77,-7.28 737.57,-10.13 747.32,-14.27 747.77,-7.28"/>
<text text-anchor="middle" x="774.54" y="-14.3" font-family="Times New Roman,serif" font-size="14.00">0.106</text>
</g>
<!-- 1 -->
<g id="node2" class="node">
<title>1</title>
<g id="a_node2"><a xlink:href="to_pharmacovigilance officer.svg" xlink:title="pharmacovigilance officer">
<ellipse fill="none" stroke="black" cx="104.64" cy="-105" rx="104.78" ry="18"/>
<text text-anchor="middle" x="104.64" y="-101.3" font-family="Times New Roman,serif" font-size="14.00">pharmacovigilance officer</text>
</a>
</g>
</g>
<!-- 1&#45;&gt;0 -->
<g id="edge2" class="edge">
<title>1&#45;&gt;0</title>
<path fill="none" stroke="black" d="M176.01,-91.83C239.37,-81.2 334.54,-65.7 417.64,-54 502.8,-42.01 602.53,-30.39 659.18,-24.02"/>
<polygon fill="black" stroke="black" points="659.69,-27.48 669.24,-22.89 658.91,-20.53 659.69,-27.48"/>
<text text-anchor="middle" x="433.14" y="-57.8" font-family="Times New Roman,serif" font-size="14.00">0.061</text>
</g>
<!-- 2 -->
<g id="node3" class="node">
<title>2</title>
<g id="a_node3"><a xlink:href="to_financial manager.svg" xlink:title="financial manager">
<ellipse fill="none" stroke="black" cx="300.64" cy="-105" rx="73.39" ry="18"/>
<text text-anchor="middle" x="300.64" y="-101.3" font-family="Times New Roman,serif" font-size="14.00">financial manager</text>
</a>
</g>
</g>
<!-- 2&#45;&gt;0 -->
<g id="edge3" class="edge">
<title>2&#45;&gt;0</title>
<path fill="none" stroke="black" d="M350.94,-91.79C394.83,-81.28 460.3,-65.97 517.64,-54 566.4,-43.82 622.62,-33.49 660.57,-26.72"/>
<polygon fill="black" stroke="black" points="661.54,-30.1 670.78,-24.9 660.32,-23.21 661.54,-30.1"/>
<text text-anchor="middle" x="533.14" y="-57.8" font-family="Times New Roman,serif" font-size="14.00">0.053</text>
</g>
<!-- 3 -->
<g id="node4" class="node">
<title>3</title>
<g id="a_node4"><a xlink:href="to_accountant.svg" xlink:title="accountant">
<ellipse fill="none" stroke="black" cx="441.64" cy="-105" rx="50.09" ry="18"/>
<text text-anchor="middle" x="441.64" y="-101.3" font-family="Times New Roman,serif" font-size="14.00">accountant</text>
</a>
</g>
</g>
<!-- 3&#45;&gt;0 -->
<g id="edge4" class="edge">
<title>3&#45;&gt;0</title>
<path fill="none" stroke="black" d="M477.17,-92.3C508.16,-82.12 554.35,-66.99 594.64,-54 618.02,-46.46 644.23,-38.12 665.2,-31.47"/>
<polygon fill="black" stroke="black" points="666.27,-34.8 674.74,-28.44 664.15,-28.13 666.27,-34.8"/>
<text text-anchor="middle" x="610.14" y="-57.8" font-family="Times New Roman,serif" font-size="14.00">0.044</text>
</g>
<!-- 4 -->
<g id="node5" class="node">
<title>4</title>
<g id="a_node5"><a xlink:href="to_sales manager.svg" xlink:title="sales manager">
<ellipse fill="none" stroke="black" cx="570.64" cy="-105" rx="61.19" ry="18"/>
<text text-anchor="middle" x="570.64" y="-101.3" font-family="Times New Roman,serif" font-size="14.00">sales manager</text>
</a>
</g>
</g>
<!-- 4&#45;&gt;0 -->
<g id="edge5" class="edge">
<title>4&#45;&gt;0</title>
<path fill="none" stroke="black" d="M595.22,-88.41C617.46,-74.3 650.3,-53.47 674.2,-38.31"/>
<polygon fill="black" stroke="black" points="676.31,-41.12 682.88,-32.8 672.56,-35.21 676.31,-41.12"/>
<text text-anchor="middle" x="662.14" y="-57.8" font-family="Times New Roman,serif" font-size="14.00">0.044</text>
</g>
<!-- 5 -->
<g id="node6" class="node">
<title>5</title>
<g id="a_node6"><a xlink:href="to_it consultant.svg" xlink:title="it consultant">
<ellipse fill="none" stroke="black" cx="704.64" cy="-105" rx="54.69" ry="18"/>
<text text-anchor="middle" x="704.64" y="-101.3" font-family="Times New Roman,serif" font-size="14.00">it consultant</text>
</a>
</g>
</g>
<!-- 5&#45;&gt;0 -->
<g id="edge6" class="edge">
<title>5&#45;&gt;0</title>
<path fill="none" stroke="black" d="M704.64,-86.8C704.64,-75.16 704.64,-59.55 704.64,-46.24"/>
<polygon fill="black" stroke="black" points="708.14,-46.18 704.64,-36.18 701.14,-46.18 708.14,-46.18"/>
<text text-anchor="middle" x="720.14" y="-57.8" font-family="Times New Roman,serif" font-size="14.00">0.035</text>
</g>
<!-- 6 -->
<g id="node7" class="node">
<title>6</title>
<g id="a_node7"><a xlink:href="to_software developer.svg" xlink:title="software developer">
<ellipse fill="none" stroke="black" cx="857.64" cy="-105" rx="79.89" ry="18"/>
<text text-anchor="middle" x="857.64" y="-101.3" font-family="Times New Roman,serif" font-size="14.00">software developer</text>
</a>
</g>
</g>
<!-- 6&#45;&gt;0 -->
<g id="edge7" class="edge">
<title>6&#45;&gt;0</title>
<path fill="none" stroke="black" d="M828.86,-88.01C802.73,-73.49 764.23,-52.11 737.03,-36.99"/>
<polygon fill="black" stroke="black" points="738.72,-33.93 728.27,-32.13 735.32,-40.05 738.72,-33.93"/>
<text text-anchor="middle" x="806.14" y="-57.8" font-family="Times New Roman,serif" font-size="14.00">0.035</text>
</g>
<!-- 7 -->
<g id="node8" class="node">
<title>7</title>
<g id="a_node8"><a xlink:href="to_office manager.svg" xlink:title="office manager">
<ellipse fill="none" stroke="black" cx="1019.64" cy="-105" rx="64.19" ry="18"/>
<text text-anchor="middle" x="1019.64" y="-101.3" font-family="Times New Roman,serif" font-size="14.00">office manager</text>
</a>
</g>
</g>
<!-- 7&#45;&gt;0 -->
<g id="edge8" class="edge">
<title>7&#45;&gt;0</title>
<path fill="none" stroke="black" d="M974.84,-91.91C913.67,-75.4 804.85,-46.04 745.7,-30.08"/>
<polygon fill="black" stroke="black" points="746.51,-26.67 735.95,-27.45 744.69,-33.43 746.51,-26.67"/>
<text text-anchor="middle" x="897.14" y="-57.8" font-family="Times New Roman,serif" font-size="14.00">0.026</text>
</g>
<!-- 8 -->
<g id="node9" class="node">
<title>8</title>
<g id="a_node9"><a xlink:href="to_regulatory affairs officer.svg" xlink:title="regulatory affairs officer">
<ellipse fill="none" stroke="black" cx="1199.64" cy="-105" rx="98.28" ry="18"/>
<text text-anchor="middle" x="1199.64" y="-101.3" font-family="Times New Roman,serif" font-size="14.00">regulatory affairs officer</text>
</a>
</g>
</g>
<!-- 8&#45;&gt;0 -->
<g id="edge9" class="edge">
<title>8&#45;&gt;0</title>
<path fill="none" stroke="black" d="M1132.21,-91.87C1074.89,-81.61 990.41,-66.61 916.64,-54 858.72,-44.1 791.82,-33.13 748.91,-26.16"/>
<polygon fill="black" stroke="black" points="749.24,-22.67 738.81,-24.52 748.12,-29.58 749.24,-22.67"/>
<text text-anchor="middle" x="1017.14" y="-57.8" font-family="Times New Roman,serif" font-size="14.00">0.026</text>
</g>
<!-- 9 -->
<g id="node10" class="node">
<title>9</title>
<g id="a_node10"><a xlink:href="to_secretary.svg" xlink:title="secretary">
<ellipse fill="none" stroke="black" cx="1359.64" cy="-105" rx="43.59" ry="18"/>
<text text-anchor="middle" x="1359.64" y="-101.3" font-family="Times New Roman,serif" font-size="14.00">secretary</text>
</a>
</g>
</g>
<!-- 9&#45;&gt;0 -->
<g id="edge10" class="edge">
<title>9&#45;&gt;0</title>
<path fill="none" stroke="black" d="M1327.67,-92.68C1320.8,-90.54 1313.53,-88.51 1306.64,-87 1102.74,-42.26 853.15,-26.02 751.28,-20.98"/>
<polygon fill="black" stroke="black" points="751.19,-17.47 741.03,-20.49 750.85,-24.46 751.19,-17.47"/>
<text text-anchor="middle" x="1224.14" y="-57.8" font-family="Times New Roman,serif" font-size="14.00">0.026</text>
</g>
</g>
</svg>
