<?xml version="1.0" encoding="UTF-8" standalone="no"?>
<!DOCTYPE svg PUBLIC "-//W3C//DTD SVG 1.1//EN"
 "http://www.w3.org/Graphics/SVG/1.1/DTD/svg11.dtd">
<!-- Generated by graphviz version 2.44.1 (20200629.0800)
 -->
<!-- Title: test Pages: 1 -->
<svg width="1429pt" height="131pt"
 viewBox="0.00 0.00 1428.74 131.00" xmlns="http://www.w3.org/2000/svg" xmlns:xlink="http://www.w3.org/1999/xlink">
<g id="graph0" class="graph" transform="scale(1 1) rotate(0) translate(4 127)">
<title>test</title>
<polygon fill="white" stroke="transparent" points="-4,4 -4,-127 1424.74,-127 1424.74,4 -4,4"/>
<!-- 0 -->
<g id="node1" class="node">
<title>0</title>
<g id="a_node1"><a xlink:href="to_aid worker.svg" xlink:title="aid worker">
<ellipse fill="none" stroke="black" cx="652.09" cy="-18" rx="49.29" ry="18"/>
<text text-anchor="middle" x="652.09" y="-14.3" font-family="Times New Roman,serif" font-size="14.00">aid worker</text>
</a>
</g>
</g>
<!-- 0&#45;&gt;0 -->
<g id="edge1" class="edge">
<title>0&#45;&gt;0</title>
<path fill="none" stroke="black" d="M696.81,-25.84C709.62,-25.54 719.49,-22.92 719.49,-18 719.49,-14.54 714.61,-12.22 707.26,-11.04"/>
<polygon fill="black" stroke="black" points="707.07,-7.51 696.81,-10.16 706.48,-14.49 707.07,-7.51"/>
<text text-anchor="middle" x="734.99" y="-14.3" font-family="Times New Roman,serif" font-size="14.00">0.123</text>
</g>
<!-- 1 -->
<g id="node2" class="node">
<title>1</title>
<g id="a_node2"><a xlink:href="to_sales manager.svg" xlink:title="sales manager">
<ellipse fill="none" stroke="black" cx="61.09" cy="-105" rx="61.19" ry="18"/>
<text text-anchor="middle" x="61.09" y="-101.3" font-family="Times New Roman,serif" font-size="14.00">sales manager</text>
</a>
</g>
</g>
<!-- 1&#45;&gt;0 -->
<g id="edge2" class="edge">
<title>1&#45;&gt;0</title>
<path fill="none" stroke="black" d="M106.2,-92.66C114.46,-90.69 123.02,-88.73 131.09,-87 209.77,-70.17 229.45,-65.43 309.09,-54 408.85,-39.69 525.74,-29.06 594.09,-23.47"/>
<polygon fill="black" stroke="black" points="594.54,-26.94 604.22,-22.64 593.97,-19.96 594.54,-26.94"/>
<text text-anchor="middle" x="324.59" y="-57.8" font-family="Times New Roman,serif" font-size="14.00">0.061</text>
</g>
<!-- 2 -->
<g id="node3" class="node">
<title>2</title>
<g id="a_node3"><a xlink:href="to_project manager.svg" xlink:title="project manager">
<ellipse fill="none" stroke="black" cx="209.09" cy="-105" rx="68.79" ry="18"/>
<text text-anchor="middle" x="209.09" y="-101.3" font-family="Times New Roman,serif" font-size="14.00">project manager</text>
</a>
</g>
</g>
<!-- 2&#45;&gt;0 -->
<g id="edge3" class="edge">
<title>2&#45;&gt;0</title>
<path fill="none" stroke="black" d="M254.31,-91.37C294.85,-80.38 356.11,-64.59 410.09,-54 473.1,-41.64 546.12,-31.67 595.34,-25.58"/>
<polygon fill="black" stroke="black" points="595.97,-29.03 605.47,-24.34 595.12,-22.08 595.97,-29.03"/>
<text text-anchor="middle" x="425.59" y="-57.8" font-family="Times New Roman,serif" font-size="14.00">0.046</text>
</g>
<!-- 3 -->
<g id="node4" class="node">
<title>3</title>
<g id="a_node4"><a xlink:href="to_teacher.svg" xlink:title="teacher">
<ellipse fill="none" stroke="black" cx="332.09" cy="-105" rx="36.29" ry="18"/>
<text text-anchor="middle" x="332.09" y="-101.3" font-family="Times New Roman,serif" font-size="14.00">teacher</text>
</a>
</g>
</g>
<!-- 3&#45;&gt;0 -->
<g id="edge4" class="edge">
<title>3&#45;&gt;0</title>
<path fill="none" stroke="black" d="M359.52,-93.05C365.28,-90.91 371.35,-88.79 377.09,-87 453.79,-63.12 544.57,-42.03 600.23,-29.89"/>
<polygon fill="black" stroke="black" points="601.17,-33.27 610.21,-27.73 599.69,-26.43 601.17,-33.27"/>
<text text-anchor="middle" x="505.59" y="-57.8" font-family="Times New Roman,serif" font-size="14.00">0.046</text>
</g>
<!-- 4 -->
<g id="node5" class="node">
<title>4</title>
<g id="a_node5"><a xlink:href="to_academic librarian.svg" xlink:title="academic librarian">
<ellipse fill="none" stroke="black" cx="462.09" cy="-105" rx="76.09" ry="18"/>
<text text-anchor="middle" x="462.09" y="-101.3" font-family="Times New Roman,serif" font-size="14.00">academic librarian</text>
</a>
</g>
</g>
<!-- 4&#45;&gt;0 -->
<g id="edge5" class="edge">
<title>4&#45;&gt;0</title>
<path fill="none" stroke="black" d="M496.06,-88.8C528.85,-74.14 578.44,-51.95 612.89,-36.54"/>
<polygon fill="black" stroke="black" points="614.47,-39.67 622.17,-32.39 611.61,-33.28 614.47,-39.67"/>
<text text-anchor="middle" x="584.59" y="-57.8" font-family="Times New Roman,serif" font-size="14.00">0.030</text>
</g>
<!-- 5 -->
<g id="node6" class="node">
<title>5</title>
<g id="a_node6"><a xlink:href="to_computer sales support.svg" xlink:title="computer sales support">
<ellipse fill="none" stroke="black" cx="652.09" cy="-105" rx="96.38" ry="18"/>
<text text-anchor="middle" x="652.09" y="-101.3" font-family="Times New Roman,serif" font-size="14.00">computer sales support</text>
</a>
</g>
</g>
<!-- 5&#45;&gt;0 -->
<g id="edge6" class="edge">
<title>5&#45;&gt;0</title>
<path fill="none" stroke="black" d="M652.09,-86.8C652.09,-75.16 652.09,-59.55 652.09,-46.24"/>
<polygon fill="black" stroke="black" points="655.59,-46.18 652.09,-36.18 648.59,-46.18 655.59,-46.18"/>
<text text-anchor="middle" x="667.59" y="-57.8" font-family="Times New Roman,serif" font-size="14.00">0.030</text>
</g>
<!-- 6 -->
<g id="node7" class="node">
<title>6</title>
<g id="a_node7"><a xlink:href="to_it consultant.svg" xlink:title="it consultant">
<ellipse fill="none" stroke="black" cx="821.09" cy="-105" rx="54.69" ry="18"/>
<text text-anchor="middle" x="821.09" y="-101.3" font-family="Times New Roman,serif" font-size="14.00">it consultant</text>
</a>
</g>
</g>
<!-- 6&#45;&gt;0 -->
<g id="edge7" class="edge">
<title>6&#45;&gt;0</title>
<path fill="none" stroke="black" d="M792.43,-89.58C763.92,-75.24 720.07,-53.19 688.99,-37.56"/>
<polygon fill="black" stroke="black" points="690.29,-34.29 679.78,-32.92 687.14,-40.54 690.29,-34.29"/>
<text text-anchor="middle" x="762.59" y="-57.8" font-family="Times New Roman,serif" font-size="14.00">0.030</text>
</g>
<!-- 7 -->
<g id="node8" class="node">
<title>7</title>
<g id="a_node8"><a xlink:href="to_marketing assistant.svg" xlink:title="marketing assistant">
<ellipse fill="none" stroke="black" cx="973.09" cy="-105" rx="79.09" ry="18"/>
<text text-anchor="middle" x="973.09" y="-101.3" font-family="Times New Roman,serif" font-size="14.00">marketing assistant</text>
</a>
</g>
</g>
<!-- 7&#45;&gt;0 -->
<g id="edge8" class="edge">
<title>7&#45;&gt;0</title>
<path fill="none" stroke="black" d="M923.64,-90.91C863.13,-74.88 761.3,-47.92 701.03,-31.96"/>
<polygon fill="black" stroke="black" points="701.56,-28.48 691,-29.3 699.77,-35.25 701.56,-28.48"/>
<text text-anchor="middle" x="847.59" y="-57.8" font-family="Times New Roman,serif" font-size="14.00">0.030</text>
</g>
<!-- 8 -->
<g id="node9" class="node">
<title>8</title>
<g id="a_node9"><a xlink:href="to_personal assistant.svg" xlink:title="personal assistant">
<ellipse fill="none" stroke="black" cx="1145.09" cy="-105" rx="74.99" ry="18"/>
<text text-anchor="middle" x="1145.09" y="-101.3" font-family="Times New Roman,serif" font-size="14.00">personal assistant</text>
</a>
</g>
</g>
<!-- 8&#45;&gt;0 -->
<g id="edge9" class="edge">
<title>8&#45;&gt;0</title>
<path fill="none" stroke="black" d="M1090.47,-92.69C1080.7,-90.74 1070.6,-88.77 1061.09,-87 934.62,-63.45 785.39,-39.64 706.82,-27.41"/>
<polygon fill="black" stroke="black" points="707.1,-23.91 696.68,-25.83 706.02,-30.83 707.1,-23.91"/>
<text text-anchor="middle" x="975.59" y="-57.8" font-family="Times New Roman,serif" font-size="14.00">0.030</text>
</g>
<!-- 9 -->
<g id="node10" class="node">
<title>9</title>
<g id="a_node10"><a xlink:href="to_programme researcher.svg" xlink:title="programme researcher">
<ellipse fill="none" stroke="black" cx="1329.09" cy="-105" rx="91.78" ry="18"/>
<text text-anchor="middle" x="1329.09" y="-101.3" font-family="Times New Roman,serif" font-size="14.00">programme researcher</text>
</a>
</g>
</g>
<!-- 9&#45;&gt;0 -->
<g id="edge10" class="edge">
<title>9&#45;&gt;0</title>
<path fill="none" stroke="black" d="M1262.98,-92.49C1251.68,-90.6 1240.06,-88.7 1229.09,-87 1125.31,-70.86 1099.36,-66.67 995.09,-54 894.91,-41.83 777.92,-30.51 709.71,-24.2"/>
<polygon fill="black" stroke="black" points="709.88,-20.7 699.6,-23.27 709.23,-27.67 709.88,-20.7"/>
<text text-anchor="middle" x="1123.59" y="-57.8" font-family="Times New Roman,serif" font-size="14.00">0.030</text>
</g>
</g>
</svg>
