<?xml version="1.0" encoding="UTF-8" standalone="no"?>
<!DOCTYPE svg PUBLIC "-//W3C//DTD SVG 1.1//EN"
 "http://www.w3.org/Graphics/SVG/1.1/DTD/svg11.dtd">
<!-- Generated by graphviz version 2.44.1 (20200629.0800)
 -->
<!-- Title: test Pages: 1 -->
<svg width="1448pt" height="131pt"
 viewBox="0.00 0.00 1447.89 131.00" xmlns="http://www.w3.org/2000/svg" xmlns:xlink="http://www.w3.org/1999/xlink">
<g id="graph0" class="graph" transform="scale(1 1) rotate(0) translate(4 127)">
<title>test</title>
<polygon fill="white" stroke="transparent" points="-4,4 -4,-127 1443.89,-127 1443.89,4 -4,4"/>
<!-- 0 -->
<g id="node1" class="node">
<title>0</title>
<g id="a_node1"><a xlink:href="to_academic librarian.svg" xlink:title="academic librarian">
<ellipse fill="none" stroke="black" cx="637.7" cy="-18" rx="76.09" ry="18"/>
<text text-anchor="middle" x="637.7" y="-14.3" font-family="Times New Roman,serif" font-size="14.00">academic librarian</text>
</a>
</g>
</g>
<!-- 0&#45;&gt;0 -->
<g id="edge1" class="edge">
<title>0&#45;&gt;0</title>
<path fill="none" stroke="black" d="M707,-25.6C721.39,-24.8 731.74,-22.27 731.74,-18 731.74,-14.83 726.04,-12.62 717.22,-11.37"/>
<polygon fill="black" stroke="black" points="717.29,-7.86 707,-10.4 716.63,-14.83 717.29,-7.86"/>
<text text-anchor="middle" x="747.24" y="-14.3" font-family="Times New Roman,serif" font-size="14.00">0.142</text>
</g>
<!-- 1 -->
<g id="node2" class="node">
<title>1</title>
<g id="a_node2"><a xlink:href="to_lecturer.svg" xlink:title="lecturer">
<ellipse fill="none" stroke="black" cx="37.7" cy="-105" rx="37.89" ry="18"/>
<text text-anchor="middle" x="37.7" y="-101.3" font-family="Times New Roman,serif" font-size="14.00">lecturer</text>
</a>
</g>
</g>
<!-- 1&#45;&gt;0 -->
<g id="edge2" class="edge">
<title>1&#45;&gt;0</title>
<path fill="none" stroke="black" d="M65.61,-92.6C71.51,-90.49 77.75,-88.5 83.7,-87 247.05,-45.9 443.98,-29.27 553.59,-22.82"/>
<polygon fill="black" stroke="black" points="553.81,-26.31 563.59,-22.24 553.41,-19.32 553.81,-26.31"/>
<text text-anchor="middle" x="265.2" y="-57.8" font-family="Times New Roman,serif" font-size="14.00">0.065</text>
</g>
<!-- 2 -->
<g id="node3" class="node">
<title>2</title>
<g id="a_node3"><a xlink:href="to_research scientist.svg" xlink:title="research scientist">
<ellipse fill="none" stroke="black" cx="165.7" cy="-105" rx="72.59" ry="18"/>
<text text-anchor="middle" x="165.7" y="-101.3" font-family="Times New Roman,serif" font-size="14.00">research scientist</text>
</a>
</g>
</g>
<!-- 2&#45;&gt;0 -->
<g id="edge3" class="edge">
<title>2&#45;&gt;0</title>
<path fill="none" stroke="black" d="M219.03,-92.73C228.57,-90.78 238.42,-88.8 247.7,-87 358.77,-65.48 488.25,-43.52 566.54,-30.58"/>
<polygon fill="black" stroke="black" points="567.47,-33.98 576.77,-28.89 566.33,-27.07 567.47,-33.98"/>
<text text-anchor="middle" x="434.2" y="-57.8" font-family="Times New Roman,serif" font-size="14.00">0.065</text>
</g>
<!-- 3 -->
<g id="node4" class="node">
<title>3</title>
<g id="a_node4"><a xlink:href="to_teaching assistant.svg" xlink:title="teaching assistant">
<ellipse fill="none" stroke="black" cx="329.7" cy="-105" rx="73.39" ry="18"/>
<text text-anchor="middle" x="329.7" y="-101.3" font-family="Times New Roman,serif" font-size="14.00">teaching assistant</text>
</a>
</g>
</g>
<!-- 3&#45;&gt;0 -->
<g id="edge4" class="edge">
<title>3&#45;&gt;0</title>
<path fill="none" stroke="black" d="M376.48,-91.09C431.12,-76.01 521.52,-51.06 580.35,-34.83"/>
<polygon fill="black" stroke="black" points="581.52,-38.14 590.22,-32.1 579.65,-31.39 581.52,-38.14"/>
<text text-anchor="middle" x="518.2" y="-57.8" font-family="Times New Roman,serif" font-size="14.00">0.065</text>
</g>
<!-- 4 -->
<g id="node5" class="node">
<title>4</title>
<g id="a_node5"><a xlink:href="to_careers adviser.svg" xlink:title="careers adviser">
<ellipse fill="none" stroke="black" cx="485.7" cy="-105" rx="64.99" ry="18"/>
<text text-anchor="middle" x="485.7" y="-101.3" font-family="Times New Roman,serif" font-size="14.00">careers adviser</text>
</a>
</g>
</g>
<!-- 4&#45;&gt;0 -->
<g id="edge5" class="edge">
<title>4&#45;&gt;0</title>
<path fill="none" stroke="black" d="M513.22,-88.61C537.66,-74.94 573.59,-54.85 600.57,-39.76"/>
<polygon fill="black" stroke="black" points="602.33,-42.79 609.34,-34.85 598.91,-36.68 602.33,-42.79"/>
<text text-anchor="middle" x="587.2" y="-57.8" font-family="Times New Roman,serif" font-size="14.00">0.035</text>
</g>
<!-- 5 -->
<g id="node6" class="node">
<title>5</title>
<g id="a_node6"><a xlink:href="to_project manager.svg" xlink:title="project manager">
<ellipse fill="none" stroke="black" cx="637.7" cy="-105" rx="68.79" ry="18"/>
<text text-anchor="middle" x="637.7" y="-101.3" font-family="Times New Roman,serif" font-size="14.00">project manager</text>
</a>
</g>
</g>
<!-- 5&#45;&gt;0 -->
<g id="edge6" class="edge">
<title>5&#45;&gt;0</title>
<path fill="none" stroke="black" d="M637.7,-86.8C637.7,-75.16 637.7,-59.55 637.7,-46.24"/>
<polygon fill="black" stroke="black" points="641.2,-46.18 637.7,-36.18 634.2,-46.18 641.2,-46.18"/>
<text text-anchor="middle" x="653.2" y="-57.8" font-family="Times New Roman,serif" font-size="14.00">0.035</text>
</g>
<!-- 6 -->
<g id="node7" class="node">
<title>6</title>
<g id="a_node7"><a xlink:href="to_education administrator.svg" xlink:title="education administrator">
<ellipse fill="none" stroke="black" cx="819.7" cy="-105" rx="95.58" ry="18"/>
<text text-anchor="middle" x="819.7" y="-101.3" font-family="Times New Roman,serif" font-size="14.00">education administrator</text>
</a>
</g>
</g>
<!-- 6&#45;&gt;0 -->
<g id="edge7" class="edge">
<title>6&#45;&gt;0</title>
<path fill="none" stroke="black" d="M785.46,-88.01C755.47,-74.01 711.79,-53.6 679.69,-38.61"/>
<polygon fill="black" stroke="black" points="681.09,-35.4 670.55,-34.34 678.13,-41.75 681.09,-35.4"/>
<text text-anchor="middle" x="755.2" y="-57.8" font-family="Times New Roman,serif" font-size="14.00">0.029</text>
</g>
<!-- 7 -->
<g id="node8" class="node">
<title>7</title>
<g id="a_node8"><a xlink:href="to_government research officer.svg" xlink:title="government research officer">
<ellipse fill="none" stroke="black" cx="1045.7" cy="-105" rx="112.38" ry="18"/>
<text text-anchor="middle" x="1045.7" y="-101.3" font-family="Times New Roman,serif" font-size="14.00">government research officer</text>
</a>
</g>
</g>
<!-- 7&#45;&gt;0 -->
<g id="edge8" class="edge">
<title>7&#45;&gt;0</title>
<path fill="none" stroke="black" d="M980.14,-90.34C903.94,-74.47 778.92,-48.42 702.88,-32.58"/>
<polygon fill="black" stroke="black" points="703.44,-29.12 692.94,-30.51 702.01,-35.97 703.44,-29.12"/>
<text text-anchor="middle" x="882.2" y="-57.8" font-family="Times New Roman,serif" font-size="14.00">0.029</text>
</g>
<!-- 8 -->
<g id="node9" class="node">
<title>8</title>
<g id="a_node9"><a xlink:href="to_librarian.svg" xlink:title="librarian">
<ellipse fill="none" stroke="black" cx="1215.7" cy="-105" rx="39.79" ry="18"/>
<text text-anchor="middle" x="1215.7" y="-101.3" font-family="Times New Roman,serif" font-size="14.00">librarian</text>
</a>
</g>
</g>
<!-- 8&#45;&gt;0 -->
<g id="edge9" class="edge">
<title>8&#45;&gt;0</title>
<path fill="none" stroke="black" d="M1186.45,-92.75C1180.01,-90.59 1173.18,-88.52 1166.7,-87 1011.42,-50.5 825.58,-32.33 720.63,-24.35"/>
<polygon fill="black" stroke="black" points="720.65,-20.84 710.41,-23.59 720.13,-27.82 720.65,-20.84"/>
<text text-anchor="middle" x="1082.2" y="-57.8" font-family="Times New Roman,serif" font-size="14.00">0.029</text>
</g>
<!-- 9 -->
<g id="node10" class="node">
<title>9</title>
<g id="a_node10"><a xlink:href="to_mechanical engineer.svg" xlink:title="mechanical engineer">
<ellipse fill="none" stroke="black" cx="1356.7" cy="-105" rx="83.39" ry="18"/>
<text text-anchor="middle" x="1356.7" y="-101.3" font-family="Times New Roman,serif" font-size="14.00">mechanical engineer</text>
</a>
</g>
</g>
<!-- 9&#45;&gt;0 -->
<g id="edge10" class="edge">
<title>9&#45;&gt;0</title>
<path fill="none" stroke="black" d="M1301.8,-91.28C1250.36,-79.83 1171.22,-63.4 1101.7,-54 969.94,-36.18 815.82,-26.8 722.54,-22.38"/>
<polygon fill="black" stroke="black" points="722.47,-18.88 712.32,-21.91 722.14,-25.87 722.47,-18.88"/>
<text text-anchor="middle" x="1208.2" y="-57.8" font-family="Times New Roman,serif" font-size="14.00">0.017</text>
</g>
</g>
</svg>
