<?xml version="1.0" encoding="UTF-8" standalone="no"?>
<!DOCTYPE svg PUBLIC "-//W3C//DTD SVG 1.1//EN"
 "http://www.w3.org/Graphics/SVG/1.1/DTD/svg11.dtd">
<!-- Generated by graphviz version 2.44.1 (20200629.0800)
 -->
<!-- Title: brand_manager Pages: 1 -->
<svg width="1500pt" height="131pt"
 viewBox="0.00 0.00 1500.24 131.00" xmlns="http://www.w3.org/2000/svg" xmlns:xlink="http://www.w3.org/1999/xlink">
<g id="graph0" class="graph" transform="scale(1 1) rotate(0) translate(4 127)">
<title>brand_manager</title>
<polygon fill="white" stroke="transparent" points="-4,4 -4,-127 1496.24,-127 1496.24,4 -4,4"/>
<!-- 0 -->
<g id="node1" class="node">
<title>0</title>
<g id="a_node1"><a xlink:href="to_brand manager.svg" xlink:title="brand manager">
<ellipse fill="none" stroke="black" cx="830.89" cy="-18" rx="64.19" ry="18"/>
<text text-anchor="middle" x="830.89" y="-14.3" font-family="Times New Roman,serif" font-size="14.00">brand manager</text>
</a>
</g>
</g>
<!-- 0&#45;&gt;0 -->
<g id="edge1" class="edge">
<title>0&#45;&gt;0</title>
<path fill="none" stroke="black" d="M889.36,-25.72C903.1,-25.08 913.24,-22.51 913.24,-18 913.24,-14.69 907.77,-12.42 899.43,-11.2"/>
<polygon fill="black" stroke="black" points="899.64,-7.7 889.36,-10.28 899,-14.67 899.64,-7.7"/>
<text text-anchor="middle" x="928.74" y="-14.3" font-family="Times New Roman,serif" font-size="14.00">0.228</text>
</g>
<!-- 1 -->
<g id="node2" class="node">
<title>1</title>
<g id="a_node2"><a xlink:href="to_marketing executive.svg" xlink:title="marketing executive">
<ellipse fill="none" stroke="black" cx="81.89" cy="-105" rx="81.79" ry="18"/>
<text text-anchor="middle" x="81.89" y="-101.3" font-family="Times New Roman,serif" font-size="14.00">marketing executive</text>
</a>
</g>
</g>
<!-- 1&#45;&gt;0 -->
<g id="edge2" class="edge">
<title>1&#45;&gt;0</title>
<path fill="none" stroke="black" d="M140.52,-92.35C151.26,-90.41 162.4,-88.54 172.89,-87 385.17,-55.92 638.01,-33.99 759.19,-24.41"/>
<polygon fill="black" stroke="black" points="759.75,-27.87 769.44,-23.6 759.2,-20.9 759.75,-27.87"/>
<text text-anchor="middle" x="441.39" y="-57.8" font-family="Times New Roman,serif" font-size="14.00">0.054</text>
</g>
<!-- 2 -->
<g id="node3" class="node">
<title>2</title>
<g id="a_node3"><a xlink:href="to_pharmacovigilance officer.svg" xlink:title="pharmacovigilance officer">
<ellipse fill="none" stroke="black" cx="286.89" cy="-105" rx="104.78" ry="18"/>
<text text-anchor="middle" x="286.89" y="-101.3" font-family="Times New Roman,serif" font-size="14.00">pharmacovigilance officer</text>
</a>
</g>
</g>
<!-- 2&#45;&gt;0 -->
<g id="edge3" class="edge">
<title>2&#45;&gt;0</title>
<path fill="none" stroke="black" d="M361.1,-92.28C425.54,-82.12 521.38,-67.03 604.89,-54 659.23,-45.52 720.94,-35.97 766.13,-28.99"/>
<polygon fill="black" stroke="black" points="766.74,-32.44 776.09,-27.45 765.67,-25.52 766.74,-32.44"/>
<text text-anchor="middle" x="620.39" y="-57.8" font-family="Times New Roman,serif" font-size="14.00">0.054</text>
</g>
<!-- 3 -->
<g id="node4" class="node">
<title>3</title>
<g id="a_node4"><a xlink:href="to_marketing assistant.svg" xlink:title="marketing assistant">
<ellipse fill="none" stroke="black" cx="488.89" cy="-105" rx="79.09" ry="18"/>
<text text-anchor="middle" x="488.89" y="-101.3" font-family="Times New Roman,serif" font-size="14.00">marketing assistant</text>
</a>
</g>
</g>
<!-- 3&#45;&gt;0 -->
<g id="edge4" class="edge">
<title>3&#45;&gt;0</title>
<path fill="none" stroke="black" d="M540.46,-91.18C603.34,-75.55 709.26,-49.23 774.32,-33.06"/>
<polygon fill="black" stroke="black" points="775.54,-36.36 784.4,-30.55 773.85,-29.57 775.54,-36.36"/>
<text text-anchor="middle" x="696.39" y="-57.8" font-family="Times New Roman,serif" font-size="14.00">0.044</text>
</g>
<!-- 4 -->
<g id="node5" class="node">
<title>4</title>
<g id="a_node5"><a xlink:href="to_production manager.svg" xlink:title="production manager">
<ellipse fill="none" stroke="black" cx="668.89" cy="-105" rx="83.39" ry="18"/>
<text text-anchor="middle" x="668.89" y="-101.3" font-family="Times New Roman,serif" font-size="14.00">production manager</text>
</a>
</g>
</g>
<!-- 4&#45;&gt;0 -->
<g id="edge5" class="edge">
<title>4&#45;&gt;0</title>
<path fill="none" stroke="black" d="M698.98,-88.21C725.57,-74.26 764.46,-53.86 793.13,-38.81"/>
<polygon fill="black" stroke="black" points="794.82,-41.88 802.05,-34.13 791.57,-35.68 794.82,-41.88"/>
<text text-anchor="middle" x="775.39" y="-57.8" font-family="Times New Roman,serif" font-size="14.00">0.044</text>
</g>
<!-- 5 -->
<g id="node6" class="node">
<title>5</title>
<g id="a_node6"><a xlink:href="to_sales manager.svg" xlink:title="sales manager">
<ellipse fill="none" stroke="black" cx="830.89" cy="-105" rx="61.19" ry="18"/>
<text text-anchor="middle" x="830.89" y="-101.3" font-family="Times New Roman,serif" font-size="14.00">sales manager</text>
</a>
</g>
</g>
<!-- 5&#45;&gt;0 -->
<g id="edge6" class="edge">
<title>5&#45;&gt;0</title>
<path fill="none" stroke="black" d="M830.89,-86.8C830.89,-75.16 830.89,-59.55 830.89,-46.24"/>
<polygon fill="black" stroke="black" points="834.39,-46.18 830.89,-36.18 827.39,-46.18 834.39,-46.18"/>
<text text-anchor="middle" x="846.39" y="-57.8" font-family="Times New Roman,serif" font-size="14.00">0.039</text>
</g>
<!-- 6 -->
<g id="node7" class="node">
<title>6</title>
<g id="a_node7"><a xlink:href="to_catering manager.svg" xlink:title="catering manager">
<ellipse fill="none" stroke="black" cx="981.89" cy="-105" rx="71.49" ry="18"/>
<text text-anchor="middle" x="981.89" y="-101.3" font-family="Times New Roman,serif" font-size="14.00">catering manager</text>
</a>
</g>
</g>
<!-- 6&#45;&gt;0 -->
<g id="edge7" class="edge">
<title>6&#45;&gt;0</title>
<path fill="none" stroke="black" d="M953.84,-88.21C929.43,-74.47 893.88,-54.46 867.28,-39.49"/>
<polygon fill="black" stroke="black" points="868.71,-36.27 858.28,-34.42 865.28,-42.37 868.71,-36.27"/>
<text text-anchor="middle" x="931.39" y="-57.8" font-family="Times New Roman,serif" font-size="14.00">0.024</text>
</g>
<!-- 7 -->
<g id="node8" class="node">
<title>7</title>
<g id="a_node8"><a xlink:href="to_it consultant.svg" xlink:title="it consultant">
<ellipse fill="none" stroke="black" cx="1125.89" cy="-105" rx="54.69" ry="18"/>
<text text-anchor="middle" x="1125.89" y="-101.3" font-family="Times New Roman,serif" font-size="14.00">it consultant</text>
</a>
</g>
</g>
<!-- 7&#45;&gt;0 -->
<g id="edge8" class="edge">
<title>7&#45;&gt;0</title>
<path fill="none" stroke="black" d="M1086.11,-92.54C1033.92,-77.5 942.19,-51.07 884.09,-34.33"/>
<polygon fill="black" stroke="black" points="884.93,-30.93 874.35,-31.52 882.99,-37.65 884.93,-30.93"/>
<text text-anchor="middle" x="1011.39" y="-57.8" font-family="Times New Roman,serif" font-size="14.00">0.024</text>
</g>
<!-- 8 -->
<g id="node9" class="node">
<title>8</title>
<g id="a_node9"><a xlink:href="to_logistics manager.svg" xlink:title="logistics manager">
<ellipse fill="none" stroke="black" cx="1271.89" cy="-105" rx="73.39" ry="18"/>
<text text-anchor="middle" x="1271.89" y="-101.3" font-family="Times New Roman,serif" font-size="14.00">logistics manager</text>
</a>
</g>
</g>
<!-- 8&#45;&gt;0 -->
<g id="edge9" class="edge">
<title>8&#45;&gt;0</title>
<path fill="none" stroke="black" d="M1218.86,-92.5C1170.09,-82.04 1095.74,-66.4 1030.89,-54 985.51,-45.32 934.16,-36.35 894.86,-29.67"/>
<polygon fill="black" stroke="black" points="895.32,-26.2 884.88,-27.98 894.15,-33.1 895.32,-26.2"/>
<text text-anchor="middle" x="1119.39" y="-57.8" font-family="Times New Roman,serif" font-size="14.00">0.024</text>
</g>
<!-- 9 -->
<g id="node10" class="node">
<title>9</title>
<g id="a_node10"><a xlink:href="to_office manager.svg" xlink:title="office manager">
<ellipse fill="none" stroke="black" cx="1427.89" cy="-105" rx="64.19" ry="18"/>
<text text-anchor="middle" x="1427.89" y="-101.3" font-family="Times New Roman,serif" font-size="14.00">office manager</text>
</a>
</g>
</g>
<!-- 9&#45;&gt;0 -->
<g id="edge10" class="edge">
<title>9&#45;&gt;0</title>
<path fill="none" stroke="black" d="M1380.63,-92.6C1371.77,-90.62 1362.57,-88.66 1353.89,-87 1193.26,-56.26 1002.18,-35.32 901.34,-25.46"/>
<polygon fill="black" stroke="black" points="901.56,-21.96 891.27,-24.48 900.88,-28.93 901.56,-21.96"/>
<text text-anchor="middle" x="1255.39" y="-57.8" font-family="Times New Roman,serif" font-size="14.00">0.019</text>
</g>
</g>
</svg>
