<?xml version="1.0" encoding="UTF-8" standalone="no"?>
<!DOCTYPE svg PUBLIC "-//W3C//DTD SVG 1.1//EN"
 "http://www.w3.org/Graphics/SVG/1.1/DTD/svg11.dtd">
<!-- Generated by graphviz version 2.44.1 (20200629.0800)
 -->
<!-- Title: barristers_clerk Pages: 1 -->
<svg width="1453pt" height="131pt"
 viewBox="0.00 0.00 1453.09 131.00" xmlns="http://www.w3.org/2000/svg" xmlns:xlink="http://www.w3.org/1999/xlink">
<g id="graph0" class="graph" transform="scale(1 1) rotate(0) translate(4 127)">
<title>barristers_clerk</title>
<polygon fill="white" stroke="transparent" points="-4,4 -4,-127 1449.09,-127 1449.09,4 -4,4"/>
<!-- 0 -->
<g id="node1" class="node">
<title>0</title>
<g id="a_node1"><a xlink:href="to_barristers clerk.svg" xlink:title="barristers clerk">
<ellipse fill="none" stroke="black" cx="695.45" cy="-18" rx="64.19" ry="18"/>
<text text-anchor="middle" x="695.45" y="-14.3" font-family="Times New Roman,serif" font-size="14.00">barristers clerk</text>
</a>
</g>
</g>
<!-- 0&#45;&gt;0 -->
<g id="edge1" class="edge">
<title>0&#45;&gt;0</title>
<path fill="none" stroke="black" d="M753.92,-25.72C767.66,-25.08 777.79,-22.51 777.79,-18 777.79,-14.69 772.33,-12.42 763.98,-11.2"/>
<polygon fill="black" stroke="black" points="764.19,-7.7 753.92,-10.28 763.56,-14.67 764.19,-7.7"/>
<text text-anchor="middle" x="793.29" y="-14.3" font-family="Times New Roman,serif" font-size="14.00">0.186</text>
</g>
<!-- 1 -->
<g id="node2" class="node">
<title>1</title>
<g id="a_node2"><a xlink:href="to_lawyer.svg" xlink:title="lawyer">
<ellipse fill="none" stroke="black" cx="34.45" cy="-105" rx="34.39" ry="18"/>
<text text-anchor="middle" x="34.45" y="-101.3" font-family="Times New Roman,serif" font-size="14.00">lawyer</text>
</a>
</g>
</g>
<!-- 1&#45;&gt;0 -->
<g id="edge2" class="edge">
<title>1&#45;&gt;0</title>
<path fill="none" stroke="black" d="M60,-92.61C65.66,-90.45 71.68,-88.43 77.45,-87 269.66,-39.34 503.77,-25.07 621.01,-20.81"/>
<polygon fill="black" stroke="black" points="621.43,-24.29 631.3,-20.45 621.18,-17.3 621.43,-24.29"/>
<text text-anchor="middle" x="260.95" y="-57.8" font-family="Times New Roman,serif" font-size="14.00">0.065</text>
</g>
<!-- 2 -->
<g id="node3" class="node">
<title>2</title>
<g id="a_node3"><a xlink:href="to_pharmacovigilance officer.svg" xlink:title="pharmacovigilance officer">
<ellipse fill="none" stroke="black" cx="191.45" cy="-105" rx="104.78" ry="18"/>
<text text-anchor="middle" x="191.45" y="-101.3" font-family="Times New Roman,serif" font-size="14.00">pharmacovigilance officer</text>
</a>
</g>
</g>
<!-- 2&#45;&gt;0 -->
<g id="edge3" class="edge">
<title>2&#45;&gt;0</title>
<path fill="none" stroke="black" d="M263.39,-91.87C362.06,-75.23 537.82,-45.58 631.89,-29.72"/>
<polygon fill="black" stroke="black" points="632.56,-33.16 641.83,-28.04 631.39,-26.25 632.56,-33.16"/>
<text text-anchor="middle" x="489.95" y="-57.8" font-family="Times New Roman,serif" font-size="14.00">0.040</text>
</g>
<!-- 3 -->
<g id="node4" class="node">
<title>3</title>
<g id="a_node4"><a xlink:href="to_teaching assistant.svg" xlink:title="teaching assistant">
<ellipse fill="none" stroke="black" cx="387.45" cy="-105" rx="73.39" ry="18"/>
<text text-anchor="middle" x="387.45" y="-101.3" font-family="Times New Roman,serif" font-size="14.00">teaching assistant</text>
</a>
</g>
</g>
<!-- 3&#45;&gt;0 -->
<g id="edge4" class="edge">
<title>3&#45;&gt;0</title>
<path fill="none" stroke="black" d="M434.23,-91.09C489.9,-75.72 582.71,-50.11 641.4,-33.92"/>
<polygon fill="black" stroke="black" points="642.52,-37.24 651.23,-31.2 640.66,-30.49 642.52,-37.24"/>
<text text-anchor="middle" x="575.95" y="-57.8" font-family="Times New Roman,serif" font-size="14.00">0.040</text>
</g>
<!-- 4 -->
<g id="node5" class="node">
<title>4</title>
<g id="a_node5"><a xlink:href="to_legal executive.svg" xlink:title="legal executive">
<ellipse fill="none" stroke="black" cx="541.45" cy="-105" rx="63.09" ry="18"/>
<text text-anchor="middle" x="541.45" y="-101.3" font-family="Times New Roman,serif" font-size="14.00">legal executive</text>
</a>
</g>
</g>
<!-- 4&#45;&gt;0 -->
<g id="edge5" class="edge">
<title>4&#45;&gt;0</title>
<path fill="none" stroke="black" d="M568.98,-88.8C594.01,-74.99 631.13,-54.5 658.69,-39.29"/>
<polygon fill="black" stroke="black" points="660.57,-42.25 667.63,-34.35 657.19,-36.12 660.57,-42.25"/>
<text text-anchor="middle" x="643.95" y="-57.8" font-family="Times New Roman,serif" font-size="14.00">0.032</text>
</g>
<!-- 5 -->
<g id="node6" class="node">
<title>5</title>
<g id="a_node6"><a xlink:href="to_research scientist.svg" xlink:title="research scientist">
<ellipse fill="none" stroke="black" cx="695.45" cy="-105" rx="72.59" ry="18"/>
<text text-anchor="middle" x="695.45" y="-101.3" font-family="Times New Roman,serif" font-size="14.00">research scientist</text>
</a>
</g>
</g>
<!-- 5&#45;&gt;0 -->
<g id="edge6" class="edge">
<title>5&#45;&gt;0</title>
<path fill="none" stroke="black" d="M695.45,-86.8C695.45,-75.16 695.45,-59.55 695.45,-46.24"/>
<polygon fill="black" stroke="black" points="698.95,-46.18 695.45,-36.18 691.95,-46.18 698.95,-46.18"/>
<text text-anchor="middle" x="710.95" y="-57.8" font-family="Times New Roman,serif" font-size="14.00">0.032</text>
</g>
<!-- 6 -->
<g id="node7" class="node">
<title>6</title>
<g id="a_node7"><a xlink:href="to_academic librarian.svg" xlink:title="academic librarian">
<ellipse fill="none" stroke="black" cx="862.45" cy="-105" rx="76.09" ry="18"/>
<text text-anchor="middle" x="862.45" y="-101.3" font-family="Times New Roman,serif" font-size="14.00">academic librarian</text>
</a>
</g>
</g>
<!-- 6&#45;&gt;0 -->
<g id="edge7" class="edge">
<title>6&#45;&gt;0</title>
<path fill="none" stroke="black" d="M831.82,-88.41C804.37,-74.44 763.98,-53.88 734.28,-38.77"/>
<polygon fill="black" stroke="black" points="735.54,-35.48 725.04,-34.06 732.37,-41.72 735.54,-35.48"/>
<text text-anchor="middle" x="804.95" y="-57.8" font-family="Times New Roman,serif" font-size="14.00">0.024</text>
</g>
<!-- 7 -->
<g id="node8" class="node">
<title>7</title>
<g id="a_node8"><a xlink:href="to_building surveyor.svg" xlink:title="building surveyor">
<ellipse fill="none" stroke="black" cx="1029.45" cy="-105" rx="73.39" ry="18"/>
<text text-anchor="middle" x="1029.45" y="-101.3" font-family="Times New Roman,serif" font-size="14.00">building surveyor</text>
</a>
</g>
</g>
<!-- 7&#45;&gt;0 -->
<g id="edge8" class="edge">
<title>7&#45;&gt;0</title>
<path fill="none" stroke="black" d="M980.52,-91.55C919.47,-76.01 815.29,-49.5 751.21,-33.19"/>
<polygon fill="black" stroke="black" points="751.83,-29.74 741.28,-30.66 750.11,-36.52 751.83,-29.74"/>
<text text-anchor="middle" x="897.95" y="-57.8" font-family="Times New Roman,serif" font-size="14.00">0.024</text>
</g>
<!-- 8 -->
<g id="node9" class="node">
<title>8</title>
<g id="a_node9"><a xlink:href="to_personal assistant.svg" xlink:title="personal assistant">
<ellipse fill="none" stroke="black" cx="1195.45" cy="-105" rx="74.99" ry="18"/>
<text text-anchor="middle" x="1195.45" y="-101.3" font-family="Times New Roman,serif" font-size="14.00">personal assistant</text>
</a>
</g>
</g>
<!-- 8&#45;&gt;0 -->
<g id="edge9" class="edge">
<title>8&#45;&gt;0</title>
<path fill="none" stroke="black" d="M1140.82,-92.69C1131.05,-90.74 1120.95,-88.77 1111.45,-87 987.82,-63.98 842.73,-41.23 760.69,-28.75"/>
<polygon fill="black" stroke="black" points="761.17,-25.29 750.76,-27.25 760.12,-32.21 761.17,-25.29"/>
<text text-anchor="middle" x="1023.95" y="-57.8" font-family="Times New Roman,serif" font-size="14.00">0.024</text>
</g>
<!-- 9 -->
<g id="node10" class="node">
<title>9</title>
<g id="a_node10"><a xlink:href="to_retail merchandiser.svg" xlink:title="retail merchandiser">
<ellipse fill="none" stroke="black" cx="1366.45" cy="-105" rx="78.79" ry="18"/>
<text text-anchor="middle" x="1366.45" y="-101.3" font-family="Times New Roman,serif" font-size="14.00">retail merchandiser</text>
</a>
</g>
</g>
<!-- 9&#45;&gt;0 -->
<g id="edge10" class="edge">
<title>9&#45;&gt;0</title>
<path fill="none" stroke="black" d="M1309.43,-92.4C1299.46,-90.5 1289.16,-88.63 1279.45,-87 1095.43,-56.18 876.45,-34.7 766.26,-24.94"/>
<polygon fill="black" stroke="black" points="766.53,-21.45 756.26,-24.06 765.92,-28.42 766.53,-21.45"/>
<text text-anchor="middle" x="1166.95" y="-57.8" font-family="Times New Roman,serif" font-size="14.00">0.024</text>
</g>
</g>
</svg>
