<?xml version="1.0" encoding="UTF-8" standalone="no"?>
<!DOCTYPE svg PUBLIC "-//W3C//DTD SVG 1.1//EN"
 "http://www.w3.org/Graphics/SVG/1.1/DTD/svg11.dtd">
<!-- Generated by graphviz version 2.44.1 (20200629.0800)
 -->
<!-- Title: test Pages: 1 -->
<svg width="1279pt" height="131pt"
 viewBox="0.00 0.00 1278.64 131.00" xmlns="http://www.w3.org/2000/svg" xmlns:xlink="http://www.w3.org/1999/xlink">
<g id="graph0" class="graph" transform="scale(1 1) rotate(0) translate(4 127)">
<title>test</title>
<polygon fill="white" stroke="transparent" points="-4,4 -4,-127 1274.64,-127 1274.64,4 -4,4"/>
<!-- 0 -->
<g id="node1" class="node">
<title>0</title>
<g id="a_node1"><a xlink:href="to_biotechnologist.svg" xlink:title="biotechnologist">
<ellipse fill="none" stroke="black" cx="603.6" cy="-18" rx="66.09" ry="18"/>
<text text-anchor="middle" x="603.6" y="-14.3" font-family="Times New Roman,serif" font-size="14.00">biotechnologist</text>
</a>
</g>
</g>
<!-- 0&#45;&gt;0 -->
<g id="edge1" class="edge">
<title>0&#45;&gt;0</title>
<path fill="none" stroke="black" d="M663.83,-25.7C677.7,-25.04 687.89,-22.47 687.89,-18 687.89,-14.72 682.39,-12.46 673.98,-11.23"/>
<polygon fill="black" stroke="black" points="674.11,-7.73 663.83,-10.3 673.47,-14.7 674.11,-7.73"/>
<text text-anchor="middle" x="703.39" y="-14.3" font-family="Times New Roman,serif" font-size="14.00">0.105</text>
</g>
<!-- 1 -->
<g id="node2" class="node">
<title>1</title>
<g id="a_node2"><a xlink:href="to_it consultant.svg" xlink:title="it consultant">
<ellipse fill="none" stroke="black" cx="54.6" cy="-105" rx="54.69" ry="18"/>
<text text-anchor="middle" x="54.6" y="-101.3" font-family="Times New Roman,serif" font-size="14.00">it consultant</text>
</a>
</g>
</g>
<!-- 1&#45;&gt;0 -->
<g id="edge2" class="edge">
<title>1&#45;&gt;0</title>
<path fill="none" stroke="black" d="M95.14,-92.89C102.91,-90.86 110.99,-88.81 118.6,-87 187.53,-70.56 204.6,-65.1 274.6,-54 362.15,-40.12 463.7,-30.26 530.56,-24.61"/>
<polygon fill="black" stroke="black" points="530.9,-28.09 540.58,-23.77 530.32,-21.12 530.9,-28.09"/>
<text text-anchor="middle" x="290.1" y="-57.8" font-family="Times New Roman,serif" font-size="14.00">0.105</text>
</g>
<!-- 2 -->
<g id="node3" class="node">
<title>2</title>
<g id="a_node3"><a xlink:href="to_sales manager.svg" xlink:title="sales manager">
<ellipse fill="none" stroke="black" cx="188.6" cy="-105" rx="61.19" ry="18"/>
<text text-anchor="middle" x="188.6" y="-101.3" font-family="Times New Roman,serif" font-size="14.00">sales manager</text>
</a>
</g>
</g>
<!-- 2&#45;&gt;0 -->
<g id="edge3" class="edge">
<title>2&#45;&gt;0</title>
<path fill="none" stroke="black" d="M228.64,-91.35C264.88,-80.26 319.9,-64.35 368.6,-54 423.66,-42.3 486.81,-33.12 533.77,-27.11"/>
<polygon fill="black" stroke="black" points="534.35,-30.56 543.83,-25.84 533.47,-23.62 534.35,-30.56"/>
<text text-anchor="middle" x="384.1" y="-57.8" font-family="Times New Roman,serif" font-size="14.00">0.105</text>
</g>
<!-- 3 -->
<g id="node4" class="node">
<title>3</title>
<g id="a_node4"><a xlink:href="to_writer.svg" xlink:title="writer">
<ellipse fill="none" stroke="black" cx="298.6" cy="-105" rx="31.4" ry="18"/>
<text text-anchor="middle" x="298.6" y="-101.3" font-family="Times New Roman,serif" font-size="14.00">writer</text>
</a>
</g>
</g>
<!-- 3&#45;&gt;0 -->
<g id="edge4" class="edge">
<title>3&#45;&gt;0</title>
<path fill="none" stroke="black" d="M322.48,-93.16C327.73,-90.97 333.31,-88.79 338.6,-87 407.42,-63.69 488.62,-43.96 542.82,-31.85"/>
<polygon fill="black" stroke="black" points="543.62,-35.26 552.62,-29.68 542.1,-28.43 543.62,-35.26"/>
<text text-anchor="middle" x="463.1" y="-57.8" font-family="Times New Roman,serif" font-size="14.00">0.105</text>
</g>
<!-- 4 -->
<g id="node5" class="node">
<title>4</title>
<g id="a_node5"><a xlink:href="to_academic librarian.svg" xlink:title="academic librarian">
<ellipse fill="none" stroke="black" cx="423.6" cy="-105" rx="76.09" ry="18"/>
<text text-anchor="middle" x="423.6" y="-101.3" font-family="Times New Roman,serif" font-size="14.00">academic librarian</text>
</a>
</g>
</g>
<!-- 4&#45;&gt;0 -->
<g id="edge5" class="edge">
<title>4&#45;&gt;0</title>
<path fill="none" stroke="black" d="M456.19,-88.61C486.16,-74.46 530.7,-53.42 562.97,-38.18"/>
<polygon fill="black" stroke="black" points="564.6,-41.29 572.15,-33.85 561.61,-34.96 564.6,-41.29"/>
<text text-anchor="middle" x="540.1" y="-57.8" font-family="Times New Roman,serif" font-size="14.00">0.052</text>
</g>
<!-- 5 -->
<g id="node6" class="node">
<title>5</title>
<g id="a_node6"><a xlink:href="to_aeronautical engineer.svg" xlink:title="aeronautical engineer">
<ellipse fill="none" stroke="black" cx="603.6" cy="-105" rx="85.59" ry="18"/>
<text text-anchor="middle" x="603.6" y="-101.3" font-family="Times New Roman,serif" font-size="14.00">aeronautical engineer</text>
</a>
</g>
</g>
<!-- 5&#45;&gt;0 -->
<g id="edge6" class="edge">
<title>5&#45;&gt;0</title>
<path fill="none" stroke="black" d="M603.6,-86.8C603.6,-75.16 603.6,-59.55 603.6,-46.24"/>
<polygon fill="black" stroke="black" points="607.1,-46.18 603.6,-36.18 600.1,-46.18 607.1,-46.18"/>
<text text-anchor="middle" x="619.1" y="-57.8" font-family="Times New Roman,serif" font-size="14.00">0.052</text>
</g>
<!-- 6 -->
<g id="node7" class="node">
<title>6</title>
<g id="a_node7"><a xlink:href="to_catering manager.svg" xlink:title="catering manager">
<ellipse fill="none" stroke="black" cx="778.6" cy="-105" rx="71.49" ry="18"/>
<text text-anchor="middle" x="778.6" y="-101.3" font-family="Times New Roman,serif" font-size="14.00">catering manager</text>
</a>
</g>
</g>
<!-- 6&#45;&gt;0 -->
<g id="edge7" class="edge">
<title>6&#45;&gt;0</title>
<path fill="none" stroke="black" d="M747.31,-88.8C718.44,-74.78 675.42,-53.89 643.97,-38.61"/>
<polygon fill="black" stroke="black" points="645.14,-35.29 634.61,-34.06 642.08,-41.58 645.14,-35.29"/>
<text text-anchor="middle" x="717.1" y="-57.8" font-family="Times New Roman,serif" font-size="14.00">0.052</text>
</g>
<!-- 7 -->
<g id="node8" class="node">
<title>7</title>
<g id="a_node8"><a xlink:href="to_counsellor.svg" xlink:title="counsellor">
<ellipse fill="none" stroke="black" cx="916.6" cy="-105" rx="48.19" ry="18"/>
<text text-anchor="middle" x="916.6" y="-101.3" font-family="Times New Roman,serif" font-size="14.00">counsellor</text>
</a>
</g>
</g>
<!-- 7&#45;&gt;0 -->
<g id="edge8" class="edge">
<title>7&#45;&gt;0</title>
<path fill="none" stroke="black" d="M880.12,-93.18C872.99,-91.1 865.56,-88.96 858.6,-87 790.58,-67.84 711.97,-47.08 660.22,-33.61"/>
<polygon fill="black" stroke="black" points="660.79,-30.15 650.23,-31.02 659.03,-36.92 660.79,-30.15"/>
<text text-anchor="middle" x="804.1" y="-57.8" font-family="Times New Roman,serif" font-size="14.00">0.052</text>
</g>
<!-- 8 -->
<g id="node9" class="node">
<title>8</title>
<g id="a_node9"><a xlink:href="to_heritage manager.svg" xlink:title="heritage manager">
<ellipse fill="none" stroke="black" cx="1054.6" cy="-105" rx="71.49" ry="18"/>
<text text-anchor="middle" x="1054.6" y="-101.3" font-family="Times New Roman,serif" font-size="14.00">heritage manager</text>
</a>
</g>
</g>
<!-- 8&#45;&gt;0 -->
<g id="edge9" class="edge">
<title>8&#45;&gt;0</title>
<path fill="none" stroke="black" d="M1003.84,-92.17C957.14,-81.48 885.9,-65.69 823.6,-54 772.46,-44.41 714.32,-35.23 670.65,-28.68"/>
<polygon fill="black" stroke="black" points="671.13,-25.22 660.72,-27.2 670.1,-32.14 671.13,-25.22"/>
<text text-anchor="middle" x="909.1" y="-57.8" font-family="Times New Roman,serif" font-size="14.00">0.052</text>
</g>
<!-- 9 -->
<g id="node10" class="node">
<title>9</title>
<g id="a_node10"><a xlink:href="to_legal executive.svg" xlink:title="legal executive">
<ellipse fill="none" stroke="black" cx="1207.6" cy="-105" rx="63.09" ry="18"/>
<text text-anchor="middle" x="1207.6" y="-101.3" font-family="Times New Roman,serif" font-size="14.00">legal executive</text>
</a>
</g>
</g>
<!-- 9&#45;&gt;0 -->
<g id="edge10" class="edge">
<title>9&#45;&gt;0</title>
<path fill="none" stroke="black" d="M1161.36,-92.72C1152.5,-90.7 1143.28,-88.7 1134.6,-87 972.36,-55.16 779.19,-34.73 676.42,-25.23"/>
<polygon fill="black" stroke="black" points="676.43,-21.72 666.16,-24.29 675.79,-28.69 676.43,-21.72"/>
<text text-anchor="middle" x="1034.1" y="-57.8" font-family="Times New Roman,serif" font-size="14.00">0.052</text>
</g>
</g>
</svg>
