<?xml version="1.0" encoding="UTF-8" standalone="no"?>
<!DOCTYPE svg PUBLIC "-//W3C//DTD SVG 1.1//EN"
 "http://www.w3.org/Graphics/SVG/1.1/DTD/svg11.dtd">
<!-- Generated by graphviz version 2.44.1 (20200629.0800)
 -->
<!-- Title: test Pages: 1 -->
<svg width="1555pt" height="131pt"
 viewBox="0.00 0.00 1555.23 131.00" xmlns="http://www.w3.org/2000/svg" xmlns:xlink="http://www.w3.org/1999/xlink">
<g id="graph0" class="graph" transform="scale(1 1) rotate(0) translate(4 127)">
<title>test</title>
<polygon fill="white" stroke="transparent" points="-4,4 -4,-127 1551.23,-127 1551.23,4 -4,4"/>
<!-- 0 -->
<g id="node1" class="node">
<title>0</title>
<g id="a_node1"><a xlink:href="to_building surveyor.svg" xlink:title="building surveyor">
<ellipse fill="none" stroke="black" cx="724.89" cy="-18" rx="73.39" ry="18"/>
<text text-anchor="middle" x="724.89" y="-14.3" font-family="Times New Roman,serif" font-size="14.00">building surveyor</text>
</a>
</g>
</g>
<!-- 0&#45;&gt;0 -->
<g id="edge1" class="edge">
<title>0&#45;&gt;0</title>
<path fill="none" stroke="black" d="M791.47,-25.64C805.89,-24.9 816.34,-22.35 816.34,-18 816.34,-14.74 810.46,-12.49 801.44,-11.26"/>
<polygon fill="black" stroke="black" points="801.75,-7.77 791.47,-10.36 801.12,-14.74 801.75,-7.77"/>
<text text-anchor="middle" x="831.84" y="-14.3" font-family="Times New Roman,serif" font-size="14.00">0.257</text>
</g>
<!-- 1 -->
<g id="node2" class="node">
<title>1</title>
<g id="a_node2"><a xlink:href="to_project manager.svg" xlink:title="project manager">
<ellipse fill="none" stroke="black" cx="68.89" cy="-105" rx="68.79" ry="18"/>
<text text-anchor="middle" x="68.89" y="-101.3" font-family="Times New Roman,serif" font-size="14.00">project manager</text>
</a>
</g>
</g>
<!-- 1&#45;&gt;0 -->
<g id="edge2" class="edge">
<title>1&#45;&gt;0</title>
<path fill="none" stroke="black" d="M119.14,-92.5C128.35,-90.55 137.89,-88.63 146.89,-87 323.82,-55.01 534.05,-34.64 645.8,-25.19"/>
<polygon fill="black" stroke="black" points="646.3,-28.66 655.98,-24.34 645.72,-21.68 646.3,-28.66"/>
<text text-anchor="middle" x="368.39" y="-57.8" font-family="Times New Roman,serif" font-size="14.00">0.103</text>
</g>
<!-- 2 -->
<g id="node3" class="node">
<title>2</title>
<g id="a_node3"><a xlink:href="to_structural engineer.svg" xlink:title="structural engineer">
<ellipse fill="none" stroke="black" cx="232.89" cy="-105" rx="76.89" ry="18"/>
<text text-anchor="middle" x="232.89" y="-101.3" font-family="Times New Roman,serif" font-size="14.00">structural engineer</text>
</a>
</g>
</g>
<!-- 2&#45;&gt;0 -->
<g id="edge3" class="edge">
<title>2&#45;&gt;0</title>
<path fill="none" stroke="black" d="M289.32,-92.81C299.18,-90.86 309.33,-88.87 318.89,-87 394.86,-72.16 413.6,-67.04 489.89,-54 544.25,-44.71 605.92,-35.58 652.45,-28.97"/>
<polygon fill="black" stroke="black" points="653.02,-32.43 662.44,-27.56 652.04,-25.5 653.02,-32.43"/>
<text text-anchor="middle" x="505.39" y="-57.8" font-family="Times New Roman,serif" font-size="14.00">0.072</text>
</g>
<!-- 3 -->
<g id="node4" class="node">
<title>3</title>
<g id="a_node4"><a xlink:href="to_site manager.svg" xlink:title="site manager">
<ellipse fill="none" stroke="black" cx="383.89" cy="-105" rx="55.79" ry="18"/>
<text text-anchor="middle" x="383.89" y="-101.3" font-family="Times New Roman,serif" font-size="14.00">site manager</text>
</a>
</g>
</g>
<!-- 3&#45;&gt;0 -->
<g id="edge4" class="edge">
<title>3&#45;&gt;0</title>
<path fill="none" stroke="black" d="M425.83,-92.94C433.5,-90.94 441.43,-88.89 448.89,-87 523.12,-68.15 608.77,-47.17 664.73,-33.56"/>
<polygon fill="black" stroke="black" points="665.59,-36.96 674.48,-31.19 663.93,-30.15 665.59,-36.96"/>
<text text-anchor="middle" x="593.39" y="-57.8" font-family="Times New Roman,serif" font-size="14.00">0.061</text>
</g>
<!-- 4 -->
<g id="node5" class="node">
<title>4</title>
<g id="a_node5"><a xlink:href="to_production manager.svg" xlink:title="production manager">
<ellipse fill="none" stroke="black" cx="540.89" cy="-105" rx="83.39" ry="18"/>
<text text-anchor="middle" x="540.89" y="-101.3" font-family="Times New Roman,serif" font-size="14.00">production manager</text>
</a>
</g>
</g>
<!-- 4&#45;&gt;0 -->
<g id="edge5" class="edge">
<title>4&#45;&gt;0</title>
<path fill="none" stroke="black" d="M574.64,-88.41C605.05,-74.36 649.87,-53.66 682.65,-38.51"/>
<polygon fill="black" stroke="black" points="684.37,-41.58 691.98,-34.21 681.43,-35.22 684.37,-41.58"/>
<text text-anchor="middle" x="660.39" y="-57.8" font-family="Times New Roman,serif" font-size="14.00">0.041</text>
</g>
<!-- 5 -->
<g id="node6" class="node">
<title>5</title>
<g id="a_node6"><a xlink:href="to_mechanical engineer.svg" xlink:title="mechanical engineer">
<ellipse fill="none" stroke="black" cx="724.89" cy="-105" rx="83.39" ry="18"/>
<text text-anchor="middle" x="724.89" y="-101.3" font-family="Times New Roman,serif" font-size="14.00">mechanical engineer</text>
</a>
</g>
</g>
<!-- 5&#45;&gt;0 -->
<g id="edge6" class="edge">
<title>5&#45;&gt;0</title>
<path fill="none" stroke="black" d="M724.89,-86.8C724.89,-75.16 724.89,-59.55 724.89,-46.24"/>
<polygon fill="black" stroke="black" points="728.39,-46.18 724.89,-36.18 721.39,-46.18 728.39,-46.18"/>
<text text-anchor="middle" x="740.39" y="-57.8" font-family="Times New Roman,serif" font-size="14.00">0.030</text>
</g>
<!-- 6 -->
<g id="node7" class="node">
<title>6</title>
<g id="a_node7"><a xlink:href="to_office manager.svg" xlink:title="office manager">
<ellipse fill="none" stroke="black" cx="890.89" cy="-105" rx="64.19" ry="18"/>
<text text-anchor="middle" x="890.89" y="-101.3" font-family="Times New Roman,serif" font-size="14.00">office manager</text>
</a>
</g>
</g>
<!-- 6&#45;&gt;0 -->
<g id="edge7" class="edge">
<title>6&#45;&gt;0</title>
<path fill="none" stroke="black" d="M861.22,-88.8C834.2,-74.97 794.13,-54.45 764.41,-39.23"/>
<polygon fill="black" stroke="black" points="765.65,-35.94 755.16,-34.5 762.46,-42.17 765.65,-35.94"/>
<text text-anchor="middle" x="833.39" y="-57.8" font-family="Times New Roman,serif" font-size="14.00">0.020</text>
</g>
<!-- 7 -->
<g id="node8" class="node">
<title>7</title>
<g id="a_node8"><a xlink:href="to_pharmacovigilance officer.svg" xlink:title="pharmacovigilance officer">
<ellipse fill="none" stroke="black" cx="1077.89" cy="-105" rx="104.78" ry="18"/>
<text text-anchor="middle" x="1077.89" y="-101.3" font-family="Times New Roman,serif" font-size="14.00">pharmacovigilance officer</text>
</a>
</g>
</g>
<!-- 7&#45;&gt;0 -->
<g id="edge8" class="edge">
<title>7&#45;&gt;0</title>
<path fill="none" stroke="black" d="M1019.6,-89.96C954.78,-74.36 850.6,-49.27 785.04,-33.48"/>
<polygon fill="black" stroke="black" points="785.8,-30.07 775.26,-31.13 784.16,-36.87 785.8,-30.07"/>
<text text-anchor="middle" x="938.39" y="-57.8" font-family="Times New Roman,serif" font-size="14.00">0.020</text>
</g>
<!-- 8 -->
<g id="node9" class="node">
<title>8</title>
<g id="a_node9"><a xlink:href="to_sales manager.svg" xlink:title="sales manager">
<ellipse fill="none" stroke="black" cx="1261.89" cy="-105" rx="61.19" ry="18"/>
<text text-anchor="middle" x="1261.89" y="-101.3" font-family="Times New Roman,serif" font-size="14.00">sales manager</text>
</a>
</g>
</g>
<!-- 8&#45;&gt;0 -->
<g id="edge9" class="edge">
<title>8&#45;&gt;0</title>
<path fill="none" stroke="black" d="M1217.59,-92.58C1209.1,-90.58 1200.24,-88.62 1191.89,-87 1054.47,-60.37 892.48,-39 799.92,-27.73"/>
<polygon fill="black" stroke="black" points="800.15,-24.23 789.81,-26.5 799.31,-31.18 800.15,-24.23"/>
<text text-anchor="middle" x="1105.39" y="-57.8" font-family="Times New Roman,serif" font-size="14.00">0.020</text>
</g>
<!-- 9 -->
<g id="node10" class="node">
<title>9</title>
<g id="a_node10"><a xlink:href="to_town and country planner.svg" xlink:title="town and country planner">
<ellipse fill="none" stroke="black" cx="1443.89" cy="-105" rx="103.18" ry="18"/>
<text text-anchor="middle" x="1443.89" y="-101.3" font-family="Times New Roman,serif" font-size="14.00">town and country planner</text>
</a>
</g>
</g>
<!-- 9&#45;&gt;0 -->
<g id="edge10" class="edge">
<title>9&#45;&gt;0</title>
<path fill="none" stroke="black" d="M1374.08,-91.65C1309.58,-80.58 1211.01,-64.5 1124.89,-54 1014.24,-40.5 885.75,-30.21 804.88,-24.39"/>
<polygon fill="black" stroke="black" points="805,-20.89 794.77,-23.66 804.5,-27.87 805,-20.89"/>
<text text-anchor="middle" x="1245.39" y="-57.8" font-family="Times New Roman,serif" font-size="14.00">0.020</text>
</g>
</g>
</svg>
