<?xml version="1.0" encoding="UTF-8" standalone="no"?>
<!DOCTYPE svg PUBLIC "-//W3C//DTD SVG 1.1//EN"
 "http://www.w3.org/Graphics/SVG/1.1/DTD/svg11.dtd">
<!-- Generated by graphviz version 2.44.1 (20200629.0800)
 -->
<!-- Title: test Pages: 1 -->
<svg width="1437pt" height="131pt"
 viewBox="0.00 0.00 1436.99 131.00" xmlns="http://www.w3.org/2000/svg" xmlns:xlink="http://www.w3.org/1999/xlink">
<g id="graph0" class="graph" transform="scale(1 1) rotate(0) translate(4 127)">
<title>test</title>
<polygon fill="white" stroke="transparent" points="-4,4 -4,-127 1432.99,-127 1432.99,4 -4,4"/>
<!-- 0 -->
<g id="node1" class="node">
<title>0</title>
<g id="a_node1"><a xlink:href="to_barrister.svg" xlink:title="barrister">
<ellipse fill="none" stroke="black" cx="739.7" cy="-18" rx="40.09" ry="18"/>
<text text-anchor="middle" x="739.7" y="-14.3" font-family="Times New Roman,serif" font-size="14.00">barrister</text>
</a>
</g>
</g>
<!-- 0&#45;&gt;0 -->
<g id="edge1" class="edge">
<title>0&#45;&gt;0</title>
<path fill="none" stroke="black" d="M776.13,-25.88C788.28,-25.88 797.99,-23.25 797.99,-18 797.99,-14.31 793.19,-11.91 786.12,-10.82"/>
<polygon fill="black" stroke="black" points="786.35,-7.33 776.13,-10.13 785.87,-14.31 786.35,-7.33"/>
<text text-anchor="middle" x="813.49" y="-14.3" font-family="Times New Roman,serif" font-size="14.00">0.285</text>
</g>
<!-- 1 -->
<g id="node2" class="node">
<title>1</title>
<g id="a_node2"><a xlink:href="to_lecturer.svg" xlink:title="lecturer">
<ellipse fill="none" stroke="black" cx="37.7" cy="-105" rx="37.89" ry="18"/>
<text text-anchor="middle" x="37.7" y="-101.3" font-family="Times New Roman,serif" font-size="14.00">lecturer</text>
</a>
</g>
</g>
<!-- 1&#45;&gt;0 -->
<g id="edge2" class="edge">
<title>1&#45;&gt;0</title>
<path fill="none" stroke="black" d="M65.72,-92.73C71.9,-90.57 78.46,-88.51 84.7,-87 305.35,-33.5 577.83,-22.08 688.94,-19.65"/>
<polygon fill="black" stroke="black" points="689.26,-23.15 699.19,-19.45 689.12,-16.15 689.26,-23.15"/>
<text text-anchor="middle" x="260.2" y="-57.8" font-family="Times New Roman,serif" font-size="14.00">0.142</text>
</g>
<!-- 2 -->
<g id="node3" class="node">
<title>2</title>
<g id="a_node3"><a xlink:href="to_academic librarian.svg" xlink:title="academic librarian">
<ellipse fill="none" stroke="black" cx="169.7" cy="-105" rx="76.09" ry="18"/>
<text text-anchor="middle" x="169.7" y="-101.3" font-family="Times New Roman,serif" font-size="14.00">academic librarian</text>
</a>
</g>
</g>
<!-- 2&#45;&gt;0 -->
<g id="edge3" class="edge">
<title>2&#45;&gt;0</title>
<path fill="none" stroke="black" d="M224.94,-92.47C234.83,-90.54 245.05,-88.64 254.7,-87 413.78,-59.96 603.55,-35.64 691.07,-24.87"/>
<polygon fill="black" stroke="black" points="691.73,-28.31 701.23,-23.62 690.88,-21.37 691.73,-28.31"/>
<text text-anchor="middle" x="483.2" y="-57.8" font-family="Times New Roman,serif" font-size="14.00">0.071</text>
</g>
<!-- 3 -->
<g id="node4" class="node">
<title>3</title>
<g id="a_node4"><a xlink:href="to_broadcasting presenter.svg" xlink:title="broadcasting presenter">
<ellipse fill="none" stroke="black" cx="356.7" cy="-105" rx="92.88" ry="18"/>
<text text-anchor="middle" x="356.7" y="-101.3" font-family="Times New Roman,serif" font-size="14.00">broadcasting presenter</text>
</a>
</g>
</g>
<!-- 3&#45;&gt;0 -->
<g id="edge4" class="edge">
<title>3&#45;&gt;0</title>
<path fill="none" stroke="black" d="M415.28,-91C492.08,-73.95 625.15,-44.42 694.58,-29.01"/>
<polygon fill="black" stroke="black" points="695.35,-32.43 704.35,-26.84 693.83,-25.59 695.35,-32.43"/>
<text text-anchor="middle" x="587.2" y="-57.8" font-family="Times New Roman,serif" font-size="14.00">0.071</text>
</g>
<!-- 4 -->
<g id="node5" class="node">
<title>4</title>
<g id="a_node5"><a xlink:href="to_corporate treasurer.svg" xlink:title="corporate treasurer">
<ellipse fill="none" stroke="black" cx="546.7" cy="-105" rx="79.09" ry="18"/>
<text text-anchor="middle" x="546.7" y="-101.3" font-family="Times New Roman,serif" font-size="14.00">corporate treasurer</text>
</a>
</g>
</g>
<!-- 4&#45;&gt;0 -->
<g id="edge5" class="edge">
<title>4&#45;&gt;0</title>
<path fill="none" stroke="black" d="M581.65,-88.61C615.8,-73.56 667.62,-50.74 702.52,-35.37"/>
<polygon fill="black" stroke="black" points="704.14,-38.48 711.88,-31.25 701.32,-32.08 704.14,-38.48"/>
<text text-anchor="middle" x="671.2" y="-57.8" font-family="Times New Roman,serif" font-size="14.00">0.071</text>
</g>
<!-- 5 -->
<g id="node6" class="node">
<title>5</title>
<g id="a_node6"><a xlink:href="to_education administrator.svg" xlink:title="education administrator">
<ellipse fill="none" stroke="black" cx="739.7" cy="-105" rx="95.58" ry="18"/>
<text text-anchor="middle" x="739.7" y="-101.3" font-family="Times New Roman,serif" font-size="14.00">education administrator</text>
</a>
</g>
</g>
<!-- 5&#45;&gt;0 -->
<g id="edge6" class="edge">
<title>5&#45;&gt;0</title>
<path fill="none" stroke="black" d="M739.7,-86.8C739.7,-75.16 739.7,-59.55 739.7,-46.24"/>
<polygon fill="black" stroke="black" points="743.2,-46.18 739.7,-36.18 736.2,-46.18 743.2,-46.18"/>
<text text-anchor="middle" x="755.2" y="-57.8" font-family="Times New Roman,serif" font-size="14.00">0.071</text>
</g>
<!-- 6 -->
<g id="node7" class="node">
<title>6</title>
<g id="a_node7"><a xlink:href="to_pharmacovigilance officer.svg" xlink:title="pharmacovigilance officer">
<ellipse fill="none" stroke="black" cx="957.7" cy="-105" rx="104.78" ry="18"/>
<text text-anchor="middle" x="957.7" y="-101.3" font-family="Times New Roman,serif" font-size="14.00">pharmacovigilance officer</text>
</a>
</g>
</g>
<!-- 6&#45;&gt;0 -->
<g id="edge7" class="edge">
<title>6&#45;&gt;0</title>
<path fill="none" stroke="black" d="M917.46,-88.31C877.88,-72.88 817.85,-49.47 778.7,-34.21"/>
<polygon fill="black" stroke="black" points="779.81,-30.88 769.22,-30.51 777.27,-37.4 779.81,-30.88"/>
<text text-anchor="middle" x="878.2" y="-57.8" font-family="Times New Roman,serif" font-size="14.00">0.071</text>
</g>
<!-- 7 -->
<g id="node8" class="node">
<title>7</title>
<g id="a_node8"><a xlink:href="to_police officer.svg" xlink:title="police officer">
<ellipse fill="none" stroke="black" cx="1139.7" cy="-105" rx="59.29" ry="18"/>
<text text-anchor="middle" x="1139.7" y="-101.3" font-family="Times New Roman,serif" font-size="14.00">police officer</text>
</a>
</g>
</g>
<!-- 7&#45;&gt;0 -->
<g id="edge8" class="edge">
<title>7&#45;&gt;0</title>
<path fill="none" stroke="black" d="M1095.87,-92.75C1087.84,-90.77 1079.53,-88.78 1071.7,-87 970.13,-63.91 850.27,-40.24 785.99,-27.83"/>
<polygon fill="black" stroke="black" points="786.64,-24.39 776.16,-25.94 785.32,-31.26 786.64,-24.39"/>
<text text-anchor="middle" x="996.2" y="-57.8" font-family="Times New Roman,serif" font-size="14.00">0.071</text>
</g>
<!-- 8 -->
<g id="node9" class="node">
<title>8</title>
<g id="a_node9"><a xlink:href="to_psychologist.svg" xlink:title="psychologist">
<ellipse fill="none" stroke="black" cx="1273.7" cy="-105" rx="57.39" ry="18"/>
<text text-anchor="middle" x="1273.7" y="-101.3" font-family="Times New Roman,serif" font-size="14.00">psychologist</text>
</a>
</g>
</g>
<!-- 8&#45;&gt;0 -->
<g id="edge9" class="edge">
<title>8&#45;&gt;0</title>
<path fill="none" stroke="black" d="M1231.92,-92.69C1223.91,-90.68 1215.56,-88.69 1207.7,-87 1056.46,-54.58 874.36,-33.05 788.73,-23.94"/>
<polygon fill="black" stroke="black" points="788.84,-20.43 778.53,-22.86 788.11,-27.39 788.84,-20.43"/>
<text text-anchor="middle" x="1121.2" y="-57.8" font-family="Times New Roman,serif" font-size="14.00">0.071</text>
</g>
<!-- 9 -->
<g id="node10" class="node">
<title>9</title>
<g id="a_node10"><a xlink:href="to_solicitor.svg" xlink:title="solicitor">
<ellipse fill="none" stroke="black" cx="1388.7" cy="-105" rx="40.09" ry="18"/>
<text text-anchor="middle" x="1388.7" y="-101.3" font-family="Times New Roman,serif" font-size="14.00">solicitor</text>
</a>
</g>
</g>
<!-- 9&#45;&gt;0 -->
<g id="edge10" class="edge">
<title>9&#45;&gt;0</title>
<path fill="none" stroke="black" d="M1358.88,-92.76C1352.6,-90.64 1345.98,-88.6 1339.7,-87 1140.55,-36.33 894.6,-23.39 790.28,-20.11"/>
<polygon fill="black" stroke="black" points="790.14,-16.6 780.04,-19.8 789.93,-23.6 790.14,-16.6"/>
<text text-anchor="middle" x="1258.2" y="-57.8" font-family="Times New Roman,serif" font-size="14.00">0.071</text>
</g>
</g>
</svg>
