<?xml version="1.0" encoding="UTF-8" standalone="no"?>
<!DOCTYPE svg PUBLIC "-//W3C//DTD SVG 1.1//EN"
 "http://www.w3.org/Graphics/SVG/1.1/DTD/svg11.dtd">
<!-- Generated by graphviz version 2.44.1 (20200629.0800)
 -->
<!-- Title: test Pages: 1 -->
<svg width="1461pt" height="131pt"
 viewBox="0.00 0.00 1460.69 131.00" xmlns="http://www.w3.org/2000/svg" xmlns:xlink="http://www.w3.org/1999/xlink">
<g id="graph0" class="graph" transform="scale(1 1) rotate(0) translate(4 127)">
<title>test</title>
<polygon fill="white" stroke="transparent" points="-4,4 -4,-127 1456.69,-127 1456.69,4 -4,4"/>
<!-- 0 -->
<g id="node1" class="node">
<title>0</title>
<g id="a_node1"><a xlink:href="to_biomedical scientist.svg" xlink:title="biomedical scientist">
<ellipse fill="none" stroke="black" cx="672.7" cy="-18" rx="81.79" ry="18"/>
<text text-anchor="middle" x="672.7" y="-14.3" font-family="Times New Roman,serif" font-size="14.00">biomedical scientist</text>
</a>
</g>
</g>
<!-- 0&#45;&gt;0 -->
<g id="edge1" class="edge">
<title>0&#45;&gt;0</title>
<path fill="none" stroke="black" d="M747.19,-25.55C762.02,-24.7 772.59,-22.18 772.59,-18 772.59,-14.86 766.64,-12.66 757.41,-11.4"/>
<polygon fill="black" stroke="black" points="757.47,-7.89 747.19,-10.45 756.82,-14.86 757.47,-7.89"/>
<text text-anchor="middle" x="788.09" y="-14.3" font-family="Times New Roman,serif" font-size="14.00">0.108</text>
</g>
<!-- 1 -->
<g id="node2" class="node">
<title>1</title>
<g id="a_node2"><a xlink:href="to_lecturer.svg" xlink:title="lecturer">
<ellipse fill="none" stroke="black" cx="37.7" cy="-105" rx="37.89" ry="18"/>
<text text-anchor="middle" x="37.7" y="-101.3" font-family="Times New Roman,serif" font-size="14.00">lecturer</text>
</a>
</g>
</g>
<!-- 1&#45;&gt;0 -->
<g id="edge2" class="edge">
<title>1&#45;&gt;0</title>
<path fill="none" stroke="black" d="M65.72,-92.74C71.9,-90.58 78.46,-88.52 84.7,-87 257.72,-44.95 465.89,-28.67 582.37,-22.54"/>
<polygon fill="black" stroke="black" points="582.86,-26.02 592.67,-22.01 582.5,-19.03 582.86,-26.02"/>
<text text-anchor="middle" x="260.2" y="-57.8" font-family="Times New Roman,serif" font-size="14.00">0.081</text>
</g>
<!-- 2 -->
<g id="node3" class="node">
<title>2</title>
<g id="a_node3"><a xlink:href="to_materials specialist.svg" xlink:title="materials specialist">
<ellipse fill="none" stroke="black" cx="171.7" cy="-105" rx="77.99" ry="18"/>
<text text-anchor="middle" x="171.7" y="-101.3" font-family="Times New Roman,serif" font-size="14.00">materials specialist</text>
</a>
</g>
</g>
<!-- 2&#45;&gt;0 -->
<g id="edge3" class="edge">
<title>2&#45;&gt;0</title>
<path fill="none" stroke="black" d="M228.75,-92.64C238.73,-90.72 249.01,-88.77 258.7,-87 376.66,-65.45 514.12,-43.49 597.21,-30.57"/>
<polygon fill="black" stroke="black" points="597.98,-33.99 607.32,-29 596.9,-27.07 597.98,-33.99"/>
<text text-anchor="middle" x="456.2" y="-57.8" font-family="Times New Roman,serif" font-size="14.00">0.081</text>
</g>
<!-- 3 -->
<g id="node4" class="node">
<title>3</title>
<g id="a_node4"><a xlink:href="to_research scientist.svg" xlink:title="research scientist">
<ellipse fill="none" stroke="black" cx="340.7" cy="-105" rx="72.59" ry="18"/>
<text text-anchor="middle" x="340.7" y="-101.3" font-family="Times New Roman,serif" font-size="14.00">research scientist</text>
</a>
</g>
</g>
<!-- 3&#45;&gt;0 -->
<g id="edge4" class="edge">
<title>3&#45;&gt;0</title>
<path fill="none" stroke="black" d="M389.33,-91.55C448.22,-76.47 547.48,-51.06 611.52,-34.66"/>
<polygon fill="black" stroke="black" points="612.66,-37.98 621.48,-32.11 610.92,-31.2 612.66,-37.98"/>
<text text-anchor="middle" x="542.2" y="-57.8" font-family="Times New Roman,serif" font-size="14.00">0.081</text>
</g>
<!-- 4 -->
<g id="node5" class="node">
<title>4</title>
<g id="a_node5"><a xlink:href="to_clinical biochemist.svg" xlink:title="clinical biochemist">
<ellipse fill="none" stroke="black" cx="508.7" cy="-105" rx="77.19" ry="18"/>
<text text-anchor="middle" x="508.7" y="-101.3" font-family="Times New Roman,serif" font-size="14.00">clinical biochemist</text>
</a>
</g>
</g>
<!-- 4&#45;&gt;0 -->
<g id="edge5" class="edge">
<title>4&#45;&gt;0</title>
<path fill="none" stroke="black" d="M538.78,-88.41C565.31,-74.66 604.17,-54.52 633.2,-39.47"/>
<polygon fill="black" stroke="black" points="634.98,-42.49 642.25,-34.78 631.76,-36.27 634.98,-42.49"/>
<text text-anchor="middle" x="616.2" y="-57.8" font-family="Times New Roman,serif" font-size="14.00">0.054</text>
</g>
<!-- 5 -->
<g id="node6" class="node">
<title>5</title>
<g id="a_node6"><a xlink:href="to_project manager.svg" xlink:title="project manager">
<ellipse fill="none" stroke="black" cx="672.7" cy="-105" rx="68.79" ry="18"/>
<text text-anchor="middle" x="672.7" y="-101.3" font-family="Times New Roman,serif" font-size="14.00">project manager</text>
</a>
</g>
</g>
<!-- 5&#45;&gt;0 -->
<g id="edge6" class="edge">
<title>5&#45;&gt;0</title>
<path fill="none" stroke="black" d="M672.7,-86.8C672.7,-75.16 672.7,-59.55 672.7,-46.24"/>
<polygon fill="black" stroke="black" points="676.2,-46.18 672.7,-36.18 669.2,-46.18 676.2,-46.18"/>
<text text-anchor="middle" x="688.2" y="-57.8" font-family="Times New Roman,serif" font-size="14.00">0.054</text>
</g>
<!-- 6 -->
<g id="node7" class="node">
<title>6</title>
<g id="a_node7"><a xlink:href="to_quality assurance manager.svg" xlink:title="quality assurance manager">
<ellipse fill="none" stroke="black" cx="864.7" cy="-105" rx="105.08" ry="18"/>
<text text-anchor="middle" x="864.7" y="-101.3" font-family="Times New Roman,serif" font-size="14.00">quality assurance manager</text>
</a>
</g>
</g>
<!-- 6&#45;&gt;0 -->
<g id="edge7" class="edge">
<title>6&#45;&gt;0</title>
<path fill="none" stroke="black" d="M828.58,-88.01C796.81,-73.95 750.46,-53.43 716.56,-38.42"/>
<polygon fill="black" stroke="black" points="717.92,-35.19 707.36,-34.34 715.08,-41.59 717.92,-35.19"/>
<text text-anchor="middle" x="796.2" y="-57.8" font-family="Times New Roman,serif" font-size="14.00">0.054</text>
</g>
<!-- 7 -->
<g id="node8" class="node">
<title>7</title>
<g id="a_node8"><a xlink:href="to_teaching assistant.svg" xlink:title="teaching assistant">
<ellipse fill="none" stroke="black" cx="1061.7" cy="-105" rx="73.39" ry="18"/>
<text text-anchor="middle" x="1061.7" y="-101.3" font-family="Times New Roman,serif" font-size="14.00">teaching assistant</text>
</a>
</g>
</g>
<!-- 7&#45;&gt;0 -->
<g id="edge8" class="edge">
<title>7&#45;&gt;0</title>
<path fill="none" stroke="black" d="M1008.83,-92.45C938.65,-77.11 814.74,-50.04 738.56,-33.39"/>
<polygon fill="black" stroke="black" points="739.11,-29.93 728.6,-31.21 737.62,-36.77 739.11,-29.93"/>
<text text-anchor="middle" x="906.2" y="-57.8" font-family="Times New Roman,serif" font-size="14.00">0.054</text>
</g>
<!-- 8 -->
<g id="node9" class="node">
<title>8</title>
<g id="a_node9"><a xlink:href="to_academic librarian.svg" xlink:title="academic librarian">
<ellipse fill="none" stroke="black" cx="1228.7" cy="-105" rx="76.09" ry="18"/>
<text text-anchor="middle" x="1228.7" y="-101.3" font-family="Times New Roman,serif" font-size="14.00">academic librarian</text>
</a>
</g>
</g>
<!-- 8&#45;&gt;0 -->
<g id="edge9" class="edge">
<title>8&#45;&gt;0</title>
<path fill="none" stroke="black" d="M1173.44,-92.56C1163.55,-90.62 1153.33,-88.69 1143.7,-87 1006.5,-62.91 845.71,-41.05 751.92,-28.94"/>
<polygon fill="black" stroke="black" points="752.31,-25.46 741.94,-27.66 751.41,-32.4 752.31,-25.46"/>
<text text-anchor="middle" x="1043.2" y="-57.8" font-family="Times New Roman,serif" font-size="14.00">0.027</text>
</g>
<!-- 9 -->
<g id="node10" class="node">
<title>9</title>
<g id="a_node10"><a xlink:href="to_careers adviser.svg" xlink:title="careers adviser">
<ellipse fill="none" stroke="black" cx="1387.7" cy="-105" rx="64.99" ry="18"/>
<text text-anchor="middle" x="1387.7" y="-101.3" font-family="Times New Roman,serif" font-size="14.00">careers adviser</text>
</a>
</g>
</g>
<!-- 9&#45;&gt;0 -->
<g id="edge10" class="edge">
<title>9&#45;&gt;0</title>
<path fill="none" stroke="black" d="M1340.46,-92.44C1331.6,-90.48 1322.39,-88.57 1313.7,-87 1117.93,-51.73 884.98,-32.65 760.87,-24.29"/>
<polygon fill="black" stroke="black" points="760.88,-20.78 750.67,-23.61 760.41,-27.77 760.88,-20.78"/>
<text text-anchor="middle" x="1207.2" y="-57.8" font-family="Times New Roman,serif" font-size="14.00">0.027</text>
</g>
</g>
</svg>
