<?xml version="1.0" encoding="UTF-8" standalone="no"?>
<!DOCTYPE svg PUBLIC "-//W3C//DTD SVG 1.1//EN"
 "http://www.w3.org/Graphics/SVG/1.1/DTD/svg11.dtd">
<!-- Generated by graphviz version 2.44.1 (20200629.0800)
 -->
<!-- Title: commissioning_editor Pages: 1 -->
<svg width="1131pt" height="131pt"
 viewBox="0.00 0.00 1131.04 131.00" xmlns="http://www.w3.org/2000/svg" xmlns:xlink="http://www.w3.org/1999/xlink">
<g id="graph0" class="graph" transform="scale(1 1) rotate(0) translate(4 127)">
<title>commissioning_editor</title>
<polygon fill="white" stroke="transparent" points="-4,4 -4,-127 1127.04,-127 1127.04,4 -4,4"/>
<!-- 0 -->
<g id="node1" class="node">
<title>0</title>
<g id="a_node1"><a xlink:href="to_commissioning editor.svg" xlink:title="commissioning editor">
<ellipse fill="none" stroke="black" cx="602.55" cy="-18" rx="89.08" ry="18"/>
<text text-anchor="middle" x="602.55" y="-14.3" font-family="Times New Roman,serif" font-size="14.00">commissioning editor</text>
</a>
</g>
</g>
<!-- 0&#45;&gt;0 -->
<g id="edge1" class="edge">
<title>0&#45;&gt;0</title>
<path fill="none" stroke="black" d="M683.76,-25.47C698.92,-24.55 709.59,-22.06 709.59,-18 709.59,-14.92 703.46,-12.75 693.9,-11.47"/>
<polygon fill="black" stroke="black" points="694.04,-7.97 683.76,-10.53 693.39,-14.94 694.04,-7.97"/>
<text text-anchor="middle" x="725.09" y="-14.3" font-family="Times New Roman,serif" font-size="14.00">0.216</text>
</g>
<!-- 1 -->
<g id="node2" class="node">
<title>1</title>
<g id="a_node2"><a xlink:href="to_journalist.svg" xlink:title="journalist">
<ellipse fill="none" stroke="black" cx="43.55" cy="-105" rx="43.59" ry="18"/>
<text text-anchor="middle" x="43.55" y="-101.3" font-family="Times New Roman,serif" font-size="14.00">journalist</text>
</a>
</g>
</g>
<!-- 1&#45;&gt;0 -->
<g id="edge2" class="edge">
<title>1&#45;&gt;0</title>
<path fill="none" stroke="black" d="M75.83,-92.74C82.62,-90.62 89.77,-88.59 96.55,-87 239.16,-53.61 408.49,-34.99 510.63,-25.99"/>
<polygon fill="black" stroke="black" points="510.95,-29.48 520.61,-25.12 510.34,-22.5 510.95,-29.48"/>
<text text-anchor="middle" x="278.05" y="-57.8" font-family="Times New Roman,serif" font-size="14.00">0.135</text>
</g>
<!-- 2 -->
<g id="node3" class="node">
<title>2</title>
<g id="a_node3"><a xlink:href="to_content manager.svg" xlink:title="content manager">
<ellipse fill="none" stroke="black" cx="175.55" cy="-105" rx="70.39" ry="18"/>
<text text-anchor="middle" x="175.55" y="-101.3" font-family="Times New Roman,serif" font-size="14.00">content manager</text>
</a>
</g>
</g>
<!-- 2&#45;&gt;0 -->
<g id="edge3" class="edge">
<title>2&#45;&gt;0</title>
<path fill="none" stroke="black" d="M227.36,-92.7C236.42,-90.77 245.75,-88.81 254.55,-87 349.52,-67.5 459.36,-46.26 529.82,-32.79"/>
<polygon fill="black" stroke="black" points="530.76,-36.18 539.92,-30.87 529.45,-29.3 530.76,-36.18"/>
<text text-anchor="middle" x="432.05" y="-57.8" font-family="Times New Roman,serif" font-size="14.00">0.067</text>
</g>
<!-- 3 -->
<g id="node4" class="node">
<title>3</title>
<g id="a_node4"><a xlink:href="to_marketing executive.svg" xlink:title="marketing executive">
<ellipse fill="none" stroke="black" cx="345.55" cy="-105" rx="81.79" ry="18"/>
<text text-anchor="middle" x="345.55" y="-101.3" font-family="Times New Roman,serif" font-size="14.00">marketing executive</text>
</a>
</g>
</g>
<!-- 3&#45;&gt;0 -->
<g id="edge4" class="edge">
<title>3&#45;&gt;0</title>
<path fill="none" stroke="black" d="M388.85,-89.68C432.88,-75.11 501.2,-52.52 548.7,-36.81"/>
<polygon fill="black" stroke="black" points="549.8,-40.13 558.2,-33.67 547.61,-33.48 549.8,-40.13"/>
<text text-anchor="middle" x="505.05" y="-57.8" font-family="Times New Roman,serif" font-size="14.00">0.040</text>
</g>
<!-- 4 -->
<g id="node5" class="node">
<title>4</title>
<g id="a_node5"><a xlink:href="to_press editor.svg" xlink:title="press editor">
<ellipse fill="none" stroke="black" cx="499.55" cy="-105" rx="53.89" ry="18"/>
<text text-anchor="middle" x="499.55" y="-101.3" font-family="Times New Roman,serif" font-size="14.00">press editor</text>
</a>
</g>
</g>
<!-- 4&#45;&gt;0 -->
<g id="edge5" class="edge">
<title>4&#45;&gt;0</title>
<path fill="none" stroke="black" d="M518.92,-88.01C534.59,-75.08 556.85,-56.71 574.47,-42.17"/>
<polygon fill="black" stroke="black" points="576.72,-44.85 582.2,-35.79 572.26,-39.45 576.72,-44.85"/>
<text text-anchor="middle" x="573.05" y="-57.8" font-family="Times New Roman,serif" font-size="14.00">0.040</text>
</g>
<!-- 5 -->
<g id="node6" class="node">
<title>5</title>
<g id="a_node6"><a xlink:href="to_writer.svg" xlink:title="writer">
<ellipse fill="none" stroke="black" cx="602.55" cy="-105" rx="31.4" ry="18"/>
<text text-anchor="middle" x="602.55" y="-101.3" font-family="Times New Roman,serif" font-size="14.00">writer</text>
</a>
</g>
</g>
<!-- 5&#45;&gt;0 -->
<g id="edge6" class="edge">
<title>5&#45;&gt;0</title>
<path fill="none" stroke="black" d="M602.55,-86.8C602.55,-75.16 602.55,-59.55 602.55,-46.24"/>
<polygon fill="black" stroke="black" points="606.05,-46.18 602.55,-36.18 599.05,-46.18 606.05,-46.18"/>
<text text-anchor="middle" x="618.05" y="-57.8" font-family="Times New Roman,serif" font-size="14.00">0.040</text>
</g>
<!-- 6 -->
<g id="node7" class="node">
<title>6</title>
<g id="a_node7"><a xlink:href="to_it consultant.svg" xlink:title="it consultant">
<ellipse fill="none" stroke="black" cx="706.55" cy="-105" rx="54.69" ry="18"/>
<text text-anchor="middle" x="706.55" y="-101.3" font-family="Times New Roman,serif" font-size="14.00">it consultant</text>
</a>
</g>
</g>
<!-- 6&#45;&gt;0 -->
<g id="edge7" class="edge">
<title>6&#45;&gt;0</title>
<path fill="none" stroke="black" d="M686.98,-88.01C671.17,-75.08 648.68,-56.71 630.89,-42.17"/>
<polygon fill="black" stroke="black" points="633.05,-39.41 623.09,-35.79 628.62,-44.83 633.05,-39.41"/>
<text text-anchor="middle" x="676.05" y="-57.8" font-family="Times New Roman,serif" font-size="14.00">0.027</text>
</g>
<!-- 7 -->
<g id="node8" class="node">
<title>7</title>
<g id="a_node8"><a xlink:href="to_lecturer.svg" xlink:title="lecturer">
<ellipse fill="none" stroke="black" cx="816.55" cy="-105" rx="37.89" ry="18"/>
<text text-anchor="middle" x="816.55" y="-101.3" font-family="Times New Roman,serif" font-size="14.00">lecturer</text>
</a>
</g>
</g>
<!-- 7&#45;&gt;0 -->
<g id="edge8" class="edge">
<title>7&#45;&gt;0</title>
<path fill="none" stroke="black" d="M789.26,-92.43C764.8,-82.13 727.89,-66.77 695.55,-54 681.73,-48.55 666.68,-42.8 652.79,-37.58"/>
<polygon fill="black" stroke="black" points="653.99,-34.29 643.4,-34.05 651.53,-40.84 653.99,-34.29"/>
<text text-anchor="middle" x="747.05" y="-57.8" font-family="Times New Roman,serif" font-size="14.00">0.027</text>
</g>
<!-- 8 -->
<g id="node9" class="node">
<title>8</title>
<g id="a_node9"><a xlink:href="to_pr officer.svg" xlink:title="pr officer">
<ellipse fill="none" stroke="black" cx="917.55" cy="-105" rx="44.69" ry="18"/>
<text text-anchor="middle" x="917.55" y="-101.3" font-family="Times New Roman,serif" font-size="14.00">pr officer</text>
</a>
</g>
</g>
<!-- 8&#45;&gt;0 -->
<g id="edge9" class="edge">
<title>8&#45;&gt;0</title>
<path fill="none" stroke="black" d="M885.46,-92.24C855.1,-81.38 808.12,-65.28 766.55,-54 737.01,-45.99 704.09,-38.65 675.53,-32.79"/>
<polygon fill="black" stroke="black" points="676.12,-29.34 665.62,-30.78 674.73,-36.2 676.12,-29.34"/>
<text text-anchor="middle" x="832.05" y="-57.8" font-family="Times New Roman,serif" font-size="14.00">0.027</text>
</g>
<!-- 9 -->
<g id="node10" class="node">
<title>9</title>
<g id="a_node10"><a xlink:href="to_records manager.svg" xlink:title="records manager">
<ellipse fill="none" stroke="black" cx="1051.55" cy="-105" rx="71.49" ry="18"/>
<text text-anchor="middle" x="1051.55" y="-101.3" font-family="Times New Roman,serif" font-size="14.00">records manager</text>
</a>
</g>
</g>
<!-- 9&#45;&gt;0 -->
<g id="edge10" class="edge">
<title>9&#45;&gt;0</title>
<path fill="none" stroke="black" d="M1005.78,-91.1C965.44,-80.08 904.95,-64.4 851.55,-54 797.64,-43.5 736.58,-34.87 688.42,-28.81"/>
<polygon fill="black" stroke="black" points="688.71,-25.31 678.35,-27.55 687.84,-32.26 688.71,-25.31"/>
<text text-anchor="middle" x="933.05" y="-57.8" font-family="Times New Roman,serif" font-size="14.00">0.027</text>
</g>
</g>
</svg>
