<?xml version="1.0" encoding="UTF-8" standalone="no"?>
<!DOCTYPE svg PUBLIC "-//W3C//DTD SVG 1.1//EN"
 "http://www.w3.org/Graphics/SVG/1.1/DTD/svg11.dtd">
<!-- Generated by graphviz version 2.44.1 (20200629.0800)
 -->
<!-- Title: test Pages: 1 -->
<svg width="1576pt" height="131pt"
 viewBox="0.00 0.00 1575.54 131.00" xmlns="http://www.w3.org/2000/svg" xmlns:xlink="http://www.w3.org/1999/xlink">
<g id="graph0" class="graph" transform="scale(1 1) rotate(0) translate(4 127)">
<title>test</title>
<polygon fill="white" stroke="transparent" points="-4,4 -4,-127 1571.54,-127 1571.54,4 -4,4"/>
<!-- 0 -->
<g id="node1" class="node">
<title>0</title>
<g id="a_node1"><a xlink:href="to_control and instrumentation engineer.svg" xlink:title="control and instrumentation engineer">
<ellipse fill="none" stroke="black" cx="793.74" cy="-18" rx="141.88" ry="18"/>
<text text-anchor="middle" x="793.74" y="-14.3" font-family="Times New Roman,serif" font-size="14.00">control and instrumentation engineer</text>
</a>
</g>
</g>
<!-- 0&#45;&gt;0 -->
<g id="edge1" class="edge">
<title>0&#45;&gt;0</title>
<path fill="none" stroke="black" d="M924.69,-24.94C941.97,-23.76 953.43,-21.45 953.43,-18 953.43,-15.28 946.29,-13.27 934.79,-11.96"/>
<polygon fill="black" stroke="black" points="934.96,-8.46 924.69,-11.06 934.34,-15.43 934.96,-8.46"/>
<text text-anchor="middle" x="965.93" y="-14.3" font-family="Times New Roman,serif" font-size="14.00">0.16</text>
</g>
<!-- 1 -->
<g id="node2" class="node">
<title>1</title>
<g id="a_node2"><a xlink:href="to_electrical engineer.svg" xlink:title="electrical engineer">
<ellipse fill="none" stroke="black" cx="74.74" cy="-105" rx="74.99" ry="18"/>
<text text-anchor="middle" x="74.74" y="-101.3" font-family="Times New Roman,serif" font-size="14.00">electrical engineer</text>
</a>
</g>
</g>
<!-- 1&#45;&gt;0 -->
<g id="edge2" class="edge">
<title>1&#45;&gt;0</title>
<path fill="none" stroke="black" d="M129.15,-92.52C138.67,-90.61 148.48,-88.7 157.74,-87 248.08,-70.45 270.57,-65.05 361.74,-54 460.9,-41.98 573.38,-33.02 658.7,-27.17"/>
<polygon fill="black" stroke="black" points="658.97,-30.66 668.71,-26.49 658.5,-23.68 658.97,-30.66"/>
<text text-anchor="middle" x="377.24" y="-57.8" font-family="Times New Roman,serif" font-size="14.00">0.066</text>
</g>
<!-- 2 -->
<g id="node3" class="node">
<title>2</title>
<g id="a_node3"><a xlink:href="to_it consultant.svg" xlink:title="it consultant">
<ellipse fill="none" stroke="black" cx="221.74" cy="-105" rx="54.69" ry="18"/>
<text text-anchor="middle" x="221.74" y="-101.3" font-family="Times New Roman,serif" font-size="14.00">it consultant</text>
</a>
</g>
</g>
<!-- 2&#45;&gt;0 -->
<g id="edge3" class="edge">
<title>2&#45;&gt;0</title>
<path fill="none" stroke="black" d="M261.51,-92.6C269.49,-90.55 277.85,-88.57 285.74,-87 417.71,-60.75 571.02,-41.79 674.42,-30.66"/>
<polygon fill="black" stroke="black" points="675,-34.12 684.58,-29.57 674.26,-27.15 675,-34.12"/>
<text text-anchor="middle" x="496.24" y="-57.8" font-family="Times New Roman,serif" font-size="14.00">0.053</text>
</g>
<!-- 3 -->
<g id="node4" class="node">
<title>3</title>
<g id="a_node4"><a xlink:href="to_manufacturing engineer.svg" xlink:title="manufacturing engineer">
<ellipse fill="none" stroke="black" cx="388.74" cy="-105" rx="94.48" ry="18"/>
<text text-anchor="middle" x="388.74" y="-101.3" font-family="Times New Roman,serif" font-size="14.00">manufacturing engineer</text>
</a>
</g>
</g>
<!-- 3&#45;&gt;0 -->
<g id="edge4" class="edge">
<title>3&#45;&gt;0</title>
<path fill="none" stroke="black" d="M449.81,-91.18C520.13,-76.42 635.89,-52.13 713.45,-35.85"/>
<polygon fill="black" stroke="black" points="714.59,-39.19 723.66,-33.71 713.15,-32.34 714.59,-39.19"/>
<text text-anchor="middle" x="631.24" y="-57.8" font-family="Times New Roman,serif" font-size="14.00">0.053</text>
</g>
<!-- 4 -->
<g id="node5" class="node">
<title>4</title>
<g id="a_node5"><a xlink:href="to_computer sales support.svg" xlink:title="computer sales support">
<ellipse fill="none" stroke="black" cx="596.74" cy="-105" rx="96.38" ry="18"/>
<text text-anchor="middle" x="596.74" y="-101.3" font-family="Times New Roman,serif" font-size="14.00">computer sales support</text>
</a>
</g>
</g>
<!-- 4&#45;&gt;0 -->
<g id="edge5" class="edge">
<title>4&#45;&gt;0</title>
<path fill="none" stroke="black" d="M633.34,-88.21C665.17,-74.48 711.51,-54.48 746.21,-39.51"/>
<polygon fill="black" stroke="black" points="747.87,-42.6 755.67,-35.43 745.1,-36.18 747.87,-42.6"/>
<text text-anchor="middle" x="720.24" y="-57.8" font-family="Times New Roman,serif" font-size="14.00">0.04</text>
</g>
<!-- 5 -->
<g id="node6" class="node">
<title>5</title>
<g id="a_node6"><a xlink:href="to_mechanical engineer.svg" xlink:title="mechanical engineer">
<ellipse fill="none" stroke="black" cx="793.74" cy="-105" rx="83.39" ry="18"/>
<text text-anchor="middle" x="793.74" y="-101.3" font-family="Times New Roman,serif" font-size="14.00">mechanical engineer</text>
</a>
</g>
</g>
<!-- 5&#45;&gt;0 -->
<g id="edge6" class="edge">
<title>5&#45;&gt;0</title>
<path fill="none" stroke="black" d="M793.74,-86.8C793.74,-75.16 793.74,-59.55 793.74,-46.24"/>
<polygon fill="black" stroke="black" points="797.24,-46.18 793.74,-36.18 790.24,-46.18 797.24,-46.18"/>
<text text-anchor="middle" x="806.24" y="-57.8" font-family="Times New Roman,serif" font-size="14.00">0.04</text>
</g>
<!-- 6 -->
<g id="node7" class="node">
<title>6</title>
<g id="a_node7"><a xlink:href="to_project manager.svg" xlink:title="project manager">
<ellipse fill="none" stroke="black" cx="963.74" cy="-105" rx="68.79" ry="18"/>
<text text-anchor="middle" x="963.74" y="-101.3" font-family="Times New Roman,serif" font-size="14.00">project manager</text>
</a>
</g>
</g>
<!-- 6&#45;&gt;0 -->
<g id="edge7" class="edge">
<title>6&#45;&gt;0</title>
<path fill="none" stroke="black" d="M933.35,-88.8C906.17,-75.22 866.08,-55.17 835.83,-40.04"/>
<polygon fill="black" stroke="black" points="837.29,-36.86 826.78,-35.52 834.16,-43.12 837.29,-36.86"/>
<text text-anchor="middle" x="902.24" y="-57.8" font-family="Times New Roman,serif" font-size="14.00">0.04</text>
</g>
<!-- 7 -->
<g id="node8" class="node">
<title>7</title>
<g id="a_node8"><a xlink:href="to_careers adviser.svg" xlink:title="careers adviser">
<ellipse fill="none" stroke="black" cx="1115.74" cy="-105" rx="64.99" ry="18"/>
<text text-anchor="middle" x="1115.74" y="-101.3" font-family="Times New Roman,serif" font-size="14.00">careers adviser</text>
</a>
</g>
</g>
<!-- 7&#45;&gt;0 -->
<g id="edge8" class="edge">
<title>7&#45;&gt;0</title>
<path fill="none" stroke="black" d="M1070.29,-92C1016.07,-77.69 924.9,-53.62 862.15,-37.06"/>
<polygon fill="black" stroke="black" points="862.89,-33.63 852.33,-34.47 861.11,-40.4 862.89,-33.63"/>
<text text-anchor="middle" x="990.24" y="-57.8" font-family="Times New Roman,serif" font-size="14.00">0.026</text>
</g>
<!-- 8 -->
<g id="node9" class="node">
<title>8</title>
<g id="a_node9"><a xlink:href="to_civil service administrator.svg" xlink:title="civil service administrator">
<ellipse fill="none" stroke="black" cx="1301.74" cy="-105" rx="102.88" ry="18"/>
<text text-anchor="middle" x="1301.74" y="-101.3" font-family="Times New Roman,serif" font-size="14.00">civil service administrator</text>
</a>
</g>
</g>
<!-- 8&#45;&gt;0 -->
<g id="edge9" class="edge">
<title>8&#45;&gt;0</title>
<path fill="none" stroke="black" d="M1231.56,-91.8C1172.43,-81.57 1085.59,-66.64 1009.74,-54 969.93,-47.37 925.95,-40.21 888.13,-34.11"/>
<polygon fill="black" stroke="black" points="888.57,-30.63 878.14,-32.5 887.46,-37.54 888.57,-30.63"/>
<text text-anchor="middle" x="1113.24" y="-57.8" font-family="Times New Roman,serif" font-size="14.00">0.026</text>
</g>
<!-- 9 -->
<g id="node10" class="node">
<title>9</title>
<g id="a_node10"><a xlink:href="to_facilities manager.svg" xlink:title="facilities manager">
<ellipse fill="none" stroke="black" cx="1494.74" cy="-105" rx="72.59" ry="18"/>
<text text-anchor="middle" x="1494.74" y="-101.3" font-family="Times New Roman,serif" font-size="14.00">facilities manager</text>
</a>
</g>
</g>
<!-- 9&#45;&gt;0 -->
<g id="edge10" class="edge">
<title>9&#45;&gt;0</title>
<path fill="none" stroke="black" d="M1442.59,-92.33C1433.02,-90.4 1423.1,-88.53 1413.74,-87 1244.27,-59.32 1046.85,-39.84 921.14,-29.02"/>
<polygon fill="black" stroke="black" points="921.35,-25.53 911.08,-28.16 920.75,-32.5 921.35,-25.53"/>
<text text-anchor="middle" x="1293.24" y="-57.8" font-family="Times New Roman,serif" font-size="14.00">0.026</text>
</g>
</g>
</svg>
