<?xml version="1.0" encoding="UTF-8" standalone="no"?>
<!DOCTYPE svg PUBLIC "-//W3C//DTD SVG 1.1//EN"
 "http://www.w3.org/Graphics/SVG/1.1/DTD/svg11.dtd">
<!-- Generated by graphviz version 2.44.1 (20200629.0800)
 -->
<!-- Title: curator Pages: 1 -->
<svg width="1237pt" height="131pt"
 viewBox="0.00 0.00 1236.89 131.00" xmlns="http://www.w3.org/2000/svg" xmlns:xlink="http://www.w3.org/1999/xlink">
<g id="graph0" class="graph" transform="scale(1 1) rotate(0) translate(4 127)">
<title>curator</title>
<polygon fill="white" stroke="transparent" points="-4,4 -4,-127 1232.89,-127 1232.89,4 -4,4"/>
<!-- 0 -->
<g id="node1" class="node">
<title>0</title>
<g id="a_node1"><a xlink:href="to_lawyer.svg" xlink:title="lawyer">
<ellipse fill="none" stroke="black" cx="34.45" cy="-105" rx="34.39" ry="18"/>
<text text-anchor="middle" x="34.45" y="-101.3" font-family="Times New Roman,serif" font-size="14.00">lawyer</text>
</a>
</g>
</g>
<!-- 1 -->
<g id="node2" class="node">
<title>1</title>
<g id="a_node2"><a xlink:href="to_curator.svg" xlink:title="curator">
<ellipse fill="none" stroke="black" cx="608.45" cy="-18" rx="36.29" ry="18"/>
<text text-anchor="middle" x="608.45" y="-14.3" font-family="Times New Roman,serif" font-size="14.00">curator</text>
</a>
</g>
</g>
<!-- 0&#45;&gt;1 -->
<g id="edge1" class="edge">
<title>0&#45;&gt;1</title>
<path fill="none" stroke="black" d="M60.07,-92.87C65.72,-90.7 71.73,-88.6 77.45,-87 251.72,-38.14 468.14,-24.27 561.72,-20.42"/>
<polygon fill="black" stroke="black" points="562.13,-23.91 571.99,-20.02 561.86,-16.92 562.13,-23.91"/>
<text text-anchor="middle" x="236.95" y="-57.8" font-family="Times New Roman,serif" font-size="14.00">0.091</text>
</g>
<!-- 1&#45;&gt;1 -->
<g id="edge2" class="edge">
<title>1&#45;&gt;1</title>
<path fill="none" stroke="black" d="M641.38,-25.87C653.2,-26.04 662.84,-23.41 662.84,-18 662.84,-14.28 658.29,-11.88 651.6,-10.79"/>
<polygon fill="black" stroke="black" points="651.58,-7.28 641.38,-10.13 651.13,-14.27 651.58,-7.28"/>
<text text-anchor="middle" x="678.34" y="-14.3" font-family="Times New Roman,serif" font-size="14.00">0.067</text>
</g>
<!-- 2 -->
<g id="node3" class="node">
<title>2</title>
<g id="a_node3"><a xlink:href="to_it consultant.svg" xlink:title="it consultant">
<ellipse fill="none" stroke="black" cx="141.45" cy="-105" rx="54.69" ry="18"/>
<text text-anchor="middle" x="141.45" y="-101.3" font-family="Times New Roman,serif" font-size="14.00">it consultant</text>
</a>
</g>
</g>
<!-- 2&#45;&gt;1 -->
<g id="edge3" class="edge">
<title>2&#45;&gt;1</title>
<path fill="none" stroke="black" d="M181.3,-92.62C188.95,-90.62 196.92,-88.64 204.45,-87 333.86,-58.72 488.8,-35.6 563.63,-25.1"/>
<polygon fill="black" stroke="black" points="564.22,-28.55 573.64,-23.7 563.26,-21.61 564.22,-28.55"/>
<text text-anchor="middle" x="385.95" y="-57.8" font-family="Times New Roman,serif" font-size="14.00">0.048</text>
</g>
<!-- 3 -->
<g id="node4" class="node">
<title>3</title>
<g id="a_node4"><a xlink:href="to_pharmacovigilance officer.svg" xlink:title="pharmacovigilance officer">
<ellipse fill="none" stroke="black" cx="318.45" cy="-105" rx="104.78" ry="18"/>
<text text-anchor="middle" x="318.45" y="-101.3" font-family="Times New Roman,serif" font-size="14.00">pharmacovigilance officer</text>
</a>
</g>
</g>
<!-- 3&#45;&gt;1 -->
<g id="edge4" class="edge">
<title>3&#45;&gt;1</title>
<path fill="none" stroke="black" d="M368.96,-89.19C425.4,-72.65 515.68,-46.19 567.77,-30.92"/>
<polygon fill="black" stroke="black" points="569.05,-34.2 577.66,-28.02 567.08,-27.48 569.05,-34.2"/>
<text text-anchor="middle" x="496.95" y="-57.8" font-family="Times New Roman,serif" font-size="14.00">0.048</text>
</g>
<!-- 4 -->
<g id="node5" class="node">
<title>4</title>
<g id="a_node5"><a xlink:href="to_solicitor.svg" xlink:title="solicitor">
<ellipse fill="none" stroke="black" cx="481.45" cy="-105" rx="40.09" ry="18"/>
<text text-anchor="middle" x="481.45" y="-101.3" font-family="Times New Roman,serif" font-size="14.00">solicitor</text>
</a>
</g>
</g>
<!-- 4&#45;&gt;1 -->
<g id="edge5" class="edge">
<title>4&#45;&gt;1</title>
<path fill="none" stroke="black" d="M502.99,-89.58C523.95,-75.55 555.95,-54.14 579.2,-38.57"/>
<polygon fill="black" stroke="black" points="581.28,-41.4 587.64,-32.92 577.38,-35.58 581.28,-41.4"/>
<text text-anchor="middle" x="568.95" y="-57.8" font-family="Times New Roman,serif" font-size="14.00">0.043</text>
</g>
<!-- 5 -->
<g id="node6" class="node">
<title>5</title>
<g id="a_node6"><a xlink:href="to_project manager.svg" xlink:title="project manager">
<ellipse fill="none" stroke="black" cx="608.45" cy="-105" rx="68.79" ry="18"/>
<text text-anchor="middle" x="608.45" y="-101.3" font-family="Times New Roman,serif" font-size="14.00">project manager</text>
</a>
</g>
</g>
<!-- 5&#45;&gt;1 -->
<g id="edge6" class="edge">
<title>5&#45;&gt;1</title>
<path fill="none" stroke="black" d="M608.45,-86.8C608.45,-75.16 608.45,-59.55 608.45,-46.24"/>
<polygon fill="black" stroke="black" points="611.95,-46.18 608.45,-36.18 604.95,-46.18 611.95,-46.18"/>
<text text-anchor="middle" x="623.95" y="-57.8" font-family="Times New Roman,serif" font-size="14.00">0.033</text>
</g>
<!-- 6 -->
<g id="node7" class="node">
<title>6</title>
<g id="a_node7"><a xlink:href="to_secretary.svg" xlink:title="secretary">
<ellipse fill="none" stroke="black" cx="738.45" cy="-105" rx="43.59" ry="18"/>
<text text-anchor="middle" x="738.45" y="-101.3" font-family="Times New Roman,serif" font-size="14.00">secretary</text>
</a>
</g>
</g>
<!-- 6&#45;&gt;1 -->
<g id="edge7" class="edge">
<title>6&#45;&gt;1</title>
<path fill="none" stroke="black" d="M716.1,-89.39C694.6,-75.33 661.95,-53.98 638.25,-38.48"/>
<polygon fill="black" stroke="black" points="639.93,-35.4 629.64,-32.86 636.1,-41.26 639.93,-35.4"/>
<text text-anchor="middle" x="696.95" y="-57.8" font-family="Times New Roman,serif" font-size="14.00">0.028</text>
</g>
<!-- 7 -->
<g id="node8" class="node">
<title>7</title>
<g id="a_node8"><a xlink:href="to_qa analyst.svg" xlink:title="qa analyst">
<ellipse fill="none" stroke="black" cx="846.45" cy="-105" rx="46.59" ry="18"/>
<text text-anchor="middle" x="846.45" y="-101.3" font-family="Times New Roman,serif" font-size="14.00">qa analyst</text>
</a>
</g>
</g>
<!-- 7&#45;&gt;1 -->
<g id="edge8" class="edge">
<title>7&#45;&gt;1</title>
<path fill="none" stroke="black" d="M815.36,-91.5C789.14,-81.09 750.52,-66.07 716.45,-54 694.09,-46.09 668.9,-37.88 648.47,-31.4"/>
<polygon fill="black" stroke="black" points="649.44,-28.04 638.85,-28.37 647.34,-34.72 649.44,-28.04"/>
<text text-anchor="middle" x="770.95" y="-57.8" font-family="Times New Roman,serif" font-size="14.00">0.024</text>
</g>
<!-- 8 -->
<g id="node9" class="node">
<title>8</title>
<g id="a_node9"><a xlink:href="to_structural engineer.svg" xlink:title="structural engineer">
<ellipse fill="none" stroke="black" cx="987.45" cy="-105" rx="76.89" ry="18"/>
<text text-anchor="middle" x="987.45" y="-101.3" font-family="Times New Roman,serif" font-size="14.00">structural engineer</text>
</a>
</g>
</g>
<!-- 8&#45;&gt;1 -->
<g id="edge9" class="edge">
<title>8&#45;&gt;1</title>
<path fill="none" stroke="black" d="M939.06,-90.88C899.3,-80.3 841.42,-65.36 790.45,-54 743.37,-43.51 689.02,-33.3 652.06,-26.65"/>
<polygon fill="black" stroke="black" points="652.57,-23.18 642.11,-24.86 651.34,-30.07 652.57,-23.18"/>
<text text-anchor="middle" x="864.95" y="-57.8" font-family="Times New Roman,serif" font-size="14.00">0.024</text>
</g>
<!-- 9 -->
<g id="node10" class="node">
<title>9</title>
<g id="a_node10"><a xlink:href="to_building surveyor.svg" xlink:title="building surveyor">
<ellipse fill="none" stroke="black" cx="1155.45" cy="-105" rx="73.39" ry="18"/>
<text text-anchor="middle" x="1155.45" y="-101.3" font-family="Times New Roman,serif" font-size="14.00">building surveyor</text>
</a>
</g>
</g>
<!-- 9&#45;&gt;1 -->
<g id="edge10" class="edge">
<title>9&#45;&gt;1</title>
<path fill="none" stroke="black" d="M1101.68,-92.6C1092.28,-90.68 1082.59,-88.74 1073.45,-87 989.69,-71.01 968.77,-66.7 884.45,-54 803.46,-41.8 708.66,-30.41 653.89,-24.1"/>
<polygon fill="black" stroke="black" points="654.14,-20.61 643.81,-22.95 653.35,-27.56 654.14,-20.61"/>
<text text-anchor="middle" x="990.95" y="-57.8" font-family="Times New Roman,serif" font-size="14.00">0.019</text>
</g>
</g>
</svg>
