<?xml version="1.0" encoding="UTF-8" standalone="no"?>
<!DOCTYPE svg PUBLIC "-//W3C//DTD SVG 1.1//EN"
 "http://www.w3.org/Graphics/SVG/1.1/DTD/svg11.dtd">
<!-- Generated by graphviz version 2.44.1 (20200629.0800)
 -->
<!-- Title: child_psychotherapist Pages: 1 -->
<svg width="1628pt" height="131pt"
 viewBox="0.00 0.00 1627.54 131.00" xmlns="http://www.w3.org/2000/svg" xmlns:xlink="http://www.w3.org/1999/xlink">
<g id="graph0" class="graph" transform="scale(1 1) rotate(0) translate(4 127)">
<title>child_psychotherapist</title>
<polygon fill="white" stroke="transparent" points="-4,4 -4,-127 1623.54,-127 1623.54,4 -4,4"/>
<!-- 0 -->
<g id="node1" class="node">
<title>0</title>
<g id="a_node1"><a xlink:href="to_counsellor.svg" xlink:title="counsellor">
<ellipse fill="none" stroke="black" cx="48.1" cy="-105" rx="48.19" ry="18"/>
<text text-anchor="middle" x="48.1" y="-101.3" font-family="Times New Roman,serif" font-size="14.00">counsellor</text>
</a>
</g>
</g>
<!-- 1 -->
<g id="node2" class="node">
<title>1</title>
<g id="a_node2"><a xlink:href="to_child psychotherapist.svg" xlink:title="child psychotherapist">
<ellipse fill="none" stroke="black" cx="794.1" cy="-18" rx="88.28" ry="18"/>
<text text-anchor="middle" x="794.1" y="-14.3" font-family="Times New Roman,serif" font-size="14.00">child psychotherapist</text>
</a>
</g>
</g>
<!-- 0&#45;&gt;1 -->
<g id="edge1" class="edge">
<title>0&#45;&gt;1</title>
<path fill="none" stroke="black" d="M83.48,-92.68C90.6,-90.62 98.05,-88.62 105.1,-87 194.19,-66.56 217.31,-64.63 308.1,-54 443.21,-38.18 600.34,-28.43 698.52,-23.36"/>
<polygon fill="black" stroke="black" points="698.91,-26.84 708.72,-22.84 698.55,-19.85 698.91,-26.84"/>
<text text-anchor="middle" x="323.6" y="-57.8" font-family="Times New Roman,serif" font-size="14.00">0.181</text>
</g>
<!-- 2 -->
<g id="node3" class="node">
<title>2</title>
<g id="a_node3"><a xlink:href="to_psychologist.svg" xlink:title="psychologist">
<ellipse fill="none" stroke="black" cx="171.1" cy="-105" rx="57.39" ry="18"/>
<text text-anchor="middle" x="171.1" y="-101.3" font-family="Times New Roman,serif" font-size="14.00">psychologist</text>
</a>
</g>
</g>
<!-- 2&#45;&gt;1 -->
<g id="edge2" class="edge">
<title>2&#45;&gt;1</title>
<path fill="none" stroke="black" d="M212.45,-92.47C220.58,-90.45 229.07,-88.52 237.1,-87 400.01,-56.21 592.48,-36.31 703.21,-26.42"/>
<polygon fill="black" stroke="black" points="703.69,-29.89 713.34,-25.52 703.07,-22.92 703.69,-29.89"/>
<text text-anchor="middle" x="451.6" y="-57.8" font-family="Times New Roman,serif" font-size="14.00">0.181</text>
</g>
<!-- 3 -->
<g id="node4" class="node">
<title>3</title>
<g id="a_node4"><a xlink:href="to_clinical research associate.svg" xlink:title="clinical research associate">
<ellipse fill="none" stroke="black" cx="350.1" cy="-105" rx="103.98" ry="18"/>
<text text-anchor="middle" x="350.1" y="-101.3" font-family="Times New Roman,serif" font-size="14.00">clinical research associate</text>
</a>
</g>
</g>
<!-- 3&#45;&gt;1 -->
<g id="edge3" class="edge">
<title>3&#45;&gt;1</title>
<path fill="none" stroke="black" d="M417.05,-91.18C499.11,-75.47 637.62,-48.96 721.97,-32.81"/>
<polygon fill="black" stroke="black" points="722.82,-36.21 731.98,-30.89 721.5,-29.33 722.82,-36.21"/>
<text text-anchor="middle" x="614.6" y="-57.8" font-family="Times New Roman,serif" font-size="14.00">0.090</text>
</g>
<!-- 4 -->
<g id="node5" class="node">
<title>4</title>
<g id="a_node5"><a xlink:href="to_government research officer.svg" xlink:title="government research officer">
<ellipse fill="none" stroke="black" cx="584.1" cy="-105" rx="112.38" ry="18"/>
<text text-anchor="middle" x="584.1" y="-101.3" font-family="Times New Roman,serif" font-size="14.00">government research officer</text>
</a>
</g>
</g>
<!-- 4&#45;&gt;1 -->
<g id="edge4" class="edge">
<title>4&#45;&gt;1</title>
<path fill="none" stroke="black" d="M623.6,-88.01C658.5,-73.89 709.47,-53.25 746.59,-38.23"/>
<polygon fill="black" stroke="black" points="748.23,-41.34 756.19,-34.34 745.61,-34.85 748.23,-41.34"/>
<text text-anchor="middle" x="717.6" y="-57.8" font-family="Times New Roman,serif" font-size="14.00">0.090</text>
</g>
<!-- 5 -->
<g id="node6" class="node">
<title>5</title>
<g id="a_node6"><a xlink:href="to_marketing assistant.svg" xlink:title="marketing assistant">
<ellipse fill="none" stroke="black" cx="794.1" cy="-105" rx="79.09" ry="18"/>
<text text-anchor="middle" x="794.1" y="-101.3" font-family="Times New Roman,serif" font-size="14.00">marketing assistant</text>
</a>
</g>
</g>
<!-- 5&#45;&gt;1 -->
<g id="edge5" class="edge">
<title>5&#45;&gt;1</title>
<path fill="none" stroke="black" d="M794.1,-86.8C794.1,-75.16 794.1,-59.55 794.1,-46.24"/>
<polygon fill="black" stroke="black" points="797.6,-46.18 794.1,-36.18 790.6,-46.18 797.6,-46.18"/>
<text text-anchor="middle" x="809.6" y="-57.8" font-family="Times New Roman,serif" font-size="14.00">0.090</text>
</g>
<!-- 6 -->
<g id="node7" class="node">
<title>6</title>
<g id="a_node7"><a xlink:href="to_occupational therapist.svg" xlink:title="occupational therapist">
<ellipse fill="none" stroke="black" cx="982.1" cy="-105" rx="90.18" ry="18"/>
<text text-anchor="middle" x="982.1" y="-101.3" font-family="Times New Roman,serif" font-size="14.00">occupational therapist</text>
</a>
</g>
</g>
<!-- 6&#45;&gt;1 -->
<g id="edge6" class="edge">
<title>6&#45;&gt;1</title>
<path fill="none" stroke="black" d="M947.17,-88.21C916.44,-74.32 871.54,-54.01 838.3,-38.99"/>
<polygon fill="black" stroke="black" points="839.38,-35.63 828.83,-34.7 836.5,-42.01 839.38,-35.63"/>
<text text-anchor="middle" x="915.6" y="-57.8" font-family="Times New Roman,serif" font-size="14.00">0.090</text>
</g>
<!-- 7 -->
<g id="node8" class="node">
<title>7</title>
<g id="a_node8"><a xlink:href="to_pharmacovigilance officer.svg" xlink:title="pharmacovigilance officer">
<ellipse fill="none" stroke="black" cx="1195.1" cy="-105" rx="104.78" ry="18"/>
<text text-anchor="middle" x="1195.1" y="-101.3" font-family="Times New Roman,serif" font-size="14.00">pharmacovigilance officer</text>
</a>
</g>
</g>
<!-- 7&#45;&gt;1 -->
<g id="edge7" class="edge">
<title>7&#45;&gt;1</title>
<path fill="none" stroke="black" d="M1132,-90.63C1058.75,-75.1 938.37,-49.58 862.81,-33.57"/>
<polygon fill="black" stroke="black" points="863.42,-30.12 852.91,-31.47 861.97,-36.96 863.42,-30.12"/>
<text text-anchor="middle" x="1034.6" y="-57.8" font-family="Times New Roman,serif" font-size="14.00">0.090</text>
</g>
<!-- 8 -->
<g id="node9" class="node">
<title>8</title>
<g id="a_node9"><a xlink:href="to_psychotherapist.svg" xlink:title="psychotherapist">
<ellipse fill="none" stroke="black" cx="1386.1" cy="-105" rx="68.49" ry="18"/>
<text text-anchor="middle" x="1386.1" y="-101.3" font-family="Times New Roman,serif" font-size="14.00">psychotherapist</text>
</a>
</g>
</g>
<!-- 8&#45;&gt;1 -->
<g id="edge8" class="edge">
<title>8&#45;&gt;1</title>
<path fill="none" stroke="black" d="M1336.93,-92.48C1327.71,-90.51 1318.13,-88.59 1309.1,-87 1159.32,-60.63 983.39,-39.49 880.76,-28.14"/>
<polygon fill="black" stroke="black" points="881.08,-24.65 870.76,-27.04 880.32,-31.61 881.08,-24.65"/>
<text text-anchor="middle" x="1211.6" y="-57.8" font-family="Times New Roman,serif" font-size="14.00">0.090</text>
</g>
<!-- 9 -->
<g id="node10" class="node">
<title>9</title>
<g id="a_node10"><a xlink:href="to_teaching assistant.svg" xlink:title="teaching assistant">
<ellipse fill="none" stroke="black" cx="1546.1" cy="-105" rx="73.39" ry="18"/>
<text text-anchor="middle" x="1546.1" y="-101.3" font-family="Times New Roman,serif" font-size="14.00">teaching assistant</text>
</a>
</g>
</g>
<!-- 9&#45;&gt;1 -->
<g id="edge9" class="edge">
<title>9&#45;&gt;1</title>
<path fill="none" stroke="black" d="M1492.61,-92.55C1482.81,-90.59 1472.66,-88.66 1463.1,-87 1360.48,-69.21 1334.61,-65.5 1231.1,-54 1112.73,-40.85 975.81,-30.7 887.23,-24.8"/>
<polygon fill="black" stroke="black" points="887.41,-21.3 877.2,-24.13 886.95,-28.29 887.41,-21.3"/>
<text text-anchor="middle" x="1366.6" y="-57.8" font-family="Times New Roman,serif" font-size="14.00">0.090</text>
</g>
</g>
</svg>
