<?xml version="1.0" encoding="UTF-8" standalone="no"?>
<!DOCTYPE svg PUBLIC "-//W3C//DTD SVG 1.1//EN"
 "http://www.w3.org/Graphics/SVG/1.1/DTD/svg11.dtd">
<!-- Generated by graphviz version 2.44.1 (20200629.0800)
 -->
<!-- Title: test Pages: 1 -->
<svg width="1371pt" height="131pt"
 viewBox="0.00 0.00 1370.99 131.00" xmlns="http://www.w3.org/2000/svg" xmlns:xlink="http://www.w3.org/1999/xlink">
<g id="graph0" class="graph" transform="scale(1 1) rotate(0) translate(4 127)">
<title>test</title>
<polygon fill="white" stroke="transparent" points="-4,4 -4,-127 1366.99,-127 1366.99,4 -4,4"/>
<!-- 0 -->
<g id="node1" class="node">
<title>0</title>
<g id="a_node1"><a xlink:href="to_clinical research associate.svg" xlink:title="clinical research associate">
<ellipse fill="none" stroke="black" cx="632.79" cy="-18" rx="103.98" ry="18"/>
<text text-anchor="middle" x="632.79" y="-14.3" font-family="Times New Roman,serif" font-size="14.00">clinical research associate</text>
</a>
</g>
</g>
<!-- 0&#45;&gt;0 -->
<g id="edge1" class="edge">
<title>0&#45;&gt;0</title>
<path fill="none" stroke="black" d="M727.93,-25.32C743.82,-24.3 754.78,-21.86 754.78,-18 754.78,-15.02 748.22,-12.88 737.9,-11.59"/>
<polygon fill="black" stroke="black" points="738.21,-8.11 727.93,-10.68 737.57,-15.08 738.21,-8.11"/>
<text text-anchor="middle" x="770.28" y="-14.3" font-family="Times New Roman,serif" font-size="14.00">0.104</text>
</g>
<!-- 1 -->
<g id="node2" class="node">
<title>1</title>
<g id="a_node2"><a xlink:href="to_research scientist.svg" xlink:title="research scientist">
<ellipse fill="none" stroke="black" cx="72.79" cy="-105" rx="72.59" ry="18"/>
<text text-anchor="middle" x="72.79" y="-101.3" font-family="Times New Roman,serif" font-size="14.00">research scientist</text>
</a>
</g>
</g>
<!-- 1&#45;&gt;0 -->
<g id="edge2" class="edge">
<title>1&#45;&gt;0</title>
<path fill="none" stroke="black" d="M121.42,-91.44C166.58,-80.18 235.84,-63.94 296.79,-54 374.15,-41.38 462.31,-32.4 528.91,-26.7"/>
<polygon fill="black" stroke="black" points="529.32,-30.17 538.99,-25.84 528.73,-23.2 529.32,-30.17"/>
<text text-anchor="middle" x="312.29" y="-57.8" font-family="Times New Roman,serif" font-size="14.00">0.066</text>
</g>
<!-- 2 -->
<g id="node3" class="node">
<title>2</title>
<g id="a_node3"><a xlink:href="to_lecturer.svg" xlink:title="lecturer">
<ellipse fill="none" stroke="black" cx="200.79" cy="-105" rx="37.89" ry="18"/>
<text text-anchor="middle" x="200.79" y="-101.3" font-family="Times New Roman,serif" font-size="14.00">lecturer</text>
</a>
</g>
</g>
<!-- 2&#45;&gt;0 -->
<g id="edge3" class="edge">
<title>2&#45;&gt;0</title>
<path fill="none" stroke="black" d="M228.88,-92.97C235.05,-90.79 241.59,-88.67 247.79,-87 346.44,-60.47 462.15,-41.63 540.78,-30.61"/>
<polygon fill="black" stroke="black" points="541.71,-34.01 551.14,-29.17 540.75,-27.08 541.71,-34.01"/>
<text text-anchor="middle" x="410.29" y="-57.8" font-family="Times New Roman,serif" font-size="14.00">0.057</text>
</g>
<!-- 3 -->
<g id="node4" class="node">
<title>3</title>
<g id="a_node4"><a xlink:href="to_clinical biochemist.svg" xlink:title="clinical biochemist">
<ellipse fill="none" stroke="black" cx="333.79" cy="-105" rx="77.19" ry="18"/>
<text text-anchor="middle" x="333.79" y="-101.3" font-family="Times New Roman,serif" font-size="14.00">clinical biochemist</text>
</a>
</g>
</g>
<!-- 3&#45;&gt;0 -->
<g id="edge4" class="edge">
<title>3&#45;&gt;0</title>
<path fill="none" stroke="black" d="M380.84,-90.63C432.27,-76 514.87,-52.52 571.37,-36.46"/>
<polygon fill="black" stroke="black" points="572.6,-39.75 581.26,-33.65 570.68,-33.02 572.6,-39.75"/>
<text text-anchor="middle" x="517.29" y="-57.8" font-family="Times New Roman,serif" font-size="14.00">0.038</text>
</g>
<!-- 4 -->
<g id="node5" class="node">
<title>4</title>
<g id="a_node5"><a xlink:href="to_it consultant.svg" xlink:title="it consultant">
<ellipse fill="none" stroke="black" cx="483.79" cy="-105" rx="54.69" ry="18"/>
<text text-anchor="middle" x="483.79" y="-101.3" font-family="Times New Roman,serif" font-size="14.00">it consultant</text>
</a>
</g>
</g>
<!-- 4&#45;&gt;0 -->
<g id="edge5" class="edge">
<title>4&#45;&gt;0</title>
<path fill="none" stroke="black" d="M510.09,-89C533.63,-75.57 568.42,-55.72 594.96,-40.59"/>
<polygon fill="black" stroke="black" points="597.01,-43.44 603.96,-35.45 593.54,-37.36 597.01,-43.44"/>
<text text-anchor="middle" x="583.29" y="-57.8" font-family="Times New Roman,serif" font-size="14.00">0.038</text>
</g>
<!-- 5 -->
<g id="node6" class="node">
<title>5</title>
<g id="a_node6"><a xlink:href="to_academic librarian.svg" xlink:title="academic librarian">
<ellipse fill="none" stroke="black" cx="632.79" cy="-105" rx="76.09" ry="18"/>
<text text-anchor="middle" x="632.79" y="-101.3" font-family="Times New Roman,serif" font-size="14.00">academic librarian</text>
</a>
</g>
</g>
<!-- 5&#45;&gt;0 -->
<g id="edge6" class="edge">
<title>5&#45;&gt;0</title>
<path fill="none" stroke="black" d="M632.79,-86.8C632.79,-75.16 632.79,-59.55 632.79,-46.24"/>
<polygon fill="black" stroke="black" points="636.29,-46.18 632.79,-36.18 629.29,-46.18 636.29,-46.18"/>
<text text-anchor="middle" x="648.29" y="-57.8" font-family="Times New Roman,serif" font-size="14.00">0.028</text>
</g>
<!-- 6 -->
<g id="node7" class="node">
<title>6</title>
<g id="a_node7"><a xlink:href="to_medical physicist.svg" xlink:title="medical physicist">
<ellipse fill="none" stroke="black" cx="799.79" cy="-105" rx="73.39" ry="18"/>
<text text-anchor="middle" x="799.79" y="-101.3" font-family="Times New Roman,serif" font-size="14.00">medical physicist</text>
</a>
</g>
</g>
<!-- 6&#45;&gt;0 -->
<g id="edge7" class="edge">
<title>6&#45;&gt;0</title>
<path fill="none" stroke="black" d="M769.16,-88.41C742.4,-74.79 703.32,-54.9 673.85,-39.9"/>
<polygon fill="black" stroke="black" points="675.15,-36.63 664.65,-35.21 671.97,-42.87 675.15,-36.63"/>
<text text-anchor="middle" x="742.29" y="-57.8" font-family="Times New Roman,serif" font-size="14.00">0.028</text>
</g>
<!-- 7 -->
<g id="node8" class="node">
<title>7</title>
<g id="a_node8"><a xlink:href="to_programme researcher.svg" xlink:title="programme researcher">
<ellipse fill="none" stroke="black" cx="982.79" cy="-105" rx="91.78" ry="18"/>
<text text-anchor="middle" x="982.79" y="-101.3" font-family="Times New Roman,serif" font-size="14.00">programme researcher</text>
</a>
</g>
</g>
<!-- 7&#45;&gt;0 -->
<g id="edge8" class="edge">
<title>7&#45;&gt;0</title>
<path fill="none" stroke="black" d="M927.34,-90.53C865.82,-75.59 766.57,-51.49 700.51,-35.45"/>
<polygon fill="black" stroke="black" points="701.16,-32 690.61,-33.04 699.5,-38.8 701.16,-32"/>
<text text-anchor="middle" x="844.29" y="-57.8" font-family="Times New Roman,serif" font-size="14.00">0.028</text>
</g>
<!-- 8 -->
<g id="node9" class="node">
<title>8</title>
<g id="a_node9"><a xlink:href="to_project manager.svg" xlink:title="project manager">
<ellipse fill="none" stroke="black" cx="1161.79" cy="-105" rx="68.79" ry="18"/>
<text text-anchor="middle" x="1161.79" y="-101.3" font-family="Times New Roman,serif" font-size="14.00">project manager</text>
</a>
</g>
</g>
<!-- 8&#45;&gt;0 -->
<g id="edge9" class="edge">
<title>8&#45;&gt;0</title>
<path fill="none" stroke="black" d="M1111.54,-92.54C1102.33,-90.59 1092.79,-88.66 1083.79,-87 959.38,-64.09 814.61,-43.29 723.34,-30.89"/>
<polygon fill="black" stroke="black" points="723.68,-27.41 713.3,-29.53 722.74,-34.34 723.68,-27.41"/>
<text text-anchor="middle" x="988.29" y="-57.8" font-family="Times New Roman,serif" font-size="14.00">0.028</text>
</g>
<!-- 9 -->
<g id="node10" class="node">
<title>9</title>
<g id="a_node10"><a xlink:href="to_psychologist.svg" xlink:title="psychologist">
<ellipse fill="none" stroke="black" cx="1305.79" cy="-105" rx="57.39" ry="18"/>
<text text-anchor="middle" x="1305.79" y="-101.3" font-family="Times New Roman,serif" font-size="14.00">psychologist</text>
</a>
</g>
</g>
<!-- 9&#45;&gt;0 -->
<g id="edge10" class="edge">
<title>9&#45;&gt;0</title>
<path fill="none" stroke="black" d="M1264.06,-92.51C1256.04,-90.51 1247.68,-88.57 1239.79,-87 1066.44,-52.46 861.49,-34.07 739.59,-25.44"/>
<polygon fill="black" stroke="black" points="739.72,-21.94 729.5,-24.74 739.24,-28.93 739.72,-21.94"/>
<text text-anchor="middle" x="1139.29" y="-57.8" font-family="Times New Roman,serif" font-size="14.00">0.028</text>
</g>
</g>
</svg>
