<?xml version="1.0" encoding="UTF-8" standalone="no"?>
<!DOCTYPE svg PUBLIC "-//W3C//DTD SVG 1.1//EN"
 "http://www.w3.org/Graphics/SVG/1.1/DTD/svg11.dtd">
<!-- Generated by graphviz version 2.44.1 (20200629.0800)
 -->
<!-- Title: test Pages: 1 -->
<svg width="1204pt" height="131pt"
 viewBox="0.00 0.00 1203.74 131.00" xmlns="http://www.w3.org/2000/svg" xmlns:xlink="http://www.w3.org/1999/xlink">
<g id="graph0" class="graph" transform="scale(1 1) rotate(0) translate(4 127)">
<title>test</title>
<polygon fill="white" stroke="transparent" points="-4,4 -4,-127 1199.74,-127 1199.74,4 -4,4"/>
<!-- 0 -->
<g id="node1" class="node">
<title>0</title>
<g id="a_node1"><a xlink:href="to_commissioning editor.svg" xlink:title="commissioning editor">
<ellipse fill="none" stroke="black" cx="601.55" cy="-18" rx="89.08" ry="18"/>
<text text-anchor="middle" x="601.55" y="-14.3" font-family="Times New Roman,serif" font-size="14.00">commissioning editor</text>
</a>
</g>
</g>
<!-- 0&#45;&gt;0 -->
<g id="edge1" class="edge">
<title>0&#45;&gt;0</title>
<path fill="none" stroke="black" d="M682.76,-25.47C697.92,-24.55 708.59,-22.06 708.59,-18 708.59,-14.92 702.46,-12.75 692.9,-11.47"/>
<polygon fill="black" stroke="black" points="693.04,-7.97 682.76,-10.53 692.39,-14.94 693.04,-7.97"/>
<text text-anchor="middle" x="724.09" y="-14.3" font-family="Times New Roman,serif" font-size="14.00">0.252</text>
</g>
<!-- 1 -->
<g id="node2" class="node">
<title>1</title>
<g id="a_node2"><a xlink:href="to_journalist.svg" xlink:title="journalist">
<ellipse fill="none" stroke="black" cx="43.55" cy="-105" rx="43.59" ry="18"/>
<text text-anchor="middle" x="43.55" y="-101.3" font-family="Times New Roman,serif" font-size="14.00">journalist</text>
</a>
</g>
</g>
<!-- 1&#45;&gt;0 -->
<g id="edge2" class="edge">
<title>1&#45;&gt;0</title>
<path fill="none" stroke="black" d="M76.16,-92.86C82.86,-90.77 89.9,-88.7 96.55,-87 237.34,-50.97 405.39,-33.18 507.74,-25.06"/>
<polygon fill="black" stroke="black" points="508.05,-28.54 517.74,-24.28 507.5,-21.57 508.05,-28.54"/>
<text text-anchor="middle" x="263.05" y="-57.8" font-family="Times New Roman,serif" font-size="14.00">0.136</text>
</g>
<!-- 2 -->
<g id="node3" class="node">
<title>2</title>
<g id="a_node3"><a xlink:href="to_content manager.svg" xlink:title="content manager">
<ellipse fill="none" stroke="black" cx="175.55" cy="-105" rx="70.39" ry="18"/>
<text text-anchor="middle" x="175.55" y="-101.3" font-family="Times New Roman,serif" font-size="14.00">content manager</text>
</a>
</g>
</g>
<!-- 2&#45;&gt;0 -->
<g id="edge3" class="edge">
<title>2&#45;&gt;0</title>
<path fill="none" stroke="black" d="M219.51,-90.87C257.61,-79.86 314.34,-64.31 364.55,-54 414.64,-43.71 471.28,-35.23 516.63,-29.2"/>
<polygon fill="black" stroke="black" points="517.26,-32.64 526.72,-27.87 516.35,-25.7 517.26,-32.64"/>
<text text-anchor="middle" x="380.05" y="-57.8" font-family="Times New Roman,serif" font-size="14.00">0.052</text>
</g>
<!-- 3 -->
<g id="node4" class="node">
<title>3</title>
<g id="a_node4"><a xlink:href="to_writer.svg" xlink:title="writer">
<ellipse fill="none" stroke="black" cx="294.55" cy="-105" rx="31.4" ry="18"/>
<text text-anchor="middle" x="294.55" y="-101.3" font-family="Times New Roman,serif" font-size="14.00">writer</text>
</a>
</g>
</g>
<!-- 3&#45;&gt;0 -->
<g id="edge4" class="edge">
<title>3&#45;&gt;0</title>
<path fill="none" stroke="black" d="M318.43,-93.15C323.68,-90.96 329.26,-88.79 334.55,-87 400.46,-64.74 477.67,-45.83 532.05,-33.64"/>
<polygon fill="black" stroke="black" points="532.93,-37.03 541.93,-31.44 531.41,-30.2 532.93,-37.03"/>
<text text-anchor="middle" x="459.05" y="-57.8" font-family="Times New Roman,serif" font-size="14.00">0.052</text>
</g>
<!-- 4 -->
<g id="node5" class="node">
<title>4</title>
<g id="a_node5"><a xlink:href="to_marketing assistant.svg" xlink:title="marketing assistant">
<ellipse fill="none" stroke="black" cx="422.55" cy="-105" rx="79.09" ry="18"/>
<text text-anchor="middle" x="422.55" y="-101.3" font-family="Times New Roman,serif" font-size="14.00">marketing assistant</text>
</a>
</g>
</g>
<!-- 4&#45;&gt;0 -->
<g id="edge5" class="edge">
<title>4&#45;&gt;0</title>
<path fill="none" stroke="black" d="M455.38,-88.41C484.59,-74.54 527.48,-54.17 559.26,-39.08"/>
<polygon fill="black" stroke="black" points="560.78,-42.23 568.32,-34.78 557.78,-35.91 560.78,-42.23"/>
<text text-anchor="middle" x="539.05" y="-57.8" font-family="Times New Roman,serif" font-size="14.00">0.031</text>
</g>
<!-- 5 -->
<g id="node6" class="node">
<title>5</title>
<g id="a_node6"><a xlink:href="to_marketing executive.svg" xlink:title="marketing executive">
<ellipse fill="none" stroke="black" cx="601.55" cy="-105" rx="81.79" ry="18"/>
<text text-anchor="middle" x="601.55" y="-101.3" font-family="Times New Roman,serif" font-size="14.00">marketing executive</text>
</a>
</g>
</g>
<!-- 5&#45;&gt;0 -->
<g id="edge6" class="edge">
<title>5&#45;&gt;0</title>
<path fill="none" stroke="black" d="M601.55,-86.8C601.55,-75.16 601.55,-59.55 601.55,-46.24"/>
<polygon fill="black" stroke="black" points="605.05,-46.18 601.55,-36.18 598.05,-46.18 605.05,-46.18"/>
<text text-anchor="middle" x="617.05" y="-57.8" font-family="Times New Roman,serif" font-size="14.00">0.031</text>
</g>
<!-- 6 -->
<g id="node7" class="node">
<title>6</title>
<g id="a_node7"><a xlink:href="to_it consultant.svg" xlink:title="it consultant">
<ellipse fill="none" stroke="black" cx="755.55" cy="-105" rx="54.69" ry="18"/>
<text text-anchor="middle" x="755.55" y="-101.3" font-family="Times New Roman,serif" font-size="14.00">it consultant</text>
</a>
</g>
</g>
<!-- 6&#45;&gt;0 -->
<g id="edge7" class="edge">
<title>6&#45;&gt;0</title>
<path fill="none" stroke="black" d="M728.72,-89.19C704.1,-75.6 667.36,-55.32 639.69,-40.05"/>
<polygon fill="black" stroke="black" points="641.13,-36.85 630.68,-35.08 637.75,-42.98 641.13,-36.85"/>
<text text-anchor="middle" x="703.05" y="-57.8" font-family="Times New Roman,serif" font-size="14.00">0.021</text>
</g>
<!-- 7 -->
<g id="node8" class="node">
<title>7</title>
<g id="a_node8"><a xlink:href="to_lecturer.svg" xlink:title="lecturer">
<ellipse fill="none" stroke="black" cx="865.55" cy="-105" rx="37.89" ry="18"/>
<text text-anchor="middle" x="865.55" y="-101.3" font-family="Times New Roman,serif" font-size="14.00">lecturer</text>
</a>
</g>
</g>
<!-- 7&#45;&gt;0 -->
<g id="edge8" class="edge">
<title>7&#45;&gt;0</title>
<path fill="none" stroke="black" d="M836.88,-93.27C831.15,-91.17 825.16,-88.99 819.55,-87 776.63,-71.77 765.99,-67.66 722.55,-54 702.74,-47.77 680.98,-41.35 661.44,-35.73"/>
<polygon fill="black" stroke="black" points="662.32,-32.34 651.74,-32.96 660.39,-39.07 662.32,-32.34"/>
<text text-anchor="middle" x="783.05" y="-57.8" font-family="Times New Roman,serif" font-size="14.00">0.021</text>
</g>
<!-- 8 -->
<g id="node9" class="node">
<title>8</title>
<g id="a_node9"><a xlink:href="to_pr officer.svg" xlink:title="pr officer">
<ellipse fill="none" stroke="black" cx="966.55" cy="-105" rx="44.69" ry="18"/>
<text text-anchor="middle" x="966.55" y="-101.3" font-family="Times New Roman,serif" font-size="14.00">pr officer</text>
</a>
</g>
</g>
<!-- 8&#45;&gt;0 -->
<g id="edge9" class="edge">
<title>8&#45;&gt;0</title>
<path fill="none" stroke="black" d="M932.58,-93.23C925.94,-91.15 919.03,-88.99 912.55,-87 863.76,-72 852.22,-65.73 802.55,-54 763.16,-44.7 718.89,-36.73 681.94,-30.75"/>
<polygon fill="black" stroke="black" points="682.15,-27.24 671.73,-29.12 681.05,-34.15 682.15,-27.24"/>
<text text-anchor="middle" x="871.05" y="-57.8" font-family="Times New Roman,serif" font-size="14.00">0.021</text>
</g>
<!-- 9 -->
<g id="node10" class="node">
<title>9</title>
<g id="a_node10"><a xlink:href="to_production manager.svg" xlink:title="production manager">
<ellipse fill="none" stroke="black" cx="1112.55" cy="-105" rx="83.39" ry="18"/>
<text text-anchor="middle" x="1112.55" y="-101.3" font-family="Times New Roman,serif" font-size="14.00">production manager</text>
</a>
</g>
</g>
<!-- 9&#45;&gt;0 -->
<g id="edge10" class="edge">
<title>9&#45;&gt;0</title>
<path fill="none" stroke="black" d="M1060.81,-90.79C1016.01,-79.72 949.33,-64.15 890.55,-54 823.95,-42.5 748.07,-33.46 690.78,-27.45"/>
<polygon fill="black" stroke="black" points="690.98,-23.96 680.67,-26.41 690.25,-30.92 690.98,-23.96"/>
<text text-anchor="middle" x="979.05" y="-57.8" font-family="Times New Roman,serif" font-size="14.00">0.021</text>
</g>
</g>
</svg>
