<?xml version="1.0" encoding="UTF-8" standalone="no"?>
<!DOCTYPE svg PUBLIC "-//W3C//DTD SVG 1.1//EN"
 "http://www.w3.org/Graphics/SVG/1.1/DTD/svg11.dtd">
<!-- Generated by graphviz version 2.44.1 (20200629.0800)
 -->
<!-- Title: test Pages: 1 -->
<svg width="1418pt" height="131pt"
 viewBox="0.00 0.00 1418.19 131.00" xmlns="http://www.w3.org/2000/svg" xmlns:xlink="http://www.w3.org/1999/xlink">
<g id="graph0" class="graph" transform="scale(1 1) rotate(0) translate(4 127)">
<title>test</title>
<polygon fill="white" stroke="transparent" points="-4,4 -4,-127 1414.19,-127 1414.19,4 -4,4"/>
<!-- 0 -->
<g id="node1" class="node">
<title>0</title>
<g id="a_node1"><a xlink:href="to_investment analyst.svg" xlink:title="investment analyst">
<ellipse fill="none" stroke="black" cx="76.69" cy="-105" rx="76.89" ry="18"/>
<text text-anchor="middle" x="76.69" y="-101.3" font-family="Times New Roman,serif" font-size="14.00">investment analyst</text>
</a>
</g>
</g>
<!-- 1 -->
<g id="node2" class="node">
<title>1</title>
<g id="a_node2"><a xlink:href="to_commodity broker.svg" xlink:title="commodity broker">
<ellipse fill="none" stroke="black" cx="724.69" cy="-18" rx="78.79" ry="18"/>
<text text-anchor="middle" x="724.69" y="-14.3" font-family="Times New Roman,serif" font-size="14.00">commodity broker</text>
</a>
</g>
</g>
<!-- 0&#45;&gt;1 -->
<g id="edge1" class="edge">
<title>0&#45;&gt;1</title>
<path fill="none" stroke="black" d="M132.6,-92.54C142.6,-90.6 152.94,-88.68 162.69,-87 261.86,-69.9 286.84,-66.52 386.69,-54 473.97,-43.06 574.23,-32.99 642.75,-26.49"/>
<polygon fill="black" stroke="black" points="643.42,-29.94 653.05,-25.52 642.76,-22.97 643.42,-29.94"/>
<text text-anchor="middle" x="402.19" y="-57.8" font-family="Times New Roman,serif" font-size="14.00">0.090</text>
</g>
<!-- 1&#45;&gt;1 -->
<g id="edge2" class="edge">
<title>1&#45;&gt;1</title>
<path fill="none" stroke="black" d="M796.34,-25.57C810.91,-24.75 821.34,-22.22 821.34,-18 821.34,-14.83 815.47,-12.62 806.39,-11.36"/>
<polygon fill="black" stroke="black" points="806.62,-7.87 796.34,-10.43 805.97,-14.84 806.62,-7.87"/>
<text text-anchor="middle" x="836.84" y="-14.3" font-family="Times New Roman,serif" font-size="14.00">0.068</text>
</g>
<!-- 2 -->
<g id="node3" class="node">
<title>2</title>
<g id="a_node3"><a xlink:href="to_financial manager.svg" xlink:title="financial manager">
<ellipse fill="none" stroke="black" cx="244.69" cy="-105" rx="73.39" ry="18"/>
<text text-anchor="middle" x="244.69" y="-101.3" font-family="Times New Roman,serif" font-size="14.00">financial manager</text>
</a>
</g>
</g>
<!-- 2&#45;&gt;1 -->
<g id="edge3" class="edge">
<title>2&#45;&gt;1</title>
<path fill="none" stroke="black" d="M298.47,-92.69C307.87,-90.76 317.56,-88.8 326.69,-87 405.21,-71.54 424.83,-67.59 503.69,-54 552.6,-45.57 607.73,-36.84 650.7,-30.2"/>
<polygon fill="black" stroke="black" points="651.44,-33.63 660.79,-28.65 650.37,-26.71 651.44,-33.63"/>
<text text-anchor="middle" x="519.19" y="-57.8" font-family="Times New Roman,serif" font-size="14.00">0.068</text>
</g>
<!-- 3 -->
<g id="node4" class="node">
<title>3</title>
<g id="a_node4"><a xlink:href="to_careers adviser.svg" xlink:title="careers adviser">
<ellipse fill="none" stroke="black" cx="400.69" cy="-105" rx="64.99" ry="18"/>
<text text-anchor="middle" x="400.69" y="-101.3" font-family="Times New Roman,serif" font-size="14.00">careers adviser</text>
</a>
</g>
</g>
<!-- 3&#45;&gt;1 -->
<g id="edge4" class="edge">
<title>3&#45;&gt;1</title>
<path fill="none" stroke="black" d="M445.74,-92.02C484.02,-81.85 540.44,-66.9 589.69,-54 614.29,-47.56 641.42,-40.51 664.87,-34.44"/>
<polygon fill="black" stroke="black" points="665.87,-37.8 674.67,-31.91 664.11,-31.02 665.87,-37.8"/>
<text text-anchor="middle" x="605.19" y="-57.8" font-family="Times New Roman,serif" font-size="14.00">0.045</text>
</g>
<!-- 4 -->
<g id="node5" class="node">
<title>4</title>
<g id="a_node5"><a xlink:href="to_hotel manager.svg" xlink:title="hotel manager">
<ellipse fill="none" stroke="black" cx="544.69" cy="-105" rx="61.19" ry="18"/>
<text text-anchor="middle" x="544.69" y="-101.3" font-family="Times New Roman,serif" font-size="14.00">hotel manager</text>
</a>
</g>
</g>
<!-- 4&#45;&gt;1 -->
<g id="edge5" class="edge">
<title>4&#45;&gt;1</title>
<path fill="none" stroke="black" d="M575.64,-89.39C605.19,-75.43 649.94,-54.3 682.7,-38.83"/>
<polygon fill="black" stroke="black" points="684.48,-41.86 692.03,-34.43 681.49,-35.53 684.48,-41.86"/>
<text text-anchor="middle" x="661.19" y="-57.8" font-family="Times New Roman,serif" font-size="14.00">0.045</text>
</g>
<!-- 5 -->
<g id="node6" class="node">
<title>5</title>
<g id="a_node6"><a xlink:href="to_investment fund manager.svg" xlink:title="investment fund manager">
<ellipse fill="none" stroke="black" cx="724.69" cy="-105" rx="100.98" ry="18"/>
<text text-anchor="middle" x="724.69" y="-101.3" font-family="Times New Roman,serif" font-size="14.00">investment fund manager</text>
</a>
</g>
</g>
<!-- 5&#45;&gt;1 -->
<g id="edge6" class="edge">
<title>5&#45;&gt;1</title>
<path fill="none" stroke="black" d="M724.69,-86.8C724.69,-75.16 724.69,-59.55 724.69,-46.24"/>
<polygon fill="black" stroke="black" points="728.19,-46.18 724.69,-36.18 721.19,-46.18 728.19,-46.18"/>
<text text-anchor="middle" x="740.19" y="-57.8" font-family="Times New Roman,serif" font-size="14.00">0.045</text>
</g>
<!-- 6 -->
<g id="node7" class="node">
<title>6</title>
<g id="a_node7"><a xlink:href="to_logistics manager.svg" xlink:title="logistics manager">
<ellipse fill="none" stroke="black" cx="916.69" cy="-105" rx="73.39" ry="18"/>
<text text-anchor="middle" x="916.69" y="-101.3" font-family="Times New Roman,serif" font-size="14.00">logistics manager</text>
</a>
</g>
</g>
<!-- 6&#45;&gt;1 -->
<g id="edge7" class="edge">
<title>6&#45;&gt;1</title>
<path fill="none" stroke="black" d="M882.81,-89C851.03,-74.93 803.32,-53.81 768.63,-38.45"/>
<polygon fill="black" stroke="black" points="769.77,-35.13 759.21,-34.28 766.94,-41.53 769.77,-35.13"/>
<text text-anchor="middle" x="848.19" y="-57.8" font-family="Times New Roman,serif" font-size="14.00">0.045</text>
</g>
<!-- 7 -->
<g id="node8" class="node">
<title>7</title>
<g id="a_node8"><a xlink:href="to_sales manager.svg" xlink:title="sales manager">
<ellipse fill="none" stroke="black" cx="1069.69" cy="-105" rx="61.19" ry="18"/>
<text text-anchor="middle" x="1069.69" y="-101.3" font-family="Times New Roman,serif" font-size="14.00">sales manager</text>
</a>
</g>
</g>
<!-- 7&#45;&gt;1 -->
<g id="edge8" class="edge">
<title>7&#45;&gt;1</title>
<path fill="none" stroke="black" d="M1024.37,-92.75C983.44,-82.59 921.54,-67.25 867.69,-54 840.96,-47.42 811.41,-40.18 786.15,-34"/>
<polygon fill="black" stroke="black" points="786.87,-30.58 776.33,-31.6 785.21,-37.38 786.87,-30.58"/>
<text text-anchor="middle" x="938.19" y="-57.8" font-family="Times New Roman,serif" font-size="14.00">0.045</text>
</g>
<!-- 8 -->
<g id="node9" class="node">
<title>8</title>
<g id="a_node9"><a xlink:href="to_accountant.svg" xlink:title="accountant">
<ellipse fill="none" stroke="black" cx="1198.69" cy="-105" rx="50.09" ry="18"/>
<text text-anchor="middle" x="1198.69" y="-101.3" font-family="Times New Roman,serif" font-size="14.00">accountant</text>
</a>
</g>
</g>
<!-- 8&#45;&gt;1 -->
<g id="edge9" class="edge">
<title>8&#45;&gt;1</title>
<path fill="none" stroke="black" d="M1161.71,-92.72C1154.44,-90.68 1146.85,-88.68 1139.69,-87 1023.39,-59.78 886.25,-39.58 802.41,-28.54"/>
<polygon fill="black" stroke="black" points="802.82,-25.07 792.45,-27.24 801.91,-32.01 802.82,-25.07"/>
<text text-anchor="middle" x="1064.19" y="-57.8" font-family="Times New Roman,serif" font-size="14.00">0.022</text>
</g>
<!-- 9 -->
<g id="node10" class="node">
<title>9</title>
<g id="a_node10"><a xlink:href="to_catering manager.svg" xlink:title="catering manager">
<ellipse fill="none" stroke="black" cx="1338.69" cy="-105" rx="71.49" ry="18"/>
<text text-anchor="middle" x="1338.69" y="-101.3" font-family="Times New Roman,serif" font-size="14.00">catering manager</text>
</a>
</g>
</g>
<!-- 9&#45;&gt;1 -->
<g id="edge10" class="edge">
<title>9&#45;&gt;1</title>
<path fill="none" stroke="black" d="M1286,-92.79C1276.58,-90.83 1266.85,-88.83 1257.69,-87 1180.51,-71.58 1161.61,-65.16 1083.69,-54 989.85,-40.56 881.46,-30.77 808.54,-25.02"/>
<polygon fill="black" stroke="black" points="808.74,-21.53 798.49,-24.24 808.19,-28.51 808.74,-21.53"/>
<text text-anchor="middle" x="1186.19" y="-57.8" font-family="Times New Roman,serif" font-size="14.00">0.022</text>
</g>
</g>
</svg>
