<?xml version="1.0" encoding="UTF-8" standalone="no"?>
<!DOCTYPE svg PUBLIC "-//W3C//DTD SVG 1.1//EN"
 "http://www.w3.org/Graphics/SVG/1.1/DTD/svg11.dtd">
<!-- Generated by graphviz version 2.44.1 (20200629.0800)
 -->
<!-- Title: commercial_horticulturist Pages: 1 -->
<svg width="1506pt" height="131pt"
 viewBox="0.00 0.00 1506.48 131.00" xmlns="http://www.w3.org/2000/svg" xmlns:xlink="http://www.w3.org/1999/xlink">
<g id="graph0" class="graph" transform="scale(1 1) rotate(0) translate(4 127)">
<title>commercial_horticulturist</title>
<polygon fill="white" stroke="transparent" points="-4,4 -4,-127 1502.48,-127 1502.48,4 -4,4"/>
<!-- 0 -->
<g id="node1" class="node">
<title>0</title>
<g id="a_node1"><a xlink:href="to_financial manager.svg" xlink:title="financial manager">
<ellipse fill="none" stroke="black" cx="73.44" cy="-105" rx="73.39" ry="18"/>
<text text-anchor="middle" x="73.44" y="-101.3" font-family="Times New Roman,serif" font-size="14.00">financial manager</text>
</a>
</g>
</g>
<!-- 1 -->
<g id="node2" class="node">
<title>1</title>
<g id="a_node2"><a xlink:href="to_commercial horticulturist.svg" xlink:title="commercial horticulturist">
<ellipse fill="none" stroke="black" cx="694.44" cy="-18" rx="100.98" ry="18"/>
<text text-anchor="middle" x="694.44" y="-14.3" font-family="Times New Roman,serif" font-size="14.00">commercial horticulturist</text>
</a>
</g>
</g>
<!-- 0&#45;&gt;1 -->
<g id="edge1" class="edge">
<title>0&#45;&gt;1</title>
<path fill="none" stroke="black" d="M126.93,-92.56C136.73,-90.6 146.88,-88.67 156.44,-87 310.09,-60.22 490.16,-39.62 598.13,-28.42"/>
<polygon fill="black" stroke="black" points="598.76,-31.88 608.35,-27.37 598.04,-24.91 598.76,-31.88"/>
<text text-anchor="middle" x="392.94" y="-57.8" font-family="Times New Roman,serif" font-size="14.00">0.066</text>
</g>
<!-- 1&#45;&gt;1 -->
<g id="edge5" class="edge">
<title>1&#45;&gt;1</title>
<path fill="none" stroke="black" d="M786.55,-25.35C802.28,-24.35 813.18,-21.9 813.18,-18 813.18,-15.02 806.79,-12.88 796.74,-11.59"/>
<polygon fill="black" stroke="black" points="796.83,-8.09 786.55,-10.65 796.18,-15.06 796.83,-8.09"/>
<text text-anchor="middle" x="828.68" y="-14.3" font-family="Times New Roman,serif" font-size="14.00">0.044</text>
</g>
<!-- 2 -->
<g id="node3" class="node">
<title>2</title>
<g id="a_node3"><a xlink:href="to_insurance broker.svg" xlink:title="insurance broker">
<ellipse fill="none" stroke="black" cx="236.44" cy="-105" rx="71.49" ry="18"/>
<text text-anchor="middle" x="236.44" y="-101.3" font-family="Times New Roman,serif" font-size="14.00">insurance broker</text>
</a>
</g>
</g>
<!-- 2&#45;&gt;1 -->
<g id="edge2" class="edge">
<title>2&#45;&gt;1</title>
<path fill="none" stroke="black" d="M288.91,-92.66C298.08,-90.74 307.53,-88.78 316.44,-87 418.6,-66.57 536.85,-45.75 613.51,-32.63"/>
<polygon fill="black" stroke="black" points="614.31,-36.04 623.58,-30.9 613.13,-29.14 614.31,-36.04"/>
<text text-anchor="middle" x="497.94" y="-57.8" font-family="Times New Roman,serif" font-size="14.00">0.066</text>
</g>
<!-- 3 -->
<g id="node4" class="node">
<title>3</title>
<g id="a_node4"><a xlink:href="to_project manager.svg" xlink:title="project manager">
<ellipse fill="none" stroke="black" cx="394.44" cy="-105" rx="68.79" ry="18"/>
<text text-anchor="middle" x="394.44" y="-101.3" font-family="Times New Roman,serif" font-size="14.00">project manager</text>
</a>
</g>
</g>
<!-- 3&#45;&gt;1 -->
<g id="edge3" class="edge">
<title>3&#45;&gt;1</title>
<path fill="none" stroke="black" d="M439.36,-91.27C490.97,-76.65 575.93,-52.58 633.48,-36.27"/>
<polygon fill="black" stroke="black" points="634.52,-39.62 643.18,-33.52 632.61,-32.88 634.52,-39.62"/>
<text text-anchor="middle" x="577.94" y="-57.8" font-family="Times New Roman,serif" font-size="14.00">0.066</text>
</g>
<!-- 4 -->
<g id="node5" class="node">
<title>4</title>
<g id="a_node5"><a xlink:href="to_sales manager.svg" xlink:title="sales manager">
<ellipse fill="none" stroke="black" cx="542.44" cy="-105" rx="61.19" ry="18"/>
<text text-anchor="middle" x="542.44" y="-101.3" font-family="Times New Roman,serif" font-size="14.00">sales manager</text>
</a>
</g>
</g>
<!-- 4&#45;&gt;1 -->
<g id="edge4" class="edge">
<title>4&#45;&gt;1</title>
<path fill="none" stroke="black" d="M569.62,-88.8C593.78,-75.29 629.37,-55.39 656.37,-40.29"/>
<polygon fill="black" stroke="black" points="658.15,-43.3 665.17,-35.37 654.74,-37.2 658.15,-43.3"/>
<text text-anchor="middle" x="643.94" y="-57.8" font-family="Times New Roman,serif" font-size="14.00">0.066</text>
</g>
<!-- 5 -->
<g id="node6" class="node">
<title>5</title>
<g id="a_node6"><a xlink:href="to_research scientist.svg" xlink:title="research scientist">
<ellipse fill="none" stroke="black" cx="694.44" cy="-105" rx="72.59" ry="18"/>
<text text-anchor="middle" x="694.44" y="-101.3" font-family="Times New Roman,serif" font-size="14.00">research scientist</text>
</a>
</g>
</g>
<!-- 5&#45;&gt;1 -->
<g id="edge6" class="edge">
<title>5&#45;&gt;1</title>
<path fill="none" stroke="black" d="M694.44,-86.8C694.44,-75.16 694.44,-59.55 694.44,-46.24"/>
<polygon fill="black" stroke="black" points="697.94,-46.18 694.44,-36.18 690.94,-46.18 697.94,-46.18"/>
<text text-anchor="middle" x="709.94" y="-57.8" font-family="Times New Roman,serif" font-size="14.00">0.044</text>
</g>
<!-- 6 -->
<g id="node7" class="node">
<title>6</title>
<g id="a_node7"><a xlink:href="to_biotechnologist.svg" xlink:title="biotechnologist">
<ellipse fill="none" stroke="black" cx="851.44" cy="-105" rx="66.09" ry="18"/>
<text text-anchor="middle" x="851.44" y="-101.3" font-family="Times New Roman,serif" font-size="14.00">biotechnologist</text>
</a>
</g>
</g>
<!-- 6&#45;&gt;1 -->
<g id="edge7" class="edge">
<title>6&#45;&gt;1</title>
<path fill="none" stroke="black" d="M823.01,-88.61C798,-75.07 761.36,-55.23 733.59,-40.19"/>
<polygon fill="black" stroke="black" points="735,-36.98 724.54,-35.29 731.66,-43.13 735,-36.98"/>
<text text-anchor="middle" x="797.94" y="-57.8" font-family="Times New Roman,serif" font-size="14.00">0.022</text>
</g>
<!-- 7 -->
<g id="node8" class="node">
<title>7</title>
<g id="a_node8"><a xlink:href="to_charities administrator.svg" xlink:title="charities administrator">
<ellipse fill="none" stroke="black" cx="1026.44" cy="-105" rx="90.18" ry="18"/>
<text text-anchor="middle" x="1026.44" y="-101.3" font-family="Times New Roman,serif" font-size="14.00">charities administrator</text>
</a>
</g>
</g>
<!-- 7&#45;&gt;1 -->
<g id="edge8" class="edge">
<title>7&#45;&gt;1</title>
<path fill="none" stroke="black" d="M973.1,-90.34C914.9,-75.44 821.72,-51.59 759.33,-35.61"/>
<polygon fill="black" stroke="black" points="760.14,-32.21 749.59,-33.12 758.41,-38.99 760.14,-32.21"/>
<text text-anchor="middle" x="895.94" y="-57.8" font-family="Times New Roman,serif" font-size="14.00">0.022</text>
</g>
<!-- 8 -->
<g id="node9" class="node">
<title>8</title>
<g id="a_node9"><a xlink:href="to_civil engineer.svg" xlink:title="civil engineer">
<ellipse fill="none" stroke="black" cx="1192.44" cy="-105" rx="57.69" ry="18"/>
<text text-anchor="middle" x="1192.44" y="-101.3" font-family="Times New Roman,serif" font-size="14.00">civil engineer</text>
</a>
</g>
</g>
<!-- 8&#45;&gt;1 -->
<g id="edge9" class="edge">
<title>8&#45;&gt;1</title>
<path fill="none" stroke="black" d="M1150.05,-92.62C1141.91,-90.61 1133.44,-88.64 1125.44,-87 1008.03,-62.89 871.1,-42.61 783.64,-30.63"/>
<polygon fill="black" stroke="black" points="783.86,-27.13 773.48,-29.25 782.92,-34.07 783.86,-27.13"/>
<text text-anchor="middle" x="1034.94" y="-57.8" font-family="Times New Roman,serif" font-size="14.00">0.022</text>
</g>
<!-- 9 -->
<g id="node10" class="node">
<title>9</title>
<g id="a_node10"><a xlink:href="to_community education officer.svg" xlink:title="community education officer">
<ellipse fill="none" stroke="black" cx="1383.44" cy="-105" rx="115.08" ry="18"/>
<text text-anchor="middle" x="1383.44" y="-101.3" font-family="Times New Roman,serif" font-size="14.00">community education officer</text>
</a>
</g>
</g>
<!-- 9&#45;&gt;1 -->
<g id="edge10" class="edge">
<title>9&#45;&gt;1</title>
<path fill="none" stroke="black" d="M1308.14,-91.37C1241.56,-80.49 1141.73,-64.87 1054.44,-54 966.66,-43.07 866.47,-33.57 794.12,-27.24"/>
<polygon fill="black" stroke="black" points="794.36,-23.75 784.1,-26.36 793.76,-30.72 794.36,-23.75"/>
<text text-anchor="middle" x="1177.94" y="-57.8" font-family="Times New Roman,serif" font-size="14.00">0.022</text>
</g>
</g>
</svg>
