<?xml version="1.0" encoding="UTF-8" standalone="no"?>
<!DOCTYPE svg PUBLIC "-//W3C//DTD SVG 1.1//EN"
 "http://www.w3.org/Graphics/SVG/1.1/DTD/svg11.dtd">
<!-- Generated by graphviz version 2.44.1 (20200629.0800)
 -->
<!-- Title: cartographer Pages: 1 -->
<svg width="1359pt" height="131pt"
 viewBox="0.00 0.00 1358.54 131.00" xmlns="http://www.w3.org/2000/svg" xmlns:xlink="http://www.w3.org/1999/xlink">
<g id="graph0" class="graph" transform="scale(1 1) rotate(0) translate(4 127)">
<title>cartographer</title>
<polygon fill="white" stroke="transparent" points="-4,4 -4,-127 1354.54,-127 1354.54,4 -4,4"/>
<!-- 0 -->
<g id="node1" class="node">
<title>0</title>
<g id="a_node1"><a xlink:href="to_broadcasting presenter.svg" xlink:title="broadcasting presenter">
<ellipse fill="none" stroke="black" cx="92.94" cy="-105" rx="92.88" ry="18"/>
<text text-anchor="middle" x="92.94" y="-101.3" font-family="Times New Roman,serif" font-size="14.00">broadcasting presenter</text>
</a>
</g>
</g>
<!-- 1 -->
<g id="node2" class="node">
<title>1</title>
<g id="a_node2"><a xlink:href="to_cartographer.svg" xlink:title="cartographer">
<ellipse fill="none" stroke="black" cx="702.94" cy="-18" rx="56.59" ry="18"/>
<text text-anchor="middle" x="702.94" y="-14.3" font-family="Times New Roman,serif" font-size="14.00">cartographer</text>
</a>
</g>
</g>
<!-- 0&#45;&gt;1 -->
<g id="edge1" class="edge">
<title>0&#45;&gt;1</title>
<path fill="none" stroke="black" d="M160.1,-92.49C171.71,-90.59 183.67,-88.69 194.94,-87 355.62,-62.86 545.53,-38.56 641.23,-26.61"/>
<polygon fill="black" stroke="black" points="641.82,-30.07 651.31,-25.36 640.95,-23.12 641.82,-30.07"/>
<text text-anchor="middle" x="426.94" y="-57.8" font-family="Times New Roman,serif" font-size="14.00">0.2</text>
</g>
<!-- 2 -->
<g id="node3" class="node">
<title>2</title>
<g id="a_node3"><a xlink:href="to_community worker.svg" xlink:title="community worker">
<ellipse fill="none" stroke="black" cx="282.94" cy="-105" rx="79.09" ry="18"/>
<text text-anchor="middle" x="282.94" y="-101.3" font-family="Times New Roman,serif" font-size="14.00">community worker</text>
</a>
</g>
</g>
<!-- 2&#45;&gt;1 -->
<g id="edge2" class="edge">
<title>2&#45;&gt;1</title>
<path fill="none" stroke="black" d="M340.02,-92.45C420.57,-76.15 566.69,-46.58 646.75,-30.37"/>
<polygon fill="black" stroke="black" points="647.54,-33.78 656.65,-28.37 646.16,-26.92 647.54,-33.78"/>
<text text-anchor="middle" x="527.94" y="-57.8" font-family="Times New Roman,serif" font-size="14.00">0.1</text>
</g>
<!-- 3 -->
<g id="node4" class="node">
<title>3</title>
<g id="a_node4"><a xlink:href="to_heritage manager.svg" xlink:title="heritage manager">
<ellipse fill="none" stroke="black" cx="451.94" cy="-105" rx="71.49" ry="18"/>
<text text-anchor="middle" x="451.94" y="-101.3" font-family="Times New Roman,serif" font-size="14.00">heritage manager</text>
</a>
</g>
</g>
<!-- 3&#45;&gt;1 -->
<g id="edge3" class="edge">
<title>3&#45;&gt;1</title>
<path fill="none" stroke="black" d="M492.83,-90.15C537.57,-75 609.17,-50.76 656.13,-34.85"/>
<polygon fill="black" stroke="black" points="657.41,-38.11 665.76,-31.59 655.16,-31.48 657.41,-38.11"/>
<text text-anchor="middle" x="601.94" y="-57.8" font-family="Times New Roman,serif" font-size="14.00">0.1</text>
</g>
<!-- 4 -->
<g id="node5" class="node">
<title>4</title>
<g id="a_node5"><a xlink:href="to_it consultant.svg" xlink:title="it consultant">
<ellipse fill="none" stroke="black" cx="595.94" cy="-105" rx="54.69" ry="18"/>
<text text-anchor="middle" x="595.94" y="-101.3" font-family="Times New Roman,serif" font-size="14.00">it consultant</text>
</a>
</g>
</g>
<!-- 4&#45;&gt;1 -->
<g id="edge4" class="edge">
<title>4&#45;&gt;1</title>
<path fill="none" stroke="black" d="M615.82,-88.21C632.45,-75 656.38,-55.99 674.96,-41.23"/>
<polygon fill="black" stroke="black" points="677.16,-43.95 682.81,-34.99 672.8,-38.47 677.16,-43.95"/>
<text text-anchor="middle" x="664.94" y="-57.8" font-family="Times New Roman,serif" font-size="14.00">0.1</text>
</g>
<!-- 5 -->
<g id="node6" class="node">
<title>5</title>
<g id="a_node6"><a xlink:href="to_lawyer.svg" xlink:title="lawyer">
<ellipse fill="none" stroke="black" cx="702.94" cy="-105" rx="34.39" ry="18"/>
<text text-anchor="middle" x="702.94" y="-101.3" font-family="Times New Roman,serif" font-size="14.00">lawyer</text>
</a>
</g>
</g>
<!-- 5&#45;&gt;1 -->
<g id="edge5" class="edge">
<title>5&#45;&gt;1</title>
<path fill="none" stroke="black" d="M702.94,-86.8C702.94,-75.16 702.94,-59.55 702.94,-46.24"/>
<polygon fill="black" stroke="black" points="706.44,-46.18 702.94,-36.18 699.44,-46.18 706.44,-46.18"/>
<text text-anchor="middle" x="711.94" y="-57.8" font-family="Times New Roman,serif" font-size="14.00">0.1</text>
</g>
<!-- 6 -->
<g id="node7" class="node">
<title>6</title>
<g id="a_node7"><a xlink:href="to_production manager.svg" xlink:title="production manager">
<ellipse fill="none" stroke="black" cx="838.94" cy="-105" rx="83.39" ry="18"/>
<text text-anchor="middle" x="838.94" y="-101.3" font-family="Times New Roman,serif" font-size="14.00">production manager</text>
</a>
</g>
</g>
<!-- 6&#45;&gt;1 -->
<g id="edge6" class="edge">
<title>6&#45;&gt;1</title>
<path fill="none" stroke="black" d="M813.04,-87.81C791.17,-74.14 759.73,-54.49 736.04,-39.68"/>
<polygon fill="black" stroke="black" points="737.71,-36.6 727.37,-34.27 734,-42.54 737.71,-36.6"/>
<text text-anchor="middle" x="788.94" y="-57.8" font-family="Times New Roman,serif" font-size="14.00">0.1</text>
</g>
<!-- 7 -->
<g id="node8" class="node">
<title>7</title>
<g id="a_node8"><a xlink:href="to_qa analyst.svg" xlink:title="qa analyst">
<ellipse fill="none" stroke="black" cx="986.94" cy="-105" rx="46.59" ry="18"/>
<text text-anchor="middle" x="986.94" y="-101.3" font-family="Times New Roman,serif" font-size="14.00">qa analyst</text>
</a>
</g>
</g>
<!-- 7&#45;&gt;1 -->
<g id="edge7" class="edge">
<title>7&#45;&gt;1</title>
<path fill="none" stroke="black" d="M951.4,-93.18C944.61,-91.12 937.56,-88.99 930.94,-87 869.59,-68.54 798.87,-47.48 752.67,-33.76"/>
<polygon fill="black" stroke="black" points="753.49,-30.35 742.91,-30.86 751.5,-37.06 753.49,-30.35"/>
<text text-anchor="middle" x="877.94" y="-57.8" font-family="Times New Roman,serif" font-size="14.00">0.1</text>
</g>
<!-- 8 -->
<g id="node9" class="node">
<title>8</title>
<g id="a_node9"><a xlink:href="to_research scientist.svg" xlink:title="research scientist">
<ellipse fill="none" stroke="black" cx="1124.94" cy="-105" rx="72.59" ry="18"/>
<text text-anchor="middle" x="1124.94" y="-101.3" font-family="Times New Roman,serif" font-size="14.00">research scientist</text>
</a>
</g>
</g>
<!-- 8&#45;&gt;1 -->
<g id="edge8" class="edge">
<title>8&#45;&gt;1</title>
<path fill="none" stroke="black" d="M1072.52,-92.38C1025.15,-81.99 953.47,-66.5 890.94,-54 847.5,-45.32 798.26,-36.17 761.07,-29.41"/>
<polygon fill="black" stroke="black" points="761.38,-25.91 750.92,-27.57 760.13,-32.8 761.38,-25.91"/>
<text text-anchor="middle" x="969.94" y="-57.8" font-family="Times New Roman,serif" font-size="14.00">0.1</text>
</g>
<!-- 9 -->
<g id="node10" class="node">
<title>9</title>
<g id="a_node10"><a xlink:href="to_systems analyst.svg" xlink:title="systems analyst">
<ellipse fill="none" stroke="black" cx="1282.94" cy="-105" rx="67.69" ry="18"/>
<text text-anchor="middle" x="1282.94" y="-101.3" font-family="Times New Roman,serif" font-size="14.00">systems analyst</text>
</a>
</g>
</g>
<!-- 9&#45;&gt;1 -->
<g id="edge9" class="edge">
<title>9&#45;&gt;1</title>
<path fill="none" stroke="black" d="M1233.99,-92.49C1225.02,-90.54 1215.72,-88.63 1206.94,-87 1049.26,-57.79 861.62,-35.8 765.91,-25.49"/>
<polygon fill="black" stroke="black" points="766.13,-21.99 755.82,-24.41 765.39,-28.95 766.13,-21.99"/>
<text text-anchor="middle" x="1105.94" y="-57.8" font-family="Times New Roman,serif" font-size="14.00">0.1</text>
</g>
</g>
</svg>
