<?xml version="1.0" encoding="UTF-8" standalone="no"?>
<!DOCTYPE svg PUBLIC "-//W3C//DTD SVG 1.1//EN"
 "http://www.w3.org/Graphics/SVG/1.1/DTD/svg11.dtd">
<!-- Generated by graphviz version 2.44.1 (20200629.0800)
 -->
<!-- Title: test Pages: 1 -->
<svg width="1548pt" height="131pt"
 viewBox="0.00 0.00 1547.74 131.00" xmlns="http://www.w3.org/2000/svg" xmlns:xlink="http://www.w3.org/1999/xlink">
<g id="graph0" class="graph" transform="scale(1 1) rotate(0) translate(4 127)">
<title>test</title>
<polygon fill="white" stroke="transparent" points="-4,4 -4,-127 1543.74,-127 1543.74,4 -4,4"/>
<!-- 0 -->
<g id="node1" class="node">
<title>0</title>
<g id="a_node1"><a xlink:href="to_civil engineer.svg" xlink:title="civil engineer">
<ellipse fill="none" stroke="black" cx="808.69" cy="-18" rx="57.69" ry="18"/>
<text text-anchor="middle" x="808.69" y="-14.3" font-family="Times New Roman,serif" font-size="14.00">civil engineer</text>
</a>
</g>
</g>
<!-- 0&#45;&gt;0 -->
<g id="edge1" class="edge">
<title>0&#45;&gt;0</title>
<path fill="none" stroke="black" d="M861.16,-25.78C874.51,-25.27 884.54,-22.68 884.54,-18 884.54,-14.6 879.24,-12.3 871.23,-11.11"/>
<polygon fill="black" stroke="black" points="871.42,-7.61 861.16,-10.22 870.81,-14.58 871.42,-7.61"/>
<text text-anchor="middle" x="900.04" y="-14.3" font-family="Times New Roman,serif" font-size="14.00">0.293</text>
</g>
<!-- 1 -->
<g id="node2" class="node">
<title>1</title>
<g id="a_node2"><a xlink:href="to_structural engineer.svg" xlink:title="structural engineer">
<ellipse fill="none" stroke="black" cx="76.69" cy="-105" rx="76.89" ry="18"/>
<text text-anchor="middle" x="76.69" y="-101.3" font-family="Times New Roman,serif" font-size="14.00">structural engineer</text>
</a>
</g>
</g>
<!-- 1&#45;&gt;0 -->
<g id="edge2" class="edge">
<title>1&#45;&gt;0</title>
<path fill="none" stroke="black" d="M132.1,-92.45C142.26,-90.51 152.78,-88.6 162.69,-87 373.16,-53.04 625.06,-32.15 742.43,-23.55"/>
<polygon fill="black" stroke="black" points="742.96,-27.02 752.68,-22.81 742.46,-20.04 742.96,-27.02"/>
<text text-anchor="middle" x="409.19" y="-57.8" font-family="Times New Roman,serif" font-size="14.00">0.072</text>
</g>
<!-- 2 -->
<g id="node3" class="node">
<title>2</title>
<g id="a_node3"><a xlink:href="to_mechanical engineer.svg" xlink:title="mechanical engineer">
<ellipse fill="none" stroke="black" cx="254.69" cy="-105" rx="83.39" ry="18"/>
<text text-anchor="middle" x="254.69" y="-101.3" font-family="Times New Roman,serif" font-size="14.00">mechanical engineer</text>
</a>
</g>
</g>
<!-- 2&#45;&gt;0 -->
<g id="edge3" class="edge">
<title>2&#45;&gt;0</title>
<path fill="none" stroke="black" d="M315.02,-92.56C325.56,-90.64 336.44,-88.72 346.69,-87 489.36,-63.08 657.6,-39.47 746.45,-27.36"/>
<polygon fill="black" stroke="black" points="747.19,-30.79 756.62,-25.97 746.24,-23.85 747.19,-30.79"/>
<text text-anchor="middle" x="565.19" y="-57.8" font-family="Times New Roman,serif" font-size="14.00">0.061</text>
</g>
<!-- 3 -->
<g id="node4" class="node">
<title>3</title>
<g id="a_node4"><a xlink:href="to_software developer.svg" xlink:title="software developer">
<ellipse fill="none" stroke="black" cx="435.69" cy="-105" rx="79.89" ry="18"/>
<text text-anchor="middle" x="435.69" y="-101.3" font-family="Times New Roman,serif" font-size="14.00">software developer</text>
</a>
</g>
</g>
<!-- 3&#45;&gt;0 -->
<g id="edge4" class="edge">
<title>3&#45;&gt;0</title>
<path fill="none" stroke="black" d="M489.93,-91.64C560.32,-75.6 682.49,-47.76 753.4,-31.6"/>
<polygon fill="black" stroke="black" points="754.5,-34.94 763.47,-29.3 752.95,-28.11 754.5,-34.94"/>
<text text-anchor="middle" x="660.19" y="-57.8" font-family="Times New Roman,serif" font-size="14.00">0.056</text>
</g>
<!-- 4 -->
<g id="node5" class="node">
<title>4</title>
<g id="a_node5"><a xlink:href="to_manufacturing engineer.svg" xlink:title="manufacturing engineer">
<ellipse fill="none" stroke="black" cx="627.69" cy="-105" rx="94.48" ry="18"/>
<text text-anchor="middle" x="627.69" y="-101.3" font-family="Times New Roman,serif" font-size="14.00">manufacturing engineer</text>
</a>
</g>
</g>
<!-- 4&#45;&gt;0 -->
<g id="edge5" class="edge">
<title>4&#45;&gt;0</title>
<path fill="none" stroke="black" d="M661.74,-88.01C692.22,-73.7 736.92,-52.71 769.01,-37.64"/>
<polygon fill="black" stroke="black" points="770.55,-40.78 778.12,-33.36 767.58,-34.44 770.55,-40.78"/>
<text text-anchor="middle" x="745.19" y="-57.8" font-family="Times New Roman,serif" font-size="14.00">0.041</text>
</g>
<!-- 5 -->
<g id="node6" class="node">
<title>5</title>
<g id="a_node6"><a xlink:href="to_project manager.svg" xlink:title="project manager">
<ellipse fill="none" stroke="black" cx="808.69" cy="-105" rx="68.79" ry="18"/>
<text text-anchor="middle" x="808.69" y="-101.3" font-family="Times New Roman,serif" font-size="14.00">project manager</text>
</a>
</g>
</g>
<!-- 5&#45;&gt;0 -->
<g id="edge6" class="edge">
<title>5&#45;&gt;0</title>
<path fill="none" stroke="black" d="M808.69,-86.8C808.69,-75.16 808.69,-59.55 808.69,-46.24"/>
<polygon fill="black" stroke="black" points="812.19,-46.18 808.69,-36.18 805.19,-46.18 812.19,-46.18"/>
<text text-anchor="middle" x="824.19" y="-57.8" font-family="Times New Roman,serif" font-size="14.00">0.041</text>
</g>
<!-- 6 -->
<g id="node7" class="node">
<title>6</title>
<g id="a_node7"><a xlink:href="to_electrical engineer.svg" xlink:title="electrical engineer">
<ellipse fill="none" stroke="black" cx="970.69" cy="-105" rx="74.99" ry="18"/>
<text text-anchor="middle" x="970.69" y="-101.3" font-family="Times New Roman,serif" font-size="14.00">electrical engineer</text>
</a>
</g>
</g>
<!-- 6&#45;&gt;0 -->
<g id="edge7" class="edge">
<title>6&#45;&gt;0</title>
<path fill="none" stroke="black" d="M940.98,-88.41C914.19,-74.35 874.69,-53.63 845.83,-38.49"/>
<polygon fill="black" stroke="black" points="847.34,-35.33 836.86,-33.78 844.09,-41.53 847.34,-35.33"/>
<text text-anchor="middle" x="915.19" y="-57.8" font-family="Times New Roman,serif" font-size="14.00">0.036</text>
</g>
<!-- 7 -->
<g id="node8" class="node">
<title>7</title>
<g id="a_node8"><a xlink:href="to_it consultant.svg" xlink:title="it consultant">
<ellipse fill="none" stroke="black" cx="1117.69" cy="-105" rx="54.69" ry="18"/>
<text text-anchor="middle" x="1117.69" y="-101.3" font-family="Times New Roman,serif" font-size="14.00">it consultant</text>
</a>
</g>
</g>
<!-- 7&#45;&gt;0 -->
<g id="edge8" class="edge">
<title>7&#45;&gt;0</title>
<path fill="none" stroke="black" d="M1077.3,-92.89C1021.67,-77.58 921.44,-50.01 860.4,-33.22"/>
<polygon fill="black" stroke="black" points="861.15,-29.8 850.58,-30.52 859.3,-36.55 861.15,-29.8"/>
<text text-anchor="middle" x="998.19" y="-57.8" font-family="Times New Roman,serif" font-size="14.00">0.020</text>
</g>
<!-- 8 -->
<g id="node9" class="node">
<title>8</title>
<g id="a_node9"><a xlink:href="to_network administrator.svg" xlink:title="network administrator">
<ellipse fill="none" stroke="black" cx="1279.69" cy="-105" rx="89.88" ry="18"/>
<text text-anchor="middle" x="1279.69" y="-101.3" font-family="Times New Roman,serif" font-size="14.00">network administrator</text>
</a>
</g>
</g>
<!-- 8&#45;&gt;0 -->
<g id="edge9" class="edge">
<title>8&#45;&gt;0</title>
<path fill="none" stroke="black" d="M1218.09,-91.84C1165.05,-81.46 1086.41,-66.31 1017.69,-54 967.68,-45.04 910.8,-35.56 869.02,-28.73"/>
<polygon fill="black" stroke="black" points="869.44,-25.25 859,-27.1 868.31,-32.16 869.44,-25.25"/>
<text text-anchor="middle" x="1112.19" y="-57.8" font-family="Times New Roman,serif" font-size="14.00">0.020</text>
</g>
<!-- 9 -->
<g id="node10" class="node">
<title>9</title>
<g id="a_node10"><a xlink:href="to_academic librarian.svg" xlink:title="academic librarian">
<ellipse fill="none" stroke="black" cx="1463.69" cy="-105" rx="76.09" ry="18"/>
<text text-anchor="middle" x="1463.69" y="-101.3" font-family="Times New Roman,serif" font-size="14.00">academic librarian</text>
</a>
</g>
</g>
<!-- 9&#45;&gt;0 -->
<g id="edge10" class="edge">
<title>9&#45;&gt;0</title>
<path fill="none" stroke="black" d="M1408.92,-92.5C1398.89,-90.55 1388.49,-88.63 1378.69,-87 1196.74,-56.68 979.94,-34.66 873.79,-24.78"/>
<polygon fill="black" stroke="black" points="873.84,-21.27 863.56,-23.84 873.19,-28.24 873.84,-21.27"/>
<text text-anchor="middle" x="1269.19" y="-57.8" font-family="Times New Roman,serif" font-size="14.00">0.015</text>
</g>
</g>
</svg>
