<?xml version="1.0" encoding="UTF-8" standalone="no"?>
<!DOCTYPE svg PUBLIC "-//W3C//DTD SVG 1.1//EN"
 "http://www.w3.org/Graphics/SVG/1.1/DTD/svg11.dtd">
<!-- Generated by graphviz version 2.44.1 (20200629.0800)
 -->
<!-- Title: test Pages: 1 -->
<svg width="1617pt" height="131pt"
 viewBox="0.00 0.00 1617.09 131.00" xmlns="http://www.w3.org/2000/svg" xmlns:xlink="http://www.w3.org/1999/xlink">
<g id="graph0" class="graph" transform="scale(1 1) rotate(0) translate(4 127)">
<title>test</title>
<polygon fill="white" stroke="transparent" points="-4,4 -4,-127 1613.09,-127 1613.09,4 -4,4"/>
<!-- 0 -->
<g id="node1" class="node">
<title>0</title>
<g id="a_node1"><a xlink:href="to_community education officer.svg" xlink:title="community education officer">
<ellipse fill="none" stroke="black" cx="780.89" cy="-18" rx="115.08" ry="18"/>
<text text-anchor="middle" x="780.89" y="-14.3" font-family="Times New Roman,serif" font-size="14.00">community education officer</text>
</a>
</g>
</g>
<!-- 0&#45;&gt;0 -->
<g id="edge1" class="edge">
<title>0&#45;&gt;0</title>
<path fill="none" stroke="black" d="M886.29,-25.22C902.73,-24.14 913.93,-21.73 913.93,-18 913.93,-15.08 907.09,-12.98 896.26,-11.68"/>
<polygon fill="black" stroke="black" points="896.56,-8.19 886.29,-10.78 895.93,-15.17 896.56,-8.19"/>
<text text-anchor="middle" x="929.43" y="-14.3" font-family="Times New Roman,serif" font-size="14.00">0.073</text>
</g>
<!-- 1 -->
<g id="node2" class="node">
<title>1</title>
<g id="a_node2"><a xlink:href="to_project manager.svg" xlink:title="project manager">
<ellipse fill="none" stroke="black" cx="68.89" cy="-105" rx="68.79" ry="18"/>
<text text-anchor="middle" x="68.89" y="-101.3" font-family="Times New Roman,serif" font-size="14.00">project manager</text>
</a>
</g>
</g>
<!-- 1&#45;&gt;0 -->
<g id="edge2" class="edge">
<title>1&#45;&gt;0</title>
<path fill="none" stroke="black" d="M119.15,-92.54C128.36,-90.59 137.9,-88.66 146.89,-87 243.7,-69.18 268.13,-65.48 365.89,-54 467.51,-42.07 583.58,-32.64 667.08,-26.58"/>
<polygon fill="black" stroke="black" points="667.37,-30.07 677.1,-25.86 666.87,-23.09 667.37,-30.07"/>
<text text-anchor="middle" x="381.39" y="-57.8" font-family="Times New Roman,serif" font-size="14.00">0.064</text>
</g>
<!-- 2 -->
<g id="node3" class="node">
<title>2</title>
<g id="a_node3"><a xlink:href="to_careers adviser.svg" xlink:title="careers adviser">
<ellipse fill="none" stroke="black" cx="220.89" cy="-105" rx="64.99" ry="18"/>
<text text-anchor="middle" x="220.89" y="-101.3" font-family="Times New Roman,serif" font-size="14.00">careers adviser</text>
</a>
</g>
</g>
<!-- 2&#45;&gt;0 -->
<g id="edge3" class="edge">
<title>2&#45;&gt;0</title>
<path fill="none" stroke="black" d="M268.14,-92.5C277,-90.53 286.21,-88.6 294.89,-87 427.53,-62.53 581.98,-42.32 680.54,-30.46"/>
<polygon fill="black" stroke="black" points="680.98,-33.93 690.5,-29.27 680.15,-26.98 680.98,-33.93"/>
<text text-anchor="middle" x="510.39" y="-57.8" font-family="Times New Roman,serif" font-size="14.00">0.045</text>
</g>
<!-- 3 -->
<g id="node4" class="node">
<title>3</title>
<g id="a_node4"><a xlink:href="to_environmental manager.svg" xlink:title="environmental manager">
<ellipse fill="none" stroke="black" cx="397.89" cy="-105" rx="93.68" ry="18"/>
<text text-anchor="middle" x="397.89" y="-101.3" font-family="Times New Roman,serif" font-size="14.00">environmental manager</text>
</a>
</g>
</g>
<!-- 3&#45;&gt;0 -->
<g id="edge4" class="edge">
<title>3&#45;&gt;0</title>
<path fill="none" stroke="black" d="M456.9,-90.91C524.24,-75.96 634.44,-51.5 707.33,-35.33"/>
<polygon fill="black" stroke="black" points="708.35,-38.69 717.35,-33.1 706.83,-31.85 708.35,-38.69"/>
<text text-anchor="middle" x="628.39" y="-57.8" font-family="Times New Roman,serif" font-size="14.00">0.027</text>
</g>
<!-- 4 -->
<g id="node5" class="node">
<title>4</title>
<g id="a_node5"><a xlink:href="to_health and safety adviser.svg" xlink:title="health and safety adviser">
<ellipse fill="none" stroke="black" cx="608.89" cy="-105" rx="99.38" ry="18"/>
<text text-anchor="middle" x="608.89" y="-101.3" font-family="Times New Roman,serif" font-size="14.00">health and safety adviser</text>
</a>
</g>
</g>
<!-- 4&#45;&gt;0 -->
<g id="edge5" class="edge">
<title>4&#45;&gt;0</title>
<path fill="none" stroke="black" d="M641.65,-87.81C669.18,-74.21 708.71,-54.67 738.62,-39.89"/>
<polygon fill="black" stroke="black" points="740.55,-42.84 747.97,-35.27 737.45,-36.56 740.55,-42.84"/>
<text text-anchor="middle" x="721.39" y="-57.8" font-family="Times New Roman,serif" font-size="14.00">0.027</text>
</g>
<!-- 5 -->
<g id="node6" class="node">
<title>5</title>
<g id="a_node6"><a xlink:href="to_it consultant.svg" xlink:title="it consultant">
<ellipse fill="none" stroke="black" cx="780.89" cy="-105" rx="54.69" ry="18"/>
<text text-anchor="middle" x="780.89" y="-101.3" font-family="Times New Roman,serif" font-size="14.00">it consultant</text>
</a>
</g>
</g>
<!-- 5&#45;&gt;0 -->
<g id="edge6" class="edge">
<title>5&#45;&gt;0</title>
<path fill="none" stroke="black" d="M780.89,-86.8C780.89,-75.16 780.89,-59.55 780.89,-46.24"/>
<polygon fill="black" stroke="black" points="784.39,-46.18 780.89,-36.18 777.39,-46.18 784.39,-46.18"/>
<text text-anchor="middle" x="796.39" y="-57.8" font-family="Times New Roman,serif" font-size="14.00">0.027</text>
</g>
<!-- 6 -->
<g id="node7" class="node">
<title>6</title>
<g id="a_node7"><a xlink:href="to_marketing executive.svg" xlink:title="marketing executive">
<ellipse fill="none" stroke="black" cx="934.89" cy="-105" rx="81.79" ry="18"/>
<text text-anchor="middle" x="934.89" y="-101.3" font-family="Times New Roman,serif" font-size="14.00">marketing executive</text>
</a>
</g>
</g>
<!-- 6&#45;&gt;0 -->
<g id="edge7" class="edge">
<title>6&#45;&gt;0</title>
<path fill="none" stroke="black" d="M905.93,-88.01C881.61,-74.59 846.65,-55.29 819.88,-40.52"/>
<polygon fill="black" stroke="black" points="821.23,-37.26 810.78,-35.5 817.84,-43.39 821.23,-37.26"/>
<text text-anchor="middle" x="883.39" y="-57.8" font-family="Times New Roman,serif" font-size="14.00">0.027</text>
</g>
<!-- 7 -->
<g id="node8" class="node">
<title>7</title>
<g id="a_node8"><a xlink:href="to_pharmacovigilance officer.svg" xlink:title="pharmacovigilance officer">
<ellipse fill="none" stroke="black" cx="1139.89" cy="-105" rx="104.78" ry="18"/>
<text text-anchor="middle" x="1139.89" y="-101.3" font-family="Times New Roman,serif" font-size="14.00">pharmacovigilance officer</text>
</a>
</g>
</g>
<!-- 7&#45;&gt;0 -->
<g id="edge8" class="edge">
<title>7&#45;&gt;0</title>
<path fill="none" stroke="black" d="M1081.01,-90.06C1018.2,-75.19 918.7,-51.63 851.66,-35.76"/>
<polygon fill="black" stroke="black" points="852.14,-32.27 841.61,-33.37 850.53,-39.08 852.14,-32.27"/>
<text text-anchor="middle" x="997.39" y="-57.8" font-family="Times New Roman,serif" font-size="14.00">0.027</text>
</g>
<!-- 8 -->
<g id="node9" class="node">
<title>8</title>
<g id="a_node9"><a xlink:href="to_political party agent.svg" xlink:title="political party agent">
<ellipse fill="none" stroke="black" cx="1343.89" cy="-105" rx="81.49" ry="18"/>
<text text-anchor="middle" x="1343.89" y="-101.3" font-family="Times New Roman,serif" font-size="14.00">political party agent</text>
</a>
</g>
</g>
<!-- 8&#45;&gt;0 -->
<g id="edge9" class="edge">
<title>8&#45;&gt;0</title>
<path fill="none" stroke="black" d="M1284.9,-92.47C1274.58,-90.57 1263.93,-88.67 1253.89,-87 1123.28,-65.29 971.68,-44.22 876.03,-31.43"/>
<polygon fill="black" stroke="black" points="876.46,-27.95 866.09,-30.1 875.54,-34.89 876.46,-27.95"/>
<text text-anchor="middle" x="1152.39" y="-57.8" font-family="Times New Roman,serif" font-size="14.00">0.027</text>
</g>
<!-- 9 -->
<g id="node10" class="node">
<title>9</title>
<g id="a_node10"><a xlink:href="to_production manager.svg" xlink:title="production manager">
<ellipse fill="none" stroke="black" cx="1525.89" cy="-105" rx="83.39" ry="18"/>
<text text-anchor="middle" x="1525.89" y="-101.3" font-family="Times New Roman,serif" font-size="14.00">production manager</text>
</a>
</g>
</g>
<!-- 9&#45;&gt;0 -->
<g id="edge10" class="edge">
<title>9&#45;&gt;0</title>
<path fill="none" stroke="black" d="M1466.1,-92.44C1455.39,-90.51 1444.33,-88.62 1433.89,-87 1244.95,-57.67 1023.23,-37.58 892.82,-27.21"/>
<polygon fill="black" stroke="black" points="893.06,-23.72 882.82,-26.42 892.51,-30.7 893.06,-23.72"/>
<text text-anchor="middle" x="1306.39" y="-57.8" font-family="Times New Roman,serif" font-size="14.00">0.027</text>
</g>
</g>
</svg>
