<?xml version="1.0" encoding="UTF-8" standalone="no"?>
<!DOCTYPE svg PUBLIC "-//W3C//DTD SVG 1.1//EN"
 "http://www.w3.org/Graphics/SVG/1.1/DTD/svg11.dtd">
<!-- Generated by graphviz version 2.44.1 (20200629.0800)
 -->
<!-- Title: computer_sales_support Pages: 1 -->
<svg width="1388pt" height="131pt"
 viewBox="0.00 0.00 1388.19 131.00" xmlns="http://www.w3.org/2000/svg" xmlns:xlink="http://www.w3.org/1999/xlink">
<g id="graph0" class="graph" transform="scale(1 1) rotate(0) translate(4 127)">
<title>computer_sales_support</title>
<polygon fill="white" stroke="transparent" points="-4,4 -4,-127 1384.19,-127 1384.19,4 -4,4"/>
<!-- 0 -->
<g id="node1" class="node">
<title>0</title>
<g id="a_node1"><a xlink:href="to_computer sales support.svg" xlink:title="computer sales support">
<ellipse fill="none" stroke="black" cx="644.6" cy="-18" rx="96.38" ry="18"/>
<text text-anchor="middle" x="644.6" y="-14.3" font-family="Times New Roman,serif" font-size="14.00">computer sales support</text>
</a>
</g>
</g>
<!-- 0&#45;&gt;0 -->
<g id="edge1" class="edge">
<title>0&#45;&gt;0</title>
<path fill="none" stroke="black" d="M732.69,-25.38C748.08,-24.4 758.79,-21.94 758.79,-18 758.79,-14.99 752.51,-12.84 742.66,-11.55"/>
<polygon fill="black" stroke="black" points="742.98,-8.07 732.69,-10.62 742.32,-15.04 742.98,-8.07"/>
<text text-anchor="middle" x="774.29" y="-14.3" font-family="Times New Roman,serif" font-size="14.00">0.114</text>
</g>
<!-- 1 -->
<g id="node2" class="node">
<title>1</title>
<g id="a_node2"><a xlink:href="to_it consultant.svg" xlink:title="it consultant">
<ellipse fill="none" stroke="black" cx="54.6" cy="-105" rx="54.69" ry="18"/>
<text text-anchor="middle" x="54.6" y="-101.3" font-family="Times New Roman,serif" font-size="14.00">it consultant</text>
</a>
</g>
</g>
<!-- 1&#45;&gt;0 -->
<g id="edge2" class="edge">
<title>1&#45;&gt;0</title>
<path fill="none" stroke="black" d="M94.82,-92.71C102.37,-90.71 110.2,-88.73 117.6,-87 191.27,-69.8 209.74,-65.01 284.6,-54 372.71,-41.04 473.69,-31.7 546.23,-25.94"/>
<polygon fill="black" stroke="black" points="546.58,-29.43 556.27,-25.16 546.03,-22.45 546.58,-29.43"/>
<text text-anchor="middle" x="300.1" y="-57.8" font-family="Times New Roman,serif" font-size="14.00">0.060</text>
</g>
<!-- 2 -->
<g id="node3" class="node">
<title>2</title>
<g id="a_node3"><a xlink:href="to_qa analyst.svg" xlink:title="qa analyst">
<ellipse fill="none" stroke="black" cx="173.6" cy="-105" rx="46.59" ry="18"/>
<text text-anchor="middle" x="173.6" y="-101.3" font-family="Times New Roman,serif" font-size="14.00">qa analyst</text>
</a>
</g>
</g>
<!-- 2&#45;&gt;0 -->
<g id="edge3" class="edge">
<title>2&#45;&gt;0</title>
<path fill="none" stroke="black" d="M207.72,-92.65C214.59,-90.6 221.78,-88.6 228.6,-87 340.35,-60.73 471.35,-41.12 556.05,-29.87"/>
<polygon fill="black" stroke="black" points="556.68,-33.32 566.14,-28.54 555.77,-26.38 556.68,-33.32"/>
<text text-anchor="middle" x="403.1" y="-57.8" font-family="Times New Roman,serif" font-size="14.00">0.048</text>
</g>
<!-- 3 -->
<g id="node4" class="node">
<title>3</title>
<g id="a_node4"><a xlink:href="to_network administrator.svg" xlink:title="network administrator">
<ellipse fill="none" stroke="black" cx="327.6" cy="-105" rx="89.88" ry="18"/>
<text text-anchor="middle" x="327.6" y="-101.3" font-family="Times New Roman,serif" font-size="14.00">network administrator</text>
</a>
</g>
</g>
<!-- 3&#45;&gt;0 -->
<g id="edge4" class="edge">
<title>3&#45;&gt;0</title>
<path fill="none" stroke="black" d="M379.23,-90.15C434.62,-75.3 522.61,-51.71 581.93,-35.8"/>
<polygon fill="black" stroke="black" points="583.17,-39.09 591.92,-33.12 581.36,-32.33 583.17,-39.09"/>
<text text-anchor="middle" x="521.1" y="-57.8" font-family="Times New Roman,serif" font-size="14.00">0.036</text>
</g>
<!-- 4 -->
<g id="node5" class="node">
<title>4</title>
<g id="a_node5"><a xlink:href="to_sales manager.svg" xlink:title="sales manager">
<ellipse fill="none" stroke="black" cx="496.6" cy="-105" rx="61.19" ry="18"/>
<text text-anchor="middle" x="496.6" y="-101.3" font-family="Times New Roman,serif" font-size="14.00">sales manager</text>
</a>
</g>
</g>
<!-- 4&#45;&gt;0 -->
<g id="edge5" class="edge">
<title>4&#45;&gt;0</title>
<path fill="none" stroke="black" d="M523.4,-88.61C546.87,-75.13 581.21,-55.4 607.36,-40.39"/>
<polygon fill="black" stroke="black" points="609.3,-43.31 616.23,-35.29 605.81,-37.24 609.3,-43.31"/>
<text text-anchor="middle" x="595.1" y="-57.8" font-family="Times New Roman,serif" font-size="14.00">0.036</text>
</g>
<!-- 5 -->
<g id="node6" class="node">
<title>5</title>
<g id="a_node6"><a xlink:href="to_project manager.svg" xlink:title="project manager">
<ellipse fill="none" stroke="black" cx="644.6" cy="-105" rx="68.79" ry="18"/>
<text text-anchor="middle" x="644.6" y="-101.3" font-family="Times New Roman,serif" font-size="14.00">project manager</text>
</a>
</g>
</g>
<!-- 5&#45;&gt;0 -->
<g id="edge6" class="edge">
<title>5&#45;&gt;0</title>
<path fill="none" stroke="black" d="M644.6,-86.8C644.6,-75.16 644.6,-59.55 644.6,-46.24"/>
<polygon fill="black" stroke="black" points="648.1,-46.18 644.6,-36.18 641.1,-46.18 648.1,-46.18"/>
<text text-anchor="middle" x="660.1" y="-57.8" font-family="Times New Roman,serif" font-size="14.00">0.030</text>
</g>
<!-- 6 -->
<g id="node7" class="node">
<title>6</title>
<g id="a_node7"><a xlink:href="to_electrical engineer.svg" xlink:title="electrical engineer">
<ellipse fill="none" stroke="black" cx="806.6" cy="-105" rx="74.99" ry="18"/>
<text text-anchor="middle" x="806.6" y="-101.3" font-family="Times New Roman,serif" font-size="14.00">electrical engineer</text>
</a>
</g>
</g>
<!-- 6&#45;&gt;0 -->
<g id="edge7" class="edge">
<title>6&#45;&gt;0</title>
<path fill="none" stroke="black" d="M776.88,-88.41C750.84,-74.74 712.77,-54.77 684.15,-39.76"/>
<polygon fill="black" stroke="black" points="685.7,-36.62 675.22,-35.07 682.45,-42.81 685.7,-36.62"/>
<text text-anchor="middle" x="751.1" y="-57.8" font-family="Times New Roman,serif" font-size="14.00">0.024</text>
</g>
<!-- 7 -->
<g id="node8" class="node">
<title>7</title>
<g id="a_node8"><a xlink:href="to_pharmacovigilance officer.svg" xlink:title="pharmacovigilance officer">
<ellipse fill="none" stroke="black" cx="1003.6" cy="-105" rx="104.78" ry="18"/>
<text text-anchor="middle" x="1003.6" y="-101.3" font-family="Times New Roman,serif" font-size="14.00">pharmacovigilance officer</text>
</a>
</g>
</g>
<!-- 7&#45;&gt;0 -->
<g id="edge8" class="edge">
<title>7&#45;&gt;0</title>
<path fill="none" stroke="black" d="M944.72,-90.06C880.76,-74.92 778.79,-50.77 711.76,-34.9"/>
<polygon fill="black" stroke="black" points="712.26,-31.43 701.73,-32.53 710.65,-38.24 712.26,-31.43"/>
<text text-anchor="middle" x="861.1" y="-57.8" font-family="Times New Roman,serif" font-size="14.00">0.024</text>
</g>
<!-- 8 -->
<g id="node9" class="node">
<title>8</title>
<g id="a_node9"><a xlink:href="to_retail buyer.svg" xlink:title="retail buyer">
<ellipse fill="none" stroke="black" cx="1176.6" cy="-105" rx="50.89" ry="18"/>
<text text-anchor="middle" x="1176.6" y="-101.3" font-family="Times New Roman,serif" font-size="14.00">retail buyer</text>
</a>
</g>
</g>
<!-- 8&#45;&gt;0 -->
<g id="edge9" class="edge">
<title>8&#45;&gt;0</title>
<path fill="none" stroke="black" d="M1139.65,-92.51C1132.39,-90.49 1124.79,-88.55 1117.6,-87 986.77,-58.89 833.04,-39.21 737.19,-28.49"/>
<polygon fill="black" stroke="black" points="737.56,-25.01 727.24,-27.39 736.79,-31.97 737.56,-25.01"/>
<text text-anchor="middle" x="1030.1" y="-57.8" font-family="Times New Roman,serif" font-size="14.00">0.024</text>
</g>
<!-- 9 -->
<g id="node10" class="node">
<title>9</title>
<g id="a_node10"><a xlink:href="to_systems analyst.svg" xlink:title="systems analyst">
<ellipse fill="none" stroke="black" cx="1312.6" cy="-105" rx="67.69" ry="18"/>
<text text-anchor="middle" x="1312.6" y="-101.3" font-family="Times New Roman,serif" font-size="14.00">systems analyst</text>
</a>
</g>
</g>
<!-- 9&#45;&gt;0 -->
<g id="edge10" class="edge">
<title>9&#45;&gt;0</title>
<path fill="none" stroke="black" d="M1263.2,-92.61C1254.35,-90.67 1245.21,-88.72 1236.6,-87 1153.84,-70.45 1133.27,-64.98 1049.6,-54 945.98,-40.41 826.73,-30.83 744.6,-25.17"/>
<polygon fill="black" stroke="black" points="744.74,-21.67 734.52,-24.48 744.26,-28.65 744.74,-21.67"/>
<text text-anchor="middle" x="1161.1" y="-57.8" font-family="Times New Roman,serif" font-size="14.00">0.024</text>
</g>
</g>
</svg>
