<?xml version="1.0" encoding="UTF-8" standalone="no"?>
<!DOCTYPE svg PUBLIC "-//W3C//DTD SVG 1.1//EN"
 "http://www.w3.org/Graphics/SVG/1.1/DTD/svg11.dtd">
<!-- Generated by graphviz version 2.44.1 (20200629.0800)
 -->
<!-- Title: corporate_treasurer Pages: 1 -->
<svg width="1516pt" height="131pt"
 viewBox="0.00 0.00 1516.49 131.00" xmlns="http://www.w3.org/2000/svg" xmlns:xlink="http://www.w3.org/1999/xlink">
<g id="graph0" class="graph" transform="scale(1 1) rotate(0) translate(4 127)">
<title>corporate_treasurer</title>
<polygon fill="white" stroke="transparent" points="-4,4 -4,-127 1512.49,-127 1512.49,4 -4,4"/>
<!-- 0 -->
<g id="node1" class="node">
<title>0</title>
<g id="a_node1"><a xlink:href="to_financial manager.svg" xlink:title="financial manager">
<ellipse fill="none" stroke="black" cx="73.44" cy="-105" rx="73.39" ry="18"/>
<text text-anchor="middle" x="73.44" y="-101.3" font-family="Times New Roman,serif" font-size="14.00">financial manager</text>
</a>
</g>
</g>
<!-- 1 -->
<g id="node2" class="node">
<title>1</title>
<g id="a_node2"><a xlink:href="to_corporate treasurer.svg" xlink:title="corporate treasurer">
<ellipse fill="none" stroke="black" cx="779.44" cy="-18" rx="79.09" ry="18"/>
<text text-anchor="middle" x="779.44" y="-14.3" font-family="Times New Roman,serif" font-size="14.00">corporate treasurer</text>
</a>
</g>
</g>
<!-- 0&#45;&gt;1 -->
<g id="edge1" class="edge">
<title>0&#45;&gt;1</title>
<path fill="none" stroke="black" d="M125.8,-92.37C135.62,-90.41 145.82,-88.52 155.44,-87 347.64,-56.68 575.27,-35.57 695.43,-25.58"/>
<polygon fill="black" stroke="black" points="695.98,-29.05 705.65,-24.73 695.4,-22.07 695.98,-29.05"/>
<text text-anchor="middle" x="410.94" y="-57.8" font-family="Times New Roman,serif" font-size="14.00">0.067</text>
</g>
<!-- 1&#45;&gt;1 -->
<g id="edge5" class="edge">
<title>1&#45;&gt;1</title>
<path fill="none" stroke="black" d="M851.57,-25.57C866.24,-24.75 876.74,-22.22 876.74,-18 876.74,-14.83 870.83,-12.62 861.69,-11.36"/>
<polygon fill="black" stroke="black" points="861.85,-7.86 851.57,-10.43 861.21,-14.83 861.85,-7.86"/>
<text text-anchor="middle" x="892.24" y="-14.3" font-family="Times New Roman,serif" font-size="14.00">0.033</text>
</g>
<!-- 2 -->
<g id="node3" class="node">
<title>2</title>
<g id="a_node3"><a xlink:href="to_pharmacovigilance officer.svg" xlink:title="pharmacovigilance officer">
<ellipse fill="none" stroke="black" cx="269.44" cy="-105" rx="104.78" ry="18"/>
<text text-anchor="middle" x="269.44" y="-101.3" font-family="Times New Roman,serif" font-size="14.00">pharmacovigilance officer</text>
</a>
</g>
</g>
<!-- 2&#45;&gt;1 -->
<g id="edge2" class="edge">
<title>2&#45;&gt;1</title>
<path fill="none" stroke="black" d="M341.7,-91.96C438.84,-75.77 610.5,-47.16 707.48,-30.99"/>
<polygon fill="black" stroke="black" points="708.21,-34.42 717.49,-29.32 707.05,-27.52 708.21,-34.42"/>
<text text-anchor="middle" x="570.94" y="-57.8" font-family="Times New Roman,serif" font-size="14.00">0.056</text>
</g>
<!-- 3 -->
<g id="node4" class="node">
<title>3</title>
<g id="a_node4"><a xlink:href="to_marketing executive.svg" xlink:title="marketing executive">
<ellipse fill="none" stroke="black" cx="474.44" cy="-105" rx="81.79" ry="18"/>
<text text-anchor="middle" x="474.44" y="-101.3" font-family="Times New Roman,serif" font-size="14.00">marketing executive</text>
</a>
</g>
</g>
<!-- 3&#45;&gt;1 -->
<g id="edge3" class="edge">
<title>3&#45;&gt;1</title>
<path fill="none" stroke="black" d="M523.11,-90.44C577.16,-75.37 664.37,-51.07 721.8,-35.07"/>
<polygon fill="black" stroke="black" points="722.76,-38.43 731.45,-32.37 720.88,-31.69 722.76,-38.43"/>
<text text-anchor="middle" x="660.94" y="-57.8" font-family="Times New Roman,serif" font-size="14.00">0.044</text>
</g>
<!-- 4 -->
<g id="node5" class="node">
<title>4</title>
<g id="a_node5"><a xlink:href="to_secretary.svg" xlink:title="secretary">
<ellipse fill="none" stroke="black" cx="617.44" cy="-105" rx="43.59" ry="18"/>
<text text-anchor="middle" x="617.44" y="-101.3" font-family="Times New Roman,serif" font-size="14.00">secretary</text>
</a>
</g>
</g>
<!-- 4&#45;&gt;1 -->
<g id="edge4" class="edge">
<title>4&#45;&gt;1</title>
<path fill="none" stroke="black" d="M643.47,-90.34C669.65,-76.61 710.34,-55.26 740.39,-39.49"/>
<polygon fill="black" stroke="black" points="742.12,-42.54 749.35,-34.79 738.87,-36.34 742.12,-42.54"/>
<text text-anchor="middle" x="723.94" y="-57.8" font-family="Times New Roman,serif" font-size="14.00">0.044</text>
</g>
<!-- 5 -->
<g id="node6" class="node">
<title>5</title>
<g id="a_node6"><a xlink:href="to_investment fund manager.svg" xlink:title="investment fund manager">
<ellipse fill="none" stroke="black" cx="779.44" cy="-105" rx="100.98" ry="18"/>
<text text-anchor="middle" x="779.44" y="-101.3" font-family="Times New Roman,serif" font-size="14.00">investment fund manager</text>
</a>
</g>
</g>
<!-- 5&#45;&gt;1 -->
<g id="edge6" class="edge">
<title>5&#45;&gt;1</title>
<path fill="none" stroke="black" d="M779.44,-86.8C779.44,-75.16 779.44,-59.55 779.44,-46.24"/>
<polygon fill="black" stroke="black" points="782.94,-46.18 779.44,-36.18 775.94,-46.18 782.94,-46.18"/>
<text text-anchor="middle" x="794.94" y="-57.8" font-family="Times New Roman,serif" font-size="14.00">0.033</text>
</g>
<!-- 6 -->
<g id="node7" class="node">
<title>6</title>
<g id="a_node7"><a xlink:href="to_production manager.svg" xlink:title="production manager">
<ellipse fill="none" stroke="black" cx="981.44" cy="-105" rx="83.39" ry="18"/>
<text text-anchor="middle" x="981.44" y="-101.3" font-family="Times New Roman,serif" font-size="14.00">production manager</text>
</a>
</g>
</g>
<!-- 6&#45;&gt;1 -->
<g id="edge7" class="edge">
<title>6&#45;&gt;1</title>
<path fill="none" stroke="black" d="M944.86,-88.61C911.15,-74.42 861.01,-53.32 824.77,-38.07"/>
<polygon fill="black" stroke="black" points="825.99,-34.79 815.41,-34.14 823.27,-41.24 825.99,-34.79"/>
<text text-anchor="middle" x="908.94" y="-57.8" font-family="Times New Roman,serif" font-size="14.00">0.033</text>
</g>
<!-- 7 -->
<g id="node8" class="node">
<title>7</title>
<g id="a_node8"><a xlink:href="to_project manager.svg" xlink:title="project manager">
<ellipse fill="none" stroke="black" cx="1151.44" cy="-105" rx="68.79" ry="18"/>
<text text-anchor="middle" x="1151.44" y="-101.3" font-family="Times New Roman,serif" font-size="14.00">project manager</text>
</a>
</g>
</g>
<!-- 7&#45;&gt;1 -->
<g id="edge8" class="edge">
<title>7&#45;&gt;1</title>
<path fill="none" stroke="black" d="M1101.27,-92.54C1034.51,-77.28 916.39,-50.29 843.33,-33.6"/>
<polygon fill="black" stroke="black" points="843.86,-30.13 833.33,-31.31 842.3,-36.95 843.86,-30.13"/>
<text text-anchor="middle" x="1003.94" y="-57.8" font-family="Times New Roman,serif" font-size="14.00">0.033</text>
</g>
<!-- 8 -->
<g id="node9" class="node">
<title>8</title>
<g id="a_node9"><a xlink:href="to_academic librarian.svg" xlink:title="academic librarian">
<ellipse fill="none" stroke="black" cx="1314.44" cy="-105" rx="76.09" ry="18"/>
<text text-anchor="middle" x="1314.44" y="-101.3" font-family="Times New Roman,serif" font-size="14.00">academic librarian</text>
</a>
</g>
</g>
<!-- 8&#45;&gt;1 -->
<g id="edge9" class="edge">
<title>8&#45;&gt;1</title>
<path fill="none" stroke="black" d="M1259.18,-92.63C1249.29,-90.68 1239.07,-88.73 1229.44,-87 1098.78,-63.48 945.79,-41.54 856.06,-29.24"/>
<polygon fill="black" stroke="black" points="856.35,-25.75 845.97,-27.86 855.4,-32.68 856.35,-25.75"/>
<text text-anchor="middle" x="1133.94" y="-57.8" font-family="Times New Roman,serif" font-size="14.00">0.022</text>
</g>
<!-- 9 -->
<g id="node10" class="node">
<title>9</title>
<g id="a_node10"><a xlink:href="to_accountant.svg" xlink:title="accountant">
<ellipse fill="none" stroke="black" cx="1458.44" cy="-105" rx="50.09" ry="18"/>
<text text-anchor="middle" x="1458.44" y="-101.3" font-family="Times New Roman,serif" font-size="14.00">accountant</text>
</a>
</g>
</g>
<!-- 9&#45;&gt;1 -->
<g id="edge10" class="edge">
<title>9&#45;&gt;1</title>
<path fill="none" stroke="black" d="M1421.83,-92.55C1414.47,-90.5 1406.75,-88.53 1399.44,-87 1212.03,-47.65 987.68,-30.22 866.86,-23.2"/>
<polygon fill="black" stroke="black" points="866.75,-19.69 856.56,-22.61 866.35,-26.67 866.75,-19.69"/>
<text text-anchor="middle" x="1313.94" y="-57.8" font-family="Times New Roman,serif" font-size="14.00">0.022</text>
</g>
</g>
</svg>
