<?xml version="1.0" encoding="UTF-8" standalone="no"?>
<!DOCTYPE svg PUBLIC "-//W3C//DTD SVG 1.1//EN"
 "http://www.w3.org/Graphics/SVG/1.1/DTD/svg11.dtd">
<!-- Generated by graphviz version 2.44.1 (20200629.0800)
 -->
<!-- Title: test Pages: 1 -->
<svg width="1496pt" height="131pt"
 viewBox="0.00 0.00 1496.29 131.00" xmlns="http://www.w3.org/2000/svg" xmlns:xlink="http://www.w3.org/1999/xlink">
<g id="graph0" class="graph" transform="scale(1 1) rotate(0) translate(4 127)">
<title>test</title>
<polygon fill="white" stroke="transparent" points="-4,4 -4,-127 1492.29,-127 1492.29,4 -4,4"/>
<!-- 0 -->
<g id="node1" class="node">
<title>0</title>
<g id="a_node1"><a xlink:href="to_content manager.svg" xlink:title="content manager">
<ellipse fill="none" stroke="black" cx="791.19" cy="-18" rx="70.39" ry="18"/>
<text text-anchor="middle" x="791.19" y="-14.3" font-family="Times New Roman,serif" font-size="14.00">content manager</text>
</a>
</g>
</g>
<!-- 0&#45;&gt;0 -->
<g id="edge1" class="edge">
<title>0&#45;&gt;0</title>
<path fill="none" stroke="black" d="M855.01,-25.66C869.11,-24.94 879.39,-22.39 879.39,-18 879.39,-14.74 873.73,-12.5 865.05,-11.26"/>
<polygon fill="black" stroke="black" points="865.29,-7.77 855.01,-10.34 864.65,-14.74 865.29,-7.77"/>
<text text-anchor="middle" x="894.89" y="-14.3" font-family="Times New Roman,serif" font-size="14.00">0.161</text>
</g>
<!-- 1 -->
<g id="node2" class="node">
<title>1</title>
<g id="a_node2"><a xlink:href="to_production manager.svg" xlink:title="production manager">
<ellipse fill="none" stroke="black" cx="83.19" cy="-105" rx="83.39" ry="18"/>
<text text-anchor="middle" x="83.19" y="-101.3" font-family="Times New Roman,serif" font-size="14.00">production manager</text>
</a>
</g>
</g>
<!-- 1&#45;&gt;0 -->
<g id="edge2" class="edge">
<title>1&#45;&gt;0</title>
<path fill="none" stroke="black" d="M143.49,-92.4C154.04,-90.5 164.93,-88.63 175.19,-87 368.61,-56.38 598.37,-34.93 715.03,-25.09"/>
<polygon fill="black" stroke="black" points="715.61,-28.55 725.28,-24.23 715.02,-21.57 715.61,-28.55"/>
<text text-anchor="middle" x="427.69" y="-57.8" font-family="Times New Roman,serif" font-size="14.00">0.088</text>
</g>
<!-- 2 -->
<g id="node3" class="node">
<title>2</title>
<g id="a_node3"><a xlink:href="to_marketing assistant.svg" xlink:title="marketing assistant">
<ellipse fill="none" stroke="black" cx="263.19" cy="-105" rx="79.09" ry="18"/>
<text text-anchor="middle" x="263.19" y="-101.3" font-family="Times New Roman,serif" font-size="14.00">marketing assistant</text>
</a>
</g>
</g>
<!-- 2&#45;&gt;0 -->
<g id="edge3" class="edge">
<title>2&#45;&gt;0</title>
<path fill="none" stroke="black" d="M320.89,-92.55C330.98,-90.64 341.38,-88.72 351.19,-87 481.56,-64.17 634.36,-41.46 721.28,-28.92"/>
<polygon fill="black" stroke="black" points="721.89,-32.37 731.29,-27.48 720.89,-25.44 721.89,-32.37"/>
<text text-anchor="middle" x="559.69" y="-57.8" font-family="Times New Roman,serif" font-size="14.00">0.072</text>
</g>
<!-- 3 -->
<g id="node4" class="node">
<title>3</title>
<g id="a_node4"><a xlink:href="to_marketing executive.svg" xlink:title="marketing executive">
<ellipse fill="none" stroke="black" cx="442.19" cy="-105" rx="81.79" ry="18"/>
<text text-anchor="middle" x="442.19" y="-101.3" font-family="Times New Roman,serif" font-size="14.00">marketing executive</text>
</a>
</g>
</g>
<!-- 3&#45;&gt;0 -->
<g id="edge4" class="edge">
<title>3&#45;&gt;0</title>
<path fill="none" stroke="black" d="M494.82,-91.18C558.58,-75.65 665.68,-49.57 732.18,-33.37"/>
<polygon fill="black" stroke="black" points="733.2,-36.73 742.09,-30.96 731.55,-29.92 733.2,-36.73"/>
<text text-anchor="middle" x="653.69" y="-57.8" font-family="Times New Roman,serif" font-size="14.00">0.066</text>
</g>
<!-- 4 -->
<g id="node5" class="node">
<title>4</title>
<g id="a_node5"><a xlink:href="to_project manager.svg" xlink:title="project manager">
<ellipse fill="none" stroke="black" cx="611.19" cy="-105" rx="68.79" ry="18"/>
<text text-anchor="middle" x="611.19" y="-101.3" font-family="Times New Roman,serif" font-size="14.00">project manager</text>
</a>
</g>
</g>
<!-- 4&#45;&gt;0 -->
<g id="edge5" class="edge">
<title>4&#45;&gt;0</title>
<path fill="none" stroke="black" d="M642.96,-89C672.72,-74.94 717.37,-53.86 749.89,-38.5"/>
<polygon fill="black" stroke="black" points="751.59,-41.57 759.14,-34.14 748.6,-35.24 751.59,-41.57"/>
<text text-anchor="middle" x="724.69" y="-57.8" font-family="Times New Roman,serif" font-size="14.00">0.05</text>
</g>
<!-- 5 -->
<g id="node6" class="node">
<title>5</title>
<g id="a_node6"><a xlink:href="to_broadcasting presenter.svg" xlink:title="broadcasting presenter">
<ellipse fill="none" stroke="black" cx="791.19" cy="-105" rx="92.88" ry="18"/>
<text text-anchor="middle" x="791.19" y="-101.3" font-family="Times New Roman,serif" font-size="14.00">broadcasting presenter</text>
</a>
</g>
</g>
<!-- 5&#45;&gt;0 -->
<g id="edge6" class="edge">
<title>5&#45;&gt;0</title>
<path fill="none" stroke="black" d="M791.19,-86.8C791.19,-75.16 791.19,-59.55 791.19,-46.24"/>
<polygon fill="black" stroke="black" points="794.69,-46.18 791.19,-36.18 787.69,-46.18 794.69,-46.18"/>
<text text-anchor="middle" x="806.69" y="-57.8" font-family="Times New Roman,serif" font-size="14.00">0.027</text>
</g>
<!-- 6 -->
<g id="node7" class="node">
<title>6</title>
<g id="a_node7"><a xlink:href="to_commissioning editor.svg" xlink:title="commissioning editor">
<ellipse fill="none" stroke="black" cx="991.19" cy="-105" rx="89.08" ry="18"/>
<text text-anchor="middle" x="991.19" y="-101.3" font-family="Times New Roman,serif" font-size="14.00">commissioning editor</text>
</a>
</g>
</g>
<!-- 6&#45;&gt;0 -->
<g id="edge7" class="edge">
<title>6&#45;&gt;0</title>
<path fill="none" stroke="black" d="M954.51,-88.41C920.87,-74.11 870.98,-52.91 835.2,-37.7"/>
<polygon fill="black" stroke="black" points="836.54,-34.47 825.97,-33.78 833.8,-40.91 836.54,-34.47"/>
<text text-anchor="middle" x="918.69" y="-57.8" font-family="Times New Roman,serif" font-size="14.00">0.027</text>
</g>
<!-- 7 -->
<g id="node8" class="node">
<title>7</title>
<g id="a_node8"><a xlink:href="to_it consultant.svg" xlink:title="it consultant">
<ellipse fill="none" stroke="black" cx="1153.19" cy="-105" rx="54.69" ry="18"/>
<text text-anchor="middle" x="1153.19" y="-101.3" font-family="Times New Roman,serif" font-size="14.00">it consultant</text>
</a>
</g>
</g>
<!-- 7&#45;&gt;0 -->
<g id="edge8" class="edge">
<title>7&#45;&gt;0</title>
<path fill="none" stroke="black" d="M1112.28,-92.9C1104.62,-90.89 1096.67,-88.85 1089.19,-87 1007.86,-66.93 913.51,-45.75 853.13,-32.47"/>
<polygon fill="black" stroke="black" points="853.52,-28.97 843.01,-30.24 852.02,-35.81 853.52,-28.97"/>
<text text-anchor="middle" x="1022.69" y="-57.8" font-family="Times New Roman,serif" font-size="14.00">0.027</text>
</g>
<!-- 8 -->
<g id="node9" class="node">
<title>8</title>
<g id="a_node9"><a xlink:href="to_media planner.svg" xlink:title="media planner">
<ellipse fill="none" stroke="black" cx="1287.19" cy="-105" rx="61.19" ry="18"/>
<text text-anchor="middle" x="1287.19" y="-101.3" font-family="Times New Roman,serif" font-size="14.00">media planner</text>
</a>
</g>
</g>
<!-- 8&#45;&gt;0 -->
<g id="edge9" class="edge">
<title>8&#45;&gt;0</title>
<path fill="none" stroke="black" d="M1242.09,-92.68C1233.82,-90.71 1225.26,-88.74 1217.19,-87 1139.82,-70.32 1120.3,-66.8 1042.19,-54 981.87,-44.11 913.1,-34.65 862.81,-28.06"/>
<polygon fill="black" stroke="black" points="863.06,-24.56 852.69,-26.74 862.16,-31.5 863.06,-24.56"/>
<text text-anchor="middle" x="1141.69" y="-57.8" font-family="Times New Roman,serif" font-size="14.00">0.027</text>
</g>
<!-- 9 -->
<g id="node10" class="node">
<title>9</title>
<g id="a_node10"><a xlink:href="to_sales manager.svg" xlink:title="sales manager">
<ellipse fill="none" stroke="black" cx="1427.19" cy="-105" rx="61.19" ry="18"/>
<text text-anchor="middle" x="1427.19" y="-101.3" font-family="Times New Roman,serif" font-size="14.00">sales manager</text>
</a>
</g>
</g>
<!-- 9&#45;&gt;0 -->
<g id="edge10" class="edge">
<title>9&#45;&gt;0</title>
<path fill="none" stroke="black" d="M1382.49,-92.64C1374.11,-90.65 1365.4,-88.69 1357.19,-87 1270.66,-69.23 1248.78,-65.5 1161.19,-54 1060.23,-40.74 943.12,-30.53 868.15,-24.64"/>
<polygon fill="black" stroke="black" points="868.1,-21.13 857.86,-23.84 867.56,-28.11 868.1,-21.13"/>
<text text-anchor="middle" x="1277.69" y="-57.8" font-family="Times New Roman,serif" font-size="14.00">0.027</text>
</g>
</g>
</svg>
