<?xml version="1.0" encoding="UTF-8" standalone="no"?>
<!DOCTYPE svg PUBLIC "-//W3C//DTD SVG 1.1//EN"
 "http://www.w3.org/Graphics/SVG/1.1/DTD/svg11.dtd">
<!-- Generated by graphviz version 2.44.1 (20200629.0800)
 -->
<!-- Title: test Pages: 1 -->
<svg width="970pt" height="131pt"
 viewBox="0.00 0.00 969.53 131.00" xmlns="http://www.w3.org/2000/svg" xmlns:xlink="http://www.w3.org/1999/xlink">
<g id="graph0" class="graph" transform="scale(1 1) rotate(0) translate(4 127)">
<title>test</title>
<polygon fill="white" stroke="transparent" points="-4,4 -4,-127 965.53,-127 965.53,4 -4,4"/>
<!-- 0 -->
<g id="node1" class="node">
<title>0</title>
<g id="a_node1"><a xlink:href="to_customs officer.svg" xlink:title="customs officer">
<ellipse fill="none" stroke="black" cx="419.19" cy="-18" rx="67.69" ry="18"/>
<text text-anchor="middle" x="419.19" y="-14.3" font-family="Times New Roman,serif" font-size="14.00">customs officer</text>
</a>
</g>
</g>
<!-- 0&#45;&gt;0 -->
<g id="edge1" class="edge">
<title>0&#45;&gt;0</title>
<path fill="none" stroke="black" d="M480.36,-25.7C494.44,-25.04 504.79,-22.47 504.79,-18 504.79,-14.68 499.09,-12.41 490.39,-11.19"/>
<polygon fill="black" stroke="black" points="490.63,-7.7 480.36,-10.3 490.01,-14.67 490.63,-7.7"/>
<text text-anchor="middle" x="520.29" y="-14.3" font-family="Times New Roman,serif" font-size="14.00">0.142</text>
</g>
<!-- 1 -->
<g id="node2" class="node">
<title>1</title>
<g id="a_node2"><a xlink:href="to_graphic designer.svg" xlink:title="graphic designer">
<ellipse fill="none" stroke="black" cx="70.19" cy="-105" rx="70.39" ry="18"/>
<text text-anchor="middle" x="70.19" y="-101.3" font-family="Times New Roman,serif" font-size="14.00">graphic designer</text>
</a>
</g>
</g>
<!-- 1&#45;&gt;0 -->
<g id="edge2" class="edge">
<title>1&#45;&gt;0</title>
<path fill="none" stroke="black" d="M116.13,-91.35C154.53,-80.91 210.79,-65.93 260.19,-54 292.41,-46.22 328.46,-38.22 358.09,-31.84"/>
<polygon fill="black" stroke="black" points="358.83,-35.26 367.87,-29.74 357.36,-28.42 358.83,-35.26"/>
<text text-anchor="middle" x="275.69" y="-57.8" font-family="Times New Roman,serif" font-size="14.00">0.142</text>
</g>
<!-- 2 -->
<g id="node3" class="node">
<title>2</title>
<g id="a_node3"><a xlink:href="to_lecturer.svg" xlink:title="lecturer">
<ellipse fill="none" stroke="black" cx="196.19" cy="-105" rx="37.89" ry="18"/>
<text text-anchor="middle" x="196.19" y="-101.3" font-family="Times New Roman,serif" font-size="14.00">lecturer</text>
</a>
</g>
</g>
<!-- 2&#45;&gt;0 -->
<g id="edge3" class="edge">
<title>2&#45;&gt;0</title>
<path fill="none" stroke="black" d="M224.89,-93.06C262.26,-78.82 328.06,-53.74 372.63,-36.75"/>
<polygon fill="black" stroke="black" points="373.98,-39.98 382.07,-33.15 371.48,-33.44 373.98,-39.98"/>
<text text-anchor="middle" x="336.69" y="-57.8" font-family="Times New Roman,serif" font-size="14.00">0.142</text>
</g>
<!-- 3 -->
<g id="node4" class="node">
<title>3</title>
<g id="a_node4"><a xlink:href="to_production manager.svg" xlink:title="production manager">
<ellipse fill="none" stroke="black" cx="335.19" cy="-105" rx="83.39" ry="18"/>
<text text-anchor="middle" x="335.19" y="-101.3" font-family="Times New Roman,serif" font-size="14.00">production manager</text>
</a>
</g>
</g>
<!-- 3&#45;&gt;0 -->
<g id="edge4" class="edge">
<title>3&#45;&gt;0</title>
<path fill="none" stroke="black" d="M351.79,-87.21C364.21,-74.63 381.39,-57.25 395.3,-43.18"/>
<polygon fill="black" stroke="black" points="398.09,-45.33 402.63,-35.76 393.11,-40.41 398.09,-45.33"/>
<text text-anchor="middle" x="398.69" y="-57.8" font-family="Times New Roman,serif" font-size="14.00">0.142</text>
</g>
<!-- 4 -->
<g id="node5" class="node">
<title>4</title>
<g id="a_node5"><a xlink:href="to_systems analyst.svg" xlink:title="systems analyst">
<ellipse fill="none" stroke="black" cx="504.19" cy="-105" rx="67.69" ry="18"/>
<text text-anchor="middle" x="504.19" y="-101.3" font-family="Times New Roman,serif" font-size="14.00">systems analyst</text>
</a>
</g>
</g>
<!-- 4&#45;&gt;0 -->
<g id="edge5" class="edge">
<title>4&#45;&gt;0</title>
<path fill="none" stroke="black" d="M487.4,-87.21C474.75,-74.55 457.22,-57.03 443.1,-42.91"/>
<polygon fill="black" stroke="black" points="445.21,-40.07 435.66,-35.47 440.26,-45.02 445.21,-40.07"/>
<text text-anchor="middle" x="482.69" y="-57.8" font-family="Times New Roman,serif" font-size="14.00">0.142</text>
</g>
<!-- 5 -->
<g id="node6" class="node">
<title>5</title>
<g id="a_node6"><a xlink:href="to_teaching assistant.svg" xlink:title="teaching assistant">
<ellipse fill="none" stroke="black" cx="663.19" cy="-105" rx="73.39" ry="18"/>
<text text-anchor="middle" x="663.19" y="-101.3" font-family="Times New Roman,serif" font-size="14.00">teaching assistant</text>
</a>
</g>
</g>
<!-- 5&#45;&gt;0 -->
<g id="edge6" class="edge">
<title>5&#45;&gt;0</title>
<path fill="none" stroke="black" d="M622.63,-89.87C580.21,-75.09 513.62,-51.89 468.26,-36.09"/>
<polygon fill="black" stroke="black" points="469.24,-32.73 458.64,-32.74 466.93,-39.34 469.24,-32.73"/>
<text text-anchor="middle" x="571.69" y="-57.8" font-family="Times New Roman,serif" font-size="14.00">0.142</text>
</g>
<!-- 6 -->
<g id="node7" class="node">
<title>6</title>
<g id="a_node7"><a xlink:href="to_town and country planner.svg" xlink:title="town and country planner">
<ellipse fill="none" stroke="black" cx="858.19" cy="-105" rx="103.18" ry="18"/>
<text text-anchor="middle" x="858.19" y="-101.3" font-family="Times New Roman,serif" font-size="14.00">town and country planner</text>
</a>
</g>
</g>
<!-- 6&#45;&gt;0 -->
<g id="edge7" class="edge">
<title>6&#45;&gt;0</title>
<path fill="none" stroke="black" d="M791.52,-91.09C707.59,-74.84 564.48,-47.13 482.28,-31.22"/>
<polygon fill="black" stroke="black" points="482.81,-27.75 472.32,-29.29 481.48,-34.62 482.81,-27.75"/>
<text text-anchor="middle" x="679.69" y="-57.8" font-family="Times New Roman,serif" font-size="14.00">0.142</text>
</g>
</g>
</svg>
