<?xml version="1.0" encoding="UTF-8" standalone="no"?>
<!DOCTYPE svg PUBLIC "-//W3C//DTD SVG 1.1//EN"
 "http://www.w3.org/Graphics/SVG/1.1/DTD/svg11.dtd">
<!-- Generated by graphviz version 2.44.1 (20200629.0800)
 -->
<!-- Title: community_education_officer Pages: 1 -->
<svg width="1564pt" height="131pt"
 viewBox="0.00 0.00 1563.69 131.00" xmlns="http://www.w3.org/2000/svg" xmlns:xlink="http://www.w3.org/1999/xlink">
<g id="graph0" class="graph" transform="scale(1 1) rotate(0) translate(4 127)">
<title>community_education_officer</title>
<polygon fill="white" stroke="transparent" points="-4,4 -4,-127 1559.69,-127 1559.69,4 -4,4"/>
<!-- 0 -->
<g id="node1" class="node">
<title>0</title>
<g id="a_node1"><a xlink:href="to_community education officer.svg" xlink:title="community education officer">
<ellipse fill="none" stroke="black" cx="717.89" cy="-18" rx="115.08" ry="18"/>
<text text-anchor="middle" x="717.89" y="-14.3" font-family="Times New Roman,serif" font-size="14.00">community education officer</text>
</a>
</g>
</g>
<!-- 0&#45;&gt;0 -->
<g id="edge1" class="edge">
<title>0&#45;&gt;0</title>
<path fill="none" stroke="black" d="M823.29,-25.22C839.73,-24.14 850.93,-21.73 850.93,-18 850.93,-15.08 844.09,-12.98 833.26,-11.68"/>
<polygon fill="black" stroke="black" points="833.56,-8.19 823.29,-10.78 832.93,-15.17 833.56,-8.19"/>
<text text-anchor="middle" x="866.43" y="-14.3" font-family="Times New Roman,serif" font-size="14.00">0.074</text>
</g>
<!-- 1 -->
<g id="node2" class="node">
<title>1</title>
<g id="a_node2"><a xlink:href="to_project manager.svg" xlink:title="project manager">
<ellipse fill="none" stroke="black" cx="68.89" cy="-105" rx="68.79" ry="18"/>
<text text-anchor="middle" x="68.89" y="-101.3" font-family="Times New Roman,serif" font-size="14.00">project manager</text>
</a>
</g>
</g>
<!-- 1&#45;&gt;0 -->
<g id="edge2" class="edge">
<title>1&#45;&gt;0</title>
<path fill="none" stroke="black" d="M119.15,-92.55C128.36,-90.59 137.9,-88.66 146.89,-87 305.93,-57.66 492.32,-38.23 607.77,-27.91"/>
<polygon fill="black" stroke="black" points="608.38,-31.37 618.03,-27 607.76,-24.4 608.38,-31.37"/>
<text text-anchor="middle" x="366.39" y="-57.8" font-family="Times New Roman,serif" font-size="14.00">0.055</text>
</g>
<!-- 2 -->
<g id="node3" class="node">
<title>2</title>
<g id="a_node3"><a xlink:href="to_careers adviser.svg" xlink:title="careers adviser">
<ellipse fill="none" stroke="black" cx="220.89" cy="-105" rx="64.99" ry="18"/>
<text text-anchor="middle" x="220.89" y="-101.3" font-family="Times New Roman,serif" font-size="14.00">careers adviser</text>
</a>
</g>
</g>
<!-- 2&#45;&gt;0 -->
<g id="edge3" class="edge">
<title>2&#45;&gt;0</title>
<path fill="none" stroke="black" d="M268.56,-92.56C277.3,-90.6 286.35,-88.67 294.89,-87 408.13,-64.92 539.43,-44.63 625.34,-32.07"/>
<polygon fill="black" stroke="black" points="625.94,-35.52 635.33,-30.62 624.93,-28.59 625.94,-35.52"/>
<text text-anchor="middle" x="496.39" y="-57.8" font-family="Times New Roman,serif" font-size="14.00">0.046</text>
</g>
<!-- 3 -->
<g id="node4" class="node">
<title>3</title>
<g id="a_node4"><a xlink:href="to_environmental manager.svg" xlink:title="environmental manager">
<ellipse fill="none" stroke="black" cx="397.89" cy="-105" rx="93.68" ry="18"/>
<text text-anchor="middle" x="397.89" y="-101.3" font-family="Times New Roman,serif" font-size="14.00">environmental manager</text>
</a>
</g>
</g>
<!-- 3&#45;&gt;0 -->
<g id="edge4" class="edge">
<title>3&#45;&gt;0</title>
<path fill="none" stroke="black" d="M450.38,-90.06C505.64,-75.38 592.74,-52.24 652.45,-36.38"/>
<polygon fill="black" stroke="black" points="653.39,-39.76 662.15,-33.81 651.59,-32.99 653.39,-39.76"/>
<text text-anchor="middle" x="593.39" y="-57.8" font-family="Times New Roman,serif" font-size="14.00">0.027</text>
</g>
<!-- 4 -->
<g id="node5" class="node">
<title>4</title>
<g id="a_node5"><a xlink:href="to_it consultant.svg" xlink:title="it consultant">
<ellipse fill="none" stroke="black" cx="563.89" cy="-105" rx="54.69" ry="18"/>
<text text-anchor="middle" x="563.89" y="-101.3" font-family="Times New Roman,serif" font-size="14.00">it consultant</text>
</a>
</g>
</g>
<!-- 4&#45;&gt;0 -->
<g id="edge5" class="edge">
<title>4&#45;&gt;0</title>
<path fill="none" stroke="black" d="M590.72,-89.19C615.11,-75.73 651.39,-55.71 678.97,-40.49"/>
<polygon fill="black" stroke="black" points="680.89,-43.42 687.96,-35.52 677.51,-37.29 680.89,-43.42"/>
<text text-anchor="middle" x="666.39" y="-57.8" font-family="Times New Roman,serif" font-size="14.00">0.027</text>
</g>
<!-- 5 -->
<g id="node6" class="node">
<title>5</title>
<g id="a_node6"><a xlink:href="to_marketing executive.svg" xlink:title="marketing executive">
<ellipse fill="none" stroke="black" cx="717.89" cy="-105" rx="81.79" ry="18"/>
<text text-anchor="middle" x="717.89" y="-101.3" font-family="Times New Roman,serif" font-size="14.00">marketing executive</text>
</a>
</g>
</g>
<!-- 5&#45;&gt;0 -->
<g id="edge6" class="edge">
<title>5&#45;&gt;0</title>
<path fill="none" stroke="black" d="M717.89,-86.8C717.89,-75.16 717.89,-59.55 717.89,-46.24"/>
<polygon fill="black" stroke="black" points="721.39,-46.18 717.89,-36.18 714.39,-46.18 721.39,-46.18"/>
<text text-anchor="middle" x="733.39" y="-57.8" font-family="Times New Roman,serif" font-size="14.00">0.027</text>
</g>
<!-- 6 -->
<g id="node7" class="node">
<title>6</title>
<g id="a_node7"><a xlink:href="to_pharmacovigilance officer.svg" xlink:title="pharmacovigilance officer">
<ellipse fill="none" stroke="black" cx="922.89" cy="-105" rx="104.78" ry="18"/>
<text text-anchor="middle" x="922.89" y="-101.3" font-family="Times New Roman,serif" font-size="14.00">pharmacovigilance officer</text>
</a>
</g>
</g>
<!-- 6&#45;&gt;0 -->
<g id="edge7" class="edge">
<title>6&#45;&gt;0</title>
<path fill="none" stroke="black" d="M884.82,-88.21C851.23,-74.28 802.12,-53.92 765.86,-38.89"/>
<polygon fill="black" stroke="black" points="767.04,-35.59 756.46,-34.99 764.36,-42.06 767.04,-35.59"/>
<text text-anchor="middle" x="848.39" y="-57.8" font-family="Times New Roman,serif" font-size="14.00">0.027</text>
</g>
<!-- 7 -->
<g id="node8" class="node">
<title>7</title>
<g id="a_node8"><a xlink:href="to_political party agent.svg" xlink:title="political party agent">
<ellipse fill="none" stroke="black" cx="1126.89" cy="-105" rx="81.49" ry="18"/>
<text text-anchor="middle" x="1126.89" y="-101.3" font-family="Times New Roman,serif" font-size="14.00">political party agent</text>
</a>
</g>
</g>
<!-- 7&#45;&gt;0 -->
<g id="edge8" class="edge">
<title>7&#45;&gt;0</title>
<path fill="none" stroke="black" d="M1069.59,-92.09C997.7,-77.15 874.17,-51.48 794.3,-34.88"/>
<polygon fill="black" stroke="black" points="794.8,-31.41 784.29,-32.8 793.37,-38.26 794.8,-31.41"/>
<text text-anchor="middle" x="962.39" y="-57.8" font-family="Times New Roman,serif" font-size="14.00">0.027</text>
</g>
<!-- 8 -->
<g id="node9" class="node">
<title>8</title>
<g id="a_node9"><a xlink:href="to_production manager.svg" xlink:title="production manager">
<ellipse fill="none" stroke="black" cx="1308.89" cy="-105" rx="83.39" ry="18"/>
<text text-anchor="middle" x="1308.89" y="-101.3" font-family="Times New Roman,serif" font-size="14.00">production manager</text>
</a>
</g>
</g>
<!-- 8&#45;&gt;0 -->
<g id="edge9" class="edge">
<title>8&#45;&gt;0</title>
<path fill="none" stroke="black" d="M1248.58,-92.47C1238.03,-90.56 1227.15,-88.67 1216.89,-87 1078.18,-64.46 916.95,-43.42 816.15,-30.88"/>
<polygon fill="black" stroke="black" points="816.34,-27.37 805.98,-29.62 815.48,-34.32 816.34,-27.37"/>
<text text-anchor="middle" x="1109.39" y="-57.8" font-family="Times New Roman,serif" font-size="14.00">0.027</text>
</g>
<!-- 9 -->
<g id="node10" class="node">
<title>9</title>
<g id="a_node10"><a xlink:href="to_research scientist.svg" xlink:title="research scientist">
<ellipse fill="none" stroke="black" cx="1482.89" cy="-105" rx="72.59" ry="18"/>
<text text-anchor="middle" x="1482.89" y="-101.3" font-family="Times New Roman,serif" font-size="14.00">research scientist</text>
</a>
</g>
</g>
<!-- 9&#45;&gt;0 -->
<g id="edge10" class="edge">
<title>9&#45;&gt;0</title>
<path fill="none" stroke="black" d="M1430.52,-92.46C1420.7,-90.49 1410.51,-88.58 1400.89,-87 1202.71,-54.49 969.46,-35.32 833.2,-26.01"/>
<polygon fill="black" stroke="black" points="833.37,-22.51 823.16,-25.33 832.9,-29.49 833.37,-22.51"/>
<text text-anchor="middle" x="1286.39" y="-57.8" font-family="Times New Roman,serif" font-size="14.00">0.027</text>
</g>
</g>
</svg>
