<?xml version="1.0" encoding="UTF-8" standalone="no"?>
<!DOCTYPE svg PUBLIC "-//W3C//DTD SVG 1.1//EN"
 "http://www.w3.org/Graphics/SVG/1.1/DTD/svg11.dtd">
<!-- Generated by graphviz version 2.44.1 (20200629.0800)
 -->
<!-- Title: test Pages: 1 -->
<svg width="1449pt" height="131pt"
 viewBox="0.00 0.00 1448.79 131.00" xmlns="http://www.w3.org/2000/svg" xmlns:xlink="http://www.w3.org/1999/xlink">
<g id="graph0" class="graph" transform="scale(1 1) rotate(0) translate(4 127)">
<title>test</title>
<polygon fill="white" stroke="transparent" points="-4,4 -4,-127 1444.79,-127 1444.79,4 -4,4"/>
<!-- 0 -->
<g id="node1" class="node">
<title>0</title>
<g id="a_node1"><a xlink:href="to_financial manager.svg" xlink:title="financial manager">
<ellipse fill="none" stroke="black" cx="73.44" cy="-105" rx="73.39" ry="18"/>
<text text-anchor="middle" x="73.44" y="-101.3" font-family="Times New Roman,serif" font-size="14.00">financial manager</text>
</a>
</g>
</g>
<!-- 1 -->
<g id="node2" class="node">
<title>1</title>
<g id="a_node2"><a xlink:href="to_commercial horticulturist.svg" xlink:title="commercial horticulturist">
<ellipse fill="none" stroke="black" cx="676.44" cy="-18" rx="100.98" ry="18"/>
<text text-anchor="middle" x="676.44" y="-14.3" font-family="Times New Roman,serif" font-size="14.00">commercial horticulturist</text>
</a>
</g>
</g>
<!-- 0&#45;&gt;1 -->
<g id="edge1" class="edge">
<title>0&#45;&gt;1</title>
<path fill="none" stroke="black" d="M126.95,-92.63C136.74,-90.67 146.89,-88.71 156.44,-87 303.67,-60.64 476.08,-40.11 580.72,-28.78"/>
<polygon fill="black" stroke="black" points="581.38,-32.23 590.95,-27.68 580.63,-25.27 581.38,-32.23"/>
<text text-anchor="middle" x="385.94" y="-57.8" font-family="Times New Roman,serif" font-size="14.00">0.063</text>
</g>
<!-- 1&#45;&gt;1 -->
<g id="edge5" class="edge">
<title>1&#45;&gt;1</title>
<path fill="none" stroke="black" d="M768.55,-25.35C784.28,-24.35 795.18,-21.9 795.18,-18 795.18,-15.02 788.79,-12.88 778.74,-11.59"/>
<polygon fill="black" stroke="black" points="778.83,-8.09 768.55,-10.65 778.18,-15.06 778.83,-8.09"/>
<text text-anchor="middle" x="810.68" y="-14.3" font-family="Times New Roman,serif" font-size="14.00">0.042</text>
</g>
<!-- 2 -->
<g id="node3" class="node">
<title>2</title>
<g id="a_node3"><a xlink:href="to_insurance broker.svg" xlink:title="insurance broker">
<ellipse fill="none" stroke="black" cx="236.44" cy="-105" rx="71.49" ry="18"/>
<text text-anchor="middle" x="236.44" y="-101.3" font-family="Times New Roman,serif" font-size="14.00">insurance broker</text>
</a>
</g>
</g>
<!-- 2&#45;&gt;1 -->
<g id="edge2" class="edge">
<title>2&#45;&gt;1</title>
<path fill="none" stroke="black" d="M288.92,-92.73C298.09,-90.79 307.54,-88.82 316.44,-87 390.99,-71.76 409.68,-68.16 484.44,-54 521.71,-46.94 563.1,-39.36 597.88,-33.07"/>
<polygon fill="black" stroke="black" points="598.76,-36.47 607.98,-31.25 597.52,-29.58 598.76,-36.47"/>
<text text-anchor="middle" x="499.94" y="-57.8" font-family="Times New Roman,serif" font-size="14.00">0.063</text>
</g>
<!-- 3 -->
<g id="node4" class="node">
<title>3</title>
<g id="a_node4"><a xlink:href="to_project manager.svg" xlink:title="project manager">
<ellipse fill="none" stroke="black" cx="394.44" cy="-105" rx="68.79" ry="18"/>
<text text-anchor="middle" x="394.44" y="-101.3" font-family="Times New Roman,serif" font-size="14.00">project manager</text>
</a>
</g>
</g>
<!-- 3&#45;&gt;1 -->
<g id="edge3" class="edge">
<title>3&#45;&gt;1</title>
<path fill="none" stroke="black" d="M437.89,-90.91C486.03,-76.39 563.93,-52.91 617.54,-36.75"/>
<polygon fill="black" stroke="black" points="618.69,-40.06 627.26,-33.83 616.67,-33.36 618.69,-40.06"/>
<text text-anchor="middle" x="567.94" y="-57.8" font-family="Times New Roman,serif" font-size="14.00">0.063</text>
</g>
<!-- 4 -->
<g id="node5" class="node">
<title>4</title>
<g id="a_node5"><a xlink:href="to_sales manager.svg" xlink:title="sales manager">
<ellipse fill="none" stroke="black" cx="542.44" cy="-105" rx="61.19" ry="18"/>
<text text-anchor="middle" x="542.44" y="-101.3" font-family="Times New Roman,serif" font-size="14.00">sales manager</text>
</a>
</g>
</g>
<!-- 4&#45;&gt;1 -->
<g id="edge4" class="edge">
<title>4&#45;&gt;1</title>
<path fill="none" stroke="black" d="M567.02,-88.41C587.92,-75.15 618.19,-55.95 641.59,-41.11"/>
<polygon fill="black" stroke="black" points="643.62,-43.97 650.19,-35.65 639.87,-38.05 643.62,-43.97"/>
<text text-anchor="middle" x="633.94" y="-57.8" font-family="Times New Roman,serif" font-size="14.00">0.063</text>
</g>
<!-- 5 -->
<g id="node6" class="node">
<title>5</title>
<g id="a_node6"><a xlink:href="to_it consultant.svg" xlink:title="it consultant">
<ellipse fill="none" stroke="black" cx="676.44" cy="-105" rx="54.69" ry="18"/>
<text text-anchor="middle" x="676.44" y="-101.3" font-family="Times New Roman,serif" font-size="14.00">it consultant</text>
</a>
</g>
</g>
<!-- 5&#45;&gt;1 -->
<g id="edge6" class="edge">
<title>5&#45;&gt;1</title>
<path fill="none" stroke="black" d="M676.44,-86.8C676.44,-75.16 676.44,-59.55 676.44,-46.24"/>
<polygon fill="black" stroke="black" points="679.94,-46.18 676.44,-36.18 672.94,-46.18 679.94,-46.18"/>
<text text-anchor="middle" x="691.94" y="-57.8" font-family="Times New Roman,serif" font-size="14.00">0.042</text>
</g>
<!-- 6 -->
<g id="node7" class="node">
<title>6</title>
<g id="a_node7"><a xlink:href="to_research scientist.svg" xlink:title="research scientist">
<ellipse fill="none" stroke="black" cx="821.44" cy="-105" rx="72.59" ry="18"/>
<text text-anchor="middle" x="821.44" y="-101.3" font-family="Times New Roman,serif" font-size="14.00">research scientist</text>
</a>
</g>
</g>
<!-- 6&#45;&gt;1 -->
<g id="edge7" class="edge">
<title>6&#45;&gt;1</title>
<path fill="none" stroke="black" d="M794.51,-88.21C771.75,-74.87 738.92,-55.62 713.65,-40.81"/>
<polygon fill="black" stroke="black" points="715.12,-37.61 704.72,-35.57 711.58,-43.65 715.12,-37.61"/>
<text text-anchor="middle" x="773.94" y="-57.8" font-family="Times New Roman,serif" font-size="14.00">0.042</text>
</g>
<!-- 7 -->
<g id="node8" class="node">
<title>7</title>
<g id="a_node8"><a xlink:href="to_agricultural consultant.svg" xlink:title="agricultural consultant">
<ellipse fill="none" stroke="black" cx="1001.44" cy="-105" rx="89.88" ry="18"/>
<text text-anchor="middle" x="1001.44" y="-101.3" font-family="Times New Roman,serif" font-size="14.00">agricultural consultant</text>
</a>
</g>
</g>
<!-- 7&#45;&gt;1 -->
<g id="edge8" class="edge">
<title>7&#45;&gt;1</title>
<path fill="none" stroke="black" d="M949.23,-90.34C892.46,-75.5 801.68,-51.76 740.61,-35.78"/>
<polygon fill="black" stroke="black" points="741.26,-32.33 730.7,-33.19 739.49,-39.11 741.26,-32.33"/>
<text text-anchor="middle" x="873.94" y="-57.8" font-family="Times New Roman,serif" font-size="14.00">0.021</text>
</g>
<!-- 8 -->
<g id="node9" class="node">
<title>8</title>
<g id="a_node9"><a xlink:href="to_biotechnologist.svg" xlink:title="biotechnologist">
<ellipse fill="none" stroke="black" cx="1175.44" cy="-105" rx="66.09" ry="18"/>
<text text-anchor="middle" x="1175.44" y="-101.3" font-family="Times New Roman,serif" font-size="14.00">biotechnologist</text>
</a>
</g>
</g>
<!-- 8&#45;&gt;1 -->
<g id="edge9" class="edge">
<title>8&#45;&gt;1</title>
<path fill="none" stroke="black" d="M1127.13,-92.57C1118.27,-90.61 1109.1,-88.67 1100.44,-87 984.09,-64.51 848.76,-43.73 762.88,-31.21"/>
<polygon fill="black" stroke="black" points="763.31,-27.74 752.91,-29.76 762.31,-34.66 763.31,-27.74"/>
<text text-anchor="middle" x="1010.94" y="-57.8" font-family="Times New Roman,serif" font-size="14.00">0.021</text>
</g>
<!-- 9 -->
<g id="node10" class="node">
<title>9</title>
<g id="a_node10"><a xlink:href="to_charities administrator.svg" xlink:title="charities administrator">
<ellipse fill="none" stroke="black" cx="1350.44" cy="-105" rx="90.18" ry="18"/>
<text text-anchor="middle" x="1350.44" y="-101.3" font-family="Times New Roman,serif" font-size="14.00">charities administrator</text>
</a>
</g>
</g>
<!-- 9&#45;&gt;1 -->
<g id="edge10" class="edge">
<title>9&#45;&gt;1</title>
<path fill="none" stroke="black" d="M1284.58,-92.62C1273.2,-90.7 1261.49,-88.77 1250.44,-87 1152.81,-71.38 1128.56,-66.2 1030.44,-54 944.58,-43.32 846.66,-33.85 775.61,-27.46"/>
<polygon fill="black" stroke="black" points="775.6,-23.94 765.33,-26.54 774.97,-30.92 775.6,-23.94"/>
<text text-anchor="middle" x="1151.94" y="-57.8" font-family="Times New Roman,serif" font-size="14.00">0.021</text>
</g>
</g>
</svg>
