<?xml version="1.0" encoding="UTF-8" standalone="no"?>
<!DOCTYPE svg PUBLIC "-//W3C//DTD SVG 1.1//EN"
 "http://www.w3.org/Graphics/SVG/1.1/DTD/svg11.dtd">
<!-- Generated by graphviz version 2.44.1 (20200629.0800)
 -->
<!-- Title: test Pages: 1 -->
<svg width="1692pt" height="131pt"
 viewBox="0.00 0.00 1691.59 131.00" xmlns="http://www.w3.org/2000/svg" xmlns:xlink="http://www.w3.org/1999/xlink">
<g id="graph0" class="graph" transform="scale(1 1) rotate(0) translate(4 127)">
<title>test</title>
<polygon fill="white" stroke="transparent" points="-4,4 -4,-127 1687.59,-127 1687.59,4 -4,4"/>
<!-- 0 -->
<g id="node1" class="node">
<title>0</title>
<g id="a_node1"><a xlink:href="to_clinical biochemist.svg" xlink:title="clinical biochemist">
<ellipse fill="none" stroke="black" cx="793.7" cy="-18" rx="77.19" ry="18"/>
<text text-anchor="middle" x="793.7" y="-14.3" font-family="Times New Roman,serif" font-size="14.00">clinical biochemist</text>
</a>
</g>
</g>
<!-- 0&#45;&gt;0 -->
<g id="edge1" class="edge">
<title>0&#45;&gt;0</title>
<path fill="none" stroke="black" d="M863.96,-25.6C878.55,-24.8 889.04,-22.27 889.04,-18 889.04,-14.8 883.14,-12.58 874.03,-11.33"/>
<polygon fill="black" stroke="black" points="874.24,-7.83 863.96,-10.4 873.6,-14.8 874.24,-7.83"/>
<text text-anchor="middle" x="904.54" y="-14.3" font-family="Times New Roman,serif" font-size="14.00">0.130</text>
</g>
<!-- 1 -->
<g id="node2" class="node">
<title>1</title>
<g id="a_node2"><a xlink:href="to_lecturer.svg" xlink:title="lecturer">
<ellipse fill="none" stroke="black" cx="37.7" cy="-105" rx="37.89" ry="18"/>
<text text-anchor="middle" x="37.7" y="-101.3" font-family="Times New Roman,serif" font-size="14.00">lecturer</text>
</a>
</g>
</g>
<!-- 1&#45;&gt;0 -->
<g id="edge2" class="edge">
<title>1&#45;&gt;0</title>
<path fill="none" stroke="black" d="M65.73,-92.75C71.9,-90.59 78.46,-88.52 84.7,-87 193.15,-60.53 222.66,-65.57 333.7,-54 464.61,-40.36 617.01,-29.81 709.36,-24"/>
<polygon fill="black" stroke="black" points="709.73,-27.48 719.49,-23.37 709.29,-20.5 709.73,-27.48"/>
<text text-anchor="middle" x="349.2" y="-57.8" font-family="Times New Roman,serif" font-size="14.00">0.086</text>
</g>
<!-- 2 -->
<g id="node3" class="node">
<title>2</title>
<g id="a_node3"><a xlink:href="to_medical physicist.svg" xlink:title="medical physicist">
<ellipse fill="none" stroke="black" cx="166.7" cy="-105" rx="73.39" ry="18"/>
<text text-anchor="middle" x="166.7" y="-101.3" font-family="Times New Roman,serif" font-size="14.00">medical physicist</text>
</a>
</g>
</g>
<!-- 2&#45;&gt;0 -->
<g id="edge3" class="edge">
<title>2&#45;&gt;0</title>
<path fill="none" stroke="black" d="M219.72,-92.52C229.66,-90.55 239.97,-88.61 249.7,-87 413.88,-59.77 607.58,-38.01 713.87,-26.96"/>
<polygon fill="black" stroke="black" points="714.29,-30.43 723.88,-25.92 713.57,-23.47 714.29,-30.43"/>
<text text-anchor="middle" x="489.2" y="-57.8" font-family="Times New Roman,serif" font-size="14.00">0.065</text>
</g>
<!-- 3 -->
<g id="node4" class="node">
<title>3</title>
<g id="a_node4"><a xlink:href="to_child psychotherapist.svg" xlink:title="child psychotherapist">
<ellipse fill="none" stroke="black" cx="346.7" cy="-105" rx="88.28" ry="18"/>
<text text-anchor="middle" x="346.7" y="-101.3" font-family="Times New Roman,serif" font-size="14.00">child psychotherapist</text>
</a>
</g>
</g>
<!-- 3&#45;&gt;0 -->
<g id="edge4" class="edge">
<title>3&#45;&gt;0</title>
<path fill="none" stroke="black" d="M408.85,-92.18C492.15,-76.34 639.48,-48.32 725.67,-31.93"/>
<polygon fill="black" stroke="black" points="726.45,-35.35 735.62,-30.04 725.14,-28.47 726.45,-35.35"/>
<text text-anchor="middle" x="613.2" y="-57.8" font-family="Times New Roman,serif" font-size="14.00">0.043</text>
</g>
<!-- 4 -->
<g id="node5" class="node">
<title>4</title>
<g id="a_node5"><a xlink:href="to_clinical research associate.svg" xlink:title="clinical research associate">
<ellipse fill="none" stroke="black" cx="556.7" cy="-105" rx="103.98" ry="18"/>
<text text-anchor="middle" x="556.7" y="-101.3" font-family="Times New Roman,serif" font-size="14.00">clinical research associate</text>
</a>
</g>
</g>
<!-- 4&#45;&gt;0 -->
<g id="edge5" class="edge">
<title>4&#45;&gt;0</title>
<path fill="none" stroke="black" d="M599.89,-88.51C640.52,-73.94 701.31,-52.13 743.95,-36.84"/>
<polygon fill="black" stroke="black" points="745.33,-40.06 753.56,-33.39 742.97,-33.48 745.33,-40.06"/>
<text text-anchor="middle" x="705.2" y="-57.8" font-family="Times New Roman,serif" font-size="14.00">0.043</text>
</g>
<!-- 5 -->
<g id="node6" class="node">
<title>5</title>
<g id="a_node6"><a xlink:href="to_community education officer.svg" xlink:title="community education officer">
<ellipse fill="none" stroke="black" cx="793.7" cy="-105" rx="115.08" ry="18"/>
<text text-anchor="middle" x="793.7" y="-101.3" font-family="Times New Roman,serif" font-size="14.00">community education officer</text>
</a>
</g>
</g>
<!-- 5&#45;&gt;0 -->
<g id="edge6" class="edge">
<title>5&#45;&gt;0</title>
<path fill="none" stroke="black" d="M793.7,-86.8C793.7,-75.16 793.7,-59.55 793.7,-46.24"/>
<polygon fill="black" stroke="black" points="797.2,-46.18 793.7,-36.18 790.2,-46.18 797.2,-46.18"/>
<text text-anchor="middle" x="809.2" y="-57.8" font-family="Times New Roman,serif" font-size="14.00">0.043</text>
</g>
<!-- 6 -->
<g id="node7" class="node">
<title>6</title>
<g id="a_node7"><a xlink:href="to_nurse.svg" xlink:title="nurse">
<ellipse fill="none" stroke="black" cx="957.7" cy="-105" rx="30.59" ry="18"/>
<text text-anchor="middle" x="957.7" y="-101.3" font-family="Times New Roman,serif" font-size="14.00">nurse</text>
</a>
</g>
</g>
<!-- 6&#45;&gt;0 -->
<g id="edge7" class="edge">
<title>6&#45;&gt;0</title>
<path fill="none" stroke="black" d="M935.58,-92.54C909.32,-78.93 865.04,-55.98 832.92,-39.33"/>
<polygon fill="black" stroke="black" points="834.29,-36.1 823.8,-34.6 831.07,-42.31 834.29,-36.1"/>
<text text-anchor="middle" x="901.2" y="-57.8" font-family="Times New Roman,serif" font-size="14.00">0.043</text>
</g>
<!-- 7 -->
<g id="node8" class="node">
<title>7</title>
<g id="a_node8"><a xlink:href="to_product development scientist.svg" xlink:title="product development scientist">
<ellipse fill="none" stroke="black" cx="1126.7" cy="-105" rx="120.48" ry="18"/>
<text text-anchor="middle" x="1126.7" y="-101.3" font-family="Times New Roman,serif" font-size="14.00">product development scientist</text>
</a>
</g>
</g>
<!-- 7&#45;&gt;0 -->
<g id="edge8" class="edge">
<title>7&#45;&gt;0</title>
<path fill="none" stroke="black" d="M1068.69,-89.19C1008.41,-73.81 914.53,-49.84 853.57,-34.28"/>
<polygon fill="black" stroke="black" points="854.26,-30.85 843.7,-31.76 852.53,-37.63 854.26,-30.85"/>
<text text-anchor="middle" x="996.2" y="-57.8" font-family="Times New Roman,serif" font-size="14.00">0.043</text>
</g>
<!-- 8 -->
<g id="node9" class="node">
<title>8</title>
<g id="a_node9"><a xlink:href="to_speech and language therapist.svg" xlink:title="speech and language therapist">
<ellipse fill="none" stroke="black" cx="1383.7" cy="-105" rx="118.08" ry="18"/>
<text text-anchor="middle" x="1383.7" y="-101.3" font-family="Times New Roman,serif" font-size="14.00">speech and language therapist</text>
</a>
</g>
</g>
<!-- 8&#45;&gt;0 -->
<g id="edge9" class="edge">
<title>8&#45;&gt;0</title>
<path fill="none" stroke="black" d="M1301.04,-92.09C1185.71,-75.48 978.28,-45.59 867.75,-29.67"/>
<polygon fill="black" stroke="black" points="868.08,-26.18 857.69,-28.22 867.08,-33.11 868.08,-26.18"/>
<text text-anchor="middle" x="1140.2" y="-57.8" font-family="Times New Roman,serif" font-size="14.00">0.043</text>
</g>
<!-- 9 -->
<g id="node10" class="node">
<title>9</title>
<g id="a_node10"><a xlink:href="to_biomedical scientist.svg" xlink:title="biomedical scientist">
<ellipse fill="none" stroke="black" cx="1601.7" cy="-105" rx="81.79" ry="18"/>
<text text-anchor="middle" x="1601.7" y="-101.3" font-family="Times New Roman,serif" font-size="14.00">biomedical scientist</text>
</a>
</g>
</g>
<!-- 9&#45;&gt;0 -->
<g id="edge10" class="edge">
<title>9&#45;&gt;0</title>
<path fill="none" stroke="black" d="M1543.08,-92.25C1532.34,-90.32 1521.2,-88.48 1510.7,-87 1282.47,-54.93 1011.19,-33.79 877.17,-24.46"/>
<polygon fill="black" stroke="black" points="877.2,-20.96 866.98,-23.76 876.71,-27.94 877.2,-20.96"/>
<text text-anchor="middle" x="1369.2" y="-57.8" font-family="Times New Roman,serif" font-size="14.00">0.021</text>
</g>
</g>
</svg>
