<?xml version="1.0" encoding="UTF-8" standalone="no"?>
<!DOCTYPE svg PUBLIC "-//W3C//DTD SVG 1.1//EN"
 "http://www.w3.org/Graphics/SVG/1.1/DTD/svg11.dtd">
<!-- Generated by graphviz version 2.44.1 (20200629.0800)
 -->
<!-- Title: test Pages: 1 -->
<svg width="1573pt" height="131pt"
 viewBox="0.00 0.00 1572.68 131.00" xmlns="http://www.w3.org/2000/svg" xmlns:xlink="http://www.w3.org/1999/xlink">
<g id="graph0" class="graph" transform="scale(1 1) rotate(0) translate(4 127)">
<title>test</title>
<polygon fill="white" stroke="transparent" points="-4,4 -4,-127 1568.68,-127 1568.68,4 -4,4"/>
<!-- 0 -->
<g id="node1" class="node">
<title>0</title>
<g id="a_node1"><a xlink:href="to_database administrator.svg" xlink:title="database administrator">
<ellipse fill="none" stroke="black" cx="697.6" cy="-18" rx="92.08" ry="18"/>
<text text-anchor="middle" x="697.6" y="-14.3" font-family="Times New Roman,serif" font-size="14.00">database administrator</text>
</a>
</g>
</g>
<!-- 0&#45;&gt;0 -->
<g id="edge1" class="edge">
<title>0&#45;&gt;0</title>
<path fill="none" stroke="black" d="M781.75,-25.44C797.11,-24.5 807.89,-22.02 807.89,-18 807.89,-14.92 801.57,-12.75 791.72,-11.47"/>
<polygon fill="black" stroke="black" points="792.03,-7.99 781.75,-10.56 791.39,-14.96 792.03,-7.99"/>
<text text-anchor="middle" x="823.39" y="-14.3" font-family="Times New Roman,serif" font-size="14.00">0.198</text>
</g>
<!-- 1 -->
<g id="node2" class="node">
<title>1</title>
<g id="a_node2"><a xlink:href="to_it consultant.svg" xlink:title="it consultant">
<ellipse fill="none" stroke="black" cx="54.6" cy="-105" rx="54.69" ry="18"/>
<text text-anchor="middle" x="54.6" y="-101.3" font-family="Times New Roman,serif" font-size="14.00">it consultant</text>
</a>
</g>
</g>
<!-- 1&#45;&gt;0 -->
<g id="edge2" class="edge">
<title>1&#45;&gt;0</title>
<path fill="none" stroke="black" d="M94.36,-92.62C102.34,-90.56 110.7,-88.58 118.6,-87 286.71,-53.39 485.84,-34.49 601.34,-25.54"/>
<polygon fill="black" stroke="black" points="601.87,-29.01 611.57,-24.76 601.33,-22.03 601.87,-29.01"/>
<text text-anchor="middle" x="324.1" y="-57.8" font-family="Times New Roman,serif" font-size="14.00">0.060</text>
</g>
<!-- 2 -->
<g id="node3" class="node">
<title>2</title>
<g id="a_node3"><a xlink:href="to_software developer.svg" xlink:title="software developer">
<ellipse fill="none" stroke="black" cx="207.6" cy="-105" rx="79.89" ry="18"/>
<text text-anchor="middle" x="207.6" y="-101.3" font-family="Times New Roman,serif" font-size="14.00">software developer</text>
</a>
</g>
</g>
<!-- 2&#45;&gt;0 -->
<g id="edge3" class="edge">
<title>2&#45;&gt;0</title>
<path fill="none" stroke="black" d="M266.46,-92.64C276.51,-90.74 286.85,-88.8 296.6,-87 379.16,-71.79 399.83,-68.08 482.6,-54 527.45,-46.37 577.63,-38.18 618.22,-31.65"/>
<polygon fill="black" stroke="black" points="619.01,-35.06 628.32,-30.02 617.89,-28.15 619.01,-35.06"/>
<text text-anchor="middle" x="498.1" y="-57.8" font-family="Times New Roman,serif" font-size="14.00">0.051</text>
</g>
<!-- 3 -->
<g id="node4" class="node">
<title>3</title>
<g id="a_node4"><a xlink:href="to_project manager.svg" xlink:title="project manager">
<ellipse fill="none" stroke="black" cx="374.6" cy="-105" rx="68.79" ry="18"/>
<text text-anchor="middle" x="374.6" y="-101.3" font-family="Times New Roman,serif" font-size="14.00">project manager</text>
</a>
</g>
</g>
<!-- 3&#45;&gt;0 -->
<g id="edge4" class="edge">
<title>3&#45;&gt;0</title>
<path fill="none" stroke="black" d="M421.22,-91.73C477.6,-76.89 572.72,-51.86 635.33,-35.39"/>
<polygon fill="black" stroke="black" points="636.31,-38.75 645.09,-32.82 634.53,-31.98 636.31,-38.75"/>
<text text-anchor="middle" x="571.1" y="-57.8" font-family="Times New Roman,serif" font-size="14.00">0.043</text>
</g>
<!-- 4 -->
<g id="node5" class="node">
<title>4</title>
<g id="a_node5"><a xlink:href="to_records manager.svg" xlink:title="records manager">
<ellipse fill="none" stroke="black" cx="532.6" cy="-105" rx="71.49" ry="18"/>
<text text-anchor="middle" x="532.6" y="-101.3" font-family="Times New Roman,serif" font-size="14.00">records manager</text>
</a>
</g>
</g>
<!-- 4&#45;&gt;0 -->
<g id="edge5" class="edge">
<title>4&#45;&gt;0</title>
<path fill="none" stroke="black" d="M562.48,-88.61C589.04,-74.92 628.1,-54.8 657.39,-39.71"/>
<polygon fill="black" stroke="black" points="659.25,-42.69 666.54,-35 656.04,-36.47 659.25,-42.69"/>
<text text-anchor="middle" x="641.1" y="-57.8" font-family="Times New Roman,serif" font-size="14.00">0.043</text>
</g>
<!-- 5 -->
<g id="node6" class="node">
<title>5</title>
<g id="a_node6"><a xlink:href="to_software architect.svg" xlink:title="software architect">
<ellipse fill="none" stroke="black" cx="697.6" cy="-105" rx="75.29" ry="18"/>
<text text-anchor="middle" x="697.6" y="-101.3" font-family="Times New Roman,serif" font-size="14.00">software architect</text>
</a>
</g>
</g>
<!-- 5&#45;&gt;0 -->
<g id="edge6" class="edge">
<title>5&#45;&gt;0</title>
<path fill="none" stroke="black" d="M697.6,-86.8C697.6,-75.16 697.6,-59.55 697.6,-46.24"/>
<polygon fill="black" stroke="black" points="701.1,-46.18 697.6,-36.18 694.1,-46.18 701.1,-46.18"/>
<text text-anchor="middle" x="713.1" y="-57.8" font-family="Times New Roman,serif" font-size="14.00">0.043</text>
</g>
<!-- 6 -->
<g id="node7" class="node">
<title>6</title>
<g id="a_node7"><a xlink:href="to_systems analyst.svg" xlink:title="systems analyst">
<ellipse fill="none" stroke="black" cx="858.6" cy="-105" rx="67.69" ry="18"/>
<text text-anchor="middle" x="858.6" y="-101.3" font-family="Times New Roman,serif" font-size="14.00">systems analyst</text>
</a>
</g>
</g>
<!-- 6&#45;&gt;0 -->
<g id="edge7" class="edge">
<title>6&#45;&gt;0</title>
<path fill="none" stroke="black" d="M829.44,-88.61C803.6,-74.97 765.65,-54.93 737.09,-39.85"/>
<polygon fill="black" stroke="black" points="738.65,-36.72 728.18,-35.15 735.39,-42.91 738.65,-36.72"/>
<text text-anchor="middle" x="804.1" y="-57.8" font-family="Times New Roman,serif" font-size="14.00">0.043</text>
</g>
<!-- 7 -->
<g id="node8" class="node">
<title>7</title>
<g id="a_node8"><a xlink:href="to_heritage manager.svg" xlink:title="heritage manager">
<ellipse fill="none" stroke="black" cx="1015.6" cy="-105" rx="71.49" ry="18"/>
<text text-anchor="middle" x="1015.6" y="-101.3" font-family="Times New Roman,serif" font-size="14.00">heritage manager</text>
</a>
</g>
</g>
<!-- 7&#45;&gt;0 -->
<g id="edge8" class="edge">
<title>7&#45;&gt;0</title>
<path fill="none" stroke="black" d="M968.33,-91.37C912.85,-76.54 820.68,-51.9 759.53,-35.55"/>
<polygon fill="black" stroke="black" points="760.18,-32.11 749.62,-32.9 758.37,-38.87 760.18,-32.11"/>
<text text-anchor="middle" x="892.1" y="-57.8" font-family="Times New Roman,serif" font-size="14.00">0.034</text>
</g>
<!-- 8 -->
<g id="node9" class="node">
<title>8</title>
<g id="a_node9"><a xlink:href="to_site manager.svg" xlink:title="site manager">
<ellipse fill="none" stroke="black" cx="1160.6" cy="-105" rx="55.79" ry="18"/>
<text text-anchor="middle" x="1160.6" y="-101.3" font-family="Times New Roman,serif" font-size="14.00">site manager</text>
</a>
</g>
</g>
<!-- 8&#45;&gt;0 -->
<g id="edge9" class="edge">
<title>8&#45;&gt;0</title>
<path fill="none" stroke="black" d="M1119.45,-92.72C1111.56,-90.7 1103.34,-88.7 1095.6,-87 987.27,-63.16 860.8,-42.81 780,-30.75"/>
<polygon fill="black" stroke="black" points="780.3,-27.25 769.89,-29.24 779.27,-34.18 780.3,-27.25"/>
<text text-anchor="middle" x="1013.1" y="-57.8" font-family="Times New Roman,serif" font-size="14.00">0.034</text>
</g>
<!-- 9 -->
<g id="node10" class="node">
<title>9</title>
<g id="a_node10"><a xlink:href="to_geographical information systems manager.svg" xlink:title="geographical information systems manager">
<ellipse fill="none" stroke="black" cx="1399.6" cy="-105" rx="165.17" ry="18"/>
<text text-anchor="middle" x="1399.6" y="-101.3" font-family="Times New Roman,serif" font-size="14.00">geographical information systems manager</text>
</a>
</g>
</g>
<!-- 9&#45;&gt;0 -->
<g id="edge10" class="edge">
<title>9&#45;&gt;0</title>
<path fill="none" stroke="black" d="M1304.65,-90.23C1230.61,-79.7 1125.17,-65.14 1032.6,-54 950.18,-44.08 856.15,-34.4 788.73,-27.74"/>
<polygon fill="black" stroke="black" points="788.86,-24.24 778.57,-26.74 788.17,-31.21 788.86,-24.24"/>
<text text-anchor="middle" x="1159.1" y="-57.8" font-family="Times New Roman,serif" font-size="14.00">0.025</text>
</g>
</g>
</svg>
