<?xml version="1.0" encoding="UTF-8" standalone="no"?>
<!DOCTYPE svg PUBLIC "-//W3C//DTD SVG 1.1//EN"
 "http://www.w3.org/Graphics/SVG/1.1/DTD/svg11.dtd">
<!-- Generated by graphviz version 2.44.1 (20200629.0800)
 -->
<!-- Title: test Pages: 1 -->
<svg width="1469pt" height="131pt"
 viewBox="0.00 0.00 1469.08 131.00" xmlns="http://www.w3.org/2000/svg" xmlns:xlink="http://www.w3.org/1999/xlink">
<g id="graph0" class="graph" transform="scale(1 1) rotate(0) translate(4 127)">
<title>test</title>
<polygon fill="white" stroke="transparent" points="-4,4 -4,-127 1465.08,-127 1465.08,4 -4,4"/>
<!-- 0 -->
<g id="node1" class="node">
<title>0</title>
<g id="a_node1"><a xlink:href="to_programme researcher.svg" xlink:title="programme researcher">
<ellipse fill="none" stroke="black" cx="91.64" cy="-105" rx="91.78" ry="18"/>
<text text-anchor="middle" x="91.64" y="-101.3" font-family="Times New Roman,serif" font-size="14.00">programme researcher</text>
</a>
</g>
</g>
<!-- 1 -->
<g id="node2" class="node">
<title>1</title>
<g id="a_node2"><a xlink:href="to_diplomatic service.svg" xlink:title="diplomatic service">
<ellipse fill="none" stroke="black" cx="674.64" cy="-18" rx="76.89" ry="18"/>
<text text-anchor="middle" x="674.64" y="-14.3" font-family="Times New Roman,serif" font-size="14.00">diplomatic service</text>
</a>
</g>
</g>
<!-- 0&#45;&gt;1 -->
<g id="edge1" class="edge">
<title>0&#45;&gt;1</title>
<path fill="none" stroke="black" d="M149.22,-90.91C199.71,-79.8 275.24,-64.11 341.64,-54 426.92,-41.02 525.21,-31.33 592.78,-25.47"/>
<polygon fill="black" stroke="black" points="593.28,-28.94 602.94,-24.6 592.68,-21.97 593.28,-28.94"/>
<text text-anchor="middle" x="357.14" y="-57.8" font-family="Times New Roman,serif" font-size="14.00">0.090</text>
</g>
<!-- 1&#45;&gt;1 -->
<g id="edge8" class="edge">
<title>1&#45;&gt;1</title>
<path fill="none" stroke="black" d="M744.43,-25.6C758.92,-24.8 769.34,-22.27 769.34,-18 769.34,-14.8 763.47,-12.58 754.43,-11.33"/>
<polygon fill="black" stroke="black" points="754.71,-7.84 744.43,-10.4 754.06,-14.81 754.71,-7.84"/>
<text text-anchor="middle" x="784.84" y="-14.3" font-family="Times New Roman,serif" font-size="14.00">0.045</text>
</g>
<!-- 2 -->
<g id="node3" class="node">
<title>2</title>
<g id="a_node3"><a xlink:href="to_architect.svg" xlink:title="architect">
<ellipse fill="none" stroke="black" cx="242.64" cy="-105" rx="41.69" ry="18"/>
<text text-anchor="middle" x="242.64" y="-101.3" font-family="Times New Roman,serif" font-size="14.00">architect</text>
</a>
</g>
</g>
<!-- 2&#45;&gt;1 -->
<g id="edge2" class="edge">
<title>2&#45;&gt;1</title>
<path fill="none" stroke="black" d="M273.72,-92.85C280.25,-90.73 287.13,-88.66 293.64,-87 398.49,-60.32 522.18,-40.3 599.52,-29.12"/>
<polygon fill="black" stroke="black" points="600.25,-32.55 609.65,-27.66 599.26,-25.62 600.25,-32.55"/>
<text text-anchor="middle" x="455.14" y="-57.8" font-family="Times New Roman,serif" font-size="14.00">0.045</text>
</g>
<!-- 3 -->
<g id="node4" class="node">
<title>3</title>
<g id="a_node4"><a xlink:href="to_armed forces officer.svg" xlink:title="armed forces officer">
<ellipse fill="none" stroke="black" cx="387.64" cy="-105" rx="85.29" ry="18"/>
<text text-anchor="middle" x="387.64" y="-101.3" font-family="Times New Roman,serif" font-size="14.00">armed forces officer</text>
</a>
</g>
</g>
<!-- 3&#45;&gt;1 -->
<g id="edge3" class="edge">
<title>3&#45;&gt;1</title>
<path fill="none" stroke="black" d="M435.03,-89.96C485.69,-74.96 565.93,-51.2 619.41,-35.36"/>
<polygon fill="black" stroke="black" points="620.48,-38.69 629.08,-32.49 618.49,-31.98 620.48,-38.69"/>
<text text-anchor="middle" x="564.14" y="-57.8" font-family="Times New Roman,serif" font-size="14.00">0.045</text>
</g>
<!-- 4 -->
<g id="node5" class="node">
<title>4</title>
<g id="a_node5"><a xlink:href="to_auditor.svg" xlink:title="auditor">
<ellipse fill="none" stroke="black" cx="527.64" cy="-105" rx="36.29" ry="18"/>
<text text-anchor="middle" x="527.64" y="-101.3" font-family="Times New Roman,serif" font-size="14.00">auditor</text>
</a>
</g>
</g>
<!-- 4&#45;&gt;1 -->
<g id="edge4" class="edge">
<title>4&#45;&gt;1</title>
<path fill="none" stroke="black" d="M550.29,-90.91C573.73,-77.35 610.71,-55.96 638.26,-40.04"/>
<polygon fill="black" stroke="black" points="640.31,-42.9 647.21,-34.86 636.8,-36.84 640.31,-42.9"/>
<text text-anchor="middle" x="626.14" y="-57.8" font-family="Times New Roman,serif" font-size="14.00">0.045</text>
</g>
<!-- 5 -->
<g id="node6" class="node">
<title>5</title>
<g id="a_node6"><a xlink:href="to_broadcasting presenter.svg" xlink:title="broadcasting presenter">
<ellipse fill="none" stroke="black" cx="674.64" cy="-105" rx="92.88" ry="18"/>
<text text-anchor="middle" x="674.64" y="-101.3" font-family="Times New Roman,serif" font-size="14.00">broadcasting presenter</text>
</a>
</g>
</g>
<!-- 5&#45;&gt;1 -->
<g id="edge5" class="edge">
<title>5&#45;&gt;1</title>
<path fill="none" stroke="black" d="M674.64,-86.8C674.64,-75.16 674.64,-59.55 674.64,-46.24"/>
<polygon fill="black" stroke="black" points="678.14,-46.18 674.64,-36.18 671.14,-46.18 678.14,-46.18"/>
<text text-anchor="middle" x="690.14" y="-57.8" font-family="Times New Roman,serif" font-size="14.00">0.045</text>
</g>
<!-- 6 -->
<g id="node7" class="node">
<title>6</title>
<g id="a_node7"><a xlink:href="to_corporate treasurer.svg" xlink:title="corporate treasurer">
<ellipse fill="none" stroke="black" cx="864.64" cy="-105" rx="79.09" ry="18"/>
<text text-anchor="middle" x="864.64" y="-101.3" font-family="Times New Roman,serif" font-size="14.00">corporate treasurer</text>
</a>
</g>
</g>
<!-- 6&#45;&gt;1 -->
<g id="edge6" class="edge">
<title>6&#45;&gt;1</title>
<path fill="none" stroke="black" d="M830.23,-88.61C798.76,-74.53 752.05,-53.63 718.03,-38.41"/>
<polygon fill="black" stroke="black" points="719.35,-35.17 708.79,-34.28 716.49,-41.56 719.35,-35.17"/>
<text text-anchor="middle" x="797.14" y="-57.8" font-family="Times New Roman,serif" font-size="14.00">0.045</text>
</g>
<!-- 7 -->
<g id="node8" class="node">
<title>7</title>
<g id="a_node8"><a xlink:href="to_curator.svg" xlink:title="curator">
<ellipse fill="none" stroke="black" cx="998.64" cy="-105" rx="36.29" ry="18"/>
<text text-anchor="middle" x="998.64" y="-101.3" font-family="Times New Roman,serif" font-size="14.00">curator</text>
</a>
</g>
</g>
<!-- 7&#45;&gt;1 -->
<g id="edge7" class="edge">
<title>7&#45;&gt;1</title>
<path fill="none" stroke="black" d="M971.09,-93.24C965.05,-91.04 958.67,-88.84 952.64,-87 880.59,-64.95 796.35,-45.17 739.65,-32.7"/>
<polygon fill="black" stroke="black" points="740.26,-29.25 729.74,-30.53 738.76,-36.08 740.26,-29.25"/>
<text text-anchor="middle" x="901.14" y="-57.8" font-family="Times New Roman,serif" font-size="14.00">0.045</text>
</g>
<!-- 8 -->
<g id="node9" class="node">
<title>8</title>
<g id="a_node9"><a xlink:href="to_education administrator.svg" xlink:title="education administrator">
<ellipse fill="none" stroke="black" cx="1148.64" cy="-105" rx="95.58" ry="18"/>
<text text-anchor="middle" x="1148.64" y="-101.3" font-family="Times New Roman,serif" font-size="14.00">education administrator</text>
</a>
</g>
</g>
<!-- 8&#45;&gt;1 -->
<g id="edge9" class="edge">
<title>8&#45;&gt;1</title>
<path fill="none" stroke="black" d="M1092.19,-90.39C1046.19,-79.6 979.46,-64.62 920.64,-54 864.16,-43.8 799.95,-34.75 751.3,-28.41"/>
<polygon fill="black" stroke="black" points="751.52,-24.91 741.16,-27.1 750.63,-31.85 751.52,-24.91"/>
<text text-anchor="middle" x="1011.14" y="-57.8" font-family="Times New Roman,serif" font-size="14.00">0.045</text>
</g>
<!-- 9 -->
<g id="node10" class="node">
<title>9</title>
<g id="a_node10"><a xlink:href="to_health and safety adviser.svg" xlink:title="health and safety adviser">
<ellipse fill="none" stroke="black" cx="1361.64" cy="-105" rx="99.38" ry="18"/>
<text text-anchor="middle" x="1361.64" y="-101.3" font-family="Times New Roman,serif" font-size="14.00">health and safety adviser</text>
</a>
</g>
</g>
<!-- 9&#45;&gt;1 -->
<g id="edge10" class="edge">
<title>9&#45;&gt;1</title>
<path fill="none" stroke="black" d="M1289.62,-92.57C1277.61,-90.69 1265.28,-88.78 1253.64,-87 1154.6,-71.88 1130.08,-66.24 1030.64,-54 936.64,-42.43 828.3,-32.23 756.07,-25.86"/>
<polygon fill="black" stroke="black" points="755.94,-22.34 745.68,-24.95 755.33,-29.31 755.94,-22.34"/>
<text text-anchor="middle" x="1153.14" y="-57.8" font-family="Times New Roman,serif" font-size="14.00">0.045</text>
</g>
</g>
</svg>
