<?xml version="1.0" encoding="UTF-8" standalone="no"?>
<!DOCTYPE svg PUBLIC "-//W3C//DTD SVG 1.1//EN"
 "http://www.w3.org/Graphics/SVG/1.1/DTD/svg11.dtd">
<!-- Generated by graphviz version 2.44.1 (20200629.0800)
 -->
<!-- Title: doctor Pages: 1 -->
<svg width="1477pt" height="131pt"
 viewBox="0.00 0.00 1476.69 131.00" xmlns="http://www.w3.org/2000/svg" xmlns:xlink="http://www.w3.org/1999/xlink">
<g id="graph0" class="graph" transform="scale(1 1) rotate(0) translate(4 127)">
<title>doctor</title>
<polygon fill="white" stroke="transparent" points="-4,4 -4,-127 1472.69,-127 1472.69,4 -4,4"/>
<!-- 0 -->
<g id="node1" class="node">
<title>0</title>
<g id="a_node1"><a xlink:href="to_doctor.svg" xlink:title="doctor">
<ellipse fill="none" stroke="black" cx="650.6" cy="-18" rx="35.19" ry="18"/>
<text text-anchor="middle" x="650.6" y="-14.3" font-family="Times New Roman,serif" font-size="14.00">doctor</text>
</a>
</g>
</g>
<!-- 0&#45;&gt;0 -->
<g id="edge1" class="edge">
<title>0&#45;&gt;0</title>
<path fill="none" stroke="black" d="M682.21,-25.86C693.99,-26.12 703.69,-23.5 703.69,-18 703.69,-14.22 699.11,-11.8 692.41,-10.74"/>
<polygon fill="black" stroke="black" points="692.4,-7.24 682.21,-10.14 691.99,-14.22 692.4,-7.24"/>
<text text-anchor="middle" x="719.19" y="-14.3" font-family="Times New Roman,serif" font-size="14.00">0.105</text>
</g>
<!-- 1 -->
<g id="node2" class="node">
<title>1</title>
<g id="a_node2"><a xlink:href="to_it consultant.svg" xlink:title="it consultant">
<ellipse fill="none" stroke="black" cx="54.6" cy="-105" rx="54.69" ry="18"/>
<text text-anchor="middle" x="54.6" y="-101.3" font-family="Times New Roman,serif" font-size="14.00">it consultant</text>
</a>
</g>
</g>
<!-- 1&#45;&gt;0 -->
<g id="edge2" class="edge">
<title>1&#45;&gt;0</title>
<path fill="none" stroke="black" d="M94.73,-92.67C102.61,-90.63 110.83,-88.64 118.6,-87 297.1,-49.24 514.02,-29.44 605.97,-22.24"/>
<polygon fill="black" stroke="black" points="606.34,-25.72 616.04,-21.46 605.8,-18.74 606.34,-25.72"/>
<text text-anchor="middle" x="323.1" y="-57.8" font-family="Times New Roman,serif" font-size="14.00">0.105</text>
</g>
<!-- 2 -->
<g id="node3" class="node">
<title>2</title>
<g id="a_node3"><a xlink:href="to_academic librarian.svg" xlink:title="academic librarian">
<ellipse fill="none" stroke="black" cx="203.6" cy="-105" rx="76.09" ry="18"/>
<text text-anchor="middle" x="203.6" y="-101.3" font-family="Times New Roman,serif" font-size="14.00">academic librarian</text>
</a>
</g>
</g>
<!-- 2&#45;&gt;0 -->
<g id="edge3" class="edge">
<title>2&#45;&gt;0</title>
<path fill="none" stroke="black" d="M255.02,-91.69C300.71,-80.97 369.39,-65.42 429.6,-54 491.03,-42.35 562.58,-31.51 607.24,-25.07"/>
<polygon fill="black" stroke="black" points="607.76,-28.53 617.16,-23.65 606.77,-21.6 607.76,-28.53"/>
<text text-anchor="middle" x="445.1" y="-57.8" font-family="Times New Roman,serif" font-size="14.00">0.052</text>
</g>
<!-- 3 -->
<g id="node4" class="node">
<title>3</title>
<g id="a_node4"><a xlink:href="to_aid worker.svg" xlink:title="aid worker">
<ellipse fill="none" stroke="black" cx="346.6" cy="-105" rx="49.29" ry="18"/>
<text text-anchor="middle" x="346.6" y="-101.3" font-family="Times New Roman,serif" font-size="14.00">aid worker</text>
</a>
</g>
</g>
<!-- 3&#45;&gt;0 -->
<g id="edge4" class="edge">
<title>3&#45;&gt;0</title>
<path fill="none" stroke="black" d="M383.09,-92.81C417.24,-82.44 469.75,-66.72 515.6,-54 547.14,-45.25 583.03,-35.97 609.87,-29.17"/>
<polygon fill="black" stroke="black" points="610.85,-32.54 619.69,-26.7 609.13,-25.75 610.85,-32.54"/>
<text text-anchor="middle" x="531.1" y="-57.8" font-family="Times New Roman,serif" font-size="14.00">0.052</text>
</g>
<!-- 4 -->
<g id="node5" class="node">
<title>4</title>
<g id="a_node5"><a xlink:href="to_civil engineer.svg" xlink:title="civil engineer">
<ellipse fill="none" stroke="black" cx="471.6" cy="-105" rx="57.69" ry="18"/>
<text text-anchor="middle" x="471.6" y="-101.3" font-family="Times New Roman,serif" font-size="14.00">civil engineer</text>
</a>
</g>
</g>
<!-- 4&#45;&gt;0 -->
<g id="edge5" class="edge">
<title>4&#45;&gt;0</title>
<path fill="none" stroke="black" d="M501.96,-89.58C533.64,-74.54 583.22,-50.99 616.3,-35.29"/>
<polygon fill="black" stroke="black" points="618.05,-38.33 625.58,-30.88 615.04,-32.01 618.05,-38.33"/>
<text text-anchor="middle" x="588.1" y="-57.8" font-family="Times New Roman,serif" font-size="14.00">0.052</text>
</g>
<!-- 5 -->
<g id="node6" class="node">
<title>5</title>
<g id="a_node6"><a xlink:href="to_civil service administrator.svg" xlink:title="civil service administrator">
<ellipse fill="none" stroke="black" cx="650.6" cy="-105" rx="102.88" ry="18"/>
<text text-anchor="middle" x="650.6" y="-101.3" font-family="Times New Roman,serif" font-size="14.00">civil service administrator</text>
</a>
</g>
</g>
<!-- 5&#45;&gt;0 -->
<g id="edge6" class="edge">
<title>5&#45;&gt;0</title>
<path fill="none" stroke="black" d="M650.6,-86.8C650.6,-75.16 650.6,-59.55 650.6,-46.24"/>
<polygon fill="black" stroke="black" points="654.1,-46.18 650.6,-36.18 647.1,-46.18 654.1,-46.18"/>
<text text-anchor="middle" x="666.1" y="-57.8" font-family="Times New Roman,serif" font-size="14.00">0.052</text>
</g>
<!-- 6 -->
<g id="node7" class="node">
<title>6</title>
<g id="a_node7"><a xlink:href="to_clinical biochemist.svg" xlink:title="clinical biochemist">
<ellipse fill="none" stroke="black" cx="848.6" cy="-105" rx="77.19" ry="18"/>
<text text-anchor="middle" x="848.6" y="-101.3" font-family="Times New Roman,serif" font-size="14.00">clinical biochemist</text>
</a>
</g>
</g>
<!-- 6&#45;&gt;0 -->
<g id="edge7" class="edge">
<title>6&#45;&gt;0</title>
<path fill="none" stroke="black" d="M813.2,-88.8C777.31,-73.4 722.07,-49.69 686.13,-34.26"/>
<polygon fill="black" stroke="black" points="687.11,-30.87 676.54,-30.14 684.35,-37.3 687.11,-30.87"/>
<text text-anchor="middle" x="777.1" y="-57.8" font-family="Times New Roman,serif" font-size="14.00">0.052</text>
</g>
<!-- 7 -->
<g id="node8" class="node">
<title>7</title>
<g id="a_node8"><a xlink:href="to_computer sales support.svg" xlink:title="computer sales support">
<ellipse fill="none" stroke="black" cx="1040.6" cy="-105" rx="96.38" ry="18"/>
<text text-anchor="middle" x="1040.6" y="-101.3" font-family="Times New Roman,serif" font-size="14.00">computer sales support</text>
</a>
</g>
</g>
<!-- 7&#45;&gt;0 -->
<g id="edge8" class="edge">
<title>7&#45;&gt;0</title>
<path fill="none" stroke="black" d="M980.51,-90.91C900.64,-73.5 761.54,-43.18 692.27,-28.08"/>
<polygon fill="black" stroke="black" points="692.68,-24.59 682.17,-25.88 691.19,-31.43 692.68,-24.59"/>
<text text-anchor="middle" x="885.1" y="-57.8" font-family="Times New Roman,serif" font-size="14.00">0.052</text>
</g>
<!-- 8 -->
<g id="node9" class="node">
<title>8</title>
<g id="a_node9"><a xlink:href="to_engineering geologist.svg" xlink:title="engineering geologist">
<ellipse fill="none" stroke="black" cx="1241.6" cy="-105" rx="86.38" ry="18"/>
<text text-anchor="middle" x="1241.6" y="-101.3" font-family="Times New Roman,serif" font-size="14.00">engineering geologist</text>
</a>
</g>
</g>
<!-- 8&#45;&gt;0 -->
<g id="edge9" class="edge">
<title>8&#45;&gt;0</title>
<path fill="none" stroke="black" d="M1178.91,-92.54C1167.82,-90.62 1156.38,-88.7 1145.6,-87 979.26,-60.86 780.58,-35.26 694.24,-24.42"/>
<polygon fill="black" stroke="black" points="694.63,-20.94 684.27,-23.17 693.76,-27.89 694.63,-20.94"/>
<text text-anchor="middle" x="1039.1" y="-57.8" font-family="Times New Roman,serif" font-size="14.00">0.052</text>
</g>
<!-- 9 -->
<g id="node10" class="node">
<title>9</title>
<g id="a_node10"><a xlink:href="to_hotel manager.svg" xlink:title="hotel manager">
<ellipse fill="none" stroke="black" cx="1407.6" cy="-105" rx="61.19" ry="18"/>
<text text-anchor="middle" x="1407.6" y="-101.3" font-family="Times New Roman,serif" font-size="14.00">hotel manager</text>
</a>
</g>
</g>
<!-- 9&#45;&gt;0 -->
<g id="edge10" class="edge">
<title>9&#45;&gt;0</title>
<path fill="none" stroke="black" d="M1363.07,-92.5C1354.33,-90.48 1345.2,-88.54 1336.6,-87 1097.19,-44.28 805.65,-26.54 695.56,-21.03"/>
<polygon fill="black" stroke="black" points="695.64,-17.53 685.48,-20.54 695.29,-24.52 695.64,-17.53"/>
<text text-anchor="middle" x="1221.1" y="-57.8" font-family="Times New Roman,serif" font-size="14.00">0.052</text>
</g>
</g>
</svg>
