<?xml version="1.0" encoding="UTF-8" standalone="no"?>
<!DOCTYPE svg PUBLIC "-//W3C//DTD SVG 1.1//EN"
 "http://www.w3.org/Graphics/SVG/1.1/DTD/svg11.dtd">
<!-- Generated by graphviz version 2.44.1 (20200629.0800)
 -->
<!-- Title: debt_adviser Pages: 1 -->
<svg width="1493pt" height="131pt"
 viewBox="0.00 0.00 1492.94 131.00" xmlns="http://www.w3.org/2000/svg" xmlns:xlink="http://www.w3.org/1999/xlink">
<g id="graph0" class="graph" transform="scale(1 1) rotate(0) translate(4 127)">
<title>debt_adviser</title>
<polygon fill="white" stroke="transparent" points="-4,4 -4,-127 1488.94,-127 1488.94,4 -4,4"/>
<!-- 0 -->
<g id="node1" class="node">
<title>0</title>
<g id="a_node1"><a xlink:href="to_debt adviser.svg" xlink:title="debt adviser">
<ellipse fill="none" stroke="black" cx="724.44" cy="-18" rx="55.49" ry="18"/>
<text text-anchor="middle" x="724.44" y="-14.3" font-family="Times New Roman,serif" font-size="14.00">debt adviser</text>
</a>
</g>
</g>
<!-- 0&#45;&gt;0 -->
<g id="edge1" class="edge">
<title>0&#45;&gt;0</title>
<path fill="none" stroke="black" d="M774.43,-25.81C787.66,-25.36 797.69,-22.76 797.69,-18 797.69,-14.54 792.4,-12.22 784.42,-11.04"/>
<polygon fill="black" stroke="black" points="784.69,-7.55 774.43,-10.19 784.09,-14.53 784.69,-7.55"/>
<text text-anchor="middle" x="813.19" y="-14.3" font-family="Times New Roman,serif" font-size="14.00">0.168</text>
</g>
<!-- 1 -->
<g id="node2" class="node">
<title>1</title>
<g id="a_node2"><a xlink:href="to_financial manager.svg" xlink:title="financial manager">
<ellipse fill="none" stroke="black" cx="73.44" cy="-105" rx="73.39" ry="18"/>
<text text-anchor="middle" x="73.44" y="-101.3" font-family="Times New Roman,serif" font-size="14.00">financial manager</text>
</a>
</g>
</g>
<!-- 1&#45;&gt;0 -->
<g id="edge2" class="edge">
<title>1&#45;&gt;0</title>
<path fill="none" stroke="black" d="M126.73,-92.49C136.27,-90.56 146.14,-88.65 155.44,-87 253.65,-69.53 278.46,-66.34 377.44,-54 476.46,-41.65 591.78,-30.7 661.39,-24.46"/>
<polygon fill="black" stroke="black" points="662.09,-27.91 671.74,-23.54 661.47,-20.94 662.09,-27.91"/>
<text text-anchor="middle" x="392.94" y="-57.8" font-family="Times New Roman,serif" font-size="14.00">0.129</text>
</g>
<!-- 2 -->
<g id="node3" class="node">
<title>2</title>
<g id="a_node3"><a xlink:href="to_project manager.svg" xlink:title="project manager">
<ellipse fill="none" stroke="black" cx="233.44" cy="-105" rx="68.79" ry="18"/>
<text text-anchor="middle" x="233.44" y="-101.3" font-family="Times New Roman,serif" font-size="14.00">project manager</text>
</a>
</g>
</g>
<!-- 2&#45;&gt;0 -->
<g id="edge3" class="edge">
<title>2&#45;&gt;0</title>
<path fill="none" stroke="black" d="M283.5,-92.63C292.46,-90.69 301.72,-88.74 310.44,-87 435.98,-62.02 584.25,-39.29 664.89,-27.49"/>
<polygon fill="black" stroke="black" points="665.47,-30.95 674.86,-26.04 664.46,-24.02 665.47,-30.95"/>
<text text-anchor="middle" x="507.94" y="-57.8" font-family="Times New Roman,serif" font-size="14.00">0.051</text>
</g>
<!-- 3 -->
<g id="node4" class="node">
<title>3</title>
<g id="a_node4"><a xlink:href="to_housing adviser.svg" xlink:title="housing adviser">
<ellipse fill="none" stroke="black" cx="387.44" cy="-105" rx="67.69" ry="18"/>
<text text-anchor="middle" x="387.44" y="-101.3" font-family="Times New Roman,serif" font-size="14.00">housing adviser</text>
</a>
</g>
</g>
<!-- 3&#45;&gt;0 -->
<g id="edge4" class="edge">
<title>3&#45;&gt;0</title>
<path fill="none" stroke="black" d="M434.65,-92.07C474.76,-81.93 533.88,-67 585.44,-54 614.09,-46.78 646.07,-38.72 672.12,-32.16"/>
<polygon fill="black" stroke="black" points="673.32,-35.47 682.16,-29.64 671.61,-28.68 673.32,-35.47"/>
<text text-anchor="middle" x="600.94" y="-57.8" font-family="Times New Roman,serif" font-size="14.00">0.038</text>
</g>
<!-- 4 -->
<g id="node5" class="node">
<title>4</title>
<g id="a_node5"><a xlink:href="to_office manager.svg" xlink:title="office manager">
<ellipse fill="none" stroke="black" cx="537.44" cy="-105" rx="64.19" ry="18"/>
<text text-anchor="middle" x="537.44" y="-101.3" font-family="Times New Roman,serif" font-size="14.00">office manager</text>
</a>
</g>
</g>
<!-- 4&#45;&gt;0 -->
<g id="edge5" class="edge">
<title>4&#45;&gt;0</title>
<path fill="none" stroke="black" d="M569.59,-89.39C601.38,-74.94 650.1,-52.79 684.38,-37.21"/>
<polygon fill="black" stroke="black" points="685.99,-40.32 693.65,-33 683.09,-33.95 685.99,-40.32"/>
<text text-anchor="middle" x="657.94" y="-57.8" font-family="Times New Roman,serif" font-size="14.00">0.038</text>
</g>
<!-- 5 -->
<g id="node6" class="node">
<title>5</title>
<g id="a_node6"><a xlink:href="to_pharmacovigilance officer.svg" xlink:title="pharmacovigilance officer">
<ellipse fill="none" stroke="black" cx="724.44" cy="-105" rx="104.78" ry="18"/>
<text text-anchor="middle" x="724.44" y="-101.3" font-family="Times New Roman,serif" font-size="14.00">pharmacovigilance officer</text>
</a>
</g>
</g>
<!-- 5&#45;&gt;0 -->
<g id="edge6" class="edge">
<title>5&#45;&gt;0</title>
<path fill="none" stroke="black" d="M724.44,-86.8C724.44,-75.16 724.44,-59.55 724.44,-46.24"/>
<polygon fill="black" stroke="black" points="727.94,-46.18 724.44,-36.18 720.94,-46.18 727.94,-46.18"/>
<text text-anchor="middle" x="739.94" y="-57.8" font-family="Times New Roman,serif" font-size="14.00">0.038</text>
</g>
<!-- 6 -->
<g id="node7" class="node">
<title>6</title>
<g id="a_node7"><a xlink:href="to_public affairs consultant.svg" xlink:title="public affairs consultant">
<ellipse fill="none" stroke="black" cx="944.44" cy="-105" rx="97.48" ry="18"/>
<text text-anchor="middle" x="944.44" y="-101.3" font-family="Times New Roman,serif" font-size="14.00">public affairs consultant</text>
</a>
</g>
</g>
<!-- 6&#45;&gt;0 -->
<g id="edge7" class="edge">
<title>6&#45;&gt;0</title>
<path fill="none" stroke="black" d="M904.35,-88.51C865.88,-73.64 807.93,-51.26 768.26,-35.93"/>
<polygon fill="black" stroke="black" points="769.43,-32.63 758.84,-32.29 766.91,-39.16 769.43,-32.63"/>
<text text-anchor="middle" x="863.94" y="-57.8" font-family="Times New Roman,serif" font-size="14.00">0.038</text>
</g>
<!-- 7 -->
<g id="node8" class="node">
<title>7</title>
<g id="a_node8"><a xlink:href="to_accountant.svg" xlink:title="accountant">
<ellipse fill="none" stroke="black" cx="1110.44" cy="-105" rx="50.09" ry="18"/>
<text text-anchor="middle" x="1110.44" y="-101.3" font-family="Times New Roman,serif" font-size="14.00">accountant</text>
</a>
</g>
</g>
<!-- 7&#45;&gt;0 -->
<g id="edge8" class="edge">
<title>7&#45;&gt;0</title>
<path fill="none" stroke="black" d="M1073.1,-92.98C1065.62,-90.9 1057.8,-88.81 1050.44,-87 956.64,-63.96 846.44,-42.03 781.18,-29.58"/>
<polygon fill="black" stroke="black" points="781.58,-26.09 771.1,-27.66 780.27,-32.97 781.58,-26.09"/>
<text text-anchor="middle" x="985.94" y="-57.8" font-family="Times New Roman,serif" font-size="14.00">0.025</text>
</g>
<!-- 8 -->
<g id="node9" class="node">
<title>8</title>
<g id="a_node9"><a xlink:href="to_corporate banker.svg" xlink:title="corporate banker">
<ellipse fill="none" stroke="black" cx="1251.44" cy="-105" rx="72.59" ry="18"/>
<text text-anchor="middle" x="1251.44" y="-101.3" font-family="Times New Roman,serif" font-size="14.00">corporate banker</text>
</a>
</g>
</g>
<!-- 8&#45;&gt;0 -->
<g id="edge9" class="edge">
<title>8&#45;&gt;0</title>
<path fill="none" stroke="black" d="M1197.64,-92.8C1188.24,-90.86 1178.56,-88.86 1169.44,-87 1096.6,-72.12 1078.83,-65.94 1005.44,-54 930.37,-41.79 843.41,-31.55 786.35,-25.37"/>
<polygon fill="black" stroke="black" points="786.72,-21.89 776.4,-24.3 785.97,-28.85 786.72,-21.89"/>
<text text-anchor="middle" x="1099.94" y="-57.8" font-family="Times New Roman,serif" font-size="14.00">0.025</text>
</g>
<!-- 9 -->
<g id="node10" class="node">
<title>9</title>
<g id="a_node10"><a xlink:href="to_heritage manager.svg" xlink:title="heritage manager">
<ellipse fill="none" stroke="black" cx="1413.44" cy="-105" rx="71.49" ry="18"/>
<text text-anchor="middle" x="1413.44" y="-101.3" font-family="Times New Roman,serif" font-size="14.00">heritage manager</text>
</a>
</g>
</g>
<!-- 9&#45;&gt;0 -->
<g id="edge10" class="edge">
<title>9&#45;&gt;0</title>
<path fill="none" stroke="black" d="M1361.46,-92.51C1352.15,-90.58 1342.52,-88.66 1333.44,-87 1238.78,-69.66 1214.98,-65.59 1119.44,-54 1002.85,-39.86 866.25,-29.02 788.07,-23.37"/>
<polygon fill="black" stroke="black" points="788.13,-19.86 777.91,-22.64 787.63,-26.84 788.13,-19.86"/>
<text text-anchor="middle" x="1244.94" y="-57.8" font-family="Times New Roman,serif" font-size="14.00">0.025</text>
</g>
</g>
</svg>
