<?xml version="1.0" encoding="UTF-8" standalone="no"?>
<!DOCTYPE svg PUBLIC "-//W3C//DTD SVG 1.1//EN"
 "http://www.w3.org/Graphics/SVG/1.1/DTD/svg11.dtd">
<!-- Generated by graphviz version 2.44.1 (20200629.0800)
 -->
<!-- Title: test Pages: 1 -->
<svg width="1452pt" height="131pt"
 viewBox="0.00 0.00 1452.14 131.00" xmlns="http://www.w3.org/2000/svg" xmlns:xlink="http://www.w3.org/1999/xlink">
<g id="graph0" class="graph" transform="scale(1 1) rotate(0) translate(4 127)">
<title>test</title>
<polygon fill="white" stroke="transparent" points="-4,4 -4,-127 1448.14,-127 1448.14,4 -4,4"/>
<!-- 0 -->
<g id="node1" class="node">
<title>0</title>
<g id="a_node1"><a xlink:href="to_debt adviser.svg" xlink:title="debt adviser">
<ellipse fill="none" stroke="black" cx="701.44" cy="-18" rx="55.49" ry="18"/>
<text text-anchor="middle" x="701.44" y="-14.3" font-family="Times New Roman,serif" font-size="14.00">debt adviser</text>
</a>
</g>
</g>
<!-- 0&#45;&gt;0 -->
<g id="edge1" class="edge">
<title>0&#45;&gt;0</title>
<path fill="none" stroke="black" d="M751.43,-25.81C764.66,-25.36 774.69,-22.76 774.69,-18 774.69,-14.54 769.4,-12.22 761.42,-11.04"/>
<polygon fill="black" stroke="black" points="761.69,-7.55 751.43,-10.19 761.09,-14.53 761.69,-7.55"/>
<text text-anchor="middle" x="790.19" y="-14.3" font-family="Times New Roman,serif" font-size="14.00">0.168</text>
</g>
<!-- 1 -->
<g id="node2" class="node">
<title>1</title>
<g id="a_node2"><a xlink:href="to_financial manager.svg" xlink:title="financial manager">
<ellipse fill="none" stroke="black" cx="73.44" cy="-105" rx="73.39" ry="18"/>
<text text-anchor="middle" x="73.44" y="-101.3" font-family="Times New Roman,serif" font-size="14.00">financial manager</text>
</a>
</g>
</g>
<!-- 1&#45;&gt;0 -->
<g id="edge2" class="edge">
<title>1&#45;&gt;0</title>
<path fill="none" stroke="black" d="M126.73,-92.52C136.28,-90.58 146.14,-88.67 155.44,-87 251.9,-69.71 276.26,-66.54 373.44,-54 465.63,-42.11 572.78,-31.23 638.85,-24.85"/>
<polygon fill="black" stroke="black" points="639.48,-28.31 649.1,-23.87 638.81,-21.34 639.48,-28.31"/>
<text text-anchor="middle" x="388.94" y="-57.8" font-family="Times New Roman,serif" font-size="14.00">0.129</text>
</g>
<!-- 2 -->
<g id="node3" class="node">
<title>2</title>
<g id="a_node3"><a xlink:href="to_project manager.svg" xlink:title="project manager">
<ellipse fill="none" stroke="black" cx="233.44" cy="-105" rx="68.79" ry="18"/>
<text text-anchor="middle" x="233.44" y="-101.3" font-family="Times New Roman,serif" font-size="14.00">project manager</text>
</a>
</g>
</g>
<!-- 2&#45;&gt;0 -->
<g id="edge3" class="edge">
<title>2&#45;&gt;0</title>
<path fill="none" stroke="black" d="M284.16,-92.67C293.23,-90.72 302.61,-88.76 311.44,-87 428.69,-63.66 566.66,-40.64 643.06,-28.29"/>
<polygon fill="black" stroke="black" points="643.65,-31.74 652.97,-26.69 642.54,-24.83 643.65,-31.74"/>
<text text-anchor="middle" x="497.94" y="-57.8" font-family="Times New Roman,serif" font-size="14.00">0.051</text>
</g>
<!-- 3 -->
<g id="node4" class="node">
<title>3</title>
<g id="a_node4"><a xlink:href="to_corporate banker.svg" xlink:title="corporate banker">
<ellipse fill="none" stroke="black" cx="393.44" cy="-105" rx="72.59" ry="18"/>
<text text-anchor="middle" x="393.44" y="-101.3" font-family="Times New Roman,serif" font-size="14.00">corporate banker</text>
</a>
</g>
</g>
<!-- 3&#45;&gt;0 -->
<g id="edge4" class="edge">
<title>3&#45;&gt;0</title>
<path fill="none" stroke="black" d="M440.22,-91.09C497.01,-75.42 592.43,-49.09 650.88,-32.95"/>
<polygon fill="black" stroke="black" points="651.93,-36.3 660.64,-30.26 650.06,-29.55 651.93,-36.3"/>
<text text-anchor="middle" x="581.94" y="-57.8" font-family="Times New Roman,serif" font-size="14.00">0.038</text>
</g>
<!-- 4 -->
<g id="node5" class="node">
<title>4</title>
<g id="a_node5"><a xlink:href="to_housing adviser.svg" xlink:title="housing adviser">
<ellipse fill="none" stroke="black" cx="551.44" cy="-105" rx="67.69" ry="18"/>
<text text-anchor="middle" x="551.44" y="-101.3" font-family="Times New Roman,serif" font-size="14.00">housing adviser</text>
</a>
</g>
</g>
<!-- 4&#45;&gt;0 -->
<g id="edge5" class="edge">
<title>4&#45;&gt;0</title>
<path fill="none" stroke="black" d="M578.96,-88.41C603.47,-74.52 639.48,-54.11 666.12,-39.02"/>
<polygon fill="black" stroke="black" points="668.14,-41.9 675.11,-33.92 664.69,-35.81 668.14,-41.9"/>
<text text-anchor="middle" x="650.94" y="-57.8" font-family="Times New Roman,serif" font-size="14.00">0.038</text>
</g>
<!-- 5 -->
<g id="node6" class="node">
<title>5</title>
<g id="a_node6"><a xlink:href="to_office manager.svg" xlink:title="office manager">
<ellipse fill="none" stroke="black" cx="701.44" cy="-105" rx="64.19" ry="18"/>
<text text-anchor="middle" x="701.44" y="-101.3" font-family="Times New Roman,serif" font-size="14.00">office manager</text>
</a>
</g>
</g>
<!-- 5&#45;&gt;0 -->
<g id="edge6" class="edge">
<title>5&#45;&gt;0</title>
<path fill="none" stroke="black" d="M701.44,-86.8C701.44,-75.16 701.44,-59.55 701.44,-46.24"/>
<polygon fill="black" stroke="black" points="704.94,-46.18 701.44,-36.18 697.94,-46.18 704.94,-46.18"/>
<text text-anchor="middle" x="716.94" y="-57.8" font-family="Times New Roman,serif" font-size="14.00">0.038</text>
</g>
<!-- 6 -->
<g id="node7" class="node">
<title>6</title>
<g id="a_node7"><a xlink:href="to_pharmacovigilance officer.svg" xlink:title="pharmacovigilance officer">
<ellipse fill="none" stroke="black" cx="888.44" cy="-105" rx="104.78" ry="18"/>
<text text-anchor="middle" x="888.44" y="-101.3" font-family="Times New Roman,serif" font-size="14.00">pharmacovigilance officer</text>
</a>
</g>
</g>
<!-- 6&#45;&gt;0 -->
<g id="edge7" class="edge">
<title>6&#45;&gt;0</title>
<path fill="none" stroke="black" d="M853.27,-88.01C821.59,-73.61 775.03,-52.45 741.84,-37.36"/>
<polygon fill="black" stroke="black" points="742.98,-34.03 732.43,-33.08 740.08,-40.41 742.98,-34.03"/>
<text text-anchor="middle" x="821.94" y="-57.8" font-family="Times New Roman,serif" font-size="14.00">0.038</text>
</g>
<!-- 7 -->
<g id="node8" class="node">
<title>7</title>
<g id="a_node8"><a xlink:href="to_accountant.svg" xlink:title="accountant">
<ellipse fill="none" stroke="black" cx="1061.44" cy="-105" rx="50.09" ry="18"/>
<text text-anchor="middle" x="1061.44" y="-101.3" font-family="Times New Roman,serif" font-size="14.00">accountant</text>
</a>
</g>
</g>
<!-- 7&#45;&gt;0 -->
<g id="edge8" class="edge">
<title>7&#45;&gt;0</title>
<path fill="none" stroke="black" d="M1024.08,-92.88C1016.92,-90.85 1009.46,-88.8 1002.44,-87 917.21,-65.11 817.45,-43.32 756.88,-30.51"/>
<polygon fill="black" stroke="black" points="757.28,-27.02 746.77,-28.38 755.83,-33.87 757.28,-27.02"/>
<text text-anchor="middle" x="944.94" y="-57.8" font-family="Times New Roman,serif" font-size="14.00">0.025</text>
</g>
<!-- 8 -->
<g id="node9" class="node">
<title>8</title>
<g id="a_node9"><a xlink:href="to_heritage manager.svg" xlink:title="heritage manager">
<ellipse fill="none" stroke="black" cx="1201.44" cy="-105" rx="71.49" ry="18"/>
<text text-anchor="middle" x="1201.44" y="-101.3" font-family="Times New Roman,serif" font-size="14.00">heritage manager</text>
</a>
</g>
</g>
<!-- 8&#45;&gt;0 -->
<g id="edge9" class="edge">
<title>8&#45;&gt;0</title>
<path fill="none" stroke="black" d="M1150.8,-92.16C1102.96,-81.24 1029.1,-65.11 964.44,-54 895.78,-42.21 816.44,-32.13 763.02,-25.86"/>
<polygon fill="black" stroke="black" points="763.36,-22.38 753.02,-24.7 762.55,-29.33 763.36,-22.38"/>
<text text-anchor="middle" x="1057.94" y="-57.8" font-family="Times New Roman,serif" font-size="14.00">0.025</text>
</g>
<!-- 9 -->
<g id="node10" class="node">
<title>9</title>
<g id="a_node10"><a xlink:href="to_investment analyst.svg" xlink:title="investment analyst">
<ellipse fill="none" stroke="black" cx="1367.44" cy="-105" rx="76.89" ry="18"/>
<text text-anchor="middle" x="1367.44" y="-101.3" font-family="Times New Roman,serif" font-size="14.00">investment analyst</text>
</a>
</g>
</g>
<!-- 9&#45;&gt;0 -->
<g id="edge10" class="edge">
<title>9&#45;&gt;0</title>
<path fill="none" stroke="black" d="M1311.52,-92.65C1301.52,-90.71 1291.18,-88.75 1281.44,-87 1191.05,-70.76 1168.55,-65.6 1077.44,-54 967.97,-40.07 839.89,-29.32 765.01,-23.6"/>
<polygon fill="black" stroke="black" points="765.04,-20.09 754.81,-22.83 764.51,-27.07 765.04,-20.09"/>
<text text-anchor="middle" x="1194.94" y="-57.8" font-family="Times New Roman,serif" font-size="14.00">0.025</text>
</g>
</g>
</svg>
