<?xml version="1.0" encoding="UTF-8" standalone="no"?>
<!DOCTYPE svg PUBLIC "-//W3C//DTD SVG 1.1//EN"
 "http://www.w3.org/Graphics/SVG/1.1/DTD/svg11.dtd">
<!-- Generated by graphviz version 2.44.1 (20200629.0800)
 -->
<!-- Title: environmental_scientist Pages: 1 -->
<svg width="1511pt" height="131pt"
 viewBox="0.00 0.00 1511.29 131.00" xmlns="http://www.w3.org/2000/svg" xmlns:xlink="http://www.w3.org/1999/xlink">
<g id="graph0" class="graph" transform="scale(1 1) rotate(0) translate(4 127)">
<title>environmental_scientist</title>
<polygon fill="white" stroke="transparent" points="-4,4 -4,-127 1507.29,-127 1507.29,4 -4,4"/>
<!-- 0 -->
<g id="node1" class="node">
<title>0</title>
<g id="a_node1"><a xlink:href="to_environmental scientist.svg" xlink:title="environmental scientist">
<ellipse fill="none" stroke="black" cx="706.89" cy="-18" rx="92.88" ry="18"/>
<text text-anchor="middle" x="706.89" y="-14.3" font-family="Times New Roman,serif" font-size="14.00">environmental scientist</text>
</a>
</g>
</g>
<!-- 0&#45;&gt;0 -->
<g id="edge1" class="edge">
<title>0&#45;&gt;0</title>
<path fill="none" stroke="black" d="M791.54,-25.44C807,-24.5 817.84,-22.02 817.84,-18 817.84,-14.92 811.48,-12.75 801.57,-11.47"/>
<polygon fill="black" stroke="black" points="801.82,-7.98 791.54,-10.56 801.18,-14.95 801.82,-7.98"/>
<text text-anchor="middle" x="833.34" y="-14.3" font-family="Times New Roman,serif" font-size="14.00">0.173</text>
</g>
<!-- 1 -->
<g id="node2" class="node">
<title>1</title>
<g id="a_node2"><a xlink:href="to_project manager.svg" xlink:title="project manager">
<ellipse fill="none" stroke="black" cx="68.89" cy="-105" rx="68.79" ry="18"/>
<text text-anchor="middle" x="68.89" y="-101.3" font-family="Times New Roman,serif" font-size="14.00">project manager</text>
</a>
</g>
</g>
<!-- 1&#45;&gt;0 -->
<g id="edge2" class="edge">
<title>1&#45;&gt;0</title>
<path fill="none" stroke="black" d="M118.49,-92.5C127.58,-90.55 137.01,-88.63 145.89,-87 308.95,-57.08 501.17,-37.03 613.01,-26.86"/>
<polygon fill="black" stroke="black" points="613.6,-30.32 623.25,-25.94 612.97,-23.35 613.6,-30.32"/>
<text text-anchor="middle" x="376.39" y="-57.8" font-family="Times New Roman,serif" font-size="14.00">0.096</text>
</g>
<!-- 2 -->
<g id="node3" class="node">
<title>2</title>
<g id="a_node3"><a xlink:href="to_environmental manager.svg" xlink:title="environmental manager">
<ellipse fill="none" stroke="black" cx="248.89" cy="-105" rx="93.68" ry="18"/>
<text text-anchor="middle" x="248.89" y="-101.3" font-family="Times New Roman,serif" font-size="14.00">environmental manager</text>
</a>
</g>
</g>
<!-- 2&#45;&gt;0 -->
<g id="edge3" class="edge">
<title>2&#45;&gt;0</title>
<path fill="none" stroke="black" d="M304.61,-90.48C350.01,-79.75 415.87,-64.79 473.89,-54 522.86,-44.89 577.96,-36.53 622.28,-30.27"/>
<polygon fill="black" stroke="black" points="623.02,-33.7 632.43,-28.84 622.04,-26.76 623.02,-33.7"/>
<text text-anchor="middle" x="489.39" y="-57.8" font-family="Times New Roman,serif" font-size="14.00">0.076</text>
</g>
<!-- 3 -->
<g id="node4" class="node">
<title>3</title>
<g id="a_node4"><a xlink:href="to_lecturer.svg" xlink:title="lecturer">
<ellipse fill="none" stroke="black" cx="397.89" cy="-105" rx="37.89" ry="18"/>
<text text-anchor="middle" x="397.89" y="-101.3" font-family="Times New Roman,serif" font-size="14.00">lecturer</text>
</a>
</g>
</g>
<!-- 3&#45;&gt;0 -->
<g id="edge4" class="edge">
<title>3&#45;&gt;0</title>
<path fill="none" stroke="black" d="M426.45,-92.94C432.19,-90.86 438.21,-88.78 443.89,-87 509.52,-66.4 585.74,-47.2 639.17,-34.49"/>
<polygon fill="black" stroke="black" points="640.29,-37.83 649.21,-32.12 638.67,-31.02 640.29,-37.83"/>
<text text-anchor="middle" x="574.39" y="-57.8" font-family="Times New Roman,serif" font-size="14.00">0.076</text>
</g>
<!-- 4 -->
<g id="node5" class="node">
<title>4</title>
<g id="a_node5"><a xlink:href="to_research scientist.svg" xlink:title="research scientist">
<ellipse fill="none" stroke="black" cx="525.89" cy="-105" rx="72.59" ry="18"/>
<text text-anchor="middle" x="525.89" y="-101.3" font-family="Times New Roman,serif" font-size="14.00">research scientist</text>
</a>
</g>
</g>
<!-- 4&#45;&gt;0 -->
<g id="edge5" class="edge">
<title>4&#45;&gt;0</title>
<path fill="none" stroke="black" d="M558.25,-88.8C587.78,-74.94 631.61,-54.35 664.04,-39.13"/>
<polygon fill="black" stroke="black" points="665.72,-42.2 673.28,-34.78 662.74,-35.87 665.72,-42.2"/>
<text text-anchor="middle" x="643.39" y="-57.8" font-family="Times New Roman,serif" font-size="14.00">0.076</text>
</g>
<!-- 5 -->
<g id="node6" class="node">
<title>5</title>
<g id="a_node6"><a xlink:href="to_charities administrator.svg" xlink:title="charities administrator">
<ellipse fill="none" stroke="black" cx="706.89" cy="-105" rx="90.18" ry="18"/>
<text text-anchor="middle" x="706.89" y="-101.3" font-family="Times New Roman,serif" font-size="14.00">charities administrator</text>
</a>
</g>
</g>
<!-- 5&#45;&gt;0 -->
<g id="edge6" class="edge">
<title>5&#45;&gt;0</title>
<path fill="none" stroke="black" d="M706.89,-86.8C706.89,-75.16 706.89,-59.55 706.89,-46.24"/>
<polygon fill="black" stroke="black" points="710.39,-46.18 706.89,-36.18 703.39,-46.18 710.39,-46.18"/>
<text text-anchor="middle" x="722.39" y="-57.8" font-family="Times New Roman,serif" font-size="14.00">0.038</text>
</g>
<!-- 6 -->
<g id="node7" class="node">
<title>6</title>
<g id="a_node7"><a xlink:href="to_community education officer.svg" xlink:title="community education officer">
<ellipse fill="none" stroke="black" cx="929.89" cy="-105" rx="115.08" ry="18"/>
<text text-anchor="middle" x="929.89" y="-101.3" font-family="Times New Roman,serif" font-size="14.00">community education officer</text>
</a>
</g>
</g>
<!-- 6&#45;&gt;0 -->
<g id="edge7" class="edge">
<title>6&#45;&gt;0</title>
<path fill="none" stroke="black" d="M888.21,-88.11C850.94,-73.91 796.26,-53.06 756.7,-37.99"/>
<polygon fill="black" stroke="black" points="757.84,-34.67 747.25,-34.38 755.34,-41.21 757.84,-34.67"/>
<text text-anchor="middle" x="847.39" y="-57.8" font-family="Times New Roman,serif" font-size="14.00">0.038</text>
</g>
<!-- 7 -->
<g id="node8" class="node">
<title>7</title>
<g id="a_node8"><a xlink:href="to_corporate treasurer.svg" xlink:title="corporate treasurer">
<ellipse fill="none" stroke="black" cx="1141.89" cy="-105" rx="79.09" ry="18"/>
<text text-anchor="middle" x="1141.89" y="-101.3" font-family="Times New Roman,serif" font-size="14.00">corporate treasurer</text>
</a>
</g>
</g>
<!-- 7&#45;&gt;0 -->
<g id="edge8" class="edge">
<title>7&#45;&gt;0</title>
<path fill="none" stroke="black" d="M1083.68,-92.62C1005.07,-77.26 865.01,-49.9 779.58,-33.2"/>
<polygon fill="black" stroke="black" points="780.18,-29.75 769.69,-31.27 778.84,-36.62 780.18,-29.75"/>
<text text-anchor="middle" x="966.39" y="-57.8" font-family="Times New Roman,serif" font-size="14.00">0.038</text>
</g>
<!-- 8 -->
<g id="node9" class="node">
<title>8</title>
<g id="a_node9"><a xlink:href="to_teaching assistant.svg" xlink:title="teaching assistant">
<ellipse fill="none" stroke="black" cx="1312.89" cy="-105" rx="73.39" ry="18"/>
<text text-anchor="middle" x="1312.89" y="-101.3" font-family="Times New Roman,serif" font-size="14.00">teaching assistant</text>
</a>
</g>
</g>
<!-- 8&#45;&gt;0 -->
<g id="edge9" class="edge">
<title>8&#45;&gt;0</title>
<path fill="none" stroke="black" d="M1259.42,-92.49C1249.62,-90.54 1239.46,-88.63 1229.89,-87 1078.54,-61.3 901.1,-40.09 796.67,-28.52"/>
<polygon fill="black" stroke="black" points="796.8,-25.01 786.48,-27.4 796.04,-31.97 796.8,-25.01"/>
<text text-anchor="middle" x="1116.39" y="-57.8" font-family="Times New Roman,serif" font-size="14.00">0.038</text>
</g>
<!-- 9 -->
<g id="node10" class="node">
<title>9</title>
<g id="a_node10"><a xlink:href="to_aid worker.svg" xlink:title="aid worker">
<ellipse fill="none" stroke="black" cx="1453.89" cy="-105" rx="49.29" ry="18"/>
<text text-anchor="middle" x="1453.89" y="-101.3" font-family="Times New Roman,serif" font-size="14.00">aid worker</text>
</a>
</g>
</g>
<!-- 9&#45;&gt;0 -->
<g id="edge10" class="edge">
<title>9&#45;&gt;0</title>
<path fill="none" stroke="black" d="M1417.6,-92.6C1410.14,-90.52 1402.31,-88.53 1394.89,-87 1189.11,-44.51 943.04,-28.33 808.01,-22.35"/>
<polygon fill="black" stroke="black" points="807.83,-18.84 797.69,-21.9 807.52,-25.83 807.83,-18.84"/>
<text text-anchor="middle" x="1298.39" y="-57.8" font-family="Times New Roman,serif" font-size="14.00">0.019</text>
</g>
</g>
</svg>
