<?xml version="1.0" encoding="UTF-8" standalone="no"?>
<!DOCTYPE svg PUBLIC "-//W3C//DTD SVG 1.1//EN"
 "http://www.w3.org/Graphics/SVG/1.1/DTD/svg11.dtd">
<!-- Generated by graphviz version 2.44.1 (20200629.0800)
 -->
<!-- Title: test Pages: 1 -->
<svg width="1330pt" height="131pt"
 viewBox="0.00 0.00 1330.14 131.00" xmlns="http://www.w3.org/2000/svg" xmlns:xlink="http://www.w3.org/1999/xlink">
<g id="graph0" class="graph" transform="scale(1 1) rotate(0) translate(4 127)">
<title>test</title>
<polygon fill="white" stroke="transparent" points="-4,4 -4,-127 1326.14,-127 1326.14,4 -4,4"/>
<!-- 0 -->
<g id="node1" class="node">
<title>0</title>
<g id="a_node1"><a xlink:href="to_education administrator.svg" xlink:title="education administrator">
<ellipse fill="none" stroke="black" cx="621.7" cy="-18" rx="95.58" ry="18"/>
<text text-anchor="middle" x="621.7" y="-14.3" font-family="Times New Roman,serif" font-size="14.00">education administrator</text>
</a>
</g>
</g>
<!-- 0&#45;&gt;0 -->
<g id="edge1" class="edge">
<title>0&#45;&gt;0</title>
<path fill="none" stroke="black" d="M708.81,-25.41C724.37,-24.45 735.24,-21.98 735.24,-18 735.24,-14.95 728.87,-12.79 718.9,-11.51"/>
<polygon fill="black" stroke="black" points="719.09,-8.02 708.81,-10.59 718.45,-14.99 719.09,-8.02"/>
<text text-anchor="middle" x="747.74" y="-14.3" font-family="Times New Roman,serif" font-size="14.00">0.12</text>
</g>
<!-- 1 -->
<g id="node2" class="node">
<title>1</title>
<g id="a_node2"><a xlink:href="to_lecturer.svg" xlink:title="lecturer">
<ellipse fill="none" stroke="black" cx="37.7" cy="-105" rx="37.89" ry="18"/>
<text text-anchor="middle" x="37.7" y="-101.3" font-family="Times New Roman,serif" font-size="14.00">lecturer</text>
</a>
</g>
</g>
<!-- 1&#45;&gt;0 -->
<g id="edge2" class="edge">
<title>1&#45;&gt;0</title>
<path fill="none" stroke="black" d="M65.78,-92.96C71.95,-90.78 78.49,-88.66 84.7,-87 233.04,-47.33 410.78,-30.6 519.97,-23.68"/>
<polygon fill="black" stroke="black" points="520.22,-27.17 529.99,-23.06 519.79,-20.19 520.22,-27.17"/>
<text text-anchor="middle" x="243.2" y="-57.8" font-family="Times New Roman,serif" font-size="14.00">0.05</text>
</g>
<!-- 2 -->
<g id="node3" class="node">
<title>2</title>
<g id="a_node3"><a xlink:href="to_project manager.svg" xlink:title="project manager">
<ellipse fill="none" stroke="black" cx="162.7" cy="-105" rx="68.79" ry="18"/>
<text text-anchor="middle" x="162.7" y="-101.3" font-family="Times New Roman,serif" font-size="14.00">project manager</text>
</a>
</g>
</g>
<!-- 2&#45;&gt;0 -->
<g id="edge3" class="edge">
<title>2&#45;&gt;0</title>
<path fill="none" stroke="black" d="M208.4,-91.43C249.76,-80.4 312.46,-64.51 367.7,-54 421.69,-43.72 482.68,-35.22 531.37,-29.17"/>
<polygon fill="black" stroke="black" points="532.06,-32.61 541.56,-27.91 531.21,-25.66 532.06,-32.61"/>
<text text-anchor="middle" x="383.2" y="-57.8" font-family="Times New Roman,serif" font-size="14.00">0.046</text>
</g>
<!-- 3 -->
<g id="node4" class="node">
<title>3</title>
<g id="a_node4"><a xlink:href="to_teacher.svg" xlink:title="teacher">
<ellipse fill="none" stroke="black" cx="285.7" cy="-105" rx="36.29" ry="18"/>
<text text-anchor="middle" x="285.7" y="-101.3" font-family="Times New Roman,serif" font-size="14.00">teacher</text>
</a>
</g>
</g>
<!-- 3&#45;&gt;0 -->
<g id="edge4" class="edge">
<title>3&#45;&gt;0</title>
<path fill="none" stroke="black" d="M313.1,-92.99C318.87,-90.86 324.94,-88.75 330.7,-87 403.54,-64.83 488.5,-45.74 547.75,-33.47"/>
<polygon fill="black" stroke="black" points="548.67,-36.85 557.76,-31.41 547.26,-30 548.67,-36.85"/>
<text text-anchor="middle" x="465.2" y="-57.8" font-family="Times New Roman,serif" font-size="14.00">0.036</text>
</g>
<!-- 4 -->
<g id="node5" class="node">
<title>4</title>
<g id="a_node5"><a xlink:href="to_pharmacovigilance officer.svg" xlink:title="pharmacovigilance officer">
<ellipse fill="none" stroke="black" cx="444.7" cy="-105" rx="104.78" ry="18"/>
<text text-anchor="middle" x="444.7" y="-101.3" font-family="Times New Roman,serif" font-size="14.00">pharmacovigilance officer</text>
</a>
</g>
</g>
<!-- 4&#45;&gt;0 -->
<g id="edge5" class="edge">
<title>4&#45;&gt;0</title>
<path fill="none" stroke="black" d="M478.41,-87.81C507.04,-74.06 548.29,-54.25 579.18,-39.42"/>
<polygon fill="black" stroke="black" points="580.91,-42.47 588.41,-34.98 577.88,-36.16 580.91,-42.47"/>
<text text-anchor="middle" x="557.2" y="-57.8" font-family="Times New Roman,serif" font-size="14.00">0.03</text>
</g>
<!-- 5 -->
<g id="node6" class="node">
<title>5</title>
<g id="a_node6"><a xlink:href="to_it consultant.svg" xlink:title="it consultant">
<ellipse fill="none" stroke="black" cx="621.7" cy="-105" rx="54.69" ry="18"/>
<text text-anchor="middle" x="621.7" y="-101.3" font-family="Times New Roman,serif" font-size="14.00">it consultant</text>
</a>
</g>
</g>
<!-- 5&#45;&gt;0 -->
<g id="edge6" class="edge">
<title>5&#45;&gt;0</title>
<path fill="none" stroke="black" d="M621.7,-86.8C621.7,-75.16 621.7,-59.55 621.7,-46.24"/>
<polygon fill="black" stroke="black" points="625.2,-46.18 621.7,-36.18 618.2,-46.18 625.2,-46.18"/>
<text text-anchor="middle" x="637.2" y="-57.8" font-family="Times New Roman,serif" font-size="14.00">0.026</text>
</g>
<!-- 6 -->
<g id="node7" class="node">
<title>6</title>
<g id="a_node7"><a xlink:href="to_teaching assistant.svg" xlink:title="teaching assistant">
<ellipse fill="none" stroke="black" cx="767.7" cy="-105" rx="73.39" ry="18"/>
<text text-anchor="middle" x="767.7" y="-101.3" font-family="Times New Roman,serif" font-size="14.00">teaching assistant</text>
</a>
</g>
</g>
<!-- 6&#45;&gt;0 -->
<g id="edge7" class="edge">
<title>6&#45;&gt;0</title>
<path fill="none" stroke="black" d="M740.58,-88.21C717.41,-74.73 683.89,-55.21 658.34,-40.33"/>
<polygon fill="black" stroke="black" points="660.07,-37.29 649.66,-35.28 656.55,-43.34 660.07,-37.29"/>
<text text-anchor="middle" x="719.2" y="-57.8" font-family="Times New Roman,serif" font-size="14.00">0.026</text>
</g>
<!-- 7 -->
<g id="node8" class="node">
<title>7</title>
<g id="a_node8"><a xlink:href="to_academic librarian.svg" xlink:title="academic librarian">
<ellipse fill="none" stroke="black" cx="934.7" cy="-105" rx="76.09" ry="18"/>
<text text-anchor="middle" x="934.7" y="-101.3" font-family="Times New Roman,serif" font-size="14.00">academic librarian</text>
</a>
</g>
</g>
<!-- 7&#45;&gt;0 -->
<g id="edge8" class="edge">
<title>7&#45;&gt;0</title>
<path fill="none" stroke="black" d="M886.82,-91C832.31,-76.2 743.12,-51.97 683.43,-35.76"/>
<polygon fill="black" stroke="black" points="684.31,-32.38 673.74,-33.13 682.48,-39.13 684.31,-32.38"/>
<text text-anchor="middle" x="813.2" y="-57.8" font-family="Times New Roman,serif" font-size="14.00">0.023</text>
</g>
<!-- 8 -->
<g id="node9" class="node">
<title>8</title>
<g id="a_node9"><a xlink:href="to_office manager.svg" xlink:title="office manager">
<ellipse fill="none" stroke="black" cx="1092.7" cy="-105" rx="64.19" ry="18"/>
<text text-anchor="middle" x="1092.7" y="-101.3" font-family="Times New Roman,serif" font-size="14.00">office manager</text>
</a>
</g>
</g>
<!-- 8&#45;&gt;0 -->
<g id="edge9" class="edge">
<title>8&#45;&gt;0</title>
<path fill="none" stroke="black" d="M1045.66,-92.65C1037.04,-90.68 1028.11,-88.72 1019.7,-87 911.03,-64.78 784.64,-44.05 703.96,-31.45"/>
<polygon fill="black" stroke="black" points="704.28,-27.96 693.86,-29.88 703.2,-34.88 704.28,-27.96"/>
<text text-anchor="middle" x="937.2" y="-57.8" font-family="Times New Roman,serif" font-size="14.00">0.023</text>
</g>
<!-- 9 -->
<g id="node10" class="node">
<title>9</title>
<g id="a_node10"><a xlink:href="to_financial manager.svg" xlink:title="financial manager">
<ellipse fill="none" stroke="black" cx="1248.7" cy="-105" rx="73.39" ry="18"/>
<text text-anchor="middle" x="1248.7" y="-101.3" font-family="Times New Roman,serif" font-size="14.00">financial manager</text>
</a>
</g>
</g>
<!-- 9&#45;&gt;0 -->
<g id="edge10" class="edge">
<title>9&#45;&gt;0</title>
<path fill="none" stroke="black" d="M1195.19,-92.67C1185.39,-90.7 1175.25,-88.73 1165.7,-87 1073.16,-70.23 1049.94,-66.22 956.7,-54 875.63,-43.37 783.18,-33.91 715.97,-27.52"/>
<polygon fill="black" stroke="black" points="716.11,-24.01 705.82,-26.56 715.45,-30.98 716.11,-24.01"/>
<text text-anchor="middle" x="1073.2" y="-57.8" font-family="Times New Roman,serif" font-size="14.00">0.02</text>
</g>
</g>
</svg>
