<?xml version="1.0" encoding="UTF-8" standalone="no"?>
<!DOCTYPE svg PUBLIC "-//W3C//DTD SVG 1.1//EN"
 "http://www.w3.org/Graphics/SVG/1.1/DTD/svg11.dtd">
<!-- Generated by graphviz version 2.44.1 (20200629.0800)
 -->
<!-- Title: test Pages: 1 -->
<svg width="1674pt" height="131pt"
 viewBox="0.00 0.00 1673.58 131.00" xmlns="http://www.w3.org/2000/svg" xmlns:xlink="http://www.w3.org/1999/xlink">
<g id="graph0" class="graph" transform="scale(1 1) rotate(0) translate(4 127)">
<title>test</title>
<polygon fill="white" stroke="transparent" points="-4,4 -4,-127 1669.58,-127 1669.58,4 -4,4"/>
<!-- 0 -->
<g id="node1" class="node">
<title>0</title>
<g id="a_node1"><a xlink:href="to_environmental manager.svg" xlink:title="environmental manager">
<ellipse fill="none" stroke="black" cx="879.89" cy="-18" rx="93.68" ry="18"/>
<text text-anchor="middle" x="879.89" y="-14.3" font-family="Times New Roman,serif" font-size="14.00">environmental manager</text>
</a>
</g>
</g>
<!-- 0&#45;&gt;0 -->
<g id="edge1" class="edge">
<title>0&#45;&gt;0</title>
<path fill="none" stroke="black" d="M965.51,-25.41C980.8,-24.45 991.49,-21.98 991.49,-18 991.49,-14.99 985.35,-12.84 975.73,-11.55"/>
<polygon fill="black" stroke="black" points="975.8,-8.04 965.51,-10.59 975.14,-15.01 975.8,-8.04"/>
<text text-anchor="middle" x="1006.99" y="-14.3" font-family="Times New Roman,serif" font-size="14.00">0.197</text>
</g>
<!-- 1 -->
<g id="node2" class="node">
<title>1</title>
<g id="a_node2"><a xlink:href="to_project manager.svg" xlink:title="project manager">
<ellipse fill="none" stroke="black" cx="68.89" cy="-105" rx="68.79" ry="18"/>
<text text-anchor="middle" x="68.89" y="-101.3" font-family="Times New Roman,serif" font-size="14.00">project manager</text>
</a>
</g>
</g>
<!-- 1&#45;&gt;0 -->
<g id="edge2" class="edge">
<title>1&#45;&gt;0</title>
<path fill="none" stroke="black" d="M118.26,-92.42C127.73,-90.43 137.59,-88.52 146.89,-87 371.46,-50.28 638.21,-31.75 779.85,-23.86"/>
<polygon fill="black" stroke="black" points="780.45,-27.33 790.25,-23.29 780.07,-20.34 780.45,-27.33"/>
<text text-anchor="middle" x="403.39" y="-57.8" font-family="Times New Roman,serif" font-size="14.00">0.093</text>
</g>
<!-- 2 -->
<g id="node3" class="node">
<title>2</title>
<g id="a_node3"><a xlink:href="to_environmental scientist.svg" xlink:title="environmental scientist">
<ellipse fill="none" stroke="black" cx="248.89" cy="-105" rx="92.88" ry="18"/>
<text text-anchor="middle" x="248.89" y="-101.3" font-family="Times New Roman,serif" font-size="14.00">environmental scientist</text>
</a>
</g>
</g>
<!-- 2&#45;&gt;0 -->
<g id="edge3" class="edge">
<title>2&#45;&gt;0</title>
<path fill="none" stroke="black" d="M315.78,-92.49C327.47,-90.58 339.53,-88.68 350.89,-87 505.81,-64.14 686.91,-41.81 791.99,-29.28"/>
<polygon fill="black" stroke="black" points="792.72,-32.72 802.23,-28.06 791.89,-25.77 792.72,-32.72"/>
<text text-anchor="middle" x="598.39" y="-57.8" font-family="Times New Roman,serif" font-size="14.00">0.059</text>
</g>
<!-- 3 -->
<g id="node4" class="node">
<title>3</title>
<g id="a_node4"><a xlink:href="to_pharmacovigilance officer.svg" xlink:title="pharmacovigilance officer">
<ellipse fill="none" stroke="black" cx="464.89" cy="-105" rx="104.78" ry="18"/>
<text text-anchor="middle" x="464.89" y="-101.3" font-family="Times New Roman,serif" font-size="14.00">pharmacovigilance officer</text>
</a>
</g>
</g>
<!-- 3&#45;&gt;0 -->
<g id="edge4" class="edge">
<title>3&#45;&gt;0</title>
<path fill="none" stroke="black" d="M529.74,-90.72C605.22,-75.26 729.53,-49.8 807.94,-33.74"/>
<polygon fill="black" stroke="black" points="809.12,-37.07 818.21,-31.63 807.71,-30.21 809.12,-37.07"/>
<text text-anchor="middle" x="713.39" y="-57.8" font-family="Times New Roman,serif" font-size="14.00">0.039</text>
</g>
<!-- 4 -->
<g id="node5" class="node">
<title>4</title>
<g id="a_node5"><a xlink:href="to_it consultant.svg" xlink:title="it consultant">
<ellipse fill="none" stroke="black" cx="641.89" cy="-105" rx="54.69" ry="18"/>
<text text-anchor="middle" x="641.89" y="-101.3" font-family="Times New Roman,serif" font-size="14.00">it consultant</text>
</a>
</g>
</g>
<!-- 4&#45;&gt;0 -->
<g id="edge5" class="edge">
<title>4&#45;&gt;0</title>
<path fill="none" stroke="black" d="M677.52,-91.27C717.39,-77.04 782.35,-53.84 827.89,-37.57"/>
<polygon fill="black" stroke="black" points="829.34,-40.77 837.58,-34.11 826.99,-34.18 829.34,-40.77"/>
<text text-anchor="middle" x="791.39" y="-57.8" font-family="Times New Roman,serif" font-size="14.00">0.034</text>
</g>
<!-- 5 -->
<g id="node6" class="node">
<title>5</title>
<g id="a_node6"><a xlink:href="to_geographical information systems manager.svg" xlink:title="geographical information systems manager">
<ellipse fill="none" stroke="black" cx="879.89" cy="-105" rx="165.17" ry="18"/>
<text text-anchor="middle" x="879.89" y="-101.3" font-family="Times New Roman,serif" font-size="14.00">geographical information systems manager</text>
</a>
</g>
</g>
<!-- 5&#45;&gt;0 -->
<g id="edge6" class="edge">
<title>5&#45;&gt;0</title>
<path fill="none" stroke="black" d="M879.89,-86.8C879.89,-75.16 879.89,-59.55 879.89,-46.24"/>
<polygon fill="black" stroke="black" points="883.39,-46.18 879.89,-36.18 876.39,-46.18 883.39,-46.18"/>
<text text-anchor="middle" x="895.39" y="-57.8" font-family="Times New Roman,serif" font-size="14.00">0.024</text>
</g>
<!-- 6 -->
<g id="node7" class="node">
<title>6</title>
<g id="a_node7"><a xlink:href="to_lecturer.svg" xlink:title="lecturer">
<ellipse fill="none" stroke="black" cx="1100.89" cy="-105" rx="37.89" ry="18"/>
<text text-anchor="middle" x="1100.89" y="-101.3" font-family="Times New Roman,serif" font-size="14.00">lecturer</text>
</a>
</g>
</g>
<!-- 6&#45;&gt;0 -->
<g id="edge7" class="edge">
<title>6&#45;&gt;0</title>
<path fill="none" stroke="black" d="M1072.45,-93.06C1036.29,-79.15 973.25,-54.91 929.19,-37.96"/>
<polygon fill="black" stroke="black" points="930.4,-34.68 919.81,-34.35 927.89,-41.21 930.4,-34.68"/>
<text text-anchor="middle" x="1019.39" y="-57.8" font-family="Times New Roman,serif" font-size="14.00">0.024</text>
</g>
<!-- 7 -->
<g id="node8" class="node">
<title>7</title>
<g id="a_node8"><a xlink:href="to_sales manager.svg" xlink:title="sales manager">
<ellipse fill="none" stroke="black" cx="1217.89" cy="-105" rx="61.19" ry="18"/>
<text text-anchor="middle" x="1217.89" y="-101.3" font-family="Times New Roman,serif" font-size="14.00">sales manager</text>
</a>
</g>
</g>
<!-- 7&#45;&gt;0 -->
<g id="edge8" class="edge">
<title>7&#45;&gt;0</title>
<path fill="none" stroke="black" d="M1176.47,-91.72C1140.31,-81.17 1086.32,-65.83 1038.89,-54 1010.32,-46.87 978.66,-39.74 951.17,-33.8"/>
<polygon fill="black" stroke="black" points="951.75,-30.35 941.24,-31.67 950.28,-37.19 951.75,-30.35"/>
<text text-anchor="middle" x="1109.39" y="-57.8" font-family="Times New Roman,serif" font-size="14.00">0.024</text>
</g>
<!-- 8 -->
<g id="node9" class="node">
<title>8</title>
<g id="a_node9"><a xlink:href="to_facilities manager.svg" xlink:title="facilities manager">
<ellipse fill="none" stroke="black" cx="1369.89" cy="-105" rx="72.59" ry="18"/>
<text text-anchor="middle" x="1369.89" y="-101.3" font-family="Times New Roman,serif" font-size="14.00">facilities manager</text>
</a>
</g>
</g>
<!-- 8&#45;&gt;0 -->
<g id="edge9" class="edge">
<title>8&#45;&gt;0</title>
<path fill="none" stroke="black" d="M1317.9,-92.19C1269.21,-81.38 1194.36,-65.38 1128.89,-54 1075.09,-44.65 1014.41,-36.08 966.42,-29.76"/>
<polygon fill="black" stroke="black" points="966.75,-26.27 956.38,-28.44 965.84,-33.21 966.75,-26.27"/>
<text text-anchor="middle" x="1217.39" y="-57.8" font-family="Times New Roman,serif" font-size="14.00">0.019</text>
</g>
<!-- 9 -->
<g id="node10" class="node">
<title>9</title>
<g id="a_node10"><a xlink:href="to_civil service administrator.svg" xlink:title="civil service administrator">
<ellipse fill="none" stroke="black" cx="1562.89" cy="-105" rx="102.88" ry="18"/>
<text text-anchor="middle" x="1562.89" y="-101.3" font-family="Times New Roman,serif" font-size="14.00">civil service administrator</text>
</a>
</g>
</g>
<!-- 9&#45;&gt;0 -->
<g id="edge10" class="edge">
<title>9&#45;&gt;0</title>
<path fill="none" stroke="black" d="M1491.82,-91.96C1425.89,-81.06 1324.95,-65.06 1236.89,-54 1147.93,-42.82 1046.11,-33.15 974.04,-26.82"/>
<polygon fill="black" stroke="black" points="974.34,-23.33 964.07,-25.95 973.73,-30.31 974.34,-23.33"/>
<text text-anchor="middle" x="1359.39" y="-57.8" font-family="Times New Roman,serif" font-size="14.00">0.014</text>
</g>
</g>
</svg>
