<?xml version="1.0" encoding="UTF-8" standalone="no"?>
<!DOCTYPE svg PUBLIC "-//W3C//DTD SVG 1.1//EN"
 "http://www.w3.org/Graphics/SVG/1.1/DTD/svg11.dtd">
<!-- Generated by graphviz version 2.44.1 (20200629.0800)
 -->
<!-- Title: equality_and_diversity_officer Pages: 1 -->
<svg width="1733pt" height="131pt"
 viewBox="0.00 0.00 1732.94 131.00" xmlns="http://www.w3.org/2000/svg" xmlns:xlink="http://www.w3.org/1999/xlink">
<g id="graph0" class="graph" transform="scale(1 1) rotate(0) translate(4 127)">
<title>equality_and_diversity_officer</title>
<polygon fill="white" stroke="transparent" points="-4,4 -4,-127 1728.94,-127 1728.94,4 -4,4"/>
<!-- 0 -->
<g id="node1" class="node">
<title>0</title>
<g id="a_node1"><a xlink:href="to_political party agent.svg" xlink:title="political party agent">
<ellipse fill="none" stroke="black" cx="81.24" cy="-105" rx="81.49" ry="18"/>
<text text-anchor="middle" x="81.24" y="-101.3" font-family="Times New Roman,serif" font-size="14.00">political party agent</text>
</a>
</g>
</g>
<!-- 1 -->
<g id="node2" class="node">
<title>1</title>
<g id="a_node2"><a xlink:href="to_equality and diversity officer.svg" xlink:title="equality and diversity officer">
<ellipse fill="none" stroke="black" cx="954.24" cy="-18" rx="113.98" ry="18"/>
<text text-anchor="middle" x="954.24" y="-14.3" font-family="Times New Roman,serif" font-size="14.00">equality and diversity officer</text>
</a>
</g>
</g>
<!-- 0&#45;&gt;1 -->
<g id="edge1" class="edge">
<title>0&#45;&gt;1</title>
<path fill="none" stroke="black" d="M139.22,-92.32C149.85,-90.38 160.86,-88.52 171.24,-87 406.17,-52.65 683.47,-33.58 837.01,-24.89"/>
<polygon fill="black" stroke="black" points="837.61,-28.36 847.4,-24.3 837.22,-21.37 837.61,-28.36"/>
<text text-anchor="middle" x="459.24" y="-57.8" font-family="Times New Roman,serif" font-size="14.00">0.1</text>
</g>
<!-- 2 -->
<g id="node3" class="node">
<title>2</title>
<g id="a_node3"><a xlink:href="to_regulatory affairs officer.svg" xlink:title="regulatory affairs officer">
<ellipse fill="none" stroke="black" cx="278.24" cy="-105" rx="98.28" ry="18"/>
<text text-anchor="middle" x="278.24" y="-101.3" font-family="Times New Roman,serif" font-size="14.00">regulatory affairs officer</text>
</a>
</g>
</g>
<!-- 2&#45;&gt;1 -->
<g id="edge2" class="edge">
<title>2&#45;&gt;1</title>
<path fill="none" stroke="black" d="M349.29,-92.49C361.28,-90.61 373.61,-88.72 385.24,-87 492.63,-71.15 519.49,-67.11 627.24,-54 701.89,-44.92 786.28,-35.92 850.63,-29.32"/>
<polygon fill="black" stroke="black" points="851.19,-32.78 860.78,-28.28 850.48,-25.81 851.19,-32.78"/>
<text text-anchor="middle" x="636.24" y="-57.8" font-family="Times New Roman,serif" font-size="14.00">0.1</text>
</g>
<!-- 3 -->
<g id="node4" class="node">
<title>3</title>
<g id="a_node4"><a xlink:href="to_corporate banker.svg" xlink:title="corporate banker">
<ellipse fill="none" stroke="black" cx="467.24" cy="-105" rx="72.59" ry="18"/>
<text text-anchor="middle" x="467.24" y="-101.3" font-family="Times New Roman,serif" font-size="14.00">corporate banker</text>
</a>
</g>
</g>
<!-- 3&#45;&gt;1 -->
<g id="edge3" class="edge">
<title>3&#45;&gt;1</title>
<path fill="none" stroke="black" d="M520.34,-92.53C529.63,-90.62 539.21,-88.7 548.24,-87 657.29,-66.43 783.42,-45.8 865.79,-32.75"/>
<polygon fill="black" stroke="black" points="866.53,-36.17 875.86,-31.15 865.44,-29.26 866.53,-36.17"/>
<text text-anchor="middle" x="738.74" y="-57.8" font-family="Times New Roman,serif" font-size="14.00">0.05</text>
</g>
<!-- 4 -->
<g id="node5" class="node">
<title>4</title>
<g id="a_node5"><a xlink:href="to_environmental manager.svg" xlink:title="environmental manager">
<ellipse fill="none" stroke="black" cx="651.24" cy="-105" rx="93.68" ry="18"/>
<text text-anchor="middle" x="651.24" y="-101.3" font-family="Times New Roman,serif" font-size="14.00">environmental manager</text>
</a>
</g>
</g>
<!-- 4&#45;&gt;1 -->
<g id="edge4" class="edge">
<title>4&#45;&gt;1</title>
<path fill="none" stroke="black" d="M701.96,-89.77C754.01,-75.17 835.1,-52.42 891.24,-36.67"/>
<polygon fill="black" stroke="black" points="892.38,-39.99 901.07,-33.92 890.49,-33.25 892.38,-39.99"/>
<text text-anchor="middle" x="833.74" y="-57.8" font-family="Times New Roman,serif" font-size="14.00">0.05</text>
</g>
<!-- 5 -->
<g id="node6" class="node">
<title>5</title>
<g id="a_node6"><a xlink:href="to_health and safety adviser.svg" xlink:title="health and safety adviser">
<ellipse fill="none" stroke="black" cx="862.24" cy="-105" rx="99.38" ry="18"/>
<text text-anchor="middle" x="862.24" y="-101.3" font-family="Times New Roman,serif" font-size="14.00">health and safety adviser</text>
</a>
</g>
</g>
<!-- 5&#45;&gt;1 -->
<g id="edge5" class="edge">
<title>5&#45;&gt;1</title>
<path fill="none" stroke="black" d="M880.42,-87.21C894.06,-74.6 912.94,-57.16 928.19,-43.07"/>
<polygon fill="black" stroke="black" points="930.82,-45.41 935.79,-36.05 926.07,-40.26 930.82,-45.41"/>
<text text-anchor="middle" x="926.74" y="-57.8" font-family="Times New Roman,serif" font-size="14.00">0.05</text>
</g>
<!-- 6 -->
<g id="node7" class="node">
<title>6</title>
<g id="a_node7"><a xlink:href="to_housing adviser.svg" xlink:title="housing adviser">
<ellipse fill="none" stroke="black" cx="1047.24" cy="-105" rx="67.69" ry="18"/>
<text text-anchor="middle" x="1047.24" y="-101.3" font-family="Times New Roman,serif" font-size="14.00">housing adviser</text>
</a>
</g>
</g>
<!-- 6&#45;&gt;1 -->
<g id="edge6" class="edge">
<title>6&#45;&gt;1</title>
<path fill="none" stroke="black" d="M1029.31,-87.61C1015.47,-74.96 996.11,-57.26 980.52,-43.01"/>
<polygon fill="black" stroke="black" points="982.5,-40.08 972.76,-35.92 977.78,-45.25 982.5,-40.08"/>
<text text-anchor="middle" x="1019.74" y="-57.8" font-family="Times New Roman,serif" font-size="14.00">0.05</text>
</g>
<!-- 7 -->
<g id="node8" class="node">
<title>7</title>
<g id="a_node8"><a xlink:href="to_investment analyst.svg" xlink:title="investment analyst">
<ellipse fill="none" stroke="black" cx="1209.24" cy="-105" rx="76.89" ry="18"/>
<text text-anchor="middle" x="1209.24" y="-101.3" font-family="Times New Roman,serif" font-size="14.00">investment analyst</text>
</a>
</g>
</g>
<!-- 7&#45;&gt;1 -->
<g id="edge7" class="edge">
<title>7&#45;&gt;1</title>
<path fill="none" stroke="black" d="M1166.85,-89.87C1124.01,-75.59 1057.58,-53.45 1010.39,-37.72"/>
<polygon fill="black" stroke="black" points="1011.22,-34.3 1000.63,-34.46 1009.01,-40.94 1011.22,-34.3"/>
<text text-anchor="middle" x="1109.74" y="-57.8" font-family="Times New Roman,serif" font-size="14.00">0.05</text>
</g>
<!-- 8 -->
<g id="node9" class="node">
<title>8</title>
<g id="a_node9"><a xlink:href="to_investment fund manager.svg" xlink:title="investment fund manager">
<ellipse fill="none" stroke="black" cx="1404.24" cy="-105" rx="100.98" ry="18"/>
<text text-anchor="middle" x="1404.24" y="-101.3" font-family="Times New Roman,serif" font-size="14.00">investment fund manager</text>
</a>
</g>
</g>
<!-- 8&#45;&gt;1 -->
<g id="edge8" class="edge">
<title>8&#45;&gt;1</title>
<path fill="none" stroke="black" d="M1337.84,-91.46C1257.06,-76.2 1120.79,-50.46 1034.28,-34.12"/>
<polygon fill="black" stroke="black" points="1034.73,-30.64 1024.25,-32.22 1033.43,-37.52 1034.73,-30.64"/>
<text text-anchor="middle" x="1218.74" y="-57.8" font-family="Times New Roman,serif" font-size="14.00">0.05</text>
</g>
<!-- 9 -->
<g id="node10" class="node">
<title>9</title>
<g id="a_node10"><a xlink:href="to_it consultant.svg" xlink:title="it consultant">
<ellipse fill="none" stroke="black" cx="1577.24" cy="-105" rx="54.69" ry="18"/>
<text text-anchor="middle" x="1577.24" y="-101.3" font-family="Times New Roman,serif" font-size="14.00">it consultant</text>
</a>
</g>
</g>
<!-- 9&#45;&gt;1 -->
<g id="edge9" class="edge">
<title>9&#45;&gt;1</title>
<path fill="none" stroke="black" d="M1537.79,-92.43C1530.03,-90.42 1521.92,-88.49 1514.24,-87 1359.22,-56.83 1177.3,-37.69 1063.87,-27.65"/>
<polygon fill="black" stroke="black" points="1064.06,-24.15 1053.79,-26.77 1063.45,-31.13 1064.06,-24.15"/>
<text text-anchor="middle" x="1419.74" y="-57.8" font-family="Times New Roman,serif" font-size="14.00">0.05</text>
</g>
<!-- 10 -->
<g id="node11" class="node">
<title>10</title>
<g id="a_node11"><a xlink:href="to_lecturer.svg" xlink:title="lecturer">
<ellipse fill="none" stroke="black" cx="1687.24" cy="-105" rx="37.89" ry="18"/>
<text text-anchor="middle" x="1687.24" y="-101.3" font-family="Times New Roman,serif" font-size="14.00">lecturer</text>
</a>
</g>
</g>
<!-- 10&#45;&gt;1 -->
<g id="edge10" class="edge">
<title>10&#45;&gt;1</title>
<path fill="none" stroke="black" d="M1659.3,-92.69C1653.4,-90.58 1647.17,-88.56 1641.24,-87 1551.98,-63.56 1527.91,-64.69 1436.24,-54 1312.29,-39.55 1169.67,-30.08 1071.91,-24.67"/>
<polygon fill="black" stroke="black" points="1071.88,-21.17 1061.7,-24.12 1071.49,-28.16 1071.88,-21.17"/>
<text text-anchor="middle" x="1572.74" y="-57.8" font-family="Times New Roman,serif" font-size="14.00">0.05</text>
</g>
</g>
</svg>
