<?xml version="1.0" encoding="UTF-8" standalone="no"?>
<!DOCTYPE svg PUBLIC "-//W3C//DTD SVG 1.1//EN"
 "http://www.w3.org/Graphics/SVG/1.1/DTD/svg11.dtd">
<!-- Generated by graphviz version 2.44.1 (20200629.0800)
 -->
<!-- Title: environmental_manager Pages: 1 -->
<svg width="1674pt" height="131pt"
 viewBox="0.00 0.00 1673.58 131.00" xmlns="http://www.w3.org/2000/svg" xmlns:xlink="http://www.w3.org/1999/xlink">
<g id="graph0" class="graph" transform="scale(1 1) rotate(0) translate(4 127)">
<title>environmental_manager</title>
<polygon fill="white" stroke="transparent" points="-4,4 -4,-127 1669.58,-127 1669.58,4 -4,4"/>
<!-- 0 -->
<g id="node1" class="node">
<title>0</title>
<g id="a_node1"><a xlink:href="to_environmental manager.svg" xlink:title="environmental manager">
<ellipse fill="none" stroke="black" cx="990.89" cy="-18" rx="93.68" ry="18"/>
<text text-anchor="middle" x="990.89" y="-14.3" font-family="Times New Roman,serif" font-size="14.00">environmental manager</text>
</a>
</g>
</g>
<!-- 0&#45;&gt;0 -->
<g id="edge1" class="edge">
<title>0&#45;&gt;0</title>
<path fill="none" stroke="black" d="M1076.51,-25.41C1091.8,-24.45 1102.49,-21.98 1102.49,-18 1102.49,-14.99 1096.35,-12.84 1086.73,-11.55"/>
<polygon fill="black" stroke="black" points="1086.8,-8.04 1076.51,-10.59 1086.14,-15.01 1086.8,-8.04"/>
<text text-anchor="middle" x="1117.99" y="-14.3" font-family="Times New Roman,serif" font-size="14.00">0.200</text>
</g>
<!-- 1 -->
<g id="node2" class="node">
<title>1</title>
<g id="a_node2"><a xlink:href="to_project manager.svg" xlink:title="project manager">
<ellipse fill="none" stroke="black" cx="68.89" cy="-105" rx="68.79" ry="18"/>
<text text-anchor="middle" x="68.89" y="-101.3" font-family="Times New Roman,serif" font-size="14.00">project manager</text>
</a>
</g>
</g>
<!-- 1&#45;&gt;0 -->
<g id="edge2" class="edge">
<title>1&#45;&gt;0</title>
<path fill="none" stroke="black" d="M118.25,-92.35C127.72,-90.37 137.59,-88.48 146.89,-87 412.55,-44.79 729.64,-28.18 888.91,-22.14"/>
<polygon fill="black" stroke="black" points="889.31,-25.63 899.17,-21.76 889.05,-18.63 889.31,-25.63"/>
<text text-anchor="middle" x="416.39" y="-57.8" font-family="Times New Roman,serif" font-size="14.00">0.093</text>
</g>
<!-- 2 -->
<g id="node3" class="node">
<title>2</title>
<g id="a_node3"><a xlink:href="to_environmental scientist.svg" xlink:title="environmental scientist">
<ellipse fill="none" stroke="black" cx="248.89" cy="-105" rx="92.88" ry="18"/>
<text text-anchor="middle" x="248.89" y="-101.3" font-family="Times New Roman,serif" font-size="14.00">environmental scientist</text>
</a>
</g>
</g>
<!-- 2&#45;&gt;0 -->
<g id="edge3" class="edge">
<title>2&#45;&gt;0</title>
<path fill="none" stroke="black" d="M315.2,-92.36C327.07,-90.45 339.33,-88.58 350.89,-87 544.59,-60.59 772.46,-38.52 897.32,-27.19"/>
<polygon fill="black" stroke="black" points="897.96,-30.65 907.6,-26.26 897.33,-23.68 897.96,-30.65"/>
<text text-anchor="middle" x="630.39" y="-57.8" font-family="Times New Roman,serif" font-size="14.00">0.058</text>
</g>
<!-- 3 -->
<g id="node4" class="node">
<title>3</title>
<g id="a_node4"><a xlink:href="to_pharmacovigilance officer.svg" xlink:title="pharmacovigilance officer">
<ellipse fill="none" stroke="black" cx="464.89" cy="-105" rx="104.78" ry="18"/>
<text text-anchor="middle" x="464.89" y="-101.3" font-family="Times New Roman,serif" font-size="14.00">pharmacovigilance officer</text>
</a>
</g>
</g>
<!-- 3&#45;&gt;0 -->
<g id="edge4" class="edge">
<title>3&#45;&gt;0</title>
<path fill="none" stroke="black" d="M538.31,-92.14C636.64,-76.25 810.42,-48.16 911.64,-31.81"/>
<polygon fill="black" stroke="black" points="912.49,-35.22 921.8,-30.16 911.37,-28.3 912.49,-35.22"/>
<text text-anchor="middle" x="775.39" y="-57.8" font-family="Times New Roman,serif" font-size="14.00">0.039</text>
</g>
<!-- 4 -->
<g id="node5" class="node">
<title>4</title>
<g id="a_node5"><a xlink:href="to_geographical information systems manager.svg" xlink:title="geographical information systems manager">
<ellipse fill="none" stroke="black" cx="752.89" cy="-105" rx="165.17" ry="18"/>
<text text-anchor="middle" x="752.89" y="-101.3" font-family="Times New Roman,serif" font-size="14.00">geographical information systems manager</text>
</a>
</g>
</g>
<!-- 4&#45;&gt;0 -->
<g id="edge5" class="edge">
<title>4&#45;&gt;0</title>
<path fill="none" stroke="black" d="M798.78,-87.61C838.88,-73.29 897.07,-52.51 938.89,-37.57"/>
<polygon fill="black" stroke="black" points="940.1,-40.86 948.34,-34.2 937.75,-34.26 940.1,-40.86"/>
<text text-anchor="middle" x="902.39" y="-57.8" font-family="Times New Roman,serif" font-size="14.00">0.024</text>
</g>
<!-- 5 -->
<g id="node6" class="node">
<title>5</title>
<g id="a_node6"><a xlink:href="to_it consultant.svg" xlink:title="it consultant">
<ellipse fill="none" stroke="black" cx="990.89" cy="-105" rx="54.69" ry="18"/>
<text text-anchor="middle" x="990.89" y="-101.3" font-family="Times New Roman,serif" font-size="14.00">it consultant</text>
</a>
</g>
</g>
<!-- 5&#45;&gt;0 -->
<g id="edge6" class="edge">
<title>5&#45;&gt;0</title>
<path fill="none" stroke="black" d="M990.89,-86.8C990.89,-75.16 990.89,-59.55 990.89,-46.24"/>
<polygon fill="black" stroke="black" points="994.39,-46.18 990.89,-36.18 987.39,-46.18 994.39,-46.18"/>
<text text-anchor="middle" x="1006.39" y="-57.8" font-family="Times New Roman,serif" font-size="14.00">0.024</text>
</g>
<!-- 6 -->
<g id="node7" class="node">
<title>6</title>
<g id="a_node7"><a xlink:href="to_lecturer.svg" xlink:title="lecturer">
<ellipse fill="none" stroke="black" cx="1100.89" cy="-105" rx="37.89" ry="18"/>
<text text-anchor="middle" x="1100.89" y="-101.3" font-family="Times New Roman,serif" font-size="14.00">lecturer</text>
</a>
</g>
</g>
<!-- 6&#45;&gt;0 -->
<g id="edge7" class="edge">
<title>6&#45;&gt;0</title>
<path fill="none" stroke="black" d="M1081.73,-89.19C1064.82,-76.13 1039.9,-56.87 1020.44,-41.83"/>
<polygon fill="black" stroke="black" points="1022.52,-39.02 1012.47,-35.67 1018.24,-44.56 1022.52,-39.02"/>
<text text-anchor="middle" x="1068.39" y="-57.8" font-family="Times New Roman,serif" font-size="14.00">0.024</text>
</g>
<!-- 7 -->
<g id="node8" class="node">
<title>7</title>
<g id="a_node8"><a xlink:href="to_sales manager.svg" xlink:title="sales manager">
<ellipse fill="none" stroke="black" cx="1217.89" cy="-105" rx="61.19" ry="18"/>
<text text-anchor="middle" x="1217.89" y="-101.3" font-family="Times New Roman,serif" font-size="14.00">sales manager</text>
</a>
</g>
</g>
<!-- 7&#45;&gt;0 -->
<g id="edge8" class="edge">
<title>7&#45;&gt;0</title>
<path fill="none" stroke="black" d="M1182.66,-90.22C1156.55,-80.06 1120.07,-65.99 1087.89,-54 1073.45,-48.62 1057.74,-42.89 1043.26,-37.67"/>
<polygon fill="black" stroke="black" points="1044.05,-34.23 1033.46,-34.14 1041.68,-40.82 1044.05,-34.23"/>
<text text-anchor="middle" x="1143.39" y="-57.8" font-family="Times New Roman,serif" font-size="14.00">0.024</text>
</g>
<!-- 8 -->
<g id="node9" class="node">
<title>8</title>
<g id="a_node9"><a xlink:href="to_facilities manager.svg" xlink:title="facilities manager">
<ellipse fill="none" stroke="black" cx="1369.89" cy="-105" rx="72.59" ry="18"/>
<text text-anchor="middle" x="1369.89" y="-101.3" font-family="Times New Roman,serif" font-size="14.00">facilities manager</text>
</a>
</g>
</g>
<!-- 8&#45;&gt;0 -->
<g id="edge9" class="edge">
<title>8&#45;&gt;0</title>
<path fill="none" stroke="black" d="M1320.66,-91.58C1278.79,-81.14 1217.03,-66.04 1162.89,-54 1130.69,-46.84 1094.96,-39.47 1064.45,-33.36"/>
<polygon fill="black" stroke="black" points="1064.81,-29.86 1054.32,-31.34 1063.44,-36.73 1064.81,-29.86"/>
<text text-anchor="middle" x="1240.39" y="-57.8" font-family="Times New Roman,serif" font-size="14.00">0.019</text>
</g>
<!-- 9 -->
<g id="node10" class="node">
<title>9</title>
<g id="a_node10"><a xlink:href="to_civil service administrator.svg" xlink:title="civil service administrator">
<ellipse fill="none" stroke="black" cx="1562.89" cy="-105" rx="102.88" ry="18"/>
<text text-anchor="middle" x="1562.89" y="-101.3" font-family="Times New Roman,serif" font-size="14.00">civil service administrator</text>
</a>
</g>
</g>
<!-- 9&#45;&gt;0 -->
<g id="edge10" class="edge">
<title>9&#45;&gt;0</title>
<path fill="none" stroke="black" d="M1492.9,-91.75C1431.55,-81.19 1339.93,-65.81 1259.89,-54 1199.16,-45.04 1130.54,-36.13 1077.8,-29.54"/>
<polygon fill="black" stroke="black" points="1078.16,-26.06 1067.81,-28.3 1077.3,-33.01 1078.16,-26.06"/>
<text text-anchor="middle" x="1366.39" y="-57.8" font-family="Times New Roman,serif" font-size="14.00">0.014</text>
</g>
</g>
</svg>
