<?xml version="1.0" encoding="UTF-8" standalone="no"?>
<!DOCTYPE svg PUBLIC "-//W3C//DTD SVG 1.1//EN"
 "http://www.w3.org/Graphics/SVG/1.1/DTD/svg11.dtd">
<!-- Generated by graphviz version 2.44.1 (20200629.0800)
 -->
<!-- Title: test Pages: 1 -->
<svg width="1893pt" height="131pt"
 viewBox="0.00 0.00 1892.54 131.00" xmlns="http://www.w3.org/2000/svg" xmlns:xlink="http://www.w3.org/1999/xlink">
<g id="graph0" class="graph" transform="scale(1 1) rotate(0) translate(4 127)">
<title>test</title>
<polygon fill="white" stroke="transparent" points="-4,4 -4,-127 1888.54,-127 1888.54,4 -4,4"/>
<!-- 0 -->
<g id="node1" class="node">
<title>0</title>
<g id="a_node1"><a xlink:href="to_environmental health officer.svg" xlink:title="environmental health officer">
<ellipse fill="none" stroke="black" cx="847.89" cy="-18" rx="110.48" ry="18"/>
<text text-anchor="middle" x="847.89" y="-14.3" font-family="Times New Roman,serif" font-size="14.00">environmental health officer</text>
</a>
</g>
</g>
<!-- 0&#45;&gt;0 -->
<g id="edge1" class="edge">
<title>0&#45;&gt;0</title>
<path fill="none" stroke="black" d="M949.16,-25.25C965.32,-24.19 976.38,-21.77 976.38,-18 976.38,-15.08 969.77,-12.97 959.29,-11.68"/>
<polygon fill="black" stroke="black" points="959.44,-8.18 949.16,-10.75 958.8,-15.15 959.44,-8.18"/>
<text text-anchor="middle" x="991.88" y="-14.3" font-family="Times New Roman,serif" font-size="14.00">0.219</text>
</g>
<!-- 1 -->
<g id="node2" class="node">
<title>1</title>
<g id="a_node2"><a xlink:href="to_project manager.svg" xlink:title="project manager">
<ellipse fill="none" stroke="black" cx="68.89" cy="-105" rx="68.79" ry="18"/>
<text text-anchor="middle" x="68.89" y="-101.3" font-family="Times New Roman,serif" font-size="14.00">project manager</text>
</a>
</g>
</g>
<!-- 1&#45;&gt;0 -->
<g id="edge2" class="edge">
<title>1&#45;&gt;0</title>
<path fill="none" stroke="black" d="M118.26,-92.44C127.73,-90.45 137.6,-88.53 146.89,-87 352.86,-53.01 595.89,-34.11 734.93,-25.29"/>
<polygon fill="black" stroke="black" points="735.41,-28.77 745.17,-24.65 734.97,-21.78 735.41,-28.77"/>
<text text-anchor="middle" x="393.39" y="-57.8" font-family="Times New Roman,serif" font-size="14.00">0.068</text>
</g>
<!-- 2 -->
<g id="node3" class="node">
<title>2</title>
<g id="a_node3"><a xlink:href="to_health and safety adviser.svg" xlink:title="health and safety adviser">
<ellipse fill="none" stroke="black" cx="254.89" cy="-105" rx="99.38" ry="18"/>
<text text-anchor="middle" x="254.89" y="-101.3" font-family="Times New Roman,serif" font-size="14.00">health and safety adviser</text>
</a>
</g>
</g>
<!-- 2&#45;&gt;0 -->
<g id="edge3" class="edge">
<title>2&#45;&gt;0</title>
<path fill="none" stroke="black" d="M324.94,-92.16C388.51,-81.59 484.87,-65.96 568.89,-54 629.28,-45.41 697.18,-36.86 750.88,-30.37"/>
<polygon fill="black" stroke="black" points="751.57,-33.81 761.08,-29.14 750.73,-26.86 751.57,-33.81"/>
<text text-anchor="middle" x="584.39" y="-57.8" font-family="Times New Roman,serif" font-size="14.00">0.054</text>
</g>
<!-- 3 -->
<g id="node4" class="node">
<title>3</title>
<g id="a_node4"><a xlink:href="to_careers adviser.svg" xlink:title="careers adviser">
<ellipse fill="none" stroke="black" cx="436.89" cy="-105" rx="64.99" ry="18"/>
<text text-anchor="middle" x="436.89" y="-101.3" font-family="Times New Roman,serif" font-size="14.00">careers adviser</text>
</a>
</g>
</g>
<!-- 3&#45;&gt;0 -->
<g id="edge4" class="edge">
<title>3&#45;&gt;0</title>
<path fill="none" stroke="black" d="M485.02,-92.75C493.63,-90.79 502.52,-88.81 510.89,-87 599.45,-67.9 701.47,-47.54 769.85,-34.13"/>
<polygon fill="black" stroke="black" points="770.55,-37.56 779.69,-32.21 769.2,-30.69 770.55,-37.56"/>
<text text-anchor="middle" x="683.39" y="-57.8" font-family="Times New Roman,serif" font-size="14.00">0.041</text>
</g>
<!-- 4 -->
<g id="node5" class="node">
<title>4</title>
<g id="a_node5"><a xlink:href="to_civil service administrator.svg" xlink:title="civil service administrator">
<ellipse fill="none" stroke="black" cx="622.89" cy="-105" rx="102.88" ry="18"/>
<text text-anchor="middle" x="622.89" y="-101.3" font-family="Times New Roman,serif" font-size="14.00">civil service administrator</text>
</a>
</g>
</g>
<!-- 4&#45;&gt;0 -->
<g id="edge5" class="edge">
<title>4&#45;&gt;0</title>
<path fill="none" stroke="black" d="M664.16,-88.41C701.43,-74.33 756.42,-53.56 796.53,-38.41"/>
<polygon fill="black" stroke="black" points="798.01,-41.59 806.13,-34.78 795.53,-35.04 798.01,-41.59"/>
<text text-anchor="middle" x="764.39" y="-57.8" font-family="Times New Roman,serif" font-size="14.00">0.041</text>
</g>
<!-- 5 -->
<g id="node6" class="node">
<title>5</title>
<g id="a_node6"><a xlink:href="to_pharmacovigilance officer.svg" xlink:title="pharmacovigilance officer">
<ellipse fill="none" stroke="black" cx="847.89" cy="-105" rx="104.78" ry="18"/>
<text text-anchor="middle" x="847.89" y="-101.3" font-family="Times New Roman,serif" font-size="14.00">pharmacovigilance officer</text>
</a>
</g>
</g>
<!-- 5&#45;&gt;0 -->
<g id="edge6" class="edge">
<title>5&#45;&gt;0</title>
<path fill="none" stroke="black" d="M847.89,-86.8C847.89,-75.16 847.89,-59.55 847.89,-46.24"/>
<polygon fill="black" stroke="black" points="851.39,-46.18 847.89,-36.18 844.39,-46.18 851.39,-46.18"/>
<text text-anchor="middle" x="863.39" y="-57.8" font-family="Times New Roman,serif" font-size="14.00">0.041</text>
</g>
<!-- 6 -->
<g id="node7" class="node">
<title>6</title>
<g id="a_node7"><a xlink:href="to_biomedical scientist.svg" xlink:title="biomedical scientist">
<ellipse fill="none" stroke="black" cx="1052.89" cy="-105" rx="81.79" ry="18"/>
<text text-anchor="middle" x="1052.89" y="-101.3" font-family="Times New Roman,serif" font-size="14.00">biomedical scientist</text>
</a>
</g>
</g>
<!-- 6&#45;&gt;0 -->
<g id="edge7" class="edge">
<title>6&#45;&gt;0</title>
<path fill="none" stroke="black" d="M1016.24,-88.8C982.63,-74.86 932.62,-54.13 895.84,-38.88"/>
<polygon fill="black" stroke="black" points="896.89,-35.53 886.31,-34.93 894.21,-41.99 896.89,-35.53"/>
<text text-anchor="middle" x="978.39" y="-57.8" font-family="Times New Roman,serif" font-size="14.00">0.027</text>
</g>
<!-- 7 -->
<g id="node8" class="node">
<title>7</title>
<g id="a_node8"><a xlink:href="to_fitness centre manager.svg" xlink:title="fitness centre manager">
<ellipse fill="none" stroke="black" cx="1243.89" cy="-105" rx="90.98" ry="18"/>
<text text-anchor="middle" x="1243.89" y="-101.3" font-family="Times New Roman,serif" font-size="14.00">fitness centre manager</text>
</a>
</g>
</g>
<!-- 7&#45;&gt;0 -->
<g id="edge8" class="edge">
<title>7&#45;&gt;0</title>
<path fill="none" stroke="black" d="M1184.61,-91.27C1114.5,-76.23 997.78,-51.17 921.83,-34.87"/>
<polygon fill="black" stroke="black" points="922.37,-31.41 911.86,-32.73 920.9,-38.25 922.37,-31.41"/>
<text text-anchor="middle" x="1085.39" y="-57.8" font-family="Times New Roman,serif" font-size="14.00">0.027</text>
</g>
<!-- 8 -->
<g id="node9" class="node">
<title>8</title>
<g id="a_node9"><a xlink:href="to_geographical information systems manager.svg" xlink:title="geographical information systems manager">
<ellipse fill="none" stroke="black" cx="1517.89" cy="-105" rx="165.17" ry="18"/>
<text text-anchor="middle" x="1517.89" y="-101.3" font-family="Times New Roman,serif" font-size="14.00">geographical information systems manager</text>
</a>
</g>
</g>
<!-- 8&#45;&gt;0 -->
<g id="edge9" class="edge">
<title>8&#45;&gt;0</title>
<path fill="none" stroke="black" d="M1414.67,-90.91C1285.79,-74.55 1067.11,-46.81 942.42,-30.99"/>
<polygon fill="black" stroke="black" points="942.49,-27.47 932.13,-29.69 941.61,-34.42 942.49,-27.47"/>
<text text-anchor="middle" x="1239.39" y="-57.8" font-family="Times New Roman,serif" font-size="14.00">0.027</text>
</g>
<!-- 9 -->
<g id="node10" class="node">
<title>9</title>
<g id="a_node10"><a xlink:href="to_programme researcher.svg" xlink:title="programme researcher">
<ellipse fill="none" stroke="black" cx="1792.89" cy="-105" rx="91.78" ry="18"/>
<text text-anchor="middle" x="1792.89" y="-101.3" font-family="Times New Roman,serif" font-size="14.00">programme researcher</text>
</a>
</g>
</g>
<!-- 9&#45;&gt;0 -->
<g id="edge10" class="edge">
<title>9&#45;&gt;0</title>
<path fill="none" stroke="black" d="M1728.09,-92.24C1716.08,-90.3 1703.63,-88.46 1691.89,-87 1431.3,-54.63 1123.43,-34.33 961.15,-25.01"/>
<polygon fill="black" stroke="black" points="961.33,-21.51 951.15,-24.44 960.93,-28.5 961.33,-21.51"/>
<text text-anchor="middle" x="1545.39" y="-57.8" font-family="Times New Roman,serif" font-size="14.00">0.027</text>
</g>
</g>
</svg>
