<?xml version="1.0" encoding="UTF-8" standalone="no"?>
<!DOCTYPE svg PUBLIC "-//W3C//DTD SVG 1.1//EN"
 "http://www.w3.org/Graphics/SVG/1.1/DTD/svg11.dtd">
<!-- Generated by graphviz version 2.44.1 (20200629.0800)
 -->
<!-- Title: engineering_geologist Pages: 1 -->
<svg width="1419pt" height="131pt"
 viewBox="0.00 0.00 1419.09 131.00" xmlns="http://www.w3.org/2000/svg" xmlns:xlink="http://www.w3.org/1999/xlink">
<g id="graph0" class="graph" transform="scale(1 1) rotate(0) translate(4 127)">
<title>engineering_geologist</title>
<polygon fill="white" stroke="transparent" points="-4,4 -4,-127 1415.09,-127 1415.09,4 -4,4"/>
<!-- 0 -->
<g id="node1" class="node">
<title>0</title>
<g id="a_node1"><a xlink:href="to_engineering geologist.svg" xlink:title="engineering geologist">
<ellipse fill="none" stroke="black" cx="746.69" cy="-18" rx="86.38" ry="18"/>
<text text-anchor="middle" x="746.69" y="-14.3" font-family="Times New Roman,serif" font-size="14.00">engineering geologist</text>
</a>
</g>
</g>
<!-- 0&#45;&gt;0 -->
<g id="edge1" class="edge">
<title>0&#45;&gt;0</title>
<path fill="none" stroke="black" d="M825.49,-25.5C840.51,-24.6 851.14,-22.1 851.14,-18 851.14,-14.89 845.03,-12.7 835.54,-11.44"/>
<polygon fill="black" stroke="black" points="835.77,-7.94 825.49,-10.5 835.12,-14.91 835.77,-7.94"/>
<text text-anchor="middle" x="866.64" y="-14.3" font-family="Times New Roman,serif" font-size="14.00">0.423</text>
</g>
<!-- 1 -->
<g id="node2" class="node">
<title>1</title>
<g id="a_node2"><a xlink:href="to_structural engineer.svg" xlink:title="structural engineer">
<ellipse fill="none" stroke="black" cx="76.69" cy="-105" rx="76.89" ry="18"/>
<text text-anchor="middle" x="76.69" y="-101.3" font-family="Times New Roman,serif" font-size="14.00">structural engineer</text>
</a>
</g>
</g>
<!-- 1&#45;&gt;0 -->
<g id="edge2" class="edge">
<title>1&#45;&gt;0</title>
<path fill="none" stroke="black" d="M132.11,-92.51C142.27,-90.56 152.78,-88.63 162.69,-87 337.44,-58.18 543.59,-37.19 658.3,-26.65"/>
<polygon fill="black" stroke="black" points="658.79,-30.12 668.43,-25.73 658.15,-23.15 658.79,-30.12"/>
<text text-anchor="middle" x="402.19" y="-57.8" font-family="Times New Roman,serif" font-size="14.00">0.076</text>
</g>
<!-- 2 -->
<g id="node3" class="node">
<title>2</title>
<g id="a_node3"><a xlink:href="to_exploration geologist.svg" xlink:title="exploration geologist">
<ellipse fill="none" stroke="black" cx="257.69" cy="-105" rx="86.38" ry="18"/>
<text text-anchor="middle" x="257.69" y="-101.3" font-family="Times New Roman,serif" font-size="14.00">exploration geologist</text>
</a>
</g>
</g>
<!-- 2&#45;&gt;0 -->
<g id="edge3" class="edge">
<title>2&#45;&gt;0</title>
<path fill="none" stroke="black" d="M318.97,-92.27C373.85,-81.87 456.56,-66.44 528.69,-54 575.28,-45.96 627.58,-37.55 669.27,-30.98"/>
<polygon fill="black" stroke="black" points="670.02,-34.41 679.36,-29.4 668.93,-27.49 670.02,-34.41"/>
<text text-anchor="middle" x="544.19" y="-57.8" font-family="Times New Roman,serif" font-size="14.00">0.051</text>
</g>
<!-- 3 -->
<g id="node4" class="node">
<title>3</title>
<g id="a_node4"><a xlink:href="to_civil engineer.svg" xlink:title="civil engineer">
<ellipse fill="none" stroke="black" cx="419.69" cy="-105" rx="57.69" ry="18"/>
<text text-anchor="middle" x="419.69" y="-101.3" font-family="Times New Roman,serif" font-size="14.00">civil engineer</text>
</a>
</g>
</g>
<!-- 3&#45;&gt;0 -->
<g id="edge4" class="edge">
<title>3&#45;&gt;0</title>
<path fill="none" stroke="black" d="M462.78,-92.8C519.69,-78.01 620.28,-51.86 685.18,-34.99"/>
<polygon fill="black" stroke="black" points="686.08,-38.37 694.88,-32.47 684.32,-31.6 686.08,-38.37"/>
<text text-anchor="middle" x="619.19" y="-57.8" font-family="Times New Roman,serif" font-size="14.00">0.038</text>
</g>
<!-- 4 -->
<g id="node5" class="node">
<title>4</title>
<g id="a_node5"><a xlink:href="to_mechanical engineer.svg" xlink:title="mechanical engineer">
<ellipse fill="none" stroke="black" cx="578.69" cy="-105" rx="83.39" ry="18"/>
<text text-anchor="middle" x="578.69" y="-101.3" font-family="Times New Roman,serif" font-size="14.00">mechanical engineer</text>
</a>
</g>
</g>
<!-- 4&#45;&gt;0 -->
<g id="edge5" class="edge">
<title>4&#45;&gt;0</title>
<path fill="none" stroke="black" d="M609.9,-88.21C637.04,-74.48 676.55,-54.49 706.14,-39.52"/>
<polygon fill="black" stroke="black" points="708.03,-42.49 715.37,-34.85 704.87,-36.24 708.03,-42.49"/>
<text text-anchor="middle" x="689.19" y="-57.8" font-family="Times New Roman,serif" font-size="14.00">0.038</text>
</g>
<!-- 5 -->
<g id="node6" class="node">
<title>5</title>
<g id="a_node6"><a xlink:href="to_mining engineer.svg" xlink:title="mining engineer">
<ellipse fill="none" stroke="black" cx="746.69" cy="-105" rx="66.89" ry="18"/>
<text text-anchor="middle" x="746.69" y="-101.3" font-family="Times New Roman,serif" font-size="14.00">mining engineer</text>
</a>
</g>
</g>
<!-- 5&#45;&gt;0 -->
<g id="edge6" class="edge">
<title>5&#45;&gt;0</title>
<path fill="none" stroke="black" d="M746.69,-86.8C746.69,-75.16 746.69,-59.55 746.69,-46.24"/>
<polygon fill="black" stroke="black" points="750.19,-46.18 746.69,-36.18 743.19,-46.18 750.19,-46.18"/>
<text text-anchor="middle" x="762.19" y="-57.8" font-family="Times New Roman,serif" font-size="14.00">0.038</text>
</g>
<!-- 6 -->
<g id="node7" class="node">
<title>6</title>
<g id="a_node7"><a xlink:href="to_research scientist.svg" xlink:title="research scientist">
<ellipse fill="none" stroke="black" cx="904.69" cy="-105" rx="72.59" ry="18"/>
<text text-anchor="middle" x="904.69" y="-101.3" font-family="Times New Roman,serif" font-size="14.00">research scientist</text>
</a>
</g>
</g>
<!-- 6&#45;&gt;0 -->
<g id="edge7" class="edge">
<title>6&#45;&gt;0</title>
<path fill="none" stroke="black" d="M875.71,-88.41C850.34,-74.76 813.27,-54.82 785.37,-39.81"/>
<polygon fill="black" stroke="black" points="786.76,-36.58 776.29,-34.92 783.44,-42.74 786.76,-36.58"/>
<text text-anchor="middle" x="851.19" y="-57.8" font-family="Times New Roman,serif" font-size="14.00">0.038</text>
</g>
<!-- 7 -->
<g id="node8" class="node">
<title>7</title>
<g id="a_node8"><a xlink:href="to_software developer.svg" xlink:title="software developer">
<ellipse fill="none" stroke="black" cx="1075.69" cy="-105" rx="79.89" ry="18"/>
<text text-anchor="middle" x="1075.69" y="-101.3" font-family="Times New Roman,serif" font-size="14.00">software developer</text>
</a>
</g>
</g>
<!-- 7&#45;&gt;0 -->
<g id="edge8" class="edge">
<title>7&#45;&gt;0</title>
<path fill="none" stroke="black" d="M1025.37,-91C967.1,-75.94 871.13,-51.15 808.41,-34.95"/>
<polygon fill="black" stroke="black" points="809.2,-31.53 798.64,-32.42 807.45,-38.31 809.2,-31.53"/>
<text text-anchor="middle" x="947.19" y="-57.8" font-family="Times New Roman,serif" font-size="14.00">0.038</text>
</g>
<!-- 8 -->
<g id="node9" class="node">
<title>8</title>
<g id="a_node9"><a xlink:href="to_teaching assistant.svg" xlink:title="teaching assistant">
<ellipse fill="none" stroke="black" cx="1246.69" cy="-105" rx="73.39" ry="18"/>
<text text-anchor="middle" x="1246.69" y="-101.3" font-family="Times New Roman,serif" font-size="14.00">teaching assistant</text>
</a>
</g>
</g>
<!-- 8&#45;&gt;0 -->
<g id="edge9" class="edge">
<title>8&#45;&gt;0</title>
<path fill="none" stroke="black" d="M1192.94,-92.54C1183.54,-90.63 1173.84,-88.71 1164.69,-87 1046.63,-64.93 909.03,-43.34 824.91,-30.6"/>
<polygon fill="black" stroke="black" points="825.33,-27.12 814.92,-29.09 824.29,-34.05 825.33,-27.12"/>
<text text-anchor="middle" x="1077.19" y="-57.8" font-family="Times New Roman,serif" font-size="14.00">0.038</text>
</g>
<!-- 9 -->
<g id="node10" class="node">
<title>9</title>
<g id="a_node10"><a xlink:href="to_teacher.svg" xlink:title="teacher">
<ellipse fill="none" stroke="black" cx="1374.69" cy="-105" rx="36.29" ry="18"/>
<text text-anchor="middle" x="1374.69" y="-101.3" font-family="Times New Roman,serif" font-size="14.00">teacher</text>
</a>
</g>
</g>
<!-- 9&#45;&gt;0 -->
<g id="edge10" class="edge">
<title>9&#45;&gt;0</title>
<path fill="none" stroke="black" d="M1347.26,-92.78C1341.22,-90.62 1334.8,-88.54 1328.69,-87 1160.44,-44.46 957.97,-28.42 841.61,-22.45"/>
<polygon fill="black" stroke="black" points="841.47,-18.94 831.31,-21.94 841.13,-25.93 841.47,-18.94"/>
<text text-anchor="middle" x="1250.19" y="-57.8" font-family="Times New Roman,serif" font-size="14.00">0.025</text>
</g>
</g>
</svg>
