<?xml version="1.0" encoding="UTF-8" standalone="no"?>
<!DOCTYPE svg PUBLIC "-//W3C//DTD SVG 1.1//EN"
 "http://www.w3.org/Graphics/SVG/1.1/DTD/svg11.dtd">
<!-- Generated by graphviz version 2.44.1 (20200629.0800)
 -->
<!-- Title: education_administrator Pages: 1 -->
<svg width="1330pt" height="131pt"
 viewBox="0.00 0.00 1330.29 131.00" xmlns="http://www.w3.org/2000/svg" xmlns:xlink="http://www.w3.org/1999/xlink">
<g id="graph0" class="graph" transform="scale(1 1) rotate(0) translate(4 127)">
<title>education_administrator</title>
<polygon fill="white" stroke="transparent" points="-4,4 -4,-127 1326.29,-127 1326.29,4 -4,4"/>
<!-- 0 -->
<g id="node1" class="node">
<title>0</title>
<g id="a_node1"><a xlink:href="to_education administrator.svg" xlink:title="education administrator">
<ellipse fill="none" stroke="black" cx="640.7" cy="-18" rx="95.58" ry="18"/>
<text text-anchor="middle" x="640.7" y="-14.3" font-family="Times New Roman,serif" font-size="14.00">education administrator</text>
</a>
</g>
</g>
<!-- 0&#45;&gt;0 -->
<g id="edge1" class="edge">
<title>0&#45;&gt;0</title>
<path fill="none" stroke="black" d="M727.81,-25.41C743.37,-24.45 754.24,-21.98 754.24,-18 754.24,-14.95 747.87,-12.79 737.9,-11.51"/>
<polygon fill="black" stroke="black" points="738.09,-8.02 727.81,-10.59 737.45,-14.99 738.09,-8.02"/>
<text text-anchor="middle" x="766.74" y="-14.3" font-family="Times New Roman,serif" font-size="14.00">0.12</text>
</g>
<!-- 1 -->
<g id="node2" class="node">
<title>1</title>
<g id="a_node2"><a xlink:href="to_lecturer.svg" xlink:title="lecturer">
<ellipse fill="none" stroke="black" cx="37.7" cy="-105" rx="37.89" ry="18"/>
<text text-anchor="middle" x="37.7" y="-101.3" font-family="Times New Roman,serif" font-size="14.00">lecturer</text>
</a>
</g>
</g>
<!-- 1&#45;&gt;0 -->
<g id="edge2" class="edge">
<title>1&#45;&gt;0</title>
<path fill="none" stroke="black" d="M65.78,-92.96C71.95,-90.79 78.5,-88.66 84.7,-87 239.23,-45.52 424.79,-29.27 537.67,-22.95"/>
<polygon fill="black" stroke="black" points="537.89,-26.45 547.69,-22.41 537.51,-19.46 537.89,-26.45"/>
<text text-anchor="middle" x="248.2" y="-57.8" font-family="Times New Roman,serif" font-size="14.00">0.05</text>
</g>
<!-- 2 -->
<g id="node3" class="node">
<title>2</title>
<g id="a_node3"><a xlink:href="to_project manager.svg" xlink:title="project manager">
<ellipse fill="none" stroke="black" cx="162.7" cy="-105" rx="68.79" ry="18"/>
<text text-anchor="middle" x="162.7" y="-101.3" font-family="Times New Roman,serif" font-size="14.00">project manager</text>
</a>
</g>
</g>
<!-- 2&#45;&gt;0 -->
<g id="edge3" class="edge">
<title>2&#45;&gt;0</title>
<path fill="none" stroke="black" d="M207.47,-91.25C247.98,-80.1 309.44,-64.14 363.7,-54 424.46,-42.64 493.43,-33.92 547.34,-28.02"/>
<polygon fill="black" stroke="black" points="548.01,-31.47 557.57,-26.91 547.26,-24.51 548.01,-31.47"/>
<text text-anchor="middle" x="379.2" y="-57.8" font-family="Times New Roman,serif" font-size="14.00">0.046</text>
</g>
<!-- 3 -->
<g id="node4" class="node">
<title>3</title>
<g id="a_node4"><a xlink:href="to_teacher.svg" xlink:title="teacher">
<ellipse fill="none" stroke="black" cx="285.7" cy="-105" rx="36.29" ry="18"/>
<text text-anchor="middle" x="285.7" y="-101.3" font-family="Times New Roman,serif" font-size="14.00">teacher</text>
</a>
</g>
</g>
<!-- 3&#45;&gt;0 -->
<g id="edge4" class="edge">
<title>3&#45;&gt;0</title>
<path fill="none" stroke="black" d="M313.09,-92.93C318.85,-90.8 324.93,-88.71 330.7,-87 408.91,-63.78 500.36,-44.67 563.57,-32.69"/>
<polygon fill="black" stroke="black" points="564.28,-36.11 573.46,-30.82 562.99,-29.23 564.28,-36.11"/>
<text text-anchor="middle" x="473.2" y="-57.8" font-family="Times New Roman,serif" font-size="14.00">0.036</text>
</g>
<!-- 4 -->
<g id="node5" class="node">
<title>4</title>
<g id="a_node5"><a xlink:href="to_pharmacovigilance officer.svg" xlink:title="pharmacovigilance officer">
<ellipse fill="none" stroke="black" cx="444.7" cy="-105" rx="104.78" ry="18"/>
<text text-anchor="middle" x="444.7" y="-101.3" font-family="Times New Roman,serif" font-size="14.00">pharmacovigilance officer</text>
</a>
</g>
</g>
<!-- 4&#45;&gt;0 -->
<g id="edge5" class="edge">
<title>4&#45;&gt;0</title>
<path fill="none" stroke="black" d="M481.56,-88.01C513.69,-74.08 560.42,-53.81 594.94,-38.84"/>
<polygon fill="black" stroke="black" points="596.55,-41.96 604.33,-34.77 593.76,-35.54 596.55,-41.96"/>
<text text-anchor="middle" x="567.2" y="-57.8" font-family="Times New Roman,serif" font-size="14.00">0.03</text>
</g>
<!-- 5 -->
<g id="node6" class="node">
<title>5</title>
<g id="a_node6"><a xlink:href="to_teaching assistant.svg" xlink:title="teaching assistant">
<ellipse fill="none" stroke="black" cx="640.7" cy="-105" rx="73.39" ry="18"/>
<text text-anchor="middle" x="640.7" y="-101.3" font-family="Times New Roman,serif" font-size="14.00">teaching assistant</text>
</a>
</g>
</g>
<!-- 5&#45;&gt;0 -->
<g id="edge6" class="edge">
<title>5&#45;&gt;0</title>
<path fill="none" stroke="black" d="M640.7,-86.8C640.7,-75.16 640.7,-59.55 640.7,-46.24"/>
<polygon fill="black" stroke="black" points="644.2,-46.18 640.7,-36.18 637.2,-46.18 644.2,-46.18"/>
<text text-anchor="middle" x="656.2" y="-57.8" font-family="Times New Roman,serif" font-size="14.00">0.026</text>
</g>
<!-- 6 -->
<g id="node7" class="node">
<title>6</title>
<g id="a_node7"><a xlink:href="to_academic librarian.svg" xlink:title="academic librarian">
<ellipse fill="none" stroke="black" cx="807.7" cy="-105" rx="76.09" ry="18"/>
<text text-anchor="middle" x="807.7" y="-101.3" font-family="Times New Roman,serif" font-size="14.00">academic librarian</text>
</a>
</g>
</g>
<!-- 6&#45;&gt;0 -->
<g id="edge7" class="edge">
<title>6&#45;&gt;0</title>
<path fill="none" stroke="black" d="M777.07,-88.41C750.22,-74.74 710.98,-54.77 681.48,-39.76"/>
<polygon fill="black" stroke="black" points="682.77,-36.49 672.27,-35.07 679.59,-42.72 682.77,-36.49"/>
<text text-anchor="middle" x="750.2" y="-57.8" font-family="Times New Roman,serif" font-size="14.00">0.023</text>
</g>
<!-- 7 -->
<g id="node8" class="node">
<title>7</title>
<g id="a_node8"><a xlink:href="to_office manager.svg" xlink:title="office manager">
<ellipse fill="none" stroke="black" cx="965.7" cy="-105" rx="64.19" ry="18"/>
<text text-anchor="middle" x="965.7" y="-101.3" font-family="Times New Roman,serif" font-size="14.00">office manager</text>
</a>
</g>
</g>
<!-- 7&#45;&gt;0 -->
<g id="edge8" class="edge">
<title>7&#45;&gt;0</title>
<path fill="none" stroke="black" d="M920.51,-92.18C864.22,-77.46 767.71,-52.22 704.06,-35.57"/>
<polygon fill="black" stroke="black" points="704.7,-32.12 694.14,-32.98 702.93,-38.89 704.7,-32.12"/>
<text text-anchor="middle" x="838.2" y="-57.8" font-family="Times New Roman,serif" font-size="14.00">0.023</text>
</g>
<!-- 8 -->
<g id="node9" class="node">
<title>8</title>
<g id="a_node9"><a xlink:href="to_financial manager.svg" xlink:title="financial manager">
<ellipse fill="none" stroke="black" cx="1121.7" cy="-105" rx="73.39" ry="18"/>
<text text-anchor="middle" x="1121.7" y="-101.3" font-family="Times New Roman,serif" font-size="14.00">financial manager</text>
</a>
</g>
</g>
<!-- 8&#45;&gt;0 -->
<g id="edge9" class="edge">
<title>8&#45;&gt;0</title>
<path fill="none" stroke="black" d="M1067.71,-92.77C1058.05,-90.81 1048.08,-88.82 1038.7,-87 958.42,-71.46 938.29,-67.84 857.7,-54 812.7,-46.27 762.37,-38.12 721.52,-31.63"/>
<polygon fill="black" stroke="black" points="722.04,-28.17 711.61,-30.06 720.94,-35.09 722.04,-28.17"/>
<text text-anchor="middle" x="954.2" y="-57.8" font-family="Times New Roman,serif" font-size="14.00">0.02</text>
</g>
<!-- 9 -->
<g id="node10" class="node">
<title>9</title>
<g id="a_node10"><a xlink:href="to_it consultant.svg" xlink:title="it consultant">
<ellipse fill="none" stroke="black" cx="1267.7" cy="-105" rx="54.69" ry="18"/>
<text text-anchor="middle" x="1267.7" y="-101.3" font-family="Times New Roman,serif" font-size="14.00">it consultant</text>
</a>
</g>
</g>
<!-- 9&#45;&gt;0 -->
<g id="edge10" class="edge">
<title>9&#45;&gt;0</title>
<path fill="none" stroke="black" d="M1227.93,-92.65C1219.94,-90.6 1211.58,-88.6 1203.7,-87 1042.37,-54.27 851.61,-35.29 738.68,-26.05"/>
<polygon fill="black" stroke="black" points="738.92,-22.56 728.68,-25.25 738.36,-29.54 738.92,-22.56"/>
<text text-anchor="middle" x="1109.2" y="-57.8" font-family="Times New Roman,serif" font-size="14.00">0.02</text>
</g>
</g>
</svg>
