<?xml version="1.0" encoding="UTF-8" standalone="no"?>
<!DOCTYPE svg PUBLIC "-//W3C//DTD SVG 1.1//EN"
 "http://www.w3.org/Graphics/SVG/1.1/DTD/svg11.dtd">
<!-- Generated by graphviz version 2.44.1 (20200629.0800)
 -->
<!-- Title: test Pages: 1 -->
<svg width="1468pt" height="131pt"
 viewBox="0.00 0.00 1468.34 131.00" xmlns="http://www.w3.org/2000/svg" xmlns:xlink="http://www.w3.org/1999/xlink">
<g id="graph0" class="graph" transform="scale(1 1) rotate(0) translate(4 127)">
<title>test</title>
<polygon fill="white" stroke="transparent" points="-4,4 -4,-127 1464.34,-127 1464.34,4 -4,4"/>
<!-- 0 -->
<g id="node1" class="node">
<title>0</title>
<g id="a_node1"><a xlink:href="to_forensic scientist.svg" xlink:title="forensic scientist">
<ellipse fill="none" stroke="black" cx="916.14" cy="-18" rx="71.49" ry="18"/>
<text text-anchor="middle" x="916.14" y="-14.3" font-family="Times New Roman,serif" font-size="14.00">forensic scientist</text>
</a>
</g>
</g>
<!-- 0&#45;&gt;0 -->
<g id="edge1" class="edge">
<title>0&#45;&gt;0</title>
<path fill="none" stroke="black" d="M980.9,-25.66C995.21,-24.94 1005.64,-22.39 1005.64,-18 1005.64,-14.74 999.89,-12.5 991.08,-11.26"/>
<polygon fill="black" stroke="black" points="991.18,-7.75 980.9,-10.34 990.55,-14.73 991.18,-7.75"/>
<text text-anchor="middle" x="1021.14" y="-14.3" font-family="Times New Roman,serif" font-size="14.00">0.133</text>
</g>
<!-- 1 -->
<g id="node2" class="node">
<title>1</title>
<g id="a_node2"><a xlink:href="to_armed forces officer.svg" xlink:title="armed forces officer">
<ellipse fill="none" stroke="black" cx="85.14" cy="-105" rx="85.29" ry="18"/>
<text text-anchor="middle" x="85.14" y="-101.3" font-family="Times New Roman,serif" font-size="14.00">armed forces officer</text>
</a>
</g>
</g>
<!-- 1&#45;&gt;0 -->
<g id="edge2" class="edge">
<title>1&#45;&gt;0</title>
<path fill="none" stroke="black" d="M146.1,-92.34C157.39,-90.39 169.1,-88.51 180.14,-87 418.5,-54.3 702.5,-33.02 837.43,-23.98"/>
<polygon fill="black" stroke="black" points="837.93,-27.45 847.67,-23.29 837.46,-20.47 837.93,-27.45"/>
<text text-anchor="middle" x="478.64" y="-57.8" font-family="Times New Roman,serif" font-size="14.00">0.066</text>
</g>
<!-- 2 -->
<g id="node3" class="node">
<title>2</title>
<g id="a_node3"><a xlink:href="to_government research officer.svg" xlink:title="government research officer">
<ellipse fill="none" stroke="black" cx="301.14" cy="-105" rx="112.38" ry="18"/>
<text text-anchor="middle" x="301.14" y="-101.3" font-family="Times New Roman,serif" font-size="14.00">government research officer</text>
</a>
</g>
</g>
<!-- 2&#45;&gt;0 -->
<g id="edge3" class="edge">
<title>2&#45;&gt;0</title>
<path fill="none" stroke="black" d="M382.84,-92.6C396.31,-90.73 410.12,-88.81 423.14,-87 573.22,-66.19 749.02,-41.98 844.88,-28.8"/>
<polygon fill="black" stroke="black" points="845.61,-32.23 855.04,-27.4 844.65,-25.3 845.61,-32.23"/>
<text text-anchor="middle" x="668.64" y="-57.8" font-family="Times New Roman,serif" font-size="14.00">0.066</text>
</g>
<!-- 3 -->
<g id="node4" class="node">
<title>3</title>
<g id="a_node4"><a xlink:href="to_health and safety adviser.svg" xlink:title="health and safety adviser">
<ellipse fill="none" stroke="black" cx="531.14" cy="-105" rx="99.38" ry="18"/>
<text text-anchor="middle" x="531.14" y="-101.3" font-family="Times New Roman,serif" font-size="14.00">health and safety adviser</text>
</a>
</g>
</g>
<!-- 3&#45;&gt;0 -->
<g id="edge4" class="edge">
<title>3&#45;&gt;0</title>
<path fill="none" stroke="black" d="M591.72,-90.63C663.42,-74.8 782.16,-48.58 854.37,-32.64"/>
<polygon fill="black" stroke="black" points="855.23,-36.03 864.24,-30.46 853.72,-29.2 855.23,-36.03"/>
<text text-anchor="middle" x="762.64" y="-57.8" font-family="Times New Roman,serif" font-size="14.00">0.066</text>
</g>
<!-- 4 -->
<g id="node5" class="node">
<title>4</title>
<g id="a_node5"><a xlink:href="to_health and safety inspector.svg" xlink:title="health and safety inspector">
<ellipse fill="none" stroke="black" cx="756.14" cy="-105" rx="107.48" ry="18"/>
<text text-anchor="middle" x="756.14" y="-101.3" font-family="Times New Roman,serif" font-size="14.00">health and safety inspector</text>
</a>
</g>
</g>
<!-- 4&#45;&gt;0 -->
<g id="edge5" class="edge">
<title>4&#45;&gt;0</title>
<path fill="none" stroke="black" d="M786.99,-87.61C812.94,-73.83 850.14,-54.06 877.96,-39.28"/>
<polygon fill="black" stroke="black" points="879.82,-42.26 887.01,-34.48 876.53,-36.08 879.82,-42.26"/>
<text text-anchor="middle" x="861.64" y="-57.8" font-family="Times New Roman,serif" font-size="14.00">0.066</text>
</g>
<!-- 5 -->
<g id="node6" class="node">
<title>5</title>
<g id="a_node6"><a xlink:href="to_lawyer.svg" xlink:title="lawyer">
<ellipse fill="none" stroke="black" cx="916.14" cy="-105" rx="34.39" ry="18"/>
<text text-anchor="middle" x="916.14" y="-101.3" font-family="Times New Roman,serif" font-size="14.00">lawyer</text>
</a>
</g>
</g>
<!-- 5&#45;&gt;0 -->
<g id="edge6" class="edge">
<title>5&#45;&gt;0</title>
<path fill="none" stroke="black" d="M916.14,-86.8C916.14,-75.16 916.14,-59.55 916.14,-46.24"/>
<polygon fill="black" stroke="black" points="919.64,-46.18 916.14,-36.18 912.64,-46.18 919.64,-46.18"/>
<text text-anchor="middle" x="931.64" y="-57.8" font-family="Times New Roman,serif" font-size="14.00">0.066</text>
</g>
<!-- 6 -->
<g id="node7" class="node">
<title>6</title>
<g id="a_node7"><a xlink:href="to_lecturer.svg" xlink:title="lecturer">
<ellipse fill="none" stroke="black" cx="1006.14" cy="-105" rx="37.89" ry="18"/>
<text text-anchor="middle" x="1006.14" y="-101.3" font-family="Times New Roman,serif" font-size="14.00">lecturer</text>
</a>
</g>
</g>
<!-- 6&#45;&gt;0 -->
<g id="edge7" class="edge">
<title>6&#45;&gt;0</title>
<path fill="none" stroke="black" d="M989.64,-88.41C976.15,-75.68 956.87,-57.47 941.44,-42.89"/>
<polygon fill="black" stroke="black" points="943.45,-39.98 933.78,-35.65 938.64,-45.06 943.45,-39.98"/>
<text text-anchor="middle" x="982.64" y="-57.8" font-family="Times New Roman,serif" font-size="14.00">0.066</text>
</g>
<!-- 7 -->
<g id="node8" class="node">
<title>7</title>
<g id="a_node8"><a xlink:href="to_patent attorney.svg" xlink:title="patent attorney">
<ellipse fill="none" stroke="black" cx="1126.14" cy="-105" rx="64.19" ry="18"/>
<text text-anchor="middle" x="1126.14" y="-101.3" font-family="Times New Roman,serif" font-size="14.00">patent attorney</text>
</a>
</g>
</g>
<!-- 7&#45;&gt;0 -->
<g id="edge8" class="edge">
<title>7&#45;&gt;0</title>
<path fill="none" stroke="black" d="M1090.99,-89.77C1055.47,-75.4 1000.43,-53.12 961.61,-37.4"/>
<polygon fill="black" stroke="black" points="962.69,-34.07 952.11,-33.56 960.07,-40.55 962.69,-34.07"/>
<text text-anchor="middle" x="1048.64" y="-57.8" font-family="Times New Roman,serif" font-size="14.00">0.066</text>
</g>
<!-- 8 -->
<g id="node9" class="node">
<title>8</title>
<g id="a_node9"><a xlink:href="to_prison officer.svg" xlink:title="prison officer">
<ellipse fill="none" stroke="black" cx="1268.14" cy="-105" rx="59.59" ry="18"/>
<text text-anchor="middle" x="1268.14" y="-101.3" font-family="Times New Roman,serif" font-size="14.00">prison officer</text>
</a>
</g>
</g>
<!-- 8&#45;&gt;0 -->
<g id="edge9" class="edge">
<title>8&#45;&gt;0</title>
<path fill="none" stroke="black" d="M1224.11,-92.74C1183.63,-82.45 1121.91,-66.91 1068.14,-54 1038.36,-46.85 1005.22,-39.18 977.51,-32.86"/>
<polygon fill="black" stroke="black" points="978.09,-29.4 967.56,-30.59 976.53,-36.22 978.09,-29.4"/>
<text text-anchor="middle" x="1143.64" y="-57.8" font-family="Times New Roman,serif" font-size="14.00">0.066</text>
</g>
<!-- 9 -->
<g id="node10" class="node">
<title>9</title>
<g id="a_node10"><a xlink:href="to_psychologist.svg" xlink:title="psychologist">
<ellipse fill="none" stroke="black" cx="1403.14" cy="-105" rx="57.39" ry="18"/>
<text text-anchor="middle" x="1403.14" y="-101.3" font-family="Times New Roman,serif" font-size="14.00">psychologist</text>
</a>
</g>
</g>
<!-- 9&#45;&gt;0 -->
<g id="edge10" class="edge">
<title>9&#45;&gt;0</title>
<path fill="none" stroke="black" d="M1360.99,-92.71C1353.09,-90.72 1344.88,-88.73 1337.14,-87 1216.15,-59.97 1073.33,-39.21 988.99,-28.08"/>
<polygon fill="black" stroke="black" points="989.37,-24.6 979,-26.77 988.46,-31.54 989.37,-24.6"/>
<text text-anchor="middle" x="1260.64" y="-57.8" font-family="Times New Roman,serif" font-size="14.00">0.066</text>
</g>
</g>
</svg>
