<?xml version="1.0" encoding="UTF-8" standalone="no"?>
<!DOCTYPE svg PUBLIC "-//W3C//DTD SVG 1.1//EN"
 "http://www.w3.org/Graphics/SVG/1.1/DTD/svg11.dtd">
<!-- Generated by graphviz version 2.44.1 (20200629.0800)
 -->
<!-- Title: test Pages: 1 -->
<svg width="1726pt" height="131pt"
 viewBox="0.00 0.00 1725.59 131.00" xmlns="http://www.w3.org/2000/svg" xmlns:xlink="http://www.w3.org/1999/xlink">
<g id="graph0" class="graph" transform="scale(1 1) rotate(0) translate(4 127)">
<title>test</title>
<polygon fill="white" stroke="transparent" points="-4,4 -4,-127 1721.59,-127 1721.59,4 -4,4"/>
<!-- 0 -->
<g id="node1" class="node">
<title>0</title>
<g id="a_node1"><a xlink:href="to_facilities manager.svg" xlink:title="facilities manager">
<ellipse fill="none" stroke="black" cx="696.89" cy="-18" rx="72.59" ry="18"/>
<text text-anchor="middle" x="696.89" y="-14.3" font-family="Times New Roman,serif" font-size="14.00">facilities manager</text>
</a>
</g>
</g>
<!-- 0&#45;&gt;0 -->
<g id="edge1" class="edge">
<title>0&#45;&gt;0</title>
<path fill="none" stroke="black" d="M763,-25.64C777.31,-24.9 787.69,-22.35 787.69,-18 787.69,-14.77 781.97,-12.54 773.17,-11.29"/>
<polygon fill="black" stroke="black" points="773.28,-7.79 763,-10.36 772.64,-14.76 773.28,-7.79"/>
<text text-anchor="middle" x="803.19" y="-14.3" font-family="Times New Roman,serif" font-size="14.00">0.157</text>
</g>
<!-- 1 -->
<g id="node2" class="node">
<title>1</title>
<g id="a_node2"><a xlink:href="to_project manager.svg" xlink:title="project manager">
<ellipse fill="none" stroke="black" cx="68.89" cy="-105" rx="68.79" ry="18"/>
<text text-anchor="middle" x="68.89" y="-101.3" font-family="Times New Roman,serif" font-size="14.00">project manager</text>
</a>
</g>
</g>
<!-- 1&#45;&gt;0 -->
<g id="edge2" class="edge">
<title>1&#45;&gt;0</title>
<path fill="none" stroke="black" d="M119.16,-92.61C128.37,-90.65 137.91,-88.7 146.89,-87 238.01,-69.79 260.95,-66.03 352.89,-54 444.09,-42.07 549.35,-31.88 619.17,-25.62"/>
<polygon fill="black" stroke="black" points="619.55,-29.1 629.2,-24.73 618.93,-22.13 619.55,-29.1"/>
<text text-anchor="middle" x="368.39" y="-57.8" font-family="Times New Roman,serif" font-size="14.00">0.077</text>
</g>
<!-- 2 -->
<g id="node3" class="node">
<title>2</title>
<g id="a_node3"><a xlink:href="to_sales manager.svg" xlink:title="sales manager">
<ellipse fill="none" stroke="black" cx="216.89" cy="-105" rx="61.19" ry="18"/>
<text text-anchor="middle" x="216.89" y="-101.3" font-family="Times New Roman,serif" font-size="14.00">sales manager</text>
</a>
</g>
</g>
<!-- 2&#45;&gt;0 -->
<g id="edge3" class="edge">
<title>2&#45;&gt;0</title>
<path fill="none" stroke="black" d="M261.59,-92.62C269.98,-90.64 278.68,-88.68 286.89,-87 404.98,-62.9 543.52,-41.3 625.54,-29.2"/>
<polygon fill="black" stroke="black" points="626.12,-32.65 635.51,-27.73 625.1,-25.73 626.12,-32.65"/>
<text text-anchor="middle" x="482.39" y="-57.8" font-family="Times New Roman,serif" font-size="14.00">0.072</text>
</g>
<!-- 3 -->
<g id="node4" class="node">
<title>3</title>
<g id="a_node4"><a xlink:href="to_pharmacovigilance officer.svg" xlink:title="pharmacovigilance officer">
<ellipse fill="none" stroke="black" cx="400.89" cy="-105" rx="104.78" ry="18"/>
<text text-anchor="middle" x="400.89" y="-101.3" font-family="Times New Roman,serif" font-size="14.00">pharmacovigilance officer</text>
</a>
</g>
</g>
<!-- 3&#45;&gt;0 -->
<g id="edge4" class="edge">
<title>3&#45;&gt;0</title>
<path fill="none" stroke="black" d="M452.12,-89.29C504.92,-74.13 587,-50.56 641.34,-34.95"/>
<polygon fill="black" stroke="black" points="642.51,-38.26 651.15,-32.14 640.58,-31.53 642.51,-38.26"/>
<text text-anchor="middle" x="582.39" y="-57.8" font-family="Times New Roman,serif" font-size="14.00">0.047</text>
</g>
<!-- 4 -->
<g id="node5" class="node">
<title>4</title>
<g id="a_node5"><a xlink:href="to_it consultant.svg" xlink:title="it consultant">
<ellipse fill="none" stroke="black" cx="577.89" cy="-105" rx="54.69" ry="18"/>
<text text-anchor="middle" x="577.89" y="-101.3" font-family="Times New Roman,serif" font-size="14.00">it consultant</text>
</a>
</g>
</g>
<!-- 4&#45;&gt;0 -->
<g id="edge5" class="edge">
<title>4&#45;&gt;0</title>
<path fill="none" stroke="black" d="M599.72,-88.41C618.24,-75.18 645.03,-56.05 665.79,-41.22"/>
<polygon fill="black" stroke="black" points="667.89,-44.02 673.99,-35.36 663.82,-38.32 667.89,-44.02"/>
<text text-anchor="middle" x="660.39" y="-57.8" font-family="Times New Roman,serif" font-size="14.00">0.041</text>
</g>
<!-- 5 -->
<g id="node6" class="node">
<title>5</title>
<g id="a_node6"><a xlink:href="to_qa analyst.svg" xlink:title="qa analyst">
<ellipse fill="none" stroke="black" cx="696.89" cy="-105" rx="46.59" ry="18"/>
<text text-anchor="middle" x="696.89" y="-101.3" font-family="Times New Roman,serif" font-size="14.00">qa analyst</text>
</a>
</g>
</g>
<!-- 5&#45;&gt;0 -->
<g id="edge6" class="edge">
<title>5&#45;&gt;0</title>
<path fill="none" stroke="black" d="M696.89,-86.8C696.89,-75.16 696.89,-59.55 696.89,-46.24"/>
<polygon fill="black" stroke="black" points="700.39,-46.18 696.89,-36.18 693.39,-46.18 700.39,-46.18"/>
<text text-anchor="middle" x="712.39" y="-57.8" font-family="Times New Roman,serif" font-size="14.00">0.022</text>
</g>
<!-- 6 -->
<g id="node7" class="node">
<title>6</title>
<g id="a_node7"><a xlink:href="to_civil service administrator.svg" xlink:title="civil service administrator">
<ellipse fill="none" stroke="black" cx="863.89" cy="-105" rx="102.88" ry="18"/>
<text text-anchor="middle" x="863.89" y="-101.3" font-family="Times New Roman,serif" font-size="14.00">civil service administrator</text>
</a>
</g>
</g>
<!-- 6&#45;&gt;0 -->
<g id="edge7" class="edge">
<title>6&#45;&gt;0</title>
<path fill="none" stroke="black" d="M832.09,-87.81C804.85,-73.95 765.51,-53.92 736.28,-39.05"/>
<polygon fill="black" stroke="black" points="737.67,-35.83 727.17,-34.41 734.5,-42.07 737.67,-35.83"/>
<text text-anchor="middle" x="806.39" y="-57.8" font-family="Times New Roman,serif" font-size="14.00">0.019</text>
</g>
<!-- 7 -->
<g id="node8" class="node">
<title>7</title>
<g id="a_node8"><a xlink:href="to_environmental manager.svg" xlink:title="environmental manager">
<ellipse fill="none" stroke="black" cx="1077.89" cy="-105" rx="93.68" ry="18"/>
<text text-anchor="middle" x="1077.89" y="-101.3" font-family="Times New Roman,serif" font-size="14.00">environmental manager</text>
</a>
</g>
</g>
<!-- 7&#45;&gt;0 -->
<g id="edge8" class="edge">
<title>7&#45;&gt;0</title>
<path fill="none" stroke="black" d="M1019.2,-90.91C948.62,-75.16 830.71,-48.85 758.76,-32.8"/>
<polygon fill="black" stroke="black" points="759.44,-29.37 748.92,-30.61 757.92,-36.2 759.44,-29.37"/>
<text text-anchor="middle" x="926.39" y="-57.8" font-family="Times New Roman,serif" font-size="14.00">0.019</text>
</g>
<!-- 8 -->
<g id="node9" class="node">
<title>8</title>
<g id="a_node9"><a xlink:href="to_geographical information systems manager.svg" xlink:title="geographical information systems manager">
<ellipse fill="none" stroke="black" cx="1354.89" cy="-105" rx="165.17" ry="18"/>
<text text-anchor="middle" x="1354.89" y="-101.3" font-family="Times New Roman,serif" font-size="14.00">geographical information systems manager</text>
</a>
</g>
</g>
<!-- 8&#45;&gt;0 -->
<g id="edge9" class="edge">
<title>8&#45;&gt;0</title>
<path fill="none" stroke="black" d="M1252.8,-90.81C1118.99,-73.53 887.54,-43.63 769.97,-28.44"/>
<polygon fill="black" stroke="black" points="770.35,-24.96 759.99,-27.15 769.46,-31.9 770.35,-24.96"/>
<text text-anchor="middle" x="1081.39" y="-57.8" font-family="Times New Roman,serif" font-size="14.00">0.019</text>
</g>
<!-- 9 -->
<g id="node10" class="node">
<title>9</title>
<g id="a_node10"><a xlink:href="to_network administrator.svg" xlink:title="network administrator">
<ellipse fill="none" stroke="black" cx="1627.89" cy="-105" rx="89.88" ry="18"/>
<text text-anchor="middle" x="1627.89" y="-101.3" font-family="Times New Roman,serif" font-size="14.00">network administrator</text>
</a>
</g>
</g>
<!-- 9&#45;&gt;0 -->
<g id="edge10" class="edge">
<title>9&#45;&gt;0</title>
<path fill="none" stroke="black" d="M1564.38,-92.24C1552.61,-90.3 1540.4,-88.46 1528.89,-87 1254.39,-52.28 926.58,-31.53 777.65,-23.22"/>
<polygon fill="black" stroke="black" points="777.42,-19.7 767.24,-22.64 777.03,-26.69 777.42,-19.7"/>
<text text-anchor="middle" x="1385.39" y="-57.8" font-family="Times New Roman,serif" font-size="14.00">0.019</text>
</g>
</g>
</svg>
