<?xml version="1.0" encoding="UTF-8" standalone="no"?>
<!DOCTYPE svg PUBLIC "-//W3C//DTD SVG 1.1//EN"
 "http://www.w3.org/Graphics/SVG/1.1/DTD/svg11.dtd">
<!-- Generated by graphviz version 2.44.1 (20200629.0800)
 -->
<!-- Title: test Pages: 1 -->
<svg width="1436pt" height="131pt"
 viewBox="0.00 0.00 1436.49 131.00" xmlns="http://www.w3.org/2000/svg" xmlns:xlink="http://www.w3.org/1999/xlink">
<g id="graph0" class="graph" transform="scale(1 1) rotate(0) translate(4 127)">
<title>test</title>
<polygon fill="white" stroke="transparent" points="-4,4 -4,-127 1432.49,-127 1432.49,4 -4,4"/>
<!-- 0 -->
<g id="node1" class="node">
<title>0</title>
<g id="a_node1"><a xlink:href="to_project manager.svg" xlink:title="project manager">
<ellipse fill="none" stroke="black" cx="68.89" cy="-105" rx="68.79" ry="18"/>
<text text-anchor="middle" x="68.89" y="-101.3" font-family="Times New Roman,serif" font-size="14.00">project manager</text>
</a>
</g>
</g>
<!-- 1 -->
<g id="node2" class="node">
<title>1</title>
<g id="a_node2"><a xlink:href="to_geographical information systems manager.svg" xlink:title="geographical information systems manager">
<ellipse fill="none" stroke="black" cx="679.89" cy="-18" rx="165.17" ry="18"/>
<text text-anchor="middle" x="679.89" y="-14.3" font-family="Times New Roman,serif" font-size="14.00">geographical information systems manager</text>
</a>
</g>
</g>
<!-- 0&#45;&gt;1 -->
<g id="edge1" class="edge">
<title>0&#45;&gt;1</title>
<path fill="none" stroke="black" d="M119.37,-92.57C128.2,-90.65 137.3,-88.73 145.89,-87 226.49,-70.8 246.48,-65.41 327.89,-54 397.89,-44.19 476.1,-36.13 540.98,-30.22"/>
<polygon fill="black" stroke="black" points="541.63,-33.68 551.28,-29.29 541,-26.71 541.63,-33.68"/>
<text text-anchor="middle" x="343.39" y="-57.8" font-family="Times New Roman,serif" font-size="14.00">0.113</text>
</g>
<!-- 1&#45;&gt;1 -->
<g id="edge4" class="edge">
<title>1&#45;&gt;1</title>
<path fill="none" stroke="black" d="M833.15,-24.74C851.21,-23.51 862.98,-21.26 862.98,-18 862.98,-15.4 855.5,-13.45 843.33,-12.13"/>
<polygon fill="black" stroke="black" points="843.41,-8.63 833.15,-11.26 842.81,-15.6 843.41,-8.63"/>
<text text-anchor="middle" x="878.48" y="-14.3" font-family="Times New Roman,serif" font-size="14.00">0.058</text>
</g>
<!-- 2 -->
<g id="node3" class="node">
<title>2</title>
<g id="a_node3"><a xlink:href="to_it consultant.svg" xlink:title="it consultant">
<ellipse fill="none" stroke="black" cx="209.89" cy="-105" rx="54.69" ry="18"/>
<text text-anchor="middle" x="209.89" y="-101.3" font-family="Times New Roman,serif" font-size="14.00">it consultant</text>
</a>
</g>
</g>
<!-- 2&#45;&gt;1 -->
<g id="edge2" class="edge">
<title>2&#45;&gt;1</title>
<path fill="none" stroke="black" d="M250.06,-92.8C257.93,-90.75 266.15,-88.72 273.89,-87 373.84,-64.75 489.09,-46.11 571.2,-34"/>
<polygon fill="black" stroke="black" points="571.91,-37.44 581.29,-32.52 570.89,-30.51 571.91,-37.44"/>
<text text-anchor="middle" x="456.39" y="-57.8" font-family="Times New Roman,serif" font-size="14.00">0.062</text>
</g>
<!-- 3 -->
<g id="node4" class="node">
<title>3</title>
<g id="a_node4"><a xlink:href="to_sales manager.svg" xlink:title="sales manager">
<ellipse fill="none" stroke="black" cx="343.89" cy="-105" rx="61.19" ry="18"/>
<text text-anchor="middle" x="343.89" y="-101.3" font-family="Times New Roman,serif" font-size="14.00">sales manager</text>
</a>
</g>
</g>
<!-- 3&#45;&gt;1 -->
<g id="edge3" class="edge">
<title>3&#45;&gt;1</title>
<path fill="none" stroke="black" d="M388.86,-92.62C444.9,-78.45 541.39,-54.04 607.8,-37.24"/>
<polygon fill="black" stroke="black" points="608.95,-40.56 617.78,-34.71 607.23,-33.77 608.95,-40.56"/>
<text text-anchor="middle" x="548.39" y="-57.8" font-family="Times New Roman,serif" font-size="14.00">0.062</text>
</g>
<!-- 4 -->
<g id="node5" class="node">
<title>4</title>
<g id="a_node5"><a xlink:href="to_production manager.svg" xlink:title="production manager">
<ellipse fill="none" stroke="black" cx="505.89" cy="-105" rx="83.39" ry="18"/>
<text text-anchor="middle" x="505.89" y="-101.3" font-family="Times New Roman,serif" font-size="14.00">production manager</text>
</a>
</g>
</g>
<!-- 4&#45;&gt;1 -->
<g id="edge5" class="edge">
<title>4&#45;&gt;1</title>
<path fill="none" stroke="black" d="M538.21,-88.21C565.91,-74.68 606.05,-55.07 636.54,-40.18"/>
<polygon fill="black" stroke="black" points="638.21,-43.26 645.66,-35.72 635.14,-36.97 638.21,-43.26"/>
<text text-anchor="middle" x="619.39" y="-57.8" font-family="Times New Roman,serif" font-size="14.00">0.040</text>
</g>
<!-- 5 -->
<g id="node6" class="node">
<title>5</title>
<g id="a_node6"><a xlink:href="to_facilities manager.svg" xlink:title="facilities manager">
<ellipse fill="none" stroke="black" cx="679.89" cy="-105" rx="72.59" ry="18"/>
<text text-anchor="middle" x="679.89" y="-101.3" font-family="Times New Roman,serif" font-size="14.00">facilities manager</text>
</a>
</g>
</g>
<!-- 5&#45;&gt;1 -->
<g id="edge6" class="edge">
<title>5&#45;&gt;1</title>
<path fill="none" stroke="black" d="M679.89,-86.8C679.89,-75.16 679.89,-59.55 679.89,-46.24"/>
<polygon fill="black" stroke="black" points="683.39,-46.18 679.89,-36.18 676.39,-46.18 683.39,-46.18"/>
<text text-anchor="middle" x="695.39" y="-57.8" font-family="Times New Roman,serif" font-size="14.00">0.029</text>
</g>
<!-- 6 -->
<g id="node7" class="node">
<title>6</title>
<g id="a_node7"><a xlink:href="to_site manager.svg" xlink:title="site manager">
<ellipse fill="none" stroke="black" cx="826.89" cy="-105" rx="55.79" ry="18"/>
<text text-anchor="middle" x="826.89" y="-101.3" font-family="Times New Roman,serif" font-size="14.00">site manager</text>
</a>
</g>
</g>
<!-- 6&#45;&gt;1 -->
<g id="edge7" class="edge">
<title>6&#45;&gt;1</title>
<path fill="none" stroke="black" d="M800.95,-89C777.87,-75.66 743.83,-55.97 717.72,-40.87"/>
<polygon fill="black" stroke="black" points="719.26,-37.72 708.85,-35.74 715.75,-43.78 719.26,-37.72"/>
<text text-anchor="middle" x="778.39" y="-57.8" font-family="Times New Roman,serif" font-size="14.00">0.029</text>
</g>
<!-- 7 -->
<g id="node8" class="node">
<title>7</title>
<g id="a_node8"><a xlink:href="to_pharmacovigilance officer.svg" xlink:title="pharmacovigilance officer">
<ellipse fill="none" stroke="black" cx="1005.89" cy="-105" rx="104.78" ry="18"/>
<text text-anchor="middle" x="1005.89" y="-101.3" font-family="Times New Roman,serif" font-size="14.00">pharmacovigilance officer</text>
</a>
</g>
</g>
<!-- 7&#45;&gt;1 -->
<g id="edge8" class="edge">
<title>7&#45;&gt;1</title>
<path fill="none" stroke="black" d="M950.96,-89.68C895.7,-75.27 810.27,-52.99 750.12,-37.31"/>
<polygon fill="black" stroke="black" points="750.88,-33.89 740.32,-34.75 749.11,-40.66 750.88,-33.89"/>
<text text-anchor="middle" x="878.39" y="-57.8" font-family="Times New Roman,serif" font-size="14.00">0.025</text>
</g>
<!-- 8 -->
<g id="node9" class="node">
<title>8</title>
<g id="a_node9"><a xlink:href="to_financial manager.svg" xlink:title="financial manager">
<ellipse fill="none" stroke="black" cx="1201.89" cy="-105" rx="73.39" ry="18"/>
<text text-anchor="middle" x="1201.89" y="-101.3" font-family="Times New Roman,serif" font-size="14.00">financial manager</text>
</a>
</g>
</g>
<!-- 8&#45;&gt;1 -->
<g id="edge9" class="edge">
<title>8&#45;&gt;1</title>
<path fill="none" stroke="black" d="M1148.6,-92.54C1139.06,-90.6 1129.19,-88.68 1119.89,-87 1006.74,-66.54 876.51,-46.9 787.26,-34.03"/>
<polygon fill="black" stroke="black" points="787.53,-30.53 777.13,-32.57 786.53,-37.46 787.53,-30.53"/>
<text text-anchor="middle" x="1026.39" y="-57.8" font-family="Times New Roman,serif" font-size="14.00">0.022</text>
</g>
<!-- 9 -->
<g id="node10" class="node">
<title>9</title>
<g id="a_node10"><a xlink:href="to_systems analyst.svg" xlink:title="systems analyst">
<ellipse fill="none" stroke="black" cx="1360.89" cy="-105" rx="67.69" ry="18"/>
<text text-anchor="middle" x="1360.89" y="-101.3" font-family="Times New Roman,serif" font-size="14.00">systems analyst</text>
</a>
</g>
</g>
<!-- 9&#45;&gt;1 -->
<g id="edge10" class="edge">
<title>9&#45;&gt;1</title>
<path fill="none" stroke="black" d="M1311.72,-92.53C1302.5,-90.56 1292.92,-88.62 1283.89,-87 1127.05,-58.86 945.09,-40.26 822.21,-29.73"/>
<polygon fill="black" stroke="black" points="822.25,-26.22 811.99,-28.86 821.65,-33.2 822.25,-26.22"/>
<text text-anchor="middle" x="1184.39" y="-57.8" font-family="Times New Roman,serif" font-size="14.00">0.022</text>
</g>
</g>
</svg>
