<?xml version="1.0" encoding="UTF-8" standalone="no"?>
<!DOCTYPE svg PUBLIC "-//W3C//DTD SVG 1.1//EN"
 "http://www.w3.org/Graphics/SVG/1.1/DTD/svg11.dtd">
<!-- Generated by graphviz version 2.44.1 (20200629.0800)
 -->
<!-- Title: geographical_information_systems_manager Pages: 1 -->
<svg width="1437pt" height="131pt"
 viewBox="0.00 0.00 1437.49 131.00" xmlns="http://www.w3.org/2000/svg" xmlns:xlink="http://www.w3.org/1999/xlink">
<g id="graph0" class="graph" transform="scale(1 1) rotate(0) translate(4 127)">
<title>geographical_information_systems_manager</title>
<polygon fill="white" stroke="transparent" points="-4,4 -4,-127 1433.49,-127 1433.49,4 -4,4"/>
<!-- 0 -->
<g id="node1" class="node">
<title>0</title>
<g id="a_node1"><a xlink:href="to_project manager.svg" xlink:title="project manager">
<ellipse fill="none" stroke="black" cx="68.89" cy="-105" rx="68.79" ry="18"/>
<text text-anchor="middle" x="68.89" y="-101.3" font-family="Times New Roman,serif" font-size="14.00">project manager</text>
</a>
</g>
</g>
<!-- 1 -->
<g id="node2" class="node">
<title>1</title>
<g id="a_node2"><a xlink:href="to_geographical information systems manager.svg" xlink:title="geographical information systems manager">
<ellipse fill="none" stroke="black" cx="680.89" cy="-18" rx="165.17" ry="18"/>
<text text-anchor="middle" x="680.89" y="-14.3" font-family="Times New Roman,serif" font-size="14.00">geographical information systems manager</text>
</a>
</g>
</g>
<!-- 0&#45;&gt;1 -->
<g id="edge1" class="edge">
<title>0&#45;&gt;1</title>
<path fill="none" stroke="black" d="M119.6,-92.61C128.67,-90.67 138.05,-88.72 146.89,-87 231.88,-70.44 253.11,-65.75 338.89,-54 406.81,-44.7 482.63,-36.7 545.58,-30.7"/>
<polygon fill="black" stroke="black" points="545.95,-34.19 555.57,-29.76 545.29,-27.22 545.95,-34.19"/>
<text text-anchor="middle" x="354.39" y="-57.8" font-family="Times New Roman,serif" font-size="14.00">0.113</text>
</g>
<!-- 1&#45;&gt;1 -->
<g id="edge3" class="edge">
<title>1&#45;&gt;1</title>
<path fill="none" stroke="black" d="M834.15,-24.74C852.21,-23.51 863.98,-21.26 863.98,-18 863.98,-15.4 856.5,-13.45 844.33,-12.13"/>
<polygon fill="black" stroke="black" points="844.41,-8.63 834.15,-11.26 843.81,-15.6 844.41,-8.63"/>
<text text-anchor="middle" x="879.48" y="-14.3" font-family="Times New Roman,serif" font-size="14.00">0.058</text>
</g>
<!-- 2 -->
<g id="node3" class="node">
<title>2</title>
<g id="a_node3"><a xlink:href="to_sales manager.svg" xlink:title="sales manager">
<ellipse fill="none" stroke="black" cx="216.89" cy="-105" rx="61.19" ry="18"/>
<text text-anchor="middle" x="216.89" y="-101.3" font-family="Times New Roman,serif" font-size="14.00">sales manager</text>
</a>
</g>
</g>
<!-- 2&#45;&gt;1 -->
<g id="edge2" class="edge">
<title>2&#45;&gt;1</title>
<path fill="none" stroke="black" d="M262.01,-92.74C270.28,-90.76 278.83,-88.77 286.89,-87 360.78,-70.74 379.38,-67.1 453.89,-54 493.55,-47.03 537.24,-40.11 575.61,-34.29"/>
<polygon fill="black" stroke="black" points="576.4,-37.71 585.76,-32.76 575.35,-30.79 576.4,-37.71"/>
<text text-anchor="middle" x="469.39" y="-57.8" font-family="Times New Roman,serif" font-size="14.00">0.062</text>
</g>
<!-- 3 -->
<g id="node4" class="node">
<title>3</title>
<g id="a_node4"><a xlink:href="to_it consultant.svg" xlink:title="it consultant">
<ellipse fill="none" stroke="black" cx="350.89" cy="-105" rx="54.69" ry="18"/>
<text text-anchor="middle" x="350.89" y="-101.3" font-family="Times New Roman,serif" font-size="14.00">it consultant</text>
</a>
</g>
</g>
<!-- 3&#45;&gt;1 -->
<g id="edge4" class="edge">
<title>3&#45;&gt;1</title>
<path fill="none" stroke="black" d="M391.85,-93.06C399.5,-91.03 407.44,-88.94 414.89,-87 480.57,-69.88 555.48,-50.77 609.03,-37.18"/>
<polygon fill="black" stroke="black" points="609.94,-40.56 618.77,-34.71 608.22,-33.77 609.94,-40.56"/>
<text text-anchor="middle" x="554.39" y="-57.8" font-family="Times New Roman,serif" font-size="14.00">0.058</text>
</g>
<!-- 4 -->
<g id="node5" class="node">
<title>4</title>
<g id="a_node5"><a xlink:href="to_production manager.svg" xlink:title="production manager">
<ellipse fill="none" stroke="black" cx="506.89" cy="-105" rx="83.39" ry="18"/>
<text text-anchor="middle" x="506.89" y="-101.3" font-family="Times New Roman,serif" font-size="14.00">production manager</text>
</a>
</g>
</g>
<!-- 4&#45;&gt;1 -->
<g id="edge5" class="edge">
<title>4&#45;&gt;1</title>
<path fill="none" stroke="black" d="M539.21,-88.21C566.91,-74.68 607.05,-55.07 637.54,-40.18"/>
<polygon fill="black" stroke="black" points="639.21,-43.26 646.66,-35.72 636.14,-36.97 639.21,-43.26"/>
<text text-anchor="middle" x="620.39" y="-57.8" font-family="Times New Roman,serif" font-size="14.00">0.040</text>
</g>
<!-- 5 -->
<g id="node6" class="node">
<title>5</title>
<g id="a_node6"><a xlink:href="to_facilities manager.svg" xlink:title="facilities manager">
<ellipse fill="none" stroke="black" cx="680.89" cy="-105" rx="72.59" ry="18"/>
<text text-anchor="middle" x="680.89" y="-101.3" font-family="Times New Roman,serif" font-size="14.00">facilities manager</text>
</a>
</g>
</g>
<!-- 5&#45;&gt;1 -->
<g id="edge6" class="edge">
<title>5&#45;&gt;1</title>
<path fill="none" stroke="black" d="M680.89,-86.8C680.89,-75.16 680.89,-59.55 680.89,-46.24"/>
<polygon fill="black" stroke="black" points="684.39,-46.18 680.89,-36.18 677.39,-46.18 684.39,-46.18"/>
<text text-anchor="middle" x="696.39" y="-57.8" font-family="Times New Roman,serif" font-size="14.00">0.029</text>
</g>
<!-- 6 -->
<g id="node7" class="node">
<title>6</title>
<g id="a_node7"><a xlink:href="to_site manager.svg" xlink:title="site manager">
<ellipse fill="none" stroke="black" cx="827.89" cy="-105" rx="55.79" ry="18"/>
<text text-anchor="middle" x="827.89" y="-101.3" font-family="Times New Roman,serif" font-size="14.00">site manager</text>
</a>
</g>
</g>
<!-- 6&#45;&gt;1 -->
<g id="edge7" class="edge">
<title>6&#45;&gt;1</title>
<path fill="none" stroke="black" d="M801.95,-89C778.87,-75.66 744.83,-55.97 718.72,-40.87"/>
<polygon fill="black" stroke="black" points="720.26,-37.72 709.85,-35.74 716.75,-43.78 720.26,-37.72"/>
<text text-anchor="middle" x="779.39" y="-57.8" font-family="Times New Roman,serif" font-size="14.00">0.029</text>
</g>
<!-- 7 -->
<g id="node8" class="node">
<title>7</title>
<g id="a_node8"><a xlink:href="to_pharmacovigilance officer.svg" xlink:title="pharmacovigilance officer">
<ellipse fill="none" stroke="black" cx="1006.89" cy="-105" rx="104.78" ry="18"/>
<text text-anchor="middle" x="1006.89" y="-101.3" font-family="Times New Roman,serif" font-size="14.00">pharmacovigilance officer</text>
</a>
</g>
</g>
<!-- 7&#45;&gt;1 -->
<g id="edge8" class="edge">
<title>7&#45;&gt;1</title>
<path fill="none" stroke="black" d="M951.96,-89.68C896.7,-75.27 811.27,-52.99 751.12,-37.31"/>
<polygon fill="black" stroke="black" points="751.88,-33.89 741.32,-34.75 750.11,-40.66 751.88,-33.89"/>
<text text-anchor="middle" x="879.39" y="-57.8" font-family="Times New Roman,serif" font-size="14.00">0.025</text>
</g>
<!-- 8 -->
<g id="node9" class="node">
<title>8</title>
<g id="a_node9"><a xlink:href="to_financial manager.svg" xlink:title="financial manager">
<ellipse fill="none" stroke="black" cx="1202.89" cy="-105" rx="73.39" ry="18"/>
<text text-anchor="middle" x="1202.89" y="-101.3" font-family="Times New Roman,serif" font-size="14.00">financial manager</text>
</a>
</g>
</g>
<!-- 8&#45;&gt;1 -->
<g id="edge9" class="edge">
<title>8&#45;&gt;1</title>
<path fill="none" stroke="black" d="M1149.6,-92.54C1140.06,-90.6 1130.19,-88.68 1120.89,-87 1007.74,-66.54 877.51,-46.9 788.26,-34.03"/>
<polygon fill="black" stroke="black" points="788.53,-30.53 778.13,-32.57 787.53,-37.46 788.53,-30.53"/>
<text text-anchor="middle" x="1027.39" y="-57.8" font-family="Times New Roman,serif" font-size="14.00">0.022</text>
</g>
<!-- 9 -->
<g id="node10" class="node">
<title>9</title>
<g id="a_node10"><a xlink:href="to_systems analyst.svg" xlink:title="systems analyst">
<ellipse fill="none" stroke="black" cx="1361.89" cy="-105" rx="67.69" ry="18"/>
<text text-anchor="middle" x="1361.89" y="-101.3" font-family="Times New Roman,serif" font-size="14.00">systems analyst</text>
</a>
</g>
</g>
<!-- 9&#45;&gt;1 -->
<g id="edge10" class="edge">
<title>9&#45;&gt;1</title>
<path fill="none" stroke="black" d="M1312.72,-92.53C1303.5,-90.56 1293.92,-88.62 1284.89,-87 1128.05,-58.86 946.09,-40.26 823.21,-29.73"/>
<polygon fill="black" stroke="black" points="823.25,-26.22 812.99,-28.86 822.65,-33.2 823.25,-26.22"/>
<text text-anchor="middle" x="1185.39" y="-57.8" font-family="Times New Roman,serif" font-size="14.00">0.022</text>
</g>
</g>
</svg>
