<?xml version="1.0" encoding="UTF-8" standalone="no"?>
<!DOCTYPE svg PUBLIC "-//W3C//DTD SVG 1.1//EN"
 "http://www.w3.org/Graphics/SVG/1.1/DTD/svg11.dtd">
<!-- Generated by graphviz version 2.44.1 (20200629.0800)
 -->
<!-- Title: test Pages: 1 -->
<svg width="1313pt" height="131pt"
 viewBox="0.00 0.00 1312.54 131.00" xmlns="http://www.w3.org/2000/svg" xmlns:xlink="http://www.w3.org/1999/xlink">
<g id="graph0" class="graph" transform="scale(1 1) rotate(0) translate(4 127)">
<title>test</title>
<polygon fill="white" stroke="transparent" points="-4,4 -4,-127 1308.54,-127 1308.54,4 -4,4"/>
<!-- 0 -->
<g id="node1" class="node">
<title>0</title>
<g id="a_node1"><a xlink:href="to_graphic designer.svg" xlink:title="graphic designer">
<ellipse fill="none" stroke="black" cx="598" cy="-18" rx="70.39" ry="18"/>
<text text-anchor="middle" x="598" y="-14.3" font-family="Times New Roman,serif" font-size="14.00">graphic designer</text>
</a>
</g>
</g>
<!-- 0&#45;&gt;0 -->
<g id="edge1" class="edge">
<title>0&#45;&gt;0</title>
<path fill="none" stroke="black" d="M661.81,-25.66C675.92,-24.94 686.19,-22.39 686.19,-18 686.19,-14.74 680.53,-12.5 671.85,-11.26"/>
<polygon fill="black" stroke="black" points="672.09,-7.77 661.81,-10.34 671.45,-14.74 672.09,-7.77"/>
<text text-anchor="middle" x="701.69" y="-14.3" font-family="Times New Roman,serif" font-size="14.00">0.343</text>
</g>
<!-- 1 -->
<g id="node2" class="node">
<title>1</title>
<g id="a_node2"><a xlink:href="to_ux designer.svg" xlink:title="ux designer">
<ellipse fill="none" stroke="black" cx="52" cy="-105" rx="51.99" ry="18"/>
<text text-anchor="middle" x="52" y="-101.3" font-family="Times New Roman,serif" font-size="14.00">ux designer</text>
</a>
</g>
</g>
<!-- 1&#45;&gt;0 -->
<g id="edge2" class="edge">
<title>1&#45;&gt;0</title>
<path fill="none" stroke="black" d="M90.26,-92.77C97.76,-90.72 105.6,-88.7 113,-87 255.69,-54.11 425.9,-34.7 522.01,-25.51"/>
<polygon fill="black" stroke="black" points="522.6,-28.97 532.22,-24.55 521.94,-22 522.6,-28.97"/>
<text text-anchor="middle" x="300.5" y="-57.8" font-family="Times New Roman,serif" font-size="14.00">0.062</text>
</g>
<!-- 2 -->
<g id="node3" class="node">
<title>2</title>
<g id="a_node3"><a xlink:href="to_set designer.svg" xlink:title="set designer">
<ellipse fill="none" stroke="black" cx="176" cy="-105" rx="53.89" ry="18"/>
<text text-anchor="middle" x="176" y="-101.3" font-family="Times New Roman,serif" font-size="14.00">set designer</text>
</a>
</g>
</g>
<!-- 2&#45;&gt;0 -->
<g id="edge3" class="edge">
<title>2&#45;&gt;0</title>
<path fill="none" stroke="black" d="M215.89,-92.84C223.54,-90.81 231.5,-88.78 239,-87 339.65,-63.13 457.75,-42.08 530.22,-29.94"/>
<polygon fill="black" stroke="black" points="530.85,-33.38 540.14,-28.28 529.7,-26.48 530.85,-33.38"/>
<text text-anchor="middle" x="402.5" y="-57.8" font-family="Times New Roman,serif" font-size="14.00">0.052</text>
</g>
<!-- 3 -->
<g id="node4" class="node">
<title>3</title>
<g id="a_node4"><a xlink:href="to_web designer.svg" xlink:title="web designer">
<ellipse fill="none" stroke="black" cx="306" cy="-105" rx="58.49" ry="18"/>
<text text-anchor="middle" x="306" y="-101.3" font-family="Times New Roman,serif" font-size="14.00">web designer</text>
</a>
</g>
</g>
<!-- 3&#45;&gt;0 -->
<g id="edge4" class="edge">
<title>3&#45;&gt;0</title>
<path fill="none" stroke="black" d="M346.9,-92.09C398.28,-77.14 486.6,-51.43 543.62,-34.83"/>
<polygon fill="black" stroke="black" points="544.92,-38.1 553.54,-31.94 542.96,-31.38 544.92,-38.1"/>
<text text-anchor="middle" x="485.5" y="-57.8" font-family="Times New Roman,serif" font-size="14.00">0.052</text>
</g>
<!-- 4 -->
<g id="node5" class="node">
<title>4</title>
<g id="a_node5"><a xlink:href="to_heritage manager.svg" xlink:title="heritage manager">
<ellipse fill="none" stroke="black" cx="454" cy="-105" rx="71.49" ry="18"/>
<text text-anchor="middle" x="454" y="-101.3" font-family="Times New Roman,serif" font-size="14.00">heritage manager</text>
</a>
</g>
</g>
<!-- 4&#45;&gt;0 -->
<g id="edge5" class="edge">
<title>4&#45;&gt;0</title>
<path fill="none" stroke="black" d="M480.74,-88.21C503.78,-74.61 537.21,-54.88 562.48,-39.96"/>
<polygon fill="black" stroke="black" points="564.56,-42.8 571.39,-34.7 561,-36.77 564.56,-42.8"/>
<text text-anchor="middle" x="550.5" y="-57.8" font-family="Times New Roman,serif" font-size="14.00">0.026</text>
</g>
<!-- 5 -->
<g id="node6" class="node">
<title>5</title>
<g id="a_node6"><a xlink:href="to_it consultant.svg" xlink:title="it consultant">
<ellipse fill="none" stroke="black" cx="598" cy="-105" rx="54.69" ry="18"/>
<text text-anchor="middle" x="598" y="-101.3" font-family="Times New Roman,serif" font-size="14.00">it consultant</text>
</a>
</g>
</g>
<!-- 5&#45;&gt;0 -->
<g id="edge6" class="edge">
<title>5&#45;&gt;0</title>
<path fill="none" stroke="black" d="M598,-86.8C598,-75.16 598,-59.55 598,-46.24"/>
<polygon fill="black" stroke="black" points="601.5,-46.18 598,-36.18 594.5,-46.18 601.5,-46.18"/>
<text text-anchor="middle" x="613.5" y="-57.8" font-family="Times New Roman,serif" font-size="14.00">0.026</text>
</g>
<!-- 6 -->
<g id="node7" class="node">
<title>6</title>
<g id="a_node7"><a xlink:href="to_production manager.svg" xlink:title="production manager">
<ellipse fill="none" stroke="black" cx="754" cy="-105" rx="83.39" ry="18"/>
<text text-anchor="middle" x="754" y="-101.3" font-family="Times New Roman,serif" font-size="14.00">production manager</text>
</a>
</g>
</g>
<!-- 6&#45;&gt;0 -->
<g id="edge7" class="edge">
<title>6&#45;&gt;0</title>
<path fill="none" stroke="black" d="M724.65,-88.01C699.36,-74.23 662.69,-54.25 635.32,-39.33"/>
<polygon fill="black" stroke="black" points="636.87,-36.2 626.42,-34.49 633.52,-42.34 636.87,-36.2"/>
<text text-anchor="middle" x="701.5" y="-57.8" font-family="Times New Roman,serif" font-size="14.00">0.026</text>
</g>
<!-- 7 -->
<g id="node8" class="node">
<title>7</title>
<g id="a_node8"><a xlink:href="to_project manager.svg" xlink:title="project manager">
<ellipse fill="none" stroke="black" cx="924" cy="-105" rx="68.79" ry="18"/>
<text text-anchor="middle" x="924" y="-101.3" font-family="Times New Roman,serif" font-size="14.00">project manager</text>
</a>
</g>
</g>
<!-- 7&#45;&gt;0 -->
<g id="edge8" class="edge">
<title>7&#45;&gt;0</title>
<path fill="none" stroke="black" d="M876.94,-91.73C818.28,-76.44 718.07,-50.31 655.08,-33.88"/>
<polygon fill="black" stroke="black" points="655.86,-30.47 645.3,-31.33 654.09,-37.24 655.86,-30.47"/>
<text text-anchor="middle" x="795.5" y="-57.8" font-family="Times New Roman,serif" font-size="14.00">0.020</text>
</g>
<!-- 8 -->
<g id="node9" class="node">
<title>8</title>
<g id="a_node9"><a xlink:href="to_animator.svg" xlink:title="animator">
<ellipse fill="none" stroke="black" cx="1053" cy="-105" rx="42.49" ry="18"/>
<text text-anchor="middle" x="1053" y="-101.3" font-family="Times New Roman,serif" font-size="14.00">animator</text>
</a>
</g>
</g>
<!-- 8&#45;&gt;0 -->
<g id="edge9" class="edge">
<title>8&#45;&gt;0</title>
<path fill="none" stroke="black" d="M1021.65,-92.75C1015.2,-90.66 1008.42,-88.63 1002,-87 887.78,-58.05 752.2,-38.09 670.74,-27.61"/>
<polygon fill="black" stroke="black" points="670.96,-24.11 660.59,-26.32 670.07,-31.06 670.96,-24.11"/>
<text text-anchor="middle" x="929.5" y="-57.8" font-family="Times New Roman,serif" font-size="14.00">0.015</text>
</g>
<!-- 9 -->
<g id="node10" class="node">
<title>9</title>
<g id="a_node10"><a xlink:href="to_education administrator.svg" xlink:title="education administrator">
<ellipse fill="none" stroke="black" cx="1209" cy="-105" rx="95.58" ry="18"/>
<text text-anchor="middle" x="1209" y="-101.3" font-family="Times New Roman,serif" font-size="14.00">education administrator</text>
</a>
</g>
</g>
<!-- 9&#45;&gt;0 -->
<g id="edge10" class="edge">
<title>9&#45;&gt;0</title>
<path fill="none" stroke="black" d="M1149.36,-90.94C1096.83,-79.81 1018.13,-64.07 949,-54 854.99,-40.3 746.03,-30.35 674.76,-24.64"/>
<polygon fill="black" stroke="black" points="674.77,-21.13 664.52,-23.83 674.22,-28.11 674.77,-21.13"/>
<text text-anchor="middle" x="1050.5" y="-57.8" font-family="Times New Roman,serif" font-size="14.00">0.015</text>
</g>
</g>
</svg>
