<?xml version="1.0" encoding="UTF-8" standalone="no"?>
<!DOCTYPE svg PUBLIC "-//W3C//DTD SVG 1.1//EN"
 "http://www.w3.org/Graphics/SVG/1.1/DTD/svg11.dtd">
<!-- Generated by graphviz version 2.44.1 (20200629.0800)
 -->
<!-- Title: hydrologist Pages: 1 -->
<svg width="1329pt" height="131pt"
 viewBox="0.00 0.00 1329.29 131.00" xmlns="http://www.w3.org/2000/svg" xmlns:xlink="http://www.w3.org/1999/xlink">
<g id="graph0" class="graph" transform="scale(1 1) rotate(0) translate(4 127)">
<title>hydrologist</title>
<polygon fill="white" stroke="transparent" points="-4,4 -4,-127 1325.29,-127 1325.29,4 -4,4"/>
<!-- 0 -->
<g id="node1" class="node">
<title>0</title>
<g id="a_node1"><a xlink:href="to_lecturer.svg" xlink:title="lecturer">
<ellipse fill="none" stroke="black" cx="37.7" cy="-105" rx="37.89" ry="18"/>
<text text-anchor="middle" x="37.7" y="-101.3" font-family="Times New Roman,serif" font-size="14.00">lecturer</text>
</a>
</g>
</g>
<!-- 1 -->
<g id="node2" class="node">
<title>1</title>
<g id="a_node2"><a xlink:href="to_hydrologist.svg" xlink:title="hydrologist">
<ellipse fill="none" stroke="black" cx="688.7" cy="-18" rx="51.99" ry="18"/>
<text text-anchor="middle" x="688.7" y="-14.3" font-family="Times New Roman,serif" font-size="14.00">hydrologist</text>
</a>
</g>
</g>
<!-- 0&#45;&gt;1 -->
<g id="edge1" class="edge">
<title>0&#45;&gt;1</title>
<path fill="none" stroke="black" d="M65.61,-92.59C71.51,-90.49 77.75,-88.49 83.7,-87 277.84,-38.22 515.85,-24.4 626.57,-20.51"/>
<polygon fill="black" stroke="black" points="627,-23.99 636.88,-20.16 626.76,-17 627,-23.99"/>
<text text-anchor="middle" x="263.2" y="-57.8" font-family="Times New Roman,serif" font-size="14.00">0.130</text>
</g>
<!-- 1&#45;&gt;1 -->
<g id="edge9" class="edge">
<title>1&#45;&gt;1</title>
<path fill="none" stroke="black" d="M735.8,-25.83C748.78,-25.45 758.69,-22.84 758.69,-18 758.69,-14.52 753.57,-12.2 745.87,-11.02"/>
<polygon fill="black" stroke="black" points="746.06,-7.53 735.8,-10.17 745.47,-14.5 746.06,-7.53"/>
<text text-anchor="middle" x="774.19" y="-14.3" font-family="Times New Roman,serif" font-size="14.00">0.043</text>
</g>
<!-- 2 -->
<g id="node3" class="node">
<title>2</title>
<g id="a_node3"><a xlink:href="to_research scientist.svg" xlink:title="research scientist">
<ellipse fill="none" stroke="black" cx="165.7" cy="-105" rx="72.59" ry="18"/>
<text text-anchor="middle" x="165.7" y="-101.3" font-family="Times New Roman,serif" font-size="14.00">research scientist</text>
</a>
</g>
</g>
<!-- 2&#45;&gt;1 -->
<g id="edge2" class="edge">
<title>2&#45;&gt;1</title>
<path fill="none" stroke="black" d="M218.34,-92.56C227.77,-90.62 237.51,-88.69 246.7,-87 384.09,-61.7 546.7,-38.37 631.21,-26.74"/>
<polygon fill="black" stroke="black" points="631.69,-30.21 641.12,-25.38 630.74,-23.27 631.69,-30.21"/>
<text text-anchor="middle" x="456.2" y="-57.8" font-family="Times New Roman,serif" font-size="14.00">0.086</text>
</g>
<!-- 3 -->
<g id="node4" class="node">
<title>3</title>
<g id="a_node4"><a xlink:href="to_structural engineer.svg" xlink:title="structural engineer">
<ellipse fill="none" stroke="black" cx="332.7" cy="-105" rx="76.89" ry="18"/>
<text text-anchor="middle" x="332.7" y="-101.3" font-family="Times New Roman,serif" font-size="14.00">structural engineer</text>
</a>
</g>
</g>
<!-- 3&#45;&gt;1 -->
<g id="edge3" class="edge">
<title>3&#45;&gt;1</title>
<path fill="none" stroke="black" d="M384.46,-91.64C452.05,-75.5 569.68,-47.42 637.16,-31.3"/>
<polygon fill="black" stroke="black" points="638.23,-34.65 647.14,-28.92 636.6,-27.84 638.23,-34.65"/>
<text text-anchor="middle" x="548.2" y="-57.8" font-family="Times New Roman,serif" font-size="14.00">0.086</text>
</g>
<!-- 4 -->
<g id="node5" class="node">
<title>4</title>
<g id="a_node5"><a xlink:href="to_agricultural consultant.svg" xlink:title="agricultural consultant">
<ellipse fill="none" stroke="black" cx="516.7" cy="-105" rx="89.88" ry="18"/>
<text text-anchor="middle" x="516.7" y="-101.3" font-family="Times New Roman,serif" font-size="14.00">agricultural consultant</text>
</a>
</g>
</g>
<!-- 4&#45;&gt;1 -->
<g id="edge4" class="edge">
<title>4&#45;&gt;1</title>
<path fill="none" stroke="black" d="M549.05,-88.01C578.06,-73.67 620.64,-52.63 651.15,-37.56"/>
<polygon fill="black" stroke="black" points="652.79,-40.65 660.2,-33.08 649.68,-34.38 652.79,-40.65"/>
<text text-anchor="middle" x="629.2" y="-57.8" font-family="Times New Roman,serif" font-size="14.00">0.043</text>
</g>
<!-- 5 -->
<g id="node6" class="node">
<title>5</title>
<g id="a_node6"><a xlink:href="to_barristers clerk.svg" xlink:title="barristers clerk">
<ellipse fill="none" stroke="black" cx="688.7" cy="-105" rx="64.19" ry="18"/>
<text text-anchor="middle" x="688.7" y="-101.3" font-family="Times New Roman,serif" font-size="14.00">barristers clerk</text>
</a>
</g>
</g>
<!-- 5&#45;&gt;1 -->
<g id="edge5" class="edge">
<title>5&#45;&gt;1</title>
<path fill="none" stroke="black" d="M688.7,-86.8C688.7,-75.16 688.7,-59.55 688.7,-46.24"/>
<polygon fill="black" stroke="black" points="692.2,-46.18 688.7,-36.18 685.2,-46.18 692.2,-46.18"/>
<text text-anchor="middle" x="704.2" y="-57.8" font-family="Times New Roman,serif" font-size="14.00">0.043</text>
</g>
<!-- 6 -->
<g id="node7" class="node">
<title>6</title>
<g id="a_node7"><a xlink:href="to_cartographer.svg" xlink:title="cartographer">
<ellipse fill="none" stroke="black" cx="827.7" cy="-105" rx="56.59" ry="18"/>
<text text-anchor="middle" x="827.7" y="-101.3" font-family="Times New Roman,serif" font-size="14.00">cartographer</text>
</a>
</g>
</g>
<!-- 6&#45;&gt;1 -->
<g id="edge6" class="edge">
<title>6&#45;&gt;1</title>
<path fill="none" stroke="black" d="M802.85,-88.8C780.31,-75.02 746.92,-54.6 722.07,-39.41"/>
<polygon fill="black" stroke="black" points="723.69,-36.3 713.33,-34.06 720.04,-42.27 723.69,-36.3"/>
<text text-anchor="middle" x="782.2" y="-57.8" font-family="Times New Roman,serif" font-size="14.00">0.043</text>
</g>
<!-- 7 -->
<g id="node8" class="node">
<title>7</title>
<g id="a_node8"><a xlink:href="to_commercial horticulturist.svg" xlink:title="commercial horticulturist">
<ellipse fill="none" stroke="black" cx="1002.7" cy="-105" rx="100.98" ry="18"/>
<text text-anchor="middle" x="1002.7" y="-101.3" font-family="Times New Roman,serif" font-size="14.00">commercial horticulturist</text>
</a>
</g>
</g>
<!-- 7&#45;&gt;1 -->
<g id="edge7" class="edge">
<title>7&#45;&gt;1</title>
<path fill="none" stroke="black" d="M949.79,-89.68C890.76,-73.7 796,-48.05 738.34,-32.44"/>
<polygon fill="black" stroke="black" points="738.93,-28.97 728.37,-29.74 737.1,-35.73 738.93,-28.97"/>
<text text-anchor="middle" x="879.2" y="-57.8" font-family="Times New Roman,serif" font-size="14.00">0.043</text>
</g>
<!-- 8 -->
<g id="node9" class="node">
<title>8</title>
<g id="a_node9"><a xlink:href="to_curator.svg" xlink:title="curator">
<ellipse fill="none" stroke="black" cx="1157.7" cy="-105" rx="36.29" ry="18"/>
<text text-anchor="middle" x="1157.7" y="-101.3" font-family="Times New Roman,serif" font-size="14.00">curator</text>
</a>
</g>
</g>
<!-- 8&#45;&gt;1 -->
<g id="edge8" class="edge">
<title>8&#45;&gt;1</title>
<path fill="none" stroke="black" d="M1130.38,-92.67C1124.61,-90.57 1118.51,-88.55 1112.7,-87 985.1,-53.04 831.11,-33.52 748.32,-24.72"/>
<polygon fill="black" stroke="black" points="748.65,-21.23 738.34,-23.67 747.92,-28.2 748.65,-21.23"/>
<text text-anchor="middle" x="1048.2" y="-57.8" font-family="Times New Roman,serif" font-size="14.00">0.043</text>
</g>
<!-- 9 -->
<g id="node10" class="node">
<title>9</title>
<g id="a_node10"><a xlink:href="to_it consultant.svg" xlink:title="it consultant">
<ellipse fill="none" stroke="black" cx="1266.7" cy="-105" rx="54.69" ry="18"/>
<text text-anchor="middle" x="1266.7" y="-101.3" font-family="Times New Roman,serif" font-size="14.00">it consultant</text>
</a>
</g>
</g>
<!-- 9&#45;&gt;1 -->
<g id="edge10" class="edge">
<title>9&#45;&gt;1</title>
<path fill="none" stroke="black" d="M1225.76,-93C1218.1,-90.97 1210.16,-88.9 1202.7,-87 1142.85,-71.74 1128.62,-64.2 1067.7,-54 956.59,-35.4 825.39,-26.05 750.13,-21.88"/>
<polygon fill="black" stroke="black" points="750.06,-18.37 739.89,-21.32 749.68,-25.36 750.06,-18.37"/>
<text text-anchor="middle" x="1150.2" y="-57.8" font-family="Times New Roman,serif" font-size="14.00">0.043</text>
</g>
</g>
</svg>
