<?xml version="1.0" encoding="UTF-8" standalone="no"?>
<!DOCTYPE svg PUBLIC "-//W3C//DTD SVG 1.1//EN"
 "http://www.w3.org/Graphics/SVG/1.1/DTD/svg11.dtd">
<!-- Generated by graphviz version 2.44.1 (20200629.0800)
 -->
<!-- Title: test Pages: 1 -->
<svg width="1578pt" height="131pt"
 viewBox="0.00 0.00 1578.28 131.00" xmlns="http://www.w3.org/2000/svg" xmlns:xlink="http://www.w3.org/1999/xlink">
<g id="graph0" class="graph" transform="scale(1 1) rotate(0) translate(4 127)">
<title>test</title>
<polygon fill="white" stroke="transparent" points="-4,4 -4,-127 1574.28,-127 1574.28,4 -4,4"/>
<!-- 0 -->
<g id="node1" class="node">
<title>0</title>
<g id="a_node1"><a xlink:href="to_pharmacovigilance officer.svg" xlink:title="pharmacovigilance officer">
<ellipse fill="none" stroke="black" cx="104.64" cy="-105" rx="104.78" ry="18"/>
<text text-anchor="middle" x="104.64" y="-101.3" font-family="Times New Roman,serif" font-size="14.00">pharmacovigilance officer</text>
</a>
</g>
</g>
<!-- 1 -->
<g id="node2" class="node">
<title>1</title>
<g id="a_node2"><a xlink:href="to_housing adviser.svg" xlink:title="housing adviser">
<ellipse fill="none" stroke="black" cx="795.64" cy="-18" rx="67.69" ry="18"/>
<text text-anchor="middle" x="795.64" y="-14.3" font-family="Times New Roman,serif" font-size="14.00">housing adviser</text>
</a>
</g>
</g>
<!-- 0&#45;&gt;1 -->
<g id="edge1" class="edge">
<title>0&#45;&gt;1</title>
<path fill="none" stroke="black" d="M180.67,-92.57C193.34,-90.69 206.36,-88.78 218.64,-87 323.02,-71.89 348.94,-66.7 453.64,-54 546.21,-42.77 653.16,-32.21 722.47,-25.69"/>
<polygon fill="black" stroke="black" points="723.21,-29.13 732.84,-24.71 722.56,-22.16 723.21,-29.13"/>
<text text-anchor="middle" x="469.14" y="-57.8" font-family="Times New Roman,serif" font-size="14.00">0.070</text>
</g>
<!-- 1&#45;&gt;1 -->
<g id="edge2" class="edge">
<title>1&#45;&gt;1</title>
<path fill="none" stroke="black" d="M856.81,-25.7C870.89,-25.04 881.23,-22.47 881.23,-18 881.23,-14.68 875.54,-12.41 866.84,-11.19"/>
<polygon fill="black" stroke="black" points="867.08,-7.7 856.81,-10.3 866.46,-14.67 867.08,-7.7"/>
<text text-anchor="middle" x="896.73" y="-14.3" font-family="Times New Roman,serif" font-size="14.00">0.060</text>
</g>
<!-- 2 -->
<g id="node3" class="node">
<title>2</title>
<g id="a_node3"><a xlink:href="to_production manager.svg" xlink:title="production manager">
<ellipse fill="none" stroke="black" cx="310.64" cy="-105" rx="83.39" ry="18"/>
<text text-anchor="middle" x="310.64" y="-101.3" font-family="Times New Roman,serif" font-size="14.00">production manager</text>
</a>
</g>
</g>
<!-- 2&#45;&gt;1 -->
<g id="edge3" class="edge">
<title>2&#45;&gt;1</title>
<path fill="none" stroke="black" d="M368.01,-91.96C419.4,-81.35 496.9,-65.79 564.64,-54 619.07,-44.52 680.97,-35.22 726.98,-28.6"/>
<polygon fill="black" stroke="black" points="727.74,-32.02 737.14,-27.14 726.74,-25.09 727.74,-32.02"/>
<text text-anchor="middle" x="580.14" y="-57.8" font-family="Times New Roman,serif" font-size="14.00">0.050</text>
</g>
<!-- 3 -->
<g id="node4" class="node">
<title>3</title>
<g id="a_node4"><a xlink:href="to_it consultant.svg" xlink:title="it consultant">
<ellipse fill="none" stroke="black" cx="466.64" cy="-105" rx="54.69" ry="18"/>
<text text-anchor="middle" x="466.64" y="-101.3" font-family="Times New Roman,serif" font-size="14.00">it consultant</text>
</a>
</g>
</g>
<!-- 3&#45;&gt;1 -->
<g id="edge4" class="edge">
<title>3&#45;&gt;1</title>
<path fill="none" stroke="black" d="M507.3,-92.98C514.73,-90.98 522.41,-88.92 529.64,-87 585.59,-72.13 599.56,-68.35 655.64,-54 682.75,-47.06 712.84,-39.52 738.17,-33.21"/>
<polygon fill="black" stroke="black" points="739.12,-36.58 747.98,-30.77 737.43,-29.79 739.12,-36.58"/>
<text text-anchor="middle" x="671.14" y="-57.8" font-family="Times New Roman,serif" font-size="14.00">0.045</text>
</g>
<!-- 4 -->
<g id="node5" class="node">
<title>4</title>
<g id="a_node5"><a xlink:href="to_project manager.svg" xlink:title="project manager">
<ellipse fill="none" stroke="black" cx="607.64" cy="-105" rx="68.79" ry="18"/>
<text text-anchor="middle" x="607.64" y="-101.3" font-family="Times New Roman,serif" font-size="14.00">project manager</text>
</a>
</g>
</g>
<!-- 4&#45;&gt;1 -->
<g id="edge5" class="edge">
<title>4&#45;&gt;1</title>
<path fill="none" stroke="black" d="M640.82,-89C672.23,-74.8 719.52,-53.42 753.57,-38.02"/>
<polygon fill="black" stroke="black" points="755.12,-41.16 762.79,-33.85 752.24,-34.78 755.12,-41.16"/>
<text text-anchor="middle" x="729.14" y="-57.8" font-family="Times New Roman,serif" font-size="14.00">0.045</text>
</g>
<!-- 5 -->
<g id="node6" class="node">
<title>5</title>
<g id="a_node6"><a xlink:href="to_investment fund manager.svg" xlink:title="investment fund manager">
<ellipse fill="none" stroke="black" cx="795.64" cy="-105" rx="100.98" ry="18"/>
<text text-anchor="middle" x="795.64" y="-101.3" font-family="Times New Roman,serif" font-size="14.00">investment fund manager</text>
</a>
</g>
</g>
<!-- 5&#45;&gt;1 -->
<g id="edge6" class="edge">
<title>5&#45;&gt;1</title>
<path fill="none" stroke="black" d="M795.64,-86.8C795.64,-75.16 795.64,-59.55 795.64,-46.24"/>
<polygon fill="black" stroke="black" points="799.14,-46.18 795.64,-36.18 792.14,-46.18 799.14,-46.18"/>
<text text-anchor="middle" x="811.14" y="-57.8" font-family="Times New Roman,serif" font-size="14.00">0.030</text>
</g>
<!-- 6 -->
<g id="node7" class="node">
<title>6</title>
<g id="a_node7"><a xlink:href="to_financial manager.svg" xlink:title="financial manager">
<ellipse fill="none" stroke="black" cx="987.64" cy="-105" rx="73.39" ry="18"/>
<text text-anchor="middle" x="987.64" y="-101.3" font-family="Times New Roman,serif" font-size="14.00">financial manager</text>
</a>
</g>
</g>
<!-- 6&#45;&gt;1 -->
<g id="edge7" class="edge">
<title>6&#45;&gt;1</title>
<path fill="none" stroke="black" d="M953.76,-89C921.58,-74.75 873.08,-53.28 838.29,-37.88"/>
<polygon fill="black" stroke="black" points="839.43,-34.56 828.86,-33.71 836.59,-40.96 839.43,-34.56"/>
<text text-anchor="middle" x="919.14" y="-57.8" font-family="Times New Roman,serif" font-size="14.00">0.025</text>
</g>
<!-- 7 -->
<g id="node8" class="node">
<title>7</title>
<g id="a_node8"><a xlink:href="to_heritage manager.svg" xlink:title="heritage manager">
<ellipse fill="none" stroke="black" cx="1150.64" cy="-105" rx="71.49" ry="18"/>
<text text-anchor="middle" x="1150.64" y="-101.3" font-family="Times New Roman,serif" font-size="14.00">heritage manager</text>
</a>
</g>
</g>
<!-- 7&#45;&gt;1 -->
<g id="edge8" class="edge">
<title>7&#45;&gt;1</title>
<path fill="none" stroke="black" d="M1100.53,-92C1035.59,-76.45 922.56,-49.39 853.87,-32.94"/>
<polygon fill="black" stroke="black" points="854.61,-29.52 844.07,-30.6 852.98,-36.33 854.61,-29.52"/>
<text text-anchor="middle" x="1010.14" y="-57.8" font-family="Times New Roman,serif" font-size="14.00">0.025</text>
</g>
<!-- 8 -->
<g id="node9" class="node">
<title>8</title>
<g id="a_node9"><a xlink:href="to_office manager.svg" xlink:title="office manager">
<ellipse fill="none" stroke="black" cx="1304.64" cy="-105" rx="64.19" ry="18"/>
<text text-anchor="middle" x="1304.64" y="-101.3" font-family="Times New Roman,serif" font-size="14.00">office manager</text>
</a>
</g>
</g>
<!-- 8&#45;&gt;1 -->
<g id="edge9" class="edge">
<title>8&#45;&gt;1</title>
<path fill="none" stroke="black" d="M1257.36,-92.67C1248.5,-90.68 1239.31,-88.7 1230.64,-87 1102.22,-61.73 951,-39.85 864.91,-28.12"/>
<polygon fill="black" stroke="black" points="865.38,-24.65 855,-26.78 864.44,-31.59 865.38,-24.65"/>
<text text-anchor="middle" x="1139.14" y="-57.8" font-family="Times New Roman,serif" font-size="14.00">0.025</text>
</g>
<!-- 9 -->
<g id="node10" class="node">
<title>9</title>
<g id="a_node10"><a xlink:href="to_programme researcher.svg" xlink:title="programme researcher">
<ellipse fill="none" stroke="black" cx="1478.64" cy="-105" rx="91.78" ry="18"/>
<text text-anchor="middle" x="1478.64" y="-101.3" font-family="Times New Roman,serif" font-size="14.00">programme researcher</text>
</a>
</g>
</g>
<!-- 9&#45;&gt;1 -->
<g id="edge10" class="edge">
<title>9&#45;&gt;1</title>
<path fill="none" stroke="black" d="M1411.84,-92.59C1400.44,-90.69 1388.7,-88.76 1377.64,-87 1280.44,-71.5 1256.33,-66.06 1158.64,-54 1058.72,-41.66 942.87,-31.15 869.43,-24.95"/>
<polygon fill="black" stroke="black" points="869.62,-21.45 859.36,-24.11 869.03,-28.43 869.62,-21.45"/>
<text text-anchor="middle" x="1280.14" y="-57.8" font-family="Times New Roman,serif" font-size="14.00">0.025</text>
</g>
</g>
</svg>
