<?xml version="1.0" encoding="UTF-8" standalone="no"?>
<!DOCTYPE svg PUBLIC "-//W3C//DTD SVG 1.1//EN"
 "http://www.w3.org/Graphics/SVG/1.1/DTD/svg11.dtd">
<!-- Generated by graphviz version 2.44.1 (20200629.0800)
 -->
<!-- Title: hotel_manager Pages: 1 -->
<svg width="1531pt" height="131pt"
 viewBox="0.00 0.00 1531.29 131.00" xmlns="http://www.w3.org/2000/svg" xmlns:xlink="http://www.w3.org/1999/xlink">
<g id="graph0" class="graph" transform="scale(1 1) rotate(0) translate(4 127)">
<title>hotel_manager</title>
<polygon fill="white" stroke="transparent" points="-4,4 -4,-127 1527.29,-127 1527.29,4 -4,4"/>
<!-- 0 -->
<g id="node1" class="node">
<title>0</title>
<g id="a_node1"><a xlink:href="to_it consultant.svg" xlink:title="it consultant">
<ellipse fill="none" stroke="black" cx="54.6" cy="-105" rx="54.69" ry="18"/>
<text text-anchor="middle" x="54.6" y="-101.3" font-family="Times New Roman,serif" font-size="14.00">it consultant</text>
</a>
</g>
</g>
<!-- 1 -->
<g id="node2" class="node">
<title>1</title>
<g id="a_node2"><a xlink:href="to_hotel manager.svg" xlink:title="hotel manager">
<ellipse fill="none" stroke="black" cx="727.6" cy="-18" rx="61.19" ry="18"/>
<text text-anchor="middle" x="727.6" y="-14.3" font-family="Times New Roman,serif" font-size="14.00">hotel manager</text>
</a>
</g>
</g>
<!-- 0&#45;&gt;1 -->
<g id="edge1" class="edge">
<title>0&#45;&gt;1</title>
<path fill="none" stroke="black" d="M94.07,-92.55C101.83,-90.53 109.94,-88.57 117.6,-87 310.88,-47.39 543.68,-29.5 657.72,-22.64"/>
<polygon fill="black" stroke="black" points="657.94,-26.13 667.72,-22.05 657.53,-19.15 657.94,-26.13"/>
<text text-anchor="middle" x="333.1" y="-57.8" font-family="Times New Roman,serif" font-size="14.00">0.142</text>
</g>
<!-- 1&#45;&gt;1 -->
<g id="edge2" class="edge">
<title>1&#45;&gt;1</title>
<path fill="none" stroke="black" d="M783.03,-25.75C796.6,-25.18 806.69,-22.59 806.69,-18 806.69,-14.66 801.36,-12.39 793.25,-11.17"/>
<polygon fill="black" stroke="black" points="793.31,-7.66 783.03,-10.25 792.68,-14.63 793.31,-7.66"/>
<text text-anchor="middle" x="822.19" y="-14.3" font-family="Times New Roman,serif" font-size="14.00">0.135</text>
</g>
<!-- 2 -->
<g id="node3" class="node">
<title>2</title>
<g id="a_node3"><a xlink:href="to_project manager.svg" xlink:title="project manager">
<ellipse fill="none" stroke="black" cx="195.6" cy="-105" rx="68.79" ry="18"/>
<text text-anchor="middle" x="195.6" y="-101.3" font-family="Times New Roman,serif" font-size="14.00">project manager</text>
</a>
</g>
</g>
<!-- 2&#45;&gt;1 -->
<g id="edge3" class="edge">
<title>2&#45;&gt;1</title>
<path fill="none" stroke="black" d="M245.87,-92.67C255.08,-90.7 264.61,-88.73 273.6,-87 410.97,-60.48 573.43,-38.36 661.97,-27.07"/>
<polygon fill="black" stroke="black" points="662.65,-30.51 672.13,-25.78 661.77,-23.57 662.65,-30.51"/>
<text text-anchor="middle" x="476.1" y="-57.8" font-family="Times New Roman,serif" font-size="14.00">0.060</text>
</g>
<!-- 3 -->
<g id="node4" class="node">
<title>3</title>
<g id="a_node4"><a xlink:href="to_office manager.svg" xlink:title="office manager">
<ellipse fill="none" stroke="black" cx="346.6" cy="-105" rx="64.19" ry="18"/>
<text text-anchor="middle" x="346.6" y="-101.3" font-family="Times New Roman,serif" font-size="14.00">office manager</text>
</a>
</g>
</g>
<!-- 3&#45;&gt;1 -->
<g id="edge4" class="edge">
<title>3&#45;&gt;1</title>
<path fill="none" stroke="black" d="M394.09,-92.86C402.58,-90.89 411.35,-88.87 419.6,-87 506.86,-67.21 608.21,-44.98 670.11,-31.49"/>
<polygon fill="black" stroke="black" points="671.04,-34.86 680.07,-29.31 669.55,-28.02 671.04,-34.86"/>
<text text-anchor="middle" x="579.1" y="-57.8" font-family="Times New Roman,serif" font-size="14.00">0.045</text>
</g>
<!-- 4 -->
<g id="node5" class="node">
<title>4</title>
<g id="a_node5"><a xlink:href="to_pharmacovigilance officer.svg" xlink:title="pharmacovigilance officer">
<ellipse fill="none" stroke="black" cx="533.6" cy="-105" rx="104.78" ry="18"/>
<text text-anchor="middle" x="533.6" y="-101.3" font-family="Times New Roman,serif" font-size="14.00">pharmacovigilance officer</text>
</a>
</g>
</g>
<!-- 4&#45;&gt;1 -->
<g id="edge5" class="edge">
<title>4&#45;&gt;1</title>
<path fill="none" stroke="black" d="M570.09,-88.01C602.89,-73.64 651.07,-52.53 685.5,-37.44"/>
<polygon fill="black" stroke="black" points="687.07,-40.58 694.82,-33.36 684.26,-34.17 687.07,-40.58"/>
<text text-anchor="middle" x="658.1" y="-57.8" font-family="Times New Roman,serif" font-size="14.00">0.045</text>
</g>
<!-- 5 -->
<g id="node6" class="node">
<title>5</title>
<g id="a_node6"><a xlink:href="to_catering manager.svg" xlink:title="catering manager">
<ellipse fill="none" stroke="black" cx="727.6" cy="-105" rx="71.49" ry="18"/>
<text text-anchor="middle" x="727.6" y="-101.3" font-family="Times New Roman,serif" font-size="14.00">catering manager</text>
</a>
</g>
</g>
<!-- 5&#45;&gt;1 -->
<g id="edge6" class="edge">
<title>5&#45;&gt;1</title>
<path fill="none" stroke="black" d="M727.6,-86.8C727.6,-75.16 727.6,-59.55 727.6,-46.24"/>
<polygon fill="black" stroke="black" points="731.1,-46.18 727.6,-36.18 724.1,-46.18 731.1,-46.18"/>
<text text-anchor="middle" x="743.1" y="-57.8" font-family="Times New Roman,serif" font-size="14.00">0.037</text>
</g>
<!-- 6 -->
<g id="node7" class="node">
<title>6</title>
<g id="a_node7"><a xlink:href="to_investment analyst.svg" xlink:title="investment analyst">
<ellipse fill="none" stroke="black" cx="893.6" cy="-105" rx="76.89" ry="18"/>
<text text-anchor="middle" x="893.6" y="-101.3" font-family="Times New Roman,serif" font-size="14.00">investment analyst</text>
</a>
</g>
</g>
<!-- 6&#45;&gt;1 -->
<g id="edge7" class="edge">
<title>6&#45;&gt;1</title>
<path fill="none" stroke="black" d="M863.15,-88.41C835.78,-74.4 795.47,-53.76 765.92,-38.63"/>
<polygon fill="black" stroke="black" points="767.23,-35.36 756.74,-33.92 764.04,-41.59 767.23,-35.36"/>
<text text-anchor="middle" x="836.1" y="-57.8" font-family="Times New Roman,serif" font-size="14.00">0.037</text>
</g>
<!-- 7 -->
<g id="node8" class="node">
<title>7</title>
<g id="a_node8"><a xlink:href="to_sales manager.svg" xlink:title="sales manager">
<ellipse fill="none" stroke="black" cx="1049.6" cy="-105" rx="61.19" ry="18"/>
<text text-anchor="middle" x="1049.6" y="-101.3" font-family="Times New Roman,serif" font-size="14.00">sales manager</text>
</a>
</g>
</g>
<!-- 7&#45;&gt;1 -->
<g id="edge8" class="edge">
<title>7&#45;&gt;1</title>
<path fill="none" stroke="black" d="M1005.5,-92.36C947.05,-76.93 844,-49.73 781.15,-33.14"/>
<polygon fill="black" stroke="black" points="781.98,-29.74 771.42,-30.57 780.19,-36.5 781.98,-29.74"/>
<text text-anchor="middle" x="924.1" y="-57.8" font-family="Times New Roman,serif" font-size="14.00">0.037</text>
</g>
<!-- 8 -->
<g id="node9" class="node">
<title>8</title>
<g id="a_node9"><a xlink:href="to_human resources officer.svg" xlink:title="human resources officer">
<ellipse fill="none" stroke="black" cx="1227.6" cy="-105" rx="98.58" ry="18"/>
<text text-anchor="middle" x="1227.6" y="-101.3" font-family="Times New Roman,serif" font-size="14.00">human resources officer</text>
</a>
</g>
</g>
<!-- 8&#45;&gt;1 -->
<g id="edge9" class="edge">
<title>8&#45;&gt;1</title>
<path fill="none" stroke="black" d="M1159.93,-91.82C1102.42,-81.53 1017.64,-66.52 943.6,-54 891.93,-45.27 833.22,-35.78 790.07,-28.89"/>
<polygon fill="black" stroke="black" points="790.43,-25.41 780,-27.29 789.33,-32.32 790.43,-25.41"/>
<text text-anchor="middle" x="1044.1" y="-57.8" font-family="Times New Roman,serif" font-size="14.00">0.022</text>
</g>
<!-- 9 -->
<g id="node10" class="node">
<title>9</title>
<g id="a_node10"><a xlink:href="to_public house manager.svg" xlink:title="public house manager">
<ellipse fill="none" stroke="black" cx="1433.6" cy="-105" rx="89.88" ry="18"/>
<text text-anchor="middle" x="1433.6" y="-101.3" font-family="Times New Roman,serif" font-size="14.00">public house manager</text>
</a>
</g>
</g>
<!-- 9&#45;&gt;1 -->
<g id="edge10" class="edge">
<title>9&#45;&gt;1</title>
<path fill="none" stroke="black" d="M1369.36,-92.37C1358.12,-90.48 1346.53,-88.61 1335.6,-87 1140.2,-58.22 907.89,-35.37 795.37,-25.02"/>
<polygon fill="black" stroke="black" points="795.47,-21.52 785.19,-24.09 794.83,-28.49 795.47,-21.52"/>
<text text-anchor="middle" x="1218.1" y="-57.8" font-family="Times New Roman,serif" font-size="14.00">0.022</text>
</g>
</g>
</svg>
