<?xml version="1.0" encoding="UTF-8" standalone="no"?>
<!DOCTYPE svg PUBLIC "-//W3C//DTD SVG 1.1//EN"
 "http://www.w3.org/Graphics/SVG/1.1/DTD/svg11.dtd">
<!-- Generated by graphviz version 2.44.1 (20200629.0800)
 -->
<!-- Title: test Pages: 1 -->
<svg width="1406pt" height="131pt"
 viewBox="0.00 0.00 1406.18 131.00" xmlns="http://www.w3.org/2000/svg" xmlns:xlink="http://www.w3.org/1999/xlink">
<g id="graph0" class="graph" transform="scale(1 1) rotate(0) translate(4 127)">
<title>test</title>
<polygon fill="white" stroke="transparent" points="-4,4 -4,-127 1402.18,-127 1402.18,4 -4,4"/>
<!-- 0 -->
<g id="node1" class="node">
<title>0</title>
<g id="a_node1"><a xlink:href="to_human resources officer.svg" xlink:title="human resources officer">
<ellipse fill="none" stroke="black" cx="696.64" cy="-18" rx="98.58" ry="18"/>
<text text-anchor="middle" x="696.64" y="-14.3" font-family="Times New Roman,serif" font-size="14.00">human resources officer</text>
</a>
</g>
</g>
<!-- 0&#45;&gt;0 -->
<g id="edge1" class="edge">
<title>0&#45;&gt;0</title>
<path fill="none" stroke="black" d="M786.74,-25.38C802.48,-24.4 813.43,-21.94 813.43,-18 813.43,-14.99 807.01,-12.84 796.94,-11.55"/>
<polygon fill="black" stroke="black" points="797.02,-8.05 786.74,-10.62 796.38,-15.02 797.02,-8.05"/>
<text text-anchor="middle" x="828.93" y="-14.3" font-family="Times New Roman,serif" font-size="14.00">0.327</text>
</g>
<!-- 1 -->
<g id="node2" class="node">
<title>1</title>
<g id="a_node2"><a xlink:href="to_pharmacovigilance officer.svg" xlink:title="pharmacovigilance officer">
<ellipse fill="none" stroke="black" cx="104.64" cy="-105" rx="104.78" ry="18"/>
<text text-anchor="middle" x="104.64" y="-101.3" font-family="Times New Roman,serif" font-size="14.00">pharmacovigilance officer</text>
</a>
</g>
</g>
<!-- 1&#45;&gt;0 -->
<g id="edge2" class="edge">
<title>1&#45;&gt;0</title>
<path fill="none" stroke="black" d="M175.01,-91.68C236.95,-81.03 329.64,-65.57 410.64,-54 475.32,-44.76 548.46,-35.84 604.58,-29.31"/>
<polygon fill="black" stroke="black" points="605.32,-32.75 614.85,-28.12 604.52,-25.8 605.32,-32.75"/>
<text text-anchor="middle" x="426.14" y="-57.8" font-family="Times New Roman,serif" font-size="14.00">0.112</text>
</g>
<!-- 2 -->
<g id="node3" class="node">
<title>2</title>
<g id="a_node3"><a xlink:href="to_careers adviser.svg" xlink:title="careers adviser">
<ellipse fill="none" stroke="black" cx="292.64" cy="-105" rx="64.99" ry="18"/>
<text text-anchor="middle" x="292.64" y="-101.3" font-family="Times New Roman,serif" font-size="14.00">careers adviser</text>
</a>
</g>
</g>
<!-- 2&#45;&gt;0 -->
<g id="edge3" class="edge">
<title>2&#45;&gt;0</title>
<path fill="none" stroke="black" d="M340.8,-92.9C349.4,-90.93 358.29,-88.9 366.64,-87 431.94,-72.17 448.08,-67.62 513.64,-54 548.37,-46.78 586.92,-39.33 619.65,-33.16"/>
<polygon fill="black" stroke="black" points="620.43,-36.58 629.61,-31.29 619.14,-29.7 620.43,-36.58"/>
<text text-anchor="middle" x="529.14" y="-57.8" font-family="Times New Roman,serif" font-size="14.00">0.066</text>
</g>
<!-- 3 -->
<g id="node4" class="node">
<title>3</title>
<g id="a_node4"><a xlink:href="to_it consultant.svg" xlink:title="it consultant">
<ellipse fill="none" stroke="black" cx="430.64" cy="-105" rx="54.69" ry="18"/>
<text text-anchor="middle" x="430.64" y="-101.3" font-family="Times New Roman,serif" font-size="14.00">it consultant</text>
</a>
</g>
</g>
<!-- 3&#45;&gt;0 -->
<g id="edge4" class="edge">
<title>3&#45;&gt;0</title>
<path fill="none" stroke="black" d="M468.47,-91.91C513.34,-77.57 588.56,-53.54 640.29,-37.01"/>
<polygon fill="black" stroke="black" points="641.53,-40.29 649.99,-33.91 639.4,-33.62 641.53,-40.29"/>
<text text-anchor="middle" x="595.14" y="-57.8" font-family="Times New Roman,serif" font-size="14.00">0.056</text>
</g>
<!-- 4 -->
<g id="node5" class="node">
<title>4</title>
<g id="a_node5"><a xlink:href="to_project manager.svg" xlink:title="project manager">
<ellipse fill="none" stroke="black" cx="571.64" cy="-105" rx="68.79" ry="18"/>
<text text-anchor="middle" x="571.64" y="-101.3" font-family="Times New Roman,serif" font-size="14.00">project manager</text>
</a>
</g>
</g>
<!-- 4&#45;&gt;0 -->
<g id="edge5" class="edge">
<title>4&#45;&gt;0</title>
<path fill="none" stroke="black" d="M595.15,-88.01C614.55,-74.82 642.28,-55.97 663.85,-41.3"/>
<polygon fill="black" stroke="black" points="666.08,-44.01 672.38,-35.5 662.14,-38.22 666.08,-44.01"/>
<text text-anchor="middle" x="657.14" y="-57.8" font-family="Times New Roman,serif" font-size="14.00">0.046</text>
</g>
<!-- 5 -->
<g id="node6" class="node">
<title>5</title>
<g id="a_node6"><a xlink:href="to_lecturer.svg" xlink:title="lecturer">
<ellipse fill="none" stroke="black" cx="696.64" cy="-105" rx="37.89" ry="18"/>
<text text-anchor="middle" x="696.64" y="-101.3" font-family="Times New Roman,serif" font-size="14.00">lecturer</text>
</a>
</g>
</g>
<!-- 5&#45;&gt;0 -->
<g id="edge6" class="edge">
<title>5&#45;&gt;0</title>
<path fill="none" stroke="black" d="M696.64,-86.8C696.64,-75.16 696.64,-59.55 696.64,-46.24"/>
<polygon fill="black" stroke="black" points="700.14,-46.18 696.64,-36.18 693.14,-46.18 700.14,-46.18"/>
<text text-anchor="middle" x="712.14" y="-57.8" font-family="Times New Roman,serif" font-size="14.00">0.019</text>
</g>
<!-- 6 -->
<g id="node7" class="node">
<title>6</title>
<g id="a_node7"><a xlink:href="to_office manager.svg" xlink:title="office manager">
<ellipse fill="none" stroke="black" cx="816.64" cy="-105" rx="64.19" ry="18"/>
<text text-anchor="middle" x="816.64" y="-101.3" font-family="Times New Roman,serif" font-size="14.00">office manager</text>
</a>
</g>
</g>
<!-- 6&#45;&gt;0 -->
<g id="edge7" class="edge">
<title>6&#45;&gt;0</title>
<path fill="none" stroke="black" d="M794.07,-88.01C775.45,-74.82 748.83,-55.97 728.12,-41.3"/>
<polygon fill="black" stroke="black" points="730.11,-38.42 719.93,-35.5 726.07,-44.13 730.11,-38.42"/>
<text text-anchor="middle" x="780.14" y="-57.8" font-family="Times New Roman,serif" font-size="14.00">0.016</text>
</g>
<!-- 7 -->
<g id="node8" class="node">
<title>7</title>
<g id="a_node8"><a xlink:href="to_personal assistant.svg" xlink:title="personal assistant">
<ellipse fill="none" stroke="black" cx="973.64" cy="-105" rx="74.99" ry="18"/>
<text text-anchor="middle" x="973.64" y="-101.3" font-family="Times New Roman,serif" font-size="14.00">personal assistant</text>
</a>
</g>
</g>
<!-- 7&#45;&gt;0 -->
<g id="edge8" class="edge">
<title>7&#45;&gt;0</title>
<path fill="none" stroke="black" d="M929.44,-90.44C882.09,-75.91 806.73,-52.78 754.64,-36.8"/>
<polygon fill="black" stroke="black" points="755.46,-33.39 744.87,-33.8 753.4,-40.08 755.46,-33.39"/>
<text text-anchor="middle" x="868.14" y="-57.8" font-family="Times New Roman,serif" font-size="14.00">0.016</text>
</g>
<!-- 8 -->
<g id="node9" class="node">
<title>8</title>
<g id="a_node9"><a xlink:href="to_sales manager.svg" xlink:title="sales manager">
<ellipse fill="none" stroke="black" cx="1127.64" cy="-105" rx="61.19" ry="18"/>
<text text-anchor="middle" x="1127.64" y="-101.3" font-family="Times New Roman,serif" font-size="14.00">sales manager</text>
</a>
</g>
</g>
<!-- 8&#45;&gt;0 -->
<g id="edge9" class="edge">
<title>8&#45;&gt;0</title>
<path fill="none" stroke="black" d="M1082.53,-92.72C1074.26,-90.74 1065.7,-88.76 1057.64,-87 961.24,-65.95 849.5,-45.5 776.17,-32.62"/>
<polygon fill="black" stroke="black" points="776.54,-29.13 766.09,-30.86 775.33,-36.03 776.54,-29.13"/>
<text text-anchor="middle" x="984.14" y="-57.8" font-family="Times New Roman,serif" font-size="14.00">0.016</text>
</g>
<!-- 9 -->
<g id="node10" class="node">
<title>9</title>
<g id="a_node10"><a xlink:href="to_education administrator.svg" xlink:title="education administrator">
<ellipse fill="none" stroke="black" cx="1302.64" cy="-105" rx="95.58" ry="18"/>
<text text-anchor="middle" x="1302.64" y="-101.3" font-family="Times New Roman,serif" font-size="14.00">education administrator</text>
</a>
</g>
</g>
<!-- 9&#45;&gt;0 -->
<g id="edge10" class="edge">
<title>9&#45;&gt;0</title>
<path fill="none" stroke="black" d="M1236.58,-91.94C1176.1,-81.13 1084.03,-65.3 1003.64,-54 932.56,-44.01 851.92,-34.9 791.13,-28.48"/>
<polygon fill="black" stroke="black" points="791.47,-25 781.16,-27.44 790.74,-31.96 791.47,-25"/>
<text text-anchor="middle" x="1109.14" y="-57.8" font-family="Times New Roman,serif" font-size="14.00">0.013</text>
</g>
</g>
</svg>
