<?xml version="1.0" encoding="UTF-8" standalone="no"?>
<!DOCTYPE svg PUBLIC "-//W3C//DTD SVG 1.1//EN"
 "http://www.w3.org/Graphics/SVG/1.1/DTD/svg11.dtd">
<!-- Generated by graphviz version 2.44.1 (20200629.0800)
 -->
<!-- Title: herbalist Pages: 1 -->
<svg width="620pt" height="131pt"
 viewBox="0.00 0.00 620.19 131.00" xmlns="http://www.w3.org/2000/svg" xmlns:xlink="http://www.w3.org/1999/xlink">
<g id="graph0" class="graph" transform="scale(1 1) rotate(0) translate(4 127)">
<title>herbalist</title>
<polygon fill="white" stroke="transparent" points="-4,4 -4,-127 616.19,-127 616.19,4 -4,4"/>
<!-- 0 -->
<g id="node1" class="node">
<title>0</title>
<g id="a_node1"><a xlink:href="to_it consultant.svg" xlink:title="it consultant">
<ellipse fill="none" stroke="black" cx="54.6" cy="-105" rx="54.69" ry="18"/>
<text text-anchor="middle" x="54.6" y="-101.3" font-family="Times New Roman,serif" font-size="14.00">it consultant</text>
</a>
</g>
</g>
<!-- 1 -->
<g id="node2" class="node">
<title>1</title>
<g id="a_node2"><a xlink:href="to_herbalist.svg" xlink:title="herbalist">
<ellipse fill="none" stroke="black" cx="297.6" cy="-18" rx="40.89" ry="18"/>
<text text-anchor="middle" x="297.6" y="-14.3" font-family="Times New Roman,serif" font-size="14.00">herbalist</text>
</a>
</g>
</g>
<!-- 0&#45;&gt;1 -->
<g id="edge1" class="edge">
<title>0&#45;&gt;1</title>
<path fill="none" stroke="black" d="M90.71,-91.37C135.27,-75.78 210.81,-49.36 257.24,-33.12"/>
<polygon fill="black" stroke="black" points="258.4,-36.42 266.68,-29.81 256.08,-29.81 258.4,-36.42"/>
<text text-anchor="middle" x="204.1" y="-57.8" font-family="Times New Roman,serif" font-size="14.00">0.25</text>
</g>
<!-- 2 -->
<g id="node3" class="node">
<title>2</title>
<g id="a_node3"><a xlink:href="to_production manager.svg" xlink:title="production manager">
<ellipse fill="none" stroke="black" cx="210.6" cy="-105" rx="83.39" ry="18"/>
<text text-anchor="middle" x="210.6" y="-101.3" font-family="Times New Roman,serif" font-size="14.00">production manager</text>
</a>
</g>
</g>
<!-- 2&#45;&gt;1 -->
<g id="edge2" class="edge">
<title>2&#45;&gt;1</title>
<path fill="none" stroke="black" d="M227.78,-87.21C241.11,-74.19 259.71,-56.01 274.36,-41.7"/>
<polygon fill="black" stroke="black" points="276.91,-44.1 281.62,-34.61 272.02,-39.1 276.91,-44.1"/>
<text text-anchor="middle" x="272.1" y="-57.8" font-family="Times New Roman,serif" font-size="14.00">0.25</text>
</g>
<!-- 3 -->
<g id="node4" class="node">
<title>3</title>
<g id="a_node4"><a xlink:href="to_teaching assistant.svg" xlink:title="teaching assistant">
<ellipse fill="none" stroke="black" cx="385.6" cy="-105" rx="73.39" ry="18"/>
<text text-anchor="middle" x="385.6" y="-101.3" font-family="Times New Roman,serif" font-size="14.00">teaching assistant</text>
</a>
</g>
</g>
<!-- 3&#45;&gt;1 -->
<g id="edge3" class="edge">
<title>3&#45;&gt;1</title>
<path fill="none" stroke="black" d="M368.21,-87.21C354.73,-74.19 335.91,-56.01 321.09,-41.7"/>
<polygon fill="black" stroke="black" points="323.38,-39.04 313.76,-34.61 318.52,-44.08 323.38,-39.04"/>
<text text-anchor="middle" x="360.1" y="-57.8" font-family="Times New Roman,serif" font-size="14.00">0.25</text>
</g>
<!-- 4 -->
<g id="node5" class="node">
<title>4</title>
<g id="a_node5"><a xlink:href="to_technical author.svg" xlink:title="technical author">
<ellipse fill="none" stroke="black" cx="544.6" cy="-105" rx="67.69" ry="18"/>
<text text-anchor="middle" x="544.6" y="-101.3" font-family="Times New Roman,serif" font-size="14.00">technical author</text>
</a>
</g>
</g>
<!-- 4&#45;&gt;1 -->
<g id="edge4" class="edge">
<title>4&#45;&gt;1</title>
<path fill="none" stroke="black" d="M504.91,-90.34C459.3,-74.65 384.81,-49.01 338.64,-33.12"/>
<polygon fill="black" stroke="black" points="339.55,-29.74 328.95,-29.79 337.27,-36.36 339.55,-29.74"/>
<text text-anchor="middle" x="448.1" y="-57.8" font-family="Times New Roman,serif" font-size="14.00">0.25</text>
</g>
</g>
</svg>
