<?xml version="1.0" encoding="UTF-8" standalone="no"?>
<!DOCTYPE svg PUBLIC "-//W3C//DTD SVG 1.1//EN"
 "http://www.w3.org/Graphics/SVG/1.1/DTD/svg11.dtd">
<!-- Generated by graphviz version 2.44.1 (20200629.0800)
 -->
<!-- Title: heritage_manager Pages: 1 -->
<svg width="1475pt" height="131pt"
 viewBox="0.00 0.00 1475.13 131.00" xmlns="http://www.w3.org/2000/svg" xmlns:xlink="http://www.w3.org/1999/xlink">
<g id="graph0" class="graph" transform="scale(1 1) rotate(0) translate(4 127)">
<title>heritage_manager</title>
<polygon fill="white" stroke="transparent" points="-4,4 -4,-127 1471.13,-127 1471.13,4 -4,4"/>
<!-- 0 -->
<g id="node1" class="node">
<title>0</title>
<g id="a_node1"><a xlink:href="to_heritage manager.svg" xlink:title="heritage manager">
<ellipse fill="none" stroke="black" cx="765.64" cy="-18" rx="71.49" ry="18"/>
<text text-anchor="middle" x="765.64" y="-14.3" font-family="Times New Roman,serif" font-size="14.00">heritage manager</text>
</a>
</g>
</g>
<!-- 0&#45;&gt;0 -->
<g id="edge1" class="edge">
<title>0&#45;&gt;0</title>
<path fill="none" stroke="black" d="M830.4,-25.66C844.71,-24.94 855.13,-22.39 855.13,-18 855.13,-14.74 849.39,-12.5 840.58,-11.26"/>
<polygon fill="black" stroke="black" points="840.68,-7.75 830.4,-10.34 840.04,-14.73 840.68,-7.75"/>
<text text-anchor="middle" x="870.63" y="-14.3" font-family="Times New Roman,serif" font-size="14.00">0.080</text>
</g>
<!-- 1 -->
<g id="node2" class="node">
<title>1</title>
<g id="a_node2"><a xlink:href="to_pharmacovigilance officer.svg" xlink:title="pharmacovigilance officer">
<ellipse fill="none" stroke="black" cx="104.64" cy="-105" rx="104.78" ry="18"/>
<text text-anchor="middle" x="104.64" y="-101.3" font-family="Times New Roman,serif" font-size="14.00">pharmacovigilance officer</text>
</a>
</g>
</g>
<!-- 1&#45;&gt;0 -->
<g id="edge2" class="edge">
<title>1&#45;&gt;0</title>
<path fill="none" stroke="black" d="M180.35,-92.57C193.13,-90.68 206.26,-88.77 218.64,-87 326.1,-71.66 352.94,-67.52 460.64,-54 539.29,-44.13 629.49,-33.91 691.28,-27.09"/>
<polygon fill="black" stroke="black" points="691.77,-30.55 701.33,-25.98 691.01,-23.6 691.77,-30.55"/>
<text text-anchor="middle" x="476.14" y="-57.8" font-family="Times New Roman,serif" font-size="14.00">0.058</text>
</g>
<!-- 2 -->
<g id="node3" class="node">
<title>2</title>
<g id="a_node3"><a xlink:href="to_production manager.svg" xlink:title="production manager">
<ellipse fill="none" stroke="black" cx="310.64" cy="-105" rx="83.39" ry="18"/>
<text text-anchor="middle" x="310.64" y="-101.3" font-family="Times New Roman,serif" font-size="14.00">production manager</text>
</a>
</g>
</g>
<!-- 2&#45;&gt;0 -->
<g id="edge3" class="edge">
<title>2&#45;&gt;0</title>
<path fill="none" stroke="black" d="M370.65,-92.53C424.14,-82.33 504.59,-67.05 574.64,-54 615.99,-46.3 662.41,-37.79 699.12,-31.09"/>
<polygon fill="black" stroke="black" points="700,-34.49 709.21,-29.25 698.75,-27.6 700,-34.49"/>
<text text-anchor="middle" x="590.14" y="-57.8" font-family="Times New Roman,serif" font-size="14.00">0.051</text>
</g>
<!-- 3 -->
<g id="node4" class="node">
<title>3</title>
<g id="a_node4"><a xlink:href="to_financial manager.svg" xlink:title="financial manager">
<ellipse fill="none" stroke="black" cx="485.64" cy="-105" rx="73.39" ry="18"/>
<text text-anchor="middle" x="485.64" y="-101.3" font-family="Times New Roman,serif" font-size="14.00">financial manager</text>
</a>
</g>
</g>
<!-- 3&#45;&gt;0 -->
<g id="edge4" class="edge">
<title>3&#45;&gt;0</title>
<path fill="none" stroke="black" d="M530.01,-90.53C579.41,-75.54 659.24,-51.3 712.08,-35.26"/>
<polygon fill="black" stroke="black" points="713.39,-38.52 721.94,-32.27 711.36,-31.82 713.39,-38.52"/>
<text text-anchor="middle" x="658.14" y="-57.8" font-family="Times New Roman,serif" font-size="14.00">0.048</text>
</g>
<!-- 4 -->
<g id="node5" class="node">
<title>4</title>
<g id="a_node5"><a xlink:href="to_it consultant.svg" xlink:title="it consultant">
<ellipse fill="none" stroke="black" cx="631.64" cy="-105" rx="54.69" ry="18"/>
<text text-anchor="middle" x="631.64" y="-101.3" font-family="Times New Roman,serif" font-size="14.00">it consultant</text>
</a>
</g>
</g>
<!-- 4&#45;&gt;0 -->
<g id="edge5" class="edge">
<title>4&#45;&gt;0</title>
<path fill="none" stroke="black" d="M655.6,-88.8C676.82,-75.34 708.05,-55.53 731.82,-40.45"/>
<polygon fill="black" stroke="black" points="733.96,-43.24 740.53,-34.93 730.21,-37.33 733.96,-43.24"/>
<text text-anchor="middle" x="723.14" y="-57.8" font-family="Times New Roman,serif" font-size="14.00">0.041</text>
</g>
<!-- 5 -->
<g id="node6" class="node">
<title>5</title>
<g id="a_node6"><a xlink:href="to_sales manager.svg" xlink:title="sales manager">
<ellipse fill="none" stroke="black" cx="765.64" cy="-105" rx="61.19" ry="18"/>
<text text-anchor="middle" x="765.64" y="-101.3" font-family="Times New Roman,serif" font-size="14.00">sales manager</text>
</a>
</g>
</g>
<!-- 5&#45;&gt;0 -->
<g id="edge6" class="edge">
<title>5&#45;&gt;0</title>
<path fill="none" stroke="black" d="M765.64,-86.8C765.64,-75.16 765.64,-59.55 765.64,-46.24"/>
<polygon fill="black" stroke="black" points="769.14,-46.18 765.64,-36.18 762.14,-46.18 769.14,-46.18"/>
<text text-anchor="middle" x="781.14" y="-57.8" font-family="Times New Roman,serif" font-size="14.00">0.039</text>
</g>
<!-- 6 -->
<g id="node7" class="node">
<title>6</title>
<g id="a_node7"><a xlink:href="to_project manager.svg" xlink:title="project manager">
<ellipse fill="none" stroke="black" cx="913.64" cy="-105" rx="68.79" ry="18"/>
<text text-anchor="middle" x="913.64" y="-101.3" font-family="Times New Roman,serif" font-size="14.00">project manager</text>
</a>
</g>
</g>
<!-- 6&#45;&gt;0 -->
<g id="edge7" class="edge">
<title>6&#45;&gt;0</title>
<path fill="none" stroke="black" d="M886.5,-88.41C862.76,-74.78 828.09,-54.87 801.97,-39.86"/>
<polygon fill="black" stroke="black" points="803.53,-36.72 793.12,-34.78 800.04,-42.79 803.53,-36.72"/>
<text text-anchor="middle" x="864.14" y="-57.8" font-family="Times New Roman,serif" font-size="14.00">0.036</text>
</g>
<!-- 7 -->
<g id="node8" class="node">
<title>7</title>
<g id="a_node8"><a xlink:href="to_office manager.svg" xlink:title="office manager">
<ellipse fill="none" stroke="black" cx="1064.64" cy="-105" rx="64.19" ry="18"/>
<text text-anchor="middle" x="1064.64" y="-101.3" font-family="Times New Roman,serif" font-size="14.00">office manager</text>
</a>
</g>
</g>
<!-- 7&#45;&gt;0 -->
<g id="edge8" class="edge">
<title>7&#45;&gt;0</title>
<path fill="none" stroke="black" d="M1021.16,-91.64C968.19,-76.58 878.62,-51.12 820.83,-34.69"/>
<polygon fill="black" stroke="black" points="821.71,-31.3 811.13,-31.93 819.79,-38.03 821.71,-31.3"/>
<text text-anchor="middle" x="949.14" y="-57.8" font-family="Times New Roman,serif" font-size="14.00">0.024</text>
</g>
<!-- 8 -->
<g id="node9" class="node">
<title>8</title>
<g id="a_node9"><a xlink:href="to_software developer.svg" xlink:title="software developer">
<ellipse fill="none" stroke="black" cx="1226.64" cy="-105" rx="79.89" ry="18"/>
<text text-anchor="middle" x="1226.64" y="-101.3" font-family="Times New Roman,serif" font-size="14.00">software developer</text>
</a>
</g>
</g>
<!-- 8&#45;&gt;0 -->
<g id="edge9" class="edge">
<title>8&#45;&gt;0</title>
<path fill="none" stroke="black" d="M1169.07,-92.49C1116.82,-82.13 1037.64,-66.63 968.64,-54 923.66,-45.76 872.97,-37.02 833.49,-30.34"/>
<polygon fill="black" stroke="black" points="833.89,-26.86 823.45,-28.64 832.72,-33.76 833.89,-26.86"/>
<text text-anchor="middle" x="1062.14" y="-57.8" font-family="Times New Roman,serif" font-size="14.00">0.024</text>
</g>
<!-- 9 -->
<g id="node10" class="node">
<title>9</title>
<g id="a_node10"><a xlink:href="to_catering manager.svg" xlink:title="catering manager">
<ellipse fill="none" stroke="black" cx="1395.64" cy="-105" rx="71.49" ry="18"/>
<text text-anchor="middle" x="1395.64" y="-101.3" font-family="Times New Roman,serif" font-size="14.00">catering manager</text>
</a>
</g>
</g>
<!-- 9&#45;&gt;0 -->
<g id="edge10" class="edge">
<title>9&#45;&gt;0</title>
<path fill="none" stroke="black" d="M1344.1,-92.5C1334.66,-90.55 1324.87,-88.63 1315.64,-87 1147.67,-57.35 948.58,-36.15 842.03,-25.92"/>
<polygon fill="black" stroke="black" points="842.29,-22.43 832.01,-24.97 841.63,-29.4 842.29,-22.43"/>
<text text-anchor="middle" x="1211.14" y="-57.8" font-family="Times New Roman,serif" font-size="14.00">0.019</text>
</g>
</g>
</svg>
