<?xml version="1.0" encoding="UTF-8" standalone="no"?>
<!DOCTYPE svg PUBLIC "-//W3C//DTD SVG 1.1//EN"
 "http://www.w3.org/Graphics/SVG/1.1/DTD/svg11.dtd">
<!-- Generated by graphviz version 2.44.1 (20200629.0800)
 -->
<!-- Title: test Pages: 1 -->
<svg width="1297pt" height="131pt"
 viewBox="0.00 0.00 1297.49 131.00" xmlns="http://www.w3.org/2000/svg" xmlns:xlink="http://www.w3.org/1999/xlink">
<g id="graph0" class="graph" transform="scale(1 1) rotate(0) translate(4 127)">
<title>test</title>
<polygon fill="white" stroke="transparent" points="-4,4 -4,-127 1293.49,-127 1293.49,4 -4,4"/>
<!-- 0 -->
<g id="node1" class="node">
<title>0</title>
<g id="a_node1"><a xlink:href="to_investment analyst.svg" xlink:title="investment analyst">
<ellipse fill="none" stroke="black" cx="640.8" cy="-18" rx="76.89" ry="18"/>
<text text-anchor="middle" x="640.8" y="-14.3" font-family="Times New Roman,serif" font-size="14.00">investment analyst</text>
</a>
</g>
</g>
<!-- 0&#45;&gt;0 -->
<g id="edge1" class="edge">
<title>0&#45;&gt;0</title>
<path fill="none" stroke="black" d="M710.58,-25.6C725.07,-24.8 735.49,-22.27 735.49,-18 735.49,-14.8 729.63,-12.58 720.59,-11.33"/>
<polygon fill="black" stroke="black" points="720.86,-7.84 710.58,-10.4 720.22,-14.81 720.86,-7.84"/>
<text text-anchor="middle" x="750.99" y="-14.3" font-family="Times New Roman,serif" font-size="14.00">0.188</text>
</g>
<!-- 1 -->
<g id="node2" class="node">
<title>1</title>
<g id="a_node2"><a xlink:href="to_qa analyst.svg" xlink:title="qa analyst">
<ellipse fill="none" stroke="black" cx="46.8" cy="-105" rx="46.59" ry="18"/>
<text text-anchor="middle" x="46.8" y="-101.3" font-family="Times New Roman,serif" font-size="14.00">qa analyst</text>
</a>
</g>
</g>
<!-- 1&#45;&gt;0 -->
<g id="edge2" class="edge">
<title>1&#45;&gt;0</title>
<path fill="none" stroke="black" d="M81.24,-92.66C88.01,-90.63 95.1,-88.64 101.8,-87 260.01,-48.35 450.03,-30.9 556.95,-23.64"/>
<polygon fill="black" stroke="black" points="557.29,-27.12 567.04,-22.97 556.83,-20.14 557.29,-27.12"/>
<text text-anchor="middle" x="278.3" y="-57.8" font-family="Times New Roman,serif" font-size="14.00">0.087</text>
</g>
<!-- 2 -->
<g id="node3" class="node">
<title>2</title>
<g id="a_node3"><a xlink:href="to_it consultant.svg" xlink:title="it consultant">
<ellipse fill="none" stroke="black" cx="165.8" cy="-105" rx="54.69" ry="18"/>
<text text-anchor="middle" x="165.8" y="-101.3" font-family="Times New Roman,serif" font-size="14.00">it consultant</text>
</a>
</g>
</g>
<!-- 2&#45;&gt;0 -->
<g id="edge3" class="edge">
<title>2&#45;&gt;0</title>
<path fill="none" stroke="black" d="M205.65,-92.65C213.3,-90.64 221.27,-88.66 228.8,-87 345.34,-61.27 482.38,-40.51 565.35,-28.97"/>
<polygon fill="black" stroke="black" points="566.02,-32.41 575.45,-27.57 565.06,-25.48 566.02,-32.41"/>
<text text-anchor="middle" x="413.3" y="-57.8" font-family="Times New Roman,serif" font-size="14.00">0.064</text>
</g>
<!-- 3 -->
<g id="node4" class="node">
<title>3</title>
<g id="a_node4"><a xlink:href="to_project manager.svg" xlink:title="project manager">
<ellipse fill="none" stroke="black" cx="306.8" cy="-105" rx="68.79" ry="18"/>
<text text-anchor="middle" x="306.8" y="-101.3" font-family="Times New Roman,serif" font-size="14.00">project manager</text>
</a>
</g>
</g>
<!-- 3&#45;&gt;0 -->
<g id="edge4" class="edge">
<title>3&#45;&gt;0</title>
<path fill="none" stroke="black" d="M354.3,-91.91C413.79,-76.77 515.77,-50.82 580.65,-34.31"/>
<polygon fill="black" stroke="black" points="581.91,-37.6 590.73,-31.74 580.18,-30.81 581.91,-37.6"/>
<text text-anchor="middle" x="509.3" y="-57.8" font-family="Times New Roman,serif" font-size="14.00">0.057</text>
</g>
<!-- 4 -->
<g id="node5" class="node">
<title>4</title>
<g id="a_node5"><a xlink:href="to_systems analyst.svg" xlink:title="systems analyst">
<ellipse fill="none" stroke="black" cx="460.8" cy="-105" rx="67.69" ry="18"/>
<text text-anchor="middle" x="460.8" y="-101.3" font-family="Times New Roman,serif" font-size="14.00">systems analyst</text>
</a>
</g>
</g>
<!-- 4&#45;&gt;0 -->
<g id="edge5" class="edge">
<title>4&#45;&gt;0</title>
<path fill="none" stroke="black" d="M492.56,-89C522.14,-75.03 566.43,-54.12 598.89,-38.79"/>
<polygon fill="black" stroke="black" points="600.58,-41.86 608.13,-34.42 597.6,-35.53 600.58,-41.86"/>
<text text-anchor="middle" x="577.3" y="-57.8" font-family="Times New Roman,serif" font-size="14.00">0.051</text>
</g>
<!-- 5 -->
<g id="node6" class="node">
<title>5</title>
<g id="a_node6"><a xlink:href="to_market research analyst.svg" xlink:title="market research analyst">
<ellipse fill="none" stroke="black" cx="640.8" cy="-105" rx="94.78" ry="18"/>
<text text-anchor="middle" x="640.8" y="-101.3" font-family="Times New Roman,serif" font-size="14.00">market research analyst</text>
</a>
</g>
</g>
<!-- 5&#45;&gt;0 -->
<g id="edge6" class="edge">
<title>5&#45;&gt;0</title>
<path fill="none" stroke="black" d="M640.8,-86.8C640.8,-75.16 640.8,-59.55 640.8,-46.24"/>
<polygon fill="black" stroke="black" points="644.3,-46.18 640.8,-36.18 637.3,-46.18 644.3,-46.18"/>
<text text-anchor="middle" x="656.3" y="-57.8" font-family="Times New Roman,serif" font-size="14.00">0.034</text>
</g>
<!-- 6 -->
<g id="node7" class="node">
<title>6</title>
<g id="a_node7"><a xlink:href="to_financial manager.svg" xlink:title="financial manager">
<ellipse fill="none" stroke="black" cx="826.8" cy="-105" rx="73.39" ry="18"/>
<text text-anchor="middle" x="826.8" y="-101.3" font-family="Times New Roman,serif" font-size="14.00">financial manager</text>
</a>
</g>
</g>
<!-- 6&#45;&gt;0 -->
<g id="edge7" class="edge">
<title>6&#45;&gt;0</title>
<path fill="none" stroke="black" d="M793.54,-88.8C762.92,-74.81 717.31,-53.96 683.9,-38.7"/>
<polygon fill="black" stroke="black" points="684.94,-35.32 674.39,-34.35 682.03,-41.69 684.94,-35.32"/>
<text text-anchor="middle" x="761.3" y="-57.8" font-family="Times New Roman,serif" font-size="14.00">0.030</text>
</g>
<!-- 7 -->
<g id="node8" class="node">
<title>7</title>
<g id="a_node8"><a xlink:href="to_accountant.svg" xlink:title="accountant">
<ellipse fill="none" stroke="black" cx="967.8" cy="-105" rx="50.09" ry="18"/>
<text text-anchor="middle" x="967.8" y="-101.3" font-family="Times New Roman,serif" font-size="14.00">accountant</text>
</a>
</g>
</g>
<!-- 7&#45;&gt;0 -->
<g id="edge8" class="edge">
<title>7&#45;&gt;0</title>
<path fill="none" stroke="black" d="M930.07,-92.96C923.01,-90.94 915.69,-88.88 908.8,-87 838.17,-67.73 756.58,-47.28 702.15,-33.9"/>
<polygon fill="black" stroke="black" points="702.86,-30.47 692.32,-31.49 701.19,-37.27 702.86,-30.47"/>
<text text-anchor="middle" x="850.3" y="-57.8" font-family="Times New Roman,serif" font-size="14.00">0.027</text>
</g>
<!-- 8 -->
<g id="node9" class="node">
<title>8</title>
<g id="a_node9"><a xlink:href="to_software developer.svg" xlink:title="software developer">
<ellipse fill="none" stroke="black" cx="1115.8" cy="-105" rx="79.89" ry="18"/>
<text text-anchor="middle" x="1115.8" y="-101.3" font-family="Times New Roman,serif" font-size="14.00">software developer</text>
</a>
</g>
</g>
<!-- 8&#45;&gt;0 -->
<g id="edge9" class="edge">
<title>8&#45;&gt;0</title>
<path fill="none" stroke="black" d="M1060.25,-91.9C1010.49,-81.26 935.44,-65.68 869.8,-54 818.26,-44.83 759.93,-35.94 715.04,-29.41"/>
<polygon fill="black" stroke="black" points="715.49,-25.94 705.1,-27.97 714.49,-32.87 715.49,-25.94"/>
<text text-anchor="middle" x="959.3" y="-57.8" font-family="Times New Roman,serif" font-size="14.00">0.023</text>
</g>
<!-- 9 -->
<g id="node10" class="node">
<title>9</title>
<g id="a_node10"><a xlink:href="to_lecturer.svg" xlink:title="lecturer">
<ellipse fill="none" stroke="black" cx="1251.8" cy="-105" rx="37.89" ry="18"/>
<text text-anchor="middle" x="1251.8" y="-101.3" font-family="Times New Roman,serif" font-size="14.00">lecturer</text>
</a>
</g>
</g>
<!-- 9&#45;&gt;0 -->
<g id="edge10" class="edge">
<title>9&#45;&gt;0</title>
<path fill="none" stroke="black" d="M1223.75,-92.81C1217.58,-90.64 1211.02,-88.56 1204.8,-87 1038.29,-45.19 837.46,-28.8 725.97,-22.59"/>
<polygon fill="black" stroke="black" points="725.96,-19.08 715.79,-22.04 725.59,-26.07 725.96,-19.08"/>
<text text-anchor="middle" x="1129.3" y="-57.8" font-family="Times New Roman,serif" font-size="14.00">0.017</text>
</g>
</g>
</svg>
