<?xml version="1.0" encoding="UTF-8" standalone="no"?>
<!DOCTYPE svg PUBLIC "-//W3C//DTD SVG 1.1//EN"
 "http://www.w3.org/Graphics/SVG/1.1/DTD/svg11.dtd">
<!-- Generated by graphviz version 2.44.1 (20200629.0800)
 -->
<!-- Title: test Pages: 1 -->
<svg width="1559pt" height="131pt"
 viewBox="0.00 0.00 1558.54 131.00" xmlns="http://www.w3.org/2000/svg" xmlns:xlink="http://www.w3.org/1999/xlink">
<g id="graph0" class="graph" transform="scale(1 1) rotate(0) translate(4 127)">
<title>test</title>
<polygon fill="white" stroke="transparent" points="-4,4 -4,-127 1554.54,-127 1554.54,4 -4,4"/>
<!-- 0 -->
<g id="node1" class="node">
<title>0</title>
<g id="a_node1"><a xlink:href="to_project manager.svg" xlink:title="project manager">
<ellipse fill="none" stroke="black" cx="68.89" cy="-105" rx="68.79" ry="18"/>
<text text-anchor="middle" x="68.89" y="-101.3" font-family="Times New Roman,serif" font-size="14.00">project manager</text>
</a>
</g>
</g>
<!-- 1 -->
<g id="node2" class="node">
<title>1</title>
<g id="a_node2"><a xlink:href="to_investment fund manager.svg" xlink:title="investment fund manager">
<ellipse fill="none" stroke="black" cx="756.89" cy="-18" rx="100.98" ry="18"/>
<text text-anchor="middle" x="756.89" y="-14.3" font-family="Times New Roman,serif" font-size="14.00">investment fund manager</text>
</a>
</g>
</g>
<!-- 0&#45;&gt;1 -->
<g id="edge1" class="edge">
<title>0&#45;&gt;1</title>
<path fill="none" stroke="black" d="M118.71,-92.54C128.05,-90.56 137.75,-88.62 146.89,-87 324.33,-55.51 533.55,-35.95 655.12,-26.3"/>
<polygon fill="black" stroke="black" points="655.47,-29.78 665.16,-25.51 654.92,-22.81 655.47,-29.78"/>
<text text-anchor="middle" x="379.39" y="-57.8" font-family="Times New Roman,serif" font-size="14.00">0.102</text>
</g>
<!-- 1&#45;&gt;1 -->
<g id="edge2" class="edge">
<title>1&#45;&gt;1</title>
<path fill="none" stroke="black" d="M849,-25.35C864.73,-24.35 875.63,-21.9 875.63,-18 875.63,-15.02 869.24,-12.88 859.19,-11.59"/>
<polygon fill="black" stroke="black" points="859.28,-8.09 849,-10.65 858.63,-15.06 859.28,-8.09"/>
<text text-anchor="middle" x="891.13" y="-14.3" font-family="Times New Roman,serif" font-size="14.00">0.096</text>
</g>
<!-- 2 -->
<g id="node3" class="node">
<title>2</title>
<g id="a_node3"><a xlink:href="to_financial manager.svg" xlink:title="financial manager">
<ellipse fill="none" stroke="black" cx="228.89" cy="-105" rx="73.39" ry="18"/>
<text text-anchor="middle" x="228.89" y="-101.3" font-family="Times New Roman,serif" font-size="14.00">financial manager</text>
</a>
</g>
</g>
<!-- 2&#45;&gt;1 -->
<g id="edge3" class="edge">
<title>2&#45;&gt;1</title>
<path fill="none" stroke="black" d="M282.85,-92.6C292.51,-90.66 302.49,-88.72 311.89,-87 435.34,-64.48 578.99,-43.46 668.94,-30.92"/>
<polygon fill="black" stroke="black" points="669.67,-34.35 679.09,-29.5 668.71,-27.42 669.67,-34.35"/>
<text text-anchor="middle" x="522.39" y="-57.8" font-family="Times New Roman,serif" font-size="14.00">0.056</text>
</g>
<!-- 3 -->
<g id="node4" class="node">
<title>3</title>
<g id="a_node4"><a xlink:href="to_heritage manager.svg" xlink:title="heritage manager">
<ellipse fill="none" stroke="black" cx="391.89" cy="-105" rx="71.49" ry="18"/>
<text text-anchor="middle" x="391.89" y="-101.3" font-family="Times New Roman,serif" font-size="14.00">heritage manager</text>
</a>
</g>
</g>
<!-- 3&#45;&gt;1 -->
<g id="edge4" class="edge">
<title>3&#45;&gt;1</title>
<path fill="none" stroke="black" d="M442.65,-92.18C506.63,-77.28 616.87,-51.61 688.31,-34.97"/>
<polygon fill="black" stroke="black" points="689.18,-38.36 698.12,-32.69 687.59,-31.55 689.18,-38.36"/>
<text text-anchor="middle" x="612.39" y="-57.8" font-family="Times New Roman,serif" font-size="14.00">0.056</text>
</g>
<!-- 4 -->
<g id="node5" class="node">
<title>4</title>
<g id="a_node5"><a xlink:href="to_investment analyst.svg" xlink:title="investment analyst">
<ellipse fill="none" stroke="black" cx="557.89" cy="-105" rx="76.89" ry="18"/>
<text text-anchor="middle" x="557.89" y="-101.3" font-family="Times New Roman,serif" font-size="14.00">investment analyst</text>
</a>
</g>
</g>
<!-- 4&#45;&gt;1 -->
<g id="edge5" class="edge">
<title>4&#45;&gt;1</title>
<path fill="none" stroke="black" d="M593.47,-88.8C626.21,-74.82 674.96,-54 710.69,-38.73"/>
<polygon fill="black" stroke="black" points="712.12,-41.93 719.94,-34.78 709.37,-35.49 712.12,-41.93"/>
<text text-anchor="middle" x="685.39" y="-57.8" font-family="Times New Roman,serif" font-size="14.00">0.051</text>
</g>
<!-- 5 -->
<g id="node6" class="node">
<title>5</title>
<g id="a_node6"><a xlink:href="to_pharmacovigilance officer.svg" xlink:title="pharmacovigilance officer">
<ellipse fill="none" stroke="black" cx="756.89" cy="-105" rx="104.78" ry="18"/>
<text text-anchor="middle" x="756.89" y="-101.3" font-family="Times New Roman,serif" font-size="14.00">pharmacovigilance officer</text>
</a>
</g>
</g>
<!-- 5&#45;&gt;1 -->
<g id="edge6" class="edge">
<title>5&#45;&gt;1</title>
<path fill="none" stroke="black" d="M756.89,-86.8C756.89,-75.16 756.89,-59.55 756.89,-46.24"/>
<polygon fill="black" stroke="black" points="760.39,-46.18 756.89,-36.18 753.39,-46.18 760.39,-46.18"/>
<text text-anchor="middle" x="772.39" y="-57.8" font-family="Times New Roman,serif" font-size="14.00">0.040</text>
</g>
<!-- 6 -->
<g id="node7" class="node">
<title>6</title>
<g id="a_node7"><a xlink:href="to_sales manager.svg" xlink:title="sales manager">
<ellipse fill="none" stroke="black" cx="940.89" cy="-105" rx="61.19" ry="18"/>
<text text-anchor="middle" x="940.89" y="-101.3" font-family="Times New Roman,serif" font-size="14.00">sales manager</text>
</a>
</g>
</g>
<!-- 6&#45;&gt;1 -->
<g id="edge7" class="edge">
<title>6&#45;&gt;1</title>
<path fill="none" stroke="black" d="M909.26,-89.39C879.3,-75.55 834.05,-54.64 800.64,-39.21"/>
<polygon fill="black" stroke="black" points="802.1,-36.03 791.55,-35.01 799.16,-42.38 802.1,-36.03"/>
<text text-anchor="middle" x="876.39" y="-57.8" font-family="Times New Roman,serif" font-size="14.00">0.040</text>
</g>
<!-- 7 -->
<g id="node8" class="node">
<title>7</title>
<g id="a_node8"><a xlink:href="to_production manager.svg" xlink:title="production manager">
<ellipse fill="none" stroke="black" cx="1102.89" cy="-105" rx="83.39" ry="18"/>
<text text-anchor="middle" x="1102.89" y="-101.3" font-family="Times New Roman,serif" font-size="14.00">production manager</text>
</a>
</g>
</g>
<!-- 7&#45;&gt;1 -->
<g id="edge8" class="edge">
<title>7&#45;&gt;1</title>
<path fill="none" stroke="black" d="M1049.97,-91C989.2,-76.07 889.42,-51.56 823.44,-35.35"/>
<polygon fill="black" stroke="black" points="824.1,-31.91 813.55,-32.92 822.43,-38.7 824.1,-31.91"/>
<text text-anchor="middle" x="966.39" y="-57.8" font-family="Times New Roman,serif" font-size="14.00">0.035</text>
</g>
<!-- 8 -->
<g id="node9" class="node">
<title>8</title>
<g id="a_node9"><a xlink:href="to_facilities manager.svg" xlink:title="facilities manager">
<ellipse fill="none" stroke="black" cx="1276.89" cy="-105" rx="72.59" ry="18"/>
<text text-anchor="middle" x="1276.89" y="-101.3" font-family="Times New Roman,serif" font-size="14.00">facilities manager</text>
</a>
</g>
</g>
<!-- 8&#45;&gt;1 -->
<g id="edge9" class="edge">
<title>8&#45;&gt;1</title>
<path fill="none" stroke="black" d="M1223.59,-92.56C1214.05,-90.63 1204.19,-88.7 1194.89,-87 1073.53,-64.85 932.39,-43.77 843.85,-31.11"/>
<polygon fill="black" stroke="black" points="844.24,-27.63 833.85,-29.69 843.25,-34.56 844.24,-27.63"/>
<text text-anchor="middle" x="1102.39" y="-57.8" font-family="Times New Roman,serif" font-size="14.00">0.030</text>
</g>
<!-- 9 -->
<g id="node10" class="node">
<title>9</title>
<g id="a_node10"><a xlink:href="to_programme researcher.svg" xlink:title="programme researcher">
<ellipse fill="none" stroke="black" cx="1458.89" cy="-105" rx="91.78" ry="18"/>
<text text-anchor="middle" x="1458.89" y="-101.3" font-family="Times New Roman,serif" font-size="14.00">programme researcher</text>
</a>
</g>
</g>
<!-- 9&#45;&gt;1 -->
<g id="edge10" class="edge">
<title>9&#45;&gt;1</title>
<path fill="none" stroke="black" d="M1392.78,-92.47C1381.48,-90.59 1369.86,-88.69 1358.89,-87 1253.79,-70.75 1227.52,-66.41 1121.89,-54 1032.07,-43.45 929.54,-33.83 856.06,-27.35"/>
<polygon fill="black" stroke="black" points="856.15,-23.85 845.89,-26.46 855.54,-30.82 856.15,-23.85"/>
<text text-anchor="middle" x="1251.39" y="-57.8" font-family="Times New Roman,serif" font-size="14.00">0.025</text>
</g>
</g>
</svg>
