<?xml version="1.0" encoding="UTF-8" standalone="no"?>
<!DOCTYPE svg PUBLIC "-//W3C//DTD SVG 1.1//EN"
 "http://www.w3.org/Graphics/SVG/1.1/DTD/svg11.dtd">
<!-- Generated by graphviz version 2.44.1 (20200629.0800)
 -->
<!-- Title: test Pages: 1 -->
<svg width="689pt" height="131pt"
 viewBox="0.00 0.00 688.69 131.00" xmlns="http://www.w3.org/2000/svg" xmlns:xlink="http://www.w3.org/1999/xlink">
<g id="graph0" class="graph" transform="scale(1 1) rotate(0) translate(4 127)">
<title>test</title>
<polygon fill="white" stroke="transparent" points="-4,4 -4,-127 684.69,-127 684.69,4 -4,4"/>
<!-- 0 -->
<g id="node1" class="node">
<title>0</title>
<g id="a_node1"><a xlink:href="to_heritage manager.svg" xlink:title="heritage manager">
<ellipse fill="none" stroke="black" cx="71.49" cy="-105" rx="71.49" ry="18"/>
<text text-anchor="middle" x="71.49" y="-101.3" font-family="Times New Roman,serif" font-size="14.00">heritage manager</text>
</a>
</g>
</g>
<!-- 1 -->
<g id="node2" class="node">
<title>1</title>
<g id="a_node2"><a xlink:href="to_immunologist.svg" xlink:title="immunologist">
<ellipse fill="none" stroke="black" cx="303.49" cy="-18" rx="59.59" ry="18"/>
<text text-anchor="middle" x="303.49" y="-14.3" font-family="Times New Roman,serif" font-size="14.00">immunologist</text>
</a>
</g>
</g>
<!-- 0&#45;&gt;1 -->
<g id="edge1" class="edge">
<title>0&#45;&gt;1</title>
<path fill="none" stroke="black" d="M110.33,-89.77C150.86,-74.92 214.4,-51.64 257.44,-35.87"/>
<polygon fill="black" stroke="black" points="258.65,-39.16 266.83,-32.43 256.24,-32.58 258.65,-39.16"/>
<text text-anchor="middle" x="213.99" y="-57.8" font-family="Times New Roman,serif" font-size="14.00">0.25</text>
</g>
<!-- 2 -->
<g id="node3" class="node">
<title>2</title>
<g id="a_node3"><a xlink:href="to_it consultant.svg" xlink:title="it consultant">
<ellipse fill="none" stroke="black" cx="215.49" cy="-105" rx="54.69" ry="18"/>
<text text-anchor="middle" x="215.49" y="-101.3" font-family="Times New Roman,serif" font-size="14.00">it consultant</text>
</a>
</g>
</g>
<!-- 2&#45;&gt;1 -->
<g id="edge2" class="edge">
<title>2&#45;&gt;1</title>
<path fill="none" stroke="black" d="M232.46,-87.61C245.73,-74.79 264.36,-56.8 279.21,-42.46"/>
<polygon fill="black" stroke="black" points="281.82,-44.8 286.58,-35.34 276.95,-39.77 281.82,-44.8"/>
<text text-anchor="middle" x="277.99" y="-57.8" font-family="Times New Roman,serif" font-size="14.00">0.25</text>
</g>
<!-- 3 -->
<g id="node4" class="node">
<title>3</title>
<g id="a_node4"><a xlink:href="to_outdoor pursuits manager.svg" xlink:title="outdoor pursuits manager">
<ellipse fill="none" stroke="black" cx="392.49" cy="-105" rx="103.98" ry="18"/>
<text text-anchor="middle" x="392.49" y="-101.3" font-family="Times New Roman,serif" font-size="14.00">outdoor pursuits manager</text>
</a>
</g>
</g>
<!-- 3&#45;&gt;1 -->
<g id="edge3" class="edge">
<title>3&#45;&gt;1</title>
<path fill="none" stroke="black" d="M374.91,-87.21C361.54,-74.43 342.97,-56.7 328.12,-42.52"/>
<polygon fill="black" stroke="black" points="330.39,-39.84 320.74,-35.47 325.55,-44.91 330.39,-39.84"/>
<text text-anchor="middle" x="365.99" y="-57.8" font-family="Times New Roman,serif" font-size="14.00">0.25</text>
</g>
<!-- 4 -->
<g id="node5" class="node">
<title>4</title>
<g id="a_node5"><a xlink:href="to_production manager.svg" xlink:title="production manager">
<ellipse fill="none" stroke="black" cx="597.49" cy="-105" rx="83.39" ry="18"/>
<text text-anchor="middle" x="597.49" y="-101.3" font-family="Times New Roman,serif" font-size="14.00">production manager</text>
</a>
</g>
</g>
<!-- 4&#45;&gt;1 -->
<g id="edge4" class="edge">
<title>4&#45;&gt;1</title>
<path fill="none" stroke="black" d="M549.6,-90.15C496.14,-74.7 409.95,-49.78 355.05,-33.91"/>
<polygon fill="black" stroke="black" points="355.76,-30.47 345.18,-31.05 353.81,-37.19 355.76,-30.47"/>
<text text-anchor="middle" x="479.99" y="-57.8" font-family="Times New Roman,serif" font-size="14.00">0.25</text>
</g>
</g>
</svg>
