<?xml version="1.0" encoding="UTF-8" standalone="no"?>
<!DOCTYPE svg PUBLIC "-//W3C//DTD SVG 1.1//EN"
 "http://www.w3.org/Graphics/SVG/1.1/DTD/svg11.dtd">
<!-- Generated by graphviz version 2.44.1 (20200629.0800)
 -->
<!-- Title: illustrator Pages: 1 -->
<svg width="890pt" height="131pt"
 viewBox="0.00 0.00 889.59 131.00" xmlns="http://www.w3.org/2000/svg" xmlns:xlink="http://www.w3.org/1999/xlink">
<g id="graph0" class="graph" transform="scale(1 1) rotate(0) translate(4 127)">
<title>illustrator</title>
<polygon fill="white" stroke="transparent" points="-4,4 -4,-127 885.59,-127 885.59,4 -4,4"/>
<!-- 0 -->
<g id="node1" class="node">
<title>0</title>
<g id="a_node1"><a xlink:href="to_illustrator.svg" xlink:title="illustrator">
<ellipse fill="none" stroke="black" cx="424.59" cy="-18" rx="44.39" ry="18"/>
<text text-anchor="middle" x="424.59" y="-14.3" font-family="Times New Roman,serif" font-size="14.00">illustrator</text>
</a>
</g>
</g>
<!-- 0&#45;&gt;0 -->
<g id="edge1" class="edge">
<title>0&#45;&gt;0</title>
<path fill="none" stroke="black" d="M464.37,-25.87C476.9,-25.75 486.79,-23.13 486.79,-18 486.79,-14.4 481.9,-12.03 474.64,-10.9"/>
<polygon fill="black" stroke="black" points="474.6,-7.39 464.37,-10.13 474.08,-14.37 474.6,-7.39"/>
<text text-anchor="middle" x="495.79" y="-14.3" font-family="Times New Roman,serif" font-size="14.00">0.5</text>
</g>
<!-- 1 -->
<g id="node2" class="node">
<title>1</title>
<g id="a_node2"><a xlink:href="to_environmental manager.svg" xlink:title="environmental manager">
<ellipse fill="none" stroke="black" cx="93.59" cy="-105" rx="93.68" ry="18"/>
<text text-anchor="middle" x="93.59" y="-101.3" font-family="Times New Roman,serif" font-size="14.00">environmental manager</text>
</a>
</g>
</g>
<!-- 1&#45;&gt;0 -->
<g id="edge2" class="edge">
<title>1&#45;&gt;0</title>
<path fill="none" stroke="black" d="M147.51,-90.15C211.58,-73.7 317.42,-46.52 378.06,-30.95"/>
<polygon fill="black" stroke="black" points="379.3,-34.24 388.12,-28.37 377.56,-27.46 379.3,-34.24"/>
<text text-anchor="middle" x="288.59" y="-57.8" font-family="Times New Roman,serif" font-size="14.00">0.1</text>
</g>
<!-- 2 -->
<g id="node3" class="node">
<title>2</title>
<g id="a_node3"><a xlink:href="to_graphic designer.svg" xlink:title="graphic designer">
<ellipse fill="none" stroke="black" cx="275.59" cy="-105" rx="70.39" ry="18"/>
<text text-anchor="middle" x="275.59" y="-101.3" font-family="Times New Roman,serif" font-size="14.00">graphic designer</text>
</a>
</g>
</g>
<!-- 2&#45;&gt;0 -->
<g id="edge3" class="edge">
<title>2&#45;&gt;0</title>
<path fill="none" stroke="black" d="M302.92,-88.41C327.72,-74.26 364.37,-53.36 390.96,-38.19"/>
<polygon fill="black" stroke="black" points="392.96,-41.08 399.91,-33.08 389.49,-35 392.96,-41.08"/>
<text text-anchor="middle" x="368.59" y="-57.8" font-family="Times New Roman,serif" font-size="14.00">0.1</text>
</g>
<!-- 3 -->
<g id="node4" class="node">
<title>3</title>
<g id="a_node4"><a xlink:href="to_sales manager.svg" xlink:title="sales manager">
<ellipse fill="none" stroke="black" cx="424.59" cy="-105" rx="61.19" ry="18"/>
<text text-anchor="middle" x="424.59" y="-101.3" font-family="Times New Roman,serif" font-size="14.00">sales manager</text>
</a>
</g>
</g>
<!-- 3&#45;&gt;0 -->
<g id="edge4" class="edge">
<title>3&#45;&gt;0</title>
<path fill="none" stroke="black" d="M424.59,-86.8C424.59,-75.16 424.59,-59.55 424.59,-46.24"/>
<polygon fill="black" stroke="black" points="428.09,-46.18 424.59,-36.18 421.09,-46.18 428.09,-46.18"/>
<text text-anchor="middle" x="433.59" y="-57.8" font-family="Times New Roman,serif" font-size="14.00">0.1</text>
</g>
<!-- 4 -->
<g id="node5" class="node">
<title>4</title>
<g id="a_node5"><a xlink:href="to_training and development officer.svg" xlink:title="training and development officer">
<ellipse fill="none" stroke="black" cx="631.59" cy="-105" rx="128.08" ry="18"/>
<text text-anchor="middle" x="631.59" y="-101.3" font-family="Times New Roman,serif" font-size="14.00">training and development officer</text>
</a>
</g>
</g>
<!-- 4&#45;&gt;0 -->
<g id="edge5" class="edge">
<title>4&#45;&gt;0</title>
<path fill="none" stroke="black" d="M592.17,-87.81C555.34,-72.69 500.67,-50.24 463.89,-35.14"/>
<polygon fill="black" stroke="black" points="465.06,-31.83 454.48,-31.27 462.4,-38.31 465.06,-31.83"/>
<text text-anchor="middle" x="549.59" y="-57.8" font-family="Times New Roman,serif" font-size="14.00">0.1</text>
</g>
<!-- 5 -->
<g id="node6" class="node">
<title>5</title>
<g id="a_node6"><a xlink:href="to_ux designer.svg" xlink:title="ux designer">
<ellipse fill="none" stroke="black" cx="829.59" cy="-105" rx="51.99" ry="18"/>
<text text-anchor="middle" x="829.59" y="-101.3" font-family="Times New Roman,serif" font-size="14.00">ux designer</text>
</a>
</g>
</g>
<!-- 5&#45;&gt;0 -->
<g id="edge6" class="edge">
<title>5&#45;&gt;0</title>
<path fill="none" stroke="black" d="M790.98,-92.76C783.58,-90.74 775.86,-88.73 768.59,-87 664.66,-62.28 541.56,-39.5 474.42,-27.61"/>
<polygon fill="black" stroke="black" points="474.99,-24.16 464.53,-25.87 473.77,-31.05 474.99,-24.16"/>
<text text-anchor="middle" x="692.59" y="-57.8" font-family="Times New Roman,serif" font-size="14.00">0.1</text>
</g>
</g>
</svg>
