<?xml version="1.0" encoding="UTF-8" standalone="no"?>
<!DOCTYPE svg PUBLIC "-//W3C//DTD SVG 1.1//EN"
 "http://www.w3.org/Graphics/SVG/1.1/DTD/svg11.dtd">
<!-- Generated by graphviz version 2.44.1 (20200629.0800)
 -->
<!-- Title: test Pages: 1 -->
<svg width="1509pt" height="131pt"
 viewBox="0.00 0.00 1508.89 131.00" xmlns="http://www.w3.org/2000/svg" xmlns:xlink="http://www.w3.org/1999/xlink">
<g id="graph0" class="graph" transform="scale(1 1) rotate(0) translate(4 127)">
<title>test</title>
<polygon fill="white" stroke="transparent" points="-4,4 -4,-127 1504.89,-127 1504.89,4 -4,4"/>
<!-- 0 -->
<g id="node1" class="node">
<title>0</title>
<g id="a_node1"><a xlink:href="to_journalist.svg" xlink:title="journalist">
<ellipse fill="none" stroke="black" cx="821.2" cy="-18" rx="43.59" ry="18"/>
<text text-anchor="middle" x="821.2" y="-14.3" font-family="Times New Roman,serif" font-size="14.00">journalist</text>
</a>
</g>
</g>
<!-- 0&#45;&gt;0 -->
<g id="edge1" class="edge">
<title>0&#45;&gt;0</title>
<path fill="none" stroke="black" d="M860.56,-25.87C872.96,-25.75 882.74,-23.13 882.74,-18 882.74,-14.4 877.91,-12.03 870.73,-10.9"/>
<polygon fill="black" stroke="black" points="870.8,-7.39 860.56,-10.13 870.27,-14.37 870.8,-7.39"/>
<text text-anchor="middle" x="898.24" y="-14.3" font-family="Times New Roman,serif" font-size="14.00">0.383</text>
</g>
<!-- 1 -->
<g id="node2" class="node">
<title>1</title>
<g id="a_node2"><a xlink:href="to_writer.svg" xlink:title="writer">
<ellipse fill="none" stroke="black" cx="31.2" cy="-105" rx="31.4" ry="18"/>
<text text-anchor="middle" x="31.2" y="-101.3" font-family="Times New Roman,serif" font-size="14.00">writer</text>
</a>
</g>
</g>
<!-- 1&#45;&gt;0 -->
<g id="edge2" class="edge">
<title>1&#45;&gt;0</title>
<path fill="none" stroke="black" d="M54.47,-92.68C59.85,-90.46 65.64,-88.4 71.2,-87 325.88,-23.01 642.6,-17.57 767.24,-18.2"/>
<polygon fill="black" stroke="black" points="767.27,-21.7 777.29,-18.27 767.31,-14.7 767.27,-21.7"/>
<text text-anchor="middle" x="248.7" y="-57.8" font-family="Times New Roman,serif" font-size="14.00">0.080</text>
</g>
<!-- 2 -->
<g id="node3" class="node">
<title>2</title>
<g id="a_node3"><a xlink:href="to_television production assistant.svg" xlink:title="television production assistant">
<ellipse fill="none" stroke="black" cx="200.2" cy="-105" rx="120.48" ry="18"/>
<text text-anchor="middle" x="200.2" y="-101.3" font-family="Times New Roman,serif" font-size="14.00">television production assistant</text>
</a>
</g>
</g>
<!-- 2&#45;&gt;0 -->
<g id="edge3" class="edge">
<title>2&#45;&gt;0</title>
<path fill="none" stroke="black" d="M285.57,-92.31C416.68,-74.37 663.59,-40.57 770.13,-25.99"/>
<polygon fill="black" stroke="black" points="770.86,-29.42 780.3,-24.6 769.91,-22.49 770.86,-29.42"/>
<text text-anchor="middle" x="563.7" y="-57.8" font-family="Times New Roman,serif" font-size="14.00">0.050</text>
</g>
<!-- 3 -->
<g id="node4" class="node">
<title>3</title>
<g id="a_node4"><a xlink:href="to_commissioning editor.svg" xlink:title="commissioning editor">
<ellipse fill="none" stroke="black" cx="427.2" cy="-105" rx="89.08" ry="18"/>
<text text-anchor="middle" x="427.2" y="-101.3" font-family="Times New Roman,serif" font-size="14.00">commissioning editor</text>
</a>
</g>
</g>
<!-- 3&#45;&gt;0 -->
<g id="edge4" class="edge">
<title>3&#45;&gt;0</title>
<path fill="none" stroke="black" d="M485.76,-91.37C563.91,-74.51 700.84,-44.97 773.22,-29.35"/>
<polygon fill="black" stroke="black" points="774.37,-32.68 783.41,-27.15 772.9,-25.84 774.37,-32.68"/>
<text text-anchor="middle" x="663.7" y="-57.8" font-family="Times New Roman,serif" font-size="14.00">0.040</text>
</g>
<!-- 4 -->
<g id="node5" class="node">
<title>4</title>
<g id="a_node5"><a xlink:href="to_broadcasting presenter.svg" xlink:title="broadcasting presenter">
<ellipse fill="none" stroke="black" cx="627.2" cy="-105" rx="92.88" ry="18"/>
<text text-anchor="middle" x="627.2" y="-101.3" font-family="Times New Roman,serif" font-size="14.00">broadcasting presenter</text>
</a>
</g>
</g>
<!-- 4&#45;&gt;0 -->
<g id="edge5" class="edge">
<title>4&#45;&gt;0</title>
<path fill="none" stroke="black" d="M663.23,-88.21C697.29,-73.29 748.2,-50.98 782.96,-35.75"/>
<polygon fill="black" stroke="black" points="784.55,-38.88 792.31,-31.66 781.74,-32.47 784.55,-38.88"/>
<text text-anchor="middle" x="751.7" y="-57.8" font-family="Times New Roman,serif" font-size="14.00">0.030</text>
</g>
<!-- 5 -->
<g id="node6" class="node">
<title>5</title>
<g id="a_node6"><a xlink:href="to_production manager.svg" xlink:title="production manager">
<ellipse fill="none" stroke="black" cx="821.2" cy="-105" rx="83.39" ry="18"/>
<text text-anchor="middle" x="821.2" y="-101.3" font-family="Times New Roman,serif" font-size="14.00">production manager</text>
</a>
</g>
</g>
<!-- 5&#45;&gt;0 -->
<g id="edge6" class="edge">
<title>5&#45;&gt;0</title>
<path fill="none" stroke="black" d="M821.2,-86.8C821.2,-75.16 821.2,-59.55 821.2,-46.24"/>
<polygon fill="black" stroke="black" points="824.7,-46.18 821.2,-36.18 817.7,-46.18 824.7,-46.18"/>
<text text-anchor="middle" x="836.7" y="-57.8" font-family="Times New Roman,serif" font-size="14.00">0.030</text>
</g>
<!-- 6 -->
<g id="node7" class="node">
<title>6</title>
<g id="a_node7"><a xlink:href="to_brand manager.svg" xlink:title="brand manager">
<ellipse fill="none" stroke="black" cx="987.2" cy="-105" rx="64.19" ry="18"/>
<text text-anchor="middle" x="987.2" y="-101.3" font-family="Times New Roman,serif" font-size="14.00">brand manager</text>
</a>
</g>
</g>
<!-- 6&#45;&gt;0 -->
<g id="edge7" class="edge">
<title>6&#45;&gt;0</title>
<path fill="none" stroke="black" d="M957.52,-88.8C929.33,-74.37 886.91,-52.65 856.89,-37.27"/>
<polygon fill="black" stroke="black" points="858.1,-33.97 847.61,-32.52 854.91,-40.2 858.1,-33.97"/>
<text text-anchor="middle" x="929.7" y="-57.8" font-family="Times New Roman,serif" font-size="14.00">0.020</text>
</g>
<!-- 7 -->
<g id="node8" class="node">
<title>7</title>
<g id="a_node8"><a xlink:href="to_content manager.svg" xlink:title="content manager">
<ellipse fill="none" stroke="black" cx="1140.2" cy="-105" rx="70.39" ry="18"/>
<text text-anchor="middle" x="1140.2" y="-101.3" font-family="Times New Roman,serif" font-size="14.00">content manager</text>
</a>
</g>
</g>
<!-- 7&#45;&gt;0 -->
<g id="edge8" class="edge">
<title>7&#45;&gt;0</title>
<path fill="none" stroke="black" d="M1093.47,-91.55C1032.61,-75.33 926.91,-47.17 866.68,-31.12"/>
<polygon fill="black" stroke="black" points="867.26,-27.65 856.7,-28.46 865.46,-34.42 867.26,-27.65"/>
<text text-anchor="middle" x="1014.7" y="-57.8" font-family="Times New Roman,serif" font-size="14.00">0.020</text>
</g>
<!-- 8 -->
<g id="node9" class="node">
<title>8</title>
<g id="a_node9"><a xlink:href="to_lecturer.svg" xlink:title="lecturer">
<ellipse fill="none" stroke="black" cx="1266.2" cy="-105" rx="37.89" ry="18"/>
<text text-anchor="middle" x="1266.2" y="-101.3" font-family="Times New Roman,serif" font-size="14.00">lecturer</text>
</a>
</g>
</g>
<!-- 8&#45;&gt;0 -->
<g id="edge9" class="edge">
<title>8&#45;&gt;0</title>
<path fill="none" stroke="black" d="M1238.11,-92.96C1231.94,-90.78 1225.4,-88.66 1219.2,-87 1097.14,-54.29 949.62,-33.93 873.03,-24.75"/>
<polygon fill="black" stroke="black" points="873.05,-21.22 862.71,-23.52 872.22,-28.17 873.05,-21.22"/>
<text text-anchor="middle" x="1158.7" y="-57.8" font-family="Times New Roman,serif" font-size="14.00">0.020</text>
</g>
<!-- 9 -->
<g id="node10" class="node">
<title>9</title>
<g id="a_node10"><a xlink:href="to_public house manager.svg" xlink:title="public house manager">
<ellipse fill="none" stroke="black" cx="1411.2" cy="-105" rx="89.88" ry="18"/>
<text text-anchor="middle" x="1411.2" y="-101.3" font-family="Times New Roman,serif" font-size="14.00">public house manager</text>
</a>
</g>
</g>
<!-- 9&#45;&gt;0 -->
<g id="edge10" class="edge">
<title>9&#45;&gt;0</title>
<path fill="none" stroke="black" d="M1356.91,-90.52C1309.9,-79.28 1239.92,-63.62 1178.2,-54 1070.94,-37.29 944.24,-27.11 874.3,-22.31"/>
<polygon fill="black" stroke="black" points="874.2,-18.8 863.98,-21.62 873.73,-25.78 874.2,-18.8"/>
<text text-anchor="middle" x="1270.7" y="-57.8" font-family="Times New Roman,serif" font-size="14.00">0.020</text>
</g>
</g>
</svg>
