<?xml version="1.0" encoding="UTF-8" standalone="no"?>
<!DOCTYPE svg PUBLIC "-//W3C//DTD SVG 1.1//EN"
 "http://www.w3.org/Graphics/SVG/1.1/DTD/svg11.dtd">
<!-- Generated by graphviz version 2.44.1 (20200629.0800)
 -->
<!-- Title: local_government_administrator Pages: 1 -->
<svg width="1716pt" height="131pt"
 viewBox="0.00 0.00 1715.94 131.00" xmlns="http://www.w3.org/2000/svg" xmlns:xlink="http://www.w3.org/1999/xlink">
<g id="graph0" class="graph" transform="scale(1 1) rotate(0) translate(4 127)">
<title>local_government_administrator</title>
<polygon fill="white" stroke="transparent" points="-4,4 -4,-127 1711.94,-127 1711.94,4 -4,4"/>
<!-- 0 -->
<g id="node1" class="node">
<title>0</title>
<g id="a_node1"><a xlink:href="to_pharmacovigilance officer.svg" xlink:title="pharmacovigilance officer">
<ellipse fill="none" stroke="black" cx="104.64" cy="-105" rx="104.78" ry="18"/>
<text text-anchor="middle" x="104.64" y="-101.3" font-family="Times New Roman,serif" font-size="14.00">pharmacovigilance officer</text>
</a>
</g>
</g>
<!-- 1 -->
<g id="node2" class="node">
<title>1</title>
<g id="a_node2"><a xlink:href="to_local government administrator.svg" xlink:title="local government administrator">
<ellipse fill="none" stroke="black" cx="945.64" cy="-18" rx="122.38" ry="18"/>
<text text-anchor="middle" x="945.64" y="-14.3" font-family="Times New Roman,serif" font-size="14.00">local government administrator</text>
</a>
</g>
</g>
<!-- 0&#45;&gt;1 -->
<g id="edge1" class="edge">
<title>0&#45;&gt;1</title>
<path fill="none" stroke="black" d="M179.7,-92.4C192.68,-90.51 206.04,-88.64 218.64,-87 350.34,-69.87 383.44,-66.72 515.64,-54 621.42,-43.82 742.03,-34.17 828.54,-27.6"/>
<polygon fill="black" stroke="black" points="828.95,-31.08 838.65,-26.83 828.42,-24.1 828.95,-31.08"/>
<text text-anchor="middle" x="531.14" y="-57.8" font-family="Times New Roman,serif" font-size="14.00">0.088</text>
</g>
<!-- 2 -->
<g id="node3" class="node">
<title>2</title>
<g id="a_node3"><a xlink:href="to_outdoor pursuits manager.svg" xlink:title="outdoor pursuits manager">
<ellipse fill="none" stroke="black" cx="331.64" cy="-105" rx="103.98" ry="18"/>
<text text-anchor="middle" x="331.64" y="-101.3" font-family="Times New Roman,serif" font-size="14.00">outdoor pursuits manager</text>
</a>
</g>
</g>
<!-- 2&#45;&gt;1 -->
<g id="edge2" class="edge">
<title>2&#45;&gt;1</title>
<path fill="none" stroke="black" d="M402.68,-91.77C466.04,-81.07 561.37,-65.49 644.64,-54 709.05,-45.12 781.41,-36.65 839.05,-30.27"/>
<polygon fill="black" stroke="black" points="839.71,-33.72 849.26,-29.15 838.94,-26.77 839.71,-33.72"/>
<text text-anchor="middle" x="660.14" y="-57.8" font-family="Times New Roman,serif" font-size="14.00">0.066</text>
</g>
<!-- 3 -->
<g id="node4" class="node">
<title>3</title>
<g id="a_node4"><a xlink:href="to_careers adviser.svg" xlink:title="careers adviser">
<ellipse fill="none" stroke="black" cx="518.64" cy="-105" rx="64.99" ry="18"/>
<text text-anchor="middle" x="518.64" y="-101.3" font-family="Times New Roman,serif" font-size="14.00">careers adviser</text>
</a>
</g>
</g>
<!-- 3&#45;&gt;1 -->
<g id="edge3" class="edge">
<title>3&#45;&gt;1</title>
<path fill="none" stroke="black" d="M566.76,-92.74C575.37,-90.78 584.26,-88.8 592.64,-87 684.28,-67.31 789.89,-47.32 861.54,-34.16"/>
<polygon fill="black" stroke="black" points="862.21,-37.59 871.42,-32.35 860.95,-30.71 862.21,-37.59"/>
<text text-anchor="middle" x="763.14" y="-57.8" font-family="Times New Roman,serif" font-size="14.00">0.044</text>
</g>
<!-- 4 -->
<g id="node5" class="node">
<title>4</title>
<g id="a_node5"><a xlink:href="to_project manager.svg" xlink:title="project manager">
<ellipse fill="none" stroke="black" cx="670.64" cy="-105" rx="68.79" ry="18"/>
<text text-anchor="middle" x="670.64" y="-101.3" font-family="Times New Roman,serif" font-size="14.00">project manager</text>
</a>
</g>
</g>
<!-- 4&#45;&gt;1 -->
<g id="edge4" class="edge">
<title>4&#45;&gt;1</title>
<path fill="none" stroke="black" d="M713.31,-90.81C759.51,-76.53 833.57,-53.64 885.63,-37.55"/>
<polygon fill="black" stroke="black" points="886.88,-40.82 895.41,-34.53 884.82,-34.14 886.88,-40.82"/>
<text text-anchor="middle" x="840.14" y="-57.8" font-family="Times New Roman,serif" font-size="14.00">0.044</text>
</g>
<!-- 5 -->
<g id="node6" class="node">
<title>5</title>
<g id="a_node6"><a xlink:href="to_regulatory affairs officer.svg" xlink:title="regulatory affairs officer">
<ellipse fill="none" stroke="black" cx="855.64" cy="-105" rx="98.28" ry="18"/>
<text text-anchor="middle" x="855.64" y="-101.3" font-family="Times New Roman,serif" font-size="14.00">regulatory affairs officer</text>
</a>
</g>
</g>
<!-- 5&#45;&gt;1 -->
<g id="edge5" class="edge">
<title>5&#45;&gt;1</title>
<path fill="none" stroke="black" d="M873.42,-87.21C886.77,-74.6 905.24,-57.16 920.16,-43.07"/>
<polygon fill="black" stroke="black" points="922.72,-45.46 927.59,-36.05 917.92,-40.37 922.72,-45.46"/>
<text text-anchor="middle" x="922.14" y="-57.8" font-family="Times New Roman,serif" font-size="14.00">0.044</text>
</g>
<!-- 6 -->
<g id="node7" class="node">
<title>6</title>
<g id="a_node7"><a xlink:href="to_sales executive.svg" xlink:title="sales executive">
<ellipse fill="none" stroke="black" cx="1035.64" cy="-105" rx="64.19" ry="18"/>
<text text-anchor="middle" x="1035.64" y="-101.3" font-family="Times New Roman,serif" font-size="14.00">sales executive</text>
</a>
</g>
</g>
<!-- 6&#45;&gt;1 -->
<g id="edge6" class="edge">
<title>6&#45;&gt;1</title>
<path fill="none" stroke="black" d="M1018.29,-87.61C1004.89,-74.96 986.16,-57.26 971.07,-43.01"/>
<polygon fill="black" stroke="black" points="973.23,-40.24 963.56,-35.92 968.42,-45.33 973.23,-40.24"/>
<text text-anchor="middle" x="1012.14" y="-57.8" font-family="Times New Roman,serif" font-size="14.00">0.044</text>
</g>
<!-- 7 -->
<g id="node8" class="node">
<title>7</title>
<g id="a_node8"><a xlink:href="to_sales manager.svg" xlink:title="sales manager">
<ellipse fill="none" stroke="black" cx="1178.64" cy="-105" rx="61.19" ry="18"/>
<text text-anchor="middle" x="1178.64" y="-101.3" font-family="Times New Roman,serif" font-size="14.00">sales manager</text>
</a>
</g>
</g>
<!-- 7&#45;&gt;1 -->
<g id="edge7" class="edge">
<title>7&#45;&gt;1</title>
<path fill="none" stroke="black" d="M1141.72,-90.53C1103.19,-76.47 1042.41,-54.3 998.73,-38.37"/>
<polygon fill="black" stroke="black" points="999.72,-35 989.13,-34.86 997.32,-41.58 999.72,-35"/>
<text text-anchor="middle" x="1092.14" y="-57.8" font-family="Times New Roman,serif" font-size="14.00">0.044</text>
</g>
<!-- 8 -->
<g id="node9" class="node">
<title>8</title>
<g id="a_node9"><a xlink:href="to_academic librarian.svg" xlink:title="academic librarian">
<ellipse fill="none" stroke="black" cx="1333.64" cy="-105" rx="76.09" ry="18"/>
<text text-anchor="middle" x="1333.64" y="-101.3" font-family="Times New Roman,serif" font-size="14.00">academic librarian</text>
</a>
</g>
</g>
<!-- 8&#45;&gt;1 -->
<g id="edge8" class="edge">
<title>8&#45;&gt;1</title>
<path fill="none" stroke="black" d="M1280.76,-91.87C1235.81,-81.62 1169.54,-66.62 1111.64,-54 1082.81,-47.71 1051.12,-40.99 1023.22,-35.13"/>
<polygon fill="black" stroke="black" points="1023.63,-31.64 1013.13,-33.01 1022.19,-38.49 1023.63,-31.64"/>
<text text-anchor="middle" x="1195.14" y="-57.8" font-family="Times New Roman,serif" font-size="14.00">0.022</text>
</g>
<!-- 9 -->
<g id="node10" class="node">
<title>9</title>
<g id="a_node10"><a xlink:href="to_advertising copywriter.svg" xlink:title="advertising copywriter">
<ellipse fill="none" stroke="black" cx="1518.64" cy="-105" rx="90.98" ry="18"/>
<text text-anchor="middle" x="1518.64" y="-101.3" font-family="Times New Roman,serif" font-size="14.00">advertising copywriter</text>
</a>
</g>
</g>
<!-- 9&#45;&gt;1 -->
<g id="edge9" class="edge">
<title>9&#45;&gt;1</title>
<path fill="none" stroke="black" d="M1452.22,-92.63C1441.02,-90.74 1429.5,-88.8 1418.64,-87 1328.03,-71.97 1305.52,-67.26 1214.64,-54 1159.05,-45.89 1096.85,-37.74 1046.28,-31.34"/>
<polygon fill="black" stroke="black" points="1046.68,-27.87 1036.32,-30.09 1045.81,-34.81 1046.68,-27.87"/>
<text text-anchor="middle" x="1325.14" y="-57.8" font-family="Times New Roman,serif" font-size="14.00">0.022</text>
</g>
<!-- 10 -->
<g id="node11" class="node">
<title>10</title>
<g id="a_node11"><a xlink:href="to_barrister.svg" xlink:title="barrister">
<ellipse fill="none" stroke="black" cx="1667.64" cy="-105" rx="40.09" ry="18"/>
<text text-anchor="middle" x="1667.64" y="-101.3" font-family="Times New Roman,serif" font-size="14.00">barrister</text>
</a>
</g>
</g>
<!-- 10&#45;&gt;1 -->
<g id="edge10" class="edge">
<title>10&#45;&gt;1</title>
<path fill="none" stroke="black" d="M1638.14,-92.63C1631.78,-90.5 1625.05,-88.48 1618.64,-87 1432.77,-44.09 1211.82,-28.25 1075.14,-22.41"/>
<polygon fill="black" stroke="black" points="1075.18,-18.91 1065.04,-21.99 1074.89,-25.91 1075.18,-18.91"/>
<text text-anchor="middle" x="1543.14" y="-57.8" font-family="Times New Roman,serif" font-size="14.00">0.022</text>
</g>
</g>
</svg>
