<?xml version="1.0" encoding="UTF-8" standalone="no"?>
<!DOCTYPE svg PUBLIC "-//W3C//DTD SVG 1.1//EN"
 "http://www.w3.org/Graphics/SVG/1.1/DTD/svg11.dtd">
<!-- Generated by graphviz version 2.44.1 (20200629.0800)
 -->
<!-- Title: test Pages: 1 -->
<svg width="1552pt" height="131pt"
 viewBox="0.00 0.00 1551.79 131.00" xmlns="http://www.w3.org/2000/svg" xmlns:xlink="http://www.w3.org/1999/xlink">
<g id="graph0" class="graph" transform="scale(1 1) rotate(0) translate(4 127)">
<title>test</title>
<polygon fill="white" stroke="transparent" points="-4,4 -4,-127 1547.79,-127 1547.79,4 -4,4"/>
<!-- 0 -->
<g id="node1" class="node">
<title>0</title>
<g id="a_node1"><a xlink:href="to_landscape architect.svg" xlink:title="landscape architect">
<ellipse fill="none" stroke="black" cx="781.6" cy="-18" rx="79.89" ry="18"/>
<text text-anchor="middle" x="781.6" y="-14.3" font-family="Times New Roman,serif" font-size="14.00">landscape architect</text>
</a>
</g>
</g>
<!-- 0&#45;&gt;0 -->
<g id="edge1" class="edge">
<title>0&#45;&gt;0</title>
<path fill="none" stroke="black" d="M854.21,-25.57C868.97,-24.75 879.54,-22.22 879.54,-18 879.54,-14.83 873.59,-12.62 864.39,-11.36"/>
<polygon fill="black" stroke="black" points="864.49,-7.86 854.21,-10.43 863.85,-14.83 864.49,-7.86"/>
<text text-anchor="middle" x="895.04" y="-14.3" font-family="Times New Roman,serif" font-size="14.00">0.212</text>
</g>
<!-- 1 -->
<g id="node2" class="node">
<title>1</title>
<g id="a_node2"><a xlink:href="to_architect.svg" xlink:title="architect">
<ellipse fill="none" stroke="black" cx="41.6" cy="-105" rx="41.69" ry="18"/>
<text text-anchor="middle" x="41.6" y="-101.3" font-family="Times New Roman,serif" font-size="14.00">architect</text>
</a>
</g>
</g>
<!-- 1&#45;&gt;0 -->
<g id="edge2" class="edge">
<title>1&#45;&gt;0</title>
<path fill="none" stroke="black" d="M72.05,-92.68C78.74,-90.52 85.85,-88.48 92.6,-87 304.44,-40.59 559.92,-25.82 692.29,-21.15"/>
<polygon fill="black" stroke="black" points="692.51,-24.64 702.39,-20.8 692.27,-17.65 692.51,-24.64"/>
<text text-anchor="middle" x="296.1" y="-57.8" font-family="Times New Roman,serif" font-size="14.00">0.170</text>
</g>
<!-- 2 -->
<g id="node3" class="node">
<title>2</title>
<g id="a_node3"><a xlink:href="to_fitness centre manager.svg" xlink:title="fitness centre manager">
<ellipse fill="none" stroke="black" cx="192.6" cy="-105" rx="90.98" ry="18"/>
<text text-anchor="middle" x="192.6" y="-101.3" font-family="Times New Roman,serif" font-size="14.00">fitness centre manager</text>
</a>
</g>
</g>
<!-- 2&#45;&gt;0 -->
<g id="edge3" class="edge">
<title>2&#45;&gt;0</title>
<path fill="none" stroke="black" d="M258.44,-92.52C269.82,-90.61 281.54,-88.71 292.6,-87 437.81,-64.56 607.83,-41.68 704.31,-29.01"/>
<polygon fill="black" stroke="black" points="704.81,-32.48 714.27,-27.71 703.9,-25.54 704.81,-32.48"/>
<text text-anchor="middle" x="523.1" y="-57.8" font-family="Times New Roman,serif" font-size="14.00">0.042</text>
</g>
<!-- 3 -->
<g id="node4" class="node">
<title>3</title>
<g id="a_node4"><a xlink:href="to_pharmacovigilance officer.svg" xlink:title="pharmacovigilance officer">
<ellipse fill="none" stroke="black" cx="406.6" cy="-105" rx="104.78" ry="18"/>
<text text-anchor="middle" x="406.6" y="-101.3" font-family="Times New Roman,serif" font-size="14.00">pharmacovigilance officer</text>
</a>
</g>
</g>
<!-- 3&#45;&gt;0 -->
<g id="edge4" class="edge">
<title>3&#45;&gt;0</title>
<path fill="none" stroke="black" d="M467.26,-90.25C535.92,-74.69 647.29,-49.44 717.38,-33.56"/>
<polygon fill="black" stroke="black" points="718.43,-36.91 727.41,-31.28 716.88,-30.08 718.43,-36.91"/>
<text text-anchor="middle" x="632.1" y="-57.8" font-family="Times New Roman,serif" font-size="14.00">0.042</text>
</g>
<!-- 4 -->
<g id="node5" class="node">
<title>4</title>
<g id="a_node5"><a xlink:href="to_planning technician.svg" xlink:title="planning technician">
<ellipse fill="none" stroke="black" cx="608.6" cy="-105" rx="79.09" ry="18"/>
<text text-anchor="middle" x="608.6" y="-101.3" font-family="Times New Roman,serif" font-size="14.00">planning technician</text>
</a>
</g>
</g>
<!-- 4&#45;&gt;0 -->
<g id="edge5" class="edge">
<title>4&#45;&gt;0</title>
<path fill="none" stroke="black" d="M640.33,-88.41C668.53,-74.55 709.92,-54.22 740.62,-39.13"/>
<polygon fill="black" stroke="black" points="742.34,-42.19 749.77,-34.64 739.26,-35.9 742.34,-42.19"/>
<text text-anchor="middle" x="721.1" y="-57.8" font-family="Times New Roman,serif" font-size="14.00">0.042</text>
</g>
<!-- 5 -->
<g id="node6" class="node">
<title>5</title>
<g id="a_node6"><a xlink:href="to_software architect.svg" xlink:title="software architect">
<ellipse fill="none" stroke="black" cx="781.6" cy="-105" rx="75.29" ry="18"/>
<text text-anchor="middle" x="781.6" y="-101.3" font-family="Times New Roman,serif" font-size="14.00">software architect</text>
</a>
</g>
</g>
<!-- 5&#45;&gt;0 -->
<g id="edge6" class="edge">
<title>5&#45;&gt;0</title>
<path fill="none" stroke="black" d="M781.6,-86.8C781.6,-75.16 781.6,-59.55 781.6,-46.24"/>
<polygon fill="black" stroke="black" points="785.1,-46.18 781.6,-36.18 778.1,-46.18 785.1,-46.18"/>
<text text-anchor="middle" x="797.1" y="-57.8" font-family="Times New Roman,serif" font-size="14.00">0.042</text>
</g>
<!-- 6 -->
<g id="node7" class="node">
<title>6</title>
<g id="a_node7"><a xlink:href="to_agricultural consultant.svg" xlink:title="agricultural consultant">
<ellipse fill="none" stroke="black" cx="964.6" cy="-105" rx="89.88" ry="18"/>
<text text-anchor="middle" x="964.6" y="-101.3" font-family="Times New Roman,serif" font-size="14.00">agricultural consultant</text>
</a>
</g>
</g>
<!-- 6&#45;&gt;0 -->
<g id="edge7" class="edge">
<title>6&#45;&gt;0</title>
<path fill="none" stroke="black" d="M930.6,-88.21C900.5,-74.23 856.43,-53.76 824.02,-38.71"/>
<polygon fill="black" stroke="black" points="825.33,-35.46 814.79,-34.42 822.38,-41.8 825.33,-35.46"/>
<text text-anchor="middle" x="900.1" y="-57.8" font-family="Times New Roman,serif" font-size="14.00">0.021</text>
</g>
<!-- 7 -->
<g id="node8" class="node">
<title>7</title>
<g id="a_node8"><a xlink:href="to_electrical engineer.svg" xlink:title="electrical engineer">
<ellipse fill="none" stroke="black" cx="1146.6" cy="-105" rx="74.99" ry="18"/>
<text text-anchor="middle" x="1146.6" y="-101.3" font-family="Times New Roman,serif" font-size="14.00">electrical engineer</text>
</a>
</g>
</g>
<!-- 7&#45;&gt;0 -->
<g id="edge8" class="edge">
<title>7&#45;&gt;0</title>
<path fill="none" stroke="black" d="M1094.69,-91.91C1029.03,-76.62 916.02,-50.3 845.23,-33.82"/>
<polygon fill="black" stroke="black" points="845.64,-30.32 835.11,-31.46 844.05,-37.14 845.64,-30.32"/>
<text text-anchor="middle" x="1002.1" y="-57.8" font-family="Times New Roman,serif" font-size="14.00">0.021</text>
</g>
<!-- 8 -->
<g id="node9" class="node">
<title>8</title>
<g id="a_node9"><a xlink:href="to_facilities manager.svg" xlink:title="facilities manager">
<ellipse fill="none" stroke="black" cx="1312.6" cy="-105" rx="72.59" ry="18"/>
<text text-anchor="middle" x="1312.6" y="-101.3" font-family="Times New Roman,serif" font-size="14.00">facilities manager</text>
</a>
</g>
</g>
<!-- 8&#45;&gt;0 -->
<g id="edge9" class="edge">
<title>8&#45;&gt;0</title>
<path fill="none" stroke="black" d="M1259.3,-92.56C1249.76,-90.63 1239.89,-88.7 1230.6,-87 1100.65,-63.29 948.48,-41.49 858.83,-29.25"/>
<polygon fill="black" stroke="black" points="859.13,-25.76 848.75,-27.88 858.19,-32.7 859.13,-25.76"/>
<text text-anchor="middle" x="1135.1" y="-57.8" font-family="Times New Roman,serif" font-size="14.00">0.021</text>
</g>
<!-- 9 -->
<g id="node10" class="node">
<title>9</title>
<g id="a_node10"><a xlink:href="to_graphic designer.svg" xlink:title="graphic designer">
<ellipse fill="none" stroke="black" cx="1473.6" cy="-105" rx="70.39" ry="18"/>
<text text-anchor="middle" x="1473.6" y="-101.3" font-family="Times New Roman,serif" font-size="14.00">graphic designer</text>
</a>
</g>
</g>
<!-- 9&#45;&gt;0 -->
<g id="edge10" class="edge">
<title>9&#45;&gt;0</title>
<path fill="none" stroke="black" d="M1422.71,-92.46C1413.38,-90.51 1403.72,-88.61 1394.6,-87 1207.85,-54.12 986.13,-34.19 867.19,-25.03"/>
<polygon fill="black" stroke="black" points="867.29,-21.52 857.06,-24.25 866.76,-28.5 867.29,-21.52"/>
<text text-anchor="middle" x="1293.1" y="-57.8" font-family="Times New Roman,serif" font-size="14.00">0.021</text>
</g>
</g>
</svg>
