<?xml version="1.0" encoding="UTF-8" standalone="no"?>
<!DOCTYPE svg PUBLIC "-//W3C//DTD SVG 1.1//EN"
 "http://www.w3.org/Graphics/SVG/1.1/DTD/svg11.dtd">
<!-- Generated by graphviz version 2.44.1 (20200629.0800)
 -->
<!-- Title: test Pages: 1 -->
<svg width="1495pt" height="131pt"
 viewBox="0.00 0.00 1495.49 131.00" xmlns="http://www.w3.org/2000/svg" xmlns:xlink="http://www.w3.org/1999/xlink">
<g id="graph0" class="graph" transform="scale(1 1) rotate(0) translate(4 127)">
<title>test</title>
<polygon fill="white" stroke="transparent" points="-4,4 -4,-127 1491.49,-127 1491.49,4 -4,4"/>
<!-- 0 -->
<g id="node1" class="node">
<title>0</title>
<g id="a_node1"><a xlink:href="to_lecturer.svg" xlink:title="lecturer">
<ellipse fill="none" stroke="black" cx="37.7" cy="-105" rx="37.89" ry="18"/>
<text text-anchor="middle" x="37.7" y="-101.3" font-family="Times New Roman,serif" font-size="14.00">lecturer</text>
</a>
</g>
</g>
<!-- 1 -->
<g id="node2" class="node">
<title>1</title>
<g id="a_node2"><a xlink:href="to_leisure centre manager.svg" xlink:title="leisure centre manager">
<ellipse fill="none" stroke="black" cx="692.7" cy="-18" rx="90.98" ry="18"/>
<text text-anchor="middle" x="692.7" y="-14.3" font-family="Times New Roman,serif" font-size="14.00">leisure centre manager</text>
</a>
</g>
</g>
<!-- 0&#45;&gt;1 -->
<g id="edge1" class="edge">
<title>0&#45;&gt;1</title>
<path fill="none" stroke="black" d="M65.76,-92.87C71.93,-90.7 78.48,-88.6 84.7,-87 259.88,-41.79 471.11,-26.64 592.87,-21.56"/>
<polygon fill="black" stroke="black" points="593.07,-25.05 602.92,-21.15 592.79,-18.06 593.07,-25.05"/>
<text text-anchor="middle" x="248.2" y="-57.8" font-family="Times New Roman,serif" font-size="14.00">0.117</text>
</g>
<!-- 1&#45;&gt;1 -->
<g id="edge2" class="edge">
<title>1&#45;&gt;1</title>
<path fill="none" stroke="black" d="M775.86,-25.44C791.04,-24.5 801.69,-22.02 801.69,-18 801.69,-14.95 795.57,-12.79 786,-11.51"/>
<polygon fill="black" stroke="black" points="786.14,-8.01 775.86,-10.56 785.49,-14.98 786.14,-8.01"/>
<text text-anchor="middle" x="817.19" y="-14.3" font-family="Times New Roman,serif" font-size="14.00">0.078</text>
</g>
<!-- 2 -->
<g id="node3" class="node">
<title>2</title>
<g id="a_node3"><a xlink:href="to_sales manager.svg" xlink:title="sales manager">
<ellipse fill="none" stroke="black" cx="154.7" cy="-105" rx="61.19" ry="18"/>
<text text-anchor="middle" x="154.7" y="-101.3" font-family="Times New Roman,serif" font-size="14.00">sales manager</text>
</a>
</g>
</g>
<!-- 2&#45;&gt;1 -->
<g id="edge3" class="edge">
<title>2&#45;&gt;1</title>
<path fill="none" stroke="black" d="M199,-92.58C207.5,-90.57 216.35,-88.62 224.7,-87 356.91,-61.4 511.82,-40.69 606.07,-29.11"/>
<polygon fill="black" stroke="black" points="606.63,-32.57 616.13,-27.88 605.78,-25.62 606.63,-32.57"/>
<text text-anchor="middle" x="433.2" y="-57.8" font-family="Times New Roman,serif" font-size="14.00">0.058</text>
</g>
<!-- 3 -->
<g id="node4" class="node">
<title>3</title>
<g id="a_node4"><a xlink:href="to_community education officer.svg" xlink:title="community education officer">
<ellipse fill="none" stroke="black" cx="348.7" cy="-105" rx="115.08" ry="18"/>
<text text-anchor="middle" x="348.7" y="-101.3" font-family="Times New Roman,serif" font-size="14.00">community education officer</text>
</a>
</g>
</g>
<!-- 3&#45;&gt;1 -->
<g id="edge4" class="edge">
<title>3&#45;&gt;1</title>
<path fill="none" stroke="black" d="M407.44,-89.48C468.83,-74.32 564.86,-50.59 628.28,-34.92"/>
<polygon fill="black" stroke="black" points="629.3,-38.27 638.17,-32.47 627.62,-31.47 629.3,-38.27"/>
<text text-anchor="middle" x="557.2" y="-57.8" font-family="Times New Roman,serif" font-size="14.00">0.039</text>
</g>
<!-- 4 -->
<g id="node5" class="node">
<title>4</title>
<g id="a_node5"><a xlink:href="to_office manager.svg" xlink:title="office manager">
<ellipse fill="none" stroke="black" cx="545.7" cy="-105" rx="64.19" ry="18"/>
<text text-anchor="middle" x="545.7" y="-101.3" font-family="Times New Roman,serif" font-size="14.00">office manager</text>
</a>
</g>
</g>
<!-- 4&#45;&gt;1 -->
<g id="edge5" class="edge">
<title>4&#45;&gt;1</title>
<path fill="none" stroke="black" d="M572.32,-88.61C595.7,-75.08 629.96,-55.28 655.96,-40.24"/>
<polygon fill="black" stroke="black" points="657.87,-43.18 664.77,-35.15 654.37,-37.12 657.87,-43.18"/>
<text text-anchor="middle" x="644.2" y="-57.8" font-family="Times New Roman,serif" font-size="14.00">0.039</text>
</g>
<!-- 5 -->
<g id="node6" class="node">
<title>5</title>
<g id="a_node6"><a xlink:href="to_sales executive.svg" xlink:title="sales executive">
<ellipse fill="none" stroke="black" cx="692.7" cy="-105" rx="64.19" ry="18"/>
<text text-anchor="middle" x="692.7" y="-101.3" font-family="Times New Roman,serif" font-size="14.00">sales executive</text>
</a>
</g>
</g>
<!-- 5&#45;&gt;1 -->
<g id="edge6" class="edge">
<title>5&#45;&gt;1</title>
<path fill="none" stroke="black" d="M692.7,-86.8C692.7,-75.16 692.7,-59.55 692.7,-46.24"/>
<polygon fill="black" stroke="black" points="696.2,-46.18 692.7,-36.18 689.2,-46.18 696.2,-46.18"/>
<text text-anchor="middle" x="708.2" y="-57.8" font-family="Times New Roman,serif" font-size="14.00">0.039</text>
</g>
<!-- 6 -->
<g id="node7" class="node">
<title>6</title>
<g id="a_node7"><a xlink:href="to_sports development officer.svg" xlink:title="sports development officer">
<ellipse fill="none" stroke="black" cx="883.7" cy="-105" rx="108.58" ry="18"/>
<text text-anchor="middle" x="883.7" y="-101.3" font-family="Times New Roman,serif" font-size="14.00">sports development officer</text>
</a>
</g>
</g>
<!-- 6&#45;&gt;1 -->
<g id="edge7" class="edge">
<title>6&#45;&gt;1</title>
<path fill="none" stroke="black" d="M847.77,-88.01C816.36,-74.03 770.63,-53.68 736.97,-38.7"/>
<polygon fill="black" stroke="black" points="738.38,-35.5 727.82,-34.63 735.53,-41.89 738.38,-35.5"/>
<text text-anchor="middle" x="815.2" y="-57.8" font-family="Times New Roman,serif" font-size="14.00">0.039</text>
</g>
<!-- 7 -->
<g id="node8" class="node">
<title>7</title>
<g id="a_node8"><a xlink:href="to_academic librarian.svg" xlink:title="academic librarian">
<ellipse fill="none" stroke="black" cx="1086.7" cy="-105" rx="76.09" ry="18"/>
<text text-anchor="middle" x="1086.7" y="-101.3" font-family="Times New Roman,serif" font-size="14.00">academic librarian</text>
</a>
</g>
</g>
<!-- 7&#45;&gt;1 -->
<g id="edge8" class="edge">
<title>7&#45;&gt;1</title>
<path fill="none" stroke="black" d="M1032.33,-92.27C961.82,-77.06 838.77,-50.51 761.73,-33.89"/>
<polygon fill="black" stroke="black" points="762.16,-30.4 751.64,-31.72 760.68,-37.25 762.16,-30.4"/>
<text text-anchor="middle" x="929.2" y="-57.8" font-family="Times New Roman,serif" font-size="14.00">0.019</text>
</g>
<!-- 8 -->
<g id="node9" class="node">
<title>8</title>
<g id="a_node9"><a xlink:href="to_catering manager.svg" xlink:title="catering manager">
<ellipse fill="none" stroke="black" cx="1252.7" cy="-105" rx="71.49" ry="18"/>
<text text-anchor="middle" x="1252.7" y="-101.3" font-family="Times New Roman,serif" font-size="14.00">catering manager</text>
</a>
</g>
</g>
<!-- 8&#45;&gt;1 -->
<g id="edge9" class="edge">
<title>8&#45;&gt;1</title>
<path fill="none" stroke="black" d="M1200.5,-92.57C1190.94,-90.61 1181.03,-88.67 1171.7,-87 1034.74,-62.52 874.48,-41.25 778.41,-29.28"/>
<polygon fill="black" stroke="black" points="778.81,-25.81 768.46,-28.05 777.95,-32.75 778.81,-25.81"/>
<text text-anchor="middle" x="1069.2" y="-57.8" font-family="Times New Roman,serif" font-size="14.00">0.019</text>
</g>
<!-- 9 -->
<g id="node10" class="node">
<title>9</title>
<g id="a_node10"><a xlink:href="to_facilities manager.svg" xlink:title="facilities manager">
<ellipse fill="none" stroke="black" cx="1414.7" cy="-105" rx="72.59" ry="18"/>
<text text-anchor="middle" x="1414.7" y="-101.3" font-family="Times New Roman,serif" font-size="14.00">facilities manager</text>
</a>
</g>
</g>
<!-- 9&#45;&gt;1 -->
<g id="edge10" class="edge">
<title>9&#45;&gt;1</title>
<path fill="none" stroke="black" d="M1361.87,-92.48C1352.19,-90.53 1342.15,-88.62 1332.7,-87 1140.67,-54.15 913.36,-34.51 787.88,-25.32"/>
<polygon fill="black" stroke="black" points="787.77,-21.8 777.55,-24.56 787.27,-28.78 787.77,-21.8"/>
<text text-anchor="middle" x="1226.2" y="-57.8" font-family="Times New Roman,serif" font-size="14.00">0.019</text>
</g>
</g>
</svg>
