<?xml version="1.0" encoding="UTF-8" standalone="no"?>
<!DOCTYPE svg PUBLIC "-//W3C//DTD SVG 1.1//EN"
 "http://www.w3.org/Graphics/SVG/1.1/DTD/svg11.dtd">
<!-- Generated by graphviz version 2.44.1 (20200629.0800)
 -->
<!-- Title: test Pages: 1 -->
<svg width="1802pt" height="131pt"
 viewBox="0.00 0.00 1801.63 131.00" xmlns="http://www.w3.org/2000/svg" xmlns:xlink="http://www.w3.org/1999/xlink">
<g id="graph0" class="graph" transform="scale(1 1) rotate(0) translate(4 127)">
<title>test</title>
<polygon fill="white" stroke="transparent" points="-4,4 -4,-127 1797.63,-127 1797.63,4 -4,4"/>
<!-- 0 -->
<g id="node1" class="node">
<title>0</title>
<g id="a_node1"><a xlink:href="to_pharmacovigilance officer.svg" xlink:title="pharmacovigilance officer">
<ellipse fill="none" stroke="black" cx="104.64" cy="-105" rx="104.78" ry="18"/>
<text text-anchor="middle" x="104.64" y="-101.3" font-family="Times New Roman,serif" font-size="14.00">pharmacovigilance officer</text>
</a>
</g>
</g>
<!-- 1 -->
<g id="node2" class="node">
<title>1</title>
<g id="a_node2"><a xlink:href="to_local government administrator.svg" xlink:title="local government administrator">
<ellipse fill="none" stroke="black" cx="946.64" cy="-18" rx="122.38" ry="18"/>
<text text-anchor="middle" x="946.64" y="-14.3" font-family="Times New Roman,serif" font-size="14.00">local government administrator</text>
</a>
</g>
</g>
<!-- 0&#45;&gt;1 -->
<g id="edge1" class="edge">
<title>0&#45;&gt;1</title>
<path fill="none" stroke="black" d="M179.7,-92.37C192.67,-90.49 206.04,-88.62 218.64,-87 433.34,-59.35 685.04,-38.36 829.18,-27.43"/>
<polygon fill="black" stroke="black" points="829.66,-30.91 839.37,-26.66 829.14,-23.93 829.66,-30.91"/>
<text text-anchor="middle" x="534.14" y="-57.8" font-family="Times New Roman,serif" font-size="14.00">0.088</text>
</g>
<!-- 2 -->
<g id="node3" class="node">
<title>2</title>
<g id="a_node3"><a xlink:href="to_outdoor pursuits manager.svg" xlink:title="outdoor pursuits manager">
<ellipse fill="none" stroke="black" cx="331.64" cy="-105" rx="103.98" ry="18"/>
<text text-anchor="middle" x="331.64" y="-101.3" font-family="Times New Roman,serif" font-size="14.00">outdoor pursuits manager</text>
</a>
</g>
</g>
<!-- 2&#45;&gt;1 -->
<g id="edge2" class="edge">
<title>2&#45;&gt;1</title>
<path fill="none" stroke="black" d="M404.24,-92.09C469.84,-81.49 569.09,-65.88 655.64,-54 717.46,-45.52 786.82,-37.13 842.31,-30.69"/>
<polygon fill="black" stroke="black" points="842.98,-34.14 852.51,-29.51 842.17,-27.19 842.98,-34.14"/>
<text text-anchor="middle" x="671.14" y="-57.8" font-family="Times New Roman,serif" font-size="14.00">0.066</text>
</g>
<!-- 3 -->
<g id="node4" class="node">
<title>3</title>
<g id="a_node4"><a xlink:href="to_careers adviser.svg" xlink:title="careers adviser">
<ellipse fill="none" stroke="black" cx="518.64" cy="-105" rx="64.99" ry="18"/>
<text text-anchor="middle" x="518.64" y="-101.3" font-family="Times New Roman,serif" font-size="14.00">careers adviser</text>
</a>
</g>
</g>
<!-- 3&#45;&gt;1 -->
<g id="edge3" class="edge">
<title>3&#45;&gt;1</title>
<path fill="none" stroke="black" d="M566.35,-92.77C575.09,-90.79 584.13,-88.79 592.64,-87 684.9,-67.55 791.18,-47.44 863.02,-34.18"/>
<polygon fill="black" stroke="black" points="863.72,-37.61 872.92,-32.36 862.45,-30.73 863.72,-37.61"/>
<text text-anchor="middle" x="773.14" y="-57.8" font-family="Times New Roman,serif" font-size="14.00">0.044</text>
</g>
<!-- 4 -->
<g id="node5" class="node">
<title>4</title>
<g id="a_node5"><a xlink:href="to_production manager.svg" xlink:title="production manager">
<ellipse fill="none" stroke="black" cx="684.64" cy="-105" rx="83.39" ry="18"/>
<text text-anchor="middle" x="684.64" y="-101.3" font-family="Times New Roman,serif" font-size="14.00">production manager</text>
</a>
</g>
</g>
<!-- 4&#45;&gt;1 -->
<g id="edge4" class="edge">
<title>4&#45;&gt;1</title>
<path fill="none" stroke="black" d="M728.79,-89.68C772.72,-75.42 840.37,-53.48 888.62,-37.82"/>
<polygon fill="black" stroke="black" points="889.87,-41.1 898.31,-34.68 887.71,-34.44 889.87,-41.1"/>
<text text-anchor="middle" x="847.14" y="-57.8" font-family="Times New Roman,serif" font-size="14.00">0.044</text>
</g>
<!-- 5 -->
<g id="node6" class="node">
<title>5</title>
<g id="a_node6"><a xlink:href="to_project manager.svg" xlink:title="project manager">
<ellipse fill="none" stroke="black" cx="854.64" cy="-105" rx="68.79" ry="18"/>
<text text-anchor="middle" x="854.64" y="-101.3" font-family="Times New Roman,serif" font-size="14.00">project manager</text>
</a>
</g>
</g>
<!-- 5&#45;&gt;1 -->
<g id="edge5" class="edge">
<title>5&#45;&gt;1</title>
<path fill="none" stroke="black" d="M872.82,-87.21C886.46,-74.6 905.34,-57.16 920.59,-43.07"/>
<polygon fill="black" stroke="black" points="923.22,-45.41 928.19,-36.05 918.47,-40.26 923.22,-45.41"/>
<text text-anchor="middle" x="922.14" y="-57.8" font-family="Times New Roman,serif" font-size="14.00">0.044</text>
</g>
<!-- 6 -->
<g id="node7" class="node">
<title>6</title>
<g id="a_node7"><a xlink:href="to_regulatory affairs officer.svg" xlink:title="regulatory affairs officer">
<ellipse fill="none" stroke="black" cx="1039.64" cy="-105" rx="98.28" ry="18"/>
<text text-anchor="middle" x="1039.64" y="-101.3" font-family="Times New Roman,serif" font-size="14.00">regulatory affairs officer</text>
</a>
</g>
</g>
<!-- 6&#45;&gt;1 -->
<g id="edge6" class="edge">
<title>6&#45;&gt;1</title>
<path fill="none" stroke="black" d="M1021.27,-87.21C1007.47,-74.6 988.39,-57.16 972.97,-43.07"/>
<polygon fill="black" stroke="black" points="975.04,-40.21 965.29,-36.05 970.31,-45.38 975.04,-40.21"/>
<text text-anchor="middle" x="1015.14" y="-57.8" font-family="Times New Roman,serif" font-size="14.00">0.044</text>
</g>
<!-- 7 -->
<g id="node8" class="node">
<title>7</title>
<g id="a_node8"><a xlink:href="to_sales executive.svg" xlink:title="sales executive">
<ellipse fill="none" stroke="black" cx="1219.64" cy="-105" rx="64.19" ry="18"/>
<text text-anchor="middle" x="1219.64" y="-101.3" font-family="Times New Roman,serif" font-size="14.00">sales executive</text>
</a>
</g>
</g>
<!-- 7&#45;&gt;1 -->
<g id="edge7" class="edge">
<title>7&#45;&gt;1</title>
<path fill="none" stroke="black" d="M1178.18,-91.09C1132.36,-76.82 1058.17,-53.72 1006.15,-37.53"/>
<polygon fill="black" stroke="black" points="1006.97,-34.12 996.38,-34.49 1004.89,-40.8 1006.97,-34.12"/>
<text text-anchor="middle" x="1115.14" y="-57.8" font-family="Times New Roman,serif" font-size="14.00">0.044</text>
</g>
<!-- 8 -->
<g id="node9" class="node">
<title>8</title>
<g id="a_node9"><a xlink:href="to_sales manager.svg" xlink:title="sales manager">
<ellipse fill="none" stroke="black" cx="1362.64" cy="-105" rx="61.19" ry="18"/>
<text text-anchor="middle" x="1362.64" y="-101.3" font-family="Times New Roman,serif" font-size="14.00">sales manager</text>
</a>
</g>
</g>
<!-- 8&#45;&gt;1 -->
<g id="edge8" class="edge">
<title>8&#45;&gt;1</title>
<path fill="none" stroke="black" d="M1317.5,-92.81C1309.24,-90.83 1300.69,-88.82 1292.64,-87 1203.71,-66.92 1101.15,-47.19 1030.92,-34.2"/>
<polygon fill="black" stroke="black" points="1031.27,-30.7 1020.8,-32.33 1030,-37.59 1031.27,-30.7"/>
<text text-anchor="middle" x="1223.14" y="-57.8" font-family="Times New Roman,serif" font-size="14.00">0.044</text>
</g>
<!-- 9 -->
<g id="node10" class="node">
<title>9</title>
<g id="a_node10"><a xlink:href="to_academic librarian.svg" xlink:title="academic librarian">
<ellipse fill="none" stroke="black" cx="1517.64" cy="-105" rx="76.09" ry="18"/>
<text text-anchor="middle" x="1517.64" y="-101.3" font-family="Times New Roman,serif" font-size="14.00">academic librarian</text>
</a>
</g>
</g>
<!-- 9&#45;&gt;1 -->
<g id="edge9" class="edge">
<title>9&#45;&gt;1</title>
<path fill="none" stroke="black" d="M1461.9,-92.64C1452.15,-90.72 1442.11,-88.77 1432.64,-87 1348.39,-71.26 1327.45,-66.37 1242.64,-54 1179.97,-44.86 1109.56,-36.46 1053.14,-30.18"/>
<polygon fill="black" stroke="black" points="1053.45,-26.69 1043.13,-29.07 1052.68,-33.65 1053.45,-26.69"/>
<text text-anchor="middle" x="1350.14" y="-57.8" font-family="Times New Roman,serif" font-size="14.00">0.022</text>
</g>
<!-- 10 -->
<g id="node11" class="node">
<title>10</title>
<g id="a_node11"><a xlink:href="to_advertising copywriter.svg" xlink:title="advertising copywriter">
<ellipse fill="none" stroke="black" cx="1702.64" cy="-105" rx="90.98" ry="18"/>
<text text-anchor="middle" x="1702.64" y="-101.3" font-family="Times New Roman,serif" font-size="14.00">advertising copywriter</text>
</a>
</g>
</g>
<!-- 10&#45;&gt;1 -->
<g id="edge10" class="edge">
<title>10&#45;&gt;1</title>
<path fill="none" stroke="black" d="M1636.79,-92.54C1625.41,-90.63 1613.69,-88.72 1602.64,-87 1499.3,-70.9 1473.58,-65.65 1369.64,-54 1267.25,-42.52 1150.53,-33.14 1065.67,-26.99"/>
<polygon fill="black" stroke="black" points="1065.71,-23.49 1055.48,-26.26 1065.2,-30.47 1065.71,-23.49"/>
<text text-anchor="middle" x="1501.14" y="-57.8" font-family="Times New Roman,serif" font-size="14.00">0.022</text>
</g>
</g>
</svg>
