<?xml version="1.0" encoding="UTF-8" standalone="no"?>
<!DOCTYPE svg PUBLIC "-//W3C//DTD SVG 1.1//EN"
 "http://www.w3.org/Graphics/SVG/1.1/DTD/svg11.dtd">
<!-- Generated by graphviz version 2.44.1 (20200629.0800)
 -->
<!-- Title: test Pages: 1 -->
<svg width="1224pt" height="131pt"
 viewBox="0.00 0.00 1224.44 131.00" xmlns="http://www.w3.org/2000/svg" xmlns:xlink="http://www.w3.org/1999/xlink">
<g id="graph0" class="graph" transform="scale(1 1) rotate(0) translate(4 127)">
<title>test</title>
<polygon fill="white" stroke="transparent" points="-4,4 -4,-127 1220.44,-127 1220.44,4 -4,4"/>
<!-- 0 -->
<g id="node1" class="node">
<title>0</title>
<g id="a_node1"><a xlink:href="to_academic librarian.svg" xlink:title="academic librarian">
<ellipse fill="none" stroke="black" cx="76.04" cy="-105" rx="76.09" ry="18"/>
<text text-anchor="middle" x="76.04" y="-101.3" font-family="Times New Roman,serif" font-size="14.00">academic librarian</text>
</a>
</g>
</g>
<!-- 1 -->
<g id="node2" class="node">
<title>1</title>
<g id="a_node2"><a xlink:href="to_librarian.svg" xlink:title="librarian">
<ellipse fill="none" stroke="black" cx="700.04" cy="-18" rx="39.79" ry="18"/>
<text text-anchor="middle" x="700.04" y="-14.3" font-family="Times New Roman,serif" font-size="14.00">librarian</text>
</a>
</g>
</g>
<!-- 0&#45;&gt;1 -->
<g id="edge1" class="edge">
<title>0&#45;&gt;1</title>
<path fill="none" stroke="black" d="M130.81,-92.45C140.84,-90.5 151.24,-88.6 161.04,-87 341.17,-57.66 556.93,-33.83 651.55,-23.93"/>
<polygon fill="black" stroke="black" points="652.09,-27.4 661.68,-22.88 651.37,-20.44 652.09,-27.4"/>
<text text-anchor="middle" x="392.04" y="-57.8" font-family="Times New Roman,serif" font-size="14.00">0.2</text>
</g>
<!-- 1&#45;&gt;1 -->
<g id="edge4" class="edge">
<title>1&#45;&gt;1</title>
<path fill="none" stroke="black" d="M735.79,-25.87C747.93,-25.92 757.69,-23.29 757.69,-18 757.69,-14.28 752.87,-11.88 745.78,-10.79"/>
<polygon fill="black" stroke="black" points="746,-7.3 735.79,-10.13 745.53,-14.29 746,-7.3"/>
<text text-anchor="middle" x="766.69" y="-14.3" font-family="Times New Roman,serif" font-size="14.00">0.1</text>
</g>
<!-- 2 -->
<g id="node3" class="node">
<title>2</title>
<g id="a_node3"><a xlink:href="to_armed forces officer.svg" xlink:title="armed forces officer">
<ellipse fill="none" stroke="black" cx="255.04" cy="-105" rx="85.29" ry="18"/>
<text text-anchor="middle" x="255.04" y="-101.3" font-family="Times New Roman,serif" font-size="14.00">armed forces officer</text>
</a>
</g>
</g>
<!-- 2&#45;&gt;1 -->
<g id="edge2" class="edge">
<title>2&#45;&gt;1</title>
<path fill="none" stroke="black" d="M315.99,-92.36C406.27,-75.11 573.54,-43.16 654.2,-27.76"/>
<polygon fill="black" stroke="black" points="654.9,-31.19 664.06,-25.87 653.58,-24.31 654.9,-31.19"/>
<text text-anchor="middle" x="514.04" y="-57.8" font-family="Times New Roman,serif" font-size="14.00">0.1</text>
</g>
<!-- 3 -->
<g id="node4" class="node">
<title>3</title>
<g id="a_node4"><a xlink:href="to_fitness centre manager.svg" xlink:title="fitness centre manager">
<ellipse fill="none" stroke="black" cx="449.04" cy="-105" rx="90.98" ry="18"/>
<text text-anchor="middle" x="449.04" y="-101.3" font-family="Times New Roman,serif" font-size="14.00">fitness centre manager</text>
</a>
</g>
</g>
<!-- 3&#45;&gt;1 -->
<g id="edge3" class="edge">
<title>3&#45;&gt;1</title>
<path fill="none" stroke="black" d="M492.76,-89.19C539.74,-73.29 613.79,-48.21 659.5,-32.73"/>
<polygon fill="black" stroke="black" points="660.74,-36.01 669.08,-29.48 658.49,-29.38 660.74,-36.01"/>
<text text-anchor="middle" x="599.04" y="-57.8" font-family="Times New Roman,serif" font-size="14.00">0.1</text>
</g>
<!-- 4 -->
<g id="node5" class="node">
<title>4</title>
<g id="a_node5"><a xlink:href="to_office manager.svg" xlink:title="office manager">
<ellipse fill="none" stroke="black" cx="622.04" cy="-105" rx="64.19" ry="18"/>
<text text-anchor="middle" x="622.04" y="-101.3" font-family="Times New Roman,serif" font-size="14.00">office manager</text>
</a>
</g>
</g>
<!-- 4&#45;&gt;1 -->
<g id="edge5" class="edge">
<title>4&#45;&gt;1</title>
<path fill="none" stroke="black" d="M637.45,-87.21C649.22,-74.39 665.56,-56.57 678.6,-42.36"/>
<polygon fill="black" stroke="black" points="681.27,-44.63 685.46,-34.9 676.12,-39.9 681.27,-44.63"/>
<text text-anchor="middle" x="675.04" y="-57.8" font-family="Times New Roman,serif" font-size="14.00">0.1</text>
</g>
<!-- 5 -->
<g id="node6" class="node">
<title>5</title>
<g id="a_node6"><a xlink:href="to_personal assistant.svg" xlink:title="personal assistant">
<ellipse fill="none" stroke="black" cx="779.04" cy="-105" rx="74.99" ry="18"/>
<text text-anchor="middle" x="779.04" y="-101.3" font-family="Times New Roman,serif" font-size="14.00">personal assistant</text>
</a>
</g>
</g>
<!-- 5&#45;&gt;1 -->
<g id="edge6" class="edge">
<title>5&#45;&gt;1</title>
<path fill="none" stroke="black" d="M763.44,-87.21C751.52,-74.39 734.96,-56.57 721.76,-42.36"/>
<polygon fill="black" stroke="black" points="724.19,-39.84 714.82,-34.9 719.06,-44.6 724.19,-39.84"/>
<text text-anchor="middle" x="754.04" y="-57.8" font-family="Times New Roman,serif" font-size="14.00">0.1</text>
</g>
<!-- 6 -->
<g id="node7" class="node">
<title>6</title>
<g id="a_node7"><a xlink:href="to_pr officer.svg" xlink:title="pr officer">
<ellipse fill="none" stroke="black" cx="917.04" cy="-105" rx="44.69" ry="18"/>
<text text-anchor="middle" x="917.04" y="-101.3" font-family="Times New Roman,serif" font-size="14.00">pr officer</text>
</a>
</g>
</g>
<!-- 6&#45;&gt;1 -->
<g id="edge7" class="edge">
<title>6&#45;&gt;1</title>
<path fill="none" stroke="black" d="M885.95,-91.82C847.03,-76.58 780.37,-50.47 738.34,-34"/>
<polygon fill="black" stroke="black" points="739.58,-30.73 729,-30.34 737.03,-37.25 739.58,-30.73"/>
<text text-anchor="middle" x="831.04" y="-57.8" font-family="Times New Roman,serif" font-size="14.00">0.1</text>
</g>
<!-- 7 -->
<g id="node8" class="node">
<title>7</title>
<g id="a_node8"><a xlink:href="to_research scientist.svg" xlink:title="research scientist">
<ellipse fill="none" stroke="black" cx="1053.04" cy="-105" rx="72.59" ry="18"/>
<text text-anchor="middle" x="1053.04" y="-101.3" font-family="Times New Roman,serif" font-size="14.00">research scientist</text>
</a>
</g>
</g>
<!-- 7&#45;&gt;1 -->
<g id="edge8" class="edge">
<title>7&#45;&gt;1</title>
<path fill="none" stroke="black" d="M1002.84,-91.91C933.64,-75.25 810.05,-45.49 744.19,-29.63"/>
<polygon fill="black" stroke="black" points="744.68,-26.15 734.14,-27.21 743.04,-32.95 744.68,-26.15"/>
<text text-anchor="middle" x="906.04" y="-57.8" font-family="Times New Roman,serif" font-size="14.00">0.1</text>
</g>
<!-- 8 -->
<g id="node9" class="node">
<title>8</title>
<g id="a_node9"><a xlink:href="to_teacher.svg" xlink:title="teacher">
<ellipse fill="none" stroke="black" cx="1180.04" cy="-105" rx="36.29" ry="18"/>
<text text-anchor="middle" x="1180.04" y="-101.3" font-family="Times New Roman,serif" font-size="14.00">teacher</text>
</a>
</g>
</g>
<!-- 8&#45;&gt;1 -->
<g id="edge9" class="edge">
<title>8&#45;&gt;1</title>
<path fill="none" stroke="black" d="M1153.21,-92.83C1147.3,-90.66 1141.02,-88.58 1135.04,-87 997.65,-50.72 830.41,-31.28 749.12,-23.34"/>
<polygon fill="black" stroke="black" points="748.99,-19.82 738.7,-22.34 748.32,-26.78 748.99,-19.82"/>
<text text-anchor="middle" x="1062.04" y="-57.8" font-family="Times New Roman,serif" font-size="14.00">0.1</text>
</g>
</g>
</svg>
