<?xml version="1.0" encoding="UTF-8" standalone="no"?>
<!DOCTYPE svg PUBLIC "-//W3C//DTD SVG 1.1//EN"
 "http://www.w3.org/Graphics/SVG/1.1/DTD/svg11.dtd">
<!-- Generated by graphviz version 2.44.1 (20200629.0800)
 -->
<!-- Title: test Pages: 1 -->
<svg width="1540pt" height="131pt"
 viewBox="0.00 0.00 1540.39 131.00" xmlns="http://www.w3.org/2000/svg" xmlns:xlink="http://www.w3.org/1999/xlink">
<g id="graph0" class="graph" transform="scale(1 1) rotate(0) translate(4 127)">
<title>test</title>
<polygon fill="white" stroke="transparent" points="-4,4 -4,-127 1536.39,-127 1536.39,4 -4,4"/>
<!-- 0 -->
<g id="node1" class="node">
<title>0</title>
<g id="a_node1"><a xlink:href="to_lecturer.svg" xlink:title="lecturer">
<ellipse fill="none" stroke="black" cx="873.79" cy="-18" rx="37.89" ry="18"/>
<text text-anchor="middle" x="873.79" y="-14.3" font-family="Times New Roman,serif" font-size="14.00">lecturer</text>
</a>
</g>
</g>
<!-- 0&#45;&gt;0 -->
<g id="edge1" class="edge">
<title>0&#45;&gt;0</title>
<path fill="none" stroke="black" d="M907.78,-25.87C919.77,-26 929.49,-23.37 929.49,-18 929.49,-14.31 924.89,-11.91 918.13,-10.82"/>
<polygon fill="black" stroke="black" points="917.99,-7.3 907.78,-10.13 917.53,-14.28 917.99,-7.3"/>
<text text-anchor="middle" x="944.99" y="-14.3" font-family="Times New Roman,serif" font-size="14.00">0.235</text>
</g>
<!-- 1 -->
<g id="node2" class="node">
<title>1</title>
<g id="a_node2"><a xlink:href="to_research scientist.svg" xlink:title="research scientist">
<ellipse fill="none" stroke="black" cx="72.79" cy="-105" rx="72.59" ry="18"/>
<text text-anchor="middle" x="72.79" y="-101.3" font-family="Times New Roman,serif" font-size="14.00">research scientist</text>
</a>
</g>
</g>
<!-- 1&#45;&gt;0 -->
<g id="edge2" class="edge">
<title>1&#45;&gt;0</title>
<path fill="none" stroke="black" d="M124.5,-92.31C134.2,-90.36 144.28,-88.49 153.79,-87 405.51,-47.67 710.55,-27.97 826.23,-21.49"/>
<polygon fill="black" stroke="black" points="826.71,-24.96 836.5,-20.92 826.32,-17.98 826.71,-24.96"/>
<text text-anchor="middle" x="426.29" y="-57.8" font-family="Times New Roman,serif" font-size="14.00">0.080</text>
</g>
<!-- 2 -->
<g id="node3" class="node">
<title>2</title>
<g id="a_node3"><a xlink:href="to_pharmacovigilance officer.svg" xlink:title="pharmacovigilance officer">
<ellipse fill="none" stroke="black" cx="267.79" cy="-105" rx="104.78" ry="18"/>
<text text-anchor="middle" x="267.79" y="-101.3" font-family="Times New Roman,serif" font-size="14.00">pharmacovigilance officer</text>
</a>
</g>
</g>
<!-- 2&#45;&gt;0 -->
<g id="edge3" class="edge">
<title>2&#45;&gt;0</title>
<path fill="none" stroke="black" d="M343.83,-92.62C356.5,-90.73 369.52,-88.8 381.79,-87 483.1,-72.12 508.37,-68.06 609.79,-54 686.22,-43.4 775.18,-31.75 827.87,-24.92"/>
<polygon fill="black" stroke="black" points="828.44,-28.38 837.91,-23.62 827.54,-21.43 828.44,-28.38"/>
<text text-anchor="middle" x="625.29" y="-57.8" font-family="Times New Roman,serif" font-size="14.00">0.037</text>
</g>
<!-- 3 -->
<g id="node4" class="node">
<title>3</title>
<g id="a_node4"><a xlink:href="to_teaching assistant.svg" xlink:title="teaching assistant">
<ellipse fill="none" stroke="black" cx="463.79" cy="-105" rx="73.39" ry="18"/>
<text text-anchor="middle" x="463.79" y="-101.3" font-family="Times New Roman,serif" font-size="14.00">teaching assistant</text>
</a>
</g>
</g>
<!-- 3&#45;&gt;0 -->
<g id="edge4" class="edge">
<title>3&#45;&gt;0</title>
<path fill="none" stroke="black" d="M517.82,-92.8C599.85,-75.79 754.26,-43.78 829.85,-28.11"/>
<polygon fill="black" stroke="black" points="830.9,-31.47 839.98,-26.01 829.48,-24.61 830.9,-31.47"/>
<text text-anchor="middle" x="709.29" y="-57.8" font-family="Times New Roman,serif" font-size="14.00">0.027</text>
</g>
<!-- 4 -->
<g id="node5" class="node">
<title>4</title>
<g id="a_node5"><a xlink:href="to_government research officer.svg" xlink:title="government research officer">
<ellipse fill="none" stroke="black" cx="667.79" cy="-105" rx="112.38" ry="18"/>
<text text-anchor="middle" x="667.79" y="-101.3" font-family="Times New Roman,serif" font-size="14.00">government research officer</text>
</a>
</g>
</g>
<!-- 4&#45;&gt;0 -->
<g id="edge5" class="edge">
<title>4&#45;&gt;0</title>
<path fill="none" stroke="black" d="M706.54,-88.01C743.88,-72.61 799.98,-49.46 836.74,-34.29"/>
<polygon fill="black" stroke="black" points="838.19,-37.48 846.1,-30.43 835.52,-31.01 838.19,-37.48"/>
<text text-anchor="middle" x="799.29" y="-57.8" font-family="Times New Roman,serif" font-size="14.00">0.023</text>
</g>
<!-- 5 -->
<g id="node6" class="node">
<title>5</title>
<g id="a_node6"><a xlink:href="to_academic librarian.svg" xlink:title="academic librarian">
<ellipse fill="none" stroke="black" cx="873.79" cy="-105" rx="76.09" ry="18"/>
<text text-anchor="middle" x="873.79" y="-101.3" font-family="Times New Roman,serif" font-size="14.00">academic librarian</text>
</a>
</g>
</g>
<!-- 5&#45;&gt;0 -->
<g id="edge6" class="edge">
<title>5&#45;&gt;0</title>
<path fill="none" stroke="black" d="M873.79,-86.8C873.79,-75.16 873.79,-59.55 873.79,-46.24"/>
<polygon fill="black" stroke="black" points="877.29,-46.18 873.79,-36.18 870.29,-46.18 877.29,-46.18"/>
<text text-anchor="middle" x="889.29" y="-57.8" font-family="Times New Roman,serif" font-size="14.00">0.020</text>
</g>
<!-- 6 -->
<g id="node7" class="node">
<title>6</title>
<g id="a_node7"><a xlink:href="to_education administrator.svg" xlink:title="education administrator">
<ellipse fill="none" stroke="black" cx="1063.79" cy="-105" rx="95.58" ry="18"/>
<text text-anchor="middle" x="1063.79" y="-101.3" font-family="Times New Roman,serif" font-size="14.00">education administrator</text>
</a>
</g>
</g>
<!-- 6&#45;&gt;0 -->
<g id="edge7" class="edge">
<title>6&#45;&gt;0</title>
<path fill="none" stroke="black" d="M1028.5,-88.21C994.56,-73.03 943.52,-50.19 909.46,-34.95"/>
<polygon fill="black" stroke="black" points="910.88,-31.76 900.33,-30.87 908.03,-38.15 910.88,-31.76"/>
<text text-anchor="middle" x="996.29" y="-57.8" font-family="Times New Roman,serif" font-size="14.00">0.018</text>
</g>
<!-- 7 -->
<g id="node8" class="node">
<title>7</title>
<g id="a_node8"><a xlink:href="to_project manager.svg" xlink:title="project manager">
<ellipse fill="none" stroke="black" cx="1245.79" cy="-105" rx="68.79" ry="18"/>
<text text-anchor="middle" x="1245.79" y="-101.3" font-family="Times New Roman,serif" font-size="14.00">project manager</text>
</a>
</g>
</g>
<!-- 7&#45;&gt;0 -->
<g id="edge8" class="edge">
<title>7&#45;&gt;0</title>
<path fill="none" stroke="black" d="M1195.62,-92.54C1122.15,-75.75 986.5,-44.75 917.12,-28.9"/>
<polygon fill="black" stroke="black" points="917.51,-25.4 906.98,-26.58 915.95,-32.22 917.51,-25.4"/>
<text text-anchor="middle" x="1097.29" y="-57.8" font-family="Times New Roman,serif" font-size="14.00">0.018</text>
</g>
<!-- 8 -->
<g id="node9" class="node">
<title>8</title>
<g id="a_node9"><a xlink:href="to_teacher.svg" xlink:title="teacher">
<ellipse fill="none" stroke="black" cx="1368.79" cy="-105" rx="36.29" ry="18"/>
<text text-anchor="middle" x="1368.79" y="-101.3" font-family="Times New Roman,serif" font-size="14.00">teacher</text>
</a>
</g>
</g>
<!-- 8&#45;&gt;0 -->
<g id="edge9" class="edge">
<title>8&#45;&gt;0</title>
<path fill="none" stroke="black" d="M1341.48,-92.67C1335.71,-90.56 1329.6,-88.54 1323.79,-87 1179.71,-48.73 1003.57,-29.93 920.89,-22.69"/>
<polygon fill="black" stroke="black" points="921.07,-19.2 910.81,-21.83 920.47,-26.17 921.07,-19.2"/>
<text text-anchor="middle" x="1254.29" y="-57.8" font-family="Times New Roman,serif" font-size="14.00">0.018</text>
</g>
<!-- 9 -->
<g id="node10" class="node">
<title>9</title>
<g id="a_node10"><a xlink:href="to_it consultant.svg" xlink:title="it consultant">
<ellipse fill="none" stroke="black" cx="1477.79" cy="-105" rx="54.69" ry="18"/>
<text text-anchor="middle" x="1477.79" y="-101.3" font-family="Times New Roman,serif" font-size="14.00">it consultant</text>
</a>
</g>
</g>
<!-- 9&#45;&gt;0 -->
<g id="edge10" class="edge">
<title>9&#45;&gt;0</title>
<path fill="none" stroke="black" d="M1438.69,-92.41C1397.91,-80.8 1331.94,-63.35 1273.79,-54 1147.42,-33.69 996.55,-24.51 921.34,-20.94"/>
<polygon fill="black" stroke="black" points="921.39,-17.44 911.24,-20.47 921.07,-24.43 921.39,-17.44"/>
<text text-anchor="middle" x="1362.29" y="-57.8" font-family="Times New Roman,serif" font-size="14.00">0.015</text>
</g>
</g>
</svg>
