<?xml version="1.0" encoding="UTF-8" standalone="no"?>
<!DOCTYPE svg PUBLIC "-//W3C//DTD SVG 1.1//EN"
 "http://www.w3.org/Graphics/SVG/1.1/DTD/svg11.dtd">
<!-- Generated by graphviz version 2.44.1 (20200629.0800)
 -->
<!-- Title: test Pages: 1 -->
<svg width="690pt" height="131pt"
 viewBox="0.00 0.00 690.48 131.00" xmlns="http://www.w3.org/2000/svg" xmlns:xlink="http://www.w3.org/1999/xlink">
<g id="graph0" class="graph" transform="scale(1 1) rotate(0) translate(4 127)">
<title>test</title>
<polygon fill="white" stroke="transparent" points="-4,4 -4,-127 686.48,-127 686.48,4 -4,4"/>
<!-- 0 -->
<g id="node1" class="node">
<title>0</title>
<g id="a_node1"><a xlink:href="to_production manager.svg" xlink:title="production manager">
<ellipse fill="none" stroke="black" cx="83.19" cy="-105" rx="83.39" ry="18"/>
<text text-anchor="middle" x="83.19" y="-101.3" font-family="Times New Roman,serif" font-size="14.00">production manager</text>
</a>
</g>
</g>
<!-- 1 -->
<g id="node2" class="node">
<title>1</title>
<g id="a_node2"><a xlink:href="to_meteorologist.svg" xlink:title="meteorologist">
<ellipse fill="none" stroke="black" cx="319.19" cy="-18" rx="59.59" ry="18"/>
<text text-anchor="middle" x="319.19" y="-14.3" font-family="Times New Roman,serif" font-size="14.00">meteorologist</text>
</a>
</g>
</g>
<!-- 0&#45;&gt;1 -->
<g id="edge1" class="edge">
<title>0&#45;&gt;1</title>
<path fill="none" stroke="black" d="M124.03,-89.29C165.49,-74.36 229.57,-51.28 272.89,-35.68"/>
<polygon fill="black" stroke="black" points="274.12,-38.95 282.34,-32.27 271.75,-32.37 274.12,-38.95"/>
<text text-anchor="middle" x="231.69" y="-57.8" font-family="Times New Roman,serif" font-size="14.00">0.333</text>
</g>
<!-- 2 -->
<g id="node3" class="node">
<title>2</title>
<g id="a_node3"><a xlink:href="to_public affairs consultant (lobbyist).svg" xlink:title="public affairs consultant (lobbyist)">
<ellipse fill="none" stroke="black" cx="319.19" cy="-105" rx="135.38" ry="18"/>
<text text-anchor="middle" x="319.19" y="-101.3" font-family="Times New Roman,serif" font-size="14.00">public affairs consultant (lobbyist)</text>
</a>
</g>
</g>
<!-- 2&#45;&gt;1 -->
<g id="edge2" class="edge">
<title>2&#45;&gt;1</title>
<path fill="none" stroke="black" d="M319.19,-86.8C319.19,-75.16 319.19,-59.55 319.19,-46.24"/>
<polygon fill="black" stroke="black" points="322.69,-46.18 319.19,-36.18 315.69,-46.18 322.69,-46.18"/>
<text text-anchor="middle" x="334.69" y="-57.8" font-family="Times New Roman,serif" font-size="14.00">0.333</text>
</g>
<!-- 3 -->
<g id="node4" class="node">
<title>3</title>
<g id="a_node4"><a xlink:href="to_quality assurance manager.svg" xlink:title="quality assurance manager">
<ellipse fill="none" stroke="black" cx="577.19" cy="-105" rx="105.08" ry="18"/>
<text text-anchor="middle" x="577.19" y="-101.3" font-family="Times New Roman,serif" font-size="14.00">quality assurance manager</text>
</a>
</g>
</g>
<!-- 3&#45;&gt;1 -->
<g id="edge3" class="edge">
<title>3&#45;&gt;1</title>
<path fill="none" stroke="black" d="M531.07,-88.8C485.06,-73.65 414.66,-50.45 367.8,-35.01"/>
<polygon fill="black" stroke="black" points="368.77,-31.65 358.18,-31.84 366.58,-38.3 368.77,-31.65"/>
<text text-anchor="middle" x="479.69" y="-57.8" font-family="Times New Roman,serif" font-size="14.00">0.333</text>
</g>
</g>
</svg>
