<?xml version="1.0" encoding="UTF-8" standalone="no"?>
<!DOCTYPE svg PUBLIC "-//W3C//DTD SVG 1.1//EN"
 "http://www.w3.org/Graphics/SVG/1.1/DTD/svg11.dtd">
<!-- Generated by graphviz version 2.44.1 (20200629.0800)
 -->
<!-- Title: test Pages: 1 -->
<svg width="1406pt" height="131pt"
 viewBox="0.00 0.00 1406.39 131.00" xmlns="http://www.w3.org/2000/svg" xmlns:xlink="http://www.w3.org/1999/xlink">
<g id="graph0" class="graph" transform="scale(1 1) rotate(0) translate(4 127)">
<title>test</title>
<polygon fill="white" stroke="transparent" points="-4,4 -4,-127 1402.39,-127 1402.39,4 -4,4"/>
<!-- 0 -->
<g id="node1" class="node">
<title>0</title>
<g id="a_node1"><a xlink:href="to_media planner.svg" xlink:title="media planner">
<ellipse fill="none" stroke="black" cx="725.89" cy="-18" rx="61.19" ry="18"/>
<text text-anchor="middle" x="725.89" y="-14.3" font-family="Times New Roman,serif" font-size="14.00">media planner</text>
</a>
</g>
</g>
<!-- 0&#45;&gt;0 -->
<g id="edge1" class="edge">
<title>0&#45;&gt;0</title>
<path fill="none" stroke="black" d="M781.33,-25.75C794.89,-25.18 804.99,-22.59 804.99,-18 804.99,-14.66 799.66,-12.39 791.54,-11.17"/>
<polygon fill="black" stroke="black" points="791.61,-7.66 781.33,-10.25 790.98,-14.63 791.61,-7.66"/>
<text text-anchor="middle" x="820.49" y="-14.3" font-family="Times New Roman,serif" font-size="14.00">0.125</text>
</g>
<!-- 1 -->
<g id="node2" class="node">
<title>1</title>
<g id="a_node2"><a xlink:href="to_marketing executive.svg" xlink:title="marketing executive">
<ellipse fill="none" stroke="black" cx="81.89" cy="-105" rx="81.79" ry="18"/>
<text text-anchor="middle" x="81.89" y="-101.3" font-family="Times New Roman,serif" font-size="14.00">marketing executive</text>
</a>
</g>
</g>
<!-- 1&#45;&gt;0 -->
<g id="edge2" class="edge">
<title>1&#45;&gt;0</title>
<path fill="none" stroke="black" d="M141.05,-92.54C151.64,-90.61 162.58,-88.68 172.89,-87 347.28,-58.53 554.36,-36.07 658.69,-25.54"/>
<polygon fill="black" stroke="black" points="659.16,-29.01 668.76,-24.52 658.46,-22.04 659.16,-29.01"/>
<text text-anchor="middle" x="416.39" y="-57.8" font-family="Times New Roman,serif" font-size="14.00">0.055</text>
</g>
<!-- 2 -->
<g id="node3" class="node">
<title>2</title>
<g id="a_node3"><a xlink:href="to_marketing assistant.svg" xlink:title="marketing assistant">
<ellipse fill="none" stroke="black" cx="260.89" cy="-105" rx="79.09" ry="18"/>
<text text-anchor="middle" x="260.89" y="-101.3" font-family="Times New Roman,serif" font-size="14.00">marketing assistant</text>
</a>
</g>
</g>
<!-- 2&#45;&gt;0 -->
<g id="edge3" class="edge">
<title>2&#45;&gt;0</title>
<path fill="none" stroke="black" d="M319.12,-92.75C329.05,-90.83 339.27,-88.86 348.89,-87 424.89,-72.33 443.73,-67.82 519.89,-54 568.1,-45.25 622.78,-36 663.68,-29.2"/>
<polygon fill="black" stroke="black" points="664.48,-32.61 673.77,-27.53 663.33,-25.71 664.48,-32.61"/>
<text text-anchor="middle" x="535.39" y="-57.8" font-family="Times New Roman,serif" font-size="14.00">0.048</text>
</g>
<!-- 3 -->
<g id="node4" class="node">
<title>3</title>
<g id="a_node4"><a xlink:href="to_sales manager.svg" xlink:title="sales manager">
<ellipse fill="none" stroke="black" cx="418.89" cy="-105" rx="61.19" ry="18"/>
<text text-anchor="middle" x="418.89" y="-101.3" font-family="Times New Roman,serif" font-size="14.00">sales manager</text>
</a>
</g>
</g>
<!-- 3&#45;&gt;0 -->
<g id="edge4" class="edge">
<title>3&#45;&gt;0</title>
<path fill="none" stroke="black" d="M461.9,-92.09C517.13,-76.8 612.93,-50.28 672.69,-33.73"/>
<polygon fill="black" stroke="black" points="673.98,-37.01 682.68,-30.96 672.11,-30.26 673.98,-37.01"/>
<text text-anchor="middle" x="606.39" y="-57.8" font-family="Times New Roman,serif" font-size="14.00">0.048</text>
</g>
<!-- 4 -->
<g id="node5" class="node">
<title>4</title>
<g id="a_node5"><a xlink:href="to_production manager.svg" xlink:title="production manager">
<ellipse fill="none" stroke="black" cx="580.89" cy="-105" rx="83.39" ry="18"/>
<text text-anchor="middle" x="580.89" y="-101.3" font-family="Times New Roman,serif" font-size="14.00">production manager</text>
</a>
</g>
</g>
<!-- 4&#45;&gt;0 -->
<g id="edge5" class="edge">
<title>4&#45;&gt;0</title>
<path fill="none" stroke="black" d="M608.51,-87.81C631.78,-74.17 665.22,-54.56 690.47,-39.77"/>
<polygon fill="black" stroke="black" points="692.5,-42.63 699.36,-34.55 688.96,-36.59 692.5,-42.63"/>
<text text-anchor="middle" x="678.39" y="-57.8" font-family="Times New Roman,serif" font-size="14.00">0.041</text>
</g>
<!-- 5 -->
<g id="node6" class="node">
<title>5</title>
<g id="a_node6"><a xlink:href="to_journalist.svg" xlink:title="journalist">
<ellipse fill="none" stroke="black" cx="725.89" cy="-105" rx="43.59" ry="18"/>
<text text-anchor="middle" x="725.89" y="-101.3" font-family="Times New Roman,serif" font-size="14.00">journalist</text>
</a>
</g>
</g>
<!-- 5&#45;&gt;0 -->
<g id="edge6" class="edge">
<title>5&#45;&gt;0</title>
<path fill="none" stroke="black" d="M725.89,-86.8C725.89,-75.16 725.89,-59.55 725.89,-46.24"/>
<polygon fill="black" stroke="black" points="729.39,-46.18 725.89,-36.18 722.39,-46.18 729.39,-46.18"/>
<text text-anchor="middle" x="741.39" y="-57.8" font-family="Times New Roman,serif" font-size="14.00">0.034</text>
</g>
<!-- 6 -->
<g id="node7" class="node">
<title>6</title>
<g id="a_node7"><a xlink:href="to_content manager.svg" xlink:title="content manager">
<ellipse fill="none" stroke="black" cx="857.89" cy="-105" rx="70.39" ry="18"/>
<text text-anchor="middle" x="857.89" y="-101.3" font-family="Times New Roman,serif" font-size="14.00">content manager</text>
</a>
</g>
</g>
<!-- 6&#45;&gt;0 -->
<g id="edge7" class="edge">
<title>6&#45;&gt;0</title>
<path fill="none" stroke="black" d="M833.06,-88.01C812.01,-74.45 781.64,-54.9 758.6,-40.06"/>
<polygon fill="black" stroke="black" points="760.47,-37.1 750.16,-34.63 756.68,-42.99 760.47,-37.1"/>
<text text-anchor="middle" x="815.39" y="-57.8" font-family="Times New Roman,serif" font-size="14.00">0.027</text>
</g>
<!-- 7 -->
<g id="node8" class="node">
<title>7</title>
<g id="a_node8"><a xlink:href="to_financial manager.svg" xlink:title="financial manager">
<ellipse fill="none" stroke="black" cx="1019.89" cy="-105" rx="73.39" ry="18"/>
<text text-anchor="middle" x="1019.89" y="-101.3" font-family="Times New Roman,serif" font-size="14.00">financial manager</text>
</a>
</g>
</g>
<!-- 7&#45;&gt;0 -->
<g id="edge8" class="edge">
<title>7&#45;&gt;0</title>
<path fill="none" stroke="black" d="M974.28,-90.81C921.02,-75.42 833.16,-50.01 777.47,-33.91"/>
<polygon fill="black" stroke="black" points="778.38,-30.53 767.8,-31.12 776.44,-37.26 778.38,-30.53"/>
<text text-anchor="middle" x="906.39" y="-57.8" font-family="Times New Roman,serif" font-size="14.00">0.027</text>
</g>
<!-- 8 -->
<g id="node9" class="node">
<title>8</title>
<g id="a_node9"><a xlink:href="to_legal executive.svg" xlink:title="legal executive">
<ellipse fill="none" stroke="black" cx="1173.89" cy="-105" rx="63.09" ry="18"/>
<text text-anchor="middle" x="1173.89" y="-101.3" font-family="Times New Roman,serif" font-size="14.00">legal executive</text>
</a>
</g>
</g>
<!-- 8&#45;&gt;0 -->
<g id="edge9" class="edge">
<title>8&#45;&gt;0</title>
<path fill="none" stroke="black" d="M1127.49,-92.71C1118.99,-90.74 1110.19,-88.76 1101.89,-87 992.03,-63.74 863.04,-41.51 788.27,-29.12"/>
<polygon fill="black" stroke="black" points="788.52,-25.61 778.09,-27.43 787.38,-32.52 788.52,-25.61"/>
<text text-anchor="middle" x="1024.39" y="-57.8" font-family="Times New Roman,serif" font-size="14.00">0.027</text>
</g>
<!-- 9 -->
<g id="node10" class="node">
<title>9</title>
<g id="a_node10"><a xlink:href="to_heritage manager.svg" xlink:title="heritage manager">
<ellipse fill="none" stroke="black" cx="1326.89" cy="-105" rx="71.49" ry="18"/>
<text text-anchor="middle" x="1326.89" y="-101.3" font-family="Times New Roman,serif" font-size="14.00">heritage manager</text>
</a>
</g>
</g>
<!-- 9&#45;&gt;0 -->
<g id="edge10" class="edge">
<title>9&#45;&gt;0</title>
<path fill="none" stroke="black" d="M1274.67,-92.68C1265.11,-90.71 1255.22,-88.74 1245.89,-87 1156.47,-70.32 1134.02,-66.31 1043.89,-54 957.57,-42.21 857.65,-31.73 793.19,-25.38"/>
<polygon fill="black" stroke="black" points="793.46,-21.88 783.16,-24.39 792.77,-28.85 793.46,-21.88"/>
<text text-anchor="middle" x="1160.39" y="-57.8" font-family="Times New Roman,serif" font-size="14.00">0.020</text>
</g>
</g>
</svg>
