<?xml version="1.0" encoding="UTF-8" standalone="no"?>
<!DOCTYPE svg PUBLIC "-//W3C//DTD SVG 1.1//EN"
 "http://www.w3.org/Graphics/SVG/1.1/DTD/svg11.dtd">
<!-- Generated by graphviz version 2.44.1 (20200629.0800)
 -->
<!-- Title: marketing_executive Pages: 1 -->
<svg width="1451pt" height="131pt"
 viewBox="0.00 0.00 1450.79 131.00" xmlns="http://www.w3.org/2000/svg" xmlns:xlink="http://www.w3.org/1999/xlink">
<g id="graph0" class="graph" transform="scale(1 1) rotate(0) translate(4 127)">
<title>marketing_executive</title>
<polygon fill="white" stroke="transparent" points="-4,4 -4,-127 1446.79,-127 1446.79,4 -4,4"/>
<!-- 0 -->
<g id="node1" class="node">
<title>0</title>
<g id="a_node1"><a xlink:href="to_marketing executive.svg" xlink:title="marketing executive">
<ellipse fill="none" stroke="black" cx="694.29" cy="-18" rx="81.79" ry="18"/>
<text text-anchor="middle" x="694.29" y="-14.3" font-family="Times New Roman,serif" font-size="14.00">marketing executive</text>
</a>
</g>
</g>
<!-- 0&#45;&gt;0 -->
<g id="edge1" class="edge">
<title>0&#45;&gt;0</title>
<path fill="none" stroke="black" d="M768.79,-25.55C783.61,-24.7 794.19,-22.18 794.19,-18 794.19,-14.86 788.24,-12.66 779.01,-11.4"/>
<polygon fill="black" stroke="black" points="779.07,-7.89 768.79,-10.45 778.42,-14.86 779.07,-7.89"/>
<text text-anchor="middle" x="809.69" y="-14.3" font-family="Times New Roman,serif" font-size="14.00">0.275</text>
</g>
<!-- 1 -->
<g id="node2" class="node">
<title>1</title>
<g id="a_node2"><a xlink:href="to_marketing assistant.svg" xlink:title="marketing assistant">
<ellipse fill="none" stroke="black" cx="79.29" cy="-105" rx="79.09" ry="18"/>
<text text-anchor="middle" x="79.29" y="-101.3" font-family="Times New Roman,serif" font-size="14.00">marketing assistant</text>
</a>
</g>
</g>
<!-- 1&#45;&gt;0 -->
<g id="edge2" class="edge">
<title>1&#45;&gt;0</title>
<path fill="none" stroke="black" d="M137.49,-92.6C147.43,-90.7 157.65,-88.77 167.29,-87 251.6,-71.54 272.4,-65.77 357.29,-54 442.64,-42.17 540.65,-32.42 608.89,-26.24"/>
<polygon fill="black" stroke="black" points="609.51,-29.7 619.16,-25.32 608.89,-22.73 609.51,-29.7"/>
<text text-anchor="middle" x="372.79" y="-57.8" font-family="Times New Roman,serif" font-size="14.00">0.149</text>
</g>
<!-- 2 -->
<g id="node3" class="node">
<title>2</title>
<g id="a_node3"><a xlink:href="to_sales manager.svg" xlink:title="sales manager">
<ellipse fill="none" stroke="black" cx="237.29" cy="-105" rx="61.19" ry="18"/>
<text text-anchor="middle" x="237.29" y="-101.3" font-family="Times New Roman,serif" font-size="14.00">sales manager</text>
</a>
</g>
</g>
<!-- 2&#45;&gt;0 -->
<g id="edge3" class="edge">
<title>2&#45;&gt;0</title>
<path fill="none" stroke="black" d="M282.42,-92.76C290.68,-90.78 299.24,-88.79 307.29,-87 379.88,-70.89 398.11,-67.1 471.29,-54 519.86,-45.31 574.6,-36.7 617.69,-30.19"/>
<polygon fill="black" stroke="black" points="618.45,-33.62 627.82,-28.67 617.41,-26.7 618.45,-33.62"/>
<text text-anchor="middle" x="486.79" y="-57.8" font-family="Times New Roman,serif" font-size="14.00">0.068</text>
</g>
<!-- 3 -->
<g id="node4" class="node">
<title>3</title>
<g id="a_node4"><a xlink:href="to_brand manager.svg" xlink:title="brand manager">
<ellipse fill="none" stroke="black" cx="380.29" cy="-105" rx="64.19" ry="18"/>
<text text-anchor="middle" x="380.29" y="-101.3" font-family="Times New Roman,serif" font-size="14.00">brand manager</text>
</a>
</g>
</g>
<!-- 3&#45;&gt;0 -->
<g id="edge4" class="edge">
<title>3&#45;&gt;0</title>
<path fill="none" stroke="black" d="M423.89,-91.69C460.31,-81.45 513.63,-66.57 560.29,-54 584.16,-47.57 610.46,-40.66 633.4,-34.69"/>
<polygon fill="black" stroke="black" points="634.54,-38.01 643.34,-32.11 632.78,-31.24 634.54,-38.01"/>
<text text-anchor="middle" x="575.79" y="-57.8" font-family="Times New Roman,serif" font-size="14.00">0.030</text>
</g>
<!-- 4 -->
<g id="node5" class="node">
<title>4</title>
<g id="a_node5"><a xlink:href="to_it consultant.svg" xlink:title="it consultant">
<ellipse fill="none" stroke="black" cx="517.29" cy="-105" rx="54.69" ry="18"/>
<text text-anchor="middle" x="517.29" y="-101.3" font-family="Times New Roman,serif" font-size="14.00">it consultant</text>
</a>
</g>
</g>
<!-- 4&#45;&gt;0 -->
<g id="edge5" class="edge">
<title>4&#45;&gt;0</title>
<path fill="none" stroke="black" d="M546.92,-89.77C575.85,-75.88 620.14,-54.61 652.62,-39.01"/>
<polygon fill="black" stroke="black" points="654.37,-42.06 661.87,-34.57 651.34,-35.75 654.37,-42.06"/>
<text text-anchor="middle" x="632.79" y="-57.8" font-family="Times New Roman,serif" font-size="14.00">0.026</text>
</g>
<!-- 5 -->
<g id="node6" class="node">
<title>5</title>
<g id="a_node6"><a xlink:href="to_pharmacovigilance officer.svg" xlink:title="pharmacovigilance officer">
<ellipse fill="none" stroke="black" cx="694.29" cy="-105" rx="104.78" ry="18"/>
<text text-anchor="middle" x="694.29" y="-101.3" font-family="Times New Roman,serif" font-size="14.00">pharmacovigilance officer</text>
</a>
</g>
</g>
<!-- 5&#45;&gt;0 -->
<g id="edge6" class="edge">
<title>5&#45;&gt;0</title>
<path fill="none" stroke="black" d="M694.29,-86.8C694.29,-75.16 694.29,-59.55 694.29,-46.24"/>
<polygon fill="black" stroke="black" points="697.79,-46.18 694.29,-36.18 690.79,-46.18 697.79,-46.18"/>
<text text-anchor="middle" x="709.79" y="-57.8" font-family="Times New Roman,serif" font-size="14.00">0.026</text>
</g>
<!-- 6 -->
<g id="node7" class="node">
<title>6</title>
<g id="a_node7"><a xlink:href="to_production manager.svg" xlink:title="production manager">
<ellipse fill="none" stroke="black" cx="900.29" cy="-105" rx="83.39" ry="18"/>
<text text-anchor="middle" x="900.29" y="-101.3" font-family="Times New Roman,serif" font-size="14.00">production manager</text>
</a>
</g>
</g>
<!-- 6&#45;&gt;0 -->
<g id="edge7" class="edge">
<title>6&#45;&gt;0</title>
<path fill="none" stroke="black" d="M863.46,-88.8C829.15,-74.65 777.84,-53.48 740.74,-38.16"/>
<polygon fill="black" stroke="black" points="741.73,-34.79 731.15,-34.21 739.06,-41.26 741.73,-34.79"/>
<text text-anchor="middle" x="825.79" y="-57.8" font-family="Times New Roman,serif" font-size="14.00">0.021</text>
</g>
<!-- 7 -->
<g id="node8" class="node">
<title>7</title>
<g id="a_node8"><a xlink:href="to_content manager.svg" xlink:title="content manager">
<ellipse fill="none" stroke="black" cx="1071.29" cy="-105" rx="70.39" ry="18"/>
<text text-anchor="middle" x="1071.29" y="-101.3" font-family="Times New Roman,serif" font-size="14.00">content manager</text>
</a>
</g>
</g>
<!-- 7&#45;&gt;0 -->
<g id="edge8" class="edge">
<title>7&#45;&gt;0</title>
<path fill="none" stroke="black" d="M1020.45,-92.54C952.88,-77.3 833.42,-50.37 759.35,-33.67"/>
<polygon fill="black" stroke="black" points="759.74,-30.17 749.21,-31.38 758.2,-37 759.74,-30.17"/>
<text text-anchor="middle" x="921.79" y="-57.8" font-family="Times New Roman,serif" font-size="14.00">0.017</text>
</g>
<!-- 8 -->
<g id="node9" class="node">
<title>8</title>
<g id="a_node9"><a xlink:href="to_media planner.svg" xlink:title="media planner">
<ellipse fill="none" stroke="black" cx="1220.29" cy="-105" rx="61.19" ry="18"/>
<text text-anchor="middle" x="1220.29" y="-101.3" font-family="Times New Roman,serif" font-size="14.00">media planner</text>
</a>
</g>
</g>
<!-- 8&#45;&gt;0 -->
<g id="edge9" class="edge">
<title>8&#45;&gt;0</title>
<path fill="none" stroke="black" d="M1175.6,-92.57C1167.22,-90.59 1158.51,-88.64 1150.29,-87 1019.61,-60.86 866.01,-39.96 774.6,-28.54"/>
<polygon fill="black" stroke="black" points="774.94,-25.05 764.58,-27.29 774.07,-32 774.94,-25.05"/>
<text text-anchor="middle" x="1065.79" y="-57.8" font-family="Times New Roman,serif" font-size="14.00">0.017</text>
</g>
<!-- 9 -->
<g id="node10" class="node">
<title>9</title>
<g id="a_node10"><a xlink:href="to_heritage manager.svg" xlink:title="heritage manager">
<ellipse fill="none" stroke="black" cx="1371.29" cy="-105" rx="71.49" ry="18"/>
<text text-anchor="middle" x="1371.29" y="-101.3" font-family="Times New Roman,serif" font-size="14.00">heritage manager</text>
</a>
</g>
</g>
<!-- 9&#45;&gt;0 -->
<g id="edge10" class="edge">
<title>9&#45;&gt;0</title>
<path fill="none" stroke="black" d="M1319.08,-92.66C1309.52,-90.7 1299.62,-88.73 1290.29,-87 1199.55,-70.18 1176.86,-65.45 1085.29,-54 981.25,-40.99 861.05,-30.97 781.69,-25.06"/>
<polygon fill="black" stroke="black" points="781.48,-21.53 771.25,-24.28 780.97,-28.51 781.48,-21.53"/>
<text text-anchor="middle" x="1202.79" y="-57.8" font-family="Times New Roman,serif" font-size="14.00">0.015</text>
</g>
</g>
</svg>
