<?xml version="1.0" encoding="UTF-8" standalone="no"?>
<!DOCTYPE svg PUBLIC "-//W3C//DTD SVG 1.1//EN"
 "http://www.w3.org/Graphics/SVG/1.1/DTD/svg11.dtd">
<!-- Generated by graphviz version 2.44.1 (20200629.0800)
 -->
<!-- Title: test Pages: 1 -->
<svg width="1351pt" height="131pt"
 viewBox="0.00 0.00 1350.84 131.00" xmlns="http://www.w3.org/2000/svg" xmlns:xlink="http://www.w3.org/1999/xlink">
<g id="graph0" class="graph" transform="scale(1 1) rotate(0) translate(4 127)">
<title>test</title>
<polygon fill="white" stroke="transparent" points="-4,4 -4,-127 1346.84,-127 1346.84,4 -4,4"/>
<!-- 0 -->
<g id="node1" class="node">
<title>0</title>
<g id="a_node1"><a xlink:href="to_clinical research associate.svg" xlink:title="clinical research associate">
<ellipse fill="none" stroke="black" cx="103.99" cy="-105" rx="103.98" ry="18"/>
<text text-anchor="middle" x="103.99" y="-101.3" font-family="Times New Roman,serif" font-size="14.00">clinical research associate</text>
</a>
</g>
</g>
<!-- 1 -->
<g id="node2" class="node">
<title>1</title>
<g id="a_node2"><a xlink:href="to_midwife.svg" xlink:title="midwife">
<ellipse fill="none" stroke="black" cx="753.99" cy="-18" rx="39.79" ry="18"/>
<text text-anchor="middle" x="753.99" y="-14.3" font-family="Times New Roman,serif" font-size="14.00">midwife</text>
</a>
</g>
</g>
<!-- 0&#45;&gt;1 -->
<g id="edge1" class="edge">
<title>0&#45;&gt;1</title>
<path fill="none" stroke="black" d="M179.02,-92.46C191.69,-90.59 204.71,-88.7 216.99,-87 397.33,-62.02 612.27,-35.9 706.15,-24.68"/>
<polygon fill="black" stroke="black" points="706.68,-28.14 716.19,-23.48 705.85,-21.19 706.68,-28.14"/>
<text text-anchor="middle" x="482.49" y="-57.8" font-family="Times New Roman,serif" font-size="14.00">0.181</text>
</g>
<!-- 1&#45;&gt;1 -->
<g id="edge6" class="edge">
<title>1&#45;&gt;1</title>
<path fill="none" stroke="black" d="M789.74,-25.87C801.88,-25.92 811.64,-23.29 811.64,-18 811.64,-14.28 806.81,-11.88 799.73,-10.79"/>
<polygon fill="black" stroke="black" points="799.95,-7.3 789.74,-10.13 799.48,-14.29 799.95,-7.3"/>
<text text-anchor="middle" x="827.14" y="-14.3" font-family="Times New Roman,serif" font-size="14.00">0.090</text>
</g>
<!-- 2 -->
<g id="node3" class="node">
<title>2</title>
<g id="a_node3"><a xlink:href="to_pharmacovigilance officer.svg" xlink:title="pharmacovigilance officer">
<ellipse fill="none" stroke="black" cx="330.99" cy="-105" rx="104.78" ry="18"/>
<text text-anchor="middle" x="330.99" y="-101.3" font-family="Times New Roman,serif" font-size="14.00">pharmacovigilance officer</text>
</a>
</g>
</g>
<!-- 2&#45;&gt;1 -->
<g id="edge2" class="edge">
<title>2&#45;&gt;1</title>
<path fill="none" stroke="black" d="M396.16,-90.91C482.59,-73.54 632.97,-43.32 708.28,-28.19"/>
<polygon fill="black" stroke="black" points="709.28,-31.56 718.39,-26.15 707.9,-24.69 709.28,-31.56"/>
<text text-anchor="middle" x="583.49" y="-57.8" font-family="Times New Roman,serif" font-size="14.00">0.181</text>
</g>
<!-- 3 -->
<g id="node4" class="node">
<title>3</title>
<g id="a_node4"><a xlink:href="to_facilities manager.svg" xlink:title="facilities manager">
<ellipse fill="none" stroke="black" cx="525.99" cy="-105" rx="72.59" ry="18"/>
<text text-anchor="middle" x="525.99" y="-101.3" font-family="Times New Roman,serif" font-size="14.00">facilities manager</text>
</a>
</g>
</g>
<!-- 3&#45;&gt;1 -->
<g id="edge3" class="edge">
<title>3&#45;&gt;1</title>
<path fill="none" stroke="black" d="M564.41,-89.68C606.21,-74.09 672.68,-49.31 714.78,-33.62"/>
<polygon fill="black" stroke="black" points="716.01,-36.9 724.15,-30.12 713.56,-30.34 716.01,-36.9"/>
<text text-anchor="middle" x="669.49" y="-57.8" font-family="Times New Roman,serif" font-size="14.00">0.090</text>
</g>
<!-- 4 -->
<g id="node5" class="node">
<title>4</title>
<g id="a_node5"><a xlink:href="to_housing adviser.svg" xlink:title="housing adviser">
<ellipse fill="none" stroke="black" cx="683.99" cy="-105" rx="67.69" ry="18"/>
<text text-anchor="middle" x="683.99" y="-101.3" font-family="Times New Roman,serif" font-size="14.00">housing adviser</text>
</a>
</g>
</g>
<!-- 4&#45;&gt;1 -->
<g id="edge4" class="edge">
<title>4&#45;&gt;1</title>
<path fill="none" stroke="black" d="M697.82,-87.21C708.21,-74.59 722.59,-57.13 734.2,-43.03"/>
<polygon fill="black" stroke="black" points="737.01,-45.13 740.66,-35.18 731.61,-40.68 737.01,-45.13"/>
<text text-anchor="middle" x="739.49" y="-57.8" font-family="Times New Roman,serif" font-size="14.00">0.090</text>
</g>
<!-- 5 -->
<g id="node6" class="node">
<title>5</title>
<g id="a_node6"><a xlink:href="to_it consultant.svg" xlink:title="it consultant">
<ellipse fill="none" stroke="black" cx="823.99" cy="-105" rx="54.69" ry="18"/>
<text text-anchor="middle" x="823.99" y="-101.3" font-family="Times New Roman,serif" font-size="14.00">it consultant</text>
</a>
</g>
</g>
<!-- 5&#45;&gt;1 -->
<g id="edge5" class="edge">
<title>5&#45;&gt;1</title>
<path fill="none" stroke="black" d="M810.16,-87.21C799.77,-74.59 785.39,-57.13 773.78,-43.03"/>
<polygon fill="black" stroke="black" points="776.38,-40.68 767.32,-35.18 770.97,-45.13 776.38,-40.68"/>
<text text-anchor="middle" x="809.49" y="-57.8" font-family="Times New Roman,serif" font-size="14.00">0.090</text>
</g>
<!-- 6 -->
<g id="node7" class="node">
<title>6</title>
<g id="a_node7"><a xlink:href="to_private music teacher.svg" xlink:title="private music teacher">
<ellipse fill="none" stroke="black" cx="983.99" cy="-105" rx="87.18" ry="18"/>
<text text-anchor="middle" x="983.99" y="-101.3" font-family="Times New Roman,serif" font-size="14.00">private music teacher</text>
</a>
</g>
</g>
<!-- 6&#45;&gt;1 -->
<g id="edge7" class="edge">
<title>6&#45;&gt;1</title>
<path fill="none" stroke="black" d="M943.4,-89C901.14,-73.38 835.37,-49.08 793.51,-33.61"/>
<polygon fill="black" stroke="black" points="794.52,-30.25 783.93,-30.06 792.1,-36.81 794.52,-30.25"/>
<text text-anchor="middle" x="898.49" y="-57.8" font-family="Times New Roman,serif" font-size="14.00">0.090</text>
</g>
<!-- 7 -->
<g id="node8" class="node">
<title>7</title>
<g id="a_node8"><a xlink:href="to_social worker.svg" xlink:title="social worker">
<ellipse fill="none" stroke="black" cx="1148.99" cy="-105" rx="59.59" ry="18"/>
<text text-anchor="middle" x="1148.99" y="-101.3" font-family="Times New Roman,serif" font-size="14.00">social worker</text>
</a>
</g>
</g>
<!-- 7&#45;&gt;1 -->
<g id="edge8" class="edge">
<title>7&#45;&gt;1</title>
<path fill="none" stroke="black" d="M1104.51,-92.79C1096.36,-90.81 1087.93,-88.81 1079.99,-87 980.39,-64.35 863.01,-40.58 799.82,-28.02"/>
<polygon fill="black" stroke="black" points="800.27,-24.54 789.78,-26.03 798.91,-31.41 800.27,-24.54"/>
<text text-anchor="middle" x="1005.49" y="-57.8" font-family="Times New Roman,serif" font-size="14.00">0.090</text>
</g>
<!-- 8 -->
<g id="node9" class="node">
<title>8</title>
<g id="a_node9"><a xlink:href="to_tax inspector.svg" xlink:title="tax inspector">
<ellipse fill="none" stroke="black" cx="1284.99" cy="-105" rx="57.69" ry="18"/>
<text text-anchor="middle" x="1284.99" y="-101.3" font-family="Times New Roman,serif" font-size="14.00">tax inspector</text>
</a>
</g>
</g>
<!-- 8&#45;&gt;1 -->
<g id="edge9" class="edge">
<title>8&#45;&gt;1</title>
<path fill="none" stroke="black" d="M1242.58,-92.7C1234.44,-90.69 1225.97,-88.69 1217.99,-87 1067.75,-55.15 886.99,-33.32 802.26,-24.03"/>
<polygon fill="black" stroke="black" points="802.49,-20.54 792.17,-22.94 801.74,-27.49 802.49,-20.54"/>
<text text-anchor="middle" x="1132.49" y="-57.8" font-family="Times New Roman,serif" font-size="14.00">0.090</text>
</g>
</g>
</svg>
