<?xml version="1.0" encoding="UTF-8" standalone="no"?>
<!DOCTYPE svg PUBLIC "-//W3C//DTD SVG 1.1//EN"
 "http://www.w3.org/Graphics/SVG/1.1/DTD/svg11.dtd">
<!-- Generated by graphviz version 2.44.1 (20200629.0800)
 -->
<!-- Title: meteorologist Pages: 1 -->
<svg width="583pt" height="131pt"
 viewBox="0.00 0.00 582.53 131.00" xmlns="http://www.w3.org/2000/svg" xmlns:xlink="http://www.w3.org/1999/xlink">
<g id="graph0" class="graph" transform="scale(1 1) rotate(0) translate(4 127)">
<title>meteorologist</title>
<polygon fill="white" stroke="transparent" points="-4,4 -4,-127 578.53,-127 578.53,4 -4,4"/>
<!-- 0 -->
<g id="node1" class="node">
<title>0</title>
<g id="a_node1"><a xlink:href="to_political party agent.svg" xlink:title="political party agent">
<ellipse fill="none" stroke="black" cx="81.24" cy="-105" rx="81.49" ry="18"/>
<text text-anchor="middle" x="81.24" y="-101.3" font-family="Times New Roman,serif" font-size="14.00">political party agent</text>
</a>
</g>
</g>
<!-- 1 -->
<g id="node2" class="node">
<title>1</title>
<g id="a_node2"><a xlink:href="to_meteorologist.svg" xlink:title="meteorologist">
<ellipse fill="none" stroke="black" cx="263.24" cy="-18" rx="59.59" ry="18"/>
<text text-anchor="middle" x="263.24" y="-14.3" font-family="Times New Roman,serif" font-size="14.00">meteorologist</text>
</a>
</g>
</g>
<!-- 0&#45;&gt;1 -->
<g id="edge1" class="edge">
<title>0&#45;&gt;1</title>
<path fill="none" stroke="black" d="M114.62,-88.41C145.17,-74.15 190.42,-53.01 222.96,-37.81"/>
<polygon fill="black" stroke="black" points="224.62,-40.9 232.2,-33.5 221.66,-34.56 224.62,-40.9"/>
<text text-anchor="middle" x="198.74" y="-57.8" font-family="Times New Roman,serif" font-size="14.00">0.333</text>
</g>
<!-- 2 -->
<g id="node3" class="node">
<title>2</title>
<g id="a_node3"><a xlink:href="to_production manager.svg" xlink:title="production manager">
<ellipse fill="none" stroke="black" cx="263.24" cy="-105" rx="83.39" ry="18"/>
<text text-anchor="middle" x="263.24" y="-101.3" font-family="Times New Roman,serif" font-size="14.00">production manager</text>
</a>
</g>
</g>
<!-- 2&#45;&gt;1 -->
<g id="edge2" class="edge">
<title>2&#45;&gt;1</title>
<path fill="none" stroke="black" d="M263.24,-86.8C263.24,-75.16 263.24,-59.55 263.24,-46.24"/>
<polygon fill="black" stroke="black" points="266.74,-46.18 263.24,-36.18 259.74,-46.18 266.74,-46.18"/>
<text text-anchor="middle" x="278.74" y="-57.8" font-family="Times New Roman,serif" font-size="14.00">0.333</text>
</g>
<!-- 3 -->
<g id="node4" class="node">
<title>3</title>
<g id="a_node4"><a xlink:href="to_quality assurance manager.svg" xlink:title="quality assurance manager">
<ellipse fill="none" stroke="black" cx="469.24" cy="-105" rx="105.08" ry="18"/>
<text text-anchor="middle" x="469.24" y="-101.3" font-family="Times New Roman,serif" font-size="14.00">quality assurance manager</text>
</a>
</g>
</g>
<!-- 3&#45;&gt;1 -->
<g id="edge3" class="edge">
<title>3&#45;&gt;1</title>
<path fill="none" stroke="black" d="M430.98,-88.21C395.73,-73.67 343.47,-52.11 306.68,-36.92"/>
<polygon fill="black" stroke="black" points="307.78,-33.59 297.2,-33.01 305.11,-40.06 307.78,-33.59"/>
<text text-anchor="middle" x="393.74" y="-57.8" font-family="Times New Roman,serif" font-size="14.00">0.333</text>
</g>
</g>
</svg>
