<?xml version="1.0" encoding="UTF-8" standalone="no"?>
<!DOCTYPE svg PUBLIC "-//W3C//DTD SVG 1.1//EN"
 "http://www.w3.org/Graphics/SVG/1.1/DTD/svg11.dtd">
<!-- Generated by graphviz version 2.44.1 (20200629.0800)
 -->
<!-- Title: test Pages: 1 -->
<svg width="1561pt" height="131pt"
 viewBox="0.00 0.00 1560.79 131.00" xmlns="http://www.w3.org/2000/svg" xmlns:xlink="http://www.w3.org/1999/xlink">
<g id="graph0" class="graph" transform="scale(1 1) rotate(0) translate(4 127)">
<title>test</title>
<polygon fill="white" stroke="transparent" points="-4,4 -4,-127 1556.79,-127 1556.79,4 -4,4"/>
<!-- 0 -->
<g id="node1" class="node">
<title>0</title>
<g id="a_node1"><a xlink:href="to_it consultant.svg" xlink:title="it consultant">
<ellipse fill="none" stroke="black" cx="54.6" cy="-105" rx="54.69" ry="18"/>
<text text-anchor="middle" x="54.6" y="-101.3" font-family="Times New Roman,serif" font-size="14.00">it consultant</text>
</a>
</g>
</g>
<!-- 1 -->
<g id="node2" class="node">
<title>1</title>
<g id="a_node2"><a xlink:href="to_materials specialist.svg" xlink:title="materials specialist">
<ellipse fill="none" stroke="black" cx="738.6" cy="-18" rx="77.99" ry="18"/>
<text text-anchor="middle" x="738.6" y="-14.3" font-family="Times New Roman,serif" font-size="14.00">materials specialist</text>
</a>
</g>
</g>
<!-- 0&#45;&gt;1 -->
<g id="edge1" class="edge">
<title>0&#45;&gt;1</title>
<path fill="none" stroke="black" d="M94.04,-92.4C101.8,-90.39 109.92,-88.47 117.6,-87 307.25,-50.56 533.51,-31.91 653.7,-23.94"/>
<polygon fill="black" stroke="black" points="654.18,-27.41 663.93,-23.27 653.73,-20.43 654.18,-27.41"/>
<text text-anchor="middle" x="337.1" y="-57.8" font-family="Times New Roman,serif" font-size="14.00">0.072</text>
</g>
<!-- 1&#45;&gt;1 -->
<g id="edge2" class="edge">
<title>1&#45;&gt;1</title>
<path fill="none" stroke="black" d="M809.34,-25.6C824.03,-24.8 834.59,-22.27 834.59,-18 834.59,-14.8 828.65,-12.58 819.48,-11.33"/>
<polygon fill="black" stroke="black" points="819.62,-7.82 809.34,-10.4 818.98,-14.8 819.62,-7.82"/>
<text text-anchor="middle" x="850.09" y="-14.3" font-family="Times New Roman,serif" font-size="14.00">0.072</text>
</g>
<!-- 2 -->
<g id="node3" class="node">
<title>2</title>
<g id="a_node3"><a xlink:href="to_pharmacovigilance officer.svg" xlink:title="pharmacovigilance officer">
<ellipse fill="none" stroke="black" cx="231.6" cy="-105" rx="104.78" ry="18"/>
<text text-anchor="middle" x="231.6" y="-101.3" font-family="Times New Roman,serif" font-size="14.00">pharmacovigilance officer</text>
</a>
</g>
</g>
<!-- 2&#45;&gt;1 -->
<g id="edge3" class="edge">
<title>2&#45;&gt;1</title>
<path fill="none" stroke="black" d="M302.37,-91.71C361.49,-81.49 448.01,-66.62 523.6,-54 571.15,-46.06 624.66,-37.35 666.4,-30.6"/>
<polygon fill="black" stroke="black" points="667.16,-34.02 676.48,-28.97 666.05,-27.11 667.16,-34.02"/>
<text text-anchor="middle" x="539.1" y="-57.8" font-family="Times New Roman,serif" font-size="14.00">0.042</text>
</g>
<!-- 3 -->
<g id="node4" class="node">
<title>3</title>
<g id="a_node4"><a xlink:href="to_sales manager.svg" xlink:title="sales manager">
<ellipse fill="none" stroke="black" cx="415.6" cy="-105" rx="61.19" ry="18"/>
<text text-anchor="middle" x="415.6" y="-101.3" font-family="Times New Roman,serif" font-size="14.00">sales manager</text>
</a>
</g>
</g>
<!-- 3&#45;&gt;1 -->
<g id="edge4" class="edge">
<title>3&#45;&gt;1</title>
<path fill="none" stroke="black" d="M459.49,-92.45C516.39,-77.48 615.82,-51.31 679.36,-34.59"/>
<polygon fill="black" stroke="black" points="680.46,-37.92 689.24,-31.99 678.68,-31.15 680.46,-37.92"/>
<text text-anchor="middle" x="612.1" y="-57.8" font-family="Times New Roman,serif" font-size="14.00">0.036</text>
</g>
<!-- 4 -->
<g id="node5" class="node">
<title>4</title>
<g id="a_node5"><a xlink:href="to_research scientist.svg" xlink:title="research scientist">
<ellipse fill="none" stroke="black" cx="567.6" cy="-105" rx="72.59" ry="18"/>
<text text-anchor="middle" x="567.6" y="-101.3" font-family="Times New Roman,serif" font-size="14.00">research scientist</text>
</a>
</g>
</g>
<!-- 4&#45;&gt;1 -->
<g id="edge5" class="edge">
<title>4&#45;&gt;1</title>
<path fill="none" stroke="black" d="M598.56,-88.61C626.47,-74.73 667.69,-54.24 698.19,-39.09"/>
<polygon fill="black" stroke="black" points="699.88,-42.15 707.28,-34.57 696.77,-35.88 699.88,-42.15"/>
<text text-anchor="middle" x="679.1" y="-57.8" font-family="Times New Roman,serif" font-size="14.00">0.030</text>
</g>
<!-- 5 -->
<g id="node6" class="node">
<title>5</title>
<g id="a_node6"><a xlink:href="to_software developer.svg" xlink:title="software developer">
<ellipse fill="none" stroke="black" cx="738.6" cy="-105" rx="79.89" ry="18"/>
<text text-anchor="middle" x="738.6" y="-101.3" font-family="Times New Roman,serif" font-size="14.00">software developer</text>
</a>
</g>
</g>
<!-- 5&#45;&gt;1 -->
<g id="edge6" class="edge">
<title>5&#45;&gt;1</title>
<path fill="none" stroke="black" d="M738.6,-86.8C738.6,-75.16 738.6,-59.55 738.6,-46.24"/>
<polygon fill="black" stroke="black" points="742.1,-46.18 738.6,-36.18 735.1,-46.18 742.1,-46.18"/>
<text text-anchor="middle" x="754.1" y="-57.8" font-family="Times New Roman,serif" font-size="14.00">0.030</text>
</g>
<!-- 6 -->
<g id="node7" class="node">
<title>6</title>
<g id="a_node7"><a xlink:href="to_structural engineer.svg" xlink:title="structural engineer">
<ellipse fill="none" stroke="black" cx="913.6" cy="-105" rx="76.89" ry="18"/>
<text text-anchor="middle" x="913.6" y="-101.3" font-family="Times New Roman,serif" font-size="14.00">structural engineer</text>
</a>
</g>
</g>
<!-- 6&#45;&gt;1 -->
<g id="edge7" class="edge">
<title>6&#45;&gt;1</title>
<path fill="none" stroke="black" d="M881.9,-88.61C853.34,-74.73 811.16,-54.24 779.95,-39.09"/>
<polygon fill="black" stroke="black" points="781.17,-35.79 770.64,-34.57 778.11,-42.08 781.17,-35.79"/>
<text text-anchor="middle" x="852.1" y="-57.8" font-family="Times New Roman,serif" font-size="14.00">0.030</text>
</g>
<!-- 7 -->
<g id="node8" class="node">
<title>7</title>
<g id="a_node8"><a xlink:href="to_broadcasting presenter.svg" xlink:title="broadcasting presenter">
<ellipse fill="none" stroke="black" cx="1101.6" cy="-105" rx="92.88" ry="18"/>
<text text-anchor="middle" x="1101.6" y="-101.3" font-family="Times New Roman,serif" font-size="14.00">broadcasting presenter</text>
</a>
</g>
</g>
<!-- 7&#45;&gt;1 -->
<g id="edge8" class="edge">
<title>7&#45;&gt;1</title>
<path fill="none" stroke="black" d="M1044.88,-90.72C978.74,-75.23 869.75,-49.71 801.19,-33.66"/>
<polygon fill="black" stroke="black" points="801.91,-30.23 791.38,-31.36 800.32,-37.05 801.91,-30.23"/>
<text text-anchor="middle" x="958.1" y="-57.8" font-family="Times New Roman,serif" font-size="14.00">0.024</text>
</g>
<!-- 8 -->
<g id="node9" class="node">
<title>8</title>
<g id="a_node9"><a xlink:href="to_careers adviser.svg" xlink:title="careers adviser">
<ellipse fill="none" stroke="black" cx="1277.6" cy="-105" rx="64.99" ry="18"/>
<text text-anchor="middle" x="1277.6" y="-101.3" font-family="Times New Roman,serif" font-size="14.00">careers adviser</text>
</a>
</g>
</g>
<!-- 8&#45;&gt;1 -->
<g id="edge9" class="edge">
<title>8&#45;&gt;1</title>
<path fill="none" stroke="black" d="M1230.34,-92.55C1221.48,-90.57 1212.28,-88.63 1203.6,-87 1067.95,-61.54 908.54,-40.04 815.99,-28.38"/>
<polygon fill="black" stroke="black" points="816.23,-24.88 805.87,-27.11 815.36,-31.83 816.23,-24.88"/>
<text text-anchor="middle" x="1104.1" y="-57.8" font-family="Times New Roman,serif" font-size="14.00">0.024</text>
</g>
<!-- 9 -->
<g id="node10" class="node">
<title>9</title>
<g id="a_node10"><a xlink:href="to_computer sales support.svg" xlink:title="computer sales support">
<ellipse fill="none" stroke="black" cx="1456.6" cy="-105" rx="96.38" ry="18"/>
<text text-anchor="middle" x="1456.6" y="-101.3" font-family="Times New Roman,serif" font-size="14.00">computer sales support</text>
</a>
</g>
</g>
<!-- 9&#45;&gt;1 -->
<g id="edge10" class="edge">
<title>9&#45;&gt;1</title>
<path fill="none" stroke="black" d="M1386.87,-92.54C1375.1,-90.66 1363,-88.75 1351.6,-87 1250.39,-71.48 1225.28,-65.97 1123.6,-54 1019.77,-41.78 899.77,-31.47 821.7,-25.27"/>
<polygon fill="black" stroke="black" points="821.69,-21.76 811.45,-24.46 821.14,-28.74 821.69,-21.76"/>
<text text-anchor="middle" x="1249.1" y="-57.8" font-family="Times New Roman,serif" font-size="14.00">0.024</text>
</g>
</g>
</svg>
