<?xml version="1.0" encoding="UTF-8" standalone="no"?>
<!DOCTYPE svg PUBLIC "-//W3C//DTD SVG 1.1//EN"
 "http://www.w3.org/Graphics/SVG/1.1/DTD/svg11.dtd">
<!-- Generated by graphviz version 2.44.1 (20200629.0800)
 -->
<!-- Title: medical_physicist Pages: 1 -->
<svg width="1440pt" height="131pt"
 viewBox="0.00 0.00 1439.89 131.00" xmlns="http://www.w3.org/2000/svg" xmlns:xlink="http://www.w3.org/1999/xlink">
<g id="graph0" class="graph" transform="scale(1 1) rotate(0) translate(4 127)">
<title>medical_physicist</title>
<polygon fill="white" stroke="transparent" points="-4,4 -4,-127 1435.89,-127 1435.89,4 -4,4"/>
<!-- 0 -->
<g id="node1" class="node">
<title>0</title>
<g id="a_node1"><a xlink:href="to_medical physicist.svg" xlink:title="medical physicist">
<ellipse fill="none" stroke="black" cx="773.34" cy="-18" rx="73.39" ry="18"/>
<text text-anchor="middle" x="773.34" y="-14.3" font-family="Times New Roman,serif" font-size="14.00">medical physicist</text>
</a>
</g>
</g>
<!-- 0&#45;&gt;0 -->
<g id="edge1" class="edge">
<title>0&#45;&gt;0</title>
<path fill="none" stroke="black" d="M839.92,-25.64C854.33,-24.9 864.79,-22.35 864.79,-18 864.79,-14.74 858.91,-12.49 849.89,-11.26"/>
<polygon fill="black" stroke="black" points="850.2,-7.77 839.92,-10.36 849.57,-14.74 850.2,-7.77"/>
<text text-anchor="middle" x="880.29" y="-14.3" font-family="Times New Roman,serif" font-size="14.00">0.243</text>
</g>
<!-- 1 -->
<g id="node2" class="node">
<title>1</title>
<g id="a_node2"><a xlink:href="to_clinical biochemist.svg" xlink:title="clinical biochemist">
<ellipse fill="none" stroke="black" cx="77.34" cy="-105" rx="77.19" ry="18"/>
<text text-anchor="middle" x="77.34" y="-101.3" font-family="Times New Roman,serif" font-size="14.00">clinical biochemist</text>
</a>
</g>
</g>
<!-- 1&#45;&gt;0 -->
<g id="edge2" class="edge">
<title>1&#45;&gt;0</title>
<path fill="none" stroke="black" d="M133.41,-92.48C143.68,-90.53 154.32,-88.62 164.34,-87 353.46,-56.46 577.83,-35.24 694.3,-25.34"/>
<polygon fill="black" stroke="black" points="694.88,-28.8 704.55,-24.47 694.29,-21.83 694.88,-28.8"/>
<text text-anchor="middle" x="413.84" y="-57.8" font-family="Times New Roman,serif" font-size="14.00">0.073</text>
</g>
<!-- 2 -->
<g id="node3" class="node">
<title>2</title>
<g id="a_node3"><a xlink:href="to_government research officer.svg" xlink:title="government research officer">
<ellipse fill="none" stroke="black" cx="285.34" cy="-105" rx="112.38" ry="18"/>
<text text-anchor="middle" x="285.34" y="-101.3" font-family="Times New Roman,serif" font-size="14.00">government research officer</text>
</a>
</g>
</g>
<!-- 2&#45;&gt;0 -->
<g id="edge3" class="edge">
<title>2&#45;&gt;0</title>
<path fill="none" stroke="black" d="M348.61,-90.11C398.19,-79.47 468.98,-64.84 531.34,-54 587.77,-44.19 651.92,-35 700,-28.5"/>
<polygon fill="black" stroke="black" points="700.56,-31.96 710,-27.16 699.63,-25.02 700.56,-31.96"/>
<text text-anchor="middle" x="546.84" y="-57.8" font-family="Times New Roman,serif" font-size="14.00">0.048</text>
</g>
<!-- 3 -->
<g id="node4" class="node">
<title>3</title>
<g id="a_node4"><a xlink:href="to_lecturer.svg" xlink:title="lecturer">
<ellipse fill="none" stroke="black" cx="453.34" cy="-105" rx="37.89" ry="18"/>
<text text-anchor="middle" x="453.34" y="-101.3" font-family="Times New Roman,serif" font-size="14.00">lecturer</text>
</a>
</g>
</g>
<!-- 3&#45;&gt;0 -->
<g id="edge4" class="edge">
<title>3&#45;&gt;0</title>
<path fill="none" stroke="black" d="M481.89,-92.89C487.63,-90.82 493.65,-88.75 499.34,-87 570.56,-65.08 653.83,-45.21 709.72,-32.69"/>
<polygon fill="black" stroke="black" points="710.82,-36.03 719.82,-30.44 709.3,-29.19 710.82,-36.03"/>
<text text-anchor="middle" x="634.84" y="-57.8" font-family="Times New Roman,serif" font-size="14.00">0.048</text>
</g>
<!-- 4 -->
<g id="node5" class="node">
<title>4</title>
<g id="a_node5"><a xlink:href="to_public house manager.svg" xlink:title="public house manager">
<ellipse fill="none" stroke="black" cx="598.34" cy="-105" rx="89.88" ry="18"/>
<text text-anchor="middle" x="598.34" y="-101.3" font-family="Times New Roman,serif" font-size="14.00">public house manager</text>
</a>
</g>
</g>
<!-- 4&#45;&gt;0 -->
<g id="edge5" class="edge">
<title>4&#45;&gt;0</title>
<path fill="none" stroke="black" d="M630.85,-88.21C659.6,-74.24 701.68,-53.81 732.66,-38.76"/>
<polygon fill="black" stroke="black" points="734.43,-41.79 741.89,-34.27 731.37,-35.5 734.43,-41.79"/>
<text text-anchor="middle" x="711.84" y="-57.8" font-family="Times New Roman,serif" font-size="14.00">0.048</text>
</g>
<!-- 5 -->
<g id="node6" class="node">
<title>5</title>
<g id="a_node6"><a xlink:href="to_sports therapist.svg" xlink:title="sports therapist">
<ellipse fill="none" stroke="black" cx="773.34" cy="-105" rx="66.89" ry="18"/>
<text text-anchor="middle" x="773.34" y="-101.3" font-family="Times New Roman,serif" font-size="14.00">sports therapist</text>
</a>
</g>
</g>
<!-- 5&#45;&gt;0 -->
<g id="edge6" class="edge">
<title>5&#45;&gt;0</title>
<path fill="none" stroke="black" d="M773.34,-86.8C773.34,-75.16 773.34,-59.55 773.34,-46.24"/>
<polygon fill="black" stroke="black" points="776.84,-46.18 773.34,-36.18 769.84,-46.18 776.84,-46.18"/>
<text text-anchor="middle" x="788.84" y="-57.8" font-family="Times New Roman,serif" font-size="14.00">0.048</text>
</g>
<!-- 6 -->
<g id="node7" class="node">
<title>6</title>
<g id="a_node7"><a xlink:href="to_armed forces officer.svg" xlink:title="armed forces officer">
<ellipse fill="none" stroke="black" cx="943.34" cy="-105" rx="85.29" ry="18"/>
<text text-anchor="middle" x="943.34" y="-101.3" font-family="Times New Roman,serif" font-size="14.00">armed forces officer</text>
</a>
</g>
</g>
<!-- 6&#45;&gt;0 -->
<g id="edge7" class="edge">
<title>6&#45;&gt;0</title>
<path fill="none" stroke="black" d="M911.77,-88.21C883.92,-74.29 843.21,-53.93 813.14,-38.9"/>
<polygon fill="black" stroke="black" points="814.69,-35.76 804.18,-34.42 811.56,-42.02 814.69,-35.76"/>
<text text-anchor="middle" x="884.84" y="-57.8" font-family="Times New Roman,serif" font-size="14.00">0.024</text>
</g>
<!-- 7 -->
<g id="node8" class="node">
<title>7</title>
<g id="a_node8"><a xlink:href="to_auditor.svg" xlink:title="auditor">
<ellipse fill="none" stroke="black" cx="1083.34" cy="-105" rx="36.29" ry="18"/>
<text text-anchor="middle" x="1083.34" y="-101.3" font-family="Times New Roman,serif" font-size="14.00">auditor</text>
</a>
</g>
</g>
<!-- 7&#45;&gt;0 -->
<g id="edge8" class="edge">
<title>7&#45;&gt;0</title>
<path fill="none" stroke="black" d="M1055.28,-93.11C1049.39,-90.97 1043.19,-88.83 1037.34,-87 968.88,-65.59 888.94,-45.7 835.12,-33.03"/>
<polygon fill="black" stroke="black" points="835.92,-29.62 825.38,-30.75 834.32,-36.44 835.92,-29.62"/>
<text text-anchor="middle" x="987.84" y="-57.8" font-family="Times New Roman,serif" font-size="14.00">0.024</text>
</g>
<!-- 8 -->
<g id="node9" class="node">
<title>8</title>
<g id="a_node9"><a xlink:href="to_biomedical scientist.svg" xlink:title="biomedical scientist">
<ellipse fill="none" stroke="black" cx="1219.34" cy="-105" rx="81.79" ry="18"/>
<text text-anchor="middle" x="1219.34" y="-101.3" font-family="Times New Roman,serif" font-size="14.00">biomedical scientist</text>
</a>
</g>
</g>
<!-- 8&#45;&gt;0 -->
<g id="edge9" class="edge">
<title>8&#45;&gt;0</title>
<path fill="none" stroke="black" d="M1168.62,-90.78C1125.83,-79.94 1062.86,-64.68 1007.34,-54 953.98,-43.73 893.28,-34.73 847.08,-28.43"/>
<polygon fill="black" stroke="black" points="847.53,-24.96 837.15,-27.09 846.59,-31.89 847.53,-24.96"/>
<text text-anchor="middle" x="1092.84" y="-57.8" font-family="Times New Roman,serif" font-size="14.00">0.024</text>
</g>
<!-- 9 -->
<g id="node10" class="node">
<title>9</title>
<g id="a_node10"><a xlink:href="to_cartographer.svg" xlink:title="cartographer">
<ellipse fill="none" stroke="black" cx="1375.34" cy="-105" rx="56.59" ry="18"/>
<text text-anchor="middle" x="1375.34" y="-101.3" font-family="Times New Roman,serif" font-size="14.00">cartographer</text>
</a>
</g>
</g>
<!-- 9&#45;&gt;0 -->
<g id="edge10" class="edge">
<title>9&#45;&gt;0</title>
<path fill="none" stroke="black" d="M1334.21,-92.64C1326.32,-90.63 1318.1,-88.66 1310.34,-87 1149.81,-52.7 958.33,-33.55 852.88,-24.84"/>
<polygon fill="black" stroke="black" points="852.88,-21.33 842.63,-24.01 852.31,-28.31 852.88,-21.33"/>
<text text-anchor="middle" x="1223.84" y="-57.8" font-family="Times New Roman,serif" font-size="14.00">0.024</text>
</g>
</g>
</svg>
