<?xml version="1.0" encoding="UTF-8" standalone="no"?>
<!DOCTYPE svg PUBLIC "-//W3C//DTD SVG 1.1//EN"
 "http://www.w3.org/Graphics/SVG/1.1/DTD/svg11.dtd">
<!-- Generated by graphviz version 2.44.1 (20200629.0800)
 -->
<!-- Title: mining_engineer Pages: 1 -->
<svg width="1499pt" height="131pt"
 viewBox="0.00 0.00 1499.14 131.00" xmlns="http://www.w3.org/2000/svg" xmlns:xlink="http://www.w3.org/1999/xlink">
<g id="graph0" class="graph" transform="scale(1 1) rotate(0) translate(4 127)">
<title>mining_engineer</title>
<polygon fill="white" stroke="transparent" points="-4,4 -4,-127 1495.14,-127 1495.14,4 -4,4"/>
<!-- 0 -->
<g id="node1" class="node">
<title>0</title>
<g id="a_node1"><a xlink:href="to_mining engineer.svg" xlink:title="mining engineer">
<ellipse fill="none" stroke="black" cx="720.6" cy="-18" rx="66.89" ry="18"/>
<text text-anchor="middle" x="720.6" y="-14.3" font-family="Times New Roman,serif" font-size="14.00">mining engineer</text>
</a>
</g>
</g>
<!-- 0&#45;&gt;0 -->
<g id="edge1" class="edge">
<title>0&#45;&gt;0</title>
<path fill="none" stroke="black" d="M781.3,-25.7C795.27,-25.04 805.54,-22.47 805.54,-18 805.54,-14.72 800,-12.46 791.53,-11.23"/>
<polygon fill="black" stroke="black" points="791.57,-7.72 781.3,-10.3 790.94,-14.69 791.57,-7.72"/>
<text text-anchor="middle" x="821.04" y="-14.3" font-family="Times New Roman,serif" font-size="14.00">0.146</text>
</g>
<!-- 1 -->
<g id="node2" class="node">
<title>1</title>
<g id="a_node2"><a xlink:href="to_it consultant.svg" xlink:title="it consultant">
<ellipse fill="none" stroke="black" cx="54.6" cy="-105" rx="54.69" ry="18"/>
<text text-anchor="middle" x="54.6" y="-101.3" font-family="Times New Roman,serif" font-size="14.00">it consultant</text>
</a>
</g>
</g>
<!-- 1&#45;&gt;0 -->
<g id="edge2" class="edge">
<title>1&#45;&gt;0</title>
<path fill="none" stroke="black" d="M94.35,-92.58C102.34,-90.53 110.7,-88.56 118.6,-87 306.41,-49.97 531.46,-31.22 645.86,-23.48"/>
<polygon fill="black" stroke="black" points="646.17,-26.97 655.91,-22.81 645.7,-19.98 646.17,-26.97"/>
<text text-anchor="middle" x="332.1" y="-57.8" font-family="Times New Roman,serif" font-size="14.00">0.048</text>
</g>
<!-- 2 -->
<g id="node3" class="node">
<title>2</title>
<g id="a_node3"><a xlink:href="to_mechanical engineer.svg" xlink:title="mechanical engineer">
<ellipse fill="none" stroke="black" cx="210.6" cy="-105" rx="83.39" ry="18"/>
<text text-anchor="middle" x="210.6" y="-101.3" font-family="Times New Roman,serif" font-size="14.00">mechanical engineer</text>
</a>
</g>
</g>
<!-- 2&#45;&gt;0 -->
<g id="edge3" class="edge">
<title>2&#45;&gt;0</title>
<path fill="none" stroke="black" d="M271.44,-92.62C281.83,-90.72 292.52,-88.78 302.6,-87 389.15,-71.68 410.84,-68.15 497.6,-54 549.98,-45.46 609.36,-36.16 653.67,-29.29"/>
<polygon fill="black" stroke="black" points="654.39,-32.72 663.74,-27.73 653.32,-25.8 654.39,-32.72"/>
<text text-anchor="middle" x="513.1" y="-57.8" font-family="Times New Roman,serif" font-size="14.00">0.048</text>
</g>
<!-- 3 -->
<g id="node4" class="node">
<title>3</title>
<g id="a_node4"><a xlink:href="to_research scientist.svg" xlink:title="research scientist">
<ellipse fill="none" stroke="black" cx="384.6" cy="-105" rx="72.59" ry="18"/>
<text text-anchor="middle" x="384.6" y="-101.3" font-family="Times New Roman,serif" font-size="14.00">research scientist</text>
</a>
</g>
</g>
<!-- 3&#45;&gt;0 -->
<g id="edge4" class="edge">
<title>3&#45;&gt;0</title>
<path fill="none" stroke="black" d="M433.45,-91.64C494.53,-76.19 598.88,-49.79 663.55,-33.43"/>
<polygon fill="black" stroke="black" points="664.74,-36.74 673.58,-30.89 663.02,-29.95 664.74,-36.74"/>
<text text-anchor="middle" x="589.1" y="-57.8" font-family="Times New Roman,serif" font-size="14.00">0.048</text>
</g>
<!-- 4 -->
<g id="node5" class="node">
<title>4</title>
<g id="a_node5"><a xlink:href="to_structural engineer.svg" xlink:title="structural engineer">
<ellipse fill="none" stroke="black" cx="551.6" cy="-105" rx="76.89" ry="18"/>
<text text-anchor="middle" x="551.6" y="-101.3" font-family="Times New Roman,serif" font-size="14.00">structural engineer</text>
</a>
</g>
</g>
<!-- 4&#45;&gt;0 -->
<g id="edge5" class="edge">
<title>4&#45;&gt;0</title>
<path fill="none" stroke="black" d="M582.59,-88.41C610.4,-74.42 651.34,-53.83 681.41,-38.71"/>
<polygon fill="black" stroke="black" points="683,-41.83 690.36,-34.21 679.86,-35.57 683,-41.83"/>
<text text-anchor="middle" x="662.1" y="-57.8" font-family="Times New Roman,serif" font-size="14.00">0.048</text>
</g>
<!-- 5 -->
<g id="node6" class="node">
<title>5</title>
<g id="a_node6"><a xlink:href="to_electrical engineer.svg" xlink:title="electrical engineer">
<ellipse fill="none" stroke="black" cx="720.6" cy="-105" rx="74.99" ry="18"/>
<text text-anchor="middle" x="720.6" y="-101.3" font-family="Times New Roman,serif" font-size="14.00">electrical engineer</text>
</a>
</g>
</g>
<!-- 5&#45;&gt;0 -->
<g id="edge6" class="edge">
<title>5&#45;&gt;0</title>
<path fill="none" stroke="black" d="M720.6,-86.8C720.6,-75.16 720.6,-59.55 720.6,-46.24"/>
<polygon fill="black" stroke="black" points="724.1,-46.18 720.6,-36.18 717.1,-46.18 724.1,-46.18"/>
<text text-anchor="middle" x="736.1" y="-57.8" font-family="Times New Roman,serif" font-size="14.00">0.036</text>
</g>
<!-- 6 -->
<g id="node7" class="node">
<title>6</title>
<g id="a_node7"><a xlink:href="to_network administrator.svg" xlink:title="network administrator">
<ellipse fill="none" stroke="black" cx="902.6" cy="-105" rx="89.88" ry="18"/>
<text text-anchor="middle" x="902.6" y="-101.3" font-family="Times New Roman,serif" font-size="14.00">network administrator</text>
</a>
</g>
</g>
<!-- 6&#45;&gt;0 -->
<g id="edge7" class="edge">
<title>6&#45;&gt;0</title>
<path fill="none" stroke="black" d="M868.79,-88.21C838.47,-74.05 793.92,-53.24 761.58,-38.14"/>
<polygon fill="black" stroke="black" points="762.93,-34.91 752.39,-33.85 759.97,-41.25 762.93,-34.91"/>
<text text-anchor="middle" x="838.1" y="-57.8" font-family="Times New Roman,serif" font-size="14.00">0.036</text>
</g>
<!-- 7 -->
<g id="node8" class="node">
<title>7</title>
<g id="a_node8"><a xlink:href="to_project manager.svg" xlink:title="project manager">
<ellipse fill="none" stroke="black" cx="1079.6" cy="-105" rx="68.79" ry="18"/>
<text text-anchor="middle" x="1079.6" y="-101.3" font-family="Times New Roman,serif" font-size="14.00">project manager</text>
</a>
</g>
</g>
<!-- 7&#45;&gt;0 -->
<g id="edge8" class="edge">
<title>7&#45;&gt;0</title>
<path fill="none" stroke="black" d="M1030.43,-92.36C964.91,-76.84 849.11,-49.43 779.14,-32.86"/>
<polygon fill="black" stroke="black" points="779.7,-29.4 769.17,-30.5 778.09,-36.21 779.7,-29.4"/>
<text text-anchor="middle" x="937.1" y="-57.8" font-family="Times New Roman,serif" font-size="14.00">0.036</text>
</g>
<!-- 8 -->
<g id="node9" class="node">
<title>8</title>
<g id="a_node9"><a xlink:href="to_civil engineer.svg" xlink:title="civil engineer">
<ellipse fill="none" stroke="black" cx="1224.6" cy="-105" rx="57.69" ry="18"/>
<text text-anchor="middle" x="1224.6" y="-101.3" font-family="Times New Roman,serif" font-size="14.00">civil engineer</text>
</a>
</g>
</g>
<!-- 8&#45;&gt;0 -->
<g id="edge9" class="edge">
<title>8&#45;&gt;0</title>
<path fill="none" stroke="black" d="M1182.19,-92.66C1174.06,-90.65 1165.58,-88.67 1157.6,-87 1028.9,-60.16 876.87,-38.8 790.29,-27.6"/>
<polygon fill="black" stroke="black" points="790.68,-24.12 780.32,-26.32 789.79,-31.07 790.68,-24.12"/>
<text text-anchor="middle" x="1077.1" y="-57.8" font-family="Times New Roman,serif" font-size="14.00">0.024</text>
</g>
<!-- 9 -->
<g id="node10" class="node">
<title>9</title>
<g id="a_node10"><a xlink:href="to_education administrator.svg" xlink:title="education administrator">
<ellipse fill="none" stroke="black" cx="1395.6" cy="-105" rx="95.58" ry="18"/>
<text text-anchor="middle" x="1395.6" y="-101.3" font-family="Times New Roman,serif" font-size="14.00">education administrator</text>
</a>
</g>
</g>
<!-- 9&#45;&gt;0 -->
<g id="edge10" class="edge">
<title>9&#45;&gt;0</title>
<path fill="none" stroke="black" d="M1330.76,-91.76C1270.34,-80.68 1177.62,-64.53 1096.6,-54 992.28,-40.44 871.02,-30.13 795.04,-24.32"/>
<polygon fill="black" stroke="black" points="794.86,-20.8 784.62,-23.53 794.33,-27.78 794.86,-20.8"/>
<text text-anchor="middle" x="1210.1" y="-57.8" font-family="Times New Roman,serif" font-size="14.00">0.024</text>
</g>
</g>
</svg>
