<?xml version="1.0" encoding="UTF-8" standalone="no"?>
<!DOCTYPE svg PUBLIC "-//W3C//DTD SVG 1.1//EN"
 "http://www.w3.org/Graphics/SVG/1.1/DTD/svg11.dtd">
<!-- Generated by graphviz version 2.44.1 (20200629.0800)
 -->
<!-- Title: test Pages: 1 -->
<svg width="1491pt" height="131pt"
 viewBox="0.00 0.00 1490.64 131.00" xmlns="http://www.w3.org/2000/svg" xmlns:xlink="http://www.w3.org/1999/xlink">
<g id="graph0" class="graph" transform="scale(1 1) rotate(0) translate(4 127)">
<title>test</title>
<polygon fill="white" stroke="transparent" points="-4,4 -4,-127 1486.64,-127 1486.64,4 -4,4"/>
<!-- 0 -->
<g id="node1" class="node">
<title>0</title>
<g id="a_node1"><a xlink:href="to_mechanical engineer.svg" xlink:title="mechanical engineer">
<ellipse fill="none" stroke="black" cx="707.84" cy="-18" rx="83.39" ry="18"/>
<text text-anchor="middle" x="707.84" y="-14.3" font-family="Times New Roman,serif" font-size="14.00">mechanical engineer</text>
</a>
</g>
</g>
<!-- 0&#45;&gt;0 -->
<g id="edge1" class="edge">
<title>0&#45;&gt;0</title>
<path fill="none" stroke="black" d="M783.75,-25.52C798.54,-24.65 809.04,-22.14 809.04,-18 809.04,-14.89 803.13,-12.71 793.94,-11.44"/>
<polygon fill="black" stroke="black" points="794.03,-7.93 783.75,-10.48 793.38,-14.9 794.03,-7.93"/>
<text text-anchor="middle" x="824.54" y="-14.3" font-family="Times New Roman,serif" font-size="14.00">0.296</text>
</g>
<!-- 1 -->
<g id="node2" class="node">
<title>1</title>
<g id="a_node2"><a xlink:href="to_civil engineer.svg" xlink:title="civil engineer">
<ellipse fill="none" stroke="black" cx="57.84" cy="-105" rx="57.69" ry="18"/>
<text text-anchor="middle" x="57.84" y="-101.3" font-family="Times New Roman,serif" font-size="14.00">civil engineer</text>
</a>
</g>
</g>
<!-- 1&#45;&gt;0 -->
<g id="edge2" class="edge">
<title>1&#45;&gt;0</title>
<path fill="none" stroke="black" d="M99.97,-92.6C107.88,-90.61 116.09,-88.66 123.84,-87 208.94,-68.8 230.55,-65.22 316.84,-54 420.17,-40.56 539.54,-30.69 618.93,-24.92"/>
<polygon fill="black" stroke="black" points="619.66,-28.38 629.38,-24.17 619.15,-21.4 619.66,-28.38"/>
<text text-anchor="middle" x="332.34" y="-57.8" font-family="Times New Roman,serif" font-size="14.00">0.049</text>
</g>
<!-- 2 -->
<g id="node3" class="node">
<title>2</title>
<g id="a_node3"><a xlink:href="to_it consultant.svg" xlink:title="it consultant">
<ellipse fill="none" stroke="black" cx="187.84" cy="-105" rx="54.69" ry="18"/>
<text text-anchor="middle" x="187.84" y="-101.3" font-family="Times New Roman,serif" font-size="14.00">it consultant</text>
</a>
</g>
</g>
<!-- 2&#45;&gt;0 -->
<g id="edge3" class="edge">
<title>2&#45;&gt;0</title>
<path fill="none" stroke="black" d="M227.97,-92.61C235.85,-90.58 244.08,-88.61 251.84,-87 381.61,-60.18 534.23,-39.61 625.88,-28.42"/>
<polygon fill="black" stroke="black" points="626.42,-31.88 635.93,-27.21 625.58,-24.93 626.42,-31.88"/>
<text text-anchor="middle" x="454.34" y="-57.8" font-family="Times New Roman,serif" font-size="14.00">0.038</text>
</g>
<!-- 3 -->
<g id="node4" class="node">
<title>3</title>
<g id="a_node4"><a xlink:href="to_manufacturing engineer.svg" xlink:title="manufacturing engineer">
<ellipse fill="none" stroke="black" cx="354.84" cy="-105" rx="94.48" ry="18"/>
<text text-anchor="middle" x="354.84" y="-101.3" font-family="Times New Roman,serif" font-size="14.00">manufacturing engineer</text>
</a>
</g>
</g>
<!-- 3&#45;&gt;0 -->
<g id="edge4" class="edge">
<title>3&#45;&gt;0</title>
<path fill="none" stroke="black" d="M411.17,-90.44C474.77,-75.12 578.01,-50.26 644.4,-34.28"/>
<polygon fill="black" stroke="black" points="645.42,-37.63 654.32,-31.89 643.78,-30.83 645.42,-37.63"/>
<text text-anchor="middle" x="568.34" y="-57.8" font-family="Times New Roman,serif" font-size="14.00">0.038</text>
</g>
<!-- 4 -->
<g id="node5" class="node">
<title>4</title>
<g id="a_node5"><a xlink:href="to_structural engineer.svg" xlink:title="structural engineer">
<ellipse fill="none" stroke="black" cx="543.84" cy="-105" rx="76.89" ry="18"/>
<text text-anchor="middle" x="543.84" y="-101.3" font-family="Times New Roman,serif" font-size="14.00">structural engineer</text>
</a>
</g>
</g>
<!-- 4&#45;&gt;0 -->
<g id="edge5" class="edge">
<title>4&#45;&gt;0</title>
<path fill="none" stroke="black" d="M573.92,-88.41C600.46,-74.66 639.32,-54.52 668.35,-39.47"/>
<polygon fill="black" stroke="black" points="670.13,-42.49 677.4,-34.78 666.91,-36.27 670.13,-42.49"/>
<text text-anchor="middle" x="651.34" y="-57.8" font-family="Times New Roman,serif" font-size="14.00">0.038</text>
</g>
<!-- 5 -->
<g id="node6" class="node">
<title>5</title>
<g id="a_node6"><a xlink:href="to_project manager.svg" xlink:title="project manager">
<ellipse fill="none" stroke="black" cx="707.84" cy="-105" rx="68.79" ry="18"/>
<text text-anchor="middle" x="707.84" y="-101.3" font-family="Times New Roman,serif" font-size="14.00">project manager</text>
</a>
</g>
</g>
<!-- 5&#45;&gt;0 -->
<g id="edge6" class="edge">
<title>5&#45;&gt;0</title>
<path fill="none" stroke="black" d="M707.84,-86.8C707.84,-75.16 707.84,-59.55 707.84,-46.24"/>
<polygon fill="black" stroke="black" points="711.34,-46.18 707.84,-36.18 704.34,-46.18 711.34,-46.18"/>
<text text-anchor="middle" x="723.34" y="-57.8" font-family="Times New Roman,serif" font-size="14.00">0.031</text>
</g>
<!-- 6 -->
<g id="node7" class="node">
<title>6</title>
<g id="a_node7"><a xlink:href="to_software developer.svg" xlink:title="software developer">
<ellipse fill="none" stroke="black" cx="874.84" cy="-105" rx="79.89" ry="18"/>
<text text-anchor="middle" x="874.84" y="-101.3" font-family="Times New Roman,serif" font-size="14.00">software developer</text>
</a>
</g>
</g>
<!-- 6&#45;&gt;0 -->
<g id="edge7" class="edge">
<title>6&#45;&gt;0</title>
<path fill="none" stroke="black" d="M843.82,-88.21C816.84,-74.48 777.57,-54.49 748.16,-39.52"/>
<polygon fill="black" stroke="black" points="749.48,-36.26 738.98,-34.85 746.31,-42.5 749.48,-36.26"/>
<text text-anchor="middle" x="817.34" y="-57.8" font-family="Times New Roman,serif" font-size="14.00">0.031</text>
</g>
<!-- 7 -->
<g id="node8" class="node">
<title>7</title>
<g id="a_node8"><a xlink:href="to_electrical engineer.svg" xlink:title="electrical engineer">
<ellipse fill="none" stroke="black" cx="1047.84" cy="-105" rx="74.99" ry="18"/>
<text text-anchor="middle" x="1047.84" y="-101.3" font-family="Times New Roman,serif" font-size="14.00">electrical engineer</text>
</a>
</g>
</g>
<!-- 7&#45;&gt;0 -->
<g id="edge8" class="edge">
<title>7&#45;&gt;0</title>
<path fill="none" stroke="black" d="M998.04,-91.55C937.51,-76.42 835.36,-50.88 769.81,-34.49"/>
<polygon fill="black" stroke="black" points="770.57,-31.07 760.02,-32.04 768.87,-37.86 770.57,-31.07"/>
<text text-anchor="middle" x="914.34" y="-57.8" font-family="Times New Roman,serif" font-size="14.00">0.028</text>
</g>
<!-- 8 -->
<g id="node9" class="node">
<title>8</title>
<g id="a_node9"><a xlink:href="to_network administrator.svg" xlink:title="network administrator">
<ellipse fill="none" stroke="black" cx="1229.84" cy="-105" rx="89.88" ry="18"/>
<text text-anchor="middle" x="1229.84" y="-101.3" font-family="Times New Roman,serif" font-size="14.00">network administrator</text>
</a>
</g>
</g>
<!-- 8&#45;&gt;0 -->
<g id="edge9" class="edge">
<title>8&#45;&gt;0</title>
<path fill="none" stroke="black" d="M1164.49,-92.6C1153.59,-90.72 1142.4,-88.79 1131.84,-87 1043.89,-72.04 1021.93,-68.16 933.84,-54 884.02,-45.99 827.96,-37.31 784.14,-30.59"/>
<polygon fill="black" stroke="black" points="784.55,-27.11 774.13,-29.06 783.49,-34.03 784.55,-27.11"/>
<text text-anchor="middle" x="1038.34" y="-57.8" font-family="Times New Roman,serif" font-size="14.00">0.028</text>
</g>
<!-- 9 -->
<g id="node10" class="node">
<title>9</title>
<g id="a_node10"><a xlink:href="to_research scientist.svg" xlink:title="research scientist">
<ellipse fill="none" stroke="black" cx="1409.84" cy="-105" rx="72.59" ry="18"/>
<text text-anchor="middle" x="1409.84" y="-101.3" font-family="Times New Roman,serif" font-size="14.00">research scientist</text>
</a>
</g>
</g>
<!-- 9&#45;&gt;0 -->
<g id="edge10" class="edge">
<title>9&#45;&gt;0</title>
<path fill="none" stroke="black" d="M1357.68,-92.37C1348.12,-90.43 1338.2,-88.55 1328.84,-87 1139.88,-55.72 916.1,-35.24 795.46,-25.54"/>
<polygon fill="black" stroke="black" points="795.43,-22.03 785.18,-24.72 794.87,-29 795.43,-22.03"/>
<text text-anchor="middle" x="1208.34" y="-57.8" font-family="Times New Roman,serif" font-size="14.00">0.024</text>
</g>
</g>
</svg>
