<?xml version="1.0" encoding="UTF-8" standalone="no"?>
<!DOCTYPE svg PUBLIC "-//W3C//DTD SVG 1.1//EN"
 "http://www.w3.org/Graphics/SVG/1.1/DTD/svg11.dtd">
<!-- Generated by graphviz version 2.44.1 (20200629.0800)
 -->
<!-- Title: test Pages: 1 -->
<svg width="1603pt" height="131pt"
 viewBox="0.00 0.00 1603.39 131.00" xmlns="http://www.w3.org/2000/svg" xmlns:xlink="http://www.w3.org/1999/xlink">
<g id="graph0" class="graph" transform="scale(1 1) rotate(0) translate(4 127)">
<title>test</title>
<polygon fill="white" stroke="transparent" points="-4,4 -4,-127 1599.39,-127 1599.39,4 -4,4"/>
<!-- 0 -->
<g id="node1" class="node">
<title>0</title>
<g id="a_node1"><a xlink:href="to_lecturer.svg" xlink:title="lecturer">
<ellipse fill="none" stroke="black" cx="37.7" cy="-105" rx="37.89" ry="18"/>
<text text-anchor="middle" x="37.7" y="-101.3" font-family="Times New Roman,serif" font-size="14.00">lecturer</text>
</a>
</g>
</g>
<!-- 1 -->
<g id="node2" class="node">
<title>1</title>
<g id="a_node2"><a xlink:href="to_museum education officer.svg" xlink:title="museum education officer">
<ellipse fill="none" stroke="black" cx="758.7" cy="-18" rx="104.78" ry="18"/>
<text text-anchor="middle" x="758.7" y="-14.3" font-family="Times New Roman,serif" font-size="14.00">museum education officer</text>
</a>
</g>
</g>
<!-- 0&#45;&gt;1 -->
<g id="edge1" class="edge">
<title>0&#45;&gt;1</title>
<path fill="none" stroke="black" d="M65.62,-92.62C71.52,-90.52 77.76,-88.51 83.7,-87 182.5,-61.86 209.38,-65.31 310.7,-54 426.9,-41.03 560.6,-31.25 651.48,-25.37"/>
<polygon fill="black" stroke="black" points="651.76,-28.86 661.52,-24.72 651.31,-21.87 651.76,-28.86"/>
<text text-anchor="middle" x="326.2" y="-57.8" font-family="Times New Roman,serif" font-size="14.00">0.117</text>
</g>
<!-- 1&#45;&gt;1 -->
<g id="edge9" class="edge">
<title>1&#45;&gt;1</title>
<path fill="none" stroke="black" d="M854.34,-25.32C870.31,-24.3 881.34,-21.86 881.34,-18 881.34,-15.02 874.74,-12.88 864.36,-11.59"/>
<polygon fill="black" stroke="black" points="864.61,-8.1 854.34,-10.68 863.98,-15.07 864.61,-8.1"/>
<text text-anchor="middle" x="896.84" y="-14.3" font-family="Times New Roman,serif" font-size="14.00">0.058</text>
</g>
<!-- 2 -->
<g id="node3" class="node">
<title>2</title>
<g id="a_node3"><a xlink:href="to_aromatherapist.svg" xlink:title="aromatherapist">
<ellipse fill="none" stroke="black" cx="156.7" cy="-105" rx="63.89" ry="18"/>
<text text-anchor="middle" x="156.7" y="-101.3" font-family="Times New Roman,serif" font-size="14.00">aromatherapist</text>
</a>
</g>
</g>
<!-- 2&#45;&gt;1 -->
<g id="edge2" class="edge">
<title>2&#45;&gt;1</title>
<path fill="none" stroke="black" d="M202.89,-92.5C211.76,-90.5 220.99,-88.57 229.7,-87 378.67,-60.15 553.1,-39.86 659.72,-28.7"/>
<polygon fill="black" stroke="black" points="660.24,-32.17 669.83,-27.65 659.52,-25.21 660.24,-32.17"/>
<text text-anchor="middle" x="448.2" y="-57.8" font-family="Times New Roman,serif" font-size="14.00">0.058</text>
</g>
<!-- 3 -->
<g id="node4" class="node">
<title>3</title>
<g id="a_node4"><a xlink:href="to_community education officer.svg" xlink:title="community education officer">
<ellipse fill="none" stroke="black" cx="353.7" cy="-105" rx="115.08" ry="18"/>
<text text-anchor="middle" x="353.7" y="-101.3" font-family="Times New Roman,serif" font-size="14.00">community education officer</text>
</a>
</g>
</g>
<!-- 3&#45;&gt;1 -->
<g id="edge3" class="edge">
<title>3&#45;&gt;1</title>
<path fill="none" stroke="black" d="M419.67,-90.15C492.5,-74.87 609.42,-50.33 685.15,-34.44"/>
<polygon fill="black" stroke="black" points="686.02,-37.83 695.09,-32.35 684.59,-30.98 686.02,-37.83"/>
<text text-anchor="middle" x="596.2" y="-57.8" font-family="Times New Roman,serif" font-size="14.00">0.058</text>
</g>
<!-- 4 -->
<g id="node5" class="node">
<title>4</title>
<g id="a_node5"><a xlink:href="to_corporate treasurer.svg" xlink:title="corporate treasurer">
<ellipse fill="none" stroke="black" cx="565.7" cy="-105" rx="79.09" ry="18"/>
<text text-anchor="middle" x="565.7" y="-101.3" font-family="Times New Roman,serif" font-size="14.00">corporate treasurer</text>
</a>
</g>
</g>
<!-- 4&#45;&gt;1 -->
<g id="edge4" class="edge">
<title>4&#45;&gt;1</title>
<path fill="none" stroke="black" d="M600.65,-88.61C632.12,-74.74 678.59,-54.28 713,-39.12"/>
<polygon fill="black" stroke="black" points="714.63,-42.23 722.37,-35 711.8,-35.83 714.63,-42.23"/>
<text text-anchor="middle" x="690.2" y="-57.8" font-family="Times New Roman,serif" font-size="14.00">0.058</text>
</g>
<!-- 5 -->
<g id="node6" class="node">
<title>5</title>
<g id="a_node6"><a xlink:href="to_education administrator.svg" xlink:title="education administrator">
<ellipse fill="none" stroke="black" cx="758.7" cy="-105" rx="95.58" ry="18"/>
<text text-anchor="middle" x="758.7" y="-101.3" font-family="Times New Roman,serif" font-size="14.00">education administrator</text>
</a>
</g>
</g>
<!-- 5&#45;&gt;1 -->
<g id="edge5" class="edge">
<title>5&#45;&gt;1</title>
<path fill="none" stroke="black" d="M758.7,-86.8C758.7,-75.16 758.7,-59.55 758.7,-46.24"/>
<polygon fill="black" stroke="black" points="762.2,-46.18 758.7,-36.18 755.2,-46.18 762.2,-46.18"/>
<text text-anchor="middle" x="774.2" y="-57.8" font-family="Times New Roman,serif" font-size="14.00">0.058</text>
</g>
<!-- 6 -->
<g id="node7" class="node">
<title>6</title>
<g id="a_node7"><a xlink:href="to_fitness centre manager.svg" xlink:title="fitness centre manager">
<ellipse fill="none" stroke="black" cx="963.7" cy="-105" rx="90.98" ry="18"/>
<text text-anchor="middle" x="963.7" y="-101.3" font-family="Times New Roman,serif" font-size="14.00">fitness centre manager</text>
</a>
</g>
</g>
<!-- 6&#45;&gt;1 -->
<g id="edge6" class="edge">
<title>6&#45;&gt;1</title>
<path fill="none" stroke="black" d="M926.1,-88.41C892.35,-74.42 842.67,-53.82 806.19,-38.69"/>
<polygon fill="black" stroke="black" points="807.33,-35.38 796.75,-34.78 804.65,-41.84 807.33,-35.38"/>
<text text-anchor="middle" x="889.2" y="-57.8" font-family="Times New Roman,serif" font-size="14.00">0.058</text>
</g>
<!-- 7 -->
<g id="node8" class="node">
<title>7</title>
<g id="a_node8"><a xlink:href="to_health and safety adviser.svg" xlink:title="health and safety adviser">
<ellipse fill="none" stroke="black" cx="1171.7" cy="-105" rx="99.38" ry="18"/>
<text text-anchor="middle" x="1171.7" y="-101.3" font-family="Times New Roman,serif" font-size="14.00">health and safety adviser</text>
</a>
</g>
</g>
<!-- 7&#45;&gt;1 -->
<g id="edge7" class="edge">
<title>7&#45;&gt;1</title>
<path fill="none" stroke="black" d="M1108.52,-91C1034.41,-75.75 911.7,-50.49 833.07,-34.31"/>
<polygon fill="black" stroke="black" points="833.73,-30.87 823.23,-32.28 832.32,-37.72 833.73,-30.87"/>
<text text-anchor="middle" x="1006.2" y="-57.8" font-family="Times New Roman,serif" font-size="14.00">0.058</text>
</g>
<!-- 8 -->
<g id="node9" class="node">
<title>8</title>
<g id="a_node9"><a xlink:href="to_it consultant.svg" xlink:title="it consultant">
<ellipse fill="none" stroke="black" cx="1343.7" cy="-105" rx="54.69" ry="18"/>
<text text-anchor="middle" x="1343.7" y="-101.3" font-family="Times New Roman,serif" font-size="14.00">it consultant</text>
</a>
</g>
</g>
<!-- 8&#45;&gt;1 -->
<g id="edge8" class="edge">
<title>8&#45;&gt;1</title>
<path fill="none" stroke="black" d="M1303.94,-92.58C1295.95,-90.53 1287.59,-88.56 1279.7,-87 1134.69,-58.4 964.54,-38.77 859.16,-28.2"/>
<polygon fill="black" stroke="black" points="859.46,-24.72 849.16,-27.21 858.77,-31.68 859.46,-24.72"/>
<text text-anchor="middle" x="1181.2" y="-57.8" font-family="Times New Roman,serif" font-size="14.00">0.058</text>
</g>
<!-- 9 -->
<g id="node10" class="node">
<title>9</title>
<g id="a_node10"><a xlink:href="to_network administrator.svg" xlink:title="network administrator">
<ellipse fill="none" stroke="black" cx="1505.7" cy="-105" rx="89.88" ry="18"/>
<text text-anchor="middle" x="1505.7" y="-101.3" font-family="Times New Roman,serif" font-size="14.00">network administrator</text>
</a>
</g>
</g>
<!-- 9&#45;&gt;1 -->
<g id="edge10" class="edge">
<title>9&#45;&gt;1</title>
<path fill="none" stroke="black" d="M1440.62,-92.58C1429.63,-90.69 1418.34,-88.77 1407.7,-87 1315.8,-71.7 1293.2,-65.02 1200.7,-54 1086.99,-40.46 956.17,-30.83 866.53,-25.15"/>
<polygon fill="black" stroke="black" points="866.55,-21.64 856.35,-24.51 866.11,-28.63 866.55,-21.64"/>
<text text-anchor="middle" x="1319.2" y="-57.8" font-family="Times New Roman,serif" font-size="14.00">0.058</text>
</g>
</g>
</svg>
