<?xml version="1.0" encoding="UTF-8" standalone="no"?>
<!DOCTYPE svg PUBLIC "-//W3C//DTD SVG 1.1//EN"
 "http://www.w3.org/Graphics/SVG/1.1/DTD/svg11.dtd">
<!-- Generated by graphviz version 2.44.1 (20200629.0800)
 -->
<!-- Title: museum_exhibition_officer Pages: 1 -->
<svg width="1895pt" height="131pt"
 viewBox="0.00 0.00 1895.08 131.00" xmlns="http://www.w3.org/2000/svg" xmlns:xlink="http://www.w3.org/1999/xlink">
<g id="graph0" class="graph" transform="scale(1 1) rotate(0) translate(4 127)">
<title>museum_exhibition_officer</title>
<polygon fill="white" stroke="transparent" points="-4,4 -4,-127 1891.08,-127 1891.08,4 -4,4"/>
<!-- 0 -->
<g id="node1" class="node">
<title>0</title>
<g id="a_node1"><a xlink:href="to_project manager.svg" xlink:title="project manager">
<ellipse fill="none" stroke="black" cx="68.89" cy="-105" rx="68.79" ry="18"/>
<text text-anchor="middle" x="68.89" y="-101.3" font-family="Times New Roman,serif" font-size="14.00">project manager</text>
</a>
</g>
</g>
<!-- 1 -->
<g id="node2" class="node">
<title>1</title>
<g id="a_node2"><a xlink:href="to_museum exhibition officer.svg" xlink:title="museum exhibition officer">
<ellipse fill="none" stroke="black" cx="833.89" cy="-18" rx="104.78" ry="18"/>
<text text-anchor="middle" x="833.89" y="-14.3" font-family="Times New Roman,serif" font-size="14.00">museum exhibition officer</text>
</a>
</g>
</g>
<!-- 0&#45;&gt;1 -->
<g id="edge1" class="edge">
<title>0&#45;&gt;1</title>
<path fill="none" stroke="black" d="M118.71,-92.5C128.05,-90.53 137.75,-88.6 146.89,-87 349.6,-51.49 589.44,-33.02 725.42,-24.71"/>
<polygon fill="black" stroke="black" points="725.66,-28.2 735.43,-24.11 725.23,-21.22 725.66,-28.2"/>
<text text-anchor="middle" x="388.39" y="-57.8" font-family="Times New Roman,serif" font-size="14.00">0.130</text>
</g>
<!-- 2 -->
<g id="node3" class="node">
<title>2</title>
<g id="a_node3"><a xlink:href="to_academic librarian.svg" xlink:title="academic librarian">
<ellipse fill="none" stroke="black" cx="231.89" cy="-105" rx="76.09" ry="18"/>
<text text-anchor="middle" x="231.89" y="-101.3" font-family="Times New Roman,serif" font-size="14.00">academic librarian</text>
</a>
</g>
</g>
<!-- 2&#45;&gt;1 -->
<g id="edge2" class="edge">
<title>2&#45;&gt;1</title>
<path fill="none" stroke="black" d="M287.14,-92.53C297.03,-90.6 307.26,-88.68 316.89,-87 462.55,-61.67 632.77,-40.99 736.93,-29.33"/>
<polygon fill="black" stroke="black" points="737.57,-32.78 747.12,-28.19 736.79,-25.82 737.57,-32.78"/>
<text text-anchor="middle" x="545.39" y="-57.8" font-family="Times New Roman,serif" font-size="14.00">0.043</text>
</g>
<!-- 3 -->
<g id="node4" class="node">
<title>3</title>
<g id="a_node4"><a xlink:href="to_advertising copywriter.svg" xlink:title="advertising copywriter">
<ellipse fill="none" stroke="black" cx="416.89" cy="-105" rx="90.98" ry="18"/>
<text text-anchor="middle" x="416.89" y="-101.3" font-family="Times New Roman,serif" font-size="14.00">advertising copywriter</text>
</a>
</g>
</g>
<!-- 3&#45;&gt;1 -->
<g id="edge3" class="edge">
<title>3&#45;&gt;1</title>
<path fill="none" stroke="black" d="M473.43,-90.89C519.07,-80.45 584.99,-65.71 642.89,-54 678.98,-46.7 719.04,-39.26 753.12,-33.13"/>
<polygon fill="black" stroke="black" points="753.8,-36.56 763.02,-31.35 752.56,-29.67 753.8,-36.56"/>
<text text-anchor="middle" x="658.39" y="-57.8" font-family="Times New Roman,serif" font-size="14.00">0.043</text>
</g>
<!-- 4 -->
<g id="node5" class="node">
<title>4</title>
<g id="a_node5"><a xlink:href="to_animator.svg" xlink:title="animator">
<ellipse fill="none" stroke="black" cx="567.89" cy="-105" rx="42.49" ry="18"/>
<text text-anchor="middle" x="567.89" y="-101.3" font-family="Times New Roman,serif" font-size="14.00">animator</text>
</a>
</g>
</g>
<!-- 4&#45;&gt;1 -->
<g id="edge4" class="edge">
<title>4&#45;&gt;1</title>
<path fill="none" stroke="black" d="M599.97,-93.22C606.24,-91.14 612.77,-88.99 618.89,-87 671.92,-69.78 732.48,-50.67 775.79,-37.11"/>
<polygon fill="black" stroke="black" points="777.08,-40.37 785.58,-34.05 774.99,-33.69 777.08,-40.37"/>
<text text-anchor="middle" x="735.39" y="-57.8" font-family="Times New Roman,serif" font-size="14.00">0.043</text>
</g>
<!-- 5 -->
<g id="node6" class="node">
<title>5</title>
<g id="a_node6"><a xlink:href="to_broadcasting presenter.svg" xlink:title="broadcasting presenter">
<ellipse fill="none" stroke="black" cx="720.89" cy="-105" rx="92.88" ry="18"/>
<text text-anchor="middle" x="720.89" y="-101.3" font-family="Times New Roman,serif" font-size="14.00">broadcasting presenter</text>
</a>
</g>
</g>
<!-- 5&#45;&gt;1 -->
<g id="edge5" class="edge">
<title>5&#45;&gt;1</title>
<path fill="none" stroke="black" d="M742.95,-87.41C760.18,-74.45 784.33,-56.28 803.41,-41.93"/>
<polygon fill="black" stroke="black" points="805.62,-44.65 811.51,-35.84 801.41,-39.05 805.62,-44.65"/>
<text text-anchor="middle" x="800.39" y="-57.8" font-family="Times New Roman,serif" font-size="14.00">0.043</text>
</g>
<!-- 6 -->
<g id="node7" class="node">
<title>6</title>
<g id="a_node7"><a xlink:href="to_community education officer.svg" xlink:title="community education officer">
<ellipse fill="none" stroke="black" cx="946.89" cy="-105" rx="115.08" ry="18"/>
<text text-anchor="middle" x="946.89" y="-101.3" font-family="Times New Roman,serif" font-size="14.00">community education officer</text>
</a>
</g>
</g>
<!-- 6&#45;&gt;1 -->
<g id="edge6" class="edge">
<title>6&#45;&gt;1</title>
<path fill="none" stroke="black" d="M924.57,-87.21C907.31,-74.23 883.24,-56.12 864.24,-41.83"/>
<polygon fill="black" stroke="black" points="866.27,-38.97 856.17,-35.76 862.06,-44.57 866.27,-38.97"/>
<text text-anchor="middle" x="913.39" y="-57.8" font-family="Times New Roman,serif" font-size="14.00">0.043</text>
</g>
<!-- 7 -->
<g id="node8" class="node">
<title>7</title>
<g id="a_node8"><a xlink:href="to_conference organiser.svg" xlink:title="conference organiser">
<ellipse fill="none" stroke="black" cx="1165.89" cy="-105" rx="86.38" ry="18"/>
<text text-anchor="middle" x="1165.89" y="-101.3" font-family="Times New Roman,serif" font-size="14.00">conference organiser</text>
</a>
</g>
</g>
<!-- 7&#45;&gt;1 -->
<g id="edge7" class="edge">
<title>7&#45;&gt;1</title>
<path fill="none" stroke="black" d="M1113.65,-90.63C1055.76,-75.8 962.3,-51.87 899.51,-35.8"/>
<polygon fill="black" stroke="black" points="900.26,-32.38 889.71,-33.29 898.53,-39.16 900.26,-32.38"/>
<text text-anchor="middle" x="1035.39" y="-57.8" font-family="Times New Roman,serif" font-size="14.00">0.043</text>
</g>
<!-- 8 -->
<g id="node9" class="node">
<title>8</title>
<g id="a_node9"><a xlink:href="to_education administrator.svg" xlink:title="education administrator">
<ellipse fill="none" stroke="black" cx="1365.89" cy="-105" rx="95.58" ry="18"/>
<text text-anchor="middle" x="1365.89" y="-101.3" font-family="Times New Roman,serif" font-size="14.00">education administrator</text>
</a>
</g>
</g>
<!-- 8&#45;&gt;1 -->
<g id="edge8" class="edge">
<title>8&#45;&gt;1</title>
<path fill="none" stroke="black" d="M1296.14,-92.69C1284.38,-90.79 1272.29,-88.84 1260.89,-87 1169.35,-72.26 1146.46,-68.59 1054.89,-54 1009.71,-46.8 959.32,-38.82 918.08,-32.3"/>
<polygon fill="black" stroke="black" points="918.49,-28.82 908.07,-30.71 917.4,-35.73 918.49,-28.82"/>
<text text-anchor="middle" x="1163.39" y="-57.8" font-family="Times New Roman,serif" font-size="14.00">0.043</text>
</g>
<!-- 9 -->
<g id="node10" class="node">
<title>9</title>
<g id="a_node10"><a xlink:href="to_facilities manager.svg" xlink:title="facilities manager">
<ellipse fill="none" stroke="black" cx="1551.89" cy="-105" rx="72.59" ry="18"/>
<text text-anchor="middle" x="1551.89" y="-101.3" font-family="Times New Roman,serif" font-size="14.00">facilities manager</text>
</a>
</g>
</g>
<!-- 9&#45;&gt;1 -->
<g id="edge9" class="edge">
<title>9&#45;&gt;1</title>
<path fill="none" stroke="black" d="M1499.74,-92.31C1490.17,-90.38 1480.26,-88.52 1470.89,-87 1284.36,-56.81 1064.85,-36.74 938.29,-26.66"/>
<polygon fill="black" stroke="black" points="938.46,-23.16 928.22,-25.86 937.91,-30.14 938.46,-23.16"/>
<text text-anchor="middle" x="1347.39" y="-57.8" font-family="Times New Roman,serif" font-size="14.00">0.043</text>
</g>
<!-- 10 -->
<g id="node11" class="node">
<title>10</title>
<g id="a_node11"><a xlink:href="to_local government administrator.svg" xlink:title="local government administrator">
<ellipse fill="none" stroke="black" cx="1764.89" cy="-105" rx="122.38" ry="18"/>
<text text-anchor="middle" x="1764.89" y="-101.3" font-family="Times New Roman,serif" font-size="14.00">local government administrator</text>
</a>
</g>
</g>
<!-- 10&#45;&gt;1 -->
<g id="edge10" class="edge">
<title>10&#45;&gt;1</title>
<path fill="none" stroke="black" d="M1676.82,-92.5C1662.48,-90.64 1647.77,-88.76 1633.89,-87 1515.27,-71.97 1485.93,-65.26 1366.89,-54 1220.66,-40.17 1051.35,-30.06 943.49,-24.35"/>
<polygon fill="black" stroke="black" points="943.42,-20.85 933.25,-23.82 943.05,-27.84 943.42,-20.85"/>
<text text-anchor="middle" x="1511.39" y="-57.8" font-family="Times New Roman,serif" font-size="14.00">0.043</text>
</g>
</g>
</svg>
