<?xml version="1.0" encoding="UTF-8" standalone="no"?>
<!DOCTYPE svg PUBLIC "-//W3C//DTD SVG 1.1//EN"
 "http://www.w3.org/Graphics/SVG/1.1/DTD/svg11.dtd">
<!-- Generated by graphviz version 2.44.1 (20200629.0800)
 -->
<!-- Title: network_administrator Pages: 1 -->
<svg width="1780pt" height="131pt"
 viewBox="0.00 0.00 1779.88 131.00" xmlns="http://www.w3.org/2000/svg" xmlns:xlink="http://www.w3.org/1999/xlink">
<g id="graph0" class="graph" transform="scale(1 1) rotate(0) translate(4 127)">
<title>network_administrator</title>
<polygon fill="white" stroke="transparent" points="-4,4 -4,-127 1775.88,-127 1775.88,4 -4,4"/>
<!-- 0 -->
<g id="node1" class="node">
<title>0</title>
<g id="a_node1"><a xlink:href="to_network administrator.svg" xlink:title="network administrator">
<ellipse fill="none" stroke="black" cx="769.19" cy="-18" rx="89.88" ry="18"/>
<text text-anchor="middle" x="769.19" y="-14.3" font-family="Times New Roman,serif" font-size="14.00">network administrator</text>
</a>
</g>
</g>
<!-- 0&#45;&gt;0 -->
<g id="edge1" class="edge">
<title>0&#45;&gt;0</title>
<path fill="none" stroke="black" d="M850.9,-25.47C866.15,-24.55 876.88,-22.06 876.88,-18 876.88,-14.92 870.72,-12.75 861.1,-11.47"/>
<polygon fill="black" stroke="black" points="861.18,-7.97 850.9,-10.53 860.54,-14.94 861.18,-7.97"/>
<text text-anchor="middle" x="892.38" y="-14.3" font-family="Times New Roman,serif" font-size="14.00">0.293</text>
</g>
<!-- 1 -->
<g id="node2" class="node">
<title>1</title>
<g id="a_node2"><a xlink:href="to_computer sales support.svg" xlink:title="computer sales support">
<ellipse fill="none" stroke="black" cx="96.19" cy="-105" rx="96.38" ry="18"/>
<text text-anchor="middle" x="96.19" y="-101.3" font-family="Times New Roman,serif" font-size="14.00">computer sales support</text>
</a>
</g>
</g>
<!-- 1&#45;&gt;0 -->
<g id="edge2" class="edge">
<title>1&#45;&gt;0</title>
<path fill="none" stroke="black" d="M160.57,-91.54C219.79,-80.43 310.14,-64.37 389.19,-54 486.63,-41.22 598.74,-31.5 675.8,-25.58"/>
<polygon fill="black" stroke="black" points="676.26,-29.06 685.96,-24.81 675.73,-22.08 676.26,-29.06"/>
<text text-anchor="middle" x="404.69" y="-57.8" font-family="Times New Roman,serif" font-size="14.00">0.053</text>
</g>
<!-- 2 -->
<g id="node3" class="node">
<title>2</title>
<g id="a_node3"><a xlink:href="to_it consultant.svg" xlink:title="it consultant">
<ellipse fill="none" stroke="black" cx="265.19" cy="-105" rx="54.69" ry="18"/>
<text text-anchor="middle" x="265.19" y="-101.3" font-family="Times New Roman,serif" font-size="14.00">it consultant</text>
</a>
</g>
</g>
<!-- 2&#45;&gt;0 -->
<g id="edge3" class="edge">
<title>2&#45;&gt;0</title>
<path fill="none" stroke="black" d="M305.03,-92.59C312.69,-90.58 320.66,-88.62 328.19,-87 450.69,-60.59 594.47,-40.4 683.71,-29.12"/>
<polygon fill="black" stroke="black" points="684.3,-32.58 693.79,-27.86 683.43,-25.63 684.3,-32.58"/>
<text text-anchor="middle" x="512.69" y="-57.8" font-family="Times New Roman,serif" font-size="14.00">0.039</text>
</g>
<!-- 3 -->
<g id="node4" class="node">
<title>3</title>
<g id="a_node4"><a xlink:href="to_project manager.svg" xlink:title="project manager">
<ellipse fill="none" stroke="black" cx="406.19" cy="-105" rx="68.79" ry="18"/>
<text text-anchor="middle" x="406.19" y="-101.3" font-family="Times New Roman,serif" font-size="14.00">project manager</text>
</a>
</g>
</g>
<!-- 3&#45;&gt;0 -->
<g id="edge4" class="edge">
<title>3&#45;&gt;0</title>
<path fill="none" stroke="black" d="M455.9,-92.36C520.16,-77.31 632.24,-51.07 703.47,-34.39"/>
<polygon fill="black" stroke="black" points="704.3,-37.79 713.24,-32.1 702.71,-30.97 704.3,-37.79"/>
<text text-anchor="middle" x="625.69" y="-57.8" font-family="Times New Roman,serif" font-size="14.00">0.039</text>
</g>
<!-- 4 -->
<g id="node5" class="node">
<title>4</title>
<g id="a_node5"><a xlink:href="to_mechanical engineer.svg" xlink:title="mechanical engineer">
<ellipse fill="none" stroke="black" cx="576.19" cy="-105" rx="83.39" ry="18"/>
<text text-anchor="middle" x="576.19" y="-101.3" font-family="Times New Roman,serif" font-size="14.00">mechanical engineer</text>
</a>
</g>
</g>
<!-- 4&#45;&gt;0 -->
<g id="edge5" class="edge">
<title>4&#45;&gt;0</title>
<path fill="none" stroke="black" d="M611.14,-88.61C642.92,-74.61 689.97,-53.89 724.47,-38.69"/>
<polygon fill="black" stroke="black" points="726.11,-41.8 733.85,-34.57 723.29,-35.39 726.11,-41.8"/>
<text text-anchor="middle" x="700.69" y="-57.8" font-family="Times New Roman,serif" font-size="14.00">0.025</text>
</g>
<!-- 5 -->
<g id="node6" class="node">
<title>5</title>
<g id="a_node6"><a xlink:href="to_database administrator.svg" xlink:title="database administrator">
<ellipse fill="none" stroke="black" cx="769.19" cy="-105" rx="92.08" ry="18"/>
<text text-anchor="middle" x="769.19" y="-101.3" font-family="Times New Roman,serif" font-size="14.00">database administrator</text>
</a>
</g>
</g>
<!-- 5&#45;&gt;0 -->
<g id="edge6" class="edge">
<title>5&#45;&gt;0</title>
<path fill="none" stroke="black" d="M769.19,-86.8C769.19,-75.16 769.19,-59.55 769.19,-46.24"/>
<polygon fill="black" stroke="black" points="772.69,-46.18 769.19,-36.18 765.69,-46.18 772.69,-46.18"/>
<text text-anchor="middle" x="784.69" y="-57.8" font-family="Times New Roman,serif" font-size="14.00">0.021</text>
</g>
<!-- 6 -->
<g id="node7" class="node">
<title>6</title>
<g id="a_node7"><a xlink:href="to_facilities manager.svg" xlink:title="facilities manager">
<ellipse fill="none" stroke="black" cx="952.19" cy="-105" rx="72.59" ry="18"/>
<text text-anchor="middle" x="952.19" y="-101.3" font-family="Times New Roman,serif" font-size="14.00">facilities manager</text>
</a>
</g>
</g>
<!-- 6&#45;&gt;0 -->
<g id="edge7" class="edge">
<title>6&#45;&gt;0</title>
<path fill="none" stroke="black" d="M919.47,-88.8C889.63,-74.94 845.3,-54.35 812.52,-39.13"/>
<polygon fill="black" stroke="black" points="813.72,-35.82 803.18,-34.78 810.77,-42.17 813.72,-35.82"/>
<text text-anchor="middle" x="887.69" y="-57.8" font-family="Times New Roman,serif" font-size="14.00">0.021</text>
</g>
<!-- 7 -->
<g id="node8" class="node">
<title>7</title>
<g id="a_node8"><a xlink:href="to_geographical information systems manager.svg" xlink:title="geographical information systems manager">
<ellipse fill="none" stroke="black" cx="1208.19" cy="-105" rx="165.17" ry="18"/>
<text text-anchor="middle" x="1208.19" y="-101.3" font-family="Times New Roman,serif" font-size="14.00">geographical information systems manager</text>
</a>
</g>
</g>
<!-- 7&#45;&gt;0 -->
<g id="edge8" class="edge">
<title>7&#45;&gt;0</title>
<path fill="none" stroke="black" d="M1130.97,-89.05C1049.22,-73.22 921.2,-48.43 841.4,-32.98"/>
<polygon fill="black" stroke="black" points="841.92,-29.52 831.43,-31.05 840.59,-36.39 841.92,-29.52"/>
<text text-anchor="middle" x="1030.69" y="-57.8" font-family="Times New Roman,serif" font-size="14.00">0.021</text>
</g>
<!-- 8 -->
<g id="node9" class="node">
<title>8</title>
<g id="a_node9"><a xlink:href="to_pharmacovigilance officer.svg" xlink:title="pharmacovigilance officer">
<ellipse fill="none" stroke="black" cx="1496.19" cy="-105" rx="104.78" ry="18"/>
<text text-anchor="middle" x="1496.19" y="-101.3" font-family="Times New Roman,serif" font-size="14.00">pharmacovigilance officer</text>
</a>
</g>
</g>
<!-- 8&#45;&gt;0 -->
<g id="edge9" class="edge">
<title>8&#45;&gt;0</title>
<path fill="none" stroke="black" d="M1421.13,-92.4C1408.16,-90.51 1394.79,-88.64 1382.19,-87 1195.96,-62.79 977.18,-39.84 857.86,-27.78"/>
<polygon fill="black" stroke="black" points="857.99,-24.28 847.69,-26.75 857.28,-31.24 857.99,-24.28"/>
<text text-anchor="middle" x="1246.69" y="-57.8" font-family="Times New Roman,serif" font-size="14.00">0.021</text>
</g>
<!-- 9 -->
<g id="node10" class="node">
<title>9</title>
<g id="a_node10"><a xlink:href="to_structural engineer.svg" xlink:title="structural engineer">
<ellipse fill="none" stroke="black" cx="1695.19" cy="-105" rx="76.89" ry="18"/>
<text text-anchor="middle" x="1695.19" y="-101.3" font-family="Times New Roman,serif" font-size="14.00">structural engineer</text>
</a>
</g>
</g>
<!-- 9&#45;&gt;0 -->
<g id="edge10" class="edge">
<title>9&#45;&gt;0</title>
<path fill="none" stroke="black" d="M1640.47,-92.2C1630.43,-90.28 1620.02,-88.45 1610.19,-87 1342.72,-47.53 1023.77,-29.63 866.6,-22.71"/>
<polygon fill="black" stroke="black" points="866.63,-19.21 856.49,-22.27 866.32,-26.2 866.63,-19.21"/>
<text text-anchor="middle" x="1464.69" y="-57.8" font-family="Times New Roman,serif" font-size="14.00">0.021</text>
</g>
</g>
</svg>
