<?xml version="1.0" encoding="UTF-8" standalone="no"?>
<!DOCTYPE svg PUBLIC "-//W3C//DTD SVG 1.1//EN"
 "http://www.w3.org/Graphics/SVG/1.1/DTD/svg11.dtd">
<!-- Generated by graphviz version 2.44.1 (20200629.0800)
 -->
<!-- Title: test Pages: 1 -->
<svg width="403pt" height="131pt"
 viewBox="0.00 0.00 403.14 131.00" xmlns="http://www.w3.org/2000/svg" xmlns:xlink="http://www.w3.org/1999/xlink">
<g id="graph0" class="graph" transform="scale(1 1) rotate(0) translate(4 127)">
<title>test</title>
<polygon fill="white" stroke="transparent" points="-4,4 -4,-127 399.14,-127 399.14,4 -4,4"/>
<!-- 0 -->
<g id="node1" class="node">
<title>0</title>
<g id="a_node1"><a xlink:href="to_housing adviser.svg" xlink:title="housing adviser">
<ellipse fill="none" stroke="black" cx="67.59" cy="-105" rx="67.69" ry="18"/>
<text text-anchor="middle" x="67.59" y="-101.3" font-family="Times New Roman,serif" font-size="14.00">housing adviser</text>
</a>
</g>
</g>
<!-- 1 -->
<g id="node2" class="node">
<title>1</title>
<g id="a_node2"><a xlink:href="to_nanoscientist.svg" xlink:title="nanoscientist">
<ellipse fill="none" stroke="black" cx="221.59" cy="-18" rx="57.69" ry="18"/>
<text text-anchor="middle" x="221.59" y="-14.3" font-family="Times New Roman,serif" font-size="14.00">nanoscientist</text>
</a>
</g>
</g>
<!-- 0&#45;&gt;1 -->
<g id="edge1" class="edge">
<title>0&#45;&gt;1</title>
<path fill="none" stroke="black" d="M95.84,-88.41C121.12,-74.46 158.3,-53.93 185.68,-38.82"/>
<polygon fill="black" stroke="black" points="187.5,-41.82 194.56,-33.92 184.11,-35.69 187.5,-41.82"/>
<text text-anchor="middle" x="170.09" y="-57.8" font-family="Times New Roman,serif" font-size="14.00">0.333</text>
</g>
<!-- 2 -->
<g id="node3" class="node">
<title>2</title>
<g id="a_node3"><a xlink:href="to_project manager.svg" xlink:title="project manager">
<ellipse fill="none" stroke="black" cx="221.59" cy="-105" rx="68.79" ry="18"/>
<text text-anchor="middle" x="221.59" y="-101.3" font-family="Times New Roman,serif" font-size="14.00">project manager</text>
</a>
</g>
</g>
<!-- 2&#45;&gt;1 -->
<g id="edge2" class="edge">
<title>2&#45;&gt;1</title>
<path fill="none" stroke="black" d="M221.59,-86.8C221.59,-75.16 221.59,-59.55 221.59,-46.24"/>
<polygon fill="black" stroke="black" points="225.09,-46.18 221.59,-36.18 218.09,-46.18 225.09,-46.18"/>
<text text-anchor="middle" x="237.09" y="-57.8" font-family="Times New Roman,serif" font-size="14.00">0.333</text>
</g>
<!-- 3 -->
<g id="node4" class="node">
<title>3</title>
<g id="a_node4"><a xlink:href="to_secretary.svg" xlink:title="secretary">
<ellipse fill="none" stroke="black" cx="351.59" cy="-105" rx="43.59" ry="18"/>
<text text-anchor="middle" x="351.59" y="-101.3" font-family="Times New Roman,serif" font-size="14.00">secretary</text>
</a>
</g>
</g>
<!-- 3&#45;&gt;1 -->
<g id="edge3" class="edge">
<title>3&#45;&gt;1</title>
<path fill="none" stroke="black" d="M329.25,-89.39C308.52,-75.84 277.43,-55.51 253.98,-40.18"/>
<polygon fill="black" stroke="black" points="255.69,-37.11 245.41,-34.57 251.86,-42.97 255.69,-37.11"/>
<text text-anchor="middle" x="309.09" y="-57.8" font-family="Times New Roman,serif" font-size="14.00">0.333</text>
</g>
</g>
</svg>
