<?xml version="1.0" encoding="UTF-8" standalone="no"?>
<!DOCTYPE svg PUBLIC "-//W3C//DTD SVG 1.1//EN"
 "http://www.w3.org/Graphics/SVG/1.1/DTD/svg11.dtd">
<!-- Generated by graphviz version 2.44.1 (20200629.0800)
 -->
<!-- Title: nature_conservation_officer Pages: 1 -->
<svg width="1453pt" height="131pt"
 viewBox="0.00 0.00 1452.84 131.00" xmlns="http://www.w3.org/2000/svg" xmlns:xlink="http://www.w3.org/1999/xlink">
<g id="graph0" class="graph" transform="scale(1 1) rotate(0) translate(4 127)">
<title>nature_conservation_officer</title>
<polygon fill="white" stroke="transparent" points="-4,4 -4,-127 1448.84,-127 1448.84,4 -4,4"/>
<!-- 0 -->
<g id="node1" class="node">
<title>0</title>
<g id="a_node1"><a xlink:href="to_pharmacovigilance officer.svg" xlink:title="pharmacovigilance officer">
<ellipse fill="none" stroke="black" cx="104.64" cy="-105" rx="104.78" ry="18"/>
<text text-anchor="middle" x="104.64" y="-101.3" font-family="Times New Roman,serif" font-size="14.00">pharmacovigilance officer</text>
</a>
</g>
</g>
<!-- 1 -->
<g id="node2" class="node">
<title>1</title>
<g id="a_node2"><a xlink:href="to_nature conservation officer.svg" xlink:title="nature conservation officer">
<ellipse fill="none" stroke="black" cx="754.64" cy="-18" rx="107.78" ry="18"/>
<text text-anchor="middle" x="754.64" y="-14.3" font-family="Times New Roman,serif" font-size="14.00">nature conservation officer</text>
</a>
</g>
</g>
<!-- 0&#45;&gt;1 -->
<g id="edge1" class="edge">
<title>0&#45;&gt;1</title>
<path fill="none" stroke="black" d="M180.3,-92.53C192.77,-90.67 205.57,-88.77 217.64,-87 320.69,-71.92 346.34,-67.27 449.64,-54 518.6,-45.14 596.48,-36.22 656.28,-29.6"/>
<polygon fill="black" stroke="black" points="656.92,-33.06 666.47,-28.48 656.15,-26.1 656.92,-33.06"/>
<text text-anchor="middle" x="465.14" y="-57.8" font-family="Times New Roman,serif" font-size="14.00">0.181</text>
</g>
<!-- 1&#45;&gt;1 -->
<g id="edge7" class="edge">
<title>1&#45;&gt;1</title>
<path fill="none" stroke="black" d="M853.34,-25.29C869.46,-24.24 880.53,-21.81 880.53,-18 880.53,-15.05 873.91,-12.93 863.45,-11.64"/>
<polygon fill="black" stroke="black" points="863.62,-8.14 853.34,-10.71 862.98,-15.11 863.62,-8.14"/>
<text text-anchor="middle" x="896.03" y="-14.3" font-family="Times New Roman,serif" font-size="14.00">0.090</text>
</g>
<!-- 2 -->
<g id="node3" class="node">
<title>2</title>
<g id="a_node3"><a xlink:href="to_research scientist.svg" xlink:title="research scientist">
<ellipse fill="none" stroke="black" cx="299.64" cy="-105" rx="72.59" ry="18"/>
<text text-anchor="middle" x="299.64" y="-101.3" font-family="Times New Roman,serif" font-size="14.00">research scientist</text>
</a>
</g>
</g>
<!-- 2&#45;&gt;1 -->
<g id="edge2" class="edge">
<title>2&#45;&gt;1</title>
<path fill="none" stroke="black" d="M353.42,-92.69C362.82,-90.76 372.51,-88.8 381.64,-87 481.62,-67.32 597.07,-46.58 672.73,-33.25"/>
<polygon fill="black" stroke="black" points="673.43,-36.68 682.67,-31.5 672.22,-29.79 673.43,-36.68"/>
<text text-anchor="middle" x="571.14" y="-57.8" font-family="Times New Roman,serif" font-size="14.00">0.181</text>
</g>
<!-- 3 -->
<g id="node4" class="node">
<title>3</title>
<g id="a_node4"><a xlink:href="to_academic librarian.svg" xlink:title="academic librarian">
<ellipse fill="none" stroke="black" cx="466.64" cy="-105" rx="76.09" ry="18"/>
<text text-anchor="middle" x="466.64" y="-101.3" font-family="Times New Roman,serif" font-size="14.00">academic librarian</text>
</a>
</g>
</g>
<!-- 3&#45;&gt;1 -->
<g id="edge3" class="edge">
<title>3&#45;&gt;1</title>
<path fill="none" stroke="black" d="M512.28,-90.53C561.4,-76.03 639.78,-52.9 694.05,-36.88"/>
<polygon fill="black" stroke="black" points="695.29,-40.17 703.89,-33.98 693.3,-33.45 695.29,-40.17"/>
<text text-anchor="middle" x="644.14" y="-57.8" font-family="Times New Roman,serif" font-size="14.00">0.090</text>
</g>
<!-- 4 -->
<g id="node5" class="node">
<title>4</title>
<g id="a_node5"><a xlink:href="to_exploration geologist.svg" xlink:title="exploration geologist">
<ellipse fill="none" stroke="black" cx="646.64" cy="-105" rx="86.38" ry="18"/>
<text text-anchor="middle" x="646.64" y="-101.3" font-family="Times New Roman,serif" font-size="14.00">exploration geologist</text>
</a>
</g>
</g>
<!-- 4&#45;&gt;1 -->
<g id="edge4" class="edge">
<title>4&#45;&gt;1</title>
<path fill="none" stroke="black" d="M667.72,-87.41C684.12,-74.51 707.06,-56.45 725.26,-42.13"/>
<polygon fill="black" stroke="black" points="727.55,-44.77 733.24,-35.84 723.22,-39.27 727.55,-44.77"/>
<text text-anchor="middle" x="723.14" y="-57.8" font-family="Times New Roman,serif" font-size="14.00">0.090</text>
</g>
<!-- 5 -->
<g id="node6" class="node">
<title>5</title>
<g id="a_node6"><a xlink:href="to_government research officer.svg" xlink:title="government research officer">
<ellipse fill="none" stroke="black" cx="863.64" cy="-105" rx="112.38" ry="18"/>
<text text-anchor="middle" x="863.64" y="-101.3" font-family="Times New Roman,serif" font-size="14.00">government research officer</text>
</a>
</g>
</g>
<!-- 5&#45;&gt;1 -->
<g id="edge5" class="edge">
<title>5&#45;&gt;1</title>
<path fill="none" stroke="black" d="M842.11,-87.21C825.53,-74.28 802.45,-56.28 784.16,-42.02"/>
<polygon fill="black" stroke="black" points="786.17,-39.15 776.13,-35.76 781.86,-44.67 786.17,-39.15"/>
<text text-anchor="middle" x="832.14" y="-57.8" font-family="Times New Roman,serif" font-size="14.00">0.090</text>
</g>
<!-- 6 -->
<g id="node7" class="node">
<title>6</title>
<g id="a_node7"><a xlink:href="to_health and safety inspector.svg" xlink:title="health and safety inspector">
<ellipse fill="none" stroke="black" cx="1101.64" cy="-105" rx="107.48" ry="18"/>
<text text-anchor="middle" x="1101.64" y="-101.3" font-family="Times New Roman,serif" font-size="14.00">health and safety inspector</text>
</a>
</g>
</g>
<!-- 6&#45;&gt;1 -->
<g id="edge6" class="edge">
<title>6&#45;&gt;1</title>
<path fill="none" stroke="black" d="M1043.56,-89.77C982.67,-74.86 887.06,-51.44 822.68,-35.67"/>
<polygon fill="black" stroke="black" points="823.17,-32.18 812.62,-33.2 821.5,-38.98 823.17,-32.18"/>
<text text-anchor="middle" x="965.14" y="-57.8" font-family="Times New Roman,serif" font-size="14.00">0.090</text>
</g>
<!-- 7 -->
<g id="node8" class="node">
<title>7</title>
<g id="a_node8"><a xlink:href="to_project manager.svg" xlink:title="project manager">
<ellipse fill="none" stroke="black" cx="1295.64" cy="-105" rx="68.79" ry="18"/>
<text text-anchor="middle" x="1295.64" y="-101.3" font-family="Times New Roman,serif" font-size="14.00">project manager</text>
</a>
</g>
</g>
<!-- 7&#45;&gt;1 -->
<g id="edge8" class="edge">
<title>7&#45;&gt;1</title>
<path fill="none" stroke="black" d="M1245.39,-92.52C1236.18,-90.56 1226.64,-88.64 1217.64,-87 1090.2,-63.78 941.91,-43.11 848.17,-30.82"/>
<polygon fill="black" stroke="black" points="848.51,-27.33 838.14,-29.51 847.61,-34.27 848.51,-27.33"/>
<text text-anchor="middle" x="1119.14" y="-57.8" font-family="Times New Roman,serif" font-size="14.00">0.090</text>
</g>
<!-- 8 -->
<g id="node9" class="node">
<title>8</title>
<g id="a_node9"><a xlink:href="to_writer.svg" xlink:title="writer">
<ellipse fill="none" stroke="black" cx="1413.64" cy="-105" rx="31.4" ry="18"/>
<text text-anchor="middle" x="1413.64" y="-101.3" font-family="Times New Roman,serif" font-size="14.00">writer</text>
</a>
</g>
</g>
<!-- 8&#45;&gt;1 -->
<g id="edge9" class="edge">
<title>8&#45;&gt;1</title>
<path fill="none" stroke="black" d="M1390.32,-92.88C1384.94,-90.65 1379.17,-88.53 1373.64,-87 1203.24,-39.71 997.89,-25.09 871.81,-20.7"/>
<polygon fill="black" stroke="black" points="871.85,-17.2 861.74,-20.36 871.62,-24.2 871.85,-17.2"/>
<text text-anchor="middle" x="1306.14" y="-57.8" font-family="Times New Roman,serif" font-size="14.00">0.090</text>
</g>
</g>
</svg>
