<?xml version="1.0" encoding="UTF-8" standalone="no"?>
<!DOCTYPE svg PUBLIC "-//W3C//DTD SVG 1.1//EN"
 "http://www.w3.org/Graphics/SVG/1.1/DTD/svg11.dtd">
<!-- Generated by graphviz version 2.44.1 (20200629.0800)
 -->
<!-- Title: operational_researcher Pages: 1 -->
<svg width="1759pt" height="131pt"
 viewBox="0.00 0.00 1759.29 131.00" xmlns="http://www.w3.org/2000/svg" xmlns:xlink="http://www.w3.org/1999/xlink">
<g id="graph0" class="graph" transform="scale(1 1) rotate(0) translate(4 127)">
<title>operational_researcher</title>
<polygon fill="white" stroke="transparent" points="-4,4 -4,-127 1755.29,-127 1755.29,4 -4,4"/>
<!-- 0 -->
<g id="node1" class="node">
<title>0</title>
<g id="a_node1"><a xlink:href="to_research scientist.svg" xlink:title="research scientist">
<ellipse fill="none" stroke="black" cx="72.79" cy="-105" rx="72.59" ry="18"/>
<text text-anchor="middle" x="72.79" y="-101.3" font-family="Times New Roman,serif" font-size="14.00">research scientist</text>
</a>
</g>
</g>
<!-- 1 -->
<g id="node2" class="node">
<title>1</title>
<g id="a_node2"><a xlink:href="to_operational researcher.svg" xlink:title="operational researcher">
<ellipse fill="none" stroke="black" cx="903.79" cy="-18" rx="90.18" ry="18"/>
<text text-anchor="middle" x="903.79" y="-14.3" font-family="Times New Roman,serif" font-size="14.00">operational researcher</text>
</a>
</g>
</g>
<!-- 0&#45;&gt;1 -->
<g id="edge1" class="edge">
<title>0&#45;&gt;1</title>
<path fill="none" stroke="black" d="M125.61,-92.43C135.3,-90.48 145.33,-88.59 154.79,-87 386.65,-48.14 662.88,-30.3 806.37,-23.14"/>
<polygon fill="black" stroke="black" points="806.65,-26.63 816.46,-22.65 806.3,-19.64 806.65,-26.63"/>
<text text-anchor="middle" x="416.29" y="-57.8" font-family="Times New Roman,serif" font-size="14.00">0.093</text>
</g>
<!-- 2 -->
<g id="node3" class="node">
<title>2</title>
<g id="a_node3"><a xlink:href="to_teaching assistant.svg" xlink:title="teaching assistant">
<ellipse fill="none" stroke="black" cx="236.79" cy="-105" rx="73.39" ry="18"/>
<text text-anchor="middle" x="236.79" y="-101.3" font-family="Times New Roman,serif" font-size="14.00">teaching assistant</text>
</a>
</g>
</g>
<!-- 2&#45;&gt;1 -->
<g id="edge2" class="edge">
<title>2&#45;&gt;1</title>
<path fill="none" stroke="black" d="M289.6,-92.33C299.28,-90.4 309.32,-88.53 318.79,-87 492.71,-58.92 697.52,-37.84 812.85,-27.05"/>
<polygon fill="black" stroke="black" points="813.42,-30.51 823.05,-26.1 812.77,-23.54 813.42,-30.51"/>
<text text-anchor="middle" x="559.29" y="-57.8" font-family="Times New Roman,serif" font-size="14.00">0.093</text>
</g>
<!-- 3 -->
<g id="node4" class="node">
<title>3</title>
<g id="a_node4"><a xlink:href="to_control and instrumentation engineer.svg" xlink:title="control and instrumentation engineer">
<ellipse fill="none" stroke="black" cx="469.79" cy="-105" rx="141.88" ry="18"/>
<text text-anchor="middle" x="469.79" y="-101.3" font-family="Times New Roman,serif" font-size="14.00">control and instrumentation engineer</text>
</a>
</g>
</g>
<!-- 3&#45;&gt;1 -->
<g id="edge3" class="edge">
<title>3&#45;&gt;1</title>
<path fill="none" stroke="black" d="M543.42,-89.58C623.89,-73.82 751.99,-48.73 831.81,-33.1"/>
<polygon fill="black" stroke="black" points="832.64,-36.5 841.78,-31.15 831.3,-29.63 832.64,-36.5"/>
<text text-anchor="middle" x="728.29" y="-57.8" font-family="Times New Roman,serif" font-size="14.00">0.062</text>
</g>
<!-- 4 -->
<g id="node5" class="node">
<title>4</title>
<g id="a_node5"><a xlink:href="to_it consultant.svg" xlink:title="it consultant">
<ellipse fill="none" stroke="black" cx="683.79" cy="-105" rx="54.69" ry="18"/>
<text text-anchor="middle" x="683.79" y="-101.3" font-family="Times New Roman,serif" font-size="14.00">it consultant</text>
</a>
</g>
</g>
<!-- 4&#45;&gt;1 -->
<g id="edge4" class="edge">
<title>4&#45;&gt;1</title>
<path fill="none" stroke="black" d="M718.17,-90.72C754.83,-76.55 813.22,-54 854.71,-37.96"/>
<polygon fill="black" stroke="black" points="856.01,-41.21 864.08,-34.34 853.49,-34.68 856.01,-41.21"/>
<text text-anchor="middle" x="823.29" y="-57.8" font-family="Times New Roman,serif" font-size="14.00">0.062</text>
</g>
<!-- 5 -->
<g id="node6" class="node">
<title>5</title>
<g id="a_node6"><a xlink:href="to_project manager.svg" xlink:title="project manager">
<ellipse fill="none" stroke="black" cx="824.79" cy="-105" rx="68.79" ry="18"/>
<text text-anchor="middle" x="824.79" y="-101.3" font-family="Times New Roman,serif" font-size="14.00">project manager</text>
</a>
</g>
</g>
<!-- 5&#45;&gt;1 -->
<g id="edge5" class="edge">
<title>5&#45;&gt;1</title>
<path fill="none" stroke="black" d="M840.4,-87.21C852.09,-74.63 868.24,-57.25 881.32,-43.18"/>
<polygon fill="black" stroke="black" points="883.97,-45.47 888.22,-35.76 878.85,-40.7 883.97,-45.47"/>
<text text-anchor="middle" x="885.29" y="-57.8" font-family="Times New Roman,serif" font-size="14.00">0.062</text>
</g>
<!-- 6 -->
<g id="node7" class="node">
<title>6</title>
<g id="a_node7"><a xlink:href="to_catering manager.svg" xlink:title="catering manager">
<ellipse fill="none" stroke="black" cx="982.79" cy="-105" rx="71.49" ry="18"/>
<text text-anchor="middle" x="982.79" y="-101.3" font-family="Times New Roman,serif" font-size="14.00">catering manager</text>
</a>
</g>
</g>
<!-- 6&#45;&gt;1 -->
<g id="edge6" class="edge">
<title>6&#45;&gt;1</title>
<path fill="none" stroke="black" d="M967.19,-87.21C955.5,-74.63 939.35,-57.25 926.27,-43.18"/>
<polygon fill="black" stroke="black" points="928.74,-40.7 919.37,-35.76 923.61,-45.47 928.74,-40.7"/>
<text text-anchor="middle" x="964.29" y="-57.8" font-family="Times New Roman,serif" font-size="14.00">0.031</text>
</g>
<!-- 7 -->
<g id="node8" class="node">
<title>7</title>
<g id="a_node8"><a xlink:href="to_community education officer.svg" xlink:title="community education officer">
<ellipse fill="none" stroke="black" cx="1187.79" cy="-105" rx="115.08" ry="18"/>
<text text-anchor="middle" x="1187.79" y="-101.3" font-family="Times New Roman,serif" font-size="14.00">community education officer</text>
</a>
</g>
</g>
<!-- 7&#45;&gt;1 -->
<g id="edge7" class="edge">
<title>7&#45;&gt;1</title>
<path fill="none" stroke="black" d="M1137.02,-88.8C1087.71,-74.04 1012.94,-51.67 961.42,-36.25"/>
<polygon fill="black" stroke="black" points="962.35,-32.87 951.76,-33.36 960.34,-39.58 962.35,-32.87"/>
<text text-anchor="middle" x="1079.29" y="-57.8" font-family="Times New Roman,serif" font-size="14.00">0.031</text>
</g>
<!-- 8 -->
<g id="node9" class="node">
<title>8</title>
<g id="a_node9"><a xlink:href="to_doctor.svg" xlink:title="doctor">
<ellipse fill="none" stroke="black" cx="1355.79" cy="-105" rx="35.19" ry="18"/>
<text text-anchor="middle" x="1355.79" y="-101.3" font-family="Times New Roman,serif" font-size="14.00">doctor</text>
</a>
</g>
</g>
<!-- 8&#45;&gt;1 -->
<g id="edge8" class="edge">
<title>8&#45;&gt;1</title>
<path fill="none" stroke="black" d="M1329.56,-92.86C1323.78,-90.69 1317.64,-88.6 1311.79,-87 1203.46,-57.38 1075.22,-38.57 991.83,-28.42"/>
<polygon fill="black" stroke="black" points="992.23,-24.94 981.89,-27.22 991.4,-31.89 992.23,-24.94"/>
<text text-anchor="middle" x="1250.29" y="-57.8" font-family="Times New Roman,serif" font-size="14.00">0.031</text>
</g>
<!-- 9 -->
<g id="node10" class="node">
<title>9</title>
<g id="a_node10"><a xlink:href="to_fitness centre manager.svg" xlink:title="fitness centre manager">
<ellipse fill="none" stroke="black" cx="1499.79" cy="-105" rx="90.98" ry="18"/>
<text text-anchor="middle" x="1499.79" y="-101.3" font-family="Times New Roman,serif" font-size="14.00">fitness centre manager</text>
</a>
</g>
</g>
<!-- 9&#45;&gt;1 -->
<g id="edge9" class="edge">
<title>9&#45;&gt;1</title>
<path fill="none" stroke="black" d="M1445.76,-90.35C1399.37,-79.09 1330.56,-63.48 1269.79,-54 1178.39,-39.75 1073.17,-30.41 999.07,-25"/>
<polygon fill="black" stroke="black" points="999.06,-21.49 988.83,-24.26 998.55,-28.47 999.06,-21.49"/>
<text text-anchor="middle" x="1361.29" y="-57.8" font-family="Times New Roman,serif" font-size="14.00">0.031</text>
</g>
<!-- 10 -->
<g id="node11" class="node">
<title>10</title>
<g id="a_node11"><a xlink:href="to_insurance broker.svg" xlink:title="insurance broker">
<ellipse fill="none" stroke="black" cx="1679.79" cy="-105" rx="71.49" ry="18"/>
<text text-anchor="middle" x="1679.79" y="-101.3" font-family="Times New Roman,serif" font-size="14.00">insurance broker</text>
</a>
</g>
</g>
<!-- 10&#45;&gt;1 -->
<g id="edge10" class="edge">
<title>10&#45;&gt;1</title>
<path fill="none" stroke="black" d="M1627.81,-92.48C1618.5,-90.55 1608.87,-88.65 1599.79,-87 1502.94,-69.43 1478.62,-64.94 1380.79,-54 1249.29,-39.29 1096.67,-29.33 1000.18,-23.91"/>
<polygon fill="black" stroke="black" points="1000.33,-20.41 990.15,-23.35 999.94,-27.4 1000.33,-20.41"/>
<text text-anchor="middle" x="1509.29" y="-57.8" font-family="Times New Roman,serif" font-size="14.00">0.031</text>
</g>
</g>
</svg>
