<?xml version="1.0" encoding="UTF-8" standalone="no"?>
<!DOCTYPE svg PUBLIC "-//W3C//DTD SVG 1.1//EN"
 "http://www.w3.org/Graphics/SVG/1.1/DTD/svg11.dtd">
<!-- Generated by graphviz version 2.44.1 (20200629.0800)
 -->
<!-- Title: oceanographer Pages: 1 -->
<svg width="585pt" height="131pt"
 viewBox="0.00 0.00 584.73 131.00" xmlns="http://www.w3.org/2000/svg" xmlns:xlink="http://www.w3.org/1999/xlink">
<g id="graph0" class="graph" transform="scale(1 1) rotate(0) translate(4 127)">
<title>oceanographer</title>
<polygon fill="white" stroke="transparent" points="-4,4 -4,-127 580.73,-127 580.73,4 -4,4"/>
<!-- 0 -->
<g id="node1" class="node">
<title>0</title>
<g id="a_node1"><a xlink:href="to_oceanographer.svg" xlink:title="oceanographer">
<ellipse fill="none" stroke="black" cx="256.44" cy="-18" rx="64.19" ry="18"/>
<text text-anchor="middle" x="256.44" y="-14.3" font-family="Times New Roman,serif" font-size="14.00">oceanographer</text>
</a>
</g>
</g>
<!-- 0&#45;&gt;0 -->
<g id="edge1" class="edge">
<title>0&#45;&gt;0</title>
<path fill="none" stroke="black" d="M314.91,-25.72C328.65,-25.08 338.79,-22.51 338.79,-18 338.79,-14.69 333.32,-12.42 324.98,-11.2"/>
<polygon fill="black" stroke="black" points="325.19,-7.7 314.91,-10.28 324.56,-14.67 325.19,-7.7"/>
<text text-anchor="middle" x="347.79" y="-14.3" font-family="Times New Roman,serif" font-size="14.00">0.4</text>
</g>
<!-- 1 -->
<g id="node2" class="node">
<title>1</title>
<g id="a_node2"><a xlink:href="to_medical physicist.svg" xlink:title="medical physicist">
<ellipse fill="none" stroke="black" cx="73.44" cy="-105" rx="73.39" ry="18"/>
<text text-anchor="middle" x="73.44" y="-101.3" font-family="Times New Roman,serif" font-size="14.00">medical physicist</text>
</a>
</g>
</g>
<!-- 1&#45;&gt;0 -->
<g id="edge2" class="edge">
<title>1&#45;&gt;0</title>
<path fill="none" stroke="black" d="M106.16,-88.8C136.66,-74.64 182.28,-53.45 215.26,-38.13"/>
<polygon fill="black" stroke="black" points="217.03,-41.17 224.62,-33.78 214.08,-34.82 217.03,-41.17"/>
<text text-anchor="middle" x="185.44" y="-57.8" font-family="Times New Roman,serif" font-size="14.00">0.2</text>
</g>
<!-- 2 -->
<g id="node3" class="node">
<title>2</title>
<g id="a_node3"><a xlink:href="to_programme researcher.svg" xlink:title="programme researcher">
<ellipse fill="none" stroke="black" cx="256.44" cy="-105" rx="91.78" ry="18"/>
<text text-anchor="middle" x="256.44" y="-101.3" font-family="Times New Roman,serif" font-size="14.00">programme researcher</text>
</a>
</g>
</g>
<!-- 2&#45;&gt;0 -->
<g id="edge3" class="edge">
<title>2&#45;&gt;0</title>
<path fill="none" stroke="black" d="M256.44,-86.8C256.44,-75.16 256.44,-59.55 256.44,-46.24"/>
<polygon fill="black" stroke="black" points="259.94,-46.18 256.44,-36.18 252.94,-46.18 259.94,-46.18"/>
<text text-anchor="middle" x="265.44" y="-57.8" font-family="Times New Roman,serif" font-size="14.00">0.2</text>
</g>
<!-- 3 -->
<g id="node4" class="node">
<title>3</title>
<g id="a_node4"><a xlink:href="to_quality assurance manager.svg" xlink:title="quality assurance manager">
<ellipse fill="none" stroke="black" cx="471.44" cy="-105" rx="105.08" ry="18"/>
<text text-anchor="middle" x="471.44" y="-101.3" font-family="Times New Roman,serif" font-size="14.00">quality assurance manager</text>
</a>
</g>
</g>
<!-- 3&#45;&gt;0 -->
<g id="edge4" class="edge">
<title>3&#45;&gt;0</title>
<path fill="none" stroke="black" d="M431.76,-88.31C394.85,-73.72 339.9,-52 301.39,-36.77"/>
<polygon fill="black" stroke="black" points="302.56,-33.47 291.97,-33.05 299.99,-39.98 302.56,-33.47"/>
<text text-anchor="middle" x="386.44" y="-57.8" font-family="Times New Roman,serif" font-size="14.00">0.2</text>
</g>
</g>
</svg>
