<?xml version="1.0" encoding="UTF-8" standalone="no"?>
<!DOCTYPE svg PUBLIC "-//W3C//DTD SVG 1.1//EN"
 "http://www.w3.org/Graphics/SVG/1.1/DTD/svg11.dtd">
<!-- Generated by graphviz version 2.44.1 (20200629.0800)
 -->
<!-- Title: occupational_therapist Pages: 1 -->
<svg width="1612pt" height="131pt"
 viewBox="0.00 0.00 1612.38 131.00" xmlns="http://www.w3.org/2000/svg" xmlns:xlink="http://www.w3.org/1999/xlink">
<g id="graph0" class="graph" transform="scale(1 1) rotate(0) translate(4 127)">
<title>occupational_therapist</title>
<polygon fill="white" stroke="transparent" points="-4,4 -4,-127 1608.38,-127 1608.38,4 -4,4"/>
<!-- 0 -->
<g id="node1" class="node">
<title>0</title>
<g id="a_node1"><a xlink:href="to_occupational therapist.svg" xlink:title="occupational therapist">
<ellipse fill="none" stroke="black" cx="757.94" cy="-18" rx="90.18" ry="18"/>
<text text-anchor="middle" x="757.94" y="-14.3" font-family="Times New Roman,serif" font-size="14.00">occupational therapist</text>
</a>
</g>
</g>
<!-- 0&#45;&gt;0 -->
<g id="edge1" class="edge">
<title>0&#45;&gt;0</title>
<path fill="none" stroke="black" d="M840.15,-25.47C855.48,-24.55 866.28,-22.06 866.28,-18 866.28,-14.92 860.08,-12.75 850.4,-11.47"/>
<polygon fill="black" stroke="black" points="850.42,-7.96 840.15,-10.53 849.78,-14.93 850.42,-7.96"/>
<text text-anchor="middle" x="881.78" y="-14.3" font-family="Times New Roman,serif" font-size="14.00">0.450</text>
</g>
<!-- 1 -->
<g id="node2" class="node">
<title>1</title>
<g id="a_node2"><a xlink:href="to_software developer.svg" xlink:title="software developer">
<ellipse fill="none" stroke="black" cx="79.94" cy="-105" rx="79.89" ry="18"/>
<text text-anchor="middle" x="79.94" y="-101.3" font-family="Times New Roman,serif" font-size="14.00">software developer</text>
</a>
</g>
</g>
<!-- 1&#45;&gt;0 -->
<g id="edge2" class="edge">
<title>1&#45;&gt;0</title>
<path fill="none" stroke="black" d="M137.78,-92.42C148.14,-90.5 158.85,-88.61 168.94,-87 344.34,-59.06 550.87,-37.89 666.89,-27.06"/>
<polygon fill="black" stroke="black" points="667.51,-30.52 677.14,-26.11 666.86,-23.55 667.51,-30.52"/>
<text text-anchor="middle" x="426.44" y="-57.8" font-family="Times New Roman,serif" font-size="14.00">0.039</text>
</g>
<!-- 2 -->
<g id="node3" class="node">
<title>2</title>
<g id="a_node3"><a xlink:href="to_agricultural consultant.svg" xlink:title="agricultural consultant">
<ellipse fill="none" stroke="black" cx="267.94" cy="-105" rx="89.88" ry="18"/>
<text text-anchor="middle" x="267.94" y="-101.3" font-family="Times New Roman,serif" font-size="14.00">agricultural consultant</text>
</a>
</g>
</g>
<!-- 2&#45;&gt;0 -->
<g id="edge3" class="edge">
<title>2&#45;&gt;0</title>
<path fill="none" stroke="black" d="M331.43,-92.25C387.54,-81.93 471.62,-66.64 544.94,-54 589.54,-46.31 639.46,-38.09 679.76,-31.55"/>
<polygon fill="black" stroke="black" points="680.48,-34.97 689.79,-29.92 679.36,-28.06 680.48,-34.97"/>
<text text-anchor="middle" x="560.44" y="-57.8" font-family="Times New Roman,serif" font-size="14.00">0.019</text>
</g>
<!-- 3 -->
<g id="node4" class="node">
<title>3</title>
<g id="a_node4"><a xlink:href="to_barristers clerk.svg" xlink:title="barristers clerk">
<ellipse fill="none" stroke="black" cx="439.94" cy="-105" rx="64.19" ry="18"/>
<text text-anchor="middle" x="439.94" y="-101.3" font-family="Times New Roman,serif" font-size="14.00">barristers clerk</text>
</a>
</g>
</g>
<!-- 3&#45;&gt;0 -->
<g id="edge4" class="edge">
<title>3&#45;&gt;0</title>
<path fill="none" stroke="black" d="M484.83,-92C540.17,-77.21 634.47,-52 696.5,-35.42"/>
<polygon fill="black" stroke="black" points="697.41,-38.8 706.16,-32.84 695.6,-32.04 697.41,-38.8"/>
<text text-anchor="middle" x="634.44" y="-57.8" font-family="Times New Roman,serif" font-size="14.00">0.019</text>
</g>
<!-- 4 -->
<g id="node5" class="node">
<title>4</title>
<g id="a_node5"><a xlink:href="to_careers adviser.svg" xlink:title="careers adviser">
<ellipse fill="none" stroke="black" cx="586.94" cy="-105" rx="64.99" ry="18"/>
<text text-anchor="middle" x="586.94" y="-101.3" font-family="Times New Roman,serif" font-size="14.00">careers adviser</text>
</a>
</g>
</g>
<!-- 4&#45;&gt;0 -->
<g id="edge5" class="edge">
<title>4&#45;&gt;0</title>
<path fill="none" stroke="black" d="M617.12,-89C644.84,-75.22 686.15,-54.69 716.87,-39.42"/>
<polygon fill="black" stroke="black" points="718.64,-42.45 726.04,-34.86 715.52,-36.18 718.64,-42.45"/>
<text text-anchor="middle" x="698.44" y="-57.8" font-family="Times New Roman,serif" font-size="14.00">0.019</text>
</g>
<!-- 5 -->
<g id="node6" class="node">
<title>5</title>
<g id="a_node6"><a xlink:href="to_child psychotherapist.svg" xlink:title="child psychotherapist">
<ellipse fill="none" stroke="black" cx="757.94" cy="-105" rx="88.28" ry="18"/>
<text text-anchor="middle" x="757.94" y="-101.3" font-family="Times New Roman,serif" font-size="14.00">child psychotherapist</text>
</a>
</g>
</g>
<!-- 5&#45;&gt;0 -->
<g id="edge6" class="edge">
<title>5&#45;&gt;0</title>
<path fill="none" stroke="black" d="M757.94,-86.8C757.94,-75.16 757.94,-59.55 757.94,-46.24"/>
<polygon fill="black" stroke="black" points="761.44,-46.18 757.94,-36.18 754.44,-46.18 761.44,-46.18"/>
<text text-anchor="middle" x="773.44" y="-57.8" font-family="Times New Roman,serif" font-size="14.00">0.019</text>
</g>
<!-- 6 -->
<g id="node7" class="node">
<title>6</title>
<g id="a_node7"><a xlink:href="to_community worker.svg" xlink:title="community worker">
<ellipse fill="none" stroke="black" cx="943.94" cy="-105" rx="79.09" ry="18"/>
<text text-anchor="middle" x="943.94" y="-101.3" font-family="Times New Roman,serif" font-size="14.00">community worker</text>
</a>
</g>
</g>
<!-- 6&#45;&gt;0 -->
<g id="edge7" class="edge">
<title>6&#45;&gt;0</title>
<path fill="none" stroke="black" d="M910.26,-88.61C879.86,-74.72 834.96,-54.2 801.78,-39.03"/>
<polygon fill="black" stroke="black" points="802.87,-35.68 792.32,-34.71 799.96,-42.05 802.87,-35.68"/>
<text text-anchor="middle" x="878.44" y="-57.8" font-family="Times New Roman,serif" font-size="14.00">0.019</text>
</g>
<!-- 7 -->
<g id="node8" class="node">
<title>7</title>
<g id="a_node8"><a xlink:href="to_crystallographer.svg" xlink:title="crystallographer">
<ellipse fill="none" stroke="black" cx="1109.94" cy="-105" rx="68.79" ry="18"/>
<text text-anchor="middle" x="1109.94" y="-101.3" font-family="Times New Roman,serif" font-size="14.00">crystallographer</text>
</a>
</g>
</g>
<!-- 7&#45;&gt;0 -->
<g id="edge8" class="edge">
<title>7&#45;&gt;0</title>
<path fill="none" stroke="black" d="M1061,-92.18C998.97,-77.2 891.86,-51.34 823,-34.71"/>
<polygon fill="black" stroke="black" points="823.67,-31.27 813.13,-32.33 822.03,-38.08 823.67,-31.27"/>
<text text-anchor="middle" x="971.44" y="-57.8" font-family="Times New Roman,serif" font-size="14.00">0.019</text>
</g>
<!-- 8 -->
<g id="node9" class="node">
<title>8</title>
<g id="a_node9"><a xlink:href="to_education administrator.svg" xlink:title="education administrator">
<ellipse fill="none" stroke="black" cx="1291.94" cy="-105" rx="95.58" ry="18"/>
<text text-anchor="middle" x="1291.94" y="-101.3" font-family="Times New Roman,serif" font-size="14.00">education administrator</text>
</a>
</g>
</g>
<!-- 8&#45;&gt;0 -->
<g id="edge9" class="edge">
<title>8&#45;&gt;0</title>
<path fill="none" stroke="black" d="M1223.55,-92.33C1162.58,-82 1070.87,-66.64 990.94,-54 940.23,-45.98 883.24,-37.41 838.32,-30.76"/>
<polygon fill="black" stroke="black" points="838.74,-27.28 828.34,-29.28 837.72,-34.21 838.74,-27.28"/>
<text text-anchor="middle" x="1097.44" y="-57.8" font-family="Times New Roman,serif" font-size="14.00">0.019</text>
</g>
<!-- 9 -->
<g id="node10" class="node">
<title>9</title>
<g id="a_node10"><a xlink:href="to_health and safety adviser.svg" xlink:title="health and safety adviser">
<ellipse fill="none" stroke="black" cx="1504.94" cy="-105" rx="99.38" ry="18"/>
<text text-anchor="middle" x="1504.94" y="-101.3" font-family="Times New Roman,serif" font-size="14.00">health and safety adviser</text>
</a>
</g>
</g>
<!-- 9&#45;&gt;0 -->
<g id="edge10" class="edge">
<title>9&#45;&gt;0</title>
<path fill="none" stroke="black" d="M1433.84,-92.41C1421.55,-90.52 1408.88,-88.64 1396.94,-87 1202.5,-60.25 973.52,-38.15 849.31,-26.94"/>
<polygon fill="black" stroke="black" points="849.36,-23.43 839.09,-26.03 848.73,-30.41 849.36,-23.43"/>
<text text-anchor="middle" x="1254.44" y="-57.8" font-family="Times New Roman,serif" font-size="14.00">0.019</text>
</g>
</g>
</svg>
