<?xml version="1.0" encoding="UTF-8" standalone="no"?>
<!DOCTYPE svg PUBLIC "-//W3C//DTD SVG 1.1//EN"
 "http://www.w3.org/Graphics/SVG/1.1/DTD/svg11.dtd">
<!-- Generated by graphviz version 2.44.1 (20200629.0800)
 -->
<!-- Title: test Pages: 1 -->
<svg width="1487pt" height="131pt"
 viewBox="0.00 0.00 1487.39 131.00" xmlns="http://www.w3.org/2000/svg" xmlns:xlink="http://www.w3.org/1999/xlink">
<g id="graph0" class="graph" transform="scale(1 1) rotate(0) translate(4 127)">
<title>test</title>
<polygon fill="white" stroke="transparent" points="-4,4 -4,-127 1483.39,-127 1483.39,4 -4,4"/>
<!-- 0 -->
<g id="node1" class="node">
<title>0</title>
<g id="a_node1"><a xlink:href="to_project manager.svg" xlink:title="project manager">
<ellipse fill="none" stroke="black" cx="809.6" cy="-18" rx="68.79" ry="18"/>
<text text-anchor="middle" x="809.6" y="-14.3" font-family="Times New Roman,serif" font-size="14.00">project manager</text>
</a>
</g>
</g>
<!-- 0&#45;&gt;0 -->
<g id="edge1" class="edge">
<title>0&#45;&gt;0</title>
<path fill="none" stroke="black" d="M872.08,-25.68C886.18,-24.99 896.49,-22.43 896.49,-18 896.49,-14.71 890.81,-12.45 882.12,-11.23"/>
<polygon fill="black" stroke="black" points="882.36,-7.73 872.08,-10.32 881.73,-14.7 882.36,-7.73"/>
<text text-anchor="middle" x="911.99" y="-14.3" font-family="Times New Roman,serif" font-size="14.00">0.356</text>
</g>
<!-- 1 -->
<g id="node2" class="node">
<title>1</title>
<g id="a_node2"><a xlink:href="to_it consultant.svg" xlink:title="it consultant">
<ellipse fill="none" stroke="black" cx="54.6" cy="-105" rx="54.69" ry="18"/>
<text text-anchor="middle" x="54.6" y="-101.3" font-family="Times New Roman,serif" font-size="14.00">it consultant</text>
</a>
</g>
</g>
<!-- 1&#45;&gt;0 -->
<g id="edge2" class="edge">
<title>1&#45;&gt;0</title>
<path fill="none" stroke="black" d="M94.05,-92.45C101.81,-90.43 109.92,-88.5 117.6,-87 337.6,-43.84 602.59,-27.51 731.51,-21.8"/>
<polygon fill="black" stroke="black" points="731.84,-25.29 741.68,-21.36 731.54,-18.3 731.84,-25.29"/>
<text text-anchor="middle" x="341.1" y="-57.8" font-family="Times New Roman,serif" font-size="14.00">0.044</text>
</g>
<!-- 2 -->
<g id="node3" class="node">
<title>2</title>
<g id="a_node3"><a xlink:href="to_structural engineer.svg" xlink:title="structural engineer">
<ellipse fill="none" stroke="black" cx="203.6" cy="-105" rx="76.89" ry="18"/>
<text text-anchor="middle" x="203.6" y="-101.3" font-family="Times New Roman,serif" font-size="14.00">structural engineer</text>
</a>
</g>
</g>
<!-- 2&#45;&gt;0 -->
<g id="edge3" class="edge">
<title>2&#45;&gt;0</title>
<path fill="none" stroke="black" d="M258.82,-92.4C268.71,-90.48 278.94,-88.6 288.6,-87 448.03,-60.61 636.32,-38.18 737.16,-26.86"/>
<polygon fill="black" stroke="black" points="737.69,-30.33 747.24,-25.74 736.91,-23.37 737.69,-30.33"/>
<text text-anchor="middle" x="519.1" y="-57.8" font-family="Times New Roman,serif" font-size="14.00">0.030</text>
</g>
<!-- 3 -->
<g id="node4" class="node">
<title>3</title>
<g id="a_node4"><a xlink:href="to_programme researcher.svg" xlink:title="programme researcher">
<ellipse fill="none" stroke="black" cx="389.6" cy="-105" rx="91.78" ry="18"/>
<text text-anchor="middle" x="389.6" y="-101.3" font-family="Times New Roman,serif" font-size="14.00">programme researcher</text>
</a>
</g>
</g>
<!-- 3&#45;&gt;0 -->
<g id="edge4" class="edge">
<title>3&#45;&gt;0</title>
<path fill="none" stroke="black" d="M451.12,-91.55C530.32,-75.52 667.23,-47.81 746.97,-31.67"/>
<polygon fill="black" stroke="black" points="747.77,-35.08 756.88,-29.67 746.38,-28.22 747.77,-35.08"/>
<text text-anchor="middle" x="641.1" y="-57.8" font-family="Times New Roman,serif" font-size="14.00">0.021</text>
</g>
<!-- 4 -->
<g id="node5" class="node">
<title>4</title>
<g id="a_node5"><a xlink:href="to_pharmacovigilance officer.svg" xlink:title="pharmacovigilance officer">
<ellipse fill="none" stroke="black" cx="603.6" cy="-105" rx="104.78" ry="18"/>
<text text-anchor="middle" x="603.6" y="-101.3" font-family="Times New Roman,serif" font-size="14.00">pharmacovigilance officer</text>
</a>
</g>
</g>
<!-- 4&#45;&gt;0 -->
<g id="edge5" class="edge">
<title>4&#45;&gt;0</title>
<path fill="none" stroke="black" d="M641.86,-88.21C676.68,-73.84 728.1,-52.63 764.82,-37.48"/>
<polygon fill="black" stroke="black" points="766.38,-40.62 774.29,-33.57 763.71,-34.15 766.38,-40.62"/>
<text text-anchor="middle" x="735.1" y="-57.8" font-family="Times New Roman,serif" font-size="14.00">0.020</text>
</g>
<!-- 5 -->
<g id="node6" class="node">
<title>5</title>
<g id="a_node6"><a xlink:href="to_production manager.svg" xlink:title="production manager">
<ellipse fill="none" stroke="black" cx="809.6" cy="-105" rx="83.39" ry="18"/>
<text text-anchor="middle" x="809.6" y="-101.3" font-family="Times New Roman,serif" font-size="14.00">production manager</text>
</a>
</g>
</g>
<!-- 5&#45;&gt;0 -->
<g id="edge6" class="edge">
<title>5&#45;&gt;0</title>
<path fill="none" stroke="black" d="M809.6,-86.8C809.6,-75.16 809.6,-59.55 809.6,-46.24"/>
<polygon fill="black" stroke="black" points="813.1,-46.18 809.6,-36.18 806.1,-46.18 813.1,-46.18"/>
<text text-anchor="middle" x="822.1" y="-57.8" font-family="Times New Roman,serif" font-size="14.00">0.02</text>
</g>
<!-- 6 -->
<g id="node7" class="node">
<title>6</title>
<g id="a_node7"><a xlink:href="to_qa analyst.svg" xlink:title="qa analyst">
<ellipse fill="none" stroke="black" cx="957.6" cy="-105" rx="46.59" ry="18"/>
<text text-anchor="middle" x="957.6" y="-101.3" font-family="Times New Roman,serif" font-size="14.00">qa analyst</text>
</a>
</g>
</g>
<!-- 6&#45;&gt;0 -->
<g id="edge7" class="edge">
<title>6&#45;&gt;0</title>
<path fill="none" stroke="black" d="M932.49,-89.58C908.63,-75.88 872.5,-55.13 845.58,-39.67"/>
<polygon fill="black" stroke="black" points="847.25,-36.59 836.83,-34.64 843.76,-42.66 847.25,-36.59"/>
<text text-anchor="middle" x="905.1" y="-57.8" font-family="Times New Roman,serif" font-size="14.00">0.02</text>
</g>
<!-- 7 -->
<g id="node8" class="node">
<title>7</title>
<g id="a_node8"><a xlink:href="to_sales manager.svg" xlink:title="sales manager">
<ellipse fill="none" stroke="black" cx="1083.6" cy="-105" rx="61.19" ry="18"/>
<text text-anchor="middle" x="1083.6" y="-101.3" font-family="Times New Roman,serif" font-size="14.00">sales manager</text>
</a>
</g>
</g>
<!-- 7&#45;&gt;0 -->
<g id="edge8" class="edge">
<title>7&#45;&gt;0</title>
<path fill="none" stroke="black" d="M1043.17,-91.46C995.2,-76.58 915.09,-51.73 862.3,-35.35"/>
<polygon fill="black" stroke="black" points="863.04,-31.91 852.45,-32.29 860.96,-38.6 863.04,-31.91"/>
<text text-anchor="middle" x="976.1" y="-57.8" font-family="Times New Roman,serif" font-size="14.00">0.02</text>
</g>
<!-- 8 -->
<g id="node9" class="node">
<title>8</title>
<g id="a_node9"><a xlink:href="to_investment analyst.svg" xlink:title="investment analyst">
<ellipse fill="none" stroke="black" cx="1239.6" cy="-105" rx="76.89" ry="18"/>
<text text-anchor="middle" x="1239.6" y="-101.3" font-family="Times New Roman,serif" font-size="14.00">investment analyst</text>
</a>
</g>
</g>
<!-- 8&#45;&gt;0 -->
<g id="edge9" class="edge">
<title>8&#45;&gt;0</title>
<path fill="none" stroke="black" d="M1183.71,-92.51C1133.67,-82.26 1058.28,-66.93 992.6,-54 953.17,-46.24 908.91,-37.77 873.79,-31.1"/>
<polygon fill="black" stroke="black" points="874.15,-27.61 863.67,-29.19 872.85,-34.49 874.15,-27.61"/>
<text text-anchor="middle" x="1082.1" y="-57.8" font-family="Times New Roman,serif" font-size="14.00">0.019</text>
</g>
<!-- 9 -->
<g id="node10" class="node">
<title>9</title>
<g id="a_node10"><a xlink:href="to_facilities manager.svg" xlink:title="facilities manager">
<ellipse fill="none" stroke="black" cx="1406.6" cy="-105" rx="72.59" ry="18"/>
<text text-anchor="middle" x="1406.6" y="-101.3" font-family="Times New Roman,serif" font-size="14.00">facilities manager</text>
</a>
</g>
</g>
<!-- 9&#45;&gt;0 -->
<g id="edge10" class="edge">
<title>9&#45;&gt;0</title>
<path fill="none" stroke="black" d="M1353.96,-92.47C1344.54,-90.54 1334.79,-88.64 1325.6,-87 1168.65,-59 982.93,-37.29 882.65,-26.51"/>
<polygon fill="black" stroke="black" points="882.95,-23.02 872.63,-25.43 882.2,-29.98 882.95,-23.02"/>
<text text-anchor="middle" x="1228.1" y="-57.8" font-family="Times New Roman,serif" font-size="14.00">0.013</text>
</g>
</g>
</svg>
