<?xml version="1.0" encoding="UTF-8" standalone="no"?>
<!DOCTYPE svg PUBLIC "-//W3C//DTD SVG 1.1//EN"
 "http://www.w3.org/Graphics/SVG/1.1/DTD/svg11.dtd">
<!-- Generated by graphviz version 2.44.1 (20200629.0800)
 -->
<!-- Title: press_editor Pages: 1 -->
<svg width="1420pt" height="131pt"
 viewBox="0.00 0.00 1419.94 131.00" xmlns="http://www.w3.org/2000/svg" xmlns:xlink="http://www.w3.org/1999/xlink">
<g id="graph0" class="graph" transform="scale(1 1) rotate(0) translate(4 127)">
<title>press_editor</title>
<polygon fill="white" stroke="transparent" points="-4,4 -4,-127 1415.94,-127 1415.94,4 -4,4"/>
<!-- 0 -->
<g id="node1" class="node">
<title>0</title>
<g id="a_node1"><a xlink:href="to_press editor.svg" xlink:title="press editor">
<ellipse fill="none" stroke="black" cx="711.55" cy="-18" rx="53.89" ry="18"/>
<text text-anchor="middle" x="711.55" y="-14.3" font-family="Times New Roman,serif" font-size="14.00">press editor</text>
</a>
</g>
</g>
<!-- 0&#45;&gt;0 -->
<g id="edge1" class="edge">
<title>0&#45;&gt;0</title>
<path fill="none" stroke="black" d="M760.3,-25.82C773.47,-25.4 783.49,-22.8 783.49,-18 783.49,-14.55 778.32,-12.23 770.51,-11.05"/>
<polygon fill="black" stroke="black" points="770.56,-7.54 760.3,-10.18 769.97,-14.52 770.56,-7.54"/>
<text text-anchor="middle" x="798.99" y="-14.3" font-family="Times New Roman,serif" font-size="14.00">0.176</text>
</g>
<!-- 1 -->
<g id="node2" class="node">
<title>1</title>
<g id="a_node2"><a xlink:href="to_journalist.svg" xlink:title="journalist">
<ellipse fill="none" stroke="black" cx="43.55" cy="-105" rx="43.59" ry="18"/>
<text text-anchor="middle" x="43.55" y="-101.3" font-family="Times New Roman,serif" font-size="14.00">journalist</text>
</a>
</g>
</g>
<!-- 1&#45;&gt;0 -->
<g id="edge2" class="edge">
<title>1&#45;&gt;0</title>
<path fill="none" stroke="black" d="M75.17,-92.55C81.83,-90.45 88.87,-88.47 95.55,-87 294.27,-43.39 535.52,-27.1 648.04,-21.57"/>
<polygon fill="black" stroke="black" points="648.37,-25.06 658.2,-21.08 648.04,-18.07 648.37,-25.06"/>
<text text-anchor="middle" x="296.05" y="-57.8" font-family="Times New Roman,serif" font-size="14.00">0.117</text>
</g>
<!-- 2 -->
<g id="node3" class="node">
<title>2</title>
<g id="a_node3"><a xlink:href="to_broadcasting presenter.svg" xlink:title="broadcasting presenter">
<ellipse fill="none" stroke="black" cx="197.55" cy="-105" rx="92.88" ry="18"/>
<text text-anchor="middle" x="197.55" y="-101.3" font-family="Times New Roman,serif" font-size="14.00">broadcasting presenter</text>
</a>
</g>
</g>
<!-- 2&#45;&gt;0 -->
<g id="edge3" class="edge">
<title>2&#45;&gt;0</title>
<path fill="none" stroke="black" d="M265.58,-92.65C276.92,-90.76 288.57,-88.82 299.55,-87 426,-66.03 574.31,-41.59 653.97,-28.47"/>
<polygon fill="black" stroke="black" points="654.97,-31.86 664.27,-26.78 653.84,-24.95 654.97,-31.86"/>
<text text-anchor="middle" x="507.05" y="-57.8" font-family="Times New Roman,serif" font-size="14.00">0.088</text>
</g>
<!-- 3 -->
<g id="node4" class="node">
<title>3</title>
<g id="a_node4"><a xlink:href="to_commissioning editor.svg" xlink:title="commissioning editor">
<ellipse fill="none" stroke="black" cx="397.55" cy="-105" rx="89.08" ry="18"/>
<text text-anchor="middle" x="397.55" y="-101.3" font-family="Times New Roman,serif" font-size="14.00">commissioning editor</text>
</a>
</g>
</g>
<!-- 3&#45;&gt;0 -->
<g id="edge4" class="edge">
<title>3&#45;&gt;0</title>
<path fill="none" stroke="black" d="M448.69,-90.15C507.34,-74.28 602.87,-48.42 661.19,-32.63"/>
<polygon fill="black" stroke="black" points="662.18,-35.99 670.92,-30 660.35,-29.23 662.18,-35.99"/>
<text text-anchor="middle" x="589.05" y="-57.8" font-family="Times New Roman,serif" font-size="14.00">0.058</text>
</g>
<!-- 4 -->
<g id="node5" class="node">
<title>4</title>
<g id="a_node5"><a xlink:href="to_marketing assistant.svg" xlink:title="marketing assistant">
<ellipse fill="none" stroke="black" cx="583.55" cy="-105" rx="79.09" ry="18"/>
<text text-anchor="middle" x="583.55" y="-101.3" font-family="Times New Roman,serif" font-size="14.00">marketing assistant</text>
</a>
</g>
</g>
<!-- 4&#45;&gt;0 -->
<g id="edge5" class="edge">
<title>4&#45;&gt;0</title>
<path fill="none" stroke="black" d="M607.92,-87.81C628.29,-74.29 657.47,-54.91 679.68,-40.16"/>
<polygon fill="black" stroke="black" points="681.73,-43 688.12,-34.55 677.86,-37.17 681.73,-43"/>
<text text-anchor="middle" x="671.05" y="-57.8" font-family="Times New Roman,serif" font-size="14.00">0.058</text>
</g>
<!-- 5 -->
<g id="node6" class="node">
<title>5</title>
<g id="a_node6"><a xlink:href="to_writer.svg" xlink:title="writer">
<ellipse fill="none" stroke="black" cx="711.55" cy="-105" rx="31.4" ry="18"/>
<text text-anchor="middle" x="711.55" y="-101.3" font-family="Times New Roman,serif" font-size="14.00">writer</text>
</a>
</g>
</g>
<!-- 5&#45;&gt;0 -->
<g id="edge6" class="edge">
<title>5&#45;&gt;0</title>
<path fill="none" stroke="black" d="M711.55,-86.8C711.55,-75.16 711.55,-59.55 711.55,-46.24"/>
<polygon fill="black" stroke="black" points="715.05,-46.18 711.55,-36.18 708.05,-46.18 715.05,-46.18"/>
<text text-anchor="middle" x="727.05" y="-57.8" font-family="Times New Roman,serif" font-size="14.00">0.058</text>
</g>
<!-- 6 -->
<g id="node7" class="node">
<title>6</title>
<g id="a_node7"><a xlink:href="to_advertising copywriter.svg" xlink:title="advertising copywriter">
<ellipse fill="none" stroke="black" cx="851.55" cy="-105" rx="90.98" ry="18"/>
<text text-anchor="middle" x="851.55" y="-101.3" font-family="Times New Roman,serif" font-size="14.00">advertising copywriter</text>
</a>
</g>
</g>
<!-- 6&#45;&gt;0 -->
<g id="edge7" class="edge">
<title>6&#45;&gt;0</title>
<path fill="none" stroke="black" d="M824.55,-87.61C801.91,-73.86 769.46,-54.16 745.14,-39.39"/>
<polygon fill="black" stroke="black" points="746.94,-36.39 736.58,-34.2 743.31,-42.38 746.94,-36.39"/>
<text text-anchor="middle" x="806.05" y="-57.8" font-family="Times New Roman,serif" font-size="14.00">0.029</text>
</g>
<!-- 7 -->
<g id="node8" class="node">
<title>7</title>
<g id="a_node8"><a xlink:href="to_aeronautical engineer.svg" xlink:title="aeronautical engineer">
<ellipse fill="none" stroke="black" cx="1046.55" cy="-105" rx="85.59" ry="18"/>
<text text-anchor="middle" x="1046.55" y="-101.3" font-family="Times New Roman,serif" font-size="14.00">aeronautical engineer</text>
</a>
</g>
</g>
<!-- 7&#45;&gt;0 -->
<g id="edge8" class="edge">
<title>7&#45;&gt;0</title>
<path fill="none" stroke="black" d="M994.2,-90.72C931.19,-74.73 826.03,-48.05 763.28,-32.13"/>
<polygon fill="black" stroke="black" points="763.77,-28.64 753.21,-29.57 762.04,-35.42 763.77,-28.64"/>
<text text-anchor="middle" x="915.05" y="-57.8" font-family="Times New Roman,serif" font-size="14.00">0.029</text>
</g>
<!-- 8 -->
<g id="node9" class="node">
<title>8</title>
<g id="a_node9"><a xlink:href="to_armed forces officer.svg" xlink:title="armed forces officer">
<ellipse fill="none" stroke="black" cx="1235.55" cy="-105" rx="85.29" ry="18"/>
<text text-anchor="middle" x="1235.55" y="-101.3" font-family="Times New Roman,serif" font-size="14.00">armed forces officer</text>
</a>
</g>
</g>
<!-- 8&#45;&gt;0 -->
<g id="edge9" class="edge">
<title>8&#45;&gt;0</title>
<path fill="none" stroke="black" d="M1173.64,-92.61C1162.94,-90.7 1151.93,-88.77 1141.55,-87 1008.69,-64.4 852.29,-40.29 769.6,-27.74"/>
<polygon fill="black" stroke="black" points="770.06,-24.27 759.65,-26.23 769.01,-31.19 770.06,-24.27"/>
<text text-anchor="middle" x="1039.05" y="-57.8" font-family="Times New Roman,serif" font-size="14.00">0.029</text>
</g>
<!-- 9 -->
<g id="node10" class="node">
<title>9</title>
<g id="a_node10"><a xlink:href="to_auditor.svg" xlink:title="auditor">
<ellipse fill="none" stroke="black" cx="1375.55" cy="-105" rx="36.29" ry="18"/>
<text text-anchor="middle" x="1375.55" y="-101.3" font-family="Times New Roman,serif" font-size="14.00">auditor</text>
</a>
</g>
</g>
<!-- 9&#45;&gt;0 -->
<g id="edge10" class="edge">
<title>9&#45;&gt;0</title>
<path fill="none" stroke="black" d="M1348.63,-92.86C1342.44,-90.64 1335.84,-88.52 1329.55,-87 1131.17,-38.96 888.67,-24.79 775.46,-20.66"/>
<polygon fill="black" stroke="black" points="775.36,-17.16 765.25,-20.3 775.12,-24.15 775.36,-17.16"/>
<text text-anchor="middle" x="1245.05" y="-57.8" font-family="Times New Roman,serif" font-size="14.00">0.029</text>
</g>
</g>
</svg>
