<?xml version="1.0" encoding="UTF-8" standalone="no"?>
<!DOCTYPE svg PUBLIC "-//W3C//DTD SVG 1.1//EN"
 "http://www.w3.org/Graphics/SVG/1.1/DTD/svg11.dtd">
<!-- Generated by graphviz version 2.44.1 (20200629.0800)
 -->
<!-- Title: pr_officer Pages: 1 -->
<svg width="1388pt" height="131pt"
 viewBox="0.00 0.00 1388.08 131.00" xmlns="http://www.w3.org/2000/svg" xmlns:xlink="http://www.w3.org/1999/xlink">
<g id="graph0" class="graph" transform="scale(1 1) rotate(0) translate(4 127)">
<title>pr_officer</title>
<polygon fill="white" stroke="transparent" points="-4,4 -4,-127 1384.08,-127 1384.08,4 -4,4"/>
<!-- 0 -->
<g id="node1" class="node">
<title>0</title>
<g id="a_node1"><a xlink:href="to_pr officer.svg" xlink:title="pr officer">
<ellipse fill="none" stroke="black" cx="757.64" cy="-18" rx="44.69" ry="18"/>
<text text-anchor="middle" x="757.64" y="-14.3" font-family="Times New Roman,serif" font-size="14.00">pr officer</text>
</a>
</g>
</g>
<!-- 0&#45;&gt;0 -->
<g id="edge1" class="edge">
<title>0&#45;&gt;0</title>
<path fill="none" stroke="black" d="M798.14,-25.87C810.66,-25.71 820.49,-23.09 820.49,-18 820.49,-14.42 815.63,-12.07 808.39,-10.93"/>
<polygon fill="black" stroke="black" points="808.38,-7.41 798.14,-10.13 807.84,-14.39 808.38,-7.41"/>
<text text-anchor="middle" x="835.99" y="-14.3" font-family="Times New Roman,serif" font-size="14.00">0.086</text>
</g>
<!-- 1 -->
<g id="node2" class="node">
<title>1</title>
<g id="a_node2"><a xlink:href="to_pharmacovigilance officer.svg" xlink:title="pharmacovigilance officer">
<ellipse fill="none" stroke="black" cx="104.64" cy="-105" rx="104.78" ry="18"/>
<text text-anchor="middle" x="104.64" y="-101.3" font-family="Times New Roman,serif" font-size="14.00">pharmacovigilance officer</text>
</a>
</g>
</g>
<!-- 1&#45;&gt;0 -->
<g id="edge2" class="edge">
<title>1&#45;&gt;0</title>
<path fill="none" stroke="black" d="M180.35,-92.57C193.13,-90.68 206.26,-88.76 218.64,-87 326.54,-71.63 353.52,-67.73 461.64,-54 546.63,-43.21 645.49,-31.73 704.74,-24.98"/>
<polygon fill="black" stroke="black" points="705.43,-28.42 714.97,-23.81 704.64,-21.47 705.43,-28.42"/>
<text text-anchor="middle" x="477.14" y="-57.8" font-family="Times New Roman,serif" font-size="14.00">0.067</text>
</g>
<!-- 2 -->
<g id="node3" class="node">
<title>2</title>
<g id="a_node3"><a xlink:href="to_broadcasting presenter.svg" xlink:title="broadcasting presenter">
<ellipse fill="none" stroke="black" cx="320.64" cy="-105" rx="92.88" ry="18"/>
<text text-anchor="middle" x="320.64" y="-101.3" font-family="Times New Roman,serif" font-size="14.00">broadcasting presenter</text>
</a>
</g>
</g>
<!-- 2&#45;&gt;0 -->
<g id="edge3" class="edge">
<title>2&#45;&gt;0</title>
<path fill="none" stroke="black" d="M382.49,-91.49C433.28,-81.26 507.08,-66.5 571.64,-54 617.64,-45.09 670.1,-35.25 707.56,-28.27"/>
<polygon fill="black" stroke="black" points="708.51,-31.66 717.71,-26.39 707.23,-24.78 708.51,-31.66"/>
<text text-anchor="middle" x="587.14" y="-57.8" font-family="Times New Roman,serif" font-size="14.00">0.057</text>
</g>
<!-- 3 -->
<g id="node4" class="node">
<title>3</title>
<g id="a_node4"><a xlink:href="to_it consultant.svg" xlink:title="it consultant">
<ellipse fill="none" stroke="black" cx="486.64" cy="-105" rx="54.69" ry="18"/>
<text text-anchor="middle" x="486.64" y="-101.3" font-family="Times New Roman,serif" font-size="14.00">it consultant</text>
</a>
</g>
</g>
<!-- 3&#45;&gt;0 -->
<g id="edge4" class="edge">
<title>3&#45;&gt;0</title>
<path fill="none" stroke="black" d="M524.89,-92C574.65,-76.4 661.38,-49.19 713.76,-32.76"/>
<polygon fill="black" stroke="black" points="714.94,-36.06 723.44,-29.73 712.85,-29.38 714.94,-36.06"/>
<text text-anchor="middle" x="654.14" y="-57.8" font-family="Times New Roman,serif" font-size="14.00">0.057</text>
</g>
<!-- 4 -->
<g id="node5" class="node">
<title>4</title>
<g id="a_node5"><a xlink:href="to_project manager.svg" xlink:title="project manager">
<ellipse fill="none" stroke="black" cx="627.64" cy="-105" rx="68.79" ry="18"/>
<text text-anchor="middle" x="627.64" y="-101.3" font-family="Times New Roman,serif" font-size="14.00">project manager</text>
</a>
</g>
</g>
<!-- 4&#45;&gt;0 -->
<g id="edge5" class="edge">
<title>4&#45;&gt;0</title>
<path fill="none" stroke="black" d="M652.09,-88.01C673.13,-74.26 703.6,-54.33 726.4,-39.42"/>
<polygon fill="black" stroke="black" points="728.58,-42.18 735.04,-33.78 724.75,-36.32 728.58,-42.18"/>
<text text-anchor="middle" x="716.14" y="-57.8" font-family="Times New Roman,serif" font-size="14.00">0.057</text>
</g>
<!-- 5 -->
<g id="node6" class="node">
<title>5</title>
<g id="a_node6"><a xlink:href="to_secretary.svg" xlink:title="secretary">
<ellipse fill="none" stroke="black" cx="757.64" cy="-105" rx="43.59" ry="18"/>
<text text-anchor="middle" x="757.64" y="-101.3" font-family="Times New Roman,serif" font-size="14.00">secretary</text>
</a>
</g>
</g>
<!-- 5&#45;&gt;0 -->
<g id="edge6" class="edge">
<title>5&#45;&gt;0</title>
<path fill="none" stroke="black" d="M757.64,-86.8C757.64,-75.16 757.64,-59.55 757.64,-46.24"/>
<polygon fill="black" stroke="black" points="761.14,-46.18 757.64,-36.18 754.14,-46.18 761.14,-46.18"/>
<text text-anchor="middle" x="773.14" y="-57.8" font-family="Times New Roman,serif" font-size="14.00">0.038</text>
</g>
<!-- 6 -->
<g id="node7" class="node">
<title>6</title>
<g id="a_node7"><a xlink:href="to_lecturer.svg" xlink:title="lecturer">
<ellipse fill="none" stroke="black" cx="856.64" cy="-105" rx="37.89" ry="18"/>
<text text-anchor="middle" x="856.64" y="-101.3" font-family="Times New Roman,serif" font-size="14.00">lecturer</text>
</a>
</g>
</g>
<!-- 6&#45;&gt;0 -->
<g id="edge7" class="edge">
<title>6&#45;&gt;0</title>
<path fill="none" stroke="black" d="M838.94,-88.8C823.51,-75.55 800.92,-56.16 783.47,-41.18"/>
<polygon fill="black" stroke="black" points="785.72,-38.5 775.86,-34.64 781.16,-43.81 785.72,-38.5"/>
<text text-anchor="middle" x="829.14" y="-57.8" font-family="Times New Roman,serif" font-size="14.00">0.028</text>
</g>
<!-- 7 -->
<g id="node8" class="node">
<title>7</title>
<g id="a_node8"><a xlink:href="to_legal executive.svg" xlink:title="legal executive">
<ellipse fill="none" stroke="black" cx="975.64" cy="-105" rx="63.09" ry="18"/>
<text text-anchor="middle" x="975.64" y="-101.3" font-family="Times New Roman,serif" font-size="14.00">legal executive</text>
</a>
</g>
</g>
<!-- 7&#45;&gt;0 -->
<g id="edge8" class="edge">
<title>7&#45;&gt;0</title>
<path fill="none" stroke="black" d="M940.36,-90.02C914.89,-79.96 879.67,-66.07 848.64,-54 832.31,-47.65 814.31,-40.71 798.66,-34.7"/>
<polygon fill="black" stroke="black" points="799.84,-31.4 789.25,-31.09 797.33,-37.94 799.84,-31.4"/>
<text text-anchor="middle" x="898.14" y="-57.8" font-family="Times New Roman,serif" font-size="14.00">0.028</text>
</g>
<!-- 8 -->
<g id="node9" class="node">
<title>8</title>
<g id="a_node9"><a xlink:href="to_marketing assistant.svg" xlink:title="marketing assistant">
<ellipse fill="none" stroke="black" cx="1135.64" cy="-105" rx="79.09" ry="18"/>
<text text-anchor="middle" x="1135.64" y="-101.3" font-family="Times New Roman,serif" font-size="14.00">marketing assistant</text>
</a>
</g>
</g>
<!-- 8&#45;&gt;0 -->
<g id="edge9" class="edge">
<title>8&#45;&gt;0</title>
<path fill="none" stroke="black" d="M1082.37,-91.62C1038.25,-81.41 973.91,-66.61 917.64,-54 880.21,-45.61 837.8,-36.35 806.05,-29.46"/>
<polygon fill="black" stroke="black" points="806.65,-26.01 796.14,-27.31 805.17,-32.85 806.65,-26.01"/>
<text text-anchor="middle" x="998.14" y="-57.8" font-family="Times New Roman,serif" font-size="14.00">0.028</text>
</g>
<!-- 9 -->
<g id="node10" class="node">
<title>9</title>
<g id="a_node10"><a xlink:href="to_teaching assistant.svg" xlink:title="teaching assistant">
<ellipse fill="none" stroke="black" cx="1306.64" cy="-105" rx="73.39" ry="18"/>
<text text-anchor="middle" x="1306.64" y="-101.3" font-family="Times New Roman,serif" font-size="14.00">teaching assistant</text>
</a>
</g>
</g>
<!-- 9&#45;&gt;0 -->
<g id="edge10" class="edge">
<title>9&#45;&gt;0</title>
<path fill="none" stroke="black" d="M1252.68,-92.6C1243.03,-90.66 1233.05,-88.72 1223.64,-87 1074.28,-59.75 896.4,-36.25 809.97,-25.4"/>
<polygon fill="black" stroke="black" points="810.25,-21.91 799.89,-24.14 809.38,-28.86 810.25,-21.91"/>
<text text-anchor="middle" x="1124.14" y="-57.8" font-family="Times New Roman,serif" font-size="14.00">0.028</text>
</g>
</g>
</svg>
