<?xml version="1.0" encoding="UTF-8" standalone="no"?>
<!DOCTYPE svg PUBLIC "-//W3C//DTD SVG 1.1//EN"
 "http://www.w3.org/Graphics/SVG/1.1/DTD/svg11.dtd">
<!-- Generated by graphviz version 2.44.1 (20200629.0800)
 -->
<!-- Title: patent_attorney Pages: 1 -->
<svg width="1538pt" height="131pt"
 viewBox="0.00 0.00 1538.13 131.00" xmlns="http://www.w3.org/2000/svg" xmlns:xlink="http://www.w3.org/1999/xlink">
<g id="graph0" class="graph" transform="scale(1 1) rotate(0) translate(4 127)">
<title>patent_attorney</title>
<polygon fill="white" stroke="transparent" points="-4,4 -4,-127 1534.13,-127 1534.13,4 -4,4"/>
<!-- 0 -->
<g id="node1" class="node">
<title>0</title>
<g id="a_node1"><a xlink:href="to_patent attorney.svg" xlink:title="patent attorney">
<ellipse fill="none" stroke="black" cx="875.64" cy="-18" rx="64.19" ry="18"/>
<text text-anchor="middle" x="875.64" y="-14.3" font-family="Times New Roman,serif" font-size="14.00">patent attorney</text>
</a>
</g>
</g>
<!-- 0&#45;&gt;0 -->
<g id="edge1" class="edge">
<title>0&#45;&gt;0</title>
<path fill="none" stroke="black" d="M934.11,-25.72C947.85,-25.08 957.99,-22.51 957.99,-18 957.99,-14.69 952.52,-12.42 944.17,-11.2"/>
<polygon fill="black" stroke="black" points="944.39,-7.7 934.11,-10.28 943.75,-14.67 944.39,-7.7"/>
<text text-anchor="middle" x="973.49" y="-14.3" font-family="Times New Roman,serif" font-size="14.00">0.235</text>
</g>
<!-- 1 -->
<g id="node2" class="node">
<title>1</title>
<g id="a_node2"><a xlink:href="to_pharmacovigilance officer.svg" xlink:title="pharmacovigilance officer">
<ellipse fill="none" stroke="black" cx="104.64" cy="-105" rx="104.78" ry="18"/>
<text text-anchor="middle" x="104.64" y="-101.3" font-family="Times New Roman,serif" font-size="14.00">pharmacovigilance officer</text>
</a>
</g>
</g>
<!-- 1&#45;&gt;0 -->
<g id="edge2" class="edge">
<title>1&#45;&gt;0</title>
<path fill="none" stroke="black" d="M179.98,-92.47C192.55,-90.6 205.46,-88.72 217.64,-87 329.06,-71.3 356.78,-66.16 468.64,-54 585.95,-41.25 722.7,-30.29 804.06,-24.18"/>
<polygon fill="black" stroke="black" points="804.48,-27.66 814.19,-23.42 803.96,-20.68 804.48,-27.66"/>
<text text-anchor="middle" x="484.14" y="-57.8" font-family="Times New Roman,serif" font-size="14.00">0.058</text>
</g>
<!-- 2 -->
<g id="node3" class="node">
<title>2</title>
<g id="a_node3"><a xlink:href="to_research scientist.svg" xlink:title="research scientist">
<ellipse fill="none" stroke="black" cx="299.64" cy="-105" rx="72.59" ry="18"/>
<text text-anchor="middle" x="299.64" y="-101.3" font-family="Times New Roman,serif" font-size="14.00">research scientist</text>
</a>
</g>
</g>
<!-- 2&#45;&gt;0 -->
<g id="edge3" class="edge">
<title>2&#45;&gt;0</title>
<path fill="none" stroke="black" d="M352.47,-92.5C362.15,-90.55 372.18,-88.63 381.64,-87 532.9,-60.94 711.58,-38.36 807.16,-26.94"/>
<polygon fill="black" stroke="black" points="807.75,-30.4 817.27,-25.74 806.92,-23.44 807.75,-30.4"/>
<text text-anchor="middle" x="601.14" y="-57.8" font-family="Times New Roman,serif" font-size="14.00">0.058</text>
</g>
<!-- 3 -->
<g id="node4" class="node">
<title>3</title>
<g id="a_node4"><a xlink:href="to_training and development officer.svg" xlink:title="training and development officer">
<ellipse fill="none" stroke="black" cx="518.64" cy="-105" rx="128.08" ry="18"/>
<text text-anchor="middle" x="518.64" y="-101.3" font-family="Times New Roman,serif" font-size="14.00">training and development officer</text>
</a>
</g>
</g>
<!-- 3&#45;&gt;0 -->
<g id="edge4" class="edge">
<title>3&#45;&gt;0</title>
<path fill="none" stroke="black" d="M580.83,-89.19C647.76,-73.26 753.36,-48.12 818.34,-32.64"/>
<polygon fill="black" stroke="black" points="819.49,-35.97 828.41,-30.25 817.87,-29.16 819.49,-35.97"/>
<text text-anchor="middle" x="734.14" y="-57.8" font-family="Times New Roman,serif" font-size="14.00">0.058</text>
</g>
<!-- 4 -->
<g id="node5" class="node">
<title>4</title>
<g id="a_node5"><a xlink:href="to_barristers clerk.svg" xlink:title="barristers clerk">
<ellipse fill="none" stroke="black" cx="728.64" cy="-105" rx="64.19" ry="18"/>
<text text-anchor="middle" x="728.64" y="-101.3" font-family="Times New Roman,serif" font-size="14.00">barristers clerk</text>
</a>
</g>
</g>
<!-- 4&#45;&gt;0 -->
<g id="edge5" class="edge">
<title>4&#45;&gt;0</title>
<path fill="none" stroke="black" d="M755.26,-88.61C778.94,-74.91 813.77,-54.77 839.88,-39.68"/>
<polygon fill="black" stroke="black" points="841.82,-42.6 848.72,-34.57 838.31,-36.54 841.82,-42.6"/>
<text text-anchor="middle" x="827.14" y="-57.8" font-family="Times New Roman,serif" font-size="14.00">0.029</text>
</g>
<!-- 5 -->
<g id="node6" class="node">
<title>5</title>
<g id="a_node6"><a xlink:href="to_careers adviser.svg" xlink:title="careers adviser">
<ellipse fill="none" stroke="black" cx="875.64" cy="-105" rx="64.99" ry="18"/>
<text text-anchor="middle" x="875.64" y="-101.3" font-family="Times New Roman,serif" font-size="14.00">careers adviser</text>
</a>
</g>
</g>
<!-- 5&#45;&gt;0 -->
<g id="edge6" class="edge">
<title>5&#45;&gt;0</title>
<path fill="none" stroke="black" d="M875.64,-86.8C875.64,-75.16 875.64,-59.55 875.64,-46.24"/>
<polygon fill="black" stroke="black" points="879.14,-46.18 875.64,-36.18 872.14,-46.18 879.14,-46.18"/>
<text text-anchor="middle" x="891.14" y="-57.8" font-family="Times New Roman,serif" font-size="14.00">0.029</text>
</g>
<!-- 6 -->
<g id="node7" class="node">
<title>6</title>
<g id="a_node7"><a xlink:href="to_curator.svg" xlink:title="curator">
<ellipse fill="none" stroke="black" cx="994.64" cy="-105" rx="36.29" ry="18"/>
<text text-anchor="middle" x="994.64" y="-101.3" font-family="Times New Roman,serif" font-size="14.00">curator</text>
</a>
</g>
</g>
<!-- 6&#45;&gt;0 -->
<g id="edge7" class="edge">
<title>6&#45;&gt;0</title>
<path fill="none" stroke="black" d="M974.72,-89.77C956.03,-76.42 927.8,-56.26 906.25,-40.86"/>
<polygon fill="black" stroke="black" points="908.23,-37.98 898.06,-35.01 904.16,-43.67 908.23,-37.98"/>
<text text-anchor="middle" x="958.14" y="-57.8" font-family="Times New Roman,serif" font-size="14.00">0.029</text>
</g>
<!-- 7 -->
<g id="node8" class="node">
<title>7</title>
<g id="a_node8"><a xlink:href="to_debt adviser.svg" xlink:title="debt adviser">
<ellipse fill="none" stroke="black" cx="1104.64" cy="-105" rx="55.49" ry="18"/>
<text text-anchor="middle" x="1104.64" y="-101.3" font-family="Times New Roman,serif" font-size="14.00">debt adviser</text>
</a>
</g>
</g>
<!-- 7&#45;&gt;0 -->
<g id="edge8" class="edge">
<title>7&#45;&gt;0</title>
<path fill="none" stroke="black" d="M1071.64,-90.54C1046.09,-80.24 1009.77,-65.83 977.64,-54 960.6,-47.73 941.84,-41.18 925.1,-35.48"/>
<polygon fill="black" stroke="black" points="926.1,-32.12 915.51,-32.22 923.85,-38.75 926.1,-32.12"/>
<text text-anchor="middle" x="1032.14" y="-57.8" font-family="Times New Roman,serif" font-size="14.00">0.029</text>
</g>
<!-- 8 -->
<g id="node9" class="node">
<title>8</title>
<g id="a_node9"><a xlink:href="to_education administrator.svg" xlink:title="education administrator">
<ellipse fill="none" stroke="black" cx="1273.64" cy="-105" rx="95.58" ry="18"/>
<text text-anchor="middle" x="1273.64" y="-101.3" font-family="Times New Roman,serif" font-size="14.00">education administrator</text>
</a>
</g>
</g>
<!-- 8&#45;&gt;0 -->
<g id="edge9" class="edge">
<title>8&#45;&gt;0</title>
<path fill="none" stroke="black" d="M1215.77,-90.55C1171.02,-80.24 1107.49,-65.84 1051.64,-54 1013.8,-45.98 971.27,-37.5 937.49,-30.9"/>
<polygon fill="black" stroke="black" points="937.79,-27.4 927.31,-28.92 936.45,-34.27 937.79,-27.4"/>
<text text-anchor="middle" x="1134.14" y="-57.8" font-family="Times New Roman,serif" font-size="14.00">0.029</text>
</g>
<!-- 9 -->
<g id="node10" class="node">
<title>9</title>
<g id="a_node10"><a xlink:href="to_forensic scientist.svg" xlink:title="forensic scientist">
<ellipse fill="none" stroke="black" cx="1458.64" cy="-105" rx="71.49" ry="18"/>
<text text-anchor="middle" x="1458.64" y="-101.3" font-family="Times New Roman,serif" font-size="14.00">forensic scientist</text>
</a>
</g>
</g>
<!-- 9&#45;&gt;0 -->
<g id="edge10" class="edge">
<title>9&#45;&gt;0</title>
<path fill="none" stroke="black" d="M1406.66,-92.45C1397.35,-90.53 1387.73,-88.63 1378.64,-87 1224.5,-59.35 1041.97,-37.32 944.75,-26.43"/>
<polygon fill="black" stroke="black" points="945.08,-22.95 934.75,-25.32 944.3,-29.9 945.08,-22.95"/>
<text text-anchor="middle" x="1284.14" y="-57.8" font-family="Times New Roman,serif" font-size="14.00">0.029</text>
</g>
</g>
</svg>
