<?xml version="1.0" encoding="UTF-8" standalone="no"?>
<!DOCTYPE svg PUBLIC "-//W3C//DTD SVG 1.1//EN"
 "http://www.w3.org/Graphics/SVG/1.1/DTD/svg11.dtd">
<!-- Generated by graphviz version 2.44.1 (20200629.0800)
 -->
<!-- Title: test Pages: 1 -->
<svg width="1355pt" height="131pt"
 viewBox="0.00 0.00 1355.44 131.00" xmlns="http://www.w3.org/2000/svg" xmlns:xlink="http://www.w3.org/1999/xlink">
<g id="graph0" class="graph" transform="scale(1 1) rotate(0) translate(4 127)">
<title>test</title>
<polygon fill="white" stroke="transparent" points="-4,4 -4,-127 1351.44,-127 1351.44,4 -4,4"/>
<!-- 0 -->
<g id="node1" class="node">
<title>0</title>
<g id="a_node1"><a xlink:href="to_project manager.svg" xlink:title="project manager">
<ellipse fill="none" stroke="black" cx="68.89" cy="-105" rx="68.79" ry="18"/>
<text text-anchor="middle" x="68.89" y="-101.3" font-family="Times New Roman,serif" font-size="14.00">project manager</text>
</a>
</g>
</g>
<!-- 1 -->
<g id="node2" class="node">
<title>1</title>
<g id="a_node2"><a xlink:href="to_programme researcher.svg" xlink:title="programme researcher">
<ellipse fill="none" stroke="black" cx="622.89" cy="-18" rx="91.78" ry="18"/>
<text text-anchor="middle" x="622.89" y="-14.3" font-family="Times New Roman,serif" font-size="14.00">programme researcher</text>
</a>
</g>
</g>
<!-- 0&#45;&gt;1 -->
<g id="edge1" class="edge">
<title>0&#45;&gt;1</title>
<path fill="none" stroke="black" d="M114.2,-91.31C156.29,-79.96 220.88,-63.67 277.89,-54 361.48,-39.83 457.51,-30.66 526.99,-25.27"/>
<polygon fill="black" stroke="black" points="527.34,-28.76 537.04,-24.51 526.81,-21.78 527.34,-28.76"/>
<text text-anchor="middle" x="293.39" y="-57.8" font-family="Times New Roman,serif" font-size="14.00">0.182</text>
</g>
<!-- 1&#45;&gt;1 -->
<g id="edge2" class="edge">
<title>1&#45;&gt;1</title>
<path fill="none" stroke="black" d="M706.55,-25.44C721.82,-24.5 732.54,-22.02 732.54,-18 732.54,-14.95 726.38,-12.79 716.76,-11.51"/>
<polygon fill="black" stroke="black" points="716.83,-8 706.55,-10.56 716.18,-14.97 716.83,-8"/>
<text text-anchor="middle" x="748.04" y="-14.3" font-family="Times New Roman,serif" font-size="14.00">0.140</text>
</g>
<!-- 2 -->
<g id="node3" class="node">
<title>2</title>
<g id="a_node3"><a xlink:href="to_lecturer.svg" xlink:title="lecturer">
<ellipse fill="none" stroke="black" cx="193.89" cy="-105" rx="37.89" ry="18"/>
<text text-anchor="middle" x="193.89" y="-101.3" font-family="Times New Roman,serif" font-size="14.00">lecturer</text>
</a>
</g>
</g>
<!-- 2&#45;&gt;1 -->
<g id="edge3" class="edge">
<title>2&#45;&gt;1</title>
<path fill="none" stroke="black" d="M221.89,-92.87C227.78,-90.75 234,-88.68 239.89,-87 339.68,-58.64 457.6,-39.84 535.98,-29.32"/>
<polygon fill="black" stroke="black" points="536.84,-32.74 546.29,-27.96 535.92,-25.8 536.84,-32.74"/>
<text text-anchor="middle" x="391.39" y="-57.8" font-family="Times New Roman,serif" font-size="14.00">0.064</text>
</g>
<!-- 3 -->
<g id="node4" class="node">
<title>3</title>
<g id="a_node4"><a xlink:href="to_it consultant.svg" xlink:title="it consultant">
<ellipse fill="none" stroke="black" cx="303.89" cy="-105" rx="54.69" ry="18"/>
<text text-anchor="middle" x="303.89" y="-101.3" font-family="Times New Roman,serif" font-size="14.00">it consultant</text>
</a>
</g>
</g>
<!-- 3&#45;&gt;1 -->
<g id="edge4" class="edge">
<title>3&#45;&gt;1</title>
<path fill="none" stroke="black" d="M344.89,-92.91C352.22,-90.94 359.78,-88.91 366.89,-87 433.03,-69.28 508.84,-49.16 560.7,-35.44"/>
<polygon fill="black" stroke="black" points="561.64,-38.81 570.41,-32.87 559.85,-32.04 561.64,-38.81"/>
<text text-anchor="middle" x="502.39" y="-57.8" font-family="Times New Roman,serif" font-size="14.00">0.056</text>
</g>
<!-- 4 -->
<g id="node5" class="node">
<title>4</title>
<g id="a_node5"><a xlink:href="to_research scientist.svg" xlink:title="research scientist">
<ellipse fill="none" stroke="black" cx="448.89" cy="-105" rx="72.59" ry="18"/>
<text text-anchor="middle" x="448.89" y="-101.3" font-family="Times New Roman,serif" font-size="14.00">research scientist</text>
</a>
</g>
</g>
<!-- 4&#45;&gt;1 -->
<g id="edge5" class="edge">
<title>4&#45;&gt;1</title>
<path fill="none" stroke="black" d="M480.4,-88.61C508.63,-74.82 550.22,-54.5 581.19,-39.37"/>
<polygon fill="black" stroke="black" points="582.99,-42.39 590.44,-34.85 579.92,-36.1 582.99,-42.39"/>
<text text-anchor="middle" x="562.39" y="-57.8" font-family="Times New Roman,serif" font-size="14.00">0.033</text>
</g>
<!-- 5 -->
<g id="node6" class="node">
<title>5</title>
<g id="a_node6"><a xlink:href="to_production manager.svg" xlink:title="production manager">
<ellipse fill="none" stroke="black" cx="622.89" cy="-105" rx="83.39" ry="18"/>
<text text-anchor="middle" x="622.89" y="-101.3" font-family="Times New Roman,serif" font-size="14.00">production manager</text>
</a>
</g>
</g>
<!-- 5&#45;&gt;1 -->
<g id="edge6" class="edge">
<title>5&#45;&gt;1</title>
<path fill="none" stroke="black" d="M622.89,-86.8C622.89,-75.16 622.89,-59.55 622.89,-46.24"/>
<polygon fill="black" stroke="black" points="626.39,-46.18 622.89,-36.18 619.39,-46.18 626.39,-46.18"/>
<text text-anchor="middle" x="638.39" y="-57.8" font-family="Times New Roman,serif" font-size="14.00">0.022</text>
</g>
<!-- 6 -->
<g id="node7" class="node">
<title>6</title>
<g id="a_node7"><a xlink:href="to_heritage manager.svg" xlink:title="heritage manager">
<ellipse fill="none" stroke="black" cx="795.89" cy="-105" rx="71.49" ry="18"/>
<text text-anchor="middle" x="795.89" y="-101.3" font-family="Times New Roman,serif" font-size="14.00">heritage manager</text>
</a>
</g>
</g>
<!-- 6&#45;&gt;1 -->
<g id="edge7" class="edge">
<title>6&#45;&gt;1</title>
<path fill="none" stroke="black" d="M764.56,-88.61C736.5,-74.82 695.15,-54.5 664.35,-39.37"/>
<polygon fill="black" stroke="black" points="665.68,-36.12 655.16,-34.85 662.59,-42.41 665.68,-36.12"/>
<text text-anchor="middle" x="735.39" y="-57.8" font-family="Times New Roman,serif" font-size="14.00">0.016</text>
</g>
<!-- 7 -->
<g id="node8" class="node">
<title>7</title>
<g id="a_node8"><a xlink:href="to_careers adviser.svg" xlink:title="careers adviser">
<ellipse fill="none" stroke="black" cx="949.89" cy="-105" rx="64.99" ry="18"/>
<text text-anchor="middle" x="949.89" y="-101.3" font-family="Times New Roman,serif" font-size="14.00">careers adviser</text>
</a>
</g>
</g>
<!-- 7&#45;&gt;1 -->
<g id="edge8" class="edge">
<title>7&#45;&gt;1</title>
<path fill="none" stroke="black" d="M904.08,-92.09C847.1,-77.28 749.56,-51.93 685.66,-35.32"/>
<polygon fill="black" stroke="black" points="686.26,-31.86 675.7,-32.73 684.5,-38.63 686.26,-31.86"/>
<text text-anchor="middle" x="822.39" y="-57.8" font-family="Times New Roman,serif" font-size="14.00">0.014</text>
</g>
<!-- 8 -->
<g id="node9" class="node">
<title>8</title>
<g id="a_node9"><a xlink:href="to_pharmacovigilance officer.svg" xlink:title="pharmacovigilance officer">
<ellipse fill="none" stroke="black" cx="1137.89" cy="-105" rx="104.78" ry="18"/>
<text text-anchor="middle" x="1137.89" y="-101.3" font-family="Times New Roman,serif" font-size="14.00">pharmacovigilance officer</text>
</a>
</g>
</g>
<!-- 8&#45;&gt;1 -->
<g id="edge9" class="edge">
<title>8&#45;&gt;1</title>
<path fill="none" stroke="black" d="M1066.45,-91.75C1006.52,-81.52 918.65,-66.62 841.89,-54 795.56,-46.38 743.68,-38.08 702.04,-31.48"/>
<polygon fill="black" stroke="black" points="702.39,-27.99 691.96,-29.88 701.29,-34.9 702.39,-27.99"/>
<text text-anchor="middle" x="946.39" y="-57.8" font-family="Times New Roman,serif" font-size="14.00">0.014</text>
</g>
<!-- 9 -->
<g id="node10" class="node">
<title>9</title>
<g id="a_node10"><a xlink:href="to_secretary.svg" xlink:title="secretary">
<ellipse fill="none" stroke="black" cx="1303.89" cy="-105" rx="43.59" ry="18"/>
<text text-anchor="middle" x="1303.89" y="-101.3" font-family="Times New Roman,serif" font-size="14.00">secretary</text>
</a>
</g>
</g>
<!-- 9&#45;&gt;1 -->
<g id="edge10" class="edge">
<title>9&#45;&gt;1</title>
<path fill="none" stroke="black" d="M1272.27,-92.54C1265.61,-90.45 1258.57,-88.46 1251.89,-87 1067.3,-46.61 846.74,-29.79 721.92,-23.11"/>
<polygon fill="black" stroke="black" points="721.8,-19.6 711.63,-22.57 721.43,-26.59 721.8,-19.6"/>
<text text-anchor="middle" x="1165.39" y="-57.8" font-family="Times New Roman,serif" font-size="14.00">0.014</text>
</g>
</g>
</svg>
