<?xml version="1.0" encoding="UTF-8" standalone="no"?>
<!DOCTYPE svg PUBLIC "-//W3C//DTD SVG 1.1//EN"
 "http://www.w3.org/Graphics/SVG/1.1/DTD/svg11.dtd">
<!-- Generated by graphviz version 2.44.1 (20200629.0800)
 -->
<!-- Title: photographer Pages: 1 -->
<svg width="1236pt" height="131pt"
 viewBox="0.00 0.00 1235.53 131.00" xmlns="http://www.w3.org/2000/svg" xmlns:xlink="http://www.w3.org/1999/xlink">
<g id="graph0" class="graph" transform="scale(1 1) rotate(0) translate(4 127)">
<title>photographer</title>
<polygon fill="white" stroke="transparent" points="-4,4 -4,-127 1231.53,-127 1231.53,4 -4,4"/>
<!-- 0 -->
<g id="node1" class="node">
<title>0</title>
<g id="a_node1"><a xlink:href="to_photographer.svg" xlink:title="photographer">
<ellipse fill="none" stroke="black" cx="651.64" cy="-18" rx="59.59" ry="18"/>
<text text-anchor="middle" x="651.64" y="-14.3" font-family="Times New Roman,serif" font-size="14.00">photographer</text>
</a>
</g>
</g>
<!-- 0&#45;&gt;0 -->
<g id="edge1" class="edge">
<title>0&#45;&gt;0</title>
<path fill="none" stroke="black" d="M705.81,-25.77C719.33,-25.22 729.44,-22.63 729.44,-18 729.44,-14.63 724.1,-12.35 716,-11.14"/>
<polygon fill="black" stroke="black" points="716.08,-7.63 705.81,-10.23 715.46,-14.6 716.08,-7.63"/>
<text text-anchor="middle" x="744.94" y="-14.3" font-family="Times New Roman,serif" font-size="14.00">0.217</text>
</g>
<!-- 1 -->
<g id="node2" class="node">
<title>1</title>
<g id="a_node2"><a xlink:href="to_pharmacovigilance officer.svg" xlink:title="pharmacovigilance officer">
<ellipse fill="none" stroke="black" cx="104.64" cy="-105" rx="104.78" ry="18"/>
<text text-anchor="middle" x="104.64" y="-101.3" font-family="Times New Roman,serif" font-size="14.00">pharmacovigilance officer</text>
</a>
</g>
</g>
<!-- 1&#45;&gt;0 -->
<g id="edge2" class="edge">
<title>1&#45;&gt;0</title>
<path fill="none" stroke="black" d="M165.78,-90.35C216.25,-79.42 289.83,-64.28 354.64,-54 433.53,-41.48 524.87,-31.37 585.2,-25.29"/>
<polygon fill="black" stroke="black" points="585.74,-28.75 595.35,-24.28 585.05,-21.79 585.74,-28.75"/>
<text text-anchor="middle" x="370.14" y="-57.8" font-family="Times New Roman,serif" font-size="14.00">0.141</text>
</g>
<!-- 2 -->
<g id="node3" class="node">
<title>2</title>
<g id="a_node3"><a xlink:href="to_solicitor.svg" xlink:title="solicitor">
<ellipse fill="none" stroke="black" cx="267.64" cy="-105" rx="40.09" ry="18"/>
<text text-anchor="middle" x="267.64" y="-101.3" font-family="Times New Roman,serif" font-size="14.00">solicitor</text>
</a>
</g>
</g>
<!-- 2&#45;&gt;0 -->
<g id="edge3" class="edge">
<title>2&#45;&gt;0</title>
<path fill="none" stroke="black" d="M297.76,-92.84C303.96,-90.75 310.47,-88.69 316.64,-87 410.83,-61.22 522.35,-40.49 590,-28.96"/>
<polygon fill="black" stroke="black" points="590.78,-32.38 600.06,-27.26 589.62,-25.48 590.78,-32.38"/>
<text text-anchor="middle" x="469.14" y="-57.8" font-family="Times New Roman,serif" font-size="14.00">0.108</text>
</g>
<!-- 3 -->
<g id="node4" class="node">
<title>3</title>
<g id="a_node4"><a xlink:href="to_production manager.svg" xlink:title="production manager">
<ellipse fill="none" stroke="black" cx="408.64" cy="-105" rx="83.39" ry="18"/>
<text text-anchor="middle" x="408.64" y="-101.3" font-family="Times New Roman,serif" font-size="14.00">production manager</text>
</a>
</g>
</g>
<!-- 3&#45;&gt;0 -->
<g id="edge4" class="edge">
<title>3&#45;&gt;0</title>
<path fill="none" stroke="black" d="M450.41,-89.39C493.27,-74.4 559.82,-51.12 604.53,-35.48"/>
<polygon fill="black" stroke="black" points="605.72,-38.77 614,-32.17 603.41,-32.16 605.72,-38.77"/>
<text text-anchor="middle" x="561.14" y="-57.8" font-family="Times New Roman,serif" font-size="14.00">0.076</text>
</g>
<!-- 4 -->
<g id="node5" class="node">
<title>4</title>
<g id="a_node5"><a xlink:href="to_lawyer.svg" xlink:title="lawyer">
<ellipse fill="none" stroke="black" cx="544.64" cy="-105" rx="34.39" ry="18"/>
<text text-anchor="middle" x="544.64" y="-101.3" font-family="Times New Roman,serif" font-size="14.00">lawyer</text>
</a>
</g>
</g>
<!-- 4&#45;&gt;0 -->
<g id="edge5" class="edge">
<title>4&#45;&gt;0</title>
<path fill="none" stroke="black" d="M562.79,-89.58C579.38,-76.4 604.18,-56.7 623.37,-41.46"/>
<polygon fill="black" stroke="black" points="625.55,-44.19 631.21,-35.23 621.2,-38.71 625.55,-44.19"/>
<text text-anchor="middle" x="620.14" y="-57.8" font-family="Times New Roman,serif" font-size="14.00">0.032</text>
</g>
<!-- 5 -->
<g id="node6" class="node">
<title>5</title>
<g id="a_node6"><a xlink:href="to_it consultant.svg" xlink:title="it consultant">
<ellipse fill="none" stroke="black" cx="651.64" cy="-105" rx="54.69" ry="18"/>
<text text-anchor="middle" x="651.64" y="-101.3" font-family="Times New Roman,serif" font-size="14.00">it consultant</text>
</a>
</g>
</g>
<!-- 5&#45;&gt;0 -->
<g id="edge6" class="edge">
<title>5&#45;&gt;0</title>
<path fill="none" stroke="black" d="M651.64,-86.8C651.64,-75.16 651.64,-59.55 651.64,-46.24"/>
<polygon fill="black" stroke="black" points="655.14,-46.18 651.64,-36.18 648.14,-46.18 655.14,-46.18"/>
<text text-anchor="middle" x="667.14" y="-57.8" font-family="Times New Roman,serif" font-size="14.00">0.025</text>
</g>
<!-- 6 -->
<g id="node7" class="node">
<title>6</title>
<g id="a_node7"><a xlink:href="to_lecturer.svg" xlink:title="lecturer">
<ellipse fill="none" stroke="black" cx="761.64" cy="-105" rx="37.89" ry="18"/>
<text text-anchor="middle" x="761.64" y="-101.3" font-family="Times New Roman,serif" font-size="14.00">lecturer</text>
</a>
</g>
</g>
<!-- 6&#45;&gt;0 -->
<g id="edge7" class="edge">
<title>6&#45;&gt;0</title>
<path fill="none" stroke="black" d="M742.48,-89.19C725.35,-75.96 700.01,-56.38 680.44,-41.26"/>
<polygon fill="black" stroke="black" points="682.51,-38.43 672.45,-35.08 678.22,-43.97 682.51,-38.43"/>
<text text-anchor="middle" x="729.14" y="-57.8" font-family="Times New Roman,serif" font-size="14.00">0.025</text>
</g>
<!-- 7 -->
<g id="node8" class="node">
<title>7</title>
<g id="a_node8"><a xlink:href="to_marketing executive.svg" xlink:title="marketing executive">
<ellipse fill="none" stroke="black" cx="899.64" cy="-105" rx="81.79" ry="18"/>
<text text-anchor="middle" x="899.64" y="-101.3" font-family="Times New Roman,serif" font-size="14.00">marketing executive</text>
</a>
</g>
</g>
<!-- 7&#45;&gt;0 -->
<g id="edge8" class="edge">
<title>7&#45;&gt;0</title>
<path fill="none" stroke="black" d="M857.29,-89.48C813.47,-74.47 745.16,-51.05 699.43,-35.38"/>
<polygon fill="black" stroke="black" points="700.34,-31.99 689.75,-32.06 698.07,-38.61 700.34,-31.99"/>
<text text-anchor="middle" x="805.14" y="-57.8" font-family="Times New Roman,serif" font-size="14.00">0.025</text>
</g>
<!-- 8 -->
<g id="node9" class="node">
<title>8</title>
<g id="a_node9"><a xlink:href="to_curator.svg" xlink:title="curator">
<ellipse fill="none" stroke="black" cx="1035.64" cy="-105" rx="36.29" ry="18"/>
<text text-anchor="middle" x="1035.64" y="-101.3" font-family="Times New Roman,serif" font-size="14.00">curator</text>
</a>
</g>
</g>
<!-- 8&#45;&gt;0 -->
<g id="edge9" class="edge">
<title>8&#45;&gt;0</title>
<path fill="none" stroke="black" d="M1008.27,-92.85C1002.51,-90.73 996.42,-88.66 990.64,-87 895.7,-59.74 782.75,-39.43 714.16,-28.4"/>
<polygon fill="black" stroke="black" points="714.39,-24.89 703.96,-26.77 713.29,-31.8 714.39,-24.89"/>
<text text-anchor="middle" x="932.14" y="-57.8" font-family="Times New Roman,serif" font-size="14.00">0.019</text>
</g>
<!-- 9 -->
<g id="node10" class="node">
<title>9</title>
<g id="a_node10"><a xlink:href="to_project manager.svg" xlink:title="project manager">
<ellipse fill="none" stroke="black" cx="1158.64" cy="-105" rx="68.79" ry="18"/>
<text text-anchor="middle" x="1158.64" y="-101.3" font-family="Times New Roman,serif" font-size="14.00">project manager</text>
</a>
</g>
</g>
<!-- 9&#45;&gt;0 -->
<g id="edge10" class="edge">
<title>9&#45;&gt;0</title>
<path fill="none" stroke="black" d="M1113.34,-91.38C1071.63,-80.17 1007.87,-64.03 951.64,-54 872.22,-39.83 779.91,-30.05 718.88,-24.5"/>
<polygon fill="black" stroke="black" points="718.89,-20.99 708.62,-23.58 718.26,-27.96 718.89,-20.99"/>
<text text-anchor="middle" x="1035.14" y="-57.8" font-family="Times New Roman,serif" font-size="14.00">0.019</text>
</g>
</g>
</svg>
