<?xml version="1.0" encoding="UTF-8" standalone="no"?>
<!DOCTYPE svg PUBLIC "-//W3C//DTD SVG 1.1//EN"
 "http://www.w3.org/Graphics/SVG/1.1/DTD/svg11.dtd">
<!-- Generated by graphviz version 2.44.1 (20200629.0800)
 -->
<!-- Title: packaging_technologist Pages: 1 -->
<svg width="1543pt" height="131pt"
 viewBox="0.00 0.00 1542.93 131.00" xmlns="http://www.w3.org/2000/svg" xmlns:xlink="http://www.w3.org/1999/xlink">
<g id="graph0" class="graph" transform="scale(1 1) rotate(0) translate(4 127)">
<title>packaging_technologist</title>
<polygon fill="white" stroke="transparent" points="-4,4 -4,-127 1538.93,-127 1538.93,4 -4,4"/>
<!-- 0 -->
<g id="node1" class="node">
<title>0</title>
<g id="a_node1"><a xlink:href="to_network administrator.svg" xlink:title="network administrator">
<ellipse fill="none" stroke="black" cx="89.69" cy="-105" rx="89.88" ry="18"/>
<text text-anchor="middle" x="89.69" y="-101.3" font-family="Times New Roman,serif" font-size="14.00">network administrator</text>
</a>
</g>
</g>
<!-- 1 -->
<g id="node2" class="node">
<title>1</title>
<g id="a_node2"><a xlink:href="to_packaging technologist.svg" xlink:title="packaging technologist">
<ellipse fill="none" stroke="black" cx="842.69" cy="-18" rx="93.68" ry="18"/>
<text text-anchor="middle" x="842.69" y="-14.3" font-family="Times New Roman,serif" font-size="14.00">packaging technologist</text>
</a>
</g>
</g>
<!-- 0&#45;&gt;1 -->
<g id="edge1" class="edge">
<title>0&#45;&gt;1</title>
<path fill="none" stroke="black" d="M154.89,-92.59C166.16,-90.68 177.76,-88.75 188.69,-87 287.19,-71.22 311.59,-65.37 410.69,-54 525.03,-40.89 656.94,-30.95 744.62,-25.07"/>
<polygon fill="black" stroke="black" points="745.08,-28.55 754.82,-24.39 744.61,-21.57 745.08,-28.55"/>
<text text-anchor="middle" x="426.19" y="-57.8" font-family="Times New Roman,serif" font-size="14.00">0.111</text>
</g>
<!-- 1&#45;&gt;1 -->
<g id="edge2" class="edge">
<title>1&#45;&gt;1</title>
<path fill="none" stroke="black" d="M928.31,-25.41C943.6,-24.45 954.28,-21.98 954.28,-18 954.28,-14.99 948.15,-12.84 938.52,-11.55"/>
<polygon fill="black" stroke="black" points="938.6,-8.04 928.31,-10.59 937.94,-15.01 938.6,-8.04"/>
<text text-anchor="middle" x="969.78" y="-14.3" font-family="Times New Roman,serif" font-size="14.00">0.111</text>
</g>
<!-- 2 -->
<g id="node3" class="node">
<title>2</title>
<g id="a_node3"><a xlink:href="to_barristers clerk.svg" xlink:title="barristers clerk">
<ellipse fill="none" stroke="black" cx="261.69" cy="-105" rx="64.19" ry="18"/>
<text text-anchor="middle" x="261.69" y="-101.3" font-family="Times New Roman,serif" font-size="14.00">barristers clerk</text>
</a>
</g>
</g>
<!-- 2&#45;&gt;1 -->
<g id="edge3" class="edge">
<title>2&#45;&gt;1</title>
<path fill="none" stroke="black" d="M308.29,-92.48C317.03,-90.51 326.12,-88.59 334.69,-87 479.9,-60.08 650.35,-39.49 752.28,-28.33"/>
<polygon fill="black" stroke="black" points="752.67,-31.81 762.23,-27.24 751.91,-24.85 752.67,-31.81"/>
<text text-anchor="middle" x="559.19" y="-57.8" font-family="Times New Roman,serif" font-size="14.00">0.055</text>
</g>
<!-- 3 -->
<g id="node4" class="node">
<title>3</title>
<g id="a_node4"><a xlink:href="to_commodity broker.svg" xlink:title="commodity broker">
<ellipse fill="none" stroke="black" cx="422.69" cy="-105" rx="78.79" ry="18"/>
<text text-anchor="middle" x="422.69" y="-101.3" font-family="Times New Roman,serif" font-size="14.00">commodity broker</text>
</a>
</g>
</g>
<!-- 3&#45;&gt;1 -->
<g id="edge4" class="edge">
<title>3&#45;&gt;1</title>
<path fill="none" stroke="black" d="M479.77,-92.45C555.24,-77.18 688.25,-50.26 770.58,-33.59"/>
<polygon fill="black" stroke="black" points="771.5,-36.98 780.61,-31.56 770.11,-30.12 771.5,-36.98"/>
<text text-anchor="middle" x="674.19" y="-57.8" font-family="Times New Roman,serif" font-size="14.00">0.055</text>
</g>
<!-- 4 -->
<g id="node5" class="node">
<title>4</title>
<g id="a_node5"><a xlink:href="to_community education officer.svg" xlink:title="community education officer">
<ellipse fill="none" stroke="black" cx="634.69" cy="-105" rx="115.08" ry="18"/>
<text text-anchor="middle" x="634.69" y="-101.3" font-family="Times New Roman,serif" font-size="14.00">community education officer</text>
</a>
</g>
</g>
<!-- 4&#45;&gt;1 -->
<g id="edge5" class="edge">
<title>4&#45;&gt;1</title>
<path fill="none" stroke="black" d="M673.82,-88.01C708.28,-73.93 758.56,-53.38 795.29,-38.37"/>
<polygon fill="black" stroke="black" points="796.86,-41.51 804.8,-34.49 794.22,-35.03 796.86,-41.51"/>
<text text-anchor="middle" x="767.19" y="-57.8" font-family="Times New Roman,serif" font-size="14.00">0.055</text>
</g>
<!-- 5 -->
<g id="node6" class="node">
<title>5</title>
<g id="a_node6"><a xlink:href="to_electrical engineer.svg" xlink:title="electrical engineer">
<ellipse fill="none" stroke="black" cx="842.69" cy="-105" rx="74.99" ry="18"/>
<text text-anchor="middle" x="842.69" y="-101.3" font-family="Times New Roman,serif" font-size="14.00">electrical engineer</text>
</a>
</g>
</g>
<!-- 5&#45;&gt;1 -->
<g id="edge6" class="edge">
<title>5&#45;&gt;1</title>
<path fill="none" stroke="black" d="M842.69,-86.8C842.69,-75.16 842.69,-59.55 842.69,-46.24"/>
<polygon fill="black" stroke="black" points="846.19,-46.18 842.69,-36.18 839.19,-46.18 846.19,-46.18"/>
<text text-anchor="middle" x="858.19" y="-57.8" font-family="Times New Roman,serif" font-size="14.00">0.055</text>
</g>
<!-- 6 -->
<g id="node7" class="node">
<title>6</title>
<g id="a_node7"><a xlink:href="to_it consultant.svg" xlink:title="it consultant">
<ellipse fill="none" stroke="black" cx="989.69" cy="-105" rx="54.69" ry="18"/>
<text text-anchor="middle" x="989.69" y="-101.3" font-family="Times New Roman,serif" font-size="14.00">it consultant</text>
</a>
</g>
</g>
<!-- 6&#45;&gt;1 -->
<g id="edge7" class="edge">
<title>6&#45;&gt;1</title>
<path fill="none" stroke="black" d="M963.75,-89C940.45,-75.53 905.98,-55.59 879.77,-40.44"/>
<polygon fill="black" stroke="black" points="881.29,-37.28 870.88,-35.3 877.79,-43.33 881.29,-37.28"/>
<text text-anchor="middle" x="941.19" y="-57.8" font-family="Times New Roman,serif" font-size="14.00">0.055</text>
</g>
<!-- 7 -->
<g id="node8" class="node">
<title>7</title>
<g id="a_node8"><a xlink:href="to_laboratory technician.svg" xlink:title="laboratory technician">
<ellipse fill="none" stroke="black" cx="1148.69" cy="-105" rx="86.38" ry="18"/>
<text text-anchor="middle" x="1148.69" y="-101.3" font-family="Times New Roman,serif" font-size="14.00">laboratory technician</text>
</a>
</g>
</g>
<!-- 7&#45;&gt;1 -->
<g id="edge8" class="edge">
<title>7&#45;&gt;1</title>
<path fill="none" stroke="black" d="M1098.85,-90.15C1045.38,-75.3 960.44,-51.71 903.18,-35.8"/>
<polygon fill="black" stroke="black" points="904.11,-32.43 893.54,-33.12 902.23,-39.17 904.11,-32.43"/>
<text text-anchor="middle" x="1029.19" y="-57.8" font-family="Times New Roman,serif" font-size="14.00">0.055</text>
</g>
<!-- 8 -->
<g id="node9" class="node">
<title>8</title>
<g id="a_node9"><a xlink:href="to_lecturer.svg" xlink:title="lecturer">
<ellipse fill="none" stroke="black" cx="1290.69" cy="-105" rx="37.89" ry="18"/>
<text text-anchor="middle" x="1290.69" y="-101.3" font-family="Times New Roman,serif" font-size="14.00">lecturer</text>
</a>
</g>
</g>
<!-- 8&#45;&gt;1 -->
<g id="edge9" class="edge">
<title>8&#45;&gt;1</title>
<path fill="none" stroke="black" d="M1262.62,-92.92C1256.45,-90.75 1249.9,-88.64 1243.69,-87 1137.67,-59.08 1012.73,-40.01 930.84,-29.33"/>
<polygon fill="black" stroke="black" points="931.18,-25.84 920.82,-28.04 930.29,-32.79 931.18,-25.84"/>
<text text-anchor="middle" x="1172.19" y="-57.8" font-family="Times New Roman,serif" font-size="14.00">0.055</text>
</g>
<!-- 9 -->
<g id="node10" class="node">
<title>9</title>
<g id="a_node10"><a xlink:href="to_manufacturing engineer.svg" xlink:title="manufacturing engineer">
<ellipse fill="none" stroke="black" cx="1440.69" cy="-105" rx="94.48" ry="18"/>
<text text-anchor="middle" x="1440.69" y="-101.3" font-family="Times New Roman,serif" font-size="14.00">manufacturing engineer</text>
</a>
</g>
</g>
<!-- 9&#45;&gt;1 -->
<g id="edge10" class="edge">
<title>9&#45;&gt;1</title>
<path fill="none" stroke="black" d="M1382.62,-90.66C1332.33,-79.51 1257.53,-63.89 1191.69,-54 1106.6,-41.22 1009.12,-31.89 938.85,-26.09"/>
<polygon fill="black" stroke="black" points="938.93,-22.58 928.68,-25.26 938.36,-29.56 938.93,-22.58"/>
<text text-anchor="middle" x="1289.19" y="-57.8" font-family="Times New Roman,serif" font-size="14.00">0.055</text>
</g>
</g>
</svg>
