<?xml version="1.0" encoding="UTF-8" standalone="no"?>
<!DOCTYPE svg PUBLIC "-//W3C//DTD SVG 1.1//EN"
 "http://www.w3.org/Graphics/SVG/1.1/DTD/svg11.dtd">
<!-- Generated by graphviz version 2.44.1 (20200629.0800)
 -->
<!-- Title: public_house_manager Pages: 1 -->
<svg width="1562pt" height="131pt"
 viewBox="0.00 0.00 1561.74 131.00" xmlns="http://www.w3.org/2000/svg" xmlns:xlink="http://www.w3.org/1999/xlink">
<g id="graph0" class="graph" transform="scale(1 1) rotate(0) translate(4 127)">
<title>public_house_manager</title>
<polygon fill="white" stroke="transparent" points="-4,4 -4,-127 1557.74,-127 1557.74,4 -4,4"/>
<!-- 0 -->
<g id="node1" class="node">
<title>0</title>
<g id="a_node1"><a xlink:href="to_sales manager.svg" xlink:title="sales manager">
<ellipse fill="none" stroke="black" cx="61.09" cy="-105" rx="61.19" ry="18"/>
<text text-anchor="middle" x="61.09" y="-101.3" font-family="Times New Roman,serif" font-size="14.00">sales manager</text>
</a>
</g>
</g>
<!-- 1 -->
<g id="node2" class="node">
<title>1</title>
<g id="a_node2"><a xlink:href="to_public house manager.svg" xlink:title="public house manager">
<ellipse fill="none" stroke="black" cx="758.09" cy="-18" rx="89.88" ry="18"/>
<text text-anchor="middle" x="758.09" y="-14.3" font-family="Times New Roman,serif" font-size="14.00">public house manager</text>
</a>
</g>
</g>
<!-- 0&#45;&gt;1 -->
<g id="edge1" class="edge">
<title>0&#45;&gt;1</title>
<path fill="none" stroke="black" d="M104.98,-92.44C113.59,-90.43 122.6,-88.5 131.09,-87 318.83,-53.88 541.22,-34.36 664.29,-25.26"/>
<polygon fill="black" stroke="black" points="664.71,-28.73 674.43,-24.51 664.2,-21.75 664.71,-28.73"/>
<text text-anchor="middle" x="370.59" y="-57.8" font-family="Times New Roman,serif" font-size="14.00">0.072</text>
</g>
<!-- 1&#45;&gt;1 -->
<g id="edge2" class="edge">
<title>1&#45;&gt;1</title>
<path fill="none" stroke="black" d="M839.8,-25.47C855.05,-24.55 865.79,-22.06 865.79,-18 865.79,-14.92 859.62,-12.75 850,-11.47"/>
<polygon fill="black" stroke="black" points="850.08,-7.97 839.8,-10.53 849.44,-14.94 850.08,-7.97"/>
<text text-anchor="middle" x="881.29" y="-14.3" font-family="Times New Roman,serif" font-size="14.00">0.060</text>
</g>
<!-- 2 -->
<g id="node3" class="node">
<title>2</title>
<g id="a_node3"><a xlink:href="to_pharmacovigilance officer.svg" xlink:title="pharmacovigilance officer">
<ellipse fill="none" stroke="black" cx="245.09" cy="-105" rx="104.78" ry="18"/>
<text text-anchor="middle" x="245.09" y="-101.3" font-family="Times New Roman,serif" font-size="14.00">pharmacovigilance officer</text>
</a>
</g>
</g>
<!-- 2&#45;&gt;1 -->
<g id="edge3" class="edge">
<title>2&#45;&gt;1</title>
<path fill="none" stroke="black" d="M316.98,-91.91C377.54,-81.73 466.47,-66.84 544.09,-54 589.29,-46.52 639.87,-38.25 680.51,-31.62"/>
<polygon fill="black" stroke="black" points="681.31,-35.04 690.62,-29.97 680.18,-28.13 681.31,-35.04"/>
<text text-anchor="middle" x="559.59" y="-57.8" font-family="Times New Roman,serif" font-size="14.00">0.048</text>
</g>
<!-- 3 -->
<g id="node4" class="node">
<title>3</title>
<g id="a_node4"><a xlink:href="to_project manager.svg" xlink:title="project manager">
<ellipse fill="none" stroke="black" cx="437.09" cy="-105" rx="68.79" ry="18"/>
<text text-anchor="middle" x="437.09" y="-101.3" font-family="Times New Roman,serif" font-size="14.00">project manager</text>
</a>
</g>
</g>
<!-- 3&#45;&gt;1 -->
<g id="edge4" class="edge">
<title>3&#45;&gt;1</title>
<path fill="none" stroke="black" d="M483.77,-91.64C539.97,-76.76 634.53,-51.72 696.63,-35.28"/>
<polygon fill="black" stroke="black" points="697.54,-38.66 706.31,-32.71 695.74,-31.89 697.54,-38.66"/>
<text text-anchor="middle" x="632.59" y="-57.8" font-family="Times New Roman,serif" font-size="14.00">0.048</text>
</g>
<!-- 4 -->
<g id="node5" class="node">
<title>4</title>
<g id="a_node5"><a xlink:href="to_catering manager.svg" xlink:title="catering manager">
<ellipse fill="none" stroke="black" cx="595.09" cy="-105" rx="71.49" ry="18"/>
<text text-anchor="middle" x="595.09" y="-101.3" font-family="Times New Roman,serif" font-size="14.00">catering manager</text>
</a>
</g>
</g>
<!-- 4&#45;&gt;1 -->
<g id="edge5" class="edge">
<title>4&#45;&gt;1</title>
<path fill="none" stroke="black" d="M624.99,-88.41C651.2,-74.74 689.5,-54.77 718.29,-39.76"/>
<polygon fill="black" stroke="black" points="720.03,-42.8 727.28,-35.07 716.79,-36.59 720.03,-42.8"/>
<text text-anchor="middle" x="702.59" y="-57.8" font-family="Times New Roman,serif" font-size="14.00">0.036</text>
</g>
<!-- 5 -->
<g id="node6" class="node">
<title>5</title>
<g id="a_node6"><a xlink:href="to_financial manager.svg" xlink:title="financial manager">
<ellipse fill="none" stroke="black" cx="758.09" cy="-105" rx="73.39" ry="18"/>
<text text-anchor="middle" x="758.09" y="-101.3" font-family="Times New Roman,serif" font-size="14.00">financial manager</text>
</a>
</g>
</g>
<!-- 5&#45;&gt;1 -->
<g id="edge6" class="edge">
<title>5&#45;&gt;1</title>
<path fill="none" stroke="black" d="M758.09,-86.8C758.09,-75.16 758.09,-59.55 758.09,-46.24"/>
<polygon fill="black" stroke="black" points="761.59,-46.18 758.09,-36.18 754.59,-46.18 761.59,-46.18"/>
<text text-anchor="middle" x="773.59" y="-57.8" font-family="Times New Roman,serif" font-size="14.00">0.036</text>
</g>
<!-- 6 -->
<g id="node7" class="node">
<title>6</title>
<g id="a_node7"><a xlink:href="to_office manager.svg" xlink:title="office manager">
<ellipse fill="none" stroke="black" cx="914.09" cy="-105" rx="64.19" ry="18"/>
<text text-anchor="middle" x="914.09" y="-101.3" font-family="Times New Roman,serif" font-size="14.00">office manager</text>
</a>
</g>
</g>
<!-- 6&#45;&gt;1 -->
<g id="edge7" class="edge">
<title>6&#45;&gt;1</title>
<path fill="none" stroke="black" d="M885.84,-88.61C860.92,-75.02 824.35,-55.1 796.72,-40.05"/>
<polygon fill="black" stroke="black" points="798.18,-36.86 787.73,-35.15 794.83,-43 798.18,-36.86"/>
<text text-anchor="middle" x="861.59" y="-57.8" font-family="Times New Roman,serif" font-size="14.00">0.036</text>
</g>
<!-- 7 -->
<g id="node8" class="node">
<title>7</title>
<g id="a_node8"><a xlink:href="to_human resources officer.svg" xlink:title="human resources officer">
<ellipse fill="none" stroke="black" cx="1095.09" cy="-105" rx="98.58" ry="18"/>
<text text-anchor="middle" x="1095.09" y="-101.3" font-family="Times New Roman,serif" font-size="14.00">human resources officer</text>
</a>
</g>
</g>
<!-- 7&#45;&gt;1 -->
<g id="edge8" class="edge">
<title>7&#45;&gt;1</title>
<path fill="none" stroke="black" d="M1039.82,-90.06C979.91,-74.95 884.46,-50.87 821.53,-35"/>
<polygon fill="black" stroke="black" points="822.28,-31.58 811.72,-32.53 820.56,-38.37 822.28,-31.58"/>
<text text-anchor="middle" x="962.59" y="-57.8" font-family="Times New Roman,serif" font-size="14.00">0.024</text>
</g>
<!-- 8 -->
<g id="node9" class="node">
<title>8</title>
<g id="a_node9"><a xlink:href="to_production manager.svg" xlink:title="production manager">
<ellipse fill="none" stroke="black" cx="1295.09" cy="-105" rx="83.39" ry="18"/>
<text text-anchor="middle" x="1295.09" y="-101.3" font-family="Times New Roman,serif" font-size="14.00">production manager</text>
</a>
</g>
</g>
<!-- 8&#45;&gt;1 -->
<g id="edge9" class="edge">
<title>8&#45;&gt;1</title>
<path fill="none" stroke="black" d="M1234.77,-92.58C1224.22,-90.66 1213.34,-88.73 1203.09,-87 1076.02,-65.56 928.02,-43.52 838.78,-30.56"/>
<polygon fill="black" stroke="black" points="839.12,-27.07 828.72,-29.1 838.12,-34 839.12,-27.07"/>
<text text-anchor="middle" x="1095.59" y="-57.8" font-family="Times New Roman,serif" font-size="14.00">0.024</text>
</g>
<!-- 9 -->
<g id="node10" class="node">
<title>9</title>
<g id="a_node10"><a xlink:href="to_retail merchandiser.svg" xlink:title="retail merchandiser">
<ellipse fill="none" stroke="black" cx="1475.09" cy="-105" rx="78.79" ry="18"/>
<text text-anchor="middle" x="1475.09" y="-101.3" font-family="Times New Roman,serif" font-size="14.00">retail merchandiser</text>
</a>
</g>
</g>
<!-- 9&#45;&gt;1 -->
<g id="edge10" class="edge">
<title>9&#45;&gt;1</title>
<path fill="none" stroke="black" d="M1418.39,-92.44C1408,-90.5 1397.24,-88.59 1387.09,-87 1197.25,-57.18 973.11,-36.36 850.22,-26.17"/>
<polygon fill="black" stroke="black" points="850.35,-22.66 840.1,-25.33 849.78,-29.64 850.35,-22.66"/>
<text text-anchor="middle" x="1264.59" y="-57.8" font-family="Times New Roman,serif" font-size="14.00">0.024</text>
</g>
</g>
</svg>
