<?xml version="1.0" encoding="UTF-8" standalone="no"?>
<!DOCTYPE svg PUBLIC "-//W3C//DTD SVG 1.1//EN"
 "http://www.w3.org/Graphics/SVG/1.1/DTD/svg11.dtd">
<!-- Generated by graphviz version 2.44.1 (20200629.0800)
 -->
<!-- Title: test Pages: 1 -->
<svg width="1360pt" height="131pt"
 viewBox="0.00 0.00 1359.74 131.00" xmlns="http://www.w3.org/2000/svg" xmlns:xlink="http://www.w3.org/1999/xlink">
<g id="graph0" class="graph" transform="scale(1 1) rotate(0) translate(4 127)">
<title>test</title>
<polygon fill="white" stroke="transparent" points="-4,4 -4,-127 1355.74,-127 1355.74,4 -4,4"/>
<!-- 0 -->
<g id="node1" class="node">
<title>0</title>
<g id="a_node1"><a xlink:href="to_personal assistant.svg" xlink:title="personal assistant">
<ellipse fill="none" stroke="black" cx="654.09" cy="-18" rx="74.99" ry="18"/>
<text text-anchor="middle" x="654.09" y="-14.3" font-family="Times New Roman,serif" font-size="14.00">personal assistant</text>
</a>
</g>
</g>
<!-- 0&#45;&gt;0 -->
<g id="edge1" class="edge">
<title>0&#45;&gt;0</title>
<path fill="none" stroke="black" d="M722.03,-25.62C736.44,-24.85 746.84,-22.31 746.84,-18 746.84,-14.8 741.11,-12.58 732.27,-11.33"/>
<polygon fill="black" stroke="black" points="732.31,-7.82 722.03,-10.38 731.67,-14.79 732.31,-7.82"/>
<text text-anchor="middle" x="762.34" y="-14.3" font-family="Times New Roman,serif" font-size="14.00">0.153</text>
</g>
<!-- 1 -->
<g id="node2" class="node">
<title>1</title>
<g id="a_node2"><a xlink:href="to_sales manager.svg" xlink:title="sales manager">
<ellipse fill="none" stroke="black" cx="61.09" cy="-105" rx="61.19" ry="18"/>
<text text-anchor="middle" x="61.09" y="-101.3" font-family="Times New Roman,serif" font-size="14.00">sales manager</text>
</a>
</g>
</g>
<!-- 1&#45;&gt;0 -->
<g id="edge2" class="edge">
<title>1&#45;&gt;0</title>
<path fill="none" stroke="black" d="M105.79,-92.6C114.17,-90.61 122.88,-88.66 131.09,-87 286.79,-55.55 471.63,-35.5 574.62,-25.84"/>
<polygon fill="black" stroke="black" points="575,-29.32 584.64,-24.91 574.35,-22.35 575,-29.32"/>
<text text-anchor="middle" x="332.59" y="-57.8" font-family="Times New Roman,serif" font-size="14.00">0.049</text>
</g>
<!-- 2 -->
<g id="node3" class="node">
<title>2</title>
<g id="a_node3"><a xlink:href="to_office manager.svg" xlink:title="office manager">
<ellipse fill="none" stroke="black" cx="204.09" cy="-105" rx="64.19" ry="18"/>
<text text-anchor="middle" x="204.09" y="-101.3" font-family="Times New Roman,serif" font-size="14.00">office manager</text>
</a>
</g>
</g>
<!-- 2&#45;&gt;0 -->
<g id="edge3" class="edge">
<title>2&#45;&gt;0</title>
<path fill="none" stroke="black" d="M251.54,-92.64C260.04,-90.7 268.82,-88.74 277.09,-87 383.6,-64.57 508,-43.03 583.89,-30.4"/>
<polygon fill="black" stroke="black" points="584.52,-33.85 593.81,-28.76 583.38,-26.94 584.52,-33.85"/>
<text text-anchor="middle" x="458.59" y="-57.8" font-family="Times New Roman,serif" font-size="14.00">0.032</text>
</g>
<!-- 3 -->
<g id="node4" class="node">
<title>3</title>
<g id="a_node4"><a xlink:href="to_project manager.svg" xlink:title="project manager">
<ellipse fill="none" stroke="black" cx="355.09" cy="-105" rx="68.79" ry="18"/>
<text text-anchor="middle" x="355.09" y="-101.3" font-family="Times New Roman,serif" font-size="14.00">project manager</text>
</a>
</g>
</g>
<!-- 3&#45;&gt;0 -->
<g id="edge4" class="edge">
<title>3&#45;&gt;0</title>
<path fill="none" stroke="black" d="M399.86,-91.27C452.68,-76.26 540.56,-51.28 597.91,-34.97"/>
<polygon fill="black" stroke="black" points="598.88,-38.33 607.55,-32.23 596.97,-31.6 598.88,-38.33"/>
<text text-anchor="middle" x="538.59" y="-57.8" font-family="Times New Roman,serif" font-size="14.00">0.032</text>
</g>
<!-- 4 -->
<g id="node5" class="node">
<title>4</title>
<g id="a_node5"><a xlink:href="to_retail manager.svg" xlink:title="retail manager">
<ellipse fill="none" stroke="black" cx="502.09" cy="-105" rx="60.39" ry="18"/>
<text text-anchor="middle" x="502.09" y="-101.3" font-family="Times New Roman,serif" font-size="14.00">retail manager</text>
</a>
</g>
</g>
<!-- 4&#45;&gt;0 -->
<g id="edge5" class="edge">
<title>4&#45;&gt;0</title>
<path fill="none" stroke="black" d="M529.27,-88.8C553.74,-75.12 589.93,-54.88 617.05,-39.72"/>
<polygon fill="black" stroke="black" points="618.85,-42.72 625.87,-34.78 615.43,-36.61 618.85,-42.72"/>
<text text-anchor="middle" x="603.59" y="-57.8" font-family="Times New Roman,serif" font-size="14.00">0.032</text>
</g>
<!-- 5 -->
<g id="node6" class="node">
<title>5</title>
<g id="a_node6"><a xlink:href="to_teaching assistant.svg" xlink:title="teaching assistant">
<ellipse fill="none" stroke="black" cx="654.09" cy="-105" rx="73.39" ry="18"/>
<text text-anchor="middle" x="654.09" y="-101.3" font-family="Times New Roman,serif" font-size="14.00">teaching assistant</text>
</a>
</g>
</g>
<!-- 5&#45;&gt;0 -->
<g id="edge6" class="edge">
<title>5&#45;&gt;0</title>
<path fill="none" stroke="black" d="M654.09,-86.8C654.09,-75.16 654.09,-59.55 654.09,-46.24"/>
<polygon fill="black" stroke="black" points="657.59,-46.18 654.09,-36.18 650.59,-46.18 657.59,-46.18"/>
<text text-anchor="middle" x="669.59" y="-57.8" font-family="Times New Roman,serif" font-size="14.00">0.032</text>
</g>
<!-- 6 -->
<g id="node7" class="node">
<title>6</title>
<g id="a_node7"><a xlink:href="to_it consultant.svg" xlink:title="it consultant">
<ellipse fill="none" stroke="black" cx="800.09" cy="-105" rx="54.69" ry="18"/>
<text text-anchor="middle" x="800.09" y="-101.3" font-family="Times New Roman,serif" font-size="14.00">it consultant</text>
</a>
</g>
</g>
<!-- 6&#45;&gt;0 -->
<g id="edge7" class="edge">
<title>6&#45;&gt;0</title>
<path fill="none" stroke="black" d="M774.33,-89C750.97,-75.4 716.3,-55.22 690.18,-40.01"/>
<polygon fill="black" stroke="black" points="691.74,-36.87 681.34,-34.86 688.22,-42.92 691.74,-36.87"/>
<text text-anchor="middle" x="751.59" y="-57.8" font-family="Times New Roman,serif" font-size="14.00">0.027</text>
</g>
<!-- 7 -->
<g id="node8" class="node">
<title>7</title>
<g id="a_node8"><a xlink:href="to_lecturer.svg" xlink:title="lecturer">
<ellipse fill="none" stroke="black" cx="910.09" cy="-105" rx="37.89" ry="18"/>
<text text-anchor="middle" x="910.09" y="-101.3" font-family="Times New Roman,serif" font-size="14.00">lecturer</text>
</a>
</g>
</g>
<!-- 7&#45;&gt;0 -->
<g id="edge8" class="edge">
<title>7&#45;&gt;0</title>
<path fill="none" stroke="black" d="M880.91,-93.15C875.34,-91.1 869.54,-88.97 864.09,-87 822.86,-72.06 812.78,-67.62 771.09,-54 751.27,-47.52 729.4,-40.85 709.99,-35.1"/>
<polygon fill="black" stroke="black" points="710.97,-31.74 700.38,-32.26 708.99,-38.45 710.97,-31.74"/>
<text text-anchor="middle" x="829.59" y="-57.8" font-family="Times New Roman,serif" font-size="14.00">0.021</text>
</g>
<!-- 8 -->
<g id="node9" class="node">
<title>8</title>
<g id="a_node9"><a xlink:href="to_marketing assistant.svg" xlink:title="marketing assistant">
<ellipse fill="none" stroke="black" cx="1045.09" cy="-105" rx="79.09" ry="18"/>
<text text-anchor="middle" x="1045.09" y="-101.3" font-family="Times New Roman,serif" font-size="14.00">marketing assistant</text>
</a>
</g>
</g>
<!-- 8&#45;&gt;0 -->
<g id="edge9" class="edge">
<title>8&#45;&gt;0</title>
<path fill="none" stroke="black" d="M996.59,-90.59C957.07,-79.91 899.71,-64.98 849.09,-54 808.08,-45.1 761.86,-36.73 724.71,-30.41"/>
<polygon fill="black" stroke="black" points="724.93,-26.9 714.49,-28.68 723.77,-33.8 724.93,-26.9"/>
<text text-anchor="middle" x="923.59" y="-57.8" font-family="Times New Roman,serif" font-size="14.00">0.021</text>
</g>
<!-- 9 -->
<g id="node10" class="node">
<title>9</title>
<g id="a_node10"><a xlink:href="to_pharmacovigilance officer.svg" xlink:title="pharmacovigilance officer">
<ellipse fill="none" stroke="black" cx="1247.09" cy="-105" rx="104.78" ry="18"/>
<text text-anchor="middle" x="1247.09" y="-101.3" font-family="Times New Roman,serif" font-size="14.00">pharmacovigilance officer</text>
</a>
</g>
</g>
<!-- 9&#45;&gt;0 -->
<g id="edge10" class="edge">
<title>9&#45;&gt;0</title>
<path fill="none" stroke="black" d="M1176.89,-91.58C1115.36,-80.91 1023.45,-65.47 943.09,-54 871.35,-43.76 789.31,-34.01 731.01,-27.42"/>
<polygon fill="black" stroke="black" points="731.11,-23.9 720.78,-26.26 730.32,-30.86 731.11,-23.9"/>
<text text-anchor="middle" x="1050.59" y="-57.8" font-family="Times New Roman,serif" font-size="14.00">0.021</text>
</g>
</g>
</svg>
