<?xml version="1.0" encoding="UTF-8" standalone="no"?>
<!DOCTYPE svg PUBLIC "-//W3C//DTD SVG 1.1//EN"
 "http://www.w3.org/Graphics/SVG/1.1/DTD/svg11.dtd">
<!-- Generated by graphviz version 2.44.1 (20200629.0800)
 -->
<!-- Title: test Pages: 1 -->
<svg width="311pt" height="131pt"
 viewBox="0.00 0.00 310.54 131.00" xmlns="http://www.w3.org/2000/svg" xmlns:xlink="http://www.w3.org/1999/xlink">
<g id="graph0" class="graph" transform="scale(1 1) rotate(0) translate(4 127)">
<title>test</title>
<polygon fill="white" stroke="transparent" points="-4,4 -4,-127 306.54,-127 306.54,4 -4,4"/>
<!-- 0 -->
<g id="node1" class="node">
<title>0</title>
<g id="a_node1"><a xlink:href="to_auditor.svg" xlink:title="auditor">
<ellipse fill="none" stroke="black" cx="36.4" cy="-105" rx="36.29" ry="18"/>
<text text-anchor="middle" x="36.4" y="-101.3" font-family="Times New Roman,serif" font-size="14.00">auditor</text>
</a>
</g>
</g>
<!-- 1 -->
<g id="node2" class="node">
<title>1</title>
<g id="a_node2"><a xlink:href="to_prison officer.svg" xlink:title="prison officer">
<ellipse fill="none" stroke="black" cx="128.4" cy="-18" rx="59.59" ry="18"/>
<text text-anchor="middle" x="128.4" y="-14.3" font-family="Times New Roman,serif" font-size="14.00">prison officer</text>
</a>
</g>
</g>
<!-- 0&#45;&gt;1 -->
<g id="edge1" class="edge">
<title>0&#45;&gt;1</title>
<path fill="none" stroke="black" d="M52.84,-88.8C66.88,-75.84 87.28,-56.99 103.35,-42.14"/>
<polygon fill="black" stroke="black" points="105.87,-44.58 110.84,-35.22 101.12,-39.44 105.87,-44.58"/>
<text text-anchor="middle" x="103.9" y="-57.8" font-family="Times New Roman,serif" font-size="14.00">0.333</text>
</g>
<!-- 2 -->
<g id="node3" class="node">
<title>2</title>
<g id="a_node3"><a xlink:href="to_lecturer.svg" xlink:title="lecturer">
<ellipse fill="none" stroke="black" cx="128.4" cy="-105" rx="37.89" ry="18"/>
<text text-anchor="middle" x="128.4" y="-101.3" font-family="Times New Roman,serif" font-size="14.00">lecturer</text>
</a>
</g>
</g>
<!-- 2&#45;&gt;1 -->
<g id="edge2" class="edge">
<title>2&#45;&gt;1</title>
<path fill="none" stroke="black" d="M128.4,-86.8C128.4,-75.16 128.4,-59.55 128.4,-46.24"/>
<polygon fill="black" stroke="black" points="131.9,-46.18 128.4,-36.18 124.9,-46.18 131.9,-46.18"/>
<text text-anchor="middle" x="143.9" y="-57.8" font-family="Times New Roman,serif" font-size="14.00">0.333</text>
</g>
<!-- 3 -->
<g id="node4" class="node">
<title>3</title>
<g id="a_node4"><a xlink:href="to_police officer.svg" xlink:title="police officer">
<ellipse fill="none" stroke="black" cx="243.4" cy="-105" rx="59.29" ry="18"/>
<text text-anchor="middle" x="243.4" y="-101.3" font-family="Times New Roman,serif" font-size="14.00">police officer</text>
</a>
</g>
</g>
<!-- 3&#45;&gt;1 -->
<g id="edge3" class="edge">
<title>3&#45;&gt;1</title>
<path fill="none" stroke="black" d="M222.04,-88.21C204.08,-74.94 178.2,-55.81 158.21,-41.03"/>
<polygon fill="black" stroke="black" points="160.16,-38.12 150.03,-34.99 156,-43.75 160.16,-38.12"/>
<text text-anchor="middle" x="207.9" y="-57.8" font-family="Times New Roman,serif" font-size="14.00">0.333</text>
</g>
</g>
</svg>
