<?xml version="1.0" encoding="UTF-8" standalone="no"?>
<!DOCTYPE svg PUBLIC "-//W3C//DTD SVG 1.1//EN"
 "http://www.w3.org/Graphics/SVG/1.1/DTD/svg11.dtd">
<!-- Generated by graphviz version 2.44.1 (20200629.0800)
 -->
<!-- Title: physiotherapist Pages: 1 -->
<svg width="1366pt" height="131pt"
 viewBox="0.00 0.00 1366.49 131.00" xmlns="http://www.w3.org/2000/svg" xmlns:xlink="http://www.w3.org/1999/xlink">
<g id="graph0" class="graph" transform="scale(1 1) rotate(0) translate(4 127)">
<title>physiotherapist</title>
<polygon fill="white" stroke="transparent" points="-4,4 -4,-127 1362.49,-127 1362.49,4 -4,4"/>
<!-- 0 -->
<g id="node1" class="node">
<title>0</title>
<g id="a_node1"><a xlink:href="to_physiotherapist.svg" xlink:title="physiotherapist">
<ellipse fill="none" stroke="black" cx="644.6" cy="-18" rx="65.79" ry="18"/>
<text text-anchor="middle" x="644.6" y="-14.3" font-family="Times New Roman,serif" font-size="14.00">physiotherapist</text>
</a>
</g>
</g>
<!-- 0&#45;&gt;0 -->
<g id="edge1" class="edge">
<title>0&#45;&gt;0</title>
<path fill="none" stroke="black" d="M703.99,-25.72C717.94,-25.08 728.24,-22.51 728.24,-18 728.24,-14.69 722.69,-12.42 714.21,-11.2"/>
<polygon fill="black" stroke="black" points="714.26,-7.69 703.99,-10.28 713.64,-14.66 714.26,-7.69"/>
<text text-anchor="middle" x="743.74" y="-14.3" font-family="Times New Roman,serif" font-size="14.00">0.368</text>
</g>
<!-- 1 -->
<g id="node2" class="node">
<title>1</title>
<g id="a_node2"><a xlink:href="to_it consultant.svg" xlink:title="it consultant">
<ellipse fill="none" stroke="black" cx="54.6" cy="-105" rx="54.69" ry="18"/>
<text text-anchor="middle" x="54.6" y="-101.3" font-family="Times New Roman,serif" font-size="14.00">it consultant</text>
</a>
</g>
</g>
<!-- 1&#45;&gt;0 -->
<g id="edge2" class="edge">
<title>1&#45;&gt;0</title>
<path fill="none" stroke="black" d="M95.21,-92.82C102.65,-90.84 110.34,-88.83 117.6,-87 180.01,-71.28 195.06,-64.26 258.6,-54 366.19,-36.62 492.16,-27.22 570.18,-22.66"/>
<polygon fill="black" stroke="black" points="570.61,-26.14 580.39,-22.08 570.21,-19.15 570.61,-26.14"/>
<text text-anchor="middle" x="274.1" y="-57.8" font-family="Times New Roman,serif" font-size="14.00">0.052</text>
</g>
<!-- 2 -->
<g id="node3" class="node">
<title>2</title>
<g id="a_node3"><a xlink:href="to_lecturer.svg" xlink:title="lecturer">
<ellipse fill="none" stroke="black" cx="164.6" cy="-105" rx="37.89" ry="18"/>
<text text-anchor="middle" x="164.6" y="-101.3" font-family="Times New Roman,serif" font-size="14.00">lecturer</text>
</a>
</g>
</g>
<!-- 2&#45;&gt;0 -->
<g id="edge3" class="edge">
<title>2&#45;&gt;0</title>
<path fill="none" stroke="black" d="M192.66,-92.89C198.83,-90.72 205.38,-88.62 211.6,-87 336.98,-54.38 487.11,-35.07 573.61,-25.8"/>
<polygon fill="black" stroke="black" points="574,-29.28 583.58,-24.74 573.27,-22.31 574,-29.28"/>
<text text-anchor="middle" x="381.1" y="-57.8" font-family="Times New Roman,serif" font-size="14.00">0.052</text>
</g>
<!-- 3 -->
<g id="node4" class="node">
<title>3</title>
<g id="a_node4"><a xlink:href="to_medical physicist.svg" xlink:title="medical physicist">
<ellipse fill="none" stroke="black" cx="293.6" cy="-105" rx="73.39" ry="18"/>
<text text-anchor="middle" x="293.6" y="-101.3" font-family="Times New Roman,serif" font-size="14.00">medical physicist</text>
</a>
</g>
</g>
<!-- 3&#45;&gt;0 -->
<g id="edge4" class="edge">
<title>3&#45;&gt;0</title>
<path fill="none" stroke="black" d="M343.88,-91.82C408.25,-76.23 519.51,-49.29 587.15,-32.91"/>
<polygon fill="black" stroke="black" points="588.31,-36.23 597.21,-30.48 586.67,-29.43 588.31,-36.23"/>
<text text-anchor="middle" x="506.1" y="-57.8" font-family="Times New Roman,serif" font-size="14.00">0.052</text>
</g>
<!-- 4 -->
<g id="node5" class="node">
<title>4</title>
<g id="a_node5"><a xlink:href="to_occupational therapist.svg" xlink:title="occupational therapist">
<ellipse fill="none" stroke="black" cx="475.6" cy="-105" rx="90.18" ry="18"/>
<text text-anchor="middle" x="475.6" y="-101.3" font-family="Times New Roman,serif" font-size="14.00">occupational therapist</text>
</a>
</g>
</g>
<!-- 4&#45;&gt;0 -->
<g id="edge5" class="edge">
<title>4&#45;&gt;0</title>
<path fill="none" stroke="black" d="M507.38,-88.01C535.16,-74.04 575.6,-53.7 605.39,-38.72"/>
<polygon fill="black" stroke="black" points="607.29,-41.68 614.65,-34.06 604.15,-35.43 607.29,-41.68"/>
<text text-anchor="middle" x="586.1" y="-57.8" font-family="Times New Roman,serif" font-size="14.00">0.052</text>
</g>
<!-- 5 -->
<g id="node6" class="node">
<title>5</title>
<g id="a_node6"><a xlink:href="to_sales manager.svg" xlink:title="sales manager">
<ellipse fill="none" stroke="black" cx="644.6" cy="-105" rx="61.19" ry="18"/>
<text text-anchor="middle" x="644.6" y="-101.3" font-family="Times New Roman,serif" font-size="14.00">sales manager</text>
</a>
</g>
</g>
<!-- 5&#45;&gt;0 -->
<g id="edge6" class="edge">
<title>5&#45;&gt;0</title>
<path fill="none" stroke="black" d="M644.6,-86.8C644.6,-75.16 644.6,-59.55 644.6,-46.24"/>
<polygon fill="black" stroke="black" points="648.1,-46.18 644.6,-36.18 641.1,-46.18 648.1,-46.18"/>
<text text-anchor="middle" x="660.1" y="-57.8" font-family="Times New Roman,serif" font-size="14.00">0.052</text>
</g>
<!-- 6 -->
<g id="node7" class="node">
<title>6</title>
<g id="a_node7"><a xlink:href="to_aeronautical engineer.svg" xlink:title="aeronautical engineer">
<ellipse fill="none" stroke="black" cx="809.6" cy="-105" rx="85.59" ry="18"/>
<text text-anchor="middle" x="809.6" y="-101.3" font-family="Times New Roman,serif" font-size="14.00">aeronautical engineer</text>
</a>
</g>
</g>
<!-- 6&#45;&gt;0 -->
<g id="edge7" class="edge">
<title>6&#45;&gt;0</title>
<path fill="none" stroke="black" d="M778.56,-88.01C751.52,-74.08 712.2,-53.83 683.15,-38.86"/>
<polygon fill="black" stroke="black" points="684.6,-35.67 674.1,-34.2 681.39,-41.89 684.6,-35.67"/>
<text text-anchor="middle" x="753.1" y="-57.8" font-family="Times New Roman,serif" font-size="14.00">0.026</text>
</g>
<!-- 7 -->
<g id="node8" class="node">
<title>7</title>
<g id="a_node8"><a xlink:href="to_aid worker.svg" xlink:title="aid worker">
<ellipse fill="none" stroke="black" cx="962.6" cy="-105" rx="49.29" ry="18"/>
<text text-anchor="middle" x="962.6" y="-101.3" font-family="Times New Roman,serif" font-size="14.00">aid worker</text>
</a>
</g>
</g>
<!-- 7&#45;&gt;0 -->
<g id="edge8" class="edge">
<title>7&#45;&gt;0</title>
<path fill="none" stroke="black" d="M925.51,-92.96C918.57,-90.94 911.37,-88.88 904.6,-87 834.69,-67.62 753.79,-46.7 701.04,-33.25"/>
<polygon fill="black" stroke="black" points="701.76,-29.83 691.2,-30.75 700.03,-36.61 701.76,-29.83"/>
<text text-anchor="middle" x="849.1" y="-57.8" font-family="Times New Roman,serif" font-size="14.00">0.026</text>
</g>
<!-- 8 -->
<g id="node9" class="node">
<title>8</title>
<g id="a_node9"><a xlink:href="to_airline cabin crew.svg" xlink:title="airline cabin crew">
<ellipse fill="none" stroke="black" cx="1103.6" cy="-105" rx="73.39" ry="18"/>
<text text-anchor="middle" x="1103.6" y="-101.3" font-family="Times New Roman,serif" font-size="14.00">airline cabin crew</text>
</a>
</g>
</g>
<!-- 8&#45;&gt;0 -->
<g id="edge9" class="edge">
<title>8&#45;&gt;0</title>
<path fill="none" stroke="black" d="M1051.95,-92.16C1004.45,-81.48 931.97,-65.68 868.6,-54 816.16,-44.33 756.51,-35.1 711.95,-28.54"/>
<polygon fill="black" stroke="black" points="712.22,-25.05 701.82,-27.06 711.21,-31.97 712.22,-25.05"/>
<text text-anchor="middle" x="955.1" y="-57.8" font-family="Times New Roman,serif" font-size="14.00">0.026</text>
</g>
<!-- 9 -->
<g id="node10" class="node">
<title>9</title>
<g id="a_node10"><a xlink:href="to_biomedical scientist.svg" xlink:title="biomedical scientist">
<ellipse fill="none" stroke="black" cx="1276.6" cy="-105" rx="81.79" ry="18"/>
<text text-anchor="middle" x="1276.6" y="-101.3" font-family="Times New Roman,serif" font-size="14.00">biomedical scientist</text>
</a>
</g>
</g>
<!-- 9&#45;&gt;0 -->
<g id="edge10" class="edge">
<title>9&#45;&gt;0</title>
<path fill="none" stroke="black" d="M1216.92,-92.59C1206.49,-90.67 1195.73,-88.74 1185.6,-87 1092.04,-70.95 1068.71,-66.34 974.6,-54 885.62,-42.33 782.76,-31.91 715.84,-25.53"/>
<polygon fill="black" stroke="black" points="716.11,-22.04 705.83,-24.58 715.45,-29.01 716.11,-22.04"/>
<text text-anchor="middle" x="1092.1" y="-57.8" font-family="Times New Roman,serif" font-size="14.00">0.026</text>
</g>
</g>
</svg>
