<?xml version="1.0" encoding="UTF-8" standalone="no"?>
<!DOCTYPE svg PUBLIC "-//W3C//DTD SVG 1.1//EN"
 "http://www.w3.org/Graphics/SVG/1.1/DTD/svg11.dtd">
<!-- Generated by graphviz version 2.44.1 (20200629.0800)
 -->
<!-- Title: probation_officer Pages: 1 -->
<svg width="1202pt" height="131pt"
 viewBox="0.00 0.00 1201.89 131.00" xmlns="http://www.w3.org/2000/svg" xmlns:xlink="http://www.w3.org/1999/xlink">
<g id="graph0" class="graph" transform="scale(1 1) rotate(0) translate(4 127)">
<title>probation_officer</title>
<polygon fill="white" stroke="transparent" points="-4,4 -4,-127 1197.89,-127 1197.89,4 -4,4"/>
<!-- 0 -->
<g id="node1" class="node">
<title>0</title>
<g id="a_node1"><a xlink:href="to_qa analyst.svg" xlink:title="qa analyst">
<ellipse fill="none" stroke="black" cx="46.8" cy="-105" rx="46.59" ry="18"/>
<text text-anchor="middle" x="46.8" y="-101.3" font-family="Times New Roman,serif" font-size="14.00">qa analyst</text>
</a>
</g>
</g>
<!-- 1 -->
<g id="node2" class="node">
<title>1</title>
<g id="a_node2"><a xlink:href="to_probation officer.svg" xlink:title="probation officer">
<ellipse fill="none" stroke="black" cx="642.8" cy="-18" rx="72.29" ry="18"/>
<text text-anchor="middle" x="642.8" y="-14.3" font-family="Times New Roman,serif" font-size="14.00">probation officer</text>
</a>
</g>
</g>
<!-- 0&#45;&gt;1 -->
<g id="edge1" class="edge">
<title>0&#45;&gt;1</title>
<path fill="none" stroke="black" d="M80.58,-92.54C87.54,-90.47 94.86,-88.5 101.8,-87 264.27,-51.96 458.38,-33 564.29,-24.54"/>
<polygon fill="black" stroke="black" points="564.56,-28.03 574.26,-23.76 564.01,-21.05 564.56,-28.03"/>
<text text-anchor="middle" x="288.8" y="-57.8" font-family="Times New Roman,serif" font-size="14.00">0.2</text>
</g>
<!-- 1&#45;&gt;1 -->
<g id="edge8" class="edge">
<title>1&#45;&gt;1</title>
<path fill="none" stroke="black" d="M708.43,-25.64C722.64,-24.9 732.94,-22.35 732.94,-18 732.94,-14.77 727.26,-12.54 718.53,-11.29"/>
<polygon fill="black" stroke="black" points="718.71,-7.8 708.43,-10.36 718.06,-14.77 718.71,-7.8"/>
<text text-anchor="middle" x="741.94" y="-14.3" font-family="Times New Roman,serif" font-size="14.00">0.1</text>
</g>
<!-- 2 -->
<g id="node3" class="node">
<title>2</title>
<g id="a_node3"><a xlink:href="to_education administrator.svg" xlink:title="education administrator">
<ellipse fill="none" stroke="black" cx="206.8" cy="-105" rx="95.58" ry="18"/>
<text text-anchor="middle" x="206.8" y="-101.3" font-family="Times New Roman,serif" font-size="14.00">education administrator</text>
</a>
</g>
</g>
<!-- 2&#45;&gt;1 -->
<g id="edge2" class="edge">
<title>2&#45;&gt;1</title>
<path fill="none" stroke="black" d="M270.66,-91.55C352.86,-75.52 494.91,-47.83 577.7,-31.69"/>
<polygon fill="black" stroke="black" points="578.59,-35.08 587.74,-29.73 577.25,-28.21 578.59,-35.08"/>
<text text-anchor="middle" x="460.8" y="-57.8" font-family="Times New Roman,serif" font-size="14.00">0.1</text>
</g>
<!-- 3 -->
<g id="node4" class="node">
<title>3</title>
<g id="a_node4"><a xlink:href="to_electrical engineer.svg" xlink:title="electrical engineer">
<ellipse fill="none" stroke="black" cx="394.8" cy="-105" rx="74.99" ry="18"/>
<text text-anchor="middle" x="394.8" y="-101.3" font-family="Times New Roman,serif" font-size="14.00">electrical engineer</text>
</a>
</g>
</g>
<!-- 3&#45;&gt;1 -->
<g id="edge3" class="edge">
<title>3&#45;&gt;1</title>
<path fill="none" stroke="black" d="M436.03,-89.87C478.97,-75.15 546.3,-52.07 592.38,-36.28"/>
<polygon fill="black" stroke="black" points="593.55,-39.58 601.88,-33.02 591.28,-32.96 593.55,-39.58"/>
<text text-anchor="middle" x="542.8" y="-57.8" font-family="Times New Roman,serif" font-size="14.00">0.1</text>
</g>
<!-- 4 -->
<g id="node5" class="node">
<title>4</title>
<g id="a_node5"><a xlink:href="to_exploration geologist.svg" xlink:title="exploration geologist">
<ellipse fill="none" stroke="black" cx="573.8" cy="-105" rx="86.38" ry="18"/>
<text text-anchor="middle" x="573.8" y="-101.3" font-family="Times New Roman,serif" font-size="14.00">exploration geologist</text>
</a>
</g>
</g>
<!-- 4&#45;&gt;1 -->
<g id="edge4" class="edge">
<title>4&#45;&gt;1</title>
<path fill="none" stroke="black" d="M587.43,-87.21C597.54,-74.75 611.48,-57.57 622.85,-43.57"/>
<polygon fill="black" stroke="black" points="625.61,-45.73 629.19,-35.76 620.17,-41.32 625.61,-45.73"/>
<text text-anchor="middle" x="621.8" y="-57.8" font-family="Times New Roman,serif" font-size="14.00">0.1</text>
</g>
<!-- 5 -->
<g id="node6" class="node">
<title>5</title>
<g id="a_node6"><a xlink:href="to_lawyer.svg" xlink:title="lawyer">
<ellipse fill="none" stroke="black" cx="712.8" cy="-105" rx="34.39" ry="18"/>
<text text-anchor="middle" x="712.8" y="-101.3" font-family="Times New Roman,serif" font-size="14.00">lawyer</text>
</a>
</g>
</g>
<!-- 5&#45;&gt;1 -->
<g id="edge5" class="edge">
<title>5&#45;&gt;1</title>
<path fill="none" stroke="black" d="M699.63,-88.01C689.37,-75.55 674.93,-58.02 663.18,-43.75"/>
<polygon fill="black" stroke="black" points="665.68,-41.28 656.62,-35.79 660.28,-45.73 665.68,-41.28"/>
<text text-anchor="middle" x="691.8" y="-57.8" font-family="Times New Roman,serif" font-size="14.00">0.1</text>
</g>
<!-- 6 -->
<g id="node7" class="node">
<title>6</title>
<g id="a_node7"><a xlink:href="to_patent attorney.svg" xlink:title="patent attorney">
<ellipse fill="none" stroke="black" cx="829.8" cy="-105" rx="64.19" ry="18"/>
<text text-anchor="middle" x="829.8" y="-101.3" font-family="Times New Roman,serif" font-size="14.00">patent attorney</text>
</a>
</g>
</g>
<!-- 6&#45;&gt;1 -->
<g id="edge6" class="edge">
<title>6&#45;&gt;1</title>
<path fill="none" stroke="black" d="M797.65,-89.39C766.63,-75.29 719.47,-53.85 685.35,-38.34"/>
<polygon fill="black" stroke="black" points="686.65,-35.09 676.1,-34.14 683.75,-41.46 686.65,-35.09"/>
<text text-anchor="middle" x="756.8" y="-57.8" font-family="Times New Roman,serif" font-size="14.00">0.1</text>
</g>
<!-- 7 -->
<g id="node8" class="node">
<title>7</title>
<g id="a_node8"><a xlink:href="to_pr officer.svg" xlink:title="pr officer">
<ellipse fill="none" stroke="black" cx="956.8" cy="-105" rx="44.69" ry="18"/>
<text text-anchor="middle" x="956.8" y="-101.3" font-family="Times New Roman,serif" font-size="14.00">pr officer</text>
</a>
</g>
</g>
<!-- 7&#45;&gt;1 -->
<g id="edge7" class="edge">
<title>7&#45;&gt;1</title>
<path fill="none" stroke="black" d="M922.88,-93.04C916.24,-90.98 909.31,-88.88 902.8,-87 834.35,-67.29 755.08,-46.9 702.23,-33.66"/>
<polygon fill="black" stroke="black" points="702.9,-30.22 692.35,-31.19 701.21,-37.01 702.9,-30.22"/>
<text text-anchor="middle" x="839.8" y="-57.8" font-family="Times New Roman,serif" font-size="14.00">0.1</text>
</g>
<!-- 8 -->
<g id="node9" class="node">
<title>8</title>
<g id="a_node9"><a xlink:href="to_welfare rights adviser.svg" xlink:title="welfare rights adviser">
<ellipse fill="none" stroke="black" cx="1106.8" cy="-105" rx="87.18" ry="18"/>
<text text-anchor="middle" x="1106.8" y="-101.3" font-family="Times New Roman,serif" font-size="14.00">welfare rights adviser</text>
</a>
</g>
</g>
<!-- 8&#45;&gt;1 -->
<g id="edge9" class="edge">
<title>8&#45;&gt;1</title>
<path fill="none" stroke="black" d="M1047.36,-91.79C995.94,-81.35 919.57,-66.13 852.8,-54 805.93,-45.48 753.03,-36.67 712.05,-30.02"/>
<polygon fill="black" stroke="black" points="712.6,-26.56 702.17,-28.42 711.48,-33.47 712.6,-26.56"/>
<text text-anchor="middle" x="937.8" y="-57.8" font-family="Times New Roman,serif" font-size="14.00">0.1</text>
</g>
</g>
</svg>
