<?xml version="1.0" encoding="UTF-8" standalone="no"?>
<!DOCTYPE svg PUBLIC "-//W3C//DTD SVG 1.1//EN"
 "http://www.w3.org/Graphics/SVG/1.1/DTD/svg11.dtd">
<!-- Generated by graphviz version 2.44.1 (20200629.0800)
 -->
<!-- Title: research_scientist Pages: 1 -->
<svg width="1549pt" height="131pt"
 viewBox="0.00 0.00 1549.34 131.00" xmlns="http://www.w3.org/2000/svg" xmlns:xlink="http://www.w3.org/1999/xlink">
<g id="graph0" class="graph" transform="scale(1 1) rotate(0) translate(4 127)">
<title>research_scientist</title>
<polygon fill="white" stroke="transparent" points="-4,4 -4,-127 1545.34,-127 1545.34,4 -4,4"/>
<!-- 0 -->
<g id="node1" class="node">
<title>0</title>
<g id="a_node1"><a xlink:href="to_research scientist.svg" xlink:title="research scientist">
<ellipse fill="none" stroke="black" cx="718.7" cy="-18" rx="72.59" ry="18"/>
<text text-anchor="middle" x="718.7" y="-14.3" font-family="Times New Roman,serif" font-size="14.00">research scientist</text>
</a>
</g>
</g>
<!-- 0&#45;&gt;0 -->
<g id="edge1" class="edge">
<title>0&#45;&gt;0</title>
<path fill="none" stroke="black" d="M784.8,-25.64C799.11,-24.9 809.49,-22.35 809.49,-18 809.49,-14.77 803.77,-12.54 794.98,-11.29"/>
<polygon fill="black" stroke="black" points="795.08,-7.79 784.8,-10.36 794.44,-14.76 795.08,-7.79"/>
<text text-anchor="middle" x="824.99" y="-14.3" font-family="Times New Roman,serif" font-size="14.00">0.272</text>
</g>
<!-- 1 -->
<g id="node2" class="node">
<title>1</title>
<g id="a_node2"><a xlink:href="to_lecturer.svg" xlink:title="lecturer">
<ellipse fill="none" stroke="black" cx="37.7" cy="-105" rx="37.89" ry="18"/>
<text text-anchor="middle" x="37.7" y="-101.3" font-family="Times New Roman,serif" font-size="14.00">lecturer</text>
</a>
</g>
</g>
<!-- 1&#45;&gt;0 -->
<g id="edge2" class="edge">
<title>1&#45;&gt;0</title>
<path fill="none" stroke="black" d="M65.73,-92.75C71.9,-90.58 78.46,-88.52 84.7,-87 278.75,-39.69 514.2,-25.29 636.3,-20.91"/>
<polygon fill="black" stroke="black" points="636.45,-24.41 646.32,-20.56 636.21,-17.41 636.45,-24.41"/>
<text text-anchor="middle" x="272.2" y="-57.8" font-family="Times New Roman,serif" font-size="14.00">0.093</text>
</g>
<!-- 2 -->
<g id="node3" class="node">
<title>2</title>
<g id="a_node3"><a xlink:href="to_academic librarian.svg" xlink:title="academic librarian">
<ellipse fill="none" stroke="black" cx="169.7" cy="-105" rx="76.09" ry="18"/>
<text text-anchor="middle" x="169.7" y="-101.3" font-family="Times New Roman,serif" font-size="14.00">academic librarian</text>
</a>
</g>
</g>
<!-- 2&#45;&gt;0 -->
<g id="edge3" class="edge">
<title>2&#45;&gt;0</title>
<path fill="none" stroke="black" d="M224.95,-92.55C234.84,-90.61 245.06,-88.69 254.7,-87 392.49,-62.9 554.32,-40.52 645.86,-28.41"/>
<polygon fill="black" stroke="black" points="646.4,-31.87 655.85,-27.09 645.48,-24.93 646.4,-31.87"/>
<text text-anchor="middle" x="474.2" y="-57.8" font-family="Times New Roman,serif" font-size="14.00">0.030</text>
</g>
<!-- 3 -->
<g id="node4" class="node">
<title>3</title>
<g id="a_node4"><a xlink:href="to_software developer.svg" xlink:title="software developer">
<ellipse fill="none" stroke="black" cx="343.7" cy="-105" rx="79.89" ry="18"/>
<text text-anchor="middle" x="343.7" y="-101.3" font-family="Times New Roman,serif" font-size="14.00">software developer</text>
</a>
</g>
</g>
<!-- 3&#45;&gt;0 -->
<g id="edge4" class="edge">
<title>3&#45;&gt;0</title>
<path fill="none" stroke="black" d="M397.82,-91.73C466.59,-76.14 584.99,-49.31 657.14,-32.95"/>
<polygon fill="black" stroke="black" points="658.02,-36.34 667,-30.72 656.47,-29.52 658.02,-36.34"/>
<text text-anchor="middle" x="569.2" y="-57.8" font-family="Times New Roman,serif" font-size="14.00">0.030</text>
</g>
<!-- 4 -->
<g id="node5" class="node">
<title>4</title>
<g id="a_node5"><a xlink:href="to_teaching assistant.svg" xlink:title="teaching assistant">
<ellipse fill="none" stroke="black" cx="514.7" cy="-105" rx="73.39" ry="18"/>
<text text-anchor="middle" x="514.7" y="-101.3" font-family="Times New Roman,serif" font-size="14.00">teaching assistant</text>
</a>
</g>
</g>
<!-- 4&#45;&gt;0 -->
<g id="edge5" class="edge">
<title>4&#45;&gt;0</title>
<path fill="none" stroke="black" d="M550.23,-89.19C584.5,-74.92 636.49,-53.25 673.65,-37.77"/>
<polygon fill="black" stroke="black" points="675.34,-40.86 683.23,-33.78 672.65,-34.39 675.34,-40.86"/>
<text text-anchor="middle" x="645.2" y="-57.8" font-family="Times New Roman,serif" font-size="14.00">0.030</text>
</g>
<!-- 5 -->
<g id="node6" class="node">
<title>5</title>
<g id="a_node6"><a xlink:href="to_government research officer.svg" xlink:title="government research officer">
<ellipse fill="none" stroke="black" cx="718.7" cy="-105" rx="112.38" ry="18"/>
<text text-anchor="middle" x="718.7" y="-101.3" font-family="Times New Roman,serif" font-size="14.00">government research officer</text>
</a>
</g>
</g>
<!-- 5&#45;&gt;0 -->
<g id="edge6" class="edge">
<title>5&#45;&gt;0</title>
<path fill="none" stroke="black" d="M718.7,-86.8C718.7,-75.16 718.7,-59.55 718.7,-46.24"/>
<polygon fill="black" stroke="black" points="722.2,-46.18 718.7,-36.18 715.2,-46.18 722.2,-46.18"/>
<text text-anchor="middle" x="734.2" y="-57.8" font-family="Times New Roman,serif" font-size="14.00">0.027</text>
</g>
<!-- 6 -->
<g id="node7" class="node">
<title>6</title>
<g id="a_node7"><a xlink:href="to_clinical research associate.svg" xlink:title="clinical research associate">
<ellipse fill="none" stroke="black" cx="952.7" cy="-105" rx="103.98" ry="18"/>
<text text-anchor="middle" x="952.7" y="-101.3" font-family="Times New Roman,serif" font-size="14.00">clinical research associate</text>
</a>
</g>
</g>
<!-- 6&#45;&gt;0 -->
<g id="edge7" class="edge">
<title>6&#45;&gt;0</title>
<path fill="none" stroke="black" d="M910.05,-88.51C869.81,-73.89 809.55,-52 767.43,-36.7"/>
<polygon fill="black" stroke="black" points="768.53,-33.38 757.94,-33.25 766.14,-39.96 768.53,-33.38"/>
<text text-anchor="middle" x="866.2" y="-57.8" font-family="Times New Roman,serif" font-size="14.00">0.025</text>
</g>
<!-- 7 -->
<g id="node8" class="node">
<title>7</title>
<g id="a_node8"><a xlink:href="to_teacher.svg" xlink:title="teacher">
<ellipse fill="none" stroke="black" cx="1110.7" cy="-105" rx="36.29" ry="18"/>
<text text-anchor="middle" x="1110.7" y="-101.3" font-family="Times New Roman,serif" font-size="14.00">teacher</text>
</a>
</g>
</g>
<!-- 7&#45;&gt;0 -->
<g id="edge8" class="edge">
<title>7&#45;&gt;0</title>
<path fill="none" stroke="black" d="M1083.34,-92.83C1077.57,-90.71 1071.48,-88.65 1065.7,-87 971.86,-60.28 860.79,-40.53 790.05,-29.39"/>
<polygon fill="black" stroke="black" points="790.34,-25.89 779.92,-27.81 789.26,-32.81 790.34,-25.89"/>
<text text-anchor="middle" x="1007.2" y="-57.8" font-family="Times New Roman,serif" font-size="14.00">0.023</text>
</g>
<!-- 8 -->
<g id="node9" class="node">
<title>8</title>
<g id="a_node9"><a xlink:href="to_electrical engineer.svg" xlink:title="electrical engineer">
<ellipse fill="none" stroke="black" cx="1239.7" cy="-105" rx="74.99" ry="18"/>
<text text-anchor="middle" x="1239.7" y="-101.3" font-family="Times New Roman,serif" font-size="14.00">electrical engineer</text>
</a>
</g>
</g>
<!-- 8&#45;&gt;0 -->
<g id="edge9" class="edge">
<title>8&#45;&gt;0</title>
<path fill="none" stroke="black" d="M1191.81,-91.06C1148.86,-79.86 1083.96,-63.94 1026.7,-54 949.1,-40.53 859.56,-31.02 797.1,-25.35"/>
<polygon fill="black" stroke="black" points="797.19,-21.84 786.92,-24.44 796.57,-28.82 797.19,-21.84"/>
<text text-anchor="middle" x="1112.2" y="-57.8" font-family="Times New Roman,serif" font-size="14.00">0.020</text>
</g>
<!-- 9 -->
<g id="node10" class="node">
<title>9</title>
<g id="a_node10"><a xlink:href="to_pharmacovigilance officer.svg" xlink:title="pharmacovigilance officer">
<ellipse fill="none" stroke="black" cx="1436.7" cy="-105" rx="104.78" ry="18"/>
<text text-anchor="middle" x="1436.7" y="-101.3" font-family="Times New Roman,serif" font-size="14.00">pharmacovigilance officer</text>
</a>
</g>
</g>
<!-- 9&#45;&gt;0 -->
<g id="edge10" class="edge">
<title>9&#45;&gt;0</title>
<path fill="none" stroke="black" d="M1368.78,-91.31C1307.11,-80.15 1213.57,-64.16 1131.7,-54 1016.36,-39.68 882.16,-29.5 798.81,-23.93"/>
<polygon fill="black" stroke="black" points="798.86,-20.43 788.66,-23.26 798.4,-27.41 798.86,-20.43"/>
<text text-anchor="middle" x="1247.2" y="-57.8" font-family="Times New Roman,serif" font-size="14.00">0.020</text>
</g>
</g>
</svg>
