<?xml version="1.0" encoding="UTF-8" standalone="no"?>
<!DOCTYPE svg PUBLIC "-//W3C//DTD SVG 1.1//EN"
 "http://www.w3.org/Graphics/SVG/1.1/DTD/svg11.dtd">
<!-- Generated by graphviz version 2.44.1 (20200629.0800)
 -->
<!-- Title: retail_buyer Pages: 1 -->
<svg width="1432pt" height="131pt"
 viewBox="0.00 0.00 1432.34 131.00" xmlns="http://www.w3.org/2000/svg" xmlns:xlink="http://www.w3.org/1999/xlink">
<g id="graph0" class="graph" transform="scale(1 1) rotate(0) translate(4 127)">
<title>retail_buyer</title>
<polygon fill="white" stroke="transparent" points="-4,4 -4,-127 1428.34,-127 1428.34,4 -4,4"/>
<!-- 0 -->
<g id="node1" class="node">
<title>0</title>
<g id="a_node1"><a xlink:href="to_sales manager.svg" xlink:title="sales manager">
<ellipse fill="none" stroke="black" cx="61.09" cy="-105" rx="61.19" ry="18"/>
<text text-anchor="middle" x="61.09" y="-101.3" font-family="Times New Roman,serif" font-size="14.00">sales manager</text>
</a>
</g>
</g>
<!-- 1 -->
<g id="node2" class="node">
<title>1</title>
<g id="a_node2"><a xlink:href="to_retail buyer.svg" xlink:title="retail buyer">
<ellipse fill="none" stroke="black" cx="708.09" cy="-18" rx="50.89" ry="18"/>
<text text-anchor="middle" x="708.09" y="-14.3" font-family="Times New Roman,serif" font-size="14.00">retail buyer</text>
</a>
</g>
</g>
<!-- 0&#45;&gt;1 -->
<g id="edge1" class="edge">
<title>0&#45;&gt;1</title>
<path fill="none" stroke="black" d="M105.37,-92.45C113.87,-90.46 122.73,-88.54 131.09,-87 318.53,-52.46 543.63,-31.86 648.67,-23.44"/>
<polygon fill="black" stroke="black" points="649.07,-26.92 658.76,-22.64 648.51,-19.94 649.07,-26.92"/>
<text text-anchor="middle" x="352.59" y="-57.8" font-family="Times New Roman,serif" font-size="14.00">0.128</text>
</g>
<!-- 1&#45;&gt;1 -->
<g id="edge3" class="edge">
<title>1&#45;&gt;1</title>
<path fill="none" stroke="black" d="M754,-25.84C766.89,-25.49 776.79,-22.88 776.79,-18 776.79,-14.49 771.68,-12.16 764.02,-10.99"/>
<polygon fill="black" stroke="black" points="764.26,-7.5 754,-10.16 763.68,-14.48 764.26,-7.5"/>
<text text-anchor="middle" x="792.29" y="-14.3" font-family="Times New Roman,serif" font-size="14.00">0.064</text>
</g>
<!-- 2 -->
<g id="node3" class="node">
<title>2</title>
<g id="a_node3"><a xlink:href="to_computer sales support.svg" xlink:title="computer sales support">
<ellipse fill="none" stroke="black" cx="236.09" cy="-105" rx="96.38" ry="18"/>
<text text-anchor="middle" x="236.09" y="-101.3" font-family="Times New Roman,serif" font-size="14.00">computer sales support</text>
</a>
</g>
</g>
<!-- 2&#45;&gt;1 -->
<g id="edge2" class="edge">
<title>2&#45;&gt;1</title>
<path fill="none" stroke="black" d="M301.5,-91.74C356.37,-81.51 436.81,-66.6 507.09,-54 556.59,-45.12 613.01,-35.33 653.44,-28.36"/>
<polygon fill="black" stroke="black" points="654.1,-31.8 663.37,-26.66 652.92,-24.9 654.1,-31.8"/>
<text text-anchor="middle" x="522.59" y="-57.8" font-family="Times New Roman,serif" font-size="14.00">0.064</text>
</g>
<!-- 3 -->
<g id="node4" class="node">
<title>3</title>
<g id="a_node4"><a xlink:href="to_retail manager.svg" xlink:title="retail manager">
<ellipse fill="none" stroke="black" cx="411.09" cy="-105" rx="60.39" ry="18"/>
<text text-anchor="middle" x="411.09" y="-101.3" font-family="Times New Roman,serif" font-size="14.00">retail manager</text>
</a>
</g>
</g>
<!-- 3&#45;&gt;1 -->
<g id="edge4" class="edge">
<title>3&#45;&gt;1</title>
<path fill="none" stroke="black" d="M453.02,-92C507.47,-76.42 602.34,-49.27 659.76,-32.83"/>
<polygon fill="black" stroke="black" points="661.03,-36.11 669.68,-29.99 659.11,-29.38 661.03,-36.11"/>
<text text-anchor="middle" x="593.59" y="-57.8" font-family="Times New Roman,serif" font-size="14.00">0.051</text>
</g>
<!-- 4 -->
<g id="node5" class="node">
<title>4</title>
<g id="a_node5"><a xlink:href="to_careers adviser.svg" xlink:title="careers adviser">
<ellipse fill="none" stroke="black" cx="554.09" cy="-105" rx="64.99" ry="18"/>
<text text-anchor="middle" x="554.09" y="-101.3" font-family="Times New Roman,serif" font-size="14.00">careers adviser</text>
</a>
</g>
</g>
<!-- 4&#45;&gt;1 -->
<g id="edge5" class="edge">
<title>4&#45;&gt;1</title>
<path fill="none" stroke="black" d="M581.98,-88.61C607.53,-74.51 645.44,-53.58 673.03,-38.35"/>
<polygon fill="black" stroke="black" points="674.89,-41.32 681.95,-33.43 671.51,-35.2 674.89,-41.32"/>
<text text-anchor="middle" x="656.59" y="-57.8" font-family="Times New Roman,serif" font-size="14.00">0.038</text>
</g>
<!-- 5 -->
<g id="node6" class="node">
<title>5</title>
<g id="a_node6"><a xlink:href="to_catering manager.svg" xlink:title="catering manager">
<ellipse fill="none" stroke="black" cx="708.09" cy="-105" rx="71.49" ry="18"/>
<text text-anchor="middle" x="708.09" y="-101.3" font-family="Times New Roman,serif" font-size="14.00">catering manager</text>
</a>
</g>
</g>
<!-- 5&#45;&gt;1 -->
<g id="edge6" class="edge">
<title>5&#45;&gt;1</title>
<path fill="none" stroke="black" d="M708.09,-86.8C708.09,-75.16 708.09,-59.55 708.09,-46.24"/>
<polygon fill="black" stroke="black" points="711.59,-46.18 708.09,-36.18 704.59,-46.18 711.59,-46.18"/>
<text text-anchor="middle" x="723.59" y="-57.8" font-family="Times New Roman,serif" font-size="14.00">0.038</text>
</g>
<!-- 6 -->
<g id="node7" class="node">
<title>6</title>
<g id="a_node7"><a xlink:href="to_hotel manager.svg" xlink:title="hotel manager">
<ellipse fill="none" stroke="black" cx="859.09" cy="-105" rx="61.19" ry="18"/>
<text text-anchor="middle" x="859.09" y="-101.3" font-family="Times New Roman,serif" font-size="14.00">hotel manager</text>
</a>
</g>
</g>
<!-- 6&#45;&gt;1 -->
<g id="edge7" class="edge">
<title>6&#45;&gt;1</title>
<path fill="none" stroke="black" d="M832.1,-88.8C807.18,-74.77 770.03,-53.86 742.89,-38.59"/>
<polygon fill="black" stroke="black" points="744.53,-35.49 734.1,-33.64 741.1,-41.59 744.53,-35.49"/>
<text text-anchor="middle" x="808.59" y="-57.8" font-family="Times New Roman,serif" font-size="14.00">0.038</text>
</g>
<!-- 7 -->
<g id="node8" class="node">
<title>7</title>
<g id="a_node8"><a xlink:href="to_marketing assistant.svg" xlink:title="marketing assistant">
<ellipse fill="none" stroke="black" cx="1017.09" cy="-105" rx="79.09" ry="18"/>
<text text-anchor="middle" x="1017.09" y="-101.3" font-family="Times New Roman,serif" font-size="14.00">marketing assistant</text>
</a>
</g>
</g>
<!-- 7&#45;&gt;1 -->
<g id="edge8" class="edge">
<title>7&#45;&gt;1</title>
<path fill="none" stroke="black" d="M968.81,-90.72C911.05,-74.83 814.89,-48.38 756.9,-32.42"/>
<polygon fill="black" stroke="black" points="757.8,-29.04 747.23,-29.77 755.94,-35.79 757.8,-29.04"/>
<text text-anchor="middle" x="897.59" y="-57.8" font-family="Times New Roman,serif" font-size="14.00">0.038</text>
</g>
<!-- 8 -->
<g id="node9" class="node">
<title>8</title>
<g id="a_node9"><a xlink:href="to_office manager.svg" xlink:title="office manager">
<ellipse fill="none" stroke="black" cx="1179.09" cy="-105" rx="64.19" ry="18"/>
<text text-anchor="middle" x="1179.09" y="-101.3" font-family="Times New Roman,serif" font-size="14.00">office manager</text>
</a>
</g>
</g>
<!-- 8&#45;&gt;1 -->
<g id="edge9" class="edge">
<title>8&#45;&gt;1</title>
<path fill="none" stroke="black" d="M1131.8,-92.75C1122.94,-90.75 1113.75,-88.75 1105.09,-87 983.91,-62.46 840.75,-39.38 763.77,-27.45"/>
<polygon fill="black" stroke="black" points="764.23,-23.98 753.81,-25.91 763.16,-30.9 764.23,-23.98"/>
<text text-anchor="middle" x="1022.59" y="-57.8" font-family="Times New Roman,serif" font-size="14.00">0.038</text>
</g>
<!-- 9 -->
<g id="node10" class="node">
<title>9</title>
<g id="a_node10"><a xlink:href="to_political party agent.svg" xlink:title="political party agent">
<ellipse fill="none" stroke="black" cx="1343.09" cy="-105" rx="81.49" ry="18"/>
<text text-anchor="middle" x="1343.09" y="-101.3" font-family="Times New Roman,serif" font-size="14.00">political party agent</text>
</a>
</g>
</g>
<!-- 9&#45;&gt;1 -->
<g id="edge10" class="edge">
<title>9&#45;&gt;1</title>
<path fill="none" stroke="black" d="M1283.42,-92.6C1272.99,-90.68 1262.23,-88.74 1252.09,-87 1158.98,-70.99 1135.77,-66.26 1042.09,-54 945.93,-41.41 833.71,-30.41 766.91,-24.24"/>
<polygon fill="black" stroke="black" points="766.86,-20.72 756.58,-23.29 766.22,-27.69 766.86,-20.72"/>
<text text-anchor="middle" x="1158.59" y="-57.8" font-family="Times New Roman,serif" font-size="14.00">0.038</text>
</g>
</g>
</svg>
