<?xml version="1.0" encoding="UTF-8" standalone="no"?>
<!DOCTYPE svg PUBLIC "-//W3C//DTD SVG 1.1//EN"
 "http://www.w3.org/Graphics/SVG/1.1/DTD/svg11.dtd">
<!-- Generated by graphviz version 2.44.1 (20200629.0800)
 -->
<!-- Title: records_manager Pages: 1 -->
<svg width="1404pt" height="131pt"
 viewBox="0.00 0.00 1404.34 131.00" xmlns="http://www.w3.org/2000/svg" xmlns:xlink="http://www.w3.org/1999/xlink">
<g id="graph0" class="graph" transform="scale(1 1) rotate(0) translate(4 127)">
<title>records_manager</title>
<polygon fill="white" stroke="transparent" points="-4,4 -4,-127 1400.34,-127 1400.34,4 -4,4"/>
<!-- 0 -->
<g id="node1" class="node">
<title>0</title>
<g id="a_node1"><a xlink:href="to_records manager.svg" xlink:title="records manager">
<ellipse fill="none" stroke="black" cx="687.44" cy="-18" rx="71.49" ry="18"/>
<text text-anchor="middle" x="687.44" y="-14.3" font-family="Times New Roman,serif" font-size="14.00">records manager</text>
</a>
</g>
</g>
<!-- 0&#45;&gt;0 -->
<g id="edge1" class="edge">
<title>0&#45;&gt;0</title>
<path fill="none" stroke="black" d="M752.2,-25.66C766.51,-24.94 776.94,-22.39 776.94,-18 776.94,-14.74 771.2,-12.5 762.38,-11.26"/>
<polygon fill="black" stroke="black" points="762.48,-7.75 752.2,-10.34 761.85,-14.73 762.48,-7.75"/>
<text text-anchor="middle" x="792.44" y="-14.3" font-family="Times New Roman,serif" font-size="14.00">0.110</text>
</g>
<!-- 1 -->
<g id="node2" class="node">
<title>1</title>
<g id="a_node2"><a xlink:href="to_financial manager.svg" xlink:title="financial manager">
<ellipse fill="none" stroke="black" cx="73.44" cy="-105" rx="73.39" ry="18"/>
<text text-anchor="middle" x="73.44" y="-101.3" font-family="Times New Roman,serif" font-size="14.00">financial manager</text>
</a>
</g>
</g>
<!-- 1&#45;&gt;0 -->
<g id="edge2" class="edge">
<title>1&#45;&gt;0</title>
<path fill="none" stroke="black" d="M126.94,-92.62C136.74,-90.66 146.89,-88.7 156.44,-87 252.48,-69.87 276.73,-66.74 373.44,-54 455,-43.26 548.77,-33.09 612.45,-26.51"/>
<polygon fill="black" stroke="black" points="612.81,-29.99 622.4,-25.48 612.1,-23.03 612.81,-29.99"/>
<text text-anchor="middle" x="388.94" y="-57.8" font-family="Times New Roman,serif" font-size="14.00">0.052</text>
</g>
<!-- 2 -->
<g id="node3" class="node">
<title>2</title>
<g id="a_node3"><a xlink:href="to_heritage manager.svg" xlink:title="heritage manager">
<ellipse fill="none" stroke="black" cx="236.44" cy="-105" rx="71.49" ry="18"/>
<text text-anchor="middle" x="236.44" y="-101.3" font-family="Times New Roman,serif" font-size="14.00">heritage manager</text>
</a>
</g>
</g>
<!-- 2&#45;&gt;0 -->
<g id="edge3" class="edge">
<title>2&#45;&gt;0</title>
<path fill="none" stroke="black" d="M288.91,-92.69C298.08,-90.76 307.54,-88.8 316.44,-87 392.74,-71.58 411.89,-68.08 488.44,-54 532.15,-45.96 581.33,-37.31 619.86,-30.62"/>
<polygon fill="black" stroke="black" points="620.67,-34.03 629.93,-28.87 619.48,-27.13 620.67,-34.03"/>
<text text-anchor="middle" x="503.94" y="-57.8" font-family="Times New Roman,serif" font-size="14.00">0.052</text>
</g>
<!-- 3 -->
<g id="node4" class="node">
<title>3</title>
<g id="a_node4"><a xlink:href="to_project manager.svg" xlink:title="project manager">
<ellipse fill="none" stroke="black" cx="394.44" cy="-105" rx="68.79" ry="18"/>
<text text-anchor="middle" x="394.44" y="-101.3" font-family="Times New Roman,serif" font-size="14.00">project manager</text>
</a>
</g>
</g>
<!-- 3&#45;&gt;0 -->
<g id="edge4" class="edge">
<title>3&#45;&gt;0</title>
<path fill="none" stroke="black" d="M438.63,-91.18C490.51,-76.13 576.58,-51.16 632.66,-34.89"/>
<polygon fill="black" stroke="black" points="633.79,-38.21 642.42,-32.06 631.84,-31.49 633.79,-38.21"/>
<text text-anchor="middle" x="574.94" y="-57.8" font-family="Times New Roman,serif" font-size="14.00">0.052</text>
</g>
<!-- 4 -->
<g id="node5" class="node">
<title>4</title>
<g id="a_node5"><a xlink:href="to_it consultant.svg" xlink:title="it consultant">
<ellipse fill="none" stroke="black" cx="535.44" cy="-105" rx="54.69" ry="18"/>
<text text-anchor="middle" x="535.44" y="-101.3" font-family="Times New Roman,serif" font-size="14.00">it consultant</text>
</a>
</g>
</g>
<!-- 4&#45;&gt;0 -->
<g id="edge5" class="edge">
<title>4&#45;&gt;0</title>
<path fill="none" stroke="black" d="M561.92,-89.19C586.45,-75.48 623.17,-54.94 650.57,-39.62"/>
<polygon fill="black" stroke="black" points="652.45,-42.58 659.47,-34.64 649.03,-36.47 652.45,-42.58"/>
<text text-anchor="middle" x="636.94" y="-57.8" font-family="Times New Roman,serif" font-size="14.00">0.046</text>
</g>
<!-- 5 -->
<g id="node6" class="node">
<title>5</title>
<g id="a_node6"><a xlink:href="to_marketing assistant.svg" xlink:title="marketing assistant">
<ellipse fill="none" stroke="black" cx="687.44" cy="-105" rx="79.09" ry="18"/>
<text text-anchor="middle" x="687.44" y="-101.3" font-family="Times New Roman,serif" font-size="14.00">marketing assistant</text>
</a>
</g>
</g>
<!-- 5&#45;&gt;0 -->
<g id="edge6" class="edge">
<title>5&#45;&gt;0</title>
<path fill="none" stroke="black" d="M687.44,-86.8C687.44,-75.16 687.44,-59.55 687.44,-46.24"/>
<polygon fill="black" stroke="black" points="690.94,-46.18 687.44,-36.18 683.94,-46.18 690.94,-46.18"/>
<text text-anchor="middle" x="702.94" y="-57.8" font-family="Times New Roman,serif" font-size="14.00">0.046</text>
</g>
<!-- 6 -->
<g id="node7" class="node">
<title>6</title>
<g id="a_node7"><a xlink:href="to_sales manager.svg" xlink:title="sales manager">
<ellipse fill="none" stroke="black" cx="845.44" cy="-105" rx="61.19" ry="18"/>
<text text-anchor="middle" x="845.44" y="-101.3" font-family="Times New Roman,serif" font-size="14.00">sales manager</text>
</a>
</g>
</g>
<!-- 6&#45;&gt;0 -->
<g id="edge7" class="edge">
<title>6&#45;&gt;0</title>
<path fill="none" stroke="black" d="M817.2,-88.8C791.49,-74.97 753.34,-54.45 725.05,-39.23"/>
<polygon fill="black" stroke="black" points="726.71,-36.15 716.25,-34.5 723.39,-42.32 726.71,-36.15"/>
<text text-anchor="middle" x="791.94" y="-57.8" font-family="Times New Roman,serif" font-size="14.00">0.040</text>
</g>
<!-- 7 -->
<g id="node8" class="node">
<title>7</title>
<g id="a_node8"><a xlink:href="to_legal executive.svg" xlink:title="legal executive">
<ellipse fill="none" stroke="black" cx="987.44" cy="-105" rx="63.09" ry="18"/>
<text text-anchor="middle" x="987.44" y="-101.3" font-family="Times New Roman,serif" font-size="14.00">legal executive</text>
</a>
</g>
</g>
<!-- 7&#45;&gt;0 -->
<g id="edge8" class="edge">
<title>7&#45;&gt;0</title>
<path fill="none" stroke="black" d="M944.41,-91.75C908.78,-81.62 856.83,-66.85 811.44,-54 789.05,-47.66 764.39,-40.69 742.99,-34.66"/>
<polygon fill="black" stroke="black" points="743.66,-31.21 733.09,-31.86 741.76,-37.95 743.66,-31.21"/>
<text text-anchor="middle" x="875.94" y="-57.8" font-family="Times New Roman,serif" font-size="14.00">0.029</text>
</g>
<!-- 8 -->
<g id="node9" class="node">
<title>8</title>
<g id="a_node9"><a xlink:href="to_facilities manager.svg" xlink:title="facilities manager">
<ellipse fill="none" stroke="black" cx="1141.44" cy="-105" rx="72.59" ry="18"/>
<text text-anchor="middle" x="1141.44" y="-101.3" font-family="Times New Roman,serif" font-size="14.00">facilities manager</text>
</a>
</g>
</g>
<!-- 8&#45;&gt;0 -->
<g id="edge9" class="edge">
<title>8&#45;&gt;0</title>
<path fill="none" stroke="black" d="M1087.64,-92.8C1078.24,-90.86 1068.56,-88.86 1059.44,-87 986.6,-72.12 968.56,-67.5 895.44,-54 849.13,-45.45 796.86,-36.65 756.3,-30.02"/>
<polygon fill="black" stroke="black" points="756.69,-26.54 746.26,-28.38 755.56,-33.45 756.69,-26.54"/>
<text text-anchor="middle" x="986.94" y="-57.8" font-family="Times New Roman,serif" font-size="14.00">0.023</text>
</g>
<!-- 9 -->
<g id="node10" class="node">
<title>9</title>
<g id="a_node10"><a xlink:href="to_marketing executive.svg" xlink:title="marketing executive">
<ellipse fill="none" stroke="black" cx="1314.44" cy="-105" rx="81.79" ry="18"/>
<text text-anchor="middle" x="1314.44" y="-101.3" font-family="Times New Roman,serif" font-size="14.00">marketing executive</text>
</a>
</g>
</g>
<!-- 9&#45;&gt;0 -->
<g id="edge10" class="edge">
<title>9&#45;&gt;0</title>
<path fill="none" stroke="black" d="M1254.78,-92.56C1244.34,-90.64 1233.59,-88.72 1223.44,-87 1127.26,-70.71 1103.17,-66.66 1006.44,-54 923.33,-43.13 827.73,-32.94 763.02,-26.4"/>
<polygon fill="black" stroke="black" points="763.21,-22.9 752.91,-25.38 762.51,-29.86 763.21,-22.9"/>
<text text-anchor="middle" x="1126.94" y="-57.8" font-family="Times New Roman,serif" font-size="14.00">0.023</text>
</g>
</g>
</svg>
