<?xml version="1.0" encoding="UTF-8" standalone="no"?>
<!DOCTYPE svg PUBLIC "-//W3C//DTD SVG 1.1//EN"
 "http://www.w3.org/Graphics/SVG/1.1/DTD/svg11.dtd">
<!-- Generated by graphviz version 2.44.1 (20200629.0800)
 -->
<!-- Title: test Pages: 1 -->
<svg width="1297pt" height="131pt"
 viewBox="0.00 0.00 1297.49 131.00" xmlns="http://www.w3.org/2000/svg" xmlns:xlink="http://www.w3.org/1999/xlink">
<g id="graph0" class="graph" transform="scale(1 1) rotate(0) translate(4 127)">
<title>test</title>
<polygon fill="white" stroke="transparent" points="-4,4 -4,-127 1293.49,-127 1293.49,4 -4,4"/>
<!-- 0 -->
<g id="node1" class="node">
<title>0</title>
<g id="a_node1"><a xlink:href="to_regulatory affairs officer.svg" xlink:title="regulatory affairs officer">
<ellipse fill="none" stroke="black" cx="618.89" cy="-18" rx="98.28" ry="18"/>
<text text-anchor="middle" x="618.89" y="-14.3" font-family="Times New Roman,serif" font-size="14.00">regulatory affairs officer</text>
</a>
</g>
</g>
<!-- 0&#45;&gt;0 -->
<g id="edge1" class="edge">
<title>0&#45;&gt;0</title>
<path fill="none" stroke="black" d="M708.5,-25.38C724.15,-24.4 735.04,-21.94 735.04,-18 735.04,-14.99 728.65,-12.84 718.64,-11.55"/>
<polygon fill="black" stroke="black" points="718.77,-8.05 708.5,-10.62 718.13,-15.02 718.77,-8.05"/>
<text text-anchor="middle" x="750.54" y="-14.3" font-family="Times New Roman,serif" font-size="14.00">0.078</text>
</g>
<!-- 1 -->
<g id="node2" class="node">
<title>1</title>
<g id="a_node2"><a xlink:href="to_project manager.svg" xlink:title="project manager">
<ellipse fill="none" stroke="black" cx="68.89" cy="-105" rx="68.79" ry="18"/>
<text text-anchor="middle" x="68.89" y="-101.3" font-family="Times New Roman,serif" font-size="14.00">project manager</text>
</a>
</g>
</g>
<!-- 1&#45;&gt;0 -->
<g id="edge2" class="edge">
<title>1&#45;&gt;0</title>
<path fill="none" stroke="black" d="M119.17,-92.67C128.38,-90.7 137.91,-88.73 146.89,-87 233.63,-70.26 255.5,-66.89 342.89,-54 404.62,-44.89 474.32,-36.07 528.24,-29.55"/>
<polygon fill="black" stroke="black" points="528.95,-32.99 538.46,-28.32 528.12,-26.04 528.95,-32.99"/>
<text text-anchor="middle" x="358.39" y="-57.8" font-family="Times New Roman,serif" font-size="14.00">0.050</text>
</g>
<!-- 2 -->
<g id="node3" class="node">
<title>2</title>
<g id="a_node3"><a xlink:href="to_sales manager.svg" xlink:title="sales manager">
<ellipse fill="none" stroke="black" cx="216.89" cy="-105" rx="61.19" ry="18"/>
<text text-anchor="middle" x="216.89" y="-101.3" font-family="Times New Roman,serif" font-size="14.00">sales manager</text>
</a>
</g>
</g>
<!-- 2&#45;&gt;0 -->
<g id="edge3" class="edge">
<title>2&#45;&gt;0</title>
<path fill="none" stroke="black" d="M262.03,-92.79C270.29,-90.81 278.84,-88.81 286.89,-87 374.81,-67.27 476.34,-46.81 543.75,-33.55"/>
<polygon fill="black" stroke="black" points="544.71,-36.93 553.85,-31.57 543.36,-30.06 544.71,-36.93"/>
<text text-anchor="middle" x="457.39" y="-57.8" font-family="Times New Roman,serif" font-size="14.00">0.039</text>
</g>
<!-- 3 -->
<g id="node4" class="node">
<title>3</title>
<g id="a_node4"><a xlink:href="to_investment analyst.svg" xlink:title="investment analyst">
<ellipse fill="none" stroke="black" cx="372.89" cy="-105" rx="76.89" ry="18"/>
<text text-anchor="middle" x="372.89" y="-101.3" font-family="Times New Roman,serif" font-size="14.00">investment analyst</text>
</a>
</g>
</g>
<!-- 3&#45;&gt;0 -->
<g id="edge4" class="edge">
<title>3&#45;&gt;0</title>
<path fill="none" stroke="black" d="M414.07,-89.77C455.61,-75.42 519.94,-53.19 565.41,-37.48"/>
<polygon fill="black" stroke="black" points="566.78,-40.71 575.09,-34.13 564.5,-34.09 566.78,-40.71"/>
<text text-anchor="middle" x="526.39" y="-57.8" font-family="Times New Roman,serif" font-size="14.00">0.033</text>
</g>
<!-- 4 -->
<g id="node5" class="node">
<title>4</title>
<g id="a_node5"><a xlink:href="to_lawyer.svg" xlink:title="lawyer">
<ellipse fill="none" stroke="black" cx="501.89" cy="-105" rx="34.39" ry="18"/>
<text text-anchor="middle" x="501.89" y="-101.3" font-family="Times New Roman,serif" font-size="14.00">lawyer</text>
</a>
</g>
</g>
<!-- 4&#45;&gt;0 -->
<g id="edge5" class="edge">
<title>4&#45;&gt;0</title>
<path fill="none" stroke="black" d="M521.21,-89.96C539.24,-76.87 566.45,-57.1 587.58,-41.75"/>
<polygon fill="black" stroke="black" points="589.89,-44.39 595.93,-35.69 585.78,-38.73 589.89,-44.39"/>
<text text-anchor="middle" x="583.39" y="-57.8" font-family="Times New Roman,serif" font-size="14.00">0.033</text>
</g>
<!-- 5 -->
<g id="node6" class="node">
<title>5</title>
<g id="a_node6"><a xlink:href="to_office manager.svg" xlink:title="office manager">
<ellipse fill="none" stroke="black" cx="618.89" cy="-105" rx="64.19" ry="18"/>
<text text-anchor="middle" x="618.89" y="-101.3" font-family="Times New Roman,serif" font-size="14.00">office manager</text>
</a>
</g>
</g>
<!-- 5&#45;&gt;0 -->
<g id="edge6" class="edge">
<title>5&#45;&gt;0</title>
<path fill="none" stroke="black" d="M618.89,-86.8C618.89,-75.16 618.89,-59.55 618.89,-46.24"/>
<polygon fill="black" stroke="black" points="622.39,-46.18 618.89,-36.18 615.39,-46.18 622.39,-46.18"/>
<text text-anchor="middle" x="634.39" y="-57.8" font-family="Times New Roman,serif" font-size="14.00">0.033</text>
</g>
<!-- 6 -->
<g id="node7" class="node">
<title>6</title>
<g id="a_node7"><a xlink:href="to_pharmacovigilance officer.svg" xlink:title="pharmacovigilance officer">
<ellipse fill="none" stroke="black" cx="805.89" cy="-105" rx="104.78" ry="18"/>
<text text-anchor="middle" x="805.89" y="-101.3" font-family="Times New Roman,serif" font-size="14.00">pharmacovigilance officer</text>
</a>
</g>
</g>
<!-- 6&#45;&gt;0 -->
<g id="edge7" class="edge">
<title>6&#45;&gt;0</title>
<path fill="none" stroke="black" d="M770.72,-88.01C740.29,-74.18 696.14,-54.11 663.28,-39.18"/>
<polygon fill="black" stroke="black" points="664.46,-35.87 653.91,-34.92 661.56,-42.24 664.46,-35.87"/>
<text text-anchor="middle" x="739.39" y="-57.8" font-family="Times New Roman,serif" font-size="14.00">0.033</text>
</g>
<!-- 7 -->
<g id="node8" class="node">
<title>7</title>
<g id="a_node8"><a xlink:href="to_auditor.svg" xlink:title="auditor">
<ellipse fill="none" stroke="black" cx="964.89" cy="-105" rx="36.29" ry="18"/>
<text text-anchor="middle" x="964.89" y="-101.3" font-family="Times New Roman,serif" font-size="14.00">auditor</text>
</a>
</g>
</g>
<!-- 7&#45;&gt;0 -->
<g id="edge8" class="edge">
<title>7&#45;&gt;0</title>
<path fill="none" stroke="black" d="M937.5,-92.96C931.73,-90.83 925.65,-88.73 919.89,-87 844.56,-64.38 756.62,-45.34 695.33,-33.21"/>
<polygon fill="black" stroke="black" points="695.83,-29.74 685.34,-31.25 694.48,-36.61 695.83,-29.74"/>
<text text-anchor="middle" x="869.39" y="-57.8" font-family="Times New Roman,serif" font-size="14.00">0.027</text>
</g>
<!-- 8 -->
<g id="node9" class="node">
<title>8</title>
<g id="a_node9"><a xlink:href="to_catering manager.svg" xlink:title="catering manager">
<ellipse fill="none" stroke="black" cx="1090.89" cy="-105" rx="71.49" ry="18"/>
<text text-anchor="middle" x="1090.89" y="-101.3" font-family="Times New Roman,serif" font-size="14.00">catering manager</text>
</a>
</g>
</g>
<!-- 8&#45;&gt;0 -->
<g id="edge9" class="edge">
<title>8&#45;&gt;0</title>
<path fill="none" stroke="black" d="M1045.09,-91.08C1004.36,-79.97 943.04,-64.18 888.89,-54 830.86,-43.09 765.17,-34.5 713.12,-28.55"/>
<polygon fill="black" stroke="black" points="713.23,-25.04 702.9,-27.4 712.44,-32 713.23,-25.04"/>
<text text-anchor="middle" x="971.39" y="-57.8" font-family="Times New Roman,serif" font-size="14.00">0.027</text>
</g>
<!-- 9 -->
<g id="node10" class="node">
<title>9</title>
<g id="a_node10"><a xlink:href="to_it consultant.svg" xlink:title="it consultant">
<ellipse fill="none" stroke="black" cx="1234.89" cy="-105" rx="54.69" ry="18"/>
<text text-anchor="middle" x="1234.89" y="-101.3" font-family="Times New Roman,serif" font-size="14.00">it consultant</text>
</a>
</g>
</g>
<!-- 9&#45;&gt;0 -->
<g id="edge10" class="edge">
<title>9&#45;&gt;0</title>
<path fill="none" stroke="black" d="M1194.38,-92.73C1186.61,-90.71 1178.52,-88.71 1170.89,-87 1091.53,-69.21 1071.46,-65.15 990.89,-54 899.3,-41.32 794.37,-31.91 719.36,-26.06"/>
<polygon fill="black" stroke="black" points="719.21,-22.54 708.97,-25.26 718.67,-29.52 719.21,-22.54"/>
<text text-anchor="middle" x="1099.39" y="-57.8" font-family="Times New Roman,serif" font-size="14.00">0.022</text>
</g>
</g>
</svg>
