<?xml version="1.0" encoding="UTF-8" standalone="no"?>
<!DOCTYPE svg PUBLIC "-//W3C//DTD SVG 1.1//EN"
 "http://www.w3.org/Graphics/SVG/1.1/DTD/svg11.dtd">
<!-- Generated by graphviz version 2.44.1 (20200629.0800)
 -->
<!-- Title: test Pages: 1 -->
<svg width="1351pt" height="131pt"
 viewBox="0.00 0.00 1350.74 131.00" xmlns="http://www.w3.org/2000/svg" xmlns:xlink="http://www.w3.org/1999/xlink">
<g id="graph0" class="graph" transform="scale(1 1) rotate(0) translate(4 127)">
<title>test</title>
<polygon fill="white" stroke="transparent" points="-4,4 -4,-127 1346.74,-127 1346.74,4 -4,4"/>
<!-- 0 -->
<g id="node1" class="node">
<title>0</title>
<g id="a_node1"><a xlink:href="to_retail merchandiser.svg" xlink:title="retail merchandiser">
<ellipse fill="none" stroke="black" cx="612.29" cy="-18" rx="78.79" ry="18"/>
<text text-anchor="middle" x="612.29" y="-14.3" font-family="Times New Roman,serif" font-size="14.00">retail merchandiser</text>
</a>
</g>
</g>
<!-- 0&#45;&gt;0 -->
<g id="edge1" class="edge">
<title>0&#45;&gt;0</title>
<path fill="none" stroke="black" d="M683.94,-25.57C698.51,-24.75 708.94,-22.22 708.94,-18 708.94,-14.83 703.07,-12.62 693.99,-11.36"/>
<polygon fill="black" stroke="black" points="694.22,-7.87 683.94,-10.43 693.57,-14.84 694.22,-7.87"/>
<text text-anchor="middle" x="724.44" y="-14.3" font-family="Times New Roman,serif" font-size="14.00">0.134</text>
</g>
<!-- 1 -->
<g id="node2" class="node">
<title>1</title>
<g id="a_node2"><a xlink:href="to_marketing assistant.svg" xlink:title="marketing assistant">
<ellipse fill="none" stroke="black" cx="79.29" cy="-105" rx="79.09" ry="18"/>
<text text-anchor="middle" x="79.29" y="-101.3" font-family="Times New Roman,serif" font-size="14.00">marketing assistant</text>
</a>
</g>
</g>
<!-- 1&#45;&gt;0 -->
<g id="edge2" class="edge">
<title>1&#45;&gt;0</title>
<path fill="none" stroke="black" d="M135.03,-91.99C186.76,-81.11 265.99,-65.13 335.29,-54 401.52,-43.36 477.09,-34 532.55,-27.64"/>
<polygon fill="black" stroke="black" points="533.13,-31.09 542.67,-26.49 532.34,-24.14 533.13,-31.09"/>
<text text-anchor="middle" x="350.79" y="-57.8" font-family="Times New Roman,serif" font-size="14.00">0.072</text>
</g>
<!-- 2 -->
<g id="node3" class="node">
<title>2</title>
<g id="a_node3"><a xlink:href="to_sales manager.svg" xlink:title="sales manager">
<ellipse fill="none" stroke="black" cx="237.29" cy="-105" rx="61.19" ry="18"/>
<text text-anchor="middle" x="237.29" y="-101.3" font-family="Times New Roman,serif" font-size="14.00">sales manager</text>
</a>
</g>
</g>
<!-- 2&#45;&gt;0 -->
<g id="edge3" class="edge">
<title>2&#45;&gt;0</title>
<path fill="none" stroke="black" d="M279.95,-91.94C318.52,-81.25 376.97,-65.59 428.29,-54 465.53,-45.59 507.32,-37.54 541.65,-31.28"/>
<polygon fill="black" stroke="black" points="542.37,-34.7 551.58,-29.48 541.12,-27.81 542.37,-34.7"/>
<text text-anchor="middle" x="443.79" y="-57.8" font-family="Times New Roman,serif" font-size="14.00">0.041</text>
</g>
<!-- 3 -->
<g id="node4" class="node">
<title>3</title>
<g id="a_node4"><a xlink:href="to_it consultant.svg" xlink:title="it consultant">
<ellipse fill="none" stroke="black" cx="371.29" cy="-105" rx="54.69" ry="18"/>
<text text-anchor="middle" x="371.29" y="-101.3" font-family="Times New Roman,serif" font-size="14.00">it consultant</text>
</a>
</g>
</g>
<!-- 3&#45;&gt;0 -->
<g id="edge4" class="edge">
<title>3&#45;&gt;0</title>
<path fill="none" stroke="black" d="M404.76,-90.63C431.11,-80.24 468.86,-65.69 502.29,-54 520.09,-47.78 539.66,-41.4 557.3,-35.83"/>
<polygon fill="black" stroke="black" points="558.39,-39.15 566.88,-32.82 556.29,-32.48 558.39,-39.15"/>
<text text-anchor="middle" x="517.79" y="-57.8" font-family="Times New Roman,serif" font-size="14.00">0.030</text>
</g>
<!-- 4 -->
<g id="node5" class="node">
<title>4</title>
<g id="a_node5"><a xlink:href="to_lawyer.svg" xlink:title="lawyer">
<ellipse fill="none" stroke="black" cx="478.29" cy="-105" rx="34.39" ry="18"/>
<text text-anchor="middle" x="478.29" y="-101.3" font-family="Times New Roman,serif" font-size="14.00">lawyer</text>
</a>
</g>
</g>
<!-- 4&#45;&gt;0 -->
<g id="edge5" class="edge">
<title>4&#45;&gt;0</title>
<path fill="none" stroke="black" d="M499.53,-90.53C520.56,-77.19 553.12,-56.54 577.85,-40.85"/>
<polygon fill="black" stroke="black" points="580.01,-43.63 586.58,-35.31 576.26,-37.71 580.01,-43.63"/>
<text text-anchor="middle" x="569.79" y="-57.8" font-family="Times New Roman,serif" font-size="14.00">0.030</text>
</g>
<!-- 5 -->
<g id="node6" class="node">
<title>5</title>
<g id="a_node6"><a xlink:href="to_marketing executive.svg" xlink:title="marketing executive">
<ellipse fill="none" stroke="black" cx="612.29" cy="-105" rx="81.79" ry="18"/>
<text text-anchor="middle" x="612.29" y="-101.3" font-family="Times New Roman,serif" font-size="14.00">marketing executive</text>
</a>
</g>
</g>
<!-- 5&#45;&gt;0 -->
<g id="edge6" class="edge">
<title>5&#45;&gt;0</title>
<path fill="none" stroke="black" d="M612.29,-86.8C612.29,-75.16 612.29,-59.55 612.29,-46.24"/>
<polygon fill="black" stroke="black" points="615.79,-46.18 612.29,-36.18 608.79,-46.18 615.79,-46.18"/>
<text text-anchor="middle" x="627.79" y="-57.8" font-family="Times New Roman,serif" font-size="14.00">0.030</text>
</g>
<!-- 6 -->
<g id="node7" class="node">
<title>6</title>
<g id="a_node7"><a xlink:href="to_personal assistant.svg" xlink:title="personal assistant">
<ellipse fill="none" stroke="black" cx="787.29" cy="-105" rx="74.99" ry="18"/>
<text text-anchor="middle" x="787.29" y="-101.3" font-family="Times New Roman,serif" font-size="14.00">personal assistant</text>
</a>
</g>
</g>
<!-- 6&#45;&gt;0 -->
<g id="edge7" class="edge">
<title>6&#45;&gt;0</title>
<path fill="none" stroke="black" d="M755.6,-88.61C727.04,-74.73 684.86,-54.24 653.65,-39.09"/>
<polygon fill="black" stroke="black" points="654.86,-35.79 644.34,-34.57 651.81,-42.08 654.86,-35.79"/>
<text text-anchor="middle" x="725.79" y="-57.8" font-family="Times New Roman,serif" font-size="14.00">0.030</text>
</g>
<!-- 7 -->
<g id="node8" class="node">
<title>7</title>
<g id="a_node8"><a xlink:href="to_retail manager.svg" xlink:title="retail manager">
<ellipse fill="none" stroke="black" cx="940.29" cy="-105" rx="60.39" ry="18"/>
<text text-anchor="middle" x="940.29" y="-101.3" font-family="Times New Roman,serif" font-size="14.00">retail manager</text>
</a>
</g>
</g>
<!-- 7&#45;&gt;0 -->
<g id="edge8" class="edge">
<title>7&#45;&gt;0</title>
<path fill="none" stroke="black" d="M896.4,-92.62C838.73,-77.68 737.22,-51.37 672.44,-34.59"/>
<polygon fill="black" stroke="black" points="672.93,-31.1 662.37,-31.98 671.17,-37.87 672.93,-31.1"/>
<text text-anchor="middle" x="811.79" y="-57.8" font-family="Times New Roman,serif" font-size="14.00">0.030</text>
</g>
<!-- 8 -->
<g id="node9" class="node">
<title>8</title>
<g id="a_node9"><a xlink:href="to_software developer.svg" xlink:title="software developer">
<ellipse fill="none" stroke="black" cx="1098.29" cy="-105" rx="79.89" ry="18"/>
<text text-anchor="middle" x="1098.29" y="-101.3" font-family="Times New Roman,serif" font-size="14.00">software developer</text>
</a>
</g>
</g>
<!-- 8&#45;&gt;0 -->
<g id="edge9" class="edge">
<title>8&#45;&gt;0</title>
<path fill="none" stroke="black" d="M1039.42,-92.71C1029.37,-90.79 1019.03,-88.83 1009.29,-87 930.22,-72.12 910.58,-67.68 831.29,-54 782.82,-45.63 728.18,-36.9 685.61,-30.25"/>
<polygon fill="black" stroke="black" points="686.03,-26.78 675.61,-28.69 684.95,-33.69 686.03,-26.78"/>
<text text-anchor="middle" x="929.79" y="-57.8" font-family="Times New Roman,serif" font-size="14.00">0.030</text>
</g>
<!-- 9 -->
<g id="node10" class="node">
<title>9</title>
<g id="a_node10"><a xlink:href="to_teaching assistant.svg" xlink:title="teaching assistant">
<ellipse fill="none" stroke="black" cx="1269.29" cy="-105" rx="73.39" ry="18"/>
<text text-anchor="middle" x="1269.29" y="-101.3" font-family="Times New Roman,serif" font-size="14.00">teaching assistant</text>
</a>
</g>
</g>
<!-- 9&#45;&gt;0 -->
<g id="edge10" class="edge">
<title>9&#45;&gt;0</title>
<path fill="none" stroke="black" d="M1216.02,-92.42C1206.47,-90.5 1196.61,-88.61 1187.29,-87 1013.19,-56.92 807.11,-36.09 695.03,-25.99"/>
<polygon fill="black" stroke="black" points="695.09,-22.48 684.81,-25.07 694.46,-29.45 695.09,-22.48"/>
<text text-anchor="middle" x="1076.79" y="-57.8" font-family="Times New Roman,serif" font-size="14.00">0.030</text>
</g>
</g>
</svg>
