<?xml version="1.0" encoding="UTF-8" standalone="no"?>
<!DOCTYPE svg PUBLIC "-//W3C//DTD SVG 1.1//EN"
 "http://www.w3.org/Graphics/SVG/1.1/DTD/svg11.dtd">
<!-- Generated by graphviz version 2.44.1 (20200629.0800)
 -->
<!-- Title: social_worker Pages: 1 -->
<svg width="1549pt" height="131pt"
 viewBox="0.00 0.00 1549.43 131.00" xmlns="http://www.w3.org/2000/svg" xmlns:xlink="http://www.w3.org/1999/xlink">
<g id="graph0" class="graph" transform="scale(1 1) rotate(0) translate(4 127)">
<title>social_worker</title>
<polygon fill="white" stroke="transparent" points="-4,4 -4,-127 1545.43,-127 1545.43,4 -4,4"/>
<!-- 0 -->
<g id="node1" class="node">
<title>0</title>
<g id="a_node1"><a xlink:href="to_social worker.svg" xlink:title="social worker">
<ellipse fill="none" stroke="black" cx="750.79" cy="-18" rx="59.59" ry="18"/>
<text text-anchor="middle" x="750.79" y="-14.3" font-family="Times New Roman,serif" font-size="14.00">social worker</text>
</a>
</g>
</g>
<!-- 0&#45;&gt;0 -->
<g id="edge1" class="edge">
<title>0&#45;&gt;0</title>
<path fill="none" stroke="black" d="M804.96,-25.77C818.48,-25.22 828.59,-22.63 828.59,-18 828.59,-14.63 823.25,-12.35 815.15,-11.14"/>
<polygon fill="black" stroke="black" points="815.23,-7.63 804.96,-10.23 814.62,-14.6 815.23,-7.63"/>
<text text-anchor="middle" x="837.59" y="-14.3" font-family="Times New Roman,serif" font-size="14.00">0.2</text>
</g>
<!-- 1 -->
<g id="node2" class="node">
<title>1</title>
<g id="a_node2"><a xlink:href="to_facilities manager.svg" xlink:title="facilities manager">
<ellipse fill="none" stroke="black" cx="72.79" cy="-105" rx="72.59" ry="18"/>
<text text-anchor="middle" x="72.79" y="-101.3" font-family="Times New Roman,serif" font-size="14.00">facilities manager</text>
</a>
</g>
</g>
<!-- 1&#45;&gt;0 -->
<g id="edge2" class="edge">
<title>1&#45;&gt;0</title>
<path fill="none" stroke="black" d="M125.62,-92.47C135.3,-90.52 145.33,-88.61 154.79,-87 345.2,-54.59 572.53,-33.45 683.35,-24.26"/>
<polygon fill="black" stroke="black" points="683.7,-27.74 693.38,-23.43 683.13,-20.77 683.7,-27.74"/>
<text text-anchor="middle" x="392.79" y="-57.8" font-family="Times New Roman,serif" font-size="14.00">0.1</text>
</g>
<!-- 2 -->
<g id="node3" class="node">
<title>2</title>
<g id="a_node3"><a xlink:href="to_social researcher.svg" xlink:title="social researcher">
<ellipse fill="none" stroke="black" cx="234.79" cy="-105" rx="71.49" ry="18"/>
<text text-anchor="middle" x="234.79" y="-101.3" font-family="Times New Roman,serif" font-size="14.00">social researcher</text>
</a>
</g>
</g>
<!-- 2&#45;&gt;0 -->
<g id="edge3" class="edge">
<title>2&#45;&gt;0</title>
<path fill="none" stroke="black" d="M287.45,-92.63C296.88,-90.68 306.62,-88.73 315.79,-87 447.33,-62.13 602.48,-39.47 687.37,-27.63"/>
<polygon fill="black" stroke="black" points="687.95,-31.08 697.37,-26.24 686.98,-24.15 687.95,-31.08"/>
<text text-anchor="middle" x="515.79" y="-57.8" font-family="Times New Roman,serif" font-size="14.00">0.1</text>
</g>
<!-- 3 -->
<g id="node4" class="node">
<title>3</title>
<g id="a_node4"><a xlink:href="to_youth worker.svg" xlink:title="youth worker">
<ellipse fill="none" stroke="black" cx="383.79" cy="-105" rx="59.29" ry="18"/>
<text text-anchor="middle" x="383.79" y="-101.3" font-family="Times New Roman,serif" font-size="14.00">youth worker</text>
</a>
</g>
</g>
<!-- 3&#45;&gt;0 -->
<g id="edge4" class="edge">
<title>3&#45;&gt;0</title>
<path fill="none" stroke="black" d="M427.66,-92.89C435.68,-90.9 443.98,-88.86 451.79,-87 535.99,-66.9 633.85,-44.91 694.05,-31.53"/>
<polygon fill="black" stroke="black" points="695.11,-34.88 704.11,-29.29 693.59,-28.04 695.11,-34.88"/>
<text text-anchor="middle" x="600.79" y="-57.8" font-family="Times New Roman,serif" font-size="14.00">0.1</text>
</g>
<!-- 4 -->
<g id="node5" class="node">
<title>4</title>
<g id="a_node5"><a xlink:href="to_agricultural consultant.svg" xlink:title="agricultural consultant">
<ellipse fill="none" stroke="black" cx="550.79" cy="-105" rx="89.88" ry="18"/>
<text text-anchor="middle" x="550.79" y="-101.3" font-family="Times New Roman,serif" font-size="14.00">agricultural consultant</text>
</a>
</g>
</g>
<!-- 4&#45;&gt;0 -->
<g id="edge5" class="edge">
<title>4&#45;&gt;0</title>
<path fill="none" stroke="black" d="M587.48,-88.41C621.64,-73.89 672.55,-52.25 708.43,-37.01"/>
<polygon fill="black" stroke="black" points="709.83,-40.21 717.66,-33.08 707.09,-33.77 709.83,-40.21"/>
<text text-anchor="middle" x="675.29" y="-57.8" font-family="Times New Roman,serif" font-size="14.00">0.05</text>
</g>
<!-- 5 -->
<g id="node6" class="node">
<title>5</title>
<g id="a_node6"><a xlink:href="to_database administrator.svg" xlink:title="database administrator">
<ellipse fill="none" stroke="black" cx="750.79" cy="-105" rx="92.08" ry="18"/>
<text text-anchor="middle" x="750.79" y="-101.3" font-family="Times New Roman,serif" font-size="14.00">database administrator</text>
</a>
</g>
</g>
<!-- 5&#45;&gt;0 -->
<g id="edge6" class="edge">
<title>5&#45;&gt;0</title>
<path fill="none" stroke="black" d="M750.79,-86.8C750.79,-75.16 750.79,-59.55 750.79,-46.24"/>
<polygon fill="black" stroke="black" points="754.29,-46.18 750.79,-36.18 747.29,-46.18 754.29,-46.18"/>
<text text-anchor="middle" x="763.29" y="-57.8" font-family="Times New Roman,serif" font-size="14.00">0.05</text>
</g>
<!-- 6 -->
<g id="node7" class="node">
<title>6</title>
<g id="a_node7"><a xlink:href="to_marketing executive.svg" xlink:title="marketing executive">
<ellipse fill="none" stroke="black" cx="942.79" cy="-105" rx="81.79" ry="18"/>
<text text-anchor="middle" x="942.79" y="-101.3" font-family="Times New Roman,serif" font-size="14.00">marketing executive</text>
</a>
</g>
</g>
<!-- 6&#45;&gt;0 -->
<g id="edge7" class="edge">
<title>6&#45;&gt;0</title>
<path fill="none" stroke="black" d="M908.02,-88.61C875.53,-74.22 826.96,-52.72 792.41,-37.43"/>
<polygon fill="black" stroke="black" points="793.63,-34.14 783.07,-33.29 790.8,-40.54 793.63,-34.14"/>
<text text-anchor="middle" x="871.29" y="-57.8" font-family="Times New Roman,serif" font-size="14.00">0.05</text>
</g>
<!-- 7 -->
<g id="node8" class="node">
<title>7</title>
<g id="a_node8"><a xlink:href="to_metallurgist.svg" xlink:title="metallurgist">
<ellipse fill="none" stroke="black" cx="1094.79" cy="-105" rx="51.99" ry="18"/>
<text text-anchor="middle" x="1094.79" y="-101.3" font-family="Times New Roman,serif" font-size="14.00">metallurgist</text>
</a>
</g>
</g>
<!-- 7&#45;&gt;0 -->
<g id="edge8" class="edge">
<title>7&#45;&gt;0</title>
<path fill="none" stroke="black" d="M1055.8,-92.91C1048.5,-90.9 1040.92,-88.85 1033.79,-87 955.35,-66.65 864.13,-45.11 806.92,-31.86"/>
<polygon fill="black" stroke="black" points="807.53,-28.41 797,-29.56 805.95,-35.23 807.53,-28.41"/>
<text text-anchor="middle" x="969.29" y="-57.8" font-family="Times New Roman,serif" font-size="14.00">0.05</text>
</g>
<!-- 8 -->
<g id="node9" class="node">
<title>8</title>
<g id="a_node9"><a xlink:href="to_personal assistant.svg" xlink:title="personal assistant">
<ellipse fill="none" stroke="black" cx="1239.79" cy="-105" rx="74.99" ry="18"/>
<text text-anchor="middle" x="1239.79" y="-101.3" font-family="Times New Roman,serif" font-size="14.00">personal assistant</text>
</a>
</g>
</g>
<!-- 8&#45;&gt;0 -->
<g id="edge9" class="edge">
<title>8&#45;&gt;0</title>
<path fill="none" stroke="black" d="M1184.68,-92.78C1175.05,-90.84 1165.13,-88.85 1155.79,-87 1080.3,-72.03 1061.65,-67.01 985.79,-54 927.84,-44.06 861.57,-34.34 814.21,-27.68"/>
<polygon fill="black" stroke="black" points="814.49,-24.18 804.1,-26.26 813.52,-31.11 814.49,-24.18"/>
<text text-anchor="middle" x="1078.29" y="-57.8" font-family="Times New Roman,serif" font-size="14.00">0.05</text>
</g>
<!-- 9 -->
<g id="node10" class="node">
<title>9</title>
<g id="a_node10"><a xlink:href="to_pharmacovigilance officer.svg" xlink:title="pharmacovigilance officer">
<ellipse fill="none" stroke="black" cx="1436.79" cy="-105" rx="104.78" ry="18"/>
<text text-anchor="middle" x="1436.79" y="-101.3" font-family="Times New Roman,serif" font-size="14.00">pharmacovigilance officer</text>
</a>
</g>
</g>
<!-- 9&#45;&gt;0 -->
<g id="edge10" class="edge">
<title>9&#45;&gt;0</title>
<path fill="none" stroke="black" d="M1361.13,-92.55C1348.66,-90.68 1335.86,-88.78 1323.79,-87 1222.06,-72.02 1196.86,-66.54 1094.79,-54 998.59,-42.18 886.9,-31.35 817.53,-24.96"/>
<polygon fill="black" stroke="black" points="817.46,-21.44 807.18,-24.01 816.82,-28.41 817.46,-21.44"/>
<text text-anchor="middle" x="1213.29" y="-57.8" font-family="Times New Roman,serif" font-size="14.00">0.05</text>
</g>
</g>
</svg>
