<?xml version="1.0" encoding="UTF-8" standalone="no"?>
<!DOCTYPE svg PUBLIC "-//W3C//DTD SVG 1.1//EN"
 "http://www.w3.org/Graphics/SVG/1.1/DTD/svg11.dtd">
<!-- Generated by graphviz version 2.44.1 (20200629.0800)
 -->
<!-- Title: test Pages: 1 -->
<svg width="1344pt" height="131pt"
 viewBox="0.00 0.00 1343.79 131.00" xmlns="http://www.w3.org/2000/svg" xmlns:xlink="http://www.w3.org/1999/xlink">
<g id="graph0" class="graph" transform="scale(1 1) rotate(0) translate(4 127)">
<title>test</title>
<polygon fill="white" stroke="transparent" points="-4,4 -4,-127 1339.79,-127 1339.79,4 -4,4"/>
<!-- 0 -->
<g id="node1" class="node">
<title>0</title>
<g id="a_node1"><a xlink:href="to_software developer.svg" xlink:title="software developer">
<ellipse fill="none" stroke="black" cx="604.6" cy="-18" rx="79.89" ry="18"/>
<text text-anchor="middle" x="604.6" y="-14.3" font-family="Times New Roman,serif" font-size="14.00">software developer</text>
</a>
</g>
</g>
<!-- 0&#45;&gt;0 -->
<g id="edge1" class="edge">
<title>0&#45;&gt;0</title>
<path fill="none" stroke="black" d="M677.21,-25.57C691.97,-24.75 702.54,-22.22 702.54,-18 702.54,-14.83 696.59,-12.62 687.39,-11.36"/>
<polygon fill="black" stroke="black" points="687.49,-7.86 677.21,-10.43 686.84,-14.83 687.49,-7.86"/>
<text text-anchor="middle" x="718.04" y="-14.3" font-family="Times New Roman,serif" font-size="14.00">0.491</text>
</g>
<!-- 1 -->
<g id="node2" class="node">
<title>1</title>
<g id="a_node2"><a xlink:href="to_it consultant.svg" xlink:title="it consultant">
<ellipse fill="none" stroke="black" cx="54.6" cy="-105" rx="54.69" ry="18"/>
<text text-anchor="middle" x="54.6" y="-101.3" font-family="Times New Roman,serif" font-size="14.00">it consultant</text>
</a>
</g>
</g>
<!-- 1&#45;&gt;0 -->
<g id="edge2" class="edge">
<title>1&#45;&gt;0</title>
<path fill="none" stroke="black" d="M95.12,-92.77C102.88,-90.75 110.97,-88.74 118.6,-87 194.91,-69.61 214.2,-65.69 291.6,-54 369.19,-42.28 458.15,-32.7 521.35,-26.55"/>
<polygon fill="black" stroke="black" points="522.04,-30 531.66,-25.55 521.36,-23.03 522.04,-30"/>
<text text-anchor="middle" x="307.1" y="-57.8" font-family="Times New Roman,serif" font-size="14.00">0.052</text>
</g>
<!-- 2 -->
<g id="node3" class="node">
<title>2</title>
<g id="a_node3"><a xlink:href="to_web designer.svg" xlink:title="web designer">
<ellipse fill="none" stroke="black" cx="185.6" cy="-105" rx="58.49" ry="18"/>
<text text-anchor="middle" x="185.6" y="-101.3" font-family="Times New Roman,serif" font-size="14.00">web designer</text>
</a>
</g>
</g>
<!-- 2&#45;&gt;0 -->
<g id="edge3" class="edge">
<title>2&#45;&gt;0</title>
<path fill="none" stroke="black" d="M229.17,-92.8C236.96,-90.84 245.01,-88.84 252.6,-87 315.99,-71.64 331.62,-66.73 395.6,-54 440,-45.17 490.02,-36.74 529.98,-30.37"/>
<polygon fill="black" stroke="black" points="530.59,-33.81 539.92,-28.79 529.49,-26.9 530.59,-33.81"/>
<text text-anchor="middle" x="411.1" y="-57.8" font-family="Times New Roman,serif" font-size="14.00">0.043</text>
</g>
<!-- 3 -->
<g id="node4" class="node">
<title>3</title>
<g id="a_node4"><a xlink:href="to_qa analyst.svg" xlink:title="qa analyst">
<ellipse fill="none" stroke="black" cx="308.6" cy="-105" rx="46.59" ry="18"/>
<text text-anchor="middle" x="308.6" y="-101.3" font-family="Times New Roman,serif" font-size="14.00">qa analyst</text>
</a>
</g>
</g>
<!-- 3&#45;&gt;0 -->
<g id="edge4" class="edge">
<title>3&#45;&gt;0</title>
<path fill="none" stroke="black" d="M344.12,-93.13C350.91,-91.07 357.97,-88.96 364.6,-87 426.57,-68.7 497.84,-48.63 546.51,-35.07"/>
<polygon fill="black" stroke="black" points="547.54,-38.42 556.24,-32.36 545.67,-31.67 547.54,-38.42"/>
<text text-anchor="middle" x="492.1" y="-57.8" font-family="Times New Roman,serif" font-size="14.00">0.036</text>
</g>
<!-- 4 -->
<g id="node5" class="node">
<title>4</title>
<g id="a_node5"><a xlink:href="to_project manager.svg" xlink:title="project manager">
<ellipse fill="none" stroke="black" cx="442.6" cy="-105" rx="68.79" ry="18"/>
<text text-anchor="middle" x="442.6" y="-101.3" font-family="Times New Roman,serif" font-size="14.00">project manager</text>
</a>
</g>
</g>
<!-- 4&#45;&gt;0 -->
<g id="edge5" class="edge">
<title>4&#45;&gt;0</title>
<path fill="none" stroke="black" d="M471.93,-88.61C498.18,-74.84 536.84,-54.55 565.67,-39.42"/>
<polygon fill="black" stroke="black" points="567.43,-42.46 574.65,-34.71 564.17,-36.26 567.43,-42.46"/>
<text text-anchor="middle" x="549.1" y="-57.8" font-family="Times New Roman,serif" font-size="14.00">0.022</text>
</g>
<!-- 5 -->
<g id="node6" class="node">
<title>5</title>
<g id="a_node6"><a xlink:href="to_software architect.svg" xlink:title="software architect">
<ellipse fill="none" stroke="black" cx="604.6" cy="-105" rx="75.29" ry="18"/>
<text text-anchor="middle" x="604.6" y="-101.3" font-family="Times New Roman,serif" font-size="14.00">software architect</text>
</a>
</g>
</g>
<!-- 5&#45;&gt;0 -->
<g id="edge6" class="edge">
<title>5&#45;&gt;0</title>
<path fill="none" stroke="black" d="M604.6,-86.8C604.6,-75.16 604.6,-59.55 604.6,-46.24"/>
<polygon fill="black" stroke="black" points="608.1,-46.18 604.6,-36.18 601.1,-46.18 608.1,-46.18"/>
<text text-anchor="middle" x="620.1" y="-57.8" font-family="Times New Roman,serif" font-size="14.00">0.020</text>
</g>
<!-- 6 -->
<g id="node7" class="node">
<title>6</title>
<g id="a_node7"><a xlink:href="to_technical author.svg" xlink:title="technical author">
<ellipse fill="none" stroke="black" cx="765.6" cy="-105" rx="67.69" ry="18"/>
<text text-anchor="middle" x="765.6" y="-101.3" font-family="Times New Roman,serif" font-size="14.00">technical author</text>
</a>
</g>
</g>
<!-- 6&#45;&gt;0 -->
<g id="edge7" class="edge">
<title>6&#45;&gt;0</title>
<path fill="none" stroke="black" d="M736.44,-88.61C710.36,-74.84 671.93,-54.55 643.28,-39.42"/>
<polygon fill="black" stroke="black" points="644.83,-36.28 634.35,-34.71 641.56,-42.47 644.83,-36.28"/>
<text text-anchor="middle" x="711.1" y="-57.8" font-family="Times New Roman,serif" font-size="14.00">0.016</text>
</g>
<!-- 7 -->
<g id="node8" class="node">
<title>7</title>
<g id="a_node8"><a xlink:href="to_teacher.svg" xlink:title="teacher">
<ellipse fill="none" stroke="black" cx="887.6" cy="-105" rx="36.29" ry="18"/>
<text text-anchor="middle" x="887.6" y="-101.3" font-family="Times New Roman,serif" font-size="14.00">teacher</text>
</a>
</g>
</g>
<!-- 7&#45;&gt;0 -->
<g id="edge8" class="edge">
<title>7&#45;&gt;0</title>
<path fill="none" stroke="black" d="M859.63,-93.06C854.01,-90.97 848.14,-88.86 842.6,-87 782.76,-66.91 713.24,-47.49 664.84,-34.58"/>
<polygon fill="black" stroke="black" points="665.71,-31.19 655.15,-32.01 663.92,-37.96 665.71,-31.19"/>
<text text-anchor="middle" x="800.1" y="-57.8" font-family="Times New Roman,serif" font-size="14.00">0.016</text>
</g>
<!-- 8 -->
<g id="node9" class="node">
<title>8</title>
<g id="a_node9"><a xlink:href="to_pharmacovigilance officer.svg" xlink:title="pharmacovigilance officer">
<ellipse fill="none" stroke="black" cx="1046.6" cy="-105" rx="104.78" ry="18"/>
<text text-anchor="middle" x="1046.6" y="-101.3" font-family="Times New Roman,serif" font-size="14.00">pharmacovigilance officer</text>
</a>
</g>
</g>
<!-- 8&#45;&gt;0 -->
<g id="edge9" class="edge">
<title>8&#45;&gt;0</title>
<path fill="none" stroke="black" d="M987.51,-90.04C941.81,-79.48 876.87,-64.96 819.6,-54 773.27,-45.13 721.05,-36.6 679.68,-30.18"/>
<polygon fill="black" stroke="black" points="680.1,-26.7 669.68,-28.63 679.03,-33.62 680.1,-26.7"/>
<text text-anchor="middle" x="903.1" y="-57.8" font-family="Times New Roman,serif" font-size="14.00">0.014</text>
</g>
<!-- 9 -->
<g id="node10" class="node">
<title>9</title>
<g id="a_node10"><a xlink:href="to_production manager.svg" xlink:title="production manager">
<ellipse fill="none" stroke="black" cx="1252.6" cy="-105" rx="83.39" ry="18"/>
<text text-anchor="middle" x="1252.6" y="-101.3" font-family="Times New Roman,serif" font-size="14.00">production manager</text>
</a>
</g>
</g>
<!-- 9&#45;&gt;0 -->
<g id="edge10" class="edge">
<title>9&#45;&gt;0</title>
<path fill="none" stroke="black" d="M1192.29,-92.46C1181.74,-90.55 1170.86,-88.66 1160.6,-87 992.96,-59.9 795.33,-38.13 686.62,-27.03"/>
<polygon fill="black" stroke="black" points="686.68,-23.52 676.38,-25.99 685.97,-30.48 686.68,-23.52"/>
<text text-anchor="middle" x="1054.1" y="-57.8" font-family="Times New Roman,serif" font-size="14.00">0.011</text>
</g>
</g>
</svg>
