<?xml version="1.0" encoding="UTF-8" standalone="no"?>
<!DOCTYPE svg PUBLIC "-//W3C//DTD SVG 1.1//EN"
 "http://www.w3.org/Graphics/SVG/1.1/DTD/svg11.dtd">
<!-- Generated by graphviz version 2.44.1 (20200629.0800)
 -->
<!-- Title: test Pages: 1 -->
<svg width="1418pt" height="131pt"
 viewBox="0.00 0.00 1417.89 131.00" xmlns="http://www.w3.org/2000/svg" xmlns:xlink="http://www.w3.org/1999/xlink">
<g id="graph0" class="graph" transform="scale(1 1) rotate(0) translate(4 127)">
<title>test</title>
<polygon fill="white" stroke="transparent" points="-4,4 -4,-127 1413.89,-127 1413.89,4 -4,4"/>
<!-- 0 -->
<g id="node1" class="node">
<title>0</title>
<g id="a_node1"><a xlink:href="to_sports development officer.svg" xlink:title="sports development officer">
<ellipse fill="none" stroke="black" cx="574.89" cy="-18" rx="108.58" ry="18"/>
<text text-anchor="middle" x="574.89" y="-14.3" font-family="Times New Roman,serif" font-size="14.00">sports development officer</text>
</a>
</g>
</g>
<!-- 0&#45;&gt;0 -->
<g id="edge1" class="edge">
<title>0&#45;&gt;0</title>
<path fill="none" stroke="black" d="M674.36,-25.27C690.42,-24.22 701.43,-21.79 701.43,-18 701.43,-15.07 694.85,-12.95 684.43,-11.66"/>
<polygon fill="black" stroke="black" points="684.64,-8.16 674.36,-10.73 684,-15.13 684.64,-8.16"/>
<text text-anchor="middle" x="716.93" y="-14.3" font-family="Times New Roman,serif" font-size="14.00">0.128</text>
</g>
<!-- 1 -->
<g id="node2" class="node">
<title>1</title>
<g id="a_node2"><a xlink:href="to_project manager.svg" xlink:title="project manager">
<ellipse fill="none" stroke="black" cx="68.89" cy="-105" rx="68.79" ry="18"/>
<text text-anchor="middle" x="68.89" y="-101.3" font-family="Times New Roman,serif" font-size="14.00">project manager</text>
</a>
</g>
</g>
<!-- 1&#45;&gt;0 -->
<g id="edge2" class="edge">
<title>1&#45;&gt;0</title>
<path fill="none" stroke="black" d="M116.48,-91.92C161.44,-80.83 230.91,-64.58 291.89,-54 352.05,-43.56 419.92,-35.06 474.12,-29.05"/>
<polygon fill="black" stroke="black" points="474.51,-32.53 484.07,-27.95 473.75,-25.57 474.51,-32.53"/>
<text text-anchor="middle" x="307.39" y="-57.8" font-family="Times New Roman,serif" font-size="14.00">0.069</text>
</g>
<!-- 2 -->
<g id="node3" class="node">
<title>2</title>
<g id="a_node3"><a xlink:href="to_it consultant.svg" xlink:title="it consultant">
<ellipse fill="none" stroke="black" cx="209.89" cy="-105" rx="54.69" ry="18"/>
<text text-anchor="middle" x="209.89" y="-101.3" font-family="Times New Roman,serif" font-size="14.00">it consultant</text>
</a>
</g>
</g>
<!-- 2&#45;&gt;0 -->
<g id="edge3" class="edge">
<title>2&#45;&gt;0</title>
<path fill="none" stroke="black" d="M247.85,-92.01C283.11,-81.15 337.21,-65.18 384.89,-54 419.08,-45.99 457.07,-38.68 490.04,-32.83"/>
<polygon fill="black" stroke="black" points="490.86,-36.24 500.11,-31.07 489.65,-29.35 490.86,-36.24"/>
<text text-anchor="middle" x="400.39" y="-57.8" font-family="Times New Roman,serif" font-size="14.00">0.049</text>
</g>
<!-- 3 -->
<g id="node4" class="node">
<title>3</title>
<g id="a_node4"><a xlink:href="to_lecturer.svg" xlink:title="lecturer">
<ellipse fill="none" stroke="black" cx="319.89" cy="-105" rx="37.89" ry="18"/>
<text text-anchor="middle" x="319.89" y="-101.3" font-family="Times New Roman,serif" font-size="14.00">lecturer</text>
</a>
</g>
</g>
<!-- 3&#45;&gt;0 -->
<g id="edge4" class="edge">
<title>3&#45;&gt;0</title>
<path fill="none" stroke="black" d="M348.96,-93.42C354.89,-91.28 361.09,-89.06 366.89,-87 409.02,-72.06 419.43,-67.95 461.89,-54 479.1,-48.35 497.86,-42.44 515.07,-37.12"/>
<polygon fill="black" stroke="black" points="516.47,-40.35 524.99,-34.06 514.41,-33.66 516.47,-40.35"/>
<text text-anchor="middle" x="477.39" y="-57.8" font-family="Times New Roman,serif" font-size="14.00">0.029</text>
</g>
<!-- 4 -->
<g id="node5" class="node">
<title>4</title>
<g id="a_node5"><a xlink:href="to_sports coach.svg" xlink:title="sports coach">
<ellipse fill="none" stroke="black" cx="433.89" cy="-105" rx="57.69" ry="18"/>
<text text-anchor="middle" x="433.89" y="-101.3" font-family="Times New Roman,serif" font-size="14.00">sports coach</text>
</a>
</g>
</g>
<!-- 4&#45;&gt;0 -->
<g id="edge5" class="edge">
<title>4&#45;&gt;0</title>
<path fill="none" stroke="black" d="M459.43,-88.61C481.62,-75.23 514.02,-55.7 538.85,-40.73"/>
<polygon fill="black" stroke="black" points="540.87,-43.6 547.63,-35.44 537.25,-37.6 540.87,-43.6"/>
<text text-anchor="middle" x="528.39" y="-57.8" font-family="Times New Roman,serif" font-size="14.00">0.029</text>
</g>
<!-- 5 -->
<g id="node6" class="node">
<title>5</title>
<g id="a_node6"><a xlink:href="to_careers adviser.svg" xlink:title="careers adviser">
<ellipse fill="none" stroke="black" cx="574.89" cy="-105" rx="64.99" ry="18"/>
<text text-anchor="middle" x="574.89" y="-101.3" font-family="Times New Roman,serif" font-size="14.00">careers adviser</text>
</a>
</g>
</g>
<!-- 5&#45;&gt;0 -->
<g id="edge6" class="edge">
<title>5&#45;&gt;0</title>
<path fill="none" stroke="black" d="M574.89,-86.8C574.89,-75.16 574.89,-59.55 574.89,-46.24"/>
<polygon fill="black" stroke="black" points="578.39,-46.18 574.89,-36.18 571.39,-46.18 578.39,-46.18"/>
<text text-anchor="middle" x="590.39" y="-57.8" font-family="Times New Roman,serif" font-size="14.00">0.024</text>
</g>
<!-- 6 -->
<g id="node7" class="node">
<title>6</title>
<g id="a_node7"><a xlink:href="to_financial manager.svg" xlink:title="financial manager">
<ellipse fill="none" stroke="black" cx="730.89" cy="-105" rx="73.39" ry="18"/>
<text text-anchor="middle" x="730.89" y="-101.3" font-family="Times New Roman,serif" font-size="14.00">financial manager</text>
</a>
</g>
</g>
<!-- 6&#45;&gt;0 -->
<g id="edge7" class="edge">
<title>6&#45;&gt;0</title>
<path fill="none" stroke="black" d="M702.28,-88.41C677.47,-74.89 641.32,-55.2 613.87,-40.24"/>
<polygon fill="black" stroke="black" points="615.38,-37.07 604.92,-35.36 612.03,-43.22 615.38,-37.07"/>
<text text-anchor="middle" x="678.39" y="-57.8" font-family="Times New Roman,serif" font-size="14.00">0.024</text>
</g>
<!-- 7 -->
<g id="node8" class="node">
<title>7</title>
<g id="a_node8"><a xlink:href="to_pharmacovigilance officer.svg" xlink:title="pharmacovigilance officer">
<ellipse fill="none" stroke="black" cx="926.89" cy="-105" rx="104.78" ry="18"/>
<text text-anchor="middle" x="926.89" y="-101.3" font-family="Times New Roman,serif" font-size="14.00">pharmacovigilance officer</text>
</a>
</g>
</g>
<!-- 7&#45;&gt;0 -->
<g id="edge8" class="edge">
<title>7&#45;&gt;0</title>
<path fill="none" stroke="black" d="M868.77,-89.96C806.92,-75.03 709.13,-51.41 643.53,-35.57"/>
<polygon fill="black" stroke="black" points="644.24,-32.14 633.69,-33.2 642.59,-38.95 644.24,-32.14"/>
<text text-anchor="middle" x="788.39" y="-57.8" font-family="Times New Roman,serif" font-size="14.00">0.024</text>
</g>
<!-- 8 -->
<g id="node9" class="node">
<title>8</title>
<g id="a_node9"><a xlink:href="to_software developer.svg" xlink:title="software developer">
<ellipse fill="none" stroke="black" cx="1129.89" cy="-105" rx="79.89" ry="18"/>
<text text-anchor="middle" x="1129.89" y="-101.3" font-family="Times New Roman,serif" font-size="14.00">software developer</text>
</a>
</g>
</g>
<!-- 8&#45;&gt;0 -->
<g id="edge9" class="edge">
<title>8&#45;&gt;0</title>
<path fill="none" stroke="black" d="M1072.03,-92.57C1061.68,-90.63 1050.98,-88.7 1040.89,-87 911.37,-65.19 760.9,-43.98 666.78,-31.2"/>
<polygon fill="black" stroke="black" points="667.1,-27.71 656.72,-29.83 666.16,-34.65 667.1,-27.71"/>
<text text-anchor="middle" x="941.39" y="-57.8" font-family="Times New Roman,serif" font-size="14.00">0.024</text>
</g>
<!-- 9 -->
<g id="node10" class="node">
<title>9</title>
<g id="a_node10"><a xlink:href="to_fitness centre manager.svg" xlink:title="fitness centre manager">
<ellipse fill="none" stroke="black" cx="1318.89" cy="-105" rx="90.98" ry="18"/>
<text text-anchor="middle" x="1318.89" y="-101.3" font-family="Times New Roman,serif" font-size="14.00">fitness centre manager</text>
</a>
</g>
</g>
<!-- 9&#45;&gt;0 -->
<g id="edge10" class="edge">
<title>9&#45;&gt;0</title>
<path fill="none" stroke="black" d="M1253.33,-92.46C1241.87,-90.55 1230.04,-88.66 1218.89,-87 1104.55,-69.98 1075.81,-66.56 960.89,-54 866.15,-43.65 758.08,-34.04 680.44,-27.52"/>
<polygon fill="black" stroke="black" points="680.43,-24 670.17,-26.66 679.84,-30.98 680.43,-24"/>
<text text-anchor="middle" x="1105.39" y="-57.8" font-family="Times New Roman,serif" font-size="14.00">0.019</text>
</g>
</g>
</svg>
