<?xml version="1.0" encoding="UTF-8" standalone="no"?>
<!DOCTYPE svg PUBLIC "-//W3C//DTD SVG 1.1//EN"
 "http://www.w3.org/Graphics/SVG/1.1/DTD/svg11.dtd">
<!-- Generated by graphviz version 2.44.1 (20200629.0800)
 -->
<!-- Title: sales_manager Pages: 1 -->
<svg width="1502pt" height="131pt"
 viewBox="0.00 0.00 1502.24 131.00" xmlns="http://www.w3.org/2000/svg" xmlns:xlink="http://www.w3.org/1999/xlink">
<g id="graph0" class="graph" transform="scale(1 1) rotate(0) translate(4 127)">
<title>sales_manager</title>
<polygon fill="white" stroke="transparent" points="-4,4 -4,-127 1498.24,-127 1498.24,4 -4,4"/>
<!-- 0 -->
<g id="node1" class="node">
<title>0</title>
<g id="a_node1"><a xlink:href="to_sales manager.svg" xlink:title="sales manager">
<ellipse fill="none" stroke="black" cx="722.89" cy="-18" rx="61.19" ry="18"/>
<text text-anchor="middle" x="722.89" y="-14.3" font-family="Times New Roman,serif" font-size="14.00">sales manager</text>
</a>
</g>
</g>
<!-- 0&#45;&gt;0 -->
<g id="edge1" class="edge">
<title>0&#45;&gt;0</title>
<path fill="none" stroke="black" d="M778.33,-25.75C791.9,-25.18 801.99,-22.59 801.99,-18 801.99,-14.66 796.66,-12.39 788.55,-11.17"/>
<polygon fill="black" stroke="black" points="788.61,-7.66 778.33,-10.25 787.98,-14.63 788.61,-7.66"/>
<text text-anchor="middle" x="817.49" y="-14.3" font-family="Times New Roman,serif" font-size="14.00">0.222</text>
</g>
<!-- 1 -->
<g id="node2" class="node">
<title>1</title>
<g id="a_node2"><a xlink:href="to_project manager.svg" xlink:title="project manager">
<ellipse fill="none" stroke="black" cx="68.89" cy="-105" rx="68.79" ry="18"/>
<text text-anchor="middle" x="68.89" y="-101.3" font-family="Times New Roman,serif" font-size="14.00">project manager</text>
</a>
</g>
</g>
<!-- 1&#45;&gt;0 -->
<g id="edge2" class="edge">
<title>1&#45;&gt;0</title>
<path fill="none" stroke="black" d="M118.71,-92.55C128.05,-90.58 137.75,-88.63 146.89,-87 328.87,-54.5 546.05,-33.64 654.37,-24.44"/>
<polygon fill="black" stroke="black" points="654.84,-27.92 664.51,-23.59 654.25,-20.94 654.84,-27.92"/>
<text text-anchor="middle" x="383.39" y="-57.8" font-family="Times New Roman,serif" font-size="14.00">0.042</text>
</g>
<!-- 2 -->
<g id="node3" class="node">
<title>2</title>
<g id="a_node3"><a xlink:href="to_marketing executive.svg" xlink:title="marketing executive">
<ellipse fill="none" stroke="black" cx="237.89" cy="-105" rx="81.79" ry="18"/>
<text text-anchor="middle" x="237.89" y="-101.3" font-family="Times New Roman,serif" font-size="14.00">marketing executive</text>
</a>
</g>
</g>
<!-- 2&#45;&gt;0 -->
<g id="edge3" class="edge">
<title>2&#45;&gt;0</title>
<path fill="none" stroke="black" d="M295.44,-92.12C347.45,-81.55 426.15,-65.96 494.89,-54 550.1,-44.4 613.07,-34.84 658.82,-28.14"/>
<polygon fill="black" stroke="black" points="659.51,-31.58 668.9,-26.67 658.5,-24.65 659.51,-31.58"/>
<text text-anchor="middle" x="510.39" y="-57.8" font-family="Times New Roman,serif" font-size="14.00">0.039</text>
</g>
<!-- 3 -->
<g id="node4" class="node">
<title>3</title>
<g id="a_node4"><a xlink:href="to_it consultant.svg" xlink:title="it consultant">
<ellipse fill="none" stroke="black" cx="391.89" cy="-105" rx="54.69" ry="18"/>
<text text-anchor="middle" x="391.89" y="-101.3" font-family="Times New Roman,serif" font-size="14.00">it consultant</text>
</a>
</g>
</g>
<!-- 3&#45;&gt;0 -->
<g id="edge4" class="edge">
<title>3&#45;&gt;0</title>
<path fill="none" stroke="black" d="M432.85,-93.05C440.5,-91.03 448.44,-88.94 455.89,-87 529.33,-67.9 614.27,-46.36 668.27,-32.74"/>
<polygon fill="black" stroke="black" points="669.14,-36.13 677.98,-30.29 667.43,-29.34 669.14,-36.13"/>
<text text-anchor="middle" x="596.39" y="-57.8" font-family="Times New Roman,serif" font-size="14.00">0.036</text>
</g>
<!-- 4 -->
<g id="node5" class="node">
<title>4</title>
<g id="a_node5"><a xlink:href="to_production manager.svg" xlink:title="production manager">
<ellipse fill="none" stroke="black" cx="547.89" cy="-105" rx="83.39" ry="18"/>
<text text-anchor="middle" x="547.89" y="-101.3" font-family="Times New Roman,serif" font-size="14.00">production manager</text>
</a>
</g>
</g>
<!-- 4&#45;&gt;0 -->
<g id="edge5" class="edge">
<title>4&#45;&gt;0</title>
<path fill="none" stroke="black" d="M580.4,-88.21C609.51,-74.07 652.29,-53.3 683.37,-38.2"/>
<polygon fill="black" stroke="black" points="685.14,-41.23 692.61,-33.71 682.09,-34.93 685.14,-41.23"/>
<text text-anchor="middle" x="661.39" y="-57.8" font-family="Times New Roman,serif" font-size="14.00">0.035</text>
</g>
<!-- 5 -->
<g id="node6" class="node">
<title>5</title>
<g id="a_node6"><a xlink:href="to_financial manager.svg" xlink:title="financial manager">
<ellipse fill="none" stroke="black" cx="722.89" cy="-105" rx="73.39" ry="18"/>
<text text-anchor="middle" x="722.89" y="-101.3" font-family="Times New Roman,serif" font-size="14.00">financial manager</text>
</a>
</g>
</g>
<!-- 5&#45;&gt;0 -->
<g id="edge6" class="edge">
<title>5&#45;&gt;0</title>
<path fill="none" stroke="black" d="M722.89,-86.8C722.89,-75.16 722.89,-59.55 722.89,-46.24"/>
<polygon fill="black" stroke="black" points="726.39,-46.18 722.89,-36.18 719.39,-46.18 726.39,-46.18"/>
<text text-anchor="middle" x="738.39" y="-57.8" font-family="Times New Roman,serif" font-size="14.00">0.032</text>
</g>
<!-- 6 -->
<g id="node7" class="node">
<title>6</title>
<g id="a_node7"><a xlink:href="to_pharmacovigilance officer.svg" xlink:title="pharmacovigilance officer">
<ellipse fill="none" stroke="black" cx="918.89" cy="-105" rx="104.78" ry="18"/>
<text text-anchor="middle" x="918.89" y="-101.3" font-family="Times New Roman,serif" font-size="14.00">pharmacovigilance officer</text>
</a>
</g>
</g>
<!-- 6&#45;&gt;0 -->
<g id="edge7" class="edge">
<title>6&#45;&gt;0</title>
<path fill="none" stroke="black" d="M882.03,-88.01C848.78,-73.59 799.91,-52.4 765.1,-37.31"/>
<polygon fill="black" stroke="black" points="766.25,-33.99 755.69,-33.22 763.47,-40.41 766.25,-33.99"/>
<text text-anchor="middle" x="848.39" y="-57.8" font-family="Times New Roman,serif" font-size="14.00">0.030</text>
</g>
<!-- 7 -->
<g id="node8" class="node">
<title>7</title>
<g id="a_node8"><a xlink:href="to_marketing assistant.svg" xlink:title="marketing assistant">
<ellipse fill="none" stroke="black" cx="1120.89" cy="-105" rx="79.09" ry="18"/>
<text text-anchor="middle" x="1120.89" y="-101.3" font-family="Times New Roman,serif" font-size="14.00">marketing assistant</text>
</a>
</g>
</g>
<!-- 7&#45;&gt;0 -->
<g id="edge8" class="edge">
<title>7&#45;&gt;0</title>
<path fill="none" stroke="black" d="M1065.13,-92.09C989.99,-76.04 856.89,-47.62 780.71,-31.35"/>
<polygon fill="black" stroke="black" points="781.31,-27.9 770.8,-29.23 779.85,-34.74 781.31,-27.9"/>
<text text-anchor="middle" x="961.39" y="-57.8" font-family="Times New Roman,serif" font-size="14.00">0.025</text>
</g>
<!-- 8 -->
<g id="node9" class="node">
<title>8</title>
<g id="a_node9"><a xlink:href="to_office manager.svg" xlink:title="office manager">
<ellipse fill="none" stroke="black" cx="1282.89" cy="-105" rx="64.19" ry="18"/>
<text text-anchor="middle" x="1282.89" y="-101.3" font-family="Times New Roman,serif" font-size="14.00">office manager</text>
</a>
</g>
</g>
<!-- 8&#45;&gt;0 -->
<g id="edge9" class="edge">
<title>8&#45;&gt;0</title>
<path fill="none" stroke="black" d="M1236.04,-92.63C1227.06,-90.62 1217.7,-88.65 1208.89,-87 1059.96,-59.16 883.42,-37.19 789.5,-26.36"/>
<polygon fill="black" stroke="black" points="789.63,-22.85 779.29,-25.19 788.83,-29.81 789.63,-22.85"/>
<text text-anchor="middle" x="1118.39" y="-57.8" font-family="Times New Roman,serif" font-size="14.00">0.021</text>
</g>
<!-- 9 -->
<g id="node10" class="node">
<title>9</title>
<g id="a_node10"><a xlink:href="to_sales executive.svg" xlink:title="sales executive">
<ellipse fill="none" stroke="black" cx="1429.89" cy="-105" rx="64.19" ry="18"/>
<text text-anchor="middle" x="1429.89" y="-101.3" font-family="Times New Roman,serif" font-size="14.00">sales executive</text>
</a>
</g>
</g>
<!-- 9&#45;&gt;0 -->
<g id="edge10" class="edge">
<title>9&#45;&gt;0</title>
<path fill="none" stroke="black" d="M1382.63,-92.58C1373.77,-90.6 1364.57,-88.65 1355.89,-87 1153.53,-48.5 910.31,-30.01 792.99,-22.81"/>
<polygon fill="black" stroke="black" points="792.9,-19.3 782.71,-22.19 792.48,-26.29 792.9,-19.3"/>
<text text-anchor="middle" x="1250.39" y="-57.8" font-family="Times New Roman,serif" font-size="14.00">0.021</text>
</g>
</g>
</svg>
