<?xml version="1.0" encoding="UTF-8" standalone="no"?>
<!DOCTYPE svg PUBLIC "-//W3C//DTD SVG 1.1//EN"
 "http://www.w3.org/Graphics/SVG/1.1/DTD/svg11.dtd">
<!-- Generated by graphviz version 2.44.1 (20200629.0800)
 -->
<!-- Title: test Pages: 1 -->
<svg width="1523pt" height="131pt"
 viewBox="0.00 0.00 1522.83 131.00" xmlns="http://www.w3.org/2000/svg" xmlns:xlink="http://www.w3.org/1999/xlink">
<g id="graph0" class="graph" transform="scale(1 1) rotate(0) translate(4 127)">
<title>test</title>
<polygon fill="white" stroke="transparent" points="-4,4 -4,-127 1518.83,-127 1518.83,4 -4,4"/>
<!-- 0 -->
<g id="node1" class="node">
<title>0</title>
<g id="a_node1"><a xlink:href="to_speech and language therapist.svg" xlink:title="speech and language therapist">
<ellipse fill="none" stroke="black" cx="693.29" cy="-18" rx="118.08" ry="18"/>
<text text-anchor="middle" x="693.29" y="-14.3" font-family="Times New Roman,serif" font-size="14.00">speech and language therapist</text>
</a>
</g>
</g>
<!-- 0&#45;&gt;0 -->
<g id="edge1" class="edge">
<title>0&#45;&gt;0</title>
<path fill="none" stroke="black" d="M801.81,-25.18C818.35,-24.09 829.58,-21.69 829.58,-18 829.58,-15.12 822.73,-13.02 811.84,-11.72"/>
<polygon fill="black" stroke="black" points="812.09,-8.23 801.81,-10.82 811.46,-15.2 812.09,-8.23"/>
<text text-anchor="middle" x="845.08" y="-14.3" font-family="Times New Roman,serif" font-size="14.00">0.181</text>
</g>
<!-- 1 -->
<g id="node2" class="node">
<title>1</title>
<g id="a_node2"><a xlink:href="to_marketing assistant.svg" xlink:title="marketing assistant">
<ellipse fill="none" stroke="black" cx="79.29" cy="-105" rx="79.09" ry="18"/>
<text text-anchor="middle" x="79.29" y="-101.3" font-family="Times New Roman,serif" font-size="14.00">marketing assistant</text>
</a>
</g>
</g>
<!-- 1&#45;&gt;0 -->
<g id="edge2" class="edge">
<title>1&#45;&gt;0</title>
<path fill="none" stroke="black" d="M134.11,-91.89C186.37,-80.71 267.37,-64.32 338.29,-54 418.46,-42.33 509.4,-33.45 579.16,-27.55"/>
<polygon fill="black" stroke="black" points="579.62,-31.03 589.3,-26.71 579.04,-24.05 579.62,-31.03"/>
<text text-anchor="middle" x="353.79" y="-57.8" font-family="Times New Roman,serif" font-size="14.00">0.090</text>
</g>
<!-- 2 -->
<g id="node3" class="node">
<title>2</title>
<g id="a_node3"><a xlink:href="to_aid worker.svg" xlink:title="aid worker">
<ellipse fill="none" stroke="black" cx="226.29" cy="-105" rx="49.29" ry="18"/>
<text text-anchor="middle" x="226.29" y="-101.3" font-family="Times New Roman,serif" font-size="14.00">aid worker</text>
</a>
</g>
</g>
<!-- 2&#45;&gt;0 -->
<g id="edge3" class="edge">
<title>2&#45;&gt;0</title>
<path fill="none" stroke="black" d="M262.63,-92.62C269.77,-90.59 277.24,-88.61 284.29,-87 390.15,-62.78 513.29,-43.49 596.57,-31.73"/>
<polygon fill="black" stroke="black" points="597.11,-35.19 606.53,-30.33 596.14,-28.26 597.11,-35.19"/>
<text text-anchor="middle" x="467.79" y="-57.8" font-family="Times New Roman,serif" font-size="14.00">0.060</text>
</g>
<!-- 3 -->
<g id="node4" class="node">
<title>3</title>
<g id="a_node4"><a xlink:href="to_private music teacher.svg" xlink:title="private music teacher">
<ellipse fill="none" stroke="black" cx="380.29" cy="-105" rx="87.18" ry="18"/>
<text text-anchor="middle" x="380.29" y="-101.3" font-family="Times New Roman,serif" font-size="14.00">private music teacher</text>
</a>
</g>
</g>
<!-- 3&#45;&gt;0 -->
<g id="edge4" class="edge">
<title>3&#45;&gt;0</title>
<path fill="none" stroke="black" d="M430.93,-90.25C484.66,-75.66 569.73,-52.56 628.35,-36.64"/>
<polygon fill="black" stroke="black" points="629.52,-39.95 638.25,-33.95 627.68,-33.19 629.52,-39.95"/>
<text text-anchor="middle" x="571.79" y="-57.8" font-family="Times New Roman,serif" font-size="14.00">0.060</text>
</g>
<!-- 4 -->
<g id="node5" class="node">
<title>4</title>
<g id="a_node5"><a xlink:href="to_accountant.svg" xlink:title="accountant">
<ellipse fill="none" stroke="black" cx="535.29" cy="-105" rx="50.09" ry="18"/>
<text text-anchor="middle" x="535.29" y="-101.3" font-family="Times New Roman,serif" font-size="14.00">accountant</text>
</a>
</g>
</g>
<!-- 4&#45;&gt;0 -->
<g id="edge5" class="edge">
<title>4&#45;&gt;0</title>
<path fill="none" stroke="black" d="M562.1,-89.58C587.2,-76.08 625.03,-55.72 653.63,-40.34"/>
<polygon fill="black" stroke="black" points="655.42,-43.35 662.57,-35.53 652.1,-37.19 655.42,-43.35"/>
<text text-anchor="middle" x="639.79" y="-57.8" font-family="Times New Roman,serif" font-size="14.00">0.030</text>
</g>
<!-- 5 -->
<g id="node6" class="node">
<title>5</title>
<g id="a_node6"><a xlink:href="to_agricultural consultant.svg" xlink:title="agricultural consultant">
<ellipse fill="none" stroke="black" cx="693.29" cy="-105" rx="89.88" ry="18"/>
<text text-anchor="middle" x="693.29" y="-101.3" font-family="Times New Roman,serif" font-size="14.00">agricultural consultant</text>
</a>
</g>
</g>
<!-- 5&#45;&gt;0 -->
<g id="edge6" class="edge">
<title>5&#45;&gt;0</title>
<path fill="none" stroke="black" d="M693.29,-86.8C693.29,-75.16 693.29,-59.55 693.29,-46.24"/>
<polygon fill="black" stroke="black" points="696.79,-46.18 693.29,-36.18 689.79,-46.18 696.79,-46.18"/>
<text text-anchor="middle" x="708.79" y="-57.8" font-family="Times New Roman,serif" font-size="14.00">0.030</text>
</g>
<!-- 6 -->
<g id="node7" class="node">
<title>6</title>
<g id="a_node7"><a xlink:href="to_airline cabin crew.svg" xlink:title="airline cabin crew">
<ellipse fill="none" stroke="black" cx="874.29" cy="-105" rx="73.39" ry="18"/>
<text text-anchor="middle" x="874.29" y="-101.3" font-family="Times New Roman,serif" font-size="14.00">airline cabin crew</text>
</a>
</g>
</g>
<!-- 6&#45;&gt;0 -->
<g id="edge7" class="edge">
<title>6&#45;&gt;0</title>
<path fill="none" stroke="black" d="M841.93,-88.8C812.69,-75.07 769.4,-54.74 737.07,-39.56"/>
<polygon fill="black" stroke="black" points="738.38,-36.31 727.84,-35.22 735.4,-42.64 738.38,-36.31"/>
<text text-anchor="middle" x="810.79" y="-57.8" font-family="Times New Roman,serif" font-size="14.00">0.030</text>
</g>
<!-- 7 -->
<g id="node8" class="node">
<title>7</title>
<g id="a_node8"><a xlink:href="to_barristers clerk.svg" xlink:title="barristers clerk">
<ellipse fill="none" stroke="black" cx="1030.29" cy="-105" rx="64.19" ry="18"/>
<text text-anchor="middle" x="1030.29" y="-101.3" font-family="Times New Roman,serif" font-size="14.00">barristers clerk</text>
</a>
</g>
</g>
<!-- 7&#45;&gt;0 -->
<g id="edge8" class="edge">
<title>7&#45;&gt;0</title>
<path fill="none" stroke="black" d="M984.14,-92.36C926.62,-77.85 827.81,-52.93 761.53,-36.21"/>
<polygon fill="black" stroke="black" points="762.14,-32.76 751.59,-33.7 760.43,-39.54 762.14,-32.76"/>
<text text-anchor="middle" x="897.79" y="-57.8" font-family="Times New Roman,serif" font-size="14.00">0.030</text>
</g>
<!-- 8 -->
<g id="node9" class="node">
<title>8</title>
<g id="a_node9"><a xlink:href="to_computer sales support.svg" xlink:title="computer sales support">
<ellipse fill="none" stroke="black" cx="1209.29" cy="-105" rx="96.38" ry="18"/>
<text text-anchor="middle" x="1209.29" y="-101.3" font-family="Times New Roman,serif" font-size="14.00">computer sales support</text>
</a>
</g>
</g>
<!-- 8&#45;&gt;0 -->
<g id="edge9" class="edge">
<title>8&#45;&gt;0</title>
<path fill="none" stroke="black" d="M1141.78,-92.15C1082.63,-81.84 994.32,-66.61 917.29,-54 873.33,-46.8 824.47,-39.13 783.62,-32.81"/>
<polygon fill="black" stroke="black" points="784.1,-29.34 773.69,-31.27 783.03,-36.26 784.1,-29.34"/>
<text text-anchor="middle" x="1020.79" y="-57.8" font-family="Times New Roman,serif" font-size="14.00">0.030</text>
</g>
<!-- 9 -->
<g id="node10" class="node">
<title>9</title>
<g id="a_node10"><a xlink:href="to_education administrator.svg" xlink:title="education administrator">
<ellipse fill="none" stroke="black" cx="1419.29" cy="-105" rx="95.58" ry="18"/>
<text text-anchor="middle" x="1419.29" y="-101.3" font-family="Times New Roman,serif" font-size="14.00">education administrator</text>
</a>
</g>
</g>
<!-- 9&#45;&gt;0 -->
<g id="edge10" class="edge">
<title>9&#45;&gt;0</title>
<path fill="none" stroke="black" d="M1350.45,-92.44C1338.41,-90.54 1326,-88.65 1314.29,-87 1135.54,-61.78 926.71,-40.61 802.48,-28.88"/>
<polygon fill="black" stroke="black" points="802.49,-25.37 792.21,-27.92 801.84,-32.34 802.49,-25.37"/>
<text text-anchor="middle" x="1176.79" y="-57.8" font-family="Times New Roman,serif" font-size="14.00">0.030</text>
</g>
</g>
</svg>
