<?xml version="1.0" encoding="UTF-8" standalone="no"?>
<!DOCTYPE svg PUBLIC "-//W3C//DTD SVG 1.1//EN"
 "http://www.w3.org/Graphics/SVG/1.1/DTD/svg11.dtd">
<!-- Generated by graphviz version 2.44.1 (20200629.0800)
 -->
<!-- Title: sports_therapist Pages: 1 -->
<svg width="1646pt" height="131pt"
 viewBox="0.00 0.00 1645.63 131.00" xmlns="http://www.w3.org/2000/svg" xmlns:xlink="http://www.w3.org/1999/xlink">
<g id="graph0" class="graph" transform="scale(1 1) rotate(0) translate(4 127)">
<title>sports_therapist</title>
<polygon fill="white" stroke="transparent" points="-4,4 -4,-127 1641.63,-127 1641.63,4 -4,4"/>
<!-- 0 -->
<g id="node1" class="node">
<title>0</title>
<g id="a_node1"><a xlink:href="to_physiotherapist.svg" xlink:title="physiotherapist">
<ellipse fill="none" stroke="black" cx="65.64" cy="-105" rx="65.79" ry="18"/>
<text text-anchor="middle" x="65.64" y="-101.3" font-family="Times New Roman,serif" font-size="14.00">physiotherapist</text>
</a>
</g>
</g>
<!-- 1 -->
<g id="node2" class="node">
<title>1</title>
<g id="a_node2"><a xlink:href="to_sports therapist.svg" xlink:title="sports therapist">
<ellipse fill="none" stroke="black" cx="857.64" cy="-18" rx="66.89" ry="18"/>
<text text-anchor="middle" x="857.64" y="-14.3" font-family="Times New Roman,serif" font-size="14.00">sports therapist</text>
</a>
</g>
</g>
<!-- 0&#45;&gt;1 -->
<g id="edge1" class="edge">
<title>0&#45;&gt;1</title>
<path fill="none" stroke="black" d="M112.88,-92.45C121.74,-90.48 130.95,-88.57 139.64,-87 371.19,-45.22 649.67,-28.14 781.43,-22.01"/>
<polygon fill="black" stroke="black" points="781.97,-25.48 791.8,-21.53 781.65,-18.49 781.97,-25.48"/>
<text text-anchor="middle" x="371.14" y="-57.8" font-family="Times New Roman,serif" font-size="14.00">0.111</text>
</g>
<!-- 2 -->
<g id="node3" class="node">
<title>2</title>
<g id="a_node3"><a xlink:href="to_research scientist.svg" xlink:title="research scientist">
<ellipse fill="none" stroke="black" cx="221.64" cy="-105" rx="72.59" ry="18"/>
<text text-anchor="middle" x="221.64" y="-101.3" font-family="Times New Roman,serif" font-size="14.00">research scientist</text>
</a>
</g>
</g>
<!-- 2&#45;&gt;1 -->
<g id="edge2" class="edge">
<title>2&#45;&gt;1</title>
<path fill="none" stroke="black" d="M273.81,-92.37C283.37,-90.43 293.29,-88.55 302.64,-87 474.97,-58.41 679.25,-36.42 785.42,-25.87"/>
<polygon fill="black" stroke="black" points="785.78,-29.35 795.39,-24.88 785.09,-22.39 785.78,-29.35"/>
<text text-anchor="middle" x="546.14" y="-57.8" font-family="Times New Roman,serif" font-size="14.00">0.111</text>
</g>
<!-- 3 -->
<g id="node4" class="node">
<title>3</title>
<g id="a_node4"><a xlink:href="to_sports development officer.svg" xlink:title="sports development officer">
<ellipse fill="none" stroke="black" cx="420.64" cy="-105" rx="108.58" ry="18"/>
<text text-anchor="middle" x="420.64" y="-101.3" font-family="Times New Roman,serif" font-size="14.00">sports development officer</text>
</a>
</g>
</g>
<!-- 3&#45;&gt;1 -->
<g id="edge3" class="edge">
<title>3&#45;&gt;1</title>
<path fill="none" stroke="black" d="M488.45,-90.81C572.25,-74.51 713.71,-47 795.04,-31.18"/>
<polygon fill="black" stroke="black" points="795.98,-34.56 805.13,-29.21 794.65,-27.69 795.98,-34.56"/>
<text text-anchor="middle" x="681.14" y="-57.8" font-family="Times New Roman,serif" font-size="14.00">0.111</text>
</g>
<!-- 4 -->
<g id="node5" class="node">
<title>4</title>
<g id="a_node5"><a xlink:href="to_barristers clerk.svg" xlink:title="barristers clerk">
<ellipse fill="none" stroke="black" cx="611.64" cy="-105" rx="64.19" ry="18"/>
<text text-anchor="middle" x="611.64" y="-101.3" font-family="Times New Roman,serif" font-size="14.00">barristers clerk</text>
</a>
</g>
</g>
<!-- 4&#45;&gt;1 -->
<g id="edge4" class="edge">
<title>4&#45;&gt;1</title>
<path fill="none" stroke="black" d="M650.62,-90.53C693.37,-75.76 762.07,-52.03 808.48,-35.99"/>
<polygon fill="black" stroke="black" points="809.72,-39.26 818.03,-32.69 807.44,-32.64 809.72,-39.26"/>
<text text-anchor="middle" x="765.14" y="-57.8" font-family="Times New Roman,serif" font-size="14.00">0.055</text>
</g>
<!-- 5 -->
<g id="node6" class="node">
<title>5</title>
<g id="a_node6"><a xlink:href="to_biomedical scientist.svg" xlink:title="biomedical scientist">
<ellipse fill="none" stroke="black" cx="775.64" cy="-105" rx="81.79" ry="18"/>
<text text-anchor="middle" x="775.64" y="-101.3" font-family="Times New Roman,serif" font-size="14.00">biomedical scientist</text>
</a>
</g>
</g>
<!-- 5&#45;&gt;1 -->
<g id="edge5" class="edge">
<title>5&#45;&gt;1</title>
<path fill="none" stroke="black" d="M791.84,-87.21C803.97,-74.63 820.74,-57.25 834.32,-43.18"/>
<polygon fill="black" stroke="black" points="837.05,-45.39 841.48,-35.76 832.02,-40.53 837.05,-45.39"/>
<text text-anchor="middle" x="837.14" y="-57.8" font-family="Times New Roman,serif" font-size="14.00">0.055</text>
</g>
<!-- 6 -->
<g id="node7" class="node">
<title>6</title>
<g id="a_node7"><a xlink:href="to_careers adviser.svg" xlink:title="careers adviser">
<ellipse fill="none" stroke="black" cx="940.64" cy="-105" rx="64.99" ry="18"/>
<text text-anchor="middle" x="940.64" y="-101.3" font-family="Times New Roman,serif" font-size="14.00">careers adviser</text>
</a>
</g>
</g>
<!-- 6&#45;&gt;1 -->
<g id="edge6" class="edge">
<title>6&#45;&gt;1</title>
<path fill="none" stroke="black" d="M924.25,-87.21C911.97,-74.63 895,-57.25 881.26,-43.18"/>
<polygon fill="black" stroke="black" points="883.5,-40.47 874.01,-35.76 878.49,-45.36 883.5,-40.47"/>
<text text-anchor="middle" x="920.14" y="-57.8" font-family="Times New Roman,serif" font-size="14.00">0.055</text>
</g>
<!-- 7 -->
<g id="node8" class="node">
<title>7</title>
<g id="a_node8"><a xlink:href="to_dietitian.svg" xlink:title="dietitian">
<ellipse fill="none" stroke="black" cx="1061.64" cy="-105" rx="38.19" ry="18"/>
<text text-anchor="middle" x="1061.64" y="-101.3" font-family="Times New Roman,serif" font-size="14.00">dietitian</text>
</a>
</g>
</g>
<!-- 7&#45;&gt;1 -->
<g id="edge7" class="edge">
<title>7&#45;&gt;1</title>
<path fill="none" stroke="black" d="M1033.71,-92.36C999.66,-78.17 941.73,-54.04 901.67,-37.34"/>
<polygon fill="black" stroke="black" points="902.98,-34.1 892.4,-33.48 900.29,-40.56 902.98,-34.1"/>
<text text-anchor="middle" x="988.14" y="-57.8" font-family="Times New Roman,serif" font-size="14.00">0.055</text>
</g>
<!-- 8 -->
<g id="node9" class="node">
<title>8</title>
<g id="a_node9"><a xlink:href="to_medical physicist.svg" xlink:title="medical physicist">
<ellipse fill="none" stroke="black" cx="1191.64" cy="-105" rx="73.39" ry="18"/>
<text text-anchor="middle" x="1191.64" y="-101.3" font-family="Times New Roman,serif" font-size="14.00">medical physicist</text>
</a>
</g>
</g>
<!-- 8&#45;&gt;1 -->
<g id="edge8" class="edge">
<title>8&#45;&gt;1</title>
<path fill="none" stroke="black" d="M1145.26,-90.9C1108.13,-80.53 1054.66,-65.87 1007.64,-54 977.97,-46.51 944.85,-38.72 917.3,-32.4"/>
<polygon fill="black" stroke="black" points="917.94,-28.96 907.41,-30.14 916.38,-35.78 917.94,-28.96"/>
<text text-anchor="middle" x="1078.14" y="-57.8" font-family="Times New Roman,serif" font-size="14.00">0.055</text>
</g>
<!-- 9 -->
<g id="node10" class="node">
<title>9</title>
<g id="a_node10"><a xlink:href="to_office manager.svg" xlink:title="office manager">
<ellipse fill="none" stroke="black" cx="1347.64" cy="-105" rx="64.19" ry="18"/>
<text text-anchor="middle" x="1347.64" y="-101.3" font-family="Times New Roman,serif" font-size="14.00">office manager</text>
</a>
</g>
</g>
<!-- 9&#45;&gt;1 -->
<g id="edge9" class="edge">
<title>9&#45;&gt;1</title>
<path fill="none" stroke="black" d="M1299.94,-92.74C1291.2,-90.77 1282.16,-88.78 1273.64,-87 1195.73,-70.75 1176.15,-67.08 1097.64,-54 1040.06,-44.41 974.46,-34.94 926.41,-28.27"/>
<polygon fill="black" stroke="black" points="926.82,-24.8 916.43,-26.9 925.86,-31.73 926.82,-24.8"/>
<text text-anchor="middle" x="1198.14" y="-57.8" font-family="Times New Roman,serif" font-size="14.00">0.055</text>
</g>
<!-- 10 -->
<g id="node11" class="node">
<title>10</title>
<g id="a_node11"><a xlink:href="to_outdoor pursuits manager.svg" xlink:title="outdoor pursuits manager">
<ellipse fill="none" stroke="black" cx="1533.64" cy="-105" rx="103.98" ry="18"/>
<text text-anchor="middle" x="1533.64" y="-101.3" font-family="Times New Roman,serif" font-size="14.00">outdoor pursuits manager</text>
</a>
</g>
</g>
<!-- 10&#45;&gt;1 -->
<g id="edge10" class="edge">
<title>10&#45;&gt;1</title>
<path fill="none" stroke="black" d="M1463.53,-91.67C1399.61,-80.72 1302.49,-64.83 1217.64,-54 1118.59,-41.36 1003.69,-30.92 930.85,-24.82"/>
<polygon fill="black" stroke="black" points="931.11,-21.33 920.85,-23.99 930.53,-28.31 931.11,-21.33"/>
<text text-anchor="middle" x="1337.14" y="-57.8" font-family="Times New Roman,serif" font-size="14.00">0.055</text>
</g>
</g>
</svg>
