<?xml version="1.0" encoding="UTF-8" standalone="no"?>
<!DOCTYPE svg PUBLIC "-//W3C//DTD SVG 1.1//EN"
 "http://www.w3.org/Graphics/SVG/1.1/DTD/svg11.dtd">
<!-- Generated by graphviz version 2.44.1 (20200629.0800)
 -->
<!-- Title: stockbroker Pages: 1 -->
<svg width="1741pt" height="131pt"
 viewBox="0.00 0.00 1740.84 131.00" xmlns="http://www.w3.org/2000/svg" xmlns:xlink="http://www.w3.org/1999/xlink">
<g id="graph0" class="graph" transform="scale(1 1) rotate(0) translate(4 127)">
<title>stockbroker</title>
<polygon fill="white" stroke="transparent" points="-4,4 -4,-127 1736.84,-127 1736.84,4 -4,4"/>
<!-- 0 -->
<g id="node1" class="node">
<title>0</title>
<g id="a_node1"><a xlink:href="to_heritage manager.svg" xlink:title="heritage manager">
<ellipse fill="none" stroke="black" cx="71.49" cy="-105" rx="71.49" ry="18"/>
<text text-anchor="middle" x="71.49" y="-101.3" font-family="Times New Roman,serif" font-size="14.00">heritage manager</text>
</a>
</g>
</g>
<!-- 1 -->
<g id="node2" class="node">
<title>1</title>
<g id="a_node2"><a xlink:href="to_stockbroker.svg" xlink:title="stockbroker">
<ellipse fill="none" stroke="black" cx="886.49" cy="-18" rx="54.69" ry="18"/>
<text text-anchor="middle" x="886.49" y="-14.3" font-family="Times New Roman,serif" font-size="14.00">stockbroker</text>
</a>
</g>
</g>
<!-- 0&#45;&gt;1 -->
<g id="edge1" class="edge">
<title>0&#45;&gt;1</title>
<path fill="none" stroke="black" d="M122.56,-92.35C132.14,-90.39 142.1,-88.51 151.49,-87 397.89,-47.51 694.71,-28.75 822.68,-22.03"/>
<polygon fill="black" stroke="black" points="822.89,-25.53 832.7,-21.52 822.53,-18.54 822.89,-25.53"/>
<text text-anchor="middle" x="408.99" y="-57.8" font-family="Times New Roman,serif" font-size="14.00">0.090</text>
</g>
<!-- 2 -->
<g id="node3" class="node">
<title>2</title>
<g id="a_node3"><a xlink:href="to_market research analyst.svg" xlink:title="market research analyst">
<ellipse fill="none" stroke="black" cx="255.49" cy="-105" rx="94.78" ry="18"/>
<text text-anchor="middle" x="255.49" y="-101.3" font-family="Times New Roman,serif" font-size="14.00">market research analyst</text>
</a>
</g>
</g>
<!-- 2&#45;&gt;1 -->
<g id="edge2" class="edge">
<title>2&#45;&gt;1</title>
<path fill="none" stroke="black" d="M323.98,-92.51C335.81,-90.61 348,-88.71 359.49,-87 528.05,-61.97 727.73,-37.66 825.87,-26.06"/>
<polygon fill="black" stroke="black" points="826.38,-29.52 835.9,-24.88 825.56,-22.57 826.38,-29.52"/>
<text text-anchor="middle" x="606.99" y="-57.8" font-family="Times New Roman,serif" font-size="14.00">0.090</text>
</g>
<!-- 3 -->
<g id="node4" class="node">
<title>3</title>
<g id="a_node4"><a xlink:href="to_marketing assistant.svg" xlink:title="marketing assistant">
<ellipse fill="none" stroke="black" cx="447.49" cy="-105" rx="79.09" ry="18"/>
<text text-anchor="middle" x="447.49" y="-101.3" font-family="Times New Roman,serif" font-size="14.00">marketing assistant</text>
</a>
</g>
</g>
<!-- 3&#45;&gt;1 -->
<g id="edge3" class="edge">
<title>3&#45;&gt;1</title>
<path fill="none" stroke="black" d="M505.79,-92.71C590.65,-76.28 747.14,-45.98 830.61,-29.82"/>
<polygon fill="black" stroke="black" points="831.51,-33.21 840.67,-27.87 830.18,-26.34 831.51,-33.21"/>
<text text-anchor="middle" x="708.99" y="-57.8" font-family="Times New Roman,serif" font-size="14.00">0.090</text>
</g>
<!-- 4 -->
<g id="node5" class="node">
<title>4</title>
<g id="a_node5"><a xlink:href="to_production manager.svg" xlink:title="production manager">
<ellipse fill="none" stroke="black" cx="627.49" cy="-105" rx="83.39" ry="18"/>
<text text-anchor="middle" x="627.49" y="-101.3" font-family="Times New Roman,serif" font-size="14.00">production manager</text>
</a>
</g>
</g>
<!-- 4&#45;&gt;1 -->
<g id="edge4" class="edge">
<title>4&#45;&gt;1</title>
<path fill="none" stroke="black" d="M671.43,-89.58C718.05,-74.28 791.45,-50.19 839.28,-34.49"/>
<polygon fill="black" stroke="black" points="840.67,-37.72 849.08,-31.28 838.49,-31.07 840.67,-37.72"/>
<text text-anchor="middle" x="788.99" y="-57.8" font-family="Times New Roman,serif" font-size="14.00">0.090</text>
</g>
<!-- 5 -->
<g id="node6" class="node">
<title>5</title>
<g id="a_node6"><a xlink:href="to_retail merchandiser.svg" xlink:title="retail merchandiser">
<ellipse fill="none" stroke="black" cx="807.49" cy="-105" rx="78.79" ry="18"/>
<text text-anchor="middle" x="807.49" y="-101.3" font-family="Times New Roman,serif" font-size="14.00">retail merchandiser</text>
</a>
</g>
</g>
<!-- 5&#45;&gt;1 -->
<g id="edge5" class="edge">
<title>5&#45;&gt;1</title>
<path fill="none" stroke="black" d="M823.1,-87.21C834.86,-74.55 851.15,-57.03 864.27,-42.91"/>
<polygon fill="black" stroke="black" points="866.94,-45.18 871.19,-35.47 861.82,-40.41 866.94,-45.18"/>
<text text-anchor="middle" x="867.99" y="-57.8" font-family="Times New Roman,serif" font-size="14.00">0.090</text>
</g>
<!-- 6 -->
<g id="node7" class="node">
<title>6</title>
<g id="a_node7"><a xlink:href="to_sales manager.svg" xlink:title="sales manager">
<ellipse fill="none" stroke="black" cx="965.49" cy="-105" rx="61.19" ry="18"/>
<text text-anchor="middle" x="965.49" y="-101.3" font-family="Times New Roman,serif" font-size="14.00">sales manager</text>
</a>
</g>
</g>
<!-- 6&#45;&gt;1 -->
<g id="edge6" class="edge">
<title>6&#45;&gt;1</title>
<path fill="none" stroke="black" d="M949.89,-87.21C938.12,-74.55 921.84,-57.03 908.71,-42.91"/>
<polygon fill="black" stroke="black" points="911.17,-40.41 901.8,-35.47 906.04,-45.18 911.17,-40.41"/>
<text text-anchor="middle" x="946.99" y="-57.8" font-family="Times New Roman,serif" font-size="14.00">0.090</text>
</g>
<!-- 7 -->
<g id="node8" class="node">
<title>7</title>
<g id="a_node8"><a xlink:href="to_airline cabin crew.svg" xlink:title="airline cabin crew">
<ellipse fill="none" stroke="black" cx="1118.49" cy="-105" rx="73.39" ry="18"/>
<text text-anchor="middle" x="1118.49" y="-101.3" font-family="Times New Roman,serif" font-size="14.00">airline cabin crew</text>
</a>
</g>
</g>
<!-- 7&#45;&gt;1 -->
<g id="edge7" class="edge">
<title>7&#45;&gt;1</title>
<path fill="none" stroke="black" d="M1079.4,-89.68C1038.43,-74.67 974.15,-51.12 931.2,-35.38"/>
<polygon fill="black" stroke="black" points="932.16,-32 921.57,-31.85 929.75,-38.58 932.16,-32"/>
<text text-anchor="middle" x="1031.99" y="-57.8" font-family="Times New Roman,serif" font-size="14.00">0.045</text>
</g>
<!-- 8 -->
<g id="node9" class="node">
<title>8</title>
<g id="a_node9"><a xlink:href="to_biomedical scientist.svg" xlink:title="biomedical scientist">
<ellipse fill="none" stroke="black" cx="1291.49" cy="-105" rx="81.79" ry="18"/>
<text text-anchor="middle" x="1291.49" y="-101.3" font-family="Times New Roman,serif" font-size="14.00">biomedical scientist</text>
</a>
</g>
</g>
<!-- 8&#45;&gt;1 -->
<g id="edge8" class="edge">
<title>8&#45;&gt;1</title>
<path fill="none" stroke="black" d="M1234.33,-92C1156.39,-75.64 1017.74,-46.54 941.13,-30.47"/>
<polygon fill="black" stroke="black" points="941.71,-27.01 931.2,-28.38 940.27,-33.86 941.71,-27.01"/>
<text text-anchor="middle" x="1128.99" y="-57.8" font-family="Times New Roman,serif" font-size="14.00">0.045</text>
</g>
<!-- 9 -->
<g id="node10" class="node">
<title>9</title>
<g id="a_node10"><a xlink:href="to_catering manager.svg" xlink:title="catering manager">
<ellipse fill="none" stroke="black" cx="1462.49" cy="-105" rx="71.49" ry="18"/>
<text text-anchor="middle" x="1462.49" y="-101.3" font-family="Times New Roman,serif" font-size="14.00">catering manager</text>
</a>
</g>
</g>
<!-- 9&#45;&gt;1 -->
<g id="edge9" class="edge">
<title>9&#45;&gt;1</title>
<path fill="none" stroke="black" d="M1410.95,-92.5C1401.51,-90.55 1391.72,-88.63 1382.49,-87 1226.57,-59.47 1041.39,-36.69 947.55,-25.84"/>
<polygon fill="black" stroke="black" points="947.73,-22.33 937.39,-24.67 946.93,-29.29 947.73,-22.33"/>
<text text-anchor="middle" x="1275.99" y="-57.8" font-family="Times New Roman,serif" font-size="14.00">0.045</text>
</g>
<!-- 10 -->
<g id="node11" class="node">
<title>10</title>
<g id="a_node11"><a xlink:href="to_charities administrator.svg" xlink:title="charities administrator">
<ellipse fill="none" stroke="black" cx="1642.49" cy="-105" rx="90.18" ry="18"/>
<text text-anchor="middle" x="1642.49" y="-101.3" font-family="Times New Roman,serif" font-size="14.00">charities administrator</text>
</a>
</g>
</g>
<!-- 10&#45;&gt;1 -->
<g id="edge10" class="edge">
<title>10&#45;&gt;1</title>
<path fill="none" stroke="black" d="M1577.19,-92.55C1565.64,-90.63 1553.72,-88.7 1542.49,-87 1432.99,-70.38 1405.59,-66.06 1295.49,-54 1173.29,-40.62 1030.06,-29.38 949.64,-23.47"/>
<polygon fill="black" stroke="black" points="949.42,-19.94 939.19,-22.71 948.91,-26.93 949.42,-19.94"/>
<text text-anchor="middle" x="1433.99" y="-57.8" font-family="Times New Roman,serif" font-size="14.00">0.045</text>
</g>
</g>
</svg>
