<?xml version="1.0" encoding="UTF-8" standalone="no"?>
<!DOCTYPE svg PUBLIC "-//W3C//DTD SVG 1.1//EN"
 "http://www.w3.org/Graphics/SVG/1.1/DTD/svg11.dtd">
<!-- Generated by graphviz version 2.44.1 (20200629.0800)
 -->
<!-- Title: test Pages: 1 -->
<svg width="1327pt" height="131pt"
 viewBox="0.00 0.00 1327.19 131.00" xmlns="http://www.w3.org/2000/svg" xmlns:xlink="http://www.w3.org/1999/xlink">
<g id="graph0" class="graph" transform="scale(1 1) rotate(0) translate(4 127)">
<title>test</title>
<polygon fill="white" stroke="transparent" points="-4,4 -4,-127 1323.19,-127 1323.19,4 -4,4"/>
<!-- 0 -->
<g id="node1" class="node">
<title>0</title>
<g id="a_node1"><a xlink:href="to_software architect.svg" xlink:title="software architect">
<ellipse fill="none" stroke="black" cx="609.6" cy="-18" rx="75.29" ry="18"/>
<text text-anchor="middle" x="609.6" y="-14.3" font-family="Times New Roman,serif" font-size="14.00">software architect</text>
</a>
</g>
</g>
<!-- 0&#45;&gt;0 -->
<g id="edge1" class="edge">
<title>0&#45;&gt;0</title>
<path fill="none" stroke="black" d="M678.01,-25.62C692.51,-24.85 702.99,-22.31 702.99,-18 702.99,-14.77 697.1,-12.53 688.03,-11.29"/>
<polygon fill="black" stroke="black" points="688.29,-7.8 678.01,-10.38 687.65,-14.77 688.29,-7.8"/>
<text text-anchor="middle" x="718.49" y="-14.3" font-family="Times New Roman,serif" font-size="14.00">0.207</text>
</g>
<!-- 1 -->
<g id="node2" class="node">
<title>1</title>
<g id="a_node2"><a xlink:href="to_it consultant.svg" xlink:title="it consultant">
<ellipse fill="none" stroke="black" cx="54.6" cy="-105" rx="54.69" ry="18"/>
<text text-anchor="middle" x="54.6" y="-101.3" font-family="Times New Roman,serif" font-size="14.00">it consultant</text>
</a>
</g>
</g>
<!-- 1&#45;&gt;0 -->
<g id="edge2" class="edge">
<title>1&#45;&gt;0</title>
<path fill="none" stroke="black" d="M94.73,-92.69C102.61,-90.65 110.84,-88.65 118.6,-87 262.48,-56.33 433.15,-36.3 530.67,-26.37"/>
<polygon fill="black" stroke="black" points="531.14,-29.84 540.74,-25.36 530.44,-22.88 531.14,-29.84"/>
<text text-anchor="middle" x="309.1" y="-57.8" font-family="Times New Roman,serif" font-size="14.00">0.150</text>
</g>
<!-- 2 -->
<g id="node3" class="node">
<title>2</title>
<g id="a_node3"><a xlink:href="to_software developer.svg" xlink:title="software developer">
<ellipse fill="none" stroke="black" cx="207.6" cy="-105" rx="79.89" ry="18"/>
<text text-anchor="middle" x="207.6" y="-101.3" font-family="Times New Roman,serif" font-size="14.00">software developer</text>
</a>
</g>
</g>
<!-- 2&#45;&gt;0 -->
<g id="edge3" class="edge">
<title>2&#45;&gt;0</title>
<path fill="none" stroke="black" d="M259.34,-91.21C302.59,-80.7 365.96,-65.67 421.6,-54 460.78,-45.78 504.77,-37.54 540.33,-31.12"/>
<polygon fill="black" stroke="black" points="541.39,-34.48 550.61,-29.27 540.15,-27.59 541.39,-34.48"/>
<text text-anchor="middle" x="437.1" y="-57.8" font-family="Times New Roman,serif" font-size="14.00">0.129</text>
</g>
<!-- 3 -->
<g id="node4" class="node">
<title>3</title>
<g id="a_node4"><a xlink:href="to_architect.svg" xlink:title="architect">
<ellipse fill="none" stroke="black" cx="347.6" cy="-105" rx="41.69" ry="18"/>
<text text-anchor="middle" x="347.6" y="-101.3" font-family="Times New Roman,serif" font-size="14.00">architect</text>
</a>
</g>
</g>
<!-- 3&#45;&gt;0 -->
<g id="edge4" class="edge">
<title>3&#45;&gt;0</title>
<path fill="none" stroke="black" d="M379.31,-93.14C385.38,-91.08 391.68,-88.96 397.6,-87 451.37,-69.16 513.07,-49.46 555.99,-35.87"/>
<polygon fill="black" stroke="black" points="557.18,-39.16 565.66,-32.81 555.07,-32.49 557.18,-39.16"/>
<text text-anchor="middle" x="512.1" y="-57.8" font-family="Times New Roman,serif" font-size="14.00">0.111</text>
</g>
<!-- 4 -->
<g id="node5" class="node">
<title>4</title>
<g id="a_node5"><a xlink:href="to_project manager.svg" xlink:title="project manager">
<ellipse fill="none" stroke="black" cx="475.6" cy="-105" rx="68.79" ry="18"/>
<text text-anchor="middle" x="475.6" y="-101.3" font-family="Times New Roman,serif" font-size="14.00">project manager</text>
</a>
</g>
</g>
<!-- 4&#45;&gt;0 -->
<g id="edge5" class="edge">
<title>4&#45;&gt;0</title>
<path fill="none" stroke="black" d="M500.49,-88.21C521.69,-74.76 552.37,-55.3 575.79,-40.44"/>
<polygon fill="black" stroke="black" points="577.81,-43.3 584.38,-34.99 574.06,-37.39 577.81,-43.3"/>
<text text-anchor="middle" x="567.1" y="-57.8" font-family="Times New Roman,serif" font-size="14.00">0.051</text>
</g>
<!-- 5 -->
<g id="node6" class="node">
<title>5</title>
<g id="a_node6"><a xlink:href="to_qa analyst.svg" xlink:title="qa analyst">
<ellipse fill="none" stroke="black" cx="609.6" cy="-105" rx="46.59" ry="18"/>
<text text-anchor="middle" x="609.6" y="-101.3" font-family="Times New Roman,serif" font-size="14.00">qa analyst</text>
</a>
</g>
</g>
<!-- 5&#45;&gt;0 -->
<g id="edge6" class="edge">
<title>5&#45;&gt;0</title>
<path fill="none" stroke="black" d="M609.6,-86.8C609.6,-75.16 609.6,-59.55 609.6,-46.24"/>
<polygon fill="black" stroke="black" points="613.1,-46.18 609.6,-36.18 606.1,-46.18 613.1,-46.18"/>
<text text-anchor="middle" x="625.1" y="-57.8" font-family="Times New Roman,serif" font-size="14.00">0.024</text>
</g>
<!-- 6 -->
<g id="node7" class="node">
<title>6</title>
<g id="a_node7"><a xlink:href="to_site manager.svg" xlink:title="site manager">
<ellipse fill="none" stroke="black" cx="730.6" cy="-105" rx="55.79" ry="18"/>
<text text-anchor="middle" x="730.6" y="-101.3" font-family="Times New Roman,serif" font-size="14.00">site manager</text>
</a>
</g>
</g>
<!-- 6&#45;&gt;0 -->
<g id="edge7" class="edge">
<title>6&#45;&gt;0</title>
<path fill="none" stroke="black" d="M708.4,-88.41C689.57,-75.18 662.34,-56.05 641.22,-41.22"/>
<polygon fill="black" stroke="black" points="643.08,-38.24 632.88,-35.36 639.06,-43.97 643.08,-38.24"/>
<text text-anchor="middle" x="693.1" y="-57.8" font-family="Times New Roman,serif" font-size="14.00">0.018</text>
</g>
<!-- 7 -->
<g id="node8" class="node">
<title>7</title>
<g id="a_node8"><a xlink:href="to_technical author.svg" xlink:title="technical author">
<ellipse fill="none" stroke="black" cx="871.6" cy="-105" rx="67.69" ry="18"/>
<text text-anchor="middle" x="871.6" y="-101.3" font-family="Times New Roman,serif" font-size="14.00">technical author</text>
</a>
</g>
</g>
<!-- 7&#45;&gt;0 -->
<g id="edge8" class="edge">
<title>7&#45;&gt;0</title>
<path fill="none" stroke="black" d="M830.37,-90.63C784.84,-75.85 711.44,-52.04 661.89,-35.97"/>
<polygon fill="black" stroke="black" points="662.91,-32.62 652.32,-32.86 660.75,-39.28 662.91,-32.62"/>
<text text-anchor="middle" x="772.1" y="-57.8" font-family="Times New Roman,serif" font-size="14.00">0.018</text>
</g>
<!-- 8 -->
<g id="node9" class="node">
<title>8</title>
<g id="a_node9"><a xlink:href="to_pharmacovigilance officer.svg" xlink:title="pharmacovigilance officer">
<ellipse fill="none" stroke="black" cx="1061.6" cy="-105" rx="104.78" ry="18"/>
<text text-anchor="middle" x="1061.6" y="-101.3" font-family="Times New Roman,serif" font-size="14.00">pharmacovigilance officer</text>
</a>
</g>
</g>
<!-- 8&#45;&gt;0 -->
<g id="edge9" class="edge">
<title>8&#45;&gt;0</title>
<path fill="none" stroke="black" d="M993.44,-91.18C907.88,-75.09 762.06,-47.67 676.91,-31.66"/>
<polygon fill="black" stroke="black" points="677.3,-28.17 666.83,-29.76 676.01,-35.05 677.3,-28.17"/>
<text text-anchor="middle" x="878.1" y="-57.8" font-family="Times New Roman,serif" font-size="14.00">0.015</text>
</g>
<!-- 9 -->
<g id="node10" class="node">
<title>9</title>
<g id="a_node10"><a xlink:href="to_systems analyst.svg" xlink:title="systems analyst">
<ellipse fill="none" stroke="black" cx="1251.6" cy="-105" rx="67.69" ry="18"/>
<text text-anchor="middle" x="1251.6" y="-101.3" font-family="Times New Roman,serif" font-size="14.00">systems analyst</text>
</a>
</g>
</g>
<!-- 9&#45;&gt;0 -->
<g id="edge10" class="edge">
<title>9&#45;&gt;0</title>
<path fill="none" stroke="black" d="M1203.09,-92.39C1193.98,-90.42 1184.52,-88.53 1175.6,-87 1003.2,-57.44 799.08,-36.29 689.2,-26.02"/>
<polygon fill="black" stroke="black" points="689.47,-22.53 679.19,-25.09 688.82,-29.5 689.47,-22.53"/>
<text text-anchor="middle" x="1067.1" y="-57.8" font-family="Times New Roman,serif" font-size="14.00">0.015</text>
</g>
</g>
</svg>
