<?xml version="1.0" encoding="UTF-8" standalone="no"?>
<!DOCTYPE svg PUBLIC "-//W3C//DTD SVG 1.1//EN"
 "http://www.w3.org/Graphics/SVG/1.1/DTD/svg11.dtd">
<!-- Generated by graphviz version 2.44.1 (20200629.0800)
 -->
<!-- Title: sales_executive Pages: 1 -->
<svg width="1644pt" height="131pt"
 viewBox="0.00 0.00 1643.99 131.00" xmlns="http://www.w3.org/2000/svg" xmlns:xlink="http://www.w3.org/1999/xlink">
<g id="graph0" class="graph" transform="scale(1 1) rotate(0) translate(4 127)">
<title>sales_executive</title>
<polygon fill="white" stroke="transparent" points="-4,4 -4,-127 1639.99,-127 1639.99,4 -4,4"/>
<!-- 0 -->
<g id="node1" class="node">
<title>0</title>
<g id="a_node1"><a xlink:href="to_sales executive.svg" xlink:title="sales executive">
<ellipse fill="none" stroke="black" cx="687.09" cy="-18" rx="64.19" ry="18"/>
<text text-anchor="middle" x="687.09" y="-14.3" font-family="Times New Roman,serif" font-size="14.00">sales executive</text>
</a>
</g>
</g>
<!-- 0&#45;&gt;0 -->
<g id="edge1" class="edge">
<title>0&#45;&gt;0</title>
<path fill="none" stroke="black" d="M745.56,-25.72C759.3,-25.08 769.44,-22.51 769.44,-18 769.44,-14.69 763.97,-12.42 755.63,-11.2"/>
<polygon fill="black" stroke="black" points="755.84,-7.7 745.56,-10.28 755.21,-14.67 755.84,-7.7"/>
<text text-anchor="middle" x="784.94" y="-14.3" font-family="Times New Roman,serif" font-size="14.00">0.117</text>
</g>
<!-- 1 -->
<g id="node2" class="node">
<title>1</title>
<g id="a_node2"><a xlink:href="to_sales manager.svg" xlink:title="sales manager">
<ellipse fill="none" stroke="black" cx="61.09" cy="-105" rx="61.19" ry="18"/>
<text text-anchor="middle" x="61.09" y="-101.3" font-family="Times New Roman,serif" font-size="14.00">sales manager</text>
</a>
</g>
</g>
<!-- 1&#45;&gt;0 -->
<g id="edge2" class="edge">
<title>1&#45;&gt;0</title>
<path fill="none" stroke="black" d="M106.04,-92.64C114.66,-90.63 123.64,-88.65 132.09,-87 304.05,-53.4 509.42,-33.38 615.6,-24.49"/>
<polygon fill="black" stroke="black" points="616.2,-27.95 625.88,-23.64 615.62,-20.98 616.2,-27.95"/>
<text text-anchor="middle" x="345.59" y="-57.8" font-family="Times New Roman,serif" font-size="14.00">0.100</text>
</g>
<!-- 2 -->
<g id="node3" class="node">
<title>2</title>
<g id="a_node3"><a xlink:href="to_financial manager.svg" xlink:title="financial manager">
<ellipse fill="none" stroke="black" cx="214.09" cy="-105" rx="73.39" ry="18"/>
<text text-anchor="middle" x="214.09" y="-101.3" font-family="Times New Roman,serif" font-size="14.00">financial manager</text>
</a>
</g>
</g>
<!-- 2&#45;&gt;0 -->
<g id="edge3" class="edge">
<title>2&#45;&gt;0</title>
<path fill="none" stroke="black" d="M268.34,-92.7C277.6,-90.79 287.12,-88.83 296.09,-87 369.38,-72.08 387.46,-67.06 461.09,-54 514.89,-44.46 576.14,-35.06 621.3,-28.41"/>
<polygon fill="black" stroke="black" points="621.87,-31.87 631.26,-26.95 620.85,-24.94 621.87,-31.87"/>
<text text-anchor="middle" x="476.59" y="-57.8" font-family="Times New Roman,serif" font-size="14.00">0.039</text>
</g>
<!-- 3 -->
<g id="node4" class="node">
<title>3</title>
<g id="a_node4"><a xlink:href="to_it consultant.svg" xlink:title="it consultant">
<ellipse fill="none" stroke="black" cx="360.09" cy="-105" rx="54.69" ry="18"/>
<text text-anchor="middle" x="360.09" y="-101.3" font-family="Times New Roman,serif" font-size="14.00">it consultant</text>
</a>
</g>
</g>
<!-- 3&#45;&gt;0 -->
<g id="edge4" class="edge">
<title>3&#45;&gt;0</title>
<path fill="none" stroke="black" d="M400.74,-92.96C408.18,-90.96 415.86,-88.91 423.09,-87 494.68,-68.12 577.35,-46.93 630.83,-33.29"/>
<polygon fill="black" stroke="black" points="631.97,-36.62 640.79,-30.75 630.24,-29.83 631.97,-36.62"/>
<text text-anchor="middle" x="561.59" y="-57.8" font-family="Times New Roman,serif" font-size="14.00">0.034</text>
</g>
<!-- 4 -->
<g id="node5" class="node">
<title>4</title>
<g id="a_node5"><a xlink:href="to_marketing executive.svg" xlink:title="marketing executive">
<ellipse fill="none" stroke="black" cx="514.09" cy="-105" rx="81.79" ry="18"/>
<text text-anchor="middle" x="514.09" y="-101.3" font-family="Times New Roman,serif" font-size="14.00">marketing executive</text>
</a>
</g>
</g>
<!-- 4&#45;&gt;0 -->
<g id="edge5" class="edge">
<title>4&#45;&gt;0</title>
<path fill="none" stroke="black" d="M546.23,-88.21C574.83,-74.16 616.77,-53.55 647.45,-38.48"/>
<polygon fill="black" stroke="black" points="649.15,-41.54 656.58,-33.99 646.06,-35.26 649.15,-41.54"/>
<text text-anchor="middle" x="626.59" y="-57.8" font-family="Times New Roman,serif" font-size="14.00">0.034</text>
</g>
<!-- 5 -->
<g id="node6" class="node">
<title>5</title>
<g id="a_node6"><a xlink:href="to_logistics manager.svg" xlink:title="logistics manager">
<ellipse fill="none" stroke="black" cx="687.09" cy="-105" rx="73.39" ry="18"/>
<text text-anchor="middle" x="687.09" y="-101.3" font-family="Times New Roman,serif" font-size="14.00">logistics manager</text>
</a>
</g>
</g>
<!-- 5&#45;&gt;0 -->
<g id="edge6" class="edge">
<title>5&#45;&gt;0</title>
<path fill="none" stroke="black" d="M687.09,-86.8C687.09,-75.16 687.09,-59.55 687.09,-46.24"/>
<polygon fill="black" stroke="black" points="690.59,-46.18 687.09,-36.18 683.59,-46.18 690.59,-46.18"/>
<text text-anchor="middle" x="702.59" y="-57.8" font-family="Times New Roman,serif" font-size="14.00">0.030</text>
</g>
<!-- 6 -->
<g id="node7" class="node">
<title>6</title>
<g id="a_node7"><a xlink:href="to_pharmacovigilance officer.svg" xlink:title="pharmacovigilance officer">
<ellipse fill="none" stroke="black" cx="883.09" cy="-105" rx="104.78" ry="18"/>
<text text-anchor="middle" x="883.09" y="-101.3" font-family="Times New Roman,serif" font-size="14.00">pharmacovigilance officer</text>
</a>
</g>
</g>
<!-- 6&#45;&gt;0 -->
<g id="edge7" class="edge">
<title>6&#45;&gt;0</title>
<path fill="none" stroke="black" d="M846.23,-88.01C813.18,-73.68 764.7,-52.66 729.94,-37.58"/>
<polygon fill="black" stroke="black" points="731.09,-34.27 720.53,-33.5 728.31,-40.69 731.09,-34.27"/>
<text text-anchor="middle" x="812.59" y="-57.8" font-family="Times New Roman,serif" font-size="14.00">0.030</text>
</g>
<!-- 7 -->
<g id="node8" class="node">
<title>7</title>
<g id="a_node8"><a xlink:href="to_geographical information systems manager.svg" xlink:title="geographical information systems manager">
<ellipse fill="none" stroke="black" cx="1171.09" cy="-105" rx="165.17" ry="18"/>
<text text-anchor="middle" x="1171.09" y="-101.3" font-family="Times New Roman,serif" font-size="14.00">geographical information systems manager</text>
</a>
</g>
</g>
<!-- 7&#45;&gt;0 -->
<g id="edge8" class="edge">
<title>7&#45;&gt;0</title>
<path fill="none" stroke="black" d="M1087.89,-89.39C991.96,-72.54 836.41,-45.22 750.01,-30.05"/>
<polygon fill="black" stroke="black" points="750.54,-26.59 740.09,-28.31 749.33,-33.48 750.54,-26.59"/>
<text text-anchor="middle" x="973.59" y="-57.8" font-family="Times New Roman,serif" font-size="14.00">0.026</text>
</g>
<!-- 8 -->
<g id="node9" class="node">
<title>8</title>
<g id="a_node9"><a xlink:href="to_legal executive.svg" xlink:title="legal executive">
<ellipse fill="none" stroke="black" cx="1417.09" cy="-105" rx="63.09" ry="18"/>
<text text-anchor="middle" x="1417.09" y="-101.3" font-family="Times New Roman,serif" font-size="14.00">legal executive</text>
</a>
</g>
</g>
<!-- 8&#45;&gt;0 -->
<g id="edge9" class="edge">
<title>8&#45;&gt;0</title>
<path fill="none" stroke="black" d="M1371.95,-92.4C1363.09,-90.39 1353.83,-88.48 1345.09,-87 1134.11,-51.34 881.69,-31.57 759.91,-23.45"/>
<polygon fill="black" stroke="black" points="759.81,-19.93 749.6,-22.77 759.35,-26.92 759.81,-19.93"/>
<text text-anchor="middle" x="1234.59" y="-57.8" font-family="Times New Roman,serif" font-size="14.00">0.026</text>
</g>
<!-- 9 -->
<g id="node10" class="node">
<title>9</title>
<g id="a_node10"><a xlink:href="to_project manager.svg" xlink:title="project manager">
<ellipse fill="none" stroke="black" cx="1567.09" cy="-105" rx="68.79" ry="18"/>
<text text-anchor="middle" x="1567.09" y="-101.3" font-family="Times New Roman,serif" font-size="14.00">project manager</text>
</a>
</g>
</g>
<!-- 9&#45;&gt;0 -->
<g id="edge10" class="edge">
<title>9&#45;&gt;0</title>
<path fill="none" stroke="black" d="M1517.27,-92.56C1507.93,-90.58 1498.24,-88.64 1489.09,-87 1385.27,-68.42 1359.03,-64.59 1254.09,-54 1077.52,-36.18 869.03,-26.12 760.74,-21.71"/>
<polygon fill="black" stroke="black" points="760.71,-18.21 750.58,-21.3 760.43,-25.2 760.71,-18.21"/>
<text text-anchor="middle" x="1394.59" y="-57.8" font-family="Times New Roman,serif" font-size="14.00">0.026</text>
</g>
</g>
</svg>
