<?xml version="1.0" encoding="UTF-8" standalone="no"?>
<!DOCTYPE svg PUBLIC "-//W3C//DTD SVG 1.1//EN"
 "http://www.w3.org/Graphics/SVG/1.1/DTD/svg11.dtd">
<!-- Generated by graphviz version 2.44.1 (20200629.0800)
 -->
<!-- Title: solicitor Pages: 1 -->
<svg width="1318pt" height="131pt"
 viewBox="0.00 0.00 1318.13 131.00" xmlns="http://www.w3.org/2000/svg" xmlns:xlink="http://www.w3.org/1999/xlink">
<g id="graph0" class="graph" transform="scale(1 1) rotate(0) translate(4 127)">
<title>solicitor</title>
<polygon fill="white" stroke="transparent" points="-4,4 -4,-127 1314.13,-127 1314.13,4 -4,4"/>
<!-- 0 -->
<g id="node1" class="node">
<title>0</title>
<g id="a_node1"><a xlink:href="to_solicitor.svg" xlink:title="solicitor">
<ellipse fill="none" stroke="black" cx="589.64" cy="-18" rx="40.09" ry="18"/>
<text text-anchor="middle" x="589.64" y="-14.3" font-family="Times New Roman,serif" font-size="14.00">solicitor</text>
</a>
</g>
</g>
<!-- 0&#45;&gt;0 -->
<g id="edge1" class="edge">
<title>0&#45;&gt;0</title>
<path fill="none" stroke="black" d="M626.08,-25.88C638.22,-25.88 647.94,-23.25 647.94,-18 647.94,-14.31 643.13,-11.91 636.06,-10.82"/>
<polygon fill="black" stroke="black" points="636.29,-7.33 626.08,-10.13 635.81,-14.31 636.29,-7.33"/>
<text text-anchor="middle" x="663.44" y="-14.3" font-family="Times New Roman,serif" font-size="14.00">0.214</text>
</g>
<!-- 1 -->
<g id="node2" class="node">
<title>1</title>
<g id="a_node2"><a xlink:href="to_pharmacovigilance officer.svg" xlink:title="pharmacovigilance officer">
<ellipse fill="none" stroke="black" cx="104.64" cy="-105" rx="104.78" ry="18"/>
<text text-anchor="middle" x="104.64" y="-101.3" font-family="Times New Roman,serif" font-size="14.00">pharmacovigilance officer</text>
</a>
</g>
</g>
<!-- 1&#45;&gt;0 -->
<g id="edge2" class="edge">
<title>1&#45;&gt;0</title>
<path fill="none" stroke="black" d="M168.43,-90.71C219.92,-80.17 294.31,-65.37 359.64,-54 422.35,-43.09 495,-32.35 541.6,-25.7"/>
<polygon fill="black" stroke="black" points="542.3,-29.14 551.71,-24.27 541.32,-22.21 542.3,-29.14"/>
<text text-anchor="middle" x="375.14" y="-57.8" font-family="Times New Roman,serif" font-size="14.00">0.187</text>
</g>
<!-- 2 -->
<g id="node3" class="node">
<title>2</title>
<g id="a_node3"><a xlink:href="to_barristers clerk.svg" xlink:title="barristers clerk">
<ellipse fill="none" stroke="black" cx="291.64" cy="-105" rx="64.19" ry="18"/>
<text text-anchor="middle" x="291.64" y="-101.3" font-family="Times New Roman,serif" font-size="14.00">barristers clerk</text>
</a>
</g>
</g>
<!-- 2&#45;&gt;0 -->
<g id="edge3" class="edge">
<title>2&#45;&gt;0</title>
<path fill="none" stroke="black" d="M329.04,-90.25C358.78,-79.59 401.56,-64.85 439.64,-54 474.15,-44.17 513.69,-35.03 543.51,-28.56"/>
<polygon fill="black" stroke="black" points="544.59,-31.9 553.63,-26.38 543.12,-25.06 544.59,-31.9"/>
<text text-anchor="middle" x="455.14" y="-57.8" font-family="Times New Roman,serif" font-size="14.00">0.125</text>
</g>
<!-- 3 -->
<g id="node4" class="node">
<title>3</title>
<g id="a_node4"><a xlink:href="to_lawyer.svg" xlink:title="lawyer">
<ellipse fill="none" stroke="black" cx="408.64" cy="-105" rx="34.39" ry="18"/>
<text text-anchor="middle" x="408.64" y="-101.3" font-family="Times New Roman,serif" font-size="14.00">lawyer</text>
</a>
</g>
</g>
<!-- 3&#45;&gt;0 -->
<g id="edge4" class="edge">
<title>3&#45;&gt;0</title>
<path fill="none" stroke="black" d="M431.36,-91.24C450.41,-80.73 478.46,-65.72 503.64,-54 518.75,-46.97 535.67,-39.91 550.49,-33.99"/>
<polygon fill="black" stroke="black" points="551.87,-37.21 559.88,-30.28 549.29,-30.7 551.87,-37.21"/>
<text text-anchor="middle" x="519.14" y="-57.8" font-family="Times New Roman,serif" font-size="14.00">0.125</text>
</g>
<!-- 4 -->
<g id="node5" class="node">
<title>4</title>
<g id="a_node5"><a xlink:href="to_curator.svg" xlink:title="curator">
<ellipse fill="none" stroke="black" cx="497.64" cy="-105" rx="36.29" ry="18"/>
<text text-anchor="middle" x="497.64" y="-101.3" font-family="Times New Roman,serif" font-size="14.00">curator</text>
</a>
</g>
</g>
<!-- 4&#45;&gt;0 -->
<g id="edge5" class="edge">
<title>4&#45;&gt;0</title>
<path fill="none" stroke="black" d="M514.09,-88.8C528.3,-75.67 549.04,-56.51 565.2,-41.58"/>
<polygon fill="black" stroke="black" points="567.74,-44 572.71,-34.64 562.99,-38.86 567.74,-44"/>
<text text-anchor="middle" x="565.14" y="-57.8" font-family="Times New Roman,serif" font-size="14.00">0.035</text>
</g>
<!-- 5 -->
<g id="node6" class="node">
<title>5</title>
<g id="a_node6"><a xlink:href="to_lecturer.svg" xlink:title="lecturer">
<ellipse fill="none" stroke="black" cx="589.64" cy="-105" rx="37.89" ry="18"/>
<text text-anchor="middle" x="589.64" y="-101.3" font-family="Times New Roman,serif" font-size="14.00">lecturer</text>
</a>
</g>
</g>
<!-- 5&#45;&gt;0 -->
<g id="edge6" class="edge">
<title>5&#45;&gt;0</title>
<path fill="none" stroke="black" d="M589.64,-86.8C589.64,-75.16 589.64,-59.55 589.64,-46.24"/>
<polygon fill="black" stroke="black" points="593.14,-46.18 589.64,-36.18 586.14,-46.18 593.14,-46.18"/>
<text text-anchor="middle" x="605.14" y="-57.8" font-family="Times New Roman,serif" font-size="14.00">0.035</text>
</g>
<!-- 6 -->
<g id="node7" class="node">
<title>6</title>
<g id="a_node7"><a xlink:href="to_personal assistant.svg" xlink:title="personal assistant">
<ellipse fill="none" stroke="black" cx="719.64" cy="-105" rx="74.99" ry="18"/>
<text text-anchor="middle" x="719.64" y="-101.3" font-family="Times New Roman,serif" font-size="14.00">personal assistant</text>
</a>
</g>
</g>
<!-- 6&#45;&gt;0 -->
<g id="edge7" class="edge">
<title>6&#45;&gt;0</title>
<path fill="none" stroke="black" d="M694.88,-87.81C673.68,-73.95 643.06,-53.93 620.31,-39.05"/>
<polygon fill="black" stroke="black" points="621.99,-35.97 611.71,-33.43 618.16,-41.83 621.99,-35.97"/>
<text text-anchor="middle" x="678.14" y="-57.8" font-family="Times New Roman,serif" font-size="14.00">0.026</text>
</g>
<!-- 7 -->
<g id="node8" class="node">
<title>7</title>
<g id="a_node8"><a xlink:href="to_photographer.svg" xlink:title="photographer">
<ellipse fill="none" stroke="black" cx="872.64" cy="-105" rx="59.59" ry="18"/>
<text text-anchor="middle" x="872.64" y="-101.3" font-family="Times New Roman,serif" font-size="14.00">photographer</text>
</a>
</g>
</g>
<!-- 7&#45;&gt;0 -->
<g id="edge8" class="edge">
<title>7&#45;&gt;0</title>
<path fill="none" stroke="black" d="M831.79,-91.73C778.48,-75.72 685.63,-47.83 631.71,-31.64"/>
<polygon fill="black" stroke="black" points="632.7,-28.28 622.12,-28.75 630.69,-34.98 632.7,-28.28"/>
<text text-anchor="middle" x="764.14" y="-57.8" font-family="Times New Roman,serif" font-size="14.00">0.026</text>
</g>
<!-- 8 -->
<g id="node9" class="node">
<title>8</title>
<g id="a_node9"><a xlink:href="to_financial manager.svg" xlink:title="financial manager">
<ellipse fill="none" stroke="black" cx="1023.64" cy="-105" rx="73.39" ry="18"/>
<text text-anchor="middle" x="1023.64" y="-101.3" font-family="Times New Roman,serif" font-size="14.00">financial manager</text>
</a>
</g>
</g>
<!-- 8&#45;&gt;0 -->
<g id="edge9" class="edge">
<title>8&#45;&gt;0</title>
<path fill="none" stroke="black" d="M970.34,-92.47C921.76,-82.06 847.98,-66.5 783.64,-54 733.53,-44.26 675.94,-33.99 636.61,-27.11"/>
<polygon fill="black" stroke="black" points="636.98,-23.62 626.53,-25.35 635.78,-30.52 636.98,-23.62"/>
<text text-anchor="middle" x="871.14" y="-57.8" font-family="Times New Roman,serif" font-size="14.00">0.017</text>
</g>
<!-- 9 -->
<g id="node10" class="node">
<title>9</title>
<g id="a_node10"><a xlink:href="to_public affairs consultant.svg" xlink:title="public affairs consultant">
<ellipse fill="none" stroke="black" cx="1212.64" cy="-105" rx="97.48" ry="18"/>
<text text-anchor="middle" x="1212.64" y="-101.3" font-family="Times New Roman,serif" font-size="14.00">public affairs consultant</text>
</a>
</g>
</g>
<!-- 9&#45;&gt;0 -->
<g id="edge10" class="edge">
<title>9&#45;&gt;0</title>
<path fill="none" stroke="black" d="M1141.57,-92.65C1129.58,-90.76 1117.26,-88.81 1105.64,-87 1010.12,-72.08 986.45,-66.92 890.64,-54 802.11,-42.06 698.59,-30.56 638.92,-24.17"/>
<polygon fill="black" stroke="black" points="638.98,-20.66 628.66,-23.08 638.23,-27.62 638.98,-20.66"/>
<text text-anchor="middle" x="1006.14" y="-57.8" font-family="Times New Roman,serif" font-size="14.00">0.017</text>
</g>
</g>
</svg>
