<?xml version="1.0" encoding="UTF-8" standalone="no"?>
<!DOCTYPE svg PUBLIC "-//W3C//DTD SVG 1.1//EN"
 "http://www.w3.org/Graphics/SVG/1.1/DTD/svg11.dtd">
<!-- Generated by graphviz version 2.44.1 (20200629.0800)
 -->
<!-- Title: structural_engineer Pages: 1 -->
<svg width="1470pt" height="131pt"
 viewBox="0.00 0.00 1470.04 131.00" xmlns="http://www.w3.org/2000/svg" xmlns:xlink="http://www.w3.org/1999/xlink">
<g id="graph0" class="graph" transform="scale(1 1) rotate(0) translate(4 127)">
<title>structural_engineer</title>
<polygon fill="white" stroke="transparent" points="-4,4 -4,-127 1466.04,-127 1466.04,4 -4,4"/>
<!-- 0 -->
<g id="node1" class="node">
<title>0</title>
<g id="a_node1"><a xlink:href="to_structural engineer.svg" xlink:title="structural engineer">
<ellipse fill="none" stroke="black" cx="755.24" cy="-18" rx="76.89" ry="18"/>
<text text-anchor="middle" x="755.24" y="-14.3" font-family="Times New Roman,serif" font-size="14.00">structural engineer</text>
</a>
</g>
</g>
<!-- 0&#45;&gt;0 -->
<g id="edge1" class="edge">
<title>0&#45;&gt;0</title>
<path fill="none" stroke="black" d="M825.03,-25.6C839.52,-24.8 849.93,-22.27 849.93,-18 849.93,-14.8 844.07,-12.58 835.03,-11.33"/>
<polygon fill="black" stroke="black" points="835.31,-7.84 825.03,-10.4 834.66,-14.81 835.31,-7.84"/>
<text text-anchor="middle" x="865.43" y="-14.3" font-family="Times New Roman,serif" font-size="14.00">0.348</text>
</g>
<!-- 1 -->
<g id="node2" class="node">
<title>1</title>
<g id="a_node2"><a xlink:href="to_manufacturing engineer.svg" xlink:title="manufacturing engineer">
<ellipse fill="none" stroke="black" cx="94.24" cy="-105" rx="94.48" ry="18"/>
<text text-anchor="middle" x="94.24" y="-101.3" font-family="Times New Roman,serif" font-size="14.00">manufacturing engineer</text>
</a>
</g>
</g>
<!-- 1&#45;&gt;0 -->
<g id="edge2" class="edge">
<title>1&#45;&gt;0</title>
<path fill="none" stroke="black" d="M162.35,-92.48C173.98,-90.59 185.95,-88.7 197.24,-87 305.02,-70.79 332.07,-67.35 440.24,-54 520.72,-44.07 612.92,-33.97 676.69,-27.19"/>
<polygon fill="black" stroke="black" points="677.1,-30.67 686.67,-26.13 676.36,-23.71 677.1,-30.67"/>
<text text-anchor="middle" x="455.74" y="-57.8" font-family="Times New Roman,serif" font-size="14.00">0.087</text>
</g>
<!-- 2 -->
<g id="node3" class="node">
<title>2</title>
<g id="a_node3"><a xlink:href="to_mechanical engineer.svg" xlink:title="mechanical engineer">
<ellipse fill="none" stroke="black" cx="289.24" cy="-105" rx="83.39" ry="18"/>
<text text-anchor="middle" x="289.24" y="-101.3" font-family="Times New Roman,serif" font-size="14.00">mechanical engineer</text>
</a>
</g>
</g>
<!-- 2&#45;&gt;0 -->
<g id="edge3" class="edge">
<title>2&#45;&gt;0</title>
<path fill="none" stroke="black" d="M349.42,-92.47C403.31,-82.19 484.5,-66.84 555.24,-54 598.38,-46.17 646.82,-37.69 685.22,-31.03"/>
<polygon fill="black" stroke="black" points="686,-34.45 695.26,-29.29 684.81,-27.55 686,-34.45"/>
<text text-anchor="middle" x="570.74" y="-57.8" font-family="Times New Roman,serif" font-size="14.00">0.057</text>
</g>
<!-- 3 -->
<g id="node4" class="node">
<title>3</title>
<g id="a_node4"><a xlink:href="to_project manager.svg" xlink:title="project manager">
<ellipse fill="none" stroke="black" cx="459.24" cy="-105" rx="68.79" ry="18"/>
<text text-anchor="middle" x="459.24" y="-101.3" font-family="Times New Roman,serif" font-size="14.00">project manager</text>
</a>
</g>
</g>
<!-- 3&#45;&gt;0 -->
<g id="edge4" class="edge">
<title>3&#45;&gt;0</title>
<path fill="none" stroke="black" d="M503.88,-91.18C555.98,-76.22 642.23,-51.45 698.9,-35.18"/>
<polygon fill="black" stroke="black" points="700.13,-38.47 708.78,-32.34 698.2,-31.74 700.13,-38.47"/>
<text text-anchor="middle" x="640.74" y="-57.8" font-family="Times New Roman,serif" font-size="14.00">0.049</text>
</g>
<!-- 4 -->
<g id="node5" class="node">
<title>4</title>
<g id="a_node5"><a xlink:href="to_civil engineer.svg" xlink:title="civil engineer">
<ellipse fill="none" stroke="black" cx="604.24" cy="-105" rx="57.69" ry="18"/>
<text text-anchor="middle" x="604.24" y="-101.3" font-family="Times New Roman,serif" font-size="14.00">civil engineer</text>
</a>
</g>
</g>
<!-- 4&#45;&gt;0 -->
<g id="edge5" class="edge">
<title>4&#45;&gt;0</title>
<path fill="none" stroke="black" d="M630.89,-89C655.16,-75.34 691.22,-55.04 718.27,-39.81"/>
<polygon fill="black" stroke="black" points="720.07,-42.82 727.07,-34.86 716.64,-36.72 720.07,-42.82"/>
<text text-anchor="middle" x="704.74" y="-57.8" font-family="Times New Roman,serif" font-size="14.00">0.044</text>
</g>
<!-- 5 -->
<g id="node6" class="node">
<title>5</title>
<g id="a_node6"><a xlink:href="to_electrical engineer.svg" xlink:title="electrical engineer">
<ellipse fill="none" stroke="black" cx="755.24" cy="-105" rx="74.99" ry="18"/>
<text text-anchor="middle" x="755.24" y="-101.3" font-family="Times New Roman,serif" font-size="14.00">electrical engineer</text>
</a>
</g>
</g>
<!-- 5&#45;&gt;0 -->
<g id="edge6" class="edge">
<title>5&#45;&gt;0</title>
<path fill="none" stroke="black" d="M755.24,-86.8C755.24,-75.16 755.24,-59.55 755.24,-46.24"/>
<polygon fill="black" stroke="black" points="758.74,-46.18 755.24,-36.18 751.74,-46.18 758.74,-46.18"/>
<text text-anchor="middle" x="770.74" y="-57.8" font-family="Times New Roman,serif" font-size="14.00">0.037</text>
</g>
<!-- 6 -->
<g id="node7" class="node">
<title>6</title>
<g id="a_node7"><a xlink:href="to_network administrator.svg" xlink:title="network administrator">
<ellipse fill="none" stroke="black" cx="937.24" cy="-105" rx="89.88" ry="18"/>
<text text-anchor="middle" x="937.24" y="-101.3" font-family="Times New Roman,serif" font-size="14.00">network administrator</text>
</a>
</g>
</g>
<!-- 6&#45;&gt;0 -->
<g id="edge7" class="edge">
<title>6&#45;&gt;0</title>
<path fill="none" stroke="black" d="M903.44,-88.21C873.5,-74.23 829.66,-53.76 797.43,-38.71"/>
<polygon fill="black" stroke="black" points="798.79,-35.48 788.25,-34.42 795.83,-41.82 798.79,-35.48"/>
<text text-anchor="middle" x="872.74" y="-57.8" font-family="Times New Roman,serif" font-size="14.00">0.027</text>
</g>
<!-- 7 -->
<g id="node8" class="node">
<title>7</title>
<g id="a_node8"><a xlink:href="to_software developer.svg" xlink:title="software developer">
<ellipse fill="none" stroke="black" cx="1125.24" cy="-105" rx="79.89" ry="18"/>
<text text-anchor="middle" x="1125.24" y="-101.3" font-family="Times New Roman,serif" font-size="14.00">software developer</text>
</a>
</g>
</g>
<!-- 7&#45;&gt;0 -->
<g id="edge8" class="edge">
<title>7&#45;&gt;0</title>
<path fill="none" stroke="black" d="M1071.44,-91.64C1004.2,-76.19 889.31,-49.8 818.09,-33.44"/>
<polygon fill="black" stroke="black" points="818.44,-29.93 807.91,-31.1 816.87,-36.75 818.44,-29.93"/>
<text text-anchor="middle" x="977.74" y="-57.8" font-family="Times New Roman,serif" font-size="14.00">0.027</text>
</g>
<!-- 8 -->
<g id="node9" class="node">
<title>8</title>
<g id="a_node9"><a xlink:href="to_lecturer.svg" xlink:title="lecturer">
<ellipse fill="none" stroke="black" cx="1261.24" cy="-105" rx="37.89" ry="18"/>
<text text-anchor="middle" x="1261.24" y="-101.3" font-family="Times New Roman,serif" font-size="14.00">lecturer</text>
</a>
</g>
</g>
<!-- 8&#45;&gt;0 -->
<g id="edge9" class="edge">
<title>8&#45;&gt;0</title>
<path fill="none" stroke="black" d="M1233.19,-92.84C1227.02,-90.67 1220.46,-88.58 1214.24,-87 1084.06,-53.9 928.72,-35.07 836.24,-25.96"/>
<polygon fill="black" stroke="black" points="836.4,-22.46 826.11,-24.98 835.72,-29.43 836.4,-22.46"/>
<text text-anchor="middle" x="1142.74" y="-57.8" font-family="Times New Roman,serif" font-size="14.00">0.019</text>
</g>
<!-- 9 -->
<g id="node10" class="node">
<title>9</title>
<g id="a_node10"><a xlink:href="to_research scientist.svg" xlink:title="research scientist">
<ellipse fill="none" stroke="black" cx="1389.24" cy="-105" rx="72.59" ry="18"/>
<text text-anchor="middle" x="1389.24" y="-101.3" font-family="Times New Roman,serif" font-size="14.00">research scientist</text>
</a>
</g>
</g>
<!-- 9&#45;&gt;0 -->
<g id="edge10" class="edge">
<title>9&#45;&gt;0</title>
<path fill="none" stroke="black" d="M1340.88,-91.42C1295.16,-79.98 1224.48,-63.49 1162.24,-54 1051.53,-37.12 922.54,-27.75 839.94,-23.04"/>
<polygon fill="black" stroke="black" points="840.04,-19.54 829.86,-22.48 839.64,-26.53 840.04,-19.54"/>
<text text-anchor="middle" x="1252.74" y="-57.8" font-family="Times New Roman,serif" font-size="14.00">0.019</text>
</g>
</g>
</svg>
