<?xml version="1.0" encoding="UTF-8" standalone="no"?>
<!DOCTYPE svg PUBLIC "-//W3C//DTD SVG 1.1//EN"
 "http://www.w3.org/Graphics/SVG/1.1/DTD/svg11.dtd">
<!-- Generated by graphviz version 2.44.1 (20200629.0800)
 -->
<!-- Title: site_manager Pages: 1 -->
<svg width="1503pt" height="131pt"
 viewBox="0.00 0.00 1503.34 131.00" xmlns="http://www.w3.org/2000/svg" xmlns:xlink="http://www.w3.org/1999/xlink">
<g id="graph0" class="graph" transform="scale(1 1) rotate(0) translate(4 127)">
<title>site_manager</title>
<polygon fill="white" stroke="transparent" points="-4,4 -4,-127 1499.34,-127 1499.34,4 -4,4"/>
<!-- 0 -->
<g id="node1" class="node">
<title>0</title>
<g id="a_node1"><a xlink:href="to_site manager.svg" xlink:title="site manager">
<ellipse fill="none" stroke="black" cx="787.89" cy="-18" rx="55.79" ry="18"/>
<text text-anchor="middle" x="787.89" y="-14.3" font-family="Times New Roman,serif" font-size="14.00">site manager</text>
</a>
</g>
</g>
<!-- 0&#45;&gt;0 -->
<g id="edge1" class="edge">
<title>0&#45;&gt;0</title>
<path fill="none" stroke="black" d="M838.32,-25.81C851.67,-25.36 861.79,-22.76 861.79,-18 861.79,-14.54 856.45,-12.22 848.41,-11.04"/>
<polygon fill="black" stroke="black" points="848.58,-7.55 838.32,-10.19 847.99,-14.52 848.58,-7.55"/>
<text text-anchor="middle" x="877.29" y="-14.3" font-family="Times New Roman,serif" font-size="14.00">0.126</text>
</g>
<!-- 1 -->
<g id="node2" class="node">
<title>1</title>
<g id="a_node2"><a xlink:href="to_project manager.svg" xlink:title="project manager">
<ellipse fill="none" stroke="black" cx="68.89" cy="-105" rx="68.79" ry="18"/>
<text text-anchor="middle" x="68.89" y="-101.3" font-family="Times New Roman,serif" font-size="14.00">project manager</text>
</a>
</g>
</g>
<!-- 1&#45;&gt;0 -->
<g id="edge2" class="edge">
<title>1&#45;&gt;0</title>
<path fill="none" stroke="black" d="M118.7,-92.44C128.04,-90.48 137.74,-88.57 146.89,-87 356.22,-51.18 607.45,-31.1 723.42,-23.11"/>
<polygon fill="black" stroke="black" points="723.81,-26.59 733.55,-22.42 723.33,-19.6 723.81,-26.59"/>
<text text-anchor="middle" x="388.39" y="-57.8" font-family="Times New Roman,serif" font-size="14.00">0.08</text>
</g>
<!-- 2 -->
<g id="node3" class="node">
<title>2</title>
<g id="a_node3"><a xlink:href="to_software developer.svg" xlink:title="software developer">
<ellipse fill="none" stroke="black" cx="235.89" cy="-105" rx="79.89" ry="18"/>
<text text-anchor="middle" x="235.89" y="-101.3" font-family="Times New Roman,serif" font-size="14.00">software developer</text>
</a>
</g>
</g>
<!-- 2&#45;&gt;0 -->
<g id="edge3" class="edge">
<title>2&#45;&gt;0</title>
<path fill="none" stroke="black" d="M293.76,-92.57C304.11,-90.64 314.81,-88.7 324.89,-87 468.61,-62.73 638.27,-39.08 726.94,-27.1"/>
<polygon fill="black" stroke="black" points="727.64,-30.54 737.08,-25.74 726.71,-23.6 727.64,-30.54"/>
<text text-anchor="middle" x="540.39" y="-57.8" font-family="Times New Roman,serif" font-size="14.00">0.07</text>
</g>
<!-- 3 -->
<g id="node4" class="node">
<title>3</title>
<g id="a_node4"><a xlink:href="to_pharmacovigilance officer.svg" xlink:title="pharmacovigilance officer">
<ellipse fill="none" stroke="black" cx="438.89" cy="-105" rx="104.78" ry="18"/>
<text text-anchor="middle" x="438.89" y="-101.3" font-family="Times New Roman,serif" font-size="14.00">pharmacovigilance officer</text>
</a>
</g>
</g>
<!-- 3&#45;&gt;0 -->
<g id="edge4" class="edge">
<title>3&#45;&gt;0</title>
<path fill="none" stroke="black" d="M496.52,-89.96C562.77,-73.83 670.62,-47.56 734.87,-31.91"/>
<polygon fill="black" stroke="black" points="735.9,-35.26 744.79,-29.5 734.25,-28.46 735.9,-35.26"/>
<text text-anchor="middle" x="650.39" y="-57.8" font-family="Times New Roman,serif" font-size="14.00">0.036</text>
</g>
<!-- 4 -->
<g id="node5" class="node">
<title>4</title>
<g id="a_node5"><a xlink:href="to_financial manager.svg" xlink:title="financial manager">
<ellipse fill="none" stroke="black" cx="634.89" cy="-105" rx="73.39" ry="18"/>
<text text-anchor="middle" x="634.89" y="-101.3" font-family="Times New Roman,serif" font-size="14.00">financial manager</text>
</a>
</g>
</g>
<!-- 4&#45;&gt;0 -->
<g id="edge5" class="edge">
<title>4&#45;&gt;0</title>
<path fill="none" stroke="black" d="M663.31,-88.21C688.47,-74.24 725.29,-53.78 752.38,-38.73"/>
<polygon fill="black" stroke="black" points="754.12,-41.77 761.16,-33.85 750.72,-35.65 754.12,-41.77"/>
<text text-anchor="middle" x="736.39" y="-57.8" font-family="Times New Roman,serif" font-size="14.00">0.033</text>
</g>
<!-- 5 -->
<g id="node6" class="node">
<title>5</title>
<g id="a_node6"><a xlink:href="to_sales manager.svg" xlink:title="sales manager">
<ellipse fill="none" stroke="black" cx="787.89" cy="-105" rx="61.19" ry="18"/>
<text text-anchor="middle" x="787.89" y="-101.3" font-family="Times New Roman,serif" font-size="14.00">sales manager</text>
</a>
</g>
</g>
<!-- 5&#45;&gt;0 -->
<g id="edge6" class="edge">
<title>5&#45;&gt;0</title>
<path fill="none" stroke="black" d="M787.89,-86.8C787.89,-75.16 787.89,-59.55 787.89,-46.24"/>
<polygon fill="black" stroke="black" points="791.39,-46.18 787.89,-36.18 784.39,-46.18 791.39,-46.18"/>
<text text-anchor="middle" x="803.39" y="-57.8" font-family="Times New Roman,serif" font-size="14.00">0.033</text>
</g>
<!-- 6 -->
<g id="node7" class="node">
<title>6</title>
<g id="a_node7"><a xlink:href="to_it consultant.svg" xlink:title="it consultant">
<ellipse fill="none" stroke="black" cx="921.89" cy="-105" rx="54.69" ry="18"/>
<text text-anchor="middle" x="921.89" y="-101.3" font-family="Times New Roman,serif" font-size="14.00">it consultant</text>
</a>
</g>
</g>
<!-- 6&#45;&gt;0 -->
<g id="edge7" class="edge">
<title>6&#45;&gt;0</title>
<path fill="none" stroke="black" d="M897.94,-88.8C876.44,-75.17 844.7,-55.03 820.82,-39.89"/>
<polygon fill="black" stroke="black" points="822.41,-36.75 812.09,-34.35 818.66,-42.66 822.41,-36.75"/>
<text text-anchor="middle" x="876.39" y="-57.8" font-family="Times New Roman,serif" font-size="14.00">0.03</text>
</g>
<!-- 7 -->
<g id="node8" class="node">
<title>7</title>
<g id="a_node8"><a xlink:href="to_production manager.svg" xlink:title="production manager">
<ellipse fill="none" stroke="black" cx="1077.89" cy="-105" rx="83.39" ry="18"/>
<text text-anchor="middle" x="1077.89" y="-101.3" font-family="Times New Roman,serif" font-size="14.00">production manager</text>
</a>
</g>
</g>
<!-- 7&#45;&gt;0 -->
<g id="edge8" class="edge">
<title>7&#45;&gt;0</title>
<path fill="none" stroke="black" d="M1030.65,-90.15C977.62,-74.61 891.93,-49.49 837.82,-33.63"/>
<polygon fill="black" stroke="black" points="838.68,-30.24 828.1,-30.78 836.71,-36.96 838.68,-30.24"/>
<text text-anchor="middle" x="966.39" y="-57.8" font-family="Times New Roman,serif" font-size="14.00">0.026</text>
</g>
<!-- 8 -->
<g id="node9" class="node">
<title>8</title>
<g id="a_node9"><a xlink:href="to_software architect.svg" xlink:title="software architect">
<ellipse fill="none" stroke="black" cx="1254.89" cy="-105" rx="75.29" ry="18"/>
<text text-anchor="middle" x="1254.89" y="-101.3" font-family="Times New Roman,serif" font-size="14.00">software architect</text>
</a>
</g>
</g>
<!-- 8&#45;&gt;0 -->
<g id="edge9" class="edge">
<title>8&#45;&gt;0</title>
<path fill="none" stroke="black" d="M1199.14,-92.68C1189.4,-90.75 1179.36,-88.79 1169.89,-87 1055.49,-65.3 921.4,-41.9 846.38,-28.99"/>
<polygon fill="black" stroke="black" points="846.65,-25.48 836.2,-27.24 845.46,-32.38 846.65,-25.48"/>
<text text-anchor="middle" x="1080.39" y="-57.8" font-family="Times New Roman,serif" font-size="14.00">0.023</text>
</g>
<!-- 9 -->
<g id="node10" class="node">
<title>9</title>
<g id="a_node10"><a xlink:href="to_building surveyor.svg" xlink:title="building surveyor">
<ellipse fill="none" stroke="black" cx="1421.89" cy="-105" rx="73.39" ry="18"/>
<text text-anchor="middle" x="1421.89" y="-101.3" font-family="Times New Roman,serif" font-size="14.00">building surveyor</text>
</a>
</g>
</g>
<!-- 9&#45;&gt;0 -->
<g id="edge10" class="edge">
<title>9&#45;&gt;0</title>
<path fill="none" stroke="black" d="M1368.41,-92.52C1358.61,-90.56 1348.46,-88.64 1338.89,-87 1163.23,-56.92 953.88,-34.82 851.14,-24.86"/>
<polygon fill="black" stroke="black" points="851.23,-21.35 840.94,-23.88 850.56,-28.32 851.23,-21.35"/>
<text text-anchor="middle" x="1233.39" y="-57.8" font-family="Times New Roman,serif" font-size="14.00">0.016</text>
</g>
</g>
</svg>
