<?xml version="1.0" encoding="UTF-8" standalone="no"?>
<!DOCTYPE svg PUBLIC "-//W3C//DTD SVG 1.1//EN"
 "http://www.w3.org/Graphics/SVG/1.1/DTD/svg11.dtd">
<!-- Generated by graphviz version 2.44.1 (20200629.0800)
 -->
<!-- Title: test Pages: 1 -->
<svg width="719pt" height="131pt"
 viewBox="0.00 0.00 719.49 131.00" xmlns="http://www.w3.org/2000/svg" xmlns:xlink="http://www.w3.org/1999/xlink">
<g id="graph0" class="graph" transform="scale(1 1) rotate(0) translate(4 127)">
<title>test</title>
<polygon fill="white" stroke="transparent" points="-4,4 -4,-127 715.49,-127 715.49,4 -4,4"/>
<!-- 0 -->
<g id="node1" class="node">
<title>0</title>
<g id="a_node1"><a xlink:href="to_database administrator.svg" xlink:title="database administrator">
<ellipse fill="none" stroke="black" cx="92.29" cy="-105" rx="92.08" ry="18"/>
<text text-anchor="middle" x="92.29" y="-101.3" font-family="Times New Roman,serif" font-size="14.00">database administrator</text>
</a>
</g>
</g>
<!-- 1 -->
<g id="node2" class="node">
<title>1</title>
<g id="a_node2"><a xlink:href="to_scene of crime officer.svg" xlink:title="scene of crime officer">
<ellipse fill="none" stroke="black" cx="372.29" cy="-18" rx="90.18" ry="18"/>
<text text-anchor="middle" x="372.29" y="-14.3" font-family="Times New Roman,serif" font-size="14.00">scene of crime officer</text>
</a>
</g>
</g>
<!-- 0&#45;&gt;1 -->
<g id="edge1" class="edge">
<title>0&#45;&gt;1</title>
<path fill="none" stroke="black" d="M140.11,-89.48C188.53,-74.78 263.44,-52.04 315.01,-36.39"/>
<polygon fill="black" stroke="black" points="316.12,-39.71 324.67,-33.46 314.09,-33.01 316.12,-39.71"/>
<text text-anchor="middle" x="258.29" y="-57.8" font-family="Times New Roman,serif" font-size="14.00">0.2</text>
</g>
<!-- 1&#45;&gt;1 -->
<g id="edge5" class="edge">
<title>1&#45;&gt;1</title>
<path fill="none" stroke="black" d="M454.49,-25.47C469.83,-24.55 480.63,-22.06 480.63,-18 480.63,-14.92 474.43,-12.75 464.75,-11.47"/>
<polygon fill="black" stroke="black" points="464.77,-7.96 454.49,-10.53 464.13,-14.93 464.77,-7.96"/>
<text text-anchor="middle" x="489.63" y="-14.3" font-family="Times New Roman,serif" font-size="14.00">0.2</text>
</g>
<!-- 2 -->
<g id="node3" class="node">
<title>2</title>
<g id="a_node3"><a xlink:href="to_forensic scientist.svg" xlink:title="forensic scientist">
<ellipse fill="none" stroke="black" cx="274.29" cy="-105" rx="71.49" ry="18"/>
<text text-anchor="middle" x="274.29" y="-101.3" font-family="Times New Roman,serif" font-size="14.00">forensic scientist</text>
</a>
</g>
</g>
<!-- 2&#45;&gt;1 -->
<g id="edge2" class="edge">
<title>2&#45;&gt;1</title>
<path fill="none" stroke="black" d="M293.19,-87.61C308,-74.76 328.82,-56.71 345.38,-42.34"/>
<polygon fill="black" stroke="black" points="347.86,-44.82 353.12,-35.63 343.27,-39.54 347.86,-44.82"/>
<text text-anchor="middle" x="338.29" y="-57.8" font-family="Times New Roman,serif" font-size="14.00">0.2</text>
</g>
<!-- 3 -->
<g id="node4" class="node">
<title>3</title>
<g id="a_node4"><a xlink:href="to_nature conservation officer.svg" xlink:title="nature conservation officer">
<ellipse fill="none" stroke="black" cx="471.29" cy="-105" rx="107.78" ry="18"/>
<text text-anchor="middle" x="471.29" y="-101.3" font-family="Times New Roman,serif" font-size="14.00">nature conservation officer</text>
</a>
</g>
</g>
<!-- 3&#45;&gt;1 -->
<g id="edge3" class="edge">
<title>3&#45;&gt;1</title>
<path fill="none" stroke="black" d="M451.73,-87.21C436.82,-74.4 416.09,-56.61 399.55,-42.4"/>
<polygon fill="black" stroke="black" points="401.68,-39.62 391.81,-35.76 397.12,-44.93 401.68,-39.62"/>
<text text-anchor="middle" x="437.29" y="-57.8" font-family="Times New Roman,serif" font-size="14.00">0.2</text>
</g>
<!-- 4 -->
<g id="node5" class="node">
<title>4</title>
<g id="a_node5"><a xlink:href="to_psychologist.svg" xlink:title="psychologist">
<ellipse fill="none" stroke="black" cx="654.29" cy="-105" rx="57.39" ry="18"/>
<text text-anchor="middle" x="654.29" y="-101.3" font-family="Times New Roman,serif" font-size="14.00">psychologist</text>
</a>
</g>
</g>
<!-- 4&#45;&gt;1 -->
<g id="edge4" class="edge">
<title>4&#45;&gt;1</title>
<path fill="none" stroke="black" d="M614.49,-92C566.22,-77.45 484.52,-52.83 429.51,-36.25"/>
<polygon fill="black" stroke="black" points="430.49,-32.89 419.9,-33.35 428.47,-39.59 430.49,-32.89"/>
<text text-anchor="middle" x="539.29" y="-57.8" font-family="Times New Roman,serif" font-size="14.00">0.2</text>
</g>
</g>
</svg>
