<?xml version="1.0" encoding="UTF-8" standalone="no"?>
<!DOCTYPE svg PUBLIC "-//W3C//DTD SVG 1.1//EN"
 "http://www.w3.org/Graphics/SVG/1.1/DTD/svg11.dtd">
<!-- Generated by graphviz version 2.44.1 (20200629.0800)
 -->
<!-- Title: systems_analyst Pages: 1 -->
<svg width="1464pt" height="131pt"
 viewBox="0.00 0.00 1463.79 131.00" xmlns="http://www.w3.org/2000/svg" xmlns:xlink="http://www.w3.org/1999/xlink">
<g id="graph0" class="graph" transform="scale(1 1) rotate(0) translate(4 127)">
<title>systems_analyst</title>
<polygon fill="white" stroke="transparent" points="-4,4 -4,-127 1459.79,-127 1459.79,4 -4,4"/>
<!-- 0 -->
<g id="node1" class="node">
<title>0</title>
<g id="a_node1"><a xlink:href="to_systems analyst.svg" xlink:title="systems analyst">
<ellipse fill="none" stroke="black" cx="656.8" cy="-18" rx="67.69" ry="18"/>
<text text-anchor="middle" x="656.8" y="-14.3" font-family="Times New Roman,serif" font-size="14.00">systems analyst</text>
</a>
</g>
</g>
<!-- 0&#45;&gt;0 -->
<g id="edge1" class="edge">
<title>0&#45;&gt;0</title>
<path fill="none" stroke="black" d="M717.96,-25.7C732.04,-25.04 742.39,-22.47 742.39,-18 742.39,-14.68 736.69,-12.41 728,-11.19"/>
<polygon fill="black" stroke="black" points="728.23,-7.7 717.96,-10.3 727.61,-14.67 728.23,-7.7"/>
<text text-anchor="middle" x="757.89" y="-14.3" font-family="Times New Roman,serif" font-size="14.00">0.125</text>
</g>
<!-- 1 -->
<g id="node2" class="node">
<title>1</title>
<g id="a_node2"><a xlink:href="to_qa analyst.svg" xlink:title="qa analyst">
<ellipse fill="none" stroke="black" cx="46.8" cy="-105" rx="46.59" ry="18"/>
<text text-anchor="middle" x="46.8" y="-101.3" font-family="Times New Roman,serif" font-size="14.00">qa analyst</text>
</a>
</g>
</g>
<!-- 1&#45;&gt;0 -->
<g id="edge2" class="edge">
<title>1&#45;&gt;0</title>
<path fill="none" stroke="black" d="M80.9,-92.56C87.77,-90.51 94.97,-88.54 101.8,-87 270.81,-48.84 473.95,-30.83 581.46,-23.43"/>
<polygon fill="black" stroke="black" points="581.82,-26.91 591.56,-22.75 581.34,-19.93 581.82,-26.91"/>
<text text-anchor="middle" x="299.3" y="-57.8" font-family="Times New Roman,serif" font-size="14.00">0.115</text>
</g>
<!-- 2 -->
<g id="node3" class="node">
<title>2</title>
<g id="a_node3"><a xlink:href="to_investment analyst.svg" xlink:title="investment analyst">
<ellipse fill="none" stroke="black" cx="187.8" cy="-105" rx="76.89" ry="18"/>
<text text-anchor="middle" x="187.8" y="-101.3" font-family="Times New Roman,serif" font-size="14.00">investment analyst</text>
</a>
</g>
</g>
<!-- 2&#45;&gt;0 -->
<g id="edge3" class="edge">
<title>2&#45;&gt;0</title>
<path fill="none" stroke="black" d="M244.02,-92.71C253.62,-90.79 263.49,-88.83 272.8,-87 348.31,-72.12 367.03,-67.55 442.8,-54 492.03,-45.2 547.79,-36.11 590.05,-29.39"/>
<polygon fill="black" stroke="black" points="590.62,-32.85 599.95,-27.83 589.52,-25.94 590.62,-32.85"/>
<text text-anchor="middle" x="458.3" y="-57.8" font-family="Times New Roman,serif" font-size="14.00">0.086</text>
</g>
<!-- 3 -->
<g id="node4" class="node">
<title>3</title>
<g id="a_node4"><a xlink:href="to_it consultant.svg" xlink:title="it consultant">
<ellipse fill="none" stroke="black" cx="336.8" cy="-105" rx="54.69" ry="18"/>
<text text-anchor="middle" x="336.8" y="-101.3" font-family="Times New Roman,serif" font-size="14.00">it consultant</text>
</a>
</g>
</g>
<!-- 3&#45;&gt;0 -->
<g id="edge4" class="edge">
<title>3&#45;&gt;0</title>
<path fill="none" stroke="black" d="M377.98,-93.06C434.7,-78 537.06,-50.8 600.73,-33.89"/>
<polygon fill="black" stroke="black" points="601.83,-37.22 610.6,-31.27 600.04,-30.46 601.83,-37.22"/>
<text text-anchor="middle" x="532.3" y="-57.8" font-family="Times New Roman,serif" font-size="14.00">0.048</text>
</g>
<!-- 4 -->
<g id="node5" class="node">
<title>4</title>
<g id="a_node5"><a xlink:href="to_software developer.svg" xlink:title="software developer">
<ellipse fill="none" stroke="black" cx="489.8" cy="-105" rx="79.89" ry="18"/>
<text text-anchor="middle" x="489.8" y="-101.3" font-family="Times New Roman,serif" font-size="14.00">software developer</text>
</a>
</g>
</g>
<!-- 4&#45;&gt;0 -->
<g id="edge5" class="edge">
<title>4&#45;&gt;0</title>
<path fill="none" stroke="black" d="M520.82,-88.21C548.14,-74.31 588.07,-53.98 617.59,-38.95"/>
<polygon fill="black" stroke="black" points="619.46,-41.93 626.79,-34.27 616.29,-35.69 619.46,-41.93"/>
<text text-anchor="middle" x="599.3" y="-57.8" font-family="Times New Roman,serif" font-size="14.00">0.048</text>
</g>
<!-- 5 -->
<g id="node6" class="node">
<title>5</title>
<g id="a_node6"><a xlink:href="to_project manager.svg" xlink:title="project manager">
<ellipse fill="none" stroke="black" cx="656.8" cy="-105" rx="68.79" ry="18"/>
<text text-anchor="middle" x="656.8" y="-101.3" font-family="Times New Roman,serif" font-size="14.00">project manager</text>
</a>
</g>
</g>
<!-- 5&#45;&gt;0 -->
<g id="edge6" class="edge">
<title>5&#45;&gt;0</title>
<path fill="none" stroke="black" d="M656.8,-86.8C656.8,-75.16 656.8,-59.55 656.8,-46.24"/>
<polygon fill="black" stroke="black" points="660.3,-46.18 656.8,-36.18 653.3,-46.18 660.3,-46.18"/>
<text text-anchor="middle" x="672.3" y="-57.8" font-family="Times New Roman,serif" font-size="14.00">0.041</text>
</g>
<!-- 6 -->
<g id="node7" class="node">
<title>6</title>
<g id="a_node7"><a xlink:href="to_network administrator.svg" xlink:title="network administrator">
<ellipse fill="none" stroke="black" cx="833.8" cy="-105" rx="89.88" ry="18"/>
<text text-anchor="middle" x="833.8" y="-101.3" font-family="Times New Roman,serif" font-size="14.00">network administrator</text>
</a>
</g>
</g>
<!-- 6&#45;&gt;0 -->
<g id="edge7" class="edge">
<title>6&#45;&gt;0</title>
<path fill="none" stroke="black" d="M800.92,-88.21C771.65,-74.16 728.74,-53.55 697.36,-38.48"/>
<polygon fill="black" stroke="black" points="698.54,-35.17 688.01,-33.99 695.51,-41.48 698.54,-35.17"/>
<text text-anchor="middle" x="772.3" y="-57.8" font-family="Times New Roman,serif" font-size="14.00">0.025</text>
</g>
<!-- 7 -->
<g id="node8" class="node">
<title>7</title>
<g id="a_node8"><a xlink:href="to_careers adviser.svg" xlink:title="careers adviser">
<ellipse fill="none" stroke="black" cx="1006.8" cy="-105" rx="64.99" ry="18"/>
<text text-anchor="middle" x="1006.8" y="-101.3" font-family="Times New Roman,serif" font-size="14.00">careers adviser</text>
</a>
</g>
</g>
<!-- 7&#45;&gt;0 -->
<g id="edge8" class="edge">
<title>7&#45;&gt;0</title>
<path fill="none" stroke="black" d="M959.59,-92.54C896.1,-77.12 783.27,-49.71 714.71,-33.07"/>
<polygon fill="black" stroke="black" points="715.47,-29.65 704.93,-30.69 713.82,-36.45 715.47,-29.65"/>
<text text-anchor="middle" x="868.3" y="-57.8" font-family="Times New Roman,serif" font-size="14.00">0.019</text>
</g>
<!-- 8 -->
<g id="node9" class="node">
<title>8</title>
<g id="a_node9"><a xlink:href="to_computer sales support.svg" xlink:title="computer sales support">
<ellipse fill="none" stroke="black" cx="1185.8" cy="-105" rx="96.38" ry="18"/>
<text text-anchor="middle" x="1185.8" y="-101.3" font-family="Times New Roman,serif" font-size="14.00">computer sales support</text>
</a>
</g>
</g>
<!-- 8&#45;&gt;0 -->
<g id="edge9" class="edge">
<title>8&#45;&gt;0</title>
<path fill="none" stroke="black" d="M1117.49,-92.22C1057.13,-81.89 966.67,-66.59 887.8,-54 833.06,-45.26 770.93,-35.88 724.9,-29.03"/>
<polygon fill="black" stroke="black" points="725.15,-25.53 714.74,-27.52 724.12,-32.45 725.15,-25.53"/>
<text text-anchor="middle" x="993.3" y="-57.8" font-family="Times New Roman,serif" font-size="14.00">0.019</text>
</g>
<!-- 9 -->
<g id="node10" class="node">
<title>9</title>
<g id="a_node10"><a xlink:href="to_materials specialist.svg" xlink:title="materials specialist">
<ellipse fill="none" stroke="black" cx="1377.8" cy="-105" rx="77.99" ry="18"/>
<text text-anchor="middle" x="1377.8" y="-101.3" font-family="Times New Roman,serif" font-size="14.00">materials specialist</text>
</a>
</g>
</g>
<!-- 9&#45;&gt;0 -->
<g id="edge10" class="edge">
<title>9&#45;&gt;0</title>
<path fill="none" stroke="black" d="M1321.74,-92.41C1311.47,-90.47 1300.83,-88.57 1290.8,-87 1089.42,-55.42 849.73,-34.09 731.03,-24.6"/>
<polygon fill="black" stroke="black" points="731.21,-21.1 720.96,-23.8 730.65,-28.08 731.21,-21.1"/>
<text text-anchor="middle" x="1167.3" y="-57.8" font-family="Times New Roman,serif" font-size="14.00">0.016</text>
</g>
</g>
</svg>
