<?xml version="1.0" encoding="UTF-8" standalone="no"?>
<!DOCTYPE svg PUBLIC "-//W3C//DTD SVG 1.1//EN"
 "http://www.w3.org/Graphics/SVG/1.1/DTD/svg11.dtd">
<!-- Generated by graphviz version 2.44.1 (20200629.0800)
 -->
<!-- Title: test Pages: 1 -->
<svg width="1652pt" height="131pt"
 viewBox="0.00 0.00 1651.84 131.00" xmlns="http://www.w3.org/2000/svg" xmlns:xlink="http://www.w3.org/1999/xlink">
<g id="graph0" class="graph" transform="scale(1 1) rotate(0) translate(4 127)">
<title>test</title>
<polygon fill="white" stroke="transparent" points="-4,4 -4,-127 1647.84,-127 1647.84,4 -4,4"/>
<!-- 0 -->
<g id="node1" class="node">
<title>0</title>
<g id="a_node1"><a xlink:href="to_retail buyer.svg" xlink:title="retail buyer">
<ellipse fill="none" stroke="black" cx="50.7" cy="-105" rx="50.89" ry="18"/>
<text text-anchor="middle" x="50.7" y="-101.3" font-family="Times New Roman,serif" font-size="14.00">retail buyer</text>
</a>
</g>
</g>
<!-- 1 -->
<g id="node2" class="node">
<title>1</title>
<g id="a_node2"><a xlink:href="to_tour operator.svg" xlink:title="tour operator">
<ellipse fill="none" stroke="black" cx="830.7" cy="-18" rx="58.49" ry="18"/>
<text text-anchor="middle" x="830.7" y="-14.3" font-family="Times New Roman,serif" font-size="14.00">tour operator</text>
</a>
</g>
</g>
<!-- 0&#45;&gt;1 -->
<g id="edge1" class="edge">
<title>0&#45;&gt;1</title>
<path fill="none" stroke="black" d="M87.94,-92.58C95.43,-90.53 103.28,-88.56 110.7,-87 346.4,-37.59 633.08,-24.05 762.04,-20.36"/>
<polygon fill="black" stroke="black" points="762.27,-23.86 772.17,-20.08 762.08,-16.86 762.27,-23.86"/>
<text text-anchor="middle" x="315.7" y="-57.8" font-family="Times New Roman,serif" font-size="14.00">0.1</text>
</g>
<!-- 2 -->
<g id="node3" class="node">
<title>2</title>
<g id="a_node3"><a xlink:href="to_academic librarian.svg" xlink:title="academic librarian">
<ellipse fill="none" stroke="black" cx="195.7" cy="-105" rx="76.09" ry="18"/>
<text text-anchor="middle" x="195.7" y="-101.3" font-family="Times New Roman,serif" font-size="14.00">academic librarian</text>
</a>
</g>
</g>
<!-- 2&#45;&gt;1 -->
<g id="edge2" class="edge">
<title>2&#45;&gt;1</title>
<path fill="none" stroke="black" d="M251.45,-92.7C261.19,-90.77 271.23,-88.8 280.7,-87 361.45,-71.6 381.26,-65.24 462.7,-54 567.59,-39.53 690.13,-29.17 764.01,-23.64"/>
<polygon fill="black" stroke="black" points="764.39,-27.12 774.1,-22.89 763.87,-20.14 764.39,-27.12"/>
<text text-anchor="middle" x="475.2" y="-57.8" font-family="Times New Roman,serif" font-size="14.00">0.05</text>
</g>
<!-- 3 -->
<g id="node4" class="node">
<title>3</title>
<g id="a_node4"><a xlink:href="to_aid worker.svg" xlink:title="aid worker">
<ellipse fill="none" stroke="black" cx="338.7" cy="-105" rx="49.29" ry="18"/>
<text text-anchor="middle" x="338.7" y="-101.3" font-family="Times New Roman,serif" font-size="14.00">aid worker</text>
</a>
</g>
</g>
<!-- 3&#45;&gt;1 -->
<g id="edge3" class="edge">
<title>3&#45;&gt;1</title>
<path fill="none" stroke="black" d="M374.71,-92.66C381.94,-90.6 389.53,-88.6 396.7,-87 526.86,-57.86 681.73,-36.8 766.8,-26.38"/>
<polygon fill="black" stroke="black" points="767.32,-29.84 776.82,-25.16 766.47,-22.89 767.32,-29.84"/>
<text text-anchor="middle" x="575.2" y="-57.8" font-family="Times New Roman,serif" font-size="14.00">0.05</text>
</g>
<!-- 4 -->
<g id="node5" class="node">
<title>4</title>
<g id="a_node5"><a xlink:href="to_broadcasting presenter.svg" xlink:title="broadcasting presenter">
<ellipse fill="none" stroke="black" cx="498.7" cy="-105" rx="92.88" ry="18"/>
<text text-anchor="middle" x="498.7" y="-101.3" font-family="Times New Roman,serif" font-size="14.00">broadcasting presenter</text>
</a>
</g>
</g>
<!-- 4&#45;&gt;1 -->
<g id="edge4" class="edge">
<title>4&#45;&gt;1</title>
<path fill="none" stroke="black" d="M552.41,-90.25C614.29,-74.4 715.38,-48.52 777.19,-32.7"/>
<polygon fill="black" stroke="black" points="778.31,-36.02 787.13,-30.15 776.57,-29.24 778.31,-36.02"/>
<text text-anchor="middle" x="697.2" y="-57.8" font-family="Times New Roman,serif" font-size="14.00">0.05</text>
</g>
<!-- 5 -->
<g id="node6" class="node">
<title>5</title>
<g id="a_node6"><a xlink:href="to_community education officer.svg" xlink:title="community education officer">
<ellipse fill="none" stroke="black" cx="724.7" cy="-105" rx="115.08" ry="18"/>
<text text-anchor="middle" x="724.7" y="-101.3" font-family="Times New Roman,serif" font-size="14.00">community education officer</text>
</a>
</g>
</g>
<!-- 5&#45;&gt;1 -->
<g id="edge5" class="edge">
<title>5&#45;&gt;1</title>
<path fill="none" stroke="black" d="M745.64,-87.21C761.96,-74.12 784.79,-55.81 802.68,-41.46"/>
<polygon fill="black" stroke="black" points="804.9,-44.17 810.52,-35.18 800.52,-38.71 804.9,-44.17"/>
<text text-anchor="middle" x="797.2" y="-57.8" font-family="Times New Roman,serif" font-size="14.00">0.05</text>
</g>
<!-- 6 -->
<g id="node7" class="node">
<title>6</title>
<g id="a_node7"><a xlink:href="to_community worker.svg" xlink:title="community worker">
<ellipse fill="none" stroke="black" cx="936.7" cy="-105" rx="79.09" ry="18"/>
<text text-anchor="middle" x="936.7" y="-101.3" font-family="Times New Roman,serif" font-size="14.00">community worker</text>
</a>
</g>
</g>
<!-- 6&#45;&gt;1 -->
<g id="edge6" class="edge">
<title>6&#45;&gt;1</title>
<path fill="none" stroke="black" d="M916.01,-87.41C899.6,-74.25 876.52,-55.74 858.5,-41.29"/>
<polygon fill="black" stroke="black" points="860.61,-38.5 850.61,-34.97 856.23,-43.96 860.61,-38.5"/>
<text text-anchor="middle" x="903.2" y="-57.8" font-family="Times New Roman,serif" font-size="14.00">0.05</text>
</g>
<!-- 7 -->
<g id="node8" class="node">
<title>7</title>
<g id="a_node8"><a xlink:href="to_engineering geologist.svg" xlink:title="engineering geologist">
<ellipse fill="none" stroke="black" cx="1120.7" cy="-105" rx="86.38" ry="18"/>
<text text-anchor="middle" x="1120.7" y="-101.3" font-family="Times New Roman,serif" font-size="14.00">engineering geologist</text>
</a>
</g>
</g>
<!-- 7&#45;&gt;1 -->
<g id="edge7" class="edge">
<title>7&#45;&gt;1</title>
<path fill="none" stroke="black" d="M1072.81,-89.96C1019.95,-74.47 935.23,-49.64 881.31,-33.84"/>
<polygon fill="black" stroke="black" points="882.2,-30.45 871.62,-30.99 880.23,-37.17 882.2,-30.45"/>
<text text-anchor="middle" x="1006.2" y="-57.8" font-family="Times New Roman,serif" font-size="14.00">0.05</text>
</g>
<!-- 8 -->
<g id="node9" class="node">
<title>8</title>
<g id="a_node9"><a xlink:href="to_financial manager.svg" xlink:title="financial manager">
<ellipse fill="none" stroke="black" cx="1298.7" cy="-105" rx="73.39" ry="18"/>
<text text-anchor="middle" x="1298.7" y="-101.3" font-family="Times New Roman,serif" font-size="14.00">financial manager</text>
</a>
</g>
</g>
<!-- 8&#45;&gt;1 -->
<g id="edge8" class="edge">
<title>8&#45;&gt;1</title>
<path fill="none" stroke="black" d="M1244.71,-92.72C1235.06,-90.77 1225.09,-88.79 1215.7,-87 1101.23,-65.17 967.15,-42.04 891.24,-29.17"/>
<polygon fill="black" stroke="black" points="891.36,-25.64 880.92,-27.42 890.19,-32.54 891.36,-25.64"/>
<text text-anchor="middle" x="1123.2" y="-57.8" font-family="Times New Roman,serif" font-size="14.00">0.05</text>
</g>
<!-- 9 -->
<g id="node10" class="node">
<title>9</title>
<g id="a_node10"><a xlink:href="to_firefighter.svg" xlink:title="firefighter">
<ellipse fill="none" stroke="black" cx="1435.7" cy="-105" rx="45.49" ry="18"/>
<text text-anchor="middle" x="1435.7" y="-101.3" font-family="Times New Roman,serif" font-size="14.00">firefighter</text>
</a>
</g>
</g>
<!-- 9&#45;&gt;1 -->
<g id="edge9" class="edge">
<title>9&#45;&gt;1</title>
<path fill="none" stroke="black" d="M1402.19,-92.69C1395.15,-90.58 1387.72,-88.56 1380.7,-87 1208.88,-48.95 1001.81,-30.56 897.58,-23.16"/>
<polygon fill="black" stroke="black" points="897.73,-19.66 887.51,-22.46 897.24,-26.64 897.73,-19.66"/>
<text text-anchor="middle" x="1288.2" y="-57.8" font-family="Times New Roman,serif" font-size="14.00">0.05</text>
</g>
<!-- 10 -->
<g id="node11" class="node">
<title>10</title>
<g id="a_node11"><a xlink:href="to_probation officer.svg" xlink:title="probation officer">
<ellipse fill="none" stroke="black" cx="1571.7" cy="-105" rx="72.29" ry="18"/>
<text text-anchor="middle" x="1571.7" y="-101.3" font-family="Times New Roman,serif" font-size="14.00">probation officer</text>
</a>
</g>
</g>
<!-- 10&#45;&gt;1 -->
<g id="edge10" class="edge">
<title>10&#45;&gt;1</title>
<path fill="none" stroke="black" d="M1518.37,-92.72C1508.83,-90.77 1498.97,-88.79 1489.7,-87 1407.69,-71.19 1387.56,-64.42 1304.7,-54 1160.68,-35.89 990.78,-26.14 898.57,-21.82"/>
<polygon fill="black" stroke="black" points="898.68,-18.32 888.53,-21.35 898.36,-25.31 898.68,-18.32"/>
<text text-anchor="middle" x="1409.2" y="-57.8" font-family="Times New Roman,serif" font-size="14.00">0.05</text>
</g>
</g>
</svg>
