<?xml version="1.0" encoding="UTF-8" standalone="no"?>
<!DOCTYPE svg PUBLIC "-//W3C//DTD SVG 1.1//EN"
 "http://www.w3.org/Graphics/SVG/1.1/DTD/svg11.dtd">
<!-- Generated by graphviz version 2.44.1 (20200629.0800)
 -->
<!-- Title: test Pages: 1 -->
<svg width="1572pt" height="131pt"
 viewBox="0.00 0.00 1571.58 131.00" xmlns="http://www.w3.org/2000/svg" xmlns:xlink="http://www.w3.org/1999/xlink">
<g id="graph0" class="graph" transform="scale(1 1) rotate(0) translate(4 127)">
<title>test</title>
<polygon fill="white" stroke="transparent" points="-4,4 -4,-127 1567.58,-127 1567.58,4 -4,4"/>
<!-- 0 -->
<g id="node1" class="node">
<title>0</title>
<g id="a_node1"><a xlink:href="to_software developer.svg" xlink:title="software developer">
<ellipse fill="none" stroke="black" cx="79.94" cy="-105" rx="79.89" ry="18"/>
<text text-anchor="middle" x="79.94" y="-101.3" font-family="Times New Roman,serif" font-size="14.00">software developer</text>
</a>
</g>
</g>
<!-- 1 -->
<g id="node2" class="node">
<title>1</title>
<g id="a_node2"><a xlink:href="to_technical author.svg" xlink:title="technical author">
<ellipse fill="none" stroke="black" cx="662.94" cy="-18" rx="67.69" ry="18"/>
<text text-anchor="middle" x="662.94" y="-14.3" font-family="Times New Roman,serif" font-size="14.00">technical author</text>
</a>
</g>
</g>
<!-- 0&#45;&gt;1 -->
<g id="edge1" class="edge">
<title>0&#45;&gt;1</title>
<path fill="none" stroke="black" d="M134.85,-91.91C186.73,-80.82 266.83,-64.57 336.94,-54 423.1,-41.02 522.77,-31.05 588.99,-25.13"/>
<polygon fill="black" stroke="black" points="589.67,-28.58 599.33,-24.21 589.06,-21.61 589.67,-28.58"/>
<text text-anchor="middle" x="352.44" y="-57.8" font-family="Times New Roman,serif" font-size="14.00">0.205</text>
</g>
<!-- 1&#45;&gt;1 -->
<g id="edge2" class="edge">
<title>1&#45;&gt;1</title>
<path fill="none" stroke="black" d="M724.11,-25.7C738.19,-25.04 748.54,-22.47 748.54,-18 748.54,-14.68 742.84,-12.41 734.14,-11.19"/>
<polygon fill="black" stroke="black" points="734.38,-7.7 724.11,-10.3 733.76,-14.67 734.38,-7.7"/>
<text text-anchor="middle" x="764.04" y="-14.3" font-family="Times New Roman,serif" font-size="14.00">0.108</text>
</g>
<!-- 2 -->
<g id="node3" class="node">
<title>2</title>
<g id="a_node3"><a xlink:href="to_it consultant.svg" xlink:title="it consultant">
<ellipse fill="none" stroke="black" cx="232.94" cy="-105" rx="54.69" ry="18"/>
<text text-anchor="middle" x="232.94" y="-101.3" font-family="Times New Roman,serif" font-size="14.00">it consultant</text>
</a>
</g>
</g>
<!-- 2&#45;&gt;1 -->
<g id="edge3" class="edge">
<title>2&#45;&gt;1</title>
<path fill="none" stroke="black" d="M273.54,-92.77C280.98,-90.79 288.68,-88.79 295.94,-87 360.95,-70.94 377.18,-66.6 442.94,-54 493.69,-44.28 551.38,-35.17 594.95,-28.69"/>
<polygon fill="black" stroke="black" points="595.49,-32.14 604.87,-27.22 594.46,-25.22 595.49,-32.14"/>
<text text-anchor="middle" x="458.44" y="-57.8" font-family="Times New Roman,serif" font-size="14.00">0.064</text>
</g>
<!-- 3 -->
<g id="node4" class="node">
<title>3</title>
<g id="a_node4"><a xlink:href="to_qa analyst.svg" xlink:title="qa analyst">
<ellipse fill="none" stroke="black" cx="351.94" cy="-105" rx="46.59" ry="18"/>
<text text-anchor="middle" x="351.94" y="-101.3" font-family="Times New Roman,serif" font-size="14.00">qa analyst</text>
</a>
</g>
</g>
<!-- 3&#45;&gt;1 -->
<g id="edge4" class="edge">
<title>3&#45;&gt;1</title>
<path fill="none" stroke="black" d="M387.14,-93.12C394.02,-91.04 401.2,-88.92 407.94,-87 475.69,-67.69 554.04,-47.05 605.82,-33.64"/>
<polygon fill="black" stroke="black" points="607.01,-36.95 615.81,-31.05 605.25,-30.17 607.01,-36.95"/>
<text text-anchor="middle" x="542.44" y="-57.8" font-family="Times New Roman,serif" font-size="14.00">0.043</text>
</g>
<!-- 4 -->
<g id="node5" class="node">
<title>4</title>
<g id="a_node5"><a xlink:href="to_electrical engineer.svg" xlink:title="electrical engineer">
<ellipse fill="none" stroke="black" cx="491.94" cy="-105" rx="74.99" ry="18"/>
<text text-anchor="middle" x="491.94" y="-101.3" font-family="Times New Roman,serif" font-size="14.00">electrical engineer</text>
</a>
</g>
</g>
<!-- 4&#45;&gt;1 -->
<g id="edge5" class="edge">
<title>4&#45;&gt;1</title>
<path fill="none" stroke="black" d="M522.91,-88.61C551.08,-74.6 592.81,-53.86 623.39,-38.66"/>
<polygon fill="black" stroke="black" points="625.1,-41.72 632.49,-34.14 621.98,-35.45 625.1,-41.72"/>
<text text-anchor="middle" x="603.44" y="-57.8" font-family="Times New Roman,serif" font-size="14.00">0.027</text>
</g>
<!-- 5 -->
<g id="node6" class="node">
<title>5</title>
<g id="a_node6"><a xlink:href="to_materials specialist.svg" xlink:title="materials specialist">
<ellipse fill="none" stroke="black" cx="662.94" cy="-105" rx="77.99" ry="18"/>
<text text-anchor="middle" x="662.94" y="-101.3" font-family="Times New Roman,serif" font-size="14.00">materials specialist</text>
</a>
</g>
</g>
<!-- 5&#45;&gt;1 -->
<g id="edge6" class="edge">
<title>5&#45;&gt;1</title>
<path fill="none" stroke="black" d="M662.94,-86.8C662.94,-75.16 662.94,-59.55 662.94,-46.24"/>
<polygon fill="black" stroke="black" points="666.44,-46.18 662.94,-36.18 659.44,-46.18 666.44,-46.18"/>
<text text-anchor="middle" x="678.44" y="-57.8" font-family="Times New Roman,serif" font-size="14.00">0.027</text>
</g>
<!-- 6 -->
<g id="node7" class="node">
<title>6</title>
<g id="a_node7"><a xlink:href="to_project manager.svg" xlink:title="project manager">
<ellipse fill="none" stroke="black" cx="827.94" cy="-105" rx="68.79" ry="18"/>
<text text-anchor="middle" x="827.94" y="-101.3" font-family="Times New Roman,serif" font-size="14.00">project manager</text>
</a>
</g>
</g>
<!-- 6&#45;&gt;1 -->
<g id="edge7" class="edge">
<title>6&#45;&gt;1</title>
<path fill="none" stroke="black" d="M798.06,-88.61C771.08,-74.71 731.21,-54.17 701.76,-39"/>
<polygon fill="black" stroke="black" points="703.09,-35.75 692.6,-34.28 699.89,-41.97 703.09,-35.75"/>
<text text-anchor="middle" x="771.44" y="-57.8" font-family="Times New Roman,serif" font-size="14.00">0.027</text>
</g>
<!-- 7 -->
<g id="node8" class="node">
<title>7</title>
<g id="a_node8"><a xlink:href="to_government research officer.svg" xlink:title="government research officer">
<ellipse fill="none" stroke="black" cx="1026.94" cy="-105" rx="112.38" ry="18"/>
<text text-anchor="middle" x="1026.94" y="-101.3" font-family="Times New Roman,serif" font-size="14.00">government research officer</text>
</a>
</g>
</g>
<!-- 7&#45;&gt;1 -->
<g id="edge8" class="edge">
<title>7&#45;&gt;1</title>
<path fill="none" stroke="black" d="M966.02,-89.77C898.16,-73.93 789.21,-48.48 722.08,-32.81"/>
<polygon fill="black" stroke="black" points="722.62,-29.34 712.08,-30.48 721.03,-36.16 722.62,-29.34"/>
<text text-anchor="middle" x="882.44" y="-57.8" font-family="Times New Roman,serif" font-size="14.00">0.021</text>
</g>
<!-- 8 -->
<g id="node9" class="node">
<title>8</title>
<g id="a_node9"><a xlink:href="to_network administrator.svg" xlink:title="network administrator">
<ellipse fill="none" stroke="black" cx="1246.94" cy="-105" rx="89.88" ry="18"/>
<text text-anchor="middle" x="1246.94" y="-101.3" font-family="Times New Roman,serif" font-size="14.00">network administrator</text>
</a>
</g>
</g>
<!-- 8&#45;&gt;1 -->
<g id="edge9" class="edge">
<title>8&#45;&gt;1</title>
<path fill="none" stroke="black" d="M1182.02,-92.56C1170.67,-90.64 1158.97,-88.72 1147.94,-87 1000.22,-63.97 826.6,-40.49 732.37,-28.05"/>
<polygon fill="black" stroke="black" points="732.76,-24.57 722.39,-26.74 731.84,-31.51 732.76,-24.57"/>
<text text-anchor="middle" x="1030.44" y="-57.8" font-family="Times New Roman,serif" font-size="14.00">0.021</text>
</g>
<!-- 9 -->
<g id="node10" class="node">
<title>9</title>
<g id="a_node10"><a xlink:href="to_pharmacovigilance officer.svg" xlink:title="pharmacovigilance officer">
<ellipse fill="none" stroke="black" cx="1458.94" cy="-105" rx="104.78" ry="18"/>
<text text-anchor="middle" x="1458.94" y="-101.3" font-family="Times New Roman,serif" font-size="14.00">pharmacovigilance officer</text>
</a>
</g>
</g>
<!-- 9&#45;&gt;1 -->
<g id="edge10" class="edge">
<title>9&#45;&gt;1</title>
<path fill="none" stroke="black" d="M1384.24,-92.35C1371.47,-90.48 1358.34,-88.62 1345.94,-87 1125,-58.08 862.42,-35.13 736.91,-24.85"/>
<polygon fill="black" stroke="black" points="736.9,-21.34 726.65,-24.02 736.34,-28.32 736.9,-21.34"/>
<text text-anchor="middle" x="1211.44" y="-57.8" font-family="Times New Roman,serif" font-size="14.00">0.021</text>
</g>
</g>
</svg>
