<?xml version="1.0" encoding="UTF-8" standalone="no"?>
<!DOCTYPE svg PUBLIC "-//W3C//DTD SVG 1.1//EN"
 "http://www.w3.org/Graphics/SVG/1.1/DTD/svg11.dtd">
<!-- Generated by graphviz version 2.44.1 (20200629.0800)
 -->
<!-- Title: test Pages: 1 -->
<svg width="1648pt" height="131pt"
 viewBox="0.00 0.00 1647.98 131.00" xmlns="http://www.w3.org/2000/svg" xmlns:xlink="http://www.w3.org/1999/xlink">
<g id="graph0" class="graph" transform="scale(1 1) rotate(0) translate(4 127)">
<title>test</title>
<polygon fill="white" stroke="transparent" points="-4,4 -4,-127 1643.98,-127 1643.98,4 -4,4"/>
<!-- 0 -->
<g id="node1" class="node">
<title>0</title>
<g id="a_node1"><a xlink:href="to_television production assistant.svg" xlink:title="television production assistant">
<ellipse fill="none" stroke="black" cx="866.19" cy="-18" rx="120.48" ry="18"/>
<text text-anchor="middle" x="866.19" y="-14.3" font-family="Times New Roman,serif" font-size="14.00">television production assistant</text>
</a>
</g>
</g>
<!-- 0&#45;&gt;0 -->
<g id="edge1" class="edge">
<title>0&#45;&gt;0</title>
<path fill="none" stroke="black" d="M976.55,-25.16C993.17,-24.06 1004.43,-21.67 1004.43,-18 1004.43,-15.13 997.56,-13.05 986.62,-11.75"/>
<polygon fill="black" stroke="black" points="986.82,-8.25 976.55,-10.84 986.19,-15.22 986.82,-8.25"/>
<text text-anchor="middle" x="1019.93" y="-14.3" font-family="Times New Roman,serif" font-size="14.00">0.153</text>
</g>
<!-- 1 -->
<g id="node2" class="node">
<title>1</title>
<g id="a_node2"><a xlink:href="to_production manager.svg" xlink:title="production manager">
<ellipse fill="none" stroke="black" cx="83.19" cy="-105" rx="83.39" ry="18"/>
<text text-anchor="middle" x="83.19" y="-101.3" font-family="Times New Roman,serif" font-size="14.00">production manager</text>
</a>
</g>
</g>
<!-- 1&#45;&gt;0 -->
<g id="edge2" class="edge">
<title>1&#45;&gt;0</title>
<path fill="none" stroke="black" d="M142.47,-92.33C153.33,-90.39 164.58,-88.53 175.19,-87 376.28,-58.1 612.08,-37.78 749.74,-27.27"/>
<polygon fill="black" stroke="black" points="750.18,-30.75 759.89,-26.5 749.65,-23.77 750.18,-30.75"/>
<text text-anchor="middle" x="456.69" y="-57.8" font-family="Times New Roman,serif" font-size="14.00">0.108</text>
</g>
<!-- 2 -->
<g id="node3" class="node">
<title>2</title>
<g id="a_node3"><a xlink:href="to_pharmacovigilance officer.svg" xlink:title="pharmacovigilance officer">
<ellipse fill="none" stroke="black" cx="289.19" cy="-105" rx="104.78" ry="18"/>
<text text-anchor="middle" x="289.19" y="-101.3" font-family="Times New Roman,serif" font-size="14.00">pharmacovigilance officer</text>
</a>
</g>
</g>
<!-- 2&#45;&gt;0 -->
<g id="edge3" class="edge">
<title>2&#45;&gt;0</title>
<path fill="none" stroke="black" d="M365.17,-92.53C377.54,-90.67 390.22,-88.78 402.19,-87 530.79,-67.9 679.49,-46.17 773.18,-32.52"/>
<polygon fill="black" stroke="black" points="773.81,-35.97 783.2,-31.07 772.8,-29.04 773.81,-35.97"/>
<text text-anchor="middle" x="634.69" y="-57.8" font-family="Times New Roman,serif" font-size="14.00">0.054</text>
</g>
<!-- 3 -->
<g id="node4" class="node">
<title>3</title>
<g id="a_node4"><a xlink:href="to_education administrator.svg" xlink:title="education administrator">
<ellipse fill="none" stroke="black" cx="507.19" cy="-105" rx="95.58" ry="18"/>
<text text-anchor="middle" x="507.19" y="-101.3" font-family="Times New Roman,serif" font-size="14.00">education administrator</text>
</a>
</g>
</g>
<!-- 3&#45;&gt;0 -->
<g id="edge4" class="edge">
<title>3&#45;&gt;0</title>
<path fill="none" stroke="black" d="M564.08,-90.53C626.64,-75.72 727.27,-51.89 795.02,-35.85"/>
<polygon fill="black" stroke="black" points="795.84,-39.25 804.77,-33.54 794.23,-32.44 795.84,-39.25"/>
<text text-anchor="middle" x="723.69" y="-57.8" font-family="Times New Roman,serif" font-size="14.00">0.027</text>
</g>
<!-- 4 -->
<g id="node5" class="node">
<title>4</title>
<g id="a_node5"><a xlink:href="to_marketing assistant.svg" xlink:title="marketing assistant">
<ellipse fill="none" stroke="black" cx="700.19" cy="-105" rx="79.09" ry="18"/>
<text text-anchor="middle" x="700.19" y="-101.3" font-family="Times New Roman,serif" font-size="14.00">marketing assistant</text>
</a>
</g>
</g>
<!-- 4&#45;&gt;0 -->
<g id="edge5" class="edge">
<title>4&#45;&gt;0</title>
<path fill="none" stroke="black" d="M731.03,-88.21C757.51,-74.65 795.9,-54.99 825.01,-40.09"/>
<polygon fill="black" stroke="black" points="826.8,-43.1 834.11,-35.43 823.61,-36.87 826.8,-43.1"/>
<text text-anchor="middle" x="808.69" y="-57.8" font-family="Times New Roman,serif" font-size="14.00">0.027</text>
</g>
<!-- 5 -->
<g id="node6" class="node">
<title>5</title>
<g id="a_node6"><a xlink:href="to_project manager.svg" xlink:title="project manager">
<ellipse fill="none" stroke="black" cx="866.19" cy="-105" rx="68.79" ry="18"/>
<text text-anchor="middle" x="866.19" y="-101.3" font-family="Times New Roman,serif" font-size="14.00">project manager</text>
</a>
</g>
</g>
<!-- 5&#45;&gt;0 -->
<g id="edge6" class="edge">
<title>5&#45;&gt;0</title>
<path fill="none" stroke="black" d="M866.19,-86.8C866.19,-75.16 866.19,-59.55 866.19,-46.24"/>
<polygon fill="black" stroke="black" points="869.69,-46.18 866.19,-36.18 862.69,-46.18 869.69,-46.18"/>
<text text-anchor="middle" x="881.69" y="-57.8" font-family="Times New Roman,serif" font-size="14.00">0.027</text>
</g>
<!-- 6 -->
<g id="node7" class="node">
<title>6</title>
<g id="a_node7"><a xlink:href="to_content manager.svg" xlink:title="content manager">
<ellipse fill="none" stroke="black" cx="1023.19" cy="-105" rx="70.39" ry="18"/>
<text text-anchor="middle" x="1023.19" y="-101.3" font-family="Times New Roman,serif" font-size="14.00">content manager</text>
</a>
</g>
</g>
<!-- 6&#45;&gt;0 -->
<g id="edge7" class="edge">
<title>6&#45;&gt;0</title>
<path fill="none" stroke="black" d="M994.4,-88.41C969.5,-74.93 933.28,-55.32 905.68,-40.38"/>
<polygon fill="black" stroke="black" points="907.14,-37.19 896.68,-35.51 903.81,-43.35 907.14,-37.19"/>
<text text-anchor="middle" x="969.69" y="-57.8" font-family="Times New Roman,serif" font-size="14.00">0.018</text>
</g>
<!-- 7 -->
<g id="node8" class="node">
<title>7</title>
<g id="a_node8"><a xlink:href="to_doctor.svg" xlink:title="doctor">
<ellipse fill="none" stroke="black" cx="1146.19" cy="-105" rx="35.19" ry="18"/>
<text text-anchor="middle" x="1146.19" y="-101.3" font-family="Times New Roman,serif" font-size="14.00">doctor</text>
</a>
</g>
</g>
<!-- 7&#45;&gt;0 -->
<g id="edge8" class="edge">
<title>7&#45;&gt;0</title>
<path fill="none" stroke="black" d="M1119.33,-93.21C1113.7,-91.06 1107.78,-88.89 1102.19,-87 1045.82,-67.92 980.77,-49.43 933.26,-36.56"/>
<polygon fill="black" stroke="black" points="933.96,-33.13 923.39,-33.9 932.14,-39.88 933.96,-33.13"/>
<text text-anchor="middle" x="1060.69" y="-57.8" font-family="Times New Roman,serif" font-size="14.00">0.018</text>
</g>
<!-- 8 -->
<g id="node9" class="node">
<title>8</title>
<g id="a_node9"><a xlink:href="to_government research officer.svg" xlink:title="government research officer">
<ellipse fill="none" stroke="black" cx="1312.19" cy="-105" rx="112.38" ry="18"/>
<text text-anchor="middle" x="1312.19" y="-101.3" font-family="Times New Roman,serif" font-size="14.00">government research officer</text>
</a>
</g>
</g>
<!-- 8&#45;&gt;0 -->
<g id="edge9" class="edge">
<title>8&#45;&gt;0</title>
<path fill="none" stroke="black" d="M1250.82,-89.89C1204.15,-79.38 1138.29,-65 1080.19,-54 1040.04,-46.39 995.46,-38.95 957.43,-32.89"/>
<polygon fill="black" stroke="black" points="957.83,-29.41 947.4,-31.3 956.73,-36.32 957.83,-29.41"/>
<text text-anchor="middle" x="1165.69" y="-57.8" font-family="Times New Roman,serif" font-size="14.00">0.018</text>
</g>
<!-- 9 -->
<g id="node10" class="node">
<title>9</title>
<g id="a_node10"><a xlink:href="to_human resources officer.svg" xlink:title="human resources officer">
<ellipse fill="none" stroke="black" cx="1541.19" cy="-105" rx="98.58" ry="18"/>
<text text-anchor="middle" x="1541.19" y="-101.3" font-family="Times New Roman,serif" font-size="14.00">human resources officer</text>
</a>
</g>
</g>
<!-- 9&#45;&gt;0 -->
<g id="edge10" class="edge">
<title>9&#45;&gt;0</title>
<path fill="none" stroke="black" d="M1469.77,-92.51C1457.58,-90.62 1445.03,-88.72 1433.19,-87 1323.15,-71.02 1295.58,-67.4 1185.19,-54 1114.2,-45.38 1034.21,-36.61 972.08,-30"/>
<polygon fill="black" stroke="black" points="972.19,-26.49 961.88,-28.92 971.45,-33.45 972.19,-26.49"/>
<text text-anchor="middle" x="1319.69" y="-57.8" font-family="Times New Roman,serif" font-size="14.00">0.018</text>
</g>
</g>
</svg>
