<?xml version="1.0" encoding="UTF-8" standalone="no"?>
<!DOCTYPE svg PUBLIC "-//W3C//DTD SVG 1.1//EN"
 "http://www.w3.org/Graphics/SVG/1.1/DTD/svg11.dtd">
<!-- Generated by graphviz version 2.44.1 (20200629.0800)
 -->
<!-- Title: translator Pages: 1 -->
<svg width="718pt" height="131pt"
 viewBox="0.00 0.00 718.14 131.00" xmlns="http://www.w3.org/2000/svg" xmlns:xlink="http://www.w3.org/1999/xlink">
<g id="graph0" class="graph" transform="scale(1 1) rotate(0) translate(4 127)">
<title>translator</title>
<polygon fill="white" stroke="transparent" points="-4,4 -4,-127 714.14,-127 714.14,4 -4,4"/>
<!-- 0 -->
<g id="node1" class="node">
<title>0</title>
<g id="a_node1"><a xlink:href="to_education administrator.svg" xlink:title="education administrator">
<ellipse fill="none" stroke="black" cx="95.54" cy="-105" rx="95.58" ry="18"/>
<text text-anchor="middle" x="95.54" y="-101.3" font-family="Times New Roman,serif" font-size="14.00">education administrator</text>
</a>
</g>
</g>
<!-- 1 -->
<g id="node2" class="node">
<title>1</title>
<g id="a_node2"><a xlink:href="to_translator.svg" xlink:title="translator">
<ellipse fill="none" stroke="black" cx="381.54" cy="-18" rx="44.39" ry="18"/>
<text text-anchor="middle" x="381.54" y="-14.3" font-family="Times New Roman,serif" font-size="14.00">translator</text>
</a>
</g>
</g>
<!-- 0&#45;&gt;1 -->
<g id="edge1" class="edge">
<title>0&#45;&gt;1</title>
<path fill="none" stroke="black" d="M144.38,-89.48C198.49,-73.4 284.97,-47.7 337.2,-32.18"/>
<polygon fill="black" stroke="black" points="338.27,-35.51 346.85,-29.31 336.27,-28.8 338.27,-35.51"/>
<text text-anchor="middle" x="265.54" y="-57.8" font-family="Times New Roman,serif" font-size="14.00">0.2</text>
</g>
<!-- 1&#45;&gt;1 -->
<g id="edge5" class="edge">
<title>1&#45;&gt;1</title>
<path fill="none" stroke="black" d="M421.32,-25.87C433.85,-25.75 443.74,-23.13 443.74,-18 443.74,-14.4 438.85,-12.03 431.59,-10.9"/>
<polygon fill="black" stroke="black" points="431.55,-7.39 421.32,-10.13 431.03,-14.37 431.55,-7.39"/>
<text text-anchor="middle" x="452.74" y="-14.3" font-family="Times New Roman,serif" font-size="14.00">0.2</text>
</g>
<!-- 2 -->
<g id="node3" class="node">
<title>2</title>
<g id="a_node3"><a xlink:href="to_marketing executive.svg" xlink:title="marketing executive">
<ellipse fill="none" stroke="black" cx="290.54" cy="-105" rx="81.79" ry="18"/>
<text text-anchor="middle" x="290.54" y="-101.3" font-family="Times New Roman,serif" font-size="14.00">marketing executive</text>
</a>
</g>
</g>
<!-- 2&#45;&gt;1 -->
<g id="edge2" class="edge">
<title>2&#45;&gt;1</title>
<path fill="none" stroke="black" d="M308.52,-87.21C322.37,-74.27 341.67,-56.24 356.95,-41.97"/>
<polygon fill="black" stroke="black" points="359.6,-44.28 364.52,-34.9 354.83,-39.16 359.6,-44.28"/>
<text text-anchor="middle" x="350.54" y="-57.8" font-family="Times New Roman,serif" font-size="14.00">0.2</text>
</g>
<!-- 3 -->
<g id="node4" class="node">
<title>3</title>
<g id="a_node4"><a xlink:href="to_production manager.svg" xlink:title="production manager">
<ellipse fill="none" stroke="black" cx="473.54" cy="-105" rx="83.39" ry="18"/>
<text text-anchor="middle" x="473.54" y="-101.3" font-family="Times New Roman,serif" font-size="14.00">production manager</text>
</a>
</g>
</g>
<!-- 3&#45;&gt;1 -->
<g id="edge3" class="edge">
<title>3&#45;&gt;1</title>
<path fill="none" stroke="black" d="M455.37,-87.21C441.36,-74.27 421.85,-56.24 406.4,-41.97"/>
<polygon fill="black" stroke="black" points="408.47,-39.11 398.75,-34.9 403.72,-44.25 408.47,-39.11"/>
<text text-anchor="middle" x="442.54" y="-57.8" font-family="Times New Roman,serif" font-size="14.00">0.2</text>
</g>
<!-- 4 -->
<g id="node5" class="node">
<title>4</title>
<g id="a_node5"><a xlink:href="to_technical author.svg" xlink:title="technical author">
<ellipse fill="none" stroke="black" cx="642.54" cy="-105" rx="67.69" ry="18"/>
<text text-anchor="middle" x="642.54" y="-101.3" font-family="Times New Roman,serif" font-size="14.00">technical author</text>
</a>
</g>
</g>
<!-- 4&#45;&gt;1 -->
<g id="edge4" class="edge">
<title>4&#45;&gt;1</title>
<path fill="none" stroke="black" d="M601.47,-90.63C553.26,-74.92 473.66,-49 424.6,-33.02"/>
<polygon fill="black" stroke="black" points="425.51,-29.64 414.92,-29.87 423.34,-36.29 425.51,-29.64"/>
<text text-anchor="middle" x="536.54" y="-57.8" font-family="Times New Roman,serif" font-size="14.00">0.2</text>
</g>
</g>
</svg>
