<?xml version="1.0" encoding="UTF-8" standalone="no"?>
<!DOCTYPE svg PUBLIC "-//W3C//DTD SVG 1.1//EN"
 "http://www.w3.org/Graphics/SVG/1.1/DTD/svg11.dtd">
<!-- Generated by graphviz version 2.44.1 (20200629.0800)
 -->
<!-- Title: tourism_officer Pages: 1 -->
<svg width="1592pt" height="131pt"
 viewBox="0.00 0.00 1592.43 131.00" xmlns="http://www.w3.org/2000/svg" xmlns:xlink="http://www.w3.org/1999/xlink">
<g id="graph0" class="graph" transform="scale(1 1) rotate(0) translate(4 127)">
<title>tourism_officer</title>
<polygon fill="white" stroke="transparent" points="-4,4 -4,-127 1588.43,-127 1588.43,4 -4,4"/>
<!-- 0 -->
<g id="node1" class="node">
<title>0</title>
<g id="a_node1"><a xlink:href="to_tourism officer.svg" xlink:title="tourism officer">
<ellipse fill="none" stroke="black" cx="750.64" cy="-18" rx="64.19" ry="18"/>
<text text-anchor="middle" x="750.64" y="-14.3" font-family="Times New Roman,serif" font-size="14.00">tourism officer</text>
</a>
</g>
</g>
<!-- 0&#45;&gt;0 -->
<g id="edge1" class="edge">
<title>0&#45;&gt;0</title>
<path fill="none" stroke="black" d="M809.11,-25.72C822.85,-25.08 832.99,-22.51 832.99,-18 832.99,-14.69 827.52,-12.42 819.17,-11.2"/>
<polygon fill="black" stroke="black" points="819.39,-7.7 809.11,-10.28 818.75,-14.67 819.39,-7.7"/>
<text text-anchor="middle" x="848.49" y="-14.3" font-family="Times New Roman,serif" font-size="14.00">0.138</text>
</g>
<!-- 1 -->
<g id="node2" class="node">
<title>1</title>
<g id="a_node2"><a xlink:href="to_pharmacovigilance officer.svg" xlink:title="pharmacovigilance officer">
<ellipse fill="none" stroke="black" cx="104.64" cy="-105" rx="104.78" ry="18"/>
<text text-anchor="middle" x="104.64" y="-101.3" font-family="Times New Roman,serif" font-size="14.00">pharmacovigilance officer</text>
</a>
</g>
</g>
<!-- 1&#45;&gt;0 -->
<g id="edge2" class="edge">
<title>1&#45;&gt;0</title>
<path fill="none" stroke="black" d="M178.49,-92.15C246.1,-81.48 348.97,-65.74 438.64,-54 521.83,-43.11 617.78,-32.66 681.07,-26.06"/>
<polygon fill="black" stroke="black" points="681.75,-29.51 691.33,-25 681.02,-22.55 681.75,-29.51"/>
<text text-anchor="middle" x="454.14" y="-57.8" font-family="Times New Roman,serif" font-size="14.00">0.083</text>
</g>
<!-- 2 -->
<g id="node3" class="node">
<title>2</title>
<g id="a_node3"><a xlink:href="to_financial manager.svg" xlink:title="financial manager">
<ellipse fill="none" stroke="black" cx="300.64" cy="-105" rx="73.39" ry="18"/>
<text text-anchor="middle" x="300.64" y="-101.3" font-family="Times New Roman,serif" font-size="14.00">financial manager</text>
</a>
</g>
</g>
<!-- 2&#45;&gt;0 -->
<g id="edge3" class="edge">
<title>2&#45;&gt;0</title>
<path fill="none" stroke="black" d="M355.1,-92.78C364.61,-90.84 374.41,-88.85 383.64,-87 458.25,-72.03 476.83,-67.92 551.64,-54 596.75,-45.6 647.72,-36.65 686.78,-29.9"/>
<polygon fill="black" stroke="black" points="687.7,-33.29 696.96,-28.14 686.51,-26.4 687.7,-33.29"/>
<text text-anchor="middle" x="567.14" y="-57.8" font-family="Times New Roman,serif" font-size="14.00">0.055</text>
</g>
<!-- 3 -->
<g id="node4" class="node">
<title>3</title>
<g id="a_node4"><a xlink:href="to_barristers clerk.svg" xlink:title="barristers clerk">
<ellipse fill="none" stroke="black" cx="456.64" cy="-105" rx="64.19" ry="18"/>
<text text-anchor="middle" x="456.64" y="-101.3" font-family="Times New Roman,serif" font-size="14.00">barristers clerk</text>
</a>
</g>
</g>
<!-- 3&#45;&gt;0 -->
<g id="edge4" class="edge">
<title>3&#45;&gt;0</title>
<path fill="none" stroke="black" d="M499.71,-91.55C552.22,-76.37 640.95,-50.71 697.62,-34.33"/>
<polygon fill="black" stroke="black" points="698.83,-37.62 707.46,-31.48 696.88,-30.9 698.83,-37.62"/>
<text text-anchor="middle" x="637.14" y="-57.8" font-family="Times New Roman,serif" font-size="14.00">0.027</text>
</g>
<!-- 4 -->
<g id="node5" class="node">
<title>4</title>
<g id="a_node5"><a xlink:href="to_brand manager.svg" xlink:title="brand manager">
<ellipse fill="none" stroke="black" cx="603.64" cy="-105" rx="64.19" ry="18"/>
<text text-anchor="middle" x="603.64" y="-101.3" font-family="Times New Roman,serif" font-size="14.00">brand manager</text>
</a>
</g>
</g>
<!-- 4&#45;&gt;0 -->
<g id="edge5" class="edge">
<title>4&#45;&gt;0</title>
<path fill="none" stroke="black" d="M630.26,-88.61C653.94,-74.91 688.77,-54.77 714.88,-39.68"/>
<polygon fill="black" stroke="black" points="716.82,-42.6 723.72,-34.57 713.31,-36.54 716.82,-42.6"/>
<text text-anchor="middle" x="702.14" y="-57.8" font-family="Times New Roman,serif" font-size="14.00">0.027</text>
</g>
<!-- 5 -->
<g id="node6" class="node">
<title>5</title>
<g id="a_node6"><a xlink:href="to_careers adviser.svg" xlink:title="careers adviser">
<ellipse fill="none" stroke="black" cx="750.64" cy="-105" rx="64.99" ry="18"/>
<text text-anchor="middle" x="750.64" y="-101.3" font-family="Times New Roman,serif" font-size="14.00">careers adviser</text>
</a>
</g>
</g>
<!-- 5&#45;&gt;0 -->
<g id="edge6" class="edge">
<title>5&#45;&gt;0</title>
<path fill="none" stroke="black" d="M750.64,-86.8C750.64,-75.16 750.64,-59.55 750.64,-46.24"/>
<polygon fill="black" stroke="black" points="754.14,-46.18 750.64,-36.18 747.14,-46.18 754.14,-46.18"/>
<text text-anchor="middle" x="766.14" y="-57.8" font-family="Times New Roman,serif" font-size="14.00">0.027</text>
</g>
<!-- 6 -->
<g id="node7" class="node">
<title>6</title>
<g id="a_node7"><a xlink:href="to_civil engineer.svg" xlink:title="civil engineer">
<ellipse fill="none" stroke="black" cx="891.64" cy="-105" rx="57.69" ry="18"/>
<text text-anchor="middle" x="891.64" y="-101.3" font-family="Times New Roman,serif" font-size="14.00">civil engineer</text>
</a>
</g>
</g>
<!-- 6&#45;&gt;0 -->
<g id="edge7" class="edge">
<title>6&#45;&gt;0</title>
<path fill="none" stroke="black" d="M866.11,-88.61C843.49,-74.97 810.27,-54.95 785.27,-39.87"/>
<polygon fill="black" stroke="black" points="786.83,-36.73 776.46,-34.57 783.22,-42.73 786.83,-36.73"/>
<text text-anchor="middle" x="845.14" y="-57.8" font-family="Times New Roman,serif" font-size="14.00">0.027</text>
</g>
<!-- 7 -->
<g id="node8" class="node">
<title>7</title>
<g id="a_node8"><a xlink:href="to_computer sales support.svg" xlink:title="computer sales support">
<ellipse fill="none" stroke="black" cx="1063.64" cy="-105" rx="96.38" ry="18"/>
<text text-anchor="middle" x="1063.64" y="-101.3" font-family="Times New Roman,serif" font-size="14.00">computer sales support</text>
</a>
</g>
</g>
<!-- 7&#45;&gt;0 -->
<g id="edge8" class="edge">
<title>7&#45;&gt;0</title>
<path fill="none" stroke="black" d="M1011.25,-89.77C954,-74.23 862.73,-49.44 804.79,-33.71"/>
<polygon fill="black" stroke="black" points="805.65,-30.31 795.09,-31.07 803.82,-37.07 805.65,-30.31"/>
<text text-anchor="middle" x="942.14" y="-57.8" font-family="Times New Roman,serif" font-size="14.00">0.027</text>
</g>
<!-- 8 -->
<g id="node9" class="node">
<title>8</title>
<g id="a_node9"><a xlink:href="to_education administrator.svg" xlink:title="education administrator">
<ellipse fill="none" stroke="black" cx="1273.64" cy="-105" rx="95.58" ry="18"/>
<text text-anchor="middle" x="1273.64" y="-101.3" font-family="Times New Roman,serif" font-size="14.00">education administrator</text>
</a>
</g>
</g>
<!-- 8&#45;&gt;0 -->
<g id="edge9" class="edge">
<title>8&#45;&gt;0</title>
<path fill="none" stroke="black" d="M1203.92,-92.67C1101.99,-76.1 913.7,-45.5 814.94,-29.45"/>
<polygon fill="black" stroke="black" points="815.23,-25.95 804.79,-27.8 814.1,-32.86 815.23,-25.95"/>
<text text-anchor="middle" x="1059.14" y="-57.8" font-family="Times New Roman,serif" font-size="14.00">0.027</text>
</g>
<!-- 9 -->
<g id="node10" class="node">
<title>9</title>
<g id="a_node10"><a xlink:href="to_human resources officer.svg" xlink:title="human resources officer">
<ellipse fill="none" stroke="black" cx="1485.64" cy="-105" rx="98.58" ry="18"/>
<text text-anchor="middle" x="1485.64" y="-101.3" font-family="Times New Roman,serif" font-size="14.00">human resources officer</text>
</a>
</g>
</g>
<!-- 9&#45;&gt;0 -->
<g id="edge10" class="edge">
<title>9&#45;&gt;0</title>
<path fill="none" stroke="black" d="M1415.21,-92.32C1403.03,-90.44 1390.48,-88.59 1378.64,-87 1176.86,-59.89 937.48,-36.34 821.14,-25.44"/>
<polygon fill="black" stroke="black" points="821.23,-21.93 810.95,-24.49 820.58,-28.9 821.23,-21.93"/>
<text text-anchor="middle" x="1239.14" y="-57.8" font-family="Times New Roman,serif" font-size="14.00">0.027</text>
</g>
</g>
</svg>
