<?xml version="1.0" encoding="UTF-8" standalone="no"?>
<!DOCTYPE svg PUBLIC "-//W3C//DTD SVG 1.1//EN"
 "http://www.w3.org/Graphics/SVG/1.1/DTD/svg11.dtd">
<!-- Generated by graphviz version 2.44.1 (20200629.0800)
 -->
<!-- Title: test Pages: 1 -->
<svg width="1507pt" height="131pt"
 viewBox="0.00 0.00 1507.04 131.00" xmlns="http://www.w3.org/2000/svg" xmlns:xlink="http://www.w3.org/1999/xlink">
<g id="graph0" class="graph" transform="scale(1 1) rotate(0) translate(4 127)">
<title>test</title>
<polygon fill="white" stroke="transparent" points="-4,4 -4,-127 1503.04,-127 1503.04,4 -4,4"/>
<!-- 0 -->
<g id="node1" class="node">
<title>0</title>
<g id="a_node1"><a xlink:href="to_tourist information manager.svg" xlink:title="tourist information manager">
<ellipse fill="none" stroke="black" cx="699.6" cy="-18" rx="110.48" ry="18"/>
<text text-anchor="middle" x="699.6" y="-14.3" font-family="Times New Roman,serif" font-size="14.00">tourist information manager</text>
</a>
</g>
</g>
<!-- 0&#45;&gt;0 -->
<g id="edge1" class="edge">
<title>0&#45;&gt;0</title>
<path fill="none" stroke="black" d="M800.86,-25.25C817.02,-24.19 828.09,-21.77 828.09,-18 828.09,-15.08 821.47,-12.97 810.99,-11.68"/>
<polygon fill="black" stroke="black" points="811.14,-8.18 800.86,-10.75 810.5,-15.15 811.14,-8.18"/>
<text text-anchor="middle" x="843.59" y="-14.3" font-family="Times New Roman,serif" font-size="14.00">0.118</text>
</g>
<!-- 1 -->
<g id="node2" class="node">
<title>1</title>
<g id="a_node2"><a xlink:href="to_it consultant.svg" xlink:title="it consultant">
<ellipse fill="none" stroke="black" cx="54.6" cy="-105" rx="54.69" ry="18"/>
<text text-anchor="middle" x="54.6" y="-101.3" font-family="Times New Roman,serif" font-size="14.00">it consultant</text>
</a>
</g>
</g>
<!-- 1&#45;&gt;0 -->
<g id="edge2" class="edge">
<title>1&#45;&gt;0</title>
<path fill="none" stroke="black" d="M94.72,-92.64C102.6,-90.61 110.83,-88.63 118.6,-87 280.14,-53.19 470.72,-34.9 588.37,-26.06"/>
<polygon fill="black" stroke="black" points="588.76,-29.54 598.47,-25.31 588.24,-22.56 588.76,-29.54"/>
<text text-anchor="middle" x="325.1" y="-57.8" font-family="Times New Roman,serif" font-size="14.00">0.078</text>
</g>
<!-- 2 -->
<g id="node3" class="node">
<title>2</title>
<g id="a_node3"><a xlink:href="to_sales manager.svg" xlink:title="sales manager">
<ellipse fill="none" stroke="black" cx="188.6" cy="-105" rx="61.19" ry="18"/>
<text text-anchor="middle" x="188.6" y="-101.3" font-family="Times New Roman,serif" font-size="14.00">sales manager</text>
</a>
</g>
</g>
<!-- 2&#45;&gt;0 -->
<g id="edge3" class="edge">
<title>2&#45;&gt;0</title>
<path fill="none" stroke="black" d="M233.29,-92.6C241.67,-90.62 250.38,-88.66 258.6,-87 377.22,-62.99 515.3,-42.96 604.91,-30.99"/>
<polygon fill="black" stroke="black" points="605.6,-34.43 615.05,-29.65 604.67,-27.5 605.6,-34.43"/>
<text text-anchor="middle" x="455.1" y="-57.8" font-family="Times New Roman,serif" font-size="14.00">0.065</text>
</g>
<!-- 3 -->
<g id="node4" class="node">
<title>3</title>
<g id="a_node4"><a xlink:href="to_project manager.svg" xlink:title="project manager">
<ellipse fill="none" stroke="black" cx="336.6" cy="-105" rx="68.79" ry="18"/>
<text text-anchor="middle" x="336.6" y="-101.3" font-family="Times New Roman,serif" font-size="14.00">project manager</text>
</a>
</g>
</g>
<!-- 3&#45;&gt;0 -->
<g id="edge4" class="edge">
<title>3&#45;&gt;0</title>
<path fill="none" stroke="black" d="M386.31,-92.36C449.27,-77.62 558.13,-52.12 629.51,-35.41"/>
<polygon fill="black" stroke="black" points="630.38,-38.8 639.32,-33.11 628.79,-31.99 630.38,-38.8"/>
<text text-anchor="middle" x="556.1" y="-57.8" font-family="Times New Roman,serif" font-size="14.00">0.052</text>
</g>
<!-- 4 -->
<g id="node5" class="node">
<title>4</title>
<g id="a_node5"><a xlink:href="to_investment analyst.svg" xlink:title="investment analyst">
<ellipse fill="none" stroke="black" cx="500.6" cy="-105" rx="76.89" ry="18"/>
<text text-anchor="middle" x="500.6" y="-101.3" font-family="Times New Roman,serif" font-size="14.00">investment analyst</text>
</a>
</g>
</g>
<!-- 4&#45;&gt;0 -->
<g id="edge5" class="edge">
<title>4&#45;&gt;0</title>
<path fill="none" stroke="black" d="M536.17,-88.8C568.7,-74.91 617.05,-54.26 652.72,-39.02"/>
<polygon fill="black" stroke="black" points="654.14,-42.22 661.96,-35.08 651.39,-35.79 654.14,-42.22"/>
<text text-anchor="middle" x="628.1" y="-57.8" font-family="Times New Roman,serif" font-size="14.00">0.039</text>
</g>
<!-- 5 -->
<g id="node6" class="node">
<title>5</title>
<g id="a_node6"><a xlink:href="to_pharmacovigilance officer.svg" xlink:title="pharmacovigilance officer">
<ellipse fill="none" stroke="black" cx="699.6" cy="-105" rx="104.78" ry="18"/>
<text text-anchor="middle" x="699.6" y="-101.3" font-family="Times New Roman,serif" font-size="14.00">pharmacovigilance officer</text>
</a>
</g>
</g>
<!-- 5&#45;&gt;0 -->
<g id="edge6" class="edge">
<title>5&#45;&gt;0</title>
<path fill="none" stroke="black" d="M699.6,-86.8C699.6,-75.16 699.6,-59.55 699.6,-46.24"/>
<polygon fill="black" stroke="black" points="703.1,-46.18 699.6,-36.18 696.1,-46.18 703.1,-46.18"/>
<text text-anchor="middle" x="715.1" y="-57.8" font-family="Times New Roman,serif" font-size="14.00">0.039</text>
</g>
<!-- 6 -->
<g id="node7" class="node">
<title>6</title>
<g id="a_node7"><a xlink:href="to_planning technician.svg" xlink:title="planning technician">
<ellipse fill="none" stroke="black" cx="901.6" cy="-105" rx="79.09" ry="18"/>
<text text-anchor="middle" x="901.6" y="-101.3" font-family="Times New Roman,serif" font-size="14.00">planning technician</text>
</a>
</g>
</g>
<!-- 6&#45;&gt;0 -->
<g id="edge7" class="edge">
<title>6&#45;&gt;0</title>
<path fill="none" stroke="black" d="M865.48,-88.8C832.35,-74.86 783.08,-54.13 746.84,-38.88"/>
<polygon fill="black" stroke="black" points="748.03,-35.58 737.45,-34.93 745.31,-42.03 748.03,-35.58"/>
<text text-anchor="middle" x="829.1" y="-57.8" font-family="Times New Roman,serif" font-size="14.00">0.039</text>
</g>
<!-- 7 -->
<g id="node8" class="node">
<title>7</title>
<g id="a_node8"><a xlink:href="to_production manager.svg" xlink:title="production manager">
<ellipse fill="none" stroke="black" cx="1081.6" cy="-105" rx="83.39" ry="18"/>
<text text-anchor="middle" x="1081.6" y="-101.3" font-family="Times New Roman,serif" font-size="14.00">production manager</text>
</a>
</g>
</g>
<!-- 7&#45;&gt;0 -->
<g id="edge8" class="edge">
<title>7&#45;&gt;0</title>
<path fill="none" stroke="black" d="M1025.64,-91.55C958.54,-76.62 845.92,-51.56 772.19,-35.15"/>
<polygon fill="black" stroke="black" points="772.57,-31.65 762.05,-32.9 771.05,-38.49 772.57,-31.65"/>
<text text-anchor="middle" x="929.1" y="-57.8" font-family="Times New Roman,serif" font-size="14.00">0.039</text>
</g>
<!-- 8 -->
<g id="node9" class="node">
<title>8</title>
<g id="a_node9"><a xlink:href="to_academic librarian.svg" xlink:title="academic librarian">
<ellipse fill="none" stroke="black" cx="1258.6" cy="-105" rx="76.09" ry="18"/>
<text text-anchor="middle" x="1258.6" y="-101.3" font-family="Times New Roman,serif" font-size="14.00">academic librarian</text>
</a>
</g>
</g>
<!-- 8&#45;&gt;0 -->
<g id="edge9" class="edge">
<title>8&#45;&gt;0</title>
<path fill="none" stroke="black" d="M1203.35,-92.52C1193.46,-90.59 1183.23,-88.67 1173.6,-87 1042.46,-64.29 889.98,-43.39 794.13,-30.92"/>
<polygon fill="black" stroke="black" points="794.53,-27.44 784.17,-29.63 793.63,-34.38 794.53,-27.44"/>
<text text-anchor="middle" x="1072.1" y="-57.8" font-family="Times New Roman,serif" font-size="14.00">0.026</text>
</g>
<!-- 9 -->
<g id="node10" class="node">
<title>9</title>
<g id="a_node10"><a xlink:href="to_financial manager.svg" xlink:title="financial manager">
<ellipse fill="none" stroke="black" cx="1425.6" cy="-105" rx="73.39" ry="18"/>
<text text-anchor="middle" x="1425.6" y="-101.3" font-family="Times New Roman,serif" font-size="14.00">financial manager</text>
</a>
</g>
</g>
<!-- 9&#45;&gt;0 -->
<g id="edge10" class="edge">
<title>9&#45;&gt;0</title>
<path fill="none" stroke="black" d="M1372.77,-92.45C1363.09,-90.5 1353.06,-88.6 1343.6,-87 1157.54,-55.58 938.65,-36.13 809.94,-26.46"/>
<polygon fill="black" stroke="black" points="809.92,-22.95 799.69,-25.7 809.4,-29.93 809.92,-22.95"/>
<text text-anchor="middle" x="1236.1" y="-57.8" font-family="Times New Roman,serif" font-size="14.00">0.026</text>
</g>
</g>
</svg>
