<?xml version="1.0" encoding="UTF-8" standalone="no"?>
<!DOCTYPE svg PUBLIC "-//W3C//DTD SVG 1.1//EN"
 "http://www.w3.org/Graphics/SVG/1.1/DTD/svg11.dtd">
<!-- Generated by graphviz version 2.44.1 (20200629.0800)
 -->
<!-- Title: test Pages: 1 -->
<svg width="1428pt" height="131pt"
 viewBox="0.00 0.00 1428.13 131.00" xmlns="http://www.w3.org/2000/svg" xmlns:xlink="http://www.w3.org/1999/xlink">
<g id="graph0" class="graph" transform="scale(1 1) rotate(0) translate(4 127)">
<title>test</title>
<polygon fill="white" stroke="transparent" points="-4,4 -4,-127 1424.13,-127 1424.13,4 -4,4"/>
<!-- 0 -->
<g id="node1" class="node">
<title>0</title>
<g id="a_node1"><a xlink:href="to_armed forces officer.svg" xlink:title="armed forces officer">
<ellipse fill="none" stroke="black" cx="85.14" cy="-105" rx="85.29" ry="18"/>
<text text-anchor="middle" x="85.14" y="-101.3" font-family="Times New Roman,serif" font-size="14.00">armed forces officer</text>
</a>
</g>
</g>
<!-- 1 -->
<g id="node2" class="node">
<title>1</title>
<g id="a_node2"><a xlink:href="to_trader.svg" xlink:title="trader">
<ellipse fill="none" stroke="black" cx="626.14" cy="-18" rx="31.7" ry="18"/>
<text text-anchor="middle" x="626.14" y="-14.3" font-family="Times New Roman,serif" font-size="14.00">trader</text>
</a>
</g>
</g>
<!-- 0&#45;&gt;1 -->
<g id="edge1" class="edge">
<title>0&#45;&gt;1</title>
<path fill="none" stroke="black" d="M139.92,-91.19C188.6,-80.16 261.81,-64.4 326.14,-54 418,-39.14 526.66,-28.07 584.69,-22.67"/>
<polygon fill="black" stroke="black" points="585.28,-26.13 594.92,-21.73 584.64,-19.16 585.28,-26.13"/>
<text text-anchor="middle" x="341.64" y="-57.8" font-family="Times New Roman,serif" font-size="14.00">0.125</text>
</g>
<!-- 1&#45;&gt;1 -->
<g id="edge3" class="edge">
<title>1&#45;&gt;1</title>
<path fill="none" stroke="black" d="M654.83,-25.83C666.33,-26.27 675.99,-23.66 675.99,-18 675.99,-14.11 671.43,-11.66 664.83,-10.65"/>
<polygon fill="black" stroke="black" points="664.98,-7.16 654.83,-10.17 664.65,-14.15 664.98,-7.16"/>
<text text-anchor="middle" x="691.49" y="-14.3" font-family="Times New Roman,serif" font-size="14.00">0.083</text>
</g>
<!-- 2 -->
<g id="node3" class="node">
<title>2</title>
<g id="a_node3"><a xlink:href="to_stockbroker.svg" xlink:title="stockbroker">
<ellipse fill="none" stroke="black" cx="243.14" cy="-105" rx="54.69" ry="18"/>
<text text-anchor="middle" x="243.14" y="-101.3" font-family="Times New Roman,serif" font-size="14.00">stockbroker</text>
</a>
</g>
</g>
<!-- 2&#45;&gt;1 -->
<g id="edge2" class="edge">
<title>2&#45;&gt;1</title>
<path fill="none" stroke="black" d="M280.94,-91.96C316.38,-80.99 370.96,-64.88 419.14,-54 476.33,-41.08 543.39,-30.58 585.32,-24.56"/>
<polygon fill="black" stroke="black" points="586.02,-27.99 595.42,-23.12 585.03,-21.06 586.02,-27.99"/>
<text text-anchor="middle" x="434.64" y="-57.8" font-family="Times New Roman,serif" font-size="14.00">0.125</text>
</g>
<!-- 3 -->
<g id="node4" class="node">
<title>3</title>
<g id="a_node4"><a xlink:href="to_curator.svg" xlink:title="curator">
<ellipse fill="none" stroke="black" cx="352.14" cy="-105" rx="36.29" ry="18"/>
<text text-anchor="middle" x="352.14" y="-101.3" font-family="Times New Roman,serif" font-size="14.00">curator</text>
</a>
</g>
</g>
<!-- 3&#45;&gt;1 -->
<g id="edge4" class="edge">
<title>3&#45;&gt;1</title>
<path fill="none" stroke="black" d="M380.12,-93.07C385.73,-90.98 391.6,-88.87 397.14,-87 463.83,-64.54 542.71,-41.98 588.33,-29.32"/>
<polygon fill="black" stroke="black" points="589.38,-32.66 598.09,-26.62 587.52,-25.91 589.38,-32.66"/>
<text text-anchor="middle" x="513.64" y="-57.8" font-family="Times New Roman,serif" font-size="14.00">0.041</text>
</g>
<!-- 4 -->
<g id="node5" class="node">
<title>4</title>
<g id="a_node5"><a xlink:href="to_diplomatic service.svg" xlink:title="diplomatic service">
<ellipse fill="none" stroke="black" cx="483.14" cy="-105" rx="76.89" ry="18"/>
<text text-anchor="middle" x="483.14" y="-101.3" font-family="Times New Roman,serif" font-size="14.00">diplomatic service</text>
</a>
</g>
</g>
<!-- 4&#45;&gt;1 -->
<g id="edge5" class="edge">
<title>4&#45;&gt;1</title>
<path fill="none" stroke="black" d="M510.04,-88.01C534.54,-73.45 570.67,-51.97 596.11,-36.85"/>
<polygon fill="black" stroke="black" points="598.14,-39.71 604.95,-31.6 594.57,-33.7 598.14,-39.71"/>
<text text-anchor="middle" x="579.64" y="-57.8" font-family="Times New Roman,serif" font-size="14.00">0.041</text>
</g>
<!-- 5 -->
<g id="node6" class="node">
<title>5</title>
<g id="a_node6"><a xlink:href="to_economist.svg" xlink:title="economist">
<ellipse fill="none" stroke="black" cx="626.14" cy="-105" rx="48.19" ry="18"/>
<text text-anchor="middle" x="626.14" y="-101.3" font-family="Times New Roman,serif" font-size="14.00">economist</text>
</a>
</g>
</g>
<!-- 5&#45;&gt;1 -->
<g id="edge6" class="edge">
<title>5&#45;&gt;1</title>
<path fill="none" stroke="black" d="M626.14,-86.8C626.14,-75.16 626.14,-59.55 626.14,-46.24"/>
<polygon fill="black" stroke="black" points="629.64,-46.18 626.14,-36.18 622.64,-46.18 629.64,-46.18"/>
<text text-anchor="middle" x="641.64" y="-57.8" font-family="Times New Roman,serif" font-size="14.00">0.041</text>
</g>
<!-- 6 -->
<g id="node7" class="node">
<title>6</title>
<g id="a_node7"><a xlink:href="to_education administrator.svg" xlink:title="education administrator">
<ellipse fill="none" stroke="black" cx="788.14" cy="-105" rx="95.58" ry="18"/>
<text text-anchor="middle" x="788.14" y="-101.3" font-family="Times New Roman,serif" font-size="14.00">education administrator</text>
</a>
</g>
</g>
<!-- 6&#45;&gt;1 -->
<g id="edge7" class="edge">
<title>6&#45;&gt;1</title>
<path fill="none" stroke="black" d="M757.29,-87.81C728.92,-72.93 687.01,-50.94 658.25,-35.85"/>
<polygon fill="black" stroke="black" points="659.52,-32.56 649.04,-31.01 656.27,-38.76 659.52,-32.56"/>
<text text-anchor="middle" x="732.64" y="-57.8" font-family="Times New Roman,serif" font-size="14.00">0.041</text>
</g>
<!-- 7 -->
<g id="node8" class="node">
<title>7</title>
<g id="a_node8"><a xlink:href="to_government research officer.svg" xlink:title="government research officer">
<ellipse fill="none" stroke="black" cx="1014.14" cy="-105" rx="112.38" ry="18"/>
<text text-anchor="middle" x="1014.14" y="-101.3" font-family="Times New Roman,serif" font-size="14.00">government research officer</text>
</a>
</g>
</g>
<!-- 7&#45;&gt;1 -->
<g id="edge8" class="edge">
<title>7&#45;&gt;1</title>
<path fill="none" stroke="black" d="M950.51,-90.06C869.69,-72.36 732.71,-42.35 665.59,-27.64"/>
<polygon fill="black" stroke="black" points="665.95,-24.14 655.44,-25.42 664.46,-30.98 665.95,-24.14"/>
<text text-anchor="middle" x="859.64" y="-57.8" font-family="Times New Roman,serif" font-size="14.00">0.041</text>
</g>
<!-- 8 -->
<g id="node9" class="node">
<title>8</title>
<g id="a_node9"><a xlink:href="to_lecturer.svg" xlink:title="lecturer">
<ellipse fill="none" stroke="black" cx="1182.14" cy="-105" rx="37.89" ry="18"/>
<text text-anchor="middle" x="1182.14" y="-101.3" font-family="Times New Roman,serif" font-size="14.00">lecturer</text>
</a>
</g>
</g>
<!-- 8&#45;&gt;1 -->
<g id="edge9" class="edge">
<title>8&#45;&gt;1</title>
<path fill="none" stroke="black" d="M1154.11,-92.75C1147.94,-90.59 1141.38,-88.53 1135.14,-87 964.76,-45.32 755.61,-27.54 667.93,-21.54"/>
<polygon fill="black" stroke="black" points="668.07,-18.04 657.85,-20.87 667.6,-25.03 668.07,-18.04"/>
<text text-anchor="middle" x="1053.64" y="-57.8" font-family="Times New Roman,serif" font-size="14.00">0.041</text>
</g>
<!-- 9 -->
<g id="node10" class="node">
<title>9</title>
<g id="a_node10"><a xlink:href="to_leisure centre manager.svg" xlink:title="leisure centre manager">
<ellipse fill="none" stroke="black" cx="1329.14" cy="-105" rx="90.98" ry="18"/>
<text text-anchor="middle" x="1329.14" y="-101.3" font-family="Times New Roman,serif" font-size="14.00">leisure centre manager</text>
</a>
</g>
</g>
<!-- 9&#45;&gt;1 -->
<g id="edge10" class="edge">
<title>9&#45;&gt;1</title>
<path fill="none" stroke="black" d="M1272.26,-90.94C1220.59,-79.55 1142.13,-63.41 1073.14,-54 924.96,-33.8 747.43,-24.2 668.07,-20.68"/>
<polygon fill="black" stroke="black" points="668.12,-17.18 657.98,-20.24 667.82,-24.17 668.12,-17.18"/>
<text text-anchor="middle" x="1172.64" y="-57.8" font-family="Times New Roman,serif" font-size="14.00">0.041</text>
</g>
</g>
</svg>
