<?xml version="1.0" encoding="UTF-8" standalone="no"?>
<!DOCTYPE svg PUBLIC "-//W3C//DTD SVG 1.1//EN"
 "http://www.w3.org/Graphics/SVG/1.1/DTD/svg11.dtd">
<!-- Generated by graphviz version 2.44.1 (20200629.0800)
 -->
<!-- Title: test Pages: 1 -->
<svg width="1470pt" height="131pt"
 viewBox="0.00 0.00 1470.04 131.00" xmlns="http://www.w3.org/2000/svg" xmlns:xlink="http://www.w3.org/1999/xlink">
<g id="graph0" class="graph" transform="scale(1 1) rotate(0) translate(4 127)">
<title>test</title>
<polygon fill="white" stroke="transparent" points="-4,4 -4,-127 1466.04,-127 1466.04,4 -4,4"/>
<!-- 0 -->
<g id="node1" class="node">
<title>0</title>
<g id="a_node1"><a xlink:href="to_transportation planner.svg" xlink:title="transportation planner">
<ellipse fill="none" stroke="black" cx="687.6" cy="-18" rx="89.88" ry="18"/>
<text text-anchor="middle" x="687.6" y="-14.3" font-family="Times New Roman,serif" font-size="14.00">transportation planner</text>
</a>
</g>
</g>
<!-- 0&#45;&gt;0 -->
<g id="edge1" class="edge">
<title>0&#45;&gt;0</title>
<path fill="none" stroke="black" d="M769.3,-25.47C784.55,-24.55 795.29,-22.06 795.29,-18 795.29,-14.92 789.12,-12.75 779.5,-11.47"/>
<polygon fill="black" stroke="black" points="779.58,-7.97 769.3,-10.53 778.94,-14.94 779.58,-7.97"/>
<text text-anchor="middle" x="810.79" y="-14.3" font-family="Times New Roman,serif" font-size="14.00">0.152</text>
</g>
<!-- 1 -->
<g id="node2" class="node">
<title>1</title>
<g id="a_node2"><a xlink:href="to_it consultant.svg" xlink:title="it consultant">
<ellipse fill="none" stroke="black" cx="54.6" cy="-105" rx="54.69" ry="18"/>
<text text-anchor="middle" x="54.6" y="-101.3" font-family="Times New Roman,serif" font-size="14.00">it consultant</text>
</a>
</g>
</g>
<!-- 1&#45;&gt;0 -->
<g id="edge2" class="edge">
<title>1&#45;&gt;0</title>
<path fill="none" stroke="black" d="M94.71,-92.59C102.59,-90.56 110.82,-88.59 118.6,-87 284.15,-53.04 480.53,-34.21 593.94,-25.38"/>
<polygon fill="black" stroke="black" points="594.27,-28.86 603.97,-24.61 593.73,-21.89 594.27,-28.86"/>
<text text-anchor="middle" x="321.1" y="-57.8" font-family="Times New Roman,serif" font-size="14.00">0.086</text>
</g>
<!-- 2 -->
<g id="node3" class="node">
<title>2</title>
<g id="a_node3"><a xlink:href="to_catering manager.svg" xlink:title="catering manager">
<ellipse fill="none" stroke="black" cx="198.6" cy="-105" rx="71.49" ry="18"/>
<text text-anchor="middle" x="198.6" y="-101.3" font-family="Times New Roman,serif" font-size="14.00">catering manager</text>
</a>
</g>
</g>
<!-- 2&#45;&gt;0 -->
<g id="edge3" class="edge">
<title>2&#45;&gt;0</title>
<path fill="none" stroke="black" d="M251.04,-92.57C260.21,-90.65 269.67,-88.73 278.6,-87 392.57,-64.95 525.26,-43.69 607.85,-30.98"/>
<polygon fill="black" stroke="black" points="608.57,-34.41 617.92,-29.44 607.51,-27.5 608.57,-34.41"/>
<text text-anchor="middle" x="474.1" y="-57.8" font-family="Times New Roman,serif" font-size="14.00">0.065</text>
</g>
<!-- 3 -->
<g id="node4" class="node">
<title>3</title>
<g id="a_node4"><a xlink:href="to_project manager.svg" xlink:title="project manager">
<ellipse fill="none" stroke="black" cx="356.6" cy="-105" rx="68.79" ry="18"/>
<text text-anchor="middle" x="356.6" y="-101.3" font-family="Times New Roman,serif" font-size="14.00">project manager</text>
</a>
</g>
</g>
<!-- 3&#45;&gt;0 -->
<g id="edge4" class="edge">
<title>3&#45;&gt;0</title>
<path fill="none" stroke="black" d="M404.02,-91.82C462.05,-76.92 560.49,-51.64 624.78,-35.13"/>
<polygon fill="black" stroke="black" points="625.97,-38.44 634.79,-32.56 624.23,-31.66 625.97,-38.44"/>
<text text-anchor="middle" x="558.1" y="-57.8" font-family="Times New Roman,serif" font-size="14.00">0.065</text>
</g>
<!-- 4 -->
<g id="node5" class="node">
<title>4</title>
<g id="a_node5"><a xlink:href="to_heritage manager.svg" xlink:title="heritage manager">
<ellipse fill="none" stroke="black" cx="514.6" cy="-105" rx="71.49" ry="18"/>
<text text-anchor="middle" x="514.6" y="-101.3" font-family="Times New Roman,serif" font-size="14.00">heritage manager</text>
</a>
</g>
</g>
<!-- 4&#45;&gt;0 -->
<g id="edge5" class="edge">
<title>4&#45;&gt;0</title>
<path fill="none" stroke="black" d="M545.92,-88.61C573.99,-74.82 615.34,-54.5 646.13,-39.37"/>
<polygon fill="black" stroke="black" points="647.89,-42.41 655.33,-34.85 644.81,-36.12 647.89,-42.41"/>
<text text-anchor="middle" x="627.1" y="-57.8" font-family="Times New Roman,serif" font-size="14.00">0.043</text>
</g>
<!-- 5 -->
<g id="node6" class="node">
<title>5</title>
<g id="a_node6"><a xlink:href="to_production manager.svg" xlink:title="production manager">
<ellipse fill="none" stroke="black" cx="687.6" cy="-105" rx="83.39" ry="18"/>
<text text-anchor="middle" x="687.6" y="-101.3" font-family="Times New Roman,serif" font-size="14.00">production manager</text>
</a>
</g>
</g>
<!-- 5&#45;&gt;0 -->
<g id="edge6" class="edge">
<title>5&#45;&gt;0</title>
<path fill="none" stroke="black" d="M687.6,-86.8C687.6,-75.16 687.6,-59.55 687.6,-46.24"/>
<polygon fill="black" stroke="black" points="691.1,-46.18 687.6,-36.18 684.1,-46.18 691.1,-46.18"/>
<text text-anchor="middle" x="703.1" y="-57.8" font-family="Times New Roman,serif" font-size="14.00">0.043</text>
</g>
<!-- 6 -->
<g id="node7" class="node">
<title>6</title>
<g id="a_node7"><a xlink:href="to_structural engineer.svg" xlink:title="structural engineer">
<ellipse fill="none" stroke="black" cx="865.6" cy="-105" rx="76.89" ry="18"/>
<text text-anchor="middle" x="865.6" y="-101.3" font-family="Times New Roman,serif" font-size="14.00">structural engineer</text>
</a>
</g>
</g>
<!-- 6&#45;&gt;0 -->
<g id="edge7" class="edge">
<title>6&#45;&gt;0</title>
<path fill="none" stroke="black" d="M833.36,-88.61C804.36,-74.76 761.57,-54.33 729.84,-39.18"/>
<polygon fill="black" stroke="black" points="731.33,-36.01 720.8,-34.85 728.31,-42.32 731.33,-36.01"/>
<text text-anchor="middle" x="803.1" y="-57.8" font-family="Times New Roman,serif" font-size="14.00">0.043</text>
</g>
<!-- 7 -->
<g id="node8" class="node">
<title>7</title>
<g id="a_node8"><a xlink:href="to_academic librarian.svg" xlink:title="academic librarian">
<ellipse fill="none" stroke="black" cx="1036.6" cy="-105" rx="76.09" ry="18"/>
<text text-anchor="middle" x="1036.6" y="-101.3" font-family="Times New Roman,serif" font-size="14.00">academic librarian</text>
</a>
</g>
</g>
<!-- 7&#45;&gt;0 -->
<g id="edge8" class="edge">
<title>7&#45;&gt;0</title>
<path fill="none" stroke="black" d="M985.47,-91.55C923.7,-76.5 819.7,-51.18 752.38,-34.78"/>
<polygon fill="black" stroke="black" points="752.85,-31.29 742.31,-32.33 751.19,-38.09 752.85,-31.29"/>
<text text-anchor="middle" x="899.1" y="-57.8" font-family="Times New Roman,serif" font-size="14.00">0.021</text>
</g>
<!-- 8 -->
<g id="node9" class="node">
<title>8</title>
<g id="a_node9"><a xlink:href="to_automotive engineer.svg" xlink:title="automotive engineer">
<ellipse fill="none" stroke="black" cx="1213.6" cy="-105" rx="83.39" ry="18"/>
<text text-anchor="middle" x="1213.6" y="-101.3" font-family="Times New Roman,serif" font-size="14.00">automotive engineer</text>
</a>
</g>
</g>
<!-- 8&#45;&gt;0 -->
<g id="edge9" class="edge">
<title>8&#45;&gt;0</title>
<path fill="none" stroke="black" d="M1152.76,-92.57C1142.37,-90.67 1131.68,-88.75 1121.6,-87 998.54,-65.63 855.32,-43.77 768.09,-30.8"/>
<polygon fill="black" stroke="black" points="768.4,-27.31 758,-29.3 767.37,-34.23 768.4,-27.31"/>
<text text-anchor="middle" x="1017.1" y="-57.8" font-family="Times New Roman,serif" font-size="14.00">0.021</text>
</g>
<!-- 9 -->
<g id="node10" class="node">
<title>9</title>
<g id="a_node10"><a xlink:href="to_building surveyor.svg" xlink:title="building surveyor">
<ellipse fill="none" stroke="black" cx="1388.6" cy="-105" rx="73.39" ry="18"/>
<text text-anchor="middle" x="1388.6" y="-101.3" font-family="Times New Roman,serif" font-size="14.00">building surveyor</text>
</a>
</g>
</g>
<!-- 9&#45;&gt;0 -->
<g id="edge10" class="edge">
<title>9&#45;&gt;0</title>
<path fill="none" stroke="black" d="M1335.58,-92.48C1325.64,-90.51 1315.32,-88.59 1305.6,-87 1120.13,-56.68 901.09,-36.15 779.92,-26.12"/>
<polygon fill="black" stroke="black" points="780.19,-22.63 769.94,-25.29 779.62,-29.6 780.19,-22.63"/>
<text text-anchor="middle" x="1186.1" y="-57.8" font-family="Times New Roman,serif" font-size="14.00">0.021</text>
</g>
</g>
</svg>
