<?xml version="1.0" encoding="UTF-8" standalone="no"?>
<!DOCTYPE svg PUBLIC "-//W3C//DTD SVG 1.1//EN"
 "http://www.w3.org/Graphics/SVG/1.1/DTD/svg11.dtd">
<!-- Generated by graphviz version 2.44.1 (20200629.0800)
 -->
<!-- Title: test Pages: 1 -->
<svg width="1410pt" height="131pt"
 viewBox="0.00 0.00 1409.79 131.00" xmlns="http://www.w3.org/2000/svg" xmlns:xlink="http://www.w3.org/1999/xlink">
<g id="graph0" class="graph" transform="scale(1 1) rotate(0) translate(4 127)">
<title>test</title>
<polygon fill="white" stroke="transparent" points="-4,4 -4,-127 1405.79,-127 1405.79,4 -4,4"/>
<!-- 0 -->
<g id="node1" class="node">
<title>0</title>
<g id="a_node1"><a xlink:href="to_project manager.svg" xlink:title="project manager">
<ellipse fill="none" stroke="black" cx="68.89" cy="-105" rx="68.79" ry="18"/>
<text text-anchor="middle" x="68.89" y="-101.3" font-family="Times New Roman,serif" font-size="14.00">project manager</text>
</a>
</g>
</g>
<!-- 1 -->
<g id="node2" class="node">
<title>1</title>
<g id="a_node2"><a xlink:href="to_warehouse manager.svg" xlink:title="warehouse manager">
<ellipse fill="none" stroke="black" cx="723.89" cy="-18" rx="81.79" ry="18"/>
<text text-anchor="middle" x="723.89" y="-14.3" font-family="Times New Roman,serif" font-size="14.00">warehouse manager</text>
</a>
</g>
</g>
<!-- 0&#45;&gt;1 -->
<g id="edge1" class="edge">
<title>0&#45;&gt;1</title>
<path fill="none" stroke="black" d="M119.17,-92.68C128.38,-90.71 137.91,-88.74 146.89,-87 232.76,-70.35 254.17,-65.32 340.89,-54 442.12,-40.79 559.04,-30.87 636.8,-25.03"/>
<polygon fill="black" stroke="black" points="637.33,-28.5 647.04,-24.27 636.81,-21.52 637.33,-28.5"/>
<text text-anchor="middle" x="356.39" y="-57.8" font-family="Times New Roman,serif" font-size="14.00">0.090</text>
</g>
<!-- 1&#45;&gt;1 -->
<g id="edge4" class="edge">
<title>1&#45;&gt;1</title>
<path fill="none" stroke="black" d="M798.39,-25.55C813.21,-24.7 823.79,-22.18 823.79,-18 823.79,-14.86 817.84,-12.66 808.61,-11.4"/>
<polygon fill="black" stroke="black" points="808.67,-7.89 798.39,-10.45 808.02,-14.86 808.67,-7.89"/>
<text text-anchor="middle" x="839.29" y="-14.3" font-family="Times New Roman,serif" font-size="14.00">0.054</text>
</g>
<!-- 2 -->
<g id="node3" class="node">
<title>2</title>
<g id="a_node3"><a xlink:href="to_sales manager.svg" xlink:title="sales manager">
<ellipse fill="none" stroke="black" cx="216.89" cy="-105" rx="61.19" ry="18"/>
<text text-anchor="middle" x="216.89" y="-101.3" font-family="Times New Roman,serif" font-size="14.00">sales manager</text>
</a>
</g>
</g>
<!-- 2&#45;&gt;1 -->
<g id="edge2" class="edge">
<title>2&#45;&gt;1</title>
<path fill="none" stroke="black" d="M262,-92.67C270.26,-90.7 278.82,-88.73 286.89,-87 365.14,-70.22 384.88,-66.68 463.89,-54 524.08,-44.35 592.39,-35.22 643.89,-28.71"/>
<polygon fill="black" stroke="black" points="644.47,-32.16 653.96,-27.44 643.6,-25.22 644.47,-32.16"/>
<text text-anchor="middle" x="479.39" y="-57.8" font-family="Times New Roman,serif" font-size="14.00">0.081</text>
</g>
<!-- 3 -->
<g id="node4" class="node">
<title>3</title>
<g id="a_node4"><a xlink:href="to_it consultant.svg" xlink:title="it consultant">
<ellipse fill="none" stroke="black" cx="350.89" cy="-105" rx="54.69" ry="18"/>
<text text-anchor="middle" x="350.89" y="-101.3" font-family="Times New Roman,serif" font-size="14.00">it consultant</text>
</a>
</g>
</g>
<!-- 3&#45;&gt;1 -->
<g id="edge3" class="edge">
<title>3&#45;&gt;1</title>
<path fill="none" stroke="black" d="M391.15,-92.83C398.69,-90.83 406.52,-88.8 413.89,-87 496.96,-66.69 593.24,-46.02 656.19,-32.88"/>
<polygon fill="black" stroke="black" points="656.92,-36.3 666,-30.84 655.49,-29.45 656.92,-36.3"/>
<text text-anchor="middle" x="565.39" y="-57.8" font-family="Times New Roman,serif" font-size="14.00">0.054</text>
</g>
<!-- 4 -->
<g id="node5" class="node">
<title>4</title>
<g id="a_node5"><a xlink:href="to_pharmacovigilance officer.svg" xlink:title="pharmacovigilance officer">
<ellipse fill="none" stroke="black" cx="527.89" cy="-105" rx="104.78" ry="18"/>
<text text-anchor="middle" x="527.89" y="-101.3" font-family="Times New Roman,serif" font-size="14.00">pharmacovigilance officer</text>
</a>
</g>
</g>
<!-- 4&#45;&gt;1 -->
<g id="edge5" class="edge">
<title>4&#45;&gt;1</title>
<path fill="none" stroke="black" d="M564.76,-88.01C597.2,-73.95 644.51,-53.43 679.11,-38.42"/>
<polygon fill="black" stroke="black" points="680.73,-41.53 688.51,-34.34 677.95,-35.11 680.73,-41.53"/>
<text text-anchor="middle" x="653.39" y="-57.8" font-family="Times New Roman,serif" font-size="14.00">0.036</text>
</g>
<!-- 5 -->
<g id="node6" class="node">
<title>5</title>
<g id="a_node6"><a xlink:href="to_financial manager.svg" xlink:title="financial manager">
<ellipse fill="none" stroke="black" cx="723.89" cy="-105" rx="73.39" ry="18"/>
<text text-anchor="middle" x="723.89" y="-101.3" font-family="Times New Roman,serif" font-size="14.00">financial manager</text>
</a>
</g>
</g>
<!-- 5&#45;&gt;1 -->
<g id="edge6" class="edge">
<title>5&#45;&gt;1</title>
<path fill="none" stroke="black" d="M723.89,-86.8C723.89,-75.16 723.89,-59.55 723.89,-46.24"/>
<polygon fill="black" stroke="black" points="727.39,-46.18 723.89,-36.18 720.39,-46.18 727.39,-46.18"/>
<text text-anchor="middle" x="739.39" y="-57.8" font-family="Times New Roman,serif" font-size="14.00">0.027</text>
</g>
<!-- 6 -->
<g id="node7" class="node">
<title>6</title>
<g id="a_node7"><a xlink:href="to_facilities manager.svg" xlink:title="facilities manager">
<ellipse fill="none" stroke="black" cx="887.89" cy="-105" rx="72.59" ry="18"/>
<text text-anchor="middle" x="887.89" y="-101.3" font-family="Times New Roman,serif" font-size="14.00">facilities manager</text>
</a>
</g>
</g>
<!-- 6&#45;&gt;1 -->
<g id="edge7" class="edge">
<title>6&#45;&gt;1</title>
<path fill="none" stroke="black" d="M857.81,-88.41C831.28,-74.66 792.42,-54.52 763.39,-39.47"/>
<polygon fill="black" stroke="black" points="764.83,-36.27 754.34,-34.78 761.61,-42.49 764.83,-36.27"/>
<text text-anchor="middle" x="831.39" y="-57.8" font-family="Times New Roman,serif" font-size="14.00">0.022</text>
</g>
<!-- 7 -->
<g id="node8" class="node">
<title>7</title>
<g id="a_node8"><a xlink:href="to_logistics manager.svg" xlink:title="logistics manager">
<ellipse fill="none" stroke="black" cx="1051.89" cy="-105" rx="73.39" ry="18"/>
<text text-anchor="middle" x="1051.89" y="-101.3" font-family="Times New Roman,serif" font-size="14.00">logistics manager</text>
</a>
</g>
</g>
<!-- 7&#45;&gt;1 -->
<g id="edge8" class="edge">
<title>7&#45;&gt;1</title>
<path fill="none" stroke="black" d="M1003.5,-91.46C945.31,-76.38 847.62,-51.06 784.48,-34.7"/>
<polygon fill="black" stroke="black" points="785.21,-31.27 774.65,-32.15 783.45,-38.05 785.21,-31.27"/>
<text text-anchor="middle" x="923.39" y="-57.8" font-family="Times New Roman,serif" font-size="14.00">0.022</text>
</g>
<!-- 8 -->
<g id="node9" class="node">
<title>8</title>
<g id="a_node9"><a xlink:href="to_office manager.svg" xlink:title="office manager">
<ellipse fill="none" stroke="black" cx="1207.89" cy="-105" rx="64.19" ry="18"/>
<text text-anchor="middle" x="1207.89" y="-101.3" font-family="Times New Roman,serif" font-size="14.00">office manager</text>
</a>
</g>
</g>
<!-- 8&#45;&gt;1 -->
<g id="edge9" class="edge">
<title>8&#45;&gt;1</title>
<path fill="none" stroke="black" d="M1160.61,-92.73C1151.75,-90.74 1142.55,-88.74 1133.89,-87 1018.12,-63.72 882.79,-42.41 800.24,-30.07"/>
<polygon fill="black" stroke="black" points="800.59,-26.58 790.19,-28.57 799.56,-33.51 800.59,-26.58"/>
<text text-anchor="middle" x="1048.39" y="-57.8" font-family="Times New Roman,serif" font-size="14.00">0.022</text>
</g>
<!-- 9 -->
<g id="node10" class="node">
<title>9</title>
<g id="a_node10"><a xlink:href="to_site manager.svg" xlink:title="site manager">
<ellipse fill="none" stroke="black" cx="1345.89" cy="-105" rx="55.79" ry="18"/>
<text text-anchor="middle" x="1345.89" y="-101.3" font-family="Times New Roman,serif" font-size="14.00">site manager</text>
</a>
</g>
</g>
<!-- 9&#45;&gt;1 -->
<g id="edge10" class="edge">
<title>9&#45;&gt;1</title>
<path fill="none" stroke="black" d="M1305.13,-92.66C1297.13,-90.63 1288.77,-88.64 1280.89,-87 1116.48,-52.86 920.95,-33.86 810.75,-25.1"/>
<polygon fill="black" stroke="black" points="810.92,-21.6 800.68,-24.31 810.38,-28.58 810.92,-21.6"/>
<text text-anchor="middle" x="1190.39" y="-57.8" font-family="Times New Roman,serif" font-size="14.00">0.022</text>
</g>
</g>
</svg>
