<?xml version="1.0" encoding="UTF-8" standalone="no"?>
<!DOCTYPE svg PUBLIC "-//W3C//DTD SVG 1.1//EN"
 "http://www.w3.org/Graphics/SVG/1.1/DTD/svg11.dtd">
<!-- Generated by graphviz version 2.44.1 (20200629.0800)
 -->
<!-- Title: web_designer Pages: 1 -->
<svg width="1448pt" height="131pt"
 viewBox="0.00 0.00 1447.74 131.00" xmlns="http://www.w3.org/2000/svg" xmlns:xlink="http://www.w3.org/1999/xlink">
<g id="graph0" class="graph" transform="scale(1 1) rotate(0) translate(4 127)">
<title>web_designer</title>
<polygon fill="white" stroke="transparent" points="-4,4 -4,-127 1443.74,-127 1443.74,4 -4,4"/>
<!-- 0 -->
<g id="node1" class="node">
<title>0</title>
<g id="a_node1"><a xlink:href="to_web designer.svg" xlink:title="web designer">
<ellipse fill="none" stroke="black" cx="705.94" cy="-18" rx="58.49" ry="18"/>
<text text-anchor="middle" x="705.94" y="-14.3" font-family="Times New Roman,serif" font-size="14.00">web designer</text>
</a>
</g>
</g>
<!-- 0&#45;&gt;0 -->
<g id="edge1" class="edge">
<title>0&#45;&gt;0</title>
<path fill="none" stroke="black" d="M758.85,-25.78C772.32,-25.27 782.44,-22.68 782.44,-18 782.44,-14.6 777.1,-12.3 769.01,-11.11"/>
<polygon fill="black" stroke="black" points="769.12,-7.6 758.85,-10.22 768.51,-14.58 769.12,-7.6"/>
<text text-anchor="middle" x="797.94" y="-14.3" font-family="Times New Roman,serif" font-size="14.00">0.346</text>
</g>
<!-- 1 -->
<g id="node2" class="node">
<title>1</title>
<g id="a_node2"><a xlink:href="to_software developer.svg" xlink:title="software developer">
<ellipse fill="none" stroke="black" cx="79.94" cy="-105" rx="79.89" ry="18"/>
<text text-anchor="middle" x="79.94" y="-101.3" font-family="Times New Roman,serif" font-size="14.00">software developer</text>
</a>
</g>
</g>
<!-- 1&#45;&gt;0 -->
<g id="edge2" class="edge">
<title>1&#45;&gt;0</title>
<path fill="none" stroke="black" d="M138.31,-92.61C148.51,-90.69 159.03,-88.75 168.94,-87 259.39,-71.05 281.9,-66.14 372.94,-54 465.57,-41.65 573.17,-31.01 640.42,-24.8"/>
<polygon fill="black" stroke="black" points="640.81,-28.28 650.45,-23.88 640.17,-21.31 640.81,-28.28"/>
<text text-anchor="middle" x="388.44" y="-57.8" font-family="Times New Roman,serif" font-size="14.00">0.163</text>
</g>
<!-- 2 -->
<g id="node3" class="node">
<title>2</title>
<g id="a_node3"><a xlink:href="to_systems analyst.svg" xlink:title="systems analyst">
<ellipse fill="none" stroke="black" cx="245.94" cy="-105" rx="67.69" ry="18"/>
<text text-anchor="middle" x="245.94" y="-101.3" font-family="Times New Roman,serif" font-size="14.00">systems analyst</text>
</a>
</g>
</g>
<!-- 2&#45;&gt;0 -->
<g id="edge3" class="edge">
<title>2&#45;&gt;0</title>
<path fill="none" stroke="black" d="M296.04,-92.84C305,-90.88 314.24,-88.86 322.94,-87 393.52,-71.89 410.93,-66.91 481.94,-54 536.49,-44.08 598.82,-34.49 643.86,-27.86"/>
<polygon fill="black" stroke="black" points="644.38,-31.32 653.77,-26.4 643.37,-24.39 644.38,-31.32"/>
<text text-anchor="middle" x="497.44" y="-57.8" font-family="Times New Roman,serif" font-size="14.00">0.032</text>
</g>
<!-- 3 -->
<g id="node4" class="node">
<title>3</title>
<g id="a_node4"><a xlink:href="to_ux designer.svg" xlink:title="ux designer">
<ellipse fill="none" stroke="black" cx="383.94" cy="-105" rx="51.99" ry="18"/>
<text text-anchor="middle" x="383.94" y="-101.3" font-family="Times New Roman,serif" font-size="14.00">ux designer</text>
</a>
</g>
</g>
<!-- 3&#45;&gt;0 -->
<g id="edge4" class="edge">
<title>3&#45;&gt;0</title>
<path fill="none" stroke="black" d="M422.97,-93.02C430.26,-91 437.83,-88.92 444.94,-87 516.72,-67.65 599.86,-46.15 652.65,-32.6"/>
<polygon fill="black" stroke="black" points="653.66,-35.96 662.47,-30.09 651.92,-29.18 653.66,-35.96"/>
<text text-anchor="middle" x="582.44" y="-57.8" font-family="Times New Roman,serif" font-size="14.00">0.032</text>
</g>
<!-- 4 -->
<g id="node5" class="node">
<title>4</title>
<g id="a_node5"><a xlink:href="to_network administrator.svg" xlink:title="network administrator">
<ellipse fill="none" stroke="black" cx="543.94" cy="-105" rx="89.88" ry="18"/>
<text text-anchor="middle" x="543.94" y="-101.3" font-family="Times New Roman,serif" font-size="14.00">network administrator</text>
</a>
</g>
</g>
<!-- 4&#45;&gt;0 -->
<g id="edge5" class="edge">
<title>4&#45;&gt;0</title>
<path fill="none" stroke="black" d="M574.41,-88.01C601.21,-73.95 640.29,-53.45 668.89,-38.44"/>
<polygon fill="black" stroke="black" points="670.55,-41.52 677.78,-33.78 667.3,-35.33 670.55,-41.52"/>
<text text-anchor="middle" x="650.44" y="-57.8" font-family="Times New Roman,serif" font-size="14.00">0.026</text>
</g>
<!-- 5 -->
<g id="node6" class="node">
<title>5</title>
<g id="a_node6"><a xlink:href="to_it consultant.svg" xlink:title="it consultant">
<ellipse fill="none" stroke="black" cx="705.94" cy="-105" rx="54.69" ry="18"/>
<text text-anchor="middle" x="705.94" y="-101.3" font-family="Times New Roman,serif" font-size="14.00">it consultant</text>
</a>
</g>
</g>
<!-- 5&#45;&gt;0 -->
<g id="edge6" class="edge">
<title>5&#45;&gt;0</title>
<path fill="none" stroke="black" d="M705.94,-86.8C705.94,-75.16 705.94,-59.55 705.94,-46.24"/>
<polygon fill="black" stroke="black" points="709.44,-46.18 705.94,-36.18 702.44,-46.18 709.44,-46.18"/>
<text text-anchor="middle" x="721.44" y="-57.8" font-family="Times New Roman,serif" font-size="14.00">0.019</text>
</g>
<!-- 6 -->
<g id="node7" class="node">
<title>6</title>
<g id="a_node7"><a xlink:href="to_pharmacovigilance officer.svg" xlink:title="pharmacovigilance officer">
<ellipse fill="none" stroke="black" cx="882.94" cy="-105" rx="104.78" ry="18"/>
<text text-anchor="middle" x="882.94" y="-101.3" font-family="Times New Roman,serif" font-size="14.00">pharmacovigilance officer</text>
</a>
</g>
</g>
<!-- 6&#45;&gt;0 -->
<g id="edge7" class="edge">
<title>6&#45;&gt;0</title>
<path fill="none" stroke="black" d="M849.23,-87.81C819.69,-73.63 776.72,-52.99 745.55,-38.02"/>
<polygon fill="black" stroke="black" points="746.81,-34.74 736.28,-33.57 743.78,-41.05 746.81,-34.74"/>
<text text-anchor="middle" x="821.44" y="-57.8" font-family="Times New Roman,serif" font-size="14.00">0.019</text>
</g>
<!-- 7 -->
<g id="node8" class="node">
<title>7</title>
<g id="a_node8"><a xlink:href="to_production manager.svg" xlink:title="production manager">
<ellipse fill="none" stroke="black" cx="1088.94" cy="-105" rx="83.39" ry="18"/>
<text text-anchor="middle" x="1088.94" y="-101.3" font-family="Times New Roman,serif" font-size="14.00">production manager</text>
</a>
</g>
</g>
<!-- 7&#45;&gt;0 -->
<g id="edge8" class="edge">
<title>7&#45;&gt;0</title>
<path fill="none" stroke="black" d="M1032.84,-91.55C960.21,-75.43 834.38,-47.5 761.85,-31.41"/>
<polygon fill="black" stroke="black" points="762.5,-27.97 751.98,-29.22 760.98,-34.8 762.5,-27.97"/>
<text text-anchor="middle" x="936.44" y="-57.8" font-family="Times New Roman,serif" font-size="14.00">0.019</text>
</g>
<!-- 8 -->
<g id="node9" class="node">
<title>8</title>
<g id="a_node9"><a xlink:href="to_project manager.svg" xlink:title="project manager">
<ellipse fill="none" stroke="black" cx="1258.94" cy="-105" rx="68.79" ry="18"/>
<text text-anchor="middle" x="1258.94" y="-101.3" font-family="Times New Roman,serif" font-size="14.00">project manager</text>
</a>
</g>
</g>
<!-- 8&#45;&gt;0 -->
<g id="edge9" class="edge">
<title>8&#45;&gt;0</title>
<path fill="none" stroke="black" d="M1208.69,-92.52C1199.49,-90.56 1189.94,-88.64 1180.94,-87 1034.55,-60.34 861.2,-37.78 769.78,-26.58"/>
<polygon fill="black" stroke="black" points="769.93,-23.07 759.58,-25.33 769.09,-30.02 769.93,-23.07"/>
<text text-anchor="middle" x="1079.44" y="-57.8" font-family="Times New Roman,serif" font-size="14.00">0.019</text>
</g>
<!-- 9 -->
<g id="node10" class="node">
<title>9</title>
<g id="a_node10"><a xlink:href="to_qa analyst.svg" xlink:title="qa analyst">
<ellipse fill="none" stroke="black" cx="1392.94" cy="-105" rx="46.59" ry="18"/>
<text text-anchor="middle" x="1392.94" y="-101.3" font-family="Times New Roman,serif" font-size="14.00">qa analyst</text>
</a>
</g>
</g>
<!-- 9&#45;&gt;0 -->
<g id="edge10" class="edge">
<title>9&#45;&gt;0</title>
<path fill="none" stroke="black" d="M1358.51,-92.62C1351.43,-90.54 1343.99,-88.55 1336.94,-87 1135.33,-42.71 890.87,-26.83 774.25,-21.49"/>
<polygon fill="black" stroke="black" points="774.19,-17.99 764.04,-21.04 773.88,-24.98 774.19,-17.99"/>
<text text-anchor="middle" x="1250.44" y="-57.8" font-family="Times New Roman,serif" font-size="14.00">0.019</text>
</g>
</g>
</svg>
