<?xml version="1.0" encoding="UTF-8" standalone="no"?>
<!DOCTYPE svg PUBLIC "-//W3C//DTD SVG 1.1//EN"
 "http://www.w3.org/Graphics/SVG/1.1/DTD/svg11.dtd">
<!-- Generated by graphviz version 2.44.1 (20200629.0800)
 -->
<!-- Title: test Pages: 1 -->
<svg width="1557pt" height="131pt"
 viewBox="0.00 0.00 1556.59 131.00" xmlns="http://www.w3.org/2000/svg" xmlns:xlink="http://www.w3.org/1999/xlink">
<g id="graph0" class="graph" transform="scale(1 1) rotate(0) translate(4 127)">
<title>test</title>
<polygon fill="white" stroke="transparent" points="-4,4 -4,-127 1552.59,-127 1552.59,4 -4,4"/>
<!-- 0 -->
<g id="node1" class="node">
<title>0</title>
<g id="a_node1"><a xlink:href="to_project manager.svg" xlink:title="project manager">
<ellipse fill="none" stroke="black" cx="68.89" cy="-105" rx="68.79" ry="18"/>
<text text-anchor="middle" x="68.89" y="-101.3" font-family="Times New Roman,serif" font-size="14.00">project manager</text>
</a>
</g>
</g>
<!-- 1 -->
<g id="node2" class="node">
<title>1</title>
<g id="a_node2"><a xlink:href="to_welfare rights adviser.svg" xlink:title="welfare rights adviser">
<ellipse fill="none" stroke="black" cx="771.89" cy="-18" rx="87.18" ry="18"/>
<text text-anchor="middle" x="771.89" y="-14.3" font-family="Times New Roman,serif" font-size="14.00">welfare rights adviser</text>
</a>
</g>
</g>
<!-- 0&#45;&gt;1 -->
<g id="edge1" class="edge">
<title>0&#45;&gt;1</title>
<path fill="none" stroke="black" d="M119.15,-92.56C128.36,-90.6 137.9,-88.67 146.89,-87 242.38,-69.32 266.46,-65.48 362.89,-54 471.59,-41.06 597.08,-31.05 680.09,-25.11"/>
<polygon fill="black" stroke="black" points="680.52,-28.59 690.25,-24.39 680.03,-21.61 680.52,-28.59"/>
<text text-anchor="middle" x="378.39" y="-57.8" font-family="Times New Roman,serif" font-size="14.00">0.138</text>
</g>
<!-- 2 -->
<g id="node3" class="node">
<title>2</title>
<g id="a_node3"><a xlink:href="to_barristers clerk.svg" xlink:title="barristers clerk">
<ellipse fill="none" stroke="black" cx="219.89" cy="-105" rx="64.19" ry="18"/>
<text text-anchor="middle" x="219.89" y="-101.3" font-family="Times New Roman,serif" font-size="14.00">barristers clerk</text>
</a>
</g>
</g>
<!-- 2&#45;&gt;1 -->
<g id="edge2" class="edge">
<title>2&#45;&gt;1</title>
<path fill="none" stroke="black" d="M266.92,-92.56C275.54,-90.6 284.47,-88.67 292.89,-87 429.57,-59.95 590.24,-39.41 686.42,-28.29"/>
<polygon fill="black" stroke="black" points="686.85,-31.77 696.38,-27.15 686.05,-24.81 686.85,-31.77"/>
<text text-anchor="middle" x="492.39" y="-57.8" font-family="Times New Roman,serif" font-size="14.00">0.069</text>
</g>
<!-- 3 -->
<g id="node4" class="node">
<title>3</title>
<g id="a_node4"><a xlink:href="to_housing adviser.svg" xlink:title="housing adviser">
<ellipse fill="none" stroke="black" cx="369.89" cy="-105" rx="67.69" ry="18"/>
<text text-anchor="middle" x="369.89" y="-101.3" font-family="Times New Roman,serif" font-size="14.00">housing adviser</text>
</a>
</g>
</g>
<!-- 3&#45;&gt;1 -->
<g id="edge3" class="edge">
<title>3&#45;&gt;1</title>
<path fill="none" stroke="black" d="M420.42,-92.84C429.25,-90.89 438.34,-88.89 446.89,-87 513.56,-72.31 530.09,-68.03 596.89,-54 630.96,-46.85 668.83,-39.23 700.6,-32.94"/>
<polygon fill="black" stroke="black" points="701.56,-36.32 710.69,-30.94 700.2,-29.45 701.56,-36.32"/>
<text text-anchor="middle" x="612.39" y="-57.8" font-family="Times New Roman,serif" font-size="14.00">0.055</text>
</g>
<!-- 4 -->
<g id="node5" class="node">
<title>4</title>
<g id="a_node5"><a xlink:href="to_careers adviser.svg" xlink:title="careers adviser">
<ellipse fill="none" stroke="black" cx="520.89" cy="-105" rx="64.99" ry="18"/>
<text text-anchor="middle" x="520.89" y="-101.3" font-family="Times New Roman,serif" font-size="14.00">careers adviser</text>
</a>
</g>
</g>
<!-- 4&#45;&gt;1 -->
<g id="edge4" class="edge">
<title>4&#45;&gt;1</title>
<path fill="none" stroke="black" d="M560.39,-90.63C603.14,-76.15 671.55,-52.98 718.94,-36.93"/>
<polygon fill="black" stroke="black" points="720.07,-40.25 728.42,-33.72 717.82,-33.62 720.07,-40.25"/>
<text text-anchor="middle" x="677.39" y="-57.8" font-family="Times New Roman,serif" font-size="14.00">0.041</text>
</g>
<!-- 5 -->
<g id="node6" class="node">
<title>5</title>
<g id="a_node6"><a xlink:href="to_catering manager.svg" xlink:title="catering manager">
<ellipse fill="none" stroke="black" cx="674.89" cy="-105" rx="71.49" ry="18"/>
<text text-anchor="middle" x="674.89" y="-101.3" font-family="Times New Roman,serif" font-size="14.00">catering manager</text>
</a>
</g>
</g>
<!-- 5&#45;&gt;1 -->
<g id="edge5" class="edge">
<title>5&#45;&gt;1</title>
<path fill="none" stroke="black" d="M693.6,-87.61C708.26,-74.76 728.86,-56.71 745.25,-42.34"/>
<polygon fill="black" stroke="black" points="747.7,-44.85 752.92,-35.63 743.09,-39.59 747.7,-44.85"/>
<text text-anchor="middle" x="745.39" y="-57.8" font-family="Times New Roman,serif" font-size="14.00">0.041</text>
</g>
<!-- 6 -->
<g id="node7" class="node">
<title>6</title>
<g id="a_node7"><a xlink:href="to_pharmacovigilance officer.svg" xlink:title="pharmacovigilance officer">
<ellipse fill="none" stroke="black" cx="868.89" cy="-105" rx="104.78" ry="18"/>
<text text-anchor="middle" x="868.89" y="-101.3" font-family="Times New Roman,serif" font-size="14.00">pharmacovigilance officer</text>
</a>
</g>
</g>
<!-- 6&#45;&gt;1 -->
<g id="edge6" class="edge">
<title>6&#45;&gt;1</title>
<path fill="none" stroke="black" d="M849.73,-87.21C835.12,-74.4 814.81,-56.61 798.6,-42.4"/>
<polygon fill="black" stroke="black" points="800.85,-39.72 791.02,-35.76 796.23,-44.98 800.85,-39.72"/>
<text text-anchor="middle" x="842.39" y="-57.8" font-family="Times New Roman,serif" font-size="14.00">0.041</text>
</g>
<!-- 7 -->
<g id="node8" class="node">
<title>7</title>
<g id="a_node8"><a xlink:href="to_it consultant.svg" xlink:title="it consultant">
<ellipse fill="none" stroke="black" cx="1045.89" cy="-105" rx="54.69" ry="18"/>
<text text-anchor="middle" x="1045.89" y="-101.3" font-family="Times New Roman,serif" font-size="14.00">it consultant</text>
</a>
</g>
</g>
<!-- 7&#45;&gt;1 -->
<g id="edge7" class="edge">
<title>7&#45;&gt;1</title>
<path fill="none" stroke="black" d="M1007.51,-92.09C960.78,-77.6 881.5,-53 827.94,-36.39"/>
<polygon fill="black" stroke="black" points="828.85,-33 818.26,-33.38 826.77,-39.69 828.85,-33"/>
<text text-anchor="middle" x="941.39" y="-57.8" font-family="Times New Roman,serif" font-size="14.00">0.027</text>
</g>
<!-- 8 -->
<g id="node9" class="node">
<title>8</title>
<g id="a_node9"><a xlink:href="to_legal executive.svg" xlink:title="legal executive">
<ellipse fill="none" stroke="black" cx="1181.89" cy="-105" rx="63.09" ry="18"/>
<text text-anchor="middle" x="1181.89" y="-101.3" font-family="Times New Roman,serif" font-size="14.00">legal executive</text>
</a>
</g>
</g>
<!-- 8&#45;&gt;1 -->
<g id="edge8" class="edge">
<title>8&#45;&gt;1</title>
<path fill="none" stroke="black" d="M1135.05,-92.84C1126.68,-90.87 1118.03,-88.86 1109.89,-87 1043.78,-71.87 1027.36,-67.51 960.89,-54 923.09,-46.32 880.9,-38.44 845.98,-32.1"/>
<polygon fill="black" stroke="black" points="846.33,-28.61 835.86,-30.27 845.08,-35.5 846.33,-28.61"/>
<text text-anchor="middle" x="1045.39" y="-57.8" font-family="Times New Roman,serif" font-size="14.00">0.027</text>
</g>
<!-- 9 -->
<g id="node10" class="node">
<title>9</title>
<g id="a_node10"><a xlink:href="to_production manager.svg" xlink:title="production manager">
<ellipse fill="none" stroke="black" cx="1345.89" cy="-105" rx="83.39" ry="18"/>
<text text-anchor="middle" x="1345.89" y="-101.3" font-family="Times New Roman,serif" font-size="14.00">production manager</text>
</a>
</g>
</g>
<!-- 9&#45;&gt;1 -->
<g id="edge9" class="edge">
<title>9&#45;&gt;1</title>
<path fill="none" stroke="black" d="M1285.04,-92.67C1274.65,-90.76 1263.97,-88.81 1253.89,-87 1169.97,-71.92 1149.26,-66.39 1064.89,-54 995.44,-43.8 916.4,-34.49 857.93,-28.04"/>
<polygon fill="black" stroke="black" points="857.94,-24.52 847.62,-26.91 857.18,-31.48 857.94,-24.52"/>
<text text-anchor="middle" x="1171.39" y="-57.8" font-family="Times New Roman,serif" font-size="14.00">0.027</text>
</g>
<!-- 10 -->
<g id="node11" class="node">
<title>10</title>
<g id="a_node11"><a xlink:href="to_retail buyer.svg" xlink:title="retail buyer">
<ellipse fill="none" stroke="black" cx="1497.89" cy="-105" rx="50.89" ry="18"/>
<text text-anchor="middle" x="1497.89" y="-101.3" font-family="Times New Roman,serif" font-size="14.00">retail buyer</text>
</a>
</g>
</g>
<!-- 10&#45;&gt;1 -->
<g id="edge10" class="edge">
<title>10&#45;&gt;1</title>
<path fill="none" stroke="black" d="M1460.97,-92.64C1453.39,-90.56 1445.42,-88.56 1437.89,-87 1237.34,-45.41 997.3,-28.86 867.18,-22.58"/>
<polygon fill="black" stroke="black" points="867,-19.07 856.85,-22.09 866.67,-26.06 867,-19.07"/>
<text text-anchor="middle" x="1345.39" y="-57.8" font-family="Times New Roman,serif" font-size="14.00">0.027</text>
</g>
</g>
</svg>
