<?xml version="1.0" encoding="UTF-8" standalone="no"?>
<!DOCTYPE svg PUBLIC "-//W3C//DTD SVG 1.1//EN"
 "http://www.w3.org/Graphics/SVG/1.1/DTD/svg11.dtd">
<!-- Generated by graphviz version 2.44.1 (20200629.0800)
 -->
<!-- Title: test Pages: 1 -->
<svg width="1468pt" height="131pt"
 viewBox="0.00 0.00 1467.59 131.00" xmlns="http://www.w3.org/2000/svg" xmlns:xlink="http://www.w3.org/1999/xlink">
<g id="graph0" class="graph" transform="scale(1 1) rotate(0) translate(4 127)">
<title>test</title>
<polygon fill="white" stroke="transparent" points="-4,4 -4,-127 1463.59,-127 1463.59,4 -4,4"/>
<!-- 0 -->
<g id="node1" class="node">
<title>0</title>
<g id="a_node1"><a xlink:href="to_writer.svg" xlink:title="writer">
<ellipse fill="none" stroke="black" cx="853.04" cy="-18" rx="31.4" ry="18"/>
<text text-anchor="middle" x="853.04" y="-14.3" font-family="Times New Roman,serif" font-size="14.00">writer</text>
</a>
</g>
</g>
<!-- 0&#45;&gt;0 -->
<g id="edge1" class="edge">
<title>0&#45;&gt;0</title>
<path fill="none" stroke="black" d="M881.35,-25.83C892.71,-26.27 902.24,-23.66 902.24,-18 902.24,-14.2 897.94,-11.77 891.67,-10.72"/>
<polygon fill="black" stroke="black" points="891.53,-7.21 881.35,-10.17 891.15,-14.2 891.53,-7.21"/>
<text text-anchor="middle" x="917.74" y="-14.3" font-family="Times New Roman,serif" font-size="14.00">0.117</text>
</g>
<!-- 1 -->
<g id="node2" class="node">
<title>1</title>
<g id="a_node2"><a xlink:href="to_commissioning editor.svg" xlink:title="commissioning editor">
<ellipse fill="none" stroke="black" cx="89.04" cy="-105" rx="89.08" ry="18"/>
<text text-anchor="middle" x="89.04" y="-101.3" font-family="Times New Roman,serif" font-size="14.00">commissioning editor</text>
</a>
</g>
</g>
<!-- 1&#45;&gt;0 -->
<g id="edge2" class="edge">
<title>1&#45;&gt;0</title>
<path fill="none" stroke="black" d="M152.47,-92.36C163.95,-90.43 175.84,-88.56 187.04,-87 422.71,-54.25 707.36,-30.39 811.95,-22.15"/>
<polygon fill="black" stroke="black" points="812.38,-25.63 822.08,-21.36 811.83,-18.65 812.38,-25.63"/>
<text text-anchor="middle" x="476.54" y="-57.8" font-family="Times New Roman,serif" font-size="14.00">0.048</text>
</g>
<!-- 2 -->
<g id="node3" class="node">
<title>2</title>
<g id="a_node3"><a xlink:href="to_pharmacovigilance officer.svg" xlink:title="pharmacovigilance officer">
<ellipse fill="none" stroke="black" cx="301.04" cy="-105" rx="104.78" ry="18"/>
<text text-anchor="middle" x="301.04" y="-101.3" font-family="Times New Roman,serif" font-size="14.00">pharmacovigilance officer</text>
</a>
</g>
</g>
<!-- 2&#45;&gt;0 -->
<g id="edge3" class="edge">
<title>2&#45;&gt;0</title>
<path fill="none" stroke="black" d="M376,-92.41C441.67,-82.27 539.68,-67.14 625.04,-54 690.96,-43.85 767.59,-32.1 813.11,-25.12"/>
<polygon fill="black" stroke="black" points="813.81,-28.55 823.16,-23.58 812.75,-21.63 813.81,-28.55"/>
<text text-anchor="middle" x="640.54" y="-57.8" font-family="Times New Roman,serif" font-size="14.00">0.041</text>
</g>
<!-- 3 -->
<g id="node4" class="node">
<title>3</title>
<g id="a_node4"><a xlink:href="to_production manager.svg" xlink:title="production manager">
<ellipse fill="none" stroke="black" cx="507.04" cy="-105" rx="83.39" ry="18"/>
<text text-anchor="middle" x="507.04" y="-101.3" font-family="Times New Roman,serif" font-size="14.00">production manager</text>
</a>
</g>
</g>
<!-- 3&#45;&gt;0 -->
<g id="edge4" class="edge">
<title>3&#45;&gt;0</title>
<path fill="none" stroke="black" d="M559.97,-91C630.44,-73.68 753.37,-43.48 815.22,-28.29"/>
<polygon fill="black" stroke="black" points="816.09,-31.68 824.96,-25.9 814.42,-24.88 816.09,-31.68"/>
<text text-anchor="middle" x="716.54" y="-57.8" font-family="Times New Roman,serif" font-size="14.00">0.041</text>
</g>
<!-- 4 -->
<g id="node5" class="node">
<title>4</title>
<g id="a_node5"><a xlink:href="to_marketing assistant.svg" xlink:title="marketing assistant">
<ellipse fill="none" stroke="black" cx="687.04" cy="-105" rx="79.09" ry="18"/>
<text text-anchor="middle" x="687.04" y="-101.3" font-family="Times New Roman,serif" font-size="14.00">marketing assistant</text>
</a>
</g>
</g>
<!-- 4&#45;&gt;0 -->
<g id="edge5" class="edge">
<title>4&#45;&gt;0</title>
<path fill="none" stroke="black" d="M717.88,-88.21C747.32,-73.14 791.49,-50.52 821.25,-35.28"/>
<polygon fill="black" stroke="black" points="823.06,-38.28 830.37,-30.61 819.87,-32.05 823.06,-38.28"/>
<text text-anchor="middle" x="795.54" y="-57.8" font-family="Times New Roman,serif" font-size="14.00">0.027</text>
</g>
<!-- 5 -->
<g id="node6" class="node">
<title>5</title>
<g id="a_node6"><a xlink:href="to_project manager.svg" xlink:title="project manager">
<ellipse fill="none" stroke="black" cx="853.04" cy="-105" rx="68.79" ry="18"/>
<text text-anchor="middle" x="853.04" y="-101.3" font-family="Times New Roman,serif" font-size="14.00">project manager</text>
</a>
</g>
</g>
<!-- 5&#45;&gt;0 -->
<g id="edge6" class="edge">
<title>5&#45;&gt;0</title>
<path fill="none" stroke="black" d="M853.04,-86.8C853.04,-75.16 853.04,-59.55 853.04,-46.24"/>
<polygon fill="black" stroke="black" points="856.54,-46.18 853.04,-36.18 849.54,-46.18 856.54,-46.18"/>
<text text-anchor="middle" x="868.54" y="-57.8" font-family="Times New Roman,serif" font-size="14.00">0.027</text>
</g>
<!-- 6 -->
<g id="node7" class="node">
<title>6</title>
<g id="a_node7"><a xlink:href="to_sales manager.svg" xlink:title="sales manager">
<ellipse fill="none" stroke="black" cx="1001.04" cy="-105" rx="61.19" ry="18"/>
<text text-anchor="middle" x="1001.04" y="-101.3" font-family="Times New Roman,serif" font-size="14.00">sales manager</text>
</a>
</g>
</g>
<!-- 6&#45;&gt;0 -->
<g id="edge7" class="edge">
<title>6&#45;&gt;0</title>
<path fill="none" stroke="black" d="M974.24,-88.61C948.61,-73.89 910.01,-51.72 883.29,-36.37"/>
<polygon fill="black" stroke="black" points="884.78,-33.19 874.37,-31.25 881.3,-39.26 884.78,-33.19"/>
<text text-anchor="middle" x="951.54" y="-57.8" font-family="Times New Roman,serif" font-size="14.00">0.027</text>
</g>
<!-- 7 -->
<g id="node8" class="node">
<title>7</title>
<g id="a_node8"><a xlink:href="to_teaching assistant.svg" xlink:title="teaching assistant">
<ellipse fill="none" stroke="black" cx="1154.04" cy="-105" rx="73.39" ry="18"/>
<text text-anchor="middle" x="1154.04" y="-101.3" font-family="Times New Roman,serif" font-size="14.00">teaching assistant</text>
</a>
</g>
</g>
<!-- 7&#45;&gt;0 -->
<g id="edge8" class="edge">
<title>7&#45;&gt;0</title>
<path fill="none" stroke="black" d="M1107.67,-90.91C1047.9,-74.03 945.15,-45.01 890.23,-29.5"/>
<polygon fill="black" stroke="black" points="891.13,-26.12 880.55,-26.77 889.22,-32.85 891.13,-26.12"/>
<text text-anchor="middle" x="1036.54" y="-57.8" font-family="Times New Roman,serif" font-size="14.00">0.027</text>
</g>
<!-- 8 -->
<g id="node9" class="node">
<title>8</title>
<g id="a_node9"><a xlink:href="to_it consultant.svg" xlink:title="it consultant">
<ellipse fill="none" stroke="black" cx="1300.04" cy="-105" rx="54.69" ry="18"/>
<text text-anchor="middle" x="1300.04" y="-101.3" font-family="Times New Roman,serif" font-size="14.00">it consultant</text>
</a>
</g>
</g>
<!-- 8&#45;&gt;0 -->
<g id="edge9" class="edge">
<title>8&#45;&gt;0</title>
<path fill="none" stroke="black" d="M1259.53,-92.73C1251.76,-90.71 1243.67,-88.71 1236.04,-87 1111.93,-59.19 963.15,-35.49 893.16,-24.91"/>
<polygon fill="black" stroke="black" points="893.43,-21.41 883.02,-23.39 892.39,-28.33 893.43,-21.41"/>
<text text-anchor="middle" x="1156.54" y="-57.8" font-family="Times New Roman,serif" font-size="14.00">0.020</text>
</g>
<!-- 9 -->
<g id="node10" class="node">
<title>9</title>
<g id="a_node10"><a xlink:href="to_journalist.svg" xlink:title="journalist">
<ellipse fill="none" stroke="black" cx="1416.04" cy="-105" rx="43.59" ry="18"/>
<text text-anchor="middle" x="1416.04" y="-101.3" font-family="Times New Roman,serif" font-size="14.00">journalist</text>
</a>
</g>
</g>
<!-- 9&#45;&gt;0 -->
<g id="edge10" class="edge">
<title>9&#45;&gt;0</title>
<path fill="none" stroke="black" d="M1384.07,-92.76C1377.5,-90.67 1370.58,-88.63 1364.04,-87 1192.58,-44.16 981.59,-26.95 894.07,-21.32"/>
<polygon fill="black" stroke="black" points="894.22,-17.82 884.02,-20.69 893.78,-24.81 894.22,-17.82"/>
<text text-anchor="middle" x="1296.54" y="-57.8" font-family="Times New Roman,serif" font-size="14.00">0.020</text>
</g>
</g>
</svg>
