<?xml version="1.0" encoding="UTF-8" standalone="no"?>
<!DOCTYPE svg PUBLIC "-//W3C//DTD SVG 1.1//EN"
 "http://www.w3.org/Graphics/SVG/1.1/DTD/svg11.dtd">
<!-- Generated by graphviz version 2.44.1 (20200629.0800)
 -->
<!-- Title: writer Pages: 1 -->
<svg width="1488pt" height="131pt"
 viewBox="0.00 0.00 1488.24 131.00" xmlns="http://www.w3.org/2000/svg" xmlns:xlink="http://www.w3.org/1999/xlink">
<g id="graph0" class="graph" transform="scale(1 1) rotate(0) translate(4 127)">
<title>writer</title>
<polygon fill="white" stroke="transparent" points="-4,4 -4,-127 1484.24,-127 1484.24,4 -4,4"/>
<!-- 0 -->
<g id="node1" class="node">
<title>0</title>
<g id="a_node1"><a xlink:href="to_writer.svg" xlink:title="writer">
<ellipse fill="none" stroke="black" cx="782.64" cy="-18" rx="31.4" ry="18"/>
<text text-anchor="middle" x="782.64" y="-14.3" font-family="Times New Roman,serif" font-size="14.00">writer</text>
</a>
</g>
</g>
<!-- 0&#45;&gt;0 -->
<g id="edge1" class="edge">
<title>0&#45;&gt;0</title>
<path fill="none" stroke="black" d="M810.95,-25.83C822.31,-26.27 831.84,-23.66 831.84,-18 831.84,-14.2 827.54,-11.77 821.27,-10.72"/>
<polygon fill="black" stroke="black" points="821.12,-7.21 810.95,-10.17 820.75,-14.2 821.12,-7.21"/>
<text text-anchor="middle" x="847.34" y="-14.3" font-family="Times New Roman,serif" font-size="14.00">0.117</text>
</g>
<!-- 1 -->
<g id="node2" class="node">
<title>1</title>
<g id="a_node2"><a xlink:href="to_pharmacovigilance officer.svg" xlink:title="pharmacovigilance officer">
<ellipse fill="none" stroke="black" cx="104.64" cy="-105" rx="104.78" ry="18"/>
<text text-anchor="middle" x="104.64" y="-101.3" font-family="Times New Roman,serif" font-size="14.00">pharmacovigilance officer</text>
</a>
</g>
</g>
<!-- 1&#45;&gt;0 -->
<g id="edge2" class="edge">
<title>1&#45;&gt;0</title>
<path fill="none" stroke="black" d="M180.35,-92.53C193.12,-90.64 206.26,-88.74 218.64,-87 329.62,-71.4 357.39,-67.54 468.64,-54 566.49,-42.09 681.7,-29.65 741.67,-23.3"/>
<polygon fill="black" stroke="black" points="742.29,-26.75 751.86,-22.22 741.55,-19.79 742.29,-26.75"/>
<text text-anchor="middle" x="484.14" y="-57.8" font-family="Times New Roman,serif" font-size="14.00">0.041</text>
</g>
<!-- 2 -->
<g id="node3" class="node">
<title>2</title>
<g id="a_node3"><a xlink:href="to_production manager.svg" xlink:title="production manager">
<ellipse fill="none" stroke="black" cx="310.64" cy="-105" rx="83.39" ry="18"/>
<text text-anchor="middle" x="310.64" y="-101.3" font-family="Times New Roman,serif" font-size="14.00">production manager</text>
</a>
</g>
</g>
<!-- 2&#45;&gt;0 -->
<g id="edge3" class="edge">
<title>2&#45;&gt;0</title>
<path fill="none" stroke="black" d="M371.5,-92.72C381.89,-90.81 392.58,-88.84 402.64,-87 483.5,-72.2 503.72,-68.49 584.64,-54 639.64,-44.15 703.27,-32.94 743.24,-25.91"/>
<polygon fill="black" stroke="black" points="743.87,-29.36 753.11,-24.18 742.66,-22.46 743.87,-29.36"/>
<text text-anchor="middle" x="600.14" y="-57.8" font-family="Times New Roman,serif" font-size="14.00">0.041</text>
</g>
<!-- 3 -->
<g id="node4" class="node">
<title>3</title>
<g id="a_node4"><a xlink:href="to_marketing assistant.svg" xlink:title="marketing assistant">
<ellipse fill="none" stroke="black" cx="490.64" cy="-105" rx="79.09" ry="18"/>
<text text-anchor="middle" x="490.64" y="-101.3" font-family="Times New Roman,serif" font-size="14.00">marketing assistant</text>
</a>
</g>
</g>
<!-- 3&#45;&gt;0 -->
<g id="edge4" class="edge">
<title>3&#45;&gt;0</title>
<path fill="none" stroke="black" d="M537.56,-90.34C595.41,-73.5 692.57,-45.22 745.51,-29.81"/>
<polygon fill="black" stroke="black" points="746.55,-33.15 755.17,-27 744.59,-26.43 746.55,-33.15"/>
<text text-anchor="middle" x="670.14" y="-57.8" font-family="Times New Roman,serif" font-size="14.00">0.027</text>
</g>
<!-- 4 -->
<g id="node5" class="node">
<title>4</title>
<g id="a_node5"><a xlink:href="to_press editor.svg" xlink:title="press editor">
<ellipse fill="none" stroke="black" cx="641.64" cy="-105" rx="53.89" ry="18"/>
<text text-anchor="middle" x="641.64" y="-101.3" font-family="Times New Roman,serif" font-size="14.00">press editor</text>
</a>
</g>
</g>
<!-- 4&#45;&gt;0 -->
<g id="edge5" class="edge">
<title>4&#45;&gt;0</title>
<path fill="none" stroke="black" d="M666.52,-89C690.71,-74.42 727.45,-52.27 753.11,-36.8"/>
<polygon fill="black" stroke="black" points="754.92,-39.8 761.68,-31.64 751.31,-33.8 754.92,-39.8"/>
<text text-anchor="middle" x="736.14" y="-57.8" font-family="Times New Roman,serif" font-size="14.00">0.027</text>
</g>
<!-- 5 -->
<g id="node6" class="node">
<title>5</title>
<g id="a_node6"><a xlink:href="to_project manager.svg" xlink:title="project manager">
<ellipse fill="none" stroke="black" cx="782.64" cy="-105" rx="68.79" ry="18"/>
<text text-anchor="middle" x="782.64" y="-101.3" font-family="Times New Roman,serif" font-size="14.00">project manager</text>
</a>
</g>
</g>
<!-- 5&#45;&gt;0 -->
<g id="edge6" class="edge">
<title>5&#45;&gt;0</title>
<path fill="none" stroke="black" d="M782.64,-86.8C782.64,-75.16 782.64,-59.55 782.64,-46.24"/>
<polygon fill="black" stroke="black" points="786.14,-46.18 782.64,-36.18 779.14,-46.18 786.14,-46.18"/>
<text text-anchor="middle" x="798.14" y="-57.8" font-family="Times New Roman,serif" font-size="14.00">0.027</text>
</g>
<!-- 6 -->
<g id="node7" class="node">
<title>6</title>
<g id="a_node7"><a xlink:href="to_sales manager.svg" xlink:title="sales manager">
<ellipse fill="none" stroke="black" cx="930.64" cy="-105" rx="61.19" ry="18"/>
<text text-anchor="middle" x="930.64" y="-101.3" font-family="Times New Roman,serif" font-size="14.00">sales manager</text>
</a>
</g>
</g>
<!-- 6&#45;&gt;0 -->
<g id="edge7" class="edge">
<title>6&#45;&gt;0</title>
<path fill="none" stroke="black" d="M903.84,-88.61C878.21,-73.89 839.61,-51.72 812.88,-36.37"/>
<polygon fill="black" stroke="black" points="814.38,-33.19 803.97,-31.25 810.9,-39.26 814.38,-33.19"/>
<text text-anchor="middle" x="881.14" y="-57.8" font-family="Times New Roman,serif" font-size="14.00">0.027</text>
</g>
<!-- 7 -->
<g id="node8" class="node">
<title>7</title>
<g id="a_node8"><a xlink:href="to_teaching assistant.svg" xlink:title="teaching assistant">
<ellipse fill="none" stroke="black" cx="1083.64" cy="-105" rx="73.39" ry="18"/>
<text text-anchor="middle" x="1083.64" y="-101.3" font-family="Times New Roman,serif" font-size="14.00">teaching assistant</text>
</a>
</g>
</g>
<!-- 7&#45;&gt;0 -->
<g id="edge8" class="edge">
<title>7&#45;&gt;0</title>
<path fill="none" stroke="black" d="M1037.27,-90.91C977.5,-74.03 874.75,-45.01 819.83,-29.5"/>
<polygon fill="black" stroke="black" points="820.72,-26.12 810.15,-26.77 818.82,-32.85 820.72,-26.12"/>
<text text-anchor="middle" x="967.14" y="-57.8" font-family="Times New Roman,serif" font-size="14.00">0.027</text>
</g>
<!-- 8 -->
<g id="node9" class="node">
<title>8</title>
<g id="a_node9"><a xlink:href="to_commissioning editor.svg" xlink:title="commissioning editor">
<ellipse fill="none" stroke="black" cx="1263.64" cy="-105" rx="89.08" ry="18"/>
<text text-anchor="middle" x="1263.64" y="-101.3" font-family="Times New Roman,serif" font-size="14.00">commissioning editor</text>
</a>
</g>
</g>
<!-- 8&#45;&gt;0 -->
<g id="edge9" class="edge">
<title>8&#45;&gt;0</title>
<path fill="none" stroke="black" d="M1200.13,-92.38C1144.01,-82.14 1059.91,-66.9 986.64,-54 929.55,-43.95 863.4,-32.67 822.28,-25.7"/>
<polygon fill="black" stroke="black" points="822.83,-22.24 812.39,-24.02 821.66,-29.14 822.83,-22.24"/>
<text text-anchor="middle" x="1085.14" y="-57.8" font-family="Times New Roman,serif" font-size="14.00">0.020</text>
</g>
<!-- 9 -->
<g id="node10" class="node">
<title>9</title>
<g id="a_node10"><a xlink:href="to_it consultant.svg" xlink:title="it consultant">
<ellipse fill="none" stroke="black" cx="1425.64" cy="-105" rx="54.69" ry="18"/>
<text text-anchor="middle" x="1425.64" y="-101.3" font-family="Times New Roman,serif" font-size="14.00">it consultant</text>
</a>
</g>
</g>
<!-- 9&#45;&gt;0 -->
<g id="edge10" class="edge">
<title>9&#45;&gt;0</title>
<path fill="none" stroke="black" d="M1385.89,-92.57C1377.9,-90.52 1369.54,-88.55 1361.64,-87 1162.04,-47.85 919.01,-28.26 823.74,-21.65"/>
<polygon fill="black" stroke="black" points="823.87,-18.15 813.66,-20.96 823.39,-25.13 823.87,-18.15"/>
<text text-anchor="middle" x="1267.14" y="-57.8" font-family="Times New Roman,serif" font-size="14.00">0.020</text>
</g>
</g>
</svg>
