<?xml version="1.0" encoding="UTF-8" standalone="no"?>
<!DOCTYPE svg PUBLIC "-//W3C//DTD SVG 1.1//EN"
 "http://www.w3.org/Graphics/SVG/1.1/DTD/svg11.dtd">
<!-- Generated by graphviz version 2.44.1 (20200629.0800)
 -->
<!-- Title: youth_worker Pages: 1 -->
<svg width="1370pt" height="131pt"
 viewBox="0.00 0.00 1369.54 131.00" xmlns="http://www.w3.org/2000/svg" xmlns:xlink="http://www.w3.org/1999/xlink">
<g id="graph0" class="graph" transform="scale(1 1) rotate(0) translate(4 127)">
<title>youth_worker</title>
<polygon fill="white" stroke="transparent" points="-4,4 -4,-127 1365.54,-127 1365.54,4 -4,4"/>
<!-- 0 -->
<g id="node1" class="node">
<title>0</title>
<g id="a_node1"><a xlink:href="to_project manager.svg" xlink:title="project manager">
<ellipse fill="none" stroke="black" cx="68.89" cy="-105" rx="68.79" ry="18"/>
<text text-anchor="middle" x="68.89" y="-101.3" font-family="Times New Roman,serif" font-size="14.00">project manager</text>
</a>
</g>
</g>
<!-- 1 -->
<g id="node2" class="node">
<title>1</title>
<g id="a_node2"><a xlink:href="to_youth worker.svg" xlink:title="youth worker">
<ellipse fill="none" stroke="black" cx="700.89" cy="-18" rx="59.29" ry="18"/>
<text text-anchor="middle" x="700.89" y="-14.3" font-family="Times New Roman,serif" font-size="14.00">youth worker</text>
</a>
</g>
</g>
<!-- 0&#45;&gt;1 -->
<g id="edge1" class="edge">
<title>0&#45;&gt;1</title>
<path fill="none" stroke="black" d="M115.53,-91.61C160.4,-80.15 230.33,-63.49 291.89,-54 410.94,-35.65 551.08,-26.27 632.56,-22.02"/>
<polygon fill="black" stroke="black" points="632.88,-25.51 642.69,-21.5 632.52,-18.52 632.88,-25.51"/>
<text text-anchor="middle" x="307.39" y="-57.8" font-family="Times New Roman,serif" font-size="14.00">0.079</text>
</g>
<!-- 1&#45;&gt;1 -->
<g id="edge2" class="edge">
<title>1&#45;&gt;1</title>
<path fill="none" stroke="black" d="M754.25,-25.78C767.84,-25.27 778.04,-22.68 778.04,-18 778.04,-14.57 772.54,-12.26 764.24,-11.07"/>
<polygon fill="black" stroke="black" points="764.52,-7.58 754.25,-10.22 763.92,-14.55 764.52,-7.58"/>
<text text-anchor="middle" x="793.54" y="-14.3" font-family="Times New Roman,serif" font-size="14.00">0.079</text>
</g>
<!-- 2 -->
<g id="node3" class="node">
<title>2</title>
<g id="a_node3"><a xlink:href="to_lecturer.svg" xlink:title="lecturer">
<ellipse fill="none" stroke="black" cx="193.89" cy="-105" rx="37.89" ry="18"/>
<text text-anchor="middle" x="193.89" y="-101.3" font-family="Times New Roman,serif" font-size="14.00">lecturer</text>
</a>
</g>
</g>
<!-- 2&#45;&gt;1 -->
<g id="edge3" class="edge">
<title>2&#45;&gt;1</title>
<path fill="none" stroke="black" d="M221.83,-92.66C227.72,-90.55 233.96,-88.54 239.89,-87 377.7,-51.3 543.88,-32.55 634.3,-24.31"/>
<polygon fill="black" stroke="black" points="634.77,-27.79 644.42,-23.41 634.14,-20.81 634.77,-27.79"/>
<text text-anchor="middle" x="406.39" y="-57.8" font-family="Times New Roman,serif" font-size="14.00">0.068</text>
</g>
<!-- 3 -->
<g id="node4" class="node">
<title>3</title>
<g id="a_node4"><a xlink:href="to_research scientist.svg" xlink:title="research scientist">
<ellipse fill="none" stroke="black" cx="321.89" cy="-105" rx="72.59" ry="18"/>
<text text-anchor="middle" x="321.89" y="-101.3" font-family="Times New Roman,serif" font-size="14.00">research scientist</text>
</a>
</g>
</g>
<!-- 3&#45;&gt;1 -->
<g id="edge4" class="edge">
<title>3&#45;&gt;1</title>
<path fill="none" stroke="black" d="M373.8,-92.36C444.76,-76.44 571.58,-48 644.71,-31.6"/>
<polygon fill="black" stroke="black" points="645.67,-34.97 654.66,-29.37 644.14,-28.14 645.67,-34.97"/>
<text text-anchor="middle" x="550.39" y="-57.8" font-family="Times New Roman,serif" font-size="14.00">0.068</text>
</g>
<!-- 4 -->
<g id="node5" class="node">
<title>4</title>
<g id="a_node5"><a xlink:href="to_pharmacovigilance officer.svg" xlink:title="pharmacovigilance officer">
<ellipse fill="none" stroke="black" cx="516.89" cy="-105" rx="104.78" ry="18"/>
<text text-anchor="middle" x="516.89" y="-101.3" font-family="Times New Roman,serif" font-size="14.00">pharmacovigilance officer</text>
</a>
</g>
</g>
<!-- 4&#45;&gt;1 -->
<g id="edge5" class="edge">
<title>4&#45;&gt;1</title>
<path fill="none" stroke="black" d="M551.5,-88.01C582.49,-73.7 627.93,-52.71 660.55,-37.64"/>
<polygon fill="black" stroke="black" points="662.2,-40.73 669.81,-33.36 659.26,-34.38 662.2,-40.73"/>
<text text-anchor="middle" x="636.39" y="-57.8" font-family="Times New Roman,serif" font-size="14.00">0.056</text>
</g>
<!-- 5 -->
<g id="node6" class="node">
<title>5</title>
<g id="a_node6"><a xlink:href="to_sales manager.svg" xlink:title="sales manager">
<ellipse fill="none" stroke="black" cx="700.89" cy="-105" rx="61.19" ry="18"/>
<text text-anchor="middle" x="700.89" y="-101.3" font-family="Times New Roman,serif" font-size="14.00">sales manager</text>
</a>
</g>
</g>
<!-- 5&#45;&gt;1 -->
<g id="edge6" class="edge">
<title>5&#45;&gt;1</title>
<path fill="none" stroke="black" d="M700.89,-86.8C700.89,-75.16 700.89,-59.55 700.89,-46.24"/>
<polygon fill="black" stroke="black" points="704.39,-46.18 700.89,-36.18 697.39,-46.18 704.39,-46.18"/>
<text text-anchor="middle" x="716.39" y="-57.8" font-family="Times New Roman,serif" font-size="14.00">0.045</text>
</g>
<!-- 6 -->
<g id="node7" class="node">
<title>6</title>
<g id="a_node7"><a xlink:href="to_mechanical engineer.svg" xlink:title="mechanical engineer">
<ellipse fill="none" stroke="black" cx="862.89" cy="-105" rx="83.39" ry="18"/>
<text text-anchor="middle" x="862.89" y="-101.3" font-family="Times New Roman,serif" font-size="14.00">mechanical engineer</text>
</a>
</g>
</g>
<!-- 6&#45;&gt;1 -->
<g id="edge7" class="edge">
<title>6&#45;&gt;1</title>
<path fill="none" stroke="black" d="M832.8,-88.21C806.05,-74.18 766.84,-53.6 738.12,-38.53"/>
<polygon fill="black" stroke="black" points="739.68,-35.4 729.2,-33.85 736.43,-41.6 739.68,-35.4"/>
<text text-anchor="middle" x="807.39" y="-57.8" font-family="Times New Roman,serif" font-size="14.00">0.034</text>
</g>
<!-- 7 -->
<g id="node8" class="node">
<title>7</title>
<g id="a_node8"><a xlink:href="to_it consultant.svg" xlink:title="it consultant">
<ellipse fill="none" stroke="black" cx="1018.89" cy="-105" rx="54.69" ry="18"/>
<text text-anchor="middle" x="1018.89" y="-101.3" font-family="Times New Roman,serif" font-size="14.00">it consultant</text>
</a>
</g>
</g>
<!-- 7&#45;&gt;1 -->
<g id="edge8" class="edge">
<title>7&#45;&gt;1</title>
<path fill="none" stroke="black" d="M977.97,-93.06C920.65,-77.74 816.42,-49.88 753.43,-33.04"/>
<polygon fill="black" stroke="black" points="754.25,-29.64 743.69,-30.44 752.44,-36.4 754.25,-29.64"/>
<text text-anchor="middle" x="895.39" y="-57.8" font-family="Times New Roman,serif" font-size="14.00">0.022</text>
</g>
<!-- 8 -->
<g id="node9" class="node">
<title>8</title>
<g id="a_node9"><a xlink:href="to_laboratory technician.svg" xlink:title="laboratory technician">
<ellipse fill="none" stroke="black" cx="1177.89" cy="-105" rx="86.38" ry="18"/>
<text text-anchor="middle" x="1177.89" y="-101.3" font-family="Times New Roman,serif" font-size="14.00">laboratory technician</text>
</a>
</g>
</g>
<!-- 8&#45;&gt;1 -->
<g id="edge9" class="edge">
<title>8&#45;&gt;1</title>
<path fill="none" stroke="black" d="M1117.65,-92.09C1064.4,-81.67 984.58,-66.32 914.89,-54 863.59,-44.93 805.21,-35.44 762.4,-28.63"/>
<polygon fill="black" stroke="black" points="762.84,-25.15 752.41,-27.04 761.74,-32.07 762.84,-25.15"/>
<text text-anchor="middle" x="1009.39" y="-57.8" font-family="Times New Roman,serif" font-size="14.00">0.022</text>
</g>
<!-- 9 -->
<g id="node10" class="node">
<title>9</title>
<g id="a_node10"><a xlink:href="to_librarian.svg" xlink:title="librarian">
<ellipse fill="none" stroke="black" cx="1321.89" cy="-105" rx="39.79" ry="18"/>
<text text-anchor="middle" x="1321.89" y="-101.3" font-family="Times New Roman,serif" font-size="14.00">librarian</text>
</a>
</g>
</g>
<!-- 9&#45;&gt;1 -->
<g id="edge10" class="edge">
<title>9&#45;&gt;1</title>
<path fill="none" stroke="black" d="M1292.64,-92.78C1286.2,-90.62 1279.38,-88.55 1272.89,-87 1094.32,-44.4 877.71,-27.93 769.45,-22.02"/>
<polygon fill="black" stroke="black" points="769.49,-18.52 759.32,-21.48 769.12,-25.51 769.49,-18.52"/>
<text text-anchor="middle" x="1195.39" y="-57.8" font-family="Times New Roman,serif" font-size="14.00">0.022</text>
</g>
</g>
</svg>
