<?xml version="1.0" encoding="UTF-8" standalone="no"?>
<!DOCTYPE svg PUBLIC "-//W3C//DTD SVG 1.1//EN"
 "http://www.w3.org/Graphics/SVG/1.1/DTD/svg11.dtd">
<!-- Generated by graphviz version 2.44.1 (20200629.0800)
 -->
<!-- Title: test Pages: 1 -->
<svg width="1450pt" height="218pt"
 viewBox="0.00 0.00 1449.83 218.00" xmlns="http://www.w3.org/2000/svg" xmlns:xlink="http://www.w3.org/1999/xlink">
<g id="graph0" class="graph" transform="scale(1 1) rotate(0) translate(4 214)">
<title>test</title>
<polygon fill="white" stroke="transparent" points="-4,4 -4,-214 1445.83,-214 1445.83,4 -4,4"/>
<!-- 0 -->
<g id="node1" class="node">
<title>0</title>
<g id="a_node1"><a xlink:href="pharmacovigilance officer.svg" xlink:title="pharmacovigilance officer">
<ellipse fill="none" stroke="black" cx="121.34" cy="-192" rx="104.78" ry="18"/>
<text text-anchor="middle" x="121.34" y="-188.3" font-family="Times New Roman,serif" font-size="14.00">pharmacovigilance officer</text>
</a>
</g>
</g>
<!-- 1 -->
<g id="node2" class="node">
<title>1</title>
<g id="a_node2"><a xlink:href="tourism officer.svg" xlink:title="tourism officer">
<ellipse fill="none" stroke="black" cx="543.34" cy="-105" rx="64.19" ry="18"/>
<text text-anchor="middle" x="543.34" y="-101.3" font-family="Times New Roman,serif" font-size="14.00">tourism officer</text>
</a>
</g>
</g>
<!-- 0&#45;&gt;1 -->
<g id="edge1" class="edge">
<title>0&#45;&gt;1</title>
<path fill="none" stroke="black" d="M186.82,-177.81C267.58,-161.55 403.79,-134.11 482.4,-118.27"/>
<polygon fill="black" stroke="black" points="483.52,-121.62 492.64,-116.21 482.14,-114.76 483.52,-121.62"/>
<text text-anchor="middle" x="373.84" y="-144.8" font-family="Times New Roman,serif" font-size="14.00">0.083</text>
</g>
<!-- 1&#45;&gt;1 -->
<g id="edge10" class="edge">
<title>1&#45;&gt;1</title>
<path fill="none" stroke="black" d="M601.81,-112.72C615.55,-112.08 625.69,-109.51 625.69,-105 625.69,-101.69 620.22,-99.42 611.88,-98.2"/>
<polygon fill="black" stroke="black" points="612.09,-94.7 601.81,-97.28 611.46,-101.67 612.09,-94.7"/>
<text text-anchor="middle" x="641.19" y="-101.3" font-family="Times New Roman,serif" font-size="14.00">0.161</text>
</g>
<!-- 3 -->
<g id="node4" class="node">
<title>3</title>
<g id="a_node4"><a xlink:href="barristers clerk.svg" xlink:title="barristers clerk">
<ellipse fill="none" stroke="black" cx="64.34" cy="-18" rx="64.19" ry="18"/>
<text text-anchor="middle" x="64.34" y="-14.3" font-family="Times New Roman,serif" font-size="14.00">barristers clerk</text>
</a>
</g>
</g>
<!-- 1&#45;&gt;3 -->
<g id="edge11" class="edge">
<title>1&#45;&gt;3</title>
<path fill="none" stroke="black" d="M479.31,-102.7C380.3,-99.99 195.03,-91.94 133.34,-69 117.35,-63.05 101.75,-52.31 89.45,-42.3"/>
<polygon fill="black" stroke="black" points="91.39,-39.35 81.49,-35.56 86.86,-44.69 91.39,-39.35"/>
<text text-anchor="middle" x="148.84" y="-57.8" font-family="Times New Roman,serif" font-size="14.00">0.096</text>
</g>
<!-- 5 -->
<g id="node6" class="node">
<title>5</title>
<g id="a_node6"><a xlink:href="careers adviser.svg" xlink:title="careers adviser">
<ellipse fill="none" stroke="black" cx="211.34" cy="-18" rx="64.99" ry="18"/>
<text text-anchor="middle" x="211.34" y="-14.3" font-family="Times New Roman,serif" font-size="14.00">careers adviser</text>
</a>
</g>
</g>
<!-- 1&#45;&gt;5 -->
<g id="edge18" class="edge">
<title>1&#45;&gt;5</title>
<path fill="none" stroke="black" d="M479.44,-102.48C427.42,-99.52 352.79,-91.31 291.34,-69 273.24,-62.43 254.89,-51.34 240.34,-41.28"/>
<polygon fill="black" stroke="black" points="241.98,-38.15 231.8,-35.19 237.91,-43.85 241.98,-38.15"/>
<text text-anchor="middle" x="306.84" y="-57.8" font-family="Times New Roman,serif" font-size="14.00">0.032</text>
</g>
<!-- 8 -->
<g id="node9" class="node">
<title>8</title>
<g id="a_node9"><a xlink:href="education administrator.svg" xlink:title="education administrator">
<ellipse fill="none" stroke="black" cx="390.34" cy="-18" rx="95.58" ry="18"/>
<text text-anchor="middle" x="390.34" y="-14.3" font-family="Times New Roman,serif" font-size="14.00">education administrator</text>
</a>
</g>
</g>
<!-- 1&#45;&gt;8 -->
<g id="edge19" class="edge">
<title>1&#45;&gt;8</title>
<path fill="none" stroke="black" d="M487.09,-96.1C465.61,-91 441.86,-82.66 423.34,-69 414.9,-62.77 407.98,-53.68 402.7,-44.95"/>
<polygon fill="black" stroke="black" points="405.71,-43.17 397.8,-36.12 399.59,-46.57 405.71,-43.17"/>
<text text-anchor="middle" x="438.84" y="-57.8" font-family="Times New Roman,serif" font-size="14.00">0.032</text>
</g>
<!-- 10 -->
<g id="node11" class="node">
<title>10</title>
<g id="a_node11"><a xlink:href="housing adviser.svg" xlink:title="housing adviser">
<ellipse fill="none" stroke="black" cx="571.34" cy="-18" rx="67.69" ry="18"/>
<text text-anchor="middle" x="571.34" y="-14.3" font-family="Times New Roman,serif" font-size="14.00">housing adviser</text>
</a>
</g>
</g>
<!-- 1&#45;&gt;10 -->
<g id="edge12" class="edge">
<title>1&#45;&gt;10</title>
<path fill="none" stroke="black" d="M549.01,-86.8C552.88,-75.05 558.09,-59.24 562.5,-45.84"/>
<polygon fill="black" stroke="black" points="565.88,-46.77 565.69,-36.18 559.23,-44.58 565.88,-46.77"/>
<text text-anchor="middle" x="574.84" y="-57.8" font-family="Times New Roman,serif" font-size="14.00">0.096</text>
</g>
<!-- 11 -->
<g id="node12" class="node">
<title>11</title>
<g id="a_node12"><a xlink:href="warehouse manager.svg" xlink:title="warehouse manager">
<ellipse fill="none" stroke="black" cx="738.34" cy="-18" rx="81.79" ry="18"/>
<text text-anchor="middle" x="738.34" y="-14.3" font-family="Times New Roman,serif" font-size="14.00">warehouse manager</text>
</a>
</g>
</g>
<!-- 1&#45;&gt;11 -->
<g id="edge13" class="edge">
<title>1&#45;&gt;11</title>
<path fill="none" stroke="black" d="M576.87,-89.39C609.25,-75.27 658.5,-53.8 694.1,-38.29"/>
<polygon fill="black" stroke="black" points="695.52,-41.49 703.29,-34.28 692.72,-35.07 695.52,-41.49"/>
<text text-anchor="middle" x="668.84" y="-57.8" font-family="Times New Roman,serif" font-size="14.00">0.096</text>
</g>
<!-- 12 -->
<g id="node13" class="node">
<title>12</title>
<g id="a_node13"><a xlink:href="accountant.svg" xlink:title="accountant">
<ellipse fill="none" stroke="black" cx="888.34" cy="-18" rx="50.09" ry="18"/>
<text text-anchor="middle" x="888.34" y="-14.3" font-family="Times New Roman,serif" font-size="14.00">accountant</text>
</a>
</g>
</g>
<!-- 1&#45;&gt;12 -->
<g id="edge14" class="edge">
<title>1&#45;&gt;12</title>
<path fill="none" stroke="black" d="M592.1,-93.14C649.16,-80.27 746.42,-57.79 829.34,-36 833.18,-34.99 837.14,-33.92 841.12,-32.82"/>
<polygon fill="black" stroke="black" points="842.28,-36.13 850.96,-30.06 840.39,-29.39 842.28,-36.13"/>
<text text-anchor="middle" x="765.84" y="-57.8" font-family="Times New Roman,serif" font-size="14.00">0.064</text>
</g>
<!-- 13 -->
<g id="node14" class="node">
<title>13</title>
<g id="a_node14"><a xlink:href="investment analyst.svg" xlink:title="investment analyst">
<ellipse fill="none" stroke="black" cx="1033.34" cy="-18" rx="76.89" ry="18"/>
<text text-anchor="middle" x="1033.34" y="-14.3" font-family="Times New Roman,serif" font-size="14.00">investment analyst</text>
</a>
</g>
</g>
<!-- 1&#45;&gt;13 -->
<g id="edge15" class="edge">
<title>1&#45;&gt;13</title>
<path fill="none" stroke="black" d="M600.69,-96.62C649.82,-90.07 722.39,-79.89 785.34,-69 848.1,-58.14 919.34,-43.54 969.31,-32.92"/>
<polygon fill="black" stroke="black" points="970.27,-36.3 979.32,-30.79 968.81,-29.45 970.27,-36.3"/>
<text text-anchor="middle" x="875.84" y="-57.8" font-family="Times New Roman,serif" font-size="14.00">0.064</text>
</g>
<!-- 14 -->
<g id="node15" class="node">
<title>14</title>
<g id="a_node15"><a xlink:href="lecturer.svg" xlink:title="lecturer">
<ellipse fill="none" stroke="black" cx="1165.34" cy="-18" rx="37.89" ry="18"/>
<text text-anchor="middle" x="1165.34" y="-14.3" font-family="Times New Roman,serif" font-size="14.00">lecturer</text>
</a>
</g>
</g>
<!-- 1&#45;&gt;14 -->
<g id="edge16" class="edge">
<title>1&#45;&gt;14</title>
<path fill="none" stroke="black" d="M606.99,-101.98C714.25,-97.37 937.15,-82.55 1119.34,-36 1122.13,-35.29 1124.98,-34.47 1127.83,-33.58"/>
<polygon fill="black" stroke="black" points="1129.05,-36.87 1137.42,-30.37 1126.82,-30.23 1129.05,-36.87"/>
<text text-anchor="middle" x="1041.84" y="-57.8" font-family="Times New Roman,serif" font-size="14.00">0.064</text>
</g>
<!-- 15 -->
<g id="node16" class="node">
<title>15</title>
<g id="a_node16"><a xlink:href="tourist information manager.svg" xlink:title="tourist information manager">
<ellipse fill="none" stroke="black" cx="1331.34" cy="-18" rx="110.48" ry="18"/>
<text text-anchor="middle" x="1331.34" y="-14.3" font-family="Times New Roman,serif" font-size="14.00">tourist information manager</text>
</a>
</g>
</g>
<!-- 1&#45;&gt;15 -->
<g id="edge17" class="edge">
<title>1&#45;&gt;15</title>
<path fill="none" stroke="black" d="M606.97,-102.07C704.9,-98.57 898.36,-89.53 1061.34,-69 1128.58,-60.53 1204.4,-46.05 1258.53,-34.85"/>
<polygon fill="black" stroke="black" points="1259.31,-38.26 1268.38,-32.79 1257.88,-31.41 1259.31,-38.26"/>
<text text-anchor="middle" x="1172.84" y="-57.8" font-family="Times New Roman,serif" font-size="14.00">0.064</text>
</g>
<!-- 2 -->
<g id="node3" class="node">
<title>2</title>
<g id="a_node3"><a xlink:href="financial manager.svg" xlink:title="financial manager">
<ellipse fill="none" stroke="black" cx="317.34" cy="-192" rx="73.39" ry="18"/>
<text text-anchor="middle" x="317.34" y="-188.3" font-family="Times New Roman,serif" font-size="14.00">financial manager</text>
</a>
</g>
</g>
<!-- 2&#45;&gt;1 -->
<g id="edge2" class="edge">
<title>2&#45;&gt;1</title>
<path fill="none" stroke="black" d="M355.68,-176.58C394.7,-161.9 455.23,-139.14 496.94,-123.45"/>
<polygon fill="black" stroke="black" points="498.19,-126.72 506.32,-119.92 495.73,-120.17 498.19,-126.72"/>
<text text-anchor="middle" x="459.84" y="-144.8" font-family="Times New Roman,serif" font-size="14.00">0.055</text>
</g>
<!-- 3&#45;&gt;1 -->
<g id="edge3" class="edge">
<title>3&#45;&gt;1</title>
<path fill="none" stroke="black" d="M101.78,-32.78C134.28,-44.19 182.83,-59.97 226.34,-69 309.2,-86.2 406.1,-95.34 470.75,-99.91"/>
<polygon fill="black" stroke="black" points="470.62,-103.41 480.84,-100.6 471.11,-96.42 470.62,-103.41"/>
<text text-anchor="middle" x="241.84" y="-57.8" font-family="Times New Roman,serif" font-size="14.00">0.027</text>
</g>
<!-- 4 -->
<g id="node5" class="node">
<title>4</title>
<g id="a_node5"><a xlink:href="brand manager.svg" xlink:title="brand manager">
<ellipse fill="none" stroke="black" cx="473.34" cy="-192" rx="64.19" ry="18"/>
<text text-anchor="middle" x="473.34" y="-188.3" font-family="Times New Roman,serif" font-size="14.00">brand manager</text>
</a>
</g>
</g>
<!-- 4&#45;&gt;1 -->
<g id="edge4" class="edge">
<title>4&#45;&gt;1</title>
<path fill="none" stroke="black" d="M487.17,-174.21C497.43,-161.75 511.58,-144.57 523.11,-130.57"/>
<polygon fill="black" stroke="black" points="525.89,-132.7 529.54,-122.76 520.48,-128.25 525.89,-132.7"/>
<text text-anchor="middle" x="528.84" y="-144.8" font-family="Times New Roman,serif" font-size="14.00">0.027</text>
</g>
<!-- 5&#45;&gt;1 -->
<g id="edge5" class="edge">
<title>5&#45;&gt;1</title>
<path fill="none" stroke="black" d="M251.16,-32.25C284.2,-42.97 332.52,-58.04 375.34,-69 410.11,-77.9 449.36,-86.18 481.17,-92.44"/>
<polygon fill="black" stroke="black" points="480.74,-95.92 491.22,-94.4 482.08,-89.05 480.74,-95.92"/>
<text text-anchor="middle" x="390.84" y="-57.8" font-family="Times New Roman,serif" font-size="14.00">0.027</text>
</g>
<!-- 6 -->
<g id="node7" class="node">
<title>6</title>
<g id="a_node7"><a xlink:href="civil engineer.svg" xlink:title="civil engineer">
<ellipse fill="none" stroke="black" cx="613.34" cy="-192" rx="57.69" ry="18"/>
<text text-anchor="middle" x="613.34" y="-188.3" font-family="Times New Roman,serif" font-size="14.00">civil engineer</text>
</a>
</g>
</g>
<!-- 6&#45;&gt;1 -->
<g id="edge6" class="edge">
<title>6&#45;&gt;1</title>
<path fill="none" stroke="black" d="M599.51,-174.21C589.26,-161.75 575.11,-144.57 563.58,-130.57"/>
<polygon fill="black" stroke="black" points="566.2,-128.25 557.15,-122.76 560.8,-132.7 566.2,-128.25"/>
<text text-anchor="middle" x="598.84" y="-144.8" font-family="Times New Roman,serif" font-size="14.00">0.027</text>
</g>
<!-- 7 -->
<g id="node8" class="node">
<title>7</title>
<g id="a_node8"><a xlink:href="computer sales support.svg" xlink:title="computer sales support">
<ellipse fill="none" stroke="black" cx="785.34" cy="-192" rx="96.38" ry="18"/>
<text text-anchor="middle" x="785.34" y="-188.3" font-family="Times New Roman,serif" font-size="14.00">computer sales support</text>
</a>
</g>
</g>
<!-- 7&#45;&gt;1 -->
<g id="edge7" class="edge">
<title>7&#45;&gt;1</title>
<path fill="none" stroke="black" d="M742.08,-175.8C699.74,-160.93 635.37,-138.32 591.44,-122.89"/>
<polygon fill="black" stroke="black" points="592.44,-119.54 581.85,-119.52 590.12,-126.14 592.44,-119.54"/>
<text text-anchor="middle" x="694.84" y="-144.8" font-family="Times New Roman,serif" font-size="14.00">0.027</text>
</g>
<!-- 8&#45;&gt;1 -->
<g id="edge8" class="edge">
<title>8&#45;&gt;1</title>
<path fill="none" stroke="black" d="M419.67,-35.29C444.42,-49.04 479.98,-68.8 506.62,-83.6"/>
<polygon fill="black" stroke="black" points="505.2,-86.81 515.64,-88.61 508.6,-80.69 505.2,-86.81"/>
<text text-anchor="middle" x="491.84" y="-57.8" font-family="Times New Roman,serif" font-size="14.00">0.027</text>
</g>
<!-- 9 -->
<g id="node10" class="node">
<title>9</title>
<g id="a_node10"><a xlink:href="human resources officer.svg" xlink:title="human resources officer">
<ellipse fill="none" stroke="black" cx="998.34" cy="-192" rx="98.58" ry="18"/>
<text text-anchor="middle" x="998.34" y="-188.3" font-family="Times New Roman,serif" font-size="14.00">human resources officer</text>
</a>
</g>
</g>
<!-- 9&#45;&gt;1 -->
<g id="edge9" class="edge">
<title>9&#45;&gt;1</title>
<path fill="none" stroke="black" d="M931.7,-178.55C843.93,-162.15 690.79,-133.54 605.39,-117.59"/>
<polygon fill="black" stroke="black" points="605.79,-114.1 595.32,-115.71 604.5,-120.99 605.79,-114.1"/>
<text text-anchor="middle" x="812.84" y="-144.8" font-family="Times New Roman,serif" font-size="14.00">0.027</text>
</g>
</g>
</svg>
