<?xml version="1.0" encoding="UTF-8" standalone="no"?>
<!DOCTYPE svg PUBLIC "-//W3C//DTD SVG 1.1//EN"
 "http://www.w3.org/Graphics/SVG/1.1/DTD/svg11.dtd">
<!-- Generated by graphviz version 2.44.1 (20200629.0800)
 -->
<!-- Title: test Pages: 1 -->
<svg width="1450pt" height="218pt"
 viewBox="0.00 0.00 1449.89 218.00" xmlns="http://www.w3.org/2000/svg" xmlns:xlink="http://www.w3.org/1999/xlink">
<g id="graph0" class="graph" transform="scale(1 1) rotate(0) translate(4 214)">
<title>test</title>
<polygon fill="white" stroke="transparent" points="-4,4 -4,-214 1445.89,-214 1445.89,4 -4,4"/>
<!-- 0 -->
<g id="node1" class="node">
<title>0</title>
<g id="a_node1"><a xlink:href="it consultant.svg" xlink:title="it consultant">
<ellipse fill="none" stroke="black" cx="132.09" cy="-192" rx="54.69" ry="18"/>
<text text-anchor="middle" x="132.09" y="-188.3" font-family="Times New Roman,serif" font-size="14.00">it consultant</text>
</a>
</g>
</g>
<!-- 1 -->
<g id="node2" class="node">
<title>1</title>
<g id="a_node2"><a xlink:href="tourist information manager.svg" xlink:title="tourist information manager">
<ellipse fill="none" stroke="black" cx="455.09" cy="-105" rx="110.48" ry="18"/>
<text text-anchor="middle" x="455.09" y="-101.3" font-family="Times New Roman,serif" font-size="14.00">tourist information manager</text>
</a>
</g>
</g>
<!-- 0&#45;&gt;1 -->
<g id="edge1" class="edge">
<title>0&#45;&gt;1</title>
<path fill="none" stroke="black" d="M138.55,-173.74C143.69,-162.5 152.05,-148.56 164.09,-141 192.69,-123.05 269.82,-114.31 337.49,-110.05"/>
<polygon fill="black" stroke="black" points="338.05,-113.52 347.83,-109.42 337.63,-106.53 338.05,-113.52"/>
<text text-anchor="middle" x="179.59" y="-144.8" font-family="Times New Roman,serif" font-size="14.00">0.078</text>
</g>
<!-- 1&#45;&gt;0 -->
<g id="edge11" class="edge">
<title>1&#45;&gt;0</title>
<path fill="none" stroke="black" d="M399.02,-120.53C346.34,-134.22 265.33,-155.34 195.09,-174 191.03,-175.08 186.82,-176.2 182.59,-177.34"/>
<polygon fill="black" stroke="black" points="181.5,-174.01 172.75,-179.98 183.32,-180.77 181.5,-174.01"/>
<text text-anchor="middle" x="332.59" y="-144.8" font-family="Times New Roman,serif" font-size="14.00">0.080</text>
</g>
<!-- 1&#45;&gt;1 -->
<g id="edge10" class="edge">
<title>1&#45;&gt;1</title>
<path fill="none" stroke="black" d="M556.36,-112.25C572.52,-111.19 583.58,-108.77 583.58,-105 583.58,-102.08 576.97,-99.97 566.49,-98.68"/>
<polygon fill="black" stroke="black" points="566.64,-95.18 556.36,-97.75 566,-102.15 566.64,-95.18"/>
<text text-anchor="middle" x="599.08" y="-101.3" font-family="Times New Roman,serif" font-size="14.00">0.145</text>
</g>
<!-- 2 -->
<g id="node3" class="node">
<title>2</title>
<g id="a_node3"><a xlink:href="sales manager.svg" xlink:title="sales manager">
<ellipse fill="none" stroke="black" cx="61.09" cy="-18" rx="61.19" ry="18"/>
<text text-anchor="middle" x="61.09" y="-14.3" font-family="Times New Roman,serif" font-size="14.00">sales manager</text>
</a>
</g>
</g>
<!-- 1&#45;&gt;2 -->
<g id="edge14" class="edge">
<title>1&#45;&gt;2</title>
<path fill="none" stroke="black" d="M351.99,-98.43C273,-93.13 171.15,-83.73 132.09,-69 115.66,-62.8 99.49,-51.89 86.73,-41.84"/>
<polygon fill="black" stroke="black" points="88.83,-39.04 78.88,-35.42 84.4,-44.46 88.83,-39.04"/>
<text text-anchor="middle" x="147.59" y="-57.8" font-family="Times New Roman,serif" font-size="14.00">0.048</text>
</g>
<!-- 3 -->
<g id="node4" class="node">
<title>3</title>
<g id="a_node4"><a xlink:href="project manager.svg" xlink:title="project manager">
<ellipse fill="none" stroke="black" cx="209.09" cy="-18" rx="68.79" ry="18"/>
<text text-anchor="middle" x="209.09" y="-14.3" font-family="Times New Roman,serif" font-size="14.00">project manager</text>
</a>
</g>
</g>
<!-- 1&#45;&gt;3 -->
<g id="edge12" class="edge">
<title>1&#45;&gt;3</title>
<path fill="none" stroke="black" d="M370,-93.51C341.64,-88.24 310.35,-80.44 283.09,-69 266.68,-62.11 250.1,-51.34 236.8,-41.55"/>
<polygon fill="black" stroke="black" points="238.66,-38.57 228.58,-35.32 234.43,-44.15 238.66,-38.57"/>
<text text-anchor="middle" x="298.59" y="-57.8" font-family="Times New Roman,serif" font-size="14.00">0.064</text>
</g>
<!-- 5 -->
<g id="node6" class="node">
<title>5</title>
<g id="a_node6"><a xlink:href="pharmacovigilance officer.svg" xlink:title="pharmacovigilance officer">
<ellipse fill="none" stroke="black" cx="401.09" cy="-18" rx="104.78" ry="18"/>
<text text-anchor="middle" x="401.09" y="-14.3" font-family="Times New Roman,serif" font-size="14.00">pharmacovigilance officer</text>
</a>
</g>
</g>
<!-- 1&#45;&gt;5 -->
<g id="edge13" class="edge">
<title>1&#45;&gt;5</title>
<path fill="none" stroke="black" d="M416.87,-88.04C409.36,-83.08 402.46,-76.8 398.09,-69 394.3,-62.22 393.52,-54.08 394.11,-46.35"/>
<polygon fill="black" stroke="black" points="397.61,-46.65 395.62,-36.24 390.68,-45.62 397.61,-46.65"/>
<text text-anchor="middle" x="413.59" y="-57.8" font-family="Times New Roman,serif" font-size="14.00">0.048</text>
</g>
<!-- 10 -->
<g id="node11" class="node">
<title>10</title>
<g id="a_node11"><a xlink:href="careers adviser.svg" xlink:title="careers adviser">
<ellipse fill="none" stroke="black" cx="589.09" cy="-18" rx="64.99" ry="18"/>
<text text-anchor="middle" x="589.09" y="-14.3" font-family="Times New Roman,serif" font-size="14.00">careers adviser</text>
</a>
</g>
</g>
<!-- 1&#45;&gt;10 -->
<g id="edge15" class="edge">
<title>1&#45;&gt;10</title>
<path fill="none" stroke="black" d="M481.25,-87.41C502.5,-73.93 532.61,-54.83 555.61,-40.24"/>
<polygon fill="black" stroke="black" points="557.79,-43 564.36,-34.69 554.04,-37.09 557.79,-43"/>
<text text-anchor="middle" x="546.59" y="-57.8" font-family="Times New Roman,serif" font-size="14.00">0.032</text>
</g>
<!-- 11 -->
<g id="node12" class="node">
<title>11</title>
<g id="a_node12"><a xlink:href="community worker.svg" xlink:title="community worker">
<ellipse fill="none" stroke="black" cx="751.09" cy="-18" rx="79.09" ry="18"/>
<text text-anchor="middle" x="751.09" y="-14.3" font-family="Times New Roman,serif" font-size="14.00">community worker</text>
</a>
</g>
</g>
<!-- 1&#45;&gt;11 -->
<g id="edge16" class="edge">
<title>1&#45;&gt;11</title>
<path fill="none" stroke="black" d="M506.99,-89.1C559.28,-74.08 639.77,-50.97 693.88,-35.43"/>
<polygon fill="black" stroke="black" points="695.02,-38.75 703.66,-32.62 693.08,-32.02 695.02,-38.75"/>
<text text-anchor="middle" x="636.59" y="-57.8" font-family="Times New Roman,serif" font-size="14.00">0.032</text>
</g>
<!-- 12 -->
<g id="node13" class="node">
<title>12</title>
<g id="a_node13"><a xlink:href="education administrator.svg" xlink:title="education administrator">
<ellipse fill="none" stroke="black" cx="944.09" cy="-18" rx="95.58" ry="18"/>
<text text-anchor="middle" x="944.09" y="-14.3" font-family="Times New Roman,serif" font-size="14.00">education administrator</text>
</a>
</g>
</g>
<!-- 1&#45;&gt;12 -->
<g id="edge17" class="edge">
<title>1&#45;&gt;12</title>
<path fill="none" stroke="black" d="M527.77,-91.37C618.65,-75.57 773.55,-48.64 866.61,-32.47"/>
<polygon fill="black" stroke="black" points="867.28,-35.9 876.53,-30.74 866.08,-29.01 867.28,-35.9"/>
<text text-anchor="middle" x="743.59" y="-57.8" font-family="Times New Roman,serif" font-size="14.00">0.032</text>
</g>
<!-- 13 -->
<g id="node14" class="node">
<title>13</title>
<g id="a_node14"><a xlink:href="environmental health officer.svg" xlink:title="environmental health officer">
<ellipse fill="none" stroke="black" cx="1168.09" cy="-18" rx="110.48" ry="18"/>
<text text-anchor="middle" x="1168.09" y="-14.3" font-family="Times New Roman,serif" font-size="14.00">environmental health officer</text>
</a>
</g>
</g>
<!-- 1&#45;&gt;13 -->
<g id="edge18" class="edge">
<title>1&#45;&gt;13</title>
<path fill="none" stroke="black" d="M545.01,-94.52C661.44,-82.06 870.61,-59.04 1049.09,-36 1058.8,-34.75 1068.94,-33.38 1079.03,-31.99"/>
<polygon fill="black" stroke="black" points="1079.66,-35.44 1089.08,-30.59 1078.7,-28.5 1079.66,-35.44"/>
<text text-anchor="middle" x="917.59" y="-57.8" font-family="Times New Roman,serif" font-size="14.00">0.032</text>
</g>
<!-- 14 -->
<g id="node15" class="node">
<title>14</title>
<g id="a_node15"><a xlink:href="facilities manager.svg" xlink:title="facilities manager">
<ellipse fill="none" stroke="black" cx="1369.09" cy="-18" rx="72.59" ry="18"/>
<text text-anchor="middle" x="1369.09" y="-14.3" font-family="Times New Roman,serif" font-size="14.00">facilities manager</text>
</a>
</g>
</g>
<!-- 1&#45;&gt;14 -->
<g id="edge19" class="edge">
<title>1&#45;&gt;14</title>
<path fill="none" stroke="black" d="M561.35,-99.92C720.04,-92.79 1028.05,-74.94 1287.09,-36 1293.66,-35.01 1300.5,-33.84 1307.3,-32.57"/>
<polygon fill="black" stroke="black" points="1308.04,-35.99 1317.2,-30.66 1306.71,-29.12 1308.04,-35.99"/>
<text text-anchor="middle" x="1166.59" y="-57.8" font-family="Times New Roman,serif" font-size="14.00">0.032</text>
</g>
<!-- 2&#45;&gt;1 -->
<g id="edge2" class="edge">
<title>2&#45;&gt;1</title>
<path fill="none" stroke="black" d="M97.91,-32.39C129.85,-43.56 177.51,-59.2 220.09,-69 264.47,-79.22 314.28,-87.13 356.58,-92.83"/>
<polygon fill="black" stroke="black" points="356.23,-96.31 366.6,-94.15 357.15,-89.37 356.23,-96.31"/>
<text text-anchor="middle" x="235.59" y="-57.8" font-family="Times New Roman,serif" font-size="14.00">0.065</text>
</g>
<!-- 3&#45;&gt;1 -->
<g id="edge3" class="edge">
<title>3&#45;&gt;1</title>
<path fill="none" stroke="black" d="M249.14,-32.84C290.39,-47.09 354.95,-69.4 400.78,-85.23"/>
<polygon fill="black" stroke="black" points="399.67,-88.55 410.26,-88.51 401.95,-81.93 399.67,-88.55"/>
<text text-anchor="middle" x="362.59" y="-57.8" font-family="Times New Roman,serif" font-size="14.00">0.052</text>
</g>
<!-- 4 -->
<g id="node5" class="node">
<title>4</title>
<g id="a_node5"><a xlink:href="investment analyst.svg" xlink:title="investment analyst">
<ellipse fill="none" stroke="black" cx="281.09" cy="-192" rx="76.89" ry="18"/>
<text text-anchor="middle" x="281.09" y="-188.3" font-family="Times New Roman,serif" font-size="14.00">investment analyst</text>
</a>
</g>
</g>
<!-- 4&#45;&gt;1 -->
<g id="edge4" class="edge">
<title>4&#45;&gt;1</title>
<path fill="none" stroke="black" d="M313.01,-175.41C341.02,-161.73 381.96,-141.73 412.71,-126.7"/>
<polygon fill="black" stroke="black" points="414.45,-129.75 421.9,-122.21 411.38,-123.46 414.45,-129.75"/>
<text text-anchor="middle" x="394.59" y="-144.8" font-family="Times New Roman,serif" font-size="14.00">0.039</text>
</g>
<!-- 5&#45;&gt;1 -->
<g id="edge5" class="edge">
<title>5&#45;&gt;1</title>
<path fill="none" stroke="black" d="M418.57,-35.88C423.66,-41.35 428.96,-47.65 433.09,-54 437.75,-61.15 441.86,-69.45 445.22,-77.21"/>
<polygon fill="black" stroke="black" points="442.04,-78.69 449.07,-86.63 448.52,-76.05 442.04,-78.69"/>
<text text-anchor="middle" x="457.59" y="-57.8" font-family="Times New Roman,serif" font-size="14.00">0.039</text>
</g>
<!-- 6 -->
<g id="node7" class="node">
<title>6</title>
<g id="a_node7"><a xlink:href="planning technician.svg" xlink:title="planning technician">
<ellipse fill="none" stroke="black" cx="455.09" cy="-192" rx="79.09" ry="18"/>
<text text-anchor="middle" x="455.09" y="-188.3" font-family="Times New Roman,serif" font-size="14.00">planning technician</text>
</a>
</g>
</g>
<!-- 6&#45;&gt;1 -->
<g id="edge6" class="edge">
<title>6&#45;&gt;1</title>
<path fill="none" stroke="black" d="M455.09,-173.8C455.09,-162.16 455.09,-146.55 455.09,-133.24"/>
<polygon fill="black" stroke="black" points="458.59,-133.18 455.09,-123.18 451.59,-133.18 458.59,-133.18"/>
<text text-anchor="middle" x="470.59" y="-144.8" font-family="Times New Roman,serif" font-size="14.00">0.039</text>
</g>
<!-- 7 -->
<g id="node8" class="node">
<title>7</title>
<g id="a_node8"><a xlink:href="production manager.svg" xlink:title="production manager">
<ellipse fill="none" stroke="black" cx="635.09" cy="-192" rx="83.39" ry="18"/>
<text text-anchor="middle" x="635.09" y="-188.3" font-family="Times New Roman,serif" font-size="14.00">production manager</text>
</a>
</g>
</g>
<!-- 7&#45;&gt;1 -->
<g id="edge7" class="edge">
<title>7&#45;&gt;1</title>
<path fill="none" stroke="black" d="M602.08,-175.41C572.98,-161.67 530.38,-141.55 498.53,-126.51"/>
<polygon fill="black" stroke="black" points="499.97,-123.32 489.43,-122.21 496.98,-129.65 499.97,-123.32"/>
<text text-anchor="middle" x="571.59" y="-144.8" font-family="Times New Roman,serif" font-size="14.00">0.039</text>
</g>
<!-- 8 -->
<g id="node9" class="node">
<title>8</title>
<g id="a_node9"><a xlink:href="academic librarian.svg" xlink:title="academic librarian">
<ellipse fill="none" stroke="black" cx="812.09" cy="-192" rx="76.09" ry="18"/>
<text text-anchor="middle" x="812.09" y="-188.3" font-family="Times New Roman,serif" font-size="14.00">academic librarian</text>
</a>
</g>
</g>
<!-- 8&#45;&gt;1 -->
<g id="edge8" class="edge">
<title>8&#45;&gt;1</title>
<path fill="none" stroke="black" d="M760.56,-178.73C698.45,-163.94 593.81,-139.03 524.59,-122.55"/>
<polygon fill="black" stroke="black" points="525.19,-119.09 514.65,-120.18 523.56,-125.9 525.19,-119.09"/>
<text text-anchor="middle" x="669.59" y="-144.8" font-family="Times New Roman,serif" font-size="14.00">0.026</text>
</g>
<!-- 9 -->
<g id="node10" class="node">
<title>9</title>
<g id="a_node10"><a xlink:href="financial manager.svg" xlink:title="financial manager">
<ellipse fill="none" stroke="black" cx="979.09" cy="-192" rx="73.39" ry="18"/>
<text text-anchor="middle" x="979.09" y="-188.3" font-family="Times New Roman,serif" font-size="14.00">financial manager</text>
</a>
</g>
</g>
<!-- 9&#45;&gt;1 -->
<g id="edge9" class="edge">
<title>9&#45;&gt;1</title>
<path fill="none" stroke="black" d="M925.79,-179.57C916.25,-177.63 906.39,-175.7 897.09,-174 776.49,-151.94 636.49,-131.22 546.92,-118.58"/>
<polygon fill="black" stroke="black" points="547.18,-115.09 536.79,-117.16 546.2,-122.02 547.18,-115.09"/>
<text text-anchor="middle" x="803.59" y="-144.8" font-family="Times New Roman,serif" font-size="14.00">0.026</text>
</g>
</g>
</svg>
