<?xml version="1.0" encoding="UTF-8" standalone="no"?>
<!DOCTYPE svg PUBLIC "-//W3C//DTD SVG 1.1//EN"
 "http://www.w3.org/Graphics/SVG/1.1/DTD/svg11.dtd">
<!-- Generated by graphviz version 2.44.1 (20200629.0800)
 -->
<!-- Title: tourist_information_manager Pages: 1 -->
<svg width="1473pt" height="218pt"
 viewBox="0.00 0.00 1472.89 218.00" xmlns="http://www.w3.org/2000/svg" xmlns:xlink="http://www.w3.org/1999/xlink">
<g id="graph0" class="graph" transform="scale(1 1) rotate(0) translate(4 214)">
<title>tourist_information_manager</title>
<polygon fill="white" stroke="transparent" points="-4,4 -4,-214 1468.89,-214 1468.89,4 -4,4"/>
<!-- 0 -->
<g id="node1" class="node">
<title>0</title>
<g id="a_node1"><a xlink:href="it consultant.svg" xlink:title="it consultant">
<ellipse fill="none" stroke="black" cx="274.09" cy="-192" rx="54.69" ry="18"/>
<text text-anchor="middle" x="274.09" y="-188.3" font-family="Times New Roman,serif" font-size="14.00">it consultant</text>
</a>
</g>
</g>
<!-- 1 -->
<g id="node2" class="node">
<title>1</title>
<g id="a_node2"><a xlink:href="tourist information manager.svg" xlink:title="tourist information manager">
<ellipse fill="none" stroke="black" cx="516.09" cy="-105" rx="110.48" ry="18"/>
<text text-anchor="middle" x="516.09" y="-101.3" font-family="Times New Roman,serif" font-size="14.00">tourist information manager</text>
</a>
</g>
</g>
<!-- 0&#45;&gt;1 -->
<g id="edge1" class="edge">
<title>0&#45;&gt;1</title>
<path fill="none" stroke="black" d="M281.33,-173.91C286.97,-162.74 295.9,-148.82 308.09,-141 325.79,-129.65 369.45,-121.45 412.22,-115.84"/>
<polygon fill="black" stroke="black" points="412.71,-119.31 422.19,-114.58 411.83,-112.36 412.71,-119.31"/>
<text text-anchor="middle" x="323.59" y="-144.8" font-family="Times New Roman,serif" font-size="14.00">0.082</text>
</g>
<!-- 1&#45;&gt;0 -->
<g id="edge11" class="edge">
<title>1&#45;&gt;0</title>
<path fill="none" stroke="black" d="M471.7,-121.59C428.49,-136.77 363.13,-159.73 319.56,-175.03"/>
<polygon fill="black" stroke="black" points="318.34,-171.75 310.06,-178.37 320.66,-178.35 318.34,-171.75"/>
<text text-anchor="middle" x="425.59" y="-144.8" font-family="Times New Roman,serif" font-size="14.00">0.067</text>
</g>
<!-- 1&#45;&gt;1 -->
<g id="edge10" class="edge">
<title>1&#45;&gt;1</title>
<path fill="none" stroke="black" d="M617.36,-112.25C633.52,-111.19 644.58,-108.77 644.58,-105 644.58,-102.08 637.97,-99.97 627.49,-98.68"/>
<polygon fill="black" stroke="black" points="627.64,-95.18 617.36,-97.75 627,-102.15 627.64,-95.18"/>
<text text-anchor="middle" x="660.08" y="-101.3" font-family="Times New Roman,serif" font-size="14.00">0.152</text>
</g>
<!-- 2 -->
<g id="node3" class="node">
<title>2</title>
<g id="a_node3"><a xlink:href="sales manager.svg" xlink:title="sales manager">
<ellipse fill="none" stroke="black" cx="61.09" cy="-18" rx="61.19" ry="18"/>
<text text-anchor="middle" x="61.09" y="-14.3" font-family="Times New Roman,serif" font-size="14.00">sales manager</text>
</a>
</g>
</g>
<!-- 1&#45;&gt;2 -->
<g id="edge14" class="edge">
<title>1&#45;&gt;2</title>
<path fill="none" stroke="black" d="M410.66,-99.5C317.84,-94.56 190.17,-85.1 142.09,-69 123.36,-62.73 104.46,-51.41 89.64,-41.13"/>
<polygon fill="black" stroke="black" points="91.58,-38.21 81.41,-35.24 87.5,-43.91 91.58,-38.21"/>
<text text-anchor="middle" x="157.59" y="-57.8" font-family="Times New Roman,serif" font-size="14.00">0.050</text>
</g>
<!-- 3 -->
<g id="node4" class="node">
<title>3</title>
<g id="a_node4"><a xlink:href="investment analyst.svg" xlink:title="investment analyst">
<ellipse fill="none" stroke="black" cx="217.09" cy="-18" rx="76.89" ry="18"/>
<text text-anchor="middle" x="217.09" y="-14.3" font-family="Times New Roman,serif" font-size="14.00">investment analyst</text>
</a>
</g>
</g>
<!-- 1&#45;&gt;3 -->
<g id="edge19" class="edge">
<title>1&#45;&gt;3</title>
<path fill="none" stroke="black" d="M418.71,-96.43C380.56,-91.38 336.95,-82.98 299.09,-69 280.79,-62.24 262.08,-51.21 247.17,-41.23"/>
<polygon fill="black" stroke="black" points="249.08,-38.3 238.86,-35.51 245.11,-44.06 249.08,-38.3"/>
<text text-anchor="middle" x="314.59" y="-57.8" font-family="Times New Roman,serif" font-size="14.00">0.033</text>
</g>
<!-- 4 -->
<g id="node5" class="node">
<title>4</title>
<g id="a_node5"><a xlink:href="pharmacovigilance officer.svg" xlink:title="pharmacovigilance officer">
<ellipse fill="none" stroke="black" cx="416.09" cy="-18" rx="104.78" ry="18"/>
<text text-anchor="middle" x="416.09" y="-14.3" font-family="Times New Roman,serif" font-size="14.00">pharmacovigilance officer</text>
</a>
</g>
</g>
<!-- 1&#45;&gt;4 -->
<g id="edge13" class="edge">
<title>1&#45;&gt;4</title>
<path fill="none" stroke="black" d="M455.02,-89.86C444.08,-84.87 433.75,-78.11 426.09,-69 420.73,-62.61 417.96,-54.16 416.6,-46.02"/>
<polygon fill="black" stroke="black" points="420.08,-45.63 415.54,-36.05 413.12,-46.37 420.08,-45.63"/>
<text text-anchor="middle" x="441.59" y="-57.8" font-family="Times New Roman,serif" font-size="14.00">0.050</text>
</g>
<!-- 7 -->
<g id="node8" class="node">
<title>7</title>
<g id="a_node8"><a xlink:href="project manager.svg" xlink:title="project manager">
<ellipse fill="none" stroke="black" cx="608.09" cy="-18" rx="68.79" ry="18"/>
<text text-anchor="middle" x="608.09" y="-14.3" font-family="Times New Roman,serif" font-size="14.00">project manager</text>
</a>
</g>
</g>
<!-- 1&#45;&gt;7 -->
<g id="edge12" class="edge">
<title>1&#45;&gt;7</title>
<path fill="none" stroke="black" d="M522.48,-86.65C526.99,-76.21 533.88,-63.2 543.09,-54 549.09,-48.01 556.33,-42.78 563.76,-38.32"/>
<polygon fill="black" stroke="black" points="565.49,-41.36 572.52,-33.43 562.08,-35.25 565.49,-41.36"/>
<text text-anchor="middle" x="558.59" y="-57.8" font-family="Times New Roman,serif" font-size="14.00">0.067</text>
</g>
<!-- 10 -->
<g id="node11" class="node">
<title>10</title>
<g id="a_node11"><a xlink:href="community worker.svg" xlink:title="community worker">
<ellipse fill="none" stroke="black" cx="774.09" cy="-18" rx="79.09" ry="18"/>
<text text-anchor="middle" x="774.09" y="-14.3" font-family="Times New Roman,serif" font-size="14.00">community worker</text>
</a>
</g>
</g>
<!-- 1&#45;&gt;10 -->
<g id="edge15" class="edge">
<title>1&#45;&gt;10</title>
<path fill="none" stroke="black" d="M564.62,-88.77C583.79,-82.69 606,-75.59 626.09,-69 658.25,-58.45 694.23,-46.31 722.65,-36.63"/>
<polygon fill="black" stroke="black" points="724.04,-39.85 732.38,-33.31 721.78,-33.23 724.04,-39.85"/>
<text text-anchor="middle" x="686.59" y="-57.8" font-family="Times New Roman,serif" font-size="14.00">0.033</text>
</g>
<!-- 11 -->
<g id="node12" class="node">
<title>11</title>
<g id="a_node12"><a xlink:href="education administrator.svg" xlink:title="education administrator">
<ellipse fill="none" stroke="black" cx="967.09" cy="-18" rx="95.58" ry="18"/>
<text text-anchor="middle" x="967.09" y="-14.3" font-family="Times New Roman,serif" font-size="14.00">education administrator</text>
</a>
</g>
</g>
<!-- 1&#45;&gt;11 -->
<g id="edge16" class="edge">
<title>1&#45;&gt;11</title>
<path fill="none" stroke="black" d="M586.95,-91.07C622.69,-84.52 666.7,-76.4 706.09,-69 769.25,-57.13 840.93,-43.38 893.18,-33.31"/>
<polygon fill="black" stroke="black" points="893.87,-36.74 903.03,-31.4 892.55,-29.86 893.87,-36.74"/>
<text text-anchor="middle" x="799.59" y="-57.8" font-family="Times New Roman,serif" font-size="14.00">0.033</text>
</g>
<!-- 12 -->
<g id="node13" class="node">
<title>12</title>
<g id="a_node13"><a xlink:href="environmental health officer.svg" xlink:title="environmental health officer">
<ellipse fill="none" stroke="black" cx="1191.09" cy="-18" rx="110.48" ry="18"/>
<text text-anchor="middle" x="1191.09" y="-14.3" font-family="Times New Roman,serif" font-size="14.00">environmental health officer</text>
</a>
</g>
</g>
<!-- 1&#45;&gt;12 -->
<g id="edge17" class="edge">
<title>1&#45;&gt;12</title>
<path fill="none" stroke="black" d="M604.31,-94.16C664.78,-87.32 746.83,-77.89 819.09,-69 931.64,-55.16 959.74,-51.35 1072.09,-36 1081.53,-34.71 1091.39,-33.34 1101.21,-31.96"/>
<polygon fill="black" stroke="black" points="1102.01,-35.38 1111.42,-30.52 1101.03,-28.45 1102.01,-35.38"/>
<text text-anchor="middle" x="952.59" y="-57.8" font-family="Times New Roman,serif" font-size="14.00">0.033</text>
</g>
<!-- 13 -->
<g id="node14" class="node">
<title>13</title>
<g id="a_node14"><a xlink:href="facilities manager.svg" xlink:title="facilities manager">
<ellipse fill="none" stroke="black" cx="1392.09" cy="-18" rx="72.59" ry="18"/>
<text text-anchor="middle" x="1392.09" y="-14.3" font-family="Times New Roman,serif" font-size="14.00">facilities manager</text>
</a>
</g>
</g>
<!-- 1&#45;&gt;13 -->
<g id="edge18" class="edge">
<title>1&#45;&gt;13</title>
<path fill="none" stroke="black" d="M621.29,-99.38C773.81,-91.69 1064.92,-73.27 1310.09,-36 1316.66,-35 1323.5,-33.82 1330.29,-32.55"/>
<polygon fill="black" stroke="black" points="1331.04,-35.97 1340.19,-30.63 1329.71,-29.1 1331.04,-35.97"/>
<text text-anchor="middle" x="1173.59" y="-57.8" font-family="Times New Roman,serif" font-size="14.00">0.033</text>
</g>
<!-- 2&#45;&gt;1 -->
<g id="edge2" class="edge">
<title>2&#45;&gt;1</title>
<path fill="none" stroke="black" d="M99.82,-32.1C134.59,-43.4 187.24,-59.38 234.09,-69 291.87,-80.86 357.18,-89.27 410.39,-94.87"/>
<polygon fill="black" stroke="black" points="410.21,-98.37 420.52,-95.92 410.93,-91.41 410.21,-98.37"/>
<text text-anchor="middle" x="249.59" y="-57.8" font-family="Times New Roman,serif" font-size="14.00">0.068</text>
</g>
<!-- 3&#45;&gt;1 -->
<g id="edge3" class="edge">
<title>3&#45;&gt;1</title>
<path fill="none" stroke="black" d="M261.64,-32.76C295.22,-43.02 342.44,-57.25 384.09,-69 405.47,-75.03 428.87,-81.33 449.96,-86.9"/>
<polygon fill="black" stroke="black" points="449.22,-90.33 459.79,-89.49 451.01,-83.56 449.22,-90.33"/>
<text text-anchor="middle" x="399.59" y="-57.8" font-family="Times New Roman,serif" font-size="14.00">0.041</text>
</g>
<!-- 4&#45;&gt;1 -->
<g id="edge4" class="edge">
<title>4&#45;&gt;1</title>
<path fill="none" stroke="black" d="M435.81,-35.76C450.87,-48.56 471.8,-66.35 488.51,-80.56"/>
<polygon fill="black" stroke="black" points="486.45,-83.4 496.34,-87.21 490.99,-78.06 486.45,-83.4"/>
<text text-anchor="middle" x="487.59" y="-57.8" font-family="Times New Roman,serif" font-size="14.00">0.041</text>
</g>
<!-- 5 -->
<g id="node6" class="node">
<title>5</title>
<g id="a_node6"><a xlink:href="planning technician.svg" xlink:title="planning technician">
<ellipse fill="none" stroke="black" cx="426.09" cy="-192" rx="79.09" ry="18"/>
<text text-anchor="middle" x="426.09" y="-188.3" font-family="Times New Roman,serif" font-size="14.00">planning technician</text>
</a>
</g>
</g>
<!-- 5&#45;&gt;1 -->
<g id="edge5" class="edge">
<title>5&#45;&gt;1</title>
<path fill="none" stroke="black" d="M443.88,-174.21C457.22,-161.6 475.69,-144.16 490.61,-130.07"/>
<polygon fill="black" stroke="black" points="493.18,-132.46 498.04,-123.05 488.37,-127.37 493.18,-132.46"/>
<text text-anchor="middle" x="492.59" y="-144.8" font-family="Times New Roman,serif" font-size="14.00">0.041</text>
</g>
<!-- 6 -->
<g id="node7" class="node">
<title>6</title>
<g id="a_node7"><a xlink:href="production manager.svg" xlink:title="production manager">
<ellipse fill="none" stroke="black" cx="606.09" cy="-192" rx="83.39" ry="18"/>
<text text-anchor="middle" x="606.09" y="-188.3" font-family="Times New Roman,serif" font-size="14.00">production manager</text>
</a>
</g>
</g>
<!-- 6&#45;&gt;1 -->
<g id="edge6" class="edge">
<title>6&#45;&gt;1</title>
<path fill="none" stroke="black" d="M588.31,-174.21C574.96,-161.6 556.5,-144.16 541.58,-130.07"/>
<polygon fill="black" stroke="black" points="543.82,-127.37 534.15,-123.05 539.01,-132.46 543.82,-127.37"/>
<text text-anchor="middle" x="582.59" y="-144.8" font-family="Times New Roman,serif" font-size="14.00">0.041</text>
</g>
<!-- 7&#45;&gt;1 -->
<g id="edge7" class="edge">
<title>7&#45;&gt;1</title>
<path fill="none" stroke="black" d="M600.54,-36.27C595.34,-46.68 587.67,-59.68 578.09,-69 572.92,-74.04 566.88,-78.6 560.63,-82.64"/>
<polygon fill="black" stroke="black" points="558.8,-79.66 552.05,-87.83 562.42,-85.65 558.8,-79.66"/>
<text text-anchor="middle" x="606.59" y="-57.8" font-family="Times New Roman,serif" font-size="14.00">0.041</text>
</g>
<!-- 8 -->
<g id="node9" class="node">
<title>8</title>
<g id="a_node9"><a xlink:href="academic librarian.svg" xlink:title="academic librarian">
<ellipse fill="none" stroke="black" cx="783.09" cy="-192" rx="76.09" ry="18"/>
<text text-anchor="middle" x="783.09" y="-188.3" font-family="Times New Roman,serif" font-size="14.00">academic librarian</text>
</a>
</g>
</g>
<!-- 8&#45;&gt;1 -->
<g id="edge8" class="edge">
<title>8&#45;&gt;1</title>
<path fill="none" stroke="black" d="M739.6,-177.15C694.44,-162.78 623.56,-140.21 573.75,-124.35"/>
<polygon fill="black" stroke="black" points="574.67,-120.98 564.08,-121.28 572.55,-127.65 574.67,-120.98"/>
<text text-anchor="middle" x="681.59" y="-144.8" font-family="Times New Roman,serif" font-size="14.00">0.027</text>
</g>
<!-- 9 -->
<g id="node10" class="node">
<title>9</title>
<g id="a_node10"><a xlink:href="financial manager.svg" xlink:title="financial manager">
<ellipse fill="none" stroke="black" cx="950.09" cy="-192" rx="73.39" ry="18"/>
<text text-anchor="middle" x="950.09" y="-188.3" font-family="Times New Roman,serif" font-size="14.00">financial manager</text>
</a>
</g>
</g>
<!-- 9&#45;&gt;1 -->
<g id="edge9" class="edge">
<title>9&#45;&gt;1</title>
<path fill="none" stroke="black" d="M895.86,-179.68C886.6,-177.77 877.07,-175.82 868.09,-174 793.94,-158.99 775.38,-155.37 701.09,-141 666.63,-134.33 628.52,-127.1 595.9,-120.95"/>
<polygon fill="black" stroke="black" points="596.43,-117.49 585.96,-119.08 595.14,-124.37 596.43,-117.49"/>
<text text-anchor="middle" x="791.59" y="-144.8" font-family="Times New Roman,serif" font-size="14.00">0.027</text>
</g>
</g>
</svg>
