<?xml version="1.0" encoding="UTF-8" standalone="no"?>
<!DOCTYPE svg PUBLIC "-//W3C//DTD SVG 1.1//EN"
 "http://www.w3.org/Graphics/SVG/1.1/DTD/svg11.dtd">
<!-- Generated by graphviz version 2.44.1 (20200629.0800)
 -->
<!-- Title: town_and_country_planner Pages: 1 -->
<svg width="1468pt" height="218pt"
 viewBox="0.00 0.00 1468.04 218.00" xmlns="http://www.w3.org/2000/svg" xmlns:xlink="http://www.w3.org/1999/xlink">
<g id="graph0" class="graph" transform="scale(1 1) rotate(0) translate(4 214)">
<title>town_and_country_planner</title>
<polygon fill="white" stroke="transparent" points="-4,4 -4,-214 1464.04,-214 1464.04,4 -4,4"/>
<!-- 0 -->
<g id="node1" class="node">
<title>0</title>
<g id="a_node1"><a xlink:href="planning technician.svg" xlink:title="planning technician">
<ellipse fill="none" stroke="black" cx="170.44" cy="-192" rx="79.09" ry="18"/>
<text text-anchor="middle" x="170.44" y="-188.3" font-family="Times New Roman,serif" font-size="14.00">planning technician</text>
</a>
</g>
</g>
<!-- 1 -->
<g id="node2" class="node">
<title>1</title>
<g id="a_node2"><a xlink:href="town and country planner.svg" xlink:title="town and country planner">
<ellipse fill="none" stroke="black" cx="637.44" cy="-105" rx="103.18" ry="18"/>
<text text-anchor="middle" x="637.44" y="-101.3" font-family="Times New Roman,serif" font-size="14.00">town and country planner</text>
</a>
</g>
</g>
<!-- 0&#45;&gt;1 -->
<g id="edge1" class="edge">
<title>0&#45;&gt;1</title>
<path fill="none" stroke="black" d="M228.65,-179.64C238.58,-177.74 248.81,-175.8 258.44,-174 361.43,-154.81 480.36,-133.64 557.11,-120.09"/>
<polygon fill="black" stroke="black" points="557.95,-123.5 567.19,-118.32 556.74,-116.61 557.95,-123.5"/>
<text text-anchor="middle" x="447.94" y="-144.8" font-family="Times New Roman,serif" font-size="14.00">0.08</text>
</g>
<!-- 1&#45;&gt;1 -->
<g id="edge10" class="edge">
<title>1&#45;&gt;1</title>
<path fill="none" stroke="black" d="M731.82,-112.34C747.76,-111.32 758.78,-108.88 758.78,-105 758.78,-102 752.19,-99.86 741.83,-98.57"/>
<polygon fill="black" stroke="black" points="742.09,-95.08 731.82,-97.66 741.46,-102.06 742.09,-95.08"/>
<text text-anchor="middle" x="771.28" y="-101.3" font-family="Times New Roman,serif" font-size="14.00">0.16</text>
</g>
<!-- 3 -->
<g id="node4" class="node">
<title>3</title>
<g id="a_node4"><a xlink:href="building surveyor.svg" xlink:title="building surveyor">
<ellipse fill="none" stroke="black" cx="73.44" cy="-18" rx="73.39" ry="18"/>
<text text-anchor="middle" x="73.44" y="-14.3" font-family="Times New Roman,serif" font-size="14.00">building surveyor</text>
</a>
</g>
</g>
<!-- 1&#45;&gt;3 -->
<g id="edge11" class="edge">
<title>1&#45;&gt;3</title>
<path fill="none" stroke="black" d="M534.1,-103.74C445.81,-101.6 315.92,-93.88 205.44,-69 174.28,-61.98 140.63,-49.15 115.11,-38.24"/>
<polygon fill="black" stroke="black" points="116.31,-34.95 105.74,-34.17 113.52,-41.37 116.31,-34.95"/>
<text text-anchor="middle" x="217.94" y="-57.8" font-family="Times New Roman,serif" font-size="14.00">0.08</text>
</g>
<!-- 5 -->
<g id="node6" class="node">
<title>5</title>
<g id="a_node6"><a xlink:href="civil service administrator.svg" xlink:title="civil service administrator">
<ellipse fill="none" stroke="black" cx="267.44" cy="-18" rx="102.88" ry="18"/>
<text text-anchor="middle" x="267.44" y="-14.3" font-family="Times New Roman,serif" font-size="14.00">civil service administrator</text>
</a>
</g>
</g>
<!-- 1&#45;&gt;5 -->
<g id="edge14" class="edge">
<title>1&#45;&gt;5</title>
<path fill="none" stroke="black" d="M544.69,-97C496.57,-91.89 437.17,-83.28 385.44,-69 358.98,-61.69 330.62,-49.82 308.33,-39.47"/>
<polygon fill="black" stroke="black" points="309.72,-36.25 299.18,-35.15 306.73,-42.58 309.72,-36.25"/>
<text text-anchor="middle" x="397.94" y="-57.8" font-family="Times New Roman,serif" font-size="14.00">0.04</text>
</g>
<!-- 6 -->
<g id="node7" class="node">
<title>6</title>
<g id="a_node7"><a xlink:href="environmental manager.svg" xlink:title="environmental manager">
<ellipse fill="none" stroke="black" cx="481.44" cy="-18" rx="93.68" ry="18"/>
<text text-anchor="middle" x="481.44" y="-14.3" font-family="Times New Roman,serif" font-size="14.00">environmental manager</text>
</a>
</g>
</g>
<!-- 1&#45;&gt;6 -->
<g id="edge17" class="edge">
<title>1&#45;&gt;6</title>
<path fill="none" stroke="black" d="M570.54,-91.24C553.6,-86.07 536.08,-78.9 521.44,-69 511.95,-62.58 503.62,-53.23 497.05,-44.34"/>
<polygon fill="black" stroke="black" points="499.89,-42.3 491.32,-36.08 494.14,-46.29 499.89,-42.3"/>
<text text-anchor="middle" x="533.94" y="-57.8" font-family="Times New Roman,serif" font-size="14.00">0.04</text>
</g>
<!-- 10 -->
<g id="node11" class="node">
<title>10</title>
<g id="a_node11"><a xlink:href="project manager.svg" xlink:title="project manager">
<ellipse fill="none" stroke="black" cx="661.44" cy="-18" rx="68.79" ry="18"/>
<text text-anchor="middle" x="661.44" y="-14.3" font-family="Times New Roman,serif" font-size="14.00">project manager</text>
</a>
</g>
</g>
<!-- 1&#45;&gt;10 -->
<g id="edge12" class="edge">
<title>1&#45;&gt;10</title>
<path fill="none" stroke="black" d="M642.3,-86.8C645.62,-75.05 650.08,-59.24 653.86,-45.84"/>
<polygon fill="black" stroke="black" points="657.24,-46.75 656.59,-36.18 650.51,-44.85 657.24,-46.75"/>
<text text-anchor="middle" x="663.94" y="-57.8" font-family="Times New Roman,serif" font-size="14.00">0.08</text>
</g>
<!-- 11 -->
<g id="node12" class="node">
<title>11</title>
<g id="a_node12"><a xlink:href="academic librarian.svg" xlink:title="academic librarian">
<ellipse fill="none" stroke="black" cx="824.44" cy="-18" rx="76.09" ry="18"/>
<text text-anchor="middle" x="824.44" y="-14.3" font-family="Times New Roman,serif" font-size="14.00">academic librarian</text>
</a>
</g>
</g>
<!-- 1&#45;&gt;11 -->
<g id="edge13" class="edge">
<title>1&#45;&gt;11</title>
<path fill="none" stroke="black" d="M672.62,-88.01C703.53,-73.96 748.6,-53.48 781.6,-38.47"/>
<polygon fill="black" stroke="black" points="783.34,-41.53 791,-34.2 780.45,-35.15 783.34,-41.53"/>
<text text-anchor="middle" x="754.94" y="-57.8" font-family="Times New Roman,serif" font-size="14.00">0.04</text>
</g>
<!-- 12 -->
<g id="node13" class="node">
<title>12</title>
<g id="a_node13"><a xlink:href="curator.svg" xlink:title="curator">
<ellipse fill="none" stroke="black" cx="954.44" cy="-18" rx="36.29" ry="18"/>
<text text-anchor="middle" x="954.44" y="-14.3" font-family="Times New Roman,serif" font-size="14.00">curator</text>
</a>
</g>
</g>
<!-- 1&#45;&gt;12 -->
<g id="edge15" class="edge">
<title>1&#45;&gt;12</title>
<path fill="none" stroke="black" d="M699.86,-90.57C755.36,-78.11 838.48,-58.19 909.44,-36 912.04,-35.19 914.71,-34.3 917.39,-33.38"/>
<polygon fill="black" stroke="black" points="918.78,-36.61 927.01,-29.94 916.42,-30.01 918.78,-36.61"/>
<text text-anchor="middle" x="855.94" y="-57.8" font-family="Times New Roman,serif" font-size="14.00">0.04</text>
</g>
<!-- 13 -->
<g id="node14" class="node">
<title>13</title>
<g id="a_node14"><a xlink:href="customs officer.svg" xlink:title="customs officer">
<ellipse fill="none" stroke="black" cx="1076.44" cy="-18" rx="67.69" ry="18"/>
<text text-anchor="middle" x="1076.44" y="-14.3" font-family="Times New Roman,serif" font-size="14.00">customs officer</text>
</a>
</g>
</g>
<!-- 1&#45;&gt;13 -->
<g id="edge16" class="edge">
<title>1&#45;&gt;13</title>
<path fill="none" stroke="black" d="M718.52,-93.81C763.95,-87.63 821.55,-79.01 872.44,-69 923.18,-59.03 980.31,-44.76 1021.17,-34.02"/>
<polygon fill="black" stroke="black" points="1022.16,-37.38 1030.94,-31.44 1020.37,-30.61 1022.16,-37.38"/>
<text text-anchor="middle" x="951.94" y="-57.8" font-family="Times New Roman,serif" font-size="14.00">0.04</text>
</g>
<!-- 14 -->
<g id="node15" class="node">
<title>14</title>
<g id="a_node15"><a xlink:href="facilities manager.svg" xlink:title="facilities manager">
<ellipse fill="none" stroke="black" cx="1234.44" cy="-18" rx="72.59" ry="18"/>
<text text-anchor="middle" x="1234.44" y="-14.3" font-family="Times New Roman,serif" font-size="14.00">facilities manager</text>
</a>
</g>
</g>
<!-- 1&#45;&gt;14 -->
<g id="edge18" class="edge">
<title>1&#45;&gt;14</title>
<path fill="none" stroke="black" d="M727.92,-96.18C794.57,-90 887.34,-80.51 968.44,-69 1051.14,-57.27 1071.45,-51.91 1153.44,-36 1159.23,-34.88 1165.24,-33.68 1171.25,-32.46"/>
<polygon fill="black" stroke="black" points="1172.24,-35.83 1181.33,-30.39 1170.83,-28.97 1172.24,-35.83"/>
<text text-anchor="middle" x="1072.94" y="-57.8" font-family="Times New Roman,serif" font-size="14.00">0.04</text>
</g>
<!-- 15 -->
<g id="node16" class="node">
<title>15</title>
<g id="a_node16"><a xlink:href="housing adviser.svg" xlink:title="housing adviser">
<ellipse fill="none" stroke="black" cx="1392.44" cy="-18" rx="67.69" ry="18"/>
<text text-anchor="middle" x="1392.44" y="-14.3" font-family="Times New Roman,serif" font-size="14.00">housing adviser</text>
</a>
</g>
</g>
<!-- 1&#45;&gt;15 -->
<g id="edge19" class="edge">
<title>1&#45;&gt;15</title>
<path fill="none" stroke="black" d="M735.42,-99.27C868.04,-91.7 1111.68,-73.73 1316.44,-36 1321.93,-34.99 1327.62,-33.86 1333.31,-32.68"/>
<polygon fill="black" stroke="black" points="1334.44,-36.02 1343.5,-30.52 1332.99,-29.17 1334.44,-36.02"/>
<text text-anchor="middle" x="1217.94" y="-57.8" font-family="Times New Roman,serif" font-size="14.00">0.04</text>
</g>
<!-- 2 -->
<g id="node3" class="node">
<title>2</title>
<g id="a_node3"><a xlink:href="agricultural consultant.svg" xlink:title="agricultural consultant">
<ellipse fill="none" stroke="black" cx="357.44" cy="-192" rx="89.88" ry="18"/>
<text text-anchor="middle" x="357.44" y="-188.3" font-family="Times New Roman,serif" font-size="14.00">agricultural consultant</text>
</a>
</g>
</g>
<!-- 2&#45;&gt;1 -->
<g id="edge2" class="edge">
<title>2&#45;&gt;1</title>
<path fill="none" stroke="black" d="M404.63,-176.68C452.5,-162.14 526.74,-139.61 578.47,-123.9"/>
<polygon fill="black" stroke="black" points="579.63,-127.21 588.18,-120.95 577.6,-120.51 579.63,-127.21"/>
<text text-anchor="middle" x="526.94" y="-144.8" font-family="Times New Roman,serif" font-size="14.00">0.04</text>
</g>
<!-- 3&#45;&gt;1 -->
<g id="edge3" class="edge">
<title>3&#45;&gt;1</title>
<path fill="none" stroke="black" d="M124.21,-31.08C172.61,-42.24 247.65,-58.62 313.44,-69 387.58,-80.7 471.88,-89.67 535.91,-95.6"/>
<polygon fill="black" stroke="black" points="535.72,-99.1 546,-96.53 536.36,-92.13 535.72,-99.1"/>
<text text-anchor="middle" x="325.94" y="-57.8" font-family="Times New Roman,serif" font-size="14.00">0.04</text>
</g>
<!-- 4 -->
<g id="node5" class="node">
<title>4</title>
<g id="a_node5"><a xlink:href="catering manager.svg" xlink:title="catering manager">
<ellipse fill="none" stroke="black" cx="536.44" cy="-192" rx="71.49" ry="18"/>
<text text-anchor="middle" x="536.44" y="-188.3" font-family="Times New Roman,serif" font-size="14.00">catering manager</text>
</a>
</g>
</g>
<!-- 4&#45;&gt;1 -->
<g id="edge4" class="edge">
<title>4&#45;&gt;1</title>
<path fill="none" stroke="black" d="M555.92,-174.61C571.09,-161.84 592.36,-143.94 609.37,-129.62"/>
<polygon fill="black" stroke="black" points="611.94,-132.04 617.34,-122.92 607.43,-126.68 611.94,-132.04"/>
<text text-anchor="middle" x="605.94" y="-144.8" font-family="Times New Roman,serif" font-size="14.00">0.04</text>
</g>
<!-- 5&#45;&gt;1 -->
<g id="edge5" class="edge">
<title>5&#45;&gt;1</title>
<path fill="none" stroke="black" d="M324.87,-32.97C367.04,-43.16 425.74,-57.19 477.44,-69 506.08,-75.54 537.66,-82.5 565.15,-88.48"/>
<polygon fill="black" stroke="black" points="564.56,-91.93 575.08,-90.64 566.05,-85.09 564.56,-91.93"/>
<text text-anchor="middle" x="489.94" y="-57.8" font-family="Times New Roman,serif" font-size="14.00">0.04</text>
</g>
<!-- 6&#45;&gt;1 -->
<g id="edge6" class="edge">
<title>6&#45;&gt;1</title>
<path fill="none" stroke="black" d="M511.16,-35.19C535.96,-48.7 571.48,-68.06 598.54,-82.8"/>
<polygon fill="black" stroke="black" points="596.91,-85.9 607.37,-87.61 600.26,-79.75 596.91,-85.9"/>
<text text-anchor="middle" x="581.94" y="-57.8" font-family="Times New Roman,serif" font-size="14.00">0.04</text>
</g>
<!-- 7 -->
<g id="node8" class="node">
<title>7</title>
<g id="a_node8"><a xlink:href="government research officer.svg" xlink:title="government research officer">
<ellipse fill="none" stroke="black" cx="738.44" cy="-192" rx="112.38" ry="18"/>
<text text-anchor="middle" x="738.44" y="-188.3" font-family="Times New Roman,serif" font-size="14.00">government research officer</text>
</a>
</g>
</g>
<!-- 7&#45;&gt;1 -->
<g id="edge7" class="edge">
<title>7&#45;&gt;1</title>
<path fill="none" stroke="black" d="M718.49,-174.21C703.27,-161.4 682.13,-143.61 665.25,-129.4"/>
<polygon fill="black" stroke="black" points="667.26,-126.52 657.36,-122.76 662.75,-131.88 667.26,-126.52"/>
<text text-anchor="middle" x="706.94" y="-144.8" font-family="Times New Roman,serif" font-size="14.00">0.04</text>
</g>
<!-- 8 -->
<g id="node9" class="node">
<title>8</title>
<g id="a_node9"><a xlink:href="heritage manager.svg" xlink:title="heritage manager">
<ellipse fill="none" stroke="black" cx="940.44" cy="-192" rx="71.49" ry="18"/>
<text text-anchor="middle" x="940.44" y="-188.3" font-family="Times New Roman,serif" font-size="14.00">heritage manager</text>
</a>
</g>
</g>
<!-- 8&#45;&gt;1 -->
<g id="edge8" class="edge">
<title>8&#45;&gt;1</title>
<path fill="none" stroke="black" d="M894.42,-178.09C842.31,-163.47 757.14,-139.58 699.26,-123.34"/>
<polygon fill="black" stroke="black" points="700.07,-119.93 689.5,-120.6 698.18,-126.67 700.07,-119.93"/>
<text text-anchor="middle" x="819.94" y="-144.8" font-family="Times New Roman,serif" font-size="14.00">0.04</text>
</g>
<!-- 9 -->
<g id="node10" class="node">
<title>9</title>
<g id="a_node10"><a xlink:href="human resources officer.svg" xlink:title="human resources officer">
<ellipse fill="none" stroke="black" cx="1128.44" cy="-192" rx="98.58" ry="18"/>
<text text-anchor="middle" x="1128.44" y="-188.3" font-family="Times New Roman,serif" font-size="14.00">human resources officer</text>
</a>
</g>
</g>
<!-- 9&#45;&gt;1 -->
<g id="edge9" class="edge">
<title>9&#45;&gt;1</title>
<path fill="none" stroke="black" d="M1059.4,-179.05C969.6,-163.5 813.01,-136.39 717.93,-119.93"/>
<polygon fill="black" stroke="black" points="718.52,-116.48 708.07,-118.23 717.33,-123.38 718.52,-116.48"/>
<text text-anchor="middle" x="923.94" y="-144.8" font-family="Times New Roman,serif" font-size="14.00">0.04</text>
</g>
</g>
</svg>
