<?xml version="1.0" encoding="UTF-8" standalone="no"?>
<!DOCTYPE svg PUBLIC "-//W3C//DTD SVG 1.1//EN"
 "http://www.w3.org/Graphics/SVG/1.1/DTD/svg11.dtd">
<!-- Generated by graphviz version 2.44.1 (20200629.0800)
 -->
<!-- Title: test Pages: 1 -->
<svg width="1452pt" height="218pt"
 viewBox="0.00 0.00 1451.89 218.00" xmlns="http://www.w3.org/2000/svg" xmlns:xlink="http://www.w3.org/1999/xlink">
<g id="graph0" class="graph" transform="scale(1 1) rotate(0) translate(4 214)">
<title>test</title>
<polygon fill="white" stroke="transparent" points="-4,4 -4,-214 1447.89,-214 1447.89,4 -4,4"/>
<!-- 0 -->
<g id="node1" class="node">
<title>0</title>
<g id="a_node1"><a xlink:href="armed forces officer.svg" xlink:title="armed forces officer">
<ellipse fill="none" stroke="black" cx="92.4" cy="-192" rx="85.29" ry="18"/>
<text text-anchor="middle" x="92.4" y="-188.3" font-family="Times New Roman,serif" font-size="14.00">armed forces officer</text>
</a>
</g>
</g>
<!-- 1 -->
<g id="node2" class="node">
<title>1</title>
<g id="a_node2"><a xlink:href="trader.svg" xlink:title="trader">
<ellipse fill="none" stroke="black" cx="470.4" cy="-105" rx="31.7" ry="18"/>
<text text-anchor="middle" x="470.4" y="-101.3" font-family="Times New Roman,serif" font-size="14.00">trader</text>
</a>
</g>
</g>
<!-- 0&#45;&gt;1 -->
<g id="edge1" class="edge">
<title>0&#45;&gt;1</title>
<path fill="none" stroke="black" d="M147.98,-178.28C192.45,-168.12 256.41,-153.56 312.4,-141 352.96,-131.9 399.43,-121.62 431.41,-114.57"/>
<polygon fill="black" stroke="black" points="432.25,-117.97 441.27,-112.4 430.75,-111.14 432.25,-117.97"/>
<text text-anchor="middle" x="327.9" y="-144.8" font-family="Times New Roman,serif" font-size="14.00">0.125</text>
</g>
<!-- 1&#45;&gt;1 -->
<g id="edge14" class="edge">
<title>1&#45;&gt;1</title>
<path fill="none" stroke="black" d="M499.08,-112.83C510.59,-113.27 520.24,-110.66 520.24,-105 520.24,-101.11 515.68,-98.66 509.09,-97.65"/>
<polygon fill="black" stroke="black" points="509.24,-94.16 499.08,-97.17 508.9,-101.15 509.24,-94.16"/>
<text text-anchor="middle" x="535.74" y="-101.3" font-family="Times New Roman,serif" font-size="14.00">0.074</text>
</g>
<!-- 3 -->
<g id="node4" class="node">
<title>3</title>
<g id="a_node4"><a xlink:href="curator.svg" xlink:title="curator">
<ellipse fill="none" stroke="black" cx="36.4" cy="-18" rx="36.29" ry="18"/>
<text text-anchor="middle" x="36.4" y="-14.3" font-family="Times New Roman,serif" font-size="14.00">curator</text>
</a>
</g>
</g>
<!-- 1&#45;&gt;3 -->
<g id="edge16" class="edge">
<title>1&#45;&gt;3</title>
<path fill="none" stroke="black" d="M438.65,-103.51C359.65,-101.91 156.16,-95.27 94.4,-69 80.36,-63.03 67.25,-52.37 57.06,-42.41"/>
<polygon fill="black" stroke="black" points="59.36,-39.75 49.87,-35.03 54.34,-44.64 59.36,-39.75"/>
<text text-anchor="middle" x="109.9" y="-57.8" font-family="Times New Roman,serif" font-size="14.00">0.037</text>
</g>
<!-- 6 -->
<g id="node7" class="node">
<title>6</title>
<g id="a_node7"><a xlink:href="education administrator.svg" xlink:title="education administrator">
<ellipse fill="none" stroke="black" cx="186.4" cy="-18" rx="95.58" ry="18"/>
<text text-anchor="middle" x="186.4" y="-14.3" font-family="Times New Roman,serif" font-size="14.00">education administrator</text>
</a>
</g>
</g>
<!-- 1&#45;&gt;6 -->
<g id="edge11" class="edge">
<title>1&#45;&gt;6</title>
<path fill="none" stroke="black" d="M438.86,-101.68C383.68,-97.22 272.18,-86.33 237.4,-69 225.43,-63.04 214.5,-53.23 205.85,-43.87"/>
<polygon fill="black" stroke="black" points="208.37,-41.44 199.15,-36.21 203.1,-46.04 208.37,-41.44"/>
<text text-anchor="middle" x="252.9" y="-57.8" font-family="Times New Roman,serif" font-size="14.00">0.074</text>
</g>
<!-- 8 -->
<g id="node9" class="node">
<title>8</title>
<g id="a_node9"><a xlink:href="lecturer.svg" xlink:title="lecturer">
<ellipse fill="none" stroke="black" cx="337.4" cy="-18" rx="37.89" ry="18"/>
<text text-anchor="middle" x="337.4" y="-14.3" font-family="Times New Roman,serif" font-size="14.00">lecturer</text>
</a>
</g>
</g>
<!-- 1&#45;&gt;8 -->
<g id="edge19" class="edge">
<title>1&#45;&gt;8</title>
<path fill="none" stroke="black" d="M439.43,-100.73C415.65,-96.77 383.27,-88.07 361.4,-69 354.3,-62.82 349.13,-54.06 345.44,-45.61"/>
<polygon fill="black" stroke="black" points="348.6,-44.08 341.77,-35.99 342.06,-46.58 348.6,-44.08"/>
<text text-anchor="middle" x="376.9" y="-57.8" font-family="Times New Roman,serif" font-size="14.00">0.037</text>
</g>
<!-- 10 -->
<g id="node11" class="node">
<title>10</title>
<g id="a_node11"><a xlink:href="pharmacovigilance officer.svg" xlink:title="pharmacovigilance officer">
<ellipse fill="none" stroke="black" cx="497.4" cy="-18" rx="104.78" ry="18"/>
<text text-anchor="middle" x="497.4" y="-14.3" font-family="Times New Roman,serif" font-size="14.00">pharmacovigilance officer</text>
</a>
</g>
</g>
<!-- 1&#45;&gt;10 -->
<g id="edge10" class="edge">
<title>1&#45;&gt;10</title>
<path fill="none" stroke="black" d="M475.73,-87.21C479.48,-75.41 484.57,-59.38 488.88,-45.82"/>
<polygon fill="black" stroke="black" points="492.29,-46.64 491.98,-36.05 485.62,-44.52 492.29,-46.64"/>
<text text-anchor="middle" x="501.9" y="-57.8" font-family="Times New Roman,serif" font-size="14.00">0.111</text>
</g>
<!-- 11 -->
<g id="node12" class="node">
<title>11</title>
<g id="a_node12"><a xlink:href="outdoor pursuits manager.svg" xlink:title="outdoor pursuits manager">
<ellipse fill="none" stroke="black" cx="724.4" cy="-18" rx="103.98" ry="18"/>
<text text-anchor="middle" x="724.4" y="-14.3" font-family="Times New Roman,serif" font-size="14.00">outdoor pursuits manager</text>
</a>
</g>
</g>
<!-- 1&#45;&gt;11 -->
<g id="edge12" class="edge">
<title>1&#45;&gt;11</title>
<path fill="none" stroke="black" d="M497.1,-95.06C537.75,-81.46 616.03,-55.26 669.24,-37.46"/>
<polygon fill="black" stroke="black" points="670.5,-40.73 678.87,-34.24 668.28,-34.09 670.5,-40.73"/>
<text text-anchor="middle" x="628.9" y="-57.8" font-family="Times New Roman,serif" font-size="14.00">0.074</text>
</g>
<!-- 12 -->
<g id="node13" class="node">
<title>12</title>
<g id="a_node13"><a xlink:href="software developer.svg" xlink:title="software developer">
<ellipse fill="none" stroke="black" cx="926.4" cy="-18" rx="79.89" ry="18"/>
<text text-anchor="middle" x="926.4" y="-14.3" font-family="Times New Roman,serif" font-size="14.00">software developer</text>
</a>
</g>
</g>
<!-- 1&#45;&gt;12 -->
<g id="edge13" class="edge">
<title>1&#45;&gt;12</title>
<path fill="none" stroke="black" d="M500.38,-98.5C563,-87.01 712.26,-59.54 837.4,-36 843.94,-34.77 850.75,-33.48 857.57,-32.19"/>
<polygon fill="black" stroke="black" points="858.35,-35.6 867.52,-30.29 857.04,-28.72 858.35,-35.6"/>
<text text-anchor="middle" x="751.9" y="-57.8" font-family="Times New Roman,serif" font-size="14.00">0.074</text>
</g>
<!-- 13 -->
<g id="node14" class="node">
<title>13</title>
<g id="a_node14"><a xlink:href="careers adviser.svg" xlink:title="careers adviser">
<ellipse fill="none" stroke="black" cx="1089.4" cy="-18" rx="64.99" ry="18"/>
<text text-anchor="middle" x="1089.4" y="-14.3" font-family="Times New Roman,serif" font-size="14.00">careers adviser</text>
</a>
</g>
</g>
<!-- 1&#45;&gt;13 -->
<g id="edge15" class="edge">
<title>1&#45;&gt;13</title>
<path fill="none" stroke="black" d="M501.61,-101.34C585.3,-93.94 821.45,-71.32 1015.4,-36 1020.83,-35.01 1026.46,-33.89 1032.09,-32.71"/>
<polygon fill="black" stroke="black" points="1033.12,-36.07 1042.16,-30.53 1031.64,-29.22 1033.12,-36.07"/>
<text text-anchor="middle" x="911.9" y="-57.8" font-family="Times New Roman,serif" font-size="14.00">0.037</text>
</g>
<!-- 14 -->
<g id="node15" class="node">
<title>14</title>
<g id="a_node15"><a xlink:href="debt adviser.svg" xlink:title="debt adviser">
<ellipse fill="none" stroke="black" cx="1227.4" cy="-18" rx="55.49" ry="18"/>
<text text-anchor="middle" x="1227.4" y="-14.3" font-family="Times New Roman,serif" font-size="14.00">debt adviser</text>
</a>
</g>
</g>
<!-- 1&#45;&gt;14 -->
<g id="edge17" class="edge">
<title>1&#45;&gt;14</title>
<path fill="none" stroke="black" d="M502.17,-103.2C601.08,-100.21 911.95,-87.09 1163.4,-36 1168.01,-35.06 1172.79,-33.99 1177.56,-32.85"/>
<polygon fill="black" stroke="black" points="1178.42,-36.24 1187.28,-30.43 1176.73,-29.45 1178.42,-36.24"/>
<text text-anchor="middle" x="1065.9" y="-57.8" font-family="Times New Roman,serif" font-size="14.00">0.037</text>
</g>
<!-- 15 -->
<g id="node16" class="node">
<title>15</title>
<g id="a_node16"><a xlink:href="insurance broker.svg" xlink:title="insurance broker">
<ellipse fill="none" stroke="black" cx="1372.4" cy="-18" rx="71.49" ry="18"/>
<text text-anchor="middle" x="1372.4" y="-14.3" font-family="Times New Roman,serif" font-size="14.00">insurance broker</text>
</a>
</g>
</g>
<!-- 1&#45;&gt;15 -->
<g id="edge18" class="edge">
<title>1&#45;&gt;15</title>
<path fill="none" stroke="black" d="M502.18,-103.33C593.25,-101.18 862.92,-93.09 1085.4,-69 1163.19,-60.58 1251.78,-44.07 1309.7,-32.33"/>
<polygon fill="black" stroke="black" points="1310.69,-35.7 1319.79,-30.27 1309.29,-28.84 1310.69,-35.7"/>
<text text-anchor="middle" x="1203.9" y="-57.8" font-family="Times New Roman,serif" font-size="14.00">0.037</text>
</g>
<!-- 2 -->
<g id="node3" class="node">
<title>2</title>
<g id="a_node3"><a xlink:href="stockbroker.svg" xlink:title="stockbroker">
<ellipse fill="none" stroke="black" cx="250.4" cy="-192" rx="54.69" ry="18"/>
<text text-anchor="middle" x="250.4" y="-188.3" font-family="Times New Roman,serif" font-size="14.00">stockbroker</text>
</a>
</g>
</g>
<!-- 2&#45;&gt;1 -->
<g id="edge2" class="edge">
<title>2&#45;&gt;1</title>
<path fill="none" stroke="black" d="M284.77,-177.72C325.83,-161.85 394.14,-135.46 435.45,-119.5"/>
<polygon fill="black" stroke="black" points="436.77,-122.74 444.84,-115.88 434.25,-116.21 436.77,-122.74"/>
<text text-anchor="middle" x="389.9" y="-144.8" font-family="Times New Roman,serif" font-size="14.00">0.125</text>
</g>
<!-- 3&#45;&gt;1 -->
<g id="edge3" class="edge">
<title>3&#45;&gt;1</title>
<path fill="none" stroke="black" d="M63.32,-30.26C92.23,-41.86 139.76,-59.54 182.4,-69 268.73,-88.16 372.11,-97.5 428.54,-101.48"/>
<polygon fill="black" stroke="black" points="428.3,-104.97 438.52,-102.16 428.78,-97.99 428.3,-104.97"/>
<text text-anchor="middle" x="197.9" y="-57.8" font-family="Times New Roman,serif" font-size="14.00">0.041</text>
</g>
<!-- 4 -->
<g id="node5" class="node">
<title>4</title>
<g id="a_node5"><a xlink:href="diplomatic service.svg" xlink:title="diplomatic service">
<ellipse fill="none" stroke="black" cx="399.4" cy="-192" rx="76.89" ry="18"/>
<text text-anchor="middle" x="399.4" y="-188.3" font-family="Times New Roman,serif" font-size="14.00">diplomatic service</text>
</a>
</g>
</g>
<!-- 4&#45;&gt;1 -->
<g id="edge4" class="edge">
<title>4&#45;&gt;1</title>
<path fill="none" stroke="black" d="M413.42,-174.21C424.1,-161.43 438.92,-143.68 450.78,-129.49"/>
<polygon fill="black" stroke="black" points="453.63,-131.53 457.36,-121.61 448.26,-127.04 453.63,-131.53"/>
<text text-anchor="middle" x="454.9" y="-144.8" font-family="Times New Roman,serif" font-size="14.00">0.041</text>
</g>
<!-- 5 -->
<g id="node6" class="node">
<title>5</title>
<g id="a_node6"><a xlink:href="economist.svg" xlink:title="economist">
<ellipse fill="none" stroke="black" cx="542.4" cy="-192" rx="48.19" ry="18"/>
<text text-anchor="middle" x="542.4" y="-188.3" font-family="Times New Roman,serif" font-size="14.00">economist</text>
</a>
</g>
</g>
<!-- 5&#45;&gt;1 -->
<g id="edge5" class="edge">
<title>5&#45;&gt;1</title>
<path fill="none" stroke="black" d="M528.51,-174.61C517.65,-161.79 502.4,-143.78 490.25,-129.44"/>
<polygon fill="black" stroke="black" points="492.64,-126.85 483.51,-121.48 487.3,-131.37 492.64,-126.85"/>
<text text-anchor="middle" x="526.9" y="-144.8" font-family="Times New Roman,serif" font-size="14.00">0.041</text>
</g>
<!-- 6&#45;&gt;1 -->
<g id="edge6" class="edge">
<title>6&#45;&gt;1</title>
<path fill="none" stroke="black" d="M222.59,-34.68C248.17,-45.36 283.46,-59.26 315.4,-69 353.8,-80.71 398.64,-90.42 430.18,-96.62"/>
<polygon fill="black" stroke="black" points="429.86,-100.12 440.34,-98.58 431.19,-93.24 429.86,-100.12"/>
<text text-anchor="middle" x="330.9" y="-57.8" font-family="Times New Roman,serif" font-size="14.00">0.041</text>
</g>
<!-- 7 -->
<g id="node8" class="node">
<title>7</title>
<g id="a_node8"><a xlink:href="government research officer.svg" xlink:title="government research officer">
<ellipse fill="none" stroke="black" cx="721.4" cy="-192" rx="112.38" ry="18"/>
<text text-anchor="middle" x="721.4" y="-188.3" font-family="Times New Roman,serif" font-size="14.00">government research officer</text>
</a>
</g>
</g>
<!-- 7&#45;&gt;1 -->
<g id="edge7" class="edge">
<title>7&#45;&gt;1</title>
<path fill="none" stroke="black" d="M675.65,-175.51C627.01,-159.04 551.08,-133.32 506.49,-118.22"/>
<polygon fill="black" stroke="black" points="507.53,-114.88 496.93,-114.99 505.28,-121.51 507.53,-114.88"/>
<text text-anchor="middle" x="626.9" y="-144.8" font-family="Times New Roman,serif" font-size="14.00">0.041</text>
</g>
<!-- 8&#45;&gt;1 -->
<g id="edge8" class="edge">
<title>8&#45;&gt;1</title>
<path fill="none" stroke="black" d="M359.01,-32.82C381.39,-47.11 416.47,-69.54 441.28,-85.39"/>
<polygon fill="black" stroke="black" points="439.6,-88.47 449.91,-90.91 443.37,-82.57 439.6,-88.47"/>
<text text-anchor="middle" x="427.9" y="-57.8" font-family="Times New Roman,serif" font-size="14.00">0.041</text>
</g>
<!-- 9 -->
<g id="node10" class="node">
<title>9</title>
<g id="a_node10"><a xlink:href="leisure centre manager.svg" xlink:title="leisure centre manager">
<ellipse fill="none" stroke="black" cx="942.4" cy="-192" rx="90.98" ry="18"/>
<text text-anchor="middle" x="942.4" y="-188.3" font-family="Times New Roman,serif" font-size="14.00">leisure centre manager</text>
</a>
</g>
</g>
<!-- 9&#45;&gt;1 -->
<g id="edge9" class="edge">
<title>9&#45;&gt;1</title>
<path fill="none" stroke="black" d="M877.26,-179.27C777.95,-161.39 591.63,-127.83 510.19,-113.17"/>
<polygon fill="black" stroke="black" points="510.8,-109.72 500.34,-111.39 509.56,-116.61 510.8,-109.72"/>
<text text-anchor="middle" x="749.9" y="-144.8" font-family="Times New Roman,serif" font-size="14.00">0.041</text>
</g>
</g>
</svg>
