<?xml version="1.0" encoding="UTF-8" standalone="no"?>
<!DOCTYPE svg PUBLIC "-//W3C//DTD SVG 1.1//EN"
 "http://www.w3.org/Graphics/SVG/1.1/DTD/svg11.dtd">
<!-- Generated by graphviz version 2.44.1 (20200629.0800)
 -->
<!-- Title: test Pages: 1 -->
<svg width="1389pt" height="218pt"
 viewBox="0.00 0.00 1388.64 218.00" xmlns="http://www.w3.org/2000/svg" xmlns:xlink="http://www.w3.org/1999/xlink">
<g id="graph0" class="graph" transform="scale(1 1) rotate(0) translate(4 214)">
<title>test</title>
<polygon fill="white" stroke="transparent" points="-4,4 -4,-214 1384.64,-214 1384.64,4 -4,4"/>
<!-- 0 -->
<g id="node1" class="node">
<title>0</title>
<g id="a_node1"><a xlink:href="lecturer.svg" xlink:title="lecturer">
<ellipse fill="none" stroke="black" cx="37.7" cy="-192" rx="37.89" ry="18"/>
<text text-anchor="middle" x="37.7" y="-188.3" font-family="Times New Roman,serif" font-size="14.00">lecturer</text>
</a>
</g>
</g>
<!-- 1 -->
<g id="node2" class="node">
<title>1</title>
<g id="a_node2"><a xlink:href="trade union research officer.svg" xlink:title="trade union research officer">
<ellipse fill="none" stroke="black" cx="559.7" cy="-105" rx="110.48" ry="18"/>
<text text-anchor="middle" x="559.7" y="-101.3" font-family="Times New Roman,serif" font-size="14.00">trade union research officer</text>
</a>
</g>
</g>
<!-- 0&#45;&gt;1 -->
<g id="edge1" class="edge">
<title>0&#45;&gt;1</title>
<path fill="none" stroke="black" d="M38.45,-173.87C39.92,-162.68 43.8,-148.76 53.7,-141 83.33,-117.76 299.37,-109.95 439.42,-107.33"/>
<polygon fill="black" stroke="black" points="439.85,-110.82 449.78,-107.14 439.72,-103.82 439.85,-110.82"/>
<text text-anchor="middle" x="69.2" y="-144.8" font-family="Times New Roman,serif" font-size="14.00">0.090</text>
</g>
<!-- 1&#45;&gt;0 -->
<g id="edge10" class="edge">
<title>1&#45;&gt;0</title>
<path fill="none" stroke="black" d="M462.3,-113.64C365.23,-122.72 212.47,-140.97 83.7,-174 80.91,-174.71 78.06,-175.54 75.22,-176.42"/>
<polygon fill="black" stroke="black" points="73.99,-173.14 65.62,-179.64 76.22,-179.78 73.99,-173.14"/>
<text text-anchor="middle" x="255.2" y="-144.8" font-family="Times New Roman,serif" font-size="14.00">0.142</text>
</g>
<!-- 1&#45;&gt;1 -->
<g id="edge13" class="edge">
<title>1&#45;&gt;1</title>
<path fill="none" stroke="black" d="M660.96,-112.25C677.12,-111.19 688.19,-108.77 688.19,-105 688.19,-102.08 681.57,-99.97 671.09,-98.68"/>
<polygon fill="black" stroke="black" points="671.24,-95.18 660.96,-97.75 670.6,-102.15 671.24,-95.18"/>
<text text-anchor="middle" x="703.69" y="-101.3" font-family="Times New Roman,serif" font-size="14.00">0.071</text>
</g>
<!-- 7 -->
<g id="node8" class="node">
<title>7</title>
<g id="a_node8"><a xlink:href="academic librarian.svg" xlink:title="academic librarian">
<ellipse fill="none" stroke="black" cx="112.7" cy="-18" rx="76.09" ry="18"/>
<text text-anchor="middle" x="112.7" y="-14.3" font-family="Times New Roman,serif" font-size="14.00">academic librarian</text>
</a>
</g>
</g>
<!-- 1&#45;&gt;7 -->
<g id="edge11" class="edge">
<title>1&#45;&gt;7</title>
<path fill="none" stroke="black" d="M453.67,-99.87C390,-95.58 307.82,-86.83 236.7,-69 208,-61.81 177.15,-49.38 153.39,-38.72"/>
<polygon fill="black" stroke="black" points="154.55,-35.4 144,-34.43 151.65,-41.77 154.55,-35.4"/>
<text text-anchor="middle" x="252.2" y="-57.8" font-family="Times New Roman,serif" font-size="14.00">0.071</text>
</g>
<!-- 10 -->
<g id="node11" class="node">
<title>10</title>
<g id="a_node11"><a xlink:href="statistician.svg" xlink:title="statistician">
<ellipse fill="none" stroke="black" cx="254.7" cy="-18" rx="48.19" ry="18"/>
<text text-anchor="middle" x="254.7" y="-14.3" font-family="Times New Roman,serif" font-size="14.00">statistician</text>
</a>
</g>
</g>
<!-- 1&#45;&gt;10 -->
<g id="edge12" class="edge">
<title>1&#45;&gt;10</title>
<path fill="none" stroke="black" d="M503.76,-89.41C480.24,-83.21 452.62,-75.85 427.7,-69 376.01,-54.8 363.16,-50.99 311.7,-36 308.17,-34.97 304.52,-33.9 300.85,-32.82"/>
<polygon fill="black" stroke="black" points="301.75,-29.43 291.17,-29.95 299.76,-36.15 301.75,-29.43"/>
<text text-anchor="middle" x="443.2" y="-57.8" font-family="Times New Roman,serif" font-size="14.00">0.071</text>
</g>
<!-- 11 -->
<g id="node12" class="node">
<title>11</title>
<g id="a_node12"><a xlink:href="barristers clerk.svg" xlink:title="barristers clerk">
<ellipse fill="none" stroke="black" cx="384.7" cy="-18" rx="64.19" ry="18"/>
<text text-anchor="middle" x="384.7" y="-14.3" font-family="Times New Roman,serif" font-size="14.00">barristers clerk</text>
</a>
</g>
</g>
<!-- 1&#45;&gt;11 -->
<g id="edge14" class="edge">
<title>1&#45;&gt;11</title>
<path fill="none" stroke="black" d="M526.37,-87.81C497.34,-73.71 455.2,-53.24 424.42,-38.3"/>
<polygon fill="black" stroke="black" points="425.79,-35.07 415.26,-33.85 422.73,-41.36 425.79,-35.07"/>
<text text-anchor="middle" x="498.2" y="-57.8" font-family="Times New Roman,serif" font-size="14.00">0.035</text>
</g>
<!-- 12 -->
<g id="node13" class="node">
<title>12</title>
<g id="a_node13"><a xlink:href="broadcasting presenter.svg" xlink:title="broadcasting presenter">
<ellipse fill="none" stroke="black" cx="559.7" cy="-18" rx="92.88" ry="18"/>
<text text-anchor="middle" x="559.7" y="-14.3" font-family="Times New Roman,serif" font-size="14.00">broadcasting presenter</text>
</a>
</g>
</g>
<!-- 1&#45;&gt;12 -->
<g id="edge15" class="edge">
<title>1&#45;&gt;12</title>
<path fill="none" stroke="black" d="M559.7,-86.8C559.7,-75.16 559.7,-59.55 559.7,-46.24"/>
<polygon fill="black" stroke="black" points="563.2,-46.18 559.7,-36.18 556.2,-46.18 563.2,-46.18"/>
<text text-anchor="middle" x="575.2" y="-57.8" font-family="Times New Roman,serif" font-size="14.00">0.035</text>
</g>
<!-- 13 -->
<g id="node14" class="node">
<title>13</title>
<g id="a_node14"><a xlink:href="corporate treasurer.svg" xlink:title="corporate treasurer">
<ellipse fill="none" stroke="black" cx="749.7" cy="-18" rx="79.09" ry="18"/>
<text text-anchor="middle" x="749.7" y="-14.3" font-family="Times New Roman,serif" font-size="14.00">corporate treasurer</text>
</a>
</g>
</g>
<!-- 1&#45;&gt;13 -->
<g id="edge16" class="edge">
<title>1&#45;&gt;13</title>
<path fill="none" stroke="black" d="M595.88,-87.81C627.24,-73.78 672.69,-53.45 706.06,-38.52"/>
<polygon fill="black" stroke="black" points="707.87,-41.55 715.56,-34.27 705.01,-35.16 707.87,-41.55"/>
<text text-anchor="middle" x="682.2" y="-57.8" font-family="Times New Roman,serif" font-size="14.00">0.035</text>
</g>
<!-- 14 -->
<g id="node15" class="node">
<title>14</title>
<g id="a_node15"><a xlink:href="education administrator.svg" xlink:title="education administrator">
<ellipse fill="none" stroke="black" cx="942.7" cy="-18" rx="95.58" ry="18"/>
<text text-anchor="middle" x="942.7" y="-14.3" font-family="Times New Roman,serif" font-size="14.00">education administrator</text>
</a>
</g>
</g>
<!-- 1&#45;&gt;14 -->
<g id="edge17" class="edge">
<title>1&#45;&gt;14</title>
<path fill="none" stroke="black" d="M622.51,-90.06C691.53,-74.74 802.04,-50.22 873.5,-34.36"/>
<polygon fill="black" stroke="black" points="874.31,-37.76 883.31,-32.18 872.79,-30.93 874.31,-37.76"/>
<text text-anchor="middle" x="790.2" y="-57.8" font-family="Times New Roman,serif" font-size="14.00">0.035</text>
</g>
<!-- 15 -->
<g id="node16" class="node">
<title>15</title>
<g id="a_node16"><a xlink:href="engineering geologist.svg" xlink:title="engineering geologist">
<ellipse fill="none" stroke="black" cx="1142.7" cy="-18" rx="86.38" ry="18"/>
<text text-anchor="middle" x="1142.7" y="-14.3" font-family="Times New Roman,serif" font-size="14.00">engineering geologist</text>
</a>
</g>
</g>
<!-- 1&#45;&gt;15 -->
<g id="edge18" class="edge">
<title>1&#45;&gt;15</title>
<path fill="none" stroke="black" d="M644.04,-93.25C741.44,-80.61 906.41,-58.48 1047.7,-36 1055.06,-34.83 1062.73,-33.55 1070.39,-32.24"/>
<polygon fill="black" stroke="black" points="1071.16,-35.66 1080.41,-30.5 1069.96,-28.76 1071.16,-35.66"/>
<text text-anchor="middle" x="942.2" y="-57.8" font-family="Times New Roman,serif" font-size="14.00">0.035</text>
</g>
<!-- 16 -->
<g id="node17" class="node">
<title>16</title>
<g id="a_node17"><a xlink:href="fisheries officer.svg" xlink:title="fisheries officer">
<ellipse fill="none" stroke="black" cx="1313.7" cy="-18" rx="66.89" ry="18"/>
<text text-anchor="middle" x="1313.7" y="-14.3" font-family="Times New Roman,serif" font-size="14.00">fisheries officer</text>
</a>
</g>
</g>
<!-- 1&#45;&gt;16 -->
<g id="edge19" class="edge">
<title>1&#45;&gt;16</title>
<path fill="none" stroke="black" d="M662.23,-98.17C795.54,-89.58 1035.24,-70.65 1237.7,-36 1243.5,-35.01 1249.53,-33.86 1255.54,-32.64"/>
<polygon fill="black" stroke="black" points="1256.53,-36.01 1265.6,-30.53 1255.09,-29.16 1256.53,-36.01"/>
<text text-anchor="middle" x="1124.2" y="-57.8" font-family="Times New Roman,serif" font-size="14.00">0.035</text>
</g>
<!-- 2 -->
<g id="node3" class="node">
<title>2</title>
<g id="a_node3"><a xlink:href="research scientist.svg" xlink:title="research scientist">
<ellipse fill="none" stroke="black" cx="165.7" cy="-192" rx="72.59" ry="18"/>
<text text-anchor="middle" x="165.7" y="-188.3" font-family="Times New Roman,serif" font-size="14.00">research scientist</text>
</a>
</g>
</g>
<!-- 2&#45;&gt;1 -->
<g id="edge2" class="edge">
<title>2&#45;&gt;1</title>
<path fill="none" stroke="black" d="M218.83,-179.54C287.68,-164.68 408.08,-138.71 485.81,-121.94"/>
<polygon fill="black" stroke="black" points="486.98,-125.27 496.01,-119.74 485.5,-118.43 486.98,-125.27"/>
<text text-anchor="middle" x="402.2" y="-144.8" font-family="Times New Roman,serif" font-size="14.00">0.090</text>
</g>
<!-- 3 -->
<g id="node4" class="node">
<title>3</title>
<g id="a_node4"><a xlink:href="conference organiser.svg" xlink:title="conference organiser">
<ellipse fill="none" stroke="black" cx="342.7" cy="-192" rx="86.38" ry="18"/>
<text text-anchor="middle" x="342.7" y="-188.3" font-family="Times New Roman,serif" font-size="14.00">conference organiser</text>
</a>
</g>
</g>
<!-- 3&#45;&gt;1 -->
<g id="edge3" class="edge">
<title>3&#45;&gt;1</title>
<path fill="none" stroke="black" d="M381.49,-175.8C417.34,-161.76 470.8,-140.82 509.81,-125.54"/>
<polygon fill="black" stroke="black" points="511.36,-128.69 519.4,-121.78 508.81,-122.17 511.36,-128.69"/>
<text text-anchor="middle" x="480.2" y="-144.8" font-family="Times New Roman,serif" font-size="14.00">0.060</text>
</g>
<!-- 4 -->
<g id="node5" class="node">
<title>4</title>
<g id="a_node5"><a xlink:href="government research officer.svg" xlink:title="government research officer">
<ellipse fill="none" stroke="black" cx="559.7" cy="-192" rx="112.38" ry="18"/>
<text text-anchor="middle" x="559.7" y="-188.3" font-family="Times New Roman,serif" font-size="14.00">government research officer</text>
</a>
</g>
</g>
<!-- 4&#45;&gt;1 -->
<g id="edge4" class="edge">
<title>4&#45;&gt;1</title>
<path fill="none" stroke="black" d="M559.7,-173.8C559.7,-162.16 559.7,-146.55 559.7,-133.24"/>
<polygon fill="black" stroke="black" points="563.2,-133.18 559.7,-123.18 556.2,-133.18 563.2,-133.18"/>
<text text-anchor="middle" x="575.2" y="-144.8" font-family="Times New Roman,serif" font-size="14.00">0.060</text>
</g>
<!-- 5 -->
<g id="node6" class="node">
<title>5</title>
<g id="a_node6"><a xlink:href="lawyer.svg" xlink:title="lawyer">
<ellipse fill="none" stroke="black" cx="724.7" cy="-192" rx="34.39" ry="18"/>
<text text-anchor="middle" x="724.7" y="-188.3" font-family="Times New Roman,serif" font-size="14.00">lawyer</text>
</a>
</g>
</g>
<!-- 5&#45;&gt;1 -->
<g id="edge5" class="edge">
<title>5&#45;&gt;1</title>
<path fill="none" stroke="black" d="M701.06,-178.82C674.86,-165.33 632.14,-143.32 600.51,-127.03"/>
<polygon fill="black" stroke="black" points="601.99,-123.85 591.5,-122.38 598.78,-130.07 601.99,-123.85"/>
<text text-anchor="middle" x="668.2" y="-144.8" font-family="Times New Roman,serif" font-size="14.00">0.060</text>
</g>
<!-- 6 -->
<g id="node7" class="node">
<title>6</title>
<g id="a_node7"><a xlink:href="market research analyst.svg" xlink:title="market research analyst">
<ellipse fill="none" stroke="black" cx="871.7" cy="-192" rx="94.78" ry="18"/>
<text text-anchor="middle" x="871.7" y="-188.3" font-family="Times New Roman,serif" font-size="14.00">market research analyst</text>
</a>
</g>
</g>
<!-- 6&#45;&gt;1 -->
<g id="edge6" class="edge">
<title>6&#45;&gt;1</title>
<path fill="none" stroke="black" d="M819.83,-176.87C765.94,-162.19 681.53,-139.19 623.57,-123.4"/>
<polygon fill="black" stroke="black" points="624.36,-119.99 613.79,-120.74 622.52,-126.74 624.36,-119.99"/>
<text text-anchor="middle" x="750.2" y="-144.8" font-family="Times New Roman,serif" font-size="14.00">0.060</text>
</g>
<!-- 7&#45;&gt;1 -->
<g id="edge7" class="edge">
<title>7&#45;&gt;1</title>
<path fill="none" stroke="black" d="M164.59,-31.27C210.69,-41.96 279.98,-57.5 340.7,-69 383.24,-77.06 430.68,-84.79 470.49,-90.93"/>
<polygon fill="black" stroke="black" points="470.02,-94.4 480.44,-92.46 471.09,-87.48 470.02,-94.4"/>
<text text-anchor="middle" x="356.2" y="-57.8" font-family="Times New Roman,serif" font-size="14.00">0.030</text>
</g>
<!-- 8 -->
<g id="node9" class="node">
<title>8</title>
<g id="a_node9"><a xlink:href="charities administrator.svg" xlink:title="charities administrator">
<ellipse fill="none" stroke="black" cx="1074.7" cy="-192" rx="90.18" ry="18"/>
<text text-anchor="middle" x="1074.7" y="-188.3" font-family="Times New Roman,serif" font-size="14.00">charities administrator</text>
</a>
</g>
</g>
<!-- 8&#45;&gt;1 -->
<g id="edge8" class="edge">
<title>8&#45;&gt;1</title>
<path fill="none" stroke="black" d="M1008.94,-179.63C997.85,-177.74 986.45,-175.8 975.7,-174 861.43,-154.85 729.4,-133.38 645.27,-119.78"/>
<polygon fill="black" stroke="black" points="645.69,-116.3 635.26,-118.16 644.57,-123.21 645.69,-116.3"/>
<text text-anchor="middle" x="876.2" y="-144.8" font-family="Times New Roman,serif" font-size="14.00">0.030</text>
</g>
<!-- 9 -->
<g id="node10" class="node">
<title>9</title>
<g id="a_node10"><a xlink:href="clinical microbiologist.svg" xlink:title="clinical microbiologist">
<ellipse fill="none" stroke="black" cx="1273.7" cy="-192" rx="90.18" ry="18"/>
<text text-anchor="middle" x="1273.7" y="-188.3" font-family="Times New Roman,serif" font-size="14.00">clinical microbiologist</text>
</a>
</g>
</g>
<!-- 9&#45;&gt;1 -->
<g id="edge9" class="edge">
<title>9&#45;&gt;1</title>
<path fill="none" stroke="black" d="M1208.68,-179.46C1197.05,-177.53 1185.03,-175.63 1173.7,-174 995.21,-148.25 786.3,-126.99 663.93,-115.43"/>
<polygon fill="black" stroke="black" points="664.11,-111.93 653.82,-114.48 663.45,-118.9 664.11,-111.93"/>
<text text-anchor="middle" x="1037.2" y="-144.8" font-family="Times New Roman,serif" font-size="14.00">0.030</text>
</g>
</g>
</svg>
