<?xml version="1.0" encoding="UTF-8" standalone="no"?>
<!DOCTYPE svg PUBLIC "-//W3C//DTD SVG 1.1//EN"
 "http://www.w3.org/Graphics/SVG/1.1/DTD/svg11.dtd">
<!-- Generated by graphviz version 2.44.1 (20200629.0800)
 -->
<!-- Title: training_and_development_officer Pages: 1 -->
<svg width="1357pt" height="218pt"
 viewBox="0.00 0.00 1356.54 218.00" xmlns="http://www.w3.org/2000/svg" xmlns:xlink="http://www.w3.org/1999/xlink">
<g id="graph0" class="graph" transform="scale(1 1) rotate(0) translate(4 214)">
<title>training_and_development_officer</title>
<polygon fill="white" stroke="transparent" points="-4,4 -4,-214 1352.54,-214 1352.54,4 -4,4"/>
<!-- 0 -->
<g id="node1" class="node">
<title>0</title>
<g id="a_node1"><a xlink:href="it consultant.svg" xlink:title="it consultant">
<ellipse fill="none" stroke="black" cx="452.89" cy="-192" rx="54.69" ry="18"/>
<text text-anchor="middle" x="452.89" y="-188.3" font-family="Times New Roman,serif" font-size="14.00">it consultant</text>
</a>
</g>
</g>
<!-- 1 -->
<g id="node2" class="node">
<title>1</title>
<g id="a_node2"><a xlink:href="training and development officer.svg" xlink:title="training and development officer">
<ellipse fill="none" stroke="black" cx="586.89" cy="-105" rx="128.08" ry="18"/>
<text text-anchor="middle" x="586.89" y="-101.3" font-family="Times New Roman,serif" font-size="14.00">training and development officer</text>
</a>
</g>
</g>
<!-- 0&#45;&gt;1 -->
<g id="edge1" class="edge">
<title>0&#45;&gt;1</title>
<path fill="none" stroke="black" d="M456.16,-174.01C459.08,-163.18 464.41,-149.6 473.89,-141 481.93,-133.71 491.46,-127.94 501.53,-123.37"/>
<polygon fill="black" stroke="black" points="502.99,-126.55 510.9,-119.5 500.32,-120.08 502.99,-126.55"/>
<text text-anchor="middle" x="489.39" y="-144.8" font-family="Times New Roman,serif" font-size="14.00">0.066</text>
</g>
<!-- 1&#45;&gt;0 -->
<g id="edge11" class="edge">
<title>1&#45;&gt;0</title>
<path fill="none" stroke="black" d="M560.39,-122.81C538.91,-136.44 508.55,-155.69 485.57,-170.27"/>
<polygon fill="black" stroke="black" points="483.42,-167.49 476.85,-175.8 487.17,-173.4 483.42,-167.49"/>
<text text-anchor="middle" x="544.39" y="-144.8" font-family="Times New Roman,serif" font-size="14.00">0.070</text>
</g>
<!-- 1&#45;&gt;1 -->
<g id="edge10" class="edge">
<title>1&#45;&gt;1</title>
<path fill="none" stroke="black" d="M704.64,-112.09C721.56,-110.95 732.93,-108.59 732.93,-105 732.93,-102.2 725.99,-100.14 714.89,-98.83"/>
<polygon fill="black" stroke="black" points="714.92,-95.32 704.64,-97.91 714.29,-102.3 714.92,-95.32"/>
<text text-anchor="middle" x="748.43" y="-101.3" font-family="Times New Roman,serif" font-size="14.00">0.123</text>
</g>
<!-- 2 -->
<g id="node3" class="node">
<title>2</title>
<g id="a_node3"><a xlink:href="project manager.svg" xlink:title="project manager">
<ellipse fill="none" stroke="black" cx="68.89" cy="-18" rx="68.79" ry="18"/>
<text text-anchor="middle" x="68.89" y="-14.3" font-family="Times New Roman,serif" font-size="14.00">project manager</text>
</a>
</g>
</g>
<!-- 1&#45;&gt;2 -->
<g id="edge13" class="edge">
<title>1&#45;&gt;2</title>
<path fill="none" stroke="black" d="M468.06,-98.14C368.08,-92.4 233.29,-82.54 180.89,-69 154.85,-62.27 127.24,-50.01 105.95,-39.31"/>
<polygon fill="black" stroke="black" points="107.44,-36.14 96.94,-34.69 104.24,-42.37 107.44,-36.14"/>
<text text-anchor="middle" x="196.39" y="-57.8" font-family="Times New Roman,serif" font-size="14.00">0.052</text>
</g>
<!-- 4 -->
<g id="node5" class="node">
<title>4</title>
<g id="a_node5"><a xlink:href="pharmacovigilance officer.svg" xlink:title="pharmacovigilance officer">
<ellipse fill="none" stroke="black" cx="260.89" cy="-18" rx="104.78" ry="18"/>
<text text-anchor="middle" x="260.89" y="-14.3" font-family="Times New Roman,serif" font-size="14.00">pharmacovigilance officer</text>
</a>
</g>
</g>
<!-- 1&#45;&gt;4 -->
<g id="edge12" class="edge">
<title>1&#45;&gt;4</title>
<path fill="none" stroke="black" d="M480.35,-94.99C441.19,-89.79 396.91,-81.66 357.89,-69 336.41,-62.03 313.9,-50.71 295.98,-40.6"/>
<polygon fill="black" stroke="black" points="297.46,-37.41 287.05,-35.45 293.97,-43.48 297.46,-37.41"/>
<text text-anchor="middle" x="373.39" y="-57.8" font-family="Times New Roman,serif" font-size="14.00">0.052</text>
</g>
<!-- 5 -->
<g id="node6" class="node">
<title>5</title>
<g id="a_node6"><a xlink:href="education administrator.svg" xlink:title="education administrator">
<ellipse fill="none" stroke="black" cx="478.89" cy="-18" rx="95.58" ry="18"/>
<text text-anchor="middle" x="478.89" y="-14.3" font-family="Times New Roman,serif" font-size="14.00">education administrator</text>
</a>
</g>
</g>
<!-- 1&#45;&gt;5 -->
<g id="edge17" class="edge">
<title>1&#45;&gt;5</title>
<path fill="none" stroke="black" d="M521.42,-89.43C510.38,-84.48 499.92,-77.86 491.89,-69 486.22,-62.74 482.96,-54.31 481.11,-46.16"/>
<polygon fill="black" stroke="black" points="484.54,-45.46 479.44,-36.17 477.64,-46.62 484.54,-45.46"/>
<text text-anchor="middle" x="507.39" y="-57.8" font-family="Times New Roman,serif" font-size="14.00">0.029</text>
</g>
<!-- 6 -->
<g id="node7" class="node">
<title>6</title>
<g id="a_node7"><a xlink:href="lecturer.svg" xlink:title="lecturer">
<ellipse fill="none" stroke="black" cx="629.89" cy="-18" rx="37.89" ry="18"/>
<text text-anchor="middle" x="629.89" y="-14.3" font-family="Times New Roman,serif" font-size="14.00">lecturer</text>
</a>
</g>
</g>
<!-- 1&#45;&gt;6 -->
<g id="edge18" class="edge">
<title>1&#45;&gt;6</title>
<path fill="none" stroke="black" d="M581.78,-86.95C579.73,-76.86 578.87,-64.13 583.89,-54 586.95,-47.84 591.66,-42.47 596.93,-37.91"/>
<polygon fill="black" stroke="black" points="599.1,-40.66 604.92,-31.8 594.85,-35.09 599.1,-40.66"/>
<text text-anchor="middle" x="599.39" y="-57.8" font-family="Times New Roman,serif" font-size="14.00">0.029</text>
</g>
<!-- 9 -->
<g id="node10" class="node">
<title>9</title>
<g id="a_node10"><a xlink:href="production manager.svg" xlink:title="production manager">
<ellipse fill="none" stroke="black" cx="768.89" cy="-18" rx="83.39" ry="18"/>
<text text-anchor="middle" x="768.89" y="-14.3" font-family="Times New Roman,serif" font-size="14.00">production manager</text>
</a>
</g>
</g>
<!-- 1&#45;&gt;9 -->
<g id="edge14" class="edge">
<title>1&#45;&gt;9</title>
<path fill="none" stroke="black" d="M621.99,-87.61C651.66,-73.75 694.29,-53.84 725.99,-39.04"/>
<polygon fill="black" stroke="black" points="727.87,-42.02 735.45,-34.62 724.9,-35.68 727.87,-42.02"/>
<text text-anchor="middle" x="704.39" y="-57.8" font-family="Times New Roman,serif" font-size="14.00">0.047</text>
</g>
<!-- 10 -->
<g id="node11" class="node">
<title>10</title>
<g id="a_node11"><a xlink:href="office manager.svg" xlink:title="office manager">
<ellipse fill="none" stroke="black" cx="934.89" cy="-18" rx="64.19" ry="18"/>
<text text-anchor="middle" x="934.89" y="-14.3" font-family="Times New Roman,serif" font-size="14.00">office manager</text>
</a>
</g>
</g>
<!-- 1&#45;&gt;10 -->
<g id="edge15" class="edge">
<title>1&#45;&gt;10</title>
<path fill="none" stroke="black" d="M673.69,-91.63C708.78,-85.88 749.52,-78.25 785.89,-69 821.06,-60.06 859.89,-46.92 889.09,-36.35"/>
<polygon fill="black" stroke="black" points="890.42,-39.59 898.61,-32.88 888.02,-33.02 890.42,-39.59"/>
<text text-anchor="middle" x="850.39" y="-57.8" font-family="Times New Roman,serif" font-size="14.00">0.035</text>
</g>
<!-- 11 -->
<g id="node12" class="node">
<title>11</title>
<g id="a_node12"><a xlink:href="careers adviser.svg" xlink:title="careers adviser">
<ellipse fill="none" stroke="black" cx="1081.89" cy="-18" rx="64.99" ry="18"/>
<text text-anchor="middle" x="1081.89" y="-14.3" font-family="Times New Roman,serif" font-size="14.00">careers adviser</text>
</a>
</g>
</g>
<!-- 1&#45;&gt;11 -->
<g id="edge16" class="edge">
<title>1&#45;&gt;11</title>
<path fill="none" stroke="black" d="M688.81,-94.1C742.83,-88.17 810.2,-79.7 869.89,-69 923.82,-59.33 984.61,-44.59 1027.23,-33.62"/>
<polygon fill="black" stroke="black" points="1028.31,-36.95 1037.11,-31.06 1026.55,-30.18 1028.31,-36.95"/>
<text text-anchor="middle" x="955.39" y="-57.8" font-family="Times New Roman,serif" font-size="14.00">0.029</text>
</g>
<!-- 12 -->
<g id="node13" class="node">
<title>12</title>
<g id="a_node13"><a xlink:href="programme researcher.svg" xlink:title="programme researcher">
<ellipse fill="none" stroke="black" cx="1256.89" cy="-18" rx="91.78" ry="18"/>
<text text-anchor="middle" x="1256.89" y="-14.3" font-family="Times New Roman,serif" font-size="14.00">programme researcher</text>
</a>
</g>
</g>
<!-- 1&#45;&gt;12 -->
<g id="edge19" class="edge">
<title>1&#45;&gt;12</title>
<path fill="none" stroke="black" d="M699.66,-96.39C777.24,-90.52 882.55,-81.33 974.89,-69 1046.96,-59.38 1128.7,-44.44 1185.55,-33.39"/>
<polygon fill="black" stroke="black" points="1186.37,-36.8 1195.52,-31.44 1185.03,-29.93 1186.37,-36.8"/>
<text text-anchor="middle" x="1083.39" y="-57.8" font-family="Times New Roman,serif" font-size="14.00">0.029</text>
</g>
<!-- 2&#45;&gt;1 -->
<g id="edge2" class="edge">
<title>2&#45;&gt;1</title>
<path fill="none" stroke="black" d="M116.02,-31.31C160.17,-42.47 228.13,-58.71 287.89,-69 348.38,-79.41 416.3,-87.64 472.1,-93.49"/>
<polygon fill="black" stroke="black" points="472.06,-97.01 482.37,-94.56 472.78,-90.04 472.06,-97.01"/>
<text text-anchor="middle" x="303.39" y="-57.8" font-family="Times New Roman,serif" font-size="14.00">0.061</text>
</g>
<!-- 3 -->
<g id="node4" class="node">
<title>3</title>
<g id="a_node4"><a xlink:href="sales manager.svg" xlink:title="sales manager">
<ellipse fill="none" stroke="black" cx="586.89" cy="-192" rx="61.19" ry="18"/>
<text text-anchor="middle" x="586.89" y="-188.3" font-family="Times New Roman,serif" font-size="14.00">sales manager</text>
</a>
</g>
</g>
<!-- 3&#45;&gt;1 -->
<g id="edge3" class="edge">
<title>3&#45;&gt;1</title>
<path fill="none" stroke="black" d="M586.89,-173.8C586.89,-162.16 586.89,-146.55 586.89,-133.24"/>
<polygon fill="black" stroke="black" points="590.39,-133.18 586.89,-123.18 583.39,-133.18 590.39,-133.18"/>
<text text-anchor="middle" x="602.39" y="-144.8" font-family="Times New Roman,serif" font-size="14.00">0.056</text>
</g>
<!-- 4&#45;&gt;1 -->
<g id="edge4" class="edge">
<title>4&#45;&gt;1</title>
<path fill="none" stroke="black" d="M314.74,-33.5C352.31,-43.57 403.62,-57.24 448.89,-69 471.09,-74.77 495.33,-80.95 517.21,-86.49"/>
<polygon fill="black" stroke="black" points="516.53,-89.93 527.08,-88.99 518.24,-83.14 516.53,-89.93"/>
<text text-anchor="middle" x="464.39" y="-57.8" font-family="Times New Roman,serif" font-size="14.00">0.045</text>
</g>
<!-- 5&#45;&gt;1 -->
<g id="edge5" class="edge">
<title>5&#45;&gt;1</title>
<path fill="none" stroke="black" d="M500.19,-35.76C516.59,-48.67 539.47,-66.67 557.6,-80.94"/>
<polygon fill="black" stroke="black" points="555.53,-83.77 565.56,-87.21 559.86,-78.27 555.53,-83.77"/>
<text text-anchor="middle" x="555.39" y="-57.8" font-family="Times New Roman,serif" font-size="14.00">0.035</text>
</g>
<!-- 6&#45;&gt;1 -->
<g id="edge6" class="edge">
<title>6&#45;&gt;1</title>
<path fill="none" stroke="black" d="M628.32,-36.43C626.88,-46.4 624.13,-58.9 618.89,-69 617.07,-72.52 614.8,-75.95 612.32,-79.2"/>
<polygon fill="black" stroke="black" points="609.62,-76.97 605.84,-86.87 614.97,-81.49 609.62,-76.97"/>
<text text-anchor="middle" x="640.39" y="-57.8" font-family="Times New Roman,serif" font-size="14.00">0.035</text>
</g>
<!-- 7 -->
<g id="node8" class="node">
<title>7</title>
<g id="a_node8"><a xlink:href="sports development officer.svg" xlink:title="sports development officer">
<ellipse fill="none" stroke="black" cx="774.89" cy="-192" rx="108.58" ry="18"/>
<text text-anchor="middle" x="774.89" y="-188.3" font-family="Times New Roman,serif" font-size="14.00">sports development officer</text>
</a>
</g>
</g>
<!-- 7&#45;&gt;1 -->
<g id="edge7" class="edge">
<title>7&#45;&gt;1</title>
<path fill="none" stroke="black" d="M739.09,-174.81C708.84,-161.13 665.33,-141.46 632.57,-126.65"/>
<polygon fill="black" stroke="black" points="633.76,-123.35 623.2,-122.42 630.87,-129.73 633.76,-123.35"/>
<text text-anchor="middle" x="708.39" y="-144.8" font-family="Times New Roman,serif" font-size="14.00">0.030</text>
</g>
<!-- 8 -->
<g id="node9" class="node">
<title>8</title>
<g id="a_node9"><a xlink:href="marketing executive.svg" xlink:title="marketing executive">
<ellipse fill="none" stroke="black" cx="982.89" cy="-192" rx="81.79" ry="18"/>
<text text-anchor="middle" x="982.89" y="-188.3" font-family="Times New Roman,serif" font-size="14.00">marketing executive</text>
</a>
</g>
</g>
<!-- 8&#45;&gt;1 -->
<g id="edge8" class="edge">
<title>8&#45;&gt;1</title>
<path fill="none" stroke="black" d="M926.58,-178.91C857.81,-164.15 741.16,-139.11 664.07,-122.57"/>
<polygon fill="black" stroke="black" points="664.45,-119.07 653.94,-120.39 662.98,-125.91 664.45,-119.07"/>
<text text-anchor="middle" x="823.39" y="-144.8" font-family="Times New Roman,serif" font-size="14.00">0.025</text>
</g>
<!-- 9&#45;&gt;1 -->
<g id="edge9" class="edge">
<title>9&#45;&gt;1</title>
<path fill="none" stroke="black" d="M761.24,-36.32C755.51,-47.3 746.65,-60.9 734.89,-69 721.66,-78.11 706.35,-84.87 690.7,-89.88"/>
<polygon fill="black" stroke="black" points="689.52,-86.58 680.93,-92.78 691.51,-93.29 689.52,-86.58"/>
<text text-anchor="middle" x="766.39" y="-57.8" font-family="Times New Roman,serif" font-size="14.00">0.020</text>
</g>
</g>
</svg>
