<?xml version="1.0" encoding="UTF-8" standalone="no"?>
<!DOCTYPE svg PUBLIC "-//W3C//DTD SVG 1.1//EN"
 "http://www.w3.org/Graphics/SVG/1.1/DTD/svg11.dtd">
<!-- Generated by graphviz version 2.44.1 (20200629.0800)
 -->
<!-- Title: veterinary_surgeon Pages: 1 -->
<svg width="1497pt" height="218pt"
 viewBox="0.00 0.00 1496.79 218.00" xmlns="http://www.w3.org/2000/svg" xmlns:xlink="http://www.w3.org/1999/xlink">
<g id="graph0" class="graph" transform="scale(1 1) rotate(0) translate(4 214)">
<title>veterinary_surgeon</title>
<polygon fill="white" stroke="transparent" points="-4,4 -4,-214 1492.79,-214 1492.79,4 -4,4"/>
<!-- 0 -->
<g id="node1" class="node">
<title>0</title>
<g id="a_node1"><a xlink:href="it consultant.svg" xlink:title="it consultant">
<ellipse fill="none" stroke="black" cx="73.34" cy="-192" rx="54.69" ry="18"/>
<text text-anchor="middle" x="73.34" y="-188.3" font-family="Times New Roman,serif" font-size="14.00">it consultant</text>
</a>
</g>
</g>
<!-- 1 -->
<g id="node2" class="node">
<title>1</title>
<g id="a_node2"><a xlink:href="veterinary surgeon.svg" xlink:title="veterinary surgeon">
<ellipse fill="none" stroke="black" cx="618.34" cy="-105" rx="77.19" ry="18"/>
<text text-anchor="middle" x="618.34" y="-101.3" font-family="Times New Roman,serif" font-size="14.00">veterinary surgeon</text>
</a>
</g>
</g>
<!-- 0&#45;&gt;1 -->
<g id="edge1" class="edge">
<title>0&#45;&gt;1</title>
<path fill="none" stroke="black" d="M82.69,-173.94C89.96,-162.48 101.2,-148.2 115.34,-141 151.39,-122.65 397.53,-112.56 531.65,-108.36"/>
<polygon fill="black" stroke="black" points="532.01,-111.85 541.89,-108.04 531.79,-104.85 532.01,-111.85"/>
<text text-anchor="middle" x="130.84" y="-144.8" font-family="Times New Roman,serif" font-size="14.00">0.105</text>
</g>
<!-- 1&#45;&gt;0 -->
<g id="edge18" class="edge">
<title>1&#45;&gt;0</title>
<path fill="none" stroke="black" d="M548.84,-113.07C454.74,-123.26 281.84,-144.18 136.34,-174 131.92,-174.91 127.34,-175.94 122.77,-177.05"/>
<polygon fill="black" stroke="black" points="121.67,-173.72 112.82,-179.55 123.37,-180.51 121.67,-173.72"/>
<text text-anchor="middle" x="336.84" y="-144.8" font-family="Times New Roman,serif" font-size="14.00">0.076</text>
</g>
<!-- 1&#45;&gt;1 -->
<g id="edge10" class="edge">
<title>1&#45;&gt;1</title>
<path fill="none" stroke="black" d="M688.61,-112.6C703.2,-111.8 713.69,-109.27 713.69,-105 713.69,-101.8 707.79,-99.58 698.68,-98.33"/>
<polygon fill="black" stroke="black" points="698.89,-94.83 688.61,-97.4 698.25,-101.8 698.89,-94.83"/>
<text text-anchor="middle" x="729.19" y="-101.3" font-family="Times New Roman,serif" font-size="14.00">0.692</text>
</g>
<!-- 3 -->
<g id="node4" class="node">
<title>3</title>
<g id="a_node4"><a xlink:href="clinical biochemist.svg" xlink:title="clinical biochemist">
<ellipse fill="none" stroke="black" cx="77.34" cy="-18" rx="77.19" ry="18"/>
<text text-anchor="middle" x="77.34" y="-14.3" font-family="Times New Roman,serif" font-size="14.00">clinical biochemist</text>
</a>
</g>
</g>
<!-- 1&#45;&gt;3 -->
<g id="edge13" class="edge">
<title>1&#45;&gt;3</title>
<path fill="none" stroke="black" d="M542.23,-101.47C465.63,-97.87 344.38,-89.27 241.34,-69 202.04,-61.27 158.74,-47.85 126.5,-36.86"/>
<polygon fill="black" stroke="black" points="127.46,-33.49 116.87,-33.53 125.18,-40.1 127.46,-33.49"/>
<text text-anchor="middle" x="256.84" y="-57.8" font-family="Times New Roman,serif" font-size="14.00">0.076</text>
</g>
<!-- 10 -->
<g id="node11" class="node">
<title>10</title>
<g id="a_node11"><a xlink:href="biomedical scientist.svg" xlink:title="biomedical scientist">
<ellipse fill="none" stroke="black" cx="254.34" cy="-18" rx="81.79" ry="18"/>
<text text-anchor="middle" x="254.34" y="-14.3" font-family="Times New Roman,serif" font-size="14.00">biomedical scientist</text>
</a>
</g>
</g>
<!-- 1&#45;&gt;10 -->
<g id="edge11" class="edge">
<title>1&#45;&gt;10</title>
<path fill="none" stroke="black" d="M565.8,-91.73C500.41,-76.46 388.77,-50.39 318.42,-33.96"/>
<polygon fill="black" stroke="black" points="318.89,-30.48 308.35,-31.61 317.29,-37.29 318.89,-30.48"/>
<text text-anchor="middle" x="473.84" y="-57.8" font-family="Times New Roman,serif" font-size="14.00">0.076</text>
</g>
<!-- 11 -->
<g id="node12" class="node">
<title>11</title>
<g id="a_node12"><a xlink:href="catering manager.svg" xlink:title="catering manager">
<ellipse fill="none" stroke="black" cx="425.34" cy="-18" rx="71.49" ry="18"/>
<text text-anchor="middle" x="425.34" y="-14.3" font-family="Times New Roman,serif" font-size="14.00">catering manager</text>
</a>
</g>
</g>
<!-- 1&#45;&gt;11 -->
<g id="edge12" class="edge">
<title>1&#45;&gt;11</title>
<path fill="none" stroke="black" d="M583.84,-88.8C551.63,-74.62 503.44,-53.39 468.66,-38.08"/>
<polygon fill="black" stroke="black" points="469.79,-34.75 459.23,-33.92 466.97,-41.16 469.79,-34.75"/>
<text text-anchor="middle" x="549.84" y="-57.8" font-family="Times New Roman,serif" font-size="14.00">0.076</text>
</g>
<!-- 12 -->
<g id="node13" class="node">
<title>12</title>
<g id="a_node13"><a xlink:href="clinical research associate.svg" xlink:title="clinical research associate">
<ellipse fill="none" stroke="black" cx="618.34" cy="-18" rx="103.98" ry="18"/>
<text text-anchor="middle" x="618.34" y="-14.3" font-family="Times New Roman,serif" font-size="14.00">clinical research associate</text>
</a>
</g>
</g>
<!-- 1&#45;&gt;12 -->
<g id="edge14" class="edge">
<title>1&#45;&gt;12</title>
<path fill="none" stroke="black" d="M618.34,-86.8C618.34,-75.16 618.34,-59.55 618.34,-46.24"/>
<polygon fill="black" stroke="black" points="621.84,-46.18 618.34,-36.18 614.84,-46.18 621.84,-46.18"/>
<text text-anchor="middle" x="633.84" y="-57.8" font-family="Times New Roman,serif" font-size="14.00">0.076</text>
</g>
<!-- 13 -->
<g id="node14" class="node">
<title>13</title>
<g id="a_node14"><a xlink:href="database administrator.svg" xlink:title="database administrator">
<ellipse fill="none" stroke="black" cx="832.34" cy="-18" rx="92.08" ry="18"/>
<text text-anchor="middle" x="832.34" y="-14.3" font-family="Times New Roman,serif" font-size="14.00">database administrator</text>
</a>
</g>
</g>
<!-- 1&#45;&gt;13 -->
<g id="edge15" class="edge">
<title>1&#45;&gt;13</title>
<path fill="none" stroke="black" d="M655.62,-89.19C691.28,-75.03 745.23,-53.6 784.14,-38.15"/>
<polygon fill="black" stroke="black" points="785.69,-41.3 793.69,-34.35 783.1,-34.79 785.69,-41.3"/>
<text text-anchor="middle" x="753.84" y="-57.8" font-family="Times New Roman,serif" font-size="14.00">0.076</text>
</g>
<!-- 14 -->
<g id="node15" class="node">
<title>14</title>
<g id="a_node15"><a xlink:href="environmental scientist.svg" xlink:title="environmental scientist">
<ellipse fill="none" stroke="black" cx="1035.34" cy="-18" rx="92.88" ry="18"/>
<text text-anchor="middle" x="1035.34" y="-14.3" font-family="Times New Roman,serif" font-size="14.00">environmental scientist</text>
</a>
</g>
</g>
<!-- 1&#45;&gt;14 -->
<g id="edge16" class="edge">
<title>1&#45;&gt;14</title>
<path fill="none" stroke="black" d="M674.58,-92.54C749.49,-77.27 882.05,-50.25 963.93,-33.56"/>
<polygon fill="black" stroke="black" points="964.81,-36.95 973.91,-31.52 963.41,-30.09 964.81,-36.95"/>
<text text-anchor="middle" x="867.84" y="-57.8" font-family="Times New Roman,serif" font-size="14.00">0.076</text>
</g>
<!-- 15 -->
<g id="node16" class="node">
<title>15</title>
<g id="a_node16"><a xlink:href="investment banker.svg" xlink:title="investment banker">
<ellipse fill="none" stroke="black" cx="1222.34" cy="-18" rx="76.09" ry="18"/>
<text text-anchor="middle" x="1222.34" y="-14.3" font-family="Times New Roman,serif" font-size="14.00">investment banker</text>
</a>
</g>
</g>
<!-- 1&#45;&gt;15 -->
<g id="edge17" class="edge">
<title>1&#45;&gt;15</title>
<path fill="none" stroke="black" d="M686.99,-96.51C786.54,-85.32 976.65,-62.65 1137.34,-36 1143.93,-34.91 1150.78,-33.68 1157.61,-32.41"/>
<polygon fill="black" stroke="black" points="1158.4,-35.82 1167.57,-30.51 1157.09,-28.94 1158.4,-35.82"/>
<text text-anchor="middle" x="1024.84" y="-57.8" font-family="Times New Roman,serif" font-size="14.00">0.076</text>
</g>
<!-- 16 -->
<g id="node17" class="node">
<title>16</title>
<g id="a_node17"><a xlink:href="laboratory technician.svg" xlink:title="laboratory technician">
<ellipse fill="none" stroke="black" cx="1402.34" cy="-18" rx="86.38" ry="18"/>
<text text-anchor="middle" x="1402.34" y="-14.3" font-family="Times New Roman,serif" font-size="14.00">laboratory technician</text>
</a>
</g>
</g>
<!-- 1&#45;&gt;16 -->
<g id="edge19" class="edge">
<title>1&#45;&gt;16</title>
<path fill="none" stroke="black" d="M691.83,-99.3C818.14,-90.64 1084.38,-69.91 1307.34,-36 1314.77,-34.87 1322.51,-33.61 1330.23,-32.31"/>
<polygon fill="black" stroke="black" points="1331.07,-35.72 1340.33,-30.58 1329.88,-28.82 1331.07,-35.72"/>
<text text-anchor="middle" x="1171.84" y="-57.8" font-family="Times New Roman,serif" font-size="14.00">0.076</text>
</g>
<!-- 2 -->
<g id="node3" class="node">
<title>2</title>
<g id="a_node3"><a xlink:href="agricultural consultant.svg" xlink:title="agricultural consultant">
<ellipse fill="none" stroke="black" cx="235.34" cy="-192" rx="89.88" ry="18"/>
<text text-anchor="middle" x="235.34" y="-188.3" font-family="Times New Roman,serif" font-size="14.00">agricultural consultant</text>
</a>
</g>
</g>
<!-- 2&#45;&gt;1 -->
<g id="edge2" class="edge">
<title>2&#45;&gt;1</title>
<path fill="none" stroke="black" d="M293.1,-178.18C363.35,-162.59 481.57,-136.35 554.48,-120.17"/>
<polygon fill="black" stroke="black" points="555.45,-123.54 564.46,-117.96 553.94,-116.71 555.45,-123.54"/>
<text text-anchor="middle" x="465.84" y="-144.8" font-family="Times New Roman,serif" font-size="14.00">0.052</text>
</g>
<!-- 3&#45;&gt;1 -->
<g id="edge3" class="edge">
<title>3&#45;&gt;1</title>
<path fill="none" stroke="black" d="M133.71,-30.51C143.58,-32.42 153.75,-34.32 163.34,-36 296.49,-59.27 452.43,-81.49 542.85,-93.88"/>
<polygon fill="black" stroke="black" points="542.62,-97.38 553,-95.27 543.57,-90.45 542.62,-97.38"/>
<text text-anchor="middle" x="378.84" y="-57.8" font-family="Times New Roman,serif" font-size="14.00">0.052</text>
</g>
<!-- 4 -->
<g id="node5" class="node">
<title>4</title>
<g id="a_node5"><a xlink:href="commissioning editor.svg" xlink:title="commissioning editor">
<ellipse fill="none" stroke="black" cx="432.34" cy="-192" rx="89.08" ry="18"/>
<text text-anchor="middle" x="432.34" y="-188.3" font-family="Times New Roman,serif" font-size="14.00">commissioning editor</text>
</a>
</g>
</g>
<!-- 4&#45;&gt;1 -->
<g id="edge4" class="edge">
<title>4&#45;&gt;1</title>
<path fill="none" stroke="black" d="M466.89,-175.21C497.59,-161.18 542.57,-140.63 575.53,-125.56"/>
<polygon fill="black" stroke="black" points="577.28,-128.61 584.92,-121.27 574.37,-122.25 577.28,-128.61"/>
<text text-anchor="middle" x="552.84" y="-144.8" font-family="Times New Roman,serif" font-size="14.00">0.052</text>
</g>
<!-- 5 -->
<g id="node6" class="node">
<title>5</title>
<g id="a_node6"><a xlink:href="commodity broker.svg" xlink:title="commodity broker">
<ellipse fill="none" stroke="black" cx="618.34" cy="-192" rx="78.79" ry="18"/>
<text text-anchor="middle" x="618.34" y="-188.3" font-family="Times New Roman,serif" font-size="14.00">commodity broker</text>
</a>
</g>
</g>
<!-- 5&#45;&gt;1 -->
<g id="edge5" class="edge">
<title>5&#45;&gt;1</title>
<path fill="none" stroke="black" d="M618.34,-173.8C618.34,-162.16 618.34,-146.55 618.34,-133.24"/>
<polygon fill="black" stroke="black" points="621.84,-133.18 618.34,-123.18 614.84,-133.18 621.84,-133.18"/>
<text text-anchor="middle" x="633.84" y="-144.8" font-family="Times New Roman,serif" font-size="14.00">0.052</text>
</g>
<!-- 6 -->
<g id="node7" class="node">
<title>6</title>
<g id="a_node7"><a xlink:href="medical physicist.svg" xlink:title="medical physicist">
<ellipse fill="none" stroke="black" cx="788.34" cy="-192" rx="73.39" ry="18"/>
<text text-anchor="middle" x="788.34" y="-188.3" font-family="Times New Roman,serif" font-size="14.00">medical physicist</text>
</a>
</g>
</g>
<!-- 6&#45;&gt;1 -->
<g id="edge6" class="edge">
<title>6&#45;&gt;1</title>
<path fill="none" stroke="black" d="M757.56,-175.61C729.81,-161.73 688.83,-141.24 658.51,-126.09"/>
<polygon fill="black" stroke="black" points="659.98,-122.91 649.47,-121.57 656.85,-129.17 659.98,-122.91"/>
<text text-anchor="middle" x="729.84" y="-144.8" font-family="Times New Roman,serif" font-size="14.00">0.052</text>
</g>
<!-- 7 -->
<g id="node8" class="node">
<title>7</title>
<g id="a_node8"><a xlink:href="occupational therapist.svg" xlink:title="occupational therapist">
<ellipse fill="none" stroke="black" cx="970.34" cy="-192" rx="90.18" ry="18"/>
<text text-anchor="middle" x="970.34" y="-188.3" font-family="Times New Roman,serif" font-size="14.00">occupational therapist</text>
</a>
</g>
</g>
<!-- 7&#45;&gt;1 -->
<g id="edge7" class="edge">
<title>7&#45;&gt;1</title>
<path fill="none" stroke="black" d="M915.34,-177.72C851.52,-162.31 746.56,-136.96 680.03,-120.89"/>
<polygon fill="black" stroke="black" points="680.64,-117.44 670.09,-118.5 678.99,-124.25 680.64,-117.44"/>
<text text-anchor="middle" x="831.84" y="-144.8" font-family="Times New Roman,serif" font-size="14.00">0.052</text>
</g>
<!-- 8 -->
<g id="node9" class="node">
<title>8</title>
<g id="a_node9"><a xlink:href="physiotherapist.svg" xlink:title="physiotherapist">
<ellipse fill="none" stroke="black" cx="1144.34" cy="-192" rx="65.79" ry="18"/>
<text text-anchor="middle" x="1144.34" y="-188.3" font-family="Times New Roman,serif" font-size="14.00">physiotherapist</text>
</a>
</g>
</g>
<!-- 8&#45;&gt;1 -->
<g id="edge8" class="edge">
<title>8&#45;&gt;1</title>
<path fill="none" stroke="black" d="M1096.44,-179.6C1087.46,-177.61 1078.13,-175.66 1069.34,-174 938.23,-149.25 784.32,-127.62 694.43,-115.73"/>
<polygon fill="black" stroke="black" points="694.7,-112.23 684.33,-114.4 693.78,-119.17 694.7,-112.23"/>
<text text-anchor="middle" x="973.84" y="-144.8" font-family="Times New Roman,serif" font-size="14.00">0.052</text>
</g>
<!-- 9 -->
<g id="node10" class="node">
<title>9</title>
<g id="a_node10"><a xlink:href="teaching assistant.svg" xlink:title="teaching assistant">
<ellipse fill="none" stroke="black" cx="1301.34" cy="-192" rx="73.39" ry="18"/>
<text text-anchor="middle" x="1301.34" y="-188.3" font-family="Times New Roman,serif" font-size="14.00">teaching assistant</text>
</a>
</g>
</g>
<!-- 9&#45;&gt;1 -->
<g id="edge9" class="edge">
<title>9&#45;&gt;1</title>
<path fill="none" stroke="black" d="M1248.06,-179.47C1238.52,-177.55 1228.65,-175.64 1219.34,-174 1119.38,-156.36 1094.13,-153.05 993.34,-141 892.68,-128.96 776.41,-118.67 700.35,-112.42"/>
<polygon fill="black" stroke="black" points="700.6,-108.93 690.35,-111.6 700.03,-115.91 700.6,-108.93"/>
<text text-anchor="middle" x="1125.84" y="-144.8" font-family="Times New Roman,serif" font-size="14.00">0.052</text>
</g>
</g>
</svg>
