<?xml version="1.0" encoding="UTF-8" standalone="no"?>
<!DOCTYPE svg PUBLIC "-//W3C//DTD SVG 1.1//EN"
 "http://www.w3.org/Graphics/SVG/1.1/DTD/svg11.dtd">
<!-- Generated by graphviz version 2.44.1 (20200629.0800)
 -->
<!-- Title: test Pages: 1 -->
<svg width="1492pt" height="218pt"
 viewBox="0.00 0.00 1492.18 218.00" xmlns="http://www.w3.org/2000/svg" xmlns:xlink="http://www.w3.org/1999/xlink">
<g id="graph0" class="graph" transform="scale(1 1) rotate(0) translate(4 214)">
<title>test</title>
<polygon fill="white" stroke="transparent" points="-4,4 -4,-214 1488.18,-214 1488.18,4 -4,4"/>
<!-- 0 -->
<g id="node1" class="node">
<title>0</title>
<g id="a_node1"><a xlink:href="project manager.svg" xlink:title="project manager">
<ellipse fill="none" stroke="black" cx="421.09" cy="-192" rx="68.79" ry="18"/>
<text text-anchor="middle" x="421.09" y="-188.3" font-family="Times New Roman,serif" font-size="14.00">project manager</text>
</a>
</g>
</g>
<!-- 1 -->
<g id="node2" class="node">
<title>1</title>
<g id="a_node2"><a xlink:href="warehouse manager.svg" xlink:title="warehouse manager">
<ellipse fill="none" stroke="black" cx="547.09" cy="-105" rx="81.79" ry="18"/>
<text text-anchor="middle" x="547.09" y="-101.3" font-family="Times New Roman,serif" font-size="14.00">warehouse manager</text>
</a>
</g>
</g>
<!-- 0&#45;&gt;1 -->
<g id="edge1" class="edge">
<title>0&#45;&gt;1</title>
<path fill="none" stroke="black" d="M431.56,-173.83C438.76,-163.19 449.16,-149.91 461.09,-141 470.19,-134.21 480.78,-128.51 491.36,-123.81"/>
<polygon fill="black" stroke="black" points="492.74,-127.03 500.62,-119.94 490.04,-120.57 492.74,-127.03"/>
<text text-anchor="middle" x="476.59" y="-144.8" font-family="Times New Roman,serif" font-size="14.00">0.090</text>
</g>
<!-- 1&#45;&gt;0 -->
<g id="edge10" class="edge">
<title>1&#45;&gt;0</title>
<path fill="none" stroke="black" d="M530.79,-123.08C520.36,-133.42 506.17,-146.41 492.09,-156 483.66,-161.74 474.15,-167.1 464.89,-171.81"/>
<polygon fill="black" stroke="black" points="463.19,-168.74 455.76,-176.3 466.28,-175.03 463.19,-168.74"/>
<text text-anchor="middle" x="527.59" y="-144.8" font-family="Times New Roman,serif" font-size="14.00">0.116</text>
</g>
<!-- 1&#45;&gt;1 -->
<g id="edge12" class="edge">
<title>1&#45;&gt;1</title>
<path fill="none" stroke="black" d="M621.59,-112.55C636.42,-111.7 646.99,-109.18 646.99,-105 646.99,-101.86 641.04,-99.66 631.81,-98.4"/>
<polygon fill="black" stroke="black" points="631.87,-94.89 621.59,-97.45 631.22,-101.86 631.87,-94.89"/>
<text text-anchor="middle" x="662.49" y="-101.3" font-family="Times New Roman,serif" font-size="14.00">0.060</text>
</g>
<!-- 2 -->
<g id="node3" class="node">
<title>2</title>
<g id="a_node3"><a xlink:href="sales manager.svg" xlink:title="sales manager">
<ellipse fill="none" stroke="black" cx="61.09" cy="-18" rx="61.19" ry="18"/>
<text text-anchor="middle" x="61.09" y="-14.3" font-family="Times New Roman,serif" font-size="14.00">sales manager</text>
</a>
</g>
</g>
<!-- 1&#45;&gt;2 -->
<g id="edge11" class="edge">
<title>1&#45;&gt;2</title>
<path fill="none" stroke="black" d="M465.55,-103.12C359.71,-100.98 181.45,-93.69 121.09,-69 106.75,-63.13 93.26,-52.54 82.72,-42.61"/>
<polygon fill="black" stroke="black" points="85.17,-40.11 75.59,-35.58 80.25,-45.09 85.17,-40.11"/>
<text text-anchor="middle" x="136.59" y="-57.8" font-family="Times New Roman,serif" font-size="14.00">0.071</text>
</g>
<!-- 3 -->
<g id="node4" class="node">
<title>3</title>
<g id="a_node4"><a xlink:href="it consultant.svg" xlink:title="it consultant">
<ellipse fill="none" stroke="black" cx="195.09" cy="-18" rx="54.69" ry="18"/>
<text text-anchor="middle" x="195.09" y="-14.3" font-family="Times New Roman,serif" font-size="14.00">it consultant</text>
</a>
</g>
</g>
<!-- 1&#45;&gt;3 -->
<g id="edge15" class="edge">
<title>1&#45;&gt;3</title>
<path fill="none" stroke="black" d="M465.46,-102.94C409.79,-99.98 335.18,-91.56 273.09,-69 255.19,-62.49 237.16,-51.31 222.95,-41.16"/>
<polygon fill="black" stroke="black" points="224.76,-38.15 214.63,-35.03 220.61,-43.78 224.76,-38.15"/>
<text text-anchor="middle" x="288.59" y="-57.8" font-family="Times New Roman,serif" font-size="14.00">0.040</text>
</g>
<!-- 4 -->
<g id="node5" class="node">
<title>4</title>
<g id="a_node5"><a xlink:href="pharmacovigilance officer.svg" xlink:title="pharmacovigilance officer">
<ellipse fill="none" stroke="black" cx="372.09" cy="-18" rx="104.78" ry="18"/>
<text text-anchor="middle" x="372.09" y="-14.3" font-family="Times New Roman,serif" font-size="14.00">pharmacovigilance officer</text>
</a>
</g>
</g>
<!-- 1&#45;&gt;4 -->
<g id="edge13" class="edge">
<title>1&#45;&gt;4</title>
<path fill="none" stroke="black" d="M480.48,-94.48C458.5,-89.28 434.68,-81.28 415.09,-69 404.99,-62.67 396,-53.22 388.87,-44.23"/>
<polygon fill="black" stroke="black" points="391.67,-42.13 382.88,-36.21 386.06,-46.31 391.67,-42.13"/>
<text text-anchor="middle" x="430.59" y="-57.8" font-family="Times New Roman,serif" font-size="14.00">0.055</text>
</g>
<!-- 6 -->
<g id="node7" class="node">
<title>6</title>
<g id="a_node7"><a xlink:href="facilities manager.svg" xlink:title="facilities manager">
<ellipse fill="none" stroke="black" cx="567.09" cy="-18" rx="72.59" ry="18"/>
<text text-anchor="middle" x="567.09" y="-14.3" font-family="Times New Roman,serif" font-size="14.00">facilities manager</text>
</a>
</g>
</g>
<!-- 1&#45;&gt;6 -->
<g id="edge16" class="edge">
<title>1&#45;&gt;6</title>
<path fill="none" stroke="black" d="M529.55,-86.96C521.83,-77.33 515.62,-65.05 521.09,-54 523.43,-49.29 526.74,-45.04 530.52,-41.26"/>
<polygon fill="black" stroke="black" points="532.98,-43.76 538.25,-34.57 528.4,-38.47 532.98,-43.76"/>
<text text-anchor="middle" x="536.59" y="-57.8" font-family="Times New Roman,serif" font-size="14.00">0.035</text>
</g>
<!-- 7 -->
<g id="node8" class="node">
<title>7</title>
<g id="a_node8"><a xlink:href="logistics manager.svg" xlink:title="logistics manager">
<ellipse fill="none" stroke="black" cx="731.09" cy="-18" rx="73.39" ry="18"/>
<text text-anchor="middle" x="731.09" y="-14.3" font-family="Times New Roman,serif" font-size="14.00">logistics manager</text>
</a>
</g>
</g>
<!-- 1&#45;&gt;7 -->
<g id="edge14" class="edge">
<title>1&#45;&gt;7</title>
<path fill="none" stroke="black" d="M573.06,-87.72C590.27,-77.32 613.56,-63.96 635.09,-54 648.96,-47.59 664.36,-41.53 678.7,-36.31"/>
<polygon fill="black" stroke="black" points="680.18,-39.5 688.42,-32.84 677.83,-32.91 680.18,-39.5"/>
<text text-anchor="middle" x="650.59" y="-57.8" font-family="Times New Roman,serif" font-size="14.00">0.045</text>
</g>
<!-- 8 -->
<g id="node9" class="node">
<title>8</title>
<g id="a_node9"><a xlink:href="office manager.svg" xlink:title="office manager">
<ellipse fill="none" stroke="black" cx="887.09" cy="-18" rx="64.19" ry="18"/>
<text text-anchor="middle" x="887.09" y="-14.3" font-family="Times New Roman,serif" font-size="14.00">office manager</text>
</a>
</g>
</g>
<!-- 1&#45;&gt;8 -->
<g id="edge19" class="edge">
<title>1&#45;&gt;8</title>
<path fill="none" stroke="black" d="M610.01,-93.42C644.49,-87.18 687.87,-78.64 726.09,-69 737.05,-66.24 793.4,-48.6 836.38,-35.05"/>
<polygon fill="black" stroke="black" points="837.67,-38.32 846.15,-31.97 835.56,-31.64 837.67,-38.32"/>
<text text-anchor="middle" x="787.59" y="-57.8" font-family="Times New Roman,serif" font-size="14.00">0.030</text>
</g>
<!-- 10 -->
<g id="node11" class="node">
<title>10</title>
<g id="a_node11"><a xlink:href="production manager.svg" xlink:title="production manager">
<ellipse fill="none" stroke="black" cx="1053.09" cy="-18" rx="83.39" ry="18"/>
<text text-anchor="middle" x="1053.09" y="-14.3" font-family="Times New Roman,serif" font-size="14.00">production manager</text>
</a>
</g>
</g>
<!-- 1&#45;&gt;10 -->
<g id="edge17" class="edge">
<title>1&#45;&gt;10</title>
<path fill="none" stroke="black" d="M624.93,-99.31C691.52,-94.44 789.7,-85.19 874.09,-69 916.96,-60.78 964.51,-47.28 999.82,-36.38"/>
<polygon fill="black" stroke="black" points="1000.94,-39.7 1009.44,-33.39 998.85,-33.02 1000.94,-39.7"/>
<text text-anchor="middle" x="948.59" y="-57.8" font-family="Times New Roman,serif" font-size="14.00">0.035</text>
</g>
<!-- 11 -->
<g id="node12" class="node">
<title>11</title>
<g id="a_node12"><a xlink:href="geographical information systems manager.svg" xlink:title="geographical information systems manager">
<ellipse fill="none" stroke="black" cx="1319.09" cy="-18" rx="165.17" ry="18"/>
<text text-anchor="middle" x="1319.09" y="-14.3" font-family="Times New Roman,serif" font-size="14.00">geographical information systems manager</text>
</a>
</g>
</g>
<!-- 1&#45;&gt;11 -->
<g id="edge18" class="edge">
<title>1&#45;&gt;11</title>
<path fill="none" stroke="black" d="M624.43,-98.93C708.98,-93.08 848.39,-82.49 968.09,-69 1053.21,-59.41 1149.5,-45.47 1219.67,-34.75"/>
<polygon fill="black" stroke="black" points="1220.48,-38.16 1229.83,-33.19 1219.42,-31.24 1220.48,-38.16"/>
<text text-anchor="middle" x="1099.59" y="-57.8" font-family="Times New Roman,serif" font-size="14.00">0.030</text>
</g>
<!-- 2&#45;&gt;1 -->
<g id="edge2" class="edge">
<title>2&#45;&gt;1</title>
<path fill="none" stroke="black" d="M95.46,-33.05C125.07,-44.56 169.21,-60.31 209.09,-69 292.02,-87.07 388.49,-95.88 457.09,-100.14"/>
<polygon fill="black" stroke="black" points="457.23,-103.65 467.43,-100.76 457.65,-96.66 457.23,-103.65"/>
<text text-anchor="middle" x="224.59" y="-57.8" font-family="Times New Roman,serif" font-size="14.00">0.081</text>
</g>
<!-- 3&#45;&gt;1 -->
<g id="edge3" class="edge">
<title>3&#45;&gt;1</title>
<path fill="none" stroke="black" d="M232.4,-31.19C266.45,-42.04 318.31,-57.88 364.09,-69 399.84,-77.68 439.95,-85.56 473.48,-91.63"/>
<polygon fill="black" stroke="black" points="473.21,-95.14 483.67,-93.46 474.44,-88.25 473.21,-95.14"/>
<text text-anchor="middle" x="379.59" y="-57.8" font-family="Times New Roman,serif" font-size="14.00">0.054</text>
</g>
<!-- 4&#45;&gt;1 -->
<g id="edge4" class="edge">
<title>4&#45;&gt;1</title>
<path fill="none" stroke="black" d="M405.48,-35.21C434.03,-49.08 475.25,-69.1 505.86,-83.97"/>
<polygon fill="black" stroke="black" points="504.47,-87.19 515,-88.41 507.53,-80.89 504.47,-87.19"/>
<text text-anchor="middle" x="485.59" y="-57.8" font-family="Times New Roman,serif" font-size="14.00">0.036</text>
</g>
<!-- 5 -->
<g id="node6" class="node">
<title>5</title>
<g id="a_node6"><a xlink:href="financial manager.svg" xlink:title="financial manager">
<ellipse fill="none" stroke="black" cx="581.09" cy="-192" rx="73.39" ry="18"/>
<text text-anchor="middle" x="581.09" y="-188.3" font-family="Times New Roman,serif" font-size="14.00">financial manager</text>
</a>
</g>
</g>
<!-- 5&#45;&gt;1 -->
<g id="edge5" class="edge">
<title>5&#45;&gt;1</title>
<path fill="none" stroke="black" d="M574.21,-173.8C569.51,-162.05 563.19,-146.24 557.83,-132.84"/>
<polygon fill="black" stroke="black" points="560.93,-131.16 553.96,-123.18 554.43,-133.76 560.93,-131.16"/>
<text text-anchor="middle" x="581.59" y="-144.8" font-family="Times New Roman,serif" font-size="14.00">0.027</text>
</g>
<!-- 6&#45;&gt;1 -->
<g id="edge6" class="edge">
<title>6&#45;&gt;1</title>
<path fill="none" stroke="black" d="M563.05,-36.18C560.32,-47.81 556.64,-63.42 553.51,-76.73"/>
<polygon fill="black" stroke="black" points="550.03,-76.26 551.14,-86.8 556.84,-77.87 550.03,-76.26"/>
<text text-anchor="middle" x="574.59" y="-57.8" font-family="Times New Roman,serif" font-size="14.00">0.022</text>
</g>
<!-- 7&#45;&gt;1 -->
<g id="edge7" class="edge">
<title>7&#45;&gt;1</title>
<path fill="none" stroke="black" d="M714.58,-35.73C703.02,-46.6 686.72,-60.31 670.09,-69 653.25,-77.81 633.92,-84.64 615.64,-89.83"/>
<polygon fill="black" stroke="black" points="614.65,-86.48 605.91,-92.48 616.48,-93.23 614.65,-86.48"/>
<text text-anchor="middle" x="706.59" y="-57.8" font-family="Times New Roman,serif" font-size="14.00">0.022</text>
</g>
<!-- 8&#45;&gt;1 -->
<g id="edge8" class="edge">
<title>8&#45;&gt;1</title>
<path fill="none" stroke="black" d="M867.81,-35.25C853.19,-46.64 832.11,-61.17 811.09,-69 756.06,-89.52 690.64,-98.29 638.69,-101.92"/>
<polygon fill="black" stroke="black" points="638.24,-98.44 628.49,-102.58 638.69,-105.43 638.24,-98.44"/>
<text text-anchor="middle" x="854.59" y="-57.8" font-family="Times New Roman,serif" font-size="14.00">0.022</text>
</g>
<!-- 9 -->
<g id="node10" class="node">
<title>9</title>
<g id="a_node10"><a xlink:href="site manager.svg" xlink:title="site manager">
<ellipse fill="none" stroke="black" cx="728.09" cy="-192" rx="55.79" ry="18"/>
<text text-anchor="middle" x="728.09" y="-188.3" font-family="Times New Roman,serif" font-size="14.00">site manager</text>
</a>
</g>
</g>
<!-- 9&#45;&gt;1 -->
<g id="edge9" class="edge">
<title>9&#45;&gt;1</title>
<path fill="none" stroke="black" d="M697.8,-176.77C668.21,-162.88 622.92,-141.61 589.71,-126.01"/>
<polygon fill="black" stroke="black" points="590.79,-122.65 580.25,-121.57 587.82,-128.99 590.79,-122.65"/>
<text text-anchor="middle" x="663.59" y="-144.8" font-family="Times New Roman,serif" font-size="14.00">0.022</text>
</g>
</g>
</svg>
