<?xml version="1.0" encoding="UTF-8" standalone="no"?>
<!DOCTYPE svg PUBLIC "-//W3C//DTD SVG 1.1//EN"
 "http://www.w3.org/Graphics/SVG/1.1/DTD/svg11.dtd">
<!-- Generated by graphviz version 2.44.1 (20200629.0800)
 -->
<!-- Title: water_officer Pages: 1 -->
<svg width="1557pt" height="218pt"
 viewBox="0.00 0.00 1557.14 218.00" xmlns="http://www.w3.org/2000/svg" xmlns:xlink="http://www.w3.org/1999/xlink">
<g id="graph0" class="graph" transform="scale(1 1) rotate(0) translate(4 214)">
<title>water_officer</title>
<polygon fill="white" stroke="transparent" points="-4,4 -4,-214 1553.14,-214 1553.14,4 -4,4"/>
<!-- 0 -->
<g id="node1" class="node">
<title>0</title>
<g id="a_node1"><a xlink:href="mechanical engineer.svg" xlink:title="mechanical engineer">
<ellipse fill="none" stroke="black" cx="83.19" cy="-192" rx="83.39" ry="18"/>
<text text-anchor="middle" x="83.19" y="-188.3" font-family="Times New Roman,serif" font-size="14.00">mechanical engineer</text>
</a>
</g>
</g>
<!-- 1 -->
<g id="node2" class="node">
<title>1</title>
<g id="a_node2"><a xlink:href="water officer.svg" xlink:title="water officer">
<ellipse fill="none" stroke="black" cx="567.19" cy="-105" rx="56.59" ry="18"/>
<text text-anchor="middle" x="567.19" y="-101.3" font-family="Times New Roman,serif" font-size="14.00">water officer</text>
</a>
</g>
</g>
<!-- 0&#45;&gt;1 -->
<g id="edge1" class="edge">
<title>0&#45;&gt;1</title>
<path fill="none" stroke="black" d="M144.46,-179.74C155.04,-177.81 165.93,-175.84 176.19,-174 294.16,-152.86 432.33,-129.06 508.79,-115.97"/>
<polygon fill="black" stroke="black" points="509.44,-119.41 518.7,-114.27 508.26,-112.51 509.44,-119.41"/>
<text text-anchor="middle" x="371.69" y="-144.8" font-family="Times New Roman,serif" font-size="14.00">0.08</text>
</g>
<!-- 1&#45;&gt;1 -->
<g id="edge10" class="edge">
<title>1&#45;&gt;1</title>
<path fill="none" stroke="black" d="M618.41,-112.79C631.71,-112.31 641.74,-109.72 641.74,-105 641.74,-101.57 636.44,-99.26 628.45,-98.07"/>
<polygon fill="black" stroke="black" points="628.67,-94.58 618.41,-97.21 628.07,-101.56 628.67,-94.58"/>
<text text-anchor="middle" x="657.24" y="-101.3" font-family="Times New Roman,serif" font-size="14.00">0.166</text>
</g>
<!-- 5 -->
<g id="node6" class="node">
<title>5</title>
<g id="a_node6"><a xlink:href="project manager.svg" xlink:title="project manager">
<ellipse fill="none" stroke="black" cx="76.19" cy="-18" rx="68.79" ry="18"/>
<text text-anchor="middle" x="76.19" y="-14.3" font-family="Times New Roman,serif" font-size="14.00">project manager</text>
</a>
</g>
</g>
<!-- 1&#45;&gt;5 -->
<g id="edge11" class="edge">
<title>1&#45;&gt;5</title>
<path fill="none" stroke="black" d="M511.25,-102.04C416.42,-98.24 228.28,-88.47 165.19,-69 144.76,-62.69 123.82,-51.23 107.38,-40.86"/>
<polygon fill="black" stroke="black" points="109.04,-37.77 98.75,-35.26 105.23,-43.64 109.04,-37.77"/>
<text text-anchor="middle" x="180.69" y="-57.8" font-family="Times New Roman,serif" font-size="14.00">0.104</text>
</g>
<!-- 9 -->
<g id="node10" class="node">
<title>9</title>
<g id="a_node10"><a xlink:href="civil engineer.svg" xlink:title="civil engineer">
<ellipse fill="none" stroke="black" cx="221.19" cy="-18" rx="57.69" ry="18"/>
<text text-anchor="middle" x="221.19" y="-14.3" font-family="Times New Roman,serif" font-size="14.00">civil engineer</text>
</a>
</g>
</g>
<!-- 1&#45;&gt;9 -->
<g id="edge14" class="edge">
<title>1&#45;&gt;9</title>
<path fill="none" stroke="black" d="M512.35,-100.43C463.48,-96.19 390.43,-87.26 329.19,-69 304.12,-61.52 277.43,-49.21 256.86,-38.68"/>
<polygon fill="black" stroke="black" points="258.35,-35.51 247.86,-33.99 255.11,-41.71 258.35,-35.51"/>
<text text-anchor="middle" x="344.69" y="-57.8" font-family="Times New Roman,serif" font-size="14.00">0.041</text>
</g>
<!-- 10 -->
<g id="node11" class="node">
<title>10</title>
<g id="a_node11"><a xlink:href="pharmacovigilance officer.svg" xlink:title="pharmacovigilance officer">
<ellipse fill="none" stroke="black" cx="401.19" cy="-18" rx="104.78" ry="18"/>
<text text-anchor="middle" x="401.19" y="-14.3" font-family="Times New Roman,serif" font-size="14.00">pharmacovigilance officer</text>
</a>
</g>
</g>
<!-- 1&#45;&gt;10 -->
<g id="edge12" class="edge">
<title>1&#45;&gt;10</title>
<path fill="none" stroke="black" d="M538.66,-89.39C512.03,-75.75 472,-55.26 442,-39.89"/>
<polygon fill="black" stroke="black" points="443.53,-36.75 433.04,-35.31 440.34,-42.98 443.53,-36.75"/>
<text text-anchor="middle" x="509.69" y="-57.8" font-family="Times New Roman,serif" font-size="14.00">0.062</text>
</g>
<!-- 11 -->
<g id="node12" class="node">
<title>11</title>
<g id="a_node12"><a xlink:href="secretary.svg" xlink:title="secretary">
<ellipse fill="none" stroke="black" cx="567.19" cy="-18" rx="43.59" ry="18"/>
<text text-anchor="middle" x="567.19" y="-14.3" font-family="Times New Roman,serif" font-size="14.00">secretary</text>
</a>
</g>
</g>
<!-- 1&#45;&gt;11 -->
<g id="edge13" class="edge">
<title>1&#45;&gt;11</title>
<path fill="none" stroke="black" d="M567.19,-86.8C567.19,-75.16 567.19,-59.55 567.19,-46.24"/>
<polygon fill="black" stroke="black" points="570.69,-46.18 567.19,-36.18 563.69,-46.18 570.69,-46.18"/>
<text text-anchor="middle" x="582.69" y="-57.8" font-family="Times New Roman,serif" font-size="14.00">0.062</text>
</g>
<!-- 12 -->
<g id="node13" class="node">
<title>12</title>
<g id="a_node13"><a xlink:href="clinical research associate.svg" xlink:title="clinical research associate">
<ellipse fill="none" stroke="black" cx="733.19" cy="-18" rx="103.98" ry="18"/>
<text text-anchor="middle" x="733.19" y="-14.3" font-family="Times New Roman,serif" font-size="14.00">clinical research associate</text>
</a>
</g>
</g>
<!-- 1&#45;&gt;12 -->
<g id="edge15" class="edge">
<title>1&#45;&gt;12</title>
<path fill="none" stroke="black" d="M595.73,-89.39C622.44,-75.71 662.64,-55.13 692.67,-39.75"/>
<polygon fill="black" stroke="black" points="694.33,-42.83 701.64,-35.16 691.14,-36.6 694.33,-42.83"/>
<text text-anchor="middle" x="675.69" y="-57.8" font-family="Times New Roman,serif" font-size="14.00">0.041</text>
</g>
<!-- 13 -->
<g id="node14" class="node">
<title>13</title>
<g id="a_node14"><a xlink:href="education administrator.svg" xlink:title="education administrator">
<ellipse fill="none" stroke="black" cx="951.19" cy="-18" rx="95.58" ry="18"/>
<text text-anchor="middle" x="951.19" y="-14.3" font-family="Times New Roman,serif" font-size="14.00">education administrator</text>
</a>
</g>
</g>
<!-- 1&#45;&gt;13 -->
<g id="edge16" class="edge">
<title>1&#45;&gt;13</title>
<path fill="none" stroke="black" d="M612.37,-94C678.78,-79.3 803.31,-51.73 881.5,-34.43"/>
<polygon fill="black" stroke="black" points="882.73,-37.74 891.74,-32.16 881.22,-30.9 882.73,-37.74"/>
<text text-anchor="middle" x="796.69" y="-57.8" font-family="Times New Roman,serif" font-size="14.00">0.041</text>
</g>
<!-- 14 -->
<g id="node15" class="node">
<title>14</title>
<g id="a_node15"><a xlink:href="production manager.svg" xlink:title="production manager">
<ellipse fill="none" stroke="black" cx="1148.19" cy="-18" rx="83.39" ry="18"/>
<text text-anchor="middle" x="1148.19" y="-14.3" font-family="Times New Roman,serif" font-size="14.00">production manager</text>
</a>
</g>
</g>
<!-- 1&#45;&gt;14 -->
<g id="edge17" class="edge">
<title>1&#45;&gt;14</title>
<path fill="none" stroke="black" d="M619.06,-97.56C708.47,-86.28 897.33,-61.71 1056.19,-36 1063.25,-34.86 1070.6,-33.61 1077.93,-32.32"/>
<polygon fill="black" stroke="black" points="1078.65,-35.74 1087.88,-30.54 1077.43,-28.85 1078.65,-35.74"/>
<text text-anchor="middle" x="950.69" y="-57.8" font-family="Times New Roman,serif" font-size="14.00">0.041</text>
</g>
<!-- 15 -->
<g id="node16" class="node">
<title>15</title>
<g id="a_node16"><a xlink:href="sales manager.svg" xlink:title="sales manager">
<ellipse fill="none" stroke="black" cx="1310.19" cy="-18" rx="61.19" ry="18"/>
<text text-anchor="middle" x="1310.19" y="-14.3" font-family="Times New Roman,serif" font-size="14.00">sales manager</text>
</a>
</g>
</g>
<!-- 1&#45;&gt;15 -->
<g id="edge18" class="edge">
<title>1&#45;&gt;15</title>
<path fill="none" stroke="black" d="M623.01,-101.36C738.84,-95.22 1013.45,-77.24 1240.19,-36 1245.29,-35.07 1250.57,-34 1255.85,-32.85"/>
<polygon fill="black" stroke="black" points="1256.94,-36.19 1265.92,-30.58 1255.4,-29.37 1256.94,-36.19"/>
<text text-anchor="middle" x="1127.69" y="-57.8" font-family="Times New Roman,serif" font-size="14.00">0.041</text>
</g>
<!-- 16 -->
<g id="node17" class="node">
<title>16</title>
<g id="a_node17"><a xlink:href="software developer.svg" xlink:title="software developer">
<ellipse fill="none" stroke="black" cx="1469.19" cy="-18" rx="79.89" ry="18"/>
<text text-anchor="middle" x="1469.19" y="-14.3" font-family="Times New Roman,serif" font-size="14.00">software developer</text>
</a>
</g>
</g>
<!-- 1&#45;&gt;16 -->
<g id="edge19" class="edge">
<title>1&#45;&gt;16</title>
<path fill="none" stroke="black" d="M623.3,-102.11C726.98,-98.3 955.49,-88.33 1147.19,-69 1251.25,-58.51 1277.02,-53.15 1380.19,-36 1386.97,-34.87 1394.02,-33.64 1401.07,-32.36"/>
<polygon fill="black" stroke="black" points="1402.14,-35.72 1411.34,-30.47 1400.87,-28.84 1402.14,-35.72"/>
<text text-anchor="middle" x="1282.69" y="-57.8" font-family="Times New Roman,serif" font-size="14.00">0.041</text>
</g>
<!-- 2 -->
<g id="node3" class="node">
<title>2</title>
<g id="a_node3"><a xlink:href="catering manager.svg" xlink:title="catering manager">
<ellipse fill="none" stroke="black" cx="256.19" cy="-192" rx="71.49" ry="18"/>
<text text-anchor="middle" x="256.19" y="-188.3" font-family="Times New Roman,serif" font-size="14.00">catering manager</text>
</a>
</g>
</g>
<!-- 2&#45;&gt;1 -->
<g id="edge2" class="edge">
<title>2&#45;&gt;1</title>
<path fill="none" stroke="black" d="M302.75,-178.27C359.94,-162.65 456.63,-136.22 515.9,-120.02"/>
<polygon fill="black" stroke="black" points="517.07,-123.33 525.79,-117.32 515.22,-116.58 517.07,-123.33"/>
<text text-anchor="middle" x="443.69" y="-144.8" font-family="Times New Roman,serif" font-size="14.00">0.04</text>
</g>
<!-- 3 -->
<g id="node4" class="node">
<title>3</title>
<g id="a_node4"><a xlink:href="it consultant.svg" xlink:title="it consultant">
<ellipse fill="none" stroke="black" cx="400.19" cy="-192" rx="54.69" ry="18"/>
<text text-anchor="middle" x="400.19" y="-188.3" font-family="Times New Roman,serif" font-size="14.00">it consultant</text>
</a>
</g>
</g>
<!-- 3&#45;&gt;1 -->
<g id="edge3" class="edge">
<title>3&#45;&gt;1</title>
<path fill="none" stroke="black" d="M428.52,-176.58C456.27,-162.46 498.72,-140.85 529.35,-125.26"/>
<polygon fill="black" stroke="black" points="531.12,-128.29 538.44,-120.63 527.94,-122.05 531.12,-128.29"/>
<text text-anchor="middle" x="506.69" y="-144.8" font-family="Times New Roman,serif" font-size="14.00">0.04</text>
</g>
<!-- 4 -->
<g id="node5" class="node">
<title>4</title>
<g id="a_node5"><a xlink:href="manufacturing engineer.svg" xlink:title="manufacturing engineer">
<ellipse fill="none" stroke="black" cx="567.19" cy="-192" rx="94.48" ry="18"/>
<text text-anchor="middle" x="567.19" y="-188.3" font-family="Times New Roman,serif" font-size="14.00">manufacturing engineer</text>
</a>
</g>
</g>
<!-- 4&#45;&gt;1 -->
<g id="edge4" class="edge">
<title>4&#45;&gt;1</title>
<path fill="none" stroke="black" d="M567.19,-173.8C567.19,-162.16 567.19,-146.55 567.19,-133.24"/>
<polygon fill="black" stroke="black" points="570.69,-133.18 567.19,-123.18 563.69,-133.18 570.69,-133.18"/>
<text text-anchor="middle" x="579.69" y="-144.8" font-family="Times New Roman,serif" font-size="14.00">0.04</text>
</g>
<!-- 5&#45;&gt;1 -->
<g id="edge5" class="edge">
<title>5&#45;&gt;1</title>
<path fill="none" stroke="black" d="M118.39,-32.35C155.62,-43.66 211.52,-59.5 261.19,-69 343.78,-84.79 440.36,-94.39 502.59,-99.44"/>
<polygon fill="black" stroke="black" points="502.4,-102.94 512.65,-100.24 502.96,-95.96 502.4,-102.94"/>
<text text-anchor="middle" x="273.69" y="-57.8" font-family="Times New Roman,serif" font-size="14.00">0.04</text>
</g>
<!-- 6 -->
<g id="node7" class="node">
<title>6</title>
<g id="a_node7"><a xlink:href="technical author.svg" xlink:title="technical author">
<ellipse fill="none" stroke="black" cx="747.19" cy="-192" rx="67.69" ry="18"/>
<text text-anchor="middle" x="747.19" y="-188.3" font-family="Times New Roman,serif" font-size="14.00">technical author</text>
</a>
</g>
</g>
<!-- 6&#45;&gt;1 -->
<g id="edge6" class="edge">
<title>6&#45;&gt;1</title>
<path fill="none" stroke="black" d="M715.43,-176C685.11,-161.68 639.35,-140.08 606.7,-124.66"/>
<polygon fill="black" stroke="black" points="607.98,-121.39 597.44,-120.28 604.99,-127.72 607.98,-121.39"/>
<text text-anchor="middle" x="680.69" y="-144.8" font-family="Times New Roman,serif" font-size="14.00">0.04</text>
</g>
<!-- 7 -->
<g id="node8" class="node">
<title>7</title>
<g id="a_node8"><a xlink:href="accountant.svg" xlink:title="accountant">
<ellipse fill="none" stroke="black" cx="883.19" cy="-192" rx="50.09" ry="18"/>
<text text-anchor="middle" x="883.19" y="-188.3" font-family="Times New Roman,serif" font-size="14.00">accountant</text>
</a>
</g>
</g>
<!-- 7&#45;&gt;1 -->
<g id="edge7" class="edge">
<title>7&#45;&gt;1</title>
<path fill="none" stroke="black" d="M845.46,-179.99C838.4,-177.97 831.08,-175.9 824.19,-174 753.71,-154.52 672.03,-133.11 620.01,-119.61"/>
<polygon fill="black" stroke="black" points="620.57,-116.14 610.01,-117.02 618.82,-122.92 620.57,-116.14"/>
<text text-anchor="middle" x="765.69" y="-144.8" font-family="Times New Roman,serif" font-size="14.00">0.02</text>
</g>
<!-- 8 -->
<g id="node9" class="node">
<title>8</title>
<g id="a_node9"><a xlink:href="biomedical scientist.svg" xlink:title="biomedical scientist">
<ellipse fill="none" stroke="black" cx="1033.19" cy="-192" rx="81.79" ry="18"/>
<text text-anchor="middle" x="1033.19" y="-188.3" font-family="Times New Roman,serif" font-size="14.00">biomedical scientist</text>
</a>
</g>
</g>
<!-- 8&#45;&gt;1 -->
<g id="edge8" class="edge">
<title>8&#45;&gt;1</title>
<path fill="none" stroke="black" d="M975.98,-179.01C925.18,-168.5 848.87,-153.06 782.19,-141 730,-131.56 670.46,-121.95 627.29,-115.2"/>
<polygon fill="black" stroke="black" points="627.66,-111.72 617.24,-113.64 626.58,-118.63 627.66,-111.72"/>
<text text-anchor="middle" x="870.69" y="-144.8" font-family="Times New Roman,serif" font-size="14.00">0.02</text>
</g>
<!-- 9&#45;&gt;1 -->
<g id="edge9" class="edge">
<title>9&#45;&gt;1</title>
<path fill="none" stroke="black" d="M264.13,-30.15C271.8,-32.12 279.73,-34.13 287.19,-36 365.7,-55.64 456.81,-77.62 513.24,-91.13"/>
<polygon fill="black" stroke="black" points="512.48,-94.55 523.02,-93.47 514.1,-87.74 512.48,-94.55"/>
<text text-anchor="middle" x="430.69" y="-57.8" font-family="Times New Roman,serif" font-size="14.00">0.02</text>
</g>
</g>
</svg>
