<?xml version="1.0" encoding="UTF-8" standalone="no"?>
<!DOCTYPE svg PUBLIC "-//W3C//DTD SVG 1.1//EN"
 "http://www.w3.org/Graphics/SVG/1.1/DTD/svg11.dtd">
<!-- Generated by graphviz version 2.44.1 (20200629.0800)
 -->
<!-- Title: test Pages: 1 -->
<svg width="1183pt" height="218pt"
 viewBox="0.00 0.00 1183.49 218.00" xmlns="http://www.w3.org/2000/svg" xmlns:xlink="http://www.w3.org/1999/xlink">
<g id="graph0" class="graph" transform="scale(1 1) rotate(0) translate(4 214)">
<title>test</title>
<polygon fill="white" stroke="transparent" points="-4,4 -4,-214 1179.49,-214 1179.49,4 -4,4"/>
<!-- 0 -->
<g id="node1" class="node">
<title>0</title>
<g id="a_node1"><a xlink:href="software developer.svg" xlink:title="software developer">
<ellipse fill="none" stroke="black" cx="326" cy="-192" rx="79.89" ry="18"/>
<text text-anchor="middle" x="326" y="-188.3" font-family="Times New Roman,serif" font-size="14.00">software developer</text>
</a>
</g>
</g>
<!-- 1 -->
<g id="node2" class="node">
<title>1</title>
<g id="a_node2"><a xlink:href="web designer.svg" xlink:title="web designer">
<ellipse fill="none" stroke="black" cx="492" cy="-105" rx="58.49" ry="18"/>
<text text-anchor="middle" x="492" y="-101.3" font-family="Times New Roman,serif" font-size="14.00">web designer</text>
</a>
</g>
</g>
<!-- 0&#45;&gt;1 -->
<g id="edge1" class="edge">
<title>0&#45;&gt;1</title>
<path fill="none" stroke="black" d="M337.52,-173.9C345.68,-163.02 357.54,-149.43 371,-141 389.23,-129.57 411.32,-121.76 431.61,-116.47"/>
<polygon fill="black" stroke="black" points="432.53,-119.85 441.41,-114.07 430.86,-113.05 432.53,-119.85"/>
<text text-anchor="middle" x="386.5" y="-144.8" font-family="Times New Roman,serif" font-size="14.00">0.163</text>
</g>
<!-- 1&#45;&gt;0 -->
<g id="edge10" class="edge">
<title>1&#45;&gt;0</title>
<path fill="none" stroke="black" d="M465.89,-121.19C448.08,-131.38 423.84,-144.92 402,-156 391.67,-161.23 380.42,-166.6 369.81,-171.51"/>
<polygon fill="black" stroke="black" points="368.32,-168.34 360.69,-175.69 371.24,-174.7 368.32,-168.34"/>
<text text-anchor="middle" x="445.5" y="-144.8" font-family="Times New Roman,serif" font-size="14.00">0.367</text>
</g>
<!-- 1&#45;&gt;1 -->
<g id="edge11" class="edge">
<title>1&#45;&gt;1</title>
<path fill="none" stroke="black" d="M544.91,-112.78C558.38,-112.27 568.49,-109.68 568.49,-105 568.49,-101.6 563.15,-99.3 555.07,-98.11"/>
<polygon fill="black" stroke="black" points="555.17,-94.6 544.91,-97.22 554.56,-101.58 555.17,-94.6"/>
<text text-anchor="middle" x="583.99" y="-101.3" font-family="Times New Roman,serif" font-size="14.00">0.360</text>
</g>
<!-- 3 -->
<g id="node4" class="node">
<title>3</title>
<g id="a_node4"><a xlink:href="ux designer.svg" xlink:title="ux designer">
<ellipse fill="none" stroke="black" cx="52" cy="-18" rx="51.99" ry="18"/>
<text text-anchor="middle" x="52" y="-14.3" font-family="Times New Roman,serif" font-size="14.00">ux designer</text>
</a>
</g>
</g>
<!-- 1&#45;&gt;3 -->
<g id="edge15" class="edge">
<title>1&#45;&gt;3</title>
<path fill="none" stroke="black" d="M433.47,-103.35C340.09,-101.55 162.12,-94.73 105,-69 92.07,-63.18 80.31,-52.87 71.17,-43.13"/>
<polygon fill="black" stroke="black" points="73.68,-40.68 64.42,-35.53 68.44,-45.33 73.68,-40.68"/>
<text text-anchor="middle" x="120.5" y="-57.8" font-family="Times New Roman,serif" font-size="14.00">0.047</text>
</g>
<!-- 5 -->
<g id="node6" class="node">
<title>5</title>
<g id="a_node6"><a xlink:href="it consultant.svg" xlink:title="it consultant">
<ellipse fill="none" stroke="black" cx="177" cy="-18" rx="54.69" ry="18"/>
<text text-anchor="middle" x="177" y="-14.3" font-family="Times New Roman,serif" font-size="14.00">it consultant</text>
</a>
</g>
</g>
<!-- 1&#45;&gt;5 -->
<g id="edge13" class="edge">
<title>1&#45;&gt;5</title>
<path fill="none" stroke="black" d="M433.95,-102.66C384.19,-99.86 311.36,-91.78 252,-69 234.69,-62.36 217.35,-51.16 203.71,-41.05"/>
<polygon fill="black" stroke="black" points="205.79,-38.24 195.72,-34.94 201.54,-43.8 205.79,-38.24"/>
<text text-anchor="middle" x="267.5" y="-57.8" font-family="Times New Roman,serif" font-size="14.00">0.047</text>
</g>
<!-- 6 -->
<g id="node7" class="node">
<title>6</title>
<g id="a_node7"><a xlink:href="pharmacovigilance officer.svg" xlink:title="pharmacovigilance officer">
<ellipse fill="none" stroke="black" cx="354" cy="-18" rx="104.78" ry="18"/>
<text text-anchor="middle" x="354" y="-14.3" font-family="Times New Roman,serif" font-size="14.00">pharmacovigilance officer</text>
</a>
</g>
</g>
<!-- 1&#45;&gt;6 -->
<g id="edge19" class="edge">
<title>1&#45;&gt;6</title>
<path fill="none" stroke="black" d="M439.03,-97.12C418.09,-92.17 395.02,-83.65 378,-69 370.78,-62.79 365.56,-53.93 361.87,-45.38"/>
<polygon fill="black" stroke="black" points="365.14,-44.14 358.33,-36.03 358.6,-46.62 365.14,-44.14"/>
<text text-anchor="middle" x="393.5" y="-57.8" font-family="Times New Roman,serif" font-size="14.00">0.020</text>
</g>
<!-- 8 -->
<g id="node9" class="node">
<title>8</title>
<g id="a_node9"><a xlink:href="project manager.svg" xlink:title="project manager">
<ellipse fill="none" stroke="black" cx="546" cy="-18" rx="68.79" ry="18"/>
<text text-anchor="middle" x="546" y="-14.3" font-family="Times New Roman,serif" font-size="14.00">project manager</text>
</a>
</g>
</g>
<!-- 1&#45;&gt;8 -->
<g id="edge14" class="edge">
<title>1&#45;&gt;8</title>
<path fill="none" stroke="black" d="M486.52,-86.76C484.34,-76.61 483.48,-63.87 489,-54 492.16,-48.35 496.65,-43.5 501.74,-39.37"/>
<polygon fill="black" stroke="black" points="503.97,-42.08 510.12,-33.46 499.93,-36.35 503.97,-42.08"/>
<text text-anchor="middle" x="504.5" y="-57.8" font-family="Times New Roman,serif" font-size="14.00">0.047</text>
</g>
<!-- 9 -->
<g id="node10" class="node">
<title>9</title>
<g id="a_node10"><a xlink:href="qa analyst.svg" xlink:title="qa analyst">
<ellipse fill="none" stroke="black" cx="680" cy="-18" rx="46.59" ry="18"/>
<text text-anchor="middle" x="680" y="-14.3" font-family="Times New Roman,serif" font-size="14.00">qa analyst</text>
</a>
</g>
</g>
<!-- 1&#45;&gt;9 -->
<g id="edge16" class="edge">
<title>1&#45;&gt;9</title>
<path fill="none" stroke="black" d="M523.46,-89.77C555.95,-75.09 606.67,-52.15 641.52,-36.4"/>
<polygon fill="black" stroke="black" points="643.23,-39.46 650.9,-32.15 640.35,-33.09 643.23,-39.46"/>
<text text-anchor="middle" x="613.5" y="-57.8" font-family="Times New Roman,serif" font-size="14.00">0.034</text>
</g>
<!-- 10 -->
<g id="node11" class="node">
<title>10</title>
<g id="a_node11"><a xlink:href="graphic designer.svg" xlink:title="graphic designer">
<ellipse fill="none" stroke="black" cx="815" cy="-18" rx="70.39" ry="18"/>
<text text-anchor="middle" x="815" y="-14.3" font-family="Times New Roman,serif" font-size="14.00">graphic designer</text>
</a>
</g>
</g>
<!-- 1&#45;&gt;10 -->
<g id="edge12" class="edge">
<title>1&#45;&gt;10</title>
<path fill="none" stroke="black" d="M546.03,-97.82C586.91,-92.37 644.16,-83.08 693,-69 720.74,-61 750.75,-48.75 774.07,-38.37"/>
<polygon fill="black" stroke="black" points="775.63,-41.51 783.31,-34.21 772.75,-35.13 775.63,-41.51"/>
<text text-anchor="middle" x="749.5" y="-57.8" font-family="Times New Roman,serif" font-size="14.00">0.068</text>
</g>
<!-- 11 -->
<g id="node12" class="node">
<title>11</title>
<g id="a_node12"><a xlink:href="site manager.svg" xlink:title="site manager">
<ellipse fill="none" stroke="black" cx="959" cy="-18" rx="55.79" ry="18"/>
<text text-anchor="middle" x="959" y="-14.3" font-family="Times New Roman,serif" font-size="14.00">site manager</text>
</a>
</g>
</g>
<!-- 1&#45;&gt;11 -->
<g id="edge17" class="edge">
<title>1&#45;&gt;11</title>
<path fill="none" stroke="black" d="M547.52,-99.15C603.69,-93.74 692.86,-83.76 769,-69 817.41,-59.61 871.74,-44.88 909.86,-33.84"/>
<polygon fill="black" stroke="black" points="911.06,-37.13 919.68,-30.97 909.1,-30.41 911.06,-37.13"/>
<text text-anchor="middle" x="847.5" y="-57.8" font-family="Times New Roman,serif" font-size="14.00">0.027</text>
</g>
<!-- 12 -->
<g id="node13" class="node">
<title>12</title>
<g id="a_node13"><a xlink:href="heritage manager.svg" xlink:title="heritage manager">
<ellipse fill="none" stroke="black" cx="1104" cy="-18" rx="71.49" ry="18"/>
<text text-anchor="middle" x="1104" y="-14.3" font-family="Times New Roman,serif" font-size="14.00">heritage manager</text>
</a>
</g>
</g>
<!-- 1&#45;&gt;12 -->
<g id="edge18" class="edge">
<title>1&#45;&gt;12</title>
<path fill="none" stroke="black" d="M549.1,-100.7C622.83,-95.98 754.99,-85.94 867,-69 937.5,-58.34 954.23,-50.74 1024,-36 1029.6,-34.82 1035.43,-33.58 1041.27,-32.34"/>
<polygon fill="black" stroke="black" points="1042.01,-35.76 1051.07,-30.26 1040.56,-28.92 1042.01,-35.76"/>
<text text-anchor="middle" x="960.5" y="-57.8" font-family="Times New Roman,serif" font-size="14.00">0.020</text>
</g>
<!-- 2 -->
<g id="node3" class="node">
<title>2</title>
<g id="a_node3"><a xlink:href="systems analyst.svg" xlink:title="systems analyst">
<ellipse fill="none" stroke="black" cx="492" cy="-192" rx="67.69" ry="18"/>
<text text-anchor="middle" x="492" y="-188.3" font-family="Times New Roman,serif" font-size="14.00">systems analyst</text>
</a>
</g>
</g>
<!-- 2&#45;&gt;1 -->
<g id="edge2" class="edge">
<title>2&#45;&gt;1</title>
<path fill="none" stroke="black" d="M492,-173.8C492,-162.16 492,-146.55 492,-133.24"/>
<polygon fill="black" stroke="black" points="495.5,-133.18 492,-123.18 488.5,-133.18 495.5,-133.18"/>
<text text-anchor="middle" x="507.5" y="-144.8" font-family="Times New Roman,serif" font-size="14.00">0.032</text>
</g>
<!-- 3&#45;&gt;1 -->
<g id="edge3" class="edge">
<title>3&#45;&gt;1</title>
<path fill="none" stroke="black" d="M82.64,-32.55C110,-44.06 151.42,-60.1 189,-69 268.68,-87.87 362.66,-96.71 424.59,-100.76"/>
<polygon fill="black" stroke="black" points="424.42,-104.25 434.62,-101.39 424.86,-97.27 424.42,-104.25"/>
<text text-anchor="middle" x="204.5" y="-57.8" font-family="Times New Roman,serif" font-size="14.00">0.032</text>
</g>
<!-- 4 -->
<g id="node5" class="node">
<title>4</title>
<g id="a_node5"><a xlink:href="network administrator.svg" xlink:title="network administrator">
<ellipse fill="none" stroke="black" cx="667" cy="-192" rx="89.88" ry="18"/>
<text text-anchor="middle" x="667" y="-188.3" font-family="Times New Roman,serif" font-size="14.00">network administrator</text>
</a>
</g>
</g>
<!-- 4&#45;&gt;1 -->
<g id="edge4" class="edge">
<title>4&#45;&gt;1</title>
<path fill="none" stroke="black" d="M634.49,-175.21C605.29,-161.03 562.34,-140.17 531.24,-125.06"/>
<polygon fill="black" stroke="black" points="532.51,-121.79 521.99,-120.57 529.46,-128.09 532.51,-121.79"/>
<text text-anchor="middle" x="605.5" y="-144.8" font-family="Times New Roman,serif" font-size="14.00">0.026</text>
</g>
<!-- 5&#45;&gt;1 -->
<g id="edge5" class="edge">
<title>5&#45;&gt;1</title>
<path fill="none" stroke="black" d="M214.16,-31.2C256.23,-44.97 320.43,-65.88 332,-69 365.41,-78.02 403.23,-86.38 433.71,-92.66"/>
<polygon fill="black" stroke="black" points="433.24,-96.14 443.74,-94.71 434.65,-89.28 433.24,-96.14"/>
<text text-anchor="middle" x="347.5" y="-57.8" font-family="Times New Roman,serif" font-size="14.00">0.019</text>
</g>
<!-- 6&#45;&gt;1 -->
<g id="edge6" class="edge">
<title>6&#45;&gt;1</title>
<path fill="none" stroke="black" d="M382.01,-35.39C391.84,-41.21 402.94,-47.84 413,-54 428.35,-63.41 445.24,-74.06 459.45,-83.1"/>
<polygon fill="black" stroke="black" points="457.59,-86.07 467.91,-88.5 461.36,-80.17 457.59,-86.07"/>
<text text-anchor="middle" x="453.5" y="-57.8" font-family="Times New Roman,serif" font-size="14.00">0.019</text>
</g>
<!-- 7 -->
<g id="node8" class="node">
<title>7</title>
<g id="a_node8"><a xlink:href="production manager.svg" xlink:title="production manager">
<ellipse fill="none" stroke="black" cx="858" cy="-192" rx="83.39" ry="18"/>
<text text-anchor="middle" x="858" y="-188.3" font-family="Times New Roman,serif" font-size="14.00">production manager</text>
</a>
</g>
</g>
<!-- 7&#45;&gt;1 -->
<g id="edge7" class="edge">
<title>7&#45;&gt;1</title>
<path fill="none" stroke="black" d="M803.6,-178.37C734.6,-162.34 616.3,-134.87 547.02,-118.78"/>
<polygon fill="black" stroke="black" points="547.69,-115.34 537.16,-116.49 546.11,-122.16 547.69,-115.34"/>
<text text-anchor="middle" x="711.5" y="-144.8" font-family="Times New Roman,serif" font-size="14.00">0.019</text>
</g>
<!-- 8&#45;&gt;1 -->
<g id="edge8" class="edge">
<title>8&#45;&gt;1</title>
<path fill="none" stroke="black" d="M539.97,-36.37C536.12,-46.33 530.62,-58.83 524,-69 521.62,-72.65 518.86,-76.28 515.97,-79.75"/>
<polygon fill="black" stroke="black" points="513.14,-77.67 509.14,-87.48 518.39,-82.3 513.14,-77.67"/>
<text text-anchor="middle" x="548.5" y="-57.8" font-family="Times New Roman,serif" font-size="14.00">0.019</text>
</g>
<!-- 9&#45;&gt;1 -->
<g id="edge9" class="edge">
<title>9&#45;&gt;1</title>
<path fill="none" stroke="black" d="M671.27,-35.86C664.68,-46.93 654.62,-60.82 642,-69 617.21,-85.06 585.9,-93.78 558.3,-98.5"/>
<polygon fill="black" stroke="black" points="557.65,-95.06 548.32,-100.07 558.74,-101.97 557.65,-95.06"/>
<text text-anchor="middle" x="673.5" y="-57.8" font-family="Times New Roman,serif" font-size="14.00">0.019</text>
</g>
</g>
</svg>
