<?xml version="1.0" encoding="UTF-8" standalone="no"?>
<!DOCTYPE svg PUBLIC "-//W3C//DTD SVG 1.1//EN"
 "http://www.w3.org/Graphics/SVG/1.1/DTD/svg11.dtd">
<!-- Generated by graphviz version 2.44.1 (20200629.0800)
 -->
<!-- Title: welfare_rights_adviser Pages: 1 -->
<svg width="1356pt" height="218pt"
 viewBox="0.00 0.00 1356.49 218.00" xmlns="http://www.w3.org/2000/svg" xmlns:xlink="http://www.w3.org/1999/xlink">
<g id="graph0" class="graph" transform="scale(1 1) rotate(0) translate(4 214)">
<title>welfare_rights_adviser</title>
<polygon fill="white" stroke="transparent" points="-4,4 -4,-214 1352.49,-214 1352.49,4 -4,4"/>
<!-- 0 -->
<g id="node1" class="node">
<title>0</title>
<g id="a_node1"><a xlink:href="project manager.svg" xlink:title="project manager">
<ellipse fill="none" stroke="black" cx="68.89" cy="-192" rx="68.79" ry="18"/>
<text text-anchor="middle" x="68.89" y="-188.3" font-family="Times New Roman,serif" font-size="14.00">project manager</text>
</a>
</g>
</g>
<!-- 1 -->
<g id="node2" class="node">
<title>1</title>
<g id="a_node2"><a xlink:href="welfare rights adviser.svg" xlink:title="welfare rights adviser">
<ellipse fill="none" stroke="black" cx="530.89" cy="-105" rx="87.18" ry="18"/>
<text text-anchor="middle" x="530.89" y="-101.3" font-family="Times New Roman,serif" font-size="14.00">welfare rights adviser</text>
</a>
</g>
</g>
<!-- 0&#45;&gt;1 -->
<g id="edge1" class="edge">
<title>0&#45;&gt;1</title>
<path fill="none" stroke="black" d="M76.99,-174.03C83.4,-162.61 93.51,-148.34 106.89,-141 134.99,-125.59 319.78,-114.99 435.95,-109.76"/>
<polygon fill="black" stroke="black" points="436.44,-113.24 446.27,-109.3 436.13,-106.25 436.44,-113.24"/>
<text text-anchor="middle" x="122.39" y="-144.8" font-family="Times New Roman,serif" font-size="14.00">0.151</text>
</g>
<!-- 1&#45;&gt;0 -->
<g id="edge12" class="edge">
<title>1&#45;&gt;0</title>
<path fill="none" stroke="black" d="M464.82,-116.78C388.17,-129.51 258.09,-151.75 146.89,-174 141.23,-175.13 135.35,-176.35 129.47,-177.58"/>
<polygon fill="black" stroke="black" points="128.66,-174.18 119.61,-179.68 130.12,-181.02 128.66,-174.18"/>
<text text-anchor="middle" x="328.39" y="-144.8" font-family="Times New Roman,serif" font-size="14.00">0.06</text>
</g>
<!-- 1&#45;&gt;1 -->
<g id="edge19" class="edge">
<title>1&#45;&gt;1</title>
<path fill="none" stroke="black" d="M610.18,-112.5C625.3,-111.6 635.99,-109.1 635.99,-105 635.99,-101.89 629.85,-99.7 620.29,-98.44"/>
<polygon fill="black" stroke="black" points="620.46,-94.94 610.18,-97.5 619.81,-101.91 620.46,-94.94"/>
<text text-anchor="middle" x="648.49" y="-101.3" font-family="Times New Roman,serif" font-size="14.00">0.04</text>
</g>
<!-- 3 -->
<g id="node4" class="node">
<title>3</title>
<g id="a_node4"><a xlink:href="careers adviser.svg" xlink:title="careers adviser">
<ellipse fill="none" stroke="black" cx="67.89" cy="-18" rx="64.99" ry="18"/>
<text text-anchor="middle" x="67.89" y="-14.3" font-family="Times New Roman,serif" font-size="14.00">careers adviser</text>
</a>
</g>
</g>
<!-- 1&#45;&gt;3 -->
<g id="edge11" class="edge">
<title>1&#45;&gt;3</title>
<path fill="none" stroke="black" d="M444.49,-102.71C373.27,-99.89 270.15,-91.76 182.89,-69 155.98,-61.98 127.29,-49.51 105.3,-38.79"/>
<polygon fill="black" stroke="black" points="106.82,-35.64 96.31,-34.32 103.71,-41.9 106.82,-35.64"/>
<text text-anchor="middle" x="195.39" y="-57.8" font-family="Times New Roman,serif" font-size="14.00">0.08</text>
</g>
<!-- 6 -->
<g id="node7" class="node">
<title>6</title>
<g id="a_node7"><a xlink:href="pharmacovigilance officer.svg" xlink:title="pharmacovigilance officer">
<ellipse fill="none" stroke="black" cx="255.89" cy="-18" rx="104.78" ry="18"/>
<text text-anchor="middle" x="255.89" y="-14.3" font-family="Times New Roman,serif" font-size="14.00">pharmacovigilance officer</text>
</a>
</g>
</g>
<!-- 1&#45;&gt;6 -->
<g id="edge18" class="edge">
<title>1&#45;&gt;6</title>
<path fill="none" stroke="black" d="M457.81,-95.13C424.03,-89.72 383.76,-81.4 348.89,-69 328.78,-61.85 307.73,-50.86 290.75,-41"/>
<polygon fill="black" stroke="black" points="292.15,-37.77 281.76,-35.67 288.58,-43.79 292.15,-37.77"/>
<text text-anchor="middle" x="361.39" y="-57.8" font-family="Times New Roman,serif" font-size="14.00">0.04</text>
</g>
<!-- 11 -->
<g id="node12" class="node">
<title>11</title>
<g id="a_node12"><a xlink:href="sales manager.svg" xlink:title="sales manager">
<ellipse fill="none" stroke="black" cx="439.89" cy="-18" rx="61.19" ry="18"/>
<text text-anchor="middle" x="439.89" y="-14.3" font-family="Times New Roman,serif" font-size="14.00">sales manager</text>
</a>
</g>
</g>
<!-- 1&#45;&gt;11 -->
<g id="edge13" class="edge">
<title>1&#45;&gt;11</title>
<path fill="none" stroke="black" d="M512.92,-87.21C499.24,-74.43 480.26,-56.7 465.07,-42.52"/>
<polygon fill="black" stroke="black" points="467.22,-39.74 457.53,-35.47 462.44,-44.85 467.22,-39.74"/>
<text text-anchor="middle" x="503.39" y="-57.8" font-family="Times New Roman,serif" font-size="14.00">0.06</text>
</g>
<!-- 12 -->
<g id="node13" class="node">
<title>12</title>
<g id="a_node13"><a xlink:href="civil service administrator.svg" xlink:title="civil service administrator">
<ellipse fill="none" stroke="black" cx="621.89" cy="-18" rx="102.88" ry="18"/>
<text text-anchor="middle" x="621.89" y="-14.3" font-family="Times New Roman,serif" font-size="14.00">civil service administrator</text>
</a>
</g>
</g>
<!-- 1&#45;&gt;12 -->
<g id="edge14" class="edge">
<title>1&#45;&gt;12</title>
<path fill="none" stroke="black" d="M548.87,-87.21C562.46,-74.52 581.29,-56.93 596.42,-42.79"/>
<polygon fill="black" stroke="black" points="599.03,-45.14 603.95,-35.76 594.26,-40.03 599.03,-45.14"/>
<text text-anchor="middle" x="594.39" y="-57.8" font-family="Times New Roman,serif" font-size="14.00">0.04</text>
</g>
<!-- 13 -->
<g id="node14" class="node">
<title>13</title>
<g id="a_node14"><a xlink:href="curator.svg" xlink:title="curator">
<ellipse fill="none" stroke="black" cx="778.89" cy="-18" rx="36.29" ry="18"/>
<text text-anchor="middle" x="778.89" y="-14.3" font-family="Times New Roman,serif" font-size="14.00">curator</text>
</a>
</g>
</g>
<!-- 1&#45;&gt;13 -->
<g id="edge15" class="edge">
<title>1&#45;&gt;13</title>
<path fill="none" stroke="black" d="M575.81,-89.5C617.06,-76.05 679.8,-55.27 733.89,-36 736.3,-35.14 738.78,-34.25 741.27,-33.33"/>
<polygon fill="black" stroke="black" points="742.71,-36.53 750.87,-29.78 740.28,-29.97 742.71,-36.53"/>
<text text-anchor="middle" x="691.39" y="-57.8" font-family="Times New Roman,serif" font-size="14.00">0.04</text>
</g>
<!-- 14 -->
<g id="node15" class="node">
<title>14</title>
<g id="a_node15"><a xlink:href="health and safety adviser.svg" xlink:title="health and safety adviser">
<ellipse fill="none" stroke="black" cx="932.89" cy="-18" rx="99.38" ry="18"/>
<text text-anchor="middle" x="932.89" y="-14.3" font-family="Times New Roman,serif" font-size="14.00">health and safety adviser</text>
</a>
</g>
</g>
<!-- 1&#45;&gt;14 -->
<g id="edge16" class="edge">
<title>1&#45;&gt;14</title>
<path fill="none" stroke="black" d="M592.4,-92.2C626.48,-85.58 669.57,-77.05 707.89,-69 760.32,-57.99 819.45,-44.82 863.93,-34.77"/>
<polygon fill="black" stroke="black" points="864.78,-38.16 873.76,-32.54 863.23,-31.33 864.78,-38.16"/>
<text text-anchor="middle" x="788.39" y="-57.8" font-family="Times New Roman,serif" font-size="14.00">0.04</text>
</g>
<!-- 15 -->
<g id="node16" class="node">
<title>15</title>
<g id="a_node16"><a xlink:href="human resources officer.svg" xlink:title="human resources officer">
<ellipse fill="none" stroke="black" cx="1148.89" cy="-18" rx="98.58" ry="18"/>
<text text-anchor="middle" x="1148.89" y="-14.3" font-family="Times New Roman,serif" font-size="14.00">human resources officer</text>
</a>
</g>
</g>
<!-- 1&#45;&gt;15 -->
<g id="edge17" class="edge">
<title>1&#45;&gt;15</title>
<path fill="none" stroke="black" d="M603.62,-95C702.65,-82.58 885.39,-59.11 1040.89,-36 1049.42,-34.73 1058.32,-33.38 1067.19,-32.01"/>
<polygon fill="black" stroke="black" points="1067.83,-35.46 1077.17,-30.47 1066.76,-28.54 1067.83,-35.46"/>
<text text-anchor="middle" x="927.39" y="-57.8" font-family="Times New Roman,serif" font-size="14.00">0.04</text>
</g>
<!-- 16 -->
<g id="node17" class="node">
<title>16</title>
<g id="a_node17"><a xlink:href="architect.svg" xlink:title="architect">
<ellipse fill="none" stroke="black" cx="1306.89" cy="-18" rx="41.69" ry="18"/>
<text text-anchor="middle" x="1306.89" y="-14.3" font-family="Times New Roman,serif" font-size="14.00">architect</text>
</a>
</g>
</g>
<!-- 1&#45;&gt;16 -->
<g id="edge20" class="edge">
<title>1&#45;&gt;16</title>
<path fill="none" stroke="black" d="M617.45,-102.74C754.62,-99.22 1029.7,-85.94 1256.89,-36 1260.26,-35.26 1263.72,-34.37 1267.18,-33.39"/>
<polygon fill="black" stroke="black" points="1268.26,-36.72 1276.79,-30.44 1266.21,-30.02 1268.26,-36.72"/>
<text text-anchor="middle" x="1171.39" y="-57.8" font-family="Times New Roman,serif" font-size="14.00">0.02</text>
</g>
<!-- 2 -->
<g id="node3" class="node">
<title>2</title>
<g id="a_node3"><a xlink:href="barristers clerk.svg" xlink:title="barristers clerk">
<ellipse fill="none" stroke="black" cx="219.89" cy="-192" rx="64.19" ry="18"/>
<text text-anchor="middle" x="219.89" y="-188.3" font-family="Times New Roman,serif" font-size="14.00">barristers clerk</text>
</a>
</g>
</g>
<!-- 2&#45;&gt;1 -->
<g id="edge2" class="edge">
<title>2&#45;&gt;1</title>
<path fill="none" stroke="black" d="M264.12,-178.91C318.29,-164.11 410.29,-138.96 470.83,-122.42"/>
<polygon fill="black" stroke="black" points="471.91,-125.75 480.64,-119.74 470.07,-119 471.91,-125.75"/>
<text text-anchor="middle" x="410.39" y="-144.8" font-family="Times New Roman,serif" font-size="14.00">0.075</text>
</g>
<!-- 3&#45;&gt;1 -->
<g id="edge3" class="edge">
<title>3&#45;&gt;1</title>
<path fill="none" stroke="black" d="M113.78,-30.91C157.14,-41.87 224.12,-58.04 282.89,-69 337.27,-79.14 398.84,-87.84 447.02,-94.04"/>
<polygon fill="black" stroke="black" points="446.73,-97.53 457.1,-95.32 447.62,-90.58 446.73,-97.53"/>
<text text-anchor="middle" x="298.39" y="-57.8" font-family="Times New Roman,serif" font-size="14.00">0.045</text>
</g>
<!-- 4 -->
<g id="node5" class="node">
<title>4</title>
<g id="a_node5"><a xlink:href="catering manager.svg" xlink:title="catering manager">
<ellipse fill="none" stroke="black" cx="373.89" cy="-192" rx="71.49" ry="18"/>
<text text-anchor="middle" x="373.89" y="-188.3" font-family="Times New Roman,serif" font-size="14.00">catering manager</text>
</a>
</g>
</g>
<!-- 4&#45;&gt;1 -->
<g id="edge4" class="edge">
<title>4&#45;&gt;1</title>
<path fill="none" stroke="black" d="M402.69,-175.41C427.82,-161.8 464.5,-141.94 492.2,-126.95"/>
<polygon fill="black" stroke="black" points="494.09,-129.91 501.21,-122.07 490.75,-123.75 494.09,-129.91"/>
<text text-anchor="middle" x="477.39" y="-144.8" font-family="Times New Roman,serif" font-size="14.00">0.045</text>
</g>
<!-- 5 -->
<g id="node6" class="node">
<title>5</title>
<g id="a_node6"><a xlink:href="housing adviser.svg" xlink:title="housing adviser">
<ellipse fill="none" stroke="black" cx="530.89" cy="-192" rx="67.69" ry="18"/>
<text text-anchor="middle" x="530.89" y="-188.3" font-family="Times New Roman,serif" font-size="14.00">housing adviser</text>
</a>
</g>
</g>
<!-- 5&#45;&gt;1 -->
<g id="edge5" class="edge">
<title>5&#45;&gt;1</title>
<path fill="none" stroke="black" d="M530.89,-173.8C530.89,-162.16 530.89,-146.55 530.89,-133.24"/>
<polygon fill="black" stroke="black" points="534.39,-133.18 530.89,-123.18 527.39,-133.18 534.39,-133.18"/>
<text text-anchor="middle" x="546.39" y="-144.8" font-family="Times New Roman,serif" font-size="14.00">0.045</text>
</g>
<!-- 6&#45;&gt;1 -->
<g id="edge6" class="edge">
<title>6&#45;&gt;1</title>
<path fill="none" stroke="black" d="M304.74,-34.1C352.42,-48.83 424.88,-71.23 474.87,-86.68"/>
<polygon fill="black" stroke="black" points="473.97,-90.07 484.55,-89.68 476.03,-83.38 473.97,-90.07"/>
<text text-anchor="middle" x="425.39" y="-57.8" font-family="Times New Roman,serif" font-size="14.00">0.045</text>
</g>
<!-- 7 -->
<g id="node8" class="node">
<title>7</title>
<g id="a_node8"><a xlink:href="it consultant.svg" xlink:title="it consultant">
<ellipse fill="none" stroke="black" cx="670.89" cy="-192" rx="54.69" ry="18"/>
<text text-anchor="middle" x="670.89" y="-188.3" font-family="Times New Roman,serif" font-size="14.00">it consultant</text>
</a>
</g>
</g>
<!-- 7&#45;&gt;1 -->
<g id="edge7" class="edge">
<title>7&#45;&gt;1</title>
<path fill="none" stroke="black" d="M645.86,-175.8C623.73,-162.36 591.19,-142.61 566.37,-127.54"/>
<polygon fill="black" stroke="black" points="567.98,-124.42 557.61,-122.22 564.34,-130.4 567.98,-124.42"/>
<text text-anchor="middle" x="625.39" y="-144.8" font-family="Times New Roman,serif" font-size="14.00">0.030</text>
</g>
<!-- 8 -->
<g id="node9" class="node">
<title>8</title>
<g id="a_node9"><a xlink:href="legal executive.svg" xlink:title="legal executive">
<ellipse fill="none" stroke="black" cx="806.89" cy="-192" rx="63.09" ry="18"/>
<text text-anchor="middle" x="806.89" y="-188.3" font-family="Times New Roman,serif" font-size="14.00">legal executive</text>
</a>
</g>
</g>
<!-- 8&#45;&gt;1 -->
<g id="edge8" class="edge">
<title>8&#45;&gt;1</title>
<path fill="none" stroke="black" d="M765.62,-178.24C732.88,-168.13 685.97,-153.64 644.89,-141 626.11,-135.22 605.58,-128.91 587.18,-123.26"/>
<polygon fill="black" stroke="black" points="588.08,-119.88 577.49,-120.29 586.02,-126.57 588.08,-119.88"/>
<text text-anchor="middle" x="705.39" y="-144.8" font-family="Times New Roman,serif" font-size="14.00">0.030</text>
</g>
<!-- 9 -->
<g id="node10" class="node">
<title>9</title>
<g id="a_node10"><a xlink:href="production manager.svg" xlink:title="production manager">
<ellipse fill="none" stroke="black" cx="970.89" cy="-192" rx="83.39" ry="18"/>
<text text-anchor="middle" x="970.89" y="-188.3" font-family="Times New Roman,serif" font-size="14.00">production manager</text>
</a>
</g>
</g>
<!-- 9&#45;&gt;1 -->
<g id="edge9" class="edge">
<title>9&#45;&gt;1</title>
<path fill="none" stroke="black" d="M913.31,-178.92C863.5,-168.56 789.52,-153.4 724.89,-141 685.41,-133.43 641.32,-125.44 605.16,-119"/>
<polygon fill="black" stroke="black" points="605.64,-115.53 595.18,-117.23 604.42,-122.43 605.64,-115.53"/>
<text text-anchor="middle" x="814.39" y="-144.8" font-family="Times New Roman,serif" font-size="14.00">0.030</text>
</g>
<!-- 10 -->
<g id="node11" class="node">
<title>10</title>
<g id="a_node11"><a xlink:href="retail buyer.svg" xlink:title="retail buyer">
<ellipse fill="none" stroke="black" cx="1122.89" cy="-192" rx="50.89" ry="18"/>
<text text-anchor="middle" x="1122.89" y="-188.3" font-family="Times New Roman,serif" font-size="14.00">retail buyer</text>
</a>
</g>
</g>
<!-- 10&#45;&gt;1 -->
<g id="edge10" class="edge">
<title>10&#45;&gt;1</title>
<path fill="none" stroke="black" d="M1085.64,-179.62C1078.15,-177.56 1070.31,-175.58 1062.89,-174 909.6,-141.39 727.9,-122.26 621.42,-112.99"/>
<polygon fill="black" stroke="black" points="621.61,-109.49 611.35,-112.12 621.01,-116.47 621.61,-109.49"/>
<text text-anchor="middle" x="977.39" y="-144.8" font-family="Times New Roman,serif" font-size="14.00">0.030</text>
</g>
</g>
</svg>
