<?xml version="1.0" encoding="UTF-8" standalone="no"?>
<!DOCTYPE svg PUBLIC "-//W3C//DTD SVG 1.1//EN"
 "http://www.w3.org/Graphics/SVG/1.1/DTD/svg11.dtd">
<!-- Generated by graphviz version 2.44.1 (20200629.0800)
 -->
<!-- Title: test Pages: 1 -->
<svg width="1271pt" height="218pt"
 viewBox="0.00 0.00 1270.63 218.00" xmlns="http://www.w3.org/2000/svg" xmlns:xlink="http://www.w3.org/1999/xlink">
<g id="graph0" class="graph" transform="scale(1 1) rotate(0) translate(4 214)">
<title>test</title>
<polygon fill="white" stroke="transparent" points="-4,4 -4,-214 1266.63,-214 1266.63,4 -4,4"/>
<!-- 0 -->
<g id="node1" class="node">
<title>0</title>
<g id="a_node1"><a xlink:href="commissioning editor.svg" xlink:title="commissioning editor">
<ellipse fill="none" stroke="black" cx="500.64" cy="-192" rx="89.08" ry="18"/>
<text text-anchor="middle" x="500.64" y="-188.3" font-family="Times New Roman,serif" font-size="14.00">commissioning editor</text>
</a>
</g>
</g>
<!-- 1 -->
<g id="node2" class="node">
<title>1</title>
<g id="a_node2"><a xlink:href="writer.svg" xlink:title="writer">
<ellipse fill="none" stroke="black" cx="633.64" cy="-105" rx="31.4" ry="18"/>
<text text-anchor="middle" x="633.64" y="-101.3" font-family="Times New Roman,serif" font-size="14.00">writer</text>
</a>
</g>
</g>
<!-- 0&#45;&gt;1 -->
<g id="edge1" class="edge">
<title>0&#45;&gt;1</title>
<path fill="none" stroke="black" d="M513.17,-173.88C521.64,-163.26 533.64,-149.99 546.64,-141 561.61,-130.65 580.1,-122.67 596.18,-116.95"/>
<polygon fill="black" stroke="black" points="597.47,-120.21 605.82,-113.69 595.23,-113.58 597.47,-120.21"/>
<text text-anchor="middle" x="562.14" y="-144.8" font-family="Times New Roman,serif" font-size="14.00">0.048</text>
</g>
<!-- 1&#45;&gt;0 -->
<g id="edge14" class="edge">
<title>1&#45;&gt;0</title>
<path fill="none" stroke="black" d="M618.98,-121.36C608.24,-132.02 592.93,-146.03 577.64,-156 568.88,-161.71 559.03,-166.96 549.38,-171.55"/>
<polygon fill="black" stroke="black" points="547.86,-168.4 540.23,-175.75 550.78,-174.76 547.86,-168.4"/>
<text text-anchor="middle" x="613.14" y="-144.8" font-family="Times New Roman,serif" font-size="14.00">0.037</text>
</g>
<!-- 1&#45;&gt;1 -->
<g id="edge10" class="edge">
<title>1&#45;&gt;1</title>
<path fill="none" stroke="black" d="M661.95,-112.83C673.31,-113.27 682.84,-110.66 682.84,-105 682.84,-101.2 678.54,-98.77 672.27,-97.72"/>
<polygon fill="black" stroke="black" points="672.12,-94.21 661.95,-97.17 671.75,-101.2 672.12,-94.21"/>
<text text-anchor="middle" x="698.34" y="-101.3" font-family="Times New Roman,serif" font-size="14.00">0.127</text>
</g>
<!-- 2 -->
<g id="node3" class="node">
<title>2</title>
<g id="a_node3"><a xlink:href="pharmacovigilance officer.svg" xlink:title="pharmacovigilance officer">
<ellipse fill="none" stroke="black" cx="104.64" cy="-18" rx="104.78" ry="18"/>
<text text-anchor="middle" x="104.64" y="-14.3" font-family="Times New Roman,serif" font-size="14.00">pharmacovigilance officer</text>
</a>
</g>
</g>
<!-- 1&#45;&gt;2 -->
<g id="edge13" class="edge">
<title>1&#45;&gt;2</title>
<path fill="none" stroke="black" d="M602.5,-102.76C518.53,-99.2 288.87,-87.96 215.64,-69 190.45,-62.48 163.81,-50.66 142.94,-40.15"/>
<polygon fill="black" stroke="black" points="144.28,-36.9 133.79,-35.44 141.08,-43.13 144.28,-36.9"/>
<text text-anchor="middle" x="231.14" y="-57.8" font-family="Times New Roman,serif" font-size="14.00">0.045</text>
</g>
<!-- 3 -->
<g id="node4" class="node">
<title>3</title>
<g id="a_node4"><a xlink:href="production manager.svg" xlink:title="production manager">
<ellipse fill="none" stroke="black" cx="310.64" cy="-18" rx="83.39" ry="18"/>
<text text-anchor="middle" x="310.64" y="-14.3" font-family="Times New Roman,serif" font-size="14.00">production manager</text>
</a>
</g>
</g>
<!-- 1&#45;&gt;3 -->
<g id="edge16" class="edge">
<title>1&#45;&gt;3</title>
<path fill="none" stroke="black" d="M602.39,-103.99C554.26,-103.01 459.79,-97.26 385.64,-69 368.85,-62.6 352.03,-51.88 338.58,-42"/>
<polygon fill="black" stroke="black" points="340.35,-38.95 330.27,-35.69 336.12,-44.53 340.35,-38.95"/>
<text text-anchor="middle" x="401.14" y="-57.8" font-family="Times New Roman,serif" font-size="14.00">0.037</text>
</g>
<!-- 4 -->
<g id="node5" class="node">
<title>4</title>
<g id="a_node5"><a xlink:href="marketing assistant.svg" xlink:title="marketing assistant">
<ellipse fill="none" stroke="black" cx="490.64" cy="-18" rx="79.09" ry="18"/>
<text text-anchor="middle" x="490.64" y="-14.3" font-family="Times New Roman,serif" font-size="14.00">marketing assistant</text>
</a>
</g>
</g>
<!-- 1&#45;&gt;4 -->
<g id="edge15" class="edge">
<title>1&#45;&gt;4</title>
<path fill="none" stroke="black" d="M602.69,-102.03C576.24,-98.84 538.62,-90.54 513.64,-69 506.57,-62.9 501.54,-54.17 498.03,-45.7"/>
<polygon fill="black" stroke="black" points="501.25,-44.3 494.58,-36.06 494.66,-46.66 501.25,-44.3"/>
<text text-anchor="middle" x="529.14" y="-57.8" font-family="Times New Roman,serif" font-size="14.00">0.037</text>
</g>
<!-- 5 -->
<g id="node6" class="node">
<title>5</title>
<g id="a_node6"><a xlink:href="project manager.svg" xlink:title="project manager">
<ellipse fill="none" stroke="black" cx="656.64" cy="-18" rx="68.79" ry="18"/>
<text text-anchor="middle" x="656.64" y="-14.3" font-family="Times New Roman,serif" font-size="14.00">project manager</text>
</a>
</g>
</g>
<!-- 1&#45;&gt;5 -->
<g id="edge17" class="edge">
<title>1&#45;&gt;5</title>
<path fill="none" stroke="black" d="M618.89,-89.05C610.91,-79.08 603.76,-65.7 609.64,-54 612.03,-49.24 615.42,-44.95 619.28,-41.16"/>
<polygon fill="black" stroke="black" points="621.82,-43.6 627.18,-34.46 617.29,-38.26 621.82,-43.6"/>
<text text-anchor="middle" x="625.14" y="-57.8" font-family="Times New Roman,serif" font-size="14.00">0.037</text>
</g>
<!-- 8 -->
<g id="node9" class="node">
<title>8</title>
<g id="a_node9"><a xlink:href="it consultant.svg" xlink:title="it consultant">
<ellipse fill="none" stroke="black" cx="797.64" cy="-18" rx="54.69" ry="18"/>
<text text-anchor="middle" x="797.64" y="-14.3" font-family="Times New Roman,serif" font-size="14.00">it consultant</text>
</a>
</g>
</g>
<!-- 1&#45;&gt;8 -->
<g id="edge12" class="edge">
<title>1&#45;&gt;8</title>
<path fill="none" stroke="black" d="M654.16,-91.26C671.37,-80.76 696.75,-65.75 719.64,-54 731.31,-48.01 744.22,-41.99 756.12,-36.66"/>
<polygon fill="black" stroke="black" points="757.67,-39.8 765.4,-32.56 754.84,-33.4 757.67,-39.8"/>
<text text-anchor="middle" x="735.14" y="-57.8" font-family="Times New Roman,serif" font-size="14.00">0.052</text>
</g>
<!-- 9 -->
<g id="node10" class="node">
<title>9</title>
<g id="a_node10"><a xlink:href="journalist.svg" xlink:title="journalist">
<ellipse fill="none" stroke="black" cx="913.64" cy="-18" rx="43.59" ry="18"/>
<text text-anchor="middle" x="913.64" y="-14.3" font-family="Times New Roman,serif" font-size="14.00">journalist</text>
</a>
</g>
</g>
<!-- 1&#45;&gt;9 -->
<g id="edge11" class="edge">
<title>1&#45;&gt;9</title>
<path fill="none" stroke="black" d="M663.71,-100.05C698.48,-94.99 757.14,-84.92 805.64,-69 819.72,-64.38 851.91,-49.25 877.5,-36.83"/>
<polygon fill="black" stroke="black" points="879.13,-39.93 886.59,-32.4 876.07,-33.64 879.13,-39.93"/>
<text text-anchor="middle" x="855.14" y="-57.8" font-family="Times New Roman,serif" font-size="14.00">0.060</text>
</g>
<!-- 10 -->
<g id="node11" class="node">
<title>10</title>
<g id="a_node11"><a xlink:href="secretary.svg" xlink:title="secretary">
<ellipse fill="none" stroke="black" cx="1018.64" cy="-18" rx="43.59" ry="18"/>
<text text-anchor="middle" x="1018.64" y="-14.3" font-family="Times New Roman,serif" font-size="14.00">secretary</text>
</a>
</g>
</g>
<!-- 1&#45;&gt;10 -->
<g id="edge18" class="edge">
<title>1&#45;&gt;10</title>
<path fill="none" stroke="black" d="M664.94,-104.16C719.59,-103.59 835.38,-98.6 927.64,-69 949.27,-62.06 971.66,-49.83 988.82,-39.21"/>
<polygon fill="black" stroke="black" points="990.72,-42.15 997.28,-33.84 986.96,-36.24 990.72,-42.15"/>
<text text-anchor="middle" x="977.14" y="-57.8" font-family="Times New Roman,serif" font-size="14.00">0.037</text>
</g>
<!-- 11 -->
<g id="node12" class="node">
<title>11</title>
<g id="a_node12"><a xlink:href="advertising copywriter.svg" xlink:title="advertising copywriter">
<ellipse fill="none" stroke="black" cx="1171.64" cy="-18" rx="90.98" ry="18"/>
<text text-anchor="middle" x="1171.64" y="-14.3" font-family="Times New Roman,serif" font-size="14.00">advertising copywriter</text>
</a>
</g>
</g>
<!-- 1&#45;&gt;11 -->
<g id="edge19" class="edge">
<title>1&#45;&gt;11</title>
<path fill="none" stroke="black" d="M664.99,-102.9C728.21,-100.26 875.34,-91.98 996.64,-69 1038.04,-61.16 1083.79,-47.92 1118.12,-37.04"/>
<polygon fill="black" stroke="black" points="1119.49,-40.27 1127.94,-33.89 1117.35,-33.61 1119.49,-40.27"/>
<text text-anchor="middle" x="1075.14" y="-57.8" font-family="Times New Roman,serif" font-size="14.00">0.030</text>
</g>
<!-- 2&#45;&gt;1 -->
<g id="edge2" class="edge">
<title>2&#45;&gt;1</title>
<path fill="none" stroke="black" d="M159.4,-33.37C203.28,-44.45 266.56,-59.45 322.64,-69 418.64,-85.36 532.67,-95.97 592.42,-100.86"/>
<polygon fill="black" stroke="black" points="592.33,-104.36 602.58,-101.68 592.89,-97.39 592.33,-104.36"/>
<text text-anchor="middle" x="338.14" y="-57.8" font-family="Times New Roman,serif" font-size="14.00">0.041</text>
</g>
<!-- 3&#45;&gt;1 -->
<g id="edge3" class="edge">
<title>3&#45;&gt;1</title>
<path fill="none" stroke="black" d="M352.62,-33.64C384.05,-44.28 428.23,-58.6 467.64,-69 510.61,-80.34 560.6,-90.47 594.4,-96.88"/>
<polygon fill="black" stroke="black" points="593.87,-100.34 604.35,-98.75 595.16,-93.46 593.87,-100.34"/>
<text text-anchor="middle" x="483.14" y="-57.8" font-family="Times New Roman,serif" font-size="14.00">0.041</text>
</g>
<!-- 4&#45;&gt;1 -->
<g id="edge4" class="edge">
<title>4&#45;&gt;1</title>
<path fill="none" stroke="black" d="M516.75,-35.17C532.81,-45.05 553.84,-57.88 572.64,-69 582.52,-74.84 593.36,-81.11 603.13,-86.71"/>
<polygon fill="black" stroke="black" points="601.68,-89.91 612.1,-91.83 605.16,-83.83 601.68,-89.91"/>
<text text-anchor="middle" x="588.14" y="-57.8" font-family="Times New Roman,serif" font-size="14.00">0.027</text>
</g>
<!-- 5&#45;&gt;1 -->
<g id="edge5" class="edge">
<title>5&#45;&gt;1</title>
<path fill="none" stroke="black" d="M651.99,-36.18C648.81,-47.92 644.54,-63.73 640.91,-77.13"/>
<polygon fill="black" stroke="black" points="637.53,-76.23 638.3,-86.8 644.29,-78.06 637.53,-76.23"/>
<text text-anchor="middle" x="662.14" y="-57.8" font-family="Times New Roman,serif" font-size="14.00">0.027</text>
</g>
<!-- 6 -->
<g id="node7" class="node">
<title>6</title>
<g id="a_node7"><a xlink:href="sales manager.svg" xlink:title="sales manager">
<ellipse fill="none" stroke="black" cx="668.64" cy="-192" rx="61.19" ry="18"/>
<text text-anchor="middle" x="668.64" y="-188.3" font-family="Times New Roman,serif" font-size="14.00">sales manager</text>
</a>
</g>
</g>
<!-- 6&#45;&gt;1 -->
<g id="edge6" class="edge">
<title>6&#45;&gt;1</title>
<path fill="none" stroke="black" d="M661.56,-173.8C656.61,-161.78 649.91,-145.51 644.31,-131.92"/>
<polygon fill="black" stroke="black" points="647.52,-130.51 640.47,-122.6 641.05,-133.18 647.52,-130.51"/>
<text text-anchor="middle" x="669.14" y="-144.8" font-family="Times New Roman,serif" font-size="14.00">0.027</text>
</g>
<!-- 7 -->
<g id="node8" class="node">
<title>7</title>
<g id="a_node8"><a xlink:href="teaching assistant.svg" xlink:title="teaching assistant">
<ellipse fill="none" stroke="black" cx="821.64" cy="-192" rx="73.39" ry="18"/>
<text text-anchor="middle" x="821.64" y="-188.3" font-family="Times New Roman,serif" font-size="14.00">teaching assistant</text>
</a>
</g>
</g>
<!-- 7&#45;&gt;1 -->
<g id="edge7" class="edge">
<title>7&#45;&gt;1</title>
<path fill="none" stroke="black" d="M788.03,-175.8C753.81,-160.33 701.07,-136.49 666.96,-121.06"/>
<polygon fill="black" stroke="black" points="667.99,-117.69 657.43,-116.76 665.1,-124.07 667.99,-117.69"/>
<text text-anchor="middle" x="754.14" y="-144.8" font-family="Times New Roman,serif" font-size="14.00">0.027</text>
</g>
<!-- 8&#45;&gt;1 -->
<g id="edge8" class="edge">
<title>8&#45;&gt;1</title>
<path fill="none" stroke="black" d="M786.79,-36.11C779.06,-47 767.74,-60.58 754.64,-69 730.25,-84.67 698.68,-93.5 673.9,-98.36"/>
<polygon fill="black" stroke="black" points="672.94,-94.98 663.73,-100.22 674.2,-101.87 672.94,-94.98"/>
<text text-anchor="middle" x="786.14" y="-57.8" font-family="Times New Roman,serif" font-size="14.00">0.020</text>
</g>
<!-- 9&#45;&gt;1 -->
<g id="edge9" class="edge">
<title>9&#45;&gt;1</title>
<path fill="none" stroke="black" d="M905.73,-35.72C899.47,-47.02 889.62,-61.25 876.64,-69 843.41,-88.84 735.05,-98.15 674.87,-101.88"/>
<polygon fill="black" stroke="black" points="674.35,-98.4 664.58,-102.49 674.77,-105.39 674.35,-98.4"/>
<text text-anchor="middle" x="908.14" y="-57.8" font-family="Times New Roman,serif" font-size="14.00">0.020</text>
</g>
</g>
</svg>
